<?xml version="1.0" encoding="UTF-8" standalone="no"?>
<!DOCTYPE svg PUBLIC "-//W3C//DTD SVG 1.1//EN"
 "http://www.w3.org/Graphics/SVG/1.1/DTD/svg11.dtd">
<!-- Generated by graphviz version 2.43.0 (0)
 -->
<!-- Title: bin/llvm&#45;ar_lib/libLLVMTextAPI.a Pages: 1 -->
<svg width="373pt" height="391pt"
 viewBox="0.00 0.00 373.00 391.00" xmlns="http://www.w3.org/2000/svg" xmlns:xlink="http://www.w3.org/1999/xlink">
<g id="graph0" class="graph" transform="scale(1 1) rotate(0) translate(4 387)">
<title>bin/llvm&#45;ar_lib/libLLVMTextAPI.a</title>
<polygon fill="white" stroke="transparent" points="-4,4 -4,-387 369,-387 369,4 -4,4"/>
<text text-anchor="middle" x="182.5" y="-7.8" font-family="Times,serif" font-size="14.00">bin/llvm&#45;ar_lib/libLLVMTextAPI.a</text>
<!-- Node0x56078b2b4558 -->
<g id="node1" class="node">
<title>Node0x56078b2b4558</title>
<polygon fill="none" stroke="black" points="324.5,-59 40.5,-59 40.5,-23 324.5,-23 324.5,-59"/>
<text text-anchor="middle" x="182.5" y="-37.3" font-family="Times,serif" font-size="14.00">{lib/libLLVMTextAPI.a(Target.cpp.o)}</text>
</g>
<!-- Node0x56078b2b2258 -->
<g id="node2" class="node">
<title>Node0x56078b2b2258</title>
<polygon fill="none" stroke="black" points="345.5,-113 19.5,-113 19.5,-77 345.5,-77 345.5,-113"/>
<text text-anchor="middle" x="182.5" y="-91.3" font-family="Times,serif" font-size="14.00">{lib/libLLVMTextAPI.a(Architecture.cpp.o)}</text>
</g>
<!-- Node0x56078b2b3068 -->
<g id="node3" class="node">
<title>Node0x56078b2b3068</title>
<polygon fill="none" stroke="black" points="333.5,-167 31.5,-167 31.5,-131 333.5,-131 333.5,-167"/>
<text text-anchor="middle" x="182.5" y="-145.3" font-family="Times,serif" font-size="14.00">{lib/libLLVMTextAPI.a(TextStub.cpp.o)}</text>
</g>
<!-- Node0x56078b2ad078 -->
<g id="node4" class="node">
<title>Node0x56078b2ad078</title>
<polygon fill="none" stroke="black" points="347,-221 18,-221 18,-185 347,-185 347,-221"/>
<text text-anchor="middle" x="182.5" y="-199.3" font-family="Times,serif" font-size="14.00">{lib/libLLVMTextAPI.a(InterfaceFile.cpp.o)}</text>
</g>
<!-- Node0x56078b2abef8 -->
<g id="node5" class="node">
<title>Node0x56078b2abef8</title>
<polygon fill="none" stroke="black" points="357.5,-275 7.5,-275 7.5,-239 357.5,-239 357.5,-275"/>
<text text-anchor="middle" x="182.5" y="-253.3" font-family="Times,serif" font-size="14.00">{lib/libLLVMTextAPI.a(ArchitectureSet.cpp.o)}</text>
</g>
<!-- Node0x56078b2ade88 -->
<g id="node6" class="node">
<title>Node0x56078b2ade88</title>
<polygon fill="none" stroke="black" points="365,-329 0,-329 0,-293 365,-293 365,-329"/>
<text text-anchor="middle" x="182.5" y="-307.3" font-family="Times,serif" font-size="14.00">{lib/libLLVMTextAPI.a(TextStubCommon.cpp.o)}</text>
</g>
<!-- Node0x56078b2ae068 -->
<g id="node7" class="node">
<title>Node0x56078b2ae068</title>
<polygon fill="none" stroke="black" points="353,-383 12,-383 12,-347 353,-347 353,-383"/>
<text text-anchor="middle" x="182.5" y="-361.3" font-family="Times,serif" font-size="14.00">{lib/libLLVMTextAPI.a(PackedVersion.cpp.o)}</text>
</g>
</g>
</svg>
