<?xml version="1.0" encoding="UTF-8" standalone="no"?>
<!DOCTYPE svg PUBLIC "-//W3C//DTD SVG 1.1//EN"
 "http://www.w3.org/Graphics/SVG/1.1/DTD/svg11.dtd">
<!-- Generated by graphviz version 2.43.0 (0)
 -->
<!-- Title: bin/bugpoint_lib/libLLVMInstCombine.a Pages: 1 -->
<svg width="1427pt" height="774pt"
 viewBox="0.00 0.00 1427.00 773.57" xmlns="http://www.w3.org/2000/svg" xmlns:xlink="http://www.w3.org/1999/xlink">
<g id="graph0" class="graph" transform="scale(1 1) rotate(0) translate(4 769.57)">
<title>bin/bugpoint_lib/libLLVMInstCombine.a</title>
<polygon fill="white" stroke="transparent" points="-4,4 -4,-769.57 1423,-769.57 1423,4 -4,4"/>
<text text-anchor="middle" x="709.5" y="-7.8" font-family="Times,serif" font-size="14.00">bin/bugpoint_lib/libLLVMInstCombine.a</text>
<!-- Node0x55fab0f96ab8 -->
<g id="node1" class="node">
<title>Node0x55fab0f96ab8</title>
<polygon fill="#7fb2ff" stroke="black" points="428,-414.57 0,-414.57 0,-378.57 428,-378.57 428,-414.57"/>
<text text-anchor="middle" x="214" y="-392.87" font-family="Times,serif" font-size="14.00">{lib/libLLVMInstCombine.a(InstructionCombining.cpp.o)}</text>
</g>
<!-- Node0x55fab0f96d38 -->
<g id="node2" class="node">
<title>Node0x55fab0f96d38</title>
<polygon fill="#7fb2ff" stroke="black" points="923,-171.57 504,-171.57 504,-135.57 923,-135.57 923,-171.57"/>
<text text-anchor="middle" x="713.5" y="-149.87" font-family="Times,serif" font-size="14.00">{lib/libLLVMInstCombine.a(InstCombineAddSub.cpp.o)}</text>
</g>
<!-- Node0x55fab0f96ab8&#45;&gt;Node0x55fab0f96d38 -->
<g id="edge1" class="edge">
<title>Node0x55fab0f96ab8&#45;&gt;Node0x55fab0f96d38</title>
<path fill="none" stroke="#7fb2ff" d="M225.78,-378.46C257.32,-333.65 354.11,-219.52 464,-171.57 473.75,-167.32 483.9,-163.64 494.3,-160.46"/>
<polygon fill="#7fb2ff" stroke="#7fb2ff" points="495.28,-163.82 503.91,-157.68 493.33,-157.09 495.28,-163.82"/>
</g>
<!-- Node0x55fab0f97968 -->
<g id="node3" class="node">
<title>Node0x55fab0f97968</title>
<polygon fill="#7fb2ff" stroke="black" points="938,-765.57 489,-765.57 489,-729.57 938,-729.57 938,-765.57"/>
<text text-anchor="middle" x="713.5" y="-743.87" font-family="Times,serif" font-size="14.00">{lib/libLLVMInstCombine.a(InstCombineAtomicRMW.cpp.o)}</text>
</g>
<!-- Node0x55fab0f96ab8&#45;&gt;Node0x55fab0f97968 -->
<g id="edge2" class="edge">
<title>Node0x55fab0f96ab8&#45;&gt;Node0x55fab0f97968</title>
<path fill="none" stroke="#7fb2ff" d="M224.41,-414.68C251.38,-470.58 335.35,-639.3 464,-711.57 474.27,-717.35 485.16,-722.2 496.42,-726.27"/>
<polygon fill="#7fb2ff" stroke="#7fb2ff" points="495.36,-729.6 505.95,-729.51 497.61,-722.98 495.36,-729.6"/>
</g>
<!-- Node0x55fab0f95de8 -->
<g id="node4" class="node">
<title>Node0x55fab0f95de8</title>
<polygon fill="#7fb2ff" stroke="black" points="929.5,-333.57 497.5,-333.57 497.5,-297.57 929.5,-297.57 929.5,-333.57"/>
<text text-anchor="middle" x="713.5" y="-311.87" font-family="Times,serif" font-size="14.00">{lib/libLLVMInstCombine.a(InstCombineAndOrXor.cpp.o)}</text>
</g>
<!-- Node0x55fab0f96ab8&#45;&gt;Node0x55fab0f95de8 -->
<g id="edge3" class="edge">
<title>Node0x55fab0f96ab8&#45;&gt;Node0x55fab0f95de8</title>
<path fill="none" stroke="#7fb2ff" d="M260.62,-378.53C310.34,-364.09 392.39,-345.2 464,-333.57 471.68,-332.33 479.5,-331.12 487.41,-329.96"/>
<polygon fill="#7fb2ff" stroke="#7fb2ff" points="488.07,-333.41 497.47,-328.52 487.08,-326.48 488.07,-333.41"/>
</g>
<!-- Node0x55fab0f95758 -->
<g id="node5" class="node">
<title>Node0x55fab0f95758</title>
<polygon fill="#7fb2ff" stroke="black" points="912.5,-441.57 514.5,-441.57 514.5,-405.57 912.5,-405.57 912.5,-441.57"/>
<text text-anchor="middle" x="713.5" y="-419.87" font-family="Times,serif" font-size="14.00">{lib/libLLVMInstCombine.a(InstCombineCalls.cpp.o)}</text>
</g>
<!-- Node0x55fab0f96ab8&#45;&gt;Node0x55fab0f95758 -->
<g id="edge4" class="edge">
<title>Node0x55fab0f96ab8&#45;&gt;Node0x55fab0f95758</title>
<path fill="none" stroke="#7fb2ff" d="M428.15,-401.45C453.41,-402.74 479.17,-404.14 504.36,-405.61"/>
<polygon fill="#7fb2ff" stroke="#7fb2ff" points="504.17,-409.1 514.36,-406.2 504.58,-402.12 504.17,-409.1"/>
</g>
<!-- Node0x55fab0f96478 -->
<g id="node6" class="node">
<title>Node0x55fab0f96478</title>
<polygon fill="#7fb2ff" stroke="black" points="915,-279.57 512,-279.57 512,-243.57 915,-243.57 915,-279.57"/>
<text text-anchor="middle" x="713.5" y="-257.87" font-family="Times,serif" font-size="14.00">{lib/libLLVMInstCombine.a(InstCombineCasts.cpp.o)}</text>
</g>
<!-- Node0x55fab0f96ab8&#45;&gt;Node0x55fab0f96478 -->
<g id="edge5" class="edge">
<title>Node0x55fab0f96ab8&#45;&gt;Node0x55fab0f96478</title>
<path fill="none" stroke="#7fb2ff" d="M238.18,-378.41C281.21,-351.39 377,-302.6 464,-279.57 476.29,-276.32 489.01,-273.46 501.92,-270.96"/>
<polygon fill="#7fb2ff" stroke="#7fb2ff" points="502.63,-274.39 511.82,-269.11 501.35,-267.5 502.63,-274.39"/>
</g>
<!-- Node0x55fab0f8a718 -->
<g id="node7" class="node">
<title>Node0x55fab0f8a718</title>
<polygon fill="#7fb2ff" stroke="black" points="931,-387.57 496,-387.57 496,-351.57 931,-351.57 931,-387.57"/>
<text text-anchor="middle" x="713.5" y="-365.87" font-family="Times,serif" font-size="14.00">{lib/libLLVMInstCombine.a(InstCombineCompares.cpp.o)}</text>
</g>
<!-- Node0x55fab0f96ab8&#45;&gt;Node0x55fab0f8a718 -->
<g id="edge6" class="edge">
<title>Node0x55fab0f96ab8&#45;&gt;Node0x55fab0f8a718</title>
<path fill="none" stroke="#7fb2ff" d="M423.82,-378.57C444.27,-377.38 465.1,-376.23 485.72,-375.16"/>
<polygon fill="#7fb2ff" stroke="#7fb2ff" points="486.01,-378.65 495.82,-374.63 485.65,-371.65 486.01,-378.65"/>
</g>
<!-- Node0x55fab0f8afd8 -->
<g id="node8" class="node">
<title>Node0x55fab0f8afd8</title>
<polygon fill="#7fb2ff" stroke="black" points="953,-117.57 474,-117.57 474,-81.57 953,-81.57 953,-117.57"/>
<text text-anchor="middle" x="713.5" y="-95.87" font-family="Times,serif" font-size="14.00">{lib/libLLVMInstCombine.a(InstCombineLoadStoreAlloca.cpp.o)}</text>
</g>
<!-- Node0x55fab0f96ab8&#45;&gt;Node0x55fab0f8afd8 -->
<g id="edge7" class="edge">
<title>Node0x55fab0f96ab8&#45;&gt;Node0x55fab0f8afd8</title>
<path fill="none" stroke="#7fb2ff" d="M223.07,-378.38C250.02,-326.41 342.16,-179.01 464,-117.57 464.2,-117.47 464.4,-117.37 464.6,-117.27"/>
<polygon fill="#7fb2ff" stroke="#7fb2ff" points="466.19,-120.39 473.74,-112.96 463.2,-114.06 466.19,-120.39"/>
</g>
<!-- Node0x55fab0f8abc8 -->
<g id="node9" class="node">
<title>Node0x55fab0f8abc8</title>
<polygon fill="#7fb2ff" stroke="black" points="937,-711.57 490,-711.57 490,-675.57 937,-675.57 937,-711.57"/>
<text text-anchor="middle" x="713.5" y="-689.87" font-family="Times,serif" font-size="14.00">{lib/libLLVMInstCombine.a(InstCombineMulDivRem.cpp.o)}</text>
</g>
<!-- Node0x55fab0f96ab8&#45;&gt;Node0x55fab0f8abc8 -->
<g id="edge8" class="edge">
<title>Node0x55fab0f96ab8&#45;&gt;Node0x55fab0f8abc8</title>
<path fill="none" stroke="#7fb2ff" d="M227.97,-414.86C260.01,-464.33 348.7,-599.44 464,-657.57 476,-663.63 488.74,-668.61 501.86,-672.71"/>
<polygon fill="#7fb2ff" stroke="#7fb2ff" points="500.89,-676.08 511.48,-675.54 502.87,-669.36 500.89,-676.08"/>
</g>
<!-- Node0x55fab0f89cc8 -->
<g id="node10" class="node">
<title>Node0x55fab0f89cc8</title>
<polygon fill="#7fb2ff" stroke="black" points="908.5,-657.57 518.5,-657.57 518.5,-621.57 908.5,-621.57 908.5,-657.57"/>
<text text-anchor="middle" x="713.5" y="-635.87" font-family="Times,serif" font-size="14.00">{lib/libLLVMInstCombine.a(InstCombinePHI.cpp.o)}</text>
</g>
<!-- Node0x55fab0f96ab8&#45;&gt;Node0x55fab0f89cc8 -->
<g id="edge9" class="edge">
<title>Node0x55fab0f96ab8&#45;&gt;Node0x55fab0f89cc8</title>
<path fill="none" stroke="#7fb2ff" d="M232.97,-414.58C270.32,-456.46 361.45,-558.84 464,-603.57 478.58,-609.93 494.07,-615.03 509.92,-619.11"/>
<polygon fill="#7fb2ff" stroke="#7fb2ff" points="509.29,-622.56 519.83,-621.52 510.95,-615.76 509.29,-622.56"/>
</g>
<!-- Node0x55fab0f85cb8 -->
<g id="node11" class="node">
<title>Node0x55fab0f85cb8</title>
<polygon fill="#7fb2ff" stroke="black" points="917,-603.57 510,-603.57 510,-567.57 917,-567.57 917,-603.57"/>
<text text-anchor="middle" x="713.5" y="-581.87" font-family="Times,serif" font-size="14.00">{lib/libLLVMInstCombine.a(InstCombineSelect.cpp.o)}</text>
</g>
<!-- Node0x55fab0f96ab8&#45;&gt;Node0x55fab0f85cb8 -->
<g id="edge10" class="edge">
<title>Node0x55fab0f96ab8&#45;&gt;Node0x55fab0f85cb8</title>
<path fill="none" stroke="#7fb2ff" d="M241.8,-414.59C285.09,-447.96 374.62,-517.7 464,-549.57 483.06,-556.37 503.41,-561.59 523.97,-565.63"/>
<polygon fill="#7fb2ff" stroke="#7fb2ff" points="523.59,-569.12 534.07,-567.52 524.88,-562.24 523.59,-569.12"/>
</g>
<!-- Node0x55fab0f860c8 -->
<g id="node12" class="node">
<title>Node0x55fab0f860c8</title>
<polygon fill="#7fb2ff" stroke="black" points="916,-495.57 511,-495.57 511,-459.57 916,-459.57 916,-495.57"/>
<text text-anchor="middle" x="713.5" y="-473.87" font-family="Times,serif" font-size="14.00">{lib/libLLVMInstCombine.a(InstCombineShifts.cpp.o)}</text>
</g>
<!-- Node0x55fab0f96ab8&#45;&gt;Node0x55fab0f860c8 -->
<g id="edge11" class="edge">
<title>Node0x55fab0f96ab8&#45;&gt;Node0x55fab0f860c8</title>
<path fill="none" stroke="#7fb2ff" d="M324.84,-414.63C368.03,-423.71 418.15,-434.13 464,-441.57 505.07,-448.24 550.23,-453.7 590.66,-458.39"/>
<polygon fill="#7fb2ff" stroke="#7fb2ff" points="590.49,-461.9 600.83,-459.57 591.3,-454.95 590.49,-461.9"/>
</g>
<!-- Node0x55fab0f83a58 -->
<g id="node13" class="node">
<title>Node0x55fab0f83a58</title>
<polygon fill="#7fb2ff" stroke="black" points="963,-225.57 464,-225.57 464,-189.57 963,-189.57 963,-225.57"/>
<text text-anchor="middle" x="713.5" y="-203.87" font-family="Times,serif" font-size="14.00">{lib/libLLVMInstCombine.a(InstCombineSimplifyDemanded.cpp.o)}</text>
</g>
<!-- Node0x55fab0f96ab8&#45;&gt;Node0x55fab0f83a58 -->
<g id="edge12" class="edge">
<title>Node0x55fab0f96ab8&#45;&gt;Node0x55fab0f83a58</title>
<path fill="none" stroke="#7fb2ff" d="M230.19,-378.36C265.9,-342.78 359.34,-265.82 454.77,-229.01"/>
<polygon fill="#7fb2ff" stroke="#7fb2ff" points="456.15,-232.23 464.31,-225.47 453.71,-225.67 456.15,-232.23"/>
</g>
<!-- Node0x55fab0f84778 -->
<g id="node14" class="node">
<title>Node0x55fab0f84778</title>
<polygon fill="#7fb2ff" stroke="black" points="932,-549.57 495,-549.57 495,-513.57 932,-513.57 932,-549.57"/>
<text text-anchor="middle" x="713.5" y="-527.87" font-family="Times,serif" font-size="14.00">{lib/libLLVMInstCombine.a(InstCombineVectorOps.cpp.o)}</text>
</g>
<!-- Node0x55fab0f96ab8&#45;&gt;Node0x55fab0f84778 -->
<g id="edge13" class="edge">
<title>Node0x55fab0f96ab8&#45;&gt;Node0x55fab0f84778</title>
<path fill="none" stroke="#7fb2ff" d="M248.07,-414.78C294.71,-439.53 383.15,-483.17 464,-504.57 473.6,-507.11 483.46,-509.42 493.47,-511.5"/>
<polygon fill="#7fb2ff" stroke="#7fb2ff" points="493.03,-514.98 503.53,-513.52 494.41,-508.12 493.03,-514.98"/>
</g>
<!-- Node0x55fab0f96d38&#45;&gt;Node0x55fab0f96ab8 -->
<g id="edge14" class="edge">
<title>Node0x55fab0f96d38&#45;&gt;Node0x55fab0f96ab8</title>
<path fill="none" stroke="#7fb2ff" d="M519.83,-171.63C500.54,-176.06 481.6,-181.9 464,-189.57 367.26,-231.78 280.68,-325.28 239.82,-370.9"/>
<polygon fill="#7fb2ff" stroke="#7fb2ff" points="237.02,-368.78 232.97,-378.57 242.24,-373.45 237.02,-368.78"/>
</g>
<!-- Node0x55fab0f88ff8 -->
<g id="node15" class="node">
<title>Node0x55fab0f88ff8</title>
<polygon fill="#7fb2ff" stroke="black" points="1419,-171.57 999,-171.57 999,-135.57 1419,-135.57 1419,-171.57"/>
<text text-anchor="middle" x="1209" y="-149.87" font-family="Times,serif" font-size="14.00">{lib/libLLVMInstCombine.a(InstCombineNegator.cpp.o)}</text>
</g>
<!-- Node0x55fab0f96d38&#45;&gt;Node0x55fab0f88ff8 -->
<g id="edge15" class="edge">
<title>Node0x55fab0f96d38&#45;&gt;Node0x55fab0f88ff8</title>
<path fill="none" stroke="#7fb2ff" d="M923.07,-146.9C944.86,-146.81 967.05,-146.8 988.95,-146.86"/>
<polygon fill="#7fb2ff" stroke="#7fb2ff" points="988.98,-150.36 998.99,-146.9 989,-143.36 988.98,-150.36"/>
</g>
<!-- Node0x55fab0f97968&#45;&gt;Node0x55fab0f96ab8 -->
<g id="edge16" class="edge">
<title>Node0x55fab0f97968&#45;&gt;Node0x55fab0f96ab8</title>
<path fill="none" stroke="#7fb2ff" d="M488.83,-741.37C480.26,-737.95 471.95,-734.04 464,-729.57 336.05,-657.69 252.28,-490.39 224.85,-424.09"/>
<polygon fill="#7fb2ff" stroke="#7fb2ff" points="228.05,-422.68 221.07,-414.71 221.56,-425.29 228.05,-422.68"/>
</g>
<!-- Node0x55fab0f95de8&#45;&gt;Node0x55fab0f96ab8 -->
<g id="edge17" class="edge">
<title>Node0x55fab0f95de8&#45;&gt;Node0x55fab0f96ab8</title>
<path fill="none" stroke="#7fb2ff" d="M600.83,-333.58C557.91,-338.53 508.55,-344.34 464,-351.57 421.65,-358.45 375.64,-367.87 334.83,-376.42"/>
<polygon fill="#7fb2ff" stroke="#7fb2ff" points="333.91,-373.04 324.84,-378.52 335.35,-379.89 333.91,-373.04"/>
</g>
<!-- Node0x55fab0f95de8&#45;&gt;Node0x55fab0f96d38 -->
<g id="edge18" class="edge">
<title>Node0x55fab0f95de8&#45;&gt;Node0x55fab0f96d38</title>
<path fill="none" stroke="#7fb2ff" d="M627.7,-333.58C563.92,-341.3 481.97,-337.77 446,-279.57 424.97,-245.55 424.97,-223.6 446,-189.57 480.07,-134.45 555.4,-128.38 617.47,-134.45"/>
<polygon fill="#7fb2ff" stroke="#7fb2ff" points="617.38,-137.96 627.7,-135.57 618.14,-131 617.38,-137.96"/>
</g>
<!-- Node0x55fab0f95de8&#45;&gt;Node0x55fab0f96478 -->
<g id="edge19" class="edge">
<title>Node0x55fab0f95de8&#45;&gt;Node0x55fab0f96478</title>
<path fill="none" stroke="#7fb2ff" d="M848.03,-297.52C866.2,-292.62 869.45,-287.73 857.78,-282.83"/>
<polygon fill="#7fb2ff" stroke="#7fb2ff" points="858.56,-279.4 847.96,-279.61 856.38,-286.05 858.56,-279.4"/>
</g>
<!-- Node0x55fab0f95de8&#45;&gt;Node0x55fab0f83a58 -->
<g id="edge20" class="edge">
<title>Node0x55fab0f95de8&#45;&gt;Node0x55fab0f83a58</title>
<path fill="none" stroke="#7fb2ff" d="M627.7,-333.58C563.92,-341.3 481.97,-337.77 446,-279.57 431.25,-255.72 437.11,-238.99 454.94,-227.39"/>
<polygon fill="#7fb2ff" stroke="#7fb2ff" points="456.89,-230.31 463.95,-222.41 453.51,-224.18 456.89,-230.31"/>
</g>
<!-- Node0x55fab0f95758&#45;&gt;Node0x55fab0f96ab8 -->
<g id="edge21" class="edge">
<title>Node0x55fab0f95758&#45;&gt;Node0x55fab0f96ab8</title>
<path fill="none" stroke="#7fb2ff" d="M514.15,-419.44C487.81,-418.14 460.68,-416.69 434.02,-415.17"/>
<polygon fill="#7fb2ff" stroke="#7fb2ff" points="434.01,-411.66 423.82,-414.58 433.6,-418.65 434.01,-411.66"/>
</g>
<!-- Node0x55fab0f95758&#45;&gt;Node0x55fab0f96d38 -->
<g id="edge22" class="edge">
<title>Node0x55fab0f95758&#45;&gt;Node0x55fab0f96d38</title>
<path fill="none" stroke="#7fb2ff" d="M627.7,-441.58C563.92,-449.3 481.97,-445.77 446,-387.57 422.87,-350.15 422.87,-227 446,-189.57 480.07,-134.45 555.4,-128.38 617.47,-134.45"/>
<polygon fill="#7fb2ff" stroke="#7fb2ff" points="617.38,-137.96 627.7,-135.57 618.14,-131 617.38,-137.96"/>
</g>
<!-- Node0x55fab0f95758&#45;&gt;Node0x55fab0f95de8 -->
<g id="edge23" class="edge">
<title>Node0x55fab0f95758&#45;&gt;Node0x55fab0f95de8</title>
<path fill="none" stroke="#7fb2ff" d="M627.7,-441.58C563.92,-449.3 481.97,-445.77 446,-387.57 424.29,-352.45 447.24,-332.78 487.33,-322.16"/>
<polygon fill="#7fb2ff" stroke="#7fb2ff" points="488.38,-325.51 497.29,-319.78 486.75,-318.7 488.38,-325.51"/>
</g>
<!-- Node0x55fab0f95758&#45;&gt;Node0x55fab0f8a718 -->
<g id="edge24" class="edge">
<title>Node0x55fab0f95758&#45;&gt;Node0x55fab0f8a718</title>
<path fill="none" stroke="#7fb2ff" d="M713.5,-405.36C713.5,-402.88 713.5,-400.4 713.5,-397.92"/>
<polygon fill="#7fb2ff" stroke="#7fb2ff" points="717,-397.72 713.5,-387.72 710,-397.72 717,-397.72"/>
</g>
<!-- Node0x55fab0f95758&#45;&gt;Node0x55fab0f83a58 -->
<g id="edge25" class="edge">
<title>Node0x55fab0f95758&#45;&gt;Node0x55fab0f83a58</title>
<path fill="none" stroke="#7fb2ff" d="M627.7,-441.58C563.92,-449.3 481.97,-445.77 446,-387.57 429.18,-360.35 429.18,-270.8 446,-243.57 480.07,-188.45 555.4,-182.38 617.47,-188.45"/>
<polygon fill="#7fb2ff" stroke="#7fb2ff" points="617.38,-191.96 627.7,-189.57 618.14,-185 617.38,-191.96"/>
</g>
<!-- Node0x55fab0f96478&#45;&gt;Node0x55fab0f96ab8 -->
<g id="edge26" class="edge">
<title>Node0x55fab0f96478&#45;&gt;Node0x55fab0f96ab8</title>
<path fill="none" stroke="#7fb2ff" d="M560.04,-279.61C527.99,-283.79 494.62,-289.47 464,-297.57 394.46,-315.98 319.31,-350.84 269.97,-374.08"/>
<polygon fill="#7fb2ff" stroke="#7fb2ff" points="268.31,-370.99 260.76,-378.42 271.3,-377.32 268.31,-370.99"/>
</g>
<!-- Node0x55fab0f96478&#45;&gt;Node0x55fab0f95de8 -->
<g id="edge27" class="edge">
<title>Node0x55fab0f96478&#45;&gt;Node0x55fab0f95de8</title>
<path fill="none" stroke="#7fb2ff" d="M579.04,-279.61C560.83,-284.51 557.55,-289.41 569.18,-294.3"/>
<polygon fill="#7fb2ff" stroke="#7fb2ff" points="568.38,-297.72 578.97,-297.52 570.56,-291.07 568.38,-297.72"/>
</g>
<!-- Node0x55fab0f96478&#45;&gt;Node0x55fab0f95758 -->
<g id="edge28" class="edge">
<title>Node0x55fab0f96478&#45;&gt;Node0x55fab0f95758</title>
<path fill="none" stroke="#7fb2ff" d="M627.7,-243.57C563.92,-235.85 481.97,-239.38 446,-297.57 424.97,-331.6 424.97,-353.55 446,-387.57 480.07,-442.7 555.4,-448.77 617.47,-442.7"/>
<polygon fill="#7fb2ff" stroke="#7fb2ff" points="618.14,-446.15 627.7,-441.58 617.38,-439.19 618.14,-446.15"/>
</g>
<!-- Node0x55fab0f96478&#45;&gt;Node0x55fab0f8afd8 -->
<g id="edge29" class="edge">
<title>Node0x55fab0f96478&#45;&gt;Node0x55fab0f8afd8</title>
<path fill="none" stroke="#7fb2ff" d="M627.7,-279.58C563.92,-287.3 481.97,-283.77 446,-225.57 424.97,-191.55 424.97,-169.6 446,-135.57 480.07,-80.45 555.4,-74.38 617.47,-80.45"/>
<polygon fill="#7fb2ff" stroke="#7fb2ff" points="617.38,-83.96 627.7,-81.57 618.14,-77 617.38,-83.96"/>
</g>
<!-- Node0x55fab0f96478&#45;&gt;Node0x55fab0f83a58 -->
<g id="edge30" class="edge">
<title>Node0x55fab0f96478&#45;&gt;Node0x55fab0f83a58</title>
<path fill="none" stroke="#7fb2ff" d="M713.5,-243.36C713.5,-240.88 713.5,-238.4 713.5,-235.92"/>
<polygon fill="#7fb2ff" stroke="#7fb2ff" points="717,-235.72 713.5,-225.72 710,-235.72 717,-235.72"/>
</g>
<!-- Node0x55fab0f8a718&#45;&gt;Node0x55fab0f96ab8 -->
<g id="edge31" class="edge">
<title>Node0x55fab0f8a718&#45;&gt;Node0x55fab0f96ab8</title>
<path fill="none" stroke="#7fb2ff" d="M503.74,-387.58C482.07,-388.84 459.98,-390.05 438.16,-391.18"/>
<polygon fill="#7fb2ff" stroke="#7fb2ff" points="437.96,-387.69 428.15,-391.69 438.32,-394.68 437.96,-387.69"/>
</g>
<!-- Node0x55fab0f8a718&#45;&gt;Node0x55fab0f96d38 -->
<g id="edge32" class="edge">
<title>Node0x55fab0f8a718&#45;&gt;Node0x55fab0f96d38</title>
<path fill="none" stroke="#7fb2ff" d="M627.7,-387.58C563.92,-395.3 481.97,-391.77 446,-333.57 429.18,-306.35 429.18,-216.8 446,-189.57 480.07,-134.45 555.4,-128.38 617.47,-134.45"/>
<polygon fill="#7fb2ff" stroke="#7fb2ff" points="617.38,-137.96 627.7,-135.57 618.14,-131 617.38,-137.96"/>
</g>
<!-- Node0x55fab0f8a718&#45;&gt;Node0x55fab0f95de8 -->
<g id="edge33" class="edge">
<title>Node0x55fab0f8a718&#45;&gt;Node0x55fab0f95de8</title>
<path fill="none" stroke="#7fb2ff" d="M713.5,-351.36C713.5,-348.88 713.5,-346.4 713.5,-343.92"/>
<polygon fill="#7fb2ff" stroke="#7fb2ff" points="717,-343.72 713.5,-333.72 710,-343.72 717,-343.72"/>
</g>
<!-- Node0x55fab0f8a718&#45;&gt;Node0x55fab0f96478 -->
<g id="edge34" class="edge">
<title>Node0x55fab0f8a718&#45;&gt;Node0x55fab0f96478</title>
<path fill="none" stroke="#7fb2ff" d="M627.7,-387.58C563.92,-395.3 481.97,-391.77 446,-333.57 421.76,-294.36 453.18,-274.41 501.98,-264.81"/>
<polygon fill="#7fb2ff" stroke="#7fb2ff" points="502.73,-268.23 511.96,-263.02 501.5,-261.34 502.73,-268.23"/>
</g>
<!-- Node0x55fab0f8a718&#45;&gt;Node0x55fab0f860c8 -->
<g id="edge35" class="edge">
<title>Node0x55fab0f8a718&#45;&gt;Node0x55fab0f860c8</title>
<path fill="none" stroke="#7fb2ff" d="M632.79,-351.57C570,-342.92 487.72,-344.77 452,-402.57 429.16,-439.54 456.5,-459.62 500.92,-470.18"/>
<polygon fill="#7fb2ff" stroke="#7fb2ff" points="500.44,-473.66 510.96,-472.35 501.92,-466.82 500.44,-473.66"/>
</g>
<!-- Node0x55fab0f8a718&#45;&gt;Node0x55fab0f83a58 -->
<g id="edge36" class="edge">
<title>Node0x55fab0f8a718&#45;&gt;Node0x55fab0f83a58</title>
<path fill="none" stroke="#7fb2ff" d="M627.7,-387.58C563.92,-395.3 481.97,-391.77 446,-333.57 424.97,-299.55 424.97,-277.6 446,-243.57 480.07,-188.45 555.4,-182.38 617.47,-188.45"/>
<polygon fill="#7fb2ff" stroke="#7fb2ff" points="617.38,-191.96 627.7,-189.57 618.14,-185 617.38,-191.96"/>
</g>
<!-- Node0x55fab0f8afd8&#45;&gt;Node0x55fab0f96ab8 -->
<g id="edge37" class="edge">
<title>Node0x55fab0f8afd8&#45;&gt;Node0x55fab0f96ab8</title>
<path fill="none" stroke="#7fb2ff" d="M511.48,-117.61C494.97,-122.18 478.92,-128.05 464,-135.57 354.78,-190.65 269.44,-314.78 233.51,-369.77"/>
<polygon fill="#7fb2ff" stroke="#7fb2ff" points="230.49,-368 227.97,-378.29 236.36,-371.81 230.49,-368"/>
</g>
<!-- Node0x55fab0f8abc8&#45;&gt;Node0x55fab0f96ab8 -->
<g id="edge38" class="edge">
<title>Node0x55fab0f8abc8&#45;&gt;Node0x55fab0f96ab8</title>
<path fill="none" stroke="#7fb2ff" d="M489.94,-686.68C481.02,-683.46 472.33,-679.78 464,-675.57 348.58,-617.38 259.82,-482.05 227.87,-423.76"/>
<polygon fill="#7fb2ff" stroke="#7fb2ff" points="230.87,-421.95 223.07,-414.77 224.69,-425.24 230.87,-421.95"/>
</g>
<!-- Node0x55fab0f8abc8&#45;&gt;Node0x55fab0f96d38 -->
<g id="edge39" class="edge">
<title>Node0x55fab0f8abc8&#45;&gt;Node0x55fab0f96d38</title>
<path fill="none" stroke="#7fb2ff" d="M627.7,-711.58C563.92,-719.3 481.97,-715.77 446,-657.57 432.33,-635.46 432.33,-211.69 446,-189.57 480.07,-134.45 555.4,-128.38 617.47,-134.45"/>
<polygon fill="#7fb2ff" stroke="#7fb2ff" points="617.38,-137.96 627.7,-135.57 618.14,-131 617.38,-137.96"/>
</g>
<!-- Node0x55fab0f8abc8&#45;&gt;Node0x55fab0f95758 -->
<g id="edge40" class="edge">
<title>Node0x55fab0f8abc8&#45;&gt;Node0x55fab0f95758</title>
<path fill="none" stroke="#7fb2ff" d="M627.7,-711.58C563.92,-719.3 481.97,-715.77 446,-657.57 422.87,-620.15 422.87,-497 446,-459.57 480.07,-404.45 555.4,-398.38 617.47,-404.45"/>
<polygon fill="#7fb2ff" stroke="#7fb2ff" points="617.38,-407.96 627.7,-405.57 618.14,-401 617.38,-407.96"/>
</g>
<!-- Node0x55fab0f8abc8&#45;&gt;Node0x55fab0f8a718 -->
<g id="edge41" class="edge">
<title>Node0x55fab0f8abc8&#45;&gt;Node0x55fab0f8a718</title>
<path fill="none" stroke="#7fb2ff" d="M627.7,-711.58C563.92,-719.3 481.97,-715.77 446,-657.57 431.28,-633.76 431.28,-429.39 446,-405.57 480.07,-350.45 555.4,-344.38 617.47,-350.45"/>
<polygon fill="#7fb2ff" stroke="#7fb2ff" points="617.38,-353.96 627.7,-351.57 618.14,-347 617.38,-353.96"/>
</g>
<!-- Node0x55fab0f8abc8&#45;&gt;Node0x55fab0f83a58 -->
<g id="edge43" class="edge">
<title>Node0x55fab0f8abc8&#45;&gt;Node0x55fab0f83a58</title>
<path fill="none" stroke="#7fb2ff" d="M627.7,-711.58C563.92,-719.3 481.97,-715.77 446,-657.57 433.91,-638.01 433.91,-263.14 446,-243.57 480.07,-188.45 555.4,-182.38 617.47,-188.45"/>
<polygon fill="#7fb2ff" stroke="#7fb2ff" points="617.38,-191.96 627.7,-189.57 618.14,-185 617.38,-191.96"/>
</g>
<!-- Node0x55fab0f8abc8&#45;&gt;Node0x55fab0f88ff8 -->
<g id="edge42" class="edge">
<title>Node0x55fab0f8abc8&#45;&gt;Node0x55fab0f88ff8</title>
<path fill="none" stroke="#7fb2ff" d="M930.54,-675.46C941.99,-670.62 952.91,-664.73 963,-657.57 1132.07,-537.7 1188.62,-269.31 1203.49,-181.68"/>
<polygon fill="#7fb2ff" stroke="#7fb2ff" points="1206.96,-182.12 1205.13,-171.68 1200.06,-180.98 1206.96,-182.12"/>
</g>
<!-- Node0x55fab0f89cc8&#45;&gt;Node0x55fab0f96ab8 -->
<g id="edge44" class="edge">
<title>Node0x55fab0f89cc8&#45;&gt;Node0x55fab0f96ab8</title>
<path fill="none" stroke="#7fb2ff" d="M518.2,-639.06C499.47,-634.75 481.1,-629.04 464,-621.57 360.34,-576.35 268.33,-472.22 231.76,-422.94"/>
<polygon fill="#7fb2ff" stroke="#7fb2ff" points="234.48,-420.74 225.78,-414.69 228.81,-424.84 234.48,-420.74"/>
</g>
<!-- Node0x55fab0f85cb8&#45;&gt;Node0x55fab0f96ab8 -->
<g id="edge45" class="edge">
<title>Node0x55fab0f85cb8&#45;&gt;Node0x55fab0f96ab8</title>
<path fill="none" stroke="#7fb2ff" d="M509.96,-580.63C494.21,-577.13 478.72,-572.82 464,-567.57 371.59,-534.62 279.02,-461.18 237.56,-421.94"/>
<polygon fill="#7fb2ff" stroke="#7fb2ff" points="239.81,-419.24 230.19,-414.79 234.93,-424.27 239.81,-419.24"/>
</g>
<!-- Node0x55fab0f85cb8&#45;&gt;Node0x55fab0f96d38 -->
<g id="edge46" class="edge">
<title>Node0x55fab0f85cb8&#45;&gt;Node0x55fab0f96d38</title>
<path fill="none" stroke="#7fb2ff" d="M627.7,-603.58C563.92,-611.3 481.97,-607.77 446,-549.57 424.97,-515.55 424.97,-223.6 446,-189.57 480.07,-134.45 555.4,-128.38 617.47,-134.45"/>
<polygon fill="#7fb2ff" stroke="#7fb2ff" points="617.38,-137.96 627.7,-135.57 618.14,-131 617.38,-137.96"/>
</g>
<!-- Node0x55fab0f85cb8&#45;&gt;Node0x55fab0f95de8 -->
<g id="edge47" class="edge">
<title>Node0x55fab0f85cb8&#45;&gt;Node0x55fab0f95de8</title>
<path fill="none" stroke="#7fb2ff" d="M627.7,-603.58C563.92,-611.3 481.97,-607.77 446,-549.57 422.87,-512.15 422.87,-389 446,-351.57 480.07,-296.45 555.4,-290.38 617.47,-296.45"/>
<polygon fill="#7fb2ff" stroke="#7fb2ff" points="617.38,-299.96 627.7,-297.57 618.14,-293 617.38,-299.96"/>
</g>
<!-- Node0x55fab0f85cb8&#45;&gt;Node0x55fab0f95758 -->
<g id="edge48" class="edge">
<title>Node0x55fab0f85cb8&#45;&gt;Node0x55fab0f95758</title>
<path fill="none" stroke="#7fb2ff" d="M627.7,-603.58C563.92,-611.3 481.97,-607.77 446,-549.57 424.97,-515.55 424.97,-493.6 446,-459.57 480.07,-404.45 555.4,-398.38 617.47,-404.45"/>
<polygon fill="#7fb2ff" stroke="#7fb2ff" points="617.38,-407.96 627.7,-405.57 618.14,-401 617.38,-407.96"/>
</g>
<!-- Node0x55fab0f85cb8&#45;&gt;Node0x55fab0f96478 -->
<g id="edge49" class="edge">
<title>Node0x55fab0f85cb8&#45;&gt;Node0x55fab0f96478</title>
<path fill="none" stroke="#7fb2ff" d="M627.7,-603.58C563.92,-611.3 481.97,-607.77 446,-549.57 431.28,-525.76 431.28,-321.39 446,-297.57 480.07,-242.45 555.4,-236.38 617.47,-242.45"/>
<polygon fill="#7fb2ff" stroke="#7fb2ff" points="617.38,-245.96 627.7,-243.57 618.14,-239 617.38,-245.96"/>
</g>
<!-- Node0x55fab0f85cb8&#45;&gt;Node0x55fab0f8a718 -->
<g id="edge50" class="edge">
<title>Node0x55fab0f85cb8&#45;&gt;Node0x55fab0f8a718</title>
<path fill="none" stroke="#7fb2ff" d="M627.7,-603.58C563.92,-611.3 481.97,-607.77 446,-549.57 429.18,-522.35 429.18,-432.8 446,-405.57 480.07,-350.45 555.4,-344.38 617.47,-350.45"/>
<polygon fill="#7fb2ff" stroke="#7fb2ff" points="617.38,-353.96 627.7,-351.57 618.14,-347 617.38,-353.96"/>
</g>
<!-- Node0x55fab0f85cb8&#45;&gt;Node0x55fab0f83a58 -->
<g id="edge51" class="edge">
<title>Node0x55fab0f85cb8&#45;&gt;Node0x55fab0f83a58</title>
<path fill="none" stroke="#7fb2ff" d="M627.7,-603.58C563.92,-611.3 481.97,-607.77 446,-549.57 428.13,-520.65 428.13,-272.5 446,-243.57 480.07,-188.45 555.4,-182.38 617.47,-188.45"/>
<polygon fill="#7fb2ff" stroke="#7fb2ff" points="617.38,-191.96 627.7,-189.57 618.14,-185 617.38,-191.96"/>
</g>
<!-- Node0x55fab0f860c8&#45;&gt;Node0x55fab0f96ab8 -->
<g id="edge52" class="edge">
<title>Node0x55fab0f860c8&#45;&gt;Node0x55fab0f96ab8</title>
<path fill="none" stroke="#7fb2ff" d="M510.86,-466.46C494.97,-464.35 479.21,-462.04 464,-459.57 396.87,-448.68 320.56,-431.39 270.31,-417.37"/>
<polygon fill="#7fb2ff" stroke="#7fb2ff" points="271.19,-413.99 260.62,-414.62 269.28,-420.72 271.19,-413.99"/>
</g>
<!-- Node0x55fab0f860c8&#45;&gt;Node0x55fab0f96d38 -->
<g id="edge53" class="edge">
<title>Node0x55fab0f860c8&#45;&gt;Node0x55fab0f96d38</title>
<path fill="none" stroke="#7fb2ff" d="M627.7,-495.58C563.92,-503.3 481.97,-499.77 446,-441.57 431.28,-417.76 431.28,-213.39 446,-189.57 480.07,-134.45 555.4,-128.38 617.47,-134.45"/>
<polygon fill="#7fb2ff" stroke="#7fb2ff" points="617.38,-137.96 627.7,-135.57 618.14,-131 617.38,-137.96"/>
</g>
<!-- Node0x55fab0f860c8&#45;&gt;Node0x55fab0f95758 -->
<g id="edge54" class="edge">
<title>Node0x55fab0f860c8&#45;&gt;Node0x55fab0f95758</title>
<path fill="none" stroke="#7fb2ff" d="M713.5,-459.36C713.5,-456.88 713.5,-454.4 713.5,-451.92"/>
<polygon fill="#7fb2ff" stroke="#7fb2ff" points="717,-451.72 713.5,-441.72 710,-451.72 717,-451.72"/>
</g>
<!-- Node0x55fab0f860c8&#45;&gt;Node0x55fab0f96478 -->
<g id="edge55" class="edge">
<title>Node0x55fab0f860c8&#45;&gt;Node0x55fab0f96478</title>
<path fill="none" stroke="#7fb2ff" d="M627.7,-495.58C563.92,-503.3 481.97,-499.77 446,-441.57 429.18,-414.35 429.18,-324.8 446,-297.57 480.07,-242.45 555.4,-236.38 617.47,-242.45"/>
<polygon fill="#7fb2ff" stroke="#7fb2ff" points="617.38,-245.96 627.7,-243.57 618.14,-239 617.38,-245.96"/>
</g>
<!-- Node0x55fab0f860c8&#45;&gt;Node0x55fab0f8a718 -->
<g id="edge56" class="edge">
<title>Node0x55fab0f860c8&#45;&gt;Node0x55fab0f8a718</title>
<path fill="none" stroke="#7fb2ff" d="M510.83,-479.36C453.54,-471.5 413.16,-452 440,-408.57 474.23,-353.19 549.05,-345.58 611.8,-350.64"/>
<polygon fill="#7fb2ff" stroke="#7fb2ff" points="611.48,-354.13 621.75,-351.56 612.12,-347.16 611.48,-354.13"/>
</g>
<!-- Node0x55fab0f860c8&#45;&gt;Node0x55fab0f83a58 -->
<g id="edge57" class="edge">
<title>Node0x55fab0f860c8&#45;&gt;Node0x55fab0f83a58</title>
<path fill="none" stroke="#7fb2ff" d="M627.7,-495.58C563.92,-503.3 481.97,-499.77 446,-441.57 422.87,-404.15 422.87,-281 446,-243.57 480.07,-188.45 555.4,-182.38 617.47,-188.45"/>
<polygon fill="#7fb2ff" stroke="#7fb2ff" points="617.38,-191.96 627.7,-189.57 618.14,-185 617.38,-191.96"/>
</g>
<!-- Node0x55fab0f83a58&#45;&gt;Node0x55fab0f96ab8 -->
<g id="edge58" class="edge">
<title>Node0x55fab0f83a58&#45;&gt;Node0x55fab0f96ab8</title>
<path fill="none" stroke="#7fb2ff" d="M534.07,-225.63C510.11,-229.9 486.17,-235.67 464,-243.57 379.85,-273.58 295.58,-337.15 249.88,-372.34"/>
<polygon fill="#7fb2ff" stroke="#7fb2ff" points="247.58,-369.68 241.8,-378.56 251.86,-375.23 247.58,-369.68"/>
</g>
<!-- Node0x55fab0f83a58&#45;&gt;Node0x55fab0f96d38 -->
<g id="edge59" class="edge">
<title>Node0x55fab0f83a58&#45;&gt;Node0x55fab0f96d38</title>
<path fill="none" stroke="#7fb2ff" d="M713.5,-189.36C713.5,-186.88 713.5,-184.4 713.5,-181.92"/>
<polygon fill="#7fb2ff" stroke="#7fb2ff" points="717,-181.72 713.5,-171.72 710,-181.72 717,-181.72"/>
</g>
<!-- Node0x55fab0f83a58&#45;&gt;Node0x55fab0f8afd8 -->
<g id="edge60" class="edge">
<title>Node0x55fab0f83a58&#45;&gt;Node0x55fab0f8afd8</title>
<path fill="none" stroke="#7fb2ff" d="M627.7,-225.58C563.92,-233.3 481.97,-229.77 446,-171.57 428.87,-143.85 439.55,-125.76 464.51,-114.15"/>
<polygon fill="#7fb2ff" stroke="#7fb2ff" points="465.98,-117.33 473.92,-110.3 463.34,-110.85 465.98,-117.33"/>
</g>
<!-- Node0x55fab0f84778&#45;&gt;Node0x55fab0f8afd8 -->
<g id="edge61" class="edge">
<title>Node0x55fab0f84778&#45;&gt;Node0x55fab0f8afd8</title>
<path fill="none" stroke="#7fb2ff" d="M627.7,-549.58C563.92,-557.3 481.97,-553.77 446,-495.57 424.97,-461.55 424.97,-169.6 446,-135.57 480.07,-80.45 555.4,-74.38 617.47,-80.45"/>
<polygon fill="#7fb2ff" stroke="#7fb2ff" points="617.38,-83.96 627.7,-81.57 618.14,-77 617.38,-83.96"/>
</g>
<!-- Node0x55fab0f84778&#45;&gt;Node0x55fab0f860c8 -->
<g id="edge62" class="edge">
<title>Node0x55fab0f84778&#45;&gt;Node0x55fab0f860c8</title>
<path fill="none" stroke="#7fb2ff" d="M713.5,-513.36C713.5,-510.88 713.5,-508.4 713.5,-505.92"/>
<polygon fill="#7fb2ff" stroke="#7fb2ff" points="717,-505.72 713.5,-495.72 710,-505.72 717,-505.72"/>
</g>
<!-- Node0x55fab0f84778&#45;&gt;Node0x55fab0f83a58 -->
<g id="edge63" class="edge">
<title>Node0x55fab0f84778&#45;&gt;Node0x55fab0f83a58</title>
<path fill="none" stroke="#7fb2ff" d="M627.7,-549.58C563.92,-557.3 481.97,-553.77 446,-495.57 431.28,-471.76 431.28,-267.39 446,-243.57 480.07,-188.45 555.4,-182.38 617.47,-188.45"/>
<polygon fill="#7fb2ff" stroke="#7fb2ff" points="617.38,-191.96 627.7,-189.57 618.14,-185 617.38,-191.96"/>
</g>
<!-- Node0x55fab0f88ff8&#45;&gt;Node0x55fab0f96ab8 -->
<g id="edge64" class="edge">
<title>Node0x55fab0f88ff8&#45;&gt;Node0x55fab0f96ab8</title>
<path fill="none" stroke="#7fb2ff" d="M1169.51,-135.53C1055.06,-84.69 709.63,48.44 464,-72.57 334.77,-136.25 253.88,-302.78 225.96,-368.92"/>
<polygon fill="#7fb2ff" stroke="#7fb2ff" points="222.67,-367.71 222.08,-378.28 229.14,-370.39 222.67,-367.71"/>
</g>
<!-- Node0x55fab0f88ff8&#45;&gt;Node0x55fab0f96d38 -->
<g id="edge65" class="edge">
<title>Node0x55fab0f88ff8&#45;&gt;Node0x55fab0f96d38</title>
<path fill="none" stroke="#7fb2ff" d="M998.99,-160.25C977.2,-160.34 955,-160.35 933.11,-160.29"/>
<polygon fill="#7fb2ff" stroke="#7fb2ff" points="933.08,-156.79 923.07,-160.25 933.06,-163.79 933.08,-156.79"/>
</g>
<!-- Node0x55fab0f88ff8&#45;&gt;Node0x55fab0f8abc8 -->
<g id="edge66" class="edge">
<title>Node0x55fab0f88ff8&#45;&gt;Node0x55fab0f8abc8</title>
<path fill="none" stroke="#7fb2ff" d="M1206.03,-171.82C1196.02,-248.85 1143.96,-547.28 963,-675.57 918.37,-707.22 857.44,-714.24 807.08,-712.15"/>
<polygon fill="#7fb2ff" stroke="#7fb2ff" points="807,-708.64 796.83,-711.59 806.62,-715.63 807,-708.64"/>
</g>
</g>
</svg>
