<?xml version="1.0" encoding="UTF-8" standalone="no"?>
<!DOCTYPE svg PUBLIC "-//W3C//DTD SVG 1.1//EN"
 "http://www.w3.org/Graphics/SVG/1.1/DTD/svg11.dtd">
<!-- Generated by graphviz version 2.43.0 (0)
 -->
<!-- Title: bin/llvm&#45;extract_lib/libLLVMBitWriter.a Pages: 1 -->
<svg width="1175pt" height="67pt"
 viewBox="0.00 0.00 1175.00 67.00" xmlns="http://www.w3.org/2000/svg" xmlns:xlink="http://www.w3.org/1999/xlink">
<g id="graph0" class="graph" transform="scale(1 1) rotate(0) translate(4 63)">
<title>bin/llvm&#45;extract_lib/libLLVMBitWriter.a</title>
<polygon fill="white" stroke="transparent" points="-4,4 -4,-63 1171,-63 1171,4 -4,4"/>
<text text-anchor="middle" x="583.5" y="-7.8" font-family="Times,serif" font-size="14.00">bin/llvm&#45;extract_lib/libLLVMBitWriter.a</text>
<!-- Node0x562761f6dcc8 -->
<g id="node1" class="node">
<title>Node0x562761f6dcc8</title>
<polygon fill="none" stroke="black" points="379,-59 0,-59 0,-23 379,-23 379,-59"/>
<text text-anchor="middle" x="189.5" y="-37.3" font-family="Times,serif" font-size="14.00">{lib/libLLVMBitWriter.a(BitcodeWriterPass.cpp.o)}</text>
</g>
<!-- Node0x562761f6cf08 -->
<g id="node2" class="node">
<title>Node0x562761f6cf08</title>
<polygon fill="none" stroke="black" points="760,-59 415,-59 415,-23 760,-23 760,-59"/>
<text text-anchor="middle" x="587.5" y="-37.3" font-family="Times,serif" font-size="14.00">{lib/libLLVMBitWriter.a(BitcodeWriter.cpp.o)}</text>
</g>
<!-- Node0x562761f6dcc8&#45;&gt;Node0x562761f6cf08 -->
<g id="edge1" class="edge">
<title>Node0x562761f6dcc8&#45;&gt;Node0x562761f6cf08</title>
<path fill="none" stroke="black" d="M379.22,-41C387.65,-41 396.1,-41 404.51,-41"/>
<polygon fill="black" stroke="black" points="404.74,-44.5 414.74,-41 404.74,-37.5 404.74,-44.5"/>
</g>
<!-- Node0x562761f6d638 -->
<g id="node3" class="node">
<title>Node0x562761f6d638</title>
<polygon fill="none" stroke="black" points="1167,-59 796,-59 796,-23 1167,-23 1167,-59"/>
<text text-anchor="middle" x="981.5" y="-37.3" font-family="Times,serif" font-size="14.00">{lib/libLLVMBitWriter.a(ValueEnumerator.cpp.o)}</text>
</g>
<!-- Node0x562761f6cf08&#45;&gt;Node0x562761f6d638 -->
<g id="edge2" class="edge">
<title>Node0x562761f6cf08&#45;&gt;Node0x562761f6d638</title>
<path fill="none" stroke="black" d="M760.15,-41C768.66,-41 777.23,-41 785.8,-41"/>
<polygon fill="black" stroke="black" points="785.85,-44.5 795.85,-41 785.85,-37.5 785.85,-44.5"/>
</g>
</g>
</svg>
