<?xml version="1.0" encoding="UTF-8" standalone="no"?>
<!DOCTYPE svg PUBLIC "-//W3C//DTD SVG 1.1//EN"
 "http://www.w3.org/Graphics/SVG/1.1/DTD/svg11.dtd">
<!-- Generated by graphviz version 2.43.0 (0)
 -->
<!-- Title: bin/llvm&#45;gsymutil_lib/libLLVMScalarOpts.a Pages: 1 -->
<svg width="466pt" height="337pt"
 viewBox="0.00 0.00 466.00 337.00" xmlns="http://www.w3.org/2000/svg" xmlns:xlink="http://www.w3.org/1999/xlink">
<g id="graph0" class="graph" transform="scale(1 1) rotate(0) translate(4 333)">
<title>bin/llvm&#45;gsymutil_lib/libLLVMScalarOpts.a</title>
<polygon fill="white" stroke="transparent" points="-4,4 -4,-333 462,-333 462,4 -4,4"/>
<text text-anchor="middle" x="229" y="-7.8" font-family="Times,serif" font-size="14.00">bin/llvm&#45;gsymutil_lib/libLLVMScalarOpts.a</text>
<!-- Node0x562d8e4428c8 -->
<g id="node1" class="node">
<title>Node0x562d8e4428c8</title>
<polygon fill="none" stroke="black" points="422,-59 36,-59 36,-23 422,-23 422,-59"/>
<text text-anchor="middle" x="229" y="-37.3" font-family="Times,serif" font-size="14.00">{lib/libLLVMScalarOpts.a(ConstantHoisting.cpp.o)}</text>
</g>
<!-- Node0x562d8e442558 -->
<g id="node2" class="node">
<title>Node0x562d8e442558</title>
<polygon fill="none" stroke="black" points="434.5,-113 23.5,-113 23.5,-77 434.5,-77 434.5,-113"/>
<text text-anchor="middle" x="229" y="-91.3" font-family="Times,serif" font-size="14.00">{lib/libLLVMScalarOpts.a(LoopStrengthReduce.cpp.o)}</text>
</g>
<!-- Node0x562d8e4440d8 -->
<g id="node3" class="node">
<title>Node0x562d8e4440d8</title>
<polygon fill="none" stroke="black" points="447.5,-167 10.5,-167 10.5,-131 447.5,-131 447.5,-167"/>
<text text-anchor="middle" x="229" y="-145.3" font-family="Times,serif" font-size="14.00">{lib/libLLVMScalarOpts.a(LowerConstantIntrinsics.cpp.o)}</text>
</g>
<!-- Node0x562d8e443e58 -->
<g id="node4" class="node">
<title>Node0x562d8e443e58</title>
<polygon fill="none" stroke="black" points="405.5,-221 52.5,-221 52.5,-185 405.5,-185 405.5,-221"/>
<text text-anchor="middle" x="229" y="-199.3" font-family="Times,serif" font-size="14.00">{lib/libLLVMScalarOpts.a(MergeICmps.cpp.o)}</text>
</g>
<!-- Node0x562d8e430498 -->
<g id="node5" class="node">
<title>Node0x562d8e430498</title>
<polygon fill="none" stroke="black" points="438.5,-275 19.5,-275 19.5,-239 438.5,-239 438.5,-275"/>
<text text-anchor="middle" x="229" y="-253.3" font-family="Times,serif" font-size="14.00">{lib/libLLVMScalarOpts.a(PartiallyInlineLibCalls.cpp.o)}</text>
</g>
<!-- Node0x562d8e442008 -->
<g id="node6" class="node">
<title>Node0x562d8e442008</title>
<polygon fill="none" stroke="black" points="458,-329 0,-329 0,-293 458,-293 458,-329"/>
<text text-anchor="middle" x="229" y="-307.3" font-family="Times,serif" font-size="14.00">{lib/libLLVMScalarOpts.a(ScalarizeMaskedMemIntrin.cpp.o)}</text>
</g>
</g>
</svg>
