<?xml version="1.0" encoding="UTF-8" standalone="no"?>
<!DOCTYPE svg PUBLIC "-//W3C//DTD SVG 1.1//EN"
 "http://www.w3.org/Graphics/SVG/1.1/DTD/svg11.dtd">
<!-- Generated by graphviz version 2.43.0 (0)
 -->
<!-- Title: bin/dsymutil_lib/libLLVMGlobalISel.a Pages: 1 -->
<svg width="2525pt" height="920pt"
 viewBox="0.00 0.00 2525.00 920.19" xmlns="http://www.w3.org/2000/svg" xmlns:xlink="http://www.w3.org/1999/xlink">
<g id="graph0" class="graph" transform="scale(1 1) rotate(0) translate(4 916.19)">
<title>bin/dsymutil_lib/libLLVMGlobalISel.a</title>
<polygon fill="white" stroke="transparent" points="-4,4 -4,-916.19 2521,-916.19 2521,4 -4,4"/>
<text text-anchor="middle" x="1258.5" y="-7.8" font-family="Times,serif" font-size="14.00">bin/dsymutil_lib/libLLVMGlobalISel.a</text>
<!-- Node0x557f01ffac78 -->
<g id="node1" class="node">
<title>Node0x557f01ffac78</title>
<polygon fill="none" stroke="black" points="1225,-353.84 875,-353.84 875,-317.84 1225,-317.84 1225,-353.84"/>
<text text-anchor="middle" x="1050" y="-332.14" font-family="Times,serif" font-size="14.00">{lib/libLLVMGlobalISel.a(CallLowering.cpp.o)}</text>
</g>
<!-- Node0x557f01ff7e38 -->
<g id="node2" class="node">
<title>Node0x557f01ff7e38</title>
<polygon fill="none" stroke="black" points="1680,-510.84 1297,-510.84 1297,-474.84 1680,-474.84 1680,-510.84"/>
<text text-anchor="middle" x="1488.5" y="-489.14" font-family="Times,serif" font-size="14.00">{lib/libLLVMGlobalISel.a(MachineIRBuilder.cpp.o)}</text>
</g>
<!-- Node0x557f01ffac78&#45;&gt;Node0x557f01ff7e38 -->
<g id="edge1" class="edge">
<title>Node0x557f01ffac78&#45;&gt;Node0x557f01ff7e38</title>
<path fill="none" stroke="black" d="M1225.25,-347.89C1237.7,-351.85 1249.76,-356.77 1261,-362.84 1282.63,-374.52 1277.39,-390.01 1297,-404.84 1335.17,-433.71 1384.33,-456.12 1423.15,-471.1"/>
<polygon fill="black" stroke="black" points="1422.19,-474.48 1432.78,-474.75 1424.67,-467.94 1422.19,-474.48"/>
</g>
<!-- Node0x557f01ffc3e8 -->
<g id="node3" class="node">
<title>Node0x557f01ffc3e8</title>
<polygon fill="none" stroke="black" points="1633.5,-395.84 1343.5,-395.84 1343.5,-359.84 1633.5,-359.84 1633.5,-395.84"/>
<text text-anchor="middle" x="1488.5" y="-374.14" font-family="Times,serif" font-size="14.00">{lib/libLLVMGlobalISel.a(Utils.cpp.o)}</text>
</g>
<!-- Node0x557f01ffac78&#45;&gt;Node0x557f01ffc3e8 -->
<g id="edge2" class="edge">
<title>Node0x557f01ffac78&#45;&gt;Node0x557f01ffc3e8</title>
<path fill="none" stroke="black" d="M1225.08,-352.59C1260.77,-356.02 1298.09,-359.62 1333.03,-362.98"/>
<polygon fill="black" stroke="black" points="1333.01,-366.49 1343.3,-363.97 1333.68,-359.52 1333.01,-366.49"/>
</g>
<!-- Node0x557f01ff7e38&#45;&gt;Node0x557f01ffc3e8 -->
<g id="edge3" class="edge">
<title>Node0x557f01ff7e38&#45;&gt;Node0x557f01ffc3e8</title>
<path fill="none" stroke="black" d="M1488.5,-474.73C1488.5,-451.95 1488.5,-429.16 1488.5,-406.37"/>
<polygon fill="black" stroke="black" points="1492,-406.26 1488.5,-396.26 1485,-406.26 1492,-406.26"/>
</g>
<!-- Node0x557f02008b48 -->
<g id="node4" class="node">
<title>Node0x557f02008b48</title>
<polygon fill="none" stroke="black" points="2129,-395.84 1716,-395.84 1716,-359.84 2129,-359.84 2129,-395.84"/>
<text text-anchor="middle" x="1922.5" y="-374.14" font-family="Times,serif" font-size="14.00">{lib/libLLVMGlobalISel.a(GISelChangeObserver.cpp.o)}</text>
</g>
<!-- Node0x557f01ffc3e8&#45;&gt;Node0x557f02008b48 -->
<g id="edge4" class="edge">
<title>Node0x557f01ffc3e8&#45;&gt;Node0x557f02008b48</title>
<path fill="none" stroke="black" d="M1633.65,-377.84C1656.83,-377.84 1681.26,-377.84 1705.69,-377.84"/>
<polygon fill="black" stroke="black" points="1705.78,-381.34 1715.78,-377.84 1705.78,-374.34 1705.78,-381.34"/>
</g>
<!-- Node0x557f01ffc618 -->
<g id="node5" class="node">
<title>Node0x557f01ffc618</title>
<polygon fill="none" stroke="black" points="2112.5,-546.84 1732.5,-546.84 1732.5,-510.84 2112.5,-510.84 2112.5,-546.84"/>
<text text-anchor="middle" x="1922.5" y="-525.14" font-family="Times,serif" font-size="14.00">{lib/libLLVMGlobalISel.a(RegisterBankInfo.cpp.o)}</text>
</g>
<!-- Node0x557f01ffc3e8&#45;&gt;Node0x557f01ffc618 -->
<g id="edge5" class="edge">
<title>Node0x557f01ffc3e8&#45;&gt;Node0x557f01ffc618</title>
<path fill="none" stroke="black" d="M1541.18,-395.91C1621.19,-423.87 1774.69,-477.53 1860.19,-507.41"/>
<polygon fill="black" stroke="black" points="1859.17,-510.76 1869.76,-510.76 1861.48,-504.15 1859.17,-510.76"/>
</g>
<!-- Node0x557f01ffbf38 -->
<g id="node9" class="node">
<title>Node0x557f01ffbf38</title>
<polygon fill="none" stroke="black" points="2517,-546.84 2165,-546.84 2165,-510.84 2517,-510.84 2517,-546.84"/>
<text text-anchor="middle" x="2341" y="-525.14" font-family="Times,serif" font-size="14.00">{lib/libLLVMGlobalISel.a(RegisterBank.cpp.o)}</text>
</g>
<!-- Node0x557f01ffc618&#45;&gt;Node0x557f01ffbf38 -->
<g id="edge6" class="edge">
<title>Node0x557f01ffc618&#45;&gt;Node0x557f01ffbf38</title>
<path fill="none" stroke="black" d="M2112.56,-528.84C2126.57,-528.84 2140.71,-528.84 2154.7,-528.84"/>
<polygon fill="black" stroke="black" points="2154.87,-532.34 2164.87,-528.84 2154.87,-525.34 2154.87,-532.34"/>
</g>
<!-- Node0x557f0200b7f8 -->
<g id="node6" class="node">
<title>Node0x557f0200b7f8</title>
<polygon fill="none" stroke="black" points="389,-434.84 0,-434.84 0,-398.84 389,-398.84 389,-434.84"/>
<text text-anchor="middle" x="194.5" y="-413.14" font-family="Times,serif" font-size="14.00">{lib/libLLVMGlobalISel.a(LegalityPredicates.cpp.o)}</text>
</g>
<!-- Node0x557f0200ac18 -->
<g id="node7" class="node">
<title>Node0x557f0200ac18</title>
<polygon fill="none" stroke="black" points="388,-488.84 1,-488.84 1,-452.84 388,-452.84 388,-488.84"/>
<text text-anchor="middle" x="194.5" y="-467.14" font-family="Times,serif" font-size="14.00">{lib/libLLVMGlobalISel.a(LegalizeMutations.cpp.o)}</text>
</g>
<!-- Node0x557f02001f28 -->
<g id="node8" class="node">
<title>Node0x557f02001f28</title>
<polygon fill="none" stroke="black" points="1663,-832.84 1314,-832.84 1314,-796.84 1663,-796.84 1663,-832.84"/>
<text text-anchor="middle" x="1488.5" y="-811.14" font-family="Times,serif" font-size="14.00">{lib/libLLVMGlobalISel.a(LegalizerInfo.cpp.o)}</text>
</g>
<!-- Node0x557f020091d8 -->
<g id="node10" class="node">
<title>Node0x557f020091d8</title>
<polygon fill="none" stroke="black" points="1246,-299.84 854,-299.84 854,-263.84 1246,-263.84 1246,-299.84"/>
<text text-anchor="middle" x="1050" y="-278.14" font-family="Times,serif" font-size="14.00">{lib/libLLVMGlobalISel.a(InstructionSelector.cpp.o)}</text>
</g>
<!-- Node0x557f020091d8&#45;&gt;Node0x557f01ffc3e8 -->
<g id="edge7" class="edge">
<title>Node0x557f020091d8&#45;&gt;Node0x557f01ffc3e8</title>
<path fill="none" stroke="black" d="M1212.84,-299.87C1229.17,-302.52 1245.46,-305.5 1261,-308.84 1318.29,-321.16 1382,-341.15 1427.22,-356.45"/>
<polygon fill="black" stroke="black" points="1426.27,-359.83 1436.87,-359.74 1428.53,-353.2 1426.27,-359.83"/>
</g>
<!-- Node0x557f0200a1c8 -->
<g id="node11" class="node">
<title>Node0x557f0200a1c8</title>
<polygon fill="none" stroke="black" points="803,-177.84 425,-177.84 425,-141.84 803,-141.84 803,-177.84"/>
<text text-anchor="middle" x="614" y="-156.14" font-family="Times,serif" font-size="14.00">{lib/libLLVMGlobalISel.a(InstructionSelect.cpp.o)}</text>
</g>
<!-- Node0x557f0200a1c8&#45;&gt;Node0x557f01ffc3e8 -->
<g id="edge9" class="edge">
<title>Node0x557f0200a1c8&#45;&gt;Node0x557f01ffc3e8</title>
<path fill="none" stroke="black" d="M803.26,-157.68C963.58,-158.15 1180.38,-164.91 1261,-195.84 1348.61,-229.45 1428.49,-310.3 1465.61,-352"/>
<polygon fill="black" stroke="black" points="1463.02,-354.36 1472.25,-359.56 1468.28,-349.73 1463.02,-354.36"/>
</g>
<!-- Node0x557f02009ef8 -->
<g id="node12" class="node">
<title>Node0x557f02009ef8</title>
<polygon fill="none" stroke="black" points="1235.5,-131.84 864.5,-131.84 864.5,-95.84 1235.5,-95.84 1235.5,-131.84"/>
<text text-anchor="middle" x="1050" y="-110.14" font-family="Times,serif" font-size="14.00">{lib/libLLVMGlobalISel.a(GISelKnownBits.cpp.o)}</text>
</g>
<!-- Node0x557f0200a1c8&#45;&gt;Node0x557f02009ef8 -->
<g id="edge8" class="edge">
<title>Node0x557f0200a1c8&#45;&gt;Node0x557f02009ef8</title>
<path fill="none" stroke="black" d="M784.97,-141.83C812.48,-138.91 841.05,-135.88 868.8,-132.94"/>
<polygon fill="black" stroke="black" points="869.4,-136.4 878.98,-131.86 868.66,-129.44 869.4,-136.4"/>
</g>
<!-- Node0x557f02009ef8&#45;&gt;Node0x557f01ffc3e8 -->
<g id="edge36" class="edge">
<title>Node0x557f02009ef8&#45;&gt;Node0x557f01ffc3e8</title>
<path fill="none" stroke="black" d="M1227.32,-131.91C1239,-135.77 1250.34,-140.37 1261,-145.84 1357.41,-195.34 1436.91,-301.59 1470.41,-351.25"/>
<polygon fill="black" stroke="black" points="1467.67,-353.45 1476.12,-359.83 1473.5,-349.57 1467.67,-353.45"/>
</g>
<!-- Node0x557f0200a9e8 -->
<g id="node13" class="node">
<title>Node0x557f0200a9e8</title>
<polygon fill="none" stroke="black" points="774,-744.84 454,-744.84 454,-708.84 774,-708.84 774,-744.84"/>
<text text-anchor="middle" x="614" y="-723.14" font-family="Times,serif" font-size="14.00">{lib/libLLVMGlobalISel.a(Legalizer.cpp.o)}</text>
</g>
<!-- Node0x557f0200a9e8&#45;&gt;Node0x557f01ff7e38 -->
<g id="edge15" class="edge">
<title>Node0x557f0200a9e8&#45;&gt;Node0x557f01ff7e38</title>
<path fill="none" stroke="black" d="M774.07,-742.18C936.6,-755.32 1176.73,-766.97 1261,-730.84 1363.12,-687.05 1440.98,-572.09 1472.37,-519.63"/>
<polygon fill="black" stroke="black" points="1475.46,-521.28 1477.51,-510.89 1469.42,-517.73 1475.46,-521.28"/>
</g>
<!-- Node0x557f0200a9e8&#45;&gt;Node0x557f01ffc3e8 -->
<g id="edge16" class="edge">
<title>Node0x557f0200a9e8&#45;&gt;Node0x557f01ffc3e8</title>
<path fill="none" stroke="black" d="M645.24,-708.66C687.13,-684.46 765.91,-642.46 839,-622.84 929.94,-598.43 1187.99,-644.3 1261,-584.84 1303.85,-549.95 1260.74,-507.53 1297,-465.84 1324.76,-433.92 1366.54,-412.85 1403.9,-399.36"/>
<polygon fill="black" stroke="black" points="1405.5,-402.51 1413.8,-395.92 1403.2,-395.9 1405.5,-402.51"/>
</g>
<!-- Node0x557f0200a9e8&#45;&gt;Node0x557f02008b48 -->
<g id="edge10" class="edge">
<title>Node0x557f0200a9e8&#45;&gt;Node0x557f02008b48</title>
<path fill="none" stroke="black" d="M638.84,-744.97C678.05,-773.53 759.72,-827.8 839,-847.84 1020.19,-893.65 1541.96,-967.84 1680,-841.84 1736.12,-790.62 1675.21,-565.94 1716,-501.84 1747.91,-451.68 1808.08,-418.92 1855.1,-399.74"/>
<polygon fill="black" stroke="black" points="1856.61,-402.91 1864.62,-395.97 1854.03,-396.4 1856.61,-402.91"/>
</g>
<!-- Node0x557f0200a9e8&#45;&gt;Node0x557f02001f28 -->
<g id="edge12" class="edge">
<title>Node0x557f0200a9e8&#45;&gt;Node0x557f02001f28</title>
<path fill="none" stroke="black" d="M645.94,-744.92C687.98,-768.33 766.26,-807.91 839,-822.84 1010.19,-857.98 1212.17,-847.57 1344.68,-833.93"/>
<polygon fill="black" stroke="black" points="1345.32,-837.38 1354.9,-832.85 1344.59,-830.42 1345.32,-837.38"/>
</g>
<!-- Node0x557f020026a8 -->
<g id="node14" class="node">
<title>Node0x557f020026a8</title>
<polygon fill="none" stroke="black" points="1234,-813.84 866,-813.84 866,-777.84 1234,-777.84 1234,-813.84"/>
<text text-anchor="middle" x="1050" y="-792.14" font-family="Times,serif" font-size="14.00">{lib/libLLVMGlobalISel.a(LegalizerHelper.cpp.o)}</text>
</g>
<!-- Node0x557f0200a9e8&#45;&gt;Node0x557f020026a8 -->
<g id="edge11" class="edge">
<title>Node0x557f0200a9e8&#45;&gt;Node0x557f020026a8</title>
<path fill="none" stroke="black" d="M722.34,-744.85C759.3,-750.98 800.95,-757.8 839,-763.84 864.84,-767.94 892.48,-772.23 918.94,-776.28"/>
<polygon fill="black" stroke="black" points="918.61,-779.77 929.02,-777.82 919.67,-772.85 918.61,-779.77"/>
</g>
<!-- Node0x557f0201ce68 -->
<g id="node15" class="node">
<title>Node0x557f0201ce68</title>
<polygon fill="none" stroke="black" points="1207,-575.84 893,-575.84 893,-539.84 1207,-539.84 1207,-575.84"/>
<text text-anchor="middle" x="1050" y="-554.14" font-family="Times,serif" font-size="14.00">{lib/libLLVMGlobalISel.a(CSEInfo.cpp.o)}</text>
</g>
<!-- Node0x557f0200a9e8&#45;&gt;Node0x557f0201ce68 -->
<g id="edge13" class="edge">
<title>Node0x557f0200a9e8&#45;&gt;Node0x557f0201ce68</title>
<path fill="none" stroke="black" d="M637.6,-708.72C676.31,-678.7 758.92,-619.08 839,-589.84 853.07,-584.71 867.95,-580.39 883.05,-576.77"/>
<polygon fill="black" stroke="black" points="884.03,-580.14 892.99,-574.49 882.46,-573.32 884.03,-580.14"/>
</g>
<!-- Node0x557f01ff8108 -->
<g id="node16" class="node">
<title>Node0x557f01ff8108</title>
<polygon fill="none" stroke="black" points="1261,-721.84 839,-721.84 839,-685.84 1261,-685.84 1261,-721.84"/>
<text text-anchor="middle" x="1050" y="-700.14" font-family="Times,serif" font-size="14.00">{lib/libLLVMGlobalISel.a(LostDebugLocObserver.cpp.o)}</text>
</g>
<!-- Node0x557f0200a9e8&#45;&gt;Node0x557f01ff8108 -->
<g id="edge14" class="edge">
<title>Node0x557f0200a9e8&#45;&gt;Node0x557f01ff8108</title>
<path fill="none" stroke="black" d="M774.14,-718.41C791.9,-717.47 810.22,-716.5 828.56,-715.52"/>
<polygon fill="black" stroke="black" points="828.96,-719.01 838.76,-714.98 828.59,-712.02 828.96,-719.01"/>
</g>
<!-- Node0x557f020026a8&#45;&gt;Node0x557f01ff7e38 -->
<g id="edge38" class="edge">
<title>Node0x557f020026a8&#45;&gt;Node0x557f01ff7e38</title>
<path fill="none" stroke="black" d="M1230.49,-777.75C1241.1,-773.87 1251.36,-769.27 1261,-763.84 1366.3,-704.53 1443.72,-575.91 1473.77,-519.86"/>
<polygon fill="black" stroke="black" points="1476.93,-521.37 1478.51,-510.89 1470.74,-518.1 1476.93,-521.37"/>
</g>
<!-- Node0x557f020026a8&#45;&gt;Node0x557f01ffc3e8 -->
<g id="edge39" class="edge">
<title>Node0x557f020026a8&#45;&gt;Node0x557f01ffc3e8</title>
<path fill="none" stroke="black" d="M1187.57,-777.83C1215.44,-768.08 1242.01,-753.26 1261,-730.84 1337.83,-640.15 1226.35,-561.42 1297,-465.84 1321.05,-433.3 1360.1,-412.43 1396.59,-399.23"/>
<polygon fill="black" stroke="black" points="1398,-402.45 1406.3,-395.87 1395.71,-395.83 1398,-402.45"/>
</g>
<!-- Node0x557f020026a8&#45;&gt;Node0x557f02001f28 -->
<g id="edge37" class="edge">
<title>Node0x557f020026a8&#45;&gt;Node0x557f02001f28</title>
<path fill="none" stroke="black" d="M1234.22,-803.82C1257.18,-804.82 1280.68,-805.84 1303.65,-806.84"/>
<polygon fill="black" stroke="black" points="1303.67,-810.34 1313.82,-807.28 1303.98,-803.35 1303.67,-810.34"/>
</g>
<!-- Node0x557f01ffb3a8 -->
<g id="node17" class="node">
<title>Node0x557f01ffb3a8</title>
<polygon fill="none" stroke="black" points="359,-380.84 30,-380.84 30,-344.84 359,-344.84 359,-380.84"/>
<text text-anchor="middle" x="194.5" y="-359.14" font-family="Times,serif" font-size="14.00">{lib/libLLVMGlobalISel.a(GlobalISel.cpp.o)}</text>
</g>
<!-- Node0x557f01ffb3a8&#45;&gt;Node0x557f0200a1c8 -->
<g id="edge17" class="edge">
<title>Node0x557f01ffb3a8&#45;&gt;Node0x557f0200a1c8</title>
<path fill="none" stroke="black" d="M230.74,-344.82C275.66,-321.92 355.82,-281.36 425,-247.84 472.09,-225.03 526.24,-199.78 564.29,-182.21"/>
<polygon fill="black" stroke="black" points="565.99,-185.28 573.61,-177.91 563.06,-178.92 565.99,-185.28"/>
</g>
<!-- Node0x557f01ffb3a8&#45;&gt;Node0x557f0200a9e8 -->
<g id="edge18" class="edge">
<title>Node0x557f01ffb3a8&#45;&gt;Node0x557f0200a9e8</title>
<path fill="none" stroke="black" d="M359.3,-369.43C370.2,-374.6 380.29,-381.28 389,-389.84 462.19,-461.73 366.99,-533.23 425,-617.84 453.8,-659.84 504.5,-687.86 545.99,-704.96"/>
<polygon fill="black" stroke="black" points="544.92,-708.3 555.51,-708.75 547.52,-701.8 544.92,-708.3"/>
</g>
<!-- Node0x557f02001ca8 -->
<g id="node18" class="node">
<title>Node0x557f02001ca8</title>
<polygon fill="none" stroke="black" points="773,-292.84 455,-292.84 455,-256.84 773,-256.84 773,-292.84"/>
<text text-anchor="middle" x="614" y="-271.14" font-family="Times,serif" font-size="14.00">{lib/libLLVMGlobalISel.a(Localizer.cpp.o)}</text>
</g>
<!-- Node0x557f01ffb3a8&#45;&gt;Node0x557f02001ca8 -->
<g id="edge19" class="edge">
<title>Node0x557f01ffb3a8&#45;&gt;Node0x557f02001ca8</title>
<path fill="none" stroke="black" d="M280.99,-344.82C349.69,-330.34 446.13,-310.01 517.38,-295"/>
<polygon fill="black" stroke="black" points="518.2,-298.4 527.26,-292.91 516.75,-291.55 518.2,-298.4"/>
</g>
<!-- Node0x557f01ffa728 -->
<g id="node19" class="node">
<title>Node0x557f01ffa728</title>
<polygon fill="none" stroke="black" points="786,-380.84 442,-380.84 442,-344.84 786,-344.84 786,-380.84"/>
<text text-anchor="middle" x="614" y="-359.14" font-family="Times,serif" font-size="14.00">{lib/libLLVMGlobalISel.a(IRTranslator.cpp.o)}</text>
</g>
<!-- Node0x557f01ffb3a8&#45;&gt;Node0x557f01ffa728 -->
<g id="edge20" class="edge">
<title>Node0x557f01ffb3a8&#45;&gt;Node0x557f01ffa728</title>
<path fill="none" stroke="black" d="M359.01,-362.84C382.81,-362.84 407.43,-362.84 431.56,-362.84"/>
<polygon fill="black" stroke="black" points="431.87,-366.34 441.87,-362.84 431.87,-359.34 431.87,-366.34"/>
</g>
<!-- Node0x557f01ff83d8 -->
<g id="node20" class="node">
<title>Node0x557f01ff83d8</title>
<polygon fill="none" stroke="black" points="1231.5,-667.84 868.5,-667.84 868.5,-631.84 1231.5,-631.84 1231.5,-667.84"/>
<text text-anchor="middle" x="1050" y="-646.14" font-family="Times,serif" font-size="14.00">{lib/libLLVMGlobalISel.a(RegBankSelect.cpp.o)}</text>
</g>
<!-- Node0x557f01ffb3a8&#45;&gt;Node0x557f01ff83d8 -->
<g id="edge21" class="edge">
<title>Node0x557f01ffb3a8&#45;&gt;Node0x557f01ff83d8</title>
<path fill="none" stroke="black" d="M359.01,-370.43C369.91,-375.39 380.08,-381.76 389,-389.84 439.49,-435.59 375.38,-492.16 425,-538.84 539.45,-646.51 720.38,-668.6 858.01,-667.08"/>
<polygon fill="black" stroke="black" points="858.31,-670.57 868.26,-666.92 858.2,-663.58 858.31,-670.57"/>
</g>
<!-- Node0x557f02001ca8&#45;&gt;Node0x557f01ffc3e8 -->
<g id="edge31" class="edge">
<title>Node0x557f02001ca8&#45;&gt;Node0x557f01ffc3e8</title>
<path fill="none" stroke="black" d="M673.13,-256.76C788.19,-223.94 1051.92,-163.54 1261,-226.84 1342.84,-251.62 1422.14,-316.8 1461.61,-352.9"/>
<polygon fill="black" stroke="black" points="1459.25,-355.48 1468.96,-359.71 1464,-350.35 1459.25,-355.48"/>
</g>
<!-- Node0x557f01ffa728&#45;&gt;Node0x557f01ffac78 -->
<g id="edge25" class="edge">
<title>Node0x557f01ffa728&#45;&gt;Node0x557f01ffac78</title>
<path fill="none" stroke="black" d="M786.22,-352.19C811.96,-350.59 838.6,-348.93 864.61,-347.31"/>
<polygon fill="black" stroke="black" points="865.16,-350.78 874.92,-346.67 864.73,-343.8 865.16,-350.78"/>
</g>
<!-- Node0x557f01ffa728&#45;&gt;Node0x557f01ff7e38 -->
<g id="edge26" class="edge">
<title>Node0x557f01ffa728&#45;&gt;Node0x557f01ff7e38</title>
<path fill="none" stroke="black" d="M680.72,-380.88C725.13,-392.53 785.25,-407.25 839,-416.84 988.14,-443.46 1158.3,-463 1286.89,-475.59"/>
<polygon fill="black" stroke="black" points="1286.56,-479.08 1296.85,-476.56 1287.24,-472.11 1286.56,-479.08"/>
</g>
<!-- Node0x557f01ffa728&#45;&gt;Node0x557f01ffc3e8 -->
<g id="edge27" class="edge">
<title>Node0x557f01ffa728&#45;&gt;Node0x557f01ffc3e8</title>
<path fill="none" stroke="black" d="M707.18,-344.84C739.47,-335.57 774.7,-321.85 803,-301.84 824.48,-286.65 815.41,-266.49 839,-254.84 923.09,-213.33 1170.11,-231.75 1261,-254.84 1336.27,-273.96 1413.57,-323.68 1455.57,-353.73"/>
<polygon fill="black" stroke="black" points="1453.58,-356.61 1463.73,-359.64 1457.69,-350.94 1453.58,-356.61"/>
</g>
<!-- Node0x557f01ffa728&#45;&gt;Node0x557f02008b48 -->
<g id="edge22" class="edge">
<title>Node0x557f01ffa728&#45;&gt;Node0x557f02008b48</title>
<path fill="none" stroke="black" d="M735.93,-344.78C761.24,-335.69 785.52,-322.11 803,-301.84 866.26,-228.46 765.05,-149.44 839,-86.84 982.15,34.34 1077.47,-48.2 1261,-86.84 1512.78,-139.85 1785.6,-295.04 1883.72,-354.39"/>
<polygon fill="black" stroke="black" points="1882.03,-357.46 1892.39,-359.66 1885.67,-351.48 1882.03,-357.46"/>
</g>
<!-- Node0x557f01ffa728&#45;&gt;Node0x557f0201ce68 -->
<g id="edge24" class="edge">
<title>Node0x557f01ffa728&#45;&gt;Node0x557f0201ce68</title>
<path fill="none" stroke="black" d="M643.46,-381.01C685.16,-407.11 765.86,-455.58 839,-487.84 882.95,-507.22 934.04,-524.36 974.82,-536.83"/>
<polygon fill="black" stroke="black" points="973.83,-540.19 984.42,-539.74 975.86,-533.49 973.83,-540.19"/>
</g>
<!-- Node0x557f02007ec8 -->
<g id="node21" class="node">
<title>Node0x557f02007ec8</title>
<polygon fill="none" stroke="black" points="1246.5,-407.84 853.5,-407.84 853.5,-371.84 1246.5,-371.84 1246.5,-407.84"/>
<text text-anchor="middle" x="1050" y="-386.14" font-family="Times,serif" font-size="14.00">{lib/libLLVMGlobalISel.a(InlineAsmLowering.cpp.o)}</text>
</g>
<!-- Node0x557f01ffa728&#45;&gt;Node0x557f02007ec8 -->
<g id="edge23" class="edge">
<title>Node0x557f01ffa728&#45;&gt;Node0x557f02007ec8</title>
<path fill="none" stroke="black" d="M786.22,-373.49C804.99,-374.66 824.25,-375.86 843.38,-377.05"/>
<polygon fill="black" stroke="black" points="843.18,-380.54 853.37,-377.67 843.61,-373.56 843.18,-380.54"/>
</g>
<!-- Node0x557f01ff83d8&#45;&gt;Node0x557f01ff7e38 -->
<g id="edge28" class="edge">
<title>Node0x557f01ff83d8&#45;&gt;Node0x557f01ff7e38</title>
<path fill="none" stroke="black" d="M1220.49,-631.79C1234.45,-627.98 1248.13,-623.38 1261,-617.84 1279.62,-609.83 1279.89,-600.71 1297,-589.84 1342.68,-560.82 1398.12,-533.39 1437.39,-515.15"/>
<polygon fill="black" stroke="black" points="1438.89,-518.31 1446.51,-510.95 1435.96,-511.96 1438.89,-518.31"/>
</g>
<!-- Node0x557f01ff83d8&#45;&gt;Node0x557f01ffc3e8 -->
<g id="edge30" class="edge">
<title>Node0x557f01ff83d8&#45;&gt;Node0x557f01ffc3e8</title>
<path fill="none" stroke="black" d="M1231.55,-637.83C1242.23,-632.54 1252.19,-625.96 1261,-617.84 1312.05,-570.79 1253.06,-519.59 1297,-465.84 1323.35,-433.61 1364.14,-412.61 1401.23,-399.25"/>
<polygon fill="black" stroke="black" points="1402.76,-402.42 1411.07,-395.85 1400.47,-395.81 1402.76,-402.42"/>
</g>
<!-- Node0x557f01ff83d8&#45;&gt;Node0x557f01ffc618 -->
<g id="edge29" class="edge">
<title>Node0x557f01ff83d8&#45;&gt;Node0x557f01ffc618</title>
<path fill="none" stroke="black" d="M1180.85,-631.79C1342.06,-609.38 1615.94,-571.31 1781.65,-548.28"/>
<polygon fill="black" stroke="black" points="1782.49,-551.7 1791.91,-546.85 1781.53,-544.76 1782.49,-551.7"/>
</g>
<!-- Node0x557f02007ec8&#45;&gt;Node0x557f01ff7e38 -->
<g id="edge32" class="edge">
<title>Node0x557f02007ec8&#45;&gt;Node0x557f01ff7e38</title>
<path fill="none" stroke="black" d="M1127.28,-407.84C1203.68,-425.87 1321.08,-453.57 1400.93,-472.41"/>
<polygon fill="black" stroke="black" points="1400.43,-475.89 1410.97,-474.78 1402.04,-469.08 1400.43,-475.89"/>
</g>
<!-- Node0x557f01ffbcb8 -->
<g id="node22" class="node">
<title>Node0x557f01ffbcb8</title>
<polygon fill="none" stroke="black" points="797.5,-529.84 430.5,-529.84 430.5,-493.84 797.5,-493.84 797.5,-529.84"/>
<text text-anchor="middle" x="614" y="-508.14" font-family="Times,serif" font-size="14.00">{lib/libLLVMGlobalISel.a(CSEMIRBuilder.cpp.o)}</text>
</g>
<!-- Node0x557f01ffbcb8&#45;&gt;Node0x557f01ff7e38 -->
<g id="edge34" class="edge">
<title>Node0x557f01ffbcb8&#45;&gt;Node0x557f01ff7e38</title>
<path fill="none" stroke="black" d="M797.64,-507.86C940.62,-504.75 1139.29,-500.42 1286.72,-497.21"/>
<polygon fill="black" stroke="black" points="1286.88,-500.71 1296.8,-496.99 1286.72,-493.71 1286.88,-500.71"/>
</g>
<!-- Node0x557f01ffbcb8&#45;&gt;Node0x557f01ffc3e8 -->
<g id="edge35" class="edge">
<title>Node0x557f01ffbcb8&#45;&gt;Node0x557f01ffc3e8</title>
<path fill="none" stroke="black" d="M744.14,-493.8C874.65,-475.34 1082.03,-445.4 1261,-416.84 1298.46,-410.86 1339.33,-403.95 1375.91,-397.61"/>
<polygon fill="black" stroke="black" points="1376.86,-401 1386.11,-395.84 1375.66,-394.11 1376.86,-401"/>
</g>
<!-- Node0x557f01ffbcb8&#45;&gt;Node0x557f0201ce68 -->
<g id="edge33" class="edge">
<title>Node0x557f01ffbcb8&#45;&gt;Node0x557f0201ce68</title>
<path fill="none" stroke="black" d="M784.97,-529.86C817.03,-533.25 850.52,-536.8 882.46,-540.19"/>
<polygon fill="black" stroke="black" points="882.46,-543.71 892.78,-541.28 883.2,-536.75 882.46,-543.71"/>
</g>
</g>
</svg>
