<?xml version="1.0" encoding="UTF-8" standalone="no"?>
<!DOCTYPE svg PUBLIC "-//W3C//DTD SVG 1.1//EN"
 "http://www.w3.org/Graphics/SVG/1.1/DTD/svg11.dtd">
<!-- Generated by graphviz version 2.43.0 (0)
 -->
<!-- Title: bin/bugpoint_lib/libLLVMDebugInfoDWARF.a Pages: 1 -->
<svg width="2532pt" height="1412pt"
 viewBox="0.00 0.00 2532.00 1412.05" xmlns="http://www.w3.org/2000/svg" xmlns:xlink="http://www.w3.org/1999/xlink">
<g id="graph0" class="graph" transform="scale(1 1) rotate(0) translate(4 1408.05)">
<title>bin/bugpoint_lib/libLLVMDebugInfoDWARF.a</title>
<polygon fill="white" stroke="transparent" points="-4,4 -4,-1408.05 2528,-1408.05 2528,4 -4,4"/>
<text text-anchor="middle" x="1262" y="-7.8" font-family="Times,serif" font-size="14.00">bin/bugpoint_lib/libLLVMDebugInfoDWARF.a</text>
<!-- Node0x5638d1ab9ed8 -->
<g id="node1" class="node">
<title>Node0x5638d1ab9ed8</title>
<polygon fill="#7fb2ff" stroke="black" points="443,-761.23 0,-761.23 0,-725.23 443,-725.23 443,-761.23"/>
<text text-anchor="middle" x="221.5" y="-739.53" font-family="Times,serif" font-size="14.00">{lib/libLLVMDebugInfoDWARF.a(DWARFExpression.cpp.o)}</text>
</g>
<!-- Node0x5638d1aba5b8 -->
<g id="node2" class="node">
<title>Node0x5638d1aba5b8</title>
<polygon fill="#7fb2ff" stroke="black" points="892.5,-727.23 505.5,-727.23 505.5,-691.23 892.5,-691.23 892.5,-727.23"/>
<text text-anchor="middle" x="699" y="-705.53" font-family="Times,serif" font-size="14.00">{lib/libLLVMDebugInfoDWARF.a(DWARFDie.cpp.o)}</text>
</g>
<!-- Node0x5638d1ab9ed8&#45;&gt;Node0x5638d1aba5b8 -->
<g id="edge1" class="edge">
<title>Node0x5638d1ab9ed8&#45;&gt;Node0x5638d1aba5b8</title>
<path fill="none" stroke="#7fb2ff" d="M384.48,-725.22C420.03,-722.37 458.1,-719.56 495.03,-717.06"/>
<polygon fill="#7fb2ff" stroke="#7fb2ff" points="495.67,-720.53 505.41,-716.36 495.2,-713.54 495.67,-720.53"/>
</g>
<!-- Node0x5638d1ab6e68 -->
<g id="node3" class="node">
<title>Node0x5638d1ab6e68</title>
<polygon fill="#7fb2ff" stroke="black" points="919,-635.23 479,-635.23 479,-599.23 919,-599.23 919,-635.23"/>
<text text-anchor="middle" x="699" y="-613.53" font-family="Times,serif" font-size="14.00">{lib/libLLVMDebugInfoDWARF.a(DWARFFormValue.cpp.o)}</text>
</g>
<!-- Node0x5638d1ab9ed8&#45;&gt;Node0x5638d1ab6e68 -->
<g id="edge2" class="edge">
<title>Node0x5638d1ab9ed8&#45;&gt;Node0x5638d1ab6e68</title>
<path fill="none" stroke="#7fb2ff" d="M263.87,-725.05C313.89,-703.79 401.07,-668.98 479,-649.23 497.32,-644.59 516.68,-640.55 536.01,-637.06"/>
<polygon fill="#7fb2ff" stroke="#7fb2ff" points="536.87,-640.46 546.11,-635.28 535.65,-633.57 536.87,-640.46"/>
</g>
<!-- Node0x5638d1ab2a98 -->
<g id="node4" class="node">
<title>Node0x5638d1ab2a98</title>
<polygon fill="#7fb2ff" stroke="black" points="896.5,-903.23 501.5,-903.23 501.5,-867.23 896.5,-867.23 896.5,-903.23"/>
<text text-anchor="middle" x="699" y="-881.53" font-family="Times,serif" font-size="14.00">{lib/libLLVMDebugInfoDWARF.a(DWARFUnit.cpp.o)}</text>
</g>
<!-- Node0x5638d1ab9ed8&#45;&gt;Node0x5638d1ab2a98 -->
<g id="edge3" class="edge">
<title>Node0x5638d1ab9ed8&#45;&gt;Node0x5638d1ab2a98</title>
<path fill="none" stroke="#7fb2ff" d="M279.08,-761.3C330.41,-781.36 408.61,-812.91 479,-833.23 524.84,-846.47 577.24,-856.92 619.3,-865.21"/>
<polygon fill="#7fb2ff" stroke="#7fb2ff" points="618.71,-868.66 629.2,-867.16 620.07,-861.79 618.71,-868.66"/>
</g>
<!-- Node0x5638d1aba5b8&#45;&gt;Node0x5638d1ab9ed8 -->
<g id="edge4" class="edge">
<title>Node0x5638d1aba5b8&#45;&gt;Node0x5638d1ab9ed8</title>
<path fill="none" stroke="#7fb2ff" d="M536.14,-727.24C509.49,-729.38 481.43,-731.49 453.48,-733.47"/>
<polygon fill="#7fb2ff" stroke="#7fb2ff" points="452.93,-730 443.2,-734.19 453.42,-736.98 452.93,-730"/>
</g>
<!-- Node0x5638d1aba5b8&#45;&gt;Node0x5638d1ab6e68 -->
<g id="edge10" class="edge">
<title>Node0x5638d1aba5b8&#45;&gt;Node0x5638d1ab6e68</title>
<path fill="none" stroke="#7fb2ff" d="M803.09,-691.18C880.8,-673.35 884.15,-655.52 813.14,-637.69"/>
<polygon fill="#7fb2ff" stroke="#7fb2ff" points="813.66,-634.22 803.12,-635.29 812.03,-641.03 813.66,-634.22"/>
</g>
<!-- Node0x5638d1aba5b8&#45;&gt;Node0x5638d1ab2a98 -->
<g id="edge11" class="edge">
<title>Node0x5638d1aba5b8&#45;&gt;Node0x5638d1ab2a98</title>
<path fill="none" stroke="#7fb2ff" d="M752.42,-727.28C871.47,-772.69 874.61,-818.09 761.84,-863.5"/>
<polygon fill="#7fb2ff" stroke="#7fb2ff" points="760.46,-860.28 752.42,-867.19 763.01,-866.8 760.46,-860.28"/>
</g>
<!-- Node0x5638d1abb198 -->
<g id="node5" class="node">
<title>Node0x5638d1abb198</title>
<polygon fill="#7fb2ff" stroke="black" points="1491,-389.23 955,-389.23 955,-353.23 1491,-353.23 1491,-389.23"/>
<text text-anchor="middle" x="1223" y="-367.53" font-family="Times,serif" font-size="14.00">{lib/libLLVMDebugInfoDWARF.a(DWARFAbbreviationDeclaration.cpp.o)}</text>
</g>
<!-- Node0x5638d1aba5b8&#45;&gt;Node0x5638d1abb198 -->
<g id="edge5" class="edge">
<title>Node0x5638d1aba5b8&#45;&gt;Node0x5638d1abb198</title>
<path fill="none" stroke="#7fb2ff" d="M815.6,-691.2C853.69,-681.72 892.92,-665.25 919,-635.23 990.03,-553.48 877.32,-469.7 955,-394.23 1006.68,-344.03 1093.08,-342.73 1153.56,-351.58"/>
<polygon fill="#7fb2ff" stroke="#7fb2ff" points="1153.35,-355.09 1163.78,-353.21 1154.46,-348.18 1153.35,-355.09"/>
</g>
<!-- Node0x5638d1ab11e8 -->
<g id="node6" class="node">
<title>Node0x5638d1ab11e8</title>
<polygon fill="#7fb2ff" stroke="black" points="1432.5,-957.23 1013.5,-957.23 1013.5,-921.23 1432.5,-921.23 1432.5,-957.23"/>
<text text-anchor="middle" x="1223" y="-935.53" font-family="Times,serif" font-size="14.00">{lib/libLLVMDebugInfoDWARF.a(DWARFContext.cpp.o)}</text>
</g>
<!-- Node0x5638d1aba5b8&#45;&gt;Node0x5638d1ab11e8 -->
<g id="edge6" class="edge">
<title>Node0x5638d1aba5b8&#45;&gt;Node0x5638d1ab11e8</title>
<path fill="none" stroke="#7fb2ff" d="M792.03,-727.27C835.55,-742.81 885.25,-768.11 919,-805.23 950.22,-839.57 918.34,-874.79 955,-903.23 969.6,-914.56 986.08,-923.02 1003.51,-929.27"/>
<polygon fill="#7fb2ff" stroke="#7fb2ff" points="1002.7,-932.69 1013.29,-932.52 1004.91,-926.05 1002.7,-932.69"/>
</g>
<!-- Node0x5638d1ab1648 -->
<g id="node7" class="node">
<title>Node0x5638d1ab1648</title>
<polygon fill="#7fb2ff" stroke="black" points="1440,-849.23 1006,-849.23 1006,-813.23 1440,-813.23 1440,-849.23"/>
<text text-anchor="middle" x="1223" y="-827.53" font-family="Times,serif" font-size="14.00">{lib/libLLVMDebugInfoDWARF.a(DWARFDebugLoc.cpp.o)}</text>
</g>
<!-- Node0x5638d1aba5b8&#45;&gt;Node0x5638d1ab1648 -->
<g id="edge7" class="edge">
<title>Node0x5638d1aba5b8&#45;&gt;Node0x5638d1ab1648</title>
<path fill="none" stroke="#7fb2ff" d="M819.38,-727.29C852.98,-735.48 888.61,-747.29 919,-764.23 938.49,-775.1 934.86,-789.62 955,-799.23 968.01,-805.44 981.76,-810.62 995.89,-814.92"/>
<polygon fill="#7fb2ff" stroke="#7fb2ff" points="995.15,-818.35 1005.73,-817.76 997.1,-811.63 995.15,-818.35"/>
</g>
<!-- Node0x5638d1aafa28 -->
<g id="node8" class="node">
<title>Node0x5638d1aafa28</title>
<polygon fill="#7fb2ff" stroke="black" points="1455,-297.23 991,-297.23 991,-261.23 1455,-261.23 1455,-297.23"/>
<text text-anchor="middle" x="1223" y="-275.53" font-family="Times,serif" font-size="14.00">{lib/libLLVMDebugInfoDWARF.a(DWARFAddressRange.cpp.o)}</text>
</g>
<!-- Node0x5638d1aba5b8&#45;&gt;Node0x5638d1aafa28 -->
<g id="edge8" class="edge">
<title>Node0x5638d1aba5b8&#45;&gt;Node0x5638d1aafa28</title>
<path fill="none" stroke="#7fb2ff" d="M818.56,-691.21C855.99,-681.69 894.05,-665.16 919,-635.23 966.66,-578.07 902.68,-355.17 955,-302.23 1006.45,-250.18 1095.02,-249.88 1155.95,-259.54"/>
<polygon fill="#7fb2ff" stroke="#7fb2ff" points="1155.41,-262.99 1165.85,-261.23 1156.59,-256.1 1155.41,-262.99"/>
</g>
<!-- Node0x5638d1ab2a48 -->
<g id="node9" class="node">
<title>Node0x5638d1ab2a48</title>
<polygon fill="#7fb2ff" stroke="black" points="1443,-589.23 1003,-589.23 1003,-553.23 1443,-553.23 1443,-589.23"/>
<text text-anchor="middle" x="1223" y="-567.53" font-family="Times,serif" font-size="14.00">{lib/libLLVMDebugInfoDWARF.a(DWARFDebugLine.cpp.o)}</text>
</g>
<!-- Node0x5638d1aba5b8&#45;&gt;Node0x5638d1ab2a48 -->
<g id="edge9" class="edge">
<title>Node0x5638d1aba5b8&#45;&gt;Node0x5638d1ab2a48</title>
<path fill="none" stroke="#7fb2ff" d="M875.38,-691.19C891.01,-685.56 905.87,-678.1 919,-668.23 949.85,-645.06 923.64,-611.72 955,-589.23 1008.76,-550.69 1085.01,-546.6 1142.27,-552.13"/>
<polygon fill="#7fb2ff" stroke="#7fb2ff" points="1142.05,-555.63 1152.37,-553.22 1142.81,-548.67 1142.05,-555.63"/>
</g>
<!-- Node0x5638d1ab6e68&#45;&gt;Node0x5638d1aba5b8 -->
<g id="edge12" class="edge">
<title>Node0x5638d1ab6e68&#45;&gt;Node0x5638d1aba5b8</title>
<path fill="none" stroke="#7fb2ff" d="M594.88,-635.29C517.19,-653.12 513.86,-670.95 584.89,-688.78"/>
<polygon fill="#7fb2ff" stroke="#7fb2ff" points="584.37,-692.25 594.91,-691.18 586,-685.45 584.37,-692.25"/>
</g>
<!-- Node0x5638d1ab6e68&#45;&gt;Node0x5638d1ab2a98 -->
<g id="edge15" class="edge">
<title>Node0x5638d1ab6e68&#45;&gt;Node0x5638d1ab2a98</title>
<path fill="none" stroke="#7fb2ff" d="M483.68,-635.3C477.34,-640.99 471.72,-647.6 467,-655.23 458.24,-669.41 459.14,-715.54 467,-730.23 502.67,-796.97 581.2,-839.97 636.99,-863.36"/>
<polygon fill="#7fb2ff" stroke="#7fb2ff" points="635.85,-866.68 646.43,-867.22 638.5,-860.2 635.85,-866.68"/>
</g>
<!-- Node0x5638d1ab6e68&#45;&gt;Node0x5638d1ab11e8 -->
<g id="edge13" class="edge">
<title>Node0x5638d1ab6e68&#45;&gt;Node0x5638d1ab11e8</title>
<path fill="none" stroke="#7fb2ff" d="M866.45,-635.25C886.34,-644.45 904.64,-656.82 919,-673.23 987.13,-751.11 879.87,-832.09 955,-903.23 969.19,-916.67 985.89,-926.43 1003.91,-933.39"/>
<polygon fill="#7fb2ff" stroke="#7fb2ff" points="1002.85,-936.73 1013.45,-936.78 1005.2,-930.13 1002.85,-936.73"/>
</g>
<!-- Node0x5638d1ab0ba8 -->
<g id="node10" class="node">
<title>Node0x5638d1ab0ba8</title>
<polygon fill="none" stroke="black" points="1455,-481.23 991,-481.23 991,-445.23 1455,-445.23 1455,-481.23"/>
<text text-anchor="middle" x="1223" y="-459.53" font-family="Times,serif" font-size="14.00">{lib/libLLVMDebugInfoDWARF.a(DWARFDataExtractor.cpp.o)}</text>
</g>
<!-- Node0x5638d1ab6e68&#45;&gt;Node0x5638d1ab0ba8 -->
<g id="edge14" class="edge">
<title>Node0x5638d1ab6e68&#45;&gt;Node0x5638d1ab0ba8</title>
<path fill="none" stroke="black" d="M727.68,-599.21C773.08,-570.65 867.1,-515.65 955,-490.23 963.46,-487.79 972.12,-485.56 980.91,-483.52"/>
<polygon fill="black" stroke="black" points="981.88,-486.89 990.88,-481.31 980.36,-480.06 981.88,-486.89"/>
</g>
<!-- Node0x5638d1ab2a98&#45;&gt;Node0x5638d1ab9ed8 -->
<g id="edge16" class="edge">
<title>Node0x5638d1ab2a98&#45;&gt;Node0x5638d1ab9ed8</title>
<path fill="none" stroke="#7fb2ff" d="M542.85,-867.18C521.26,-862.5 499.47,-857.15 479,-851.23 398.87,-828.09 308.62,-790.42 259.4,-765.97"/>
<polygon fill="#7fb2ff" stroke="#7fb2ff" points="260.92,-762.81 250.41,-761.42 257.75,-769.06 260.92,-762.81"/>
</g>
<!-- Node0x5638d1ab2a98&#45;&gt;Node0x5638d1aba5b8 -->
<g id="edge17" class="edge">
<title>Node0x5638d1ab2a98&#45;&gt;Node0x5638d1aba5b8</title>
<path fill="none" stroke="#7fb2ff" d="M645.58,-867.19C526.53,-821.78 523.39,-776.38 636.16,-730.97"/>
<polygon fill="#7fb2ff" stroke="#7fb2ff" points="637.55,-734.19 645.58,-727.28 634.99,-727.67 637.55,-734.19"/>
</g>
<!-- Node0x5638d1ab2a98&#45;&gt;Node0x5638d1ab6e68 -->
<g id="edge24" class="edge">
<title>Node0x5638d1ab2a98&#45;&gt;Node0x5638d1ab6e68</title>
<path fill="none" stroke="#7fb2ff" d="M644.8,-867.14C585.94,-844.23 494.99,-798.53 455,-724.23 441.73,-699.58 440.28,-685.05 455,-661.23 459.53,-653.9 464.85,-647.44 470.81,-641.77"/>
<polygon fill="#7fb2ff" stroke="#7fb2ff" points="473.38,-644.17 478.68,-635 468.82,-638.86 473.38,-644.17"/>
</g>
<!-- Node0x5638d1ab2a98&#45;&gt;Node0x5638d1ab11e8 -->
<g id="edge18" class="edge">
<title>Node0x5638d1ab2a98&#45;&gt;Node0x5638d1ab11e8</title>
<path fill="none" stroke="#7fb2ff" d="M896.63,-897.19C916.35,-899.22 936.07,-901.28 955,-903.23 1006.81,-908.6 1064.29,-914.42 1112.61,-920.04"/>
<polygon fill="#7fb2ff" stroke="#7fb2ff" points="1112.43,-923.54 1122.77,-921.23 1113.25,-916.59 1112.43,-923.54"/>
</g>
<!-- Node0x5638d1ab2a98&#45;&gt;Node0x5638d1ab1648 -->
<g id="edge19" class="edge">
<title>Node0x5638d1ab2a98&#45;&gt;Node0x5638d1ab1648</title>
<path fill="none" stroke="#7fb2ff" d="M793.25,-867.21C841.52,-861.12 901.42,-854.78 955,-849.23 968.33,-847.85 982.04,-846.44 995.87,-845.04"/>
<polygon fill="#7fb2ff" stroke="#7fb2ff" points="996.36,-848.51 1005.96,-844.02 995.66,-841.54 996.36,-848.51"/>
</g>
<!-- Node0x5638d1ab2a98&#45;&gt;Node0x5638d1ab0ba8 -->
<g id="edge20" class="edge">
<title>Node0x5638d1ab2a98&#45;&gt;Node0x5638d1ab0ba8</title>
<path fill="none" stroke="black" d="M746.69,-867.13C797.95,-844.64 878.37,-801.13 919,-736.23 977.63,-642.58 875.15,-566.61 955,-490.23 963.18,-482.41 972.22,-475.82 981.88,-470.31"/>
<polygon fill="black" stroke="black" points="983.7,-473.31 990.91,-465.55 980.43,-467.12 983.7,-473.31"/>
</g>
<!-- Node0x5638d1ab31c8 -->
<g id="node11" class="node">
<title>Node0x5638d1ab31c8</title>
<polygon fill="#7fb2ff" stroke="black" points="1457,-535.23 989,-535.23 989,-499.23 1457,-499.23 1457,-535.23"/>
<text text-anchor="middle" x="1223" y="-513.53" font-family="Times,serif" font-size="14.00">{lib/libLLVMDebugInfoDWARF.a(DWARFDebugRnglists.cpp.o)}</text>
</g>
<!-- Node0x5638d1ab2a98&#45;&gt;Node0x5638d1ab31c8 -->
<g id="edge21" class="edge">
<title>Node0x5638d1ab2a98&#45;&gt;Node0x5638d1ab31c8</title>
<path fill="none" stroke="#7fb2ff" d="M732.43,-867.07C781.32,-843.29 873.05,-797.46 919,-727.23 966.53,-654.58 891.07,-593.98 955,-535.23 1009.24,-485.4 1098.32,-486.82 1158.52,-497.32"/>
<polygon fill="#7fb2ff" stroke="#7fb2ff" points="1158.19,-500.81 1168.67,-499.22 1159.49,-493.93 1158.19,-500.81"/>
</g>
<!-- Node0x5638d1ab8e48 -->
<g id="node12" class="node">
<title>Node0x5638d1ab8e48</title>
<polygon fill="#7fb2ff" stroke="black" points="1452,-903.23 994,-903.23 994,-867.23 1452,-867.23 1452,-903.23"/>
<text text-anchor="middle" x="1223" y="-881.53" font-family="Times,serif" font-size="14.00">{lib/libLLVMDebugInfoDWARF.a(DWARFDebugAbbrev.cpp.o)}</text>
</g>
<!-- Node0x5638d1ab2a98&#45;&gt;Node0x5638d1ab8e48 -->
<g id="edge22" class="edge">
<title>Node0x5638d1ab2a98&#45;&gt;Node0x5638d1ab8e48</title>
<path fill="none" stroke="#7fb2ff" d="M896.6,-885.23C924.91,-885.23 954.3,-885.23 983.31,-885.23"/>
<polygon fill="#7fb2ff" stroke="#7fb2ff" points="983.56,-888.73 993.56,-885.23 983.56,-881.73 983.56,-888.73"/>
</g>
<!-- Node0x5638d1ab5478 -->
<g id="node13" class="node">
<title>Node0x5638d1ab5478</title>
<polygon fill="#7fb2ff" stroke="black" points="1464,-1303.23 982,-1303.23 982,-1267.23 1464,-1267.23 1464,-1303.23"/>
<text text-anchor="middle" x="1223" y="-1281.53" font-family="Times,serif" font-size="14.00">{lib/libLLVMDebugInfoDWARF.a(DWARFDebugRangeList.cpp.o)}</text>
</g>
<!-- Node0x5638d1ab2a98&#45;&gt;Node0x5638d1ab5478 -->
<g id="edge23" class="edge">
<title>Node0x5638d1ab2a98&#45;&gt;Node0x5638d1ab5478</title>
<path fill="none" stroke="#7fb2ff" d="M706.06,-903.37C727.94,-965.65 809.32,-1171.71 955,-1258.23 960.59,-1261.55 966.36,-1264.59 972.27,-1267.36"/>
<polygon fill="#7fb2ff" stroke="#7fb2ff" points="971.12,-1270.68 981.69,-1271.52 973.95,-1264.28 971.12,-1270.68"/>
</g>
<!-- Node0x5638d1ab5f68 -->
<g id="node14" class="node">
<title>Node0x5638d1ab5f68</title>
<polygon fill="#7fb2ff" stroke="black" points="1437,-1249.23 1009,-1249.23 1009,-1213.23 1437,-1213.23 1437,-1249.23"/>
<text text-anchor="middle" x="1223" y="-1227.53" font-family="Times,serif" font-size="14.00">{lib/libLLVMDebugInfoDWARF.a(DWARFListTable.cpp.o)}</text>
</g>
<!-- Node0x5638d1ab2a98&#45;&gt;Node0x5638d1ab5f68 -->
<g id="edge25" class="edge">
<title>Node0x5638d1ab2a98&#45;&gt;Node0x5638d1ab5f68</title>
<path fill="none" stroke="#7fb2ff" d="M708.46,-903.5C735.31,-959.18 824.63,-1127.34 955,-1199.23 968.88,-1206.89 983.78,-1213.08 999.17,-1218.05"/>
<polygon fill="#7fb2ff" stroke="#7fb2ff" points="998.23,-1221.42 1008.82,-1220.99 1000.28,-1214.73 998.23,-1221.42"/>
</g>
<!-- Node0x5638d1ab3128 -->
<g id="node15" class="node">
<title>Node0x5638d1ab3128</title>
<polygon fill="#7fb2ff" stroke="black" points="1440,-643.23 1006,-643.23 1006,-607.23 1440,-607.23 1440,-643.23"/>
<text text-anchor="middle" x="1223" y="-621.53" font-family="Times,serif" font-size="14.00">{lib/libLLVMDebugInfoDWARF.a(DWARFUnitIndex.cpp.o)}</text>
</g>
<!-- Node0x5638d1ab2a98&#45;&gt;Node0x5638d1ab3128 -->
<g id="edge26" class="edge">
<title>Node0x5638d1ab2a98&#45;&gt;Node0x5638d1ab3128</title>
<path fill="none" stroke="#7fb2ff" d="M736.29,-867.16C829,-820.98 1074.41,-698.75 1176.47,-647.91"/>
<polygon fill="#7fb2ff" stroke="#7fb2ff" points="1178.21,-650.95 1185.6,-643.36 1175.09,-644.69 1178.21,-650.95"/>
</g>
<!-- Node0x5638d1a9e2c8 -->
<g id="node16" class="node">
<title>Node0x5638d1a9e2c8</title>
<polygon fill="#7fb2ff" stroke="black" points="1461,-1011.23 985,-1011.23 985,-975.23 1461,-975.23 1461,-1011.23"/>
<text text-anchor="middle" x="1223" y="-989.53" font-family="Times,serif" font-size="14.00">{lib/libLLVMDebugInfoDWARF.a(DWARFDebugInfoEntry.cpp.o)}</text>
</g>
<!-- Node0x5638d1ab2a98&#45;&gt;Node0x5638d1a9e2c8 -->
<g id="edge27" class="edge">
<title>Node0x5638d1ab2a98&#45;&gt;Node0x5638d1a9e2c8</title>
<path fill="none" stroke="#7fb2ff" d="M766.9,-903.26C817.76,-919.99 889.84,-943.74 955,-957.23 990.34,-964.55 1028.74,-969.91 1065.12,-974.08"/>
<polygon fill="#7fb2ff" stroke="#7fb2ff" points="1064.99,-977.59 1075.32,-975.23 1065.77,-970.63 1064.99,-977.59"/>
</g>
<!-- Node0x5638d1a9d5f8 -->
<g id="node17" class="node">
<title>Node0x5638d1a9d5f8</title>
<polygon fill="#7fb2ff" stroke="black" points="1437.5,-1065.23 1008.5,-1065.23 1008.5,-1029.23 1437.5,-1029.23 1437.5,-1065.23"/>
<text text-anchor="middle" x="1223" y="-1043.53" font-family="Times,serif" font-size="14.00">{lib/libLLVMDebugInfoDWARF.a(DWARFTypeUnit.cpp.o)}</text>
</g>
<!-- Node0x5638d1ab2a98&#45;&gt;Node0x5638d1a9d5f8 -->
<g id="edge28" class="edge">
<title>Node0x5638d1ab2a98&#45;&gt;Node0x5638d1a9d5f8</title>
<path fill="none" stroke="#7fb2ff" d="M735.23,-903.48C782.74,-932.08 871.1,-985.85 955,-1011.23 978.33,-1018.29 1003.27,-1023.59 1028.19,-1027.64"/>
<polygon fill="#7fb2ff" stroke="#7fb2ff" points="1027.69,-1031.1 1038.11,-1029.18 1028.76,-1024.19 1027.69,-1031.1"/>
</g>
<!-- Node0x5638d1a9c3d8 -->
<g id="node18" class="node">
<title>Node0x5638d1a9c3d8</title>
<polygon fill="#7fb2ff" stroke="black" points="1449.5,-1119.23 996.5,-1119.23 996.5,-1083.23 1449.5,-1083.23 1449.5,-1119.23"/>
<text text-anchor="middle" x="1223" y="-1097.53" font-family="Times,serif" font-size="14.00">{lib/libLLVMDebugInfoDWARF.a(DWARFCompileUnit.cpp.o)}</text>
</g>
<!-- Node0x5638d1ab2a98&#45;&gt;Node0x5638d1a9c3d8 -->
<g id="edge29" class="edge">
<title>Node0x5638d1ab2a98&#45;&gt;Node0x5638d1a9c3d8</title>
<path fill="none" stroke="#7fb2ff" d="M722.31,-903.29C763.7,-941.19 857.1,-1027.34 955,-1065.23 971.94,-1071.79 989.92,-1076.98 1008.22,-1081.09"/>
<polygon fill="#7fb2ff" stroke="#7fb2ff" points="1007.6,-1084.54 1018.11,-1083.21 1009.06,-1077.69 1007.6,-1084.54"/>
</g>
<!-- Node0x5638d1abb198&#45;&gt;Node0x5638d1aba5b8 -->
<g id="edge30" class="edge">
<title>Node0x5638d1abb198&#45;&gt;Node0x5638d1aba5b8</title>
<path fill="none" stroke="#7fb2ff" d="M986.5,-389.32C975.08,-395.49 964.46,-403.04 955,-412.23 877.32,-487.7 990.03,-571.48 919,-653.23 906.98,-667.07 892.17,-678.02 875.97,-686.64"/>
<polygon fill="#7fb2ff" stroke="#7fb2ff" points="874.22,-683.6 866.83,-691.18 877.34,-689.86 874.22,-683.6"/>
</g>
<!-- Node0x5638d1abb198&#45;&gt;Node0x5638d1ab6e68 -->
<g id="edge31" class="edge">
<title>Node0x5638d1abb198&#45;&gt;Node0x5638d1ab6e68</title>
<path fill="none" stroke="#7fb2ff" d="M994.15,-389.3C980.68,-393.2 967.53,-397.81 955,-403.23 853.69,-447.12 761.58,-544.67 721.36,-591.36"/>
<polygon fill="#7fb2ff" stroke="#7fb2ff" points="718.5,-589.31 714.69,-599.2 723.83,-593.85 718.5,-589.31"/>
</g>
<!-- Node0x5638d1abb198&#45;&gt;Node0x5638d1ab2a98 -->
<g id="edge32" class="edge">
<title>Node0x5638d1abb198&#45;&gt;Node0x5638d1ab2a98</title>
<path fill="none" stroke="#7fb2ff" d="M1026.2,-389.28C999.17,-399.63 974.16,-414.64 955,-436.23 865.88,-536.69 988.78,-621.5 919,-736.23 881.66,-797.64 808.3,-839.6 756.81,-862.97"/>
<polygon fill="#7fb2ff" stroke="#7fb2ff" points="755.18,-859.86 747.46,-867.12 758.02,-866.26 755.18,-859.86"/>
</g>
<!-- Node0x5638d1ab11e8&#45;&gt;Node0x5638d1ab9ed8 -->
<g id="edge33" class="edge">
<title>Node0x5638d1ab11e8&#45;&gt;Node0x5638d1ab9ed8</title>
<path fill="none" stroke="#7fb2ff" d="M1013.46,-936.48C992.86,-930.89 972.96,-923.05 955,-912.23 930.29,-897.36 943.45,-873.54 919,-858.23 751.69,-753.54 673.41,-832.28 479,-798.23 422.13,-788.27 358.69,-774.69 309.13,-763.52"/>
<polygon fill="#7fb2ff" stroke="#7fb2ff" points="309.61,-760.04 299.09,-761.24 308.07,-766.87 309.61,-760.04"/>
</g>
<!-- Node0x5638d1ab11e8&#45;&gt;Node0x5638d1aba5b8 -->
<g id="edge34" class="edge">
<title>Node0x5638d1ab11e8&#45;&gt;Node0x5638d1aba5b8</title>
<path fill="none" stroke="#7fb2ff" d="M1159.3,-957.24C1100.4,-966.07 1012.89,-966.14 955,-921.23 918.34,-892.79 950.22,-857.57 919,-823.23 875.65,-775.56 806.02,-747.39 756.93,-730.51"/>
<polygon fill="#7fb2ff" stroke="#7fb2ff" points="758,-727.17 747.4,-727.28 755.75,-733.8 758,-727.17"/>
</g>
<!-- Node0x5638d1ab11e8&#45;&gt;Node0x5638d1ab6e68 -->
<g id="edge48" class="edge">
<title>Node0x5638d1ab11e8&#45;&gt;Node0x5638d1ab6e68</title>
<path fill="none" stroke="#7fb2ff" d="M1169.72,-957.28C1109.64,-969.83 1012,-975.21 955,-921.23 879.87,-850.09 987.13,-769.11 919,-691.23 895.01,-663.81 860.04,-647.7 825.05,-637.9"/>
<polygon fill="#7fb2ff" stroke="#7fb2ff" points="825.76,-634.47 815.19,-635.3 823.97,-641.23 825.76,-634.47"/>
</g>
<!-- Node0x5638d1ab11e8&#45;&gt;Node0x5638d1ab2a98 -->
<g id="edge52" class="edge">
<title>Node0x5638d1ab11e8&#45;&gt;Node0x5638d1ab2a98</title>
<path fill="none" stroke="#7fb2ff" d="M1013.2,-927.18C993.52,-925.21 973.88,-923.19 955,-921.23 905.08,-916.07 849.68,-910.22 803.3,-904.52"/>
<polygon fill="#7fb2ff" stroke="#7fb2ff" points="803.6,-901.03 793.25,-903.26 802.74,-907.97 803.6,-901.03"/>
</g>
<!-- Node0x5638d1ab11e8&#45;&gt;Node0x5638d1ab1648 -->
<g id="edge35" class="edge">
<title>Node0x5638d1ab11e8&#45;&gt;Node0x5638d1ab1648</title>
<path fill="none" stroke="#7fb2ff" d="M1145.96,-957.29C1076.2,-968.47 978.24,-969.96 937,-903.23 911.4,-861.8 944.3,-841.22 995.77,-831.71"/>
<polygon fill="#7fb2ff" stroke="#7fb2ff" points="996.66,-835.12 1005.95,-830.01 995.51,-828.21 996.66,-835.12"/>
</g>
<!-- Node0x5638d1ab11e8&#45;&gt;Node0x5638d1ab2a48 -->
<g id="edge42" class="edge">
<title>Node0x5638d1ab11e8&#45;&gt;Node0x5638d1ab2a48</title>
<path fill="none" stroke="#7fb2ff" d="M1149.84,-957.24C1081.4,-969.15 983.79,-972.23 943,-906.23 934.18,-891.96 934.18,-618.51 943,-604.23 981.8,-541.46 1072,-541.18 1139.62,-551.55"/>
<polygon fill="#7fb2ff" stroke="#7fb2ff" points="1139.41,-555.07 1149.84,-553.23 1140.54,-548.16 1139.41,-555.07"/>
</g>
<!-- Node0x5638d1ab11e8&#45;&gt;Node0x5638d1ab0ba8 -->
<g id="edge36" class="edge">
<title>Node0x5638d1ab11e8&#45;&gt;Node0x5638d1ab0ba8</title>
<path fill="none" stroke="black" d="M1145.96,-957.29C1076.2,-968.47 978.24,-969.96 937,-903.23 913.4,-865.05 913.4,-537.42 937,-499.23 976.31,-435.63 1067.14,-434.01 1135.98,-443.68"/>
<polygon fill="black" stroke="black" points="1135.56,-447.15 1145.96,-445.18 1136.6,-440.23 1135.56,-447.15"/>
</g>
<!-- Node0x5638d1ab11e8&#45;&gt;Node0x5638d1ab31c8 -->
<g id="edge41" class="edge">
<title>Node0x5638d1ab11e8&#45;&gt;Node0x5638d1ab31c8</title>
<path fill="none" stroke="#7fb2ff" d="M1145.96,-957.29C1076.2,-968.47 978.24,-969.96 937,-903.23 916.55,-870.15 916.55,-586.32 937,-553.23 976.31,-489.63 1067.14,-488.01 1135.98,-497.68"/>
<polygon fill="#7fb2ff" stroke="#7fb2ff" points="1135.56,-501.15 1145.96,-499.18 1136.6,-494.23 1135.56,-501.15"/>
</g>
<!-- Node0x5638d1ab11e8&#45;&gt;Node0x5638d1ab8e48 -->
<g id="edge44" class="edge">
<title>Node0x5638d1ab11e8&#45;&gt;Node0x5638d1ab8e48</title>
<path fill="none" stroke="#7fb2ff" d="M1375.89,-921.18C1397.13,-916.14 1400.43,-911.11 1385.79,-906.07"/>
<polygon fill="#7fb2ff" stroke="#7fb2ff" points="1386.39,-902.6 1375.82,-903.27 1384.5,-909.34 1386.39,-902.6"/>
</g>
<!-- Node0x5638d1ab11e8&#45;&gt;Node0x5638d1ab5478 -->
<g id="edge46" class="edge">
<title>Node0x5638d1ab11e8&#45;&gt;Node0x5638d1ab5478</title>
<path fill="none" stroke="#7fb2ff" d="M1145.96,-921.18C1076.2,-910 978.24,-908.51 937,-975.23 920.99,-1001.13 920.99,-1223.34 937,-1249.23 976.31,-1312.84 1067.14,-1314.46 1135.98,-1304.79"/>
<polygon fill="#7fb2ff" stroke="#7fb2ff" points="1136.6,-1308.24 1145.96,-1303.29 1135.56,-1301.31 1136.6,-1308.24"/>
</g>
<!-- Node0x5638d1ab11e8&#45;&gt;Node0x5638d1ab5f68 -->
<g id="edge50" class="edge">
<title>Node0x5638d1ab11e8&#45;&gt;Node0x5638d1ab5f68</title>
<path fill="none" stroke="#7fb2ff" d="M1149.84,-921.23C1081.4,-909.31 983.79,-906.24 943,-972.23 930.09,-993.12 930.09,-1172.35 943,-1193.23 979.86,-1252.87 1062.83,-1257.77 1128.93,-1250.45"/>
<polygon fill="#7fb2ff" stroke="#7fb2ff" points="1129.47,-1253.91 1138.97,-1249.24 1128.62,-1246.96 1129.47,-1253.91"/>
</g>
<!-- Node0x5638d1ab11e8&#45;&gt;Node0x5638d1ab3128 -->
<g id="edge51" class="edge">
<title>Node0x5638d1ab11e8&#45;&gt;Node0x5638d1ab3128</title>
<path fill="none" stroke="#7fb2ff" d="M1145.96,-957.29C1076.2,-968.47 978.24,-969.96 937,-903.23 866.93,-789.85 1063.93,-689.8 1165.99,-647.14"/>
<polygon fill="#7fb2ff" stroke="#7fb2ff" points="1167.35,-650.36 1175.26,-643.31 1164.68,-643.89 1167.35,-650.36"/>
</g>
<!-- Node0x5638d1ab43e8 -->
<g id="node19" class="node">
<title>Node0x5638d1ab43e8</title>
<polygon fill="#7fb2ff" stroke="black" points="1999,-979.23 1531,-979.23 1531,-943.23 1999,-943.23 1999,-979.23"/>
<text text-anchor="middle" x="1765" y="-957.53" font-family="Times,serif" font-size="14.00">{lib/libLLVMDebugInfoDWARF.a(DWARFDebugAranges.cpp.o)}</text>
</g>
<!-- Node0x5638d1ab11e8&#45;&gt;Node0x5638d1ab43e8 -->
<g id="edge37" class="edge">
<title>Node0x5638d1ab11e8&#45;&gt;Node0x5638d1ab43e8</title>
<path fill="none" stroke="#7fb2ff" d="M1432.78,-941.15C1461.45,-942.17 1491.1,-943.33 1520.33,-944.59"/>
<polygon fill="#7fb2ff" stroke="#7fb2ff" points="1520.5,-948.1 1530.64,-945.03 1520.81,-941.1 1520.5,-948.1"/>
</g>
<!-- Node0x5638d1ab4618 -->
<g id="node20" class="node">
<title>Node0x5638d1ab4618</title>
<polygon fill="#7fb2ff" stroke="black" points="2524,-979.23 2039,-979.23 2039,-943.23 2524,-943.23 2524,-979.23"/>
<text text-anchor="middle" x="2281.5" y="-957.53" font-family="Times,serif" font-size="14.00">{lib/libLLVMDebugInfoDWARF.a(DWARFDebugArangeSet.cpp.o)}</text>
</g>
<!-- Node0x5638d1ab11e8&#45;&gt;Node0x5638d1ab4618 -->
<g id="edge38" class="edge">
<title>Node0x5638d1ab11e8&#45;&gt;Node0x5638d1ab4618</title>
<path fill="none" stroke="#7fb2ff" d="M1432.56,-942.18C1452.57,-946.01 1472.34,-950.96 1491,-957.23 1508.77,-963.22 1508.95,-974.16 1527,-979.23 1730.65,-1036.53 1791.69,-989.49 2003,-979.23 2011.43,-978.83 2019.99,-978.35 2028.64,-977.81"/>
<polygon fill="#7fb2ff" stroke="#7fb2ff" points="2029.07,-981.29 2038.82,-977.16 2028.62,-974.31 2029.07,-981.29"/>
</g>
<!-- Node0x5638d1ab3678 -->
<g id="node21" class="node">
<title>Node0x5638d1ab3678</title>
<polygon fill="#7fb2ff" stroke="black" points="1993,-849.23 1537,-849.23 1537,-813.23 1993,-813.23 1993,-849.23"/>
<text text-anchor="middle" x="1765" y="-827.53" font-family="Times,serif" font-size="14.00">{lib/libLLVMDebugInfoDWARF.a(DWARFDebugFrame.cpp.o)}</text>
</g>
<!-- Node0x5638d1ab11e8&#45;&gt;Node0x5638d1ab3678 -->
<g id="edge39" class="edge">
<title>Node0x5638d1ab11e8&#45;&gt;Node0x5638d1ab3678</title>
<path fill="none" stroke="#7fb2ff" d="M1432.74,-926.5C1453.19,-921.04 1473,-913.52 1491,-903.23 1514.47,-889.83 1503.76,-868.03 1527,-854.23 1527.3,-854.06 1527.6,-853.88 1527.91,-853.7"/>
<polygon fill="#7fb2ff" stroke="#7fb2ff" points="1529.76,-856.68 1536.83,-848.79 1526.38,-850.54 1529.76,-856.68"/>
</g>
<!-- Node0x5638d1ab2e58 -->
<g id="node22" class="node">
<title>Node0x5638d1ab2e58</title>
<polygon fill="#7fb2ff" stroke="black" points="1992.5,-741.23 1537.5,-741.23 1537.5,-705.23 1992.5,-705.23 1992.5,-741.23"/>
<text text-anchor="middle" x="1765" y="-719.53" font-family="Times,serif" font-size="14.00">{lib/libLLVMDebugInfoDWARF.a(DWARFDebugMacro.cpp.o)}</text>
</g>
<!-- Node0x5638d1ab11e8&#45;&gt;Node0x5638d1ab2e58 -->
<g id="edge40" class="edge">
<title>Node0x5638d1ab11e8&#45;&gt;Node0x5638d1ab2e58</title>
<path fill="none" stroke="#7fb2ff" d="M1432.59,-935.42C1454.03,-928.53 1474.11,-918.24 1491,-903.23 1546.14,-854.24 1472.18,-790.57 1527,-741.23 1571.23,-701.43 1640.46,-697.8 1692.7,-703.87"/>
<polygon fill="#7fb2ff" stroke="#7fb2ff" points="1692.54,-707.38 1702.91,-705.21 1693.45,-700.44 1692.54,-707.38"/>
</g>
<!-- Node0x5638d1ab7638 -->
<g id="node23" class="node">
<title>Node0x5638d1ab7638</title>
<polygon fill="#7fb2ff" stroke="black" points="2522.5,-429.23 2040.5,-429.23 2040.5,-393.23 2522.5,-393.23 2522.5,-429.23"/>
<text text-anchor="middle" x="2281.5" y="-407.53" font-family="Times,serif" font-size="14.00">{lib/libLLVMDebugInfoDWARF.a(DWARFAcceleratorTable.cpp.o)}</text>
</g>
<!-- Node0x5638d1ab11e8&#45;&gt;Node0x5638d1ab7638 -->
<g id="edge43" class="edge">
<title>Node0x5638d1ab11e8&#45;&gt;Node0x5638d1ab7638</title>
<path fill="none" stroke="#7fb2ff" d="M1432.79,-926.86C1452.7,-923.08 1472.39,-918.29 1491,-912.23 1508.62,-906.51 1509.3,-896.68 1527,-891.23 1577.67,-875.64 1964.68,-894.87 2003,-858.23 2053.77,-809.7 1999.88,-602.57 2039,-544.23 2077.29,-487.14 2148.63,-452.25 2203.89,-432.61"/>
<polygon fill="#7fb2ff" stroke="#7fb2ff" points="2205.35,-435.81 2213.66,-429.24 2203.06,-429.2 2205.35,-435.81"/>
</g>
<!-- Node0x5638d1ab8998 -->
<g id="node24" class="node">
<title>Node0x5638d1ab8998</title>
<polygon fill="#7fb2ff" stroke="black" points="1986.5,-687.23 1543.5,-687.23 1543.5,-651.23 1986.5,-651.23 1986.5,-687.23"/>
<text text-anchor="middle" x="1765" y="-665.53" font-family="Times,serif" font-size="14.00">{lib/libLLVMDebugInfoDWARF.a(DWARFDebugAddr.cpp.o)}</text>
</g>
<!-- Node0x5638d1ab11e8&#45;&gt;Node0x5638d1ab8998 -->
<g id="edge45" class="edge">
<title>Node0x5638d1ab11e8&#45;&gt;Node0x5638d1ab8998</title>
<path fill="none" stroke="#7fb2ff" d="M1432.73,-936.51C1454.29,-929.48 1474.35,-918.85 1491,-903.23 1562,-836.67 1456.43,-754.25 1527,-687.23 1571.29,-645.18 1643.22,-642.62 1696.23,-649.73"/>
<polygon fill="#7fb2ff" stroke="#7fb2ff" points="1695.83,-653.21 1706.24,-651.21 1696.86,-646.28 1695.83,-653.21"/>
</g>
<!-- Node0x5638d1ab5158 -->
<g id="node25" class="node">
<title>Node0x5638d1ab5158</title>
<polygon fill="#7fb2ff" stroke="black" points="2003,-795.23 1527,-795.23 1527,-759.23 2003,-759.23 2003,-795.23"/>
<text text-anchor="middle" x="1765" y="-773.53" font-family="Times,serif" font-size="14.00">{lib/libLLVMDebugInfoDWARF.a(DWARFDebugPubTable.cpp.o)}</text>
</g>
<!-- Node0x5638d1ab11e8&#45;&gt;Node0x5638d1ab5158 -->
<g id="edge47" class="edge">
<title>Node0x5638d1ab11e8&#45;&gt;Node0x5638d1ab5158</title>
<path fill="none" stroke="#7fb2ff" d="M1432.78,-933.15C1453.87,-926.59 1473.81,-916.99 1491,-903.23 1527.43,-874.08 1493.86,-833.95 1519.24,-802.89"/>
<polygon fill="#7fb2ff" stroke="#7fb2ff" points="1521.93,-805.15 1526.54,-795.61 1516.99,-800.19 1521.93,-805.15"/>
</g>
<!-- Node0x5638d1ab6be8 -->
<g id="node26" class="node">
<title>Node0x5638d1ab6be8</title>
<polygon fill="#7fb2ff" stroke="black" points="2497.5,-589.23 2065.5,-589.23 2065.5,-553.23 2497.5,-553.23 2497.5,-589.23"/>
<text text-anchor="middle" x="2281.5" y="-567.53" font-family="Times,serif" font-size="14.00">{lib/libLLVMDebugInfoDWARF.a(DWARFGdbIndex.cpp.o)}</text>
</g>
<!-- Node0x5638d1ab11e8&#45;&gt;Node0x5638d1ab6be8 -->
<g id="edge49" class="edge">
<title>Node0x5638d1ab11e8&#45;&gt;Node0x5638d1ab6be8</title>
<path fill="none" stroke="#7fb2ff" d="M1432.75,-934.67C1646.1,-928.68 1953.08,-915.9 2003,-891.23 2136.56,-825.23 2232.53,-663.28 2266.75,-598.58"/>
<polygon fill="#7fb2ff" stroke="#7fb2ff" points="2270.01,-599.9 2271.53,-589.41 2263.8,-596.66 2270.01,-599.9"/>
</g>
<!-- Node0x5638d1a9bcf8 -->
<g id="node27" class="node">
<title>Node0x5638d1a9bcf8</title>
<polygon fill="#7fb2ff" stroke="black" points="1972,-589.23 1558,-589.23 1558,-553.23 1972,-553.23 1972,-589.23"/>
<text text-anchor="middle" x="1765" y="-567.53" font-family="Times,serif" font-size="14.00">{lib/libLLVMDebugInfoDWARF.a(DWARFVerifier.cpp.o)}</text>
</g>
<!-- Node0x5638d1ab11e8&#45;&gt;Node0x5638d1a9bcf8 -->
<g id="edge53" class="edge">
<title>Node0x5638d1ab11e8&#45;&gt;Node0x5638d1a9bcf8</title>
<path fill="none" stroke="#7fb2ff" d="M1432.58,-937.26C1454.29,-930.13 1474.44,-919.28 1491,-903.23 1577.95,-819 1448.44,-725.35 1527,-633.23 1541.38,-616.37 1559.59,-603.42 1579.51,-593.57"/>
<polygon fill="#7fb2ff" stroke="#7fb2ff" points="1581.18,-596.65 1588.77,-589.25 1578.23,-590.3 1581.18,-596.65"/>
</g>
<!-- Node0x5638d1ab1648&#45;&gt;Node0x5638d1ab9ed8 -->
<g id="edge54" class="edge">
<title>Node0x5638d1ab1648&#45;&gt;Node0x5638d1ab9ed8</title>
<path fill="none" stroke="#7fb2ff" d="M1017.17,-813.2C848.16,-798.32 609.07,-777.27 437.36,-762.15"/>
<polygon fill="#7fb2ff" stroke="#7fb2ff" points="437.44,-758.65 427.18,-761.25 436.83,-765.62 437.44,-758.65"/>
</g>
<!-- Node0x5638d1ab1648&#45;&gt;Node0x5638d1ab6e68 -->
<g id="edge57" class="edge">
<title>Node0x5638d1ab1648&#45;&gt;Node0x5638d1ab6e68</title>
<path fill="none" stroke="#7fb2ff" d="M1189.64,-813.06C1135.1,-782.93 1020.82,-722.05 919,-682.23 874.55,-664.85 823.49,-649.45 781.86,-638"/>
<polygon fill="#7fb2ff" stroke="#7fb2ff" points="782.61,-634.58 772.04,-635.33 780.77,-641.33 782.61,-634.58"/>
</g>
<!-- Node0x5638d1ab1648&#45;&gt;Node0x5638d1ab2a98 -->
<g id="edge58" class="edge">
<title>Node0x5638d1ab1648&#45;&gt;Node0x5638d1ab2a98</title>
<path fill="none" stroke="#7fb2ff" d="M1122.77,-849.24C1072.5,-855.21 1010.5,-861.49 955,-867.23 939.32,-868.86 923.11,-870.55 906.8,-872.23"/>
<polygon fill="#7fb2ff" stroke="#7fb2ff" points="906.22,-868.77 896.63,-873.28 906.94,-875.73 906.22,-868.77"/>
</g>
<!-- Node0x5638d1ab1648&#45;&gt;Node0x5638d1aafa28 -->
<g id="edge56" class="edge">
<title>Node0x5638d1ab1648&#45;&gt;Node0x5638d1aafa28</title>
<path fill="none" stroke="#7fb2ff" d="M1133.73,-849.26C1065.22,-857.21 975.96,-853.28 937,-790.23 924.24,-769.58 924.24,-373.89 937,-353.23 951.17,-330.31 971.56,-313.68 995.04,-301.73"/>
<polygon fill="#7fb2ff" stroke="#7fb2ff" points="996.66,-304.83 1004.18,-297.37 993.65,-298.51 996.66,-304.83"/>
</g>
<!-- Node0x5638d1ab1648&#45;&gt;Node0x5638d1ab0ba8 -->
<g id="edge55" class="edge">
<title>Node0x5638d1ab1648&#45;&gt;Node0x5638d1ab0ba8</title>
<path fill="none" stroke="black" d="M1133.73,-849.26C1065.22,-857.21 975.96,-853.28 937,-790.23 920,-762.73 920,-526.74 937,-499.23 976.31,-435.63 1067.14,-434.01 1135.98,-443.68"/>
<polygon fill="black" stroke="black" points="1135.56,-447.15 1145.96,-445.18 1136.6,-440.23 1135.56,-447.15"/>
</g>
<!-- Node0x5638d1aafa28&#45;&gt;Node0x5638d1aba5b8 -->
<g id="edge59" class="edge">
<title>Node0x5638d1aafa28&#45;&gt;Node0x5638d1aba5b8</title>
<path fill="none" stroke="#7fb2ff" d="M990.9,-294.28C977.74,-301.01 965.58,-309.53 955,-320.23 902.68,-373.17 966.66,-596.07 919,-653.23 907.59,-666.92 893.44,-677.81 877.86,-686.4"/>
<polygon fill="#7fb2ff" stroke="#7fb2ff" points="875.82,-683.51 868.53,-691.2 879.02,-689.74 875.82,-683.51"/>
</g>
<!-- Node0x5638d1aafa28&#45;&gt;Node0x5638d1ab6e68 -->
<g id="edge60" class="edge">
<title>Node0x5638d1aafa28&#45;&gt;Node0x5638d1ab6e68</title>
<path fill="none" stroke="#7fb2ff" d="M990.88,-295.44C978.44,-299.83 966.38,-305.05 955,-311.23 833.01,-377.51 745.53,-528.03 713.46,-589.9"/>
<polygon fill="#7fb2ff" stroke="#7fb2ff" points="710.22,-588.54 708.79,-599.04 716.45,-591.73 710.22,-588.54"/>
</g>
<!-- Node0x5638d1ab2a48&#45;&gt;Node0x5638d1aba5b8 -->
<g id="edge61" class="edge">
<title>Node0x5638d1ab2a48&#45;&gt;Node0x5638d1aba5b8</title>
<path fill="none" stroke="#7fb2ff" d="M1002.87,-582.92C985.81,-588.86 969.58,-596.78 955,-607.23 923.64,-629.72 949.85,-663.06 919,-686.23 913.48,-690.38 907.65,-694.1 901.59,-697.44"/>
<polygon fill="#7fb2ff" stroke="#7fb2ff" points="899.87,-694.39 892.55,-702.05 903.05,-700.62 899.87,-694.39"/>
</g>
<!-- Node0x5638d1ab2a48&#45;&gt;Node0x5638d1ab6e68 -->
<g id="edge64" class="edge">
<title>Node0x5638d1ab2a48&#45;&gt;Node0x5638d1ab6e68</title>
<path fill="none" stroke="#7fb2ff" d="M1017.5,-589.26C983.69,-592.24 948.54,-595.33 914.49,-598.33"/>
<polygon fill="#7fb2ff" stroke="#7fb2ff" points="914.09,-594.85 904.44,-599.22 914.7,-601.83 914.09,-594.85"/>
</g>
<!-- Node0x5638d1ab2a48&#45;&gt;Node0x5638d1ab2a98 -->
<g id="edge65" class="edge">
<title>Node0x5638d1ab2a48&#45;&gt;Node0x5638d1ab2a98</title>
<path fill="none" stroke="#7fb2ff" d="M1002.75,-570.57C985.4,-577.12 969.15,-586.11 955,-598.23 906.86,-639.46 955.53,-684.44 919,-736.23 876.96,-795.85 802.93,-838.79 752.7,-862.84"/>
<polygon fill="#7fb2ff" stroke="#7fb2ff" points="751.17,-859.69 743.61,-867.11 754.15,-866.02 751.17,-859.69"/>
</g>
<!-- Node0x5638d1ab2a48&#45;&gt;Node0x5638d1ab11e8 -->
<g id="edge62" class="edge">
<title>Node0x5638d1ab2a48&#45;&gt;Node0x5638d1ab11e8</title>
<path fill="none" stroke="#7fb2ff" d="M1142.32,-553.22C1071.25,-542.73 972.74,-542.69 931,-610.23 922.53,-623.94 922.53,-886.53 931,-900.23 970.79,-964.61 1062.14,-967.6 1132.15,-958.65"/>
<polygon fill="#7fb2ff" stroke="#7fb2ff" points="1132.89,-962.08 1142.32,-957.25 1131.93,-955.15 1132.89,-962.08"/>
</g>
<!-- Node0x5638d1ab2a48&#45;&gt;Node0x5638d1ab0ba8 -->
<g id="edge63" class="edge">
<title>Node0x5638d1ab2a48&#45;&gt;Node0x5638d1ab0ba8</title>
<path fill="none" stroke="black" d="M1145.96,-589.29C1076.2,-600.47 978.24,-601.96 937,-535.23 913.98,-497.98 938.26,-477.58 980.82,-466.94"/>
<polygon fill="black" stroke="black" points="981.79,-470.31 990.77,-464.69 980.25,-463.48 981.79,-470.31"/>
</g>
<!-- Node0x5638d1ab31c8&#45;&gt;Node0x5638d1ab9ed8 -->
<g id="edge83" class="edge">
<title>Node0x5638d1ab31c8&#45;&gt;Node0x5638d1ab9ed8</title>
<path fill="none" stroke="#7fb2ff" d="M988.99,-523.94C976.91,-529.37 965.47,-536.06 955,-544.23 917.77,-573.31 956.44,-615.43 919,-644.23 841.21,-704.07 575.89,-666.62 479,-682.23 416.83,-692.26 347.4,-709.12 296.47,-722.58"/>
<polygon fill="#7fb2ff" stroke="#7fb2ff" points="295.3,-719.27 286.54,-725.23 297.1,-726.04 295.3,-719.27"/>
</g>
<!-- Node0x5638d1ab31c8&#45;&gt;Node0x5638d1ab6e68 -->
<g id="edge86" class="edge">
<title>Node0x5638d1ab31c8&#45;&gt;Node0x5638d1ab6e68</title>
<path fill="none" stroke="#7fb2ff" d="M1009.45,-535.26C990.97,-537.87 972.62,-540.85 955,-544.23 888.09,-557.09 813.34,-579.47 762.16,-596.07"/>
<polygon fill="#7fb2ff" stroke="#7fb2ff" points="760.99,-592.77 752.57,-599.21 763.16,-599.43 760.99,-592.77"/>
</g>
<!-- Node0x5638d1ab31c8&#45;&gt;Node0x5638d1ab2a98 -->
<g id="edge87" class="edge">
<title>Node0x5638d1ab31c8&#45;&gt;Node0x5638d1ab2a98</title>
<path fill="none" stroke="#7fb2ff" d="M988.9,-530.24C976.65,-536.29 965.21,-543.86 955,-553.23 891.07,-611.98 966.53,-672.58 919,-745.23 883.23,-799.91 819.7,-839.8 770.24,-862.93"/>
<polygon fill="#7fb2ff" stroke="#7fb2ff" points="768.52,-859.86 760.87,-867.19 771.42,-866.24 768.52,-859.86"/>
</g>
<!-- Node0x5638d1ab31c8&#45;&gt;Node0x5638d1aafa28 -->
<g id="edge85" class="edge">
<title>Node0x5638d1ab31c8&#45;&gt;Node0x5638d1aafa28</title>
<path fill="none" stroke="#7fb2ff" d="M1145.96,-535.29C1076.2,-546.47 978.24,-547.96 937,-481.23 922.05,-457.04 922.05,-377.43 937,-353.23 951.17,-330.31 971.56,-313.68 995.04,-301.73"/>
<polygon fill="#7fb2ff" stroke="#7fb2ff" points="996.66,-304.83 1004.18,-297.37 993.65,-298.51 996.66,-304.83"/>
</g>
<!-- Node0x5638d1ab31c8&#45;&gt;Node0x5638d1ab0ba8 -->
<g id="edge84" class="edge">
<title>Node0x5638d1ab31c8&#45;&gt;Node0x5638d1ab0ba8</title>
<path fill="none" stroke="black" d="M1223,-499.02C1223,-496.54 1223,-494.06 1223,-491.58"/>
<polygon fill="black" stroke="black" points="1226.5,-491.37 1223,-481.38 1219.5,-491.38 1226.5,-491.37"/>
</g>
<!-- Node0x5638d1ab8e48&#45;&gt;Node0x5638d1abb198 -->
<g id="edge93" class="edge">
<title>Node0x5638d1ab8e48&#45;&gt;Node0x5638d1abb198</title>
<path fill="none" stroke="#7fb2ff" d="M1145.96,-903.29C1076.2,-914.47 978.24,-915.96 937,-849.23 913.4,-811.05 913.4,-483.42 937,-445.23 951.17,-422.31 971.56,-405.68 995.04,-393.73"/>
<polygon fill="#7fb2ff" stroke="#7fb2ff" points="996.66,-396.83 1004.18,-389.37 993.65,-390.51 996.66,-396.83"/>
</g>
<!-- Node0x5638d1ab8e48&#45;&gt;Node0x5638d1ab11e8 -->
<g id="edge94" class="edge">
<title>Node0x5638d1ab8e48&#45;&gt;Node0x5638d1ab11e8</title>
<path fill="none" stroke="#7fb2ff" d="M1070.18,-903.27C1048.9,-908.31 1045.56,-913.35 1060.16,-918.38"/>
<polygon fill="#7fb2ff" stroke="#7fb2ff" points="1059.54,-921.84 1070.11,-921.18 1061.43,-915.11 1059.54,-921.84"/>
</g>
<!-- Node0x5638d1ab5478&#45;&gt;Node0x5638d1ab0ba8 -->
<g id="edge100" class="edge">
<title>Node0x5638d1ab5478&#45;&gt;Node0x5638d1ab0ba8</title>
<path fill="none" stroke="black" d="M1145.96,-1303.29C1076.2,-1314.47 978.24,-1315.96 937,-1249.23 915.09,-1213.79 915.09,-534.68 937,-499.23 976.31,-435.63 1067.14,-434.01 1135.98,-443.68"/>
<polygon fill="black" stroke="black" points="1135.56,-447.15 1145.96,-445.18 1136.6,-440.23 1135.56,-447.15"/>
</g>
<!-- Node0x5638d1ab5478&#45;&gt;Node0x5638d1ab31c8 -->
<g id="edge101" class="edge">
<title>Node0x5638d1ab5478&#45;&gt;Node0x5638d1ab31c8</title>
<path fill="none" stroke="#7fb2ff" d="M1145.96,-1303.29C1076.2,-1314.47 978.24,-1315.96 937,-1249.23 916.67,-1216.34 916.67,-586.13 937,-553.23 976.31,-489.63 1067.14,-488.01 1135.98,-497.68"/>
<polygon fill="#7fb2ff" stroke="#7fb2ff" points="1135.56,-501.15 1145.96,-499.18 1136.6,-494.23 1135.56,-501.15"/>
</g>
<!-- Node0x5638d1ab5f68&#45;&gt;Node0x5638d1ab11e8 -->
<g id="edge107" class="edge">
<title>Node0x5638d1ab5f68&#45;&gt;Node0x5638d1ab11e8</title>
<path fill="none" stroke="#7fb2ff" d="M1127.96,-1249.26C1058.57,-1256.19 970.08,-1250.47 931,-1187.23 918.79,-1167.48 918.79,-997.99 931,-978.23 970.79,-913.86 1062.14,-910.87 1132.15,-919.82"/>
<polygon fill="#7fb2ff" stroke="#7fb2ff" points="1131.93,-923.32 1142.32,-921.22 1132.89,-916.39 1131.93,-923.32"/>
</g>
<!-- Node0x5638d1ab5f68&#45;&gt;Node0x5638d1ab0ba8 -->
<g id="edge108" class="edge">
<title>Node0x5638d1ab5f68&#45;&gt;Node0x5638d1ab0ba8</title>
<path fill="none" stroke="black" d="M1133.73,-1249.26C1065.22,-1257.21 975.96,-1253.28 937,-1190.23 916.82,-1157.58 916.82,-531.89 937,-499.23 976.31,-435.63 1067.14,-434.01 1135.98,-443.68"/>
<polygon fill="black" stroke="black" points="1135.56,-447.15 1145.96,-445.18 1136.6,-440.23 1135.56,-447.15"/>
</g>
<!-- Node0x5638d1ab5f68&#45;&gt;Node0x5638d1ab3678 -->
<g id="edge109" class="edge">
<title>Node0x5638d1ab5f68&#45;&gt;Node0x5638d1ab3678</title>
<path fill="none" stroke="#7fb2ff" d="M1437.01,-1232.5C1457.07,-1225.1 1475.61,-1214.38 1491,-1199.23 1575.71,-1115.85 1455.26,-1029.01 1527,-934.23 1558.79,-892.23 1611.27,-867.09 1658.78,-852.18"/>
<polygon fill="#7fb2ff" stroke="#7fb2ff" points="1659.96,-855.48 1668.52,-849.24 1657.94,-848.78 1659.96,-855.48"/>
</g>
<!-- Node0x5638d1ab3128&#45;&gt;Node0x5638d1ab6e68 -->
<g id="edge111" class="edge">
<title>Node0x5638d1ab3128&#45;&gt;Node0x5638d1ab6e68</title>
<path fill="none" stroke="#7fb2ff" d="M1005.96,-621.92C980.64,-621.54 954.73,-621.14 929.24,-620.75"/>
<polygon fill="#7fb2ff" stroke="#7fb2ff" points="929.16,-617.25 919.11,-620.59 929.05,-624.25 929.16,-617.25"/>
</g>
<!-- Node0x5638d1ab3128&#45;&gt;Node0x5638d1ab31c8 -->
<g id="edge110" class="edge">
<title>Node0x5638d1ab3128&#45;&gt;Node0x5638d1ab31c8</title>
<path fill="none" stroke="#7fb2ff" d="M1145.96,-643.29C1076.2,-654.47 978.24,-655.96 937,-589.23 914.34,-552.56 937.51,-532.23 978.83,-521.45"/>
<polygon fill="#7fb2ff" stroke="#7fb2ff" points="979.87,-524.8 988.8,-519.1 978.27,-517.98 979.87,-524.8"/>
</g>
<!-- Node0x5638d1ab3128&#45;&gt;Node0x5638d1ab6be8 -->
<g id="edge112" class="edge">
<title>Node0x5638d1ab3128&#45;&gt;Node0x5638d1ab6be8</title>
<path fill="none" stroke="#7fb2ff" d="M1440.35,-621.35C1596.78,-617.66 1813.11,-610.75 2003,-598.23 2035.17,-596.11 2069.39,-593.27 2102.41,-590.22"/>
<polygon fill="#7fb2ff" stroke="#7fb2ff" points="2102.98,-593.68 2112.61,-589.27 2102.33,-586.71 2102.98,-593.68"/>
</g>
<!-- Node0x5638d1a9e2c8&#45;&gt;Node0x5638d1ab6e68 -->
<g id="edge130" class="edge">
<title>Node0x5638d1a9e2c8&#45;&gt;Node0x5638d1ab6e68</title>
<path fill="none" stroke="#7fb2ff" d="M984.91,-988.15C974.08,-982.25 964.01,-975.02 955,-966.23 863.9,-877.41 1001.37,-779.2 919,-682.23 902.28,-662.55 879.9,-648.68 855.82,-638.93"/>
<polygon fill="#7fb2ff" stroke="#7fb2ff" points="856.74,-635.54 846.15,-635.26 854.26,-642.08 856.74,-635.54"/>
</g>
<!-- Node0x5638d1a9e2c8&#45;&gt;Node0x5638d1ab2a98 -->
<g id="edge131" class="edge">
<title>Node0x5638d1a9e2c8&#45;&gt;Node0x5638d1ab2a98</title>
<path fill="none" stroke="#7fb2ff" d="M984.67,-980.82C974.62,-979.1 964.69,-977.24 955,-975.23 877.6,-959.21 790.44,-928.7 740.68,-907.4"/>
<polygon fill="#7fb2ff" stroke="#7fb2ff" points="741.81,-904.07 731.24,-903.27 739,-910.49 741.81,-904.07"/>
</g>
<!-- Node0x5638d1a9e2c8&#45;&gt;Node0x5638d1abb198 -->
<g id="edge128" class="edge">
<title>Node0x5638d1a9e2c8&#45;&gt;Node0x5638d1abb198</title>
<path fill="none" stroke="#7fb2ff" d="M1145.96,-1011.29C1076.2,-1022.47 978.24,-1023.96 937,-957.23 922.05,-933.04 922.05,-469.43 937,-445.23 951.17,-422.31 971.56,-405.68 995.04,-393.73"/>
<polygon fill="#7fb2ff" stroke="#7fb2ff" points="996.66,-396.83 1004.18,-389.37 993.65,-390.51 996.66,-396.83"/>
</g>
<!-- Node0x5638d1a9e2c8&#45;&gt;Node0x5638d1ab8e48 -->
<g id="edge129" class="edge">
<title>Node0x5638d1a9e2c8&#45;&gt;Node0x5638d1ab8e48</title>
<path fill="none" stroke="#7fb2ff" d="M1145.96,-1011.29C1076.2,-1022.47 978.24,-1023.96 937,-957.23 913.38,-919.01 939.56,-898.53 984.18,-888.13"/>
<polygon fill="#7fb2ff" stroke="#7fb2ff" points="984.91,-891.55 993.97,-886.06 983.46,-884.7 984.91,-891.55"/>
</g>
<!-- Node0x5638d1a9d5f8&#45;&gt;Node0x5638d1aba5b8 -->
<g id="edge132" class="edge">
<title>Node0x5638d1a9d5f8&#45;&gt;Node0x5638d1aba5b8</title>
<path fill="none" stroke="#7fb2ff" d="M1008.46,-1050.71C988.88,-1043.91 970.59,-1034.08 955,-1020.23 899.86,-971.24 960.4,-919.27 919,-858.23 878.17,-798.04 804.2,-755.36 753.63,-731.52"/>
<polygon fill="#7fb2ff" stroke="#7fb2ff" points="755.01,-728.3 744.47,-727.28 752.08,-734.66 755.01,-728.3"/>
</g>
<!-- Node0x5638d1a9d5f8&#45;&gt;Node0x5638d1ab2a98 -->
<g id="edge134" class="edge">
<title>Node0x5638d1a9d5f8&#45;&gt;Node0x5638d1ab2a98</title>
<path fill="none" stroke="#7fb2ff" d="M1008.48,-1042.1C990.21,-1038.67 972.17,-1034.43 955,-1029.23 865.82,-1002.25 771.61,-943.2 726.76,-909.48"/>
<polygon fill="#7fb2ff" stroke="#7fb2ff" points="728.78,-906.62 718.72,-903.3 724.51,-912.17 728.78,-906.62"/>
</g>
<!-- Node0x5638d1a9d5f8&#45;&gt;Node0x5638d1ab11e8 -->
<g id="edge133" class="edge">
<title>Node0x5638d1a9d5f8&#45;&gt;Node0x5638d1ab11e8</title>
<path fill="none" stroke="#7fb2ff" d="M1145.96,-1065.29C1076.2,-1076.47 978.24,-1077.96 937,-1011.23 910.21,-967.89 947.48,-947.36 1003.04,-938.46"/>
<polygon fill="#7fb2ff" stroke="#7fb2ff" points="1003.84,-941.88 1013.24,-936.99 1002.84,-934.96 1003.84,-941.88"/>
</g>
<!-- Node0x5638d1a9c3d8&#45;&gt;Node0x5638d1aba5b8 -->
<g id="edge135" class="edge">
<title>Node0x5638d1a9c3d8&#45;&gt;Node0x5638d1aba5b8</title>
<path fill="none" stroke="#7fb2ff" d="M996.46,-1101.1C981.31,-1094.49 967.24,-1085.71 955,-1074.23 884,-1007.67 971.46,-940.21 919,-858.23 880.03,-797.34 806.33,-755.04 755.25,-731.47"/>
<polygon fill="#7fb2ff" stroke="#7fb2ff" points="756.55,-728.21 745.99,-727.28 753.67,-734.59 756.55,-728.21"/>
</g>
<!-- Node0x5638d1a9c3d8&#45;&gt;Node0x5638d1ab2a98 -->
<g id="edge137" class="edge">
<title>Node0x5638d1a9c3d8&#45;&gt;Node0x5638d1ab2a98</title>
<path fill="none" stroke="#7fb2ff" d="M996.31,-1096.22C982.14,-1092.65 968.25,-1088.36 955,-1083.23 855.1,-1044.57 759.88,-955.64 719.84,-911.14"/>
<polygon fill="#7fb2ff" stroke="#7fb2ff" points="722.24,-908.57 713.01,-903.37 716.98,-913.19 722.24,-908.57"/>
</g>
<!-- Node0x5638d1a9c3d8&#45;&gt;Node0x5638d1ab11e8 -->
<g id="edge136" class="edge">
<title>Node0x5638d1a9c3d8&#45;&gt;Node0x5638d1ab11e8</title>
<path fill="none" stroke="#7fb2ff" d="M996.33,-1084.32C982.24,-1081.44 968.36,-1078.11 955,-1074.23 946.41,-1071.75 941.7,-1072.84 937,-1065.23 915.97,-1031.21 915.97,-1009.26 937,-975.23 976.31,-911.63 1067.14,-910.01 1135.98,-919.68"/>
<polygon fill="#7fb2ff" stroke="#7fb2ff" points="1135.56,-923.15 1145.96,-921.18 1136.6,-916.23 1135.56,-923.15"/>
</g>
<!-- Node0x5638d1ab43e8&#45;&gt;Node0x5638d1aba5b8 -->
<g id="edge66" class="edge">
<title>Node0x5638d1ab43e8&#45;&gt;Node0x5638d1aba5b8</title>
<path fill="none" stroke="#7fb2ff" d="M1696.33,-943.22C1645.59,-927.18 1576.65,-899.75 1527,-858.23 1504.87,-839.73 1515.93,-818.74 1491,-804.23 1387.78,-744.2 1073.15,-783.53 955,-766.23 894.83,-757.43 827.74,-742.21 777.49,-729.72"/>
<polygon fill="#7fb2ff" stroke="#7fb2ff" points="778.22,-726.29 767.67,-727.26 776.52,-733.08 778.22,-726.29"/>
</g>
<!-- Node0x5638d1ab43e8&#45;&gt;Node0x5638d1ab2a98 -->
<g id="edge69" class="edge">
<title>Node0x5638d1ab43e8&#45;&gt;Node0x5638d1ab2a98</title>
<path fill="none" stroke="#7fb2ff" d="M1756.89,-979.32C1731.74,-1040.38 1640.45,-1239.14 1491,-1312.23 1277,-1416.9 1162.18,-1429.82 955,-1312.23 797.61,-1222.91 727.01,-993.63 706.59,-913.44"/>
<polygon fill="#7fb2ff" stroke="#7fb2ff" points="709.94,-912.43 704.13,-903.57 703.15,-914.11 709.94,-912.43"/>
</g>
<!-- Node0x5638d1ab43e8&#45;&gt;Node0x5638d1ab11e8 -->
<g id="edge67" class="edge">
<title>Node0x5638d1ab43e8&#45;&gt;Node0x5638d1ab11e8</title>
<path fill="none" stroke="#7fb2ff" d="M1530.64,-958.42C1501.53,-957.32 1471.84,-956.1 1442.96,-954.8"/>
<polygon fill="#7fb2ff" stroke="#7fb2ff" points="1442.93,-951.29 1432.78,-954.33 1442.61,-958.28 1442.93,-951.29"/>
</g>
<!-- Node0x5638d1ab43e8&#45;&gt;Node0x5638d1ab4618 -->
<g id="edge68" class="edge">
<title>Node0x5638d1ab43e8&#45;&gt;Node0x5638d1ab4618</title>
<path fill="none" stroke="#7fb2ff" d="M1999.16,-961.23C2008.93,-961.23 2018.75,-961.23 2028.55,-961.23"/>
<polygon fill="#7fb2ff" stroke="#7fb2ff" points="2028.76,-964.73 2038.76,-961.23 2028.76,-957.73 2028.76,-964.73"/>
</g>
<!-- Node0x5638d1ab4618&#45;&gt;Node0x5638d1ab6e68 -->
<g id="edge72" class="edge">
<title>Node0x5638d1ab4618&#45;&gt;Node0x5638d1ab6e68</title>
<path fill="none" stroke="#7fb2ff" d="M2264.67,-943.03C2221.4,-892.26 2100.27,-743.27 2039,-598.23 2009.45,-528.29 2049.49,-491.26 2003,-431.23 1847.1,-229.93 1738.76,-232.93 1491,-174.23 1259.19,-119.32 1161.23,-54.99 955,-174.23 793.09,-267.86 724.94,-507.59 705.91,-589.39"/>
<polygon fill="#7fb2ff" stroke="#7fb2ff" points="702.48,-588.69 703.68,-599.21 709.3,-590.23 702.48,-588.69"/>
</g>
<!-- Node0x5638d1ab4618&#45;&gt;Node0x5638d1ab11e8 -->
<g id="edge70" class="edge">
<title>Node0x5638d1ab4618&#45;&gt;Node0x5638d1ab11e8</title>
<path fill="none" stroke="#7fb2ff" d="M2196.25,-979.27C2141.33,-986.79 2068.03,-994.08 2003,-997.23 1791.69,-1007.49 1730.65,-1054.53 1527,-997.23 1508.95,-992.16 1508.77,-981.22 1491,-975.23 1470.61,-968.37 1448.89,-963.11 1426.98,-959.03"/>
<polygon fill="#7fb2ff" stroke="#7fb2ff" points="1427.36,-955.55 1416.9,-957.24 1426.14,-962.44 1427.36,-955.55"/>
</g>
<!-- Node0x5638d1ab4618&#45;&gt;Node0x5638d1ab0ba8 -->
<g id="edge71" class="edge">
<title>Node0x5638d1ab4618&#45;&gt;Node0x5638d1ab0ba8</title>
<path fill="none" stroke="black" d="M2268.4,-943.05C2214.99,-862.79 2003,-544.23 2003,-544.23 1804.47,-424.05 1524.4,-428.12 1359.76,-444.18"/>
<polygon fill="black" stroke="black" points="1359.17,-440.72 1349.57,-445.2 1359.87,-447.69 1359.17,-440.72"/>
</g>
<!-- Node0x5638d1ab3678&#45;&gt;Node0x5638d1ab9ed8 -->
<g id="edge73" class="edge">
<title>Node0x5638d1ab3678&#45;&gt;Node0x5638d1ab9ed8</title>
<path fill="none" stroke="#7fb2ff" d="M1666.01,-849.24C1616.31,-863.64 1559.68,-889.21 1527,-934.23 1477.43,-1002.52 1553.43,-1255.47 1491,-1312.23 1314.75,-1472.5 1180.35,-1389.48 955,-1312.23 622.33,-1198.21 324.18,-864.65 243.75,-769.09"/>
<polygon fill="#7fb2ff" stroke="#7fb2ff" points="246.38,-766.78 237.28,-761.35 241.01,-771.27 246.38,-766.78"/>
</g>
<!-- Node0x5638d1ab3678&#45;&gt;Node0x5638d1aba5b8 -->
<g id="edge74" class="edge">
<title>Node0x5638d1ab3678&#45;&gt;Node0x5638d1aba5b8</title>
<path fill="none" stroke="#7fb2ff" d="M1549.43,-813.15C1541.76,-810.5 1534.25,-807.54 1527,-804.23 1507.25,-795.23 1510.94,-779.81 1491,-771.23 1381.31,-724.04 1074.01,-743.05 955,-733.23 935.95,-731.66 916.11,-729.94 896.28,-728.17"/>
<polygon fill="#7fb2ff" stroke="#7fb2ff" points="896.5,-724.67 886.23,-727.26 895.87,-731.65 896.5,-724.67"/>
</g>
<!-- Node0x5638d1ab3678&#45;&gt;Node0x5638d1ab11e8 -->
<g id="edge75" class="edge">
<title>Node0x5638d1ab3678&#45;&gt;Node0x5638d1ab11e8</title>
<path fill="none" stroke="#7fb2ff" d="M1582.2,-849.25C1562.78,-854.74 1543.96,-862.17 1527,-872.23 1503.76,-886.03 1514.47,-907.83 1491,-921.23 1475.95,-929.83 1459.64,-936.5 1442.75,-941.59"/>
<polygon fill="#7fb2ff" stroke="#7fb2ff" points="1441.41,-938.33 1432.74,-944.41 1443.31,-945.07 1441.41,-938.33"/>
</g>
<!-- Node0x5638d1ab3678&#45;&gt;Node0x5638d1ab1648 -->
<g id="edge76" class="edge">
<title>Node0x5638d1ab3678&#45;&gt;Node0x5638d1ab1648</title>
<path fill="none" stroke="#7fb2ff" d="M1536.96,-831.23C1508.27,-831.23 1478.92,-831.23 1450.25,-831.23"/>
<polygon fill="#7fb2ff" stroke="#7fb2ff" points="1450.14,-827.73 1440.14,-831.23 1450.14,-834.73 1450.14,-827.73"/>
</g>
<!-- Node0x5638d1ab3678&#45;&gt;Node0x5638d1ab0ba8 -->
<g id="edge77" class="edge">
<title>Node0x5638d1ab3678&#45;&gt;Node0x5638d1ab0ba8</title>
<path fill="none" stroke="black" d="M1537.13,-813.23C1533.61,-810.45 1530.22,-807.45 1527,-804.23 1427.64,-704.94 1590.99,-588.9 1491,-490.23 1482.87,-482.22 1473.86,-475.49 1464.2,-469.87"/>
<polygon fill="black" stroke="black" points="1465.62,-466.66 1455.15,-465.02 1462.31,-472.83 1465.62,-466.66"/>
</g>
<!-- Node0x5638d1ab2e58&#45;&gt;Node0x5638d1aba5b8 -->
<g id="edge78" class="edge">
<title>Node0x5638d1ab2e58&#45;&gt;Node0x5638d1aba5b8</title>
<path fill="none" stroke="#7fb2ff" d="M1615.44,-705.21C1575.13,-701.08 1531.44,-697.3 1491,-695.23 1253.09,-683.07 1193.13,-688.7 955,-695.23 938.14,-695.7 920.67,-696.33 903.12,-697.08"/>
<polygon fill="#7fb2ff" stroke="#7fb2ff" points="902.63,-693.59 892.79,-697.53 902.94,-700.59 902.63,-693.59"/>
</g>
<!-- Node0x5638d1ab2e58&#45;&gt;Node0x5638d1ab6e68 -->
<g id="edge81" class="edge">
<title>Node0x5638d1ab2e58&#45;&gt;Node0x5638d1ab6e68</title>
<path fill="none" stroke="#7fb2ff" d="M1537.46,-705.76C1533.81,-702.83 1530.31,-699.66 1527,-696.23 1458.15,-625.11 1563.77,-319.34 1491,-252.23 1447.22,-211.86 1007.81,-224.71 955,-252.23 813.88,-325.79 734.82,-517.1 709.27,-589.19"/>
<polygon fill="#7fb2ff" stroke="#7fb2ff" points="705.86,-588.34 705.89,-598.94 712.47,-590.64 705.86,-588.34"/>
</g>
<!-- Node0x5638d1ab2e58&#45;&gt;Node0x5638d1ab2a98 -->
<g id="edge82" class="edge">
<title>Node0x5638d1ab2e58&#45;&gt;Node0x5638d1ab2a98</title>
<path fill="none" stroke="#7fb2ff" d="M1537.49,-740.74C1533.83,-743.66 1530.32,-746.82 1527,-750.23 1463.02,-815.9 1558.6,-1099.3 1491,-1161.23 1447.09,-1201.47 1009.56,-1185.11 955,-1161.23 836.11,-1109.21 748.02,-971.39 714.64,-912.52"/>
<polygon fill="#7fb2ff" stroke="#7fb2ff" points="717.51,-910.47 709.58,-903.45 711.4,-913.88 717.51,-910.47"/>
</g>
<!-- Node0x5638d1ab2e58&#45;&gt;Node0x5638d1ab11e8 -->
<g id="edge79" class="edge">
<title>Node0x5638d1ab2e58&#45;&gt;Node0x5638d1ab11e8</title>
<path fill="none" stroke="#7fb2ff" d="M1552.68,-741.29C1543.49,-746.25 1534.85,-752.17 1527,-759.23 1472.18,-808.57 1546.14,-872.24 1491,-921.23 1436.51,-969.65 1348.9,-968.97 1289.01,-959.07"/>
<polygon fill="#7fb2ff" stroke="#7fb2ff" points="1289.36,-955.58 1278.9,-957.27 1288.13,-962.47 1289.36,-955.58"/>
</g>
<!-- Node0x5638d1ab2e58&#45;&gt;Node0x5638d1ab0ba8 -->
<g id="edge80" class="edge">
<title>Node0x5638d1ab2e58&#45;&gt;Node0x5638d1ab0ba8</title>
<path fill="none" stroke="black" d="M1537.39,-704.96C1533.78,-702.26 1530.32,-699.36 1527,-696.23 1459.35,-632.5 1559.05,-553.54 1491,-490.23 1482.77,-482.58 1473.73,-476.13 1464.09,-470.72"/>
<polygon fill="black" stroke="black" points="1465.56,-467.55 1455.08,-466.05 1462.34,-473.76 1465.56,-467.55"/>
</g>
<!-- Node0x5638d1ab7638&#45;&gt;Node0x5638d1aba5b8 -->
<g id="edge88" class="edge">
<title>Node0x5638d1ab7638&#45;&gt;Node0x5638d1aba5b8</title>
<path fill="none" stroke="#7fb2ff" d="M2151.15,-393.2C2104.53,-387.16 2051.47,-380.8 2003,-376.23 1887.01,-365.31 1042.15,-266.92 955,-344.23 854.54,-433.36 1005.6,-541.6 919,-644.23 902.4,-663.9 880.15,-677.78 856.18,-687.53"/>
<polygon fill="#7fb2ff" stroke="#7fb2ff" points="854.65,-684.37 846.55,-691.2 857.14,-690.91 854.65,-684.37"/>
</g>
<!-- Node0x5638d1ab7638&#45;&gt;Node0x5638d1ab6e68 -->
<g id="edge92" class="edge">
<title>Node0x5638d1ab7638&#45;&gt;Node0x5638d1ab6e68</title>
<path fill="none" stroke="#7fb2ff" d="M2271.25,-393.08C2241.56,-337.06 2142.33,-166.97 2003,-105.23 1790.08,-10.89 1153.01,17.36 955,-105.23 774.48,-217 717.62,-499.22 703.79,-589.2"/>
<polygon fill="#7fb2ff" stroke="#7fb2ff" points="700.31,-588.8 702.31,-599.2 707.23,-589.82 700.31,-588.8"/>
</g>
<!-- Node0x5638d1ab7638&#45;&gt;Node0x5638d1abb198 -->
<g id="edge89" class="edge">
<title>Node0x5638d1ab7638&#45;&gt;Node0x5638d1abb198</title>
<path fill="none" stroke="#7fb2ff" d="M2040.23,-398.86C2027.64,-398.29 2015.17,-397.74 2003,-397.23 1836.64,-390.26 1650.23,-383.99 1501.48,-379.35"/>
<polygon fill="#7fb2ff" stroke="#7fb2ff" points="1501.39,-375.84 1491.29,-379.03 1501.17,-382.84 1501.39,-375.84"/>
</g>
<!-- Node0x5638d1ab7638&#45;&gt;Node0x5638d1ab0ba8 -->
<g id="edge90" class="edge">
<title>Node0x5638d1ab7638&#45;&gt;Node0x5638d1ab0ba8</title>
<path fill="none" stroke="black" d="M2040.24,-415.2C1892.16,-418.55 1698.45,-424.59 1527,-435.23 1489,-437.59 1448.39,-440.84 1409.65,-444.29"/>
<polygon fill="black" stroke="black" points="1408.95,-440.84 1399.31,-445.22 1409.58,-447.81 1408.95,-440.84"/>
</g>
<!-- Node0x5638d1ab7638&#45;&gt;Node0x5638d1ab31c8 -->
<g id="edge91" class="edge">
<title>Node0x5638d1ab7638&#45;&gt;Node0x5638d1ab31c8</title>
<path fill="none" stroke="#7fb2ff" d="M2102.11,-429.25C2069.16,-432.58 2035.04,-436.01 2003,-439.23 1802.19,-459.42 1572.24,-482.43 1414.52,-498.2"/>
<polygon fill="#7fb2ff" stroke="#7fb2ff" points="1413.84,-494.75 1404.24,-499.23 1414.54,-501.71 1413.84,-494.75"/>
</g>
<!-- Node0x5638d1ab8998&#45;&gt;Node0x5638d1ab11e8 -->
<g id="edge95" class="edge">
<title>Node0x5638d1ab8998&#45;&gt;Node0x5638d1ab11e8</title>
<path fill="none" stroke="#7fb2ff" d="M1551.41,-687.24C1542.64,-692.23 1534.43,-698.18 1527,-705.23 1456.43,-772.25 1562,-854.67 1491,-921.23 1436.94,-971.92 1347,-970.05 1286.62,-959.2"/>
<polygon fill="#7fb2ff" stroke="#7fb2ff" points="1286.93,-955.7 1276.45,-957.24 1285.6,-962.57 1286.93,-955.7"/>
</g>
<!-- Node0x5638d1ab8998&#45;&gt;Node0x5638d1ab2a48 -->
<g id="edge99" class="edge">
<title>Node0x5638d1ab8998&#45;&gt;Node0x5638d1ab2a48</title>
<path fill="none" stroke="#7fb2ff" d="M1705.47,-651.22C1650.58,-634.99 1565.95,-611.69 1491,-598.23 1475.43,-595.44 1459.29,-592.91 1443.01,-590.63"/>
<polygon fill="#7fb2ff" stroke="#7fb2ff" points="1443.25,-587.13 1432.86,-589.24 1442.3,-594.06 1443.25,-587.13"/>
</g>
<!-- Node0x5638d1ab8998&#45;&gt;Node0x5638d1ab0ba8 -->
<g id="edge96" class="edge">
<title>Node0x5638d1ab8998&#45;&gt;Node0x5638d1ab0ba8</title>
<path fill="none" stroke="black" d="M1625.28,-651.18C1589.58,-640.69 1553.75,-624.17 1527,-598.23 1490.68,-563.01 1530.5,-521.85 1491,-490.23 1482.66,-483.56 1473.67,-477.87 1464.22,-473.03"/>
<polygon fill="black" stroke="black" points="1465.56,-469.79 1455.03,-468.65 1462.55,-476.11 1465.56,-469.79"/>
</g>
<!-- Node0x5638d1ab8998&#45;&gt;Node0x5638d1ab31c8 -->
<g id="edge98" class="edge">
<title>Node0x5638d1ab8998&#45;&gt;Node0x5638d1ab31c8</title>
<path fill="none" stroke="#7fb2ff" d="M1647.52,-651.2C1606.56,-640.69 1562.05,-624.16 1527,-598.23 1503.81,-581.08 1515.71,-559.11 1491,-544.23 1483.16,-539.51 1474.95,-535.36 1466.47,-531.71"/>
<polygon fill="#7fb2ff" stroke="#7fb2ff" points="1467.76,-528.46 1457.17,-527.95 1465.13,-534.95 1467.76,-528.46"/>
</g>
<!-- Node0x5638d1ab8998&#45;&gt;Node0x5638d1ab4618 -->
<g id="edge97" class="edge">
<title>Node0x5638d1ab8998&#45;&gt;Node0x5638d1ab4618</title>
<path fill="none" stroke="#7fb2ff" d="M1981.25,-687.34C1988.69,-689.99 1995.97,-692.94 2003,-696.23 2122.11,-752.01 2222.56,-879.38 2262.28,-934.73"/>
<polygon fill="#7fb2ff" stroke="#7fb2ff" points="2259.49,-936.84 2268.13,-942.98 2265.2,-932.79 2259.49,-936.84"/>
</g>
<!-- Node0x5638d1ab5158&#45;&gt;Node0x5638d1aba5b8 -->
<g id="edge102" class="edge">
<title>Node0x5638d1ab5158&#45;&gt;Node0x5638d1aba5b8</title>
<path fill="none" stroke="#7fb2ff" d="M1563.94,-759.21C1551.35,-756.61 1538.95,-753.64 1527,-750.23 1509.98,-745.39 1508.2,-737.37 1491,-733.23 1383.74,-707.47 1099.8,-704.58 903.04,-706.01"/>
<polygon fill="#7fb2ff" stroke="#7fb2ff" points="902.83,-702.51 892.86,-706.09 902.89,-709.51 902.83,-702.51"/>
</g>
<!-- Node0x5638d1ab5158&#45;&gt;Node0x5638d1ab11e8 -->
<g id="edge103" class="edge">
<title>Node0x5638d1ab5158&#45;&gt;Node0x5638d1ab11e8</title>
<path fill="none" stroke="#7fb2ff" d="M1555.48,-795.35C1545.35,-800.23 1535.77,-806.13 1527,-813.23 1487.7,-845.1 1530.5,-889.62 1491,-921.23 1436.24,-965.06 1353.55,-966.68 1294.72,-958.74"/>
<polygon fill="#7fb2ff" stroke="#7fb2ff" points="1295.16,-955.27 1284.76,-957.28 1294.14,-962.2 1295.16,-955.27"/>
</g>
<!-- Node0x5638d1ab5158&#45;&gt;Node0x5638d1ab0ba8 -->
<g id="edge104" class="edge">
<title>Node0x5638d1ab5158&#45;&gt;Node0x5638d1ab0ba8</title>
<path fill="none" stroke="black" d="M1537.23,-759.12C1533.68,-756.37 1530.26,-753.42 1527,-750.23 1443.52,-668.75 1574.99,-571.19 1491,-490.23 1482.85,-482.37 1473.83,-475.76 1464.2,-470.24"/>
<polygon fill="black" stroke="black" points="1465.66,-467.05 1455.18,-465.46 1462.38,-473.23 1465.66,-467.05"/>
</g>
<!-- Node0x5638d1ab6be8&#45;&gt;Node0x5638d1ab6e68 -->
<g id="edge106" class="edge">
<title>Node0x5638d1ab6be8&#45;&gt;Node0x5638d1ab6e68</title>
<path fill="none" stroke="#7fb2ff" d="M2244.59,-553.09C2191.71,-526.37 2089.76,-474.9 2003,-431.23 1775.56,-316.78 1738.76,-232.93 1491,-174.23 1259.19,-119.32 1161.23,-54.99 955,-174.23 793.09,-267.86 724.94,-507.59 705.91,-589.39"/>
<polygon fill="#7fb2ff" stroke="#7fb2ff" points="702.48,-588.69 703.68,-599.21 709.3,-590.23 702.48,-588.69"/>
</g>
<!-- Node0x5638d1ab6be8&#45;&gt;Node0x5638d1ab31c8 -->
<g id="edge105" class="edge">
<title>Node0x5638d1ab6be8&#45;&gt;Node0x5638d1ab31c8</title>
<path fill="none" stroke="#7fb2ff" d="M2112.61,-553.2C2076.49,-549.8 2038.5,-546.57 2003,-544.23 1823.8,-532.42 1621.04,-525.6 1467.32,-521.77"/>
<polygon fill="#7fb2ff" stroke="#7fb2ff" points="1467.35,-518.27 1457.26,-521.52 1467.17,-525.27 1467.35,-518.27"/>
</g>
<!-- Node0x5638d1a9bcf8&#45;&gt;Node0x5638d1ab9ed8 -->
<g id="edge113" class="edge">
<title>Node0x5638d1a9bcf8&#45;&gt;Node0x5638d1ab9ed8</title>
<path fill="none" stroke="#7fb2ff" d="M1758.41,-553.2C1736.88,-487.32 1652.39,-259.12 1491,-174.23 1280.16,-63.34 1180.35,-96.99 955,-174.23 622.33,-288.26 324.18,-621.82 243.75,-717.38"/>
<polygon fill="#7fb2ff" stroke="#7fb2ff" points="241.01,-715.2 237.28,-725.11 246.38,-719.69 241.01,-715.2"/>
</g>
<!-- Node0x5638d1a9bcf8&#45;&gt;Node0x5638d1aba5b8 -->
<g id="edge114" class="edge">
<title>Node0x5638d1a9bcf8&#45;&gt;Node0x5638d1aba5b8</title>
<path fill="none" stroke="#7fb2ff" d="M1737.69,-553.01C1690.74,-521.72 1588.31,-458.98 1491,-436.23 1433.01,-422.68 1000.56,-397.88 955,-436.23 883.23,-496.65 981.34,-574.12 919,-644.23 901.36,-664.08 877.96,-677.99 853.04,-687.71"/>
<polygon fill="#7fb2ff" stroke="#7fb2ff" points="851.6,-684.51 843.42,-691.23 854.01,-691.08 851.6,-684.51"/>
</g>
<!-- Node0x5638d1a9bcf8&#45;&gt;Node0x5638d1ab6e68 -->
<g id="edge123" class="edge">
<title>Node0x5638d1a9bcf8&#45;&gt;Node0x5638d1ab6e68</title>
<path fill="none" stroke="#7fb2ff" d="M1756.9,-553.1C1731.81,-491.87 1640.66,-292.56 1491,-219.23 1384.04,-166.83 1059.5,-162.08 955,-219.23 805.1,-301.22 730.35,-513.11 707.67,-589.37"/>
<polygon fill="#7fb2ff" stroke="#7fb2ff" points="704.24,-588.62 704.81,-599.2 710.96,-590.58 704.24,-588.62"/>
</g>
<!-- Node0x5638d1a9bcf8&#45;&gt;Node0x5638d1ab2a98 -->
<g id="edge125" class="edge">
<title>Node0x5638d1a9bcf8&#45;&gt;Node0x5638d1ab2a98</title>
<path fill="none" stroke="#7fb2ff" d="M1607.89,-589.33C1576.83,-600.08 1547.51,-616.7 1527,-642.23 1459.17,-726.66 1570.35,-1054.54 1491,-1128.23 1447.36,-1168.76 1010.29,-1150.36 955,-1128.23 843.9,-1083.78 753.66,-965.31 717.3,-911.95"/>
<polygon fill="#7fb2ff" stroke="#7fb2ff" points="720.01,-909.72 711.53,-903.37 714.2,-913.62 720.01,-909.72"/>
</g>
<!-- Node0x5638d1a9bcf8&#45;&gt;Node0x5638d1abb198 -->
<g id="edge115" class="edge">
<title>Node0x5638d1a9bcf8&#45;&gt;Node0x5638d1abb198</title>
<path fill="none" stroke="#7fb2ff" d="M1742,-552.98C1697.7,-517.33 1593.21,-438.87 1491,-403.23 1478.23,-398.78 1464.93,-394.93 1451.39,-391.59"/>
<polygon fill="#7fb2ff" stroke="#7fb2ff" points="1452.02,-388.15 1441.48,-389.26 1450.41,-394.96 1452.02,-388.15"/>
</g>
<!-- Node0x5638d1a9bcf8&#45;&gt;Node0x5638d1ab11e8 -->
<g id="edge116" class="edge">
<title>Node0x5638d1a9bcf8&#45;&gt;Node0x5638d1ab11e8</title>
<path fill="none" stroke="#7fb2ff" d="M1642.3,-589.27C1599.89,-599.42 1555.78,-617.49 1527,-651.23 1448.44,-743.35 1577.95,-837 1491,-921.23 1437.27,-973.28 1345.91,-970.66 1285.26,-959.26"/>
<polygon fill="#7fb2ff" stroke="#7fb2ff" points="1285.92,-955.82 1275.42,-957.28 1284.54,-962.68 1285.92,-955.82"/>
</g>
<!-- Node0x5638d1a9bcf8&#45;&gt;Node0x5638d1aafa28 -->
<g id="edge118" class="edge">
<title>Node0x5638d1a9bcf8&#45;&gt;Node0x5638d1aafa28</title>
<path fill="none" stroke="#7fb2ff" d="M1747.82,-552.99C1708.42,-509.72 1602.5,-400.34 1491,-344.23 1449.89,-323.55 1401.86,-309.22 1357.95,-299.4"/>
<polygon fill="#7fb2ff" stroke="#7fb2ff" points="1358.58,-295.96 1348.07,-297.25 1357.1,-302.8 1358.58,-295.96"/>
</g>
<!-- Node0x5638d1a9bcf8&#45;&gt;Node0x5638d1ab2a48 -->
<g id="edge120" class="edge">
<title>Node0x5638d1a9bcf8&#45;&gt;Node0x5638d1ab2a48</title>
<path fill="none" stroke="#7fb2ff" d="M1557.78,-571.23C1523.67,-571.23 1488.12,-571.23 1453.48,-571.23"/>
<polygon fill="#7fb2ff" stroke="#7fb2ff" points="1453.25,-567.73 1443.25,-571.23 1453.25,-574.73 1453.25,-567.73"/>
</g>
<!-- Node0x5638d1a9bcf8&#45;&gt;Node0x5638d1ab0ba8 -->
<g id="edge117" class="edge">
<title>Node0x5638d1a9bcf8&#45;&gt;Node0x5638d1ab0ba8</title>
<path fill="none" stroke="black" d="M1713.39,-553.1C1659.12,-534.39 1570.06,-505.82 1491,-490.23 1477.07,-487.49 1462.68,-485.02 1448.12,-482.79"/>
<polygon fill="black" stroke="black" points="1448.43,-479.29 1438.03,-481.28 1447.4,-486.22 1448.43,-479.29"/>
</g>
<!-- Node0x5638d1a9bcf8&#45;&gt;Node0x5638d1ab31c8 -->
<g id="edge119" class="edge">
<title>Node0x5638d1a9bcf8&#45;&gt;Node0x5638d1ab31c8</title>
<path fill="none" stroke="#7fb2ff" d="M1583.83,-553.22C1529.4,-547.77 1469.48,-541.78 1414.41,-536.28"/>
<polygon fill="#7fb2ff" stroke="#7fb2ff" points="1414.49,-532.77 1404.19,-535.25 1413.79,-539.73 1414.49,-532.77"/>
</g>
<!-- Node0x5638d1a9bcf8&#45;&gt;Node0x5638d1ab8e48 -->
<g id="edge122" class="edge">
<title>Node0x5638d1a9bcf8&#45;&gt;Node0x5638d1ab8e48</title>
<path fill="none" stroke="#7fb2ff" d="M1613.88,-589.31C1581.19,-599.96 1549.65,-616.54 1527,-642.23 1462.65,-715.25 1562,-791.67 1491,-858.23 1481.97,-866.7 1471.94,-873.7 1461.22,-879.44"/>
<polygon fill="#7fb2ff" stroke="#7fb2ff" points="1459.46,-876.41 1452.05,-883.98 1462.57,-882.68 1459.46,-876.41"/>
</g>
<!-- Node0x5638d1a9bcf8&#45;&gt;Node0x5638d1a9d5f8 -->
<g id="edge126" class="edge">
<title>Node0x5638d1a9bcf8&#45;&gt;Node0x5638d1a9d5f8</title>
<path fill="none" stroke="#7fb2ff" d="M1609.2,-589.33C1577.79,-600.06 1547.98,-616.67 1527,-642.23 1473.46,-707.45 1550.49,-960.39 1491,-1020.23 1450.72,-1060.75 1387.77,-1068.65 1333.11,-1065.88"/>
<polygon fill="#7fb2ff" stroke="#7fb2ff" points="1333.21,-1062.38 1323.01,-1065.24 1332.77,-1069.36 1333.21,-1062.38"/>
</g>
<!-- Node0x5638d1a9bcf8&#45;&gt;Node0x5638d1a9c3d8 -->
<g id="edge127" class="edge">
<title>Node0x5638d1a9bcf8&#45;&gt;Node0x5638d1a9c3d8</title>
<path fill="none" stroke="#7fb2ff" d="M1608.68,-589.26C1577.38,-600 1547.77,-616.63 1527,-642.23 1466.32,-717.05 1558.51,-1005.52 1491,-1074.23 1450.42,-1115.53 1386.33,-1123.1 1331.11,-1119.95"/>
<polygon fill="#7fb2ff" stroke="#7fb2ff" points="1331.12,-1116.44 1320.91,-1119.24 1330.64,-1123.43 1331.12,-1116.44"/>
</g>
<!-- Node0x5638d1a9bcf8&#45;&gt;Node0x5638d1ab7638 -->
<g id="edge121" class="edge">
<title>Node0x5638d1a9bcf8&#45;&gt;Node0x5638d1ab7638</title>
<path fill="none" stroke="#7fb2ff" d="M1828.76,-553.19C1876.61,-539.31 1944.09,-519.48 2003,-501.23 2076.48,-478.47 2160.45,-451.04 2216.59,-432.49"/>
<polygon fill="#7fb2ff" stroke="#7fb2ff" points="2218,-435.71 2226.4,-429.25 2215.8,-429.07 2218,-435.71"/>
</g>
<!-- Node0x5638d1a9bcf8&#45;&gt;Node0x5638d1ab6be8 -->
<g id="edge124" class="edge">
<title>Node0x5638d1a9bcf8&#45;&gt;Node0x5638d1ab6be8</title>
<path fill="none" stroke="#7fb2ff" d="M1972.3,-571.23C1999.57,-571.23 2027.63,-571.23 2055.19,-571.23"/>
<polygon fill="#7fb2ff" stroke="#7fb2ff" points="2055.32,-574.73 2065.32,-571.23 2055.32,-567.73 2055.32,-574.73"/>
</g>
</g>
</svg>
