<?xml version="1.0" encoding="UTF-8" standalone="no"?>
<!DOCTYPE svg PUBLIC "-//W3C//DTD SVG 1.1//EN"
 "http://www.w3.org/Graphics/SVG/1.1/DTD/svg11.dtd">
<!-- Generated by graphviz version 2.43.0 (0)
 -->
<!-- Title: bin/llvm&#45;cov_lib/libLLVMProfileData.a Pages: 1 -->
<svg width="1279pt" height="175pt"
 viewBox="0.00 0.00 1279.00 175.00" xmlns="http://www.w3.org/2000/svg" xmlns:xlink="http://www.w3.org/1999/xlink">
<g id="graph0" class="graph" transform="scale(1 1) rotate(0) translate(4 171)">
<title>bin/llvm&#45;cov_lib/libLLVMProfileData.a</title>
<polygon fill="white" stroke="transparent" points="-4,4 -4,-171 1275,-171 1275,4 -4,4"/>
<text text-anchor="middle" x="635.5" y="-7.8" font-family="Times,serif" font-size="14.00">bin/llvm&#45;cov_lib/libLLVMProfileData.a</text>
<!-- Node0x563806a51f08 -->
<g id="node1" class="node">
<title>Node0x563806a51f08</title>
<polygon fill="none" stroke="black" points="348.5,-59 46.5,-59 46.5,-23 348.5,-23 348.5,-59"/>
<text text-anchor="middle" x="197.5" y="-37.3" font-family="Times,serif" font-size="14.00">{lib/libLLVMProfileData.a(GCOV.cpp.o)}</text>
</g>
<!-- Node0x563806a518c8 -->
<g id="node2" class="node">
<title>Node0x563806a518c8</title>
<polygon fill="none" stroke="black" points="1220,-144 894,-144 894,-108 1220,-108 1220,-144"/>
<text text-anchor="middle" x="1057" y="-122.3" font-family="Times,serif" font-size="14.00">{lib/libLLVMProfileData.a(InstrProf.cpp.o)}</text>
</g>
<!-- Node0x563806a51148 -->
<g id="node3" class="node">
<title>Node0x563806a51148</title>
<polygon fill="none" stroke="black" points="807,-136 431,-136 431,-100 807,-100 807,-136"/>
<text text-anchor="middle" x="619" y="-114.3" font-family="Times,serif" font-size="14.00">{lib/libLLVMProfileData.a(InstrProfReader.cpp.o)}</text>
</g>
<!-- Node0x563806a51148&#45;&gt;Node0x563806a518c8 -->
<g id="edge1" class="edge">
<title>Node0x563806a51148&#45;&gt;Node0x563806a518c8</title>
<path fill="none" stroke="black" d="M807.12,-121.43C832.49,-121.9 858.44,-122.37 883.54,-122.84"/>
<polygon fill="black" stroke="black" points="883.8,-126.34 893.86,-123.02 883.93,-119.34 883.8,-126.34"/>
</g>
<!-- Node0x563806a56dc8 -->
<g id="node4" class="node">
<title>Node0x563806a56dc8</title>
<polygon fill="none" stroke="black" points="1271,-90 843,-90 843,-54 1271,-54 1271,-90"/>
<text text-anchor="middle" x="1057" y="-68.3" font-family="Times,serif" font-size="14.00">{lib/libLLVMProfileData.a(ProfileSummaryBuilder.cpp.o)}</text>
</g>
<!-- Node0x563806a51148&#45;&gt;Node0x563806a56dc8 -->
<g id="edge2" class="edge">
<title>Node0x563806a51148&#45;&gt;Node0x563806a56dc8</title>
<path fill="none" stroke="black" d="M790.75,-99.98C818.39,-97.07 847.09,-94.04 874.97,-91.1"/>
<polygon fill="black" stroke="black" points="875.62,-94.55 885.19,-90.02 874.88,-87.59 875.62,-94.55"/>
</g>
<!-- Node0x563806a574a8 -->
<g id="node5" class="node">
<title>Node0x563806a574a8</title>
<polygon fill="none" stroke="black" points="369.5,-167 25.5,-167 25.5,-131 369.5,-131 369.5,-167"/>
<text text-anchor="middle" x="197.5" y="-145.3" font-family="Times,serif" font-size="14.00">{lib/libLLVMProfileData.a(SampleProf.cpp.o)}</text>
</g>
<!-- Node0x563806a57d18 -->
<g id="node6" class="node">
<title>Node0x563806a57d18</title>
<polygon fill="none" stroke="black" points="395,-113 0,-113 0,-77 395,-77 395,-113"/>
<text text-anchor="middle" x="197.5" y="-91.3" font-family="Times,serif" font-size="14.00">{lib/libLLVMProfileData.a(SampleProfReader.cpp.o)}</text>
</g>
<!-- Node0x563806a57d18&#45;&gt;Node0x563806a51148 -->
<g id="edge3" class="edge">
<title>Node0x563806a57d18&#45;&gt;Node0x563806a51148</title>
<path fill="none" stroke="black" d="M395.05,-105.78C403.62,-106.25 412.23,-106.72 420.8,-107.19"/>
<polygon fill="black" stroke="black" points="420.68,-110.69 430.86,-107.74 421.06,-103.7 420.68,-110.69"/>
</g>
<!-- Node0x563806a57d18&#45;&gt;Node0x563806a56dc8 -->
<g id="edge4" class="edge">
<title>Node0x563806a57d18&#45;&gt;Node0x563806a56dc8</title>
<path fill="none" stroke="black" d="M395.23,-89.72C525.71,-86.22 697.23,-81.62 832.82,-77.99"/>
<polygon fill="black" stroke="black" points="833.02,-81.48 842.93,-77.72 832.84,-74.48 833.02,-81.48"/>
</g>
</g>
</svg>
