<?xml version="1.0" encoding="UTF-8" standalone="no"?>
<!DOCTYPE svg PUBLIC "-//W3C//DTD SVG 1.1//EN"
 "http://www.w3.org/Graphics/SVG/1.1/DTD/svg11.dtd">
<!-- Generated by graphviz version 2.43.0 (0)
 -->
<!-- Title: bin/lli_lib/libLLVMOrcJIT.a Pages: 1 -->
<svg width="2158pt" height="843pt"
 viewBox="0.00 0.00 2158.00 843.24" xmlns="http://www.w3.org/2000/svg" xmlns:xlink="http://www.w3.org/1999/xlink">
<g id="graph0" class="graph" transform="scale(1 1) rotate(0) translate(4 839.24)">
<title>bin/lli_lib/libLLVMOrcJIT.a</title>
<polygon fill="white" stroke="transparent" points="-4,4 -4,-839.24 2154,-839.24 2154,4 -4,4"/>
<text text-anchor="middle" x="1075" y="-7.8" font-family="Times,serif" font-size="14.00">bin/lli_lib/libLLVMOrcJIT.a</text>
<!-- Node0x56291f48ddb8 -->
<g id="node1" class="node">
<title>Node0x56291f48ddb8</title>
<polygon fill="#7fb2ff" stroke="black" points="800.5,-424.45 462.5,-424.45 462.5,-388.45 800.5,-388.45 800.5,-424.45"/>
<text text-anchor="middle" x="631.5" y="-402.75" font-family="Times,serif" font-size="14.00">{lib/libLLVMOrcJIT.a(MachOPlatform.cpp.o)}</text>
</g>
<!-- Node0x56291f48d048 -->
<g id="node2" class="node">
<title>Node0x56291f48d048</title>
<polygon fill="#7fb2ff" stroke="black" points="1302,-370.45 874,-370.45 874,-334.45 1302,-334.45 1302,-370.45"/>
<text text-anchor="middle" x="1088" y="-348.75" font-family="Times,serif" font-size="14.00">{lib/libLLVMOrcJIT.a(DebugObjectManagerPlugin.cpp.o)}</text>
</g>
<!-- Node0x56291f48ddb8&#45;&gt;Node0x56291f48d048 -->
<g id="edge1" class="edge">
<title>Node0x56291f48ddb8&#45;&gt;Node0x56291f48d048</title>
<path fill="none" stroke="#7fb2ff" d="M784.16,-388.43C829.49,-383.04 879.36,-377.12 925.31,-371.66"/>
<polygon fill="#7fb2ff" stroke="#7fb2ff" points="925.84,-375.12 935.36,-370.46 925.01,-368.17 925.84,-375.12"/>
</g>
<!-- Node0x56291f490ba8 -->
<g id="node3" class="node">
<title>Node0x56291f490ba8</title>
<polygon fill="#7fb2ff" stroke="black" points="1218.5,-478.45 957.5,-478.45 957.5,-442.45 1218.5,-442.45 1218.5,-478.45"/>
<text text-anchor="middle" x="1088" y="-456.75" font-family="Times,serif" font-size="14.00">{lib/libLLVMOrcJIT.a(LLJIT.cpp.o)}</text>
</g>
<!-- Node0x56291f48ddb8&#45;&gt;Node0x56291f490ba8 -->
<g id="edge2" class="edge">
<title>Node0x56291f48ddb8&#45;&gt;Node0x56291f490ba8</title>
<path fill="none" stroke="#7fb2ff" d="M800.77,-419.89C858.47,-426.34 921.62,-434.05 973.89,-441.08"/>
<polygon fill="#7fb2ff" stroke="#7fb2ff" points="973.47,-444.56 983.85,-442.43 974.41,-437.62 973.47,-444.56"/>
</g>
<!-- Node0x56291f4a5d28 -->
<g id="node4" class="node">
<title>Node0x56291f4a5d28</title>
<polygon fill="#7fb2ff" stroke="black" points="1217.5,-316.45 958.5,-316.45 958.5,-280.45 1217.5,-280.45 1217.5,-316.45"/>
<text text-anchor="middle" x="1088" y="-294.75" font-family="Times,serif" font-size="14.00">{lib/libLLVMOrcJIT.a(Core.cpp.o)}</text>
</g>
<!-- Node0x56291f48ddb8&#45;&gt;Node0x56291f4a5d28 -->
<g id="edge3" class="edge">
<title>Node0x56291f48ddb8&#45;&gt;Node0x56291f4a5d28</title>
<path fill="none" stroke="#7fb2ff" d="M677.58,-388.34C725.52,-369.79 803.95,-341.47 874,-325.45 897.79,-320 923.35,-315.58 948.21,-312.01"/>
<polygon fill="#7fb2ff" stroke="#7fb2ff" points="949.02,-315.43 958.44,-310.58 948.05,-308.5 949.02,-315.43"/>
</g>
<!-- Node0x56291f497cc8 -->
<g id="node5" class="node">
<title>Node0x56291f497cc8</title>
<polygon fill="#7fb2ff" stroke="black" points="1270,-424.45 906,-424.45 906,-388.45 1270,-388.45 1270,-424.45"/>
<text text-anchor="middle" x="1088" y="-402.75" font-family="Times,serif" font-size="14.00">{lib/libLLVMOrcJIT.a(ObjectLinkingLayer.cpp.o)}</text>
</g>
<!-- Node0x56291f48ddb8&#45;&gt;Node0x56291f497cc8 -->
<g id="edge4" class="edge">
<title>Node0x56291f48ddb8&#45;&gt;Node0x56291f497cc8</title>
<path fill="none" stroke="#7fb2ff" d="M800.77,-399.9C831.67,-399.68 864.14,-399.64 895.66,-399.77"/>
<polygon fill="#7fb2ff" stroke="#7fb2ff" points="895.84,-403.27 905.86,-399.82 895.88,-396.27 895.84,-403.27"/>
</g>
<!-- Node0x56291f48d048&#45;&gt;Node0x56291f4a5d28 -->
<g id="edge6" class="edge">
<title>Node0x56291f48d048&#45;&gt;Node0x56291f4a5d28</title>
<path fill="none" stroke="#7fb2ff" d="M1088,-334.24C1088,-331.75 1088,-329.27 1088,-326.79"/>
<polygon fill="#7fb2ff" stroke="#7fb2ff" points="1091.5,-326.59 1088,-316.59 1084.5,-326.59 1091.5,-326.59"/>
</g>
<!-- Node0x56291f48d048&#45;&gt;Node0x56291f497cc8 -->
<g id="edge7" class="edge">
<title>Node0x56291f48d048&#45;&gt;Node0x56291f497cc8</title>
<path fill="none" stroke="#7fb2ff" d="M1230.81,-370.48C1250.51,-375.47 1253.76,-380.46 1240.55,-385.45"/>
<polygon fill="#7fb2ff" stroke="#7fb2ff" points="1239.43,-382.14 1230.87,-388.39 1241.46,-388.84 1239.43,-382.14"/>
</g>
<!-- Node0x56291f490ba8&#45;&gt;Node0x56291f48ddb8 -->
<g id="edge22" class="edge">
<title>Node0x56291f490ba8&#45;&gt;Node0x56291f48ddb8</title>
<path fill="none" stroke="#7fb2ff" d="M957.42,-451.21C890.67,-444.14 810.04,-434.48 745.8,-425.84"/>
<polygon fill="#7fb2ff" stroke="#7fb2ff" points="746.01,-422.34 735.63,-424.46 745.07,-429.27 746.01,-422.34"/>
</g>
<!-- Node0x56291f490ba8&#45;&gt;Node0x56291f4a5d28 -->
<g id="edge31" class="edge">
<title>Node0x56291f490ba8&#45;&gt;Node0x56291f4a5d28</title>
<path fill="none" stroke="#7fb2ff" d="M957.5,-475.19C916.92,-472 877.27,-458.86 856,-424.45 834.97,-390.42 834.97,-368.47 856,-334.45 875.67,-302.62 911.07,-288.99 948.38,-284.6"/>
<polygon fill="#7fb2ff" stroke="#7fb2ff" points="948.8,-288.07 958.42,-283.63 948.13,-281.1 948.8,-288.07"/>
</g>
<!-- Node0x56291f490ba8&#45;&gt;Node0x56291f497cc8 -->
<g id="edge32" class="edge">
<title>Node0x56291f490ba8&#45;&gt;Node0x56291f497cc8</title>
<path fill="none" stroke="#7fb2ff" d="M1088,-442.24C1088,-439.75 1088,-437.27 1088,-434.79"/>
<polygon fill="#7fb2ff" stroke="#7fb2ff" points="1091.5,-434.59 1088,-424.59 1084.5,-434.59 1091.5,-434.59"/>
</g>
<!-- Node0x56291f48e308 -->
<g id="node6" class="node">
<title>Node0x56291f48e308</title>
<polygon fill="#7fb2ff" stroke="black" points="1723,-624.45 1369,-624.45 1369,-588.45 1723,-588.45 1723,-624.45"/>
<text text-anchor="middle" x="1546" y="-602.75" font-family="Times,serif" font-size="14.00">{lib/libLLVMOrcJIT.a(IRTransformLayer.cpp.o)}</text>
</g>
<!-- Node0x56291f490ba8&#45;&gt;Node0x56291f48e308 -->
<g id="edge21" class="edge">
<title>Node0x56291f490ba8&#45;&gt;Node0x56291f48e308</title>
<path fill="none" stroke="#7fb2ff" d="M1118.8,-478.54C1164.31,-505.27 1254.61,-554.77 1338,-579.45 1346.33,-581.91 1354.92,-584.15 1363.64,-586.19"/>
<polygon fill="#7fb2ff" stroke="#7fb2ff" points="1363.02,-589.64 1373.54,-588.4 1364.54,-582.81 1363.02,-589.64"/>
</g>
<!-- Node0x56291f48ea38 -->
<g id="node7" class="node">
<title>Node0x56291f48ea38</title>
<polygon fill="#7fb2ff" stroke="black" points="1692.5,-208.45 1399.5,-208.45 1399.5,-172.45 1692.5,-172.45 1692.5,-208.45"/>
<text text-anchor="middle" x="1546" y="-186.75" font-family="Times,serif" font-size="14.00">{lib/libLLVMOrcJIT.a(Mangling.cpp.o)}</text>
</g>
<!-- Node0x56291f490ba8&#45;&gt;Node0x56291f48ea38 -->
<g id="edge23" class="edge">
<title>Node0x56291f490ba8&#45;&gt;Node0x56291f48ea38</title>
<path fill="none" stroke="#7fb2ff" d="M1218.52,-469.54C1249.29,-465.33 1279.63,-454.96 1302,-433.45 1372.15,-365.98 1267.97,-285.03 1338,-217.45 1352.44,-203.5 1370.33,-194.33 1389.49,-188.52"/>
<polygon fill="#7fb2ff" stroke="#7fb2ff" points="1390.57,-191.85 1399.3,-185.85 1388.73,-185.1 1390.57,-191.85"/>
</g>
<!-- Node0x56291f48de08 -->
<g id="node8" class="node">
<title>Node0x56291f48de08</title>
<polygon fill="#7fb2ff" stroke="black" points="1711.5,-370.45 1380.5,-370.45 1380.5,-334.45 1711.5,-334.45 1711.5,-370.45"/>
<text text-anchor="middle" x="1546" y="-348.75" font-family="Times,serif" font-size="14.00">{lib/libLLVMOrcJIT.a(ExecutionUtils.cpp.o)}</text>
</g>
<!-- Node0x56291f490ba8&#45;&gt;Node0x56291f48de08 -->
<g id="edge24" class="edge">
<title>Node0x56291f490ba8&#45;&gt;Node0x56291f48de08</title>
<path fill="none" stroke="#7fb2ff" d="M1218.6,-461.68C1247.66,-457.29 1277.2,-448.8 1302,-433.45 1326.52,-418.26 1313.5,-394.68 1338,-379.45 1348.16,-373.13 1359.14,-367.99 1370.56,-363.84"/>
<polygon fill="#7fb2ff" stroke="#7fb2ff" points="1371.89,-367.08 1380.25,-360.57 1369.66,-360.45 1371.89,-367.08"/>
</g>
<!-- Node0x56291f48e5d8 -->
<g id="node9" class="node">
<title>Node0x56291f48e5d8</title>
<polygon fill="#7fb2ff" stroke="black" points="1715,-100.45 1377,-100.45 1377,-64.45 1715,-64.45 1715,-100.45"/>
<text text-anchor="middle" x="1546" y="-78.75" font-family="Times,serif" font-size="14.00">{lib/libLLVMOrcJIT.a(IndirectionUtils.cpp.o)}</text>
</g>
<!-- Node0x56291f490ba8&#45;&gt;Node0x56291f48e5d8 -->
<g id="edge25" class="edge">
<title>Node0x56291f490ba8&#45;&gt;Node0x56291f48e5d8</title>
<path fill="none" stroke="#7fb2ff" d="M1218.78,-470.44C1249.73,-466.27 1280.1,-455.69 1302,-433.45 1403.66,-330.21 1236.53,-212.87 1338,-109.45 1346.63,-100.65 1356.61,-93.72 1367.44,-88.31"/>
<polygon fill="#7fb2ff" stroke="#7fb2ff" points="1369.05,-91.42 1376.72,-84.11 1366.17,-85.04 1369.05,-91.42"/>
</g>
<!-- Node0x56291f490018 -->
<g id="node10" class="node">
<title>Node0x56291f490018</title>
<polygon fill="#7fb2ff" stroke="black" points="1715,-570.45 1377,-570.45 1377,-534.45 1715,-534.45 1715,-570.45"/>
<text text-anchor="middle" x="1546" y="-548.75" font-family="Times,serif" font-size="14.00">{lib/libLLVMOrcJIT.a(IRCompileLayer.cpp.o)}</text>
</g>
<!-- Node0x56291f490ba8&#45;&gt;Node0x56291f490018 -->
<g id="edge26" class="edge">
<title>Node0x56291f490ba8&#45;&gt;Node0x56291f490018</title>
<path fill="none" stroke="#7fb2ff" d="M1157.1,-478.47C1206.95,-491.27 1276.38,-508.28 1338,-520.45 1360.4,-524.87 1384.26,-529.05 1407.52,-532.83"/>
<polygon fill="#7fb2ff" stroke="#7fb2ff" points="1407.02,-536.3 1417.45,-534.43 1408.13,-529.39 1407.02,-536.3"/>
</g>
<!-- Node0x56291f48f398 -->
<g id="node11" class="node">
<title>Node0x56291f48f398</title>
<polygon fill="none" stroke="black" points="1748,-732.45 1344,-732.45 1344,-696.45 1748,-696.45 1748,-732.45"/>
<text text-anchor="middle" x="1546" y="-710.75" font-family="Times,serif" font-size="14.00">{lib/libLLVMOrcJIT.a(JITTargetMachineBuilder.cpp.o)}</text>
</g>
<!-- Node0x56291f490ba8&#45;&gt;Node0x56291f48f398 -->
<g id="edge27" class="edge">
<title>Node0x56291f490ba8&#45;&gt;Node0x56291f48f398</title>
<path fill="none" stroke="black" d="M1102.25,-478.52C1135.91,-522.89 1229.75,-637.22 1338,-687.45 1342.18,-689.39 1346.46,-691.2 1350.81,-692.9"/>
<polygon fill="black" stroke="black" points="1349.86,-696.27 1360.45,-696.42 1352.26,-689.7 1349.86,-696.27"/>
</g>
<!-- Node0x56291f491058 -->
<g id="node12" class="node">
<title>Node0x56291f491058</title>
<polygon fill="#7fb2ff" stroke="black" points="1711.5,-154.45 1380.5,-154.45 1380.5,-118.45 1711.5,-118.45 1711.5,-154.45"/>
<text text-anchor="middle" x="1546" y="-132.75" font-family="Times,serif" font-size="14.00">{lib/libLLVMOrcJIT.a(LazyReexports.cpp.o)}</text>
</g>
<!-- Node0x56291f490ba8&#45;&gt;Node0x56291f491058 -->
<g id="edge28" class="edge">
<title>Node0x56291f490ba8&#45;&gt;Node0x56291f491058</title>
<path fill="none" stroke="#7fb2ff" d="M1218.73,-470.07C1249.58,-465.88 1279.92,-455.38 1302,-433.45 1387.88,-348.12 1252.27,-248.93 1338,-163.45 1347.61,-153.86 1358.84,-146.5 1371.01,-140.93"/>
<polygon fill="#7fb2ff" stroke="#7fb2ff" points="1372.59,-144.06 1380.49,-137 1369.91,-137.59 1372.59,-144.06"/>
</g>
<!-- Node0x56291f4a5878 -->
<g id="node13" class="node">
<title>Node0x56291f4a5878</title>
<polygon fill="#7fb2ff" stroke="black" points="1747,-262.45 1345,-262.45 1345,-226.45 1747,-226.45 1747,-262.45"/>
<text text-anchor="middle" x="1546" y="-240.75" font-family="Times,serif" font-size="14.00">{lib/libLLVMOrcJIT.a(CompileOnDemandLayer.cpp.o)}</text>
</g>
<!-- Node0x56291f490ba8&#45;&gt;Node0x56291f4a5878 -->
<g id="edge29" class="edge">
<title>Node0x56291f490ba8&#45;&gt;Node0x56291f4a5878</title>
<path fill="none" stroke="#7fb2ff" d="M1218.58,-468.6C1249.07,-464.33 1279.27,-454.16 1302,-433.45 1356.51,-383.76 1283.58,-321.23 1338,-271.45 1338.98,-270.55 1339.97,-269.68 1340.98,-268.82"/>
<polygon fill="#7fb2ff" stroke="#7fb2ff" points="1343.18,-271.54 1348.94,-262.65 1338.9,-266.01 1343.18,-271.54"/>
</g>
<!-- Node0x56291f4a5148 -->
<g id="node14" class="node">
<title>Node0x56291f4a5148</title>
<polygon fill="#7fb2ff" stroke="black" points="1705,-786.45 1387,-786.45 1387,-750.45 1705,-750.45 1705,-786.45"/>
<text text-anchor="middle" x="1546" y="-764.75" font-family="Times,serif" font-size="14.00">{lib/libLLVMOrcJIT.a(CompileUtils.cpp.o)}</text>
</g>
<!-- Node0x56291f490ba8&#45;&gt;Node0x56291f4a5148 -->
<g id="edge30" class="edge">
<title>Node0x56291f490ba8&#45;&gt;Node0x56291f4a5148</title>
<path fill="none" stroke="#7fb2ff" d="M1098.72,-478.56C1127.42,-530.01 1217.36,-677.46 1338,-741.45 1350.24,-747.94 1363.44,-753.09 1377.03,-757.16"/>
<polygon fill="#7fb2ff" stroke="#7fb2ff" points="1376.43,-760.63 1387,-759.94 1378.31,-753.89 1376.43,-760.63"/>
</g>
<!-- Node0x56291f498a38 -->
<g id="node15" class="node">
<title>Node0x56291f498a38</title>
<polygon fill="#7fb2ff" stroke="black" points="1738.5,-678.45 1353.5,-678.45 1353.5,-642.45 1738.5,-642.45 1738.5,-678.45"/>
<text text-anchor="middle" x="1546" y="-656.75" font-family="Times,serif" font-size="14.00">{lib/libLLVMOrcJIT.a(ObjectTransformLayer.cpp.o)}</text>
</g>
<!-- Node0x56291f490ba8&#45;&gt;Node0x56291f498a38 -->
<g id="edge33" class="edge">
<title>Node0x56291f490ba8&#45;&gt;Node0x56291f498a38</title>
<path fill="none" stroke="#7fb2ff" d="M1108.06,-478.66C1147.41,-515.03 1242,-596.38 1338,-633.45 1343.63,-635.62 1349.41,-637.63 1355.28,-639.48"/>
<polygon fill="#7fb2ff" stroke="#7fb2ff" points="1354.68,-642.95 1365.26,-642.44 1356.67,-636.24 1354.68,-642.95"/>
</g>
<!-- Node0x56291f494168 -->
<g id="node16" class="node">
<title>Node0x56291f494168</title>
<polygon fill="#7fb2ff" stroke="black" points="1754,-478.45 1338,-478.45 1338,-442.45 1754,-442.45 1754,-478.45"/>
<text text-anchor="middle" x="1546" y="-456.75" font-family="Times,serif" font-size="14.00">{lib/libLLVMOrcJIT.a(RTDyldObjectLinkingLayer.cpp.o)}</text>
</g>
<!-- Node0x56291f490ba8&#45;&gt;Node0x56291f494168 -->
<g id="edge34" class="edge">
<title>Node0x56291f490ba8&#45;&gt;Node0x56291f494168</title>
<path fill="none" stroke="#7fb2ff" d="M1218.76,-460.45C1252.69,-460.45 1290.21,-460.45 1327.36,-460.45"/>
<polygon fill="#7fb2ff" stroke="#7fb2ff" points="1327.83,-463.95 1337.83,-460.45 1327.83,-456.95 1327.83,-463.95"/>
</g>
<!-- Node0x56291f4a5d28&#45;&gt;Node0x56291f4a5878 -->
<g id="edge45" class="edge">
<title>Node0x56291f4a5d28&#45;&gt;Node0x56291f4a5878</title>
<path fill="none" stroke="#7fb2ff" d="M1192.47,-280.43C1234.76,-274.68 1285.28,-268.37 1334.69,-262.62"/>
<polygon fill="#7fb2ff" stroke="#7fb2ff" points="1335.36,-266.07 1344.89,-261.44 1334.55,-259.11 1335.36,-266.07"/>
</g>
<!-- Node0x56291f48ec68 -->
<g id="node17" class="node">
<title>Node0x56291f48ec68</title>
<polygon fill="#7fb2ff" stroke="black" points="1699,-316.45 1393,-316.45 1393,-280.45 1699,-280.45 1699,-316.45"/>
<text text-anchor="middle" x="1546" y="-294.75" font-family="Times,serif" font-size="14.00">{lib/libLLVMOrcJIT.a(DebugUtils.cpp.o)}</text>
</g>
<!-- Node0x56291f4a5d28&#45;&gt;Node0x56291f48ec68 -->
<g id="edge44" class="edge">
<title>Node0x56291f4a5d28&#45;&gt;Node0x56291f48ec68</title>
<path fill="none" stroke="#7fb2ff" d="M1217.54,-292.3C1268.87,-291.64 1328.56,-291.52 1382.82,-291.95"/>
<polygon fill="#7fb2ff" stroke="#7fb2ff" points="1382.85,-295.45 1392.88,-292.04 1382.91,-288.45 1382.85,-295.45"/>
</g>
<!-- Node0x56291f497cc8&#45;&gt;Node0x56291f48ddb8 -->
<g id="edge46" class="edge">
<title>Node0x56291f497cc8&#45;&gt;Node0x56291f48ddb8</title>
<path fill="none" stroke="#7fb2ff" d="M905.86,-413.07C874.57,-413.24 842.07,-413.24 810.86,-413.06"/>
<polygon fill="#7fb2ff" stroke="#7fb2ff" points="810.79,-409.55 800.77,-412.99 810.75,-416.55 810.79,-409.55"/>
</g>
<!-- Node0x56291f497cc8&#45;&gt;Node0x56291f48d048 -->
<g id="edge47" class="edge">
<title>Node0x56291f497cc8&#45;&gt;Node0x56291f48d048</title>
<path fill="none" stroke="#7fb2ff" d="M945.13,-388.39C925.46,-383.4 922.25,-378.41 935.5,-373.42"/>
<polygon fill="#7fb2ff" stroke="#7fb2ff" points="936.64,-376.73 945.19,-370.48 934.61,-370.03 936.64,-376.73"/>
</g>
<!-- Node0x56291f497cc8&#45;&gt;Node0x56291f4a5d28 -->
<g id="edge50" class="edge">
<title>Node0x56291f497cc8&#45;&gt;Node0x56291f4a5d28</title>
<path fill="none" stroke="#7fb2ff" d="M905.87,-410.2C885.53,-402.28 867.89,-389.69 856,-370.45 828.01,-325.16 884.05,-307.03 948.04,-300.28"/>
<polygon fill="#7fb2ff" stroke="#7fb2ff" points="948.75,-303.73 958.37,-299.29 948.08,-296.76 948.75,-303.73"/>
</g>
<!-- Node0x56291f497cc8&#45;&gt;Node0x56291f4a5878 -->
<g id="edge49" class="edge">
<title>Node0x56291f497cc8&#45;&gt;Node0x56291f4a5878</title>
<path fill="none" stroke="#7fb2ff" d="M1270.14,-398.67C1281.58,-393.68 1292.35,-387.37 1302,-379.45 1341.1,-347.33 1298.96,-303.63 1338,-271.45 1339.22,-270.44 1340.47,-269.46 1341.73,-268.5"/>
<polygon fill="#7fb2ff" stroke="#7fb2ff" points="1344.06,-271.14 1350.29,-262.56 1340.07,-265.39 1344.06,-271.14"/>
</g>
<!-- Node0x56291f491878 -->
<g id="node18" class="node">
<title>Node0x56291f491878</title>
<polygon fill="#7fb2ff" stroke="black" points="1678,-424.45 1414,-424.45 1414,-388.45 1678,-388.45 1678,-424.45"/>
<text text-anchor="middle" x="1546" y="-402.75" font-family="Times,serif" font-size="14.00">{lib/libLLVMOrcJIT.a(Layer.cpp.o)}</text>
</g>
<!-- Node0x56291f497cc8&#45;&gt;Node0x56291f491878 -->
<g id="edge48" class="edge">
<title>Node0x56291f497cc8&#45;&gt;Node0x56291f491878</title>
<path fill="none" stroke="#7fb2ff" d="M1270.21,-406.45C1314.61,-406.45 1361.49,-406.45 1403.7,-406.45"/>
<polygon fill="#7fb2ff" stroke="#7fb2ff" points="1403.76,-409.95 1413.76,-406.45 1403.76,-402.95 1403.76,-409.95"/>
</g>
<!-- Node0x56291f48e308&#45;&gt;Node0x56291f4a5d28 -->
<g id="edge76" class="edge">
<title>Node0x56291f48e308&#45;&gt;Node0x56291f4a5d28</title>
<path fill="none" stroke="#7fb2ff" d="M1368.71,-600.76C1357.44,-595.35 1347.02,-588.37 1338,-579.45 1256.93,-499.27 1383.21,-405.47 1302,-325.45 1282.08,-305.81 1255.54,-295.37 1227.96,-290.42"/>
<polygon fill="#7fb2ff" stroke="#7fb2ff" points="1228.19,-286.91 1217.77,-288.83 1227.11,-293.83 1228.19,-286.91"/>
</g>
<!-- Node0x56291f48e308&#45;&gt;Node0x56291f491878 -->
<g id="edge75" class="edge">
<title>Node0x56291f48e308&#45;&gt;Node0x56291f491878</title>
<path fill="none" stroke="#7fb2ff" d="M1368.86,-609.41C1348.94,-601.63 1331.64,-589.29 1320,-570.45 1305.05,-546.25 1305.05,-466.64 1320,-442.45 1338.06,-413.22 1369.7,-399.63 1403.69,-394.45"/>
<polygon fill="#7fb2ff" stroke="#7fb2ff" points="1404.34,-397.9 1413.81,-393.16 1403.45,-390.95 1404.34,-397.9"/>
</g>
<!-- Node0x56291f48ea38&#45;&gt;Node0x56291f491878 -->
<g id="edge5" class="edge">
<title>Node0x56291f48ea38&#45;&gt;Node0x56291f491878</title>
<path fill="none" stroke="#7fb2ff" d="M1399.49,-178.63C1369.48,-184.25 1342.14,-197.33 1326,-223.45 1317.24,-237.62 1317.24,-359.27 1326,-373.45 1342.93,-400.84 1372.17,-413.89 1403.9,-419.03"/>
<polygon fill="#7fb2ff" stroke="#7fb2ff" points="1403.44,-422.5 1413.82,-420.38 1404.38,-415.57 1403.44,-422.5"/>
</g>
<!-- Node0x56291f48de08&#45;&gt;Node0x56291f4a5d28 -->
<g id="edge10" class="edge">
<title>Node0x56291f48de08&#45;&gt;Node0x56291f4a5d28</title>
<path fill="none" stroke="#7fb2ff" d="M1392.88,-334.43C1339.47,-328.11 1279.78,-321.04 1227.54,-314.85"/>
<polygon fill="#7fb2ff" stroke="#7fb2ff" points="1227.88,-311.37 1217.54,-313.67 1227.06,-318.32 1227.88,-311.37"/>
</g>
<!-- Node0x56291f48de08&#45;&gt;Node0x56291f48ea38 -->
<g id="edge8" class="edge">
<title>Node0x56291f48de08&#45;&gt;Node0x56291f48ea38</title>
<path fill="none" stroke="#7fb2ff" d="M1380.38,-359.33C1355.65,-352.05 1333.84,-338.84 1320,-316.45 1298.97,-282.42 1298.97,-260.47 1320,-226.45 1335.46,-201.43 1360.88,-187.87 1389.2,-181.23"/>
<polygon fill="#7fb2ff" stroke="#7fb2ff" points="1390.23,-184.6 1399.32,-179.17 1388.83,-177.74 1390.23,-184.6"/>
</g>
<!-- Node0x56291f48de08&#45;&gt;Node0x56291f4a5878 -->
<g id="edge9" class="edge">
<title>Node0x56291f48de08&#45;&gt;Node0x56291f4a5878</title>
<path fill="none" stroke="#7fb2ff" d="M1380.42,-359.49C1358.14,-352.35 1338.64,-339.9 1326,-319.45 1316.19,-303.57 1316.19,-293.32 1326,-277.45 1329.13,-272.37 1332.3,-273.19 1338,-271.45 1346.01,-269 1354.26,-266.78 1362.64,-264.75"/>
<polygon fill="#7fb2ff" stroke="#7fb2ff" points="1363.58,-268.13 1372.54,-262.47 1362,-261.31 1363.58,-268.13"/>
</g>
<!-- Node0x56291f48e5d8&#45;&gt;Node0x56291f4a5d28 -->
<g id="edge12" class="edge">
<title>Node0x56291f48e5d8&#45;&gt;Node0x56291f4a5d28</title>
<path fill="none" stroke="#7fb2ff" d="M1376.96,-96.74C1363.55,-100.17 1350.41,-104.35 1338,-109.45 1244.18,-147.96 1154.65,-230.95 1113.14,-272.97"/>
<polygon fill="#7fb2ff" stroke="#7fb2ff" points="1110.45,-270.72 1105.96,-280.32 1115.45,-275.61 1110.45,-270.72"/>
</g>
<!-- Node0x56291f48e5d8&#45;&gt;Node0x56291f4a5878 -->
<g id="edge11" class="edge">
<title>Node0x56291f48e5d8&#45;&gt;Node0x56291f4a5878</title>
<path fill="none" stroke="#7fb2ff" d="M1376.95,-76.56C1356.12,-83.86 1337.98,-96.06 1326,-115.45 1314.78,-133.59 1314.78,-193.3 1326,-211.45 1329.32,-216.81 1333.11,-221.63 1337.29,-225.94"/>
<polygon fill="#7fb2ff" stroke="#7fb2ff" points="1334.97,-228.56 1344.71,-232.74 1339.7,-223.4 1334.97,-228.56"/>
</g>
<!-- Node0x56291f494e88 -->
<g id="node19" class="node">
<title>Node0x56291f494e88</title>
<polygon fill="none" stroke="black" points="2137,-127.45 1803,-127.45 1803,-91.45 2137,-91.45 2137,-127.45"/>
<text text-anchor="middle" x="1970" y="-105.75" font-family="Times,serif" font-size="14.00">{lib/libLLVMOrcJIT.a(OrcABISupport.cpp.o)}</text>
</g>
<!-- Node0x56291f48e5d8&#45;&gt;Node0x56291f494e88 -->
<g id="edge13" class="edge">
<title>Node0x56291f48e5d8&#45;&gt;Node0x56291f494e88</title>
<path fill="none" stroke="black" d="M1715.3,-93.21C1740.75,-94.84 1767.07,-96.53 1792.68,-98.17"/>
<polygon fill="black" stroke="black" points="1792.64,-101.67 1802.84,-98.82 1793.09,-94.68 1792.64,-101.67"/>
</g>
<!-- Node0x56291f490018&#45;&gt;Node0x56291f4a5d28 -->
<g id="edge15" class="edge">
<title>Node0x56291f490018&#45;&gt;Node0x56291f4a5d28</title>
<path fill="none" stroke="#7fb2ff" d="M1415.98,-534.36C1386.93,-524.68 1358.63,-509.92 1338,-487.45 1288.13,-433.11 1356.51,-375.13 1302,-325.45 1281.57,-306.83 1255.11,-296.73 1227.83,-291.78"/>
<polygon fill="#7fb2ff" stroke="#7fb2ff" points="1228.17,-288.29 1217.74,-290.18 1227.07,-295.2 1228.17,-288.29"/>
</g>
<!-- Node0x56291f490018&#45;&gt;Node0x56291f491878 -->
<g id="edge14" class="edge">
<title>Node0x56291f490018&#45;&gt;Node0x56291f491878</title>
<path fill="none" stroke="#7fb2ff" d="M1376.85,-554.11C1353.6,-546.15 1333.21,-532.82 1320,-511.45 1303.88,-485.36 1303.88,-468.53 1320,-442.45 1338.06,-413.22 1369.7,-399.63 1403.69,-394.45"/>
<polygon fill="#7fb2ff" stroke="#7fb2ff" points="1404.34,-397.9 1413.81,-393.16 1403.45,-390.95 1404.34,-397.9"/>
</g>
<!-- Node0x56291f491058&#45;&gt;Node0x56291f4a5d28 -->
<g id="edge18" class="edge">
<title>Node0x56291f491058&#45;&gt;Node0x56291f4a5d28</title>
<path fill="none" stroke="#7fb2ff" d="M1380.48,-152.25C1365.96,-155.34 1351.62,-159.03 1338,-163.45 1256.04,-190 1169.63,-243.44 1123.26,-274.53"/>
<polygon fill="#7fb2ff" stroke="#7fb2ff" points="1121.12,-271.75 1114.8,-280.25 1125.04,-277.54 1121.12,-271.75"/>
</g>
<!-- Node0x56291f491058&#45;&gt;Node0x56291f48e5d8 -->
<g id="edge16" class="edge">
<title>Node0x56291f491058&#45;&gt;Node0x56291f48e5d8</title>
<path fill="none" stroke="#7fb2ff" d="M1546,-118.24C1546,-115.75 1546,-113.27 1546,-110.79"/>
<polygon fill="#7fb2ff" stroke="#7fb2ff" points="1549.5,-110.59 1546,-100.59 1542.5,-110.59 1549.5,-110.59"/>
</g>
<!-- Node0x56291f491058&#45;&gt;Node0x56291f4a5878 -->
<g id="edge17" class="edge">
<title>Node0x56291f491058&#45;&gt;Node0x56291f4a5878</title>
<path fill="none" stroke="#7fb2ff" d="M1380.29,-152.82C1365.85,-155.79 1351.58,-159.3 1338,-163.45 1332.3,-165.19 1329.13,-164.37 1326,-169.45 1316.19,-185.32 1316.19,-195.57 1326,-211.45 1329.32,-216.81 1333.11,-221.63 1337.29,-225.94"/>
<polygon fill="#7fb2ff" stroke="#7fb2ff" points="1334.97,-228.56 1344.71,-232.74 1339.7,-223.4 1334.97,-228.56"/>
</g>
<!-- Node0x56291f491058&#45;&gt;Node0x56291f494e88 -->
<g id="edge19" class="edge">
<title>Node0x56291f491058&#45;&gt;Node0x56291f494e88</title>
<path fill="none" stroke="black" d="M1711.67,-125.91C1738.23,-124.21 1765.82,-122.45 1792.64,-120.73"/>
<polygon fill="black" stroke="black" points="1793.12,-124.21 1802.88,-120.07 1792.68,-117.22 1793.12,-124.21"/>
</g>
<!-- Node0x56291f494938 -->
<g id="node20" class="node">
<title>Node0x56291f494938</title>
<polygon fill="#7fb2ff" stroke="black" points="2124.5,-262.45 1815.5,-262.45 1815.5,-226.45 2124.5,-226.45 2124.5,-262.45"/>
<text text-anchor="middle" x="1970" y="-240.75" font-family="Times,serif" font-size="14.00">{lib/libLLVMOrcJIT.a(Speculation.cpp.o)}</text>
</g>
<!-- Node0x56291f491058&#45;&gt;Node0x56291f494938 -->
<g id="edge20" class="edge">
<title>Node0x56291f491058&#45;&gt;Node0x56291f494938</title>
<path fill="none" stroke="#7fb2ff" d="M1711.77,-154.42C1726.13,-157.05 1740.38,-160.04 1754,-163.45 1812.64,-178.11 1877.19,-203.79 1920.11,-222.32"/>
<polygon fill="#7fb2ff" stroke="#7fb2ff" points="1918.9,-225.61 1929.47,-226.39 1921.69,-219.19 1918.9,-225.61"/>
</g>
<!-- Node0x56291f4a5878&#45;&gt;Node0x56291f4a5d28 -->
<g id="edge40" class="edge">
<title>Node0x56291f4a5878&#45;&gt;Node0x56291f4a5d28</title>
<path fill="none" stroke="#7fb2ff" d="M1441.61,-262.45C1378.3,-271.07 1296.48,-280.93 1227.6,-288.3"/>
<polygon fill="#7fb2ff" stroke="#7fb2ff" points="1227.11,-284.83 1217.54,-289.37 1227.85,-291.79 1227.11,-284.83"/>
</g>
<!-- Node0x56291f4a5878&#45;&gt;Node0x56291f48ea38 -->
<g id="edge35" class="edge">
<title>Node0x56291f4a5878&#45;&gt;Node0x56291f48ea38</title>
<path fill="none" stroke="#7fb2ff" d="M1546,-226.24C1546,-223.75 1546,-221.27 1546,-218.79"/>
<polygon fill="#7fb2ff" stroke="#7fb2ff" points="1549.5,-218.59 1546,-208.59 1542.5,-218.59 1549.5,-218.59"/>
</g>
<!-- Node0x56291f4a5878&#45;&gt;Node0x56291f48de08 -->
<g id="edge36" class="edge">
<title>Node0x56291f4a5878&#45;&gt;Node0x56291f48de08</title>
<path fill="none" stroke="#7fb2ff" d="M1344.58,-253.01C1332.44,-260.64 1321.94,-270.59 1314,-283.45 1291.52,-319.81 1323.56,-338.17 1370.32,-347.09"/>
<polygon fill="#7fb2ff" stroke="#7fb2ff" points="1369.73,-350.54 1380.18,-348.81 1370.93,-343.65 1369.73,-350.54"/>
</g>
<!-- Node0x56291f4a5878&#45;&gt;Node0x56291f48e5d8 -->
<g id="edge37" class="edge">
<title>Node0x56291f4a5878&#45;&gt;Node0x56291f48e5d8</title>
<path fill="none" stroke="#7fb2ff" d="M1344.58,-235.88C1332.44,-228.25 1321.94,-218.3 1314,-205.45 1304.19,-189.57 1304.19,-137.32 1314,-121.45 1326.59,-101.08 1345.58,-87.99 1367.38,-79.92"/>
<polygon fill="#7fb2ff" stroke="#7fb2ff" points="1368.49,-83.24 1376.88,-76.77 1366.29,-76.6 1368.49,-83.24"/>
</g>
<!-- Node0x56291f4a5878&#45;&gt;Node0x56291f491058 -->
<g id="edge38" class="edge">
<title>Node0x56291f4a5878&#45;&gt;Node0x56291f491058</title>
<path fill="none" stroke="#7fb2ff" d="M1344.76,-232.68C1313.07,-222.26 1295.94,-204.67 1314,-175.45 1327.21,-154.07 1347.47,-140.72 1370.63,-132.76"/>
<polygon fill="#7fb2ff" stroke="#7fb2ff" points="1371.82,-136.06 1380.36,-129.78 1369.77,-129.37 1371.82,-136.06"/>
</g>
<!-- Node0x56291f4a5878&#45;&gt;Node0x56291f491878 -->
<g id="edge39" class="edge">
<title>Node0x56291f4a5878&#45;&gt;Node0x56291f491878</title>
<path fill="none" stroke="#7fb2ff" d="M1344.71,-256.15C1337.51,-262.03 1331.18,-269.07 1326,-277.45 1314.78,-295.59 1314.78,-355.3 1326,-373.45 1342.93,-400.84 1372.17,-413.89 1403.9,-419.03"/>
<polygon fill="#7fb2ff" stroke="#7fb2ff" points="1403.44,-422.5 1413.82,-420.38 1404.38,-415.57 1403.44,-422.5"/>
</g>
<!-- Node0x56291f495928 -->
<g id="node21" class="node">
<title>Node0x56291f495928</title>
<polygon fill="none" stroke="black" points="2150,-370.45 1790,-370.45 1790,-334.45 2150,-334.45 2150,-370.45"/>
<text text-anchor="middle" x="1970" y="-348.75" font-family="Times,serif" font-size="14.00">{lib/libLLVMOrcJIT.a(ThreadSafeModule.cpp.o)}</text>
</g>
<!-- Node0x56291f4a5878&#45;&gt;Node0x56291f495928 -->
<g id="edge41" class="edge">
<title>Node0x56291f4a5878&#45;&gt;Node0x56291f495928</title>
<path fill="none" stroke="black" d="M1712.05,-262.47C1726.32,-265.08 1740.46,-268.06 1754,-271.45 1812.64,-286.11 1877.19,-311.79 1920.11,-330.32"/>
<polygon fill="black" stroke="black" points="1918.9,-333.61 1929.47,-334.39 1921.69,-327.19 1918.9,-333.61"/>
</g>
<!-- Node0x56291f4a5148&#45;&gt;Node0x56291f490018 -->
<g id="edge42" class="edge">
<title>Node0x56291f4a5148&#45;&gt;Node0x56291f490018</title>
<path fill="none" stroke="#7fb2ff" d="M1386.88,-777.1C1359.5,-770.27 1335.04,-756.78 1320,-732.45 1303.18,-705.23 1303.18,-615.67 1320,-588.45 1331.31,-570.15 1347.94,-557.98 1367.14,-550.17"/>
<polygon fill="#7fb2ff" stroke="#7fb2ff" points="1368.56,-553.38 1376.76,-546.67 1366.17,-546.8 1368.56,-553.38"/>
</g>
<!-- Node0x56291f4a5148&#45;&gt;Node0x56291f48f398 -->
<g id="edge43" class="edge">
<title>Node0x56291f4a5148&#45;&gt;Node0x56291f48f398</title>
<path fill="none" stroke="black" d="M1546,-750.24C1546,-747.75 1546,-745.27 1546,-742.79"/>
<polygon fill="black" stroke="black" points="1549.5,-742.59 1546,-732.59 1542.5,-742.59 1549.5,-742.59"/>
</g>
<!-- Node0x56291f498a38&#45;&gt;Node0x56291f4a5d28 -->
<g id="edge78" class="edge">
<title>Node0x56291f498a38&#45;&gt;Node0x56291f4a5d28</title>
<path fill="none" stroke="#7fb2ff" d="M1353.25,-646.17C1347.82,-642.44 1342.71,-638.22 1338,-633.45 1241.2,-535.34 1398.98,-423.37 1302,-325.45 1282.12,-305.37 1255.33,-294.81 1227.47,-289.9"/>
<polygon fill="#7fb2ff" stroke="#7fb2ff" points="1228,-286.44 1217.58,-288.39 1226.94,-293.36 1228,-286.44"/>
</g>
<!-- Node0x56291f498a38&#45;&gt;Node0x56291f491878 -->
<g id="edge77" class="edge">
<title>Node0x56291f498a38&#45;&gt;Node0x56291f491878</title>
<path fill="none" stroke="#7fb2ff" d="M1353.16,-655.96C1339.9,-648.39 1328.46,-638.13 1320,-624.45 1298.74,-590.04 1298.74,-476.85 1320,-442.45 1338.06,-413.22 1369.7,-399.63 1403.69,-394.45"/>
<polygon fill="#7fb2ff" stroke="#7fb2ff" points="1404.34,-397.9 1413.81,-393.16 1403.45,-390.95 1404.34,-397.9"/>
</g>
<!-- Node0x56291f494168&#45;&gt;Node0x56291f48d048 -->
<g id="edge52" class="edge">
<title>Node0x56291f494168&#45;&gt;Node0x56291f48d048</title>
<path fill="none" stroke="#7fb2ff" d="M1354.3,-442.29C1348.68,-439.64 1343.23,-436.7 1338,-433.45 1313.5,-418.22 1326.52,-394.63 1302,-379.45 1299.51,-377.91 1296.98,-376.43 1294.4,-375.03"/>
<polygon fill="#7fb2ff" stroke="#7fb2ff" points="1295.98,-371.9 1285.47,-370.5 1292.81,-378.15 1295.98,-371.9"/>
</g>
<!-- Node0x56291f494168&#45;&gt;Node0x56291f4a5d28 -->
<g id="edge55" class="edge">
<title>Node0x56291f494168&#45;&gt;Node0x56291f4a5d28</title>
<path fill="none" stroke="#7fb2ff" d="M1350.29,-442.33C1346.02,-439.63 1341.92,-436.67 1338,-433.45 1298.96,-401.26 1341.1,-357.56 1302,-325.45 1280.96,-308.17 1254.59,-298.55 1227.65,-293.63"/>
<polygon fill="#7fb2ff" stroke="#7fb2ff" points="1228.13,-290.16 1217.7,-292.03 1227.02,-297.07 1228.13,-290.16"/>
</g>
<!-- Node0x56291f494168&#45;&gt;Node0x56291f48ea38 -->
<g id="edge51" class="edge">
<title>Node0x56291f494168&#45;&gt;Node0x56291f48ea38</title>
<path fill="none" stroke="#7fb2ff" d="M1337.94,-445.32C1331.07,-439.46 1325.01,-432.56 1320,-424.45 1296.87,-387.02 1296.87,-263.87 1320,-226.45 1335.46,-201.43 1360.88,-187.87 1389.2,-181.23"/>
<polygon fill="#7fb2ff" stroke="#7fb2ff" points="1390.23,-184.6 1399.32,-179.17 1388.83,-177.74 1390.23,-184.6"/>
</g>
<!-- Node0x56291f494168&#45;&gt;Node0x56291f4a5878 -->
<g id="edge54" class="edge">
<title>Node0x56291f494168&#45;&gt;Node0x56291f4a5878</title>
<path fill="none" stroke="#7fb2ff" d="M1337.94,-445.32C1331.07,-439.46 1325.01,-432.56 1320,-424.45 1303.18,-397.23 1303.18,-307.67 1320,-280.45 1324.63,-272.96 1330.14,-266.5 1336.36,-260.95"/>
<polygon fill="#7fb2ff" stroke="#7fb2ff" points="1338.96,-263.35 1344.6,-254.38 1334.6,-257.88 1338.96,-263.35"/>
</g>
<!-- Node0x56291f494168&#45;&gt;Node0x56291f491878 -->
<g id="edge53" class="edge">
<title>Node0x56291f494168&#45;&gt;Node0x56291f491878</title>
<path fill="none" stroke="#7fb2ff" d="M1546,-442.24C1546,-439.75 1546,-437.27 1546,-434.79"/>
<polygon fill="#7fb2ff" stroke="#7fb2ff" points="1549.5,-434.59 1546,-424.59 1542.5,-434.59 1549.5,-434.59"/>
</g>
<!-- Node0x56291f48ec68&#45;&gt;Node0x56291f4a5d28 -->
<g id="edge68" class="edge">
<title>Node0x56291f48ec68&#45;&gt;Node0x56291f4a5d28</title>
<path fill="none" stroke="#7fb2ff" d="M1392.88,-304.85C1339.47,-305.35 1279.78,-305.31 1227.54,-304.71"/>
<polygon fill="#7fb2ff" stroke="#7fb2ff" points="1227.58,-301.21 1217.54,-304.59 1227.5,-308.21 1227.58,-301.21"/>
</g>
<!-- Node0x56291f48ec68&#45;&gt;Node0x56291f4a5878 -->
<g id="edge67" class="edge">
<title>Node0x56291f48ec68&#45;&gt;Node0x56291f4a5878</title>
<path fill="none" stroke="#7fb2ff" d="M1546,-280.24C1546,-277.75 1546,-275.27 1546,-272.79"/>
<polygon fill="#7fb2ff" stroke="#7fb2ff" points="1549.5,-272.59 1546,-262.59 1542.5,-272.59 1549.5,-272.59"/>
</g>
<!-- Node0x56291f491878&#45;&gt;Node0x56291f4a5d28 -->
<g id="edge65" class="edge">
<title>Node0x56291f491878&#45;&gt;Node0x56291f4a5d28</title>
<path fill="none" stroke="#7fb2ff" d="M1413.88,-406.29C1387.32,-401.73 1360.62,-393.51 1338,-379.45 1313.5,-364.22 1326.52,-340.63 1302,-325.45 1279.8,-311.7 1253.8,-303.45 1227.74,-298.73"/>
<polygon fill="#7fb2ff" stroke="#7fb2ff" points="1228.2,-295.26 1217.76,-297.09 1227.06,-302.16 1228.2,-295.26"/>
</g>
<!-- Node0x56291f491878&#45;&gt;Node0x56291f48ea38 -->
<g id="edge62" class="edge">
<title>Node0x56291f491878&#45;&gt;Node0x56291f48ea38</title>
<path fill="none" stroke="#7fb2ff" d="M1413.71,-419.09C1373.77,-415.12 1334.99,-401.41 1314,-367.45 1305.94,-354.4 1305.94,-242.49 1314,-229.45 1330.66,-202.48 1358.54,-188.29 1389.31,-181.59"/>
<polygon fill="#7fb2ff" stroke="#7fb2ff" points="1390.22,-184.98 1399.38,-179.67 1388.91,-178.1 1390.22,-184.98"/>
</g>
<!-- Node0x56291f491878&#45;&gt;Node0x56291f48de08 -->
<g id="edge63" class="edge">
<title>Node0x56291f491878&#45;&gt;Node0x56291f48de08</title>
<path fill="none" stroke="#7fb2ff" d="M1546,-388.24C1546,-385.75 1546,-383.27 1546,-380.79"/>
<polygon fill="#7fb2ff" stroke="#7fb2ff" points="1549.5,-380.59 1546,-370.59 1542.5,-380.59 1549.5,-380.59"/>
</g>
<!-- Node0x56291f491878&#45;&gt;Node0x56291f4a5878 -->
<g id="edge64" class="edge">
<title>Node0x56291f491878&#45;&gt;Node0x56291f4a5878</title>
<path fill="none" stroke="#7fb2ff" d="M1413.71,-419.09C1373.77,-415.12 1334.99,-401.41 1314,-367.45 1304.19,-351.57 1304.19,-299.32 1314,-283.45 1320.08,-273.6 1327.66,-265.46 1336.33,-258.77"/>
<polygon fill="#7fb2ff" stroke="#7fb2ff" points="1338.38,-261.6 1344.58,-253.01 1334.38,-255.86 1338.38,-261.6"/>
</g>
<!-- Node0x56291f491878&#45;&gt;Node0x56291f495928 -->
<g id="edge66" class="edge">
<title>Node0x56291f491878&#45;&gt;Node0x56291f495928</title>
<path fill="none" stroke="black" d="M1678.21,-389.66C1722.5,-383.99 1772.3,-377.62 1818,-371.77"/>
<polygon fill="black" stroke="black" points="1818.51,-375.23 1827.99,-370.49 1817.62,-368.29 1818.51,-375.23"/>
</g>
<!-- Node0x56291f494938&#45;&gt;Node0x56291f490ba8 -->
<g id="edge71" class="edge">
<title>Node0x56291f494938&#45;&gt;Node0x56291f490ba8</title>
<path fill="none" stroke="#7fb2ff" d="M1884.54,-262.48C1849.59,-274.4 1812.12,-293.88 1790,-325.45 1729.89,-411.24 1830.85,-724.26 1754,-795.45 1686.18,-858.27 1420.6,-836.97 1338,-795.45 1205.9,-729.04 1126.2,-555.7 1099.29,-488.05"/>
<polygon fill="#7fb2ff" stroke="#7fb2ff" points="1102.46,-486.54 1095.56,-478.5 1095.93,-489.09 1102.46,-486.54"/>
</g>
<!-- Node0x56291f494938&#45;&gt;Node0x56291f4a5d28 -->
<g id="edge73" class="edge">
<title>Node0x56291f494938&#45;&gt;Node0x56291f4a5d28</title>
<path fill="none" stroke="#7fb2ff" d="M1923.23,-226.29C1883.51,-208.53 1826.74,-178.08 1790,-136.45 1763.93,-106.91 1787.03,-76.91 1754,-55.45 1676.49,-5.07 1423.62,-20.59 1338,-55.45 1228.53,-100.01 1140.93,-218.42 1105.72,-271.75"/>
<polygon fill="#7fb2ff" stroke="#7fb2ff" points="1102.67,-270.04 1100.15,-280.33 1108.53,-273.85 1102.67,-270.04"/>
</g>
<!-- Node0x56291f494938&#45;&gt;Node0x56291f497cc8 -->
<g id="edge74" class="edge">
<title>Node0x56291f494938&#45;&gt;Node0x56291f497cc8</title>
<path fill="none" stroke="#7fb2ff" d="M1891.16,-262.45C1855.39,-274.56 1815.38,-294.21 1790,-325.45 1743.49,-382.69 1811.53,-441.29 1754,-487.45 1717.94,-516.37 1378.75,-509.26 1338,-487.45 1312.57,-473.84 1326.52,-448.63 1302,-433.45 1294.82,-429 1287.25,-425.13 1279.41,-421.77"/>
<polygon fill="#7fb2ff" stroke="#7fb2ff" points="1280.67,-418.51 1270.09,-418.06 1278.08,-425.01 1280.67,-418.51"/>
</g>
<!-- Node0x56291f494938&#45;&gt;Node0x56291f48ea38 -->
<g id="edge69" class="edge">
<title>Node0x56291f494938&#45;&gt;Node0x56291f48ea38</title>
<path fill="none" stroke="#7fb2ff" d="M1828.2,-226.43C1786.37,-221.08 1740.39,-215.19 1697.95,-209.76"/>
<polygon fill="#7fb2ff" stroke="#7fb2ff" points="1698.18,-206.26 1687.81,-208.46 1697.29,-213.21 1698.18,-206.26"/>
</g>
<!-- Node0x56291f494938&#45;&gt;Node0x56291f4a5878 -->
<g id="edge72" class="edge">
<title>Node0x56291f494938&#45;&gt;Node0x56291f4a5878</title>
<path fill="none" stroke="#7fb2ff" d="M1815.26,-244.45C1796.41,-244.45 1776.89,-244.45 1757.38,-244.45"/>
<polygon fill="#7fb2ff" stroke="#7fb2ff" points="1757.19,-240.95 1747.19,-244.45 1757.19,-247.95 1757.19,-240.95"/>
</g>
<!-- Node0x56291f494938&#45;&gt;Node0x56291f491878 -->
<g id="edge70" class="edge">
<title>Node0x56291f494938&#45;&gt;Node0x56291f491878</title>
<path fill="none" stroke="#7fb2ff" d="M1907.85,-262.54C1870.84,-275.68 1824.32,-296.31 1790,-325.45 1768.01,-344.11 1778.5,-364.22 1754,-379.45 1734.21,-391.75 1711.29,-399.58 1688.08,-404.4"/>
<polygon fill="#7fb2ff" stroke="#7fb2ff" points="1687.29,-400.99 1678.12,-406.29 1688.59,-407.87 1687.29,-400.99"/>
</g>
<!-- Node0x56291f4964b8 -->
<g id="node22" class="node">
<title>Node0x56291f4964b8</title>
<polygon fill="none" stroke="black" points="821.5,-316.45 441.5,-316.45 441.5,-280.45 821.5,-280.45 821.5,-316.45"/>
<text text-anchor="middle" x="631.5" y="-294.75" font-family="Times,serif" font-size="14.00">{lib/libLLVMOrcJIT.a(TargetProcessControl.cpp.o)}</text>
</g>
<!-- Node0x56291f4964b8&#45;&gt;Node0x56291f4a5d28 -->
<g id="edge56" class="edge">
<title>Node0x56291f4964b8&#45;&gt;Node0x56291f4a5d28</title>
<path fill="none" stroke="black" d="M821.63,-298.45C864.1,-298.45 908.39,-298.45 948.35,-298.45"/>
<polygon fill="black" stroke="black" points="948.41,-301.95 958.41,-298.45 948.41,-294.95 948.41,-301.95"/>
</g>
<!-- Node0x56291f495d88 -->
<g id="node23" class="node">
<title>Node0x56291f495d88</title>
<polygon fill="none" stroke="black" points="838,-478.45 425,-478.45 425,-442.45 838,-442.45 838,-478.45"/>
<text text-anchor="middle" x="631.5" y="-456.75" font-family="Times,serif" font-size="14.00">{lib/libLLVMOrcJIT.a(TPCDebugObjectRegistrar.cpp.o)}</text>
</g>
<!-- Node0x56291f495d88&#45;&gt;Node0x56291f48d048 -->
<g id="edge57" class="edge">
<title>Node0x56291f495d88&#45;&gt;Node0x56291f48d048</title>
<path fill="none" stroke="black" d="M821.82,-442.24C827.4,-439.6 832.81,-436.68 838,-433.45 862.49,-418.2 849.48,-394.63 874,-379.45 876.49,-377.91 879.02,-376.43 881.6,-375.03"/>
<polygon fill="black" stroke="black" points="883.19,-378.15 890.53,-370.5 880.02,-371.9 883.19,-378.15"/>
</g>
<!-- Node0x56291f495d88&#45;&gt;Node0x56291f490ba8 -->
<g id="edge58" class="edge">
<title>Node0x56291f495d88&#45;&gt;Node0x56291f490ba8</title>
<path fill="none" stroke="black" d="M838.14,-460.45C875.05,-460.45 912.72,-460.45 947.22,-460.45"/>
<polygon fill="black" stroke="black" points="947.34,-463.95 957.34,-460.45 947.34,-456.95 947.34,-463.95"/>
</g>
<!-- Node0x56291f492868 -->
<g id="node24" class="node">
<title>Node0x56291f492868</title>
<polygon fill="none" stroke="black" points="389,-478.45 0,-478.45 0,-442.45 389,-442.45 389,-478.45"/>
<text text-anchor="middle" x="194.5" y="-456.75" font-family="Times,serif" font-size="14.00">{lib/libLLVMOrcJIT.a(TPCEHFrameRegistrar.cpp.o)}</text>
</g>
<!-- Node0x56291f492868&#45;&gt;Node0x56291f48d048 -->
<g id="edge59" class="edge">
<title>Node0x56291f492868&#45;&gt;Node0x56291f48d048</title>
<path fill="none" stroke="black" d="M235.11,-442.36C280.07,-422.82 356.12,-392.69 425,-379.45 569.35,-351.68 734.55,-344.91 863.82,-345.09"/>
<polygon fill="black" stroke="black" points="863.84,-348.59 873.85,-345.12 863.86,-341.59 863.84,-348.59"/>
</g>
<!-- Node0x56291f492868&#45;&gt;Node0x56291f490ba8 -->
<g id="edge60" class="edge">
<title>Node0x56291f492868&#45;&gt;Node0x56291f490ba8</title>
<path fill="none" stroke="black" d="M325.74,-478.45C358.1,-482.19 392.76,-485.56 425,-487.45 608.24,-498.19 654.71,-497.35 838,-487.45 873.52,-485.53 911.77,-482.08 947.37,-478.27"/>
<polygon fill="black" stroke="black" points="947.77,-481.75 957.34,-477.19 947.02,-474.79 947.77,-481.75"/>
</g>
<!-- Node0x56291f492868&#45;&gt;Node0x56291f495d88 -->
<g id="edge61" class="edge">
<title>Node0x56291f492868&#45;&gt;Node0x56291f495d88</title>
<path fill="none" stroke="black" d="M389.15,-460.45C397.53,-460.45 405.96,-460.45 414.39,-460.45"/>
<polygon fill="black" stroke="black" points="414.66,-463.95 424.66,-460.45 414.66,-456.95 414.66,-463.95"/>
</g>
</g>
</svg>
