<?xml version="1.0" encoding="UTF-8" standalone="no"?>
<!DOCTYPE svg PUBLIC "-//W3C//DTD SVG 1.1//EN"
 "http://www.w3.org/Graphics/SVG/1.1/DTD/svg11.dtd">
<!-- Generated by graphviz version 2.43.0 (0)
 -->
<!-- Title: lib/libLTO.so.13git_lib/libLLVMLTO.a Pages: 1 -->
<svg width="2224pt" height="331pt"
 viewBox="0.00 0.00 2224.00 331.00" xmlns="http://www.w3.org/2000/svg" xmlns:xlink="http://www.w3.org/1999/xlink">
<g id="graph0" class="graph" transform="scale(1 1) rotate(0) translate(4 327)">
<title>lib/libLTO.so.13git_lib/libLLVMLTO.a</title>
<polygon fill="white" stroke="transparent" points="-4,4 -4,-327 2220,-327 2220,4 -4,4"/>
<text text-anchor="middle" x="1108" y="-7.8" font-family="Times,serif" font-size="14.00">lib/libLTO.so.13git_lib/libLLVMLTO.a</text>
<!-- Node0x55bcb79bff18 -->
<g id="node1" class="node">
<title>Node0x55bcb79bff18</title>
<polygon fill="#7fb2ff" stroke="black" points="1758,-163 1521,-163 1521,-127 1758,-127 1758,-163"/>
<text text-anchor="middle" x="1639.5" y="-141.3" font-family="Times,serif" font-size="14.00">{lib/libLLVMLTO.a(LTO.cpp.o)}</text>
</g>
<!-- Node0x55bcb79b2ef8 -->
<g id="node2" class="node">
<title>Node0x55bcb79b2ef8</title>
<polygon fill="#7fb2ff" stroke="black" points="2154.5,-163 1855.5,-163 1855.5,-127 2154.5,-127 2154.5,-163"/>
<text text-anchor="middle" x="2005" y="-141.3" font-family="Times,serif" font-size="14.00">{lib/libLLVMLTO.a(LTOBackend.cpp.o)}</text>
</g>
<!-- Node0x55bcb79bff18&#45;&gt;Node0x55bcb79b2ef8 -->
<g id="edge1" class="edge">
<title>Node0x55bcb79bff18&#45;&gt;Node0x55bcb79b2ef8</title>
<path fill="none" stroke="#7fb2ff" d="M1758.02,-138.64C1785.76,-138.29 1815.79,-138.18 1845.02,-138.3"/>
<polygon fill="#7fb2ff" stroke="#7fb2ff" points="1845.3,-141.8 1855.32,-138.35 1845.34,-134.8 1845.3,-141.8"/>
</g>
<!-- Node0x55bcb79c36b8 -->
<g id="node3" class="node">
<title>Node0x55bcb79c36b8</title>
<polygon fill="none" stroke="black" points="2216,-323 1794,-323 1794,-287 2216,-287 2216,-323"/>
<text text-anchor="middle" x="2005" y="-301.3" font-family="Times,serif" font-size="14.00">{lib/libLLVMLTO.a(SummaryBasedOptimizations.cpp.o)}</text>
</g>
<!-- Node0x55bcb79bff18&#45;&gt;Node0x55bcb79c36b8 -->
<g id="edge2" class="edge">
<title>Node0x55bcb79bff18&#45;&gt;Node0x55bcb79c36b8</title>
<path fill="none" stroke="black" d="M1681.49,-163.04C1748.39,-192.49 1880.86,-250.8 1953.47,-282.76"/>
<polygon fill="black" stroke="black" points="1952.32,-286.08 1962.88,-286.9 1955.14,-279.67 1952.32,-286.08"/>
</g>
<!-- Node0x55bcb79b2ef8&#45;&gt;Node0x55bcb79bff18 -->
<g id="edge13" class="edge">
<title>Node0x55bcb79b2ef8&#45;&gt;Node0x55bcb79bff18</title>
<path fill="none" stroke="#7fb2ff" d="M1855.32,-151.65C1826.45,-151.83 1796.42,-151.77 1768.29,-151.48"/>
<polygon fill="#7fb2ff" stroke="#7fb2ff" points="1768.06,-147.98 1758.02,-151.36 1767.98,-154.98 1768.06,-147.98"/>
</g>
<!-- Node0x55bcb79c7538 -->
<g id="node4" class="node">
<title>Node0x55bcb79c7538</title>
<polygon fill="none" stroke="black" points="1485,-247 1194,-247 1194,-211 1485,-211 1485,-247"/>
<text text-anchor="middle" x="1339.5" y="-225.3" font-family="Times,serif" font-size="14.00">{lib/libLLVMLTO.a(LTOModule.cpp.o)}</text>
</g>
<!-- Node0x55bcb79c7538&#45;&gt;Node0x55bcb79bff18 -->
<g id="edge3" class="edge">
<title>Node0x55bcb79c7538&#45;&gt;Node0x55bcb79bff18</title>
<path fill="none" stroke="black" d="M1416.47,-210.97C1438.63,-205.46 1462.85,-199.22 1485,-193 1514.33,-184.77 1546.54,-174.83 1573.85,-166.15"/>
<polygon fill="black" stroke="black" points="1575.21,-169.38 1583.67,-163.01 1573.08,-162.72 1575.21,-169.38"/>
</g>
<!-- Node0x55bcb79c4658 -->
<g id="node5" class="node">
<title>Node0x55bcb79c4658</title>
<polygon fill="none" stroke="black" points="758,-239 413,-239 413,-203 758,-203 758,-239"/>
<text text-anchor="middle" x="585.5" y="-217.3" font-family="Times,serif" font-size="14.00">{lib/libLLVMLTO.a(LTOCodeGenerator.cpp.o)}</text>
</g>
<!-- Node0x55bcb79c4658&#45;&gt;Node0x55bcb79bff18 -->
<g id="edge4" class="edge">
<title>Node0x55bcb79c4658&#45;&gt;Node0x55bcb79bff18</title>
<path fill="none" stroke="black" d="M630.93,-202.94C672.34,-187.11 736.22,-165.22 794,-156 1045.38,-115.87 1344.21,-125.11 1510.51,-135.22"/>
<polygon fill="black" stroke="black" points="1510.59,-138.73 1520.78,-135.85 1511.02,-131.74 1510.59,-138.73"/>
</g>
<!-- Node0x55bcb79c4658&#45;&gt;Node0x55bcb79b2ef8 -->
<g id="edge5" class="edge">
<title>Node0x55bcb79c4658&#45;&gt;Node0x55bcb79b2ef8</title>
<path fill="none" stroke="black" d="M614.96,-202.83C653.67,-179.28 725.93,-139.42 794,-124 1188.84,-34.56 1674.82,-91.66 1891.04,-125.37"/>
<polygon fill="black" stroke="black" points="1890.71,-128.86 1901.13,-126.96 1891.8,-121.95 1890.71,-128.86"/>
</g>
<!-- Node0x55bcb79c4658&#45;&gt;Node0x55bcb79c7538 -->
<g id="edge6" class="edge">
<title>Node0x55bcb79c4658&#45;&gt;Node0x55bcb79c7538</title>
<path fill="none" stroke="black" d="M758.08,-222.83C886.15,-224.19 1059.68,-226.03 1183.57,-227.35"/>
<polygon fill="black" stroke="black" points="1183.86,-230.85 1193.9,-227.46 1183.93,-223.86 1183.86,-230.85"/>
</g>
<!-- Node0x55bcb79c39d8 -->
<g id="node6" class="node">
<title>Node0x55bcb79c39d8</title>
<polygon fill="none" stroke="black" points="1158,-201 794,-201 794,-165 1158,-165 1158,-201"/>
<text text-anchor="middle" x="976" y="-179.3" font-family="Times,serif" font-size="14.00">{lib/libLLVMLTO.a(UpdateCompilerUsed.cpp.o)}</text>
</g>
<!-- Node0x55bcb79c4658&#45;&gt;Node0x55bcb79c39d8 -->
<g id="edge7" class="edge">
<title>Node0x55bcb79c4658&#45;&gt;Node0x55bcb79c39d8</title>
<path fill="none" stroke="black" d="M758.03,-204.22C766.58,-203.39 775.19,-202.54 783.78,-201.7"/>
<polygon fill="black" stroke="black" points="784.26,-205.17 793.87,-200.72 783.58,-198.21 784.26,-205.17"/>
</g>
<!-- Node0x55bcb79c39d8&#45;&gt;Node0x55bcb79bff18 -->
<g id="edge14" class="edge">
<title>Node0x55bcb79c39d8&#45;&gt;Node0x55bcb79bff18</title>
<path fill="none" stroke="black" d="M1158.2,-172.59C1269.88,-166.18 1410.38,-158.1 1510.51,-152.35"/>
<polygon fill="black" stroke="black" points="1510.9,-155.84 1520.68,-151.77 1510.5,-148.85 1510.9,-155.84"/>
</g>
<!-- Node0x55bcb79c39d8&#45;&gt;Node0x55bcb79c7538 -->
<g id="edge15" class="edge">
<title>Node0x55bcb79c39d8&#45;&gt;Node0x55bcb79c7538</title>
<path fill="none" stroke="black" d="M1118.58,-201.02C1140.99,-203.87 1164.25,-206.83 1186.88,-209.71"/>
<polygon fill="black" stroke="black" points="1186.52,-213.19 1196.88,-210.98 1187.4,-206.24 1186.52,-213.19"/>
</g>
<!-- Node0x55bcb79c5a08 -->
<g id="node7" class="node">
<title>Node0x55bcb79c5a08</title>
<polygon fill="none" stroke="black" points="377,-285 0,-285 0,-249 377,-249 377,-285"/>
<text text-anchor="middle" x="188.5" y="-263.3" font-family="Times,serif" font-size="14.00">{lib/libLLVMLTO.a(ThinLTOCodeGenerator.cpp.o)}</text>
</g>
<!-- Node0x55bcb79c5a08&#45;&gt;Node0x55bcb79bff18 -->
<g id="edge8" class="edge">
<title>Node0x55bcb79c5a08&#45;&gt;Node0x55bcb79bff18</title>
<path fill="none" stroke="black" d="M238.22,-248.99C283.12,-232.9 351.87,-209.52 413,-194 579.87,-151.62 622.56,-139.83 794,-124 971.02,-107.65 1016.22,-123.22 1194,-123 1323.33,-122.84 1355.99,-113.8 1485,-123 1495.07,-123.72 1505.49,-124.7 1515.93,-125.85"/>
<polygon fill="black" stroke="black" points="1515.61,-129.33 1525.94,-127 1516.41,-122.38 1515.61,-129.33"/>
</g>
<!-- Node0x55bcb79c5a08&#45;&gt;Node0x55bcb79b2ef8 -->
<g id="edge9" class="edge">
<title>Node0x55bcb79c5a08&#45;&gt;Node0x55bcb79b2ef8</title>
<path fill="none" stroke="black" d="M211.36,-248.78C249.63,-217.91 332.37,-155.6 413,-124 649.28,-31.4 721.22,-23 975,-23 975,-23 975,-23 1340.5,-23 1561.5,-23 1817.19,-89.28 1936.36,-124.14"/>
<polygon fill="black" stroke="black" points="1935.5,-127.53 1946.08,-127 1937.48,-120.82 1935.5,-127.53"/>
</g>
<!-- Node0x55bcb79c5a08&#45;&gt;Node0x55bcb79c36b8 -->
<g id="edge12" class="edge">
<title>Node0x55bcb79c5a08&#45;&gt;Node0x55bcb79c36b8</title>
<path fill="none" stroke="black" d="M377.05,-281.18C536.11,-291.98 770.37,-305 975,-305 975,-305 975,-305 1340.5,-305 1488.27,-305 1654.55,-305 1783.69,-305"/>
<polygon fill="black" stroke="black" points="1783.7,-308.5 1793.7,-305 1783.7,-301.5 1783.7,-308.5"/>
</g>
<!-- Node0x55bcb79c5a08&#45;&gt;Node0x55bcb79c7538 -->
<g id="edge10" class="edge">
<title>Node0x55bcb79c5a08&#45;&gt;Node0x55bcb79c7538</title>
<path fill="none" stroke="black" d="M377.04,-263.6C572.19,-259.64 886.61,-252.05 1158,-240 1166.34,-239.63 1174.9,-239.22 1183.53,-238.78"/>
<polygon fill="black" stroke="black" points="1183.9,-242.26 1193.7,-238.25 1183.53,-235.27 1183.9,-242.26"/>
</g>
<!-- Node0x55bcb79c5a08&#45;&gt;Node0x55bcb79c4658 -->
<g id="edge11" class="edge">
<title>Node0x55bcb79c5a08&#45;&gt;Node0x55bcb79c4658</title>
<path fill="none" stroke="black" d="M344.2,-248.98C368.91,-246.11 394.55,-243.12 419.49,-240.22"/>
<polygon fill="black" stroke="black" points="420.23,-243.65 429.75,-239.02 419.42,-236.7 420.23,-243.65"/>
</g>
</g>
</svg>
