<?xml version="1.0" encoding="UTF-8" standalone="no"?>
<!DOCTYPE svg PUBLIC "-//W3C//DTD SVG 1.1//EN"
 "http://www.w3.org/Graphics/SVG/1.1/DTD/svg11.dtd">
<!-- Generated by graphviz version 2.43.0 (0)
 -->
<!-- Title: cmTC_0c3eb Pages: 1 -->
<svg width="1087pt" height="213pt"
 viewBox="0.00 0.00 1086.50 213.00" xmlns="http://www.w3.org/2000/svg" xmlns:xlink="http://www.w3.org/1999/xlink">
<g id="graph0" class="graph" transform="scale(1 1) rotate(0) translate(4 209)">
<title>cmTC_0c3eb</title>
<polygon fill="white" stroke="transparent" points="-4,4 -4,-209 1082.5,-209 1082.5,4 -4,4"/>
<text text-anchor="middle" x="539.25" y="-7.8" font-family="Times,serif" font-size="14.00">cmTC_0c3eb</text>
<!-- Node0x56250ee31c28 -->
<g id="node1" class="node">
<title>Node0x56250ee31c28</title>
<polygon fill="none" stroke="black" points="195,-168.5 195,-204.5 653,-204.5 653,-168.5 195,-168.5"/>
<text text-anchor="middle" x="424" y="-182.8" font-family="Times,serif" font-size="14.00">/usr/lib/gcc/x86_64&#45;linux&#45;gnu/9/../../../x86_64&#45;linux&#45;gnu/Scrt1.o</text>
</g>
<!-- Node0x56250ee31d90 -->
<g id="node2" class="node">
<title>Node0x56250ee31d90</title>
<polygon fill="none" stroke="black" points="452.5,-95.5 452.5,-131.5 739.5,-131.5 739.5,-95.5 452.5,-95.5"/>
<text text-anchor="middle" x="596" y="-109.8" font-family="Times,serif" font-size="14.00">CMakeFiles/cmTC_0c3eb.dir/src.cxx.o</text>
</g>
<!-- Node0x56250ee31c28&#45;&gt;Node0x56250ee31d90 -->
<g id="edge1" class="edge">
<title>Node0x56250ee31c28&#45;&gt;Node0x56250ee31d90</title>
<path fill="none" stroke="black" d="M465.2,-168.49C489.17,-158.6 519.58,-146.04 545.05,-135.53"/>
<polygon fill="black" stroke="black" points="546.63,-138.66 554.54,-131.61 543.96,-132.19 546.63,-138.66"/>
</g>
<!-- Node0x56250ee32018 -->
<g id="node3" class="node">
<title>Node0x56250ee32018</title>
<polygon fill="none" stroke="black" points="0,-95.5 0,-131.5 396,-131.5 396,-95.5 0,-95.5"/>
<text text-anchor="middle" x="198" y="-109.8" font-family="Times,serif" font-size="14.00">/usr/lib/x86_64&#45;linux&#45;gnu/libc_nonshared.a(elf&#45;init.oS)</text>
</g>
<!-- Node0x56250ee31c28&#45;&gt;Node0x56250ee32018 -->
<g id="edge2" class="edge">
<title>Node0x56250ee31c28&#45;&gt;Node0x56250ee32018</title>
<path fill="none" stroke="black" d="M369.87,-168.49C337.54,-158.34 296.29,-145.38 262.31,-134.7"/>
<polygon fill="black" stroke="black" points="263.06,-131.27 252.47,-131.61 260.97,-137.95 263.06,-131.27"/>
</g>
<!-- Node0x56250ee32cc0 -->
<g id="node4" class="node">
<title>Node0x56250ee32cc0</title>
<ellipse fill="none" stroke="black" cx="596" cy="-41" rx="113.98" ry="18"/>
<text text-anchor="middle" x="596" y="-37.3" font-family="Times,serif" font-size="14.00">Node0x56250ee32cc0</text>
</g>
<!-- Node0x56250ee31c28&#45;&gt;Node0x56250ee32cc0 -->
<g id="edge3" class="edge">
<title>Node0x56250ee31c28&#45;&gt;Node0x56250ee32cc0</title>
<path fill="none" stroke="black" d="M422.88,-168.3C422.53,-148.28 425.07,-115.36 443,-95 459.25,-76.55 482.25,-64.52 505.5,-56.68"/>
<polygon fill="black" stroke="black" points="506.6,-60 515.1,-53.67 504.51,-53.32 506.6,-60"/>
</g>
<!-- Node0x56250ee31d90&#45;&gt;Node0x56250ee32cc0 -->
<g id="edge6" class="edge">
<title>Node0x56250ee31d90&#45;&gt;Node0x56250ee32cc0</title>
<path fill="none" stroke="black" d="M596,-95.43C596,-87.67 596,-78.28 596,-69.56"/>
<polygon fill="black" stroke="black" points="599.5,-69.4 596,-59.4 592.5,-69.4 599.5,-69.4"/>
</g>
<!-- Node0x56250ee32c78 -->
<g id="node7" class="node">
<title>Node0x56250ee32c78</title>
<ellipse fill="none" stroke="black" cx="198" cy="-41" rx="114.28" ry="18"/>
<text text-anchor="middle" x="198" y="-37.3" font-family="Times,serif" font-size="14.00">Node0x56250ee32c78</text>
</g>
<!-- Node0x56250ee32018&#45;&gt;Node0x56250ee32c78 -->
<g id="edge7" class="edge">
<title>Node0x56250ee32018&#45;&gt;Node0x56250ee32c78</title>
<path fill="none" stroke="black" d="M198,-95.43C198,-87.67 198,-78.28 198,-69.56"/>
<polygon fill="black" stroke="black" points="201.5,-69.4 198,-59.4 194.5,-69.4 201.5,-69.4"/>
</g>
<!-- Node0x56250ee328d0 -->
<g id="node5" class="node">
<title>Node0x56250ee328d0</title>
<polygon fill="none" stroke="black" points="757.5,-95.5 757.5,-131.5 1078.5,-131.5 1078.5,-95.5 757.5,-95.5"/>
<text text-anchor="middle" x="918" y="-109.8" font-family="Times,serif" font-size="14.00">/usr/lib/gcc/x86_64&#45;linux&#45;gnu/9/crtbeginS.o</text>
</g>
<!-- Node0x56250ee328d0&#45;&gt;Node0x56250ee32cc0 -->
<g id="edge5" class="edge">
<title>Node0x56250ee328d0&#45;&gt;Node0x56250ee32cc0</title>
<path fill="none" stroke="black" d="M840.05,-95.43C788.23,-84.09 720.59,-69.28 669.67,-58.13"/>
<polygon fill="black" stroke="black" points="670.24,-54.67 659.72,-55.95 668.74,-61.51 670.24,-54.67"/>
</g>
<!-- Node0x56250ee32c30 -->
<g id="node6" class="node">
<title>Node0x56250ee32c30</title>
<ellipse fill="none" stroke="black" cx="918" cy="-41" rx="114.28" ry="18"/>
<text text-anchor="middle" x="918" y="-37.3" font-family="Times,serif" font-size="14.00">Node0x56250ee32c30</text>
</g>
<!-- Node0x56250ee328d0&#45;&gt;Node0x56250ee32c30 -->
<g id="edge4" class="edge">
<title>Node0x56250ee328d0&#45;&gt;Node0x56250ee32c30</title>
<path fill="none" stroke="black" d="M918,-95.43C918,-87.67 918,-78.28 918,-69.56"/>
<polygon fill="black" stroke="black" points="921.5,-69.4 918,-59.4 914.5,-69.4 921.5,-69.4"/>
</g>
</g>
</svg>
