<?xml version="1.0" encoding="UTF-8" standalone="no"?>
<!DOCTYPE svg PUBLIC "-//W3C//DTD SVG 1.1//EN"
 "http://www.w3.org/Graphics/SVG/1.1/DTD/svg11.dtd">
<!-- Generated by graphviz version 2.43.0 (0)
 -->
<!-- Title: cmTC_99a63 Pages: 1 -->
<svg width="1155pt" height="213pt"
 viewBox="0.00 0.00 1155.03 213.00" xmlns="http://www.w3.org/2000/svg" xmlns:xlink="http://www.w3.org/1999/xlink">
<g id="graph0" class="graph" transform="scale(1 1) rotate(0) translate(4 209)">
<title>cmTC_99a63</title>
<polygon fill="white" stroke="transparent" points="-4,4 -4,-209 1151.03,-209 1151.03,4 -4,4"/>
<text text-anchor="middle" x="573.51" y="-7.8" font-family="Times,serif" font-size="14.00">cmTC_99a63</text>
<!-- Node0x5621da571960 -->
<g id="node1" class="node">
<title>Node0x5621da571960</title>
<polygon fill="none" stroke="black" points="218.69,-168.5 218.69,-204.5 676.69,-204.5 676.69,-168.5 218.69,-168.5"/>
<text text-anchor="middle" x="447.69" y="-182.8" font-family="Times,serif" font-size="14.00">/usr/lib/gcc/x86_64&#45;linux&#45;gnu/9/../../../x86_64&#45;linux&#45;gnu/Scrt1.o</text>
</g>
<!-- Node0x5621da5719a8 -->
<g id="node2" class="node">
<title>Node0x5621da5719a8</title>
<ellipse fill="none" stroke="black" cx="115.69" cy="-113.5" rx="115.88" ry="18"/>
<text text-anchor="middle" x="115.69" y="-109.8" font-family="Times,serif" font-size="14.00">Node0x5621da5719a8</text>
</g>
<!-- Node0x5621da571960&#45;&gt;Node0x5621da5719a8 -->
<g id="edge1" class="edge">
<title>Node0x5621da571960&#45;&gt;Node0x5621da5719a8</title>
<path fill="none" stroke="black" d="M368.17,-168.49C314.37,-156.99 243.77,-141.89 190.9,-130.58"/>
<polygon fill="black" stroke="black" points="191.42,-127.12 180.91,-128.45 189.96,-133.96 191.42,-127.12"/>
</g>
<!-- Node0x5621da572698 -->
<g id="node3" class="node">
<title>Node0x5621da572698</title>
<polygon fill="none" stroke="black" points="249.69,-95.5 249.69,-131.5 645.69,-131.5 645.69,-95.5 249.69,-95.5"/>
<text text-anchor="middle" x="447.69" y="-109.8" font-family="Times,serif" font-size="14.00">/usr/lib/x86_64&#45;linux&#45;gnu/libc_nonshared.a(elf&#45;init.oS)</text>
</g>
<!-- Node0x5621da571960&#45;&gt;Node0x5621da572698 -->
<g id="edge2" class="edge">
<title>Node0x5621da571960&#45;&gt;Node0x5621da572698</title>
<path fill="none" stroke="black" d="M447.69,-168.31C447.69,-160.29 447.69,-150.55 447.69,-141.57"/>
<polygon fill="black" stroke="black" points="451.19,-141.53 447.69,-131.53 444.19,-141.53 451.19,-141.53"/>
</g>
<!-- Node0x5621da571d08 -->
<g id="node4" class="node">
<title>Node0x5621da571d08</title>
<ellipse fill="none" stroke="black" cx="779.69" cy="-113.5" rx="116.18" ry="18"/>
<text text-anchor="middle" x="779.69" y="-109.8" font-family="Times,serif" font-size="14.00">Node0x5621da571d08</text>
</g>
<!-- Node0x5621da571960&#45;&gt;Node0x5621da571d08 -->
<g id="edge3" class="edge">
<title>Node0x5621da571960&#45;&gt;Node0x5621da571d08</title>
<path fill="none" stroke="black" d="M527.21,-168.49C581.01,-156.99 651.61,-141.89 704.48,-130.58"/>
<polygon fill="black" stroke="black" points="705.42,-133.96 714.47,-128.45 703.96,-127.12 705.42,-133.96"/>
</g>
<!-- Node0x5621da572920 -->
<g id="node7" class="node">
<title>Node0x5621da572920</title>
<ellipse fill="none" stroke="black" cx="447.69" cy="-41" rx="116.18" ry="18"/>
<text text-anchor="middle" x="447.69" y="-37.3" font-family="Times,serif" font-size="14.00">Node0x5621da572920</text>
</g>
<!-- Node0x5621da572698&#45;&gt;Node0x5621da572920 -->
<g id="edge6" class="edge">
<title>Node0x5621da572698&#45;&gt;Node0x5621da572920</title>
<path fill="none" stroke="black" d="M447.69,-95.43C447.69,-87.67 447.69,-78.28 447.69,-69.56"/>
<polygon fill="black" stroke="black" points="451.19,-69.4 447.69,-59.4 444.19,-69.4 451.19,-69.4"/>
</g>
<!-- Node0x5621da571de0 -->
<g id="node5" class="node">
<title>Node0x5621da571de0</title>
<polygon fill="none" stroke="black" points="782.19,-168.5 782.19,-204.5 1103.19,-204.5 1103.19,-168.5 782.19,-168.5"/>
<text text-anchor="middle" x="942.69" y="-182.8" font-family="Times,serif" font-size="14.00">/usr/lib/gcc/x86_64&#45;linux&#45;gnu/9/crtbeginS.o</text>
</g>
<!-- Node0x5621da571de0&#45;&gt;Node0x5621da571d08 -->
<g id="edge5" class="edge">
<title>Node0x5621da571de0&#45;&gt;Node0x5621da571d08</title>
<path fill="none" stroke="black" d="M903.65,-168.49C880.37,-158.35 850.67,-145.42 826.18,-134.75"/>
<polygon fill="black" stroke="black" points="827.3,-131.42 816.73,-130.64 824.5,-137.84 827.3,-131.42"/>
</g>
<!-- Node0x5621da572218 -->
<g id="node6" class="node">
<title>Node0x5621da572218</title>
<ellipse fill="none" stroke="black" cx="1030.69" cy="-113.5" rx="116.18" ry="18"/>
<text text-anchor="middle" x="1030.69" y="-109.8" font-family="Times,serif" font-size="14.00">Node0x5621da572218</text>
</g>
<!-- Node0x5621da571de0&#45;&gt;Node0x5621da572218 -->
<g id="edge4" class="edge">
<title>Node0x5621da571de0&#45;&gt;Node0x5621da572218</title>
<path fill="none" stroke="black" d="M963.99,-168.31C975.43,-159.09 989.67,-147.59 1002.06,-137.6"/>
<polygon fill="black" stroke="black" points="1004.3,-140.29 1009.89,-131.28 999.91,-134.84 1004.3,-140.29"/>
</g>
</g>
</svg>
