<?xml version="1.0" encoding="UTF-8" standalone="no"?>
<!DOCTYPE svg PUBLIC "-//W3C//DTD SVG 1.1//EN"
 "http://www.w3.org/Graphics/SVG/1.1/DTD/svg11.dtd">
<!-- Generated by graphviz version 2.43.0 (0)
 -->
<!-- Title: cmTC_46049 Pages: 1 -->
<svg width="1151pt" height="213pt"
 viewBox="0.00 0.00 1150.68 213.00" xmlns="http://www.w3.org/2000/svg" xmlns:xlink="http://www.w3.org/1999/xlink">
<g id="graph0" class="graph" transform="scale(1 1) rotate(0) translate(4 209)">
<title>cmTC_46049</title>
<polygon fill="white" stroke="transparent" points="-4,4 -4,-209 1146.68,-209 1146.68,4 -4,4"/>
<text text-anchor="middle" x="571.34" y="-7.8" font-family="Times,serif" font-size="14.00">cmTC_46049</text>
<!-- Node0x55ab0b2d09c0 -->
<g id="node1" class="node">
<title>Node0x55ab0b2d09c0</title>
<polygon fill="none" stroke="black" points="219.34,-168.5 219.34,-204.5 677.34,-204.5 677.34,-168.5 219.34,-168.5"/>
<text text-anchor="middle" x="448.34" y="-182.8" font-family="Times,serif" font-size="14.00">/usr/lib/gcc/x86_64&#45;linux&#45;gnu/9/../../../x86_64&#45;linux&#45;gnu/Scrt1.o</text>
</g>
<!-- Node0x55ab0b2d0588 -->
<g id="node2" class="node">
<title>Node0x55ab0b2d0588</title>
<ellipse fill="none" stroke="black" cx="116.34" cy="-113.5" rx="116.18" ry="18"/>
<text text-anchor="middle" x="116.34" y="-109.8" font-family="Times,serif" font-size="14.00">Node0x55ab0b2d0588</text>
</g>
<!-- Node0x55ab0b2d09c0&#45;&gt;Node0x55ab0b2d0588 -->
<g id="edge1" class="edge">
<title>Node0x55ab0b2d09c0&#45;&gt;Node0x55ab0b2d0588</title>
<path fill="none" stroke="black" d="M368.82,-168.49C315.02,-156.99 244.42,-141.89 191.55,-130.58"/>
<polygon fill="black" stroke="black" points="192.07,-127.12 181.56,-128.45 190.61,-133.96 192.07,-127.12"/>
</g>
<!-- Node0x55ab0b2d0df8 -->
<g id="node3" class="node">
<title>Node0x55ab0b2d0df8</title>
<polygon fill="none" stroke="black" points="250.34,-95.5 250.34,-131.5 646.34,-131.5 646.34,-95.5 250.34,-95.5"/>
<text text-anchor="middle" x="448.34" y="-109.8" font-family="Times,serif" font-size="14.00">/usr/lib/x86_64&#45;linux&#45;gnu/libc_nonshared.a(elf&#45;init.oS)</text>
</g>
<!-- Node0x55ab0b2d09c0&#45;&gt;Node0x55ab0b2d0df8 -->
<g id="edge2" class="edge">
<title>Node0x55ab0b2d09c0&#45;&gt;Node0x55ab0b2d0df8</title>
<path fill="none" stroke="black" d="M448.34,-168.31C448.34,-160.29 448.34,-150.55 448.34,-141.57"/>
<polygon fill="black" stroke="black" points="451.84,-141.53 448.34,-131.53 444.84,-141.53 451.84,-141.53"/>
</g>
<!-- Node0x55ab0b2d0f60 -->
<g id="node4" class="node">
<title>Node0x55ab0b2d0f60</title>
<ellipse fill="none" stroke="black" cx="778.34" cy="-113.5" rx="113.98" ry="18"/>
<text text-anchor="middle" x="778.34" y="-109.8" font-family="Times,serif" font-size="14.00">Node0x55ab0b2d0f60</text>
</g>
<!-- Node0x55ab0b2d09c0&#45;&gt;Node0x55ab0b2d0f60 -->
<g id="edge3" class="edge">
<title>Node0x55ab0b2d09c0&#45;&gt;Node0x55ab0b2d0f60</title>
<path fill="none" stroke="black" d="M527.38,-168.49C580.94,-156.97 651.27,-141.84 703.85,-130.53"/>
<polygon fill="black" stroke="black" points="704.74,-133.92 713.78,-128.39 703.27,-127.07 704.74,-133.92"/>
</g>
<!-- Node0x55ab0b2d0c00 -->
<g id="node7" class="node">
<title>Node0x55ab0b2d0c00</title>
<ellipse fill="none" stroke="black" cx="448.34" cy="-41" rx="115.08" ry="18"/>
<text text-anchor="middle" x="448.34" y="-37.3" font-family="Times,serif" font-size="14.00">Node0x55ab0b2d0c00</text>
</g>
<!-- Node0x55ab0b2d0df8&#45;&gt;Node0x55ab0b2d0c00 -->
<g id="edge6" class="edge">
<title>Node0x55ab0b2d0df8&#45;&gt;Node0x55ab0b2d0c00</title>
<path fill="none" stroke="black" d="M448.34,-95.43C448.34,-87.67 448.34,-78.28 448.34,-69.56"/>
<polygon fill="black" stroke="black" points="451.84,-69.4 448.34,-59.4 444.84,-69.4 451.84,-69.4"/>
</g>
<!-- Node0x55ab0b2d0540 -->
<g id="node5" class="node">
<title>Node0x55ab0b2d0540</title>
<polygon fill="none" stroke="black" points="780.84,-168.5 780.84,-204.5 1101.84,-204.5 1101.84,-168.5 780.84,-168.5"/>
<text text-anchor="middle" x="941.34" y="-182.8" font-family="Times,serif" font-size="14.00">/usr/lib/gcc/x86_64&#45;linux&#45;gnu/9/crtbeginS.o</text>
</g>
<!-- Node0x55ab0b2d0540&#45;&gt;Node0x55ab0b2d0f60 -->
<g id="edge5" class="edge">
<title>Node0x55ab0b2d0540&#45;&gt;Node0x55ab0b2d0f60</title>
<path fill="none" stroke="black" d="M902.3,-168.49C879.02,-158.35 849.32,-145.42 824.83,-134.75"/>
<polygon fill="black" stroke="black" points="825.95,-131.42 815.38,-130.64 823.15,-137.84 825.95,-131.42"/>
</g>
<!-- Node0x55ab0b2d1278 -->
<g id="node6" class="node">
<title>Node0x55ab0b2d1278</title>
<ellipse fill="none" stroke="black" cx="1026.34" cy="-113.5" rx="116.18" ry="18"/>
<text text-anchor="middle" x="1026.34" y="-109.8" font-family="Times,serif" font-size="14.00">Node0x55ab0b2d1278</text>
</g>
<!-- Node0x55ab0b2d0540&#45;&gt;Node0x55ab0b2d1278 -->
<g id="edge4" class="edge">
<title>Node0x55ab0b2d0540&#45;&gt;Node0x55ab0b2d1278</title>
<path fill="none" stroke="black" d="M961.92,-168.31C972.85,-159.18 986.46,-147.81 998.35,-137.88"/>
<polygon fill="black" stroke="black" points="1000.82,-140.38 1006.25,-131.28 996.33,-135.01 1000.82,-140.38"/>
</g>
</g>
</svg>
