<?xml version="1.0" encoding="UTF-8" standalone="no"?>
<!DOCTYPE svg PUBLIC "-//W3C//DTD SVG 1.1//EN"
 "http://www.w3.org/Graphics/SVG/1.1/DTD/svg11.dtd">
<!-- Generated by graphviz version 2.43.0 (0)
 -->
<!-- Title: bin/llvm&#45;itanium&#45;demangle&#45;fuzzer Pages: 1 -->
<svg width="2133pt" height="433pt"
 viewBox="0.00 0.00 2132.50 433.00" xmlns="http://www.w3.org/2000/svg" xmlns:xlink="http://www.w3.org/1999/xlink">
<g id="graph0" class="graph" transform="scale(1 1) rotate(0) translate(4 429)">
<title>bin/llvm&#45;itanium&#45;demangle&#45;fuzzer</title>
<polygon fill="white" stroke="transparent" points="-4,4 -4,-429 2128.5,-429 2128.5,4 -4,4"/>
<text text-anchor="middle" x="1062.25" y="-7.8" font-family="Times,serif" font-size="14.00">bin/llvm&#45;itanium&#45;demangle&#45;fuzzer</text>
<!-- Node0x558aba1b5448 -->
<g id="node1" class="node">
<title>Node0x558aba1b5448</title>
<polygon fill="none" stroke="black" points="0,-388.5 0,-424.5 827,-424.5 827,-388.5 0,-388.5"/>
<text text-anchor="middle" x="413.5" y="-402.8" font-family="Times,serif" font-size="14.00">tools/llvm&#45;itanium&#45;demangle&#45;fuzzer/CMakeFiles/llvm&#45;itanium&#45;demangle&#45;fuzzer.dir/DummyDemanglerFuzzer.cpp.o</text>
</g>
<!-- Node0x558aba1b3468 -->
<g id="node2" class="node">
<title>Node0x558aba1b3468</title>
<polygon fill="none" stroke="black" points="571,-242.5 571,-278.5 1428,-278.5 1428,-242.5 571,-242.5"/>
<text text-anchor="middle" x="999.5" y="-256.8" font-family="Times,serif" font-size="14.00">tools/llvm&#45;itanium&#45;demangle&#45;fuzzer/CMakeFiles/llvm&#45;itanium&#45;demangle&#45;fuzzer.dir/llvm&#45;itanium&#45;demangle&#45;fuzzer.cpp.o</text>
</g>
<!-- Node0x558aba1b5448&#45;&gt;Node0x558aba1b3468 -->
<g id="edge1" class="edge">
<title>Node0x558aba1b5448&#45;&gt;Node0x558aba1b3468</title>
<path fill="none" stroke="black" d="M482.73,-388.49C592.21,-361.59 804.67,-309.38 920.14,-281"/>
<polygon fill="black" stroke="black" points="921.11,-284.37 929.99,-278.58 919.44,-277.57 921.11,-284.37"/>
</g>
<!-- Node0x558aba1b8be8 -->
<g id="node3" class="node">
<title>Node0x558aba1b8be8</title>
<polygon fill="#ff7f7f" stroke="black" points="852.5,-315.5 852.5,-351.5 1048.5,-351.5 1048.5,-315.5 852.5,-315.5"/>
<text text-anchor="middle" x="950.5" y="-329.8" font-family="Times,serif" font-size="14.00">lib/libLLVMFuzzMutate.a</text>
</g>
<!-- Node0x558aba1b5448&#45;&gt;Node0x558aba1b8be8 -->
<g id="edge2" class="edge">
<title>Node0x558aba1b5448&#45;&gt;Node0x558aba1b8be8</title>
<path fill="none" stroke="black" d="M542.12,-388.49C633.75,-376.38 755.54,-360.28 842.21,-348.82"/>
<polygon fill="black" stroke="black" points="842.88,-352.26 852.34,-347.48 841.96,-345.32 842.88,-352.26"/>
</g>
<!-- Node0x558aba1b90e8 -->
<g id="node4" class="node">
<title>Node0x558aba1b90e8</title>
<polygon fill="none" stroke="black" points="1077.5,-169.5 1077.5,-205.5 1259.5,-205.5 1259.5,-169.5 1077.5,-169.5"/>
<text text-anchor="middle" x="1168.5" y="-183.8" font-family="Times,serif" font-size="14.00">lib/libLLVMDemangle.a</text>
</g>
<!-- Node0x558aba1b3468&#45;&gt;Node0x558aba1b90e8 -->
<g id="edge3" class="edge">
<title>Node0x558aba1b3468&#45;&gt;Node0x558aba1b90e8</title>
<path fill="none" stroke="black" d="M1039.98,-242.49C1063.53,-232.6 1093.41,-220.04 1118.44,-209.53"/>
<polygon fill="black" stroke="black" points="1119.9,-212.71 1127.76,-205.61 1117.19,-206.26 1119.9,-212.71"/>
</g>
<!-- Node0x558aba1b72e8 -->
<g id="node5" class="node">
<title>Node0x558aba1b72e8</title>
<polygon fill="#ff7f7f" stroke="black" points="1521.5,-242.5 1521.5,-278.5 1689.5,-278.5 1689.5,-242.5 1521.5,-242.5"/>
<text text-anchor="middle" x="1605.5" y="-256.8" font-family="Times,serif" font-size="14.00">lib/libLLVMSupport.a</text>
</g>
<!-- Node0x558aba1b8be8&#45;&gt;Node0x558aba1b72e8 -->
<g id="edge4" class="edge">
<title>Node0x558aba1b8be8&#45;&gt;Node0x558aba1b72e8</title>
<path fill="none" stroke="#ff7f7f" d="M1048.78,-315.57C1050.36,-315.38 1051.94,-315.19 1053.5,-315 1250.55,-291.67 1301.72,-304.47 1498.5,-279 1502.69,-278.46 1506.98,-277.86 1511.31,-277.22"/>
<polygon fill="#ff7f7f" stroke="#ff7f7f" points="1512.13,-280.64 1521.48,-275.66 1511.07,-273.72 1512.13,-280.64"/>
</g>
<!-- Node0x558aba1b72e8&#45;&gt;Node0x558aba1b8be8 -->
<g id="edge5" class="edge">
<title>Node0x558aba1b72e8&#45;&gt;Node0x558aba1b8be8</title>
<path fill="none" stroke="#ff7f7f" d="M1521.42,-278.34C1519.77,-278.57 1518.13,-278.79 1516.5,-279 1319.72,-304.47 1268.55,-291.67 1071.5,-315 1067.32,-315.49 1063.06,-316.03 1058.76,-316.59"/>
<polygon fill="#ff7f7f" stroke="#ff7f7f" points="1058.09,-313.15 1048.64,-317.96 1059.02,-320.09 1058.09,-313.15"/>
</g>
<!-- Node0x558aba1b72e8&#45;&gt;Node0x558aba1b90e8 -->
<g id="edge7" class="edge">
<title>Node0x558aba1b72e8&#45;&gt;Node0x558aba1b90e8</title>
<path fill="none" stroke="black" d="M1521.24,-245.81C1449.44,-234.14 1346.06,-217.35 1269.77,-204.95"/>
<polygon fill="black" stroke="black" points="1270.09,-201.46 1259.66,-203.31 1268.97,-208.37 1270.09,-201.46"/>
</g>
<!-- Node0x558aba1b6de8 -->
<g id="node6" class="node">
<title>Node0x558aba1b6de8</title>
<polygon fill="#ff7f7f" stroke="black" points="1637.5,-96.5 1637.5,-132.5 1813.5,-132.5 1813.5,-96.5 1637.5,-96.5"/>
<text text-anchor="middle" x="1725.5" y="-110.8" font-family="Times,serif" font-size="14.00">lib/libLLVMBitWriter.a</text>
</g>
<!-- Node0x558aba1b72e8&#45;&gt;Node0x558aba1b6de8 -->
<g id="edge6" class="edge">
<title>Node0x558aba1b72e8&#45;&gt;Node0x558aba1b6de8</title>
<path fill="none" stroke="#ff7f7f" d="M1640.96,-242.43C1657.42,-233.8 1675.96,-221.76 1688.5,-206 1703.08,-187.67 1710.11,-161.73 1715.02,-142.32"/>
<polygon fill="#ff7f7f" stroke="#ff7f7f" points="1718.42,-143.12 1717.49,-132.56 1711.64,-141.4 1718.42,-143.12"/>
</g>
<!-- Node0x558aba1b3be8 -->
<g id="node7" class="node">
<title>Node0x558aba1b3be8</title>
<polygon fill="#ff7f7f" stroke="black" points="1497,-169.5 1497,-205.5 1688,-205.5 1688,-169.5 1497,-169.5"/>
<text text-anchor="middle" x="1592.5" y="-183.8" font-family="Times,serif" font-size="14.00">lib/libLLVMProfileData.a</text>
</g>
<!-- Node0x558aba1b72e8&#45;&gt;Node0x558aba1b3be8 -->
<g id="edge8" class="edge">
<title>Node0x558aba1b72e8&#45;&gt;Node0x558aba1b3be8</title>
<path fill="none" stroke="#ff7f7f" d="M1596.47,-242.31C1594.17,-234.29 1592.15,-224.55 1590.88,-215.57"/>
<polygon fill="#ff7f7f" stroke="#ff7f7f" points="1594.35,-215.08 1589.76,-205.53 1587.39,-215.86 1594.35,-215.08"/>
</g>
<!-- Node0x558aba1b6de8&#45;&gt;Node0x558aba1b8be8 -->
<g id="edge9" class="edge">
<title>Node0x558aba1b6de8&#45;&gt;Node0x558aba1b8be8</title>
<path fill="none" stroke="#ff7f7f" d="M1637.5,-127.17C1580.02,-136.32 1511.5,-150.57 1488.5,-169 1446.3,-202.82 1480.78,-247.96 1436.5,-279 1368.96,-326.35 1154.11,-305.45 1058.56,-314.54"/>
<polygon fill="#ff7f7f" stroke="#ff7f7f" points="1058.15,-311.06 1048.61,-315.66 1058.94,-318.02 1058.15,-311.06"/>
</g>
<!-- Node0x558aba1b6de8&#45;&gt;Node0x558aba1b72e8 -->
<g id="edge10" class="edge">
<title>Node0x558aba1b6de8&#45;&gt;Node0x558aba1b72e8</title>
<path fill="none" stroke="#ff7f7f" d="M1730.4,-132.56C1730.39,-152.16 1723.7,-184.38 1706.5,-206 1696.12,-219.05 1681.62,-229.55 1666.8,-237.67"/>
<polygon fill="#ff7f7f" stroke="#ff7f7f" points="1664.86,-234.74 1657.57,-242.43 1668.06,-240.96 1664.86,-234.74"/>
</g>
<!-- Node0x558aba1b5c68 -->
<g id="node8" class="node">
<title>Node0x558aba1b5c68</title>
<polygon fill="#ff7f7f" stroke="black" points="1640.5,-23.5 1640.5,-59.5 1810.5,-59.5 1810.5,-23.5 1640.5,-23.5"/>
<text text-anchor="middle" x="1725.5" y="-37.8" font-family="Times,serif" font-size="14.00">lib/libLLVMAnalysis.a</text>
</g>
<!-- Node0x558aba1b6de8&#45;&gt;Node0x558aba1b5c68 -->
<g id="edge11" class="edge">
<title>Node0x558aba1b6de8&#45;&gt;Node0x558aba1b5c68</title>
<path fill="none" stroke="#ff7f7f" d="M1719.62,-96.31C1718.78,-88.29 1718.55,-78.55 1718.92,-69.57"/>
<polygon fill="#ff7f7f" stroke="#ff7f7f" points="1722.42,-69.75 1719.64,-59.53 1715.44,-69.25 1722.42,-69.75"/>
</g>
<!-- Node0x558aba1b3be8&#45;&gt;Node0x558aba1b8be8 -->
<g id="edge22" class="edge">
<title>Node0x558aba1b3be8&#45;&gt;Node0x558aba1b8be8</title>
<path fill="none" stroke="#ff7f7f" d="M1565.27,-205.54C1549.53,-215.68 1529.53,-229.06 1512.5,-242 1492.43,-257.26 1492.73,-269.2 1469.5,-279 1385.85,-314.31 1152.63,-303.99 1062.5,-315 1061.38,-315.14 1060.25,-315.28 1059.11,-315.42"/>
<polygon fill="#ff7f7f" stroke="#ff7f7f" points="1058.25,-312 1048.78,-316.76 1059.15,-318.94 1058.25,-312"/>
</g>
<!-- Node0x558aba1b3be8&#45;&gt;Node0x558aba1b72e8 -->
<g id="edge23" class="edge">
<title>Node0x558aba1b3be8&#45;&gt;Node0x558aba1b72e8</title>
<path fill="none" stroke="#ff7f7f" d="M1601.48,-205.53C1603.79,-213.53 1605.82,-223.27 1607.1,-232.25"/>
<polygon fill="#ff7f7f" stroke="#ff7f7f" points="1603.63,-232.77 1608.23,-242.31 1610.59,-231.98 1603.63,-232.77"/>
</g>
<!-- Node0x558aba1b3be8&#45;&gt;Node0x558aba1b6de8 -->
<g id="edge24" class="edge">
<title>Node0x558aba1b3be8&#45;&gt;Node0x558aba1b6de8</title>
<path fill="none" stroke="#ff7f7f" d="M1624.36,-169.49C1642.4,-159.86 1665.17,-147.71 1684.53,-137.37"/>
<polygon fill="#ff7f7f" stroke="#ff7f7f" points="1686.27,-140.41 1693.44,-132.61 1682.97,-134.24 1686.27,-140.41"/>
</g>
<!-- Node0x558aba1b5c68&#45;&gt;Node0x558aba1b8be8 -->
<g id="edge13" class="edge">
<title>Node0x558aba1b5c68&#45;&gt;Node0x558aba1b8be8</title>
<path fill="none" stroke="#ff7f7f" d="M1640.14,-43.56C1395.47,-48.57 700.36,-77.32 561.5,-242 550.9,-254.57 550.69,-266.61 561.5,-279 597.32,-320.09 740.2,-330.72 842.39,-332.91"/>
<polygon fill="#ff7f7f" stroke="#ff7f7f" points="842.4,-336.41 852.46,-333.1 842.53,-329.41 842.4,-336.41"/>
</g>
<!-- Node0x558aba1b5c68&#45;&gt;Node0x558aba1b72e8 -->
<g id="edge12" class="edge">
<title>Node0x558aba1b5c68&#45;&gt;Node0x558aba1b72e8</title>
<path fill="none" stroke="#ff7f7f" d="M1779.02,-59.56C1795.95,-67.77 1812.77,-79.52 1822.5,-96 1830.86,-110.16 1829.69,-118.21 1822.5,-133 1795.71,-188.08 1733,-220.8 1681.85,-239.11"/>
<polygon fill="#ff7f7f" stroke="#ff7f7f" points="1680.42,-235.9 1672.12,-242.48 1682.71,-242.52 1680.42,-235.9"/>
</g>
<!-- Node0x558aba1b5c68&#45;&gt;Node0x558aba1b6de8 -->
<g id="edge14" class="edge">
<title>Node0x558aba1b5c68&#45;&gt;Node0x558aba1b6de8</title>
<path fill="none" stroke="#ff7f7f" d="M1731.36,-59.53C1732.21,-67.53 1732.45,-77.27 1732.09,-86.25"/>
<polygon fill="#ff7f7f" stroke="#ff7f7f" points="1728.59,-86.09 1731.38,-96.31 1735.57,-86.58 1728.59,-86.09"/>
</g>
<!-- Node0x558aba1b4d68 -->
<g id="node9" class="node">
<title>Node0x558aba1b4d68</title>
<polygon fill="none" stroke="black" points="1561,-315.5 1561,-351.5 1718,-351.5 1718,-315.5 1561,-315.5"/>
<text text-anchor="middle" x="1639.5" y="-329.8" font-family="Times,serif" font-size="14.00">lib/libLLVMObject.a</text>
</g>
<!-- Node0x558aba1b4d68&#45;&gt;Node0x558aba1b72e8 -->
<g id="edge15" class="edge">
<title>Node0x558aba1b4d68&#45;&gt;Node0x558aba1b72e8</title>
<path fill="none" stroke="black" d="M1631.27,-315.31C1627.3,-307.03 1622.46,-296.91 1618.04,-287.69"/>
<polygon fill="black" stroke="black" points="1621.13,-286.04 1613.65,-278.53 1614.82,-289.06 1621.13,-286.04"/>
</g>
<!-- Node0x558aba1b5268 -->
<g id="node10" class="node">
<title>Node0x558aba1b5268</title>
<polygon fill="none" stroke="black" points="845,-388.5 845,-424.5 1026,-424.5 1026,-388.5 845,-388.5"/>
<text text-anchor="middle" x="935.5" y="-402.8" font-family="Times,serif" font-size="14.00">lib/libLLVMBitReader.a</text>
</g>
<!-- Node0x558aba1b5268&#45;&gt;Node0x558aba1b8be8 -->
<g id="edge16" class="edge">
<title>Node0x558aba1b5268&#45;&gt;Node0x558aba1b8be8</title>
<path fill="none" stroke="black" d="M939.13,-388.31C940.83,-380.29 942.88,-370.55 944.78,-361.57"/>
<polygon fill="black" stroke="black" points="948.26,-362.04 946.9,-351.53 941.41,-360.59 948.26,-362.04"/>
</g>
<!-- Node0x558aba1b5268&#45;&gt;Node0x558aba1b72e8 -->
<g id="edge17" class="edge">
<title>Node0x558aba1b5268&#45;&gt;Node0x558aba1b72e8</title>
<path fill="none" stroke="black" d="M975.51,-388.43C999.42,-378.11 1030.32,-364.57 1057.5,-352 1091.6,-336.23 1097.34,-325.2 1133.5,-315 1292.94,-270.03 1340.33,-301.16 1504.5,-279 1506.72,-278.7 1508.97,-278.39 1511.23,-278.06"/>
<polygon fill="black" stroke="black" points="1511.87,-281.51 1521.25,-276.58 1510.85,-274.58 1511.87,-281.51"/>
</g>
<!-- Node0x558aba1b5268&#45;&gt;Node0x558aba1b5c68 -->
<g id="edge18" class="edge">
<title>Node0x558aba1b5268&#45;&gt;Node0x558aba1b5c68</title>
<path fill="none" stroke="black" d="M861.58,-388.48C738.64,-359.14 505.5,-298.6 505.5,-261.5 505.5,-261.5 505.5,-261.5 505.5,-186.5 505.5,-73.46 1342.21,-48.89 1629.79,-43.78"/>
<polygon fill="black" stroke="black" points="1630.26,-47.27 1640.2,-43.6 1630.14,-40.27 1630.26,-47.27"/>
</g>
<!-- Node0x558aba1b4368 -->
<g id="node11" class="node">
<title>Node0x558aba1b4368</title>
<polygon fill="none" stroke="black" points="1235.5,-388.5 1235.5,-424.5 1415.5,-424.5 1415.5,-388.5 1235.5,-388.5"/>
<text text-anchor="middle" x="1325.5" y="-402.8" font-family="Times,serif" font-size="14.00">lib/libLLVMMCParser.a</text>
</g>
<!-- Node0x558aba1b4368&#45;&gt;Node0x558aba1b8be8 -->
<g id="edge19" class="edge">
<title>Node0x558aba1b4368&#45;&gt;Node0x558aba1b8be8</title>
<path fill="none" stroke="black" d="M1235.68,-388.49C1179.86,-377.93 1108.02,-364.32 1050.41,-353.42"/>
<polygon fill="black" stroke="black" points="1051.04,-349.97 1040.56,-351.55 1049.74,-356.85 1051.04,-349.97"/>
</g>
<!-- Node0x558aba1b4368&#45;&gt;Node0x558aba1b72e8 -->
<g id="edge20" class="edge">
<title>Node0x558aba1b4368&#45;&gt;Node0x558aba1b72e8</title>
<path fill="none" stroke="black" d="M1248.14,-388.46C1195.77,-373.46 1141.19,-348.73 1171.5,-315 1221.69,-259.14 1433.16,-289.61 1507.5,-279 1508.78,-278.82 1510.06,-278.63 1511.35,-278.44"/>
<polygon fill="black" stroke="black" points="1512.01,-281.88 1521.36,-276.92 1510.95,-274.96 1512.01,-281.88"/>
</g>
<!-- Node0x558aba1b4368&#45;&gt;Node0x558aba1b6de8 -->
<g id="edge21" class="edge">
<title>Node0x558aba1b4368&#45;&gt;Node0x558aba1b6de8</title>
<path fill="none" stroke="black" d="M1415.66,-404.71C1585.51,-402.29 1939.28,-392.4 1976.5,-352 2054.45,-267.38 1873.97,-176.55 1779.1,-136.51"/>
<polygon fill="black" stroke="black" points="1780.22,-133.18 1769.64,-132.56 1777.52,-139.64 1780.22,-133.18"/>
</g>
<!-- Node0x558aba1b4098 -->
<g id="node12" class="node">
<title>Node0x558aba1b4098</title>
<polygon fill="none" stroke="black" points="1980.5,-388.5 1980.5,-424.5 2124.5,-424.5 2124.5,-388.5 1980.5,-388.5"/>
<text text-anchor="middle" x="2052.5" y="-402.8" font-family="Times,serif" font-size="14.00">lib/libLLVMCore.a</text>
</g>
<!-- Node0x558aba1b4098&#45;&gt;Node0x558aba1b8be8 -->
<g id="edge26" class="edge">
<title>Node0x558aba1b4098&#45;&gt;Node0x558aba1b8be8</title>
<path fill="none" stroke="black" d="M1980.24,-401.56C1829.73,-393.26 1471.68,-373 1171.5,-352 1134.74,-349.43 1094.56,-346.33 1058.66,-343.46"/>
<polygon fill="black" stroke="black" points="1058.91,-339.97 1048.66,-342.66 1058.35,-346.95 1058.91,-339.97"/>
</g>
<!-- Node0x558aba1b4098&#45;&gt;Node0x558aba1b72e8 -->
<g id="edge25" class="edge">
<title>Node0x558aba1b4098&#45;&gt;Node0x558aba1b72e8</title>
<path fill="none" stroke="black" d="M2043.28,-388.21C2031.04,-367.11 2007.34,-332.16 1976.5,-315 1930.34,-289.32 1793.54,-274.69 1699.62,-267.43"/>
<polygon fill="black" stroke="black" points="1699.76,-263.93 1689.53,-266.67 1699.23,-270.91 1699.76,-263.93"/>
</g>
<!-- Node0x558aba1b4098&#45;&gt;Node0x558aba1b6de8 -->
<g id="edge28" class="edge">
<title>Node0x558aba1b4098&#45;&gt;Node0x558aba1b6de8</title>
<path fill="none" stroke="black" d="M2055.24,-388.31C2061.1,-344.84 2069.8,-229.69 2009.5,-169 1983.7,-143.04 1895.08,-129.29 1823.61,-122.27"/>
<polygon fill="black" stroke="black" points="1823.93,-118.79 1813.65,-121.32 1823.27,-125.75 1823.93,-118.79"/>
</g>
<!-- Node0x558aba1b4098&#45;&gt;Node0x558aba1b5c68 -->
<g id="edge27" class="edge">
<title>Node0x558aba1b4098&#45;&gt;Node0x558aba1b5c68</title>
<path fill="none" stroke="black" d="M2064.31,-388.19C2081.01,-362 2109.5,-310.17 2109.5,-261.5 2109.5,-261.5 2109.5,-261.5 2109.5,-186.5 2109.5,-124.99 1934.57,-80.91 1820.85,-58.76"/>
<polygon fill="black" stroke="black" points="1821.2,-55.26 1810.72,-56.81 1819.88,-62.13 1821.2,-55.26"/>
</g>
<!-- Node0x558aba1b3b98 -->
<g id="node13" class="node">
<title>Node0x558aba1b3b98</title>
<polygon fill="none" stroke="black" points="1044,-388.5 1044,-424.5 1217,-424.5 1217,-388.5 1044,-388.5"/>
<text text-anchor="middle" x="1130.5" y="-402.8" font-family="Times,serif" font-size="14.00">lib/libLLVMRemarks.a</text>
</g>
<!-- Node0x558aba1b3b98&#45;&gt;Node0x558aba1b8be8 -->
<g id="edge30" class="edge">
<title>Node0x558aba1b3b98&#45;&gt;Node0x558aba1b8be8</title>
<path fill="none" stroke="black" d="M1087.39,-388.49C1062.19,-378.56 1030.19,-365.93 1003.47,-355.39"/>
<polygon fill="black" stroke="black" points="1004.47,-352.03 993.89,-351.61 1001.9,-358.54 1004.47,-352.03"/>
</g>
<!-- Node0x558aba1b3b98&#45;&gt;Node0x558aba1b72e8 -->
<g id="edge29" class="edge">
<title>Node0x558aba1b3b98&#45;&gt;Node0x558aba1b72e8</title>
<path fill="none" stroke="black" d="M1130.7,-388.44C1131.95,-367.59 1137.47,-332.89 1159.5,-315 1219.86,-266 1430.51,-289.84 1507.5,-279 1508.78,-278.82 1510.06,-278.64 1511.35,-278.45"/>
<polygon fill="black" stroke="black" points="1512,-281.89 1521.37,-276.94 1510.96,-274.97 1512,-281.89"/>
</g>
<!-- Node0x558aba1b2fb8 -->
<g id="node14" class="node">
<title>Node0x558aba1b2fb8</title>
<polygon fill="none" stroke="black" points="1736,-315.5 1736,-351.5 1967,-351.5 1967,-315.5 1736,-315.5"/>
<text text-anchor="middle" x="1851.5" y="-329.8" font-family="Times,serif" font-size="14.00">lib/libLLVMBitstreamReader.a</text>
</g>
<!-- Node0x558aba1b2fb8&#45;&gt;Node0x558aba1b72e8 -->
<g id="edge31" class="edge">
<title>Node0x558aba1b2fb8&#45;&gt;Node0x558aba1b72e8</title>
<path fill="none" stroke="black" d="M1792.58,-315.49C1757.09,-305.25 1711.72,-292.16 1674.55,-281.43"/>
<polygon fill="black" stroke="black" points="1675.37,-278.02 1664.79,-278.61 1673.43,-284.75 1675.37,-278.02"/>
</g>
<!-- Node0x558aba1b2b08 -->
<g id="node15" class="node">
<title>Node0x558aba1b2b08</title>
<polygon fill="none" stroke="black" points="1181,-315.5 1181,-351.5 1316,-351.5 1316,-315.5 1181,-315.5"/>
<text text-anchor="middle" x="1248.5" y="-329.8" font-family="Times,serif" font-size="14.00">lib/libLLVMMC.a</text>
</g>
<!-- Node0x558aba1b2b08&#45;&gt;Node0x558aba1b72e8 -->
<g id="edge32" class="edge">
<title>Node0x558aba1b2b08&#45;&gt;Node0x558aba1b72e8</title>
<path fill="none" stroke="black" d="M1316.08,-317C1319.26,-316.32 1322.41,-315.65 1325.5,-315 1387.29,-302.08 1457.03,-288.75 1511.44,-278.63"/>
<polygon fill="black" stroke="black" points="1512.23,-282.04 1521.42,-276.78 1510.95,-275.16 1512.23,-282.04"/>
</g>
<!-- Node0x558aba1b2658 -->
<g id="node16" class="node">
<title>Node0x558aba1b2658</title>
<polygon fill="none" stroke="black" points="1334,-315.5 1334,-351.5 1543,-351.5 1543,-315.5 1334,-315.5"/>
<text text-anchor="middle" x="1438.5" y="-329.8" font-family="Times,serif" font-size="14.00">lib/libLLVMBinaryFormat.a</text>
</g>
<!-- Node0x558aba1b2658&#45;&gt;Node0x558aba1b72e8 -->
<g id="edge33" class="edge">
<title>Node0x558aba1b2658&#45;&gt;Node0x558aba1b72e8</title>
<path fill="none" stroke="black" d="M1478.5,-315.49C1501.77,-305.6 1531.3,-293.04 1556.03,-282.53"/>
<polygon fill="black" stroke="black" points="1557.41,-285.75 1565.25,-278.61 1554.67,-279.31 1557.41,-285.75"/>
</g>
</g>
</svg>
