<?xml version="1.0" encoding="UTF-8" standalone="no"?>
<!DOCTYPE svg PUBLIC "-//W3C//DTD SVG 1.1//EN"
 "http://www.w3.org/Graphics/SVG/1.1/DTD/svg11.dtd">
<!-- Generated by graphviz version 2.43.0 (0)
 -->
<!-- Title: bin/llvm&#45;jitlink&#45;executor Pages: 1 -->
<svg width="736pt" height="287pt"
 viewBox="0.00 0.00 736.00 287.00" xmlns="http://www.w3.org/2000/svg" xmlns:xlink="http://www.w3.org/1999/xlink">
<g id="graph0" class="graph" transform="scale(1 1) rotate(0) translate(4 283)">
<title>bin/llvm&#45;jitlink&#45;executor</title>
<polygon fill="white" stroke="transparent" points="-4,4 -4,-283 732,-283 732,4 -4,4"/>
<text text-anchor="middle" x="364" y="-7.8" font-family="Times,serif" font-size="14.00">bin/llvm&#45;jitlink&#45;executor</text>
<!-- Node0x559b560b9238 -->
<g id="node1" class="node">
<title>Node0x559b560b9238</title>
<polygon fill="#ff7f7f" stroke="black" points="0,-242.5 0,-278.5 728,-278.5 728,-242.5 0,-242.5"/>
<text text-anchor="middle" x="364" y="-256.8" font-family="Times,serif" font-size="14.00">tools/llvm&#45;jitlink/llvm&#45;jitlink&#45;executor/CMakeFiles/llvm&#45;jitlink&#45;executor.dir/llvm&#45;jitlink&#45;executor.cpp.o</text>
</g>
<!-- Node0x559b560bb178 -->
<g id="node2" class="node">
<title>Node0x559b560bb178</title>
<polygon fill="#ff7f7f" stroke="black" points="139.5,-169.5 139.5,-205.5 326.5,-205.5 326.5,-169.5 139.5,-169.5"/>
<text text-anchor="middle" x="233" y="-183.8" font-family="Times,serif" font-size="14.00">lib/libLLVMOrcShared.a</text>
</g>
<!-- Node0x559b560b9238&#45;&gt;Node0x559b560bb178 -->
<g id="edge1" class="edge">
<title>Node0x559b560b9238&#45;&gt;Node0x559b560bb178</title>
<path fill="none" stroke="#ff7f7f" d="M326.76,-242.49C308.22,-232.99 286.01,-221.04 267.81,-210.79"/>
<polygon fill="#ff7f7f" stroke="#ff7f7f" points="269.13,-207.51 258.71,-205.61 265.67,-213.6 269.13,-207.51"/>
</g>
<!-- Node0x559b560b9a08 -->
<g id="node3" class="node">
<title>Node0x559b560b9a08</title>
<polygon fill="#ff7f7f" stroke="black" points="203,-23.5 203,-59.5 441,-59.5 441,-23.5 203,-23.5"/>
<text text-anchor="middle" x="322" y="-37.8" font-family="Times,serif" font-size="14.00">lib/libLLVMOrcTargetProcess.a</text>
</g>
<!-- Node0x559b560b9238&#45;&gt;Node0x559b560b9a08 -->
<g id="edge2" class="edge">
<title>Node0x559b560b9238&#45;&gt;Node0x559b560b9a08</title>
<path fill="none" stroke="#ff7f7f" d="M372.74,-242.25C392.49,-211.28 434.29,-144.9 406,-96 398.35,-82.77 386.04,-72.52 373.15,-64.71"/>
<polygon fill="#ff7f7f" stroke="#ff7f7f" points="374.62,-61.52 364.19,-59.68 371.2,-67.62 374.62,-61.52"/>
</g>
<!-- Node0x559b560b9558 -->
<g id="node4" class="node">
<title>Node0x559b560b9558</title>
<polygon fill="#ff7f7f" stroke="black" points="238,-96.5 238,-132.5 406,-132.5 406,-96.5 238,-96.5"/>
<text text-anchor="middle" x="322" y="-110.8" font-family="Times,serif" font-size="14.00">lib/libLLVMSupport.a</text>
</g>
<!-- Node0x559b560b9238&#45;&gt;Node0x559b560b9558 -->
<g id="edge3" class="edge">
<title>Node0x559b560b9238&#45;&gt;Node0x559b560b9558</title>
<path fill="none" stroke="#ff7f7f" d="M354.46,-242.42C344.66,-217.73 330.99,-171.85 324.48,-142.54"/>
<polygon fill="#ff7f7f" stroke="#ff7f7f" points="327.87,-141.65 322.42,-132.56 321.01,-143.06 327.87,-141.65"/>
</g>
<!-- Node0x559b560bb178&#45;&gt;Node0x559b560b9238 -->
<g id="edge4" class="edge">
<title>Node0x559b560bb178&#45;&gt;Node0x559b560b9238</title>
<path fill="none" stroke="#ff7f7f" d="M270.45,-205.61C289.01,-215.13 311.22,-227.09 329.39,-237.32"/>
<polygon fill="#ff7f7f" stroke="#ff7f7f" points="328.06,-240.59 338.48,-242.49 331.52,-234.51 328.06,-240.59"/>
</g>
<!-- Node0x559b560bb178&#45;&gt;Node0x559b560b9558 -->
<g id="edge5" class="edge">
<title>Node0x559b560bb178&#45;&gt;Node0x559b560b9558</title>
<path fill="none" stroke="#ff7f7f" d="M254.54,-169.31C266.02,-160.16 280.31,-148.76 292.77,-138.82"/>
<polygon fill="#ff7f7f" stroke="#ff7f7f" points="295.02,-141.5 300.65,-132.53 290.65,-136.03 295.02,-141.5"/>
</g>
<!-- Node0x559b560b9a08&#45;&gt;Node0x559b560b9238 -->
<g id="edge8" class="edge">
<title>Node0x559b560b9a08&#45;&gt;Node0x559b560b9238</title>
<path fill="none" stroke="#ff7f7f" d="M380.83,-59.56C397.95,-67.84 414.53,-79.63 424,-96 450.08,-141.08 416.59,-201.01 389.96,-234.37"/>
<polygon fill="#ff7f7f" stroke="#ff7f7f" points="387.11,-232.33 383.38,-242.25 392.48,-236.82 387.11,-232.33"/>
</g>
<!-- Node0x559b560b9a08&#45;&gt;Node0x559b560bb178 -->
<g id="edge6" class="edge">
<title>Node0x559b560b9a08&#45;&gt;Node0x559b560bb178</title>
<path fill="none" stroke="#ff7f7f" d="M271.36,-59.68C254.88,-67.95 238.42,-79.71 229,-96 217.97,-115.07 220.21,-140.36 224.5,-159.36"/>
<polygon fill="#ff7f7f" stroke="#ff7f7f" points="221.14,-160.37 227.02,-169.19 227.92,-158.63 221.14,-160.37"/>
</g>
<!-- Node0x559b560b9a08&#45;&gt;Node0x559b560b9558 -->
<g id="edge7" class="edge">
<title>Node0x559b560b9a08&#45;&gt;Node0x559b560b9558</title>
<path fill="none" stroke="#ff7f7f" d="M327.86,-59.53C328.71,-67.53 328.95,-77.27 328.59,-86.25"/>
<polygon fill="#ff7f7f" stroke="#ff7f7f" points="325.09,-86.09 327.88,-96.31 332.07,-86.58 325.09,-86.09"/>
</g>
<!-- Node0x559b560b9558&#45;&gt;Node0x559b560b9238 -->
<g id="edge9" class="edge">
<title>Node0x559b560b9558&#45;&gt;Node0x559b560b9238</title>
<path fill="none" stroke="#ff7f7f" d="M331.53,-132.56C341.33,-157.23 355,-203.11 361.52,-232.43"/>
<polygon fill="#ff7f7f" stroke="#ff7f7f" points="358.13,-233.33 363.57,-242.42 364.98,-231.92 358.13,-233.33"/>
</g>
<!-- Node0x559b560b9558&#45;&gt;Node0x559b560b9a08 -->
<g id="edge10" class="edge">
<title>Node0x559b560b9558&#45;&gt;Node0x559b560b9a08</title>
<path fill="none" stroke="#ff7f7f" d="M316.12,-96.31C315.28,-88.29 315.05,-78.55 315.42,-69.57"/>
<polygon fill="#ff7f7f" stroke="#ff7f7f" points="318.92,-69.75 316.14,-59.53 311.94,-69.25 318.92,-69.75"/>
</g>
</g>
</svg>
