<?xml version="1.0" encoding="UTF-8" standalone="no"?>
<!DOCTYPE svg PUBLIC "-//W3C//DTD SVG 1.1//EN"
 "http://www.w3.org/Graphics/SVG/1.1/DTD/svg11.dtd">
<!-- Generated by graphviz version 2.43.0 (0)
 -->
<!-- Title: bin/llvm&#45;config Pages: 1 -->
<svg width="463pt" height="141pt"
 viewBox="0.00 0.00 463.00 141.00" xmlns="http://www.w3.org/2000/svg" xmlns:xlink="http://www.w3.org/1999/xlink">
<g id="graph0" class="graph" transform="scale(1 1) rotate(0) translate(4 137)">
<title>bin/llvm&#45;config</title>
<polygon fill="white" stroke="transparent" points="-4,4 -4,-137 459,-137 459,4 -4,4"/>
<text text-anchor="middle" x="227.5" y="-7.8" font-family="Times,serif" font-size="14.00">bin/llvm&#45;config</text>
<!-- Node0x55ee4e4d5568 -->
<g id="node1" class="node">
<title>Node0x55ee4e4d5568</title>
<polygon fill="#ff7f7f" stroke="black" points="0,-96.5 0,-132.5 455,-132.5 455,-96.5 0,-96.5"/>
<text text-anchor="middle" x="227.5" y="-110.8" font-family="Times,serif" font-size="14.00">tools/llvm&#45;config/CMakeFiles/llvm&#45;config.dir/llvm&#45;config.cpp.o</text>
</g>
<!-- Node0x55ee4e4d56f8 -->
<g id="node2" class="node">
<title>Node0x55ee4e4d56f8</title>
<polygon fill="#ff7f7f" stroke="black" points="143.5,-23.5 143.5,-59.5 311.5,-59.5 311.5,-23.5 143.5,-23.5"/>
<text text-anchor="middle" x="227.5" y="-37.8" font-family="Times,serif" font-size="14.00">lib/libLLVMSupport.a</text>
</g>
<!-- Node0x55ee4e4d5568&#45;&gt;Node0x55ee4e4d56f8 -->
<g id="edge1" class="edge">
<title>Node0x55ee4e4d5568&#45;&gt;Node0x55ee4e4d56f8</title>
<path fill="none" stroke="#ff7f7f" d="M221.62,-96.31C220.78,-88.29 220.55,-78.55 220.92,-69.57"/>
<polygon fill="#ff7f7f" stroke="#ff7f7f" points="224.42,-69.75 221.64,-59.53 217.44,-69.25 224.42,-69.75"/>
</g>
<!-- Node0x55ee4e4d56f8&#45;&gt;Node0x55ee4e4d5568 -->
<g id="edge2" class="edge">
<title>Node0x55ee4e4d56f8&#45;&gt;Node0x55ee4e4d5568</title>
<path fill="none" stroke="#ff7f7f" d="M233.36,-59.53C234.21,-67.53 234.45,-77.27 234.09,-86.25"/>
<polygon fill="#ff7f7f" stroke="#ff7f7f" points="230.59,-86.09 233.38,-96.31 237.57,-86.58 230.59,-86.09"/>
</g>
</g>
</svg>
