<?xml version="1.0" encoding="UTF-8" standalone="no"?>
<!DOCTYPE svg PUBLIC "-//W3C//DTD SVG 1.1//EN"
 "http://www.w3.org/Graphics/SVG/1.1/DTD/svg11.dtd">
<!-- Generated by graphviz version 2.43.0 (0)
 -->
<!-- Title: bin/llvm&#45;libtool&#45;darwin Pages: 1 -->
<svg width="1054pt" height="798pt"
 viewBox="0.00 0.00 1054.00 798.00" xmlns="http://www.w3.org/2000/svg" xmlns:xlink="http://www.w3.org/1999/xlink">
<g id="graph0" class="graph" transform="scale(1 1) rotate(0) translate(4 794)">
<title>bin/llvm&#45;libtool&#45;darwin</title>
<polygon fill="white" stroke="transparent" points="-4,4 -4,-794 1050,-794 1050,4 -4,4"/>
<text text-anchor="middle" x="523" y="-7.8" font-family="Times,serif" font-size="14.00">bin/llvm&#45;libtool&#45;darwin</text>
<!-- Node0x56044026e348 -->
<g id="node1" class="node">
<title>Node0x56044026e348</title>
<polygon fill="#ff7f7f" stroke="black" points="379.5,-753.5 379.5,-789.5 1002.5,-789.5 1002.5,-753.5 379.5,-753.5"/>
<text text-anchor="middle" x="691" y="-767.8" font-family="Times,serif" font-size="14.00">tools/llvm&#45;libtool&#45;darwin/CMakeFiles/llvm&#45;libtool&#45;darwin.dir/llvm&#45;libtool&#45;darwin.cpp.o</text>
</g>
<!-- Node0x56044026eac8 -->
<g id="node2" class="node">
<title>Node0x56044026eac8</title>
<polygon fill="#ff7f7f" stroke="black" points="586.5,-680.5 586.5,-716.5 795.5,-716.5 795.5,-680.5 586.5,-680.5"/>
<text text-anchor="middle" x="691" y="-694.8" font-family="Times,serif" font-size="14.00">lib/libLLVMBinaryFormat.a</text>
</g>
<!-- Node0x56044026e348&#45;&gt;Node0x56044026eac8 -->
<g id="edge1" class="edge">
<title>Node0x56044026e348&#45;&gt;Node0x56044026eac8</title>
<path fill="none" stroke="#ff7f7f" d="M685.12,-753.31C684.28,-745.29 684.05,-735.55 684.42,-726.57"/>
<polygon fill="#ff7f7f" stroke="#ff7f7f" points="687.92,-726.75 685.14,-716.53 680.94,-726.25 687.92,-726.75"/>
</g>
<!-- Node0x56044026dc18 -->
<g id="node3" class="node">
<title>Node0x56044026dc18</title>
<polygon fill="#ff7f7f" stroke="black" points="509,-315.5 509,-351.5 653,-351.5 653,-315.5 509,-315.5"/>
<text text-anchor="middle" x="581" y="-329.8" font-family="Times,serif" font-size="14.00">lib/libLLVMCore.a</text>
</g>
<!-- Node0x56044026e348&#45;&gt;Node0x56044026dc18 -->
<g id="edge2" class="edge">
<title>Node0x56044026e348&#45;&gt;Node0x56044026dc18</title>
<path fill="none" stroke="#ff7f7f" d="M823.94,-753.5C896.64,-735.84 972,-699.86 972,-626.5 972,-626.5 972,-626.5 972,-478.5 972,-412.77 778.35,-368.79 663.56,-348.12"/>
<polygon fill="#ff7f7f" stroke="#ff7f7f" points="663.85,-344.62 653.39,-346.31 662.62,-351.51 663.85,-344.62"/>
</g>
<!-- Node0x56044026e0c8 -->
<g id="node4" class="node">
<title>Node0x56044026e0c8</title>
<polygon fill="#ff7f7f" stroke="black" points="436.5,-534.5 436.5,-570.5 593.5,-570.5 593.5,-534.5 436.5,-534.5"/>
<text text-anchor="middle" x="515" y="-548.8" font-family="Times,serif" font-size="14.00">lib/libLLVMObject.a</text>
</g>
<!-- Node0x56044026e348&#45;&gt;Node0x56044026e0c8 -->
<g id="edge3" class="edge">
<title>Node0x56044026e348&#45;&gt;Node0x56044026e0c8</title>
<path fill="none" stroke="#ff7f7f" d="M624.89,-753.47C604.33,-745.17 583.16,-733.36 568,-717 531.91,-678.05 516.2,-616 512.73,-580.6"/>
<polygon fill="#ff7f7f" stroke="#ff7f7f" points="516.21,-580.26 512.04,-570.52 509.23,-580.74 516.21,-580.26"/>
</g>
<!-- Node0x56044026d178 -->
<g id="node5" class="node">
<title>Node0x56044026d178</title>
<polygon fill="#ff7f7f" stroke="black" points="344,-607.5 344,-643.5 512,-643.5 512,-607.5 344,-607.5"/>
<text text-anchor="middle" x="428" y="-621.8" font-family="Times,serif" font-size="14.00">lib/libLLVMSupport.a</text>
</g>
<!-- Node0x56044026e348&#45;&gt;Node0x56044026d178 -->
<g id="edge4" class="edge">
<title>Node0x56044026e348&#45;&gt;Node0x56044026d178</title>
<path fill="none" stroke="#ff7f7f" d="M607.03,-753.41C577.26,-744.96 544.42,-733.05 517,-717 487.14,-699.52 458.75,-671.62 442.08,-651.41"/>
<polygon fill="#ff7f7f" stroke="#ff7f7f" points="444.82,-649.23 435.88,-643.54 439.32,-653.57 444.82,-649.23"/>
</g>
<!-- Node0x56044026c6d8 -->
<g id="node6" class="node">
<title>Node0x56044026c6d8</title>
<polygon fill="#ff7f7f" stroke="black" points="303,-23.5 303,-59.5 469,-59.5 469,-23.5 303,-23.5"/>
<text text-anchor="middle" x="386" y="-37.8" font-family="Times,serif" font-size="14.00">lib/libLLVMTextAPI.a</text>
</g>
<!-- Node0x56044026e348&#45;&gt;Node0x56044026c6d8 -->
<g id="edge5" class="edge">
<title>Node0x56044026e348&#45;&gt;Node0x56044026c6d8</title>
<path fill="none" stroke="#ff7f7f" d="M866.85,-753.42C898.31,-745.33 929.72,-733.68 957,-717 1000.61,-690.33 1028,-677.62 1028,-626.5 1028,-626.5 1028,-626.5 1028,-186.5 1028,-74.73 657.51,-49.64 479.38,-44.06"/>
<polygon fill="#ff7f7f" stroke="#ff7f7f" points="479.33,-40.56 469.23,-43.76 479.12,-47.56 479.33,-40.56"/>
</g>
<!-- Node0x56044026eac8&#45;&gt;Node0x56044026e348 -->
<g id="edge6" class="edge">
<title>Node0x56044026eac8&#45;&gt;Node0x56044026e348</title>
<path fill="none" stroke="#ff7f7f" d="M696.86,-716.53C697.71,-724.53 697.95,-734.27 697.59,-743.25"/>
<polygon fill="#ff7f7f" stroke="#ff7f7f" points="694.09,-743.09 696.88,-753.31 701.07,-743.58 694.09,-743.09"/>
</g>
<!-- Node0x56044026eac8&#45;&gt;Node0x56044026d178 -->
<g id="edge7" class="edge">
<title>Node0x56044026eac8&#45;&gt;Node0x56044026d178</title>
<path fill="none" stroke="#ff7f7f" d="M628,-680.49C589.82,-670.18 540.94,-656.99 501.06,-646.22"/>
<polygon fill="#ff7f7f" stroke="#ff7f7f" points="501.96,-642.84 491.39,-643.61 500.13,-649.6 501.96,-642.84"/>
</g>
<!-- Node0x56044026dc18&#45;&gt;Node0x56044026e348 -->
<g id="edge10" class="edge">
<title>Node0x56044026dc18&#45;&gt;Node0x56044026e348</title>
<path fill="none" stroke="#ff7f7f" d="M653.3,-344.45C770.82,-363.26 990,-408.57 990,-478.5 990,-626.5 990,-626.5 990,-626.5 990,-696.56 921.26,-732.54 849.67,-751.01"/>
<polygon fill="#ff7f7f" stroke="#ff7f7f" points="848.43,-747.71 839.56,-753.5 850.11,-754.5 848.43,-747.71"/>
</g>
<!-- Node0x56044026dc18&#45;&gt;Node0x56044026eac8 -->
<g id="edge9" class="edge">
<title>Node0x56044026dc18&#45;&gt;Node0x56044026eac8</title>
<path fill="none" stroke="#ff7f7f" d="M653.23,-344.49C719.67,-358.04 813.92,-389.43 855,-461 899.65,-538.78 834.99,-582.21 770,-644 757.99,-655.42 743.29,-666.09 729.85,-674.85"/>
<polygon fill="#ff7f7f" stroke="#ff7f7f" points="727.8,-672 721.24,-680.32 731.56,-677.91 727.8,-672"/>
</g>
<!-- Node0x56044026dc18&#45;&gt;Node0x56044026e0c8 -->
<g id="edge12" class="edge">
<title>Node0x56044026dc18&#45;&gt;Node0x56044026e0c8</title>
<path fill="none" stroke="#ff7f7f" d="M577.94,-351.76C573.01,-361.97 565.76,-375.34 561,-388 543.53,-434.46 532.92,-491.58 525.12,-524.54"/>
<polygon fill="#ff7f7f" stroke="#ff7f7f" points="521.69,-523.8 522.68,-534.34 528.49,-525.48 521.69,-523.8"/>
</g>
<!-- Node0x56044026dc18&#45;&gt;Node0x56044026d178 -->
<g id="edge8" class="edge">
<title>Node0x56044026dc18&#45;&gt;Node0x56044026d178</title>
<path fill="none" stroke="#ff7f7f" d="M566.15,-351.72C534.43,-383.46 462.38,-455.16 436,-534 429.17,-554.43 429.94,-578.93 430.75,-597.29"/>
<polygon fill="#ff7f7f" stroke="#ff7f7f" points="427.25,-597.46 431.17,-607.3 434.25,-597.17 427.25,-597.46"/>
</g>
<!-- Node0x560440271278 -->
<g id="node7" class="node">
<title>Node0x560440271278</title>
<polygon fill="#ff7f7f" stroke="black" points="299.5,-96.5 299.5,-132.5 472.5,-132.5 472.5,-96.5 299.5,-96.5"/>
<text text-anchor="middle" x="386" y="-110.8" font-family="Times,serif" font-size="14.00">lib/libLLVMRemarks.a</text>
</g>
<!-- Node0x56044026dc18&#45;&gt;Node0x560440271278 -->
<g id="edge11" class="edge">
<title>Node0x56044026dc18&#45;&gt;Node0x560440271278</title>
<path fill="none" stroke="#ff7f7f" d="M572.76,-315.33C562.17,-282.69 543.28,-211.18 501,-169 486.94,-154.97 468.6,-144.37 450.68,-136.46"/>
<polygon fill="#ff7f7f" stroke="#ff7f7f" points="451.95,-133.19 441.38,-132.56 449.25,-139.65 451.95,-133.19"/>
</g>
<!-- Node0x56044026cbd8 -->
<g id="node8" class="node">
<title>Node0x56044026cbd8</title>
<polygon fill="#ff7f7f" stroke="black" points="286.5,-242.5 286.5,-278.5 467.5,-278.5 467.5,-242.5 286.5,-242.5"/>
<text text-anchor="middle" x="377" y="-256.8" font-family="Times,serif" font-size="14.00">lib/libLLVMBitReader.a</text>
</g>
<!-- Node0x56044026dc18&#45;&gt;Node0x56044026cbd8 -->
<g id="edge13" class="edge">
<title>Node0x56044026dc18&#45;&gt;Node0x56044026cbd8</title>
<path fill="none" stroke="#ff7f7f" d="M526.28,-315.49C496.41,-305.47 459.65,-292.71 430.05,-282.12"/>
<polygon fill="#ff7f7f" stroke="#ff7f7f" points="430.9,-278.7 420.3,-278.61 428.53,-285.29 430.9,-278.7"/>
</g>
<!-- Node0x56044026e0c8&#45;&gt;Node0x56044026e348 -->
<g id="edge14" class="edge">
<title>Node0x56044026e0c8&#45;&gt;Node0x56044026e348</title>
<path fill="none" stroke="#ff7f7f" d="M522.33,-570.52C531.16,-602.92 546.18,-674.02 586,-717 598.79,-730.8 615.86,-741.37 632.55,-749.32"/>
<polygon fill="#ff7f7f" stroke="#ff7f7f" points="631.2,-752.55 641.76,-753.47 634.08,-746.17 631.2,-752.55"/>
</g>
<!-- Node0x56044026e0c8&#45;&gt;Node0x56044026eac8 -->
<g id="edge16" class="edge">
<title>Node0x56044026e0c8&#45;&gt;Node0x56044026eac8</title>
<path fill="none" stroke="#ff7f7f" d="M535.85,-570.56C567.2,-596.21 626.55,-644.77 662.06,-673.83"/>
<polygon fill="#ff7f7f" stroke="#ff7f7f" points="660.16,-676.79 670.12,-680.42 664.6,-671.37 660.16,-676.79"/>
</g>
<!-- Node0x56044026e0c8&#45;&gt;Node0x56044026dc18 -->
<g id="edge17" class="edge">
<title>Node0x56044026e0c8&#45;&gt;Node0x56044026dc18</title>
<path fill="none" stroke="#ff7f7f" d="M511.92,-534.34C512.7,-504.07 523.64,-439.49 543,-388 546.53,-378.61 551.44,-368.82 556.67,-360.22"/>
<polygon fill="#ff7f7f" stroke="#ff7f7f" points="559.66,-362.04 562.19,-351.76 553.8,-358.22 559.66,-362.04"/>
</g>
<!-- Node0x56044026e0c8&#45;&gt;Node0x56044026d178 -->
<g id="edge15" class="edge">
<title>Node0x56044026e0c8&#45;&gt;Node0x56044026d178</title>
<path fill="none" stroke="#ff7f7f" d="M500,-570.53C489.77,-579.66 475.99,-591.05 463.18,-601.01"/>
<polygon fill="#ff7f7f" stroke="#ff7f7f" points="460.75,-598.46 454.94,-607.31 465.01,-604.02 460.75,-598.46"/>
</g>
<!-- Node0x56044026e0c8&#45;&gt;Node0x56044026c6d8 -->
<g id="edge21" class="edge">
<title>Node0x56044026e0c8&#45;&gt;Node0x56044026c6d8</title>
<path fill="none" stroke="#ff7f7f" d="M454.89,-534.48C431.14,-525.6 404.52,-513.34 383,-498 254.29,-406.26 223.36,-358 180,-206 159.9,-135.52 247.42,-88 314.67,-63.11"/>
<polygon fill="#ff7f7f" stroke="#ff7f7f" points="316.2,-66.27 324.43,-59.6 313.84,-59.69 316.2,-66.27"/>
</g>
<!-- Node0x56044026e0c8&#45;&gt;Node0x56044026cbd8 -->
<g id="edge18" class="edge">
<title>Node0x56044026e0c8&#45;&gt;Node0x56044026cbd8</title>
<path fill="none" stroke="#ff7f7f" d="M483.86,-534.3C471.35,-524.71 457.98,-511.91 449,-498 404.96,-429.82 382.04,-335.05 376.39,-288.92"/>
<polygon fill="#ff7f7f" stroke="#ff7f7f" points="379.86,-288.39 375.36,-278.8 372.89,-289.1 379.86,-288.39"/>
</g>
<!-- Node0x56044026f978 -->
<g id="node9" class="node">
<title>Node0x56044026f978</title>
<polygon fill="#ff7f7f" stroke="black" points="561.5,-388.5 561.5,-424.5 696.5,-424.5 696.5,-388.5 561.5,-388.5"/>
<text text-anchor="middle" x="629" y="-402.8" font-family="Times,serif" font-size="14.00">lib/libLLVMMC.a</text>
</g>
<!-- Node0x56044026e0c8&#45;&gt;Node0x56044026f978 -->
<g id="edge19" class="edge">
<title>Node0x56044026e0c8&#45;&gt;Node0x56044026f978</title>
<path fill="none" stroke="#ff7f7f" d="M523.97,-534.42C541.35,-509.08 578.85,-461.42 604.15,-432.26"/>
<polygon fill="#ff7f7f" stroke="#ff7f7f" points="606.95,-434.38 610.94,-424.56 601.7,-429.75 606.95,-434.38"/>
</g>
<!-- Node0x560440270918 -->
<g id="node10" class="node">
<title>Node0x560440270918</title>
<polygon fill="#ff7f7f" stroke="black" points="650,-461.5 650,-497.5 830,-497.5 830,-461.5 650,-461.5"/>
<text text-anchor="middle" x="740" y="-475.8" font-family="Times,serif" font-size="14.00">lib/libLLVMMCParser.a</text>
</g>
<!-- Node0x56044026e0c8&#45;&gt;Node0x560440270918 -->
<g id="edge20" class="edge">
<title>Node0x56044026e0c8&#45;&gt;Node0x560440270918</title>
<path fill="none" stroke="#ff7f7f" d="M563.03,-534.49C594.28,-524.29 635.46,-511.27 670.26,-500.57"/>
<polygon fill="#ff7f7f" stroke="#ff7f7f" points="671.36,-503.89 679.9,-497.61 669.31,-497.2 671.36,-503.89"/>
</g>
<!-- Node0x56044026d178&#45;&gt;Node0x56044026e348 -->
<g id="edge22" class="edge">
<title>Node0x56044026d178&#45;&gt;Node0x56044026e348</title>
<path fill="none" stroke="#ff7f7f" d="M448.61,-643.54C468.96,-663.73 501.02,-697.11 535,-717 559.31,-731.23 587.89,-742.21 613.93,-750.4"/>
<polygon fill="#ff7f7f" stroke="#ff7f7f" points="613.18,-753.84 623.77,-753.41 615.23,-747.14 613.18,-753.84"/>
</g>
<!-- Node0x56044026d178&#45;&gt;Node0x56044026dc18 -->
<g id="edge23" class="edge">
<title>Node0x56044026d178&#45;&gt;Node0x56044026dc18</title>
<path fill="none" stroke="#ff7f7f" d="M417.9,-607.3C412.53,-588.71 409.82,-558.44 418,-534 442.73,-460.09 507.6,-392.45 547.81,-358.13"/>
<polygon fill="#ff7f7f" stroke="#ff7f7f" points="550.07,-360.81 555.51,-351.72 545.59,-355.43 550.07,-360.81"/>
</g>
<!-- Node0x56044026d178&#45;&gt;Node0x56044026e0c8 -->
<g id="edge24" class="edge">
<title>Node0x56044026d178&#45;&gt;Node0x56044026e0c8</title>
<path fill="none" stroke="#ff7f7f" d="M443.18,-607.31C453.44,-598.16 467.24,-586.76 480.05,-576.82"/>
<polygon fill="#ff7f7f" stroke="#ff7f7f" points="482.45,-579.38 488.27,-570.53 478.2,-573.82 482.45,-579.38"/>
</g>
<!-- Node0x56044026c6d8&#45;&gt;Node0x56044026e348 -->
<g id="edge26" class="edge">
<title>Node0x56044026c6d8&#45;&gt;Node0x56044026e348</title>
<path fill="none" stroke="#ff7f7f" d="M469.2,-43.51C646.67,-47.85 1046,-70.46 1046,-186.5 1046,-626.5 1046,-626.5 1046,-626.5 1046,-677.62 1018.61,-690.33 975,-717 950.49,-731.99 922.65,-742.91 894.21,-750.84"/>
<polygon fill="#ff7f7f" stroke="#ff7f7f" points="893.3,-747.46 884.54,-753.42 895.11,-754.22 893.3,-747.46"/>
</g>
<!-- Node0x56044026c6d8&#45;&gt;Node0x56044026dc18 -->
<g id="edge27" class="edge">
<title>Node0x56044026c6d8&#45;&gt;Node0x56044026dc18</title>
<path fill="none" stroke="#ff7f7f" d="M422.47,-59.51C440.91,-68.97 463.11,-81.7 481,-96 515.17,-123.31 521.84,-133.22 547,-169 568.16,-199.09 577.07,-206.32 586,-242 589.99,-257.95 586.77,-262.57 586,-279 585.6,-287.52 584.85,-296.77 584.05,-305.15"/>
<polygon fill="#ff7f7f" stroke="#ff7f7f" points="580.56,-304.88 583.03,-315.18 587.52,-305.59 580.56,-304.88"/>
</g>
<!-- Node0x56044026c6d8&#45;&gt;Node0x56044026e0c8 -->
<g id="edge28" class="edge">
<title>Node0x56044026c6d8&#45;&gt;Node0x56044026e0c8</title>
<path fill="none" stroke="#ff7f7f" d="M336.87,-59.6C274.29,-83.39 176.91,-132.06 198,-206 241.36,-358 272.29,-406.26 401,-498 419.58,-511.24 441.96,-522.19 462,-530.65"/>
<polygon fill="#ff7f7f" stroke="#ff7f7f" points="460.74,-533.92 471.32,-534.48 463.4,-527.44 460.74,-533.92"/>
</g>
<!-- Node0x56044026c6d8&#45;&gt;Node0x56044026d178 -->
<g id="edge25" class="edge">
<title>Node0x56044026c6d8&#45;&gt;Node0x56044026d178</title>
<path fill="none" stroke="#ff7f7f" d="M303.09,-59.54C200.16,-83.14 38,-129.37 38,-186.5 38,-480.5 38,-480.5 38,-480.5 38,-536.91 77.09,-544.71 127,-571 190.83,-604.62 271.74,-617.63 333.6,-622.42"/>
<polygon fill="#ff7f7f" stroke="#ff7f7f" points="333.52,-625.93 343.74,-623.15 334.02,-618.94 333.52,-625.93"/>
</g>
<!-- Node0x560440271278&#45;&gt;Node0x56044026e348 -->
<g id="edge29" class="edge">
<title>Node0x560440271278&#45;&gt;Node0x56044026e348</title>
<path fill="none" stroke="#ff7f7f" d="M299.37,-129.91C185.57,-151.34 0,-196.02 0,-259.5 0,-626.5 0,-626.5 0,-626.5 0,-686.11 44.45,-692.95 99,-717 148.78,-738.95 257.99,-751.9 369.22,-759.53"/>
<polygon fill="#ff7f7f" stroke="#ff7f7f" points="369.08,-763.03 379.29,-760.21 369.55,-756.05 369.08,-763.03"/>
</g>
<!-- Node0x560440271278&#45;&gt;Node0x56044026dc18 -->
<g id="edge31" class="edge">
<title>Node0x560440271278&#45;&gt;Node0x56044026dc18</title>
<path fill="none" stroke="#ff7f7f" d="M458.32,-132.56C480.08,-140.77 502.48,-152.52 519,-169 557.32,-207.23 576.42,-269.54 581.81,-305.18"/>
<polygon fill="#ff7f7f" stroke="#ff7f7f" points="578.36,-305.83 583.04,-315.33 585.31,-304.98 578.36,-305.83"/>
</g>
<!-- Node0x560440271278&#45;&gt;Node0x56044026e0c8 -->
<g id="edge33" class="edge">
<title>Node0x560440271278&#45;&gt;Node0x56044026e0c8</title>
<path fill="none" stroke="#ff7f7f" d="M416.14,-132.71C429.78,-141.88 445.05,-154.32 455,-169 494.45,-227.2 509.49,-445.73 513.67,-523.67"/>
<polygon fill="#ff7f7f" stroke="#ff7f7f" points="510.2,-524.31 514.21,-534.11 517.19,-523.95 510.2,-524.31"/>
</g>
<!-- Node0x560440271278&#45;&gt;Node0x56044026d178 -->
<g id="edge30" class="edge">
<title>Node0x560440271278&#45;&gt;Node0x56044026d178</title>
<path fill="none" stroke="#ff7f7f" d="M299.19,-121.12C261.23,-127.72 218.69,-141.34 189,-169 188.76,-169.22 114,-360.17 114,-405.5 114,-480.5 114,-480.5 114,-480.5 114,-578.29 241.39,-609.93 333.89,-620.01"/>
<polygon fill="#ff7f7f" stroke="#ff7f7f" points="333.55,-623.49 343.85,-621.03 334.26,-616.53 333.55,-623.49"/>
</g>
<!-- Node0x560440271278&#45;&gt;Node0x56044026c6d8 -->
<g id="edge35" class="edge">
<title>Node0x560440271278&#45;&gt;Node0x56044026c6d8</title>
<path fill="none" stroke="#ff7f7f" d="M386,-96.31C386,-88.29 386,-78.55 386,-69.57"/>
<polygon fill="#ff7f7f" stroke="#ff7f7f" points="389.5,-69.53 386,-59.53 382.5,-69.53 389.5,-69.53"/>
</g>
<!-- Node0x560440271278&#45;&gt;Node0x56044026cbd8 -->
<g id="edge32" class="edge">
<title>Node0x560440271278&#45;&gt;Node0x56044026cbd8</title>
<path fill="none" stroke="#ff7f7f" d="M409.48,-132.56C420.36,-141.94 432.15,-154.6 438,-169 444.18,-184.24 444.79,-191.02 438,-206 432.68,-217.74 423.36,-227.93 413.59,-236.17"/>
<polygon fill="#ff7f7f" stroke="#ff7f7f" points="411.43,-233.42 405.73,-242.35 415.75,-238.93 411.43,-233.42"/>
</g>
<!-- Node0x560440270418 -->
<g id="node11" class="node">
<title>Node0x560440270418</title>
<polygon fill="#ff7f7f" stroke="black" points="198.5,-169.5 198.5,-205.5 429.5,-205.5 429.5,-169.5 198.5,-169.5"/>
<text text-anchor="middle" x="314" y="-183.8" font-family="Times,serif" font-size="14.00">lib/libLLVMBitstreamReader.a</text>
</g>
<!-- Node0x560440271278&#45;&gt;Node0x560440270418 -->
<g id="edge34" class="edge">
<title>Node0x560440271278&#45;&gt;Node0x560440270418</title>
<path fill="none" stroke="#ff7f7f" d="M374.59,-132.53C366.46,-141.49 355.36,-152.62 344.83,-162.44"/>
<polygon fill="#ff7f7f" stroke="#ff7f7f" points="342.33,-159.98 337.31,-169.31 347.05,-165.15 342.33,-159.98"/>
</g>
<!-- Node0x56044026cbd8&#45;&gt;Node0x56044026e348 -->
<g id="edge36" class="edge">
<title>Node0x56044026cbd8&#45;&gt;Node0x56044026e348</title>
<path fill="none" stroke="#ff7f7f" d="M295.77,-278.58C231.32,-297.46 152,-335.01 152,-405.5 152,-626.5 152,-626.5 152,-626.5 152,-696.51 323.86,-733.37 473.49,-752.19"/>
<polygon fill="#ff7f7f" stroke="#ff7f7f" points="473.41,-755.71 483.76,-753.46 474.27,-748.76 473.41,-755.71"/>
</g>
<!-- Node0x56044026cbd8&#45;&gt;Node0x56044026dc18 -->
<g id="edge37" class="edge">
<title>Node0x56044026cbd8&#45;&gt;Node0x56044026dc18</title>
<path fill="none" stroke="#ff7f7f" d="M432.04,-278.61C461.96,-288.66 498.72,-301.42 528.27,-312"/>
<polygon fill="#ff7f7f" stroke="#ff7f7f" points="527.4,-315.4 538,-315.49 529.77,-308.82 527.4,-315.4"/>
</g>
<!-- Node0x56044026cbd8&#45;&gt;Node0x56044026e0c8 -->
<g id="edge38" class="edge">
<title>Node0x56044026cbd8&#45;&gt;Node0x56044026e0c8</title>
<path fill="none" stroke="#ff7f7f" d="M384.52,-278.8C396.5,-319.68 419.43,-424.36 467,-498 473.95,-508.76 483.52,-518.85 492.38,-527.31"/>
<polygon fill="#ff7f7f" stroke="#ff7f7f" points="490.2,-530.06 499.91,-534.3 494.96,-524.93 490.2,-530.06"/>
</g>
<!-- Node0x56044026cbd8&#45;&gt;Node0x56044026d178 -->
<g id="edge39" class="edge">
<title>Node0x56044026cbd8&#45;&gt;Node0x56044026d178</title>
<path fill="none" stroke="#ff7f7f" d="M377.93,-278.55C379.01,-296.77 381.04,-326.48 384,-352 394.48,-442.28 413.58,-548.35 422.78,-597.27"/>
<polygon fill="#ff7f7f" stroke="#ff7f7f" points="419.39,-598.18 424.69,-607.36 426.27,-596.88 419.39,-598.18"/>
</g>
<!-- Node0x56044026cbd8&#45;&gt;Node0x560440270418 -->
<g id="edge40" class="edge">
<title>Node0x56044026cbd8&#45;&gt;Node0x560440270418</title>
<path fill="none" stroke="#ff7f7f" d="M355.87,-242.31C347.31,-233.68 337.68,-223.06 329.73,-213.53"/>
<polygon fill="#ff7f7f" stroke="#ff7f7f" points="332.26,-211.1 323.25,-205.53 326.82,-215.5 332.26,-211.1"/>
</g>
<!-- Node0x56044026f978&#45;&gt;Node0x56044026e348 -->
<g id="edge44" class="edge">
<title>Node0x56044026f978&#45;&gt;Node0x56044026e348</title>
<path fill="none" stroke="#ff7f7f" d="M696.73,-408.18C745.65,-412.03 810.65,-424.47 855,-461 889.09,-489.07 896,-507.34 896,-551.5 896,-626.5 896,-626.5 896,-626.5 896,-691.49 826.15,-729.68 768,-750.2"/>
<polygon fill="#ff7f7f" stroke="#ff7f7f" points="766.75,-746.93 758.41,-753.47 769,-753.56 766.75,-746.93"/>
</g>
<!-- Node0x56044026f978&#45;&gt;Node0x56044026eac8 -->
<g id="edge45" class="edge">
<title>Node0x56044026f978&#45;&gt;Node0x56044026eac8</title>
<path fill="none" stroke="#ff7f7f" d="M696.67,-415.72C751.18,-423.89 821.51,-438.5 839,-461 868.47,-498.92 763.46,-620.02 714.64,-672.67"/>
<polygon fill="#ff7f7f" stroke="#ff7f7f" points="711.86,-670.52 707.6,-680.21 716.98,-675.29 711.86,-670.52"/>
</g>
<!-- Node0x56044026f978&#45;&gt;Node0x56044026dc18 -->
<g id="edge41" class="edge">
<title>Node0x56044026f978&#45;&gt;Node0x56044026dc18</title>
<path fill="none" stroke="#ff7f7f" d="M617.38,-388.31C611.6,-379.77 604.51,-369.27 598.12,-359.82"/>
<polygon fill="#ff7f7f" stroke="#ff7f7f" points="601.01,-357.85 592.51,-351.53 595.21,-361.77 601.01,-357.85"/>
</g>
<!-- Node0x56044026f978&#45;&gt;Node0x56044026e0c8 -->
<g id="edge42" class="edge">
<title>Node0x56044026f978&#45;&gt;Node0x56044026e0c8</title>
<path fill="none" stroke="#ff7f7f" d="M620.04,-424.56C602.68,-449.88 565.18,-497.54 539.87,-526.71"/>
<polygon fill="#ff7f7f" stroke="#ff7f7f" points="537.07,-524.6 533.08,-534.42 542.32,-529.23 537.07,-524.6"/>
</g>
<!-- Node0x56044026f978&#45;&gt;Node0x56044026d178 -->
<g id="edge43" class="edge">
<title>Node0x56044026f978&#45;&gt;Node0x56044026d178</title>
<path fill="none" stroke="#ff7f7f" d="M631.54,-424.73C635.33,-457.49 638.53,-529.19 602,-571 581.73,-594.2 551.67,-607.49 522.21,-615.05"/>
<polygon fill="#ff7f7f" stroke="#ff7f7f" points="521.19,-611.7 512.26,-617.4 522.79,-618.51 521.19,-611.7"/>
</g>
<!-- Node0x56044026f978&#45;&gt;Node0x560440270918 -->
<g id="edge46" class="edge">
<title>Node0x56044026f978&#45;&gt;Node0x560440270918</title>
<path fill="none" stroke="#ff7f7f" d="M661.63,-424.61C677.22,-433.96 695.66,-445.65 710.79,-455.76"/>
<polygon fill="#ff7f7f" stroke="#ff7f7f" points="709.03,-458.79 719.27,-461.49 712.95,-452.99 709.03,-458.79"/>
</g>
<!-- Node0x560440270918&#45;&gt;Node0x56044026e348 -->
<g id="edge47" class="edge">
<title>Node0x560440270918&#45;&gt;Node0x56044026e348</title>
<path fill="none" stroke="#ff7f7f" d="M753.39,-497.63C783.66,-538.6 851.24,-644.22 805,-717 796.16,-730.91 782.65,-741.26 767.98,-748.95"/>
<polygon fill="#ff7f7f" stroke="#ff7f7f" points="766.22,-745.91 758.73,-753.4 769.26,-752.22 766.22,-745.91"/>
</g>
<!-- Node0x560440270918&#45;&gt;Node0x56044026dc18 -->
<g id="edge48" class="edge">
<title>Node0x560440270918&#45;&gt;Node0x56044026dc18</title>
<path fill="none" stroke="#ff7f7f" d="M737.46,-461.35C733.67,-441.38 724.74,-408.51 705,-388 691.43,-373.9 673.53,-363.31 655.57,-355.44"/>
<polygon fill="#ff7f7f" stroke="#ff7f7f" points="656.77,-352.15 646.19,-351.56 654.1,-358.62 656.77,-352.15"/>
</g>
<!-- Node0x560440270918&#45;&gt;Node0x56044026e0c8 -->
<g id="edge49" class="edge">
<title>Node0x560440270918&#45;&gt;Node0x56044026e0c8</title>
<path fill="none" stroke="#ff7f7f" d="M691.64,-497.61C660.33,-507.83 619.13,-520.86 584.37,-531.55"/>
<polygon fill="#ff7f7f" stroke="#ff7f7f" points="583.29,-528.22 574.75,-534.49 585.34,-534.91 583.29,-528.22"/>
</g>
<!-- Node0x560440270918&#45;&gt;Node0x56044026d178 -->
<g id="edge50" class="edge">
<title>Node0x560440270918&#45;&gt;Node0x56044026d178</title>
<path fill="none" stroke="#ff7f7f" d="M725.2,-497.51C706.46,-517.98 672.23,-551.96 636,-571 601,-589.39 559.32,-601.73 522.48,-609.87"/>
<polygon fill="#ff7f7f" stroke="#ff7f7f" points="521.28,-606.55 512.23,-612.05 522.74,-613.39 521.28,-606.55"/>
</g>
<!-- Node0x560440270918&#45;&gt;Node0x56044026f978 -->
<g id="edge51" class="edge">
<title>Node0x560440270918&#45;&gt;Node0x56044026f978</title>
<path fill="none" stroke="#ff7f7f" d="M707.55,-461.49C691.98,-452.17 673.54,-440.47 658.38,-430.36"/>
<polygon fill="#ff7f7f" stroke="#ff7f7f" points="660.13,-427.31 649.88,-424.61 656.21,-433.11 660.13,-427.31"/>
</g>
<!-- Node0x560440270418&#45;&gt;Node0x56044026e348 -->
<g id="edge52" class="edge">
<title>Node0x560440270418&#45;&gt;Node0x56044026e348</title>
<path fill="none" stroke="#ff7f7f" d="M223,-205.51C155.82,-223.94 76,-260.9 76,-332.5 76,-626.5 76,-626.5 76,-626.5 76,-692.95 133.26,-692.43 195,-717 234.57,-732.75 316.92,-744.29 403.35,-752.54"/>
<polygon fill="#ff7f7f" stroke="#ff7f7f" points="403.08,-756.03 413.36,-753.48 403.73,-749.06 403.08,-756.03"/>
</g>
<!-- Node0x560440270418&#45;&gt;Node0x56044026dc18 -->
<g id="edge53" class="edge">
<title>Node0x560440270418&#45;&gt;Node0x56044026dc18</title>
<path fill="none" stroke="#ff7f7f" d="M385.51,-205.55C414.67,-214.14 448.03,-226.17 476,-242 507.38,-259.77 538,-287.75 558,-307.89"/>
<polygon fill="#ff7f7f" stroke="#ff7f7f" points="555.64,-310.48 565.12,-315.19 560.65,-305.59 555.64,-310.48"/>
</g>
<!-- Node0x560440270418&#45;&gt;Node0x56044026e0c8 -->
<g id="edge54" class="edge">
<title>Node0x560440270418&#45;&gt;Node0x56044026e0c8</title>
<path fill="none" stroke="#ff7f7f" d="M297.96,-205.84C289.98,-215.66 281.17,-228.63 277,-242 272.1,-257.7 271.97,-263.34 277,-279 313.65,-393.02 347.71,-414.95 434,-498 446.05,-509.6 460.94,-520.25 474.64,-528.94"/>
<polygon fill="#ff7f7f" stroke="#ff7f7f" points="473.09,-532.09 483.44,-534.36 476.76,-526.13 473.09,-532.09"/>
</g>
<!-- Node0x560440270418&#45;&gt;Node0x56044026d178 -->
<g id="edge55" class="edge">
<title>Node0x560440270418&#45;&gt;Node0x56044026d178</title>
<path fill="none" stroke="#ff7f7f" d="M295.7,-205.71C261.21,-240.11 190,-321.32 190,-405.5 190,-480.5 190,-480.5 190,-480.5 190,-551.04 267.48,-587.96 334.03,-606.67"/>
<polygon fill="#ff7f7f" stroke="#ff7f7f" points="333.19,-610.07 343.76,-609.3 335.01,-603.31 333.19,-610.07"/>
</g>
<!-- Node0x560440270418&#45;&gt;Node0x560440271278 -->
<g id="edge57" class="edge">
<title>Node0x560440270418&#45;&gt;Node0x560440271278</title>
<path fill="none" stroke="#ff7f7f" d="M325.55,-169.31C333.72,-160.33 344.83,-149.19 355.36,-139.39"/>
<polygon fill="#ff7f7f" stroke="#ff7f7f" points="357.84,-141.86 362.87,-132.53 353.12,-136.69 357.84,-141.86"/>
</g>
<!-- Node0x560440270418&#45;&gt;Node0x56044026cbd8 -->
<g id="edge56" class="edge">
<title>Node0x560440270418&#45;&gt;Node0x56044026cbd8</title>
<path fill="none" stroke="#ff7f7f" d="M334.97,-205.53C343.52,-214.14 353.15,-224.76 361.12,-234.29"/>
<polygon fill="#ff7f7f" stroke="#ff7f7f" points="358.61,-236.75 367.63,-242.31 364.05,-232.34 358.61,-236.75"/>
</g>
</g>
</svg>
