<?xml version="1.0" encoding="UTF-8" standalone="no"?>
<!DOCTYPE svg PUBLIC "-//W3C//DTD SVG 1.1//EN"
 "http://www.w3.org/Graphics/SVG/1.1/DTD/svg11.dtd">
<!-- Generated by graphviz version 2.43.0 (0)
 -->
<!-- Title: bin/llvm&#45;cvtres_lib/libLLVMObject.a Pages: 1 -->
<svg width="2274pt" height="875pt"
 viewBox="0.00 0.00 2274.00 875.31" xmlns="http://www.w3.org/2000/svg" xmlns:xlink="http://www.w3.org/1999/xlink">
<g id="graph0" class="graph" transform="scale(1 1) rotate(0) translate(4 871.31)">
<title>bin/llvm&#45;cvtres_lib/libLLVMObject.a</title>
<polygon fill="white" stroke="transparent" points="-4,4 -4,-871.31 2270,-871.31 2270,4 -4,4"/>
<text text-anchor="middle" x="1133" y="-7.8" font-family="Times,serif" font-size="14.00">bin/llvm&#45;cvtres_lib/libLLVMObject.a</text>
<!-- Node0x5651ff040f68 -->
<g id="node1" class="node">
<title>Node0x5651ff040f68</title>
<polygon fill="#7fb2ff" stroke="black" points="694,-563 421,-563 421,-527 694,-527 694,-563"/>
<text text-anchor="middle" x="557.5" y="-541.3" font-family="Times,serif" font-size="14.00">{lib/libLLVMObject.a(Binary.cpp.o)}</text>
</g>
<!-- Node0x5651ff047e08 -->
<g id="node2" class="node">
<title>Node0x5651ff047e08</title>
<polygon fill="#7fb2ff" stroke="black" points="1050.5,-471 768.5,-471 768.5,-435 1050.5,-435 1050.5,-471"/>
<text text-anchor="middle" x="909.5" y="-449.3" font-family="Times,serif" font-size="14.00">{lib/libLLVMObject.a(Archive.cpp.o)}</text>
</g>
<!-- Node0x5651ff040f68&#45;&gt;Node0x5651ff047e08 -->
<g id="edge1" class="edge">
<title>Node0x5651ff040f68&#45;&gt;Node0x5651ff047e08</title>
<path fill="none" stroke="#7fb2ff" d="M587.19,-526.92C620.9,-511.1 678.75,-489.47 730,-476 739.15,-473.59 748.62,-471.31 758.19,-469.17"/>
<polygon fill="#7fb2ff" stroke="#7fb2ff" points="759.18,-472.54 768.21,-467 757.69,-465.7 759.18,-472.54"/>
</g>
<!-- Node0x5651ff0470e8 -->
<g id="node3" class="node">
<title>Node0x5651ff0470e8</title>
<polygon fill="none" stroke="black" points="1042.5,-363 776.5,-363 776.5,-327 1042.5,-327 1042.5,-363"/>
<text text-anchor="middle" x="909.5" y="-341.3" font-family="Times,serif" font-size="14.00">{lib/libLLVMObject.a(Error.cpp.o)}</text>
</g>
<!-- Node0x5651ff040f68&#45;&gt;Node0x5651ff0470e8 -->
<g id="edge2" class="edge">
<title>Node0x5651ff040f68&#45;&gt;Node0x5651ff0470e8</title>
<path fill="none" stroke="black" d="M570.36,-526.85C595.14,-490.59 656.28,-409.44 730,-372 741.47,-366.18 753.85,-361.52 766.55,-357.82"/>
<polygon fill="black" stroke="black" points="767.58,-361.17 776.32,-355.17 765.75,-354.41 767.58,-361.17"/>
</g>
<!-- Node0x5651ff046eb8 -->
<g id="node4" class="node">
<title>Node0x5651ff046eb8</title>
<polygon fill="#7fb2ff" stroke="black" points="1083,-563 736,-563 736,-527 1083,-527 1083,-563"/>
<text text-anchor="middle" x="909.5" y="-541.3" font-family="Times,serif" font-size="14.00">{lib/libLLVMObject.a(MachOUniversal.cpp.o)}</text>
</g>
<!-- Node0x5651ff040f68&#45;&gt;Node0x5651ff046eb8 -->
<g id="edge3" class="edge">
<title>Node0x5651ff040f68&#45;&gt;Node0x5651ff046eb8</title>
<path fill="none" stroke="#7fb2ff" d="M694.07,-538.4C704.49,-538.32 715.1,-538.27 725.75,-538.26"/>
<polygon fill="#7fb2ff" stroke="#7fb2ff" points="725.97,-541.76 735.97,-538.25 725.97,-534.76 725.97,-541.76"/>
</g>
<!-- Node0x5651ff0437b8 -->
<g id="node5" class="node">
<title>Node0x5651ff0437b8</title>
<polygon fill="#7fb2ff" stroke="black" points="1060,-417 759,-417 759,-381 1060,-381 1060,-417"/>
<text text-anchor="middle" x="909.5" y="-395.3" font-family="Times,serif" font-size="14.00">{lib/libLLVMObject.a(Minidump.cpp.o)}</text>
</g>
<!-- Node0x5651ff040f68&#45;&gt;Node0x5651ff0437b8 -->
<g id="edge4" class="edge">
<title>Node0x5651ff040f68&#45;&gt;Node0x5651ff0437b8</title>
<path fill="none" stroke="#7fb2ff" d="M572.31,-526.93C599.87,-497.92 664.67,-442.97 730,-417 736.02,-414.61 742.23,-412.42 748.57,-410.44"/>
<polygon fill="#7fb2ff" stroke="#7fb2ff" points="750.01,-413.66 758.61,-407.48 748.03,-406.95 750.01,-413.66"/>
</g>
<!-- Node0x5651ff0480d8 -->
<g id="node6" class="node">
<title>Node0x5651ff0480d8</title>
<polygon fill="#7fb2ff" stroke="black" points="1069.5,-617 749.5,-617 749.5,-581 1069.5,-581 1069.5,-617"/>
<text text-anchor="middle" x="909.5" y="-595.3" font-family="Times,serif" font-size="14.00">{lib/libLLVMObject.a(SymbolicFile.cpp.o)}</text>
</g>
<!-- Node0x5651ff040f68&#45;&gt;Node0x5651ff0480d8 -->
<g id="edge5" class="edge">
<title>Node0x5651ff040f68&#45;&gt;Node0x5651ff0480d8</title>
<path fill="none" stroke="#7fb2ff" d="M694.23,-557.48C706.32,-559.33 718.38,-561.21 730,-563 763.4,-568.16 800.33,-573.76 831.9,-579.19"/>
<polygon fill="#7fb2ff" stroke="#7fb2ff" points="831.49,-582.67 841.94,-580.95 832.7,-575.78 831.49,-582.67"/>
</g>
<!-- Node0x5651ff048808 -->
<g id="node7" class="node">
<title>Node0x5651ff048808</title>
<polygon fill="#7fb2ff" stroke="black" points="1073,-271 746,-271 746,-235 1073,-235 1073,-271"/>
<text text-anchor="middle" x="909.5" y="-249.3" font-family="Times,serif" font-size="14.00">{lib/libLLVMObject.a(TapiUniversal.cpp.o)}</text>
</g>
<!-- Node0x5651ff040f68&#45;&gt;Node0x5651ff048808 -->
<g id="edge6" class="edge">
<title>Node0x5651ff040f68&#45;&gt;Node0x5651ff048808</title>
<path fill="none" stroke="#7fb2ff" d="M563.36,-526.65C579.22,-476.63 634.04,-339.22 730,-276 732.19,-274.56 734.42,-273.18 736.69,-271.86"/>
<polygon fill="#7fb2ff" stroke="#7fb2ff" points="738.5,-274.86 745.65,-267.04 735.18,-268.69 738.5,-274.86"/>
</g>
<!-- Node0x5651ff044de8 -->
<g id="node8" class="node">
<title>Node0x5651ff044de8</title>
<polygon fill="#7fb2ff" stroke="black" points="1089,-747 730,-747 730,-711 1089,-711 1089,-747"/>
<text text-anchor="middle" x="909.5" y="-725.3" font-family="Times,serif" font-size="14.00">{lib/libLLVMObject.a(WindowsResource.cpp.o)}</text>
</g>
<!-- Node0x5651ff040f68&#45;&gt;Node0x5651ff044de8 -->
<g id="edge7" class="edge">
<title>Node0x5651ff040f68&#45;&gt;Node0x5651ff044de8</title>
<path fill="none" stroke="#7fb2ff" d="M577.83,-563.11C606.95,-594.31 665.56,-656.77 730,-688 749.29,-697.35 770.94,-703.99 792.33,-708.87"/>
<polygon fill="#7fb2ff" stroke="#7fb2ff" points="791.62,-712.29 802.13,-710.99 793.1,-705.45 791.62,-712.29"/>
</g>
<!-- Node0x5651ff047e08&#45;&gt;Node0x5651ff040f68 -->
<g id="edge12" class="edge">
<title>Node0x5651ff047e08&#45;&gt;Node0x5651ff040f68</title>
<path fill="none" stroke="#7fb2ff" d="M838.43,-471.08C805.28,-477.28 765.32,-484.72 730,-494 698.62,-502.25 664.76,-513.55 635.49,-523.55"/>
<polygon fill="#7fb2ff" stroke="#7fb2ff" points="634.08,-520.33 625.75,-526.88 636.34,-526.95 634.08,-520.33"/>
</g>
<!-- Node0x5651ff047e08&#45;&gt;Node0x5651ff0470e8 -->
<g id="edge13" class="edge">
<title>Node0x5651ff047e08&#45;&gt;Node0x5651ff0470e8</title>
<path fill="none" stroke="black" d="M768.24,-442.52C723.79,-432.91 691.09,-414.84 712,-381 724.47,-360.83 744.25,-348.84 766.59,-342.1"/>
<polygon fill="black" stroke="black" points="767.54,-345.47 776.31,-339.53 765.74,-338.71 767.54,-345.47"/>
</g>
<!-- Node0x5651ff046eb8&#45;&gt;Node0x5651ff040f68 -->
<g id="edge14" class="edge">
<title>Node0x5651ff046eb8&#45;&gt;Node0x5651ff040f68</title>
<path fill="none" stroke="#7fb2ff" d="M735.97,-551.75C725.31,-551.75 714.64,-551.73 704.11,-551.66"/>
<polygon fill="#7fb2ff" stroke="#7fb2ff" points="704.09,-548.16 694.07,-551.6 704.05,-555.16 704.09,-548.16"/>
</g>
<!-- Node0x5651ff046eb8&#45;&gt;Node0x5651ff047e08 -->
<g id="edge15" class="edge">
<title>Node0x5651ff046eb8&#45;&gt;Node0x5651ff047e08</title>
<path fill="none" stroke="#7fb2ff" d="M909.5,-526.87C909.5,-511.83 909.5,-496.78 909.5,-481.74"/>
<polygon fill="#7fb2ff" stroke="#7fb2ff" points="913,-481.33 909.5,-471.33 906,-481.33 913,-481.33"/>
</g>
<!-- Node0x5651ff046eb8&#45;&gt;Node0x5651ff0470e8 -->
<g id="edge16" class="edge">
<title>Node0x5651ff046eb8&#45;&gt;Node0x5651ff0470e8</title>
<path fill="none" stroke="black" d="M788.63,-526.91C758.06,-516.01 729.08,-498.64 712,-471 690.97,-436.97 690.97,-415.03 712,-381 724.47,-360.83 744.25,-348.84 766.59,-342.1"/>
<polygon fill="black" stroke="black" points="767.54,-345.47 776.31,-339.53 765.74,-338.71 767.54,-345.47"/>
</g>
<!-- Node0x5651ff048a38 -->
<g id="node9" class="node">
<title>Node0x5651ff048a38</title>
<polygon fill="#7fb2ff" stroke="black" points="1477,-639 1125,-639 1125,-603 1477,-603 1477,-639"/>
<text text-anchor="middle" x="1301" y="-617.3" font-family="Times,serif" font-size="14.00">{lib/libLLVMObject.a(MachOObjectFile.cpp.o)}</text>
</g>
<!-- Node0x5651ff046eb8&#45;&gt;Node0x5651ff048a38 -->
<g id="edge17" class="edge">
<title>Node0x5651ff046eb8&#45;&gt;Node0x5651ff048a38</title>
<path fill="none" stroke="#7fb2ff" d="M1054.54,-563.05C1066.29,-565.66 1077.91,-568.62 1089,-572 1105.93,-577.16 1108.15,-583.59 1125,-589 1138.74,-593.42 1153.29,-597.29 1167.9,-600.66"/>
<polygon fill="#7fb2ff" stroke="#7fb2ff" points="1167.49,-604.16 1178.02,-602.92 1169.02,-597.33 1167.49,-604.16"/>
</g>
<!-- Node0x5651ff03f438 -->
<g id="node10" class="node">
<title>Node0x5651ff03f438</title>
<polygon fill="#7fb2ff" stroke="black" points="1459.5,-417 1142.5,-417 1142.5,-381 1459.5,-381 1459.5,-417"/>
<text text-anchor="middle" x="1301" y="-395.3" font-family="Times,serif" font-size="14.00">{lib/libLLVMObject.a(IRObjectFile.cpp.o)}</text>
</g>
<!-- Node0x5651ff046eb8&#45;&gt;Node0x5651ff03f438 -->
<g id="edge18" class="edge">
<title>Node0x5651ff046eb8&#45;&gt;Node0x5651ff03f438</title>
<path fill="none" stroke="#7fb2ff" d="M960.98,-526.88C996.78,-513.97 1045.91,-496.12 1089,-480 1141.79,-460.26 1201.77,-437.17 1244.25,-420.71"/>
<polygon fill="#7fb2ff" stroke="#7fb2ff" points="1245.52,-423.97 1253.57,-417.09 1242.98,-417.44 1245.52,-423.97"/>
</g>
<!-- Node0x5651ff0437b8&#45;&gt;Node0x5651ff040f68 -->
<g id="edge19" class="edge">
<title>Node0x5651ff0437b8&#45;&gt;Node0x5651ff040f68</title>
<path fill="none" stroke="#7fb2ff" d="M795.03,-417.03C772.97,-421.2 750.39,-426.9 730,-435 677.84,-455.73 626.02,-494.93 593.22,-520.68"/>
<polygon fill="#7fb2ff" stroke="#7fb2ff" points="591,-517.98 585.31,-526.91 595.33,-523.47 591,-517.98"/>
</g>
<!-- Node0x5651ff0437b8&#45;&gt;Node0x5651ff0470e8 -->
<g id="edge20" class="edge">
<title>Node0x5651ff0437b8&#45;&gt;Node0x5651ff0470e8</title>
<path fill="none" stroke="black" d="M909.5,-380.79C909.5,-378.31 909.5,-375.83 909.5,-373.34"/>
<polygon fill="black" stroke="black" points="913,-373.14 909.5,-363.14 906,-373.14 913,-373.14"/>
</g>
<!-- Node0x5651ff0437b8&#45;&gt;Node0x5651ff03f438 -->
<g id="edge21" class="edge">
<title>Node0x5651ff0437b8&#45;&gt;Node0x5651ff03f438</title>
<path fill="none" stroke="#7fb2ff" d="M1060.26,-399C1083.8,-399 1108.28,-399 1132.2,-399"/>
<polygon fill="#7fb2ff" stroke="#7fb2ff" points="1132.41,-402.5 1142.41,-399 1132.41,-395.5 1132.41,-402.5"/>
</g>
<!-- Node0x5651ff0480d8&#45;&gt;Node0x5651ff040f68 -->
<g id="edge22" class="edge">
<title>Node0x5651ff0480d8&#45;&gt;Node0x5651ff040f68</title>
<path fill="none" stroke="#7fb2ff" d="M749.37,-583.98C742.83,-582.98 736.35,-581.98 730,-581 697.62,-576 661.81,-570.38 631.33,-564.88"/>
<polygon fill="#7fb2ff" stroke="#7fb2ff" points="631.67,-561.38 621.21,-563.01 630.41,-568.27 631.67,-561.38"/>
</g>
<!-- Node0x5651ff0480d8&#45;&gt;Node0x5651ff047e08 -->
<g id="edge23" class="edge">
<title>Node0x5651ff0480d8&#45;&gt;Node0x5651ff047e08</title>
<path fill="none" stroke="#7fb2ff" d="M749.46,-595.38C734.28,-588.23 721.16,-577.82 712,-563 695.88,-536.91 695.88,-520.09 712,-494 723,-476.21 739.61,-464.49 758.63,-456.97"/>
<polygon fill="#7fb2ff" stroke="#7fb2ff" points="759.88,-460.24 768.14,-453.61 757.54,-453.64 759.88,-460.24"/>
</g>
<!-- Node0x5651ff0480d8&#45;&gt;Node0x5651ff0470e8 -->
<g id="edge24" class="edge">
<title>Node0x5651ff0480d8&#45;&gt;Node0x5651ff0470e8</title>
<path fill="none" stroke="black" d="M749.46,-595.38C734.28,-588.23 721.16,-577.82 712,-563 690.74,-528.6 690.74,-415.4 712,-381 724.47,-360.83 744.25,-348.84 766.59,-342.1"/>
<polygon fill="black" stroke="black" points="767.54,-345.47 776.31,-339.53 765.74,-338.71 767.54,-345.47"/>
</g>
<!-- Node0x5651ff0480d8&#45;&gt;Node0x5651ff03f438 -->
<g id="edge25" class="edge">
<title>Node0x5651ff0480d8&#45;&gt;Node0x5651ff03f438</title>
<path fill="none" stroke="#7fb2ff" d="M1058.86,-580.99C1069.73,-576.39 1079.95,-570.5 1089,-563 1126.33,-532.04 1091.48,-495.04 1125,-460 1140.86,-443.42 1161.16,-430.67 1182.29,-421.08"/>
<polygon fill="#7fb2ff" stroke="#7fb2ff" points="1183.9,-424.2 1191.7,-417.03 1181.13,-417.77 1183.9,-424.2"/>
</g>
<!-- Node0x5651ff042868 -->
<g id="node11" class="node">
<title>Node0x5651ff042868</title>
<polygon fill="#7fb2ff" stroke="black" points="1452,-547 1150,-547 1150,-511 1452,-511 1452,-547"/>
<text text-anchor="middle" x="1301" y="-525.3" font-family="Times,serif" font-size="14.00">{lib/libLLVMObject.a(ObjectFile.cpp.o)}</text>
</g>
<!-- Node0x5651ff0480d8&#45;&gt;Node0x5651ff042868 -->
<g id="edge26" class="edge">
<title>Node0x5651ff0480d8&#45;&gt;Node0x5651ff042868</title>
<path fill="none" stroke="#7fb2ff" d="M981,-581C1013.89,-575.38 1053.51,-569.3 1089,-563 1113.29,-558.69 1139.08,-553.75 1163.98,-548.93"/>
<polygon fill="#7fb2ff" stroke="#7fb2ff" points="1164.69,-552.36 1173.84,-547.03 1163.36,-545.49 1164.69,-552.36"/>
</g>
<!-- Node0x5651ff048808&#45;&gt;Node0x5651ff040f68 -->
<g id="edge27" class="edge">
<title>Node0x5651ff048808&#45;&gt;Node0x5651ff040f68</title>
<path fill="none" stroke="#7fb2ff" d="M783.03,-271.03C764.26,-276.21 745.91,-283.52 730,-294 644.94,-350.03 592.21,-464.37 570.28,-517.29"/>
<polygon fill="#7fb2ff" stroke="#7fb2ff" points="566.96,-516.14 566.42,-526.72 573.44,-518.79 566.96,-516.14"/>
</g>
<!-- Node0x5651ff044de8&#45;&gt;Node0x5651ff040f68 -->
<g id="edge8" class="edge">
<title>Node0x5651ff044de8&#45;&gt;Node0x5651ff040f68</title>
<path fill="none" stroke="#7fb2ff" d="M740.85,-710.88C737.16,-709.34 733.54,-707.72 730,-706 663.54,-673.79 603.3,-608.38 575.19,-571.42"/>
<polygon fill="#7fb2ff" stroke="#7fb2ff" points="577.82,-569.08 569.07,-563.11 572.18,-573.23 577.82,-569.08"/>
</g>
<!-- Node0x5651ff044de8&#45;&gt;Node0x5651ff047e08 -->
<g id="edge9" class="edge">
<title>Node0x5651ff044de8&#45;&gt;Node0x5651ff047e08</title>
<path fill="none" stroke="#7fb2ff" d="M843.65,-710.92C797.86,-694.54 740.17,-665.37 712,-617 691.87,-582.44 690.97,-561.03 712,-527 727.28,-502.27 752.08,-485.76 779.02,-474.76"/>
<polygon fill="#7fb2ff" stroke="#7fb2ff" points="780.54,-477.93 788.63,-471.09 778.04,-471.39 780.54,-477.93"/>
</g>
<!-- Node0x5651ff044de8&#45;&gt;Node0x5651ff0470e8 -->
<g id="edge10" class="edge">
<title>Node0x5651ff044de8&#45;&gt;Node0x5651ff0470e8</title>
<path fill="none" stroke="black" d="M843.65,-710.92C797.86,-694.54 740.17,-665.37 712,-617 698.8,-594.34 698.21,-403.31 712,-381 724.47,-360.83 744.25,-348.84 766.59,-342.1"/>
<polygon fill="black" stroke="black" points="767.54,-345.47 776.31,-339.53 765.74,-338.71 767.54,-345.47"/>
</g>
<!-- Node0x5651ff045d38 -->
<g id="node12" class="node">
<title>Node0x5651ff045d38</title>
<polygon fill="#7fb2ff" stroke="black" points="1473,-807 1129,-807 1129,-771 1473,-771 1473,-807"/>
<text text-anchor="middle" x="1301" y="-785.3" font-family="Times,serif" font-size="14.00">{lib/libLLVMObject.a(WasmObjectFile.cpp.o)}</text>
</g>
<!-- Node0x5651ff044de8&#45;&gt;Node0x5651ff045d38 -->
<g id="edge11" class="edge">
<title>Node0x5651ff044de8&#45;&gt;Node0x5651ff045d38</title>
<path fill="none" stroke="#7fb2ff" d="M1027.36,-747C1073.28,-754.08 1126.12,-762.21 1172.98,-769.43"/>
<polygon fill="#7fb2ff" stroke="#7fb2ff" points="1172.47,-772.9 1182.88,-770.96 1173.53,-765.98 1172.47,-772.9"/>
</g>
<!-- Node0x5651ff048a38&#45;&gt;Node0x5651ff040f68 -->
<g id="edge28" class="edge">
<title>Node0x5651ff048a38&#45;&gt;Node0x5651ff040f68</title>
<path fill="none" stroke="#7fb2ff" d="M1167.75,-639.02C1051.06,-650.94 877.14,-659 730,-626 680.81,-614.97 629.11,-588.16 595.5,-568.39"/>
<polygon fill="#7fb2ff" stroke="#7fb2ff" points="596.9,-565.15 586.52,-563.02 593.31,-571.16 596.9,-565.15"/>
</g>
<!-- Node0x5651ff048a38&#45;&gt;Node0x5651ff047e08 -->
<g id="edge29" class="edge">
<title>Node0x5651ff048a38&#45;&gt;Node0x5651ff047e08</title>
<path fill="none" stroke="#7fb2ff" d="M1148.58,-602.98C1140.24,-599.07 1132.3,-594.45 1125,-589 1096.65,-567.84 1115.47,-541.47 1089,-518 1066.39,-497.95 1037.09,-483.92 1008.79,-474.18"/>
<polygon fill="#7fb2ff" stroke="#7fb2ff" points="1009.84,-470.84 999.24,-471.04 1007.65,-477.49 1009.84,-470.84"/>
</g>
<!-- Node0x5651ff048a38&#45;&gt;Node0x5651ff0470e8 -->
<g id="edge30" class="edge">
<title>Node0x5651ff048a38&#45;&gt;Node0x5651ff0470e8</title>
<path fill="none" stroke="black" d="M1142.13,-602.81C1135.96,-598.86 1130.2,-594.28 1125,-589 1056.44,-519.3 1158.62,-440.63 1089,-372 1078.57,-361.72 1066.01,-354.29 1052.43,-349.02"/>
<polygon fill="black" stroke="black" points="1053.48,-345.68 1042.88,-345.71 1051.18,-352.29 1053.48,-345.68"/>
</g>
<!-- Node0x5651ff048a38&#45;&gt;Node0x5651ff0480d8 -->
<g id="edge32" class="edge">
<title>Node0x5651ff048a38&#45;&gt;Node0x5651ff0480d8</title>
<path fill="none" stroke="#7fb2ff" d="M1124.94,-611.11C1110.01,-610.27 1094.92,-609.42 1080.04,-608.58"/>
<polygon fill="#7fb2ff" stroke="#7fb2ff" points="1079.95,-605.07 1069.77,-608 1079.55,-612.05 1079.95,-605.07"/>
</g>
<!-- Node0x5651ff048a38&#45;&gt;Node0x5651ff042868 -->
<g id="edge31" class="edge">
<title>Node0x5651ff048a38&#45;&gt;Node0x5651ff042868</title>
<path fill="none" stroke="#7fb2ff" d="M1372.45,-602.95C1424.8,-585.45 1427.98,-567.94 1381.97,-550.44"/>
<polygon fill="#7fb2ff" stroke="#7fb2ff" points="1383.06,-547.11 1372.47,-547.06 1380.71,-553.71 1383.06,-547.11"/>
</g>
<!-- Node0x5651ff03f438&#45;&gt;Node0x5651ff040f68 -->
<g id="edge33" class="edge">
<title>Node0x5651ff03f438&#45;&gt;Node0x5651ff040f68</title>
<path fill="none" stroke="#7fb2ff" d="M1265.37,-380.93C1172.96,-335.4 915,-225.91 730,-318 645.02,-360.3 590.98,-467.03 569.32,-517.6"/>
<polygon fill="#7fb2ff" stroke="#7fb2ff" points="566.04,-516.36 565.42,-526.93 572.5,-519.06 566.04,-516.36"/>
</g>
<!-- Node0x5651ff03f438&#45;&gt;Node0x5651ff047e08 -->
<g id="edge34" class="edge">
<title>Node0x5651ff03f438&#45;&gt;Node0x5651ff047e08</title>
<path fill="none" stroke="#7fb2ff" d="M1170.04,-417.02C1131.76,-422.32 1089.72,-428.15 1050.82,-433.55"/>
<polygon fill="#7fb2ff" stroke="#7fb2ff" points="1049.89,-430.14 1040.47,-434.98 1050.85,-437.07 1049.89,-430.14"/>
</g>
<!-- Node0x5651ff03f438&#45;&gt;Node0x5651ff0470e8 -->
<g id="edge35" class="edge">
<title>Node0x5651ff03f438&#45;&gt;Node0x5651ff0470e8</title>
<path fill="none" stroke="black" d="M1170.04,-380.98C1131.76,-375.68 1089.72,-369.85 1050.82,-364.45"/>
<polygon fill="black" stroke="black" points="1050.85,-360.93 1040.47,-363.02 1049.89,-367.86 1050.85,-360.93"/>
</g>
<!-- Node0x5651ff03f438&#45;&gt;Node0x5651ff0480d8 -->
<g id="edge38" class="edge">
<title>Node0x5651ff03f438&#45;&gt;Node0x5651ff0480d8</title>
<path fill="none" stroke="#7fb2ff" d="M1241.39,-417.06C1203.58,-427.97 1155.88,-445.73 1125,-478 1091.48,-513.04 1126.33,-550.04 1089,-581 1085.68,-583.76 1082.19,-586.3 1078.57,-588.63"/>
<polygon fill="#7fb2ff" stroke="#7fb2ff" points="1076.76,-585.63 1069.91,-593.71 1080.3,-591.67 1076.76,-585.63"/>
</g>
<!-- Node0x5651ff03f438&#45;&gt;Node0x5651ff042868 -->
<g id="edge37" class="edge">
<title>Node0x5651ff03f438&#45;&gt;Node0x5651ff042868</title>
<path fill="none" stroke="#7fb2ff" d="M1357.79,-417.03C1437.32,-447.11 1440.44,-477.2 1367.15,-507.29"/>
<polygon fill="#7fb2ff" stroke="#7fb2ff" points="1365.86,-504.04 1357.83,-510.96 1368.42,-510.55 1365.86,-504.04"/>
</g>
<!-- Node0x5651ff042f48 -->
<g id="node13" class="node">
<title>Node0x5651ff042f48</title>
<polygon fill="none" stroke="black" points="1886,-59 1513,-59 1513,-23 1886,-23 1886,-59"/>
<text text-anchor="middle" x="1699.5" y="-37.3" font-family="Times,serif" font-size="14.00">{lib/libLLVMObject.a(ModuleSymbolTable.cpp.o)}</text>
</g>
<!-- Node0x5651ff03f438&#45;&gt;Node0x5651ff042f48 -->
<g id="edge36" class="edge">
<title>Node0x5651ff03f438&#45;&gt;Node0x5651ff042f48</title>
<path fill="none" stroke="black" d="M1322.21,-380.75C1387.83,-321.5 1595.09,-134.37 1670.61,-66.18"/>
<polygon fill="black" stroke="black" points="1673.26,-68.51 1678.33,-59.21 1668.57,-63.31 1673.26,-68.51"/>
</g>
<!-- Node0x5651ff042868&#45;&gt;Node0x5651ff040f68 -->
<g id="edge39" class="edge">
<title>Node0x5651ff042868&#45;&gt;Node0x5651ff040f68</title>
<path fill="none" stroke="#7fb2ff" d="M1149.75,-518.14C1034.68,-511.75 872.09,-506.88 730,-518 709.12,-519.63 686.93,-522.37 665.7,-525.49"/>
<polygon fill="#7fb2ff" stroke="#7fb2ff" points="665.05,-522.05 655.69,-527 666.1,-528.97 665.05,-522.05"/>
</g>
<!-- Node0x5651ff042868&#45;&gt;Node0x5651ff047e08 -->
<g id="edge40" class="edge">
<title>Node0x5651ff042868&#45;&gt;Node0x5651ff047e08</title>
<path fill="none" stroke="#7fb2ff" d="M1216.17,-510.95C1177.51,-502.77 1130.97,-493.14 1089,-485 1067.96,-480.92 1045.49,-476.75 1023.83,-472.82"/>
<polygon fill="#7fb2ff" stroke="#7fb2ff" points="1024.41,-469.37 1013.95,-471.03 1023.17,-476.26 1024.41,-469.37"/>
</g>
<!-- Node0x5651ff042868&#45;&gt;Node0x5651ff0470e8 -->
<g id="edge41" class="edge">
<title>Node0x5651ff042868&#45;&gt;Node0x5651ff0470e8</title>
<path fill="none" stroke="black" d="M1257.95,-510.91C1220.12,-493.19 1164.58,-463.42 1125,-426 1104.04,-406.18 1113.34,-387.48 1089,-372 1077.83,-364.9 1065.49,-359.4 1052.66,-355.18"/>
<polygon fill="black" stroke="black" points="1053.36,-351.73 1042.77,-352.19 1051.33,-358.43 1053.36,-351.73"/>
</g>
<!-- Node0x5651ff042868&#45;&gt;Node0x5651ff0480d8 -->
<g id="edge46" class="edge">
<title>Node0x5651ff042868&#45;&gt;Node0x5651ff0480d8</title>
<path fill="none" stroke="#7fb2ff" d="M1250.26,-547.05C1207.59,-558.04 1144.4,-571.17 1089,-581 1085.94,-581.54 1082.84,-582.09 1079.72,-582.63"/>
<polygon fill="#7fb2ff" stroke="#7fb2ff" points="1078.96,-579.2 1069.69,-584.34 1080.13,-586.11 1078.96,-579.2"/>
</g>
<!-- Node0x5651ff042868&#45;&gt;Node0x5651ff048a38 -->
<g id="edge42" class="edge">
<title>Node0x5651ff042868&#45;&gt;Node0x5651ff048a38</title>
<path fill="none" stroke="#7fb2ff" d="M1229.53,-547.06C1177.19,-564.56 1174.03,-582.06 1220.04,-599.56"/>
<polygon fill="#7fb2ff" stroke="#7fb2ff" points="1218.96,-602.89 1229.55,-602.95 1221.31,-596.3 1218.96,-602.89"/>
</g>
<!-- Node0x5651ff042868&#45;&gt;Node0x5651ff03f438 -->
<g id="edge43" class="edge">
<title>Node0x5651ff042868&#45;&gt;Node0x5651ff03f438</title>
<path fill="none" stroke="#7fb2ff" d="M1244.17,-510.96C1164.66,-480.87 1161.57,-450.78 1234.89,-420.7"/>
<polygon fill="#7fb2ff" stroke="#7fb2ff" points="1236.18,-423.95 1244.21,-417.03 1233.62,-417.43 1236.18,-423.95"/>
</g>
<!-- Node0x5651ff042868&#45;&gt;Node0x5651ff045d38 -->
<g id="edge47" class="edge">
<title>Node0x5651ff042868&#45;&gt;Node0x5651ff045d38</title>
<path fill="none" stroke="#7fb2ff" d="M1184.73,-547.04C1156.09,-557.52 1129.05,-574.03 1113,-600 1104.18,-614.27 1104.18,-736.73 1113,-751 1115.93,-755.75 1119.29,-760.03 1123,-763.9"/>
<polygon fill="#7fb2ff" stroke="#7fb2ff" points="1120.82,-766.65 1130.55,-770.84 1125.55,-761.5 1120.82,-766.65"/>
</g>
<!-- Node0x5651ff042188 -->
<g id="node14" class="node">
<title>Node0x5651ff042188</title>
<polygon fill="#7fb2ff" stroke="black" points="1865,-463 1534,-463 1534,-427 1865,-427 1865,-463"/>
<text text-anchor="middle" x="1699.5" y="-441.3" font-family="Times,serif" font-size="14.00">{lib/libLLVMObject.a(ELFObjectFile.cpp.o)}</text>
</g>
<!-- Node0x5651ff042868&#45;&gt;Node0x5651ff042188 -->
<g id="edge44" class="edge">
<title>Node0x5651ff042868&#45;&gt;Node0x5651ff042188</title>
<path fill="none" stroke="#7fb2ff" d="M1361.68,-510.93C1395.57,-503.89 1438.75,-495.98 1477,-488 1510.7,-480.97 1547.12,-472.7 1580.51,-465.2"/>
<polygon fill="#7fb2ff" stroke="#7fb2ff" points="1581.31,-468.61 1590.3,-463.01 1579.78,-461.78 1581.31,-468.61"/>
</g>
<!-- Node0x5651ff047368 -->
<g id="node15" class="node">
<title>Node0x5651ff047368</title>
<polygon fill="#7fb2ff" stroke="black" points="1871,-547 1528,-547 1528,-511 1871,-511 1871,-547"/>
<text text-anchor="middle" x="1699.5" y="-525.3" font-family="Times,serif" font-size="14.00">{lib/libLLVMObject.a(COFFObjectFile.cpp.o)}</text>
</g>
<!-- Node0x5651ff042868&#45;&gt;Node0x5651ff047368 -->
<g id="edge45" class="edge">
<title>Node0x5651ff042868&#45;&gt;Node0x5651ff047368</title>
<path fill="none" stroke="#7fb2ff" d="M1452.18,-522.43C1473.57,-522.27 1495.74,-522.21 1517.64,-522.27"/>
<polygon fill="#7fb2ff" stroke="#7fb2ff" points="1517.66,-525.77 1527.67,-522.31 1517.68,-518.77 1517.66,-525.77"/>
</g>
<!-- Node0x5651ff044988 -->
<g id="node16" class="node">
<title>Node0x5651ff044988</title>
<polygon fill="#7fb2ff" stroke="black" points="1876,-639 1523,-639 1523,-603 1876,-603 1876,-639"/>
<text text-anchor="middle" x="1699.5" y="-617.3" font-family="Times,serif" font-size="14.00">{lib/libLLVMObject.a(XCOFFObjectFile.cpp.o)}</text>
</g>
<!-- Node0x5651ff042868&#45;&gt;Node0x5651ff044988 -->
<g id="edge48" class="edge">
<title>Node0x5651ff042868&#45;&gt;Node0x5651ff044988</title>
<path fill="none" stroke="#7fb2ff" d="M1452.05,-546.6C1460.5,-548.35 1468.87,-550.16 1477,-552 1537.15,-565.62 1605.54,-584.71 1650.22,-599.66"/>
<polygon fill="#7fb2ff" stroke="#7fb2ff" points="1649.34,-603.06 1659.93,-602.98 1651.6,-596.43 1649.34,-603.06"/>
</g>
<!-- Node0x5651ff045d38&#45;&gt;Node0x5651ff040f68 -->
<g id="edge69" class="edge">
<title>Node0x5651ff045d38&#45;&gt;Node0x5651ff040f68</title>
<path fill="none" stroke="#7fb2ff" d="M1169.63,-770.9C1153.89,-765.6 1138.6,-758.78 1125,-750 1102.6,-735.54 1111.95,-715.58 1089,-702 950.3,-619.95 881.53,-705.86 730,-651 676.52,-631.64 621.84,-594.15 589.03,-569.35"/>
<polygon fill="#7fb2ff" stroke="#7fb2ff" points="590.84,-566.33 580.77,-563.03 586.58,-571.89 590.84,-566.33"/>
</g>
<!-- Node0x5651ff045d38&#45;&gt;Node0x5651ff0470e8 -->
<g id="edge70" class="edge">
<title>Node0x5651ff045d38&#45;&gt;Node0x5651ff0470e8</title>
<path fill="none" stroke="black" d="M1263.91,-770.94C1222.8,-748.28 1157.16,-705.34 1125,-648 1064.49,-540.11 1175.58,-460.36 1089,-372 1078.66,-361.45 1066.08,-353.87 1052.44,-348.52"/>
<polygon fill="black" stroke="black" points="1053.43,-345.16 1042.83,-345.17 1051.12,-351.77 1053.43,-345.16"/>
</g>
<!-- Node0x5651ff045d38&#45;&gt;Node0x5651ff0480d8 -->
<g id="edge74" class="edge">
<title>Node0x5651ff045d38&#45;&gt;Node0x5651ff0480d8</title>
<path fill="none" stroke="#7fb2ff" d="M1146.39,-770.82C1138.79,-766.92 1131.6,-762.35 1125,-757 1092.19,-730.37 1119.1,-698.66 1089,-669 1066.11,-646.44 1035.09,-630.94 1005.34,-620.38"/>
<polygon fill="#7fb2ff" stroke="#7fb2ff" points="1006.33,-617.02 995.74,-617.13 1004.08,-623.65 1006.33,-617.02"/>
</g>
<!-- Node0x5651ff045d38&#45;&gt;Node0x5651ff048a38 -->
<g id="edge71" class="edge">
<title>Node0x5651ff045d38&#45;&gt;Node0x5651ff048a38</title>
<path fill="none" stroke="#7fb2ff" d="M1301,-770.84C1301,-730.26 1301,-689.67 1301,-649.09"/>
<polygon fill="#7fb2ff" stroke="#7fb2ff" points="1304.5,-649.05 1301,-639.05 1297.5,-649.05 1304.5,-649.05"/>
</g>
<!-- Node0x5651ff045d38&#45;&gt;Node0x5651ff042868 -->
<g id="edge72" class="edge">
<title>Node0x5651ff045d38&#45;&gt;Node0x5651ff042868</title>
<path fill="none" stroke="#7fb2ff" d="M1128.79,-772.9C1117.75,-765.78 1108.2,-756.64 1101,-745 1092.88,-731.86 1092.88,-619.14 1101,-606 1117.46,-579.37 1144.71,-561.93 1173.87,-550.51"/>
<polygon fill="#7fb2ff" stroke="#7fb2ff" points="1175.21,-553.74 1183.39,-547.01 1172.8,-547.17 1175.21,-553.74"/>
</g>
<!-- Node0x5651ff045d38&#45;&gt;Node0x5651ff042188 -->
<g id="edge73" class="edge">
<title>Node0x5651ff045d38&#45;&gt;Node0x5651ff042188</title>
<path fill="none" stroke="#7fb2ff" d="M1335.91,-770.89C1375.89,-747.76 1441.37,-703.94 1477,-648 1512.91,-591.63 1467.09,-550.57 1513,-502 1527.68,-486.46 1546.48,-475.13 1566.46,-466.86"/>
<polygon fill="#7fb2ff" stroke="#7fb2ff" points="1567.96,-470.04 1576.03,-463.16 1565.44,-463.51 1567.96,-470.04"/>
</g>
<!-- Node0x5651ff047a98 -->
<g id="node18" class="node">
<title>Node0x5651ff047a98</title>
<polygon fill="none" stroke="black" points="2266,-59 1922,-59 1922,-23 2266,-23 2266,-59"/>
<text text-anchor="middle" x="2094" y="-37.3" font-family="Times,serif" font-size="14.00">{lib/libLLVMObject.a(RecordStreamer.cpp.o)}</text>
</g>
<!-- Node0x5651ff042f48&#45;&gt;Node0x5651ff047a98 -->
<g id="edge49" class="edge">
<title>Node0x5651ff042f48&#45;&gt;Node0x5651ff047a98</title>
<path fill="none" stroke="black" d="M1886.12,-41C1894.67,-41 1903.25,-41 1911.79,-41"/>
<polygon fill="black" stroke="black" points="1911.8,-44.5 1921.8,-41 1911.8,-37.5 1911.8,-44.5"/>
</g>
<!-- Node0x5651ff042188&#45;&gt;Node0x5651ff040f68 -->
<g id="edge52" class="edge">
<title>Node0x5651ff042188&#45;&gt;Node0x5651ff040f68</title>
<path fill="none" stroke="#7fb2ff" d="M1684.27,-426.78C1652.25,-387.31 1569.98,-294.41 1477,-256 1169.91,-129.13 1015.2,-55.52 730,-226 621.1,-291.09 577.33,-451.74 563.67,-516.88"/>
<polygon fill="#7fb2ff" stroke="#7fb2ff" points="560.21,-516.34 561.66,-526.84 567.07,-517.73 560.21,-516.34"/>
</g>
<!-- Node0x5651ff042188&#45;&gt;Node0x5651ff047e08 -->
<g id="edge53" class="edge">
<title>Node0x5651ff042188&#45;&gt;Node0x5651ff047e08</title>
<path fill="none" stroke="#7fb2ff" d="M1657.03,-426.91C1613.26,-408.87 1541.76,-382.4 1477,-372 1322.53,-347.2 1262.93,-298.18 1125,-372 1099.57,-385.61 1113.34,-410.52 1089,-426 1080.08,-431.67 1070.42,-436.32 1060.35,-440.11"/>
<polygon fill="#7fb2ff" stroke="#7fb2ff" points="1058.9,-436.91 1050.6,-443.49 1061.19,-443.52 1058.9,-436.91"/>
</g>
<!-- Node0x5651ff042188&#45;&gt;Node0x5651ff0470e8 -->
<g id="edge54" class="edge">
<title>Node0x5651ff042188&#45;&gt;Node0x5651ff0470e8</title>
<path fill="none" stroke="black" d="M1681.78,-426.81C1647.53,-391.07 1565.16,-312.66 1477,-284 1297.92,-225.79 1071.93,-287.88 967.81,-323.54"/>
<polygon fill="black" stroke="black" points="966.42,-320.32 958.12,-326.91 968.72,-326.94 966.42,-320.32"/>
</g>
<!-- Node0x5651ff042188&#45;&gt;Node0x5651ff0437b8 -->
<g id="edge57" class="edge">
<title>Node0x5651ff042188&#45;&gt;Node0x5651ff0437b8</title>
<path fill="none" stroke="#7fb2ff" d="M1673.9,-426.78C1634.68,-398.99 1554.46,-347.2 1477,-328 1325.15,-290.36 1266.37,-261.01 1125,-328 1102.17,-338.82 1110.96,-359.5 1089,-372 1082.96,-375.44 1076.63,-378.48 1070.1,-381.18"/>
<polygon fill="#7fb2ff" stroke="#7fb2ff" points="1068.5,-378.04 1060.41,-384.88 1071,-384.58 1068.5,-378.04"/>
</g>
<!-- Node0x5651ff042188&#45;&gt;Node0x5651ff0480d8 -->
<g id="edge60" class="edge">
<title>Node0x5651ff042188&#45;&gt;Node0x5651ff0480d8</title>
<path fill="none" stroke="#7fb2ff" d="M1533.88,-444.2C1388.37,-446.54 1189.53,-458.1 1125,-502 1096.08,-521.68 1117.41,-551.59 1089,-572 1085.66,-574.4 1082.19,-576.62 1078.62,-578.69"/>
<polygon fill="#7fb2ff" stroke="#7fb2ff" points="1076.75,-575.72 1069.54,-583.48 1080.01,-581.91 1076.75,-575.72"/>
</g>
<!-- Node0x5651ff042188&#45;&gt;Node0x5651ff048a38 -->
<g id="edge55" class="edge">
<title>Node0x5651ff042188&#45;&gt;Node0x5651ff048a38</title>
<path fill="none" stroke="#7fb2ff" d="M1595.85,-463.1C1567.12,-471.59 1537.18,-483.98 1513,-502 1489.87,-519.24 1499.62,-538.11 1477,-556 1452.11,-575.69 1420.65,-589.83 1391.29,-599.78"/>
<polygon fill="#7fb2ff" stroke="#7fb2ff" points="1389.85,-596.57 1381.43,-603 1392.02,-603.22 1389.85,-596.57"/>
</g>
<!-- Node0x5651ff042188&#45;&gt;Node0x5651ff03f438 -->
<g id="edge56" class="edge">
<title>Node0x5651ff042188&#45;&gt;Node0x5651ff03f438</title>
<path fill="none" stroke="#7fb2ff" d="M1543.17,-426.98C1518.25,-424.09 1492.39,-421.09 1467.25,-418.17"/>
<polygon fill="#7fb2ff" stroke="#7fb2ff" points="1467.62,-414.69 1457.28,-417.02 1466.81,-421.64 1467.62,-414.69"/>
</g>
<!-- Node0x5651ff042188&#45;&gt;Node0x5651ff042868 -->
<g id="edge58" class="edge">
<title>Node0x5651ff042188&#45;&gt;Node0x5651ff042868</title>
<path fill="none" stroke="#7fb2ff" d="M1653.68,-463.06C1609.04,-476.22 1538.48,-493.17 1477,-506 1472.24,-506.99 1467.41,-507.98 1462.53,-508.97"/>
<polygon fill="#7fb2ff" stroke="#7fb2ff" points="1461.57,-505.59 1452.44,-510.98 1462.94,-512.46 1461.57,-505.59"/>
</g>
<!-- Node0x5651ff046be8 -->
<g id="node20" class="node">
<title>Node0x5651ff046be8</title>
<polygon fill="#7fb2ff" stroke="black" points="2221.5,-417 1966.5,-417 1966.5,-381 2221.5,-381 2221.5,-417"/>
<text text-anchor="middle" x="2094" y="-395.3" font-family="Times,serif" font-size="14.00">{lib/libLLVMObject.a(ELF.cpp.o)}</text>
</g>
<!-- Node0x5651ff042188&#45;&gt;Node0x5651ff046be8 -->
<g id="edge59" class="edge">
<title>Node0x5651ff042188&#45;&gt;Node0x5651ff046be8</title>
<path fill="none" stroke="#7fb2ff" d="M1802.86,-426.99C1849.7,-420.7 1905.89,-413.97 1956.29,-408.56"/>
<polygon fill="#7fb2ff" stroke="#7fb2ff" points="1956.72,-412.03 1966.29,-407.49 1955.97,-405.07 1956.72,-412.03"/>
</g>
<!-- Node0x5651ff047368&#45;&gt;Node0x5651ff040f68 -->
<g id="edge61" class="edge">
<title>Node0x5651ff047368&#45;&gt;Node0x5651ff040f68</title>
<path fill="none" stroke="#7fb2ff" d="M1586.67,-547.16C1558.96,-556.78 1531.84,-571.5 1513,-594 1448.82,-670.63 1553.13,-751.22 1477,-816 1413.58,-869.96 802.28,-797.34 730,-756 652.91,-711.91 596.51,-618.68 572.02,-572.34"/>
<polygon fill="#7fb2ff" stroke="#7fb2ff" points="574.99,-570.46 567.28,-563.2 568.78,-573.69 574.99,-570.46"/>
</g>
<!-- Node0x5651ff047368&#45;&gt;Node0x5651ff047e08 -->
<g id="edge62" class="edge">
<title>Node0x5651ff047368&#45;&gt;Node0x5651ff047e08</title>
<path fill="none" stroke="#7fb2ff" d="M1556.79,-510.98C1530.29,-507.82 1502.82,-504.69 1477,-502 1336.06,-487.32 1175.07,-473.7 1060.82,-464.56"/>
<polygon fill="#7fb2ff" stroke="#7fb2ff" points="1060.85,-461.05 1050.6,-463.75 1060.29,-468.03 1060.85,-461.05"/>
</g>
<!-- Node0x5651ff047368&#45;&gt;Node0x5651ff0470e8 -->
<g id="edge63" class="edge">
<title>Node0x5651ff047368&#45;&gt;Node0x5651ff0470e8</title>
<path fill="none" stroke="black" d="M1581.75,-510.95C1556.67,-502.51 1532.02,-490.14 1513,-472 1478.82,-439.4 1514.99,-400.07 1477,-372 1331.39,-264.39 1102.66,-297.44 985.36,-324.61"/>
<polygon fill="black" stroke="black" points="984.32,-321.25 975.39,-326.96 985.93,-328.07 984.32,-321.25"/>
</g>
<!-- Node0x5651ff047368&#45;&gt;Node0x5651ff0480d8 -->
<g id="edge68" class="edge">
<title>Node0x5651ff047368&#45;&gt;Node0x5651ff0480d8</title>
<path fill="none" stroke="#7fb2ff" d="M1611.04,-547.1C1577.95,-557.01 1541.44,-571.93 1513,-594 1490.21,-611.68 1502.43,-634.39 1477,-648 1306.3,-739.36 1064.65,-661.97 960.95,-620.78"/>
<polygon fill="#7fb2ff" stroke="#7fb2ff" points="962.24,-617.52 951.65,-617.03 959.62,-624.01 962.24,-617.52"/>
</g>
<!-- Node0x5651ff047368&#45;&gt;Node0x5651ff048a38 -->
<g id="edge64" class="edge">
<title>Node0x5651ff047368&#45;&gt;Node0x5651ff048a38</title>
<path fill="none" stroke="#7fb2ff" d="M1582.35,-547.09C1559.28,-551.23 1535.31,-555.92 1513,-561 1464.36,-572.08 1410.25,-587.53 1369,-599.98"/>
<polygon fill="#7fb2ff" stroke="#7fb2ff" points="1367.89,-596.66 1359.34,-602.91 1369.92,-603.36 1367.89,-596.66"/>
</g>
<!-- Node0x5651ff047368&#45;&gt;Node0x5651ff03f438 -->
<g id="edge65" class="edge">
<title>Node0x5651ff047368&#45;&gt;Node0x5651ff03f438</title>
<path fill="none" stroke="#7fb2ff" d="M1604.47,-510.89C1573.72,-502.23 1540.44,-489.75 1513,-472 1492.64,-458.83 1498.1,-442.96 1477,-431 1470.2,-427.15 1463.03,-423.74 1455.64,-420.73"/>
<polygon fill="#7fb2ff" stroke="#7fb2ff" points="1456.75,-417.41 1446.16,-417.13 1454.26,-423.96 1456.75,-417.41"/>
</g>
<!-- Node0x5651ff047368&#45;&gt;Node0x5651ff042868 -->
<g id="edge66" class="edge">
<title>Node0x5651ff047368&#45;&gt;Node0x5651ff042868</title>
<path fill="none" stroke="#7fb2ff" d="M1527.67,-535.69C1505.99,-535.78 1483.86,-535.77 1462.35,-535.64"/>
<polygon fill="#7fb2ff" stroke="#7fb2ff" points="1462.21,-532.14 1452.18,-535.57 1462.16,-539.14 1462.21,-532.14"/>
</g>
<!-- Node0x5651ff047368&#45;&gt;Node0x5651ff042188 -->
<g id="edge67" class="edge">
<title>Node0x5651ff047368&#45;&gt;Node0x5651ff042188</title>
<path fill="none" stroke="#7fb2ff" d="M1699.5,-510.97C1699.5,-498.36 1699.5,-485.76 1699.5,-473.15"/>
<polygon fill="#7fb2ff" stroke="#7fb2ff" points="1703,-473.05 1699.5,-463.05 1696,-473.05 1703,-473.05"/>
</g>
<!-- Node0x5651ff044988&#45;&gt;Node0x5651ff040f68 -->
<g id="edge75" class="edge">
<title>Node0x5651ff044988&#45;&gt;Node0x5651ff040f68</title>
<path fill="none" stroke="#7fb2ff" d="M1687.4,-639.17C1659.03,-683.62 1578.86,-797.28 1477,-839 1332.23,-898.29 1281.26,-846.5 1125,-839 948.84,-830.55 881.43,-891.41 730,-801 640.68,-747.67 588.1,-627.64 567.98,-573.02"/>
<polygon fill="#7fb2ff" stroke="#7fb2ff" points="571.17,-571.54 564.49,-563.31 564.58,-573.9 571.17,-571.54"/>
</g>
<!-- Node0x5651ff044988&#45;&gt;Node0x5651ff047e08 -->
<g id="edge76" class="edge">
<title>Node0x5651ff044988&#45;&gt;Node0x5651ff047e08</title>
<path fill="none" stroke="#7fb2ff" d="M1657.16,-639.13C1554.92,-680.87 1286.84,-771.11 1125,-648 1077.28,-611.7 1129.68,-562.04 1089,-518 1070.46,-497.94 1045.23,-484.05 1019.59,-474.45"/>
<polygon fill="#7fb2ff" stroke="#7fb2ff" points="1020.72,-471.14 1010.13,-471.1 1018.39,-477.73 1020.72,-471.14"/>
</g>
<!-- Node0x5651ff044988&#45;&gt;Node0x5651ff0470e8 -->
<g id="edge77" class="edge">
<title>Node0x5651ff044988&#45;&gt;Node0x5651ff0470e8</title>
<path fill="none" stroke="black" d="M1553.17,-603C1527.79,-599.93 1501.63,-596.83 1477,-594 1398.84,-585.02 1182.96,-609.2 1125,-556 1063.61,-499.66 1149.18,-429.64 1089,-372 1078.43,-361.87 1065.77,-354.54 1052.13,-349.32"/>
<polygon fill="black" stroke="black" points="1053.15,-345.97 1042.55,-346.04 1050.88,-352.59 1053.15,-345.97"/>
</g>
<!-- Node0x5651ff044988&#45;&gt;Node0x5651ff0480d8 -->
<g id="edge80" class="edge">
<title>Node0x5651ff044988&#45;&gt;Node0x5651ff0480d8</title>
<path fill="none" stroke="#7fb2ff" d="M1667.25,-639.07C1577.5,-688.42 1313.34,-815.48 1125,-719 1100.63,-706.52 1110.63,-685.79 1089,-669 1060.88,-647.17 1025.11,-631.36 992.98,-620.35"/>
<polygon fill="#7fb2ff" stroke="#7fb2ff" points="993.74,-616.92 983.14,-617.09 991.53,-623.56 993.74,-616.92"/>
</g>
<!-- Node0x5651ff044988&#45;&gt;Node0x5651ff048a38 -->
<g id="edge78" class="edge">
<title>Node0x5651ff044988&#45;&gt;Node0x5651ff048a38</title>
<path fill="none" stroke="#7fb2ff" d="M1523,-621C1511.08,-621 1499.06,-621 1487.09,-621"/>
<polygon fill="#7fb2ff" stroke="#7fb2ff" points="1487.06,-617.5 1477.06,-621 1487.06,-624.5 1487.06,-617.5"/>
</g>
<!-- Node0x5651ff044988&#45;&gt;Node0x5651ff042868 -->
<g id="edge79" class="edge">
<title>Node0x5651ff044988&#45;&gt;Node0x5651ff042868</title>
<path fill="none" stroke="#7fb2ff" d="M1608.13,-602.94C1568.14,-592.51 1520.42,-579.83 1477,-570 1443.43,-562.4 1405.93,-555.35 1374.27,-549.07"/>
<polygon fill="#7fb2ff" stroke="#7fb2ff" points="1374.71,-545.59 1364.21,-547.06 1373.33,-552.46 1374.71,-545.59"/>
</g>
<!-- Node0x5651ff0459c8 -->
<g id="node17" class="node">
<title>Node0x5651ff0459c8</title>
<polygon fill="none" stroke="black" points="385,-640 0,-640 0,-604 385,-604 385,-640"/>
<text text-anchor="middle" x="192.5" y="-618.3" font-family="Times,serif" font-size="14.00">{lib/libLLVMObject.a(WindowsMachineFlag.cpp.o)}</text>
</g>
<!-- Node0x5651ff043f38 -->
<g id="node19" class="node">
<title>Node0x5651ff043f38</title>
<polygon fill="none" stroke="black" points="1059,-59 760,-59 760,-23 1059,-23 1059,-59"/>
<text text-anchor="middle" x="909.5" y="-37.3" font-family="Times,serif" font-size="14.00">{lib/libLLVMObject.a(IRSymtab.cpp.o)}</text>
</g>
<!-- Node0x5651ff043f38&#45;&gt;Node0x5651ff03f438 -->
<g id="edge50" class="edge">
<title>Node0x5651ff043f38&#45;&gt;Node0x5651ff03f438</title>
<path fill="none" stroke="black" d="M930.35,-59.25C994.82,-118.5 1198.41,-305.63 1272.61,-373.82"/>
<polygon fill="black" stroke="black" points="1270.46,-376.6 1280.19,-380.79 1275.2,-371.45 1270.46,-376.6"/>
</g>
<!-- Node0x5651ff043f38&#45;&gt;Node0x5651ff042f48 -->
<g id="edge51" class="edge">
<title>Node0x5651ff043f38&#45;&gt;Node0x5651ff042f48</title>
<path fill="none" stroke="black" d="M1059.18,-41C1184.71,-41 1365.43,-41 1502.72,-41"/>
<polygon fill="black" stroke="black" points="1502.94,-44.5 1512.94,-41 1502.94,-37.5 1502.94,-44.5"/>
</g>
<!-- Node0x5651ff046be8&#45;&gt;Node0x5651ff047e08 -->
<g id="edge81" class="edge">
<title>Node0x5651ff046be8&#45;&gt;Node0x5651ff047e08</title>
<path fill="none" stroke="#7fb2ff" d="M2055.26,-380.87C1916.38,-317.07 1426.23,-117.75 1125,-328 1086.95,-354.56 1124.95,-396.66 1089,-426 1080.35,-433.05 1070.66,-438.67 1060.38,-443.11"/>
<polygon fill="#7fb2ff" stroke="#7fb2ff" points="1058.82,-439.96 1050.79,-446.86 1061.37,-446.48 1058.82,-439.96"/>
</g>
<!-- Node0x5651ff046be8&#45;&gt;Node0x5651ff0470e8 -->
<g id="edge82" class="edge">
<title>Node0x5651ff046be8&#45;&gt;Node0x5651ff0470e8</title>
<path fill="none" stroke="black" d="M2084.12,-380.74C2060.06,-333.65 1988.46,-208.55 1886,-162 1575.73,-21.04 1437.16,-119.27 1125,-256 1107.39,-263.72 1106.16,-271.31 1089,-280 1054.59,-297.42 1014.36,-312.49 980.82,-323.72"/>
<polygon fill="black" stroke="black" points="979.49,-320.47 971.09,-326.93 981.68,-327.12 979.49,-320.47"/>
</g>
<!-- Node0x5651ff046be8&#45;&gt;Node0x5651ff0437b8 -->
<g id="edge85" class="edge">
<title>Node0x5651ff046be8&#45;&gt;Node0x5651ff0437b8</title>
<path fill="none" stroke="#7fb2ff" d="M2079.16,-380.87C2049.02,-343.07 1973.12,-256.75 1886,-225 1727.11,-167.09 1258.04,-120.61 1125,-225 1072.08,-266.52 1138.66,-326.63 1089,-372 1082.98,-377.5 1076.34,-382.16 1069.27,-386.1"/>
<polygon fill="#7fb2ff" stroke="#7fb2ff" points="1067.46,-383.09 1060.1,-390.7 1070.6,-389.34 1067.46,-383.09"/>
</g>
<!-- Node0x5651ff046be8&#45;&gt;Node0x5651ff048a38 -->
<g id="edge83" class="edge">
<title>Node0x5651ff046be8&#45;&gt;Node0x5651ff048a38</title>
<path fill="none" stroke="#7fb2ff" d="M2076.28,-417.05C2043.52,-451.06 1967,-524.1 1886,-556 1730.96,-617.07 1678.55,-574.98 1513,-594 1492.25,-596.38 1470.38,-599.03 1448.88,-601.71"/>
<polygon fill="#7fb2ff" stroke="#7fb2ff" points="1448.2,-598.27 1438.71,-602.99 1449.07,-605.22 1448.2,-598.27"/>
</g>
<!-- Node0x5651ff046be8&#45;&gt;Node0x5651ff03f438 -->
<g id="edge84" class="edge">
<title>Node0x5651ff046be8&#45;&gt;Node0x5651ff03f438</title>
<path fill="none" stroke="#7fb2ff" d="M1966.2,-399C1831.61,-399 1618.27,-399 1469.82,-399"/>
<polygon fill="#7fb2ff" stroke="#7fb2ff" points="1469.7,-395.5 1459.7,-399 1469.7,-402.5 1469.7,-395.5"/>
</g>
<!-- Node0x5651ff046be8&#45;&gt;Node0x5651ff042188 -->
<g id="edge86" class="edge">
<title>Node0x5651ff046be8&#45;&gt;Node0x5651ff042188</title>
<path fill="none" stroke="#7fb2ff" d="M1990.52,-417.02C1955.23,-421.76 1914.65,-426.75 1875.24,-431.23"/>
<polygon fill="#7fb2ff" stroke="#7fb2ff" points="1874.79,-427.76 1865.25,-432.36 1875.58,-434.72 1874.79,-427.76"/>
</g>
<!-- Node0x5651ff0469b8 -->
<g id="node21" class="node">
<title>Node0x5651ff0469b8</title>
<polygon fill="none" stroke="black" points="335,-586 50,-586 50,-550 335,-550 335,-586"/>
<text text-anchor="middle" x="192.5" y="-564.3" font-family="Times,serif" font-size="14.00">{lib/libLLVMObject.a(TapiFile.cpp.o)}</text>
</g>
<!-- Node0x5651ff0469b8&#45;&gt;Node0x5651ff040f68 -->
<g id="edge87" class="edge">
<title>Node0x5651ff0469b8&#45;&gt;Node0x5651ff040f68</title>
<path fill="none" stroke="black" d="M335.14,-559.03C359.89,-557.46 385.67,-555.82 410.53,-554.25"/>
<polygon fill="black" stroke="black" points="410.99,-557.73 420.75,-553.6 410.55,-550.74 410.99,-557.73"/>
</g>
<!-- Node0x5651ff0469b8&#45;&gt;Node0x5651ff0480d8 -->
<g id="edge88" class="edge">
<title>Node0x5651ff0469b8&#45;&gt;Node0x5651ff0480d8</title>
<path fill="none" stroke="black" d="M335.19,-574.14C451.31,-579.18 615.98,-586.32 739.07,-591.65"/>
<polygon fill="black" stroke="black" points="739.2,-595.16 749.35,-592.1 739.51,-588.17 739.2,-595.16"/>
</g>
</g>
</svg>
