<?xml version="1.0" encoding="UTF-8" standalone="no"?>
<!DOCTYPE svg PUBLIC "-//W3C//DTD SVG 1.1//EN"
 "http://www.w3.org/Graphics/SVG/1.1/DTD/svg11.dtd">
<!-- Generated by graphviz version 2.43.0 (0)
 -->
<!-- Title: bin/llvm&#45;objdump_lib/libLLVMMCDisassembler.a Pages: 1 -->
<svg width="916pt" height="175pt"
 viewBox="0.00 0.00 916.00 175.00" xmlns="http://www.w3.org/2000/svg" xmlns:xlink="http://www.w3.org/1999/xlink">
<g id="graph0" class="graph" transform="scale(1 1) rotate(0) translate(4 171)">
<title>bin/llvm&#45;objdump_lib/libLLVMMCDisassembler.a</title>
<polygon fill="white" stroke="transparent" points="-4,4 -4,-171 912,-171 912,4 -4,4"/>
<text text-anchor="middle" x="454" y="-7.8" font-family="Times,serif" font-size="14.00">bin/llvm&#45;objdump_lib/libLLVMMCDisassembler.a</text>
<!-- Node0x55f50a9ef7a8 -->
<g id="node1" class="node">
<title>Node0x55f50a9ef7a8</title>
<polygon fill="none" stroke="black" points="444.5,-59 22.5,-59 22.5,-23 444.5,-23 444.5,-59"/>
<text text-anchor="middle" x="233.5" y="-37.3" font-family="Times,serif" font-size="14.00">{lib/libLLVMMCDisassembler.a(MCDisassembler.cpp.o)}</text>
</g>
<!-- Node0x55f50a9ed228 -->
<g id="node2" class="node">
<title>Node0x55f50a9ed228</title>
<polygon fill="none" stroke="black" points="467,-113 0,-113 0,-77 467,-77 467,-113"/>
<text text-anchor="middle" x="233.5" y="-91.3" font-family="Times,serif" font-size="14.00">{lib/libLLVMMCDisassembler.a(MCExternalSymbolizer.cpp.o)}</text>
</g>
<!-- Node0x55f50a9edf98 -->
<g id="node3" class="node">
<title>Node0x55f50a9edf98</title>
<polygon fill="none" stroke="black" points="908,-113 503,-113 503,-77 908,-77 908,-113"/>
<text text-anchor="middle" x="705.5" y="-91.3" font-family="Times,serif" font-size="14.00">{lib/libLLVMMCDisassembler.a(MCSymbolizer.cpp.o)}</text>
</g>
<!-- Node0x55f50a9ed228&#45;&gt;Node0x55f50a9edf98 -->
<g id="edge1" class="edge">
<title>Node0x55f50a9ed228&#45;&gt;Node0x55f50a9edf98</title>
<path fill="none" stroke="black" d="M467.09,-95C475.55,-95 484.01,-95 492.44,-95"/>
<polygon fill="black" stroke="black" points="492.69,-98.5 502.69,-95 492.69,-91.5 492.69,-98.5"/>
</g>
<!-- Node0x55f50a9edcc8 -->
<g id="node4" class="node">
<title>Node0x55f50a9edcc8</title>
<polygon fill="none" stroke="black" points="448,-167 19,-167 19,-131 448,-131 448,-167"/>
<text text-anchor="middle" x="233.5" y="-145.3" font-family="Times,serif" font-size="14.00">{lib/libLLVMMCDisassembler.a(MCRelocationInfo.cpp.o)}</text>
</g>
</g>
</svg>
