<?xml version="1.0" encoding="UTF-8" standalone="no"?>
<!DOCTYPE svg PUBLIC "-//W3C//DTD SVG 1.1//EN"
 "http://www.w3.org/Graphics/SVG/1.1/DTD/svg11.dtd">
<!-- Generated by graphviz version 2.43.0 (0)
 -->
<!-- Title: bin/lli_lib/libLLVMOrcJIT.a Pages: 1 -->
<svg width="3232pt" height="987pt"
 viewBox="0.00 0.00 3232.00 987.09" xmlns="http://www.w3.org/2000/svg" xmlns:xlink="http://www.w3.org/1999/xlink">
<g id="graph0" class="graph" transform="scale(1 1) rotate(0) translate(4 983.09)">
<title>bin/lli_lib/libLLVMOrcJIT.a</title>
<polygon fill="white" stroke="transparent" points="-4,4 -4,-983.09 3228,-983.09 3228,4 -4,4"/>
<text text-anchor="middle" x="1612" y="-7.8" font-family="Times,serif" font-size="14.00">bin/lli_lib/libLLVMOrcJIT.a</text>
<!-- Node0x563a73dcf958 -->
<g id="node1" class="node">
<title>Node0x563a73dcf958</title>
<polygon fill="none" stroke="black" points="2865,-672.8 2606,-672.8 2606,-636.8 2865,-636.8 2865,-672.8"/>
<text text-anchor="middle" x="2735.5" y="-651.1" font-family="Times,serif" font-size="14.00">{lib/libLLVMOrcJIT.a(Core.cpp.o)}</text>
</g>
<!-- Node0x563a73dcdf68 -->
<g id="node2" class="node">
<title>Node0x563a73dcdf68</title>
<polygon fill="none" stroke="black" points="3224,-672.8 2918,-672.8 2918,-636.8 3224,-636.8 3224,-672.8"/>
<text text-anchor="middle" x="3071" y="-651.1" font-family="Times,serif" font-size="14.00">{lib/libLLVMOrcJIT.a(DebugUtils.cpp.o)}</text>
</g>
<!-- Node0x563a73dcf958&#45;&gt;Node0x563a73dcdf68 -->
<g id="edge1" class="edge">
<title>Node0x563a73dcf958&#45;&gt;Node0x563a73dcdf68</title>
<path fill="none" stroke="black" d="M2865.44,-654.8C2879.23,-654.8 2893.39,-654.8 2907.5,-654.8"/>
<polygon fill="black" stroke="black" points="2907.76,-658.3 2917.76,-654.8 2907.76,-651.3 2907.76,-658.3"/>
</g>
<!-- Node0x563a73dced78 -->
<g id="node3" class="node">
<title>Node0x563a73dced78</title>
<polygon fill="none" stroke="black" points="1315,-748.8 887,-748.8 887,-712.8 1315,-712.8 1315,-748.8"/>
<text text-anchor="middle" x="1101" y="-727.1" font-family="Times,serif" font-size="14.00">{lib/libLLVMOrcJIT.a(DebugObjectManagerPlugin.cpp.o)}</text>
</g>
<!-- Node0x563a73dced78&#45;&gt;Node0x563a73dcf958 -->
<g id="edge2" class="edge">
<title>Node0x563a73dced78&#45;&gt;Node0x563a73dcf958</title>
<path fill="none" stroke="black" d="M1315.12,-730.64C1598.38,-728.78 2114.25,-719.68 2553,-680.8 2572.12,-679.11 2592.31,-676.77 2612,-674.18"/>
<polygon fill="black" stroke="black" points="2612.48,-677.65 2621.92,-672.85 2611.55,-670.71 2612.48,-677.65"/>
</g>
<!-- Node0x563a73dcfa98 -->
<g id="node4" class="node">
<title>Node0x563a73dcfa98</title>
<polygon fill="none" stroke="black" points="1741,-626.8 1377,-626.8 1377,-590.8 1741,-590.8 1741,-626.8"/>
<text text-anchor="middle" x="1559" y="-605.1" font-family="Times,serif" font-size="14.00">{lib/libLLVMOrcJIT.a(ObjectLinkingLayer.cpp.o)}</text>
</g>
<!-- Node0x563a73dced78&#45;&gt;Node0x563a73dcfa98 -->
<g id="edge3" class="edge">
<title>Node0x563a73dced78&#45;&gt;Node0x563a73dcfa98</title>
<path fill="none" stroke="black" d="M1300.03,-712.59C1305.19,-709.93 1310.2,-707.01 1315,-703.8 1341.82,-685.89 1324.43,-659.08 1351,-640.8 1356.31,-637.15 1361.87,-633.85 1367.64,-630.87"/>
<polygon fill="black" stroke="black" points="1369.34,-633.94 1376.84,-626.45 1366.31,-627.63 1369.34,-633.94"/>
</g>
<!-- Node0x563a73dcfa98&#45;&gt;Node0x563a73dcf958 -->
<g id="edge39" class="edge">
<title>Node0x563a73dcfa98&#45;&gt;Node0x563a73dcf958</title>
<path fill="none" stroke="black" d="M1741.03,-626.49C1761.91,-628.15 1782.91,-629.64 1803,-630.8 2084.15,-647.14 2413.67,-652.35 2595.77,-654.02"/>
<polygon fill="black" stroke="black" points="2595.91,-657.52 2605.94,-654.11 2595.97,-650.52 2595.91,-657.52"/>
</g>
<!-- Node0x563a73dcbcb8 -->
<g id="node10" class="node">
<title>Node0x563a73dcbcb8</title>
<polygon fill="none" stroke="black" points="2102,-572.8 1838,-572.8 1838,-536.8 2102,-536.8 2102,-572.8"/>
<text text-anchor="middle" x="1970" y="-551.1" font-family="Times,serif" font-size="14.00">{lib/libLLVMOrcJIT.a(Layer.cpp.o)}</text>
</g>
<!-- Node0x563a73dcfa98&#45;&gt;Node0x563a73dcbcb8 -->
<g id="edge40" class="edge">
<title>Node0x563a73dcfa98&#45;&gt;Node0x563a73dcbcb8</title>
<path fill="none" stroke="black" d="M1698.63,-590.78C1721.48,-587.8 1744.9,-584.72 1767,-581.8 1786.67,-579.21 1807.41,-576.45 1827.82,-573.73"/>
<polygon fill="black" stroke="black" points="1828.35,-577.19 1837.8,-572.4 1827.43,-570.25 1828.35,-577.19"/>
</g>
<!-- Node0x563a73dce6e8 -->
<g id="node5" class="node">
<title>Node0x563a73dce6e8</title>
<polygon fill="none" stroke="black" points="2528.5,-230.8 2197.5,-230.8 2197.5,-194.8 2528.5,-194.8 2528.5,-230.8"/>
<text text-anchor="middle" x="2363" y="-209.1" font-family="Times,serif" font-size="14.00">{lib/libLLVMOrcJIT.a(ExecutionUtils.cpp.o)}</text>
</g>
<!-- Node0x563a73dce6e8&#45;&gt;Node0x563a73dcf958 -->
<g id="edge4" class="edge">
<title>Node0x563a73dce6e8&#45;&gt;Node0x563a73dcf958</title>
<path fill="none" stroke="black" d="M2528.75,-229.91C2537.35,-234.06 2545.51,-238.98 2553,-244.8 2680.1,-343.63 2720.3,-550.39 2731.05,-626.17"/>
<polygon fill="black" stroke="black" points="2727.62,-626.93 2732.43,-636.38 2734.56,-626 2727.62,-626.93"/>
</g>
<!-- Node0x563a73dceeb8 -->
<g id="node6" class="node">
<title>Node0x563a73dceeb8</title>
<polygon fill="none" stroke="black" points="2882,-230.8 2589,-230.8 2589,-194.8 2882,-194.8 2882,-230.8"/>
<text text-anchor="middle" x="2735.5" y="-209.1" font-family="Times,serif" font-size="14.00">{lib/libLLVMOrcJIT.a(Mangling.cpp.o)}</text>
</g>
<!-- Node0x563a73dce6e8&#45;&gt;Node0x563a73dceeb8 -->
<g id="edge5" class="edge">
<title>Node0x563a73dce6e8&#45;&gt;Node0x563a73dceeb8</title>
<path fill="none" stroke="black" d="M2528.66,-212.8C2545.31,-212.8 2562.18,-212.8 2578.73,-212.8"/>
<polygon fill="black" stroke="black" points="2578.98,-216.3 2588.98,-212.8 2578.98,-209.3 2578.98,-216.3"/>
</g>
<!-- Node0x563a73dcd928 -->
<g id="node7" class="node">
<title>Node0x563a73dcd928</title>
<polygon fill="none" stroke="black" points="1728,-274.8 1390,-274.8 1390,-238.8 1728,-238.8 1728,-274.8"/>
<text text-anchor="middle" x="1559" y="-253.1" font-family="Times,serif" font-size="14.00">{lib/libLLVMOrcJIT.a(IndirectionUtils.cpp.o)}</text>
</g>
<!-- Node0x563a73dcd928&#45;&gt;Node0x563a73dcf958 -->
<g id="edge6" class="edge">
<title>Node0x563a73dcd928&#45;&gt;Node0x563a73dcf958</title>
<path fill="none" stroke="black" d="M1728.21,-248.53C1843.64,-245.24 2000.1,-245.45 2137,-261.8 2325.51,-284.32 2399.03,-247.74 2553,-358.8 2649.85,-428.67 2705.5,-567.66 2725.71,-626.95"/>
<polygon fill="black" stroke="black" points="2722.49,-628.36 2728.97,-636.74 2729.13,-626.15 2722.49,-628.36"/>
</g>
<!-- Node0x563a73dcb858 -->
<g id="node8" class="node">
<title>Node0x563a73dcb858</title>
<polygon fill="none" stroke="black" points="2137,-306.8 1803,-306.8 1803,-270.8 2137,-270.8 2137,-306.8"/>
<text text-anchor="middle" x="1970" y="-285.1" font-family="Times,serif" font-size="14.00">{lib/libLLVMOrcJIT.a(OrcABISupport.cpp.o)}</text>
</g>
<!-- Node0x563a73dcd928&#45;&gt;Node0x563a73dcb858 -->
<g id="edge7" class="edge">
<title>Node0x563a73dcd928&#45;&gt;Node0x563a73dcb858</title>
<path fill="none" stroke="black" d="M1728.13,-269.96C1749.43,-271.62 1771.28,-273.33 1792.7,-275.01"/>
<polygon fill="black" stroke="black" points="1792.6,-278.51 1802.85,-275.8 1793.15,-271.53 1792.6,-278.51"/>
</g>
<!-- Node0x563a73dccca8 -->
<g id="node9" class="node">
<title>Node0x563a73dccca8</title>
<polygon fill="none" stroke="black" points="1270,-802.8 932,-802.8 932,-766.8 1270,-766.8 1270,-802.8"/>
<text text-anchor="middle" x="1101" y="-781.1" font-family="Times,serif" font-size="14.00">{lib/libLLVMOrcJIT.a(IRCompileLayer.cpp.o)}</text>
</g>
<!-- Node0x563a73dccca8&#45;&gt;Node0x563a73dcf958 -->
<g id="edge8" class="edge">
<title>Node0x563a73dccca8&#45;&gt;Node0x563a73dcf958</title>
<path fill="none" stroke="black" d="M1270.15,-780.52C1597.8,-771.4 2310.82,-747.47 2553,-706.8 2593.92,-699.93 2638.76,-687.14 2673.63,-675.96"/>
<polygon fill="black" stroke="black" points="2674.76,-679.28 2683.19,-672.86 2672.59,-672.62 2674.76,-679.28"/>
</g>
<!-- Node0x563a73dccca8&#45;&gt;Node0x563a73dcbcb8 -->
<g id="edge9" class="edge">
<title>Node0x563a73dccca8&#45;&gt;Node0x563a73dcbcb8</title>
<path fill="none" stroke="black" d="M1263.17,-766.76C1280.72,-764.09 1298.27,-761.11 1315,-757.8 1519.14,-717.51 1569.65,-701.75 1767,-635.8 1819.58,-618.23 1878.25,-594.19 1918.76,-576.87"/>
<polygon fill="black" stroke="black" points="1920.33,-580.01 1928.13,-572.84 1917.56,-573.57 1920.33,-580.01"/>
</g>
<!-- Node0x563a73dcbcb8&#45;&gt;Node0x563a73dcf958 -->
<g id="edge44" class="edge">
<title>Node0x563a73dcbcb8&#45;&gt;Node0x563a73dcf958</title>
<path fill="none" stroke="black" d="M2102.27,-558.27C2220.87,-563.14 2399.78,-574.82 2553,-602.8 2593.38,-610.18 2637.68,-622.78 2672.41,-633.73"/>
<polygon fill="black" stroke="black" points="2671.35,-637.07 2681.94,-636.77 2673.48,-630.4 2671.35,-637.07"/>
</g>
<!-- Node0x563a73dcbcb8&#45;&gt;Node0x563a73dce6e8 -->
<g id="edge45" class="edge">
<title>Node0x563a73dcbcb8&#45;&gt;Node0x563a73dce6e8</title>
<path fill="none" stroke="black" d="M1991.75,-536.66C2057.09,-479.5 2258.77,-303.1 2333.64,-237.61"/>
<polygon fill="black" stroke="black" points="2336.08,-240.12 2341.3,-230.91 2331.47,-234.86 2336.08,-240.12"/>
</g>
<!-- Node0x563a73dcbcb8&#45;&gt;Node0x563a73dceeb8 -->
<g id="edge46" class="edge">
<title>Node0x563a73dcbcb8&#45;&gt;Node0x563a73dceeb8</title>
<path fill="none" stroke="black" d="M2102.05,-553.85C2261.89,-551.7 2515.56,-544.66 2553,-521.8 2659.41,-456.83 2710.45,-304.22 2727.59,-241"/>
<polygon fill="black" stroke="black" points="2731.08,-241.52 2730.23,-230.96 2724.31,-239.74 2731.08,-241.52"/>
</g>
<!-- Node0x563a73dcd888 -->
<g id="node21" class="node">
<title>Node0x563a73dcd888</title>
<polygon fill="none" stroke="black" points="2543,-512.8 2183,-512.8 2183,-476.8 2543,-476.8 2543,-512.8"/>
<text text-anchor="middle" x="2363" y="-491.1" font-family="Times,serif" font-size="14.00">{lib/libLLVMOrcJIT.a(ThreadSafeModule.cpp.o)}</text>
</g>
<!-- Node0x563a73dcbcb8&#45;&gt;Node0x563a73dcd888 -->
<g id="edge47" class="edge">
<title>Node0x563a73dcbcb8&#45;&gt;Node0x563a73dcd888</title>
<path fill="none" stroke="black" d="M2088.31,-536.8C2134.41,-529.73 2187.45,-521.59 2234.49,-514.37"/>
<polygon fill="black" stroke="black" points="2235.08,-517.82 2244.43,-512.84 2234.02,-510.9 2235.08,-517.82"/>
</g>
<!-- Node0x563a73dcc168 -->
<g id="node11" class="node">
<title>Node0x563a73dcc168</title>
<polygon fill="none" stroke="black" points="1303,-694.8 899,-694.8 899,-658.8 1303,-658.8 1303,-694.8"/>
<text text-anchor="middle" x="1101" y="-673.1" font-family="Times,serif" font-size="14.00">{lib/libLLVMOrcJIT.a(JITTargetMachineBuilder.cpp.o)}</text>
</g>
<!-- Node0x563a73dcc898 -->
<g id="node12" class="node">
<title>Node0x563a73dcc898</title>
<polygon fill="none" stroke="black" points="1266.5,-404.8 935.5,-404.8 935.5,-368.8 1266.5,-368.8 1266.5,-404.8"/>
<text text-anchor="middle" x="1101" y="-383.1" font-family="Times,serif" font-size="14.00">{lib/libLLVMOrcJIT.a(LazyReexports.cpp.o)}</text>
</g>
<!-- Node0x563a73dcc898&#45;&gt;Node0x563a73dcf958 -->
<g id="edge10" class="edge">
<title>Node0x563a73dcc898&#45;&gt;Node0x563a73dcf958</title>
<path fill="none" stroke="black" d="M1266.55,-404.52C1282.92,-406.3 1299.29,-408.08 1315,-409.8 1331,-411.56 1334.95,-412.55 1351,-413.8 1417.64,-419 2492.04,-440.39 2553,-467.8 2629.66,-502.28 2690.64,-585.2 2718.33,-628.1"/>
<polygon fill="black" stroke="black" points="2715.42,-630.04 2723.73,-636.61 2721.33,-626.29 2715.42,-630.04"/>
</g>
<!-- Node0x563a73dcc898&#45;&gt;Node0x563a73dcd928 -->
<g id="edge11" class="edge">
<title>Node0x563a73dcc898&#45;&gt;Node0x563a73dcd928</title>
<path fill="none" stroke="black" d="M1140.34,-368.62C1188.48,-346.52 1274.09,-309.61 1351,-288.8 1368.03,-284.2 1386.04,-280.19 1404.05,-276.71"/>
<polygon fill="black" stroke="black" points="1404.86,-280.12 1414.04,-274.84 1403.57,-273.24 1404.86,-280.12"/>
</g>
<!-- Node0x563a73dcc898&#45;&gt;Node0x563a73dcb858 -->
<g id="edge12" class="edge">
<title>Node0x563a73dcc898&#45;&gt;Node0x563a73dcb858</title>
<path fill="none" stroke="black" d="M1261.27,-368.8C1413.9,-351.55 1643.48,-325.6 1799.45,-307.97"/>
<polygon fill="black" stroke="black" points="1800.07,-311.42 1809.62,-306.82 1799.29,-304.46 1800.07,-311.42"/>
</g>
<!-- Node0x563a73dcc9d8 -->
<g id="node13" class="node">
<title>Node0x563a73dcc9d8</title>
<polygon fill="none" stroke="black" points="1713.5,-404.8 1404.5,-404.8 1404.5,-368.8 1713.5,-368.8 1713.5,-404.8"/>
<text text-anchor="middle" x="1559" y="-383.1" font-family="Times,serif" font-size="14.00">{lib/libLLVMOrcJIT.a(Speculation.cpp.o)}</text>
</g>
<!-- Node0x563a73dcc898&#45;&gt;Node0x563a73dcc9d8 -->
<g id="edge13" class="edge">
<title>Node0x563a73dcc898&#45;&gt;Node0x563a73dcc9d8</title>
<path fill="none" stroke="black" d="M1266.63,-386.8C1308.11,-386.8 1352.62,-386.8 1394.07,-386.8"/>
<polygon fill="black" stroke="black" points="1394.25,-390.3 1404.25,-386.8 1394.25,-383.3 1394.25,-390.3"/>
</g>
<!-- Node0x563a73dcc9d8&#45;&gt;Node0x563a73dcf958 -->
<g id="edge48" class="edge">
<title>Node0x563a73dcc9d8&#45;&gt;Node0x563a73dcf958</title>
<path fill="none" stroke="black" d="M1713.73,-387.44C1973.93,-389.52 2480.12,-398.27 2553,-434.8 2637.45,-477.13 2696.83,-578.56 2721.61,-627.49"/>
<polygon fill="black" stroke="black" points="2718.52,-629.14 2726.1,-636.54 2724.79,-626.02 2718.52,-629.14"/>
</g>
<!-- Node0x563a73dcc9d8&#45;&gt;Node0x563a73dceeb8 -->
<g id="edge50" class="edge">
<title>Node0x563a73dcc9d8&#45;&gt;Node0x563a73dceeb8</title>
<path fill="none" stroke="black" d="M1713.65,-369.94C1830.05,-356.67 1993.84,-336.94 2137,-315.8 2309.69,-290.31 2509.38,-254.62 2628.62,-232.65"/>
<polygon fill="black" stroke="black" points="2629.29,-236.08 2638.49,-230.83 2628.02,-229.2 2629.29,-236.08"/>
</g>
<!-- Node0x563a73dcc9d8&#45;&gt;Node0x563a73dcbcb8 -->
<g id="edge49" class="edge">
<title>Node0x563a73dcc9d8&#45;&gt;Node0x563a73dcbcb8</title>
<path fill="none" stroke="black" d="M1604.16,-404.94C1679.78,-436.01 1833.81,-499.27 1915.44,-532.8"/>
<polygon fill="black" stroke="black" points="1914.45,-536.18 1925.03,-536.74 1917.11,-529.7 1914.45,-536.18"/>
</g>
<!-- Node0x563a73dcabd8 -->
<g id="node14" class="node">
<title>Node0x563a73dcabd8</title>
<polygon fill="none" stroke="black" points="337,-613.8 76,-613.8 76,-577.8 337,-577.8 337,-613.8"/>
<text text-anchor="middle" x="206.5" y="-592.1" font-family="Times,serif" font-size="14.00">{lib/libLLVMOrcJIT.a(LLJIT.cpp.o)}</text>
</g>
<!-- Node0x563a73dcabd8&#45;&gt;Node0x563a73dcf958 -->
<g id="edge14" class="edge">
<title>Node0x563a73dcabd8&#45;&gt;Node0x563a73dcf958</title>
<path fill="none" stroke="black" d="M337.05,-588.04C365.24,-592.59 392.68,-602.8 413,-622.8 491.12,-699.7 369.98,-790.83 449,-866.8 658.78,-1068.48 809,-936.8 1100,-936.8 1100,-936.8 1100,-936.8 1971,-936.8 2229.8,-936.8 2325.84,-1041.81 2553,-917.8 2648.58,-865.63 2704.29,-738.85 2725.08,-682.54"/>
<polygon fill="black" stroke="black" points="2728.46,-683.48 2728.56,-672.88 2721.88,-681.11 2728.46,-683.48"/>
</g>
<!-- Node0x563a73dcabd8&#45;&gt;Node0x563a73dcfa98 -->
<g id="edge25" class="edge">
<title>Node0x563a73dcabd8&#45;&gt;Node0x563a73dcfa98</title>
<path fill="none" stroke="black" d="M337.11,-593.56C543.93,-590.49 961.34,-586.35 1315,-595.8 1331.77,-596.25 1349.18,-596.87 1366.64,-597.61"/>
<polygon fill="black" stroke="black" points="1366.77,-601.11 1376.91,-598.05 1367.07,-594.12 1366.77,-601.11"/>
</g>
<!-- Node0x563a73dcabd8&#45;&gt;Node0x563a73dce6e8 -->
<g id="edge15" class="edge">
<title>Node0x563a73dcabd8&#45;&gt;Node0x563a73dce6e8</title>
<path fill="none" stroke="black" d="M213.25,-577.5C233.75,-515.54 309.55,-312.47 449,-220.8 694.08,-59.7 806.71,-112.8 1100,-112.8 1100,-112.8 1100,-112.8 1560,-112.8 1815.98,-112.8 2114.41,-163.59 2264.79,-192.78"/>
<polygon fill="black" stroke="black" points="2264.44,-196.27 2274.92,-194.75 2265.78,-189.4 2264.44,-196.27"/>
</g>
<!-- Node0x563a73dcabd8&#45;&gt;Node0x563a73dceeb8 -->
<g id="edge24" class="edge">
<title>Node0x563a73dcabd8&#45;&gt;Node0x563a73dceeb8</title>
<path fill="none" stroke="black" d="M209.81,-577.57C220.41,-502.58 271.65,-216.59 449,-100.8 691.46,57.5 810.44,-74.8 1100,-74.8 1100,-74.8 1100,-74.8 1971,-74.8 2231.19,-74.8 2533.43,-153.37 2666.12,-191.94"/>
<polygon fill="black" stroke="black" points="2665.18,-195.32 2675.76,-194.76 2667.14,-188.6 2665.18,-195.32"/>
</g>
<!-- Node0x563a73dcabd8&#45;&gt;Node0x563a73dcd928 -->
<g id="edge16" class="edge">
<title>Node0x563a73dcabd8&#45;&gt;Node0x563a73dcd928</title>
<path fill="none" stroke="black" d="M218.02,-577.76C247.42,-529.21 335.74,-395.51 449,-336.8 777.8,-166.36 1236.66,-206.46 1445.95,-237.25"/>
<polygon fill="black" stroke="black" points="1445.62,-240.74 1456.03,-238.76 1446.66,-233.82 1445.62,-240.74"/>
</g>
<!-- Node0x563a73dcabd8&#45;&gt;Node0x563a73dccca8 -->
<g id="edge17" class="edge">
<title>Node0x563a73dcabd8&#45;&gt;Node0x563a73dccca8</title>
<path fill="none" stroke="black" d="M337.14,-591.35C364.52,-595.98 391.57,-605.38 413,-622.8 450.63,-653.39 410.76,-695.98 449,-725.8 520.16,-781.31 754.17,-790.62 921.22,-789.71"/>
<polygon fill="black" stroke="black" points="921.64,-793.21 931.62,-789.64 921.6,-786.21 921.64,-793.21"/>
</g>
<!-- Node0x563a73dcabd8&#45;&gt;Node0x563a73dcc168 -->
<g id="edge18" class="edge">
<title>Node0x563a73dcabd8&#45;&gt;Node0x563a73dcc168</title>
<path fill="none" stroke="black" d="M337.13,-611.66C373.31,-615.86 412.67,-620.22 449,-623.8 595.68,-638.27 761.23,-651.71 888.68,-661.44"/>
<polygon fill="black" stroke="black" points="888.72,-664.95 898.95,-662.22 889.25,-657.97 888.72,-664.95"/>
</g>
<!-- Node0x563a73dcabd8&#45;&gt;Node0x563a73dcc898 -->
<g id="edge19" class="edge">
<title>Node0x563a73dcabd8&#45;&gt;Node0x563a73dcc898</title>
<path fill="none" stroke="black" d="M264.25,-577.77C312.98,-562.62 385.23,-540.91 449,-524.8 639.5,-476.69 864.2,-431.6 993.59,-406.75"/>
<polygon fill="black" stroke="black" points="994.34,-410.17 1003.5,-404.85 993.02,-403.29 994.34,-410.17"/>
</g>
<!-- Node0x563a73db5968 -->
<g id="node15" class="node">
<title>Node0x563a73db5968</title>
<polygon fill="none" stroke="black" points="851,-381.8 449,-381.8 449,-345.8 851,-345.8 851,-381.8"/>
<text text-anchor="middle" x="650" y="-360.1" font-family="Times,serif" font-size="14.00">{lib/libLLVMOrcJIT.a(CompileOnDemandLayer.cpp.o)}</text>
</g>
<!-- Node0x563a73dcabd8&#45;&gt;Node0x563a73db5968 -->
<g id="edge20" class="edge">
<title>Node0x563a73dcabd8&#45;&gt;Node0x563a73db5968</title>
<path fill="none" stroke="black" d="M222.87,-577.73C258.21,-537.52 349.82,-440.71 449,-395.8 458.29,-391.6 468.03,-387.94 478.02,-384.75"/>
<polygon fill="black" stroke="black" points="479.1,-388.08 487.65,-381.83 477.07,-381.38 479.1,-388.08"/>
</g>
<!-- Node0x563a73db5ff8 -->
<g id="node16" class="node">
<title>Node0x563a73db5ff8</title>
<polygon fill="none" stroke="black" points="809,-716.8 491,-716.8 491,-680.8 809,-680.8 809,-716.8"/>
<text text-anchor="middle" x="650" y="-695.1" font-family="Times,serif" font-size="14.00">{lib/libLLVMOrcJIT.a(CompileUtils.cpp.o)}</text>
</g>
<!-- Node0x563a73dcabd8&#45;&gt;Node0x563a73db5ff8 -->
<g id="edge21" class="edge">
<title>Node0x563a73dcabd8&#45;&gt;Node0x563a73db5ff8</title>
<path fill="none" stroke="black" d="M337.21,-597.89C363.47,-602.35 390.05,-610.03 413,-622.8 435.08,-635.09 427.1,-654.21 449,-666.8 459.18,-672.66 470.11,-677.53 481.42,-681.58"/>
<polygon fill="black" stroke="black" points="480.4,-684.93 491,-684.78 482.63,-678.29 480.4,-684.93"/>
</g>
<!-- Node0x563a73db37f8 -->
<g id="node17" class="node">
<title>Node0x563a73db37f8</title>
<polygon fill="none" stroke="black" points="1736,-832.8 1382,-832.8 1382,-796.8 1736,-796.8 1736,-832.8"/>
<text text-anchor="middle" x="1559" y="-811.1" font-family="Times,serif" font-size="14.00">{lib/libLLVMOrcJIT.a(IRTransformLayer.cpp.o)}</text>
</g>
<!-- Node0x563a73dcabd8&#45;&gt;Node0x563a73db37f8 -->
<g id="edge22" class="edge">
<title>Node0x563a73dcabd8&#45;&gt;Node0x563a73db37f8</title>
<path fill="none" stroke="black" d="M337.1,-589.62C364.87,-594.23 392.11,-604.06 413,-622.8 463.38,-668.02 397.78,-726.54 449,-770.8 516.95,-829.54 1074.16,-826.06 1371.93,-819.83"/>
<polygon fill="black" stroke="black" points="1372.05,-823.33 1381.98,-819.62 1371.91,-816.33 1372.05,-823.33"/>
</g>
<!-- Node0x563a73db3438 -->
<g id="node18" class="node">
<title>Node0x563a73db3438</title>
<polygon fill="none" stroke="black" points="1270,-640.8 932,-640.8 932,-604.8 1270,-604.8 1270,-640.8"/>
<text text-anchor="middle" x="1101" y="-619.1" font-family="Times,serif" font-size="14.00">{lib/libLLVMOrcJIT.a(MachOPlatform.cpp.o)}</text>
</g>
<!-- Node0x563a73dcabd8&#45;&gt;Node0x563a73db3438 -->
<g id="edge23" class="edge">
<title>Node0x563a73dcabd8&#45;&gt;Node0x563a73db3438</title>
<path fill="none" stroke="black" d="M337.28,-599.73C491.33,-604.39 749.06,-612.19 921.75,-617.41"/>
<polygon fill="black" stroke="black" points="921.87,-620.92 931.97,-617.72 922.08,-613.92 921.87,-620.92"/>
</g>
<!-- Node0x563a73dcfdb8 -->
<g id="node19" class="node">
<title>Node0x563a73dcfdb8</title>
<polygon fill="none" stroke="black" points="1751.5,-572.8 1366.5,-572.8 1366.5,-536.8 1751.5,-536.8 1751.5,-572.8"/>
<text text-anchor="middle" x="1559" y="-551.1" font-family="Times,serif" font-size="14.00">{lib/libLLVMOrcJIT.a(ObjectTransformLayer.cpp.o)}</text>
</g>
<!-- Node0x563a73dcabd8&#45;&gt;Node0x563a73dcfdb8 -->
<g id="edge26" class="edge">
<title>Node0x563a73dcabd8&#45;&gt;Node0x563a73dcfdb8</title>
<path fill="none" stroke="black" d="M337.21,-590.77C373.4,-589.42 412.73,-588 449,-586.8 765.86,-576.33 1133.71,-566.09 1356,-560.12"/>
<polygon fill="black" stroke="black" points="1356.25,-563.62 1366.15,-559.85 1356.06,-556.62 1356.25,-563.62"/>
</g>
<!-- Node0x563a73dcbd08 -->
<g id="node20" class="node">
<title>Node0x563a73dcbd08</title>
<polygon fill="none" stroke="black" points="1767,-886.8 1351,-886.8 1351,-850.8 1767,-850.8 1767,-886.8"/>
<text text-anchor="middle" x="1559" y="-865.1" font-family="Times,serif" font-size="14.00">{lib/libLLVMOrcJIT.a(RTDyldObjectLinkingLayer.cpp.o)}</text>
</g>
<!-- Node0x563a73dcabd8&#45;&gt;Node0x563a73dcbd08 -->
<g id="edge27" class="edge">
<title>Node0x563a73dcabd8&#45;&gt;Node0x563a73dcbd08</title>
<path fill="none" stroke="black" d="M337.22,-588.82C365.15,-593.42 392.43,-603.44 413,-622.8 474.31,-680.51 385.73,-753.25 449,-808.8 576.88,-921.1 1055.74,-907.05 1340.72,-887.51"/>
<polygon fill="black" stroke="black" points="1341.04,-891 1350.77,-886.81 1340.56,-884.01 1341.04,-891"/>
</g>
<!-- Node0x563a73db5968&#45;&gt;Node0x563a73dcf958 -->
<g id="edge28" class="edge">
<title>Node0x563a73db5968&#45;&gt;Node0x563a73dcf958</title>
<path fill="none" stroke="black" d="M851.38,-356.45C1309.86,-341.13 2407.08,-313.48 2553,-393.8 2647.68,-445.92 2703.71,-571.01 2724.82,-626.95"/>
<polygon fill="black" stroke="black" points="2721.62,-628.38 2728.36,-636.56 2728.19,-625.96 2721.62,-628.38"/>
</g>
<!-- Node0x563a73db5968&#45;&gt;Node0x563a73dce6e8 -->
<g id="edge29" class="edge">
<title>Node0x563a73db5968&#45;&gt;Node0x563a73dce6e8</title>
<path fill="none" stroke="black" d="M690.56,-345.7C736.69,-325.43 815.73,-293.27 887,-276.8 1346.77,-170.57 1908.08,-184.03 2187.11,-199.97"/>
<polygon fill="black" stroke="black" points="2187.13,-203.48 2197.32,-200.57 2187.54,-196.49 2187.13,-203.48"/>
</g>
<!-- Node0x563a73db5968&#45;&gt;Node0x563a73dceeb8 -->
<g id="edge33" class="edge">
<title>Node0x563a73db5968&#45;&gt;Node0x563a73dceeb8</title>
<path fill="none" stroke="black" d="M670.18,-345.73C708.06,-311.34 796.66,-237.31 887,-207.8 1107.04,-135.93 1949.82,-141.18 2553,-185.8 2575.28,-187.45 2598.97,-190.22 2621.63,-193.38"/>
<polygon fill="black" stroke="black" points="2621.22,-196.85 2631.61,-194.8 2622.21,-189.92 2621.22,-196.85"/>
</g>
<!-- Node0x563a73db5968&#45;&gt;Node0x563a73dcd928 -->
<g id="edge30" class="edge">
<title>Node0x563a73db5968&#45;&gt;Node0x563a73dcd928</title>
<path fill="none" stroke="black" d="M758.33,-345.78C798.62,-339.33 844.85,-332.3 887,-326.8 1053.7,-305.06 1244.41,-285.69 1379.79,-272.87"/>
<polygon fill="black" stroke="black" points="1380.23,-276.35 1389.85,-271.92 1379.57,-269.38 1380.23,-276.35"/>
</g>
<!-- Node0x563a73db5968&#45;&gt;Node0x563a73dcbcb8 -->
<g id="edge32" class="edge">
<title>Node0x563a73db5968&#45;&gt;Node0x563a73dcbcb8</title>
<path fill="none" stroke="black" d="M679.4,-381.93C722.37,-408.29 807.38,-456.28 887,-476.8 1266.37,-574.57 1377.01,-490.49 1767,-527.8 1789.09,-529.92 1812.48,-532.62 1835.21,-535.49"/>
<polygon fill="black" stroke="black" points="1834.89,-538.97 1845.25,-536.77 1835.77,-532.03 1834.89,-538.97"/>
</g>
<!-- Node0x563a73db5968&#45;&gt;Node0x563a73dcc898 -->
<g id="edge31" class="edge">
<title>Node0x563a73db5968&#45;&gt;Node0x563a73dcc898</title>
<path fill="none" stroke="black" d="M851.21,-374.06C875.97,-375.33 901.14,-376.62 925.48,-377.86"/>
<polygon fill="black" stroke="black" points="925.32,-381.36 935.49,-378.38 925.68,-374.37 925.32,-381.36"/>
</g>
<!-- Node0x563a73db5968&#45;&gt;Node0x563a73dcd888 -->
<g id="edge34" class="edge">
<title>Node0x563a73db5968&#45;&gt;Node0x563a73dcd888</title>
<path fill="none" stroke="black" d="M723.37,-381.84C769.83,-392.75 831.63,-406.01 887,-413.8 1345.44,-478.36 1890.77,-492.15 2172.49,-494.67"/>
<polygon fill="black" stroke="black" points="2172.79,-498.17 2182.82,-494.76 2172.85,-491.17 2172.79,-498.17"/>
</g>
<!-- Node0x563a73db5ff8&#45;&gt;Node0x563a73dccca8 -->
<g id="edge35" class="edge">
<title>Node0x563a73db5ff8&#45;&gt;Node0x563a73dccca8</title>
<path fill="none" stroke="black" d="M714.65,-716.9C761.89,-729.8 828.06,-746.74 887,-757.8 901.21,-760.47 916.01,-762.95 930.89,-765.24"/>
<polygon fill="black" stroke="black" points="930.79,-768.76 941.2,-766.79 931.83,-761.84 930.79,-768.76"/>
</g>
<!-- Node0x563a73db5ff8&#45;&gt;Node0x563a73dcc168 -->
<g id="edge36" class="edge">
<title>Node0x563a73db5ff8&#45;&gt;Node0x563a73dcc168</title>
<path fill="none" stroke="black" d="M809.3,-691.05C834.93,-689.79 861.83,-688.47 888.49,-687.17"/>
<polygon fill="black" stroke="black" points="888.87,-690.65 898.69,-686.67 888.53,-683.66 888.87,-690.65"/>
</g>
<!-- Node0x563a73db37f8&#45;&gt;Node0x563a73dcf958 -->
<g id="edge51" class="edge">
<title>Node0x563a73db37f8&#45;&gt;Node0x563a73dcf958</title>
<path fill="none" stroke="black" d="M1736.25,-821.18C1980.05,-827.95 2406.72,-831.8 2553,-782.8 2615.96,-761.72 2676.34,-711.08 2709.12,-680.19"/>
<polygon fill="black" stroke="black" points="2711.66,-682.61 2716.46,-673.17 2706.82,-677.56 2711.66,-682.61"/>
</g>
<!-- Node0x563a73db37f8&#45;&gt;Node0x563a73dcbcb8 -->
<g id="edge52" class="edge">
<title>Node0x563a73db37f8&#45;&gt;Node0x563a73dcbcb8</title>
<path fill="none" stroke="black" d="M1588.44,-796.73C1660.56,-750.88 1850.65,-630.04 1931.62,-578.57"/>
<polygon fill="black" stroke="black" points="1933.92,-581.25 1940.48,-572.93 1930.16,-575.34 1933.92,-581.25"/>
</g>
<!-- Node0x563a73db3438&#45;&gt;Node0x563a73dcf958 -->
<g id="edge37" class="edge">
<title>Node0x563a73db3438&#45;&gt;Node0x563a73dcf958</title>
<path fill="none" stroke="black" d="M1270.08,-631.91C1297.13,-633.28 1324.84,-634.63 1351,-635.8 1884.84,-659.78 2018.82,-679.51 2553,-664.8 2566.71,-664.43 2580.99,-663.89 2595.26,-663.26"/>
<polygon fill="black" stroke="black" points="2595.81,-666.74 2605.64,-662.78 2595.49,-659.74 2595.81,-666.74"/>
</g>
<!-- Node0x563a73db3438&#45;&gt;Node0x563a73dcfa98 -->
<g id="edge38" class="edge">
<title>Node0x563a73db3438&#45;&gt;Node0x563a73dcfa98</title>
<path fill="none" stroke="black" d="M1270.18,-617.64C1301.56,-616.68 1334.56,-615.66 1366.58,-614.68"/>
<polygon fill="black" stroke="black" points="1367.05,-618.17 1376.94,-614.36 1366.83,-611.17 1367.05,-618.17"/>
</g>
<!-- Node0x563a73dcfdb8&#45;&gt;Node0x563a73dcf958 -->
<g id="edge53" class="edge">
<title>Node0x563a73dcfdb8&#45;&gt;Node0x563a73dcf958</title>
<path fill="none" stroke="black" d="M1715.48,-572.84C1744.55,-575.99 1774.69,-579.12 1803,-581.8 2084.13,-608.43 2413.66,-632.6 2595.76,-645.34"/>
<polygon fill="black" stroke="black" points="2595.71,-648.85 2605.93,-646.05 2596.2,-641.86 2595.71,-648.85"/>
</g>
<!-- Node0x563a73dcfdb8&#45;&gt;Node0x563a73dcbcb8 -->
<g id="edge54" class="edge">
<title>Node0x563a73dcfdb8&#45;&gt;Node0x563a73dcbcb8</title>
<path fill="none" stroke="black" d="M1751.63,-554.8C1777.28,-554.8 1803.2,-554.8 1827.77,-554.8"/>
<polygon fill="black" stroke="black" points="1827.85,-558.3 1837.85,-554.8 1827.85,-551.3 1827.85,-558.3"/>
</g>
<!-- Node0x563a73dcbd08&#45;&gt;Node0x563a73dcf958 -->
<g id="edge41" class="edge">
<title>Node0x563a73dcbd08&#45;&gt;Node0x563a73dcf958</title>
<path fill="none" stroke="black" d="M1767.14,-865.02C2036.9,-858.97 2482.5,-844.74 2553,-815.8 2623.46,-786.88 2684.94,-718.49 2714.97,-680.82"/>
<polygon fill="black" stroke="black" points="2717.82,-682.86 2721.23,-672.83 2712.31,-678.54 2717.82,-682.86"/>
</g>
<!-- Node0x563a73dcbd08&#45;&gt;Node0x563a73dcbcb8 -->
<g id="edge42" class="edge">
<title>Node0x563a73dcbd08&#45;&gt;Node0x563a73dcbcb8</title>
<path fill="none" stroke="black" d="M1750.1,-850.71C1755.92,-848.04 1761.57,-845.08 1767,-841.8 1870.52,-779.24 1934.96,-641.13 1958.68,-582.25"/>
<polygon fill="black" stroke="black" points="1961.97,-583.45 1962.39,-572.86 1955.46,-580.88 1961.97,-583.45"/>
</g>
<!-- Node0x563a73dccc08 -->
<g id="node22" class="node">
<title>Node0x563a73dccc08</title>
<polygon fill="none" stroke="black" points="2553,-908.8 2173,-908.8 2173,-872.8 2553,-872.8 2553,-908.8"/>
<text text-anchor="middle" x="2363" y="-887.1" font-family="Times,serif" font-size="14.00">{lib/libLLVMOrcJIT.a(TargetProcessControl.cpp.o)}</text>
</g>
<!-- Node0x563a73dccc08&#45;&gt;Node0x563a73dcf958 -->
<g id="edge43" class="edge">
<title>Node0x563a73dccc08&#45;&gt;Node0x563a73dcf958</title>
<path fill="none" stroke="black" d="M2521.55,-872.71C2532.5,-868.87 2543.1,-864.29 2553,-858.8 2630.63,-815.82 2691.77,-726.63 2719.03,-681.78"/>
<polygon fill="black" stroke="black" points="2722.21,-683.3 2724.33,-672.92 2716.2,-679.71 2722.21,-683.3"/>
</g>
<!-- Node0x563a73dcdb58 -->
<g id="node23" class="node">
<title>Node0x563a73dcdb58</title>
<polygon fill="none" stroke="black" points="413,-667.8 0,-667.8 0,-631.8 413,-631.8 413,-667.8"/>
<text text-anchor="middle" x="206.5" y="-646.1" font-family="Times,serif" font-size="14.00">{lib/libLLVMOrcJIT.a(TPCDebugObjectRegistrar.cpp.o)}</text>
</g>
<!-- Node0x563a73dbf738 -->
<g id="node24" class="node">
<title>Node0x563a73dbf738</title>
<polygon fill="none" stroke="black" points="401,-721.8 12,-721.8 12,-685.8 401,-685.8 401,-721.8"/>
<text text-anchor="middle" x="206.5" y="-700.1" font-family="Times,serif" font-size="14.00">{lib/libLLVMOrcJIT.a(TPCEHFrameRegistrar.cpp.o)}</text>
</g>
</g>
</svg>
