<?xml version="1.0" encoding="UTF-8" standalone="no"?>
<!DOCTYPE svg PUBLIC "-//W3C//DTD SVG 1.1//EN"
 "http://www.w3.org/Graphics/SVG/1.1/DTD/svg11.dtd">
<!-- Generated by graphviz version 2.43.0 (0)
 -->
<!-- Title: bin/llvm&#45;yaml&#45;numeric&#45;parser&#45;fuzzer_lib/libLLVMCore.a Pages: 1 -->
<svg width="418pt" height="2281pt"
 viewBox="0.00 0.00 418.00 2281.00" xmlns="http://www.w3.org/2000/svg" xmlns:xlink="http://www.w3.org/1999/xlink">
<g id="graph0" class="graph" transform="scale(1 1) rotate(0) translate(4 2277)">
<title>bin/llvm&#45;yaml&#45;numeric&#45;parser&#45;fuzzer_lib/libLLVMCore.a</title>
<polygon fill="white" stroke="transparent" points="-4,4 -4,-2277 414,-2277 414,4 -4,4"/>
<text text-anchor="middle" x="205" y="-7.8" font-family="Times,serif" font-size="14.00">bin/llvm&#45;yaml&#45;numeric&#45;parser&#45;fuzzer_lib/libLLVMCore.a</text>
<!-- Node0x55fe0ade0968 -->
<g id="node1" class="node">
<title>Node0x55fe0ade0968</title>
<polygon fill="none" stroke="black" points="350,-59 60,-59 60,-23 350,-23 350,-59"/>
<text text-anchor="middle" x="205" y="-37.3" font-family="Times,serif" font-size="14.00">{lib/libLLVMCore.a(AsmWriter.cpp.o)}</text>
</g>
<!-- Node0x55fe0ade4748 -->
<g id="node2" class="node">
<title>Node0x55fe0ade4748</title>
<polygon fill="none" stroke="black" points="349,-113 61,-113 61,-77 349,-77 349,-113"/>
<text text-anchor="middle" x="205" y="-91.3" font-family="Times,serif" font-size="14.00">{lib/libLLVMCore.a(Attributes.cpp.o)}</text>
</g>
<!-- Node0x55fe0ade3b68 -->
<g id="node3" class="node">
<title>Node0x55fe0ade3b68</title>
<polygon fill="none" stroke="black" points="360.5,-167 49.5,-167 49.5,-131 360.5,-131 360.5,-167"/>
<text text-anchor="middle" x="205" y="-145.3" font-family="Times,serif" font-size="14.00">{lib/libLLVMCore.a(AutoUpgrade.cpp.o)}</text>
</g>
<!-- Node0x55fe0ade35c8 -->
<g id="node4" class="node">
<title>Node0x55fe0ade35c8</title>
<polygon fill="none" stroke="black" points="351.5,-221 58.5,-221 58.5,-185 351.5,-185 351.5,-221"/>
<text text-anchor="middle" x="205" y="-199.3" font-family="Times,serif" font-size="14.00">{lib/libLLVMCore.a(BasicBlock.cpp.o)}</text>
</g>
<!-- Node0x55fe0ade2718 -->
<g id="node5" class="node">
<title>Node0x55fe0ade2718</title>
<polygon fill="none" stroke="black" points="360.5,-275 49.5,-275 49.5,-239 360.5,-239 360.5,-275"/>
<text text-anchor="middle" x="205" y="-253.3" font-family="Times,serif" font-size="14.00">{lib/libLLVMCore.a(ConstantFold.cpp.o)}</text>
</g>
<!-- Node0x55fe0ade2498 -->
<g id="node6" class="node">
<title>Node0x55fe0ade2498</title>
<polygon fill="none" stroke="black" points="367.5,-329 42.5,-329 42.5,-293 367.5,-293 367.5,-329"/>
<text text-anchor="middle" x="205" y="-307.3" font-family="Times,serif" font-size="14.00">{lib/libLLVMCore.a(ConstantRange.cpp.o)}</text>
</g>
<!-- Node0x55fe0ade1ae8 -->
<g id="node7" class="node">
<title>Node0x55fe0ade1ae8</title>
<polygon fill="none" stroke="black" points="348.5,-383 61.5,-383 61.5,-347 348.5,-347 348.5,-383"/>
<text text-anchor="middle" x="205" y="-361.3" font-family="Times,serif" font-size="14.00">{lib/libLLVMCore.a(Constants.cpp.o)}</text>
</g>
<!-- Node0x55fe0ade12c8 -->
<g id="node8" class="node">
<title>Node0x55fe0ade12c8</title>
<polygon fill="none" stroke="black" points="354,-437 56,-437 56,-401 354,-401 354,-437"/>
<text text-anchor="middle" x="205" y="-415.3" font-family="Times,serif" font-size="14.00">{lib/libLLVMCore.a(DataLayout.cpp.o)}</text>
</g>
<!-- Node0x55fe0ade0aa8 -->
<g id="node9" class="node">
<title>Node0x55fe0ade0aa8</title>
<polygon fill="none" stroke="black" points="350,-491 60,-491 60,-455 350,-455 350,-491"/>
<text text-anchor="middle" x="205" y="-469.3" font-family="Times,serif" font-size="14.00">{lib/libLLVMCore.a(DebugInfo.cpp.o)}</text>
</g>
<!-- Node0x55fe0ade03c8 -->
<g id="node10" class="node">
<title>Node0x55fe0ade03c8</title>
<polygon fill="none" stroke="black" points="346.5,-545 63.5,-545 63.5,-509 346.5,-509 346.5,-545"/>
<text text-anchor="middle" x="205" y="-523.3" font-family="Times,serif" font-size="14.00">{lib/libLLVMCore.a(DIBuilder.cpp.o)}</text>
</g>
<!-- Node0x55fe0adddf38 -->
<g id="node11" class="node">
<title>Node0x55fe0adddf38</title>
<polygon fill="none" stroke="black" points="384,-599 26,-599 26,-563 384,-563 384,-599"/>
<text text-anchor="middle" x="205" y="-577.3" font-family="Times,serif" font-size="14.00">{lib/libLLVMCore.a(DebugInfoMetadata.cpp.o)}</text>
</g>
<!-- Node0x55fe0ade6048 -->
<g id="node12" class="node">
<title>Node0x55fe0ade6048</title>
<polygon fill="none" stroke="black" points="348.5,-653 61.5,-653 61.5,-617 348.5,-617 348.5,-653"/>
<text text-anchor="middle" x="205" y="-631.3" font-family="Times,serif" font-size="14.00">{lib/libLLVMCore.a(DebugLoc.cpp.o)}</text>
</g>
<!-- Node0x55fe0ade6228 -->
<g id="node13" class="node">
<title>Node0x55fe0ade6228</title>
<polygon fill="none" stroke="black" points="364.5,-707 45.5,-707 45.5,-671 364.5,-671 364.5,-707"/>
<text text-anchor="middle" x="205" y="-685.3" font-family="Times,serif" font-size="14.00">{lib/libLLVMCore.a(DiagnosticInfo.cpp.o)}</text>
</g>
<!-- Node0x55fe0ade4d88 -->
<g id="node14" class="node">
<title>Node0x55fe0ade4d88</title>
<polygon fill="none" stroke="black" points="354.5,-761 55.5,-761 55.5,-725 354.5,-725 354.5,-761"/>
<text text-anchor="middle" x="205" y="-739.3" font-family="Times,serif" font-size="14.00">{lib/libLLVMCore.a(Dominators.cpp.o)}</text>
</g>
<!-- Node0x55fe0ade4fb8 -->
<g id="node15" class="node">
<title>Node0x55fe0ade4fb8</title>
<polygon fill="none" stroke="black" points="344,-815 66,-815 66,-779 344,-779 344,-815"/>
<text text-anchor="middle" x="205" y="-793.3" font-family="Times,serif" font-size="14.00">{lib/libLLVMCore.a(Function.cpp.o)}</text>
</g>
<!-- Node0x55fe0ade3528 -->
<g id="node16" class="node">
<title>Node0x55fe0ade3528</title>
<polygon fill="none" stroke="black" points="339.5,-869 70.5,-869 70.5,-833 339.5,-833 339.5,-869"/>
<text text-anchor="middle" x="205" y="-847.3" font-family="Times,serif" font-size="14.00">{lib/libLLVMCore.a(Globals.cpp.o)}</text>
</g>
<!-- Node0x55fe0ade2b78 -->
<g id="node17" class="node">
<title>Node0x55fe0ade2b78</title>
<polygon fill="none" stroke="black" points="348.5,-923 61.5,-923 61.5,-887 348.5,-887 348.5,-923"/>
<text text-anchor="middle" x="205" y="-901.3" font-family="Times,serif" font-size="14.00">{lib/libLLVMCore.a(InlineAsm.cpp.o)}</text>
</g>
<!-- Node0x55fe0ade1d68 -->
<g id="node18" class="node">
<title>Node0x55fe0ade1d68</title>
<polygon fill="none" stroke="black" points="352,-977 58,-977 58,-941 352,-941 352,-977"/>
<text text-anchor="middle" x="205" y="-955.3" font-family="Times,serif" font-size="14.00">{lib/libLLVMCore.a(Instruction.cpp.o)}</text>
</g>
<!-- Node0x55fe0ade0878 -->
<g id="node19" class="node">
<title>Node0x55fe0ade0878</title>
<polygon fill="none" stroke="black" points="361,-1031 49,-1031 49,-995 361,-995 361,-1031"/>
<text text-anchor="middle" x="205" y="-1009.3" font-family="Times,serif" font-size="14.00">{lib/libLLVMCore.a(LLVMContext.cpp.o)}</text>
</g>
<!-- Node0x55fe0ade0f08 -->
<g id="node20" class="node">
<title>Node0x55fe0ade0f08</title>
<polygon fill="none" stroke="black" points="375.5,-1085 34.5,-1085 34.5,-1049 375.5,-1049 375.5,-1085"/>
<text text-anchor="middle" x="205" y="-1063.3" font-family="Times,serif" font-size="14.00">{lib/libLLVMCore.a(DiagnosticPrinter.cpp.o)}</text>
</g>
<!-- Node0x55fe0ade06e8 -->
<g id="node21" class="node">
<title>Node0x55fe0ade06e8</title>
<polygon fill="none" stroke="black" points="377,-1139 33,-1139 33,-1103 377,-1103 377,-1139"/>
<text text-anchor="middle" x="205" y="-1117.3" font-family="Times,serif" font-size="14.00">{lib/libLLVMCore.a(LLVMContextImpl.cpp.o)}</text>
</g>
<!-- Node0x55fe0addf608 -->
<g id="node22" class="node">
<title>Node0x55fe0addf608</title>
<polygon fill="none" stroke="black" points="378.5,-1193 31.5,-1193 31.5,-1157 378.5,-1157 378.5,-1193"/>
<text text-anchor="middle" x="205" y="-1171.3" font-family="Times,serif" font-size="14.00">{lib/libLLVMCore.a(DiagnosticHandler.cpp.o)}</text>
</g>
<!-- Node0x55fe0addeca8 -->
<g id="node23" class="node">
<title>Node0x55fe0addeca8</title>
<polygon fill="none" stroke="black" points="393.5,-1247 16.5,-1247 16.5,-1211 393.5,-1211 393.5,-1247"/>
<text text-anchor="middle" x="205" y="-1225.3" font-family="Times,serif" font-size="14.00">{lib/libLLVMCore.a(LLVMRemarkStreamer.cpp.o)}</text>
</g>
<!-- Node0x55fe0adde9d8 -->
<g id="node24" class="node">
<title>Node0x55fe0adde9d8</title>
<polygon fill="none" stroke="black" points="385,-1301 25,-1301 25,-1265 385,-1265 385,-1301"/>
<text text-anchor="middle" x="205" y="-1279.3" font-family="Times,serif" font-size="14.00">{lib/libLLVMCore.a(LegacyPassManager.cpp.o)}</text>
</g>
<!-- Node0x55fe0ade3ac8 -->
<g id="node25" class="node">
<title>Node0x55fe0ade3ac8</title>
<polygon fill="none" stroke="black" points="374,-1355 36,-1355 36,-1319 374,-1319 374,-1355"/>
<text text-anchor="middle" x="205" y="-1333.3" font-family="Times,serif" font-size="14.00">{lib/libLLVMCore.a(IRPrintingPasses.cpp.o)}</text>
</g>
<!-- Node0x55fe0ade1818 -->
<g id="node26" class="node">
<title>Node0x55fe0ade1818</title>
<polygon fill="none" stroke="black" points="342,-1409 68,-1409 68,-1373 342,-1373 342,-1409"/>
<text text-anchor="middle" x="205" y="-1387.3" font-family="Times,serif" font-size="14.00">{lib/libLLVMCore.a(Mangler.cpp.o)}</text>
</g>
<!-- Node0x55fe0ade1368 -->
<g id="node27" class="node">
<title>Node0x55fe0ade1368</title>
<polygon fill="none" stroke="black" points="347,-1463 63,-1463 63,-1427 347,-1427 347,-1463"/>
<text text-anchor="middle" x="205" y="-1441.3" font-family="Times,serif" font-size="14.00">{lib/libLLVMCore.a(Metadata.cpp.o)}</text>
</g>
<!-- Node0x55fe0addcf48 -->
<g id="node28" class="node">
<title>Node0x55fe0addcf48</title>
<polygon fill="none" stroke="black" points="339.5,-1517 70.5,-1517 70.5,-1481 339.5,-1481 339.5,-1517"/>
<text text-anchor="middle" x="205" y="-1495.3" font-family="Times,serif" font-size="14.00">{lib/libLLVMCore.a(Module.cpp.o)}</text>
</g>
<!-- Node0x55fe0adde848 -->
<g id="node29" class="node">
<title>Node0x55fe0adde848</title>
<polygon fill="none" stroke="black" points="393.5,-1571 16.5,-1571 16.5,-1535 393.5,-1535 393.5,-1571"/>
<text text-anchor="middle" x="205" y="-1549.3" font-family="Times,serif" font-size="14.00">{lib/libLLVMCore.a(ModuleSummaryIndex.cpp.o)}</text>
</g>
<!-- Node0x55fe0ade2c68 -->
<g id="node30" class="node">
<title>Node0x55fe0ade2c68</title>
<polygon fill="none" stroke="black" points="348,-1625 62,-1625 62,-1589 348,-1589 348,-1625"/>
<text text-anchor="middle" x="205" y="-1603.3" font-family="Times,serif" font-size="14.00">{lib/libLLVMCore.a(OptBisect.cpp.o)}</text>
</g>
<!-- Node0x55fe0ade3988 -->
<g id="node31" class="node">
<title>Node0x55fe0ade3988</title>
<polygon fill="none" stroke="black" points="329,-1679 81,-1679 81,-1643 329,-1643 329,-1679"/>
<text text-anchor="middle" x="205" y="-1657.3" font-family="Times,serif" font-size="14.00">{lib/libLLVMCore.a(Pass.cpp.o)}</text>
</g>
<!-- Node0x55fe0ade3078 -->
<g id="node32" class="node">
<title>Node0x55fe0ade3078</title>
<polygon fill="none" stroke="black" points="360,-1733 50,-1733 50,-1697 360,-1697 360,-1733"/>
<text text-anchor="middle" x="205" y="-1711.3" font-family="Times,serif" font-size="14.00">{lib/libLLVMCore.a(PassManager.cpp.o)}</text>
</g>
<!-- Node0x55fe0ade3de8 -->
<g id="node33" class="node">
<title>Node0x55fe0ade3de8</title>
<polygon fill="none" stroke="black" points="387,-1787 23,-1787 23,-1751 387,-1751 387,-1787"/>
<text text-anchor="middle" x="205" y="-1765.3" font-family="Times,serif" font-size="14.00">{lib/libLLVMCore.a(PassInstrumentation.cpp.o)}</text>
</g>
<!-- Node0x55fe0ade4ba8 -->
<g id="node34" class="node">
<title>Node0x55fe0ade4ba8</title>
<polygon fill="none" stroke="black" points="358,-1841 52,-1841 52,-1805 358,-1805 358,-1841"/>
<text text-anchor="middle" x="205" y="-1819.3" font-family="Times,serif" font-size="14.00">{lib/libLLVMCore.a(PassRegistry.cpp.o)}</text>
</g>
<!-- Node0x55fe0ade5738 -->
<g id="node35" class="node">
<title>Node0x55fe0ade5738</title>
<polygon fill="none" stroke="black" points="367.5,-1895 42.5,-1895 42.5,-1859 367.5,-1859 367.5,-1895"/>
<text text-anchor="middle" x="205" y="-1873.3" font-family="Times,serif" font-size="14.00">{lib/libLLVMCore.a(PassTimingInfo.cpp.o)}</text>
</g>
<!-- Node0x55fe0ade5148 -->
<g id="node36" class="node">
<title>Node0x55fe0ade5148</title>
<polygon fill="none" stroke="black" points="354.5,-1949 55.5,-1949 55.5,-1913 354.5,-1913 354.5,-1949"/>
<text text-anchor="middle" x="205" y="-1927.3" font-family="Times,serif" font-size="14.00">{lib/libLLVMCore.a(PrintPasses.cpp.o)}</text>
</g>
<!-- Node0x55fe0ade5e18 -->
<g id="node37" class="node">
<title>Node0x55fe0ade5e18</title>
<polygon fill="none" stroke="black" points="369.5,-2003 40.5,-2003 40.5,-1967 369.5,-1967 369.5,-2003"/>
<text text-anchor="middle" x="205" y="-1981.3" font-family="Times,serif" font-size="14.00">{lib/libLLVMCore.a(ProfileSummary.cpp.o)}</text>
</g>
<!-- Node0x55fe0ade6a98 -->
<g id="node38" class="node">
<title>Node0x55fe0ade6a98</title>
<polygon fill="none" stroke="black" points="330,-2057 80,-2057 80,-2021 330,-2021 330,-2057"/>
<text text-anchor="middle" x="205" y="-2035.3" font-family="Times,serif" font-size="14.00">{lib/libLLVMCore.a(Type.cpp.o)}</text>
</g>
<!-- Node0x55fe0ade6318 -->
<g id="node39" class="node">
<title>Node0x55fe0ade6318</title>
<polygon fill="none" stroke="black" points="353,-2111 57,-2111 57,-2075 353,-2075 353,-2111"/>
<text text-anchor="middle" x="205" y="-2089.3" font-family="Times,serif" font-size="14.00">{lib/libLLVMCore.a(TypeFinder.cpp.o)}</text>
</g>
<!-- Node0x55fe0ade29e8 -->
<g id="node40" class="node">
<title>Node0x55fe0ade29e8</title>
<polygon fill="none" stroke="black" points="332,-2165 78,-2165 78,-2129 332,-2129 332,-2165"/>
<text text-anchor="middle" x="205" y="-2143.3" font-family="Times,serif" font-size="14.00">{lib/libLLVMCore.a(Value.cpp.o)}</text>
</g>
<!-- Node0x55fe0ade0b48 -->
<g id="node41" class="node">
<title>Node0x55fe0ade0b48</title>
<polygon fill="none" stroke="black" points="378,-2219 32,-2219 32,-2183 378,-2183 378,-2219"/>
<text text-anchor="middle" x="205" y="-2197.3" font-family="Times,serif" font-size="14.00">{lib/libLLVMCore.a(ValueSymbolTable.cpp.o)}</text>
</g>
<!-- Node0x55fe0ade1728 -->
<g id="node42" class="node">
<title>Node0x55fe0ade1728</title>
<polygon fill="none" stroke="black" points="338,-2273 72,-2273 72,-2237 338,-2237 338,-2273"/>
<text text-anchor="middle" x="205" y="-2251.3" font-family="Times,serif" font-size="14.00">{lib/libLLVMCore.a(Verifier.cpp.o)}</text>
</g>
</g>
</svg>
