<?xml version="1.0" encoding="UTF-8" standalone="no"?>
<!DOCTYPE svg PUBLIC "-//W3C//DTD SVG 1.1//EN"
 "http://www.w3.org/Graphics/SVG/1.1/DTD/svg11.dtd">
<!-- Generated by graphviz version 2.43.0 (0)
 -->
<!-- Title: bin/llvm&#45;microsoft&#45;demangle&#45;fuzzer Pages: 1 -->
<svg width="2293pt" height="640pt"
 viewBox="0.00 0.00 2293.00 640.33" xmlns="http://www.w3.org/2000/svg" xmlns:xlink="http://www.w3.org/1999/xlink">
<g id="graph0" class="graph" transform="scale(1 1) rotate(0) translate(4 636.33)">
<title>bin/llvm&#45;microsoft&#45;demangle&#45;fuzzer</title>
<polygon fill="white" stroke="transparent" points="-4,4 -4,-636.33 2289,-636.33 2289,4 -4,4"/>
<text text-anchor="middle" x="1142.5" y="-7.8" font-family="Times,serif" font-size="14.00">bin/llvm&#45;microsoft&#45;demangle&#45;fuzzer</text>
<!-- Node0x559d100e88a8 -->
<g id="node1" class="node">
<title>Node0x559d100e88a8</title>
<polygon fill="none" stroke="black" points="1100,-605.33 230,-605.33 230,-569.33 1100,-569.33 1100,-605.33"/>
<text text-anchor="middle" x="665" y="-583.63" font-family="Times,serif" font-size="14.00">{tools/llvm&#45;microsoft&#45;demangle&#45;fuzzer/CMakeFiles/llvm&#45;microsoft&#45;demangle&#45;fuzzer.dir/DummyDemanglerFuzzer.cpp.o}</text>
</g>
<!-- Node0x559d100e9028 -->
<g id="node2" class="node">
<title>Node0x559d100e9028</title>
<polygon fill="none" stroke="black" points="2049,-632.33 1136,-632.33 1136,-596.33 2049,-596.33 2049,-632.33"/>
<text text-anchor="middle" x="1592.5" y="-610.63" font-family="Times,serif" font-size="14.00">{tools/llvm&#45;microsoft&#45;demangle&#45;fuzzer/CMakeFiles/llvm&#45;microsoft&#45;demangle&#45;fuzzer.dir/llvm&#45;microsoft&#45;demangle&#45;fuzzer.cpp.o}</text>
</g>
<!-- Node0x559d100e88a8&#45;&gt;Node0x559d100e9028 -->
<g id="edge1" class="edge">
<title>Node0x559d100e88a8&#45;&gt;Node0x559d100e9028</title>
<path fill="none" stroke="black" d="M1100.3,-600C1108.82,-600.24 1117.36,-600.49 1125.89,-600.74"/>
<polygon fill="black" stroke="black" points="1125.82,-604.24 1135.92,-601.04 1126.02,-597.25 1125.82,-604.24"/>
</g>
<!-- Node0x559d100eca48 -->
<g id="node3" class="node">
<title>Node0x559d100eca48</title>
<polygon fill="none" stroke="black" points="1699.5,-578.33 1485.5,-578.33 1485.5,-542.33 1699.5,-542.33 1699.5,-578.33"/>
<text text-anchor="middle" x="1592.5" y="-556.63" font-family="Times,serif" font-size="14.00">{lib/libLLVMFuzzMutate.a}</text>
</g>
<!-- Node0x559d100e88a8&#45;&gt;Node0x559d100eca48 -->
<g id="edge2" class="edge">
<title>Node0x559d100e88a8&#45;&gt;Node0x559d100eca48</title>
<path fill="none" stroke="black" d="M1100.3,-574.66C1238.28,-570.63 1379.64,-566.51 1475.08,-563.72"/>
<polygon fill="black" stroke="black" points="1475.43,-567.21 1485.32,-563.42 1475.23,-560.22 1475.43,-567.21"/>
</g>
<!-- Node0x559d100ed858 -->
<g id="node4" class="node">
<title>Node0x559d100ed858</title>
<polygon fill="none" stroke="black" points="2285,-632.33 2085,-632.33 2085,-596.33 2285,-596.33 2285,-632.33"/>
<text text-anchor="middle" x="2185" y="-610.63" font-family="Times,serif" font-size="14.00">{lib/libLLVMDemangle.a}</text>
</g>
<!-- Node0x559d100e9028&#45;&gt;Node0x559d100ed858 -->
<g id="edge3" class="edge">
<title>Node0x559d100e9028&#45;&gt;Node0x559d100ed858</title>
<path fill="none" stroke="black" d="M2049.27,-614.33C2057.96,-614.33 2066.39,-614.33 2074.5,-614.33"/>
<polygon fill="black" stroke="black" points="2074.6,-617.83 2084.6,-614.33 2074.6,-610.83 2074.6,-617.83"/>
</g>
<!-- Node0x559d100ece58 -->
<g id="node5" class="node">
<title>Node0x559d100ece58</title>
<polygon fill="none" stroke="black" points="2278,-340.33 2092,-340.33 2092,-304.33 2278,-304.33 2278,-340.33"/>
<text text-anchor="middle" x="2185" y="-318.63" font-family="Times,serif" font-size="14.00">{lib/libLLVMSupport.a}</text>
</g>
<!-- Node0x559d100eca48&#45;&gt;Node0x559d100ece58 -->
<g id="edge4" class="edge">
<title>Node0x559d100eca48&#45;&gt;Node0x559d100ece58</title>
<path fill="none" stroke="black" d="M1699.82,-578.24C1797.45,-589.1 1942.67,-590.69 2049,-528.33 2118.1,-487.8 2158.36,-396.28 2174.99,-350.09"/>
<polygon fill="black" stroke="black" points="2178.37,-351.03 2178.35,-340.43 2171.76,-348.72 2178.37,-351.03"/>
</g>
<!-- Node0x559d100ebfa8 -->
<g id="node6" class="node">
<title>Node0x559d100ebfa8</title>
<polygon fill="none" stroke="black" points="194,-509.33 0,-509.33 0,-473.33 194,-473.33 194,-509.33"/>
<text text-anchor="middle" x="97" y="-487.63" font-family="Times,serif" font-size="14.00">{lib/libLLVMBitWriter.a}</text>
</g>
<!-- Node0x559d100ebfa8&#45;&gt;Node0x559d100ece58 -->
<g id="edge5" class="edge">
<title>Node0x559d100ebfa8&#45;&gt;Node0x559d100ece58</title>
<path fill="none" stroke="black" d="M194.18,-495.82C563.84,-512.42 1881.02,-565.4 2049,-485.33 2108.63,-456.9 2151.08,-388.02 2171.08,-349.52"/>
<polygon fill="black" stroke="black" points="2174.29,-350.93 2175.67,-340.43 2168.04,-347.77 2174.29,-350.93"/>
</g>
<!-- Node0x559d100eefc8 -->
<g id="node7" class="node">
<title>Node0x559d100eefc8</title>
<polygon fill="none" stroke="black" points="759,-486.33 571,-486.33 571,-450.33 759,-450.33 759,-486.33"/>
<text text-anchor="middle" x="665" y="-464.63" font-family="Times,serif" font-size="14.00">{lib/libLLVMAnalysis.a}</text>
</g>
<!-- Node0x559d100ebfa8&#45;&gt;Node0x559d100eefc8 -->
<g id="edge6" class="edge">
<title>Node0x559d100ebfa8&#45;&gt;Node0x559d100eefc8</title>
<path fill="none" stroke="black" d="M194.01,-487.42C295.81,-483.29 456.03,-476.78 560.56,-472.53"/>
<polygon fill="black" stroke="black" points="560.96,-476.02 570.81,-472.11 560.68,-469.02 560.96,-476.02"/>
</g>
<!-- Node0x559d100eefc8&#45;&gt;Node0x559d100ece58 -->
<g id="edge7" class="edge">
<title>Node0x559d100eefc8&#45;&gt;Node0x559d100ece58</title>
<path fill="none" stroke="black" d="M759.2,-471.65C1050.42,-481.49 1930.96,-506.77 2049,-457.33 2101.54,-435.32 2144.37,-382.03 2166.86,-349.37"/>
<polygon fill="black" stroke="black" points="2169.98,-351 2172.65,-340.75 2164.17,-347.09 2169.98,-351"/>
</g>
<!-- Node0x559d100e8d58 -->
<g id="node8" class="node">
<title>Node0x559d100e8d58</title>
<polygon fill="none" stroke="black" points="1697,-448.33 1488,-448.33 1488,-412.33 1697,-412.33 1697,-448.33"/>
<text text-anchor="middle" x="1592.5" y="-426.63" font-family="Times,serif" font-size="14.00">{lib/libLLVMProfileData.a}</text>
</g>
<!-- Node0x559d100eefc8&#45;&gt;Node0x559d100e8d58 -->
<g id="edge8" class="edge">
<title>Node0x559d100eefc8&#45;&gt;Node0x559d100e8d58</title>
<path fill="none" stroke="black" d="M759.41,-464.49C930.33,-457.47 1292.81,-442.59 1477.77,-435"/>
<polygon fill="black" stroke="black" points="1477.95,-438.49 1487.8,-434.58 1477.66,-431.5 1477.95,-438.49"/>
</g>
<!-- Node0x559d100e8d58&#45;&gt;Node0x559d100ece58 -->
<g id="edge9" class="edge">
<title>Node0x559d100e8d58&#45;&gt;Node0x559d100ece58</title>
<path fill="none" stroke="black" d="M1697.3,-438.04C1791.29,-441.81 1932.45,-439.36 2049,-403.33 2087.95,-391.29 2127.33,-365.78 2153.43,-346.59"/>
<polygon fill="black" stroke="black" points="2155.85,-349.15 2161.75,-340.35 2151.65,-343.55 2155.85,-349.15"/>
</g>
<!-- Node0x559d100ef3d8 -->
<g id="node9" class="node">
<title>Node0x559d100ef3d8</title>
<polygon fill="none" stroke="black" points="1680,-394.33 1505,-394.33 1505,-358.33 1680,-358.33 1680,-394.33"/>
<text text-anchor="middle" x="1592.5" y="-372.63" font-family="Times,serif" font-size="14.00">{lib/libLLVMObject.a}</text>
</g>
<!-- Node0x559d100ef3d8&#45;&gt;Node0x559d100ece58 -->
<g id="edge10" class="edge">
<title>Node0x559d100ef3d8&#45;&gt;Node0x559d100ece58</title>
<path fill="none" stroke="black" d="M1680.31,-374.74C1772.21,-372.24 1921.33,-365.8 2049,-349.33 2063.35,-347.48 2078.46,-344.99 2093.17,-342.27"/>
<polygon fill="black" stroke="black" points="2094.1,-345.66 2103.28,-340.36 2092.8,-338.78 2094.1,-345.66"/>
</g>
<!-- Node0x559d100ee528 -->
<g id="node10" class="node">
<title>Node0x559d100ee528</title>
<polygon fill="none" stroke="black" points="1692,-340.33 1493,-340.33 1493,-304.33 1692,-304.33 1692,-340.33"/>
<text text-anchor="middle" x="1592.5" y="-318.63" font-family="Times,serif" font-size="14.00">{lib/libLLVMBitReader.a}</text>
</g>
<!-- Node0x559d100ee528&#45;&gt;Node0x559d100ece58 -->
<g id="edge11" class="edge">
<title>Node0x559d100ee528&#45;&gt;Node0x559d100ece58</title>
<path fill="none" stroke="black" d="M1692,-322.33C1799.87,-322.33 1972.05,-322.33 2081.48,-322.33"/>
<polygon fill="black" stroke="black" points="2081.55,-325.83 2091.55,-322.33 2081.55,-318.83 2081.55,-325.83"/>
</g>
<!-- Node0x559d100ee9d8 -->
<g id="node11" class="node">
<title>Node0x559d100ee9d8</title>
<polygon fill="none" stroke="black" points="1691.5,-286.33 1493.5,-286.33 1493.5,-250.33 1691.5,-250.33 1691.5,-286.33"/>
<text text-anchor="middle" x="1592.5" y="-264.63" font-family="Times,serif" font-size="14.00">{lib/libLLVMMCParser.a}</text>
</g>
<!-- Node0x559d100ee9d8&#45;&gt;Node0x559d100ece58 -->
<g id="edge12" class="edge">
<title>Node0x559d100ee9d8&#45;&gt;Node0x559d100ece58</title>
<path fill="none" stroke="black" d="M1691.61,-270.23C1784.1,-272.95 1926.43,-279.51 2049,-295.33 2063.35,-297.18 2078.46,-299.66 2093.17,-302.38"/>
<polygon fill="black" stroke="black" points="2092.8,-305.87 2103.28,-304.29 2094.1,-298.99 2092.8,-305.87"/>
</g>
<!-- Node0x559d100e9e38 -->
<g id="node12" class="node">
<title>Node0x559d100e9e38</title>
<polygon fill="none" stroke="black" points="1673.5,-232.33 1511.5,-232.33 1511.5,-196.33 1673.5,-196.33 1673.5,-232.33"/>
<text text-anchor="middle" x="1592.5" y="-210.63" font-family="Times,serif" font-size="14.00">{lib/libLLVMCore.a}</text>
</g>
<!-- Node0x559d100e9e38&#45;&gt;Node0x559d100ece58 -->
<g id="edge13" class="edge">
<title>Node0x559d100e9e38&#45;&gt;Node0x559d100ece58</title>
<path fill="none" stroke="black" d="M1673.72,-207.73C1766.35,-202.67 1922.23,-202.14 2049,-241.33 2087.95,-253.37 2127.33,-278.87 2153.43,-298.06"/>
<polygon fill="black" stroke="black" points="2151.65,-301.1 2161.75,-304.3 2155.85,-295.5 2151.65,-301.1"/>
</g>
<!-- Node0x559d100ea338 -->
<g id="node13" class="node">
<title>Node0x559d100ea338</title>
<polygon fill="none" stroke="black" points="1688,-178.33 1497,-178.33 1497,-142.33 1688,-142.33 1688,-178.33"/>
<text text-anchor="middle" x="1592.5" y="-156.63" font-family="Times,serif" font-size="14.00">{lib/libLLVMRemarks.a}</text>
</g>
<!-- Node0x559d100ea338&#45;&gt;Node0x559d100ece58 -->
<g id="edge14" class="edge">
<title>Node0x559d100ea338&#45;&gt;Node0x559d100ece58</title>
<path fill="none" stroke="black" d="M1688.4,-147C1783.89,-137.82 1933.2,-135.3 2049,-187.33 2100.95,-210.67 2143.99,-263.51 2166.67,-295.72"/>
<polygon fill="black" stroke="black" points="2163.96,-297.96 2172.52,-304.22 2169.73,-294 2163.96,-297.96"/>
</g>
<!-- Node0x559d100ea978 -->
<g id="node14" class="node">
<title>Node0x559d100ea978</title>
<polygon fill="none" stroke="black" points="1717,-124.33 1468,-124.33 1468,-88.33 1717,-88.33 1717,-124.33"/>
<text text-anchor="middle" x="1592.5" y="-102.63" font-family="Times,serif" font-size="14.00">{lib/libLLVMBitstreamReader.a}</text>
</g>
<!-- Node0x559d100ea978&#45;&gt;Node0x559d100ece58 -->
<g id="edge15" class="edge">
<title>Node0x559d100ea978&#45;&gt;Node0x559d100ece58</title>
<path fill="none" stroke="black" d="M1696.34,-88.33C1793.49,-76.64 1940.14,-73.17 2049,-133.33 2114.16,-169.34 2155.55,-251.7 2173.56,-294.84"/>
<polygon fill="black" stroke="black" points="2170.34,-296.21 2177.35,-304.16 2176.83,-293.58 2170.34,-296.21"/>
</g>
<!-- Node0x559d100eae78 -->
<g id="node15" class="node">
<title>Node0x559d100eae78</title>
<polygon fill="none" stroke="black" points="1669,-70.33 1516,-70.33 1516,-34.33 1669,-34.33 1669,-70.33"/>
<text text-anchor="middle" x="1592.5" y="-48.63" font-family="Times,serif" font-size="14.00">{lib/libLLVMMC.a}</text>
</g>
<!-- Node0x559d100eae78&#45;&gt;Node0x559d100ece58 -->
<g id="edge16" class="edge">
<title>Node0x559d100eae78&#45;&gt;Node0x559d100ece58</title>
<path fill="none" stroke="black" d="M1669.09,-36.06C1765.27,-19.72 1932.82,-6.25 2049,-79.33 2127.73,-128.85 2164.43,-241.53 2177.76,-294.2"/>
<polygon fill="black" stroke="black" points="2174.43,-295.31 2180.19,-304.2 2181.23,-293.65 2174.43,-295.31"/>
</g>
</g>
</svg>
