<?xml version="1.0" encoding="UTF-8" standalone="no"?>
<!DOCTYPE svg PUBLIC "-//W3C//DTD SVG 1.1//EN"
 "http://www.w3.org/Graphics/SVG/1.1/DTD/svg11.dtd">
<!-- Generated by graphviz version 2.43.0 (0)
 -->
<!-- Title: bin/lli_lib/libLLVMJITLink.a Pages: 1 -->
<svg width="1867pt" height="421pt"
 viewBox="0.00 0.00 1867.00 420.87" xmlns="http://www.w3.org/2000/svg" xmlns:xlink="http://www.w3.org/1999/xlink">
<g id="graph0" class="graph" transform="scale(1 1) rotate(0) translate(4 416.87)">
<title>bin/lli_lib/libLLVMJITLink.a</title>
<polygon fill="white" stroke="transparent" points="-4,4 -4,-416.87 1863,-416.87 1863,4 -4,4"/>
<text text-anchor="middle" x="929.5" y="-7.8" font-family="Times,serif" font-size="14.00">bin/lli_lib/libLLVMJITLink.a</text>
<!-- Node0x55882e74a598 -->
<g id="node1" class="node">
<title>Node0x55882e74a598</title>
<polygon fill="none" stroke="black" points="404,-177.04 0,-177.04 0,-141.04 404,-141.04 404,-177.04"/>
<text text-anchor="middle" x="202" y="-155.34" font-family="Times,serif" font-size="14.00">{lib/libLLVMJITLink.a(JITLinkMemoryManager.cpp.o)}</text>
</g>
<!-- Node0x55882e73de38 -->
<g id="node2" class="node">
<title>Node0x55882e73de38</title>
<polygon fill="none" stroke="black" points="381.5,-231.04 22.5,-231.04 22.5,-195.04 381.5,-195.04 381.5,-231.04"/>
<text text-anchor="middle" x="202" y="-209.34" font-family="Times,serif" font-size="14.00">{lib/libLLVMJITLink.a(EHFrameSupport.cpp.o)}</text>
</g>
<!-- Node0x55882e73feb8 -->
<g id="node3" class="node">
<title>Node0x55882e73feb8</title>
<polygon fill="none" stroke="black" points="722,-231.04 440,-231.04 440,-195.04 722,-195.04 722,-231.04"/>
<text text-anchor="middle" x="581" y="-209.34" font-family="Times,serif" font-size="14.00">{lib/libLLVMJITLink.a(JITLink.cpp.o)}</text>
</g>
<!-- Node0x55882e73de38&#45;&gt;Node0x55882e73feb8 -->
<g id="edge1" class="edge">
<title>Node0x55882e73de38&#45;&gt;Node0x55882e73feb8</title>
<path fill="none" stroke="black" d="M381.56,-213.04C397.64,-213.04 413.82,-213.04 429.63,-213.04"/>
<polygon fill="black" stroke="black" points="429.95,-216.54 439.95,-213.04 429.95,-209.54 429.95,-216.54"/>
</g>
<!-- Node0x55882e74cac8 -->
<g id="node4" class="node">
<title>Node0x55882e74cac8</title>
<polygon fill="none" stroke="black" points="1039,-147.04 758,-147.04 758,-111.04 1039,-111.04 1039,-147.04"/>
<text text-anchor="middle" x="898.5" y="-125.34" font-family="Times,serif" font-size="14.00">{lib/libLLVMJITLink.a(MachO.cpp.o)}</text>
</g>
<!-- Node0x55882e73feb8&#45;&gt;Node0x55882e74cac8 -->
<g id="edge2" class="edge">
<title>Node0x55882e73feb8&#45;&gt;Node0x55882e74cac8</title>
<path fill="none" stroke="black" d="M617.55,-194.99C652.97,-181.83 709,-164.88 758,-152.04 761.18,-151.2 764.41,-150.37 767.67,-149.54"/>
<polygon fill="black" stroke="black" points="768.68,-152.89 777.53,-147.06 766.98,-146.1 768.68,-152.89"/>
</g>
<!-- Node0x55882e74b038 -->
<g id="node5" class="node">
<title>Node0x55882e74b038</title>
<polygon fill="none" stroke="black" points="1028,-277.04 769,-277.04 769,-241.04 1028,-241.04 1028,-277.04"/>
<text text-anchor="middle" x="898.5" y="-255.34" font-family="Times,serif" font-size="14.00">{lib/libLLVMJITLink.a(ELF.cpp.o)}</text>
</g>
<!-- Node0x55882e73feb8&#45;&gt;Node0x55882e74b038 -->
<g id="edge3" class="edge">
<title>Node0x55882e73feb8&#45;&gt;Node0x55882e74b038</title>
<path fill="none" stroke="black" d="M722.22,-226.77C750.26,-230.74 779.05,-235.1 804.98,-239.34"/>
<polygon fill="black" stroke="black" points="804.72,-242.84 815.15,-241.02 805.86,-235.93 804.72,-242.84"/>
</g>
<!-- Node0x55882e74cac8&#45;&gt;Node0x55882e73feb8 -->
<g id="edge4" class="edge">
<title>Node0x55882e74cac8&#45;&gt;Node0x55882e73feb8</title>
<path fill="none" stroke="black" d="M849.87,-147.11C822.82,-154.16 788.41,-162.06 758,-170.04 731.9,-176.88 703.81,-184.88 677.9,-192.21"/>
<polygon fill="black" stroke="black" points="676.76,-188.89 668.09,-194.98 678.66,-195.63 676.76,-188.89"/>
</g>
<!-- Node0x55882e74d6f8 -->
<g id="node6" class="node">
<title>Node0x55882e74d6f8</title>
<polygon fill="none" stroke="black" points="1412.5,-131.04 1077.5,-131.04 1077.5,-95.04 1412.5,-95.04 1412.5,-131.04"/>
<text text-anchor="middle" x="1245" y="-109.34" font-family="Times,serif" font-size="14.00">{lib/libLLVMJITLink.a(MachO_arm64.cpp.o)}</text>
</g>
<!-- Node0x55882e74cac8&#45;&gt;Node0x55882e74d6f8 -->
<g id="edge5" class="edge">
<title>Node0x55882e74cac8&#45;&gt;Node0x55882e74d6f8</title>
<path fill="none" stroke="black" d="M1039.12,-122.55C1048.37,-122.12 1057.75,-121.69 1067.14,-121.25"/>
<polygon fill="black" stroke="black" points="1067.51,-124.74 1077.34,-120.78 1067.18,-117.74 1067.51,-124.74"/>
</g>
<!-- Node0x55882e74c168 -->
<g id="node7" class="node">
<title>Node0x55882e74c168</title>
<polygon fill="none" stroke="black" points="1415,-185.04 1075,-185.04 1075,-149.04 1415,-149.04 1415,-185.04"/>
<text text-anchor="middle" x="1245" y="-163.34" font-family="Times,serif" font-size="14.00">{lib/libLLVMJITLink.a(MachO_x86_64.cpp.o)}</text>
</g>
<!-- Node0x55882e74cac8&#45;&gt;Node0x55882e74c168 -->
<g id="edge6" class="edge">
<title>Node0x55882e74cac8&#45;&gt;Node0x55882e74c168</title>
<path fill="none" stroke="black" d="M1039.12,-144.44C1049.51,-145.58 1060.07,-146.75 1070.62,-147.91"/>
<polygon fill="black" stroke="black" points="1070.42,-151.41 1080.74,-149.03 1071.19,-144.45 1070.42,-151.41"/>
</g>
<!-- Node0x55882e74b038&#45;&gt;Node0x55882e73feb8 -->
<g id="edge7" class="edge">
<title>Node0x55882e74b038&#45;&gt;Node0x55882e73feb8</title>
<path fill="none" stroke="black" d="M768.76,-246.91C737.27,-242.55 704.17,-237.58 674.73,-232.77"/>
<polygon fill="black" stroke="black" points="674.92,-229.25 664.48,-231.08 673.78,-236.16 674.92,-229.25"/>
</g>
<!-- Node0x55882e74a8b8 -->
<g id="node8" class="node">
<title>Node0x55882e74a8b8</title>
<polygon fill="none" stroke="black" points="1404.5,-315.04 1085.5,-315.04 1085.5,-279.04 1404.5,-279.04 1404.5,-315.04"/>
<text text-anchor="middle" x="1245" y="-293.34" font-family="Times,serif" font-size="14.00">{lib/libLLVMJITLink.a(ELF_x86_64.cpp.o)}</text>
</g>
<!-- Node0x55882e74b038&#45;&gt;Node0x55882e74a8b8 -->
<g id="edge8" class="edge">
<title>Node0x55882e74b038&#45;&gt;Node0x55882e74a8b8</title>
<path fill="none" stroke="black" d="M1028.27,-273.24C1043.55,-274.93 1059.33,-276.67 1075.07,-278.4"/>
<polygon fill="black" stroke="black" points="1075.07,-281.92 1085.4,-279.54 1075.84,-274.97 1075.07,-281.92"/>
</g>
<!-- Node0x55882e74d6f8&#45;&gt;Node0x55882e73feb8 -->
<g id="edge9" class="edge">
<title>Node0x55882e74d6f8&#45;&gt;Node0x55882e73feb8</title>
<path fill="none" stroke="black" d="M1152.79,-94.98C1053.52,-78.98 891.17,-63.55 758,-102.04 699.93,-118.82 642.59,-161.08 609.82,-188.35"/>
<polygon fill="black" stroke="black" points="607.41,-185.8 602.04,-194.93 611.93,-191.15 607.41,-185.8"/>
</g>
<!-- Node0x55882e74bc68 -->
<g id="node9" class="node">
<title>Node0x55882e74bc68</title>
<polygon fill="none" stroke="black" points="1859,-131.04 1451,-131.04 1451,-95.04 1859,-95.04 1859,-131.04"/>
<text text-anchor="middle" x="1655" y="-109.34" font-family="Times,serif" font-size="14.00">{lib/libLLVMJITLink.a(MachOLinkGraphBuilder.cpp.o)}</text>
</g>
<!-- Node0x55882e74d6f8&#45;&gt;Node0x55882e74bc68 -->
<g id="edge10" class="edge">
<title>Node0x55882e74d6f8&#45;&gt;Node0x55882e74bc68</title>
<path fill="none" stroke="black" d="M1412.54,-113.04C1421.84,-113.04 1431.25,-113.04 1440.69,-113.04"/>
<polygon fill="black" stroke="black" points="1440.94,-116.54 1450.94,-113.04 1440.94,-109.54 1440.94,-116.54"/>
</g>
<!-- Node0x55882e74b4e8 -->
<g id="node10" class="node">
<title>Node0x55882e74b4e8</title>
<polygon fill="none" stroke="black" points="1824,-211.04 1486,-211.04 1486,-175.04 1824,-175.04 1824,-211.04"/>
<text text-anchor="middle" x="1655" y="-189.34" font-family="Times,serif" font-size="14.00">{lib/libLLVMJITLink.a(JITLinkGeneric.cpp.o)}</text>
</g>
<!-- Node0x55882e74d6f8&#45;&gt;Node0x55882e74b4e8 -->
<g id="edge11" class="edge">
<title>Node0x55882e74d6f8&#45;&gt;Node0x55882e74b4e8</title>
<path fill="none" stroke="black" d="M1364.81,-131.1C1381.68,-133.93 1398.8,-136.95 1415,-140.04 1466.05,-149.76 1522.86,-162.29 1568.28,-172.72"/>
<polygon fill="black" stroke="black" points="1567.56,-176.15 1578.09,-174.98 1569.13,-169.33 1567.56,-176.15"/>
</g>
<!-- Node0x55882e74c168&#45;&gt;Node0x55882e73de38 -->
<g id="edge12" class="edge">
<title>Node0x55882e74c168&#45;&gt;Node0x55882e73de38</title>
<path fill="none" stroke="black" d="M1094.72,-148.9C1087.92,-146.3 1081.31,-143.36 1075,-140.04 1054.42,-129.18 1060.37,-111.23 1039,-102.04 777.49,10.45 683.91,-134.16 404,-186.04 389.87,-188.66 375.13,-191.13 360.34,-193.43"/>
<polygon fill="black" stroke="black" points="359.45,-190.02 350.1,-195 360.51,-196.94 359.45,-190.02"/>
</g>
<!-- Node0x55882e74c168&#45;&gt;Node0x55882e73feb8 -->
<g id="edge13" class="edge">
<title>Node0x55882e74c168&#45;&gt;Node0x55882e73feb8</title>
<path fill="none" stroke="black" d="M1074.99,-177.6C981.52,-183.58 863.31,-191.38 758,-199.04 749.65,-199.64 741.08,-200.28 732.43,-200.93"/>
<polygon fill="black" stroke="black" points="731.95,-197.46 722.24,-201.71 732.48,-204.44 731.95,-197.46"/>
</g>
<!-- Node0x55882e74c168&#45;&gt;Node0x55882e74bc68 -->
<g id="edge14" class="edge">
<title>Node0x55882e74c168&#45;&gt;Node0x55882e74bc68</title>
<path fill="none" stroke="black" d="M1382.14,-149.02C1422.5,-143.68 1466.85,-137.81 1507.81,-132.38"/>
<polygon fill="black" stroke="black" points="1508.42,-135.83 1517.87,-131.05 1507.5,-128.9 1508.42,-135.83"/>
</g>
<!-- Node0x55882e74c168&#45;&gt;Node0x55882e74b4e8 -->
<g id="edge15" class="edge">
<title>Node0x55882e74c168&#45;&gt;Node0x55882e74b4e8</title>
<path fill="none" stroke="black" d="M1415.19,-177.82C1435.15,-179.09 1455.57,-180.39 1475.65,-181.67"/>
<polygon fill="black" stroke="black" points="1475.59,-185.17 1485.79,-182.32 1476.04,-178.19 1475.59,-185.17"/>
</g>
<!-- Node0x55882e74a458 -->
<g id="node11" class="node">
<title>Node0x55882e74a458</title>
<polygon fill="none" stroke="black" points="1796.5,-276.04 1513.5,-276.04 1513.5,-240.04 1796.5,-240.04 1796.5,-276.04"/>
<text text-anchor="middle" x="1655" y="-254.34" font-family="Times,serif" font-size="14.00">{lib/libLLVMJITLink.a(x86_64.cpp.o)}</text>
</g>
<!-- Node0x55882e74c168&#45;&gt;Node0x55882e74a458 -->
<g id="edge16" class="edge">
<title>Node0x55882e74c168&#45;&gt;Node0x55882e74a458</title>
<path fill="none" stroke="black" d="M1311.28,-185.12C1351.42,-195.94 1403.99,-209.57 1451,-220.04 1479.72,-226.43 1510.9,-232.63 1539.99,-238.1"/>
<polygon fill="black" stroke="black" points="1539.72,-241.61 1550.19,-240.01 1541,-234.73 1539.72,-241.61"/>
</g>
<!-- Node0x55882e74a8b8&#45;&gt;Node0x55882e73de38 -->
<g id="edge20" class="edge">
<title>Node0x55882e74a8b8&#45;&gt;Node0x55882e73de38</title>
<path fill="none" stroke="black" d="M1085.41,-308.94C1069.74,-309.8 1054.06,-310.52 1039,-311.04 914.18,-315.29 882.41,-321.94 758,-311.04 590.93,-296.4 398.79,-257.43 290.04,-233.27"/>
<polygon fill="black" stroke="black" points="290.62,-229.82 280.1,-231.06 289.1,-236.65 290.62,-229.82"/>
</g>
<!-- Node0x55882e74a8b8&#45;&gt;Node0x55882e73feb8 -->
<g id="edge21" class="edge">
<title>Node0x55882e74a8b8&#45;&gt;Node0x55882e73feb8</title>
<path fill="none" stroke="black" d="M1085.27,-308.1C989.48,-311.17 865.56,-308.73 758,-286.04 710.16,-275.94 658.9,-253.17 624.11,-235.73"/>
<polygon fill="black" stroke="black" points="625.69,-232.61 615.19,-231.19 622.52,-238.85 625.69,-232.61"/>
</g>
<!-- Node0x55882e74a8b8&#45;&gt;Node0x55882e74b4e8 -->
<g id="edge22" class="edge">
<title>Node0x55882e74a8b8&#45;&gt;Node0x55882e74b4e8</title>
<path fill="none" stroke="black" d="M1296.03,-278.97C1337.22,-264.57 1397.36,-244.63 1451,-231.04 1477.54,-224.31 1506.32,-218.21 1533.63,-212.97"/>
<polygon fill="black" stroke="black" points="1534.44,-216.38 1543.61,-211.08 1533.14,-209.5 1534.44,-216.38"/>
</g>
<!-- Node0x55882e748e28 -->
<g id="node12" class="node">
<title>Node0x55882e748e28</title>
<polygon fill="none" stroke="black" points="1848.5,-335.04 1461.5,-335.04 1461.5,-299.04 1848.5,-299.04 1848.5,-335.04"/>
<text text-anchor="middle" x="1655" y="-313.34" font-family="Times,serif" font-size="14.00">{lib/libLLVMJITLink.a(ELFLinkGraphBuilder.cpp.o)}</text>
</g>
<!-- Node0x55882e74a8b8&#45;&gt;Node0x55882e748e28 -->
<g id="edge23" class="edge">
<title>Node0x55882e74a8b8&#45;&gt;Node0x55882e748e28</title>
<path fill="none" stroke="black" d="M1404.62,-304.81C1419.86,-305.56 1435.46,-306.32 1451.05,-307.09"/>
<polygon fill="black" stroke="black" points="1451.13,-310.6 1461.29,-307.59 1451.47,-303.6 1451.13,-310.6"/>
</g>
<!-- Node0x55882e74bc68&#45;&gt;Node0x55882e73feb8 -->
<g id="edge17" class="edge">
<title>Node0x55882e74bc68&#45;&gt;Node0x55882e73feb8</title>
<path fill="none" stroke="black" d="M1592.24,-94.98C1443.53,-54.72 1055.87,30.99 758,-73.04 693.16,-95.68 634.33,-153.3 603.87,-187.14"/>
<polygon fill="black" stroke="black" points="601.1,-184.99 597.1,-194.79 606.35,-189.62 601.1,-184.99"/>
</g>
<!-- Node0x55882e74b4e8&#45;&gt;Node0x55882e73feb8 -->
<g id="edge18" class="edge">
<title>Node0x55882e74b4e8&#45;&gt;Node0x55882e73feb8</title>
<path fill="none" stroke="black" d="M1485.58,-196.18C1278.64,-200.04 930.66,-206.53 732.35,-210.23"/>
<polygon fill="black" stroke="black" points="732.08,-206.73 722.15,-210.42 732.21,-213.73 732.08,-206.73"/>
</g>
<!-- Node0x55882e74a458&#45;&gt;Node0x55882e73feb8 -->
<g id="edge19" class="edge">
<title>Node0x55882e74a458&#45;&gt;Node0x55882e73feb8</title>
<path fill="none" stroke="black" d="M1513.28,-268.93C1491.75,-273.77 1470.29,-280.56 1451,-290.04 1431.25,-299.74 1435.45,-315.9 1415,-324.04 1143.61,-431.94 1039.12,-390.21 758,-311.04 703.77,-295.76 648.09,-260.9 614.27,-237.15"/>
<polygon fill="black" stroke="black" points="615.91,-234.03 605.74,-231.08 611.85,-239.73 615.91,-234.03"/>
</g>
<!-- Node0x55882e748e28&#45;&gt;Node0x55882e73feb8 -->
<g id="edge24" class="edge">
<title>Node0x55882e748e28&#45;&gt;Node0x55882e73feb8</title>
<path fill="none" stroke="black" d="M1596.48,-335.05C1450.48,-377.57 1056,-472.43 758,-359.04 692.39,-334.07 633.45,-273.94 603.26,-239.13"/>
<polygon fill="black" stroke="black" points="605.72,-236.62 596.57,-231.28 600.39,-241.16 605.72,-236.62"/>
</g>
</g>
</svg>
