<?xml version="1.0" encoding="UTF-8" standalone="no"?>
<!DOCTYPE svg PUBLIC "-//W3C//DTD SVG 1.1//EN"
 "http://www.w3.org/Graphics/SVG/1.1/DTD/svg11.dtd">
<!-- Generated by graphviz version 2.43.0 (0)
 -->
<!-- Title: bin/llvm&#45;bcanalyzer Pages: 1 -->
<svg width="1101pt" height="121pt"
 viewBox="0.00 0.00 1101.00 121.00" xmlns="http://www.w3.org/2000/svg" xmlns:xlink="http://www.w3.org/1999/xlink">
<g id="graph0" class="graph" transform="scale(1 1) rotate(0) translate(4 117)">
<title>bin/llvm&#45;bcanalyzer</title>
<polygon fill="white" stroke="transparent" points="-4,4 -4,-117 1097,-117 1097,4 -4,4"/>
<text text-anchor="middle" x="546.5" y="-7.8" font-family="Times,serif" font-size="14.00">bin/llvm&#45;bcanalyzer</text>
<!-- Node0x55cf4d206a78 -->
<g id="node1" class="node">
<title>Node0x55cf4d206a78</title>
<polygon fill="#7fb2ff" stroke="black" points="573,-113 0,-113 0,-77 573,-77 573,-113"/>
<text text-anchor="middle" x="286.5" y="-91.3" font-family="Times,serif" font-size="14.00">{tools/llvm&#45;bcanalyzer/CMakeFiles/llvm&#45;bcanalyzer.dir/llvm&#45;bcanalyzer.cpp.o}</text>
</g>
<!-- Node0x55cf4d2071f8 -->
<g id="node2" class="node">
<title>Node0x55cf4d2071f8</title>
<polygon fill="#7fb2ff" stroke="black" points="808,-59 609,-59 609,-23 808,-23 808,-59"/>
<text text-anchor="middle" x="708.5" y="-37.3" font-family="Times,serif" font-size="14.00">{lib/libLLVMBitReader.a}</text>
</g>
<!-- Node0x55cf4d206a78&#45;&gt;Node0x55cf4d2071f8 -->
<g id="edge1" class="edge">
<title>Node0x55cf4d206a78&#45;&gt;Node0x55cf4d2071f8</title>
<path fill="none" stroke="#7fb2ff" d="M427.65,-76.98C483.45,-69.81 546.68,-61.68 598.9,-54.96"/>
<polygon fill="#7fb2ff" stroke="#7fb2ff" points="599.38,-58.43 608.85,-53.68 598.49,-51.49 599.38,-58.43"/>
</g>
<!-- Node0x55cf4d206898 -->
<g id="node3" class="node">
<title>Node0x55cf4d206898</title>
<polygon fill="#7fb2ff" stroke="black" points="801.5,-113 615.5,-113 615.5,-77 801.5,-77 801.5,-113"/>
<text text-anchor="middle" x="708.5" y="-91.3" font-family="Times,serif" font-size="14.00">{lib/libLLVMSupport.a}</text>
</g>
<!-- Node0x55cf4d206a78&#45;&gt;Node0x55cf4d206898 -->
<g id="edge2" class="edge">
<title>Node0x55cf4d206a78&#45;&gt;Node0x55cf4d206898</title>
<path fill="none" stroke="#7fb2ff" d="M573.17,-88.66C584.19,-88.78 594.89,-88.93 605.12,-89.11"/>
<polygon fill="#7fb2ff" stroke="#7fb2ff" points="605.13,-92.61 615.2,-89.3 605.26,-85.61 605.13,-92.61"/>
</g>
<!-- Node0x55cf4d2071f8&#45;&gt;Node0x55cf4d206898 -->
<g id="edge4" class="edge">
<title>Node0x55cf4d2071f8&#45;&gt;Node0x55cf4d206898</title>
<path fill="none" stroke="#7fb2ff" d="M775.09,-59.14C781.59,-62.73 784.15,-66.31 782.76,-69.9"/>
<polygon fill="#7fb2ff" stroke="#7fb2ff" points="780.23,-67.46 775.22,-76.79 784.96,-72.63 780.23,-67.46"/>
</g>
<!-- Node0x55cf4d206348 -->
<g id="node4" class="node">
<title>Node0x55cf4d206348</title>
<polygon fill="#7fb2ff" stroke="black" points="1093,-86 844,-86 844,-50 1093,-50 1093,-86"/>
<text text-anchor="middle" x="968.5" y="-64.3" font-family="Times,serif" font-size="14.00">{lib/libLLVMBitstreamReader.a}</text>
</g>
<!-- Node0x55cf4d2071f8&#45;&gt;Node0x55cf4d206348 -->
<g id="edge3" class="edge">
<title>Node0x55cf4d2071f8&#45;&gt;Node0x55cf4d206348</title>
<path fill="none" stroke="#7fb2ff" d="M808.14,-44.74C821.41,-45.98 835.12,-47.37 848.69,-48.84"/>
<polygon fill="#7fb2ff" stroke="#7fb2ff" points="848.7,-52.36 859.02,-49.97 849.47,-45.4 848.7,-52.36"/>
</g>
<!-- Node0x55cf4d206898&#45;&gt;Node0x55cf4d206a78 -->
<g id="edge5" class="edge">
<title>Node0x55cf4d206898&#45;&gt;Node0x55cf4d206a78</title>
<path fill="none" stroke="#7fb2ff" d="M615.2,-100.7C605.08,-100.9 594.43,-101.08 583.4,-101.22"/>
<polygon fill="#7fb2ff" stroke="#7fb2ff" points="583.12,-97.72 573.17,-101.34 583.21,-104.72 583.12,-97.72"/>
</g>
<!-- Node0x55cf4d206898&#45;&gt;Node0x55cf4d2071f8 -->
<g id="edge6" class="edge">
<title>Node0x55cf4d206898&#45;&gt;Node0x55cf4d2071f8</title>
<path fill="none" stroke="#7fb2ff" d="M641.78,-76.79C635.17,-73.11 632.7,-69.44 634.39,-65.76"/>
<polygon fill="#7fb2ff" stroke="#7fb2ff" points="636.71,-68.37 641.91,-59.14 632.09,-63.12 636.71,-68.37"/>
</g>
<!-- Node0x55cf4d206898&#45;&gt;Node0x55cf4d206348 -->
<g id="edge7" class="edge">
<title>Node0x55cf4d206898&#45;&gt;Node0x55cf4d206348</title>
<path fill="none" stroke="#7fb2ff" d="M801.55,-78.87C812.08,-77.62 822.96,-76.4 833.89,-75.24"/>
<polygon fill="#7fb2ff" stroke="#7fb2ff" points="834.35,-78.71 843.93,-74.19 833.62,-71.75 834.35,-78.71"/>
</g>
<!-- Node0x55cf4d206348&#45;&gt;Node0x55cf4d2071f8 -->
<g id="edge8" class="edge">
<title>Node0x55cf4d206348&#45;&gt;Node0x55cf4d2071f8</title>
<path fill="none" stroke="#7fb2ff" d="M843.78,-61.8C835.28,-60.92 826.75,-60.01 818.34,-59.07"/>
<polygon fill="#7fb2ff" stroke="#7fb2ff" points="818.48,-55.56 808.14,-57.9 817.68,-62.51 818.48,-55.56"/>
</g>
<!-- Node0x55cf4d206348&#45;&gt;Node0x55cf4d206898 -->
<g id="edge9" class="edge">
<title>Node0x55cf4d206348&#45;&gt;Node0x55cf4d206898</title>
<path fill="none" stroke="#7fb2ff" d="M859.19,-86.01C843.46,-87.77 827.31,-89.44 811.71,-90.92"/>
<polygon fill="#7fb2ff" stroke="#7fb2ff" points="811.19,-87.46 801.55,-91.86 811.83,-94.43 811.19,-87.46"/>
</g>
</g>
</svg>
