<?xml version="1.0" encoding="UTF-8" standalone="no"?>
<!DOCTYPE svg PUBLIC "-//W3C//DTD SVG 1.1//EN"
 "http://www.w3.org/Graphics/SVG/1.1/DTD/svg11.dtd">
<!-- Generated by graphviz version 2.43.0 (0)
 -->
<!-- Title: bin/llvm&#45;extract_lib/libLLVMBitWriter.a Pages: 1 -->
<svg width="1175pt" height="67pt"
 viewBox="0.00 0.00 1175.00 67.00" xmlns="http://www.w3.org/2000/svg" xmlns:xlink="http://www.w3.org/1999/xlink">
<g id="graph0" class="graph" transform="scale(1 1) rotate(0) translate(4 63)">
<title>bin/llvm&#45;extract_lib/libLLVMBitWriter.a</title>
<polygon fill="white" stroke="transparent" points="-4,4 -4,-63 1171,-63 1171,4 -4,4"/>
<text text-anchor="middle" x="583.5" y="-7.8" font-family="Times,serif" font-size="14.00">bin/llvm&#45;extract_lib/libLLVMBitWriter.a</text>
<!-- Node0x56499622a898 -->
<g id="node1" class="node">
<title>Node0x56499622a898</title>
<polygon fill="none" stroke="black" points="379,-59 0,-59 0,-23 379,-23 379,-59"/>
<text text-anchor="middle" x="189.5" y="-37.3" font-family="Times,serif" font-size="14.00">{lib/libLLVMBitWriter.a(BitcodeWriterPass.cpp.o)}</text>
</g>
<!-- Node0x564996231738 -->
<g id="node2" class="node">
<title>Node0x564996231738</title>
<polygon fill="#7fb2ff" stroke="black" points="760,-59 415,-59 415,-23 760,-23 760,-59"/>
<text text-anchor="middle" x="587.5" y="-37.3" font-family="Times,serif" font-size="14.00">{lib/libLLVMBitWriter.a(BitcodeWriter.cpp.o)}</text>
</g>
<!-- Node0x56499622a898&#45;&gt;Node0x564996231738 -->
<g id="edge1" class="edge">
<title>Node0x56499622a898&#45;&gt;Node0x564996231738</title>
<path fill="none" stroke="black" d="M379.22,-41C387.65,-41 396.1,-41 404.51,-41"/>
<polygon fill="black" stroke="black" points="404.74,-44.5 414.74,-41 404.74,-37.5 404.74,-44.5"/>
</g>
<!-- Node0x564996231968 -->
<g id="node3" class="node">
<title>Node0x564996231968</title>
<polygon fill="#7fb2ff" stroke="black" points="1167,-59 796,-59 796,-23 1167,-23 1167,-59"/>
<text text-anchor="middle" x="981.5" y="-37.3" font-family="Times,serif" font-size="14.00">{lib/libLLVMBitWriter.a(ValueEnumerator.cpp.o)}</text>
</g>
<!-- Node0x564996231738&#45;&gt;Node0x564996231968 -->
<g id="edge2" class="edge">
<title>Node0x564996231738&#45;&gt;Node0x564996231968</title>
<path fill="none" stroke="#7fb2ff" d="M760.15,-34.3C768.66,-34.26 777.23,-34.25 785.8,-34.25"/>
<polygon fill="#7fb2ff" stroke="#7fb2ff" points="785.84,-37.75 795.85,-34.26 785.85,-30.75 785.84,-37.75"/>
</g>
<!-- Node0x564996231968&#45;&gt;Node0x564996231738 -->
<g id="edge3" class="edge">
<title>Node0x564996231968&#45;&gt;Node0x564996231738</title>
<path fill="none" stroke="#7fb2ff" d="M795.85,-47.74C787.29,-47.76 778.71,-47.75 770.16,-47.73"/>
<polygon fill="#7fb2ff" stroke="#7fb2ff" points="770.16,-44.23 760.15,-47.7 770.14,-51.23 770.16,-44.23"/>
</g>
</g>
</svg>
