<?xml version="1.0" encoding="UTF-8" standalone="no"?>
<!DOCTYPE svg PUBLIC "-//W3C//DTD SVG 1.1//EN"
 "http://www.w3.org/Graphics/SVG/1.1/DTD/svg11.dtd">
<!-- Generated by graphviz version 2.43.0 (0)
 -->
<!-- Title: bin/dsymutil_lib/libLLVMX86Desc.a Pages: 1 -->
<svg width="1346pt" height="391pt"
 viewBox="0.00 0.00 1346.00 391.00" xmlns="http://www.w3.org/2000/svg" xmlns:xlink="http://www.w3.org/1999/xlink">
<g id="graph0" class="graph" transform="scale(1 1) rotate(0) translate(4 387)">
<title>bin/dsymutil_lib/libLLVMX86Desc.a</title>
<polygon fill="white" stroke="transparent" points="-4,4 -4,-387 1342,-387 1342,4 -4,4"/>
<text text-anchor="middle" x="669" y="-7.8" font-family="Times,serif" font-size="14.00">bin/dsymutil_lib/libLLVMX86Desc.a</text>
<!-- Node0x55fdd26d8a28 -->
<g id="node1" class="node">
<title>Node0x55fdd26d8a28</title>
<polygon fill="#7fb2ff" stroke="black" points="379.5,-167 2.5,-167 2.5,-131 379.5,-131 379.5,-167"/>
<text text-anchor="middle" x="191" y="-145.3" font-family="Times,serif" font-size="14.00">{lib/libLLVMX86Desc.a(X86MCTargetDesc.cpp.o)}</text>
</g>
<!-- Node0x55fdd26d7d08 -->
<g id="node2" class="node">
<title>Node0x55fdd26d7d08</title>
<polygon fill="none" stroke="black" points="826,-275 463,-275 463,-239 826,-239 826,-275"/>
<text text-anchor="middle" x="644.5" y="-253.3" font-family="Times,serif" font-size="14.00">{lib/libLLVMX86Desc.a(X86AsmBackend.cpp.o)}</text>
</g>
<!-- Node0x55fdd26d8a28&#45;&gt;Node0x55fdd26d7d08 -->
<g id="edge1" class="edge">
<title>Node0x55fdd26d8a28&#45;&gt;Node0x55fdd26d7d08</title>
<path fill="none" stroke="black" d="M233.63,-167.13C278.33,-185.83 351.88,-214.4 418,-230 429.32,-232.67 441.02,-235.08 452.87,-237.26"/>
<polygon fill="black" stroke="black" points="452.39,-240.73 462.85,-239.04 453.62,-233.84 452.39,-240.73"/>
</g>
<!-- Node0x55fdd26c3358 -->
<g id="node3" class="node">
<title>Node0x55fdd26c3358</title>
<polygon fill="none" stroke="black" points="822,-221 467,-221 467,-185 822,-185 822,-221"/>
<text text-anchor="middle" x="644.5" y="-199.3" font-family="Times,serif" font-size="14.00">{lib/libLLVMX86Desc.a(X86MCAsmInfo.cpp.o)}</text>
</g>
<!-- Node0x55fdd26d8a28&#45;&gt;Node0x55fdd26c3358 -->
<g id="edge2" class="edge">
<title>Node0x55fdd26d8a28&#45;&gt;Node0x55fdd26c3358</title>
<path fill="none" stroke="black" d="M342.66,-167.02C387.69,-172.4 437.23,-178.33 482.88,-183.79"/>
<polygon fill="black" stroke="black" points="482.51,-187.27 492.86,-184.98 483.34,-180.32 482.51,-187.27"/>
</g>
<!-- Node0x55fdd26bfa28 -->
<g id="node4" class="node">
<title>Node0x55fdd26bfa28</title>
<polygon fill="#7fb2ff" stroke="black" points="837.5,-167 451.5,-167 451.5,-131 837.5,-131 837.5,-167"/>
<text text-anchor="middle" x="644.5" y="-145.3" font-family="Times,serif" font-size="14.00">{lib/libLLVMX86Desc.a(X86MCCodeEmitter.cpp.o)}</text>
</g>
<!-- Node0x55fdd26d8a28&#45;&gt;Node0x55fdd26bfa28 -->
<g id="edge3" class="edge">
<title>Node0x55fdd26d8a28&#45;&gt;Node0x55fdd26bfa28</title>
<path fill="none" stroke="#7fb2ff" d="M379.55,-142.34C399.96,-142.24 420.79,-142.23 441.36,-142.28"/>
<polygon fill="#7fb2ff" stroke="#7fb2ff" points="441.42,-145.78 451.44,-142.32 441.45,-138.78 441.42,-145.78"/>
</g>
<!-- Node0x55fdd26c0518 -->
<g id="node5" class="node">
<title>Node0x55fdd26c0518</title>
<polygon fill="none" stroke="black" points="848,-113 441,-113 441,-77 848,-77 848,-113"/>
<text text-anchor="middle" x="644.5" y="-91.3" font-family="Times,serif" font-size="14.00">{lib/libLLVMX86Desc.a(X86WinCOFFStreamer.cpp.o)}</text>
</g>
<!-- Node0x55fdd26d8a28&#45;&gt;Node0x55fdd26c0518 -->
<g id="edge4" class="edge">
<title>Node0x55fdd26d8a28&#45;&gt;Node0x55fdd26c0518</title>
<path fill="none" stroke="black" d="M342.66,-130.98C387.69,-125.6 437.23,-119.67 482.88,-114.21"/>
<polygon fill="black" stroke="black" points="483.34,-117.68 492.86,-113.02 482.51,-110.73 483.34,-117.68"/>
</g>
<!-- Node0x55fdd26bd5e8 -->
<g id="node6" class="node">
<title>Node0x55fdd26bd5e8</title>
<polygon fill="none" stroke="black" points="871,-59 418,-59 418,-23 871,-23 871,-59"/>
<text text-anchor="middle" x="644.5" y="-37.3" font-family="Times,serif" font-size="14.00">{lib/libLLVMX86Desc.a(X86WinCOFFTargetStreamer.cpp.o)}</text>
</g>
<!-- Node0x55fdd26d8a28&#45;&gt;Node0x55fdd26bd5e8 -->
<g id="edge5" class="edge">
<title>Node0x55fdd26d8a28&#45;&gt;Node0x55fdd26bd5e8</title>
<path fill="none" stroke="black" d="M233.63,-130.87C278.33,-112.17 351.88,-83.6 418,-68 429.24,-65.35 440.87,-62.95 452.63,-60.78"/>
<polygon fill="black" stroke="black" points="453.32,-64.21 462.55,-59.01 452.09,-57.32 453.32,-64.21"/>
</g>
<!-- Node0x55fdd26bf2f8 -->
<g id="node11" class="node">
<title>Node0x55fdd26bf2f8</title>
<polygon fill="none" stroke="black" points="1323,-329 922,-329 922,-293 1323,-293 1323,-329"/>
<text text-anchor="middle" x="1122.5" y="-307.3" font-family="Times,serif" font-size="14.00">{lib/libLLVMX86Desc.a(X86MachObjectWriter.cpp.o)}</text>
</g>
<!-- Node0x55fdd26d7d08&#45;&gt;Node0x55fdd26bf2f8 -->
<g id="edge10" class="edge">
<title>Node0x55fdd26d7d08&#45;&gt;Node0x55fdd26bf2f8</title>
<path fill="none" stroke="black" d="M804.33,-275.02C851.91,-280.42 904.25,-286.35 952.46,-291.82"/>
<polygon fill="black" stroke="black" points="952.35,-295.33 962.68,-292.98 953.14,-288.38 952.35,-295.33"/>
</g>
<!-- Node0x55fdd26bf578 -->
<g id="node12" class="node">
<title>Node0x55fdd26bf578</title>
<polygon fill="none" stroke="black" points="1318.5,-275 926.5,-275 926.5,-239 1318.5,-239 1318.5,-275"/>
<text text-anchor="middle" x="1122.5" y="-253.3" font-family="Times,serif" font-size="14.00">{lib/libLLVMX86Desc.a(X86ELFObjectWriter.cpp.o)}</text>
</g>
<!-- Node0x55fdd26d7d08&#45;&gt;Node0x55fdd26bf578 -->
<g id="edge11" class="edge">
<title>Node0x55fdd26d7d08&#45;&gt;Node0x55fdd26bf578</title>
<path fill="none" stroke="black" d="M826.13,-257C855.55,-257 886.21,-257 916.17,-257"/>
<polygon fill="black" stroke="black" points="916.3,-260.5 926.3,-257 916.3,-253.5 916.3,-260.5"/>
</g>
<!-- Node0x55fdd26c1648 -->
<g id="node13" class="node">
<title>Node0x55fdd26c1648</title>
<polygon fill="none" stroke="black" points="1338,-221 907,-221 907,-185 1338,-185 1338,-221"/>
<text text-anchor="middle" x="1122.5" y="-199.3" font-family="Times,serif" font-size="14.00">{lib/libLLVMX86Desc.a(X86WinCOFFObjectWriter.cpp.o)}</text>
</g>
<!-- Node0x55fdd26d7d08&#45;&gt;Node0x55fdd26c1648 -->
<g id="edge12" class="edge">
<title>Node0x55fdd26d7d08&#45;&gt;Node0x55fdd26c1648</title>
<path fill="none" stroke="black" d="M804.33,-238.98C851.91,-233.58 904.25,-227.65 952.46,-222.18"/>
<polygon fill="black" stroke="black" points="953.14,-225.62 962.68,-221.02 952.35,-218.67 953.14,-225.62"/>
</g>
<!-- Node0x55fdd26bfa28&#45;&gt;Node0x55fdd26d8a28 -->
<g id="edge13" class="edge">
<title>Node0x55fdd26bfa28&#45;&gt;Node0x55fdd26d8a28</title>
<path fill="none" stroke="#7fb2ff" d="M451.44,-155.68C430.97,-155.77 410.13,-155.77 389.6,-155.7"/>
<polygon fill="#7fb2ff" stroke="#7fb2ff" points="389.57,-152.2 379.55,-155.66 389.54,-159.2 389.57,-152.2"/>
</g>
<!-- Node0x55fdd26c7138 -->
<g id="node7" class="node">
<title>Node0x55fdd26c7138</title>
<polygon fill="none" stroke="black" points="379.5,-383 2.5,-383 2.5,-347 379.5,-347 379.5,-383"/>
<text text-anchor="middle" x="191" y="-361.3" font-family="Times,serif" font-size="14.00">{lib/libLLVMX86Desc.a(X86ATTInstPrinter.cpp.o)}</text>
</g>
<!-- Node0x55fdd26da648 -->
<g id="node8" class="node">
<title>Node0x55fdd26da648</title>
<polygon fill="none" stroke="black" points="832.5,-383 456.5,-383 456.5,-347 832.5,-347 832.5,-383"/>
<text text-anchor="middle" x="644.5" y="-361.3" font-family="Times,serif" font-size="14.00">{lib/libLLVMX86Desc.a(X86InstComments.cpp.o)}</text>
</g>
<!-- Node0x55fdd26c7138&#45;&gt;Node0x55fdd26da648 -->
<g id="edge6" class="edge">
<title>Node0x55fdd26c7138&#45;&gt;Node0x55fdd26da648</title>
<path fill="none" stroke="black" d="M379.55,-358.34C401.51,-358.24 423.96,-358.22 446.05,-358.3"/>
<polygon fill="black" stroke="black" points="446.15,-361.8 456.17,-358.34 446.18,-354.8 446.15,-361.8"/>
</g>
<!-- Node0x55fdd26d9a18 -->
<g id="node9" class="node">
<title>Node0x55fdd26d9a18</title>
<polygon fill="none" stroke="black" points="851,-329 438,-329 438,-293 851,-293 851,-329"/>
<text text-anchor="middle" x="644.5" y="-307.3" font-family="Times,serif" font-size="14.00">{lib/libLLVMX86Desc.a(X86InstPrinterCommon.cpp.o)}</text>
</g>
<!-- Node0x55fdd26c7138&#45;&gt;Node0x55fdd26d9a18 -->
<g id="edge7" class="edge">
<title>Node0x55fdd26c7138&#45;&gt;Node0x55fdd26d9a18</title>
<path fill="none" stroke="black" d="M342.66,-346.98C387.69,-341.6 437.23,-335.67 482.88,-330.21"/>
<polygon fill="black" stroke="black" points="483.34,-333.68 492.86,-329.02 482.51,-326.73 483.34,-333.68"/>
</g>
<!-- Node0x55fdd26da648&#45;&gt;Node0x55fdd26c7138 -->
<g id="edge8" class="edge">
<title>Node0x55fdd26da648&#45;&gt;Node0x55fdd26c7138</title>
<path fill="none" stroke="black" d="M456.17,-371.66C434.21,-371.76 411.76,-371.78 389.67,-371.7"/>
<polygon fill="black" stroke="black" points="389.57,-368.2 379.55,-371.66 389.54,-375.2 389.57,-368.2"/>
</g>
<!-- Node0x55fdd26d9798 -->
<g id="node10" class="node">
<title>Node0x55fdd26d9798</title>
<polygon fill="none" stroke="black" points="1309.5,-383 935.5,-383 935.5,-347 1309.5,-347 1309.5,-383"/>
<text text-anchor="middle" x="1122.5" y="-361.3" font-family="Times,serif" font-size="14.00">{lib/libLLVMX86Desc.a(X86ShuffleDecode.cpp.o)}</text>
</g>
<!-- Node0x55fdd26da648&#45;&gt;Node0x55fdd26d9798 -->
<g id="edge9" class="edge">
<title>Node0x55fdd26da648&#45;&gt;Node0x55fdd26d9798</title>
<path fill="none" stroke="black" d="M832.6,-365C862.89,-365 894.33,-365 924.83,-365"/>
<polygon fill="black" stroke="black" points="925.14,-368.5 935.14,-365 925.14,-361.5 925.14,-368.5"/>
</g>
<!-- Node0x55fdd26d87f8 -->
<g id="node14" class="node">
<title>Node0x55fdd26d87f8</title>
<polygon fill="none" stroke="black" points="382,-329 0,-329 0,-293 382,-293 382,-329"/>
<text text-anchor="middle" x="191" y="-307.3" font-family="Times,serif" font-size="14.00">{lib/libLLVMX86Desc.a(X86IntelInstPrinter.cpp.o)}</text>
</g>
<!-- Node0x55fdd26d87f8&#45;&gt;Node0x55fdd26da648 -->
<g id="edge14" class="edge">
<title>Node0x55fdd26d87f8&#45;&gt;Node0x55fdd26da648</title>
<path fill="none" stroke="black" d="M342.66,-329.02C387.69,-334.4 437.23,-340.33 482.88,-345.79"/>
<polygon fill="black" stroke="black" points="482.51,-349.27 492.86,-346.98 483.34,-342.32 482.51,-349.27"/>
</g>
<!-- Node0x55fdd26d87f8&#45;&gt;Node0x55fdd26d9a18 -->
<g id="edge15" class="edge">
<title>Node0x55fdd26d87f8&#45;&gt;Node0x55fdd26d9a18</title>
<path fill="none" stroke="black" d="M382.17,-311C397.29,-311 412.63,-311 427.91,-311"/>
<polygon fill="black" stroke="black" points="427.94,-314.5 437.94,-311 427.94,-307.5 427.94,-314.5"/>
</g>
</g>
</svg>
