<?xml version="1.0" encoding="UTF-8" standalone="no"?>
<!DOCTYPE svg PUBLIC "-//W3C//DTD SVG 1.1//EN"
 "http://www.w3.org/Graphics/SVG/1.1/DTD/svg11.dtd">
<!-- Generated by graphviz version 2.43.0 (0)
 -->
<!-- Title: bin/lli_lib/libLLVMTransformUtils.a Pages: 1 -->
<svg width="2383pt" height="673pt"
 viewBox="0.00 0.00 2383.00 673.00" xmlns="http://www.w3.org/2000/svg" xmlns:xlink="http://www.w3.org/1999/xlink">
<g id="graph0" class="graph" transform="scale(1 1) rotate(0) translate(4 669)">
<title>bin/lli_lib/libLLVMTransformUtils.a</title>
<polygon fill="white" stroke="transparent" points="-4,4 -4,-669 2379,-669 2379,4 -4,4"/>
<text text-anchor="middle" x="1187.5" y="-7.8" font-family="Times,serif" font-size="14.00">bin/lli_lib/libLLVMTransformUtils.a</text>
<!-- Node0x56347ee0aea8 -->
<g id="node1" class="node">
<title>Node0x56347ee0aea8</title>
<polygon fill="none" stroke="black" points="493,-449 8,-449 8,-413 493,-413 493,-449"/>
<text text-anchor="middle" x="250.5" y="-427.3" font-family="Times,serif" font-size="14.00">{lib/libLLVMTransformUtils.a(CanonicalizeFreezeInLoops.cpp.o)}</text>
</g>
<!-- Node0x56347ee0cf78 -->
<g id="node2" class="node">
<title>Node0x56347ee0cf78</title>
<polygon fill="#7fb2ff" stroke="black" points="951.5,-449 569.5,-449 569.5,-413 951.5,-413 951.5,-449"/>
<text text-anchor="middle" x="760.5" y="-427.3" font-family="Times,serif" font-size="14.00">{lib/libLLVMTransformUtils.a(LoopSimplify.cpp.o)}</text>
</g>
<!-- Node0x56347ee0aea8&#45;&gt;Node0x56347ee0cf78 -->
<g id="edge1" class="edge">
<title>Node0x56347ee0aea8&#45;&gt;Node0x56347ee0cf78</title>
<path fill="none" stroke="black" d="M493.23,-431C515.31,-431 537.51,-431 559.17,-431"/>
<polygon fill="black" stroke="black" points="559.42,-434.5 569.42,-431 559.42,-427.5 559.42,-434.5"/>
</g>
<!-- Node0x56347ee09c88 -->
<g id="node3" class="node">
<title>Node0x56347ee09c88</title>
<polygon fill="#7fb2ff" stroke="black" points="1435.5,-395 1033.5,-395 1033.5,-359 1435.5,-359 1435.5,-395"/>
<text text-anchor="middle" x="1234.5" y="-373.3" font-family="Times,serif" font-size="14.00">{lib/libLLVMTransformUtils.a(BasicBlockUtils.cpp.o)}</text>
</g>
<!-- Node0x56347ee0cf78&#45;&gt;Node0x56347ee09c88 -->
<g id="edge18" class="edge">
<title>Node0x56347ee0cf78&#45;&gt;Node0x56347ee09c88</title>
<path fill="none" stroke="#7fb2ff" d="M919,-412.98C966.18,-407.58 1018.08,-401.65 1065.88,-396.18"/>
<polygon fill="#7fb2ff" stroke="#7fb2ff" points="1066.48,-399.63 1076.02,-395.02 1065.68,-392.68 1066.48,-399.63"/>
</g>
<!-- Node0x56347ee095a8 -->
<g id="node4" class="node">
<title>Node0x56347ee095a8</title>
<polygon fill="#7fb2ff" stroke="black" points="1449,-341 1020,-341 1020,-305 1449,-305 1449,-341"/>
<text text-anchor="middle" x="1234.5" y="-319.3" font-family="Times,serif" font-size="14.00">{lib/libLLVMTransformUtils.a(BreakCriticalEdges.cpp.o)}</text>
</g>
<!-- Node0x56347ee0cf78&#45;&gt;Node0x56347ee095a8 -->
<g id="edge19" class="edge">
<title>Node0x56347ee0cf78&#45;&gt;Node0x56347ee095a8</title>
<path fill="none" stroke="#7fb2ff" d="M945.04,-412.94C958.74,-408.32 971.9,-402.45 984,-395 1005.3,-381.89 998.29,-362.33 1012.35,-347.27"/>
<polygon fill="#7fb2ff" stroke="#7fb2ff" points="1014.9,-349.71 1020.48,-340.71 1010.5,-344.27 1014.9,-349.71"/>
</g>
<!-- Node0x56347ee0c028 -->
<g id="node5" class="node">
<title>Node0x56347ee0c028</title>
<polygon fill="#7fb2ff" stroke="black" points="1403.5,-449 1065.5,-449 1065.5,-413 1403.5,-413 1403.5,-449"/>
<text text-anchor="middle" x="1234.5" y="-427.3" font-family="Times,serif" font-size="14.00">{lib/libLLVMTransformUtils.a(LCSSA.cpp.o)}</text>
</g>
<!-- Node0x56347ee0cf78&#45;&gt;Node0x56347ee0c028 -->
<g id="edge20" class="edge">
<title>Node0x56347ee0cf78&#45;&gt;Node0x56347ee0c028</title>
<path fill="none" stroke="#7fb2ff" d="M951.78,-424.36C985.89,-424.19 1021.32,-424.21 1055.07,-424.43"/>
<polygon fill="#7fb2ff" stroke="#7fb2ff" points="1055.47,-427.93 1065.49,-424.51 1055.52,-420.93 1055.47,-427.93"/>
</g>
<!-- Node0x56347ee0c848 -->
<g id="node6" class="node">
<title>Node0x56347ee0c848</title>
<polygon fill="#7fb2ff" stroke="black" points="1398.5,-287 1070.5,-287 1070.5,-251 1398.5,-251 1398.5,-287"/>
<text text-anchor="middle" x="1234.5" y="-265.3" font-family="Times,serif" font-size="14.00">{lib/libLLVMTransformUtils.a(Local.cpp.o)}</text>
</g>
<!-- Node0x56347ee0cf78&#45;&gt;Node0x56347ee0c848 -->
<g id="edge21" class="edge">
<title>Node0x56347ee0cf78&#45;&gt;Node0x56347ee0c848</title>
<path fill="none" stroke="#7fb2ff" d="M951.76,-423.49C963.31,-418.4 974.21,-412 984,-404 1023.19,-371.99 980.89,-328.11 1020,-296 1032.08,-286.08 1045.91,-278.68 1060.61,-273.25"/>
<polygon fill="#7fb2ff" stroke="#7fb2ff" points="1062.02,-276.47 1070.37,-269.95 1059.78,-269.83 1062.02,-276.47"/>
</g>
<!-- Node0x56347ee0d748 -->
<g id="node7" class="node">
<title>Node0x56347ee0d748</title>
<polygon fill="#7fb2ff" stroke="black" points="1414,-503 1055,-503 1055,-467 1414,-467 1414,-503"/>
<text text-anchor="middle" x="1234.5" y="-481.3" font-family="Times,serif" font-size="14.00">{lib/libLLVMTransformUtils.a(LoopUtils.cpp.o)}</text>
</g>
<!-- Node0x56347ee0cf78&#45;&gt;Node0x56347ee0d748 -->
<g id="edge22" class="edge">
<title>Node0x56347ee0cf78&#45;&gt;Node0x56347ee0d748</title>
<path fill="none" stroke="#7fb2ff" d="M951.78,-446.13C1007.35,-452.21 1066.43,-459.21 1116.06,-465.64"/>
<polygon fill="#7fb2ff" stroke="#7fb2ff" points="1115.81,-469.13 1126.18,-466.96 1116.72,-462.19 1115.81,-469.13"/>
</g>
<!-- Node0x56347edffd78 -->
<g id="node8" class="node">
<title>Node0x56347edffd78</title>
<polygon fill="#7fb2ff" stroke="black" points="1424.5,-557 1044.5,-557 1044.5,-521 1424.5,-521 1424.5,-557"/>
<text text-anchor="middle" x="1234.5" y="-535.3" font-family="Times,serif" font-size="14.00">{lib/libLLVMTransformUtils.a(SimplifyCFG.cpp.o)}</text>
</g>
<!-- Node0x56347ee0cf78&#45;&gt;Node0x56347edffd78 -->
<g id="edge23" class="edge">
<title>Node0x56347ee0cf78&#45;&gt;Node0x56347edffd78</title>
<path fill="none" stroke="#7fb2ff" d="M809.88,-449.01C861.3,-467.47 945.33,-495.72 1020,-512 1032.29,-514.68 1045.04,-517.12 1057.92,-519.34"/>
<polygon fill="#7fb2ff" stroke="#7fb2ff" points="1057.34,-522.8 1067.78,-521 1058.5,-515.89 1057.34,-522.8"/>
</g>
<!-- Node0x56347ee09c88&#45;&gt;Node0x56347ee095a8 -->
<g id="edge2" class="edge">
<title>Node0x56347ee09c88&#45;&gt;Node0x56347ee095a8</title>
<path fill="none" stroke="#7fb2ff" d="M1377.71,-358.95C1397.42,-353.96 1400.64,-348.97 1387.36,-343.97"/>
<polygon fill="#7fb2ff" stroke="#7fb2ff" points="1388.22,-340.58 1377.64,-341.04 1386.2,-347.28 1388.22,-340.58"/>
</g>
<!-- Node0x56347ee09c88&#45;&gt;Node0x56347ee0c848 -->
<g id="edge3" class="edge">
<title>Node0x56347ee09c88&#45;&gt;Node0x56347ee0c848</title>
<path fill="none" stroke="#7fb2ff" d="M1054.76,-358.98C1042.9,-356.38 1031.22,-353.4 1020,-350 1014.29,-348.27 1011.13,-349.07 1008,-344 998.19,-328.12 998.19,-317.88 1008,-302 1020.37,-281.98 1039.15,-269.45 1060.7,-262.03"/>
<polygon fill="#7fb2ff" stroke="#7fb2ff" points="1061.89,-265.33 1070.44,-259.06 1059.85,-258.63 1061.89,-265.33"/>
</g>
<!-- Node0x56347ee095a8&#45;&gt;Node0x56347ee0cf78 -->
<g id="edge6" class="edge">
<title>Node0x56347ee095a8&#45;&gt;Node0x56347ee0cf78</title>
<path fill="none" stroke="#7fb2ff" d="M1059.25,-341.02C1045.44,-345.6 1032.15,-351.48 1020,-359 995.47,-374.18 1008.56,-397.88 984,-413 976.74,-417.47 969.08,-421.38 961.16,-424.77"/>
<polygon fill="#7fb2ff" stroke="#7fb2ff" points="959.74,-421.57 951.75,-428.52 962.34,-428.07 959.74,-421.57"/>
</g>
<!-- Node0x56347ee095a8&#45;&gt;Node0x56347ee09c88 -->
<g id="edge4" class="edge">
<title>Node0x56347ee095a8&#45;&gt;Node0x56347ee09c88</title>
<path fill="none" stroke="#7fb2ff" d="M1091.36,-341.04C1071.61,-346.03 1068.36,-351.02 1081.59,-356.01"/>
<polygon fill="#7fb2ff" stroke="#7fb2ff" points="1080.71,-359.4 1091.29,-358.95 1082.74,-352.7 1080.71,-359.4"/>
</g>
<!-- Node0x56347ee0ba88 -->
<g id="node11" class="node">
<title>Node0x56347ee0ba88</title>
<polygon fill="#7fb2ff" stroke="black" points="1917.5,-341 1523.5,-341 1523.5,-305 1917.5,-305 1917.5,-341"/>
<text text-anchor="middle" x="1720.5" y="-319.3" font-family="Times,serif" font-size="14.00">{lib/libLLVMTransformUtils.a(CloneFunction.cpp.o)}</text>
</g>
<!-- Node0x56347ee095a8&#45;&gt;Node0x56347ee0ba88 -->
<g id="edge5" class="edge">
<title>Node0x56347ee095a8&#45;&gt;Node0x56347ee0ba88</title>
<path fill="none" stroke="#7fb2ff" d="M1449.2,-323C1470.51,-323 1492.13,-323 1513.36,-323"/>
<polygon fill="#7fb2ff" stroke="#7fb2ff" points="1513.42,-326.5 1523.42,-323 1513.42,-319.5 1513.42,-326.5"/>
</g>
<!-- Node0x56347ee0c028&#45;&gt;Node0x56347ee0cf78 -->
<g id="edge16" class="edge">
<title>Node0x56347ee0c028&#45;&gt;Node0x56347ee0cf78</title>
<path fill="none" stroke="#7fb2ff" d="M1065.49,-437.49C1031.97,-437.75 996.45,-437.82 961.96,-437.68"/>
<polygon fill="#7fb2ff" stroke="#7fb2ff" points="961.8,-434.18 951.78,-437.64 961.76,-441.18 961.8,-434.18"/>
</g>
<!-- Node0x56347ee00228 -->
<g id="node16" class="node">
<title>Node0x56347ee00228</title>
<polygon fill="none" stroke="black" points="1909,-509 1532,-509 1532,-473 1909,-473 1909,-509"/>
<text text-anchor="middle" x="1720.5" y="-487.3" font-family="Times,serif" font-size="14.00">{lib/libLLVMTransformUtils.a(SSAUpdater.cpp.o)}</text>
</g>
<!-- Node0x56347ee0c028&#45;&gt;Node0x56347ee00228 -->
<g id="edge17" class="edge">
<title>Node0x56347ee0c028&#45;&gt;Node0x56347ee00228</title>
<path fill="none" stroke="black" d="M1380.29,-449C1414.62,-453.27 1451.1,-457.8 1485,-462 1510.45,-465.15 1537.45,-468.5 1563.73,-471.75"/>
<polygon fill="black" stroke="black" points="1563.41,-475.24 1573.77,-472.99 1564.27,-468.29 1563.41,-475.24"/>
</g>
<!-- Node0x56347ee0c848&#45;&gt;Node0x56347ee09c88 -->
<g id="edge8" class="edge">
<title>Node0x56347ee0c848&#45;&gt;Node0x56347ee09c88</title>
<path fill="none" stroke="#7fb2ff" d="M1070.23,-259.78C1039.86,-266.8 1012.54,-281.23 996,-308 978.29,-336.66 993.62,-354.25 1023.48,-364.86"/>
<polygon fill="#7fb2ff" stroke="#7fb2ff" points="1022.6,-368.25 1033.19,-367.93 1024.72,-361.58 1022.6,-368.25"/>
</g>
<!-- Node0x56347ee0d748&#45;&gt;Node0x56347ee0cf78 -->
<g id="edge33" class="edge">
<title>Node0x56347ee0d748&#45;&gt;Node0x56347ee0cf78</title>
<path fill="none" stroke="#7fb2ff" d="M1054.6,-471.1C995.73,-464.74 931.81,-457.22 878.73,-450.34"/>
<polygon fill="#7fb2ff" stroke="#7fb2ff" points="878.97,-446.84 868.6,-449.01 878.07,-453.78 878.97,-446.84"/>
</g>
<!-- Node0x56347ee0d748&#45;&gt;Node0x56347ee09c88 -->
<g id="edge30" class="edge">
<title>Node0x56347ee0d748&#45;&gt;Node0x56347ee09c88</title>
<path fill="none" stroke="#7fb2ff" d="M1054.94,-477.2C1009.95,-467.51 979.95,-448.68 1002,-413 1008.17,-403.02 1015.87,-394.83 1024.7,-388.15"/>
<polygon fill="#7fb2ff" stroke="#7fb2ff" points="1026.8,-390.95 1033.1,-382.43 1022.87,-385.16 1026.8,-390.95"/>
</g>
<!-- Node0x56347ee0d748&#45;&gt;Node0x56347ee0c028 -->
<g id="edge31" class="edge">
<title>Node0x56347ee0d748&#45;&gt;Node0x56347ee0c028</title>
<path fill="none" stroke="#7fb2ff" d="M1234.5,-466.79C1234.5,-464.31 1234.5,-461.83 1234.5,-459.34"/>
<polygon fill="#7fb2ff" stroke="#7fb2ff" points="1238,-459.14 1234.5,-449.14 1231,-459.14 1238,-459.14"/>
</g>
<!-- Node0x56347ee0d748&#45;&gt;Node0x56347ee0c848 -->
<g id="edge32" class="edge">
<title>Node0x56347ee0d748&#45;&gt;Node0x56347ee0c848</title>
<path fill="none" stroke="#7fb2ff" d="M1054.75,-489.87C1033.2,-482.02 1014.45,-469.15 1002,-449 985.18,-421.78 985.18,-332.22 1002,-305 1015.6,-282.99 1036.71,-269.67 1060.77,-262.08"/>
<polygon fill="#7fb2ff" stroke="#7fb2ff" points="1061.81,-265.43 1070.5,-259.36 1059.92,-258.69 1061.81,-265.43"/>
</g>
<!-- Node0x56347ee03658 -->
<g id="node18" class="node">
<title>Node0x56347ee03658</title>
<polygon fill="#7fb2ff" stroke="black" points="1956,-453 1485,-453 1485,-417 1956,-417 1956,-453"/>
<text text-anchor="middle" x="1720.5" y="-431.3" font-family="Times,serif" font-size="14.00">{lib/libLLVMTransformUtils.a(ScalarEvolutionExpander.cpp.o)}</text>
</g>
<!-- Node0x56347ee0d748&#45;&gt;Node0x56347ee03658 -->
<g id="edge34" class="edge">
<title>Node0x56347ee0d748&#45;&gt;Node0x56347ee03658</title>
<path fill="none" stroke="#7fb2ff" d="M1409.89,-466.98C1450.56,-462.78 1494,-458.3 1535.08,-454.05"/>
<polygon fill="#7fb2ff" stroke="#7fb2ff" points="1535.61,-457.52 1545.19,-453.01 1534.89,-450.55 1535.61,-457.52"/>
</g>
<!-- Node0x56347edffd78&#45;&gt;Node0x56347ee09c88 -->
<g id="edge12" class="edge">
<title>Node0x56347edffd78&#45;&gt;Node0x56347ee09c88</title>
<path fill="none" stroke="#7fb2ff" d="M1044.4,-539.6C1027.23,-531.61 1012.41,-519.85 1002,-503 980.97,-468.97 980.97,-447.03 1002,-413 1008.17,-403.02 1015.87,-394.83 1024.7,-388.15"/>
<polygon fill="#7fb2ff" stroke="#7fb2ff" points="1026.8,-390.95 1033.1,-382.43 1022.87,-385.16 1026.8,-390.95"/>
</g>
<!-- Node0x56347edffd78&#45;&gt;Node0x56347ee0c848 -->
<g id="edge13" class="edge">
<title>Node0x56347edffd78&#45;&gt;Node0x56347ee0c848</title>
<path fill="none" stroke="#7fb2ff" d="M1044.4,-539.6C1027.23,-531.61 1012.41,-519.85 1002,-503 978.87,-465.57 978.87,-342.43 1002,-305 1015.6,-282.99 1036.71,-269.67 1060.77,-262.08"/>
<polygon fill="#7fb2ff" stroke="#7fb2ff" points="1061.81,-265.43 1070.5,-259.36 1059.92,-258.69 1061.81,-265.43"/>
</g>
<!-- Node0x56347edffd78&#45;&gt;Node0x56347ee00228 -->
<g id="edge14" class="edge">
<title>Node0x56347edffd78&#45;&gt;Node0x56347ee00228</title>
<path fill="none" stroke="black" d="M1417.1,-520.99C1453.14,-517.42 1491.09,-513.65 1527.47,-510.04"/>
<polygon fill="black" stroke="black" points="1528.08,-513.5 1537.69,-509.03 1527.39,-506.54 1528.08,-513.5"/>
</g>
<!-- Node0x56347ee07bb8 -->
<g id="node17" class="node">
<title>Node0x56347ee07bb8</title>
<polygon fill="none" stroke="black" points="2375,-176 1992,-176 1992,-140 2375,-140 2375,-176"/>
<text text-anchor="middle" x="2183.5" y="-154.3" font-family="Times,serif" font-size="14.00">{lib/libLLVMTransformUtils.a(ValueMapper.cpp.o)}</text>
</g>
<!-- Node0x56347edffd78&#45;&gt;Node0x56347ee07bb8 -->
<g id="edge15" class="edge">
<title>Node0x56347edffd78&#45;&gt;Node0x56347ee07bb8</title>
<path fill="none" stroke="black" d="M1304.46,-557.04C1439.74,-588.34 1745.08,-638.53 1956,-518 2087.41,-442.9 2153.59,-257.27 2174.76,-186.25"/>
<polygon fill="black" stroke="black" points="2178.23,-186.83 2177.66,-176.25 2171.51,-184.88 2178.23,-186.83"/>
</g>
<!-- Node0x56347ee03bf8 -->
<g id="node9" class="node">
<title>Node0x56347ee03bf8</title>
<polygon fill="none" stroke="black" points="441.5,-503 59.5,-503 59.5,-467 441.5,-467 441.5,-503"/>
<text text-anchor="middle" x="250.5" y="-481.3" font-family="Times,serif" font-size="14.00">{lib/libLLVMTransformUtils.a(LowerInvoke.cpp.o)}</text>
</g>
<!-- Node0x56347ee078e8 -->
<g id="node10" class="node">
<title>Node0x56347ee078e8</title>
<polygon fill="none" stroke="black" points="1411.5,-59 1057.5,-59 1057.5,-23 1411.5,-23 1411.5,-59"/>
<text text-anchor="middle" x="1234.5" y="-37.3" font-family="Times,serif" font-size="14.00">{lib/libLLVMTransformUtils.a(SizeOpts.cpp.o)}</text>
</g>
<!-- Node0x56347ee0ba88&#45;&gt;Node0x56347ee09c88 -->
<g id="edge36" class="edge">
<title>Node0x56347ee0ba88&#45;&gt;Node0x56347ee09c88</title>
<path fill="none" stroke="#7fb2ff" d="M1558.01,-341.02C1509.54,-346.43 1456.19,-352.38 1407.09,-357.86"/>
<polygon fill="#7fb2ff" stroke="#7fb2ff" points="1406.55,-354.39 1397,-358.98 1407.33,-361.35 1406.55,-354.39"/>
</g>
<!-- Node0x56347ee0ba88&#45;&gt;Node0x56347ee0c848 -->
<g id="edge37" class="edge">
<title>Node0x56347ee0ba88&#45;&gt;Node0x56347ee0c848</title>
<path fill="none" stroke="#7fb2ff" d="M1558.01,-304.98C1509.54,-299.57 1456.19,-293.62 1407.09,-288.14"/>
<polygon fill="#7fb2ff" stroke="#7fb2ff" points="1407.33,-284.65 1397,-287.02 1406.55,-291.61 1407.33,-284.65"/>
</g>
<!-- Node0x56347ee0ba88&#45;&gt;Node0x56347ee07bb8 -->
<g id="edge38" class="edge">
<title>Node0x56347ee0ba88&#45;&gt;Node0x56347ee07bb8</title>
<path fill="none" stroke="black" d="M1772.15,-304.87C1857.8,-274.22 2030.81,-212.29 2122.43,-179.5"/>
<polygon fill="black" stroke="black" points="2123.88,-182.7 2132.11,-176.03 2121.52,-176.11 2123.88,-182.7"/>
</g>
<!-- Node0x56347ee0a1d8 -->
<g id="node12" class="node">
<title>Node0x56347ee0a1d8</title>
<polygon fill="none" stroke="black" points="977.5,-341 543.5,-341 543.5,-305 977.5,-305 977.5,-341"/>
<text text-anchor="middle" x="760.5" y="-319.3" font-family="Times,serif" font-size="14.00">{lib/libLLVMTransformUtils.a(BypassSlowDivision.cpp.o)}</text>
</g>
<!-- Node0x56347ee0a1d8&#45;&gt;Node0x56347ee0c848 -->
<g id="edge7" class="edge">
<title>Node0x56347ee0a1d8&#45;&gt;Node0x56347ee0c848</title>
<path fill="none" stroke="black" d="M919,-304.98C966.18,-299.58 1018.08,-293.65 1065.88,-288.18"/>
<polygon fill="black" stroke="black" points="1066.48,-291.63 1076.02,-287.02 1065.68,-284.68 1066.48,-291.63"/>
</g>
<!-- Node0x56347ee01948 -->
<g id="node13" class="node">
<title>Node0x56347ee01948</title>
<polygon fill="none" stroke="black" points="964,-103 557,-103 557,-67 964,-67 964,-103"/>
<text text-anchor="middle" x="760.5" y="-81.3" font-family="Times,serif" font-size="14.00">{lib/libLLVMTransformUtils.a(SimplifyLibCalls.cpp.o)}</text>
</g>
<!-- Node0x56347ee01948&#45;&gt;Node0x56347ee0c848 -->
<g id="edge9" class="edge">
<title>Node0x56347ee01948&#45;&gt;Node0x56347ee0c848</title>
<path fill="none" stroke="black" d="M860.68,-103.04C900.77,-113.05 946.36,-128.06 984,-150 1003.28,-161.24 1001.25,-172.9 1020,-185 1062.85,-212.65 1116.24,-233.65 1158.91,-247.74"/>
<polygon fill="black" stroke="black" points="1158.08,-251.15 1168.67,-250.91 1160.24,-244.5 1158.08,-251.15"/>
</g>
<!-- Node0x56347ee01948&#45;&gt;Node0x56347ee078e8 -->
<g id="edge11" class="edge">
<title>Node0x56347ee01948&#45;&gt;Node0x56347ee078e8</title>
<path fill="none" stroke="black" d="M954.84,-66.98C985.26,-64.14 1016.66,-61.21 1046.93,-58.39"/>
<polygon fill="black" stroke="black" points="1047.51,-61.85 1057.14,-57.44 1046.86,-54.88 1047.51,-61.85"/>
</g>
<!-- Node0x56347ee00d18 -->
<g id="node14" class="node">
<title>Node0x56347ee00d18</title>
<polygon fill="none" stroke="black" points="1427.5,-113 1041.5,-113 1041.5,-77 1427.5,-77 1427.5,-113"/>
<text text-anchor="middle" x="1234.5" y="-91.3" font-family="Times,serif" font-size="14.00">{lib/libLLVMTransformUtils.a(BuildLibCalls.cpp.o)}</text>
</g>
<!-- Node0x56347ee01948&#45;&gt;Node0x56347ee00d18 -->
<g id="edge10" class="edge">
<title>Node0x56347ee01948&#45;&gt;Node0x56347ee00d18</title>
<path fill="none" stroke="black" d="M964.07,-89.29C986.29,-89.76 1008.92,-90.24 1031.14,-90.71"/>
<polygon fill="black" stroke="black" points="1031.25,-94.22 1041.32,-90.93 1031.4,-87.22 1031.25,-94.22"/>
</g>
<!-- Node0x56347ee09968 -->
<g id="node15" class="node">
<title>Node0x56347ee09968</title>
<polygon fill="none" stroke="black" points="427,-557 74,-557 74,-521 427,-521 427,-557"/>
<text text-anchor="middle" x="250.5" y="-535.3" font-family="Times,serif" font-size="14.00">{lib/libLLVMTransformUtils.a(Debugify.cpp.o)}</text>
</g>
<!-- Node0x56347ee03658&#45;&gt;Node0x56347ee0c028 -->
<g id="edge24" class="edge">
<title>Node0x56347ee03658&#45;&gt;Node0x56347ee0c028</title>
<path fill="none" stroke="#7fb2ff" d="M1484.79,-433.06C1460.96,-432.86 1437.04,-432.67 1413.95,-432.47"/>
<polygon fill="#7fb2ff" stroke="#7fb2ff" points="1413.79,-428.97 1403.76,-432.39 1413.73,-435.97 1413.79,-428.97"/>
</g>
<!-- Node0x56347ee0b088 -->
<g id="node19" class="node">
<title>Node0x56347ee0b088</title>
<polygon fill="none" stroke="black" points="447.5,-249 53.5,-249 53.5,-213 447.5,-213 447.5,-249"/>
<text text-anchor="middle" x="250.5" y="-227.3" font-family="Times,serif" font-size="14.00">{lib/libLLVMTransformUtils.a(InlineFunction.cpp.o)}</text>
</g>
<!-- Node0x56347ee0b088&#45;&gt;Node0x56347ee0c848 -->
<g id="edge27" class="edge">
<title>Node0x56347ee0b088&#45;&gt;Node0x56347ee0c848</title>
<path fill="none" stroke="black" d="M418.53,-249.01C457.37,-252.59 498.6,-255.88 537,-258 715.21,-267.82 919.43,-269.97 1060.43,-270.04"/>
<polygon fill="black" stroke="black" points="1060.48,-273.54 1070.48,-270.04 1060.48,-266.54 1060.48,-273.54"/>
</g>
<!-- Node0x56347ee0b088&#45;&gt;Node0x56347ee0ba88 -->
<g id="edge25" class="edge">
<title>Node0x56347ee0b088&#45;&gt;Node0x56347ee0ba88</title>
<path fill="none" stroke="black" d="M299.62,-212.92C355.68,-192.9 451.52,-161.89 537,-150 635.39,-136.31 891.96,-112.63 984,-150 1004.68,-158.39 999.92,-175.26 1020,-185 1193.05,-268.96 1260.94,-201.62 1449,-242 1522.13,-257.7 1604.19,-283.46 1658.54,-301.71"/>
<polygon fill="black" stroke="black" points="1657.43,-305.03 1668.03,-304.92 1659.67,-298.4 1657.43,-305.03"/>
</g>
<!-- Node0x56347ee0b858 -->
<g id="node20" class="node">
<title>Node0x56347ee0b858</title>
<polygon fill="none" stroke="black" points="984,-249 537,-249 537,-213 984,-213 984,-249"/>
<text text-anchor="middle" x="760.5" y="-227.3" font-family="Times,serif" font-size="14.00">{lib/libLLVMTransformUtils.a(AssumeBundleBuilder.cpp.o)}</text>
</g>
<!-- Node0x56347ee0b088&#45;&gt;Node0x56347ee0b858 -->
<g id="edge26" class="edge">
<title>Node0x56347ee0b088&#45;&gt;Node0x56347ee0b858</title>
<path fill="none" stroke="black" d="M447.54,-231C473.43,-231 500.16,-231 526.59,-231"/>
<polygon fill="black" stroke="black" points="526.7,-234.5 536.7,-231 526.7,-227.5 526.7,-234.5"/>
</g>
<!-- Node0x56347ee0b858&#45;&gt;Node0x56347ee0c848 -->
<g id="edge41" class="edge">
<title>Node0x56347ee0b858&#45;&gt;Node0x56347ee0c848</title>
<path fill="none" stroke="black" d="M984.02,-248.92C1009.54,-250.97 1035.26,-253.04 1059.99,-255.03"/>
<polygon fill="black" stroke="black" points="1059.91,-258.54 1070.16,-255.85 1060.47,-251.56 1059.91,-258.54"/>
</g>
<!-- Node0x56347ee0a188 -->
<g id="node21" class="node">
<title>Node0x56347ee0a188</title>
<polygon fill="none" stroke="black" points="975.5,-395 545.5,-395 545.5,-359 975.5,-359 975.5,-395"/>
<text text-anchor="middle" x="760.5" y="-373.3" font-family="Times,serif" font-size="14.00">{lib/libLLVMTransformUtils.a(DemoteRegToStack.cpp.o)}</text>
</g>
<!-- Node0x56347ee0a188&#45;&gt;Node0x56347ee095a8 -->
<g id="edge28" class="edge">
<title>Node0x56347ee0a188&#45;&gt;Node0x56347ee095a8</title>
<path fill="none" stroke="black" d="M919,-358.98C966.18,-353.58 1018.08,-347.65 1065.88,-342.18"/>
<polygon fill="black" stroke="black" points="1066.48,-345.63 1076.02,-341.02 1065.68,-338.68 1066.48,-345.63"/>
</g>
<!-- Node0x56347ee0a908 -->
<g id="node22" class="node">
<title>Node0x56347ee0a908</title>
<polygon fill="none" stroke="black" points="973.5,-195 547.5,-195 547.5,-159 973.5,-159 973.5,-195"/>
<text text-anchor="middle" x="760.5" y="-173.3" font-family="Times,serif" font-size="14.00">{lib/libLLVMTransformUtils.a(EscapeEnumerator.cpp.o)}</text>
</g>
<!-- Node0x56347ee0a908&#45;&gt;Node0x56347ee0c848 -->
<g id="edge29" class="edge">
<title>Node0x56347ee0a908&#45;&gt;Node0x56347ee0c848</title>
<path fill="none" stroke="black" d="M942.23,-195.05C956.44,-197.65 970.51,-200.61 984,-204 1000.65,-208.18 1003.61,-212.88 1020,-218 1057.49,-229.71 1099.4,-240.25 1136.09,-248.68"/>
<polygon fill="black" stroke="black" points="1135.76,-252.19 1146.29,-251 1137.31,-245.37 1135.76,-252.19"/>
</g>
<!-- Node0x56347ee042d8 -->
<g id="node23" class="node">
<title>Node0x56347ee042d8</title>
<polygon fill="none" stroke="black" points="949.5,-611 571.5,-611 571.5,-575 949.5,-575 949.5,-611"/>
<text text-anchor="middle" x="760.5" y="-589.3" font-family="Times,serif" font-size="14.00">{lib/libLLVMTransformUtils.a(ModuleUtils.cpp.o)}</text>
</g>
<!-- Node0x56347edff5f8 -->
<g id="node24" class="node">
<title>Node0x56347edff5f8</title>
<polygon fill="none" stroke="black" points="501,-611 0,-611 0,-575 501,-575 501,-611"/>
<text text-anchor="middle" x="250.5" y="-589.3" font-family="Times,serif" font-size="14.00">{lib/libLLVMTransformUtils.a(SampleProfileLoaderBaseUtil.cpp.o)}</text>
</g>
<!-- Node0x56347edff5f8&#45;&gt;Node0x56347ee042d8 -->
<g id="edge35" class="edge">
<title>Node0x56347edff5f8&#45;&gt;Node0x56347ee042d8</title>
<path fill="none" stroke="black" d="M501.04,-593C521.32,-593 541.64,-593 561.49,-593"/>
<polygon fill="black" stroke="black" points="561.5,-596.5 571.5,-593 561.5,-589.5 561.5,-596.5"/>
</g>
<!-- Node0x56347edf5698 -->
<g id="node25" class="node">
<title>Node0x56347edf5698</title>
<polygon fill="none" stroke="black" points="1426.5,-176 1042.5,-176 1042.5,-140 1426.5,-140 1426.5,-176"/>
<text text-anchor="middle" x="1234.5" y="-154.3" font-family="Times,serif" font-size="14.00">{lib/libLLVMTransformUtils.a(CloneModule.cpp.o)}</text>
</g>
<!-- Node0x56347edf5698&#45;&gt;Node0x56347ee0ba88 -->
<g id="edge39" class="edge">
<title>Node0x56347edf5698&#45;&gt;Node0x56347ee0ba88</title>
<path fill="none" stroke="black" d="M1393.29,-176.01C1412.26,-179.83 1431.2,-184.44 1449,-190 1536.41,-217.31 1630.71,-269.43 1681.64,-299.68"/>
<polygon fill="black" stroke="black" points="1679.96,-302.75 1690.34,-304.88 1683.55,-296.74 1679.96,-302.75"/>
</g>
<!-- Node0x56347edf5698&#45;&gt;Node0x56347ee07bb8 -->
<g id="edge40" class="edge">
<title>Node0x56347edf5698&#45;&gt;Node0x56347ee07bb8</title>
<path fill="none" stroke="black" d="M1426.57,-158C1587.71,-158 1817.63,-158 1981.52,-158"/>
<polygon fill="black" stroke="black" points="1981.72,-161.5 1991.72,-158 1981.72,-154.5 1981.72,-161.5"/>
</g>
<!-- Node0x56347ee09a58 -->
<g id="node26" class="node">
<title>Node0x56347ee09a58</title>
<polygon fill="none" stroke="black" points="463,-665 38,-665 38,-629 463,-629 463,-665"/>
<text text-anchor="middle" x="250.5" y="-643.3" font-family="Times,serif" font-size="14.00">{lib/libLLVMTransformUtils.a(MemoryOpRemark.cpp.o)}</text>
</g>
</g>
</svg>
