<?xml version="1.0" encoding="UTF-8" standalone="no"?>
<!DOCTYPE svg PUBLIC "-//W3C//DTD SVG 1.1//EN"
 "http://www.w3.org/Graphics/SVG/1.1/DTD/svg11.dtd">
<!-- Generated by graphviz version 2.43.0 (0)
 -->
<!-- Title: bin/lld_lib/libLLVMDebugInfoMSF.a Pages: 1 -->
<svg width="1273pt" height="139pt"
 viewBox="0.00 0.00 1273.00 138.75" xmlns="http://www.w3.org/2000/svg" xmlns:xlink="http://www.w3.org/1999/xlink">
<g id="graph0" class="graph" transform="scale(1 1) rotate(0) translate(4 134.75)">
<title>bin/lld_lib/libLLVMDebugInfoMSF.a</title>
<polygon fill="white" stroke="transparent" points="-4,4 -4,-134.75 1269,-134.75 1269,4 -4,4"/>
<text text-anchor="middle" x="632.5" y="-7.8" font-family="Times,serif" font-size="14.00">bin/lld_lib/libLLVMDebugInfoMSF.a</text>
<!-- Node0x55bc7294a2d8 -->
<g id="node1" class="node">
<title>Node0x55bc7294a2d8</title>
<polygon fill="#7fb2ff" stroke="black" points="372,-76.75 0,-76.75 0,-40.75 372,-40.75 372,-76.75"/>
<text text-anchor="middle" x="186" y="-55.05" font-family="Times,serif" font-size="14.00">{lib/libLLVMDebugInfoMSF.a(MSFBuilder.cpp.o)}</text>
</g>
<!-- Node0x55bc7294a9b8 -->
<g id="node2" class="node">
<title>Node0x55bc7294a9b8</title>
<polygon fill="#7fb2ff" stroke="black" points="845,-130.75 408,-130.75 408,-94.75 845,-94.75 845,-130.75"/>
<text text-anchor="middle" x="626.5" y="-109.05" font-family="Times,serif" font-size="14.00">{lib/libLLVMDebugInfoMSF.a(MappedBlockStream.cpp.o)}</text>
</g>
<!-- Node0x55bc7294a2d8&#45;&gt;Node0x55bc7294a9b8 -->
<g id="edge1" class="edge">
<title>Node0x55bc7294a2d8&#45;&gt;Node0x55bc7294a9b8</title>
<path fill="none" stroke="#7fb2ff" d="M333.32,-76.77C376.97,-82.15 424.96,-88.06 469.22,-93.51"/>
<polygon fill="#7fb2ff" stroke="#7fb2ff" points="468.84,-96.99 479.2,-94.74 469.7,-90.04 468.84,-96.99"/>
</g>
<!-- Node0x55bc72950ae8 -->
<g id="node3" class="node">
<title>Node0x55bc72950ae8</title>
<polygon fill="none" stroke="black" points="806,-76.75 447,-76.75 447,-40.75 806,-40.75 806,-76.75"/>
<text text-anchor="middle" x="626.5" y="-55.05" font-family="Times,serif" font-size="14.00">{lib/libLLVMDebugInfoMSF.a(MSFError.cpp.o)}</text>
</g>
<!-- Node0x55bc7294a2d8&#45;&gt;Node0x55bc72950ae8 -->
<g id="edge2" class="edge">
<title>Node0x55bc7294a2d8&#45;&gt;Node0x55bc72950ae8</title>
<path fill="none" stroke="black" d="M372.01,-58.75C393.41,-58.75 415.26,-58.75 436.72,-58.75"/>
<polygon fill="black" stroke="black" points="436.88,-62.25 446.88,-58.75 436.88,-55.25 436.88,-62.25"/>
</g>
<!-- Node0x55bc729512b8 -->
<g id="node4" class="node">
<title>Node0x55bc729512b8</title>
<polygon fill="#7fb2ff" stroke="black" points="1265,-76.75 881,-76.75 881,-40.75 1265,-40.75 1265,-76.75"/>
<text text-anchor="middle" x="1073" y="-55.05" font-family="Times,serif" font-size="14.00">{lib/libLLVMDebugInfoMSF.a(MSFCommon.cpp.o)}</text>
</g>
<!-- Node0x55bc7294a9b8&#45;&gt;Node0x55bc729512b8 -->
<g id="edge3" class="edge">
<title>Node0x55bc7294a9b8&#45;&gt;Node0x55bc729512b8</title>
<path fill="none" stroke="#7fb2ff" d="M775.82,-94.73C820.06,-89.36 868.72,-83.45 913.58,-78"/>
<polygon fill="#7fb2ff" stroke="#7fb2ff" points="914.19,-81.45 923.69,-76.77 913.34,-74.5 914.19,-81.45"/>
</g>
<!-- Node0x55bc729512b8&#45;&gt;Node0x55bc7294a2d8 -->
<g id="edge4" class="edge">
<title>Node0x55bc729512b8&#45;&gt;Node0x55bc7294a2d8</title>
<path fill="none" stroke="#7fb2ff" d="M943.19,-40.75C911.17,-37.01 876.89,-33.64 845,-31.75 651.12,-20.26 601.86,-19.95 408,-31.75 380.34,-33.44 350.84,-36.29 322.7,-39.54"/>
<polygon fill="#7fb2ff" stroke="#7fb2ff" points="321.92,-36.1 312.4,-40.75 322.74,-43.06 321.92,-36.1"/>
</g>
<!-- Node0x55bc729512b8&#45;&gt;Node0x55bc72950ae8 -->
<g id="edge5" class="edge">
<title>Node0x55bc729512b8&#45;&gt;Node0x55bc72950ae8</title>
<path fill="none" stroke="black" d="M880.88,-58.75C859.44,-58.75 837.6,-58.75 816.19,-58.75"/>
<polygon fill="black" stroke="black" points="816.05,-55.25 806.05,-58.75 816.05,-62.25 816.05,-55.25"/>
</g>
</g>
</svg>
