<?xml version="1.0" encoding="UTF-8" standalone="no"?>
<!DOCTYPE svg PUBLIC "-//W3C//DTD SVG 1.1//EN"
 "http://www.w3.org/Graphics/SVG/1.1/DTD/svg11.dtd">
<!-- Generated by graphviz version 2.43.0 (0)
 -->
<!-- Title: bin/lli_lib/libLLVMJITLink.a Pages: 1 -->
<svg width="2945pt" height="585pt"
 viewBox="0.00 0.00 2945.00 585.04" xmlns="http://www.w3.org/2000/svg" xmlns:xlink="http://www.w3.org/1999/xlink">
<g id="graph0" class="graph" transform="scale(1 1) rotate(0) translate(4 581.04)">
<title>bin/lli_lib/libLLVMJITLink.a</title>
<polygon fill="white" stroke="transparent" points="-4,4 -4,-581.04 2941,-581.04 2941,4 -4,4"/>
<text text-anchor="middle" x="1468.5" y="-7.8" font-family="Times,serif" font-size="14.00">bin/lli_lib/libLLVMJITLink.a</text>
<!-- Node0x55e83fef61e8 -->
<g id="node1" class="node">
<title>Node0x55e83fef61e8</title>
<polygon fill="none" stroke="black" points="404,-286.23 0,-286.23 0,-250.23 404,-250.23 404,-286.23"/>
<text text-anchor="middle" x="202" y="-264.53" font-family="Times,serif" font-size="14.00">{lib/libLLVMJITLink.a(JITLinkMemoryManager.cpp.o)}</text>
</g>
<!-- Node0x55e83fef6e68 -->
<g id="node2" class="node">
<title>Node0x55e83fef6e68</title>
<polygon fill="none" stroke="black" points="381.5,-340.23 22.5,-340.23 22.5,-304.23 381.5,-304.23 381.5,-340.23"/>
<text text-anchor="middle" x="202" y="-318.53" font-family="Times,serif" font-size="14.00">{lib/libLLVMJITLink.a(EHFrameSupport.cpp.o)}</text>
</g>
<!-- Node0x55e83fef7278 -->
<g id="node3" class="node">
<title>Node0x55e83fef7278</title>
<polygon fill="none" stroke="black" points="722,-340.23 440,-340.23 440,-304.23 722,-304.23 722,-340.23"/>
<text text-anchor="middle" x="581" y="-318.53" font-family="Times,serif" font-size="14.00">{lib/libLLVMJITLink.a(JITLink.cpp.o)}</text>
</g>
<!-- Node0x55e83fef6e68&#45;&gt;Node0x55e83fef7278 -->
<g id="edge1" class="edge">
<title>Node0x55e83fef6e68&#45;&gt;Node0x55e83fef7278</title>
<path fill="none" stroke="black" d="M381.56,-315.48C397.64,-315.46 413.82,-315.5 429.63,-315.6"/>
<polygon fill="black" stroke="black" points="429.93,-319.1 439.95,-315.68 429.98,-312.1 429.93,-319.1"/>
</g>
<!-- Node0x55e83fef7278&#45;&gt;Node0x55e83fef6e68 -->
<g id="edge4" class="edge">
<title>Node0x55e83fef7278&#45;&gt;Node0x55e83fef6e68</title>
<path fill="none" stroke="black" d="M439.95,-328.77C424.19,-328.91 407.93,-328.98 391.68,-328.98"/>
<polygon fill="black" stroke="black" points="391.57,-325.48 381.56,-328.97 391.56,-332.48 391.57,-325.48"/>
</g>
<!-- Node0x55e83ff085c8 -->
<g id="node4" class="node">
<title>Node0x55e83ff085c8</title>
<polygon fill="none" stroke="black" points="1353,-340.23 1072,-340.23 1072,-304.23 1353,-304.23 1353,-340.23"/>
<text text-anchor="middle" x="1212.5" y="-318.53" font-family="Times,serif" font-size="14.00">{lib/libLLVMJITLink.a(MachO.cpp.o)}</text>
</g>
<!-- Node0x55e83fef7278&#45;&gt;Node0x55e83ff085c8 -->
<g id="edge2" class="edge">
<title>Node0x55e83fef7278&#45;&gt;Node0x55e83ff085c8</title>
<path fill="none" stroke="black" d="M722.1,-316.5C822.9,-315.18 958.67,-315.14 1061.64,-316.38"/>
<polygon fill="black" stroke="black" points="1061.77,-319.88 1071.81,-316.51 1061.86,-312.88 1061.77,-319.88"/>
</g>
<!-- Node0x55e83ff019f8 -->
<g id="node5" class="node">
<title>Node0x55e83ff019f8</title>
<polygon fill="none" stroke="black" points="1017,-247.23 758,-247.23 758,-211.23 1017,-211.23 1017,-247.23"/>
<text text-anchor="middle" x="887.5" y="-225.53" font-family="Times,serif" font-size="14.00">{lib/libLLVMJITLink.a(ELF.cpp.o)}</text>
</g>
<!-- Node0x55e83fef7278&#45;&gt;Node0x55e83ff019f8 -->
<g id="edge3" class="edge">
<title>Node0x55e83fef7278&#45;&gt;Node0x55e83ff019f8</title>
<path fill="none" stroke="black" d="M612.57,-304.17C647.46,-288.75 706.39,-267.56 758,-252.23 760.46,-251.5 762.95,-250.77 765.46,-250.05"/>
<polygon fill="black" stroke="black" points="766.57,-253.37 775.24,-247.28 764.66,-246.63 766.57,-253.37"/>
</g>
<!-- Node0x55e83ff085c8&#45;&gt;Node0x55e83fef7278 -->
<g id="edge7" class="edge">
<title>Node0x55e83ff085c8&#45;&gt;Node0x55e83fef7278</title>
<path fill="none" stroke="black" d="M1071.81,-327.95C971.11,-329.27 835.34,-329.32 732.28,-328.08"/>
<polygon fill="black" stroke="black" points="732.14,-324.58 722.1,-327.95 732.05,-331.58 732.14,-324.58"/>
</g>
<!-- Node0x55e83ff08d48 -->
<g id="node6" class="node">
<title>Node0x55e83ff08d48</title>
<polygon fill="none" stroke="black" points="2493,-306.23 2158,-306.23 2158,-270.23 2493,-270.23 2493,-306.23"/>
<text text-anchor="middle" x="2325.5" y="-284.53" font-family="Times,serif" font-size="14.00">{lib/libLLVMJITLink.a(MachO_arm64.cpp.o)}</text>
</g>
<!-- Node0x55e83ff085c8&#45;&gt;Node0x55e83ff08d48 -->
<g id="edge5" class="edge">
<title>Node0x55e83ff085c8&#45;&gt;Node0x55e83ff08d48</title>
<path fill="none" stroke="black" d="M1353.28,-316.97C1468.77,-312.71 1637.02,-306.71 1784,-302.23 1905.34,-298.53 2042.03,-294.99 2147.58,-292.4"/>
<polygon fill="black" stroke="black" points="2147.79,-295.9 2157.7,-292.15 2147.62,-288.9 2147.79,-295.9"/>
</g>
<!-- Node0x55e83ff000f8 -->
<g id="node7" class="node">
<title>Node0x55e83ff000f8</title>
<polygon fill="none" stroke="black" points="1748,-365.23 1408,-365.23 1408,-329.23 1748,-329.23 1748,-365.23"/>
<text text-anchor="middle" x="1578" y="-343.53" font-family="Times,serif" font-size="14.00">{lib/libLLVMJITLink.a(MachO_x86_64.cpp.o)}</text>
</g>
<!-- Node0x55e83ff085c8&#45;&gt;Node0x55e83ff000f8 -->
<g id="edge6" class="edge">
<title>Node0x55e83ff085c8&#45;&gt;Node0x55e83ff000f8</title>
<path fill="none" stroke="black" d="M1353.26,-331.84C1367.81,-332.84 1382.74,-333.87 1397.65,-334.89"/>
<polygon fill="black" stroke="black" points="1397.75,-338.41 1407.97,-335.6 1398.23,-331.42 1397.75,-338.41"/>
</g>
<!-- Node0x55e83ff019f8&#45;&gt;Node0x55e83fef7278 -->
<g id="edge9" class="edge">
<title>Node0x55e83ff019f8&#45;&gt;Node0x55e83fef7278</title>
<path fill="none" stroke="black" d="M841.93,-247.23C817.08,-254.16 785.66,-262.01 758,-270.23 726.53,-279.58 692.35,-291.1 662.55,-301.05"/>
<polygon fill="black" stroke="black" points="661.41,-297.74 653.03,-304.22 663.63,-304.38 661.41,-297.74"/>
</g>
<!-- Node0x55e83ff015e8 -->
<g id="node8" class="node">
<title>Node0x55e83ff015e8</title>
<polygon fill="none" stroke="black" points="1372,-247.23 1053,-247.23 1053,-211.23 1372,-211.23 1372,-247.23"/>
<text text-anchor="middle" x="1212.5" y="-225.53" font-family="Times,serif" font-size="14.00">{lib/libLLVMJITLink.a(ELF_x86_64.cpp.o)}</text>
</g>
<!-- Node0x55e83ff019f8&#45;&gt;Node0x55e83ff015e8 -->
<g id="edge8" class="edge">
<title>Node0x55e83ff019f8&#45;&gt;Node0x55e83ff015e8</title>
<path fill="none" stroke="black" d="M1017.09,-229.23C1025.56,-229.23 1034.16,-229.23 1042.78,-229.23"/>
<polygon fill="black" stroke="black" points="1042.91,-232.73 1052.91,-229.23 1042.91,-225.73 1042.91,-232.73"/>
</g>
<!-- Node0x55e83ff08d48&#45;&gt;Node0x55e83fef6e68 -->
<g id="edge12" class="edge">
<title>Node0x55e83ff08d48&#45;&gt;Node0x55e83fef6e68</title>
<path fill="none" stroke="black" d="M2311.24,-306.32C2282.03,-344.59 2207.83,-433.34 2122,-471.23 1750.88,-635.05 1619.17,-559.23 1213.5,-559.23 886.5,-559.23 886.5,-559.23 886.5,-559.23 627.13,-559.23 341.42,-404.99 240.67,-345.37"/>
<polygon fill="black" stroke="black" points="242.44,-342.35 232.05,-340.23 238.85,-348.36 242.44,-342.35"/>
</g>
<!-- Node0x55e83ff08d48&#45;&gt;Node0x55e83fef7278 -->
<g id="edge13" class="edge">
<title>Node0x55e83ff08d48&#45;&gt;Node0x55e83fef7278</title>
<path fill="none" stroke="black" d="M2308.04,-306.34C2276.1,-339.98 2201.83,-411.02 2122,-437.23 1833.6,-531.9 1049.86,-447.62 758,-364.23 740.6,-359.26 739.15,-350.99 722,-345.23 719.87,-344.51 717.71,-343.81 715.52,-343.14"/>
<polygon fill="black" stroke="black" points="716.41,-339.75 705.83,-340.32 714.46,-346.47 716.41,-339.75"/>
</g>
<!-- Node0x55e83ff09ec8 -->
<g id="node9" class="node">
<title>Node0x55e83ff09ec8</title>
<polygon fill="none" stroke="black" points="2937,-306.23 2529,-306.23 2529,-270.23 2937,-270.23 2937,-306.23"/>
<text text-anchor="middle" x="2733" y="-284.53" font-family="Times,serif" font-size="14.00">{lib/libLLVMJITLink.a(MachOLinkGraphBuilder.cpp.o)}</text>
</g>
<!-- Node0x55e83ff08d48&#45;&gt;Node0x55e83ff09ec8 -->
<g id="edge10" class="edge">
<title>Node0x55e83ff08d48&#45;&gt;Node0x55e83ff09ec8</title>
<path fill="none" stroke="black" d="M2493.19,-281.57C2501.67,-281.53 2510.23,-281.5 2518.82,-281.48"/>
<polygon fill="black" stroke="black" points="2518.92,-284.98 2528.91,-281.48 2518.91,-277.98 2518.92,-284.98"/>
</g>
<!-- Node0x55e83ff008c8 -->
<g id="node10" class="node">
<title>Node0x55e83ff008c8</title>
<polygon fill="none" stroke="black" points="2122,-222.23 1784,-222.23 1784,-186.23 2122,-186.23 2122,-222.23"/>
<text text-anchor="middle" x="1953" y="-200.53" font-family="Times,serif" font-size="14.00">{lib/libLLVMJITLink.a(JITLinkGeneric.cpp.o)}</text>
</g>
<!-- Node0x55e83ff08d48&#45;&gt;Node0x55e83ff008c8 -->
<g id="edge11" class="edge">
<title>Node0x55e83ff08d48&#45;&gt;Node0x55e83ff008c8</title>
<path fill="none" stroke="black" d="M2226.18,-270.17C2193.18,-262.08 2156.1,-252.84 2122,-245.23 2089.33,-237.93 2052.85,-230.85 2022.25,-224.45"/>
<polygon fill="black" stroke="black" points="2022.62,-220.95 2012.11,-222.3 2021.17,-227.8 2022.62,-220.95"/>
</g>
<!-- Node0x55e83ff000f8&#45;&gt;Node0x55e83fef6e68 -->
<g id="edge18" class="edge">
<title>Node0x55e83ff000f8&#45;&gt;Node0x55e83fef6e68</title>
<path fill="none" stroke="black" d="M1407.88,-363.25C1395.74,-364.04 1383.69,-364.71 1372,-365.23 958.11,-383.36 852.95,-382.45 440,-349.23 413.35,-347.08 385.06,-344.3 357.66,-341.34"/>
<polygon fill="black" stroke="black" points="357.93,-337.85 347.61,-340.24 357.17,-344.81 357.93,-337.85"/>
</g>
<!-- Node0x55e83ff000f8&#45;&gt;Node0x55e83fef7278 -->
<g id="edge19" class="edge">
<title>Node0x55e83ff000f8&#45;&gt;Node0x55e83fef7278</title>
<path fill="none" stroke="black" d="M1407.8,-349.01C1395.69,-349.09 1383.66,-349.17 1372,-349.23 1099.11,-350.56 1030.19,-364.79 758,-345.23 744.4,-344.25 730.24,-342.92 716.12,-341.4"/>
<polygon fill="black" stroke="black" points="716.18,-337.88 705.86,-340.25 715.41,-344.84 716.18,-337.88"/>
</g>
<!-- Node0x55e83ff000f8&#45;&gt;Node0x55e83ff08d48 -->
<g id="edge14" class="edge">
<title>Node0x55e83ff000f8&#45;&gt;Node0x55e83ff08d48</title>
<path fill="none" stroke="black" d="M1748.17,-333.84C1867.46,-324.4 2026.89,-311.78 2147.82,-302.21"/>
<polygon fill="black" stroke="black" points="2148.24,-305.69 2157.93,-301.41 2147.69,-298.71 2148.24,-305.69"/>
</g>
<!-- Node0x55e83ff000f8&#45;&gt;Node0x55e83ff09ec8 -->
<g id="edge15" class="edge">
<title>Node0x55e83ff000f8&#45;&gt;Node0x55e83ff09ec8</title>
<path fill="none" stroke="black" d="M1748.12,-345.63C1931.76,-342.89 2233.59,-335.45 2493,-315.23 2520.07,-313.12 2548.8,-310.34 2576.61,-307.36"/>
<polygon fill="black" stroke="black" points="2577.24,-310.82 2586.81,-306.26 2576.49,-303.86 2577.24,-310.82"/>
</g>
<!-- Node0x55e83ff000f8&#45;&gt;Node0x55e83ff008c8 -->
<g id="edge16" class="edge">
<title>Node0x55e83ff000f8&#45;&gt;Node0x55e83ff008c8</title>
<path fill="none" stroke="black" d="M1626.24,-329.12C1694.81,-302.83 1821.74,-254.17 1895.28,-225.97"/>
<polygon fill="black" stroke="black" points="1896.76,-229.15 1904.85,-222.3 1894.26,-222.61 1896.76,-229.15"/>
</g>
<!-- Node0x55e83ff00cd8 -->
<g id="node11" class="node">
<title>Node0x55e83ff00cd8</title>
<polygon fill="none" stroke="black" points="2094.5,-428.23 1811.5,-428.23 1811.5,-392.23 2094.5,-392.23 2094.5,-428.23"/>
<text text-anchor="middle" x="1953" y="-406.53" font-family="Times,serif" font-size="14.00">{lib/libLLVMJITLink.a(x86_64.cpp.o)}</text>
</g>
<!-- Node0x55e83ff000f8&#45;&gt;Node0x55e83ff00cd8 -->
<g id="edge17" class="edge">
<title>Node0x55e83ff000f8&#45;&gt;Node0x55e83ff00cd8</title>
<path fill="none" stroke="black" d="M1685.89,-365.28C1732.61,-373.17 1787.55,-382.45 1835.34,-390.52"/>
<polygon fill="black" stroke="black" points="1834.98,-394.01 1845.42,-392.22 1836.14,-387.11 1834.98,-394.01"/>
</g>
<!-- Node0x55e83ff015e8&#45;&gt;Node0x55e83fef6e68 -->
<g id="edge31" class="edge">
<title>Node0x55e83ff015e8&#45;&gt;Node0x55e83fef6e68</title>
<path fill="none" stroke="black" d="M1101.2,-211.22C1073.77,-207.49 1044.38,-204.12 1017,-202.23 902.16,-194.29 872.16,-187.48 758,-202.23 596.67,-223.06 563.58,-263.67 404,-295.23 390.66,-297.86 376.77,-300.32 362.8,-302.59"/>
<polygon fill="black" stroke="black" points="361.94,-299.18 352.62,-304.21 363.04,-306.1 361.94,-299.18"/>
</g>
<!-- Node0x55e83ff015e8&#45;&gt;Node0x55e83fef7278 -->
<g id="edge32" class="edge">
<title>Node0x55e83ff015e8&#45;&gt;Node0x55e83fef7278</title>
<path fill="none" stroke="black" d="M1089.45,-247.26C981.62,-263.19 824.74,-286.36 714.02,-302.72"/>
<polygon fill="black" stroke="black" points="713.5,-299.26 704.12,-304.18 714.52,-306.19 713.5,-299.26"/>
</g>
<!-- Node0x55e83ff015e8&#45;&gt;Node0x55e83ff08d48 -->
<g id="edge27" class="edge">
<title>Node0x55e83ff015e8&#45;&gt;Node0x55e83ff08d48</title>
<path fill="none" stroke="black" d="M1372.09,-237.65C1577.32,-248.55 1933.86,-267.48 2147.64,-278.83"/>
<polygon fill="black" stroke="black" points="2147.54,-282.33 2157.71,-279.37 2147.91,-275.34 2147.54,-282.33"/>
</g>
<!-- Node0x55e83ff015e8&#45;&gt;Node0x55e83ff000f8 -->
<g id="edge30" class="edge">
<title>Node0x55e83ff015e8&#45;&gt;Node0x55e83ff000f8</title>
<path fill="none" stroke="black" d="M1269.1,-247.28C1334.31,-268.44 1442.27,-303.49 1511.48,-325.96"/>
<polygon fill="black" stroke="black" points="1510.81,-329.42 1521.4,-329.18 1512.97,-322.76 1510.81,-329.42"/>
</g>
<!-- Node0x55e83ff015e8&#45;&gt;Node0x55e83ff09ec8 -->
<g id="edge28" class="edge">
<title>Node0x55e83ff015e8&#45;&gt;Node0x55e83ff09ec8</title>
<path fill="none" stroke="black" d="M1368.72,-211.21C1382,-209.8 1395.23,-208.46 1408,-207.23 1724.15,-176.74 1805.67,-148.68 2122,-177.23 2311.59,-194.34 2530.34,-240.78 2647.49,-267.86"/>
<polygon fill="black" stroke="black" points="2646.93,-271.33 2657.47,-270.18 2648.52,-264.51 2646.93,-271.33"/>
</g>
<!-- Node0x55e83ff015e8&#45;&gt;Node0x55e83ff008c8 -->
<g id="edge29" class="edge">
<title>Node0x55e83ff015e8&#45;&gt;Node0x55e83ff008c8</title>
<path fill="none" stroke="black" d="M1372.38,-223.85C1490.31,-219.86 1651.19,-214.41 1773.54,-210.27"/>
<polygon fill="black" stroke="black" points="1773.89,-213.76 1783.77,-209.92 1773.66,-206.76 1773.89,-213.76"/>
</g>
<!-- Node0x55e83ff09ec8&#45;&gt;Node0x55e83fef6e68 -->
<g id="edge21" class="edge">
<title>Node0x55e83ff09ec8&#45;&gt;Node0x55e83fef6e68</title>
<path fill="none" stroke="black" d="M2699.72,-270.21C2654.69,-245.76 2569.86,-202.13 2493,-176.23 2260.8,-97.96 2199.04,-60.23 1954,-60.23 886.5,-60.23 886.5,-60.23 886.5,-60.23 687.55,-60.23 587.8,40.95 440,-92.23 371.93,-153.56 470.14,-231.81 404,-295.23 399.79,-299.26 395.28,-302.89 390.54,-306.14"/>
<polygon fill="black" stroke="black" points="388.39,-303.35 381.75,-311.6 392.09,-309.3 388.39,-303.35"/>
</g>
<!-- Node0x55e83ff09ec8&#45;&gt;Node0x55e83fef7278 -->
<g id="edge22" class="edge">
<title>Node0x55e83ff09ec8&#45;&gt;Node0x55e83fef7278</title>
<path fill="none" stroke="black" d="M2686.27,-306.34C2586.01,-345.06 2338.51,-435.3 2122,-471.23 1522.93,-570.63 1345.07,-546.54 758,-391.23 713.48,-379.45 664.89,-359.85 630.07,-344.55"/>
<polygon fill="black" stroke="black" points="631.19,-341.22 620.63,-340.36 628.35,-347.61 631.19,-341.22"/>
</g>
<!-- Node0x55e83ff09ec8&#45;&gt;Node0x55e83ff08d48 -->
<g id="edge20" class="edge">
<title>Node0x55e83ff09ec8&#45;&gt;Node0x55e83ff08d48</title>
<path fill="none" stroke="black" d="M2528.91,-294.98C2520.41,-294.98 2511.9,-294.96 2503.46,-294.93"/>
<polygon fill="black" stroke="black" points="2503.2,-291.43 2493.19,-294.88 2503.17,-298.43 2503.2,-291.43"/>
</g>
<!-- Node0x55e83ff008c8&#45;&gt;Node0x55e83fef6e68 -->
<g id="edge24" class="edge">
<title>Node0x55e83ff008c8&#45;&gt;Node0x55e83fef6e68</title>
<path fill="none" stroke="black" d="M1911.94,-186.08C1871.5,-168.67 1806.77,-143.3 1748,-131.23 1514.86,-83.32 1451.51,-98.23 1213.5,-98.23 886.5,-98.23 886.5,-98.23 886.5,-98.23 682.64,-98.23 594.01,-69.67 440,-203.23 406.83,-231.99 438.53,-268.11 404,-295.23 399.78,-298.54 395.35,-301.55 390.75,-304.29"/>
<polygon fill="black" stroke="black" points="388.81,-301.36 381.71,-309.23 392.17,-307.51 388.81,-301.36"/>
</g>
<!-- Node0x55e83ff008c8&#45;&gt;Node0x55e83fef7278 -->
<g id="edge25" class="edge">
<title>Node0x55e83ff008c8&#45;&gt;Node0x55e83fef7278</title>
<path fill="none" stroke="black" d="M1860.94,-186.16C1657.55,-149.63 1153.17,-80.33 758,-202.23 698.06,-220.72 640.28,-267.39 608.12,-296.78"/>
<polygon fill="black" stroke="black" points="605.45,-294.48 600.5,-303.85 610.21,-299.61 605.45,-294.48"/>
</g>
<!-- Node0x55e83ff008c8&#45;&gt;Node0x55e83ff08d48 -->
<g id="edge23" class="edge">
<title>Node0x55e83ff008c8&#45;&gt;Node0x55e83ff08d48</title>
<path fill="none" stroke="black" d="M2098.91,-222.24C2106.73,-223.87 2114.47,-225.54 2122,-227.23 2174.2,-238.89 2233.39,-254.35 2274.24,-267.09"/>
<polygon fill="black" stroke="black" points="2273.37,-270.49 2283.96,-270.19 2275.49,-263.82 2273.37,-270.49"/>
</g>
<!-- Node0x55e83ff00cd8&#45;&gt;Node0x55e83fef7278 -->
<g id="edge26" class="edge">
<title>Node0x55e83ff00cd8&#45;&gt;Node0x55e83fef7278</title>
<path fill="none" stroke="black" d="M1811.07,-413.68C1586.92,-417.18 1135.9,-416.09 758,-364.23 723.6,-359.51 686.09,-351.03 654.58,-342.92"/>
<polygon fill="black" stroke="black" points="655.13,-339.45 644.57,-340.31 653.36,-346.22 655.13,-339.45"/>
</g>
</g>
</svg>
