<?xml version="1.0" encoding="UTF-8" standalone="no"?>
<!DOCTYPE svg PUBLIC "-//W3C//DTD SVG 1.1//EN"
 "http://www.w3.org/Graphics/SVG/1.1/DTD/svg11.dtd">
<!-- Generated by graphviz version 2.43.0 (0)
 -->
<!-- Title: bin/llvm&#45;objcopy_lib/libLLVMObject.a Pages: 1 -->
<svg width="2611pt" height="913pt"
 viewBox="0.00 0.00 2611.00 912.94" xmlns="http://www.w3.org/2000/svg" xmlns:xlink="http://www.w3.org/1999/xlink">
<g id="graph0" class="graph" transform="scale(1 1) rotate(0) translate(4 908.94)">
<title>bin/llvm&#45;objcopy_lib/libLLVMObject.a</title>
<polygon fill="white" stroke="transparent" points="-4,4 -4,-908.94 2607,-908.94 2607,4 -4,4"/>
<text text-anchor="middle" x="1301.5" y="-7.8" font-family="Times,serif" font-size="14.00">bin/llvm&#45;objcopy_lib/libLLVMObject.a</text>
<!-- Node0x55da6ccaefb8 -->
<g id="node1" class="node">
<title>Node0x55da6ccaefb8</title>
<polygon fill="#7fb2ff" stroke="black" points="710,-663 428,-663 428,-627 710,-627 710,-663"/>
<text text-anchor="middle" x="569" y="-641.3" font-family="Times,serif" font-size="14.00">{lib/libLLVMObject.a(Archive.cpp.o)}</text>
</g>
<!-- Node0x55da6ccaedd8 -->
<g id="node2" class="node">
<title>Node0x55da6ccaedd8</title>
<polygon fill="#7fb2ff" stroke="black" points="1025,-663 752,-663 752,-627 1025,-627 1025,-663"/>
<text text-anchor="middle" x="888.5" y="-641.3" font-family="Times,serif" font-size="14.00">{lib/libLLVMObject.a(Binary.cpp.o)}</text>
</g>
<!-- Node0x55da6ccaefb8&#45;&gt;Node0x55da6ccaedd8 -->
<g id="edge1" class="edge">
<title>Node0x55da6ccaefb8&#45;&gt;Node0x55da6ccaedd8</title>
<path fill="none" stroke="#7fb2ff" d="M710.18,-638.29C720.63,-638.24 731.19,-638.24 741.67,-638.27"/>
<polygon fill="#7fb2ff" stroke="#7fb2ff" points="741.68,-641.77 751.69,-638.31 741.71,-634.77 741.68,-641.77"/>
</g>
<!-- Node0x55da6ccaae18 -->
<g id="node3" class="node">
<title>Node0x55da6ccaae18</title>
<polygon fill="none" stroke="black" points="1021.5,-151 755.5,-151 755.5,-115 1021.5,-115 1021.5,-151"/>
<text text-anchor="middle" x="888.5" y="-129.3" font-family="Times,serif" font-size="14.00">{lib/libLLVMObject.a(Error.cpp.o)}</text>
</g>
<!-- Node0x55da6ccaefb8&#45;&gt;Node0x55da6ccaae18 -->
<g id="edge2" class="edge">
<title>Node0x55da6ccaefb8&#45;&gt;Node0x55da6ccaae18</title>
<path fill="none" stroke="black" d="M581.3,-626.78C629.04,-549.79 814.34,-250.98 870.97,-159.66"/>
<polygon fill="black" stroke="black" points="874.04,-161.35 876.34,-151 868.09,-157.66 874.04,-161.35"/>
</g>
<!-- Node0x55da6ccaedd8&#45;&gt;Node0x55da6ccaefb8 -->
<g id="edge6" class="edge">
<title>Node0x55da6ccaedd8&#45;&gt;Node0x55da6ccaefb8</title>
<path fill="none" stroke="#7fb2ff" d="M751.69,-651.69C741.28,-651.74 730.73,-651.76 720.23,-651.74"/>
<polygon fill="#7fb2ff" stroke="#7fb2ff" points="720.2,-648.24 710.18,-651.71 720.17,-655.24 720.2,-648.24"/>
</g>
<!-- Node0x55da6ccaedd8&#45;&gt;Node0x55da6ccaae18 -->
<g id="edge7" class="edge">
<title>Node0x55da6ccaedd8&#45;&gt;Node0x55da6ccaae18</title>
<path fill="none" stroke="black" d="M888.5,-626.67C888.5,-471.52 888.5,-316.37 888.5,-161.22"/>
<polygon fill="black" stroke="black" points="892,-161 888.5,-151 885,-161 892,-161"/>
</g>
<!-- Node0x55da6ccabe58 -->
<g id="node4" class="node">
<title>Node0x55da6ccabe58</title>
<polygon fill="#7fb2ff" stroke="black" points="1420,-555 1073,-555 1073,-519 1420,-519 1420,-555"/>
<text text-anchor="middle" x="1246.5" y="-533.3" font-family="Times,serif" font-size="14.00">{lib/libLLVMObject.a(MachOUniversal.cpp.o)}</text>
</g>
<!-- Node0x55da6ccaedd8&#45;&gt;Node0x55da6ccabe58 -->
<g id="edge8" class="edge">
<title>Node0x55da6ccaedd8&#45;&gt;Node0x55da6ccabe58</title>
<path fill="none" stroke="#7fb2ff" d="M916,-626.97C944.55,-612.27 991.24,-591.78 1031,-573 1044.52,-566.61 1048.68,-562.1 1063.07,-556.58"/>
<polygon fill="#7fb2ff" stroke="#7fb2ff" points="1064.56,-559.77 1072.87,-553.2 1062.28,-553.15 1064.56,-559.77"/>
</g>
<!-- Node0x55da6ccad1b8 -->
<g id="node5" class="node">
<title>Node0x55da6ccad1b8</title>
<polygon fill="#7fb2ff" stroke="black" points="1397,-663 1096,-663 1096,-627 1397,-627 1397,-663"/>
<text text-anchor="middle" x="1246.5" y="-641.3" font-family="Times,serif" font-size="14.00">{lib/libLLVMObject.a(Minidump.cpp.o)}</text>
</g>
<!-- Node0x55da6ccaedd8&#45;&gt;Node0x55da6ccad1b8 -->
<g id="edge9" class="edge">
<title>Node0x55da6ccaedd8&#45;&gt;Node0x55da6ccad1b8</title>
<path fill="none" stroke="#7fb2ff" d="M1025.1,-638.42C1044.86,-638.26 1065.35,-638.21 1085.52,-638.28"/>
<polygon fill="#7fb2ff" stroke="#7fb2ff" points="1085.7,-641.78 1095.72,-638.33 1085.74,-634.78 1085.7,-641.78"/>
</g>
<!-- Node0x55da6ccaa4b8 -->
<g id="node6" class="node">
<title>Node0x55da6ccaa4b8</title>
<polygon fill="#7fb2ff" stroke="black" points="1406.5,-349 1086.5,-349 1086.5,-313 1406.5,-313 1406.5,-349"/>
<text text-anchor="middle" x="1246.5" y="-327.3" font-family="Times,serif" font-size="14.00">{lib/libLLVMObject.a(SymbolicFile.cpp.o)}</text>
</g>
<!-- Node0x55da6ccaedd8&#45;&gt;Node0x55da6ccaa4b8 -->
<g id="edge10" class="edge">
<title>Node0x55da6ccaedd8&#45;&gt;Node0x55da6ccaa4b8</title>
<path fill="none" stroke="#7fb2ff" d="M906.67,-626.75C962.44,-573.06 1139.12,-416.89 1212.77,-355.76"/>
<polygon fill="#7fb2ff" stroke="#7fb2ff" points="1215.33,-358.19 1220.82,-349.13 1210.87,-352.79 1215.33,-358.19"/>
</g>
<!-- Node0x55da6cca59b8 -->
<g id="node7" class="node">
<title>Node0x55da6cca59b8</title>
<polygon fill="#7fb2ff" stroke="black" points="1410,-831 1083,-831 1083,-795 1410,-795 1410,-831"/>
<text text-anchor="middle" x="1246.5" y="-809.3" font-family="Times,serif" font-size="14.00">{lib/libLLVMObject.a(TapiUniversal.cpp.o)}</text>
</g>
<!-- Node0x55da6ccaedd8&#45;&gt;Node0x55da6cca59b8 -->
<g id="edge11" class="edge">
<title>Node0x55da6ccaedd8&#45;&gt;Node0x55da6cca59b8</title>
<path fill="none" stroke="#7fb2ff" d="M913.17,-663.11C945.07,-691.4 1005.02,-744.65 1067,-772 1088.3,-781.4 1112.18,-788.04 1135.38,-792.94"/>
<polygon fill="#7fb2ff" stroke="#7fb2ff" points="1134.78,-796.39 1145.27,-794.94 1136.17,-789.53 1134.78,-796.39"/>
</g>
<!-- Node0x55da6cca7808 -->
<g id="node8" class="node">
<title>Node0x55da6cca7808</title>
<polygon fill="#7fb2ff" stroke="black" points="1426,-609 1067,-609 1067,-573 1426,-573 1426,-609"/>
<text text-anchor="middle" x="1246.5" y="-587.3" font-family="Times,serif" font-size="14.00">{lib/libLLVMObject.a(WindowsResource.cpp.o)}</text>
</g>
<!-- Node0x55da6ccaedd8&#45;&gt;Node0x55da6cca7808 -->
<g id="edge12" class="edge">
<title>Node0x55da6ccaedd8&#45;&gt;Node0x55da6cca7808</title>
<path fill="none" stroke="#7fb2ff" d="M954.83,-626.99C985.23,-621.51 1022.18,-615.81 1056.49,-610.6"/>
<polygon fill="#7fb2ff" stroke="#7fb2ff" points="1057.2,-614.03 1066.56,-609.07 1056.15,-607.11 1057.2,-614.03"/>
</g>
<!-- Node0x55da6ccabe58&#45;&gt;Node0x55da6ccaefb8 -->
<g id="edge21" class="edge">
<title>Node0x55da6ccabe58&#45;&gt;Node0x55da6ccaefb8</title>
<path fill="none" stroke="#7fb2ff" d="M1124.97,-555.04C1105.58,-558 1085.73,-561.06 1067,-564 937.45,-584.35 789.08,-608.67 688.42,-625.31"/>
<polygon fill="#7fb2ff" stroke="#7fb2ff" points="687.82,-621.86 678.53,-626.95 688.97,-628.77 687.82,-621.86"/>
</g>
<!-- Node0x55da6ccabe58&#45;&gt;Node0x55da6ccaedd8 -->
<g id="edge22" class="edge">
<title>Node0x55da6ccabe58&#45;&gt;Node0x55da6ccaedd8</title>
<path fill="none" stroke="#7fb2ff" d="M1146.5,-555.02C1120.27,-559.34 1092.25,-565 1067,-573 1049.95,-578.4 1047.18,-583.36 1031,-591 1007.92,-601.9 982.5,-613.38 959.65,-623.05"/>
<polygon fill="#7fb2ff" stroke="#7fb2ff" points="958.24,-619.85 950.37,-626.94 960.94,-626.3 958.24,-619.85"/>
</g>
<!-- Node0x55da6ccabe58&#45;&gt;Node0x55da6ccaae18 -->
<g id="edge23" class="edge">
<title>Node0x55da6ccabe58&#45;&gt;Node0x55da6ccaae18</title>
<path fill="none" stroke="black" d="M1165.57,-518.88C1132.14,-508.16 1094.71,-491.7 1067,-467 968.79,-379.46 915.59,-224.37 897.09,-161.08"/>
<polygon fill="black" stroke="black" points="900.44,-160.05 894.33,-151.39 893.71,-161.97 900.44,-160.05"/>
</g>
<!-- Node0x55da6ccacfd8 -->
<g id="node9" class="node">
<title>Node0x55da6ccacfd8</title>
<polygon fill="#7fb2ff" stroke="black" points="1814,-609 1462,-609 1462,-573 1814,-573 1814,-609"/>
<text text-anchor="middle" x="1638" y="-587.3" font-family="Times,serif" font-size="14.00">{lib/libLLVMObject.a(MachOObjectFile.cpp.o)}</text>
</g>
<!-- Node0x55da6ccabe58&#45;&gt;Node0x55da6ccacfd8 -->
<g id="edge24" class="edge">
<title>Node0x55da6ccabe58&#45;&gt;Node0x55da6ccacfd8</title>
<path fill="none" stroke="#7fb2ff" d="M1377.47,-555.02C1415.75,-560.33 1457.8,-566.16 1496.7,-571.55"/>
<polygon fill="#7fb2ff" stroke="#7fb2ff" points="1496.66,-575.08 1507.04,-572.98 1497.62,-568.14 1496.66,-575.08"/>
</g>
<!-- Node0x55da6cca9018 -->
<g id="node10" class="node">
<title>Node0x55da6cca9018</title>
<polygon fill="#7fb2ff" stroke="black" points="1796.5,-555 1479.5,-555 1479.5,-519 1796.5,-519 1796.5,-555"/>
<text text-anchor="middle" x="1638" y="-533.3" font-family="Times,serif" font-size="14.00">{lib/libLLVMObject.a(IRObjectFile.cpp.o)}</text>
</g>
<!-- Node0x55da6ccabe58&#45;&gt;Node0x55da6cca9018 -->
<g id="edge25" class="edge">
<title>Node0x55da6ccabe58&#45;&gt;Node0x55da6cca9018</title>
<path fill="none" stroke="#7fb2ff" d="M1420.04,-537C1436.39,-537 1452.94,-537 1469.24,-537"/>
<polygon fill="#7fb2ff" stroke="#7fb2ff" points="1469.36,-540.5 1479.36,-537 1469.36,-533.5 1469.36,-540.5"/>
</g>
<!-- Node0x55da6ccad1b8&#45;&gt;Node0x55da6ccaedd8 -->
<g id="edge37" class="edge">
<title>Node0x55da6ccad1b8&#45;&gt;Node0x55da6ccaedd8</title>
<path fill="none" stroke="#7fb2ff" d="M1095.72,-651.67C1075.68,-651.78 1055.14,-651.77 1035.17,-651.65"/>
<polygon fill="#7fb2ff" stroke="#7fb2ff" points="1035.13,-648.15 1025.1,-651.58 1035.08,-655.15 1035.13,-648.15"/>
</g>
<!-- Node0x55da6ccad1b8&#45;&gt;Node0x55da6ccaae18 -->
<g id="edge38" class="edge">
<title>Node0x55da6ccad1b8&#45;&gt;Node0x55da6ccaae18</title>
<path fill="none" stroke="black" d="M1095.96,-635.27C1085.55,-630.8 1075.74,-625.14 1067,-618 920.33,-498.16 894.85,-245.86 890.43,-161.3"/>
<polygon fill="black" stroke="black" points="893.92,-161 889.96,-151.18 886.93,-161.33 893.92,-161"/>
</g>
<!-- Node0x55da6ccaa4b8&#45;&gt;Node0x55da6ccaedd8 -->
<g id="edge33" class="edge">
<title>Node0x55da6ccaa4b8&#45;&gt;Node0x55da6ccaedd8</title>
<path fill="none" stroke="#7fb2ff" d="M1228.35,-349.23C1172.63,-402.87 996.01,-559 922.3,-620.18"/>
<polygon fill="#7fb2ff" stroke="#7fb2ff" points="919.74,-617.76 914.25,-626.82 924.19,-623.16 919.74,-617.76"/>
</g>
<!-- Node0x55da6ccaa4b8&#45;&gt;Node0x55da6ccaae18 -->
<g id="edge34" class="edge">
<title>Node0x55da6ccaa4b8&#45;&gt;Node0x55da6ccaae18</title>
<path fill="none" stroke="black" d="M1101.83,-312.86C1089.75,-309.07 1077.98,-304.5 1067,-299 998.97,-264.9 938.69,-196.45 909.01,-158.98"/>
<polygon fill="black" stroke="black" points="911.73,-156.77 902.81,-151.04 906.21,-161.08 911.73,-156.77"/>
</g>
<!-- Node0x55da6ccaa4b8&#45;&gt;Node0x55da6cca9018 -->
<g id="edge35" class="edge">
<title>Node0x55da6ccaa4b8&#45;&gt;Node0x55da6cca9018</title>
<path fill="none" stroke="#7fb2ff" d="M1351.16,-349.08C1377.65,-359.12 1404.65,-373.18 1426,-392 1451.06,-414.1 1437.01,-435.82 1462,-458 1494.24,-486.62 1539.63,-504.32 1576.11,-515.98"/>
<polygon fill="#7fb2ff" stroke="#7fb2ff" points="1575.07,-519.33 1585.66,-518.97 1577.16,-512.65 1575.07,-519.33"/>
</g>
<!-- Node0x55da6cca8de8 -->
<g id="node11" class="node">
<title>Node0x55da6cca8de8</title>
<polygon fill="#7fb2ff" stroke="black" points="1789,-349 1487,-349 1487,-313 1789,-313 1789,-349"/>
<text text-anchor="middle" x="1638" y="-327.3" font-family="Times,serif" font-size="14.00">{lib/libLLVMObject.a(ObjectFile.cpp.o)}</text>
</g>
<!-- Node0x55da6ccaa4b8&#45;&gt;Node0x55da6cca8de8 -->
<g id="edge36" class="edge">
<title>Node0x55da6ccaa4b8&#45;&gt;Node0x55da6cca8de8</title>
<path fill="none" stroke="#7fb2ff" d="M1406.77,-324.35C1429.84,-324.22 1453.6,-324.22 1476.7,-324.34"/>
<polygon fill="#7fb2ff" stroke="#7fb2ff" points="1476.88,-327.85 1486.9,-324.41 1476.92,-320.85 1476.88,-327.85"/>
</g>
<!-- Node0x55da6cca59b8&#45;&gt;Node0x55da6ccaedd8 -->
<g id="edge39" class="edge">
<title>Node0x55da6cca59b8&#45;&gt;Node0x55da6ccaedd8</title>
<path fill="none" stroke="#7fb2ff" d="M1082.97,-796.38C1077.52,-794.41 1072.18,-792.29 1067,-790 1002.22,-761.42 939.66,-704.53 909.02,-670.93"/>
<polygon fill="#7fb2ff" stroke="#7fb2ff" points="911.54,-668.49 902.29,-663.32 906.3,-673.13 911.54,-668.49"/>
</g>
<!-- Node0x55da6cca7808&#45;&gt;Node0x55da6ccaedd8 -->
<g id="edge40" class="edge">
<title>Node0x55da6cca7808&#45;&gt;Node0x55da6ccaedd8</title>
<path fill="none" stroke="#7fb2ff" d="M1179.38,-609.06C1145.73,-615.07 1104.19,-621.36 1067,-627 1056.62,-628.57 1045.9,-630.2 1035.1,-631.82"/>
<polygon fill="#7fb2ff" stroke="#7fb2ff" points="1034.55,-628.37 1025.17,-633.3 1035.58,-635.29 1034.55,-628.37"/>
</g>
<!-- Node0x55da6cca7808&#45;&gt;Node0x55da6ccaae18 -->
<g id="edge41" class="edge">
<title>Node0x55da6cca7808&#45;&gt;Node0x55da6ccaae18</title>
<path fill="none" stroke="black" d="M1080.22,-572.94C1075.62,-570.26 1071.19,-567.29 1067,-564 934.12,-459.78 899.93,-239.07 891.83,-161.05"/>
<polygon fill="black" stroke="black" points="895.31,-160.62 890.85,-151.01 888.34,-161.3 895.31,-160.62"/>
</g>
<!-- Node0x55da6ccacfd8&#45;&gt;Node0x55da6ccaedd8 -->
<g id="edge17" class="edge">
<title>Node0x55da6ccacfd8&#45;&gt;Node0x55da6ccaedd8</title>
<path fill="none" stroke="#7fb2ff" d="M1601.95,-609.05C1561.01,-629.04 1490.62,-660.02 1426,-672 1278.17,-699.4 1103.76,-681.58 994.88,-664.63"/>
<polygon fill="#7fb2ff" stroke="#7fb2ff" points="995.3,-661.15 984.88,-663.05 994.21,-668.07 995.3,-661.15"/>
</g>
<!-- Node0x55da6ccacfd8&#45;&gt;Node0x55da6ccaae18 -->
<g id="edge18" class="edge">
<title>Node0x55da6ccacfd8&#45;&gt;Node0x55da6ccaae18</title>
<path fill="none" stroke="black" d="M1474.96,-572.78C1470.45,-570.15 1466.11,-567.23 1462,-564 1429.09,-538.15 1459.17,-502.51 1426,-477 1298.41,-378.85 1201.49,-517.46 1067,-429 967.38,-363.48 915.39,-220.98 897.17,-160.75"/>
<polygon fill="black" stroke="black" points="900.52,-159.76 894.34,-151.16 893.81,-161.74 900.52,-159.76"/>
</g>
<!-- Node0x55da6ccacfd8&#45;&gt;Node0x55da6ccaa4b8 -->
<g id="edge20" class="edge">
<title>Node0x55da6ccacfd8&#45;&gt;Node0x55da6ccaa4b8</title>
<path fill="none" stroke="#7fb2ff" d="M1473.7,-572.87C1469.61,-570.2 1465.69,-567.25 1462,-564 1418.6,-525.8 1461.15,-484.9 1426,-439 1395.42,-399.07 1345.49,-370.68 1306.2,-353.06"/>
<polygon fill="#7fb2ff" stroke="#7fb2ff" points="1307.54,-349.82 1296.98,-349.03 1304.74,-356.24 1307.54,-349.82"/>
</g>
<!-- Node0x55da6ccacfd8&#45;&gt;Node0x55da6cca8de8 -->
<g id="edge19" class="edge">
<title>Node0x55da6ccacfd8&#45;&gt;Node0x55da6cca8de8</title>
<path fill="none" stroke="#7fb2ff" d="M1462.15,-572.95C1457.57,-568.6 1453.48,-563.64 1450,-558 1399.8,-476.77 1522.7,-393.34 1593,-354.08"/>
<polygon fill="#7fb2ff" stroke="#7fb2ff" points="1595.05,-356.95 1602.13,-349.07 1591.68,-350.81 1595.05,-356.95"/>
</g>
<!-- Node0x55da6cca9018&#45;&gt;Node0x55da6ccaedd8 -->
<g id="edge49" class="edge">
<title>Node0x55da6cca9018&#45;&gt;Node0x55da6ccaedd8</title>
<path fill="none" stroke="#7fb2ff" d="M1479.41,-550.09C1473.12,-554.01 1467.26,-558.61 1462,-564 1375.56,-652.49 1518.96,-758.38 1426,-840 1306.1,-945.27 1212.94,-904.5 1067,-840 988.62,-805.36 929.96,-717.12 904.09,-672.19"/>
<polygon fill="#7fb2ff" stroke="#7fb2ff" points="907.03,-670.28 899.07,-663.29 900.94,-673.72 907.03,-670.28"/>
</g>
<!-- Node0x55da6cca9018&#45;&gt;Node0x55da6ccaae18 -->
<g id="edge50" class="edge">
<title>Node0x55da6cca9018&#45;&gt;Node0x55da6ccaae18</title>
<path fill="none" stroke="black" d="M1486.2,-518.91C1477.66,-515.03 1469.51,-510.43 1462,-505 1434.93,-485.42 1453.54,-457.93 1426,-439 1293.34,-347.82 1204.19,-475.22 1067,-391 976.71,-335.57 921.03,-215.03 899.58,-160.63"/>
<polygon fill="black" stroke="black" points="902.84,-159.34 895.98,-151.27 896.31,-161.86 902.84,-159.34"/>
</g>
<!-- Node0x55da6cca9018&#45;&gt;Node0x55da6ccaa4b8 -->
<g id="edge53" class="edge">
<title>Node0x55da6cca9018&#45;&gt;Node0x55da6ccaa4b8</title>
<path fill="none" stroke="#7fb2ff" d="M1536.28,-518.94C1510.01,-508.87 1483.17,-494.79 1462,-476 1437.01,-453.82 1451.06,-432.1 1426,-410 1393.34,-381.2 1347.45,-363.56 1310.38,-351.99"/>
<polygon fill="#7fb2ff" stroke="#7fb2ff" points="1311.25,-348.6 1300.67,-349.03 1309.21,-355.29 1311.25,-348.6"/>
</g>
<!-- Node0x55da6cca9018&#45;&gt;Node0x55da6cca8de8 -->
<g id="edge52" class="edge">
<title>Node0x55da6cca9018&#45;&gt;Node0x55da6cca8de8</title>
<path fill="none" stroke="#7fb2ff" d="M1638,-518.65C1638,-465.56 1638,-412.46 1638,-359.37"/>
<polygon fill="#7fb2ff" stroke="#7fb2ff" points="1641.5,-359.11 1638,-349.11 1634.5,-359.11 1641.5,-359.11"/>
</g>
<!-- Node0x55da6cca8708 -->
<g id="node12" class="node">
<title>Node0x55da6cca8708</title>
<polygon fill="none" stroke="black" points="2223,-831 1850,-831 1850,-795 2223,-795 2223,-831"/>
<text text-anchor="middle" x="2036.5" y="-809.3" font-family="Times,serif" font-size="14.00">{lib/libLLVMObject.a(ModuleSymbolTable.cpp.o)}</text>
</g>
<!-- Node0x55da6cca9018&#45;&gt;Node0x55da6cca8708 -->
<g id="edge51" class="edge">
<title>Node0x55da6cca9018&#45;&gt;Node0x55da6cca8708</title>
<path fill="none" stroke="black" d="M1795.02,-555.16C1801.57,-557.76 1807.92,-560.69 1814,-564 1912.76,-617.75 1989.22,-733.38 2020.32,-785.97"/>
<polygon fill="black" stroke="black" points="2017.37,-787.86 2025.43,-794.74 2023.42,-784.33 2017.37,-787.86"/>
</g>
<!-- Node0x55da6cca8de8&#45;&gt;Node0x55da6ccaae18 -->
<g id="edge43" class="edge">
<title>Node0x55da6cca8de8&#45;&gt;Node0x55da6ccaae18</title>
<path fill="none" stroke="black" d="M1581.57,-312.87C1539.33,-299.63 1479.51,-282.12 1426,-271 1268.39,-238.23 1220.73,-270.74 1067,-223 1015.81,-207.1 961.48,-177.42 926.61,-156.5"/>
<polygon fill="black" stroke="black" points="928.11,-153.32 917.75,-151.12 924.48,-159.3 928.11,-153.32"/>
</g>
<!-- Node0x55da6cca8de8&#45;&gt;Node0x55da6ccaa4b8 -->
<g id="edge47" class="edge">
<title>Node0x55da6cca8de8&#45;&gt;Node0x55da6ccaa4b8</title>
<path fill="none" stroke="#7fb2ff" d="M1486.9,-337.59C1464.03,-337.76 1440.3,-337.79 1417.05,-337.7"/>
<polygon fill="#7fb2ff" stroke="#7fb2ff" points="1416.78,-334.2 1406.77,-337.65 1416.75,-341.2 1416.78,-334.2"/>
</g>
<!-- Node0x55da6cca8de8&#45;&gt;Node0x55da6ccacfd8 -->
<g id="edge44" class="edge">
<title>Node0x55da6cca8de8&#45;&gt;Node0x55da6ccacfd8</title>
<path fill="none" stroke="#7fb2ff" d="M1598.08,-349.13C1525.83,-384.58 1385.49,-467.04 1438,-552 1442.45,-559.19 1447.81,-565.38 1453.87,-570.7"/>
<polygon fill="#7fb2ff" stroke="#7fb2ff" points="1451.87,-573.58 1461.91,-576.96 1456.18,-568.06 1451.87,-573.58"/>
</g>
<!-- Node0x55da6ccab368 -->
<g id="node13" class="node">
<title>Node0x55da6ccab368</title>
<polygon fill="#7fb2ff" stroke="black" points="2208,-349 1865,-349 1865,-313 2208,-313 2208,-349"/>
<text text-anchor="middle" x="2036.5" y="-327.3" font-family="Times,serif" font-size="14.00">{lib/libLLVMObject.a(COFFObjectFile.cpp.o)}</text>
</g>
<!-- Node0x55da6cca8de8&#45;&gt;Node0x55da6ccab368 -->
<g id="edge42" class="edge">
<title>Node0x55da6cca8de8&#45;&gt;Node0x55da6ccab368</title>
<path fill="none" stroke="#7fb2ff" d="M1789.18,-324.43C1810.57,-324.27 1832.74,-324.21 1854.64,-324.27"/>
<polygon fill="#7fb2ff" stroke="#7fb2ff" points="1854.66,-327.77 1864.67,-324.31 1854.68,-320.77 1854.66,-327.77"/>
</g>
<!-- Node0x55da6cca80c8 -->
<g id="node14" class="node">
<title>Node0x55da6cca80c8</title>
<polygon fill="#7fb2ff" stroke="black" points="2213,-295 1860,-295 1860,-259 2213,-259 2213,-295"/>
<text text-anchor="middle" x="2036.5" y="-273.3" font-family="Times,serif" font-size="14.00">{lib/libLLVMObject.a(XCOFFObjectFile.cpp.o)}</text>
</g>
<!-- Node0x55da6cca8de8&#45;&gt;Node0x55da6cca80c8 -->
<g id="edge45" class="edge">
<title>Node0x55da6cca8de8&#45;&gt;Node0x55da6cca80c8</title>
<path fill="none" stroke="#7fb2ff" d="M1728.97,-312.99C1764.93,-307.36 1807.75,-301.2 1849.81,-295.55"/>
<polygon fill="#7fb2ff" stroke="#7fb2ff" points="1850.45,-299 1859.9,-294.2 1849.53,-292.06 1850.45,-299"/>
</g>
<!-- Node0x55da6cca94c8 -->
<g id="node15" class="node">
<title>Node0x55da6cca94c8</title>
<polygon fill="#7fb2ff" stroke="black" points="2202,-403 1871,-403 1871,-367 2202,-367 2202,-403"/>
<text text-anchor="middle" x="2036.5" y="-381.3" font-family="Times,serif" font-size="14.00">{lib/libLLVMObject.a(ELFObjectFile.cpp.o)}</text>
</g>
<!-- Node0x55da6cca8de8&#45;&gt;Node0x55da6cca94c8 -->
<g id="edge46" class="edge">
<title>Node0x55da6cca8de8&#45;&gt;Node0x55da6cca94c8</title>
<path fill="none" stroke="#7fb2ff" d="M1789.18,-344.88C1838.09,-351.17 1891.15,-358.6 1935.45,-365.42"/>
<polygon fill="#7fb2ff" stroke="#7fb2ff" points="1934.93,-368.88 1945.35,-366.96 1936,-361.97 1934.93,-368.88"/>
</g>
<!-- Node0x55da6cca6fe8 -->
<g id="node16" class="node">
<title>Node0x55da6cca6fe8</title>
<polygon fill="#7fb2ff" stroke="black" points="2208.5,-471 1864.5,-471 1864.5,-435 2208.5,-435 2208.5,-471"/>
<text text-anchor="middle" x="2036.5" y="-449.3" font-family="Times,serif" font-size="14.00">{lib/libLLVMObject.a(WasmObjectFile.cpp.o)}</text>
</g>
<!-- Node0x55da6cca8de8&#45;&gt;Node0x55da6cca6fe8 -->
<g id="edge48" class="edge">
<title>Node0x55da6cca8de8&#45;&gt;Node0x55da6cca6fe8</title>
<path fill="none" stroke="#7fb2ff" d="M1698.66,-349.06C1740.47,-364.93 1797.96,-387.35 1850,-403 1888.83,-414.67 1933.15,-424.59 1968.73,-432.74"/>
<polygon fill="#7fb2ff" stroke="#7fb2ff" points="1967.99,-436.16 1978.52,-435 1969.56,-429.34 1967.99,-436.16"/>
</g>
<!-- Node0x55da6cca9d38 -->
<g id="node20" class="node">
<title>Node0x55da6cca9d38</title>
<polygon fill="none" stroke="black" points="2603,-831 2259,-831 2259,-795 2603,-795 2603,-831"/>
<text text-anchor="middle" x="2431" y="-809.3" font-family="Times,serif" font-size="14.00">{lib/libLLVMObject.a(RecordStreamer.cpp.o)}</text>
</g>
<!-- Node0x55da6cca8708&#45;&gt;Node0x55da6cca9d38 -->
<g id="edge54" class="edge">
<title>Node0x55da6cca8708&#45;&gt;Node0x55da6cca9d38</title>
<path fill="none" stroke="black" d="M2223.12,-813C2231.67,-813 2240.25,-813 2248.79,-813"/>
<polygon fill="black" stroke="black" points="2248.8,-816.5 2258.8,-813 2248.8,-809.5 2248.8,-816.5"/>
</g>
<!-- Node0x55da6ccab368&#45;&gt;Node0x55da6ccaae18 -->
<g id="edge13" class="edge">
<title>Node0x55da6ccab368&#45;&gt;Node0x55da6ccaae18</title>
<path fill="none" stroke="black" d="M1895.56,-312.96C1880.12,-310.28 1864.69,-307.29 1850,-304 1833.67,-300.34 1830.26,-296.94 1814,-293 1486.62,-213.74 1399.02,-221.75 1067,-165 1044.55,-161.16 1020.53,-156.92 997.64,-152.82"/>
<polygon fill="black" stroke="black" points="998.02,-149.33 987.56,-151.01 996.78,-156.22 998.02,-149.33"/>
</g>
<!-- Node0x55da6ccab368&#45;&gt;Node0x55da6ccaa4b8 -->
<g id="edge15" class="edge">
<title>Node0x55da6ccab368&#45;&gt;Node0x55da6ccaa4b8</title>
<path fill="none" stroke="#7fb2ff" d="M1909.82,-313C1878.58,-309.26 1845.13,-305.89 1814,-304 1657.84,-294.52 1618.14,-294.21 1462,-304 1435.14,-305.68 1406.51,-308.54 1379.19,-311.78"/>
<polygon fill="#7fb2ff" stroke="#7fb2ff" points="1378.7,-308.32 1369.19,-313 1379.54,-315.27 1378.7,-308.32"/>
</g>
<!-- Node0x55da6ccab368&#45;&gt;Node0x55da6cca8de8 -->
<g id="edge14" class="edge">
<title>Node0x55da6ccab368&#45;&gt;Node0x55da6cca8de8</title>
<path fill="none" stroke="#7fb2ff" d="M1864.67,-337.69C1842.99,-337.78 1820.86,-337.77 1799.35,-337.64"/>
<polygon fill="#7fb2ff" stroke="#7fb2ff" points="1799.21,-334.14 1789.18,-337.57 1799.16,-341.14 1799.21,-334.14"/>
</g>
<!-- Node0x55da6cca80c8&#45;&gt;Node0x55da6ccaae18 -->
<g id="edge56" class="edge">
<title>Node0x55da6cca80c8&#45;&gt;Node0x55da6ccaae18</title>
<path fill="none" stroke="black" d="M1997.31,-258.97C1953.95,-239.43 1880.58,-209.15 1814,-195 1488.58,-125.86 1398.84,-170.75 1067,-147 1055.56,-146.18 1043.7,-145.31 1031.8,-144.41"/>
<polygon fill="black" stroke="black" points="1032.03,-140.91 1021.79,-143.65 1031.5,-147.89 1032.03,-140.91"/>
</g>
<!-- Node0x55da6cca80c8&#45;&gt;Node0x55da6ccaa4b8 -->
<g id="edge58" class="edge">
<title>Node0x55da6cca80c8&#45;&gt;Node0x55da6ccaa4b8</title>
<path fill="none" stroke="#7fb2ff" d="M1859.68,-275.21C1745.97,-275.7 1594.91,-279.45 1462,-293 1422.71,-297.01 1379.78,-304.07 1342.72,-311.02"/>
<polygon fill="#7fb2ff" stroke="#7fb2ff" points="1341.6,-307.67 1332.43,-312.98 1342.91,-314.55 1341.6,-307.67"/>
</g>
<!-- Node0x55da6cca80c8&#45;&gt;Node0x55da6cca8de8 -->
<g id="edge57" class="edge">
<title>Node0x55da6cca80c8&#45;&gt;Node0x55da6cca8de8</title>
<path fill="none" stroke="#7fb2ff" d="M1945.35,-295.04C1902.17,-301.8 1849.14,-309.31 1799.41,-315.79"/>
<polygon fill="#7fb2ff" stroke="#7fb2ff" points="1798.65,-312.36 1789.18,-317.12 1799.55,-319.3 1798.65,-312.36"/>
</g>
<!-- Node0x55da6cca94c8&#45;&gt;Node0x55da6ccaedd8 -->
<g id="edge59" class="edge">
<title>Node0x55da6cca94c8&#45;&gt;Node0x55da6ccaedd8</title>
<path fill="none" stroke="#7fb2ff" d="M1881.77,-403.07C1870.02,-409.01 1859.18,-416.52 1850,-426 1789.6,-488.37 1875.22,-556.44 1814,-618 1690.15,-742.54 1600.84,-676.26 1426,-693 1267.17,-708.21 1225.17,-714.01 1067,-693 1027.97,-687.82 985.35,-676.49 951.66,-666.14"/>
<polygon fill="#7fb2ff" stroke="#7fb2ff" points="952.55,-662.75 941.96,-663.11 950.46,-669.43 952.55,-662.75"/>
</g>
<!-- Node0x55da6cca94c8&#45;&gt;Node0x55da6ccaae18 -->
<g id="edge61" class="edge">
<title>Node0x55da6cca94c8&#45;&gt;Node0x55da6ccaae18</title>
<path fill="none" stroke="black" d="M1870.88,-384.76C1714.07,-383.33 1496.86,-377.73 1462,-358 1436.9,-343.8 1450.58,-319.1 1426,-304 1289.09,-219.87 1216.71,-319.41 1067,-261 1006.64,-237.45 947.92,-188.47 915.45,-158.39"/>
<polygon fill="black" stroke="black" points="917.46,-155.48 907.78,-151.18 912.67,-160.58 917.46,-155.48"/>
</g>
<!-- Node0x55da6cca94c8&#45;&gt;Node0x55da6ccaa4b8 -->
<g id="edge63" class="edge">
<title>Node0x55da6cca94c8&#45;&gt;Node0x55da6ccaa4b8</title>
<path fill="none" stroke="#7fb2ff" d="M1870.71,-389.96C1851.59,-390.39 1832.37,-390.75 1814,-391 1657.57,-393.12 1609.98,-441.77 1462,-391 1442.83,-384.42 1444.51,-371.25 1426,-363 1416.52,-358.78 1406.52,-355.11 1396.3,-351.93"/>
<polygon fill="#7fb2ff" stroke="#7fb2ff" points="1397.01,-348.49 1386.43,-349.02 1395.03,-355.2 1397.01,-348.49"/>
</g>
<!-- Node0x55da6cca94c8&#45;&gt;Node0x55da6cca8de8 -->
<g id="edge62" class="edge">
<title>Node0x55da6cca94c8&#45;&gt;Node0x55da6cca8de8</title>
<path fill="none" stroke="#7fb2ff" d="M1870.65,-369.21C1825.94,-363.36 1778.89,-356.71 1738.96,-350.56"/>
<polygon fill="#7fb2ff" stroke="#7fb2ff" points="1739.39,-347.09 1728.97,-349.01 1738.32,-354.01 1739.39,-347.09"/>
</g>
<!-- Node0x55da6ccaab48 -->
<g id="node18" class="node">
<title>Node0x55da6ccaab48</title>
<polygon fill="none" stroke="black" points="2558.5,-151 2303.5,-151 2303.5,-115 2558.5,-115 2558.5,-151"/>
<text text-anchor="middle" x="2431" y="-129.3" font-family="Times,serif" font-size="14.00">{lib/libLLVMObject.a(ELF.cpp.o)}</text>
</g>
<!-- Node0x55da6cca94c8&#45;&gt;Node0x55da6ccaab48 -->
<g id="edge60" class="edge">
<title>Node0x55da6cca94c8&#45;&gt;Node0x55da6ccaab48</title>
<path fill="none" stroke="black" d="M2202.33,-367.3C2209.45,-364.58 2216.38,-361.49 2223,-358 2312.74,-310.62 2383.89,-208.52 2414.17,-159.86"/>
<polygon fill="black" stroke="black" points="2417.27,-161.5 2419.51,-151.14 2411.3,-157.84 2417.27,-161.5"/>
</g>
<!-- Node0x55da6cca6fe8&#45;&gt;Node0x55da6ccaedd8 -->
<g id="edge29" class="edge">
<title>Node0x55da6cca6fe8&#45;&gt;Node0x55da6ccaedd8</title>
<path fill="none" stroke="#7fb2ff" d="M2028.48,-471.24C2006.6,-525.16 1933.82,-683.74 1814,-743 1739.6,-779.79 1147.37,-763.71 1067,-743 1011.69,-728.75 955.19,-693.19 921.23,-669.07"/>
<polygon fill="#7fb2ff" stroke="#7fb2ff" points="923.25,-666.21 913.09,-663.2 919.15,-671.89 923.25,-666.21"/>
</g>
<!-- Node0x55da6cca6fe8&#45;&gt;Node0x55da6ccaae18 -->
<g id="edge30" class="edge">
<title>Node0x55da6cca6fe8&#45;&gt;Node0x55da6ccaae18</title>
<path fill="none" stroke="black" d="M1974.46,-471.08C1863.95,-500.08 1626.89,-544.74 1462,-451 1434.96,-435.63 1452.33,-407.55 1426,-391 1290.33,-305.75 1207.82,-434.43 1067,-358 983.37,-312.61 925.63,-209.46 901.77,-160.19"/>
<polygon fill="black" stroke="black" points="904.9,-158.62 897.45,-151.09 898.58,-161.62 904.9,-158.62"/>
</g>
<!-- Node0x55da6cca6fe8&#45;&gt;Node0x55da6ccaa4b8 -->
<g id="edge32" class="edge">
<title>Node0x55da6cca6fe8&#45;&gt;Node0x55da6ccaa4b8</title>
<path fill="none" stroke="#7fb2ff" d="M1864.16,-458.71C1720.37,-460.53 1528.18,-455.13 1462,-417 1437.01,-402.6 1450.13,-378.81 1426,-363 1420.56,-359.43 1414.83,-356.23 1408.9,-353.36"/>
<polygon fill="#7fb2ff" stroke="#7fb2ff" points="1409.98,-350.01 1399.42,-349.12 1407.12,-356.4 1409.98,-350.01"/>
</g>
<!-- Node0x55da6cca6fe8&#45;&gt;Node0x55da6cca8de8 -->
<g id="edge31" class="edge">
<title>Node0x55da6cca6fe8&#45;&gt;Node0x55da6cca8de8</title>
<path fill="none" stroke="#7fb2ff" d="M1902.14,-434.96C1884.5,-430.74 1866.74,-426.03 1850,-421 1787.6,-402.24 1717.37,-373.73 1675.72,-353.56"/>
<polygon fill="#7fb2ff" stroke="#7fb2ff" points="1677.04,-350.31 1666.53,-349.01 1673.94,-356.59 1677.04,-350.31"/>
</g>
<!-- Node0x55da6ccae888 -->
<g id="node17" class="node">
<title>Node0x55da6ccae888</title>
<polygon fill="none" stroke="black" points="359,-151 33,-151 33,-115 359,-115 359,-151"/>
<text text-anchor="middle" x="196" y="-129.3" font-family="Times,serif" font-size="14.00">{lib/libLLVMObject.a(ArchiveWriter.cpp.o)}</text>
</g>
<!-- Node0x55da6ccae888&#45;&gt;Node0x55da6ccaefb8 -->
<g id="edge3" class="edge">
<title>Node0x55da6ccae888&#45;&gt;Node0x55da6ccaefb8</title>
<path fill="none" stroke="black" d="M210.2,-151.22C266.1,-228.36 483.38,-528.23 549.08,-618.89"/>
<polygon fill="black" stroke="black" points="546.25,-620.95 554.95,-627 551.92,-616.84 546.25,-620.95"/>
</g>
<!-- Node0x55da6ccae888&#45;&gt;Node0x55da6ccaae18 -->
<g id="edge4" class="edge">
<title>Node0x55da6ccae888&#45;&gt;Node0x55da6ccaae18</title>
<path fill="none" stroke="black" d="M359.33,-133C476.49,-133 633.16,-133 745.39,-133"/>
<polygon fill="black" stroke="black" points="745.43,-136.5 755.43,-133 745.43,-129.5 745.43,-136.5"/>
</g>
<!-- Node0x55da6ccae888&#45;&gt;Node0x55da6ccaa4b8 -->
<g id="edge5" class="edge">
<title>Node0x55da6ccae888&#45;&gt;Node0x55da6ccaa4b8</title>
<path fill="none" stroke="black" d="M331.63,-114.99C534.82,-90.08 909.07,-53.78 1031,-106 1126.74,-147 1200.03,-254.05 1230.31,-304.27"/>
<polygon fill="black" stroke="black" points="1227.35,-306.14 1235.46,-312.95 1233.37,-302.57 1227.35,-306.14"/>
</g>
<!-- Node0x55da6ccaab48&#45;&gt;Node0x55da6ccaae18 -->
<g id="edge16" class="edge">
<title>Node0x55da6ccaab48&#45;&gt;Node0x55da6ccaae18</title>
<path fill="none" stroke="black" d="M2303.46,-133C2018.91,-133 1330.15,-133 1031.53,-133"/>
<polygon fill="black" stroke="black" points="1031.51,-129.5 1021.51,-133 1031.51,-136.5 1031.51,-129.5"/>
</g>
<!-- Node0x55da6cca67c8 -->
<g id="node19" class="node">
<title>Node0x55da6cca67c8</title>
<polygon fill="none" stroke="black" points="392,-663 0,-663 0,-627 392,-627 392,-663"/>
<text text-anchor="middle" x="196" y="-641.3" font-family="Times,serif" font-size="14.00">{lib/libLLVMObject.a(MachOUniversalWriter.cpp.o)}</text>
</g>
<!-- Node0x55da6cca67c8&#45;&gt;Node0x55da6ccaefb8 -->
<g id="edge26" class="edge">
<title>Node0x55da6cca67c8&#45;&gt;Node0x55da6ccaefb8</title>
<path fill="none" stroke="black" d="M392.01,-645C400.58,-645 409.12,-645 417.57,-645"/>
<polygon fill="black" stroke="black" points="417.82,-648.5 427.82,-645 417.82,-641.5 417.82,-648.5"/>
</g>
<!-- Node0x55da6cca67c8&#45;&gt;Node0x55da6ccaedd8 -->
<g id="edge27" class="edge">
<title>Node0x55da6cca67c8&#45;&gt;Node0x55da6ccaedd8</title>
<path fill="none" stroke="black" d="M328.09,-663.01C360.67,-666.74 395.55,-670.11 428,-672 553.12,-679.29 585.02,-681.45 710,-672 731.7,-670.36 754.76,-667.61 776.83,-664.47"/>
<polygon fill="black" stroke="black" points="777.5,-667.91 786.89,-663 776.49,-660.98 777.5,-667.91"/>
</g>
<!-- Node0x55da6cca67c8&#45;&gt;Node0x55da6ccacfd8 -->
<g id="edge28" class="edge">
<title>Node0x55da6cca67c8&#45;&gt;Node0x55da6ccacfd8</title>
<path fill="none" stroke="black" d="M267.42,-626.94C497.36,-569.56 1223.03,-401.37 1426,-510 1451.43,-523.61 1437.68,-548.48 1462,-564 1464.35,-565.5 1466.75,-566.92 1469.2,-568.28"/>
<polygon fill="black" stroke="black" points="1467.75,-571.47 1478.25,-572.9 1470.93,-565.24 1467.75,-571.47"/>
</g>
<!-- Node0x55da6cca8d48 -->
<g id="node21" class="node">
<title>Node0x55da6cca8d48</title>
<polygon fill="none" stroke="black" points="1787.5,-831 1488.5,-831 1488.5,-795 1787.5,-795 1787.5,-831"/>
<text text-anchor="middle" x="1638" y="-809.3" font-family="Times,serif" font-size="14.00">{lib/libLLVMObject.a(IRSymtab.cpp.o)}</text>
</g>
<!-- Node0x55da6cca8d48&#45;&gt;Node0x55da6cca8708 -->
<g id="edge55" class="edge">
<title>Node0x55da6cca8d48&#45;&gt;Node0x55da6cca8708</title>
<path fill="none" stroke="black" d="M1787.77,-813C1804.67,-813 1822.08,-813 1839.47,-813"/>
<polygon fill="black" stroke="black" points="1839.7,-816.5 1849.7,-813 1839.7,-809.5 1839.7,-816.5"/>
</g>
<!-- Node0x55da6cca60e8 -->
<g id="node22" class="node">
<title>Node0x55da6cca60e8</title>
<polygon fill="none" stroke="black" points="1031,-59 746,-59 746,-23 1031,-23 1031,-59"/>
<text text-anchor="middle" x="888.5" y="-37.3" font-family="Times,serif" font-size="14.00">{lib/libLLVMObject.a(TapiFile.cpp.o)}</text>
</g>
<!-- Node0x55da6cca60e8&#45;&gt;Node0x55da6ccaa4b8 -->
<g id="edge64" class="edge">
<title>Node0x55da6cca60e8&#45;&gt;Node0x55da6ccaa4b8</title>
<path fill="none" stroke="black" d="M1001.92,-59.11C1012.11,-62.9 1021.98,-67.47 1031,-73 1127.75,-132.29 1201.46,-250.74 1231.17,-303.98"/>
<polygon fill="black" stroke="black" points="1228.16,-305.77 1236.05,-312.84 1234.29,-302.39 1228.16,-305.77"/>
</g>
</g>
</svg>
