<?xml version="1.0" encoding="UTF-8" standalone="no"?>
<!DOCTYPE svg PUBLIC "-//W3C//DTD SVG 1.1//EN"
 "http://www.w3.org/Graphics/SVG/1.1/DTD/svg11.dtd">
<!-- Generated by graphviz version 2.43.0 (0)
 -->
<!-- Title: bin/opt_lib/libLLVMObjCARCOpts.a Pages: 1 -->
<svg width="2185pt" height="283pt"
 viewBox="0.00 0.00 2185.00 283.00" xmlns="http://www.w3.org/2000/svg" xmlns:xlink="http://www.w3.org/1999/xlink">
<g id="graph0" class="graph" transform="scale(1 1) rotate(0) translate(4 279)">
<title>bin/opt_lib/libLLVMObjCARCOpts.a</title>
<polygon fill="white" stroke="transparent" points="-4,4 -4,-279 2181,-279 2181,4 -4,4"/>
<text text-anchor="middle" x="1088.5" y="-7.8" font-family="Times,serif" font-size="14.00">bin/opt_lib/libLLVMObjCARCOpts.a</text>
<!-- Node0x55b70cc13ea8 -->
<g id="node1" class="node">
<title>Node0x55b70cc13ea8</title>
<polygon fill="#7fb2ff" stroke="black" points="347,-167 0,-167 0,-131 347,-131 347,-167"/>
<text text-anchor="middle" x="173.5" y="-145.3" font-family="Times,serif" font-size="14.00">{lib/libLLVMObjCARCOpts.a(ObjCARC.cpp.o)}</text>
</g>
<!-- Node0x55b70cc14628 -->
<g id="node2" class="node">
<title>Node0x55b70cc14628</title>
<polygon fill="#7fb2ff" stroke="black" points="819.5,-275 438.5,-275 438.5,-239 819.5,-239 819.5,-275"/>
<text text-anchor="middle" x="629" y="-253.3" font-family="Times,serif" font-size="14.00">{lib/libLLVMObjCARCOpts.a(ObjCARCOpts.cpp.o)}</text>
</g>
<!-- Node0x55b70cc13ea8&#45;&gt;Node0x55b70cc14628 -->
<g id="edge1" class="edge">
<title>Node0x55b70cc13ea8&#45;&gt;Node0x55b70cc14628</title>
<path fill="none" stroke="#7fb2ff" d="M228.55,-167.09C269.91,-183.9 328.87,-207.75 383,-221 412.72,-228.28 444.96,-233.6 475.98,-237.68"/>
<polygon fill="#7fb2ff" stroke="#7fb2ff" points="475.64,-241.17 486.01,-238.96 476.53,-234.22 475.64,-241.17"/>
</g>
<!-- Node0x55b70cc14da8 -->
<g id="node3" class="node">
<title>Node0x55b70cc14da8</title>
<polygon fill="none" stroke="black" points="829.5,-221 428.5,-221 428.5,-185 829.5,-185 829.5,-221"/>
<text text-anchor="middle" x="629" y="-199.3" font-family="Times,serif" font-size="14.00">{lib/libLLVMObjCARCOpts.a(ObjCARCExpand.cpp.o)}</text>
</g>
<!-- Node0x55b70cc13ea8&#45;&gt;Node0x55b70cc14da8 -->
<g id="edge2" class="edge">
<title>Node0x55b70cc13ea8&#45;&gt;Node0x55b70cc14da8</title>
<path fill="none" stroke="black" d="M310.72,-167.02C334.79,-170.1 359.62,-173.2 383,-176 404.84,-178.62 427.78,-181.27 450.51,-183.84"/>
<polygon fill="black" stroke="black" points="450.25,-187.34 460.58,-184.98 451.03,-180.38 450.25,-187.34"/>
</g>
<!-- Node0x55b70cc0b7f8 -->
<g id="node4" class="node">
<title>Node0x55b70cc0b7f8</title>
<polygon fill="none" stroke="black" points="829,-167 429,-167 429,-131 829,-131 829,-167"/>
<text text-anchor="middle" x="629" y="-145.3" font-family="Times,serif" font-size="14.00">{lib/libLLVMObjCARCOpts.a(ObjCARCAPElim.cpp.o)}</text>
</g>
<!-- Node0x55b70cc13ea8&#45;&gt;Node0x55b70cc0b7f8 -->
<g id="edge3" class="edge">
<title>Node0x55b70cc13ea8&#45;&gt;Node0x55b70cc0b7f8</title>
<path fill="none" stroke="black" d="M347.24,-149C370.57,-149 394.7,-149 418.58,-149"/>
<polygon fill="black" stroke="black" points="418.8,-152.5 428.8,-149 418.8,-145.5 418.8,-152.5"/>
</g>
<!-- Node0x55b70cc0b9d8 -->
<g id="node5" class="node">
<title>Node0x55b70cc0b9d8</title>
<polygon fill="#7fb2ff" stroke="black" points="834,-113 424,-113 424,-77 834,-77 834,-113"/>
<text text-anchor="middle" x="629" y="-91.3" font-family="Times,serif" font-size="14.00">{lib/libLLVMObjCARCOpts.a(ObjCARCContract.cpp.o)}</text>
</g>
<!-- Node0x55b70cc13ea8&#45;&gt;Node0x55b70cc0b9d8 -->
<g id="edge4" class="edge">
<title>Node0x55b70cc13ea8&#45;&gt;Node0x55b70cc0b9d8</title>
<path fill="none" stroke="#7fb2ff" d="M249.25,-130.96C288.96,-124.73 338.6,-118.32 383,-113 393.06,-111.79 403.36,-110.58 413.76,-109.38"/>
<polygon fill="#7fb2ff" stroke="#7fb2ff" points="414.23,-112.85 423.76,-108.23 413.43,-105.89 414.23,-112.85"/>
</g>
<!-- Node0x55b70cc112e8 -->
<g id="node6" class="node">
<title>Node0x55b70cc112e8</title>
<polygon fill="none" stroke="black" points="875,-59 383,-59 383,-23 875,-23 875,-59"/>
<text text-anchor="middle" x="629" y="-37.3" font-family="Times,serif" font-size="14.00">{lib/libLLVMObjCARCOpts.a(ProvenanceAnalysisEvaluator.cpp.o)}</text>
</g>
<!-- Node0x55b70cc13ea8&#45;&gt;Node0x55b70cc112e8 -->
<g id="edge5" class="edge">
<title>Node0x55b70cc13ea8&#45;&gt;Node0x55b70cc112e8</title>
<path fill="none" stroke="black" d="M212.34,-130.83C253.39,-111.95 321.33,-83.1 383,-68 393.77,-65.36 404.87,-62.98 416.12,-60.84"/>
<polygon fill="black" stroke="black" points="416.84,-64.26 426.04,-59.01 415.57,-57.38 416.84,-64.26"/>
</g>
<!-- Node0x55b70cc14628&#45;&gt;Node0x55b70cc13ea8 -->
<g id="edge6" class="edge">
<title>Node0x55b70cc14628&#45;&gt;Node0x55b70cc13ea8</title>
<path fill="none" stroke="#7fb2ff" d="M438.2,-250.02C419.44,-247 400.77,-243.35 383,-239 319.49,-223.45 249.32,-193.31 208.73,-171.94"/>
<polygon fill="#7fb2ff" stroke="#7fb2ff" points="210.26,-168.79 199.8,-167.12 206.94,-174.95 210.26,-168.79"/>
</g>
<!-- Node0x55b70cc11068 -->
<g id="node7" class="node">
<title>Node0x55b70cc11068</title>
<polygon fill="none" stroke="black" points="1717,-124 1289,-124 1289,-88 1717,-88 1717,-124"/>
<text text-anchor="middle" x="1503" y="-102.3" font-family="Times,serif" font-size="14.00">{lib/libLLVMObjCARCOpts.a(DependencyAnalysis.cpp.o)}</text>
</g>
<!-- Node0x55b70cc14628&#45;&gt;Node0x55b70cc11068 -->
<g id="edge7" class="edge">
<title>Node0x55b70cc14628&#45;&gt;Node0x55b70cc11068</title>
<path fill="none" stroke="black" d="M809.86,-238.96C831.84,-236.23 853.96,-233.23 875,-230 1067.55,-200.41 1290.89,-153.08 1412.23,-126.27"/>
<polygon fill="black" stroke="black" points="1413.21,-129.63 1422.22,-124.06 1411.7,-122.8 1413.21,-129.63"/>
</g>
<!-- Node0x55b70cc12058 -->
<g id="node8" class="node">
<title>Node0x55b70cc12058</title>
<polygon fill="none" stroke="black" points="1253,-143 911,-143 911,-107 1253,-107 1253,-143"/>
<text text-anchor="middle" x="1082" y="-121.3" font-family="Times,serif" font-size="14.00">{lib/libLLVMObjCARCOpts.a(PtrState.cpp.o)}</text>
</g>
<!-- Node0x55b70cc14628&#45;&gt;Node0x55b70cc12058 -->
<g id="edge8" class="edge">
<title>Node0x55b70cc14628&#45;&gt;Node0x55b70cc12058</title>
<path fill="none" stroke="black" d="M819.81,-247.36C838.86,-243.07 857.58,-237.41 875,-230 894.16,-221.85 893.3,-210.98 911,-200 945.56,-178.57 987.3,-160.06 1020.78,-146.79"/>
<polygon fill="black" stroke="black" points="1022.39,-149.91 1030.43,-143.01 1019.84,-143.39 1022.39,-149.91"/>
</g>
<!-- Node0x55b70cc0b9d8&#45;&gt;Node0x55b70cc13ea8 -->
<g id="edge9" class="edge">
<title>Node0x55b70cc0b9d8&#45;&gt;Node0x55b70cc13ea8</title>
<path fill="none" stroke="#7fb2ff" d="M534.3,-113.03C488.63,-118.84 432.92,-125.02 383,-131 374.51,-132.02 365.82,-133.08 357.05,-134.15"/>
<polygon fill="#7fb2ff" stroke="#7fb2ff" points="356.62,-130.68 347.12,-135.37 357.47,-137.62 356.62,-130.68"/>
</g>
<!-- Node0x55b70cc0b9d8&#45;&gt;Node0x55b70cc11068 -->
<g id="edge10" class="edge">
<title>Node0x55b70cc0b9d8&#45;&gt;Node0x55b70cc11068</title>
<path fill="none" stroke="black" d="M834.14,-94.58C955.78,-94.68 1113.23,-95.42 1253,-98 1261.39,-98.15 1269.94,-98.33 1278.58,-98.53"/>
<polygon fill="black" stroke="black" points="1278.67,-102.03 1288.75,-98.77 1278.84,-95.03 1278.67,-102.03"/>
</g>
<!-- Node0x55b70cc10988 -->
<g id="node9" class="node">
<title>Node0x55b70cc10988</title>
<polygon fill="none" stroke="black" points="2177,-91 1753,-91 1753,-55 2177,-55 2177,-91"/>
<text text-anchor="middle" x="1965" y="-69.3" font-family="Times,serif" font-size="14.00">{lib/libLLVMObjCARCOpts.a(ProvenanceAnalysis.cpp.o)}</text>
</g>
<!-- Node0x55b70cc112e8&#45;&gt;Node0x55b70cc10988 -->
<g id="edge11" class="edge">
<title>Node0x55b70cc112e8&#45;&gt;Node0x55b70cc10988</title>
<path fill="none" stroke="black" d="M875.06,-46.88C1123.16,-52.83 1503.39,-61.95 1742.63,-67.69"/>
<polygon fill="black" stroke="black" points="1742.77,-71.19 1752.85,-67.94 1742.94,-64.2 1742.77,-71.19"/>
</g>
<!-- Node0x55b70cc11068&#45;&gt;Node0x55b70cc10988 -->
<g id="edge12" class="edge">
<title>Node0x55b70cc11068&#45;&gt;Node0x55b70cc10988</title>
<path fill="none" stroke="black" d="M1717.17,-90.71C1725.7,-90.1 1734.26,-89.48 1742.8,-88.87"/>
<polygon fill="black" stroke="black" points="1743.1,-92.36 1752.83,-88.15 1742.6,-85.37 1743.1,-92.36"/>
</g>
<!-- Node0x55b70cc12058&#45;&gt;Node0x55b70cc11068 -->
<g id="edge13" class="edge">
<title>Node0x55b70cc12058&#45;&gt;Node0x55b70cc11068</title>
<path fill="none" stroke="black" d="M1253.12,-117.29C1261.59,-116.9 1270.16,-116.51 1278.75,-116.12"/>
<polygon fill="black" stroke="black" points="1279.02,-119.62 1288.85,-115.67 1278.7,-112.62 1279.02,-119.62"/>
</g>
</g>
</svg>
