<?xml version="1.0" encoding="UTF-8" standalone="no"?>
<!DOCTYPE svg PUBLIC "-//W3C//DTD SVG 1.1//EN"
 "http://www.w3.org/Graphics/SVG/1.1/DTD/svg11.dtd">
<!-- Generated by graphviz version 2.43.0 (0)
 -->
<!-- Title: bin/llvm&#45;link_lib/libLLVMAnalysis.a Pages: 1 -->
<svg width="918pt" height="3091pt"
 viewBox="0.00 0.00 918.00 3091.00" xmlns="http://www.w3.org/2000/svg" xmlns:xlink="http://www.w3.org/1999/xlink">
<g id="graph0" class="graph" transform="scale(1 1) rotate(0) translate(4 3087)">
<title>bin/llvm&#45;link_lib/libLLVMAnalysis.a</title>
<polygon fill="white" stroke="transparent" points="-4,4 -4,-3087 914,-3087 914,4 -4,4"/>
<text text-anchor="middle" x="455" y="-7.8" font-family="Times,serif" font-size="14.00">bin/llvm&#45;link_lib/libLLVMAnalysis.a</text>
<!-- Node0x55f73c17ebe8 -->
<g id="node1" class="node">
<title>Node0x55f73c17ebe8</title>
<polygon fill="none" stroke="black" points="440,-59 18,-59 18,-23 440,-23 440,-59"/>
<text text-anchor="middle" x="229" y="-37.3" font-family="Times,serif" font-size="14.00">{lib/libLLVMAnalysis.a(ModuleSummaryAnalysis.cpp.o)}</text>
</g>
<!-- Node0x55f73c1803a8 -->
<g id="node2" class="node">
<title>Node0x55f73c1803a8</title>
<polygon fill="none" stroke="black" points="393.5,-113 64.5,-113 64.5,-77 393.5,-77 393.5,-113"/>
<text text-anchor="middle" x="229" y="-91.3" font-family="Times,serif" font-size="14.00">{lib/libLLVMAnalysis.a(MemorySSA.cpp.o)}</text>
</g>
<!-- Node0x55f73c17ff98 -->
<g id="node3" class="node">
<title>Node0x55f73c17ff98</title>
<polygon fill="none" stroke="black" points="385.5,-167 72.5,-167 72.5,-131 385.5,-131 385.5,-167"/>
<text text-anchor="middle" x="229" y="-145.3" font-family="Times,serif" font-size="14.00">{lib/libLLVMAnalysis.a(CallGraph.cpp.o)}</text>
</g>
<!-- Node0x55f73c1879c8 -->
<g id="node4" class="node">
<title>Node0x55f73c1879c8</title>
<polygon fill="none" stroke="black" points="396.5,-221 61.5,-221 61.5,-185 396.5,-185 396.5,-221"/>
<text text-anchor="middle" x="229" y="-199.3" font-family="Times,serif" font-size="14.00">{lib/libLLVMAnalysis.a(AliasAnalysis.cpp.o)}</text>
</g>
<!-- Node0x55f73c183788 -->
<g id="node5" class="node">
<title>Node0x55f73c183788</title>
<polygon fill="none" stroke="black" points="430,-275 28,-275 28,-239 430,-239 430,-275"/>
<text text-anchor="middle" x="229" y="-253.3" font-family="Times,serif" font-size="14.00">{lib/libLLVMAnalysis.a(AssumeBundleQueries.cpp.o)}</text>
</g>
<!-- Node0x55f73c183dc8 -->
<g id="node6" class="node">
<title>Node0x55f73c183dc8</title>
<polygon fill="none" stroke="black" points="413,-329 45,-329 45,-293 413,-293 413,-329"/>
<text text-anchor="middle" x="229" y="-307.3" font-family="Times,serif" font-size="14.00">{lib/libLLVMAnalysis.a(AssumptionCache.cpp.o)}</text>
</g>
<!-- Node0x55f73c184a48 -->
<g id="node7" class="node">
<title>Node0x55f73c184a48</title>
<polygon fill="none" stroke="black" points="415.5,-383 42.5,-383 42.5,-347 415.5,-347 415.5,-383"/>
<text text-anchor="middle" x="229" y="-361.3" font-family="Times,serif" font-size="14.00">{lib/libLLVMAnalysis.a(BasicAliasAnalysis.cpp.o)}</text>
</g>
<!-- Node0x55f73c184368 -->
<g id="node8" class="node">
<title>Node0x55f73c184368</title>
<polygon fill="none" stroke="black" points="420.5,-437 37.5,-437 37.5,-401 420.5,-401 420.5,-437"/>
<text text-anchor="middle" x="229" y="-415.3" font-family="Times,serif" font-size="14.00">{lib/libLLVMAnalysis.a(BlockFrequencyInfo.cpp.o)}</text>
</g>
<!-- Node0x55f73c1806c8 -->
<g id="node9" class="node">
<title>Node0x55f73c1806c8</title>
<polygon fill="none" stroke="black" points="910,-437 494,-437 494,-401 910,-401 910,-437"/>
<text text-anchor="middle" x="702" y="-415.3" font-family="Times,serif" font-size="14.00">{lib/libLLVMAnalysis.a(BlockFrequencyInfoImpl.cpp.o)}</text>
</g>
<!-- Node0x55f73c184368&#45;&gt;Node0x55f73c1806c8 -->
<g id="edge1" class="edge">
<title>Node0x55f73c184368&#45;&gt;Node0x55f73c1806c8</title>
<path fill="none" stroke="black" d="M420.56,-419C441.37,-419 462.67,-419 483.78,-419"/>
<polygon fill="black" stroke="black" points="483.79,-422.5 493.79,-419 483.79,-415.5 483.79,-422.5"/>
</g>
<!-- Node0x55f73c182568 -->
<g id="node10" class="node">
<title>Node0x55f73c182568</title>
<polygon fill="none" stroke="black" points="428,-491 30,-491 30,-455 428,-455 428,-491"/>
<text text-anchor="middle" x="229" y="-469.3" font-family="Times,serif" font-size="14.00">{lib/libLLVMAnalysis.a(BranchProbabilityInfo.cpp.o)}</text>
</g>
<!-- Node0x55f73c181de8 -->
<g id="node11" class="node">
<title>Node0x55f73c181de8</title>
<polygon fill="none" stroke="black" points="365,-545 93,-545 93,-509 365,-509 365,-545"/>
<text text-anchor="middle" x="229" y="-523.3" font-family="Times,serif" font-size="14.00">{lib/libLLVMAnalysis.a(CFG.cpp.o)}</text>
</g>
<!-- Node0x55f73c181f78 -->
<g id="node12" class="node">
<title>Node0x55f73c181f78</title>
<polygon fill="none" stroke="black" points="436,-599 22,-599 22,-563 436,-563 436,-599"/>
<text text-anchor="middle" x="229" y="-577.3" font-family="Times,serif" font-size="14.00">{lib/libLLVMAnalysis.a(CFLAndersAliasAnalysis.cpp.o)}</text>
</g>
<!-- Node0x55f73c180678 -->
<g id="node13" class="node">
<title>Node0x55f73c180678</title>
<polygon fill="none" stroke="black" points="435.5,-653 22.5,-653 22.5,-617 435.5,-617 435.5,-653"/>
<text text-anchor="middle" x="229" y="-631.3" font-family="Times,serif" font-size="14.00">{lib/libLLVMAnalysis.a(CFLSteensAliasAnalysis.cpp.o)}</text>
</g>
<!-- Node0x55f73c17f318 -->
<g id="node14" class="node">
<title>Node0x55f73c17f318</title>
<polygon fill="none" stroke="black" points="409.5,-707 48.5,-707 48.5,-671 409.5,-671 409.5,-707"/>
<text text-anchor="middle" x="229" y="-685.3" font-family="Times,serif" font-size="14.00">{lib/libLLVMAnalysis.a(CaptureTracking.cpp.o)}</text>
</g>
<!-- Node0x55f73c17eb48 -->
<g id="node15" class="node">
<title>Node0x55f73c17eb48</title>
<polygon fill="none" stroke="black" points="408.5,-761 49.5,-761 49.5,-725 408.5,-725 408.5,-761"/>
<text text-anchor="middle" x="229" y="-739.3" font-family="Times,serif" font-size="14.00">{lib/libLLVMAnalysis.a(ConstantFolding.cpp.o)}</text>
</g>
<!-- Node0x55f73c17e698 -->
<g id="node16" class="node">
<title>Node0x55f73c17e698</title>
<polygon fill="none" stroke="black" points="423,-815 35,-815 35,-779 423,-779 423,-815"/>
<text text-anchor="middle" x="229" y="-793.3" font-family="Times,serif" font-size="14.00">{lib/libLLVMAnalysis.a(DependenceAnalysis.cpp.o)}</text>
</g>
<!-- Node0x55f73c180948 -->
<g id="node17" class="node">
<title>Node0x55f73c180948</title>
<polygon fill="none" stroke="black" points="411,-869 47,-869 47,-833 411,-833 411,-869"/>
<text text-anchor="middle" x="229" y="-847.3" font-family="Times,serif" font-size="14.00">{lib/libLLVMAnalysis.a(DomTreeUpdater.cpp.o)}</text>
</g>
<!-- Node0x55f73c180b78 -->
<g id="node18" class="node">
<title>Node0x55f73c180b78</title>
<polygon fill="none" stroke="black" points="407,-923 51,-923 51,-887 407,-887 407,-923"/>
<text text-anchor="middle" x="229" y="-901.3" font-family="Times,serif" font-size="14.00">{lib/libLLVMAnalysis.a(EHPersonalities.cpp.o)}</text>
</g>
<!-- Node0x55f73c181938 -->
<g id="node19" class="node">
<title>Node0x55f73c181938</title>
<polygon fill="none" stroke="black" points="403.5,-977 54.5,-977 54.5,-941 403.5,-941 403.5,-977"/>
<text text-anchor="middle" x="229" y="-955.3" font-family="Times,serif" font-size="14.00">{lib/libLLVMAnalysis.a(GlobalsModRef.cpp.o)}</text>
</g>
<!-- Node0x55f73c181a78 -->
<g id="node20" class="node">
<title>Node0x55f73c181a78</title>
<polygon fill="none" stroke="black" points="389,-1031 69,-1031 69,-995 389,-995 389,-1031"/>
<text text-anchor="middle" x="229" y="-1009.3" font-family="Times,serif" font-size="14.00">{lib/libLLVMAnalysis.a(GuardUtils.cpp.o)}</text>
</g>
<!-- Node0x55f73c182798 -->
<g id="node21" class="node">
<title>Node0x55f73c182798</title>
<polygon fill="none" stroke="black" points="417.5,-1085 40.5,-1085 40.5,-1049 417.5,-1049 417.5,-1085"/>
<text text-anchor="middle" x="229" y="-1063.3" font-family="Times,serif" font-size="14.00">{lib/libLLVMAnalysis.a(InstructionSimplify.cpp.o)}</text>
</g>
<!-- Node0x55f73c182ab8 -->
<g id="node22" class="node">
<title>Node0x55f73c182ab8</title>
<polygon fill="none" stroke="black" points="409.5,-1139 48.5,-1139 48.5,-1103 409.5,-1103 409.5,-1139"/>
<text text-anchor="middle" x="229" y="-1117.3" font-family="Times,serif" font-size="14.00">{lib/libLLVMAnalysis.a(CmpInstAnalysis.cpp.o)}</text>
</g>
<!-- Node0x55f73c182f18 -->
<g id="node23" class="node">
<title>Node0x55f73c182f18</title>
<polygon fill="none" stroke="black" points="380.5,-1193 77.5,-1193 77.5,-1157 380.5,-1157 380.5,-1193"/>
<text text-anchor="middle" x="229" y="-1171.3" font-family="Times,serif" font-size="14.00">{lib/libLLVMAnalysis.a(LoopInfo.cpp.o)}</text>
</g>
<!-- Node0x55f73c183ff8 -->
<g id="node24" class="node">
<title>Node0x55f73c183ff8</title>
<polygon fill="none" stroke="black" points="398.5,-1247 59.5,-1247 59.5,-1211 398.5,-1211 398.5,-1247"/>
<text text-anchor="middle" x="229" y="-1225.3" font-family="Times,serif" font-size="14.00">{lib/libLLVMAnalysis.a(IVDescriptors.cpp.o)}</text>
</g>
<!-- Node0x55f73c183c38 -->
<g id="node25" class="node">
<title>Node0x55f73c183c38</title>
<polygon fill="none" stroke="black" points="402,-1301 56,-1301 56,-1265 402,-1265 402,-1301"/>
<text text-anchor="middle" x="229" y="-1279.3" font-family="Times,serif" font-size="14.00">{lib/libLLVMAnalysis.a(DemandedBits.cpp.o)}</text>
</g>
<!-- Node0x55f73c184318 -->
<g id="node26" class="node">
<title>Node0x55f73c184318</title>
<polygon fill="none" stroke="black" points="413,-1355 45,-1355 45,-1319 413,-1319 413,-1355"/>
<text text-anchor="middle" x="229" y="-1333.3" font-family="Times,serif" font-size="14.00">{lib/libLLVMAnalysis.a(LoopNestAnalysis.cpp.o)}</text>
</g>
<!-- Node0x55f73c185588 -->
<g id="node27" class="node">
<title>Node0x55f73c185588</title>
<polygon fill="none" stroke="black" points="383,-1409 75,-1409 75,-1373 383,-1373 383,-1409"/>
<text text-anchor="middle" x="229" y="-1387.3" font-family="Times,serif" font-size="14.00">{lib/libLLVMAnalysis.a(LoopPass.cpp.o)}</text>
</g>
<!-- Node0x55f73c181118 -->
<g id="node28" class="node">
<title>Node0x55f73c181118</title>
<polygon fill="none" stroke="black" points="407,-1463 51,-1463 51,-1427 407,-1427 407,-1463"/>
<text text-anchor="middle" x="229" y="-1441.3" font-family="Times,serif" font-size="14.00">{lib/libLLVMAnalysis.a(MemoryBuiltins.cpp.o)}</text>
</g>
<!-- Node0x55f73c17f548 -->
<g id="node29" class="node">
<title>Node0x55f73c17f548</title>
<polygon fill="none" stroke="black" points="452.5,-1517 5.5,-1517 5.5,-1481 452.5,-1481 452.5,-1517"/>
<text text-anchor="middle" x="229" y="-1495.3" font-family="Times,serif" font-size="14.00">{lib/libLLVMAnalysis.a(MemoryDependenceAnalysis.cpp.o)}</text>
</g>
<!-- Node0x55f73c17f728 -->
<g id="node30" class="node">
<title>Node0x55f73c17f728</title>
<polygon fill="none" stroke="black" points="409.5,-1571 48.5,-1571 48.5,-1535 409.5,-1535 409.5,-1571"/>
<text text-anchor="middle" x="229" y="-1549.3" font-family="Times,serif" font-size="14.00">{lib/libLLVMAnalysis.a(MemoryLocation.cpp.o)}</text>
</g>
<!-- Node0x55f73c17e058 -->
<g id="node31" class="node">
<title>Node0x55f73c17e058</title>
<polygon fill="none" stroke="black" points="422,-1625 36,-1625 36,-1589 422,-1589 422,-1625"/>
<text text-anchor="middle" x="229" y="-1603.3" font-family="Times,serif" font-size="14.00">{lib/libLLVMAnalysis.a(MemorySSAUpdater.cpp.o)}</text>
</g>
<!-- Node0x55f73c17ef08 -->
<g id="node32" class="node">
<title>Node0x55f73c17ef08</title>
<polygon fill="none" stroke="black" points="458,-1679 0,-1679 0,-1643 458,-1643 458,-1679"/>
<text text-anchor="middle" x="229" y="-1657.3" font-family="Times,serif" font-size="14.00">{lib/libLLVMAnalysis.a(IndirectCallPromotionAnalysis.cpp.o)}</text>
</g>
<!-- Node0x55f73c1869d8 -->
<g id="node33" class="node">
<title>Node0x55f73c1869d8</title>
<polygon fill="none" stroke="black" points="429.5,-1733 28.5,-1733 28.5,-1697 429.5,-1697 429.5,-1733"/>
<text text-anchor="middle" x="229" y="-1711.3" font-family="Times,serif" font-size="14.00">{lib/libLLVMAnalysis.a(ObjCARCAliasAnalysis.cpp.o)}</text>
</g>
<!-- Node0x55f73c187ab8 -->
<g id="node34" class="node">
<title>Node0x55f73c187ab8</title>
<polygon fill="none" stroke="black" points="902.5,-1733 501.5,-1733 501.5,-1697 902.5,-1697 902.5,-1733"/>
<text text-anchor="middle" x="702" y="-1711.3" font-family="Times,serif" font-size="14.00">{lib/libLLVMAnalysis.a(ObjCARCAnalysisUtils.cpp.o)}</text>
</g>
<!-- Node0x55f73c1869d8&#45;&gt;Node0x55f73c187ab8 -->
<g id="edge2" class="edge">
<title>Node0x55f73c1869d8&#45;&gt;Node0x55f73c187ab8</title>
<path fill="none" stroke="black" d="M429.75,-1715C450.11,-1715 470.83,-1715 491.3,-1715"/>
<polygon fill="black" stroke="black" points="491.32,-1718.5 501.32,-1715 491.32,-1711.5 491.32,-1718.5"/>
</g>
<!-- Node0x55f73c187a68 -->
<g id="node35" class="node">
<title>Node0x55f73c187a68</title>
<polygon fill="none" stroke="black" points="413,-1787 45,-1787 45,-1751 413,-1751 413,-1787"/>
<text text-anchor="middle" x="229" y="-1765.3" font-family="Times,serif" font-size="14.00">{lib/libLLVMAnalysis.a(ObjCARCInstKind.cpp.o)}</text>
</g>
<!-- Node0x55f73c185808 -->
<g id="node36" class="node">
<title>Node0x55f73c185808</title>
<polygon fill="none" stroke="black" points="425,-1841 33,-1841 33,-1805 425,-1805 425,-1841"/>
<text text-anchor="middle" x="229" y="-1819.3" font-family="Times,serif" font-size="14.00">{lib/libLLVMAnalysis.a(OverflowInstAnalysis.cpp.o)}</text>
</g>
<!-- Node0x55f73c17e288 -->
<g id="node37" class="node">
<title>Node0x55f73c17e288</title>
<polygon fill="none" stroke="black" points="399.5,-1895 58.5,-1895 58.5,-1859 399.5,-1859 399.5,-1895"/>
<text text-anchor="middle" x="229" y="-1873.3" font-family="Times,serif" font-size="14.00">{lib/libLLVMAnalysis.a(PHITransAddr.cpp.o)}</text>
</g>
<!-- Node0x55f73c182658 -->
<g id="node38" class="node">
<title>Node0x55f73c182658</title>
<polygon fill="none" stroke="black" points="384.5,-1949 73.5,-1949 73.5,-1913 384.5,-1913 384.5,-1949"/>
<text text-anchor="middle" x="229" y="-1927.3" font-family="Times,serif" font-size="14.00">{lib/libLLVMAnalysis.a(PhiValues.cpp.o)}</text>
</g>
<!-- Node0x55f73c1822e8 -->
<g id="node39" class="node">
<title>Node0x55f73c1822e8</title>
<polygon fill="none" stroke="black" points="406.5,-2003 51.5,-2003 51.5,-1967 406.5,-1967 406.5,-2003"/>
<text text-anchor="middle" x="229" y="-1981.3" font-family="Times,serif" font-size="14.00">{lib/libLLVMAnalysis.a(PostDominators.cpp.o)}</text>
</g>
<!-- Node0x55f73c181d48 -->
<g id="node40" class="node">
<title>Node0x55f73c181d48</title>
<polygon fill="none" stroke="black" points="421,-2057 37,-2057 37,-2021 421,-2021 421,-2057"/>
<text text-anchor="middle" x="229" y="-2035.3" font-family="Times,serif" font-size="14.00">{lib/libLLVMAnalysis.a(ProfileSummaryInfo.cpp.o)}</text>
</g>
<!-- Node0x55f73c180fd8 -->
<g id="node41" class="node">
<title>Node0x55f73c180fd8</title>
<polygon fill="none" stroke="black" points="406,-2111 52,-2111 52,-2075 406,-2075 406,-2111"/>
<text text-anchor="middle" x="229" y="-2089.3" font-family="Times,serif" font-size="14.00">{lib/libLLVMAnalysis.a(ScalarEvolution.cpp.o)}</text>
</g>
<!-- Node0x55f73c180df8 -->
<g id="node42" class="node">
<title>Node0x55f73c180df8</title>
<polygon fill="none" stroke="black" points="453,-2165 5,-2165 5,-2129 453,-2129 453,-2165"/>
<text text-anchor="middle" x="229" y="-2143.3" font-family="Times,serif" font-size="14.00">{lib/libLLVMAnalysis.a(ScalarEvolutionAliasAnalysis.cpp.o)}</text>
</g>
<!-- Node0x55f73c185678 -->
<g id="node43" class="node">
<title>Node0x55f73c185678</title>
<polygon fill="none" stroke="black" points="435,-2219 23,-2219 23,-2183 435,-2183 435,-2219"/>
<text text-anchor="middle" x="229" y="-2197.3" font-family="Times,serif" font-size="14.00">{lib/libLLVMAnalysis.a(ScalarEvolutionDivision.cpp.o)}</text>
</g>
<!-- Node0x55f73c184cc8 -->
<g id="node44" class="node">
<title>Node0x55f73c184cc8</title>
<polygon fill="none" stroke="black" points="456.5,-2273 1.5,-2273 1.5,-2237 456.5,-2237 456.5,-2273"/>
<text text-anchor="middle" x="229" y="-2251.3" font-family="Times,serif" font-size="14.00">{lib/libLLVMAnalysis.a(ScalarEvolutionNormalization.cpp.o)}</text>
</g>
<!-- Node0x55f73c184728 -->
<g id="node45" class="node">
<title>Node0x55f73c184728</title>
<polygon fill="none" stroke="black" points="422,-2327 36,-2327 36,-2291 422,-2291 422,-2327"/>
<text text-anchor="middle" x="229" y="-2305.3" font-family="Times,serif" font-size="14.00">{lib/libLLVMAnalysis.a(StackSafetyAnalysis.cpp.o)}</text>
</g>
<!-- Node0x55f73c183e18 -->
<g id="node46" class="node">
<title>Node0x55f73c183e18</title>
<polygon fill="none" stroke="black" points="399,-2381 59,-2381 59,-2345 399,-2345 399,-2381"/>
<text text-anchor="middle" x="229" y="-2359.3" font-family="Times,serif" font-size="14.00">{lib/libLLVMAnalysis.a(StackLifetime.cpp.o)}</text>
</g>
<!-- Node0x55f73c183828 -->
<g id="node47" class="node">
<title>Node0x55f73c183828</title>
<polygon fill="none" stroke="black" points="413,-2435 45,-2435 45,-2399 413,-2399 413,-2435"/>
<text text-anchor="middle" x="229" y="-2413.3" font-family="Times,serif" font-size="14.00">{lib/libLLVMAnalysis.a(TargetLibraryInfo.cpp.o)}</text>
</g>
<!-- Node0x55f73c182248 -->
<g id="node48" class="node">
<title>Node0x55f73c182248</title>
<polygon fill="none" stroke="black" points="423.5,-2489 34.5,-2489 34.5,-2453 423.5,-2453 423.5,-2489"/>
<text text-anchor="middle" x="229" y="-2467.3" font-family="Times,serif" font-size="14.00">{lib/libLLVMAnalysis.a(TargetTransformInfo.cpp.o)}</text>
</g>
<!-- Node0x55f73c1829c8 -->
<g id="node49" class="node">
<title>Node0x55f73c1829c8</title>
<polygon fill="none" stroke="black" points="435.5,-2543 22.5,-2543 22.5,-2507 435.5,-2507 435.5,-2543"/>
<text text-anchor="middle" x="229" y="-2521.3" font-family="Times,serif" font-size="14.00">{lib/libLLVMAnalysis.a(TypeBasedAliasAnalysis.cpp.o)}</text>
</g>
<!-- Node0x55f73c182518 -->
<g id="node50" class="node">
<title>Node0x55f73c182518</title>
<polygon fill="none" stroke="black" points="418,-2597 40,-2597 40,-2561 418,-2561 418,-2597"/>
<text text-anchor="middle" x="229" y="-2575.3" font-family="Times,serif" font-size="14.00">{lib/libLLVMAnalysis.a(TypeMetadataUtils.cpp.o)}</text>
</g>
<!-- Node0x55f73c17e648 -->
<g id="node51" class="node">
<title>Node0x55f73c17e648</title>
<polygon fill="none" stroke="black" points="412.5,-2651 45.5,-2651 45.5,-2615 412.5,-2615 412.5,-2651"/>
<text text-anchor="middle" x="229" y="-2629.3" font-family="Times,serif" font-size="14.00">{lib/libLLVMAnalysis.a(ScopedNoAliasAA.cpp.o)}</text>
</g>
<!-- Node0x55f73c17edc8 -->
<g id="node52" class="node">
<title>Node0x55f73c17edc8</title>
<polygon fill="none" stroke="black" points="400,-2705 58,-2705 58,-2669 400,-2669 400,-2705"/>
<text text-anchor="middle" x="229" y="-2683.3" font-family="Times,serif" font-size="14.00">{lib/libLLVMAnalysis.a(ValueTracking.cpp.o)}</text>
</g>
<!-- Node0x55f73c17eaa8 -->
<g id="node53" class="node">
<title>Node0x55f73c17eaa8</title>
<polygon fill="none" stroke="black" points="370.5,-2759 87.5,-2759 87.5,-2723 370.5,-2723 370.5,-2759"/>
<text text-anchor="middle" x="229" y="-2737.3" font-family="Times,serif" font-size="14.00">{lib/libLLVMAnalysis.a(Loads.cpp.o)}</text>
</g>
<!-- Node0x55f73c17f368 -->
<g id="node54" class="node">
<title>Node0x55f73c17f368</title>
<polygon fill="none" stroke="black" points="450.5,-2813 7.5,-2813 7.5,-2777 450.5,-2777 450.5,-2813"/>
<text text-anchor="middle" x="229" y="-2791.3" font-family="Times,serif" font-size="14.00">{lib/libLLVMAnalysis.a(OptimizationRemarkEmitter.cpp.o)}</text>
</g>
<!-- Node0x55f73c185da8 -->
<g id="node55" class="node">
<title>Node0x55f73c185da8</title>
<polygon fill="none" stroke="black" points="444.5,-2867 13.5,-2867 13.5,-2831 444.5,-2831 444.5,-2867"/>
<text text-anchor="middle" x="229" y="-2845.3" font-family="Times,serif" font-size="14.00">{lib/libLLVMAnalysis.a(LazyBranchProbabilityInfo.cpp.o)}</text>
</g>
<!-- Node0x55f73c1857b8 -->
<g id="node56" class="node">
<title>Node0x55f73c1857b8</title>
<polygon fill="none" stroke="black" points="389.5,-2921 68.5,-2921 68.5,-2885 389.5,-2885 389.5,-2921"/>
<text text-anchor="middle" x="229" y="-2899.3" font-family="Times,serif" font-size="14.00">{lib/libLLVMAnalysis.a(VectorUtils.cpp.o)}</text>
</g>
<!-- Node0x55f73c1866b8 -->
<g id="node57" class="node">
<title>Node0x55f73c1866b8</title>
<polygon fill="none" stroke="black" points="420.5,-2975 37.5,-2975 37.5,-2939 420.5,-2939 420.5,-2975"/>
<text text-anchor="middle" x="229" y="-2953.3" font-family="Times,serif" font-size="14.00">{lib/libLLVMAnalysis.a(LoopAccessAnalysis.cpp.o)}</text>
</g>
<!-- Node0x55f73c186b68 -->
<g id="node58" class="node">
<title>Node0x55f73c186b68</title>
<polygon fill="none" stroke="black" points="405.5,-3029 52.5,-3029 52.5,-2993 405.5,-2993 405.5,-3029"/>
<text text-anchor="middle" x="229" y="-3007.3" font-family="Times,serif" font-size="14.00">{lib/libLLVMAnalysis.a(AliasSetTracker.cpp.o)}</text>
</g>
<!-- Node0x55f73c1873d8 -->
<g id="node59" class="node">
<title>Node0x55f73c1873d8</title>
<polygon fill="none" stroke="black" points="414.5,-3083 43.5,-3083 43.5,-3047 414.5,-3047 414.5,-3083"/>
<text text-anchor="middle" x="229" y="-3061.3" font-family="Times,serif" font-size="14.00">{lib/libLLVMAnalysis.a(VFABIDemangling.cpp.o)}</text>
</g>
</g>
</svg>
