<?xml version="1.0" encoding="UTF-8" standalone="no"?>
<!DOCTYPE svg PUBLIC "-//W3C//DTD SVG 1.1//EN"
 "http://www.w3.org/Graphics/SVG/1.1/DTD/svg11.dtd">
<!-- Generated by graphviz version 2.43.0 (0)
 -->
<!-- Title: lib/libLTO.so.13git_lib/libLLVMScalarOpts.a Pages: 1 -->
<svg width="914pt" height="3901pt"
 viewBox="0.00 0.00 914.00 3901.00" xmlns="http://www.w3.org/2000/svg" xmlns:xlink="http://www.w3.org/1999/xlink">
<g id="graph0" class="graph" transform="scale(1 1) rotate(0) translate(4 3897)">
<title>lib/libLTO.so.13git_lib/libLLVMScalarOpts.a</title>
<polygon fill="white" stroke="transparent" points="-4,4 -4,-3897 910,-3897 910,4 -4,4"/>
<text text-anchor="middle" x="453" y="-7.8" font-family="Times,serif" font-size="14.00">lib/libLTO.so.13git_lib/libLLVMScalarOpts.a</text>
<!-- Node0x55558db71488 -->
<g id="node1" class="node">
<title>Node0x55558db71488</title>
<polygon fill="none" stroke="black" points="442,-59 56,-59 56,-23 442,-23 442,-59"/>
<text text-anchor="middle" x="249" y="-37.3" font-family="Times,serif" font-size="14.00">{lib/libLLVMScalarOpts.a(ConstantHoisting.cpp.o)}</text>
</g>
<!-- Node0x55558db64fa8 -->
<g id="node2" class="node">
<title>Node0x55558db64fa8</title>
<polygon fill="none" stroke="black" points="454.5,-113 43.5,-113 43.5,-77 454.5,-77 454.5,-113"/>
<text text-anchor="middle" x="249" y="-91.3" font-family="Times,serif" font-size="14.00">{lib/libLLVMScalarOpts.a(LoopStrengthReduce.cpp.o)}</text>
</g>
<!-- Node0x55558db56598 -->
<g id="node3" class="node">
<title>Node0x55558db56598</title>
<polygon fill="none" stroke="black" points="467.5,-167 30.5,-167 30.5,-131 467.5,-131 467.5,-167"/>
<text text-anchor="middle" x="249" y="-145.3" font-family="Times,serif" font-size="14.00">{lib/libLLVMScalarOpts.a(LowerConstantIntrinsics.cpp.o)}</text>
</g>
<!-- Node0x55558db663f8 -->
<g id="node4" class="node">
<title>Node0x55558db663f8</title>
<polygon fill="none" stroke="black" points="425.5,-221 72.5,-221 72.5,-185 425.5,-185 425.5,-221"/>
<text text-anchor="middle" x="249" y="-199.3" font-family="Times,serif" font-size="14.00">{lib/libLLVMScalarOpts.a(MergeICmps.cpp.o)}</text>
</g>
<!-- Node0x55558db643c8 -->
<g id="node5" class="node">
<title>Node0x55558db643c8</title>
<polygon fill="none" stroke="black" points="458.5,-275 39.5,-275 39.5,-239 458.5,-239 458.5,-275"/>
<text text-anchor="middle" x="249" y="-253.3" font-family="Times,serif" font-size="14.00">{lib/libLLVMScalarOpts.a(PartiallyInlineLibCalls.cpp.o)}</text>
</g>
<!-- Node0x55558db514f8 -->
<g id="node6" class="node">
<title>Node0x55558db514f8</title>
<polygon fill="none" stroke="black" points="478,-329 20,-329 20,-293 478,-293 478,-329"/>
<text text-anchor="middle" x="249" y="-307.3" font-family="Times,serif" font-size="14.00">{lib/libLLVMScalarOpts.a(ScalarizeMaskedMemIntrin.cpp.o)}</text>
</g>
<!-- Node0x55558db71668 -->
<g id="node7" class="node">
<title>Node0x55558db71668</title>
<polygon fill="none" stroke="black" points="400,-383 98,-383 98,-347 400,-347 400,-383"/>
<text text-anchor="middle" x="249" y="-361.3" font-family="Times,serif" font-size="14.00">{lib/libLLVMScalarOpts.a(ADCE.cpp.o)}</text>
</g>
<!-- Node0x55558db71d98 -->
<g id="node8" class="node">
<title>Node0x55558db71d98</title>
<polygon fill="none" stroke="black" points="481,-437 17,-437 17,-401 481,-401 481,-437"/>
<text text-anchor="middle" x="249" y="-415.3" font-family="Times,serif" font-size="14.00">{lib/libLLVMScalarOpts.a(AlignmentFromAssumptions.cpp.o)}</text>
</g>
<!-- Node0x55558db725b8 -->
<g id="node9" class="node">
<title>Node0x55558db725b8</title>
<polygon fill="none" stroke="black" points="449.5,-491 48.5,-491 48.5,-455 449.5,-455 449.5,-491"/>
<text text-anchor="middle" x="249" y="-469.3" font-family="Times,serif" font-size="14.00">{lib/libLLVMScalarOpts.a(AnnotationRemarks.cpp.o)}</text>
</g>
<!-- Node0x55558db70358 -->
<g id="node10" class="node">
<title>Node0x55558db70358</title>
<polygon fill="none" stroke="black" points="400.5,-545 97.5,-545 97.5,-509 400.5,-509 400.5,-545"/>
<text text-anchor="middle" x="249" y="-523.3" font-family="Times,serif" font-size="14.00">{lib/libLLVMScalarOpts.a(BDCE.cpp.o)}</text>
</g>
<!-- Node0x55558db70d08 -->
<g id="node11" class="node">
<title>Node0x55558db70d08</title>
<polygon fill="none" stroke="black" points="438.5,-599 59.5,-599 59.5,-563 438.5,-563 438.5,-599"/>
<text text-anchor="middle" x="249" y="-577.3" font-family="Times,serif" font-size="14.00">{lib/libLLVMScalarOpts.a(CallSiteSplitting.cpp.o)}</text>
</g>
<!-- Node0x55558db6f408 -->
<g id="node12" class="node">
<title>Node0x55558db6f408</title>
<polygon fill="none" stroke="black" points="458.5,-653 39.5,-653 39.5,-617 458.5,-617 458.5,-653"/>
<text text-anchor="middle" x="249" y="-631.3" font-family="Times,serif" font-size="14.00">{lib/libLLVMScalarOpts.a(ConstraintElimination.cpp.o)}</text>
</g>
<!-- Node0x55558db6fb88 -->
<g id="node13" class="node">
<title>Node0x55558db6fb88</title>
<polygon fill="none" stroke="black" points="480.5,-707 17.5,-707 17.5,-671 480.5,-671 480.5,-707"/>
<text text-anchor="middle" x="249" y="-685.3" font-family="Times,serif" font-size="14.00">{lib/libLLVMScalarOpts.a(CorrelatedValuePropagation.cpp.o)}</text>
</g>
<!-- Node0x55558db6fe58 -->
<g id="node14" class="node">
<title>Node0x55558db6fe58</title>
<polygon fill="none" stroke="black" points="395.5,-761 102.5,-761 102.5,-725 395.5,-725 395.5,-761"/>
<text text-anchor="middle" x="249" y="-739.3" font-family="Times,serif" font-size="14.00">{lib/libLLVMScalarOpts.a(DCE.cpp.o)}</text>
</g>
<!-- Node0x55558db738c8 -->
<g id="node15" class="node">
<title>Node0x55558db738c8</title>
<polygon fill="none" stroke="black" points="458.5,-815 39.5,-815 39.5,-779 458.5,-779 458.5,-815"/>
<text text-anchor="middle" x="249" y="-793.3" font-family="Times,serif" font-size="14.00">{lib/libLLVMScalarOpts.a(DeadStoreElimination.cpp.o)}</text>
</g>
<!-- Node0x55558db73058 -->
<g id="node16" class="node">
<title>Node0x55558db73058</title>
<polygon fill="none" stroke="black" points="425.5,-869 72.5,-869 72.5,-833 425.5,-833 425.5,-869"/>
<text text-anchor="middle" x="249" y="-847.3" font-family="Times,serif" font-size="14.00">{lib/libLLVMScalarOpts.a(DivRemPairs.cpp.o)}</text>
</g>
<!-- Node0x55558db71f78 -->
<g id="node17" class="node">
<title>Node0x55558db71f78</title>
<polygon fill="none" stroke="black" points="413.5,-923 84.5,-923 84.5,-887 413.5,-887 413.5,-923"/>
<text text-anchor="middle" x="249" y="-901.3" font-family="Times,serif" font-size="14.00">{lib/libLLVMScalarOpts.a(EarlyCSE.cpp.o)}</text>
</g>
<!-- Node0x55558db71898 -->
<g id="node18" class="node">
<title>Node0x55558db71898</title>
<polygon fill="none" stroke="black" points="412,-977 86,-977 86,-941 412,-941 412,-977"/>
<text text-anchor="middle" x="249" y="-955.3" font-family="Times,serif" font-size="14.00">{lib/libLLVMScalarOpts.a(Float2Int.cpp.o)}</text>
</g>
<!-- Node0x55558db71b68 -->
<g id="node19" class="node">
<title>Node0x55558db71b68</title>
<polygon fill="none" stroke="black" points="435,-1031 63,-1031 63,-995 435,-995 435,-1031"/>
<text text-anchor="middle" x="249" y="-1009.3" font-family="Times,serif" font-size="14.00">{lib/libLLVMScalarOpts.a(GuardWidening.cpp.o)}</text>
</g>
<!-- Node0x55558db61b78 -->
<g id="node20" class="node">
<title>Node0x55558db61b78</title>
<polygon fill="none" stroke="black" points="866.5,-1085 573.5,-1085 573.5,-1049 866.5,-1049 866.5,-1085"/>
<text text-anchor="middle" x="720" y="-1063.3" font-family="Times,serif" font-size="14.00">{lib/libLLVMScalarOpts.a(GVN.cpp.o)}</text>
</g>
<!-- Node0x55558db618a8 -->
<g id="node21" class="node">
<title>Node0x55558db618a8</title>
<polygon fill="none" stroke="black" points="415,-1085 83,-1085 83,-1049 415,-1049 415,-1085"/>
<text text-anchor="middle" x="249" y="-1063.3" font-family="Times,serif" font-size="14.00">{lib/libLLVMScalarOpts.a(GVNHoist.cpp.o)}</text>
</g>
<!-- Node0x55558db618a8&#45;&gt;Node0x55558db61b78 -->
<g id="edge1" class="edge">
<title>Node0x55558db618a8&#45;&gt;Node0x55558db61b78</title>
<path fill="none" stroke="black" d="M415.02,-1067C463.18,-1067 515.63,-1067 563.19,-1067"/>
<polygon fill="black" stroke="black" points="563.26,-1070.5 573.26,-1067 563.26,-1063.5 563.26,-1070.5"/>
</g>
<!-- Node0x55558db61538 -->
<g id="node22" class="node">
<title>Node0x55558db61538</title>
<polygon fill="none" stroke="black" points="411.5,-1139 86.5,-1139 86.5,-1103 411.5,-1103 411.5,-1139"/>
<text text-anchor="middle" x="249" y="-1117.3" font-family="Times,serif" font-size="14.00">{lib/libLLVMScalarOpts.a(GVNSink.cpp.o)}</text>
</g>
<!-- Node0x55558db64aa8 -->
<g id="node23" class="node">
<title>Node0x55558db64aa8</title>
<polygon fill="none" stroke="black" points="882.5,-1139 557.5,-1139 557.5,-1103 882.5,-1103 882.5,-1139"/>
<text text-anchor="middle" x="720" y="-1117.3" font-family="Times,serif" font-size="14.00">{lib/libLLVMScalarOpts.a(NewGVN.cpp.o)}</text>
</g>
<!-- Node0x55558db61538&#45;&gt;Node0x55558db64aa8 -->
<g id="edge2" class="edge">
<title>Node0x55558db61538&#45;&gt;Node0x55558db64aa8</title>
<path fill="none" stroke="black" d="M411.73,-1121C455.35,-1121 502.69,-1121 546.86,-1121"/>
<polygon fill="black" stroke="black" points="547.12,-1124.5 557.12,-1121 547.12,-1117.5 547.12,-1124.5"/>
</g>
<!-- Node0x55558db60818 -->
<g id="node24" class="node">
<title>Node0x55558db60818</title>
<polygon fill="none" stroke="black" points="432.5,-1193 65.5,-1193 65.5,-1157 432.5,-1157 432.5,-1193"/>
<text text-anchor="middle" x="249" y="-1171.3" font-family="Times,serif" font-size="14.00">{lib/libLLVMScalarOpts.a(IVUsersPrinter.cpp.o)}</text>
</g>
<!-- Node0x55558db60638 -->
<g id="node25" class="node">
<title>Node0x55558db60638</title>
<polygon fill="none" stroke="black" points="498,-1247 0,-1247 0,-1211 498,-1211 498,-1247"/>
<text text-anchor="middle" x="249" y="-1225.3" font-family="Times,serif" font-size="14.00">{lib/libLLVMScalarOpts.a(InductiveRangeCheckElimination.cpp.o)}</text>
</g>
<!-- Node0x55558db64828 -->
<g id="node26" class="node">
<title>Node0x55558db64828</title>
<polygon fill="none" stroke="black" points="431.5,-1301 66.5,-1301 66.5,-1265 431.5,-1265 431.5,-1301"/>
<text text-anchor="middle" x="249" y="-1279.3" font-family="Times,serif" font-size="14.00">{lib/libLLVMScalarOpts.a(IndVarSimplify.cpp.o)}</text>
</g>
<!-- Node0x55558db4e438 -->
<g id="node27" class="node">
<title>Node0x55558db4e438</title>
<polygon fill="none" stroke="black" points="450.5,-1355 47.5,-1355 47.5,-1319 450.5,-1319 450.5,-1355"/>
<text text-anchor="middle" x="249" y="-1333.3" font-family="Times,serif" font-size="14.00">{lib/libLLVMScalarOpts.a(InferAddressSpaces.cpp.o)}</text>
</g>
<!-- Node0x55558db4d358 -->
<g id="node28" class="node">
<title>Node0x55558db4d358</title>
<polygon fill="none" stroke="black" points="439,-1409 59,-1409 59,-1373 439,-1373 439,-1409"/>
<text text-anchor="middle" x="249" y="-1387.3" font-family="Times,serif" font-size="14.00">{lib/libLLVMScalarOpts.a(InstSimplifyPass.cpp.o)}</text>
</g>
<!-- Node0x55558db4d628 -->
<g id="node29" class="node">
<title>Node0x55558db4d628</title>
<polygon fill="none" stroke="black" points="434,-1463 64,-1463 64,-1427 434,-1427 434,-1463"/>
<text text-anchor="middle" x="249" y="-1441.3" font-family="Times,serif" font-size="14.00">{lib/libLLVMScalarOpts.a(JumpThreading.cpp.o)}</text>
</g>
<!-- Node0x55558db5e248 -->
<g id="node30" class="node">
<title>Node0x55558db5e248</title>
<polygon fill="none" stroke="black" points="869.5,-1517 570.5,-1517 570.5,-1481 869.5,-1481 869.5,-1517"/>
<text text-anchor="middle" x="720" y="-1495.3" font-family="Times,serif" font-size="14.00">{lib/libLLVMScalarOpts.a(LICM.cpp.o)}</text>
</g>
<!-- Node0x55558db5dde8 -->
<g id="node31" class="node">
<title>Node0x55558db5dde8</title>
<polygon fill="none" stroke="black" points="475,-1571 23,-1571 23,-1535 475,-1535 475,-1571"/>
<text text-anchor="middle" x="249" y="-1549.3" font-family="Times,serif" font-size="14.00">{lib/libLLVMScalarOpts.a(LoopAccessAnalysisPrinter.cpp.o)}</text>
</g>
<!-- Node0x55558db5f918 -->
<g id="node32" class="node">
<title>Node0x55558db5f918</title>
<polygon fill="none" stroke="black" points="436,-1625 62,-1625 62,-1589 436,-1589 436,-1625"/>
<text text-anchor="middle" x="249" y="-1603.3" font-family="Times,serif" font-size="14.00">{lib/libLLVMScalarOpts.a(LoopBoundSplit.cpp.o)}</text>
</g>
<!-- Node0x55558db5f558 -->
<g id="node33" class="node">
<title>Node0x55558db5f558</title>
<polygon fill="none" stroke="black" points="412,-1517 86,-1517 86,-1481 412,-1481 412,-1517"/>
<text text-anchor="middle" x="249" y="-1495.3" font-family="Times,serif" font-size="14.00">{lib/libLLVMScalarOpts.a(LoopSink.cpp.o)}</text>
</g>
<!-- Node0x55558db5f558&#45;&gt;Node0x55558db5e248 -->
<g id="edge3" class="edge">
<title>Node0x55558db5f558&#45;&gt;Node0x55558db5e248</title>
<path fill="none" stroke="black" d="M412.06,-1499C460.01,-1499 512.45,-1499 560.2,-1499"/>
<polygon fill="black" stroke="black" points="560.31,-1502.5 570.31,-1499 560.31,-1495.5 560.31,-1502.5"/>
</g>
<!-- Node0x55558db5e978 -->
<g id="node34" class="node">
<title>Node0x55558db5e978</title>
<polygon fill="none" stroke="black" points="426.5,-1679 71.5,-1679 71.5,-1643 426.5,-1643 426.5,-1679"/>
<text text-anchor="middle" x="249" y="-1657.3" font-family="Times,serif" font-size="14.00">{lib/libLLVMScalarOpts.a(LoopDeletion.cpp.o)}</text>
</g>
<!-- Node0x55558db5bf98 -->
<g id="node35" class="node">
<title>Node0x55558db5bf98</title>
<polygon fill="none" stroke="black" points="443.5,-1733 54.5,-1733 54.5,-1697 443.5,-1697 443.5,-1733"/>
<text text-anchor="middle" x="249" y="-1711.3" font-family="Times,serif" font-size="14.00">{lib/libLLVMScalarOpts.a(LoopDataPrefetch.cpp.o)}</text>
</g>
<!-- Node0x55558db5ba98 -->
<g id="node36" class="node">
<title>Node0x55558db5ba98</title>
<polygon fill="none" stroke="black" points="433,-1787 65,-1787 65,-1751 433,-1751 433,-1787"/>
<text text-anchor="middle" x="249" y="-1765.3" font-family="Times,serif" font-size="14.00">{lib/libLLVMScalarOpts.a(LoopDistribute.cpp.o)}</text>
</g>
<!-- Node0x55558db5adc8 -->
<g id="node37" class="node">
<title>Node0x55558db5adc8</title>
<polygon fill="none" stroke="black" points="413.5,-1841 84.5,-1841 84.5,-1805 413.5,-1805 413.5,-1841"/>
<text text-anchor="middle" x="249" y="-1819.3" font-family="Times,serif" font-size="14.00">{lib/libLLVMScalarOpts.a(LoopFuse.cpp.o)}</text>
</g>
<!-- Node0x55558db6aef8 -->
<g id="node38" class="node">
<title>Node0x55558db6aef8</title>
<polygon fill="none" stroke="black" points="453,-1895 45,-1895 45,-1859 453,-1859 453,-1895"/>
<text text-anchor="middle" x="249" y="-1873.3" font-family="Times,serif" font-size="14.00">{lib/libLLVMScalarOpts.a(LoopIdiomRecognize.cpp.o)}</text>
</g>
<!-- Node0x55558db6b128 -->
<g id="node39" class="node">
<title>Node0x55558db6b128</title>
<polygon fill="none" stroke="black" points="439,-1949 59,-1949 59,-1913 439,-1913 439,-1949"/>
<text text-anchor="middle" x="249" y="-1927.3" font-family="Times,serif" font-size="14.00">{lib/libLLVMScalarOpts.a(LoopInstSimplify.cpp.o)}</text>
</g>
<!-- Node0x55558db6bdf8 -->
<g id="node40" class="node">
<title>Node0x55558db6bdf8</title>
<polygon fill="none" stroke="black" points="439.5,-2003 58.5,-2003 58.5,-1967 439.5,-1967 439.5,-2003"/>
<text text-anchor="middle" x="249" y="-1981.3" font-family="Times,serif" font-size="14.00">{lib/libLLVMScalarOpts.a(LoopInterchange.cpp.o)}</text>
</g>
<!-- Node0x55558db6c0c8 -->
<g id="node41" class="node">
<title>Node0x55558db6c0c8</title>
<polygon fill="none" stroke="black" points="422.5,-2057 75.5,-2057 75.5,-2021 422.5,-2021 422.5,-2057"/>
<text text-anchor="middle" x="249" y="-2035.3" font-family="Times,serif" font-size="14.00">{lib/libLLVMScalarOpts.a(LoopFlatten.cpp.o)}</text>
</g>
<!-- Node0x55558db675c8 -->
<g id="node42" class="node">
<title>Node0x55558db675c8</title>
<polygon fill="none" stroke="black" points="455,-2111 43,-2111 43,-2075 455,-2075 455,-2111"/>
<text text-anchor="middle" x="249" y="-2089.3" font-family="Times,serif" font-size="14.00">{lib/libLLVMScalarOpts.a(LoopLoadElimination.cpp.o)}</text>
</g>
<!-- Node0x55558db68748 -->
<g id="node43" class="node">
<title>Node0x55558db68748</title>
<polygon fill="none" stroke="black" points="443.5,-2165 54.5,-2165 54.5,-2129 443.5,-2129 443.5,-2165"/>
<text text-anchor="middle" x="249" y="-2143.3" font-family="Times,serif" font-size="14.00">{lib/libLLVMScalarOpts.a(LoopPassManager.cpp.o)}</text>
</g>
<!-- Node0x55558db68f18 -->
<g id="node44" class="node">
<title>Node0x55558db68f18</title>
<polygon fill="none" stroke="black" points="437.5,-2219 60.5,-2219 60.5,-2183 437.5,-2183 437.5,-2219"/>
<text text-anchor="middle" x="249" y="-2197.3" font-family="Times,serif" font-size="14.00">{lib/libLLVMScalarOpts.a(LoopPredication.cpp.o)}</text>
</g>
<!-- Node0x55558db68ce8 -->
<g id="node45" class="node">
<title>Node0x55558db68ce8</title>
<polygon fill="none" stroke="black" points="434,-2273 64,-2273 64,-2237 434,-2237 434,-2273"/>
<text text-anchor="middle" x="249" y="-2251.3" font-family="Times,serif" font-size="14.00">{lib/libLLVMScalarOpts.a(LoopRerollPass.cpp.o)}</text>
</g>
<!-- Node0x55558db69b98 -->
<g id="node46" class="node">
<title>Node0x55558db69b98</title>
<polygon fill="none" stroke="black" points="427,-2327 71,-2327 71,-2291 427,-2291 427,-2327"/>
<text text-anchor="middle" x="249" y="-2305.3" font-family="Times,serif" font-size="14.00">{lib/libLLVMScalarOpts.a(LoopRotation.cpp.o)}</text>
</g>
<!-- Node0x55558db652c8 -->
<g id="node47" class="node">
<title>Node0x55558db652c8</title>
<polygon fill="none" stroke="black" points="441.5,-2381 56.5,-2381 56.5,-2345 441.5,-2345 441.5,-2381"/>
<text text-anchor="middle" x="249" y="-2359.3" font-family="Times,serif" font-size="14.00">{lib/libLLVMScalarOpts.a(LoopSimplifyCFG.cpp.o)}</text>
</g>
<!-- Node0x55558db58a28 -->
<g id="node48" class="node">
<title>Node0x55558db58a28</title>
<polygon fill="none" stroke="black" points="906,-2435 534,-2435 534,-2399 906,-2399 906,-2435"/>
<text text-anchor="middle" x="720" y="-2413.3" font-family="Times,serif" font-size="14.00">{lib/libLLVMScalarOpts.a(LoopUnrollPass.cpp.o)}</text>
</g>
<!-- Node0x55558db593d8 -->
<g id="node49" class="node">
<title>Node0x55558db593d8</title>
<polygon fill="none" stroke="black" points="462.5,-2435 35.5,-2435 35.5,-2399 462.5,-2399 462.5,-2435"/>
<text text-anchor="middle" x="249" y="-2413.3" font-family="Times,serif" font-size="14.00">{lib/libLLVMScalarOpts.a(LoopUnrollAndJamPass.cpp.o)}</text>
</g>
<!-- Node0x55558db593d8&#45;&gt;Node0x55558db58a28 -->
<g id="edge4" class="edge">
<title>Node0x55558db593d8&#45;&gt;Node0x55558db58a28</title>
<path fill="none" stroke="black" d="M462.54,-2417C482.86,-2417 503.4,-2417 523.55,-2417"/>
<polygon fill="black" stroke="black" points="523.72,-2420.5 533.72,-2417 523.72,-2413.5 523.72,-2420.5"/>
</g>
<!-- Node0x55558db57268 -->
<g id="node50" class="node">
<title>Node0x55558db57268</title>
<polygon fill="none" stroke="black" points="454,-2489 44,-2489 44,-2453 454,-2453 454,-2489"/>
<text text-anchor="middle" x="249" y="-2467.3" font-family="Times,serif" font-size="14.00">{lib/libLLVMScalarOpts.a(LoopVersioningLICM.cpp.o)}</text>
</g>
<!-- Node0x55558db57f38 -->
<g id="node51" class="node">
<title>Node0x55558db57f38</title>
<polygon fill="none" stroke="black" points="426,-2543 72,-2543 72,-2507 426,-2507 426,-2543"/>
<text text-anchor="middle" x="249" y="-2521.3" font-family="Times,serif" font-size="14.00">{lib/libLLVMScalarOpts.a(LowerAtomic.cpp.o)}</text>
</g>
<!-- Node0x55558db55cd8 -->
<g id="node52" class="node">
<title>Node0x55558db55cd8</title>
<polygon fill="none" stroke="black" points="456,-2597 42,-2597 42,-2561 456,-2561 456,-2597"/>
<text text-anchor="middle" x="249" y="-2575.3" font-family="Times,serif" font-size="14.00">{lib/libLLVMScalarOpts.a(LowerExpectIntrinsic.cpp.o)}</text>
</g>
<!-- Node0x55558db56ae8 -->
<g id="node53" class="node">
<title>Node0x55558db56ae8</title>
<polygon fill="none" stroke="black" points="453.5,-2651 44.5,-2651 44.5,-2615 453.5,-2615 453.5,-2651"/>
<text text-anchor="middle" x="249" y="-2629.3" font-family="Times,serif" font-size="14.00">{lib/libLLVMScalarOpts.a(LowerGuardIntrinsic.cpp.o)}</text>
</g>
<!-- Node0x55558db69788 -->
<g id="node54" class="node">
<title>Node0x55558db69788</title>
<polygon fill="none" stroke="black" points="459,-2705 39,-2705 39,-2669 459,-2669 459,-2705"/>
<text text-anchor="middle" x="249" y="-2683.3" font-family="Times,serif" font-size="14.00">{lib/libLLVMScalarOpts.a(LowerMatrixIntrinsics.cpp.o)}</text>
</g>
<!-- Node0x55558db689c8 -->
<g id="node55" class="node">
<title>Node0x55558db689c8</title>
<polygon fill="none" stroke="black" points="473.5,-2759 24.5,-2759 24.5,-2723 473.5,-2723 473.5,-2759"/>
<text text-anchor="middle" x="249" y="-2737.3" font-family="Times,serif" font-size="14.00">{lib/libLLVMScalarOpts.a(LowerWidenableCondition.cpp.o)}</text>
</g>
<!-- Node0x55558db69238 -->
<g id="node56" class="node">
<title>Node0x55558db69238</title>
<polygon fill="none" stroke="black" points="452,-2813 46,-2813 46,-2777 452,-2777 452,-2813"/>
<text text-anchor="middle" x="249" y="-2791.3" font-family="Times,serif" font-size="14.00">{lib/libLLVMScalarOpts.a(MakeGuardsExplicit.cpp.o)}</text>
</g>
<!-- Node0x55558db66678 -->
<g id="node57" class="node">
<title>Node0x55558db66678</title>
<polygon fill="none" stroke="black" points="446,-2867 52,-2867 52,-2831 446,-2831 446,-2867"/>
<text text-anchor="middle" x="249" y="-2845.3" font-family="Times,serif" font-size="14.00">{lib/libLLVMScalarOpts.a(MemCpyOptimizer.cpp.o)}</text>
</g>
<!-- Node0x55558db632e8 -->
<g id="node58" class="node">
<title>Node0x55558db632e8</title>
<polygon fill="none" stroke="black" points="469,-2921 29,-2921 29,-2885 469,-2885 469,-2921"/>
<text text-anchor="middle" x="249" y="-2899.3" font-family="Times,serif" font-size="14.00">{lib/libLLVMScalarOpts.a(MergedLoadStoreMotion.cpp.o)}</text>
</g>
<!-- Node0x55558db62a78 -->
<g id="node59" class="node">
<title>Node0x55558db62a78</title>
<polygon fill="none" stroke="black" points="439,-2975 59,-2975 59,-2939 439,-2939 439,-2975"/>
<text text-anchor="middle" x="249" y="-2953.3" font-family="Times,serif" font-size="14.00">{lib/libLLVMScalarOpts.a(NaryReassociate.cpp.o)}</text>
</g>
<!-- Node0x55558db63c98 -->
<g id="node60" class="node">
<title>Node0x55558db63c98</title>
<polygon fill="none" stroke="black" points="421.5,-3029 76.5,-3029 76.5,-2993 421.5,-2993 421.5,-3029"/>
<text text-anchor="middle" x="249" y="-3007.3" font-family="Times,serif" font-size="14.00">{lib/libLLVMScalarOpts.a(Reassociate.cpp.o)}</text>
</g>
<!-- Node0x55558db60f48 -->
<g id="node61" class="node">
<title>Node0x55558db60f48</title>
<polygon fill="none" stroke="black" points="415.5,-3083 82.5,-3083 82.5,-3047 415.5,-3047 415.5,-3083"/>
<text text-anchor="middle" x="249" y="-3061.3" font-family="Times,serif" font-size="14.00">{lib/libLLVMScalarOpts.a(Reg2Mem.cpp.o)}</text>
</g>
<!-- Node0x55558db60778 -->
<g id="node62" class="node">
<title>Node0x55558db60778</title>
<polygon fill="none" stroke="black" points="471.5,-3137 26.5,-3137 26.5,-3101 471.5,-3101 471.5,-3137"/>
<text text-anchor="middle" x="249" y="-3115.3" font-family="Times,serif" font-size="14.00">{lib/libLLVMScalarOpts.a(RewriteStatepointsForGC.cpp.o)}</text>
</g>
<!-- Node0x55558db5ffa8 -->
<g id="node63" class="node">
<title>Node0x55558db5ffa8</title>
<polygon fill="none" stroke="black" points="398,-3191 100,-3191 100,-3155 398,-3155 398,-3191"/>
<text text-anchor="middle" x="249" y="-3169.3" font-family="Times,serif" font-size="14.00">{lib/libLLVMScalarOpts.a(SCCP.cpp.o)}</text>
</g>
<!-- Node0x55558db62078 -->
<g id="node64" class="node">
<title>Node0x55558db62078</title>
<polygon fill="none" stroke="black" points="400,-3245 98,-3245 98,-3209 400,-3209 400,-3245"/>
<text text-anchor="middle" x="249" y="-3223.3" font-family="Times,serif" font-size="14.00">{lib/libLLVMScalarOpts.a(SROA.cpp.o)}</text>
</g>
<!-- Node0x55558db51728 -->
<g id="node65" class="node">
<title>Node0x55558db51728</title>
<polygon fill="none" stroke="black" points="414.5,-3299 83.5,-3299 83.5,-3263 414.5,-3263 414.5,-3299"/>
<text text-anchor="middle" x="249" y="-3277.3" font-family="Times,serif" font-size="14.00">{lib/libLLVMScalarOpts.a(Scalarizer.cpp.o)}</text>
</g>
<!-- Node0x55558db55968 -->
<g id="node66" class="node">
<title>Node0x55558db55968</title>
<polygon fill="none" stroke="black" points="487,-3353 11,-3353 11,-3317 487,-3317 487,-3353"/>
<text text-anchor="middle" x="249" y="-3331.3" font-family="Times,serif" font-size="14.00">{lib/libLLVMScalarOpts.a(SeparateConstOffsetFromGEP.cpp.o)}</text>
</g>
<!-- Node0x55558db55698 -->
<g id="node67" class="node">
<title>Node0x55558db55698</title>
<polygon fill="none" stroke="black" points="455,-3407 43,-3407 43,-3371 455,-3371 455,-3407"/>
<text text-anchor="middle" x="249" y="-3385.3" font-family="Times,serif" font-size="14.00">{lib/libLLVMScalarOpts.a(SimpleLoopUnswitch.cpp.o)}</text>
</g>
<!-- Node0x55558db550f8 -->
<g id="node68" class="node">
<title>Node0x55558db550f8</title>
<polygon fill="none" stroke="black" points="440.5,-3461 57.5,-3461 57.5,-3425 440.5,-3425 440.5,-3461"/>
<text text-anchor="middle" x="249" y="-3439.3" font-family="Times,serif" font-size="14.00">{lib/libLLVMScalarOpts.a(SimplifyCFGPass.cpp.o)}</text>
</g>
<!-- Node0x55558db544c8 -->
<g id="node69" class="node">
<title>Node0x55558db544c8</title>
<polygon fill="none" stroke="black" points="395,-3515 103,-3515 103,-3479 395,-3479 395,-3515"/>
<text text-anchor="middle" x="249" y="-3493.3" font-family="Times,serif" font-size="14.00">{lib/libLLVMScalarOpts.a(Sink.cpp.o)}</text>
</g>
<!-- Node0x55558db54298 -->
<g id="node70" class="node">
<title>Node0x55558db54298</title>
<polygon fill="none" stroke="black" points="456.5,-3569 41.5,-3569 41.5,-3533 456.5,-3533 456.5,-3569"/>
<text text-anchor="middle" x="249" y="-3547.3" font-family="Times,serif" font-size="14.00">{lib/libLLVMScalarOpts.a(SpeculativeExecution.cpp.o)}</text>
</g>
<!-- Node0x55558db53a78 -->
<g id="node71" class="node">
<title>Node0x55558db53a78</title>
<polygon fill="none" stroke="black" points="457.5,-3623 40.5,-3623 40.5,-3587 457.5,-3587 457.5,-3623"/>
<text text-anchor="middle" x="249" y="-3601.3" font-family="Times,serif" font-size="14.00">{lib/libLLVMScalarOpts.a(SpeculateAroundPHIs.cpp.o)}</text>
</g>
<!-- Node0x55558db4e2a8 -->
<g id="node72" class="node">
<title>Node0x55558db4e2a8</title>
<polygon fill="none" stroke="black" points="482.5,-3677 15.5,-3677 15.5,-3641 482.5,-3641 482.5,-3677"/>
<text text-anchor="middle" x="249" y="-3655.3" font-family="Times,serif" font-size="14.00">{lib/libLLVMScalarOpts.a(StraightLineStrengthReduce.cpp.o)}</text>
</g>
<!-- Node0x55558db4d948 -->
<g id="node73" class="node">
<title>Node0x55558db4d948</title>
<polygon fill="none" stroke="black" points="435,-3731 63,-3731 63,-3695 435,-3695 435,-3731"/>
<text text-anchor="middle" x="249" y="-3709.3" font-family="Times,serif" font-size="14.00">{lib/libLLVMScalarOpts.a(StructurizeCFG.cpp.o)}</text>
</g>
<!-- Node0x55558db4d0d8 -->
<g id="node74" class="node">
<title>Node0x55558db4d0d8</title>
<polygon fill="none" stroke="black" points="469,-3785 29,-3785 29,-3749 469,-3749 469,-3785"/>
<text text-anchor="middle" x="249" y="-3763.3" font-family="Times,serif" font-size="14.00">{lib/libLLVMScalarOpts.a(TailRecursionElimination.cpp.o)}</text>
</g>
<!-- Node0x55558db6f2c8 -->
<g id="node75" class="node">
<title>Node0x55558db6f2c8</title>
<polygon fill="none" stroke="black" points="464.5,-3839 33.5,-3839 33.5,-3803 464.5,-3803 464.5,-3839"/>
<text text-anchor="middle" x="249" y="-3817.3" font-family="Times,serif" font-size="14.00">{lib/libLLVMScalarOpts.a(WarnMissedTransforms.cpp.o)}</text>
</g>
<!-- Node0x55558db57c18 -->
<g id="node76" class="node">
<title>Node0x55558db57c18</title>
<polygon fill="none" stroke="black" points="430,-3893 68,-3893 68,-3857 430,-3857 430,-3893"/>
<text text-anchor="middle" x="249" y="-3871.3" font-family="Times,serif" font-size="14.00">{lib/libLLVMScalarOpts.a(LoopUnswitch.cpp.o)}</text>
</g>
</g>
</svg>
