<?xml version="1.0" encoding="UTF-8" standalone="no"?>
<!DOCTYPE svg PUBLIC "-//W3C//DTD SVG 1.1//EN"
 "http://www.w3.org/Graphics/SVG/1.1/DTD/svg11.dtd">
<!-- Generated by graphviz version 2.43.0 (0)
 -->
<!-- Title: cmTC_f7aca Pages: 1 -->
<svg width="1083pt" height="213pt"
 viewBox="0.00 0.00 1082.50 213.00" xmlns="http://www.w3.org/2000/svg" xmlns:xlink="http://www.w3.org/1999/xlink">
<g id="graph0" class="graph" transform="scale(1 1) rotate(0) translate(4 209)">
<title>cmTC_f7aca</title>
<polygon fill="white" stroke="transparent" points="-4,4 -4,-209 1078.5,-209 1078.5,4 -4,4"/>
<text text-anchor="middle" x="537.25" y="-7.8" font-family="Times,serif" font-size="14.00">cmTC_f7aca</text>
<!-- Node0x55ddb84ae5c8 -->
<g id="node1" class="node">
<title>Node0x55ddb84ae5c8</title>
<polygon fill="none" stroke="black" points="195,-168.5 195,-204.5 653,-204.5 653,-168.5 195,-168.5"/>
<text text-anchor="middle" x="424" y="-182.8" font-family="Times,serif" font-size="14.00">/usr/lib/gcc/x86_64&#45;linux&#45;gnu/9/../../../x86_64&#45;linux&#45;gnu/Scrt1.o</text>
</g>
<!-- Node0x55ddb84ae730 -->
<g id="node2" class="node">
<title>Node0x55ddb84ae730</title>
<polygon fill="none" stroke="black" points="452.5,-95.5 452.5,-131.5 735.5,-131.5 735.5,-95.5 452.5,-95.5"/>
<text text-anchor="middle" x="594" y="-109.8" font-family="Times,serif" font-size="14.00">CMakeFiles/cmTC_f7aca.dir/src.cxx.o</text>
</g>
<!-- Node0x55ddb84ae5c8&#45;&gt;Node0x55ddb84ae730 -->
<g id="edge1" class="edge">
<title>Node0x55ddb84ae5c8&#45;&gt;Node0x55ddb84ae730</title>
<path fill="none" stroke="black" d="M464.72,-168.49C488.41,-158.6 518.47,-146.04 543.64,-135.53"/>
<polygon fill="black" stroke="black" points="545.15,-138.7 553.02,-131.61 542.45,-132.24 545.15,-138.7"/>
</g>
<!-- Node0x55ddb84ae9b8 -->
<g id="node3" class="node">
<title>Node0x55ddb84ae9b8</title>
<polygon fill="none" stroke="black" points="0,-95.5 0,-131.5 396,-131.5 396,-95.5 0,-95.5"/>
<text text-anchor="middle" x="198" y="-109.8" font-family="Times,serif" font-size="14.00">/usr/lib/x86_64&#45;linux&#45;gnu/libc_nonshared.a(elf&#45;init.oS)</text>
</g>
<!-- Node0x55ddb84ae5c8&#45;&gt;Node0x55ddb84ae9b8 -->
<g id="edge2" class="edge">
<title>Node0x55ddb84ae5c8&#45;&gt;Node0x55ddb84ae9b8</title>
<path fill="none" stroke="black" d="M369.87,-168.49C337.54,-158.34 296.29,-145.38 262.31,-134.7"/>
<polygon fill="black" stroke="black" points="263.06,-131.27 252.47,-131.61 260.97,-137.95 263.06,-131.27"/>
</g>
<!-- Node0x55ddb84ae460 -->
<g id="node4" class="node">
<title>Node0x55ddb84ae460</title>
<ellipse fill="none" stroke="black" cx="594" cy="-41" rx="115.88" ry="18"/>
<text text-anchor="middle" x="594" y="-37.3" font-family="Times,serif" font-size="14.00">Node0x55ddb84ae460</text>
</g>
<!-- Node0x55ddb84ae5c8&#45;&gt;Node0x55ddb84ae460 -->
<g id="edge3" class="edge">
<title>Node0x55ddb84ae5c8&#45;&gt;Node0x55ddb84ae460</title>
<path fill="none" stroke="black" d="M422.89,-168.31C422.56,-148.3 425.11,-115.4 443,-95 458.87,-76.91 481.29,-64.99 504.01,-57.14"/>
<polygon fill="black" stroke="black" points="505.29,-60.41 513.75,-54.02 503.16,-53.74 505.29,-60.41"/>
</g>
<!-- Node0x55ddb84ae730&#45;&gt;Node0x55ddb84ae460 -->
<g id="edge6" class="edge">
<title>Node0x55ddb84ae730&#45;&gt;Node0x55ddb84ae460</title>
<path fill="none" stroke="black" d="M594,-95.43C594,-87.67 594,-78.28 594,-69.56"/>
<polygon fill="black" stroke="black" points="597.5,-69.4 594,-59.4 590.5,-69.4 597.5,-69.4"/>
</g>
<!-- Node0x55ddb84ae418 -->
<g id="node7" class="node">
<title>Node0x55ddb84ae418</title>
<ellipse fill="none" stroke="black" cx="198" cy="-41" rx="115.88" ry="18"/>
<text text-anchor="middle" x="198" y="-37.3" font-family="Times,serif" font-size="14.00">Node0x55ddb84ae418</text>
</g>
<!-- Node0x55ddb84ae9b8&#45;&gt;Node0x55ddb84ae418 -->
<g id="edge7" class="edge">
<title>Node0x55ddb84ae9b8&#45;&gt;Node0x55ddb84ae418</title>
<path fill="none" stroke="black" d="M198,-95.43C198,-87.67 198,-78.28 198,-69.56"/>
<polygon fill="black" stroke="black" points="201.5,-69.4 198,-59.4 194.5,-69.4 201.5,-69.4"/>
</g>
<!-- Node0x55ddb84ae070 -->
<g id="node5" class="node">
<title>Node0x55ddb84ae070</title>
<polygon fill="none" stroke="black" points="753.5,-95.5 753.5,-131.5 1074.5,-131.5 1074.5,-95.5 753.5,-95.5"/>
<text text-anchor="middle" x="914" y="-109.8" font-family="Times,serif" font-size="14.00">/usr/lib/gcc/x86_64&#45;linux&#45;gnu/9/crtbeginS.o</text>
</g>
<!-- Node0x55ddb84ae070&#45;&gt;Node0x55ddb84ae460 -->
<g id="edge5" class="edge">
<title>Node0x55ddb84ae070&#45;&gt;Node0x55ddb84ae460</title>
<path fill="none" stroke="black" d="M836.54,-95.43C785.21,-84.13 718.27,-69.38 667.73,-58.24"/>
<polygon fill="black" stroke="black" points="668.36,-54.8 657.84,-56.07 666.86,-61.64 668.36,-54.8"/>
</g>
<!-- Node0x55ddb84ae3d0 -->
<g id="node6" class="node">
<title>Node0x55ddb84ae3d0</title>
<ellipse fill="none" stroke="black" cx="914" cy="-41" rx="115.88" ry="18"/>
<text text-anchor="middle" x="914" y="-37.3" font-family="Times,serif" font-size="14.00">Node0x55ddb84ae3d0</text>
</g>
<!-- Node0x55ddb84ae070&#45;&gt;Node0x55ddb84ae3d0 -->
<g id="edge4" class="edge">
<title>Node0x55ddb84ae070&#45;&gt;Node0x55ddb84ae3d0</title>
<path fill="none" stroke="black" d="M914,-95.43C914,-87.67 914,-78.28 914,-69.56"/>
<polygon fill="black" stroke="black" points="917.5,-69.4 914,-59.4 910.5,-69.4 917.5,-69.4"/>
</g>
</g>
</svg>
