<?xml version="1.0" encoding="UTF-8" standalone="no"?>
<!DOCTYPE svg PUBLIC "-//W3C//DTD SVG 1.1//EN"
 "http://www.w3.org/Graphics/SVG/1.1/DTD/svg11.dtd">
<!-- Generated by graphviz version 2.43.0 (0)
 -->
<!-- Title: bin/lli_lib/libLLVMExecutionEngine.a Pages: 1 -->
<svg width="951pt" height="175pt"
 viewBox="0.00 0.00 951.00 175.00" xmlns="http://www.w3.org/2000/svg" xmlns:xlink="http://www.w3.org/1999/xlink">
<g id="graph0" class="graph" transform="scale(1 1) rotate(0) translate(4 171)">
<title>bin/lli_lib/libLLVMExecutionEngine.a</title>
<polygon fill="white" stroke="transparent" points="-4,4 -4,-171 947,-171 947,4 -4,4"/>
<text text-anchor="middle" x="471.5" y="-7.8" font-family="Times,serif" font-size="14.00">bin/lli_lib/libLLVMExecutionEngine.a</text>
<!-- Node0x557adfe56778 -->
<g id="node1" class="node">
<title>Node0x557adfe56778</title>
<polygon fill="none" stroke="black" points="943,-59 518,-59 518,-23 943,-23 943,-59"/>
<text text-anchor="middle" x="730.5" y="-37.3" font-family="Times,serif" font-size="14.00">{lib/libLLVMExecutionEngine.a(ExecutionEngine.cpp.o)}</text>
</g>
<!-- Node0x557adfe54a68 -->
<g id="node2" class="node">
<title>Node0x557adfe54a68</title>
<polygon fill="none" stroke="black" points="482,-59 0,-59 0,-23 482,-23 482,-59"/>
<text text-anchor="middle" x="241" y="-37.3" font-family="Times,serif" font-size="14.00">{lib/libLLVMExecutionEngine.a(GDBRegistrationListener.cpp.o)}</text>
</g>
<!-- Node0x557adfe54a68&#45;&gt;Node0x557adfe56778 -->
<g id="edge1" class="edge">
<title>Node0x557adfe54a68&#45;&gt;Node0x557adfe56778</title>
<path fill="none" stroke="black" d="M482.18,-41C490.64,-41 499.1,-41 507.53,-41"/>
<polygon fill="black" stroke="black" points="507.79,-44.5 517.79,-41 507.79,-37.5 507.79,-44.5"/>
</g>
<!-- Node0x557adfe55698 -->
<g id="node3" class="node">
<title>Node0x557adfe55698</title>
<polygon fill="none" stroke="black" points="480,-113 2,-113 2,-77 480,-77 480,-113"/>
<text text-anchor="middle" x="241" y="-91.3" font-family="Times,serif" font-size="14.00">{lib/libLLVMExecutionEngine.a(SectionMemoryManager.cpp.o)}</text>
</g>
<!-- Node0x557adfe53c08 -->
<g id="node4" class="node">
<title>Node0x557adfe53c08</title>
<polygon fill="none" stroke="black" points="438,-167 44,-167 44,-131 438,-131 438,-167"/>
<text text-anchor="middle" x="241" y="-145.3" font-family="Times,serif" font-size="14.00">{lib/libLLVMExecutionEngine.a(TargetSelect.cpp.o)}</text>
</g>
</g>
</svg>
