<?xml version="1.0" encoding="UTF-8" standalone="no"?>
<!DOCTYPE svg PUBLIC "-//W3C//DTD SVG 1.1//EN"
 "http://www.w3.org/Graphics/SVG/1.1/DTD/svg11.dtd">
<!-- Generated by graphviz version 2.43.0 (0)
 -->
<!-- Title: bin/lli_lib/libLLVMJITLink.a Pages: 1 -->
<svg width="1867pt" height="409pt"
 viewBox="0.00 0.00 1867.00 409.33" xmlns="http://www.w3.org/2000/svg" xmlns:xlink="http://www.w3.org/1999/xlink">
<g id="graph0" class="graph" transform="scale(1 1) rotate(0) translate(4 405.33)">
<title>bin/lli_lib/libLLVMJITLink.a</title>
<polygon fill="white" stroke="transparent" points="-4,4 -4,-405.33 1863,-405.33 1863,4 -4,4"/>
<text text-anchor="middle" x="929.5" y="-7.8" font-family="Times,serif" font-size="14.00">bin/lli_lib/libLLVMJITLink.a</text>
<!-- Node0x5613dbef27e8 -->
<g id="node1" class="node">
<title>Node0x5613dbef27e8</title>
<polygon fill="none" stroke="black" points="404,-315.2 0,-315.2 0,-279.2 404,-279.2 404,-315.2"/>
<text text-anchor="middle" x="202" y="-293.5" font-family="Times,serif" font-size="14.00">{lib/libLLVMJITLink.a(JITLinkMemoryManager.cpp.o)}</text>
</g>
<!-- Node0x5613dbee8658 -->
<g id="node2" class="node">
<title>Node0x5613dbee8658</title>
<polygon fill="none" stroke="black" points="381.5,-369.2 22.5,-369.2 22.5,-333.2 381.5,-333.2 381.5,-369.2"/>
<text text-anchor="middle" x="202" y="-347.5" font-family="Times,serif" font-size="14.00">{lib/libLLVMJITLink.a(EHFrameSupport.cpp.o)}</text>
</g>
<!-- Node0x5613dbee64e8 -->
<g id="node3" class="node">
<title>Node0x5613dbee64e8</title>
<polygon fill="none" stroke="black" points="722,-220.2 440,-220.2 440,-184.2 722,-184.2 722,-220.2"/>
<text text-anchor="middle" x="581" y="-198.5" font-family="Times,serif" font-size="14.00">{lib/libLLVMJITLink.a(JITLink.cpp.o)}</text>
</g>
<!-- Node0x5613dbee8658&#45;&gt;Node0x5613dbee64e8 -->
<g id="edge1" class="edge">
<title>Node0x5613dbee8658&#45;&gt;Node0x5613dbee64e8</title>
<path fill="none" stroke="black" d="M377.01,-333.14C386.25,-330.54 395.3,-327.58 404,-324.2 462.48,-301.53 520.32,-255.76 552.96,-227.18"/>
<polygon fill="black" stroke="black" points="555.55,-229.56 560.7,-220.31 550.9,-224.33 555.55,-229.56"/>
</g>
<!-- Node0x5613dbef4868 -->
<g id="node4" class="node">
<title>Node0x5613dbef4868</title>
<polygon fill="none" stroke="black" points="1028,-323.2 769,-323.2 769,-287.2 1028,-287.2 1028,-323.2"/>
<text text-anchor="middle" x="898.5" y="-301.5" font-family="Times,serif" font-size="14.00">{lib/libLLVMJITLink.a(ELF.cpp.o)}</text>
</g>
<!-- Node0x5613dbee64e8&#45;&gt;Node0x5613dbef4868 -->
<g id="edge2" class="edge">
<title>Node0x5613dbee64e8&#45;&gt;Node0x5613dbef4868</title>
<path fill="none" stroke="black" d="M639.82,-220.35C673.77,-233.81 717.77,-251.56 758,-264.2 783,-272.06 811.08,-278.87 835.46,-284.8"/>
<polygon fill="black" stroke="black" points="834.76,-288.23 845.3,-287.2 836.42,-281.43 834.76,-288.23"/>
</g>
<!-- Node0x5613dbee6268 -->
<g id="node5" class="node">
<title>Node0x5613dbee6268</title>
<polygon fill="none" stroke="black" points="1039,-155.2 758,-155.2 758,-119.2 1039,-119.2 1039,-155.2"/>
<text text-anchor="middle" x="898.5" y="-133.5" font-family="Times,serif" font-size="14.00">{lib/libLLVMJITLink.a(MachO.cpp.o)}</text>
</g>
<!-- Node0x5613dbee64e8&#45;&gt;Node0x5613dbee6268 -->
<g id="edge3" class="edge">
<title>Node0x5613dbee64e8&#45;&gt;Node0x5613dbee6268</title>
<path fill="none" stroke="black" d="M643.21,-184.12C678.7,-175.72 724.79,-165.83 767.96,-157.24"/>
<polygon fill="black" stroke="black" points="768.86,-160.63 777.99,-155.25 767.5,-153.76 768.86,-160.63"/>
</g>
<!-- Node0x5613dbef4868&#45;&gt;Node0x5613dbee64e8 -->
<g id="edge5" class="edge">
<title>Node0x5613dbef4868&#45;&gt;Node0x5613dbee64e8</title>
<path fill="none" stroke="black" d="M774.73,-287.18C769.05,-285.58 763.45,-283.92 758,-282.2 707.79,-266.43 651.72,-242.7 616.65,-224.9"/>
<polygon fill="black" stroke="black" points="618.26,-221.79 607.77,-220.27 615.03,-228 618.26,-221.79"/>
</g>
<!-- Node0x5613dbef3c38 -->
<g id="node6" class="node">
<title>Node0x5613dbef3c38</title>
<polygon fill="none" stroke="black" points="1404.5,-323.2 1085.5,-323.2 1085.5,-287.2 1404.5,-287.2 1404.5,-323.2"/>
<text text-anchor="middle" x="1245" y="-301.5" font-family="Times,serif" font-size="14.00">{lib/libLLVMJITLink.a(ELF_x86_64.cpp.o)}</text>
</g>
<!-- Node0x5613dbef4868&#45;&gt;Node0x5613dbef3c38 -->
<g id="edge4" class="edge">
<title>Node0x5613dbef4868&#45;&gt;Node0x5613dbef3c38</title>
<path fill="none" stroke="black" d="M1028.27,-305.2C1043.55,-305.2 1059.33,-305.2 1075.07,-305.2"/>
<polygon fill="black" stroke="black" points="1075.4,-308.7 1085.4,-305.2 1075.4,-301.7 1075.4,-308.7"/>
</g>
<!-- Node0x5613dbee6268&#45;&gt;Node0x5613dbee64e8 -->
<g id="edge6" class="edge">
<title>Node0x5613dbee6268&#45;&gt;Node0x5613dbee64e8</title>
<path fill="none" stroke="black" d="M836.41,-155.26C800.85,-163.68 754.61,-173.6 711.33,-182.21"/>
<polygon fill="black" stroke="black" points="710.41,-178.83 701.28,-184.2 711.77,-185.69 710.41,-178.83"/>
</g>
<!-- Node0x5613dbee6a38 -->
<g id="node7" class="node">
<title>Node0x5613dbee6a38</title>
<polygon fill="none" stroke="black" points="1412.5,-133.2 1077.5,-133.2 1077.5,-97.2 1412.5,-97.2 1412.5,-133.2"/>
<text text-anchor="middle" x="1245" y="-111.5" font-family="Times,serif" font-size="14.00">{lib/libLLVMJITLink.a(MachO_arm64.cpp.o)}</text>
</g>
<!-- Node0x5613dbee6268&#45;&gt;Node0x5613dbee6a38 -->
<g id="edge7" class="edge">
<title>Node0x5613dbee6268&#45;&gt;Node0x5613dbee6a38</title>
<path fill="none" stroke="black" d="M1039.12,-128.29C1048.37,-127.7 1057.75,-127.1 1067.14,-126.5"/>
<polygon fill="black" stroke="black" points="1067.58,-129.98 1077.34,-125.85 1067.13,-122.99 1067.58,-129.98"/>
</g>
<!-- Node0x5613dbeea5e8 -->
<g id="node8" class="node">
<title>Node0x5613dbeea5e8</title>
<polygon fill="none" stroke="black" points="1415,-189.2 1075,-189.2 1075,-153.2 1415,-153.2 1415,-189.2"/>
<text text-anchor="middle" x="1245" y="-167.5" font-family="Times,serif" font-size="14.00">{lib/libLLVMJITLink.a(MachO_x86_64.cpp.o)}</text>
</g>
<!-- Node0x5613dbee6268&#45;&gt;Node0x5613dbeea5e8 -->
<g id="edge8" class="edge">
<title>Node0x5613dbee6268&#45;&gt;Node0x5613dbeea5e8</title>
<path fill="none" stroke="black" d="M1039.12,-150.98C1047.57,-151.82 1056.12,-152.66 1064.7,-153.51"/>
<polygon fill="black" stroke="black" points="1064.48,-157 1074.78,-154.5 1065.17,-150.04 1064.48,-157"/>
</g>
<!-- Node0x5613dbef3c38&#45;&gt;Node0x5613dbee8658 -->
<g id="edge21" class="edge">
<title>Node0x5613dbef3c38&#45;&gt;Node0x5613dbee8658</title>
<path fill="none" stroke="black" d="M1196.4,-323.34C1155.39,-337.94 1094.25,-357.29 1039,-365.2 812,-397.74 546.8,-384.79 377,-370.1"/>
<polygon fill="black" stroke="black" points="377.23,-366.61 366.96,-369.22 376.62,-373.58 377.23,-366.61"/>
</g>
<!-- Node0x5613dbef3c38&#45;&gt;Node0x5613dbee64e8 -->
<g id="edge22" class="edge">
<title>Node0x5613dbef3c38&#45;&gt;Node0x5613dbee64e8</title>
<path fill="none" stroke="black" d="M1108.12,-287.2C1010.53,-273.89 875.95,-254.75 758,-235.2 734.01,-231.23 708.25,-226.6 684.04,-222.09"/>
<polygon fill="black" stroke="black" points="684.6,-218.64 674.13,-220.24 683.31,-225.52 684.6,-218.64"/>
</g>
<!-- Node0x5613dbeeaef8 -->
<g id="node10" class="node">
<title>Node0x5613dbeeaef8</title>
<polygon fill="none" stroke="black" points="1824,-239.2 1486,-239.2 1486,-203.2 1824,-203.2 1824,-239.2"/>
<text text-anchor="middle" x="1655" y="-217.5" font-family="Times,serif" font-size="14.00">{lib/libLLVMJITLink.a(JITLinkGeneric.cpp.o)}</text>
</g>
<!-- Node0x5613dbef3c38&#45;&gt;Node0x5613dbeeaef8 -->
<g id="edge23" class="edge">
<title>Node0x5613dbef3c38&#45;&gt;Node0x5613dbeeaef8</title>
<path fill="none" stroke="black" d="M1333.53,-287.18C1399.03,-273.7 1488.62,-255.25 1556.43,-241.29"/>
<polygon fill="black" stroke="black" points="1557.18,-244.71 1566.27,-239.27 1555.77,-237.85 1557.18,-244.71"/>
</g>
<!-- Node0x5613dbef3a08 -->
<g id="node12" class="node">
<title>Node0x5613dbef3a08</title>
<polygon fill="none" stroke="black" points="1848.5,-384.2 1461.5,-384.2 1461.5,-348.2 1848.5,-348.2 1848.5,-384.2"/>
<text text-anchor="middle" x="1655" y="-362.5" font-family="Times,serif" font-size="14.00">{lib/libLLVMJITLink.a(ELFLinkGraphBuilder.cpp.o)}</text>
</g>
<!-- Node0x5613dbef3c38&#45;&gt;Node0x5613dbef3a08 -->
<g id="edge20" class="edge">
<title>Node0x5613dbef3c38&#45;&gt;Node0x5613dbef3a08</title>
<path fill="none" stroke="black" d="M1366.48,-323.22C1415.84,-330.6 1473.07,-339.15 1523.42,-346.68"/>
<polygon fill="black" stroke="black" points="1522.99,-350.16 1533.4,-348.17 1524.03,-343.23 1522.99,-350.16"/>
</g>
<!-- Node0x5613dbee6a38&#45;&gt;Node0x5613dbee64e8 -->
<g id="edge9" class="edge">
<title>Node0x5613dbee6a38&#45;&gt;Node0x5613dbee64e8</title>
<path fill="none" stroke="black" d="M1120.47,-97.19C1021.07,-86.67 878.56,-80.59 758,-110.2 704.67,-123.3 649.58,-155.71 615.55,-178.33"/>
<polygon fill="black" stroke="black" points="613.28,-175.65 606.95,-184.14 617.2,-181.45 613.28,-175.65"/>
</g>
<!-- Node0x5613dbeea048 -->
<g id="node9" class="node">
<title>Node0x5613dbeea048</title>
<polygon fill="none" stroke="black" points="1859,-131.2 1451,-131.2 1451,-95.2 1859,-95.2 1859,-131.2"/>
<text text-anchor="middle" x="1655" y="-109.5" font-family="Times,serif" font-size="14.00">{lib/libLLVMJITLink.a(MachOLinkGraphBuilder.cpp.o)}</text>
</g>
<!-- Node0x5613dbee6a38&#45;&gt;Node0x5613dbeea048 -->
<g id="edge10" class="edge">
<title>Node0x5613dbee6a38&#45;&gt;Node0x5613dbeea048</title>
<path fill="none" stroke="black" d="M1412.54,-114.39C1421.84,-114.34 1431.25,-114.3 1440.69,-114.25"/>
<polygon fill="black" stroke="black" points="1440.96,-117.75 1450.94,-114.2 1440.92,-110.75 1440.96,-117.75"/>
</g>
<!-- Node0x5613dbee6a38&#45;&gt;Node0x5613dbeeaef8 -->
<g id="edge11" class="edge">
<title>Node0x5613dbee6a38&#45;&gt;Node0x5613dbeeaef8</title>
<path fill="none" stroke="black" d="M1393.81,-133.26C1401.19,-136.4 1408.31,-140.02 1415,-144.2 1438.22,-158.71 1427.51,-180.14 1451,-194.2 1459.01,-199 1467.51,-203.09 1476.32,-206.58"/>
<polygon fill="black" stroke="black" points="1475.39,-209.97 1485.99,-210.14 1477.81,-203.4 1475.39,-209.97"/>
</g>
<!-- Node0x5613dbeea5e8&#45;&gt;Node0x5613dbee8658 -->
<g id="edge13" class="edge">
<title>Node0x5613dbeea5e8&#45;&gt;Node0x5613dbee8658</title>
<path fill="none" stroke="black" d="M1206.27,-189.21C1169.78,-207.89 1114.38,-239.75 1075,-278.2 1054.36,-298.36 1064.28,-318.31 1039,-332.2 983.96,-362.47 621.32,-360.5 392.09,-356.04"/>
<polygon fill="black" stroke="black" points="392.03,-352.54 381.96,-355.84 391.89,-359.54 392.03,-352.54"/>
</g>
<!-- Node0x5613dbeea5e8&#45;&gt;Node0x5613dbee64e8 -->
<g id="edge14" class="edge">
<title>Node0x5613dbeea5e8&#45;&gt;Node0x5613dbee64e8</title>
<path fill="none" stroke="black" d="M1074.76,-179.13C969.13,-184.08 834.35,-190.39 732.46,-195.16"/>
<polygon fill="black" stroke="black" points="732.22,-191.67 722.39,-195.63 732.55,-198.66 732.22,-191.67"/>
</g>
<!-- Node0x5613dbeea5e8&#45;&gt;Node0x5613dbeea048 -->
<g id="edge15" class="edge">
<title>Node0x5613dbeea5e8&#45;&gt;Node0x5613dbeea048</title>
<path fill="none" stroke="black" d="M1362.76,-153.18C1391.59,-148.83 1422.4,-144.27 1451,-140.2 1468.83,-137.67 1487.55,-135.08 1506.11,-132.56"/>
<polygon fill="black" stroke="black" points="1506.65,-136.02 1516.09,-131.21 1505.71,-129.08 1506.65,-136.02"/>
</g>
<!-- Node0x5613dbeea5e8&#45;&gt;Node0x5613dbeeaef8 -->
<g id="edge16" class="edge">
<title>Node0x5613dbeea5e8&#45;&gt;Node0x5613dbeeaef8</title>
<path fill="none" stroke="black" d="M1393.01,-189.22C1426.78,-193.36 1462.82,-197.78 1497,-201.96"/>
<polygon fill="black" stroke="black" points="1496.71,-205.45 1507.06,-203.2 1497.56,-198.51 1496.71,-205.45"/>
</g>
<!-- Node0x5613dbef4ae8 -->
<g id="node11" class="node">
<title>Node0x5613dbef4ae8</title>
<polygon fill="none" stroke="black" points="1796.5,-185.2 1513.5,-185.2 1513.5,-149.2 1796.5,-149.2 1796.5,-185.2"/>
<text text-anchor="middle" x="1655" y="-163.5" font-family="Times,serif" font-size="14.00">{lib/libLLVMJITLink.a(x86_64.cpp.o)}</text>
</g>
<!-- Node0x5613dbeea5e8&#45;&gt;Node0x5613dbef4ae8 -->
<g id="edge12" class="edge">
<title>Node0x5613dbeea5e8&#45;&gt;Node0x5613dbef4ae8</title>
<path fill="none" stroke="black" d="M1415.19,-169.55C1444.39,-169.26 1474.57,-168.96 1503.24,-168.68"/>
<polygon fill="black" stroke="black" points="1503.35,-172.18 1513.32,-168.58 1503.28,-165.18 1503.35,-172.18"/>
</g>
<!-- Node0x5613dbeea048&#45;&gt;Node0x5613dbee64e8 -->
<g id="edge17" class="edge">
<title>Node0x5613dbeea048&#45;&gt;Node0x5613dbee64e8</title>
<path fill="none" stroke="black" d="M1591.61,-95.14C1442.73,-55.22 1056.81,29.4 758,-70.2 694.94,-91.23 636.27,-144.68 605.17,-176.74"/>
<polygon fill="black" stroke="black" points="602.61,-174.37 598.24,-184.02 607.67,-179.2 602.61,-174.37"/>
</g>
<!-- Node0x5613dbeeaef8&#45;&gt;Node0x5613dbee64e8 -->
<g id="edge18" class="edge">
<title>Node0x5613dbeeaef8&#45;&gt;Node0x5613dbee64e8</title>
<path fill="none" stroke="black" d="M1485.58,-218.22C1278.64,-214.55 930.66,-208.38 732.35,-204.87"/>
<polygon fill="black" stroke="black" points="732.21,-201.37 722.15,-204.69 732.08,-208.36 732.21,-201.37"/>
</g>
<!-- Node0x5613dbef4ae8&#45;&gt;Node0x5613dbee64e8 -->
<g id="edge19" class="edge">
<title>Node0x5613dbef4ae8&#45;&gt;Node0x5613dbee64e8</title>
<path fill="none" stroke="black" d="M1513.35,-164C1491.41,-159.21 1469.81,-151.7 1451,-140.2 1427.02,-125.54 1439.83,-101.38 1415,-88.2 1386.99,-73.34 810.89,-68.12 758,-84.2 698.3,-102.36 640.44,-148.27 608.2,-177.17"/>
<polygon fill="black" stroke="black" points="605.6,-174.8 600.57,-184.13 610.32,-179.98 605.6,-174.8"/>
</g>
<!-- Node0x5613dbef3a08&#45;&gt;Node0x5613dbee64e8 -->
<g id="edge24" class="edge">
<title>Node0x5613dbef3a08&#45;&gt;Node0x5613dbee64e8</title>
<path fill="none" stroke="black" d="M1527.6,-384.22C1350.06,-404.51 1019.31,-423.78 758,-332.2 696.2,-310.55 637.82,-259.11 606.28,-227.82"/>
<polygon fill="black" stroke="black" points="608.38,-224.96 598.85,-220.33 603.41,-229.89 608.38,-224.96"/>
</g>
</g>
</svg>
