<?xml version="1.0" encoding="UTF-8" standalone="no"?>
<!DOCTYPE svg PUBLIC "-//W3C//DTD SVG 1.1//EN"
 "http://www.w3.org/Graphics/SVG/1.1/DTD/svg11.dtd">
<!-- Generated by graphviz version 2.43.0 (0)
 -->
<!-- Title: bin/llvm&#45;cxxdump_lib/libLLVMMCParser.a Pages: 1 -->
<svg width="1230pt" height="499pt"
 viewBox="0.00 0.00 1230.00 499.00" xmlns="http://www.w3.org/2000/svg" xmlns:xlink="http://www.w3.org/1999/xlink">
<g id="graph0" class="graph" transform="scale(1 1) rotate(0) translate(4 495)">
<title>bin/llvm&#45;cxxdump_lib/libLLVMMCParser.a</title>
<polygon fill="white" stroke="transparent" points="-4,4 -4,-495 1226,-495 1226,4 -4,4"/>
<text text-anchor="middle" x="611" y="-7.8" font-family="Times,serif" font-size="14.00">bin/llvm&#45;cxxdump_lib/libLLVMMCParser.a</text>
<!-- Node0x5571f4549838 -->
<g id="node1" class="node">
<title>Node0x5571f4549838</title>
<polygon fill="none" stroke="black" points="327,-275 0,-275 0,-239 327,-239 327,-275"/>
<text text-anchor="middle" x="163.5" y="-253.3" font-family="Times,serif" font-size="14.00">{lib/libLLVMMCParser.a(AsmParser.cpp.o)}</text>
</g>
<!-- Node0x5571f45495b8 -->
<g id="node2" class="node">
<title>Node0x5571f45495b8</title>
<polygon fill="none" stroke="black" points="722.5,-491 401.5,-491 401.5,-455 722.5,-455 722.5,-491"/>
<text text-anchor="middle" x="562" y="-469.3" font-family="Times,serif" font-size="14.00">{lib/libLLVMMCParser.a(AsmLexer.cpp.o)}</text>
</g>
<!-- Node0x5571f4549838&#45;&gt;Node0x5571f45495b8 -->
<g id="edge1" class="edge">
<title>Node0x5571f4549838&#45;&gt;Node0x5571f45495b8</title>
<path fill="none" stroke="black" d="M177.16,-275.13C205.42,-313.98 277.87,-405.07 363,-446 372.18,-450.41 381.86,-454.17 391.81,-457.36"/>
<polygon fill="black" stroke="black" points="390.83,-460.73 401.41,-460.26 392.85,-454.02 390.83,-460.73"/>
</g>
<!-- Node0x5571f45488e8 -->
<g id="node3" class="node">
<title>Node0x5571f45488e8</title>
<polygon fill="none" stroke="black" points="745.5,-437 378.5,-437 378.5,-401 745.5,-401 745.5,-437"/>
<text text-anchor="middle" x="562" y="-415.3" font-family="Times,serif" font-size="14.00">{lib/libLLVMMCParser.a(COFFAsmParser.cpp.o)}</text>
</g>
<!-- Node0x5571f4549838&#45;&gt;Node0x5571f45488e8 -->
<g id="edge2" class="edge">
<title>Node0x5571f4549838&#45;&gt;Node0x5571f45488e8</title>
<path fill="none" stroke="black" d="M184.13,-275.05C217.86,-304.92 290.24,-364.08 363,-392 368.79,-394.22 374.74,-396.27 380.8,-398.15"/>
<polygon fill="black" stroke="black" points="379.81,-401.5 390.39,-400.97 381.79,-394.79 379.81,-401.5"/>
</g>
<!-- Node0x5571f4548758 -->
<g id="node4" class="node">
<title>Node0x5571f4548758</title>
<polygon fill="none" stroke="black" points="751.5,-383 372.5,-383 372.5,-347 751.5,-347 751.5,-383"/>
<text text-anchor="middle" x="562" y="-361.3" font-family="Times,serif" font-size="14.00">{lib/libLLVMMCParser.a(DarwinAsmParser.cpp.o)}</text>
</g>
<!-- Node0x5571f4549838&#45;&gt;Node0x5571f4548758 -->
<g id="edge3" class="edge">
<title>Node0x5571f4549838&#45;&gt;Node0x5571f4548758</title>
<path fill="none" stroke="black" d="M200.85,-275.09C239.94,-293.77 304.39,-322.32 363,-338 372.49,-340.54 382.3,-342.85 392.25,-344.94"/>
<polygon fill="black" stroke="black" points="391.74,-348.41 402.23,-346.97 393.13,-341.55 391.74,-348.41"/>
</g>
<!-- Node0x5571f4547b78 -->
<g id="node5" class="node">
<title>Node0x5571f4547b78</title>
<polygon fill="none" stroke="black" points="739.5,-329 384.5,-329 384.5,-293 739.5,-293 739.5,-329"/>
<text text-anchor="middle" x="562" y="-307.3" font-family="Times,serif" font-size="14.00">{lib/libLLVMMCParser.a(ELFAsmParser.cpp.o)}</text>
</g>
<!-- Node0x5571f4549838&#45;&gt;Node0x5571f4547b78 -->
<g id="edge4" class="edge">
<title>Node0x5571f4549838&#45;&gt;Node0x5571f4547b78</title>
<path fill="none" stroke="black" d="M296.8,-275.02C335.94,-280.35 378.94,-286.21 418.68,-291.62"/>
<polygon fill="black" stroke="black" points="418.33,-295.1 428.71,-292.98 419.27,-288.17 418.33,-295.1"/>
</g>
<!-- Node0x5571f4547808 -->
<g id="node6" class="node">
<title>Node0x5571f4547808</title>
<polygon fill="none" stroke="black" points="735,-113 389,-113 389,-77 735,-77 735,-113"/>
<text text-anchor="middle" x="562" y="-91.3" font-family="Times,serif" font-size="14.00">{lib/libLLVMMCParser.a(MCAsmLexer.cpp.o)}</text>
</g>
<!-- Node0x5571f4549838&#45;&gt;Node0x5571f4547808 -->
<g id="edge5" class="edge">
<title>Node0x5571f4549838&#45;&gt;Node0x5571f4547808</title>
<path fill="none" stroke="black" d="M184.13,-238.95C217.86,-209.08 290.24,-149.92 363,-122 368.79,-119.78 374.74,-117.73 380.8,-115.85"/>
<polygon fill="black" stroke="black" points="381.79,-119.21 390.39,-113.03 379.81,-112.5 381.79,-119.21"/>
</g>
<!-- Node0x5571f454bc78 -->
<g id="node7" class="node">
<title>Node0x5571f454bc78</title>
<polygon fill="none" stroke="black" points="738,-167 386,-167 386,-131 738,-131 738,-167"/>
<text text-anchor="middle" x="562" y="-145.3" font-family="Times,serif" font-size="14.00">{lib/libLLVMMCParser.a(MCAsmParser.cpp.o)}</text>
</g>
<!-- Node0x5571f4549838&#45;&gt;Node0x5571f454bc78 -->
<g id="edge6" class="edge">
<title>Node0x5571f4549838&#45;&gt;Node0x5571f454bc78</title>
<path fill="none" stroke="black" d="M200.85,-238.91C239.94,-220.23 304.39,-191.68 363,-176 372.49,-173.46 382.3,-171.15 392.25,-169.06"/>
<polygon fill="black" stroke="black" points="393.13,-172.45 402.23,-167.03 391.74,-165.59 393.13,-172.45"/>
</g>
<!-- Node0x5571f4549e28 -->
<g id="node8" class="node">
<title>Node0x5571f4549e28</title>
<polygon fill="none" stroke="black" points="761,-275 363,-275 363,-239 761,-239 761,-275"/>
<text text-anchor="middle" x="562" y="-253.3" font-family="Times,serif" font-size="14.00">{lib/libLLVMMCParser.a(MCTargetAsmParser.cpp.o)}</text>
</g>
<!-- Node0x5571f4549838&#45;&gt;Node0x5571f4549e28 -->
<g id="edge7" class="edge">
<title>Node0x5571f4549838&#45;&gt;Node0x5571f4549e28</title>
<path fill="none" stroke="black" d="M327.2,-257C335.65,-257 344.19,-257 352.75,-257"/>
<polygon fill="black" stroke="black" points="352.81,-260.5 362.81,-257 352.81,-253.5 352.81,-260.5"/>
</g>
<!-- Node0x5571f454abe8 -->
<g id="node9" class="node">
<title>Node0x5571f454abe8</title>
<polygon fill="none" stroke="black" points="747,-221 377,-221 377,-185 747,-185 747,-221"/>
<text text-anchor="middle" x="562" y="-199.3" font-family="Times,serif" font-size="14.00">{lib/libLLVMMCParser.a(WasmAsmParser.cpp.o)}</text>
</g>
<!-- Node0x5571f4549838&#45;&gt;Node0x5571f454abe8 -->
<g id="edge8" class="edge">
<title>Node0x5571f4549838&#45;&gt;Node0x5571f454abe8</title>
<path fill="none" stroke="black" d="M296.8,-238.98C335.94,-233.65 378.94,-227.79 418.68,-222.38"/>
<polygon fill="black" stroke="black" points="419.27,-225.83 428.71,-221.02 418.33,-218.9 419.27,-225.83"/>
</g>
<!-- Node0x5571f454b818 -->
<g id="node10" class="node">
<title>Node0x5571f454b818</title>
<polygon fill="none" stroke="black" points="750.5,-59 373.5,-59 373.5,-23 750.5,-23 750.5,-59"/>
<text text-anchor="middle" x="562" y="-37.3" font-family="Times,serif" font-size="14.00">{lib/libLLVMMCParser.a(XCOFFAsmParser.cpp.o)}</text>
</g>
<!-- Node0x5571f4549838&#45;&gt;Node0x5571f454b818 -->
<g id="edge9" class="edge">
<title>Node0x5571f4549838&#45;&gt;Node0x5571f454b818</title>
<path fill="none" stroke="black" d="M177.16,-238.87C205.42,-200.02 277.87,-108.93 363,-68 366.91,-66.12 370.92,-64.36 374.99,-62.71"/>
<polygon fill="black" stroke="black" points="376.52,-65.87 384.63,-59.06 374.04,-59.33 376.52,-65.87"/>
</g>
<!-- Node0x5571f45495b8&#45;&gt;Node0x5571f4547808 -->
<g id="edge11" class="edge">
<title>Node0x5571f45495b8&#45;&gt;Node0x5571f4547808</title>
<path fill="none" stroke="black" d="M401.39,-477.96C378.31,-470.73 358,-458.03 345,-437 327.13,-408.08 327.13,-159.92 345,-131 353.69,-116.94 365.64,-106.61 379.5,-99.14"/>
<polygon fill="black" stroke="black" points="381.37,-102.13 388.87,-94.64 378.34,-95.82 381.37,-102.13"/>
</g>
<!-- Node0x5571f45488e8&#45;&gt;Node0x5571f4547808 -->
<g id="edge12" class="edge">
<title>Node0x5571f45488e8&#45;&gt;Node0x5571f4547808</title>
<path fill="none" stroke="black" d="M378.28,-414.19C364.94,-406.78 353.43,-396.64 345,-383 330.28,-359.18 330.28,-154.82 345,-131 353.69,-116.94 365.64,-106.61 379.5,-99.14"/>
<polygon fill="black" stroke="black" points="381.37,-102.13 388.87,-94.64 378.34,-95.82 381.37,-102.13"/>
</g>
<!-- Node0x5571f45488e8&#45;&gt;Node0x5571f454bc78 -->
<g id="edge13" class="edge">
<title>Node0x5571f45488e8&#45;&gt;Node0x5571f454bc78</title>
<path fill="none" stroke="black" d="M378.28,-414.19C364.94,-406.78 353.43,-396.64 345,-383 321.87,-345.57 321.87,-222.43 345,-185 353.07,-171.93 363.97,-162.09 376.6,-154.77"/>
<polygon fill="black" stroke="black" points="378.34,-157.81 385.6,-150.09 375.11,-151.59 378.34,-157.81"/>
</g>
<!-- Node0x5571f454bb88 -->
<g id="node11" class="node">
<title>Node0x5571f454bb88</title>
<polygon fill="none" stroke="black" points="1222,-248 797,-248 797,-212 1222,-212 1222,-248"/>
<text text-anchor="middle" x="1009.5" y="-226.3" font-family="Times,serif" font-size="14.00">{lib/libLLVMMCParser.a(MCAsmParserExtension.cpp.o)}</text>
</g>
<!-- Node0x5571f45488e8&#45;&gt;Node0x5571f454bb88 -->
<g id="edge14" class="edge">
<title>Node0x5571f45488e8&#45;&gt;Node0x5571f454bb88</title>
<path fill="none" stroke="black" d="M732.76,-400.99C742.42,-398.38 751.9,-395.4 761,-392 848.45,-359.33 936.5,-291.37 980.21,-254.71"/>
<polygon fill="black" stroke="black" points="982.72,-257.17 988.09,-248.03 978.2,-251.83 982.72,-257.17"/>
</g>
<!-- Node0x5571f4548758&#45;&gt;Node0x5571f4547808 -->
<g id="edge15" class="edge">
<title>Node0x5571f4548758&#45;&gt;Node0x5571f4547808</title>
<path fill="none" stroke="black" d="M372.22,-356.55C361.45,-349.56 352.13,-340.53 345,-329 321.87,-291.57 321.87,-168.43 345,-131 353.69,-116.94 365.64,-106.61 379.5,-99.14"/>
<polygon fill="black" stroke="black" points="381.37,-102.13 388.87,-94.64 378.34,-95.82 381.37,-102.13"/>
</g>
<!-- Node0x5571f4548758&#45;&gt;Node0x5571f454bc78 -->
<g id="edge16" class="edge">
<title>Node0x5571f4548758&#45;&gt;Node0x5571f454bc78</title>
<path fill="none" stroke="black" d="M372.22,-356.55C361.45,-349.56 352.13,-340.53 345,-329 328.18,-301.78 328.18,-212.22 345,-185 353.07,-171.93 363.97,-162.09 376.6,-154.77"/>
<polygon fill="black" stroke="black" points="378.34,-157.81 385.6,-150.09 375.11,-151.59 378.34,-157.81"/>
</g>
<!-- Node0x5571f4548758&#45;&gt;Node0x5571f454bb88 -->
<g id="edge17" class="edge">
<title>Node0x5571f4548758&#45;&gt;Node0x5571f454bb88</title>
<path fill="none" stroke="black" d="M723.45,-346.98C736.24,-344.37 748.89,-341.4 761,-338 836.06,-316.94 918.03,-277.68 966.27,-252.74"/>
<polygon fill="black" stroke="black" points="967.91,-255.83 975.16,-248.1 964.68,-249.62 967.91,-255.83"/>
</g>
<!-- Node0x5571f4547b78&#45;&gt;Node0x5571f4547808 -->
<g id="edge18" class="edge">
<title>Node0x5571f4547b78&#45;&gt;Node0x5571f4547808</title>
<path fill="none" stroke="black" d="M384.11,-309.2C368.29,-301.6 354.64,-290.59 345,-275 328.18,-247.78 328.18,-158.22 345,-131 353.69,-116.94 365.64,-106.61 379.5,-99.14"/>
<polygon fill="black" stroke="black" points="381.37,-102.13 388.87,-94.64 378.34,-95.82 381.37,-102.13"/>
</g>
<!-- Node0x5571f4547b78&#45;&gt;Node0x5571f454bc78 -->
<g id="edge19" class="edge">
<title>Node0x5571f4547b78&#45;&gt;Node0x5571f454bc78</title>
<path fill="none" stroke="black" d="M384.11,-309.2C368.29,-301.6 354.64,-290.59 345,-275 323.97,-240.97 323.97,-219.03 345,-185 353.07,-171.93 363.97,-162.09 376.6,-154.77"/>
<polygon fill="black" stroke="black" points="378.34,-157.81 385.6,-150.09 375.11,-151.59 378.34,-157.81"/>
</g>
<!-- Node0x5571f4547b78&#45;&gt;Node0x5571f454bb88 -->
<g id="edge20" class="edge">
<title>Node0x5571f4547b78&#45;&gt;Node0x5571f454bb88</title>
<path fill="none" stroke="black" d="M705.17,-293C723.98,-290.21 742.98,-287.19 761,-284 815.28,-274.39 875.73,-261.25 923.31,-250.34"/>
<polygon fill="black" stroke="black" points="924.3,-253.7 933.26,-248.04 922.73,-246.88 924.3,-253.7"/>
</g>
<!-- Node0x5571f454bc78&#45;&gt;Node0x5571f4547808 -->
<g id="edge10" class="edge">
<title>Node0x5571f454bc78&#45;&gt;Node0x5571f4547808</title>
<path fill="none" stroke="black" d="M562,-130.79C562,-128.31 562,-125.83 562,-123.34"/>
<polygon fill="black" stroke="black" points="565.5,-123.14 562,-113.14 558.5,-123.14 565.5,-123.14"/>
</g>
<!-- Node0x5571f4549e28&#45;&gt;Node0x5571f4547808 -->
<g id="edge21" class="edge">
<title>Node0x5571f4549e28&#45;&gt;Node0x5571f4547808</title>
<path fill="none" stroke="black" d="M362.65,-241.45C355.88,-235.72 349.92,-228.96 345,-221 323.97,-186.97 323.97,-165.03 345,-131 353.69,-116.94 365.64,-106.61 379.5,-99.14"/>
<polygon fill="black" stroke="black" points="381.37,-102.13 388.87,-94.64 378.34,-95.82 381.37,-102.13"/>
</g>
<!-- Node0x5571f4549e28&#45;&gt;Node0x5571f454bb88 -->
<g id="edge22" class="edge">
<title>Node0x5571f4549e28&#45;&gt;Node0x5571f454bb88</title>
<path fill="none" stroke="black" d="M761.32,-244.98C769.83,-244.46 778.39,-243.95 786.95,-243.43"/>
<polygon fill="black" stroke="black" points="787.22,-246.92 796.99,-242.82 786.8,-239.93 787.22,-246.92"/>
</g>
<!-- Node0x5571f454abe8&#45;&gt;Node0x5571f4547808 -->
<g id="edge23" class="edge">
<title>Node0x5571f454abe8&#45;&gt;Node0x5571f4547808</title>
<path fill="none" stroke="black" d="M376.86,-187.86C345.12,-177.18 327.31,-159.62 345,-131 353.69,-116.94 365.64,-106.61 379.5,-99.14"/>
<polygon fill="black" stroke="black" points="381.37,-102.13 388.87,-94.64 378.34,-95.82 381.37,-102.13"/>
</g>
<!-- Node0x5571f454abe8&#45;&gt;Node0x5571f454bc78 -->
<g id="edge24" class="edge">
<title>Node0x5571f454abe8&#45;&gt;Node0x5571f454bc78</title>
<path fill="none" stroke="black" d="M562,-184.79C562,-182.31 562,-179.83 562,-177.34"/>
<polygon fill="black" stroke="black" points="565.5,-177.14 562,-167.14 558.5,-177.14 565.5,-177.14"/>
</g>
<!-- Node0x5571f454abe8&#45;&gt;Node0x5571f454bb88 -->
<g id="edge25" class="edge">
<title>Node0x5571f454abe8&#45;&gt;Node0x5571f454bb88</title>
<path fill="none" stroke="black" d="M747.1,-214.16C760.17,-214.95 773.43,-215.75 786.68,-216.56"/>
<polygon fill="black" stroke="black" points="786.62,-220.06 796.81,-217.17 787.04,-213.07 786.62,-220.06"/>
</g>
<!-- Node0x5571f454b818&#45;&gt;Node0x5571f454bb88 -->
<g id="edge26" class="edge">
<title>Node0x5571f454b818&#45;&gt;Node0x5571f454bb88</title>
<path fill="none" stroke="black" d="M732.76,-59.01C742.42,-61.62 751.9,-64.6 761,-68 848.45,-100.67 936.5,-168.63 980.21,-205.29"/>
<polygon fill="black" stroke="black" points="978.2,-208.17 988.09,-211.97 982.72,-202.83 978.2,-208.17"/>
</g>
<!-- Node0x5571f454bb88&#45;&gt;Node0x5571f4547808 -->
<g id="edge27" class="edge">
<title>Node0x5571f454bb88&#45;&gt;Node0x5571f4547808</title>
<path fill="none" stroke="black" d="M975.16,-211.9C928.63,-187.46 840.9,-144.41 761,-122 752.01,-119.48 742.73,-117.19 733.31,-115.11"/>
<polygon fill="black" stroke="black" points="733.96,-111.67 723.45,-113.02 732.5,-118.52 733.96,-111.67"/>
</g>
<!-- Node0x5571f454bb88&#45;&gt;Node0x5571f454bc78 -->
<g id="edge28" class="edge">
<title>Node0x5571f454bb88&#45;&gt;Node0x5571f454bc78</title>
<path fill="none" stroke="black" d="M933.26,-211.96C884.37,-200.64 819.14,-186.29 761,-176 746.22,-173.38 730.78,-170.88 715.32,-168.53"/>
<polygon fill="black" stroke="black" points="715.58,-165.03 705.17,-167 714.54,-171.95 715.58,-165.03"/>
</g>
</g>
</svg>
