<?xml version="1.0" encoding="UTF-8" standalone="no"?>
<!DOCTYPE svg PUBLIC "-//W3C//DTD SVG 1.1//EN"
 "http://www.w3.org/Graphics/SVG/1.1/DTD/svg11.dtd">
<!-- Generated by graphviz version 2.43.0 (0)
 -->
<!-- Title: bin/llvm&#45;ml Pages: 1 -->
<svg width="2558pt" height="287pt"
 viewBox="0.00 0.00 2558.00 287.00" xmlns="http://www.w3.org/2000/svg" xmlns:xlink="http://www.w3.org/1999/xlink">
<g id="graph0" class="graph" transform="scale(1 1) rotate(0) translate(4 283)">
<title>bin/llvm&#45;ml</title>
<polygon fill="white" stroke="transparent" points="-4,4 -4,-283 2554,-283 2554,4 -4,4"/>
<text text-anchor="middle" x="1275" y="-7.8" font-family="Times,serif" font-size="14.00">bin/llvm&#45;ml</text>
<!-- Node0x558ec3f97d18 -->
<g id="node1" class="node">
<title>Node0x558ec3f97d18</title>
<polygon fill="none" stroke="black" points="838.5,-242.5 838.5,-278.5 1218.5,-278.5 1218.5,-242.5 838.5,-242.5"/>
<text text-anchor="middle" x="1028.5" y="-256.8" font-family="Times,serif" font-size="14.00">tools/llvm&#45;ml/CMakeFiles/llvm&#45;ml.dir/llvm&#45;ml.cpp.o</text>
</g>
<!-- Node0x558ec3f94640 -->
<g id="node2" class="node">
<title>Node0x558ec3f94640</title>
<polygon fill="none" stroke="black" points="680.5,-169.5 680.5,-205.5 894.5,-205.5 894.5,-169.5 680.5,-169.5"/>
<text text-anchor="middle" x="787.5" y="-183.8" font-family="Times,serif" font-size="14.00">lib/libLLVMX86AsmParser.a</text>
</g>
<!-- Node0x558ec3f97d18&#45;&gt;Node0x558ec3f94640 -->
<g id="edge1" class="edge">
<title>Node0x558ec3f97d18&#45;&gt;Node0x558ec3f94640</title>
<path fill="none" stroke="black" d="M964.92,-242.49C929.21,-232.29 884.9,-219.27 849.46,-208.57"/>
<polygon fill="black" stroke="black" points="850.3,-205.16 839.72,-205.61 848.27,-211.86 850.3,-205.16"/>
</g>
<!-- Node0x558ec3f92280 -->
<g id="node3" class="node">
<title>Node0x558ec3f92280</title>
<polygon fill="none" stroke="black" points="1378,-169.5 1378,-205.5 1551,-205.5 1551,-169.5 1378,-169.5"/>
<text text-anchor="middle" x="1464.5" y="-183.8" font-family="Times,serif" font-size="14.00">lib/libLLVMX86Desc.a</text>
</g>
<!-- Node0x558ec3f97d18&#45;&gt;Node0x558ec3f92280 -->
<g id="edge2" class="edge">
<title>Node0x558ec3f97d18&#45;&gt;Node0x558ec3f92280</title>
<path fill="none" stroke="black" d="M1141.17,-242.47C1204.84,-232.68 1286.16,-219.9 1367.94,-206.08"/>
<polygon fill="black" stroke="black" points="1368.64,-209.51 1377.91,-204.38 1367.47,-202.6 1368.64,-209.51"/>
</g>
<!-- Node0x558ec3f93a10 -->
<g id="node4" class="node">
<title>Node0x558ec3f93a10</title>
<polygon fill="none" stroke="black" points="912,-169.5 912,-205.5 1145,-205.5 1145,-169.5 912,-169.5"/>
<text text-anchor="middle" x="1028.5" y="-183.8" font-family="Times,serif" font-size="14.00">lib/libLLVMX86Disassembler.a</text>
</g>
<!-- Node0x558ec3f97d18&#45;&gt;Node0x558ec3f93a10 -->
<g id="edge3" class="edge">
<title>Node0x558ec3f97d18&#45;&gt;Node0x558ec3f93a10</title>
<path fill="none" stroke="black" d="M1028.5,-242.31C1028.5,-234.29 1028.5,-224.55 1028.5,-215.57"/>
<polygon fill="black" stroke="black" points="1032,-215.53 1028.5,-205.53 1025,-215.53 1032,-215.53"/>
</g>
<!-- Node0x558ec3f97630 -->
<g id="node5" class="node">
<title>Node0x558ec3f97630</title>
<polygon fill="none" stroke="black" points="569.5,-96.5 569.5,-132.5 735.5,-132.5 735.5,-96.5 569.5,-96.5"/>
<text text-anchor="middle" x="652.5" y="-110.8" font-family="Times,serif" font-size="14.00">lib/libLLVMX86Info.a</text>
</g>
<!-- Node0x558ec3f97d18&#45;&gt;Node0x558ec3f97630 -->
<g id="edge4" class="edge">
<title>Node0x558ec3f97d18&#45;&gt;Node0x558ec3f97630</title>
<path fill="none" stroke="black" d="M838.03,-250.33C766.64,-242.98 696.69,-229.76 671.5,-206 654.57,-190.03 650.72,-163.13 650.57,-142.8"/>
<polygon fill="black" stroke="black" points="654.07,-142.65 650.79,-132.58 647.07,-142.5 654.07,-142.65"/>
</g>
<!-- Node0x558ec3f97288 -->
<g id="node6" class="node">
<title>Node0x558ec3f97288</title>
<polygon fill="none" stroke="black" points="208,-169.5 208,-205.5 343,-205.5 343,-169.5 208,-169.5"/>
<text text-anchor="middle" x="275.5" y="-183.8" font-family="Times,serif" font-size="14.00">lib/libLLVMMC.a</text>
</g>
<!-- Node0x558ec3f97d18&#45;&gt;Node0x558ec3f97288 -->
<g id="edge5" class="edge">
<title>Node0x558ec3f97d18&#45;&gt;Node0x558ec3f97288</title>
<path fill="none" stroke="black" d="M848.14,-242.49C690.6,-227.64 469.5,-206.79 353.53,-195.86"/>
<polygon fill="black" stroke="black" points="353.6,-192.35 343.32,-194.89 352.94,-199.32 353.6,-192.35"/>
</g>
<!-- Node0x558ec3f96728 -->
<g id="node7" class="node">
<title>Node0x558ec3f96728</title>
<polygon fill="none" stroke="black" points="1569.5,-169.5 1569.5,-205.5 1749.5,-205.5 1749.5,-169.5 1569.5,-169.5"/>
<text text-anchor="middle" x="1659.5" y="-183.8" font-family="Times,serif" font-size="14.00">lib/libLLVMMCParser.a</text>
</g>
<!-- Node0x558ec3f97d18&#45;&gt;Node0x558ec3f96728 -->
<g id="edge6" class="edge">
<title>Node0x558ec3f97d18&#45;&gt;Node0x558ec3f96728</title>
<path fill="none" stroke="black" d="M1218.77,-242.97C1317.82,-233.76 1440.81,-221.1 1550.5,-206 1553.36,-205.61 1556.27,-205.19 1559.21,-204.76"/>
<polygon fill="black" stroke="black" points="1559.92,-208.19 1569.28,-203.23 1558.87,-201.27 1559.92,-208.19"/>
</g>
<!-- Node0x558ec3f97768 -->
<g id="node8" class="node">
<title>Node0x558ec3f97768</title>
<polygon fill="none" stroke="black" points="1201.5,-169.5 1201.5,-205.5 1359.5,-205.5 1359.5,-169.5 1201.5,-169.5"/>
<text text-anchor="middle" x="1280.5" y="-183.8" font-family="Times,serif" font-size="14.00">lib/libLLVMOption.a</text>
</g>
<!-- Node0x558ec3f97d18&#45;&gt;Node0x558ec3f97768 -->
<g id="edge7" class="edge">
<title>Node0x558ec3f97d18&#45;&gt;Node0x558ec3f97768</title>
<path fill="none" stroke="black" d="M1088.86,-242.49C1125.22,-232.25 1171.69,-219.16 1209.77,-208.43"/>
<polygon fill="black" stroke="black" points="1211.08,-211.69 1219.76,-205.61 1209.18,-204.96 1211.08,-211.69"/>
</g>
<!-- Node0x558ec3f94c58 -->
<g id="node9" class="node">
<title>Node0x558ec3f94c58</title>
<polygon fill="none" stroke="black" points="1199.5,-96.5 1199.5,-132.5 1367.5,-132.5 1367.5,-96.5 1199.5,-96.5"/>
<text text-anchor="middle" x="1283.5" y="-110.8" font-family="Times,serif" font-size="14.00">lib/libLLVMSupport.a</text>
</g>
<!-- Node0x558ec3f97d18&#45;&gt;Node0x558ec3f94c58 -->
<g id="edge8" class="edge">
<title>Node0x558ec3f97d18&#45;&gt;Node0x558ec3f94c58</title>
<path fill="none" stroke="black" d="M1079.24,-242.5C1102.81,-233.44 1130.62,-221.05 1153.5,-206 1173.46,-192.87 1173.41,-183.37 1192.5,-169 1207.68,-157.57 1225.48,-146.63 1241.3,-137.65"/>
<polygon fill="black" stroke="black" points="1243.32,-140.53 1250.35,-132.6 1239.91,-134.42 1243.32,-140.53"/>
</g>
<!-- Node0x558ec3f94640&#45;&gt;Node0x558ec3f97d18 -->
<g id="edge9" class="edge">
<title>Node0x558ec3f94640&#45;&gt;Node0x558ec3f97d18</title>
<path fill="none" stroke="black" d="M851.46,-205.61C887.22,-215.83 931.53,-228.86 966.91,-239.55"/>
<polygon fill="black" stroke="black" points="966.05,-242.94 976.63,-242.49 968.08,-236.24 966.05,-242.94"/>
</g>
<!-- Node0x558ec3f94640&#45;&gt;Node0x558ec3f97630 -->
<g id="edge11" class="edge">
<title>Node0x558ec3f94640&#45;&gt;Node0x558ec3f97630</title>
<path fill="none" stroke="black" d="M755.16,-169.49C736.85,-159.86 713.74,-147.71 694.08,-137.37"/>
<polygon fill="black" stroke="black" points="695.52,-134.17 685.04,-132.61 692.26,-140.37 695.52,-134.17"/>
</g>
<!-- Node0x558ec3f94640&#45;&gt;Node0x558ec3f94c58 -->
<g id="edge14" class="edge">
<title>Node0x558ec3f94640&#45;&gt;Node0x558ec3f94c58</title>
<path fill="none" stroke="black" d="M894.61,-170.1C897.27,-169.73 899.9,-169.36 902.5,-169 1027.03,-151.74 1061.33,-152.87 1189.2,-133.15"/>
<polygon fill="black" stroke="black" points="1190.05,-136.56 1199.39,-131.57 1188.97,-129.65 1190.05,-136.56"/>
</g>
<!-- Node0x558ec3f95068 -->
<g id="node10" class="node">
<title>Node0x558ec3f95068</title>
<polygon fill="none" stroke="black" points="378,-96.5 378,-132.5 551,-132.5 551,-96.5 378,-96.5"/>
<text text-anchor="middle" x="464.5" y="-110.8" font-family="Times,serif" font-size="14.00">lib/libLLVMX86Desc.a</text>
</g>
<!-- Node0x558ec3f94640&#45;&gt;Node0x558ec3f95068 -->
<g id="edge10" class="edge">
<title>Node0x558ec3f94640&#45;&gt;Node0x558ec3f95068</title>
<path fill="none" stroke="black" d="M710.13,-169.49C662.55,-159.03 601.46,-145.61 552.1,-134.76"/>
<polygon fill="black" stroke="black" points="552.59,-131.28 542.07,-132.55 551.09,-138.12 552.59,-131.28"/>
</g>
<!-- Node0x558ec3f95680 -->
<g id="node11" class="node">
<title>Node0x558ec3f95680</title>
<polygon fill="none" stroke="black" points="1413,-96.5 1413,-132.5 1548,-132.5 1548,-96.5 1413,-96.5"/>
<text text-anchor="middle" x="1480.5" y="-110.8" font-family="Times,serif" font-size="14.00">lib/libLLVMMC.a</text>
</g>
<!-- Node0x558ec3f94640&#45;&gt;Node0x558ec3f95680 -->
<g id="edge12" class="edge">
<title>Node0x558ec3f94640&#45;&gt;Node0x558ec3f95680</title>
<path fill="none" stroke="black" d="M894.59,-169.93C897.25,-169.61 899.89,-169.3 902.5,-169 1112.42,-145.09 1166.78,-158.56 1376.5,-133 1385.08,-131.95 1394.04,-130.7 1402.94,-129.35"/>
<polygon fill="black" stroke="black" points="1403.6,-132.79 1412.94,-127.78 1402.52,-125.87 1403.6,-132.79"/>
</g>
<!-- Node0x558ec3f94f98 -->
<g id="node12" class="node">
<title>Node0x558ec3f94f98</title>
<polygon fill="none" stroke="black" points="753.5,-96.5 753.5,-132.5 933.5,-132.5 933.5,-96.5 753.5,-96.5"/>
<text text-anchor="middle" x="843.5" y="-110.8" font-family="Times,serif" font-size="14.00">lib/libLLVMMCParser.a</text>
</g>
<!-- Node0x558ec3f94640&#45;&gt;Node0x558ec3f94f98 -->
<g id="edge13" class="edge">
<title>Node0x558ec3f94640&#45;&gt;Node0x558ec3f94f98</title>
<path fill="none" stroke="black" d="M801.06,-169.31C807.87,-160.68 816.25,-150.06 823.75,-140.53"/>
<polygon fill="black" stroke="black" points="826.62,-142.55 830.07,-132.53 821.13,-138.21 826.62,-142.55"/>
</g>
<!-- Node0x558ec3f93a10&#45;&gt;Node0x558ec3f97630 -->
<g id="edge15" class="edge">
<title>Node0x558ec3f93a10&#45;&gt;Node0x558ec3f97630</title>
<path fill="none" stroke="black" d="M938,-169.49C884.72,-159.47 815.73,-146.48 745.64,-133.21"/>
<polygon fill="black" stroke="black" points="746.22,-129.76 735.74,-131.34 744.92,-136.64 746.22,-129.76"/>
</g>
<!-- Node0x558ec3f93a10&#45;&gt;Node0x558ec3f94c58 -->
<g id="edge16" class="edge">
<title>Node0x558ec3f93a10&#45;&gt;Node0x558ec3f94c58</title>
<path fill="none" stroke="black" d="M1089.58,-169.49C1126.37,-159.25 1173.39,-146.16 1211.92,-135.43"/>
<polygon fill="black" stroke="black" points="1213.34,-138.67 1222.04,-132.61 1211.46,-131.92 1213.34,-138.67"/>
</g>
<!-- Node0x558ec3f97d80 -->
<g id="node13" class="node">
<title>Node0x558ec3f97d80</title>
<polygon fill="none" stroke="black" points="951.5,-96.5 951.5,-132.5 1181.5,-132.5 1181.5,-96.5 951.5,-96.5"/>
<text text-anchor="middle" x="1066.5" y="-110.8" font-family="Times,serif" font-size="14.00">lib/libLLVMMCDisassembler.a</text>
</g>
<!-- Node0x558ec3f93a10&#45;&gt;Node0x558ec3f97d80 -->
<g id="edge17" class="edge">
<title>Node0x558ec3f93a10&#45;&gt;Node0x558ec3f97d80</title>
<path fill="none" stroke="black" d="M1037.7,-169.31C1042.18,-160.94 1047.66,-150.7 1052.64,-141.4"/>
<polygon fill="black" stroke="black" points="1055.75,-143 1057.39,-132.53 1049.58,-139.69 1055.75,-143"/>
</g>
<!-- Node0x558ec3f956e8 -->
<g id="node14" class="node">
<title>Node0x558ec3f956e8</title>
<polygon fill="none" stroke="black" points="568.5,-23.5 568.5,-59.5 736.5,-59.5 736.5,-23.5 568.5,-23.5"/>
<text text-anchor="middle" x="652.5" y="-37.8" font-family="Times,serif" font-size="14.00">lib/libLLVMSupport.a</text>
</g>
<!-- Node0x558ec3f97630&#45;&gt;Node0x558ec3f956e8 -->
<g id="edge18" class="edge">
<title>Node0x558ec3f97630&#45;&gt;Node0x558ec3f956e8</title>
<path fill="none" stroke="black" d="M652.5,-96.31C652.5,-88.29 652.5,-78.55 652.5,-69.57"/>
<polygon fill="black" stroke="black" points="656,-69.53 652.5,-59.53 649,-69.53 656,-69.53"/>
</g>
<!-- Node0x558ec3f98400 -->
<g id="node15" class="node">
<title>Node0x558ec3f98400</title>
<polygon fill="none" stroke="black" points="0,-96.5 0,-132.5 173,-132.5 173,-96.5 0,-96.5"/>
<text text-anchor="middle" x="86.5" y="-110.8" font-family="Times,serif" font-size="14.00">lib/libLLVMX86Desc.a</text>
</g>
<!-- Node0x558ec3f97288&#45;&gt;Node0x558ec3f98400 -->
<g id="edge19" class="edge">
<title>Node0x558ec3f97288&#45;&gt;Node0x558ec3f98400</title>
<path fill="none" stroke="black" d="M230.23,-169.49C203.66,-159.51 169.88,-146.82 141.75,-136.26"/>
<polygon fill="black" stroke="black" points="142.65,-132.85 132.06,-132.61 140.19,-139.41 142.65,-132.85"/>
</g>
<!-- Node0x558ec3f92488 -->
<g id="node16" class="node">
<title>Node0x558ec3f92488</title>
<polygon fill="none" stroke="black" points="191.5,-96.5 191.5,-132.5 359.5,-132.5 359.5,-96.5 191.5,-96.5"/>
<text text-anchor="middle" x="275.5" y="-110.8" font-family="Times,serif" font-size="14.00">lib/libLLVMSupport.a</text>
</g>
<!-- Node0x558ec3f97288&#45;&gt;Node0x558ec3f92488 -->
<g id="edge20" class="edge">
<title>Node0x558ec3f97288&#45;&gt;Node0x558ec3f92488</title>
<path fill="none" stroke="black" d="M275.5,-169.31C275.5,-161.29 275.5,-151.55 275.5,-142.57"/>
<polygon fill="black" stroke="black" points="279,-142.53 275.5,-132.53 272,-142.53 279,-142.53"/>
</g>
<!-- Node0x558ec3f96728&#45;&gt;Node0x558ec3f97d18 -->
<g id="edge21" class="edge">
<title>Node0x558ec3f96728&#45;&gt;Node0x558ec3f97d18</title>
<path fill="none" stroke="black" d="M1571.92,-205.52C1570.78,-205.68 1569.63,-205.84 1568.5,-206 1456.57,-221.41 1330.8,-234.28 1228.79,-243.53"/>
<polygon fill="black" stroke="black" points="1228.32,-240.06 1218.68,-244.44 1228.95,-247.03 1228.32,-240.06"/>
</g>
<!-- Node0x558ec3f96728&#45;&gt;Node0x558ec3f94c58 -->
<g id="edge23" class="edge">
<title>Node0x558ec3f96728&#45;&gt;Node0x558ec3f94c58</title>
<path fill="none" stroke="black" d="M1569.44,-169.49C1511.52,-158.56 1436.4,-144.37 1377.69,-133.29"/>
<polygon fill="black" stroke="black" points="1378.15,-129.81 1367.67,-131.39 1376.85,-136.69 1378.15,-129.81"/>
</g>
<!-- Node0x558ec3f949e8 -->
<g id="node17" class="node">
<title>Node0x558ec3f949e8</title>
<polygon fill="none" stroke="black" points="1592,-96.5 1592,-132.5 1727,-132.5 1727,-96.5 1592,-96.5"/>
<text text-anchor="middle" x="1659.5" y="-110.8" font-family="Times,serif" font-size="14.00">lib/libLLVMMC.a</text>
</g>
<!-- Node0x558ec3f96728&#45;&gt;Node0x558ec3f949e8 -->
<g id="edge22" class="edge">
<title>Node0x558ec3f96728&#45;&gt;Node0x558ec3f949e8</title>
<path fill="none" stroke="black" d="M1659.5,-169.31C1659.5,-161.29 1659.5,-151.55 1659.5,-142.57"/>
<polygon fill="black" stroke="black" points="1663,-142.53 1659.5,-132.53 1656,-142.53 1663,-142.53"/>
</g>
<!-- Node0x558ec3f97768&#45;&gt;Node0x558ec3f94c58 -->
<g id="edge24" class="edge">
<title>Node0x558ec3f97768&#45;&gt;Node0x558ec3f94c58</title>
<path fill="none" stroke="black" d="M1281.23,-169.31C1281.57,-161.29 1281.98,-151.55 1282.36,-142.57"/>
<polygon fill="black" stroke="black" points="1285.86,-142.67 1282.78,-132.53 1278.86,-142.37 1285.86,-142.67"/>
</g>
<!-- Node0x558ec3f95068&#45;&gt;Node0x558ec3f97d18 -->
<g id="edge27" class="edge">
<title>Node0x558ec3f95068&#45;&gt;Node0x558ec3f97d18</title>
<path fill="none" stroke="black" d="M492.19,-132.51C527.4,-153.31 590.7,-187.97 649.5,-206 706.4,-223.45 769.88,-235.24 828.37,-243.19"/>
<polygon fill="black" stroke="black" points="828.1,-246.69 838.47,-244.54 829.02,-239.75 828.1,-246.69"/>
</g>
<!-- Node0x558ec3f97b10 -->
<g id="node20" class="node">
<title>Node0x558ec3f97b10</title>
<polygon fill="none" stroke="black" points="406,-23.5 406,-59.5 541,-59.5 541,-23.5 406,-23.5"/>
<text text-anchor="middle" x="473.5" y="-37.8" font-family="Times,serif" font-size="14.00">lib/libLLVMMC.a</text>
</g>
<!-- Node0x558ec3f95068&#45;&gt;Node0x558ec3f97b10 -->
<g id="edge28" class="edge">
<title>Node0x558ec3f95068&#45;&gt;Node0x558ec3f97b10</title>
<path fill="none" stroke="black" d="M466.68,-96.31C467.7,-88.29 468.93,-78.55 470.07,-69.57"/>
<polygon fill="black" stroke="black" points="473.56,-69.89 471.34,-59.53 466.61,-69.01 473.56,-69.89"/>
</g>
<!-- Node0x558ec3f95bc8 -->
<g id="node21" class="node">
<title>Node0x558ec3f95bc8</title>
<polygon fill="none" stroke="black" points="219.5,-23.5 219.5,-59.5 387.5,-59.5 387.5,-23.5 219.5,-23.5"/>
<text text-anchor="middle" x="303.5" y="-37.8" font-family="Times,serif" font-size="14.00">lib/libLLVMSupport.a</text>
</g>
<!-- Node0x558ec3f95068&#45;&gt;Node0x558ec3f95bc8 -->
<g id="edge29" class="edge">
<title>Node0x558ec3f95068&#45;&gt;Node0x558ec3f95bc8</title>
<path fill="none" stroke="black" d="M425.94,-96.49C403.6,-86.64 375.28,-74.16 351.51,-63.67"/>
<polygon fill="black" stroke="black" points="352.87,-60.45 342.31,-59.61 350.04,-66.85 352.87,-60.45"/>
</g>
<!-- Node0x558ec3f95888 -->
<g id="node18" class="node">
<title>Node0x558ec3f95888</title>
<polygon fill="none" stroke="black" points="1767.5,-169.5 1767.5,-205.5 2189.5,-205.5 2189.5,-169.5 1767.5,-169.5"/>
<text text-anchor="middle" x="1978.5" y="-183.8" font-family="Times,serif" font-size="14.00">tools/llvm&#45;ml/CMakeFiles/llvm&#45;ml.dir/Disassembler.cpp.o</text>
</g>
<!-- Node0x558ec3f95888&#45;&gt;Node0x558ec3f95680 -->
<g id="edge25" class="edge">
<title>Node0x558ec3f95888&#45;&gt;Node0x558ec3f95680</title>
<path fill="none" stroke="black" d="M1843.61,-169.49C1766.96,-159.52 1669.25,-146.3 1582.5,-133 1574.61,-131.79 1566.38,-130.47 1558.18,-129.12"/>
<polygon fill="black" stroke="black" points="1558.64,-125.65 1548.2,-127.46 1557.5,-132.56 1558.64,-125.65"/>
</g>
<!-- Node0x558ec3f95000 -->
<g id="node19" class="node">
<title>Node0x558ec3f95000</title>
<polygon fill="none" stroke="black" points="1894.5,-96.5 1894.5,-132.5 2062.5,-132.5 2062.5,-96.5 1894.5,-96.5"/>
<text text-anchor="middle" x="1978.5" y="-110.8" font-family="Times,serif" font-size="14.00">lib/libLLVMSupport.a</text>
</g>
<!-- Node0x558ec3f95888&#45;&gt;Node0x558ec3f95000 -->
<g id="edge26" class="edge">
<title>Node0x558ec3f95888&#45;&gt;Node0x558ec3f95000</title>
<path fill="none" stroke="black" d="M1978.5,-169.31C1978.5,-161.29 1978.5,-151.55 1978.5,-142.57"/>
<polygon fill="black" stroke="black" points="1982,-142.53 1978.5,-132.53 1975,-142.53 1982,-142.53"/>
</g>
<!-- Node0x558ec3f94cc0 -->
<g id="node22" class="node">
<title>Node0x558ec3f94cc0</title>
<polygon fill="none" stroke="black" points="1864.5,-242.5 1864.5,-278.5 2032.5,-278.5 2032.5,-242.5 1864.5,-242.5"/>
<text text-anchor="middle" x="1948.5" y="-256.8" font-family="Times,serif" font-size="14.00">lib/libLLVMSupport.a</text>
</g>
<!-- Node0x558ec3f94cc0&#45;&gt;Node0x558ec3f96728 -->
<g id="edge31" class="edge">
<title>Node0x558ec3f94cc0&#45;&gt;Node0x558ec3f96728</title>
<path fill="none" stroke="black" d="M1879.28,-242.49C1836.97,-232.1 1782.72,-218.77 1738.71,-207.96"/>
<polygon fill="black" stroke="black" points="1739.45,-204.54 1728.91,-205.55 1737.78,-211.34 1739.45,-204.54"/>
</g>
<!-- Node0x558ec3f97eb8 -->
<g id="node23" class="node">
<title>Node0x558ec3f97eb8</title>
<polygon fill="none" stroke="black" points="2208,-169.5 2208,-205.5 2343,-205.5 2343,-169.5 2208,-169.5"/>
<text text-anchor="middle" x="2275.5" y="-183.8" font-family="Times,serif" font-size="14.00">lib/libLLVMMC.a</text>
</g>
<!-- Node0x558ec3f94cc0&#45;&gt;Node0x558ec3f97eb8 -->
<g id="edge30" class="edge">
<title>Node0x558ec3f94cc0&#45;&gt;Node0x558ec3f97eb8</title>
<path fill="none" stroke="black" d="M2029.34,-242.47C2075.83,-232.61 2135.61,-219.83 2197.89,-206.12"/>
<polygon fill="black" stroke="black" points="2198.89,-209.48 2207.9,-203.91 2197.39,-202.65 2198.89,-209.48"/>
</g>
<!-- Node0x558ec3f92bd8 -->
<g id="node24" class="node">
<title>Node0x558ec3f92bd8</title>
<polygon fill="none" stroke="black" points="2341,-242.5 2341,-278.5 2550,-278.5 2550,-242.5 2341,-242.5"/>
<text text-anchor="middle" x="2445.5" y="-256.8" font-family="Times,serif" font-size="14.00">lib/libLLVMBinaryFormat.a</text>
</g>
<!-- Node0x558ec3f97c48 -->
<g id="node25" class="node">
<title>Node0x558ec3f97c48</title>
<polygon fill="none" stroke="black" points="2361.5,-169.5 2361.5,-205.5 2529.5,-205.5 2529.5,-169.5 2361.5,-169.5"/>
<text text-anchor="middle" x="2445.5" y="-183.8" font-family="Times,serif" font-size="14.00">lib/libLLVMSupport.a</text>
</g>
<!-- Node0x558ec3f92bd8&#45;&gt;Node0x558ec3f97c48 -->
<g id="edge32" class="edge">
<title>Node0x558ec3f92bd8&#45;&gt;Node0x558ec3f97c48</title>
<path fill="none" stroke="black" d="M2445.5,-242.31C2445.5,-234.29 2445.5,-224.55 2445.5,-215.57"/>
<polygon fill="black" stroke="black" points="2449,-215.53 2445.5,-205.53 2442,-215.53 2449,-215.53"/>
</g>
</g>
</svg>
