<?xml version="1.0" encoding="UTF-8" standalone="no"?>
<!DOCTYPE svg PUBLIC "-//W3C//DTD SVG 1.1//EN"
 "http://www.w3.org/Graphics/SVG/1.1/DTD/svg11.dtd">
<!-- Generated by graphviz version 2.43.0 (0)
 -->
<!-- Title: bin/llvm&#45;yaml&#45;numeric&#45;parser&#45;fuzzer Pages: 1 -->
<svg width="5893pt" height="287pt"
 viewBox="0.00 0.00 5892.50 287.00" xmlns="http://www.w3.org/2000/svg" xmlns:xlink="http://www.w3.org/1999/xlink">
<g id="graph0" class="graph" transform="scale(1 1) rotate(0) translate(4 283)">
<title>bin/llvm&#45;yaml&#45;numeric&#45;parser&#45;fuzzer</title>
<polygon fill="white" stroke="transparent" points="-4,4 -4,-283 5888.5,-283 5888.5,4 -4,4"/>
<text text-anchor="middle" x="2942.25" y="-7.8" font-family="Times,serif" font-size="14.00">bin/llvm&#45;yaml&#45;numeric&#45;parser&#45;fuzzer</text>
<!-- Node0x560fd0f4f1b8 -->
<g id="node1" class="node">
<title>Node0x560fd0f4f1b8</title>
<polygon fill="none" stroke="black" points="65,-169.5 65,-205.5 1001,-205.5 1001,-169.5 65,-169.5"/>
<text text-anchor="middle" x="533" y="-183.8" font-family="Times,serif" font-size="14.00">tools/llvm&#45;yaml&#45;numeric&#45;parser&#45;fuzzer/CMakeFiles/llvm&#45;yaml&#45;numeric&#45;parser&#45;fuzzer.dir/DummyYAMLNumericParserFuzzer.cpp.o</text>
</g>
<!-- Node0x560fd0f4e860 -->
<g id="node2" class="node">
<title>Node0x560fd0f4e860</title>
<polygon fill="none" stroke="black" points="0,-96.5 0,-132.5 880,-132.5 880,-96.5 0,-96.5"/>
<text text-anchor="middle" x="440" y="-110.8" font-family="Times,serif" font-size="14.00">tools/llvm&#45;yaml&#45;numeric&#45;parser&#45;fuzzer/CMakeFiles/llvm&#45;yaml&#45;numeric&#45;parser&#45;fuzzer.dir/yaml&#45;numeric&#45;parser&#45;fuzzer.cpp.o</text>
</g>
<!-- Node0x560fd0f4f1b8&#45;&gt;Node0x560fd0f4e860 -->
<g id="edge1" class="edge">
<title>Node0x560fd0f4f1b8&#45;&gt;Node0x560fd0f4e860</title>
<path fill="none" stroke="black" d="M510.49,-169.31C498.49,-160.16 483.57,-148.76 470.54,-138.82"/>
<polygon fill="black" stroke="black" points="472.38,-135.82 462.31,-132.53 468.13,-141.38 472.38,-135.82"/>
</g>
<!-- Node0x560fd0f4b050 -->
<g id="node3" class="node">
<title>Node0x560fd0f4b050</title>
<polygon fill="none" stroke="black" points="898,-96.5 898,-132.5 1094,-132.5 1094,-96.5 898,-96.5"/>
<text text-anchor="middle" x="996" y="-110.8" font-family="Times,serif" font-size="14.00">lib/libLLVMFuzzMutate.a</text>
</g>
<!-- Node0x560fd0f4f1b8&#45;&gt;Node0x560fd0f4b050 -->
<g id="edge2" class="edge">
<title>Node0x560fd0f4f1b8&#45;&gt;Node0x560fd0f4b050</title>
<path fill="none" stroke="black" d="M648.9,-169.47C715.95,-159.53 802.21,-146.57 887.86,-133.17"/>
<polygon fill="black" stroke="black" points="888.42,-136.62 897.76,-131.62 887.34,-129.71 888.42,-136.62"/>
</g>
<!-- Node0x560fd0f4a6f8 -->
<g id="node4" class="node">
<title>Node0x560fd0f4a6f8</title>
<polygon fill="none" stroke="black" points="356,-23.5 356,-59.5 524,-59.5 524,-23.5 356,-23.5"/>
<text text-anchor="middle" x="440" y="-37.8" font-family="Times,serif" font-size="14.00">lib/libLLVMSupport.a</text>
</g>
<!-- Node0x560fd0f4e860&#45;&gt;Node0x560fd0f4a6f8 -->
<g id="edge3" class="edge">
<title>Node0x560fd0f4e860&#45;&gt;Node0x560fd0f4a6f8</title>
<path fill="none" stroke="black" d="M440,-96.31C440,-88.29 440,-78.55 440,-69.57"/>
<polygon fill="black" stroke="black" points="443.5,-69.53 440,-59.53 436.5,-69.53 443.5,-69.53"/>
</g>
<!-- Node0x560fd0f4b808 -->
<g id="node5" class="node">
<title>Node0x560fd0f4b808</title>
<polygon fill="none" stroke="black" points="2543,-23.5 2543,-59.5 2711,-59.5 2711,-23.5 2543,-23.5"/>
<text text-anchor="middle" x="2627" y="-37.8" font-family="Times,serif" font-size="14.00">lib/libLLVMSupport.a</text>
</g>
<!-- Node0x560fd0f4b050&#45;&gt;Node0x560fd0f4b808 -->
<g id="edge4" class="edge">
<title>Node0x560fd0f4b050&#45;&gt;Node0x560fd0f4b808</title>
<path fill="none" stroke="black" d="M1094.25,-97.47C1098.89,-96.92 1103.49,-96.43 1108,-96 1645.36,-44.74 2293.84,-41.24 2532.75,-41.9"/>
<polygon fill="black" stroke="black" points="2532.78,-45.4 2542.79,-41.93 2532.8,-38.4 2532.78,-45.4"/>
</g>
<!-- Node0x560fd0f46ad8 -->
<g id="node6" class="node">
<title>Node0x560fd0f46ad8</title>
<polygon fill="none" stroke="black" points="2345,-169.5 2345,-205.5 2521,-205.5 2521,-169.5 2345,-169.5"/>
<text text-anchor="middle" x="2433" y="-183.8" font-family="Times,serif" font-size="14.00">lib/libLLVMBitWriter.a</text>
</g>
<!-- Node0x560fd0f46ad8&#45;&gt;Node0x560fd0f4b808 -->
<g id="edge5" class="edge">
<title>Node0x560fd0f46ad8&#45;&gt;Node0x560fd0f4b808</title>
<path fill="none" stroke="black" d="M2344.83,-182.41C2218.67,-175.64 1999.12,-160.1 1975,-133 1964.07,-120.72 1963.86,-108.09 1975,-96 2012,-55.84 2361.29,-45.83 2532.84,-43.33"/>
<polygon fill="black" stroke="black" points="2532.93,-46.83 2542.88,-43.19 2532.83,-39.83 2532.93,-46.83"/>
</g>
<!-- Node0x560fd0f49580 -->
<g id="node7" class="node">
<title>Node0x560fd0f49580</title>
<polygon fill="none" stroke="black" points="2348,-96.5 2348,-132.5 2518,-132.5 2518,-96.5 2348,-96.5"/>
<text text-anchor="middle" x="2433" y="-110.8" font-family="Times,serif" font-size="14.00">lib/libLLVMAnalysis.a</text>
</g>
<!-- Node0x560fd0f46ad8&#45;&gt;Node0x560fd0f49580 -->
<g id="edge6" class="edge">
<title>Node0x560fd0f46ad8&#45;&gt;Node0x560fd0f49580</title>
<path fill="none" stroke="black" d="M2433,-169.31C2433,-161.29 2433,-151.55 2433,-142.57"/>
<polygon fill="black" stroke="black" points="2436.5,-142.53 2433,-132.53 2429.5,-142.53 2436.5,-142.53"/>
</g>
<!-- Node0x560fd0f49580&#45;&gt;Node0x560fd0f4b808 -->
<g id="edge7" class="edge">
<title>Node0x560fd0f49580&#45;&gt;Node0x560fd0f4b808</title>
<path fill="none" stroke="black" d="M2479.47,-96.49C2506.86,-86.47 2541.71,-73.71 2570.67,-63.12"/>
<polygon fill="black" stroke="black" points="2572.05,-66.34 2580.24,-59.61 2569.65,-59.76 2572.05,-66.34"/>
</g>
<!-- Node0x560fd0f44e00 -->
<g id="node8" class="node">
<title>Node0x560fd0f44e00</title>
<polygon fill="none" stroke="black" points="1188,-96.5 1188,-132.5 1364,-132.5 1364,-96.5 1188,-96.5"/>
<text text-anchor="middle" x="1276" y="-110.8" font-family="Times,serif" font-size="14.00">lib/libLLVMBitWriter.a</text>
</g>
<!-- Node0x560fd0f44e00&#45;&gt;Node0x560fd0f4b808 -->
<g id="edge8" class="edge">
<title>Node0x560fd0f44e00&#45;&gt;Node0x560fd0f4b808</title>
<path fill="none" stroke="black" d="M1364.21,-97.06C1367.17,-96.68 1370.11,-96.32 1373,-96 1804.23,-48.13 2323.26,-42.36 2532.64,-42.16"/>
<polygon fill="black" stroke="black" points="2532.68,-45.66 2542.68,-42.15 2532.67,-38.66 2532.68,-45.66"/>
</g>
<!-- Node0x560fd0f47f90 -->
<g id="node9" class="node">
<title>Node0x560fd0f47f90</title>
<polygon fill="none" stroke="black" points="1382,-96.5 1382,-132.5 1552,-132.5 1552,-96.5 1382,-96.5"/>
<text text-anchor="middle" x="1467" y="-110.8" font-family="Times,serif" font-size="14.00">lib/libLLVMAnalysis.a</text>
</g>
<!-- Node0x560fd0f47f90&#45;&gt;Node0x560fd0f4b808 -->
<g id="edge9" class="edge">
<title>Node0x560fd0f47f90&#45;&gt;Node0x560fd0f4b808</title>
<path fill="none" stroke="black" d="M1552.23,-97.12C1555.19,-96.71 1558.11,-96.34 1561,-96 1918.13,-53.99 2346.36,-44.93 2532.69,-43"/>
<polygon fill="black" stroke="black" points="2532.76,-46.5 2542.73,-42.9 2532.69,-39.5 2532.76,-46.5"/>
</g>
<!-- Node0x560fd0f4d4e0 -->
<g id="node10" class="node">
<title>Node0x560fd0f4d4e0</title>
<polygon fill="none" stroke="black" points="1570,-96.5 1570,-132.5 1740,-132.5 1740,-96.5 1570,-96.5"/>
<text text-anchor="middle" x="1655" y="-110.8" font-family="Times,serif" font-size="14.00">lib/libLLVMAnalysis.a</text>
</g>
<!-- Node0x560fd0f4d4e0&#45;&gt;Node0x560fd0f4b808 -->
<g id="edge10" class="edge">
<title>Node0x560fd0f4d4e0&#45;&gt;Node0x560fd0f4b808</title>
<path fill="none" stroke="black" d="M1740.23,-97.16C1743.19,-96.74 1746.12,-96.35 1749,-96 2032.83,-61.07 2371.23,-48.61 2532.49,-44.44"/>
<polygon fill="black" stroke="black" points="2532.94,-47.93 2542.85,-44.18 2532.76,-40.94 2532.94,-47.93"/>
</g>
<!-- Node0x560fd0f4b328 -->
<g id="node11" class="node">
<title>Node0x560fd0f4b328</title>
<polygon fill="none" stroke="black" points="1758,-96.5 1758,-132.5 1928,-132.5 1928,-96.5 1758,-96.5"/>
<text text-anchor="middle" x="1843" y="-110.8" font-family="Times,serif" font-size="14.00">lib/libLLVMAnalysis.a</text>
</g>
<!-- Node0x560fd0f4b328&#45;&gt;Node0x560fd0f4b808 -->
<g id="edge11" class="edge">
<title>Node0x560fd0f4b328&#45;&gt;Node0x560fd0f4b808</title>
<path fill="none" stroke="black" d="M1928.24,-97.89C1932.89,-97.21 1937.5,-96.57 1942,-96 2152.19,-69.28 2400.47,-53.88 2532.8,-46.96"/>
<polygon fill="black" stroke="black" points="2533.09,-50.45 2542.9,-46.44 2532.73,-43.46 2533.09,-50.45"/>
</g>
<!-- Node0x560fd0f47a48 -->
<g id="node12" class="node">
<title>Node0x560fd0f47a48</title>
<polygon fill="none" stroke="black" points="1599,-242.5 1599,-278.5 1769,-278.5 1769,-242.5 1599,-242.5"/>
<text text-anchor="middle" x="1684" y="-256.8" font-family="Times,serif" font-size="14.00">lib/libLLVMAnalysis.a</text>
</g>
<!-- Node0x560fd0f47a48&#45;&gt;Node0x560fd0f4b808 -->
<g id="edge12" class="edge">
<title>Node0x560fd0f47a48&#45;&gt;Node0x560fd0f4b808</title>
<path fill="none" stroke="black" d="M1598.85,-258.84C1421.02,-254.83 1037.06,-230.79 1167,-96 1214.44,-46.79 2217.49,-42.52 2532.92,-42.4"/>
<polygon fill="black" stroke="black" points="2532.95,-45.9 2542.95,-42.4 2532.95,-38.9 2532.95,-45.9"/>
</g>
<!-- Node0x560fd0f47a48&#45;&gt;Node0x560fd0f46ad8 -->
<g id="edge13" class="edge">
<title>Node0x560fd0f47a48&#45;&gt;Node0x560fd0f46ad8</title>
<path fill="none" stroke="black" d="M1769.19,-251.42C1909.18,-238.15 2187.08,-211.81 2335.01,-197.79"/>
<polygon fill="black" stroke="black" points="2335.37,-201.27 2345,-196.84 2334.71,-194.3 2335.37,-201.27"/>
</g>
<!-- Node0x560fd0f4e1e0 -->
<g id="node13" class="node">
<title>Node0x560fd0f4e1e0</title>
<polygon fill="none" stroke="black" points="4495,-242.5 4495,-278.5 4665,-278.5 4665,-242.5 4495,-242.5"/>
<text text-anchor="middle" x="4580" y="-256.8" font-family="Times,serif" font-size="14.00">lib/libLLVMAnalysis.a</text>
</g>
<!-- Node0x560fd0f4e1e0&#45;&gt;Node0x560fd0f46ad8 -->
<g id="edge15" class="edge">
<title>Node0x560fd0f4e1e0&#45;&gt;Node0x560fd0f46ad8</title>
<path fill="none" stroke="black" d="M4494.88,-258.86C4223.92,-256.47 3357.18,-245.98 2641,-206 2605.19,-204 2565.97,-200.93 2531.34,-197.92"/>
<polygon fill="black" stroke="black" points="2531.5,-194.42 2521.23,-197.03 2530.88,-201.39 2531.5,-194.42"/>
</g>
<!-- Node0x560fd0f47ff8 -->
<g id="node14" class="node">
<title>Node0x560fd0f47ff8</title>
<polygon fill="none" stroke="black" points="4808,-169.5 4808,-205.5 4976,-205.5 4976,-169.5 4808,-169.5"/>
<text text-anchor="middle" x="4892" y="-183.8" font-family="Times,serif" font-size="14.00">lib/libLLVMSupport.a</text>
</g>
<!-- Node0x560fd0f4e1e0&#45;&gt;Node0x560fd0f47ff8 -->
<g id="edge14" class="edge">
<title>Node0x560fd0f4e1e0&#45;&gt;Node0x560fd0f47ff8</title>
<path fill="none" stroke="black" d="M4654.73,-242.49C4700.6,-232.06 4759.46,-218.66 4807.08,-207.82"/>
<polygon fill="black" stroke="black" points="4808.09,-211.18 4817.07,-205.55 4806.54,-204.36 4808.09,-211.18"/>
</g>
<!-- Node0x560fd0f46048 -->
<g id="node15" class="node">
<title>Node0x560fd0f46048</title>
<polygon fill="none" stroke="black" points="1984,-96.5 1984,-132.5 2154,-132.5 2154,-96.5 1984,-96.5"/>
<text text-anchor="middle" x="2069" y="-110.8" font-family="Times,serif" font-size="14.00">lib/libLLVMAnalysis.a</text>
</g>
<!-- Node0x560fd0f46048&#45;&gt;Node0x560fd0f4b808 -->
<g id="edge16" class="edge">
<title>Node0x560fd0f46048&#45;&gt;Node0x560fd0f4b808</title>
<path fill="none" stroke="black" d="M2154.01,-97.4C2157.04,-96.91 2160.05,-96.44 2163,-96 2290.65,-76.78 2438.98,-60.78 2532.9,-51.42"/>
<polygon fill="black" stroke="black" points="2533.34,-54.89 2542.95,-50.42 2532.65,-47.93 2533.34,-54.89"/>
</g>
<!-- Node0x560fd0f493e0 -->
<g id="node16" class="node">
<title>Node0x560fd0f493e0</title>
<polygon fill="none" stroke="black" points="2349,-242.5 2349,-278.5 2517,-278.5 2517,-242.5 2349,-242.5"/>
<text text-anchor="middle" x="2433" y="-256.8" font-family="Times,serif" font-size="14.00">lib/libLLVMSupport.a</text>
</g>
<!-- Node0x560fd0f493e0&#45;&gt;Node0x560fd0f46ad8 -->
<g id="edge17" class="edge">
<title>Node0x560fd0f493e0&#45;&gt;Node0x560fd0f46ad8</title>
<path fill="none" stroke="black" d="M2433,-242.31C2433,-234.29 2433,-224.55 2433,-215.57"/>
<polygon fill="black" stroke="black" points="2436.5,-215.53 2433,-205.53 2429.5,-215.53 2436.5,-215.53"/>
</g>
<!-- Node0x560fd0f48f68 -->
<g id="node17" class="node">
<title>Node0x560fd0f48f68</title>
<polygon fill="none" stroke="black" points="5154,-242.5 5154,-278.5 5324,-278.5 5324,-242.5 5154,-242.5"/>
<text text-anchor="middle" x="5239" y="-256.8" font-family="Times,serif" font-size="14.00">lib/libLLVMAnalysis.a</text>
</g>
<!-- Node0x560fd0f49170 -->
<g id="node18" class="node">
<title>Node0x560fd0f49170</title>
<polygon fill="none" stroke="black" points="5318,-169.5 5318,-205.5 5486,-205.5 5486,-169.5 5318,-169.5"/>
<text text-anchor="middle" x="5402" y="-183.8" font-family="Times,serif" font-size="14.00">lib/libLLVMSupport.a</text>
</g>
<!-- Node0x560fd0f48f68&#45;&gt;Node0x560fd0f49170 -->
<g id="edge18" class="edge">
<title>Node0x560fd0f48f68&#45;&gt;Node0x560fd0f49170</title>
<path fill="none" stroke="black" d="M5278.04,-242.49C5300.66,-232.64 5329.33,-220.16 5353.39,-209.67"/>
<polygon fill="black" stroke="black" points="5354.94,-212.82 5362.71,-205.61 5352.15,-206.4 5354.94,-212.82"/>
</g>
<!-- Node0x560fd0f4bb48 -->
<g id="node19" class="node">
<title>Node0x560fd0f4bb48</title>
<polygon fill="none" stroke="black" points="2172.5,-96.5 2172.5,-132.5 2329.5,-132.5 2329.5,-96.5 2172.5,-96.5"/>
<text text-anchor="middle" x="2251" y="-110.8" font-family="Times,serif" font-size="14.00">lib/libLLVMObject.a</text>
</g>
<!-- Node0x560fd0f4bb48&#45;&gt;Node0x560fd0f4b808 -->
<g id="edge19" class="edge">
<title>Node0x560fd0f4bb48&#45;&gt;Node0x560fd0f4b808</title>
<path fill="none" stroke="black" d="M2329.67,-97.8C2332.82,-97.19 2335.94,-96.59 2339,-96 2403.66,-83.57 2476.59,-70.02 2532.87,-59.68"/>
<polygon fill="black" stroke="black" points="2533.63,-63.1 2542.83,-57.85 2532.36,-56.21 2533.63,-63.1"/>
</g>
<!-- Node0x560fd0f47638 -->
<g id="node20" class="node">
<title>Node0x560fd0f47638</title>
<polygon fill="none" stroke="black" points="1648.5,-169.5 1648.5,-205.5 1829.5,-205.5 1829.5,-169.5 1648.5,-169.5"/>
<text text-anchor="middle" x="1739" y="-183.8" font-family="Times,serif" font-size="14.00">lib/libLLVMBitReader.a</text>
</g>
<!-- Node0x560fd0f47638&#45;&gt;Node0x560fd0f4b808 -->
<g id="edge20" class="edge">
<title>Node0x560fd0f47638&#45;&gt;Node0x560fd0f4b808</title>
<path fill="none" stroke="black" d="M1648.29,-184.38C1497.8,-179.91 1209.9,-166.99 1179,-133 1167.94,-120.83 1167.59,-107.84 1179,-96 1225.98,-47.25 2218.16,-42.66 2532.42,-42.43"/>
<polygon fill="black" stroke="black" points="2532.87,-45.93 2542.86,-42.42 2532.86,-38.93 2532.87,-45.93"/>
</g>
<!-- Node0x560fd0f47638&#45;&gt;Node0x560fd0f49580 -->
<g id="edge21" class="edge">
<title>Node0x560fd0f47638&#45;&gt;Node0x560fd0f49580</title>
<path fill="none" stroke="black" d="M1829.61,-181.04C1945.12,-173.5 2151.12,-158.05 2337.86,-132.94"/>
<polygon fill="black" stroke="black" points="2338.43,-136.39 2347.87,-131.58 2337.49,-129.45 2338.43,-136.39"/>
</g>
<!-- Node0x560fd0f487b0 -->
<g id="node21" class="node">
<title>Node0x560fd0f487b0</title>
<polygon fill="none" stroke="black" points="2536.5,-96.5 2536.5,-132.5 2717.5,-132.5 2717.5,-96.5 2536.5,-96.5"/>
<text text-anchor="middle" x="2627" y="-110.8" font-family="Times,serif" font-size="14.00">lib/libLLVMBitReader.a</text>
</g>
<!-- Node0x560fd0f487b0&#45;&gt;Node0x560fd0f4b808 -->
<g id="edge22" class="edge">
<title>Node0x560fd0f487b0&#45;&gt;Node0x560fd0f4b808</title>
<path fill="none" stroke="black" d="M2627,-96.31C2627,-88.29 2627,-78.55 2627,-69.57"/>
<polygon fill="black" stroke="black" points="2630.5,-69.53 2627,-59.53 2623.5,-69.53 2630.5,-69.53"/>
</g>
<!-- Node0x560fd0f468d0 -->
<g id="node22" class="node">
<title>Node0x560fd0f468d0</title>
<polygon fill="none" stroke="black" points="2736,-96.5 2736,-132.5 2916,-132.5 2916,-96.5 2736,-96.5"/>
<text text-anchor="middle" x="2826" y="-110.8" font-family="Times,serif" font-size="14.00">lib/libLLVMMCParser.a</text>
</g>
<!-- Node0x560fd0f468d0&#45;&gt;Node0x560fd0f4b808 -->
<g id="edge23" class="edge">
<title>Node0x560fd0f468d0&#45;&gt;Node0x560fd0f4b808</title>
<path fill="none" stroke="black" d="M2778.33,-96.49C2750.11,-86.42 2714.17,-73.6 2684.4,-62.98"/>
<polygon fill="black" stroke="black" points="2685.56,-59.68 2674.97,-59.61 2683.21,-66.27 2685.56,-59.68"/>
</g>
<!-- Node0x560fd0f4ee78 -->
<g id="node23" class="node">
<title>Node0x560fd0f4ee78</title>
<polygon fill="none" stroke="black" points="3343.5,-242.5 3343.5,-278.5 3534.5,-278.5 3534.5,-242.5 3343.5,-242.5"/>
<text text-anchor="middle" x="3439" y="-256.8" font-family="Times,serif" font-size="14.00">lib/libLLVMProfileData.a</text>
</g>
<!-- Node0x560fd0f4ee78&#45;&gt;Node0x560fd0f4b808 -->
<g id="edge24" class="edge">
<title>Node0x560fd0f4ee78&#45;&gt;Node0x560fd0f4b808</title>
<path fill="none" stroke="black" d="M3534.61,-257.6C3824.33,-250.86 4677.8,-223.44 4760,-133 4771.06,-120.83 4771.48,-107.77 4760,-96 4723.92,-59 3129.3,-45.85 2721.29,-43.09"/>
<polygon fill="black" stroke="black" points="2721.03,-39.59 2711.01,-43.02 2720.98,-46.59 2721.03,-39.59"/>
</g>
<!-- Node0x560fd0f4ee78&#45;&gt;Node0x560fd0f46ad8 -->
<g id="edge25" class="edge">
<title>Node0x560fd0f4ee78&#45;&gt;Node0x560fd0f46ad8</title>
<path fill="none" stroke="black" d="M3343.46,-253.62C3193.69,-244.29 2894.55,-225.16 2641,-206 2605.15,-203.29 2565.85,-200.05 2531.16,-197.1"/>
<polygon fill="black" stroke="black" points="2531.29,-193.6 2521.02,-196.24 2530.69,-200.58 2531.29,-193.6"/>
</g>
<!-- Node0x560fd0f4cdf8 -->
<g id="node24" class="node">
<title>Node0x560fd0f4cdf8</title>
<polygon fill="none" stroke="black" points="3120.5,-96.5 3120.5,-132.5 3311.5,-132.5 3311.5,-96.5 3120.5,-96.5"/>
<text text-anchor="middle" x="3216" y="-110.8" font-family="Times,serif" font-size="14.00">lib/libLLVMProfileData.a</text>
</g>
<!-- Node0x560fd0f4cdf8&#45;&gt;Node0x560fd0f4b808 -->
<g id="edge26" class="edge">
<title>Node0x560fd0f4cdf8&#45;&gt;Node0x560fd0f4b808</title>
<path fill="none" stroke="black" d="M3120.46,-97.35C3117.27,-96.88 3114.11,-96.43 3111,-96 2975.93,-77.29 2818.94,-60.92 2721.26,-51.37"/>
<polygon fill="black" stroke="black" points="2721.41,-47.87 2711.11,-50.38 2720.73,-54.83 2721.41,-47.87"/>
</g>
<!-- Node0x560fd0f4d680 -->
<g id="node25" class="node">
<title>Node0x560fd0f4d680</title>
<polygon fill="none" stroke="black" points="2922.5,-169.5 2922.5,-205.5 3113.5,-205.5 3113.5,-169.5 2922.5,-169.5"/>
<text text-anchor="middle" x="3018" y="-183.8" font-family="Times,serif" font-size="14.00">lib/libLLVMProfileData.a</text>
</g>
<!-- Node0x560fd0f499f8 -->
<g id="node26" class="node">
<title>Node0x560fd0f499f8</title>
<polygon fill="none" stroke="black" points="2934,-96.5 2934,-132.5 3102,-132.5 3102,-96.5 2934,-96.5"/>
<text text-anchor="middle" x="3018" y="-110.8" font-family="Times,serif" font-size="14.00">lib/libLLVMSupport.a</text>
</g>
<!-- Node0x560fd0f4d680&#45;&gt;Node0x560fd0f499f8 -->
<g id="edge27" class="edge">
<title>Node0x560fd0f4d680&#45;&gt;Node0x560fd0f499f8</title>
<path fill="none" stroke="black" d="M3018,-169.31C3018,-161.29 3018,-151.55 3018,-142.57"/>
<polygon fill="black" stroke="black" points="3021.5,-142.53 3018,-132.53 3014.5,-142.53 3021.5,-142.53"/>
</g>
<!-- Node0x560fd0f4b390 -->
<g id="node27" class="node">
<title>Node0x560fd0f4b390</title>
<polygon fill="none" stroke="black" points="3330,-96.5 3330,-132.5 3474,-132.5 3474,-96.5 3330,-96.5"/>
<text text-anchor="middle" x="3402" y="-110.8" font-family="Times,serif" font-size="14.00">lib/libLLVMCore.a</text>
</g>
<!-- Node0x560fd0f4b390&#45;&gt;Node0x560fd0f4b808 -->
<g id="edge28" class="edge">
<title>Node0x560fd0f4b390&#45;&gt;Node0x560fd0f4b808</title>
<path fill="none" stroke="black" d="M3329.66,-97.51C3326.4,-96.97 3323.17,-96.46 3320,-96 3107.29,-65.23 2855.11,-51.38 2721.35,-45.8"/>
<polygon fill="black" stroke="black" points="2721.27,-42.29 2711.14,-45.38 2720.98,-49.29 2721.27,-42.29"/>
</g>
<!-- Node0x560fd0f4e450 -->
<g id="node28" class="node">
<title>Node0x560fd0f4e450</title>
<polygon fill="none" stroke="black" points="3492,-96.5 3492,-132.5 3636,-132.5 3636,-96.5 3492,-96.5"/>
<text text-anchor="middle" x="3564" y="-110.8" font-family="Times,serif" font-size="14.00">lib/libLLVMCore.a</text>
</g>
<!-- Node0x560fd0f4e450&#45;&gt;Node0x560fd0f4b808 -->
<g id="edge29" class="edge">
<title>Node0x560fd0f4e450&#45;&gt;Node0x560fd0f4b808</title>
<path fill="none" stroke="black" d="M3491.67,-97.31C3488.75,-96.83 3485.85,-96.39 3483,-96 3208.06,-57.93 2879.66,-46.93 2721.43,-43.77"/>
<polygon fill="black" stroke="black" points="2721.32,-40.27 2711.25,-43.57 2721.19,-47.27 2721.32,-40.27"/>
</g>
<!-- Node0x560fd0f46590 -->
<g id="node29" class="node">
<title>Node0x560fd0f46590</title>
<polygon fill="none" stroke="black" points="3654,-96.5 3654,-132.5 3798,-132.5 3798,-96.5 3654,-96.5"/>
<text text-anchor="middle" x="3726" y="-110.8" font-family="Times,serif" font-size="14.00">lib/libLLVMCore.a</text>
</g>
<!-- Node0x560fd0f46590&#45;&gt;Node0x560fd0f4b808 -->
<g id="edge30" class="edge">
<title>Node0x560fd0f46590&#45;&gt;Node0x560fd0f4b808</title>
<path fill="none" stroke="black" d="M3653.68,-97.27C3650.75,-96.81 3647.85,-96.38 3645,-96 3307.28,-50.94 2901.81,-43.4 2721.46,-42.43"/>
<polygon fill="black" stroke="black" points="2721.23,-38.92 2711.22,-42.38 2721.2,-45.92 2721.23,-38.92"/>
</g>
<!-- Node0x560fd0f44100 -->
<g id="node30" class="node">
<title>Node0x560fd0f44100</title>
<polygon fill="none" stroke="black" points="3816,-96.5 3816,-132.5 3960,-132.5 3960,-96.5 3816,-96.5"/>
<text text-anchor="middle" x="3888" y="-110.8" font-family="Times,serif" font-size="14.00">lib/libLLVMCore.a</text>
</g>
<!-- Node0x560fd0f44100&#45;&gt;Node0x560fd0f4b808 -->
<g id="edge31" class="edge">
<title>Node0x560fd0f44100&#45;&gt;Node0x560fd0f4b808</title>
<path fill="none" stroke="black" d="M3815.68,-97.25C3812.76,-96.79 3809.85,-96.37 3807,-96 3597.74,-68.85 2962.37,-50.78 2721.21,-44.73"/>
<polygon fill="black" stroke="black" points="2721.15,-41.23 2711.06,-44.48 2720.97,-48.23 2721.15,-41.23"/>
</g>
<!-- Node0x560fd0f48e98 -->
<g id="node31" class="node">
<title>Node0x560fd0f48e98</title>
<polygon fill="none" stroke="black" points="5342,-242.5 5342,-278.5 5486,-278.5 5486,-242.5 5342,-242.5"/>
<text text-anchor="middle" x="5414" y="-256.8" font-family="Times,serif" font-size="14.00">lib/libLLVMCore.a</text>
</g>
<!-- Node0x560fd0f48e98&#45;&gt;Node0x560fd0f49170 -->
<g id="edge32" class="edge">
<title>Node0x560fd0f48e98&#45;&gt;Node0x560fd0f49170</title>
<path fill="none" stroke="black" d="M5411.1,-242.31C5409.74,-234.29 5408.09,-224.55 5406.58,-215.57"/>
<polygon fill="black" stroke="black" points="5410,-214.81 5404.88,-205.53 5403.09,-215.97 5410,-214.81"/>
</g>
<!-- Node0x560fd0f4ce60 -->
<g id="node32" class="node">
<title>Node0x560fd0f4ce60</title>
<polygon fill="none" stroke="black" points="3978,-96.5 3978,-132.5 4122,-132.5 4122,-96.5 3978,-96.5"/>
<text text-anchor="middle" x="4050" y="-110.8" font-family="Times,serif" font-size="14.00">lib/libLLVMCore.a</text>
</g>
<!-- Node0x560fd0f4ce60&#45;&gt;Node0x560fd0f4b808 -->
<g id="edge33" class="edge">
<title>Node0x560fd0f4ce60&#45;&gt;Node0x560fd0f4b808</title>
<path fill="none" stroke="black" d="M3977.68,-97.23C3974.76,-96.78 3971.85,-96.36 3969,-96 3727.18,-65.29 2985.19,-49.06 2721.34,-44.14"/>
<polygon fill="black" stroke="black" points="2721.09,-40.63 2711.02,-43.95 2720.96,-47.63 2721.09,-40.63"/>
</g>
<!-- Node0x560fd0f485a8 -->
<g id="node33" class="node">
<title>Node0x560fd0f485a8</title>
<polygon fill="none" stroke="black" points="5516,-242.5 5516,-278.5 5684,-278.5 5684,-242.5 5516,-242.5"/>
<text text-anchor="middle" x="5600" y="-256.8" font-family="Times,serif" font-size="14.00">lib/libLLVMSupport.a</text>
</g>
<!-- Node0x560fd0f4cb88 -->
<g id="node34" class="node">
<title>Node0x560fd0f4cb88</title>
<polygon fill="none" stroke="black" points="5504.5,-169.5 5504.5,-205.5 5695.5,-205.5 5695.5,-169.5 5504.5,-169.5"/>
<text text-anchor="middle" x="5600" y="-183.8" font-family="Times,serif" font-size="14.00">lib/libLLVMProfileData.a</text>
</g>
<!-- Node0x560fd0f485a8&#45;&gt;Node0x560fd0f4cb88 -->
<g id="edge34" class="edge">
<title>Node0x560fd0f485a8&#45;&gt;Node0x560fd0f4cb88</title>
<path fill="none" stroke="black" d="M5600,-242.31C5600,-234.29 5600,-224.55 5600,-215.57"/>
<polygon fill="black" stroke="black" points="5603.5,-215.53 5600,-205.53 5596.5,-215.53 5603.5,-215.53"/>
</g>
<!-- Node0x560fd0f47b18 -->
<g id="node35" class="node">
<title>Node0x560fd0f47b18</title>
<polygon fill="none" stroke="black" points="2650,-169.5 2650,-205.5 2794,-205.5 2794,-169.5 2650,-169.5"/>
<text text-anchor="middle" x="2722" y="-183.8" font-family="Times,serif" font-size="14.00">lib/libLLVMCore.a</text>
</g>
<!-- Node0x560fd0f47b18&#45;&gt;Node0x560fd0f49580 -->
<g id="edge36" class="edge">
<title>Node0x560fd0f47b18&#45;&gt;Node0x560fd0f49580</title>
<path fill="none" stroke="black" d="M2652.78,-169.49C2610.47,-159.1 2556.22,-145.77 2512.21,-134.96"/>
<polygon fill="black" stroke="black" points="2512.95,-131.54 2502.41,-132.55 2511.28,-138.34 2512.95,-131.54"/>
</g>
<!-- Node0x560fd0f47b18&#45;&gt;Node0x560fd0f499f8 -->
<g id="edge35" class="edge">
<title>Node0x560fd0f47b18&#45;&gt;Node0x560fd0f499f8</title>
<path fill="none" stroke="black" d="M2792.9,-169.49C2836.32,-159.08 2892.02,-145.72 2937.16,-134.89"/>
<polygon fill="black" stroke="black" points="2938,-138.29 2946.91,-132.55 2936.37,-131.48 2938,-138.29"/>
</g>
<!-- Node0x560fd0f47c50 -->
<g id="node36" class="node">
<title>Node0x560fd0f47c50</title>
<polygon fill="none" stroke="black" points="5711.5,-242.5 5711.5,-278.5 5884.5,-278.5 5884.5,-242.5 5711.5,-242.5"/>
<text text-anchor="middle" x="5798" y="-256.8" font-family="Times,serif" font-size="14.00">lib/libLLVMRemarks.a</text>
</g>
<!-- Node0x560fd0f47cb8 -->
<g id="node37" class="node">
<title>Node0x560fd0f47cb8</title>
<polygon fill="none" stroke="black" points="5714,-169.5 5714,-205.5 5882,-205.5 5882,-169.5 5714,-169.5"/>
<text text-anchor="middle" x="5798" y="-183.8" font-family="Times,serif" font-size="14.00">lib/libLLVMSupport.a</text>
</g>
<!-- Node0x560fd0f47c50&#45;&gt;Node0x560fd0f47cb8 -->
<g id="edge37" class="edge">
<title>Node0x560fd0f47c50&#45;&gt;Node0x560fd0f47cb8</title>
<path fill="none" stroke="black" d="M5798,-242.31C5798,-234.29 5798,-224.55 5798,-215.57"/>
<polygon fill="black" stroke="black" points="5801.5,-215.53 5798,-205.53 5794.5,-215.53 5801.5,-215.53"/>
</g>
<!-- Node0x560fd0f4c230 -->
<g id="node38" class="node">
<title>Node0x560fd0f4c230</title>
<polygon fill="none" stroke="black" points="4140.5,-96.5 4140.5,-132.5 4371.5,-132.5 4371.5,-96.5 4140.5,-96.5"/>
<text text-anchor="middle" x="4256" y="-110.8" font-family="Times,serif" font-size="14.00">lib/libLLVMBitstreamReader.a</text>
</g>
<!-- Node0x560fd0f4c230&#45;&gt;Node0x560fd0f4b808 -->
<g id="edge38" class="edge">
<title>Node0x560fd0f4c230&#45;&gt;Node0x560fd0f4b808</title>
<path fill="none" stroke="black" d="M4140.27,-96.87C4137.15,-96.56 4134.06,-96.27 4131,-96 3599.47,-49.47 2958.89,-43.13 2721.48,-42.47"/>
<polygon fill="black" stroke="black" points="2721.17,-38.97 2711.16,-42.44 2721.15,-45.97 2721.17,-38.97"/>
</g>
<!-- Node0x560fd0f4c508 -->
<g id="node39" class="node">
<title>Node0x560fd0f4c508</title>
<polygon fill="none" stroke="black" points="4389.5,-96.5 4389.5,-132.5 4524.5,-132.5 4524.5,-96.5 4389.5,-96.5"/>
<text text-anchor="middle" x="4457" y="-110.8" font-family="Times,serif" font-size="14.00">lib/libLLVMMC.a</text>
</g>
<!-- Node0x560fd0f4c508&#45;&gt;Node0x560fd0f4b808 -->
<g id="edge39" class="edge">
<title>Node0x560fd0f4c508&#45;&gt;Node0x560fd0f4b808</title>
<path fill="none" stroke="black" d="M4389.11,-97.32C4386.04,-96.83 4382.99,-96.38 4380,-96 4054.88,-54.49 3036.83,-44.96 2721.24,-42.98"/>
<polygon fill="black" stroke="black" points="2721.23,-39.48 2711.21,-42.92 2721.19,-46.48 2721.23,-39.48"/>
</g>
<!-- Node0x560fd0f4fd18 -->
<g id="node40" class="node">
<title>Node0x560fd0f4fd18</title>
<polygon fill="none" stroke="black" points="4542.5,-96.5 4542.5,-132.5 4751.5,-132.5 4751.5,-96.5 4542.5,-96.5"/>
<text text-anchor="middle" x="4647" y="-110.8" font-family="Times,serif" font-size="14.00">lib/libLLVMBinaryFormat.a</text>
</g>
<!-- Node0x560fd0f4fd18&#45;&gt;Node0x560fd0f4b808 -->
<g id="edge40" class="edge">
<title>Node0x560fd0f4fd18&#45;&gt;Node0x560fd0f4b808</title>
<path fill="none" stroke="black" d="M4542.39,-96.92C4539.23,-96.59 4536.09,-96.28 4533,-96 4175.29,-63.65 3054.49,-47.7 2721.31,-43.59"/>
<polygon fill="black" stroke="black" points="2721.26,-40.09 2711.21,-43.47 2721.17,-47.09 2721.26,-40.09"/>
</g>
</g>
</svg>
