<?xml version="1.0" encoding="UTF-8" standalone="no"?>
<!DOCTYPE svg PUBLIC "-//W3C//DTD SVG 1.1//EN"
 "http://www.w3.org/Graphics/SVG/1.1/DTD/svg11.dtd">
<!-- Generated by graphviz version 2.43.0 (0)
 -->
<!-- Title: bin/llvm&#45;yaml&#45;parser&#45;fuzzer Pages: 1 -->
<svg width="4821pt" height="287pt"
 viewBox="0.00 0.00 4820.50 287.00" xmlns="http://www.w3.org/2000/svg" xmlns:xlink="http://www.w3.org/1999/xlink">
<g id="graph0" class="graph" transform="scale(1 1) rotate(0) translate(4 283)">
<title>bin/llvm&#45;yaml&#45;parser&#45;fuzzer</title>
<polygon fill="white" stroke="transparent" points="-4,4 -4,-283 4816.5,-283 4816.5,4 -4,4"/>
<text text-anchor="middle" x="2406.25" y="-7.8" font-family="Times,serif" font-size="14.00">bin/llvm&#45;yaml&#45;parser&#45;fuzzer</text>
<!-- Node0x5581d1c6fdf8 -->
<g id="node1" class="node">
<title>Node0x5581d1c6fdf8</title>
<polygon fill="none" stroke="black" points="573.5,-242.5 573.5,-278.5 1322.5,-278.5 1322.5,-242.5 573.5,-242.5"/>
<text text-anchor="middle" x="948" y="-256.8" font-family="Times,serif" font-size="14.00">tools/llvm&#45;yaml&#45;parser&#45;fuzzer/CMakeFiles/llvm&#45;yaml&#45;parser&#45;fuzzer.dir/DummyYAMLParserFuzzer.cpp.o</text>
</g>
<!-- Node0x5581d1c701a0 -->
<g id="node2" class="node">
<title>Node0x5581d1c701a0</title>
<polygon fill="none" stroke="black" points="407.5,-169.5 407.5,-205.5 1098.5,-205.5 1098.5,-169.5 407.5,-169.5"/>
<text text-anchor="middle" x="753" y="-183.8" font-family="Times,serif" font-size="14.00">tools/llvm&#45;yaml&#45;parser&#45;fuzzer/CMakeFiles/llvm&#45;yaml&#45;parser&#45;fuzzer.dir/yaml&#45;parser&#45;fuzzer.cpp.o</text>
</g>
<!-- Node0x5581d1c6fdf8&#45;&gt;Node0x5581d1c701a0 -->
<g id="edge1" class="edge">
<title>Node0x5581d1c6fdf8&#45;&gt;Node0x5581d1c701a0</title>
<path fill="none" stroke="black" d="M901.29,-242.49C873.76,-232.47 838.72,-219.71 809.62,-209.12"/>
<polygon fill="black" stroke="black" points="810.6,-205.75 800,-205.61 808.2,-212.32 810.6,-205.75"/>
</g>
<!-- Node0x5581d1c769a0 -->
<g id="node3" class="node">
<title>Node0x5581d1c769a0</title>
<polygon fill="none" stroke="black" points="1117,-169.5 1117,-205.5 1313,-205.5 1313,-169.5 1117,-169.5"/>
<text text-anchor="middle" x="1215" y="-183.8" font-family="Times,serif" font-size="14.00">lib/libLLVMFuzzMutate.a</text>
</g>
<!-- Node0x5581d1c6fdf8&#45;&gt;Node0x5581d1c769a0 -->
<g id="edge2" class="edge">
<title>Node0x5581d1c6fdf8&#45;&gt;Node0x5581d1c769a0</title>
<path fill="none" stroke="black" d="M1011.95,-242.49C1050.72,-232.18 1100.34,-218.99 1140.83,-208.22"/>
<polygon fill="black" stroke="black" points="1141.88,-211.57 1150.64,-205.61 1140.08,-204.8 1141.88,-211.57"/>
</g>
<!-- Node0x5581d1c6da38 -->
<g id="node4" class="node">
<title>Node0x5581d1c6da38</title>
<polygon fill="none" stroke="black" points="831,-96.5 831,-132.5 999,-132.5 999,-96.5 831,-96.5"/>
<text text-anchor="middle" x="915" y="-110.8" font-family="Times,serif" font-size="14.00">lib/libLLVMSupport.a</text>
</g>
<!-- Node0x5581d1c701a0&#45;&gt;Node0x5581d1c6da38 -->
<g id="edge3" class="edge">
<title>Node0x5581d1c701a0&#45;&gt;Node0x5581d1c6da38</title>
<path fill="none" stroke="black" d="M785.94,-169.49C807.47,-159.6 835.99,-147.04 860.78,-136.53"/>
<polygon fill="black" stroke="black" points="862.23,-139.72 870.08,-132.61 859.51,-133.27 862.23,-139.72"/>
</g>
<!-- Node0x5581d1c769a0&#45;&gt;Node0x5581d1c6da38 -->
<g id="edge4" class="edge">
<title>Node0x5581d1c769a0&#45;&gt;Node0x5581d1c6da38</title>
<path fill="none" stroke="black" d="M1143.14,-169.49C1099.14,-159.08 1042.68,-145.72 996.94,-134.89"/>
<polygon fill="black" stroke="black" points="997.59,-131.45 987.05,-132.55 995.98,-138.26 997.59,-131.45"/>
</g>
<!-- Node0x5581d1c6da38&#45;&gt;Node0x5581d1c701a0 -->
<g id="edge5" class="edge">
<title>Node0x5581d1c6da38&#45;&gt;Node0x5581d1c701a0</title>
<path fill="none" stroke="black" d="M881.82,-132.61C860.25,-142.53 831.71,-155.08 806.95,-165.58"/>
<polygon fill="black" stroke="black" points="805.52,-162.38 797.66,-169.49 808.24,-168.84 805.52,-162.38"/>
</g>
<!-- Node0x5581d1c793e0 -->
<g id="node5" class="node">
<title>Node0x5581d1c793e0</title>
<polygon fill="none" stroke="black" points="1531,-169.5 1531,-205.5 1707,-205.5 1707,-169.5 1531,-169.5"/>
<text text-anchor="middle" x="1619" y="-183.8" font-family="Times,serif" font-size="14.00">lib/libLLVMBitWriter.a</text>
</g>
<!-- Node0x5581d1c793e0&#45;&gt;Node0x5581d1c6da38 -->
<g id="edge6" class="edge">
<title>Node0x5581d1c793e0&#45;&gt;Node0x5581d1c6da38</title>
<path fill="none" stroke="black" d="M1530.91,-170.39C1527.57,-169.9 1524.26,-169.43 1521,-169 1340.69,-144.99 1128.7,-129.07 1009.28,-121.22"/>
<polygon fill="black" stroke="black" points="1009.28,-117.72 999.07,-120.56 1008.82,-124.7 1009.28,-117.72"/>
</g>
<!-- Node0x5581d1c737a8 -->
<g id="node6" class="node">
<title>Node0x5581d1c737a8</title>
<polygon fill="none" stroke="black" points="1242,-96.5 1242,-132.5 1412,-132.5 1412,-96.5 1242,-96.5"/>
<text text-anchor="middle" x="1327" y="-110.8" font-family="Times,serif" font-size="14.00">lib/libLLVMAnalysis.a</text>
</g>
<!-- Node0x5581d1c793e0&#45;&gt;Node0x5581d1c737a8 -->
<g id="edge7" class="edge">
<title>Node0x5581d1c793e0&#45;&gt;Node0x5581d1c737a8</title>
<path fill="none" stroke="black" d="M1549.06,-169.49C1506.31,-159.1 1451.5,-145.77 1407.03,-134.96"/>
<polygon fill="black" stroke="black" points="1407.67,-131.51 1397.13,-132.55 1406.02,-138.32 1407.67,-131.51"/>
</g>
<!-- Node0x5581d1c71860 -->
<g id="node7" class="node">
<title>Node0x5581d1c71860</title>
<polygon fill="none" stroke="black" points="2018,-23.5 2018,-59.5 2186,-59.5 2186,-23.5 2018,-23.5"/>
<text text-anchor="middle" x="2102" y="-37.8" font-family="Times,serif" font-size="14.00">lib/libLLVMSupport.a</text>
</g>
<!-- Node0x5581d1c737a8&#45;&gt;Node0x5581d1c71860 -->
<g id="edge8" class="edge">
<title>Node0x5581d1c737a8&#45;&gt;Node0x5581d1c71860</title>
<path fill="none" stroke="black" d="M1412.24,-97.22C1415.19,-96.79 1418.12,-96.38 1421,-96 1629.55,-68.47 1876.04,-53.41 2007.77,-46.75"/>
<polygon fill="black" stroke="black" points="2008.02,-50.24 2017.83,-46.25 2007.67,-43.25 2008.02,-50.24"/>
</g>
<!-- Node0x5581d1c74238 -->
<g id="node8" class="node">
<title>Node0x5581d1c74238</title>
<polygon fill="none" stroke="black" points="2487,-96.5 2487,-132.5 2663,-132.5 2663,-96.5 2487,-96.5"/>
<text text-anchor="middle" x="2575" y="-110.8" font-family="Times,serif" font-size="14.00">lib/libLLVMBitWriter.a</text>
</g>
<!-- Node0x5581d1c74238&#45;&gt;Node0x5581d1c71860 -->
<g id="edge9" class="edge">
<title>Node0x5581d1c74238&#45;&gt;Node0x5581d1c71860</title>
<path fill="none" stroke="black" d="M2486.84,-98.22C2482.16,-97.46 2477.53,-96.71 2473,-96 2378.88,-81.14 2271.05,-65.78 2195.99,-55.35"/>
<polygon fill="black" stroke="black" points="2196.47,-51.88 2186.08,-53.97 2195.51,-58.81 2196.47,-51.88"/>
</g>
<!-- Node0x5581d1c77020 -->
<g id="node9" class="node">
<title>Node0x5581d1c77020</title>
<polygon fill="none" stroke="black" points="2681,-96.5 2681,-132.5 2851,-132.5 2851,-96.5 2681,-96.5"/>
<text text-anchor="middle" x="2766" y="-110.8" font-family="Times,serif" font-size="14.00">lib/libLLVMAnalysis.a</text>
</g>
<!-- Node0x5581d1c77020&#45;&gt;Node0x5581d1c71860 -->
<g id="edge10" class="edge">
<title>Node0x5581d1c77020&#45;&gt;Node0x5581d1c71860</title>
<path fill="none" stroke="black" d="M2680.75,-97.28C2677.8,-96.83 2674.88,-96.4 2672,-96 2505.26,-72.7 2309.62,-56.81 2196.33,-48.73"/>
<polygon fill="black" stroke="black" points="2196.52,-45.23 2186.3,-48.02 2196.03,-52.22 2196.52,-45.23"/>
</g>
<!-- Node0x5581d1c6f980 -->
<g id="node10" class="node">
<title>Node0x5581d1c6f980</title>
<polygon fill="none" stroke="black" points="3121,-242.5 3121,-278.5 3291,-278.5 3291,-242.5 3121,-242.5"/>
<text text-anchor="middle" x="3206" y="-256.8" font-family="Times,serif" font-size="14.00">lib/libLLVMAnalysis.a</text>
</g>
<!-- Node0x5581d1c6f5d8 -->
<g id="node11" class="node">
<title>Node0x5581d1c6f5d8</title>
<polygon fill="none" stroke="black" points="3310,-169.5 3310,-205.5 3478,-205.5 3478,-169.5 3310,-169.5"/>
<text text-anchor="middle" x="3394" y="-183.8" font-family="Times,serif" font-size="14.00">lib/libLLVMSupport.a</text>
</g>
<!-- Node0x5581d1c6f980&#45;&gt;Node0x5581d1c6f5d8 -->
<g id="edge11" class="edge">
<title>Node0x5581d1c6f980&#45;&gt;Node0x5581d1c6f5d8</title>
<path fill="none" stroke="black" d="M3251.03,-242.49C3277.46,-232.51 3311.06,-219.82 3339.04,-209.26"/>
<polygon fill="black" stroke="black" points="3340.57,-212.42 3348.69,-205.61 3338.09,-205.87 3340.57,-212.42"/>
</g>
<!-- Node0x5581d1c713e8 -->
<g id="node12" class="node">
<title>Node0x5581d1c713e8</title>
<polygon fill="none" stroke="black" points="3309,-242.5 3309,-278.5 3479,-278.5 3479,-242.5 3309,-242.5"/>
<text text-anchor="middle" x="3394" y="-256.8" font-family="Times,serif" font-size="14.00">lib/libLLVMAnalysis.a</text>
</g>
<!-- Node0x5581d1c713e8&#45;&gt;Node0x5581d1c6f5d8 -->
<g id="edge12" class="edge">
<title>Node0x5581d1c713e8&#45;&gt;Node0x5581d1c6f5d8</title>
<path fill="none" stroke="black" d="M3394,-242.31C3394,-234.29 3394,-224.55 3394,-215.57"/>
<polygon fill="black" stroke="black" points="3397.5,-215.53 3394,-205.53 3390.5,-215.53 3397.5,-215.53"/>
</g>
<!-- Node0x5581d1c72970 -->
<g id="node13" class="node">
<title>Node0x5581d1c72970</title>
<polygon fill="none" stroke="black" points="1736,-242.5 1736,-278.5 1906,-278.5 1906,-242.5 1736,-242.5"/>
<text text-anchor="middle" x="1821" y="-256.8" font-family="Times,serif" font-size="14.00">lib/libLLVMAnalysis.a</text>
</g>
<!-- Node0x5581d1c72970&#45;&gt;Node0x5581d1c793e0 -->
<g id="edge14" class="edge">
<title>Node0x5581d1c72970&#45;&gt;Node0x5581d1c793e0</title>
<path fill="none" stroke="black" d="M1772.62,-242.49C1743.97,-232.42 1707.49,-219.6 1677.26,-208.98"/>
<polygon fill="black" stroke="black" points="1678.28,-205.63 1667.69,-205.61 1675.96,-212.23 1678.28,-205.63"/>
</g>
<!-- Node0x5581d1c72970&#45;&gt;Node0x5581d1c71860 -->
<g id="edge13" class="edge">
<title>Node0x5581d1c72970&#45;&gt;Node0x5581d1c71860</title>
<path fill="none" stroke="black" d="M1906.17,-243.5C2073.68,-211.85 2430.53,-143.38 2439,-133 2449.4,-120.26 2449.68,-108.51 2439,-96 2408.31,-60.05 2284.9,-48.13 2196.31,-44.25"/>
<polygon fill="black" stroke="black" points="2196.37,-40.75 2186.23,-43.84 2196.08,-47.74 2196.37,-40.75"/>
</g>
<!-- Node0x5581d1c70478 -->
<g id="node14" class="node">
<title>Node0x5581d1c70478</title>
<polygon fill="none" stroke="black" points="1932,-242.5 1932,-278.5 2102,-278.5 2102,-242.5 1932,-242.5"/>
<text text-anchor="middle" x="2017" y="-256.8" font-family="Times,serif" font-size="14.00">lib/libLLVMAnalysis.a</text>
</g>
<!-- Node0x5581d1c70478&#45;&gt;Node0x5581d1c793e0 -->
<g id="edge16" class="edge">
<title>Node0x5581d1c70478&#45;&gt;Node0x5581d1c793e0</title>
<path fill="none" stroke="black" d="M1931.68,-244.4C1873.89,-234.15 1795.49,-220.23 1717.09,-206.19"/>
<polygon fill="black" stroke="black" points="1717.49,-202.71 1707.03,-204.39 1716.25,-209.6 1717.49,-202.71"/>
</g>
<!-- Node0x5581d1c71c08 -->
<g id="node15" class="node">
<title>Node0x5581d1c71c08</title>
<polygon fill="none" stroke="black" points="2487,-169.5 2487,-205.5 2655,-205.5 2655,-169.5 2487,-169.5"/>
<text text-anchor="middle" x="2571" y="-183.8" font-family="Times,serif" font-size="14.00">lib/libLLVMSupport.a</text>
</g>
<!-- Node0x5581d1c70478&#45;&gt;Node0x5581d1c71c08 -->
<g id="edge15" class="edge">
<title>Node0x5581d1c70478&#45;&gt;Node0x5581d1c71c08</title>
<path fill="none" stroke="black" d="M2102.19,-243.88C2106.52,-243.22 2110.81,-242.58 2115,-242 2273.38,-219.93 2314.62,-228.07 2473,-206 2474.28,-205.82 2475.56,-205.64 2476.85,-205.45"/>
<polygon fill="black" stroke="black" points="2477.5,-208.9 2486.87,-203.95 2476.46,-201.97 2477.5,-208.9"/>
</g>
<!-- Node0x5581d1c6efc0 -->
<g id="node16" class="node">
<title>Node0x5581d1c6efc0</title>
<polygon fill="none" stroke="black" points="1430,-96.5 1430,-132.5 1600,-132.5 1600,-96.5 1430,-96.5"/>
<text text-anchor="middle" x="1515" y="-110.8" font-family="Times,serif" font-size="14.00">lib/libLLVMAnalysis.a</text>
</g>
<!-- Node0x5581d1c6efc0&#45;&gt;Node0x5581d1c71860 -->
<g id="edge17" class="edge">
<title>Node0x5581d1c6efc0&#45;&gt;Node0x5581d1c71860</title>
<path fill="none" stroke="black" d="M1600.01,-97.38C1603.04,-96.9 1606.04,-96.43 1609,-96 1747.14,-75.68 1908.11,-59.63 2007.55,-50.6"/>
<polygon fill="black" stroke="black" points="2007.93,-54.08 2017.57,-49.7 2007.3,-47.11 2007.93,-54.08"/>
</g>
<!-- Node0x5581d1c76250 -->
<g id="node17" class="node">
<title>Node0x5581d1c76250</title>
<polygon fill="none" stroke="black" points="1535,-242.5 1535,-278.5 1703,-278.5 1703,-242.5 1535,-242.5"/>
<text text-anchor="middle" x="1619" y="-256.8" font-family="Times,serif" font-size="14.00">lib/libLLVMSupport.a</text>
</g>
<!-- Node0x5581d1c76250&#45;&gt;Node0x5581d1c793e0 -->
<g id="edge18" class="edge">
<title>Node0x5581d1c76250&#45;&gt;Node0x5581d1c793e0</title>
<path fill="none" stroke="black" d="M1619,-242.31C1619,-234.29 1619,-224.55 1619,-215.57"/>
<polygon fill="black" stroke="black" points="1622.5,-215.53 1619,-205.53 1615.5,-215.53 1622.5,-215.53"/>
</g>
<!-- Node0x5581d1c77290 -->
<g id="node18" class="node">
<title>Node0x5581d1c77290</title>
<polygon fill="none" stroke="black" points="3707,-242.5 3707,-278.5 3877,-278.5 3877,-242.5 3707,-242.5"/>
<text text-anchor="middle" x="3792" y="-256.8" font-family="Times,serif" font-size="14.00">lib/libLLVMAnalysis.a</text>
</g>
<!-- Node0x5581d1c76fb8 -->
<g id="node19" class="node">
<title>Node0x5581d1c76fb8</title>
<polygon fill="none" stroke="black" points="3708,-169.5 3708,-205.5 3876,-205.5 3876,-169.5 3708,-169.5"/>
<text text-anchor="middle" x="3792" y="-183.8" font-family="Times,serif" font-size="14.00">lib/libLLVMSupport.a</text>
</g>
<!-- Node0x5581d1c77290&#45;&gt;Node0x5581d1c76fb8 -->
<g id="edge19" class="edge">
<title>Node0x5581d1c77290&#45;&gt;Node0x5581d1c76fb8</title>
<path fill="none" stroke="black" d="M3792,-242.31C3792,-234.29 3792,-224.55 3792,-215.57"/>
<polygon fill="black" stroke="black" points="3795.5,-215.53 3792,-205.53 3788.5,-215.53 3795.5,-215.53"/>
</g>
<!-- Node0x5581d1c6d488 -->
<g id="node20" class="node">
<title>Node0x5581d1c6d488</title>
<polygon fill="none" stroke="black" points="2584.5,-242.5 2584.5,-278.5 2741.5,-278.5 2741.5,-242.5 2584.5,-242.5"/>
<text text-anchor="middle" x="2663" y="-256.8" font-family="Times,serif" font-size="14.00">lib/libLLVMObject.a</text>
</g>
<!-- Node0x5581d1c6c448 -->
<g id="node21" class="node">
<title>Node0x5581d1c6c448</title>
<polygon fill="none" stroke="black" points="2673,-169.5 2673,-205.5 2841,-205.5 2841,-169.5 2673,-169.5"/>
<text text-anchor="middle" x="2757" y="-183.8" font-family="Times,serif" font-size="14.00">lib/libLLVMSupport.a</text>
</g>
<!-- Node0x5581d1c6d488&#45;&gt;Node0x5581d1c6c448 -->
<g id="edge20" class="edge">
<title>Node0x5581d1c6d488&#45;&gt;Node0x5581d1c6c448</title>
<path fill="none" stroke="black" d="M2685.75,-242.31C2697.88,-233.16 2712.97,-221.76 2726.13,-211.82"/>
<polygon fill="black" stroke="black" points="2728.58,-214.35 2734.45,-205.53 2724.37,-208.76 2728.58,-214.35"/>
</g>
<!-- Node0x5581d1c79240 -->
<g id="node22" class="node">
<title>Node0x5581d1c79240</title>
<polygon fill="none" stroke="black" points="1331.5,-169.5 1331.5,-205.5 1512.5,-205.5 1512.5,-169.5 1331.5,-169.5"/>
<text text-anchor="middle" x="1422" y="-183.8" font-family="Times,serif" font-size="14.00">lib/libLLVMBitReader.a</text>
</g>
<!-- Node0x5581d1c79240&#45;&gt;Node0x5581d1c6da38 -->
<g id="edge21" class="edge">
<title>Node0x5581d1c79240&#45;&gt;Node0x5581d1c6da38</title>
<path fill="none" stroke="black" d="M1331.28,-170.45C1328.15,-169.95 1325.05,-169.47 1322,-169 1215.15,-152.64 1092.05,-136.88 1009.45,-126.76"/>
<polygon fill="black" stroke="black" points="1009.68,-123.26 999.33,-125.52 1008.83,-130.21 1009.68,-123.26"/>
</g>
<!-- Node0x5581d1c79240&#45;&gt;Node0x5581d1c737a8 -->
<g id="edge22" class="edge">
<title>Node0x5581d1c79240&#45;&gt;Node0x5581d1c737a8</title>
<path fill="none" stroke="black" d="M1399,-169.31C1386.63,-160.07 1371.21,-148.54 1357.82,-138.53"/>
<polygon fill="black" stroke="black" points="1359.89,-135.71 1349.79,-132.53 1355.7,-141.32 1359.89,-135.71"/>
</g>
<!-- Node0x5581d1c6c788 -->
<g id="node23" class="node">
<title>Node0x5581d1c6c788</title>
<polygon fill="none" stroke="black" points="2759.5,-242.5 2759.5,-278.5 2940.5,-278.5 2940.5,-242.5 2759.5,-242.5"/>
<text text-anchor="middle" x="2850" y="-256.8" font-family="Times,serif" font-size="14.00">lib/libLLVMBitReader.a</text>
</g>
<!-- Node0x5581d1c6c788&#45;&gt;Node0x5581d1c6c448 -->
<g id="edge23" class="edge">
<title>Node0x5581d1c6c788&#45;&gt;Node0x5581d1c6c448</title>
<path fill="none" stroke="black" d="M2827.49,-242.31C2815.49,-233.16 2800.57,-221.76 2787.54,-211.82"/>
<polygon fill="black" stroke="black" points="2789.38,-208.82 2779.31,-205.53 2785.13,-214.38 2789.38,-208.82"/>
</g>
<!-- Node0x5581d1c6f710 -->
<g id="node24" class="node">
<title>Node0x5581d1c6f710</title>
<polygon fill="none" stroke="black" points="0,-169.5 0,-205.5 180,-205.5 180,-169.5 0,-169.5"/>
<text text-anchor="middle" x="90" y="-183.8" font-family="Times,serif" font-size="14.00">lib/libLLVMMCParser.a</text>
</g>
<!-- Node0x5581d1c6f710&#45;&gt;Node0x5581d1c6da38 -->
<g id="edge24" class="edge">
<title>Node0x5581d1c6f710&#45;&gt;Node0x5581d1c6da38</title>
<path fill="none" stroke="black" d="M180.05,-170.18C183.07,-169.76 186.06,-169.37 189,-169 414.73,-140.81 681.94,-125.81 820.71,-119.39"/>
<polygon fill="black" stroke="black" points="821.05,-122.88 830.88,-118.93 820.73,-115.89 821.05,-122.88"/>
</g>
<!-- Node0x5581d1c772f8 -->
<g id="node25" class="node">
<title>Node0x5581d1c772f8</title>
<polygon fill="none" stroke="black" points="2124.5,-242.5 2124.5,-278.5 2315.5,-278.5 2315.5,-242.5 2124.5,-242.5"/>
<text text-anchor="middle" x="2220" y="-256.8" font-family="Times,serif" font-size="14.00">lib/libLLVMProfileData.a</text>
</g>
<!-- Node0x5581d1c772f8&#45;&gt;Node0x5581d1c793e0 -->
<g id="edge26" class="edge">
<title>Node0x5581d1c772f8&#45;&gt;Node0x5581d1c793e0</title>
<path fill="none" stroke="black" d="M2124.35,-243.76C2119.84,-243.14 2115.37,-242.55 2111,-242 1939.34,-220.42 1892.42,-229.32 1717.31,-206.11"/>
<polygon fill="black" stroke="black" points="1717.61,-202.62 1707.24,-204.76 1716.68,-209.56 1717.61,-202.62"/>
</g>
<!-- Node0x5581d1c772f8&#45;&gt;Node0x5581d1c6c448 -->
<g id="edge25" class="edge">
<title>Node0x5581d1c772f8&#45;&gt;Node0x5581d1c6c448</title>
<path fill="none" stroke="black" d="M2315.59,-243.46C2319.1,-242.95 2322.58,-242.46 2326,-242 2472.48,-222.12 2512.82,-227.73 2662.86,-206.1"/>
<polygon fill="black" stroke="black" points="2663.51,-209.54 2672.9,-204.64 2662.5,-202.62 2663.51,-209.54"/>
</g>
<!-- Node0x5581d1c76a70 -->
<g id="node26" class="node">
<title>Node0x5581d1c76a70</title>
<polygon fill="none" stroke="black" points="198.5,-169.5 198.5,-205.5 389.5,-205.5 389.5,-169.5 198.5,-169.5"/>
<text text-anchor="middle" x="294" y="-183.8" font-family="Times,serif" font-size="14.00">lib/libLLVMProfileData.a</text>
</g>
<!-- Node0x5581d1c76a70&#45;&gt;Node0x5581d1c6da38 -->
<g id="edge27" class="edge">
<title>Node0x5581d1c76a70&#45;&gt;Node0x5581d1c6da38</title>
<path fill="none" stroke="black" d="M389.74,-170.16C392.52,-169.76 395.28,-169.37 398,-169 545.11,-149.03 716.66,-132.63 820.49,-123.46"/>
<polygon fill="black" stroke="black" points="820.97,-126.93 830.63,-122.57 820.36,-119.96 820.97,-126.93"/>
</g>
<!-- Node0x5581d1c73fc8 -->
<g id="node27" class="node">
<title>Node0x5581d1c73fc8</title>
<polygon fill="none" stroke="black" points="3497.5,-242.5 3497.5,-278.5 3688.5,-278.5 3688.5,-242.5 3497.5,-242.5"/>
<text text-anchor="middle" x="3593" y="-256.8" font-family="Times,serif" font-size="14.00">lib/libLLVMProfileData.a</text>
</g>
<!-- Node0x5581d1c73fc8&#45;&gt;Node0x5581d1c6f5d8 -->
<g id="edge28" class="edge">
<title>Node0x5581d1c73fc8&#45;&gt;Node0x5581d1c6f5d8</title>
<path fill="none" stroke="black" d="M3545.33,-242.49C3517.11,-232.42 3481.17,-219.6 3451.4,-208.98"/>
<polygon fill="black" stroke="black" points="3452.56,-205.68 3441.97,-205.61 3450.21,-212.27 3452.56,-205.68"/>
</g>
<!-- Node0x5581d1c6ea78 -->
<g id="node28" class="node">
<title>Node0x5581d1c6ea78</title>
<polygon fill="none" stroke="black" points="3895,-242.5 3895,-278.5 4039,-278.5 4039,-242.5 3895,-242.5"/>
<text text-anchor="middle" x="3967" y="-256.8" font-family="Times,serif" font-size="14.00">lib/libLLVMCore.a</text>
</g>
<!-- Node0x5581d1c6e390 -->
<g id="node29" class="node">
<title>Node0x5581d1c6e390</title>
<polygon fill="none" stroke="black" points="4045,-169.5 4045,-205.5 4213,-205.5 4213,-169.5 4045,-169.5"/>
<text text-anchor="middle" x="4129" y="-183.8" font-family="Times,serif" font-size="14.00">lib/libLLVMSupport.a</text>
</g>
<!-- Node0x5581d1c6ea78&#45;&gt;Node0x5581d1c6e390 -->
<g id="edge29" class="edge">
<title>Node0x5581d1c6ea78&#45;&gt;Node0x5581d1c6e390</title>
<path fill="none" stroke="black" d="M4005.8,-242.49C4028.28,-232.64 4056.77,-220.16 4080.69,-209.67"/>
<polygon fill="black" stroke="black" points="4082.2,-212.83 4089.95,-205.61 4079.39,-206.42 4082.2,-212.83"/>
</g>
<!-- Node0x5581d1c78a20 -->
<g id="node30" class="node">
<title>Node0x5581d1c78a20</title>
<polygon fill="none" stroke="black" points="1618,-96.5 1618,-132.5 1762,-132.5 1762,-96.5 1618,-96.5"/>
<text text-anchor="middle" x="1690" y="-110.8" font-family="Times,serif" font-size="14.00">lib/libLLVMCore.a</text>
</g>
<!-- Node0x5581d1c78a20&#45;&gt;Node0x5581d1c71860 -->
<g id="edge30" class="edge">
<title>Node0x5581d1c78a20&#45;&gt;Node0x5581d1c71860</title>
<path fill="none" stroke="black" d="M1762.39,-97.66C1765.29,-97.09 1768.17,-96.53 1771,-96 1850.57,-80.98 1941.4,-66.49 2007.76,-56.38"/>
<polygon fill="black" stroke="black" points="2008.42,-59.82 2017.78,-54.86 2007.37,-52.9 2008.42,-59.82"/>
</g>
<!-- Node0x5581d1c76938 -->
<g id="node31" class="node">
<title>Node0x5581d1c76938</title>
<polygon fill="none" stroke="black" points="4447,-242.5 4447,-278.5 4591,-278.5 4591,-242.5 4447,-242.5"/>
<text text-anchor="middle" x="4519" y="-256.8" font-family="Times,serif" font-size="14.00">lib/libLLVMCore.a</text>
</g>
<!-- Node0x5581d1c6c928 -->
<g id="node32" class="node">
<title>Node0x5581d1c6c928</title>
<polygon fill="none" stroke="black" points="4435,-169.5 4435,-205.5 4603,-205.5 4603,-169.5 4435,-169.5"/>
<text text-anchor="middle" x="4519" y="-183.8" font-family="Times,serif" font-size="14.00">lib/libLLVMSupport.a</text>
</g>
<!-- Node0x5581d1c76938&#45;&gt;Node0x5581d1c6c928 -->
<g id="edge31" class="edge">
<title>Node0x5581d1c76938&#45;&gt;Node0x5581d1c6c928</title>
<path fill="none" stroke="black" d="M4519,-242.31C4519,-234.29 4519,-224.55 4519,-215.57"/>
<polygon fill="black" stroke="black" points="4522.5,-215.53 4519,-205.53 4515.5,-215.53 4522.5,-215.53"/>
</g>
<!-- Node0x5581d1c76ba8 -->
<g id="node33" class="node">
<title>Node0x5581d1c76ba8</title>
<polygon fill="none" stroke="black" points="1780,-96.5 1780,-132.5 1924,-132.5 1924,-96.5 1780,-96.5"/>
<text text-anchor="middle" x="1852" y="-110.8" font-family="Times,serif" font-size="14.00">lib/libLLVMCore.a</text>
</g>
<!-- Node0x5581d1c76ba8&#45;&gt;Node0x5581d1c71860 -->
<g id="edge32" class="edge">
<title>Node0x5581d1c76ba8&#45;&gt;Node0x5581d1c71860</title>
<path fill="none" stroke="black" d="M1911.88,-96.49C1947.95,-86.25 1994.05,-73.16 2031.83,-62.43"/>
<polygon fill="black" stroke="black" points="2033.08,-65.71 2041.74,-59.61 2031.17,-58.98 2033.08,-65.71"/>
</g>
<!-- Node0x5581d1c763f0 -->
<g id="node34" class="node">
<title>Node0x5581d1c763f0</title>
<polygon fill="none" stroke="black" points="2959,-242.5 2959,-278.5 3103,-278.5 3103,-242.5 2959,-242.5"/>
<text text-anchor="middle" x="3031" y="-256.8" font-family="Times,serif" font-size="14.00">lib/libLLVMCore.a</text>
</g>
<!-- Node0x5581d1c763f0&#45;&gt;Node0x5581d1c6c448 -->
<g id="edge33" class="edge">
<title>Node0x5581d1c763f0&#45;&gt;Node0x5581d1c6c448</title>
<path fill="none" stroke="black" d="M2965.37,-242.49C2925.5,-232.16 2874.45,-218.93 2832.85,-208.16"/>
<polygon fill="black" stroke="black" points="2833.6,-204.73 2823.04,-205.61 2831.85,-211.51 2833.6,-204.73"/>
</g>
<!-- Node0x5581d1c6f6a8 -->
<g id="node35" class="node">
<title>Node0x5581d1c6f6a8</title>
<polygon fill="none" stroke="black" points="1942,-96.5 1942,-132.5 2086,-132.5 2086,-96.5 1942,-96.5"/>
<text text-anchor="middle" x="2014" y="-110.8" font-family="Times,serif" font-size="14.00">lib/libLLVMCore.a</text>
</g>
<!-- Node0x5581d1c6f6a8&#45;&gt;Node0x5581d1c71860 -->
<g id="edge34" class="edge">
<title>Node0x5581d1c6f6a8&#45;&gt;Node0x5581d1c71860</title>
<path fill="none" stroke="black" d="M2035.3,-96.31C2046.65,-87.16 2060.78,-75.76 2073.1,-65.82"/>
<polygon fill="black" stroke="black" points="2075.31,-68.53 2080.89,-59.53 2070.91,-63.08 2075.31,-68.53"/>
</g>
<!-- Node0x5581d1c792a8 -->
<g id="node36" class="node">
<title>Node0x5581d1c792a8</title>
<polygon fill="none" stroke="black" points="4057,-242.5 4057,-278.5 4201,-278.5 4201,-242.5 4057,-242.5"/>
<text text-anchor="middle" x="4129" y="-256.8" font-family="Times,serif" font-size="14.00">lib/libLLVMCore.a</text>
</g>
<!-- Node0x5581d1c792a8&#45;&gt;Node0x5581d1c6e390 -->
<g id="edge35" class="edge">
<title>Node0x5581d1c792a8&#45;&gt;Node0x5581d1c6e390</title>
<path fill="none" stroke="black" d="M4129,-242.31C4129,-234.29 4129,-224.55 4129,-215.57"/>
<polygon fill="black" stroke="black" points="4132.5,-215.53 4129,-205.53 4125.5,-215.53 4132.5,-215.53"/>
</g>
<!-- Node0x5581d1c738e0 -->
<g id="node37" class="node">
<title>Node0x5581d1c738e0</title>
<polygon fill="none" stroke="black" points="4633,-242.5 4633,-278.5 4801,-278.5 4801,-242.5 4633,-242.5"/>
<text text-anchor="middle" x="4717" y="-256.8" font-family="Times,serif" font-size="14.00">lib/libLLVMSupport.a</text>
</g>
<!-- Node0x5581d1c73058 -->
<g id="node38" class="node">
<title>Node0x5581d1c73058</title>
<polygon fill="none" stroke="black" points="4621.5,-169.5 4621.5,-205.5 4812.5,-205.5 4812.5,-169.5 4621.5,-169.5"/>
<text text-anchor="middle" x="4717" y="-183.8" font-family="Times,serif" font-size="14.00">lib/libLLVMProfileData.a</text>
</g>
<!-- Node0x5581d1c738e0&#45;&gt;Node0x5581d1c73058 -->
<g id="edge36" class="edge">
<title>Node0x5581d1c738e0&#45;&gt;Node0x5581d1c73058</title>
<path fill="none" stroke="black" d="M4717,-242.31C4717,-234.29 4717,-224.55 4717,-215.57"/>
<polygon fill="black" stroke="black" points="4720.5,-215.53 4717,-205.53 4713.5,-215.53 4720.5,-215.53"/>
</g>
<!-- Node0x5581d1c75620 -->
<g id="node39" class="node">
<title>Node0x5581d1c75620</title>
<polygon fill="none" stroke="black" points="1725,-169.5 1725,-205.5 1869,-205.5 1869,-169.5 1725,-169.5"/>
<text text-anchor="middle" x="1797" y="-183.8" font-family="Times,serif" font-size="14.00">lib/libLLVMCore.a</text>
</g>
<!-- Node0x5581d1c75620&#45;&gt;Node0x5581d1c6da38 -->
<g id="edge37" class="edge">
<title>Node0x5581d1c75620&#45;&gt;Node0x5581d1c6da38</title>
<path fill="none" stroke="black" d="M1724.67,-170.33C1721.75,-169.85 1718.85,-169.4 1716,-169 1647.71,-159.39 1206.18,-132.66 1009.39,-121.03"/>
<polygon fill="black" stroke="black" points="1009.54,-117.53 999.36,-120.43 1009.13,-124.52 1009.54,-117.53"/>
</g>
<!-- Node0x5581d1c75620&#45;&gt;Node0x5581d1c737a8 -->
<g id="edge38" class="edge">
<title>Node0x5581d1c75620&#45;&gt;Node0x5581d1c737a8</title>
<path fill="none" stroke="black" d="M1724.64,-170.52C1721.73,-169.99 1718.84,-169.48 1716,-169 1588.94,-147.57 1553.27,-152.82 1422.05,-133.1"/>
<polygon fill="black" stroke="black" points="1422.43,-129.62 1412.01,-131.57 1421.37,-136.54 1422.43,-129.62"/>
</g>
<!-- Node0x5581d1c72f20 -->
<g id="node40" class="node">
<title>Node0x5581d1c72f20</title>
<polygon fill="none" stroke="black" points="2104.5,-96.5 2104.5,-132.5 2277.5,-132.5 2277.5,-96.5 2104.5,-96.5"/>
<text text-anchor="middle" x="2191" y="-110.8" font-family="Times,serif" font-size="14.00">lib/libLLVMRemarks.a</text>
</g>
<!-- Node0x5581d1c72f20&#45;&gt;Node0x5581d1c71860 -->
<g id="edge39" class="edge">
<title>Node0x5581d1c72f20&#45;&gt;Node0x5581d1c71860</title>
<path fill="none" stroke="black" d="M2169.46,-96.31C2157.98,-87.16 2143.69,-75.76 2131.23,-65.82"/>
<polygon fill="black" stroke="black" points="2133.35,-63.03 2123.35,-59.53 2128.98,-68.5 2133.35,-63.03"/>
</g>
<!-- Node0x5581d1c71c70 -->
<g id="node41" class="node">
<title>Node0x5581d1c71c70</title>
<polygon fill="none" stroke="black" points="2335.5,-242.5 2335.5,-278.5 2566.5,-278.5 2566.5,-242.5 2335.5,-242.5"/>
<text text-anchor="middle" x="2451" y="-256.8" font-family="Times,serif" font-size="14.00">lib/libLLVMBitstreamReader.a</text>
</g>
<!-- Node0x5581d1c71c70&#45;&gt;Node0x5581d1c6c448 -->
<g id="edge40" class="edge">
<title>Node0x5581d1c71c70&#45;&gt;Node0x5581d1c6c448</title>
<path fill="none" stroke="black" d="M2524.29,-242.49C2569.28,-232.06 2627.01,-218.66 2673.72,-207.82"/>
<polygon fill="black" stroke="black" points="2674.56,-211.22 2683.51,-205.55 2672.98,-204.4 2674.56,-211.22"/>
</g>
<!-- Node0x5581d1c71fb0 -->
<g id="node42" class="node">
<title>Node0x5581d1c71fb0</title>
<polygon fill="none" stroke="black" points="2295.5,-96.5 2295.5,-132.5 2430.5,-132.5 2430.5,-96.5 2295.5,-96.5"/>
<text text-anchor="middle" x="2363" y="-110.8" font-family="Times,serif" font-size="14.00">lib/libLLVMMC.a</text>
</g>
<!-- Node0x5581d1c71fb0&#45;&gt;Node0x5581d1c71860 -->
<g id="edge41" class="edge">
<title>Node0x5581d1c71fb0&#45;&gt;Node0x5581d1c71860</title>
<path fill="none" stroke="black" d="M2300.48,-96.49C2262.67,-86.21 2214.29,-73.05 2174.76,-62.29"/>
<polygon fill="black" stroke="black" points="2175.48,-58.86 2164.91,-59.61 2173.64,-65.62 2175.48,-58.86"/>
</g>
<!-- Node0x5581d1c6e258 -->
<g id="node43" class="node">
<title>Node0x5581d1c6e258</title>
<polygon fill="none" stroke="black" points="4219.5,-242.5 4219.5,-278.5 4428.5,-278.5 4428.5,-242.5 4219.5,-242.5"/>
<text text-anchor="middle" x="4324" y="-256.8" font-family="Times,serif" font-size="14.00">lib/libLLVMBinaryFormat.a</text>
</g>
<!-- Node0x5581d1c6e258&#45;&gt;Node0x5581d1c6e390 -->
<g id="edge42" class="edge">
<title>Node0x5581d1c6e258&#45;&gt;Node0x5581d1c6e390</title>
<path fill="none" stroke="black" d="M4277.29,-242.49C4249.76,-232.47 4214.72,-219.71 4185.62,-209.12"/>
<polygon fill="black" stroke="black" points="4186.6,-205.75 4176,-205.61 4184.2,-212.32 4186.6,-205.75"/>
</g>
</g>
</svg>
