<?xml version="1.0" encoding="UTF-8" standalone="no"?>
<!DOCTYPE svg PUBLIC "-//W3C//DTD SVG 1.1//EN"
 "http://www.w3.org/Graphics/SVG/1.1/DTD/svg11.dtd">
<!-- Generated by graphviz version 2.43.0 (0)
 -->
<!-- Title: bin/llvm&#45;mc Pages: 1 -->
<svg width="2300pt" height="287pt"
 viewBox="0.00 0.00 2299.50 287.00" xmlns="http://www.w3.org/2000/svg" xmlns:xlink="http://www.w3.org/1999/xlink">
<g id="graph0" class="graph" transform="scale(1 1) rotate(0) translate(4 283)">
<title>bin/llvm&#45;mc</title>
<polygon fill="white" stroke="transparent" points="-4,4 -4,-283 2295.5,-283 2295.5,4 -4,4"/>
<text text-anchor="middle" x="1145.75" y="-7.8" font-family="Times,serif" font-size="14.00">bin/llvm&#45;mc</text>
<!-- Node0x55a0afc2ce18 -->
<g id="node1" class="node">
<title>Node0x55a0afc2ce18</title>
<polygon fill="none" stroke="black" points="1049.5,-242.5 1049.5,-278.5 1438.5,-278.5 1438.5,-242.5 1049.5,-242.5"/>
<text text-anchor="middle" x="1244" y="-256.8" font-family="Times,serif" font-size="14.00">tools/llvm&#45;mc/CMakeFiles/llvm&#45;mc.dir/llvm&#45;mc.cpp.o</text>
</g>
<!-- Node0x55a0afc2d840 -->
<g id="node2" class="node">
<title>Node0x55a0afc2d840</title>
<polygon fill="none" stroke="black" points="460,-169.5 460,-205.5 888,-205.5 888,-169.5 460,-169.5"/>
<text text-anchor="middle" x="674" y="-183.8" font-family="Times,serif" font-size="14.00">tools/llvm&#45;mc/CMakeFiles/llvm&#45;mc.dir/Disassembler.cpp.o</text>
</g>
<!-- Node0x55a0afc2ce18&#45;&gt;Node0x55a0afc2d840 -->
<g id="edge1" class="edge">
<title>Node0x55a0afc2ce18&#45;&gt;Node0x55a0afc2d840</title>
<path fill="none" stroke="black" d="M1107.47,-242.49C1021.05,-231.73 909.37,-217.82 821.01,-206.81"/>
<polygon fill="black" stroke="black" points="821.25,-203.31 810.9,-205.55 820.39,-210.26 821.25,-203.31"/>
</g>
<!-- Node0x55a0afc2bd08 -->
<g id="node3" class="node">
<title>Node0x55a0afc2bd08</title>
<polygon fill="none" stroke="black" points="944,-169.5 944,-205.5 1158,-205.5 1158,-169.5 944,-169.5"/>
<text text-anchor="middle" x="1051" y="-183.8" font-family="Times,serif" font-size="14.00">lib/libLLVMX86AsmParser.a</text>
</g>
<!-- Node0x55a0afc2ce18&#45;&gt;Node0x55a0afc2bd08 -->
<g id="edge2" class="edge">
<title>Node0x55a0afc2ce18&#45;&gt;Node0x55a0afc2bd08</title>
<path fill="none" stroke="black" d="M1191.91,-242.49C1163.72,-232.51 1129.11,-219.82 1101.22,-209.26"/>
<polygon fill="black" stroke="black" points="1102.24,-205.9 1091.65,-205.61 1099.75,-212.44 1102.24,-205.9"/>
</g>
<!-- Node0x55a0afc2a648 -->
<g id="node4" class="node">
<title>Node0x55a0afc2a648</title>
<polygon fill="none" stroke="black" points="1214.5,-169.5 1214.5,-205.5 1387.5,-205.5 1387.5,-169.5 1214.5,-169.5"/>
<text text-anchor="middle" x="1301" y="-183.8" font-family="Times,serif" font-size="14.00">lib/libLLVMX86Desc.a</text>
</g>
<!-- Node0x55a0afc2ce18&#45;&gt;Node0x55a0afc2a648 -->
<g id="edge3" class="edge">
<title>Node0x55a0afc2ce18&#45;&gt;Node0x55a0afc2a648</title>
<path fill="none" stroke="black" d="M1257.8,-242.31C1264.73,-233.68 1273.26,-223.06 1280.9,-213.53"/>
<polygon fill="black" stroke="black" points="1283.8,-215.52 1287.33,-205.53 1278.34,-211.14 1283.8,-215.52"/>
</g>
<!-- Node0x55a0afc2bb68 -->
<g id="node5" class="node">
<title>Node0x55a0afc2bb68</title>
<polygon fill="none" stroke="black" points="1405.5,-169.5 1405.5,-205.5 1540.5,-205.5 1540.5,-169.5 1405.5,-169.5"/>
<text text-anchor="middle" x="1473" y="-183.8" font-family="Times,serif" font-size="14.00">lib/libLLVMMC.a</text>
</g>
<!-- Node0x55a0afc2ce18&#45;&gt;Node0x55a0afc2bb68 -->
<g id="edge4" class="edge">
<title>Node0x55a0afc2ce18&#45;&gt;Node0x55a0afc2bb68</title>
<path fill="none" stroke="black" d="M1298.85,-242.49C1331.61,-232.34 1373.4,-219.38 1407.84,-208.7"/>
<polygon fill="black" stroke="black" points="1409.29,-211.92 1417.8,-205.61 1407.21,-205.23 1409.29,-211.92"/>
</g>
<!-- Node0x55a0afc2b418 -->
<g id="node6" class="node">
<title>Node0x55a0afc2b418</title>
<polygon fill="none" stroke="black" points="208.5,-169.5 208.5,-205.5 441.5,-205.5 441.5,-169.5 208.5,-169.5"/>
<text text-anchor="middle" x="325" y="-183.8" font-family="Times,serif" font-size="14.00">lib/libLLVMX86Disassembler.a</text>
</g>
<!-- Node0x55a0afc2ce18&#45;&gt;Node0x55a0afc2b418 -->
<g id="edge5" class="edge">
<title>Node0x55a0afc2ce18&#45;&gt;Node0x55a0afc2b418</title>
<path fill="none" stroke="black" d="M1049.36,-250.21C891.14,-241.75 661.95,-227.44 451.66,-206.02"/>
<polygon fill="black" stroke="black" points="451.97,-202.54 441.67,-205 451.26,-209.5 451.97,-202.54"/>
</g>
<!-- Node0x55a0afc2cba8 -->
<g id="node7" class="node">
<title>Node0x55a0afc2cba8</title>
<polygon fill="none" stroke="black" points="645,-96.5 645,-132.5 811,-132.5 811,-96.5 645,-96.5"/>
<text text-anchor="middle" x="728" y="-110.8" font-family="Times,serif" font-size="14.00">lib/libLLVMX86Info.a</text>
</g>
<!-- Node0x55a0afc2ce18&#45;&gt;Node0x55a0afc2cba8 -->
<g id="edge6" class="edge">
<title>Node0x55a0afc2ce18&#45;&gt;Node0x55a0afc2cba8</title>
<path fill="none" stroke="black" d="M1049.1,-244.01C1009.91,-235.92 970.04,-223.88 935,-206 914,-195.29 917.23,-181.11 897,-169 872.78,-154.5 844.21,-143.52 817.53,-135.41"/>
<polygon fill="black" stroke="black" points="818.38,-132.01 807.8,-132.54 816.4,-138.72 818.38,-132.01"/>
</g>
<!-- Node0x55a0afc29ef8 -->
<g id="node8" class="node">
<title>Node0x55a0afc29ef8</title>
<polygon fill="none" stroke="black" points="1597.5,-169.5 1597.5,-205.5 1732.5,-205.5 1732.5,-169.5 1597.5,-169.5"/>
<text text-anchor="middle" x="1665" y="-183.8" font-family="Times,serif" font-size="14.00">lib/libLLVMMC.a</text>
</g>
<!-- Node0x55a0afc2ce18&#45;&gt;Node0x55a0afc29ef8 -->
<g id="edge7" class="edge">
<title>Node0x55a0afc2ce18&#45;&gt;Node0x55a0afc29ef8</title>
<path fill="none" stroke="black" d="M1361.93,-242.48C1427.23,-232.66 1509.77,-219.58 1583,-206 1584.48,-205.73 1585.97,-205.45 1587.47,-205.16"/>
<polygon fill="black" stroke="black" points="1588.34,-208.56 1597.49,-203.21 1587,-201.69 1588.34,-208.56"/>
</g>
<!-- Node0x55a0afc2e060 -->
<g id="node9" class="node">
<title>Node0x55a0afc2e060</title>
<polygon fill="none" stroke="black" points="1751,-169.5 1751,-205.5 1931,-205.5 1931,-169.5 1751,-169.5"/>
<text text-anchor="middle" x="1841" y="-183.8" font-family="Times,serif" font-size="14.00">lib/libLLVMMCParser.a</text>
</g>
<!-- Node0x55a0afc2ce18&#45;&gt;Node0x55a0afc2e060 -->
<g id="edge8" class="edge">
<title>Node0x55a0afc2ce18&#45;&gt;Node0x55a0afc2e060</title>
<path fill="none" stroke="black" d="M1421.26,-242.48C1513.96,-233.14 1629.2,-220.51 1732,-206 1734.86,-205.6 1737.77,-205.17 1740.71,-204.73"/>
<polygon fill="black" stroke="black" points="1741.43,-208.16 1750.78,-203.18 1740.36,-201.24 1741.43,-208.16"/>
</g>
<!-- Node0x55a0afc2c5f8 -->
<g id="node10" class="node">
<title>Node0x55a0afc2c5f8</title>
<polygon fill="none" stroke="black" points="1386,-96.5 1386,-132.5 1554,-132.5 1554,-96.5 1386,-96.5"/>
<text text-anchor="middle" x="1470" y="-110.8" font-family="Times,serif" font-size="14.00">lib/libLLVMSupport.a</text>
</g>
<!-- Node0x55a0afc2ce18&#45;&gt;Node0x55a0afc2c5f8 -->
<g id="edge9" class="edge">
<title>Node0x55a0afc2ce18&#45;&gt;Node0x55a0afc2c5f8</title>
<path fill="none" stroke="black" d="M1438.75,-245.21C1488.75,-237.31 1533.01,-225.04 1549,-206 1559.58,-193.41 1556.71,-183.53 1549,-169 1542.25,-156.28 1530.98,-146.04 1519.04,-138.04"/>
<polygon fill="black" stroke="black" points="1520.62,-134.91 1510.28,-132.62 1516.94,-140.86 1520.62,-134.91"/>
</g>
<!-- Node0x55a0afc2e200 -->
<g id="node11" class="node">
<title>Node0x55a0afc2e200</title>
<polygon fill="none" stroke="black" points="459,-96.5 459,-132.5 627,-132.5 627,-96.5 459,-96.5"/>
<text text-anchor="middle" x="543" y="-110.8" font-family="Times,serif" font-size="14.00">lib/libLLVMSupport.a</text>
</g>
<!-- Node0x55a0afc2d840&#45;&gt;Node0x55a0afc2e200 -->
<g id="edge10" class="edge">
<title>Node0x55a0afc2d840&#45;&gt;Node0x55a0afc2e200</title>
<path fill="none" stroke="black" d="M642.62,-169.49C624.93,-159.9 602.63,-147.82 583.61,-137.51"/>
<polygon fill="black" stroke="black" points="585.04,-134.3 574.58,-132.61 581.7,-140.46 585.04,-134.3"/>
</g>
<!-- Node0x55a0afc2bd08&#45;&gt;Node0x55a0afc2ce18 -->
<g id="edge11" class="edge">
<title>Node0x55a0afc2bd08&#45;&gt;Node0x55a0afc2ce18</title>
<path fill="none" stroke="black" d="M1103.39,-205.61C1131.63,-215.61 1166.23,-228.31 1194.08,-238.86"/>
<polygon fill="black" stroke="black" points="1193.04,-242.21 1203.63,-242.49 1195.53,-235.66 1193.04,-242.21"/>
</g>
<!-- Node0x55a0afc2bd08&#45;&gt;Node0x55a0afc2cba8 -->
<g id="edge13" class="edge">
<title>Node0x55a0afc2bd08&#45;&gt;Node0x55a0afc2cba8</title>
<path fill="none" stroke="black" d="M973.63,-169.49C926.05,-159.03 864.96,-145.61 815.6,-134.76"/>
<polygon fill="black" stroke="black" points="816.09,-131.28 805.57,-132.55 814.59,-138.12 816.09,-131.28"/>
</g>
<!-- Node0x55a0afc2bd08&#45;&gt;Node0x55a0afc2c5f8 -->
<g id="edge16" class="edge">
<title>Node0x55a0afc2bd08&#45;&gt;Node0x55a0afc2c5f8</title>
<path fill="none" stroke="black" d="M1151.36,-169.49C1219.52,-157.94 1309.07,-142.77 1375.88,-131.45"/>
<polygon fill="black" stroke="black" points="1376.71,-134.86 1385.98,-129.74 1375.54,-127.96 1376.71,-134.86"/>
</g>
<!-- Node0x55a0afc2b0d8 -->
<g id="node12" class="node">
<title>Node0x55a0afc2b0d8</title>
<polygon fill="none" stroke="black" points="1181.5,-96.5 1181.5,-132.5 1354.5,-132.5 1354.5,-96.5 1181.5,-96.5"/>
<text text-anchor="middle" x="1268" y="-110.8" font-family="Times,serif" font-size="14.00">lib/libLLVMX86Desc.a</text>
</g>
<!-- Node0x55a0afc2bd08&#45;&gt;Node0x55a0afc2b0d8 -->
<g id="edge12" class="edge">
<title>Node0x55a0afc2bd08&#45;&gt;Node0x55a0afc2b0d8</title>
<path fill="none" stroke="black" d="M1102.98,-169.49C1133.88,-159.38 1173.28,-146.49 1205.83,-135.84"/>
<polygon fill="black" stroke="black" points="1207.28,-139.05 1215.7,-132.61 1205.1,-132.4 1207.28,-139.05"/>
</g>
<!-- Node0x55a0afc2cb40 -->
<g id="node13" class="node">
<title>Node0x55a0afc2cb40</title>
<polygon fill="none" stroke="black" points="829.5,-96.5 829.5,-132.5 964.5,-132.5 964.5,-96.5 829.5,-96.5"/>
<text text-anchor="middle" x="897" y="-110.8" font-family="Times,serif" font-size="14.00">lib/libLLVMMC.a</text>
</g>
<!-- Node0x55a0afc2bd08&#45;&gt;Node0x55a0afc2cb40 -->
<g id="edge14" class="edge">
<title>Node0x55a0afc2bd08&#45;&gt;Node0x55a0afc2cb40</title>
<path fill="none" stroke="black" d="M1014.11,-169.49C992.84,-159.69 965.9,-147.27 943.22,-136.81"/>
<polygon fill="black" stroke="black" points="944.67,-133.62 934.12,-132.61 941.74,-139.98 944.67,-133.62"/>
</g>
<!-- Node0x55a0afc27fb0 -->
<g id="node14" class="node">
<title>Node0x55a0afc27fb0</title>
<polygon fill="none" stroke="black" points="983,-96.5 983,-132.5 1163,-132.5 1163,-96.5 983,-96.5"/>
<text text-anchor="middle" x="1073" y="-110.8" font-family="Times,serif" font-size="14.00">lib/libLLVMMCParser.a</text>
</g>
<!-- Node0x55a0afc2bd08&#45;&gt;Node0x55a0afc27fb0 -->
<g id="edge15" class="edge">
<title>Node0x55a0afc2bd08&#45;&gt;Node0x55a0afc27fb0</title>
<path fill="none" stroke="black" d="M1056.33,-169.31C1058.84,-161.2 1061.9,-151.34 1064.7,-142.28"/>
<polygon fill="black" stroke="black" points="1068.11,-143.12 1067.72,-132.53 1061.42,-141.04 1068.11,-143.12"/>
</g>
<!-- Node0x55a0afc2b418&#45;&gt;Node0x55a0afc2cba8 -->
<g id="edge17" class="edge">
<title>Node0x55a0afc2b418&#45;&gt;Node0x55a0afc2cba8</title>
<path fill="none" stroke="black" d="M426.63,-169.48C484.81,-159.63 559.45,-146.8 634.64,-133.23"/>
<polygon fill="black" stroke="black" points="635.55,-136.62 644.77,-131.4 634.3,-129.74 635.55,-136.62"/>
</g>
<!-- Node0x55a0afc2a988 -->
<g id="node15" class="node">
<title>Node0x55a0afc2a988</title>
<polygon fill="none" stroke="black" points="248,-96.5 248,-132.5 416,-132.5 416,-96.5 248,-96.5"/>
<text text-anchor="middle" x="332" y="-110.8" font-family="Times,serif" font-size="14.00">lib/libLLVMSupport.a</text>
</g>
<!-- Node0x55a0afc2b418&#45;&gt;Node0x55a0afc2a988 -->
<g id="edge18" class="edge">
<title>Node0x55a0afc2b418&#45;&gt;Node0x55a0afc2a988</title>
<path fill="none" stroke="black" d="M326.69,-169.31C327.49,-161.29 328.45,-151.55 329.33,-142.57"/>
<polygon fill="black" stroke="black" points="332.82,-142.82 330.32,-132.53 325.86,-142.14 332.82,-142.82"/>
</g>
<!-- Node0x55a0afc2cad8 -->
<g id="node16" class="node">
<title>Node0x55a0afc2cad8</title>
<polygon fill="none" stroke="black" points="0,-96.5 0,-132.5 230,-132.5 230,-96.5 0,-96.5"/>
<text text-anchor="middle" x="115" y="-110.8" font-family="Times,serif" font-size="14.00">lib/libLLVMMCDisassembler.a</text>
</g>
<!-- Node0x55a0afc2b418&#45;&gt;Node0x55a0afc2cad8 -->
<g id="edge19" class="edge">
<title>Node0x55a0afc2b418&#45;&gt;Node0x55a0afc2cad8</title>
<path fill="none" stroke="black" d="M274.7,-169.49C244.79,-159.38 206.66,-146.49 175.16,-135.84"/>
<polygon fill="black" stroke="black" points="176.21,-132.5 165.62,-132.61 173.97,-139.13 176.21,-132.5"/>
</g>
<!-- Node0x55a0afc2a510 -->
<g id="node17" class="node">
<title>Node0x55a0afc2a510</title>
<polygon fill="none" stroke="black" points="644,-23.5 644,-59.5 812,-59.5 812,-23.5 644,-23.5"/>
<text text-anchor="middle" x="728" y="-37.8" font-family="Times,serif" font-size="14.00">lib/libLLVMSupport.a</text>
</g>
<!-- Node0x55a0afc2cba8&#45;&gt;Node0x55a0afc2a510 -->
<g id="edge20" class="edge">
<title>Node0x55a0afc2cba8&#45;&gt;Node0x55a0afc2a510</title>
<path fill="none" stroke="black" d="M728,-96.31C728,-88.29 728,-78.55 728,-69.57"/>
<polygon fill="black" stroke="black" points="731.5,-69.53 728,-59.53 724.5,-69.53 731.5,-69.53"/>
</g>
<!-- Node0x55a0afc2c798 -->
<g id="node18" class="node">
<title>Node0x55a0afc2c798</title>
<polygon fill="none" stroke="black" points="1572.5,-96.5 1572.5,-132.5 1745.5,-132.5 1745.5,-96.5 1572.5,-96.5"/>
<text text-anchor="middle" x="1659" y="-110.8" font-family="Times,serif" font-size="14.00">lib/libLLVMX86Desc.a</text>
</g>
<!-- Node0x55a0afc29ef8&#45;&gt;Node0x55a0afc2c798 -->
<g id="edge21" class="edge">
<title>Node0x55a0afc29ef8&#45;&gt;Node0x55a0afc2c798</title>
<path fill="none" stroke="black" d="M1663.55,-169.31C1662.87,-161.29 1662.05,-151.55 1661.29,-142.57"/>
<polygon fill="black" stroke="black" points="1664.77,-142.2 1660.44,-132.53 1657.79,-142.79 1664.77,-142.2"/>
</g>
<!-- Node0x55a0afc289d8 -->
<g id="node19" class="node">
<title>Node0x55a0afc289d8</title>
<polygon fill="none" stroke="black" points="1764,-96.5 1764,-132.5 1932,-132.5 1932,-96.5 1764,-96.5"/>
<text text-anchor="middle" x="1848" y="-110.8" font-family="Times,serif" font-size="14.00">lib/libLLVMSupport.a</text>
</g>
<!-- Node0x55a0afc29ef8&#45;&gt;Node0x55a0afc289d8 -->
<g id="edge22" class="edge">
<title>Node0x55a0afc29ef8&#45;&gt;Node0x55a0afc289d8</title>
<path fill="none" stroke="black" d="M1708.83,-169.49C1734.56,-159.51 1767.26,-146.82 1794.5,-136.26"/>
<polygon fill="black" stroke="black" points="1795.83,-139.49 1803.89,-132.61 1793.3,-132.97 1795.83,-139.49"/>
</g>
<!-- Node0x55a0afc2e060&#45;&gt;Node0x55a0afc2ce18 -->
<g id="edge23" class="edge">
<title>Node0x55a0afc2e060&#45;&gt;Node0x55a0afc2ce18</title>
<path fill="none" stroke="black" d="M1753.42,-205.51C1752.28,-205.68 1751.13,-205.84 1750,-206 1650.82,-220 1540.04,-232.25 1447.47,-241.49"/>
<polygon fill="black" stroke="black" points="1447.03,-238.01 1437.42,-242.48 1447.72,-244.98 1447.03,-238.01"/>
</g>
<!-- Node0x55a0afc2e060&#45;&gt;Node0x55a0afc2c5f8 -->
<g id="edge25" class="edge">
<title>Node0x55a0afc2e060&#45;&gt;Node0x55a0afc2c5f8</title>
<path fill="none" stroke="black" d="M1752.14,-169.49C1695.29,-158.62 1621.66,-144.52 1563.86,-133.46"/>
<polygon fill="black" stroke="black" points="1564.48,-130.02 1554,-131.58 1563.16,-136.89 1564.48,-130.02"/>
</g>
<!-- Node0x55a0afc2e4d8 -->
<g id="node20" class="node">
<title>Node0x55a0afc2e4d8</title>
<polygon fill="none" stroke="black" points="1950.5,-96.5 1950.5,-132.5 2085.5,-132.5 2085.5,-96.5 1950.5,-96.5"/>
<text text-anchor="middle" x="2018" y="-110.8" font-family="Times,serif" font-size="14.00">lib/libLLVMMC.a</text>
</g>
<!-- Node0x55a0afc2e060&#45;&gt;Node0x55a0afc2e4d8 -->
<g id="edge24" class="edge">
<title>Node0x55a0afc2e060&#45;&gt;Node0x55a0afc2e4d8</title>
<path fill="none" stroke="black" d="M1883.4,-169.49C1908.17,-159.56 1939.64,-146.93 1965.91,-136.39"/>
<polygon fill="black" stroke="black" points="1967.36,-139.58 1975.34,-132.61 1964.75,-133.09 1967.36,-139.58"/>
</g>
<!-- Node0x55a0afc2b0d8&#45;&gt;Node0x55a0afc2ce18 -->
<g id="edge26" class="edge">
<title>Node0x55a0afc2b0d8&#45;&gt;Node0x55a0afc2ce18</title>
<path fill="none" stroke="black" d="M1238.02,-132.68C1225.35,-141.71 1211.93,-154.02 1205,-169 1198.09,-183.92 1199.91,-190.36 1205,-206 1208.31,-216.16 1214.36,-226 1220.73,-234.41"/>
<polygon fill="black" stroke="black" points="1218.1,-236.73 1227.11,-242.31 1223.54,-232.33 1218.1,-236.73"/>
</g>
<!-- Node0x55a0afc2cd48 -->
<g id="node21" class="node">
<title>Node0x55a0afc2cd48</title>
<polygon fill="none" stroke="black" points="1285.5,-23.5 1285.5,-59.5 1420.5,-59.5 1420.5,-23.5 1285.5,-23.5"/>
<text text-anchor="middle" x="1353" y="-37.8" font-family="Times,serif" font-size="14.00">lib/libLLVMMC.a</text>
</g>
<!-- Node0x55a0afc2b0d8&#45;&gt;Node0x55a0afc2cd48 -->
<g id="edge27" class="edge">
<title>Node0x55a0afc2b0d8&#45;&gt;Node0x55a0afc2cd48</title>
<path fill="none" stroke="black" d="M1288.58,-96.31C1299.43,-87.24 1312.92,-75.98 1324.75,-66.1"/>
<polygon fill="black" stroke="black" points="1327.18,-68.63 1332.61,-59.53 1322.69,-63.25 1327.18,-68.63"/>
</g>
<!-- Node0x55a0afc28018 -->
<g id="node22" class="node">
<title>Node0x55a0afc28018</title>
<polygon fill="none" stroke="black" points="1099,-23.5 1099,-59.5 1267,-59.5 1267,-23.5 1099,-23.5"/>
<text text-anchor="middle" x="1183" y="-37.8" font-family="Times,serif" font-size="14.00">lib/libLLVMSupport.a</text>
</g>
<!-- Node0x55a0afc2b0d8&#45;&gt;Node0x55a0afc28018 -->
<g id="edge28" class="edge">
<title>Node0x55a0afc2b0d8&#45;&gt;Node0x55a0afc28018</title>
<path fill="none" stroke="black" d="M1247.42,-96.31C1236.57,-87.24 1223.08,-75.98 1211.25,-66.1"/>
<polygon fill="black" stroke="black" points="1213.31,-63.25 1203.39,-59.53 1208.82,-68.63 1213.31,-63.25"/>
</g>
<!-- Node0x55a0afc2a4a8 -->
<g id="node23" class="node">
<title>Node0x55a0afc2a4a8</title>
<polygon fill="none" stroke="black" points="1826,-242.5 1826,-278.5 1994,-278.5 1994,-242.5 1826,-242.5"/>
<text text-anchor="middle" x="1910" y="-256.8" font-family="Times,serif" font-size="14.00">lib/libLLVMSupport.a</text>
</g>
<!-- Node0x55a0afc2a4a8&#45;&gt;Node0x55a0afc2e060 -->
<g id="edge30" class="edge">
<title>Node0x55a0afc2a4a8&#45;&gt;Node0x55a0afc2e060</title>
<path fill="none" stroke="black" d="M1893.3,-242.31C1884.74,-233.5 1874.16,-222.63 1864.77,-212.96"/>
<polygon fill="black" stroke="black" points="1867.03,-210.26 1857.55,-205.53 1862.01,-215.14 1867.03,-210.26"/>
</g>
<!-- Node0x55a0afc29e90 -->
<g id="node24" class="node">
<title>Node0x55a0afc29e90</title>
<polygon fill="none" stroke="black" points="1949.5,-169.5 1949.5,-205.5 2084.5,-205.5 2084.5,-169.5 1949.5,-169.5"/>
<text text-anchor="middle" x="2017" y="-183.8" font-family="Times,serif" font-size="14.00">lib/libLLVMMC.a</text>
</g>
<!-- Node0x55a0afc2a4a8&#45;&gt;Node0x55a0afc29e90 -->
<g id="edge29" class="edge">
<title>Node0x55a0afc2a4a8&#45;&gt;Node0x55a0afc29e90</title>
<path fill="none" stroke="black" d="M1935.63,-242.49C1949.69,-233.17 1967.31,-221.47 1982.55,-211.36"/>
<polygon fill="black" stroke="black" points="1984.81,-214.06 1991.21,-205.61 1980.94,-208.23 1984.81,-214.06"/>
</g>
<!-- Node0x55a0afc2d020 -->
<g id="node25" class="node">
<title>Node0x55a0afc2d020</title>
<polygon fill="none" stroke="black" points="2082.5,-242.5 2082.5,-278.5 2291.5,-278.5 2291.5,-242.5 2082.5,-242.5"/>
<text text-anchor="middle" x="2187" y="-256.8" font-family="Times,serif" font-size="14.00">lib/libLLVMBinaryFormat.a</text>
</g>
<!-- Node0x55a0afc29468 -->
<g id="node26" class="node">
<title>Node0x55a0afc29468</title>
<polygon fill="none" stroke="black" points="2103,-169.5 2103,-205.5 2271,-205.5 2271,-169.5 2103,-169.5"/>
<text text-anchor="middle" x="2187" y="-183.8" font-family="Times,serif" font-size="14.00">lib/libLLVMSupport.a</text>
</g>
<!-- Node0x55a0afc2d020&#45;&gt;Node0x55a0afc29468 -->
<g id="edge31" class="edge">
<title>Node0x55a0afc2d020&#45;&gt;Node0x55a0afc29468</title>
<path fill="none" stroke="black" d="M2187,-242.31C2187,-234.29 2187,-224.55 2187,-215.57"/>
<polygon fill="black" stroke="black" points="2190.5,-215.53 2187,-205.53 2183.5,-215.53 2190.5,-215.53"/>
</g>
</g>
</svg>
