<?xml version="1.0" encoding="UTF-8" standalone="no"?>
<!DOCTYPE svg PUBLIC "-//W3C//DTD SVG 1.1//EN"
 "http://www.w3.org/Graphics/SVG/1.1/DTD/svg11.dtd">
<!-- Generated by graphviz version 2.43.0 (0)
 -->
<!-- Title: bin/llvm&#45;mt Pages: 1 -->
<svg width="467pt" height="287pt"
 viewBox="0.00 0.00 466.50 287.00" xmlns="http://www.w3.org/2000/svg" xmlns:xlink="http://www.w3.org/1999/xlink">
<g id="graph0" class="graph" transform="scale(1 1) rotate(0) translate(4 283)">
<title>bin/llvm&#45;mt</title>
<polygon fill="white" stroke="transparent" points="-4,4 -4,-283 462.5,-283 462.5,4 -4,4"/>
<text text-anchor="middle" x="229.25" y="-7.8" font-family="Times,serif" font-size="14.00">bin/llvm&#45;mt</text>
<!-- Node0x55eea8753160 -->
<g id="node1" class="node">
<title>Node0x55eea8753160</title>
<polygon fill="none" stroke="black" points="0,-169.5 0,-205.5 385,-205.5 385,-169.5 0,-169.5"/>
<text text-anchor="middle" x="192.5" y="-183.8" font-family="Times,serif" font-size="14.00">tools/llvm&#45;mt/CMakeFiles/llvm&#45;mt.dir/llvm&#45;mt.cpp.o</text>
</g>
<!-- Node0x55eea8754af8 -->
<g id="node2" class="node">
<title>Node0x55eea8754af8</title>
<polygon fill="none" stroke="black" points="6.5,-96.5 6.5,-132.5 164.5,-132.5 164.5,-96.5 6.5,-96.5"/>
<text text-anchor="middle" x="85.5" y="-110.8" font-family="Times,serif" font-size="14.00">lib/libLLVMOption.a</text>
</g>
<!-- Node0x55eea8753160&#45;&gt;Node0x55eea8754af8 -->
<g id="edge1" class="edge">
<title>Node0x55eea8753160&#45;&gt;Node0x55eea8754af8</title>
<path fill="none" stroke="black" d="M166.87,-169.49C152.81,-160.17 135.19,-148.47 119.95,-138.36"/>
<polygon fill="black" stroke="black" points="121.56,-135.23 111.29,-132.61 117.69,-141.06 121.56,-135.23"/>
</g>
<!-- Node0x55eea87538b0 -->
<g id="node3" class="node">
<title>Node0x55eea87538b0</title>
<polygon fill="none" stroke="black" points="221.5,-23.5 221.5,-59.5 389.5,-59.5 389.5,-23.5 221.5,-23.5"/>
<text text-anchor="middle" x="305.5" y="-37.8" font-family="Times,serif" font-size="14.00">lib/libLLVMSupport.a</text>
</g>
<!-- Node0x55eea8753160&#45;&gt;Node0x55eea87538b0 -->
<g id="edge2" class="edge">
<title>Node0x55eea8753160&#45;&gt;Node0x55eea87538b0</title>
<path fill="none" stroke="black" d="M192.06,-169.5C192.39,-149.96 195.61,-117.79 211.5,-96 221.21,-82.68 235.32,-72.21 249.66,-64.19"/>
<polygon fill="black" stroke="black" points="251.35,-67.26 258.58,-59.52 248.1,-61.06 251.35,-67.26"/>
</g>
<!-- Node0x55eea87554b8 -->
<g id="node4" class="node">
<title>Node0x55eea87554b8</title>
<polygon fill="none" stroke="black" points="220.5,-96.5 220.5,-132.5 458.5,-132.5 458.5,-96.5 220.5,-96.5"/>
<text text-anchor="middle" x="339.5" y="-110.8" font-family="Times,serif" font-size="14.00">lib/libLLVMWindowsManifest.a</text>
</g>
<!-- Node0x55eea8753160&#45;&gt;Node0x55eea87554b8 -->
<g id="edge3" class="edge">
<title>Node0x55eea8753160&#45;&gt;Node0x55eea87554b8</title>
<path fill="none" stroke="black" d="M227.71,-169.49C247.84,-159.77 273.27,-147.49 294.8,-137.09"/>
<polygon fill="black" stroke="black" points="296.59,-140.11 304.07,-132.61 293.54,-133.81 296.59,-140.11"/>
</g>
<!-- Node0x55eea8755658 -->
<g id="node5" class="node">
<title>Node0x55eea8755658</title>
<polygon fill="none" stroke="black" points="1.5,-23.5 1.5,-59.5 169.5,-59.5 169.5,-23.5 1.5,-23.5"/>
<text text-anchor="middle" x="85.5" y="-37.8" font-family="Times,serif" font-size="14.00">lib/libLLVMSupport.a</text>
</g>
<!-- Node0x55eea8754af8&#45;&gt;Node0x55eea8755658 -->
<g id="edge4" class="edge">
<title>Node0x55eea8754af8&#45;&gt;Node0x55eea8755658</title>
<path fill="none" stroke="black" d="M85.5,-96.31C85.5,-88.29 85.5,-78.55 85.5,-69.57"/>
<polygon fill="black" stroke="black" points="89,-69.53 85.5,-59.53 82,-69.53 89,-69.53"/>
</g>
<!-- Node0x55eea87554b8&#45;&gt;Node0x55eea87538b0 -->
<g id="edge5" class="edge">
<title>Node0x55eea87554b8&#45;&gt;Node0x55eea87538b0</title>
<path fill="none" stroke="black" d="M331.27,-96.31C327.3,-88.03 322.46,-77.91 318.04,-68.69"/>
<polygon fill="black" stroke="black" points="321.13,-67.04 313.65,-59.53 314.82,-70.06 321.13,-67.04"/>
</g>
<!-- Node0x55eea87550a8 -->
<g id="node6" class="node">
<title>Node0x55eea87550a8</title>
<polygon fill="none" stroke="black" points="108.5,-242.5 108.5,-278.5 276.5,-278.5 276.5,-242.5 108.5,-242.5"/>
<text text-anchor="middle" x="192.5" y="-256.8" font-family="Times,serif" font-size="14.00">lib/libLLVMSupport.a</text>
</g>
<!-- Node0x55eea87550a8&#45;&gt;Node0x55eea8753160 -->
<g id="edge6" class="edge">
<title>Node0x55eea87550a8&#45;&gt;Node0x55eea8753160</title>
<path fill="none" stroke="black" d="M192.5,-242.31C192.5,-234.29 192.5,-224.55 192.5,-215.57"/>
<polygon fill="black" stroke="black" points="196,-215.53 192.5,-205.53 189,-215.53 196,-215.53"/>
</g>
</g>
</svg>
