<?xml version="1.0" encoding="UTF-8" standalone="no"?>
<!DOCTYPE svg PUBLIC "-//W3C//DTD SVG 1.1//EN"
 "http://www.w3.org/Graphics/SVG/1.1/DTD/svg11.dtd">
<!-- Generated by graphviz version 2.43.0 (0)
 -->
<!-- Title: bin/llvm&#45;rc Pages: 1 -->
<svg width="1579pt" height="433pt"
 viewBox="0.00 0.00 1579.49 433.00" xmlns="http://www.w3.org/2000/svg" xmlns:xlink="http://www.w3.org/1999/xlink">
<g id="graph0" class="graph" transform="scale(1 1) rotate(0) translate(4 429)">
<title>bin/llvm&#45;rc</title>
<polygon fill="white" stroke="transparent" points="-4,4 -4,-429 1575.49,-429 1575.49,4 -4,4"/>
<text text-anchor="middle" x="785.74" y="-7.8" font-family="Times,serif" font-size="14.00">bin/llvm&#45;rc</text>
<!-- Node0x556ed4b6e068 -->
<g id="node1" class="node">
<title>Node0x556ed4b6e068</title>
<polygon fill="none" stroke="black" points="386.5,-388.5 386.5,-424.5 755.5,-424.5 755.5,-388.5 386.5,-388.5"/>
<text text-anchor="middle" x="571" y="-402.8" font-family="Times,serif" font-size="14.00">tools/llvm&#45;rc/CMakeFiles/llvm&#45;rc.dir/llvm&#45;rc.cpp.o</text>
</g>
<!-- Node0x556ed4b6cf58 -->
<g id="node2" class="node">
<title>Node0x556ed4b6cf58</title>
<polygon fill="none" stroke="black" points="342.5,-315.5 342.5,-351.5 799.5,-351.5 799.5,-315.5 342.5,-315.5"/>
<text text-anchor="middle" x="571" y="-329.8" font-family="Times,serif" font-size="14.00">tools/llvm&#45;rc/CMakeFiles/llvm&#45;rc.dir/ResourceFileWriter.cpp.o</text>
</g>
<!-- Node0x556ed4b6e068&#45;&gt;Node0x556ed4b6cf58 -->
<g id="edge1" class="edge">
<title>Node0x556ed4b6e068&#45;&gt;Node0x556ed4b6cf58</title>
<path fill="none" stroke="black" d="M565.12,-388.31C564.28,-380.29 564.05,-370.55 564.42,-361.57"/>
<polygon fill="black" stroke="black" points="567.92,-361.75 565.14,-351.53 560.94,-361.25 567.92,-361.75"/>
</g>
<!-- Node0x556ed4b6d980 -->
<g id="node3" class="node">
<title>Node0x556ed4b6d980</title>
<polygon fill="none" stroke="black" points="517,-96.5 517,-132.5 1013,-132.5 1013,-96.5 517,-96.5"/>
<text text-anchor="middle" x="765" y="-110.8" font-family="Times,serif" font-size="14.00">tools/llvm&#45;rc/CMakeFiles/llvm&#45;rc.dir/ResourceScriptCppFilter.cpp.o</text>
</g>
<!-- Node0x556ed4b6e068&#45;&gt;Node0x556ed4b6d980 -->
<g id="edge2" class="edge">
<title>Node0x556ed4b6e068&#45;&gt;Node0x556ed4b6d980</title>
<path fill="none" stroke="black" d="M386.89,-388.46C343.42,-375.55 314.39,-353.26 333,-315 385.46,-207.14 517.37,-157.45 621.74,-134.65"/>
<polygon fill="black" stroke="black" points="622.69,-138.02 631.75,-132.52 621.24,-131.18 622.69,-138.02"/>
</g>
<!-- Node0x556ed4b6fee0 -->
<g id="node4" class="node">
<title>Node0x556ed4b6fee0</title>
<polygon fill="none" stroke="black" points="528,-169.5 528,-205.5 1002,-205.5 1002,-169.5 528,-169.5"/>
<text text-anchor="middle" x="765" y="-183.8" font-family="Times,serif" font-size="14.00">tools/llvm&#45;rc/CMakeFiles/llvm&#45;rc.dir/ResourceScriptParser.cpp.o</text>
</g>
<!-- Node0x556ed4b6e068&#45;&gt;Node0x556ed4b6fee0 -->
<g id="edge3" class="edge">
<title>Node0x556ed4b6e068&#45;&gt;Node0x556ed4b6fee0</title>
<path fill="none" stroke="black" d="M704.63,-388.46C746.79,-380.24 785.83,-368.47 799,-352 831.3,-311.59 798.74,-249.33 778.26,-214.45"/>
<polygon fill="black" stroke="black" points="781.23,-212.6 773.11,-205.79 775.21,-216.18 781.23,-212.6"/>
</g>
<!-- Node0x556ed4b6eea0 -->
<g id="node5" class="node">
<title>Node0x556ed4b6eea0</title>
<polygon fill="none" stroke="black" points="35,-96.5 35,-132.5 499,-132.5 499,-96.5 35,-96.5"/>
<text text-anchor="middle" x="267" y="-110.8" font-family="Times,serif" font-size="14.00">tools/llvm&#45;rc/CMakeFiles/llvm&#45;rc.dir/ResourceScriptStmt.cpp.o</text>
</g>
<!-- Node0x556ed4b6e068&#45;&gt;Node0x556ed4b6eea0 -->
<g id="edge4" class="edge">
<title>Node0x556ed4b6e068&#45;&gt;Node0x556ed4b6eea0</title>
<path fill="none" stroke="black" d="M423.73,-388.48C376.2,-380.05 331.52,-368.14 315,-352 257.43,-295.75 253.99,-192.17 259.7,-142.91"/>
<polygon fill="black" stroke="black" points="263.21,-143.1 261.13,-132.71 256.28,-142.13 263.21,-143.1"/>
</g>
<!-- Node0x556ed4b6e000 -->
<g id="node6" class="node">
<title>Node0x556ed4b6e000</title>
<polygon fill="none" stroke="black" points="1069.5,-96.5 1069.5,-132.5 1540.5,-132.5 1540.5,-96.5 1069.5,-96.5"/>
<text text-anchor="middle" x="1305" y="-110.8" font-family="Times,serif" font-size="14.00">tools/llvm&#45;rc/CMakeFiles/llvm&#45;rc.dir/ResourceScriptToken.cpp.o</text>
</g>
<!-- Node0x556ed4b6e068&#45;&gt;Node0x556ed4b6e000 -->
<g id="edge5" class="edge">
<title>Node0x556ed4b6e068&#45;&gt;Node0x556ed4b6e000</title>
<path fill="none" stroke="black" d="M691.01,-388.44C737.37,-380.03 790.37,-368.14 837,-352 1006.47,-293.35 1192.24,-184.92 1268.88,-138.05"/>
<polygon fill="black" stroke="black" points="1270.99,-140.87 1277.68,-132.65 1267.32,-134.9 1270.99,-140.87"/>
</g>
<!-- Node0x556ed4b6d298 -->
<g id="node7" class="node">
<title>Node0x556ed4b6d298</title>
<polygon fill="none" stroke="black" points="0,-242.5 0,-278.5 158,-278.5 158,-242.5 0,-242.5"/>
<text text-anchor="middle" x="79" y="-256.8" font-family="Times,serif" font-size="14.00">lib/libLLVMOption.a</text>
</g>
<!-- Node0x556ed4b6e068&#45;&gt;Node0x556ed4b6d298 -->
<g id="edge6" class="edge">
<title>Node0x556ed4b6e068&#45;&gt;Node0x556ed4b6d298</title>
<path fill="none" stroke="black" d="M398.57,-388.47C347.89,-380.49 292.95,-368.87 244,-352 195.58,-335.31 144.59,-305.13 112.33,-284.23"/>
<polygon fill="black" stroke="black" points="114.03,-281.16 103.75,-278.6 110.19,-287.01 114.03,-281.16"/>
</g>
<!-- Node0x556ed4b6e0d0 -->
<g id="node8" class="node">
<title>Node0x556ed4b6e0d0</title>
<polygon fill="none" stroke="black" points="1221,-23.5 1221,-59.5 1389,-59.5 1389,-23.5 1221,-23.5"/>
<text text-anchor="middle" x="1305" y="-37.8" font-family="Times,serif" font-size="14.00">lib/libLLVMSupport.a</text>
</g>
<!-- Node0x556ed4b6e068&#45;&gt;Node0x556ed4b6e0d0 -->
<g id="edge7" class="edge">
<title>Node0x556ed4b6e068&#45;&gt;Node0x556ed4b6e0d0</title>
<path fill="none" stroke="black" d="M755.5,-397.27C1043.93,-381.9 1569,-342.77 1569,-261.5 1569,-261.5 1569,-261.5 1569,-186.5 1569,-145.4 1578.94,-125.18 1550,-96 1528.81,-74.63 1459.05,-60.74 1399.36,-52.48"/>
<polygon fill="black" stroke="black" points="1399.49,-48.97 1389.12,-51.11 1398.56,-55.91 1399.49,-48.97"/>
</g>
<!-- Node0x556ed4b6cf58&#45;&gt;Node0x556ed4b6e068 -->
<g id="edge8" class="edge">
<title>Node0x556ed4b6cf58&#45;&gt;Node0x556ed4b6e068</title>
<path fill="none" stroke="black" d="M576.86,-351.53C577.71,-359.53 577.95,-369.27 577.59,-378.25"/>
<polygon fill="black" stroke="black" points="574.09,-378.09 576.88,-388.31 581.07,-378.58 574.09,-378.09"/>
</g>
<!-- Node0x556ed4b6cf58&#45;&gt;Node0x556ed4b6eea0 -->
<g id="edge9" class="edge">
<title>Node0x556ed4b6cf58&#45;&gt;Node0x556ed4b6eea0</title>
<path fill="none" stroke="black" d="M531.02,-315.47C511.69,-305.44 488.65,-292.17 469,-279 401.01,-233.41 326.39,-172.89 289.61,-139.75"/>
<polygon fill="black" stroke="black" points="291.68,-136.9 281.94,-132.72 286.95,-142.06 291.68,-136.9"/>
</g>
<!-- Node0x556ed4b6da50 -->
<g id="node9" class="node">
<title>Node0x556ed4b6da50</title>
<polygon fill="none" stroke="black" points="487,-242.5 487,-278.5 655,-278.5 655,-242.5 487,-242.5"/>
<text text-anchor="middle" x="571" y="-256.8" font-family="Times,serif" font-size="14.00">lib/libLLVMSupport.a</text>
</g>
<!-- Node0x556ed4b6cf58&#45;&gt;Node0x556ed4b6da50 -->
<g id="edge10" class="edge">
<title>Node0x556ed4b6cf58&#45;&gt;Node0x556ed4b6da50</title>
<path fill="none" stroke="black" d="M565.12,-315.31C564.28,-307.29 564.05,-297.55 564.42,-288.57"/>
<polygon fill="black" stroke="black" points="567.92,-288.75 565.14,-278.53 560.94,-288.25 567.92,-288.75"/>
</g>
<!-- Node0x556ed4b6ec98 -->
<g id="node10" class="node">
<title>Node0x556ed4b6ec98</title>
<polygon fill="none" stroke="black" points="681,-23.5 681,-59.5 849,-59.5 849,-23.5 681,-23.5"/>
<text text-anchor="middle" x="765" y="-37.8" font-family="Times,serif" font-size="14.00">lib/libLLVMSupport.a</text>
</g>
<!-- Node0x556ed4b6d980&#45;&gt;Node0x556ed4b6ec98 -->
<g id="edge11" class="edge">
<title>Node0x556ed4b6d980&#45;&gt;Node0x556ed4b6ec98</title>
<path fill="none" stroke="black" d="M765,-96.31C765,-88.29 765,-78.55 765,-69.57"/>
<polygon fill="black" stroke="black" points="768.5,-69.53 765,-59.53 761.5,-69.53 768.5,-69.53"/>
</g>
<!-- Node0x556ed4b6fee0&#45;&gt;Node0x556ed4b6e068 -->
<g id="edge12" class="edge">
<title>Node0x556ed4b6fee0&#45;&gt;Node0x556ed4b6e068</title>
<path fill="none" stroke="black" d="M783.52,-205.79C810.41,-238.02 852.19,-307.98 817,-352 804.86,-367.19 770.73,-378.37 731.6,-386.47"/>
<polygon fill="black" stroke="black" points="730.68,-383.09 721.56,-388.46 732.05,-389.95 730.68,-383.09"/>
</g>
<!-- Node0x556ed4b6fee0&#45;&gt;Node0x556ed4b6cf58 -->
<g id="edge13" class="edge">
<title>Node0x556ed4b6fee0&#45;&gt;Node0x556ed4b6cf58</title>
<path fill="none" stroke="black" d="M748.07,-205.7C728.73,-224.84 695.66,-256.09 664,-279 648.21,-290.42 629.79,-301.45 613.53,-310.49"/>
<polygon fill="black" stroke="black" points="611.84,-307.42 604.75,-315.3 615.21,-313.56 611.84,-307.42"/>
</g>
<!-- Node0x556ed4b6fee0&#45;&gt;Node0x556ed4b6d980 -->
<g id="edge14" class="edge">
<title>Node0x556ed4b6fee0&#45;&gt;Node0x556ed4b6d980</title>
<path fill="none" stroke="black" d="M765,-169.31C765,-161.29 765,-151.55 765,-142.57"/>
<polygon fill="black" stroke="black" points="768.5,-142.53 765,-132.53 761.5,-142.53 768.5,-142.53"/>
</g>
<!-- Node0x556ed4b6fee0&#45;&gt;Node0x556ed4b6eea0 -->
<g id="edge15" class="edge">
<title>Node0x556ed4b6fee0&#45;&gt;Node0x556ed4b6eea0</title>
<path fill="none" stroke="black" d="M639.86,-169.49C563.68,-158.79 466.78,-144.99 390.84,-134.01"/>
<polygon fill="black" stroke="black" points="391.14,-130.52 380.74,-132.55 390.14,-137.45 391.14,-130.52"/>
</g>
<!-- Node0x556ed4b6fee0&#45;&gt;Node0x556ed4b6e000 -->
<g id="edge16" class="edge">
<title>Node0x556ed4b6fee0&#45;&gt;Node0x556ed4b6e000</title>
<path fill="none" stroke="black" d="M894.34,-169.49C976.05,-158.75 1081.59,-144.87 1165.22,-133.88"/>
<polygon fill="black" stroke="black" points="1165.85,-137.33 1175.31,-132.55 1164.94,-130.39 1165.85,-137.33"/>
</g>
<!-- Node0x556ed4b6fee0&#45;&gt;Node0x556ed4b6e0d0 -->
<g id="edge17" class="edge">
<title>Node0x556ed4b6fee0&#45;&gt;Node0x556ed4b6e0d0</title>
<path fill="none" stroke="black" d="M916.25,-169.46C952.25,-161.54 989.6,-149.96 1022,-133 1043.17,-121.92 1039.89,-107.19 1061,-96 1107.15,-71.54 1163.87,-58.25 1211.02,-51.04"/>
<polygon fill="black" stroke="black" points="1211.54,-54.5 1220.92,-49.59 1210.52,-47.57 1211.54,-54.5"/>
</g>
<!-- Node0x556ed4b6eea0&#45;&gt;Node0x556ed4b6e068 -->
<g id="edge18" class="edge">
<title>Node0x556ed4b6eea0&#45;&gt;Node0x556ed4b6e068</title>
<path fill="none" stroke="black" d="M269.89,-132.71C271.77,-176.24 271.07,-291.49 333,-352 348.32,-366.97 387.89,-378.3 430.48,-386.6"/>
<polygon fill="black" stroke="black" points="430,-390.07 440.48,-388.48 431.3,-383.19 430,-390.07"/>
</g>
<!-- Node0x556ed4b6eea0&#45;&gt;Node0x556ed4b6cf58 -->
<g id="edge19" class="edge">
<title>Node0x556ed4b6eea0&#45;&gt;Node0x556ed4b6cf58</title>
<path fill="none" stroke="black" d="M292.58,-132.72C333.06,-163.65 413.87,-229.97 487,-279 503.42,-290.01 522.22,-301.09 537.95,-310.29"/>
<polygon fill="black" stroke="black" points="536.42,-313.45 546.82,-315.47 539.96,-307.4 536.42,-313.45"/>
</g>
<!-- Node0x556ed4b6eea0&#45;&gt;Node0x556ed4b6fee0 -->
<g id="edge20" class="edge">
<title>Node0x556ed4b6eea0&#45;&gt;Node0x556ed4b6fee0</title>
<path fill="none" stroke="black" d="M392.47,-132.55C468.71,-143.26 565.61,-157.07 641.49,-168.03"/>
<polygon fill="black" stroke="black" points="641.18,-171.53 651.58,-169.49 642.18,-164.6 641.18,-171.53"/>
</g>
<!-- Node0x556ed4b6e6e8 -->
<g id="node11" class="node">
<title>Node0x556ed4b6e6e8</title>
<polygon fill="none" stroke="black" points="53,-23.5 53,-59.5 221,-59.5 221,-23.5 53,-23.5"/>
<text text-anchor="middle" x="137" y="-37.8" font-family="Times,serif" font-size="14.00">lib/libLLVMSupport.a</text>
</g>
<!-- Node0x556ed4b6eea0&#45;&gt;Node0x556ed4b6e6e8 -->
<g id="edge21" class="edge">
<title>Node0x556ed4b6eea0&#45;&gt;Node0x556ed4b6e6e8</title>
<path fill="none" stroke="black" d="M235.86,-96.49C218.3,-86.9 196.17,-74.82 177.3,-64.51"/>
<polygon fill="black" stroke="black" points="178.79,-61.34 168.33,-59.61 175.43,-67.48 178.79,-61.34"/>
</g>
<!-- Node0x556ed4b6e000&#45;&gt;Node0x556ed4b6e0d0 -->
<g id="edge22" class="edge">
<title>Node0x556ed4b6e000&#45;&gt;Node0x556ed4b6e0d0</title>
<path fill="none" stroke="black" d="M1305,-96.31C1305,-88.29 1305,-78.55 1305,-69.57"/>
<polygon fill="black" stroke="black" points="1308.5,-69.53 1305,-59.53 1301.5,-69.53 1308.5,-69.53"/>
</g>
<!-- Node0x556ed4b6d298&#45;&gt;Node0x556ed4b6e6e8 -->
<g id="edge23" class="edge">
<title>Node0x556ed4b6d298&#45;&gt;Node0x556ed4b6e6e8</title>
<path fill="none" stroke="black" d="M64.24,-242.07C39.65,-210.82 -4.16,-144.01 26,-96 34.72,-82.12 48.15,-71.76 62.71,-64.05"/>
<polygon fill="black" stroke="black" points="64.42,-67.11 71.88,-59.59 61.36,-60.82 64.42,-67.11"/>
</g>
<!-- Node0x556ed4b6da50&#45;&gt;Node0x556ed4b6cf58 -->
<g id="edge24" class="edge">
<title>Node0x556ed4b6da50&#45;&gt;Node0x556ed4b6cf58</title>
<path fill="none" stroke="black" d="M576.86,-278.53C577.71,-286.53 577.95,-296.27 577.59,-305.25"/>
<polygon fill="black" stroke="black" points="574.09,-305.09 576.88,-315.31 581.07,-305.58 574.09,-305.09"/>
</g>
<!-- Node0x556ed4b6da50&#45;&gt;Node0x556ed4b6fee0 -->
<g id="edge25" class="edge">
<title>Node0x556ed4b6da50&#45;&gt;Node0x556ed4b6fee0</title>
<path fill="none" stroke="black" d="M617.47,-242.49C644.86,-232.47 679.71,-219.71 708.67,-209.12"/>
<polygon fill="black" stroke="black" points="710.05,-212.34 718.24,-205.61 707.65,-205.76 710.05,-212.34"/>
</g>
</g>
</svg>
