<?xml version="1.0" encoding="UTF-8" standalone="no"?>
<!DOCTYPE svg PUBLIC "-//W3C//DTD SVG 1.1//EN"
 "http://www.w3.org/Graphics/SVG/1.1/DTD/svg11.dtd">
<!-- Generated by graphviz version 2.43.0 (0)
 -->
<!-- Title: bin/sanstats Pages: 1 -->
<svg width="1776pt" height="653pt"
 viewBox="0.00 0.00 1776.00 653.11" xmlns="http://www.w3.org/2000/svg" xmlns:xlink="http://www.w3.org/1999/xlink">
<g id="graph0" class="graph" transform="scale(1 1) rotate(0) translate(4 649.11)">
<title>bin/sanstats</title>
<polygon fill="white" stroke="transparent" points="-4,4 -4,-649.11 1772,-649.11 1772,4 -4,4"/>
<text text-anchor="middle" x="884" y="-7.8" font-family="Times,serif" font-size="14.00">bin/sanstats</text>
<!-- Node0x563c7f5035c8 -->
<g id="node1" class="node">
<title>Node0x563c7f5035c8</title>
<polygon fill="none" stroke="black" points="419,-396.11 0,-396.11 0,-360.11 419,-360.11 419,-396.11"/>
<text text-anchor="middle" x="209.5" y="-374.41" font-family="Times,serif" font-size="14.00">{tools/sanstats/CMakeFiles/sanstats.dir/sanstats.cpp.o}</text>
</g>
<!-- Node0x563c7f503028 -->
<g id="node2" class="node">
<title>Node0x563c7f503028</title>
<polygon fill="none" stroke="black" points="649,-369.11 463,-369.11 463,-333.11 649,-333.11 649,-369.11"/>
<text text-anchor="middle" x="556" y="-347.41" font-family="Times,serif" font-size="14.00">{lib/libLLVMSupport.a}</text>
</g>
<!-- Node0x563c7f5035c8&#45;&gt;Node0x563c7f503028 -->
<g id="edge1" class="edge">
<title>Node0x563c7f5035c8&#45;&gt;Node0x563c7f503028</title>
<path fill="none" stroke="black" d="M419.34,-361.74C430.69,-360.85 441.82,-359.98 452.51,-359.14"/>
<polygon fill="black" stroke="black" points="452.93,-362.62 462.63,-358.35 452.39,-355.64 452.93,-362.62"/>
</g>
<!-- Node0x563c7f503528 -->
<g id="node3" class="node">
<title>Node0x563c7f503528</title>
<polygon fill="none" stroke="black" points="657,-423.11 455,-423.11 455,-387.11 657,-387.11 657,-423.11"/>
<text text-anchor="middle" x="556" y="-401.41" font-family="Times,serif" font-size="14.00">{lib/libLLVMSymbolize.a}</text>
</g>
<!-- Node0x563c7f5035c8&#45;&gt;Node0x563c7f503528 -->
<g id="edge2" class="edge">
<title>Node0x563c7f5035c8&#45;&gt;Node0x563c7f503528</title>
<path fill="none" stroke="black" d="M419.34,-394.47C427.98,-395.15 436.49,-395.82 444.78,-396.47"/>
<polygon fill="black" stroke="black" points="444.53,-399.96 454.77,-397.25 445.08,-392.98 444.53,-399.96"/>
</g>
<!-- Node0x563c7f503528&#45;&gt;Node0x563c7f503028 -->
<g id="edge3" class="edge">
<title>Node0x563c7f503528&#45;&gt;Node0x563c7f503028</title>
<path fill="none" stroke="black" d="M556,-386.9C556,-384.41 556,-381.93 556,-379.45"/>
<polygon fill="black" stroke="black" points="559.5,-379.25 556,-369.25 552.5,-379.25 559.5,-379.25"/>
</g>
<!-- Node0x563c7f502628 -->
<g id="node4" class="node">
<title>Node0x563c7f502628</title>
<polygon fill="none" stroke="black" points="948,-515.11 693,-515.11 693,-479.11 948,-479.11 948,-515.11"/>
<text text-anchor="middle" x="820.5" y="-493.41" font-family="Times,serif" font-size="14.00">{lib/libLLVMDebugInfoDWARF.a}</text>
</g>
<!-- Node0x563c7f503528&#45;&gt;Node0x563c7f502628 -->
<g id="edge4" class="edge">
<title>Node0x563c7f503528&#45;&gt;Node0x563c7f502628</title>
<path fill="none" stroke="black" d="M593.56,-423.24C620.56,-436.14 658.47,-453.22 693,-465.11 704.75,-469.15 717.27,-472.93 729.69,-476.37"/>
<polygon fill="black" stroke="black" points="729.04,-479.83 739.61,-479.06 730.87,-473.07 729.04,-479.83"/>
</g>
<!-- Node0x563c7f5047e8 -->
<g id="node5" class="node">
<title>Node0x563c7f5047e8</title>
<polygon fill="none" stroke="black" points="908,-369.11 733,-369.11 733,-333.11 908,-333.11 908,-369.11"/>
<text text-anchor="middle" x="820.5" y="-347.41" font-family="Times,serif" font-size="14.00">{lib/libLLVMObject.a}</text>
</g>
<!-- Node0x563c7f503528&#45;&gt;Node0x563c7f5047e8 -->
<g id="edge5" class="edge">
<title>Node0x563c7f503528&#45;&gt;Node0x563c7f5047e8</title>
<path fill="none" stroke="black" d="M644.77,-387.05C669.77,-381.91 697.15,-376.28 722.65,-371.03"/>
<polygon fill="black" stroke="black" points="723.61,-374.4 732.7,-368.96 722.2,-367.55 723.61,-374.4"/>
</g>
<!-- Node0x563c7f502b28 -->
<g id="node6" class="node">
<title>Node0x563c7f502b28</title>
<polygon fill="none" stroke="black" points="937.5,-423.11 703.5,-423.11 703.5,-387.11 937.5,-387.11 937.5,-423.11"/>
<text text-anchor="middle" x="820.5" y="-401.41" font-family="Times,serif" font-size="14.00">{lib/libLLVMDebugInfoPDB.a}</text>
</g>
<!-- Node0x563c7f503528&#45;&gt;Node0x563c7f502b28 -->
<g id="edge6" class="edge">
<title>Node0x563c7f503528&#45;&gt;Node0x563c7f502b28</title>
<path fill="none" stroke="black" d="M657.36,-405.11C669.12,-405.11 681.23,-405.11 693.29,-405.11"/>
<polygon fill="black" stroke="black" points="693.39,-408.61 703.39,-405.11 693.39,-401.61 693.39,-408.61"/>
</g>
<!-- Node0x563c7f507e48 -->
<g id="node7" class="node">
<title>Node0x563c7f507e48</title>
<polygon fill="none" stroke="black" points="920.5,-645.11 720.5,-645.11 720.5,-609.11 920.5,-609.11 920.5,-645.11"/>
<text text-anchor="middle" x="820.5" y="-623.41" font-family="Times,serif" font-size="14.00">{lib/libLLVMDemangle.a}</text>
</g>
<!-- Node0x563c7f503528&#45;&gt;Node0x563c7f507e48 -->
<g id="edge7" class="edge">
<title>Node0x563c7f503528&#45;&gt;Node0x563c7f507e48</title>
<path fill="none" stroke="black" d="M564.69,-423.26C581.81,-461.39 626.82,-549.96 693,-595.11 698.6,-598.92 704.61,-602.28 710.87,-605.25"/>
<polygon fill="black" stroke="black" points="709.62,-608.52 720.19,-609.3 712.42,-602.1 709.62,-608.52"/>
</g>
<!-- Node0x563c7f502628&#45;&gt;Node0x563c7f503028 -->
<g id="edge8" class="edge">
<title>Node0x563c7f502628&#45;&gt;Node0x563c7f503028</title>
<path fill="none" stroke="black" d="M714.08,-478.96C706.49,-475.16 699.34,-470.59 693,-465.11 661.35,-437.73 688.43,-405.73 657,-378.11 655.82,-377.07 654.6,-376.07 653.35,-375.11"/>
<polygon fill="black" stroke="black" points="654.93,-371.95 644.67,-369.3 651.04,-377.77 654.93,-371.95"/>
</g>
<!-- Node0x563c7f502628&#45;&gt;Node0x563c7f5047e8 -->
<g id="edge9" class="edge">
<title>Node0x563c7f502628&#45;&gt;Node0x563c7f5047e8</title>
<path fill="none" stroke="black" d="M697.93,-478.92C688.79,-473.06 680.86,-465.59 675,-456.11 658.88,-430.02 658.88,-413.19 675,-387.11 685.76,-369.7 703.63,-359.59 723.24,-353.94"/>
<polygon fill="black" stroke="black" points="724.13,-357.32 732.98,-351.51 722.43,-350.53 724.13,-357.32"/>
</g>
<!-- Node0x563c7f5060e8 -->
<g id="node8" class="node">
<title>Node0x563c7f5060e8</title>
<polygon fill="none" stroke="black" points="1233.5,-459.11 1006.5,-459.11 1006.5,-423.11 1233.5,-423.11 1233.5,-459.11"/>
<text text-anchor="middle" x="1120" y="-437.41" font-family="Times,serif" font-size="14.00">{lib/libLLVMBinaryFormat.a}</text>
</g>
<!-- Node0x563c7f502628&#45;&gt;Node0x563c7f5060e8 -->
<g id="edge10" class="edge">
<title>Node0x563c7f502628&#45;&gt;Node0x563c7f5060e8</title>
<path fill="none" stroke="black" d="M917.27,-479.08C947.85,-473.32 981.86,-466.92 1013.11,-461.04"/>
<polygon fill="black" stroke="black" points="1013.98,-464.44 1023.16,-459.15 1012.68,-457.56 1013.98,-464.44"/>
</g>
<!-- Node0x563c7f5055a8 -->
<g id="node9" class="node">
<title>Node0x563c7f5055a8</title>
<polygon fill="none" stroke="black" points="1196.5,-514.11 1043.5,-514.11 1043.5,-478.11 1196.5,-478.11 1196.5,-514.11"/>
<text text-anchor="middle" x="1120" y="-492.41" font-family="Times,serif" font-size="14.00">{lib/libLLVMMC.a}</text>
</g>
<!-- Node0x563c7f502628&#45;&gt;Node0x563c7f5055a8 -->
<g id="edge11" class="edge">
<title>Node0x563c7f502628&#45;&gt;Node0x563c7f5055a8</title>
<path fill="none" stroke="black" d="M948.1,-496.68C976.85,-496.58 1006.72,-496.48 1033.3,-496.39"/>
<polygon fill="black" stroke="black" points="1033.33,-499.89 1043.32,-496.36 1033.31,-492.89 1033.33,-499.89"/>
</g>
<!-- Node0x563c7f5047e8&#45;&gt;Node0x563c7f503028 -->
<g id="edge12" class="edge">
<title>Node0x563c7f5047e8&#45;&gt;Node0x563c7f503028</title>
<path fill="none" stroke="black" d="M732.83,-351.11C709.36,-351.11 683.73,-351.11 659.48,-351.11"/>
<polygon fill="black" stroke="black" points="659.18,-347.61 649.18,-351.11 659.18,-354.61 659.18,-347.61"/>
</g>
<!-- Node0x563c7f5047e8&#45;&gt;Node0x563c7f5060e8 -->
<g id="edge13" class="edge">
<title>Node0x563c7f5047e8&#45;&gt;Node0x563c7f5060e8</title>
<path fill="none" stroke="black" d="M908.1,-363.72C921.83,-367.37 935.58,-372.07 948,-378.11 966.73,-387.21 965.41,-398.72 984,-408.11 992.89,-412.59 1002.41,-416.48 1012.14,-419.86"/>
<polygon fill="black" stroke="black" points="1011.34,-423.28 1021.93,-423.08 1013.52,-416.63 1011.34,-423.28"/>
</g>
<!-- Node0x563c7f5047e8&#45;&gt;Node0x563c7f5055a8 -->
<g id="edge14" class="edge">
<title>Node0x563c7f5047e8&#45;&gt;Node0x563c7f5055a8</title>
<path fill="none" stroke="black" d="M908.06,-357.77C922.56,-362.04 936.58,-368.48 948,-378.11 980.94,-405.87 950.98,-440.44 984,-468.11 997.93,-479.78 1015.48,-486.99 1033.27,-491.36"/>
<polygon fill="black" stroke="black" points="1032.64,-494.81 1043.15,-493.51 1034.12,-487.97 1032.64,-494.81"/>
</g>
<!-- Node0x563c7f5038e8 -->
<g id="node10" class="node">
<title>Node0x563c7f5038e8</title>
<polygon fill="none" stroke="black" points="1219.5,-287.11 1020.5,-287.11 1020.5,-251.11 1219.5,-251.11 1219.5,-287.11"/>
<text text-anchor="middle" x="1120" y="-265.41" font-family="Times,serif" font-size="14.00">{lib/libLLVMBitReader.a}</text>
</g>
<!-- Node0x563c7f5047e8&#45;&gt;Node0x563c7f5038e8 -->
<g id="edge15" class="edge">
<title>Node0x563c7f5047e8&#45;&gt;Node0x563c7f5038e8</title>
<path fill="none" stroke="black" d="M870.83,-333.05C902.81,-321.76 945.53,-307.45 984,-297.11 993.98,-294.42 1004.44,-291.85 1014.93,-289.42"/>
<polygon fill="black" stroke="black" points="1016.01,-292.76 1024.98,-287.14 1014.46,-285.94 1016.01,-292.76"/>
</g>
<!-- Node0x563c7f503ed8 -->
<g id="node11" class="node">
<title>Node0x563c7f503ed8</title>
<polygon fill="none" stroke="black" points="1201,-233.11 1039,-233.11 1039,-197.11 1201,-197.11 1201,-233.11"/>
<text text-anchor="middle" x="1120" y="-211.41" font-family="Times,serif" font-size="14.00">{lib/libLLVMCore.a}</text>
</g>
<!-- Node0x563c7f5047e8&#45;&gt;Node0x563c7f503ed8 -->
<g id="edge16" class="edge">
<title>Node0x563c7f5047e8&#45;&gt;Node0x563c7f503ed8</title>
<path fill="none" stroke="black" d="M842.51,-332.97C872.05,-308.46 928.48,-265.19 984,-242.11 998.12,-236.23 1013.62,-231.61 1028.92,-227.98"/>
<polygon fill="black" stroke="black" points="1029.94,-231.34 1038.93,-225.73 1028.4,-224.51 1029.94,-231.34"/>
</g>
<!-- Node0x563c7f5050f8 -->
<g id="node12" class="node">
<title>Node0x563c7f5050f8</title>
<polygon fill="none" stroke="black" points="1219,-568.11 1021,-568.11 1021,-532.11 1219,-532.11 1219,-568.11"/>
<text text-anchor="middle" x="1120" y="-546.41" font-family="Times,serif" font-size="14.00">{lib/libLLVMMCParser.a}</text>
</g>
<!-- Node0x563c7f5047e8&#45;&gt;Node0x563c7f5050f8 -->
<g id="edge17" class="edge">
<title>Node0x563c7f5047e8&#45;&gt;Node0x563c7f5050f8</title>
<path fill="none" stroke="black" d="M908.21,-356.22C922.96,-360.61 937.03,-367.49 948,-378.11 995.72,-424.28 935.98,-477.24 984,-523.11 991.87,-530.63 1001.22,-536.32 1011.27,-540.61"/>
<polygon fill="black" stroke="black" points="1010.07,-543.9 1020.67,-544.16 1012.55,-537.36 1010.07,-543.9"/>
</g>
<!-- Node0x563c7f506fe8 -->
<g id="node13" class="node">
<title>Node0x563c7f506fe8</title>
<polygon fill="none" stroke="black" points="1212,-179.11 1028,-179.11 1028,-143.11 1212,-143.11 1212,-179.11"/>
<text text-anchor="middle" x="1120" y="-157.41" font-family="Times,serif" font-size="14.00">{lib/libLLVMTextAPI.a}</text>
</g>
<!-- Node0x563c7f5047e8&#45;&gt;Node0x563c7f506fe8 -->
<g id="edge18" class="edge">
<title>Node0x563c7f5047e8&#45;&gt;Node0x563c7f506fe8</title>
<path fill="none" stroke="black" d="M833.83,-332.97C858.19,-298.69 916.03,-224.55 984,-188.11 994.53,-182.46 1006.1,-177.99 1017.9,-174.45"/>
<polygon fill="black" stroke="black" points="1019.14,-177.73 1027.84,-171.69 1017.27,-170.99 1019.14,-177.73"/>
</g>
<!-- Node0x563c7f502b28&#45;&gt;Node0x563c7f503028 -->
<g id="edge19" class="edge">
<title>Node0x563c7f502b28&#45;&gt;Node0x563c7f503028</title>
<path fill="none" stroke="black" d="M731.81,-387.07C707.08,-381.98 680.02,-376.41 654.74,-371.21"/>
<polygon fill="black" stroke="black" points="655.27,-367.75 644.77,-369.16 653.86,-374.61 655.27,-367.75"/>
</g>
<!-- Node0x563c7f502b28&#45;&gt;Node0x563c7f5047e8 -->
<g id="edge20" class="edge">
<title>Node0x563c7f502b28&#45;&gt;Node0x563c7f5047e8</title>
<path fill="none" stroke="black" d="M820.5,-386.9C820.5,-384.41 820.5,-381.93 820.5,-379.45"/>
<polygon fill="black" stroke="black" points="824,-379.25 820.5,-369.25 817,-379.25 824,-379.25"/>
</g>
<!-- Node0x563c7f502b28&#45;&gt;Node0x563c7f5060e8 -->
<g id="edge21" class="edge">
<title>Node0x563c7f502b28&#45;&gt;Node0x563c7f5060e8</title>
<path fill="none" stroke="black" d="M937.8,-419.18C956.95,-421.5 976.86,-423.91 996.16,-426.24"/>
<polygon fill="black" stroke="black" points="995.85,-429.73 1006.19,-427.46 996.69,-422.78 995.85,-429.73"/>
</g>
<!-- Node0x563c7f506ae8 -->
<g id="node14" class="node">
<title>Node0x563c7f506ae8</title>
<polygon fill="none" stroke="black" points="1256,-399.11 984,-399.11 984,-363.11 1256,-363.11 1256,-399.11"/>
<text text-anchor="middle" x="1120" y="-377.41" font-family="Times,serif" font-size="14.00">{lib/libLLVMDebugInfoCodeView.a}</text>
</g>
<!-- Node0x563c7f502b28&#45;&gt;Node0x563c7f506ae8 -->
<g id="edge22" class="edge">
<title>Node0x563c7f502b28&#45;&gt;Node0x563c7f506ae8</title>
<path fill="none" stroke="black" d="M937.8,-395.72C949.51,-394.78 961.51,-393.81 973.48,-392.85"/>
<polygon fill="black" stroke="black" points="973.83,-396.33 983.52,-392.04 973.27,-389.35 973.83,-396.33"/>
</g>
<!-- Node0x563c7f5042e8 -->
<g id="node15" class="node">
<title>Node0x563c7f5042e8</title>
<polygon fill="none" stroke="black" points="1237,-342.11 1003,-342.11 1003,-306.11 1237,-306.11 1237,-342.11"/>
<text text-anchor="middle" x="1120" y="-320.41" font-family="Times,serif" font-size="14.00">{lib/libLLVMDebugInfoMSF.a}</text>
</g>
<!-- Node0x563c7f502b28&#45;&gt;Node0x563c7f5042e8 -->
<g id="edge23" class="edge">
<title>Node0x563c7f502b28&#45;&gt;Node0x563c7f5042e8</title>
<path fill="none" stroke="black" d="M923.03,-387.03C931.6,-384.43 940.03,-381.47 948,-378.11 965.72,-370.63 966.31,-361.65 984,-354.11 991.86,-350.75 1000.15,-347.75 1008.59,-345.07"/>
<polygon fill="black" stroke="black" points="1009.61,-348.41 1018.17,-342.17 1007.58,-341.71 1009.61,-348.41"/>
</g>
<!-- Node0x563c7f5060e8&#45;&gt;Node0x563c7f503028 -->
<g id="edge24" class="edge">
<title>Node0x563c7f5060e8&#45;&gt;Node0x563c7f503028</title>
<path fill="none" stroke="black" d="M1006.35,-450.25C898.56,-456.97 744.92,-460.6 693,-432.11 667.71,-418.23 680.42,-394.94 657,-378.11 655.1,-376.74 653.14,-375.45 651.12,-374.22"/>
<polygon fill="black" stroke="black" points="652.43,-370.94 641.97,-369.23 649.08,-377.09 652.43,-370.94"/>
</g>
<!-- Node0x563c7f5055a8&#45;&gt;Node0x563c7f503028 -->
<g id="edge25" class="edge">
<title>Node0x563c7f5055a8&#45;&gt;Node0x563c7f503028</title>
<path fill="none" stroke="black" d="M1043.14,-511.24C1013.58,-516.42 979.33,-521.56 948,-524.11 835.04,-533.29 782.22,-594 693,-524.11 640.39,-482.89 703.74,-425.88 657,-378.11 656.08,-377.17 655.13,-376.26 654.16,-375.38"/>
<polygon fill="black" stroke="black" points="656.25,-372.58 646.2,-369.23 651.97,-378.12 656.25,-372.58"/>
</g>
<!-- Node0x563c7f5055a8&#45;&gt;Node0x563c7f5060e8 -->
<g id="edge26" class="edge">
<title>Node0x563c7f5055a8&#45;&gt;Node0x563c7f5060e8</title>
<path fill="none" stroke="black" d="M1120,-477.92C1120,-475.08 1120,-472.25 1120,-469.41"/>
<polygon fill="black" stroke="black" points="1123.5,-469.15 1120,-459.15 1116.5,-469.15 1123.5,-469.15"/>
</g>
<!-- Node0x563c7f5038e8&#45;&gt;Node0x563c7f503028 -->
<g id="edge29" class="edge">
<title>Node0x563c7f5038e8&#45;&gt;Node0x563c7f503028</title>
<path fill="none" stroke="black" d="M1020.22,-256.09C932.62,-247.81 802.03,-243.51 693,-273.11 654.06,-283.68 614.61,-308.16 588.31,-326.9"/>
<polygon fill="black" stroke="black" points="585.94,-324.29 579.91,-333 590.05,-329.95 585.94,-324.29"/>
</g>
<!-- Node0x563c7f5038e8&#45;&gt;Node0x563c7f503ed8 -->
<g id="edge30" class="edge">
<title>Node0x563c7f5038e8&#45;&gt;Node0x563c7f503ed8</title>
<path fill="none" stroke="black" d="M1120,-250.9C1120,-248.41 1120,-245.93 1120,-243.45"/>
<polygon fill="black" stroke="black" points="1123.5,-243.25 1120,-233.25 1116.5,-243.25 1123.5,-243.25"/>
</g>
<!-- Node0x563c7f505fa8 -->
<g id="node16" class="node">
<title>Node0x563c7f505fa8</title>
<polygon fill="none" stroke="black" points="1768,-179.11 1519,-179.11 1519,-143.11 1768,-143.11 1768,-179.11"/>
<text text-anchor="middle" x="1643.5" y="-157.41" font-family="Times,serif" font-size="14.00">{lib/libLLVMBitstreamReader.a}</text>
</g>
<!-- Node0x563c7f5038e8&#45;&gt;Node0x563c7f505fa8 -->
<g id="edge31" class="edge">
<title>Node0x563c7f5038e8&#45;&gt;Node0x563c7f505fa8</title>
<path fill="none" stroke="black" d="M1211.8,-251.07C1226.57,-248.09 1241.72,-245.03 1256,-242.11 1355.67,-221.69 1469.67,-197.73 1547.89,-181.19"/>
<polygon fill="black" stroke="black" points="1548.66,-184.6 1557.72,-179.11 1547.22,-177.75 1548.66,-184.6"/>
</g>
<!-- Node0x563c7f503ed8&#45;&gt;Node0x563c7f503028 -->
<g id="edge32" class="edge">
<title>Node0x563c7f503ed8&#45;&gt;Node0x563c7f503028</title>
<path fill="none" stroke="black" d="M1038.68,-207.15C950.74,-201.5 807.05,-201.37 693,-245.11 647.91,-262.4 605.65,-299.98 580.55,-325.43"/>
<polygon fill="black" stroke="black" points="577.76,-323.27 573.33,-332.89 582.79,-328.14 577.76,-323.27"/>
</g>
<!-- Node0x563c7f503ed8&#45;&gt;Node0x563c7f5060e8 -->
<g id="edge33" class="edge">
<title>Node0x563c7f503ed8&#45;&gt;Node0x563c7f5060e8</title>
<path fill="none" stroke="black" d="M1038.7,-212.25C1010.06,-216.02 981.23,-226.46 966,-251.11 948.71,-279.08 948.71,-371.13 966,-399.11 973.56,-411.34 984.39,-420.34 996.84,-426.92"/>
<polygon fill="black" stroke="black" points="995.64,-430.22 1006.18,-431.29 998.6,-423.88 995.64,-430.22"/>
</g>
<!-- Node0x563c7f505b98 -->
<g id="node17" class="node">
<title>Node0x563c7f505b98</title>
<polygon fill="none" stroke="black" points="1483,-179.11 1292,-179.11 1292,-143.11 1483,-143.11 1483,-179.11"/>
<text text-anchor="middle" x="1387.5" y="-157.41" font-family="Times,serif" font-size="14.00">{lib/libLLVMRemarks.a}</text>
</g>
<!-- Node0x563c7f503ed8&#45;&gt;Node0x563c7f505b98 -->
<g id="edge34" class="edge">
<title>Node0x563c7f503ed8&#45;&gt;Node0x563c7f505b98</title>
<path fill="none" stroke="black" d="M1201.33,-199.13C1219.32,-195.53 1238.32,-191.7 1256,-188.11 1266.96,-185.88 1278.43,-183.53 1289.84,-181.18"/>
<polygon fill="black" stroke="black" points="1290.74,-184.57 1299.82,-179.12 1289.32,-177.71 1290.74,-184.57"/>
</g>
<!-- Node0x563c7f5050f8&#45;&gt;Node0x563c7f503028 -->
<g id="edge35" class="edge">
<title>Node0x563c7f5050f8&#45;&gt;Node0x563c7f503028</title>
<path fill="none" stroke="black" d="M1020.64,-565C910.56,-579.31 741.28,-593.51 693,-554.11 631.14,-503.62 711.68,-436.28 657,-378.11 656.23,-377.29 655.44,-376.49 654.63,-375.72"/>
<polygon fill="black" stroke="black" points="656.78,-372.96 646.8,-369.38 652.37,-378.4 656.78,-372.96"/>
</g>
<!-- Node0x563c7f5050f8&#45;&gt;Node0x563c7f5055a8 -->
<g id="edge36" class="edge">
<title>Node0x563c7f5050f8&#45;&gt;Node0x563c7f5055a8</title>
<path fill="none" stroke="black" d="M1120,-531.9C1120,-529.41 1120,-526.93 1120,-524.45"/>
<polygon fill="black" stroke="black" points="1123.5,-524.25 1120,-514.25 1116.5,-524.25 1123.5,-524.25"/>
</g>
<!-- Node0x563c7f506fe8&#45;&gt;Node0x563c7f503028 -->
<g id="edge37" class="edge">
<title>Node0x563c7f506fe8&#45;&gt;Node0x563c7f503028</title>
<path fill="none" stroke="black" d="M1027.76,-150.91C937.78,-144.97 798.74,-147.13 693,-200.11 637.55,-227.89 594.12,-288.72 572.36,-324.11"/>
<polygon fill="black" stroke="black" points="569.2,-322.57 567.05,-332.94 575.2,-326.17 569.2,-322.57"/>
</g>
<!-- Node0x563c7f506fe8&#45;&gt;Node0x563c7f505b98 -->
<g id="edge38" class="edge">
<title>Node0x563c7f506fe8&#45;&gt;Node0x563c7f505b98</title>
<path fill="none" stroke="black" d="M1212.37,-161.11C1234.71,-161.11 1258.79,-161.11 1281.71,-161.11"/>
<polygon fill="black" stroke="black" points="1281.8,-164.61 1291.8,-161.11 1281.8,-157.61 1281.8,-164.61"/>
</g>
<!-- Node0x563c7f506ae8&#45;&gt;Node0x563c7f503028 -->
<g id="edge27" class="edge">
<title>Node0x563c7f506ae8&#45;&gt;Node0x563c7f503028</title>
<path fill="none" stroke="black" d="M1016.12,-363.09C1005.06,-359.73 994.14,-355.77 984,-351.11 965.83,-342.75 966.97,-330.43 948,-324.11 840.48,-288.27 805.79,-313.02 693,-324.11 677.13,-325.67 660.36,-328.23 644.23,-331.17"/>
<polygon fill="black" stroke="black" points="643.46,-327.75 634.28,-333.04 644.76,-334.63 643.46,-327.75"/>
</g>
<!-- Node0x563c7f5042e8&#45;&gt;Node0x563c7f503028 -->
<g id="edge28" class="edge">
<title>Node0x563c7f5042e8&#45;&gt;Node0x563c7f503028</title>
<path fill="none" stroke="black" d="M1033.55,-306.06C999.69,-299.24 964.85,-292.72 948,-291.11 835.18,-280.32 803.9,-267.73 693,-291.11 659,-298.27 623.15,-314.49 596.8,-328.27"/>
<polygon fill="black" stroke="black" points="595.07,-325.22 587.89,-333.02 598.36,-331.4 595.07,-325.22"/>
</g>
<!-- Node0x563c7f505fa8&#45;&gt;Node0x563c7f503028 -->
<g id="edge39" class="edge">
<title>Node0x563c7f505fa8&#45;&gt;Node0x563c7f503028</title>
<path fill="none" stroke="black" d="M1599.8,-143.07C1458.57,-86.47 998.23,73.56 693,-106.11 611.84,-153.88 575.65,-269.51 562.84,-323.04"/>
<polygon fill="black" stroke="black" points="559.4,-322.35 560.58,-332.88 566.23,-323.92 559.4,-322.35"/>
</g>
<!-- Node0x563c7f505b98&#45;&gt;Node0x563c7f503028 -->
<g id="edge40" class="edge">
<title>Node0x563c7f505b98&#45;&gt;Node0x563c7f503028</title>
<path fill="none" stroke="black" d="M1312.38,-143.04C1294.06,-139.33 1274.41,-135.99 1256,-134.11 1131.52,-121.36 802.09,-82.81 693,-144.11 622.45,-183.75 582.13,-276.97 565.72,-323.57"/>
<polygon fill="black" stroke="black" points="562.41,-322.45 562.49,-333.04 569.03,-324.71 562.41,-322.45"/>
</g>
<!-- Node0x563c7f505b98&#45;&gt;Node0x563c7f505fa8 -->
<g id="edge41" class="edge">
<title>Node0x563c7f505b98&#45;&gt;Node0x563c7f505fa8</title>
<path fill="none" stroke="black" d="M1483.08,-161.11C1491.49,-161.11 1500.11,-161.11 1508.77,-161.11"/>
<polygon fill="black" stroke="black" points="1508.95,-164.61 1518.95,-161.11 1508.95,-157.61 1508.95,-164.61"/>
</g>
</g>
</svg>
