<?xml version="1.0" encoding="UTF-8" standalone="no"?>
<!DOCTYPE svg PUBLIC "-//W3C//DTD SVG 1.1//EN"
 "http://www.w3.org/Graphics/SVG/1.1/DTD/svg11.dtd">
<!-- Generated by graphviz version 2.43.0 (0)
 -->
<!-- Title: bin/llvm&#45;objdump_lib/libLLVMOption.a Pages: 1 -->
<svg width="1225pt" height="136pt"
 viewBox="0.00 0.00 1225.00 136.00" xmlns="http://www.w3.org/2000/svg" xmlns:xlink="http://www.w3.org/1999/xlink">
<g id="graph0" class="graph" transform="scale(1 1) rotate(0) translate(4 132)">
<title>bin/llvm&#45;objdump_lib/libLLVMOption.a</title>
<polygon fill="white" stroke="transparent" points="-4,4 -4,-132 1221,-132 1221,4 -4,4"/>
<text text-anchor="middle" x="608.5" y="-7.8" font-family="Times,serif" font-size="14.00">bin/llvm&#45;objdump_lib/libLLVMOption.a</text>
<!-- Node0x55779fe94218 -->
<g id="node1" class="node">
<title>Node0x55779fe94218</title>
<polygon fill="#7fb2ff" stroke="black" points="282,-97 0,-97 0,-61 282,-61 282,-97"/>
<text text-anchor="middle" x="141" y="-75.3" font-family="Times,serif" font-size="14.00">{lib/libLLVMOption.a(ArgList.cpp.o)}</text>
</g>
<!-- Node0x55779fe93fe8 -->
<g id="node2" class="node">
<title>Node0x55779fe93fe8</title>
<polygon fill="#7fb2ff" stroke="black" points="1217,-128 962,-128 962,-92 1217,-92 1217,-128"/>
<text text-anchor="middle" x="1089.5" y="-106.3" font-family="Times,serif" font-size="14.00">{lib/libLLVMOption.a(Arg.cpp.o)}</text>
</g>
<!-- Node0x55779fe94218&#45;&gt;Node0x55779fe93fe8 -->
<g id="edge1" class="edge">
<title>Node0x55779fe94218&#45;&gt;Node0x55779fe93fe8</title>
<path fill="none" stroke="#7fb2ff" d="M282.04,-93.4C294.18,-94.82 306.29,-96.07 318,-97 539.33,-114.59 797.56,-111.05 951.79,-108.84"/>
<polygon fill="#7fb2ff" stroke="#7fb2ff" points="951.85,-112.34 961.8,-108.7 951.75,-105.34 951.85,-112.34"/>
</g>
<!-- Node0x55779fe95a28 -->
<g id="node3" class="node">
<title>Node0x55779fe95a28</title>
<polygon fill="#7fb2ff" stroke="black" points="596,-97 318,-97 318,-61 596,-61 596,-97"/>
<text text-anchor="middle" x="457" y="-75.3" font-family="Times,serif" font-size="14.00">{lib/libLLVMOption.a(Option.cpp.o)}</text>
</g>
<!-- Node0x55779fe94218&#45;&gt;Node0x55779fe95a28 -->
<g id="edge2" class="edge">
<title>Node0x55779fe94218&#45;&gt;Node0x55779fe95a28</title>
<path fill="none" stroke="#7fb2ff" d="M282.01,-79C290.59,-79 299.24,-79 307.85,-79"/>
<polygon fill="#7fb2ff" stroke="#7fb2ff" points="307.94,-82.5 317.94,-79 307.94,-75.5 307.94,-82.5"/>
</g>
<!-- Node0x55779fe957a8 -->
<g id="node4" class="node">
<title>Node0x55779fe957a8</title>
<polygon fill="#7fb2ff" stroke="black" points="926,-59 632,-59 632,-23 926,-23 926,-59"/>
<text text-anchor="middle" x="779" y="-37.3" font-family="Times,serif" font-size="14.00">{lib/libLLVMOption.a(OptTable.cpp.o)}</text>
</g>
<!-- Node0x55779fe94218&#45;&gt;Node0x55779fe957a8 -->
<g id="edge3" class="edge">
<title>Node0x55779fe94218&#45;&gt;Node0x55779fe957a8</title>
<path fill="none" stroke="#7fb2ff" d="M196.87,-60.97C231.49,-53.71 277.2,-46.6 318,-43 418.85,-34.1 532.59,-31.31 621.74,-31.86"/>
<polygon fill="#7fb2ff" stroke="#7fb2ff" points="621.91,-35.36 631.94,-31.94 621.96,-28.36 621.91,-35.36"/>
</g>
<!-- Node0x55779fe93fe8&#45;&gt;Node0x55779fe94218 -->
<g id="edge9" class="edge">
<title>Node0x55779fe93fe8&#45;&gt;Node0x55779fe94218</title>
<path fill="none" stroke="#7fb2ff" d="M961.8,-121.46C808.91,-128.88 544.19,-132.97 318,-115 280.58,-112.03 239.06,-105.8 205.74,-99.11"/>
<polygon fill="#7fb2ff" stroke="#7fb2ff" points="206.18,-95.63 195.68,-97.03 204.76,-102.48 206.18,-95.63"/>
</g>
<!-- Node0x55779fe95a28&#45;&gt;Node0x55779fe93fe8 -->
<g id="edge4" class="edge">
<title>Node0x55779fe95a28&#45;&gt;Node0x55779fe93fe8</title>
<path fill="none" stroke="#7fb2ff" d="M596.37,-85.8C701.98,-91 846.75,-98.11 951.92,-103.28"/>
<polygon fill="#7fb2ff" stroke="#7fb2ff" points="951.81,-106.78 961.97,-103.78 952.16,-99.79 951.81,-106.78"/>
</g>
<!-- Node0x55779fe95a28&#45;&gt;Node0x55779fe957a8 -->
<g id="edge5" class="edge">
<title>Node0x55779fe95a28&#45;&gt;Node0x55779fe957a8</title>
<path fill="none" stroke="#7fb2ff" d="M557.06,-60.94C577.59,-58.18 599.7,-55.41 621.72,-52.81"/>
<polygon fill="#7fb2ff" stroke="#7fb2ff" points="622.29,-56.27 631.82,-51.63 621.48,-49.31 622.29,-56.27"/>
</g>
<!-- Node0x55779fe957a8&#45;&gt;Node0x55779fe94218 -->
<g id="edge6" class="edge">
<title>Node0x55779fe957a8&#45;&gt;Node0x55779fe94218</title>
<path fill="none" stroke="#7fb2ff" d="M631.94,-47.49C541.38,-49.11 422.74,-51.75 318,-61 309.5,-61.75 300.78,-62.65 292,-63.66"/>
<polygon fill="#7fb2ff" stroke="#7fb2ff" points="291.58,-60.18 282.06,-64.83 292.4,-67.13 291.58,-60.18"/>
</g>
<!-- Node0x55779fe957a8&#45;&gt;Node0x55779fe93fe8 -->
<g id="edge7" class="edge">
<title>Node0x55779fe957a8&#45;&gt;Node0x55779fe93fe8</title>
<path fill="none" stroke="#7fb2ff" d="M863.03,-59.08C883.61,-63.59 905.61,-68.45 926,-73 950.07,-78.38 976.14,-84.28 1000.19,-89.76"/>
<polygon fill="#7fb2ff" stroke="#7fb2ff" points="999.48,-93.18 1010.01,-91.99 1001.04,-86.36 999.48,-93.18"/>
</g>
<!-- Node0x55779fe957a8&#45;&gt;Node0x55779fe95a28 -->
<g id="edge8" class="edge">
<title>Node0x55779fe957a8&#45;&gt;Node0x55779fe95a28</title>
<path fill="none" stroke="#7fb2ff" d="M679.01,-59.05C655.94,-62.15 630.88,-65.27 606.2,-68.13"/>
<polygon fill="#7fb2ff" stroke="#7fb2ff" points="605.57,-64.68 596.03,-69.3 606.36,-71.64 605.57,-64.68"/>
</g>
</g>
</svg>
