<?xml version="1.0" encoding="UTF-8" standalone="no"?>
<!DOCTYPE svg PUBLIC "-//W3C//DTD SVG 1.1//EN"
 "http://www.w3.org/Graphics/SVG/1.1/DTD/svg11.dtd">
<!-- Generated by graphviz version 2.43.0 (0)
 -->
<!-- Title: bin/lld_lib/libLLVMDemangle.a Pages: 1 -->
<svg width="764pt" height="175pt"
 viewBox="0.00 0.00 764.00 175.00" xmlns="http://www.w3.org/2000/svg" xmlns:xlink="http://www.w3.org/1999/xlink">
<g id="graph0" class="graph" transform="scale(1 1) rotate(0) translate(4 171)">
<title>bin/lld_lib/libLLVMDemangle.a</title>
<polygon fill="white" stroke="transparent" points="-4,4 -4,-171 760,-171 760,4 -4,4"/>
<text text-anchor="middle" x="378" y="-7.8" font-family="Times,serif" font-size="14.00">bin/lld_lib/libLLVMDemangle.a</text>
<!-- Node0x5569e5fb5208 -->
<g id="node1" class="node">
<title>Node0x5569e5fb5208</title>
<polygon fill="none" stroke="black" points="326,-113 0,-113 0,-77 326,-77 326,-113"/>
<text text-anchor="middle" x="163" y="-91.3" font-family="Times,serif" font-size="14.00">{lib/libLLVMDemangle.a(Demangle.cpp.o)}</text>
</g>
<!-- Node0x5569e5fb4cb8 -->
<g id="node2" class="node">
<title>Node0x5569e5fb4cb8</title>
<polygon fill="none" stroke="black" points="749.5,-167 368.5,-167 368.5,-131 749.5,-131 749.5,-167"/>
<text text-anchor="middle" x="559" y="-145.3" font-family="Times,serif" font-size="14.00">{lib/libLLVMDemangle.a(ItaniumDemangle.cpp.o)}</text>
</g>
<!-- Node0x5569e5fb5208&#45;&gt;Node0x5569e5fb4cb8 -->
<g id="edge1" class="edge">
<title>Node0x5569e5fb5208&#45;&gt;Node0x5569e5fb4cb8</title>
<path fill="none" stroke="black" d="M295.47,-113.02C334.36,-118.35 377.09,-124.21 416.58,-129.62"/>
<polygon fill="black" stroke="black" points="416.16,-133.09 426.54,-130.98 417.11,-126.16 416.16,-133.09"/>
</g>
<!-- Node0x5569e5fb5938 -->
<g id="node3" class="node">
<title>Node0x5569e5fb5938</title>
<polygon fill="none" stroke="black" points="756,-113 362,-113 362,-77 756,-77 756,-113"/>
<text text-anchor="middle" x="559" y="-91.3" font-family="Times,serif" font-size="14.00">{lib/libLLVMDemangle.a(MicrosoftDemangle.cpp.o)}</text>
</g>
<!-- Node0x5569e5fb5208&#45;&gt;Node0x5569e5fb5938 -->
<g id="edge2" class="edge">
<title>Node0x5569e5fb5208&#45;&gt;Node0x5569e5fb5938</title>
<path fill="none" stroke="black" d="M326.25,-95C334.71,-95 343.26,-95 351.83,-95"/>
<polygon fill="black" stroke="black" points="351.9,-98.5 361.9,-95 351.9,-91.5 351.9,-98.5"/>
</g>
<!-- Node0x5569e5fb34f8 -->
<g id="node4" class="node">
<title>Node0x5569e5fb34f8</title>
<polygon fill="none" stroke="black" points="738.5,-59 379.5,-59 379.5,-23 738.5,-23 738.5,-59"/>
<text text-anchor="middle" x="559" y="-37.3" font-family="Times,serif" font-size="14.00">{lib/libLLVMDemangle.a(RustDemangle.cpp.o)}</text>
</g>
<!-- Node0x5569e5fb5208&#45;&gt;Node0x5569e5fb34f8 -->
<g id="edge3" class="edge">
<title>Node0x5569e5fb5208&#45;&gt;Node0x5569e5fb34f8</title>
<path fill="none" stroke="black" d="M295.47,-76.98C334.36,-71.65 377.09,-65.79 416.58,-60.38"/>
<polygon fill="black" stroke="black" points="417.11,-63.84 426.54,-59.02 416.16,-56.91 417.11,-63.84"/>
</g>
</g>
</svg>
