<?xml version="1.0" encoding="UTF-8" standalone="no"?>
<!DOCTYPE svg PUBLIC "-//W3C//DTD SVG 1.1//EN"
 "http://www.w3.org/Graphics/SVG/1.1/DTD/svg11.dtd">
<!-- Generated by graphviz version 2.43.0 (0)
 -->
<!-- Title: bin/llvm&#45;cxxdump Pages: 1 -->
<svg width="1833pt" height="391pt"
 viewBox="0.00 0.00 1833.00 390.89" xmlns="http://www.w3.org/2000/svg" xmlns:xlink="http://www.w3.org/1999/xlink">
<g id="graph0" class="graph" transform="scale(1 1) rotate(0) translate(4 386.89)">
<title>bin/llvm&#45;cxxdump</title>
<polygon fill="white" stroke="transparent" points="-4,4 -4,-386.89 1829,-386.89 1829,4 -4,4"/>
<text text-anchor="middle" x="912.5" y="-7.8" font-family="Times,serif" font-size="14.00">bin/llvm&#45;cxxdump</text>
<!-- Node0x564a6221d6f8 -->
<g id="node1" class="node">
<title>Node0x564a6221d6f8</title>
<polygon fill="none" stroke="black" points="538,-247.89 0,-247.89 0,-211.89 538,-211.89 538,-247.89"/>
<text text-anchor="middle" x="269" y="-226.19" font-family="Times,serif" font-size="14.00">{tools/llvm&#45;cxxdump/CMakeFiles/llvm&#45;cxxdump.dir/llvm&#45;cxxdump.cpp.o}</text>
</g>
<!-- Node0x564a6221ca78 -->
<g id="node2" class="node">
<title>Node0x564a6221ca78</title>
<polygon fill="none" stroke="black" points="1050,-328.89 574,-328.89 574,-292.89 1050,-292.89 1050,-328.89"/>
<text text-anchor="middle" x="812" y="-307.19" font-family="Times,serif" font-size="14.00">{tools/llvm&#45;cxxdump/CMakeFiles/llvm&#45;cxxdump.dir/Error.cpp.o}</text>
</g>
<!-- Node0x564a6221d6f8&#45;&gt;Node0x564a6221ca78 -->
<g id="edge1" class="edge">
<title>Node0x564a6221d6f8&#45;&gt;Node0x564a6221ca78</title>
<path fill="none" stroke="black" d="M362.89,-247.94C422.96,-259.23 502.92,-273.54 574,-283.89 592.58,-286.6 612.02,-289.2 631.42,-291.63"/>
<polygon fill="black" stroke="black" points="631.2,-295.13 641.56,-292.89 632.07,-288.19 631.2,-295.13"/>
</g>
<!-- Node0x564a622207b8 -->
<g id="node3" class="node">
<title>Node0x564a622207b8</title>
<polygon fill="none" stroke="black" points="904,-220.89 720,-220.89 720,-184.89 904,-184.89 904,-220.89"/>
<text text-anchor="middle" x="812" y="-199.19" font-family="Times,serif" font-size="14.00">{lib/libLLVMX86Info.a}</text>
</g>
<!-- Node0x564a6221d6f8&#45;&gt;Node0x564a622207b8 -->
<g id="edge2" class="edge">
<title>Node0x564a6221d6f8&#45;&gt;Node0x564a622207b8</title>
<path fill="none" stroke="black" d="M538.12,-216.51C599.27,-213.46 660.58,-210.4 709.55,-207.96"/>
<polygon fill="black" stroke="black" points="709.99,-211.44 719.8,-207.45 709.64,-204.45 709.99,-211.44"/>
</g>
<!-- Node0x564a622202b8 -->
<g id="node4" class="node">
<title>Node0x564a622202b8</title>
<polygon fill="none" stroke="black" points="899.5,-274.89 724.5,-274.89 724.5,-238.89 899.5,-238.89 899.5,-274.89"/>
<text text-anchor="middle" x="812" y="-253.19" font-family="Times,serif" font-size="14.00">{lib/libLLVMObject.a}</text>
</g>
<!-- Node0x564a6221d6f8&#45;&gt;Node0x564a622202b8 -->
<g id="edge3" class="edge">
<title>Node0x564a6221d6f8&#45;&gt;Node0x564a622202b8</title>
<path fill="none" stroke="black" d="M538.12,-243.28C601.26,-246.43 664.57,-249.59 714.29,-252.07"/>
<polygon fill="black" stroke="black" points="714.21,-255.57 724.37,-252.57 714.56,-248.58 714.21,-255.57"/>
</g>
<!-- Node0x564a6221c758 -->
<g id="node5" class="node">
<title>Node0x564a6221c758</title>
<polygon fill="none" stroke="black" points="905,-166.89 719,-166.89 719,-130.89 905,-130.89 905,-166.89"/>
<text text-anchor="middle" x="812" y="-145.19" font-family="Times,serif" font-size="14.00">{lib/libLLVMSupport.a}</text>
</g>
<!-- Node0x564a6221d6f8&#45;&gt;Node0x564a6221c758 -->
<g id="edge4" class="edge">
<title>Node0x564a6221d6f8&#45;&gt;Node0x564a6221c758</title>
<path fill="none" stroke="black" d="M362.89,-211.84C422.96,-200.56 502.92,-186.25 574,-175.89 618.01,-169.48 666.8,-163.7 708.62,-159.15"/>
<polygon fill="black" stroke="black" points="709.25,-162.6 718.82,-158.05 708.5,-155.64 709.25,-162.6"/>
</g>
<!-- Node0x564a622207b8&#45;&gt;Node0x564a6221c758 -->
<g id="edge5" class="edge">
<title>Node0x564a622207b8&#45;&gt;Node0x564a6221c758</title>
<path fill="none" stroke="black" d="M812,-184.68C812,-182.2 812,-179.72 812,-177.24"/>
<polygon fill="black" stroke="black" points="815.5,-177.03 812,-167.03 808.5,-177.03 815.5,-177.03"/>
</g>
<!-- Node0x564a622202b8&#45;&gt;Node0x564a6221c758 -->
<g id="edge6" class="edge">
<title>Node0x564a622202b8&#45;&gt;Node0x564a6221c758</title>
<path fill="none" stroke="black" d="M724.21,-274.15C664.08,-280.22 589.39,-274.92 556,-220.89 518.06,-159.51 621.89,-146.24 708.51,-145.22"/>
<polygon fill="black" stroke="black" points="708.74,-148.72 718.71,-145.15 708.69,-141.72 708.74,-148.72"/>
</g>
<!-- Node0x564a6221a458 -->
<g id="node6" class="node">
<title>Node0x564a6221a458</title>
<polygon fill="none" stroke="black" points="1313,-112.89 1086,-112.89 1086,-76.89 1313,-76.89 1313,-112.89"/>
<text text-anchor="middle" x="1199.5" y="-91.19" font-family="Times,serif" font-size="14.00">{lib/libLLVMBinaryFormat.a}</text>
</g>
<!-- Node0x564a622202b8&#45;&gt;Node0x564a6221a458 -->
<g id="edge7" class="edge">
<title>Node0x564a622202b8&#45;&gt;Node0x564a6221a458</title>
<path fill="none" stroke="black" d="M899.76,-268.4C948.88,-270.1 1008.58,-263.47 1050,-229.89 1089.3,-198.03 1048.71,-156.1 1086,-121.89 1087.13,-120.85 1088.3,-119.85 1089.5,-118.89"/>
<polygon fill="black" stroke="black" points="1091.64,-121.66 1097.79,-113.04 1087.6,-115.94 1091.64,-121.66"/>
</g>
<!-- Node0x564a6221d338 -->
<g id="node7" class="node">
<title>Node0x564a6221d338</title>
<polygon fill="none" stroke="black" points="1276,-166.89 1123,-166.89 1123,-130.89 1276,-130.89 1276,-166.89"/>
<text text-anchor="middle" x="1199.5" y="-145.19" font-family="Times,serif" font-size="14.00">{lib/libLLVMMC.a}</text>
</g>
<!-- Node0x564a622202b8&#45;&gt;Node0x564a6221d338 -->
<g id="edge8" class="edge">
<title>Node0x564a622202b8&#45;&gt;Node0x564a6221d338</title>
<path fill="none" stroke="black" d="M899.54,-264.11C947.13,-264.08 1005.38,-257.14 1050,-229.89 1074.62,-214.86 1062.34,-192.4 1086,-175.89 1094.22,-170.16 1103.5,-165.64 1113.13,-162.07"/>
<polygon fill="black" stroke="black" points="1114.47,-165.31 1122.84,-158.81 1112.24,-158.68 1114.47,-165.31"/>
</g>
<!-- Node0x564a6221cc58 -->
<g id="node8" class="node">
<title>Node0x564a6221cc58</title>
<polygon fill="none" stroke="black" points="1299,-328.89 1100,-328.89 1100,-292.89 1299,-292.89 1299,-328.89"/>
<text text-anchor="middle" x="1199.5" y="-307.19" font-family="Times,serif" font-size="14.00">{lib/libLLVMBitReader.a}</text>
</g>
<!-- Node0x564a622202b8&#45;&gt;Node0x564a6221cc58 -->
<g id="edge9" class="edge">
<title>Node0x564a622202b8&#45;&gt;Node0x564a6221cc58</title>
<path fill="none" stroke="black" d="M899.58,-265.36C944.54,-270.11 1000.33,-276.56 1050,-283.89 1064.43,-286.03 1079.6,-288.51 1094.51,-291.08"/>
<polygon fill="black" stroke="black" points="1094.33,-294.6 1104.78,-292.88 1095.54,-287.71 1094.33,-294.6"/>
</g>
<!-- Node0x564a6221bdf8 -->
<g id="node9" class="node">
<title>Node0x564a6221bdf8</title>
<polygon fill="none" stroke="black" points="1280.5,-274.89 1118.5,-274.89 1118.5,-238.89 1280.5,-238.89 1280.5,-274.89"/>
<text text-anchor="middle" x="1199.5" y="-253.19" font-family="Times,serif" font-size="14.00">{lib/libLLVMCore.a}</text>
</g>
<!-- Node0x564a622202b8&#45;&gt;Node0x564a6221bdf8 -->
<g id="edge10" class="edge">
<title>Node0x564a622202b8&#45;&gt;Node0x564a6221bdf8</title>
<path fill="none" stroke="black" d="M899.51,-256.89C961.55,-256.89 1044.93,-256.89 1107.88,-256.89"/>
<polygon fill="black" stroke="black" points="1108.19,-260.39 1118.19,-256.89 1108.19,-253.39 1108.19,-260.39"/>
</g>
<!-- Node0x564a6221e058 -->
<g id="node10" class="node">
<title>Node0x564a6221e058</title>
<polygon fill="none" stroke="black" points="1298.5,-382.89 1100.5,-382.89 1100.5,-346.89 1298.5,-346.89 1298.5,-382.89"/>
<text text-anchor="middle" x="1199.5" y="-361.19" font-family="Times,serif" font-size="14.00">{lib/libLLVMMCParser.a}</text>
</g>
<!-- Node0x564a622202b8&#45;&gt;Node0x564a6221e058 -->
<g id="edge11" class="edge">
<title>Node0x564a622202b8&#45;&gt;Node0x564a6221e058</title>
<path fill="none" stroke="black" d="M899.54,-249.68C947.13,-249.71 1005.38,-256.65 1050,-283.89 1074.62,-298.92 1062.34,-321.39 1086,-337.89 1088.13,-339.38 1090.32,-340.78 1092.58,-342.11"/>
<polygon fill="black" stroke="black" points="1091.07,-345.27 1101.55,-346.85 1094.35,-339.08 1091.07,-345.27"/>
</g>
<!-- Node0x564a62219f58 -->
<g id="node11" class="node">
<title>Node0x564a62219f58</title>
<polygon fill="none" stroke="black" points="1291.5,-220.89 1107.5,-220.89 1107.5,-184.89 1291.5,-184.89 1291.5,-220.89"/>
<text text-anchor="middle" x="1199.5" y="-199.19" font-family="Times,serif" font-size="14.00">{lib/libLLVMTextAPI.a}</text>
</g>
<!-- Node0x564a622202b8&#45;&gt;Node0x564a62219f58 -->
<g id="edge12" class="edge">
<title>Node0x564a622202b8&#45;&gt;Node0x564a62219f58</title>
<path fill="none" stroke="black" d="M899.58,-248.43C944.54,-243.68 1000.33,-237.23 1050,-229.89 1065.2,-227.65 1081.24,-225.01 1096.92,-222.29"/>
<polygon fill="black" stroke="black" points="1097.92,-225.67 1107.16,-220.49 1096.71,-218.77 1097.92,-225.67"/>
</g>
<!-- Node0x564a6221a458&#45;&gt;Node0x564a6221c758 -->
<g id="edge13" class="edge">
<title>Node0x564a6221a458&#45;&gt;Node0x564a6221c758</title>
<path fill="none" stroke="black" d="M1085.94,-110.66C1032.01,-118.22 967.88,-127.2 915.34,-134.56"/>
<polygon fill="black" stroke="black" points="914.75,-131.11 905.34,-135.96 915.73,-138.04 914.75,-131.11"/>
</g>
<!-- Node0x564a6221d338&#45;&gt;Node0x564a6221c758 -->
<g id="edge14" class="edge">
<title>Node0x564a6221d338&#45;&gt;Node0x564a6221c758</title>
<path fill="none" stroke="black" d="M1122.77,-148.89C1063.6,-148.89 980.76,-148.89 915.63,-148.89"/>
<polygon fill="black" stroke="black" points="915.34,-145.39 905.34,-148.89 915.34,-152.39 915.34,-145.39"/>
</g>
<!-- Node0x564a6221d338&#45;&gt;Node0x564a6221a458 -->
<g id="edge15" class="edge">
<title>Node0x564a6221d338&#45;&gt;Node0x564a6221a458</title>
<path fill="none" stroke="black" d="M1199.5,-130.68C1199.5,-128.2 1199.5,-125.72 1199.5,-123.24"/>
<polygon fill="black" stroke="black" points="1203,-123.03 1199.5,-113.03 1196,-123.03 1203,-123.03"/>
</g>
<!-- Node0x564a6221cc58&#45;&gt;Node0x564a6221c758 -->
<g id="edge16" class="edge">
<title>Node0x564a6221cc58&#45;&gt;Node0x564a6221c758</title>
<path fill="none" stroke="black" d="M1099.87,-293.99C1094.89,-291.11 1090.22,-287.76 1086,-283.89 1048.71,-249.69 1089.3,-207.76 1050,-175.89 1012.92,-145.83 961.17,-137.37 915.49,-137.15"/>
<polygon fill="black" stroke="black" points="915.21,-133.65 905.24,-137.23 915.27,-140.65 915.21,-133.65"/>
</g>
<!-- Node0x564a6221cc58&#45;&gt;Node0x564a6221bdf8 -->
<g id="edge17" class="edge">
<title>Node0x564a6221cc58&#45;&gt;Node0x564a6221bdf8</title>
<path fill="none" stroke="black" d="M1199.5,-292.68C1199.5,-290.2 1199.5,-287.72 1199.5,-285.24"/>
<polygon fill="black" stroke="black" points="1203,-285.03 1199.5,-275.03 1196,-285.03 1203,-285.03"/>
</g>
<!-- Node0x564a6221dc48 -->
<g id="node12" class="node">
<title>Node0x564a6221dc48</title>
<polygon fill="none" stroke="black" points="1825,-220.89 1576,-220.89 1576,-184.89 1825,-184.89 1825,-220.89"/>
<text text-anchor="middle" x="1700.5" y="-199.19" font-family="Times,serif" font-size="14.00">{lib/libLLVMBitstreamReader.a}</text>
</g>
<!-- Node0x564a6221cc58&#45;&gt;Node0x564a6221dc48 -->
<g id="edge18" class="edge">
<title>Node0x564a6221cc58&#45;&gt;Node0x564a6221dc48</title>
<path fill="none" stroke="black" d="M1283.74,-292.88C1372.7,-273.62 1513.41,-243.17 1606.09,-223.11"/>
<polygon fill="black" stroke="black" points="1606.99,-226.5 1616.02,-220.96 1605.51,-219.66 1606.99,-226.5"/>
</g>
<!-- Node0x564a6221bdf8&#45;&gt;Node0x564a6221c758 -->
<g id="edge19" class="edge">
<title>Node0x564a6221bdf8&#45;&gt;Node0x564a6221c758</title>
<path fill="none" stroke="black" d="M1118.44,-245.58C1106.93,-241.76 1095.72,-236.68 1086,-229.89 1062.34,-213.39 1074.62,-190.92 1050,-175.89 1010.24,-151.62 959.66,-143.47 915.45,-141.95"/>
<polygon fill="black" stroke="black" points="915.32,-138.45 905.24,-141.71 915.16,-145.45 915.32,-138.45"/>
</g>
<!-- Node0x564a6221bdf8&#45;&gt;Node0x564a6221a458 -->
<g id="edge20" class="edge">
<title>Node0x564a6221bdf8&#45;&gt;Node0x564a6221a458</title>
<path fill="none" stroke="black" d="M1118.43,-253.71C1098.13,-248.51 1079.01,-238.71 1068,-220.89 1046.97,-186.87 1046.97,-164.92 1068,-130.89 1070.84,-126.29 1074.23,-122.23 1078.03,-118.64"/>
<polygon fill="black" stroke="black" points="1080.28,-121.32 1085.84,-112.3 1075.87,-115.89 1080.28,-121.32"/>
</g>
<!-- Node0x564a6221c2f8 -->
<g id="node13" class="node">
<title>Node0x564a6221c2f8</title>
<polygon fill="none" stroke="black" points="1540,-220.89 1349,-220.89 1349,-184.89 1540,-184.89 1540,-220.89"/>
<text text-anchor="middle" x="1444.5" y="-199.19" font-family="Times,serif" font-size="14.00">{lib/libLLVMRemarks.a}</text>
</g>
<!-- Node0x564a6221bdf8&#45;&gt;Node0x564a6221c2f8 -->
<g id="edge21" class="edge">
<title>Node0x564a6221bdf8&#45;&gt;Node0x564a6221c2f8</title>
<path fill="none" stroke="black" d="M1280.74,-239.06C1303.6,-233.98 1328.68,-228.41 1352.15,-223.19"/>
<polygon fill="black" stroke="black" points="1353.09,-226.57 1362.1,-220.98 1351.58,-219.74 1353.09,-226.57"/>
</g>
<!-- Node0x564a6221e058&#45;&gt;Node0x564a6221c758 -->
<g id="edge22" class="edge">
<title>Node0x564a6221e058&#45;&gt;Node0x564a6221c758</title>
<path fill="none" stroke="black" d="M1100.41,-349.12C1095.16,-345.97 1090.3,-342.26 1086,-337.89 1034.29,-285.3 1104.82,-225.23 1050,-175.89 1014.08,-143.57 961.67,-135.1 915.26,-135.46"/>
<polygon fill="black" stroke="black" points="915.07,-131.96 905.15,-135.68 915.22,-138.96 915.07,-131.96"/>
</g>
<!-- Node0x564a6221e058&#45;&gt;Node0x564a6221d338 -->
<g id="edge23" class="edge">
<title>Node0x564a6221e058&#45;&gt;Node0x564a6221d338</title>
<path fill="none" stroke="black" d="M1100.37,-355.57C1087.22,-349.79 1075.65,-341.28 1068,-328.89 1051.18,-301.67 1051.18,-212.12 1068,-184.89 1078.07,-168.61 1094.9,-159.02 1113.23,-153.52"/>
<polygon fill="black" stroke="black" points="1114.11,-156.9 1122.91,-151 1112.36,-150.13 1114.11,-156.9"/>
</g>
<!-- Node0x564a62219f58&#45;&gt;Node0x564a6221c758 -->
<g id="edge24" class="edge">
<title>Node0x564a62219f58&#45;&gt;Node0x564a6221c758</title>
<path fill="none" stroke="black" d="M1107.16,-185.3C1088.3,-181.95 1068.53,-178.63 1050,-175.89 1006,-169.4 957.21,-163.6 915.39,-159.06"/>
<polygon fill="black" stroke="black" points="915.51,-155.55 905.19,-157.96 914.76,-162.51 915.51,-155.55"/>
</g>
<!-- Node0x564a62219f58&#45;&gt;Node0x564a6221c2f8 -->
<g id="edge25" class="edge">
<title>Node0x564a62219f58&#45;&gt;Node0x564a6221c2f8</title>
<path fill="none" stroke="black" d="M1291.68,-202.89C1307.03,-202.89 1323.08,-202.89 1338.75,-202.89"/>
<polygon fill="black" stroke="black" points="1338.98,-206.39 1348.98,-202.89 1338.98,-199.39 1338.98,-206.39"/>
</g>
<!-- Node0x564a6221dc48&#45;&gt;Node0x564a6221c758 -->
<g id="edge26" class="edge">
<title>Node0x564a6221dc48&#45;&gt;Node0x564a6221c758</title>
<path fill="none" stroke="black" d="M1668.85,-184.67C1605.23,-148.05 1453.1,-66.55 1313,-37.89 1214.16,-17.68 1185.01,-18.53 1086,-37.89 1000.03,-54.7 906.93,-98.68 854.7,-125.97"/>
<polygon fill="black" stroke="black" points="852.96,-122.93 845.75,-130.69 856.23,-129.12 852.96,-122.93"/>
</g>
<!-- Node0x564a6221c2f8&#45;&gt;Node0x564a6221c758 -->
<g id="edge27" class="edge">
<title>Node0x564a6221c2f8&#45;&gt;Node0x564a6221c758</title>
<path fill="none" stroke="black" d="M1432.71,-184.44C1413.35,-153.41 1369.42,-91.83 1313,-67.89 1154.47,-0.65 945.91,-83.67 856.62,-126.42"/>
<polygon fill="black" stroke="black" points="855.06,-123.29 847.6,-130.8 858.12,-129.58 855.06,-123.29"/>
</g>
<!-- Node0x564a6221c2f8&#45;&gt;Node0x564a6221dc48 -->
<g id="edge28" class="edge">
<title>Node0x564a6221c2f8&#45;&gt;Node0x564a6221dc48</title>
<path fill="none" stroke="black" d="M1540.08,-202.89C1548.49,-202.89 1557.11,-202.89 1565.77,-202.89"/>
<polygon fill="black" stroke="black" points="1565.95,-206.39 1575.95,-202.89 1565.95,-199.39 1565.95,-206.39"/>
</g>
</g>
</svg>
