<?xml version="1.0" encoding="UTF-8" standalone="no"?>
<!DOCTYPE svg PUBLIC "-//W3C//DTD SVG 1.1//EN"
 "http://www.w3.org/Graphics/SVG/1.1/DTD/svg11.dtd">
<!-- Generated by graphviz version 2.43.0 (0)
 -->
<!-- Title: bin/llvm&#45;cfi&#45;verify_lib/libLLVMObject.a Pages: 1 -->
<svg width="2265pt" height="811pt"
 viewBox="0.00 0.00 2265.00 811.00" xmlns="http://www.w3.org/2000/svg" xmlns:xlink="http://www.w3.org/1999/xlink">
<g id="graph0" class="graph" transform="scale(1 1) rotate(0) translate(4 807)">
<title>bin/llvm&#45;cfi&#45;verify_lib/libLLVMObject.a</title>
<polygon fill="white" stroke="transparent" points="-4,4 -4,-807 2261,-807 2261,4 -4,4"/>
<text text-anchor="middle" x="1128.5" y="-7.8" font-family="Times,serif" font-size="14.00">bin/llvm&#45;cfi&#45;verify_lib/libLLVMObject.a</text>
<!-- Node0x55b33a3e56b8 -->
<g id="node1" class="node">
<title>Node0x55b33a3e56b8</title>
<polygon fill="#7fb2ff" stroke="black" points="639.5,-435 366.5,-435 366.5,-399 639.5,-399 639.5,-435"/>
<text text-anchor="middle" x="503" y="-413.3" font-family="Times,serif" font-size="14.00">{lib/libLLVMObject.a(Binary.cpp.o)}</text>
</g>
<!-- Node0x55b33a3e6018 -->
<g id="node2" class="node">
<title>Node0x55b33a3e6018</title>
<polygon fill="none" stroke="black" points="1033.5,-105 767.5,-105 767.5,-69 1033.5,-69 1033.5,-105"/>
<text text-anchor="middle" x="900.5" y="-83.3" font-family="Times,serif" font-size="14.00">{lib/libLLVMObject.a(Error.cpp.o)}</text>
</g>
<!-- Node0x55b33a3e56b8&#45;&gt;Node0x55b33a3e6018 -->
<g id="edge1" class="edge">
<title>Node0x55b33a3e56b8&#45;&gt;Node0x55b33a3e6018</title>
<path fill="none" stroke="black" d="M511.31,-398.88C533.69,-345.9 606.82,-190.49 721,-119 732.38,-111.87 744.92,-106.24 757.93,-101.78"/>
<polygon fill="black" stroke="black" points="759,-105.12 767.46,-98.75 756.87,-98.45 759,-105.12"/>
</g>
<!-- Node0x55b33a3e66f8 -->
<g id="node3" class="node">
<title>Node0x55b33a3e66f8</title>
<polygon fill="#7fb2ff" stroke="black" points="1060.5,-327 740.5,-327 740.5,-291 1060.5,-291 1060.5,-327"/>
<text text-anchor="middle" x="900.5" y="-305.3" font-family="Times,serif" font-size="14.00">{lib/libLLVMObject.a(SymbolicFile.cpp.o)}</text>
</g>
<!-- Node0x55b33a3e56b8&#45;&gt;Node0x55b33a3e66f8 -->
<g id="edge2" class="edge">
<title>Node0x55b33a3e56b8&#45;&gt;Node0x55b33a3e66f8</title>
<path fill="none" stroke="#7fb2ff" d="M540.58,-399C577.51,-385.13 635.95,-365.7 685,-345 701.48,-338.05 703.95,-332.4 721,-327 724.14,-326.01 727.32,-325.05 730.53,-324.13"/>
<polygon fill="#7fb2ff" stroke="#7fb2ff" points="731.54,-327.48 740.27,-321.46 729.7,-320.72 731.54,-327.48"/>
</g>
<!-- Node0x55b33a3db8e8 -->
<g id="node4" class="node">
<title>Node0x55b33a3db8e8</title>
<polygon fill="#7fb2ff" stroke="black" points="1041.5,-381 759.5,-381 759.5,-345 1041.5,-345 1041.5,-381"/>
<text text-anchor="middle" x="900.5" y="-359.3" font-family="Times,serif" font-size="14.00">{lib/libLLVMObject.a(Archive.cpp.o)}</text>
</g>
<!-- Node0x55b33a3e56b8&#45;&gt;Node0x55b33a3db8e8 -->
<g id="edge3" class="edge">
<title>Node0x55b33a3e56b8&#45;&gt;Node0x55b33a3db8e8</title>
<path fill="none" stroke="#7fb2ff" d="M593.75,-398.99C639.67,-391.78 696.81,-383.71 749.22,-376.94"/>
<polygon fill="#7fb2ff" stroke="#7fb2ff" points="749.82,-380.4 759.29,-375.65 748.93,-373.45 749.82,-380.4"/>
</g>
<!-- Node0x55b33a3dce78 -->
<g id="node5" class="node">
<title>Node0x55b33a3dce78</title>
<polygon fill="#7fb2ff" stroke="black" points="1074,-435 727,-435 727,-399 1074,-399 1074,-435"/>
<text text-anchor="middle" x="900.5" y="-413.3" font-family="Times,serif" font-size="14.00">{lib/libLLVMObject.a(MachOUniversal.cpp.o)}</text>
</g>
<!-- Node0x55b33a3e56b8&#45;&gt;Node0x55b33a3dce78 -->
<g id="edge4" class="edge">
<title>Node0x55b33a3e56b8&#45;&gt;Node0x55b33a3dce78</title>
<path fill="none" stroke="#7fb2ff" d="M639.56,-410.56C664.33,-410.3 690.55,-410.21 716.44,-410.27"/>
<polygon fill="#7fb2ff" stroke="#7fb2ff" points="716.72,-413.77 726.73,-410.3 716.74,-406.77 716.72,-413.77"/>
</g>
<!-- Node0x55b33a3dc798 -->
<g id="node6" class="node">
<title>Node0x55b33a3dc798</title>
<polygon fill="#7fb2ff" stroke="black" points="1051,-197 750,-197 750,-161 1051,-161 1051,-197"/>
<text text-anchor="middle" x="900.5" y="-175.3" font-family="Times,serif" font-size="14.00">{lib/libLLVMObject.a(Minidump.cpp.o)}</text>
</g>
<!-- Node0x55b33a3e56b8&#45;&gt;Node0x55b33a3dc798 -->
<g id="edge5" class="edge">
<title>Node0x55b33a3e56b8&#45;&gt;Node0x55b33a3dc798</title>
<path fill="none" stroke="#7fb2ff" d="M513.86,-398.96C541.59,-356.28 624.59,-250.78 721,-202 727.13,-198.9 733.52,-196.09 740.07,-193.56"/>
<polygon fill="#7fb2ff" stroke="#7fb2ff" points="741.57,-196.74 749.78,-190.04 739.18,-190.16 741.57,-196.74"/>
</g>
<!-- Node0x55b33a3dca68 -->
<g id="node7" class="node">
<title>Node0x55b33a3dca68</title>
<polygon fill="#7fb2ff" stroke="black" points="1080,-581 721,-581 721,-545 1080,-545 1080,-581"/>
<text text-anchor="middle" x="900.5" y="-559.3" font-family="Times,serif" font-size="14.00">{lib/libLLVMObject.a(WindowsResource.cpp.o)}</text>
</g>
<!-- Node0x55b33a3e56b8&#45;&gt;Node0x55b33a3dca68 -->
<g id="edge6" class="edge">
<title>Node0x55b33a3e56b8&#45;&gt;Node0x55b33a3dca68</title>
<path fill="none" stroke="#7fb2ff" d="M542.36,-435.18C584.5,-458.93 654.99,-499.35 721,-522 747.92,-531.24 778.09,-537.94 805.85,-543.15"/>
<polygon fill="#7fb2ff" stroke="#7fb2ff" points="805.49,-546.64 815.96,-545 806.75,-539.75 805.49,-546.64"/>
</g>
<!-- Node0x55b33a3deae8 -->
<g id="node8" class="node">
<title>Node0x55b33a3deae8</title>
<polygon fill="#7fb2ff" stroke="black" points="1064,-673 737,-673 737,-637 1064,-637 1064,-673"/>
<text text-anchor="middle" x="900.5" y="-651.3" font-family="Times,serif" font-size="14.00">{lib/libLLVMObject.a(TapiUniversal.cpp.o)}</text>
</g>
<!-- Node0x55b33a3e56b8&#45;&gt;Node0x55b33a3deae8 -->
<g id="edge7" class="edge">
<title>Node0x55b33a3e56b8&#45;&gt;Node0x55b33a3deae8</title>
<path fill="none" stroke="#7fb2ff" d="M520.96,-435.23C554.04,-475.13 631.77,-568.86 721,-614 739.23,-623.22 759.68,-629.83 780.06,-634.69"/>
<polygon fill="#7fb2ff" stroke="#7fb2ff" points="779.53,-638.16 790.05,-636.94 781.07,-631.33 779.53,-638.16"/>
</g>
<!-- Node0x55b33a3e66f8&#45;&gt;Node0x55b33a3e56b8 -->
<g id="edge22" class="edge">
<title>Node0x55b33a3e66f8&#45;&gt;Node0x55b33a3e56b8</title>
<path fill="none" stroke="#7fb2ff" d="M800.5,-327.02C774.27,-331.34 746.25,-337 721,-345 703.95,-350.4 701.48,-356.05 685,-363 656.77,-374.91 625.43,-386.41 596.87,-395.82"/>
<polygon fill="#7fb2ff" stroke="#7fb2ff" points="595.72,-392.51 587.29,-398.93 597.89,-399.17 595.72,-392.51"/>
</g>
<!-- Node0x55b33a3e66f8&#45;&gt;Node0x55b33a3e6018 -->
<g id="edge23" class="edge">
<title>Node0x55b33a3e66f8&#45;&gt;Node0x55b33a3e6018</title>
<path fill="none" stroke="black" d="M740.09,-300.79C725.09,-293.32 712.11,-282.75 703,-268 690.5,-247.77 690.5,-181.23 703,-161 718.28,-136.27 743.08,-119.76 770.02,-108.76"/>
<polygon fill="black" stroke="black" points="771.54,-111.93 779.63,-105.09 769.04,-105.39 771.54,-111.93"/>
</g>
<!-- Node0x55b33a3e6f18 -->
<g id="node9" class="node">
<title>Node0x55b33a3e6f18</title>
<polygon fill="#7fb2ff" stroke="black" points="1443,-397 1141,-397 1141,-361 1443,-361 1443,-397"/>
<text text-anchor="middle" x="1292" y="-375.3" font-family="Times,serif" font-size="14.00">{lib/libLLVMObject.a(ObjectFile.cpp.o)}</text>
</g>
<!-- Node0x55b33a3e66f8&#45;&gt;Node0x55b33a3e6f18 -->
<g id="edge24" class="edge">
<title>Node0x55b33a3e66f8&#45;&gt;Node0x55b33a3e6f18</title>
<path fill="none" stroke="#7fb2ff" d="M1060.62,-321.82C1067.2,-323.43 1073.68,-325.15 1080,-327 1096.81,-331.91 1099.2,-338.07 1116,-343 1139.46,-349.89 1165.24,-355.11 1189.63,-359.29"/>
<polygon fill="#7fb2ff" stroke="#7fb2ff" points="1189.18,-362.76 1199.62,-360.96 1190.33,-355.86 1189.18,-362.76"/>
</g>
<!-- Node0x55b33a3dc838 -->
<g id="node10" class="node">
<title>Node0x55b33a3dc838</title>
<polygon fill="#7fb2ff" stroke="black" points="1450.5,-451 1133.5,-451 1133.5,-415 1450.5,-415 1450.5,-451"/>
<text text-anchor="middle" x="1292" y="-429.3" font-family="Times,serif" font-size="14.00">{lib/libLLVMObject.a(IRObjectFile.cpp.o)}</text>
</g>
<!-- Node0x55b33a3e66f8&#45;&gt;Node0x55b33a3dc838 -->
<g id="edge25" class="edge">
<title>Node0x55b33a3e66f8&#45;&gt;Node0x55b33a3dc838</title>
<path fill="none" stroke="#7fb2ff" d="M1060.54,-315.53C1067.36,-318.81 1073.89,-322.61 1080,-327 1108.41,-347.41 1087.62,-376.55 1116,-397 1123.87,-402.67 1132.45,-407.35 1141.46,-411.22"/>
<polygon fill="#7fb2ff" stroke="#7fb2ff" points="1140.4,-414.56 1150.99,-414.96 1142.96,-408.05 1140.4,-414.56"/>
</g>
<!-- Node0x55b33a3db8e8&#45;&gt;Node0x55b33a3e56b8 -->
<g id="edge26" class="edge">
<title>Node0x55b33a3db8e8&#45;&gt;Node0x55b33a3e56b8</title>
<path fill="none" stroke="#7fb2ff" d="M809.78,-381.01C762.45,-388.44 703.21,-396.79 649.51,-403.67"/>
<polygon fill="#7fb2ff" stroke="#7fb2ff" points="649.03,-400.2 639.56,-404.94 649.92,-407.15 649.03,-400.2"/>
</g>
<!-- Node0x55b33a3db8e8&#45;&gt;Node0x55b33a3e6018 -->
<g id="edge27" class="edge">
<title>Node0x55b33a3db8e8&#45;&gt;Node0x55b33a3e6018</title>
<path fill="none" stroke="black" d="M759.04,-366.33C736.11,-359.68 715.73,-347.61 703,-327 683.61,-295.62 683.61,-192.38 703,-161 718.28,-136.27 743.08,-119.76 770.02,-108.76"/>
<polygon fill="black" stroke="black" points="771.54,-111.93 779.63,-105.09 769.04,-105.39 771.54,-111.93"/>
</g>
<!-- Node0x55b33a3db8e8&#45;&gt;Node0x55b33a3e66f8 -->
<g id="edge28" class="edge">
<title>Node0x55b33a3db8e8&#45;&gt;Node0x55b33a3e66f8</title>
<path fill="none" stroke="#7fb2ff" d="M900.5,-344.79C900.5,-342.31 900.5,-339.83 900.5,-337.34"/>
<polygon fill="#7fb2ff" stroke="#7fb2ff" points="904,-337.14 900.5,-327.14 897,-337.14 904,-337.14"/>
</g>
<!-- Node0x55b33a3dce78&#45;&gt;Node0x55b33a3e56b8 -->
<g id="edge17" class="edge">
<title>Node0x55b33a3dce78&#45;&gt;Node0x55b33a3e56b8</title>
<path fill="none" stroke="#7fb2ff" d="M726.73,-423.7C701.08,-423.8 674.85,-423.75 649.83,-423.54"/>
<polygon fill="#7fb2ff" stroke="#7fb2ff" points="649.59,-420.04 639.56,-423.44 649.52,-427.04 649.59,-420.04"/>
</g>
<!-- Node0x55b33a3dce78&#45;&gt;Node0x55b33a3e6018 -->
<g id="edge18" class="edge">
<title>Node0x55b33a3dce78&#45;&gt;Node0x55b33a3e6018</title>
<path fill="none" stroke="black" d="M726.99,-405.76C717.53,-399.35 709.32,-391.23 703,-381 690.15,-360.21 690.15,-181.79 703,-161 718.28,-136.27 743.08,-119.76 770.02,-108.76"/>
<polygon fill="black" stroke="black" points="771.54,-111.93 779.63,-105.09 769.04,-105.39 771.54,-111.93"/>
</g>
<!-- Node0x55b33a3dce78&#45;&gt;Node0x55b33a3db8e8 -->
<g id="edge21" class="edge">
<title>Node0x55b33a3dce78&#45;&gt;Node0x55b33a3db8e8</title>
<path fill="none" stroke="#7fb2ff" d="M900.5,-398.79C900.5,-396.31 900.5,-393.83 900.5,-391.34"/>
<polygon fill="#7fb2ff" stroke="#7fb2ff" points="904,-391.14 900.5,-381.14 897,-391.14 904,-391.14"/>
</g>
<!-- Node0x55b33a3dce78&#45;&gt;Node0x55b33a3dc838 -->
<g id="edge20" class="edge">
<title>Node0x55b33a3dce78&#45;&gt;Node0x55b33a3dc838</title>
<path fill="none" stroke="#7fb2ff" d="M1074.04,-424.09C1090.39,-424.76 1106.94,-425.44 1123.24,-426.11"/>
<polygon fill="#7fb2ff" stroke="#7fb2ff" points="1123.22,-429.61 1133.36,-426.52 1123.51,-422.62 1123.22,-429.61"/>
</g>
<!-- Node0x55b33a3e76e8 -->
<g id="node11" class="node">
<title>Node0x55b33a3e76e8</title>
<polygon fill="#7fb2ff" stroke="black" points="1468,-251 1116,-251 1116,-215 1468,-215 1468,-251"/>
<text text-anchor="middle" x="1292" y="-229.3" font-family="Times,serif" font-size="14.00">{lib/libLLVMObject.a(MachOObjectFile.cpp.o)}</text>
</g>
<!-- Node0x55b33a3dce78&#45;&gt;Node0x55b33a3e76e8 -->
<g id="edge19" class="edge">
<title>Node0x55b33a3dce78&#45;&gt;Node0x55b33a3e76e8</title>
<path fill="none" stroke="#7fb2ff" d="M1067.26,-398.8C1071.7,-396.15 1075.96,-393.23 1080,-390 1114.31,-362.6 1084.68,-328.78 1116,-298 1136.28,-278.07 1163.21,-264.17 1189.85,-254.5"/>
<polygon fill="#7fb2ff" stroke="#7fb2ff" points="1191.33,-257.69 1199.64,-251.13 1189.05,-251.08 1191.33,-257.69"/>
</g>
<!-- Node0x55b33a3dc798&#45;&gt;Node0x55b33a3e56b8 -->
<g id="edge29" class="edge">
<title>Node0x55b33a3dc798&#45;&gt;Node0x55b33a3e56b8</title>
<path fill="none" stroke="#7fb2ff" d="M790.05,-197.06C766.44,-202.08 742.21,-209.27 721,-220 637.18,-262.41 563.49,-347.7 527.45,-390.95"/>
<polygon fill="#7fb2ff" stroke="#7fb2ff" points="524.66,-388.84 520.96,-398.77 530.04,-393.31 524.66,-388.84"/>
</g>
<!-- Node0x55b33a3dc798&#45;&gt;Node0x55b33a3e6018 -->
<g id="edge30" class="edge">
<title>Node0x55b33a3dc798&#45;&gt;Node0x55b33a3e6018</title>
<path fill="none" stroke="black" d="M900.5,-160.87C900.5,-145.83 900.5,-130.78 900.5,-115.74"/>
<polygon fill="black" stroke="black" points="904,-115.33 900.5,-105.33 897,-115.33 904,-115.33"/>
</g>
<!-- Node0x55b33a3e6298 -->
<g id="node12" class="node">
<title>Node0x55b33a3e6298</title>
<polygon fill="#7fb2ff" stroke="black" points="1457.5,-197 1126.5,-197 1126.5,-161 1457.5,-161 1457.5,-197"/>
<text text-anchor="middle" x="1292" y="-175.3" font-family="Times,serif" font-size="14.00">{lib/libLLVMObject.a(ELFObjectFile.cpp.o)}</text>
</g>
<!-- Node0x55b33a3dc798&#45;&gt;Node0x55b33a3e6298 -->
<g id="edge31" class="edge">
<title>Node0x55b33a3dc798&#45;&gt;Node0x55b33a3e6298</title>
<path fill="none" stroke="#7fb2ff" d="M1051.26,-179C1072.45,-179 1094.4,-179 1116.01,-179"/>
<polygon fill="#7fb2ff" stroke="#7fb2ff" points="1116.26,-182.5 1126.26,-179 1116.26,-175.5 1116.26,-182.5"/>
</g>
<!-- Node0x55b33a3dca68&#45;&gt;Node0x55b33a3e56b8 -->
<g id="edge32" class="edge">
<title>Node0x55b33a3dca68&#45;&gt;Node0x55b33a3e56b8</title>
<path fill="none" stroke="#7fb2ff" d="M736.49,-544.94C731.24,-543.38 726.06,-541.74 721,-540 649,-515.29 571.67,-469.46 531.61,-441.01"/>
<polygon fill="#7fb2ff" stroke="#7fb2ff" points="533.56,-438.1 523.42,-435.04 529.44,-443.76 533.56,-438.1"/>
</g>
<!-- Node0x55b33a3dca68&#45;&gt;Node0x55b33a3e6018 -->
<g id="edge33" class="edge">
<title>Node0x55b33a3dca68&#45;&gt;Node0x55b33a3e6018</title>
<path fill="none" stroke="black" d="M723.81,-544.76C715.7,-538.59 708.62,-531.09 703,-522 681.91,-487.88 681.91,-195.12 703,-161 718.28,-136.27 743.08,-119.76 770.02,-108.76"/>
<polygon fill="black" stroke="black" points="771.54,-111.93 779.63,-105.09 769.04,-105.39 771.54,-111.93"/>
</g>
<!-- Node0x55b33a3ebec8 -->
<g id="node13" class="node">
<title>Node0x55b33a3ebec8</title>
<polygon fill="#7fb2ff" stroke="black" points="1463.5,-505 1120.5,-505 1120.5,-469 1463.5,-469 1463.5,-505"/>
<text text-anchor="middle" x="1292" y="-483.3" font-family="Times,serif" font-size="14.00">{lib/libLLVMObject.a(COFFObjectFile.cpp.o)}</text>
</g>
<!-- Node0x55b33a3dca68&#45;&gt;Node0x55b33a3ebec8 -->
<g id="edge34" class="edge">
<title>Node0x55b33a3dca68&#45;&gt;Node0x55b33a3ebec8</title>
<path fill="none" stroke="#7fb2ff" d="M1004.95,-544.97C1029.57,-540.53 1055.74,-535.7 1080,-531 1118.36,-523.56 1160.54,-514.87 1197.04,-507.19"/>
<polygon fill="#7fb2ff" stroke="#7fb2ff" points="1198.11,-510.54 1207.17,-505.05 1196.66,-503.69 1198.11,-510.54"/>
</g>
<!-- Node0x55b33a3db078 -->
<g id="node14" class="node">
<title>Node0x55b33a3db078</title>
<polygon fill="#7fb2ff" stroke="black" points="1464,-343 1120,-343 1120,-307 1464,-307 1464,-343"/>
<text text-anchor="middle" x="1292" y="-321.3" font-family="Times,serif" font-size="14.00">{lib/libLLVMObject.a(WasmObjectFile.cpp.o)}</text>
</g>
<!-- Node0x55b33a3dca68&#45;&gt;Node0x55b33a3db078 -->
<g id="edge35" class="edge">
<title>Node0x55b33a3dca68&#45;&gt;Node0x55b33a3db078</title>
<path fill="none" stroke="#7fb2ff" d="M1002.45,-544.95C1030.97,-535.32 1059.73,-520.58 1080,-498 1124.65,-448.27 1066.69,-397.12 1116,-352 1116.99,-351.1 1117.99,-350.21 1119.02,-349.35"/>
<polygon fill="#7fb2ff" stroke="#7fb2ff" points="1121.29,-352.02 1127.15,-343.2 1117.07,-346.44 1121.29,-352.02"/>
</g>
<!-- Node0x55b33a3deae8&#45;&gt;Node0x55b33a3e56b8 -->
<g id="edge36" class="edge">
<title>Node0x55b33a3deae8&#45;&gt;Node0x55b33a3e56b8</title>
<path fill="none" stroke="#7fb2ff" d="M736.64,-639.08C731.28,-636.92 726.06,-634.56 721,-632 630.43,-586.18 551.69,-490.28 519.49,-443.46"/>
<polygon fill="#7fb2ff" stroke="#7fb2ff" points="522.33,-441.4 513.86,-435.04 516.51,-445.3 522.33,-441.4"/>
</g>
<!-- Node0x55b33a3deae8&#45;&gt;Node0x55b33a3ebec8 -->
<g id="edge37" class="edge">
<title>Node0x55b33a3deae8&#45;&gt;Node0x55b33a3ebec8</title>
<path fill="none" stroke="#7fb2ff" d="M1035.68,-636.91C1050.87,-633.12 1065.94,-628.53 1080,-623 1150.32,-595.33 1222.17,-542.75 1261.23,-511.7"/>
<polygon fill="#7fb2ff" stroke="#7fb2ff" points="1263.91,-514.04 1269.51,-505.05 1259.53,-508.58 1263.91,-514.04"/>
</g>
<!-- Node0x55b33a3e6f18&#45;&gt;Node0x55b33a3e56b8 -->
<g id="edge38" class="edge">
<title>Node0x55b33a3e6f18&#45;&gt;Node0x55b33a3e56b8</title>
<path fill="none" stroke="#7fb2ff" d="M1140.73,-390.91C1131.9,-394.97 1123.56,-399.95 1116,-406 1081.73,-433.45 1116.27,-473.25 1080,-498 1014.11,-542.97 799.51,-512.17 721,-498 659.25,-486.85 592.15,-459.2 549.17,-439.3"/>
<polygon fill="#7fb2ff" stroke="#7fb2ff" points="550.65,-436.13 540.11,-435.06 547.68,-442.47 550.65,-436.13"/>
</g>
<!-- Node0x55b33a3e6f18&#45;&gt;Node0x55b33a3e6018 -->
<g id="edge39" class="edge">
<title>Node0x55b33a3e6f18&#45;&gt;Node0x55b33a3e6018</title>
<path fill="none" stroke="black" d="M1140.91,-369.56C1131.81,-364.96 1123.37,-359.19 1116,-352 1051.34,-288.94 1138.17,-221.09 1080,-152 1063.14,-131.98 1039.58,-118.12 1015.09,-108.54"/>
<polygon fill="black" stroke="black" points="1016.27,-105.24 1005.68,-105.07 1013.85,-111.81 1016.27,-105.24"/>
</g>
<!-- Node0x55b33a3e6f18&#45;&gt;Node0x55b33a3e66f8 -->
<g id="edge40" class="edge">
<title>Node0x55b33a3e6f18&#45;&gt;Node0x55b33a3e66f8</title>
<path fill="none" stroke="#7fb2ff" d="M1140.55,-367.44C1132.19,-365.48 1123.96,-363.34 1116,-361 1099.2,-356.07 1096.81,-349.91 1080,-345 1056.33,-338.09 1030.36,-332.87 1005.73,-328.71"/>
<polygon fill="#7fb2ff" stroke="#7fb2ff" points="1006.07,-325.22 995.63,-327.04 1004.93,-332.12 1006.07,-325.22"/>
</g>
<!-- Node0x55b33a3e6f18&#45;&gt;Node0x55b33a3e76e8 -->
<g id="edge41" class="edge">
<title>Node0x55b33a3e6f18&#45;&gt;Node0x55b33a3e76e8</title>
<path fill="none" stroke="#7fb2ff" d="M1140.89,-377.72C1120.92,-370.37 1103.44,-358.51 1092,-340 1065.08,-296.45 1117.09,-269.54 1174.8,-253.59"/>
<polygon fill="#7fb2ff" stroke="#7fb2ff" points="1175.71,-256.97 1184.48,-251.03 1173.92,-250.21 1175.71,-256.97"/>
</g>
<!-- Node0x55b33a3e6f18&#45;&gt;Node0x55b33a3e6298 -->
<g id="edge42" class="edge">
<title>Node0x55b33a3e6f18&#45;&gt;Node0x55b33a3e6298</title>
<path fill="none" stroke="#7fb2ff" d="M1140.94,-377.26C1125.94,-370.53 1112.97,-360.52 1104,-346 1088.34,-320.67 1088.34,-237.33 1104,-212 1108.07,-205.41 1112.97,-199.75 1118.5,-194.9"/>
<polygon fill="#7fb2ff" stroke="#7fb2ff" points="1120.65,-197.67 1126.43,-188.79 1116.38,-192.12 1120.65,-197.67"/>
</g>
<!-- Node0x55b33a3e6f18&#45;&gt;Node0x55b33a3ebec8 -->
<g id="edge43" class="edge">
<title>Node0x55b33a3e6f18&#45;&gt;Node0x55b33a3ebec8</title>
<path fill="none" stroke="#7fb2ff" d="M1140.87,-389.2C1100.19,-398.62 1072.26,-416.05 1092,-448 1097.33,-456.62 1103.96,-463.8 1111.55,-469.75"/>
<polygon fill="#7fb2ff" stroke="#7fb2ff" points="1109.94,-472.89 1120.15,-475.74 1113.94,-467.15 1109.94,-472.89"/>
</g>
<!-- Node0x55b33a3e6f18&#45;&gt;Node0x55b33a3db078 -->
<g id="edge44" class="edge">
<title>Node0x55b33a3e6f18&#45;&gt;Node0x55b33a3db078</title>
<path fill="none" stroke="#7fb2ff" d="M1407.06,-360.88C1421.8,-356.18 1424.85,-351.49 1416.21,-346.8"/>
<polygon fill="#7fb2ff" stroke="#7fb2ff" points="1417.36,-343.49 1406.78,-343.04 1414.77,-349.99 1417.36,-343.49"/>
</g>
<!-- Node0x55b33a3dc158 -->
<g id="node15" class="node">
<title>Node0x55b33a3dc158</title>
<polygon fill="#7fb2ff" stroke="black" points="1867,-397 1514,-397 1514,-361 1867,-361 1867,-397"/>
<text text-anchor="middle" x="1690.5" y="-375.3" font-family="Times,serif" font-size="14.00">{lib/libLLVMObject.a(XCOFFObjectFile.cpp.o)}</text>
</g>
<!-- Node0x55b33a3e6f18&#45;&gt;Node0x55b33a3dc158 -->
<g id="edge45" class="edge">
<title>Node0x55b33a3e6f18&#45;&gt;Node0x55b33a3dc158</title>
<path fill="none" stroke="#7fb2ff" d="M1443.18,-372.43C1462.96,-372.28 1483.43,-372.22 1503.71,-372.26"/>
<polygon fill="#7fb2ff" stroke="#7fb2ff" points="1503.97,-375.76 1513.98,-372.29 1503.99,-368.76 1503.97,-375.76"/>
</g>
<!-- Node0x55b33a3dc838&#45;&gt;Node0x55b33a3e56b8 -->
<g id="edge46" class="edge">
<title>Node0x55b33a3dc838&#45;&gt;Node0x55b33a3e56b8</title>
<path fill="none" stroke="#7fb2ff" d="M1133.11,-447.71C1127.03,-451.23 1121.28,-455.3 1116,-460 1071.2,-499.84 1127.72,-553.7 1080,-590 1016.51,-638.3 796.3,-616.34 721,-590 636.79,-560.54 560.88,-483.2 525.31,-442.65"/>
<polygon fill="#7fb2ff" stroke="#7fb2ff" points="527.93,-440.33 518.74,-435.05 522.64,-444.9 527.93,-440.33"/>
</g>
<!-- Node0x55b33a3dc838&#45;&gt;Node0x55b33a3e6018 -->
<g id="edge47" class="edge">
<title>Node0x55b33a3dc838&#45;&gt;Node0x55b33a3e6018</title>
<path fill="none" stroke="black" d="M1133.49,-419.84C1127.18,-415.94 1121.29,-411.36 1116,-406 1035.87,-324.88 1151.8,-240.57 1080,-152 1063.87,-132.1 1041.09,-118.29 1017.18,-108.71"/>
<polygon fill="black" stroke="black" points="1018.2,-105.35 1007.61,-105.11 1015.74,-111.9 1018.2,-105.35"/>
</g>
<!-- Node0x55b33a3dc838&#45;&gt;Node0x55b33a3e66f8 -->
<g id="edge48" class="edge">
<title>Node0x55b33a3dc838&#45;&gt;Node0x55b33a3e66f8</title>
<path fill="none" stroke="#7fb2ff" d="M1133.41,-425.47C1127.32,-422.43 1121.49,-418.95 1116,-415 1087.62,-394.55 1108.41,-365.41 1080,-345 1072.16,-339.37 1063.62,-334.7 1054.67,-330.83"/>
<polygon fill="#7fb2ff" stroke="#7fb2ff" points="1055.79,-327.51 1045.2,-327.08 1053.21,-334.02 1055.79,-327.51"/>
</g>
<!-- Node0x55b33a3dc838&#45;&gt;Node0x55b33a3e6f18 -->
<g id="edge49" class="edge">
<title>Node0x55b33a3dc838&#45;&gt;Node0x55b33a3e6f18</title>
<path fill="none" stroke="#7fb2ff" d="M1292,-414.79C1292,-412.31 1292,-409.83 1292,-407.34"/>
<polygon fill="#7fb2ff" stroke="#7fb2ff" points="1295.5,-407.14 1292,-397.14 1288.5,-407.14 1295.5,-407.14"/>
</g>
<!-- Node0x55b33a3dc6a8 -->
<g id="node16" class="node">
<title>Node0x55b33a3dc6a8</title>
<polygon fill="none" stroke="black" points="1877,-803 1504,-803 1504,-767 1877,-767 1877,-803"/>
<text text-anchor="middle" x="1690.5" y="-781.3" font-family="Times,serif" font-size="14.00">{lib/libLLVMObject.a(ModuleSymbolTable.cpp.o)}</text>
</g>
<!-- Node0x55b33a3dc838&#45;&gt;Node0x55b33a3dc6a8 -->
<g id="edge50" class="edge">
<title>Node0x55b33a3dc838&#45;&gt;Node0x55b33a3dc6a8</title>
<path fill="none" stroke="black" d="M1450.86,-450.78C1456.8,-453.49 1462.54,-456.56 1468,-460 1584.49,-533.49 1654.92,-692.94 1679.56,-757.26"/>
<polygon fill="black" stroke="black" points="1676.32,-758.61 1683.12,-766.74 1682.88,-756.15 1676.32,-758.61"/>
</g>
<!-- Node0x55b33a3e76e8&#45;&gt;Node0x55b33a3e56b8 -->
<g id="edge8" class="edge">
<title>Node0x55b33a3e76e8&#45;&gt;Node0x55b33a3e56b8</title>
<path fill="none" stroke="#7fb2ff" d="M1141.22,-214.99C1023.54,-206.42 857.31,-206.79 721,-255 640.31,-283.54 564.64,-353.41 527.66,-391.4"/>
<polygon fill="#7fb2ff" stroke="#7fb2ff" points="524.77,-389.36 520.37,-399 529.82,-394.21 524.77,-389.36"/>
</g>
<!-- Node0x55b33a3e76e8&#45;&gt;Node0x55b33a3e6018 -->
<g id="edge9" class="edge">
<title>Node0x55b33a3e76e8&#45;&gt;Node0x55b33a3e6018</title>
<path fill="none" stroke="black" d="M1132.25,-214.9C1126.62,-212.26 1121.18,-209.31 1116,-206 1091.68,-190.48 1102.68,-169.82 1080,-152 1054.85,-132.23 1023.13,-118.11 993.43,-108.2"/>
<polygon fill="black" stroke="black" points="994.46,-104.86 983.87,-105.13 992.32,-111.52 994.46,-104.86"/>
</g>
<!-- Node0x55b33a3e76e8&#45;&gt;Node0x55b33a3e66f8 -->
<g id="edge10" class="edge">
<title>Node0x55b33a3e76e8&#45;&gt;Node0x55b33a3e66f8</title>
<path fill="none" stroke="#7fb2ff" d="M1190.06,-251.08C1165.79,-255.53 1139.95,-260.35 1116,-265 1077.03,-272.56 1034.17,-281.27 997.07,-288.94"/>
<polygon fill="#7fb2ff" stroke="#7fb2ff" points="996.35,-285.51 987.26,-290.97 997.77,-292.37 996.35,-285.51"/>
</g>
<!-- Node0x55b33a3e76e8&#45;&gt;Node0x55b33a3e6f18 -->
<g id="edge11" class="edge">
<title>Node0x55b33a3e76e8&#45;&gt;Node0x55b33a3e6f18</title>
<path fill="none" stroke="#7fb2ff" d="M1203.09,-251.03C1141.15,-268.09 1074.52,-298.3 1104,-346 1111.08,-357.45 1120.65,-366.1 1131.74,-372.55"/>
<polygon fill="#7fb2ff" stroke="#7fb2ff" points="1130.44,-375.82 1140.94,-377.26 1133.63,-369.59 1130.44,-375.82"/>
</g>
<!-- Node0x55b33a3e6298&#45;&gt;Node0x55b33a3e56b8 -->
<g id="edge51" class="edge">
<title>Node0x55b33a3e6298&#45;&gt;Node0x55b33a3e56b8</title>
<path fill="none" stroke="#7fb2ff" d="M1176.07,-160.98C1033.21,-140.73 798.73,-115.19 721,-152 614.82,-202.29 543.28,-332.79 516.16,-389.75"/>
<polygon fill="#7fb2ff" stroke="#7fb2ff" points="512.96,-388.32 511.9,-398.86 519.3,-391.28 512.96,-388.32"/>
</g>
<!-- Node0x55b33a3e6298&#45;&gt;Node0x55b33a3e6018 -->
<g id="edge52" class="edge">
<title>Node0x55b33a3e6298&#45;&gt;Node0x55b33a3e6018</title>
<path fill="none" stroke="black" d="M1171.93,-160.96C1152.85,-156.24 1133.6,-150.35 1116,-143 1098.25,-135.59 1097.84,-126.18 1080,-119 1068.48,-114.36 1056.27,-110.39 1043.85,-107"/>
<polygon fill="black" stroke="black" points="1044.42,-103.53 1033.86,-104.4 1042.66,-110.3 1044.42,-103.53"/>
</g>
<!-- Node0x55b33a3e6298&#45;&gt;Node0x55b33a3e66f8 -->
<g id="edge53" class="edge">
<title>Node0x55b33a3e6298&#45;&gt;Node0x55b33a3e66f8</title>
<path fill="none" stroke="#7fb2ff" d="M1149.76,-197.08C1138.25,-199.68 1126.87,-202.63 1116,-206 1051.85,-225.87 982.67,-262.04 940.72,-285.8"/>
<polygon fill="#7fb2ff" stroke="#7fb2ff" points="938.89,-282.81 931.94,-290.81 942.36,-288.89 938.89,-282.81"/>
</g>
<!-- Node0x55b33a3e6298&#45;&gt;Node0x55b33a3e6f18 -->
<g id="edge54" class="edge">
<title>Node0x55b33a3e6298&#45;&gt;Node0x55b33a3e6f18</title>
<path fill="none" stroke="#7fb2ff" d="M1126.32,-186.73C1112.49,-194.03 1100.56,-204.16 1092,-218 1077.75,-241.06 1077.75,-316.94 1092,-340 1101.56,-355.47 1115.35,-366.3 1131.28,-373.73"/>
<polygon fill="#7fb2ff" stroke="#7fb2ff" points="1130.31,-377.12 1140.89,-377.72 1133,-370.65 1130.31,-377.12"/>
</g>
<!-- Node0x55b33a3ee2b8 -->
<g id="node17" class="node">
<title>Node0x55b33a3ee2b8</title>
<polygon fill="#7fb2ff" stroke="black" points="1818,-197 1563,-197 1563,-161 1818,-161 1818,-197"/>
<text text-anchor="middle" x="1690.5" y="-175.3" font-family="Times,serif" font-size="14.00">{lib/libLLVMObject.a(ELF.cpp.o)}</text>
</g>
<!-- Node0x55b33a3e6298&#45;&gt;Node0x55b33a3ee2b8 -->
<g id="edge55" class="edge">
<title>Node0x55b33a3e6298&#45;&gt;Node0x55b33a3ee2b8</title>
<path fill="none" stroke="#7fb2ff" d="M1457.71,-172.34C1489.25,-172.17 1521.96,-172.24 1552.51,-172.54"/>
<polygon fill="#7fb2ff" stroke="#7fb2ff" points="1552.75,-176.05 1562.79,-172.66 1552.83,-169.05 1552.75,-176.05"/>
</g>
<!-- Node0x55b33a3ebec8&#45;&gt;Node0x55b33a3e56b8 -->
<g id="edge12" class="edge">
<title>Node0x55b33a3ebec8&#45;&gt;Node0x55b33a3e56b8</title>
<path fill="none" stroke="#7fb2ff" d="M1278.9,-505.08C1250.19,-546.09 1173.36,-645.46 1080,-682 1005.71,-711.07 793.1,-716.15 721,-682 614.82,-631.71 543.28,-501.21 516.16,-444.25"/>
<polygon fill="#7fb2ff" stroke="#7fb2ff" points="519.3,-442.72 511.9,-435.14 512.96,-445.68 519.3,-442.72"/>
</g>
<!-- Node0x55b33a3ebec8&#45;&gt;Node0x55b33a3e6018 -->
<g id="edge13" class="edge">
<title>Node0x55b33a3ebec8&#45;&gt;Node0x55b33a3e6018</title>
<path fill="none" stroke="black" d="M1125.88,-468.82C1122.4,-466.14 1119.09,-463.21 1116,-460 1020.35,-360.77 1165.47,-260.12 1080,-152 1064.29,-132.13 1041.94,-118.33 1018.35,-108.75"/>
<polygon fill="black" stroke="black" points="1019.49,-105.44 1008.9,-105.15 1017,-111.98 1019.49,-105.44"/>
</g>
<!-- Node0x55b33a3ebec8&#45;&gt;Node0x55b33a3e66f8 -->
<g id="edge14" class="edge">
<title>Node0x55b33a3ebec8&#45;&gt;Node0x55b33a3e66f8</title>
<path fill="none" stroke="#7fb2ff" d="M1127.71,-468.86C1123.61,-466.19 1119.7,-463.25 1116,-460 1072.88,-422.13 1123.17,-373.8 1080,-336 1076.68,-333.1 1073.19,-330.43 1069.56,-327.98"/>
<polygon fill="#7fb2ff" stroke="#7fb2ff" points="1071.19,-324.88 1060.83,-322.67 1067.55,-330.86 1071.19,-324.88"/>
</g>
<!-- Node0x55b33a3ebec8&#45;&gt;Node0x55b33a3e6f18 -->
<g id="edge15" class="edge">
<title>Node0x55b33a3ebec8&#45;&gt;Node0x55b33a3e6f18</title>
<path fill="none" stroke="#7fb2ff" d="M1120.39,-472.7C1114.08,-467.51 1108.53,-461.33 1104,-454 1094.19,-438.12 1094.19,-427.88 1104,-412 1107.13,-406.93 1110.32,-407.81 1116,-406 1123.46,-403.63 1131.16,-401.46 1138.99,-399.48"/>
<polygon fill="#7fb2ff" stroke="#7fb2ff" points="1140.06,-402.82 1148.96,-397.08 1138.42,-396.02 1140.06,-402.82"/>
</g>
<!-- Node0x55b33a3ebec8&#45;&gt;Node0x55b33a3e6298 -->
<g id="edge16" class="edge">
<title>Node0x55b33a3ebec8&#45;&gt;Node0x55b33a3e6298</title>
<path fill="none" stroke="#7fb2ff" d="M1120.37,-474.53C1111.58,-468.35 1103.94,-460.62 1098,-451 1084.21,-428.69 1084.21,-237.31 1098,-215 1103.29,-206.44 1109.92,-199.37 1117.51,-193.56"/>
<polygon fill="#7fb2ff" stroke="#7fb2ff" points="1119.79,-196.25 1126.11,-187.74 1115.87,-190.45 1119.79,-196.25"/>
</g>
<!-- Node0x55b33a3db078&#45;&gt;Node0x55b33a3e56b8 -->
<g id="edge56" class="edge">
<title>Node0x55b33a3db078&#45;&gt;Node0x55b33a3e56b8</title>
<path fill="none" stroke="#7fb2ff" d="M1230.53,-306.89C1124.9,-278.22 900.87,-230.62 721,-282 645.72,-303.5 571.13,-359.5 532.03,-392.22"/>
<polygon fill="#7fb2ff" stroke="#7fb2ff" points="529.6,-389.69 524.24,-398.83 534.13,-395.03 529.6,-389.69"/>
</g>
<!-- Node0x55b33a3db078&#45;&gt;Node0x55b33a3e6018 -->
<g id="edge57" class="edge">
<title>Node0x55b33a3db078&#45;&gt;Node0x55b33a3e6018</title>
<path fill="none" stroke="black" d="M1197.17,-306.93C1167.95,-297.26 1137.74,-282.49 1116,-260 1080.83,-223.62 1115.28,-188.27 1080,-152 1060.54,-132 1034.45,-118.12 1008.23,-108.5"/>
<polygon fill="black" stroke="black" points="1009.17,-105.12 998.58,-105.14 1006.87,-111.73 1009.17,-105.12"/>
</g>
<!-- Node0x55b33a3db078&#45;&gt;Node0x55b33a3e66f8 -->
<g id="edge58" class="edge">
<title>Node0x55b33a3db078&#45;&gt;Node0x55b33a3e66f8</title>
<path fill="none" stroke="#7fb2ff" d="M1119.76,-317.97C1103.52,-317.3 1087.06,-316.62 1070.83,-315.96"/>
<polygon fill="#7fb2ff" stroke="#7fb2ff" points="1070.9,-312.46 1060.77,-315.54 1070.62,-319.45 1070.9,-312.46"/>
</g>
<!-- Node0x55b33a3db078&#45;&gt;Node0x55b33a3e6f18 -->
<g id="edge59" class="edge">
<title>Node0x55b33a3db078&#45;&gt;Node0x55b33a3e6f18</title>
<path fill="none" stroke="#7fb2ff" d="M1177.22,-343.04C1162.33,-347.73 1159.13,-352.42 1167.63,-357.11"/>
<polygon fill="#7fb2ff" stroke="#7fb2ff" points="1166.36,-360.38 1176.94,-360.88 1168.98,-353.89 1166.36,-360.38"/>
</g>
<!-- Node0x55b33a3dc158&#45;&gt;Node0x55b33a3e56b8 -->
<g id="edge60" class="edge">
<title>Node0x55b33a3dc158&#45;&gt;Node0x55b33a3e56b8</title>
<path fill="none" stroke="#7fb2ff" d="M1666.69,-397.21C1589.86,-457.16 1331.21,-647.97 1080,-707 924.67,-743.5 863.67,-778.43 721,-707 608.62,-650.73 539.44,-505.55 514.51,-444.59"/>
<polygon fill="#7fb2ff" stroke="#7fb2ff" points="517.73,-443.21 510.76,-435.23 511.23,-445.81 517.73,-443.21"/>
</g>
<!-- Node0x55b33a3dc158&#45;&gt;Node0x55b33a3e6018 -->
<g id="edge61" class="edge">
<title>Node0x55b33a3dc158&#45;&gt;Node0x55b33a3e6018</title>
<path fill="none" stroke="black" d="M1666.78,-360.79C1630.13,-330.79 1556.74,-268.09 1504,-206 1485.33,-184.02 1492.66,-166.96 1468,-152 1400.73,-111.2 1194.14,-123.14 1116,-114 1092.57,-111.26 1067.72,-108.24 1043.56,-105.24"/>
<polygon fill="black" stroke="black" points="1043.97,-101.76 1033.61,-104 1043.11,-108.71 1043.97,-101.76"/>
</g>
<!-- Node0x55b33a3dc158&#45;&gt;Node0x55b33a3e66f8 -->
<g id="edge62" class="edge">
<title>Node0x55b33a3dc158&#45;&gt;Node0x55b33a3e66f8</title>
<path fill="none" stroke="#7fb2ff" d="M1652.6,-360.94C1609.52,-340.95 1535.53,-309.96 1468,-298 1329.9,-273.54 1169.92,-279.74 1055.26,-290.03"/>
<polygon fill="#7fb2ff" stroke="#7fb2ff" points="1054.64,-286.57 1045,-290.97 1055.28,-293.54 1054.64,-286.57"/>
</g>
<!-- Node0x55b33a3dc158&#45;&gt;Node0x55b33a3e6f18 -->
<g id="edge63" class="edge">
<title>Node0x55b33a3dc158&#45;&gt;Node0x55b33a3e6f18</title>
<path fill="none" stroke="#7fb2ff" d="M1513.98,-385.71C1493.77,-385.78 1473.25,-385.76 1453.26,-385.64"/>
<polygon fill="#7fb2ff" stroke="#7fb2ff" points="1453.21,-382.14 1443.18,-385.57 1453.16,-389.14 1453.21,-382.14"/>
</g>
<!-- Node0x55b33a3dce28 -->
<g id="node18" class="node">
<title>Node0x55b33a3dce28</title>
<polygon fill="none" stroke="black" points="2257,-803 1913,-803 1913,-767 2257,-767 2257,-803"/>
<text text-anchor="middle" x="2085" y="-781.3" font-family="Times,serif" font-size="14.00">{lib/libLLVMObject.a(RecordStreamer.cpp.o)}</text>
</g>
<!-- Node0x55b33a3dc6a8&#45;&gt;Node0x55b33a3dce28 -->
<g id="edge66" class="edge">
<title>Node0x55b33a3dc6a8&#45;&gt;Node0x55b33a3dce28</title>
<path fill="none" stroke="black" d="M1877.12,-785C1885.67,-785 1894.25,-785 1902.79,-785"/>
<polygon fill="black" stroke="black" points="1902.8,-788.5 1912.8,-785 1902.8,-781.5 1902.8,-788.5"/>
</g>
<!-- Node0x55b33a3ee2b8&#45;&gt;Node0x55b33a3e6018 -->
<g id="edge64" class="edge">
<title>Node0x55b33a3ee2b8&#45;&gt;Node0x55b33a3e6018</title>
<path fill="none" stroke="black" d="M1639.25,-160.85C1594.85,-145.7 1528.01,-125.01 1468,-115 1325.04,-91.15 1159.21,-85.47 1044.06,-84.95"/>
<polygon fill="black" stroke="black" points="1043.79,-81.45 1033.78,-84.91 1043.77,-88.45 1043.79,-81.45"/>
</g>
<!-- Node0x55b33a3ee2b8&#45;&gt;Node0x55b33a3e6298 -->
<g id="edge65" class="edge">
<title>Node0x55b33a3ee2b8&#45;&gt;Node0x55b33a3e6298</title>
<path fill="none" stroke="#7fb2ff" d="M1562.79,-185.34C1532.63,-185.7 1499.92,-185.82 1468.03,-185.71"/>
<polygon fill="#7fb2ff" stroke="#7fb2ff" points="1467.72,-182.21 1457.71,-185.66 1467.69,-189.21 1467.72,-182.21"/>
</g>
<!-- Node0x55b33a3db988 -->
<g id="node19" class="node">
<title>Node0x55b33a3db988</title>
<polygon fill="none" stroke="black" points="1050,-803 751,-803 751,-767 1050,-767 1050,-803"/>
<text text-anchor="middle" x="900.5" y="-781.3" font-family="Times,serif" font-size="14.00">{lib/libLLVMObject.a(IRSymtab.cpp.o)}</text>
</g>
<!-- Node0x55b33a3db988&#45;&gt;Node0x55b33a3dc838 -->
<g id="edge67" class="edge">
<title>Node0x55b33a3db988&#45;&gt;Node0x55b33a3dc838</title>
<path fill="none" stroke="black" d="M958.57,-766.96C999.01,-751.12 1051.04,-723.96 1080,-682 1136.78,-599.74 1045.05,-530.41 1116,-460 1118.78,-457.24 1121.72,-454.69 1124.79,-452.33"/>
<polygon fill="black" stroke="black" points="1126.97,-455.08 1133.23,-446.53 1123.01,-449.31 1126.97,-455.08"/>
</g>
<!-- Node0x55b33a3db988&#45;&gt;Node0x55b33a3dc6a8 -->
<g id="edge68" class="edge">
<title>Node0x55b33a3db988&#45;&gt;Node0x55b33a3dc6a8</title>
<path fill="none" stroke="black" d="M1050.18,-785C1175.71,-785 1356.43,-785 1493.72,-785"/>
<polygon fill="black" stroke="black" points="1493.94,-788.5 1503.94,-785 1493.94,-781.5 1493.94,-788.5"/>
</g>
<!-- Node0x55b33a3dd968 -->
<g id="node20" class="node">
<title>Node0x55b33a3dd968</title>
<polygon fill="none" stroke="black" points="285,-396 0,-396 0,-360 285,-360 285,-396"/>
<text text-anchor="middle" x="142.5" y="-374.3" font-family="Times,serif" font-size="14.00">{lib/libLLVMObject.a(TapiFile.cpp.o)}</text>
</g>
<!-- Node0x55b33a3dd968&#45;&gt;Node0x55b33a3e56b8 -->
<g id="edge69" class="edge">
<title>Node0x55b33a3dd968&#45;&gt;Node0x55b33a3e56b8</title>
<path fill="none" stroke="black" d="M285.19,-393.41C308.56,-395.96 332.83,-398.6 356.3,-401.15"/>
<polygon fill="black" stroke="black" points="355.99,-404.64 366.31,-402.24 356.75,-397.68 355.99,-404.64"/>
</g>
<!-- Node0x55b33a3dd968&#45;&gt;Node0x55b33a3e66f8 -->
<g id="edge70" class="edge">
<title>Node0x55b33a3dd968&#45;&gt;Node0x55b33a3e66f8</title>
<path fill="none" stroke="black" d="M285.25,-365.06C411.41,-353.55 596.16,-336.69 730.07,-324.46"/>
<polygon fill="black" stroke="black" points="730.79,-327.91 740.43,-323.52 730.15,-320.94 730.79,-327.91"/>
</g>
<!-- Node0x55b33a3e2698 -->
<g id="node21" class="node">
<title>Node0x55b33a3e2698</title>
<polygon fill="none" stroke="black" points="1056,-489 745,-489 745,-453 1056,-453 1056,-489"/>
<text text-anchor="middle" x="900.5" y="-467.3" font-family="Times,serif" font-size="14.00">{lib/libLLVMObject.a(SymbolSize.cpp.o)}</text>
</g>
<!-- Node0x55b33a3e2698&#45;&gt;Node0x55b33a3e6f18 -->
<g id="edge71" class="edge">
<title>Node0x55b33a3e2698&#45;&gt;Node0x55b33a3e6f18</title>
<path fill="none" stroke="black" d="M1056,-454.4C1064.3,-451.43 1072.36,-447.99 1080,-444 1100.62,-433.23 1095.39,-416.8 1116,-406 1120.94,-403.41 1126.05,-401.06 1131.29,-398.91"/>
<polygon fill="black" stroke="black" points="1132.75,-402.1 1140.85,-395.28 1130.26,-395.56 1132.75,-402.1"/>
</g>
<!-- Node0x55b33a3e2698&#45;&gt;Node0x55b33a3e76e8 -->
<g id="edge72" class="edge">
<title>Node0x55b33a3e2698&#45;&gt;Node0x55b33a3e76e8</title>
<path fill="none" stroke="black" d="M1056.15,-460.27C1064.77,-455.91 1072.82,-450.55 1080,-444 1129.37,-398.96 1071.51,-347.87 1116,-298 1133.79,-278.06 1158.28,-264.22 1183.31,-254.62"/>
<polygon fill="black" stroke="black" points="1184.7,-257.84 1192.91,-251.14 1182.32,-251.25 1184.7,-257.84"/>
</g>
<!-- Node0x55b33a3e2698&#45;&gt;Node0x55b33a3ebec8 -->
<g id="edge73" class="edge">
<title>Node0x55b33a3e2698&#45;&gt;Node0x55b33a3ebec8</title>
<path fill="none" stroke="black" d="M1056,-477.35C1073.83,-478.08 1092.13,-478.83 1110.27,-479.58"/>
<polygon fill="black" stroke="black" points="1110.19,-483.08 1120.33,-479.99 1110.48,-476.08 1110.19,-483.08"/>
</g>
<!-- Node0x55b33a3e2698&#45;&gt;Node0x55b33a3db078 -->
<g id="edge74" class="edge">
<title>Node0x55b33a3e2698&#45;&gt;Node0x55b33a3db078</title>
<path fill="none" stroke="black" d="M1056.04,-458.75C1064.58,-454.73 1072.65,-449.87 1080,-444 1114.31,-416.6 1081.73,-379.45 1116,-352 1117.4,-350.88 1118.83,-349.79 1120.29,-348.74"/>
<polygon fill="black" stroke="black" points="1122.43,-351.52 1128.88,-343.11 1118.59,-345.66 1122.43,-351.52"/>
</g>
<!-- Node0x55b33a3ea078 -->
<g id="node22" class="node">
<title>Node0x55b33a3ea078</title>
<polygon fill="none" stroke="black" points="667.5,-113 338.5,-113 338.5,-77 667.5,-77 667.5,-113"/>
<text text-anchor="middle" x="503" y="-91.3" font-family="Times,serif" font-size="14.00">{lib/libLLVMObject.a(Decompressor.cpp.o)}</text>
</g>
<!-- Node0x55b33a3ea078&#45;&gt;Node0x55b33a3e6018 -->
<g id="edge75" class="edge">
<title>Node0x55b33a3ea078&#45;&gt;Node0x55b33a3e6018</title>
<path fill="none" stroke="black" d="M667.72,-91.69C697.37,-91.09 728.08,-90.47 757.07,-89.88"/>
<polygon fill="black" stroke="black" points="757.31,-93.38 767.24,-89.68 757.17,-86.38 757.31,-93.38"/>
</g>
<!-- Node0x55b33a3eaed8 -->
<g id="node23" class="node">
<title>Node0x55b33a3eaed8</title>
<polygon fill="none" stroke="black" points="685,-59 321,-59 321,-23 685,-23 685,-59"/>
<text text-anchor="middle" x="503" y="-37.3" font-family="Times,serif" font-size="14.00">{lib/libLLVMObject.a(RelocationResolver.cpp.o)}</text>
</g>
<!-- Node0x55b33a3eaed8&#45;&gt;Node0x55b33a3e6018 -->
<g id="edge76" class="edge">
<title>Node0x55b33a3eaed8&#45;&gt;Node0x55b33a3e6018</title>
<path fill="none" stroke="black" d="M658.89,-59.02C691.23,-62.78 725.17,-66.72 757.03,-70.43"/>
<polygon fill="black" stroke="black" points="756.96,-73.95 767.3,-71.62 757.77,-66.99 756.96,-73.95"/>
</g>
<!-- Node0x55b33a3eaed8&#45;&gt;Node0x55b33a3e6298 -->
<g id="edge77" class="edge">
<title>Node0x55b33a3eaed8&#45;&gt;Node0x55b33a3e6298</title>
<path fill="none" stroke="black" d="M685.1,-25.13C800.27,-20.34 951.38,-23.95 1080,-60 1149.09,-79.36 1219.8,-125.76 1259.29,-154.57"/>
<polygon fill="black" stroke="black" points="1257.57,-157.66 1267.7,-160.78 1261.73,-152.03 1257.57,-157.66"/>
</g>
</g>
</svg>
