<?xml version="1.0" encoding="UTF-8" standalone="no"?>
<!DOCTYPE svg PUBLIC "-//W3C//DTD SVG 1.1//EN"
 "http://www.w3.org/Graphics/SVG/1.1/DTD/svg11.dtd">
<!-- Generated by graphviz version 2.43.0 (0)
 -->
<!-- Title: bin/llvm&#45;elfabi Pages: 1 -->
<svg width="2465pt" height="601pt"
 viewBox="0.00 0.00 2465.00 600.85" xmlns="http://www.w3.org/2000/svg" xmlns:xlink="http://www.w3.org/1999/xlink">
<g id="graph0" class="graph" transform="scale(1 1) rotate(0) translate(4 596.85)">
<title>bin/llvm&#45;elfabi</title>
<polygon fill="white" stroke="transparent" points="-4,4 -4,-596.85 2461,-596.85 2461,4 -4,4"/>
<text text-anchor="middle" x="1228.5" y="-7.8" font-family="Times,serif" font-size="14.00">bin/llvm&#45;elfabi</text>
<!-- Node0x55cb73fc7568 -->
<g id="node1" class="node">
<title>Node0x55cb73fc7568</title>
<polygon fill="none" stroke="black" points="1254,-592.85 763,-592.85 763,-556.85 1254,-556.85 1254,-592.85"/>
<text text-anchor="middle" x="1008.5" y="-571.15" font-family="Times,serif" font-size="14.00">{tools/llvm&#45;elfabi/CMakeFiles/llvm&#45;elfabi.dir/ErrorCollector.cpp.o}</text>
</g>
<!-- Node0x55cb73fc7f68 -->
<g id="node2" class="node">
<title>Node0x55cb73fc7f68</title>
<polygon fill="none" stroke="black" points="2457,-359.85 2271,-359.85 2271,-323.85 2457,-323.85 2457,-359.85"/>
<text text-anchor="middle" x="2364" y="-338.15" font-family="Times,serif" font-size="14.00">{lib/libLLVMSupport.a}</text>
</g>
<!-- Node0x55cb73fc7568&#45;&gt;Node0x55cb73fc7f68 -->
<g id="edge1" class="edge">
<title>Node0x55cb73fc7568&#45;&gt;Node0x55cb73fc7f68</title>
<path fill="none" stroke="black" d="M1254.32,-572.47C1361.9,-571.61 1489.72,-570.85 1605,-570.85 1605,-570.85 1605,-570.85 1837.5,-570.85 2014.6,-570.85 2082.83,-633.46 2235,-542.85 2301.12,-503.48 2338.73,-415.21 2354.36,-369.88"/>
<polygon fill="black" stroke="black" points="2357.77,-370.71 2357.61,-360.11 2351.13,-368.5 2357.77,-370.71"/>
</g>
<!-- Node0x55cb73fc6ac8 -->
<g id="node3" class="node">
<title>Node0x55cb73fc6ac8</title>
<polygon fill="none" stroke="black" points="464,-546.85 0,-546.85 0,-510.85 464,-510.85 464,-546.85"/>
<text text-anchor="middle" x="232" y="-525.15" font-family="Times,serif" font-size="14.00">{tools/llvm&#45;elfabi/CMakeFiles/llvm&#45;elfabi.dir/llvm&#45;elfabi.cpp.o}</text>
</g>
<!-- Node0x55cb73fc6ac8&#45;&gt;Node0x55cb73fc7568 -->
<g id="edge2" class="edge">
<title>Node0x55cb73fc6ac8&#45;&gt;Node0x55cb73fc7568</title>
<path fill="none" stroke="black" d="M464.06,-542.58C554.92,-547.97 659.57,-554.19 752.62,-559.71"/>
<polygon fill="black" stroke="black" points="752.55,-563.22 762.74,-560.32 752.97,-556.23 752.55,-563.22"/>
</g>
<!-- Node0x55cb73fc6ac8&#45;&gt;Node0x55cb73fc7f68 -->
<g id="edge4" class="edge">
<title>Node0x55cb73fc6ac8&#45;&gt;Node0x55cb73fc7f68</title>
<path fill="none" stroke="black" d="M464.3,-528.85C618.24,-528.85 824.97,-528.85 1007.5,-528.85 1007.5,-528.85 1007.5,-528.85 1837.5,-528.85 1926.01,-528.85 2156.59,-544.92 2235,-503.85 2291.55,-474.24 2331.36,-407.43 2350.36,-369.51"/>
<polygon fill="black" stroke="black" points="2353.72,-370.6 2354.95,-360.08 2347.43,-367.54 2353.72,-370.6"/>
</g>
<!-- Node0x55cb73fc4d68 -->
<g id="node4" class="node">
<title>Node0x55cb73fc4d68</title>
<polygon fill="none" stroke="black" points="727,-363.85 500,-363.85 500,-327.85 727,-327.85 727,-363.85"/>
<text text-anchor="middle" x="613.5" y="-342.15" font-family="Times,serif" font-size="14.00">{lib/libLLVMInterfaceStub.a}</text>
</g>
<!-- Node0x55cb73fc6ac8&#45;&gt;Node0x55cb73fc4d68 -->
<g id="edge3" class="edge">
<title>Node0x55cb73fc6ac8&#45;&gt;Node0x55cb73fc4d68</title>
<path fill="none" stroke="black" d="M270.43,-510.81C340.09,-477.21 489.5,-405.17 565.71,-368.42"/>
<polygon fill="black" stroke="black" points="567.59,-371.4 575.07,-363.9 564.55,-365.09 567.59,-371.4"/>
</g>
<!-- Node0x55cb73fc4d68&#45;&gt;Node0x55cb73fc7f68 -->
<g id="edge6" class="edge">
<title>Node0x55cb73fc4d68&#45;&gt;Node0x55cb73fc7f68</title>
<path fill="none" stroke="black" d="M671.11,-363.92C798.06,-402.79 1115.76,-490.85 1388.5,-490.85 1388.5,-490.85 1388.5,-490.85 1837.5,-490.85 2014.37,-490.85 2073.54,-544.05 2235,-471.85 2283.95,-449.97 2324.13,-400.18 2345.74,-368.96"/>
<polygon fill="black" stroke="black" points="2348.89,-370.55 2351.59,-360.3 2343.09,-366.63 2348.89,-370.55"/>
</g>
<!-- Node0x55cb73fc7c98 -->
<g id="node5" class="node">
<title>Node0x55cb73fc7c98</title>
<polygon fill="none" stroke="black" points="1096,-273.85 921,-273.85 921,-237.85 1096,-237.85 1096,-273.85"/>
<text text-anchor="middle" x="1008.5" y="-252.15" font-family="Times,serif" font-size="14.00">{lib/libLLVMObject.a}</text>
</g>
<!-- Node0x55cb73fc4d68&#45;&gt;Node0x55cb73fc7c98 -->
<g id="edge5" class="edge">
<title>Node0x55cb73fc4d68&#45;&gt;Node0x55cb73fc7c98</title>
<path fill="none" stroke="black" d="M693.56,-327.75C758.72,-312.83 851.09,-291.67 918.77,-276.17"/>
<polygon fill="black" stroke="black" points="919.6,-279.57 928.57,-273.93 918.04,-272.75 919.6,-279.57"/>
</g>
<!-- Node0x55cb73fc0218 -->
<g id="node6" class="node">
<title>Node0x55cb73fc0218</title>
<polygon fill="none" stroke="black" points="1682.5,-210.85 1529.5,-210.85 1529.5,-174.85 1682.5,-174.85 1682.5,-210.85"/>
<text text-anchor="middle" x="1606" y="-189.15" font-family="Times,serif" font-size="14.00">{lib/libLLVMMC.a}</text>
</g>
<!-- Node0x55cb73fc4d68&#45;&gt;Node0x55cb73fc0218 -->
<g id="edge7" class="edge">
<title>Node0x55cb73fc4d68&#45;&gt;Node0x55cb73fc0218</title>
<path fill="none" stroke="black" d="M630.59,-327.6C655.75,-300.5 707.32,-250.49 763,-228.85 1023.06,-127.81 1362.87,-157.32 1519.33,-178.96"/>
<polygon fill="black" stroke="black" points="1518.98,-182.44 1529.37,-180.37 1519.96,-175.51 1518.98,-182.44"/>
</g>
<!-- Node0x55cb73fc7c98&#45;&gt;Node0x55cb73fc7f68 -->
<g id="edge8" class="edge">
<title>Node0x55cb73fc7c98&#45;&gt;Node0x55cb73fc7f68</title>
<path fill="none" stroke="black" d="M1054.72,-237.77C1222.22,-173.83 1819.05,26.91 2235,-180.85 2292.04,-209.34 2331.78,-276.41 2350.6,-314.38"/>
<polygon fill="black" stroke="black" points="2347.65,-316.32 2355.15,-323.82 2353.96,-313.29 2347.65,-316.32"/>
</g>
<!-- Node0x55cb73fc7c98&#45;&gt;Node0x55cb73fc0218 -->
<g id="edge10" class="edge">
<title>Node0x55cb73fc7c98&#45;&gt;Node0x55cb73fc0218</title>
<path fill="none" stroke="black" d="M1093.46,-237.82C1148.97,-226.66 1223.49,-213.12 1290,-205.85 1367.18,-197.42 1455.55,-194.34 1519,-193.27"/>
<polygon fill="black" stroke="black" points="1519.42,-196.77 1529.36,-193.11 1519.31,-189.77 1519.42,-196.77"/>
</g>
<!-- Node0x55cb73fc0cb8 -->
<g id="node7" class="node">
<title>Node0x55cb73fc0cb8</title>
<polygon fill="none" stroke="black" points="1950,-294.85 1723,-294.85 1723,-258.85 1950,-258.85 1950,-294.85"/>
<text text-anchor="middle" x="1836.5" y="-273.15" font-family="Times,serif" font-size="14.00">{lib/libLLVMBinaryFormat.a}</text>
</g>
<!-- Node0x55cb73fc7c98&#45;&gt;Node0x55cb73fc0cb8 -->
<g id="edge9" class="edge">
<title>Node0x55cb73fc7c98&#45;&gt;Node0x55cb73fc0cb8</title>
<path fill="none" stroke="black" d="M1096.34,-258.06C1243.78,-261.81 1543.51,-269.43 1712.49,-273.73"/>
<polygon fill="black" stroke="black" points="1712.6,-277.23 1722.68,-273.98 1712.77,-270.23 1712.6,-277.23"/>
</g>
<!-- Node0x55cb73fc8968 -->
<g id="node8" class="node">
<title>Node0x55cb73fc8968</title>
<polygon fill="none" stroke="black" points="1489,-384.85 1290,-384.85 1290,-348.85 1489,-348.85 1489,-384.85"/>
<text text-anchor="middle" x="1389.5" y="-363.15" font-family="Times,serif" font-size="14.00">{lib/libLLVMBitReader.a}</text>
</g>
<!-- Node0x55cb73fc7c98&#45;&gt;Node0x55cb73fc8968 -->
<g id="edge11" class="edge">
<title>Node0x55cb73fc7c98&#45;&gt;Node0x55cb73fc8968</title>
<path fill="none" stroke="black" d="M1071.24,-273.93C1138.55,-293.65 1246.12,-325.15 1317.03,-345.92"/>
<polygon fill="black" stroke="black" points="1316.21,-349.33 1326.79,-348.78 1318.18,-342.61 1316.21,-349.33"/>
</g>
<!-- Node0x55cb73fc6758 -->
<g id="node9" class="node">
<title>Node0x55cb73fc6758</title>
<polygon fill="none" stroke="black" points="1687,-340.85 1525,-340.85 1525,-304.85 1687,-304.85 1687,-340.85"/>
<text text-anchor="middle" x="1606" y="-319.15" font-family="Times,serif" font-size="14.00">{lib/libLLVMCore.a}</text>
</g>
<!-- Node0x55cb73fc7c98&#45;&gt;Node0x55cb73fc6758 -->
<g id="edge12" class="edge">
<title>Node0x55cb73fc7c98&#45;&gt;Node0x55cb73fc6758</title>
<path fill="none" stroke="black" d="M1096.27,-268.12C1151.64,-275.75 1224.97,-285.47 1290,-292.85 1365.62,-301.44 1451.64,-309.52 1514.67,-315.12"/>
<polygon fill="black" stroke="black" points="1514.7,-318.64 1524.97,-316.04 1515.32,-311.67 1514.7,-318.64"/>
</g>
<!-- Node0x55cb73fc75b8 -->
<g id="node10" class="node">
<title>Node0x55cb73fc75b8</title>
<polygon fill="none" stroke="black" points="1488.5,-250.85 1290.5,-250.85 1290.5,-214.85 1488.5,-214.85 1488.5,-250.85"/>
<text text-anchor="middle" x="1389.5" y="-229.15" font-family="Times,serif" font-size="14.00">{lib/libLLVMMCParser.a}</text>
</g>
<!-- Node0x55cb73fc7c98&#45;&gt;Node0x55cb73fc75b8 -->
<g id="edge13" class="edge">
<title>Node0x55cb73fc7c98&#45;&gt;Node0x55cb73fc75b8</title>
<path fill="none" stroke="black" d="M1096.45,-250.58C1150.98,-247.27 1221.72,-242.97 1279.93,-239.44"/>
<polygon fill="black" stroke="black" points="1280.5,-242.91 1290.27,-238.81 1280.07,-235.93 1280.5,-242.91"/>
</g>
<!-- Node0x55cb73fc84b8 -->
<g id="node11" class="node">
<title>Node0x55cb73fc84b8</title>
<polygon fill="none" stroke="black" points="1481.5,-82.85 1297.5,-82.85 1297.5,-46.85 1481.5,-46.85 1481.5,-82.85"/>
<text text-anchor="middle" x="1389.5" y="-61.15" font-family="Times,serif" font-size="14.00">{lib/libLLVMTextAPI.a}</text>
</g>
<!-- Node0x55cb73fc7c98&#45;&gt;Node0x55cb73fc84b8 -->
<g id="edge14" class="edge">
<title>Node0x55cb73fc7c98&#45;&gt;Node0x55cb73fc84b8</title>
<path fill="none" stroke="black" d="M1045.5,-237.71C1114.96,-202.71 1267.33,-125.92 1343.41,-87.58"/>
<polygon fill="black" stroke="black" points="1345.39,-90.5 1352.74,-82.87 1342.24,-84.25 1345.39,-90.5"/>
</g>
<!-- Node0x55cb73fc0218&#45;&gt;Node0x55cb73fc7f68 -->
<g id="edge15" class="edge">
<title>Node0x55cb73fc0218&#45;&gt;Node0x55cb73fc7f68</title>
<path fill="none" stroke="black" d="M1682.55,-189.04C1827.25,-182.83 2137.76,-175.07 2235,-216.85 2283.05,-237.5 2323.27,-285.06 2345.17,-315.2"/>
<polygon fill="black" stroke="black" points="2342.47,-317.45 2351.11,-323.58 2348.18,-313.4 2342.47,-317.45"/>
</g>
<!-- Node0x55cb73fc0218&#45;&gt;Node0x55cb73fc0cb8 -->
<g id="edge16" class="edge">
<title>Node0x55cb73fc0218&#45;&gt;Node0x55cb73fc0cb8</title>
<path fill="none" stroke="black" d="M1656.02,-210.87C1691.29,-223.84 1739.03,-241.39 1776.41,-255.13"/>
<polygon fill="black" stroke="black" points="1775.57,-258.55 1786.17,-258.72 1777.99,-251.98 1775.57,-258.55"/>
</g>
<!-- Node0x55cb73fc0cb8&#45;&gt;Node0x55cb73fc7f68 -->
<g id="edge17" class="edge">
<title>Node0x55cb73fc0cb8&#45;&gt;Node0x55cb73fc7f68</title>
<path fill="none" stroke="black" d="M1950.36,-280.77C2030.28,-284.8 2139.75,-292.86 2235,-308.85 2253.7,-311.99 2273.67,-316.54 2292.14,-321.27"/>
<polygon fill="black" stroke="black" points="2291.37,-324.69 2301.93,-323.83 2293.14,-317.91 2291.37,-324.69"/>
</g>
<!-- Node0x55cb73fc8968&#45;&gt;Node0x55cb73fc7f68 -->
<g id="edge18" class="edge">
<title>Node0x55cb73fc8968&#45;&gt;Node0x55cb73fc7f68</title>
<path fill="none" stroke="black" d="M1489,-365.01C1646.58,-361.95 1965.1,-355.32 2235,-346.85 2243.31,-346.59 2251.92,-346.3 2260.57,-345.99"/>
<polygon fill="black" stroke="black" points="2260.85,-349.49 2270.72,-345.63 2260.6,-342.49 2260.85,-349.49"/>
</g>
<!-- Node0x55cb73fc8968&#45;&gt;Node0x55cb73fc6758 -->
<g id="edge19" class="edge">
<title>Node0x55cb73fc8968&#45;&gt;Node0x55cb73fc6758</title>
<path fill="none" stroke="black" d="M1478.36,-348.83C1490.39,-346.36 1502.74,-343.83 1514.81,-341.35"/>
<polygon fill="black" stroke="black" points="1515.76,-344.73 1524.86,-339.29 1514.36,-337.87 1515.76,-344.73"/>
</g>
<!-- Node0x55cb73fc70b8 -->
<g id="node12" class="node">
<title>Node0x55cb73fc70b8</title>
<polygon fill="none" stroke="black" points="2235,-462.85 1986,-462.85 1986,-426.85 2235,-426.85 2235,-462.85"/>
<text text-anchor="middle" x="2110.5" y="-441.15" font-family="Times,serif" font-size="14.00">{lib/libLLVMBitstreamReader.a}</text>
</g>
<!-- Node0x55cb73fc8968&#45;&gt;Node0x55cb73fc70b8 -->
<g id="edge20" class="edge">
<title>Node0x55cb73fc8968&#45;&gt;Node0x55cb73fc70b8</title>
<path fill="none" stroke="black" d="M1461.93,-384.92C1528.89,-400.98 1632.02,-423.47 1723,-433.85 1806.6,-443.4 1901,-446.23 1975.58,-446.64"/>
<polygon fill="black" stroke="black" points="1975.96,-450.14 1985.97,-446.68 1975.98,-443.14 1975.96,-450.14"/>
</g>
<!-- Node0x55cb73fc6758&#45;&gt;Node0x55cb73fc7f68 -->
<g id="edge21" class="edge">
<title>Node0x55cb73fc6758&#45;&gt;Node0x55cb73fc7f68</title>
<path fill="none" stroke="black" d="M1687.19,-324.87C1825.38,-328.34 2108.18,-335.45 2260.47,-339.28"/>
<polygon fill="black" stroke="black" points="2260.67,-342.78 2270.75,-339.53 2260.85,-335.78 2260.67,-342.78"/>
</g>
<!-- Node0x55cb73fc6758&#45;&gt;Node0x55cb73fc0cb8 -->
<g id="edge22" class="edge">
<title>Node0x55cb73fc6758&#45;&gt;Node0x55cb73fc0cb8</title>
<path fill="none" stroke="black" d="M1687.24,-306.7C1702.89,-303.55 1719.49,-300.21 1735.68,-296.95"/>
<polygon fill="black" stroke="black" points="1736.59,-300.33 1745.71,-294.93 1735.21,-293.47 1736.59,-300.33"/>
</g>
<!-- Node0x55cb73fc6bb8 -->
<g id="node13" class="node">
<title>Node0x55cb73fc6bb8</title>
<polygon fill="none" stroke="black" points="1932,-424.85 1741,-424.85 1741,-388.85 1932,-388.85 1932,-424.85"/>
<text text-anchor="middle" x="1836.5" y="-403.15" font-family="Times,serif" font-size="14.00">{lib/libLLVMRemarks.a}</text>
</g>
<!-- Node0x55cb73fc6758&#45;&gt;Node0x55cb73fc6bb8 -->
<g id="edge23" class="edge">
<title>Node0x55cb73fc6758&#45;&gt;Node0x55cb73fc6bb8</title>
<path fill="none" stroke="black" d="M1656.02,-340.87C1691.29,-353.84 1739.03,-371.39 1776.41,-385.13"/>
<polygon fill="black" stroke="black" points="1775.57,-388.55 1786.17,-388.72 1777.99,-381.98 1775.57,-388.55"/>
</g>
<!-- Node0x55cb73fc75b8&#45;&gt;Node0x55cb73fc7f68 -->
<g id="edge24" class="edge">
<title>Node0x55cb73fc75b8&#45;&gt;Node0x55cb73fc7f68</title>
<path fill="none" stroke="black" d="M1488.79,-232.72C1680.5,-233.36 2097.57,-239.42 2235,-278.85 2266.91,-288.01 2300.5,-304.85 2325.25,-318.81"/>
<polygon fill="black" stroke="black" points="2323.54,-321.87 2333.96,-323.81 2327.03,-315.8 2323.54,-321.87"/>
</g>
<!-- Node0x55cb73fc75b8&#45;&gt;Node0x55cb73fc0218 -->
<g id="edge25" class="edge">
<title>Node0x55cb73fc75b8&#45;&gt;Node0x55cb73fc0218</title>
<path fill="none" stroke="black" d="M1487.08,-214.84C1497.78,-212.85 1508.63,-210.82 1519.19,-208.86"/>
<polygon fill="black" stroke="black" points="1520.02,-212.26 1529.2,-206.99 1518.73,-205.38 1520.02,-212.26"/>
</g>
<!-- Node0x55cb73fc84b8&#45;&gt;Node0x55cb73fc7f68 -->
<g id="edge26" class="edge">
<title>Node0x55cb73fc84b8&#45;&gt;Node0x55cb73fc7f68</title>
<path fill="none" stroke="black" d="M1481.82,-47.02C1646.1,-20.06 1996.55,13.61 2235,-132.85 2302.92,-174.57 2339.98,-267.15 2354.97,-313.81"/>
<polygon fill="black" stroke="black" points="2351.69,-315.06 2358,-323.57 2358.38,-312.98 2351.69,-315.06"/>
</g>
<!-- Node0x55cb73fc84b8&#45;&gt;Node0x55cb73fc4d68 -->
<g id="edge27" class="edge">
<title>Node0x55cb73fc84b8&#45;&gt;Node0x55cb73fc4d68</title>
<path fill="none" stroke="black" d="M1310.1,-46.82C1184.57,-22.5 935.09,6.79 763,-96.85 679.53,-147.12 637.38,-263.76 621.79,-317.64"/>
<polygon fill="black" stroke="black" points="618.34,-316.97 619.02,-327.54 625.09,-318.85 618.34,-316.97"/>
</g>
<!-- Node0x55cb73fc70b8&#45;&gt;Node0x55cb73fc7f68 -->
<g id="edge28" class="edge">
<title>Node0x55cb73fc70b8&#45;&gt;Node0x55cb73fc7f68</title>
<path fill="none" stroke="black" d="M2193.16,-426.82C2207.31,-422.81 2221.73,-418.15 2235,-412.85 2267.16,-400.01 2301.35,-380.72 2326.29,-365.49"/>
<polygon fill="black" stroke="black" points="2328.38,-368.32 2335.05,-360.08 2324.7,-362.36 2328.38,-368.32"/>
</g>
<!-- Node0x55cb73fc6bb8&#45;&gt;Node0x55cb73fc7f68 -->
<g id="edge29" class="edge">
<title>Node0x55cb73fc6bb8&#45;&gt;Node0x55cb73fc7f68</title>
<path fill="none" stroke="black" d="M1932.03,-403.82C2012.92,-400.13 2132.24,-392.1 2235,-374.85 2253.7,-371.71 2273.67,-367.16 2292.14,-362.44"/>
<polygon fill="black" stroke="black" points="2293.14,-365.79 2301.93,-359.88 2291.37,-359.02 2293.14,-365.79"/>
</g>
<!-- Node0x55cb73fc6bb8&#45;&gt;Node0x55cb73fc4d68 -->
<g id="edge31" class="edge">
<title>Node0x55cb73fc6bb8&#45;&gt;Node0x55cb73fc4d68</title>
<path fill="none" stroke="black" d="M1740.85,-405.95C1632.02,-404.6 1448.02,-401.35 1290,-393.85 1096.52,-384.68 872.3,-367.43 737.04,-356.3"/>
<polygon fill="black" stroke="black" points="737.31,-352.81 727.05,-355.48 736.73,-359.79 737.31,-352.81"/>
</g>
<!-- Node0x55cb73fc6bb8&#45;&gt;Node0x55cb73fc70b8 -->
<g id="edge30" class="edge">
<title>Node0x55cb73fc6bb8&#45;&gt;Node0x55cb73fc70b8</title>
<path fill="none" stroke="black" d="M1932.25,-420.09C1946.33,-422.06 1961.05,-424.11 1975.75,-426.17"/>
<polygon fill="black" stroke="black" points="1975.52,-429.67 1985.91,-427.59 1976.49,-422.74 1975.52,-429.67"/>
</g>
</g>
</svg>
