<?xml version="1.0" encoding="UTF-8" standalone="no"?>
<!DOCTYPE svg PUBLIC "-//W3C//DTD SVG 1.1//EN"
 "http://www.w3.org/Graphics/SVG/1.1/DTD/svg11.dtd">
<!-- Generated by graphviz version 2.43.0 (0)
 -->
<!-- Title: bin/llvm&#45;opt&#45;report Pages: 1 -->
<svg width="2834pt" height="1646pt"
 viewBox="0.00 0.00 2834.00 1645.56" xmlns="http://www.w3.org/2000/svg" xmlns:xlink="http://www.w3.org/1999/xlink">
<g id="graph0" class="graph" transform="scale(1 1) rotate(0) translate(4 1641.56)">
<title>bin/llvm&#45;opt&#45;report</title>
<polygon fill="white" stroke="transparent" points="-4,4 -4,-1641.56 2830,-1641.56 2830,4 -4,4"/>
<text text-anchor="middle" x="1413" y="-7.8" font-family="Times,serif" font-size="14.00">bin/llvm&#45;opt&#45;report</text>
<!-- Node0x55b87c310c38 -->
<g id="node1" class="node">
<title>Node0x55b87c310c38</title>
<polygon fill="#ff7f7f" stroke="black" points="530,-131 0,-131 0,-95 530,-95 530,-131"/>
<text text-anchor="middle" x="265" y="-109.3" font-family="Times,serif" font-size="14.00">{tools/llvm&#45;opt&#45;report/CMakeFiles/llvm&#45;opt&#45;report.dir/OptReport.cpp.o}</text>
</g>
<!-- Node0x55b87c3116d8 -->
<g id="node2" class="node">
<title>Node0x55b87c3116d8</title>
<polygon fill="none" stroke="black" points="836.5,-203 636.5,-203 636.5,-167 836.5,-167 836.5,-203"/>
<text text-anchor="middle" x="736.5" y="-181.3" font-family="Times,serif" font-size="14.00">{lib/libLLVMDemangle.a}</text>
</g>
<!-- Node0x55b87c310c38&#45;&gt;Node0x55b87c3116d8 -->
<g id="edge1" class="edge">
<title>Node0x55b87c310c38&#45;&gt;Node0x55b87c3116d8</title>
<path fill="none" stroke="black" d="M383.57,-131.03C457.89,-142.43 553.29,-157.06 626.01,-168.21"/>
<polygon fill="black" stroke="black" points="625.7,-171.7 636.12,-169.76 626.76,-164.78 625.7,-171.7"/>
</g>
<!-- Node0x55b87c310c88 -->
<g id="node3" class="node">
<title>Node0x55b87c310c88</title>
<polygon fill="#ff7f7f" stroke="black" points="832,-59 641,-59 641,-23 832,-23 832,-59"/>
<text text-anchor="middle" x="736.5" y="-37.3" font-family="Times,serif" font-size="14.00">{lib/libLLVMRemarks.a}</text>
</g>
<!-- Node0x55b87c310c38&#45;&gt;Node0x55b87c310c88 -->
<g id="edge2" class="edge">
<title>Node0x55b87c310c38&#45;&gt;Node0x55b87c310c88</title>
<path fill="none" stroke="#ff7f7f" d="M349.13,-94.95C427.66,-81.13 545.78,-62.87 630.73,-51.34"/>
<polygon fill="#ff7f7f" stroke="#ff7f7f" points="631.22,-54.8 640.66,-50 630.28,-47.87 631.22,-54.8"/>
</g>
<!-- Node0x55b87c3110e8 -->
<g id="node4" class="node">
<title>Node0x55b87c3110e8</title>
<polygon fill="#ff7f7f" stroke="black" points="829.5,-131 643.5,-131 643.5,-95 829.5,-95 829.5,-131"/>
<text text-anchor="middle" x="736.5" y="-109.3" font-family="Times,serif" font-size="14.00">{lib/libLLVMSupport.a}</text>
</g>
<!-- Node0x55b87c310c38&#45;&gt;Node0x55b87c3110e8 -->
<g id="edge3" class="edge">
<title>Node0x55b87c310c38&#45;&gt;Node0x55b87c3110e8</title>
<path fill="none" stroke="#ff7f7f" d="M530.25,-106.3C566.69,-106.42 602.16,-106.75 633.09,-107.31"/>
<polygon fill="#ff7f7f" stroke="#ff7f7f" points="633.33,-110.82 643.39,-107.51 633.46,-103.82 633.33,-110.82"/>
</g>
<!-- Node0x55b87c310c88&#45;&gt;Node0x55b87c310c38 -->
<g id="edge5" class="edge">
<title>Node0x55b87c310c88&#45;&gt;Node0x55b87c310c38</title>
<path fill="none" stroke="#ff7f7f" d="M652.43,-59.03C592.55,-69.58 509.62,-82.7 435.94,-93.46"/>
<polygon fill="#ff7f7f" stroke="#ff7f7f" points="435,-90.05 425.61,-94.96 436.01,-96.98 435,-90.05"/>
</g>
<!-- Node0x55b87c310c88&#45;&gt;Node0x55b87c310c88 -->
<g id="edge6" class="edge">
<title>Node0x55b87c310c88&#45;&gt;Node0x55b87c310c88</title>
<path fill="none" stroke="#ff7f7f" d="M666.31,-59.15C655.51,-68.54 678.91,-77 736.5,-77 772.5,-77 795.13,-73.69 804.41,-68.92"/>
<polygon fill="#ff7f7f" stroke="#ff7f7f" points="807.83,-69.69 806.69,-59.15 801.01,-68.1 807.83,-69.69"/>
</g>
<!-- Node0x55b87c310c88&#45;&gt;Node0x55b87c3110e8 -->
<g id="edge4" class="edge">
<title>Node0x55b87c310c88&#45;&gt;Node0x55b87c3110e8</title>
<path fill="none" stroke="#ff7f7f" d="M790.5,-59.14C810.54,-69.29 813.49,-79.45 799.35,-89.6"/>
<polygon fill="#ff7f7f" stroke="#ff7f7f" points="797.22,-86.79 790.4,-94.91 800.79,-92.82 797.22,-86.79"/>
</g>
<!-- Node0x55b87c30fce8 -->
<g id="node5" class="node">
<title>Node0x55b87c30fce8</title>
<polygon fill="#ff7f7f" stroke="black" points="1249.5,-59 1000.5,-59 1000.5,-23 1249.5,-23 1249.5,-59"/>
<text text-anchor="middle" x="1125" y="-37.3" font-family="Times,serif" font-size="14.00">{lib/libLLVMBitstreamReader.a}</text>
</g>
<!-- Node0x55b87c310c88&#45;&gt;Node0x55b87c30fce8 -->
<g id="edge7" class="edge">
<title>Node0x55b87c310c88&#45;&gt;Node0x55b87c30fce8</title>
<path fill="none" stroke="#ff7f7f" d="M832.05,-35.1C879.71,-34.2 938.31,-34.01 990.48,-34.55"/>
<polygon fill="#ff7f7f" stroke="#ff7f7f" points="990.44,-38.04 1000.48,-34.66 990.52,-31.05 990.44,-38.04"/>
</g>
<!-- Node0x55b87c3110e8&#45;&gt;Node0x55b87c310c38 -->
<g id="edge8" class="edge">
<title>Node0x55b87c3110e8&#45;&gt;Node0x55b87c310c38</title>
<path fill="none" stroke="#ff7f7f" d="M643.39,-118.49C613.03,-119.11 577.53,-119.5 540.68,-119.66"/>
<polygon fill="#ff7f7f" stroke="#ff7f7f" points="540.24,-116.16 530.25,-119.7 540.27,-123.16 540.24,-116.16"/>
</g>
<!-- Node0x55b87c3110e8&#45;&gt;Node0x55b87c310c88 -->
<g id="edge10" class="edge">
<title>Node0x55b87c3110e8&#45;&gt;Node0x55b87c310c88</title>
<path fill="none" stroke="#ff7f7f" d="M682.6,-94.91C662.5,-84.75 659.5,-74.6 673.58,-64.45"/>
<polygon fill="#ff7f7f" stroke="#ff7f7f" points="675.7,-67.26 682.5,-59.14 672.12,-61.25 675.7,-67.26"/>
</g>
<!-- Node0x55b87c3110e8&#45;&gt;Node0x55b87c3110e8 -->
<g id="edge9" class="edge">
<title>Node0x55b87c3110e8&#45;&gt;Node0x55b87c3110e8</title>
<path fill="none" stroke="#ff7f7f" d="M666.31,-131.15C655.51,-140.54 678.91,-149 736.5,-149 772.5,-149 795.13,-145.69 804.41,-140.92"/>
<polygon fill="#ff7f7f" stroke="#ff7f7f" points="807.83,-141.69 806.69,-131.15 801.01,-140.1 807.83,-141.69"/>
</g>
<!-- Node0x55b87c30fce8&#45;&gt;Node0x55b87c310c88 -->
<g id="edge11" class="edge">
<title>Node0x55b87c30fce8&#45;&gt;Node0x55b87c310c88</title>
<path fill="none" stroke="#ff7f7f" d="M1000.48,-47.34C949.54,-47.96 891.13,-47.87 842.31,-47.08"/>
<polygon fill="#ff7f7f" stroke="#ff7f7f" points="842.11,-43.57 832.05,-46.9 841.99,-50.57 842.11,-43.57"/>
</g>
<!-- Node0x55b87c30fce8&#45;&gt;Node0x55b87c3110e8 -->
<g id="edge12" class="edge">
<title>Node0x55b87c30fce8&#45;&gt;Node0x55b87c3110e8</title>
<path fill="none" stroke="#ff7f7f" d="M1041.48,-59.05C1001.04,-67.66 951.56,-77.83 907,-86 885.27,-89.98 861.91,-93.92 839.68,-97.51"/>
<polygon fill="#ff7f7f" stroke="#ff7f7f" points="838.88,-94.09 829.56,-99.13 839.99,-101.01 838.88,-94.09"/>
</g>
<!-- Node0x55b87c310788 -->
<g id="node6" class="node">
<title>Node0x55b87c310788</title>
<polygon fill="none" stroke="black" points="2078,-1573 1691,-1573 1691,-1537 2078,-1537 2078,-1573"/>
<text text-anchor="middle" x="1884.5" y="-1551.3" font-family="Times,serif" font-size="14.00">{lib/libLLVMSupport.a(ConvertUTFWrapper.cpp.o)}</text>
</g>
<!-- Node0x55b87c30f568 -->
<g id="node7" class="node">
<title>Node0x55b87c30f568</title>
<polygon fill="none" stroke="black" points="2442.5,-1573 2117.5,-1573 2117.5,-1537 2442.5,-1537 2442.5,-1573"/>
<text text-anchor="middle" x="2280" y="-1551.3" font-family="Times,serif" font-size="14.00">{lib/libLLVMSupport.a(ConvertUTF.cpp.o)}</text>
</g>
<!-- Node0x55b87c310788&#45;&gt;Node0x55b87c30f568 -->
<g id="edge13" class="edge">
<title>Node0x55b87c310788&#45;&gt;Node0x55b87c30f568</title>
<path fill="none" stroke="black" d="M2078.22,-1555C2087.97,-1555 2097.74,-1555 2107.43,-1555"/>
<polygon fill="black" stroke="black" points="2107.49,-1558.5 2117.49,-1555 2107.49,-1551.5 2107.49,-1558.5"/>
</g>
<!-- Node0x55b87c30fa68 -->
<g id="node8" class="node">
<title>Node0x55b87c30fa68</title>
<polygon fill="none" stroke="black" points="2442,-1086 2118,-1086 2118,-1050 2442,-1050 2442,-1086"/>
<text text-anchor="middle" x="2280" y="-1064.3" font-family="Times,serif" font-size="14.00">{lib/libLLVMSupport.a(SmallVector.cpp.o)}</text>
</g>
<!-- Node0x55b87c310788&#45;&gt;Node0x55b87c30fa68 -->
<g id="edge14" class="edge">
<title>Node0x55b87c310788&#45;&gt;Node0x55b87c30fa68</title>
<path fill="none" stroke="black" d="M1948.04,-1536.93C1990.97,-1521.31 2045.81,-1494.42 2078,-1452 2122.58,-1393.24 2083.33,-1357.08 2114,-1290 2150.08,-1211.11 2217.4,-1133.01 2253.91,-1093.87"/>
<polygon fill="black" stroke="black" points="2256.9,-1095.8 2261.21,-1086.13 2251.8,-1091 2256.9,-1095.8"/>
</g>
<!-- Node0x55b87c3119f8 -->
<g id="node9" class="node">
<title>Node0x55b87c3119f8</title>
<polygon fill="none" stroke="black" points="2826,-531 2482,-531 2482,-495 2826,-495 2826,-531"/>
<text text-anchor="middle" x="2654" y="-509.3" font-family="Times,serif" font-size="14.00">{lib/libLLVMSupport.a(ErrorHandling.cpp.o)}</text>
</g>
<!-- Node0x55b87c30fa68&#45;&gt;Node0x55b87c3119f8 -->
<g id="edge15" class="edge">
<title>Node0x55b87c30fa68&#45;&gt;Node0x55b87c3119f8</title>
<path fill="none" stroke="black" d="M2294.61,-1049.76C2323.29,-1011.16 2391.76,-918.19 2446,-838 2519.67,-729.09 2602.24,-595.83 2636.62,-539.81"/>
<polygon fill="black" stroke="black" points="2639.66,-541.55 2641.9,-531.19 2633.69,-537.89 2639.66,-541.55"/>
</g>
<!-- Node0x55b87c311278 -->
<g id="node10" class="node">
<title>Node0x55b87c311278</title>
<polygon fill="none" stroke="black" points="879.5,-1178 593.5,-1178 593.5,-1142 879.5,-1142 879.5,-1178"/>
<text text-anchor="middle" x="736.5" y="-1156.3" font-family="Times,serif" font-size="14.00">{lib/libLLVMSupport.a(Debug.cpp.o)}</text>
</g>
<!-- Node0x55b87c30f748 -->
<g id="node11" class="node">
<title>Node0x55b87c30f748</title>
<polygon fill="none" stroke="black" points="1298.5,-523 951.5,-523 951.5,-487 1298.5,-487 1298.5,-523"/>
<text text-anchor="middle" x="1125" y="-501.3" font-family="Times,serif" font-size="14.00">{lib/libLLVMSupport.a(ManagedStatic.cpp.o)}</text>
</g>
<!-- Node0x55b87c311278&#45;&gt;Node0x55b87c30f748 -->
<g id="edge16" class="edge">
<title>Node0x55b87c311278&#45;&gt;Node0x55b87c30f748</title>
<path fill="none" stroke="black" d="M741.75,-1141.75C758.32,-1073.38 823.62,-827.87 943,-662 983.3,-606.01 1047.34,-556.68 1087.45,-528.87"/>
<polygon fill="black" stroke="black" points="1089.6,-531.64 1095.88,-523.11 1085.65,-525.87 1089.6,-531.64"/>
</g>
<!-- Node0x55b87c310058 -->
<g id="node12" class="node">
<title>Node0x55b87c310058</title>
<polygon fill="none" stroke="black" points="2446,-1335 2114,-1335 2114,-1299 2446,-1299 2446,-1335"/>
<text text-anchor="middle" x="2280" y="-1313.3" font-family="Times,serif" font-size="14.00">{lib/libLLVMSupport.a(raw_ostream.cpp.o)}</text>
</g>
<!-- Node0x55b87c311278&#45;&gt;Node0x55b87c310058 -->
<g id="edge17" class="edge">
<title>Node0x55b87c311278&#45;&gt;Node0x55b87c310058</title>
<path fill="none" stroke="black" d="M879.61,-1168.44C889.66,-1173.15 898.97,-1179.23 907,-1187 967.8,-1245.88 885.63,-1311.78 943,-1374 1176.91,-1627.68 1349.11,-1535.35 1691,-1582 1861.42,-1605.25 1947.6,-1694.16 2078,-1582 2159.11,-1512.24 2038.81,-1420.1 2114,-1344 2114.79,-1343.2 2115.59,-1342.42 2116.41,-1341.65"/>
<polygon fill="black" stroke="black" points="2118.67,-1344.33 2124.11,-1335.24 2114.19,-1338.95 2118.67,-1344.33"/>
</g>
<!-- Node0x55b87c311728 -->
<g id="node13" class="node">
<title>Node0x55b87c311728</title>
<polygon fill="none" stroke="black" points="1655,-615 1343,-615 1343,-579 1655,-579 1655,-615"/>
<text text-anchor="middle" x="1499" y="-593.3" font-family="Times,serif" font-size="14.00">{lib/libLLVMSupport.a(Threading.cpp.o)}</text>
</g>
<!-- Node0x55b87c30f748&#45;&gt;Node0x55b87c311728 -->
<g id="edge18" class="edge">
<title>Node0x55b87c30f748&#45;&gt;Node0x55b87c311728</title>
<path fill="none" stroke="black" d="M1199.05,-523.07C1261.24,-538.45 1350.54,-560.53 1415.34,-576.56"/>
<polygon fill="black" stroke="black" points="1414.57,-579.97 1425.12,-578.97 1416.25,-573.18 1414.57,-579.97"/>
</g>
<!-- Node0x55b87c311728&#45;&gt;Node0x55b87c30fa68 -->
<g id="edge31" class="edge">
<title>Node0x55b87c311728&#45;&gt;Node0x55b87c30fa68</title>
<path fill="none" stroke="black" d="M1512.56,-615.04C1540.47,-655.59 1608.78,-757.54 1655,-849 1674.24,-887.08 1656.67,-912.66 1691,-938 1760.45,-989.25 1994.75,-948.2 2078,-971 2138.03,-987.44 2201.86,-1021.44 2241.08,-1044.49"/>
<polygon fill="black" stroke="black" points="2239.65,-1047.7 2250.03,-1049.8 2243.22,-1041.69 2239.65,-1047.7"/>
</g>
<!-- Node0x55b87c311728&#45;&gt;Node0x55b87c3119f8 -->
<g id="edge29" class="edge">
<title>Node0x55b87c311728&#45;&gt;Node0x55b87c3119f8</title>
<path fill="none" stroke="black" d="M1520.39,-578.97C1550.83,-551.72 1609.45,-497.89 1655,-448 1672.27,-429.08 1667.92,-414.1 1691,-403 1993.49,-257.62 2119.7,-338.48 2446,-417 2508.48,-432.03 2574.9,-466.57 2615.18,-489.85"/>
<polygon fill="black" stroke="black" points="2613.45,-492.89 2623.85,-494.92 2616.99,-486.85 2613.45,-492.89"/>
</g>
<!-- Node0x55b87c311c28 -->
<g id="node15" class="node">
<title>Node0x55b87c311c28</title>
<polygon fill="none" stroke="black" points="2435,-462 2125,-462 2125,-426 2435,-426 2435,-462"/>
<text text-anchor="middle" x="2280" y="-440.3" font-family="Times,serif" font-size="14.00">{lib/libLLVMSupport.a(MemAlloc.cpp.o)}</text>
</g>
<!-- Node0x55b87c311728&#45;&gt;Node0x55b87c311c28 -->
<g id="edge30" class="edge">
<title>Node0x55b87c311728&#45;&gt;Node0x55b87c311c28</title>
<path fill="none" stroke="black" d="M1514.98,-578.83C1544.45,-544.7 1613.81,-472.04 1691,-445 1853.47,-388.09 2057.04,-405.72 2177.06,-424.38"/>
<polygon fill="black" stroke="black" points="2176.56,-427.85 2186.98,-425.96 2177.66,-420.94 2176.56,-427.85"/>
</g>
<!-- Node0x55b87c311a98 -->
<g id="node21" class="node">
<title>Node0x55b87c311a98</title>
<polygon fill="none" stroke="black" points="2434,-829 2126,-829 2126,-793 2434,-793 2434,-829"/>
<text text-anchor="middle" x="2280" y="-807.3" font-family="Times,serif" font-size="14.00">{lib/libLLVMSupport.a(StringRef.cpp.o)}</text>
</g>
<!-- Node0x55b87c311728&#45;&gt;Node0x55b87c311a98 -->
<g id="edge32" class="edge">
<title>Node0x55b87c311728&#45;&gt;Node0x55b87c311a98</title>
<path fill="none" stroke="black" d="M1655.13,-588.65C1800.04,-583.12 2004.7,-581.77 2078,-613 2162.92,-649.18 2231.73,-739.38 2262.13,-784.47"/>
<polygon fill="black" stroke="black" points="2259.25,-786.45 2267.7,-792.85 2265.09,-782.59 2259.25,-786.45"/>
</g>
<!-- Node0x55b87c3105a8 -->
<g id="node22" class="node">
<title>Node0x55b87c3105a8</title>
<polygon fill="none" stroke="black" points="2025.5,-1205 1743.5,-1205 1743.5,-1169 2025.5,-1169 2025.5,-1205"/>
<text text-anchor="middle" x="1884.5" y="-1183.3" font-family="Times,serif" font-size="14.00">{lib/libLLVMSupport.a(Twine.cpp.o)}</text>
</g>
<!-- Node0x55b87c311728&#45;&gt;Node0x55b87c3105a8 -->
<g id="edge33" class="edge">
<title>Node0x55b87c311728&#45;&gt;Node0x55b87c3105a8</title>
<path fill="none" stroke="black" d="M1515.02,-615.19C1546.85,-654.83 1620.96,-753.17 1655,-849 1695.96,-964.33 1613.27,-1027.47 1691,-1122 1707.37,-1141.9 1730.07,-1155.74 1754.15,-1165.35"/>
<polygon fill="black" stroke="black" points="1753.22,-1168.74 1763.81,-1168.96 1755.67,-1162.18 1753.22,-1168.74"/>
</g>
<!-- Node0x55b87c3106e8 -->
<g id="node23" class="node">
<title>Node0x55b87c3106e8</title>
<polygon fill="none" stroke="black" points="2025,-691 1744,-691 1744,-655 2025,-655 2025,-691"/>
<text text-anchor="middle" x="1884.5" y="-669.3" font-family="Times,serif" font-size="14.00">{lib/libLLVMSupport.a(Errno.cpp.o)}</text>
</g>
<!-- Node0x55b87c311728&#45;&gt;Node0x55b87c3106e8 -->
<g id="edge34" class="edge">
<title>Node0x55b87c311728&#45;&gt;Node0x55b87c3106e8</title>
<path fill="none" stroke="black" d="M1590.88,-615.01C1648.46,-626.42 1723.01,-641.19 1782.45,-652.97"/>
<polygon fill="black" stroke="black" points="1782.11,-656.48 1792.6,-654.99 1783.48,-649.61 1782.11,-656.48"/>
</g>
<!-- Node0x55b87c310738 -->
<g id="node14" class="node">
<title>Node0x55b87c310738</title>
<polygon fill="none" stroke="black" points="889,-363 584,-363 584,-327 889,-327 889,-363"/>
<text text-anchor="middle" x="736.5" y="-341.3" font-family="Times,serif" font-size="14.00">{lib/libLLVMSupport.a(InitLLVM.cpp.o)}</text>
</g>
<!-- Node0x55b87c310738&#45;&gt;Node0x55b87c3119f8 -->
<g id="edge19" class="edge">
<title>Node0x55b87c310738&#45;&gt;Node0x55b87c3119f8</title>
<path fill="none" stroke="black" d="M889.25,-332.95C1042.68,-321.82 1286.65,-307 1498,-307 1498,-307 1498,-307 1885.5,-307 2134.84,-307 2214.63,-238.05 2446,-331 2528.46,-364.13 2600.21,-444.97 2633.4,-486.86"/>
<polygon fill="black" stroke="black" points="2630.79,-489.21 2639.7,-494.94 2636.31,-484.9 2630.79,-489.21"/>
</g>
<!-- Node0x55b87c310738&#45;&gt;Node0x55b87c30f748 -->
<g id="edge20" class="edge">
<title>Node0x55b87c310738&#45;&gt;Node0x55b87c30f748</title>
<path fill="none" stroke="black" d="M769.5,-363.05C809.31,-385.03 879.75,-422.38 943,-448 976.76,-461.67 1015.12,-474.17 1047.81,-483.95"/>
<polygon fill="black" stroke="black" points="1047.18,-487.42 1057.76,-486.9 1049.17,-480.7 1047.18,-487.42"/>
</g>
<!-- Node0x55b87c310738&#45;&gt;Node0x55b87c311c28 -->
<g id="edge21" class="edge">
<title>Node0x55b87c310738&#45;&gt;Node0x55b87c311c28</title>
<path fill="none" stroke="black" d="M889.17,-343.79C1138.28,-343.53 1649.26,-350.33 2078,-403 2116.77,-407.76 2159.22,-415.97 2195.08,-423.8"/>
<polygon fill="black" stroke="black" points="2194.49,-427.25 2205.01,-425.99 2196,-420.42 2194.49,-427.25"/>
</g>
<!-- Node0x55b87c3114f8 -->
<g id="node16" class="node">
<title>Node0x55b87c3114f8</title>
<polygon fill="none" stroke="black" points="1307,-439 943,-439 943,-403 1307,-403 1307,-439"/>
<text text-anchor="middle" x="1125" y="-417.3" font-family="Times,serif" font-size="14.00">{lib/libLLVMSupport.a(PrettyStackTrace.cpp.o)}</text>
</g>
<!-- Node0x55b87c310738&#45;&gt;Node0x55b87c3114f8 -->
<g id="edge22" class="edge">
<title>Node0x55b87c310738&#45;&gt;Node0x55b87c3114f8</title>
<path fill="none" stroke="black" d="M829.1,-363.01C887.25,-374.45 962.56,-389.26 1022.53,-401.05"/>
<polygon fill="black" stroke="black" points="1021.91,-404.49 1032.39,-402.99 1023.26,-397.62 1021.91,-404.49"/>
</g>
<!-- Node0x55b87c30f608 -->
<g id="node17" class="node">
<title>Node0x55b87c30f608</title>
<polygon fill="none" stroke="black" points="1645,-279 1353,-279 1353,-243 1645,-243 1645,-279"/>
<text text-anchor="middle" x="1499" y="-257.3" font-family="Times,serif" font-size="14.00">{lib/libLLVMSupport.a(Signals.cpp.o)}</text>
</g>
<!-- Node0x55b87c310738&#45;&gt;Node0x55b87c30f608 -->
<g id="edge23" class="edge">
<title>Node0x55b87c310738&#45;&gt;Node0x55b87c30f608</title>
<path fill="none" stroke="black" d="M796.24,-326.97C837.01,-315.23 892.8,-300.73 943,-293 1077.03,-272.37 1231.13,-264.75 1342.89,-262.07"/>
<polygon fill="black" stroke="black" points="1342.97,-265.57 1352.89,-261.84 1342.81,-258.57 1342.97,-265.57"/>
</g>
<!-- Node0x55b87c3114f8&#45;&gt;Node0x55b87c30fa68 -->
<g id="edge24" class="edge">
<title>Node0x55b87c3114f8&#45;&gt;Node0x55b87c30fa68</title>
<path fill="none" stroke="black" d="M1252.24,-439.14C1273.4,-447.69 1293,-460.09 1307,-478 1387.88,-581.5 1266.97,-960.88 1343,-1068 1440.08,-1204.78 1526.57,-1180.9 1691,-1214 1859.62,-1247.94 1914.42,-1267.14 2078,-1214 2151.22,-1190.21 2220.05,-1128.62 2255.02,-1093.5"/>
<polygon fill="black" stroke="black" points="2257.86,-1095.61 2262.36,-1086.02 2252.86,-1090.7 2257.86,-1095.61"/>
</g>
<!-- Node0x55b87c3114f8&#45;&gt;Node0x55b87c310058 -->
<g id="edge25" class="edge">
<title>Node0x55b87c3114f8&#45;&gt;Node0x55b87c310058</title>
<path fill="none" stroke="black" d="M1252.34,-439.05C1273.5,-447.61 1293.07,-460.04 1307,-478 1352.89,-537.18 1311.86,-1082.9 1343,-1151 1432.29,-1346.24 1491.88,-1405.73 1691,-1486 1770.76,-1518.15 2010.13,-1538.81 2078,-1486 2129.38,-1446.02 2066.02,-1388.01 2114,-1344 2114.99,-1343.09 2116,-1342.2 2117.03,-1341.34"/>
<polygon fill="black" stroke="black" points="2119.34,-1343.98 2125.23,-1335.18 2115.14,-1338.39 2119.34,-1343.98"/>
</g>
<!-- Node0x55b87c3114f8&#45;&gt;Node0x55b87c30f608 -->
<g id="edge26" class="edge">
<title>Node0x55b87c3114f8&#45;&gt;Node0x55b87c30f608</title>
<path fill="none" stroke="black" d="M1167.95,-402.96C1236.42,-373.51 1371.98,-315.2 1446.29,-283.24"/>
<polygon fill="black" stroke="black" points="1448.11,-286.27 1455.92,-279.1 1445.35,-279.84 1448.11,-286.27"/>
</g>
<!-- Node0x55b87c311778 -->
<g id="node18" class="node">
<title>Node0x55b87c311778</title>
<polygon fill="none" stroke="black" points="1654,-439 1344,-439 1344,-403 1654,-403 1654,-439"/>
<text text-anchor="middle" x="1499" y="-417.3" font-family="Times,serif" font-size="14.00">{lib/libLLVMSupport.a(Watchdog.cpp.o)}</text>
</g>
<!-- Node0x55b87c3114f8&#45;&gt;Node0x55b87c311778 -->
<g id="edge27" class="edge">
<title>Node0x55b87c3114f8&#45;&gt;Node0x55b87c311778</title>
<path fill="none" stroke="black" d="M1307.1,-421C1315.93,-421 1324.77,-421 1333.56,-421"/>
<polygon fill="black" stroke="black" points="1333.83,-424.5 1343.83,-421 1333.83,-417.5 1333.83,-424.5"/>
</g>
<!-- Node0x55b87c30fab8 -->
<g id="node19" class="node">
<title>Node0x55b87c30fab8</title>
<polygon fill="none" stroke="black" points="427,-1232 103,-1232 103,-1196 427,-1196 427,-1232"/>
<text text-anchor="middle" x="265" y="-1210.3" font-family="Times,serif" font-size="14.00">{lib/libLLVMSupport.a(LineIterator.cpp.o)}</text>
</g>
<!-- Node0x55b87c3112c8 -->
<g id="node20" class="node">
<title>Node0x55b87c3112c8</title>
<polygon fill="none" stroke="black" points="907,-1232 566,-1232 566,-1196 907,-1196 907,-1232"/>
<text text-anchor="middle" x="736.5" y="-1210.3" font-family="Times,serif" font-size="14.00">{lib/libLLVMSupport.a(MemoryBuffer.cpp.o)}</text>
</g>
<!-- Node0x55b87c30fab8&#45;&gt;Node0x55b87c3112c8 -->
<g id="edge28" class="edge">
<title>Node0x55b87c30fab8&#45;&gt;Node0x55b87c3112c8</title>
<path fill="none" stroke="black" d="M427.25,-1214C468.64,-1214 513.42,-1214 555.69,-1214"/>
<polygon fill="black" stroke="black" points="555.81,-1217.5 565.81,-1214 555.81,-1210.5 555.81,-1217.5"/>
</g>
<!-- Node0x55b87c3105a8&#45;&gt;Node0x55b87c30fa68 -->
<g id="edge56" class="edge">
<title>Node0x55b87c3105a8&#45;&gt;Node0x55b87c30fa68</title>
<path fill="none" stroke="black" d="M2020.04,-1168.95C2039.66,-1165.07 2059.48,-1160.46 2078,-1155 2134.05,-1138.48 2195.24,-1110.44 2235.2,-1090.67"/>
<polygon fill="black" stroke="black" points="2237,-1093.68 2244.39,-1086.08 2233.88,-1087.42 2237,-1093.68"/>
</g>
<!-- Node0x55b87c3105a8&#45;&gt;Node0x55b87c310058 -->
<g id="edge57" class="edge">
<title>Node0x55b87c3105a8&#45;&gt;Node0x55b87c310058</title>
<path fill="none" stroke="black" d="M1940.21,-1205.08C2012.21,-1228.86 2138.53,-1270.59 2214.92,-1295.83"/>
<polygon fill="black" stroke="black" points="2213.84,-1299.16 2224.43,-1298.97 2216.04,-1292.51 2213.84,-1299.16"/>
</g>
<!-- Node0x55b87c30f838 -->
<g id="node24" class="node">
<title>Node0x55b87c30f838</title>
<polygon fill="none" stroke="black" points="2443,-1389 2117,-1389 2117,-1353 2443,-1353 2443,-1389"/>
<text text-anchor="middle" x="2280" y="-1367.3" font-family="Times,serif" font-size="14.00">{lib/libLLVMSupport.a(SmallPtrSet.cpp.o)}</text>
</g>
<!-- Node0x55b87c30f838&#45;&gt;Node0x55b87c3119f8 -->
<g id="edge35" class="edge">
<title>Node0x55b87c30f838&#45;&gt;Node0x55b87c3119f8</title>
<path fill="none" stroke="black" d="M2434.78,-1352.84C2438.72,-1350.18 2442.48,-1347.25 2446,-1344 2569.11,-1230.58 2635.8,-673.78 2650.07,-541.32"/>
<polygon fill="black" stroke="black" points="2653.57,-541.49 2651.15,-531.17 2646.61,-540.75 2653.57,-541.49"/>
</g>
<!-- Node0x55b87c310aa8 -->
<g id="node25" class="node">
<title>Node0x55b87c310aa8</title>
<polygon fill="none" stroke="black" points="2438,-554 2122,-554 2122,-518 2438,-518 2438,-554"/>
<text text-anchor="middle" x="2280" y="-532.3" font-family="Times,serif" font-size="14.00">{lib/libLLVMSupport.a(StringMap.cpp.o)}</text>
</g>
<!-- Node0x55b87c310aa8&#45;&gt;Node0x55b87c3119f8 -->
<g id="edge36" class="edge">
<title>Node0x55b87c310aa8&#45;&gt;Node0x55b87c3119f8</title>
<path fill="none" stroke="black" d="M2438.22,-526.28C2449.23,-525.6 2460.37,-524.91 2471.5,-524.22"/>
<polygon fill="black" stroke="black" points="2471.94,-527.7 2481.7,-523.59 2471.5,-520.71 2471.94,-527.7"/>
</g>
<!-- Node0x55b87c3117c8 -->
<g id="node26" class="node">
<title>Node0x55b87c3117c8</title>
<polygon fill="none" stroke="black" points="2046.5,-783 1722.5,-783 1722.5,-747 2046.5,-747 2046.5,-783"/>
<text text-anchor="middle" x="1884.5" y="-761.3" font-family="Times,serif" font-size="14.00">{lib/libLLVMSupport.a(StringSaver.cpp.o)}</text>
</g>
<!-- Node0x55b87c3117c8&#45;&gt;Node0x55b87c30fa68 -->
<g id="edge38" class="edge">
<title>Node0x55b87c3117c8&#45;&gt;Node0x55b87c30fa68</title>
<path fill="none" stroke="black" d="M1970.62,-783.01C2005.87,-793.1 2045.92,-808.17 2078,-830 2163.48,-888.17 2233.39,-992.19 2263.31,-1041.14"/>
<polygon fill="black" stroke="black" points="2260.42,-1043.14 2268.59,-1049.89 2266.42,-1039.52 2260.42,-1043.14"/>
</g>
<!-- Node0x55b87c3117c8&#45;&gt;Node0x55b87c311c28 -->
<g id="edge37" class="edge">
<title>Node0x55b87c3117c8&#45;&gt;Node0x55b87c311c28</title>
<path fill="none" stroke="black" d="M2002.34,-746.94C2030.66,-737.31 2058.38,-722.56 2078,-700 2134.68,-634.81 2058.95,-575.57 2114,-509 2130.45,-489.1 2153.84,-475.26 2177.84,-465.65"/>
<polygon fill="black" stroke="black" points="2179.29,-468.84 2187.42,-462.04 2176.83,-462.29 2179.29,-468.84"/>
</g>
<!-- Node0x55b87c310698 -->
<g id="node27" class="node">
<title>Node0x55b87c310698</title>
<polygon fill="none" stroke="black" points="2024,-875 1745,-875 1745,-839 2024,-839 2024,-875"/>
<text text-anchor="middle" x="1884.5" y="-853.3" font-family="Times,serif" font-size="14.00">{lib/libLLVMSupport.a(APInt.cpp.o)}</text>
</g>
<!-- Node0x55b87c310698&#45;&gt;Node0x55b87c30fa68 -->
<g id="edge39" class="edge">
<title>Node0x55b87c310698&#45;&gt;Node0x55b87c30fa68</title>
<path fill="none" stroke="black" d="M2024.11,-866.17C2042.75,-870.33 2061.21,-876.09 2078,-884 2157.08,-921.26 2226.71,-1000.59 2259.34,-1041.85"/>
<polygon fill="black" stroke="black" points="2256.64,-1044.07 2265.55,-1049.81 2262.16,-1039.77 2256.64,-1044.07"/>
</g>
<!-- Node0x55b87c310698&#45;&gt;Node0x55b87c310058 -->
<g id="edge42" class="edge">
<title>Node0x55b87c310698&#45;&gt;Node0x55b87c310058</title>
<path fill="none" stroke="black" d="M2024.22,-855.04C2044.26,-860.47 2063.11,-869.54 2078,-884 2146.26,-950.26 2076.6,-1007.53 2114,-1095 2148.16,-1174.89 2216.46,-1252.75 2253.57,-1291.54"/>
<polygon fill="black" stroke="black" points="2251.09,-1294.01 2260.56,-1298.77 2256.13,-1289.14 2251.09,-1294.01"/>
</g>
<!-- Node0x55b87c310698&#45;&gt;Node0x55b87c311a98 -->
<g id="edge40" class="edge">
<title>Node0x55b87c310698&#45;&gt;Node0x55b87c311a98</title>
<path fill="none" stroke="black" d="M2024.23,-840.78C2053.75,-837.33 2085.19,-833.66 2115.54,-830.11"/>
<polygon fill="black" stroke="black" points="2116.26,-833.55 2125.78,-828.91 2115.44,-826.6 2116.26,-833.55"/>
</g>
<!-- Node0x55b87c3118b8 -->
<g id="node28" class="node">
<title>Node0x55b87c3118b8</title>
<polygon fill="none" stroke="black" points="2429.5,-608 2130.5,-608 2130.5,-572 2429.5,-572 2429.5,-608"/>
<text text-anchor="middle" x="2280" y="-586.3" font-family="Times,serif" font-size="14.00">{lib/libLLVMSupport.a(Hashing.cpp.o)}</text>
</g>
<!-- Node0x55b87c310698&#45;&gt;Node0x55b87c3118b8 -->
<g id="edge41" class="edge">
<title>Node0x55b87c310698&#45;&gt;Node0x55b87c3118b8</title>
<path fill="none" stroke="black" d="M1965.49,-838.94C2001.59,-828.6 2043.71,-813.34 2078,-792 2156,-743.45 2226.61,-659.04 2259.5,-616.35"/>
<polygon fill="black" stroke="black" points="2262.48,-618.22 2265.75,-608.14 2256.91,-613.97 2262.48,-618.22"/>
</g>
<!-- Node0x55b87c310328 -->
<g id="node29" class="node">
<title>Node0x55b87c310328</title>
<polygon fill="none" stroke="black" points="2043,-523 1726,-523 1726,-487 2043,-487 2043,-523"/>
<text text-anchor="middle" x="1884.5" y="-501.3" font-family="Times,serif" font-size="14.00">{lib/libLLVMSupport.a(FoldingSet.cpp.o)}</text>
</g>
<!-- Node0x55b87c310328&#45;&gt;Node0x55b87c30fa68 -->
<g id="edge45" class="edge">
<title>Node0x55b87c310328&#45;&gt;Node0x55b87c30fa68</title>
<path fill="none" stroke="black" d="M1925.76,-523.05C1970.45,-545.29 2041.14,-587.46 2078,-646 2124.26,-719.47 2079.88,-758.16 2114,-838 2149.21,-920.4 2217.97,-1002.11 2254.63,-1042.3"/>
<polygon fill="black" stroke="black" points="2252.16,-1044.79 2261.51,-1049.77 2257.31,-1040.05 2252.16,-1044.79"/>
</g>
<!-- Node0x55b87c310328&#45;&gt;Node0x55b87c3119f8 -->
<g id="edge43" class="edge">
<title>Node0x55b87c310328&#45;&gt;Node0x55b87c3119f8</title>
<path fill="none" stroke="black" d="M2043.15,-505.61C2155.47,-506.17 2310.02,-507.2 2446,-509 2454.4,-509.11 2462.98,-509.24 2471.66,-509.37"/>
<polygon fill="black" stroke="black" points="2471.82,-512.87 2481.87,-509.53 2471.93,-505.87 2471.82,-512.87"/>
</g>
<!-- Node0x55b87c310328&#45;&gt;Node0x55b87c311c28 -->
<g id="edge44" class="edge">
<title>Node0x55b87c310328&#45;&gt;Node0x55b87c311c28</title>
<path fill="none" stroke="black" d="M2001.7,-486.99C2049.2,-479.62 2104.27,-471.09 2152.76,-463.57"/>
<polygon fill="black" stroke="black" points="2153.34,-467.02 2162.68,-462.03 2152.27,-460.1 2153.34,-467.02"/>
</g>
<!-- Node0x55b87c310328&#45;&gt;Node0x55b87c311a98 -->
<g id="edge47" class="edge">
<title>Node0x55b87c310328&#45;&gt;Node0x55b87c311a98</title>
<path fill="none" stroke="black" d="M1962.49,-523.09C1999.57,-534.18 2043.39,-550.96 2078,-575 2078.7,-575.49 2205.14,-724.14 2257.1,-785.24"/>
<polygon fill="black" stroke="black" points="2254.48,-787.57 2263.63,-792.92 2259.81,-783.03 2254.48,-787.57"/>
</g>
<!-- Node0x55b87c310328&#45;&gt;Node0x55b87c310aa8 -->
<g id="edge46" class="edge">
<title>Node0x55b87c310328&#45;&gt;Node0x55b87c310aa8</title>
<path fill="none" stroke="black" d="M2043,-517.41C2065.64,-519.19 2089.01,-521.03 2111.83,-522.83"/>
<polygon fill="black" stroke="black" points="2111.68,-526.33 2121.93,-523.63 2112.23,-519.35 2111.68,-526.33"/>
</g>
<!-- Node0x55b87c310328&#45;&gt;Node0x55b87c3118b8 -->
<g id="edge48" class="edge">
<title>Node0x55b87c310328&#45;&gt;Node0x55b87c3118b8</title>
<path fill="none" stroke="black" d="M2035.86,-523.02C2050.36,-526.82 2064.63,-531.43 2078,-537 2096.22,-544.6 2095.77,-555.43 2114,-563 2119.11,-565.12 2124.37,-567.08 2129.74,-568.88"/>
<polygon fill="black" stroke="black" points="2128.91,-572.29 2139.5,-571.97 2131.02,-565.62 2128.91,-572.29"/>
</g>
<!-- Node0x55b87c310d28 -->
<g id="node30" class="node">
<title>Node0x55b87c310d28</title>
<polygon fill="none" stroke="black" points="1639.5,-1059 1358.5,-1059 1358.5,-1023 1639.5,-1023 1639.5,-1059"/>
<text text-anchor="middle" x="1499" y="-1037.3" font-family="Times,serif" font-size="14.00">{lib/libLLVMSupport.a(Triple.cpp.o)}</text>
</g>
<!-- Node0x55b87c310d28&#45;&gt;Node0x55b87c30fa68 -->
<g id="edge49" class="edge">
<title>Node0x55b87c310d28&#45;&gt;Node0x55b87c30fa68</title>
<path fill="none" stroke="black" d="M1531.5,-1059.04C1568.36,-1079.01 1631.88,-1109.98 1691,-1122 1859.55,-1156.26 1907.48,-1144.51 2078,-1122 2125.55,-1115.72 2177.84,-1101.44 2217.16,-1089.13"/>
<polygon fill="black" stroke="black" points="2218.39,-1092.41 2226.87,-1086.05 2216.28,-1085.74 2218.39,-1092.41"/>
</g>
<!-- Node0x55b87c310d28&#45;&gt;Node0x55b87c311a98 -->
<g id="edge50" class="edge">
<title>Node0x55b87c310d28&#45;&gt;Node0x55b87c311a98</title>
<path fill="none" stroke="black" d="M1525.83,-1022.95C1559.06,-998.71 1617.02,-952.88 1655,-903 1676.91,-874.22 1660.59,-849.6 1691,-830 1758.72,-786.36 1966.25,-789.29 2115.58,-797.96"/>
<polygon fill="black" stroke="black" points="2115.58,-801.47 2125.77,-798.57 2116,-794.48 2115.58,-801.47"/>
</g>
<!-- Node0x55b87c310d28&#45;&gt;Node0x55b87c3105a8 -->
<g id="edge52" class="edge">
<title>Node0x55b87c310d28&#45;&gt;Node0x55b87c3105a8</title>
<path fill="none" stroke="black" d="M1523.54,-1059.06C1558.2,-1084.69 1625.92,-1131.14 1691,-1155 1704.5,-1159.95 1718.82,-1164.14 1733.31,-1167.68"/>
<polygon fill="black" stroke="black" points="1732.83,-1171.16 1743.37,-1170.03 1734.43,-1164.35 1732.83,-1171.16"/>
</g>
<!-- Node0x55b87c310378 -->
<g id="node31" class="node">
<title>Node0x55b87c310378</title>
<polygon fill="none" stroke="black" points="2067,-1059 1702,-1059 1702,-1023 2067,-1023 2067,-1059"/>
<text text-anchor="middle" x="1884.5" y="-1037.3" font-family="Times,serif" font-size="14.00">{lib/libLLVMSupport.a(ARMTargetParser.cpp.o)}</text>
</g>
<!-- Node0x55b87c310d28&#45;&gt;Node0x55b87c310378 -->
<g id="edge51" class="edge">
<title>Node0x55b87c310d28&#45;&gt;Node0x55b87c310378</title>
<path fill="none" stroke="black" d="M1639.54,-1034.48C1656.46,-1034.33 1673.96,-1034.25 1691.47,-1034.25"/>
<polygon fill="black" stroke="black" points="1691.77,-1037.75 1701.77,-1034.26 1691.78,-1030.75 1691.77,-1037.75"/>
</g>
<!-- Node0x55b87c310378&#45;&gt;Node0x55b87c30fa68 -->
<g id="edge53" class="edge">
<title>Node0x55b87c310378&#45;&gt;Node0x55b87c30fa68</title>
<path fill="none" stroke="black" d="M2067.28,-1053.47C2080.76,-1054.4 2094.33,-1055.33 2107.74,-1056.25"/>
<polygon fill="black" stroke="black" points="2107.75,-1059.76 2117.96,-1056.95 2108.23,-1052.77 2107.75,-1059.76"/>
</g>
<!-- Node0x55b87c310378&#45;&gt;Node0x55b87c311a98 -->
<g id="edge54" class="edge">
<title>Node0x55b87c310378&#45;&gt;Node0x55b87c311a98</title>
<path fill="none" stroke="black" d="M1921.05,-1022.96C1960,-1002.96 2024.12,-969.38 2078,-938 2136.86,-903.72 2203.36,-860.86 2243.19,-834.73"/>
<polygon fill="black" stroke="black" points="2245.32,-837.52 2251.75,-829.1 2241.47,-831.67 2245.32,-837.52"/>
</g>
<!-- Node0x55b87c310378&#45;&gt;Node0x55b87c310d28 -->
<g id="edge55" class="edge">
<title>Node0x55b87c310378&#45;&gt;Node0x55b87c310d28</title>
<path fill="none" stroke="black" d="M1701.77,-1047.74C1684.29,-1047.77 1666.69,-1047.72 1649.56,-1047.6"/>
<polygon fill="black" stroke="black" points="1649.56,-1044.1 1639.54,-1047.52 1649.51,-1051.1 1649.56,-1044.1"/>
</g>
<!-- Node0x55b87c30f8d8 -->
<g id="node32" class="node">
<title>Node0x55b87c30f8d8</title>
<polygon fill="none" stroke="black" points="2068,-1443 1701,-1443 1701,-1407 2068,-1407 2068,-1443"/>
<text text-anchor="middle" x="1884.5" y="-1421.3" font-family="Times,serif" font-size="14.00">{lib/libLLVMSupport.a(NativeFormatting.cpp.o)}</text>
</g>
<!-- Node0x55b87c30f8d8&#45;&gt;Node0x55b87c30fa68 -->
<g id="edge58" class="edge">
<title>Node0x55b87c30f8d8&#45;&gt;Node0x55b87c30fa68</title>
<path fill="none" stroke="black" d="M2065.75,-1406.88C2070.01,-1404.19 2074.11,-1401.24 2078,-1398 2116.89,-1365.63 2090.62,-1334.87 2114,-1290 2154.28,-1212.71 2220.38,-1133.43 2255.44,-1093.83"/>
<polygon fill="black" stroke="black" points="2258.18,-1096.01 2262.23,-1086.22 2252.96,-1091.35 2258.18,-1096.01"/>
</g>
<!-- Node0x55b87c30f8d8&#45;&gt;Node0x55b87c310058 -->
<g id="edge59" class="edge">
<title>Node0x55b87c30f8d8&#45;&gt;Node0x55b87c310058</title>
<path fill="none" stroke="black" d="M2061.48,-1406.98C2067.19,-1404.3 2072.71,-1401.32 2078,-1398 2102.42,-1382.65 2089.75,-1359.63 2114,-1344 2116.32,-1342.5 2118.7,-1341.08 2121.12,-1339.73"/>
<polygon fill="black" stroke="black" points="2122.79,-1342.81 2130.1,-1335.14 2119.6,-1336.58 2122.79,-1342.81"/>
</g>
<!-- Node0x55b87c30fb58 -->
<g id="node33" class="node">
<title>Node0x55b87c30fb58</title>
<polygon fill="none" stroke="black" points="2059,-929 1710,-929 1710,-893 2059,-893 2059,-929"/>
<text text-anchor="middle" x="1884.5" y="-907.3" font-family="Times,serif" font-size="14.00">{lib/libLLVMSupport.a(FormatVariadic.cpp.o)}</text>
</g>
<!-- Node0x55b87c30fb58&#45;&gt;Node0x55b87c30fa68 -->
<g id="edge60" class="edge">
<title>Node0x55b87c30fb58&#45;&gt;Node0x55b87c30fa68</title>
<path fill="none" stroke="black" d="M2031.64,-929.05C2047.52,-932.85 2063.26,-937.44 2078,-943 2143.42,-967.66 2210.66,-1014.75 2248.41,-1043.57"/>
<polygon fill="black" stroke="black" points="2246.4,-1046.44 2256.45,-1049.78 2250.67,-1040.9 2246.4,-1046.44"/>
</g>
<!-- Node0x55b87c30fb58&#45;&gt;Node0x55b87c311a98 -->
<g id="edge61" class="edge">
<title>Node0x55b87c30fb58&#45;&gt;Node0x55b87c311a98</title>
<path fill="none" stroke="black" d="M2036.1,-892.97C2050.34,-890.34 2064.49,-887.36 2078,-884 2130.2,-871.01 2187.69,-849.34 2227.77,-832.98"/>
<polygon fill="black" stroke="black" points="2229.15,-836.2 2237.06,-829.15 2226.48,-829.72 2229.15,-836.2"/>
</g>
<!-- Node0x55b87c30f7e8 -->
<g id="node34" class="node">
<title>Node0x55b87c30f7e8</title>
<polygon fill="none" stroke="black" points="2021.5,-1335 1747.5,-1335 1747.5,-1299 2021.5,-1299 2021.5,-1335"/>
<text text-anchor="middle" x="1884.5" y="-1313.3" font-family="Times,serif" font-size="14.00">{lib/libLLVMSupport.a(MD5.cpp.o)}</text>
</g>
<!-- Node0x55b87c30f7e8&#45;&gt;Node0x55b87c30fa68 -->
<g id="edge62" class="edge">
<title>Node0x55b87c30f7e8&#45;&gt;Node0x55b87c30fa68</title>
<path fill="none" stroke="black" d="M2021.54,-1305.97C2041.19,-1301.12 2060.63,-1294.36 2078,-1285 2163.82,-1238.76 2232.9,-1141.76 2262.86,-1094.72"/>
<polygon fill="black" stroke="black" points="2265.98,-1096.34 2268.33,-1086.01 2260.05,-1092.62 2265.98,-1096.34"/>
</g>
<!-- Node0x55b87c30f7e8&#45;&gt;Node0x55b87c310058 -->
<g id="edge63" class="edge">
<title>Node0x55b87c30f7e8&#45;&gt;Node0x55b87c310058</title>
<path fill="none" stroke="black" d="M2021.75,-1317C2048.15,-1317 2076.16,-1317 2103.61,-1317"/>
<polygon fill="black" stroke="black" points="2103.7,-1320.5 2113.7,-1317 2103.7,-1313.5 2103.7,-1320.5"/>
</g>
<!-- Node0x55b87c30fb08 -->
<g id="node35" class="node">
<title>Node0x55b87c30fb08</title>
<polygon fill="none" stroke="black" points="884,-684 589,-684 589,-648 884,-648 884,-684"/>
<text text-anchor="middle" x="736.5" y="-662.3" font-family="Times,serif" font-size="14.00">{lib/libLLVMSupport.a(Process.cpp.o)}</text>
</g>
<!-- Node0x55b87c30fb08&#45;&gt;Node0x55b87c30fa68 -->
<g id="edge66" class="edge">
<title>Node0x55b87c30fb08&#45;&gt;Node0x55b87c30fa68</title>
<path fill="none" stroke="black" d="M745.77,-684.23C769.56,-734.92 842.97,-879.37 943,-964 1213.99,-1193.28 1339.05,-1197.78 1691,-1244 1861.54,-1266.39 1917,-1304.53 2078,-1244 2158.42,-1213.77 2227.7,-1135.14 2259.85,-1093.98"/>
<polygon fill="black" stroke="black" points="2262.64,-1096.09 2265.96,-1086.03 2257.09,-1091.83 2262.64,-1096.09"/>
</g>
<!-- Node0x55b87c30fb08&#45;&gt;Node0x55b87c30f748 -->
<g id="edge65" class="edge">
<title>Node0x55b87c30fb08&#45;&gt;Node0x55b87c30f748</title>
<path fill="none" stroke="black" d="M759.67,-647.97C795.75,-619.61 870.48,-564.94 943,-537 954.4,-532.61 966.43,-528.82 978.65,-525.54"/>
<polygon fill="black" stroke="black" points="979.67,-528.89 988.49,-523.02 977.94,-522.11 979.67,-528.89"/>
</g>
<!-- Node0x55b87c30fb08&#45;&gt;Node0x55b87c311a98 -->
<g id="edge67" class="edge">
<title>Node0x55b87c30fb08&#45;&gt;Node0x55b87c311a98</title>
<path fill="none" stroke="black" d="M884.01,-658.03C1208.57,-641.2 1968.19,-606.7 2078,-646 2155.78,-673.84 2225.06,-746.18 2258.26,-785.18"/>
<polygon fill="black" stroke="black" points="2255.68,-787.55 2264.78,-792.97 2261.04,-783.06 2255.68,-787.55"/>
</g>
<!-- Node0x55b87c30fb08&#45;&gt;Node0x55b87c3118b8 -->
<g id="edge68" class="edge">
<title>Node0x55b87c30fb08&#45;&gt;Node0x55b87c3118b8</title>
<path fill="none" stroke="black" d="M834.09,-647.96C868.43,-641.72 907.4,-634.83 943,-629 1120.34,-599.96 1163.78,-583.15 1343,-570 1668.83,-546.1 1751.48,-570.87 2078,-582 2091.62,-582.46 2105.76,-582.97 2119.95,-583.5"/>
<polygon fill="black" stroke="black" points="2120.15,-587.01 2130.27,-583.89 2120.41,-580.02 2120.15,-587.01"/>
</g>
<!-- Node0x55b87c311688 -->
<g id="node36" class="node">
<title>Node0x55b87c311688</title>
<polygon fill="none" stroke="black" points="1263.5,-707 986.5,-707 986.5,-671 1263.5,-671 1263.5,-707"/>
<text text-anchor="middle" x="1125" y="-685.3" font-family="Times,serif" font-size="14.00">{lib/libLLVMSupport.a(Error.cpp.o)}</text>
</g>
<!-- Node0x55b87c30fb08&#45;&gt;Node0x55b87c311688 -->
<g id="edge64" class="edge">
<title>Node0x55b87c30fb08&#45;&gt;Node0x55b87c311688</title>
<path fill="none" stroke="black" d="M884.17,-674.73C914.29,-676.52 946.02,-678.41 976.18,-680.2"/>
<polygon fill="black" stroke="black" points="976.16,-683.71 986.35,-680.81 976.57,-676.72 976.16,-683.71"/>
</g>
<!-- Node0x55b87c310148 -->
<g id="node37" class="node">
<title>Node0x55b87c310148</title>
<polygon fill="none" stroke="black" points="2020.5,-1389 1748.5,-1389 1748.5,-1353 2020.5,-1353 2020.5,-1389"/>
<text text-anchor="middle" x="1884.5" y="-1367.3" font-family="Times,serif" font-size="14.00">{lib/libLLVMSupport.a(Path.cpp.o)}</text>
</g>
<!-- Node0x55b87c30fb08&#45;&gt;Node0x55b87c310148 -->
<g id="edge69" class="edge">
<title>Node0x55b87c30fb08&#45;&gt;Node0x55b87c310148</title>
<path fill="none" stroke="black" d="M745.38,-684.34C771.73,-746.32 857.95,-954.16 907,-1133 929.74,-1215.89 878.23,-1266.5 943,-1323 1057.8,-1423.14 1503.84,-1402.92 1738.04,-1384.51"/>
<polygon fill="black" stroke="black" points="1738.65,-1387.97 1748.34,-1383.69 1738.1,-1380.99 1738.65,-1387.97"/>
</g>
<!-- Node0x55b87c310af8 -->
<g id="node38" class="node">
<title>Node0x55b87c310af8</title>
<polygon fill="none" stroke="black" points="2050.5,-1113 1718.5,-1113 1718.5,-1077 2050.5,-1077 2050.5,-1113"/>
<text text-anchor="middle" x="1884.5" y="-1091.3" font-family="Times,serif" font-size="14.00">{lib/libLLVMSupport.a(StringExtras.cpp.o)}</text>
</g>
<!-- Node0x55b87c30fb08&#45;&gt;Node0x55b87c310af8 -->
<g id="edge70" class="edge">
<title>Node0x55b87c30fb08&#45;&gt;Node0x55b87c310af8</title>
<path fill="none" stroke="black" d="M756.29,-684.26C826.35,-750.95 1081.72,-981.99 1343,-1068 1460.59,-1106.71 1600.32,-1112.72 1708.24,-1109.44"/>
<polygon fill="black" stroke="black" points="1708.38,-1112.94 1718.26,-1109.11 1708.15,-1105.95 1708.38,-1112.94"/>
</g>
<!-- Node0x55b87c310af8&#45;&gt;Node0x55b87c30fa68 -->
<g id="edge71" class="edge">
<title>Node0x55b87c310af8&#45;&gt;Node0x55b87c30fa68</title>
<path fill="none" stroke="black" d="M2050.67,-1083.67C2069.48,-1082.38 2088.68,-1081.06 2107.57,-1079.76"/>
<polygon fill="black" stroke="black" points="2107.98,-1083.24 2117.72,-1079.07 2107.5,-1076.26 2107.98,-1083.24"/>
</g>
<!-- Node0x55b87c310af8&#45;&gt;Node0x55b87c310058 -->
<g id="edge73" class="edge">
<title>Node0x55b87c310af8&#45;&gt;Node0x55b87c310058</title>
<path fill="none" stroke="black" d="M1957.83,-1113.13C1995,-1123.99 2040.27,-1139.66 2078,-1160 2146.67,-1197.01 2216.02,-1257.44 2252.59,-1291.52"/>
<polygon fill="black" stroke="black" points="2250.63,-1294.48 2260.31,-1298.78 2255.42,-1289.38 2250.63,-1294.48"/>
</g>
<!-- Node0x55b87c310af8&#45;&gt;Node0x55b87c311a98 -->
<g id="edge72" class="edge">
<title>Node0x55b87c310af8&#45;&gt;Node0x55b87c311a98</title>
<path fill="none" stroke="black" d="M2050.67,-1080.67C2060.18,-1077.16 2069.38,-1072.97 2078,-1068 2127.24,-1039.6 2222.81,-897.77 2261.81,-837.82"/>
<polygon fill="black" stroke="black" points="2264.85,-839.56 2267.35,-829.26 2258.98,-835.75 2264.85,-839.56"/>
</g>
<!-- Node0x55b87c311c78 -->
<g id="node39" class="node">
<title>Node0x55b87c311c78</title>
<polygon fill="none" stroke="black" points="467,-523 63,-523 63,-487 467,-487 467,-523"/>
<text text-anchor="middle" x="265" y="-501.3" font-family="Times,serif" font-size="14.00">{lib/libLLVMSupport.a(CrashRecoveryContext.cpp.o)}</text>
</g>
<!-- Node0x55b87c311c78&#45;&gt;Node0x55b87c30f748 -->
<g id="edge74" class="edge">
<title>Node0x55b87c311c78&#45;&gt;Node0x55b87c30f748</title>
<path fill="none" stroke="black" d="M467.16,-505C610.56,-505 801.8,-505 940.93,-505"/>
<polygon fill="black" stroke="black" points="941.27,-508.5 951.27,-505 941.27,-501.5 941.27,-508.5"/>
</g>
<!-- Node0x55b87c311c78&#45;&gt;Node0x55b87c30f608 -->
<g id="edge76" class="edge">
<title>Node0x55b87c311c78&#45;&gt;Node0x55b87c30f608</title>
<path fill="none" stroke="black" d="M288.03,-486.77C335.5,-448.56 452.35,-360.13 566,-318 825.46,-221.81 1153.27,-228.55 1342.94,-243.73"/>
<polygon fill="black" stroke="black" points="1342.73,-247.22 1352.98,-244.55 1343.3,-240.25 1342.73,-247.22"/>
</g>
<!-- Node0x55b87c311c78&#45;&gt;Node0x55b87c30fb08 -->
<g id="edge75" class="edge">
<title>Node0x55b87c311c78&#45;&gt;Node0x55b87c30fb08</title>
<path fill="none" stroke="black" d="M318.49,-523C405.73,-552.92 580.19,-612.74 673.4,-644.71"/>
<polygon fill="black" stroke="black" points="672.39,-648.06 682.99,-647.99 674.66,-641.44 672.39,-648.06"/>
</g>
<!-- Node0x55b87c310f08 -->
<g id="node40" class="node">
<title>Node0x55b87c310f08</title>
<polygon fill="none" stroke="black" points="1650,-894 1348,-894 1348,-858 1650,-858 1650,-894"/>
<text text-anchor="middle" x="1499" y="-872.3" font-family="Times,serif" font-size="14.00">{lib/libLLVMSupport.a(Program.cpp.o)}</text>
</g>
<!-- Node0x55b87c310f08&#45;&gt;Node0x55b87c30fa68 -->
<g id="edge78" class="edge">
<title>Node0x55b87c310f08&#45;&gt;Node0x55b87c30fa68</title>
<path fill="none" stroke="black" d="M1528.46,-894.17C1564.68,-916.32 1629.89,-953.02 1691,-971 1857.02,-1019.84 1907.94,-981.9 2078,-1014 2123.01,-1022.5 2172.72,-1035.82 2211.45,-1047.1"/>
<polygon fill="black" stroke="black" points="2210.47,-1050.46 2221.05,-1049.92 2212.44,-1043.75 2210.47,-1050.46"/>
</g>
<!-- Node0x55b87c310f08&#45;&gt;Node0x55b87c310058 -->
<g id="edge81" class="edge">
<title>Node0x55b87c310f08&#45;&gt;Node0x55b87c310058</title>
<path fill="none" stroke="black" d="M1532.12,-894.1C1568.98,-916.82 1627.82,-959.51 1655,-1014 1698.59,-1101.39 1619.17,-1385.83 1691,-1452 1754.25,-1510.27 2008.23,-1502.29 2078,-1452 2119.05,-1422.42 2075.49,-1376.81 2114,-1344 2115.21,-1342.97 2116.44,-1341.97 2117.69,-1341.01"/>
<polygon fill="black" stroke="black" points="2120.05,-1343.63 2126.28,-1335.06 2116.06,-1337.88 2120.05,-1343.63"/>
</g>
<!-- Node0x55b87c310f08&#45;&gt;Node0x55b87c311c28 -->
<g id="edge77" class="edge">
<title>Node0x55b87c310f08&#45;&gt;Node0x55b87c311c28</title>
<path fill="none" stroke="black" d="M1513.99,-857.8C1544.12,-817.76 1615.62,-718.04 1655,-624 1680.82,-562.35 1639.6,-520.72 1691,-478 1723.01,-451.39 1952.22,-444.88 2114.79,-443.66"/>
<polygon fill="black" stroke="black" points="2114.94,-447.16 2124.91,-443.59 2114.89,-440.16 2114.94,-447.16"/>
</g>
<!-- Node0x55b87c310f08&#45;&gt;Node0x55b87c311a98 -->
<g id="edge80" class="edge">
<title>Node0x55b87c310f08&#45;&gt;Node0x55b87c311a98</title>
<path fill="none" stroke="black" d="M1516.79,-857.98C1547.66,-826.35 1617.04,-761.92 1691,-738 1854.65,-685.07 1908.6,-708.19 2078,-738 2132.84,-747.65 2192.41,-771.05 2232.35,-788.77"/>
<polygon fill="black" stroke="black" points="2231,-792.01 2241.56,-792.92 2233.88,-785.62 2231,-792.01"/>
</g>
<!-- Node0x55b87c310f08&#45;&gt;Node0x55b87c3106e8 -->
<g id="edge84" class="edge">
<title>Node0x55b87c310f08&#45;&gt;Node0x55b87c3106e8</title>
<path fill="none" stroke="black" d="M1514.04,-857.9C1542.89,-822.11 1612.76,-742.55 1691,-705 1704.53,-698.51 1719.14,-693.3 1734.05,-689.14"/>
<polygon fill="black" stroke="black" points="1735.11,-692.48 1743.89,-686.54 1733.33,-685.71 1735.11,-692.48"/>
</g>
<!-- Node0x55b87c310f08&#45;&gt;Node0x55b87c3117c8 -->
<g id="edge79" class="edge">
<title>Node0x55b87c310f08&#45;&gt;Node0x55b87c3117c8</title>
<path fill="none" stroke="black" d="M1536.44,-858C1574.23,-840.03 1635.45,-812.88 1691,-797 1706.93,-792.45 1723.8,-788.46 1740.66,-785"/>
<polygon fill="black" stroke="black" points="1741.47,-788.41 1750.59,-783.02 1740.1,-781.55 1741.47,-788.41"/>
</g>
<!-- Node0x55b87c310f08&#45;&gt;Node0x55b87c310148 -->
<g id="edge82" class="edge">
<title>Node0x55b87c310f08&#45;&gt;Node0x55b87c310148</title>
<path fill="none" stroke="black" d="M1531.55,-894.03C1568.14,-916.82 1627.02,-959.72 1655,-1014 1688.8,-1079.57 1639.64,-1291.04 1691,-1344 1704.08,-1357.49 1720.58,-1366.39 1738.39,-1372.06"/>
<polygon fill="black" stroke="black" points="1737.84,-1375.54 1748.41,-1374.88 1739.74,-1368.8 1737.84,-1375.54"/>
</g>
<!-- Node0x55b87c310f08&#45;&gt;Node0x55b87c310af8 -->
<g id="edge83" class="edge">
<title>Node0x55b87c310f08&#45;&gt;Node0x55b87c310af8</title>
<path fill="none" stroke="black" d="M1524.03,-894.2C1556.06,-919.13 1613.51,-966.28 1655,-1014 1673.93,-1035.77 1666.58,-1052.65 1691,-1068 1696.76,-1071.62 1702.81,-1074.84 1709.06,-1077.69"/>
<polygon fill="black" stroke="black" points="1707.78,-1080.95 1718.35,-1081.62 1710.5,-1074.5 1707.78,-1080.95"/>
</g>
</g>
</svg>
