<?xml version="1.0" encoding="UTF-8" standalone="no"?>
<!DOCTYPE svg PUBLIC "-//W3C//DTD SVG 1.1//EN"
 "http://www.w3.org/Graphics/SVG/1.1/DTD/svg11.dtd">
<!-- Generated by graphviz version 2.43.0 (0)
 -->
<!-- Title: bin/llvm&#45;ifs_lib/libLLVMObject.a Pages: 1 -->
<svg width="381pt" height="1093pt"
 viewBox="0.00 0.00 381.00 1093.00" xmlns="http://www.w3.org/2000/svg" xmlns:xlink="http://www.w3.org/1999/xlink">
<g id="graph0" class="graph" transform="scale(1 1) rotate(0) translate(4 1089)">
<title>bin/llvm&#45;ifs_lib/libLLVMObject.a</title>
<polygon fill="white" stroke="transparent" points="-4,4 -4,-1089 377,-1089 377,4 -4,4"/>
<text text-anchor="middle" x="186.5" y="-7.8" font-family="Times,serif" font-size="14.00">bin/llvm&#45;ifs_lib/libLLVMObject.a</text>
<!-- Node0x563fad187628 -->
<g id="node1" class="node">
<title>Node0x563fad187628</title>
<polygon fill="none" stroke="black" points="323,-59 50,-59 50,-23 323,-23 323,-59"/>
<text text-anchor="middle" x="186.5" y="-37.3" font-family="Times,serif" font-size="14.00">{lib/libLLVMObject.a(Binary.cpp.o)}</text>
</g>
<!-- Node0x563fad180f08 -->
<g id="node2" class="node">
<title>Node0x563fad180f08</title>
<polygon fill="none" stroke="black" points="327.5,-113 45.5,-113 45.5,-77 327.5,-77 327.5,-113"/>
<text text-anchor="middle" x="186.5" y="-91.3" font-family="Times,serif" font-size="14.00">{lib/libLLVMObject.a(Archive.cpp.o)}</text>
</g>
<!-- Node0x563fad181ae8 -->
<g id="node3" class="node">
<title>Node0x563fad181ae8</title>
<polygon fill="none" stroke="black" points="314,-167 59,-167 59,-131 314,-131 314,-167"/>
<text text-anchor="middle" x="186.5" y="-145.3" font-family="Times,serif" font-size="14.00">{lib/libLLVMObject.a(ELF.cpp.o)}</text>
</g>
<!-- Node0x563fad1813b8 -->
<g id="node4" class="node">
<title>Node0x563fad1813b8</title>
<polygon fill="none" stroke="black" points="319.5,-221 53.5,-221 53.5,-185 319.5,-185 319.5,-221"/>
<text text-anchor="middle" x="186.5" y="-199.3" font-family="Times,serif" font-size="14.00">{lib/libLLVMObject.a(Error.cpp.o)}</text>
</g>
<!-- Node0x563fad186e08 -->
<g id="node5" class="node">
<title>Node0x563fad186e08</title>
<polygon fill="none" stroke="black" points="360,-275 13,-275 13,-239 360,-239 360,-275"/>
<text text-anchor="middle" x="186.5" y="-253.3" font-family="Times,serif" font-size="14.00">{lib/libLLVMObject.a(MachOUniversal.cpp.o)}</text>
</g>
<!-- Node0x563fad1879e8 -->
<g id="node6" class="node">
<title>Node0x563fad1879e8</title>
<polygon fill="none" stroke="black" points="362.5,-329 10.5,-329 10.5,-293 362.5,-293 362.5,-329"/>
<text text-anchor="middle" x="186.5" y="-307.3" font-family="Times,serif" font-size="14.00">{lib/libLLVMObject.a(MachOObjectFile.cpp.o)}</text>
</g>
<!-- Node0x563fad187cb8 -->
<g id="node7" class="node">
<title>Node0x563fad187cb8</title>
<polygon fill="none" stroke="black" points="345,-383 28,-383 28,-347 345,-347 345,-383"/>
<text text-anchor="middle" x="186.5" y="-361.3" font-family="Times,serif" font-size="14.00">{lib/libLLVMObject.a(IRObjectFile.cpp.o)}</text>
</g>
<!-- Node0x563fad188078 -->
<g id="node8" class="node">
<title>Node0x563fad188078</title>
<polygon fill="none" stroke="black" points="336,-437 37,-437 37,-401 336,-401 336,-437"/>
<text text-anchor="middle" x="186.5" y="-415.3" font-family="Times,serif" font-size="14.00">{lib/libLLVMObject.a(IRSymtab.cpp.o)}</text>
</g>
<!-- Node0x563fad188cf8 -->
<g id="node9" class="node">
<title>Node0x563fad188cf8</title>
<polygon fill="none" stroke="black" points="337,-491 36,-491 36,-455 337,-455 337,-491"/>
<text text-anchor="middle" x="186.5" y="-469.3" font-family="Times,serif" font-size="14.00">{lib/libLLVMObject.a(Minidump.cpp.o)}</text>
</g>
<!-- Node0x563fad188fc8 -->
<g id="node10" class="node">
<title>Node0x563fad188fc8</title>
<polygon fill="none" stroke="black" points="373,-545 0,-545 0,-509 373,-509 373,-545"/>
<text text-anchor="middle" x="186.5" y="-523.3" font-family="Times,serif" font-size="14.00">{lib/libLLVMObject.a(ModuleSymbolTable.cpp.o)}</text>
</g>
<!-- Node0x563fad17f568 -->
<g id="node11" class="node">
<title>Node0x563fad17f568</title>
<polygon fill="none" stroke="black" points="337.5,-599 35.5,-599 35.5,-563 337.5,-563 337.5,-599"/>
<text text-anchor="middle" x="186.5" y="-577.3" font-family="Times,serif" font-size="14.00">{lib/libLLVMObject.a(ObjectFile.cpp.o)}</text>
</g>
<!-- Node0x563fad180648 -->
<g id="node12" class="node">
<title>Node0x563fad180648</title>
<polygon fill="none" stroke="black" points="352,-653 21,-653 21,-617 352,-617 352,-653"/>
<text text-anchor="middle" x="186.5" y="-631.3" font-family="Times,serif" font-size="14.00">{lib/libLLVMObject.a(ELFObjectFile.cpp.o)}</text>
</g>
<!-- Node0x563fad180d28 -->
<g id="node13" class="node">
<title>Node0x563fad180d28</title>
<polygon fill="none" stroke="black" points="358,-707 15,-707 15,-671 358,-671 358,-707"/>
<text text-anchor="middle" x="186.5" y="-685.3" font-family="Times,serif" font-size="14.00">{lib/libLLVMObject.a(COFFObjectFile.cpp.o)}</text>
</g>
<!-- Node0x563fad180b98 -->
<g id="node14" class="node">
<title>Node0x563fad180b98</title>
<polygon fill="none" stroke="black" points="358.5,-761 14.5,-761 14.5,-725 358.5,-725 358.5,-761"/>
<text text-anchor="middle" x="186.5" y="-739.3" font-family="Times,serif" font-size="14.00">{lib/libLLVMObject.a(RecordStreamer.cpp.o)}</text>
</g>
<!-- Node0x563fad181318 -->
<g id="node15" class="node">
<title>Node0x563fad181318</title>
<polygon fill="none" stroke="black" points="346.5,-815 26.5,-815 26.5,-779 346.5,-779 346.5,-815"/>
<text text-anchor="middle" x="186.5" y="-793.3" font-family="Times,serif" font-size="14.00">{lib/libLLVMObject.a(SymbolicFile.cpp.o)}</text>
</g>
<!-- Node0x563fad184f68 -->
<g id="node16" class="node">
<title>Node0x563fad184f68</title>
<polygon fill="none" stroke="black" points="350,-869 23,-869 23,-833 350,-833 350,-869"/>
<text text-anchor="middle" x="186.5" y="-847.3" font-family="Times,serif" font-size="14.00">{lib/libLLVMObject.a(TapiUniversal.cpp.o)}</text>
</g>
<!-- Node0x563fad188348 -->
<g id="node17" class="node">
<title>Node0x563fad188348</title>
<polygon fill="none" stroke="black" points="329,-923 44,-923 44,-887 329,-887 329,-923"/>
<text text-anchor="middle" x="186.5" y="-901.3" font-family="Times,serif" font-size="14.00">{lib/libLLVMObject.a(TapiFile.cpp.o)}</text>
</g>
<!-- Node0x563fad188f28 -->
<g id="node18" class="node">
<title>Node0x563fad188f28</title>
<polygon fill="none" stroke="black" points="358.5,-977 14.5,-977 14.5,-941 358.5,-941 358.5,-977"/>
<text text-anchor="middle" x="186.5" y="-955.3" font-family="Times,serif" font-size="14.00">{lib/libLLVMObject.a(WasmObjectFile.cpp.o)}</text>
</g>
<!-- Node0x563fad187448 -->
<g id="node19" class="node">
<title>Node0x563fad187448</title>
<polygon fill="none" stroke="black" points="366,-1031 7,-1031 7,-995 366,-995 366,-1031"/>
<text text-anchor="middle" x="186.5" y="-1009.3" font-family="Times,serif" font-size="14.00">{lib/libLLVMObject.a(WindowsResource.cpp.o)}</text>
</g>
<!-- Node0x563fad186db8 -->
<g id="node20" class="node">
<title>Node0x563fad186db8</title>
<polygon fill="none" stroke="black" points="363,-1085 10,-1085 10,-1049 363,-1049 363,-1085"/>
<text text-anchor="middle" x="186.5" y="-1063.3" font-family="Times,serif" font-size="14.00">{lib/libLLVMObject.a(XCOFFObjectFile.cpp.o)}</text>
</g>
</g>
</svg>
