<?xml version="1.0" encoding="UTF-8" standalone="no"?>
<!DOCTYPE svg PUBLIC "-//W3C//DTD SVG 1.1//EN"
 "http://www.w3.org/Graphics/SVG/1.1/DTD/svg11.dtd">
<!-- Generated by graphviz version 2.43.0 (0)
 -->
<!-- Title: bin/llvm&#45;diff Pages: 1 -->
<svg width="1665pt" height="369pt"
 viewBox="0.00 0.00 1665.00 368.87" xmlns="http://www.w3.org/2000/svg" xmlns:xlink="http://www.w3.org/1999/xlink">
<g id="graph0" class="graph" transform="scale(1 1) rotate(0) translate(4 364.87)">
<title>bin/llvm&#45;diff</title>
<polygon fill="white" stroke="transparent" points="-4,4 -4,-364.87 1661,-364.87 1661,4 -4,4"/>
<text text-anchor="middle" x="828.5" y="-7.8" font-family="Times,serif" font-size="14.00">bin/llvm&#45;diff</text>
<!-- Node0x560ae11f3058 -->
<g id="node1" class="node">
<title>Node0x560ae11f3058</title>
<polygon fill="none" stroke="black" points="414,-305 0,-305 0,-269 414,-269 414,-305"/>
<text text-anchor="middle" x="207" y="-283.3" font-family="Times,serif" font-size="14.00">{tools/llvm&#45;diff/CMakeFiles/llvm&#45;diff.dir/llvm&#45;diff.cpp.o}</text>
</g>
<!-- Node0x560ae11f37d8 -->
<g id="node2" class="node">
<title>Node0x560ae11f37d8</title>
<polygon fill="none" stroke="black" points="915.5,-359 463.5,-359 463.5,-323 915.5,-323 915.5,-359"/>
<text text-anchor="middle" x="689.5" y="-337.3" font-family="Times,serif" font-size="14.00">{tools/llvm&#45;diff/CMakeFiles/llvm&#45;diff.dir/DiffConsumer.cpp.o}</text>
</g>
<!-- Node0x560ae11f3058&#45;&gt;Node0x560ae11f37d8 -->
<g id="edge1" class="edge">
<title>Node0x560ae11f3058&#45;&gt;Node0x560ae11f37d8</title>
<path fill="none" stroke="black" d="M368.33,-305.02C416.46,-310.43 469.42,-316.38 518.17,-321.86"/>
<polygon fill="black" stroke="black" points="517.85,-325.34 528.18,-322.98 518.64,-318.39 517.85,-325.34"/>
</g>
<!-- Node0x560ae11f44a8 -->
<g id="node3" class="node">
<title>Node0x560ae11f44a8</title>
<polygon fill="none" stroke="black" points="929,-305 450,-305 450,-269 929,-269 929,-305"/>
<text text-anchor="middle" x="689.5" y="-283.3" font-family="Times,serif" font-size="14.00">{tools/llvm&#45;diff/CMakeFiles/llvm&#45;diff.dir/DifferenceEngine.cpp.o}</text>
</g>
<!-- Node0x560ae11f3058&#45;&gt;Node0x560ae11f44a8 -->
<g id="edge2" class="edge">
<title>Node0x560ae11f3058&#45;&gt;Node0x560ae11f44a8</title>
<path fill="none" stroke="black" d="M414.22,-287C422.72,-287 431.29,-287 439.87,-287"/>
<polygon fill="black" stroke="black" points="439.94,-290.5 449.94,-287 439.94,-283.5 439.94,-290.5"/>
</g>
<!-- Node0x560ae11f5808 -->
<g id="node4" class="node">
<title>Node0x560ae11f5808</title>
<polygon fill="#7fb2ff" stroke="black" points="770.5,-143 608.5,-143 608.5,-107 770.5,-107 770.5,-143"/>
<text text-anchor="middle" x="689.5" y="-121.3" font-family="Times,serif" font-size="14.00">{lib/libLLVMCore.a}</text>
</g>
<!-- Node0x560ae11f3058&#45;&gt;Node0x560ae11f5808 -->
<g id="edge3" class="edge">
<title>Node0x560ae11f3058&#45;&gt;Node0x560ae11f5808</title>
<path fill="none" stroke="black" d="M232.6,-268.86C274.7,-238.86 364.35,-179.51 450,-152 497.58,-136.72 552.92,-129.83 598.31,-126.82"/>
<polygon fill="black" stroke="black" points="598.67,-130.31 608.43,-126.2 598.24,-123.32 598.67,-130.31"/>
</g>
<!-- Node0x560ae11f5308 -->
<g id="node5" class="node">
<title>Node0x560ae11f5308</title>
<polygon fill="none" stroke="black" points="786.5,-251 592.5,-251 592.5,-215 786.5,-215 786.5,-251"/>
<text text-anchor="middle" x="689.5" y="-229.3" font-family="Times,serif" font-size="14.00">{lib/libLLVMIRReader.a}</text>
</g>
<!-- Node0x560ae11f3058&#45;&gt;Node0x560ae11f5308 -->
<g id="edge4" class="edge">
<title>Node0x560ae11f3058&#45;&gt;Node0x560ae11f5308</title>
<path fill="none" stroke="black" d="M368.33,-268.98C438.65,-261.08 519.28,-252.02 582.03,-244.97"/>
<polygon fill="black" stroke="black" points="582.79,-248.4 592.34,-243.81 582.01,-241.45 582.79,-248.4"/>
</g>
<!-- Node0x560ae11f60c8 -->
<g id="node6" class="node">
<title>Node0x560ae11f60c8</title>
<polygon fill="#7fb2ff" stroke="black" points="782.5,-197 596.5,-197 596.5,-161 782.5,-161 782.5,-197"/>
<text text-anchor="middle" x="689.5" y="-175.3" font-family="Times,serif" font-size="14.00">{lib/libLLVMSupport.a}</text>
</g>
<!-- Node0x560ae11f3058&#45;&gt;Node0x560ae11f60c8 -->
<g id="edge5" class="edge">
<title>Node0x560ae11f3058&#45;&gt;Node0x560ae11f60c8</title>
<path fill="none" stroke="black" d="M252.69,-268.88C300.66,-250.18 379.49,-221.61 450,-206 494.16,-196.22 543.75,-189.88 586.23,-185.82"/>
<polygon fill="black" stroke="black" points="586.67,-189.3 596.3,-184.89 586.02,-182.33 586.67,-189.3"/>
</g>
<!-- Node0x560ae11f37d8&#45;&gt;Node0x560ae11f5808 -->
<g id="edge7" class="edge">
<title>Node0x560ae11f37d8&#45;&gt;Node0x560ae11f5808</title>
<path fill="none" stroke="black" d="M595.06,-359.02C535.71,-364.19 464.45,-357.51 432,-305 415.18,-277.78 415.18,-188.22 432,-161 465.03,-107.55 538.27,-101.58 598.23,-107.26"/>
<polygon fill="black" stroke="black" points="598.18,-110.78 608.49,-108.36 598.92,-103.82 598.18,-110.78"/>
</g>
<!-- Node0x560ae11f37d8&#45;&gt;Node0x560ae11f60c8 -->
<g id="edge8" class="edge">
<title>Node0x560ae11f37d8&#45;&gt;Node0x560ae11f60c8</title>
<path fill="none" stroke="black" d="M595.06,-359.02C535.71,-364.19 464.45,-357.51 432,-305 410.97,-270.97 410.97,-249.03 432,-215 462.84,-165.1 528.72,-156.59 586.12,-160.3"/>
<polygon fill="black" stroke="black" points="586.12,-163.81 596.36,-161.09 586.66,-156.83 586.12,-163.81"/>
</g>
<!-- Node0x560ae11f3f58 -->
<g id="node7" class="node">
<title>Node0x560ae11f3f58</title>
<polygon fill="none" stroke="black" points="1372,-355 965,-355 965,-319 1372,-319 1372,-355"/>
<text text-anchor="middle" x="1168.5" y="-333.3" font-family="Times,serif" font-size="14.00">{tools/llvm&#45;diff/CMakeFiles/llvm&#45;diff.dir/DiffLog.cpp.o}</text>
</g>
<!-- Node0x560ae11f37d8&#45;&gt;Node0x560ae11f3f58 -->
<g id="edge6" class="edge">
<title>Node0x560ae11f37d8&#45;&gt;Node0x560ae11f3f58</title>
<path fill="none" stroke="black" d="M915.73,-339.11C928.67,-339 941.67,-338.89 954.56,-338.79"/>
<polygon fill="black" stroke="black" points="954.91,-342.28 964.88,-338.7 954.85,-335.28 954.91,-342.28"/>
</g>
<!-- Node0x560ae11f44a8&#45;&gt;Node0x560ae11f5808 -->
<g id="edge10" class="edge">
<title>Node0x560ae11f44a8&#45;&gt;Node0x560ae11f5808</title>
<path fill="none" stroke="black" d="M595.06,-305.02C535.71,-310.19 464.45,-303.51 432,-251 410.97,-216.97 410.97,-195.03 432,-161 465.03,-107.55 538.27,-101.58 598.23,-107.26"/>
<polygon fill="black" stroke="black" points="598.18,-110.78 608.49,-108.36 598.92,-103.82 598.18,-110.78"/>
</g>
<!-- Node0x560ae11f44a8&#45;&gt;Node0x560ae11f60c8 -->
<g id="edge11" class="edge">
<title>Node0x560ae11f44a8&#45;&gt;Node0x560ae11f60c8</title>
<path fill="none" stroke="black" d="M449.74,-270.86C425.72,-259.39 415.47,-241.75 432,-215 462.84,-165.1 528.72,-156.59 586.12,-160.3"/>
<polygon fill="black" stroke="black" points="586.12,-163.81 596.36,-161.09 586.66,-156.83 586.12,-163.81"/>
</g>
<!-- Node0x560ae11f44a8&#45;&gt;Node0x560ae11f3f58 -->
<g id="edge9" class="edge">
<title>Node0x560ae11f44a8&#45;&gt;Node0x560ae11f3f58</title>
<path fill="none" stroke="black" d="M862.37,-305.02C902.45,-309.22 945.26,-313.7 985.75,-317.95"/>
<polygon fill="black" stroke="black" points="985.4,-321.43 995.71,-318.99 986.13,-314.47 985.4,-321.43"/>
</g>
<!-- Node0x560ae11f5808&#45;&gt;Node0x560ae11f60c8 -->
<g id="edge12" class="edge">
<title>Node0x560ae11f5808&#45;&gt;Node0x560ae11f60c8</title>
<path fill="none" stroke="#7fb2ff" d="M743.71,-143.14C748.46,-146.36 750.62,-149.58 750.2,-152.79"/>
<polygon fill="#7fb2ff" stroke="#7fb2ff" points="747.32,-150.79 743.81,-160.79 752.79,-155.16 747.32,-150.79"/>
</g>
<!-- Node0x560ae11f2d88 -->
<g id="node8" class="node">
<title>Node0x560ae11f2d88</title>
<polygon fill="none" stroke="black" points="1282,-59 1055,-59 1055,-23 1282,-23 1282,-59"/>
<text text-anchor="middle" x="1168.5" y="-37.3" font-family="Times,serif" font-size="14.00">{lib/libLLVMBinaryFormat.a}</text>
</g>
<!-- Node0x560ae11f5808&#45;&gt;Node0x560ae11f2d88 -->
<g id="edge13" class="edge">
<title>Node0x560ae11f5808&#45;&gt;Node0x560ae11f2d88</title>
<path fill="none" stroke="black" d="M770.56,-109.17C825.25,-98.52 899.41,-84.39 965,-73 990.81,-68.52 1018.51,-63.97 1044.89,-59.76"/>
<polygon fill="black" stroke="black" points="1045.61,-63.19 1054.93,-58.16 1044.51,-56.28 1045.61,-63.19"/>
</g>
<!-- Node0x560ae11f32d8 -->
<g id="node9" class="node">
<title>Node0x560ae11f32d8</title>
<polygon fill="#7fb2ff" stroke="black" points="1264,-151 1073,-151 1073,-115 1264,-115 1264,-151"/>
<text text-anchor="middle" x="1168.5" y="-129.3" font-family="Times,serif" font-size="14.00">{lib/libLLVMRemarks.a}</text>
</g>
<!-- Node0x560ae11f5808&#45;&gt;Node0x560ae11f32d8 -->
<g id="edge14" class="edge">
<title>Node0x560ae11f5808&#45;&gt;Node0x560ae11f32d8</title>
<path fill="none" stroke="#7fb2ff" d="M770.61,-121.15C850.84,-120.61 974.72,-122.52 1062.71,-125.54"/>
<polygon fill="#7fb2ff" stroke="#7fb2ff" points="1062.61,-129.04 1072.72,-125.9 1062.85,-122.04 1062.61,-129.04"/>
</g>
<!-- Node0x560ae11f5308&#45;&gt;Node0x560ae11f5808 -->
<g id="edge15" class="edge">
<title>Node0x560ae11f5308&#45;&gt;Node0x560ae11f5808</title>
<path fill="none" stroke="black" d="M592.38,-236.88C503.99,-236.59 392.83,-224.38 432,-161 465.03,-107.55 538.27,-101.58 598.23,-107.26"/>
<polygon fill="black" stroke="black" points="598.18,-110.78 608.49,-108.36 598.92,-103.82 598.18,-110.78"/>
</g>
<!-- Node0x560ae11f5308&#45;&gt;Node0x560ae11f60c8 -->
<g id="edge16" class="edge">
<title>Node0x560ae11f5308&#45;&gt;Node0x560ae11f60c8</title>
<path fill="none" stroke="black" d="M689.5,-214.79C689.5,-212.31 689.5,-209.83 689.5,-207.34"/>
<polygon fill="black" stroke="black" points="693,-207.14 689.5,-197.14 686,-207.14 693,-207.14"/>
</g>
<!-- Node0x560ae11f5bc8 -->
<g id="node10" class="node">
<title>Node0x560ae11f5bc8</title>
<polygon fill="none" stroke="black" points="1270.5,-297 1066.5,-297 1066.5,-261 1270.5,-261 1270.5,-297"/>
<text text-anchor="middle" x="1168.5" y="-275.3" font-family="Times,serif" font-size="14.00">{lib/libLLVMAsmParser.a}</text>
</g>
<!-- Node0x560ae11f5308&#45;&gt;Node0x560ae11f5bc8 -->
<g id="edge17" class="edge">
<title>Node0x560ae11f5308&#45;&gt;Node0x560ae11f5bc8</title>
<path fill="none" stroke="black" d="M786.74,-242.28C864.64,-249.79 974.46,-260.38 1056.15,-268.26"/>
<polygon fill="black" stroke="black" points="1056.18,-271.78 1066.47,-269.26 1056.85,-264.81 1056.18,-271.78"/>
</g>
<!-- Node0x560ae11f6ac8 -->
<g id="node11" class="node">
<title>Node0x560ae11f6ac8</title>
<polygon fill="none" stroke="black" points="1268,-243 1069,-243 1069,-207 1268,-207 1268,-243"/>
<text text-anchor="middle" x="1168.5" y="-221.3" font-family="Times,serif" font-size="14.00">{lib/libLLVMBitReader.a}</text>
</g>
<!-- Node0x560ae11f5308&#45;&gt;Node0x560ae11f6ac8 -->
<g id="edge18" class="edge">
<title>Node0x560ae11f5308&#45;&gt;Node0x560ae11f6ac8</title>
<path fill="none" stroke="black" d="M786.74,-231.39C865.51,-230.06 976.89,-228.2 1058.85,-226.82"/>
<polygon fill="black" stroke="black" points="1059.01,-230.32 1068.95,-226.65 1058.89,-223.32 1059.01,-230.32"/>
</g>
<!-- Node0x560ae11f60c8&#45;&gt;Node0x560ae11f5808 -->
<g id="edge19" class="edge">
<title>Node0x560ae11f60c8&#45;&gt;Node0x560ae11f5808</title>
<path fill="none" stroke="#7fb2ff" d="M635.19,-160.79C630.34,-157.48 628.23,-154.17 628.86,-150.86"/>
<polygon fill="#7fb2ff" stroke="#7fb2ff" points="631.58,-153.06 635.29,-143.14 626.2,-148.58 631.58,-153.06"/>
</g>
<!-- Node0x560ae11f32d8&#45;&gt;Node0x560ae11f5808 -->
<g id="edge21" class="edge">
<title>Node0x560ae11f32d8&#45;&gt;Node0x560ae11f5808</title>
<path fill="none" stroke="#7fb2ff" d="M1072.72,-136.92C987.87,-137.18 864.31,-135.08 780.84,-131.94"/>
<polygon fill="#7fb2ff" stroke="#7fb2ff" points="780.74,-128.43 770.61,-131.54 780.46,-135.43 780.74,-128.43"/>
</g>
<!-- Node0x560ae11f32d8&#45;&gt;Node0x560ae11f60c8 -->
<g id="edge20" class="edge">
<title>Node0x560ae11f32d8&#45;&gt;Node0x560ae11f60c8</title>
<path fill="none" stroke="#7fb2ff" d="M1072.66,-142.15C991.83,-149.94 875.9,-161.12 792.95,-169.12"/>
<polygon fill="#7fb2ff" stroke="#7fb2ff" points="792.37,-165.66 782.75,-170.1 793.04,-172.63 792.37,-165.66"/>
</g>
<!-- Node0x560ae11f23d8 -->
<g id="node12" class="node">
<title>Node0x560ae11f23d8</title>
<polygon fill="#7fb2ff" stroke="black" points="1657,-151 1408,-151 1408,-115 1657,-115 1657,-151"/>
<text text-anchor="middle" x="1532.5" y="-129.3" font-family="Times,serif" font-size="14.00">{lib/libLLVMBitstreamReader.a}</text>
</g>
<!-- Node0x560ae11f32d8&#45;&gt;Node0x560ae11f23d8 -->
<g id="edge22" class="edge">
<title>Node0x560ae11f32d8&#45;&gt;Node0x560ae11f23d8</title>
<path fill="none" stroke="#7fb2ff" d="M1264.14,-133C1304.85,-133 1353.19,-133 1397.48,-133"/>
<polygon fill="#7fb2ff" stroke="#7fb2ff" points="1397.76,-136.5 1407.76,-133 1397.76,-129.5 1397.76,-136.5"/>
</g>
<!-- Node0x560ae11f5bc8&#45;&gt;Node0x560ae11f5808 -->
<g id="edge23" class="edge">
<title>Node0x560ae11f5bc8&#45;&gt;Node0x560ae11f5808</title>
<path fill="none" stroke="black" d="M1066.39,-286.11C1031.02,-283.62 993.16,-274.72 965,-252 928.24,-222.34 966.05,-181.3 929,-152 887.88,-119.49 829.58,-112.41 780.91,-113.62"/>
<polygon fill="black" stroke="black" points="780.55,-110.13 770.68,-114 780.8,-117.13 780.55,-110.13"/>
</g>
<!-- Node0x560ae11f5bc8&#45;&gt;Node0x560ae11f60c8 -->
<g id="edge24" class="edge">
<title>Node0x560ae11f5bc8&#45;&gt;Node0x560ae11f60c8</title>
<path fill="none" stroke="black" d="M1066.3,-280.62C1032.29,-277.34 995.32,-269.35 965,-252 942.47,-239.11 951.66,-218.67 929,-206 888.08,-183.13 837.08,-175.14 792.75,-173.38"/>
<polygon fill="black" stroke="black" points="792.62,-169.87 782.52,-173.07 792.41,-176.87 792.62,-169.87"/>
</g>
<!-- Node0x560ae11f5bc8&#45;&gt;Node0x560ae11f2d88 -->
<g id="edge25" class="edge">
<title>Node0x560ae11f5bc8&#45;&gt;Node0x560ae11f2d88</title>
<path fill="none" stroke="black" d="M1066.45,-292.99C1020.53,-292.9 971.27,-282.27 947,-243 932.05,-218.8 932.05,-139.2 947,-115 968.17,-80.74 1006.26,-61.93 1044.95,-51.73"/>
<polygon fill="black" stroke="black" points="1045.91,-55.1 1054.79,-49.32 1044.25,-48.3 1045.91,-55.1"/>
</g>
<!-- Node0x560ae11f6ac8&#45;&gt;Node0x560ae11f5808 -->
<g id="edge26" class="edge">
<title>Node0x560ae11f6ac8&#45;&gt;Node0x560ae11f5808</title>
<path fill="none" stroke="black" d="M1117.95,-206.9C1070.19,-190.15 995.56,-165.83 929,-152 880.45,-141.91 825.5,-135.37 780.59,-131.25"/>
<polygon fill="black" stroke="black" points="780.85,-127.76 770.58,-130.36 780.23,-134.74 780.85,-127.76"/>
</g>
<!-- Node0x560ae11f6ac8&#45;&gt;Node0x560ae11f60c8 -->
<g id="edge27" class="edge">
<title>Node0x560ae11f6ac8&#45;&gt;Node0x560ae11f60c8</title>
<path fill="none" stroke="black" d="M1068.95,-215.5C988.34,-207.72 874.73,-196.77 793.05,-188.89"/>
<polygon fill="black" stroke="black" points="793.04,-185.37 782.75,-187.9 792.37,-192.34 793.04,-185.37"/>
</g>
<!-- Node0x560ae11f6ac8&#45;&gt;Node0x560ae11f23d8 -->
<g id="edge28" class="edge">
<title>Node0x560ae11f6ac8&#45;&gt;Node0x560ae11f23d8</title>
<path fill="none" stroke="black" d="M1268.18,-213.51C1301.46,-208.55 1338.62,-201.82 1372,-193 1409.46,-183.1 1450.33,-167.63 1481.32,-154.88"/>
<polygon fill="black" stroke="black" points="1482.72,-158.09 1490.61,-151.02 1480.03,-151.63 1482.72,-158.09"/>
</g>
<!-- Node0x560ae11f23d8&#45;&gt;Node0x560ae11f5808 -->
<g id="edge29" class="edge">
<title>Node0x560ae11f23d8&#45;&gt;Node0x560ae11f5808</title>
<path fill="none" stroke="#7fb2ff" d="M1441.16,-115C1418.66,-111.27 1394.53,-107.89 1372,-106 1160.63,-88.24 911.23,-104.65 780.62,-116.1"/>
<polygon fill="#7fb2ff" stroke="#7fb2ff" points="780.31,-112.62 770.66,-116.99 780.93,-119.59 780.31,-112.62"/>
</g>
<!-- Node0x560ae11f23d8&#45;&gt;Node0x560ae11f60c8 -->
<g id="edge30" class="edge">
<title>Node0x560ae11f23d8&#45;&gt;Node0x560ae11f60c8</title>
<path fill="none" stroke="#7fb2ff" d="M1438.18,-151.04C1416.53,-154.6 1393.52,-157.89 1372,-160 1167.22,-180.09 926.28,-181.66 792.74,-180.59"/>
<polygon fill="#7fb2ff" stroke="#7fb2ff" points="792.55,-177.09 782.52,-180.5 792.49,-184.09 792.55,-177.09"/>
</g>
</g>
</svg>
