<?xml version="1.0" encoding="UTF-8" standalone="no"?>
<!DOCTYPE svg PUBLIC "-//W3C//DTD SVG 1.1//EN"
 "http://www.w3.org/Graphics/SVG/1.1/DTD/svg11.dtd">
<!-- Generated by graphviz version 2.43.0 (0)
 -->
<!-- Title: bin/llvm&#45;tblgen_lib/libLLVMTableGen.a Pages: 1 -->
<svg width="1915pt" height="364pt"
 viewBox="0.00 0.00 1915.00 363.84" xmlns="http://www.w3.org/2000/svg" xmlns:xlink="http://www.w3.org/1999/xlink">
<g id="graph0" class="graph" transform="scale(1 1) rotate(0) translate(4 359.84)">
<title>bin/llvm&#45;tblgen_lib/libLLVMTableGen.a</title>
<polygon fill="white" stroke="transparent" points="-4,4 -4,-359.84 1911,-359.84 1911,4 -4,4"/>
<text text-anchor="middle" x="953.5" y="-7.8" font-family="Times,serif" font-size="14.00">bin/llvm&#45;tblgen_lib/libLLVMTableGen.a</text>
<!-- Node0x55bd1ca94838 -->
<g id="node1" class="node">
<title>Node0x55bd1ca94838</title>
<polygon fill="#7fb2ff" stroke="black" points="1541.5,-263.84 1255.5,-263.84 1255.5,-227.84 1541.5,-227.84 1541.5,-263.84"/>
<text text-anchor="middle" x="1398.5" y="-242.14" font-family="Times,serif" font-size="14.00">{lib/libLLVMTableGen.a(Error.cpp.o)}</text>
</g>
<!-- Node0x55bd1ca90dc8 -->
<g id="node2" class="node">
<title>Node0x55bd1ca90dc8</title>
<polygon fill="#7fb2ff" stroke="black" points="1907,-263.84 1608,-263.84 1608,-227.84 1907,-227.84 1907,-263.84"/>
<text text-anchor="middle" x="1757.5" y="-242.14" font-family="Times,serif" font-size="14.00">{lib/libLLVMTableGen.a(Record.cpp.o)}</text>
</g>
<!-- Node0x55bd1ca94838&#45;&gt;Node0x55bd1ca90dc8 -->
<g id="edge1" class="edge">
<title>Node0x55bd1ca94838&#45;&gt;Node0x55bd1ca90dc8</title>
<path fill="none" stroke="#7fb2ff" d="M1541.62,-239.22C1560.08,-239.09 1579.08,-239.06 1597.79,-239.13"/>
<polygon fill="#7fb2ff" stroke="#7fb2ff" points="1597.83,-242.63 1607.85,-239.18 1597.86,-235.63 1597.83,-242.63"/>
</g>
<!-- Node0x55bd1ca90dc8&#45;&gt;Node0x55bd1ca94838 -->
<g id="edge2" class="edge">
<title>Node0x55bd1ca90dc8&#45;&gt;Node0x55bd1ca94838</title>
<path fill="none" stroke="#7fb2ff" d="M1607.85,-252.51C1589.27,-252.61 1570.25,-252.62 1551.62,-252.53"/>
<polygon fill="#7fb2ff" stroke="#7fb2ff" points="1551.64,-249.03 1541.62,-252.47 1551.6,-256.03 1551.64,-249.03"/>
</g>
<!-- Node0x55bd1ca93d48 -->
<g id="node3" class="node">
<title>Node0x55bd1ca93d48</title>
<polygon fill="none" stroke="black" points="364,-294.84 12,-294.84 12,-258.84 364,-258.84 364,-294.84"/>
<text text-anchor="middle" x="188" y="-273.14" font-family="Times,serif" font-size="14.00">{lib/libLLVMTableGen.a(StringMatcher.cpp.o)}</text>
</g>
<!-- Node0x55bd1ca930c8 -->
<g id="node4" class="node">
<title>Node0x55bd1ca930c8</title>
<polygon fill="none" stroke="black" points="376,-348.84 0,-348.84 0,-312.84 376,-312.84 376,-348.84"/>
<text text-anchor="middle" x="188" y="-327.14" font-family="Times,serif" font-size="14.00">{lib/libLLVMTableGen.a(TableGenBackend.cpp.o)}</text>
</g>
<!-- Node0x55bd1ca93a28 -->
<g id="node5" class="node">
<title>Node0x55bd1ca93a28</title>
<polygon fill="none" stroke="black" points="1135.5,-355.84 815.5,-355.84 815.5,-319.84 1135.5,-319.84 1135.5,-355.84"/>
<text text-anchor="middle" x="975.5" y="-334.14" font-family="Times,serif" font-size="14.00">{lib/libLLVMTableGen.a(SetTheory.cpp.o)}</text>
</g>
<!-- Node0x55bd1ca93a28&#45;&gt;Node0x55bd1ca94838 -->
<g id="edge3" class="edge">
<title>Node0x55bd1ca93a28&#45;&gt;Node0x55bd1ca94838</title>
<path fill="none" stroke="black" d="M1114.15,-319.8C1139.17,-315.76 1164.94,-311.09 1189,-305.84 1237.72,-295.21 1291.81,-279.53 1332.69,-266.86"/>
<polygon fill="black" stroke="black" points="1333.75,-270.2 1342.25,-263.88 1331.66,-263.52 1333.75,-270.2"/>
</g>
<!-- Node0x55bd1ca93a28&#45;&gt;Node0x55bd1ca90dc8 -->
<g id="edge4" class="edge">
<title>Node0x55bd1ca93a28&#45;&gt;Node0x55bd1ca90dc8</title>
<path fill="none" stroke="black" d="M1135.61,-322.07C1255.66,-309.79 1424.35,-291.7 1572,-272.84 1589.96,-270.55 1608.89,-267.97 1627.5,-265.33"/>
<polygon fill="black" stroke="black" points="1628.08,-268.79 1637.49,-263.91 1627.1,-261.86 1628.08,-268.79"/>
</g>
<!-- Node0x55bd1ca941a8 -->
<g id="node6" class="node">
<title>Node0x55bd1ca941a8</title>
<polygon fill="none" stroke="black" points="1189,-171.84 762,-171.84 762,-135.84 1189,-135.84 1189,-171.84"/>
<text text-anchor="middle" x="975.5" y="-150.14" font-family="Times,serif" font-size="14.00">{lib/libLLVMTableGen.a(DetailedRecordsBackend.cpp.o)}</text>
</g>
<!-- Node0x55bd1ca941a8&#45;&gt;Node0x55bd1ca94838 -->
<g id="edge5" class="edge">
<title>Node0x55bd1ca941a8&#45;&gt;Node0x55bd1ca94838</title>
<path fill="none" stroke="black" d="M1148.28,-171.85C1162.31,-175.68 1176.06,-180.29 1189,-185.84 1207.63,-193.83 1206.51,-205.54 1225,-213.84 1234.37,-218.05 1244.26,-221.71 1254.38,-224.88"/>
<polygon fill="black" stroke="black" points="1253.56,-228.29 1264.14,-227.78 1255.55,-221.58 1253.56,-228.29"/>
</g>
<!-- Node0x55bd1ca941a8&#45;&gt;Node0x55bd1ca90dc8 -->
<g id="edge6" class="edge">
<title>Node0x55bd1ca941a8&#45;&gt;Node0x55bd1ca90dc8</title>
<path fill="none" stroke="black" d="M1142.36,-171.87C1314.83,-190.63 1561.31,-217.48 1572,-218.84 1589.96,-221.14 1608.89,-223.72 1627.5,-226.35"/>
<polygon fill="black" stroke="black" points="1627.1,-229.83 1637.49,-227.77 1628.08,-222.9 1627.1,-229.83"/>
</g>
<!-- Node0x55bd1ca93c58 -->
<g id="node7" class="node">
<title>Node0x55bd1ca93c58</title>
<polygon fill="none" stroke="black" points="1572,-171.84 1225,-171.84 1225,-135.84 1572,-135.84 1572,-171.84"/>
<text text-anchor="middle" x="1398.5" y="-150.14" font-family="Times,serif" font-size="14.00">{lib/libLLVMTableGen.a(JSONBackend.cpp.o)}</text>
</g>
<!-- Node0x55bd1ca93c58&#45;&gt;Node0x55bd1ca90dc8 -->
<g id="edge7" class="edge">
<title>Node0x55bd1ca93c58&#45;&gt;Node0x55bd1ca90dc8</title>
<path fill="none" stroke="black" d="M1509.01,-171.92C1530.03,-176.02 1551.78,-180.7 1572,-185.84 1614.37,-196.61 1661.21,-211.89 1697.08,-224.33"/>
<polygon fill="black" stroke="black" points="1696.31,-227.76 1706.9,-227.75 1698.61,-221.15 1696.31,-227.76"/>
</g>
<!-- Node0x55bd1ca92358 -->
<g id="node8" class="node">
<title>Node0x55bd1ca92358</title>
<polygon fill="none" stroke="black" points="330,-240.84 46,-240.84 46,-204.84 330,-204.84 330,-240.84"/>
<text text-anchor="middle" x="188" y="-219.14" font-family="Times,serif" font-size="14.00">{lib/libLLVMTableGen.a(Main.cpp.o)}</text>
</g>
<!-- Node0x55bd1ca92358&#45;&gt;Node0x55bd1ca94838 -->
<g id="edge8" class="edge">
<title>Node0x55bd1ca92358&#45;&gt;Node0x55bd1ca94838</title>
<path fill="none" stroke="black" d="M330.18,-239.54C357.31,-242.5 385.52,-245.41 412,-247.84 756.07,-279.4 844.2,-295.07 1189,-272.84 1196.76,-272.34 1222.49,-269.18 1253.35,-265.18"/>
<polygon fill="black" stroke="black" points="1254.07,-268.62 1263.53,-263.86 1253.16,-261.68 1254.07,-268.62"/>
</g>
<!-- Node0x55bd1ca92358&#45;&gt;Node0x55bd1ca90dc8 -->
<g id="edge9" class="edge">
<title>Node0x55bd1ca92358&#45;&gt;Node0x55bd1ca90dc8</title>
<path fill="none" stroke="black" d="M234.37,-204.84C411.83,-137.22 1073.74,88.78 1572,-91.84 1642.56,-117.42 1705.06,-183.1 1735.99,-219.89"/>
<polygon fill="black" stroke="black" points="1733.38,-222.23 1742.45,-227.71 1738.78,-217.77 1733.38,-222.23"/>
</g>
<!-- Node0x55bd1ca92628 -->
<g id="node9" class="node">
<title>Node0x55bd1ca92628</title>
<polygon fill="none" stroke="black" points="1129.5,-263.84 821.5,-263.84 821.5,-227.84 1129.5,-227.84 1129.5,-263.84"/>
<text text-anchor="middle" x="975.5" y="-242.14" font-family="Times,serif" font-size="14.00">{lib/libLLVMTableGen.a(TGLexer.cpp.o)}</text>
</g>
<!-- Node0x55bd1ca92358&#45;&gt;Node0x55bd1ca92628 -->
<g id="edge10" class="edge">
<title>Node0x55bd1ca92358&#45;&gt;Node0x55bd1ca92628</title>
<path fill="none" stroke="black" d="M330.34,-226.98C465.46,-230.94 669.07,-236.9 811.09,-241.06"/>
<polygon fill="black" stroke="black" points="811.11,-244.56 821.21,-241.35 811.31,-237.56 811.11,-244.56"/>
</g>
<!-- Node0x55bd1ca91c78 -->
<g id="node10" class="node">
<title>Node0x55bd1ca91c78</title>
<polygon fill="none" stroke="black" points="726,-217.84 412,-217.84 412,-181.84 726,-181.84 726,-217.84"/>
<text text-anchor="middle" x="569" y="-196.14" font-family="Times,serif" font-size="14.00">{lib/libLLVMTableGen.a(TGParser.cpp.o)}</text>
</g>
<!-- Node0x55bd1ca92358&#45;&gt;Node0x55bd1ca91c78 -->
<g id="edge11" class="edge">
<title>Node0x55bd1ca92358&#45;&gt;Node0x55bd1ca91c78</title>
<path fill="none" stroke="black" d="M330.13,-214.28C353.42,-212.86 377.76,-211.39 401.61,-209.94"/>
<polygon fill="black" stroke="black" points="402.02,-213.42 411.79,-209.32 401.6,-206.43 402.02,-213.42"/>
</g>
<!-- Node0x55bd1ca92628&#45;&gt;Node0x55bd1ca94838 -->
<g id="edge12" class="edge">
<title>Node0x55bd1ca92628&#45;&gt;Node0x55bd1ca94838</title>
<path fill="none" stroke="black" d="M1129.68,-245.84C1167.34,-245.84 1207.65,-245.84 1245.27,-245.84"/>
<polygon fill="black" stroke="black" points="1245.28,-249.34 1255.28,-245.84 1245.28,-242.34 1245.28,-249.34"/>
</g>
<!-- Node0x55bd1ca91c78&#45;&gt;Node0x55bd1ca94838 -->
<g id="edge13" class="edge">
<title>Node0x55bd1ca91c78&#45;&gt;Node0x55bd1ca94838</title>
<path fill="none" stroke="black" d="M726.05,-200.4C851.35,-201.87 1031.72,-206.28 1189,-218.84 1213.22,-220.78 1238.95,-223.53 1263.76,-226.55"/>
<polygon fill="black" stroke="black" points="1263.6,-230.06 1273.95,-227.81 1264.46,-223.11 1263.6,-230.06"/>
</g>
<!-- Node0x55bd1ca91c78&#45;&gt;Node0x55bd1ca90dc8 -->
<g id="edge14" class="edge">
<title>Node0x55bd1ca91c78&#45;&gt;Node0x55bd1ca90dc8</title>
<path fill="none" stroke="black" d="M605.67,-181.76C643.39,-163.74 705.18,-137.28 762,-126.84 939.04,-94.32 1399.33,-75.99 1572,-126.84 1634.45,-145.24 1695.7,-192.06 1729.55,-221.19"/>
<polygon fill="black" stroke="black" points="1727.32,-223.88 1737.15,-227.83 1731.92,-218.61 1727.32,-223.88"/>
</g>
<!-- Node0x55bd1ca91c78&#45;&gt;Node0x55bd1ca92628 -->
<g id="edge15" class="edge">
<title>Node0x55bd1ca91c78&#45;&gt;Node0x55bd1ca92628</title>
<path fill="none" stroke="black" d="M726.1,-217.59C753.94,-220.76 783,-224.06 811.03,-227.25"/>
<polygon fill="black" stroke="black" points="810.98,-230.77 821.31,-228.42 811.77,-223.81 810.98,-230.77"/>
</g>
</g>
</svg>
