<?xml version="1.0" encoding="UTF-8" standalone="no"?>
<!DOCTYPE svg PUBLIC "-//W3C//DTD SVG 1.1//EN"
 "http://www.w3.org/Graphics/SVG/1.1/DTD/svg11.dtd">
<!-- Generated by graphviz version 2.43.0 (0)
 -->
<!-- Title: bin/opt_lib/libLLVMObject.a Pages: 1 -->
<svg width="2943pt" height="870pt"
 viewBox="0.00 0.00 2943.00 869.51" xmlns="http://www.w3.org/2000/svg" xmlns:xlink="http://www.w3.org/1999/xlink">
<g id="graph0" class="graph" transform="scale(1 1) rotate(0) translate(4 865.51)">
<title>bin/opt_lib/libLLVMObject.a</title>
<polygon fill="white" stroke="transparent" points="-4,4 -4,-865.51 2939,-865.51 2939,4 -4,4"/>
<text text-anchor="middle" x="1467.5" y="-7.8" font-family="Times,serif" font-size="14.00">bin/opt_lib/libLLVMObject.a</text>
<!-- Node0x5652f39334d8 -->
<g id="node1" class="node">
<title>Node0x5652f39334d8</title>
<polygon fill="none" stroke="black" points="1061,-766.51 688,-766.51 688,-730.51 1061,-730.51 1061,-766.51"/>
<text text-anchor="middle" x="874.5" y="-744.81" font-family="Times,serif" font-size="14.00">{lib/libLLVMObject.a(ModuleSymbolTable.cpp.o)}</text>
</g>
<!-- Node0x5652f3930788 -->
<g id="node2" class="node">
<title>Node0x5652f3930788</title>
<polygon fill="none" stroke="black" points="1445,-861.51 1101,-861.51 1101,-825.51 1445,-825.51 1445,-861.51"/>
<text text-anchor="middle" x="1273" y="-839.81" font-family="Times,serif" font-size="14.00">{lib/libLLVMObject.a(RecordStreamer.cpp.o)}</text>
</g>
<!-- Node0x5652f39334d8&#45;&gt;Node0x5652f3930788 -->
<g id="edge1" class="edge">
<title>Node0x5652f39334d8&#45;&gt;Node0x5652f3930788</title>
<path fill="none" stroke="black" d="M933.4,-766.63C977.86,-780.14 1040.93,-798.44 1097,-811.51 1115.44,-815.81 1135.09,-819.88 1154.31,-823.6"/>
<polygon fill="black" stroke="black" points="1153.83,-827.07 1164.31,-825.5 1155.14,-820.19 1153.83,-827.07"/>
</g>
<!-- Node0x5652f3943ce8 -->
<g id="node3" class="node">
<title>Node0x5652f3943ce8</title>
<polygon fill="none" stroke="black" points="652,-616.51 353,-616.51 353,-580.51 652,-580.51 652,-616.51"/>
<text text-anchor="middle" x="502.5" y="-594.81" font-family="Times,serif" font-size="14.00">{lib/libLLVMObject.a(IRSymtab.cpp.o)}</text>
</g>
<!-- Node0x5652f3943ce8&#45;&gt;Node0x5652f39334d8 -->
<g id="edge2" class="edge">
<title>Node0x5652f3943ce8&#45;&gt;Node0x5652f39334d8</title>
<path fill="none" stroke="black" d="M523.91,-616.66C556.21,-644.27 622.22,-696.28 688,-721.51 693.78,-723.73 699.73,-725.77 705.79,-727.64"/>
<polygon fill="black" stroke="black" points="704.81,-731 715.39,-730.44 706.77,-724.28 704.81,-731"/>
</g>
<!-- Node0x5652f3945188 -->
<g id="node4" class="node">
<title>Node0x5652f3945188</title>
<polygon fill="none" stroke="black" points="639,-462.51 366,-462.51 366,-426.51 639,-426.51 639,-462.51"/>
<text text-anchor="middle" x="502.5" y="-440.81" font-family="Times,serif" font-size="14.00">{lib/libLLVMObject.a(Binary.cpp.o)}</text>
</g>
<!-- Node0x5652f3944eb8 -->
<g id="node5" class="node">
<title>Node0x5652f3944eb8</title>
<polygon fill="none" stroke="black" points="1414,-685.51 1132,-685.51 1132,-649.51 1414,-649.51 1414,-685.51"/>
<text text-anchor="middle" x="1273" y="-663.81" font-family="Times,serif" font-size="14.00">{lib/libLLVMObject.a(Archive.cpp.o)}</text>
</g>
<!-- Node0x5652f3945188&#45;&gt;Node0x5652f3944eb8 -->
<g id="edge3" class="edge">
<title>Node0x5652f3945188&#45;&gt;Node0x5652f3944eb8</title>
<path fill="none" stroke="black" d="M615.3,-462.57C628.86,-469.3 641.58,-477.84 652,-488.51 687.64,-525.01 648.26,-565.51 688,-597.51 721.17,-624.22 959.93,-642.06 1121.71,-653.72"/>
<polygon fill="black" stroke="black" points="1121.54,-657.22 1131.77,-654.45 1122.04,-650.24 1121.54,-657.22"/>
</g>
<!-- Node0x5652f3943fb8 -->
<g id="node6" class="node">
<title>Node0x5652f3943fb8</title>
<polygon fill="none" stroke="black" points="2935,-498.51 2669,-498.51 2669,-462.51 2935,-462.51 2935,-498.51"/>
<text text-anchor="middle" x="2802" y="-476.81" font-family="Times,serif" font-size="14.00">{lib/libLLVMObject.a(Error.cpp.o)}</text>
</g>
<!-- Node0x5652f3945188&#45;&gt;Node0x5652f3943fb8 -->
<g id="edge4" class="edge">
<title>Node0x5652f3945188&#45;&gt;Node0x5652f3943fb8</title>
<path fill="none" stroke="black" d="M521.89,-426.08C552.95,-396.35 619.14,-338.81 688,-315.51 771.27,-287.33 2181.11,-250.37 2269,-248.51 2430.74,-245.08 2488.91,-174.95 2633,-248.51 2718.33,-292.07 2770.37,-401.46 2790.91,-452.93"/>
<polygon fill="black" stroke="black" points="2787.71,-454.36 2794.59,-462.41 2794.23,-451.82 2787.71,-454.36"/>
</g>
<!-- Node0x5652f3932218 -->
<g id="node7" class="node">
<title>Node0x5652f3932218</title>
<polygon fill="none" stroke="black" points="1048,-712.51 701,-712.51 701,-676.51 1048,-676.51 1048,-712.51"/>
<text text-anchor="middle" x="874.5" y="-690.81" font-family="Times,serif" font-size="14.00">{lib/libLLVMObject.a(MachOUniversal.cpp.o)}</text>
</g>
<!-- Node0x5652f3945188&#45;&gt;Node0x5652f3932218 -->
<g id="edge5" class="edge">
<title>Node0x5652f3945188&#45;&gt;Node0x5652f3932218</title>
<path fill="none" stroke="black" d="M618.2,-462.55C630.89,-469.29 642.6,-477.82 652,-488.51 701.57,-544.87 633.77,-601.62 688,-653.51 695.78,-660.96 704.64,-667.02 714.16,-671.94"/>
<polygon fill="black" stroke="black" points="712.94,-675.24 723.48,-676.33 715.92,-668.9 712.94,-675.24"/>
</g>
<!-- Node0x5652f39333e8 -->
<g id="node8" class="node">
<title>Node0x5652f39333e8</title>
<polygon fill="none" stroke="black" points="1025,-268.51 724,-268.51 724,-232.51 1025,-232.51 1025,-268.51"/>
<text text-anchor="middle" x="874.5" y="-246.81" font-family="Times,serif" font-size="14.00">{lib/libLLVMObject.a(Minidump.cpp.o)}</text>
</g>
<!-- Node0x5652f3945188&#45;&gt;Node0x5652f39333e8 -->
<g id="edge6" class="edge">
<title>Node0x5652f3945188&#45;&gt;Node0x5652f39333e8</title>
<path fill="none" stroke="black" d="M514.29,-426.3C540.35,-390.03 610.31,-310.63 688,-273.51 696.43,-269.48 705.28,-265.96 714.37,-262.88"/>
<polygon fill="black" stroke="black" points="715.45,-266.21 723.91,-259.84 713.32,-259.54 715.45,-266.21"/>
</g>
<!-- Node0x5652f392f888 -->
<g id="node9" class="node">
<title>Node0x5652f392f888</title>
<polygon fill="none" stroke="black" points="2611,-433.51 2291,-433.51 2291,-397.51 2611,-397.51 2611,-433.51"/>
<text text-anchor="middle" x="2451" y="-411.81" font-family="Times,serif" font-size="14.00">{lib/libLLVMObject.a(SymbolicFile.cpp.o)}</text>
</g>
<!-- Node0x5652f3945188&#45;&gt;Node0x5652f392f888 -->
<g id="edge7" class="edge">
<title>Node0x5652f3945188&#45;&gt;Node0x5652f392f888</title>
<path fill="none" stroke="black" d="M526.57,-426.46C560.73,-406.02 627.27,-375.01 688,-362.51 1207.12,-255.63 1350.05,-335.29 1880,-327.51 2036.87,-325.21 2078.5,-300.26 2233,-327.51 2300.36,-339.39 2374.31,-370.52 2416.15,-392.63"/>
<polygon fill="black" stroke="black" points="2414.62,-395.78 2425.08,-397.48 2417.96,-389.63 2414.62,-395.78"/>
</g>
<!-- Node0x5652f392f0b8 -->
<g id="node10" class="node">
<title>Node0x5652f392f0b8</title>
<polygon fill="none" stroke="black" points="1038,-416.51 711,-416.51 711,-380.51 1038,-380.51 1038,-416.51"/>
<text text-anchor="middle" x="874.5" y="-394.81" font-family="Times,serif" font-size="14.00">{lib/libLLVMObject.a(TapiUniversal.cpp.o)}</text>
</g>
<!-- Node0x5652f3945188&#45;&gt;Node0x5652f392f0b8 -->
<g id="edge8" class="edge">
<title>Node0x5652f3945188&#45;&gt;Node0x5652f392f0b8</title>
<path fill="none" stroke="black" d="M600.23,-426.47C631.02,-422.09 666.07,-417.49 700.56,-413.27"/>
<polygon fill="black" stroke="black" points="701.25,-416.71 710.76,-412.04 700.41,-409.77 701.25,-416.71"/>
</g>
<!-- Node0x5652f392ed48 -->
<g id="node11" class="node">
<title>Node0x5652f392ed48</title>
<polygon fill="none" stroke="black" points="1844,-731.51 1485,-731.51 1485,-695.51 1844,-695.51 1844,-731.51"/>
<text text-anchor="middle" x="1664.5" y="-709.81" font-family="Times,serif" font-size="14.00">{lib/libLLVMObject.a(WindowsResource.cpp.o)}</text>
</g>
<!-- Node0x5652f3945188&#45;&gt;Node0x5652f392ed48 -->
<g id="edge9" class="edge">
<title>Node0x5652f3945188&#45;&gt;Node0x5652f392ed48</title>
<path fill="none" stroke="black" d="M639.24,-450.17C643.7,-452.63 647.97,-455.4 652,-458.51 683.82,-483.09 655.74,-517.51 688,-541.51 824.63,-643.16 1298.27,-552.27 1449,-631.51 1470.46,-642.79 1463.88,-660.59 1485,-672.51 1501.04,-681.56 1519.06,-688.15 1537.33,-693.03"/>
<polygon fill="black" stroke="black" points="1536.65,-696.46 1547.2,-695.5 1538.35,-689.67 1536.65,-696.46"/>
</g>
<!-- Node0x5652f3944eb8&#45;&gt;Node0x5652f3945188 -->
<g id="edge23" class="edge">
<title>Node0x5652f3944eb8&#45;&gt;Node0x5652f3945188</title>
<path fill="none" stroke="black" d="M1131.77,-667.12C970.02,-660.8 721.87,-642.78 688,-615.51 648.26,-583.51 687.64,-543.01 652,-506.51 632.33,-486.36 604.49,-473.85 578.22,-465.5"/>
<polygon fill="black" stroke="black" points="579.22,-462.15 568.63,-462.61 577.19,-468.85 579.22,-462.15"/>
</g>
<!-- Node0x5652f3944eb8&#45;&gt;Node0x5652f3943fb8 -->
<g id="edge24" class="edge">
<title>Node0x5652f3944eb8&#45;&gt;Node0x5652f3943fb8</title>
<path fill="none" stroke="black" d="M1313.82,-685.61C1355.5,-703.51 1423.33,-729.74 1485,-740.51 1610.66,-762.45 2521.49,-796.44 2633,-734.51 2723.1,-684.47 2773.4,-563.36 2792.26,-508.43"/>
<polygon fill="black" stroke="black" points="2795.67,-509.26 2795.52,-498.67 2789.03,-507.05 2795.67,-509.26"/>
</g>
<!-- Node0x5652f3932218&#45;&gt;Node0x5652f3945188 -->
<g id="edge25" class="edge">
<title>Node0x5652f3932218&#45;&gt;Node0x5652f3945188</title>
<path fill="none" stroke="black" d="M700.84,-681.96C696.31,-678.82 692.01,-675.35 688,-671.51 633.77,-619.62 701.57,-562.87 652,-506.51 634.21,-486.28 608.14,-473.77 582.8,-465.52"/>
<polygon fill="black" stroke="black" points="583.73,-462.15 573.14,-462.57 581.68,-468.84 583.73,-462.15"/>
</g>
<!-- Node0x5652f3932218&#45;&gt;Node0x5652f3944eb8 -->
<g id="edge26" class="edge">
<title>Node0x5652f3932218&#45;&gt;Node0x5652f3944eb8</title>
<path fill="none" stroke="black" d="M1048.26,-682.75C1072.73,-681.08 1097.72,-679.38 1121.72,-677.74"/>
<polygon fill="black" stroke="black" points="1122.2,-681.22 1131.94,-677.05 1121.72,-674.23 1122.2,-681.22"/>
</g>
<!-- Node0x5652f3932218&#45;&gt;Node0x5652f3943fb8 -->
<g id="edge27" class="edge">
<title>Node0x5652f3932218&#45;&gt;Node0x5652f3943fb8</title>
<path fill="none" stroke="black" d="M999.44,-712.51C1204.6,-742.03 1598.7,-797.51 1663.5,-797.51 1663.5,-797.51 1663.5,-797.51 2057.5,-797.51 2313.67,-797.51 2414.19,-898.72 2633,-765.51 2730.19,-706.34 2777.56,-568.08 2794.02,-508.57"/>
<polygon fill="black" stroke="black" points="2797.45,-509.3 2796.66,-498.73 2790.69,-507.49 2797.45,-509.3"/>
</g>
<!-- Node0x5652f3942e88 -->
<g id="node13" class="node">
<title>Node0x5652f3942e88</title>
<polygon fill="none" stroke="black" points="1449,-508.51 1097,-508.51 1097,-472.51 1449,-472.51 1449,-508.51"/>
<text text-anchor="middle" x="1273" y="-486.81" font-family="Times,serif" font-size="14.00">{lib/libLLVMObject.a(MachOObjectFile.cpp.o)}</text>
</g>
<!-- Node0x5652f3932218&#45;&gt;Node0x5652f3942e88 -->
<g id="edge28" class="edge">
<title>Node0x5652f3932218&#45;&gt;Node0x5652f3942e88</title>
<path fill="none" stroke="black" d="M910.69,-676.41C982.99,-639.21 1148.14,-554.24 1227.63,-513.34"/>
<polygon fill="black" stroke="black" points="1229.6,-516.26 1236.89,-508.57 1226.4,-510.04 1229.6,-516.26"/>
</g>
<!-- Node0x5652f3933438 -->
<g id="node20" class="node">
<title>Node0x5652f3933438</title>
<polygon fill="none" stroke="black" points="317,-342.51 0,-342.51 0,-306.51 317,-306.51 317,-342.51"/>
<text text-anchor="middle" x="158.5" y="-320.81" font-family="Times,serif" font-size="14.00">{lib/libLLVMObject.a(IRObjectFile.cpp.o)}</text>
</g>
<!-- Node0x5652f3932218&#45;&gt;Node0x5652f3933438 -->
<g id="edge29" class="edge">
<title>Node0x5652f3932218&#45;&gt;Node0x5652f3933438</title>
<path fill="none" stroke="black" d="M727.49,-676.44C713.23,-670.63 699.73,-663.14 688,-653.51 657.24,-628.26 681.39,-598.35 652,-571.51 548.52,-477.03 476.88,-536.99 353,-471.51 287.98,-437.15 221.79,-381.42 186.17,-349.36"/>
<polygon fill="black" stroke="black" points="188.38,-346.64 178.63,-342.51 183.68,-351.83 188.38,-346.64"/>
</g>
<!-- Node0x5652f39333e8&#45;&gt;Node0x5652f3945188 -->
<g id="edge30" class="edge">
<title>Node0x5652f39333e8&#45;&gt;Node0x5652f3945188</title>
<path fill="none" stroke="black" d="M760.58,-268.61C735.86,-273.63 710.41,-280.8 688,-291.51 622.56,-322.77 562.61,-384.03 529.76,-418.97"/>
<polygon fill="black" stroke="black" points="527.06,-416.73 522.78,-426.42 532.17,-421.51 527.06,-416.73"/>
</g>
<!-- Node0x5652f39333e8&#45;&gt;Node0x5652f3943fb8 -->
<g id="edge31" class="edge">
<title>Node0x5652f39333e8&#45;&gt;Node0x5652f3943fb8</title>
<path fill="none" stroke="black" d="M946.66,-232.44C1059.77,-204.72 1287.96,-152.88 1485,-133.51 1611.94,-121.03 2525.11,-60.46 2633,-128.51 2749.88,-202.24 2787.18,-382.12 2797.5,-452.05"/>
<polygon fill="black" stroke="black" points="2794.08,-452.87 2798.93,-462.29 2801.01,-451.9 2794.08,-452.87"/>
</g>
<!-- Node0x5652f392f888&#45;&gt;Node0x5652f3945188 -->
<g id="edge32" class="edge">
<title>Node0x5652f392f888&#45;&gt;Node0x5652f3945188</title>
<path fill="none" stroke="black" d="M2396.61,-397.43C2353.55,-380.11 2290.84,-355.71 2233,-345.51 2078.5,-318.26 2036.87,-343.21 1880,-345.51 1350.05,-353.29 1207.12,-273.63 688,-380.51 644.98,-389.37 599.04,-407.51 563.76,-422.38"/>
<polygon fill="black" stroke="black" points="561.95,-419.35 554.11,-426.48 564.68,-425.8 561.95,-419.35"/>
</g>
<!-- Node0x5652f392f888&#45;&gt;Node0x5652f3943fb8 -->
<g id="edge33" class="edge">
<title>Node0x5652f392f888&#45;&gt;Node0x5652f3943fb8</title>
<path fill="none" stroke="black" d="M2555.91,-433.53C2581.16,-438.01 2608.06,-442.86 2633,-447.51 2655.02,-451.62 2678.63,-456.17 2700.99,-460.54"/>
<polygon fill="black" stroke="black" points="2700.33,-463.98 2710.82,-462.47 2701.68,-457.11 2700.33,-463.98"/>
</g>
<!-- Node0x5652f39399c8 -->
<g id="node14" class="node">
<title>Node0x5652f39399c8</title>
<polygon fill="none" stroke="black" points="1815.5,-508.51 1513.5,-508.51 1513.5,-472.51 1815.5,-472.51 1815.5,-508.51"/>
<text text-anchor="middle" x="1664.5" y="-486.81" font-family="Times,serif" font-size="14.00">{lib/libLLVMObject.a(ObjectFile.cpp.o)}</text>
</g>
<!-- Node0x5652f392f888&#45;&gt;Node0x5652f39399c8 -->
<g id="edge35" class="edge">
<title>Node0x5652f392f888&#45;&gt;Node0x5652f39399c8</title>
<path fill="none" stroke="black" d="M2407.95,-433.53C2364.49,-446.89 2294.53,-463.38 2233,-471.51 2096.42,-489.55 1939.96,-496.24 1825.96,-497.13"/>
<polygon fill="black" stroke="black" points="1825.74,-493.63 1815.76,-497.2 1825.78,-500.63 1825.74,-493.63"/>
</g>
<!-- Node0x5652f392f888&#45;&gt;Node0x5652f3933438 -->
<g id="edge34" class="edge">
<title>Node0x5652f392f888&#45;&gt;Node0x5652f3933438</title>
<path fill="none" stroke="black" d="M2403.64,-397.39C2360.68,-377.26 2294.34,-346.1 2233,-329.51 1568.01,-149.68 1376.76,-193.18 688,-205.51 539.04,-208.18 495.85,-175.2 353,-217.51 294.24,-234.91 235.03,-274.37 197.87,-300.37"/>
<polygon fill="black" stroke="black" points="195.53,-297.73 189.36,-306.35 199.56,-303.46 195.53,-297.73"/>
</g>
<!-- Node0x5652f392f0b8&#45;&gt;Node0x5652f3945188 -->
<g id="edge36" class="edge">
<title>Node0x5652f392f0b8&#45;&gt;Node0x5652f3945188</title>
<path fill="none" stroke="black" d="M776.92,-416.53C737.91,-422.08 692.04,-427.99 649.14,-433.02"/>
<polygon fill="black" stroke="black" points="648.7,-429.54 639.17,-434.17 649.51,-436.5 648.7,-429.54"/>
</g>
<!-- Node0x5652f392fe28 -->
<g id="node21" class="node">
<title>Node0x5652f392fe28</title>
<polygon fill="none" stroke="black" points="1807,-416.51 1522,-416.51 1522,-380.51 1807,-380.51 1807,-416.51"/>
<text text-anchor="middle" x="1664.5" y="-394.81" font-family="Times,serif" font-size="14.00">{lib/libLLVMObject.a(TapiFile.cpp.o)}</text>
</g>
<!-- Node0x5652f392f0b8&#45;&gt;Node0x5652f392fe28 -->
<g id="edge37" class="edge">
<title>Node0x5652f392f0b8&#45;&gt;Node0x5652f392fe28</title>
<path fill="none" stroke="black" d="M1038.3,-398.51C1177.34,-398.51 1375.84,-398.51 1511.64,-398.51"/>
<polygon fill="black" stroke="black" points="1511.72,-402.01 1521.72,-398.51 1511.72,-395.01 1511.72,-402.01"/>
</g>
<!-- Node0x5652f392ed48&#45;&gt;Node0x5652f3945188 -->
<g id="edge38" class="edge">
<title>Node0x5652f392ed48&#45;&gt;Node0x5652f3945188</title>
<path fill="none" stroke="black" d="M1494.25,-695.36C1491.1,-693.83 1488.02,-692.21 1485,-690.51 1463.88,-678.59 1470.46,-660.79 1449,-649.51 1298.27,-570.27 824.63,-661.16 688,-559.51 655.74,-535.51 683.82,-501.09 652,-476.51 647.24,-472.83 642.13,-469.63 636.77,-466.84"/>
<polygon fill="black" stroke="black" points="638.09,-463.59 627.55,-462.53 635.12,-469.93 638.09,-463.59"/>
</g>
<!-- Node0x5652f392ed48&#45;&gt;Node0x5652f3943fb8 -->
<g id="edge39" class="edge">
<title>Node0x5652f392ed48&#45;&gt;Node0x5652f3943fb8</title>
<path fill="none" stroke="black" d="M1844,-728.68C2084.95,-746.09 2499.5,-764.36 2633,-697.51 2714.11,-656.89 2767.49,-556.67 2789.53,-507.97"/>
<polygon fill="black" stroke="black" points="2792.8,-509.23 2793.64,-498.67 2786.4,-506.4 2792.8,-509.23"/>
</g>
<!-- Node0x5652f3930a08 -->
<g id="node16" class="node">
<title>Node0x5652f3930a08</title>
<polygon fill="none" stroke="black" points="2228,-563.51 1885,-563.51 1885,-527.51 2228,-527.51 2228,-563.51"/>
<text text-anchor="middle" x="2056.5" y="-541.81" font-family="Times,serif" font-size="14.00">{lib/libLLVMObject.a(COFFObjectFile.cpp.o)}</text>
</g>
<!-- Node0x5652f392ed48&#45;&gt;Node0x5652f3930a08 -->
<g id="edge40" class="edge">
<title>Node0x5652f392ed48&#45;&gt;Node0x5652f3930a08</title>
<path fill="none" stroke="black" d="M1700.71,-695.35C1742.84,-673.93 1815.73,-637.77 1880,-610.51 1917.02,-594.8 1959.28,-579.09 1993.04,-567.05"/>
<polygon fill="black" stroke="black" points="1994.53,-570.23 2002.78,-563.59 1992.19,-563.64 1994.53,-570.23"/>
</g>
<!-- Node0x5652f3944c88 -->
<g id="node12" class="node">
<title>Node0x5652f3944c88</title>
<polygon fill="none" stroke="black" points="2615.5,-563.51 2286.5,-563.51 2286.5,-527.51 2615.5,-527.51 2615.5,-563.51"/>
<text text-anchor="middle" x="2451" y="-541.81" font-family="Times,serif" font-size="14.00">{lib/libLLVMObject.a(Decompressor.cpp.o)}</text>
</g>
<!-- Node0x5652f3944c88&#45;&gt;Node0x5652f3943fb8 -->
<g id="edge10" class="edge">
<title>Node0x5652f3944c88&#45;&gt;Node0x5652f3943fb8</title>
<path fill="none" stroke="black" d="M2555.91,-527.49C2581.16,-523.01 2608.06,-518.16 2633,-513.51 2655.02,-509.4 2678.63,-504.85 2700.99,-500.48"/>
<polygon fill="black" stroke="black" points="2701.68,-503.91 2710.82,-498.55 2700.33,-497.04 2701.68,-503.91"/>
</g>
<!-- Node0x5652f3942e88&#45;&gt;Node0x5652f3945188 -->
<g id="edge11" class="edge">
<title>Node0x5652f3942e88&#45;&gt;Node0x5652f3945188</title>
<path fill="none" stroke="black" d="M1096.89,-481.88C980.86,-475.92 825.3,-467.48 688,-458.51 675.36,-457.68 662.23,-456.78 649.07,-455.84"/>
<polygon fill="black" stroke="black" points="649.23,-452.34 639,-455.12 648.72,-459.33 649.23,-452.34"/>
</g>
<!-- Node0x5652f3942e88&#45;&gt;Node0x5652f3943fb8 -->
<g id="edge12" class="edge">
<title>Node0x5652f3942e88&#45;&gt;Node0x5652f3943fb8</title>
<path fill="none" stroke="black" d="M1318.99,-508.57C1418.22,-547.26 1664.22,-636.84 1880,-664.51 1962.99,-675.15 2556.45,-698.27 2633,-664.51 2706.38,-632.15 2761.58,-550.15 2786.46,-507.39"/>
<polygon fill="black" stroke="black" points="2789.53,-509.07 2791.44,-498.65 2783.45,-505.6 2789.53,-509.07"/>
</g>
<!-- Node0x5652f3942e88&#45;&gt;Node0x5652f392f888 -->
<g id="edge14" class="edge">
<title>Node0x5652f3942e88&#45;&gt;Node0x5652f392f888</title>
<path fill="none" stroke="black" d="M1375.7,-508.53C1495.75,-528.81 1701.65,-560.5 1880,-572.51 2036.53,-583.05 2094.68,-646.54 2233,-572.51 2258.43,-558.9 2247.9,-538.17 2269,-518.51 2306.43,-483.63 2357.79,-455.84 2396.23,-437.96"/>
<polygon fill="black" stroke="black" points="2398.07,-440.97 2405.71,-433.63 2395.16,-434.6 2398.07,-440.97"/>
</g>
<!-- Node0x5652f3942e88&#45;&gt;Node0x5652f39399c8 -->
<g id="edge13" class="edge">
<title>Node0x5652f3942e88&#45;&gt;Node0x5652f39399c8</title>
<path fill="none" stroke="black" d="M1449.1,-483.79C1467,-483.73 1485.13,-483.75 1502.87,-483.85"/>
<polygon fill="black" stroke="black" points="1503.25,-487.35 1513.27,-483.92 1503.29,-480.36 1503.25,-487.35"/>
</g>
<!-- Node0x5652f39399c8&#45;&gt;Node0x5652f3943fb8 -->
<g id="edge15" class="edge">
<title>Node0x5652f39399c8&#45;&gt;Node0x5652f3943fb8</title>
<path fill="none" stroke="black" d="M1754.24,-472.47C1785.38,-462.68 1818.83,-447.83 1844,-425.51 1870.47,-402.04 1849.85,-373.03 1880,-354.51 2165.18,-179.37 2315.51,-248.68 2633,-354.51 2692.31,-374.28 2747.54,-424.09 2777.54,-454.83"/>
<polygon fill="black" stroke="black" points="2775.17,-457.41 2784.62,-462.21 2780.22,-452.57 2775.17,-457.41"/>
</g>
<!-- Node0x5652f39399c8&#45;&gt;Node0x5652f392f888 -->
<g id="edge19" class="edge">
<title>Node0x5652f39399c8&#45;&gt;Node0x5652f392f888</title>
<path fill="none" stroke="black" d="M1815.76,-482.39C1930.5,-478.63 2092.3,-472.09 2233,-453.51 2266.07,-449.14 2301.59,-442.36 2334.11,-435.63"/>
<polygon fill="black" stroke="black" points="2335.02,-439.02 2344.1,-433.55 2333.6,-432.16 2335.02,-439.02"/>
</g>
<!-- Node0x5652f39399c8&#45;&gt;Node0x5652f3942e88 -->
<g id="edge16" class="edge">
<title>Node0x5652f39399c8&#45;&gt;Node0x5652f3942e88</title>
<path fill="none" stroke="black" d="M1513.27,-497.1C1495.54,-497.23 1477.29,-497.28 1459.16,-497.25"/>
<polygon fill="black" stroke="black" points="1459.1,-493.75 1449.1,-497.23 1459.09,-500.75 1459.1,-493.75"/>
</g>
<!-- Node0x5652f393a4b8 -->
<g id="node15" class="node">
<title>Node0x5652f393a4b8</title>
<polygon fill="none" stroke="black" points="2222,-655.51 1891,-655.51 1891,-619.51 2222,-619.51 2222,-655.51"/>
<text text-anchor="middle" x="2056.5" y="-633.81" font-family="Times,serif" font-size="14.00">{lib/libLLVMObject.a(ELFObjectFile.cpp.o)}</text>
</g>
<!-- Node0x5652f39399c8&#45;&gt;Node0x5652f393a4b8 -->
<g id="edge17" class="edge">
<title>Node0x5652f39399c8&#45;&gt;Node0x5652f393a4b8</title>
<path fill="none" stroke="black" d="M1732.58,-508.61C1774.84,-523.59 1830.56,-544.9 1880,-563.51 1926,-580.82 1978.92,-600.37 2014.52,-615.33"/>
<polygon fill="black" stroke="black" points="2013.51,-618.7 2024.08,-619.42 2016.26,-612.26 2013.51,-618.7"/>
</g>
<!-- Node0x5652f39399c8&#45;&gt;Node0x5652f3930a08 -->
<g id="edge18" class="edge">
<title>Node0x5652f39399c8&#45;&gt;Node0x5652f3930a08</title>
<path fill="none" stroke="black" d="M1815.73,-505.11C1863.6,-511.51 1915.29,-519.02 1958.37,-525.88"/>
<polygon fill="black" stroke="black" points="1957.84,-529.34 1968.27,-527.47 1958.95,-522.43 1957.84,-529.34"/>
</g>
<!-- Node0x5652f392e168 -->
<g id="node17" class="node">
<title>Node0x5652f392e168</title>
<polygon fill="none" stroke="black" points="2228.5,-453.51 1884.5,-453.51 1884.5,-417.51 2228.5,-417.51 2228.5,-453.51"/>
<text text-anchor="middle" x="2056.5" y="-431.81" font-family="Times,serif" font-size="14.00">{lib/libLLVMObject.a(WasmObjectFile.cpp.o)}</text>
</g>
<!-- Node0x5652f39399c8&#45;&gt;Node0x5652f392e168 -->
<g id="edge20" class="edge">
<title>Node0x5652f39399c8&#45;&gt;Node0x5652f392e168</title>
<path fill="none" stroke="black" d="M1752.54,-472.5C1788.6,-466.66 1831.85,-460.22 1874.23,-454.34"/>
<polygon fill="black" stroke="black" points="1874.98,-457.77 1884.4,-452.93 1874.02,-450.83 1874.98,-457.77"/>
</g>
<!-- Node0x5652f392e618 -->
<g id="node18" class="node">
<title>Node0x5652f392e618</title>
<polygon fill="none" stroke="black" points="2233,-399.51 1880,-399.51 1880,-363.51 2233,-363.51 2233,-399.51"/>
<text text-anchor="middle" x="2056.5" y="-377.81" font-family="Times,serif" font-size="14.00">{lib/libLLVMObject.a(XCOFFObjectFile.cpp.o)}</text>
</g>
<!-- Node0x5652f39399c8&#45;&gt;Node0x5652f392e618 -->
<g id="edge21" class="edge">
<title>Node0x5652f39399c8&#45;&gt;Node0x5652f392e618</title>
<path fill="none" stroke="black" d="M1699.75,-472.39C1735.95,-457.77 1794.54,-437.14 1844,-416.51 1856.53,-411.28 1861.07,-407.12 1870.14,-403.12"/>
<polygon fill="black" stroke="black" points="1871.43,-406.37 1879.61,-399.63 1869.01,-399.81 1871.43,-406.37"/>
</g>
<!-- Node0x5652f393a4b8&#45;&gt;Node0x5652f3945188 -->
<g id="edge47" class="edge">
<title>Node0x5652f393a4b8&#45;&gt;Node0x5652f3945188</title>
<path fill="none" stroke="black" d="M1890.78,-624.68C1578.54,-599.41 911.76,-540.56 688,-482.51 671.22,-478.16 668.69,-472.2 652,-467.51 648.86,-466.63 645.67,-465.77 642.45,-464.95"/>
<polygon fill="black" stroke="black" points="643.24,-461.54 632.69,-462.58 641.58,-468.34 643.24,-461.54"/>
</g>
<!-- Node0x5652f393a4b8&#45;&gt;Node0x5652f3943fb8 -->
<g id="edge48" class="edge">
<title>Node0x5652f393a4b8&#45;&gt;Node0x5652f3943fb8</title>
<path fill="none" stroke="black" d="M2195.11,-619.48C2219.7,-616.39 2245.1,-613.28 2269,-610.51 2430.57,-591.77 2477.73,-620.97 2633,-572.51 2682.62,-557.02 2734.27,-526.15 2766.98,-504.45"/>
<polygon fill="black" stroke="black" points="2769.34,-507.08 2775.69,-498.6 2765.44,-501.28 2769.34,-507.08"/>
</g>
<!-- Node0x5652f393a4b8&#45;&gt;Node0x5652f392f888 -->
<g id="edge51" class="edge">
<title>Node0x5652f393a4b8&#45;&gt;Node0x5652f392f888</title>
<path fill="none" stroke="black" d="M2211.52,-619.33C2219.15,-615.43 2226.37,-610.86 2233,-605.51 2265.55,-579.22 2241.32,-549.89 2269,-518.51 2301.63,-481.52 2350.9,-454.7 2389.79,-437.72"/>
<polygon fill="black" stroke="black" points="2391.61,-440.75 2399.44,-433.61 2388.87,-434.31 2391.61,-440.75"/>
</g>
<!-- Node0x5652f393a4b8&#45;&gt;Node0x5652f39399c8 -->
<g id="edge49" class="edge">
<title>Node0x5652f393a4b8&#45;&gt;Node0x5652f39399c8</title>
<path fill="none" stroke="black" d="M1984.14,-619.51C1952.25,-608.5 1914.21,-594.38 1880,-581.51 1819.12,-558.6 1748.71,-531.58 1705.65,-512.67"/>
<polygon fill="black" stroke="black" points="1706.92,-509.41 1696.37,-508.53 1704.07,-515.8 1706.92,-509.41"/>
</g>
<!-- Node0x5652f3939a18 -->
<g id="node22" class="node">
<title>Node0x5652f3939a18</title>
<polygon fill="none" stroke="black" points="2578.5,-655.51 2323.5,-655.51 2323.5,-619.51 2578.5,-619.51 2578.5,-655.51"/>
<text text-anchor="middle" x="2451" y="-633.81" font-family="Times,serif" font-size="14.00">{lib/libLLVMObject.a(ELF.cpp.o)}</text>
</g>
<!-- Node0x5652f393a4b8&#45;&gt;Node0x5652f3939a18 -->
<g id="edge50" class="edge">
<title>Node0x5652f393a4b8&#45;&gt;Node0x5652f3939a18</title>
<path fill="none" stroke="black" d="M2222.25,-637.51C2252.46,-637.51 2283.7,-637.51 2312.99,-637.51"/>
<polygon fill="black" stroke="black" points="2313.27,-641.01 2323.27,-637.51 2313.27,-634.01 2313.27,-641.01"/>
</g>
<!-- Node0x5652f3930a08&#45;&gt;Node0x5652f3943fb8 -->
<g id="edge52" class="edge">
<title>Node0x5652f3930a08&#45;&gt;Node0x5652f3943fb8</title>
<path fill="none" stroke="black" d="M2189.66,-527.49C2215.91,-524.23 2243.31,-521.07 2269,-518.51 2400.77,-505.4 2551.34,-495.08 2658.59,-488.52"/>
<polygon fill="black" stroke="black" points="2659.06,-492 2668.83,-487.9 2658.63,-485.01 2659.06,-492"/>
</g>
<!-- Node0x5652f3930a08&#45;&gt;Node0x5652f392f888 -->
<g id="edge54" class="edge">
<title>Node0x5652f3930a08&#45;&gt;Node0x5652f392f888</title>
<path fill="none" stroke="black" d="M2193.64,-527.47C2207.21,-523.67 2220.56,-519.07 2233,-513.51 2251.5,-505.23 2251.36,-495.49 2269,-485.51 2304.24,-465.56 2346.29,-448.91 2380.99,-436.87"/>
<polygon fill="black" stroke="black" points="2382.24,-440.14 2390.57,-433.59 2379.97,-433.51 2382.24,-440.14"/>
</g>
<!-- Node0x5652f3930a08&#45;&gt;Node0x5652f39399c8 -->
<g id="edge53" class="edge">
<title>Node0x5652f3930a08&#45;&gt;Node0x5652f39399c8</title>
<path fill="none" stroke="black" d="M1884.8,-528.14C1843.03,-522.41 1799.75,-516.05 1762.79,-510.16"/>
<polygon fill="black" stroke="black" points="1762.97,-506.65 1752.54,-508.51 1761.86,-513.56 1762.97,-506.65"/>
</g>
<!-- Node0x5652f392e168&#45;&gt;Node0x5652f3945188 -->
<g id="edge55" class="edge">
<title>Node0x5652f392e168&#45;&gt;Node0x5652f3945188</title>
<path fill="none" stroke="black" d="M1884.34,-436.5C1577.06,-438.28 937.11,-442 649.28,-443.66"/>
<polygon fill="black" stroke="black" points="649.17,-440.16 639.19,-443.72 649.21,-447.16 649.17,-440.16"/>
</g>
<!-- Node0x5652f392e168&#45;&gt;Node0x5652f3943fb8 -->
<g id="edge56" class="edge">
<title>Node0x5652f392e168&#45;&gt;Node0x5652f3943fb8</title>
<path fill="none" stroke="black" d="M2228.54,-445.86C2358.77,-453.74 2535.93,-464.47 2658.52,-471.89"/>
<polygon fill="black" stroke="black" points="2658.53,-475.39 2668.73,-472.5 2658.96,-468.41 2658.53,-475.39"/>
</g>
<!-- Node0x5652f392e168&#45;&gt;Node0x5652f392f888 -->
<g id="edge58" class="edge">
<title>Node0x5652f392e168&#45;&gt;Node0x5652f392f888</title>
<path fill="none" stroke="black" d="M2228.51,-426.8C2245.87,-425.91 2263.49,-425.01 2280.83,-424.13"/>
<polygon fill="black" stroke="black" points="2281.19,-427.62 2291,-423.61 2280.83,-420.63 2281.19,-427.62"/>
</g>
<!-- Node0x5652f392e168&#45;&gt;Node0x5652f39399c8 -->
<g id="edge57" class="edge">
<title>Node0x5652f392e168&#45;&gt;Node0x5652f39399c8</title>
<path fill="none" stroke="black" d="M1968.27,-453.55C1926.26,-460.36 1874.51,-467.96 1825.76,-474.56"/>
<polygon fill="black" stroke="black" points="1825.17,-471.11 1815.73,-475.91 1826.1,-478.05 1825.17,-471.11"/>
</g>
<!-- Node0x5652f392e618&#45;&gt;Node0x5652f3943fb8 -->
<g id="edge59" class="edge">
<title>Node0x5652f392e618&#45;&gt;Node0x5652f3943fb8</title>
<path fill="none" stroke="black" d="M2210.13,-363.51C2327.7,-354.36 2493.22,-351.84 2633,-388.51 2684.08,-401.91 2736.44,-434.09 2768.83,-456.59"/>
<polygon fill="black" stroke="black" points="2766.83,-459.47 2777.02,-462.37 2770.87,-453.75 2766.83,-459.47"/>
</g>
<!-- Node0x5652f392e618&#45;&gt;Node0x5652f392f888 -->
<g id="edge61" class="edge">
<title>Node0x5652f392e618&#45;&gt;Node0x5652f392f888</title>
<path fill="none" stroke="black" d="M2233.09,-396.72C2248.82,-398.08 2264.74,-399.46 2280.43,-400.82"/>
<polygon fill="black" stroke="black" points="2280.44,-404.33 2290.7,-401.71 2281.04,-397.36 2280.44,-404.33"/>
</g>
<!-- Node0x5652f392e618&#45;&gt;Node0x5652f39399c8 -->
<g id="edge60" class="edge">
<title>Node0x5652f392e618&#45;&gt;Node0x5652f39399c8</title>
<path fill="none" stroke="black" d="M1961.47,-399.51C1934.79,-403.9 1905.94,-409.57 1880,-417.51 1863.08,-422.69 1860.33,-427.7 1844,-434.51 1814.6,-446.77 1781.98,-459.03 1752.75,-469.07"/>
<polygon fill="black" stroke="black" points="1751.32,-465.86 1742.98,-472.38 1753.57,-472.48 1751.32,-465.86"/>
</g>
<!-- Node0x5652f39313b8 -->
<g id="node19" class="node">
<title>Node0x5652f39313b8</title>
<polygon fill="none" stroke="black" points="2633,-173.51 2269,-173.51 2269,-137.51 2633,-137.51 2633,-173.51"/>
<text text-anchor="middle" x="2451" y="-151.81" font-family="Times,serif" font-size="14.00">{lib/libLLVMObject.a(RelocationResolver.cpp.o)}</text>
</g>
<!-- Node0x5652f39313b8&#45;&gt;Node0x5652f3943fb8 -->
<g id="edge22" class="edge">
<title>Node0x5652f39313b8&#45;&gt;Node0x5652f3943fb8</title>
<path fill="none" stroke="black" d="M2608.26,-173.62C2616.97,-177.51 2625.3,-182.1 2633,-187.51 2728.04,-254.3 2776.59,-393.18 2793.69,-452.58"/>
<polygon fill="black" stroke="black" points="2790.37,-453.7 2796.43,-462.39 2797.11,-451.81 2790.37,-453.7"/>
</g>
<!-- Node0x5652f3933438&#45;&gt;Node0x5652f39334d8 -->
<g id="edge44" class="edge">
<title>Node0x5652f3933438&#45;&gt;Node0x5652f39334d8</title>
<path fill="none" stroke="black" d="M165.86,-342.63C185.17,-394.99 248.3,-547.68 353,-625.51 446.3,-694.87 572.85,-725.81 677.81,-739.31"/>
<polygon fill="black" stroke="black" points="677.54,-742.81 687.89,-740.57 678.4,-735.86 677.54,-742.81"/>
</g>
<!-- Node0x5652f3933438&#45;&gt;Node0x5652f3943ce8 -->
<g id="edge43" class="edge">
<title>Node0x5652f3933438&#45;&gt;Node0x5652f3943ce8</title>
<path fill="none" stroke="black" d="M173.32,-342.65C202.89,-380.55 275.93,-469.24 353,-525.51 381.25,-546.13 416.21,-563.65 445.11,-576.35"/>
<polygon fill="black" stroke="black" points="444.1,-579.72 454.67,-580.47 446.87,-573.3 444.1,-579.72"/>
</g>
<!-- Node0x5652f3933438&#45;&gt;Node0x5652f3945188 -->
<g id="edge41" class="edge">
<title>Node0x5652f3933438&#45;&gt;Node0x5652f3945188</title>
<path fill="none" stroke="black" d="M211.07,-342.6C272.48,-364.15 374.94,-400.1 440.31,-423.04"/>
<polygon fill="black" stroke="black" points="439.47,-426.46 450.07,-426.46 441.79,-419.85 439.47,-426.46"/>
</g>
<!-- Node0x5652f3933438&#45;&gt;Node0x5652f3943fb8 -->
<g id="edge42" class="edge">
<title>Node0x5652f3933438&#45;&gt;Node0x5652f3943fb8</title>
<path fill="none" stroke="black" d="M178.37,-306.46C211.13,-276.19 281.86,-215.35 353,-183.51 568.98,-86.84 636.87,-71.51 873.5,-71.51 873.5,-71.51 873.5,-71.51 2057.5,-71.51 2313.46,-71.51 2421.7,50.96 2633,-93.51 2757.77,-178.82 2790.55,-378.05 2798.57,-452.11"/>
<polygon fill="black" stroke="black" points="2795.09,-452.51 2799.58,-462.1 2802.06,-451.8 2795.09,-452.51"/>
</g>
<!-- Node0x5652f3933438&#45;&gt;Node0x5652f392f888 -->
<g id="edge46" class="edge">
<title>Node0x5652f3933438&#45;&gt;Node0x5652f392f888</title>
<path fill="none" stroke="black" d="M175.23,-306.11C206.59,-276.58 280.14,-221.09 353,-199.51 495.85,-157.2 539.04,-190.18 688,-187.51 1376.76,-175.18 1568.01,-131.68 2233,-311.51 2302.02,-330.17 2377.37,-367.3 2418.63,-392.03"/>
<polygon fill="black" stroke="black" points="2417.03,-395.15 2427.38,-397.41 2420.7,-389.19 2417.03,-395.15"/>
</g>
<!-- Node0x5652f3933438&#45;&gt;Node0x5652f39399c8 -->
<g id="edge45" class="edge">
<title>Node0x5652f3933438&#45;&gt;Node0x5652f39399c8</title>
<path fill="none" stroke="black" d="M212.51,-306.43C352.7,-261.23 744.17,-151.89 1061,-223.51 1264.6,-269.53 1292.49,-344.82 1485,-425.51 1522.81,-441.36 1565.99,-457.14 1600.41,-469.19"/>
<polygon fill="black" stroke="black" points="1599.28,-472.5 1609.87,-472.48 1601.58,-465.89 1599.28,-472.5"/>
</g>
<!-- Node0x5652f392fe28&#45;&gt;Node0x5652f392f888 -->
<g id="edge63" class="edge">
<title>Node0x5652f392fe28&#45;&gt;Node0x5652f392f888</title>
<path fill="none" stroke="black" d="M1735.47,-380.42C1777.13,-370.6 1831.21,-359.46 1880,-354.51 2036.09,-338.67 2077.58,-333.08 2233,-354.51 2287.6,-362.04 2347.81,-379.75 2390.92,-394.16"/>
<polygon fill="black" stroke="black" points="2389.81,-397.47 2400.4,-397.36 2392.05,-390.84 2389.81,-397.47"/>
</g>
<!-- Node0x5652f3939a18&#45;&gt;Node0x5652f3943fb8 -->
<g id="edge62" class="edge">
<title>Node0x5652f3939a18&#45;&gt;Node0x5652f3943fb8</title>
<path fill="none" stroke="black" d="M2578.84,-622.85C2597.42,-618.49 2616.01,-612.84 2633,-605.51 2689.31,-581.21 2744.36,-534.65 2775.36,-505.73"/>
<polygon fill="black" stroke="black" points="2777.85,-508.19 2782.71,-498.78 2773.04,-503.1 2777.85,-508.19"/>
</g>
</g>
</svg>
