<?xml version="1.0" encoding="UTF-8" standalone="no"?>
<!DOCTYPE svg PUBLIC "-//W3C//DTD SVG 1.1//EN"
 "http://www.w3.org/Graphics/SVG/1.1/DTD/svg11.dtd">
<!-- Generated by graphviz version 2.43.0 (0)
 -->
<!-- Title: bin/llvm&#45;nm Pages: 1 -->
<svg width="1479pt" height="944pt"
 viewBox="0.00 0.00 1479.00 944.00" xmlns="http://www.w3.org/2000/svg" xmlns:xlink="http://www.w3.org/1999/xlink">
<g id="graph0" class="graph" transform="scale(1 1) rotate(0) translate(4 940)">
<title>bin/llvm&#45;nm</title>
<polygon fill="white" stroke="transparent" points="-4,4 -4,-940 1475,-940 1475,4 -4,4"/>
<text text-anchor="middle" x="735.5" y="-7.8" font-family="Times,serif" font-size="14.00">bin/llvm&#45;nm</text>
<!-- Node0x5639cbf22a28 -->
<g id="node1" class="node">
<title>Node0x5639cbf22a28</title>
<polygon fill="#ff7f7f" stroke="black" points="635,-899.5 635,-935.5 1029,-935.5 1029,-899.5 635,-899.5"/>
<text text-anchor="middle" x="832" y="-913.8" font-family="Times,serif" font-size="14.00">tools/llvm&#45;nm/CMakeFiles/llvm&#45;nm.dir/llvm&#45;nm.cpp.o</text>
</g>
<!-- Node0x5639cbf24008 -->
<g id="node2" class="node">
<title>Node0x5639cbf24008</title>
<polygon fill="#ff7f7f" stroke="black" points="953,-826.5 953,-862.5 1167,-862.5 1167,-826.5 953,-826.5"/>
<text text-anchor="middle" x="1060" y="-840.8" font-family="Times,serif" font-size="14.00">lib/libLLVMX86AsmParser.a</text>
</g>
<!-- Node0x5639cbf22a28&#45;&gt;Node0x5639cbf24008 -->
<g id="edge1" class="edge">
<title>Node0x5639cbf22a28&#45;&gt;Node0x5639cbf24008</title>
<path fill="none" stroke="#ff7f7f" d="M880.75,-899.49C912.42,-889.29 954.16,-876.27 989.41,-865.57"/>
<polygon fill="#ff7f7f" stroke="#ff7f7f" points="990.62,-868.86 999.17,-862.61 988.59,-862.16 990.62,-868.86"/>
</g>
<!-- Node0x5639cbf24558 -->
<g id="node3" class="node">
<title>Node0x5639cbf24558</title>
<polygon fill="#ff7f7f" stroke="black" points="1070.5,-96.5 1070.5,-132.5 1243.5,-132.5 1243.5,-96.5 1070.5,-96.5"/>
<text text-anchor="middle" x="1157" y="-110.8" font-family="Times,serif" font-size="14.00">lib/libLLVMX86Desc.a</text>
</g>
<!-- Node0x5639cbf22a28&#45;&gt;Node0x5639cbf24558 -->
<g id="edge2" class="edge">
<title>Node0x5639cbf22a28&#45;&gt;Node0x5639cbf24558</title>
<path fill="none" stroke="#ff7f7f" d="M1029.25,-908.47C1211.12,-895.48 1453,-861.49 1453,-772.5 1453,-772.5 1453,-772.5 1453,-259.5 1453,-168.39 1340.34,-134.84 1253.98,-122.53"/>
<polygon fill="#ff7f7f" stroke="#ff7f7f" points="1254.23,-119.04 1243.85,-121.17 1253.3,-125.97 1254.23,-119.04"/>
</g>
<!-- Node0x5639cbf24a08 -->
<g id="node4" class="node">
<title>Node0x5639cbf24a08</title>
<polygon fill="#ff7f7f" stroke="black" points="0,-23.5 0,-59.5 166,-59.5 166,-23.5 0,-23.5"/>
<text text-anchor="middle" x="83" y="-37.8" font-family="Times,serif" font-size="14.00">lib/libLLVMX86Info.a</text>
</g>
<!-- Node0x5639cbf22a28&#45;&gt;Node0x5639cbf24a08 -->
<g id="edge3" class="edge">
<title>Node0x5639cbf22a28&#45;&gt;Node0x5639cbf24a08</title>
<path fill="none" stroke="#ff7f7f" d="M634.61,-911.08C426.46,-904.02 121.99,-889.34 74,-863 30.13,-838.92 7,-822.55 7,-772.5 7,-772.5 7,-772.5 7,-186.5 7,-140.39 37.86,-94.57 60.25,-67.4"/>
<polygon fill="#ff7f7f" stroke="#ff7f7f" points="63.08,-69.47 66.88,-59.59 57.74,-64.94 63.08,-69.47"/>
</g>
<!-- Node0x5639cbf22c08 -->
<g id="node5" class="node">
<title>Node0x5639cbf22c08</title>
<polygon fill="#ff7f7f" stroke="black" points="525,-169.5 525,-205.5 669,-205.5 669,-169.5 525,-169.5"/>
<text text-anchor="middle" x="597" y="-183.8" font-family="Times,serif" font-size="14.00">lib/libLLVMCore.a</text>
</g>
<!-- Node0x5639cbf22a28&#45;&gt;Node0x5639cbf22c08 -->
<g id="edge4" class="edge">
<title>Node0x5639cbf22a28&#45;&gt;Node0x5639cbf22c08</title>
<path fill="none" stroke="#ff7f7f" d="M634.68,-912.98C468.75,-907.77 245.81,-894.89 163,-863 101.32,-839.25 45,-838.59 45,-772.5 45,-772.5 45,-772.5 45,-478.5 45,-326.51 156.58,-311 292,-242 311.39,-232.12 431.07,-212.42 514.67,-199.88"/>
<polygon fill="#ff7f7f" stroke="#ff7f7f" points="515.31,-203.32 524.68,-198.38 514.27,-196.4 515.31,-203.32"/>
</g>
<!-- Node0x5639cbf23608 -->
<g id="node6" class="node">
<title>Node0x5639cbf23608</title>
<polygon fill="#ff7f7f" stroke="black" points="851.5,-534.5 851.5,-570.5 1008.5,-570.5 1008.5,-534.5 851.5,-534.5"/>
<text text-anchor="middle" x="930" y="-548.8" font-family="Times,serif" font-size="14.00">lib/libLLVMObject.a</text>
</g>
<!-- Node0x5639cbf22a28&#45;&gt;Node0x5639cbf23608 -->
<g id="edge5" class="edge">
<title>Node0x5639cbf22a28&#45;&gt;Node0x5639cbf23608</title>
<path fill="none" stroke="#ff7f7f" d="M833.52,-899.48C844.51,-841.5 895.61,-651.37 918.96,-580.47"/>
<polygon fill="#ff7f7f" stroke="#ff7f7f" points="922.31,-581.5 922.2,-570.91 915.68,-579.26 922.31,-581.5"/>
</g>
<!-- Node0x5639cbf23158 -->
<g id="node7" class="node">
<title>Node0x5639cbf23158</title>
<polygon fill="none" stroke="black" points="528,-826.5 528,-862.5 710,-862.5 710,-826.5 528,-826.5"/>
<text text-anchor="middle" x="619" y="-840.8" font-family="Times,serif" font-size="14.00">lib/libLLVMDemangle.a</text>
</g>
<!-- Node0x5639cbf22a28&#45;&gt;Node0x5639cbf23158 -->
<g id="edge6" class="edge">
<title>Node0x5639cbf22a28&#45;&gt;Node0x5639cbf23158</title>
<path fill="none" stroke="black" d="M780.98,-899.49C750.64,-889.38 711.97,-876.49 680.02,-865.84"/>
<polygon fill="black" stroke="black" points="680.93,-862.46 670.34,-862.61 678.72,-869.1 680.93,-862.46"/>
</g>
<!-- Node0x5639cbf21538 -->
<g id="node8" class="node">
<title>Node0x5639cbf21538</title>
<polygon fill="#ff7f7f" stroke="black" points="636,-607.5 636,-643.5 804,-643.5 804,-607.5 636,-607.5"/>
<text text-anchor="middle" x="720" y="-621.8" font-family="Times,serif" font-size="14.00">lib/libLLVMSupport.a</text>
</g>
<!-- Node0x5639cbf22a28&#45;&gt;Node0x5639cbf21538 -->
<g id="edge7" class="edge">
<title>Node0x5639cbf22a28&#45;&gt;Node0x5639cbf21538</title>
<path fill="none" stroke="#ff7f7f" d="M823.58,-899.24C810.11,-859.31 784.83,-757.99 747,-680 742.41,-670.53 736.33,-660.8 730.93,-652.28"/>
<polygon fill="#ff7f7f" stroke="#ff7f7f" points="733.73,-650.17 725.43,-643.58 727.82,-653.9 733.73,-650.17"/>
</g>
<!-- Node0x5639cbf21808 -->
<g id="node9" class="node">
<title>Node0x5639cbf21808</title>
<polygon fill="#ff7f7f" stroke="black" points="761,-242.5 761,-278.5 927,-278.5 927,-242.5 761,-242.5"/>
<text text-anchor="middle" x="844" y="-256.8" font-family="Times,serif" font-size="14.00">lib/libLLVMTextAPI.a</text>
</g>
<!-- Node0x5639cbf22a28&#45;&gt;Node0x5639cbf21808 -->
<g id="edge8" class="edge">
<title>Node0x5639cbf22a28&#45;&gt;Node0x5639cbf21808</title>
<path fill="none" stroke="#ff7f7f" d="M1029.29,-902.46C1188.82,-885.55 1387,-849.18 1387,-772.5 1387,-772.5 1387,-772.5 1387,-697.5 1387,-456.21 1058.17,-327.66 912.25,-281.55"/>
<polygon fill="#ff7f7f" stroke="#ff7f7f" points="913.07,-278.14 902.48,-278.51 910.99,-284.83 913.07,-278.14"/>
</g>
<!-- Node0x5639cbf24008&#45;&gt;Node0x5639cbf22a28 -->
<g id="edge9" class="edge">
<title>Node0x5639cbf24008&#45;&gt;Node0x5639cbf22a28</title>
<path fill="none" stroke="#ff7f7f" d="M1010.91,-862.61C979.17,-872.83 937.43,-885.86 902.22,-896.55"/>
<polygon fill="#ff7f7f" stroke="#ff7f7f" points="901.03,-893.25 892.47,-899.49 903.06,-899.95 901.03,-893.25"/>
</g>
<!-- Node0x5639cbf24008&#45;&gt;Node0x5639cbf24558 -->
<g id="edge10" class="edge">
<title>Node0x5639cbf24008&#45;&gt;Node0x5639cbf24558</title>
<path fill="none" stroke="#ff7f7f" d="M1097.33,-826.46C1116.7,-817.54 1139.89,-805.26 1158,-790 1311.29,-660.82 1397,-607.96 1397,-407.5 1397,-407.5 1397,-407.5 1397,-259.5 1397,-188.46 1320.11,-151.91 1253.33,-133.45"/>
<polygon fill="#ff7f7f" stroke="#ff7f7f" points="1254.13,-130.04 1243.56,-130.86 1252.33,-136.8 1254.13,-130.04"/>
</g>
<!-- Node0x5639cbf24008&#45;&gt;Node0x5639cbf24a08 -->
<g id="edge11" class="edge">
<title>Node0x5639cbf24008&#45;&gt;Node0x5639cbf24a08</title>
<path fill="none" stroke="#ff7f7f" d="M952.61,-837.05C717.29,-821.48 177,-777.26 177,-699.5 177,-699.5 177,-699.5 177,-624.5 177,-538.67 45,-347.33 45,-261.5 45,-261.5 45,-261.5 45,-186.5 45,-144.41 60.37,-97.61 71.56,-69.12"/>
<polygon fill="#ff7f7f" stroke="#ff7f7f" points="74.81,-70.43 75.31,-59.84 68.32,-67.8 74.81,-70.43"/>
</g>
<!-- Node0x5639cbf24008&#45;&gt;Node0x5639cbf21538 -->
<g id="edge12" class="edge">
<title>Node0x5639cbf24008&#45;&gt;Node0x5639cbf21538</title>
<path fill="none" stroke="#ff7f7f" d="M992.43,-826.39C966.04,-817.89 936.34,-805.95 912,-790 855.73,-753.12 860.32,-722.3 808,-680 793.7,-668.44 776.7,-657.54 761.46,-648.63"/>
<polygon fill="#ff7f7f" stroke="#ff7f7f" points="763.14,-645.56 752.73,-643.62 759.66,-651.63 763.14,-645.56"/>
</g>
<!-- Node0x5639cbf22208 -->
<g id="node10" class="node">
<title>Node0x5639cbf22208</title>
<polygon fill="#ff7f7f" stroke="black" points="1077,-461.5 1077,-497.5 1257,-497.5 1257,-461.5 1077,-461.5"/>
<text text-anchor="middle" x="1167" y="-475.8" font-family="Times,serif" font-size="14.00">lib/libLLVMMCParser.a</text>
</g>
<!-- Node0x5639cbf24008&#45;&gt;Node0x5639cbf22208 -->
<g id="edge13" class="edge">
<title>Node0x5639cbf24008&#45;&gt;Node0x5639cbf22208</title>
<path fill="none" stroke="#ff7f7f" d="M1087.49,-826.33C1101.26,-817.51 1116.77,-805.35 1126,-790 1180.79,-698.89 1170.25,-564.94 1166.54,-507.87"/>
<polygon fill="#ff7f7f" stroke="#ff7f7f" points="1170.02,-507.59 1165.92,-497.83 1163.04,-508.02 1170.02,-507.59"/>
</g>
<!-- Node0x5639cbf1fff8 -->
<g id="node11" class="node">
<title>Node0x5639cbf1fff8</title>
<polygon fill="#ff7f7f" stroke="black" points="991.5,-753.5 991.5,-789.5 1126.5,-789.5 1126.5,-753.5 991.5,-753.5"/>
<text text-anchor="middle" x="1059" y="-767.8" font-family="Times,serif" font-size="14.00">lib/libLLVMMC.a</text>
</g>
<!-- Node0x5639cbf24008&#45;&gt;Node0x5639cbf1fff8 -->
<g id="edge14" class="edge">
<title>Node0x5639cbf24008&#45;&gt;Node0x5639cbf1fff8</title>
<path fill="none" stroke="#ff7f7f" d="M1053.88,-826.31C1052.93,-818.29 1052.56,-808.55 1052.8,-799.57"/>
<polygon fill="#ff7f7f" stroke="#ff7f7f" points="1056.3,-799.71 1053.38,-789.53 1049.31,-799.31 1056.3,-799.71"/>
</g>
<!-- Node0x5639cbf24558&#45;&gt;Node0x5639cbf22a28 -->
<g id="edge15" class="edge">
<title>Node0x5639cbf24558&#45;&gt;Node0x5639cbf22a28</title>
<path fill="none" stroke="#ff7f7f" d="M1243.91,-119.67C1336.9,-129.21 1471,-160.1 1471,-259.5 1471,-772.5 1471,-772.5 1471,-772.5 1471,-862.01 1226.24,-895.88 1039.67,-908.7"/>
<polygon fill="#ff7f7f" stroke="#ff7f7f" points="1039.17,-905.22 1029.43,-909.39 1039.64,-912.21 1039.17,-905.22"/>
</g>
<!-- Node0x5639cbf24558&#45;&gt;Node0x5639cbf24008 -->
<g id="edge20" class="edge">
<title>Node0x5639cbf24558&#45;&gt;Node0x5639cbf24008</title>
<path fill="none" stroke="#ff7f7f" d="M1243.65,-127.58C1318.64,-143.67 1415,-179.97 1415,-259.5 1415,-407.5 1415,-407.5 1415,-407.5 1415,-607.96 1329.29,-660.82 1176,-790 1160.51,-803.05 1141.3,-813.92 1122.94,-822.38"/>
<polygon fill="#ff7f7f" stroke="#ff7f7f" points="1121.46,-819.21 1113.74,-826.46 1124.3,-825.61 1121.46,-819.21"/>
</g>
<!-- Node0x5639cbf24558&#45;&gt;Node0x5639cbf24a08 -->
<g id="edge18" class="edge">
<title>Node0x5639cbf24558&#45;&gt;Node0x5639cbf24a08</title>
<path fill="none" stroke="#ff7f7f" d="M1070.47,-107.78C871.29,-94.61 381.73,-62.25 176.22,-48.66"/>
<polygon fill="#ff7f7f" stroke="#ff7f7f" points="176.26,-45.16 166.05,-47.99 175.8,-52.14 176.26,-45.16"/>
</g>
<!-- Node0x5639cbf24558&#45;&gt;Node0x5639cbf21538 -->
<g id="edge16" class="edge">
<title>Node0x5639cbf24558&#45;&gt;Node0x5639cbf21538</title>
<path fill="none" stroke="#ff7f7f" d="M1102.2,-132.6C1079.77,-140.96 1054.6,-152.81 1035,-169 952.79,-236.91 836.07,-485.02 773,-571 765.96,-580.6 757.78,-590.78 749.88,-599.65"/>
<polygon fill="#ff7f7f" stroke="#ff7f7f" points="747.25,-597.33 743.05,-607.06 752.4,-602.08 747.25,-597.33"/>
</g>
<!-- Node0x5639cbf24558&#45;&gt;Node0x5639cbf1fff8 -->
<g id="edge17" class="edge">
<title>Node0x5639cbf24558&#45;&gt;Node0x5639cbf1fff8</title>
<path fill="none" stroke="#ff7f7f" d="M1224.04,-132.56C1282.9,-152.71 1359,-192.3 1359,-259.5 1359,-407.5 1359,-407.5 1359,-407.5 1359,-568.04 1183.59,-698.11 1100.93,-748.25"/>
<polygon fill="#ff7f7f" stroke="#ff7f7f" points="1099.07,-745.28 1092.28,-753.41 1102.66,-751.29 1099.07,-745.28"/>
</g>
<!-- Node0x5639cbf21d58 -->
<g id="node12" class="node">
<title>Node0x5639cbf21d58</title>
<polygon fill="none" stroke="black" points="1042,-23.5 1042,-59.5 1272,-59.5 1272,-23.5 1042,-23.5"/>
<text text-anchor="middle" x="1157" y="-37.8" font-family="Times,serif" font-size="14.00">lib/libLLVMMCDisassembler.a</text>
</g>
<!-- Node0x5639cbf24558&#45;&gt;Node0x5639cbf21d58 -->
<g id="edge19" class="edge">
<title>Node0x5639cbf24558&#45;&gt;Node0x5639cbf21d58</title>
<path fill="none" stroke="black" d="M1157,-96.31C1157,-88.29 1157,-78.55 1157,-69.57"/>
<polygon fill="black" stroke="black" points="1160.5,-69.53 1157,-59.53 1153.5,-69.53 1160.5,-69.53"/>
</g>
<!-- Node0x5639cbf227f8 -->
<g id="node13" class="node">
<title>Node0x5639cbf227f8</title>
<polygon fill="#ff7f7f" stroke="black" points="538.5,-680.5 538.5,-716.5 747.5,-716.5 747.5,-680.5 538.5,-680.5"/>
<text text-anchor="middle" x="643" y="-694.8" font-family="Times,serif" font-size="14.00">lib/libLLVMBinaryFormat.a</text>
</g>
<!-- Node0x5639cbf24558&#45;&gt;Node0x5639cbf227f8 -->
<g id="edge21" class="edge">
<title>Node0x5639cbf24558&#45;&gt;Node0x5639cbf227f8</title>
<path fill="none" stroke="#ff7f7f" d="M1070.25,-116.06C946.13,-118.37 711.28,-128.34 516,-169 417.21,-189.57 393.67,-202.06 301,-242 237.28,-269.46 198.8,-255.56 163,-315 121.04,-384.67 122.15,-427.67 163,-498 195.9,-554.63 358.09,-619.93 419,-644 455.86,-658.57 497.77,-669.88 535.29,-678.27"/>
<polygon fill="#ff7f7f" stroke="#ff7f7f" points="534.71,-681.72 545.23,-680.45 536.21,-674.89 534.71,-681.72"/>
</g>
<!-- Node0x5639cbf24a08&#45;&gt;Node0x5639cbf21538 -->
<g id="edge22" class="edge">
<title>Node0x5639cbf24a08&#45;&gt;Node0x5639cbf21538</title>
<path fill="none" stroke="#ff7f7f" d="M86.47,-59.67C98.58,-116.46 143.28,-301.62 234,-425 295.22,-508.27 320.89,-528.27 415,-571 481.54,-601.21 563.41,-614.42 625.57,-620.17"/>
<polygon fill="#ff7f7f" stroke="#ff7f7f" points="625.49,-623.68 635.76,-621.06 626.1,-616.7 625.49,-623.68"/>
</g>
<!-- Node0x5639cbf22c08&#45;&gt;Node0x5639cbf22a28 -->
<g id="edge24" class="edge">
<title>Node0x5639cbf22c08&#45;&gt;Node0x5639cbf22a28</title>
<path fill="none" stroke="#ff7f7f" d="M524.89,-200.32C446.25,-212.88 329.16,-232.24 310,-242 174.58,-311 63,-326.51 63,-478.5 63,-772.5 63,-772.5 63,-772.5 63,-838.59 119.32,-839.25 181,-863 259.73,-893.32 465.14,-906.46 624.39,-912.15"/>
<polygon fill="#ff7f7f" stroke="#ff7f7f" points="624.7,-915.66 634.81,-912.51 624.94,-908.67 624.7,-915.66"/>
</g>
<!-- Node0x5639cbf22c08&#45;&gt;Node0x5639cbf24558 -->
<g id="edge25" class="edge">
<title>Node0x5639cbf22c08&#45;&gt;Node0x5639cbf24558</title>
<path fill="none" stroke="#ff7f7f" d="M669.06,-177.36C768.61,-164.74 948.48,-141.94 1059.83,-127.82"/>
<polygon fill="#ff7f7f" stroke="#ff7f7f" points="1060.57,-131.25 1070.05,-126.52 1059.69,-124.31 1060.57,-131.25"/>
</g>
<!-- Node0x5639cbf22c08&#45;&gt;Node0x5639cbf23608 -->
<g id="edge29" class="edge">
<title>Node0x5639cbf22c08&#45;&gt;Node0x5639cbf23608</title>
<path fill="none" stroke="#ff7f7f" d="M643.03,-205.71C662,-214.97 683.27,-227.47 700,-242 801.73,-330.39 889.41,-467.81 919.45,-525.06"/>
<polygon fill="#ff7f7f" stroke="#ff7f7f" points="916.43,-526.84 924.08,-534.17 922.67,-523.67 916.43,-526.84"/>
</g>
<!-- Node0x5639cbf22c08&#45;&gt;Node0x5639cbf21538 -->
<g id="edge23" class="edge">
<title>Node0x5639cbf22c08&#45;&gt;Node0x5639cbf21538</title>
<path fill="none" stroke="#ff7f7f" d="M621.33,-205.78C646.55,-228.47 683.94,-270.65 701,-315 738.86,-413.43 735.23,-541.99 727.39,-597.28"/>
<polygon fill="#ff7f7f" stroke="#ff7f7f" points="723.9,-596.9 725.77,-607.33 730.81,-598.01 723.9,-596.9"/>
</g>
<!-- Node0x5639cbf22c08&#45;&gt;Node0x5639cbf227f8 -->
<g id="edge26" class="edge">
<title>Node0x5639cbf22c08&#45;&gt;Node0x5639cbf227f8</title>
<path fill="none" stroke="#ff7f7f" d="M524.77,-201.84C402.17,-228.25 172.35,-296.07 234,-425 300.79,-564.68 478.39,-643.26 576.15,-677.17"/>
<polygon fill="#ff7f7f" stroke="#ff7f7f" points="575.05,-680.49 585.64,-680.41 577.31,-673.87 575.05,-680.49"/>
</g>
<!-- Node0x5639cbf20458 -->
<g id="node14" class="node">
<title>Node0x5639cbf20458</title>
<polygon fill="#ff7f7f" stroke="black" points="510.5,-315.5 510.5,-351.5 683.5,-351.5 683.5,-315.5 510.5,-315.5"/>
<text text-anchor="middle" x="597" y="-329.8" font-family="Times,serif" font-size="14.00">lib/libLLVMRemarks.a</text>
</g>
<!-- Node0x5639cbf22c08&#45;&gt;Node0x5639cbf20458 -->
<g id="edge27" class="edge">
<title>Node0x5639cbf22c08&#45;&gt;Node0x5639cbf20458</title>
<path fill="none" stroke="#ff7f7f" d="M601.55,-205.56C604.16,-230.23 604.45,-276.11 602.41,-305.43"/>
<polygon fill="#ff7f7f" stroke="#ff7f7f" points="598.92,-305.15 601.55,-315.42 605.9,-305.75 598.92,-305.15"/>
</g>
<!-- Node0x5639cbf20958 -->
<g id="node15" class="node">
<title>Node0x5639cbf20958</title>
<polygon fill="#ff7f7f" stroke="black" points="387.5,-461.5 387.5,-497.5 568.5,-497.5 568.5,-461.5 387.5,-461.5"/>
<text text-anchor="middle" x="478" y="-475.8" font-family="Times,serif" font-size="14.00">lib/libLLVMBitReader.a</text>
</g>
<!-- Node0x5639cbf22c08&#45;&gt;Node0x5639cbf20958 -->
<g id="edge28" class="edge">
<title>Node0x5639cbf22c08&#45;&gt;Node0x5639cbf20958</title>
<path fill="none" stroke="#ff7f7f" d="M585.27,-205.88C565.73,-228.68 528.33,-270.97 510,-315 504.87,-327.32 495.04,-408.17 486.6,-451.38"/>
<polygon fill="#ff7f7f" stroke="#ff7f7f" points="483.16,-450.73 484.54,-461.24 490.01,-452.16 483.16,-450.73"/>
</g>
<!-- Node0x5639cbf23608&#45;&gt;Node0x5639cbf22a28 -->
<g id="edge30" class="edge">
<title>Node0x5639cbf23608&#45;&gt;Node0x5639cbf22a28</title>
<path fill="none" stroke="#ff7f7f" d="M928.4,-570.91C917.24,-629.47 866.11,-819.62 842.88,-890"/>
<polygon fill="#ff7f7f" stroke="#ff7f7f" points="839.56,-888.88 839.67,-899.48 846.19,-891.13 839.56,-888.88"/>
</g>
<!-- Node0x5639cbf23608&#45;&gt;Node0x5639cbf24008 -->
<g id="edge37" class="edge">
<title>Node0x5639cbf23608&#45;&gt;Node0x5639cbf24008</title>
<path fill="none" stroke="#ff7f7f" d="M929.63,-570.61C929.55,-611.99 934.31,-719.23 982,-790 990.43,-802.5 1002.84,-812.92 1015.3,-821.14"/>
<polygon fill="#ff7f7f" stroke="#ff7f7f" points="1013.54,-824.17 1023.88,-826.47 1017.24,-818.22 1013.54,-824.17"/>
</g>
<!-- Node0x5639cbf23608&#45;&gt;Node0x5639cbf24558 -->
<g id="edge36" class="edge">
<title>Node0x5639cbf23608&#45;&gt;Node0x5639cbf24558</title>
<path fill="none" stroke="#ff7f7f" d="M947.58,-534.19C971.4,-508.79 1011,-458.84 1011,-407.5 1011,-407.5 1011,-407.5 1011,-259.5 1011,-202.83 1067.45,-160.96 1110.14,-137.4"/>
<polygon fill="#ff7f7f" stroke="#ff7f7f" points="1111.86,-140.45 1119.02,-132.65 1108.55,-134.28 1111.86,-140.45"/>
</g>
<!-- Node0x5639cbf23608&#45;&gt;Node0x5639cbf22c08 -->
<g id="edge34" class="edge">
<title>Node0x5639cbf23608&#45;&gt;Node0x5639cbf22c08</title>
<path fill="none" stroke="#ff7f7f" d="M916.02,-534.17C881.5,-483.87 789.62,-335.5 682,-242 668.15,-229.97 651.18,-219.32 635.98,-210.76"/>
<polygon fill="#ff7f7f" stroke="#ff7f7f" points="637.25,-207.46 626.8,-205.71 633.87,-213.6 637.25,-207.46"/>
</g>
<!-- Node0x5639cbf23608&#45;&gt;Node0x5639cbf21538 -->
<g id="edge31" class="edge">
<title>Node0x5639cbf23608&#45;&gt;Node0x5639cbf21538</title>
<path fill="none" stroke="#ff7f7f" d="M885.25,-570.61C856.35,-580.75 818.32,-593.64 785.99,-604.27"/>
<polygon fill="#ff7f7f" stroke="#ff7f7f" points="784.57,-601.05 776.16,-607.49 786.75,-607.71 784.57,-601.05"/>
</g>
<!-- Node0x5639cbf23608&#45;&gt;Node0x5639cbf21808 -->
<g id="edge39" class="edge">
<title>Node0x5639cbf23608&#45;&gt;Node0x5639cbf21808</title>
<path fill="none" stroke="#ff7f7f" d="M925.47,-534.32C924.98,-515.99 926.66,-486.18 922,-461 909.78,-395 872.63,-324.55 854.04,-287.59"/>
<polygon fill="#ff7f7f" stroke="#ff7f7f" points="857.11,-285.91 849.53,-278.51 850.84,-289.02 857.11,-285.91"/>
</g>
<!-- Node0x5639cbf23608&#45;&gt;Node0x5639cbf22208 -->
<g id="edge38" class="edge">
<title>Node0x5639cbf23608&#45;&gt;Node0x5639cbf22208</title>
<path fill="none" stroke="#ff7f7f" d="M980.91,-534.49C1014.01,-524.25 1057.63,-511.16 1094.34,-500.43"/>
<polygon fill="#ff7f7f" stroke="#ff7f7f" points="1095.38,-503.77 1104,-497.61 1093.42,-497.05 1095.38,-503.77"/>
</g>
<!-- Node0x5639cbf23608&#45;&gt;Node0x5639cbf1fff8 -->
<g id="edge33" class="edge">
<title>Node0x5639cbf23608&#45;&gt;Node0x5639cbf1fff8</title>
<path fill="none" stroke="#ff7f7f" d="M944.12,-570.75C970.24,-608.65 1024.43,-699.41 1048.04,-744.36"/>
<polygon fill="#ff7f7f" stroke="#ff7f7f" points="1045.04,-746.17 1052.72,-753.47 1051.27,-742.98 1045.04,-746.17"/>
</g>
<!-- Node0x5639cbf23608&#45;&gt;Node0x5639cbf227f8 -->
<g id="edge32" class="edge">
<title>Node0x5639cbf23608&#45;&gt;Node0x5639cbf227f8</title>
<path fill="none" stroke="#ff7f7f" d="M905.28,-570.58C890.72,-580.84 872.05,-594.33 856,-607 836.21,-622.62 835.03,-631.74 813,-644 787.24,-658.33 757.11,-669.4 729.43,-677.66"/>
<polygon fill="#ff7f7f" stroke="#ff7f7f" points="728.38,-674.32 719.75,-680.46 730.33,-681.04 728.38,-674.32"/>
</g>
<!-- Node0x5639cbf23608&#45;&gt;Node0x5639cbf20958 -->
<g id="edge35" class="edge">
<title>Node0x5639cbf23608&#45;&gt;Node0x5639cbf20958</title>
<path fill="none" stroke="#ff7f7f" d="M851.49,-539.97C775.72,-528.37 660.78,-510.35 578.4,-497.19"/>
<polygon fill="#ff7f7f" stroke="#ff7f7f" points="578.95,-493.73 568.52,-495.61 577.84,-500.64 578.95,-493.73"/>
</g>
<!-- Node0x5639cbf21538&#45;&gt;Node0x5639cbf22a28 -->
<g id="edge40" class="edge">
<title>Node0x5639cbf21538&#45;&gt;Node0x5639cbf22a28</title>
<path fill="none" stroke="#ff7f7f" d="M741.18,-643.58C749.75,-653.73 758.75,-667.11 765,-680 799.95,-752.05 824.18,-844.01 831.42,-889.09"/>
<polygon fill="#ff7f7f" stroke="#ff7f7f" points="828,-889.83 832.87,-899.24 834.93,-888.85 828,-889.83"/>
</g>
<!-- Node0x5639cbf21538&#45;&gt;Node0x5639cbf24558 -->
<g id="edge43" class="edge">
<title>Node0x5639cbf21538&#45;&gt;Node0x5639cbf24558</title>
<path fill="none" stroke="#ff7f7f" d="M727.3,-607.06C734.89,-596.79 745.89,-583.41 755,-571 818.07,-485.02 934.79,-236.91 1017,-169 1034,-154.96 1055.18,-144.18 1075.91,-136.12"/>
<polygon fill="#ff7f7f" stroke="#ff7f7f" points="1077.23,-139.36 1085.39,-132.6 1074.79,-132.8 1077.23,-139.36"/>
</g>
<!-- Node0x5639cbf21538&#45;&gt;Node0x5639cbf22c08 -->
<g id="edge41" class="edge">
<title>Node0x5639cbf21538&#45;&gt;Node0x5639cbf22c08</title>
<path fill="none" stroke="#ff7f7f" d="M717.5,-607.33C716.56,-559.26 723.38,-419.99 683,-315 667.74,-275.33 636.22,-237.39 615.65,-213.59"/>
<polygon fill="#ff7f7f" stroke="#ff7f7f" points="618.08,-211.05 608.88,-205.78 612.79,-215.63 618.08,-211.05"/>
</g>
<!-- Node0x5639cbf21538&#45;&gt;Node0x5639cbf23608 -->
<g id="edge42" class="edge">
<title>Node0x5639cbf21538&#45;&gt;Node0x5639cbf23608</title>
<path fill="none" stroke="#ff7f7f" d="M764.44,-607.49C793.28,-597.38 831.3,-584.49 863.67,-573.84"/>
<polygon fill="#ff7f7f" stroke="#ff7f7f" points="865.1,-577.05 873.51,-570.61 862.92,-570.4 865.1,-577.05"/>
</g>
<!-- Node0x5639cbf21808&#45;&gt;Node0x5639cbf22a28 -->
<g id="edge45" class="edge">
<title>Node0x5639cbf21808&#45;&gt;Node0x5639cbf22a28</title>
<path fill="none" stroke="#ff7f7f" d="M911.62,-278.51C1060.89,-321.81 1405,-450.66 1405,-697.5 1405,-772.5 1405,-772.5 1405,-772.5 1405,-849.83 1203.42,-886.17 1039.37,-902.89"/>
<polygon fill="#ff7f7f" stroke="#ff7f7f" points="1038.71,-899.43 1029.11,-903.91 1039.41,-906.4 1038.71,-899.43"/>
</g>
<!-- Node0x5639cbf21808&#45;&gt;Node0x5639cbf24558 -->
<g id="edge48" class="edge">
<title>Node0x5639cbf21808&#45;&gt;Node0x5639cbf24558</title>
<path fill="none" stroke="#ff7f7f" d="M857.53,-242.4C874.73,-221.84 906.38,-187.77 941,-169 977.48,-149.22 1021.37,-136.63 1060.03,-128.66"/>
<polygon fill="#ff7f7f" stroke="#ff7f7f" points="1061.13,-132.01 1070.26,-126.64 1059.77,-125.15 1061.13,-132.01"/>
</g>
<!-- Node0x5639cbf21808&#45;&gt;Node0x5639cbf22c08 -->
<g id="edge47" class="edge">
<title>Node0x5639cbf21808&#45;&gt;Node0x5639cbf22c08</title>
<path fill="none" stroke="#ff7f7f" d="M784.84,-242.49C749.2,-232.25 703.65,-219.16 666.33,-208.43"/>
<polygon fill="#ff7f7f" stroke="#ff7f7f" points="667.11,-205.01 656.54,-205.61 665.18,-211.74 667.11,-205.01"/>
</g>
<!-- Node0x5639cbf21808&#45;&gt;Node0x5639cbf23608 -->
<g id="edge46" class="edge">
<title>Node0x5639cbf21808&#45;&gt;Node0x5639cbf23608</title>
<path fill="none" stroke="#ff7f7f" d="M859.76,-278.51C883.79,-311.92 926.69,-389.11 940,-461 943.9,-482.05 943.36,-506.33 940.65,-524.44"/>
<polygon fill="#ff7f7f" stroke="#ff7f7f" points="937.2,-523.85 938.82,-534.32 944.09,-525.12 937.2,-523.85"/>
</g>
<!-- Node0x5639cbf21808&#45;&gt;Node0x5639cbf21538 -->
<g id="edge44" class="edge">
<title>Node0x5639cbf21808&#45;&gt;Node0x5639cbf21538</title>
<path fill="none" stroke="#ff7f7f" d="M838.96,-278.8C825.04,-326.08 784.4,-461.27 743,-571 739.63,-579.93 735.62,-589.56 731.89,-598.15"/>
<polygon fill="#ff7f7f" stroke="#ff7f7f" points="728.68,-596.75 727.86,-607.31 735.09,-599.57 728.68,-596.75"/>
</g>
<!-- Node0x5639cbf22208&#45;&gt;Node0x5639cbf22a28 -->
<g id="edge49" class="edge">
<title>Node0x5639cbf22208&#45;&gt;Node0x5639cbf22a28</title>
<path fill="none" stroke="#ff7f7f" d="M1180.43,-497.75C1187.38,-507.74 1195.19,-520.91 1199,-534 1239.96,-674.74 1277.52,-757.27 1176,-863 1155.43,-884.42 1099.95,-897.28 1039.41,-905"/>
<polygon fill="#ff7f7f" stroke="#ff7f7f" points="1038.75,-901.55 1029.25,-906.24 1039.6,-908.5 1038.75,-901.55"/>
</g>
<!-- Node0x5639cbf22208&#45;&gt;Node0x5639cbf24008 -->
<g id="edge50" class="edge">
<title>Node0x5639cbf22208&#45;&gt;Node0x5639cbf24008</title>
<path fill="none" stroke="#ff7f7f" d="M1174.06,-497.83C1186.62,-547.49 1202.32,-693.02 1144,-790 1136.5,-802.47 1124.85,-812.84 1112.55,-821.02"/>
<polygon fill="#ff7f7f" stroke="#ff7f7f" points="1110.64,-818.09 1103.98,-826.33 1114.32,-824.04 1110.64,-818.09"/>
</g>
<!-- Node0x5639cbf22208&#45;&gt;Node0x5639cbf24558 -->
<g id="edge51" class="edge">
<title>Node0x5639cbf22208&#45;&gt;Node0x5639cbf24558</title>
<path fill="none" stroke="#ff7f7f" d="M1200.97,-461.47C1241.25,-438.58 1303,-393.82 1303,-334.5 1303,-334.5 1303,-334.5 1303,-259.5 1303,-202.83 1246.55,-160.96 1203.86,-137.4"/>
<polygon fill="#ff7f7f" stroke="#ff7f7f" points="1205.45,-134.28 1194.98,-132.65 1202.14,-140.45 1205.45,-134.28"/>
</g>
<!-- Node0x5639cbf22208&#45;&gt;Node0x5639cbf23608 -->
<g id="edge52" class="edge">
<title>Node0x5639cbf22208&#45;&gt;Node0x5639cbf23608</title>
<path fill="none" stroke="#ff7f7f" d="M1115.74,-497.61C1082.57,-507.88 1038.94,-520.97 1002.28,-531.68"/>
<polygon fill="#ff7f7f" stroke="#ff7f7f" points="1001.25,-528.34 992.63,-534.49 1003.21,-535.06 1001.25,-528.34"/>
</g>
<!-- Node0x5639cbf22208&#45;&gt;Node0x5639cbf21538 -->
<g id="edge53" class="edge">
<title>Node0x5639cbf22208&#45;&gt;Node0x5639cbf21538</title>
<path fill="none" stroke="#ff7f7f" d="M1144.47,-497.74C1116.24,-518.44 1065.66,-552.65 1017,-571 951.66,-595.64 873.84,-609.12 814.26,-616.39"/>
<polygon fill="#ff7f7f" stroke="#ff7f7f" points="813.63,-612.94 804.11,-617.59 814.45,-619.89 813.63,-612.94"/>
</g>
<!-- Node0x5639cbf22208&#45;&gt;Node0x5639cbf1fff8 -->
<g id="edge54" class="edge">
<title>Node0x5639cbf22208&#45;&gt;Node0x5639cbf1fff8</title>
<path fill="none" stroke="#ff7f7f" d="M1164.01,-497.68C1150.1,-546.33 1098.59,-685.27 1073.01,-743.89"/>
<polygon fill="#ff7f7f" stroke="#ff7f7f" points="1069.73,-742.67 1068.85,-753.23 1076.12,-745.52 1069.73,-742.67"/>
</g>
<!-- Node0x5639cbf1fff8&#45;&gt;Node0x5639cbf22a28 -->
<g id="edge57" class="edge">
<title>Node0x5639cbf1fff8&#45;&gt;Node0x5639cbf22a28</title>
<path fill="none" stroke="#ff7f7f" d="M1015.19,-789.51C993.08,-798.92 966.3,-811.61 944,-826 922.81,-839.67 920.52,-847.05 901,-863 888.6,-873.13 874.69,-884.01 862.62,-893.29"/>
<polygon fill="#ff7f7f" stroke="#ff7f7f" points="860.41,-890.58 854.6,-899.44 864.67,-896.13 860.41,-890.58"/>
</g>
<!-- Node0x5639cbf1fff8&#45;&gt;Node0x5639cbf24008 -->
<g id="edge59" class="edge">
<title>Node0x5639cbf1fff8&#45;&gt;Node0x5639cbf24008</title>
<path fill="none" stroke="#ff7f7f" d="M1065.1,-789.53C1066.06,-797.53 1066.44,-807.27 1066.2,-816.25"/>
<polygon fill="#ff7f7f" stroke="#ff7f7f" points="1062.7,-816.13 1065.64,-826.31 1069.69,-816.53 1062.7,-816.13"/>
</g>
<!-- Node0x5639cbf1fff8&#45;&gt;Node0x5639cbf24558 -->
<g id="edge55" class="edge">
<title>Node0x5639cbf1fff8&#45;&gt;Node0x5639cbf24558</title>
<path fill="none" stroke="#ff7f7f" d="M1083.66,-753.41C1152.57,-707.55 1341,-573.89 1341,-407.5 1341,-407.5 1341,-407.5 1341,-259.5 1341,-196.1 1273.28,-157.29 1219.94,-136.17"/>
<polygon fill="#ff7f7f" stroke="#ff7f7f" points="1221.09,-132.87 1210.5,-132.56 1218.59,-139.41 1221.09,-132.87"/>
</g>
<!-- Node0x5639cbf1fff8&#45;&gt;Node0x5639cbf22c08 -->
<g id="edge60" class="edge">
<title>Node0x5639cbf1fff8&#45;&gt;Node0x5639cbf22c08</title>
<path fill="none" stroke="#ff7f7f" d="M1057.99,-753.18C1055.44,-708.21 1049,-584.03 1049,-480.5 1049,-480.5 1049,-480.5 1049,-332.5 1049,-268.16 994.86,-268 936,-242 853.53,-205.58 750.12,-193.52 679.34,-189.75"/>
<polygon fill="#ff7f7f" stroke="#ff7f7f" points="679.3,-186.24 669.14,-189.25 678.95,-193.24 679.3,-186.24"/>
</g>
<!-- Node0x5639cbf1fff8&#45;&gt;Node0x5639cbf23608 -->
<g id="edge61" class="edge">
<title>Node0x5639cbf1fff8&#45;&gt;Node0x5639cbf23608</title>
<path fill="none" stroke="#ff7f7f" d="M1045.03,-753.47C1019.02,-715.77 964.83,-625.04 941.1,-579.91"/>
<polygon fill="#ff7f7f" stroke="#ff7f7f" points="944.07,-578.04 936.39,-570.75 937.85,-581.24 944.07,-578.04"/>
</g>
<!-- Node0x5639cbf1fff8&#45;&gt;Node0x5639cbf21538 -->
<g id="edge56" class="edge">
<title>Node0x5639cbf1fff8&#45;&gt;Node0x5639cbf21538</title>
<path fill="none" stroke="#ff7f7f" d="M1018.96,-753.48C976.15,-735.29 906.28,-705.6 846,-680 820.82,-669.3 792.8,-657.41 769.59,-647.55"/>
<polygon fill="#ff7f7f" stroke="#ff7f7f" points="770.86,-644.29 760.29,-643.6 768.13,-650.73 770.86,-644.29"/>
</g>
<!-- Node0x5639cbf1fff8&#45;&gt;Node0x5639cbf22208 -->
<g id="edge58" class="edge">
<title>Node0x5639cbf1fff8&#45;&gt;Node0x5639cbf22208</title>
<path fill="none" stroke="#ff7f7f" d="M1062.02,-753.23C1075.97,-704.47 1127.49,-565.52 1153.04,-507"/>
<polygon fill="#ff7f7f" stroke="#ff7f7f" points="1156.31,-508.24 1157.2,-497.68 1149.92,-505.39 1156.31,-508.24"/>
</g>
<!-- Node0x5639cbf1fff8&#45;&gt;Node0x5639cbf227f8 -->
<g id="edge62" class="edge">
<title>Node0x5639cbf1fff8&#45;&gt;Node0x5639cbf227f8</title>
<path fill="none" stroke="#ff7f7f" d="M991.24,-758.93C926.68,-747.92 828.38,-731.14 752.66,-718.22"/>
<polygon fill="#ff7f7f" stroke="#ff7f7f" points="753.05,-714.73 742.61,-716.5 751.88,-721.63 753.05,-714.73"/>
</g>
<!-- Node0x5639cbf227f8&#45;&gt;Node0x5639cbf22a28 -->
<g id="edge64" class="edge">
<title>Node0x5639cbf227f8&#45;&gt;Node0x5639cbf22a28</title>
<path fill="none" stroke="#ff7f7f" d="M653.36,-716.98C672.42,-748.33 715.39,-815.28 762,-863 772.66,-873.92 785.65,-884.45 797.53,-893.24"/>
<polygon fill="#ff7f7f" stroke="#ff7f7f" points="795.78,-896.3 805.93,-899.32 799.88,-890.62 795.78,-896.3"/>
</g>
<!-- Node0x5639cbf227f8&#45;&gt;Node0x5639cbf21538 -->
<g id="edge63" class="edge">
<title>Node0x5639cbf227f8&#45;&gt;Node0x5639cbf21538</title>
<path fill="none" stroke="#ff7f7f" d="M661.64,-680.31C671.38,-671.33 683.46,-660.19 694.1,-650.39"/>
<polygon fill="#ff7f7f" stroke="#ff7f7f" points="696.55,-652.88 701.53,-643.53 691.81,-647.73 696.55,-652.88"/>
</g>
<!-- Node0x5639cbf20458&#45;&gt;Node0x5639cbf22a28 -->
<g id="edge65" class="edge">
<title>Node0x5639cbf20458&#45;&gt;Node0x5639cbf22a28</title>
<path fill="none" stroke="#ff7f7f" d="M599.78,-351.61C603.99,-383.54 608.47,-453.01 577,-498 506.07,-599.39 329,-500.77 329,-624.5 329,-772.5 329,-772.5 329,-772.5 329,-840.86 502.87,-878.61 646.17,-898.12"/>
<polygon fill="#ff7f7f" stroke="#ff7f7f" points="646.05,-901.64 656.43,-899.49 646.98,-894.7 646.05,-901.64"/>
</g>
<!-- Node0x5639cbf20458&#45;&gt;Node0x5639cbf22c08 -->
<g id="edge67" class="edge">
<title>Node0x5639cbf20458&#45;&gt;Node0x5639cbf22c08</title>
<path fill="none" stroke="#ff7f7f" d="M592.45,-315.42C589.84,-290.73 589.55,-244.85 591.59,-215.54"/>
<polygon fill="#ff7f7f" stroke="#ff7f7f" points="595.08,-215.82 592.45,-205.56 588.11,-215.23 595.08,-215.82"/>
</g>
<!-- Node0x5639cbf20458&#45;&gt;Node0x5639cbf23608 -->
<g id="edge70" class="edge">
<title>Node0x5639cbf20458&#45;&gt;Node0x5639cbf23608</title>
<path fill="none" stroke="#ff7f7f" d="M627.99,-351.67C645.62,-361.74 667.92,-375.01 687,-388 752.99,-432.93 761.92,-454.71 829,-498 846.75,-509.45 867.2,-520.63 885.03,-529.78"/>
<polygon fill="#ff7f7f" stroke="#ff7f7f" points="883.59,-532.98 894.1,-534.38 886.76,-526.73 883.59,-532.98"/>
</g>
<!-- Node0x5639cbf20458&#45;&gt;Node0x5639cbf21538 -->
<g id="edge66" class="edge">
<title>Node0x5639cbf20458&#45;&gt;Node0x5639cbf21538</title>
<path fill="none" stroke="#ff7f7f" d="M618.18,-351.58C628.86,-361.23 641.17,-374.13 649,-388 690.33,-461.23 669.65,-491.49 697,-571 700.11,-580.03 704.05,-589.68 707.79,-598.26"/>
<polygon fill="#ff7f7f" stroke="#ff7f7f" points="704.6,-599.7 711.88,-607.41 711,-596.85 704.6,-599.7"/>
</g>
<!-- Node0x5639cbf20458&#45;&gt;Node0x5639cbf21808 -->
<g id="edge72" class="edge">
<title>Node0x5639cbf20458&#45;&gt;Node0x5639cbf21808</title>
<path fill="none" stroke="#ff7f7f" d="M656.16,-315.49C691.8,-305.25 737.35,-292.16 774.67,-281.43"/>
<polygon fill="#ff7f7f" stroke="#ff7f7f" points="775.82,-284.74 784.46,-278.61 773.89,-278.01 775.82,-284.74"/>
</g>
<!-- Node0x5639cbf20458&#45;&gt;Node0x5639cbf227f8 -->
<g id="edge69" class="edge">
<title>Node0x5639cbf20458&#45;&gt;Node0x5639cbf227f8</title>
<path fill="none" stroke="#ff7f7f" d="M602.4,-351.67C605.44,-362.07 609.02,-375.68 611,-388 629.07,-500.56 606.98,-531.77 627,-644 628.57,-652.82 631.1,-662.25 633.68,-670.69"/>
<polygon fill="#ff7f7f" stroke="#ff7f7f" points="630.4,-671.94 636.8,-680.39 637.07,-669.8 630.4,-671.94"/>
</g>
<!-- Node0x5639cbf20458&#45;&gt;Node0x5639cbf20958 -->
<g id="edge68" class="edge">
<title>Node0x5639cbf20458&#45;&gt;Node0x5639cbf20958</title>
<path fill="none" stroke="#ff7f7f" d="M586.82,-351.63C575.3,-370.45 555.46,-401.15 535,-425 526.15,-435.32 515.49,-445.76 505.8,-454.65"/>
<polygon fill="#ff7f7f" stroke="#ff7f7f" points="503.38,-452.11 498.29,-461.4 508.06,-457.32 503.38,-452.11"/>
</g>
<!-- Node0x5639cbf299b8 -->
<g id="node16" class="node">
<title>Node0x5639cbf299b8</title>
<polygon fill="#ff7f7f" stroke="black" points="243.5,-388.5 243.5,-424.5 474.5,-424.5 474.5,-388.5 243.5,-388.5"/>
<text text-anchor="middle" x="359" y="-402.8" font-family="Times,serif" font-size="14.00">lib/libLLVMBitstreamReader.a</text>
</g>
<!-- Node0x5639cbf20458&#45;&gt;Node0x5639cbf299b8 -->
<g id="edge71" class="edge">
<title>Node0x5639cbf20458&#45;&gt;Node0x5639cbf299b8</title>
<path fill="none" stroke="#ff7f7f" d="M545.5,-351.61C512.18,-361.88 468.37,-374.97 431.56,-385.68"/>
<polygon fill="#ff7f7f" stroke="#ff7f7f" points="430.5,-382.35 421.87,-388.49 432.45,-389.07 430.5,-382.35"/>
</g>
<!-- Node0x5639cbf20958&#45;&gt;Node0x5639cbf22a28 -->
<g id="edge73" class="edge">
<title>Node0x5639cbf20958&#45;&gt;Node0x5639cbf22a28</title>
<path fill="none" stroke="#ff7f7f" d="M387.45,-493.32C361.01,-501.15 334.11,-513.75 315,-534 286.44,-564.26 291,-582.89 291,-624.5 291,-772.5 291,-772.5 291,-772.5 291,-814.11 283.37,-835.96 315,-863 339,-883.52 491.33,-897.59 624.47,-906.14"/>
<polygon fill="#ff7f7f" stroke="#ff7f7f" points="624.63,-909.66 634.83,-906.79 625.08,-902.67 624.63,-909.66"/>
</g>
<!-- Node0x5639cbf20958&#45;&gt;Node0x5639cbf22c08 -->
<g id="edge74" class="edge">
<title>Node0x5639cbf20958&#45;&gt;Node0x5639cbf22c08</title>
<path fill="none" stroke="#ff7f7f" d="M475.32,-461.24C475.39,-421.97 486.45,-328.33 492,-315 508.61,-275.1 540.88,-236.62 565.47,-212.79"/>
<polygon fill="#ff7f7f" stroke="#ff7f7f" points="567.93,-215.28 572.83,-205.88 563.14,-210.18 567.93,-215.28"/>
</g>
<!-- Node0x5639cbf20958&#45;&gt;Node0x5639cbf23608 -->
<g id="edge75" class="edge">
<title>Node0x5639cbf20958&#45;&gt;Node0x5639cbf23608</title>
<path fill="none" stroke="#ff7f7f" d="M568.85,-493.92C648.27,-506.13 762.82,-524.11 841.53,-536.72"/>
<polygon fill="#ff7f7f" stroke="#ff7f7f" points="841,-540.18 851.43,-538.31 842.11,-533.27 841,-540.18"/>
</g>
<!-- Node0x5639cbf20958&#45;&gt;Node0x5639cbf21538 -->
<g id="edge76" class="edge">
<title>Node0x5639cbf20958&#45;&gt;Node0x5639cbf21538</title>
<path fill="none" stroke="#ff7f7f" d="M506.67,-497.56C550.5,-523.64 634.15,-573.41 682.66,-602.28"/>
<polygon fill="#ff7f7f" stroke="#ff7f7f" points="680.91,-605.31 691.29,-607.42 684.49,-599.29 680.91,-605.31"/>
</g>
<!-- Node0x5639cbf20958&#45;&gt;Node0x5639cbf299b8 -->
<g id="edge77" class="edge">
<title>Node0x5639cbf20958&#45;&gt;Node0x5639cbf299b8</title>
<path fill="none" stroke="#ff7f7f" d="M443.64,-461.49C426.86,-452.08 406.88,-440.26 390.5,-430.07"/>
<polygon fill="#ff7f7f" stroke="#ff7f7f" points="392.14,-426.97 381.81,-424.61 388.42,-432.9 392.14,-426.97"/>
</g>
<!-- Node0x5639cbf299b8&#45;&gt;Node0x5639cbf22a28 -->
<g id="edge78" class="edge">
<title>Node0x5639cbf299b8&#45;&gt;Node0x5639cbf22a28</title>
<path fill="none" stroke="#ff7f7f" d="M319.41,-424.55C256.07,-454.82 139,-524.31 139,-624.5 139,-772.5 139,-772.5 139,-772.5 139,-872.72 420.37,-903.69 624.53,-912.97"/>
<polygon fill="#ff7f7f" stroke="#ff7f7f" points="624.66,-916.48 634.8,-913.42 624.97,-909.48 624.66,-916.48"/>
</g>
<!-- Node0x5639cbf299b8&#45;&gt;Node0x5639cbf22c08 -->
<g id="edge79" class="edge">
<title>Node0x5639cbf299b8&#45;&gt;Node0x5639cbf22c08</title>
<path fill="none" stroke="#ff7f7f" d="M364.07,-388.31C374.65,-355.32 402.17,-282.78 450,-242 468.54,-226.2 492.13,-214.9 514.96,-206.89"/>
<polygon fill="#ff7f7f" stroke="#ff7f7f" points="516.29,-210.14 524.68,-203.66 514.08,-203.49 516.29,-210.14"/>
</g>
<!-- Node0x5639cbf299b8&#45;&gt;Node0x5639cbf21538 -->
<g id="edge80" class="edge">
<title>Node0x5639cbf299b8&#45;&gt;Node0x5639cbf21538</title>
<path fill="none" stroke="#ff7f7f" d="M358,-424.59C357.78,-444.51 360.43,-477.33 378,-498 439.81,-570.7 547.4,-601.65 625.43,-614.8"/>
<polygon fill="#ff7f7f" stroke="#ff7f7f" points="625.32,-618.33 635.75,-616.47 626.44,-611.42 625.32,-618.33"/>
</g>
<!-- Node0x5639cbf299b8&#45;&gt;Node0x5639cbf20458 -->
<g id="edge82" class="edge">
<title>Node0x5639cbf299b8&#45;&gt;Node0x5639cbf20458</title>
<path fill="none" stroke="#ff7f7f" d="M410.15,-388.49C443.4,-378.25 487.2,-365.16 524.06,-354.43"/>
<polygon fill="#ff7f7f" stroke="#ff7f7f" points="525.13,-357.76 533.76,-351.61 523.18,-351.04 525.13,-357.76"/>
</g>
<!-- Node0x5639cbf299b8&#45;&gt;Node0x5639cbf20958 -->
<g id="edge81" class="edge">
<title>Node0x5639cbf299b8&#45;&gt;Node0x5639cbf20958</title>
<path fill="none" stroke="#ff7f7f" d="M393.55,-424.61C410.36,-434.05 430.33,-445.87 446.69,-456.04"/>
<polygon fill="#ff7f7f" stroke="#ff7f7f" points="445.03,-459.13 455.36,-461.49 448.75,-453.21 445.03,-459.13"/>
</g>
</g>
</svg>
