<?xml version="1.0" encoding="UTF-8" standalone="no"?>
<!DOCTYPE svg PUBLIC "-//W3C//DTD SVG 1.1//EN"
 "http://www.w3.org/Graphics/SVG/1.1/DTD/svg11.dtd">
<!-- Generated by graphviz version 2.43.0 (0)
 -->
<!-- Title: bin/llvm&#45;rtdyld Pages: 1 -->
<svg width="1693pt" height="798pt"
 viewBox="0.00 0.00 1692.82 798.00" xmlns="http://www.w3.org/2000/svg" xmlns:xlink="http://www.w3.org/1999/xlink">
<g id="graph0" class="graph" transform="scale(1 1) rotate(0) translate(4 794)">
<title>bin/llvm&#45;rtdyld</title>
<polygon fill="white" stroke="transparent" points="-4,4 -4,-794 1688.82,-794 1688.82,4 -4,4"/>
<text text-anchor="middle" x="842.41" y="-7.8" font-family="Times,serif" font-size="14.00">bin/llvm&#45;rtdyld</text>
<!-- Node0x55dadfa941c8 -->
<g id="node1" class="node">
<title>Node0x55dadfa941c8</title>
<polygon fill="#ff7f7f" stroke="black" points="647.32,-607.5 647.32,-643.5 1104.32,-643.5 1104.32,-607.5 647.32,-607.5"/>
<text text-anchor="middle" x="875.82" y="-621.8" font-family="Times,serif" font-size="14.00">tools/llvm&#45;rtdyld/CMakeFiles/llvm&#45;rtdyld.dir/llvm&#45;rtdyld.cpp.o</text>
</g>
<!-- Node0x55dadfa93bd8 -->
<g id="node2" class="node">
<title>Node0x55dadfa93bd8</title>
<polygon fill="#ff7f7f" stroke="black" points="777.32,-534.5 777.32,-570.5 1010.32,-570.5 1010.32,-534.5 777.32,-534.5"/>
<text text-anchor="middle" x="893.82" y="-548.8" font-family="Times,serif" font-size="14.00">lib/libLLVMX86Disassembler.a</text>
</g>
<!-- Node0x55dadfa941c8&#45;&gt;Node0x55dadfa93bd8 -->
<g id="edge1" class="edge">
<title>Node0x55dadfa941c8&#45;&gt;Node0x55dadfa93bd8</title>
<path fill="none" stroke="#ff7f7f" d="M880.18,-607.31C882.24,-599.2 884.74,-589.34 887.03,-580.28"/>
<polygon fill="#ff7f7f" stroke="#ff7f7f" points="890.44,-581.08 889.5,-570.53 883.65,-579.36 890.44,-581.08"/>
</g>
<!-- Node0x55dadfa93728 -->
<g id="node3" class="node">
<title>Node0x55dadfa93728</title>
<polygon fill="#ff7f7f" stroke="black" points="1039.32,-96.5 1039.32,-132.5 1212.32,-132.5 1212.32,-96.5 1039.32,-96.5"/>
<text text-anchor="middle" x="1125.82" y="-110.8" font-family="Times,serif" font-size="14.00">lib/libLLVMX86Desc.a</text>
</g>
<!-- Node0x55dadfa941c8&#45;&gt;Node0x55dadfa93728 -->
<g id="edge2" class="edge">
<title>Node0x55dadfa941c8&#45;&gt;Node0x55dadfa93728</title>
<path fill="none" stroke="#ff7f7f" d="M1058.49,-607.49C1149.14,-591.23 1255.82,-559.57 1334.82,-498 1374.09,-467.4 1400.82,-457.28 1400.82,-407.5 1400.82,-407.5 1400.82,-407.5 1400.82,-259.5 1400.82,-176 1301.96,-140.91 1222.74,-126.16"/>
<polygon fill="#ff7f7f" stroke="#ff7f7f" points="1223.15,-122.68 1212.7,-124.38 1221.93,-129.57 1223.15,-122.68"/>
</g>
<!-- Node0x55dadfa93278 -->
<g id="node4" class="node">
<title>Node0x55dadfa93278</title>
<polygon fill="#ff7f7f" stroke="black" points="814.82,-461.5 814.82,-497.5 980.82,-497.5 980.82,-461.5 814.82,-461.5"/>
<text text-anchor="middle" x="897.82" y="-475.8" font-family="Times,serif" font-size="14.00">lib/libLLVMX86Info.a</text>
</g>
<!-- Node0x55dadfa941c8&#45;&gt;Node0x55dadfa93278 -->
<g id="edge3" class="edge">
<title>Node0x55dadfa941c8&#45;&gt;Node0x55dadfa93278</title>
<path fill="none" stroke="#ff7f7f" d="M970.36,-607.36C989.39,-599.44 1007.11,-587.88 1018.82,-571 1028.19,-557.49 1027.8,-547.78 1018.82,-534 1009.74,-520.05 996.1,-509.72 981.22,-502.06"/>
<polygon fill="#ff7f7f" stroke="#ff7f7f" points="982.36,-498.73 971.82,-497.63 979.38,-505.06 982.36,-498.73"/>
</g>
<!-- Node0x55dadfa92d28 -->
<g id="node5" class="node">
<title>Node0x55dadfa92d28</title>
<polygon fill="#ff7f7f" stroke="black" points="851.32,-242.5 851.32,-278.5 1088.32,-278.5 1088.32,-242.5 851.32,-242.5"/>
<text text-anchor="middle" x="969.82" y="-256.8" font-family="Times,serif" font-size="14.00">lib/libLLVMDebugInfoDWARF.a</text>
</g>
<!-- Node0x55dadfa941c8&#45;&gt;Node0x55dadfa92d28 -->
<g id="edge4" class="edge">
<title>Node0x55dadfa941c8&#45;&gt;Node0x55dadfa92d28</title>
<path fill="none" stroke="#ff7f7f" d="M978.97,-607.46C998,-599.46 1015.67,-587.84 1027.82,-571 1091.81,-482.31 1015.9,-344.57 983.09,-287.57"/>
<polygon fill="#ff7f7f" stroke="#ff7f7f" points="986.07,-285.73 978.05,-278.82 980.01,-289.23 986.07,-285.73"/>
</g>
<!-- Node0x55dadfa91d38 -->
<g id="node6" class="node">
<title>Node0x55dadfa91d38</title>
<polygon fill="#ff7f7f" stroke="black" points="697.32,-169.5 697.32,-205.5 854.32,-205.5 854.32,-169.5 697.32,-169.5"/>
<text text-anchor="middle" x="775.82" y="-183.8" font-family="Times,serif" font-size="14.00">lib/libLLVMObject.a</text>
</g>
<!-- Node0x55dadfa941c8&#45;&gt;Node0x55dadfa91d38 -->
<g id="edge5" class="edge">
<title>Node0x55dadfa941c8&#45;&gt;Node0x55dadfa91d38</title>
<path fill="none" stroke="#ff7f7f" d="M696.02,-607.48C571.77,-584.74 428.82,-531.61 428.82,-407.5 428.82,-407.5 428.82,-407.5 428.82,-332.5 428.82,-221.85 584.03,-195.04 686.89,-189.25"/>
<polygon fill="#ff7f7f" stroke="#ff7f7f" points="687.18,-192.74 696.99,-188.74 686.82,-185.75 687.18,-192.74"/>
</g>
<!-- Node0x55dadfa921e8 -->
<g id="node7" class="node">
<title>Node0x55dadfa921e8</title>
<polygon fill="#ff7f7f" stroke="black" points="592.32,-315.5 592.32,-351.5 727.32,-351.5 727.32,-315.5 592.32,-315.5"/>
<text text-anchor="middle" x="659.82" y="-329.8" font-family="Times,serif" font-size="14.00">lib/libLLVMMC.a</text>
</g>
<!-- Node0x55dadfa941c8&#45;&gt;Node0x55dadfa921e8 -->
<g id="edge6" class="edge">
<title>Node0x55dadfa941c8&#45;&gt;Node0x55dadfa921e8</title>
<path fill="none" stroke="#ff7f7f" d="M803.53,-607.4C781.78,-599.19 759.37,-587.45 742.82,-571 683.42,-511.94 661.51,-410.17 657.85,-361.69"/>
<polygon fill="#ff7f7f" stroke="#ff7f7f" points="661.34,-361.45 657.32,-351.65 654.35,-361.82 661.34,-361.45"/>
</g>
<!-- Node0x55dadfa917e8 -->
<g id="node8" class="node">
<title>Node0x55dadfa917e8</title>
<polygon fill="#ff7f7f" stroke="black" points="1130.82,-461.5 1130.82,-497.5 1334.82,-497.5 1334.82,-461.5 1130.82,-461.5"/>
<text text-anchor="middle" x="1232.82" y="-475.8" font-family="Times,serif" font-size="14.00">lib/libLLVMRuntimeDyld.a</text>
</g>
<!-- Node0x55dadfa941c8&#45;&gt;Node0x55dadfa917e8 -->
<g id="edge7" class="edge">
<title>Node0x55dadfa941c8&#45;&gt;Node0x55dadfa917e8</title>
<path fill="none" stroke="#ff7f7f" d="M983.51,-607.44C1021.31,-599.32 1063.38,-587.63 1099.82,-571 1137.23,-553.93 1174.6,-524.56 1200.35,-503.92"/>
<polygon fill="#ff7f7f" stroke="#ff7f7f" points="1202.67,-506.54 1208.28,-497.55 1198.29,-501.08 1202.67,-506.54"/>
</g>
<!-- Node0x55dadfa91658 -->
<g id="node9" class="node">
<title>Node0x55dadfa91658</title>
<polygon fill="#ff7f7f" stroke="black" points="696.82,-388.5 696.82,-424.5 864.82,-424.5 864.82,-388.5 696.82,-388.5"/>
<text text-anchor="middle" x="780.82" y="-402.8" font-family="Times,serif" font-size="14.00">lib/libLLVMSupport.a</text>
</g>
<!-- Node0x55dadfa941c8&#45;&gt;Node0x55dadfa91658 -->
<g id="edge8" class="edge">
<title>Node0x55dadfa941c8&#45;&gt;Node0x55dadfa91658</title>
<path fill="none" stroke="#ff7f7f" d="M804.72,-607.42C786.51,-599.36 769.19,-587.71 758.82,-571 732.65,-528.83 748.14,-468.29 763.54,-433.95"/>
<polygon fill="#ff7f7f" stroke="#ff7f7f" points="766.86,-435.11 768.05,-424.58 760.56,-432.07 766.86,-435.11"/>
</g>
<!-- Node0x55dadfa93bd8&#45;&gt;Node0x55dadfa93278 -->
<g id="edge9" class="edge">
<title>Node0x55dadfa93bd8&#45;&gt;Node0x55dadfa93278</title>
<path fill="none" stroke="#ff7f7f" d="M894.79,-534.31C895.24,-526.29 895.79,-516.55 896.3,-507.57"/>
<polygon fill="#ff7f7f" stroke="#ff7f7f" points="899.79,-507.71 896.86,-497.53 892.81,-507.32 899.79,-507.71"/>
</g>
<!-- Node0x55dadfa93bd8&#45;&gt;Node0x55dadfa91658 -->
<g id="edge10" class="edge">
<title>Node0x55dadfa93bd8&#45;&gt;Node0x55dadfa91658</title>
<path fill="none" stroke="#ff7f7f" d="M852.17,-534.46C835.59,-525.78 817.68,-513.69 805.82,-498 791.98,-479.67 785.8,-454.1 783.04,-434.82"/>
<polygon fill="#ff7f7f" stroke="#ff7f7f" points="786.51,-434.34 781.84,-424.83 779.56,-435.18 786.51,-434.34"/>
</g>
<!-- Node0x55dadfa911a8 -->
<g id="node10" class="node">
<title>Node0x55dadfa911a8</title>
<polygon fill="none" stroke="black" points="1251.82,-23.5 1251.82,-59.5 1481.82,-59.5 1481.82,-23.5 1251.82,-23.5"/>
<text text-anchor="middle" x="1366.82" y="-37.8" font-family="Times,serif" font-size="14.00">lib/libLLVMMCDisassembler.a</text>
</g>
<!-- Node0x55dadfa93bd8&#45;&gt;Node0x55dadfa911a8 -->
<g id="edge11" class="edge">
<title>Node0x55dadfa93bd8&#45;&gt;Node0x55dadfa911a8</title>
<path fill="none" stroke="black" d="M1010.41,-545.58C1123.49,-538.43 1286.17,-523.99 1343.82,-498 1487.74,-433.13 1608.82,-419.36 1608.82,-261.5 1608.82,-261.5 1608.82,-261.5 1608.82,-186.5 1608.82,-118.14 1536.63,-81.5 1471.11,-62.32"/>
<polygon fill="black" stroke="black" points="1471.65,-58.84 1461.08,-59.5 1469.76,-65.57 1471.65,-58.84"/>
</g>
<!-- Node0x55dadfa93728&#45;&gt;Node0x55dadfa941c8 -->
<g id="edge16" class="edge">
<title>Node0x55dadfa93728&#45;&gt;Node0x55dadfa941c8</title>
<path fill="none" stroke="#ff7f7f" d="M1212.6,-122.3C1299.05,-134.33 1418.82,-167.59 1418.82,-259.5 1418.82,-407.5 1418.82,-407.5 1418.82,-407.5 1418.82,-457.28 1392.09,-467.4 1352.82,-498 1276.68,-557.34 1174.82,-588.9 1084.76,-605.66"/>
<polygon fill="#ff7f7f" stroke="#ff7f7f" points="1083.9,-602.26 1074.68,-607.49 1085.15,-609.15 1083.9,-602.26"/>
</g>
<!-- Node0x55dadfa93728&#45;&gt;Node0x55dadfa93278 -->
<g id="edge12" class="edge">
<title>Node0x55dadfa93728&#45;&gt;Node0x55dadfa93278</title>
<path fill="none" stroke="#ff7f7f" d="M1136.19,-132.64C1141.73,-142.81 1147.98,-156.19 1150.82,-169 1161.6,-217.51 1156.63,-236.54 1130.82,-279 1081.93,-359.44 989.46,-423.92 936.91,-456.12"/>
<polygon fill="#ff7f7f" stroke="#ff7f7f" points="934.95,-453.21 928.2,-461.38 938.57,-459.2 934.95,-453.21"/>
</g>
<!-- Node0x55dadfa93728&#45;&gt;Node0x55dadfa921e8 -->
<g id="edge13" class="edge">
<title>Node0x55dadfa93728&#45;&gt;Node0x55dadfa921e8</title>
<path fill="none" stroke="#ff7f7f" d="M1039.22,-120.98C921.07,-129.01 721.34,-145.63 696.82,-169 660.08,-204.02 660.66,-268.33 661.65,-304.99"/>
<polygon fill="#ff7f7f" stroke="#ff7f7f" points="658.16,-305.51 661.93,-315.42 665.16,-305.33 658.16,-305.51"/>
</g>
<!-- Node0x55dadfa93728&#45;&gt;Node0x55dadfa91658 -->
<g id="edge14" class="edge">
<title>Node0x55dadfa93728&#45;&gt;Node0x55dadfa91658</title>
<path fill="none" stroke="#ff7f7f" d="M1133.04,-133C1139.6,-165.56 1140.75,-236.06 1105.82,-279 1049.35,-348.43 949.1,-379.99 874.77,-394.18"/>
<polygon fill="#ff7f7f" stroke="#ff7f7f" points="874.12,-390.74 864.92,-395.99 875.39,-397.62 874.12,-390.74"/>
</g>
<!-- Node0x55dadfa93728&#45;&gt;Node0x55dadfa911a8 -->
<g id="edge15" class="edge">
<title>Node0x55dadfa93728&#45;&gt;Node0x55dadfa911a8</title>
<path fill="none" stroke="black" d="M1183.55,-96.49C1218.17,-86.29 1262.38,-73.27 1298.71,-62.57"/>
<polygon fill="black" stroke="black" points="1300.13,-65.8 1308.73,-59.61 1298.15,-59.08 1300.13,-65.8"/>
</g>
<!-- Node0x55dadfa92a08 -->
<g id="node11" class="node">
<title>Node0x55dadfa92a08</title>
<polygon fill="#ff7f7f" stroke="black" points="778.32,-23.5 778.32,-59.5 987.32,-59.5 987.32,-23.5 778.32,-23.5"/>
<text text-anchor="middle" x="882.82" y="-37.8" font-family="Times,serif" font-size="14.00">lib/libLLVMBinaryFormat.a</text>
</g>
<!-- Node0x55dadfa93728&#45;&gt;Node0x55dadfa92a08 -->
<g id="edge17" class="edge">
<title>Node0x55dadfa93728&#45;&gt;Node0x55dadfa92a08</title>
<path fill="none" stroke="#ff7f7f" d="M1067.62,-96.49C1032.56,-86.25 987.75,-73.16 951.03,-62.43"/>
<polygon fill="#ff7f7f" stroke="#ff7f7f" points="951.97,-59.06 941.39,-59.61 950.01,-65.78 951.97,-59.06"/>
</g>
<!-- Node0x55dadfa93278&#45;&gt;Node0x55dadfa91658 -->
<g id="edge18" class="edge">
<title>Node0x55dadfa93278&#45;&gt;Node0x55dadfa91658</title>
<path fill="none" stroke="#ff7f7f" d="M869.8,-461.49C854.28,-452.08 834.8,-440.26 818.02,-430.07"/>
<polygon fill="#ff7f7f" stroke="#ff7f7f" points="819.39,-426.81 809.02,-424.61 815.76,-432.79 819.39,-426.81"/>
</g>
<!-- Node0x55dadfa92d28&#45;&gt;Node0x55dadfa941c8 -->
<g id="edge19" class="edge">
<title>Node0x55dadfa92d28&#45;&gt;Node0x55dadfa941c8</title>
<path fill="none" stroke="#ff7f7f" d="M986.11,-278.82C1025.01,-329.09 1113.37,-477.37 1045.82,-571 1035.67,-585.08 1021.65,-595.51 1005.99,-603.23"/>
<polygon fill="#ff7f7f" stroke="#ff7f7f" points="1004.27,-600.16 996.59,-607.46 1007.15,-606.54 1004.27,-600.16"/>
</g>
<!-- Node0x55dadfa92d28&#45;&gt;Node0x55dadfa93728 -->
<g id="edge20" class="edge">
<title>Node0x55dadfa92d28&#45;&gt;Node0x55dadfa93728</title>
<path fill="none" stroke="#ff7f7f" d="M988.33,-242.42C1016.01,-216.87 1068.29,-168.6 1099.8,-139.52"/>
<polygon fill="#ff7f7f" stroke="#ff7f7f" points="1102.36,-141.92 1107.34,-132.56 1097.62,-136.77 1102.36,-141.92"/>
</g>
<!-- Node0x55dadfa92d28&#45;&gt;Node0x55dadfa91d38 -->
<g id="edge21" class="edge">
<title>Node0x55dadfa92d28&#45;&gt;Node0x55dadfa91d38</title>
<path fill="none" stroke="#ff7f7f" d="M917.49,-242.49C889.16,-232.51 854.38,-219.82 826.33,-209.26"/>
<polygon fill="#ff7f7f" stroke="#ff7f7f" points="827.3,-205.88 816.71,-205.61 824.82,-212.43 827.3,-205.88"/>
</g>
<!-- Node0x55dadfa92d28&#45;&gt;Node0x55dadfa921e8 -->
<g id="edge24" class="edge">
<title>Node0x55dadfa92d28&#45;&gt;Node0x55dadfa921e8</title>
<path fill="none" stroke="#ff7f7f" d="M901.23,-278.55C852.7,-289.94 787.6,-304.85 737.21,-316.1"/>
<polygon fill="#ff7f7f" stroke="#ff7f7f" points="736.34,-312.71 727.34,-318.3 737.86,-319.54 736.34,-312.71"/>
</g>
<!-- Node0x55dadfa92d28&#45;&gt;Node0x55dadfa91658 -->
<g id="edge22" class="edge">
<title>Node0x55dadfa92d28&#45;&gt;Node0x55dadfa91658</title>
<path fill="none" stroke="#ff7f7f" d="M951.98,-278.56C920.77,-304.42 856.42,-353.59 816.03,-382.56"/>
<polygon fill="#ff7f7f" stroke="#ff7f7f" points="813.92,-379.77 807.8,-388.42 817.98,-385.47 813.92,-379.77"/>
</g>
<!-- Node0x55dadfa92d28&#45;&gt;Node0x55dadfa92a08 -->
<g id="edge23" class="edge">
<title>Node0x55dadfa92d28&#45;&gt;Node0x55dadfa92a08</title>
<path fill="none" stroke="#ff7f7f" d="M959.15,-242.47C940.51,-204.93 904.11,-114.8 889,-69.48"/>
<polygon fill="#ff7f7f" stroke="#ff7f7f" points="892.26,-68.2 885.87,-59.75 885.6,-70.34 892.26,-68.2"/>
</g>
<!-- Node0x55dadfa91d38&#45;&gt;Node0x55dadfa941c8 -->
<g id="edge25" class="edge">
<title>Node0x55dadfa91d38&#45;&gt;Node0x55dadfa941c8</title>
<path fill="none" stroke="#ff7f7f" d="M697.22,-189.38C599.84,-195.42 446.82,-222.63 446.82,-332.5 446.82,-407.5 446.82,-407.5 446.82,-407.5 446.82,-528.22 582.06,-581.78 700.7,-605.55"/>
<polygon fill="#ff7f7f" stroke="#ff7f7f" points="700.18,-609.01 710.66,-607.48 701.51,-602.14 700.18,-609.01"/>
</g>
<!-- Node0x55dadfa91d38&#45;&gt;Node0x55dadfa93728 -->
<g id="edge29" class="edge">
<title>Node0x55dadfa91d38&#45;&gt;Node0x55dadfa93728</title>
<path fill="none" stroke="#ff7f7f" d="M854.37,-170.57C906.94,-159.9 976.4,-145.81 1031.89,-134.55"/>
<polygon fill="#ff7f7f" stroke="#ff7f7f" points="1032.63,-137.98 1041.73,-132.56 1031.24,-131.12 1032.63,-137.98"/>
</g>
<!-- Node0x55dadfa91d38&#45;&gt;Node0x55dadfa92d28 -->
<g id="edge28" class="edge">
<title>Node0x55dadfa91d38&#45;&gt;Node0x55dadfa92d28</title>
<path fill="none" stroke="#ff7f7f" d="M828.45,-205.61C856.83,-215.61 891.62,-228.31 919.61,-238.86"/>
<polygon fill="#ff7f7f" stroke="#ff7f7f" points="918.62,-242.22 929.21,-242.49 921.1,-235.68 918.62,-242.22"/>
</g>
<!-- Node0x55dadfa91d38&#45;&gt;Node0x55dadfa921e8 -->
<g id="edge30" class="edge">
<title>Node0x55dadfa91d38&#45;&gt;Node0x55dadfa921e8</title>
<path fill="none" stroke="#ff7f7f" d="M762.08,-205.56C741.77,-230.77 703.62,-278.14 680.09,-307.34"/>
<polygon fill="#ff7f7f" stroke="#ff7f7f" points="677.13,-305.43 673.58,-315.42 682.58,-309.82 677.13,-305.43"/>
</g>
<!-- Node0x55dadfa91d38&#45;&gt;Node0x55dadfa91658 -->
<g id="edge26" class="edge">
<title>Node0x55dadfa91d38&#45;&gt;Node0x55dadfa91658</title>
<path fill="none" stroke="#ff7f7f" d="M780.08,-205.75C784.51,-243.34 786.84,-332.89 784.85,-378.22"/>
<polygon fill="#ff7f7f" stroke="#ff7f7f" points="781.34,-378.29 784.27,-388.47 788.33,-378.69 781.34,-378.29"/>
</g>
<!-- Node0x55dadfa91d38&#45;&gt;Node0x55dadfa92a08 -->
<g id="edge27" class="edge">
<title>Node0x55dadfa91d38&#45;&gt;Node0x55dadfa92a08</title>
<path fill="none" stroke="#ff7f7f" d="M788.52,-169.42C807.26,-144.19 842.45,-96.83 864.14,-67.64"/>
<polygon fill="#ff7f7f" stroke="#ff7f7f" points="866.99,-69.68 870.14,-59.56 861.37,-65.5 866.99,-69.68"/>
</g>
<!-- Node0x55dadfa921e8&#45;&gt;Node0x55dadfa941c8 -->
<g id="edge33" class="edge">
<title>Node0x55dadfa921e8&#45;&gt;Node0x55dadfa941c8</title>
<path fill="none" stroke="#ff7f7f" d="M666.15,-351.65C676.41,-394.53 696.93,-507.48 760.82,-571 774.91,-585.01 793.26,-595.6 811.17,-603.51"/>
<polygon fill="#ff7f7f" stroke="#ff7f7f" points="809.9,-606.77 820.48,-607.4 812.6,-600.32 809.9,-606.77"/>
</g>
<!-- Node0x55dadfa921e8&#45;&gt;Node0x55dadfa93728 -->
<g id="edge31" class="edge">
<title>Node0x55dadfa921e8&#45;&gt;Node0x55dadfa93728</title>
<path fill="none" stroke="#ff7f7f" d="M651.82,-315.42C643.18,-281.95 638.27,-207.64 678.82,-169 703.47,-145.51 905.05,-128.85 1029,-120.86"/>
<polygon fill="#ff7f7f" stroke="#ff7f7f" points="1029.5,-124.33 1039.26,-120.2 1029.06,-117.35 1029.5,-124.33"/>
</g>
<!-- Node0x55dadfa921e8&#45;&gt;Node0x55dadfa92d28 -->
<g id="edge34" class="edge">
<title>Node0x55dadfa921e8&#45;&gt;Node0x55dadfa92d28</title>
<path fill="none" stroke="#ff7f7f" d="M727.45,-315.67C772.13,-305.18 831.15,-291.65 879.78,-280.73"/>
<polygon fill="#ff7f7f" stroke="#ff7f7f" points="880.69,-284.11 889.68,-278.51 879.16,-277.28 880.69,-284.11"/>
</g>
<!-- Node0x55dadfa921e8&#45;&gt;Node0x55dadfa91658 -->
<g id="edge32" class="edge">
<title>Node0x55dadfa921e8&#45;&gt;Node0x55dadfa91658</title>
<path fill="none" stroke="#ff7f7f" d="M694.86,-351.61C711.93,-361.05 732.23,-372.87 748.87,-383.04"/>
<polygon fill="#ff7f7f" stroke="#ff7f7f" points="747.35,-386.21 757.7,-388.49 751.03,-380.26 747.35,-386.21"/>
</g>
<!-- Node0x55dadfa917e8&#45;&gt;Node0x55dadfa941c8 -->
<g id="edge35" class="edge">
<title>Node0x55dadfa917e8&#45;&gt;Node0x55dadfa941c8</title>
<path fill="none" stroke="#ff7f7f" d="M1220.92,-497.55C1200.68,-518.06 1159.28,-552.08 1117.82,-571 1084.52,-586.2 1046.5,-597.27 1010.61,-605.26"/>
<polygon fill="#ff7f7f" stroke="#ff7f7f" points="1009.58,-601.91 1000.54,-607.44 1011.06,-608.75 1009.58,-601.91"/>
</g>
<!-- Node0x55dadfa917e8&#45;&gt;Node0x55dadfa93728 -->
<g id="edge39" class="edge">
<title>Node0x55dadfa917e8&#45;&gt;Node0x55dadfa93728</title>
<path fill="none" stroke="#ff7f7f" d="M1253.24,-461.25C1280.34,-436.3 1324.82,-387.31 1324.82,-334.5 1324.82,-334.5 1324.82,-334.5 1324.82,-259.5 1324.82,-195.3 1256.01,-156.81 1199.31,-135.99"/>
<polygon fill="#ff7f7f" stroke="#ff7f7f" points="1200.2,-132.6 1189.61,-132.56 1197.87,-139.2 1200.2,-132.6"/>
</g>
<!-- Node0x55dadfa917e8&#45;&gt;Node0x55dadfa92d28 -->
<g id="edge38" class="edge">
<title>Node0x55dadfa917e8&#45;&gt;Node0x55dadfa92d28</title>
<path fill="none" stroke="#ff7f7f" d="M1212.47,-461.48C1176.79,-431.67 1100.6,-368.13 1035.82,-315 1023.8,-305.14 1010.49,-294.33 998.99,-285.02"/>
<polygon fill="#ff7f7f" stroke="#ff7f7f" points="1000.95,-282.11 990.98,-278.54 996.55,-287.55 1000.95,-282.11"/>
</g>
<!-- Node0x55dadfa917e8&#45;&gt;Node0x55dadfa91d38 -->
<g id="edge36" class="edge">
<title>Node0x55dadfa917e8&#45;&gt;Node0x55dadfa91d38</title>
<path fill="none" stroke="#ff7f7f" d="M1228.46,-461.33C1216.19,-416.88 1176.96,-297.66 1096.82,-242 1060.16,-216.54 946.49,-202.13 864.82,-194.83"/>
<polygon fill="#ff7f7f" stroke="#ff7f7f" points="864.8,-191.31 854.53,-193.93 864.19,-198.28 864.8,-191.31"/>
</g>
<!-- Node0x55dadfa917e8&#45;&gt;Node0x55dadfa921e8 -->
<g id="edge40" class="edge">
<title>Node0x55dadfa917e8&#45;&gt;Node0x55dadfa921e8</title>
<path fill="none" stroke="#ff7f7f" d="M1165.34,-461.45C1093.2,-443.22 975.44,-413.51 873.82,-388 828.7,-376.67 778.21,-364.05 737.61,-353.91"/>
<polygon fill="#ff7f7f" stroke="#ff7f7f" points="738.33,-350.48 727.78,-351.45 736.63,-357.27 738.33,-350.48"/>
</g>
<!-- Node0x55dadfa917e8&#45;&gt;Node0x55dadfa91658 -->
<g id="edge37" class="edge">
<title>Node0x55dadfa917e8&#45;&gt;Node0x55dadfa91658</title>
<path fill="none" stroke="#ff7f7f" d="M1130.82,-462.48C1054.07,-450.42 949.69,-434.03 874.93,-422.28"/>
<polygon fill="#ff7f7f" stroke="#ff7f7f" points="875.46,-418.82 865.04,-420.73 874.38,-425.74 875.46,-418.82"/>
</g>
<!-- Node0x55dadfa91658&#45;&gt;Node0x55dadfa941c8 -->
<g id="edge44" class="edge">
<title>Node0x55dadfa91658&#45;&gt;Node0x55dadfa941c8</title>
<path fill="none" stroke="#ff7f7f" d="M778.52,-424.58C769.61,-456.16 748.07,-524.67 776.82,-571 785.33,-584.71 798.51,-595.01 812.53,-602.72"/>
<polygon fill="#ff7f7f" stroke="#ff7f7f" points="811.32,-606.03 821.83,-607.42 814.48,-599.78 811.32,-606.03"/>
</g>
<!-- Node0x55dadfa91658&#45;&gt;Node0x55dadfa93728 -->
<g id="edge45" class="edge">
<title>Node0x55dadfa91658&#45;&gt;Node0x55dadfa93728</title>
<path fill="none" stroke="#ff7f7f" d="M865.01,-393.26C935.32,-378.64 1032.55,-346.97 1087.82,-279 1119.47,-240.08 1121.49,-178.54 1122.37,-143.1"/>
<polygon fill="#ff7f7f" stroke="#ff7f7f" points="1125.87,-143.08 1122.64,-133 1118.87,-142.9 1125.87,-143.08"/>
</g>
<!-- Node0x55dadfa91658&#45;&gt;Node0x55dadfa92d28 -->
<g id="edge43" class="edge">
<title>Node0x55dadfa91658&#45;&gt;Node0x55dadfa92d28</title>
<path fill="none" stroke="#ff7f7f" d="M798.69,-388.42C829.92,-362.54 894.27,-313.37 934.64,-284.42"/>
<polygon fill="#ff7f7f" stroke="#ff7f7f" points="936.76,-287.21 942.88,-278.56 932.7,-281.51 936.76,-287.21"/>
</g>
<!-- Node0x55dadfa91658&#45;&gt;Node0x55dadfa91d38 -->
<g id="edge42" class="edge">
<title>Node0x55dadfa91658&#45;&gt;Node0x55dadfa91d38</title>
<path fill="none" stroke="#ff7f7f" d="M776.59,-388.47C772.14,-351.01 769.8,-261.18 771.79,-215.76"/>
<polygon fill="#ff7f7f" stroke="#ff7f7f" points="775.29,-215.93 772.36,-205.75 768.3,-215.54 775.29,-215.93"/>
</g>
<!-- Node0x55dadfa91658&#45;&gt;Node0x55dadfa921e8 -->
<g id="edge41" class="edge">
<title>Node0x55dadfa91658&#45;&gt;Node0x55dadfa921e8</title>
<path fill="none" stroke="#ff7f7f" d="M745.98,-388.49C728.94,-379.08 708.63,-367.26 691.96,-357.07"/>
<polygon fill="#ff7f7f" stroke="#ff7f7f" points="693.46,-353.89 683.12,-351.61 689.79,-359.85 693.46,-353.89"/>
</g>
<!-- Node0x55dadfa92a08&#45;&gt;Node0x55dadfa941c8 -->
<g id="edge48" class="edge">
<title>Node0x55dadfa92a08&#45;&gt;Node0x55dadfa941c8</title>
<path fill="none" stroke="#ff7f7f" d="M778.13,-41.97C578.44,-43.81 162.82,-62.53 162.82,-186.5 162.82,-334.5 162.82,-334.5 162.82,-334.5 162.82,-519.67 333.43,-503.41 505.82,-571 546.97,-587.13 592.41,-598.47 636.95,-606.42"/>
<polygon fill="#ff7f7f" stroke="#ff7f7f" points="636.58,-609.91 647.03,-608.16 637.78,-603.01 636.58,-609.91"/>
</g>
<!-- Node0x55dadfa92a08&#45;&gt;Node0x55dadfa92d28 -->
<g id="edge46" class="edge">
<title>Node0x55dadfa92a08&#45;&gt;Node0x55dadfa92d28</title>
<path fill="none" stroke="#ff7f7f" d="M893.6,-59.75C912.31,-97.5 948.71,-187.65 963.73,-232.79"/>
<polygon fill="#ff7f7f" stroke="#ff7f7f" points="960.45,-234.02 966.84,-242.47 967.12,-231.88 960.45,-234.02"/>
</g>
<!-- Node0x55dadfa92a08&#45;&gt;Node0x55dadfa91658 -->
<g id="edge47" class="edge">
<title>Node0x55dadfa92a08&#45;&gt;Node0x55dadfa91658</title>
<path fill="none" stroke="#ff7f7f" d="M882.97,-59.71C882.75,-90.07 880.07,-154.78 862.82,-206 856.91,-223.55 849.62,-225.2 841.82,-242 819.99,-289.05 821.36,-303.55 802.82,-352 799.47,-360.76 795.63,-370.26 792.11,-378.78"/>
<polygon fill="#ff7f7f" stroke="#ff7f7f" points="788.79,-377.66 788.17,-388.24 795.25,-380.35 788.79,-377.66"/>
</g>
<!-- Node0x55dadfa8ffd8 -->
<g id="node12" class="node">
<title>Node0x55dadfa8ffd8</title>
<polygon fill="none" stroke="black" points="31.32,-680.5 31.32,-716.5 212.32,-716.5 212.32,-680.5 31.32,-680.5"/>
<text text-anchor="middle" x="121.82" y="-694.8" font-family="Times,serif" font-size="14.00">lib/libLLVMBitReader.a</text>
</g>
<!-- Node0x55dadfa8ffd8&#45;&gt;Node0x55dadfa941c8 -->
<g id="edge49" class="edge">
<title>Node0x55dadfa8ffd8&#45;&gt;Node0x55dadfa941c8</title>
<path fill="none" stroke="black" d="M212.32,-685.5C228.14,-683.56 244.45,-681.64 259.82,-680 387.13,-666.4 529.53,-653.86 645.32,-644.35"/>
<polygon fill="black" stroke="black" points="645.7,-647.83 655.38,-643.52 645.12,-640.85 645.7,-647.83"/>
</g>
<!-- Node0x55dadfa8ffd8&#45;&gt;Node0x55dadfa92d28 -->
<g id="edge50" class="edge">
<title>Node0x55dadfa8ffd8&#45;&gt;Node0x55dadfa92d28</title>
<path fill="none" stroke="black" d="M122.41,-680.21C123.29,-653.18 124.82,-599.26 124.82,-553.5 124.82,-553.5 124.82,-553.5 124.82,-405.5 124.82,-333.75 604.38,-288.38 840.95,-270.37"/>
<polygon fill="black" stroke="black" points="841.28,-273.85 850.99,-269.61 840.76,-266.87 841.28,-273.85"/>
</g>
<!-- Node0x55dadfa8ffd8&#45;&gt;Node0x55dadfa91d38 -->
<g id="edge52" class="edge">
<title>Node0x55dadfa8ffd8&#45;&gt;Node0x55dadfa91d38</title>
<path fill="none" stroke="black" d="M114.74,-680.1C104.51,-653.35 86.82,-600.32 86.82,-553.5 86.82,-553.5 86.82,-553.5 86.82,-332.5 86.82,-211.23 500.96,-191.44 687.08,-188.68"/>
<polygon fill="black" stroke="black" points="687.17,-192.17 697.12,-188.54 687.07,-185.18 687.17,-192.17"/>
</g>
<!-- Node0x55dadfa8ffd8&#45;&gt;Node0x55dadfa921e8 -->
<g id="edge51" class="edge">
<title>Node0x55dadfa8ffd8&#45;&gt;Node0x55dadfa921e8</title>
<path fill="none" stroke="black" d="M133.83,-680.18C171.47,-627.27 293.16,-466.61 434.82,-388 480.11,-362.87 536.88,-349.48 582.07,-342.38"/>
<polygon fill="black" stroke="black" points="582.75,-345.82 592.12,-340.88 581.71,-338.9 582.75,-345.82"/>
</g>
<!-- Node0x55dadfa8ffd8&#45;&gt;Node0x55dadfa91658 -->
<g id="edge53" class="edge">
<title>Node0x55dadfa8ffd8&#45;&gt;Node0x55dadfa91658</title>
<path fill="none" stroke="black" d="M158.18,-680.46C243.16,-640.79 461.64,-539.63 646.82,-461 673.08,-449.85 702.49,-438.03 727.06,-428.35"/>
<polygon fill="black" stroke="black" points="728.54,-431.53 736.57,-424.61 725.98,-425.01 728.54,-431.53"/>
</g>
<!-- Node0x55dadfa90e88 -->
<g id="node13" class="node">
<title>Node0x55dadfa90e88</title>
<polygon fill="none" stroke="black" points="1366.82,-680.5 1366.82,-716.5 1546.82,-716.5 1546.82,-680.5 1366.82,-680.5"/>
<text text-anchor="middle" x="1456.82" y="-694.8" font-family="Times,serif" font-size="14.00">lib/libLLVMMCParser.a</text>
</g>
<!-- Node0x55dadfa90e88&#45;&gt;Node0x55dadfa941c8 -->
<g id="edge54" class="edge">
<title>Node0x55dadfa90e88&#45;&gt;Node0x55dadfa941c8</title>
<path fill="none" stroke="black" d="M1366.68,-686.48C1275.58,-675.35 1133.21,-657.95 1025.22,-644.76"/>
<polygon fill="black" stroke="black" points="1025.56,-641.27 1015.21,-643.53 1024.71,-648.22 1025.56,-641.27"/>
</g>
<!-- Node0x55dadfa90e88&#45;&gt;Node0x55dadfa93728 -->
<g id="edge55" class="edge">
<title>Node0x55dadfa90e88&#45;&gt;Node0x55dadfa93728</title>
<path fill="none" stroke="black" d="M1502.8,-680.49C1520.97,-671.87 1540.82,-659.82 1554.82,-644 1630.24,-558.81 1609.69,-487.12 1553.82,-388 1494.89,-283.45 1496.82,-233.84 1395.82,-169 1344.43,-136.01 1277.06,-122.62 1222.48,-117.49"/>
<polygon fill="black" stroke="black" points="1222.71,-114 1212.44,-116.63 1222.1,-120.97 1222.71,-114"/>
</g>
<!-- Node0x55dadfa90e88&#45;&gt;Node0x55dadfa92d28 -->
<g id="edge56" class="edge">
<title>Node0x55dadfa90e88&#45;&gt;Node0x55dadfa92d28</title>
<path fill="none" stroke="black" d="M1472.94,-680.41C1495.25,-654.9 1532.82,-604.38 1532.82,-553.5 1532.82,-553.5 1532.82,-553.5 1532.82,-478.5 1532.82,-392.25 1262.09,-343.89 1180.82,-315 1142.5,-301.37 1099.1,-289.75 1061.67,-280.85"/>
<polygon fill="black" stroke="black" points="1062.32,-277.41 1051.79,-278.53 1060.72,-284.22 1062.32,-277.41"/>
</g>
<!-- Node0x55dadfa90e88&#45;&gt;Node0x55dadfa91d38 -->
<g id="edge58" class="edge">
<title>Node0x55dadfa90e88&#45;&gt;Node0x55dadfa91d38</title>
<path fill="none" stroke="black" d="M1483.55,-680.34C1517.24,-656.37 1570.82,-609.46 1570.82,-553.5 1570.82,-553.5 1570.82,-553.5 1570.82,-478.5 1570.82,-343.46 1323.02,-296.55 1130.82,-242 1042.06,-216.81 937.24,-202.86 864.62,-195.58"/>
<polygon fill="black" stroke="black" points="864.89,-192.09 854.59,-194.6 864.2,-199.05 864.89,-192.09"/>
</g>
<!-- Node0x55dadfa90e88&#45;&gt;Node0x55dadfa921e8 -->
<g id="edge57" class="edge">
<title>Node0x55dadfa90e88&#45;&gt;Node0x55dadfa921e8</title>
<path fill="none" stroke="black" d="M1454.02,-680.18C1445.87,-635.9 1417.93,-518.04 1343.82,-461 1249.65,-388.52 896.03,-352.72 737.52,-340.04"/>
<polygon fill="black" stroke="black" points="737.61,-336.53 727.37,-339.23 737.06,-343.51 737.61,-336.53"/>
</g>
<!-- Node0x55dadfa90e88&#45;&gt;Node0x55dadfa917e8 -->
<g id="edge59" class="edge">
<title>Node0x55dadfa90e88&#45;&gt;Node0x55dadfa917e8</title>
<path fill="none" stroke="black" d="M1439.24,-680.47C1399.76,-642.22 1303.91,-549.36 1258.06,-504.95"/>
<polygon fill="black" stroke="black" points="1260.24,-502.19 1250.63,-497.75 1255.37,-507.22 1260.24,-502.19"/>
</g>
<!-- Node0x55dadfa90e88&#45;&gt;Node0x55dadfa91658 -->
<g id="edge60" class="edge">
<title>Node0x55dadfa90e88&#45;&gt;Node0x55dadfa91658</title>
<path fill="none" stroke="black" d="M1425.84,-680.46C1327.76,-626.54 1030.17,-463 1024.82,-461 1010.39,-455.59 936.76,-439.7 874.12,-426.63"/>
<polygon fill="black" stroke="black" points="874.67,-423.17 864.17,-424.55 873.24,-430.02 874.67,-423.17"/>
</g>
<!-- Node0x55dadfa913d8 -->
<g id="node14" class="node">
<title>Node0x55dadfa913d8</title>
<polygon fill="none" stroke="black" points="268.82,-680.5 268.82,-716.5 434.82,-716.5 434.82,-680.5 268.82,-680.5"/>
<text text-anchor="middle" x="351.82" y="-694.8" font-family="Times,serif" font-size="14.00">lib/libLLVMTextAPI.a</text>
</g>
<!-- Node0x55dadfa913d8&#45;&gt;Node0x55dadfa941c8 -->
<g id="edge62" class="edge">
<title>Node0x55dadfa913d8&#45;&gt;Node0x55dadfa941c8</title>
<path fill="none" stroke="black" d="M434.85,-686.25C516.79,-675.15 643.48,-657.98 740.07,-644.89"/>
<polygon fill="black" stroke="black" points="740.77,-648.33 750.21,-643.52 739.83,-641.39 740.77,-648.33"/>
</g>
<!-- Node0x55dadfa913d8&#45;&gt;Node0x55dadfa93728 -->
<g id="edge65" class="edge">
<title>Node0x55dadfa913d8&#45;&gt;Node0x55dadfa93728</title>
<path fill="none" stroke="black" d="M338.95,-680.43C302.43,-630.28 200.82,-477.84 200.82,-334.5 200.82,-334.5 200.82,-334.5 200.82,-259.5 200.82,-176.33 792.16,-134.1 1029.22,-120.51"/>
<polygon fill="black" stroke="black" points="1029.43,-124.01 1039.22,-119.95 1029.03,-117.02 1029.43,-124.01"/>
</g>
<!-- Node0x55dadfa913d8&#45;&gt;Node0x55dadfa92d28 -->
<g id="edge63" class="edge">
<title>Node0x55dadfa913d8&#45;&gt;Node0x55dadfa92d28</title>
<path fill="none" stroke="black" d="M350.79,-680.07C349.6,-649.38 349.93,-584.17 369.82,-534 413.13,-424.8 415.22,-372.21 517.82,-315 571.59,-285.02 727.32,-271.72 841,-265.9"/>
<polygon fill="black" stroke="black" points="841.36,-269.38 851.17,-265.39 841.01,-262.39 841.36,-269.38"/>
</g>
<!-- Node0x55dadfa913d8&#45;&gt;Node0x55dadfa921e8 -->
<g id="edge64" class="edge">
<title>Node0x55dadfa913d8&#45;&gt;Node0x55dadfa921e8</title>
<path fill="none" stroke="black" d="M353.21,-680.14C358.33,-627.79 380.89,-470.08 470.82,-388 501.11,-360.35 544.65,-346.88 582.3,-340.36"/>
<polygon fill="black" stroke="black" points="582.92,-343.8 592.24,-338.77 581.82,-336.89 582.92,-343.8"/>
</g>
<!-- Node0x55dadfa913d8&#45;&gt;Node0x55dadfa91658 -->
<g id="edge61" class="edge">
<title>Node0x55dadfa913d8&#45;&gt;Node0x55dadfa91658</title>
<path fill="none" stroke="black" d="M377.06,-680.44C450.52,-630.78 664.29,-486.27 747.31,-430.15"/>
<polygon fill="black" stroke="black" points="749.29,-433.04 755.62,-424.54 745.37,-427.24 749.29,-433.04"/>
</g>
<!-- Node0x55dadfa92f08 -->
<g id="node15" class="node">
<title>Node0x55dadfa92f08</title>
<polygon fill="none" stroke="black" points="390.82,-753.5 390.82,-789.5 534.82,-789.5 534.82,-753.5 390.82,-753.5"/>
<text text-anchor="middle" x="462.82" y="-767.8" font-family="Times,serif" font-size="14.00">lib/libLLVMCore.a</text>
</g>
<!-- Node0x55dadfa92f08&#45;&gt;Node0x55dadfa941c8 -->
<g id="edge66" class="edge">
<title>Node0x55dadfa92f08&#45;&gt;Node0x55dadfa941c8</title>
<path fill="none" stroke="black" d="M535.02,-758.15C580.96,-749.21 641.3,-735.45 692.82,-717 744.96,-698.33 801.63,-668.73 837.87,-648.51"/>
<polygon fill="black" stroke="black" points="839.63,-651.53 846.63,-643.58 836.2,-645.43 839.63,-651.53"/>
</g>
<!-- Node0x55dadfa92f08&#45;&gt;Node0x55dadfa93728 -->
<g id="edge67" class="edge">
<title>Node0x55dadfa92f08&#45;&gt;Node0x55dadfa93728</title>
<path fill="none" stroke="black" d="M535.07,-770.34C770.77,-769.37 1507.72,-762.69 1603.82,-717 1652.57,-693.82 1684.82,-680.48 1684.82,-626.5 1684.82,-626.5 1684.82,-626.5 1684.82,-259.5 1684.82,-165.24 1382.97,-131.75 1222.89,-120.62"/>
<polygon fill="black" stroke="black" points="1222.77,-117.11 1212.55,-119.92 1222.29,-124.09 1222.77,-117.11"/>
</g>
<!-- Node0x55dadfa92f08&#45;&gt;Node0x55dadfa92d28 -->
<g id="edge69" class="edge">
<title>Node0x55dadfa92f08&#45;&gt;Node0x55dadfa92d28</title>
<path fill="none" stroke="black" d="M535.12,-769.96C763.99,-767.82 1463,-757.98 1555.82,-717 1608,-693.96 1646.82,-683.54 1646.82,-626.5 1646.82,-626.5 1646.82,-626.5 1646.82,-551.5 1646.82,-349.17 1453.59,-366.13 1257.82,-315 1204.08,-300.96 1143.77,-289.17 1092.29,-280.25"/>
<polygon fill="black" stroke="black" points="1092.56,-276.75 1082.11,-278.51 1091.38,-283.65 1092.56,-276.75"/>
</g>
<!-- Node0x55dadfa92f08&#45;&gt;Node0x55dadfa921e8 -->
<g id="edge71" class="edge">
<title>Node0x55dadfa92f08&#45;&gt;Node0x55dadfa921e8</title>
<path fill="none" stroke="black" d="M470.04,-753.44C477.79,-735.21 490.5,-705.49 501.82,-680 554.96,-560.33 620.7,-418.5 647.54,-360.84"/>
<polygon fill="black" stroke="black" points="650.75,-362.24 651.8,-351.7 644.4,-359.28 650.75,-362.24"/>
</g>
<!-- Node0x55dadfa92f08&#45;&gt;Node0x55dadfa91658 -->
<g id="edge68" class="edge">
<title>Node0x55dadfa92f08&#45;&gt;Node0x55dadfa91658</title>
<path fill="none" stroke="black" d="M390.59,-765.65C321.65,-757.62 232.07,-736.33 259.82,-680 339.93,-517.41 559.57,-449.27 686.63,-422.78"/>
<polygon fill="black" stroke="black" points="687.65,-426.14 696.75,-420.72 686.25,-419.28 687.65,-426.14"/>
</g>
<!-- Node0x55dadfa92f08&#45;&gt;Node0x55dadfa92a08 -->
<g id="edge70" class="edge">
<title>Node0x55dadfa92f08&#45;&gt;Node0x55dadfa92a08</title>
<path fill="none" stroke="black" d="M390.72,-766.31C272.65,-758.78 48.46,-741.44 21.82,-717 -8.47,-689.22 2.82,-667.6 2.82,-626.5 2.82,-626.5 2.82,-626.5 2.82,-186.5 2.82,-90.95 105.4,-120.21 197.82,-96 302.3,-68.63 601.71,-53.21 768.01,-46.53"/>
<polygon fill="black" stroke="black" points="768.42,-50.02 778.28,-46.12 768.15,-43.02 768.42,-50.02"/>
</g>
<!-- Node0x55dadfa92f08&#45;&gt;Node0x55dadfa8ffd8 -->
<g id="edge72" class="edge">
<title>Node0x55dadfa92f08&#45;&gt;Node0x55dadfa8ffd8</title>
<path fill="none" stroke="black" d="M390.5,-755.44C338.86,-744.69 269,-730.14 213.45,-718.58"/>
<polygon fill="black" stroke="black" points="214.11,-715.14 203.61,-716.53 212.68,-721.99 214.11,-715.14"/>
</g>
<!-- Node0x55dadfa93908 -->
<g id="node16" class="node">
<title>Node0x55dadfa93908</title>
<polygon fill="none" stroke="black" points="511.32,-680.5 511.32,-716.5 684.32,-716.5 684.32,-680.5 511.32,-680.5"/>
<text text-anchor="middle" x="597.82" y="-694.8" font-family="Times,serif" font-size="14.00">lib/libLLVMRemarks.a</text>
</g>
<!-- Node0x55dadfa93908&#45;&gt;Node0x55dadfa941c8 -->
<g id="edge75" class="edge">
<title>Node0x55dadfa93908&#45;&gt;Node0x55dadfa941c8</title>
<path fill="none" stroke="black" d="M664.41,-680.49C704.86,-670.16 756.66,-656.93 798.86,-646.16"/>
<polygon fill="black" stroke="black" points="799.99,-649.48 808.81,-643.61 798.26,-642.7 799.99,-649.48"/>
</g>
<!-- Node0x55dadfa93908&#45;&gt;Node0x55dadfa92d28 -->
<g id="edge73" class="edge">
<title>Node0x55dadfa93908&#45;&gt;Node0x55dadfa92d28</title>
<path fill="none" stroke="black" d="M572.64,-680.4C521.14,-643.14 411.5,-550.75 446.82,-461 479.3,-378.48 504.13,-355.88 582.82,-315 626.67,-292.22 745.95,-278.04 840.61,-270.05"/>
<polygon fill="black" stroke="black" points="841.17,-273.52 850.85,-269.2 840.59,-266.54 841.17,-273.52"/>
</g>
<!-- Node0x55dadfa93908&#45;&gt;Node0x55dadfa921e8 -->
<g id="edge76" class="edge">
<title>Node0x55dadfa93908&#45;&gt;Node0x55dadfa921e8</title>
<path fill="none" stroke="black" d="M600.73,-680.48C610.61,-622.62 642.97,-433.15 655.14,-361.91"/>
<polygon fill="black" stroke="black" points="658.61,-362.35 656.85,-351.91 651.71,-361.17 658.61,-362.35"/>
</g>
<!-- Node0x55dadfa93908&#45;&gt;Node0x55dadfa91658 -->
<g id="edge74" class="edge">
<title>Node0x55dadfa93908&#45;&gt;Node0x55dadfa91658</title>
<path fill="none" stroke="black" d="M604.19,-680.31C611.36,-661.72 623.85,-631.46 637.82,-607 675.69,-540.72 730.58,-469.51 760.13,-432.73"/>
<polygon fill="black" stroke="black" points="763.16,-434.54 766.73,-424.56 757.72,-430.14 763.16,-434.54"/>
</g>
<!-- Node0x55dadfa93408 -->
<g id="node17" class="node">
<title>Node0x55dadfa93408</title>
<polygon fill="none" stroke="black" points="1017.32,-680.5 1017.32,-716.5 1248.32,-716.5 1248.32,-680.5 1017.32,-680.5"/>
<text text-anchor="middle" x="1132.82" y="-694.8" font-family="Times,serif" font-size="14.00">lib/libLLVMBitstreamReader.a</text>
</g>
<!-- Node0x55dadfa93408&#45;&gt;Node0x55dadfa941c8 -->
<g id="edge77" class="edge">
<title>Node0x55dadfa93408&#45;&gt;Node0x55dadfa941c8</title>
<path fill="none" stroke="black" d="M1071.26,-680.49C1034.03,-670.21 986.39,-657.05 947.46,-646.29"/>
<polygon fill="black" stroke="black" points="948.34,-642.9 937.77,-643.61 946.47,-649.65 948.34,-642.9"/>
</g>
<!-- Node0x55dadfa93408&#45;&gt;Node0x55dadfa92d28 -->
<g id="edge78" class="edge">
<title>Node0x55dadfa93408&#45;&gt;Node0x55dadfa92d28</title>
<path fill="none" stroke="black" d="M1217.81,-680.41C1283.33,-661.71 1362.82,-624.4 1362.82,-553.5 1362.82,-553.5 1362.82,-553.5 1362.82,-478.5 1362.82,-403.98 1143.53,-319.71 1032.57,-281.83"/>
<polygon fill="black" stroke="black" points="1033.42,-278.43 1022.82,-278.53 1031.17,-285.06 1033.42,-278.43"/>
</g>
<!-- Node0x55dadfa93408&#45;&gt;Node0x55dadfa91658 -->
<g id="edge79" class="edge">
<title>Node0x55dadfa93408&#45;&gt;Node0x55dadfa91658</title>
<path fill="none" stroke="black" d="M1131.49,-680.35C1129.49,-661.52 1124.58,-630.8 1112.82,-607 1094.03,-568.96 1025.75,-483.56 989.82,-461 978.9,-454.14 919.28,-439.19 866.49,-426.83"/>
<polygon fill="black" stroke="black" points="867.26,-423.41 856.73,-424.55 865.67,-430.23 867.26,-423.41"/>
</g>
</g>
</svg>
