<?xml version="1.0" encoding="UTF-8" standalone="no"?>
<!DOCTYPE svg PUBLIC "-//W3C//DTD SVG 1.1//EN"
 "http://www.w3.org/Graphics/SVG/1.1/DTD/svg11.dtd">
<!-- Generated by graphviz version 2.43.0 (0)
 -->
<!-- Title: bin/llvm&#45;profdata Pages: 1 -->
<svg width="530pt" height="433pt"
 viewBox="0.00 0.00 530.12 433.00" xmlns="http://www.w3.org/2000/svg" xmlns:xlink="http://www.w3.org/1999/xlink">
<g id="graph0" class="graph" transform="scale(1 1) rotate(0) translate(4 429)">
<title>bin/llvm&#45;profdata</title>
<polygon fill="white" stroke="transparent" points="-4,4 -4,-429 526.12,-429 526.12,4 -4,4"/>
<text text-anchor="middle" x="261.06" y="-7.8" font-family="Times,serif" font-size="14.00">bin/llvm&#45;profdata</text>
<!-- Node0x558576ee3f48 -->
<g id="node1" class="node">
<title>Node0x558576ee3f48</title>
<polygon fill="#ff7f7f" stroke="black" points="0,-315.5 0,-351.5 509,-351.5 509,-315.5 0,-315.5"/>
<text text-anchor="middle" x="254.5" y="-329.8" font-family="Times,serif" font-size="14.00">tools/llvm&#45;profdata/CMakeFiles/llvm&#45;profdata.dir/llvm&#45;profdata.cpp.o</text>
</g>
<!-- Node0x558576ee3b88 -->
<g id="node2" class="node">
<title>Node0x558576ee3b88</title>
<polygon fill="#ff7f7f" stroke="black" points="182.5,-242.5 182.5,-278.5 326.5,-278.5 326.5,-242.5 182.5,-242.5"/>
<text text-anchor="middle" x="254.5" y="-256.8" font-family="Times,serif" font-size="14.00">lib/libLLVMCore.a</text>
</g>
<!-- Node0x558576ee3f48&#45;&gt;Node0x558576ee3b88 -->
<g id="edge1" class="edge">
<title>Node0x558576ee3f48&#45;&gt;Node0x558576ee3b88</title>
<path fill="none" stroke="#ff7f7f" d="M248.62,-315.31C247.78,-307.29 247.55,-297.55 247.92,-288.57"/>
<polygon fill="#ff7f7f" stroke="#ff7f7f" points="251.42,-288.75 248.64,-278.53 244.44,-288.25 251.42,-288.75"/>
</g>
<!-- Node0x558576ee3638 -->
<g id="node3" class="node">
<title>Node0x558576ee3638</title>
<polygon fill="#ff7f7f" stroke="black" points="63,-23.5 63,-59.5 254,-59.5 254,-23.5 63,-23.5"/>
<text text-anchor="middle" x="158.5" y="-37.8" font-family="Times,serif" font-size="14.00">lib/libLLVMProfileData.a</text>
</g>
<!-- Node0x558576ee3f48&#45;&gt;Node0x558576ee3638 -->
<g id="edge2" class="edge">
<title>Node0x558576ee3f48&#45;&gt;Node0x558576ee3638</title>
<path fill="none" stroke="#ff7f7f" d="M205.41,-315.32C189.47,-306.73 173.63,-294.75 164.5,-279 125.75,-212.13 135.79,-116.04 147.44,-69.63"/>
<polygon fill="#ff7f7f" stroke="#ff7f7f" points="150.89,-70.3 150.17,-59.73 144.14,-68.44 150.89,-70.3"/>
</g>
<!-- Node0x558576ee51b8 -->
<g id="node4" class="node">
<title>Node0x558576ee51b8</title>
<polygon fill="#ff7f7f" stroke="black" points="279.5,-96.5 279.5,-132.5 447.5,-132.5 447.5,-96.5 279.5,-96.5"/>
<text text-anchor="middle" x="363.5" y="-110.8" font-family="Times,serif" font-size="14.00">lib/libLLVMSupport.a</text>
</g>
<!-- Node0x558576ee3f48&#45;&gt;Node0x558576ee51b8 -->
<g id="edge3" class="edge">
<title>Node0x558576ee3f48&#45;&gt;Node0x558576ee51b8</title>
<path fill="none" stroke="#ff7f7f" d="M305.43,-315.33C352.95,-297.15 420.52,-263.03 449.5,-206 456.95,-191.34 457.8,-183.2 449.5,-169 441.74,-155.72 429.33,-145.48 416.3,-137.69"/>
<polygon fill="#ff7f7f" stroke="#ff7f7f" points="417.68,-134.45 407.23,-132.68 414.29,-140.58 417.68,-134.45"/>
</g>
<!-- Node0x558576ee3b88&#45;&gt;Node0x558576ee3f48 -->
<g id="edge5" class="edge">
<title>Node0x558576ee3b88&#45;&gt;Node0x558576ee3f48</title>
<path fill="none" stroke="#ff7f7f" d="M260.36,-278.53C261.21,-286.53 261.45,-296.27 261.09,-305.25"/>
<polygon fill="#ff7f7f" stroke="#ff7f7f" points="257.59,-305.09 260.38,-315.31 264.57,-305.58 257.59,-305.09"/>
</g>
<!-- Node0x558576ee3b88&#45;&gt;Node0x558576ee51b8 -->
<g id="edge4" class="edge">
<title>Node0x558576ee3b88&#45;&gt;Node0x558576ee51b8</title>
<path fill="none" stroke="#ff7f7f" d="M246.17,-242.21C242.52,-222.7 243.48,-190.84 258.5,-169 267.77,-155.53 281.59,-145.08 296.22,-137.14"/>
<polygon fill="#ff7f7f" stroke="#ff7f7f" points="298.04,-140.14 305.4,-132.52 294.89,-133.89 298.04,-140.14"/>
</g>
<!-- Node0x558576ee42b8 -->
<g id="node5" class="node">
<title>Node0x558576ee42b8</title>
<polygon fill="#ff7f7f" stroke="black" points="277,-169.5 277,-205.5 450,-205.5 450,-169.5 277,-169.5"/>
<text text-anchor="middle" x="363.5" y="-183.8" font-family="Times,serif" font-size="14.00">lib/libLLVMRemarks.a</text>
</g>
<!-- Node0x558576ee3b88&#45;&gt;Node0x558576ee42b8 -->
<g id="edge6" class="edge">
<title>Node0x558576ee3b88&#45;&gt;Node0x558576ee42b8</title>
<path fill="none" stroke="#ff7f7f" d="M274.75,-242.49C288.2,-233.08 306.2,-221.26 322.51,-211.07"/>
<polygon fill="#ff7f7f" stroke="#ff7f7f" points="324.68,-213.84 331.36,-205.61 321.01,-207.89 324.68,-213.84"/>
</g>
<!-- Node0x558576ee3638&#45;&gt;Node0x558576ee3f48 -->
<g id="edge7" class="edge">
<title>Node0x558576ee3638&#45;&gt;Node0x558576ee3f48</title>
<path fill="none" stroke="#ff7f7f" d="M159.26,-59.73C155.66,-100.89 140.73,-206.92 182.5,-279 189.84,-291.67 201.54,-301.91 213.43,-309.9"/>
<polygon fill="#ff7f7f" stroke="#ff7f7f" points="211.73,-312.97 222.06,-315.32 215.45,-307.04 211.73,-312.97"/>
</g>
<!-- Node0x558576ee3638&#45;&gt;Node0x558576ee3b88 -->
<g id="edge8" class="edge">
<title>Node0x558576ee3638&#45;&gt;Node0x558576ee3b88</title>
<path fill="none" stroke="#ff7f7f" d="M166.13,-59.75C182.86,-97.57 222.88,-188.02 242.81,-233.07"/>
<polygon fill="#ff7f7f" stroke="#ff7f7f" points="239.72,-234.74 246.97,-242.47 246.12,-231.91 239.72,-234.74"/>
</g>
<!-- Node0x558576ee3638&#45;&gt;Node0x558576ee51b8 -->
<g id="edge9" class="edge">
<title>Node0x558576ee3638&#45;&gt;Node0x558576ee51b8</title>
<path fill="none" stroke="#ff7f7f" d="M213.78,-59.61C243.84,-69.66 280.78,-82.42 310.48,-93"/>
<polygon fill="#ff7f7f" stroke="#ff7f7f" points="309.66,-96.42 320.26,-96.49 312.02,-89.83 309.66,-96.42"/>
</g>
<!-- Node0x558576ee51b8&#45;&gt;Node0x558576ee3f48 -->
<g id="edge10" class="edge">
<title>Node0x558576ee51b8&#45;&gt;Node0x558576ee3f48</title>
<path fill="none" stroke="#ff7f7f" d="M423.9,-132.56C441.2,-140.8 457.9,-152.58 467.5,-169 475.8,-183.2 474.95,-191.34 467.5,-206 440.23,-259.66 378.79,-293.04 328.81,-311.94"/>
<polygon fill="#ff7f7f" stroke="#ff7f7f" points="327.49,-308.7 319.3,-315.42 329.89,-315.27 327.49,-308.7"/>
</g>
<!-- Node0x558576ee51b8&#45;&gt;Node0x558576ee3b88 -->
<g id="edge11" class="edge">
<title>Node0x558576ee51b8&#45;&gt;Node0x558576ee3b88</title>
<path fill="none" stroke="#ff7f7f" d="M321.96,-132.64C305.35,-140.99 287.64,-152.81 276.5,-169 263.88,-187.34 261.19,-212.75 259.85,-231.98"/>
<polygon fill="#ff7f7f" stroke="#ff7f7f" points="256.34,-232 259.18,-242.21 263.33,-232.46 256.34,-232"/>
</g>
<!-- Node0x558576ee51b8&#45;&gt;Node0x558576ee3638 -->
<g id="edge12" class="edge">
<title>Node0x558576ee51b8&#45;&gt;Node0x558576ee3638</title>
<path fill="none" stroke="#ff7f7f" d="M308.54,-96.49C278.53,-86.47 241.59,-73.71 211.84,-63.12"/>
<polygon fill="#ff7f7f" stroke="#ff7f7f" points="212.64,-59.69 202.04,-59.61 210.28,-66.28 212.64,-59.69"/>
</g>
<!-- Node0x558576ee5bb8 -->
<g id="node6" class="node">
<title>Node0x558576ee5bb8</title>
<polygon fill="#ff7f7f" stroke="black" points="272.5,-23.5 272.5,-59.5 454.5,-59.5 454.5,-23.5 272.5,-23.5"/>
<text text-anchor="middle" x="363.5" y="-37.8" font-family="Times,serif" font-size="14.00">lib/libLLVMDemangle.a</text>
</g>
<!-- Node0x558576ee51b8&#45;&gt;Node0x558576ee5bb8 -->
<g id="edge13" class="edge">
<title>Node0x558576ee51b8&#45;&gt;Node0x558576ee5bb8</title>
<path fill="none" stroke="#ff7f7f" d="M357.62,-96.31C356.78,-88.29 356.55,-78.55 356.92,-69.57"/>
<polygon fill="#ff7f7f" stroke="#ff7f7f" points="360.42,-69.75 357.64,-59.53 353.44,-69.25 360.42,-69.75"/>
</g>
<!-- Node0x558576ee42b8&#45;&gt;Node0x558576ee3f48 -->
<g id="edge15" class="edge">
<title>Node0x558576ee42b8&#45;&gt;Node0x558576ee3f48</title>
<path fill="none" stroke="#ff7f7f" d="M361.68,-205.74C358.87,-225.21 351.98,-257.03 335.5,-279 326.22,-291.38 313.17,-301.76 300.26,-309.98"/>
<polygon fill="#ff7f7f" stroke="#ff7f7f" points="298.15,-307.17 291.39,-315.33 301.76,-313.16 298.15,-307.17"/>
</g>
<!-- Node0x558576ee42b8&#45;&gt;Node0x558576ee3b88 -->
<g id="edge16" class="edge">
<title>Node0x558576ee42b8&#45;&gt;Node0x558576ee3b88</title>
<path fill="none" stroke="#ff7f7f" d="M343.1,-205.61C329.61,-215.05 311.6,-226.87 295.31,-237.04"/>
<polygon fill="#ff7f7f" stroke="#ff7f7f" points="293.14,-234.26 286.47,-242.49 296.82,-240.22 293.14,-234.26"/>
</g>
<!-- Node0x558576ee42b8&#45;&gt;Node0x558576ee51b8 -->
<g id="edge14" class="edge">
<title>Node0x558576ee42b8&#45;&gt;Node0x558576ee51b8</title>
<path fill="none" stroke="#ff7f7f" d="M363.5,-169.31C363.5,-161.29 363.5,-151.55 363.5,-142.57"/>
<polygon fill="#ff7f7f" stroke="#ff7f7f" points="367,-142.53 363.5,-132.53 360,-142.53 367,-142.53"/>
</g>
<!-- Node0x558576ee5bb8&#45;&gt;Node0x558576ee51b8 -->
<g id="edge17" class="edge">
<title>Node0x558576ee5bb8&#45;&gt;Node0x558576ee51b8</title>
<path fill="none" stroke="#ff7f7f" d="M369.36,-59.53C370.21,-67.53 370.45,-77.27 370.09,-86.25"/>
<polygon fill="#ff7f7f" stroke="#ff7f7f" points="366.59,-86.09 369.38,-96.31 373.57,-86.58 366.59,-86.09"/>
</g>
<!-- Node0x558576ee65b8 -->
<g id="node7" class="node">
<title>Node0x558576ee65b8</title>
<polygon fill="none" stroke="black" points="280,-388.5 280,-424.5 511,-424.5 511,-388.5 280,-388.5"/>
<text text-anchor="middle" x="395.5" y="-402.8" font-family="Times,serif" font-size="14.00">lib/libLLVMBitstreamReader.a</text>
</g>
<!-- Node0x558576ee65b8&#45;&gt;Node0x558576ee3f48 -->
<g id="edge18" class="edge">
<title>Node0x558576ee65b8&#45;&gt;Node0x558576ee3f48</title>
<path fill="none" stroke="black" d="M361.73,-388.49C342.51,-378.82 318.24,-366.6 297.65,-356.23"/>
<polygon fill="black" stroke="black" points="298.99,-352.99 288.49,-351.61 295.84,-359.24 298.99,-352.99"/>
</g>
<!-- Node0x558576ee65b8&#45;&gt;Node0x558576ee51b8 -->
<g id="edge19" class="edge">
<title>Node0x558576ee65b8&#45;&gt;Node0x558576ee51b8</title>
<path fill="none" stroke="black" d="M470.1,-388.5C488.68,-380.55 506.43,-368.94 517.5,-352 526.49,-338.23 519.32,-331.34 517.5,-315 510.12,-248.88 526.76,-220.38 484.5,-169 472.93,-154.93 456.91,-144.45 440.32,-136.67"/>
<polygon fill="black" stroke="black" points="441.63,-133.42 431.06,-132.63 438.82,-139.84 441.63,-133.42"/>
</g>
</g>
</svg>
