<?xml version="1.0" encoding="UTF-8" standalone="no"?>
<!DOCTYPE svg PUBLIC "-//W3C//DTD SVG 1.1//EN"
 "http://www.w3.org/Graphics/SVG/1.1/DTD/svg11.dtd">
<!-- Generated by graphviz version 2.43.0 (0)
 -->
<!-- Title: bin/llvm&#45;cxxdump Pages: 1 -->
<svg width="1512pt" height="725pt"
 viewBox="0.00 0.00 1512.00 725.00" xmlns="http://www.w3.org/2000/svg" xmlns:xlink="http://www.w3.org/1999/xlink">
<g id="graph0" class="graph" transform="scale(1 1) rotate(0) translate(4 721)">
<title>bin/llvm&#45;cxxdump</title>
<polygon fill="white" stroke="transparent" points="-4,4 -4,-721 1508,-721 1508,4 -4,4"/>
<text text-anchor="middle" x="752" y="-7.8" font-family="Times,serif" font-size="14.00">bin/llvm&#45;cxxdump</text>
<!-- Node0x557891fa3f48 -->
<g id="node1" class="node">
<title>Node0x557891fa3f48</title>
<polygon fill="#ff7f7f" stroke="black" points="497,-680.5 497,-716.5 1017,-716.5 1017,-680.5 497,-680.5"/>
<text text-anchor="middle" x="757" y="-694.8" font-family="Times,serif" font-size="14.00">tools/llvm&#45;cxxdump/CMakeFiles/llvm&#45;cxxdump.dir/llvm&#45;cxxdump.cpp.o</text>
</g>
<!-- Node0x557891fa1e28 -->
<g id="node2" class="node">
<title>Node0x557891fa1e28</title>
<polygon fill="none" stroke="black" points="0,-607.5 0,-643.5 458,-643.5 458,-607.5 0,-607.5"/>
<text text-anchor="middle" x="229" y="-621.8" font-family="Times,serif" font-size="14.00">tools/llvm&#45;cxxdump/CMakeFiles/llvm&#45;cxxdump.dir/Error.cpp.o</text>
</g>
<!-- Node0x557891fa3f48&#45;&gt;Node0x557891fa1e28 -->
<g id="edge1" class="edge">
<title>Node0x557891fa3f48&#45;&gt;Node0x557891fa1e28</title>
<path fill="none" stroke="black" d="M630.53,-680.49C550.8,-669.77 447.86,-655.93 366.17,-644.95"/>
<polygon fill="black" stroke="black" points="366.19,-641.42 355.81,-643.55 365.25,-648.35 366.19,-641.42"/>
</g>
<!-- Node0x557891fa69c8 -->
<g id="node3" class="node">
<title>Node0x557891fa69c8</title>
<polygon fill="#ff7f7f" stroke="black" points="794,-607.5 794,-643.5 960,-643.5 960,-607.5 794,-607.5"/>
<text text-anchor="middle" x="877" y="-621.8" font-family="Times,serif" font-size="14.00">lib/libLLVMX86Info.a</text>
</g>
<!-- Node0x557891fa3f48&#45;&gt;Node0x557891fa69c8 -->
<g id="edge2" class="edge">
<title>Node0x557891fa3f48&#45;&gt;Node0x557891fa69c8</title>
<path fill="none" stroke="#ff7f7f" d="M785.74,-680.49C801.8,-670.99 822.01,-659.04 839.32,-648.79"/>
<polygon fill="#ff7f7f" stroke="#ff7f7f" points="841.25,-651.72 848.08,-643.61 837.69,-645.69 841.25,-651.72"/>
</g>
<!-- Node0x557891fa6d38 -->
<g id="node4" class="node">
<title>Node0x557891fa6d38</title>
<polygon fill="#ff7f7f" stroke="black" points="918.5,-461.5 918.5,-497.5 1075.5,-497.5 1075.5,-461.5 918.5,-461.5"/>
<text text-anchor="middle" x="997" y="-475.8" font-family="Times,serif" font-size="14.00">lib/libLLVMObject.a</text>
</g>
<!-- Node0x557891fa3f48&#45;&gt;Node0x557891fa6d38 -->
<g id="edge3" class="edge">
<title>Node0x557891fa3f48&#45;&gt;Node0x557891fa6d38</title>
<path fill="none" stroke="#ff7f7f" d="M752.19,-680.16C752.37,-660.6 759.15,-628.69 776,-607 815.51,-556.12 881.71,-521.38 931.46,-501.36"/>
<polygon fill="#ff7f7f" stroke="#ff7f7f" points="932.83,-504.58 940.86,-497.68 930.28,-498.07 932.83,-504.58"/>
</g>
<!-- Node0x557891fa7288 -->
<g id="node5" class="node">
<title>Node0x557891fa7288</title>
<polygon fill="#ff7f7f" stroke="black" points="913,-534.5 913,-570.5 1081,-570.5 1081,-534.5 913,-534.5"/>
<text text-anchor="middle" x="997" y="-548.8" font-family="Times,serif" font-size="14.00">lib/libLLVMSupport.a</text>
</g>
<!-- Node0x557891fa3f48&#45;&gt;Node0x557891fa7288 -->
<g id="edge4" class="edge">
<title>Node0x557891fa3f48&#45;&gt;Node0x557891fa7288</title>
<path fill="none" stroke="#ff7f7f" d="M855.93,-680.48C899.39,-671.45 944.09,-659.09 960,-644 977.27,-627.62 983.97,-600.82 988.15,-580.63"/>
<polygon fill="#ff7f7f" stroke="#ff7f7f" points="991.59,-581.26 990.15,-570.76 984.73,-579.87 991.59,-581.26"/>
</g>
<!-- Node0x557891fa69c8&#45;&gt;Node0x557891fa7288 -->
<g id="edge5" class="edge">
<title>Node0x557891fa69c8&#45;&gt;Node0x557891fa7288</title>
<path fill="none" stroke="#ff7f7f" d="M905.74,-607.49C921.8,-597.99 942.01,-586.04 959.32,-575.79"/>
<polygon fill="#ff7f7f" stroke="#ff7f7f" points="961.25,-578.72 968.08,-570.61 957.69,-572.69 961.25,-578.72"/>
</g>
<!-- Node0x557891fa6d38&#45;&gt;Node0x557891fa3f48 -->
<g id="edge6" class="edge">
<title>Node0x557891fa6d38&#45;&gt;Node0x557891fa3f48</title>
<path fill="none" stroke="#ff7f7f" d="M954.47,-497.68C908.36,-516.96 836.06,-552.84 794,-607 779.72,-625.39 772.67,-651.11 767.7,-670.44"/>
<polygon fill="#ff7f7f" stroke="#ff7f7f" points="764.3,-669.6 765.19,-680.16 771.08,-671.35 764.3,-669.6"/>
</g>
<!-- Node0x557891fa6d38&#45;&gt;Node0x557891fa7288 -->
<g id="edge7" class="edge">
<title>Node0x557891fa6d38&#45;&gt;Node0x557891fa7288</title>
<path fill="none" stroke="#ff7f7f" d="M1002.86,-497.53C1003.71,-505.53 1003.95,-515.27 1003.59,-524.25"/>
<polygon fill="#ff7f7f" stroke="#ff7f7f" points="1000.09,-524.09 1002.88,-534.31 1007.07,-524.58 1000.09,-524.09"/>
</g>
<!-- Node0x557891faa258 -->
<g id="node6" class="node">
<title>Node0x557891faa258</title>
<polygon fill="#ff7f7f" stroke="black" points="952.5,-23.5 952.5,-59.5 1161.5,-59.5 1161.5,-23.5 952.5,-23.5"/>
<text text-anchor="middle" x="1057" y="-37.8" font-family="Times,serif" font-size="14.00">lib/libLLVMBinaryFormat.a</text>
</g>
<!-- Node0x557891fa6d38&#45;&gt;Node0x557891faa258 -->
<g id="edge8" class="edge">
<title>Node0x557891fa6d38&#45;&gt;Node0x557891faa258</title>
<path fill="none" stroke="#ff7f7f" d="M953.17,-461.44C905.29,-441.39 826.42,-408.29 756,-388 674.25,-364.44 644.51,-389.21 568,-352 512.9,-325.2 464,-322.77 464,-261.5 464,-261.5 464,-261.5 464,-186.5 464,-89.81 769.6,-57.65 942.07,-47.26"/>
<polygon fill="#ff7f7f" stroke="#ff7f7f" points="942.44,-50.75 952.22,-46.67 942.03,-43.76 942.44,-50.75"/>
</g>
<!-- Node0x557891fa92b8 -->
<g id="node7" class="node">
<title>Node0x557891fa92b8</title>
<polygon fill="#ff7f7f" stroke="black" points="1132.5,-388.5 1132.5,-424.5 1267.5,-424.5 1267.5,-388.5 1132.5,-388.5"/>
<text text-anchor="middle" x="1200" y="-402.8" font-family="Times,serif" font-size="14.00">lib/libLLVMMC.a</text>
</g>
<!-- Node0x557891fa6d38&#45;&gt;Node0x557891fa92b8 -->
<g id="edge9" class="edge">
<title>Node0x557891fa6d38&#45;&gt;Node0x557891fa92b8</title>
<path fill="none" stroke="#ff7f7f" d="M1039.76,-461.49C1067.6,-451.38 1104.36,-438.49 1135.67,-427.84"/>
<polygon fill="#ff7f7f" stroke="#ff7f7f" points="1136.85,-431.14 1145.2,-424.61 1134.6,-424.51 1136.85,-431.14"/>
</g>
<!-- Node0x557891fa77d8 -->
<g id="node8" class="node">
<title>Node0x557891fa77d8</title>
<polygon fill="#ff7f7f" stroke="black" points="838.5,-169.5 838.5,-205.5 1019.5,-205.5 1019.5,-169.5 838.5,-169.5"/>
<text text-anchor="middle" x="929" y="-183.8" font-family="Times,serif" font-size="14.00">lib/libLLVMBitReader.a</text>
</g>
<!-- Node0x557891fa6d38&#45;&gt;Node0x557891fa77d8 -->
<g id="edge10" class="edge">
<title>Node0x557891fa6d38&#45;&gt;Node0x557891fa77d8</title>
<path fill="none" stroke="#ff7f7f" d="M993.78,-461.36C991.99,-421.27 994.72,-318.91 963,-242 958.77,-231.75 951.94,-221.89 945.39,-213.49"/>
<polygon fill="#ff7f7f" stroke="#ff7f7f" points="948.04,-211.2 939.04,-205.61 942.59,-215.59 948.04,-211.2"/>
</g>
<!-- Node0x557891fa7c88 -->
<g id="node9" class="node">
<title>Node0x557891fa7c88</title>
<polygon fill="#ff7f7f" stroke="black" points="985,-96.5 985,-132.5 1129,-132.5 1129,-96.5 985,-96.5"/>
<text text-anchor="middle" x="1057" y="-110.8" font-family="Times,serif" font-size="14.00">lib/libLLVMCore.a</text>
</g>
<!-- Node0x557891fa6d38&#45;&gt;Node0x557891fa7c88 -->
<g id="edge11" class="edge">
<title>Node0x557891fa6d38&#45;&gt;Node0x557891fa7c88</title>
<path fill="none" stroke="#ff7f7f" d="M1003.61,-461.29C1018.01,-435.21 1048,-383.52 1048,-334.5 1048,-334.5 1048,-334.5 1048,-259.5 1048,-218.93 1048,-171.94 1050.29,-142.96"/>
<polygon fill="#ff7f7f" stroke="#ff7f7f" points="1053.8,-143.08 1051.29,-132.79 1046.83,-142.4 1053.8,-143.08"/>
</g>
<!-- Node0x557891fa8d18 -->
<g id="node10" class="node">
<title>Node0x557891fa8d18</title>
<polygon fill="#ff7f7f" stroke="black" points="1217,-315.5 1217,-351.5 1397,-351.5 1397,-315.5 1217,-315.5"/>
<text text-anchor="middle" x="1307" y="-329.8" font-family="Times,serif" font-size="14.00">lib/libLLVMMCParser.a</text>
</g>
<!-- Node0x557891fa6d38&#45;&gt;Node0x557891fa8d18 -->
<g id="edge12" class="edge">
<title>Node0x557891fa6d38&#45;&gt;Node0x557891fa8d18</title>
<path fill="none" stroke="#ff7f7f" d="M1075.6,-471.61C1145.08,-464.19 1239.53,-449.96 1268,-425 1286.13,-409.11 1293.34,-382.02 1297.84,-361.6"/>
<polygon fill="#ff7f7f" stroke="#ff7f7f" points="1301.31,-362.15 1300,-351.63 1294.46,-360.67 1301.31,-362.15"/>
</g>
<!-- Node0x557891fa9d58 -->
<g id="node11" class="node">
<title>Node0x557891fa9d58</title>
<polygon fill="#ff7f7f" stroke="black" points="590,-388.5 590,-424.5 756,-424.5 756,-388.5 590,-388.5"/>
<text text-anchor="middle" x="673" y="-402.8" font-family="Times,serif" font-size="14.00">lib/libLLVMTextAPI.a</text>
</g>
<!-- Node0x557891fa6d38&#45;&gt;Node0x557891fa9d58 -->
<g id="edge13" class="edge">
<title>Node0x557891fa6d38&#45;&gt;Node0x557891fa9d58</title>
<path fill="none" stroke="#ff7f7f" d="M918.13,-462.48C868.54,-451.88 804.73,-437.92 754.62,-426.72"/>
<polygon fill="#ff7f7f" stroke="#ff7f7f" points="755.32,-423.29 744.79,-424.52 753.79,-430.12 755.32,-423.29"/>
</g>
<!-- Node0x557891fa7288&#45;&gt;Node0x557891fa3f48 -->
<g id="edge15" class="edge">
<title>Node0x557891fa7288&#45;&gt;Node0x557891fa3f48</title>
<path fill="none" stroke="#ff7f7f" d="M1002.88,-570.76C1003.98,-591.16 998.29,-624.76 978,-644 963.28,-657.97 923.87,-669.6 882.3,-678.41"/>
<polygon fill="#ff7f7f" stroke="#ff7f7f" points="881.37,-675.03 872.28,-680.48 882.78,-681.89 881.37,-675.03"/>
</g>
<!-- Node0x557891fa7288&#45;&gt;Node0x557891fa6d38 -->
<g id="edge14" class="edge">
<title>Node0x557891fa7288&#45;&gt;Node0x557891fa6d38</title>
<path fill="none" stroke="#ff7f7f" d="M991.12,-534.31C990.28,-526.29 990.05,-516.55 990.42,-507.57"/>
<polygon fill="#ff7f7f" stroke="#ff7f7f" points="993.92,-507.75 991.14,-497.53 986.94,-507.25 993.92,-507.75"/>
</g>
<!-- Node0x557891faa258&#45;&gt;Node0x557891fa6d38 -->
<g id="edge17" class="edge">
<title>Node0x557891faa258&#45;&gt;Node0x557891fa6d38</title>
<path fill="none" stroke="#ff7f7f" d="M952.42,-47.32C786.57,-57.76 482,-89.97 482,-186.5 482,-261.5 482,-261.5 482,-261.5 482,-322.77 530.9,-325.2 586,-352 662.51,-389.21 692.25,-364.44 774,-388 839.6,-406.9 912.55,-436.92 956.7,-457.15"/>
<polygon fill="#ff7f7f" stroke="#ff7f7f" points="955.4,-460.4 965.94,-461.44 958.34,-454.05 955.4,-460.4"/>
</g>
<!-- Node0x557891faa258&#45;&gt;Node0x557891fa7288 -->
<g id="edge18" class="edge">
<title>Node0x557891faa258&#45;&gt;Node0x557891fa7288</title>
<path fill="none" stroke="#ff7f7f" d="M1161.53,-58.16C1282.71,-79.32 1466,-121.99 1466,-186.5 1466,-407.5 1466,-407.5 1466,-407.5 1466,-485.14 1228.14,-525.23 1091.2,-541.87"/>
<polygon fill="#ff7f7f" stroke="#ff7f7f" points="1090.63,-538.42 1081.12,-543.08 1091.46,-545.37 1090.63,-538.42"/>
</g>
<!-- Node0x557891faa258&#45;&gt;Node0x557891fa7c88 -->
<g id="edge16" class="edge">
<title>Node0x557891faa258&#45;&gt;Node0x557891fa7c88</title>
<path fill="none" stroke="#ff7f7f" d="M1062.86,-59.53C1063.71,-67.53 1063.95,-77.27 1063.59,-86.25"/>
<polygon fill="#ff7f7f" stroke="#ff7f7f" points="1060.09,-86.09 1062.88,-96.31 1067.07,-86.58 1060.09,-86.09"/>
</g>
<!-- Node0x557891fa92b8&#45;&gt;Node0x557891fa6d38 -->
<g id="edge19" class="edge">
<title>Node0x557891fa92b8&#45;&gt;Node0x557891fa6d38</title>
<path fill="none" stroke="#ff7f7f" d="M1156.94,-424.61C1129.04,-434.75 1092.27,-447.64 1061,-458.27"/>
<polygon fill="#ff7f7f" stroke="#ff7f7f" points="1059.83,-454.97 1051.48,-461.49 1062.08,-461.6 1059.83,-454.97"/>
</g>
<!-- Node0x557891fa92b8&#45;&gt;Node0x557891fa7288 -->
<g id="edge20" class="edge">
<title>Node0x557891fa92b8&#45;&gt;Node0x557891fa7288</title>
<path fill="none" stroke="#ff7f7f" d="M1187.83,-424.84C1173.17,-444.69 1146.88,-477.15 1118,-498 1099.76,-511.18 1077.75,-522.1 1057.54,-530.57"/>
<polygon fill="#ff7f7f" stroke="#ff7f7f" points="1056.04,-527.4 1048.09,-534.41 1058.67,-533.89 1056.04,-527.4"/>
</g>
<!-- Node0x557891fa92b8&#45;&gt;Node0x557891faa258 -->
<g id="edge23" class="edge">
<title>Node0x557891fa92b8&#45;&gt;Node0x557891faa258</title>
<path fill="none" stroke="#ff7f7f" d="M1200.94,-388.36C1202.81,-338.58 1202.25,-191.47 1138,-96 1129.51,-83.39 1116.95,-73.03 1104.24,-64.89"/>
<polygon fill="#ff7f7f" stroke="#ff7f7f" points="1105.84,-61.77 1095.47,-59.61 1102.23,-67.76 1105.84,-61.77"/>
</g>
<!-- Node0x557891fa92b8&#45;&gt;Node0x557891fa7c88 -->
<g id="edge21" class="edge">
<title>Node0x557891fa92b8&#45;&gt;Node0x557891fa7c88</title>
<path fill="none" stroke="#ff7f7f" d="M1191.48,-388.23C1167.44,-339.47 1098.92,-200.52 1070.07,-142"/>
<polygon fill="#ff7f7f" stroke="#ff7f7f" points="1073.03,-140.1 1065.47,-132.68 1066.76,-143.2 1073.03,-140.1"/>
</g>
<!-- Node0x557891fa92b8&#45;&gt;Node0x557891fa8d18 -->
<g id="edge22" class="edge">
<title>Node0x557891fa92b8&#45;&gt;Node0x557891fa8d18</title>
<path fill="none" stroke="#ff7f7f" d="M1219.77,-388.49C1232.96,-379.08 1250.62,-367.26 1266.64,-357.07"/>
<polygon fill="#ff7f7f" stroke="#ff7f7f" points="1268.73,-359.9 1275.34,-351.61 1265.01,-353.97 1268.73,-359.9"/>
</g>
<!-- Node0x557891fa77d8&#45;&gt;Node0x557891fa3f48 -->
<g id="edge24" class="edge">
<title>Node0x557891fa77d8&#45;&gt;Node0x557891fa3f48</title>
<path fill="none" stroke="#ff7f7f" d="M838.47,-192.65C749.6,-201.8 616.8,-229.94 542,-315 491.28,-372.68 486,-401.69 486,-478.5 486,-553.5 486,-553.5 486,-553.5 486,-599.24 498.74,-616.12 535,-644 554.2,-658.76 576.87,-669.52 600.27,-677.36"/>
<polygon fill="#ff7f7f" stroke="#ff7f7f" points="599.39,-680.75 609.98,-680.43 601.5,-674.08 599.39,-680.75"/>
</g>
<!-- Node0x557891fa77d8&#45;&gt;Node0x557891fa6d38 -->
<g id="edge25" class="edge">
<title>Node0x557891fa77d8&#45;&gt;Node0x557891fa6d38</title>
<path fill="none" stroke="#ff7f7f" d="M954.99,-205.61C965.1,-215.36 975.37,-228.34 981,-242 1010.37,-313.2 1010.21,-406.22 1004.48,-451.44"/>
<polygon fill="#ff7f7f" stroke="#ff7f7f" points="1001.01,-450.96 1003.01,-461.36 1007.94,-451.99 1001.01,-450.96"/>
</g>
<!-- Node0x557891fa77d8&#45;&gt;Node0x557891fa7288 -->
<g id="edge26" class="edge">
<title>Node0x557891fa77d8&#45;&gt;Node0x557891fa7288</title>
<path fill="none" stroke="#ff7f7f" d="M979.62,-205.54C1031.3,-226.53 1104,-267.58 1104,-332.5 1104,-407.5 1104,-407.5 1104,-407.5 1104,-448.6 1108.74,-464.45 1085,-498 1075.85,-510.93 1062.5,-521.32 1048.94,-529.38"/>
<polygon fill="#ff7f7f" stroke="#ff7f7f" points="1047.07,-526.41 1040.05,-534.34 1050.48,-532.52 1047.07,-526.41"/>
</g>
<!-- Node0x557891fa77d8&#45;&gt;Node0x557891fa7c88 -->
<g id="edge27" class="edge">
<title>Node0x557891fa77d8&#45;&gt;Node0x557891fa7c88</title>
<path fill="none" stroke="#ff7f7f" d="M953.8,-169.49C970.14,-159.86 991.91,-147.71 1011.28,-137.37"/>
<polygon fill="#ff7f7f" stroke="#ff7f7f" points="1013.07,-140.38 1020.28,-132.61 1009.8,-134.2 1013.07,-140.38"/>
</g>
<!-- Node0x557891fa8818 -->
<g id="node12" class="node">
<title>Node0x557891fa8818</title>
<polygon fill="#ff7f7f" stroke="black" points="732.5,-242.5 732.5,-278.5 963.5,-278.5 963.5,-242.5 732.5,-242.5"/>
<text text-anchor="middle" x="848" y="-256.8" font-family="Times,serif" font-size="14.00">lib/libLLVMBitstreamReader.a</text>
</g>
<!-- Node0x557891fa77d8&#45;&gt;Node0x557891fa8818 -->
<g id="edge28" class="edge">
<title>Node0x557891fa77d8&#45;&gt;Node0x557891fa8818</title>
<path fill="none" stroke="#ff7f7f" d="M915.43,-205.53C906.07,-214.57 893.41,-225.83 881.53,-235.73"/>
<polygon fill="#ff7f7f" stroke="#ff7f7f" points="879.01,-233.27 873.49,-242.31 883.44,-238.69 879.01,-233.27"/>
</g>
<!-- Node0x557891fa7c88&#45;&gt;Node0x557891fa3f48 -->
<g id="edge29" class="edge">
<title>Node0x557891fa7c88&#45;&gt;Node0x557891fa3f48</title>
<path fill="none" stroke="#ff7f7f" d="M1129.18,-122.12C1181.52,-128.93 1253.01,-142.48 1311,-169 1434.38,-225.42 1504,-269.83 1504,-405.5 1504,-553.5 1504,-553.5 1504,-553.5 1504,-610.2 1167.83,-655.63 946.52,-679.4"/>
<polygon fill="#ff7f7f" stroke="#ff7f7f" points="945.97,-675.94 936.4,-680.48 946.72,-682.9 945.97,-675.94"/>
</g>
<!-- Node0x557891fa7c88&#45;&gt;Node0x557891fa6d38 -->
<g id="edge30" class="edge">
<title>Node0x557891fa7c88&#45;&gt;Node0x557891fa6d38</title>
<path fill="none" stroke="#ff7f7f" d="M1062.71,-132.79C1066,-159.82 1066,-213.75 1066,-259.5 1066,-334.5 1066,-334.5 1066,-334.5 1066,-378.93 1041.37,-425.54 1021.3,-453.3"/>
<polygon fill="#ff7f7f" stroke="#ff7f7f" points="1018.5,-451.2 1015.25,-461.29 1024.08,-455.43 1018.5,-451.2"/>
</g>
<!-- Node0x557891fa7c88&#45;&gt;Node0x557891fa7288 -->
<g id="edge31" class="edge">
<title>Node0x557891fa7c88&#45;&gt;Node0x557891fa7288</title>
<path fill="none" stroke="#ff7f7f" d="M1129.02,-129.74C1245.37,-156.71 1456.79,-224.31 1406,-352 1373,-434.96 1346.18,-454.86 1268,-498 1213.95,-527.83 1145.72,-541.19 1091.25,-547.1"/>
<polygon fill="#ff7f7f" stroke="#ff7f7f" points="1090.84,-543.62 1081.25,-548.11 1091.55,-550.58 1090.84,-543.62"/>
</g>
<!-- Node0x557891fa7c88&#45;&gt;Node0x557891faa258 -->
<g id="edge33" class="edge">
<title>Node0x557891fa7c88&#45;&gt;Node0x557891faa258</title>
<path fill="none" stroke="#ff7f7f" d="M1051.12,-96.31C1050.28,-88.29 1050.05,-78.55 1050.42,-69.57"/>
<polygon fill="#ff7f7f" stroke="#ff7f7f" points="1053.92,-69.75 1051.14,-59.53 1046.94,-69.25 1053.92,-69.75"/>
</g>
<!-- Node0x557891fa7c88&#45;&gt;Node0x557891fa77d8 -->
<g id="edge32" class="edge">
<title>Node0x557891fa7c88&#45;&gt;Node0x557891fa77d8</title>
<path fill="none" stroke="#ff7f7f" d="M1032.02,-132.61C1015.63,-142.27 993.85,-154.42 974.5,-164.74"/>
<polygon fill="#ff7f7f" stroke="#ff7f7f" points="972.72,-161.73 965.52,-169.49 975.99,-167.91 972.72,-161.73"/>
</g>
<!-- Node0x557891fa8138 -->
<g id="node13" class="node">
<title>Node0x557891fa8138</title>
<polygon fill="#ff7f7f" stroke="black" points="586.5,-315.5 586.5,-351.5 759.5,-351.5 759.5,-315.5 586.5,-315.5"/>
<text text-anchor="middle" x="673" y="-329.8" font-family="Times,serif" font-size="14.00">lib/libLLVMRemarks.a</text>
</g>
<!-- Node0x557891fa7c88&#45;&gt;Node0x557891fa8138 -->
<g id="edge34" class="edge">
<title>Node0x557891fa7c88&#45;&gt;Node0x557891fa8138</title>
<path fill="none" stroke="#ff7f7f" d="M984.77,-117.98C900.88,-125.39 765.69,-151.76 699,-242 685.53,-260.22 681.77,-286.01 679.56,-305.4"/>
<polygon fill="#ff7f7f" stroke="#ff7f7f" points="676.07,-305.1 678.44,-315.43 683.03,-305.88 676.07,-305.1"/>
</g>
<!-- Node0x557891fa8d18&#45;&gt;Node0x557891fa3f48 -->
<g id="edge35" class="edge">
<title>Node0x557891fa8d18&#45;&gt;Node0x557891fa3f48</title>
<path fill="none" stroke="#ff7f7f" d="M1316.99,-351.51C1326.47,-369.94 1338.04,-400.07 1329,-425 1314.58,-464.75 1300.65,-471.14 1268,-498 1163.85,-583.67 1128.29,-596.68 1002,-644 962.26,-658.89 917.27,-670.19 876.79,-678.49"/>
<polygon fill="#ff7f7f" stroke="#ff7f7f" points="875.99,-675.08 866.87,-680.48 877.36,-681.94 875.99,-675.08"/>
</g>
<!-- Node0x557891fa8d18&#45;&gt;Node0x557891fa6d38 -->
<g id="edge36" class="edge">
<title>Node0x557891fa8d18&#45;&gt;Node0x557891fa6d38</title>
<path fill="none" stroke="#ff7f7f" d="M1312.63,-351.63C1313.52,-372.23 1307.28,-406.34 1286,-425 1257.03,-450.39 1159.75,-464.69 1085.93,-471.99"/>
<polygon fill="#ff7f7f" stroke="#ff7f7f" points="1085.3,-468.54 1075.68,-472.98 1085.97,-475.5 1085.3,-468.54"/>
</g>
<!-- Node0x557891fa8d18&#45;&gt;Node0x557891fa7288 -->
<g id="edge37" class="edge">
<title>Node0x557891fa8d18&#45;&gt;Node0x557891fa7288</title>
<path fill="none" stroke="#ff7f7f" d="M1313.26,-351.7C1319.17,-371.13 1325.2,-402.91 1311,-425 1263.8,-498.42 1165.68,-529.23 1091.62,-542.15"/>
<polygon fill="#ff7f7f" stroke="#ff7f7f" points="1090.62,-538.77 1081.33,-543.86 1091.77,-545.68 1090.62,-538.77"/>
</g>
<!-- Node0x557891fa8d18&#45;&gt;Node0x557891fa92b8 -->
<g id="edge38" class="edge">
<title>Node0x557891fa8d18&#45;&gt;Node0x557891fa92b8</title>
<path fill="none" stroke="#ff7f7f" d="M1287.08,-351.61C1273.86,-361.05 1256.19,-372.87 1240.17,-383.04"/>
<polygon fill="#ff7f7f" stroke="#ff7f7f" points="1238.1,-380.21 1231.49,-388.49 1241.82,-386.14 1238.1,-380.21"/>
</g>
<!-- Node0x557891fa8d18&#45;&gt;Node0x557891fa7c88 -->
<g id="edge39" class="edge">
<title>Node0x557891fa8d18&#45;&gt;Node0x557891fa7c88</title>
<path fill="none" stroke="#ff7f7f" d="M1295.02,-315.34C1272.02,-283.32 1218.79,-213.71 1161,-169 1144.86,-156.51 1125.37,-145.59 1107.64,-136.92"/>
<polygon fill="#ff7f7f" stroke="#ff7f7f" points="1109.1,-133.73 1098.56,-132.6 1106.09,-140.06 1109.1,-133.73"/>
</g>
<!-- Node0x557891fa9d58&#45;&gt;Node0x557891fa3f48 -->
<g id="edge41" class="edge">
<title>Node0x557891fa9d58&#45;&gt;Node0x557891fa3f48</title>
<path fill="none" stroke="#ff7f7f" d="M677.98,-424.68C692.04,-473.23 732.15,-611.7 749.19,-670.53"/>
<polygon fill="#ff7f7f" stroke="#ff7f7f" points="745.85,-671.6 752,-680.23 752.58,-669.65 745.85,-671.6"/>
</g>
<!-- Node0x557891fa9d58&#45;&gt;Node0x557891fa6d38 -->
<g id="edge42" class="edge">
<title>Node0x557891fa9d58&#45;&gt;Node0x557891fa6d38</title>
<path fill="none" stroke="#ff7f7f" d="M756.1,-424.43C805.06,-434.91 866.69,-448.4 915.38,-459.28"/>
<polygon fill="#ff7f7f" stroke="#ff7f7f" points="914.73,-462.72 925.25,-461.49 916.26,-455.89 914.73,-462.72"/>
</g>
<!-- Node0x557891fa9d58&#45;&gt;Node0x557891fa7288 -->
<g id="edge40" class="edge">
<title>Node0x557891fa9d58&#45;&gt;Node0x557891fa7288</title>
<path fill="none" stroke="#ff7f7f" d="M686.49,-424.66C703.66,-445.29 735.27,-479.43 770,-498 810.82,-519.83 860.46,-532.83 902.9,-540.54"/>
<polygon fill="#ff7f7f" stroke="#ff7f7f" points="902.5,-544.02 912.95,-542.29 903.7,-537.13 902.5,-544.02"/>
</g>
<!-- Node0x557891fa9d58&#45;&gt;Node0x557891fa8138 -->
<g id="edge43" class="edge">
<title>Node0x557891fa9d58&#45;&gt;Node0x557891fa8138</title>
<path fill="none" stroke="#ff7f7f" d="M673,-388.31C673,-380.29 673,-370.55 673,-361.57"/>
<polygon fill="#ff7f7f" stroke="#ff7f7f" points="676.5,-361.53 673,-351.53 669.5,-361.53 676.5,-361.53"/>
</g>
<!-- Node0x557891fa8818&#45;&gt;Node0x557891fa3f48 -->
<g id="edge44" class="edge">
<title>Node0x557891fa8818&#45;&gt;Node0x557891fa3f48</title>
<path fill="none" stroke="#ff7f7f" d="M732.25,-272.63C669.56,-280.88 600.26,-294.34 577,-315 519.88,-365.72 524,-402.11 524,-478.5 524,-553.5 524,-553.5 524,-553.5 524,-600.57 541.77,-615.2 579,-644 598.18,-658.84 621.44,-669.57 644.73,-677.34"/>
<polygon fill="#ff7f7f" stroke="#ff7f7f" points="643.75,-680.7 654.34,-680.38 645.87,-674.02 643.75,-680.7"/>
</g>
<!-- Node0x557891fa8818&#45;&gt;Node0x557891fa6d38 -->
<g id="edge45" class="edge">
<title>Node0x557891fa8818&#45;&gt;Node0x557891fa6d38</title>
<path fill="none" stroke="#ff7f7f" d="M859.84,-278.75C886.03,-316.89 948.97,-408.55 979.63,-453.2"/>
<polygon fill="#ff7f7f" stroke="#ff7f7f" points="976.76,-455.21 985.31,-461.47 982.53,-451.25 976.76,-455.21"/>
</g>
<!-- Node0x557891fa8818&#45;&gt;Node0x557891fa7288 -->
<g id="edge46" class="edge">
<title>Node0x557891fa8818&#45;&gt;Node0x557891fa7288</title>
<path fill="none" stroke="#ff7f7f" d="M848.26,-278.5C849.72,-320.09 858.56,-428.61 910,-498 919.53,-510.85 933.15,-521.29 946.79,-529.42"/>
<polygon fill="#ff7f7f" stroke="#ff7f7f" points="945.29,-532.59 955.72,-534.43 948.71,-526.49 945.29,-532.59"/>
</g>
<!-- Node0x557891fa8818&#45;&gt;Node0x557891fa77d8 -->
<g id="edge47" class="edge">
<title>Node0x557891fa8818&#45;&gt;Node0x557891fa77d8</title>
<path fill="none" stroke="#ff7f7f" d="M861.73,-242.31C871.13,-233.24 883.81,-221.98 895.67,-212.1"/>
<polygon fill="#ff7f7f" stroke="#ff7f7f" points="898.19,-214.57 903.71,-205.53 893.75,-209.15 898.19,-214.57"/>
</g>
<!-- Node0x557891fa8818&#45;&gt;Node0x557891fa8138 -->
<g id="edge48" class="edge">
<title>Node0x557891fa8818&#45;&gt;Node0x557891fa8138</title>
<path fill="none" stroke="#ff7f7f" d="M811.69,-278.61C788.19,-288.57 757.19,-301.19 730.42,-311.72"/>
<polygon fill="#ff7f7f" stroke="#ff7f7f" points="728.81,-308.59 720.78,-315.49 731.36,-315.11 728.81,-308.59"/>
</g>
<!-- Node0x557891fa8138&#45;&gt;Node0x557891fa3f48 -->
<g id="edge51" class="edge">
<title>Node0x557891fa8138&#45;&gt;Node0x557891fa3f48</title>
<path fill="none" stroke="#ff7f7f" d="M627.07,-351.73C610.21,-360.22 592.47,-372.12 581,-388 556.94,-421.32 562,-437.4 562,-478.5 562,-553.5 562,-553.5 562,-553.5 562,-617.25 630.28,-655.98 686.03,-676.97"/>
<polygon fill="#ff7f7f" stroke="#ff7f7f" points="684.97,-680.31 695.57,-680.44 687.37,-673.73 684.97,-680.31"/>
</g>
<!-- Node0x557891fa8138&#45;&gt;Node0x557891fa6d38 -->
<g id="edge53" class="edge">
<title>Node0x557891fa8138&#45;&gt;Node0x557891fa6d38</title>
<path fill="none" stroke="#ff7f7f" d="M759.51,-345.95C801.2,-353.84 850.94,-366.86 892,-388 909.26,-396.89 946.46,-430.51 971.62,-454.16"/>
<polygon fill="#ff7f7f" stroke="#ff7f7f" points="969.33,-456.82 979,-461.15 974.14,-451.73 969.33,-456.82"/>
</g>
<!-- Node0x557891fa8138&#45;&gt;Node0x557891fa7288 -->
<g id="edge49" class="edge">
<title>Node0x557891fa8138&#45;&gt;Node0x557891fa7288</title>
<path fill="none" stroke="#ff7f7f" d="M704.66,-351.65C722.68,-361.72 745.47,-374.99 765,-388 832.31,-432.86 843.25,-452.31 910,-498 925.66,-508.72 943.42,-519.82 958.8,-529.12"/>
<polygon fill="#ff7f7f" stroke="#ff7f7f" points="957.17,-532.22 967.55,-534.36 960.77,-526.22 957.17,-532.22"/>
</g>
<!-- Node0x557891fa8138&#45;&gt;Node0x557891fa77d8 -->
<g id="edge50" class="edge">
<title>Node0x557891fa8138&#45;&gt;Node0x557891fa77d8</title>
<path fill="none" stroke="#ff7f7f" d="M677.86,-315.42C684.59,-294.88 698.75,-260.82 723,-242 753.02,-218.7 792.16,-205.49 828.25,-198.02"/>
<polygon fill="#ff7f7f" stroke="#ff7f7f" points="829.19,-201.4 838.34,-196.06 827.85,-194.53 829.19,-201.4"/>
</g>
<!-- Node0x557891fa8138&#45;&gt;Node0x557891fa7c88 -->
<g id="edge52" class="edge">
<title>Node0x557891fa8138&#45;&gt;Node0x557891fa7c88</title>
<path fill="none" stroke="#ff7f7f" d="M665.53,-315.43C662.7,-295.82 665.04,-263.6 681,-242 748.5,-150.67 886.14,-124.76 974.91,-117.72"/>
<polygon fill="#ff7f7f" stroke="#ff7f7f" points="975.24,-121.21 984.95,-116.99 974.73,-114.23 975.24,-121.21"/>
</g>
<!-- Node0x557891fa8138&#45;&gt;Node0x557891fa8818 -->
<g id="edge54" class="edge">
<title>Node0x557891fa8138&#45;&gt;Node0x557891fa8818</title>
<path fill="none" stroke="#ff7f7f" d="M709.06,-315.49C732.5,-305.56 763.49,-292.93 790.29,-282.39"/>
<polygon fill="#ff7f7f" stroke="#ff7f7f" points="791.91,-285.52 799.95,-278.61 789.36,-279 791.91,-285.52"/>
</g>
</g>
</svg>
