<?xml version="1.0" encoding="UTF-8" standalone="no"?>
<!DOCTYPE svg PUBLIC "-//W3C//DTD SVG 1.1//EN"
 "http://www.w3.org/Graphics/SVG/1.1/DTD/svg11.dtd">
<!-- Generated by graphviz version 2.43.0 (0)
 -->
<!-- Title: bin/llvm&#45;readobj Pages: 1 -->
<svg width="3139pt" height="1528pt"
 viewBox="0.00 0.00 3139.09 1528.00" xmlns="http://www.w3.org/2000/svg" xmlns:xlink="http://www.w3.org/1999/xlink">
<g id="graph0" class="graph" transform="scale(1 1) rotate(0) translate(4 1524)">
<title>bin/llvm&#45;readobj</title>
<polygon fill="white" stroke="transparent" points="-4,4 -4,-1524 3135.09,-1524 3135.09,4 -4,4"/>
<text text-anchor="middle" x="1565.55" y="-7.8" font-family="Times,serif" font-size="14.00">bin/llvm&#45;readobj</text>
<!-- Node0x55b28950ee38 -->
<g id="node1" class="node">
<title>Node0x55b28950ee38</title>
<polygon fill="#ff7f7f" stroke="black" points="1444.5,-1483.5 1444.5,-1519.5 1977.5,-1519.5 1977.5,-1483.5 1444.5,-1483.5"/>
<text text-anchor="middle" x="1711" y="-1497.8" font-family="Times,serif" font-size="14.00">tools/llvm&#45;readobj/CMakeFiles/llvm&#45;readobj.dir/ARMWinEHPrinter.cpp.o</text>
</g>
<!-- Node0x55b28950c1d8 -->
<g id="node2" class="node">
<title>Node0x55b28950c1d8</title>
<polygon fill="#ff7f7f" stroke="black" points="1080.5,-1410.5 1080.5,-1446.5 1237.5,-1446.5 1237.5,-1410.5 1080.5,-1410.5"/>
<text text-anchor="middle" x="1159" y="-1424.8" font-family="Times,serif" font-size="14.00">lib/libLLVMObject.a</text>
</g>
<!-- Node0x55b28950ee38&#45;&gt;Node0x55b28950c1d8 -->
<g id="edge1" class="edge">
<title>Node0x55b28950ee38&#45;&gt;Node0x55b28950c1d8</title>
<path fill="none" stroke="#ff7f7f" d="M1572.92,-1483.49C1470.97,-1470.56 1335.26,-1453.07 1247.48,-1441.55"/>
<polygon fill="#ff7f7f" stroke="#ff7f7f" points="1247.92,-1438.08 1237.55,-1440.25 1247.01,-1445.02 1247.92,-1438.08"/>
</g>
<!-- Node0x55b28950b7d8 -->
<g id="node3" class="node">
<title>Node0x55b28950b7d8</title>
<polygon fill="#ff7f7f" stroke="black" points="1625,-169.5 1625,-205.5 1793,-205.5 1793,-169.5 1625,-169.5"/>
<text text-anchor="middle" x="1709" y="-183.8" font-family="Times,serif" font-size="14.00">lib/libLLVMSupport.a</text>
</g>
<!-- Node0x55b28950ee38&#45;&gt;Node0x55b28950b7d8 -->
<g id="edge2" class="edge">
<title>Node0x55b28950ee38&#45;&gt;Node0x55b28950b7d8</title>
<path fill="none" stroke="#ff7f7f" d="M1444.18,-1498.33C991.68,-1493.71 116.89,-1480.46 58,-1447 16.46,-1423.4 0,-1404.27 0,-1356.5 0,-1356.5 0,-1356.5 0,-1135.5 0,-1035.9 56,-1018.1 56,-918.5 56,-918.5 56,-918.5 56,-332.5 56,-285.66 69.66,-265.81 110,-242 174.79,-203.75 1281.53,-191.85 1614.82,-189.16"/>
<polygon fill="#ff7f7f" stroke="#ff7f7f" points="1614.96,-192.66 1624.93,-189.08 1614.9,-185.66 1614.96,-192.66"/>
</g>
<!-- Node0x55b28950c1d8&#45;&gt;Node0x55b28950ee38 -->
<g id="edge3" class="edge">
<title>Node0x55b28950c1d8&#45;&gt;Node0x55b28950ee38</title>
<path fill="none" stroke="#ff7f7f" d="M1237.74,-1439.01C1325.39,-1450.01 1468.54,-1468.37 1574.51,-1482.17"/>
<polygon fill="#ff7f7f" stroke="#ff7f7f" points="1574.27,-1485.67 1584.64,-1483.49 1575.18,-1478.73 1574.27,-1485.67"/>
</g>
<!-- Node0x55b28950c1d8&#45;&gt;Node0x55b28950b7d8 -->
<g id="edge6" class="edge">
<title>Node0x55b28950c1d8&#45;&gt;Node0x55b28950b7d8</title>
<path fill="none" stroke="#ff7f7f" d="M1080.16,-1425.9C888.41,-1421.41 408.99,-1406.81 345,-1374 223.78,-1311.84 150,-1273.73 150,-1137.5 150,-1137.5 150,-1137.5 150,-1062.5 150,-964.59 112,-943.41 112,-845.5 112,-845.5 112,-845.5 112,-332.5 112,-290.26 107.31,-267.48 141,-242 199.76,-197.56 1285.21,-190.01 1614.88,-188.75"/>
<polygon fill="#ff7f7f" stroke="#ff7f7f" points="1614.89,-192.25 1624.88,-188.71 1614.86,-185.25 1614.89,-192.25"/>
</g>
<!-- Node0x55b289512088 -->
<g id="node4" class="node">
<title>Node0x55b289512088</title>
<polygon fill="#ff7f7f" stroke="black" points="1017,-315.5 1017,-351.5 1505,-351.5 1505,-315.5 1017,-315.5"/>
<text text-anchor="middle" x="1261" y="-329.8" font-family="Times,serif" font-size="14.00">tools/llvm&#45;readobj/CMakeFiles/llvm&#45;readobj.dir/llvm&#45;readobj.cpp.o</text>
</g>
<!-- Node0x55b28950c1d8&#45;&gt;Node0x55b289512088 -->
<g id="edge4" class="edge">
<title>Node0x55b28950c1d8&#45;&gt;Node0x55b289512088</title>
<path fill="none" stroke="#ff7f7f" d="M1080.21,-1425.87C902.67,-1421.53 482.92,-1407.62 429,-1374 389.45,-1349.34 376,-1330.11 376,-1283.5 376,-1283.5 376,-1283.5 376,-697.5 376,-547.61 387.75,-474.74 510,-388 530.35,-373.56 796.71,-357.05 1006.52,-346.24"/>
<polygon fill="#ff7f7f" stroke="#ff7f7f" points="1006.97,-349.72 1016.78,-345.71 1006.61,-342.73 1006.97,-349.72"/>
</g>
<!-- Node0x55b28950d768 -->
<g id="node5" class="node">
<title>Node0x55b28950d768</title>
<polygon fill="#ff7f7f" stroke="black" points="2129,-96.5 2129,-132.5 2383,-132.5 2383,-96.5 2129,-96.5"/>
<text text-anchor="middle" x="2256" y="-110.8" font-family="Times,serif" font-size="14.00">lib/libLLVMDebugInfoCodeView.a</text>
</g>
<!-- Node0x55b28950c1d8&#45;&gt;Node0x55b28950d768 -->
<g id="edge5" class="edge">
<title>Node0x55b28950c1d8&#45;&gt;Node0x55b28950d768</title>
<path fill="none" stroke="#ff7f7f" d="M1237.77,-1425.82C1387.02,-1421.85 1705.32,-1409.39 1809,-1374 1837.58,-1364.24 1838.24,-1348.9 1866,-1337 1929.41,-1309.82 1950.59,-1319.7 2017,-1301 2117.79,-1272.61 2144.21,-1267.95 2241,-1228 2374.02,-1173.1 2402.9,-1149.48 2530,-1082 2588.87,-1050.74 2614.63,-1056.88 2661,-1009 2737.2,-930.32 2736.82,-893.02 2774,-790 2810.54,-688.77 2826,-661.12 2826,-553.5 2826,-553.5 2826,-553.5 2826,-259.5 2826,-201.83 2785.14,-193.66 2733,-169 2674.71,-141.44 2512.61,-127.65 2393.49,-121.05"/>
<polygon fill="#ff7f7f" stroke="#ff7f7f" points="2393.37,-117.54 2383.19,-120.49 2392.99,-124.53 2393.37,-117.54"/>
</g>
<!-- Node0x55b28950bd28 -->
<g id="node6" class="node">
<title>Node0x55b28950bd28</title>
<polygon fill="#ff7f7f" stroke="black" points="2322.5,-242.5 2322.5,-278.5 2531.5,-278.5 2531.5,-242.5 2322.5,-242.5"/>
<text text-anchor="middle" x="2427" y="-256.8" font-family="Times,serif" font-size="14.00">lib/libLLVMBinaryFormat.a</text>
</g>
<!-- Node0x55b28950c1d8&#45;&gt;Node0x55b28950bd28 -->
<g id="edge7" class="edge">
<title>Node0x55b28950c1d8&#45;&gt;Node0x55b28950bd28</title>
<path fill="none" stroke="#ff7f7f" d="M1237.51,-1428.05C1535,-1429.16 2591.56,-1424.17 2900,-1301 2982.74,-1267.96 3016,-1226.6 3016,-1137.5 3016,-1137.5 3016,-1137.5 3016,-1062.5 3016,-799 2712,-817 2712,-553.5 2712,-553.5 2712,-553.5 2712,-405.5 2712,-357.31 2580.54,-308.15 2496.19,-281.57"/>
<polygon fill="#ff7f7f" stroke="#ff7f7f" points="2496.99,-278.16 2486.4,-278.53 2494.9,-284.84 2496.99,-278.16"/>
</g>
<!-- Node0x55b289510e18 -->
<g id="node7" class="node">
<title>Node0x55b289510e18</title>
<polygon fill="#ff7f7f" stroke="black" points="1234.5,-607.5 1234.5,-643.5 1731.5,-643.5 1731.5,-607.5 1234.5,-607.5"/>
<text text-anchor="middle" x="1483" y="-621.8" font-family="Times,serif" font-size="14.00">tools/llvm&#45;readobj/CMakeFiles/llvm&#45;readobj.dir/COFFDumper.cpp.o</text>
</g>
<!-- Node0x55b28950c1d8&#45;&gt;Node0x55b289510e18 -->
<g id="edge8" class="edge">
<title>Node0x55b28950c1d8&#45;&gt;Node0x55b289510e18</title>
<path fill="none" stroke="#ff7f7f" d="M1145.77,-1410.43C1133.59,-1389.58 1114.66,-1354.87 1087,-1337 1013.71,-1289.65 949.76,-1368.12 894,-1301 874.78,-1277.86 912.85,-1202.53 917,-1191 1008.26,-937.54 1010.96,-816.86 1243,-680 1268.8,-664.78 1298.6,-653.89 1328.25,-646.1"/>
<polygon fill="#ff7f7f" stroke="#ff7f7f" points="1329.45,-649.41 1338.29,-643.57 1327.74,-642.62 1329.45,-649.41"/>
</g>
<!-- Node0x55b289512718 -->
<g id="node8" class="node">
<title>Node0x55b289512718</title>
<polygon fill="#ff7f7f" stroke="black" points="1344.5,-1191.5 1344.5,-1227.5 1829.5,-1227.5 1829.5,-1191.5 1344.5,-1191.5"/>
<text text-anchor="middle" x="1587" y="-1205.8" font-family="Times,serif" font-size="14.00">tools/llvm&#45;readobj/CMakeFiles/llvm&#45;readobj.dir/ELFDumper.cpp.o</text>
</g>
<!-- Node0x55b28950c1d8&#45;&gt;Node0x55b289512718 -->
<g id="edge9" class="edge">
<title>Node0x55b28950c1d8&#45;&gt;Node0x55b289512718</title>
<path fill="none" stroke="#ff7f7f" d="M1237.61,-1425.1C1330.25,-1420.74 1476.74,-1408.47 1519,-1374 1560.5,-1340.15 1572.82,-1274.65 1579.47,-1237.65"/>
<polygon fill="#ff7f7f" stroke="#ff7f7f" points="1582.95,-1238.05 1581.29,-1227.59 1576.06,-1236.8 1582.95,-1238.05"/>
</g>
<!-- Node0x55b28950da38 -->
<g id="node9" class="node">
<title>Node0x55b28950da38</title>
<polygon fill="#ff7f7f" stroke="black" points="1812,-23.5 1812,-59.5 2398,-59.5 2398,-23.5 1812,-23.5"/>
<text text-anchor="middle" x="2105" y="-37.8" font-family="Times,serif" font-size="14.00">tools/llvm&#45;readobj/CMakeFiles/llvm&#45;readobj.dir/WindowsResourceDumper.cpp.o</text>
</g>
<!-- Node0x55b28950c1d8&#45;&gt;Node0x55b28950da38 -->
<g id="edge10" class="edge">
<title>Node0x55b28950c1d8&#45;&gt;Node0x55b28950da38</title>
<path fill="none" stroke="#ff7f7f" d="M1080.34,-1425.49C877.51,-1419.79 347.88,-1402.08 274,-1374 53.17,-1290.06 0,-1154.75 0,-918.5 0,-918.5 0,-918.5 0,-186.5 0,-97.49 1218.93,-60.49 1801.68,-47.94"/>
<polygon fill="#ff7f7f" stroke="#ff7f7f" points="1802,-51.44 1811.92,-47.73 1801.85,-44.44 1802,-51.44"/>
</g>
<!-- Node0x55b28950e0c8 -->
<g id="node10" class="node">
<title>Node0x55b28950e0c8</title>
<polygon fill="#ff7f7f" stroke="black" points="2325.5,-1045.5 2325.5,-1081.5 2460.5,-1081.5 2460.5,-1045.5 2325.5,-1045.5"/>
<text text-anchor="middle" x="2393" y="-1059.8" font-family="Times,serif" font-size="14.00">lib/libLLVMMC.a</text>
</g>
<!-- Node0x55b28950c1d8&#45;&gt;Node0x55b28950e0c8 -->
<g id="edge11" class="edge">
<title>Node0x55b28950c1d8&#45;&gt;Node0x55b28950e0c8</title>
<path fill="none" stroke="#ff7f7f" d="M1237.69,-1426.18C1347.89,-1422.94 1553.67,-1411.82 1725,-1374 1772.91,-1363.42 1782.75,-1353.36 1829,-1337 1966.69,-1288.3 2001.63,-1277.6 2139,-1228 2226.82,-1196.29 2265.74,-1216.5 2336,-1155 2355.55,-1137.89 2368.42,-1110.83 2377.54,-1090.76"/>
<polygon fill="#ff7f7f" stroke="#ff7f7f" points="2380.78,-1092.09 2381.73,-1081.54 2374.4,-1089.19 2380.78,-1092.09"/>
</g>
<!-- Node0x55b28950d268 -->
<g id="node11" class="node">
<title>Node0x55b28950d268</title>
<polygon fill="#ff7f7f" stroke="black" points="2018.5,-1118.5 2018.5,-1154.5 2255.5,-1154.5 2255.5,-1118.5 2018.5,-1118.5"/>
<text text-anchor="middle" x="2137" y="-1132.8" font-family="Times,serif" font-size="14.00">lib/libLLVMDebugInfoDWARF.a</text>
</g>
<!-- Node0x55b28950c1d8&#45;&gt;Node0x55b28950d268 -->
<g id="edge12" class="edge">
<title>Node0x55b28950c1d8&#45;&gt;Node0x55b28950d268</title>
<path fill="none" stroke="#ff7f7f" d="M1237.65,-1425.1C1319.05,-1420.71 1448.88,-1408.4 1556,-1374 1654.82,-1342.26 1664.13,-1298.55 1762,-1264 1842.63,-1235.54 1870.12,-1255.74 1951,-1228 2002.31,-1210.4 2057.34,-1180.3 2094.26,-1159.68"/>
<polygon fill="#ff7f7f" stroke="#ff7f7f" points="2096.22,-1162.59 2103.24,-1154.65 2092.81,-1156.48 2096.22,-1162.59"/>
</g>
<!-- Node0x55b28950f108 -->
<g id="node12" class="node">
<title>Node0x55b28950f108</title>
<polygon fill="#ff7f7f" stroke="black" points="1736.5,-680.5 1736.5,-716.5 1917.5,-716.5 1917.5,-680.5 1736.5,-680.5"/>
<text text-anchor="middle" x="1827" y="-694.8" font-family="Times,serif" font-size="14.00">lib/libLLVMBitReader.a</text>
</g>
<!-- Node0x55b28950c1d8&#45;&gt;Node0x55b28950f108 -->
<g id="edge13" class="edge">
<title>Node0x55b28950c1d8&#45;&gt;Node0x55b28950f108</title>
<path fill="none" stroke="#ff7f7f" d="M1226.89,-1410.47C1281.97,-1393.25 1356.02,-1360.41 1392,-1301 1400.52,-1286.93 1400.35,-1278.17 1392,-1264 1375.23,-1235.55 1343.77,-1256.45 1327,-1228 1318.65,-1213.83 1322.15,-1206.71 1327,-1191 1361.77,-1078.4 1530.21,-821.65 1626,-753 1655.06,-732.18 1691.93,-719.45 1726.16,-711.67"/>
<polygon fill="#ff7f7f" stroke="#ff7f7f" points="1727.18,-715.03 1736.22,-709.51 1725.7,-708.19 1727.18,-715.03"/>
</g>
<!-- Node0x55b28950ec58 -->
<g id="node13" class="node">
<title>Node0x55b28950ec58</title>
<polygon fill="#ff7f7f" stroke="black" points="2016,-899.5 2016,-935.5 2160,-935.5 2160,-899.5 2016,-899.5"/>
<text text-anchor="middle" x="2088" y="-913.8" font-family="Times,serif" font-size="14.00">lib/libLLVMCore.a</text>
</g>
<!-- Node0x55b28950c1d8&#45;&gt;Node0x55b28950ec58 -->
<g id="edge14" class="edge">
<title>Node0x55b28950c1d8&#45;&gt;Node0x55b28950ec58</title>
<path fill="none" stroke="#ff7f7f" d="M1237.75,-1423.49C1329.72,-1417.72 1485.79,-1404.24 1617,-1374 1634.91,-1369.87 1911.65,-1270.07 1929,-1264 2022.26,-1231.35 2045.1,-1221.76 2139,-1191 2190.7,-1174.07 2223.68,-1198.76 2256,-1155 2314.2,-1076.2 2187,-983.32 2122.42,-941.25"/>
<polygon fill="#ff7f7f" stroke="#ff7f7f" points="2124.04,-938.13 2113.74,-935.66 2120.25,-944.02 2124.04,-938.13"/>
</g>
<!-- Node0x55b28950dd08 -->
<g id="node14" class="node">
<title>Node0x55b28950dd08</title>
<polygon fill="#ff7f7f" stroke="black" points="1024,-972.5 1024,-1008.5 1204,-1008.5 1204,-972.5 1024,-972.5"/>
<text text-anchor="middle" x="1114" y="-986.8" font-family="Times,serif" font-size="14.00">lib/libLLVMMCParser.a</text>
</g>
<!-- Node0x55b28950c1d8&#45;&gt;Node0x55b28950dd08 -->
<g id="edge15" class="edge">
<title>Node0x55b28950c1d8&#45;&gt;Node0x55b28950dd08</title>
<path fill="none" stroke="#ff7f7f" d="M1135.9,-1410.16C1112.54,-1389.68 1075.27,-1356.01 1037,-1337 978.3,-1307.85 934.29,-1352.69 894,-1301 813.67,-1197.94 989.42,-1066 1073.11,-1014"/>
<polygon fill="#ff7f7f" stroke="#ff7f7f" points="1075.17,-1016.84 1081.87,-1008.64 1071.51,-1010.87 1075.17,-1016.84"/>
</g>
<!-- Node0x55b2895105f8 -->
<g id="node15" class="node">
<title>Node0x55b2895105f8</title>
<polygon fill="#ff7f7f" stroke="black" points="158.5,-242.5 158.5,-278.5 703.5,-278.5 703.5,-242.5 158.5,-242.5"/>
<text text-anchor="middle" x="431" y="-256.8" font-family="Times,serif" font-size="14.00">tools/llvm&#45;readobj/CMakeFiles/llvm&#45;readobj.dir/COFFImportDumper.cpp.o</text>
</g>
<!-- Node0x55b28950c1d8&#45;&gt;Node0x55b2895105f8 -->
<g id="edge16" class="edge">
<title>Node0x55b28950c1d8&#45;&gt;Node0x55b2895105f8</title>
<path fill="none" stroke="#ff7f7f" d="M1080.21,-1426.53C894.33,-1423.58 440.2,-1412.41 384,-1374 321.68,-1331.41 244,-1139.99 244,-1064.5 244,-1064.5 244,-1064.5 244,-989.5 244,-856.26 168,-832.74 168,-699.5 168,-699.5 168,-699.5 168,-405.5 168,-336.27 240.29,-299.92 309.11,-281.08"/>
<polygon fill="#ff7f7f" stroke="#ff7f7f" points="310.01,-284.46 318.79,-278.53 308.23,-277.69 310.01,-284.46"/>
</g>
<!-- Node0x55b28950eb68 -->
<g id="node16" class="node">
<title>Node0x55b28950eb68</title>
<polygon fill="#ff7f7f" stroke="black" points="2725,-1264.5 2725,-1300.5 2891,-1300.5 2891,-1264.5 2725,-1264.5"/>
<text text-anchor="middle" x="2808" y="-1278.8" font-family="Times,serif" font-size="14.00">lib/libLLVMTextAPI.a</text>
</g>
<!-- Node0x55b28950c1d8&#45;&gt;Node0x55b28950eb68 -->
<g id="edge17" class="edge">
<title>Node0x55b28950c1d8&#45;&gt;Node0x55b28950eb68</title>
<path fill="none" stroke="#ff7f7f" d="M1237.69,-1421.67C1367,-1412.38 1632.26,-1393.3 1857,-1374 2171.41,-1347 2544.32,-1309.57 2714.74,-1292.56"/>
<polygon fill="#ff7f7f" stroke="#ff7f7f" points="2715.33,-1296.02 2724.93,-1291.54 2714.63,-1289.05 2715.33,-1296.02"/>
</g>
<!-- Node0x55b289512218 -->
<g id="node17" class="node">
<title>Node0x55b289512218</title>
<polygon fill="#ff7f7f" stroke="black" points="460,-1337.5 460,-1373.5 966,-1373.5 966,-1337.5 460,-1337.5"/>
<text text-anchor="middle" x="713" y="-1351.8" font-family="Times,serif" font-size="14.00">tools/llvm&#45;readobj/CMakeFiles/llvm&#45;readobj.dir/XCOFFDumper.cpp.o</text>
</g>
<!-- Node0x55b28950c1d8&#45;&gt;Node0x55b289512218 -->
<g id="edge18" class="edge">
<title>Node0x55b28950c1d8&#45;&gt;Node0x55b289512218</title>
<path fill="none" stroke="#ff7f7f" d="M1080.44,-1415.82C1009.3,-1404.77 903.82,-1388.03 824.07,-1375.14"/>
<polygon fill="#ff7f7f" stroke="#ff7f7f" points="824.42,-1371.65 813.99,-1373.51 823.3,-1378.56 824.42,-1371.65"/>
</g>
<!-- Node0x55b28950b7d8&#45;&gt;Node0x55b28950ee38 -->
<g id="edge22" class="edge">
<title>Node0x55b28950b7d8&#45;&gt;Node0x55b28950ee38</title>
<path fill="none" stroke="#ff7f7f" d="M1624.77,-189.13C1306.6,-191.78 193,-203.63 128,-242 87.66,-265.81 74,-285.66 74,-332.5 74,-918.5 74,-918.5 74,-918.5 74,-1018.1 18,-1035.9 18,-1135.5 18,-1356.5 18,-1356.5 18,-1356.5 18,-1404.27 34.46,-1423.4 76,-1447 133.98,-1479.94 982.91,-1493.3 1433.96,-1498.11"/>
<polygon fill="#ff7f7f" stroke="#ff7f7f" points="1434.17,-1501.61 1444.21,-1498.22 1434.25,-1494.61 1434.17,-1501.61"/>
</g>
<!-- Node0x55b28950b7d8&#45;&gt;Node0x55b28950c1d8 -->
<g id="edge26" class="edge">
<title>Node0x55b28950b7d8&#45;&gt;Node0x55b28950c1d8</title>
<path fill="none" stroke="#ff7f7f" d="M1624.84,-188.74C1310.12,-189.97 217.95,-197.42 159,-242 125.31,-267.48 130,-290.26 130,-332.5 130,-845.5 130,-845.5 130,-845.5 130,-943.41 168,-964.59 168,-1062.5 168,-1137.5 168,-1137.5 168,-1137.5 168,-1273.73 241.78,-1311.84 363,-1374 424.91,-1405.75 875.66,-1420.44 1070.15,-1425.43"/>
<polygon fill="#ff7f7f" stroke="#ff7f7f" points="1070.25,-1428.93 1080.34,-1425.69 1070.43,-1421.94 1070.25,-1428.93"/>
</g>
<!-- Node0x55b28950b7d8&#45;&gt;Node0x55b289512088 -->
<g id="edge25" class="edge">
<title>Node0x55b28950b7d8&#45;&gt;Node0x55b289512088</title>
<path fill="none" stroke="#ff7f7f" d="M1668.31,-205.56C1618.26,-224.32 1530.96,-254.96 1455,-279 1417.7,-290.8 1375.86,-302.99 1340.55,-312.75"/>
<polygon fill="#ff7f7f" stroke="#ff7f7f" points="1339.49,-309.41 1330.77,-315.43 1341.34,-316.16 1339.49,-309.41"/>
</g>
<!-- Node0x55b28950b7d8&#45;&gt;Node0x55b28950d768 -->
<g id="edge19" class="edge">
<title>Node0x55b28950b7d8&#45;&gt;Node0x55b28950d768</title>
<path fill="none" stroke="#ff7f7f" d="M1793.26,-174.89C1880,-163.39 2016.48,-145.65 2118.8,-132.55"/>
<polygon fill="#ff7f7f" stroke="#ff7f7f" points="2119.43,-135.99 2128.91,-131.25 2118.55,-129.05 2119.43,-135.99"/>
</g>
<!-- Node0x55b28950b7d8&#45;&gt;Node0x55b289510e18 -->
<g id="edge21" class="edge">
<title>Node0x55b28950b7d8&#45;&gt;Node0x55b289510e18</title>
<path fill="none" stroke="#ff7f7f" d="M1734.89,-205.91C1745.14,-215.75 1755.92,-228.72 1763,-242 1833.28,-373.84 1929.09,-457.44 1832,-571 1817.68,-587.75 1783.39,-599.29 1741.61,-607.23"/>
<polygon fill="#ff7f7f" stroke="#ff7f7f" points="1740.93,-603.79 1731.72,-609.02 1742.18,-610.68 1740.93,-603.79"/>
</g>
<!-- Node0x55b28950b7d8&#45;&gt;Node0x55b289512718 -->
<g id="edge20" class="edge">
<title>Node0x55b28950b7d8&#45;&gt;Node0x55b289512718</title>
<path fill="none" stroke="#ff7f7f" d="M1624.73,-193.92C1444.11,-205.33 1033.9,-231.63 1005,-242 965.07,-256.33 888.67,-336.98 849,-352 780.63,-377.88 574.71,-337.35 522,-388 498.34,-410.73 513.45,-428.28 511,-461 484.32,-817.15 701.36,-922.68 1021,-1082 1104.2,-1123.47 1126.9,-1132.15 1217,-1155 1278.47,-1170.59 1346.78,-1181.99 1407.83,-1190.16"/>
<polygon fill="#ff7f7f" stroke="#ff7f7f" points="1407.58,-1193.66 1417.95,-1191.5 1408.49,-1186.72 1407.58,-1193.66"/>
</g>
<!-- Node0x55b28950b7d8&#45;&gt;Node0x55b28950da38 -->
<g id="edge23" class="edge">
<title>Node0x55b28950b7d8&#45;&gt;Node0x55b28950da38</title>
<path fill="none" stroke="#ff7f7f" d="M1751.43,-169.42C1821.85,-142.78 1962.84,-91.47 2043.94,-62.93"/>
<polygon fill="#ff7f7f" stroke="#ff7f7f" points="2045.25,-66.18 2053.53,-59.56 2042.93,-59.57 2045.25,-66.18"/>
</g>
<!-- Node0x55b28950b7d8&#45;&gt;Node0x55b28950d268 -->
<g id="edge24" class="edge">
<title>Node0x55b28950b7d8&#45;&gt;Node0x55b28950d268</title>
<path fill="none" stroke="#ff7f7f" d="M1793.16,-193.91C1835.4,-200.21 1885.01,-213.62 1921,-242 2014.68,-315.89 2048,-359.19 2048,-478.5 2048,-626.5 2048,-626.5 2048,-626.5 2048,-669.26 1920.7,-714.07 1903,-753 1896.19,-767.97 1898.67,-774.13 1903,-790 1940.98,-929.3 2064.28,-1058.7 2115.1,-1111.03"/>
<polygon fill="#ff7f7f" stroke="#ff7f7f" points="2112.85,-1113.74 2122.33,-1118.47 2117.87,-1108.86 2112.85,-1113.74"/>
</g>
<!-- Node0x55b289511908 -->
<g id="node18" class="node">
<title>Node0x55b289511908</title>
<polygon fill="#ff7f7f" stroke="black" points="552,-388.5 552,-424.5 1058,-424.5 1058,-388.5 552,-388.5"/>
<text text-anchor="middle" x="805" y="-402.8" font-family="Times,serif" font-size="14.00">tools/llvm&#45;readobj/CMakeFiles/llvm&#45;readobj.dir/MachODumper.cpp.o</text>
</g>
<!-- Node0x55b28950b7d8&#45;&gt;Node0x55b289511908 -->
<g id="edge27" class="edge">
<title>Node0x55b28950b7d8&#45;&gt;Node0x55b289511908</title>
<path fill="none" stroke="#ff7f7f" d="M1624.81,-196.46C1492.6,-210.28 1229.69,-244.26 1017,-315 982.11,-326.6 976.45,-336.73 943,-352 918.08,-363.38 890.02,-375.14 865.68,-384.72"/>
<polygon fill="#ff7f7f" stroke="#ff7f7f" points="864.25,-381.53 856.2,-388.42 866.79,-388.05 864.25,-381.53"/>
</g>
<!-- Node0x55b289509fc8 -->
<g id="node19" class="node">
<title>Node0x55b289509fc8</title>
<polygon fill="#ff7f7f" stroke="black" points="912,-1264.5 912,-1300.5 1392,-1300.5 1392,-1264.5 912,-1264.5"/>
<text text-anchor="middle" x="1152" y="-1278.8" font-family="Times,serif" font-size="14.00">tools/llvm&#45;readobj/CMakeFiles/llvm&#45;readobj.dir/ObjDumper.cpp.o</text>
</g>
<!-- Node0x55b28950b7d8&#45;&gt;Node0x55b289509fc8 -->
<g id="edge28" class="edge">
<title>Node0x55b28950b7d8&#45;&gt;Node0x55b289509fc8</title>
<path fill="none" stroke="#ff7f7f" d="M1624.75,-194C1429.14,-206.46 959.92,-236.2 944,-242 904.99,-256.21 831.6,-336.73 793,-352 732.82,-375.81 546.84,-339.49 504,-388 261.59,-662.48 560.86,-882.05 805,-1155 835.17,-1188.73 836.12,-1206.6 876,-1228 904.44,-1243.26 936.52,-1254.23 968.48,-1262.11"/>
<polygon fill="#ff7f7f" stroke="#ff7f7f" points="967.85,-1265.56 978.39,-1264.45 969.46,-1258.74 967.85,-1265.56"/>
</g>
<!-- Node0x55b289512088&#45;&gt;Node0x55b28950ee38 -->
<g id="edge36" class="edge">
<title>Node0x55b289512088&#45;&gt;Node0x55b28950ee38</title>
<path fill="none" stroke="#ff7f7f" d="M1016.93,-346.51C793.72,-358.19 494.53,-375.89 470,-388 344.48,-449.95 262,-484.52 262,-624.5 262,-699.5 262,-699.5 262,-699.5 262,-943.55 56,-964.45 56,-1208.5 56,-1356.5 56,-1356.5 56,-1356.5 56,-1492.37 214.09,-1424.03 348,-1447 549.12,-1481.5 1097.17,-1493.8 1433.89,-1498.15"/>
<polygon fill="#ff7f7f" stroke="#ff7f7f" points="1434.24,-1501.65 1444.28,-1498.28 1434.33,-1494.65 1434.24,-1501.65"/>
</g>
<!-- Node0x55b289512088&#45;&gt;Node0x55b28950c1d8 -->
<g id="edge46" class="edge">
<title>Node0x55b289512088&#45;&gt;Node0x55b28950c1d8</title>
<path fill="none" stroke="#ff7f7f" d="M1016.93,-346.43C811.6,-357.24 548.24,-373.64 528,-388 405.75,-474.74 394,-547.61 394,-697.5 394,-1283.5 394,-1283.5 394,-1283.5 394,-1330.11 407.45,-1349.34 447,-1374 498.98,-1406.41 890.92,-1420.5 1070.15,-1425.37"/>
<polygon fill="#ff7f7f" stroke="#ff7f7f" points="1070.25,-1428.87 1080.34,-1425.64 1070.44,-1421.87 1070.25,-1428.87"/>
</g>
<!-- Node0x55b289512088&#45;&gt;Node0x55b28950b7d8 -->
<g id="edge48" class="edge">
<title>Node0x55b289512088&#45;&gt;Node0x55b28950b7d8</title>
<path fill="none" stroke="#ff7f7f" d="M1315.02,-315.43C1349.95,-305.29 1396.2,-291.91 1437,-279 1508.66,-256.32 1590.41,-227.77 1645.51,-208.86"/>
<polygon fill="#ff7f7f" stroke="#ff7f7f" points="1646.81,-212.12 1655.13,-205.56 1644.54,-205.49 1646.81,-212.12"/>
</g>
<!-- Node0x55b289512088&#45;&gt;Node0x55b28950d768 -->
<g id="edge45" class="edge">
<title>Node0x55b289512088&#45;&gt;Node0x55b28950d768</title>
<path fill="none" stroke="#ff7f7f" d="M1350.39,-315.5C1401.16,-305.53 1465.8,-292.31 1523,-279 1647.84,-249.95 1681.16,-248.73 1802,-206 1839.7,-192.67 1845.61,-180.18 1884,-169 1959.98,-146.88 2047.46,-133.71 2118.5,-125.97"/>
<polygon fill="#ff7f7f" stroke="#ff7f7f" points="2119.28,-129.41 2128.86,-124.87 2118.54,-122.45 2119.28,-129.41"/>
</g>
<!-- Node0x55b289512088&#45;&gt;Node0x55b28950bd28 -->
<g id="edge47" class="edge">
<title>Node0x55b289512088&#45;&gt;Node0x55b28950bd28</title>
<path fill="none" stroke="#ff7f7f" d="M1505.12,-317.29C1752.93,-302.09 2125.82,-279.41 2312.3,-268.23"/>
<polygon fill="#ff7f7f" stroke="#ff7f7f" points="2312.63,-271.72 2322.4,-267.63 2312.21,-264.73 2312.63,-271.72"/>
</g>
<!-- Node0x55b289512088&#45;&gt;Node0x55b289510e18 -->
<g id="edge37" class="edge">
<title>Node0x55b289512088&#45;&gt;Node0x55b289510e18</title>
<path fill="none" stroke="#ff7f7f" d="M1300.45,-351.71C1314.22,-360.68 1327.89,-372.93 1335,-388 1342.02,-402.87 1344.83,-411.82 1335,-425 1301.46,-469.98 1247.54,-416.02 1214,-461 1204.17,-474.18 1208.27,-482.59 1214,-498 1235.71,-556.38 1296.02,-587.82 1354.07,-604.75"/>
<polygon fill="#ff7f7f" stroke="#ff7f7f" points="1353.17,-608.13 1363.74,-607.44 1355.05,-601.39 1353.17,-608.13"/>
</g>
<!-- Node0x55b289512088&#45;&gt;Node0x55b289512718 -->
<g id="edge39" class="edge">
<title>Node0x55b289512088&#45;&gt;Node0x55b289512718</title>
<path fill="none" stroke="#ff7f7f" d="M1240.47,-351.62C1224.57,-362 1202.44,-375.61 1183,-388 1157.85,-404.04 1154.56,-413.58 1127,-425 1053.24,-455.56 1011.28,-408.64 951,-461 858.25,-541.56 942.74,-916.86 1024,-1009 1038.65,-1025.61 1373.96,-1148.08 1395,-1155 1433.57,-1167.68 1477.03,-1179.54 1512.88,-1188.85"/>
<polygon fill="#ff7f7f" stroke="#ff7f7f" points="1512.23,-1192.3 1522.78,-1191.41 1513.98,-1185.52 1512.23,-1192.3"/>
</g>
<!-- Node0x55b289512088&#45;&gt;Node0x55b28950da38 -->
<g id="edge43" class="edge">
<title>Node0x55b289512088&#45;&gt;Node0x55b28950da38</title>
<path fill="none" stroke="#ff7f7f" d="M1294.52,-315.48C1331.4,-296.91 1392.54,-266.53 1446,-242 1621.42,-161.49 1668.16,-144.43 1855,-96 1904.54,-83.16 1960.16,-71.03 2006.34,-61.58"/>
<polygon fill="#ff7f7f" stroke="#ff7f7f" points="2007.24,-64.97 2016.35,-59.55 2005.85,-58.11 2007.24,-64.97"/>
</g>
<!-- Node0x55b289512088&#45;&gt;Node0x55b2895105f8 -->
<g id="edge38" class="edge">
<title>Node0x55b289512088&#45;&gt;Node0x55b2895105f8</title>
<path fill="none" stroke="#ff7f7f" d="M1062.19,-315.49C934.71,-304.59 769.46,-290.45 640.02,-279.38"/>
<polygon fill="#ff7f7f" stroke="#ff7f7f" points="640.24,-275.89 629.98,-278.52 639.65,-282.86 640.24,-275.89"/>
</g>
<!-- Node0x55b289512088&#45;&gt;Node0x55b289512218 -->
<g id="edge44" class="edge">
<title>Node0x55b289512088&#45;&gt;Node0x55b289512218</title>
<path fill="none" stroke="#ff7f7f" d="M1016.87,-349.26C815.01,-361.84 560.13,-379.24 552,-388 502.47,-441.36 562,-478.7 562,-551.5 562,-699.5 562,-699.5 562,-699.5 562,-808.03 450,-807.97 450,-916.5 450,-991.5 450,-991.5 450,-991.5 450,-1147.45 612.76,-1279.34 682.31,-1331.08"/>
<polygon fill="#ff7f7f" stroke="#ff7f7f" points="680.58,-1334.15 690.7,-1337.27 684.73,-1328.52 680.58,-1334.15"/>
</g>
<!-- Node0x55b289512088&#45;&gt;Node0x55b289511908 -->
<g id="edge40" class="edge">
<title>Node0x55b289512088&#45;&gt;Node0x55b289511908</title>
<path fill="none" stroke="#ff7f7f" d="M1157.35,-351.55C1089.85,-362.24 1001.43,-376.01 930.04,-386.97"/>
<polygon fill="#ff7f7f" stroke="#ff7f7f" points="929.44,-383.52 920.08,-388.49 930.5,-390.44 929.44,-383.52"/>
</g>
<!-- Node0x55b289512088&#45;&gt;Node0x55b289509fc8 -->
<g id="edge41" class="edge">
<title>Node0x55b289512088&#45;&gt;Node0x55b289509fc8</title>
<path fill="none" stroke="#ff7f7f" d="M1212.95,-351.6C1186.82,-360.79 1154.44,-373.26 1127,-388 1102.33,-401.25 1101.47,-413.36 1076,-425 1012.07,-454.21 971.03,-410.63 922,-461 898.9,-484.73 910.58,-501.07 907,-534 884.21,-743.89 834.93,-812.84 913,-1009 957.57,-1120.99 1070.88,-1215.74 1124.01,-1257.97"/>
<polygon fill="#ff7f7f" stroke="#ff7f7f" points="1121.98,-1260.83 1132,-1264.29 1126.32,-1255.34 1121.98,-1260.83"/>
</g>
<!-- Node0x55b28950a748 -->
<g id="node21" class="node">
<title>Node0x55b28950a748</title>
<polygon fill="#ff7f7f" stroke="black" points="1214,-461.5 1214,-497.5 1712,-497.5 1712,-461.5 1214,-461.5"/>
<text text-anchor="middle" x="1463" y="-475.8" font-family="Times,serif" font-size="14.00">tools/llvm&#45;readobj/CMakeFiles/llvm&#45;readobj.dir/WasmDumper.cpp.o</text>
</g>
<!-- Node0x55b289512088&#45;&gt;Node0x55b28950a748 -->
<g id="edge42" class="edge">
<title>Node0x55b289512088&#45;&gt;Node0x55b28950a748</title>
<path fill="none" stroke="#ff7f7f" d="M1320.35,-351.53C1343.74,-360.42 1369.91,-372.67 1391,-388 1415.85,-406.06 1438.65,-432.88 1452.02,-452.63"/>
<polygon fill="#ff7f7f" stroke="#ff7f7f" points="1449.14,-454.62 1457.48,-461.15 1455.04,-450.84 1449.14,-454.62"/>
</g>
<!-- Node0x55b28950d768&#45;&gt;Node0x55b28950ee38 -->
<g id="edge63" class="edge">
<title>Node0x55b28950d768&#45;&gt;Node0x55b28950ee38</title>
<path fill="none" stroke="#ff7f7f" d="M2383.2,-119.09C2557.58,-125.07 2853.93,-139.47 2894,-169 3013.02,-256.73 3016,-330.64 3016,-478.5 3016,-699.5 3016,-699.5 3016,-699.5 3016,-797.41 3054,-818.59 3054,-916.5 3054,-1356.5 3054,-1356.5 3054,-1356.5 3054,-1462.76 2380.78,-1490.74 1987.64,-1498.02"/>
<polygon fill="#ff7f7f" stroke="#ff7f7f" points="1987.47,-1494.52 1977.54,-1498.2 1987.6,-1501.52 1987.47,-1494.52"/>
</g>
<!-- Node0x55b28950d768&#45;&gt;Node0x55b28950b7d8 -->
<g id="edge62" class="edge">
<title>Node0x55b28950d768&#45;&gt;Node0x55b28950b7d8</title>
<path fill="none" stroke="#ff7f7f" d="M2130.74,-132.52C2031.02,-145.64 1893.67,-163.44 1803.15,-174.95"/>
<polygon fill="#ff7f7f" stroke="#ff7f7f" points="1802.65,-171.48 1793.17,-176.21 1803.53,-178.43 1802.65,-171.48"/>
</g>
<!-- Node0x55b28950d768&#45;&gt;Node0x55b289510e18 -->
<g id="edge64" class="edge">
<title>Node0x55b28950d768&#45;&gt;Node0x55b289510e18</title>
<path fill="none" stroke="#ff7f7f" d="M2246.69,-132.59C2237.6,-142.97 2224.37,-156.58 2213,-169 2053.89,-342.93 2073.77,-457.79 1867,-571 1838.71,-586.49 1777.04,-597.96 1711.23,-606.22"/>
<polygon fill="#ff7f7f" stroke="#ff7f7f" points="1710.56,-602.78 1701.06,-607.47 1711.41,-609.73 1710.56,-602.78"/>
</g>
<!-- Node0x55b28950d768&#45;&gt;Node0x55b289512718 -->
<g id="edge66" class="edge">
<title>Node0x55b28950d768&#45;&gt;Node0x55b289512718</title>
<path fill="none" stroke="#ff7f7f" d="M2261.52,-132.67C2292.96,-231.85 2445.5,-731.47 2371,-863 2308.81,-972.8 2002.13,-1110.65 1884,-1155 1842.28,-1170.67 1795.49,-1181.83 1751.61,-1189.75"/>
<polygon fill="#ff7f7f" stroke="#ff7f7f" points="1750.95,-1186.31 1741.7,-1191.49 1752.16,-1193.21 1750.95,-1186.31"/>
</g>
<!-- Node0x55b28950d768&#45;&gt;Node0x55b28950da38 -->
<g id="edge65" class="edge">
<title>Node0x55b28950d768&#45;&gt;Node0x55b28950da38</title>
<path fill="none" stroke="#ff7f7f" d="M2219.83,-96.49C2199.07,-86.73 2172.79,-74.38 2150.62,-63.95"/>
<polygon fill="#ff7f7f" stroke="#ff7f7f" points="2151.94,-60.7 2141.4,-59.61 2148.96,-67.04 2151.94,-60.7"/>
</g>
<!-- Node0x55b28950d768&#45;&gt;Node0x55b289511908 -->
<g id="edge67" class="edge">
<title>Node0x55b28950d768&#45;&gt;Node0x55b289511908</title>
<path fill="none" stroke="#ff7f7f" d="M2128.62,-118.96C1918.9,-127.07 1489.06,-153.92 1137,-242 1042.36,-265.68 1016.4,-269.71 930,-315 894.18,-333.78 857.15,-361.87 832.78,-381.77"/>
<polygon fill="#ff7f7f" stroke="#ff7f7f" points="830.51,-379.11 825.03,-388.18 834.96,-384.51 830.51,-379.11"/>
</g>
<!-- Node0x55b28950d768&#45;&gt;Node0x55b28950a748 -->
<g id="edge68" class="edge">
<title>Node0x55b28950d768&#45;&gt;Node0x55b28950a748</title>
<path fill="none" stroke="#ff7f7f" d="M2168.88,-132.52C2062.91,-155.77 1898,-201.3 1898,-259.5 1898,-334.5 1898,-334.5 1898,-334.5 1898,-398.22 1727.65,-438.58 1600.16,-459.87"/>
<polygon fill="#ff7f7f" stroke="#ff7f7f" points="1599.58,-456.41 1590.28,-461.49 1600.72,-463.32 1599.58,-456.41"/>
</g>
<!-- Node0x55b28950bd28&#45;&gt;Node0x55b28950b7d8 -->
<g id="edge92" class="edge">
<title>Node0x55b28950bd28&#45;&gt;Node0x55b28950b7d8</title>
<path fill="none" stroke="#ff7f7f" d="M2322.31,-247.6C2304.84,-245.68 2286.91,-243.75 2270,-242 2106.03,-225.04 1914.88,-207.23 1803.36,-197.04"/>
<polygon fill="#ff7f7f" stroke="#ff7f7f" points="1803.43,-193.53 1793.15,-196.1 1802.79,-200.5 1803.43,-193.53"/>
</g>
<!-- Node0x55b28950bd28&#45;&gt;Node0x55b289512088 -->
<g id="edge91" class="edge">
<title>Node0x55b28950bd28&#45;&gt;Node0x55b289512088</title>
<path fill="none" stroke="#ff7f7f" d="M2322.28,-268.13C2141.87,-279.29 1767.68,-302.1 1515.39,-317.35"/>
<polygon fill="#ff7f7f" stroke="#ff7f7f" points="1515.11,-313.86 1505.34,-317.96 1515.53,-320.85 1515.11,-313.86"/>
</g>
<!-- Node0x55b28950bd28&#45;&gt;Node0x55b28950d768 -->
<g id="edge94" class="edge">
<title>Node0x55b28950bd28&#45;&gt;Node0x55b28950d768</title>
<path fill="none" stroke="#ff7f7f" d="M2406.71,-242.42C2376.24,-216.76 2318.58,-168.2 2284.08,-139.15"/>
<polygon fill="#ff7f7f" stroke="#ff7f7f" points="2286.16,-136.33 2276.26,-132.56 2281.66,-141.68 2286.16,-136.33"/>
</g>
<!-- Node0x55b28950bd28&#45;&gt;Node0x55b289512718 -->
<g id="edge93" class="edge">
<title>Node0x55b28950bd28&#45;&gt;Node0x55b289512718</title>
<path fill="none" stroke="#ff7f7f" d="M2456.69,-278.59C2469.38,-288.44 2483.45,-301.51 2494,-315 2516.78,-344.15 2517.67,-354.8 2534,-388 2613.91,-550.44 2674,-589.47 2674,-770.5 2674,-918.5 2674,-918.5 2674,-918.5 2674,-1031.6 2574.65,-1021.65 2479,-1082 2412.9,-1123.71 2394.71,-1135.59 2319,-1155 2231.54,-1177.42 2015.04,-1191.51 1840.02,-1199.57"/>
<polygon fill="#ff7f7f" stroke="#ff7f7f" points="1839.7,-1196.08 1829.87,-1200.03 1840.02,-1203.08 1839.7,-1196.08"/>
</g>
<!-- Node0x55b289510e18&#45;&gt;Node0x55b28950ee38 -->
<g id="edge29" class="edge">
<title>Node0x55b289510e18&#45;&gt;Node0x55b28950ee38</title>
<path fill="none" stroke="#ff7f7f" d="M1452.19,-643.64C1437.45,-652.96 1420.38,-665.54 1408,-680 1355.13,-741.75 1326,-762.21 1326,-843.5 1326,-918.5 1326,-918.5 1326,-918.5 1326,-1014.03 1264.11,-1024.2 1246,-1118 1236.73,-1166 1215.59,-1189.72 1246,-1228 1289.99,-1283.38 1337.01,-1233.88 1401,-1264 1520.47,-1320.24 1637.86,-1428.08 1686.98,-1476.24"/>
<polygon fill="#ff7f7f" stroke="#ff7f7f" points="1684.69,-1478.9 1694.26,-1483.44 1689.61,-1473.92 1684.69,-1478.9"/>
</g>
<!-- Node0x55b289510e18&#45;&gt;Node0x55b28950c1d8 -->
<g id="edge34" class="edge">
<title>Node0x55b289510e18&#45;&gt;Node0x55b28950c1d8</title>
<path fill="none" stroke="#ff7f7f" d="M1355.72,-643.57C1323.39,-651.48 1289.72,-663.06 1261,-680 1028.96,-816.86 1026.26,-937.54 935,-1191 930.85,-1202.53 892.78,-1277.86 912,-1301 967.76,-1368.12 1031.71,-1289.65 1105,-1337 1128.77,-1352.35 1146.09,-1380.15 1154.76,-1400.9"/>
<polygon fill="#ff7f7f" stroke="#ff7f7f" points="1151.54,-1402.28 1158.31,-1410.43 1158.1,-1399.84 1151.54,-1402.28"/>
</g>
<!-- Node0x55b289510e18&#45;&gt;Node0x55b28950b7d8 -->
<g id="edge35" class="edge">
<title>Node0x55b289510e18&#45;&gt;Node0x55b28950b7d8</title>
<path fill="none" stroke="#ff7f7f" d="M1722.79,-607.47C1764.7,-599.52 1799.54,-587.92 1814,-571 1911.09,-457.44 1815.28,-373.84 1745,-242 1739.69,-232.04 1732.3,-222.26 1725.47,-213.83"/>
<polygon fill="#ff7f7f" stroke="#ff7f7f" points="1728,-211.39 1718.93,-205.91 1722.6,-215.85 1728,-211.39"/>
</g>
<!-- Node0x55b289510e18&#45;&gt;Node0x55b289512088 -->
<g id="edge30" class="edge">
<title>Node0x55b289510e18&#45;&gt;Node0x55b289512088</title>
<path fill="none" stroke="#ff7f7f" d="M1347.79,-607.44C1284.86,-591.23 1218.92,-559.63 1196,-498 1190.27,-482.59 1186.17,-474.18 1196,-461 1229.54,-416.02 1283.46,-469.98 1317,-425 1326.83,-411.82 1324.02,-402.87 1317,-388 1311.44,-376.23 1301.89,-366.17 1292.16,-358.06"/>
<polygon fill="#ff7f7f" stroke="#ff7f7f" points="1294.07,-355.11 1284.04,-351.71 1289.76,-360.63 1294.07,-355.11"/>
</g>
<!-- Node0x55b289510e18&#45;&gt;Node0x55b28950d768 -->
<g id="edge33" class="edge">
<title>Node0x55b289510e18&#45;&gt;Node0x55b28950d768</title>
<path fill="none" stroke="#ff7f7f" d="M1684.49,-607.44C1752.79,-599.1 1819.29,-587.26 1849,-571 2055.77,-457.79 2035.89,-342.93 2195,-169 2203.97,-159.2 2214.1,-148.66 2223.6,-139.55"/>
<polygon fill="#ff7f7f" stroke="#ff7f7f" points="2226.13,-141.98 2231.05,-132.59 2221.35,-136.86 2226.13,-141.98"/>
</g>
<!-- Node0x55b289510e18&#45;&gt;Node0x55b289509fc8 -->
<g id="edge31" class="edge">
<title>Node0x55b289510e18&#45;&gt;Node0x55b289509fc8</title>
<path fill="none" stroke="#ff7f7f" d="M1442.27,-643.58C1375.36,-672.81 1250,-739.53 1250,-843.5 1250,-918.5 1250,-918.5 1250,-918.5 1250,-1012.61 1201.62,-1026.64 1179,-1118 1167.41,-1164.82 1163.28,-1221.03 1159.22,-1253.86"/>
<polygon fill="#ff7f7f" stroke="#ff7f7f" points="1155.72,-1253.67 1157.84,-1264.05 1162.65,-1254.61 1155.72,-1253.67"/>
</g>
<!-- Node0x55b28950e898 -->
<g id="node20" class="node">
<title>Node0x55b28950e898</title>
<polygon fill="#ff7f7f" stroke="black" points="1290,-534.5 1290,-570.5 1814,-570.5 1814,-534.5 1290,-534.5"/>
<text text-anchor="middle" x="1552" y="-548.8" font-family="Times,serif" font-size="14.00">tools/llvm&#45;readobj/CMakeFiles/llvm&#45;readobj.dir/Win64EHDumper.cpp.o</text>
</g>
<!-- Node0x55b289510e18&#45;&gt;Node0x55b28950e898 -->
<g id="edge32" class="edge">
<title>Node0x55b289510e18&#45;&gt;Node0x55b28950e898</title>
<path fill="none" stroke="#ff7f7f" d="M1493.82,-607.31C1501.54,-598.42 1512.05,-587.41 1522.07,-577.67"/>
<polygon fill="#ff7f7f" stroke="#ff7f7f" points="1524.75,-579.96 1529.59,-570.53 1519.93,-574.88 1524.75,-579.96"/>
</g>
<!-- Node0x55b289512718&#45;&gt;Node0x55b28950ee38 -->
<g id="edge71" class="edge">
<title>Node0x55b289512718&#45;&gt;Node0x55b28950ee38</title>
<path fill="none" stroke="#ff7f7f" d="M1778.44,-1227.54C1827.05,-1235.54 1870.49,-1247.18 1888,-1264 1946.87,-1320.57 1953.42,-1382.01 1904,-1447 1893.23,-1461.17 1860.2,-1472.56 1824.45,-1481.13"/>
<polygon fill="#ff7f7f" stroke="#ff7f7f" points="1823.27,-1477.81 1814.31,-1483.47 1824.84,-1484.63 1823.27,-1477.81"/>
</g>
<!-- Node0x55b289512718&#45;&gt;Node0x55b28950c1d8 -->
<g id="edge77" class="edge">
<title>Node0x55b289512718&#45;&gt;Node0x55b28950c1d8</title>
<path fill="none" stroke="#ff7f7f" d="M1591.34,-1227.59C1592.96,-1261.41 1582.6,-1336.81 1537,-1374 1494.37,-1408.78 1345.66,-1420.96 1247.91,-1425.22"/>
<polygon fill="#ff7f7f" stroke="#ff7f7f" points="1247.57,-1421.73 1237.73,-1425.64 1247.86,-1428.72 1247.57,-1421.73"/>
</g>
<!-- Node0x55b289512718&#45;&gt;Node0x55b28950b7d8 -->
<g id="edge79" class="edge">
<title>Node0x55b289512718&#45;&gt;Node0x55b28950b7d8</title>
<path fill="none" stroke="#ff7f7f" d="M1401.05,-1191.5C1336.41,-1183.25 1263.89,-1171.46 1199,-1155 1108.9,-1132.15 1086.2,-1123.47 1003,-1082 683.36,-922.68 466.32,-817.15 493,-461 495.45,-428.28 480.34,-410.73 504,-388 556.71,-337.35 762.63,-377.88 831,-352 870.67,-336.98 947.07,-256.33 987,-242 1015.88,-231.64 1425.53,-205.36 1614.65,-193.94"/>
<polygon fill="#ff7f7f" stroke="#ff7f7f" points="1615.09,-197.42 1624.86,-193.33 1614.67,-190.43 1615.09,-197.42"/>
</g>
<!-- Node0x55b289512718&#45;&gt;Node0x55b289512088 -->
<g id="edge73" class="edge">
<title>Node0x55b289512718&#45;&gt;Node0x55b289512088</title>
<path fill="none" stroke="#ff7f7f" d="M1506.78,-1191.41C1467.25,-1181.76 1419.2,-1168.87 1377,-1155 1355.96,-1148.08 1020.65,-1025.61 1006,-1009 924.74,-916.86 840.25,-541.56 933,-461 993.28,-408.64 1035.24,-455.56 1109,-425 1136.56,-413.58 1139.85,-404.04 1165,-388 1181.4,-377.54 1199.72,-366.23 1216.01,-356.7"/>
<polygon fill="#ff7f7f" stroke="#ff7f7f" points="1217.91,-359.65 1224.82,-351.62 1214.41,-353.58 1217.91,-359.65"/>
</g>
<!-- Node0x55b289512718&#45;&gt;Node0x55b28950bd28 -->
<g id="edge78" class="edge">
<title>Node0x55b289512718&#45;&gt;Node0x55b28950bd28</title>
<path fill="none" stroke="#ff7f7f" d="M1829.56,-1199.37C2000.7,-1191.27 2214.28,-1177.23 2301,-1155 2376.71,-1135.59 2394.9,-1123.71 2461,-1082 2556.65,-1021.65 2656,-1031.6 2656,-918.5 2656,-918.5 2656,-918.5 2656,-770.5 2656,-589.47 2595.91,-550.44 2516,-388 2499.67,-354.8 2498.78,-344.15 2476,-315 2467.76,-304.46 2457.37,-294.18 2448.16,-285.49"/>
<polygon fill="#ff7f7f" stroke="#ff7f7f" points="2450.48,-282.86 2440.78,-278.59 2445.7,-287.98 2450.48,-282.86"/>
</g>
<!-- Node0x55b289512718&#45;&gt;Node0x55b289510e18 -->
<g id="edge72" class="edge">
<title>Node0x55b289512718&#45;&gt;Node0x55b289510e18</title>
<path fill="none" stroke="#ff7f7f" d="M1552.87,-1191.32C1537.9,-1182.3 1521.23,-1169.98 1510,-1155 1407.43,-1018.12 1415.47,-958.82 1388,-790 1385.36,-773.77 1382.79,-768.6 1388,-753 1395.43,-730.73 1435.29,-681.81 1460.96,-651.75"/>
<polygon fill="#ff7f7f" stroke="#ff7f7f" points="1463.92,-653.67 1467.79,-643.81 1458.61,-649.11 1463.92,-653.67"/>
</g>
<!-- Node0x55b289512718&#45;&gt;Node0x55b28950d268 -->
<g id="edge75" class="edge">
<title>Node0x55b289512718&#45;&gt;Node0x55b28950d268</title>
<path fill="none" stroke="#ff7f7f" d="M1713.02,-1191.44C1793.62,-1180.99 1900.36,-1167.3 1995,-1155 1999.41,-1154.43 2003.89,-1153.84 2008.43,-1153.25"/>
<polygon fill="#ff7f7f" stroke="#ff7f7f" points="2008.97,-1156.71 2018.43,-1151.95 2008.06,-1149.77 2008.97,-1156.71"/>
</g>
<!-- Node0x55b289512718&#45;&gt;Node0x55b289509fc8 -->
<g id="edge74" class="edge">
<title>Node0x55b289512718&#45;&gt;Node0x55b289509fc8</title>
<path fill="none" stroke="#ff7f7f" d="M1488.39,-1227.55C1424.18,-1238.22 1340.05,-1251.96 1271.98,-1262.9"/>
<polygon fill="#ff7f7f" stroke="#ff7f7f" points="1271.37,-1259.45 1262.05,-1264.49 1272.48,-1266.36 1271.37,-1259.45"/>
</g>
<!-- Node0x55b28950c688 -->
<g id="node22" class="node">
<title>Node0x55b28950c688</title>
<polygon fill="none" stroke="black" points="1552,-1118.5 1552,-1154.5 1734,-1154.5 1734,-1118.5 1552,-1118.5"/>
<text text-anchor="middle" x="1643" y="-1132.8" font-family="Times,serif" font-size="14.00">lib/libLLVMDemangle.a</text>
</g>
<!-- Node0x55b289512718&#45;&gt;Node0x55b28950c688 -->
<g id="edge76" class="edge">
<title>Node0x55b289512718&#45;&gt;Node0x55b28950c688</title>
<path fill="none" stroke="black" d="M1600.56,-1191.31C1607.37,-1182.68 1615.75,-1172.06 1623.25,-1162.53"/>
<polygon fill="black" stroke="black" points="1626.12,-1164.55 1629.57,-1154.53 1620.63,-1160.21 1626.12,-1164.55"/>
</g>
<!-- Node0x55b28950da38&#45;&gt;Node0x55b28950c1d8 -->
<g id="edge112" class="edge">
<title>Node0x55b28950da38&#45;&gt;Node0x55b28950c1d8</title>
<path fill="none" stroke="#ff7f7f" d="M1811.93,-47.94C1237.25,-60.48 18,-97.48 18,-186.5 18,-918.5 18,-918.5 18,-918.5 18,-1154.75 71.17,-1290.06 292,-1374 363.61,-1401.22 863.3,-1418.69 1069.95,-1424.93"/>
<polygon fill="#ff7f7f" stroke="#ff7f7f" points="1070.06,-1428.43 1080.16,-1425.24 1070.27,-1421.44 1070.06,-1428.43"/>
</g>
<!-- Node0x55b28950da38&#45;&gt;Node0x55b28950b7d8 -->
<g id="edge113" class="edge">
<title>Node0x55b28950da38&#45;&gt;Node0x55b28950b7d8</title>
<path fill="none" stroke="#ff7f7f" d="M2062.63,-59.56C1992.25,-86.18 1851.26,-137.49 1770.12,-166.05"/>
<polygon fill="#ff7f7f" stroke="#ff7f7f" points="1768.81,-162.8 1760.54,-169.42 1771.13,-169.41 1768.81,-162.8"/>
</g>
<!-- Node0x55b28950da38&#45;&gt;Node0x55b289510e18 -->
<g id="edge111" class="edge">
<title>Node0x55b28950da38&#45;&gt;Node0x55b289510e18</title>
<path fill="none" stroke="#ff7f7f" d="M2286.49,-59.58C2322.76,-67.55 2359.63,-79.16 2392,-96 2519.33,-162.25 2600.9,-185.27 2541,-279 2374.59,-539.38 2207.07,-485.89 1910,-571 1853.99,-587.05 1792.47,-598.28 1734.01,-606.15"/>
<polygon fill="#ff7f7f" stroke="#ff7f7f" points="1733.35,-602.7 1723.89,-607.48 1734.27,-609.64 1733.35,-602.7"/>
</g>
<!-- Node0x55b28950e0c8&#45;&gt;Node0x55b28950c1d8 -->
<g id="edge122" class="edge">
<title>Node0x55b28950e0c8&#45;&gt;Node0x55b28950c1d8</title>
<path fill="none" stroke="#ff7f7f" d="M2394.46,-1081.54C2390.45,-1101.71 2376.75,-1135.09 2354,-1155 2283.74,-1216.5 2244.82,-1196.29 2157,-1228 2019.63,-1277.6 1984.69,-1288.3 1847,-1337 1800.75,-1353.36 1790.91,-1363.42 1743,-1374 1570.75,-1412.03 1363.67,-1423.06 1248.08,-1426.23"/>
<polygon fill="#ff7f7f" stroke="#ff7f7f" points="1247.77,-1422.74 1237.86,-1426.5 1247.95,-1429.74 1247.77,-1422.74"/>
</g>
<!-- Node0x55b28950e0c8&#45;&gt;Node0x55b28950b7d8 -->
<g id="edge123" class="edge">
<title>Node0x55b28950e0c8&#45;&gt;Node0x55b28950b7d8</title>
<path fill="none" stroke="#ff7f7f" d="M2400.34,-1045.23C2419.41,-998.02 2467.33,-863.01 2442,-753 2391.9,-535.42 2333.16,-491.17 2196,-315 2169.85,-281.41 2171.44,-262.26 2134,-242 2078.72,-212.09 1911.12,-198.35 1803.65,-192.47"/>
<polygon fill="#ff7f7f" stroke="#ff7f7f" points="1803.62,-188.96 1793.45,-191.93 1803.25,-195.95 1803.62,-188.96"/>
</g>
<!-- Node0x55b28950e0c8&#45;&gt;Node0x55b28950d768 -->
<g id="edge121" class="edge">
<title>Node0x55b28950e0c8&#45;&gt;Node0x55b28950d768</title>
<path fill="none" stroke="#ff7f7f" d="M2410.91,-1045.39C2435.66,-1021.52 2481.41,-976.59 2518,-936 2546.12,-904.81 2552.03,-896 2578,-863 2628.25,-799.16 2652.61,-790.13 2688,-717 2764.54,-558.83 2788,-510.21 2788,-334.5 2788,-334.5 2788,-334.5 2788,-259.5 2788,-195.16 2734.24,-194.12 2675,-169 2625.55,-148.03 2495.48,-133.54 2393.26,-124.98"/>
<polygon fill="#ff7f7f" stroke="#ff7f7f" points="2393.4,-121.48 2383.15,-124.14 2392.82,-128.46 2393.4,-121.48"/>
</g>
<!-- Node0x55b28950e0c8&#45;&gt;Node0x55b28950bd28 -->
<g id="edge125" class="edge">
<title>Node0x55b28950e0c8&#45;&gt;Node0x55b28950bd28</title>
<path fill="none" stroke="#ff7f7f" d="M2432.15,-1045.37C2476.29,-1023.09 2542,-979.66 2542,-918.5 2542,-918.5 2542,-918.5 2542,-843.5 2542,-731.08 2458.38,-387.2 2433.75,-288.34"/>
<polygon fill="#ff7f7f" stroke="#ff7f7f" points="2437.12,-287.39 2431.3,-278.53 2430.33,-289.08 2437.12,-287.39"/>
</g>
<!-- Node0x55b28950e0c8&#45;&gt;Node0x55b289512718 -->
<g id="edge124" class="edge">
<title>Node0x55b28950e0c8&#45;&gt;Node0x55b289512718</title>
<path fill="none" stroke="#ff7f7f" d="M2375.32,-1081.82C2352.16,-1103.29 2309.28,-1138.98 2265,-1155 2225.04,-1169.45 2015.63,-1184.57 1839.98,-1195.03"/>
<polygon fill="#ff7f7f" stroke="#ff7f7f" points="1839.56,-1191.55 1829.79,-1195.64 1839.98,-1198.54 1839.56,-1191.55"/>
</g>
<!-- Node0x55b28950e0c8&#45;&gt;Node0x55b28950dd08 -->
<g id="edge126" class="edge">
<title>Node0x55b28950e0c8&#45;&gt;Node0x55b28950dd08</title>
<path fill="none" stroke="#ff7f7f" d="M2325.08,-1058.91C2113.34,-1047.4 1464.8,-1011.41 1214.22,-997.28"/>
<polygon fill="#ff7f7f" stroke="#ff7f7f" points="1214.22,-993.77 1204.04,-996.71 1213.82,-1000.76 1214.22,-993.77"/>
</g>
<!-- Node0x55b28950e0c8&#45;&gt;Node0x55b289509fc8 -->
<g id="edge127" class="edge">
<title>Node0x55b28950e0c8&#45;&gt;Node0x55b289509fc8</title>
<path fill="none" stroke="#ff7f7f" d="M2382.11,-1081.85C2368.08,-1102.65 2341.69,-1136.98 2310,-1155 2292.73,-1164.82 1979.68,-1225.31 1960,-1228 1774.3,-1253.39 1562.87,-1266.84 1402.88,-1273.91"/>
<polygon fill="#ff7f7f" stroke="#ff7f7f" points="1402.25,-1270.43 1392.42,-1274.36 1402.56,-1277.43 1402.25,-1270.43"/>
</g>
<!-- Node0x55b28950d268&#45;&gt;Node0x55b28950ee38 -->
<g id="edge80" class="edge">
<title>Node0x55b28950d268&#45;&gt;Node0x55b28950ee38</title>
<path fill="none" stroke="#ff7f7f" d="M2157.2,-1154.8C2184.01,-1179.8 2228,-1228.86 2228,-1281.5 2228,-1356.5 2228,-1356.5 2228,-1356.5 2228,-1425.61 2054.41,-1462.98 1908.4,-1482.18"/>
<polygon fill="#ff7f7f" stroke="#ff7f7f" points="1907.85,-1478.73 1898.38,-1483.48 1908.75,-1485.67 1907.85,-1478.73"/>
</g>
<!-- Node0x55b28950d268&#45;&gt;Node0x55b28950c1d8 -->
<g id="edge85" class="edge">
<title>Node0x55b28950d268&#45;&gt;Node0x55b28950c1d8</title>
<path fill="none" stroke="#ff7f7f" d="M2115.92,-1154.65C2084.69,-1175.1 2024.66,-1208.91 1969,-1228 1888.12,-1255.74 1860.63,-1235.54 1780,-1264 1682.13,-1298.55 1672.82,-1342.26 1574,-1374 1465.37,-1408.88 1333.39,-1421.06 1247.81,-1425.28"/>
<polygon fill="#ff7f7f" stroke="#ff7f7f" points="1247.43,-1421.8 1237.61,-1425.76 1247.76,-1428.79 1247.43,-1421.8"/>
</g>
<!-- Node0x55b28950d268&#45;&gt;Node0x55b28950b7d8 -->
<g id="edge87" class="edge">
<title>Node0x55b28950d268&#45;&gt;Node0x55b28950b7d8</title>
<path fill="none" stroke="#ff7f7f" d="M2113.85,-1118.47C2059.16,-1071.96 1924.93,-936.45 1885,-790 1880.67,-774.13 1878.19,-767.97 1885,-753 1902.7,-714.07 2030,-669.26 2030,-626.5 2030,-626.5 2030,-626.5 2030,-478.5 2030,-359.19 1996.68,-315.89 1903,-242 1874.42,-219.45 1837.23,-206.36 1803.04,-198.77"/>
<polygon fill="#ff7f7f" stroke="#ff7f7f" points="1803.52,-195.29 1793.02,-196.68 1802.09,-202.15 1803.52,-195.29"/>
</g>
<!-- Node0x55b28950d268&#45;&gt;Node0x55b289512088 -->
<g id="edge83" class="edge">
<title>Node0x55b28950d268&#45;&gt;Node0x55b289512088</title>
<path fill="none" stroke="#ff7f7f" d="M2027.89,-1118.48C1985.04,-1110.02 1935.94,-1098.1 1893,-1082 1576.93,-963.54 1491.88,-926.22 1227,-717 1133.35,-643.03 1080.22,-560.57 1146,-461 1163.99,-433.77 1186.91,-448.07 1210,-425 1228.34,-406.68 1242.16,-380.41 1250.75,-360.88"/>
<polygon fill="#ff7f7f" stroke="#ff7f7f" points="1253.99,-362.21 1254.66,-351.64 1247.55,-359.49 1253.99,-362.21"/>
</g>
<!-- Node0x55b28950d268&#45;&gt;Node0x55b28950d768 -->
<g id="edge84" class="edge">
<title>Node0x55b28950d268&#45;&gt;Node0x55b28950d768</title>
<path fill="none" stroke="#ff7f7f" d="M2255.82,-1124.75C2336.02,-1115.93 2433.63,-1101.68 2470,-1082 2694.12,-960.72 2769.9,-889 2840,-644 2877.95,-511.35 2864,-472.47 2864,-334.5 2864,-334.5 2864,-334.5 2864,-259.5 2864,-217.89 2871.79,-195.85 2840,-169 2806.6,-140.78 2555.08,-126.35 2393.19,-119.9"/>
<polygon fill="#ff7f7f" stroke="#ff7f7f" points="2393.27,-116.4 2383.14,-119.51 2393,-123.39 2393.27,-116.4"/>
</g>
<!-- Node0x55b28950d268&#45;&gt;Node0x55b28950bd28 -->
<g id="edge86" class="edge">
<title>Node0x55b28950d268&#45;&gt;Node0x55b28950bd28</title>
<path fill="none" stroke="#ff7f7f" d="M2171.8,-1118.38C2264.46,-1072.01 2513.07,-942.13 2556,-863 2665.57,-661.04 2499.88,-373.73 2444.19,-287.15"/>
<polygon fill="#ff7f7f" stroke="#ff7f7f" points="2447.09,-285.2 2438.7,-278.72 2441.22,-289.01 2447.09,-285.2"/>
</g>
<!-- Node0x55b28950d268&#45;&gt;Node0x55b289510e18 -->
<g id="edge81" class="edge">
<title>Node0x55b28950d268&#45;&gt;Node0x55b289510e18</title>
<path fill="none" stroke="#ff7f7f" d="M2063.75,-1118.44C2032.66,-1109.72 1996.62,-1097.62 1966,-1082 1820.86,-1007.96 1789.15,-976.24 1672,-863 1600.43,-793.82 1531.32,-697.58 1500.2,-652.16"/>
<polygon fill="#ff7f7f" stroke="#ff7f7f" points="1503.01,-650.08 1494.49,-643.78 1497.23,-654.02 1503.01,-650.08"/>
</g>
<!-- Node0x55b28950d268&#45;&gt;Node0x55b289512718 -->
<g id="edge82" class="edge">
<title>Node0x55b28950d268&#45;&gt;Node0x55b289512718</title>
<path fill="none" stroke="#ff7f7f" d="M2018.23,-1154.32C2016.48,-1154.55 2014.73,-1154.77 2013,-1155 1922.24,-1166.79 1820.35,-1179.87 1738.95,-1190.14"/>
<polygon fill="#ff7f7f" stroke="#ff7f7f" points="1738.11,-1186.72 1728.62,-1191.44 1738.98,-1193.66 1738.11,-1186.72"/>
</g>
<!-- Node0x55b28950d268&#45;&gt;Node0x55b28950da38 -->
<g id="edge90" class="edge">
<title>Node0x55b28950d268&#45;&gt;Node0x55b28950da38</title>
<path fill="none" stroke="#ff7f7f" d="M2255.83,-1124.75C2461.96,-1102.79 2864,-1043.88 2864,-918.5 2864,-918.5 2864,-918.5 2864,-843.5 2864,-741.31 2940,-728.69 2940,-626.5 2940,-626.5 2940,-626.5 2940,-551.5 2940,-418.26 3016,-394.74 3016,-261.5 3016,-261.5 3016,-261.5 3016,-186.5 3016,-129.48 3385.79,-219.62 2767,-96 2651.07,-72.84 2521.81,-59.65 2408.5,-52.16"/>
<polygon fill="#ff7f7f" stroke="#ff7f7f" points="2408.49,-48.65 2398.28,-51.49 2408.03,-55.63 2408.49,-48.65"/>
</g>
<!-- Node0x55b28950d268&#45;&gt;Node0x55b28950e0c8 -->
<g id="edge89" class="edge">
<title>Node0x55b28950d268&#45;&gt;Node0x55b28950e0c8</title>
<path fill="none" stroke="#ff7f7f" d="M2198.32,-1118.49C2235.41,-1108.21 2282.86,-1095.05 2321.64,-1084.29"/>
<polygon fill="#ff7f7f" stroke="#ff7f7f" points="2322.59,-1087.66 2331.29,-1081.61 2320.72,-1080.91 2322.59,-1087.66"/>
</g>
<!-- Node0x55b28950d268&#45;&gt;Node0x55b289509fc8 -->
<g id="edge88" class="edge">
<title>Node0x55b28950d268&#45;&gt;Node0x55b289509fc8</title>
<path fill="none" stroke="#ff7f7f" d="M2065.35,-1154.55C2034.97,-1163.26 1999.79,-1175.36 1970,-1191 1946.15,-1203.52 1947.18,-1218.43 1922,-1228 1874.09,-1246.2 1608.42,-1261.76 1402.39,-1271.33"/>
<polygon fill="#ff7f7f" stroke="#ff7f7f" points="1402.15,-1267.83 1392.32,-1271.79 1402.47,-1274.83 1402.15,-1267.83"/>
</g>
<!-- Node0x55b28950f108&#45;&gt;Node0x55b28950ee38 -->
<g id="edge128" class="edge">
<title>Node0x55b28950f108&#45;&gt;Node0x55b28950ee38</title>
<path fill="none" stroke="#ff7f7f" d="M1780.41,-716.54C1764.35,-724.92 1748.11,-736.79 1739,-753 1714.52,-796.53 1741.15,-817.61 1762,-863 1853.4,-1061.99 2022,-1062.53 2022,-1281.5 2022,-1356.5 2022,-1356.5 2022,-1356.5 2022,-1426.26 1956.78,-1462.32 1886.07,-1480.92"/>
<polygon fill="#ff7f7f" stroke="#ff7f7f" points="1884.91,-1477.61 1876.06,-1483.44 1886.61,-1484.4 1884.91,-1477.61"/>
</g>
<!-- Node0x55b28950f108&#45;&gt;Node0x55b28950c1d8 -->
<g id="edge133" class="edge">
<title>Node0x55b28950f108&#45;&gt;Node0x55b28950c1d8</title>
<path fill="none" stroke="#ff7f7f" d="M1736.4,-713.27C1705.1,-721.16 1671.14,-733.55 1644,-753 1548.21,-821.65 1379.77,-1078.4 1345,-1191 1340.15,-1206.71 1336.65,-1213.83 1345,-1228 1361.77,-1256.45 1393.23,-1235.55 1410,-1264 1418.35,-1278.17 1418.52,-1286.93 1410,-1301 1375.23,-1358.4 1304.92,-1391 1247.48,-1408.68"/>
<polygon fill="#ff7f7f" stroke="#ff7f7f" points="1246.24,-1405.39 1237.65,-1411.6 1248.23,-1412.1 1246.24,-1405.39"/>
</g>
<!-- Node0x55b28950f108&#45;&gt;Node0x55b28950b7d8 -->
<g id="edge135" class="edge">
<title>Node0x55b28950f108&#45;&gt;Node0x55b28950b7d8</title>
<path fill="none" stroke="#ff7f7f" d="M1851.07,-680.47C1862.71,-671.01 1875.89,-658.28 1884,-644 1937.17,-550.43 1936,-515.12 1936,-407.5 1936,-407.5 1936,-407.5 1936,-332.5 1936,-265.25 1864.07,-228.08 1801.2,-208.44"/>
<polygon fill="#ff7f7f" stroke="#ff7f7f" points="1802.18,-205.08 1791.59,-205.55 1800.16,-211.78 1802.18,-205.08"/>
</g>
<!-- Node0x55b28950f108&#45;&gt;Node0x55b289512088 -->
<g id="edge131" class="edge">
<title>Node0x55b28950f108&#45;&gt;Node0x55b289512088</title>
<path fill="none" stroke="#ff7f7f" d="M1840.26,-680.25C1862.34,-649.26 1901.59,-582.87 1874,-534 1812.24,-424.62 1750.3,-430.25 1632,-388 1587.66,-372.16 1538.75,-361 1491.39,-353.15"/>
<polygon fill="#ff7f7f" stroke="#ff7f7f" points="1491.74,-349.66 1481.31,-351.52 1490.62,-356.57 1491.74,-349.66"/>
</g>
<!-- Node0x55b28950f108&#45;&gt;Node0x55b28950d768 -->
<g id="edge132" class="edge">
<title>Node0x55b28950f108&#45;&gt;Node0x55b28950d768</title>
<path fill="none" stroke="#ff7f7f" d="M1855.2,-680.27C1870.89,-670.28 1890.53,-657.11 1907,-644 1981.03,-585.05 2004.91,-573.48 2062,-498 2153.25,-377.37 2221.83,-207.35 2246.27,-142.27"/>
<polygon fill="#ff7f7f" stroke="#ff7f7f" points="2249.61,-143.34 2249.81,-132.75 2243.04,-140.9 2249.61,-143.34"/>
</g>
<!-- Node0x55b28950f108&#45;&gt;Node0x55b289510e18 -->
<g id="edge129" class="edge">
<title>Node0x55b28950f108&#45;&gt;Node0x55b289510e18</title>
<path fill="none" stroke="#ff7f7f" d="M1744.6,-680.49C1693.72,-669.99 1628.32,-656.49 1575.64,-645.62"/>
<polygon fill="#ff7f7f" stroke="#ff7f7f" points="1576.12,-642.15 1565.62,-643.55 1574.7,-649 1576.12,-642.15"/>
</g>
<!-- Node0x55b28950f108&#45;&gt;Node0x55b289512718 -->
<g id="edge130" class="edge">
<title>Node0x55b28950f108&#45;&gt;Node0x55b289512718</title>
<path fill="none" stroke="#ff7f7f" d="M1736.37,-716.25C1713.1,-724.18 1689.67,-735.85 1672,-753 1616.23,-807.12 1610,-838.78 1610,-916.5 1610,-991.5 1610,-991.5 1610,-991.5 1610,-1073.08 1710.84,-1043.03 1743,-1118 1749.48,-1133.11 1752.56,-1141.62 1743,-1155 1732.91,-1169.12 1718.86,-1179.55 1703.28,-1187.25"/>
<polygon fill="#ff7f7f" stroke="#ff7f7f" points="1701.62,-1184.17 1693.95,-1191.48 1704.51,-1190.54 1701.62,-1184.17"/>
</g>
<!-- Node0x55b28950f108&#45;&gt;Node0x55b28950d268 -->
<g id="edge137" class="edge">
<title>Node0x55b28950f108&#45;&gt;Node0x55b28950d268</title>
<path fill="none" stroke="#ff7f7f" d="M1786.72,-716.62C1771.75,-725.21 1756.38,-737.2 1748,-753 1740.29,-767.53 1742.76,-774.41 1748,-790 1767.46,-847.88 1868.05,-968.77 1914,-1009 1943.5,-1034.83 2038.03,-1085.03 2094.1,-1113.81"/>
<polygon fill="#ff7f7f" stroke="#ff7f7f" points="2092.59,-1116.97 2103.08,-1118.41 2095.78,-1110.74 2092.59,-1116.97"/>
</g>
<!-- Node0x55b28950f108&#45;&gt;Node0x55b28950ec58 -->
<g id="edge134" class="edge">
<title>Node0x55b28950f108&#45;&gt;Node0x55b28950ec58</title>
<path fill="none" stroke="#ff7f7f" d="M1843.55,-716.59C1857.97,-735.92 1879.24,-767.61 1903,-790 1949.19,-833.52 2012.18,-871.47 2051.57,-894.17"/>
<polygon fill="#ff7f7f" stroke="#ff7f7f" points="2050.16,-897.39 2060.57,-899.33 2053.64,-891.32 2050.16,-897.39"/>
</g>
<!-- Node0x55b28950e258 -->
<g id="node23" class="node">
<title>Node0x55b28950e258</title>
<polygon fill="#ff7f7f" stroke="black" points="1902.5,-753.5 1902.5,-789.5 2133.5,-789.5 2133.5,-753.5 1902.5,-753.5"/>
<text text-anchor="middle" x="2018" y="-767.8" font-family="Times,serif" font-size="14.00">lib/libLLVMBitstreamReader.a</text>
</g>
<!-- Node0x55b28950f108&#45;&gt;Node0x55b28950e258 -->
<g id="edge136" class="edge">
<title>Node0x55b28950f108&#45;&gt;Node0x55b28950e258</title>
<path fill="none" stroke="#ff7f7f" d="M1878.91,-716.61C1906.87,-726.61 1941.11,-739.31 1968.66,-749.86"/>
<polygon fill="#ff7f7f" stroke="#ff7f7f" points="1967.52,-753.17 1978.11,-753.49 1970.03,-746.64 1967.52,-753.17"/>
</g>
<!-- Node0x55b28950ec58&#45;&gt;Node0x55b28950ee38 -->
<g id="edge138" class="edge">
<title>Node0x55b28950ec58&#45;&gt;Node0x55b28950ee38</title>
<path fill="none" stroke="#ff7f7f" d="M2146.66,-935.54C2247.15,-965.08 2443.94,-1024.6 2470,-1045 2507.43,-1074.3 2527,-1087.96 2527,-1135.5 2527,-1356.5 2527,-1356.5 2527,-1356.5 2527,-1416.91 2175.65,-1460.05 1934.04,-1482.56"/>
<polygon fill="#ff7f7f" stroke="#ff7f7f" points="1933.7,-1479.08 1924.06,-1483.49 1934.34,-1486.05 1933.7,-1479.08"/>
</g>
<!-- Node0x55b28950ec58&#45;&gt;Node0x55b28950c1d8 -->
<g id="edge139" class="edge">
<title>Node0x55b28950ec58&#45;&gt;Node0x55b28950c1d8</title>
<path fill="none" stroke="#ff7f7f" d="M2122.9,-935.51C2192.27,-974.31 2335.01,-1072.39 2274,-1155 2241.68,-1198.76 2208.7,-1174.07 2157,-1191 2063.1,-1221.76 2040.26,-1231.35 1947,-1264 1929.65,-1270.07 1652.91,-1369.87 1635,-1374 1502.32,-1404.58 1344.22,-1418.02 1247.7,-1423.68"/>
<polygon fill="#ff7f7f" stroke="#ff7f7f" points="1247.47,-1420.19 1237.69,-1424.25 1247.87,-1427.18 1247.47,-1420.19"/>
</g>
<!-- Node0x55b28950ec58&#45;&gt;Node0x55b28950b7d8 -->
<g id="edge140" class="edge">
<title>Node0x55b28950ec58&#45;&gt;Node0x55b28950b7d8</title>
<path fill="none" stroke="#ff7f7f" d="M2097.36,-899.43C2124.27,-850.18 2200,-710.66 2200,-699.5 2200,-699.5 2200,-699.5 2200,-624.5 2200,-440.23 2196.07,-339.98 2040,-242 2001.51,-217.83 1886.82,-203.24 1803.21,-195.54"/>
<polygon fill="#ff7f7f" stroke="#ff7f7f" points="1803.45,-192.05 1793.18,-194.63 1802.82,-199.02 1803.45,-192.05"/>
</g>
<!-- Node0x55b28950ec58&#45;&gt;Node0x55b289512088 -->
<g id="edge145" class="edge">
<title>Node0x55b28950ec58&#45;&gt;Node0x55b289512088</title>
<path fill="none" stroke="#ff7f7f" d="M2015.66,-905.19C1821.5,-873.27 1296.48,-776.12 1191,-644 1139.95,-580.06 1123.5,-527.62 1171,-461 1193.4,-429.58 1227.2,-456.13 1250,-425 1263.26,-406.9 1265.2,-381.1 1264.3,-361.67"/>
<polygon fill="#ff7f7f" stroke="#ff7f7f" points="1267.79,-361.34 1263.56,-351.62 1260.81,-361.85 1267.79,-361.34"/>
</g>
<!-- Node0x55b28950ec58&#45;&gt;Node0x55b28950d768 -->
<g id="edge143" class="edge">
<title>Node0x55b28950ec58&#45;&gt;Node0x55b28950d768</title>
<path fill="none" stroke="#ff7f7f" d="M2160.09,-906.26C2238.29,-894.62 2354.29,-875.61 2371,-863 2423.44,-823.43 2636,-400.19 2636,-334.5 2636,-334.5 2636,-334.5 2636,-259.5 2636,-200.86 2475.77,-157.66 2363.4,-134.57"/>
<polygon fill="#ff7f7f" stroke="#ff7f7f" points="2363.86,-131.09 2353.37,-132.53 2362.47,-137.95 2363.86,-131.09"/>
</g>
<!-- Node0x55b28950ec58&#45;&gt;Node0x55b28950bd28 -->
<g id="edge144" class="edge">
<title>Node0x55b28950ec58&#45;&gt;Node0x55b28950bd28</title>
<path fill="none" stroke="#ff7f7f" d="M2105.4,-899.38C2137.69,-867.57 2204.46,-801.52 2214,-790 2245.11,-752.46 2276,-748.26 2276,-699.5 2276,-699.5 2276,-699.5 2276,-551.5 2276,-442.3 2361.27,-333.46 2403.65,-286.1"/>
<polygon fill="#ff7f7f" stroke="#ff7f7f" points="2406.42,-288.27 2410.55,-278.51 2401.24,-283.56 2406.42,-288.27"/>
</g>
<!-- Node0x55b28950ec58&#45;&gt;Node0x55b289510e18 -->
<g id="edge142" class="edge">
<title>Node0x55b28950ec58&#45;&gt;Node0x55b289510e18</title>
<path fill="none" stroke="#ff7f7f" d="M2033.09,-899.46C2003.61,-889.78 1966.88,-876.84 1935,-863 1774.35,-793.24 1741.27,-761.03 1586,-680 1565.98,-669.55 1543.75,-658 1525.08,-648.31"/>
<polygon fill="#ff7f7f" stroke="#ff7f7f" points="1526.44,-645.07 1515.95,-643.57 1523.22,-651.29 1526.44,-645.07"/>
</g>
<!-- Node0x55b28950ec58&#45;&gt;Node0x55b289512718 -->
<g id="edge148" class="edge">
<title>Node0x55b28950ec58&#45;&gt;Node0x55b289512718</title>
<path fill="none" stroke="#ff7f7f" d="M2037.81,-935.67C1987.46,-955.14 1910.6,-991.34 1862,-1045 1826.19,-1084.53 1854.95,-1120.83 1814,-1155 1797.24,-1168.99 1754.31,-1180.69 1710.24,-1189.54"/>
<polygon fill="#ff7f7f" stroke="#ff7f7f" points="1709.38,-1186.14 1700.24,-1191.5 1710.72,-1193.01 1709.38,-1186.14"/>
</g>
<!-- Node0x55b28950ec58&#45;&gt;Node0x55b28950d268 -->
<g id="edge146" class="edge">
<title>Node0x55b28950ec58&#45;&gt;Node0x55b28950d268</title>
<path fill="none" stroke="#ff7f7f" d="M2096.69,-935.53C2108.29,-959.31 2128.28,-1004.15 2136,-1045 2139.96,-1065.94 2140,-1090.09 2139.17,-1108.18"/>
<polygon fill="#ff7f7f" stroke="#ff7f7f" points="2135.67,-1108.13 2138.58,-1118.31 2142.66,-1108.53 2135.67,-1108.13"/>
</g>
<!-- Node0x55b28950ec58&#45;&gt;Node0x55b28950f108 -->
<g id="edge141" class="edge">
<title>Node0x55b28950ec58&#45;&gt;Node0x55b28950f108</title>
<path fill="none" stroke="#ff7f7f" d="M2047.89,-899.33C2004.38,-877.52 1934.9,-837.01 1885,-790 1864.67,-770.85 1846.17,-744.89 1835.35,-725.68"/>
<polygon fill="#ff7f7f" stroke="#ff7f7f" points="1838.31,-723.8 1830.55,-716.59 1832.12,-727.07 1838.31,-723.8"/>
</g>
<!-- Node0x55b28950ec58&#45;&gt;Node0x55b289509fc8 -->
<g id="edge149" class="edge">
<title>Node0x55b28950ec58&#45;&gt;Node0x55b289509fc8</title>
<path fill="none" stroke="#ff7f7f" d="M2080.46,-935.58C2055.42,-989.92 1969.22,-1159.29 1839,-1228 1800.42,-1248.36 1582.76,-1262.89 1402.62,-1271.62"/>
<polygon fill="#ff7f7f" stroke="#ff7f7f" points="1402.27,-1268.13 1392.45,-1272.11 1402.6,-1275.12 1402.27,-1268.13"/>
</g>
<!-- Node0x55b28950e7a8 -->
<g id="node24" class="node">
<title>Node0x55b28950e7a8</title>
<polygon fill="#ff7f7f" stroke="black" points="2188.5,-826.5 2188.5,-862.5 2361.5,-862.5 2361.5,-826.5 2188.5,-826.5"/>
<text text-anchor="middle" x="2275" y="-840.8" font-family="Times,serif" font-size="14.00">lib/libLLVMRemarks.a</text>
</g>
<!-- Node0x55b28950ec58&#45;&gt;Node0x55b28950e7a8 -->
<g id="edge147" class="edge">
<title>Node0x55b28950ec58&#45;&gt;Node0x55b28950e7a8</title>
<path fill="none" stroke="#ff7f7f" d="M2132.79,-899.49C2159.08,-889.51 2192.5,-876.82 2220.33,-866.26"/>
<polygon fill="#ff7f7f" stroke="#ff7f7f" points="2221.82,-869.44 2229.93,-862.61 2219.34,-862.89 2221.82,-869.44"/>
</g>
<!-- Node0x55b28950dd08&#45;&gt;Node0x55b28950ee38 -->
<g id="edge150" class="edge">
<title>Node0x55b28950dd08&#45;&gt;Node0x55b28950ee38</title>
<path fill="none" stroke="#ff7f7f" d="M1023.94,-1004.86C797.03,-1042.05 232.73,-1158.49 418,-1374 482.94,-1449.54 1073.98,-1481.06 1434.1,-1493.35"/>
<polygon fill="#ff7f7f" stroke="#ff7f7f" points="1434.04,-1496.85 1444.15,-1493.69 1434.28,-1489.85 1434.04,-1496.85"/>
</g>
<!-- Node0x55b28950dd08&#45;&gt;Node0x55b28950c1d8 -->
<g id="edge154" class="edge">
<title>Node0x55b28950dd08&#45;&gt;Node0x55b28950c1d8</title>
<path fill="none" stroke="#ff7f7f" d="M1089.93,-1008.81C1020.11,-1056.67 828.84,-1194.31 912,-1301 952.29,-1352.69 996.3,-1307.85 1055,-1337 1088.93,-1353.85 1122.08,-1382.24 1141.77,-1402.73"/>
<polygon fill="#ff7f7f" stroke="#ff7f7f" points="1139.28,-1405.19 1148.63,-1410.16 1144.42,-1400.44 1139.28,-1405.19"/>
</g>
<!-- Node0x55b28950dd08&#45;&gt;Node0x55b28950b7d8 -->
<g id="edge155" class="edge">
<title>Node0x55b28950dd08&#45;&gt;Node0x55b28950b7d8</title>
<path fill="none" stroke="#ff7f7f" d="M1075.8,-972.4C996.97,-935.54 814.14,-841.75 700,-717 590.63,-597.46 434.4,-508.24 543,-388 595.85,-329.48 824.55,-385.36 896,-352 917.36,-342.03 914.01,-327.49 934,-315 1015.3,-264.18 1043.42,-262.85 1137,-242 1225.45,-222.29 1476.5,-203.61 1614.78,-194.42"/>
<polygon fill="#ff7f7f" stroke="#ff7f7f" points="1615.19,-197.9 1624.94,-193.75 1614.73,-190.92 1615.19,-197.9"/>
</g>
<!-- Node0x55b28950dd08&#45;&gt;Node0x55b289512088 -->
<g id="edge153" class="edge">
<title>Node0x55b28950dd08&#45;&gt;Node0x55b289512088</title>
<path fill="none" stroke="#ff7f7f" d="M1102.99,-972.17C1057.65,-899.81 889.36,-621.61 926,-534 943.82,-491.38 959.27,-482.8 1000,-461 1069.63,-423.74 1104.87,-463.18 1174,-425 1202.67,-409.17 1227.67,-380.73 1243.42,-359.95"/>
<polygon fill="#ff7f7f" stroke="#ff7f7f" points="1246.27,-361.97 1249.39,-351.85 1240.64,-357.82 1246.27,-361.97"/>
</g>
<!-- Node0x55b28950dd08&#45;&gt;Node0x55b289510e18 -->
<g id="edge151" class="edge">
<title>Node0x55b28950dd08&#45;&gt;Node0x55b289510e18</title>
<path fill="none" stroke="#ff7f7f" d="M1118.07,-972.31C1128.58,-930.76 1159.97,-823.17 1218,-753 1263.93,-697.46 1339.96,-664.68 1398.82,-646.47"/>
<polygon fill="#ff7f7f" stroke="#ff7f7f" points="1399.92,-649.79 1408.49,-643.56 1397.9,-643.09 1399.92,-649.79"/>
</g>
<!-- Node0x55b28950dd08&#45;&gt;Node0x55b289512718 -->
<g id="edge152" class="edge">
<title>Node0x55b28950dd08&#45;&gt;Node0x55b289512718</title>
<path fill="none" stroke="#ff7f7f" d="M1158.39,-1008.59C1213.54,-1030.61 1309.67,-1071.62 1386,-1118 1409.02,-1131.99 1410.32,-1142.17 1434,-1155 1459.01,-1168.55 1488.12,-1179.74 1514.2,-1188.32"/>
<polygon fill="#ff7f7f" stroke="#ff7f7f" points="1513.44,-1191.76 1524.03,-1191.48 1515.58,-1185.09 1513.44,-1191.76"/>
</g>
<!-- Node0x55b28950dd08&#45;&gt;Node0x55b28950e0c8 -->
<g id="edge156" class="edge">
<title>Node0x55b28950dd08&#45;&gt;Node0x55b28950e0c8</title>
<path fill="none" stroke="#ff7f7f" d="M1204.33,-996.31C1443.67,-1009.37 2090.88,-1045.3 2315.22,-1057.99"/>
<polygon fill="#ff7f7f" stroke="#ff7f7f" points="2315.08,-1061.49 2325.27,-1058.56 2315.48,-1054.5 2315.08,-1061.49"/>
</g>
<!-- Node0x55b28950dd08&#45;&gt;Node0x55b28950ec58 -->
<g id="edge157" class="edge">
<title>Node0x55b28950dd08&#45;&gt;Node0x55b28950ec58</title>
<path fill="none" stroke="#ff7f7f" d="M1204.32,-982.92C1392.7,-969.18 1825.01,-937.67 2005.98,-924.48"/>
<polygon fill="#ff7f7f" stroke="#ff7f7f" points="2006.25,-927.97 2015.97,-923.75 2005.74,-920.99 2006.25,-927.97"/>
</g>
<!-- Node0x55b2895105f8&#45;&gt;Node0x55b28950c1d8 -->
<g id="edge69" class="edge">
<title>Node0x55b2895105f8&#45;&gt;Node0x55b28950c1d8</title>
<path fill="none" stroke="#ff7f7f" d="M333.65,-278.53C265.25,-296.57 186,-333.01 186,-405.5 186,-699.5 186,-699.5 186,-699.5 186,-832.74 262,-856.26 262,-989.5 262,-1064.5 262,-1064.5 262,-1064.5 262,-1139.99 339.68,-1331.41 402,-1374 456.31,-1411.11 882.18,-1422.8 1070.29,-1426.21"/>
<polygon fill="#ff7f7f" stroke="#ff7f7f" points="1070.36,-1429.71 1080.42,-1426.39 1070.49,-1422.71 1070.36,-1429.71"/>
</g>
<!-- Node0x55b2895105f8&#45;&gt;Node0x55b28950b7d8 -->
<g id="edge70" class="edge">
<title>Node0x55b2895105f8&#45;&gt;Node0x55b28950b7d8</title>
<path fill="none" stroke="#ff7f7f" d="M703.6,-244.36C989.91,-228.45 1424.45,-204.31 1614.47,-193.75"/>
<polygon fill="#ff7f7f" stroke="#ff7f7f" points="1614.92,-197.23 1624.71,-193.18 1614.53,-190.24 1614.92,-197.23"/>
</g>
<!-- Node0x55b28950eb68&#45;&gt;Node0x55b28950ee38 -->
<g id="edge159" class="edge">
<title>Node0x55b28950eb68&#45;&gt;Node0x55b28950ee38</title>
<path fill="none" stroke="#ff7f7f" d="M2803.63,-1300.71C2793.8,-1335.45 2766.34,-1413.5 2711,-1447 2650.45,-1483.66 2262.21,-1495.33 1987.73,-1498.97"/>
<polygon fill="#ff7f7f" stroke="#ff7f7f" points="1987.56,-1495.47 1977.61,-1499.1 1987.66,-1502.47 1987.56,-1495.47"/>
</g>
<!-- Node0x55b28950eb68&#45;&gt;Node0x55b28950c1d8 -->
<g id="edge160" class="edge">
<title>Node0x55b28950eb68&#45;&gt;Node0x55b28950c1d8</title>
<path fill="none" stroke="#ff7f7f" d="M2724.94,-1292.58C2562.02,-1309.6 2189.29,-1347.01 1875,-1374 1649.69,-1393.35 1383.66,-1412.48 1248.06,-1421.74"/>
<polygon fill="#ff7f7f" stroke="#ff7f7f" points="1247.47,-1418.27 1237.73,-1422.44 1247.94,-1425.26 1247.47,-1418.27"/>
</g>
<!-- Node0x55b28950eb68&#45;&gt;Node0x55b28950b7d8 -->
<g id="edge158" class="edge">
<title>Node0x55b28950eb68&#45;&gt;Node0x55b28950b7d8</title>
<path fill="none" stroke="#ff7f7f" d="M2828.86,-1264.34C2856.55,-1239.5 2902,-1190.64 2902,-1137.5 2902,-1137.5 2902,-1137.5 2902,-916.5 2902,-777.23 2819.89,-417.87 2726,-315 2666.41,-249.71 2627.26,-261.29 2541,-242 2402.91,-211.12 1990.4,-196.2 1803.23,-190.88"/>
<polygon fill="#ff7f7f" stroke="#ff7f7f" points="1803.22,-187.37 1793.13,-190.59 1803.02,-194.37 1803.22,-187.37"/>
</g>
<!-- Node0x55b28950eb68&#45;&gt;Node0x55b28950d768 -->
<g id="edge164" class="edge">
<title>Node0x55b28950eb68&#45;&gt;Node0x55b28950d768</title>
<path fill="none" stroke="#ff7f7f" d="M2840.63,-1264.41C2879.72,-1241.31 2940,-1196.17 2940,-1137.5 2940,-1137.5 2940,-1137.5 2940,-916.5 2940,-818.59 2978,-797.41 2978,-699.5 2978,-699.5 2978,-699.5 2978,-551.5 2978,-449.31 2902,-436.69 2902,-334.5 2902,-334.5 2902,-334.5 2902,-259.5 2902,-216.05 2899.98,-194.78 2865,-169 2827.92,-141.67 2561.14,-126.81 2393.2,-120.07"/>
<polygon fill="#ff7f7f" stroke="#ff7f7f" points="2393.17,-116.56 2383.04,-119.67 2392.89,-123.56 2393.17,-116.56"/>
</g>
<!-- Node0x55b28950eb68&#45;&gt;Node0x55b28950bd28 -->
<g id="edge161" class="edge">
<title>Node0x55b28950eb68&#45;&gt;Node0x55b28950bd28</title>
<path fill="none" stroke="#ff7f7f" d="M2811.56,-1264.3C2816.8,-1237.38 2826,-1183.61 2826,-1137.5 2826,-1137.5 2826,-1137.5 2826,-1062.5 2826,-813.04 2738.45,-761.9 2637,-534 2592.04,-432.99 2595.9,-394.44 2519,-315 2506.87,-302.47 2491.17,-291.9 2476.19,-283.56"/>
<polygon fill="#ff7f7f" stroke="#ff7f7f" points="2477.46,-280.27 2466.99,-278.65 2474.17,-286.45 2477.46,-280.27"/>
</g>
<!-- Node0x55b28950eb68&#45;&gt;Node0x55b289512718 -->
<g id="edge165" class="edge">
<title>Node0x55b28950eb68&#45;&gt;Node0x55b289512718</title>
<path fill="none" stroke="#ff7f7f" d="M2724.56,-1276.65C2545.21,-1266.22 2116.85,-1241.31 1839.98,-1225.21"/>
<polygon fill="#ff7f7f" stroke="#ff7f7f" points="1839.97,-1221.7 1829.79,-1224.62 1839.57,-1228.69 1839.97,-1221.7"/>
</g>
<!-- Node0x55b28950eb68&#45;&gt;Node0x55b28950da38 -->
<g id="edge163" class="edge">
<title>Node0x55b28950eb68&#45;&gt;Node0x55b28950da38</title>
<path fill="none" stroke="#ff7f7f" d="M2856.26,-1264.43C2906.52,-1243.19 2978,-1201.71 2978,-1137.5 2978,-1137.5 2978,-1137.5 2978,-1062.5 2978,-897.67 3054,-864.33 3054,-699.5 3054,-699.5 3054,-699.5 3054,-186.5 3054,-149.65 3203.11,-180.98 2872,-96 2786.31,-74.01 2583.73,-60.45 2408.27,-52.48"/>
<polygon fill="#ff7f7f" stroke="#ff7f7f" points="2408.23,-48.98 2398.09,-52.02 2407.92,-55.97 2408.23,-48.98"/>
</g>
<!-- Node0x55b28950eb68&#45;&gt;Node0x55b28950e7a8 -->
<g id="edge162" class="edge">
<title>Node0x55b28950eb68&#45;&gt;Node0x55b28950e7a8</title>
<path fill="none" stroke="#ff7f7f" d="M2804.32,-1264.47C2794.75,-1223.27 2765.96,-1116.38 2711,-1045 2645.38,-959.78 2615.67,-944.05 2518,-899 2472.14,-877.85 2417.48,-864.85 2371.63,-856.98"/>
<polygon fill="#ff7f7f" stroke="#ff7f7f" points="2372.12,-853.52 2361.68,-855.33 2370.97,-860.42 2372.12,-853.52"/>
</g>
<!-- Node0x55b289512218&#45;&gt;Node0x55b28950ee38 -->
<g id="edge114" class="edge">
<title>Node0x55b289512218&#45;&gt;Node0x55b28950ee38</title>
<path fill="none" stroke="#ff7f7f" d="M768.67,-1373.55C838.74,-1394.31 963.11,-1428.84 1072,-1447 1189.92,-1466.66 1321.34,-1479.24 1434.2,-1487.22"/>
<polygon fill="#ff7f7f" stroke="#ff7f7f" points="1434.15,-1490.73 1444.37,-1487.93 1434.63,-1483.75 1434.15,-1490.73"/>
</g>
<!-- Node0x55b289512218&#45;&gt;Node0x55b28950c1d8 -->
<g id="edge119" class="edge">
<title>Node0x55b289512218&#45;&gt;Node0x55b28950c1d8</title>
<path fill="none" stroke="#ff7f7f" d="M825.93,-1373.54C901.66,-1385.4 999.96,-1401.06 1070.12,-1412.45"/>
<polygon fill="#ff7f7f" stroke="#ff7f7f" points="1069.83,-1415.95 1080.27,-1414.1 1070.96,-1409.04 1069.83,-1415.95"/>
</g>
<!-- Node0x55b289512218&#45;&gt;Node0x55b28950b7d8 -->
<g id="edge120" class="edge">
<title>Node0x55b289512218&#45;&gt;Node0x55b28950b7d8</title>
<path fill="none" stroke="#ff7f7f" d="M663.77,-1337.47C640.7,-1328.37 613.42,-1315.95 591,-1301 473.84,-1222.86 438.82,-1200.03 362,-1082 312.71,-1006.27 224,-789.86 224,-699.5 224,-699.5 224,-699.5 224,-478.5 224,-365.75 355.14,-426.82 461,-388 644.57,-320.67 684.42,-281.08 876,-242 884.97,-240.17 1398.64,-207.9 1614.78,-194.38"/>
<polygon fill="#ff7f7f" stroke="#ff7f7f" points="1615.08,-197.87 1624.84,-193.75 1614.64,-190.89 1615.08,-197.87"/>
</g>
<!-- Node0x55b289512218&#45;&gt;Node0x55b289512088 -->
<g id="edge117" class="edge">
<title>Node0x55b289512218&#45;&gt;Node0x55b289512088</title>
<path fill="none" stroke="#ff7f7f" d="M682.41,-1337.44C609.41,-1290.91 432,-1154.32 432,-991.5 432,-991.5 432,-991.5 432,-916.5 432,-807.97 544,-808.03 544,-699.5 544,-699.5 544,-699.5 544,-551.5 544,-478.7 484.47,-441.36 534,-388 542.18,-379.18 800.28,-361.62 1006.65,-349.02"/>
<polygon fill="#ff7f7f" stroke="#ff7f7f" points="1006.98,-352.5 1016.74,-348.4 1006.55,-345.52 1006.98,-352.5"/>
</g>
<!-- Node0x55b289512218&#45;&gt;Node0x55b289510e18 -->
<g id="edge115" class="edge">
<title>Node0x55b289512218&#45;&gt;Node0x55b289510e18</title>
<path fill="none" stroke="#ff7f7f" d="M717.9,-1337.14C735.07,-1278.98 797.52,-1088.09 908,-972 1046.26,-826.73 1072.81,-770.05 1252,-680 1282.46,-664.69 1317.4,-653.69 1350.71,-645.8"/>
<polygon fill="#ff7f7f" stroke="#ff7f7f" points="1351.56,-649.2 1360.53,-643.56 1350,-642.38 1351.56,-649.2"/>
</g>
<!-- Node0x55b289512218&#45;&gt;Node0x55b289512718 -->
<g id="edge116" class="edge">
<title>Node0x55b289512218&#45;&gt;Node0x55b289512718</title>
<path fill="none" stroke="#ff7f7f" d="M966.36,-1344.67C1127.88,-1336.5 1321.3,-1322.65 1401,-1301 1456.43,-1285.94 1515.2,-1254.37 1551.5,-1232.8"/>
<polygon fill="#ff7f7f" stroke="#ff7f7f" points="1553.47,-1235.71 1560.23,-1227.55 1549.86,-1229.71 1553.47,-1235.71"/>
</g>
<!-- Node0x55b289512218&#45;&gt;Node0x55b289509fc8 -->
<g id="edge118" class="edge">
<title>Node0x55b289512218&#45;&gt;Node0x55b289509fc8</title>
<path fill="none" stroke="#ff7f7f" d="M818.15,-1337.49C883.9,-1326.86 968.64,-1313.16 1036.29,-1302.21"/>
<polygon fill="#ff7f7f" stroke="#ff7f7f" points="1037.25,-1305.6 1046.57,-1300.55 1036.14,-1298.69 1037.25,-1305.6"/>
</g>
<!-- Node0x55b289511908&#45;&gt;Node0x55b28950ee38 -->
<g id="edge95" class="edge">
<title>Node0x55b289511908&#45;&gt;Node0x55b28950ee38</title>
<path fill="none" stroke="#ff7f7f" d="M725.41,-424.59C630.37,-449.03 472.77,-502.99 381,-607 350.08,-642.05 206,-942.76 206,-989.5 206,-1137.5 206,-1137.5 206,-1137.5 206,-1303.23 269.37,-1366.07 414,-1447 457.7,-1471.45 1066.16,-1487.74 1433.93,-1495.42"/>
<polygon fill="#ff7f7f" stroke="#ff7f7f" points="1434.13,-1498.92 1444.2,-1495.63 1434.27,-1491.92 1434.13,-1498.92"/>
</g>
<!-- Node0x55b289511908&#45;&gt;Node0x55b28950c1d8 -->
<g id="edge100" class="edge">
<title>Node0x55b289511908&#45;&gt;Node0x55b28950c1d8</title>
<path fill="none" stroke="#ff7f7f" d="M737.59,-424.53C677.84,-444.16 600,-482.89 600,-551.5 600,-699.5 600,-699.5 600,-699.5 600,-776.25 398.81,-1317.72 451,-1374 471.77,-1396.4 884.88,-1416.19 1070.28,-1423.98"/>
<polygon fill="#ff7f7f" stroke="#ff7f7f" points="1070.14,-1427.47 1080.27,-1424.4 1070.43,-1420.48 1070.14,-1427.47"/>
</g>
<!-- Node0x55b289511908&#45;&gt;Node0x55b28950b7d8 -->
<g id="edge101" class="edge">
<title>Node0x55b289511908&#45;&gt;Node0x55b28950b7d8</title>
<path fill="none" stroke="#ff7f7f" d="M840.45,-388.42C864.52,-378.27 896.77,-364.89 925,-352 958.45,-336.73 964.11,-326.6 999,-315 1212.51,-243.99 1476.62,-210.02 1614.79,-196.31"/>
<polygon fill="#ff7f7f" stroke="#ff7f7f" points="1615.31,-199.77 1624.92,-195.31 1614.63,-192.8 1615.31,-199.77"/>
</g>
<!-- Node0x55b289511908&#45;&gt;Node0x55b289512088 -->
<g id="edge98" class="edge">
<title>Node0x55b289511908&#45;&gt;Node0x55b289512088</title>
<path fill="none" stroke="#ff7f7f" d="M908.36,-388.49C975.81,-377.82 1064.21,-364.04 1135.66,-353.08"/>
<polygon fill="#ff7f7f" stroke="#ff7f7f" points="1136.27,-356.53 1145.62,-351.55 1135.2,-349.61 1136.27,-356.53"/>
</g>
<!-- Node0x55b289511908&#45;&gt;Node0x55b289510e18 -->
<g id="edge96" class="edge">
<title>Node0x55b289511908&#45;&gt;Node0x55b289510e18</title>
<path fill="none" stroke="#ff7f7f" d="M838.5,-424.61C904.48,-457.64 1056.62,-530.49 1192,-571 1241.72,-585.88 1297.53,-597.35 1346.87,-605.78"/>
<polygon fill="#ff7f7f" stroke="#ff7f7f" points="1346.52,-609.27 1356.97,-607.48 1347.69,-602.37 1346.52,-609.27"/>
</g>
<!-- Node0x55b289511908&#45;&gt;Node0x55b289512718 -->
<g id="edge97" class="edge">
<title>Node0x55b289511908&#45;&gt;Node0x55b289512718</title>
<path fill="none" stroke="#ff7f7f" d="M784.8,-424.8C757.99,-449.8 714,-498.86 714,-551.5 714,-626.5 714,-626.5 714,-626.5 714,-749.02 884,-720.98 884,-843.5 884,-918.5 884,-918.5 884,-918.5 884,-1047.78 1295.43,-1148.98 1488.79,-1189.4"/>
<polygon fill="#ff7f7f" stroke="#ff7f7f" points="1488.17,-1192.85 1498.68,-1191.46 1489.6,-1186 1488.17,-1192.85"/>
</g>
<!-- Node0x55b289511908&#45;&gt;Node0x55b289509fc8 -->
<g id="edge99" class="edge">
<title>Node0x55b289511908&#45;&gt;Node0x55b289509fc8</title>
<path fill="none" stroke="#ff7f7f" d="M769.18,-424.69C753.75,-433.64 736.61,-445.9 725,-461 704.09,-488.18 705.63,-500.17 700,-534 665.22,-742.91 639.83,-821.34 738,-1009 797.46,-1122.66 816.43,-1161.29 926,-1228 951.06,-1243.26 980.14,-1254.17 1008.92,-1261.96"/>
<polygon fill="#ff7f7f" stroke="#ff7f7f" points="1008.11,-1265.37 1018.67,-1264.49 1009.86,-1258.59 1008.11,-1265.37"/>
</g>
<!-- Node0x55b289509fc8&#45;&gt;Node0x55b28950ee38 -->
<g id="edge49" class="edge">
<title>Node0x55b289509fc8&#45;&gt;Node0x55b28950ee38</title>
<path fill="none" stroke="#ff7f7f" d="M1196.05,-1300.6C1297.53,-1340 1547.54,-1437.05 1657.56,-1479.76"/>
<polygon fill="#ff7f7f" stroke="#ff7f7f" points="1656.55,-1483.12 1667.14,-1483.47 1659.08,-1476.59 1656.55,-1483.12"/>
</g>
<!-- Node0x55b289509fc8&#45;&gt;Node0x55b28950c1d8 -->
<g id="edge53" class="edge">
<title>Node0x55b289509fc8&#45;&gt;Node0x55b28950c1d8</title>
<path fill="none" stroke="#ff7f7f" d="M1154.39,-1300.81C1155.72,-1311.27 1157.25,-1324.87 1158,-1337 1159.31,-1358.27 1159.51,-1382.4 1159.41,-1400.4"/>
<polygon fill="#ff7f7f" stroke="#ff7f7f" points="1155.91,-1400.44 1159.32,-1410.47 1162.91,-1400.5 1155.91,-1400.44"/>
</g>
<!-- Node0x55b289509fc8&#45;&gt;Node0x55b28950b7d8 -->
<g id="edge54" class="edge">
<title>Node0x55b289509fc8&#45;&gt;Node0x55b28950b7d8</title>
<path fill="none" stroke="#ff7f7f" d="M960.77,-1264.45C925.19,-1256.46 889.39,-1244.84 858,-1228 818.12,-1206.6 817.17,-1188.73 787,-1155 542.86,-882.05 243.59,-662.48 486,-388 528.84,-339.49 714.82,-375.81 775,-352 813.6,-336.73 886.99,-256.21 926,-242 941.9,-236.21 1409.9,-206.54 1614.68,-194.05"/>
<polygon fill="#ff7f7f" stroke="#ff7f7f" points="1615.05,-197.53 1624.82,-193.43 1614.62,-190.55 1615.05,-197.53"/>
</g>
<!-- Node0x55b289509fc8&#45;&gt;Node0x55b289512088 -->
<g id="edge52" class="edge">
<title>Node0x55b289509fc8&#45;&gt;Node0x55b289512088</title>
<path fill="none" stroke="#ff7f7f" d="M1122.39,-1264.29C1065.2,-1225.83 941.95,-1126.98 895,-1009 816.93,-812.84 866.21,-743.89 889,-534 892.58,-501.07 880.9,-484.73 904,-461 953.03,-410.63 994.07,-454.21 1058,-425 1083.47,-413.36 1084.33,-401.25 1109,-388 1133.33,-374.93 1161.54,-363.64 1187.06,-354.84"/>
<polygon fill="#ff7f7f" stroke="#ff7f7f" points="1188.33,-358.11 1196.69,-351.6 1186.09,-351.47 1188.33,-358.11"/>
</g>
<!-- Node0x55b289509fc8&#45;&gt;Node0x55b289510e18 -->
<g id="edge50" class="edge">
<title>Node0x55b289509fc8&#45;&gt;Node0x55b289510e18</title>
<path fill="none" stroke="#ff7f7f" d="M1146.97,-1264.05C1144.44,-1233.86 1148.1,-1170.11 1161,-1118 1183.62,-1026.64 1232,-1012.61 1232,-918.5 1232,-918.5 1232,-918.5 1232,-843.5 1232,-743.79 1347.29,-678.35 1421.67,-647.37"/>
<polygon fill="#ff7f7f" stroke="#ff7f7f" points="1423.04,-650.59 1430.98,-643.58 1420.4,-644.11 1423.04,-650.59"/>
</g>
<!-- Node0x55b289509fc8&#45;&gt;Node0x55b289512718 -->
<g id="edge51" class="edge">
<title>Node0x55b289509fc8&#45;&gt;Node0x55b289512718</title>
<path fill="none" stroke="#ff7f7f" d="M1250.33,-1264.49C1314.49,-1253.84 1398.61,-1240.1 1466.73,-1229.15"/>
<polygon fill="#ff7f7f" stroke="#ff7f7f" points="1467.34,-1232.59 1476.66,-1227.55 1466.23,-1225.68 1467.34,-1232.59"/>
</g>
<!-- Node0x55b28950e898&#45;&gt;Node0x55b28950ee38 -->
<g id="edge55" class="edge">
<title>Node0x55b28950e898&#45;&gt;Node0x55b28950ee38</title>
<path fill="none" stroke="#ff7f7f" d="M1693.44,-570.55C1741.79,-583.26 1779.03,-605.41 1758,-644 1736.61,-683.24 1622.6,-723.54 1589,-753 1469.18,-858.04 1445.34,-899.23 1381,-1045 1330.33,-1159.8 1308.03,-1189.52 1336,-1228 1366.5,-1269.95 1400.11,-1241.83 1447,-1264 1547.47,-1311.5 1575.19,-1327.82 1650,-1410 1668.2,-1429.99 1685.05,-1455.8 1696.42,-1474.74"/>
<polygon fill="#ff7f7f" stroke="#ff7f7f" points="1693.44,-1476.59 1701.53,-1483.43 1699.47,-1473.04 1693.44,-1476.59"/>
</g>
<!-- Node0x55b28950e898&#45;&gt;Node0x55b28950c1d8 -->
<g id="edge60" class="edge">
<title>Node0x55b28950e898&#45;&gt;Node0x55b28950c1d8</title>
<path fill="none" stroke="#ff7f7f" d="M1343.54,-570.58C1303.36,-578.58 1262.46,-590.2 1226,-607 1043.25,-691.21 997.57,-735.7 880,-899 775.61,-1044 755.49,-1173.84 881,-1301 922.21,-1342.75 957.21,-1307.64 1008,-1337 1028.41,-1348.8 1026.64,-1360.55 1046,-1374 1064.15,-1386.61 1085.75,-1397.65 1105.17,-1406.38"/>
<polygon fill="#ff7f7f" stroke="#ff7f7f" points="1103.94,-1409.67 1114.5,-1410.48 1106.75,-1403.25 1103.94,-1409.67"/>
</g>
<!-- Node0x55b28950e898&#45;&gt;Node0x55b28950b7d8 -->
<g id="edge61" class="edge">
<title>Node0x55b28950e898&#45;&gt;Node0x55b28950b7d8</title>
<path fill="none" stroke="#ff7f7f" d="M1649.82,-534.44C1688.5,-525.53 1726.51,-513.27 1738,-498 1802.59,-412.21 1749.25,-272.79 1722.29,-214.95"/>
<polygon fill="#ff7f7f" stroke="#ff7f7f" points="1725.36,-213.27 1717.9,-205.75 1719.05,-216.29 1725.36,-213.27"/>
</g>
<!-- Node0x55b28950e898&#45;&gt;Node0x55b289512088 -->
<g id="edge58" class="edge">
<title>Node0x55b28950e898&#45;&gt;Node0x55b289512088</title>
<path fill="none" stroke="#ff7f7f" d="M1645.81,-534.45C1698.48,-520.55 1748.59,-497.2 1721,-461 1681.42,-409.06 1516.06,-373.11 1394.89,-353.16"/>
<polygon fill="#ff7f7f" stroke="#ff7f7f" points="1395.22,-349.66 1384.78,-351.51 1394.09,-356.57 1395.22,-349.66"/>
</g>
<!-- Node0x55b28950e898&#45;&gt;Node0x55b289510e18 -->
<g id="edge56" class="edge">
<title>Node0x55b28950e898&#45;&gt;Node0x55b289510e18</title>
<path fill="none" stroke="#ff7f7f" d="M1541.31,-570.53C1533.63,-579.4 1523.13,-590.4 1513.1,-600.15"/>
<polygon fill="#ff7f7f" stroke="#ff7f7f" points="1510.41,-597.88 1505.58,-607.31 1515.24,-602.96 1510.41,-597.88"/>
</g>
<!-- Node0x55b28950e898&#45;&gt;Node0x55b289512718 -->
<g id="edge57" class="edge">
<title>Node0x55b28950e898&#45;&gt;Node0x55b289512718</title>
<path fill="none" stroke="#ff7f7f" d="M1652.16,-570.54C1691.19,-579.41 1729.38,-591.63 1741,-607 1750.92,-620.12 1751.68,-631.49 1741,-644 1674.67,-721.68 1580.33,-602.32 1514,-680 1445.33,-760.42 1504.05,-1056.68 1543,-1155 1547.1,-1165.34 1553.97,-1175.19 1561.09,-1183.55"/>
<polygon fill="#ff7f7f" stroke="#ff7f7f" points="1558.59,-1186.01 1567.9,-1191.08 1563.79,-1181.32 1558.59,-1186.01"/>
</g>
<!-- Node0x55b28950e898&#45;&gt;Node0x55b28950a748 -->
<g id="edge59" class="edge">
<title>Node0x55b28950e898&#45;&gt;Node0x55b28950a748</title>
<path fill="none" stroke="#ff7f7f" d="M1530.46,-534.31C1518.98,-525.16 1504.69,-513.76 1492.23,-503.82"/>
<polygon fill="#ff7f7f" stroke="#ff7f7f" points="1494.35,-501.03 1484.35,-497.53 1489.98,-506.5 1494.35,-501.03"/>
</g>
<!-- Node0x55b28950a748&#45;&gt;Node0x55b28950ee38 -->
<g id="edge102" class="edge">
<title>Node0x55b28950a748&#45;&gt;Node0x55b28950ee38</title>
<path fill="none" stroke="#ff7f7f" d="M1265.72,-497.53C1187.29,-506.36 1107.36,-518.57 1072,-534 851.5,-630.22 258.81,-1171.69 389,-1374 420.55,-1423.03 442.6,-1428.82 498,-1447 584.23,-1475.3 1103.39,-1489.73 1433.97,-1496.15"/>
<polygon fill="#ff7f7f" stroke="#ff7f7f" points="1434.12,-1499.66 1444.18,-1496.35 1434.25,-1492.66 1434.12,-1499.66"/>
</g>
<!-- Node0x55b28950a748&#45;&gt;Node0x55b28950c1d8 -->
<g id="edge108" class="edge">
<title>Node0x55b28950a748&#45;&gt;Node0x55b28950c1d8</title>
<path fill="none" stroke="#ff7f7f" d="M1288.17,-497.5C1224.31,-506.09 1161.08,-518.12 1134,-534 925.8,-656.07 902.53,-747.87 813,-972 758.52,-1108.39 728.3,-1210.53 844,-1301 891.57,-1338.19 923.69,-1305.17 975,-1337 993.72,-1348.62 989.71,-1361.71 1008,-1374 1029.2,-1388.24 1054.63,-1399.15 1078.52,-1407.29"/>
<polygon fill="#ff7f7f" stroke="#ff7f7f" points="1077.7,-1410.7 1088.29,-1410.49 1079.88,-1404.05 1077.7,-1410.7"/>
</g>
<!-- Node0x55b28950a748&#45;&gt;Node0x55b28950b7d8 -->
<g id="edge110" class="edge">
<title>Node0x55b28950a748&#45;&gt;Node0x55b28950b7d8</title>
<path fill="none" stroke="#ff7f7f" d="M1477.65,-461.23C1519.35,-412.07 1638.83,-271.22 1687.74,-213.56"/>
<polygon fill="#ff7f7f" stroke="#ff7f7f" points="1690.63,-215.57 1694.43,-205.68 1685.29,-211.04 1690.63,-215.57"/>
</g>
<!-- Node0x55b28950a748&#45;&gt;Node0x55b289512088 -->
<g id="edge105" class="edge">
<title>Node0x55b28950a748&#45;&gt;Node0x55b289512088</title>
<path fill="none" stroke="#ff7f7f" d="M1444.57,-461.15C1427.58,-441.29 1401.65,-408.83 1373,-388 1354.88,-374.83 1333,-363.93 1313.36,-355.48"/>
<polygon fill="#ff7f7f" stroke="#ff7f7f" points="1314.49,-352.16 1303.92,-351.53 1311.79,-358.62 1314.49,-352.16"/>
</g>
<!-- Node0x55b28950a748&#45;&gt;Node0x55b28950bd28 -->
<g id="edge109" class="edge">
<title>Node0x55b28950a748&#45;&gt;Node0x55b28950bd28</title>
<path fill="none" stroke="#ff7f7f" d="M1540.08,-461.47C1587.39,-451 1649.21,-437.28 1704,-425 1934.93,-373.26 2207.17,-311.48 2342.21,-280.79"/>
<polygon fill="#ff7f7f" stroke="#ff7f7f" points="2343.11,-284.17 2352.08,-278.54 2341.56,-277.35 2343.11,-284.17"/>
</g>
<!-- Node0x55b28950a748&#45;&gt;Node0x55b289510e18 -->
<g id="edge103" class="edge">
<title>Node0x55b28950a748&#45;&gt;Node0x55b289510e18</title>
<path fill="none" stroke="#ff7f7f" d="M1356.58,-497.57C1302.05,-511.09 1252.54,-534.02 1281,-571 1292.12,-585.45 1325.65,-596.8 1362.28,-605.26"/>
<polygon fill="#ff7f7f" stroke="#ff7f7f" points="1361.64,-608.7 1372.16,-607.46 1363.16,-601.87 1361.64,-608.7"/>
</g>
<!-- Node0x55b28950a748&#45;&gt;Node0x55b289512718 -->
<g id="edge104" class="edge">
<title>Node0x55b28950a748&#45;&gt;Node0x55b289512718</title>
<path fill="none" stroke="#ff7f7f" d="M1247.93,-497.53C1204.8,-505.44 1168.29,-517.03 1154,-534 1122.52,-571.4 1148.42,-595.43 1154,-644 1184.72,-911.39 1269.52,-986 1479,-1155 1494.95,-1167.87 1514.5,-1178.72 1532.56,-1187.21"/>
<polygon fill="#ff7f7f" stroke="#ff7f7f" points="1531.29,-1190.48 1541.85,-1191.44 1534.19,-1184.11 1531.29,-1190.48"/>
</g>
<!-- Node0x55b28950a748&#45;&gt;Node0x55b289511908 -->
<g id="edge106" class="edge">
<title>Node0x55b28950a748&#45;&gt;Node0x55b289511908</title>
<path fill="none" stroke="#ff7f7f" d="M1305.39,-461.49C1205.03,-450.66 1075.16,-436.65 972.87,-425.61"/>
<polygon fill="#ff7f7f" stroke="#ff7f7f" points="973.06,-422.11 962.75,-424.52 972.31,-429.07 973.06,-422.11"/>
</g>
<!-- Node0x55b28950a748&#45;&gt;Node0x55b289509fc8 -->
<g id="edge107" class="edge">
<title>Node0x55b28950a748&#45;&gt;Node0x55b289509fc8</title>
<path fill="none" stroke="#ff7f7f" d="M1343.71,-497.53C1316.91,-505.45 1289.94,-517.04 1268,-534 1238.39,-556.9 1235.66,-570.84 1226,-607 1197.96,-711.98 1288,-734.84 1288,-843.5 1288,-918.5 1288,-918.5 1288,-918.5 1288,-1014.03 1241.27,-1028.45 1208,-1118 1198.48,-1143.62 1174.16,-1215.55 1160.92,-1254.92"/>
<polygon fill="#ff7f7f" stroke="#ff7f7f" points="1157.6,-1253.82 1157.73,-1264.41 1164.23,-1256.05 1157.6,-1253.82"/>
</g>
<!-- Node0x55b28950e258&#45;&gt;Node0x55b28950ee38 -->
<g id="edge166" class="edge">
<title>Node0x55b28950e258&#45;&gt;Node0x55b28950ee38</title>
<path fill="none" stroke="#ff7f7f" d="M2048.63,-789.63C2148.2,-845.34 2458.98,-1019.24 2504,-1045 2573.24,-1084.62 2659,-1055.73 2659,-1135.5 2659,-1356.5 2659,-1356.5 2659,-1356.5 2659,-1424.95 2267.72,-1464.88 1987.91,-1484.69"/>
<polygon fill="#ff7f7f" stroke="#ff7f7f" points="1987.32,-1481.22 1977.59,-1485.41 1987.81,-1488.2 1987.32,-1481.22"/>
</g>
<!-- Node0x55b28950e258&#45;&gt;Node0x55b28950b7d8 -->
<g id="edge169" class="edge">
<title>Node0x55b28950e258&#45;&gt;Node0x55b28950b7d8</title>
<path fill="none" stroke="#ff7f7f" d="M2036.46,-753.48C2045.76,-743.75 2056.27,-730.77 2062,-717 2102.63,-619.47 2086,-586.15 2086,-480.5 2086,-480.5 2086,-480.5 2086,-405.5 2086,-324.6 2070.55,-290.76 2006,-242 1974.66,-218.32 1878.14,-204.03 1803.54,-196.25"/>
<polygon fill="#ff7f7f" stroke="#ff7f7f" points="1803.48,-192.72 1793.17,-195.19 1802.77,-199.69 1803.48,-192.72"/>
</g>
<!-- Node0x55b28950e258&#45;&gt;Node0x55b289512718 -->
<g id="edge167" class="edge">
<title>Node0x55b28950e258&#45;&gt;Node0x55b289512718</title>
<path fill="none" stroke="#ff7f7f" d="M1911.29,-789.56C1841.04,-807.58 1762,-843.96 1762,-916.5 1762,-991.5 1762,-991.5 1762,-991.5 1762,-1048.07 1772.88,-1061.52 1776,-1118 1776.91,-1134.42 1785.92,-1141.88 1776,-1155 1765.38,-1169.05 1732.56,-1180.47 1697.19,-1189.1"/>
<polygon fill="#ff7f7f" stroke="#ff7f7f" points="1696.09,-1185.76 1687.16,-1191.46 1697.69,-1192.57 1696.09,-1185.76"/>
</g>
<!-- Node0x55b28950e258&#45;&gt;Node0x55b28950d268 -->
<g id="edge168" class="edge">
<title>Node0x55b28950e258&#45;&gt;Node0x55b28950d268</title>
<path fill="none" stroke="#ff7f7f" d="M2012.37,-789.85C2003.4,-820.42 1988.67,-885.45 2007,-936 2028.51,-995.33 2064.95,-991.24 2098,-1045 2110.48,-1065.29 2120.92,-1090.28 2127.85,-1108.85"/>
<polygon fill="#ff7f7f" stroke="#ff7f7f" points="2124.62,-1110.23 2131.32,-1118.44 2131.2,-1107.85 2124.62,-1110.23"/>
</g>
<!-- Node0x55b28950e258&#45;&gt;Node0x55b28950f108 -->
<g id="edge170" class="edge">
<title>Node0x55b28950e258&#45;&gt;Node0x55b28950f108</title>
<path fill="none" stroke="#ff7f7f" d="M1966.39,-753.49C1938.48,-743.51 1904.23,-730.82 1876.63,-720.26"/>
<polygon fill="#ff7f7f" stroke="#ff7f7f" points="1877.76,-716.94 1867.17,-716.61 1875.24,-723.47 1877.76,-716.94"/>
</g>
<!-- Node0x55b28950e258&#45;&gt;Node0x55b28950e7a8 -->
<g id="edge171" class="edge">
<title>Node0x55b28950e258&#45;&gt;Node0x55b28950e7a8</title>
<path fill="none" stroke="#ff7f7f" d="M2085.82,-789.61C2124.05,-799.88 2171.53,-812.97 2209.4,-823.68"/>
<polygon fill="#ff7f7f" stroke="#ff7f7f" points="2208.73,-827.13 2219.3,-826.49 2210.64,-820.4 2208.73,-827.13"/>
</g>
<!-- Node0x55b28950e7a8&#45;&gt;Node0x55b28950ee38 -->
<g id="edge177" class="edge">
<title>Node0x55b28950e7a8&#45;&gt;Node0x55b28950ee38</title>
<path fill="none" stroke="#ff7f7f" d="M2319.95,-862.58C2413.57,-898.98 2624.79,-985.71 2673,-1045 2699.25,-1077.29 2697,-1093.89 2697,-1135.5 2697,-1356.5 2697,-1356.5 2697,-1356.5 2697,-1398.11 2705.26,-1420.72 2673,-1447 2646.53,-1468.56 2262.41,-1484.39 1987.68,-1493.02"/>
<polygon fill="#ff7f7f" stroke="#ff7f7f" points="1987.43,-1489.52 1977.55,-1493.33 1987.65,-1496.52 1987.43,-1489.52"/>
</g>
<!-- Node0x55b28950e7a8&#45;&gt;Node0x55b28950b7d8 -->
<g id="edge173" class="edge">
<title>Node0x55b28950e7a8&#45;&gt;Node0x55b28950b7d8</title>
<path fill="none" stroke="#ff7f7f" d="M2282.89,-826.18C2294.29,-799.53 2314,-746.64 2314,-699.5 2314,-699.5 2314,-699.5 2314,-624.5 2314,-527.1 2180.48,-296.86 2100,-242 2053.14,-210.05 1903.35,-197.05 1803.37,-191.85"/>
<polygon fill="#ff7f7f" stroke="#ff7f7f" points="1803.41,-188.35 1793.25,-191.34 1803.06,-195.34 1803.41,-188.35"/>
</g>
<!-- Node0x55b28950e7a8&#45;&gt;Node0x55b289512088 -->
<g id="edge176" class="edge">
<title>Node0x55b28950e7a8&#45;&gt;Node0x55b289512088</title>
<path fill="none" stroke="#ff7f7f" d="M2188.39,-832.69C1949.47,-802.09 1294.25,-712.65 1226,-644 1167.84,-585.5 1148.37,-529.05 1195,-461 1220.05,-424.44 1262.95,-461.56 1288,-425 1301.36,-405.5 1291.11,-379.26 1279.61,-360.06"/>
<polygon fill="#ff7f7f" stroke="#ff7f7f" points="1282.48,-358.05 1274.13,-351.52 1276.58,-361.83 1282.48,-358.05"/>
</g>
<!-- Node0x55b28950e7a8&#45;&gt;Node0x55b28950d768 -->
<g id="edge178" class="edge">
<title>Node0x55b28950e7a8&#45;&gt;Node0x55b28950d768</title>
<path fill="none" stroke="#ff7f7f" d="M2303.38,-826.5C2394.53,-769.48 2674,-575.07 2674,-334.5 2674,-334.5 2674,-334.5 2674,-259.5 2674,-217.89 2681.19,-196.54 2650,-169 2612.54,-135.93 2491.44,-123.15 2393.28,-118.29"/>
<polygon fill="#ff7f7f" stroke="#ff7f7f" points="2393.4,-114.79 2383.25,-117.82 2393.07,-121.79 2393.4,-114.79"/>
</g>
<!-- Node0x55b28950e7a8&#45;&gt;Node0x55b28950bd28 -->
<g id="edge182" class="edge">
<title>Node0x55b28950e7a8&#45;&gt;Node0x55b28950bd28</title>
<path fill="none" stroke="#ff7f7f" d="M2297.2,-826.44C2308.12,-816.89 2320.5,-804.08 2328,-790 2393.92,-666.17 2390,-620.79 2390,-480.5 2390,-480.5 2390,-480.5 2390,-405.5 2390,-363.66 2404.83,-317.07 2415.72,-288.52"/>
<polygon fill="#ff7f7f" stroke="#ff7f7f" points="2419.11,-289.45 2419.51,-278.86 2412.6,-286.89 2419.11,-289.45"/>
</g>
<!-- Node0x55b28950e7a8&#45;&gt;Node0x55b289510e18 -->
<g id="edge179" class="edge">
<title>Node0x55b28950e7a8&#45;&gt;Node0x55b289510e18</title>
<path fill="none" stroke="#ff7f7f" d="M2263.1,-826.15C2248.14,-805.66 2220.58,-771.99 2189,-753 2085.4,-690.72 2045.57,-703.52 1927,-680 1849.56,-664.64 1763.59,-653.04 1688.08,-644.64"/>
<polygon fill="#ff7f7f" stroke="#ff7f7f" points="1688.3,-641.14 1677.98,-643.53 1687.53,-648.1 1688.3,-641.14"/>
</g>
<!-- Node0x55b28950e7a8&#45;&gt;Node0x55b289512718 -->
<g id="edge172" class="edge">
<title>Node0x55b28950e7a8&#45;&gt;Node0x55b289512718</title>
<path fill="none" stroke="#ff7f7f" d="M2256.42,-862.56C2235.69,-881.31 2200.87,-911.96 2169,-936 2133.87,-962.5 1879.57,-1137.96 1839,-1155 1802.57,-1170.3 1761.26,-1181.41 1722.79,-1189.4"/>
<polygon fill="#ff7f7f" stroke="#ff7f7f" points="1721.66,-1186.06 1712.55,-1191.47 1723.05,-1192.92 1721.66,-1186.06"/>
</g>
<!-- Node0x55b28950e7a8&#45;&gt;Node0x55b28950da38 -->
<g id="edge180" class="edge">
<title>Node0x55b28950e7a8&#45;&gt;Node0x55b28950da38</title>
<path fill="none" stroke="#ff7f7f" d="M2343.66,-826.43C2513.57,-779.65 2940,-632.55 2940,-334.5 2940,-334.5 2940,-334.5 2940,-186.5 2940,-125.15 2585.46,-82.61 2338.43,-60.42"/>
<polygon fill="#ff7f7f" stroke="#ff7f7f" points="2338.49,-56.91 2328.22,-59.51 2337.87,-63.88 2338.49,-56.91"/>
</g>
<!-- Node0x55b28950e7a8&#45;&gt;Node0x55b28950d268 -->
<g id="edge174" class="edge">
<title>Node0x55b28950e7a8&#45;&gt;Node0x55b28950d268</title>
<path fill="none" stroke="#ff7f7f" d="M2266.82,-862.68C2243.67,-911.33 2177.56,-1050.27 2149.66,-1108.89"/>
<polygon fill="#ff7f7f" stroke="#ff7f7f" points="2146.36,-1107.69 2145.22,-1118.23 2152.68,-1110.7 2146.36,-1107.69"/>
</g>
<!-- Node0x55b28950e7a8&#45;&gt;Node0x55b28950f108 -->
<g id="edge175" class="edge">
<title>Node0x55b28950e7a8&#45;&gt;Node0x55b28950f108</title>
<path fill="none" stroke="#ff7f7f" d="M2256,-826.45C2231.66,-805.61 2187.3,-770.92 2143,-753 2104.86,-737.58 2005.36,-722.12 1928.11,-711.82"/>
<polygon fill="#ff7f7f" stroke="#ff7f7f" points="1928.22,-708.3 1917.84,-710.46 1927.3,-715.24 1928.22,-708.3"/>
</g>
<!-- Node0x55b28950e7a8&#45;&gt;Node0x55b28950e258 -->
<g id="edge181" class="edge">
<title>Node0x55b28950e7a8&#45;&gt;Node0x55b28950e258</title>
<path fill="none" stroke="#ff7f7f" d="M2207.58,-826.49C2169.42,-816.25 2121.93,-803.16 2084,-792.43"/>
<polygon fill="#ff7f7f" stroke="#ff7f7f" points="2084.65,-788.98 2074.08,-789.61 2082.74,-795.71 2084.65,-788.98"/>
</g>
</g>
</svg>
