<?xml version="1.0" encoding="UTF-8" standalone="no"?>
<!DOCTYPE svg PUBLIC "-//W3C//DTD SVG 1.1//EN"
 "http://www.w3.org/Graphics/SVG/1.1/DTD/svg11.dtd">
<!-- Generated by graphviz version 2.43.0 (0)
 -->
<!-- Title: bin/llvm&#45;readobj Pages: 1 -->
<svg width="2551pt" height="1296pt"
 viewBox="0.00 0.00 2551.00 1296.35" xmlns="http://www.w3.org/2000/svg" xmlns:xlink="http://www.w3.org/1999/xlink">
<g id="graph0" class="graph" transform="scale(1 1) rotate(0) translate(4 1292.35)">
<title>bin/llvm&#45;readobj</title>
<polygon fill="white" stroke="transparent" points="-4,4 -4,-1292.35 2547,-1292.35 2547,4 -4,4"/>
<text text-anchor="middle" x="1271.5" y="-7.8" font-family="Times,serif" font-size="14.00">bin/llvm&#45;readobj</text>
<!-- Node0x563dece79878 -->
<g id="node1" class="node">
<title>Node0x563dece79878</title>
<polygon fill="#ff7f7f" stroke="black" points="551,-728.82 0,-728.82 0,-692.82 551,-692.82 551,-728.82"/>
<text text-anchor="middle" x="275.5" y="-707.12" font-family="Times,serif" font-size="14.00">{tools/llvm&#45;readobj/CMakeFiles/llvm&#45;readobj.dir/ARMWinEHPrinter.cpp.o}</text>
</g>
<!-- Node0x563dece7bee8 -->
<g id="node2" class="node">
<title>Node0x563dece7bee8</title>
<polygon fill="#ff7f7f" stroke="black" points="767.5,-615.82 592.5,-615.82 592.5,-579.82 767.5,-579.82 767.5,-615.82"/>
<text text-anchor="middle" x="680" y="-594.12" font-family="Times,serif" font-size="14.00">{lib/libLLVMObject.a}</text>
</g>
<!-- Node0x563dece79878&#45;&gt;Node0x563dece7bee8 -->
<g id="edge1" class="edge">
<title>Node0x563dece79878&#45;&gt;Node0x563dece7bee8</title>
<path fill="none" stroke="#ff7f7f" d="M324.65,-692.73C388.72,-672.34 503.36,-639.74 584.89,-618.42"/>
<polygon fill="#ff7f7f" stroke="#ff7f7f" points="585.87,-621.79 594.67,-615.88 584.11,-615.01 585.87,-621.79"/>
</g>
<!-- Node0x563dece7c988 -->
<g id="node3" class="node">
<title>Node0x563dece7c988</title>
<polygon fill="#ff7f7f" stroke="black" points="773,-751.82 587,-751.82 587,-715.82 773,-715.82 773,-751.82"/>
<text text-anchor="middle" x="680" y="-730.12" font-family="Times,serif" font-size="14.00">{lib/libLLVMSupport.a}</text>
</g>
<!-- Node0x563dece79878&#45;&gt;Node0x563dece7c988 -->
<g id="edge2" class="edge">
<title>Node0x563dece79878&#45;&gt;Node0x563dece7c988</title>
<path fill="none" stroke="#ff7f7f" d="M551.09,-720.17C559.97,-720.79 568.62,-721.41 576.97,-722.03"/>
<polygon fill="#ff7f7f" stroke="#ff7f7f" points="576.76,-725.52 587,-722.79 577.29,-718.54 576.76,-725.52"/>
</g>
<!-- Node0x563dece7bee8&#45;&gt;Node0x563dece79878 -->
<g id="edge3" class="edge">
<title>Node0x563dece7bee8&#45;&gt;Node0x563dece79878</title>
<path fill="none" stroke="#ff7f7f" d="M630.97,-615.87C566.95,-636.25 452.24,-668.87 370.66,-690.2"/>
<polygon fill="#ff7f7f" stroke="#ff7f7f" points="369.67,-686.84 360.88,-692.74 371.44,-693.61 369.67,-686.84"/>
</g>
<!-- Node0x563dece7bee8&#45;&gt;Node0x563dece7c988 -->
<g id="edge6" class="edge">
<title>Node0x563dece7bee8&#45;&gt;Node0x563dece7c988</title>
<path fill="none" stroke="#ff7f7f" d="M710.23,-615.88C754.41,-647.05 757.23,-678.22 718.68,-709.39"/>
<polygon fill="#ff7f7f" stroke="#ff7f7f" points="716.3,-706.8 710.42,-715.62 720.51,-712.39 716.3,-706.8"/>
</g>
<!-- Node0x563dece76128 -->
<g id="node4" class="node">
<title>Node0x563dece76128</title>
<polygon fill="#ff7f7f" stroke="black" points="1364,-1102.82 858,-1102.82 858,-1066.82 1364,-1066.82 1364,-1102.82"/>
<text text-anchor="middle" x="1111" y="-1081.12" font-family="Times,serif" font-size="14.00">{tools/llvm&#45;readobj/CMakeFiles/llvm&#45;readobj.dir/llvm&#45;readobj.cpp.o}</text>
</g>
<!-- Node0x563dece7bee8&#45;&gt;Node0x563dece76128 -->
<g id="edge4" class="edge">
<title>Node0x563dece7bee8&#45;&gt;Node0x563dece76128</title>
<path fill="none" stroke="#ff7f7f" d="M710.42,-615.91C731.69,-634.61 759.06,-665 773,-697.82 803.65,-769.99 753.2,-993.73 809,-1048.82 820.75,-1060.42 834.16,-1069.57 848.64,-1076.73"/>
<polygon fill="#ff7f7f" stroke="#ff7f7f" points="847.24,-1079.94 857.79,-1080.93 850.16,-1073.58 847.24,-1079.94"/>
</g>
<!-- Node0x563dece74b48 -->
<g id="node5" class="node">
<title>Node0x563dece74b48</title>
<polygon fill="#ff7f7f" stroke="black" points="1247,-994.82 975,-994.82 975,-958.82 1247,-958.82 1247,-994.82"/>
<text text-anchor="middle" x="1111" y="-973.12" font-family="Times,serif" font-size="14.00">{lib/libLLVMDebugInfoCodeView.a}</text>
</g>
<!-- Node0x563dece7bee8&#45;&gt;Node0x563dece74b48 -->
<g id="edge5" class="edge">
<title>Node0x563dece7bee8&#45;&gt;Node0x563dece74b48</title>
<path fill="none" stroke="#ff7f7f" d="M702.03,-615.96C723.64,-635.9 756.39,-670.03 773,-706.82 817.92,-806.33 729.61,-874.87 809,-949.82 862.89,-1000.69 948.95,-1003.64 1015.27,-996.07"/>
<polygon fill="#ff7f7f" stroke="#ff7f7f" points="1015.82,-999.53 1025.32,-994.83 1014.96,-992.58 1015.82,-999.53"/>
</g>
<!-- Node0x563dece7c488 -->
<g id="node6" class="node">
<title>Node0x563dece7c488</title>
<polygon fill="#ff7f7f" stroke="black" points="1224.5,-302.82 997.5,-302.82 997.5,-266.82 1224.5,-266.82 1224.5,-302.82"/>
<text text-anchor="middle" x="1111" y="-281.12" font-family="Times,serif" font-size="14.00">{lib/libLLVMBinaryFormat.a}</text>
</g>
<!-- Node0x563dece7bee8&#45;&gt;Node0x563dece7c488 -->
<g id="edge7" class="edge">
<title>Node0x563dece7bee8&#45;&gt;Node0x563dece7c488</title>
<path fill="none" stroke="#ff7f7f" d="M682.95,-579.49C689.57,-527.4 716.23,-378.01 809,-311.82 859.77,-275.59 928.29,-267.19 987.13,-268.58"/>
<polygon fill="#ff7f7f" stroke="#ff7f7f" points="987.13,-272.08 997.24,-268.91 987.36,-265.08 987.13,-272.08"/>
</g>
<!-- Node0x563dece79b98 -->
<g id="node7" class="node">
<title>Node0x563dece79b98</title>
<polygon fill="#ff7f7f" stroke="black" points="1368.5,-194.82 853.5,-194.82 853.5,-158.82 1368.5,-158.82 1368.5,-194.82"/>
<text text-anchor="middle" x="1111" y="-173.12" font-family="Times,serif" font-size="14.00">{tools/llvm&#45;readobj/CMakeFiles/llvm&#45;readobj.dir/COFFDumper.cpp.o}</text>
</g>
<!-- Node0x563dece7bee8&#45;&gt;Node0x563dece79b98 -->
<g id="edge8" class="edge">
<title>Node0x563dece7bee8&#45;&gt;Node0x563dece79b98</title>
<path fill="none" stroke="#ff7f7f" d="M680.55,-579.64C679.65,-514.54 685,-293.68 809,-194.82 875.43,-141.85 978.26,-145.09 1044.86,-156.9"/>
<polygon fill="#ff7f7f" stroke="#ff7f7f" points="1044.34,-160.37 1054.82,-158.78 1045.64,-153.49 1044.34,-160.37"/>
</g>
<!-- Node0x563dece75ea8 -->
<g id="node8" class="node">
<title>Node0x563dece75ea8</title>
<polygon fill="#ff7f7f" stroke="black" points="1362.5,-756.82 859.5,-756.82 859.5,-720.82 1362.5,-720.82 1362.5,-756.82"/>
<text text-anchor="middle" x="1111" y="-735.12" font-family="Times,serif" font-size="14.00">{tools/llvm&#45;readobj/CMakeFiles/llvm&#45;readobj.dir/ELFDumper.cpp.o}</text>
</g>
<!-- Node0x563dece7bee8&#45;&gt;Node0x563dece75ea8 -->
<g id="edge9" class="edge">
<title>Node0x563dece7bee8&#45;&gt;Node0x563dece75ea8</title>
<path fill="none" stroke="#ff7f7f" d="M717.17,-615.97C741.95,-631.17 776.16,-651.92 809,-664.82 876.17,-691.2 956.19,-707.83 1016.84,-718.98"/>
<polygon fill="#ff7f7f" stroke="#ff7f7f" points="1016.31,-722.44 1026.78,-720.79 1017.57,-715.56 1016.31,-722.44"/>
</g>
<!-- Node0x563dece7a278 -->
<g id="node9" class="node">
<title>Node0x563dece7a278</title>
<polygon fill="#ff7f7f" stroke="black" points="1413,-610.82 809,-610.82 809,-574.82 1413,-574.82 1413,-610.82"/>
<text text-anchor="middle" x="1111" y="-589.12" font-family="Times,serif" font-size="14.00">{tools/llvm&#45;readobj/CMakeFiles/llvm&#45;readobj.dir/WindowsResourceDumper.cpp.o}</text>
</g>
<!-- Node0x563dece7bee8&#45;&gt;Node0x563dece7a278 -->
<g id="edge10" class="edge">
<title>Node0x563dece7bee8&#45;&gt;Node0x563dece7a278</title>
<path fill="none" stroke="#ff7f7f" d="M767.56,-591.27C777.39,-590.94 787.8,-590.63 798.62,-590.35"/>
<polygon fill="#ff7f7f" stroke="#ff7f7f" points="798.76,-593.85 808.67,-590.1 798.58,-586.85 798.76,-593.85"/>
</g>
<!-- Node0x563dece78ce8 -->
<g id="node10" class="node">
<title>Node0x563dece78ce8</title>
<polygon fill="#ff7f7f" stroke="black" points="1187.5,-502.82 1034.5,-502.82 1034.5,-466.82 1187.5,-466.82 1187.5,-502.82"/>
<text text-anchor="middle" x="1111" y="-481.12" font-family="Times,serif" font-size="14.00">{lib/libLLVMMC.a}</text>
</g>
<!-- Node0x563dece7bee8&#45;&gt;Node0x563dece78ce8 -->
<g id="edge11" class="edge">
<title>Node0x563dece7bee8&#45;&gt;Node0x563dece78ce8</title>
<path fill="none" stroke="#ff7f7f" d="M694.66,-579.48C716.76,-556.5 762.57,-519.27 809,-502.82 878.57,-478.17 962.56,-472.46 1024.13,-473.8"/>
<polygon fill="#ff7f7f" stroke="#ff7f7f" points="1024.1,-477.31 1034.2,-474.09 1024.3,-470.31 1024.1,-477.31"/>
</g>
<!-- Node0x563dece74648 -->
<g id="node11" class="node">
<title>Node0x563dece74648</title>
<polygon fill="#ff7f7f" stroke="black" points="1238.5,-664.82 983.5,-664.82 983.5,-628.82 1238.5,-628.82 1238.5,-664.82"/>
<text text-anchor="middle" x="1111" y="-643.12" font-family="Times,serif" font-size="14.00">{lib/libLLVMDebugInfoDWARF.a}</text>
</g>
<!-- Node0x563dece7bee8&#45;&gt;Node0x563dece74648 -->
<g id="edge12" class="edge">
<title>Node0x563dece7bee8&#45;&gt;Node0x563dece74648</title>
<path fill="none" stroke="#ff7f7f" d="M767.61,-604.79C781.43,-606.93 795.59,-609.07 809,-610.82 862.53,-617.81 921.65,-623.54 973.23,-628.48"/>
<polygon fill="#ff7f7f" stroke="#ff7f7f" points="973.15,-631.99 983.44,-629.46 973.82,-625.02 973.15,-631.99"/>
</g>
<!-- Node0x563dece791e8 -->
<g id="node12" class="node">
<title>Node0x563dece791e8</title>
<polygon fill="#ff7f7f" stroke="black" points="1210.5,-248.82 1011.5,-248.82 1011.5,-212.82 1210.5,-212.82 1210.5,-248.82"/>
<text text-anchor="middle" x="1111" y="-227.12" font-family="Times,serif" font-size="14.00">{lib/libLLVMBitReader.a}</text>
</g>
<!-- Node0x563dece7bee8&#45;&gt;Node0x563dece791e8 -->
<g id="edge13" class="edge">
<title>Node0x563dece7bee8&#45;&gt;Node0x563dece791e8</title>
<path fill="none" stroke="#ff7f7f" d="M681.39,-579.63C683.69,-520.08 699.55,-332.04 809,-248.82 875.64,-198.15 976.14,-200.15 1042.4,-211.03"/>
<polygon fill="#ff7f7f" stroke="#ff7f7f" points="1041.88,-214.49 1052.33,-212.77 1043.08,-207.6 1041.88,-214.49"/>
</g>
<!-- Node0x563dece796e8 -->
<g id="node13" class="node">
<title>Node0x563dece796e8</title>
<polygon fill="#ff7f7f" stroke="black" points="1192,-356.82 1030,-356.82 1030,-320.82 1192,-320.82 1192,-356.82"/>
<text text-anchor="middle" x="1111" y="-335.12" font-family="Times,serif" font-size="14.00">{lib/libLLVMCore.a}</text>
</g>
<!-- Node0x563dece7bee8&#45;&gt;Node0x563dece796e8 -->
<g id="edge14" class="edge">
<title>Node0x563dece7bee8&#45;&gt;Node0x563dece796e8</title>
<path fill="none" stroke="#ff7f7f" d="M683.94,-579.79C693.47,-533.07 727.71,-409.85 809,-356.82 874.7,-313.96 966.31,-311.95 1031.17,-319.49"/>
<polygon fill="#ff7f7f" stroke="#ff7f7f" points="1030.99,-322.99 1041.35,-320.78 1031.86,-316.05 1030.99,-322.99"/>
</g>
<!-- Node0x563dece77de8 -->
<g id="node14" class="node">
<title>Node0x563dece77de8</title>
<polygon fill="#ff7f7f" stroke="black" points="1210,-410.82 1012,-410.82 1012,-374.82 1210,-374.82 1210,-410.82"/>
<text text-anchor="middle" x="1111" y="-389.12" font-family="Times,serif" font-size="14.00">{lib/libLLVMMCParser.a}</text>
</g>
<!-- Node0x563dece7bee8&#45;&gt;Node0x563dece77de8 -->
<g id="edge15" class="edge">
<title>Node0x563dece7bee8&#45;&gt;Node0x563dece77de8</title>
<path fill="none" stroke="#ff7f7f" d="M692.44,-579.57C710.54,-556.02 746.46,-514.76 773,-476.82 791.04,-451.02 782.53,-432.85 809,-415.82 868.86,-377.3 949.65,-370.58 1012.46,-374.13"/>
<polygon fill="#ff7f7f" stroke="#ff7f7f" points="1012.56,-377.65 1022.77,-374.82 1013.03,-370.66 1012.56,-377.65"/>
</g>
<!-- Node0x563dece7a368 -->
<g id="node15" class="node">
<title>Node0x563dece7a368</title>
<polygon fill="#ff7f7f" stroke="black" points="1392.5,-556.82 829.5,-556.82 829.5,-520.82 1392.5,-520.82 1392.5,-556.82"/>
<text text-anchor="middle" x="1111" y="-535.12" font-family="Times,serif" font-size="14.00">{tools/llvm&#45;readobj/CMakeFiles/llvm&#45;readobj.dir/COFFImportDumper.cpp.o}</text>
</g>
<!-- Node0x563dece7bee8&#45;&gt;Node0x563dece7a368 -->
<g id="edge16" class="edge">
<title>Node0x563dece7bee8&#45;&gt;Node0x563dece7a368</title>
<path fill="none" stroke="#ff7f7f" d="M716.82,-579.73C742.31,-571.16 777.49,-562.14 809,-556.82 812.47,-556.23 815.96,-555.66 819.47,-555.1"/>
<polygon fill="#ff7f7f" stroke="#ff7f7f" points="820.09,-558.55 829.43,-553.55 819.01,-551.63 820.09,-558.55"/>
</g>
<!-- Node0x563dece77348 -->
<g id="node16" class="node">
<title>Node0x563dece77348</title>
<polygon fill="#ff7f7f" stroke="black" points="1203,-1048.82 1019,-1048.82 1019,-1012.82 1203,-1012.82 1203,-1048.82"/>
<text text-anchor="middle" x="1111" y="-1027.12" font-family="Times,serif" font-size="14.00">{lib/libLLVMTextAPI.a}</text>
</g>
<!-- Node0x563dece7bee8&#45;&gt;Node0x563dece77348 -->
<g id="edge17" class="edge">
<title>Node0x563dece7bee8&#45;&gt;Node0x563dece77348</title>
<path fill="none" stroke="#ff7f7f" d="M710.24,-615.98C731.43,-634.72 758.76,-665.13 773,-697.82 799.55,-758.77 761.26,-948.55 809,-994.82 860.6,-1044.84 943.15,-1049.06 1008.76,-1043.55"/>
<polygon fill="#ff7f7f" stroke="#ff7f7f" points="1009.09,-1047.04 1018.72,-1042.63 1008.44,-1040.07 1009.09,-1047.04"/>
</g>
<!-- Node0x563dece79be8 -->
<g id="node17" class="node">
<title>Node0x563dece79be8</title>
<polygon fill="#ff7f7f" stroke="black" points="1373,-810.82 849,-810.82 849,-774.82 1373,-774.82 1373,-810.82"/>
<text text-anchor="middle" x="1111" y="-789.12" font-family="Times,serif" font-size="14.00">{tools/llvm&#45;readobj/CMakeFiles/llvm&#45;readobj.dir/XCOFFDumper.cpp.o}</text>
</g>
<!-- Node0x563dece7bee8&#45;&gt;Node0x563dece79be8 -->
<g id="edge18" class="edge">
<title>Node0x563dece7bee8&#45;&gt;Node0x563dece79be8</title>
<path fill="none" stroke="#ff7f7f" d="M704.48,-616.11C723.8,-635.87 751.43,-667.88 773,-697.82 790.96,-722.74 782.91,-740.6 809,-756.82 818.65,-762.82 828.82,-767.99 839.36,-772.45"/>
<polygon fill="#ff7f7f" stroke="#ff7f7f" points="838.12,-775.73 848.7,-776.19 840.72,-769.23 838.12,-775.73"/>
</g>
<!-- Node0x563dece7c988&#45;&gt;Node0x563dece79878 -->
<g id="edge22" class="edge">
<title>Node0x563dece7c988&#45;&gt;Node0x563dece79878</title>
<path fill="none" stroke="#ff7f7f" d="M586.77,-734.33C555.82,-733.17 519.95,-731.44 483.82,-729.41"/>
<polygon fill="#ff7f7f" stroke="#ff7f7f" points="483.81,-725.91 473.62,-728.83 483.41,-732.89 483.81,-725.91"/>
</g>
<!-- Node0x563dece7c988&#45;&gt;Node0x563dece7bee8 -->
<g id="edge26" class="edge">
<title>Node0x563dece7c988&#45;&gt;Node0x563dece7bee8</title>
<path fill="none" stroke="#ff7f7f" d="M649.58,-715.62C605.52,-684.45 602.82,-653.28 641.48,-622.11"/>
<polygon fill="#ff7f7f" stroke="#ff7f7f" points="643.88,-624.69 649.77,-615.88 639.67,-619.1 643.88,-624.69"/>
</g>
<!-- Node0x563dece7c988&#45;&gt;Node0x563dece76128 -->
<g id="edge25" class="edge">
<title>Node0x563dece7c988&#45;&gt;Node0x563dece76128</title>
<path fill="none" stroke="#ff7f7f" d="M682.22,-752C686.82,-807.48 708.49,-973.67 809,-1048.82 821.24,-1057.97 834.58,-1065.38 848.63,-1071.36"/>
<polygon fill="#ff7f7f" stroke="#ff7f7f" points="847.37,-1074.62 857.96,-1075.08 849.97,-1068.12 847.37,-1074.62"/>
</g>
<!-- Node0x563dece7c988&#45;&gt;Node0x563dece74b48 -->
<g id="edge19" class="edge">
<title>Node0x563dece7c988&#45;&gt;Node0x563dece74b48</title>
<path fill="none" stroke="#ff7f7f" d="M698.23,-751.84C717.46,-777.25 749.03,-824.35 773,-866.82 790.98,-898.67 778.89,-920.05 809,-940.82 853.74,-971.67 911.54,-981.98 964.52,-983.91"/>
<polygon fill="#ff7f7f" stroke="#ff7f7f" points="964.61,-987.41 974.7,-984.18 964.8,-980.41 964.61,-987.41"/>
</g>
<!-- Node0x563dece7c988&#45;&gt;Node0x563dece79b98 -->
<g id="edge21" class="edge">
<title>Node0x563dece7c988&#45;&gt;Node0x563dece79b98</title>
<path fill="none" stroke="#ff7f7f" d="M696,-715.72C717.38,-694.15 755.92,-656.99 773,-615.82 808.97,-529.09 742.74,-261.35 809,-194.82 872.12,-131.43 984.68,-140.5 1052.82,-156.29"/>
<polygon fill="#ff7f7f" stroke="#ff7f7f" points="1052.41,-159.79 1062.95,-158.76 1054.07,-152.99 1052.41,-159.79"/>
</g>
<!-- Node0x563dece7c988&#45;&gt;Node0x563dece75ea8 -->
<g id="edge20" class="edge">
<title>Node0x563dece7c988&#45;&gt;Node0x563dece75ea8</title>
<path fill="none" stroke="#ff7f7f" d="M773.03,-729.23C796.06,-729.04 821.93,-729.02 848.82,-729.17"/>
<polygon fill="#ff7f7f" stroke="#ff7f7f" points="849.15,-732.67 859.17,-729.23 849.2,-725.67 849.15,-732.67"/>
</g>
<!-- Node0x563dece7c988&#45;&gt;Node0x563dece7a278 -->
<g id="edge23" class="edge">
<title>Node0x563dece7c988&#45;&gt;Node0x563dece7a278</title>
<path fill="none" stroke="#ff7f7f" d="M690.86,-715.51C709.13,-688.57 750.83,-639.98 799.52,-615.28"/>
<polygon fill="#ff7f7f" stroke="#ff7f7f" points="801.14,-618.38 808.69,-610.95 798.15,-612.05 801.14,-618.38"/>
</g>
<!-- Node0x563dece7c988&#45;&gt;Node0x563dece74648 -->
<g id="edge24" class="edge">
<title>Node0x563dece7c988&#45;&gt;Node0x563dece74648</title>
<path fill="none" stroke="#ff7f7f" d="M702.49,-715.7C727.36,-700.33 769.92,-680.04 809,-669.82 861.67,-656.04 921,-648.17 972.98,-644.29"/>
<polygon fill="#ff7f7f" stroke="#ff7f7f" points="973.54,-647.75 983.27,-643.56 973.05,-640.77 973.54,-647.75"/>
</g>
<!-- Node0x563dece76c68 -->
<g id="node18" class="node">
<title>Node0x563dece76c68</title>
<polygon fill="#ff7f7f" stroke="black" points="1373,-940.82 849,-940.82 849,-904.82 1373,-904.82 1373,-940.82"/>
<text text-anchor="middle" x="1111" y="-919.12" font-family="Times,serif" font-size="14.00">{tools/llvm&#45;readobj/CMakeFiles/llvm&#45;readobj.dir/MachODumper.cpp.o}</text>
</g>
<!-- Node0x563dece7c988&#45;&gt;Node0x563dece76c68 -->
<g id="edge27" class="edge">
<title>Node0x563dece7c988&#45;&gt;Node0x563dece76c68</title>
<path fill="none" stroke="#ff7f7f" d="M714.9,-752.09C733.64,-766.65 756.41,-787.74 773,-809.82 794.49,-838.42 779.6,-861.42 809,-881.82 819.75,-889.28 831.26,-895.59 843.28,-900.91"/>
<polygon fill="#ff7f7f" stroke="#ff7f7f" points="841.98,-904.17 852.56,-904.79 844.68,-897.71 841.98,-904.17"/>
</g>
<!-- Node0x563dece76e98 -->
<g id="node19" class="node">
<title>Node0x563dece76e98</title>
<polygon fill="#ff7f7f" stroke="black" points="1360,-1156.82 862,-1156.82 862,-1120.82 1360,-1120.82 1360,-1156.82"/>
<text text-anchor="middle" x="1111" y="-1135.12" font-family="Times,serif" font-size="14.00">{tools/llvm&#45;readobj/CMakeFiles/llvm&#45;readobj.dir/ObjDumper.cpp.o}</text>
</g>
<!-- Node0x563dece7c988&#45;&gt;Node0x563dece76e98 -->
<g id="edge28" class="edge">
<title>Node0x563dece7c988&#45;&gt;Node0x563dece76e98</title>
<path fill="none" stroke="#ff7f7f" d="M680.82,-751.97C681.6,-813.3 693.86,-1012.18 809,-1102.82 822.14,-1113.16 836.68,-1121.35 852.07,-1127.78"/>
<polygon fill="#ff7f7f" stroke="#ff7f7f" points="851.16,-1131.18 861.75,-1131.55 853.7,-1124.66 851.16,-1131.18"/>
</g>
<!-- Node0x563dece76128&#45;&gt;Node0x563dece79878 -->
<g id="edge36" class="edge">
<title>Node0x563dece76128&#45;&gt;Node0x563dece79878</title>
<path fill="none" stroke="#ff7f7f" d="M857.86,-1067.56C841.24,-1064.77 824.83,-1061.55 809,-1057.82 705.85,-1033.51 678.15,-1024.88 587,-970.82 469.08,-900.89 350.66,-786.64 300.91,-736.16"/>
<polygon fill="#ff7f7f" stroke="#ff7f7f" points="303.3,-733.6 293.8,-728.91 298.3,-738.5 303.3,-733.6"/>
</g>
<!-- Node0x563dece76128&#45;&gt;Node0x563dece7bee8 -->
<g id="edge46" class="edge">
<title>Node0x563dece76128&#45;&gt;Node0x563dece7bee8</title>
<path fill="none" stroke="#ff7f7f" d="M1062.55,-1102.86C996.03,-1119.75 875.74,-1132.71 809,-1066.82 753.2,-1011.73 803.65,-787.99 773,-715.82 757.41,-679.12 725.04,-645.46 703.16,-623.3"/>
<polygon fill="#ff7f7f" stroke="#ff7f7f" points="705.42,-620.61 695.9,-615.96 700.44,-625.53 705.42,-620.61"/>
</g>
<!-- Node0x563dece76128&#45;&gt;Node0x563dece7c988 -->
<g id="edge48" class="edge">
<title>Node0x563dece76128&#45;&gt;Node0x563dece7c988</title>
<path fill="none" stroke="#ff7f7f" d="M1051.6,-1102.82C985.88,-1114.79 879.17,-1119.29 809,-1066.82 709.43,-992.37 687.23,-828.59 682.35,-762.27"/>
<polygon fill="#ff7f7f" stroke="#ff7f7f" points="685.84,-761.88 681.69,-752.13 678.85,-762.34 685.84,-761.88"/>
</g>
<!-- Node0x563dece76128&#45;&gt;Node0x563dece74b48 -->
<g id="edge45" class="edge">
<title>Node0x563dece76128&#45;&gt;Node0x563dece74b48</title>
<path fill="none" stroke="#ff7f7f" d="M857.99,-1080.34C825.69,-1074.13 800.52,-1064.21 791,-1048.82 746.66,-977.08 860.72,-964.25 964.74,-966.17"/>
<polygon fill="#ff7f7f" stroke="#ff7f7f" points="964.7,-969.67 974.77,-966.41 964.86,-962.68 964.7,-969.67"/>
</g>
<!-- Node0x563dece76128&#45;&gt;Node0x563dece7c488 -->
<g id="edge47" class="edge">
<title>Node0x563dece76128&#45;&gt;Node0x563dece7c488</title>
<path fill="none" stroke="#ff7f7f" d="M857.65,-1081.37C828.4,-1075.43 805.83,-1066.1 797,-1051.82 786.28,-1034.47 786.28,-335.16 797,-317.82 817.07,-285.34 908.26,-278.44 987.24,-278.89"/>
<polygon fill="#ff7f7f" stroke="#ff7f7f" points="987.26,-282.39 997.3,-278.99 987.33,-275.39 987.26,-282.39"/>
</g>
<!-- Node0x563dece76128&#45;&gt;Node0x563dece79b98 -->
<g id="edge37" class="edge">
<title>Node0x563dece76128&#45;&gt;Node0x563dece79b98</title>
<path fill="none" stroke="#ff7f7f" d="M857.88,-1079.21C822.76,-1072.71 795.15,-1062.24 785,-1045.82 772.88,-1026.21 772.88,-235.43 785,-215.82 833.5,-137.35 950.95,-142.5 1030.8,-156.91"/>
<polygon fill="#ff7f7f" stroke="#ff7f7f" points="1030.36,-160.39 1040.83,-158.81 1031.65,-153.51 1030.36,-160.39"/>
</g>
<!-- Node0x563dece76128&#45;&gt;Node0x563dece75ea8 -->
<g id="edge39" class="edge">
<title>Node0x563dece76128&#45;&gt;Node0x563dece75ea8</title>
<path fill="none" stroke="#ff7f7f" d="M857.65,-1081.37C828.4,-1075.43 805.83,-1066.1 797,-1051.82 788.82,-1038.59 788.82,-785.05 797,-771.82 844.02,-695.73 958.67,-703.23 1035.63,-718.68"/>
<polygon fill="#ff7f7f" stroke="#ff7f7f" points="1035.26,-722.17 1045.76,-720.8 1036.69,-715.32 1035.26,-722.17"/>
</g>
<!-- Node0x563dece76128&#45;&gt;Node0x563dece7a278 -->
<g id="edge43" class="edge">
<title>Node0x563dece76128&#45;&gt;Node0x563dece7a278</title>
<path fill="none" stroke="#ff7f7f" d="M857.99,-1080.34C825.69,-1074.13 800.52,-1064.21 791,-1048.82 778.73,-1028.97 778.73,-648.67 791,-628.82 794.01,-623.95 798.57,-619.64 804.44,-615.81"/>
<polygon fill="#ff7f7f" stroke="#ff7f7f" points="806.19,-618.84 813.21,-610.9 802.77,-612.73 806.19,-618.84"/>
</g>
<!-- Node0x563dece76128&#45;&gt;Node0x563dece7a368 -->
<g id="edge38" class="edge">
<title>Node0x563dece76128&#45;&gt;Node0x563dece7a368</title>
<path fill="none" stroke="#ff7f7f" d="M857.99,-1080.34C825.69,-1074.13 800.52,-1064.21 791,-1048.82 777.16,-1026.42 777.16,-597.22 791,-574.82 796.25,-566.32 806.28,-559.49 819.65,-554.03"/>
<polygon fill="#ff7f7f" stroke="#ff7f7f" points="821.22,-557.18 829.41,-550.47 818.82,-550.61 821.22,-557.18"/>
</g>
<!-- Node0x563dece76128&#45;&gt;Node0x563dece79be8 -->
<g id="edge44" class="edge">
<title>Node0x563dece76128&#45;&gt;Node0x563dece79be8</title>
<path fill="none" stroke="#ff7f7f" d="M857.65,-1081.37C828.4,-1075.43 805.83,-1066.1 797,-1051.82 788.24,-1037.64 788.24,-916 797,-901.82 825.07,-856.4 873.88,-829.57 924.76,-813.83"/>
<polygon fill="#ff7f7f" stroke="#ff7f7f" points="926.02,-817.11 934.62,-810.92 924.04,-810.39 926.02,-817.11"/>
</g>
<!-- Node0x563dece76128&#45;&gt;Node0x563dece76c68 -->
<g id="edge40" class="edge">
<title>Node0x563dece76128&#45;&gt;Node0x563dece76c68</title>
<path fill="none" stroke="#ff7f7f" d="M857.99,-1069.31C841.29,-1066.1 824.83,-1062.31 809,-1057.82 803.26,-1056.19 800.13,-1056.89 797,-1051.82 785.78,-1033.67 785.78,-973.97 797,-955.82 844.02,-879.73 958.67,-887.23 1035.63,-902.68"/>
<polygon fill="#ff7f7f" stroke="#ff7f7f" points="1035.26,-906.17 1045.76,-904.8 1036.69,-899.32 1035.26,-906.17"/>
</g>
<!-- Node0x563dece76128&#45;&gt;Node0x563dece76e98 -->
<g id="edge41" class="edge">
<title>Node0x563dece76128&#45;&gt;Node0x563dece76e98</title>
<path fill="none" stroke="#ff7f7f" d="M1279.83,-1102.85C1303.78,-1107.98 1307.16,-1113.12 1289.99,-1118.25"/>
<polygon fill="#ff7f7f" stroke="#ff7f7f" points="1288.77,-1114.95 1279.91,-1120.77 1290.46,-1121.74 1288.77,-1114.95"/>
</g>
<!-- Node0x563dece77bb8 -->
<g id="node21" class="node">
<title>Node0x563dece77bb8</title>
<polygon fill="#ff7f7f" stroke="black" points="2543,-975.82 2027,-975.82 2027,-939.82 2543,-939.82 2543,-975.82"/>
<text text-anchor="middle" x="2285" y="-954.12" font-family="Times,serif" font-size="14.00">{tools/llvm&#45;readobj/CMakeFiles/llvm&#45;readobj.dir/WasmDumper.cpp.o}</text>
</g>
<!-- Node0x563dece76128&#45;&gt;Node0x563dece77bb8 -->
<g id="edge42" class="edge">
<title>Node0x563dece76128&#45;&gt;Node0x563dece77bb8</title>
<path fill="none" stroke="#ff7f7f" d="M1229.28,-1066.82C1284.98,-1061.13 1352.45,-1055.01 1413,-1048.82 1636.18,-1026 1891.08,-996.31 2067.21,-976.94"/>
<polygon fill="#ff7f7f" stroke="#ff7f7f" points="2067.82,-980.4 2077.38,-975.82 2067.05,-973.44 2067.82,-980.4"/>
</g>
<!-- Node0x563dece74b48&#45;&gt;Node0x563dece79878 -->
<g id="edge63" class="edge">
<title>Node0x563dece74b48&#45;&gt;Node0x563dece79878</title>
<path fill="none" stroke="#ff7f7f" d="M974.83,-973.43C922.46,-969.85 862.37,-962.94 809,-949.82 613.42,-901.72 400.55,-784.24 315.13,-734.11"/>
<polygon fill="#ff7f7f" stroke="#ff7f7f" points="316.7,-730.97 306.31,-728.9 313.14,-737 316.7,-730.97"/>
</g>
<!-- Node0x563dece74b48&#45;&gt;Node0x563dece7c988 -->
<g id="edge62" class="edge">
<title>Node0x563dece74b48&#45;&gt;Node0x563dece7c988</title>
<path fill="none" stroke="#ff7f7f" d="M1046.05,-994.86C980.61,-1005.07 878.86,-1007 809,-958.82 778.89,-938.05 790.98,-916.67 773,-884.82 747.88,-840.31 714.4,-790.7 695.54,-760.67"/>
<polygon fill="#ff7f7f" stroke="#ff7f7f" points="698.41,-758.66 690.18,-752 692.46,-762.35 698.41,-758.66"/>
</g>
<!-- Node0x563dece74b48&#45;&gt;Node0x563dece79b98 -->
<g id="edge64" class="edge">
<title>Node0x563dece74b48&#45;&gt;Node0x563dece79b98</title>
<path fill="none" stroke="#ff7f7f" d="M974.91,-980.85C894.78,-979.6 805.23,-970.55 785,-937.82 774.46,-920.76 774.46,-232.88 785,-215.82 833.5,-137.35 950.95,-142.5 1030.8,-156.91"/>
<polygon fill="#ff7f7f" stroke="#ff7f7f" points="1030.36,-160.39 1040.83,-158.81 1031.65,-153.51 1030.36,-160.39"/>
</g>
<!-- Node0x563dece74b48&#45;&gt;Node0x563dece75ea8 -->
<g id="edge66" class="edge">
<title>Node0x563dece74b48&#45;&gt;Node0x563dece75ea8</title>
<path fill="none" stroke="#ff7f7f" d="M974.78,-981.78C896.8,-980.99 810.62,-972.56 791,-940.82 771.61,-909.44 771.61,-806.2 791,-774.82 838.78,-697.52 954.89,-703.87 1033.3,-718.8"/>
<polygon fill="#ff7f7f" stroke="#ff7f7f" points="1032.66,-722.24 1043.15,-720.76 1034.02,-715.38 1032.66,-722.24"/>
</g>
<!-- Node0x563dece74b48&#45;&gt;Node0x563dece7a278 -->
<g id="edge65" class="edge">
<title>Node0x563dece74b48&#45;&gt;Node0x563dece7a278</title>
<path fill="none" stroke="#ff7f7f" d="M974.78,-981.78C896.8,-980.99 810.62,-972.56 791,-940.82 772.77,-911.33 772.77,-658.31 791,-628.82 794.01,-623.95 798.57,-619.64 804.44,-615.81"/>
<polygon fill="#ff7f7f" stroke="#ff7f7f" points="806.19,-618.84 813.21,-610.9 802.77,-612.73 806.19,-618.84"/>
</g>
<!-- Node0x563dece74b48&#45;&gt;Node0x563dece76c68 -->
<g id="edge67" class="edge">
<title>Node0x563dece74b48&#45;&gt;Node0x563dece76c68</title>
<path fill="none" stroke="#ff7f7f" d="M1111,-958.61C1111,-956.13 1111,-953.64 1111,-951.16"/>
<polygon fill="#ff7f7f" stroke="#ff7f7f" points="1114.5,-950.96 1111,-940.96 1107.5,-950.96 1114.5,-950.96"/>
</g>
<!-- Node0x563dece74b48&#45;&gt;Node0x563dece77bb8 -->
<g id="edge68" class="edge">
<title>Node0x563dece74b48&#45;&gt;Node0x563dece77bb8</title>
<path fill="none" stroke="#ff7f7f" d="M1247.02,-974.63C1434.23,-971.59 1776.67,-966.04 2016.65,-962.15"/>
<polygon fill="#ff7f7f" stroke="#ff7f7f" points="2016.99,-965.65 2026.93,-961.99 2016.88,-958.65 2016.99,-965.65"/>
</g>
<!-- Node0x563dece7c488&#45;&gt;Node0x563dece7c988 -->
<g id="edge92" class="edge">
<title>Node0x563dece7c488&#45;&gt;Node0x563dece7c988</title>
<path fill="none" stroke="#ff7f7f" d="M1028.25,-266.8C960.25,-257.05 865.72,-256.5 809,-311.82 758.88,-360.7 800.76,-560.54 773,-624.82 758.74,-657.82 731.07,-688.44 709.78,-708.78"/>
<polygon fill="#ff7f7f" stroke="#ff7f7f" points="707.19,-706.41 702.27,-715.79 711.97,-711.53 707.19,-706.41"/>
</g>
<!-- Node0x563dece7c488&#45;&gt;Node0x563dece76128 -->
<g id="edge91" class="edge">
<title>Node0x563dece7c488&#45;&gt;Node0x563dece76128</title>
<path fill="none" stroke="#ff7f7f" d="M997.3,-280.63C912.31,-280.53 807.14,-288 785,-323.82 774.46,-340.88 774.46,-1028.76 785,-1045.82 794.16,-1060.64 817.54,-1070.61 847.82,-1077.19"/>
<polygon fill="#ff7f7f" stroke="#ff7f7f" points="847.39,-1080.67 857.88,-1079.21 848.77,-1073.81 847.39,-1080.67"/>
</g>
<!-- Node0x563dece7c488&#45;&gt;Node0x563dece74b48 -->
<g id="edge94" class="edge">
<title>Node0x563dece7c488&#45;&gt;Node0x563dece74b48</title>
<path fill="none" stroke="#ff7f7f" d="M997.26,-279.82C914.21,-279.23 812.53,-285.98 791,-320.82 772.89,-350.12 772.89,-911.52 791,-940.82 809.78,-971.2 889.52,-980.22 964.69,-981.64"/>
<polygon fill="#ff7f7f" stroke="#ff7f7f" points="964.73,-985.14 974.78,-981.78 964.83,-978.14 964.73,-985.14"/>
</g>
<!-- Node0x563dece7c488&#45;&gt;Node0x563dece75ea8 -->
<g id="edge93" class="edge">
<title>Node0x563dece7c488&#45;&gt;Node0x563dece75ea8</title>
<path fill="none" stroke="#ff7f7f" d="M997.3,-280.63C912.31,-280.53 807.14,-288 785,-323.82 774.16,-341.35 774.16,-677.29 785,-694.82 832.08,-770.99 943.78,-770.36 1023.28,-758.43"/>
<polygon fill="#ff7f7f" stroke="#ff7f7f" points="1023.97,-761.87 1033.3,-756.85 1022.87,-754.95 1023.97,-761.87"/>
</g>
<!-- Node0x563dece79b98&#45;&gt;Node0x563dece79878 -->
<g id="edge29" class="edge">
<title>Node0x563dece79b98&#45;&gt;Node0x563dece79878</title>
<path fill="none" stroke="#ff7f7f" d="M853.44,-175.64C762.46,-186.23 663.72,-211.4 587,-265.82 426.32,-379.79 320.97,-604.49 287.76,-682.97"/>
<polygon fill="#ff7f7f" stroke="#ff7f7f" points="284.35,-682.06 283.73,-692.64 290.81,-684.76 284.35,-682.06"/>
</g>
<!-- Node0x563dece79b98&#45;&gt;Node0x563dece7bee8 -->
<g id="edge34" class="edge">
<title>Node0x563dece79b98&#45;&gt;Node0x563dece7bee8</title>
<path fill="none" stroke="#ff7f7f" d="M853.17,-187.15C837.36,-193.69 822.44,-202.11 809,-212.82 695.33,-303.44 681.36,-496.58 680.52,-569.42"/>
<polygon fill="#ff7f7f" stroke="#ff7f7f" points="677.02,-569.65 680.48,-579.66 684.02,-569.67 677.02,-569.65"/>
</g>
<!-- Node0x563dece79b98&#45;&gt;Node0x563dece7c988 -->
<g id="edge35" class="edge">
<title>Node0x563dece79b98&#45;&gt;Node0x563dece7c988</title>
<path fill="none" stroke="#ff7f7f" d="M853.31,-182.33C837,-189.85 821.96,-199.81 809,-212.82 742.74,-279.35 808.97,-547.09 773,-633.82 760.89,-663.03 737.97,-690.21 718.04,-709.01"/>
<polygon fill="#ff7f7f" stroke="#ff7f7f" points="715.62,-706.48 710.58,-715.8 720.33,-711.66 715.62,-706.48"/>
</g>
<!-- Node0x563dece79b98&#45;&gt;Node0x563dece76128 -->
<g id="edge30" class="edge">
<title>Node0x563dece79b98&#45;&gt;Node0x563dece76128</title>
<path fill="none" stroke="#ff7f7f" d="M1045.76,-158.8C969.1,-142.08 846.13,-130.32 797,-209.82 784.7,-229.71 784.7,-1031.92 797,-1051.82 804.79,-1064.42 823.3,-1073.18 847.65,-1079.14"/>
<polygon fill="#ff7f7f" stroke="#ff7f7f" points="847.12,-1082.61 857.65,-1081.37 848.65,-1075.78 847.12,-1082.61"/>
</g>
<!-- Node0x563dece79b98&#45;&gt;Node0x563dece74b48 -->
<g id="edge33" class="edge">
<title>Node0x563dece79b98&#45;&gt;Node0x563dece74b48</title>
<path fill="none" stroke="#ff7f7f" d="M1045.76,-158.8C969.1,-142.08 846.13,-130.32 797,-209.82 786.28,-227.16 786.28,-926.47 797,-943.82 815.17,-973.21 891.59,-981.66 964.49,-982.66"/>
<polygon fill="#ff7f7f" stroke="#ff7f7f" points="964.71,-986.16 974.74,-982.75 964.78,-979.16 964.71,-986.16"/>
</g>
<!-- Node0x563dece79b98&#45;&gt;Node0x563dece76e98 -->
<g id="edge31" class="edge">
<title>Node0x563dece79b98&#45;&gt;Node0x563dece76e98</title>
<path fill="none" stroke="#ff7f7f" d="M1045.76,-158.8C969.1,-142.08 846.13,-130.32 797,-209.82 783.92,-230.99 783.92,-1084.65 797,-1105.82 844.02,-1181.9 958.67,-1174.4 1035.63,-1158.96"/>
<polygon fill="#ff7f7f" stroke="#ff7f7f" points="1036.69,-1162.31 1045.76,-1156.84 1035.26,-1155.46 1036.69,-1162.31"/>
</g>
<!-- Node0x563dece78658 -->
<g id="node20" class="node">
<title>Node0x563dece78658</title>
<polygon fill="#ff7f7f" stroke="black" points="1991,-848.82 1449,-848.82 1449,-812.82 1991,-812.82 1991,-848.82"/>
<text text-anchor="middle" x="1720" y="-827.12" font-family="Times,serif" font-size="14.00">{tools/llvm&#45;readobj/CMakeFiles/llvm&#45;readobj.dir/Win64EHDumper.cpp.o}</text>
</g>
<!-- Node0x563dece79b98&#45;&gt;Node0x563dece78658 -->
<g id="edge32" class="edge">
<title>Node0x563dece79b98&#45;&gt;Node0x563dece78658</title>
<path fill="none" stroke="#ff7f7f" d="M1158.4,-158.79C1225.05,-141.32 1347.08,-127.19 1413,-194.82 1500.36,-284.43 1368.45,-661.04 1449,-756.82 1470.68,-782.59 1500.63,-799.14 1532.72,-809.76"/>
<polygon fill="#ff7f7f" stroke="#ff7f7f" points="1531.7,-813.11 1542.29,-812.74 1533.78,-806.43 1531.7,-813.11"/>
</g>
<!-- Node0x563dece75ea8&#45;&gt;Node0x563dece79878 -->
<g id="edge71" class="edge">
<title>Node0x563dece75ea8&#45;&gt;Node0x563dece79878</title>
<path fill="none" stroke="#ff7f7f" d="M952.91,-720.79C896.29,-715.12 831.85,-709.61 773,-706.82 690.43,-702.91 669.66,-706.29 587,-706.82 578.57,-706.87 570.02,-706.94 561.38,-707"/>
<polygon fill="#ff7f7f" stroke="#ff7f7f" points="561.17,-703.51 551.2,-707.09 561.23,-710.51 561.17,-703.51"/>
</g>
<!-- Node0x563dece75ea8&#45;&gt;Node0x563dece7bee8 -->
<g id="edge77" class="edge">
<title>Node0x563dece75ea8&#45;&gt;Node0x563dece7bee8</title>
<path fill="none" stroke="#ff7f7f" d="M939.99,-720.8C896.46,-711.58 850.3,-699.04 809,-682.82 770.53,-667.71 730.17,-641.82 705.3,-622.32"/>
<polygon fill="#ff7f7f" stroke="#ff7f7f" points="707.45,-619.56 697.48,-615.98 703.04,-624.99 707.45,-619.56"/>
</g>
<!-- Node0x563dece75ea8&#45;&gt;Node0x563dece7c988 -->
<g id="edge79" class="edge">
<title>Node0x563dece75ea8&#45;&gt;Node0x563dece7c988</title>
<path fill="none" stroke="#ff7f7f" d="M859.17,-742.56C832.53,-742.12 806.65,-741.55 783.25,-740.86"/>
<polygon fill="#ff7f7f" stroke="#ff7f7f" points="783.13,-737.36 773.03,-740.55 782.92,-744.35 783.13,-737.36"/>
</g>
<!-- Node0x563dece75ea8&#45;&gt;Node0x563dece76128 -->
<g id="edge73" class="edge">
<title>Node0x563dece75ea8&#45;&gt;Node0x563dece76128</title>
<path fill="none" stroke="#ff7f7f" d="M1040.83,-720.81C961.12,-705.1 835.57,-696 785,-777.82 769.34,-803.15 769.34,-1020.49 785,-1045.82 794.16,-1060.64 817.54,-1070.61 847.82,-1077.19"/>
<polygon fill="#ff7f7f" stroke="#ff7f7f" points="847.39,-1080.67 857.88,-1079.21 848.77,-1073.81 847.39,-1080.67"/>
</g>
<!-- Node0x563dece75ea8&#45;&gt;Node0x563dece7c488 -->
<g id="edge78" class="edge">
<title>Node0x563dece75ea8&#45;&gt;Node0x563dece7c488</title>
<path fill="none" stroke="#ff7f7f" d="M859.47,-731.53C829.35,-725.15 806.02,-715.42 797,-700.82 785.81,-682.72 785.81,-335.92 797,-317.82 817.07,-285.34 908.26,-278.44 987.24,-278.89"/>
<polygon fill="#ff7f7f" stroke="#ff7f7f" points="987.26,-282.39 997.3,-278.99 987.33,-275.39 987.26,-282.39"/>
</g>
<!-- Node0x563dece75ea8&#45;&gt;Node0x563dece79b98 -->
<g id="edge72" class="edge">
<title>Node0x563dece75ea8&#45;&gt;Node0x563dece79b98</title>
<path fill="none" stroke="#ff7f7f" d="M1036.5,-756.82C958.12,-770.76 839.51,-776.31 791,-697.82 776.83,-674.9 776.83,-235.74 791,-212.82 838.78,-135.52 954.89,-141.87 1033.3,-156.8"/>
<polygon fill="#ff7f7f" stroke="#ff7f7f" points="1032.66,-160.24 1043.15,-158.76 1034.02,-153.38 1032.66,-160.24"/>
</g>
<!-- Node0x563dece75ea8&#45;&gt;Node0x563dece74648 -->
<g id="edge75" class="edge">
<title>Node0x563dece75ea8&#45;&gt;Node0x563dece74648</title>
<path fill="none" stroke="#ff7f7f" d="M1171.27,-720.79C1214.82,-703.56 1218.14,-686.34 1181.22,-669.11"/>
<polygon fill="#ff7f7f" stroke="#ff7f7f" points="1182.14,-665.69 1171.57,-664.97 1179.38,-672.13 1182.14,-665.69"/>
</g>
<!-- Node0x563dece75ea8&#45;&gt;Node0x563dece76e98 -->
<g id="edge74" class="edge">
<title>Node0x563dece75ea8&#45;&gt;Node0x563dece76e98</title>
<path fill="none" stroke="#ff7f7f" d="M1040.83,-720.81C961.12,-705.1 835.57,-696 785,-777.82 775.6,-793.04 775.6,-1084.6 785,-1099.82 833.5,-1178.29 950.95,-1173.13 1030.8,-1158.72"/>
<polygon fill="#ff7f7f" stroke="#ff7f7f" points="1031.65,-1162.12 1040.83,-1156.83 1030.36,-1155.25 1031.65,-1162.12"/>
</g>
<!-- Node0x563dece7b9e8 -->
<g id="node22" class="node">
<title>Node0x563dece7b9e8</title>
<polygon fill="none" stroke="black" points="1820,-756.82 1620,-756.82 1620,-720.82 1820,-720.82 1820,-756.82"/>
<text text-anchor="middle" x="1720" y="-735.12" font-family="Times,serif" font-size="14.00">{lib/libLLVMDemangle.a}</text>
</g>
<!-- Node0x563dece75ea8&#45;&gt;Node0x563dece7b9e8 -->
<g id="edge76" class="edge">
<title>Node0x563dece75ea8&#45;&gt;Node0x563dece7b9e8</title>
<path fill="none" stroke="black" d="M1362.83,-738.82C1448.82,-738.82 1540.63,-738.82 1609.49,-738.82"/>
<polygon fill="black" stroke="black" points="1609.91,-742.32 1619.91,-738.82 1609.91,-735.32 1609.91,-742.32"/>
</g>
<!-- Node0x563dece7a278&#45;&gt;Node0x563dece7bee8 -->
<g id="edge112" class="edge">
<title>Node0x563dece7a278&#45;&gt;Node0x563dece7bee8</title>
<path fill="none" stroke="#ff7f7f" d="M808.67,-602.56C797.95,-602.55 787.57,-602.51 777.68,-602.44"/>
<polygon fill="#ff7f7f" stroke="#ff7f7f" points="777.59,-598.94 767.56,-602.35 777.53,-605.94 777.59,-598.94"/>
</g>
<!-- Node0x563dece7a278&#45;&gt;Node0x563dece7c988 -->
<g id="edge113" class="edge">
<title>Node0x563dece7a278&#45;&gt;Node0x563dece7c988</title>
<path fill="none" stroke="#ff7f7f" d="M862.8,-610.91C844.23,-615.55 826.09,-621.42 809,-628.82 767.67,-646.71 730.47,-683.29 706.96,-708.35"/>
<polygon fill="#ff7f7f" stroke="#ff7f7f" points="704.36,-706.01 700.12,-715.72 709.49,-710.78 704.36,-706.01"/>
</g>
<!-- Node0x563dece7a278&#45;&gt;Node0x563dece79b98 -->
<g id="edge111" class="edge">
<title>Node0x563dece7a278&#45;&gt;Node0x563dece79b98</title>
<path fill="none" stroke="#ff7f7f" d="M813.21,-574.74C803.05,-569.81 795.37,-563.89 791,-556.82 770.91,-524.3 770.91,-245.33 791,-212.82 838.78,-135.52 954.89,-141.87 1033.3,-156.8"/>
<polygon fill="#ff7f7f" stroke="#ff7f7f" points="1032.66,-160.24 1043.15,-158.76 1034.02,-153.38 1032.66,-160.24"/>
</g>
<!-- Node0x563dece78ce8&#45;&gt;Node0x563dece7bee8 -->
<g id="edge122" class="edge">
<title>Node0x563dece78ce8&#45;&gt;Node0x563dece7bee8</title>
<path fill="none" stroke="#ff7f7f" d="M1034.2,-488.58C971.96,-489.88 882.44,-494.8 809,-520.82 775.37,-532.74 742.06,-555.56 717.85,-573.43"/>
<polygon fill="#ff7f7f" stroke="#ff7f7f" points="715.61,-570.73 709.69,-579.51 719.79,-576.34 715.61,-570.73"/>
</g>
<!-- Node0x563dece78ce8&#45;&gt;Node0x563dece7c988 -->
<g id="edge123" class="edge">
<title>Node0x563dece78ce8&#45;&gt;Node0x563dece7c988</title>
<path fill="none" stroke="#ff7f7f" d="M1034.42,-470.15C967.84,-461.76 871.93,-461.35 809,-511.82 767.88,-544.79 798.49,-578.68 773,-624.82 755.51,-656.48 728.03,-687.49 707.65,-708.29"/>
<polygon fill="#ff7f7f" stroke="#ff7f7f" points="705.07,-705.92 700.5,-715.48 710.03,-710.86 705.07,-705.92"/>
</g>
<!-- Node0x563dece78ce8&#45;&gt;Node0x563dece74b48 -->
<g id="edge121" class="edge">
<title>Node0x563dece78ce8&#45;&gt;Node0x563dece74b48</title>
<path fill="none" stroke="#ff7f7f" d="M1043.15,-466.76C964.95,-450.56 840.82,-440.21 791,-520.82 778.73,-540.67 778.73,-920.97 791,-940.82 809.78,-971.2 889.52,-980.22 964.69,-981.64"/>
<polygon fill="#ff7f7f" stroke="#ff7f7f" points="964.73,-985.14 974.78,-981.78 964.83,-978.14 964.73,-985.14"/>
</g>
<!-- Node0x563dece78ce8&#45;&gt;Node0x563dece7c488 -->
<g id="edge125" class="edge">
<title>Node0x563dece78ce8&#45;&gt;Node0x563dece7c488</title>
<path fill="none" stroke="#ff7f7f" d="M1034.34,-493.92C956.23,-498.26 839.86,-489.88 791,-410.82 769.97,-376.79 769.97,-354.84 791,-320.82 811.65,-287.41 906.01,-279.83 986.96,-279.79"/>
<polygon fill="#ff7f7f" stroke="#ff7f7f" points="987.25,-283.29 997.26,-279.82 987.27,-276.29 987.25,-283.29"/>
</g>
<!-- Node0x563dece78ce8&#45;&gt;Node0x563dece75ea8 -->
<g id="edge124" class="edge">
<title>Node0x563dece78ce8&#45;&gt;Node0x563dece75ea8</title>
<path fill="none" stroke="#ff7f7f" d="M1043.15,-466.76C964.95,-450.56 840.82,-440.21 791,-520.82 770.32,-554.28 770.32,-664.36 791,-697.82 837.43,-772.94 948.05,-771.08 1026.19,-758.57"/>
<polygon fill="#ff7f7f" stroke="#ff7f7f" points="1027.23,-761.94 1036.5,-756.82 1026.06,-755.04 1027.23,-761.94"/>
</g>
<!-- Node0x563dece78ce8&#45;&gt;Node0x563dece77de8 -->
<g id="edge126" class="edge">
<title>Node0x563dece78ce8&#45;&gt;Node0x563dece77de8</title>
<path fill="none" stroke="#ff7f7f" d="M1157.8,-466.79C1191.04,-449.85 1194.09,-432.92 1166.95,-415.98"/>
<polygon fill="#ff7f7f" stroke="#ff7f7f" points="1168.46,-412.82 1158.03,-410.97 1165.03,-418.92 1168.46,-412.82"/>
</g>
<!-- Node0x563dece78ce8&#45;&gt;Node0x563dece76e98 -->
<g id="edge127" class="edge">
<title>Node0x563dece78ce8&#45;&gt;Node0x563dece76e98</title>
<path fill="none" stroke="#ff7f7f" d="M1043.15,-466.76C964.95,-450.56 840.82,-440.21 791,-520.82 774,-548.32 774,-1075.31 791,-1102.82 838.78,-1180.12 954.89,-1173.77 1033.3,-1158.83"/>
<polygon fill="#ff7f7f" stroke="#ff7f7f" points="1034.02,-1162.26 1043.15,-1156.87 1032.66,-1155.39 1034.02,-1162.26"/>
</g>
<!-- Node0x563dece74648&#45;&gt;Node0x563dece79878 -->
<g id="edge80" class="edge">
<title>Node0x563dece74648&#45;&gt;Node0x563dece79878</title>
<path fill="none" stroke="#ff7f7f" d="M983.47,-656.53C861.31,-665.91 673.09,-680.37 521.56,-692"/>
<polygon fill="#ff7f7f" stroke="#ff7f7f" points="520.87,-688.54 511.17,-692.8 521.41,-695.52 520.87,-688.54"/>
</g>
<!-- Node0x563dece74648&#45;&gt;Node0x563dece7bee8 -->
<g id="edge85" class="edge">
<title>Node0x563dece74648&#45;&gt;Node0x563dece7bee8</title>
<path fill="none" stroke="#ff7f7f" d="M983.44,-646.04C929.56,-642.3 866.1,-636.27 809,-628.82 787.29,-625.98 763.63,-622.13 742.63,-617.96"/>
<polygon fill="#ff7f7f" stroke="#ff7f7f" points="743.05,-614.47 732.55,-615.88 741.64,-621.33 743.05,-614.47"/>
</g>
<!-- Node0x563dece74648&#45;&gt;Node0x563dece7c988 -->
<g id="edge87" class="edge">
<title>Node0x563dece74648&#45;&gt;Node0x563dece7c988</title>
<path fill="none" stroke="#ff7f7f" d="M983.27,-660.11C928.94,-665.15 865.18,-673.12 809,-687.82 786.37,-693.74 762.58,-703.03 741.73,-711.82"/>
<polygon fill="#ff7f7f" stroke="#ff7f7f" points="740.2,-708.67 732.37,-715.81 742.94,-715.11 740.2,-708.67"/>
</g>
<!-- Node0x563dece74648&#45;&gt;Node0x563dece76128 -->
<g id="edge83" class="edge">
<title>Node0x563dece74648&#45;&gt;Node0x563dece76128</title>
<path fill="none" stroke="#ff7f7f" d="M983.48,-637.11C912.2,-639.59 830.05,-657.64 791,-720.82 771.84,-751.82 771.84,-1017.82 791,-1048.82 799.51,-1062.59 820.55,-1071.97 848.02,-1078.25"/>
<polygon fill="#ff7f7f" stroke="#ff7f7f" points="847.49,-1081.71 857.99,-1080.34 848.92,-1074.86 847.49,-1081.71"/>
</g>
<!-- Node0x563dece74648&#45;&gt;Node0x563dece74b48 -->
<g id="edge84" class="edge">
<title>Node0x563dece74648&#45;&gt;Node0x563dece74b48</title>
<path fill="none" stroke="#ff7f7f" d="M983.48,-637.11C912.2,-639.59 830.05,-657.64 791,-720.82 778.15,-741.61 778.15,-920.02 791,-940.82 809.78,-971.2 889.52,-980.22 964.69,-981.64"/>
<polygon fill="#ff7f7f" stroke="#ff7f7f" points="964.73,-985.14 974.78,-981.78 964.83,-978.14 964.73,-985.14"/>
</g>
<!-- Node0x563dece74648&#45;&gt;Node0x563dece7c488 -->
<g id="edge86" class="edge">
<title>Node0x563dece74648&#45;&gt;Node0x563dece7c488</title>
<path fill="none" stroke="#ff7f7f" d="M1043.15,-664.87C964.95,-681.07 840.82,-691.43 791,-610.82 774.06,-583.41 774.06,-348.23 791,-320.82 811.65,-287.41 906.01,-279.83 986.96,-279.79"/>
<polygon fill="#ff7f7f" stroke="#ff7f7f" points="987.25,-283.29 997.26,-279.82 987.27,-276.29 987.25,-283.29"/>
</g>
<!-- Node0x563dece74648&#45;&gt;Node0x563dece79b98 -->
<g id="edge81" class="edge">
<title>Node0x563dece74648&#45;&gt;Node0x563dece79b98</title>
<path fill="none" stroke="#ff7f7f" d="M1043.15,-664.87C964.95,-681.07 840.82,-691.43 791,-610.82 767.75,-573.2 767.75,-250.44 791,-212.82 838.78,-135.52 954.89,-141.87 1033.3,-156.8"/>
<polygon fill="#ff7f7f" stroke="#ff7f7f" points="1032.66,-160.24 1043.15,-158.76 1034.02,-153.38 1032.66,-160.24"/>
</g>
<!-- Node0x563dece74648&#45;&gt;Node0x563dece75ea8 -->
<g id="edge82" class="edge">
<title>Node0x563dece74648&#45;&gt;Node0x563dece75ea8</title>
<path fill="none" stroke="#ff7f7f" d="M1050.43,-664.97C1006.88,-682.27 1003.91,-699.56 1041.5,-716.86"/>
<polygon fill="#ff7f7f" stroke="#ff7f7f" points="1040.16,-720.09 1050.73,-720.79 1042.9,-713.65 1040.16,-720.09"/>
</g>
<!-- Node0x563dece74648&#45;&gt;Node0x563dece7a278 -->
<g id="edge90" class="edge">
<title>Node0x563dece74648&#45;&gt;Node0x563dece7a278</title>
<path fill="none" stroke="#ff7f7f" d="M1111,-628.61C1111,-626.13 1111,-623.64 1111,-621.16"/>
<polygon fill="#ff7f7f" stroke="#ff7f7f" points="1114.5,-620.96 1111,-610.96 1107.5,-620.96 1114.5,-620.96"/>
</g>
<!-- Node0x563dece74648&#45;&gt;Node0x563dece78ce8 -->
<g id="edge89" class="edge">
<title>Node0x563dece74648&#45;&gt;Node0x563dece78ce8</title>
<path fill="none" stroke="#ff7f7f" d="M1043.15,-664.87C964.95,-681.07 840.82,-691.43 791,-610.82 767.49,-572.78 765.98,-524.02 809,-511.82 879.76,-491.75 963.24,-485.54 1024.48,-484.05"/>
<polygon fill="#ff7f7f" stroke="#ff7f7f" points="1024.57,-487.55 1034.49,-483.84 1024.42,-480.55 1024.57,-487.55"/>
</g>
<!-- Node0x563dece74648&#45;&gt;Node0x563dece76e98 -->
<g id="edge88" class="edge">
<title>Node0x563dece74648&#45;&gt;Node0x563dece76e98</title>
<path fill="none" stroke="#ff7f7f" d="M983.48,-637.11C912.2,-639.59 830.05,-657.64 791,-720.82 768.69,-756.92 768.69,-1066.71 791,-1102.82 838.78,-1180.12 954.89,-1173.77 1033.3,-1158.83"/>
<polygon fill="#ff7f7f" stroke="#ff7f7f" points="1034.02,-1162.26 1043.15,-1156.87 1032.66,-1155.39 1034.02,-1162.26"/>
</g>
<!-- Node0x563dece791e8&#45;&gt;Node0x563dece79878 -->
<g id="edge128" class="edge">
<title>Node0x563dece791e8&#45;&gt;Node0x563dece79878</title>
<path fill="none" stroke="#ff7f7f" d="M1011.4,-230.44C951.8,-232.47 874.87,-239.12 809,-257.82 702.88,-287.94 674.91,-302.18 587,-368.82 458.17,-466.48 339.7,-622.4 295.16,-684.27"/>
<polygon fill="#ff7f7f" stroke="#ff7f7f" points="292.1,-682.53 289.13,-692.7 297.8,-686.6 292.1,-682.53"/>
</g>
<!-- Node0x563dece791e8&#45;&gt;Node0x563dece7bee8 -->
<g id="edge133" class="edge">
<title>Node0x563dece791e8&#45;&gt;Node0x563dece7bee8</title>
<path fill="none" stroke="#ff7f7f" d="M1011.38,-222.26C947.5,-218.69 865.9,-223.55 809,-266.82 709.6,-342.4 687.39,-504.42 682.43,-569.82"/>
<polygon fill="#ff7f7f" stroke="#ff7f7f" points="678.93,-569.6 681.75,-579.82 685.92,-570.08 678.93,-569.6"/>
</g>
<!-- Node0x563dece791e8&#45;&gt;Node0x563dece7c988 -->
<g id="edge134" class="edge">
<title>Node0x563dece791e8&#45;&gt;Node0x563dece7c988</title>
<path fill="none" stroke="#ff7f7f" d="M1029.7,-212.81C961.44,-202.68 865.72,-201.57 809,-257.82 750.81,-315.52 804.87,-549.32 773,-624.82 759.11,-657.73 731.65,-688.17 710.33,-708.47"/>
<polygon fill="#ff7f7f" stroke="#ff7f7f" points="707.74,-706.1 702.79,-715.47 712.5,-711.23 707.74,-706.1"/>
</g>
<!-- Node0x563dece791e8&#45;&gt;Node0x563dece76128 -->
<g id="edge131" class="edge">
<title>Node0x563dece791e8&#45;&gt;Node0x563dece76128</title>
<path fill="none" stroke="#ff7f7f" d="M1011.1,-225.99C925.92,-224.56 813.74,-230.02 791,-266.82 768.16,-303.77 768.16,-1011.86 791,-1048.82 799.51,-1062.59 820.55,-1071.97 848.02,-1078.25"/>
<polygon fill="#ff7f7f" stroke="#ff7f7f" points="847.49,-1081.71 857.99,-1080.34 848.92,-1074.86 847.49,-1081.71"/>
</g>
<!-- Node0x563dece791e8&#45;&gt;Node0x563dece74b48 -->
<g id="edge132" class="edge">
<title>Node0x563dece791e8&#45;&gt;Node0x563dece74b48</title>
<path fill="none" stroke="#ff7f7f" d="M1011.1,-225.99C925.92,-224.56 813.74,-230.02 791,-266.82 771.31,-298.67 771.31,-908.97 791,-940.82 809.78,-971.2 889.52,-980.22 964.69,-981.64"/>
<polygon fill="#ff7f7f" stroke="#ff7f7f" points="964.73,-985.14 974.78,-981.78 964.83,-978.14 964.73,-985.14"/>
</g>
<!-- Node0x563dece791e8&#45;&gt;Node0x563dece79b98 -->
<g id="edge129" class="edge">
<title>Node0x563dece791e8&#45;&gt;Node0x563dece79b98</title>
<path fill="none" stroke="#ff7f7f" d="M1111,-212.61C1111,-210.13 1111,-207.64 1111,-205.16"/>
<polygon fill="#ff7f7f" stroke="#ff7f7f" points="1114.5,-204.96 1111,-194.96 1107.5,-204.96 1114.5,-204.96"/>
</g>
<!-- Node0x563dece791e8&#45;&gt;Node0x563dece75ea8 -->
<g id="edge130" class="edge">
<title>Node0x563dece791e8&#45;&gt;Node0x563dece75ea8</title>
<path fill="none" stroke="#ff7f7f" d="M1011.1,-225.99C925.92,-224.56 813.74,-230.02 791,-266.82 778.41,-287.19 778.41,-677.45 791,-697.82 837.43,-772.94 948.05,-771.08 1026.19,-758.57"/>
<polygon fill="#ff7f7f" stroke="#ff7f7f" points="1027.23,-761.94 1036.5,-756.82 1026.06,-755.04 1027.23,-761.94"/>
</g>
<!-- Node0x563dece791e8&#45;&gt;Node0x563dece74648 -->
<g id="edge137" class="edge">
<title>Node0x563dece791e8&#45;&gt;Node0x563dece74648</title>
<path fill="none" stroke="#ff7f7f" d="M1011.1,-225.99C925.92,-224.56 813.74,-230.02 791,-266.82 770.91,-299.33 770.91,-578.3 791,-610.82 838.78,-688.12 954.89,-681.77 1033.3,-666.83"/>
<polygon fill="#ff7f7f" stroke="#ff7f7f" points="1034.02,-670.26 1043.15,-664.87 1032.66,-663.39 1034.02,-670.26"/>
</g>
<!-- Node0x563dece791e8&#45;&gt;Node0x563dece796e8 -->
<g id="edge135" class="edge">
<title>Node0x563dece791e8&#45;&gt;Node0x563dece796e8</title>
<path fill="none" stroke="#ff7f7f" d="M1011.06,-223.06C901.36,-218.31 746.98,-224.89 797,-305.82 819.91,-342.9 935.54,-346.64 1019.84,-344.16"/>
<polygon fill="#ff7f7f" stroke="#ff7f7f" points="1020.08,-347.65 1029.96,-343.83 1019.85,-340.66 1020.08,-347.65"/>
</g>
<!-- Node0x563dece7a188 -->
<g id="node23" class="node">
<title>Node0x563dece7a188</title>
<polygon fill="#ff7f7f" stroke="black" points="2409.5,-612.82 2160.5,-612.82 2160.5,-576.82 2409.5,-576.82 2409.5,-612.82"/>
<text text-anchor="middle" x="2285" y="-591.12" font-family="Times,serif" font-size="14.00">{lib/libLLVMBitstreamReader.a}</text>
</g>
<!-- Node0x563dece791e8&#45;&gt;Node0x563dece7a188 -->
<g id="edge136" class="edge">
<title>Node0x563dece791e8&#45;&gt;Node0x563dece7a188</title>
<path fill="none" stroke="#ff7f7f" d="M1210.7,-224.91C1270,-226.59 1346.58,-233.31 1413,-248.82 1748.13,-327.05 2126.29,-507.22 2245.75,-571.64"/>
<polygon fill="#ff7f7f" stroke="#ff7f7f" points="2244.42,-574.9 2254.88,-576.62 2247.77,-568.76 2244.42,-574.9"/>
</g>
<!-- Node0x563dece796e8&#45;&gt;Node0x563dece79878 -->
<g id="edge138" class="edge">
<title>Node0x563dece796e8&#45;&gt;Node0x563dece79878</title>
<path fill="none" stroke="#ff7f7f" d="M1029.64,-338.4C921.97,-341.2 728.11,-358.3 587,-438.82 464.74,-508.58 347.31,-631.41 299.26,-684.81"/>
<polygon fill="#ff7f7f" stroke="#ff7f7f" points="296.47,-682.68 292.42,-692.47 301.69,-687.34 296.47,-682.68"/>
</g>
<!-- Node0x563dece796e8&#45;&gt;Node0x563dece7bee8 -->
<g id="edge139" class="edge">
<title>Node0x563dece796e8&#45;&gt;Node0x563dece7bee8</title>
<path fill="none" stroke="#ff7f7f" d="M1029.87,-333.83C965.09,-329.98 874.25,-332.25 809,-374.82 738.11,-421.07 703,-520.68 688.86,-569.72"/>
<polygon fill="#ff7f7f" stroke="#ff7f7f" points="685.4,-569.08 686.08,-579.65 692.14,-570.97 685.4,-569.08"/>
</g>
<!-- Node0x563dece796e8&#45;&gt;Node0x563dece7c988 -->
<g id="edge140" class="edge">
<title>Node0x563dece796e8&#45;&gt;Node0x563dece7c988</title>
<path fill="none" stroke="#ff7f7f" d="M1029.92,-321.33C962.03,-311.61 866.75,-310.82 809,-365.82 766.92,-405.9 796.67,-571.75 773,-624.82 758.36,-657.65 730.74,-688.3 709.56,-708.68"/>
<polygon fill="#ff7f7f" stroke="#ff7f7f" points="706.98,-706.31 702.09,-715.71 711.77,-711.41 706.98,-706.31"/>
</g>
<!-- Node0x563dece796e8&#45;&gt;Node0x563dece76128 -->
<g id="edge145" class="edge">
<title>Node0x563dece796e8&#45;&gt;Node0x563dece76128</title>
<path fill="none" stroke="#ff7f7f" d="M1029.98,-334.42C943.47,-331.91 815.47,-335.23 791,-374.82 771.31,-406.67 771.31,-1016.97 791,-1048.82 799.51,-1062.59 820.55,-1071.97 848.02,-1078.25"/>
<polygon fill="#ff7f7f" stroke="#ff7f7f" points="847.49,-1081.71 857.99,-1080.34 848.92,-1074.86 847.49,-1081.71"/>
</g>
<!-- Node0x563dece796e8&#45;&gt;Node0x563dece74b48 -->
<g id="edge143" class="edge">
<title>Node0x563dece796e8&#45;&gt;Node0x563dece74b48</title>
<path fill="none" stroke="#ff7f7f" d="M1029.98,-334.42C943.47,-331.91 815.47,-335.23 791,-374.82 774.47,-401.57 774.47,-914.07 791,-940.82 809.78,-971.2 889.52,-980.22 964.69,-981.64"/>
<polygon fill="#ff7f7f" stroke="#ff7f7f" points="964.73,-985.14 974.78,-981.78 964.83,-978.14 964.73,-985.14"/>
</g>
<!-- Node0x563dece796e8&#45;&gt;Node0x563dece7c488 -->
<g id="edge144" class="edge">
<title>Node0x563dece796e8&#45;&gt;Node0x563dece7c488</title>
<path fill="none" stroke="#ff7f7f" d="M1111,-320.61C1111,-318.13 1111,-315.64 1111,-313.16"/>
<polygon fill="#ff7f7f" stroke="#ff7f7f" points="1114.5,-312.96 1111,-302.96 1107.5,-312.96 1114.5,-312.96"/>
</g>
<!-- Node0x563dece796e8&#45;&gt;Node0x563dece79b98 -->
<g id="edge142" class="edge">
<title>Node0x563dece796e8&#45;&gt;Node0x563dece79b98</title>
<path fill="none" stroke="#ff7f7f" d="M1029.98,-343.21C943.47,-345.73 815.47,-342.41 791,-302.82 767.49,-264.78 765.98,-216.02 809,-203.82 820.18,-200.65 831.67,-197.82 843.34,-195.31"/>
<polygon fill="#ff7f7f" stroke="#ff7f7f" points="844.11,-198.72 853.19,-193.27 842.69,-191.87 844.11,-198.72"/>
</g>
<!-- Node0x563dece796e8&#45;&gt;Node0x563dece75ea8 -->
<g id="edge148" class="edge">
<title>Node0x563dece796e8&#45;&gt;Node0x563dece75ea8</title>
<path fill="none" stroke="#ff7f7f" d="M1029.98,-334.42C943.47,-331.91 815.47,-335.23 791,-374.82 772.13,-405.35 772.13,-667.29 791,-697.82 837.43,-772.94 948.05,-771.08 1026.19,-758.57"/>
<polygon fill="#ff7f7f" stroke="#ff7f7f" points="1027.23,-761.94 1036.5,-756.82 1026.06,-755.04 1027.23,-761.94"/>
</g>
<!-- Node0x563dece796e8&#45;&gt;Node0x563dece74648 -->
<g id="edge146" class="edge">
<title>Node0x563dece796e8&#45;&gt;Node0x563dece74648</title>
<path fill="none" stroke="#ff7f7f" d="M1029.98,-334.42C943.47,-331.91 815.47,-335.23 791,-374.82 777.21,-397.12 777.21,-588.51 791,-610.82 838.78,-688.12 954.89,-681.77 1033.3,-666.83"/>
<polygon fill="#ff7f7f" stroke="#ff7f7f" points="1034.02,-670.26 1043.15,-664.87 1032.66,-663.39 1034.02,-670.26"/>
</g>
<!-- Node0x563dece796e8&#45;&gt;Node0x563dece791e8 -->
<g id="edge141" class="edge">
<title>Node0x563dece796e8&#45;&gt;Node0x563dece791e8</title>
<path fill="none" stroke="#ff7f7f" d="M1029.66,-342.63C941.52,-344.58 810.06,-340.37 785,-299.82 734.29,-217.77 887.89,-213.33 1001.2,-220.2"/>
<polygon fill="#ff7f7f" stroke="#ff7f7f" points="1001.14,-223.71 1011.34,-220.86 1001.59,-216.72 1001.14,-223.71"/>
</g>
<!-- Node0x563dece796e8&#45;&gt;Node0x563dece76e98 -->
<g id="edge149" class="edge">
<title>Node0x563dece796e8&#45;&gt;Node0x563dece76e98</title>
<path fill="none" stroke="#ff7f7f" d="M1029.98,-334.42C943.47,-331.91 815.47,-335.23 791,-374.82 769.74,-409.22 769.74,-1068.41 791,-1102.82 838.78,-1180.12 954.89,-1173.77 1033.3,-1158.83"/>
<polygon fill="#ff7f7f" stroke="#ff7f7f" points="1034.02,-1162.26 1043.15,-1156.87 1032.66,-1155.39 1034.02,-1162.26"/>
</g>
<!-- Node0x563dece79c88 -->
<g id="node24" class="node">
<title>Node0x563dece79c88</title>
<polygon fill="#ff7f7f" stroke="black" points="1815.5,-612.82 1624.5,-612.82 1624.5,-576.82 1815.5,-576.82 1815.5,-612.82"/>
<text text-anchor="middle" x="1720" y="-591.12" font-family="Times,serif" font-size="14.00">{lib/libLLVMRemarks.a}</text>
</g>
<!-- Node0x563dece796e8&#45;&gt;Node0x563dece79c88 -->
<g id="edge147" class="edge">
<title>Node0x563dece796e8&#45;&gt;Node0x563dece79c88</title>
<path fill="none" stroke="#ff7f7f" d="M1192,-322.37C1259.14,-313.53 1353.38,-313.44 1413,-365.82 1468.41,-414.5 1397.49,-475.03 1449,-527.82 1491.64,-571.52 1558,-588.39 1614.26,-594.29"/>
<polygon fill="#ff7f7f" stroke="#ff7f7f" points="1613.99,-597.78 1624.28,-595.23 1614.65,-590.81 1613.99,-597.78"/>
</g>
<!-- Node0x563dece77de8&#45;&gt;Node0x563dece79878 -->
<g id="edge150" class="edge">
<title>Node0x563dece77de8&#45;&gt;Node0x563dece79878</title>
<path fill="none" stroke="#ff7f7f" d="M1011.85,-394.6C952.07,-397.95 874.79,-406.38 809,-426.82 606.51,-489.73 391.39,-630.66 310.15,-686.94"/>
<polygon fill="#ff7f7f" stroke="#ff7f7f" points="308.02,-684.16 301.81,-692.74 312.02,-689.9 308.02,-684.16"/>
</g>
<!-- Node0x563dece77de8&#45;&gt;Node0x563dece7bee8 -->
<g id="edge154" class="edge">
<title>Node0x563dece77de8&#45;&gt;Node0x563dece7bee8</title>
<path fill="none" stroke="#ff7f7f" d="M1011.82,-389.46C949.1,-388.63 868.66,-395.43 809,-433.82 782.53,-450.85 791.04,-469.02 773,-494.82 753.69,-522.43 729.41,-551.79 710.64,-572.24"/>
<polygon fill="#ff7f7f" stroke="#ff7f7f" points="708.02,-569.92 703.74,-579.62 713.13,-574.7 708.02,-569.92"/>
</g>
<!-- Node0x563dece77de8&#45;&gt;Node0x563dece7c988 -->
<g id="edge155" class="edge">
<title>Node0x563dece77de8&#45;&gt;Node0x563dece7c988</title>
<path fill="none" stroke="#ff7f7f" d="M1011.77,-388.21C945.76,-390.62 861.54,-405.26 809,-457.82 755.32,-511.52 806.48,-556.67 773,-624.82 757.15,-657.08 729.69,-687.81 708.89,-708.36"/>
<polygon fill="#ff7f7f" stroke="#ff7f7f" points="706.31,-705.99 701.56,-715.46 711.18,-711.02 706.31,-705.99"/>
</g>
<!-- Node0x563dece77de8&#45;&gt;Node0x563dece76128 -->
<g id="edge153" class="edge">
<title>Node0x563dece77de8&#45;&gt;Node0x563dece76128</title>
<path fill="none" stroke="#ff7f7f" d="M1011.88,-382.89C935.39,-381.51 835.37,-395.03 791,-466.82 774,-494.32 774,-1021.31 791,-1048.82 799.51,-1062.59 820.55,-1071.97 848.02,-1078.25"/>
<polygon fill="#ff7f7f" stroke="#ff7f7f" points="847.49,-1081.71 857.99,-1080.34 848.92,-1074.86 847.49,-1081.71"/>
</g>
<!-- Node0x563dece77de8&#45;&gt;Node0x563dece79b98 -->
<g id="edge151" class="edge">
<title>Node0x563dece77de8&#45;&gt;Node0x563dece79b98</title>
<path fill="none" stroke="#ff7f7f" d="M1043.15,-410.87C964.95,-427.07 840.82,-437.43 791,-356.82 774.18,-329.6 774.18,-240.04 791,-212.82 838.78,-135.52 954.89,-141.87 1033.3,-156.8"/>
<polygon fill="#ff7f7f" stroke="#ff7f7f" points="1032.66,-160.24 1043.15,-158.76 1034.02,-153.38 1032.66,-160.24"/>
</g>
<!-- Node0x563dece77de8&#45;&gt;Node0x563dece75ea8 -->
<g id="edge152" class="edge">
<title>Node0x563dece77de8&#45;&gt;Node0x563dece75ea8</title>
<path fill="none" stroke="#ff7f7f" d="M1011.88,-382.89C935.39,-381.51 835.37,-395.03 791,-466.82 777.51,-488.65 777.51,-675.98 791,-697.82 837.43,-772.94 948.05,-771.08 1026.19,-758.57"/>
<polygon fill="#ff7f7f" stroke="#ff7f7f" points="1027.23,-761.94 1036.5,-756.82 1026.06,-755.04 1027.23,-761.94"/>
</g>
<!-- Node0x563dece77de8&#45;&gt;Node0x563dece78ce8 -->
<g id="edge156" class="edge">
<title>Node0x563dece77de8&#45;&gt;Node0x563dece78ce8</title>
<path fill="none" stroke="#ff7f7f" d="M1063.97,-410.97C1030.87,-427.9 1027.96,-444.84 1055.24,-461.77"/>
<polygon fill="#ff7f7f" stroke="#ff7f7f" points="1053.77,-464.96 1064.2,-466.79 1057.18,-458.85 1053.77,-464.96"/>
</g>
<!-- Node0x563dece77de8&#45;&gt;Node0x563dece796e8 -->
<g id="edge157" class="edge">
<title>Node0x563dece77de8&#45;&gt;Node0x563dece796e8</title>
<path fill="none" stroke="#ff7f7f" d="M1111,-374.61C1111,-372.13 1111,-369.64 1111,-367.16"/>
<polygon fill="#ff7f7f" stroke="#ff7f7f" points="1114.5,-366.96 1111,-356.96 1107.5,-366.96 1114.5,-366.96"/>
</g>
<!-- Node0x563dece7a368&#45;&gt;Node0x563dece7bee8 -->
<g id="edge69" class="edge">
<title>Node0x563dece7a368&#45;&gt;Node0x563dece7bee8</title>
<path fill="none" stroke="#ff7f7f" d="M953.18,-556.85C906.59,-561.29 855.56,-566.96 809,-574.82 798.82,-576.54 788.25,-578.64 777.75,-580.9"/>
<polygon fill="#ff7f7f" stroke="#ff7f7f" points="776.74,-577.54 767.72,-583.1 778.23,-584.37 776.74,-577.54"/>
</g>
<!-- Node0x563dece7a368&#45;&gt;Node0x563dece7c988 -->
<g id="edge70" class="edge">
<title>Node0x563dece7a368&#45;&gt;Node0x563dece7c988</title>
<path fill="none" stroke="#ff7f7f" d="M829.39,-554.67C822.39,-558.03 815.57,-561.73 809,-565.82 782.91,-582.04 790.96,-599.9 773,-624.82 751.47,-654.7 723.9,-686.65 704.58,-708.18"/>
<polygon fill="#ff7f7f" stroke="#ff7f7f" points="701.97,-705.85 697.86,-715.62 707.16,-710.55 701.97,-705.85"/>
</g>
<!-- Node0x563dece77348&#45;&gt;Node0x563dece79878 -->
<g id="edge159" class="edge">
<title>Node0x563dece77348&#45;&gt;Node0x563dece79878</title>
<path fill="none" stroke="#ff7f7f" d="M1018.79,-1028.98C958.59,-1026.22 878.32,-1019.58 809,-1003.82 706.29,-980.46 680.62,-969.11 587,-920.82 478.02,-864.61 361.26,-777.38 307.21,-735.24"/>
<polygon fill="#ff7f7f" stroke="#ff7f7f" points="309.11,-732.29 299.08,-728.88 304.8,-737.8 309.11,-732.29"/>
</g>
<!-- Node0x563dece77348&#45;&gt;Node0x563dece7bee8 -->
<g id="edge160" class="edge">
<title>Node0x563dece77348&#45;&gt;Node0x563dece7bee8</title>
<path fill="none" stroke="#ff7f7f" d="M1062.15,-1048.83C995.72,-1065.45 876.15,-1077.91 809,-1012.82 761.26,-966.55 799.55,-776.77 773,-715.82 757.08,-679.26 724.79,-645.57 703.02,-623.36"/>
<polygon fill="#ff7f7f" stroke="#ff7f7f" points="705.3,-620.69 695.8,-616 700.3,-625.59 705.3,-620.69"/>
</g>
<!-- Node0x563dece77348&#45;&gt;Node0x563dece7c988 -->
<g id="edge158" class="edge">
<title>Node0x563dece77348&#45;&gt;Node0x563dece7c988</title>
<path fill="none" stroke="#ff7f7f" d="M1018.75,-1045.01C954.53,-1050 869.58,-1046.05 809,-1003.82 787.34,-988.72 719.2,-826.93 692.19,-761.27"/>
<polygon fill="#ff7f7f" stroke="#ff7f7f" points="695.4,-759.88 688.37,-751.95 688.92,-762.53 695.4,-759.88"/>
</g>
<!-- Node0x563dece77348&#45;&gt;Node0x563dece74b48 -->
<g id="edge164" class="edge">
<title>Node0x563dece77348&#45;&gt;Node0x563dece74b48</title>
<path fill="none" stroke="#ff7f7f" d="M1111,-1012.61C1111,-1010.13 1111,-1007.64 1111,-1005.16"/>
<polygon fill="#ff7f7f" stroke="#ff7f7f" points="1114.5,-1004.96 1111,-994.96 1107.5,-1004.96 1114.5,-1004.96"/>
</g>
<!-- Node0x563dece77348&#45;&gt;Node0x563dece7c488 -->
<g id="edge161" class="edge">
<title>Node0x563dece77348&#45;&gt;Node0x563dece7c488</title>
<path fill="none" stroke="#ff7f7f" d="M1018.86,-1035.5C932.89,-1037.39 814.44,-1032.74 791,-994.82 771.31,-962.97 771.31,-352.67 791,-320.82 811.65,-287.41 906.01,-279.83 986.96,-279.79"/>
<polygon fill="#ff7f7f" stroke="#ff7f7f" points="987.25,-283.29 997.26,-279.82 987.27,-276.29 987.25,-283.29"/>
</g>
<!-- Node0x563dece77348&#45;&gt;Node0x563dece75ea8 -->
<g id="edge165" class="edge">
<title>Node0x563dece77348&#45;&gt;Node0x563dece75ea8</title>
<path fill="none" stroke="#ff7f7f" d="M1018.86,-1035.5C932.89,-1037.39 814.44,-1032.74 791,-994.82 778.15,-974.02 778.15,-795.61 791,-774.82 838.78,-697.52 954.89,-703.87 1033.3,-718.8"/>
<polygon fill="#ff7f7f" stroke="#ff7f7f" points="1032.66,-722.24 1043.15,-720.76 1034.02,-715.38 1032.66,-722.24"/>
</g>
<!-- Node0x563dece77348&#45;&gt;Node0x563dece7a278 -->
<g id="edge163" class="edge">
<title>Node0x563dece77348&#45;&gt;Node0x563dece7a278</title>
<path fill="none" stroke="#ff7f7f" d="M1018.86,-1035.5C932.89,-1037.39 814.44,-1032.74 791,-994.82 769.62,-960.23 769.62,-663.41 791,-628.82 794.01,-623.95 798.57,-619.64 804.44,-615.81"/>
<polygon fill="#ff7f7f" stroke="#ff7f7f" points="806.19,-618.84 813.21,-610.9 802.77,-612.73 806.19,-618.84"/>
</g>
<!-- Node0x563dece77348&#45;&gt;Node0x563dece79c88 -->
<g id="edge162" class="edge">
<title>Node0x563dece77348&#45;&gt;Node0x563dece79c88</title>
<path fill="none" stroke="#ff7f7f" d="M1194.65,-1048.86C1262.5,-1058.4 1356.34,-1058.63 1413,-1003.82 1506.98,-912.9 1370.67,-816.52 1449,-711.82 1488.42,-659.13 1556.51,-629.84 1614.46,-613.75"/>
<polygon fill="#ff7f7f" stroke="#ff7f7f" points="1615.65,-617.05 1624.4,-611.08 1613.84,-610.29 1615.65,-617.05"/>
</g>
<!-- Node0x563dece79be8&#45;&gt;Node0x563dece79878 -->
<g id="edge114" class="edge">
<title>Node0x563dece79be8&#45;&gt;Node0x563dece79878</title>
<path fill="none" stroke="#ff7f7f" d="M848.86,-781.91C765.08,-777.05 671.99,-770.24 587,-760.82 518.9,-753.27 442.95,-741.11 383.22,-730.67"/>
<polygon fill="#ff7f7f" stroke="#ff7f7f" points="383.47,-727.16 373.02,-728.87 382.26,-734.05 383.47,-727.16"/>
</g>
<!-- Node0x563dece79be8&#45;&gt;Node0x563dece7bee8 -->
<g id="edge119" class="edge">
<title>Node0x563dece79be8&#45;&gt;Node0x563dece7bee8</title>
<path fill="none" stroke="#ff7f7f" d="M1036.46,-810.85C971.68,-818.57 877.29,-817.27 809,-774.82 782.91,-758.6 790.96,-740.74 773,-715.82 749.3,-682.93 718.29,-647.53 699.01,-623.93"/>
<polygon fill="#ff7f7f" stroke="#ff7f7f" points="701.71,-621.7 692.71,-616.1 696.25,-626.08 701.71,-621.7"/>
</g>
<!-- Node0x563dece79be8&#45;&gt;Node0x563dece7c988 -->
<g id="edge120" class="edge">
<title>Node0x563dece79be8&#45;&gt;Node0x563dece7c988</title>
<path fill="none" stroke="#ff7f7f" d="M870.91,-774.8C849.92,-772.18 829.05,-769.2 809,-765.82 791.18,-762.81 772.19,-758.62 754.44,-754.26"/>
<polygon fill="#ff7f7f" stroke="#ff7f7f" points="755.27,-750.86 744.72,-751.82 753.57,-757.65 755.27,-750.86"/>
</g>
<!-- Node0x563dece79be8&#45;&gt;Node0x563dece76128 -->
<g id="edge117" class="edge">
<title>Node0x563dece79be8&#45;&gt;Node0x563dece76128</title>
<path fill="none" stroke="#ff7f7f" d="M934.82,-810.83C876.05,-826.63 817.34,-855.49 785,-907.82 776.94,-920.86 776.94,-1032.77 785,-1045.82 794.16,-1060.64 817.54,-1070.61 847.82,-1077.19"/>
<polygon fill="#ff7f7f" stroke="#ff7f7f" points="847.39,-1080.67 857.88,-1079.21 848.77,-1073.81 847.39,-1080.67"/>
</g>
<!-- Node0x563dece79be8&#45;&gt;Node0x563dece79b98 -->
<g id="edge115" class="edge">
<title>Node0x563dece79be8&#45;&gt;Node0x563dece79b98</title>
<path fill="none" stroke="#ff7f7f" d="M1043.15,-810.87C964.95,-827.07 840.82,-837.43 791,-756.82 775.11,-731.11 775.11,-238.53 791,-212.82 838.78,-135.52 954.89,-141.87 1033.3,-156.8"/>
<polygon fill="#ff7f7f" stroke="#ff7f7f" points="1032.66,-160.24 1043.15,-158.76 1034.02,-153.38 1032.66,-160.24"/>
</g>
<!-- Node0x563dece79be8&#45;&gt;Node0x563dece75ea8 -->
<g id="edge116" class="edge">
<title>Node0x563dece79be8&#45;&gt;Node0x563dece75ea8</title>
<path fill="none" stroke="#ff7f7f" d="M1111,-774.61C1111,-772.13 1111,-769.64 1111,-767.16"/>
<polygon fill="#ff7f7f" stroke="#ff7f7f" points="1114.5,-766.96 1111,-756.96 1107.5,-766.96 1114.5,-766.96"/>
</g>
<!-- Node0x563dece79be8&#45;&gt;Node0x563dece76e98 -->
<g id="edge118" class="edge">
<title>Node0x563dece79be8&#45;&gt;Node0x563dece76e98</title>
<path fill="none" stroke="#ff7f7f" d="M934.65,-810.89C878.1,-826.43 822.1,-854.5 791,-904.82 767.87,-942.25 767.87,-1065.39 791,-1102.82 838.78,-1180.12 954.89,-1173.77 1033.3,-1158.83"/>
<polygon fill="#ff7f7f" stroke="#ff7f7f" points="1034.02,-1162.26 1043.15,-1156.87 1032.66,-1155.39 1034.02,-1162.26"/>
</g>
<!-- Node0x563dece76c68&#45;&gt;Node0x563dece79878 -->
<g id="edge95" class="edge">
<title>Node0x563dece76c68&#45;&gt;Node0x563dece79878</title>
<path fill="none" stroke="#ff7f7f" d="M876.69,-904.78C853.66,-900.98 830.77,-896.38 809,-890.82 792.21,-886.52 789.24,-881.89 773,-875.82 621.86,-819.3 441.39,-761.77 345.08,-731.84"/>
<polygon fill="#ff7f7f" stroke="#ff7f7f" points="346.05,-728.48 335.46,-728.86 343.98,-735.16 346.05,-728.48"/>
</g>
<!-- Node0x563dece76c68&#45;&gt;Node0x563dece7bee8 -->
<g id="edge100" class="edge">
<title>Node0x563dece76c68&#45;&gt;Node0x563dece7bee8</title>
<path fill="none" stroke="#ff7f7f" d="M977.09,-904.81C918.69,-890.6 853.43,-865.21 809,-819.82 772.13,-782.15 798.49,-752.96 773,-706.82 755.51,-675.16 728.03,-644.14 707.65,-623.34"/>
<polygon fill="#ff7f7f" stroke="#ff7f7f" points="710.03,-620.77 700.5,-616.16 705.07,-625.71 710.03,-620.77"/>
</g>
<!-- Node0x563dece76c68&#45;&gt;Node0x563dece7c988 -->
<g id="edge101" class="edge">
<title>Node0x563dece76c68&#45;&gt;Node0x563dece7c988</title>
<path fill="none" stroke="#ff7f7f" d="M1034.79,-940.82C969.37,-948.12 874.95,-945.58 809,-899.82 779.6,-879.42 794.49,-856.42 773,-827.82 753.17,-801.42 724.49,-776.43 704.45,-758.59"/>
<polygon fill="#ff7f7f" stroke="#ff7f7f" points="706.74,-755.95 696.96,-751.88 702.07,-761.16 706.74,-755.95"/>
</g>
<!-- Node0x563dece76c68&#45;&gt;Node0x563dece76128 -->
<g id="edge98" class="edge">
<title>Node0x563dece76c68&#45;&gt;Node0x563dece76128</title>
<path fill="none" stroke="#ff7f7f" d="M848.8,-940.16C835.25,-942.95 821.91,-946.16 809,-949.82 797.53,-953.07 791.27,-951.67 785,-961.82 775.19,-977.7 775.19,-1029.94 785,-1045.82 794.16,-1060.64 817.54,-1070.61 847.82,-1077.19"/>
<polygon fill="#ff7f7f" stroke="#ff7f7f" points="847.39,-1080.67 857.88,-1079.21 848.77,-1073.81 847.39,-1080.67"/>
</g>
<!-- Node0x563dece76c68&#45;&gt;Node0x563dece79b98 -->
<g id="edge96" class="edge">
<title>Node0x563dece76c68&#45;&gt;Node0x563dece79b98</title>
<path fill="none" stroke="#ff7f7f" d="M1036.5,-940.82C958.12,-954.76 839.51,-960.31 791,-881.82 771.46,-850.2 771.46,-244.43 791,-212.82 838.78,-135.52 954.89,-141.87 1033.3,-156.8"/>
<polygon fill="#ff7f7f" stroke="#ff7f7f" points="1032.66,-160.24 1043.15,-158.76 1034.02,-153.38 1032.66,-160.24"/>
</g>
<!-- Node0x563dece76c68&#45;&gt;Node0x563dece75ea8 -->
<g id="edge97" class="edge">
<title>Node0x563dece76c68&#45;&gt;Node0x563dece75ea8</title>
<path fill="none" stroke="#ff7f7f" d="M1036.5,-940.82C958.12,-954.76 839.51,-960.31 791,-881.82 778.5,-861.59 778.5,-795.04 791,-774.82 838.78,-697.52 954.89,-703.87 1033.3,-718.8"/>
<polygon fill="#ff7f7f" stroke="#ff7f7f" points="1032.66,-722.24 1043.15,-720.76 1034.02,-715.38 1032.66,-722.24"/>
</g>
<!-- Node0x563dece76c68&#45;&gt;Node0x563dece76e98 -->
<g id="edge99" class="edge">
<title>Node0x563dece76c68&#45;&gt;Node0x563dece76e98</title>
<path fill="none" stroke="#ff7f7f" d="M1043.15,-904.76C964.95,-888.56 840.82,-878.21 791,-958.82 774.18,-986.04 774.18,-1075.6 791,-1102.82 838.78,-1180.12 954.89,-1173.77 1033.3,-1158.83"/>
<polygon fill="#ff7f7f" stroke="#ff7f7f" points="1034.02,-1162.26 1043.15,-1156.87 1032.66,-1155.39 1034.02,-1162.26"/>
</g>
<!-- Node0x563dece76e98&#45;&gt;Node0x563dece79878 -->
<g id="edge49" class="edge">
<title>Node0x563dece76e98&#45;&gt;Node0x563dece79878</title>
<path fill="none" stroke="#ff7f7f" d="M861.85,-1122.37C843.86,-1119.41 826.09,-1115.92 809,-1111.82 705.63,-1087.03 675.65,-1081.48 587,-1022.82 459.44,-938.41 341.54,-795.27 296.17,-736.83"/>
<polygon fill="#ff7f7f" stroke="#ff7f7f" points="298.89,-734.62 290.01,-728.84 293.34,-738.9 298.89,-734.62"/>
</g>
<!-- Node0x563dece76e98&#45;&gt;Node0x563dece7bee8 -->
<g id="edge53" class="edge">
<title>Node0x563dece76e98&#45;&gt;Node0x563dece7bee8</title>
<path fill="none" stroke="#ff7f7f" d="M1030.25,-1156.85C961.86,-1167.16 865.65,-1168.51 809,-1111.82 745.14,-1047.9 807.76,-790.22 773,-706.82 759.26,-673.84 731.78,-643.41 710.42,-623.13"/>
<polygon fill="#ff7f7f" stroke="#ff7f7f" points="712.58,-620.36 702.86,-616.14 707.82,-625.5 712.58,-620.36"/>
</g>
<!-- Node0x563dece76e98&#45;&gt;Node0x563dece7c988 -->
<g id="edge54" class="edge">
<title>Node0x563dece76e98&#45;&gt;Node0x563dece7c988</title>
<path fill="none" stroke="#ff7f7f" d="M1054.35,-1156.82C988.5,-1169.81 878.98,-1175.91 809,-1120.82 695.08,-1031.14 681.87,-835.5 680.85,-762.14"/>
<polygon fill="#ff7f7f" stroke="#ff7f7f" points="684.35,-761.81 680.78,-751.84 677.35,-761.86 684.35,-761.81"/>
</g>
<!-- Node0x563dece76e98&#45;&gt;Node0x563dece76128 -->
<g id="edge52" class="edge">
<title>Node0x563dece76e98&#45;&gt;Node0x563dece76128</title>
<path fill="none" stroke="#ff7f7f" d="M942.09,-1120.77C918.19,-1115.63 914.85,-1110.5 932.07,-1105.37"/>
<polygon fill="#ff7f7f" stroke="#ff7f7f" points="933.31,-1108.67 942.17,-1102.85 931.62,-1101.88 933.31,-1108.67"/>
</g>
<!-- Node0x563dece76e98&#45;&gt;Node0x563dece79b98 -->
<g id="edge50" class="edge">
<title>Node0x563dece76e98&#45;&gt;Node0x563dece79b98</title>
<path fill="none" stroke="#ff7f7f" d="M1040.83,-1156.83C961.12,-1172.54 835.57,-1181.64 785,-1099.82 772.09,-1078.93 772.09,-236.71 785,-215.82 833.5,-137.35 950.95,-142.5 1030.8,-156.91"/>
<polygon fill="#ff7f7f" stroke="#ff7f7f" points="1030.36,-160.39 1040.83,-158.81 1031.65,-153.51 1030.36,-160.39"/>
</g>
<!-- Node0x563dece76e98&#45;&gt;Node0x563dece75ea8 -->
<g id="edge51" class="edge">
<title>Node0x563dece76e98&#45;&gt;Node0x563dece75ea8</title>
<path fill="none" stroke="#ff7f7f" d="M1045.76,-1156.84C969.1,-1173.56 846.13,-1185.32 797,-1105.82 787.24,-1090.03 787.24,-787.6 797,-771.82 844.02,-695.73 958.67,-703.23 1035.63,-718.68"/>
<polygon fill="#ff7f7f" stroke="#ff7f7f" points="1035.26,-722.17 1045.76,-720.8 1036.69,-715.32 1035.26,-722.17"/>
</g>
<!-- Node0x563dece78658&#45;&gt;Node0x563dece79878 -->
<g id="edge55" class="edge">
<title>Node0x563dece78658&#45;&gt;Node0x563dece79878</title>
<path fill="none" stroke="#ff7f7f" d="M1709.67,-849C1677.95,-908.53 1567.6,-1097.65 1413,-1165.82 1167.38,-1274.13 1072.48,-1217.2 809,-1165.82 704.5,-1145.44 673.31,-1138.16 587,-1075.82 449.48,-976.49 334.04,-803.82 292.75,-737.67"/>
<polygon fill="#ff7f7f" stroke="#ff7f7f" points="295.66,-735.72 287.43,-729.06 289.71,-739.4 295.66,-735.72"/>
</g>
<!-- Node0x563dece78658&#45;&gt;Node0x563dece7bee8 -->
<g id="edge60" class="edge">
<title>Node0x563dece78658&#45;&gt;Node0x563dece7bee8</title>
<path fill="none" stroke="#ff7f7f" d="M1519.96,-812.79C1493.01,-802.41 1468.11,-787.37 1449,-765.82 1403.28,-714.26 1464.48,-503.63 1413,-457.82 1362.87,-413.2 870.41,-430.76 809,-457.82 781.87,-469.77 729.58,-534.17 700.94,-571.33"/>
<polygon fill="#ff7f7f" stroke="#ff7f7f" points="697.84,-569.63 694.54,-579.7 703.4,-573.88 697.84,-569.63"/>
</g>
<!-- Node0x563dece78658&#45;&gt;Node0x563dece7c988 -->
<g id="edge61" class="edge">
<title>Node0x563dece78658&#45;&gt;Node0x563dece7c988</title>
<path fill="none" stroke="#ff7f7f" d="M1448.89,-844.46C1224.44,-852.69 923.93,-855.6 809,-819.82 769.96,-807.66 731.94,-779.4 707.62,-758.58"/>
<polygon fill="#ff7f7f" stroke="#ff7f7f" points="709.75,-755.79 699.92,-751.83 705.14,-761.05 709.75,-755.79"/>
</g>
<!-- Node0x563dece78658&#45;&gt;Node0x563dece76128 -->
<g id="edge58" class="edge">
<title>Node0x563dece78658&#45;&gt;Node0x563dece76128</title>
<path fill="none" stroke="#ff7f7f" d="M1693.9,-848.99C1646,-883.73 1538.37,-962.15 1449,-1029.82 1432.84,-1042.05 1431.86,-1050.39 1413,-1057.82 1400.43,-1062.77 1387.34,-1067 1373.97,-1070.6"/>
<polygon fill="#ff7f7f" stroke="#ff7f7f" points="1373,-1067.23 1364.19,-1073.11 1374.74,-1074.01 1373,-1067.23"/>
</g>
<!-- Node0x563dece78658&#45;&gt;Node0x563dece79b98 -->
<g id="edge56" class="edge">
<title>Node0x563dece78658&#45;&gt;Node0x563dece79b98</title>
<path fill="none" stroke="#ff7f7f" d="M1497.32,-812.78C1479.02,-803.2 1462.42,-790.78 1449,-774.82 1368.45,-679.04 1500.36,-302.43 1413,-212.82 1402.51,-202.06 1390.6,-193.37 1377.72,-186.41"/>
<polygon fill="#ff7f7f" stroke="#ff7f7f" points="1379.16,-183.21 1368.65,-181.86 1376.02,-189.47 1379.16,-183.21"/>
</g>
<!-- Node0x563dece78658&#45;&gt;Node0x563dece75ea8 -->
<g id="edge57" class="edge">
<title>Node0x563dece78658&#45;&gt;Node0x563dece75ea8</title>
<path fill="none" stroke="#ff7f7f" d="M1485.88,-812.78C1473.18,-808.85 1460.8,-804.23 1449,-798.82 1429.27,-789.77 1432.86,-774.58 1413,-765.82 1400.03,-760.09 1386.45,-755.28 1372.53,-751.24"/>
<polygon fill="#ff7f7f" stroke="#ff7f7f" points="1373.41,-747.85 1362.84,-748.57 1371.55,-754.6 1373.41,-747.85"/>
</g>
<!-- Node0x563dece78658&#45;&gt;Node0x563dece77bb8 -->
<g id="edge59" class="edge">
<title>Node0x563dece78658&#45;&gt;Node0x563dece77bb8</title>
<path fill="none" stroke="#ff7f7f" d="M1801.07,-848.88C1904.84,-872.29 2085.31,-913 2193.81,-937.47"/>
<polygon fill="#ff7f7f" stroke="#ff7f7f" points="2193.23,-940.93 2203.75,-939.72 2194.77,-934.1 2193.23,-940.93"/>
</g>
<!-- Node0x563dece77bb8&#45;&gt;Node0x563dece79878 -->
<g id="edge102" class="edge">
<title>Node0x563dece77bb8&#45;&gt;Node0x563dece79878</title>
<path fill="none" stroke="#ff7f7f" d="M2266.21,-975.96C2223.43,-1018.25 2109.52,-1123 1991,-1165.82 1496.57,-1344.43 1327.04,-1299.24 809,-1209.82 705.8,-1192 671.12,-1193.2 587,-1130.82 435.73,-1018.65 325.55,-812.07 289.34,-738.08"/>
<polygon fill="#ff7f7f" stroke="#ff7f7f" points="292.43,-736.41 284.92,-728.93 286.12,-739.46 292.43,-736.41"/>
</g>
<!-- Node0x563dece77bb8&#45;&gt;Node0x563dece7bee8 -->
<g id="edge108" class="edge">
<title>Node0x563dece77bb8&#45;&gt;Node0x563dece7bee8</title>
<path fill="none" stroke="#ff7f7f" d="M2263.5,-939.52C2212.6,-892.66 2080.68,-762.08 2027,-621.82 1990.35,-526.06 2065.55,-232.21 1991,-161.82 1895.5,-71.65 913.86,-70.73 809,-149.82 739.96,-201.89 696.96,-479.48 684.66,-569.57"/>
<polygon fill="#ff7f7f" stroke="#ff7f7f" points="681.17,-569.22 683.31,-579.6 688.11,-570.15 681.17,-569.22"/>
</g>
<!-- Node0x563dece77bb8&#45;&gt;Node0x563dece7c988 -->
<g id="edge110" class="edge">
<title>Node0x563dece77bb8&#45;&gt;Node0x563dece7c988</title>
<path fill="none" stroke="#ff7f7f" d="M2254.49,-975.82C2203.04,-1006.27 2092.7,-1067.48 1991,-1096.82 1738.2,-1169.76 1019.83,-1323.24 809,-1165.82 742.21,-1115.95 697.92,-849.73 684.95,-761.93"/>
<polygon fill="#ff7f7f" stroke="#ff7f7f" points="688.4,-761.3 683.49,-751.91 681.47,-762.31 688.4,-761.3"/>
</g>
<!-- Node0x563dece77bb8&#45;&gt;Node0x563dece76128 -->
<g id="edge105" class="edge">
<title>Node0x563dece77bb8&#45;&gt;Node0x563dece76128</title>
<path fill="none" stroke="#ff7f7f" d="M2183.17,-975.86C2021.02,-998.98 1692.18,-1038.27 1413,-1066.82 1400.31,-1068.12 1387.32,-1069.41 1374.2,-1070.68"/>
<polygon fill="#ff7f7f" stroke="#ff7f7f" points="1373.76,-1067.21 1364.14,-1071.65 1374.43,-1074.18 1373.76,-1067.21"/>
</g>
<!-- Node0x563dece77bb8&#45;&gt;Node0x563dece7c488 -->
<g id="edge109" class="edge">
<title>Node0x563dece77bb8&#45;&gt;Node0x563dece7c488</title>
<path fill="none" stroke="#ff7f7f" d="M2269.36,-939.56C2229.42,-889.54 2115.6,-745.8 2027,-621.82 2010.23,-598.35 2013.89,-585.37 1991,-567.82 1789.25,-413.1 1640.29,-552.3 1449,-384.82 1421.78,-360.99 1442.84,-332.28 1413,-311.82 1361.66,-276.62 1293.27,-268.24 1234.64,-269.39"/>
<polygon fill="#ff7f7f" stroke="#ff7f7f" points="1234.47,-265.9 1224.57,-269.68 1234.67,-272.89 1234.47,-265.9"/>
</g>
<!-- Node0x563dece77bb8&#45;&gt;Node0x563dece79b98 -->
<g id="edge103" class="edge">
<title>Node0x563dece77bb8&#45;&gt;Node0x563dece79b98</title>
<path fill="none" stroke="#ff7f7f" d="M2264.46,-939.63C2215.2,-892.51 2085.71,-760.45 2027,-621.82 1984.76,-522.09 2061.67,-462.88 1991,-380.82 1842.21,-208.05 1578.49,-165.79 1378.61,-161.49"/>
<polygon fill="#ff7f7f" stroke="#ff7f7f" points="1378.61,-157.99 1368.55,-161.3 1378.48,-164.99 1378.61,-157.99"/>
</g>
<!-- Node0x563dece77bb8&#45;&gt;Node0x563dece75ea8 -->
<g id="edge104" class="edge">
<title>Node0x563dece77bb8&#45;&gt;Node0x563dece75ea8</title>
<path fill="none" stroke="#ff7f7f" d="M2258.5,-939.68C2209.46,-905.9 2097.41,-834.07 1991,-803.82 1758.72,-737.79 1689.8,-783.91 1449,-765.82 1414.76,-763.25 1378.57,-760.44 1343.11,-757.64"/>
<polygon fill="#ff7f7f" stroke="#ff7f7f" points="1343.38,-754.15 1333.13,-756.85 1342.82,-761.13 1343.38,-754.15"/>
</g>
<!-- Node0x563dece77bb8&#45;&gt;Node0x563dece76c68 -->
<g id="edge106" class="edge">
<title>Node0x563dece77bb8&#45;&gt;Node0x563dece76c68</title>
<path fill="none" stroke="#ff7f7f" d="M2026.86,-950.14C1836.29,-944.45 1577.1,-936.71 1383.25,-930.92"/>
<polygon fill="#ff7f7f" stroke="#ff7f7f" points="1383.3,-927.42 1373.2,-930.62 1383.09,-934.42 1383.3,-927.42"/>
</g>
<!-- Node0x563dece77bb8&#45;&gt;Node0x563dece76e98 -->
<g id="edge107" class="edge">
<title>Node0x563dece77bb8&#45;&gt;Node0x563dece76e98</title>
<path fill="none" stroke="#ff7f7f" d="M2234.69,-975.83C2177.03,-996.18 2078.34,-1028.8 1991,-1046.82 1784.62,-1089.39 1546.71,-1112.76 1370.48,-1125.28"/>
<polygon fill="#ff7f7f" stroke="#ff7f7f" points="1370.02,-1121.81 1360.29,-1126 1370.51,-1128.79 1370.02,-1121.81"/>
</g>
<!-- Node0x563dece7a188&#45;&gt;Node0x563dece79878 -->
<g id="edge166" class="edge">
<title>Node0x563dece7a188&#45;&gt;Node0x563dece79878</title>
<path fill="none" stroke="#ff7f7f" d="M2280.24,-576.67C2263.28,-500.13 2186.12,-202.42 1991,-89.82 1763.5,41.47 1069.6,-55.9 809,-88.82 707.94,-101.59 667.49,-83.38 587,-145.82 397.11,-293.14 307.32,-590.82 283.3,-682.98"/>
<polygon fill="#ff7f7f" stroke="#ff7f7f" points="279.9,-682.14 280.82,-692.7 286.69,-683.88 279.9,-682.14"/>
</g>
<!-- Node0x563dece7a188&#45;&gt;Node0x563dece7c988 -->
<g id="edge169" class="edge">
<title>Node0x563dece7a188&#45;&gt;Node0x563dece7c988</title>
<path fill="none" stroke="#ff7f7f" d="M2271.49,-612.99C2235.28,-663.76 2124.41,-806.72 1991,-857.82 1868.35,-904.79 928.9,-901.43 809,-847.82 787.47,-838.19 790.18,-824.98 773,-808.82 753.99,-790.95 731.28,-772.41 713.18,-758.23"/>
<polygon fill="#ff7f7f" stroke="#ff7f7f" points="715.26,-755.42 705.22,-752.04 710.97,-760.94 715.26,-755.42"/>
</g>
<!-- Node0x563dece7a188&#45;&gt;Node0x563dece75ea8 -->
<g id="edge167" class="edge">
<title>Node0x563dece7a188&#45;&gt;Node0x563dece75ea8</title>
<path fill="none" stroke="#ff7f7f" d="M2187.57,-612.83C2130.53,-623.09 2056.81,-635.68 1991,-644.82 1764.04,-676.33 1502.83,-703.05 1324.52,-719.86"/>
<polygon fill="#ff7f7f" stroke="#ff7f7f" points="1324.12,-716.38 1314.49,-720.81 1324.78,-723.35 1324.12,-716.38"/>
</g>
<!-- Node0x563dece7a188&#45;&gt;Node0x563dece74648 -->
<g id="edge168" class="edge">
<title>Node0x563dece7a188&#45;&gt;Node0x563dece74648</title>
<path fill="none" stroke="#ff7f7f" d="M2160.46,-607.96C2108.23,-613.05 2046.71,-618.46 1991,-621.82 1728.78,-637.61 1421.94,-643.47 1248.93,-645.61"/>
<polygon fill="#ff7f7f" stroke="#ff7f7f" points="1248.71,-642.11 1238.75,-645.74 1248.79,-649.11 1248.71,-642.11"/>
</g>
<!-- Node0x563dece7a188&#45;&gt;Node0x563dece791e8 -->
<g id="edge170" class="edge">
<title>Node0x563dece7a188&#45;&gt;Node0x563dece791e8</title>
<path fill="none" stroke="#ff7f7f" d="M2240.07,-576.8C2114.71,-519.72 1743,-343.85 1413,-266.82 1350.34,-252.19 1278.64,-245.38 1220.94,-241.27"/>
<polygon fill="#ff7f7f" stroke="#ff7f7f" points="1220.92,-237.76 1210.7,-240.56 1220.43,-244.74 1220.92,-237.76"/>
</g>
<!-- Node0x563dece7a188&#45;&gt;Node0x563dece79c88 -->
<g id="edge171" class="edge">
<title>Node0x563dece7a188&#45;&gt;Node0x563dece79c88</title>
<path fill="none" stroke="#ff7f7f" d="M2160.48,-600.52C2060.26,-602.01 1920.53,-601.91 1825.73,-600.21"/>
<polygon fill="#ff7f7f" stroke="#ff7f7f" points="1825.62,-596.71 1815.55,-600.02 1825.48,-603.7 1825.62,-596.71"/>
</g>
<!-- Node0x563dece79c88&#45;&gt;Node0x563dece79878 -->
<g id="edge177" class="edge">
<title>Node0x563dece79c88&#45;&gt;Node0x563dece79878</title>
<path fill="none" stroke="#ff7f7f" d="M1713.38,-576.59C1690.33,-505.47 1595.56,-245.84 1413,-149.82 1175.41,-24.86 1076.58,-128.26 809,-149.82 709.37,-157.84 669.57,-129.48 587,-185.82 399.99,-313.41 308.79,-594.03 283.79,-683.11"/>
<polygon fill="#ff7f7f" stroke="#ff7f7f" points="280.41,-682.2 281.13,-692.77 287.16,-684.05 280.41,-682.2"/>
</g>
<!-- Node0x563dece79c88&#45;&gt;Node0x563dece7c988 -->
<g id="edge173" class="edge">
<title>Node0x563dece79c88&#45;&gt;Node0x563dece7c988</title>
<path fill="none" stroke="#ff7f7f" d="M1662.44,-612.87C1601.53,-631.5 1501.46,-659.75 1413,-673.82 1147.36,-716.07 1076.15,-680.55 809,-711.82 800.54,-712.81 791.79,-713.99 783.02,-715.27"/>
<polygon fill="#ff7f7f" stroke="#ff7f7f" points="782.48,-711.81 773.12,-716.77 783.53,-718.74 782.48,-711.81"/>
</g>
<!-- Node0x563dece79c88&#45;&gt;Node0x563dece76128 -->
<g id="edge176" class="edge">
<title>Node0x563dece79c88&#45;&gt;Node0x563dece76128</title>
<path fill="none" stroke="#ff7f7f" d="M1624.39,-610.74C1564.26,-626.06 1490.24,-655.59 1449,-711.82 1403.28,-774.16 1468.05,-1003.55 1413,-1057.82 1359.07,-1110.99 1270.27,-1112.78 1203.06,-1104.23"/>
<polygon fill="#ff7f7f" stroke="#ff7f7f" points="1203.27,-1100.73 1192.89,-1102.84 1202.32,-1107.67 1203.27,-1100.73"/>
</g>
<!-- Node0x563dece79c88&#45;&gt;Node0x563dece74b48 -->
<g id="edge178" class="edge">
<title>Node0x563dece79c88&#45;&gt;Node0x563dece74b48</title>
<path fill="none" stroke="#ff7f7f" d="M1624.25,-611.63C1564.66,-627.29 1491.3,-656.86 1449,-711.82 1383.75,-796.59 1490.91,-876.5 1413,-949.82 1359.12,-1000.52 1273.27,-1003.56 1207.02,-996.06"/>
<polygon fill="#ff7f7f" stroke="#ff7f7f" points="1207.33,-992.57 1196.98,-994.83 1206.48,-999.52 1207.33,-992.57"/>
</g>
<!-- Node0x563dece79c88&#45;&gt;Node0x563dece7c488 -->
<g id="edge182" class="edge">
<title>Node0x563dece79c88&#45;&gt;Node0x563dece7c488</title>
<path fill="none" stroke="#ff7f7f" d="M1624.41,-596.12C1565.66,-591.64 1493.19,-575.6 1449,-527.82 1382.92,-456.37 1484.37,-377.98 1413,-311.82 1359.2,-261.94 1274.38,-258.5 1208.47,-265.64"/>
<polygon fill="#ff7f7f" stroke="#ff7f7f" points="1208,-262.17 1198.47,-266.82 1208.82,-269.12 1208,-262.17"/>
</g>
<!-- Node0x563dece79c88&#45;&gt;Node0x563dece79b98 -->
<g id="edge179" class="edge">
<title>Node0x563dece79c88&#45;&gt;Node0x563dece79b98</title>
<path fill="none" stroke="#ff7f7f" d="M1711.3,-576.58C1682.93,-511.99 1577.32,-293.18 1413,-203.82 1402,-197.84 1390.43,-192.73 1378.5,-188.4"/>
<polygon fill="#ff7f7f" stroke="#ff7f7f" points="1379.45,-185.03 1368.86,-185.09 1377.18,-191.65 1379.45,-185.03"/>
</g>
<!-- Node0x563dece79c88&#45;&gt;Node0x563dece75ea8 -->
<g id="edge172" class="edge">
<title>Node0x563dece79c88&#45;&gt;Node0x563dece75ea8</title>
<path fill="none" stroke="#ff7f7f" d="M1624.36,-610.65C1570.46,-622.41 1503.12,-641.9 1449,-672.82 1429.89,-683.74 1432.99,-697.62 1413,-706.82 1400.01,-712.8 1386.37,-717.87 1372.38,-722.16"/>
<polygon fill="#ff7f7f" stroke="#ff7f7f" points="1371.26,-718.84 1362.64,-725 1373.22,-725.56 1371.26,-718.84"/>
</g>
<!-- Node0x563dece79c88&#45;&gt;Node0x563dece7a278 -->
<g id="edge180" class="edge">
<title>Node0x563dece79c88&#45;&gt;Node0x563dece7a278</title>
<path fill="none" stroke="#ff7f7f" d="M1624.33,-594.51C1569.43,-594.33 1496.84,-594.09 1423.61,-593.84"/>
<polygon fill="#ff7f7f" stroke="#ff7f7f" points="1423.29,-590.34 1413.28,-593.81 1423.27,-597.34 1423.29,-590.34"/>
</g>
<!-- Node0x563dece79c88&#45;&gt;Node0x563dece74648 -->
<g id="edge174" class="edge">
<title>Node0x563dece79c88&#45;&gt;Node0x563dece74648</title>
<path fill="none" stroke="#ff7f7f" d="M1624.43,-602.92C1523.68,-611.55 1363.25,-625.29 1248.75,-635.1"/>
<polygon fill="#ff7f7f" stroke="#ff7f7f" points="1248.17,-631.64 1238.51,-635.98 1248.77,-638.61 1248.17,-631.64"/>
</g>
<!-- Node0x563dece79c88&#45;&gt;Node0x563dece791e8 -->
<g id="edge175" class="edge">
<title>Node0x563dece79c88&#45;&gt;Node0x563dece791e8</title>
<path fill="none" stroke="#ff7f7f" d="M1670.46,-576.73C1608.99,-551.22 1504.42,-498.7 1449,-418.82 1407.2,-358.58 1468.12,-306.17 1413,-257.82 1360.03,-211.34 1279.78,-206.2 1215.47,-211.82"/>
<polygon fill="#ff7f7f" stroke="#ff7f7f" points="1214.9,-208.36 1205.29,-212.81 1215.58,-215.32 1214.9,-208.36"/>
</g>
<!-- Node0x563dece79c88&#45;&gt;Node0x563dece7a188 -->
<g id="edge181" class="edge">
<title>Node0x563dece79c88&#45;&gt;Node0x563dece7a188</title>
<path fill="none" stroke="#ff7f7f" d="M1815.55,-589.62C1907.24,-587.79 2047.23,-587.58 2150.31,-588.97"/>
<polygon fill="#ff7f7f" stroke="#ff7f7f" points="2150.43,-592.48 2160.48,-589.12 2150.53,-585.48 2150.43,-592.48"/>
</g>
</g>
</svg>
