<?xml version="1.0" encoding="UTF-8" standalone="no"?>
<!DOCTYPE svg PUBLIC "-//W3C//DTD SVG 1.1//EN"
 "http://www.w3.org/Graphics/SVG/1.1/DTD/svg11.dtd">
<!-- Generated by graphviz version 2.43.0 (0)
 -->
<!-- Title: bin/llvm&#45;ml Pages: 1 -->
<svg width="1169pt" height="445pt"
 viewBox="0.00 0.00 1169.00 445.00" xmlns="http://www.w3.org/2000/svg" xmlns:xlink="http://www.w3.org/1999/xlink">
<g id="graph0" class="graph" transform="scale(1 1) rotate(0) translate(4 441)">
<title>bin/llvm&#45;ml</title>
<polygon fill="white" stroke="transparent" points="-4,4 -4,-441 1165,-441 1165,4 -4,4"/>
<text text-anchor="middle" x="580.5" y="-7.8" font-family="Times,serif" font-size="14.00">bin/llvm&#45;ml</text>
<!-- Node0x557a6b2b3af8 -->
<g id="node1" class="node">
<title>Node0x557a6b2b3af8</title>
<polygon fill="#ff7f7f" stroke="black" points="398,-221 0,-221 0,-185 398,-185 398,-221"/>
<text text-anchor="middle" x="199" y="-199.3" font-family="Times,serif" font-size="14.00">{tools/llvm&#45;ml/CMakeFiles/llvm&#45;ml.dir/llvm&#45;ml.cpp.o}</text>
</g>
<!-- Node0x557a6b2b4c78 -->
<g id="node2" class="node">
<title>Node0x557a6b2b4c78</title>
<polygon fill="#ff7f7f" stroke="black" points="675.5,-275 443.5,-275 443.5,-239 675.5,-239 675.5,-275"/>
<text text-anchor="middle" x="559.5" y="-253.3" font-family="Times,serif" font-size="14.00">{lib/libLLVMX86AsmParser.a}</text>
</g>
<!-- Node0x557a6b2b3af8&#45;&gt;Node0x557a6b2b4c78 -->
<g id="edge1" class="edge">
<title>Node0x557a6b2b3af8&#45;&gt;Node0x557a6b2b4c78</title>
<path fill="none" stroke="#ff7f7f" d="M364.3,-221.02C399.54,-226.23 435.56,-231.9 466.85,-237.22"/>
<polygon fill="#ff7f7f" stroke="#ff7f7f" points="466.39,-240.69 476.84,-238.93 467.57,-233.79 466.39,-240.69"/>
</g>
<!-- Node0x557a6b2b3468 -->
<g id="node3" class="node">
<title>Node0x557a6b2b3468</title>
<polygon fill="#ff7f7f" stroke="black" points="655,-167 464,-167 464,-131 655,-131 655,-167"/>
<text text-anchor="middle" x="559.5" y="-145.3" font-family="Times,serif" font-size="14.00">{lib/libLLVMX86Desc.a}</text>
</g>
<!-- Node0x557a6b2b3af8&#45;&gt;Node0x557a6b2b3468 -->
<g id="edge2" class="edge">
<title>Node0x557a6b2b3af8&#45;&gt;Node0x557a6b2b3468</title>
<path fill="none" stroke="#ff7f7f" d="M281.35,-184.99C332.4,-176.15 398.74,-166.01 453.71,-158.58"/>
<polygon fill="#ff7f7f" stroke="#ff7f7f" points="454.39,-162.02 463.83,-157.23 453.46,-155.08 454.39,-162.02"/>
</g>
<!-- Node0x557a6b2b2e78 -->
<g id="node4" class="node">
<title>Node0x557a6b2b2e78</title>
<polygon fill="#ff7f7f" stroke="black" points="685,-437 434,-437 434,-401 685,-401 685,-437"/>
<text text-anchor="middle" x="559.5" y="-415.3" font-family="Times,serif" font-size="14.00">{lib/libLLVMX86Disassembler.a}</text>
</g>
<!-- Node0x557a6b2b3af8&#45;&gt;Node0x557a6b2b2e78 -->
<g id="edge3" class="edge">
<title>Node0x557a6b2b3af8&#45;&gt;Node0x557a6b2b2e78</title>
<path fill="none" stroke="#ff7f7f" d="M216.5,-221.12C252.21,-259.16 340.97,-347.47 434,-392 438.09,-393.96 442.33,-395.78 446.66,-397.47"/>
<polygon fill="#ff7f7f" stroke="#ff7f7f" points="445.69,-400.84 456.28,-400.96 448.08,-394.26 445.69,-400.84"/>
</g>
<!-- Node0x557a6b2b3dc8 -->
<g id="node5" class="node">
<title>Node0x557a6b2b3dc8</title>
<polygon fill="#ff7f7f" stroke="black" points="651.5,-59 467.5,-59 467.5,-23 651.5,-23 651.5,-59"/>
<text text-anchor="middle" x="559.5" y="-37.3" font-family="Times,serif" font-size="14.00">{lib/libLLVMX86Info.a}</text>
</g>
<!-- Node0x557a6b2b3af8&#45;&gt;Node0x557a6b2b3dc8 -->
<g id="edge4" class="edge">
<title>Node0x557a6b2b3af8&#45;&gt;Node0x557a6b2b3dc8</title>
<path fill="none" stroke="#ff7f7f" d="M225.33,-184.82C266.9,-155.83 353.06,-99.25 434,-68 441.55,-65.08 449.49,-62.45 457.56,-60.08"/>
<polygon fill="#ff7f7f" stroke="#ff7f7f" points="458.75,-63.38 467.43,-57.31 456.86,-56.64 458.75,-63.38"/>
</g>
<!-- Node0x557a6b2b3878 -->
<g id="node6" class="node">
<title>Node0x557a6b2b3878</title>
<polygon fill="#ff7f7f" stroke="black" points="636,-113 483,-113 483,-77 636,-77 636,-113"/>
<text text-anchor="middle" x="559.5" y="-91.3" font-family="Times,serif" font-size="14.00">{lib/libLLVMMC.a}</text>
</g>
<!-- Node0x557a6b2b3af8&#45;&gt;Node0x557a6b2b3878 -->
<g id="edge5" class="edge">
<title>Node0x557a6b2b3af8&#45;&gt;Node0x557a6b2b3878</title>
<path fill="none" stroke="#ff7f7f" d="M231.04,-184.97C275.5,-164.93 360.11,-133.72 434,-113 446.47,-109.5 459.76,-106.19 472.82,-103.27"/>
<polygon fill="#ff7f7f" stroke="#ff7f7f" points="473.73,-106.66 482.76,-101.12 472.24,-99.82 473.73,-106.66"/>
</g>
<!-- Node0x557a6b2b21a8 -->
<g id="node7" class="node">
<title>Node0x557a6b2b21a8</title>
<polygon fill="#ff7f7f" stroke="black" points="658.5,-221 460.5,-221 460.5,-185 658.5,-185 658.5,-221"/>
<text text-anchor="middle" x="559.5" y="-199.3" font-family="Times,serif" font-size="14.00">{lib/libLLVMMCParser.a}</text>
</g>
<!-- Node0x557a6b2b3af8&#45;&gt;Node0x557a6b2b21a8 -->
<g id="edge6" class="edge">
<title>Node0x557a6b2b3af8&#45;&gt;Node0x557a6b2b21a8</title>
<path fill="none" stroke="#ff7f7f" d="M398.12,-196.28C415.96,-196.35 433.54,-196.5 450.16,-196.74"/>
<polygon fill="#ff7f7f" stroke="#ff7f7f" points="450.32,-200.25 460.37,-196.91 450.43,-193.25 450.32,-200.25"/>
</g>
<!-- Node0x557a6b2b1a78 -->
<g id="node8" class="node">
<title>Node0x557a6b2b1a78</title>
<polygon fill="#ff7f7f" stroke="black" points="647.5,-329 471.5,-329 471.5,-293 647.5,-293 647.5,-329"/>
<text text-anchor="middle" x="559.5" y="-307.3" font-family="Times,serif" font-size="14.00">{lib/libLLVMOption.a}</text>
</g>
<!-- Node0x557a6b2b3af8&#45;&gt;Node0x557a6b2b1a78 -->
<g id="edge7" class="edge">
<title>Node0x557a6b2b3af8&#45;&gt;Node0x557a6b2b1a78</title>
<path fill="none" stroke="#ff7f7f" d="M246.98,-221.13C293.86,-238.77 368.18,-265.54 434,-284 442.93,-286.5 452.27,-288.91 461.66,-291.19"/>
<polygon fill="#ff7f7f" stroke="#ff7f7f" points="460.9,-294.61 471.44,-293.51 462.52,-287.8 460.9,-294.61"/>
</g>
<!-- Node0x557a6b2b29c8 -->
<g id="node9" class="node">
<title>Node0x557a6b2b29c8</title>
<polygon fill="#ff7f7f" stroke="black" points="652.5,-383 466.5,-383 466.5,-347 652.5,-347 652.5,-383"/>
<text text-anchor="middle" x="559.5" y="-361.3" font-family="Times,serif" font-size="14.00">{lib/libLLVMSupport.a}</text>
</g>
<!-- Node0x557a6b2b3af8&#45;&gt;Node0x557a6b2b29c8 -->
<g id="edge8" class="edge">
<title>Node0x557a6b2b3af8&#45;&gt;Node0x557a6b2b29c8</title>
<path fill="none" stroke="#ff7f7f" d="M234.36,-221.17C278.52,-248.7 358.52,-299.86 434,-329 450.56,-335.39 468.97,-340.43 486.44,-344.61"/>
<polygon fill="#ff7f7f" stroke="#ff7f7f" points="486.07,-348.12 496.6,-346.98 487.66,-341.3 486.07,-348.12"/>
</g>
<!-- Node0x557a6b2b4c78&#45;&gt;Node0x557a6b2b3af8 -->
<g id="edge9" class="edge">
<title>Node0x557a6b2b4c78&#45;&gt;Node0x557a6b2b3af8</title>
<path fill="none" stroke="#ff7f7f" d="M443.5,-246.03C394.29,-239.25 337.63,-230.59 291.36,-222.73"/>
<polygon fill="#ff7f7f" stroke="#ff7f7f" points="291.8,-219.26 281.35,-221.01 290.61,-226.15 291.8,-219.26"/>
</g>
<!-- Node0x557a6b2b4c78&#45;&gt;Node0x557a6b2b3468 -->
<g id="edge10" class="edge">
<title>Node0x557a6b2b4c78&#45;&gt;Node0x557a6b2b3468</title>
<path fill="none" stroke="#ff7f7f" d="M443.25,-244.76C434.76,-239.55 427.42,-232.77 422,-224 412.19,-208.12 412.19,-197.88 422,-182 429.71,-169.53 441.3,-161.08 454.55,-155.46"/>
<polygon fill="#ff7f7f" stroke="#ff7f7f" points="455.78,-158.73 463.96,-152 453.36,-152.16 455.78,-158.73"/>
</g>
<!-- Node0x557a6b2b4c78&#45;&gt;Node0x557a6b2b3dc8 -->
<g id="edge11" class="edge">
<title>Node0x557a6b2b4c78&#45;&gt;Node0x557a6b2b3dc8</title>
<path fill="none" stroke="#ff7f7f" d="M443.4,-245.81C432.34,-239.96 422.75,-231.92 416,-221 399.18,-193.78 399.18,-104.22 416,-77 425.51,-61.61 440.66,-51.96 457.62,-46.06"/>
<polygon fill="#ff7f7f" stroke="#ff7f7f" points="458.64,-49.41 467.2,-43.16 456.61,-42.71 458.64,-49.41"/>
</g>
<!-- Node0x557a6b2b4c78&#45;&gt;Node0x557a6b2b3878 -->
<g id="edge12" class="edge">
<title>Node0x557a6b2b4c78&#45;&gt;Node0x557a6b2b3878</title>
<path fill="none" stroke="#ff7f7f" d="M443.25,-244.76C434.76,-239.55 427.42,-232.77 422,-224 410.78,-205.85 410.78,-146.15 422,-128 433.14,-109.97 452.41,-100.35 473.05,-95.52"/>
<polygon fill="#ff7f7f" stroke="#ff7f7f" points="473.8,-98.93 482.93,-93.56 472.44,-92.07 473.8,-98.93"/>
</g>
<!-- Node0x557a6b2b4c78&#45;&gt;Node0x557a6b2b21a8 -->
<g id="edge13" class="edge">
<title>Node0x557a6b2b4c78&#45;&gt;Node0x557a6b2b21a8</title>
<path fill="none" stroke="#ff7f7f" d="M625.88,-238.79C632.3,-235.21 634.79,-231.62 633.36,-228.03"/>
<polygon fill="#ff7f7f" stroke="#ff7f7f" points="635.51,-225.27 625.76,-221.14 630.81,-230.45 635.51,-225.27"/>
</g>
<!-- Node0x557a6b2b4c78&#45;&gt;Node0x557a6b2b29c8 -->
<g id="edge14" class="edge">
<title>Node0x557a6b2b4c78&#45;&gt;Node0x557a6b2b29c8</title>
<path fill="none" stroke="#ff7f7f" d="M443.25,-269.24C434.76,-274.45 427.42,-281.23 422,-290 412.19,-305.88 412.19,-316.12 422,-332 430.15,-345.19 442.65,-353.88 456.86,-359.49"/>
<polygon fill="#ff7f7f" stroke="#ff7f7f" points="455.82,-362.83 466.41,-362.75 458.08,-356.21 455.82,-362.83"/>
</g>
<!-- Node0x557a6b2b3468&#45;&gt;Node0x557a6b2b3af8 -->
<g id="edge15" class="edge">
<title>Node0x557a6b2b3468&#45;&gt;Node0x557a6b2b3af8</title>
<path fill="none" stroke="#ff7f7f" d="M476.84,-167.07C446.24,-172.36 410.18,-178.12 374.38,-183.48"/>
<polygon fill="#ff7f7f" stroke="#ff7f7f" points="373.67,-180.05 364.3,-184.98 374.7,-186.97 373.67,-180.05"/>
</g>
<!-- Node0x557a6b2b3468&#45;&gt;Node0x557a6b2b4c78 -->
<g id="edge20" class="edge">
<title>Node0x557a6b2b3468&#45;&gt;Node0x557a6b2b4c78</title>
<path fill="none" stroke="#ff7f7f" d="M463.77,-152.2C442.01,-158.05 421.85,-168.83 410,-188 396.41,-209.98 411.07,-225.04 435.7,-235.33"/>
<polygon fill="#ff7f7f" stroke="#ff7f7f" points="434.61,-238.66 445.2,-238.91 437.08,-232.11 434.61,-238.66"/>
</g>
<!-- Node0x557a6b2b3468&#45;&gt;Node0x557a6b2b3dc8 -->
<g id="edge18" class="edge">
<title>Node0x557a6b2b3468&#45;&gt;Node0x557a6b2b3dc8</title>
<path fill="none" stroke="#ff7f7f" d="M463.86,-145.92C444.42,-140.3 426.67,-130.26 416,-113 407.59,-99.39 407.59,-90.61 416,-77 425.51,-61.61 440.66,-51.96 457.62,-46.06"/>
<polygon fill="#ff7f7f" stroke="#ff7f7f" points="458.64,-49.41 467.2,-43.16 456.61,-42.71 458.64,-49.41"/>
</g>
<!-- Node0x557a6b2b3468&#45;&gt;Node0x557a6b2b3878 -->
<g id="edge16" class="edge">
<title>Node0x557a6b2b3468&#45;&gt;Node0x557a6b2b3878</title>
<path fill="none" stroke="#ff7f7f" d="M610.79,-130.79C615.25,-127.57 617.25,-124.36 616.82,-121.14"/>
<polygon fill="#ff7f7f" stroke="#ff7f7f" points="619.55,-118.96 610.7,-113.14 613.99,-123.21 619.55,-118.96"/>
</g>
<!-- Node0x557a6b2b3468&#45;&gt;Node0x557a6b2b29c8 -->
<g id="edge17" class="edge">
<title>Node0x557a6b2b3468&#45;&gt;Node0x557a6b2b29c8</title>
<path fill="none" stroke="#ff7f7f" d="M463.96,-152C446.86,-157.4 431.49,-166.65 422,-182 413.24,-196.18 413.24,-317.82 422,-332 430.15,-345.19 442.65,-353.88 456.86,-359.49"/>
<polygon fill="#ff7f7f" stroke="#ff7f7f" points="455.82,-362.83 466.41,-362.75 458.08,-356.21 455.82,-362.83"/>
</g>
<!-- Node0x557a6b2b2478 -->
<g id="node10" class="node">
<title>Node0x557a6b2b2478</title>
<polygon fill="none" stroke="black" points="1065,-437 817,-437 817,-401 1065,-401 1065,-437"/>
<text text-anchor="middle" x="941" y="-415.3" font-family="Times,serif" font-size="14.00">{lib/libLLVMMCDisassembler.a}</text>
</g>
<!-- Node0x557a6b2b3468&#45;&gt;Node0x557a6b2b2478 -->
<g id="edge19" class="edge">
<title>Node0x557a6b2b3468&#45;&gt;Node0x557a6b2b2478</title>
<path fill="none" stroke="black" d="M655.02,-156.63C666.27,-161.04 676.69,-167.27 685,-176 752.13,-246.46 650.74,-324.66 721,-392 743.96,-414 775.06,-424.58 806.6,-428.82"/>
<polygon fill="black" stroke="black" points="806.52,-432.33 816.85,-429.98 807.31,-425.38 806.52,-432.33"/>
</g>
<!-- Node0x557a6b2b0678 -->
<g id="node11" class="node">
<title>Node0x557a6b2b0678</title>
<polygon fill="#ff7f7f" stroke="black" points="1054.5,-167 827.5,-167 827.5,-131 1054.5,-131 1054.5,-167"/>
<text text-anchor="middle" x="941" y="-145.3" font-family="Times,serif" font-size="14.00">{lib/libLLVMBinaryFormat.a}</text>
</g>
<!-- Node0x557a6b2b3468&#45;&gt;Node0x557a6b2b0678 -->
<g id="edge21" class="edge">
<title>Node0x557a6b2b3468&#45;&gt;Node0x557a6b2b0678</title>
<path fill="none" stroke="#ff7f7f" d="M655.28,-149C704.27,-149 764.63,-149 817.15,-149"/>
<polygon fill="#ff7f7f" stroke="#ff7f7f" points="817.2,-152.5 827.2,-149 817.2,-145.5 817.2,-152.5"/>
</g>
<!-- Node0x557a6b2b2e78&#45;&gt;Node0x557a6b2b3dc8 -->
<g id="edge22" class="edge">
<title>Node0x557a6b2b2e78&#45;&gt;Node0x557a6b2b3dc8</title>
<path fill="none" stroke="#ff7f7f" d="M433.88,-401.93C426.84,-396.88 420.73,-390.65 416,-383 398.13,-354.08 398.13,-105.92 416,-77 425.51,-61.61 440.66,-51.96 457.62,-46.06"/>
<polygon fill="#ff7f7f" stroke="#ff7f7f" points="458.64,-49.41 467.2,-43.16 456.61,-42.71 458.64,-49.41"/>
</g>
<!-- Node0x557a6b2b2e78&#45;&gt;Node0x557a6b2b29c8 -->
<g id="edge23" class="edge">
<title>Node0x557a6b2b2e78&#45;&gt;Node0x557a6b2b29c8</title>
<path fill="none" stroke="#ff7f7f" d="M559.5,-400.79C559.5,-398.31 559.5,-395.83 559.5,-393.34"/>
<polygon fill="#ff7f7f" stroke="#ff7f7f" points="563,-393.14 559.5,-383.14 556,-393.14 563,-393.14"/>
</g>
<!-- Node0x557a6b2b2e78&#45;&gt;Node0x557a6b2b2478 -->
<g id="edge24" class="edge">
<title>Node0x557a6b2b2e78&#45;&gt;Node0x557a6b2b2478</title>
<path fill="none" stroke="black" d="M685.03,-419C723.99,-419 767.13,-419 806.68,-419"/>
<polygon fill="black" stroke="black" points="806.92,-422.5 816.92,-419 806.92,-415.5 806.92,-422.5"/>
</g>
<!-- Node0x557a6b2b3dc8&#45;&gt;Node0x557a6b2b29c8 -->
<g id="edge25" class="edge">
<title>Node0x557a6b2b3dc8&#45;&gt;Node0x557a6b2b29c8</title>
<path fill="none" stroke="#ff7f7f" d="M467.2,-43.16C446.46,-48.58 427.28,-58.76 416,-77 401.28,-100.82 401.28,-305.18 416,-329 425.31,-344.07 440.02,-353.63 456.54,-359.56"/>
<polygon fill="#ff7f7f" stroke="#ff7f7f" points="455.87,-363.01 466.46,-362.65 457.95,-356.33 455.87,-363.01"/>
</g>
<!-- Node0x557a6b2b3878&#45;&gt;Node0x557a6b2b3af8 -->
<g id="edge28" class="edge">
<title>Node0x557a6b2b3878&#45;&gt;Node0x557a6b2b3af8</title>
<path fill="none" stroke="#ff7f7f" d="M506.67,-113.06C484.18,-118.41 457.64,-124.37 434,-131 380.88,-145.9 322.21,-166.21 276.91,-181.64"/>
<polygon fill="#ff7f7f" stroke="#ff7f7f" points="275.5,-178.42 267.16,-184.95 277.75,-185.05 275.5,-178.42"/>
</g>
<!-- Node0x557a6b2b3878&#45;&gt;Node0x557a6b2b4c78 -->
<g id="edge29" class="edge">
<title>Node0x557a6b2b3878&#45;&gt;Node0x557a6b2b4c78</title>
<path fill="none" stroke="#ff7f7f" d="M482.64,-94.32C454.22,-98.57 425.23,-109.36 410,-134 400.19,-149.88 400.19,-202.12 410,-218 416.16,-227.97 424.58,-235.67 434.3,-241.59"/>
<polygon fill="#ff7f7f" stroke="#ff7f7f" points="432.68,-244.7 443.15,-246.35 435.99,-238.53 432.68,-244.7"/>
</g>
<!-- Node0x557a6b2b3878&#45;&gt;Node0x557a6b2b3468 -->
<g id="edge26" class="edge">
<title>Node0x557a6b2b3878&#45;&gt;Node0x557a6b2b3468</title>
<path fill="none" stroke="#ff7f7f" d="M508.3,-113.14C503.82,-116.36 501.77,-119.58 502.17,-122.79"/>
<polygon fill="#ff7f7f" stroke="#ff7f7f" points="499.39,-124.91 508.21,-130.79 504.98,-120.7 499.39,-124.91"/>
</g>
<!-- Node0x557a6b2b3878&#45;&gt;Node0x557a6b2b29c8 -->
<g id="edge27" class="edge">
<title>Node0x557a6b2b3878&#45;&gt;Node0x557a6b2b29c8</title>
<path fill="none" stroke="#ff7f7f" d="M482.93,-93.56C458.71,-97.51 434.91,-107.12 422,-128 410.08,-147.28 410.08,-312.72 422,-332 430.15,-345.19 442.65,-353.88 456.86,-359.49"/>
<polygon fill="#ff7f7f" stroke="#ff7f7f" points="455.82,-362.83 466.41,-362.75 458.08,-356.21 455.82,-362.83"/>
</g>
<!-- Node0x557a6b2b3878&#45;&gt;Node0x557a6b2b0678 -->
<g id="edge30" class="edge">
<title>Node0x557a6b2b3878&#45;&gt;Node0x557a6b2b0678</title>
<path fill="none" stroke="#ff7f7f" d="M636.39,-105.8C688.02,-113.14 757.49,-123.03 816.96,-131.49"/>
<polygon fill="#ff7f7f" stroke="#ff7f7f" points="816.78,-135 827.17,-132.95 817.76,-128.07 816.78,-135"/>
</g>
<!-- Node0x557a6b2b21a8&#45;&gt;Node0x557a6b2b3af8 -->
<g id="edge31" class="edge">
<title>Node0x557a6b2b21a8&#45;&gt;Node0x557a6b2b3af8</title>
<path fill="none" stroke="#ff7f7f" d="M460.37,-209.09C443.88,-209.38 426.24,-209.57 408.19,-209.67"/>
<polygon fill="#ff7f7f" stroke="#ff7f7f" points="408.11,-206.17 398.12,-209.72 408.14,-213.17 408.11,-206.17"/>
</g>
<!-- Node0x557a6b2b21a8&#45;&gt;Node0x557a6b2b4c78 -->
<g id="edge34" class="edge">
<title>Node0x557a6b2b21a8&#45;&gt;Node0x557a6b2b4c78</title>
<path fill="none" stroke="#ff7f7f" d="M493.24,-221.14C486.77,-224.73 484.23,-228.31 485.62,-231.9"/>
<polygon fill="#ff7f7f" stroke="#ff7f7f" points="483.39,-234.6 493.12,-238.79 488.12,-229.45 483.39,-234.6"/>
</g>
<!-- Node0x557a6b2b21a8&#45;&gt;Node0x557a6b2b3468 -->
<g id="edge35" class="edge">
<title>Node0x557a6b2b21a8&#45;&gt;Node0x557a6b2b3468</title>
<path fill="none" stroke="#ff7f7f" d="M559.5,-184.79C559.5,-182.31 559.5,-179.83 559.5,-177.34"/>
<polygon fill="#ff7f7f" stroke="#ff7f7f" points="563,-177.14 559.5,-167.14 556,-177.14 563,-177.14"/>
</g>
<!-- Node0x557a6b2b21a8&#45;&gt;Node0x557a6b2b3878 -->
<g id="edge32" class="edge">
<title>Node0x557a6b2b21a8&#45;&gt;Node0x557a6b2b3878</title>
<path fill="none" stroke="#ff7f7f" d="M460.19,-198.8C442.2,-193 425.99,-183.17 416,-167 407.59,-153.39 407.59,-144.61 416,-131 428.29,-111.12 449.97,-100.82 472.82,-95.81"/>
<polygon fill="#ff7f7f" stroke="#ff7f7f" points="473.47,-99.25 482.66,-93.97 472.19,-92.37 473.47,-99.25"/>
</g>
<!-- Node0x557a6b2b21a8&#45;&gt;Node0x557a6b2b29c8 -->
<g id="edge33" class="edge">
<title>Node0x557a6b2b21a8&#45;&gt;Node0x557a6b2b29c8</title>
<path fill="none" stroke="#ff7f7f" d="M460.49,-207.16C444.8,-212.68 430.84,-221.7 422,-236 410.78,-254.15 410.78,-313.85 422,-332 430.15,-345.19 442.65,-353.88 456.86,-359.49"/>
<polygon fill="#ff7f7f" stroke="#ff7f7f" points="455.82,-362.83 466.41,-362.75 458.08,-356.21 455.82,-362.83"/>
</g>
<!-- Node0x557a6b2b1a78&#45;&gt;Node0x557a6b2b3878 -->
<g id="edge37" class="edge">
<title>Node0x557a6b2b1a78&#45;&gt;Node0x557a6b2b3878</title>
<path fill="none" stroke="#ff7f7f" d="M471.32,-309.85C449.02,-304.72 428.02,-294.45 416,-275 399.18,-247.78 399.18,-158.22 416,-131 428.29,-111.12 449.97,-100.82 472.82,-95.81"/>
<polygon fill="#ff7f7f" stroke="#ff7f7f" points="473.47,-99.25 482.66,-93.97 472.19,-92.37 473.47,-99.25"/>
</g>
<!-- Node0x557a6b2b1a78&#45;&gt;Node0x557a6b2b29c8 -->
<g id="edge36" class="edge">
<title>Node0x557a6b2b1a78&#45;&gt;Node0x557a6b2b29c8</title>
<path fill="none" stroke="#ff7f7f" d="M618.39,-329.14C623.85,-332.54 626.16,-335.94 625.34,-339.34"/>
<polygon fill="#ff7f7f" stroke="#ff7f7f" points="622.69,-337.06 618.5,-346.79 627.84,-341.79 622.69,-337.06"/>
</g>
<!-- Node0x557a6b2b29c8&#45;&gt;Node0x557a6b2b3af8 -->
<g id="edge40" class="edge">
<title>Node0x557a6b2b29c8&#45;&gt;Node0x557a6b2b3af8</title>
<path fill="none" stroke="#ff7f7f" d="M466.43,-357.36C455.35,-354.44 444.32,-350.98 434,-347 353.57,-315.95 267.98,-259.88 226.13,-227.4"/>
<polygon fill="#ff7f7f" stroke="#ff7f7f" points="228.12,-224.52 218.11,-221.04 223.77,-230 228.12,-224.52"/>
</g>
<!-- Node0x557a6b2b29c8&#45;&gt;Node0x557a6b2b4c78 -->
<g id="edge41" class="edge">
<title>Node0x557a6b2b29c8&#45;&gt;Node0x557a6b2b4c78</title>
<path fill="none" stroke="#ff7f7f" d="M466.38,-352.93C425.86,-343.28 391.36,-326.15 410,-296 416.16,-286.03 424.58,-278.33 434.3,-272.41"/>
<polygon fill="#ff7f7f" stroke="#ff7f7f" points="435.99,-275.47 443.15,-267.65 432.68,-269.3 435.99,-275.47"/>
</g>
<!-- Node0x557a6b2b29c8&#45;&gt;Node0x557a6b2b3468 -->
<g id="edge42" class="edge">
<title>Node0x557a6b2b29c8&#45;&gt;Node0x557a6b2b3468</title>
<path fill="none" stroke="#ff7f7f" d="M466.49,-362.5C443.71,-356.84 422.34,-345.97 410,-326 401.94,-312.96 401.94,-201.04 410,-188 420.09,-171.68 436.21,-161.43 454.21,-155.14"/>
<polygon fill="#ff7f7f" stroke="#ff7f7f" points="455.24,-158.49 463.77,-152.2 453.18,-151.8 455.24,-158.49"/>
</g>
<!-- Node0x557a6b2b29c8&#45;&gt;Node0x557a6b2b3878 -->
<g id="edge38" class="edge">
<title>Node0x557a6b2b29c8&#45;&gt;Node0x557a6b2b3878</title>
<path fill="none" stroke="#ff7f7f" d="M466.49,-362.5C443.71,-356.84 422.34,-345.97 410,-326 398.78,-307.85 398.78,-152.15 410,-134 423.45,-112.25 447.61,-101.29 472.65,-96.1"/>
<polygon fill="#ff7f7f" stroke="#ff7f7f" points="473.41,-99.52 482.64,-94.32 472.19,-92.62 473.41,-99.52"/>
</g>
<!-- Node0x557a6b2b29c8&#45;&gt;Node0x557a6b2b21a8 -->
<g id="edge39" class="edge">
<title>Node0x557a6b2b29c8&#45;&gt;Node0x557a6b2b21a8</title>
<path fill="none" stroke="#ff7f7f" d="M466.49,-362.5C443.71,-356.84 422.34,-345.97 410,-326 400.19,-310.12 400.19,-257.88 410,-242 419.37,-226.84 433.95,-216.92 450.41,-210.54"/>
<polygon fill="#ff7f7f" stroke="#ff7f7f" points="451.94,-213.72 460.29,-207.18 449.69,-207.09 451.94,-213.72"/>
</g>
<!-- Node0x557a6b2b29c8&#45;&gt;Node0x557a6b2b1a78 -->
<g id="edge44" class="edge">
<title>Node0x557a6b2b29c8&#45;&gt;Node0x557a6b2b1a78</title>
<path fill="none" stroke="#ff7f7f" d="M500.5,-346.79C495.08,-343.39 492.81,-339.99 493.68,-336.59"/>
<polygon fill="#ff7f7f" stroke="#ff7f7f" points="496.36,-338.85 500.61,-329.14 491.23,-334.08 496.36,-338.85"/>
</g>
<!-- Node0x557a6b2b4228 -->
<g id="node12" class="node">
<title>Node0x557a6b2b4228</title>
<polygon fill="#ff7f7f" stroke="black" points="1161,-383 721,-383 721,-347 1161,-347 1161,-383"/>
<text text-anchor="middle" x="941" y="-361.3" font-family="Times,serif" font-size="14.00">{tools/llvm&#45;ml/CMakeFiles/llvm&#45;ml.dir/Disassembler.cpp.o}</text>
</g>
<!-- Node0x557a6b2b29c8&#45;&gt;Node0x557a6b2b4228 -->
<g id="edge43" class="edge">
<title>Node0x557a6b2b29c8&#45;&gt;Node0x557a6b2b4228</title>
<path fill="none" stroke="#ff7f7f" d="M652.85,-359.11C670.78,-358.76 690.29,-358.52 710.43,-358.38"/>
<polygon fill="#ff7f7f" stroke="#ff7f7f" points="710.71,-361.88 720.69,-358.32 710.67,-354.88 710.71,-361.88"/>
</g>
<!-- Node0x557a6b2b0678&#45;&gt;Node0x557a6b2b29c8 -->
<g id="edge47" class="edge">
<title>Node0x557a6b2b0678&#45;&gt;Node0x557a6b2b29c8</title>
<path fill="none" stroke="#ff7f7f" d="M921.67,-167.06C882.07,-204.97 784.12,-293.06 685,-338 677.77,-341.28 670.12,-344.17 662.3,-346.72"/>
<polygon fill="#ff7f7f" stroke="#ff7f7f" points="661.25,-343.38 652.71,-349.65 663.3,-350.07 661.25,-343.38"/>
</g>
<!-- Node0x557a6b2b4228&#45;&gt;Node0x557a6b2b3878 -->
<g id="edge45" class="edge">
<title>Node0x557a6b2b4228&#45;&gt;Node0x557a6b2b3878</title>
<path fill="none" stroke="#ff7f7f" d="M914.74,-346.81C871.84,-315.16 783.33,-246.58 721,-176 701.91,-154.38 708.84,-138.24 685,-122 673.38,-114.08 659.86,-108.43 646.09,-104.41"/>
<polygon fill="#ff7f7f" stroke="#ff7f7f" points="646.6,-100.93 636.04,-101.76 644.82,-107.7 646.6,-100.93"/>
</g>
<!-- Node0x557a6b2b4228&#45;&gt;Node0x557a6b2b29c8 -->
<g id="edge46" class="edge">
<title>Node0x557a6b2b4228&#45;&gt;Node0x557a6b2b29c8</title>
<path fill="none" stroke="#ff7f7f" d="M720.69,-371.68C700.74,-371.58 681.23,-371.38 663.08,-371.07"/>
<polygon fill="#ff7f7f" stroke="#ff7f7f" points="662.91,-367.57 652.85,-370.89 662.79,-374.57 662.91,-367.57"/>
</g>
</g>
</svg>
