<?xml version="1.0" encoding="UTF-8" standalone="no"?>
<!DOCTYPE svg PUBLIC "-//W3C//DTD SVG 1.1//EN"
 "http://www.w3.org/Graphics/SVG/1.1/DTD/svg11.dtd">
<!-- Generated by graphviz version 2.43.0 (0)
 -->
<!-- Title: bin/sanstats Pages: 1 -->
<svg width="1776pt" height="871pt"
 viewBox="0.00 0.00 1776.00 871.30" xmlns="http://www.w3.org/2000/svg" xmlns:xlink="http://www.w3.org/1999/xlink">
<g id="graph0" class="graph" transform="scale(1 1) rotate(0) translate(4 867.3)">
<title>bin/sanstats</title>
<polygon fill="white" stroke="transparent" points="-4,4 -4,-867.3 1772,-867.3 1772,4 -4,4"/>
<text text-anchor="middle" x="884" y="-7.8" font-family="Times,serif" font-size="14.00">bin/sanstats</text>
<!-- Node0x56522f933e08 -->
<g id="node1" class="node">
<title>Node0x56522f933e08</title>
<polygon fill="#ff7f7f" stroke="black" points="419,-452.55 0,-452.55 0,-416.55 419,-416.55 419,-452.55"/>
<text text-anchor="middle" x="209.5" y="-430.85" font-family="Times,serif" font-size="14.00">{tools/sanstats/CMakeFiles/sanstats.dir/sanstats.cpp.o}</text>
</g>
<!-- Node0x56522f92d198 -->
<g id="node2" class="node">
<title>Node0x56522f92d198</title>
<polygon fill="#ff7f7f" stroke="black" points="649,-452.55 463,-452.55 463,-416.55 649,-416.55 649,-452.55"/>
<text text-anchor="middle" x="556" y="-430.85" font-family="Times,serif" font-size="14.00">{lib/libLLVMSupport.a}</text>
</g>
<!-- Node0x56522f933e08&#45;&gt;Node0x56522f92d198 -->
<g id="edge1" class="edge">
<title>Node0x56522f933e08&#45;&gt;Node0x56522f92d198</title>
<path fill="none" stroke="#ff7f7f" d="M419.34,-427.94C430.69,-428.02 441.82,-428.15 452.51,-428.32"/>
<polygon fill="#ff7f7f" stroke="#ff7f7f" points="452.57,-431.82 462.63,-428.49 452.69,-424.82 452.57,-431.82"/>
</g>
<!-- Node0x56522f92d648 -->
<g id="node3" class="node">
<title>Node0x56522f92d648</title>
<polygon fill="#ff7f7f" stroke="black" points="657,-544.55 455,-544.55 455,-508.55 657,-508.55 657,-544.55"/>
<text text-anchor="middle" x="556" y="-522.85" font-family="Times,serif" font-size="14.00">{lib/libLLVMSymbolize.a}</text>
</g>
<!-- Node0x56522f933e08&#45;&gt;Node0x56522f92d648 -->
<g id="edge2" class="edge">
<title>Node0x56522f933e08&#45;&gt;Node0x56522f92d648</title>
<path fill="none" stroke="#ff7f7f" d="M300.56,-452.59C362.31,-467.88 442.46,-489.55 496.15,-505.61"/>
<polygon fill="#ff7f7f" stroke="#ff7f7f" points="495.27,-509 505.86,-508.54 497.3,-502.3 495.27,-509"/>
</g>
<!-- Node0x56522f92d198&#45;&gt;Node0x56522f933e08 -->
<g id="edge3" class="edge">
<title>Node0x56522f92d198&#45;&gt;Node0x56522f933e08</title>
<path fill="none" stroke="#ff7f7f" d="M462.63,-440.61C452.02,-440.81 440.88,-440.96 429.45,-441.08"/>
<polygon fill="#ff7f7f" stroke="#ff7f7f" points="429.31,-437.58 419.34,-441.16 429.37,-444.58 429.31,-437.58"/>
</g>
<!-- Node0x56522f92d7d8 -->
<g id="node4" class="node">
<title>Node0x56522f92d7d8</title>
<polygon fill="#ff7f7f" stroke="black" points="948,-406.55 693,-406.55 693,-370.55 948,-370.55 948,-406.55"/>
<text text-anchor="middle" x="820.5" y="-384.85" font-family="Times,serif" font-size="14.00">{lib/libLLVMDebugInfoDWARF.a}</text>
</g>
<!-- Node0x56522f92d198&#45;&gt;Node0x56522f92d7d8 -->
<g id="edge4" class="edge">
<title>Node0x56522f92d198&#45;&gt;Node0x56522f92d7d8</title>
<path fill="none" stroke="#ff7f7f" d="M625.63,-416.51C643.3,-412.96 662.95,-409.28 682.77,-405.77"/>
<polygon fill="#ff7f7f" stroke="#ff7f7f" points="683.58,-409.18 692.82,-404 682.37,-402.28 683.58,-409.18"/>
</g>
<!-- Node0x56522f92dd28 -->
<g id="node5" class="node">
<title>Node0x56522f92dd28</title>
<polygon fill="#ff7f7f" stroke="black" points="937.5,-498.55 703.5,-498.55 703.5,-462.55 937.5,-462.55 937.5,-498.55"/>
<text text-anchor="middle" x="820.5" y="-476.85" font-family="Times,serif" font-size="14.00">{lib/libLLVMDebugInfoPDB.a}</text>
</g>
<!-- Node0x56522f92d198&#45;&gt;Node0x56522f92dd28 -->
<g id="edge5" class="edge">
<title>Node0x56522f92d198&#45;&gt;Node0x56522f92dd28</title>
<path fill="none" stroke="#ff7f7f" d="M649.18,-444.23C679.04,-449.03 711.88,-454.86 740.68,-460.49"/>
<polygon fill="#ff7f7f" stroke="#ff7f7f" points="740.2,-463.97 750.69,-462.47 741.56,-457.1 740.2,-463.97"/>
</g>
<!-- Node0x56522f92e7c8 -->
<g id="node6" class="node">
<title>Node0x56522f92e7c8</title>
<polygon fill="#ff7f7f" stroke="black" points="908,-628.55 733,-628.55 733,-592.55 908,-592.55 908,-628.55"/>
<text text-anchor="middle" x="820.5" y="-606.85" font-family="Times,serif" font-size="14.00">{lib/libLLVMObject.a}</text>
</g>
<!-- Node0x56522f92d198&#45;&gt;Node0x56522f92e7c8 -->
<g id="edge6" class="edge">
<title>Node0x56522f92d198&#45;&gt;Node0x56522f92e7c8</title>
<path fill="none" stroke="#ff7f7f" d="M609.9,-452.66C626.54,-462.45 643.96,-475.41 657,-490.55 682.18,-519.79 663.38,-544.83 693,-569.55 703.26,-578.11 715.5,-584.42 728.27,-589.18"/>
<polygon fill="#ff7f7f" stroke="#ff7f7f" points="727.52,-592.63 738.11,-592.53 729.77,-586 727.52,-592.63"/>
</g>
<!-- Node0x56522f92d648&#45;&gt;Node0x56522f933e08 -->
<g id="edge7" class="edge">
<title>Node0x56522f92d648&#45;&gt;Node0x56522f933e08</title>
<path fill="none" stroke="#ff7f7f" d="M465.04,-508.54C403.36,-493.26 323.29,-471.62 269.57,-455.56"/>
<polygon fill="#ff7f7f" stroke="#ff7f7f" points="270.44,-452.17 259.86,-452.63 268.42,-458.87 270.44,-452.17"/>
</g>
<!-- Node0x56522f92d648&#45;&gt;Node0x56522f92d198 -->
<g id="edge8" class="edge">
<title>Node0x56522f92d648&#45;&gt;Node0x56522f92d198</title>
<path fill="none" stroke="#ff7f7f" d="M556,-508.42C556,-493.38 556,-478.34 556,-463.29"/>
<polygon fill="#ff7f7f" stroke="#ff7f7f" points="559.5,-462.88 556,-452.88 552.5,-462.88 559.5,-462.88"/>
</g>
<!-- Node0x56522f92d648&#45;&gt;Node0x56522f92d7d8 -->
<g id="edge9" class="edge">
<title>Node0x56522f92d648&#45;&gt;Node0x56522f92d7d8</title>
<path fill="none" stroke="#ff7f7f" d="M578.61,-508.48C605.38,-491.27 652.43,-465.86 693,-444.55 714.33,-433.35 737.77,-421.25 758.62,-411.05"/>
<polygon fill="#ff7f7f" stroke="#ff7f7f" points="760.22,-414.17 767.69,-406.66 757.17,-407.87 760.22,-414.17"/>
</g>
<!-- Node0x56522f92d648&#45;&gt;Node0x56522f92dd28 -->
<g id="edge11" class="edge">
<title>Node0x56522f92d648&#45;&gt;Node0x56522f92dd28</title>
<path fill="none" stroke="#ff7f7f" d="M625.63,-508.51C646.43,-504.34 669.97,-499.97 693.3,-495.92"/>
<polygon fill="#ff7f7f" stroke="#ff7f7f" points="694.01,-499.35 703.28,-494.21 692.83,-492.45 694.01,-499.35"/>
</g>
<!-- Node0x56522f92d648&#45;&gt;Node0x56522f92e7c8 -->
<g id="edge10" class="edge">
<title>Node0x56522f92d648&#45;&gt;Node0x56522f92e7c8</title>
<path fill="none" stroke="#ff7f7f" d="M621.82,-544.61C644.18,-552.8 669.5,-562.12 693,-569.55 716.24,-576.9 742.28,-583.73 764.67,-589.84"/>
<polygon fill="#ff7f7f" stroke="#ff7f7f" points="763.78,-593.22 774.35,-592.5 765.64,-586.47 763.78,-593.22"/>
</g>
<!-- Node0x56522f933548 -->
<g id="node7" class="node">
<title>Node0x56522f933548</title>
<polygon fill="none" stroke="black" points="920.5,-796.55 720.5,-796.55 720.5,-760.55 920.5,-760.55 920.5,-796.55"/>
<text text-anchor="middle" x="820.5" y="-774.85" font-family="Times,serif" font-size="14.00">{lib/libLLVMDemangle.a}</text>
</g>
<!-- Node0x56522f92d648&#45;&gt;Node0x56522f933548 -->
<g id="edge12" class="edge">
<title>Node0x56522f92d648&#45;&gt;Node0x56522f933548</title>
<path fill="none" stroke="black" d="M562.84,-544.63C577.46,-586.96 619.84,-692.93 693,-746.55 698.59,-750.64 704.64,-754.22 710.98,-757.33"/>
<polygon fill="black" stroke="black" points="709.88,-760.68 720.43,-761.58 712.74,-754.29 709.88,-760.68"/>
</g>
<!-- Node0x56522f92d7d8&#45;&gt;Node0x56522f933e08 -->
<g id="edge17" class="edge">
<title>Node0x56522f92d7d8&#45;&gt;Node0x56522f933e08</title>
<path fill="none" stroke="#ff7f7f" d="M692.86,-393.35C622.7,-396.46 533.95,-401.14 455,-407.55 427.89,-409.75 399.14,-412.53 371.25,-415.46"/>
<polygon fill="#ff7f7f" stroke="#ff7f7f" points="370.59,-412.01 361.01,-416.54 371.32,-418.97 370.59,-412.01"/>
</g>
<!-- Node0x56522f92d7d8&#45;&gt;Node0x56522f92d198 -->
<g id="edge13" class="edge">
<title>Node0x56522f92d7d8&#45;&gt;Node0x56522f92d198</title>
<path fill="none" stroke="#ff7f7f" d="M750.69,-406.63C722.69,-412.24 689.75,-418.21 659.06,-423.27"/>
<polygon fill="#ff7f7f" stroke="#ff7f7f" points="658.49,-419.81 649.18,-424.87 659.61,-426.72 658.49,-419.81"/>
</g>
<!-- Node0x56522f92d7d8&#45;&gt;Node0x56522f92d648 -->
<g id="edge14" class="edge">
<title>Node0x56522f92d7d8&#45;&gt;Node0x56522f92d648</title>
<path fill="none" stroke="#ff7f7f" d="M796.58,-406.76C771.19,-422.08 729.07,-443.61 693,-462.55 667.02,-476.2 638.38,-491.53 614.11,-503.9"/>
<polygon fill="#ff7f7f" stroke="#ff7f7f" points="612.38,-500.85 605.04,-508.48 615.54,-507.1 612.38,-500.85"/>
</g>
<!-- Node0x56522f92d7d8&#45;&gt;Node0x56522f92e7c8 -->
<g id="edge15" class="edge">
<title>Node0x56522f92d7d8&#45;&gt;Node0x56522f92e7c8</title>
<path fill="none" stroke="#ff7f7f" d="M751.38,-406.62C724.58,-417.37 696.62,-434.07 681,-459.55 667.87,-480.96 667.8,-551.19 681,-572.55 690.58,-588.04 705.93,-597.81 723.02,-603.85"/>
<polygon fill="#ff7f7f" stroke="#ff7f7f" points="722.08,-607.22 732.67,-606.83 724.15,-600.53 722.08,-607.22"/>
</g>
<!-- Node0x56522f931298 -->
<g id="node8" class="node">
<title>Node0x56522f931298</title>
<polygon fill="#ff7f7f" stroke="black" points="1233.5,-360.55 1006.5,-360.55 1006.5,-324.55 1233.5,-324.55 1233.5,-360.55"/>
<text text-anchor="middle" x="1120" y="-338.85" font-family="Times,serif" font-size="14.00">{lib/libLLVMBinaryFormat.a}</text>
</g>
<!-- Node0x56522f92d7d8&#45;&gt;Node0x56522f931298 -->
<g id="edge16" class="edge">
<title>Node0x56522f92d7d8&#45;&gt;Node0x56522f931298</title>
<path fill="none" stroke="#ff7f7f" d="M938.23,-370.5C957.22,-367.57 976.94,-364.52 996.07,-361.56"/>
<polygon fill="#ff7f7f" stroke="#ff7f7f" points="996.67,-365.01 1006.02,-360.02 995.6,-358.09 996.67,-365.01"/>
</g>
<!-- Node0x56522f930528 -->
<g id="node9" class="node">
<title>Node0x56522f930528</title>
<polygon fill="#ff7f7f" stroke="black" points="1196.5,-560.55 1043.5,-560.55 1043.5,-524.55 1196.5,-524.55 1196.5,-560.55"/>
<text text-anchor="middle" x="1120" y="-538.85" font-family="Times,serif" font-size="14.00">{lib/libLLVMMC.a}</text>
</g>
<!-- Node0x56522f92d7d8&#45;&gt;Node0x56522f930528 -->
<g id="edge18" class="edge">
<title>Node0x56522f92d7d8&#45;&gt;Node0x56522f930528</title>
<path fill="none" stroke="#ff7f7f" d="M890.45,-406.56C910.56,-416.11 931.53,-428.91 948,-444.55 971.1,-466.5 958.09,-488.01 984,-506.55 998.38,-516.84 1015.72,-523.44 1033.12,-527.83"/>
<polygon fill="#ff7f7f" stroke="#ff7f7f" points="1032.81,-531.36 1043.34,-530.18 1034.38,-524.53 1032.81,-531.36"/>
</g>
<!-- Node0x56522f92dd28&#45;&gt;Node0x56522f933e08 -->
<g id="edge32" class="edge">
<title>Node0x56522f92dd28&#45;&gt;Node0x56522f933e08</title>
<path fill="none" stroke="#ff7f7f" d="M703.24,-476.21C631.6,-473.11 537.9,-468.28 455,-461.55 427.89,-459.35 399.14,-456.57 371.25,-453.64"/>
<polygon fill="#ff7f7f" stroke="#ff7f7f" points="371.32,-450.13 361.01,-452.56 370.59,-457.09 371.32,-450.13"/>
</g>
<!-- Node0x56522f92dd28&#45;&gt;Node0x56522f92d198 -->
<g id="edge30" class="edge">
<title>Node0x56522f92dd28&#45;&gt;Node0x56522f92d198</title>
<path fill="none" stroke="#ff7f7f" d="M703.28,-466.9C680.38,-463 656.86,-458.73 635.57,-454.56"/>
<polygon fill="#ff7f7f" stroke="#ff7f7f" points="636.12,-451.1 625.63,-452.59 634.76,-457.97 636.12,-451.1"/>
</g>
<!-- Node0x56522f92dd28&#45;&gt;Node0x56522f92d648 -->
<g id="edge33" class="edge">
<title>Node0x56522f92dd28&#45;&gt;Node0x56522f92d648</title>
<path fill="none" stroke="#ff7f7f" d="M750.93,-498.58C725.38,-503.71 695.69,-509.13 667.33,-513.89"/>
<polygon fill="#ff7f7f" stroke="#ff7f7f" points="666.66,-510.45 657.36,-515.54 667.8,-517.36 666.66,-510.45"/>
</g>
<!-- Node0x56522f92dd28&#45;&gt;Node0x56522f92d7d8 -->
<g id="edge35" class="edge">
<title>Node0x56522f92dd28&#45;&gt;Node0x56522f92d7d8</title>
<path fill="none" stroke="#ff7f7f" d="M820.5,-462.42C820.5,-447.38 820.5,-432.34 820.5,-417.29"/>
<polygon fill="#ff7f7f" stroke="#ff7f7f" points="824,-416.88 820.5,-406.88 817,-416.88 824,-416.88"/>
</g>
<!-- Node0x56522f92dd28&#45;&gt;Node0x56522f92e7c8 -->
<g id="edge31" class="edge">
<title>Node0x56522f92dd28&#45;&gt;Node0x56522f92e7c8</title>
<path fill="none" stroke="#ff7f7f" d="M778.58,-498.58C720.65,-528.26 717.64,-557.95 769.53,-587.63"/>
<polygon fill="#ff7f7f" stroke="#ff7f7f" points="767.87,-590.72 778.33,-592.4 771.21,-584.56 767.87,-590.72"/>
</g>
<!-- Node0x56522f92dd28&#45;&gt;Node0x56522f931298 -->
<g id="edge34" class="edge">
<title>Node0x56522f92dd28&#45;&gt;Node0x56522f931298</title>
<path fill="none" stroke="#ff7f7f" d="M860.39,-462.51C914.4,-437.46 1012.07,-392.15 1070.69,-364.96"/>
<polygon fill="#ff7f7f" stroke="#ff7f7f" points="1072.5,-367.98 1080.1,-360.6 1069.55,-361.63 1072.5,-367.98"/>
</g>
<!-- Node0x56522f9309d8 -->
<g id="node10" class="node">
<title>Node0x56522f9309d8</title>
<polygon fill="#ff7f7f" stroke="black" points="1256,-506.55 984,-506.55 984,-470.55 1256,-470.55 1256,-506.55"/>
<text text-anchor="middle" x="1120" y="-484.85" font-family="Times,serif" font-size="14.00">{lib/libLLVMDebugInfoCodeView.a}</text>
</g>
<!-- Node0x56522f92dd28&#45;&gt;Node0x56522f9309d8 -->
<g id="edge36" class="edge">
<title>Node0x56522f92dd28&#45;&gt;Node0x56522f9309d8</title>
<path fill="none" stroke="#ff7f7f" d="M937.8,-477.07C949.51,-477.28 961.51,-477.56 973.48,-477.89"/>
<polygon fill="#ff7f7f" stroke="#ff7f7f" points="973.42,-481.39 983.52,-478.18 973.62,-474.39 973.42,-481.39"/>
</g>
<!-- Node0x56522f92e1d8 -->
<g id="node11" class="node">
<title>Node0x56522f92e1d8</title>
<polygon fill="#ff7f7f" stroke="black" points="1237,-452.55 1003,-452.55 1003,-416.55 1237,-416.55 1237,-452.55"/>
<text text-anchor="middle" x="1120" y="-430.85" font-family="Times,serif" font-size="14.00">{lib/libLLVMDebugInfoMSF.a}</text>
</g>
<!-- Node0x56522f92dd28&#45;&gt;Node0x56522f92e1d8 -->
<g id="edge37" class="edge">
<title>Node0x56522f92dd28&#45;&gt;Node0x56522f92e1d8</title>
<path fill="none" stroke="#ff7f7f" d="M899.28,-462.51C927.78,-457.46 960.83,-452.13 992.5,-447.43"/>
<polygon fill="#ff7f7f" stroke="#ff7f7f" points="993.35,-450.84 1002.73,-445.92 992.33,-443.92 993.35,-450.84"/>
</g>
<!-- Node0x56522f92e7c8&#45;&gt;Node0x56522f933e08 -->
<g id="edge19" class="edge">
<title>Node0x56522f92e7c8&#45;&gt;Node0x56522f933e08</title>
<path fill="none" stroke="#ff7f7f" d="M732.79,-604.3C657.88,-597.18 547.43,-582.55 455,-553.55 378.57,-529.57 296.04,-485.1 249.07,-457.83"/>
<polygon fill="#ff7f7f" stroke="#ff7f7f" points="250.57,-454.65 240.17,-452.62 247.03,-460.69 250.57,-454.65"/>
</g>
<!-- Node0x56522f92e7c8&#45;&gt;Node0x56522f92d198 -->
<g id="edge20" class="edge">
<title>Node0x56522f92e7c8&#45;&gt;Node0x56522f92d198</title>
<path fill="none" stroke="#ff7f7f" d="M732.86,-608.51C718.45,-603.9 704.48,-597.13 693,-587.55 663.38,-562.83 682.18,-537.79 657,-508.55 638.67,-487.27 611.7,-470.3 590.38,-457.7"/>
<polygon fill="#ff7f7f" stroke="#ff7f7f" points="592.03,-454.61 581.63,-452.57 588.49,-460.65 592.03,-454.61"/>
</g>
<!-- Node0x56522f92e7c8&#45;&gt;Node0x56522f92d648 -->
<g id="edge22" class="edge">
<title>Node0x56522f92e7c8&#45;&gt;Node0x56522f92d648</title>
<path fill="none" stroke="#ff7f7f" d="M732.7,-598.92C719.33,-595.46 705.74,-591.58 693,-587.55 658.51,-576.64 620.07,-561.67 592.89,-549.03"/>
<polygon fill="#ff7f7f" stroke="#ff7f7f" points="594.29,-545.82 583.76,-544.66 591.27,-552.13 594.29,-545.82"/>
</g>
<!-- Node0x56522f92e7c8&#45;&gt;Node0x56522f92d7d8 -->
<g id="edge24" class="edge">
<title>Node0x56522f92e7c8&#45;&gt;Node0x56522f92d7d8</title>
<path fill="none" stroke="#ff7f7f" d="M732.74,-606.59C707.33,-600.57 682.75,-588.8 669,-566.55 657.2,-547.46 657.26,-484.68 669,-465.55 684.94,-439.57 712.69,-422.01 740.12,-410.32"/>
<polygon fill="#ff7f7f" stroke="#ff7f7f" points="741.44,-413.57 749.4,-406.58 738.81,-407.08 741.44,-413.57"/>
</g>
<!-- Node0x56522f92e7c8&#45;&gt;Node0x56522f92dd28 -->
<g id="edge23" class="edge">
<title>Node0x56522f92e7c8&#45;&gt;Node0x56522f92dd28</title>
<path fill="none" stroke="#ff7f7f" d="M862.67,-592.4C920.43,-562.71 923.3,-533.03 871.25,-503.34"/>
<polygon fill="#ff7f7f" stroke="#ff7f7f" points="872.89,-500.25 862.42,-498.58 869.56,-506.41 872.89,-500.25"/>
</g>
<!-- Node0x56522f92e7c8&#45;&gt;Node0x56522f931298 -->
<g id="edge21" class="edge">
<title>Node0x56522f92e7c8&#45;&gt;Node0x56522f931298</title>
<path fill="none" stroke="#ff7f7f" d="M852.09,-592.53C880.54,-574.35 922.29,-543.83 948,-507.55 975.31,-469.01 952.37,-442.63 984,-407.55 1001.15,-388.54 1025.07,-374.53 1048.02,-364.5"/>
<polygon fill="#ff7f7f" stroke="#ff7f7f" points="1049.55,-367.65 1057.43,-360.58 1046.85,-361.19 1049.55,-367.65"/>
</g>
<!-- Node0x56522f92e7c8&#45;&gt;Node0x56522f930528 -->
<g id="edge25" class="edge">
<title>Node0x56522f92e7c8&#45;&gt;Node0x56522f930528</title>
<path fill="none" stroke="#ff7f7f" d="M876.76,-592.53C920.71,-580.99 982.98,-566.49 1033.37,-555.94"/>
<polygon fill="#ff7f7f" stroke="#ff7f7f" points="1034.21,-559.35 1043.29,-553.89 1032.78,-552.49 1034.21,-559.35"/>
</g>
<!-- Node0x56522f92ed18 -->
<g id="node12" class="node">
<title>Node0x56522f92ed18</title>
<polygon fill="#ff7f7f" stroke="black" points="1219.5,-214.55 1020.5,-214.55 1020.5,-178.55 1219.5,-178.55 1219.5,-214.55"/>
<text text-anchor="middle" x="1120" y="-192.85" font-family="Times,serif" font-size="14.00">{lib/libLLVMBitReader.a}</text>
</g>
<!-- Node0x56522f92e7c8&#45;&gt;Node0x56522f92ed18 -->
<g id="edge26" class="edge">
<title>Node0x56522f92e7c8&#45;&gt;Node0x56522f92ed18</title>
<path fill="none" stroke="#ff7f7f" d="M844.89,-592.47C874.26,-573.4 923.74,-541.28 948,-498.55 1002.56,-402.46 918.57,-341.6 984,-252.55 994.04,-238.88 1007.73,-227.96 1022.55,-219.42"/>
<polygon fill="#ff7f7f" stroke="#ff7f7f" points="1024.24,-222.49 1031.39,-214.67 1020.92,-216.32 1024.24,-222.49"/>
</g>
<!-- Node0x56522f92f268 -->
<g id="node13" class="node">
<title>Node0x56522f92f268</title>
<polygon fill="#ff7f7f" stroke="black" points="1201,-306.55 1039,-306.55 1039,-270.55 1201,-270.55 1201,-306.55"/>
<text text-anchor="middle" x="1120" y="-284.85" font-family="Times,serif" font-size="14.00">{lib/libLLVMCore.a}</text>
</g>
<!-- Node0x56522f92e7c8&#45;&gt;Node0x56522f92f268 -->
<g id="edge27" class="edge">
<title>Node0x56522f92e7c8&#45;&gt;Node0x56522f92f268</title>
<path fill="none" stroke="#ff7f7f" d="M844.37,-592.48C873.43,-573.27 922.82,-540.91 948,-498.55 992.37,-423.92 922.98,-368.31 984,-306.55 996.15,-294.26 1012.2,-286.75 1028.99,-282.52"/>
<polygon fill="#ff7f7f" stroke="#ff7f7f" points="1029.89,-285.91 1038.93,-280.39 1028.42,-279.06 1029.89,-285.91"/>
</g>
<!-- Node0x56522f92ffd8 -->
<g id="node14" class="node">
<title>Node0x56522f92ffd8</title>
<polygon fill="#ff7f7f" stroke="black" points="1219,-706.55 1021,-706.55 1021,-670.55 1219,-670.55 1219,-706.55"/>
<text text-anchor="middle" x="1120" y="-684.85" font-family="Times,serif" font-size="14.00">{lib/libLLVMMCParser.a}</text>
</g>
<!-- Node0x56522f92e7c8&#45;&gt;Node0x56522f92ffd8 -->
<g id="edge28" class="edge">
<title>Node0x56522f92e7c8&#45;&gt;Node0x56522f92ffd8</title>
<path fill="none" stroke="#ff7f7f" d="M900.36,-628.63C926.78,-636.57 956.5,-645.51 984,-652.55 1006.39,-658.29 1031.12,-663.54 1053.24,-668.34"/>
<polygon fill="#ff7f7f" stroke="#ff7f7f" points="1052.68,-671.8 1063.2,-670.52 1054.17,-664.97 1052.68,-671.8"/>
</g>
<!-- Node0x56522f931748 -->
<g id="node15" class="node">
<title>Node0x56522f931748</title>
<polygon fill="#ff7f7f" stroke="black" points="1212,-652.55 1028,-652.55 1028,-616.55 1212,-616.55 1212,-652.55"/>
<text text-anchor="middle" x="1120" y="-630.85" font-family="Times,serif" font-size="14.00">{lib/libLLVMTextAPI.a}</text>
</g>
<!-- Node0x56522f92e7c8&#45;&gt;Node0x56522f931748 -->
<g id="edge29" class="edge">
<title>Node0x56522f92e7c8&#45;&gt;Node0x56522f931748</title>
<path fill="none" stroke="#ff7f7f" d="M908.35,-611.36C942.53,-613.47 982.03,-616.58 1017.52,-619.93"/>
<polygon fill="#ff7f7f" stroke="#ff7f7f" points="1017.61,-623.45 1027.9,-620.92 1018.28,-616.48 1017.61,-623.45"/>
</g>
<!-- Node0x56522f931298&#45;&gt;Node0x56522f933e08 -->
<g id="edge39" class="edge">
<title>Node0x56522f931298&#45;&gt;Node0x56522f933e08</title>
<path fill="none" stroke="#ff7f7f" d="M1006.4,-332.02C986.94,-330.57 966.9,-329.32 948,-328.55 834.76,-323.92 805.67,-316.32 693,-328.55 544.77,-344.64 375.35,-387.76 281.88,-413.78"/>
<polygon fill="#ff7f7f" stroke="#ff7f7f" points="280.93,-410.41 272.25,-416.48 282.82,-417.15 280.93,-410.41"/>
</g>
<!-- Node0x56522f931298&#45;&gt;Node0x56522f92d198 -->
<g id="edge40" class="edge">
<title>Node0x56522f931298&#45;&gt;Node0x56522f92d198</title>
<path fill="none" stroke="#ff7f7f" d="M1006.11,-334.09C919,-330.76 796.32,-333.11 693,-361.55 655.86,-371.77 617.55,-393.53 591.09,-410.65"/>
<polygon fill="#ff7f7f" stroke="#ff7f7f" points="589.01,-407.83 582.59,-416.25 592.87,-413.67 589.01,-407.83"/>
</g>
<!-- Node0x56522f931298&#45;&gt;Node0x56522f92f268 -->
<g id="edge38" class="edge">
<title>Node0x56522f931298&#45;&gt;Node0x56522f92f268</title>
<path fill="none" stroke="#ff7f7f" d="M1174.31,-324.34C1179.16,-321.03 1181.27,-317.72 1180.64,-314.41"/>
<polygon fill="#ff7f7f" stroke="#ff7f7f" points="1183.3,-312.13 1174.21,-306.69 1177.92,-316.62 1183.3,-312.13"/>
</g>
<!-- Node0x56522f930528&#45;&gt;Node0x56522f92d198 -->
<g id="edge41" class="edge">
<title>Node0x56522f930528&#45;&gt;Node0x56522f92d198</title>
<path fill="none" stroke="#ff7f7f" d="M1043.4,-554.68C955.93,-565.49 809.05,-573.58 693,-529.55 673.53,-522.16 673.76,-511.91 657,-499.55 637.29,-485.01 614.45,-470.04 595.58,-458.13"/>
<polygon fill="#ff7f7f" stroke="#ff7f7f" points="597.27,-455.06 586.94,-452.71 593.55,-460.99 597.27,-455.06"/>
</g>
<!-- Node0x56522f930528&#45;&gt;Node0x56522f92d7d8 -->
<g id="edge42" class="edge">
<title>Node0x56522f930528&#45;&gt;Node0x56522f92d7d8</title>
<path fill="none" stroke="#ff7f7f" d="M1043.34,-547.44C1022.65,-543.89 1001.2,-536.86 984,-524.55 958.09,-506.01 971.1,-484.5 948,-462.55 923.92,-439.68 890.23,-422.9 863.67,-410.82"/>
<polygon fill="#ff7f7f" stroke="#ff7f7f" points="864.8,-407.49 854.24,-406.58 861.93,-413.87 864.8,-407.49"/>
</g>
<!-- Node0x56522f930528&#45;&gt;Node0x56522f92e7c8 -->
<g id="edge43" class="edge">
<title>Node0x56522f930528&#45;&gt;Node0x56522f92e7c8</title>
<path fill="none" stroke="#ff7f7f" d="M1063.48,-560.64C1022.71,-571.34 966.28,-584.56 918.17,-594.82"/>
<polygon fill="#ff7f7f" stroke="#ff7f7f" points="917.41,-591.41 908.35,-596.9 918.86,-598.26 917.41,-591.41"/>
</g>
<!-- Node0x56522f930528&#45;&gt;Node0x56522f931298 -->
<g id="edge45" class="edge">
<title>Node0x56522f930528&#45;&gt;Node0x56522f931298</title>
<path fill="none" stroke="#ff7f7f" d="M1043.17,-545.94C1013.1,-542.69 982.02,-532.48 966,-506.55 944.97,-472.53 944.97,-450.58 966,-416.55 981.07,-392.17 1006.71,-375.65 1032.78,-364.53"/>
<polygon fill="#ff7f7f" stroke="#ff7f7f" points="1034.41,-367.65 1042.39,-360.68 1031.81,-361.15 1034.41,-367.65"/>
</g>
<!-- Node0x56522f930528&#45;&gt;Node0x56522f92ffd8 -->
<g id="edge44" class="edge">
<title>Node0x56522f930528&#45;&gt;Node0x56522f92ffd8</title>
<path fill="none" stroke="#ff7f7f" d="M1043.47,-560.65C1015.99,-571.27 987.88,-587.85 972,-613.55 962.19,-629.43 962.19,-639.67 972,-655.55 981.08,-670.25 995.23,-679.58 1011.26,-685.33"/>
<polygon fill="#ff7f7f" stroke="#ff7f7f" points="1010.3,-688.69 1020.88,-688.31 1012.37,-682.01 1010.3,-688.69"/>
</g>
<!-- Node0x56522f9309d8&#45;&gt;Node0x56522f92d198 -->
<g id="edge46" class="edge">
<title>Node0x56522f9309d8&#45;&gt;Node0x56522f92d198</title>
<path fill="none" stroke="#ff7f7f" d="M1033.49,-506.61C946.42,-521.7 808.23,-536.52 693,-507.55 655.17,-498.04 616.4,-475.75 589.98,-458.28"/>
<polygon fill="#ff7f7f" stroke="#ff7f7f" points="591.76,-455.26 581.51,-452.57 587.85,-461.06 591.76,-455.26"/>
</g>
<!-- Node0x56522f9309d8&#45;&gt;Node0x56522f92d7d8 -->
<g id="edge47" class="edge">
<title>Node0x56522f9309d8&#45;&gt;Node0x56522f92d7d8</title>
<path fill="none" stroke="#ff7f7f" d="M1016.29,-470.53C1005.3,-467.86 994.36,-464.87 984,-461.55 942.31,-448.21 897.05,-427.3 864.91,-411.28"/>
<polygon fill="#ff7f7f" stroke="#ff7f7f" points="866.3,-408.06 855.79,-406.69 863.15,-414.31 866.3,-408.06"/>
</g>
<!-- Node0x56522f9309d8&#45;&gt;Node0x56522f92dd28 -->
<g id="edge48" class="edge">
<title>Node0x56522f9309d8&#45;&gt;Node0x56522f92dd28</title>
<path fill="none" stroke="#ff7f7f" d="M983.52,-491.63C971.71,-491.36 959.79,-491.02 948.05,-490.64"/>
<polygon fill="#ff7f7f" stroke="#ff7f7f" points="947.91,-487.13 937.8,-490.28 947.67,-494.13 947.91,-487.13"/>
</g>
<!-- Node0x56522f9309d8&#45;&gt;Node0x56522f92e1d8 -->
<g id="edge49" class="edge">
<title>Node0x56522f9309d8&#45;&gt;Node0x56522f92e1d8</title>
<path fill="none" stroke="#ff7f7f" d="M1120,-470.34C1120,-467.86 1120,-465.38 1120,-462.9"/>
<polygon fill="#ff7f7f" stroke="#ff7f7f" points="1123.5,-462.69 1120,-452.69 1116.5,-462.69 1123.5,-462.69"/>
</g>
<!-- Node0x56522f9309d8&#45;&gt;Node0x56522f92f268 -->
<g id="edge50" class="edge">
<title>Node0x56522f9309d8&#45;&gt;Node0x56522f92f268</title>
<path fill="none" stroke="#ff7f7f" d="M983.86,-471.74C976.86,-466.58 970.76,-460.26 966,-452.55 951.05,-428.35 951.05,-348.75 966,-324.55 979.44,-302.8 1003.49,-292.11 1028.64,-287.31"/>
<polygon fill="#ff7f7f" stroke="#ff7f7f" points="1029.38,-290.74 1038.7,-285.7 1028.27,-283.83 1029.38,-290.74"/>
</g>
<!-- Node0x56522f92e1d8&#45;&gt;Node0x56522f92d198 -->
<g id="edge51" class="edge">
<title>Node0x56522f92e1d8&#45;&gt;Node0x56522f92d198</title>
<path fill="none" stroke="#ff7f7f" d="M1002.9,-434.55C901.65,-434.55 756.21,-434.55 659.28,-434.55"/>
<polygon fill="#ff7f7f" stroke="#ff7f7f" points="659.17,-431.05 649.17,-434.55 659.17,-438.05 659.17,-431.05"/>
</g>
<!-- Node0x56522f92e1d8&#45;&gt;Node0x56522f92d7d8 -->
<g id="edge52" class="edge">
<title>Node0x56522f92e1d8&#45;&gt;Node0x56522f92d7d8</title>
<path fill="none" stroke="#ff7f7f" d="M1002.61,-416.55C984.76,-413.8 966.26,-410.93 948.21,-408.14"/>
<polygon fill="#ff7f7f" stroke="#ff7f7f" points="948.64,-404.67 938.23,-406.6 947.57,-411.59 948.64,-404.67"/>
</g>
<!-- Node0x56522f92e1d8&#45;&gt;Node0x56522f92dd28 -->
<g id="edge53" class="edge">
<title>Node0x56522f92e1d8&#45;&gt;Node0x56522f92dd28</title>
<path fill="none" stroke="#ff7f7f" d="M1041.3,-452.58C1012.79,-457.63 979.72,-462.96 948.03,-467.67"/>
<polygon fill="#ff7f7f" stroke="#ff7f7f" points="947.18,-464.26 937.8,-469.17 948.2,-471.18 947.18,-464.26"/>
</g>
<!-- Node0x56522f92ed18&#45;&gt;Node0x56522f933e08 -->
<g id="edge54" class="edge">
<title>Node0x56522f92ed18&#45;&gt;Node0x56522f933e08</title>
<path fill="none" stroke="#ff7f7f" d="M1020.18,-189.27C933.4,-184.83 804.03,-182.94 693,-200.55 583.46,-217.93 555.3,-228.22 455,-275.55 373.26,-314.12 286.64,-376.21 241.69,-410.26"/>
<polygon fill="#ff7f7f" stroke="#ff7f7f" points="239.36,-407.64 233.53,-416.48 243.6,-413.2 239.36,-407.64"/>
</g>
<!-- Node0x56522f92ed18&#45;&gt;Node0x56522f92d198 -->
<g id="edge55" class="edge">
<title>Node0x56522f92ed18&#45;&gt;Node0x56522f92d198</title>
<path fill="none" stroke="#ff7f7f" d="M1020.09,-197.57C929.45,-202.51 794.36,-220.25 693,-278.55 638.25,-310.04 594.56,-371.84 572.56,-407.48"/>
<polygon fill="#ff7f7f" stroke="#ff7f7f" points="569.37,-406 567.19,-416.37 575.36,-409.62 569.37,-406"/>
</g>
<!-- Node0x56522f92ed18&#45;&gt;Node0x56522f92d648 -->
<g id="edge56" class="edge">
<title>Node0x56522f92ed18&#45;&gt;Node0x56522f92d648</title>
<path fill="none" stroke="#ff7f7f" d="M1032.65,-214.61C1016.18,-219.25 999.31,-224.87 984,-231.55 966.6,-239.14 964.82,-245.73 948,-254.55 839.15,-311.62 777.63,-272.42 693,-361.55 660.47,-395.81 686.33,-424.53 657,-461.55 643.41,-478.71 623.99,-492.78 605.88,-503.39"/>
<polygon fill="#ff7f7f" stroke="#ff7f7f" points="604.12,-500.36 597.12,-508.31 607.55,-506.46 604.12,-500.36"/>
</g>
<!-- Node0x56522f92ed18&#45;&gt;Node0x56522f92d7d8 -->
<g id="edge58" class="edge">
<title>Node0x56522f92ed18&#45;&gt;Node0x56522f92d7d8</title>
<path fill="none" stroke="#ff7f7f" d="M1020.42,-206.76C1006.95,-211.71 994.25,-218.71 984,-228.55 941.36,-269.46 990.34,-315.32 948,-356.55 944.72,-359.75 941.16,-362.64 937.4,-365.26"/>
<polygon fill="#ff7f7f" stroke="#ff7f7f" points="935.51,-362.31 928.85,-370.55 939.2,-368.26 935.51,-362.31"/>
</g>
<!-- Node0x56522f92ed18&#45;&gt;Node0x56522f92dd28 -->
<g id="edge59" class="edge">
<title>Node0x56522f92ed18&#45;&gt;Node0x56522f92dd28</title>
<path fill="none" stroke="#ff7f7f" d="M1053.43,-214.63C1028.35,-224.64 1001.57,-239.63 984,-261.55 940.03,-316.39 991.26,-360.15 948,-415.55 933.24,-434.45 911.47,-448.37 890.14,-458.36"/>
<polygon fill="#ff7f7f" stroke="#ff7f7f" points="888.44,-455.29 880.72,-462.54 891.28,-461.68 888.44,-455.29"/>
</g>
<!-- Node0x56522f92ed18&#45;&gt;Node0x56522f92e7c8 -->
<g id="edge57" class="edge">
<title>Node0x56522f92ed18&#45;&gt;Node0x56522f92e7c8</title>
<path fill="none" stroke="#ff7f7f" d="M1072.29,-214.63C1042.28,-225.24 1005.1,-241.83 984,-270.55 918.57,-359.6 1002.56,-420.46 948,-516.55 931.29,-545.98 902.62,-570.38 876.79,-587.11"/>
<polygon fill="#ff7f7f" stroke="#ff7f7f" points="874.8,-584.23 868.17,-592.49 878.5,-590.17 874.8,-584.23"/>
</g>
<!-- Node0x56522f92ed18&#45;&gt;Node0x56522f92f268 -->
<g id="edge60" class="edge">
<title>Node0x56522f92ed18&#45;&gt;Node0x56522f92f268</title>
<path fill="none" stroke="#ff7f7f" d="M1167.27,-214.7C1200.54,-231.63 1203.46,-248.57 1176.04,-265.51"/>
<polygon fill="#ff7f7f" stroke="#ff7f7f" points="1174.07,-262.6 1167.04,-270.52 1177.47,-268.71 1174.07,-262.6"/>
</g>
<!-- Node0x56522f92fbc8 -->
<g id="node16" class="node">
<title>Node0x56522f92fbc8</title>
<polygon fill="#ff7f7f" stroke="black" points="1768,-241.55 1519,-241.55 1519,-205.55 1768,-205.55 1768,-241.55"/>
<text text-anchor="middle" x="1643.5" y="-219.85" font-family="Times,serif" font-size="14.00">{lib/libLLVMBitstreamReader.a}</text>
</g>
<!-- Node0x56522f92ed18&#45;&gt;Node0x56522f92fbc8 -->
<g id="edge61" class="edge">
<title>Node0x56522f92ed18&#45;&gt;Node0x56522f92fbc8</title>
<path fill="none" stroke="#ff7f7f" d="M1219.7,-196.24C1301.53,-198.92 1418.63,-204.79 1508.86,-210.65"/>
<polygon fill="#ff7f7f" stroke="#ff7f7f" points="1508.68,-214.15 1518.89,-211.31 1509.14,-207.16 1508.68,-214.15"/>
</g>
<!-- Node0x56522f92f268&#45;&gt;Node0x56522f933e08 -->
<g id="edge62" class="edge">
<title>Node0x56522f92f268&#45;&gt;Node0x56522f933e08</title>
<path fill="none" stroke="#ff7f7f" d="M1038.58,-282.88C1009.99,-281.12 977.58,-279.42 948,-278.55 727.86,-272.12 664.87,-261.77 455,-328.55 383.08,-351.44 303.54,-388.2 255.3,-411.86"/>
<polygon fill="#ff7f7f" stroke="#ff7f7f" points="253.49,-408.84 246.07,-416.4 256.59,-415.12 253.49,-408.84"/>
</g>
<!-- Node0x56522f92f268&#45;&gt;Node0x56522f92d198 -->
<g id="edge63" class="edge">
<title>Node0x56522f92f268&#45;&gt;Node0x56522f92d198</title>
<path fill="none" stroke="#ff7f7f" d="M1038.97,-282.98C950.96,-279.79 806.92,-283.33 693,-328.55 648.12,-346.37 605.8,-383.82 580.63,-409.09"/>
<polygon fill="#ff7f7f" stroke="#ff7f7f" points="577.87,-406.9 573.39,-416.5 582.88,-411.79 577.87,-406.9"/>
</g>
<!-- Node0x56522f92f268&#45;&gt;Node0x56522f92d7d8 -->
<g id="edge65" class="edge">
<title>Node0x56522f92f268&#45;&gt;Node0x56522f92d7d8</title>
<path fill="none" stroke="#ff7f7f" d="M1038.79,-295.73C1019.95,-299.76 1000.56,-305.99 984,-315.55 963,-327.68 968.69,-343.9 948,-356.55 941.76,-360.37 935.07,-363.74 928.16,-366.7"/>
<polygon fill="#ff7f7f" stroke="#ff7f7f" points="926.61,-363.55 918.61,-370.5 929.2,-370.05 926.61,-363.55"/>
</g>
<!-- Node0x56522f92f268&#45;&gt;Node0x56522f92e7c8 -->
<g id="edge67" class="edge">
<title>Node0x56522f92f268&#45;&gt;Node0x56522f92e7c8</title>
<path fill="none" stroke="#ff7f7f" d="M1038.93,-297.7C1018.66,-301.99 998.53,-309.84 984,-324.55 922.98,-386.31 992.37,-441.92 948,-516.55 930.64,-545.75 901.78,-570.2 876,-587.01"/>
<polygon fill="#ff7f7f" stroke="#ff7f7f" points="874.01,-584.13 867.4,-592.42 877.73,-590.06 874.01,-584.13"/>
</g>
<!-- Node0x56522f92f268&#45;&gt;Node0x56522f931298 -->
<g id="edge66" class="edge">
<title>Node0x56522f92f268&#45;&gt;Node0x56522f931298</title>
<path fill="none" stroke="#ff7f7f" d="M1065.79,-306.69C1061.04,-309.91 1058.88,-313.13 1059.3,-316.34"/>
<polygon fill="#ff7f7f" stroke="#ff7f7f" points="1056.71,-318.71 1065.69,-324.34 1062.18,-314.34 1056.71,-318.71"/>
</g>
<!-- Node0x56522f92f268&#45;&gt;Node0x56522f92ed18 -->
<g id="edge64" class="edge">
<title>Node0x56522f92f268&#45;&gt;Node0x56522f92ed18</title>
<path fill="none" stroke="#ff7f7f" d="M1072.96,-270.52C1039.55,-253.59 1036.49,-236.65 1063.77,-219.71"/>
<polygon fill="#ff7f7f" stroke="#ff7f7f" points="1065.71,-222.64 1072.73,-214.7 1062.3,-216.53 1065.71,-222.64"/>
</g>
<!-- Node0x56522f92f718 -->
<g id="node17" class="node">
<title>Node0x56522f92f718</title>
<polygon fill="#ff7f7f" stroke="black" points="1483,-269.55 1292,-269.55 1292,-233.55 1483,-233.55 1483,-269.55"/>
<text text-anchor="middle" x="1387.5" y="-247.85" font-family="Times,serif" font-size="14.00">{lib/libLLVMRemarks.a}</text>
</g>
<!-- Node0x56522f92f268&#45;&gt;Node0x56522f92f718 -->
<g id="edge68" class="edge">
<title>Node0x56522f92f268&#45;&gt;Node0x56522f92f718</title>
<path fill="none" stroke="#ff7f7f" d="M1201.02,-271.15C1226.34,-267.12 1254.71,-263.04 1281.5,-259.57"/>
<polygon fill="#ff7f7f" stroke="#ff7f7f" points="1282.21,-263 1291.69,-258.27 1281.32,-256.06 1282.21,-263"/>
</g>
<!-- Node0x56522f92ffd8&#45;&gt;Node0x56522f933e08 -->
<g id="edge69" class="edge">
<title>Node0x56522f92ffd8&#45;&gt;Node0x56522f933e08</title>
<path fill="none" stroke="#ff7f7f" d="M1106.02,-706.57C1080.38,-740.41 1019.49,-812.5 948,-839.55 842,-879.65 804.3,-860.94 693,-839.55 581.15,-818.05 546.26,-812.69 455,-744.55 345.52,-662.8 258.29,-520.41 225.04,-461.38"/>
<polygon fill="#ff7f7f" stroke="#ff7f7f" points="228.1,-459.67 220.17,-452.64 221.98,-463.08 228.1,-459.67"/>
</g>
<!-- Node0x56522f92ffd8&#45;&gt;Node0x56522f92d198 -->
<g id="edge70" class="edge">
<title>Node0x56522f92ffd8&#45;&gt;Node0x56522f92d198</title>
<path fill="none" stroke="#ff7f7f" d="M1020.85,-695.96C910.51,-702.08 740.54,-704.14 693,-663.55 636.25,-615.1 699.46,-560.92 657,-499.55 644.91,-482.08 626.45,-468.17 608.66,-457.77"/>
<polygon fill="#ff7f7f" stroke="#ff7f7f" points="609.9,-454.46 599.46,-452.66 606.5,-460.58 609.9,-454.46"/>
</g>
<!-- Node0x56522f92ffd8&#45;&gt;Node0x56522f92e7c8 -->
<g id="edge71" class="edge">
<title>Node0x56522f92ffd8&#45;&gt;Node0x56522f92e7c8</title>
<path fill="none" stroke="#ff7f7f" d="M1020.66,-679.09C1008.27,-676.47 995.81,-673.58 984,-670.55 942.6,-659.95 896.14,-645.06 863.54,-632.48"/>
<polygon fill="#ff7f7f" stroke="#ff7f7f" points="864.47,-629.09 853.89,-628.66 861.9,-635.6 864.47,-629.09"/>
</g>
<!-- Node0x56522f92ffd8&#45;&gt;Node0x56522f930528 -->
<g id="edge72" class="edge">
<title>Node0x56522f92ffd8&#45;&gt;Node0x56522f930528</title>
<path fill="none" stroke="#ff7f7f" d="M1020.81,-687.86C996.27,-682.25 973.23,-670.95 960,-649.55 935.33,-609.63 985.88,-581.3 1036.55,-563.87"/>
<polygon fill="#ff7f7f" stroke="#ff7f7f" points="1037.94,-567.1 1046.33,-560.63 1035.74,-560.45 1037.94,-567.1"/>
</g>
<!-- Node0x56522f92ffd8&#45;&gt;Node0x56522f92f268 -->
<g id="edge73" class="edge">
<title>Node0x56522f92ffd8&#45;&gt;Node0x56522f92f268</title>
<path fill="none" stroke="#ff7f7f" d="M1020.88,-688.11C998.63,-682.66 978.05,-672.05 966,-652.55 946.84,-621.55 946.84,-355.55 966,-324.55 979.44,-302.8 1003.49,-292.11 1028.64,-287.31"/>
<polygon fill="#ff7f7f" stroke="#ff7f7f" points="1029.38,-290.74 1038.7,-285.7 1028.27,-283.83 1029.38,-290.74"/>
</g>
<!-- Node0x56522f931748&#45;&gt;Node0x56522f933e08 -->
<g id="edge75" class="edge">
<title>Node0x56522f931748&#45;&gt;Node0x56522f933e08</title>
<path fill="none" stroke="#ff7f7f" d="M1027.94,-638.31C1011.69,-642.75 996.11,-650.01 984,-661.55 936.26,-707.08 1000,-764.95 948,-805.55 858.67,-875.3 800.3,-842.03 693,-805.55 483.96,-734.48 294.73,-532.27 232.22,-460.34"/>
<polygon fill="#ff7f7f" stroke="#ff7f7f" points="234.75,-457.91 225.57,-452.62 229.45,-462.48 234.75,-457.91"/>
</g>
<!-- Node0x56522f931748&#45;&gt;Node0x56522f92d198 -->
<g id="edge74" class="edge">
<title>Node0x56522f931748&#45;&gt;Node0x56522f92d198</title>
<path fill="none" stroke="#ff7f7f" d="M1027.76,-647.87C918.33,-661.72 743.33,-676.44 693,-637.55 642.84,-598.8 694.08,-550.96 657,-499.55 644.35,-482.02 625.39,-467.97 607.36,-457.49"/>
<polygon fill="#ff7f7f" stroke="#ff7f7f" points="609.06,-454.43 598.62,-452.63 605.66,-460.55 609.06,-454.43"/>
</g>
<!-- Node0x56522f931748&#45;&gt;Node0x56522f92d7d8 -->
<g id="edge78" class="edge">
<title>Node0x56522f931748&#45;&gt;Node0x56522f92d7d8</title>
<path fill="none" stroke="#ff7f7f" d="M1055.93,-616.53C1030.49,-606.41 1002.77,-591.32 984,-569.55 948.75,-528.67 982.72,-494.89 948,-453.55 932.23,-434.77 909.66,-420.78 887.93,-410.69"/>
<polygon fill="#ff7f7f" stroke="#ff7f7f" points="889.26,-407.45 878.7,-406.6 886.43,-413.85 889.26,-407.45"/>
</g>
<!-- Node0x56522f931748&#45;&gt;Node0x56522f92e7c8 -->
<g id="edge76" class="edge">
<title>Node0x56522f931748&#45;&gt;Node0x56522f92e7c8</title>
<path fill="none" stroke="#ff7f7f" d="M1027.9,-633.48C993.29,-631.28 953.76,-628.13 918.62,-624.76"/>
<polygon fill="#ff7f7f" stroke="#ff7f7f" points="918.64,-621.25 908.35,-623.76 917.96,-628.21 918.64,-621.25"/>
</g>
<!-- Node0x56522f931748&#45;&gt;Node0x56522f92f718 -->
<g id="edge77" class="edge">
<title>Node0x56522f931748&#45;&gt;Node0x56522f92f718</title>
<path fill="none" stroke="#ff7f7f" d="M1212.28,-625.78C1228.22,-620.85 1243.64,-613.48 1256,-602.55 1354.52,-515.48 1378.82,-346.92 1384.69,-279.97"/>
<polygon fill="#ff7f7f" stroke="#ff7f7f" points="1388.19,-280.01 1385.5,-269.76 1381.22,-279.45 1388.19,-280.01"/>
</g>
<!-- Node0x56522f92fbc8&#45;&gt;Node0x56522f92d198 -->
<g id="edge79" class="edge">
<title>Node0x56522f92fbc8&#45;&gt;Node0x56522f92d198</title>
<path fill="none" stroke="#ff7f7f" d="M1609.91,-205.33C1480.75,-135.78 997.06,99.01 693,-104.55 588.86,-174.27 564.38,-339.79 558.7,-406.23"/>
<polygon fill="#ff7f7f" stroke="#ff7f7f" points="555.19,-406.13 557.91,-416.37 562.17,-406.67 555.19,-406.13"/>
</g>
<!-- Node0x56522f92fbc8&#45;&gt;Node0x56522f92d7d8 -->
<g id="edge80" class="edge">
<title>Node0x56522f92fbc8&#45;&gt;Node0x56522f92d7d8</title>
<path fill="none" stroke="#ff7f7f" d="M1606.62,-241.55C1539.69,-274.11 1390.38,-341.97 1256,-369.55 1157.82,-389.7 1044.63,-394.07 958.4,-393.59"/>
<polygon fill="#ff7f7f" stroke="#ff7f7f" points="958.31,-390.09 948.28,-393.52 958.26,-397.09 958.31,-390.09"/>
</g>
<!-- Node0x56522f92fbc8&#45;&gt;Node0x56522f92ed18 -->
<g id="edge81" class="edge">
<title>Node0x56522f92fbc8&#45;&gt;Node0x56522f92ed18</title>
<path fill="none" stroke="#ff7f7f" d="M1518.89,-222.99C1431.04,-219.73 1314.15,-213.6 1229.82,-207.79"/>
<polygon fill="#ff7f7f" stroke="#ff7f7f" points="1229.92,-204.29 1219.7,-207.08 1229.44,-211.27 1229.92,-204.29"/>
</g>
<!-- Node0x56522f92fbc8&#45;&gt;Node0x56522f92f718 -->
<g id="edge82" class="edge">
<title>Node0x56522f92fbc8&#45;&gt;Node0x56522f92f718</title>
<path fill="none" stroke="#ff7f7f" d="M1539.31,-241.57C1524.06,-243.39 1508.33,-245.13 1493.05,-246.68"/>
<polygon fill="#ff7f7f" stroke="#ff7f7f" points="1492.68,-243.2 1483.08,-247.68 1493.38,-250.17 1492.68,-243.2"/>
</g>
<!-- Node0x56522f92f718&#45;&gt;Node0x56522f933e08 -->
<g id="edge88" class="edge">
<title>Node0x56522f92f718&#45;&gt;Node0x56522f933e08</title>
<path fill="none" stroke="#ff7f7f" d="M1377.14,-233.48C1358.97,-200.65 1315.43,-132.14 1256,-105.55 928.62,40.92 774.75,-41.09 455,-203.55 354.81,-254.46 267.08,-359.37 229.7,-408.32"/>
<polygon fill="#ff7f7f" stroke="#ff7f7f" points="226.75,-406.42 223.52,-416.51 232.34,-410.64 226.75,-406.42"/>
</g>
<!-- Node0x56522f92f718&#45;&gt;Node0x56522f92d198 -->
<g id="edge83" class="edge">
<title>Node0x56522f92f718&#45;&gt;Node0x56522f92d198</title>
<path fill="none" stroke="#ff7f7f" d="M1365.72,-233.2C1341.39,-213.05 1298.94,-181.92 1256,-169.55 1015.19,-100.17 903.27,-64.22 693,-200.55 617.57,-249.46 578.93,-355.96 564.21,-406.65"/>
<polygon fill="#ff7f7f" stroke="#ff7f7f" points="560.84,-405.72 561.51,-416.3 567.58,-407.61 560.84,-405.72"/>
</g>
<!-- Node0x56522f92f718&#45;&gt;Node0x56522f92d648 -->
<g id="edge86" class="edge">
<title>Node0x56522f92f718&#45;&gt;Node0x56522f92d648</title>
<path fill="none" stroke="#ff7f7f" d="M1384.29,-269.62C1374.3,-348.24 1330.46,-659.15 1256,-715.55 1206.1,-753.35 748.49,-723.52 693,-694.55 633.05,-663.25 590.1,-592.76 569.93,-553.77"/>
<polygon fill="#ff7f7f" stroke="#ff7f7f" points="572.93,-551.93 565.3,-544.58 566.68,-555.08 572.93,-551.93"/>
</g>
<!-- Node0x56522f92f718&#45;&gt;Node0x56522f92d7d8 -->
<g id="edge84" class="edge">
<title>Node0x56522f92f718&#45;&gt;Node0x56522f92d7d8</title>
<path fill="none" stroke="#ff7f7f" d="M1291.65,-242.1C1188.39,-233.82 1031.61,-227.79 984,-261.55 947.17,-287.66 981.7,-326.5 948,-356.55 944.34,-359.82 940.39,-362.76 936.22,-365.41"/>
<polygon fill="#ff7f7f" stroke="#ff7f7f" points="934.35,-362.45 927.41,-370.45 937.83,-368.53 934.35,-362.45"/>
</g>
<!-- Node0x56522f92f718&#45;&gt;Node0x56522f92e7c8 -->
<g id="edge89" class="edge">
<title>Node0x56522f92f718&#45;&gt;Node0x56522f92e7c8</title>
<path fill="none" stroke="#ff7f7f" d="M1385.27,-269.83C1380.44,-325.58 1357.65,-494.23 1256,-569.55 1229.53,-589.17 1038.46,-601.05 918.67,-606.66"/>
<polygon fill="#ff7f7f" stroke="#ff7f7f" points="918.21,-603.18 908.39,-607.13 918.54,-610.17 918.21,-603.18"/>
</g>
<!-- Node0x56522f92f718&#45;&gt;Node0x56522f92ed18 -->
<g id="edge85" class="edge">
<title>Node0x56522f92f718&#45;&gt;Node0x56522f92ed18</title>
<path fill="none" stroke="#ff7f7f" d="M1299.37,-233.5C1273.34,-228.11 1244.65,-222.17 1218.03,-216.65"/>
<polygon fill="#ff7f7f" stroke="#ff7f7f" points="1218.44,-213.16 1207.93,-214.56 1217.02,-220.02 1218.44,-213.16"/>
</g>
<!-- Node0x56522f92f718&#45;&gt;Node0x56522f92f268 -->
<g id="edge87" class="edge">
<title>Node0x56522f92f718&#45;&gt;Node0x56522f92f268</title>
<path fill="none" stroke="#ff7f7f" d="M1302.5,-269.59C1273.47,-274.16 1240.83,-278.74 1211.32,-282.4"/>
<polygon fill="#ff7f7f" stroke="#ff7f7f" points="1210.52,-278.97 1201.02,-283.65 1211.37,-285.92 1210.52,-278.97"/>
</g>
<!-- Node0x56522f92f718&#45;&gt;Node0x56522f92fbc8 -->
<g id="edge90" class="edge">
<title>Node0x56522f92f718&#45;&gt;Node0x56522f92fbc8</title>
<path fill="none" stroke="#ff7f7f" d="M1483.08,-234.57C1491.49,-233.54 1500.11,-232.53 1508.77,-231.55"/>
<polygon fill="#ff7f7f" stroke="#ff7f7f" points="1509.39,-235 1518.95,-230.42 1508.62,-228.05 1509.39,-235"/>
</g>
</g>
</svg>
