<?xml version="1.0" encoding="UTF-8" standalone="no"?>
<!DOCTYPE svg PUBLIC "-//W3C//DTD SVG 1.1//EN"
 "http://www.w3.org/Graphics/SVG/1.1/DTD/svg11.dtd">
<!-- Generated by graphviz version 2.43.0 (0)
 -->
<!-- Title: bin/llvm&#45;rc Pages: 1 -->
<svg width="2206pt" height="476pt"
 viewBox="0.00 0.00 2206.00 475.60" xmlns="http://www.w3.org/2000/svg" xmlns:xlink="http://www.w3.org/1999/xlink">
<g id="graph0" class="graph" transform="scale(1 1) rotate(0) translate(4 471.6)">
<title>bin/llvm&#45;rc</title>
<polygon fill="white" stroke="transparent" points="-4,4 -4,-471.6 2202,-471.6 2202,4 -4,4"/>
<text text-anchor="middle" x="1099" y="-7.8" font-family="Times,serif" font-size="14.00">bin/llvm&#45;rc</text>
<!-- Node0x564903b2a458 -->
<g id="node1" class="node">
<title>Node0x564903b2a458</title>
<polygon fill="#ff7f7f" stroke="black" points="387,-293.01 0,-293.01 0,-257.01 387,-257.01 387,-293.01"/>
<text text-anchor="middle" x="193.5" y="-271.31" font-family="Times,serif" font-size="14.00">{tools/llvm&#45;rc/CMakeFiles/llvm&#45;rc.dir/llvm&#45;rc.cpp.o}</text>
</g>
<!-- Node0x564903b297d8 -->
<g id="node2" class="node">
<title>Node0x564903b297d8</title>
<polygon fill="#ff7f7f" stroke="black" points="898,-376.01 423,-376.01 423,-340.01 898,-340.01 898,-376.01"/>
<text text-anchor="middle" x="660.5" y="-354.31" font-family="Times,serif" font-size="14.00">{tools/llvm&#45;rc/CMakeFiles/llvm&#45;rc.dir/ResourceFileWriter.cpp.o}</text>
</g>
<!-- Node0x564903b2a458&#45;&gt;Node0x564903b297d8 -->
<g id="edge1" class="edge">
<title>Node0x564903b2a458&#45;&gt;Node0x564903b297d8</title>
<path fill="none" stroke="#ff7f7f" d="M304.53,-293.05C341.98,-301.06 384.19,-310.07 423,-317.01 468.59,-325.17 519.46,-332.3 562.31,-338.5"/>
<polygon fill="#ff7f7f" stroke="#ff7f7f" points="562.05,-342 572.45,-339.97 563.06,-335.07 562.05,-342"/>
</g>
<!-- Node0x564903b2b218 -->
<g id="node3" class="node">
<title>Node0x564903b2b218</title>
<polygon fill="#ff7f7f" stroke="black" points="2198,-267.01 1684,-267.01 1684,-231.01 2198,-231.01 2198,-267.01"/>
<text text-anchor="middle" x="1941" y="-245.31" font-family="Times,serif" font-size="14.00">{tools/llvm&#45;rc/CMakeFiles/llvm&#45;rc.dir/ResourceScriptCppFilter.cpp.o}</text>
</g>
<!-- Node0x564903b2a458&#45;&gt;Node0x564903b2b218 -->
<g id="edge2" class="edge">
<title>Node0x564903b2a458&#45;&gt;Node0x564903b2b218</title>
<path fill="none" stroke="#ff7f7f" d="M238.31,-256.86C283.69,-238.87 357.08,-212.02 423,-198.01 556.35,-169.67 1535.54,-51.95 1648,-129.01 1684.56,-154.06 1648.8,-195.07 1684,-222.01 1685.43,-223.11 1686.89,-224.18 1688.35,-225.22"/>
<polygon fill="#ff7f7f" stroke="#ff7f7f" points="1686.68,-228.31 1696.96,-230.89 1690.54,-222.46 1686.68,-228.31"/>
</g>
<!-- Node0x564903b2aa98 -->
<g id="node4" class="node">
<title>Node0x564903b2aa98</title>
<polygon fill="#ff7f7f" stroke="black" points="1648,-360.01 1156,-360.01 1156,-324.01 1648,-324.01 1648,-360.01"/>
<text text-anchor="middle" x="1402" y="-338.31" font-family="Times,serif" font-size="14.00">{tools/llvm&#45;rc/CMakeFiles/llvm&#45;rc.dir/ResourceScriptParser.cpp.o}</text>
</g>
<!-- Node0x564903b2a458&#45;&gt;Node0x564903b2aa98 -->
<g id="edge3" class="edge">
<title>Node0x564903b2a458&#45;&gt;Node0x564903b2aa98</title>
<path fill="none" stroke="#ff7f7f" d="M387.01,-280.6C598.09,-290.26 936.96,-308.95 1164.17,-323.37"/>
<polygon fill="#ff7f7f" stroke="#ff7f7f" points="1164.02,-326.86 1174.23,-324.01 1164.47,-319.88 1164.02,-326.86"/>
</g>
<!-- Node0x564903b2ac28 -->
<g id="node5" class="node">
<title>Node0x564903b2ac28</title>
<polygon fill="#ff7f7f" stroke="black" points="2182,-415.01 1700,-415.01 1700,-379.01 2182,-379.01 2182,-415.01"/>
<text text-anchor="middle" x="1941" y="-393.31" font-family="Times,serif" font-size="14.00">{tools/llvm&#45;rc/CMakeFiles/llvm&#45;rc.dir/ResourceScriptStmt.cpp.o}</text>
</g>
<!-- Node0x564903b2a458&#45;&gt;Node0x564903b2ac28 -->
<g id="edge4" class="edge">
<title>Node0x564903b2a458&#45;&gt;Node0x564903b2ac28</title>
<path fill="none" stroke="#ff7f7f" d="M232.63,-293.12C276.51,-317.46 351.74,-358.83 423,-376.01 893.65,-489.49 1470.56,-446.19 1758.46,-416.08"/>
<polygon fill="#ff7f7f" stroke="#ff7f7f" points="1759,-419.54 1768.58,-415.02 1758.27,-412.58 1759,-419.54"/>
</g>
<!-- Node0x564903b2a408 -->
<g id="node6" class="node">
<title>Node0x564903b2a408</title>
<polygon fill="#ff7f7f" stroke="black" points="2185.5,-213.01 1696.5,-213.01 1696.5,-177.01 2185.5,-177.01 2185.5,-213.01"/>
<text text-anchor="middle" x="1941" y="-191.31" font-family="Times,serif" font-size="14.00">{tools/llvm&#45;rc/CMakeFiles/llvm&#45;rc.dir/ResourceScriptToken.cpp.o}</text>
</g>
<!-- Node0x564903b2a458&#45;&gt;Node0x564903b2a408 -->
<g id="edge5" class="edge">
<title>Node0x564903b2a458&#45;&gt;Node0x564903b2a408</title>
<path fill="none" stroke="#ff7f7f" d="M215.33,-256.81C253.43,-224.8 338.25,-159.34 423,-133.01 943.14,28.57 1110.2,-12.87 1648,-99.01 1735.42,-113.01 1832.17,-149.18 1889.44,-172.91"/>
<polygon fill="#ff7f7f" stroke="#ff7f7f" points="1888.39,-176.27 1898.97,-176.9 1891.1,-169.81 1888.39,-176.27"/>
</g>
<!-- Node0x564903b29288 -->
<g id="node7" class="node">
<title>Node0x564903b29288</title>
<polygon fill="#ff7f7f" stroke="black" points="1490,-174.01 1314,-174.01 1314,-138.01 1490,-138.01 1490,-174.01"/>
<text text-anchor="middle" x="1402" y="-152.31" font-family="Times,serif" font-size="14.00">{lib/libLLVMOption.a}</text>
</g>
<!-- Node0x564903b2a458&#45;&gt;Node0x564903b29288 -->
<g id="edge6" class="edge">
<title>Node0x564903b2a458&#45;&gt;Node0x564903b29288</title>
<path fill="none" stroke="#ff7f7f" d="M275.35,-256.99C319.04,-250.68 373.94,-244.21 423,-239.01 745.32,-204.81 1128.11,-170.68 1303.92,-159.05"/>
<polygon fill="#ff7f7f" stroke="#ff7f7f" points="1304.17,-162.54 1313.93,-158.4 1303.72,-155.56 1304.17,-162.54"/>
</g>
<!-- Node0x564903b2a1d8 -->
<g id="node8" class="node">
<title>Node0x564903b2a1d8</title>
<polygon fill="#ff7f7f" stroke="black" points="1120,-266.01 934,-266.01 934,-230.01 1120,-230.01 1120,-266.01"/>
<text text-anchor="middle" x="1027" y="-244.31" font-family="Times,serif" font-size="14.00">{lib/libLLVMSupport.a}</text>
</g>
<!-- Node0x564903b2a458&#45;&gt;Node0x564903b2a1d8 -->
<g id="edge7" class="edge">
<title>Node0x564903b2a458&#45;&gt;Node0x564903b2a1d8</title>
<path fill="none" stroke="#ff7f7f" d="M387.09,-262.96C554.47,-255.94 790.43,-248.67 923.77,-246.71"/>
<polygon fill="#ff7f7f" stroke="#ff7f7f" points="924.03,-250.21 933.98,-246.57 923.93,-243.21 924.03,-250.21"/>
</g>
<!-- Node0x564903b297d8&#45;&gt;Node0x564903b2a458 -->
<g id="edge8" class="edge">
<title>Node0x564903b297d8&#45;&gt;Node0x564903b2a458</title>
<path fill="none" stroke="#ff7f7f" d="M452.33,-340.01C442.4,-338.39 432.58,-336.72 423,-335.01 363.36,-324.34 295.7,-308.8 249.58,-295.91"/>
<polygon fill="#ff7f7f" stroke="#ff7f7f" points="250.37,-292.49 239.79,-293.12 248.45,-299.23 250.37,-292.49"/>
</g>
<!-- Node0x564903b297d8&#45;&gt;Node0x564903b2ac28 -->
<g id="edge9" class="edge">
<title>Node0x564903b297d8&#45;&gt;Node0x564903b2ac28</title>
<path fill="none" stroke="#ff7f7f" d="M898.23,-359.85C1123.26,-364.92 1460.46,-375.18 1689.83,-383.89"/>
<polygon fill="#ff7f7f" stroke="#ff7f7f" points="1689.86,-387.4 1699.98,-384.28 1690.12,-380.4 1689.86,-387.4"/>
</g>
<!-- Node0x564903b297d8&#45;&gt;Node0x564903b2a1d8 -->
<g id="edge10" class="edge">
<title>Node0x564903b297d8&#45;&gt;Node0x564903b2a1d8</title>
<path fill="none" stroke="#ff7f7f" d="M706.19,-339.91C763.59,-320.25 864.52,-289.37 937.67,-268.79"/>
<polygon fill="#ff7f7f" stroke="#ff7f7f" points="938.66,-272.14 947.34,-266.08 936.77,-265.4 938.66,-272.14"/>
</g>
<!-- Node0x564903b2b218&#45;&gt;Node0x564903b2a1d8 -->
<g id="edge11" class="edge">
<title>Node0x564903b2b218&#45;&gt;Node0x564903b2a1d8</title>
<path fill="none" stroke="#ff7f7f" d="M1683.73,-254.87C1500.35,-255.86 1263.25,-255.04 1130.23,-252.57"/>
<polygon fill="#ff7f7f" stroke="#ff7f7f" points="1130.11,-249.07 1120.04,-252.38 1129.97,-256.07 1130.11,-249.07"/>
</g>
<!-- Node0x564903b2aa98&#45;&gt;Node0x564903b2a458 -->
<g id="edge12" class="edge">
<title>Node0x564903b2aa98&#45;&gt;Node0x564903b2a458</title>
<path fill="none" stroke="#ff7f7f" d="M1155.99,-333.96C932.55,-323.25 606.29,-305.02 397.19,-291.46"/>
<polygon fill="#ff7f7f" stroke="#ff7f7f" points="397.21,-287.96 387.01,-290.8 396.76,-294.94 397.21,-287.96"/>
</g>
<!-- Node0x564903b2aa98&#45;&gt;Node0x564903b297d8 -->
<g id="edge13" class="edge">
<title>Node0x564903b2aa98&#45;&gt;Node0x564903b297d8</title>
<path fill="none" stroke="#ff7f7f" d="M1155.77,-347.32C1076.19,-349.04 987.89,-350.95 908.2,-352.67"/>
<polygon fill="#ff7f7f" stroke="#ff7f7f" points="907.95,-349.18 898.02,-352.89 908.1,-356.17 907.95,-349.18"/>
</g>
<!-- Node0x564903b2aa98&#45;&gt;Node0x564903b2b218 -->
<g id="edge14" class="edge">
<title>Node0x564903b2aa98&#45;&gt;Node0x564903b2b218</title>
<path fill="none" stroke="#ff7f7f" d="M1507.18,-323.97C1598.64,-308.13 1731.45,-285.13 1825.79,-268.79"/>
<polygon fill="#ff7f7f" stroke="#ff7f7f" points="1826.4,-272.24 1835.66,-267.08 1825.21,-265.34 1826.4,-272.24"/>
</g>
<!-- Node0x564903b2aa98&#45;&gt;Node0x564903b2ac28 -->
<g id="edge15" class="edge">
<title>Node0x564903b2aa98&#45;&gt;Node0x564903b2ac28</title>
<path fill="none" stroke="#ff7f7f" d="M1644.4,-360.01C1701.35,-365.72 1759.95,-372 1809.8,-377.79"/>
<polygon fill="#ff7f7f" stroke="#ff7f7f" points="1809.63,-381.3 1819.97,-378.98 1810.44,-374.34 1809.63,-381.3"/>
</g>
<!-- Node0x564903b2aa98&#45;&gt;Node0x564903b2a408 -->
<g id="edge16" class="edge">
<title>Node0x564903b2aa98&#45;&gt;Node0x564903b2a408</title>
<path fill="none" stroke="#ff7f7f" d="M1436.44,-323.81C1487.95,-296.7 1590.56,-246.3 1684,-222.01 1693.92,-219.43 1704.11,-217.1 1714.45,-214.99"/>
<polygon fill="#ff7f7f" stroke="#ff7f7f" points="1715.27,-218.4 1724.4,-213.03 1713.92,-211.53 1715.27,-218.4"/>
</g>
<!-- Node0x564903b2aa98&#45;&gt;Node0x564903b2a1d8 -->
<g id="edge17" class="edge">
<title>Node0x564903b2aa98&#45;&gt;Node0x564903b2a1d8</title>
<path fill="none" stroke="#ff7f7f" d="M1167.98,-323.91C1163.93,-322.36 1159.93,-320.73 1156,-319.01 1136.92,-310.66 1138.13,-299.26 1120,-289.01 1106.23,-281.22 1090.25,-274.86 1075.5,-269.47"/>
<polygon fill="#ff7f7f" stroke="#ff7f7f" points="1076.62,-266.15 1066.03,-266.07 1074.26,-272.74 1076.62,-266.15"/>
</g>
<!-- Node0x564903b2ac28&#45;&gt;Node0x564903b2a458 -->
<g id="edge18" class="edge">
<title>Node0x564903b2ac28&#45;&gt;Node0x564903b2a458</title>
<path fill="none" stroke="#ff7f7f" d="M1847.18,-415.02C1607.31,-451.88 948.84,-520.8 423,-394.01 345.68,-375.37 263.7,-328.26 222.14,-298.98"/>
<polygon fill="#ff7f7f" stroke="#ff7f7f" points="224.05,-296.05 213.9,-293.02 219.95,-301.72 224.05,-296.05"/>
</g>
<!-- Node0x564903b2ac28&#45;&gt;Node0x564903b297d8 -->
<g id="edge19" class="edge">
<title>Node0x564903b2ac28&#45;&gt;Node0x564903b297d8</title>
<path fill="none" stroke="#ff7f7f" d="M1699.98,-395.1C1473.88,-389.97 1136.65,-379.7 908.34,-371"/>
<polygon fill="#ff7f7f" stroke="#ff7f7f" points="908.36,-367.5 898.23,-370.61 908.09,-374.49 908.36,-367.5"/>
</g>
<!-- Node0x564903b2ac28&#45;&gt;Node0x564903b2aa98 -->
<g id="edge20" class="edge">
<title>Node0x564903b2ac28&#45;&gt;Node0x564903b2aa98</title>
<path fill="none" stroke="#ff7f7f" d="M1699.8,-379.12C1642.31,-373.37 1583.07,-367.02 1532.78,-361.18"/>
<polygon fill="#ff7f7f" stroke="#ff7f7f" points="1533.18,-357.7 1522.84,-360.01 1532.37,-364.65 1533.18,-357.7"/>
</g>
<!-- Node0x564903b2ac28&#45;&gt;Node0x564903b2a1d8 -->
<g id="edge21" class="edge">
<title>Node0x564903b2ac28&#45;&gt;Node0x564903b2a1d8</title>
<path fill="none" stroke="#ff7f7f" d="M1887.14,-378.98C1829.18,-359.95 1733.07,-330.62 1648,-315.01 1432.07,-275.39 1373.59,-300.23 1156,-271.01 1147.55,-269.87 1138.8,-268.57 1130.03,-267.18"/>
<polygon fill="#ff7f7f" stroke="#ff7f7f" points="1130.57,-263.72 1120.13,-265.57 1129.44,-270.63 1130.57,-263.72"/>
</g>
<!-- Node0x564903b2a408&#45;&gt;Node0x564903b2a1d8 -->
<g id="edge22" class="edge">
<title>Node0x564903b2a408&#45;&gt;Node0x564903b2a1d8</title>
<path fill="none" stroke="#ff7f7f" d="M1696.33,-209.17C1511.26,-219.93 1266.11,-234.17 1130.05,-242.08"/>
<polygon fill="#ff7f7f" stroke="#ff7f7f" points="1129.82,-238.59 1120.04,-242.66 1130.23,-245.57 1129.82,-238.59"/>
</g>
<!-- Node0x564903b29288&#45;&gt;Node0x564903b2a458 -->
<g id="edge24" class="edge">
<title>Node0x564903b29288&#45;&gt;Node0x564903b2a458</title>
<path fill="none" stroke="#ff7f7f" d="M1313.93,-168.6C1143,-187.36 751.58,-222.15 423,-257.01 414.49,-257.91 405.8,-258.85 397.02,-259.82"/>
<polygon fill="#ff7f7f" stroke="#ff7f7f" points="396.63,-256.34 387.08,-260.91 397.4,-263.29 396.63,-256.34"/>
</g>
<!-- Node0x564903b29288&#45;&gt;Node0x564903b2a1d8 -->
<g id="edge23" class="edge">
<title>Node0x564903b29288&#45;&gt;Node0x564903b2a1d8</title>
<path fill="none" stroke="#ff7f7f" d="M1313.77,-168.81C1266.37,-174.09 1207.16,-182.07 1156,-197.01 1131.47,-204.17 1105.72,-215.43 1083.8,-225.67"/>
<polygon fill="#ff7f7f" stroke="#ff7f7f" points="1082.21,-222.55 1074.65,-229.98 1085.19,-228.88 1082.21,-222.55"/>
</g>
<!-- Node0x564903b2a1d8&#45;&gt;Node0x564903b2a458 -->
<g id="edge27" class="edge">
<title>Node0x564903b2a1d8&#45;&gt;Node0x564903b2a458</title>
<path fill="none" stroke="#ff7f7f" d="M933.98,-255.43C805.33,-262.09 568.32,-270.28 397.24,-274.32"/>
<polygon fill="#ff7f7f" stroke="#ff7f7f" points="397.01,-270.82 387.09,-274.55 397.17,-277.82 397.01,-270.82"/>
</g>
<!-- Node0x564903b2a1d8&#45;&gt;Node0x564903b297d8 -->
<g id="edge25" class="edge">
<title>Node0x564903b2a1d8&#45;&gt;Node0x564903b297d8</title>
<path fill="none" stroke="#ff7f7f" d="M981.54,-266.03C924.18,-285.68 823.08,-316.62 749.83,-337.23"/>
<polygon fill="#ff7f7f" stroke="#ff7f7f" points="748.83,-333.88 740.14,-339.94 750.72,-340.62 748.83,-333.88"/>
</g>
<!-- Node0x564903b2a1d8&#45;&gt;Node0x564903b2b218 -->
<g id="edge28" class="edge">
<title>Node0x564903b2a1d8&#45;&gt;Node0x564903b2b218</title>
<path fill="none" stroke="#ff7f7f" d="M1120.04,-243.84C1248.5,-241.55 1486.76,-241.17 1673.48,-242.51"/>
<polygon fill="#ff7f7f" stroke="#ff7f7f" points="1673.7,-246.02 1683.73,-242.59 1673.76,-239.02 1673.7,-246.02"/>
</g>
<!-- Node0x564903b2a1d8&#45;&gt;Node0x564903b2aa98 -->
<g id="edge26" class="edge">
<title>Node0x564903b2a1d8&#45;&gt;Node0x564903b2aa98</title>
<path fill="none" stroke="#ff7f7f" d="M1110.9,-266.21C1114.01,-267.74 1117.06,-269.34 1120,-271.01 1138.13,-281.26 1136.92,-292.66 1156,-301.01 1176.98,-310.18 1199.86,-316.92 1222.93,-321.93"/>
<polygon fill="#ff7f7f" stroke="#ff7f7f" points="1222.33,-325.38 1232.83,-323.97 1223.74,-318.52 1222.33,-325.38"/>
</g>
<!-- Node0x564903b2a1d8&#45;&gt;Node0x564903b29288 -->
<g id="edge29" class="edge">
<title>Node0x564903b2a1d8&#45;&gt;Node0x564903b29288</title>
<path fill="none" stroke="#ff7f7f" d="M1048.07,-229.84C1072.65,-213.33 1115.95,-190.7 1156,-179.01 1203.56,-165.12 1258.09,-157.25 1303.6,-153.62"/>
<polygon fill="#ff7f7f" stroke="#ff7f7f" points="1304.06,-157.1 1313.77,-152.87 1303.54,-150.12 1304.06,-157.1"/>
</g>
</g>
</svg>
