<?xml version="1.0" encoding="UTF-8" standalone="no"?>
<!DOCTYPE svg PUBLIC "-//W3C//DTD SVG 1.1//EN"
 "http://www.w3.org/Graphics/SVG/1.1/DTD/svg11.dtd">
<!-- Generated by graphviz version 2.43.0 (0)
 -->
<!-- Title: bin/llvm&#45;strings Pages: 1 -->
<svg width="5742pt" height="2045pt"
 viewBox="0.00 0.00 5742.00 2044.51" xmlns="http://www.w3.org/2000/svg" xmlns:xlink="http://www.w3.org/1999/xlink">
<g id="graph0" class="graph" transform="scale(1 1) rotate(0) translate(4 2040.51)">
<title>bin/llvm&#45;strings</title>
<polygon fill="white" stroke="transparent" points="-4,4 -4,-2040.51 5738,-2040.51 5738,4 -4,4"/>
<text text-anchor="middle" x="2867" y="-7.8" font-family="Times,serif" font-size="14.00">bin/llvm&#45;strings</text>
<!-- Node0x556660887e88 -->
<g id="node1" class="node">
<title>Node0x556660887e88</title>
<polygon fill="#ff7f7f" stroke="black" points="495,-59 0,-59 0,-23 495,-23 495,-59"/>
<text text-anchor="middle" x="247.5" y="-37.3" font-family="Times,serif" font-size="14.00">{tools/llvm&#45;strings/CMakeFiles/llvm&#45;strings.dir/llvm&#45;strings.cpp.o}</text>
</g>
<!-- Node0x556660887cf8 -->
<g id="node2" class="node">
<title>Node0x556660887cf8</title>
<polygon fill="#ff7f7f" stroke="black" points="817.5,-59 631.5,-59 631.5,-23 817.5,-23 817.5,-59"/>
<text text-anchor="middle" x="724.5" y="-37.3" font-family="Times,serif" font-size="14.00">{lib/libLLVMSupport.a}</text>
</g>
<!-- Node0x556660887e88&#45;&gt;Node0x556660887cf8 -->
<g id="edge1" class="edge">
<title>Node0x556660887e88&#45;&gt;Node0x556660887cf8</title>
<path fill="none" stroke="#ff7f7f" d="M495.04,-34.25C539.54,-34.3 583.61,-34.66 621,-35.33"/>
<polygon fill="#ff7f7f" stroke="#ff7f7f" points="621.3,-38.84 631.37,-35.53 621.44,-31.84 621.3,-38.84"/>
</g>
<!-- Node0x556660887cf8&#45;&gt;Node0x556660887e88 -->
<g id="edge2" class="edge">
<title>Node0x556660887cf8&#45;&gt;Node0x556660887e88</title>
<path fill="none" stroke="#ff7f7f" d="M631.37,-46.47C594.67,-47.22 550.46,-47.64 505.3,-47.73"/>
<polygon fill="#ff7f7f" stroke="#ff7f7f" points="505.04,-44.23 495.04,-47.75 505.05,-51.23 505.04,-44.23"/>
</g>
<!-- Node0x556660887cf8&#45;&gt;Node0x556660887cf8 -->
<g id="edge3" class="edge">
<title>Node0x556660887cf8&#45;&gt;Node0x556660887cf8</title>
<path fill="none" stroke="#ff7f7f" d="M653.58,-59.15C642.67,-68.54 666.31,-77 724.5,-77 760.87,-77 783.74,-73.69 793.11,-68.92"/>
<polygon fill="#ff7f7f" stroke="#ff7f7f" points="796.53,-69.69 795.42,-59.15 789.72,-68.08 796.53,-69.69"/>
</g>
<!-- Node0x556660888658 -->
<g id="node3" class="node">
<title>Node0x556660888658</title>
<polygon fill="none" stroke="black" points="918,-1352 531,-1352 531,-1316 918,-1316 918,-1352"/>
<text text-anchor="middle" x="724.5" y="-1330.3" font-family="Times,serif" font-size="14.00">{lib/libLLVMSupport.a(ConvertUTFWrapper.cpp.o)}</text>
</g>
<!-- Node0x556660887f28 -->
<g id="node4" class="node">
<title>Node0x556660887f28</title>
<polygon fill="none" stroke="black" points="1279.5,-1598 954.5,-1598 954.5,-1562 1279.5,-1562 1279.5,-1598"/>
<text text-anchor="middle" x="1117" y="-1576.3" font-family="Times,serif" font-size="14.00">{lib/libLLVMSupport.a(ConvertUTF.cpp.o)}</text>
</g>
<!-- Node0x556660888658&#45;&gt;Node0x556660887f28 -->
<g id="edge4" class="edge">
<title>Node0x556660888658&#45;&gt;Node0x556660887f28</title>
<path fill="none" stroke="black" d="M907.15,-1352.04C910.95,-1354.77 914.58,-1357.75 918,-1361 979.35,-1419.31 894.3,-1488.01 954,-1548 956.93,-1550.94 960.05,-1553.66 963.32,-1556.16"/>
<polygon fill="black" stroke="black" points="961.54,-1559.18 971.77,-1561.94 965.5,-1553.4 961.54,-1559.18"/>
</g>
<!-- Node0x556660887758 -->
<g id="node5" class="node">
<title>Node0x556660887758</title>
<polygon fill="none" stroke="black" points="1279,-1283 955,-1283 955,-1247 1279,-1247 1279,-1283"/>
<text text-anchor="middle" x="1117" y="-1261.3" font-family="Times,serif" font-size="14.00">{lib/libLLVMSupport.a(SmallVector.cpp.o)}</text>
</g>
<!-- Node0x556660888658&#45;&gt;Node0x556660887758 -->
<g id="edge5" class="edge">
<title>Node0x556660888658&#45;&gt;Node0x556660887758</title>
<path fill="none" stroke="black" d="M836.27,-1315.98C863.04,-1311.51 891.56,-1306.67 918,-1302 948.32,-1296.65 981.21,-1290.6 1011.31,-1284.97"/>
<polygon fill="black" stroke="black" points="1012.22,-1288.36 1021.4,-1283.08 1010.93,-1281.48 1012.22,-1288.36"/>
</g>
<!-- Node0x556660888ab8 -->
<g id="node6" class="node">
<title>Node0x556660888ab8</title>
<polygon fill="none" stroke="black" points="1690,-648 1346,-648 1346,-612 1690,-612 1690,-648"/>
<text text-anchor="middle" x="1518" y="-626.3" font-family="Times,serif" font-size="14.00">{lib/libLLVMSupport.a(ErrorHandling.cpp.o)}</text>
</g>
<!-- Node0x556660887758&#45;&gt;Node0x556660888ab8 -->
<g id="edge6" class="edge">
<title>Node0x556660887758&#45;&gt;Node0x556660888ab8</title>
<path fill="none" stroke="black" d="M1133.48,-1246.85C1166.33,-1207.3 1243,-1109.1 1280,-1013 1315.28,-921.36 1266.9,-880.05 1316,-795 1353.32,-730.35 1426.28,-680.38 1473.27,-653.1"/>
<polygon fill="black" stroke="black" points="1475.07,-656.1 1482.02,-648.11 1471.6,-650.02 1475.07,-656.1"/>
</g>
<!-- Node0x556660888d38 -->
<g id="node8" class="node">
<title>Node0x556660888d38</title>
<polygon fill="none" stroke="black" points="5037.5,-798 4695.5,-798 4695.5,-762 5037.5,-762 5037.5,-798"/>
<text text-anchor="middle" x="4866.5" y="-776.3" font-family="Times,serif" font-size="14.00">{lib/libLLVMSupport.a(CommandLine.cpp.o)}</text>
</g>
<!-- Node0x556660888ab8&#45;&gt;Node0x556660888d38 -->
<g id="edge13" class="edge">
<title>Node0x556660888ab8&#45;&gt;Node0x556660888d38</title>
<path fill="none" stroke="black" d="M1542.58,-611.85C1583.41,-581.6 1671.07,-521.77 1756,-497 2302.14,-337.69 2465.1,-425 3034,-425 3034,-425 3034,-425 3418,-425 3503.19,-425 4639.17,-648.19 4657,-655 4723.9,-680.53 4793.71,-727.13 4833.18,-755.65"/>
<polygon fill="black" stroke="black" points="4831.46,-758.73 4841.6,-761.8 4835.59,-753.08 4831.46,-758.73"/>
</g>
<!-- Node0x556660886c68 -->
<g id="node10" class="node">
<title>Node0x556660886c68</title>
<polygon fill="none" stroke="black" points="2052,-641 1770,-641 1770,-605 2052,-605 2052,-641"/>
<text text-anchor="middle" x="1911" y="-619.3" font-family="Times,serif" font-size="14.00">{lib/libLLVMSupport.a(Twine.cpp.o)}</text>
</g>
<!-- Node0x556660888ab8&#45;&gt;Node0x556660886c68 -->
<g id="edge14" class="edge">
<title>Node0x556660888ab8&#45;&gt;Node0x556660886c68</title>
<path fill="none" stroke="black" d="M1690.21,-626.93C1713.38,-626.52 1737,-626.1 1759.76,-625.69"/>
<polygon fill="black" stroke="black" points="1759.87,-629.19 1769.81,-625.51 1759.75,-622.19 1759.87,-629.19"/>
</g>
<!-- Node0x556660887848 -->
<g id="node11" class="node">
<title>Node0x556660887848</title>
<polygon fill="none" stroke="black" points="2434,-960 2102,-960 2102,-924 2434,-924 2434,-960"/>
<text text-anchor="middle" x="2268" y="-938.3" font-family="Times,serif" font-size="14.00">{lib/libLLVMSupport.a(raw_ostream.cpp.o)}</text>
</g>
<!-- Node0x556660888ab8&#45;&gt;Node0x556660887848 -->
<g id="edge15" class="edge">
<title>Node0x556660888ab8&#45;&gt;Node0x556660887848</title>
<path fill="none" stroke="black" d="M1573.31,-648.2C1621.16,-668.42 1692.87,-701.1 1756,-728 1927.18,-800.94 2133.48,-881.48 2222.53,-919.85"/>
<polygon fill="black" stroke="black" points="2221.22,-923.1 2231.78,-923.87 2224.01,-916.68 2221.22,-923.1"/>
</g>
<!-- Node0x556660887b68 -->
<g id="node12" class="node">
<title>Node0x556660887b68</title>
<polygon fill="none" stroke="black" points="2057,-169 1765,-169 1765,-133 2057,-133 2057,-169"/>
<text text-anchor="middle" x="1911" y="-147.3" font-family="Times,serif" font-size="14.00">{lib/libLLVMSupport.a(Signals.cpp.o)}</text>
</g>
<!-- Node0x556660888ab8&#45;&gt;Node0x556660887b68 -->
<g id="edge16" class="edge">
<title>Node0x556660888ab8&#45;&gt;Node0x556660887b68</title>
<path fill="none" stroke="black" d="M1530.2,-611.77C1562.32,-560.06 1658.73,-408.96 1756,-297 1795.87,-251.11 1848.33,-203.72 1880.58,-175.83"/>
<polygon fill="black" stroke="black" points="1883.02,-178.34 1888.32,-169.17 1878.46,-173.03 1883.02,-178.34"/>
</g>
<!-- Node0x5566608877a8 -->
<g id="node7" class="node">
<title>Node0x5566608877a8</title>
<polygon fill="none" stroke="black" points="4646,-718 4369,-718 4369,-682 4646,-682 4646,-718"/>
<text text-anchor="middle" x="4507.5" y="-696.3" font-family="Times,serif" font-size="14.00">{lib/libLLVMSupport.a(Error.cpp.o)}</text>
</g>
<!-- Node0x5566608877a8&#45;&gt;Node0x556660887758 -->
<g id="edge10" class="edge">
<title>Node0x5566608877a8&#45;&gt;Node0x556660887758</title>
<path fill="none" stroke="black" d="M4457.14,-681.99C4427.82,-670.74 4390.19,-655.32 4358,-639 4341.27,-630.52 4339.8,-622.88 4322,-617 4049.7,-527 3322.78,-509 3036,-509 2652.5,-509 2652.5,-509 2652.5,-509 2407.28,-509 2345.86,-520.22 2102,-546 2099.59,-546.26 1758.02,-594.65 1756,-596 1729.85,-613.53 1743.8,-636.39 1720,-657 1573.26,-784.09 1435.5,-670.02 1316,-823 1247.98,-910.08 1324.86,-968.02 1280,-1069 1248.55,-1139.81 1184.07,-1205.66 1146.64,-1240.06"/>
<polygon fill="black" stroke="black" points="1144.14,-1237.6 1139.09,-1246.91 1148.84,-1242.79 1144.14,-1237.6"/>
</g>
<!-- Node0x5566608877a8&#45;&gt;Node0x556660888ab8 -->
<g id="edge8" class="edge">
<title>Node0x5566608877a8&#45;&gt;Node0x556660888ab8</title>
<path fill="none" stroke="black" d="M4488.51,-681.81C4457.52,-651.68 4390.78,-591.9 4322,-563 3977.57,-418.28 3028.09,-349 2654.5,-349 2267,-349 2267,-349 2267,-349 2034.87,-349 1967.63,-361.63 1756,-457 1671.14,-495.24 1586.68,-567.03 1545.28,-604.99"/>
<polygon fill="black" stroke="black" points="1542.78,-602.53 1537.82,-611.89 1547.54,-607.67 1542.78,-602.53"/>
</g>
<!-- Node0x5566608877a8&#45;&gt;Node0x556660888d38 -->
<g id="edge7" class="edge">
<title>Node0x5566608877a8&#45;&gt;Node0x556660888d38</title>
<path fill="none" stroke="black" d="M4589.06,-718.05C4644.37,-730.45 4717.85,-746.91 4775.15,-759.75"/>
<polygon fill="black" stroke="black" points="4774.4,-763.17 4784.92,-761.94 4775.93,-756.34 4774.4,-763.17"/>
</g>
<!-- Node0x556660887ac8 -->
<g id="node9" class="node">
<title>Node0x556660887ac8</title>
<polygon fill="none" stroke="black" points="5040,-283 4693,-283 4693,-247 5040,-247 5040,-283"/>
<text text-anchor="middle" x="4866.5" y="-261.3" font-family="Times,serif" font-size="14.00">{lib/libLLVMSupport.a(ManagedStatic.cpp.o)}</text>
</g>
<!-- Node0x5566608877a8&#45;&gt;Node0x556660887ac8 -->
<g id="edge9" class="edge">
<title>Node0x5566608877a8&#45;&gt;Node0x556660887ac8</title>
<path fill="none" stroke="black" d="M4523.39,-681.86C4579.41,-613.6 4777.73,-371.94 4843.86,-291.37"/>
<polygon fill="black" stroke="black" points="4846.91,-293.17 4850.55,-283.22 4841.5,-288.72 4846.91,-293.17"/>
</g>
<!-- Node0x5566608877a8&#45;&gt;Node0x556660886c68 -->
<g id="edge11" class="edge">
<title>Node0x5566608877a8&#45;&gt;Node0x556660886c68</title>
<path fill="none" stroke="black" d="M4437.77,-681.96C4403.26,-673.61 4360.68,-664.37 4322,-659 3754.95,-580.2 3608.5,-585 3036,-585 2652.5,-585 2652.5,-585 2652.5,-585 2447.86,-585 2211.82,-599.65 2062.3,-610.76"/>
<polygon fill="black" stroke="black" points="2061.84,-607.29 2052.13,-611.52 2062.36,-614.27 2061.84,-607.29"/>
</g>
<!-- Node0x5566608877a8&#45;&gt;Node0x556660887848 -->
<g id="edge12" class="edge">
<title>Node0x5566608877a8&#45;&gt;Node0x556660887848</title>
<path fill="none" stroke="black" d="M4368.85,-696.22C4035.5,-684.59 3161.45,-666.37 2470,-864 2420.08,-878.27 2366.22,-902.07 2326.84,-919.81"/>
<polygon fill="black" stroke="black" points="2325.33,-916.65 2317.65,-923.95 2328.21,-923.03 2325.33,-916.65"/>
</g>
<!-- Node0x556660888a68 -->
<g id="node13" class="node">
<title>Node0x556660888a68</title>
<polygon fill="none" stroke="black" points="5388,-363 5076,-363 5076,-327 5388,-327 5388,-363"/>
<text text-anchor="middle" x="5232" y="-341.3" font-family="Times,serif" font-size="14.00">{lib/libLLVMSupport.a(Threading.cpp.o)}</text>
</g>
<!-- Node0x556660887ac8&#45;&gt;Node0x556660888a68 -->
<g id="edge17" class="edge">
<title>Node0x556660887ac8&#45;&gt;Node0x556660888a68</title>
<path fill="none" stroke="black" d="M4970.79,-283.07C4993.63,-287.37 5017.68,-292.13 5040,-297 5077.55,-305.19 5118.95,-315.44 5153.57,-324.37"/>
<polygon fill="black" stroke="black" points="5153.06,-327.85 5163.62,-326.97 5154.82,-321.07 5153.06,-327.85"/>
</g>
<!-- Node0x556660886c68&#45;&gt;Node0x556660887758 -->
<g id="edge18" class="edge">
<title>Node0x556660886c68&#45;&gt;Node0x556660887758</title>
<path fill="none" stroke="black" d="M1769.97,-639.02C1764.98,-642.2 1760.29,-645.84 1756,-650 1699.6,-704.65 1765.75,-759.16 1720,-823 1598.61,-992.39 1479.82,-932.19 1316,-1061 1244.68,-1117.08 1173.68,-1197.82 1139.33,-1238.88"/>
<polygon fill="black" stroke="black" points="1136.46,-1236.85 1132.76,-1246.78 1141.84,-1241.32 1136.46,-1236.85"/>
</g>
<!-- Node0x556660886c68&#45;&gt;Node0x556660887848 -->
<g id="edge19" class="edge">
<title>Node0x556660886c68&#45;&gt;Node0x556660887848</title>
<path fill="none" stroke="black" d="M2052.05,-633.24C2056.88,-635.56 2061.55,-638.14 2066,-641 2171.26,-708.58 2236.07,-852.9 2258.32,-914.02"/>
<polygon fill="black" stroke="black" points="2255.13,-915.49 2261.75,-923.76 2261.73,-913.17 2255.13,-915.49"/>
</g>
<!-- Node0x556660887848&#45;&gt;Node0x556660887758 -->
<g id="edge23" class="edge">
<title>Node0x556660887848&#45;&gt;Node0x556660887758</title>
<path fill="none" stroke="black" d="M2242.22,-960.1C2205.74,-985.63 2134.47,-1031.28 2066,-1051 1745.03,-1143.44 1626.09,-974.86 1316,-1099 1240.19,-1129.35 1172.07,-1200.48 1139.04,-1239.05"/>
<polygon fill="black" stroke="black" points="1136.31,-1236.85 1132.54,-1246.75 1141.66,-1241.37 1136.31,-1236.85"/>
</g>
<!-- Node0x556660887848&#45;&gt;Node0x556660888ab8 -->
<g id="edge22" class="edge">
<title>Node0x556660887848&#45;&gt;Node0x556660888ab8</title>
<path fill="none" stroke="black" d="M2205.3,-923.94C2108.9,-889.86 1916.93,-814.57 1756,-746 1684.12,-715.37 1601.1,-677.25 1554.87,-652.99"/>
<polygon fill="black" stroke="black" points="1556.32,-649.79 1545.85,-648.17 1553.02,-655.97 1556.32,-649.79"/>
</g>
<!-- Node0x556660887848&#45;&gt;Node0x5566608877a8 -->
<g id="edge21" class="edge">
<title>Node0x556660887848&#45;&gt;Node0x5566608877a8</title>
<path fill="none" stroke="black" d="M2292.09,-923.95C2328.73,-901.56 2402.91,-865.18 2470,-846 3154.53,-650.35 4018.02,-666.25 4358.68,-686.56"/>
<polygon fill="black" stroke="black" points="4358.65,-690.06 4368.85,-687.17 4359.08,-683.08 4358.65,-690.06"/>
</g>
<!-- Node0x556660887848&#45;&gt;Node0x556660888d38 -->
<g id="edge20" class="edge">
<title>Node0x556660887848&#45;&gt;Node0x556660888d38</title>
<path fill="none" stroke="black" d="M2434.22,-928.71C2691.29,-908.32 3202.64,-868.83 3637,-842 4009.32,-819 4445.52,-798.52 4685.07,-787.83"/>
<polygon fill="black" stroke="black" points="4685.44,-791.32 4695.27,-787.38 4685.12,-784.33 4685.44,-791.32"/>
</g>
<!-- Node0x556660887848&#45;&gt;Node0x556660886c68 -->
<g id="edge24" class="edge">
<title>Node0x556660887848&#45;&gt;Node0x556660886c68</title>
<path fill="none" stroke="black" d="M2258.73,-923.97C2236.88,-872.69 2171.91,-727 2066,-659 2056.46,-652.88 2045.93,-648.03 2035,-644.17"/>
<polygon fill="black" stroke="black" points="2035.89,-640.78 2025.3,-641.03 2033.73,-647.44 2035.89,-640.78"/>
</g>
<!-- Node0x556660887d48 -->
<g id="node14" class="node">
<title>Node0x556660887d48</title>
<polygon fill="none" stroke="black" points="2837,-1123 2470,-1123 2470,-1087 2837,-1087 2837,-1123"/>
<text text-anchor="middle" x="2653.5" y="-1101.3" font-family="Times,serif" font-size="14.00">{lib/libLLVMSupport.a(NativeFormatting.cpp.o)}</text>
</g>
<!-- Node0x556660887848&#45;&gt;Node0x556660887d48 -->
<g id="edge25" class="edge">
<title>Node0x556660887848&#45;&gt;Node0x556660887d48</title>
<path fill="none" stroke="black" d="M2297.87,-960.06C2335.13,-987.33 2403.16,-1037.64 2470,-1064 2493.91,-1073.43 2520.67,-1080.09 2546.17,-1085.06"/>
<polygon fill="black" stroke="black" points="2545.78,-1088.55 2556.25,-1086.96 2547.07,-1081.67 2545.78,-1088.55"/>
</g>
<!-- Node0x5566608890a8 -->
<g id="node15" class="node">
<title>Node0x5566608890a8</title>
<polygon fill="none" stroke="black" points="2828,-1427 2479,-1427 2479,-1391 2828,-1391 2828,-1427"/>
<text text-anchor="middle" x="2653.5" y="-1405.3" font-family="Times,serif" font-size="14.00">{lib/libLLVMSupport.a(FormatVariadic.cpp.o)}</text>
</g>
<!-- Node0x556660887848&#45;&gt;Node0x5566608890a8 -->
<g id="edge26" class="edge">
<title>Node0x556660887848&#45;&gt;Node0x5566608890a8</title>
<path fill="none" stroke="black" d="M2275.29,-960.1C2295.6,-1016.44 2364.34,-1191.47 2470,-1300 2507.18,-1338.19 2560.49,-1367.98 2599.9,-1386.7"/>
<polygon fill="black" stroke="black" points="2598.56,-1389.93 2609.1,-1390.98 2601.51,-1383.58 2598.56,-1389.93"/>
</g>
<!-- Node0x556660886da8 -->
<g id="node16" class="node">
<title>Node0x556660886da8</title>
<polygon fill="none" stroke="black" points="3171,-1009 2899,-1009 2899,-973 3171,-973 3171,-1009"/>
<text text-anchor="middle" x="3035" y="-987.3" font-family="Times,serif" font-size="14.00">{lib/libLLVMSupport.a(Path.cpp.o)}</text>
</g>
<!-- Node0x556660887848&#45;&gt;Node0x556660886da8 -->
<g id="edge27" class="edge">
<title>Node0x556660887848&#45;&gt;Node0x556660886da8</title>
<path fill="none" stroke="black" d="M2434.05,-952.57C2569.43,-961.24 2759.24,-973.4 2888.88,-981.7"/>
<polygon fill="black" stroke="black" points="2888.68,-985.2 2898.88,-982.35 2889.13,-978.21 2888.68,-985.2"/>
</g>
<!-- Node0x5566608886f8 -->
<g id="node17" class="node">
<title>Node0x5566608886f8</title>
<polygon fill="none" stroke="black" points="3564.5,-1123 3269.5,-1123 3269.5,-1087 3564.5,-1087 3564.5,-1123"/>
<text text-anchor="middle" x="3417" y="-1101.3" font-family="Times,serif" font-size="14.00">{lib/libLLVMSupport.a(Process.cpp.o)}</text>
</g>
<!-- Node0x556660887848&#45;&gt;Node0x5566608886f8 -->
<g id="edge28" class="edge">
<title>Node0x556660887848&#45;&gt;Node0x5566608886f8</title>
<path fill="none" stroke="black" d="M2363.03,-960.03C2396.75,-966.43 2435.06,-973.62 2470,-980 2492.36,-984.08 2850.48,-1047.9 2873,-1051 3002.69,-1068.85 3150.58,-1083.16 3259.24,-1092.56"/>
<polygon fill="black" stroke="black" points="3259.04,-1096.05 3269.3,-1093.42 3259.64,-1089.08 3259.04,-1096.05"/>
</g>
<!-- Node0x556660887de8 -->
<g id="node18" class="node">
<title>Node0x556660887de8</title>
<polygon fill="none" stroke="black" points="2804.5,-1291 2502.5,-1291 2502.5,-1255 2804.5,-1255 2804.5,-1291"/>
<text text-anchor="middle" x="2653.5" y="-1269.3" font-family="Times,serif" font-size="14.00">{lib/libLLVMSupport.a(Program.cpp.o)}</text>
</g>
<!-- Node0x556660887848&#45;&gt;Node0x556660887de8 -->
<g id="edge29" class="edge">
<title>Node0x556660887848&#45;&gt;Node0x556660887de8</title>
<path fill="none" stroke="black" d="M2292.72,-960.17C2329.61,-993.73 2403.4,-1066.04 2470,-1123 2523.94,-1169.14 2590.7,-1218.99 2626.65,-1248.28"/>
<polygon fill="black" stroke="black" points="2624.74,-1251.24 2634.68,-1254.92 2629.2,-1245.85 2624.74,-1251.24"/>
</g>
<!-- Node0x556660888a68&#45;&gt;Node0x556660887758 -->
<g id="edge43" class="edge">
<title>Node0x556660888a68&#45;&gt;Node0x556660887758</title>
<path fill="none" stroke="black" d="M5226.06,-363.34C5208.13,-427.9 5142.15,-649.29 5040,-807 4804.86,-1170.05 4726.13,-1309.8 4322,-1464 4148.87,-1530.06 2839.81,-1493 2654.5,-1493 1910,-1493 1910,-1493 1910,-1493 1777.59,-1493 1416.17,-1532.6 1316,-1446 1263.96,-1401.01 1326.83,-1342.32 1281.32,-1290.37"/>
<polygon fill="black" stroke="black" points="1283.67,-1287.76 1274.16,-1283.08 1278.68,-1292.67 1283.67,-1287.76"/>
</g>
<!-- Node0x556660888a68&#45;&gt;Node0x556660888ab8 -->
<g id="edge41" class="edge">
<title>Node0x556660888a68&#45;&gt;Node0x556660888ab8</title>
<path fill="none" stroke="black" d="M5208,-326.88C5173.73,-301.16 5106.2,-255.28 5040,-238 4890.78,-199.05 4847.2,-235.37 4693,-238 4223.46,-246 4106.3,-257.16 3637,-274 3200.3,-289.67 3091.48,-311 2654.5,-311 2267,-311 2267,-311 2267,-311 2039.12,-311 1951.37,-235.7 1756,-353 1730.63,-368.23 1738.02,-385.53 1720,-409 1662.42,-484.02 1584.89,-564.29 1545.04,-604.27"/>
<polygon fill="black" stroke="black" points="1542.19,-602.17 1537.59,-611.72 1547.14,-607.12 1542.19,-602.17"/>
</g>
<!-- Node0x556660888a68&#45;&gt;Node0x556660886c68 -->
<g id="edge44" class="edge">
<title>Node0x556660888a68&#45;&gt;Node0x556660886c68</title>
<path fill="none" stroke="black" d="M5075.72,-333.47C4929.47,-323.61 4704.24,-311 4508.5,-311 4167,-311 4167,-311 4167,-311 3653.51,-311 3549.49,-547 3036,-547 2652.5,-547 2652.5,-547 2652.5,-547 2407.25,-547 2345.08,-552.44 2102,-585 2068.76,-589.45 2032.58,-596.2 2000.81,-602.78"/>
<polygon fill="black" stroke="black" points="1999.73,-599.43 1990.66,-604.91 2001.16,-606.28 1999.73,-599.43"/>
</g>
<!-- Node0x556660888108 -->
<g id="node21" class="node">
<title>Node0x556660888108</title>
<polygon fill="none" stroke="black" points="5734,-1801 5424,-1801 5424,-1765 5734,-1765 5734,-1801"/>
<text text-anchor="middle" x="5579" y="-1779.3" font-family="Times,serif" font-size="14.00">{lib/libLLVMSupport.a(MemAlloc.cpp.o)}</text>
</g>
<!-- Node0x556660888a68&#45;&gt;Node0x556660888108 -->
<g id="edge42" class="edge">
<title>Node0x556660888a68&#45;&gt;Node0x556660888108</title>
<path fill="none" stroke="black" d="M5237.36,-363.18C5273.75,-514.83 5526.55,-1568.57 5571.25,-1754.88"/>
<polygon fill="black" stroke="black" points="5567.88,-1755.83 5573.62,-1764.74 5574.69,-1754.2 5567.88,-1755.83"/>
</g>
<!-- Node0x5566608876b8 -->
<g id="node24" class="node">
<title>Node0x5566608876b8</title>
<polygon fill="none" stroke="black" points="5719.5,-403 5438.5,-403 5438.5,-367 5719.5,-367 5719.5,-403"/>
<text text-anchor="middle" x="5579" y="-381.3" font-family="Times,serif" font-size="14.00">{lib/libLLVMSupport.a(Errno.cpp.o)}</text>
</g>
<!-- Node0x556660888a68&#45;&gt;Node0x5566608876b8 -->
<g id="edge45" class="edge">
<title>Node0x556660888a68&#45;&gt;Node0x5566608876b8</title>
<path fill="none" stroke="black" d="M5388.09,-362.98C5401.43,-364.53 5414.9,-366.09 5428.2,-367.63"/>
<polygon fill="black" stroke="black" points="5427.99,-371.13 5438.32,-368.81 5428.79,-364.18 5427.99,-371.13"/>
</g>
<!-- Node0x556660887d48&#45;&gt;Node0x556660887758 -->
<g id="edge104" class="edge">
<title>Node0x556660887d48&#45;&gt;Node0x556660887758</title>
<path fill="none" stroke="black" d="M2469.79,-1097.19C2155.44,-1085.78 1525.81,-1072.35 1316,-1137 1248.18,-1157.9 1181.4,-1209.21 1145.36,-1240.14"/>
<polygon fill="black" stroke="black" points="1142.97,-1237.58 1137.73,-1246.79 1147.57,-1242.86 1142.97,-1237.58"/>
</g>
<!-- Node0x556660887d48&#45;&gt;Node0x556660887848 -->
<g id="edge105" class="edge">
<title>Node0x556660887d48&#45;&gt;Node0x556660887848</title>
<path fill="none" stroke="black" d="M2483.27,-1086.86C2478.77,-1085.33 2474.34,-1083.71 2470,-1082 2399.39,-1054.16 2327.46,-999.58 2291.87,-967.19"/>
<polygon fill="black" stroke="black" points="2294.13,-964.51 2284.43,-960.24 2289.35,-969.63 2294.13,-964.51"/>
</g>
<!-- Node0x5566608890a8&#45;&gt;Node0x556660887758 -->
<g id="edge106" class="edge">
<title>Node0x5566608890a8&#45;&gt;Node0x556660887758</title>
<path fill="none" stroke="black" d="M2478.93,-1425.36C2220.61,-1444.51 1721.88,-1461.4 1316,-1355 1258.52,-1339.93 1196.88,-1309.37 1157.92,-1288.07"/>
<polygon fill="black" stroke="black" points="1159.44,-1284.91 1149,-1283.14 1156.06,-1291.04 1159.44,-1284.91"/>
</g>
<!-- Node0x556660888748 -->
<g id="node28" class="node">
<title>Node0x556660888748</title>
<polygon fill="none" stroke="black" points="4322,-1455 4014,-1455 4014,-1419 4322,-1419 4322,-1455"/>
<text text-anchor="middle" x="4168" y="-1433.3" font-family="Times,serif" font-size="14.00">{lib/libLLVMSupport.a(StringRef.cpp.o)}</text>
</g>
<!-- Node0x5566608890a8&#45;&gt;Node0x556660888748 -->
<g id="edge107" class="edge">
<title>Node0x5566608890a8&#45;&gt;Node0x556660888748</title>
<path fill="none" stroke="black" d="M2828.18,-1416.11C3018.09,-1424.29 3331.36,-1438.93 3601,-1457 3617.02,-1458.07 3620.96,-1459.33 3637,-1460 3788.42,-1466.3 3826.72,-1469.17 3978,-1460 3993.57,-1459.06 4009.83,-1457.68 4025.99,-1456.06"/>
<polygon fill="black" stroke="black" points="4026.44,-1459.53 4036.03,-1455.02 4025.72,-1452.57 4026.44,-1459.53"/>
</g>
<!-- Node0x556660886da8&#45;&gt;Node0x556660887758 -->
<g id="edge91" class="edge">
<title>Node0x556660886da8&#45;&gt;Node0x556660887758</title>
<path fill="none" stroke="black" d="M3004.28,-1009.04C2971.25,-1029.52 2916.79,-1064.57 2873,-1099 2855.94,-1112.42 2857.09,-1123.79 2837,-1132 2720.08,-1179.75 2395.29,-1151 2269,-1151 1910,-1151 1910,-1151 1910,-1151 1645.78,-1151 1573.04,-1113.86 1316,-1175 1257.68,-1188.87 1195.54,-1220.16 1156.75,-1241.92"/>
<polygon fill="black" stroke="black" points="1154.85,-1238.97 1147.88,-1246.95 1158.31,-1245.06 1154.85,-1238.97"/>
</g>
<!-- Node0x556660886da8&#45;&gt;Node0x5566608877a8 -->
<g id="edge89" class="edge">
<title>Node0x556660886da8&#45;&gt;Node0x5566608877a8</title>
<path fill="none" stroke="black" d="M3171.21,-974.34C3180.41,-970.19 3189.13,-965.13 3197,-959 3226.47,-936.02 3202.49,-904.58 3233,-883 3300.12,-835.52 3519.49,-855.73 3601,-845 3888.47,-807.17 4225.2,-749.78 4395.61,-719.81"/>
<polygon fill="black" stroke="black" points="4396.36,-723.23 4405.6,-718.05 4395.14,-716.34 4396.36,-723.23"/>
</g>
<!-- Node0x556660886da8&#45;&gt;Node0x556660888d38 -->
<g id="edge88" class="edge">
<title>Node0x556660886da8&#45;&gt;Node0x556660888d38</title>
<path fill="none" stroke="black" d="M3171.02,-976.84C3191.76,-975 3212.94,-973.3 3233,-972 3487.5,-955.53 3551.47,-953 3806.5,-953 3806.5,-953 3806.5,-953 4169,-953 4388.64,-953 4446.72,-938.44 4657,-875 4717.37,-856.79 4782.91,-824.71 4824.08,-802.91"/>
<polygon fill="black" stroke="black" points="4825.82,-805.95 4832.99,-798.16 4822.52,-799.78 4825.82,-805.95"/>
</g>
<!-- Node0x556660886da8&#45;&gt;Node0x556660886c68 -->
<g id="edge93" class="edge">
<title>Node0x556660886da8&#45;&gt;Node0x556660886c68</title>
<path fill="none" stroke="black" d="M2992.49,-972.83C2860.13,-915.69 2435.13,-738.18 2066,-650 2055.69,-647.54 2044.94,-645.2 2034.13,-643"/>
<polygon fill="black" stroke="black" points="2034.69,-639.54 2024.2,-641.02 2033.32,-646.41 2034.69,-639.54"/>
</g>
<!-- Node0x556660886da8&#45;&gt;Node0x5566608886f8 -->
<g id="edge95" class="edge">
<title>Node0x556660886da8&#45;&gt;Node0x5566608886f8</title>
<path fill="none" stroke="black" d="M3171.25,-1000.82C3180.28,-1004.48 3188.97,-1008.84 3197,-1014 3220.03,-1028.81 3209.8,-1049.46 3233,-1064 3246.8,-1072.65 3262.29,-1079.14 3278.25,-1084.04"/>
<polygon fill="black" stroke="black" points="3277.66,-1087.51 3288.24,-1086.9 3279.58,-1080.78 3277.66,-1087.51"/>
</g>
<!-- Node0x556660886da8&#45;&gt;Node0x556660888748 -->
<g id="edge92" class="edge">
<title>Node0x556660886da8&#45;&gt;Node0x556660888748</title>
<path fill="none" stroke="black" d="M3133.58,-1009.04C3165.25,-1014.71 3200.58,-1020.83 3233,-1026 3314.56,-1039 3534.84,-1028.56 3601,-1078 3631.91,-1101.1 3607.03,-1132.7 3637,-1157 3757.61,-1254.79 3843.36,-1155.66 3978,-1233 4056.33,-1278 4121.12,-1366.2 4150.32,-1410.41"/>
<polygon fill="black" stroke="black" points="4147.46,-1412.42 4155.84,-1418.89 4153.32,-1408.6 4147.46,-1412.42"/>
</g>
<!-- Node0x556660888338 -->
<g id="node31" class="node">
<title>Node0x556660888338</title>
<polygon fill="none" stroke="black" points="3978,-887 3637,-887 3637,-851 3978,-851 3978,-887"/>
<text text-anchor="middle" x="3807.5" y="-865.3" font-family="Times,serif" font-size="14.00">{lib/libLLVMSupport.a(MemoryBuffer.cpp.o)}</text>
</g>
<!-- Node0x556660886da8&#45;&gt;Node0x556660888338 -->
<g id="edge90" class="edge">
<title>Node0x556660886da8&#45;&gt;Node0x556660888338</title>
<path fill="none" stroke="black" d="M3149.82,-972.99C3165.89,-969.12 3182.02,-964.5 3197,-959 3214.18,-952.7 3215.59,-944.66 3233,-939 3304.03,-915.91 3486.5,-896 3626.72,-883.38"/>
<polygon fill="black" stroke="black" points="3627.09,-886.86 3636.74,-882.48 3626.47,-879.88 3627.09,-886.86"/>
</g>
<!-- Node0x556660886e98 -->
<g id="node36" class="node">
<title>Node0x556660886e98</title>
<polygon fill="none" stroke="black" points="3601,-1017 3233,-1017 3233,-981 3601,-981 3601,-1017"/>
<text text-anchor="middle" x="3417" y="-995.3" font-family="Times,serif" font-size="14.00">{lib/libLLVMSupport.a(VirtualFileSystem.cpp.o)}</text>
</g>
<!-- Node0x556660886da8&#45;&gt;Node0x556660886e98 -->
<g id="edge94" class="edge">
<title>Node0x556660886da8&#45;&gt;Node0x556660886e98</title>
<path fill="none" stroke="black" d="M3171.04,-987.35C3187.81,-987.54 3205.19,-987.82 3222.62,-988.18"/>
<polygon fill="black" stroke="black" points="3222.81,-991.68 3232.88,-988.4 3222.96,-984.69 3222.81,-991.68"/>
</g>
<!-- Node0x5566608886f8&#45;&gt;Node0x556660887758 -->
<g id="edge110" class="edge">
<title>Node0x5566608886f8&#45;&gt;Node0x556660887758</title>
<path fill="none" stroke="black" d="M3330.64,-1123.07C3218.12,-1146.06 3013.73,-1184.94 2837,-1203 2272.64,-1260.69 1599.28,-1266.9 1289.46,-1266.27"/>
<polygon fill="black" stroke="black" points="1289.06,-1262.77 1279.05,-1266.24 1289.04,-1269.77 1289.06,-1262.77"/>
</g>
<!-- Node0x5566608886f8&#45;&gt;Node0x5566608877a8 -->
<g id="edge108" class="edge">
<title>Node0x5566608886f8&#45;&gt;Node0x5566608877a8</title>
<path fill="none" stroke="black" d="M3555.96,-1086.94C3739.56,-1058.68 4070.29,-992.77 4322,-859 4388.3,-823.76 4451.39,-760.91 4483.83,-725.7"/>
<polygon fill="black" stroke="black" points="4486.5,-727.97 4490.65,-718.22 4481.33,-723.25 4486.5,-727.97"/>
</g>
<!-- Node0x5566608886f8&#45;&gt;Node0x556660887ac8 -->
<g id="edge109" class="edge">
<title>Node0x5566608886f8&#45;&gt;Node0x556660887ac8</title>
<path fill="none" stroke="black" d="M3564.56,-1106.64C3826.61,-1101.01 4374.4,-1048.81 4657,-727 4777.62,-589.65 4839.77,-371 4858.92,-293.43"/>
<polygon fill="black" stroke="black" points="4862.39,-293.99 4861.34,-283.45 4855.59,-292.34 4862.39,-293.99"/>
</g>
<!-- Node0x5566608886f8&#45;&gt;Node0x556660886da8 -->
<g id="edge113" class="edge">
<title>Node0x5566608886f8&#45;&gt;Node0x556660886da8</title>
<path fill="none" stroke="black" d="M3269.29,-1099.02C3256.51,-1094.62 3244.2,-1089.02 3233,-1082 3209.8,-1067.46 3220.03,-1046.81 3197,-1032 3183.3,-1023.19 3167.7,-1016.72 3151.72,-1011.88"/>
<polygon fill="black" stroke="black" points="3152.32,-1008.42 3141.74,-1009.08 3150.42,-1015.15 3152.32,-1008.42"/>
</g>
<!-- Node0x5566608886f8&#45;&gt;Node0x556660888748 -->
<g id="edge111" class="edge">
<title>Node0x5566608886f8&#45;&gt;Node0x556660888748</title>
<path fill="none" stroke="black" d="M3564.62,-1116.02C3577.79,-1121.2 3590.2,-1128.04 3601,-1137 3636.07,-1166.1 3601.25,-1204.75 3637,-1233 3756.85,-1327.71 3838.24,-1214.34 3978,-1276 4048.94,-1307.3 4113.51,-1374.11 4145.63,-1411.07"/>
<polygon fill="black" stroke="black" points="4143.19,-1413.6 4152.35,-1418.92 4148.5,-1409.05 4143.19,-1413.6"/>
</g>
<!-- Node0x556660887bb8 -->
<g id="node29" class="node">
<title>Node0x556660887bb8</title>
<polygon fill="none" stroke="black" points="4657,-1755 4358,-1755 4358,-1719 4657,-1719 4657,-1755"/>
<text text-anchor="middle" x="4507.5" y="-1733.3" font-family="Times,serif" font-size="14.00">{lib/libLLVMSupport.a(Hashing.cpp.o)}</text>
</g>
<!-- Node0x5566608886f8&#45;&gt;Node0x556660887bb8 -->
<g id="edge112" class="edge">
<title>Node0x5566608886f8&#45;&gt;Node0x556660887bb8</title>
<path fill="none" stroke="black" d="M3564.72,-1116.05C3762.02,-1138.52 4112.27,-1206.33 4322,-1410 4415.05,-1500.36 4474.92,-1647.82 4496.97,-1709.01"/>
<polygon fill="black" stroke="black" points="4493.78,-1710.48 4500.42,-1718.74 4500.38,-1708.15 4493.78,-1710.48"/>
</g>
<!-- Node0x556660888b08 -->
<g id="node39" class="node">
<title>Node0x556660888b08</title>
<polygon fill="none" stroke="black" points="3973.5,-1321 3641.5,-1321 3641.5,-1285 3973.5,-1285 3973.5,-1321"/>
<text text-anchor="middle" x="3807.5" y="-1299.3" font-family="Times,serif" font-size="14.00">{lib/libLLVMSupport.a(StringExtras.cpp.o)}</text>
</g>
<!-- Node0x5566608886f8&#45;&gt;Node0x556660888b08 -->
<g id="edge114" class="edge">
<title>Node0x5566608886f8&#45;&gt;Node0x556660888b08</title>
<path fill="none" stroke="black" d="M3564.64,-1114.6C3577.97,-1120.03 3590.41,-1127.31 3601,-1137 3646.51,-1178.61 3591.77,-1229.08 3637,-1271 3640.27,-1274.03 3643.74,-1276.82 3647.37,-1279.39"/>
<polygon fill="black" stroke="black" points="3645.79,-1282.53 3656.11,-1284.96 3649.56,-1276.63 3645.79,-1282.53"/>
</g>
<!-- Node0x556660887de8&#45;&gt;Node0x556660887758 -->
<g id="edge116" class="edge">
<title>Node0x556660887de8&#45;&gt;Node0x556660887758</title>
<path fill="none" stroke="black" d="M2502.36,-1277.67C2479.46,-1278.22 2456.1,-1278.7 2434,-1279 1937.16,-1285.82 1812.58,-1296.53 1316,-1279 1307.3,-1278.69 1298.4,-1278.31 1289.41,-1277.87"/>
<polygon fill="black" stroke="black" points="1289.39,-1274.36 1279.23,-1277.35 1289.04,-1281.36 1289.39,-1274.36"/>
</g>
<!-- Node0x556660887de8&#45;&gt;Node0x556660887848 -->
<g id="edge119" class="edge">
<title>Node0x556660887de8&#45;&gt;Node0x556660887848</title>
<path fill="none" stroke="black" d="M2618.41,-1254.86C2581.14,-1229.82 2520.05,-1183.81 2470,-1141 2401.35,-1082.29 2325.06,-1007.27 2289.42,-968.04"/>
<polygon fill="black" stroke="black" points="2291.72,-965.36 2282.45,-960.23 2286.5,-970.02 2291.72,-965.36"/>
</g>
<!-- Node0x556660887de8&#45;&gt;Node0x556660886da8 -->
<g id="edge120" class="edge">
<title>Node0x556660887de8&#45;&gt;Node0x556660886da8</title>
<path fill="none" stroke="black" d="M2689.35,-1254.94C2727.01,-1234.85 2788.17,-1200.52 2837,-1165 2902.8,-1117.13 2972.51,-1051.53 3008.77,-1016.12"/>
<polygon fill="black" stroke="black" points="3011.29,-1018.54 3015.98,-1009.04 3006.39,-1013.55 3011.29,-1018.54"/>
</g>
<!-- Node0x556660887de8&#45;&gt;Node0x556660888108 -->
<g id="edge115" class="edge">
<title>Node0x556660887de8&#45;&gt;Node0x556660888108</title>
<path fill="none" stroke="black" d="M2804.6,-1274.15C2913.59,-1275.72 3064.55,-1279.4 3197,-1288 3371.1,-1299.31 3804.63,-1348.54 3978,-1368 4131.06,-1385.18 4171.2,-1378.63 4322,-1410 4791.88,-1507.74 5340.41,-1697.74 5518.76,-1761.53"/>
<polygon fill="black" stroke="black" points="5517.63,-1764.84 5528.22,-1764.92 5519.99,-1758.25 5517.63,-1764.84"/>
</g>
<!-- Node0x556660887de8&#45;&gt;Node0x5566608876b8 -->
<g id="edge122" class="edge">
<title>Node0x556660887de8&#45;&gt;Node0x5566608876b8</title>
<path fill="none" stroke="black" d="M2691.29,-1254.85C2733.36,-1232.11 2801.05,-1189.09 2837,-1132 2877.69,-1067.39 2822,-1020.84 2873,-964 2985.54,-838.58 3070,-887.75 3233,-845 4066.73,-626.35 5091.65,-459.64 5448.36,-404.56"/>
<polygon fill="black" stroke="black" points="5449.11,-407.99 5458.46,-403 5448.04,-401.07 5449.11,-407.99"/>
</g>
<!-- Node0x5566608886a8 -->
<g id="node27" class="node">
<title>Node0x5566608886a8</title>
<polygon fill="none" stroke="black" points="3197,-1557 2873,-1557 2873,-1521 3197,-1521 3197,-1557"/>
<text text-anchor="middle" x="3035" y="-1535.3" font-family="Times,serif" font-size="14.00">{lib/libLLVMSupport.a(StringSaver.cpp.o)}</text>
</g>
<!-- Node0x556660887de8&#45;&gt;Node0x5566608886a8 -->
<g id="edge117" class="edge">
<title>Node0x556660887de8&#45;&gt;Node0x5566608886a8</title>
<path fill="none" stroke="black" d="M2687.63,-1291.01C2724.85,-1311.65 2786.63,-1347.12 2837,-1382 2899.34,-1425.17 2967.61,-1481.88 3005.17,-1513.99"/>
<polygon fill="black" stroke="black" points="3003.28,-1516.98 3013.15,-1520.84 3007.84,-1511.67 3003.28,-1516.98"/>
</g>
<!-- Node0x556660887de8&#45;&gt;Node0x556660888748 -->
<g id="edge118" class="edge">
<title>Node0x556660887de8&#45;&gt;Node0x556660888748</title>
<path fill="none" stroke="black" d="M2804.77,-1285.28C2913.84,-1294.84 3064.83,-1309.43 3197,-1327 3213.08,-1329.14 3216.92,-1330.87 3233,-1333 3562.83,-1376.59 3648.12,-1362.83 3978,-1406 4002.89,-1409.26 4029.53,-1413.29 4054.73,-1417.35"/>
<polygon fill="black" stroke="black" points="4054.24,-1420.82 4064.68,-1418.97 4055.37,-1413.91 4054.24,-1420.82"/>
</g>
<!-- Node0x556660887de8&#45;&gt;Node0x556660888b08 -->
<g id="edge121" class="edge">
<title>Node0x556660887de8&#45;&gt;Node0x556660888b08</title>
<path fill="none" stroke="black" d="M2804.51,-1255.89C2827.42,-1253.86 2850.82,-1252.11 2873,-1251 3196.23,-1234.77 3279.2,-1232.6 3601,-1267 3636.4,-1270.78 3674.91,-1276.97 3708.93,-1283.16"/>
<polygon fill="black" stroke="black" points="3708.4,-1286.62 3718.86,-1284.99 3709.66,-1279.73 3708.4,-1286.62"/>
</g>
<!-- Node0x556660886c18 -->
<g id="node19" class="node">
<title>Node0x556660886c18</title>
<polygon fill="none" stroke="black" points="2054,-542 1768,-542 1768,-506 2054,-506 2054,-542"/>
<text text-anchor="middle" x="1911" y="-520.3" font-family="Times,serif" font-size="14.00">{lib/libLLVMSupport.a(Debug.cpp.o)}</text>
</g>
<!-- Node0x556660886c18&#45;&gt;Node0x556660887ac8 -->
<g id="edge30" class="edge">
<title>Node0x556660886c18&#45;&gt;Node0x556660887ac8</title>
<path fill="none" stroke="black" d="M2027.23,-505.97C2051.89,-502.24 2077.8,-498.41 2102,-495 2783.16,-399.1 2951.17,-350.03 3637,-297 4007.39,-268.36 4442.27,-263.88 4682.55,-263.94"/>
<polygon fill="black" stroke="black" points="4682.79,-267.44 4692.79,-263.94 4682.79,-260.44 4682.79,-267.44"/>
</g>
<!-- Node0x556660886c18&#45;&gt;Node0x556660887848 -->
<g id="edge31" class="edge">
<title>Node0x556660886c18&#45;&gt;Node0x556660887848</title>
<path fill="none" stroke="black" d="M1971.45,-542.13C2002.32,-553.78 2039.11,-571.4 2066,-596 2169.15,-690.36 2234.33,-850.17 2257.5,-914.23"/>
<polygon fill="black" stroke="black" points="2254.21,-915.41 2260.86,-923.66 2260.8,-913.07 2254.21,-915.41"/>
</g>
<!-- Node0x556660886e48 -->
<g id="node20" class="node">
<title>Node0x556660886e48</title>
<polygon fill="none" stroke="black" points="400,-199 95,-199 95,-163 400,-163 400,-199"/>
<text text-anchor="middle" x="247.5" y="-177.3" font-family="Times,serif" font-size="14.00">{lib/libLLVMSupport.a(InitLLVM.cpp.o)}</text>
</g>
<!-- Node0x556660886e48&#45;&gt;Node0x556660888ab8 -->
<g id="edge32" class="edge">
<title>Node0x556660886e48&#45;&gt;Node0x556660888ab8</title>
<path fill="none" stroke="black" d="M400.17,-173.86C670.27,-162.6 1212.72,-147.02 1280,-200 1329.8,-239.21 1289.63,-280.36 1316,-338 1365.01,-445.13 1453.11,-555.32 1494.44,-604.09"/>
<polygon fill="black" stroke="black" points="1491.97,-606.59 1501.13,-611.92 1497.3,-602.04 1491.97,-606.59"/>
</g>
<!-- Node0x556660886e48&#45;&gt;Node0x556660887ac8 -->
<g id="edge33" class="edge">
<title>Node0x556660886e48&#45;&gt;Node0x556660887ac8</title>
<path fill="none" stroke="black" d="M374.62,-162.99C543.19,-140.51 851.43,-105 1116,-105 1116,-105 1116,-105 4169,-105 4413.37,-105 4694.01,-199.71 4810.45,-243.4"/>
<polygon fill="black" stroke="black" points="4809.28,-246.7 4819.87,-246.96 4811.76,-240.15 4809.28,-246.7"/>
</g>
<!-- Node0x556660886e48&#45;&gt;Node0x556660887b68 -->
<g id="edge36" class="edge">
<title>Node0x556660886e48&#45;&gt;Node0x556660887b68</title>
<path fill="none" stroke="black" d="M400.12,-167.17C442.45,-163.86 488.48,-160.78 531,-159 974.78,-140.46 1499.57,-144.59 1754.9,-148.27"/>
<polygon fill="black" stroke="black" points="1754.94,-151.77 1764.99,-148.42 1755.04,-144.77 1754.94,-151.77"/>
</g>
<!-- Node0x556660886e48&#45;&gt;Node0x556660888108 -->
<g id="edge34" class="edge">
<title>Node0x556660886e48&#45;&gt;Node0x556660888108</title>
<path fill="none" stroke="black" d="M253.25,-199.22C281.41,-307.97 427.5,-882.82 495,-1361 502.51,-1414.18 494.53,-1803.57 531,-1843 606.27,-1924.38 1326.72,-2011 1910,-2011 1910,-2011 1910,-2011 4867.5,-2011 5099.12,-2011 5177.75,-2082.18 5388,-1985 5470.39,-1946.92 5534.47,-1855.39 5562.53,-1809.77"/>
<polygon fill="black" stroke="black" points="5565.63,-1811.4 5567.81,-1801.03 5559.64,-1807.78 5565.63,-1811.4"/>
</g>
<!-- Node0x556660889058 -->
<g id="node22" class="node">
<title>Node0x556660889058</title>
<polygon fill="none" stroke="black" points="906.5,-291 542.5,-291 542.5,-255 906.5,-255 906.5,-291"/>
<text text-anchor="middle" x="724.5" y="-269.3" font-family="Times,serif" font-size="14.00">{lib/libLLVMSupport.a(PrettyStackTrace.cpp.o)}</text>
</g>
<!-- Node0x556660886e48&#45;&gt;Node0x556660889058 -->
<g id="edge35" class="edge">
<title>Node0x556660886e48&#45;&gt;Node0x556660889058</title>
<path fill="none" stroke="black" d="M341.5,-199.01C421.69,-214.54 537.35,-236.95 620.37,-253.02"/>
<polygon fill="black" stroke="black" points="619.84,-256.49 630.32,-254.95 621.17,-249.62 619.84,-256.49"/>
</g>
<!-- Node0x556660889058&#45;&gt;Node0x556660887758 -->
<g id="edge37" class="edge">
<title>Node0x556660889058&#45;&gt;Node0x556660887758</title>
<path fill="none" stroke="black" d="M733.19,-291.34C759.5,-354.2 848.17,-566.9 918,-744 992.05,-931.81 1076.91,-1159.54 1105.78,-1237.38"/>
<polygon fill="black" stroke="black" points="1102.56,-1238.78 1109.32,-1246.94 1109.13,-1236.35 1102.56,-1238.78"/>
</g>
<!-- Node0x556660889058&#45;&gt;Node0x556660887848 -->
<g id="edge38" class="edge">
<title>Node0x556660889058&#45;&gt;Node0x556660887848</title>
<path fill="none" stroke="black" d="M730.53,-291.03C748.83,-353.03 818,-559.11 954,-657 1136.89,-788.64 1791.65,-883.92 2101.81,-922.74"/>
<polygon fill="black" stroke="black" points="2101.43,-926.22 2111.79,-923.98 2102.3,-919.27 2101.43,-926.22"/>
</g>
<!-- Node0x556660889058&#45;&gt;Node0x556660887b68 -->
<g id="edge39" class="edge">
<title>Node0x556660889058&#45;&gt;Node0x556660887b68</title>
<path fill="none" stroke="black" d="M906.63,-272.63C1015.15,-270.95 1155.74,-266.24 1280,-254 1469.67,-235.32 1688.8,-195.26 1812.23,-170.97"/>
<polygon fill="black" stroke="black" points="1812.91,-174.4 1822.04,-169.03 1811.56,-167.54 1812.91,-174.4"/>
</g>
<!-- Node0x556660888c98 -->
<g id="node23" class="node">
<title>Node0x556660888c98</title>
<polygon fill="none" stroke="black" points="1272,-245 962,-245 962,-209 1272,-209 1272,-245"/>
<text text-anchor="middle" x="1117" y="-223.3" font-family="Times,serif" font-size="14.00">{lib/libLLVMSupport.a(Watchdog.cpp.o)}</text>
</g>
<!-- Node0x556660889058&#45;&gt;Node0x556660888c98 -->
<g id="edge40" class="edge">
<title>Node0x556660889058&#45;&gt;Node0x556660888c98</title>
<path fill="none" stroke="black" d="M878.44,-254.98C902.86,-252.11 928.22,-249.12 952.87,-246.22"/>
<polygon fill="black" stroke="black" points="953.5,-249.67 963.02,-245.02 952.68,-242.71 953.5,-249.67"/>
</g>
<!-- Node0x5566608868f8 -->
<g id="node25" class="node">
<title>Node0x5566608868f8</title>
<polygon fill="none" stroke="black" points="1280,-648 954,-648 954,-612 1280,-612 1280,-648"/>
<text text-anchor="middle" x="1117" y="-626.3" font-family="Times,serif" font-size="14.00">{lib/libLLVMSupport.a(SmallPtrSet.cpp.o)}</text>
</g>
<!-- Node0x5566608868f8&#45;&gt;Node0x556660888ab8 -->
<g id="edge46" class="edge">
<title>Node0x5566608868f8&#45;&gt;Node0x556660888ab8</title>
<path fill="none" stroke="black" d="M1280,-630C1298.39,-630 1317.22,-630 1335.84,-630"/>
<polygon fill="black" stroke="black" points="1335.86,-633.5 1345.86,-630 1335.86,-626.5 1335.86,-633.5"/>
</g>
<!-- Node0x556660887a28 -->
<g id="node26" class="node">
<title>Node0x556660887a28</title>
<polygon fill="none" stroke="black" points="3965.5,-1451 3649.5,-1451 3649.5,-1415 3965.5,-1415 3965.5,-1451"/>
<text text-anchor="middle" x="3807.5" y="-1429.3" font-family="Times,serif" font-size="14.00">{lib/libLLVMSupport.a(StringMap.cpp.o)}</text>
</g>
<!-- Node0x556660887a28&#45;&gt;Node0x556660888ab8 -->
<g id="edge47" class="edge">
<title>Node0x556660887a28&#45;&gt;Node0x556660888ab8</title>
<path fill="none" stroke="black" d="M3649.4,-1426.95C3344.44,-1413.65 2683.47,-1376.73 2470,-1300 2049.56,-1148.88 1645.63,-758.64 1543.62,-655.38"/>
<polygon fill="black" stroke="black" points="1546.04,-652.85 1536.53,-648.17 1541.05,-657.76 1546.04,-652.85"/>
</g>
<!-- Node0x5566608886a8&#45;&gt;Node0x556660887758 -->
<g id="edge49" class="edge">
<title>Node0x5566608886a8&#45;&gt;Node0x556660887758</title>
<path fill="none" stroke="black" d="M2872.82,-1536.34C2718.01,-1534.01 2477.53,-1531 2269,-1531 1910,-1531 1910,-1531 1910,-1531 1777.89,-1531 1428.9,-1575.6 1316,-1507 1288.44,-1490.25 1298.93,-1470.11 1280,-1444 1237.23,-1385.01 1177.84,-1323.59 1144.12,-1290.24"/>
<polygon fill="black" stroke="black" points="1146.52,-1287.69 1136.94,-1283.17 1141.61,-1292.68 1146.52,-1287.69"/>
</g>
<!-- Node0x5566608886a8&#45;&gt;Node0x556660888108 -->
<g id="edge48" class="edge">
<title>Node0x5566608886a8&#45;&gt;Node0x556660888108</title>
<path fill="none" stroke="black" d="M3085.09,-1557.13C3186.65,-1593.9 3427.81,-1677.45 3637,-1721 3869.18,-1769.34 3929.84,-1783 4167,-1783 4167,-1783 4167,-1783 4867.5,-1783 5054.66,-1783 5269.56,-1783 5413.57,-1783"/>
<polygon fill="black" stroke="black" points="5413.81,-1786.5 5423.81,-1783 5413.81,-1779.5 5413.81,-1786.5"/>
</g>
<!-- Node0x556660888748&#45;&gt;Node0x556660887758 -->
<g id="edge52" class="edge">
<title>Node0x556660888748&#45;&gt;Node0x556660887758</title>
<path fill="none" stroke="black" d="M4096.63,-1455.07C4061.29,-1463.24 4017.66,-1471.95 3978,-1476 3827.23,-1491.39 3788.55,-1477.62 3637,-1476 3200.26,-1471.33 3091.27,-1455 2654.5,-1455 1910,-1455 1910,-1455 1910,-1455 1644.95,-1455 1565.24,-1492.17 1316,-1402 1247.3,-1377.14 1180.11,-1322.37 1144.4,-1290.11"/>
<polygon fill="black" stroke="black" points="1146.59,-1287.37 1136.85,-1283.2 1141.86,-1292.54 1146.59,-1287.37"/>
</g>
<!-- Node0x556660888748&#45;&gt;Node0x5566608877a8 -->
<g id="edge51" class="edge">
<title>Node0x556660888748&#45;&gt;Node0x5566608877a8</title>
<path fill="none" stroke="black" d="M4177.34,-1418.78C4222.66,-1319.82 4439.22,-846.93 4493.92,-727.46"/>
<polygon fill="black" stroke="black" points="4497.17,-728.79 4498.15,-718.24 4490.8,-725.88 4497.17,-728.79"/>
</g>
<!-- Node0x556660888748&#45;&gt;Node0x556660888d38 -->
<g id="edge50" class="edge">
<title>Node0x556660888748&#45;&gt;Node0x556660888d38</title>
<path fill="none" stroke="black" d="M4200.91,-1418.91C4283.16,-1371.25 4506.49,-1235.24 4657,-1081 4744.09,-991.76 4820.13,-862.56 4850.92,-807.03"/>
<polygon fill="black" stroke="black" points="4854.05,-808.6 4855.8,-798.15 4847.92,-805.23 4854.05,-808.6"/>
</g>
<!-- Node0x556660888748&#45;&gt;Node0x556660887bb8 -->
<g id="edge53" class="edge">
<title>Node0x556660888748&#45;&gt;Node0x556660887bb8</title>
<path fill="none" stroke="black" d="M4189.35,-1455.09C4247.14,-1506.46 4412.34,-1653.3 4478.55,-1712.16"/>
<polygon fill="black" stroke="black" points="4476.32,-1714.86 4486.12,-1718.89 4480.97,-1709.63 4476.32,-1714.86"/>
</g>
<!-- Node0x556660888f18 -->
<g id="node30" class="node">
<title>Node0x556660888f18</title>
<polygon fill="none" stroke="black" points="872.5,-789 576.5,-789 576.5,-753 872.5,-753 872.5,-789"/>
<text text-anchor="middle" x="724.5" y="-767.3" font-family="Times,serif" font-size="14.00">{lib/libLLVMSupport.a(APFloat.cpp.o)}</text>
</g>
<!-- Node0x556660888f18&#45;&gt;Node0x556660887758 -->
<g id="edge57" class="edge">
<title>Node0x556660888f18&#45;&gt;Node0x556660887758</title>
<path fill="none" stroke="black" d="M739.86,-789.17C799.25,-864.29 1025.77,-1150.86 1095.47,-1239.03"/>
<polygon fill="black" stroke="black" points="1092.77,-1241.25 1101.71,-1246.93 1098.26,-1236.91 1092.77,-1241.25"/>
</g>
<!-- Node0x556660888f18&#45;&gt;Node0x5566608877a8 -->
<g id="edge55" class="edge">
<title>Node0x556660888f18&#45;&gt;Node0x5566608877a8</title>
<path fill="none" stroke="black" d="M729.68,-752.79C745.54,-688.27 808.69,-469.78 954,-381 1099.49,-292.11 1579.25,-434.22 1720,-338 1751.85,-316.22 1724.05,-280.63 1756,-259 1850.14,-195.27 2153.32,-235 2267,-235 2267,-235 2267,-235 3036,-235 3617.34,-235 3821.88,-177.63 4322,-474 4404.93,-523.14 4466.52,-624.12 4492.67,-672.7"/>
<polygon fill="black" stroke="black" points="4489.66,-674.49 4497.42,-681.69 4495.84,-671.21 4489.66,-674.49"/>
</g>
<!-- Node0x556660888f18&#45;&gt;Node0x556660888d38 -->
<g id="edge54" class="edge">
<title>Node0x556660888f18&#45;&gt;Node0x556660888d38</title>
<path fill="none" stroke="black" d="M732.44,-752.62C754.69,-696.58 830.04,-527.34 954,-455 1101.94,-368.66 1582.04,-470.53 1720,-369 1752.06,-345.41 1722.98,-309.22 1756,-287 1803.13,-255.29 2210.2,-273 2267,-273 2267,-273 2267,-273 2654.5,-273 3167.61,-273 3293.39,-349 3806.5,-349 3806.5,-349 3806.5,-349 4169,-349 4478.54,-349 4765.26,-660.63 4844.16,-753.92"/>
<polygon fill="black" stroke="black" points="4841.62,-756.34 4850.73,-761.76 4846.99,-751.84 4841.62,-756.34"/>
</g>
<!-- Node0x556660888f18&#45;&gt;Node0x556660887848 -->
<g id="edge60" class="edge">
<title>Node0x556660888f18&#45;&gt;Node0x556660887848</title>
<path fill="none" stroke="black" d="M791.28,-789.07C899.67,-817.97 1123.04,-873.91 1316,-899 1460.84,-917.84 1859,-931.16 2091.65,-937.6"/>
<polygon fill="black" stroke="black" points="2091.82,-941.11 2101.91,-937.89 2092.01,-934.11 2091.82,-941.11"/>
</g>
<!-- Node0x556660888f18&#45;&gt;Node0x556660888748 -->
<g id="edge58" class="edge">
<title>Node0x556660888f18&#45;&gt;Node0x556660888748</title>
<path fill="none" stroke="black" d="M872.64,-764.33C1474.32,-738.38 3727.54,-654.53 3978,-842 4073.32,-913.35 4144.24,-1300.47 4162.43,-1408.81"/>
<polygon fill="black" stroke="black" points="4159.02,-1409.67 4164.11,-1418.96 4165.93,-1408.53 4159.02,-1409.67"/>
</g>
<!-- Node0x556660888f18&#45;&gt;Node0x556660887bb8 -->
<g id="edge59" class="edge">
<title>Node0x556660888f18&#45;&gt;Node0x556660887bb8</title>
<path fill="none" stroke="black" d="M741.98,-789.25C780.02,-832.49 874.04,-946.07 918,-1059 956.01,-1156.65 898.19,-1203.32 954,-1292 966.98,-1312.63 1293.14,-1531.53 1316,-1540 1881.08,-1749.29 3783.4,-1745.26 4347.53,-1739.22"/>
<polygon fill="black" stroke="black" points="4347.81,-1742.72 4357.77,-1739.11 4347.74,-1735.72 4347.81,-1742.72"/>
</g>
<!-- Node0x556660888f18&#45;&gt;Node0x556660888338 -->
<g id="edge56" class="edge">
<title>Node0x556660888f18&#45;&gt;Node0x556660888338</title>
<path fill="none" stroke="black" d="M745.05,-752.94C782.74,-719.02 869.22,-645.39 954,-603 1187.79,-486.11 1255.62,-433 1517,-433 1517,-433 1517,-433 1912,-433 2324.03,-433 2434.68,-406.07 2837,-495 3209,-577.23 3627.01,-778.3 3761.96,-846.19"/>
<polygon fill="black" stroke="black" points="3760.68,-849.46 3771.19,-850.84 3763.84,-843.21 3760.68,-849.46"/>
</g>
<!-- Node0x556660886f38 -->
<g id="node32" class="node">
<title>Node0x556660886f38</title>
<polygon fill="none" stroke="black" points="864,-1692 585,-1692 585,-1656 864,-1656 864,-1692"/>
<text text-anchor="middle" x="724.5" y="-1670.3" font-family="Times,serif" font-size="14.00">{lib/libLLVMSupport.a(APInt.cpp.o)}</text>
</g>
<!-- Node0x556660886f38&#45;&gt;Node0x556660887758 -->
<g id="edge61" class="edge">
<title>Node0x556660886f38&#45;&gt;Node0x556660887758</title>
<path fill="none" stroke="black" d="M742.78,-1655.9C805.14,-1590.58 1018.72,-1366.89 1091.49,-1290.68"/>
<polygon fill="black" stroke="black" points="1094.1,-1293.01 1098.47,-1283.36 1089.04,-1288.17 1094.1,-1293.01"/>
</g>
<!-- Node0x556660886f38&#45;&gt;Node0x556660887848 -->
<g id="edge64" class="edge">
<title>Node0x556660886f38&#45;&gt;Node0x556660887848</title>
<path fill="none" stroke="black" d="M864.16,-1675.05C978.95,-1671.78 1144.57,-1657.34 1280,-1607 1707.48,-1448.1 2131.55,-1068.84 2240.3,-967.35"/>
<polygon fill="black" stroke="black" points="2242.96,-969.65 2247.86,-960.26 2238.17,-964.54 2242.96,-969.65"/>
</g>
<!-- Node0x556660886f38&#45;&gt;Node0x556660888748 -->
<g id="edge62" class="edge">
<title>Node0x556660886f38&#45;&gt;Node0x556660888748</title>
<path fill="none" stroke="black" d="M861.22,-1692.03C980.71,-1706.95 1159.55,-1726.94 1316,-1735 2331.14,-1787.29 2587.17,-1710.49 3601,-1637 3768.8,-1624.84 3823.4,-1669.34 3978,-1603 4050.76,-1571.78 4115.25,-1501.53 4146.69,-1463.19"/>
<polygon fill="black" stroke="black" points="4149.69,-1465.04 4153.25,-1455.06 4144.25,-1460.65 4149.69,-1465.04"/>
</g>
<!-- Node0x556660886f38&#45;&gt;Node0x556660887bb8 -->
<g id="edge63" class="edge">
<title>Node0x556660886f38&#45;&gt;Node0x556660887bb8</title>
<path fill="none" stroke="black" d="M784.07,-1692.01C829.87,-1705.33 895.39,-1722.7 954,-1732 1113.25,-1757.27 1154.91,-1748.96 1316,-1756 2330.69,-1800.37 2585.56,-1810.12 3601,-1789 3921.65,-1782.33 4002.31,-1784.67 4322,-1759 4332.65,-1758.14 4343.63,-1757.14 4354.68,-1756.05"/>
<polygon fill="black" stroke="black" points="4355.24,-1759.51 4364.83,-1755.01 4354.53,-1752.54 4355.24,-1759.51"/>
</g>
<!-- Node0x556660887398 -->
<g id="node33" class="node">
<title>Node0x556660887398</title>
<polygon fill="none" stroke="black" points="883,-1834 566,-1834 566,-1798 883,-1798 883,-1834"/>
<text text-anchor="middle" x="724.5" y="-1812.3" font-family="Times,serif" font-size="14.00">{lib/libLLVMSupport.a(FoldingSet.cpp.o)}</text>
</g>
<!-- Node0x556660887398&#45;&gt;Node0x556660887758 -->
<g id="edge67" class="edge">
<title>Node0x556660887398&#45;&gt;Node0x556660887758</title>
<path fill="none" stroke="black" d="M778.04,-1797.88C822,-1780.03 882.99,-1748.47 918,-1701 958.18,-1646.52 929.17,-1615.98 954,-1553 994.11,-1451.26 1064.32,-1341.34 1097.55,-1291.84"/>
<polygon fill="black" stroke="black" points="1100.61,-1293.56 1103.31,-1283.32 1094.81,-1289.64 1100.61,-1293.56"/>
</g>
<!-- Node0x556660887398&#45;&gt;Node0x556660888ab8 -->
<g id="edge65" class="edge">
<title>Node0x556660887398&#45;&gt;Node0x556660888ab8</title>
<path fill="none" stroke="black" d="M783.62,-1797.84C828.45,-1780.55 887.75,-1749.8 918,-1701 972.38,-1613.29 913.5,-1332.92 954,-1238 1039.36,-1037.95 1160.67,-1054.85 1280,-873 1300.95,-841.08 1292.65,-825.21 1316,-795 1362.46,-734.88 1434.69,-682.5 1478.74,-653.67"/>
<polygon fill="black" stroke="black" points="1480.66,-656.59 1487.16,-648.22 1476.86,-650.71 1480.66,-656.59"/>
</g>
<!-- Node0x556660887398&#45;&gt;Node0x556660888108 -->
<g id="edge66" class="edge">
<title>Node0x556660887398&#45;&gt;Node0x556660888108</title>
<path fill="none" stroke="black" d="M774.64,-1834.15C820.4,-1850.19 890.84,-1872.75 954,-1884 1112.71,-1912.28 1155.04,-1897.91 1316,-1907 1909.78,-1940.52 2057.78,-1973 2652.5,-1973 2652.5,-1973 2652.5,-1973 4867.5,-1973 5099.08,-1973 5173.12,-2035.34 5388,-1949 5461.87,-1919.32 5526.62,-1848.11 5557.97,-1809.3"/>
<polygon fill="black" stroke="black" points="5561.01,-1811.09 5564.49,-1801.08 5555.53,-1806.73 5561.01,-1811.09"/>
</g>
<!-- Node0x556660887398&#45;&gt;Node0x556660887a28 -->
<g id="edge68" class="edge">
<title>Node0x556660887398&#45;&gt;Node0x556660887a28</title>
<path fill="none" stroke="black" d="M883.17,-1806.31C1275.89,-1780.83 2328.68,-1704.19 3197,-1566 3388.49,-1535.52 3610.24,-1482.63 3726.27,-1453.57"/>
<polygon fill="black" stroke="black" points="3727.3,-1456.92 3736.15,-1451.1 3725.59,-1450.14 3727.3,-1456.92"/>
</g>
<!-- Node0x556660887398&#45;&gt;Node0x556660888748 -->
<g id="edge69" class="edge">
<title>Node0x556660887398&#45;&gt;Node0x556660888748</title>
<path fill="none" stroke="black" d="M883.27,-1813.42C994.25,-1811.4 1146.22,-1808.23 1280,-1804 1580.22,-1794.51 3707.05,-1764.65 3978,-1635 4058.41,-1596.53 4122.45,-1508.13 4150.95,-1463.63"/>
<polygon fill="black" stroke="black" points="4153.96,-1465.41 4156.32,-1455.08 4148.03,-1461.68 4153.96,-1465.41"/>
</g>
<!-- Node0x556660887398&#45;&gt;Node0x556660887bb8 -->
<g id="edge70" class="edge">
<title>Node0x556660887398&#45;&gt;Node0x556660887bb8</title>
<path fill="none" stroke="black" d="M833,-1834.03C984.92,-1857.89 1271.3,-1897 1517,-1897 1517,-1897 1517,-1897 1912,-1897 2984.33,-1897 3260.69,-1935.31 4322,-1782 4359.87,-1776.53 4401.32,-1766.77 4435.32,-1757.74"/>
<polygon fill="black" stroke="black" points="4436.41,-1761.07 4445.16,-1755.09 4434.59,-1754.31 4436.41,-1761.07"/>
</g>
<!-- Node0x5566608882e8 -->
<g id="node34" class="node">
<title>Node0x5566608882e8</title>
<polygon fill="none" stroke="black" points="388,-1406 107,-1406 107,-1370 388,-1370 388,-1406"/>
<text text-anchor="middle" x="247.5" y="-1384.3" font-family="Times,serif" font-size="14.00">{lib/libLLVMSupport.a(Triple.cpp.o)}</text>
</g>
<!-- Node0x5566608882e8&#45;&gt;Node0x556660887758 -->
<g id="edge71" class="edge">
<title>Node0x5566608882e8&#45;&gt;Node0x556660887758</title>
<path fill="none" stroke="black" d="M299.3,-1369.97C355.28,-1350.92 448.36,-1321.65 531,-1307 668.85,-1282.56 827.37,-1272.26 944.6,-1267.96"/>
<polygon fill="black" stroke="black" points="944.87,-1271.45 954.74,-1267.6 944.63,-1264.45 944.87,-1271.45"/>
</g>
<!-- Node0x5566608882e8&#45;&gt;Node0x556660886c68 -->
<g id="edge74" class="edge">
<title>Node0x5566608882e8&#45;&gt;Node0x556660886c68</title>
<path fill="none" stroke="black" d="M251.04,-1369.82C263.77,-1285.52 328.29,-928.94 531,-744 908,-400.05 1608.35,-543.44 1836.26,-602.35"/>
<polygon fill="black" stroke="black" points="1835.55,-605.78 1846.11,-604.92 1837.31,-599.01 1835.55,-605.78"/>
</g>
<!-- Node0x5566608882e8&#45;&gt;Node0x556660888748 -->
<g id="edge72" class="edge">
<title>Node0x5566608882e8&#45;&gt;Node0x556660888748</title>
<path fill="none" stroke="black" d="M254.19,-1406.24C276.71,-1475.32 366.51,-1722.98 531,-1843 687.57,-1957.24 761.65,-1925.27 954,-1949 1945.9,-2071.39 2204.26,-1904.4 3197,-1789 3545.13,-1748.53 3674.59,-1855.42 3978,-1680 4067.33,-1628.35 4129.41,-1516.41 4154.54,-1464.48"/>
<polygon fill="black" stroke="black" points="4157.81,-1465.75 4158.94,-1455.22 4151.49,-1462.75 4157.81,-1465.75"/>
</g>
<!-- Node0x556660888b58 -->
<g id="node35" class="node">
<title>Node0x556660888b58</title>
<polygon fill="none" stroke="black" points="907,-1406 542,-1406 542,-1370 907,-1370 907,-1406"/>
<text text-anchor="middle" x="724.5" y="-1384.3" font-family="Times,serif" font-size="14.00">{lib/libLLVMSupport.a(ARMTargetParser.cpp.o)}</text>
</g>
<!-- Node0x5566608882e8&#45;&gt;Node0x556660888b58 -->
<g id="edge73" class="edge">
<title>Node0x5566608882e8&#45;&gt;Node0x556660888b58</title>
<path fill="none" stroke="black" d="M388.13,-1381.79C432.97,-1381.27 483.46,-1381.12 531.39,-1381.36"/>
<polygon fill="black" stroke="black" points="531.55,-1384.86 541.57,-1381.42 531.59,-1377.86 531.55,-1384.86"/>
</g>
<!-- Node0x556660888b58&#45;&gt;Node0x556660887758 -->
<g id="edge75" class="edge">
<title>Node0x556660888b58&#45;&gt;Node0x556660887758</title>
<path fill="none" stroke="black" d="M883.44,-1369.95C895.23,-1367.36 906.86,-1364.39 918,-1361 976.2,-1343.29 1038.6,-1310.47 1077.46,-1288.19"/>
<polygon fill="black" stroke="black" points="1079.44,-1291.09 1086.34,-1283.05 1075.93,-1285.03 1079.44,-1291.09"/>
</g>
<!-- Node0x556660888b58&#45;&gt;Node0x556660888748 -->
<g id="edge76" class="edge">
<title>Node0x556660888b58&#45;&gt;Node0x556660888748</title>
<path fill="none" stroke="black" d="M737.12,-1406.16C766.78,-1450.62 850.32,-1564.39 954,-1607 1184.54,-1701.74 2947.99,-1647.82 3197,-1637 3284.02,-1633.22 3896.12,-1598.73 3978,-1569 4043.13,-1545.35 4106.6,-1493.32 4140.88,-1462.11"/>
<polygon fill="black" stroke="black" points="4143.57,-1464.39 4148.54,-1455.03 4138.82,-1459.25 4143.57,-1464.39"/>
</g>
<!-- Node0x556660888b58&#45;&gt;Node0x5566608882e8 -->
<g id="edge77" class="edge">
<title>Node0x556660888b58&#45;&gt;Node0x5566608882e8</title>
<path fill="none" stroke="black" d="M541.57,-1394.58C494.25,-1394.87 443.81,-1394.79 398.35,-1394.32"/>
<polygon fill="black" stroke="black" points="398.16,-1390.82 388.13,-1394.21 398.09,-1397.82 398.16,-1390.82"/>
</g>
<!-- Node0x556660886e98&#45;&gt;Node0x556660887758 -->
<g id="edge82" class="edge">
<title>Node0x556660886e98&#45;&gt;Node0x556660887758</title>
<path fill="none" stroke="black" d="M3338.34,-1017.07C3232.25,-1042.4 3036.49,-1091.4 2873,-1145 2856.69,-1150.35 2853.78,-1155.39 2837,-1159 2589.85,-1212.15 2521.8,-1189 2269,-1189 1910,-1189 1910,-1189 1910,-1189 1673.46,-1189 1399,-1223.01 1243.18,-1245.52"/>
<polygon fill="black" stroke="black" points="1242.48,-1242.09 1233.09,-1246.99 1243.49,-1249.01 1242.48,-1242.09"/>
</g>
<!-- Node0x556660886e98&#45;&gt;Node0x5566608877a8 -->
<g id="edge79" class="edge">
<title>Node0x556660886e98&#45;&gt;Node0x5566608877a8</title>
<path fill="none" stroke="black" d="M3570.54,-980.97C3754.04,-955.76 4068.98,-901.14 4322,-799 4374.83,-777.68 4432.12,-745.36 4468.61,-723.5"/>
<polygon fill="black" stroke="black" points="4470.67,-726.34 4477.43,-718.18 4467.06,-720.35 4470.67,-726.34"/>
</g>
<!-- Node0x556660886e98&#45;&gt;Node0x556660888d38 -->
<g id="edge78" class="edge">
<title>Node0x556660886e98&#45;&gt;Node0x556660888d38</title>
<path fill="none" stroke="black" d="M3601.15,-1009.6C3898.18,-1024.24 4470.55,-1041.14 4657,-967 4741.51,-933.4 4813.82,-849.08 4846.66,-806.09"/>
<polygon fill="black" stroke="black" points="4849.47,-808.16 4852.69,-798.07 4843.88,-803.96 4849.47,-808.16"/>
</g>
<!-- Node0x556660886e98&#45;&gt;Node0x556660886c68 -->
<g id="edge85" class="edge">
<title>Node0x556660886e98&#45;&gt;Node0x556660886c68</title>
<path fill="none" stroke="black" d="M3379.32,-980.91C3252.37,-919.46 2818.45,-719.01 2434,-655 2309.82,-634.32 2167.03,-626.66 2062.22,-623.97"/>
<polygon fill="black" stroke="black" points="2062.28,-620.47 2052.19,-623.73 2062.1,-627.47 2062.28,-620.47"/>
</g>
<!-- Node0x556660886e98&#45;&gt;Node0x556660887848 -->
<g id="edge86" class="edge">
<title>Node0x556660886e98&#45;&gt;Node0x556660887848</title>
<path fill="none" stroke="black" d="M3319.57,-980.98C3281.52,-974.55 3237.33,-967.94 3197,-964 2935.75,-938.5 2631.28,-936.55 2444.34,-938.49"/>
<polygon fill="black" stroke="black" points="2444.1,-935 2434.14,-938.61 2444.18,-942 2444.1,-935"/>
</g>
<!-- Node0x556660886e98&#45;&gt;Node0x556660886da8 -->
<g id="edge87" class="edge">
<title>Node0x556660886e98&#45;&gt;Node0x556660886da8</title>
<path fill="none" stroke="black" d="M3232.88,-1001.89C3215.62,-1001.55 3198.29,-1001.13 3181.46,-1000.64"/>
<polygon fill="black" stroke="black" points="3181.14,-997.13 3171.04,-1000.34 3180.94,-1004.13 3181.14,-997.13"/>
</g>
<!-- Node0x556660886e98&#45;&gt;Node0x556660888108 -->
<g id="edge80" class="edge">
<title>Node0x556660886e98&#45;&gt;Node0x556660888108</title>
<path fill="none" stroke="black" d="M3572.98,-1017.03C3582.48,-1018.58 3591.88,-1020.24 3601,-1022 3651.39,-1031.73 5346.39,-1460.96 5388,-1491 5484.91,-1560.97 5545.43,-1696.93 5567.99,-1755.3"/>
<polygon fill="black" stroke="black" points="5564.82,-1756.83 5571.64,-1764.94 5571.37,-1754.35 5564.82,-1756.83"/>
</g>
<!-- Node0x556660886e98&#45;&gt;Node0x556660887a28 -->
<g id="edge83" class="edge">
<title>Node0x556660886e98&#45;&gt;Node0x556660887a28</title>
<path fill="none" stroke="black" d="M3505.65,-1017.11C3540.51,-1028.75 3577.78,-1047.62 3601,-1078 3669.7,-1167.89 3574.68,-1235.57 3637,-1330 3662.18,-1368.15 3706.82,-1394.43 3743.97,-1410.9"/>
<polygon fill="black" stroke="black" points="3742.67,-1414.14 3753.24,-1414.87 3745.43,-1407.71 3742.67,-1414.14"/>
</g>
<!-- Node0x556660886e98&#45;&gt;Node0x556660888748 -->
<g id="edge84" class="edge">
<title>Node0x556660886e98&#45;&gt;Node0x556660888748</title>
<path fill="none" stroke="black" d="M3530.07,-1017.03C3554.42,-1023.68 3579.34,-1032.72 3601,-1045 3620.68,-1056.16 3617.91,-1068.85 3637,-1081 3773.02,-1167.63 3846.56,-1111.57 3978,-1205 4058.39,-1262.14 4123.49,-1362.12 4151.76,-1409.98"/>
<polygon fill="black" stroke="black" points="4148.86,-1411.95 4156.92,-1418.82 4154.91,-1408.42 4148.86,-1411.95"/>
</g>
<!-- Node0x556660886e98&#45;&gt;Node0x556660888338 -->
<g id="edge81" class="edge">
<title>Node0x556660886e98&#45;&gt;Node0x556660888338</title>
<path fill="none" stroke="black" d="M3470.54,-981C3507.83,-967.45 3558.58,-947.42 3601,-925 3618,-916.02 3619.19,-908.26 3637,-901 3647.51,-896.71 3658.62,-892.99 3669.93,-889.77"/>
<polygon fill="black" stroke="black" points="3671.17,-893.06 3679.9,-887.06 3669.34,-886.3 3671.17,-893.06"/>
</g>
<!-- Node0x556660887d98 -->
<g id="node37" class="node">
<title>Node0x556660887d98</title>
<polygon fill="none" stroke="black" points="2066,-695 1756,-695 1756,-659 2066,-659 2066,-695"/>
<text text-anchor="middle" x="1911" y="-673.3" font-family="Times,serif" font-size="14.00">{lib/libLLVMSupport.a(WithColor.cpp.o)}</text>
</g>
<!-- Node0x556660887d98&#45;&gt;Node0x5566608877a8 -->
<g id="edge97" class="edge">
<title>Node0x556660887d98&#45;&gt;Node0x5566608877a8</title>
<path fill="none" stroke="black" d="M2066.2,-670.75C2448.63,-656.64 3471.28,-627.28 4322,-678 4334.64,-678.75 4347.74,-679.79 4360.86,-681.01"/>
<polygon fill="black" stroke="black" points="4360.6,-684.5 4370.89,-681.98 4361.27,-677.54 4360.6,-684.5"/>
</g>
<!-- Node0x556660887d98&#45;&gt;Node0x556660888d38 -->
<g id="edge96" class="edge">
<title>Node0x556660887d98&#45;&gt;Node0x556660888d38</title>
<path fill="none" stroke="black" d="M2066.25,-677.88C2078.34,-677.93 2090.37,-677.97 2102,-678 2249.56,-678.39 2286.44,-678.19 2434,-678 3289.11,-676.89 3502.89,-674.11 4358,-673 4490.89,-672.83 4527.83,-641.79 4657,-673 4723.18,-688.99 4791.93,-729.8 4831.61,-756.14"/>
<polygon fill="black" stroke="black" points="4829.85,-759.18 4840.1,-761.86 4833.76,-753.37 4829.85,-759.18"/>
</g>
<!-- Node0x556660887d98&#45;&gt;Node0x556660887848 -->
<g id="edge98" class="edge">
<title>Node0x556660887d98&#45;&gt;Node0x556660887848</title>
<path fill="none" stroke="black" d="M1963.2,-695.13C1994.33,-707.37 2034.09,-725.24 2066,-747 2139.66,-797.22 2210.92,-875.54 2245.43,-915.94"/>
<polygon fill="black" stroke="black" points="2242.89,-918.36 2252.03,-923.73 2248.23,-913.84 2242.89,-918.36"/>
</g>
<!-- Node0x556660887208 -->
<g id="node38" class="node">
<title>Node0x556660887208</title>
<polygon fill="none" stroke="black" points="887.5,-1260 561.5,-1260 561.5,-1224 887.5,-1224 887.5,-1260"/>
<text text-anchor="middle" x="724.5" y="-1238.3" font-family="Times,serif" font-size="14.00">{lib/libLLVMSupport.a(YAMLParser.cpp.o)}</text>
</g>
<!-- Node0x556660887208&#45;&gt;Node0x556660887758 -->
<g id="edge101" class="edge">
<title>Node0x556660887208&#45;&gt;Node0x556660887758</title>
<path fill="none" stroke="black" d="M887.71,-1251.55C906.54,-1252.66 925.79,-1253.8 944.74,-1254.91"/>
<polygon fill="black" stroke="black" points="944.73,-1258.42 954.92,-1255.51 945.14,-1251.43 944.73,-1258.42"/>
</g>
<!-- Node0x556660887208&#45;&gt;Node0x556660888ab8 -->
<g id="edge99" class="edge">
<title>Node0x556660887208&#45;&gt;Node0x556660888ab8</title>
<path fill="none" stroke="black" d="M768.83,-1223.94C812.82,-1203.41 879.75,-1165.77 918,-1113 952.69,-1065.15 918.65,-1032.36 954,-985 1087.28,-806.44 1339.2,-695.46 1455.42,-651.56"/>
<polygon fill="black" stroke="black" points="1456.75,-654.8 1464.89,-648.02 1454.3,-648.24 1456.75,-654.8"/>
</g>
<!-- Node0x556660887208&#45;&gt;Node0x556660887848 -->
<g id="edge103" class="edge">
<title>Node0x556660887208&#45;&gt;Node0x556660887848</title>
<path fill="none" stroke="black" d="M770.59,-1223.99C868.28,-1185.74 1107.5,-1096.2 1316,-1051 1459.53,-1019.89 1858.19,-979.78 2091.27,-957.93"/>
<polygon fill="black" stroke="black" points="2091.92,-961.38 2101.55,-956.96 2091.27,-954.41 2091.92,-961.38"/>
</g>
<!-- Node0x556660887208&#45;&gt;Node0x556660888108 -->
<g id="edge100" class="edge">
<title>Node0x556660887208&#45;&gt;Node0x556660888108</title>
<path fill="none" stroke="black" d="M837.59,-1260.02C867.09,-1269.64 896.61,-1284.39 918,-1307 959.2,-1350.55 913.15,-1393.12 954,-1437 1058.78,-1549.57 1155.22,-1463.11 1280,-1553 1301.06,-1568.18 1293.62,-1585.85 1316,-1599 1380.77,-1637.05 3104.99,-1935 3806.5,-1935 3806.5,-1935 3806.5,-1935 4867.5,-1935 5114.11,-1935 5398.43,-1846.35 5519.04,-1804.45"/>
<polygon fill="black" stroke="black" points="5520.53,-1807.64 5528.82,-1801.03 5518.22,-1801.03 5520.53,-1807.64"/>
</g>
<!-- Node0x556660887208&#45;&gt;Node0x556660888748 -->
<g id="edge102" class="edge">
<title>Node0x556660887208&#45;&gt;Node0x556660888748</title>
<path fill="none" stroke="black" d="M789.61,-1260.05C827.66,-1271.64 876.43,-1288.06 918,-1307 923.83,-1309.66 1309.83,-1538.27 1316,-1540 1718.46,-1653.08 2779.41,-1585.47 3197,-1566 3545.25,-1549.76 3635.69,-1559.06 3978,-1493 4021.65,-1484.58 4069.66,-1470.28 4106.37,-1458.25"/>
<polygon fill="black" stroke="black" points="4107.54,-1461.55 4115.93,-1455.08 4105.34,-1454.9 4107.54,-1461.55"/>
</g>
<!-- Node0x556660888b08&#45;&gt;Node0x556660887758 -->
<g id="edge125" class="edge">
<title>Node0x556660888b08&#45;&gt;Node0x556660887758</title>
<path fill="none" stroke="black" d="M3641.38,-1303.29C3292.98,-1303.81 2457.07,-1304.53 1756,-1301 1560.44,-1300.02 1510.86,-1313.54 1316,-1297 1285.14,-1294.38 1251.82,-1289.72 1221.48,-1284.75"/>
<polygon fill="black" stroke="black" points="1221.75,-1281.25 1211.31,-1283.06 1220.6,-1288.15 1221.75,-1281.25"/>
</g>
<!-- Node0x556660888b08&#45;&gt;Node0x556660887848 -->
<g id="edge127" class="edge">
<title>Node0x556660888b08&#45;&gt;Node0x556660887848</title>
<path fill="none" stroke="black" d="M3681.3,-1284.97C3665.96,-1280.51 3650.83,-1274.94 3637,-1268 3617.87,-1258.4 3620.13,-1245.61 3601,-1236 3446.06,-1158.21 3007.8,-1107.73 2837,-1078 2674.7,-1049.75 2628.85,-1069.67 2470,-1026 2414.29,-1010.68 2353.5,-983.74 2313.53,-964.5"/>
<polygon fill="black" stroke="black" points="2314.85,-961.25 2304.33,-960.03 2311.79,-967.54 2314.85,-961.25"/>
</g>
<!-- Node0x556660888b08&#45;&gt;Node0x556660888748 -->
<g id="edge126" class="edge">
<title>Node0x556660888b08&#45;&gt;Node0x556660888748</title>
<path fill="none" stroke="black" d="M3856.85,-1321.07C3922.29,-1345.53 4038.91,-1389.12 4108.99,-1415.32"/>
<polygon fill="black" stroke="black" points="4107.97,-1418.67 4118.56,-1418.89 4110.42,-1412.11 4107.97,-1418.67"/>
</g>
<!-- Node0x556660887528 -->
<g id="node40" class="node">
<title>Node0x556660887528</title>
<polygon fill="none" stroke="black" points="861.5,-1104 587.5,-1104 587.5,-1068 861.5,-1068 861.5,-1104"/>
<text text-anchor="middle" x="724.5" y="-1082.3" font-family="Times,serif" font-size="14.00">{lib/libLLVMSupport.a(MD5.cpp.o)}</text>
</g>
<!-- Node0x556660887528&#45;&gt;Node0x556660887758 -->
<g id="edge123" class="edge">
<title>Node0x556660887528&#45;&gt;Node0x556660887758</title>
<path fill="none" stroke="black" d="M765.09,-1104.15C837.11,-1137.16 989.29,-1206.92 1067.44,-1242.74"/>
<polygon fill="black" stroke="black" points="1066.04,-1245.95 1076.59,-1246.94 1068.96,-1239.59 1066.04,-1245.95"/>
</g>
<!-- Node0x556660887528&#45;&gt;Node0x556660887848 -->
<g id="edge124" class="edge">
<title>Node0x556660887528&#45;&gt;Node0x556660887848</title>
<path fill="none" stroke="black" d="M778.81,-1067.91C824.68,-1053.17 892.91,-1033.19 954,-1023 1357.34,-955.71 1838.75,-942.92 2091.73,-941.32"/>
<polygon fill="black" stroke="black" points="2091.77,-944.82 2101.75,-941.26 2091.73,-937.82 2091.77,-944.82"/>
</g>
<!-- Node0x556660887ed8 -->
<g id="node41" class="node">
<title>Node0x556660887ed8</title>
<polygon fill="none" stroke="black" points="1720,-329 1316,-329 1316,-293 1720,-293 1720,-329"/>
<text text-anchor="middle" x="1518" y="-307.3" font-family="Times,serif" font-size="14.00">{lib/libLLVMSupport.a(CrashRecoveryContext.cpp.o)}</text>
</g>
<!-- Node0x556660887ed8&#45;&gt;Node0x556660887ac8 -->
<g id="edge128" class="edge">
<title>Node0x556660887ed8&#45;&gt;Node0x556660887ac8</title>
<path fill="none" stroke="black" d="M1567.38,-292.85C1608.12,-277.54 1667.92,-254.97 1720,-235 1736.03,-228.85 1739.21,-224.56 1756,-221 1978.42,-173.85 2039.64,-197 2267,-197 2267,-197 2267,-197 3808.5,-197 4115.62,-197 4471.9,-225.94 4682.47,-246.06"/>
<polygon fill="black" stroke="black" points="4682.41,-249.57 4692.7,-247.04 4683.08,-242.61 4682.41,-249.57"/>
</g>
<!-- Node0x556660887ed8&#45;&gt;Node0x556660887b68 -->
<g id="edge130" class="edge">
<title>Node0x556660887ed8&#45;&gt;Node0x556660887b68</title>
<path fill="none" stroke="black" d="M1699.32,-292.76C1706.63,-288.81 1713.57,-284.25 1720,-279 1755.29,-250.17 1721.4,-212.65 1756,-183 1759.76,-179.78 1763.75,-176.86 1767.93,-174.21"/>
<polygon fill="black" stroke="black" points="1769.83,-177.15 1776.76,-169.13 1766.35,-171.08 1769.83,-177.15"/>
</g>
<!-- Node0x556660887ed8&#45;&gt;Node0x5566608886f8 -->
<g id="edge129" class="edge">
<title>Node0x556660887ed8&#45;&gt;Node0x5566608886f8</title>
<path fill="none" stroke="black" d="M1533.97,-329.06C1570.06,-373.33 1663.13,-491.76 1720,-603 1741.69,-645.43 1718.56,-674.51 1756,-704 1810.42,-746.87 1998.68,-720.64 2066,-737 2082.68,-741.06 2085.78,-745.37 2102,-751 2182.69,-779 2765.54,-929.22 2837,-976 2857.57,-989.47 2851.21,-1006.61 2873,-1018 3001.27,-1085.08 3056.69,-1015.45 3197,-1051 3213.8,-1055.26 3216.45,-1060.84 3233,-1066 3256.03,-1073.18 3281.1,-1079.48 3305.09,-1084.8"/>
<polygon fill="black" stroke="black" points="3304.42,-1088.24 3314.93,-1086.95 3305.91,-1081.4 3304.42,-1088.24"/>
</g>
</g>
</svg>
