<?xml version="1.0" encoding="UTF-8" standalone="no"?>
<!DOCTYPE svg PUBLIC "-//W3C//DTD SVG 1.1//EN"
 "http://www.w3.org/Graphics/SVG/1.1/DTD/svg11.dtd">
<!-- Generated by graphviz version 2.43.0 (0)
 -->
<!-- Title: bin/dsymutil_lib/libLLVMOption.a Pages: 1 -->
<svg width="1225pt" height="159pt"
 viewBox="0.00 0.00 1225.00 159.07" xmlns="http://www.w3.org/2000/svg" xmlns:xlink="http://www.w3.org/1999/xlink">
<g id="graph0" class="graph" transform="scale(1 1) rotate(0) translate(4 155.07)">
<title>bin/dsymutil_lib/libLLVMOption.a</title>
<polygon fill="white" stroke="transparent" points="-4,4 -4,-155.07 1221,-155.07 1221,4 -4,4"/>
<text text-anchor="middle" x="608.5" y="-7.8" font-family="Times,serif" font-size="14.00">bin/dsymutil_lib/libLLVMOption.a</text>
<!-- Node0x5604edaab478 -->
<g id="node1" class="node">
<title>Node0x5604edaab478</title>
<polygon fill="#7fb2ff" stroke="black" points="282,-59 0,-59 0,-23 282,-23 282,-59"/>
<text text-anchor="middle" x="141" y="-37.3" font-family="Times,serif" font-size="14.00">{lib/libLLVMOption.a(ArgList.cpp.o)}</text>
</g>
<!-- Node0x5604edaabd38 -->
<g id="node2" class="node">
<title>Node0x5604edaabd38</title>
<polygon fill="none" stroke="black" points="1217,-118 962,-118 962,-82 1217,-82 1217,-118"/>
<text text-anchor="middle" x="1089.5" y="-96.3" font-family="Times,serif" font-size="14.00">{lib/libLLVMOption.a(Arg.cpp.o)}</text>
</g>
<!-- Node0x5604edaab478&#45;&gt;Node0x5604edaabd38 -->
<g id="edge1" class="edge">
<title>Node0x5604edaab478&#45;&gt;Node0x5604edaabd38</title>
<path fill="none" stroke="black" d="M170.49,-59.06C204.19,-79.26 262.71,-110.75 318,-123 549.98,-174.39 830.79,-143.43 981.12,-119.64"/>
<polygon fill="black" stroke="black" points="981.96,-123.05 991.28,-118.01 980.85,-116.14 981.96,-123.05"/>
</g>
<!-- Node0x5604edaafde8 -->
<g id="node3" class="node">
<title>Node0x5604edaafde8</title>
<polygon fill="#7fb2ff" stroke="black" points="596,-114 318,-114 318,-78 596,-78 596,-114"/>
<text text-anchor="middle" x="457" y="-92.3" font-family="Times,serif" font-size="14.00">{lib/libLLVMOption.a(Option.cpp.o)}</text>
</g>
<!-- Node0x5604edaab478&#45;&gt;Node0x5604edaafde8 -->
<g id="edge2" class="edge">
<title>Node0x5604edaab478&#45;&gt;Node0x5604edaafde8</title>
<path fill="none" stroke="#7fb2ff" d="M244.82,-59.01C276.34,-64.53 311.19,-70.64 343.34,-76.27"/>
<polygon fill="#7fb2ff" stroke="#7fb2ff" points="342.77,-79.72 353.22,-78 343.98,-72.82 342.77,-79.72"/>
</g>
<!-- Node0x5604edaaf348 -->
<g id="node4" class="node">
<title>Node0x5604edaaf348</title>
<polygon fill="#7fb2ff" stroke="black" points="926,-72 632,-72 632,-36 926,-36 926,-72"/>
<text text-anchor="middle" x="779" y="-50.3" font-family="Times,serif" font-size="14.00">{lib/libLLVMOption.a(OptTable.cpp.o)}</text>
</g>
<!-- Node0x5604edaab478&#45;&gt;Node0x5604edaaf348 -->
<g id="edge3" class="edge">
<title>Node0x5604edaab478&#45;&gt;Node0x5604edaaf348</title>
<path fill="none" stroke="#7fb2ff" d="M282.36,-38.16C382.73,-38.89 517.85,-41.59 621.66,-44.9"/>
<polygon fill="#7fb2ff" stroke="#7fb2ff" points="621.82,-48.41 631.93,-45.23 622.04,-41.41 621.82,-48.41"/>
</g>
<!-- Node0x5604edaafde8&#45;&gt;Node0x5604edaabd38 -->
<g id="edge4" class="edge">
<title>Node0x5604edaafde8&#45;&gt;Node0x5604edaabd38</title>
<path fill="none" stroke="black" d="M596.37,-96.88C701.98,-97.55 846.75,-98.47 951.92,-99.13"/>
<polygon fill="black" stroke="black" points="951.95,-102.63 961.97,-99.2 952,-95.63 951.95,-102.63"/>
</g>
<!-- Node0x5604edaafde8&#45;&gt;Node0x5604edaaf348 -->
<g id="edge5" class="edge">
<title>Node0x5604edaafde8&#45;&gt;Node0x5604edaaf348</title>
<path fill="none" stroke="#7fb2ff" d="M548.42,-77.99C571.34,-74.55 596.63,-71.03 621.8,-67.75"/>
<polygon fill="#7fb2ff" stroke="#7fb2ff" points="622.34,-71.21 631.81,-66.46 621.44,-64.27 622.34,-71.21"/>
</g>
<!-- Node0x5604edaaf348&#45;&gt;Node0x5604edaab478 -->
<g id="edge6" class="edge">
<title>Node0x5604edaaf348&#45;&gt;Node0x5604edaab478</title>
<path fill="none" stroke="#7fb2ff" d="M631.93,-56.8C530.27,-55.99 395.11,-53.25 292.5,-49.91"/>
<polygon fill="#7fb2ff" stroke="#7fb2ff" points="292.47,-46.41 282.36,-49.58 292.24,-53.41 292.47,-46.41"/>
</g>
<!-- Node0x5604edaaf348&#45;&gt;Node0x5604edaabd38 -->
<g id="edge7" class="edge">
<title>Node0x5604edaaf348&#45;&gt;Node0x5604edaabd38</title>
<path fill="none" stroke="black" d="M901.04,-72.05C919.57,-74.81 938.77,-77.67 957.51,-80.47"/>
<polygon fill="black" stroke="black" points="957.15,-83.95 967.55,-81.97 958.18,-77.03 957.15,-83.95"/>
</g>
<!-- Node0x5604edaaf348&#45;&gt;Node0x5604edaafde8 -->
<g id="edge8" class="edge">
<title>Node0x5604edaaf348&#45;&gt;Node0x5604edaafde8</title>
<path fill="none" stroke="#7fb2ff" d="M687.5,-72.03C662.17,-75.82 633.96,-79.72 606.22,-83.28"/>
<polygon fill="#7fb2ff" stroke="#7fb2ff" points="605.51,-79.84 596.03,-84.58 606.39,-86.79 605.51,-79.84"/>
</g>
</g>
</svg>
