<?xml version="1.0" encoding="UTF-8" standalone="no"?>
<!DOCTYPE svg PUBLIC "-//W3C//DTD SVG 1.1//EN"
 "http://www.w3.org/Graphics/SVG/1.1/DTD/svg11.dtd">
<!-- Generated by graphviz version 2.43.0 (0)
 -->
<!-- Title: bin/llvm&#45;opt&#45;report Pages: 1 -->
<svg width="551pt" height="287pt"
 viewBox="0.00 0.00 551.00 287.00" xmlns="http://www.w3.org/2000/svg" xmlns:xlink="http://www.w3.org/1999/xlink">
<g id="graph0" class="graph" transform="scale(1 1) rotate(0) translate(4 283)">
<title>bin/llvm&#45;opt&#45;report</title>
<polygon fill="white" stroke="transparent" points="-4,4 -4,-283 547,-283 547,4 -4,4"/>
<text text-anchor="middle" x="271.5" y="-7.8" font-family="Times,serif" font-size="14.00">bin/llvm&#45;opt&#45;report</text>
<!-- Node0x55d3c47c9848 -->
<g id="node1" class="node">
<title>Node0x55d3c47c9848</title>
<polygon fill="#ff7f7f" stroke="black" points="31,-242.5 31,-278.5 543,-278.5 543,-242.5 31,-242.5"/>
<text text-anchor="middle" x="287" y="-256.8" font-family="Times,serif" font-size="14.00">tools/llvm&#45;opt&#45;report/CMakeFiles/llvm&#45;opt&#45;report.dir/OptReport.cpp.o</text>
</g>
<!-- Node0x55d3c47cb558 -->
<g id="node2" class="node">
<title>Node0x55d3c47cb558</title>
<polygon fill="none" stroke="black" points="0,-169.5 0,-205.5 182,-205.5 182,-169.5 0,-169.5"/>
<text text-anchor="middle" x="91" y="-183.8" font-family="Times,serif" font-size="14.00">lib/libLLVMDemangle.a</text>
</g>
<!-- Node0x55d3c47c9848&#45;&gt;Node0x55d3c47cb558 -->
<g id="edge1" class="edge">
<title>Node0x55d3c47c9848&#45;&gt;Node0x55d3c47cb558</title>
<path fill="none" stroke="black" d="M240.05,-242.49C212.38,-232.47 177.16,-219.71 147.91,-209.12"/>
<polygon fill="black" stroke="black" points="148.84,-205.73 138.24,-205.61 146.45,-212.31 148.84,-205.73"/>
</g>
<!-- Node0x55d3c47c97f8 -->
<g id="node3" class="node">
<title>Node0x55d3c47c97f8</title>
<polygon fill="#ff7f7f" stroke="black" points="200.5,-169.5 200.5,-205.5 373.5,-205.5 373.5,-169.5 200.5,-169.5"/>
<text text-anchor="middle" x="287" y="-183.8" font-family="Times,serif" font-size="14.00">lib/libLLVMRemarks.a</text>
</g>
<!-- Node0x55d3c47c9848&#45;&gt;Node0x55d3c47c97f8 -->
<g id="edge2" class="edge">
<title>Node0x55d3c47c9848&#45;&gt;Node0x55d3c47c97f8</title>
<path fill="none" stroke="#ff7f7f" d="M281.12,-242.31C280.28,-234.29 280.05,-224.55 280.42,-215.57"/>
<polygon fill="#ff7f7f" stroke="#ff7f7f" points="283.92,-215.75 281.14,-205.53 276.94,-215.25 283.92,-215.75"/>
</g>
<!-- Node0x55d3c47ca798 -->
<g id="node4" class="node">
<title>Node0x55d3c47ca798</title>
<polygon fill="#ff7f7f" stroke="black" points="203,-23.5 203,-59.5 371,-59.5 371,-23.5 203,-23.5"/>
<text text-anchor="middle" x="287" y="-37.8" font-family="Times,serif" font-size="14.00">lib/libLLVMSupport.a</text>
</g>
<!-- Node0x55d3c47c9848&#45;&gt;Node0x55d3c47ca798 -->
<g id="edge3" class="edge">
<title>Node0x55d3c47c9848&#45;&gt;Node0x55d3c47ca798</title>
<path fill="none" stroke="#ff7f7f" d="M322.8,-242.45C339.84,-233.76 359.3,-221.68 373,-206 406.26,-167.92 429.78,-138.24 402,-96 392.77,-81.97 379,-71.6 364.14,-63.94"/>
<polygon fill="#ff7f7f" stroke="#ff7f7f" points="365.32,-60.63 354.79,-59.52 362.33,-66.96 365.32,-60.63"/>
</g>
<!-- Node0x55d3c47c97f8&#45;&gt;Node0x55d3c47c9848 -->
<g id="edge5" class="edge">
<title>Node0x55d3c47c97f8&#45;&gt;Node0x55d3c47c9848</title>
<path fill="none" stroke="#ff7f7f" d="M292.86,-205.53C293.71,-213.53 293.95,-223.27 293.59,-232.25"/>
<polygon fill="#ff7f7f" stroke="#ff7f7f" points="290.09,-232.09 292.88,-242.31 297.07,-232.58 290.09,-232.09"/>
</g>
<!-- Node0x55d3c47c97f8&#45;&gt;Node0x55d3c47ca798 -->
<g id="edge4" class="edge">
<title>Node0x55d3c47c97f8&#45;&gt;Node0x55d3c47ca798</title>
<path fill="none" stroke="#ff7f7f" d="M200.97,-169.47C181.95,-161.54 164.18,-149.95 153,-133 143.94,-119.27 143.94,-109.73 153,-96 162.76,-81.2 177.55,-70.48 193.81,-62.72"/>
<polygon fill="#ff7f7f" stroke="#ff7f7f" points="195.21,-65.93 202.97,-58.71 192.4,-59.52 195.21,-65.93"/>
</g>
<!-- Node0x55d3c47cbcd8 -->
<g id="node5" class="node">
<title>Node0x55d3c47cbcd8</title>
<polygon fill="#ff7f7f" stroke="black" points="171.5,-96.5 171.5,-132.5 402.5,-132.5 402.5,-96.5 171.5,-96.5"/>
<text text-anchor="middle" x="287" y="-110.8" font-family="Times,serif" font-size="14.00">lib/libLLVMBitstreamReader.a</text>
</g>
<!-- Node0x55d3c47c97f8&#45;&gt;Node0x55d3c47cbcd8 -->
<g id="edge6" class="edge">
<title>Node0x55d3c47c97f8&#45;&gt;Node0x55d3c47cbcd8</title>
<path fill="none" stroke="#ff7f7f" d="M281.12,-169.31C280.28,-161.29 280.05,-151.55 280.42,-142.57"/>
<polygon fill="#ff7f7f" stroke="#ff7f7f" points="283.92,-142.75 281.14,-132.53 276.94,-142.25 283.92,-142.75"/>
</g>
<!-- Node0x55d3c47ca798&#45;&gt;Node0x55d3c47c9848 -->
<g id="edge7" class="edge">
<title>Node0x55d3c47ca798&#45;&gt;Node0x55d3c47c9848</title>
<path fill="none" stroke="#ff7f7f" d="M371.1,-59.11C390.47,-67.05 408.66,-78.76 420,-96 447.78,-138.24 424.26,-167.92 391,-206 379.55,-219.11 364.07,-229.7 348.51,-237.9"/>
<polygon fill="#ff7f7f" stroke="#ff7f7f" points="346.77,-234.86 339.37,-242.45 349.88,-241.12 346.77,-234.86"/>
</g>
<!-- Node0x55d3c47ca798&#45;&gt;Node0x55d3c47c97f8 -->
<g id="edge8" class="edge">
<title>Node0x55d3c47ca798&#45;&gt;Node0x55d3c47c97f8</title>
<path fill="none" stroke="#ff7f7f" d="M218.29,-59.53C199.95,-67.46 182.18,-79.05 171,-96 161.94,-109.73 161.94,-119.27 171,-133 180.26,-147.03 194.04,-157.4 208.92,-165.05"/>
<polygon fill="#ff7f7f" stroke="#ff7f7f" points="207.75,-168.37 218.29,-169.47 210.74,-162.04 207.75,-168.37"/>
</g>
<!-- Node0x55d3c47cbcd8&#45;&gt;Node0x55d3c47c97f8 -->
<g id="edge9" class="edge">
<title>Node0x55d3c47cbcd8&#45;&gt;Node0x55d3c47c97f8</title>
<path fill="none" stroke="#ff7f7f" d="M292.86,-132.53C293.71,-140.53 293.95,-150.27 293.59,-159.25"/>
<polygon fill="#ff7f7f" stroke="#ff7f7f" points="290.09,-159.09 292.88,-169.31 297.07,-159.58 290.09,-159.09"/>
</g>
<!-- Node0x55d3c47cbcd8&#45;&gt;Node0x55d3c47ca798 -->
<g id="edge10" class="edge">
<title>Node0x55d3c47cbcd8&#45;&gt;Node0x55d3c47ca798</title>
<path fill="none" stroke="#ff7f7f" d="M287,-96.31C287,-88.29 287,-78.55 287,-69.57"/>
<polygon fill="#ff7f7f" stroke="#ff7f7f" points="290.5,-69.53 287,-59.53 283.5,-69.53 290.5,-69.53"/>
</g>
</g>
</svg>
