<?xml version="1.0" encoding="UTF-8" standalone="no"?>
<!DOCTYPE svg PUBLIC "-//W3C//DTD SVG 1.1//EN"
 "http://www.w3.org/Graphics/SVG/1.1/DTD/svg11.dtd">
<!-- Generated by graphviz version 2.43.0 (0)
 -->
<!-- Title: ccache Pages: 1 -->
<svg width="830pt" height="121pt"
 viewBox="0.00 0.00 830.00 121.00" xmlns="http://www.w3.org/2000/svg" xmlns:xlink="http://www.w3.org/1999/xlink">
<g id="graph0" class="graph" transform="scale(1 1) rotate(0) translate(4 117)">
<title>ccache</title>
<polygon fill="white" stroke="transparent" points="-4,4 -4,-117 826,-117 826,4 -4,4"/>
<text text-anchor="middle" x="411" y="-7.8" font-family="Times,serif" font-size="14.00">ccache</text>
<!-- Node0x562ddcd830c8 -->
<g id="node1" class="node">
<title>Node0x562ddcd830c8</title>
<polygon fill="none" stroke="black" points="305,-113 0,-113 0,-77 305,-77 305,-113"/>
<text text-anchor="middle" x="152.5" y="-91.3" font-family="Times,serif" font-size="14.00">{CMakeFiles/ccache.dir/src/main.cpp.o}</text>
</g>
<!-- Node0x562ddcd81fe8 -->
<g id="node2" class="node">
<title>Node0x562ddcd81fe8</title>
<polygon fill="#7fb2ff" stroke="black" points="505,-113 341,-113 341,-77 505,-77 505,-113"/>
<text text-anchor="middle" x="423" y="-91.3" font-family="Times,serif" font-size="14.00">{src/libccache_lib.a}</text>
</g>
<!-- Node0x562ddcd830c8&#45;&gt;Node0x562ddcd81fe8 -->
<g id="edge1" class="edge">
<title>Node0x562ddcd830c8&#45;&gt;Node0x562ddcd81fe8</title>
<path fill="none" stroke="black" d="M305.01,-95C313.72,-95 322.34,-95 330.7,-95"/>
<polygon fill="black" stroke="black" points="330.77,-98.5 340.77,-95 330.77,-91.5 330.77,-98.5"/>
</g>
<!-- Node0x562ddcd83028 -->
<g id="node3" class="node">
<title>Node0x562ddcd83028</title>
<polygon fill="#7fb2ff" stroke="black" points="822,-113 541,-113 541,-77 822,-77 822,-113"/>
<text text-anchor="middle" x="681.5" y="-91.3" font-family="Times,serif" font-size="14.00">{src/third_party/libthird_party_lib.a}</text>
</g>
<!-- Node0x562ddcd81fe8&#45;&gt;Node0x562ddcd83028 -->
<g id="edge2" class="edge">
<title>Node0x562ddcd81fe8&#45;&gt;Node0x562ddcd83028</title>
<path fill="none" stroke="#7fb2ff" d="M505.16,-88.67C513.39,-88.52 521.92,-88.41 530.58,-88.34"/>
<polygon fill="#7fb2ff" stroke="#7fb2ff" points="530.83,-91.84 540.8,-88.27 530.78,-84.84 530.83,-91.84"/>
</g>
<!-- Node0x562ddcd82a38 -->
<g id="node4" class="node">
<title>Node0x562ddcd82a38</title>
<polygon fill="none" stroke="black" points="819,-59 544,-59 544,-23 819,-23 819,-59"/>
<text text-anchor="middle" x="681.5" y="-37.3" font-family="Times,serif" font-size="14.00">{src/third_party/blake3/libblake3.a}</text>
</g>
<!-- Node0x562ddcd81fe8&#45;&gt;Node0x562ddcd82a38 -->
<g id="edge3" class="edge">
<title>Node0x562ddcd81fe8&#45;&gt;Node0x562ddcd82a38</title>
<path fill="none" stroke="black" d="M500.38,-76.96C513.89,-73.89 527.85,-70.79 541,-68 551.92,-65.68 563.34,-63.34 574.73,-61.06"/>
<polygon fill="black" stroke="black" points="575.61,-64.45 584.73,-59.07 574.24,-57.59 575.61,-64.45"/>
</g>
<!-- Node0x562ddcd83028&#45;&gt;Node0x562ddcd81fe8 -->
<g id="edge4" class="edge">
<title>Node0x562ddcd83028&#45;&gt;Node0x562ddcd81fe8</title>
<path fill="none" stroke="#7fb2ff" d="M540.8,-101.73C532.15,-101.69 523.57,-101.61 515.22,-101.49"/>
<polygon fill="#7fb2ff" stroke="#7fb2ff" points="515.21,-97.99 505.16,-101.33 515.1,-104.99 515.21,-97.99"/>
</g>
</g>
</svg>
