<?xml version="1.0" encoding="UTF-8" standalone="no"?>
<!DOCTYPE svg PUBLIC "-//W3C//DTD SVG 1.1//EN"
 "http://www.w3.org/Graphics/SVG/1.1/DTD/svg11.dtd">
<!-- Generated by graphviz version 2.43.0 (0)
 -->
<!-- Title: bin/llvm&#45;lto_lib/libLLVMObjCARCOpts.a Pages: 1 -->
<svg width="1784pt" height="283pt"
 viewBox="0.00 0.00 1784.00 283.00" xmlns="http://www.w3.org/2000/svg" xmlns:xlink="http://www.w3.org/1999/xlink">
<g id="graph0" class="graph" transform="scale(1 1) rotate(0) translate(4 279)">
<title>bin/llvm&#45;lto_lib/libLLVMObjCARCOpts.a</title>
<polygon fill="white" stroke="transparent" points="-4,4 -4,-279 1780,-279 1780,4 -4,4"/>
<text text-anchor="middle" x="888" y="-7.8" font-family="Times,serif" font-size="14.00">bin/llvm&#45;lto_lib/libLLVMObjCARCOpts.a</text>
<!-- Node0x557d0d0ac3b8 -->
<g id="node1" class="node">
<title>Node0x557d0d0ac3b8</title>
<polygon fill="#7fb2ff" stroke="black" points="410,-167 0,-167 0,-131 410,-131 410,-167"/>
<text text-anchor="middle" x="205" y="-145.3" font-family="Times,serif" font-size="14.00">{lib/libLLVMObjCARCOpts.a(ObjCARCContract.cpp.o)}</text>
</g>
<!-- Node0x557d0d0b9978 -->
<g id="node2" class="node">
<title>Node0x557d0d0b9978</title>
<polygon fill="#7fb2ff" stroke="black" points="865.5,-167 518.5,-167 518.5,-131 865.5,-131 865.5,-167"/>
<text text-anchor="middle" x="692" y="-145.3" font-family="Times,serif" font-size="14.00">{lib/libLLVMObjCARCOpts.a(ObjCARC.cpp.o)}</text>
</g>
<!-- Node0x557d0d0ac3b8&#45;&gt;Node0x557d0d0b9978 -->
<g id="edge1" class="edge">
<title>Node0x557d0d0ac3b8&#45;&gt;Node0x557d0d0b9978</title>
<path fill="none" stroke="#7fb2ff" d="M410.28,-142.33C442.75,-142.2 476.16,-142.23 508.09,-142.43"/>
<polygon fill="#7fb2ff" stroke="#7fb2ff" points="508.39,-145.94 518.41,-142.51 508.43,-138.94 508.39,-145.94"/>
</g>
<!-- Node0x557d0d0aca98 -->
<g id="node3" class="node">
<title>Node0x557d0d0aca98</title>
<polygon fill="none" stroke="black" points="906,-113 478,-113 478,-77 906,-77 906,-113"/>
<text text-anchor="middle" x="692" y="-91.3" font-family="Times,serif" font-size="14.00">{lib/libLLVMObjCARCOpts.a(DependencyAnalysis.cpp.o)}</text>
</g>
<!-- Node0x557d0d0ac3b8&#45;&gt;Node0x557d0d0aca98 -->
<g id="edge2" class="edge">
<title>Node0x557d0d0ac3b8&#45;&gt;Node0x557d0d0aca98</title>
<path fill="none" stroke="black" d="M365.75,-130.98C392.54,-127.97 420.06,-124.89 446,-122 468.89,-119.45 492.98,-116.78 516.75,-114.15"/>
<polygon fill="black" stroke="black" points="517.36,-117.61 526.92,-113.03 516.6,-110.65 517.36,-117.61"/>
</g>
<!-- Node0x557d0d0b9978&#45;&gt;Node0x557d0d0ac3b8 -->
<g id="edge7" class="edge">
<title>Node0x557d0d0b9978&#45;&gt;Node0x557d0d0ac3b8</title>
<path fill="none" stroke="#7fb2ff" d="M518.41,-155.49C486.68,-155.73 453.21,-155.8 420.43,-155.71"/>
<polygon fill="#7fb2ff" stroke="#7fb2ff" points="420.29,-152.21 410.28,-155.67 420.27,-159.21 420.29,-152.21"/>
</g>
<!-- Node0x557d0d0ba5f8 -->
<g id="node4" class="node">
<title>Node0x557d0d0ba5f8</title>
<polygon fill="#7fb2ff" stroke="black" points="1376.5,-167 995.5,-167 995.5,-131 1376.5,-131 1376.5,-167"/>
<text text-anchor="middle" x="1186" y="-145.3" font-family="Times,serif" font-size="14.00">{lib/libLLVMObjCARCOpts.a(ObjCARCOpts.cpp.o)}</text>
</g>
<!-- Node0x557d0d0b9978&#45;&gt;Node0x557d0d0ba5f8 -->
<g id="edge6" class="edge">
<title>Node0x557d0d0b9978&#45;&gt;Node0x557d0d0ba5f8</title>
<path fill="none" stroke="#7fb2ff" d="M865.77,-142.52C904.44,-142.23 945.77,-142.17 985.42,-142.36"/>
<polygon fill="#7fb2ff" stroke="#7fb2ff" points="985.45,-145.86 995.47,-142.41 985.49,-138.86 985.45,-145.86"/>
</g>
<!-- Node0x557d0d0ad308 -->
<g id="node5" class="node">
<title>Node0x557d0d0ad308</title>
<polygon fill="none" stroke="black" points="1398,-63 974,-63 974,-27 1398,-27 1398,-63"/>
<text text-anchor="middle" x="1186" y="-41.3" font-family="Times,serif" font-size="14.00">{lib/libLLVMObjCARCOpts.a(ProvenanceAnalysis.cpp.o)}</text>
</g>
<!-- Node0x557d0d0aca98&#45;&gt;Node0x557d0d0ad308 -->
<g id="edge8" class="edge">
<title>Node0x557d0d0aca98&#45;&gt;Node0x557d0d0ad308</title>
<path fill="none" stroke="black" d="M870.28,-76.98C911.7,-72.77 955.96,-68.28 997.8,-64.02"/>
<polygon fill="black" stroke="black" points="998.22,-67.5 1007.81,-63.01 997.51,-60.54 998.22,-67.5"/>
</g>
<!-- Node0x557d0d0ba5f8&#45;&gt;Node0x557d0d0b9978 -->
<g id="edge3" class="edge">
<title>Node0x557d0d0ba5f8&#45;&gt;Node0x557d0d0b9978</title>
<path fill="none" stroke="#7fb2ff" d="M995.47,-155.59C956.29,-155.82 915.1,-155.8 876.15,-155.55"/>
<polygon fill="#7fb2ff" stroke="#7fb2ff" points="875.79,-152.05 865.77,-155.48 875.74,-159.05 875.79,-152.05"/>
</g>
<!-- Node0x557d0d0ba5f8&#45;&gt;Node0x557d0d0aca98 -->
<g id="edge4" class="edge">
<title>Node0x557d0d0ba5f8&#45;&gt;Node0x557d0d0aca98</title>
<path fill="none" stroke="black" d="M1020.84,-130.98C971.57,-125.57 917.34,-119.62 867.42,-114.14"/>
<polygon fill="black" stroke="black" points="867.49,-110.63 857.17,-113.02 866.73,-117.59 867.49,-110.63"/>
</g>
<!-- Node0x557d0d0a8ee8 -->
<g id="node6" class="node">
<title>Node0x557d0d0a8ee8</title>
<polygon fill="none" stroke="black" points="1776,-113 1434,-113 1434,-77 1776,-77 1776,-113"/>
<text text-anchor="middle" x="1605" y="-91.3" font-family="Times,serif" font-size="14.00">{lib/libLLVMObjCARCOpts.a(PtrState.cpp.o)}</text>
</g>
<!-- Node0x557d0d0ba5f8&#45;&gt;Node0x557d0d0a8ee8 -->
<g id="edge5" class="edge">
<title>Node0x557d0d0ba5f8&#45;&gt;Node0x557d0d0a8ee8</title>
<path fill="none" stroke="black" d="M1326.14,-130.98C1367.48,-125.63 1412.91,-119.75 1454.85,-114.31"/>
<polygon fill="black" stroke="black" points="1455.4,-117.77 1464.87,-113.02 1454.5,-110.83 1455.4,-117.77"/>
</g>
<!-- Node0x557d0d0a8ee8&#45;&gt;Node0x557d0d0aca98 -->
<g id="edge9" class="edge">
<title>Node0x557d0d0a8ee8&#45;&gt;Node0x557d0d0aca98</title>
<path fill="none" stroke="black" d="M1433.73,-95C1287.66,-95 1076.11,-95 916.45,-95"/>
<polygon fill="black" stroke="black" points="916.01,-91.5 906.01,-95 916.01,-98.5 916.01,-91.5"/>
</g>
<!-- Node0x557d0d0ce8c8 -->
<g id="node7" class="node">
<title>Node0x557d0d0ce8c8</title>
<polygon fill="none" stroke="black" points="405.5,-221 4.5,-221 4.5,-185 405.5,-185 405.5,-221"/>
<text text-anchor="middle" x="205" y="-199.3" font-family="Times,serif" font-size="14.00">{lib/libLLVMObjCARCOpts.a(ObjCARCExpand.cpp.o)}</text>
</g>
<!-- Node0x557d0d0abc88 -->
<g id="node8" class="node">
<title>Node0x557d0d0abc88</title>
<polygon fill="none" stroke="black" points="405,-275 5,-275 5,-239 405,-239 405,-275"/>
<text text-anchor="middle" x="205" y="-253.3" font-family="Times,serif" font-size="14.00">{lib/libLLVMObjCARCOpts.a(ObjCARCAPElim.cpp.o)}</text>
</g>
<!-- Node0x557d0d0ad998 -->
<g id="node9" class="node">
<title>Node0x557d0d0ad998</title>
<polygon fill="none" stroke="black" points="938,-59 446,-59 446,-23 938,-23 938,-59"/>
<text text-anchor="middle" x="692" y="-37.3" font-family="Times,serif" font-size="14.00">{lib/libLLVMObjCARCOpts.a(ProvenanceAnalysisEvaluator.cpp.o)}</text>
</g>
<!-- Node0x557d0d0ad998&#45;&gt;Node0x557d0d0ad308 -->
<g id="edge10" class="edge">
<title>Node0x557d0d0ad998&#45;&gt;Node0x557d0d0ad308</title>
<path fill="none" stroke="black" d="M938.28,-42.99C946.75,-43.06 955.22,-43.13 963.65,-43.2"/>
<polygon fill="black" stroke="black" points="963.89,-46.7 973.92,-43.28 963.95,-39.7 963.89,-46.7"/>
</g>
</g>
</svg>
