<?xml version="1.0" encoding="UTF-8" standalone="no"?>
<!DOCTYPE svg PUBLIC "-//W3C//DTD SVG 1.1//EN"
 "http://www.w3.org/Graphics/SVG/1.1/DTD/svg11.dtd">
<!-- Generated by graphviz version 2.43.0 (0)
 -->
<!-- Title: bin/llvm&#45;ifs_lib/libLLVMObjectYAML.a Pages: 1 -->
<svg width="1777pt" height="755pt"
 viewBox="0.00 0.00 1777.00 755.49" xmlns="http://www.w3.org/2000/svg" xmlns:xlink="http://www.w3.org/1999/xlink">
<g id="graph0" class="graph" transform="scale(1 1) rotate(0) translate(4 751.49)">
<title>bin/llvm&#45;ifs_lib/libLLVMObjectYAML.a</title>
<polygon fill="white" stroke="transparent" points="-4,4 -4,-751.49 1773,-751.49 1773,4 -4,4"/>
<text text-anchor="middle" x="884.5" y="-7.8" font-family="Times,serif" font-size="14.00">bin/llvm&#45;ifs_lib/libLLVMObjectYAML.a</text>
<!-- Node0x55618ac6dd78 -->
<g id="node1" class="node">
<title>Node0x55618ac6dd78</title>
<polygon fill="#7fb2ff" stroke="black" points="335,-359 0,-359 0,-323 335,-323 335,-359"/>
<text text-anchor="middle" x="167.5" y="-337.3" font-family="Times,serif" font-size="14.00">{lib/libLLVMObjectYAML.a(yaml2obj.cpp.o)}</text>
</g>
<!-- Node0x55618ac6d328 -->
<g id="node2" class="node">
<title>Node0x55618ac6d328</title>
<polygon fill="#7fb2ff" stroke="black" points="747.5,-562 390.5,-562 390.5,-526 747.5,-526 747.5,-562"/>
<text text-anchor="middle" x="569" y="-540.3" font-family="Times,serif" font-size="14.00">{lib/libLLVMObjectYAML.a(ObjectYAML.cpp.o)}</text>
</g>
<!-- Node0x55618ac6dd78&#45;&gt;Node0x55618ac6d328 -->
<g id="edge1" class="edge">
<title>Node0x55618ac6dd78&#45;&gt;Node0x55618ac6d328</title>
<path fill="none" stroke="#7fb2ff" d="M202.74,-359.11C242.03,-384.2 309.06,-429.03 371,-460 421,-485 481.47,-506.87 522.11,-522.36"/>
<polygon fill="#7fb2ff" stroke="#7fb2ff" points="520.9,-525.64 531.49,-525.95 523.41,-519.1 520.9,-525.64"/>
</g>
<!-- Node0x55618ac6c158 -->
<g id="node3" class="node">
<title>Node0x55618ac6c158</title>
<polygon fill="#7fb2ff" stroke="black" points="745.5,-313 392.5,-313 392.5,-277 745.5,-277 745.5,-313"/>
<text text-anchor="middle" x="569" y="-291.3" font-family="Times,serif" font-size="14.00">{lib/libLLVMObjectYAML.a(ELFEmitter.cpp.o)}</text>
</g>
<!-- Node0x55618ac6dd78&#45;&gt;Node0x55618ac6c158 -->
<g id="edge2" class="edge">
<title>Node0x55618ac6dd78&#45;&gt;Node0x55618ac6c158</title>
<path fill="none" stroke="#7fb2ff" d="M324.96,-322.98C350.06,-320.09 376.12,-317.09 401.45,-314.18"/>
<polygon fill="#7fb2ff" stroke="#7fb2ff" points="401.96,-317.64 411.49,-313.02 401.16,-310.69 401.96,-317.64"/>
</g>
<!-- Node0x55618ac67c48 -->
<g id="node4" class="node">
<title>Node0x55618ac67c48</title>
<polygon fill="none" stroke="black" points="757.5,-167 380.5,-167 380.5,-131 757.5,-131 757.5,-167"/>
<text text-anchor="middle" x="569" y="-145.3" font-family="Times,serif" font-size="14.00">{lib/libLLVMObjectYAML.a(ArchiveEmitter.cpp.o)}</text>
</g>
<!-- Node0x55618ac6dd78&#45;&gt;Node0x55618ac67c48 -->
<g id="edge3" class="edge">
<title>Node0x55618ac6dd78&#45;&gt;Node0x55618ac67c48</title>
<path fill="none" stroke="black" d="M185.13,-322.77C217.34,-288.72 292.07,-215.76 371,-181 380.55,-176.79 390.58,-173.13 400.85,-169.95"/>
<polygon fill="black" stroke="black" points="402.15,-173.22 410.76,-167.04 400.18,-166.5 402.15,-173.22"/>
</g>
<!-- Node0x55618ac674c8 -->
<g id="node5" class="node">
<title>Node0x55618ac674c8</title>
<polygon fill="#7fb2ff" stroke="black" points="751.5,-405 386.5,-405 386.5,-369 751.5,-369 751.5,-405"/>
<text text-anchor="middle" x="569" y="-383.3" font-family="Times,serif" font-size="14.00">{lib/libLLVMObjectYAML.a(COFFEmitter.cpp.o)}</text>
</g>
<!-- Node0x55618ac6dd78&#45;&gt;Node0x55618ac674c8 -->
<g id="edge4" class="edge">
<title>Node0x55618ac6dd78&#45;&gt;Node0x55618ac674c8</title>
<path fill="none" stroke="#7fb2ff" d="M324.96,-359.02C350.06,-361.91 376.12,-364.91 401.45,-367.82"/>
<polygon fill="#7fb2ff" stroke="#7fb2ff" points="401.16,-371.31 411.49,-368.98 401.96,-364.36 401.16,-371.31"/>
</g>
<!-- Node0x55618ac69688 -->
<g id="node6" class="node">
<title>Node0x55618ac69688</title>
<polygon fill="#7fb2ff" stroke="black" points="756,-259 382,-259 382,-223 756,-223 756,-259"/>
<text text-anchor="middle" x="569" y="-237.3" font-family="Times,serif" font-size="14.00">{lib/libLLVMObjectYAML.a(MachOEmitter.cpp.o)}</text>
</g>
<!-- Node0x55618ac6dd78&#45;&gt;Node0x55618ac69688 -->
<g id="edge5" class="edge">
<title>Node0x55618ac6dd78&#45;&gt;Node0x55618ac69688</title>
<path fill="none" stroke="#7fb2ff" d="M196.1,-322.92C234.55,-303.64 306.77,-274.79 371,-259 371.34,-258.92 371.68,-258.83 372.01,-258.75"/>
<polygon fill="#7fb2ff" stroke="#7fb2ff" points="373,-262.12 381.94,-256.42 371.4,-255.3 373,-262.12"/>
</g>
<!-- Node0x55618ac68f08 -->
<g id="node7" class="node">
<title>Node0x55618ac68f08</title>
<polygon fill="none" stroke="black" points="767,-113 371,-113 371,-77 767,-77 767,-113"/>
<text text-anchor="middle" x="569" y="-91.3" font-family="Times,serif" font-size="14.00">{lib/libLLVMObjectYAML.a(MinidumpEmitter.cpp.o)}</text>
</g>
<!-- Node0x55618ac6dd78&#45;&gt;Node0x55618ac68f08 -->
<g id="edge6" class="edge">
<title>Node0x55618ac6dd78&#45;&gt;Node0x55618ac68f08</title>
<path fill="none" stroke="black" d="M178.96,-322.97C205.07,-279.82 277.78,-170.58 371,-122 374.42,-120.22 377.91,-118.54 381.46,-116.97"/>
<polygon fill="black" stroke="black" points="383.11,-120.07 391.01,-113.02 380.43,-113.6 383.11,-120.07"/>
</g>
<!-- Node0x55618ac68918 -->
<g id="node8" class="node">
<title>Node0x55618ac68918</title>
<polygon fill="none" stroke="black" points="752,-59 386,-59 386,-23 752,-23 752,-59"/>
<text text-anchor="middle" x="569" y="-37.3" font-family="Times,serif" font-size="14.00">{lib/libLLVMObjectYAML.a(WasmEmitter.cpp.o)}</text>
</g>
<!-- Node0x55618ac6dd78&#45;&gt;Node0x55618ac68918 -->
<g id="edge7" class="edge">
<title>Node0x55618ac6dd78&#45;&gt;Node0x55618ac68918</title>
<path fill="none" stroke="black" d="M175.89,-322.76C197.38,-272.35 265.12,-130.67 371,-68 373.58,-66.48 376.2,-65.02 378.88,-63.64"/>
<polygon fill="black" stroke="black" points="380.63,-66.68 388.13,-59.2 377.6,-60.37 380.63,-66.68"/>
</g>
<!-- Node0x55618ac6d328&#45;&gt;Node0x55618ac6dd78 -->
<g id="edge8" class="edge">
<title>Node0x55618ac6d328&#45;&gt;Node0x55618ac6dd78</title>
<path fill="none" stroke="#7fb2ff" d="M488.32,-525.96C451.84,-513.72 408.48,-496.74 371,-478 304.26,-444.62 231.59,-395.15 194.1,-365.45"/>
<polygon fill="#7fb2ff" stroke="#7fb2ff" points="196.19,-362.63 186.21,-359.06 191.78,-368.07 196.19,-362.63"/>
</g>
<!-- Node0x55618ac6d008 -->
<g id="node9" class="node">
<title>Node0x55618ac6d008</title>
<polygon fill="#7fb2ff" stroke="black" points="1217,-313 877,-313 877,-277 1217,-277 1217,-313"/>
<text text-anchor="middle" x="1047" y="-291.3" font-family="Times,serif" font-size="14.00">{lib/libLLVMObjectYAML.a(ELFYAML.cpp.o)}</text>
</g>
<!-- Node0x55618ac6d328&#45;&gt;Node0x55618ac6d008 -->
<g id="edge9" class="edge">
<title>Node0x55618ac6d328&#45;&gt;Node0x55618ac6d008</title>
<path fill="none" stroke="#7fb2ff" d="M611.66,-525.94C655.77,-504.9 724.73,-466.24 767,-414 794.62,-379.87 768.16,-348.72 803,-322 821.71,-307.65 843.75,-298.25 866.79,-292.34"/>
<polygon fill="#7fb2ff" stroke="#7fb2ff" points="867.78,-295.7 876.72,-290.02 866.18,-288.89 867.78,-295.7"/>
</g>
<!-- Node0x55618ac6ab28 -->
<g id="node10" class="node">
<title>Node0x55618ac6ab28</title>
<polygon fill="#7fb2ff" stroke="black" points="1223,-475 871,-475 871,-439 1223,-439 1223,-475"/>
<text text-anchor="middle" x="1047" y="-453.3" font-family="Times,serif" font-size="14.00">{lib/libLLVMObjectYAML.a(COFFYAML.cpp.o)}</text>
</g>
<!-- Node0x55618ac6d328&#45;&gt;Node0x55618ac6ab28 -->
<g id="edge10" class="edge">
<title>Node0x55618ac6d328&#45;&gt;Node0x55618ac6ab28</title>
<path fill="none" stroke="#7fb2ff" d="M630.31,-525.96C677.05,-512.6 743.63,-494.89 803,-484 821.66,-480.58 841.22,-477.53 860.78,-474.82"/>
<polygon fill="#7fb2ff" stroke="#7fb2ff" points="861.25,-478.29 870.69,-473.48 860.31,-471.36 861.25,-478.29"/>
</g>
<!-- Node0x55618ac6ecc8 -->
<g id="node11" class="node">
<title>Node0x55618ac6ecc8</title>
<polygon fill="#7fb2ff" stroke="black" points="1227.5,-583 866.5,-583 866.5,-547 1227.5,-547 1227.5,-583"/>
<text text-anchor="middle" x="1047" y="-561.3" font-family="Times,serif" font-size="14.00">{lib/libLLVMObjectYAML.a(MachOYAML.cpp.o)}</text>
</g>
<!-- Node0x55618ac6d328&#45;&gt;Node0x55618ac6ecc8 -->
<g id="edge11" class="edge">
<title>Node0x55618ac6d328&#45;&gt;Node0x55618ac6ecc8</title>
<path fill="none" stroke="#7fb2ff" d="M747.58,-551.83C783.08,-553.4 820.5,-555.05 856.39,-556.63"/>
<polygon fill="#7fb2ff" stroke="#7fb2ff" points="856.32,-560.14 866.47,-557.08 856.63,-553.14 856.32,-560.14"/>
</g>
<!-- Node0x55618ac66d48 -->
<g id="node12" class="node">
<title>Node0x55618ac66d48</title>
<polygon fill="#7fb2ff" stroke="black" points="1223.5,-691 870.5,-691 870.5,-655 1223.5,-655 1223.5,-691"/>
<text text-anchor="middle" x="1047" y="-669.3" font-family="Times,serif" font-size="14.00">{lib/libLLVMObjectYAML.a(WasmYAML.cpp.o)}</text>
</g>
<!-- Node0x55618ac6d328&#45;&gt;Node0x55618ac66d48 -->
<g id="edge12" class="edge">
<title>Node0x55618ac6d328&#45;&gt;Node0x55618ac66d48</title>
<path fill="none" stroke="#7fb2ff" d="M602.8,-562.17C646.88,-585.69 728.35,-626.01 803,-646 821.42,-650.93 840.85,-654.96 860.37,-658.26"/>
<polygon fill="#7fb2ff" stroke="#7fb2ff" points="859.84,-661.72 870.28,-659.87 860.97,-654.81 859.84,-661.72"/>
</g>
<!-- Node0x55618ac66438 -->
<g id="node13" class="node">
<title>Node0x55618ac66438</title>
<polygon fill="#7fb2ff" stroke="black" points="1229.5,-745 864.5,-745 864.5,-709 1229.5,-709 1229.5,-745"/>
<text text-anchor="middle" x="1047" y="-723.3" font-family="Times,serif" font-size="14.00">{lib/libLLVMObjectYAML.a(ArchiveYAML.cpp.o)}</text>
</g>
<!-- Node0x55618ac6d328&#45;&gt;Node0x55618ac66438 -->
<g id="edge13" class="edge">
<title>Node0x55618ac6d328&#45;&gt;Node0x55618ac66438</title>
<path fill="none" stroke="#7fb2ff" d="M589.65,-562.1C627.59,-595.84 714.98,-667.84 803,-700 819.4,-705.99 836.8,-710.76 854.46,-714.53"/>
<polygon fill="#7fb2ff" stroke="#7fb2ff" points="853.8,-717.97 864.3,-716.53 855.19,-711.11 853.8,-717.97"/>
</g>
<!-- Node0x55618ac68558 -->
<g id="node14" class="node">
<title>Node0x55618ac68558</title>
<polygon fill="#7fb2ff" stroke="black" points="1238.5,-637 855.5,-637 855.5,-601 1238.5,-601 1238.5,-637"/>
<text text-anchor="middle" x="1047" y="-615.3" font-family="Times,serif" font-size="14.00">{lib/libLLVMObjectYAML.a(MinidumpYAML.cpp.o)}</text>
</g>
<!-- Node0x55618ac6d328&#45;&gt;Node0x55618ac68558 -->
<g id="edge14" class="edge">
<title>Node0x55618ac6d328&#45;&gt;Node0x55618ac68558</title>
<path fill="none" stroke="#7fb2ff" d="M648.4,-562.04C693.44,-571.93 751.19,-583.8 803,-592 820.33,-594.74 838.41,-597.3 856.53,-599.67"/>
<polygon fill="#7fb2ff" stroke="#7fb2ff" points="856.23,-603.16 866.6,-600.96 857.12,-596.22 856.23,-603.16"/>
</g>
<!-- Node0x55618ac6c158&#45;&gt;Node0x55618ac6d008 -->
<g id="edge15" class="edge">
<title>Node0x55618ac6c158&#45;&gt;Node0x55618ac6d008</title>
<path fill="none" stroke="#7fb2ff" d="M745.55,-288.46C785.12,-288.19 827.17,-288.18 866.89,-288.44"/>
<polygon fill="#7fb2ff" stroke="#7fb2ff" points="866.91,-291.94 876.93,-288.51 866.96,-284.94 866.91,-291.94"/>
</g>
<!-- Node0x55618ac6af38 -->
<g id="node15" class="node">
<title>Node0x55618ac6af38</title>
<polygon fill="none" stroke="black" points="1202.5,-113 891.5,-113 891.5,-77 1202.5,-77 1202.5,-113"/>
<text text-anchor="middle" x="1047" y="-91.3" font-family="Times,serif" font-size="14.00">{lib/libLLVMObjectYAML.a(YAML.cpp.o)}</text>
</g>
<!-- Node0x55618ac6c158&#45;&gt;Node0x55618ac6af38 -->
<g id="edge16" class="edge">
<title>Node0x55618ac6c158&#45;&gt;Node0x55618ac6af38</title>
<path fill="none" stroke="black" d="M745.51,-282.18C753.14,-278.2 760.36,-273.51 767,-268 805.94,-235.69 766.16,-194.68 803,-160 824.93,-139.36 852.67,-125.12 881.51,-115.34"/>
<polygon fill="black" stroke="black" points="882.87,-118.57 891.32,-112.19 880.73,-111.91 882.87,-118.57"/>
</g>
<!-- Node0x55618ac6a178 -->
<g id="node16" class="node">
<title>Node0x55618ac6a178</title>
<polygon fill="#7fb2ff" stroke="black" points="1236,-205 858,-205 858,-169 1236,-169 1236,-205"/>
<text text-anchor="middle" x="1047" y="-183.3" font-family="Times,serif" font-size="14.00">{lib/libLLVMObjectYAML.a(DWARFEmitter.cpp.o)}</text>
</g>
<!-- Node0x55618ac6c158&#45;&gt;Node0x55618ac6a178 -->
<g id="edge17" class="edge">
<title>Node0x55618ac6c158&#45;&gt;Node0x55618ac6a178</title>
<path fill="none" stroke="#7fb2ff" d="M745.79,-279.09C753.16,-275.89 760.27,-272.21 767,-268 791.45,-252.69 778.36,-229 803,-214 816.89,-205.55 832.06,-199.02 847.82,-194.03"/>
<polygon fill="#7fb2ff" stroke="#7fb2ff" points="849.1,-197.3 857.7,-191.12 847.12,-190.59 849.1,-197.3"/>
</g>
<!-- Node0x55618ac69ea8 -->
<g id="node17" class="node">
<title>Node0x55618ac69ea8</title>
<polygon fill="#7fb2ff" stroke="black" points="1229.5,-259 864.5,-259 864.5,-223 1229.5,-223 1229.5,-259"/>
<text text-anchor="middle" x="1047" y="-237.3" font-family="Times,serif" font-size="14.00">{lib/libLLVMObjectYAML.a(DWARFYAML.cpp.o)}</text>
</g>
<!-- Node0x55618ac6c158&#45;&gt;Node0x55618ac69ea8 -->
<g id="edge18" class="edge">
<title>Node0x55618ac6c158&#45;&gt;Node0x55618ac69ea8</title>
<path fill="none" stroke="#7fb2ff" d="M724.46,-277C750.67,-273.97 777.61,-270.88 803,-268 825.6,-265.43 849.39,-262.76 872.88,-260.13"/>
<polygon fill="#7fb2ff" stroke="#7fb2ff" points="873.38,-263.6 882.93,-259.01 872.6,-256.64 873.38,-263.6"/>
</g>
<!-- Node0x55618ac67c48&#45;&gt;Node0x55618ac6af38 -->
<g id="edge19" class="edge">
<title>Node0x55618ac67c48&#45;&gt;Node0x55618ac6af38</title>
<path fill="none" stroke="black" d="M728.83,-130.98C777.77,-125.43 831.76,-119.3 881.1,-113.71"/>
<polygon fill="black" stroke="black" points="881.69,-117.16 891.23,-112.56 880.9,-110.21 881.69,-117.16"/>
</g>
<!-- Node0x55618ac674c8&#45;&gt;Node0x55618ac6c158 -->
<g id="edge21" class="edge">
<title>Node0x55618ac674c8&#45;&gt;Node0x55618ac6c158</title>
<path fill="none" stroke="#7fb2ff" d="M569,-368.87C569,-353.83 569,-338.78 569,-323.74"/>
<polygon fill="#7fb2ff" stroke="#7fb2ff" points="572.5,-323.33 569,-313.33 565.5,-323.33 572.5,-323.33"/>
</g>
<!-- Node0x55618ac674c8&#45;&gt;Node0x55618ac6af38 -->
<g id="edge20" class="edge">
<title>Node0x55618ac674c8&#45;&gt;Node0x55618ac6af38</title>
<path fill="none" stroke="black" d="M689.29,-368.96C718.18,-359.32 746.58,-344.57 767,-322 816.48,-267.3 751.97,-213.26 803,-160 824.33,-137.74 852.38,-122.81 881.82,-112.86"/>
<polygon fill="black" stroke="black" points="882.96,-116.18 891.43,-109.81 880.83,-109.51 882.96,-116.18"/>
</g>
<!-- Node0x55618ac68fa8 -->
<g id="node18" class="node">
<title>Node0x55618ac68fa8</title>
<polygon fill="#7fb2ff" stroke="black" points="1284,-367 810,-367 810,-331 1284,-331 1284,-367"/>
<text text-anchor="middle" x="1047" y="-345.3" font-family="Times,serif" font-size="14.00">{lib/libLLVMObjectYAML.a(CodeViewYAMLTypeHashing.cpp.o)}</text>
</g>
<!-- Node0x55618ac674c8&#45;&gt;Node0x55618ac68fa8 -->
<g id="edge22" class="edge">
<title>Node0x55618ac674c8&#45;&gt;Node0x55618ac68fa8</title>
<path fill="none" stroke="#7fb2ff" d="M751.65,-372.5C770.86,-370.96 790.59,-369.39 810.29,-367.82"/>
<polygon fill="#7fb2ff" stroke="#7fb2ff" points="810.58,-371.3 820.27,-367.02 810.03,-364.33 810.58,-371.3"/>
</g>
<!-- Node0x55618ac69278 -->
<g id="node19" class="node">
<title>Node0x55618ac69278</title>
<polygon fill="#7fb2ff" stroke="black" points="1291,-421 803,-421 803,-385 1291,-385 1291,-421"/>
<text text-anchor="middle" x="1047" y="-399.3" font-family="Times,serif" font-size="14.00">{lib/libLLVMObjectYAML.a(CodeViewYAMLDebugSections.cpp.o)}</text>
</g>
<!-- Node0x55618ac674c8&#45;&gt;Node0x55618ac69278 -->
<g id="edge23" class="edge">
<title>Node0x55618ac674c8&#45;&gt;Node0x55618ac69278</title>
<path fill="none" stroke="#7fb2ff" d="M751.65,-393.11C765.18,-393.56 778.96,-394.02 792.81,-394.49"/>
<polygon fill="#7fb2ff" stroke="#7fb2ff" points="792.79,-397.99 802.9,-394.83 793.02,-390.99 792.79,-397.99"/>
</g>
<!-- Node0x55618ac684b8 -->
<g id="node20" class="node">
<title>Node0x55618ac684b8</title>
<polygon fill="#7fb2ff" stroke="black" points="1258,-529 836,-529 836,-493 1258,-493 1258,-529"/>
<text text-anchor="middle" x="1047" y="-507.3" font-family="Times,serif" font-size="14.00">{lib/libLLVMObjectYAML.a(CodeViewYAMLTypes.cpp.o)}</text>
</g>
<!-- Node0x55618ac674c8&#45;&gt;Node0x55618ac684b8 -->
<g id="edge24" class="edge">
<title>Node0x55618ac674c8&#45;&gt;Node0x55618ac684b8</title>
<path fill="none" stroke="#7fb2ff" d="M681.29,-405.02C710.68,-413.03 741.33,-424.53 767,-441 787.98,-454.46 781.03,-472.22 803,-484 810.46,-488 818.23,-491.54 826.23,-494.67"/>
<polygon fill="#7fb2ff" stroke="#7fb2ff" points="825.11,-497.99 835.7,-498.16 827.53,-491.42 825.11,-497.99"/>
</g>
<!-- Node0x55618ac69688&#45;&gt;Node0x55618ac6dd78 -->
<g id="edge25" class="edge">
<title>Node0x55618ac69688&#45;&gt;Node0x55618ac6dd78</title>
<path fill="none" stroke="#7fb2ff" d="M468.78,-259.04C437.26,-263.58 402.43,-269.27 371,-277 326.17,-288.02 277.45,-305.41 239.04,-319.43"/>
<polygon fill="#7fb2ff" stroke="#7fb2ff" points="237.69,-316.2 229.5,-322.92 240.1,-322.77 237.69,-316.2"/>
</g>
<!-- Node0x55618ac69688&#45;&gt;Node0x55618ac6ecc8 -->
<g id="edge29" class="edge">
<title>Node0x55618ac69688&#45;&gt;Node0x55618ac6ecc8</title>
<path fill="none" stroke="#7fb2ff" d="M756.15,-258.59C759.96,-261.45 763.59,-264.58 767,-268 852.45,-353.76 716.46,-453.34 803,-538 818.19,-552.86 836.74,-562.94 856.74,-569.55"/>
<polygon fill="#7fb2ff" stroke="#7fb2ff" points="855.77,-572.91 866.35,-572.43 857.78,-566.2 855.77,-572.91"/>
</g>
<!-- Node0x55618ac69688&#45;&gt;Node0x55618ac6af38 -->
<g id="edge26" class="edge">
<title>Node0x55618ac69688&#45;&gt;Node0x55618ac6af38</title>
<path fill="none" stroke="black" d="M630.03,-222.9C669.34,-210.63 721.64,-193.51 767,-176 783.33,-169.69 786.49,-165.84 803,-160 852.77,-142.41 909.72,-126.93 955.97,-115.5"/>
<polygon fill="black" stroke="black" points="957.09,-118.83 965.97,-113.05 955.42,-112.03 957.09,-118.83"/>
</g>
<!-- Node0x55618ac69688&#45;&gt;Node0x55618ac6a178 -->
<g id="edge27" class="edge">
<title>Node0x55618ac69688&#45;&gt;Node0x55618ac6a178</title>
<path fill="none" stroke="#7fb2ff" d="M724.46,-223C750.67,-219.97 777.61,-216.88 803,-214 825.6,-211.43 849.39,-208.76 872.88,-206.13"/>
<polygon fill="#7fb2ff" stroke="#7fb2ff" points="873.38,-209.6 882.93,-205.01 872.6,-202.64 873.38,-209.6"/>
</g>
<!-- Node0x55618ac69688&#45;&gt;Node0x55618ac69ea8 -->
<g id="edge28" class="edge">
<title>Node0x55618ac69688&#45;&gt;Node0x55618ac69ea8</title>
<path fill="none" stroke="#7fb2ff" d="M756.08,-241C788.33,-241 821.93,-241 854.33,-241"/>
<polygon fill="#7fb2ff" stroke="#7fb2ff" points="854.34,-244.5 864.34,-241 854.34,-237.5 854.34,-244.5"/>
</g>
<!-- Node0x55618ac68f08&#45;&gt;Node0x55618ac6af38 -->
<g id="edge30" class="edge">
<title>Node0x55618ac68f08&#45;&gt;Node0x55618ac6af38</title>
<path fill="none" stroke="black" d="M767.04,-95C804.92,-95 844.22,-95 880.95,-95"/>
<polygon fill="black" stroke="black" points="881.24,-98.5 891.24,-95 881.24,-91.5 881.24,-98.5"/>
</g>
<!-- Node0x55618ac68918&#45;&gt;Node0x55618ac6af38 -->
<g id="edge31" class="edge">
<title>Node0x55618ac68918&#45;&gt;Node0x55618ac6af38</title>
<path fill="none" stroke="black" d="M728.83,-59.02C777.77,-64.57 831.76,-70.7 881.1,-76.29"/>
<polygon fill="black" stroke="black" points="880.9,-79.79 891.23,-77.44 881.69,-72.84 880.9,-79.79"/>
</g>
<!-- Node0x55618ac6d008&#45;&gt;Node0x55618ac6dd78 -->
<g id="edge32" class="edge">
<title>Node0x55618ac6d008&#45;&gt;Node0x55618ac6dd78</title>
<path fill="none" stroke="#7fb2ff" d="M878.32,-313C841.67,-316.44 803.06,-319.69 767,-322 625.37,-331.09 464.59,-335.89 345.36,-338.39"/>
<polygon fill="#7fb2ff" stroke="#7fb2ff" points="344.97,-334.9 335.04,-338.6 345.11,-341.89 344.97,-334.9"/>
</g>
<!-- Node0x55618ac6d008&#45;&gt;Node0x55618ac6c158 -->
<g id="edge34" class="edge">
<title>Node0x55618ac6d008&#45;&gt;Node0x55618ac6c158</title>
<path fill="none" stroke="#7fb2ff" d="M876.93,-301.49C837.65,-301.79 795.62,-301.83 755.67,-301.6"/>
<polygon fill="#7fb2ff" stroke="#7fb2ff" points="755.58,-298.1 745.55,-301.54 755.53,-305.1 755.58,-298.1"/>
</g>
<!-- Node0x55618ac6d008&#45;&gt;Node0x55618ac6af38 -->
<g id="edge33" class="edge">
<title>Node0x55618ac6d008&#45;&gt;Node0x55618ac6af38</title>
<path fill="none" stroke="black" d="M957.15,-313C895.6,-319.43 819.16,-314.26 785,-259 763.97,-224.97 763.97,-203.03 785,-169 806.25,-134.62 842.53,-114.95 881.43,-104"/>
<polygon fill="black" stroke="black" points="882.58,-107.32 891.37,-101.4 880.81,-100.55 882.58,-107.32"/>
</g>
<!-- Node0x55618ac6d008&#45;&gt;Node0x55618ac69ea8 -->
<g id="edge35" class="edge">
<title>Node0x55618ac6d008&#45;&gt;Node0x55618ac69ea8</title>
<path fill="none" stroke="#7fb2ff" d="M1169.08,-276.88C1185.03,-272.09 1188.08,-267.31 1178.24,-262.52"/>
<polygon fill="#7fb2ff" stroke="#7fb2ff" points="1179.38,-259.21 1168.79,-259.04 1176.96,-265.78 1179.38,-259.21"/>
</g>
<!-- Node0x55618ac6ab28&#45;&gt;Node0x55618ac6d008 -->
<g id="edge36" class="edge">
<title>Node0x55618ac6ab28&#45;&gt;Node0x55618ac6d008</title>
<path fill="none" stroke="#7fb2ff" d="M957.15,-475C895.6,-481.43 819.16,-476.26 785,-421 763.97,-386.97 763.97,-365.03 785,-331 817.29,-278.76 887.36,-271.28 946.92,-276.05"/>
<polygon fill="#7fb2ff" stroke="#7fb2ff" points="946.87,-279.56 957.15,-277 947.51,-272.59 946.87,-279.56"/>
</g>
<!-- Node0x55618ac6ab28&#45;&gt;Node0x55618ac6af38 -->
<g id="edge37" class="edge">
<title>Node0x55618ac6ab28&#45;&gt;Node0x55618ac6af38</title>
<path fill="none" stroke="black" d="M957.15,-475C895.6,-481.43 819.16,-476.26 785,-421 770.28,-397.18 770.28,-192.82 785,-169 806.25,-134.62 842.53,-114.95 881.43,-104"/>
<polygon fill="black" stroke="black" points="882.58,-107.32 891.37,-101.4 880.81,-100.55 882.58,-107.32"/>
</g>
<!-- Node0x55618ac6ab28&#45;&gt;Node0x55618ac68fa8 -->
<g id="edge38" class="edge">
<title>Node0x55618ac6ab28&#45;&gt;Node0x55618ac68fa8</title>
<path fill="none" stroke="#7fb2ff" d="M870.99,-457.62C806.89,-450.53 756.36,-431.35 785,-385 817.29,-332.76 887.36,-325.28 946.92,-330.05"/>
<polygon fill="#7fb2ff" stroke="#7fb2ff" points="946.87,-333.56 957.15,-331 947.51,-326.59 946.87,-333.56"/>
</g>
<!-- Node0x55618ac6ab28&#45;&gt;Node0x55618ac69278 -->
<g id="edge39" class="edge">
<title>Node0x55618ac6ab28&#45;&gt;Node0x55618ac69278</title>
<path fill="none" stroke="#7fb2ff" d="M1047,-438.79C1047,-436.31 1047,-433.83 1047,-431.34"/>
<polygon fill="#7fb2ff" stroke="#7fb2ff" points="1050.5,-431.14 1047,-421.14 1043.5,-431.14 1050.5,-431.14"/>
</g>
<!-- Node0x55618ac6ab28&#45;&gt;Node0x55618ac684b8 -->
<g id="edge40" class="edge">
<title>Node0x55618ac6ab28&#45;&gt;Node0x55618ac684b8</title>
<path fill="none" stroke="#7fb2ff" d="M1164.45,-475.04C1179.68,-479.73 1182.96,-484.42 1174.27,-489.11"/>
<polygon fill="#7fb2ff" stroke="#7fb2ff" points="1172.75,-485.95 1164.73,-492.88 1175.32,-492.46 1172.75,-485.95"/>
</g>
<!-- Node0x55618ac6ecc8&#45;&gt;Node0x55618ac6dd78 -->
<g id="edge41" class="edge">
<title>Node0x55618ac6ecc8&#45;&gt;Node0x55618ac6dd78</title>
<path fill="none" stroke="#7fb2ff" d="M866.33,-553.63C844.7,-549.75 823.15,-544.66 803,-538 785.41,-532.18 784.12,-524.06 767,-517 598.89,-447.65 544.72,-467.78 371,-414 320.76,-398.45 264.57,-377.94 224.15,-362.62"/>
<polygon fill="#7fb2ff" stroke="#7fb2ff" points="225.33,-359.32 214.74,-359.04 222.84,-365.86 225.33,-359.32"/>
</g>
<!-- Node0x55618ac6ecc8&#45;&gt;Node0x55618ac6d008 -->
<g id="edge42" class="edge">
<title>Node0x55618ac6ecc8&#45;&gt;Node0x55618ac6d008</title>
<path fill="none" stroke="#7fb2ff" d="M957.15,-583C895.6,-589.43 819.16,-584.26 785,-529 761.87,-491.57 761.87,-368.43 785,-331 817.29,-278.76 887.36,-271.28 946.92,-276.05"/>
<polygon fill="#7fb2ff" stroke="#7fb2ff" points="946.87,-279.56 957.15,-277 947.51,-272.59 946.87,-279.56"/>
</g>
<!-- Node0x55618ac6ecc8&#45;&gt;Node0x55618ac6ab28 -->
<g id="edge45" class="edge">
<title>Node0x55618ac6ecc8&#45;&gt;Node0x55618ac6ab28</title>
<path fill="none" stroke="#7fb2ff" d="M866.43,-565.1C804.53,-557.6 757.04,-538.24 785,-493 817.29,-440.76 887.36,-433.28 946.92,-438.05"/>
<polygon fill="#7fb2ff" stroke="#7fb2ff" points="946.87,-441.56 957.15,-439 947.51,-434.59 946.87,-441.56"/>
</g>
<!-- Node0x55618ac6ecc8&#45;&gt;Node0x55618ac6af38 -->
<g id="edge43" class="edge">
<title>Node0x55618ac6ecc8&#45;&gt;Node0x55618ac6af38</title>
<path fill="none" stroke="black" d="M957.15,-583C895.6,-589.43 819.16,-584.26 785,-529 763.97,-494.97 763.97,-203.03 785,-169 806.25,-134.62 842.53,-114.95 881.43,-104"/>
<polygon fill="black" stroke="black" points="882.58,-107.32 891.37,-101.4 880.81,-100.55 882.58,-107.32"/>
</g>
<!-- Node0x55618ac6ecc8&#45;&gt;Node0x55618ac69ea8 -->
<g id="edge44" class="edge">
<title>Node0x55618ac6ecc8&#45;&gt;Node0x55618ac69ea8</title>
<path fill="none" stroke="#7fb2ff" d="M957.15,-583C895.6,-589.43 819.16,-584.26 785,-529 770.28,-505.18 770.28,-300.82 785,-277 817.29,-224.76 887.36,-217.28 946.92,-222.05"/>
<polygon fill="#7fb2ff" stroke="#7fb2ff" points="946.87,-225.56 957.15,-223 947.51,-218.59 946.87,-225.56"/>
</g>
<!-- Node0x55618ac66d48&#45;&gt;Node0x55618ac6d008 -->
<g id="edge46" class="edge">
<title>Node0x55618ac66d48&#45;&gt;Node0x55618ac6d008</title>
<path fill="none" stroke="#7fb2ff" d="M957.15,-691C895.6,-697.43 819.16,-692.26 785,-637 767.13,-608.08 767.13,-359.92 785,-331 817.29,-278.76 887.36,-271.28 946.92,-276.05"/>
<polygon fill="#7fb2ff" stroke="#7fb2ff" points="946.87,-279.56 957.15,-277 947.51,-272.59 946.87,-279.56"/>
</g>
<!-- Node0x55618ac66d48&#45;&gt;Node0x55618ac6ab28 -->
<g id="edge49" class="edge">
<title>Node0x55618ac66d48&#45;&gt;Node0x55618ac6ab28</title>
<path fill="none" stroke="#7fb2ff" d="M957.15,-691C895.6,-697.43 819.16,-692.26 785,-637 768.18,-609.78 768.18,-520.22 785,-493 817.29,-440.76 887.36,-433.28 946.92,-438.05"/>
<polygon fill="#7fb2ff" stroke="#7fb2ff" points="946.87,-441.56 957.15,-439 947.51,-434.59 946.87,-441.56"/>
</g>
<!-- Node0x55618ac66d48&#45;&gt;Node0x55618ac6af38 -->
<g id="edge47" class="edge">
<title>Node0x55618ac66d48&#45;&gt;Node0x55618ac6af38</title>
<path fill="none" stroke="black" d="M957.15,-691C895.6,-697.43 819.16,-692.26 785,-637 771.33,-614.88 771.33,-191.12 785,-169 806.25,-134.62 842.53,-114.95 881.43,-104"/>
<polygon fill="black" stroke="black" points="882.58,-107.32 891.37,-101.4 880.81,-100.55 882.58,-107.32"/>
</g>
<!-- Node0x55618ac66d48&#45;&gt;Node0x55618ac69ea8 -->
<g id="edge48" class="edge">
<title>Node0x55618ac66d48&#45;&gt;Node0x55618ac69ea8</title>
<path fill="none" stroke="#7fb2ff" d="M957.15,-691C895.6,-697.43 819.16,-692.26 785,-637 763.97,-602.97 763.97,-311.03 785,-277 817.29,-224.76 887.36,-217.28 946.92,-222.05"/>
<polygon fill="#7fb2ff" stroke="#7fb2ff" points="946.87,-225.56 957.15,-223 947.51,-218.59 946.87,-225.56"/>
</g>
<!-- Node0x55618ac66438&#45;&gt;Node0x55618ac6d008 -->
<g id="edge50" class="edge">
<title>Node0x55618ac66438&#45;&gt;Node0x55618ac6d008</title>
<path fill="none" stroke="#7fb2ff" d="M957.15,-745C895.6,-751.43 819.16,-746.26 785,-691 763.97,-656.97 763.97,-365.03 785,-331 817.29,-278.76 887.36,-271.28 946.92,-276.05"/>
<polygon fill="#7fb2ff" stroke="#7fb2ff" points="946.87,-279.56 957.15,-277 947.51,-272.59 946.87,-279.56"/>
</g>
<!-- Node0x55618ac66438&#45;&gt;Node0x55618ac6af38 -->
<g id="edge51" class="edge">
<title>Node0x55618ac66438&#45;&gt;Node0x55618ac6af38</title>
<path fill="none" stroke="black" d="M957.15,-745C895.6,-751.43 819.16,-746.26 785,-691 769.75,-666.33 769.75,-193.67 785,-169 806.25,-134.62 842.53,-114.95 881.43,-104"/>
<polygon fill="black" stroke="black" points="882.58,-107.32 891.37,-101.4 880.81,-100.55 882.58,-107.32"/>
</g>
<!-- Node0x55618ac66438&#45;&gt;Node0x55618ac69ea8 -->
<g id="edge52" class="edge">
<title>Node0x55618ac66438&#45;&gt;Node0x55618ac69ea8</title>
<path fill="none" stroke="#7fb2ff" d="M957.15,-745C895.6,-751.43 819.16,-746.26 785,-691 772.91,-671.44 772.91,-296.56 785,-277 817.29,-224.76 887.36,-217.28 946.92,-222.05"/>
<polygon fill="#7fb2ff" stroke="#7fb2ff" points="946.87,-225.56 957.15,-223 947.51,-218.59 946.87,-225.56"/>
</g>
<!-- Node0x55618ac68558&#45;&gt;Node0x55618ac6d008 -->
<g id="edge53" class="edge">
<title>Node0x55618ac68558&#45;&gt;Node0x55618ac6d008</title>
<path fill="none" stroke="#7fb2ff" d="M957.15,-637C895.6,-643.43 819.16,-638.26 785,-583 770.28,-559.18 770.28,-354.82 785,-331 817.29,-278.76 887.36,-271.28 946.92,-276.05"/>
<polygon fill="#7fb2ff" stroke="#7fb2ff" points="946.87,-279.56 957.15,-277 947.51,-272.59 946.87,-279.56"/>
</g>
<!-- Node0x55618ac68558&#45;&gt;Node0x55618ac6af38 -->
<g id="edge54" class="edge">
<title>Node0x55618ac68558&#45;&gt;Node0x55618ac6af38</title>
<path fill="none" stroke="black" d="M957.15,-637C895.6,-643.43 819.16,-638.26 785,-583 772.91,-563.44 772.91,-188.56 785,-169 806.25,-134.62 842.53,-114.95 881.43,-104"/>
<polygon fill="black" stroke="black" points="882.58,-107.32 891.37,-101.4 880.81,-100.55 882.58,-107.32"/>
</g>
<!-- Node0x55618ac68558&#45;&gt;Node0x55618ac69278 -->
<g id="edge55" class="edge">
<title>Node0x55618ac68558&#45;&gt;Node0x55618ac69278</title>
<path fill="none" stroke="#7fb2ff" d="M957.15,-637C895.6,-643.43 819.16,-638.26 785,-583 768.18,-555.78 768.18,-466.22 785,-439 817.29,-386.76 887.36,-379.28 946.92,-384.05"/>
<polygon fill="#7fb2ff" stroke="#7fb2ff" points="946.87,-387.56 957.15,-385 947.51,-380.59 946.87,-387.56"/>
</g>
<!-- Node0x55618ac678d8 -->
<g id="node21" class="node">
<title>Node0x55618ac678d8</title>
<polygon fill="#7fb2ff" stroke="black" points="1769,-421 1327,-421 1327,-385 1769,-385 1769,-421"/>
<text text-anchor="middle" x="1548" y="-399.3" font-family="Times,serif" font-size="14.00">{lib/libLLVMObjectYAML.a(CodeViewYAMLSymbols.cpp.o)}</text>
</g>
<!-- Node0x55618ac68558&#45;&gt;Node0x55618ac678d8 -->
<g id="edge56" class="edge">
<title>Node0x55618ac68558&#45;&gt;Node0x55618ac678d8</title>
<path fill="none" stroke="#7fb2ff" d="M1238.72,-607.57C1256.71,-603.6 1274.4,-598.5 1291,-592 1387.32,-554.27 1479.7,-470.61 1522.37,-428.4"/>
<polygon fill="#7fb2ff" stroke="#7fb2ff" points="1524.91,-430.81 1529.51,-421.27 1519.96,-425.86 1524.91,-430.81"/>
</g>
<!-- Node0x55618ac6a178&#45;&gt;Node0x55618ac6dd78 -->
<g id="edge60" class="edge">
<title>Node0x55618ac6a178&#45;&gt;Node0x55618ac6dd78</title>
<path fill="none" stroke="#7fb2ff" d="M857.88,-183.77C690.3,-182.84 458.46,-186.94 371,-214 302.45,-235.21 234.11,-285.71 196.98,-316.26"/>
<polygon fill="#7fb2ff" stroke="#7fb2ff" points="194.54,-313.73 189.1,-322.82 199.02,-319.11 194.54,-313.73"/>
</g>
<!-- Node0x55618ac6a178&#45;&gt;Node0x55618ac6d008 -->
<g id="edge61" class="edge">
<title>Node0x55618ac6a178&#45;&gt;Node0x55618ac6d008</title>
<path fill="none" stroke="#7fb2ff" d="M957.15,-169C895.6,-162.57 819.16,-167.74 785,-223 756.99,-268.33 804.7,-287.67 866.77,-295.14"/>
<polygon fill="#7fb2ff" stroke="#7fb2ff" points="866.53,-298.63 876.85,-296.24 867.29,-291.67 866.53,-298.63"/>
</g>
<!-- Node0x55618ac6a178&#45;&gt;Node0x55618ac6af38 -->
<g id="edge62" class="edge">
<title>Node0x55618ac6a178&#45;&gt;Node0x55618ac6af38</title>
<path fill="none" stroke="black" d="M1047,-168.87C1047,-153.83 1047,-138.78 1047,-123.74"/>
<polygon fill="black" stroke="black" points="1050.5,-123.33 1047,-113.33 1043.5,-123.33 1050.5,-123.33"/>
</g>
<!-- Node0x55618ac6a178&#45;&gt;Node0x55618ac69ea8 -->
<g id="edge63" class="edge">
<title>Node0x55618ac6a178&#45;&gt;Node0x55618ac69ea8</title>
<path fill="none" stroke="#7fb2ff" d="M920.88,-205.04C904.19,-209.82 900.87,-214.61 910.9,-219.39"/>
<polygon fill="#7fb2ff" stroke="#7fb2ff" points="909.98,-222.78 920.57,-222.88 912.35,-216.19 909.98,-222.78"/>
</g>
<!-- Node0x55618ac69ea8&#45;&gt;Node0x55618ac6d008 -->
<g id="edge57" class="edge">
<title>Node0x55618ac69ea8&#45;&gt;Node0x55618ac6d008</title>
<path fill="none" stroke="#7fb2ff" d="M925.21,-259.04C909.26,-263.77 905.96,-268.51 915.31,-273.25"/>
<polygon fill="#7fb2ff" stroke="#7fb2ff" points="914.33,-276.63 924.92,-276.88 916.8,-270.07 914.33,-276.63"/>
</g>
<!-- Node0x55618ac69ea8&#45;&gt;Node0x55618ac6af38 -->
<g id="edge58" class="edge">
<title>Node0x55618ac69ea8&#45;&gt;Node0x55618ac6af38</title>
<path fill="none" stroke="black" d="M957.15,-259C895.6,-265.43 819.16,-260.26 785,-205 753.29,-153.7 811.62,-126.31 881.21,-111.69"/>
<polygon fill="black" stroke="black" points="881.98,-115.11 891.1,-109.71 880.61,-108.24 881.98,-115.11"/>
</g>
<!-- Node0x55618ac69ea8&#45;&gt;Node0x55618ac6a178 -->
<g id="edge59" class="edge">
<title>Node0x55618ac69ea8&#45;&gt;Node0x55618ac6a178</title>
<path fill="none" stroke="#7fb2ff" d="M1173.43,-222.88C1190.11,-218.04 1193.17,-213.21 1182.61,-208.38"/>
<polygon fill="#7fb2ff" stroke="#7fb2ff" points="1183.72,-205.06 1173.12,-205.04 1181.39,-211.66 1183.72,-205.06"/>
</g>
<!-- Node0x55618ac68fa8&#45;&gt;Node0x55618ac6d008 -->
<g id="edge64" class="edge">
<title>Node0x55618ac68fa8&#45;&gt;Node0x55618ac6d008</title>
<path fill="none" stroke="#7fb2ff" d="M1047,-330.79C1047,-328.31 1047,-325.83 1047,-323.34"/>
<polygon fill="#7fb2ff" stroke="#7fb2ff" points="1050.5,-323.14 1047,-313.14 1043.5,-323.14 1050.5,-323.14"/>
</g>
<!-- Node0x55618ac68fa8&#45;&gt;Node0x55618ac6af38 -->
<g id="edge65" class="edge">
<title>Node0x55618ac68fa8&#45;&gt;Node0x55618ac6af38</title>
<path fill="none" stroke="black" d="M957.15,-367C895.6,-373.43 819.16,-368.26 785,-313 768.18,-285.78 768.18,-196.22 785,-169 806.25,-134.62 842.53,-114.95 881.43,-104"/>
<polygon fill="black" stroke="black" points="882.58,-107.32 891.37,-101.4 880.81,-100.55 882.58,-107.32"/>
</g>
<!-- Node0x55618ac69278&#45;&gt;Node0x55618ac6d008 -->
<g id="edge66" class="edge">
<title>Node0x55618ac69278&#45;&gt;Node0x55618ac6d008</title>
<path fill="none" stroke="#7fb2ff" d="M802.81,-387.43C778.56,-375.89 768.26,-358.09 785,-331 817.29,-278.76 887.36,-271.28 946.92,-276.05"/>
<polygon fill="#7fb2ff" stroke="#7fb2ff" points="946.87,-279.56 957.15,-277 947.51,-272.59 946.87,-279.56"/>
</g>
<!-- Node0x55618ac69278&#45;&gt;Node0x55618ac678d8 -->
<g id="edge67" class="edge">
<title>Node0x55618ac69278&#45;&gt;Node0x55618ac678d8</title>
<path fill="none" stroke="#7fb2ff" d="M1291.29,-396.25C1299.74,-396.25 1308.2,-396.25 1316.63,-396.27"/>
<polygon fill="#7fb2ff" stroke="#7fb2ff" points="1316.89,-399.77 1326.89,-396.29 1316.9,-392.77 1316.89,-399.77"/>
</g>
<!-- Node0x55618ac684b8&#45;&gt;Node0x55618ac6d008 -->
<g id="edge68" class="edge">
<title>Node0x55618ac684b8&#45;&gt;Node0x55618ac6d008</title>
<path fill="none" stroke="#7fb2ff" d="M957.15,-529C895.6,-535.43 819.16,-530.26 785,-475 768.18,-447.78 768.18,-358.22 785,-331 817.29,-278.76 887.36,-271.28 946.92,-276.05"/>
<polygon fill="#7fb2ff" stroke="#7fb2ff" points="946.87,-279.56 957.15,-277 947.51,-272.59 946.87,-279.56"/>
</g>
<!-- Node0x55618ac684b8&#45;&gt;Node0x55618ac6ab28 -->
<g id="edge69" class="edge">
<title>Node0x55618ac684b8&#45;&gt;Node0x55618ac6ab28</title>
<path fill="none" stroke="#7fb2ff" d="M929.27,-492.88C914.03,-488.14 911,-483.4 920.16,-478.66"/>
<polygon fill="#7fb2ff" stroke="#7fb2ff" points="921.48,-481.9 929.55,-475.04 918.96,-475.37 921.48,-481.9"/>
</g>
<!-- Node0x55618ac684b8&#45;&gt;Node0x55618ac68fa8 -->
<g id="edge70" class="edge">
<title>Node0x55618ac684b8&#45;&gt;Node0x55618ac68fa8</title>
<path fill="none" stroke="#7fb2ff" d="M957.15,-529C895.6,-535.43 819.16,-530.26 785,-475 763.97,-440.97 763.97,-419.03 785,-385 817.29,-332.76 887.36,-325.28 946.92,-330.05"/>
<polygon fill="#7fb2ff" stroke="#7fb2ff" points="946.87,-333.56 957.15,-331 947.51,-326.59 946.87,-333.56"/>
</g>
<!-- Node0x55618ac684b8&#45;&gt;Node0x55618ac69278 -->
<g id="edge71" class="edge">
<title>Node0x55618ac684b8&#45;&gt;Node0x55618ac69278</title>
<path fill="none" stroke="#7fb2ff" d="M835.92,-506.07C790.36,-496.13 761.87,-476.42 785,-439 817.29,-386.76 887.36,-379.28 946.92,-384.05"/>
<polygon fill="#7fb2ff" stroke="#7fb2ff" points="946.87,-387.56 957.15,-385 947.51,-380.59 946.87,-387.56"/>
</g>
<!-- Node0x55618ac684b8&#45;&gt;Node0x55618ac678d8 -->
<g id="edge72" class="edge">
<title>Node0x55618ac684b8&#45;&gt;Node0x55618ac678d8</title>
<path fill="none" stroke="#7fb2ff" d="M1175.18,-493C1212.72,-488.56 1253.73,-482.89 1291,-475 1352.03,-462.08 1419.22,-440.54 1469.44,-424.2"/>
<polygon fill="#7fb2ff" stroke="#7fb2ff" points="1470.82,-427.43 1479.25,-421 1468.66,-420.77 1470.82,-427.43"/>
</g>
<!-- Node0x55618ac678d8&#45;&gt;Node0x55618ac6d008 -->
<g id="edge73" class="edge">
<title>Node0x55618ac678d8&#45;&gt;Node0x55618ac6d008</title>
<path fill="none" stroke="#7fb2ff" d="M1499.62,-384.93C1448.8,-366.27 1365.34,-337.73 1291,-322 1270.47,-317.66 1248.81,-313.98 1227.22,-310.88"/>
<polygon fill="#7fb2ff" stroke="#7fb2ff" points="1227.7,-307.42 1217.31,-309.5 1226.73,-314.35 1227.7,-307.42"/>
</g>
<!-- Node0x55618ac678d8&#45;&gt;Node0x55618ac6ab28 -->
<g id="edge75" class="edge">
<title>Node0x55618ac678d8&#45;&gt;Node0x55618ac6ab28</title>
<path fill="none" stroke="#7fb2ff" d="M1380.51,-421.02C1330.42,-426.44 1275.3,-432.4 1224.59,-437.89"/>
<polygon fill="#7fb2ff" stroke="#7fb2ff" points="1224.07,-434.43 1214.51,-438.98 1224.83,-441.38 1224.07,-434.43"/>
</g>
<!-- Node0x55618ac678d8&#45;&gt;Node0x55618ac6af38 -->
<g id="edge74" class="edge">
<title>Node0x55618ac678d8&#45;&gt;Node0x55618ac6af38</title>
<path fill="none" stroke="black" d="M1533.36,-384.89C1498.36,-339.69 1400.35,-221.22 1291,-160 1254.39,-139.5 1211.03,-125.24 1171.15,-115.41"/>
<polygon fill="black" stroke="black" points="1171.9,-111.99 1161.36,-113.07 1170.27,-118.8 1171.9,-111.99"/>
</g>
<!-- Node0x55618ac678d8&#45;&gt;Node0x55618ac68fa8 -->
<g id="edge76" class="edge">
<title>Node0x55618ac678d8&#45;&gt;Node0x55618ac68fa8</title>
<path fill="none" stroke="#7fb2ff" d="M1380.51,-384.98C1330.42,-379.56 1275.3,-373.6 1224.59,-368.11"/>
<polygon fill="#7fb2ff" stroke="#7fb2ff" points="1224.83,-364.62 1214.51,-367.02 1224.07,-371.57 1224.83,-364.62"/>
</g>
<!-- Node0x55618ac678d8&#45;&gt;Node0x55618ac69278 -->
<g id="edge77" class="edge">
<title>Node0x55618ac678d8&#45;&gt;Node0x55618ac69278</title>
<path fill="none" stroke="#7fb2ff" d="M1326.89,-409.71C1318.4,-409.73 1309.86,-409.75 1301.32,-409.75"/>
<polygon fill="#7fb2ff" stroke="#7fb2ff" points="1301.29,-406.25 1291.29,-409.75 1301.29,-413.25 1301.29,-406.25"/>
</g>
<!-- Node0x55618ac678d8&#45;&gt;Node0x55618ac684b8 -->
<g id="edge78" class="edge">
<title>Node0x55618ac678d8&#45;&gt;Node0x55618ac684b8</title>
<path fill="none" stroke="#7fb2ff" d="M1515.21,-421.1C1467.34,-442.27 1373.55,-475.53 1291,-493 1283.48,-494.59 1275.81,-496.09 1268.05,-497.51"/>
<polygon fill="#7fb2ff" stroke="#7fb2ff" points="1267.41,-494.06 1258.17,-499.25 1268.62,-500.96 1267.41,-494.06"/>
</g>
</g>
</svg>
