<?xml version="1.0" encoding="UTF-8" standalone="no"?>
<!DOCTYPE svg PUBLIC "-//W3C//DTD SVG 1.1//EN"
 "http://www.w3.org/Graphics/SVG/1.1/DTD/svg11.dtd">
<!-- Generated by graphviz version 2.43.0 (0)
 -->
<!-- Title: bin/lld_lib/libLLVMGlobalISel.a Pages: 1 -->
<svg width="2131pt" height="505pt"
 viewBox="0.00 0.00 2131.00 505.00" xmlns="http://www.w3.org/2000/svg" xmlns:xlink="http://www.w3.org/1999/xlink">
<g id="graph0" class="graph" transform="scale(1 1) rotate(0) translate(4 501)">
<title>bin/lld_lib/libLLVMGlobalISel.a</title>
<polygon fill="white" stroke="transparent" points="-4,4 -4,-501 2127,-501 2127,4 -4,4"/>
<text text-anchor="middle" x="1061.5" y="-7.8" font-family="Times,serif" font-size="14.00">bin/lld_lib/libLLVMGlobalISel.a</text>
<!-- Node0x559dbe97fb08 -->
<g id="node1" class="node">
<title>Node0x559dbe97fb08</title>
<polygon fill="#7fb2ff" stroke="black" points="369,-319 20,-319 20,-283 369,-283 369,-319"/>
<text text-anchor="middle" x="194.5" y="-297.3" font-family="Times,serif" font-size="14.00">{lib/libLLVMGlobalISel.a(LegalizerInfo.cpp.o)}</text>
</g>
<!-- Node0x559dbe97f338 -->
<g id="node2" class="node">
<title>Node0x559dbe97f338</title>
<polygon fill="#7fb2ff" stroke="black" points="805,-319 437,-319 437,-283 805,-283 805,-319"/>
<text text-anchor="middle" x="621" y="-297.3" font-family="Times,serif" font-size="14.00">{lib/libLLVMGlobalISel.a(LegalizerHelper.cpp.o)}</text>
</g>
<!-- Node0x559dbe97fb08&#45;&gt;Node0x559dbe97f338 -->
<g id="edge1" class="edge">
<title>Node0x559dbe97fb08&#45;&gt;Node0x559dbe97f338</title>
<path fill="none" stroke="#7fb2ff" d="M369.08,-294.35C388.1,-294.25 407.55,-294.23 426.79,-294.27"/>
<polygon fill="#7fb2ff" stroke="#7fb2ff" points="426.82,-297.77 436.83,-294.31 426.84,-290.77 426.82,-297.77"/>
</g>
<!-- Node0x559dbe97f338&#45;&gt;Node0x559dbe97fb08 -->
<g id="edge46" class="edge">
<title>Node0x559dbe97f338&#45;&gt;Node0x559dbe97fb08</title>
<path fill="none" stroke="#7fb2ff" d="M436.83,-307.69C417.77,-307.77 398.39,-307.77 379.33,-307.7"/>
<polygon fill="#7fb2ff" stroke="#7fb2ff" points="379.09,-304.19 369.08,-307.65 379.06,-311.19 379.09,-304.19"/>
</g>
<!-- Node0x559dbe971508 -->
<g id="node3" class="node">
<title>Node0x559dbe971508</title>
<polygon fill="#7fb2ff" stroke="black" points="1219.5,-405 869.5,-405 869.5,-369 1219.5,-369 1219.5,-405"/>
<text text-anchor="middle" x="1044.5" y="-383.3" font-family="Times,serif" font-size="14.00">{lib/libLLVMGlobalISel.a(CallLowering.cpp.o)}</text>
</g>
<!-- Node0x559dbe97f338&#45;&gt;Node0x559dbe971508 -->
<g id="edge44" class="edge">
<title>Node0x559dbe97f338&#45;&gt;Node0x559dbe971508</title>
<path fill="none" stroke="#7fb2ff" d="M794.32,-319.04C802.11,-321.66 809.71,-324.64 817,-328 836.44,-336.97 833.57,-351 853,-360 857.21,-361.95 861.51,-363.76 865.9,-365.46"/>
<polygon fill="#7fb2ff" stroke="#7fb2ff" points="865.04,-368.86 875.63,-368.97 867.42,-362.28 865.04,-368.86"/>
</g>
<!-- Node0x559dbe97fe28 -->
<g id="node4" class="node">
<title>Node0x559dbe97fe28</title>
<polygon fill="#7fb2ff" stroke="black" points="1204.5,-297 884.5,-297 884.5,-261 1204.5,-261 1204.5,-297"/>
<text text-anchor="middle" x="1044.5" y="-275.3" font-family="Times,serif" font-size="14.00">{lib/libLLVMGlobalISel.a(Legalizer.cpp.o)}</text>
</g>
<!-- Node0x559dbe97f338&#45;&gt;Node0x559dbe97fe28 -->
<g id="edge45" class="edge">
<title>Node0x559dbe97f338&#45;&gt;Node0x559dbe97fe28</title>
<path fill="none" stroke="#7fb2ff" d="M805.04,-284.75C828.07,-283.46 851.55,-282.26 874.35,-281.2"/>
<polygon fill="#7fb2ff" stroke="#7fb2ff" points="874.59,-284.69 884.42,-280.74 874.28,-277.7 874.59,-284.69"/>
</g>
<!-- Node0x559dbe97e4d8 -->
<g id="node5" class="node">
<title>Node0x559dbe97e4d8</title>
<polygon fill="#7fb2ff" stroke="black" points="1236,-205 853,-205 853,-169 1236,-169 1236,-205"/>
<text text-anchor="middle" x="1044.5" y="-183.3" font-family="Times,serif" font-size="14.00">{lib/libLLVMGlobalISel.a(MachineIRBuilder.cpp.o)}</text>
</g>
<!-- Node0x559dbe97f338&#45;&gt;Node0x559dbe97e4d8 -->
<g id="edge47" class="edge">
<title>Node0x559dbe97f338&#45;&gt;Node0x559dbe97e4d8</title>
<path fill="none" stroke="#7fb2ff" d="M688.79,-282.94C764.36,-262.5 887.25,-229.26 966.73,-207.76"/>
<polygon fill="#7fb2ff" stroke="#7fb2ff" points="967.94,-211.06 976.68,-205.07 966.11,-204.31 967.94,-211.06"/>
</g>
<!-- Node0x559dbe971cd8 -->
<g id="node6" class="node">
<title>Node0x559dbe971cd8</title>
<polygon fill="#7fb2ff" stroke="black" points="1189.5,-351 899.5,-351 899.5,-315 1189.5,-315 1189.5,-351"/>
<text text-anchor="middle" x="1044.5" y="-329.3" font-family="Times,serif" font-size="14.00">{lib/libLLVMGlobalISel.a(Utils.cpp.o)}</text>
</g>
<!-- Node0x559dbe97f338&#45;&gt;Node0x559dbe971cd8 -->
<g id="edge48" class="edge">
<title>Node0x559dbe97f338&#45;&gt;Node0x559dbe971cd8</title>
<path fill="none" stroke="#7fb2ff" d="M805.04,-314.9C833.13,-317.03 861.9,-319.21 889.29,-321.29"/>
<polygon fill="#7fb2ff" stroke="#7fb2ff" points="889.08,-324.79 899.32,-322.05 889.61,-317.81 889.08,-324.79"/>
</g>
<!-- Node0x559dbe971508&#45;&gt;Node0x559dbe97e4d8 -->
<g id="edge3" class="edge">
<title>Node0x559dbe971508&#45;&gt;Node0x559dbe97e4d8</title>
<path fill="none" stroke="#7fb2ff" d="M869.47,-382.49C855.6,-375.17 843.63,-364.97 835,-351 813.97,-316.97 813.97,-295.03 835,-261 850.19,-236.42 874.44,-219.89 901.13,-208.8"/>
<polygon fill="#7fb2ff" stroke="#7fb2ff" points="902.61,-211.98 910.66,-205.1 900.07,-205.45 902.61,-211.98"/>
</g>
<!-- Node0x559dbe971508&#45;&gt;Node0x559dbe971cd8 -->
<g id="edge4" class="edge">
<title>Node0x559dbe971508&#45;&gt;Node0x559dbe971cd8</title>
<path fill="none" stroke="#7fb2ff" d="M1044.5,-368.79C1044.5,-366.31 1044.5,-363.83 1044.5,-361.34"/>
<polygon fill="#7fb2ff" stroke="#7fb2ff" points="1048,-361.14 1044.5,-351.14 1041,-361.14 1048,-361.14"/>
</g>
<!-- Node0x559dbe97fe28&#45;&gt;Node0x559dbe97fb08 -->
<g id="edge30" class="edge">
<title>Node0x559dbe97fe28&#45;&gt;Node0x559dbe97fb08</title>
<path fill="none" stroke="#7fb2ff" d="M884.45,-271.9C759.44,-267.72 580.97,-264.86 425,-274 396.16,-275.69 365.39,-278.57 336.05,-281.83"/>
<polygon fill="#7fb2ff" stroke="#7fb2ff" points="335.28,-278.39 325.74,-282.99 336.07,-285.35 335.28,-278.39"/>
</g>
<!-- Node0x559dbe97fe28&#45;&gt;Node0x559dbe97f338 -->
<g id="edge29" class="edge">
<title>Node0x559dbe97fe28&#45;&gt;Node0x559dbe97f338</title>
<path fill="none" stroke="#7fb2ff" d="M884.42,-293.87C861.85,-295.21 838.43,-296.49 815.29,-297.64"/>
<polygon fill="#7fb2ff" stroke="#7fb2ff" points="814.85,-294.16 805.04,-298.14 815.2,-301.15 814.85,-294.16"/>
</g>
<!-- Node0x559dbe97fe28&#45;&gt;Node0x559dbe97e4d8 -->
<g id="edge32" class="edge">
<title>Node0x559dbe97fe28&#45;&gt;Node0x559dbe97e4d8</title>
<path fill="none" stroke="#7fb2ff" d="M1044.5,-260.87C1044.5,-245.83 1044.5,-230.78 1044.5,-215.74"/>
<polygon fill="#7fb2ff" stroke="#7fb2ff" points="1048,-215.33 1044.5,-205.33 1041,-215.33 1048,-215.33"/>
</g>
<!-- Node0x559dbe97fe28&#45;&gt;Node0x559dbe971cd8 -->
<g id="edge33" class="edge">
<title>Node0x559dbe97fe28&#45;&gt;Node0x559dbe971cd8</title>
<path fill="none" stroke="#7fb2ff" d="M937.73,-297.04C924.29,-301.59 921.09,-306.14 928.13,-310.7"/>
<polygon fill="#7fb2ff" stroke="#7fb2ff" points="926.91,-313.99 937.47,-314.88 929.77,-307.6 926.91,-313.99"/>
</g>
<!-- Node0x559dbe970388 -->
<g id="node7" class="node">
<title>Node0x559dbe970388</title>
<polygon fill="none" stroke="black" points="1640,-189 1326,-189 1326,-153 1640,-153 1640,-189"/>
<text text-anchor="middle" x="1483" y="-167.3" font-family="Times,serif" font-size="14.00">{lib/libLLVMGlobalISel.a(CSEInfo.cpp.o)}</text>
</g>
<!-- Node0x559dbe97fe28&#45;&gt;Node0x559dbe970388 -->
<g id="edge25" class="edge">
<title>Node0x559dbe97fe28&#45;&gt;Node0x559dbe970388</title>
<path fill="none" stroke="black" d="M1102.66,-260.97C1140.75,-248.6 1191.75,-231.34 1236,-214 1252.3,-207.61 1255.14,-202.72 1272,-198 1286.16,-194.04 1301.01,-190.65 1316.01,-187.76"/>
<polygon fill="black" stroke="black" points="1316.68,-191.2 1325.87,-185.93 1315.4,-184.31 1316.68,-191.2"/>
</g>
<!-- Node0x559dbe9719b8 -->
<g id="node8" class="node">
<title>Node0x559dbe9719b8</title>
<polygon fill="#7fb2ff" stroke="black" points="1655,-351 1311,-351 1311,-315 1655,-315 1655,-351"/>
<text text-anchor="middle" x="1483" y="-329.3" font-family="Times,serif" font-size="14.00">{lib/libLLVMGlobalISel.a(IRTranslator.cpp.o)}</text>
</g>
<!-- Node0x559dbe97fe28&#45;&gt;Node0x559dbe9719b8 -->
<g id="edge26" class="edge">
<title>Node0x559dbe97fe28&#45;&gt;Node0x559dbe9719b8</title>
<path fill="none" stroke="#7fb2ff" d="M1191.15,-297.02C1234.6,-302.39 1282.38,-308.3 1326.43,-313.75"/>
<polygon fill="#7fb2ff" stroke="#7fb2ff" points="1326.01,-317.23 1336.36,-314.98 1326.87,-310.28 1326.01,-317.23"/>
</g>
<!-- Node0x559dbe9720e8 -->
<g id="node9" class="node">
<title>Node0x559dbe9720e8</title>
<polygon fill="#7fb2ff" stroke="black" points="1666.5,-243 1299.5,-243 1299.5,-207 1666.5,-207 1666.5,-243"/>
<text text-anchor="middle" x="1483" y="-221.3" font-family="Times,serif" font-size="14.00">{lib/libLLVMGlobalISel.a(CSEMIRBuilder.cpp.o)}</text>
</g>
<!-- Node0x559dbe97fe28&#45;&gt;Node0x559dbe9720e8 -->
<g id="edge27" class="edge">
<title>Node0x559dbe97fe28&#45;&gt;Node0x559dbe9720e8</title>
<path fill="none" stroke="#7fb2ff" d="M1191.15,-260.98C1234.6,-255.61 1282.38,-249.7 1326.43,-244.25"/>
<polygon fill="#7fb2ff" stroke="#7fb2ff" points="1326.87,-247.72 1336.36,-243.02 1326.01,-240.77 1326.87,-247.72"/>
</g>
<!-- Node0x559dbe9732b8 -->
<g id="node10" class="node">
<title>Node0x559dbe9732b8</title>
<polygon fill="none" stroke="black" points="1689.5,-405 1276.5,-405 1276.5,-369 1689.5,-369 1689.5,-405"/>
<text text-anchor="middle" x="1483" y="-383.3" font-family="Times,serif" font-size="14.00">{lib/libLLVMGlobalISel.a(GISelChangeObserver.cpp.o)}</text>
</g>
<!-- Node0x559dbe97fe28&#45;&gt;Node0x559dbe9732b8 -->
<g id="edge28" class="edge">
<title>Node0x559dbe97fe28&#45;&gt;Node0x559dbe9732b8</title>
<path fill="none" stroke="black" d="M1204.65,-290.87C1215.66,-294.89 1226.25,-299.86 1236,-306 1260.41,-321.37 1247.49,-344.79 1272,-360 1274.49,-361.54 1277.03,-363.02 1279.61,-364.43"/>
<polygon fill="black" stroke="black" points="1278.04,-367.55 1288.54,-368.96 1281.2,-361.31 1278.04,-367.55"/>
</g>
<!-- Node0x559dbe97e208 -->
<g id="node11" class="node">
<title>Node0x559dbe97e208</title>
<polygon fill="#7fb2ff" stroke="black" points="1694,-297 1272,-297 1272,-261 1694,-261 1694,-297"/>
<text text-anchor="middle" x="1483" y="-275.3" font-family="Times,serif" font-size="14.00">{lib/libLLVMGlobalISel.a(LostDebugLocObserver.cpp.o)}</text>
</g>
<!-- Node0x559dbe97fe28&#45;&gt;Node0x559dbe97e208 -->
<g id="edge31" class="edge">
<title>Node0x559dbe97fe28&#45;&gt;Node0x559dbe97e208</title>
<path fill="none" stroke="#7fb2ff" d="M1204.63,-272.48C1223.2,-272.33 1242.39,-272.26 1261.6,-272.25"/>
<polygon fill="#7fb2ff" stroke="#7fb2ff" points="1261.64,-275.75 1271.64,-272.25 1261.64,-268.75 1261.64,-275.75"/>
</g>
<!-- Node0x559dbe97e4d8&#45;&gt;Node0x559dbe971cd8 -->
<g id="edge5" class="edge">
<title>Node0x559dbe97e4d8&#45;&gt;Node0x559dbe971cd8</title>
<path fill="none" stroke="#7fb2ff" d="M855.37,-205.3C847.47,-211.52 840.55,-219.01 835,-228 818.88,-254.09 818.88,-270.91 835,-297 847.61,-317.4 867.31,-329.76 889.69,-336.85"/>
<polygon fill="#7fb2ff" stroke="#7fb2ff" points="888.86,-340.25 899.43,-339.58 890.74,-333.51 888.86,-340.25"/>
</g>
<!-- Node0x559dbe971cd8&#45;&gt;Node0x559dbe97fe28 -->
<g id="edge8" class="edge">
<title>Node0x559dbe971cd8&#45;&gt;Node0x559dbe97fe28</title>
<path fill="none" stroke="#7fb2ff" d="M1151.53,-314.88C1164.84,-310.32 1167.9,-305.77 1160.73,-301.22"/>
<polygon fill="#7fb2ff" stroke="#7fb2ff" points="1161.83,-297.88 1151.27,-297.04 1159,-304.28 1161.83,-297.88"/>
</g>
<!-- Node0x559dbe971cd8&#45;&gt;Node0x559dbe9732b8 -->
<g id="edge6" class="edge">
<title>Node0x559dbe971cd8&#45;&gt;Node0x559dbe9732b8</title>
<path fill="none" stroke="black" d="M1189.64,-350.83C1233.39,-356.24 1281.64,-362.21 1326.13,-367.72"/>
<polygon fill="black" stroke="black" points="1325.8,-371.2 1336.15,-368.96 1326.66,-364.26 1325.8,-371.2"/>
</g>
<!-- Node0x559dbe981ea8 -->
<g id="node12" class="node">
<title>Node0x559dbe981ea8</title>
<polygon fill="#7fb2ff" stroke="black" points="1668.5,-497 1297.5,-497 1297.5,-461 1668.5,-461 1668.5,-497"/>
<text text-anchor="middle" x="1483" y="-475.3" font-family="Times,serif" font-size="14.00">{lib/libLLVMGlobalISel.a(GISelKnownBits.cpp.o)}</text>
</g>
<!-- Node0x559dbe971cd8&#45;&gt;Node0x559dbe981ea8 -->
<g id="edge7" class="edge">
<title>Node0x559dbe971cd8&#45;&gt;Node0x559dbe981ea8</title>
<path fill="none" stroke="#7fb2ff" d="M1189.95,-328.05C1206.57,-333.06 1222.41,-340.46 1236,-351 1269.07,-376.64 1239.07,-412.18 1272,-438 1281.96,-445.81 1293.03,-452.1 1304.72,-457.16"/>
<polygon fill="#7fb2ff" stroke="#7fb2ff" points="1303.64,-460.5 1314.23,-460.96 1306.24,-454 1303.64,-460.5"/>
</g>
<!-- Node0x559dbe9723b8 -->
<g id="node13" class="node">
<title>Node0x559dbe9723b8</title>
<polygon fill="none" stroke="black" points="1673,-59 1293,-59 1293,-23 1673,-23 1673,-59"/>
<text text-anchor="middle" x="1483" y="-37.3" font-family="Times,serif" font-size="14.00">{lib/libLLVMGlobalISel.a(RegisterBankInfo.cpp.o)}</text>
</g>
<!-- Node0x559dbe971cd8&#45;&gt;Node0x559dbe9723b8 -->
<g id="edge9" class="edge">
<title>Node0x559dbe971cd8&#45;&gt;Node0x559dbe9723b8</title>
<path fill="none" stroke="black" d="M1189.89,-331.82C1206.93,-326.38 1222.88,-318.14 1236,-306 1290.14,-255.92 1226.39,-201.96 1272,-144 1303.82,-103.57 1355.58,-77.93 1399.75,-62.34"/>
<polygon fill="black" stroke="black" points="1401.01,-65.61 1409.34,-59.07 1398.75,-58.99 1401.01,-65.61"/>
</g>
<!-- Node0x559dbe9719b8&#45;&gt;Node0x559dbe971508 -->
<g id="edge17" class="edge">
<title>Node0x559dbe9719b8&#45;&gt;Node0x559dbe971508</title>
<path fill="none" stroke="#7fb2ff" d="M1336.36,-351.02C1292.92,-356.39 1245.14,-362.3 1201.08,-367.75"/>
<polygon fill="#7fb2ff" stroke="#7fb2ff" points="1200.65,-364.28 1191.15,-368.98 1201.51,-371.23 1200.65,-364.28"/>
</g>
<!-- Node0x559dbe9719b8&#45;&gt;Node0x559dbe97e4d8 -->
<g id="edge21" class="edge">
<title>Node0x559dbe9719b8&#45;&gt;Node0x559dbe97e4d8</title>
<path fill="none" stroke="#7fb2ff" d="M1310.98,-326.95C1297,-321.82 1283.75,-314.99 1272,-306 1238.77,-280.57 1268.74,-245.07 1236,-219 1231.92,-215.75 1227.64,-212.78 1223.19,-210.07"/>
<polygon fill="#7fb2ff" stroke="#7fb2ff" points="1224.87,-207 1214.44,-205.16 1221.44,-213.1 1224.87,-207"/>
</g>
<!-- Node0x559dbe9719b8&#45;&gt;Node0x559dbe971cd8 -->
<g id="edge22" class="edge">
<title>Node0x559dbe9719b8&#45;&gt;Node0x559dbe971cd8</title>
<path fill="none" stroke="#7fb2ff" d="M1310.71,-333C1274.09,-333 1235.62,-333 1199.7,-333"/>
<polygon fill="#7fb2ff" stroke="#7fb2ff" points="1199.64,-329.5 1189.64,-333 1199.64,-336.5 1199.64,-329.5"/>
</g>
<!-- Node0x559dbe9719b8&#45;&gt;Node0x559dbe970388 -->
<g id="edge16" class="edge">
<title>Node0x559dbe9719b8&#45;&gt;Node0x559dbe970388</title>
<path fill="none" stroke="black" d="M1310.95,-339.06C1287.64,-331.49 1267.22,-318.4 1254,-297 1232.97,-262.97 1232.97,-241.03 1254,-207 1268.16,-184.08 1290.58,-170.69 1315.97,-163.4"/>
<polygon fill="black" stroke="black" points="1317,-166.75 1325.83,-160.9 1315.28,-159.97 1317,-166.75"/>
</g>
<!-- Node0x559dbe9719b8&#45;&gt;Node0x559dbe9720e8 -->
<g id="edge18" class="edge">
<title>Node0x559dbe9719b8&#45;&gt;Node0x559dbe9720e8</title>
<path fill="none" stroke="#7fb2ff" d="M1310.95,-339.06C1287.64,-331.49 1267.22,-318.4 1254,-297 1235.17,-266.54 1254.78,-248.42 1289.15,-237.78"/>
<polygon fill="#7fb2ff" stroke="#7fb2ff" points="1290.52,-241.03 1299.21,-234.97 1288.64,-234.29 1290.52,-241.03"/>
</g>
<!-- Node0x559dbe9719b8&#45;&gt;Node0x559dbe9732b8 -->
<g id="edge19" class="edge">
<title>Node0x559dbe9719b8&#45;&gt;Node0x559dbe9732b8</title>
<path fill="none" stroke="black" d="M1483,-351.14C1483,-353.62 1483,-356.1 1483,-358.59"/>
<polygon fill="black" stroke="black" points="1479.5,-358.79 1483,-368.79 1486.5,-358.79 1479.5,-358.79"/>
</g>
<!-- Node0x559dbe972c28 -->
<g id="node22" class="node">
<title>Node0x559dbe972c28</title>
<polygon fill="#7fb2ff" stroke="black" points="2123,-247 1730,-247 1730,-211 2123,-211 2123,-247"/>
<text text-anchor="middle" x="1926.5" y="-225.3" font-family="Times,serif" font-size="14.00">{lib/libLLVMGlobalISel.a(InlineAsmLowering.cpp.o)}</text>
</g>
<!-- Node0x559dbe9719b8&#45;&gt;Node0x559dbe972c28 -->
<g id="edge20" class="edge">
<title>Node0x559dbe9719b8&#45;&gt;Node0x559dbe972c28</title>
<path fill="none" stroke="#7fb2ff" d="M1648.48,-314.95C1663.93,-312.33 1679.31,-309.35 1694,-306 1755.49,-291.96 1823.77,-268.2 1870.14,-250.78"/>
<polygon fill="#7fb2ff" stroke="#7fb2ff" points="1871.58,-253.98 1879.69,-247.16 1869.1,-247.43 1871.58,-253.98"/>
</g>
<!-- Node0x559dbe9720e8&#45;&gt;Node0x559dbe97e4d8 -->
<g id="edge39" class="edge">
<title>Node0x559dbe9720e8&#45;&gt;Node0x559dbe97e4d8</title>
<path fill="none" stroke="#7fb2ff" d="M1299.27,-209.09C1281.79,-207.57 1264,-206.02 1246.37,-204.49"/>
<polygon fill="#7fb2ff" stroke="#7fb2ff" points="1246.27,-200.96 1236,-203.58 1245.66,-207.94 1246.27,-200.96"/>
</g>
<!-- Node0x559dbe9720e8&#45;&gt;Node0x559dbe971cd8 -->
<g id="edge40" class="edge">
<title>Node0x559dbe9720e8&#45;&gt;Node0x559dbe971cd8</title>
<path fill="none" stroke="#7fb2ff" d="M1299.28,-238.39C1289.76,-242.17 1280.59,-246.67 1272,-252 1247.49,-267.21 1260.41,-290.63 1236,-306 1224.74,-313.09 1212.36,-318.63 1199.5,-322.92"/>
<polygon fill="#7fb2ff" stroke="#7fb2ff" points="1198.11,-319.69 1189.58,-325.97 1200.17,-326.38 1198.11,-319.69"/>
</g>
<!-- Node0x559dbe9720e8&#45;&gt;Node0x559dbe970388 -->
<g id="edge38" class="edge">
<title>Node0x559dbe9720e8&#45;&gt;Node0x559dbe970388</title>
<path fill="none" stroke="black" d="M1483,-206.79C1483,-204.31 1483,-201.83 1483,-199.34"/>
<polygon fill="black" stroke="black" points="1486.5,-199.14 1483,-189.14 1479.5,-199.14 1486.5,-199.14"/>
</g>
<!-- Node0x559dbe97e208&#45;&gt;Node0x559dbe97fe28 -->
<g id="edge49" class="edge">
<title>Node0x559dbe97e208&#45;&gt;Node0x559dbe97fe28</title>
<path fill="none" stroke="#7fb2ff" d="M1271.64,-285.75C1252.53,-285.77 1233.34,-285.72 1214.65,-285.6"/>
<polygon fill="#7fb2ff" stroke="#7fb2ff" points="1214.65,-282.1 1204.63,-285.52 1214.61,-289.1 1214.65,-282.1"/>
</g>
<!-- Node0x559dbe981ea8&#45;&gt;Node0x559dbe971cd8 -->
<g id="edge43" class="edge">
<title>Node0x559dbe981ea8&#45;&gt;Node0x559dbe971cd8</title>
<path fill="none" stroke="#7fb2ff" d="M1297.33,-471.73C1288.36,-467.35 1279.84,-462.14 1272,-456 1239.07,-430.18 1269.07,-394.64 1236,-369 1225.06,-360.52 1212.67,-354.07 1199.59,-349.19"/>
<polygon fill="#7fb2ff" stroke="#7fb2ff" points="1200.54,-345.82 1189.95,-345.91 1198.29,-352.45 1200.54,-345.82"/>
</g>
<!-- Node0x559dbe9733a8 -->
<g id="node19" class="node">
<title>Node0x559dbe9733a8</title>
<polygon fill="#7fb2ff" stroke="black" points="2115.5,-497 1737.5,-497 1737.5,-461 2115.5,-461 2115.5,-497"/>
<text text-anchor="middle" x="1926.5" y="-475.3" font-family="Times,serif" font-size="14.00">{lib/libLLVMGlobalISel.a(InstructionSelect.cpp.o)}</text>
</g>
<!-- Node0x559dbe981ea8&#45;&gt;Node0x559dbe9733a8 -->
<g id="edge42" class="edge">
<title>Node0x559dbe981ea8&#45;&gt;Node0x559dbe9733a8</title>
<path fill="none" stroke="#7fb2ff" d="M1668.68,-472.33C1687.99,-472.24 1707.69,-472.23 1727.15,-472.28"/>
<polygon fill="#7fb2ff" stroke="#7fb2ff" points="1727.29,-475.78 1737.3,-472.32 1727.32,-468.78 1727.29,-475.78"/>
</g>
<!-- Node0x559dbe972688 -->
<g id="node14" class="node">
<title>Node0x559dbe972688</title>
<polygon fill="none" stroke="black" points="2102.5,-59 1750.5,-59 1750.5,-23 2102.5,-23 2102.5,-59"/>
<text text-anchor="middle" x="1926.5" y="-37.3" font-family="Times,serif" font-size="14.00">{lib/libLLVMGlobalISel.a(RegisterBank.cpp.o)}</text>
</g>
<!-- Node0x559dbe9723b8&#45;&gt;Node0x559dbe972688 -->
<g id="edge2" class="edge">
<title>Node0x559dbe9723b8&#45;&gt;Node0x559dbe972688</title>
<path fill="none" stroke="black" d="M1673.16,-41C1695.38,-41 1718.04,-41 1740.21,-41"/>
<polygon fill="black" stroke="black" points="1740.36,-44.5 1750.36,-41 1740.36,-37.5 1740.36,-44.5"/>
</g>
<!-- Node0x559dbe981818 -->
<g id="node15" class="node">
<title>Node0x559dbe981818</title>
<polygon fill="none" stroke="black" points="389,-373 0,-373 0,-337 389,-337 389,-373"/>
<text text-anchor="middle" x="194.5" y="-351.3" font-family="Times,serif" font-size="14.00">{lib/libLLVMGlobalISel.a(LegalityPredicates.cpp.o)}</text>
</g>
<!-- Node0x559dbe980c38 -->
<g id="node16" class="node">
<title>Node0x559dbe980c38</title>
<polygon fill="none" stroke="black" points="388,-427 1,-427 1,-391 388,-391 388,-427"/>
<text text-anchor="middle" x="194.5" y="-405.3" font-family="Times,serif" font-size="14.00">{lib/libLLVMGlobalISel.a(LegalizeMutations.cpp.o)}</text>
</g>
<!-- Node0x559dbe981138 -->
<g id="node17" class="node">
<title>Node0x559dbe981138</title>
<polygon fill="none" stroke="black" points="817,-373 425,-373 425,-337 817,-337 817,-373"/>
<text text-anchor="middle" x="621" y="-351.3" font-family="Times,serif" font-size="14.00">{lib/libLLVMGlobalISel.a(InstructionSelector.cpp.o)}</text>
</g>
<!-- Node0x559dbe981138&#45;&gt;Node0x559dbe971cd8 -->
<g id="edge10" class="edge">
<title>Node0x559dbe981138&#45;&gt;Node0x559dbe971cd8</title>
<path fill="none" stroke="black" d="M817.02,-344.82C841.25,-343.56 865.76,-342.28 889.26,-341.05"/>
<polygon fill="black" stroke="black" points="889.47,-344.54 899.27,-340.53 889.1,-337.55 889.47,-344.54"/>
</g>
<!-- Node0x559dbe971d78 -->
<g id="node18" class="node">
<title>Node0x559dbe971d78</title>
<polygon fill="none" stroke="black" points="359,-143 30,-143 30,-107 359,-107 359,-143"/>
<text text-anchor="middle" x="194.5" y="-121.3" font-family="Times,serif" font-size="14.00">{lib/libLLVMGlobalISel.a(GlobalISel.cpp.o)}</text>
</g>
<!-- Node0x559dbe971d78&#45;&gt;Node0x559dbe97fe28 -->
<g id="edge13" class="edge">
<title>Node0x559dbe971d78&#45;&gt;Node0x559dbe97fe28</title>
<path fill="none" stroke="black" d="M359.37,-136.22C537.02,-148.96 797.97,-169.58 817,-182 844.66,-200.05 826.04,-227.93 853,-247 859.89,-251.87 867.26,-256.1 874.96,-259.75"/>
<polygon fill="black" stroke="black" points="873.57,-262.96 884.13,-263.79 876.39,-256.56 873.57,-262.96"/>
</g>
<!-- Node0x559dbe971d78&#45;&gt;Node0x559dbe9719b8 -->
<g id="edge11" class="edge">
<title>Node0x559dbe971d78&#45;&gt;Node0x559dbe9719b8</title>
<path fill="none" stroke="black" d="M359.32,-109.84C517.7,-98.49 744.1,-91.98 817,-139 848.07,-159.04 822.72,-192.79 853,-214 993.1,-312.15 1089.36,-163.93 1236,-252 1260.73,-266.85 1247.49,-290.79 1272,-306 1281.21,-311.71 1291.08,-316.47 1301.34,-320.41"/>
<polygon fill="black" stroke="black" points="1300.27,-323.74 1310.86,-323.81 1302.62,-317.15 1300.27,-323.74"/>
</g>
<!-- Node0x559dbe971d78&#45;&gt;Node0x559dbe9733a8 -->
<g id="edge12" class="edge">
<title>Node0x559dbe971d78&#45;&gt;Node0x559dbe9733a8</title>
<path fill="none" stroke="black" d="M346.24,-106.97C372.46,-104.49 399.5,-102.33 425,-101 565.89,-93.65 1582.06,-58.13 1694,-144 1735.48,-175.83 1704.23,-210.51 1730,-256 1776.11,-337.39 1855.24,-415.58 1897.3,-454.11"/>
<polygon fill="black" stroke="black" points="1894.95,-456.71 1904.71,-460.84 1899.66,-451.53 1894.95,-456.71"/>
</g>
<!-- Node0x559dbe97ee88 -->
<g id="node20" class="node">
<title>Node0x559dbe97ee88</title>
<polygon fill="none" stroke="black" points="780,-227 462,-227 462,-191 780,-191 780,-227"/>
<text text-anchor="middle" x="621" y="-205.3" font-family="Times,serif" font-size="14.00">{lib/libLLVMGlobalISel.a(Localizer.cpp.o)}</text>
</g>
<!-- Node0x559dbe971d78&#45;&gt;Node0x559dbe97ee88 -->
<g id="edge14" class="edge">
<title>Node0x559dbe971d78&#45;&gt;Node0x559dbe97ee88</title>
<path fill="none" stroke="black" d="M269.94,-143.06C314.73,-153.63 372.97,-166.85 425,-177 446.93,-181.28 470.31,-185.45 493,-189.29"/>
<polygon fill="black" stroke="black" points="492.58,-192.77 503.02,-190.98 493.74,-185.87 492.58,-192.77"/>
</g>
<!-- Node0x559dbe97dcb8 -->
<g id="node21" class="node">
<title>Node0x559dbe97dcb8</title>
<polygon fill="none" stroke="black" points="802.5,-59 439.5,-59 439.5,-23 802.5,-23 802.5,-59"/>
<text text-anchor="middle" x="621" y="-37.3" font-family="Times,serif" font-size="14.00">{lib/libLLVMGlobalISel.a(RegBankSelect.cpp.o)}</text>
</g>
<!-- Node0x559dbe971d78&#45;&gt;Node0x559dbe97dcb8 -->
<g id="edge15" class="edge">
<title>Node0x559dbe971d78&#45;&gt;Node0x559dbe97dcb8</title>
<path fill="none" stroke="black" d="M269.94,-106.94C314.73,-96.37 372.97,-83.15 425,-73 446.93,-68.72 470.31,-64.55 493,-60.71"/>
<polygon fill="black" stroke="black" points="493.74,-64.13 503.02,-59.02 492.58,-57.23 493.74,-64.13"/>
</g>
<!-- Node0x559dbe9733a8&#45;&gt;Node0x559dbe971cd8 -->
<g id="edge24" class="edge">
<title>Node0x559dbe9733a8&#45;&gt;Node0x559dbe971cd8</title>
<path fill="none" stroke="#7fb2ff" d="M1776.13,-460.99C1748.82,-457.87 1720.56,-454.74 1694,-452 1600.34,-442.32 1352.94,-462.11 1272,-414 1247.21,-399.26 1260.41,-375.37 1236,-360 1224.74,-352.91 1212.36,-347.37 1199.5,-343.08"/>
<polygon fill="#7fb2ff" stroke="#7fb2ff" points="1200.17,-339.62 1189.58,-340.03 1198.11,-346.31 1200.17,-339.62"/>
</g>
<!-- Node0x559dbe9733a8&#45;&gt;Node0x559dbe981ea8 -->
<g id="edge23" class="edge">
<title>Node0x559dbe9733a8&#45;&gt;Node0x559dbe981ea8</title>
<path fill="none" stroke="#7fb2ff" d="M1737.3,-485.68C1717.94,-485.76 1698.24,-485.77 1678.81,-485.71"/>
<polygon fill="#7fb2ff" stroke="#7fb2ff" points="1678.69,-482.21 1668.68,-485.67 1678.66,-489.21 1678.69,-482.21"/>
</g>
<!-- Node0x559dbe97ee88&#45;&gt;Node0x559dbe971cd8 -->
<g id="edge37" class="edge">
<title>Node0x559dbe97ee88&#45;&gt;Node0x559dbe971cd8</title>
<path fill="none" stroke="black" d="M699.6,-227.06C736.64,-237.6 780.7,-253.01 817,-274 835.53,-284.71 833.57,-297 853,-306 864.59,-311.37 876.98,-315.74 889.65,-319.28"/>
<polygon fill="black" stroke="black" points="888.83,-322.69 899.39,-321.84 890.61,-315.91 888.83,-322.69"/>
</g>
<!-- Node0x559dbe97dcb8&#45;&gt;Node0x559dbe97e4d8 -->
<g id="edge34" class="edge">
<title>Node0x559dbe97dcb8&#45;&gt;Node0x559dbe97e4d8</title>
<path fill="none" stroke="black" d="M674.11,-59.05C752.08,-86.06 898.8,-136.88 981.94,-165.68"/>
<polygon fill="black" stroke="black" points="980.92,-169.03 991.51,-168.99 983.21,-162.41 980.92,-169.03"/>
</g>
<!-- Node0x559dbe97dcb8&#45;&gt;Node0x559dbe971cd8 -->
<g id="edge36" class="edge">
<title>Node0x559dbe97dcb8&#45;&gt;Node0x559dbe971cd8</title>
<path fill="none" stroke="black" d="M660.96,-59.19C705.23,-81.83 776.58,-124.62 817,-182 850.05,-228.92 809.65,-268.4 853,-306 863.76,-315.33 876.22,-322.31 889.52,-327.45"/>
<polygon fill="black" stroke="black" points="888.75,-330.89 899.34,-330.88 891.05,-324.28 888.75,-330.89"/>
</g>
<!-- Node0x559dbe97dcb8&#45;&gt;Node0x559dbe9723b8 -->
<g id="edge35" class="edge">
<title>Node0x559dbe97dcb8&#45;&gt;Node0x559dbe9723b8</title>
<path fill="none" stroke="black" d="M802.55,-41C942.9,-41 1137.44,-41 1282.41,-41"/>
<polygon fill="black" stroke="black" points="1282.76,-44.5 1292.76,-41 1282.76,-37.5 1282.76,-44.5"/>
</g>
<!-- Node0x559dbe972c28&#45;&gt;Node0x559dbe97e4d8 -->
<g id="edge41" class="edge">
<title>Node0x559dbe972c28&#45;&gt;Node0x559dbe97e4d8</title>
<path fill="none" stroke="#7fb2ff" d="M1888.94,-210.98C1844.23,-190.04 1765.66,-156.74 1694,-144 1509.34,-111.17 1458.73,-126.43 1272,-144 1224.96,-148.43 1173.15,-157.91 1130.96,-166.85"/>
<polygon fill="#7fb2ff" stroke="#7fb2ff" points="1130.05,-163.47 1121.01,-168.99 1131.52,-170.31 1130.05,-163.47"/>
</g>
</g>
</svg>
