<?xml version="1.0" encoding="UTF-8" standalone="no"?>
<!DOCTYPE svg PUBLIC "-//W3C//DTD SVG 1.1//EN"
 "http://www.w3.org/Graphics/SVG/1.1/DTD/svg11.dtd">
<!-- Generated by graphviz version 2.43.0 (0)
 -->
<!-- Title: bin/lld_lib/liblldMachO2.a Pages: 1 -->
<svg width="1437pt" height="799pt"
 viewBox="0.00 0.00 1437.00 798.60" xmlns="http://www.w3.org/2000/svg" xmlns:xlink="http://www.w3.org/1999/xlink">
<g id="graph0" class="graph" transform="scale(1 1) rotate(0) translate(4 794.6)">
<title>bin/lld_lib/liblldMachO2.a</title>
<polygon fill="white" stroke="transparent" points="-4,4 -4,-794.6 1433,-794.6 1433,4 -4,4"/>
<text text-anchor="middle" x="714.5" y="-7.8" font-family="Times,serif" font-size="14.00">bin/lld_lib/liblldMachO2.a</text>
<!-- Node0x558536ca7ba8 -->
<g id="node1" class="node">
<title>Node0x558536ca7ba8</title>
<polygon fill="#7fb2ff" stroke="black" points="263,-446.6 0,-446.6 0,-410.6 263,-410.6 263,-446.6"/>
<text text-anchor="middle" x="131.5" y="-424.9" font-family="Times,serif" font-size="14.00">{lib/liblldMachO2.a(Driver.cpp.o)}</text>
</g>
<!-- Node0x558536c94968 -->
<g id="node2" class="node">
<title>Node0x558536c94968</title>
<polygon fill="#7fb2ff" stroke="black" points="620.5,-754.6 324.5,-754.6 324.5,-718.6 620.5,-718.6 620.5,-754.6"/>
<text text-anchor="middle" x="472.5" y="-732.9" font-family="Times,serif" font-size="14.00">{lib/liblldMachO2.a(ARM64_32.cpp.o)}</text>
</g>
<!-- Node0x558536ca7ba8&#45;&gt;Node0x558536c94968 -->
<g id="edge1" class="edge">
<title>Node0x558536ca7ba8&#45;&gt;Node0x558536c94968</title>
<path fill="none" stroke="#7fb2ff" d="M137.35,-446.81C152,-497.89 200.89,-643.11 299,-709.6 304.06,-713.03 309.4,-716.09 314.94,-718.81"/>
<polygon fill="#7fb2ff" stroke="#7fb2ff" points="313.87,-722.17 324.43,-723.08 316.75,-715.79 313.87,-722.17"/>
</g>
<!-- Node0x558536c956d8 -->
<g id="node3" class="node">
<title>Node0x558536c956d8</title>
<polygon fill="#7fb2ff" stroke="black" points="608,-700.6 337,-700.6 337,-664.6 608,-664.6 608,-700.6"/>
<text text-anchor="middle" x="472.5" y="-678.9" font-family="Times,serif" font-size="14.00">{lib/liblldMachO2.a(ARM64.cpp.o)}</text>
</g>
<!-- Node0x558536ca7ba8&#45;&gt;Node0x558536c956d8 -->
<g id="edge2" class="edge">
<title>Node0x558536ca7ba8&#45;&gt;Node0x558536c956d8</title>
<path fill="none" stroke="#7fb2ff" d="M140.41,-446.89C160.17,-490.19 216.1,-599.16 299,-650.6 307.83,-656.07 317.36,-660.66 327.26,-664.49"/>
<polygon fill="#7fb2ff" stroke="#7fb2ff" points="326.26,-667.85 336.85,-667.95 328.63,-661.27 326.26,-667.85"/>
</g>
<!-- Node0x558536c95ef8 -->
<g id="node4" class="node">
<title>Node0x558536c95ef8</title>
<polygon fill="#7fb2ff" stroke="black" points="608,-554.6 337,-554.6 337,-518.6 608,-518.6 608,-554.6"/>
<text text-anchor="middle" x="472.5" y="-532.9" font-family="Times,serif" font-size="14.00">{lib/liblldMachO2.a(X86_64.cpp.o)}</text>
</g>
<!-- Node0x558536ca7ba8&#45;&gt;Node0x558536c95ef8 -->
<g id="edge3" class="edge">
<title>Node0x558536ca7ba8&#45;&gt;Node0x558536c95ef8</title>
<path fill="none" stroke="#7fb2ff" d="M162.66,-446.69C195.18,-465.36 249.01,-493.91 299,-509.6 308.02,-512.43 317.39,-514.97 326.91,-517.25"/>
<polygon fill="#7fb2ff" stroke="#7fb2ff" points="326.34,-520.71 336.87,-519.53 327.91,-513.88 326.34,-520.71"/>
</g>
<!-- Node0x558536c96718 -->
<g id="node5" class="node">
<title>Node0x558536c96718</title>
<polygon fill="#7fb2ff" stroke="black" points="622,-138.6 323,-138.6 323,-102.6 622,-102.6 622,-138.6"/>
<text text-anchor="middle" x="472.5" y="-116.9" font-family="Times,serif" font-size="14.00">{lib/liblldMachO2.a(DriverUtils.cpp.o)}</text>
</g>
<!-- Node0x558536ca7ba8&#45;&gt;Node0x558536c96718 -->
<g id="edge4" class="edge">
<title>Node0x558536ca7ba8&#45;&gt;Node0x558536c96718</title>
<path fill="none" stroke="#7fb2ff" d="M136.27,-410.51C149.46,-358 198.31,-206.83 299,-138.6 303.63,-135.46 308.48,-132.64 313.51,-130.1"/>
<polygon fill="#7fb2ff" stroke="#7fb2ff" points="315.12,-133.21 322.73,-125.84 312.18,-126.86 315.12,-133.21"/>
</g>
<!-- Node0x558536c96bc8 -->
<g id="node6" class="node">
<title>Node0x558536c96bc8</title>
<polygon fill="#7fb2ff" stroke="black" points="618,-446.6 327,-446.6 327,-410.6 618,-410.6 618,-446.6"/>
<text text-anchor="middle" x="472.5" y="-424.9" font-family="Times,serif" font-size="14.00">{lib/liblldMachO2.a(InputFiles.cpp.o)}</text>
</g>
<!-- Node0x558536ca7ba8&#45;&gt;Node0x558536c96bc8 -->
<g id="edge5" class="edge">
<title>Node0x558536ca7ba8&#45;&gt;Node0x558536c96bc8</title>
<path fill="none" stroke="#7fb2ff" d="M263.08,-422.01C280.54,-421.86 298.59,-421.82 316.42,-421.87"/>
<polygon fill="#7fb2ff" stroke="#7fb2ff" points="316.87,-425.37 326.89,-421.91 316.9,-418.37 316.87,-425.37"/>
</g>
<!-- Node0x558536c9f2c8 -->
<g id="node7" class="node">
<title>Node0x558536c9f2c8</title>
<polygon fill="#7fb2ff" stroke="black" points="627.5,-284.6 317.5,-284.6 317.5,-248.6 627.5,-248.6 627.5,-284.6"/>
<text text-anchor="middle" x="472.5" y="-262.9" font-family="Times,serif" font-size="14.00">{lib/liblldMachO2.a(InputSection.cpp.o)}</text>
</g>
<!-- Node0x558536ca7ba8&#45;&gt;Node0x558536c9f2c8 -->
<g id="edge6" class="edge">
<title>Node0x558536ca7ba8&#45;&gt;Node0x558536c9f2c8</title>
<path fill="none" stroke="#7fb2ff" d="M148.85,-410.14C176.52,-380.24 235.75,-321.71 299,-293.6 303.64,-291.53 308.42,-289.63 313.28,-287.86"/>
<polygon fill="#7fb2ff" stroke="#7fb2ff" points="314.41,-291.17 322.75,-284.64 312.16,-284.55 314.41,-291.17"/>
</g>
<!-- Node0x558536c9fa48 -->
<g id="node8" class="node">
<title>Node0x558536c9fa48</title>
<polygon fill="#7fb2ff" stroke="black" points="595.5,-608.6 349.5,-608.6 349.5,-572.6 595.5,-572.6 595.5,-608.6"/>
<text text-anchor="middle" x="472.5" y="-586.9" font-family="Times,serif" font-size="14.00">{lib/liblldMachO2.a(LTO.cpp.o)}</text>
</g>
<!-- Node0x558536ca7ba8&#45;&gt;Node0x558536c9fa48 -->
<g id="edge7" class="edge">
<title>Node0x558536ca7ba8&#45;&gt;Node0x558536c9fa48</title>
<path fill="none" stroke="#7fb2ff" d="M154.34,-446.76C183.86,-475.08 239.66,-528.22 299,-554.6 314.17,-561.34 330.74,-566.43 347.42,-570.36"/>
<polygon fill="#7fb2ff" stroke="#7fb2ff" points="346.72,-573.79 357.24,-572.54 348.24,-566.96 346.72,-573.79"/>
</g>
<!-- Node0x558536ca5d58 -->
<g id="node9" class="node">
<title>Node0x558536ca5d58</title>
<polygon fill="#7fb2ff" stroke="black" points="627.5,-392.6 317.5,-392.6 317.5,-356.6 627.5,-356.6 627.5,-392.6"/>
<text text-anchor="middle" x="472.5" y="-370.9" font-family="Times,serif" font-size="14.00">{lib/liblldMachO2.a(SymbolTable.cpp.o)}</text>
</g>
<!-- Node0x558536ca7ba8&#45;&gt;Node0x558536ca5d58 -->
<g id="edge8" class="edge">
<title>Node0x558536ca7ba8&#45;&gt;Node0x558536ca5d58</title>
<path fill="none" stroke="#7fb2ff" d="M193.38,-410.59C224.9,-404.51 264.01,-398.17 299,-392.6 301.71,-392.17 304.45,-391.73 307.21,-391.29"/>
<polygon fill="#7fb2ff" stroke="#7fb2ff" points="307.93,-394.72 317.26,-389.7 306.83,-387.81 307.93,-394.72"/>
</g>
<!-- Node0x558536ca6a78 -->
<g id="node10" class="node">
<title>Node0x558536ca6a78</title>
<polygon fill="#7fb2ff" stroke="black" points="612,-338.6 333,-338.6 333,-302.6 612,-302.6 612,-338.6"/>
<text text-anchor="middle" x="472.5" y="-316.9" font-family="Times,serif" font-size="14.00">{lib/liblldMachO2.a(Symbols.cpp.o)}</text>
</g>
<!-- Node0x558536ca7ba8&#45;&gt;Node0x558536ca6a78 -->
<g id="edge9" class="edge">
<title>Node0x558536ca7ba8&#45;&gt;Node0x558536ca6a78</title>
<path fill="none" stroke="#7fb2ff" d="M152.7,-410.48C183.24,-389.3 243.49,-356.02 299,-338.6 306.71,-336.18 314.69,-333.97 322.79,-331.97"/>
<polygon fill="#7fb2ff" stroke="#7fb2ff" points="323.79,-335.32 332.72,-329.62 322.19,-328.51 323.79,-335.32"/>
</g>
<!-- Node0x558536ca7068 -->
<g id="node11" class="node">
<title>Node0x558536ca7068</title>
<polygon fill="#7fb2ff" stroke="black" points="646,-500.6 299,-500.6 299,-464.6 646,-464.6 646,-500.6"/>
<text text-anchor="middle" x="472.5" y="-478.9" font-family="Times,serif" font-size="14.00">{lib/liblldMachO2.a(SyntheticSections.cpp.o)}</text>
</g>
<!-- Node0x558536ca7ba8&#45;&gt;Node0x558536ca7068 -->
<g id="edge10" class="edge">
<title>Node0x558536ca7ba8&#45;&gt;Node0x558536ca7068</title>
<path fill="none" stroke="#7fb2ff" d="M263.37,-440.92C275.41,-442.83 287.43,-444.75 299,-446.6 331.14,-451.72 366.66,-457.29 397.08,-462.7"/>
<polygon fill="#7fb2ff" stroke="#7fb2ff" points="396.72,-466.2 407.18,-464.53 397.96,-459.31 396.72,-466.2"/>
</g>
<!-- Node0x558536c986f8 -->
<g id="node12" class="node">
<title>Node0x558536c986f8</title>
<polygon fill="none" stroke="black" points="605,-192.6 340,-192.6 340,-156.6 605,-156.6 605,-192.6"/>
<text text-anchor="middle" x="472.5" y="-170.9" font-family="Times,serif" font-size="14.00">{lib/liblldMachO2.a(Target.cpp.o)}</text>
</g>
<!-- Node0x558536ca7ba8&#45;&gt;Node0x558536c986f8 -->
<g id="edge11" class="edge">
<title>Node0x558536ca7ba8&#45;&gt;Node0x558536c986f8</title>
<path fill="none" stroke="black" d="M140.41,-410.3C160.17,-367 216.1,-258.04 299,-206.6 308.71,-200.57 319.28,-195.63 330.24,-191.57"/>
<polygon fill="black" stroke="black" points="331.65,-194.79 339.97,-188.24 329.37,-188.17 331.65,-194.79"/>
</g>
<!-- Node0x558536c94968&#45;&gt;Node0x558536c9f2c8 -->
<g id="edge13" class="edge">
<title>Node0x558536c94968&#45;&gt;Node0x558536c9f2c8</title>
<path fill="none" stroke="#7fb2ff" d="M324.09,-735.08C306.52,-728.07 291.23,-717.14 281,-700.6 257.75,-662.98 257.75,-340.22 281,-302.6 288.02,-291.24 297.42,-282.54 308.3,-275.93"/>
<polygon fill="#7fb2ff" stroke="#7fb2ff" points="310.19,-278.89 317.34,-271.06 306.87,-272.72 310.19,-278.89"/>
</g>
<!-- Node0x558536c94968&#45;&gt;Node0x558536ca7068 -->
<g id="edge15" class="edge">
<title>Node0x558536c94968&#45;&gt;Node0x558536ca7068</title>
<path fill="none" stroke="#7fb2ff" d="M324.09,-735.08C306.52,-728.07 291.23,-717.14 281,-700.6 259.74,-666.19 259.74,-553 281,-518.6 283.98,-513.78 287.39,-509.43 291.16,-505.52"/>
<polygon fill="#7fb2ff" stroke="#7fb2ff" points="293.81,-507.85 298.84,-498.53 289.09,-502.67 293.81,-507.85"/>
</g>
<!-- Node0x558536c94fa8 -->
<g id="node13" class="node">
<title>Node0x558536c94fa8</title>
<polygon fill="#7fb2ff" stroke="black" points="1016,-790.6 682,-790.6 682,-754.6 1016,-754.6 1016,-790.6"/>
<text text-anchor="middle" x="849" y="-768.9" font-family="Times,serif" font-size="14.00">{lib/liblldMachO2.a(ARM64Common.cpp.o)}</text>
</g>
<!-- Node0x558536c94968&#45;&gt;Node0x558536c94fa8 -->
<g id="edge12" class="edge">
<title>Node0x558536c94968&#45;&gt;Node0x558536c94fa8</title>
<path fill="none" stroke="#7fb2ff" d="M620.71,-750.75C637.48,-752.36 654.71,-754.02 671.82,-755.66"/>
<polygon fill="#7fb2ff" stroke="#7fb2ff" points="671.58,-759.16 681.87,-756.63 672.25,-752.19 671.58,-759.16"/>
</g>
<!-- Node0x558536ca5b78 -->
<g id="node14" class="node">
<title>Node0x558536ca5b78</title>
<polygon fill="#7fb2ff" stroke="black" points="999.5,-444.6 698.5,-444.6 698.5,-408.6 999.5,-408.6 999.5,-444.6"/>
<text text-anchor="middle" x="849" y="-422.9" font-family="Times,serif" font-size="14.00">{lib/liblldMachO2.a(Relocations.cpp.o)}</text>
</g>
<!-- Node0x558536c94968&#45;&gt;Node0x558536ca5b78 -->
<g id="edge14" class="edge">
<title>Node0x558536c94968&#45;&gt;Node0x558536ca5b78</title>
<path fill="none" stroke="#7fb2ff" d="M620.57,-727.88C629.92,-723.16 638.56,-717.16 646,-709.6 726.61,-627.72 601.63,-535.71 682,-453.6 684.53,-451.02 687.2,-448.62 689.99,-446.4"/>
<polygon fill="#7fb2ff" stroke="#7fb2ff" points="692.05,-449.23 698.18,-440.59 688,-443.52 692.05,-449.23"/>
</g>
<!-- Node0x558536c956d8&#45;&gt;Node0x558536c9f2c8 -->
<g id="edge17" class="edge">
<title>Node0x558536c956d8&#45;&gt;Node0x558536c9f2c8</title>
<path fill="none" stroke="#7fb2ff" d="M336.9,-681.48C314.07,-674.43 293.69,-662.13 281,-641.6 261.2,-609.56 261.2,-334.64 281,-302.6 288.02,-291.24 297.42,-282.54 308.3,-275.93"/>
<polygon fill="#7fb2ff" stroke="#7fb2ff" points="310.19,-278.89 317.34,-271.06 306.87,-272.72 310.19,-278.89"/>
</g>
<!-- Node0x558536c956d8&#45;&gt;Node0x558536ca7068 -->
<g id="edge19" class="edge">
<title>Node0x558536c956d8&#45;&gt;Node0x558536ca7068</title>
<path fill="none" stroke="#7fb2ff" d="M336.9,-681.48C314.07,-674.43 293.69,-662.13 281,-641.6 266.63,-618.35 266.63,-541.85 281,-518.6 283.98,-513.78 287.39,-509.43 291.16,-505.52"/>
<polygon fill="#7fb2ff" stroke="#7fb2ff" points="293.81,-507.85 298.84,-498.53 289.09,-502.67 293.81,-507.85"/>
</g>
<!-- Node0x558536c956d8&#45;&gt;Node0x558536c94fa8 -->
<g id="edge16" class="edge">
<title>Node0x558536c956d8&#45;&gt;Node0x558536c94fa8</title>
<path fill="none" stroke="#7fb2ff" d="M608,-695.04C621.21,-698.79 634.11,-703.55 646,-709.6 666.17,-719.85 661.86,-735.28 682,-745.6 685.55,-747.42 689.2,-749.12 692.92,-750.71"/>
<polygon fill="#7fb2ff" stroke="#7fb2ff" points="691.72,-754 702.31,-754.45 694.31,-747.5 691.72,-754"/>
</g>
<!-- Node0x558536c956d8&#45;&gt;Node0x558536ca5b78 -->
<g id="edge18" class="edge">
<title>Node0x558536c956d8&#45;&gt;Node0x558536ca5b78</title>
<path fill="none" stroke="#7fb2ff" d="M570.56,-664.48C598.44,-654.84 626.53,-640.11 646,-617.6 694.83,-561.16 627.81,-504.9 682,-453.6 684.49,-451.24 687.1,-449.04 689.82,-446.99"/>
<polygon fill="#7fb2ff" stroke="#7fb2ff" points="691.94,-449.78 698.27,-441.29 688.02,-443.98 691.94,-449.78"/>
</g>
<!-- Node0x558536c95ef8&#45;&gt;Node0x558536c9f2c8 -->
<g id="edge20" class="edge">
<title>Node0x558536c95ef8&#45;&gt;Node0x558536c9f2c8</title>
<path fill="none" stroke="#7fb2ff" d="M336.8,-539.38C313.98,-532.9 293.63,-521.03 281,-500.6 257.87,-463.17 257.87,-340.03 281,-302.6 288.02,-291.24 297.42,-282.54 308.3,-275.93"/>
<polygon fill="#7fb2ff" stroke="#7fb2ff" points="310.19,-278.89 317.34,-271.06 306.87,-272.72 310.19,-278.89"/>
</g>
<!-- Node0x558536c95ef8&#45;&gt;Node0x558536ca7068 -->
<g id="edge22" class="edge">
<title>Node0x558536c95ef8&#45;&gt;Node0x558536ca7068</title>
<path fill="none" stroke="#7fb2ff" d="M472.5,-518.39C472.5,-515.91 472.5,-513.42 472.5,-510.94"/>
<polygon fill="#7fb2ff" stroke="#7fb2ff" points="476,-510.74 472.5,-500.74 469,-510.74 476,-510.74"/>
</g>
<!-- Node0x558536c95ef8&#45;&gt;Node0x558536ca5b78 -->
<g id="edge21" class="edge">
<title>Node0x558536c95ef8&#45;&gt;Node0x558536ca5b78</title>
<path fill="none" stroke="#7fb2ff" d="M608.15,-527.12C621.55,-522.83 634.44,-517.13 646,-509.6 670.79,-493.45 657.26,-469.82 682,-453.6 684.32,-452.07 686.7,-450.63 689.13,-449.25"/>
<polygon fill="#7fb2ff" stroke="#7fb2ff" points="690.87,-452.3 698.13,-444.58 687.64,-446.08 690.87,-452.3"/>
</g>
<!-- Node0x558536c96718&#45;&gt;Node0x558536ca7ba8 -->
<g id="edge23" class="edge">
<title>Node0x558536c96718&#45;&gt;Node0x558536ca7ba8</title>
<path fill="none" stroke="#7fb2ff" d="M336.13,-138.74C322.94,-143.15 310.29,-148.95 299,-156.6 209.29,-217.39 160.73,-344.01 141.88,-400.56"/>
<polygon fill="#7fb2ff" stroke="#7fb2ff" points="138.49,-399.68 138.7,-410.27 145.14,-401.85 138.49,-399.68"/>
</g>
<!-- Node0x558536c96718&#45;&gt;Node0x558536c96bc8 -->
<g id="edge24" class="edge">
<title>Node0x558536c96718&#45;&gt;Node0x558536c96bc8</title>
<path fill="none" stroke="#7fb2ff" d="M322.6,-123.09C308.16,-129.75 295.68,-139.55 287,-153.6 272.86,-176.47 272.86,-372.73 287,-395.6 294.68,-408.02 305.33,-417.12 317.67,-423.67"/>
<polygon fill="#7fb2ff" stroke="#7fb2ff" points="316.4,-426.94 326.94,-428 319.36,-420.59 316.4,-426.94"/>
</g>
<!-- Node0x558536ca0218 -->
<g id="node15" class="node">
<title>Node0x558536ca0218</title>
<polygon fill="none" stroke="black" points="976,-108.6 722,-108.6 722,-72.6 976,-72.6 976,-108.6"/>
<text text-anchor="middle" x="849" y="-86.9" font-family="Times,serif" font-size="14.00">{lib/liblldMachO2.a(ObjC.cpp.o)}</text>
</g>
<!-- Node0x558536c96718&#45;&gt;Node0x558536ca0218 -->
<g id="edge25" class="edge">
<title>Node0x558536c96718&#45;&gt;Node0x558536ca0218</title>
<path fill="none" stroke="black" d="M622.05,-108.7C651.64,-106.33 682.59,-103.85 711.74,-101.51"/>
<polygon fill="black" stroke="black" points="712.29,-104.98 721.98,-100.69 711.73,-98 712.29,-104.98"/>
</g>
<!-- Node0x558536c96bc8&#45;&gt;Node0x558536ca7ba8 -->
<g id="edge26" class="edge">
<title>Node0x558536c96bc8&#45;&gt;Node0x558536ca7ba8</title>
<path fill="none" stroke="#7fb2ff" d="M326.89,-435.28C309.17,-435.38 291.09,-435.37 273.42,-435.26"/>
<polygon fill="#7fb2ff" stroke="#7fb2ff" points="273.11,-431.76 263.08,-435.19 273.06,-438.76 273.11,-431.76"/>
</g>
<!-- Node0x558536c96bc8&#45;&gt;Node0x558536c96718 -->
<g id="edge27" class="edge">
<title>Node0x558536c96bc8&#45;&gt;Node0x558536c96718</title>
<path fill="none" stroke="#7fb2ff" d="M326.68,-428.14C305.55,-420.95 286.94,-408.92 275,-389.6 261.56,-367.86 261.56,-181.34 275,-159.6 284.37,-144.44 297.84,-133.77 313.41,-126.41"/>
<polygon fill="#7fb2ff" stroke="#7fb2ff" points="314.95,-129.55 322.81,-122.44 312.23,-123.1 314.95,-129.55"/>
</g>
<!-- Node0x558536c96bc8&#45;&gt;Node0x558536ca5d58 -->
<g id="edge30" class="edge">
<title>Node0x558536c96bc8&#45;&gt;Node0x558536ca5d58</title>
<path fill="none" stroke="#7fb2ff" d="M576.18,-410.48C589.08,-405.92 592.05,-401.37 585.1,-396.82"/>
<polygon fill="#7fb2ff" stroke="#7fb2ff" points="586.48,-393.6 575.93,-392.63 583.58,-399.97 586.48,-393.6"/>
</g>
<!-- Node0x558536c96bc8&#45;&gt;Node0x558536ca6a78 -->
<g id="edge31" class="edge">
<title>Node0x558536c96bc8&#45;&gt;Node0x558536ca6a78</title>
<path fill="none" stroke="#7fb2ff" d="M326.94,-428C310.67,-421.34 296.54,-411.04 287,-395.6 277.19,-379.72 277.19,-369.48 287,-353.6 295.83,-339.31 308.58,-329.43 323.32,-322.76"/>
<polygon fill="#7fb2ff" stroke="#7fb2ff" points="324.74,-325.96 332.74,-319.01 322.15,-319.45 324.74,-325.96"/>
</g>
<!-- Node0x558536c96bc8&#45;&gt;Node0x558536c986f8 -->
<g id="edge32" class="edge">
<title>Node0x558536c96bc8&#45;&gt;Node0x558536c986f8</title>
<path fill="none" stroke="black" d="M326.86,-428.14C308.13,-421.2 291.76,-410.01 281,-392.6 264.18,-365.38 264.18,-275.82 281,-248.6 296.34,-223.78 321.44,-207.27 348.5,-196.29"/>
<polygon fill="black" stroke="black" points="350.04,-199.45 358.14,-192.63 347.55,-192.91 350.04,-199.45"/>
</g>
<!-- Node0x558536c97348 -->
<g id="node16" class="node">
<title>Node0x558536c97348</title>
<polygon fill="none" stroke="black" points="979.5,-552.6 718.5,-552.6 718.5,-516.6 979.5,-516.6 979.5,-552.6"/>
<text text-anchor="middle" x="849" y="-530.9" font-family="Times,serif" font-size="14.00">{lib/liblldMachO2.a(Dwarf.cpp.o)}</text>
</g>
<!-- Node0x558536c96bc8&#45;&gt;Node0x558536c97348 -->
<g id="edge28" class="edge">
<title>Node0x558536c96bc8&#45;&gt;Node0x558536c97348</title>
<path fill="none" stroke="black" d="M618.42,-442.1C628.09,-445.76 637.4,-450.2 646,-455.6 669.81,-470.54 658.23,-492.59 682,-507.6 690.33,-512.86 699.35,-517.2 708.73,-520.78"/>
<polygon fill="black" stroke="black" points="707.63,-524.1 718.23,-524.11 709.95,-517.5 707.63,-524.1"/>
</g>
<!-- Node0x558536c9e4b8 -->
<g id="node17" class="node">
<title>Node0x558536c9e4b8</title>
<polygon fill="none" stroke="black" points="997,-644.6 701,-644.6 701,-608.6 997,-608.6 997,-644.6"/>
<text text-anchor="middle" x="849" y="-622.9" font-family="Times,serif" font-size="14.00">{lib/liblldMachO2.a(ExportTrie.cpp.o)}</text>
</g>
<!-- Node0x558536c96bc8&#45;&gt;Node0x558536c9e4b8 -->
<g id="edge29" class="edge">
<title>Node0x558536c96bc8&#45;&gt;Node0x558536c9e4b8</title>
<path fill="none" stroke="black" d="M618.4,-437.72C628.44,-442.31 637.8,-448.17 646,-455.6 693.28,-498.45 635.48,-550.92 682,-594.6 685.19,-597.59 688.57,-600.35 692.11,-602.88"/>
<polygon fill="black" stroke="black" points="690.34,-605.9 700.64,-608.39 694.14,-600.02 690.34,-605.9"/>
</g>
<!-- Node0x558536c9f2c8&#45;&gt;Node0x558536c96bc8 -->
<g id="edge33" class="edge">
<title>Node0x558536c9f2c8&#45;&gt;Node0x558536c96bc8</title>
<path fill="none" stroke="#7fb2ff" d="M317.34,-271.06C302.62,-278.07 289.89,-288.21 281,-302.6 259.97,-336.62 259.97,-358.57 281,-392.6 289.91,-407.02 302.67,-417.17 317.43,-424.17"/>
<polygon fill="#7fb2ff" stroke="#7fb2ff" points="316.28,-427.49 326.86,-428.14 318.99,-421.04 316.28,-427.49"/>
</g>
<!-- Node0x558536c9f2c8&#45;&gt;Node0x558536ca7068 -->
<g id="edge34" class="edge">
<title>Node0x558536c9f2c8&#45;&gt;Node0x558536ca7068</title>
<path fill="none" stroke="#7fb2ff" d="M317.12,-271.82C305.01,-278.35 294.57,-287.36 287,-299.6 278.24,-313.78 278.24,-435.42 287,-449.6 288.61,-452.21 290.36,-454.67 292.22,-456.99"/>
<polygon fill="#7fb2ff" stroke="#7fb2ff" points="289.64,-459.36 298.99,-464.36 294.8,-454.63 289.64,-459.36"/>
</g>
<!-- Node0x558536c9f2c8&#45;&gt;Node0x558536c986f8 -->
<g id="edge35" class="edge">
<title>Node0x558536c9f2c8&#45;&gt;Node0x558536c986f8</title>
<path fill="none" stroke="black" d="M472.5,-248.47C472.5,-233.43 472.5,-218.38 472.5,-203.34"/>
<polygon fill="black" stroke="black" points="476,-202.93 472.5,-192.93 469,-202.93 476,-202.93"/>
</g>
<!-- Node0x558536c97b68 -->
<g id="node18" class="node">
<title>Node0x558536c97b68</title>
<polygon fill="#7fb2ff" stroke="black" points="980.5,-498.6 717.5,-498.6 717.5,-462.6 980.5,-462.6 980.5,-498.6"/>
<text text-anchor="middle" x="849" y="-476.9" font-family="Times,serif" font-size="14.00">{lib/liblldMachO2.a(Writer.cpp.o)}</text>
</g>
<!-- Node0x558536c9f2c8&#45;&gt;Node0x558536c97b68 -->
<g id="edge36" class="edge">
<title>Node0x558536c9f2c8&#45;&gt;Node0x558536c97b68</title>
<path fill="none" stroke="#7fb2ff" d="M627.87,-271.23C634.37,-274.99 640.47,-279.42 646,-284.6 699.21,-334.41 628.94,-394.63 682,-444.6 689.65,-451.8 698.43,-457.52 707.88,-462.04"/>
<polygon fill="#7fb2ff" stroke="#7fb2ff" points="706.55,-465.28 717.12,-466.02 709.32,-458.85 706.55,-465.28"/>
</g>
<!-- Node0x558536c9fa48&#45;&gt;Node0x558536ca7ba8 -->
<g id="edge37" class="edge">
<title>Node0x558536c9fa48&#45;&gt;Node0x558536ca7ba8</title>
<path fill="none" stroke="#7fb2ff" d="M349.47,-588.64C332.1,-584.85 314.79,-579.62 299,-572.6 237.24,-545.15 179.31,-488.7 150.86,-455"/>
<polygon fill="#7fb2ff" stroke="#7fb2ff" points="153.32,-452.48 144.28,-446.96 147.9,-456.91 153.32,-452.48"/>
</g>
<!-- Node0x558536c9fa48&#45;&gt;Node0x558536c96718 -->
<g id="edge38" class="edge">
<title>Node0x558536c9fa48&#45;&gt;Node0x558536c96718</title>
<path fill="none" stroke="#7fb2ff" d="M349.06,-596.32C321.39,-590.81 295.85,-578.63 281,-554.6 257.75,-516.98 257.75,-194.22 281,-156.6 289.09,-143.5 300.36,-133.93 313.41,-127.03"/>
<polygon fill="#7fb2ff" stroke="#7fb2ff" points="315.14,-130.09 322.72,-122.68 312.18,-123.75 315.14,-130.09"/>
</g>
<!-- Node0x558536c9fa48&#45;&gt;Node0x558536c96bc8 -->
<g id="edge39" class="edge">
<title>Node0x558536c9fa48&#45;&gt;Node0x558536c96bc8</title>
<path fill="none" stroke="#7fb2ff" d="M349.06,-596.32C321.39,-590.81 295.85,-578.63 281,-554.6 259.97,-520.57 259.97,-498.62 281,-464.6 289.91,-450.18 302.67,-440.03 317.43,-433.02"/>
<polygon fill="#7fb2ff" stroke="#7fb2ff" points="318.99,-436.16 326.86,-429.06 316.28,-429.71 318.99,-436.16"/>
</g>
<!-- Node0x558536ca5d58&#45;&gt;Node0x558536ca7ba8 -->
<g id="edge40" class="edge">
<title>Node0x558536ca5d58&#45;&gt;Node0x558536ca7ba8</title>
<path fill="none" stroke="#7fb2ff" d="M407.18,-392.66C374.74,-398.64 334.77,-404.9 299,-410.6 290.69,-411.92 282.14,-413.29 273.52,-414.66"/>
<polygon fill="#7fb2ff" stroke="#7fb2ff" points="272.7,-411.25 263.37,-416.27 273.79,-418.16 272.7,-411.25"/>
</g>
<!-- Node0x558536ca5d58&#45;&gt;Node0x558536c96bc8 -->
<g id="edge41" class="edge">
<title>Node0x558536ca5d58&#45;&gt;Node0x558536c96bc8</title>
<path fill="none" stroke="#7fb2ff" d="M369.07,-392.63C356.31,-397.09 353.08,-401.55 359.36,-406.01"/>
<polygon fill="#7fb2ff" stroke="#7fb2ff" points="358.28,-409.37 368.82,-410.48 361.27,-403.04 358.28,-409.37"/>
</g>
<!-- Node0x558536ca5d58&#45;&gt;Node0x558536ca6a78 -->
<g id="edge42" class="edge">
<title>Node0x558536ca5d58&#45;&gt;Node0x558536ca6a78</title>
<path fill="none" stroke="#7fb2ff" d="M472.5,-356.39C472.5,-353.91 472.5,-351.42 472.5,-348.94"/>
<polygon fill="#7fb2ff" stroke="#7fb2ff" points="476,-348.74 472.5,-338.74 469,-348.74 476,-348.74"/>
</g>
<!-- Node0x558536ca6a78&#45;&gt;Node0x558536ca7ba8 -->
<g id="edge43" class="edge">
<title>Node0x558536ca6a78&#45;&gt;Node0x558536ca7ba8</title>
<path fill="none" stroke="#7fb2ff" d="M378.57,-338.61C352.47,-342.99 324.31,-348.66 299,-356.6 259.22,-369.08 217.01,-389.7 185.05,-405.85"/>
<polygon fill="#7fb2ff" stroke="#7fb2ff" points="183.23,-402.84 175.89,-410.48 186.39,-409.09 183.23,-402.84"/>
</g>
<!-- Node0x558536ca6a78&#45;&gt;Node0x558536c96bc8 -->
<g id="edge44" class="edge">
<title>Node0x558536ca6a78&#45;&gt;Node0x558536c96bc8</title>
<path fill="none" stroke="#7fb2ff" d="M332.87,-329.1C287.66,-338.01 253.95,-355.54 275,-389.6 285.08,-405.9 299.9,-417.01 316.98,-424.4"/>
<polygon fill="#7fb2ff" stroke="#7fb2ff" points="316.09,-427.81 326.68,-428.14 318.6,-421.28 316.09,-427.81"/>
</g>
<!-- Node0x558536ca6a78&#45;&gt;Node0x558536c9f2c8 -->
<g id="edge45" class="edge">
<title>Node0x558536ca6a78&#45;&gt;Node0x558536c9f2c8</title>
<path fill="none" stroke="#7fb2ff" d="M472.5,-302.39C472.5,-299.91 472.5,-297.42 472.5,-294.94"/>
<polygon fill="#7fb2ff" stroke="#7fb2ff" points="476,-294.74 472.5,-284.74 469,-294.74 476,-294.74"/>
</g>
<!-- Node0x558536ca7068&#45;&gt;Node0x558536ca7ba8 -->
<g id="edge46" class="edge">
<title>Node0x558536ca7068&#45;&gt;Node0x558536ca7ba8</title>
<path fill="none" stroke="#7fb2ff" d="M299.45,-464.67C299.3,-464.65 299.15,-464.62 299,-464.6 267.56,-459.59 232.8,-453.97 203.21,-448.46"/>
<polygon fill="#7fb2ff" stroke="#7fb2ff" points="203.86,-445.02 193.38,-446.6 202.55,-451.9 203.86,-445.02"/>
</g>
<!-- Node0x558536ca7068&#45;&gt;Node0x558536c96bc8 -->
<g id="edge47" class="edge">
<title>Node0x558536ca7068&#45;&gt;Node0x558536c96bc8</title>
<path fill="none" stroke="#7fb2ff" d="M472.5,-464.39C472.5,-461.91 472.5,-459.42 472.5,-456.94"/>
<polygon fill="#7fb2ff" stroke="#7fb2ff" points="476,-456.74 472.5,-446.74 469,-456.74 476,-456.74"/>
</g>
<!-- Node0x558536ca7068&#45;&gt;Node0x558536c9f2c8 -->
<g id="edge49" class="edge">
<title>Node0x558536ca7068&#45;&gt;Node0x558536c9f2c8</title>
<path fill="none" stroke="#7fb2ff" d="M298.62,-468.28C289.32,-461.82 281.25,-453.71 275,-443.6 266.94,-430.55 266.94,-318.64 275,-305.6 283.29,-292.18 294.79,-282.29 308.12,-275.08"/>
<polygon fill="#7fb2ff" stroke="#7fb2ff" points="309.64,-278.23 317.12,-270.73 306.6,-271.93 309.64,-278.23"/>
</g>
<!-- Node0x558536ca7068&#45;&gt;Node0x558536ca5d58 -->
<g id="edge50" class="edge">
<title>Node0x558536ca7068&#45;&gt;Node0x558536ca5d58</title>
<path fill="none" stroke="#7fb2ff" d="M331.95,-464.55C320.7,-461.95 309.6,-458.98 299,-455.6 290.48,-452.88 285.7,-454.21 281,-446.6 272.59,-432.99 272.59,-424.21 281,-410.6 288.02,-399.24 297.42,-390.54 308.3,-383.93"/>
<polygon fill="#7fb2ff" stroke="#7fb2ff" points="310.19,-386.89 317.34,-379.06 306.87,-380.72 310.19,-386.89"/>
</g>
<!-- Node0x558536ca7068&#45;&gt;Node0x558536c986f8 -->
<g id="edge53" class="edge">
<title>Node0x558536ca7068&#45;&gt;Node0x558536c986f8</title>
<path fill="none" stroke="black" d="M298.84,-466.67C291.94,-461.14 285.89,-454.51 281,-446.6 257.87,-409.17 257.87,-286.03 281,-248.6 296.34,-223.78 321.44,-207.27 348.5,-196.29"/>
<polygon fill="black" stroke="black" points="350.04,-199.45 358.14,-192.63 347.55,-192.91 350.04,-199.45"/>
</g>
<!-- Node0x558536ca7068&#45;&gt;Node0x558536c9e4b8 -->
<g id="edge48" class="edge">
<title>Node0x558536ca7068&#45;&gt;Node0x558536c9e4b8</title>
<path fill="none" stroke="black" d="M632.8,-500.74C637.4,-503.39 641.82,-506.33 646,-509.6 678.34,-534.84 650.11,-568.79 682,-594.6 686.1,-597.92 690.45,-600.93 694.98,-603.66"/>
<polygon fill="black" stroke="black" points="693.46,-606.82 703.91,-608.57 696.83,-600.68 693.46,-606.82"/>
</g>
<!-- Node0x558536ca72e8 -->
<g id="node19" class="node">
<title>Node0x558536ca72e8</title>
<polygon fill="#7fb2ff" stroke="black" points="1015,-238.6 683,-238.6 683,-202.6 1015,-202.6 1015,-238.6"/>
<text text-anchor="middle" x="849" y="-216.9" font-family="Times,serif" font-size="14.00">{lib/liblldMachO2.a(OutputSegment.cpp.o)}</text>
</g>
<!-- Node0x558536ca7068&#45;&gt;Node0x558536ca72e8 -->
<g id="edge51" class="edge">
<title>Node0x558536ca7068&#45;&gt;Node0x558536ca72e8</title>
<path fill="none" stroke="#7fb2ff" d="M630.05,-464.5C635.58,-461.86 640.92,-458.91 646,-455.6 670.79,-439.45 663.87,-422.98 682,-399.6 727.27,-341.21 787.86,-279.34 821.91,-245.81"/>
<polygon fill="#7fb2ff" stroke="#7fb2ff" points="824.47,-248.2 829.16,-238.7 819.57,-243.2 824.47,-248.2"/>
</g>
<!-- Node0x558536ca2e28 -->
<g id="node20" class="node">
<title>Node0x558536ca2e28</title>
<polygon fill="none" stroke="black" points="1010,-736.6 688,-736.6 688,-700.6 1010,-700.6 1010,-736.6"/>
<text text-anchor="middle" x="849" y="-714.9" font-family="Times,serif" font-size="14.00">{lib/liblldMachO2.a(OutputSection.cpp.o)}</text>
</g>
<!-- Node0x558536ca7068&#45;&gt;Node0x558536ca2e28 -->
<g id="edge52" class="edge">
<title>Node0x558536ca7068&#45;&gt;Node0x558536ca2e28</title>
<path fill="none" stroke="black" d="M635.19,-500.72C638.99,-503.4 642.6,-506.35 646,-509.6 704.04,-565.06 624.95,-630.12 682,-686.6 684.97,-689.53 688.11,-692.24 691.42,-694.74"/>
<polygon fill="black" stroke="black" points="689.68,-697.79 699.92,-700.52 693.62,-692 689.68,-697.79"/>
</g>
<!-- Node0x558536c94fa8&#45;&gt;Node0x558536ca5b78 -->
<g id="edge54" class="edge">
<title>Node0x558536c94fa8&#45;&gt;Node0x558536ca5b78</title>
<path fill="none" stroke="#7fb2ff" d="M681.98,-756.63C675.01,-751.14 668.9,-744.53 664,-736.6 647.99,-710.7 647.99,-488.5 664,-462.6 670.59,-451.94 679.34,-443.67 689.46,-437.3"/>
<polygon fill="#7fb2ff" stroke="#7fb2ff" points="691.24,-440.32 698.27,-432.39 687.83,-434.21 691.24,-440.32"/>
</g>
<!-- Node0x558536ca5b78&#45;&gt;Node0x558536c9f2c8 -->
<g id="edge55" class="edge">
<title>Node0x558536ca5b78&#45;&gt;Node0x558536c9f2c8</title>
<path fill="none" stroke="#7fb2ff" d="M827.29,-408.52C792.47,-379.2 718.85,-321.75 646,-293.6 640.38,-291.43 634.6,-289.43 628.71,-287.6"/>
<polygon fill="#7fb2ff" stroke="#7fb2ff" points="629.29,-284.12 618.71,-284.66 627.32,-290.83 629.29,-284.12"/>
</g>
<!-- Node0x558536ca5b78&#45;&gt;Node0x558536ca6a78 -->
<g id="edge56" class="edge">
<title>Node0x558536ca5b78&#45;&gt;Node0x558536ca6a78</title>
<path fill="none" stroke="#7fb2ff" d="M809.37,-408.57C769.33,-390.59 704.53,-363.42 646,-347.6 636.88,-345.13 627.42,-342.87 617.84,-340.79"/>
<polygon fill="#7fb2ff" stroke="#7fb2ff" points="618.33,-337.32 607.83,-338.69 616.9,-344.17 618.33,-337.32"/>
</g>
<!-- Node0x558536ca5b78&#45;&gt;Node0x558536c986f8 -->
<g id="edge57" class="edge">
<title>Node0x558536ca5b78&#45;&gt;Node0x558536c986f8</title>
<path fill="none" stroke="black" d="M832.8,-408.43C801.37,-371.87 725.47,-288.72 646,-239.6 616.02,-221.07 579.92,-206.46 548.51,-195.82"/>
<polygon fill="black" stroke="black" points="549.52,-192.46 538.92,-192.64 547.32,-199.11 549.52,-192.46"/>
</g>
<!-- Node0x558536ca0218&#45;&gt;Node0x558536c986f8 -->
<g id="edge58" class="edge">
<title>Node0x558536ca0218&#45;&gt;Node0x558536c986f8</title>
<path fill="none" stroke="black" d="M723.47,-108.7C709.22,-112.49 695.12,-117.07 682,-122.6 664.05,-130.16 664.08,-140.35 646,-147.6 636.09,-151.57 625.64,-154.96 614.99,-157.85"/>
<polygon fill="black" stroke="black" points="613.98,-154.5 605.16,-160.37 615.72,-161.28 613.98,-154.5"/>
</g>
<!-- Node0x558536c97b68&#45;&gt;Node0x558536ca7ba8 -->
<g id="edge59" class="edge">
<title>Node0x558536c97b68&#45;&gt;Node0x558536ca7ba8</title>
<path fill="none" stroke="#7fb2ff" d="M717.17,-487.51C704.36,-492.26 692.32,-498.77 682,-507.6 642.92,-541.05 687.65,-587.41 646,-617.6 583.57,-662.86 369.27,-649.34 299,-617.6 224.75,-584.05 170.38,-499.22 146.28,-455.52"/>
<polygon fill="#7fb2ff" stroke="#7fb2ff" points="149.3,-453.74 141.47,-446.6 143.14,-457.07 149.3,-453.74"/>
</g>
<!-- Node0x558536c97b68&#45;&gt;Node0x558536c96bc8 -->
<g id="edge60" class="edge">
<title>Node0x558536c97b68&#45;&gt;Node0x558536c96bc8</title>
<path fill="none" stroke="#7fb2ff" d="M718.13,-462.57C684.26,-457.86 647.62,-452.78 613.27,-448.01"/>
<polygon fill="#7fb2ff" stroke="#7fb2ff" points="613.55,-444.51 603.17,-446.6 612.59,-451.45 613.55,-444.51"/>
</g>
<!-- Node0x558536c97b68&#45;&gt;Node0x558536c9f2c8 -->
<g id="edge61" class="edge">
<title>Node0x558536c97b68&#45;&gt;Node0x558536c9f2c8</title>
<path fill="none" stroke="#7fb2ff" d="M717.12,-483.91C704.16,-479.02 692.1,-472.11 682,-462.6 628.94,-412.63 699.21,-352.41 646,-302.6 640.52,-297.47 634.49,-293.08 628.07,-289.33"/>
<polygon fill="#7fb2ff" stroke="#7fb2ff" points="629.55,-286.16 619.07,-284.6 626.29,-292.35 629.55,-286.16"/>
</g>
<!-- Node0x558536c97b68&#45;&gt;Node0x558536ca5d58 -->
<g id="edge63" class="edge">
<title>Node0x558536c97b68&#45;&gt;Node0x558536ca5d58</title>
<path fill="none" stroke="#7fb2ff" d="M717.37,-469.83C704.9,-465.76 692.86,-460.46 682,-453.6 658.23,-438.59 669.81,-416.54 646,-401.6 643.02,-399.73 639.96,-397.97 636.82,-396.33"/>
<polygon fill="#7fb2ff" stroke="#7fb2ff" points="638.34,-393.17 627.82,-391.96 635.29,-399.47 638.34,-393.17"/>
</g>
<!-- Node0x558536c97b68&#45;&gt;Node0x558536ca7068 -->
<g id="edge64" class="edge">
<title>Node0x558536c97b68&#45;&gt;Node0x558536ca7068</title>
<path fill="none" stroke="#7fb2ff" d="M717.25,-481.3C697.53,-481.4 676.89,-481.51 656.31,-481.62"/>
<polygon fill="#7fb2ff" stroke="#7fb2ff" points="656.21,-478.12 646.23,-481.68 656.24,-485.12 656.21,-478.12"/>
</g>
<!-- Node0x558536c97b68&#45;&gt;Node0x558536c986f8 -->
<g id="edge66" class="edge">
<title>Node0x558536c97b68&#45;&gt;Node0x558536c986f8</title>
<path fill="none" stroke="black" d="M717.41,-475.82C704.23,-470.76 692.04,-463.58 682,-453.6 613.62,-385.58 707.28,-314.07 646,-239.6 629.57,-219.64 606.34,-205.8 582.23,-196.21"/>
<polygon fill="black" stroke="black" points="583.19,-192.83 572.59,-192.61 580.74,-199.39 583.19,-192.83"/>
</g>
<!-- Node0x558536c97b68&#45;&gt;Node0x558536ca5b78 -->
<g id="edge62" class="edge">
<title>Node0x558536c97b68&#45;&gt;Node0x558536ca5b78</title>
<path fill="none" stroke="#7fb2ff" d="M849,-462.39C849,-459.91 849,-457.42 849,-454.94"/>
<polygon fill="#7fb2ff" stroke="#7fb2ff" points="852.5,-454.74 849,-444.74 845.5,-454.74 852.5,-454.74"/>
</g>
<!-- Node0x558536c97b68&#45;&gt;Node0x558536ca72e8 -->
<g id="edge65" class="edge">
<title>Node0x558536c97b68&#45;&gt;Node0x558536ca72e8</title>
<path fill="none" stroke="#7fb2ff" d="M717.47,-482.19C695.61,-475.77 676.13,-464.22 664,-444.6 614.64,-364.73 734.87,-282.58 804.16,-243.69"/>
<polygon fill="#7fb2ff" stroke="#7fb2ff" points="806.11,-246.62 813.17,-238.72 802.72,-240.49 806.11,-246.62"/>
</g>
<!-- Node0x558536c99878 -->
<g id="node21" class="node">
<title>Node0x558536c99878</title>
<polygon fill="#7fb2ff" stroke="black" points="1418,-498.6 1063,-498.6 1063,-462.6 1418,-462.6 1418,-498.6"/>
<text text-anchor="middle" x="1240.5" y="-476.9" font-family="Times,serif" font-size="14.00">{lib/liblldMachO2.a(UnwindInfoSection.cpp.o)}</text>
</g>
<!-- Node0x558536c97b68&#45;&gt;Node0x558536c99878 -->
<g id="edge67" class="edge">
<title>Node0x558536c97b68&#45;&gt;Node0x558536c99878</title>
<path fill="none" stroke="#7fb2ff" d="M980.51,-480.6C1003.73,-480.6 1028.32,-480.6 1052.75,-480.6"/>
<polygon fill="#7fb2ff" stroke="#7fb2ff" points="1052.83,-484.1 1062.83,-480.6 1052.83,-477.1 1052.83,-484.1"/>
</g>
<!-- Node0x558536c99aa8 -->
<g id="node22" class="node">
<title>Node0x558536c99aa8</title>
<polygon fill="none" stroke="black" points="1429,-552.6 1052,-552.6 1052,-516.6 1429,-516.6 1429,-552.6"/>
<text text-anchor="middle" x="1240.5" y="-530.9" font-family="Times,serif" font-size="14.00">{lib/liblldMachO2.a(MergedOutputSection.cpp.o)}</text>
</g>
<!-- Node0x558536c97b68&#45;&gt;Node0x558536c99aa8 -->
<g id="edge68" class="edge">
<title>Node0x558536c97b68&#45;&gt;Node0x558536c99aa8</title>
<path fill="none" stroke="black" d="M979.97,-498.62C1018.25,-503.92 1060.3,-509.75 1099.2,-515.15"/>
<polygon fill="black" stroke="black" points="1099.16,-518.67 1109.54,-516.58 1100.12,-511.74 1099.16,-518.67"/>
</g>
<!-- Node0x558536c99328 -->
<g id="node23" class="node">
<title>Node0x558536c99328</title>
<polygon fill="#7fb2ff" stroke="black" points="1379,-280.6 1102,-280.6 1102,-244.6 1379,-244.6 1379,-280.6"/>
<text text-anchor="middle" x="1240.5" y="-258.9" font-family="Times,serif" font-size="14.00">{lib/liblldMachO2.a(MapFile.cpp.o)}</text>
</g>
<!-- Node0x558536c97b68&#45;&gt;Node0x558536c99328 -->
<g id="edge69" class="edge">
<title>Node0x558536c97b68&#45;&gt;Node0x558536c99328</title>
<path fill="none" stroke="#7fb2ff" d="M980.74,-466.35C992.93,-462.95 1004.87,-458.76 1016,-453.6 1102.35,-413.56 1181.49,-330.5 1218.11,-288.35"/>
<polygon fill="#7fb2ff" stroke="#7fb2ff" points="1220.79,-290.59 1224.65,-280.73 1215.48,-286.03 1220.79,-290.59"/>
</g>
<!-- Node0x558536ca72e8&#45;&gt;Node0x558536ca7ba8 -->
<g id="edge70" class="edge">
<title>Node0x558536ca72e8&#45;&gt;Node0x558536ca7ba8</title>
<path fill="none" stroke="#7fb2ff" d="M682.92,-212.14C546.38,-207.73 364.64,-208.57 299,-239.6 225.52,-274.33 170.97,-358.26 146.6,-401.63"/>
<polygon fill="#7fb2ff" stroke="#7fb2ff" points="143.48,-400.04 141.73,-410.49 149.61,-403.42 143.48,-400.04"/>
</g>
<!-- Node0x558536c99878&#45;&gt;Node0x558536c96bc8 -->
<g id="edge71" class="edge">
<title>Node0x558536c99878&#45;&gt;Node0x558536c96bc8</title>
<path fill="none" stroke="#7fb2ff" d="M1068.53,-498.6C1062.82,-501.28 1057.28,-504.26 1052,-507.6 1027.61,-522.99 1041.43,-547.99 1016,-561.6 950.56,-596.62 742.33,-604.83 682,-561.6 641.56,-532.62 684.08,-487.63 646,-455.6 640.26,-450.77 634.02,-446.62 627.42,-443.07"/>
<polygon fill="#7fb2ff" stroke="#7fb2ff" points="628.75,-439.82 618.22,-438.58 625.68,-446.11 628.75,-439.82"/>
</g>
<!-- Node0x558536c99878&#45;&gt;Node0x558536c9f2c8 -->
<g id="edge72" class="edge">
<title>Node0x558536c99878&#45;&gt;Node0x558536c9f2c8</title>
<path fill="none" stroke="#7fb2ff" d="M1211.03,-462.59C1169.67,-437.21 1089.8,-391.18 1016,-365.6 857.71,-310.73 811.01,-322.56 646,-293.6 631.93,-291.13 617.2,-288.65 602.52,-286.26"/>
<polygon fill="#7fb2ff" stroke="#7fb2ff" points="602.8,-282.76 592.37,-284.61 601.68,-289.67 602.8,-282.76"/>
</g>
<!-- Node0x558536c99878&#45;&gt;Node0x558536ca5d58 -->
<g id="edge73" class="edge">
<title>Node0x558536c99878&#45;&gt;Node0x558536ca5d58</title>
<path fill="none" stroke="#7fb2ff" d="M1200.96,-462.57C1157.22,-443.08 1083.19,-413 1016,-399.6 890.7,-374.61 746.03,-369.07 637.61,-369.39"/>
<polygon fill="#7fb2ff" stroke="#7fb2ff" points="637.55,-365.89 627.57,-369.44 637.58,-372.89 637.55,-365.89"/>
</g>
<!-- Node0x558536c99878&#45;&gt;Node0x558536ca7068 -->
<g id="edge74" class="edge">
<title>Node0x558536c99878&#45;&gt;Node0x558536ca7068</title>
<path fill="none" stroke="#7fb2ff" d="M1063.17,-498.8C1059.27,-501.47 1055.53,-504.4 1052,-507.6 1002.47,-552.47 1068.61,-612.38 1016,-653.6 957.57,-699.37 740.5,-699.28 682,-653.6 630,-613 694.69,-554.11 646,-509.6 644.99,-508.68 643.97,-507.78 642.93,-506.91"/>
<polygon fill="#7fb2ff" stroke="#7fb2ff" points="644.72,-503.88 634.62,-500.67 640.51,-509.47 644.72,-503.88"/>
</g>
<!-- Node0x558536c99878&#45;&gt;Node0x558536c986f8 -->
<g id="edge75" class="edge">
<title>Node0x558536c99878&#45;&gt;Node0x558536c986f8</title>
<path fill="none" stroke="black" d="M1216.16,-462.42C1177.22,-431.01 1098.7,-362.87 1052,-289.6 1027.51,-251.17 1052.99,-220.21 1016,-193.6 954.24,-149.17 754.58,-153.23 615.54,-162.28"/>
<polygon fill="black" stroke="black" points="614.97,-158.81 605.22,-162.97 615.43,-165.8 614.97,-158.81"/>
</g>
<!-- Node0x558536c99328&#45;&gt;Node0x558536ca7ba8 -->
<g id="edge76" class="edge">
<title>Node0x558536c99328&#45;&gt;Node0x558536ca7ba8</title>
<path fill="none" stroke="#7fb2ff" d="M1226.73,-244.44C1196.12,-202.74 1113.84,-100.84 1016,-63.6 866.96,-6.86 431.17,-4.36 299,-93.6 190.14,-167.1 149.37,-333.54 137.04,-400.21"/>
<polygon fill="#7fb2ff" stroke="#7fb2ff" points="133.54,-399.92 135.24,-410.38 140.43,-401.14 133.54,-399.92"/>
</g>
<!-- Node0x558536c99328&#45;&gt;Node0x558536c96bc8 -->
<g id="edge77" class="edge">
<title>Node0x558536c99328&#45;&gt;Node0x558536c96bc8</title>
<path fill="none" stroke="#7fb2ff" d="M1169.97,-280.67C1059.5,-308.97 836.86,-364.37 646,-401.6 633.2,-404.1 619.83,-406.52 606.44,-408.82"/>
<polygon fill="#7fb2ff" stroke="#7fb2ff" points="605.48,-405.43 596.2,-410.55 606.65,-412.33 605.48,-405.43"/>
</g>
<!-- Node0x558536c99328&#45;&gt;Node0x558536c9f2c8 -->
<g id="edge78" class="edge">
<title>Node0x558536c99328&#45;&gt;Node0x558536c9f2c8</title>
<path fill="none" stroke="#7fb2ff" d="M1195.05,-244.53C1150.6,-227.51 1079.85,-203.23 1016,-193.6 869.22,-171.46 828.34,-168.72 682,-193.6 652.16,-198.67 579.87,-225.24 528.81,-244.86"/>
<polygon fill="#7fb2ff" stroke="#7fb2ff" points="527.28,-241.7 519.21,-248.56 529.8,-248.23 527.28,-241.7"/>
</g>
<!-- Node0x558536c99328&#45;&gt;Node0x558536ca6a78 -->
<g id="edge79" class="edge">
<title>Node0x558536c99328&#45;&gt;Node0x558536ca6a78</title>
<path fill="none" stroke="#7fb2ff" d="M1101.82,-273.02C966.74,-283.25 761.36,-298.8 622.51,-309.32"/>
<polygon fill="#7fb2ff" stroke="#7fb2ff" points="621.92,-305.85 612.22,-310.09 622.45,-312.83 621.92,-305.85"/>
</g>
<!-- Node0x558536c99328&#45;&gt;Node0x558536ca72e8 -->
<g id="edge80" class="edge">
<title>Node0x558536c99328&#45;&gt;Node0x558536ca72e8</title>
<path fill="none" stroke="#7fb2ff" d="M1101.99,-247.77C1077.21,-245.1 1051.07,-242.28 1025.38,-239.51"/>
<polygon fill="#7fb2ff" stroke="#7fb2ff" points="1025.5,-236 1015.18,-238.41 1024.75,-242.96 1025.5,-236"/>
</g>
</g>
</svg>
