<?xml version="1.0" encoding="UTF-8" standalone="no"?>
<!DOCTYPE svg PUBLIC "-//W3C//DTD SVG 1.1//EN"
 "http://www.w3.org/Graphics/SVG/1.1/DTD/svg11.dtd">
<!-- Generated by graphviz version 2.43.0 (0)
 -->
<!-- Title: lib/libLTO.so.13git_lib/libLLVMAsmPrinter.a Pages: 1 -->
<svg width="3449pt" height="1475pt"
 viewBox="0.00 0.00 3449.00 1474.73" xmlns="http://www.w3.org/2000/svg" xmlns:xlink="http://www.w3.org/1999/xlink">
<g id="graph0" class="graph" transform="scale(1 1) rotate(0) translate(4 1470.73)">
<title>lib/libLTO.so.13git_lib/libLLVMAsmPrinter.a</title>
<polygon fill="white" stroke="transparent" points="-4,4 -4,-1470.73 3445,-1470.73 3445,4 -4,4"/>
<text text-anchor="middle" x="1720.5" y="-7.8" font-family="Times,serif" font-size="14.00">lib/libLTO.so.13git_lib/libLLVMAsmPrinter.a</text>
<!-- Node0x55fa1f74ce48 -->
<g id="node1" class="node">
<title>Node0x55fa1f74ce48</title>
<polygon fill="#7fb2ff" stroke="black" points="415,-1074.73 0,-1074.73 0,-1038.73 415,-1038.73 415,-1074.73"/>
<text text-anchor="middle" x="207.5" y="-1053.03" font-family="Times,serif" font-size="14.00">{lib/libLLVMAsmPrinter.a(AsmPrinterInlineAsm.cpp.o)}</text>
</g>
<!-- Node0x55fa1f753928 -->
<g id="node2" class="node">
<title>Node0x55fa1f753928</title>
<polygon fill="#7fb2ff" stroke="black" points="793,-1074.73 451,-1074.73 451,-1038.73 793,-1038.73 793,-1074.73"/>
<text text-anchor="middle" x="622" y="-1053.03" font-family="Times,serif" font-size="14.00">{lib/libLLVMAsmPrinter.a(AsmPrinter.cpp.o)}</text>
</g>
<!-- Node0x55fa1f74ce48&#45;&gt;Node0x55fa1f753928 -->
<g id="edge1" class="edge">
<title>Node0x55fa1f74ce48&#45;&gt;Node0x55fa1f753928</title>
<path fill="none" stroke="#7fb2ff" d="M415.05,-1049.98C423.56,-1049.98 432.07,-1049.99 440.53,-1050.02"/>
<polygon fill="#7fb2ff" stroke="#7fb2ff" points="440.79,-1053.52 450.8,-1050.07 440.82,-1046.52 440.79,-1053.52"/>
</g>
<!-- Node0x55fa1f753928&#45;&gt;Node0x55fa1f74ce48 -->
<g id="edge2" class="edge">
<title>Node0x55fa1f753928&#45;&gt;Node0x55fa1f74ce48</title>
<path fill="none" stroke="#7fb2ff" d="M450.8,-1063.38C442.32,-1063.43 433.75,-1063.45 425.15,-1063.47"/>
<polygon fill="#7fb2ff" stroke="#7fb2ff" points="425.05,-1059.97 415.05,-1063.48 425.05,-1066.97 425.05,-1059.97"/>
</g>
<!-- Node0x55fa1f74c538 -->
<g id="node3" class="node">
<title>Node0x55fa1f74c538</title>
<polygon fill="#7fb2ff" stroke="black" points="1232,-1358.73 830,-1358.73 830,-1322.73 1232,-1322.73 1232,-1358.73"/>
<text text-anchor="middle" x="1031" y="-1337.03" font-family="Times,serif" font-size="14.00">{lib/libLLVMAsmPrinter.a(DwarfCFIException.cpp.o)}</text>
</g>
<!-- Node0x55fa1f753928&#45;&gt;Node0x55fa1f74c538 -->
<g id="edge3" class="edge">
<title>Node0x55fa1f753928&#45;&gt;Node0x55fa1f74c538</title>
<path fill="none" stroke="#7fb2ff" d="M633.58,-1074.74C659.01,-1122 728.93,-1248.18 829,-1304.73 839.76,-1310.81 851.36,-1315.73 863.35,-1319.72"/>
<polygon fill="#7fb2ff" stroke="#7fb2ff" points="862.45,-1323.1 873.04,-1322.72 864.52,-1316.42 862.45,-1323.1"/>
</g>
<!-- Node0x55fa1f74bc78 -->
<g id="node4" class="node">
<title>Node0x55fa1f74bc78</title>
<polygon fill="#7fb2ff" stroke="black" points="1207,-706.73 855,-706.73 855,-670.73 1207,-670.73 1207,-706.73"/>
<text text-anchor="middle" x="1031" y="-685.03" font-family="Times,serif" font-size="14.00">{lib/libLLVMAsmPrinter.a(DwarfDebug.cpp.o)}</text>
</g>
<!-- Node0x55fa1f753928&#45;&gt;Node0x55fa1f74bc78 -->
<g id="edge4" class="edge">
<title>Node0x55fa1f753928&#45;&gt;Node0x55fa1f74bc78</title>
<path fill="none" stroke="#7fb2ff" d="M632.68,-1038.53C660.15,-994.46 742.23,-881.84 829,-806.73 873.34,-768.34 930.37,-733.45 972.35,-711.53"/>
<polygon fill="#7fb2ff" stroke="#7fb2ff" points="974.04,-714.6 981.34,-706.92 970.85,-708.37 974.04,-714.6"/>
</g>
<!-- Node0x55fa1f7546e8 -->
<g id="node5" class="node">
<title>Node0x55fa1f7546e8</title>
<polygon fill="#7fb2ff" stroke="black" points="1210,-1412.73 852,-1412.73 852,-1376.73 1210,-1376.73 1210,-1412.73"/>
<text text-anchor="middle" x="1031" y="-1391.03" font-family="Times,serif" font-size="14.00">{lib/libLLVMAsmPrinter.a(AIXException.cpp.o)}</text>
</g>
<!-- Node0x55fa1f753928&#45;&gt;Node0x55fa1f7546e8 -->
<g id="edge5" class="edge">
<title>Node0x55fa1f753928&#45;&gt;Node0x55fa1f7546e8</title>
<path fill="none" stroke="#7fb2ff" d="M630.42,-1074.87C651.13,-1128.91 715.67,-1287.73 829,-1358.73 838.25,-1364.52 848.21,-1369.31 858.57,-1373.26"/>
<polygon fill="#7fb2ff" stroke="#7fb2ff" points="857.6,-1376.63 868.19,-1376.67 859.93,-1370.03 857.6,-1376.63"/>
</g>
<!-- Node0x55fa1f754f58 -->
<g id="node6" class="node">
<title>Node0x55fa1f754f58</title>
<polygon fill="#7fb2ff" stroke="black" points="1215,-1466.73 847,-1466.73 847,-1430.73 1215,-1430.73 1215,-1466.73"/>
<text text-anchor="middle" x="1031" y="-1445.03" font-family="Times,serif" font-size="14.00">{lib/libLLVMAsmPrinter.a(ARMException.cpp.o)}</text>
</g>
<!-- Node0x55fa1f753928&#45;&gt;Node0x55fa1f754f58 -->
<g id="edge6" class="edge">
<title>Node0x55fa1f753928&#45;&gt;Node0x55fa1f754f58</title>
<path fill="none" stroke="#7fb2ff" d="M628.19,-1075.08C644.64,-1135.41 702.18,-1326.84 829,-1412.73 837.31,-1418.35 846.26,-1423.06 855.6,-1427"/>
<polygon fill="#7fb2ff" stroke="#7fb2ff" points="854.48,-1430.32 865.07,-1430.68 857.02,-1423.79 854.48,-1430.32"/>
</g>
<!-- Node0x55fa1f755778 -->
<g id="node7" class="node">
<title>Node0x55fa1f755778</title>
<polygon fill="#7fb2ff" stroke="black" points="1224,-286.73 838,-286.73 838,-250.73 1224,-250.73 1224,-286.73"/>
<text text-anchor="middle" x="1031" y="-265.03" font-family="Times,serif" font-size="14.00">{lib/libLLVMAsmPrinter.a(AsmPrinterDwarf.cpp.o)}</text>
</g>
<!-- Node0x55fa1f753928&#45;&gt;Node0x55fa1f755778 -->
<g id="edge7" class="edge">
<title>Node0x55fa1f753928&#45;&gt;Node0x55fa1f755778</title>
<path fill="none" stroke="#7fb2ff" d="M625,-1038.51C637.79,-932.38 711.55,-397.11 829,-291.73 829.26,-291.49 829.52,-291.26 829.78,-291.03"/>
<polygon fill="#7fb2ff" stroke="#7fb2ff" points="832.01,-293.73 837.61,-284.73 827.62,-288.28 832.01,-293.73"/>
</g>
<!-- Node0x55fa1f759ff8 -->
<g id="node8" class="node">
<title>Node0x55fa1f759ff8</title>
<polygon fill="#7fb2ff" stroke="black" points="1206,-1250.73 856,-1250.73 856,-1214.73 1206,-1214.73 1206,-1250.73"/>
<text text-anchor="middle" x="1031" y="-1229.03" font-family="Times,serif" font-size="14.00">{lib/libLLVMAsmPrinter.a(EHStreamer.cpp.o)}</text>
</g>
<!-- Node0x55fa1f753928&#45;&gt;Node0x55fa1f759ff8 -->
<g id="edge8" class="edge">
<title>Node0x55fa1f753928&#45;&gt;Node0x55fa1f759ff8</title>
<path fill="none" stroke="#7fb2ff" d="M648.97,-1074.86C685.92,-1104.7 757.19,-1162.71 829,-1191.73 852.57,-1201.25 878.77,-1207.95 904.26,-1212.86"/>
<polygon fill="#7fb2ff" stroke="#7fb2ff" points="903.89,-1216.35 914.36,-1214.72 905.16,-1209.46 903.89,-1216.35"/>
</g>
<!-- Node0x55fa1f75a688 -->
<g id="node9" class="node">
<title>Node0x55fa1f75a688</title>
<polygon fill="#7fb2ff" stroke="black" points="1233,-914.73 829,-914.73 829,-878.73 1233,-878.73 1233,-914.73"/>
<text text-anchor="middle" x="1031" y="-893.03" font-family="Times,serif" font-size="14.00">{lib/libLLVMAsmPrinter.a(PseudoProbePrinter.cpp.o)}</text>
</g>
<!-- Node0x55fa1f753928&#45;&gt;Node0x55fa1f75a688 -->
<g id="edge9" class="edge">
<title>Node0x55fa1f753928&#45;&gt;Node0x55fa1f75a688</title>
<path fill="none" stroke="#7fb2ff" d="M638.9,-1038.72C672,-1008.27 751.67,-948.56 829,-919.73 830.62,-919.12 832.26,-918.53 833.9,-917.95"/>
<polygon fill="#7fb2ff" stroke="#7fb2ff" points="835.06,-921.25 843.42,-914.73 832.83,-914.61 835.06,-921.25"/>
</g>
<!-- Node0x55fa1f759968 -->
<g id="node10" class="node">
<title>Node0x55fa1f759968</title>
<polygon fill="#7fb2ff" stroke="black" points="1208,-860.73 854,-860.73 854,-824.73 1208,-824.73 1208,-860.73"/>
<text text-anchor="middle" x="1031" y="-839.03" font-family="Times,serif" font-size="14.00">{lib/libLLVMAsmPrinter.a(WinCFGuard.cpp.o)}</text>
</g>
<!-- Node0x55fa1f753928&#45;&gt;Node0x55fa1f759968 -->
<g id="edge10" class="edge">
<title>Node0x55fa1f753928&#45;&gt;Node0x55fa1f759968</title>
<path fill="none" stroke="#7fb2ff" d="M633.18,-1038.6C660.37,-998.2 738.78,-902.68 829,-860.73 833.99,-858.41 839.12,-856.27 844.35,-854.3"/>
<polygon fill="#7fb2ff" stroke="#7fb2ff" points="845.6,-857.57 853.87,-850.94 843.28,-850.97 845.6,-857.57"/>
</g>
<!-- Node0x55fa1f758d88 -->
<g id="node11" class="node">
<title>Node0x55fa1f758d88</title>
<polygon fill="#7fb2ff" stroke="black" points="1211.5,-1304.73 850.5,-1304.73 850.5,-1268.73 1211.5,-1268.73 1211.5,-1304.73"/>
<text text-anchor="middle" x="1031" y="-1283.03" font-family="Times,serif" font-size="14.00">{lib/libLLVMAsmPrinter.a(WinException.cpp.o)}</text>
</g>
<!-- Node0x55fa1f753928&#45;&gt;Node0x55fa1f758d88 -->
<g id="edge11" class="edge">
<title>Node0x55fa1f753928&#45;&gt;Node0x55fa1f758d88</title>
<path fill="none" stroke="#7fb2ff" d="M638.72,-1074.97C669.47,-1114.84 742.21,-1208.18 829,-1250.73 841.97,-1257.08 855.95,-1262.1 870.28,-1266.07"/>
<polygon fill="#7fb2ff" stroke="#7fb2ff" points="869.68,-1269.54 880.24,-1268.66 871.44,-1262.76 869.68,-1269.54"/>
</g>
<!-- Node0x55fa1f7581a8 -->
<g id="node12" class="node">
<title>Node0x55fa1f7581a8</title>
<polygon fill="#7fb2ff" stroke="black" points="1220.5,-1120.73 841.5,-1120.73 841.5,-1084.73 1220.5,-1084.73 1220.5,-1120.73"/>
<text text-anchor="middle" x="1031" y="-1099.03" font-family="Times,serif" font-size="14.00">{lib/libLLVMAsmPrinter.a(CodeViewDebug.cpp.o)}</text>
</g>
<!-- Node0x55fa1f753928&#45;&gt;Node0x55fa1f7581a8 -->
<g id="edge12" class="edge">
<title>Node0x55fa1f753928&#45;&gt;Node0x55fa1f7581a8</title>
<path fill="none" stroke="#7fb2ff" d="M793.25,-1069.3C833.84,-1073.69 876.24,-1078.65 913.77,-1083.42"/>
<polygon fill="#7fb2ff" stroke="#7fb2ff" points="913.34,-1086.9 923.71,-1084.7 914.23,-1079.95 913.34,-1086.9"/>
</g>
<!-- Node0x55fa1f74c538&#45;&gt;Node0x55fa1f753928 -->
<g id="edge15" class="edge">
<title>Node0x55fa1f74c538&#45;&gt;Node0x55fa1f753928</title>
<path fill="none" stroke="#7fb2ff" d="M829.92,-1323.24C829.61,-1323.07 829.31,-1322.9 829,-1322.73 728.97,-1266.2 659.05,-1140.08 633.61,-1084.08"/>
<polygon fill="#7fb2ff" stroke="#7fb2ff" points="636.75,-1082.52 629.51,-1074.79 630.34,-1085.35 636.75,-1082.52"/>
</g>
<!-- Node0x55fa1f74c538&#45;&gt;Node0x55fa1f759ff8 -->
<g id="edge16" class="edge">
<title>Node0x55fa1f74c538&#45;&gt;Node0x55fa1f759ff8</title>
<path fill="none" stroke="#7fb2ff" d="M834.1,-1322.64C807.89,-1311.72 794.89,-1294.79 811,-1268.73 819.97,-1254.21 832.38,-1243.62 846.78,-1236.05"/>
<polygon fill="#7fb2ff" stroke="#7fb2ff" points="848.43,-1239.14 855.98,-1231.71 845.45,-1232.81 848.43,-1239.14"/>
</g>
<!-- Node0x55fa1f74bc78&#45;&gt;Node0x55fa1f753928 -->
<g id="edge23" class="edge">
<title>Node0x55fa1f74bc78&#45;&gt;Node0x55fa1f753928</title>
<path fill="none" stroke="#7fb2ff" d="M1005.2,-706.88C965.57,-730.92 886.58,-774.88 829,-824.73 753,-890.52 680.59,-985.09 645.33,-1030.63"/>
<polygon fill="#7fb2ff" stroke="#7fb2ff" points="642.56,-1028.5 639.19,-1038.55 648.09,-1032.79 642.56,-1028.5"/>
</g>
<!-- Node0x55fa1f74bc78&#45;&gt;Node0x55fa1f755778 -->
<g id="edge24" class="edge">
<title>Node0x55fa1f74bc78&#45;&gt;Node0x55fa1f755778</title>
<path fill="none" stroke="#7fb2ff" d="M1031,-670.67C1031,-546.08 1031,-421.49 1031,-296.89"/>
<polygon fill="#7fb2ff" stroke="#7fb2ff" points="1034.5,-296.77 1031,-286.77 1027.5,-296.77 1034.5,-296.77"/>
</g>
<!-- Node0x55fa1f74c768 -->
<g id="node13" class="node">
<title>Node0x55fa1f74c768</title>
<polygon fill="#7fb2ff" stroke="black" points="3355,-290.73 3066,-290.73 3066,-254.73 3355,-254.73 3355,-290.73"/>
<text text-anchor="middle" x="3210.5" y="-269.03" font-family="Times,serif" font-size="14.00">{lib/libLLVMAsmPrinter.a(DIE.cpp.o)}</text>
</g>
<!-- Node0x55fa1f74bc78&#45;&gt;Node0x55fa1f74c768 -->
<g id="edge17" class="edge">
<title>Node0x55fa1f74bc78&#45;&gt;Node0x55fa1f74c768</title>
<path fill="none" stroke="#7fb2ff" d="M1043.97,-670.43C1074.86,-624.99 1162.37,-507.09 1269,-457.73 1438.56,-379.23 2758.3,-329.38 2944,-308.73 2986.91,-303.95 3033.6,-297.91 3075.69,-292.14"/>
<polygon fill="#7fb2ff" stroke="#7fb2ff" points="3076.29,-295.59 3085.72,-290.76 3075.34,-288.66 3076.29,-295.59"/>
</g>
<!-- Node0x55fa1f74a468 -->
<g id="node14" class="node">
<title>Node0x55fa1f74a468</title>
<polygon fill="none" stroke="black" points="3441,-1044.73 2980,-1044.73 2980,-1008.73 3441,-1008.73 3441,-1044.73"/>
<text text-anchor="middle" x="3210.5" y="-1023.03" font-family="Times,serif" font-size="14.00">{lib/libLLVMAsmPrinter.a(DbgEntityHistoryCalculator.cpp.o)}</text>
</g>
<!-- Node0x55fa1f74bc78&#45;&gt;Node0x55fa1f74a468 -->
<g id="edge18" class="edge">
<title>Node0x55fa1f74bc78&#45;&gt;Node0x55fa1f74a468</title>
<path fill="none" stroke="black" d="M1060.32,-706.77C1120.71,-745.18 1257.59,-831.88 1269,-835.73 1350.65,-863.27 1583.24,-825.02 1655,-872.73 1683.15,-891.44 1662.49,-921.55 1691,-939.73 1795.86,-1006.57 2568.62,-1022.15 2969.56,-1025.71"/>
<polygon fill="black" stroke="black" points="2969.81,-1029.22 2979.84,-1025.8 2969.87,-1022.22 2969.81,-1029.22"/>
</g>
<!-- Node0x55fa1f749d88 -->
<g id="node15" class="node">
<title>Node0x55fa1f749d88</title>
<polygon fill="#7fb2ff" stroke="black" points="2944,-1082.73 2543,-1082.73 2543,-1046.73 2944,-1046.73 2944,-1082.73"/>
<text text-anchor="middle" x="2743.5" y="-1061.03" font-family="Times,serif" font-size="14.00">{lib/libLLVMAsmPrinter.a(DebugHandlerBase.cpp.o)}</text>
</g>
<!-- Node0x55fa1f74bc78&#45;&gt;Node0x55fa1f749d88 -->
<g id="edge19" class="edge">
<title>Node0x55fa1f74bc78&#45;&gt;Node0x55fa1f749d88</title>
<path fill="none" stroke="#7fb2ff" d="M1071.1,-706.81C1114.42,-728.25 1184.55,-767.27 1233,-815.73 1254.19,-836.91 1243.6,-856.83 1269,-872.73 1415.32,-964.3 1517.03,-811.99 1655,-915.73 1688.45,-940.87 1656.91,-978.46 1691,-1002.73 1757.69,-1050.2 2245.54,-1061.6 2532.74,-1064.16"/>
<polygon fill="#7fb2ff" stroke="#7fb2ff" points="2532.84,-1067.66 2542.87,-1064.24 2532.9,-1060.66 2532.84,-1067.66"/>
</g>
<!-- Node0x55fa1f7496a8 -->
<g id="node16" class="node">
<title>Node0x55fa1f7496a8</title>
<polygon fill="#7fb2ff" stroke="black" points="2507,-706.73 2112,-706.73 2112,-670.73 2507,-670.73 2507,-706.73"/>
<text text-anchor="middle" x="2309.5" y="-685.03" font-family="Times,serif" font-size="14.00">{lib/libLLVMAsmPrinter.a(DwarfCompileUnit.cpp.o)}</text>
</g>
<!-- Node0x55fa1f74bc78&#45;&gt;Node0x55fa1f7496a8 -->
<g id="edge20" class="edge">
<title>Node0x55fa1f74bc78&#45;&gt;Node0x55fa1f7496a8</title>
<path fill="none" stroke="#7fb2ff" d="M1207.08,-706.02C1339.63,-721.86 1526.36,-743.63 1691,-752.73 1861.85,-762.16 1906.86,-778.65 2076,-752.73 2130.74,-744.33 2190.29,-725.44 2235.41,-710.18"/>
<polygon fill="#7fb2ff" stroke="#7fb2ff" points="2236.76,-713.42 2245.1,-706.88 2234.51,-706.79 2236.76,-713.42"/>
</g>
<!-- Node0x55fa1f749158 -->
<g id="node17" class="node">
<title>Node0x55fa1f749158</title>
<polygon fill="#7fb2ff" stroke="black" points="2918.5,-892.73 2568.5,-892.73 2568.5,-856.73 2918.5,-856.73 2918.5,-892.73"/>
<text text-anchor="middle" x="2743.5" y="-871.03" font-family="Times,serif" font-size="14.00">{lib/libLLVMAsmPrinter.a(AddressPool.cpp.o)}</text>
</g>
<!-- Node0x55fa1f74bc78&#45;&gt;Node0x55fa1f749158 -->
<g id="edge21" class="edge">
<title>Node0x55fa1f74bc78&#45;&gt;Node0x55fa1f749158</title>
<path fill="none" stroke="#7fb2ff" d="M1080.31,-706.77C1127.7,-723.77 1202.36,-748.66 1269,-762.73 1353.47,-780.56 1585.51,-755.49 1655,-806.73 1687.04,-830.34 1657.68,-866.96 1691,-888.73 1842.82,-987.88 2325.75,-894.11 2507,-888.73 2523.6,-888.23 2540.85,-887.54 2558.12,-886.74"/>
<polygon fill="#7fb2ff" stroke="#7fb2ff" points="2558.47,-890.22 2568.29,-886.25 2558.13,-883.23 2558.47,-890.22"/>
</g>
<!-- Node0x55fa1f7489d8 -->
<g id="node18" class="node">
<title>Node0x55fa1f7489d8</title>
<polygon fill="#7fb2ff" stroke="black" points="1631,-150.73 1293,-150.73 1293,-114.73 1631,-114.73 1631,-150.73"/>
<text text-anchor="middle" x="1462" y="-129.03" font-family="Times,serif" font-size="14.00">{lib/libLLVMAsmPrinter.a(AccelTable.cpp.o)}</text>
</g>
<!-- Node0x55fa1f74bc78&#45;&gt;Node0x55fa1f7489d8 -->
<g id="edge22" class="edge">
<title>Node0x55fa1f74bc78&#45;&gt;Node0x55fa1f7489d8</title>
<path fill="none" stroke="#7fb2ff" d="M1042.23,-670.72C1073.25,-616.75 1170.16,-452.45 1269,-329.73 1322.28,-263.57 1394.2,-194.26 1433.14,-158.1"/>
<polygon fill="#7fb2ff" stroke="#7fb2ff" points="1435.96,-160.26 1440.93,-150.9 1431.21,-155.12 1435.96,-160.26"/>
</g>
<!-- Node0x55fa1f75c848 -->
<g id="node19" class="node">
<title>Node0x55fa1f75c848</title>
<polygon fill="#7fb2ff" stroke="black" points="1655,-960.73 1269,-960.73 1269,-924.73 1655,-924.73 1655,-960.73"/>
<text text-anchor="middle" x="1462" y="-939.03" font-family="Times,serif" font-size="14.00">{lib/libLLVMAsmPrinter.a(DebugLocStream.cpp.o)}</text>
</g>
<!-- Node0x55fa1f74bc78&#45;&gt;Node0x55fa1f75c848 -->
<g id="edge25" class="edge">
<title>Node0x55fa1f74bc78&#45;&gt;Node0x55fa1f75c848</title>
<path fill="none" stroke="#7fb2ff" d="M1092.63,-706.75C1136.92,-726.5 1195.54,-760.84 1233,-806.73 1261.56,-841.7 1234.09,-873.09 1269,-901.73 1278.59,-909.59 1289.37,-915.85 1300.81,-920.85"/>
<polygon fill="#7fb2ff" stroke="#7fb2ff" points="1299.53,-924.1 1310.12,-924.58 1302.14,-917.61 1299.53,-924.1"/>
</g>
<!-- Node0x55fa1f75d478 -->
<g id="node20" class="node">
<title>Node0x55fa1f75d478</title>
<polygon fill="#7fb2ff" stroke="black" points="1625,-374.73 1299,-374.73 1299,-338.73 1625,-338.73 1625,-374.73"/>
<text text-anchor="middle" x="1462" y="-353.03" font-family="Times,serif" font-size="14.00">{lib/libLLVMAsmPrinter.a(DIEHash.cpp.o)}</text>
</g>
<!-- Node0x55fa1f74bc78&#45;&gt;Node0x55fa1f75d478 -->
<g id="edge26" class="edge">
<title>Node0x55fa1f74bc78&#45;&gt;Node0x55fa1f75d478</title>
<path fill="none" stroke="#7fb2ff" d="M1038.67,-670.41C1062.09,-615.33 1145.85,-452.49 1269,-379.73 1275.4,-375.94 1282.12,-372.58 1289.05,-369.58"/>
<polygon fill="#7fb2ff" stroke="#7fb2ff" points="1290.66,-372.71 1298.63,-365.73 1288.05,-366.21 1290.66,-372.71"/>
</g>
<!-- Node0x55fa1f75b948 -->
<g id="node21" class="node">
<title>Node0x55fa1f75b948</title>
<polygon fill="#7fb2ff" stroke="black" points="2076,-752.73 1691,-752.73 1691,-716.73 2076,-716.73 2076,-752.73"/>
<text text-anchor="middle" x="1883.5" y="-731.03" font-family="Times,serif" font-size="14.00">{lib/libLLVMAsmPrinter.a(DwarfExpression.cpp.o)}</text>
</g>
<!-- Node0x55fa1f74bc78&#45;&gt;Node0x55fa1f75b948 -->
<g id="edge27" class="edge">
<title>Node0x55fa1f74bc78&#45;&gt;Node0x55fa1f75b948</title>
<path fill="none" stroke="#7fb2ff" d="M1207.03,-692.76C1331.97,-696.3 1503.94,-702.52 1655,-712.73 1668.54,-713.64 1682.52,-714.7 1696.59,-715.86"/>
<polygon fill="#7fb2ff" stroke="#7fb2ff" points="1696.58,-719.37 1706.84,-716.71 1697.16,-712.39 1696.58,-719.37"/>
</g>
<!-- Node0x55fa1f75b2b8 -->
<g id="node22" class="node">
<title>Node0x55fa1f75b2b8</title>
<polygon fill="#7fb2ff" stroke="black" points="2909.5,-451.73 2577.5,-451.73 2577.5,-415.73 2909.5,-415.73 2909.5,-451.73"/>
<text text-anchor="middle" x="2743.5" y="-430.03" font-family="Times,serif" font-size="14.00">{lib/libLLVMAsmPrinter.a(DwarfFile.cpp.o)}</text>
</g>
<!-- Node0x55fa1f74bc78&#45;&gt;Node0x55fa1f75b2b8 -->
<g id="edge28" class="edge">
<title>Node0x55fa1f74bc78&#45;&gt;Node0x55fa1f75b2b8</title>
<path fill="none" stroke="#7fb2ff" d="M1055.68,-670.71C1097.73,-645 1188.59,-598.87 1269,-568.73 1451.7,-500.24 1498.09,-476.99 1691,-447.73 1996.51,-401.38 2357.6,-406.26 2567.28,-417.49"/>
<polygon fill="#7fb2ff" stroke="#7fb2ff" points="2567.28,-420.99 2577.46,-418.04 2567.66,-414 2567.28,-420.99"/>
</g>
<!-- Node0x55fa1f75bf38 -->
<g id="node23" class="node">
<title>Node0x55fa1f75bf38</title>
<polygon fill="#7fb2ff" stroke="black" points="3400.5,-574.73 3020.5,-574.73 3020.5,-538.73 3400.5,-538.73 3400.5,-574.73"/>
<text text-anchor="middle" x="3210.5" y="-553.03" font-family="Times,serif" font-size="14.00">{lib/libLLVMAsmPrinter.a(DwarfStringPool.cpp.o)}</text>
</g>
<!-- Node0x55fa1f74bc78&#45;&gt;Node0x55fa1f75bf38 -->
<g id="edge29" class="edge">
<title>Node0x55fa1f74bc78&#45;&gt;Node0x55fa1f75bf38</title>
<path fill="none" stroke="#7fb2ff" d="M1062.59,-706.79C1106.61,-731.86 1191.11,-776.61 1269,-798.73 1352.1,-822.31 1585.37,-793.6 1655,-844.73 1686.43,-867.8 1658.26,-903.55 1691,-924.73 1701.71,-931.65 2475.6,-921.55 2507,-920.73 2701.34,-915.6 2771.49,-991.35 2944,-901.73 3081.12,-830.49 3168.56,-653 3198.22,-584.4"/>
<polygon fill="#7fb2ff" stroke="#7fb2ff" points="3201.48,-585.66 3202.17,-575.09 3195.04,-582.93 3201.48,-585.66"/>
</g>
<!-- Node0x55fa1f75ac78 -->
<g id="node24" class="node">
<title>Node0x55fa1f75ac78</title>
<polygon fill="#7fb2ff" stroke="black" points="1630.5,-622.73 1293.5,-622.73 1293.5,-586.73 1630.5,-586.73 1630.5,-622.73"/>
<text text-anchor="middle" x="1462" y="-601.03" font-family="Times,serif" font-size="14.00">{lib/libLLVMAsmPrinter.a(DwarfUnit.cpp.o)}</text>
</g>
<!-- Node0x55fa1f74bc78&#45;&gt;Node0x55fa1f75ac78 -->
<g id="edge30" class="edge">
<title>Node0x55fa1f74bc78&#45;&gt;Node0x55fa1f75ac78</title>
<path fill="none" stroke="#7fb2ff" d="M1098.56,-670.64C1159.37,-657.02 1251.12,-638.64 1327.09,-624.64"/>
<polygon fill="#7fb2ff" stroke="#7fb2ff" points="1328.01,-628.03 1337.22,-622.78 1326.75,-621.14 1328.01,-628.03"/>
</g>
<!-- Node0x55fa1f7546e8&#45;&gt;Node0x55fa1f753928 -->
<g id="edge32" class="edge">
<title>Node0x55fa1f7546e8&#45;&gt;Node0x55fa1f753928</title>
<path fill="none" stroke="#7fb2ff" d="M851.61,-1388.44C843.75,-1385.09 836.16,-1381.21 829,-1376.73 716.44,-1306.21 652.02,-1149.09 630.85,-1084.74"/>
<polygon fill="#7fb2ff" stroke="#7fb2ff" points="634.08,-1083.36 627.71,-1074.89 627.41,-1085.48 634.08,-1083.36"/>
</g>
<!-- Node0x55fa1f7546e8&#45;&gt;Node0x55fa1f74c538 -->
<g id="edge31" class="edge">
<title>Node0x55fa1f7546e8&#45;&gt;Node0x55fa1f74c538</title>
<path fill="none" stroke="#7fb2ff" d="M1031,-1376.52C1031,-1374.03 1031,-1371.55 1031,-1369.07"/>
<polygon fill="#7fb2ff" stroke="#7fb2ff" points="1034.5,-1368.87 1031,-1358.87 1027.5,-1368.87 1034.5,-1368.87"/>
</g>
<!-- Node0x55fa1f7546e8&#45;&gt;Node0x55fa1f759ff8 -->
<g id="edge33" class="edge">
<title>Node0x55fa1f7546e8&#45;&gt;Node0x55fa1f759ff8</title>
<path fill="none" stroke="#7fb2ff" d="M851.9,-1393.94C835.33,-1386.25 821.02,-1374.94 811,-1358.73 789.97,-1324.7 789.97,-1302.75 811,-1268.73 819.97,-1254.21 832.38,-1243.62 846.78,-1236.05"/>
<polygon fill="#7fb2ff" stroke="#7fb2ff" points="848.43,-1239.14 855.98,-1231.71 845.45,-1232.81 848.43,-1239.14"/>
</g>
<!-- Node0x55fa1f754f58&#45;&gt;Node0x55fa1f753928 -->
<g id="edge35" class="edge">
<title>Node0x55fa1f754f58&#45;&gt;Node0x55fa1f753928</title>
<path fill="none" stroke="#7fb2ff" d="M846.88,-1441.02C840.67,-1437.99 834.68,-1434.57 829,-1430.73 703.21,-1345.54 645.58,-1156.53 628.6,-1084.82"/>
<polygon fill="#7fb2ff" stroke="#7fb2ff" points="631.94,-1083.71 626.3,-1074.73 625.11,-1085.26 631.94,-1083.71"/>
</g>
<!-- Node0x55fa1f754f58&#45;&gt;Node0x55fa1f74c538 -->
<g id="edge34" class="edge">
<title>Node0x55fa1f754f58&#45;&gt;Node0x55fa1f74c538</title>
<path fill="none" stroke="#7fb2ff" d="M846.8,-1435.18C812.48,-1424.62 792.46,-1406.72 811,-1376.73 814.32,-1371.35 818.12,-1366.51 822.31,-1362.16"/>
<polygon fill="#7fb2ff" stroke="#7fb2ff" points="824.76,-1364.66 829.73,-1355.31 820.01,-1359.52 824.76,-1364.66"/>
</g>
<!-- Node0x55fa1f754f58&#45;&gt;Node0x55fa1f759ff8 -->
<g id="edge36" class="edge">
<title>Node0x55fa1f754f58&#45;&gt;Node0x55fa1f759ff8</title>
<path fill="none" stroke="#7fb2ff" d="M846.68,-1445.35C832.33,-1437.78 819.95,-1427.21 811,-1412.73 794.18,-1385.5 794.18,-1295.95 811,-1268.73 819.97,-1254.21 832.38,-1243.62 846.78,-1236.05"/>
<polygon fill="#7fb2ff" stroke="#7fb2ff" points="848.43,-1239.14 855.98,-1231.71 845.45,-1232.81 848.43,-1239.14"/>
</g>
<!-- Node0x55fa1f755778&#45;&gt;Node0x55fa1f753928 -->
<g id="edge14" class="edge">
<title>Node0x55fa1f755778&#45;&gt;Node0x55fa1f753928</title>
<path fill="none" stroke="#7fb2ff" d="M866.12,-286.81C852.57,-292.47 839.91,-299.93 829,-309.73 716.71,-410.48 644.36,-904.17 627.03,-1028.4"/>
<polygon fill="#7fb2ff" stroke="#7fb2ff" points="623.52,-1028.24 625.62,-1038.62 630.46,-1029.2 623.52,-1028.24"/>
</g>
<!-- Node0x55fa1f755778&#45;&gt;Node0x55fa1f74c768 -->
<g id="edge13" class="edge">
<title>Node0x55fa1f755778&#45;&gt;Node0x55fa1f74c768</title>
<path fill="none" stroke="#7fb2ff" d="M1077.55,-250.7C1125.02,-237.16 1201.74,-220.3 1269,-211.73 1539.87,-177.2 1609.44,-178.73 1882.5,-178.73 1882.5,-178.73 1882.5,-178.73 2310.5,-178.73 2606.87,-178.73 2955.76,-225.08 3117.99,-252.95"/>
<polygon fill="#7fb2ff" stroke="#7fb2ff" points="3117.48,-256.41 3127.93,-254.67 3118.68,-249.51 3117.48,-256.41"/>
</g>
<!-- Node0x55fa1f759ff8&#45;&gt;Node0x55fa1f753928 -->
<g id="edge37" class="edge">
<title>Node0x55fa1f759ff8&#45;&gt;Node0x55fa1f753928</title>
<path fill="none" stroke="#7fb2ff" d="M855.95,-1219.13C846.72,-1216.36 837.68,-1213.23 829,-1209.73 754.15,-1179.48 679.9,-1117.74 644.47,-1082.43"/>
<polygon fill="#7fb2ff" stroke="#7fb2ff" points="646.61,-1079.61 637.12,-1074.9 641.6,-1084.5 646.61,-1079.61"/>
</g>
<!-- Node0x55fa1f759ff8&#45;&gt;Node0x55fa1f755778 -->
<g id="edge38" class="edge">
<title>Node0x55fa1f759ff8&#45;&gt;Node0x55fa1f755778</title>
<path fill="none" stroke="#7fb2ff" d="M951.11,-1214.64C901.43,-1198.82 841.41,-1170.33 811,-1120.73 784.87,-1078.1 798.61,-719.17 811,-670.73 850.63,-515.76 963.7,-356.26 1010.42,-294.92"/>
<polygon fill="#7fb2ff" stroke="#7fb2ff" points="1013.24,-296.99 1016.55,-286.93 1007.69,-292.73 1013.24,-296.99"/>
</g>
<!-- Node0x55fa1f75a688&#45;&gt;Node0x55fa1f753928 -->
<g id="edge39" class="edge">
<title>Node0x55fa1f75a688&#45;&gt;Node0x55fa1f753928</title>
<path fill="none" stroke="#7fb2ff" d="M920.52,-914.75C890.24,-919.85 857.8,-926.98 829,-937.73 766.1,-961.18 701.64,-1005.07 661.97,-1032.67"/>
<polygon fill="#7fb2ff" stroke="#7fb2ff" points="659.61,-1030.05 653.4,-1038.63 663.61,-1035.79 659.61,-1030.05"/>
</g>
<!-- Node0x55fa1f759968&#45;&gt;Node0x55fa1f753928 -->
<g id="edge40" class="edge">
<title>Node0x55fa1f759968&#45;&gt;Node0x55fa1f753928</title>
<path fill="none" stroke="#7fb2ff" d="M883.46,-860.75C864.63,-865.03 846,-870.82 829,-878.73 751.35,-914.84 682.46,-990.61 647.43,-1030.81"/>
<polygon fill="#7fb2ff" stroke="#7fb2ff" points="644.59,-1028.74 640.68,-1038.59 649.88,-1033.33 644.59,-1028.74"/>
</g>
<!-- Node0x55fa1f758d88&#45;&gt;Node0x55fa1f753928 -->
<g id="edge41" class="edge">
<title>Node0x55fa1f758d88&#45;&gt;Node0x55fa1f753928</title>
<path fill="none" stroke="#7fb2ff" d="M850.38,-1277.74C843.03,-1275.09 835.88,-1272.1 829,-1268.73 741.08,-1225.63 667.58,-1130.4 637.54,-1083.49"/>
<polygon fill="#7fb2ff" stroke="#7fb2ff" points="640.38,-1081.42 632.12,-1074.78 634.43,-1085.12 640.38,-1081.42"/>
</g>
<!-- Node0x55fa1f758d88&#45;&gt;Node0x55fa1f759ff8 -->
<g id="edge42" class="edge">
<title>Node0x55fa1f758d88&#45;&gt;Node0x55fa1f759ff8</title>
<path fill="none" stroke="#7fb2ff" d="M1031,-1268.52C1031,-1266.03 1031,-1263.55 1031,-1261.07"/>
<polygon fill="#7fb2ff" stroke="#7fb2ff" points="1034.5,-1260.87 1031,-1250.87 1027.5,-1260.87 1034.5,-1260.87"/>
</g>
<!-- Node0x55fa1f7581a8&#45;&gt;Node0x55fa1f753928 -->
<g id="edge44" class="edge">
<title>Node0x55fa1f7581a8&#45;&gt;Node0x55fa1f753928</title>
<path fill="none" stroke="#7fb2ff" d="M841.29,-1088.13C806.53,-1084.28 771.18,-1080.09 739.35,-1076.04"/>
<polygon fill="#7fb2ff" stroke="#7fb2ff" points="739.5,-1072.53 729.14,-1074.73 738.61,-1079.48 739.5,-1072.53"/>
</g>
<!-- Node0x55fa1f7581a8&#45;&gt;Node0x55fa1f749d88 -->
<g id="edge43" class="edge">
<title>Node0x55fa1f7581a8&#45;&gt;Node0x55fa1f749d88</title>
<path fill="none" stroke="#7fb2ff" d="M1220.67,-1102.26C1501.25,-1100.97 2045.05,-1096.21 2507,-1078.73 2515.38,-1078.41 2523.93,-1078.05 2532.57,-1077.67"/>
<polygon fill="#7fb2ff" stroke="#7fb2ff" points="2532.91,-1081.15 2542.74,-1077.2 2532.59,-1074.16 2532.91,-1081.15"/>
</g>
<!-- Node0x55fa1f74c768&#45;&gt;Node0x55fa1f753928 -->
<g id="edge45" class="edge">
<title>Node0x55fa1f74c768&#45;&gt;Node0x55fa1f753928</title>
<path fill="none" stroke="#7fb2ff" d="M3185.53,-254.55C3140.85,-221.85 3040.61,-153.88 2944,-125.73 2673.18,-46.8 2592.59,-86.73 2310.5,-86.73 1461,-86.73 1461,-86.73 1461,-86.73 1179.93,-86.73 1044.61,70.59 829,-109.73 682.3,-232.41 633.7,-883.96 624.65,-1028.36"/>
<polygon fill="#7fb2ff" stroke="#7fb2ff" points="621.14,-1028.4 624.03,-1038.6 628.13,-1028.83 621.14,-1028.4"/>
</g>
<!-- Node0x55fa1f74c768&#45;&gt;Node0x55fa1f755778 -->
<g id="edge46" class="edge">
<title>Node0x55fa1f74c768&#45;&gt;Node0x55fa1f755778</title>
<path fill="none" stroke="#7fb2ff" d="M3065.87,-257.05C2888.73,-234.54 2578.19,-196.73 2310.5,-196.73 1882.5,-196.73 1882.5,-196.73 1882.5,-196.73 1609.44,-196.73 1539.87,-195.2 1269,-229.73 1231.98,-234.44 1192.1,-241.67 1155.8,-248.72"/>
<polygon fill="#7fb2ff" stroke="#7fb2ff" points="1154.8,-245.35 1145.66,-250.71 1156.14,-252.22 1154.8,-245.35"/>
</g>
<!-- Node0x55fa1f749d88&#45;&gt;Node0x55fa1f753928 -->
<g id="edge48" class="edge">
<title>Node0x55fa1f749d88&#45;&gt;Node0x55fa1f753928</title>
<path fill="none" stroke="#7fb2ff" d="M2630.41,-1082.75C2466.89,-1107.43 2153.16,-1148.73 1884.5,-1148.73 1461,-1148.73 1461,-1148.73 1461,-1148.73 1179.98,-1148.73 1105.2,-1181.5 829,-1129.73 773.3,-1119.28 712.47,-1096.18 671.46,-1078.74"/>
<polygon fill="#7fb2ff" stroke="#7fb2ff" points="672.81,-1075.51 662.25,-1074.77 670.05,-1081.94 672.81,-1075.51"/>
</g>
<!-- Node0x55fa1f749d88&#45;&gt;Node0x55fa1f74a468 -->
<g id="edge47" class="edge">
<title>Node0x55fa1f749d88&#45;&gt;Node0x55fa1f74a468</title>
<path fill="none" stroke="black" d="M2944.06,-1048.42C2955.59,-1047.47 2967.23,-1046.52 2978.86,-1045.57"/>
<polygon fill="black" stroke="black" points="2979.39,-1049.04 2989.07,-1044.74 2978.82,-1042.06 2979.39,-1049.04"/>
</g>
<!-- Node0x55fa1f7496a8&#45;&gt;Node0x55fa1f753928 -->
<g id="edge53" class="edge">
<title>Node0x55fa1f7496a8&#45;&gt;Node0x55fa1f753928</title>
<path fill="none" stroke="#7fb2ff" d="M2281.05,-706.81C2193.95,-763.05 1914.28,-935.04 1655,-1000.73 1476.84,-1045.86 1012.47,-1031.83 829,-1042.73 820.58,-1043.23 811.96,-1043.75 803.26,-1044.3"/>
<polygon fill="#7fb2ff" stroke="#7fb2ff" points="802.77,-1040.82 793.01,-1044.94 803.21,-1047.81 802.77,-1040.82"/>
</g>
<!-- Node0x55fa1f7496a8&#45;&gt;Node0x55fa1f74bc78 -->
<g id="edge50" class="edge">
<title>Node0x55fa1f7496a8&#45;&gt;Node0x55fa1f74bc78</title>
<path fill="none" stroke="#7fb2ff" d="M2279.46,-706.85C2236.11,-727.61 2151.48,-759.15 2076,-770.73 1906.86,-796.65 1861.85,-780.16 1691,-770.73 1488.59,-759.55 1252.81,-729.2 1125.35,-708.42"/>
<polygon fill="#7fb2ff" stroke="#7fb2ff" points="1125.67,-704.93 1115.24,-706.76 1124.54,-711.83 1125.67,-704.93"/>
</g>
<!-- Node0x55fa1f7496a8&#45;&gt;Node0x55fa1f74c768 -->
<g id="edge49" class="edge">
<title>Node0x55fa1f7496a8&#45;&gt;Node0x55fa1f74c768</title>
<path fill="none" stroke="#7fb2ff" d="M2411.93,-670.68C2541.26,-644.82 2769.06,-589.57 2944,-494.73 3044.61,-440.18 3142.49,-343.9 3186,-298.19"/>
<polygon fill="#7fb2ff" stroke="#7fb2ff" points="3188.67,-300.45 3193,-290.78 3183.59,-295.65 3188.67,-300.45"/>
</g>
<!-- Node0x55fa1f7496a8&#45;&gt;Node0x55fa1f749d88 -->
<g id="edge51" class="edge">
<title>Node0x55fa1f7496a8&#45;&gt;Node0x55fa1f749d88</title>
<path fill="none" stroke="#7fb2ff" d="M2489.19,-706.82C2495.55,-710.83 2501.53,-715.44 2507,-720.73 2566,-777.7 2500.76,-831.42 2543,-901.73 2581.01,-964.98 2652.9,-1014.41 2699.2,-1041.56"/>
<polygon fill="#7fb2ff" stroke="#7fb2ff" points="2697.69,-1044.73 2708.11,-1046.69 2701.19,-1038.66 2697.69,-1044.73"/>
</g>
<!-- Node0x55fa1f7496a8&#45;&gt;Node0x55fa1f749158 -->
<g id="edge52" class="edge">
<title>Node0x55fa1f7496a8&#45;&gt;Node0x55fa1f749158</title>
<path fill="none" stroke="#7fb2ff" d="M2461.89,-706.76C2477.37,-710.56 2492.66,-715.16 2507,-720.73 2588.55,-752.38 2671.23,-815.1 2713.57,-849.93"/>
<polygon fill="#7fb2ff" stroke="#7fb2ff" points="2711.56,-852.81 2721.49,-856.51 2716.03,-847.43 2711.56,-852.81"/>
</g>
<!-- Node0x55fa1f7496a8&#45;&gt;Node0x55fa1f75b948 -->
<g id="edge54" class="edge">
<title>Node0x55fa1f7496a8&#45;&gt;Node0x55fa1f75b948</title>
<path fill="none" stroke="#7fb2ff" d="M2197.79,-706.75C2163.55,-711 2124.71,-715.46 2086.31,-719.57"/>
<polygon fill="#7fb2ff" stroke="#7fb2ff" points="2085.61,-716.13 2076.03,-720.67 2086.35,-723.09 2085.61,-716.13"/>
</g>
<!-- Node0x55fa1f7496a8&#45;&gt;Node0x55fa1f75b2b8 -->
<g id="edge55" class="edge">
<title>Node0x55fa1f7496a8&#45;&gt;Node0x55fa1f75b2b8</title>
<path fill="none" stroke="#7fb2ff" d="M2328.85,-670.64C2366.25,-634.66 2455.19,-553.35 2543,-504.73 2581.09,-483.64 2626.62,-466.87 2664.57,-454.93"/>
<polygon fill="#7fb2ff" stroke="#7fb2ff" points="2666.03,-458.14 2674.55,-451.85 2663.96,-451.46 2666.03,-458.14"/>
</g>
<!-- Node0x55fa1f7496a8&#45;&gt;Node0x55fa1f75ac78 -->
<g id="edge56" class="edge">
<title>Node0x55fa1f7496a8&#45;&gt;Node0x55fa1f75ac78</title>
<path fill="none" stroke="#7fb2ff" d="M2111.87,-675C1956.33,-660.98 1742.92,-639.57 1604.01,-623.92"/>
<polygon fill="#7fb2ff" stroke="#7fb2ff" points="1604.05,-620.4 1593.72,-622.75 1603.26,-627.36 1604.05,-620.4"/>
</g>
<!-- Node0x55fa1f749158&#45;&gt;Node0x55fa1f753928 -->
<g id="edge57" class="edge">
<title>Node0x55fa1f749158&#45;&gt;Node0x55fa1f753928</title>
<path fill="none" stroke="#7fb2ff" d="M2657.16,-892.77C2612.55,-901.86 2556.96,-912.63 2507,-920.73 2130.11,-981.8 2035.64,-1000.82 1655,-1030.73 1467.95,-1045.42 1420.57,-1037.91 1233,-1042.73 1088.54,-1046.44 924.83,-1050.17 803.4,-1052.84"/>
<polygon fill="#7fb2ff" stroke="#7fb2ff" points="803.18,-1049.35 793.26,-1053.07 803.34,-1056.35 803.18,-1049.35"/>
</g>
<!-- Node0x55fa1f749158&#45;&gt;Node0x55fa1f755778 -->
<g id="edge58" class="edge">
<title>Node0x55fa1f749158&#45;&gt;Node0x55fa1f755778</title>
<path fill="none" stroke="#7fb2ff" d="M2568.35,-866.25C2358.49,-853.69 1996.05,-824.5 1691,-761.73 1498.77,-722.17 1425.75,-749.81 1269,-631.73 1146.63,-539.55 1069.02,-364.46 1042.36,-296.59"/>
<polygon fill="#7fb2ff" stroke="#7fb2ff" points="1045.53,-295.07 1038.66,-287.01 1039,-297.6 1045.53,-295.07"/>
</g>
<!-- Node0x55fa1f7489d8&#45;&gt;Node0x55fa1f753928 -->
<g id="edge60" class="edge">
<title>Node0x55fa1f7489d8&#45;&gt;Node0x55fa1f753928</title>
<path fill="none" stroke="#7fb2ff" d="M1292.85,-115.02C1151.27,-109.86 952.63,-126.96 829,-241.73 708.71,-353.39 640.77,-897.99 626.05,-1028.55"/>
<polygon fill="#7fb2ff" stroke="#7fb2ff" points="622.57,-1028.24 624.94,-1038.56 629.52,-1029.01 622.57,-1028.24"/>
</g>
<!-- Node0x55fa1f7489d8&#45;&gt;Node0x55fa1f755778 -->
<g id="edge61" class="edge">
<title>Node0x55fa1f7489d8&#45;&gt;Node0x55fa1f755778</title>
<path fill="none" stroke="#7fb2ff" d="M1312.15,-150.76C1297.32,-154.56 1282.7,-159.16 1269,-164.73 1250.95,-172.06 1250.18,-180.54 1233,-189.73 1189.62,-212.91 1137.92,-233.07 1097.81,-247.23"/>
<polygon fill="#7fb2ff" stroke="#7fb2ff" points="1096.43,-244.01 1088.14,-250.61 1098.74,-250.61 1096.43,-244.01"/>
</g>
<!-- Node0x55fa1f7489d8&#45;&gt;Node0x55fa1f74c768 -->
<g id="edge59" class="edge">
<title>Node0x55fa1f7489d8&#45;&gt;Node0x55fa1f74c768</title>
<path fill="none" stroke="#7fb2ff" d="M1631.12,-128.7C1964.4,-121.99 2697.9,-113.82 2944,-164.73 3026.57,-181.81 3116.16,-223.59 3167.3,-249.9"/>
<polygon fill="#7fb2ff" stroke="#7fb2ff" points="3165.9,-253.11 3176.39,-254.62 3169.13,-246.9 3165.9,-253.11"/>
</g>
<!-- Node0x55fa1f75c848&#45;&gt;Node0x55fa1f753928 -->
<g id="edge63" class="edge">
<title>Node0x55fa1f75c848&#45;&gt;Node0x55fa1f753928</title>
<path fill="none" stroke="#7fb2ff" d="M1268.79,-931.61C1142.28,-928.77 973.9,-933.57 829,-966.73 768.47,-980.57 703.61,-1011.97 663.18,-1033.76"/>
<polygon fill="#7fb2ff" stroke="#7fb2ff" points="661.29,-1030.8 654.19,-1038.66 664.64,-1036.95 661.29,-1030.8"/>
</g>
<!-- Node0x55fa1f75c848&#45;&gt;Node0x55fa1f74bc78 -->
<g id="edge62" class="edge">
<title>Node0x55fa1f75c848&#45;&gt;Node0x55fa1f74bc78</title>
<path fill="none" stroke="#7fb2ff" d="M1275.44,-924.64C1273.24,-923.08 1271.09,-921.44 1269,-919.73 1234.09,-891.09 1261.56,-859.7 1233,-824.73 1189.49,-771.44 1117.45,-733.71 1072.47,-711.38"/>
<polygon fill="#7fb2ff" stroke="#7fb2ff" points="1073.81,-708.15 1063.3,-706.85 1070.71,-714.42 1073.81,-708.15"/>
</g>
<!-- Node0x55fa1f75d478&#45;&gt;Node0x55fa1f74bc78 -->
<g id="edge65" class="edge">
<title>Node0x55fa1f75d478&#45;&gt;Node0x55fa1f74bc78</title>
<path fill="none" stroke="#7fb2ff" d="M1327.4,-374.77C1306.94,-379.93 1286.75,-387.24 1269,-397.73 1158.03,-463.29 1079.04,-602.01 1047.37,-661.24"/>
<polygon fill="#7fb2ff" stroke="#7fb2ff" points="1044.12,-659.9 1042.52,-670.37 1050.3,-663.18 1044.12,-659.9"/>
</g>
<!-- Node0x55fa1f75d478&#45;&gt;Node0x55fa1f74c768 -->
<g id="edge64" class="edge">
<title>Node0x55fa1f75d478&#45;&gt;Node0x55fa1f74c768</title>
<path fill="none" stroke="#7fb2ff" d="M1625.35,-348.92C1961.1,-332.77 2727.79,-295.89 3055.9,-280.11"/>
<polygon fill="#7fb2ff" stroke="#7fb2ff" points="3056.14,-283.61 3065.96,-279.63 3055.8,-276.61 3056.14,-283.61"/>
</g>
<!-- Node0x55fa1f75b948&#45;&gt;Node0x55fa1f753928 -->
<g id="edge67" class="edge">
<title>Node0x55fa1f75b948&#45;&gt;Node0x55fa1f753928</title>
<path fill="none" stroke="#7fb2ff" d="M1805.3,-752.88C1765.72,-766 1719.88,-787.74 1691,-822.73 1648.18,-874.6 1707.03,-927.09 1655,-969.73 1583.95,-1027.95 919.9,-991.47 829,-1004.73 782.13,-1011.56 730.45,-1024.62 690.58,-1035.94"/>
<polygon fill="#7fb2ff" stroke="#7fb2ff" points="689.61,-1032.58 680.96,-1038.7 691.54,-1039.31 689.61,-1032.58"/>
</g>
<!-- Node0x55fa1f75b948&#45;&gt;Node0x55fa1f7496a8 -->
<g id="edge66" class="edge">
<title>Node0x55fa1f75b948&#45;&gt;Node0x55fa1f7496a8</title>
<path fill="none" stroke="#7fb2ff" d="M1995.07,-716.72C2027.82,-712.65 2064.78,-708.39 2101.55,-704.43"/>
<polygon fill="#7fb2ff" stroke="#7fb2ff" points="2102.34,-707.86 2111.91,-703.32 2101.6,-700.9 2102.34,-707.86"/>
</g>
<!-- Node0x55fa1f75b2b8&#45;&gt;Node0x55fa1f753928 -->
<g id="edge70" class="edge">
<title>Node0x55fa1f75b2b8&#45;&gt;Node0x55fa1f753928</title>
<path fill="none" stroke="#7fb2ff" d="M2623.47,-415.69C2320.22,-371.27 1524.55,-264.8 1269,-329.73 1053.31,-384.52 978.45,-403.83 829,-568.73 699.56,-711.54 643.99,-947.61 628.09,-1028.51"/>
<polygon fill="#7fb2ff" stroke="#7fb2ff" points="624.63,-1027.96 626.19,-1038.44 631.51,-1029.28 624.63,-1027.96"/>
</g>
<!-- Node0x55fa1f75b2b8&#45;&gt;Node0x55fa1f74bc78 -->
<g id="edge69" class="edge">
<title>Node0x55fa1f75b2b8&#45;&gt;Node0x55fa1f74bc78</title>
<path fill="none" stroke="#7fb2ff" d="M2577.46,-430.58C2369.44,-424.43 2001.51,-418.62 1691,-465.73 1498.09,-494.99 1451.7,-518.24 1269,-586.73 1205.78,-610.42 1136.1,-644.01 1088.76,-666.26"/>
<polygon fill="#7fb2ff" stroke="#7fb2ff" points="1087.17,-663.14 1079.6,-670.55 1090.14,-669.48 1087.17,-663.14"/>
</g>
<!-- Node0x55fa1f75b2b8&#45;&gt;Node0x55fa1f755778 -->
<g id="edge71" class="edge">
<title>Node0x55fa1f75b2b8&#45;&gt;Node0x55fa1f755778</title>
<path fill="none" stroke="#7fb2ff" d="M2678.61,-415.72C2631.42,-402.78 2565.5,-385.44 2507,-372.73 2316.93,-331.42 2269.53,-316.27 2076,-296.73 1784.47,-267.28 1444.98,-263.85 1234.25,-265.33"/>
<polygon fill="#7fb2ff" stroke="#7fb2ff" points="1233.97,-261.83 1224,-265.4 1234.03,-268.83 1233.97,-261.83"/>
</g>
<!-- Node0x55fa1f75b2b8&#45;&gt;Node0x55fa1f74c768 -->
<g id="edge68" class="edge">
<title>Node0x55fa1f75b2b8&#45;&gt;Node0x55fa1f74c768</title>
<path fill="none" stroke="#7fb2ff" d="M2796.49,-415.73C2882.89,-385.81 3055.68,-325.98 3148,-294.02"/>
<polygon fill="#7fb2ff" stroke="#7fb2ff" points="3149.19,-297.31 3157.49,-290.73 3146.9,-290.7 3149.19,-297.31"/>
</g>
<!-- Node0x55fa1f75b2b8&#45;&gt;Node0x55fa1f75bf38 -->
<g id="edge72" class="edge">
<title>Node0x55fa1f75b2b8&#45;&gt;Node0x55fa1f75bf38</title>
<path fill="none" stroke="#7fb2ff" d="M2812.61,-451.74C2897.47,-474.19 3042.15,-512.46 3131.41,-536.07"/>
<polygon fill="#7fb2ff" stroke="#7fb2ff" points="3130.64,-539.49 3141.2,-538.66 3132.43,-532.72 3130.64,-539.49"/>
</g>
<!-- Node0x55fa1f75b2b8&#45;&gt;Node0x55fa1f75ac78 -->
<g id="edge73" class="edge">
<title>Node0x55fa1f75b2b8&#45;&gt;Node0x55fa1f75ac78</title>
<path fill="none" stroke="#7fb2ff" d="M2577.23,-450.68C2553.67,-452.86 2529.73,-454.95 2507,-456.73 2144.81,-485.05 2044.22,-419.77 1691,-504.73 1622.14,-521.29 1548.03,-557.61 1503.6,-581.62"/>
<polygon fill="#7fb2ff" stroke="#7fb2ff" points="1501.68,-578.68 1494.58,-586.54 1505.03,-584.82 1501.68,-578.68"/>
</g>
<!-- Node0x55fa1f75bf38&#45;&gt;Node0x55fa1f753928 -->
<g id="edge74" class="edge">
<title>Node0x55fa1f75bf38&#45;&gt;Node0x55fa1f753928</title>
<path fill="none" stroke="#7fb2ff" d="M3199.17,-574.95C3165.48,-634.76 3056.51,-830.89 2980,-999.73 2961.88,-1039.72 2978.32,-1064.34 2944,-1091.73 2721.43,-1269.26 2595.2,-1186.73 2310.5,-1186.73 1461,-1186.73 1461,-1186.73 1461,-1186.73 1179.82,-1186.73 1101.38,-1227.52 829,-1157.73 765.69,-1141.5 698.9,-1104.58 659.11,-1080.16"/>
<polygon fill="#7fb2ff" stroke="#7fb2ff" points="660.9,-1077.15 650.56,-1074.85 657.21,-1083.1 660.9,-1077.15"/>
</g>
<!-- Node0x55fa1f75bf38&#45;&gt;Node0x55fa1f755778 -->
<g id="edge75" class="edge">
<title>Node0x55fa1f75bf38&#45;&gt;Node0x55fa1f755778</title>
<path fill="none" stroke="#7fb2ff" d="M3183.18,-538.69C3136.79,-507.65 3036.62,-443.88 2944,-406.73 2758.02,-332.12 2704.93,-327.02 2507,-295.73 2056.82,-224.55 1519.78,-239.28 1234.17,-254.88"/>
<polygon fill="#7fb2ff" stroke="#7fb2ff" points="1233.91,-251.39 1224.12,-255.43 1234.29,-258.38 1233.91,-251.39"/>
</g>
<!-- Node0x55fa1f75ac78&#45;&gt;Node0x55fa1f753928 -->
<g id="edge81" class="edge">
<title>Node0x55fa1f75ac78&#45;&gt;Node0x55fa1f753928</title>
<path fill="none" stroke="#7fb2ff" d="M1364.16,-586.71C1231.46,-567.54 991.14,-553.16 829,-661.73 696.08,-750.73 643.47,-953.75 628.17,-1028.45"/>
<polygon fill="#7fb2ff" stroke="#7fb2ff" points="624.69,-1028.03 626.18,-1038.52 631.55,-1029.39 624.69,-1028.03"/>
</g>
<!-- Node0x55fa1f75ac78&#45;&gt;Node0x55fa1f74bc78 -->
<g id="edge77" class="edge">
<title>Node0x55fa1f75ac78&#45;&gt;Node0x55fa1f74bc78</title>
<path fill="none" stroke="#7fb2ff" d="M1394.75,-622.74C1333.88,-636.38 1241.81,-654.83 1165.66,-668.86"/>
<polygon fill="#7fb2ff" stroke="#7fb2ff" points="1164.71,-665.47 1155.51,-670.72 1165.98,-672.36 1164.71,-665.47"/>
</g>
<!-- Node0x55fa1f75ac78&#45;&gt;Node0x55fa1f755778 -->
<g id="edge82" class="edge">
<title>Node0x55fa1f75ac78&#45;&gt;Node0x55fa1f755778</title>
<path fill="none" stroke="#7fb2ff" d="M1437.82,-586.57C1365.65,-530.04 1144.89,-357.14 1063,-293"/>
<polygon fill="#7fb2ff" stroke="#7fb2ff" points="1065.1,-290.2 1055.06,-286.79 1060.78,-295.71 1065.1,-290.2"/>
</g>
<!-- Node0x55fa1f75ac78&#45;&gt;Node0x55fa1f74c768 -->
<g id="edge76" class="edge">
<title>Node0x55fa1f75ac78&#45;&gt;Node0x55fa1f74c768</title>
<path fill="none" stroke="#7fb2ff" d="M1611.35,-586.71C1637.86,-583.61 1665.24,-580.5 1691,-577.73 2069.26,-536.91 2164.11,-529.24 2543,-494.73 2632.06,-486.61 2860,-491.42 2944,-460.73 3043.59,-424.33 3139.89,-340.22 3184.17,-297.94"/>
<polygon fill="#7fb2ff" stroke="#7fb2ff" points="3186.81,-300.26 3191.57,-290.8 3181.95,-295.22 3186.81,-300.26"/>
</g>
<!-- Node0x55fa1f75ac78&#45;&gt;Node0x55fa1f749d88 -->
<g id="edge78" class="edge">
<title>Node0x55fa1f75ac78&#45;&gt;Node0x55fa1f749d88</title>
<path fill="none" stroke="#7fb2ff" d="M1618.95,-622.73C1631.43,-626.56 1643.61,-631.17 1655,-636.73 1674.51,-646.24 1671.18,-660.87 1691,-669.73 1847.99,-739.86 1911.49,-657.72 2076,-707.73 2338.15,-787.4 2615.91,-974.49 2709.54,-1040.86"/>
<polygon fill="#7fb2ff" stroke="#7fb2ff" points="2707.59,-1043.76 2717.76,-1046.71 2711.65,-1038.06 2707.59,-1043.76"/>
</g>
<!-- Node0x55fa1f75ac78&#45;&gt;Node0x55fa1f7496a8 -->
<g id="edge79" class="edge">
<title>Node0x55fa1f75ac78&#45;&gt;Node0x55fa1f7496a8</title>
<path fill="none" stroke="#7fb2ff" d="M1630.55,-615.86C1787.73,-629.72 2020.14,-652.92 2167.91,-669.58"/>
<polygon fill="#7fb2ff" stroke="#7fb2ff" points="2167.63,-673.07 2177.96,-670.72 2168.41,-666.11 2167.63,-673.07"/>
</g>
<!-- Node0x55fa1f75ac78&#45;&gt;Node0x55fa1f749158 -->
<g id="edge80" class="edge">
<title>Node0x55fa1f75ac78&#45;&gt;Node0x55fa1f749158</title>
<path fill="none" stroke="#7fb2ff" d="M1630.55,-599.85C1884.74,-594.8 2354.39,-595.31 2507,-661.73 2603.36,-703.66 2686.8,-801.25 2723.13,-848.36"/>
<polygon fill="#7fb2ff" stroke="#7fb2ff" points="2720.51,-850.7 2729.35,-856.54 2726.08,-846.46 2720.51,-850.7"/>
</g>
<!-- Node0x55fa1f75ac78&#45;&gt;Node0x55fa1f75b948 -->
<g id="edge83" class="edge">
<title>Node0x55fa1f75ac78&#45;&gt;Node0x55fa1f75b948</title>
<path fill="none" stroke="#7fb2ff" d="M1630.73,-622.82C1639.27,-626.74 1647.43,-631.34 1655,-636.73 1682.23,-656.09 1663.78,-683.35 1691,-702.73 1695.84,-706.17 1700.92,-709.29 1706.18,-712.12"/>
<polygon fill="#7fb2ff" stroke="#7fb2ff" points="1704.69,-715.28 1715.21,-716.6 1707.81,-709.02 1704.69,-715.28"/>
</g>
<!-- Node0x55fa1f75ac78&#45;&gt;Node0x55fa1f75bf38 -->
<g id="edge84" class="edge">
<title>Node0x55fa1f75ac78&#45;&gt;Node0x55fa1f75bf38</title>
<path fill="none" stroke="#7fb2ff" d="M1630.77,-596.18C1651.06,-595.28 1671.5,-594.43 1691,-593.73 2163.87,-576.56 2719.87,-565.28 3010.15,-560.07"/>
<polygon fill="#7fb2ff" stroke="#7fb2ff" points="3010.43,-563.56 3020.37,-559.89 3010.31,-556.56 3010.43,-563.56"/>
</g>
<!-- Node0x55fa1f75f0e8 -->
<g id="node25" class="node">
<title>Node0x55fa1f75f0e8</title>
<polygon fill="none" stroke="black" points="395.5,-1189.73 19.5,-1189.73 19.5,-1153.73 395.5,-1153.73 395.5,-1189.73"/>
<text text-anchor="middle" x="207.5" y="-1168.03" font-family="Times,serif" font-size="14.00">{lib/libLLVMAsmPrinter.a(WasmException.cpp.o)}</text>
</g>
<!-- Node0x55fa1f75f0e8&#45;&gt;Node0x55fa1f753928 -->
<g id="edge85" class="edge">
<title>Node0x55fa1f75f0e8&#45;&gt;Node0x55fa1f753928</title>
<path fill="none" stroke="black" d="M273.41,-1153.63C347.49,-1132.98 468.46,-1099.25 546.38,-1077.53"/>
<polygon fill="black" stroke="black" points="547.44,-1080.87 556.13,-1074.81 545.56,-1074.12 547.44,-1080.87"/>
</g>
<!-- Node0x55fa1f75f0e8&#45;&gt;Node0x55fa1f759ff8 -->
<g id="edge86" class="edge">
<title>Node0x55fa1f75f0e8&#45;&gt;Node0x55fa1f759ff8</title>
<path fill="none" stroke="black" d="M395.68,-1185.62C530.57,-1195.64 711.72,-1209.09 845.9,-1219.06"/>
<polygon fill="black" stroke="black" points="845.65,-1222.55 855.88,-1219.8 846.17,-1215.57 845.65,-1222.55"/>
</g>
</g>
</svg>
