<?xml version="1.0" encoding="UTF-8" standalone="no"?>
<!DOCTYPE svg PUBLIC "-//W3C//DTD SVG 1.1//EN"
 "http://www.w3.org/Graphics/SVG/1.1/DTD/svg11.dtd">
<!-- Generated by graphviz version 2.43.0 (0)
 -->
<!-- Title: bin/lli_lib/libLLVMAsmParser.a Pages: 1 -->
<svg width="1016pt" height="90pt"
 viewBox="0.00 0.00 1016.00 90.00" xmlns="http://www.w3.org/2000/svg" xmlns:xlink="http://www.w3.org/1999/xlink">
<g id="graph0" class="graph" transform="scale(1 1) rotate(0) translate(4 86)">
<title>bin/lli_lib/libLLVMAsmParser.a</title>
<polygon fill="white" stroke="transparent" points="-4,4 -4,-86 1012,-86 1012,4 -4,4"/>
<text text-anchor="middle" x="504" y="-7.8" font-family="Times,serif" font-size="14.00">bin/lli_lib/libLLVMAsmParser.a</text>
<!-- Node0x563360eec6b8 -->
<g id="node1" class="node">
<title>Node0x563360eec6b8</title>
<polygon fill="#7fb2ff" stroke="black" points="302,-82 0,-82 0,-46 302,-46 302,-82"/>
<text text-anchor="middle" x="151" y="-60.3" font-family="Times,serif" font-size="14.00">{lib/libLLVMAsmParser.a(Parser.cpp.o)}</text>
</g>
<!-- Node0x563360f08d68 -->
<g id="node2" class="node">
<title>Node0x563360f08d68</title>
<polygon fill="#7fb2ff" stroke="black" points="658,-82 338,-82 338,-46 658,-46 658,-82"/>
<text text-anchor="middle" x="498" y="-60.3" font-family="Times,serif" font-size="14.00">{lib/libLLVMAsmParser.a(LLParser.cpp.o)}</text>
</g>
<!-- Node0x563360eec6b8&#45;&gt;Node0x563360f08d68 -->
<g id="edge1" class="edge">
<title>Node0x563360eec6b8&#45;&gt;Node0x563360f08d68</title>
<path fill="none" stroke="#7fb2ff" d="M302.07,-57.3C310.62,-57.26 319.25,-57.25 327.87,-57.25"/>
<polygon fill="#7fb2ff" stroke="#7fb2ff" points="327.97,-60.75 337.98,-57.27 327.98,-53.75 327.97,-60.75"/>
</g>
<!-- Node0x563360eecac8 -->
<g id="node3" class="node">
<title>Node0x563360eecac8</title>
<polygon fill="none" stroke="black" points="1008,-59 694,-59 694,-23 1008,-23 1008,-59"/>
<text text-anchor="middle" x="851" y="-37.3" font-family="Times,serif" font-size="14.00">{lib/libLLVMAsmParser.a(LLLexer.cpp.o)}</text>
</g>
<!-- Node0x563360eec6b8&#45;&gt;Node0x563360eecac8 -->
<g id="edge2" class="edge">
<title>Node0x563360eec6b8&#45;&gt;Node0x563360eecac8</title>
<path fill="none" stroke="black" d="M257.45,-46C283.69,-42.26 311.8,-38.89 338,-37 453.18,-28.68 583.32,-29.84 683.56,-32.99"/>
<polygon fill="black" stroke="black" points="683.68,-36.5 693.78,-33.32 683.9,-29.5 683.68,-36.5"/>
</g>
<!-- Node0x563360f08d68&#45;&gt;Node0x563360eec6b8 -->
<g id="edge3" class="edge">
<title>Node0x563360f08d68&#45;&gt;Node0x563360eec6b8</title>
<path fill="none" stroke="#7fb2ff" d="M337.98,-70.73C329.38,-70.76 320.74,-70.76 312.14,-70.73"/>
<polygon fill="#7fb2ff" stroke="#7fb2ff" points="312.08,-67.23 302.07,-70.7 312.06,-74.23 312.08,-67.23"/>
</g>
<!-- Node0x563360f08d68&#45;&gt;Node0x563360eecac8 -->
<g id="edge4" class="edge">
<title>Node0x563360f08d68&#45;&gt;Node0x563360eecac8</title>
<path fill="none" stroke="black" d="M658.07,-53.58C666.61,-53.02 675.2,-52.45 683.76,-51.89"/>
<polygon fill="black" stroke="black" points="684.04,-55.38 693.79,-51.24 683.59,-48.4 684.04,-55.38"/>
</g>
</g>
</svg>
