<?xml version="1.0" encoding="UTF-8" standalone="no"?>
<!DOCTYPE svg PUBLIC "-//W3C//DTD SVG 1.1//EN"
 "http://www.w3.org/Graphics/SVG/1.1/DTD/svg11.dtd">
<!-- Generated by graphviz version 2.43.0 (0)
 -->
<!-- Title: bin/llvm&#45;dwarfdump_lib/libLLVMObject.a Pages: 1 -->
<svg width="1944pt" height="847pt"
 viewBox="0.00 0.00 1944.00 847.00" xmlns="http://www.w3.org/2000/svg" xmlns:xlink="http://www.w3.org/1999/xlink">
<g id="graph0" class="graph" transform="scale(1 1) rotate(0) translate(4 843)">
<title>bin/llvm&#45;dwarfdump_lib/libLLVMObject.a</title>
<polygon fill="white" stroke="transparent" points="-4,4 -4,-843 1940,-843 1940,4 -4,4"/>
<text text-anchor="middle" x="968" y="-7.8" font-family="Times,serif" font-size="14.00">bin/llvm&#45;dwarfdump_lib/libLLVMObject.a</text>
<!-- Node0x55e43623ef98 -->
<g id="node1" class="node">
<title>Node0x55e43623ef98</title>
<polygon fill="#7fb2ff" stroke="black" points="318.5,-609 45.5,-609 45.5,-573 318.5,-573 318.5,-609"/>
<text text-anchor="middle" x="182" y="-587.3" font-family="Times,serif" font-size="14.00">{lib/libLLVMObject.a(Binary.cpp.o)}</text>
</g>
<!-- Node0x55e43623d0a8 -->
<g id="node2" class="node">
<title>Node0x55e43623d0a8</title>
<polygon fill="none" stroke="black" points="712.5,-325 446.5,-325 446.5,-289 712.5,-289 712.5,-325"/>
<text text-anchor="middle" x="579.5" y="-303.3" font-family="Times,serif" font-size="14.00">{lib/libLLVMObject.a(Error.cpp.o)}</text>
</g>
<!-- Node0x55e43623ef98&#45;&gt;Node0x55e43623d0a8 -->
<g id="edge1" class="edge">
<title>Node0x55e43623ef98&#45;&gt;Node0x55e43623d0a8</title>
<path fill="none" stroke="black" d="M266.18,-572.94C300.88,-561.45 338.88,-543.06 364,-514 405.17,-466.37 358.16,-424.04 400,-377 420.18,-354.32 448.63,-338.92 476.9,-328.48"/>
<polygon fill="black" stroke="black" points="478.19,-331.74 486.47,-325.13 475.87,-325.13 478.19,-331.74"/>
</g>
<!-- Node0x55e43623adf8 -->
<g id="node3" class="node">
<title>Node0x55e43623adf8</title>
<polygon fill="#7fb2ff" stroke="black" points="753,-509 406,-509 406,-473 753,-473 753,-509"/>
<text text-anchor="middle" x="579.5" y="-487.3" font-family="Times,serif" font-size="14.00">{lib/libLLVMObject.a(MachOUniversal.cpp.o)}</text>
</g>
<!-- Node0x55e43623ef98&#45;&gt;Node0x55e43623adf8 -->
<g id="edge2" class="edge">
<title>Node0x55e43623ef98&#45;&gt;Node0x55e43623adf8</title>
<path fill="none" stroke="#7fb2ff" d="M213.06,-572.97C252.64,-554.8 324.94,-528.03 395.97,-510.06"/>
<polygon fill="#7fb2ff" stroke="#7fb2ff" points="397.11,-513.38 405.98,-507.58 395.43,-506.59 397.11,-513.38"/>
</g>
<!-- Node0x55e43623e9f8 -->
<g id="node4" class="node">
<title>Node0x55e43623e9f8</title>
<polygon fill="#7fb2ff" stroke="black" points="730,-785 429,-785 429,-749 730,-749 730,-785"/>
<text text-anchor="middle" x="579.5" y="-763.3" font-family="Times,serif" font-size="14.00">{lib/libLLVMObject.a(Minidump.cpp.o)}</text>
</g>
<!-- Node0x55e43623ef98&#45;&gt;Node0x55e43623e9f8 -->
<g id="edge3" class="edge">
<title>Node0x55e43623ef98&#45;&gt;Node0x55e43623e9f8</title>
<path fill="none" stroke="#7fb2ff" d="M211.02,-609.14C250.43,-638.77 325.73,-696.19 400,-726 423.47,-735.42 449.79,-742.08 474.86,-747.06"/>
<polygon fill="#7fb2ff" stroke="#7fb2ff" points="474.29,-750.51 484.77,-748.96 475.6,-743.64 474.29,-750.51"/>
</g>
<!-- Node0x55e43623e868 -->
<g id="node5" class="node">
<title>Node0x55e43623e868</title>
<polygon fill="#7fb2ff" stroke="black" points="720.5,-455 438.5,-455 438.5,-419 720.5,-419 720.5,-455"/>
<text text-anchor="middle" x="579.5" y="-433.3" font-family="Times,serif" font-size="14.00">{lib/libLLVMObject.a(Archive.cpp.o)}</text>
</g>
<!-- Node0x55e43623ef98&#45;&gt;Node0x55e43623e868 -->
<g id="edge4" class="edge">
<title>Node0x55e43623ef98&#45;&gt;Node0x55e43623e868</title>
<path fill="none" stroke="#7fb2ff" d="M225.99,-572.93C265.03,-559.31 322.66,-538.06 364,-505 385.39,-487.9 376.63,-469.28 400,-455 408.92,-449.55 418.54,-445.06 428.53,-441.4"/>
<polygon fill="#7fb2ff" stroke="#7fb2ff" points="429.86,-444.65 438.22,-438.13 427.62,-438.01 429.86,-444.65"/>
</g>
<!-- Node0x55e43623afd8 -->
<g id="node6" class="node">
<title>Node0x55e43623afd8</title>
<polygon fill="#7fb2ff" stroke="black" points="739.5,-563 419.5,-563 419.5,-527 739.5,-527 739.5,-563"/>
<text text-anchor="middle" x="579.5" y="-541.3" font-family="Times,serif" font-size="14.00">{lib/libLLVMObject.a(SymbolicFile.cpp.o)}</text>
</g>
<!-- Node0x55e43623ef98&#45;&gt;Node0x55e43623afd8 -->
<g id="edge5" class="edge">
<title>Node0x55e43623ef98&#45;&gt;Node0x55e43623afd8</title>
<path fill="none" stroke="#7fb2ff" d="M286.14,-572.99C323.75,-567.98 367.33,-562.69 409.18,-558.01"/>
<polygon fill="#7fb2ff" stroke="#7fb2ff" points="409.66,-561.47 419.21,-556.89 408.88,-554.52 409.66,-561.47"/>
</g>
<!-- Node0x55e43623ae48 -->
<g id="node7" class="node">
<title>Node0x55e43623ae48</title>
<polygon fill="#7fb2ff" stroke="black" points="743,-839 416,-839 416,-803 743,-803 743,-839"/>
<text text-anchor="middle" x="579.5" y="-817.3" font-family="Times,serif" font-size="14.00">{lib/libLLVMObject.a(TapiUniversal.cpp.o)}</text>
</g>
<!-- Node0x55e43623ef98&#45;&gt;Node0x55e43623ae48 -->
<g id="edge6" class="edge">
<title>Node0x55e43623ef98&#45;&gt;Node0x55e43623ae48</title>
<path fill="none" stroke="#7fb2ff" d="M199.93,-609.11C232.96,-648.74 310.63,-741.71 400,-785 413.54,-791.56 428.27,-796.6 443.28,-800.54"/>
<polygon fill="#7fb2ff" stroke="#7fb2ff" points="442.62,-803.98 453.17,-802.97 444.29,-797.18 442.62,-803.98"/>
</g>
<!-- Node0x55e43623ea98 -->
<g id="node8" class="node">
<title>Node0x55e43623ea98</title>
<polygon fill="#7fb2ff" stroke="black" points="759,-693 400,-693 400,-657 759,-657 759,-693"/>
<text text-anchor="middle" x="579.5" y="-671.3" font-family="Times,serif" font-size="14.00">{lib/libLLVMObject.a(WindowsResource.cpp.o)}</text>
</g>
<!-- Node0x55e43623ef98&#45;&gt;Node0x55e43623ea98 -->
<g id="edge7" class="edge">
<title>Node0x55e43623ef98&#45;&gt;Node0x55e43623ea98</title>
<path fill="none" stroke="#7fb2ff" d="M288.41,-609.03C323.78,-617.12 363.5,-626.36 400,-634 435.19,-641.36 474.5,-648.52 507.25,-655"/>
<polygon fill="#7fb2ff" stroke="#7fb2ff" points="506.7,-658.46 517.2,-656.98 508.08,-651.59 506.7,-658.46"/>
</g>
<!-- Node0x55e43623adf8&#45;&gt;Node0x55e43623ef98 -->
<g id="edge17" class="edge">
<title>Node0x55e43623adf8&#45;&gt;Node0x55e43623ef98</title>
<path fill="none" stroke="#7fb2ff" d="M494.82,-509.04C464.7,-513.84 430.62,-519.59 400,-527 352.43,-538.51 300.42,-555.83 259.25,-569.71"/>
<polygon fill="#7fb2ff" stroke="#7fb2ff" points="257.92,-566.47 249.56,-572.98 260.15,-573.1 257.92,-566.47"/>
</g>
<!-- Node0x55e43623adf8&#45;&gt;Node0x55e43623d0a8 -->
<g id="edge13" class="edge">
<title>Node0x55e43623adf8&#45;&gt;Node0x55e43623d0a8</title>
<path fill="none" stroke="black" d="M405.99,-479.76C396.53,-473.35 388.32,-465.23 382,-455 369.5,-434.77 369.5,-368.23 382,-348 394.53,-327.73 414.34,-315.34 436.69,-308.07"/>
<polygon fill="black" stroke="black" points="437.77,-311.4 446.41,-305.26 435.83,-304.68 437.77,-311.4"/>
</g>
<!-- Node0x55e43623adf8&#45;&gt;Node0x55e43623e868 -->
<g id="edge16" class="edge">
<title>Node0x55e43623adf8&#45;&gt;Node0x55e43623e868</title>
<path fill="none" stroke="#7fb2ff" d="M579.5,-472.79C579.5,-470.31 579.5,-467.83 579.5,-465.34"/>
<polygon fill="#7fb2ff" stroke="#7fb2ff" points="583,-465.14 579.5,-455.14 576,-465.14 583,-465.14"/>
</g>
<!-- Node0x55e43623c978 -->
<g id="node9" class="node">
<title>Node0x55e43623c978</title>
<polygon fill="#7fb2ff" stroke="black" points="1147,-563 795,-563 795,-527 1147,-527 1147,-563"/>
<text text-anchor="middle" x="971" y="-541.3" font-family="Times,serif" font-size="14.00">{lib/libLLVMObject.a(MachOObjectFile.cpp.o)}</text>
</g>
<!-- Node0x55e43623adf8&#45;&gt;Node0x55e43623c978 -->
<g id="edge14" class="edge">
<title>Node0x55e43623adf8&#45;&gt;Node0x55e43623c978</title>
<path fill="none" stroke="#7fb2ff" d="M710.47,-509.02C748.75,-514.33 790.8,-520.16 829.7,-525.55"/>
<polygon fill="#7fb2ff" stroke="#7fb2ff" points="829.66,-529.08 840.04,-526.98 830.62,-522.14 829.66,-529.08"/>
</g>
<!-- Node0x55e43623ba78 -->
<g id="node10" class="node">
<title>Node0x55e43623ba78</title>
<polygon fill="#7fb2ff" stroke="black" points="1129.5,-379 812.5,-379 812.5,-343 1129.5,-343 1129.5,-379"/>
<text text-anchor="middle" x="971" y="-357.3" font-family="Times,serif" font-size="14.00">{lib/libLLVMObject.a(IRObjectFile.cpp.o)}</text>
</g>
<!-- Node0x55e43623adf8&#45;&gt;Node0x55e43623ba78 -->
<g id="edge15" class="edge">
<title>Node0x55e43623adf8&#45;&gt;Node0x55e43623ba78</title>
<path fill="none" stroke="#7fb2ff" d="M744.62,-472.95C749.62,-470.28 754.43,-467.3 759,-464 787.67,-443.28 766.65,-414.16 795,-393 799.56,-389.59 804.38,-386.51 809.38,-383.73"/>
<polygon fill="#7fb2ff" stroke="#7fb2ff" points="811.27,-386.69 818.58,-379.02 808.09,-380.46 811.27,-386.69"/>
</g>
<!-- Node0x55e43623e9f8&#45;&gt;Node0x55e43623ef98 -->
<g id="edge34" class="edge">
<title>Node0x55e43623e9f8&#45;&gt;Node0x55e43623ef98</title>
<path fill="none" stroke="#7fb2ff" d="M428.68,-753.84C418.85,-750.96 409.2,-747.69 400,-744 322.04,-712.72 242.95,-651 205.42,-616.06"/>
<polygon fill="#7fb2ff" stroke="#7fb2ff" points="207.71,-613.4 198.06,-609.03 202.88,-618.46 207.71,-613.4"/>
</g>
<!-- Node0x55e43623e9f8&#45;&gt;Node0x55e43623d0a8 -->
<g id="edge32" class="edge">
<title>Node0x55e43623e9f8&#45;&gt;Node0x55e43623d0a8</title>
<path fill="none" stroke="black" d="M458.63,-748.91C428.06,-738.01 399.08,-720.64 382,-693 365.99,-667.1 366.68,-445.31 382,-419 408.25,-373.94 460.11,-345.54 504.1,-328.62"/>
<polygon fill="black" stroke="black" points="505.49,-331.84 513.65,-325.08 503.05,-325.27 505.49,-331.84"/>
</g>
<!-- Node0x55e43623e9f8&#45;&gt;Node0x55e43623e868 -->
<g id="edge33" class="edge">
<title>Node0x55e43623e9f8&#45;&gt;Node0x55e43623e868</title>
<path fill="none" stroke="#7fb2ff" d="M458.63,-748.91C428.06,-738.01 399.08,-720.64 382,-693 369.15,-672.21 369.15,-493.79 382,-473 392.94,-455.29 409.53,-443.89 428.53,-436.81"/>
<polygon fill="#7fb2ff" stroke="#7fb2ff" points="429.64,-440.13 438.04,-433.67 427.45,-433.48 429.64,-440.13"/>
</g>
<!-- Node0x55e43623e868&#45;&gt;Node0x55e43623ef98 -->
<g id="edge19" class="edge">
<title>Node0x55e43623e868&#45;&gt;Node0x55e43623ef98</title>
<path fill="none" stroke="#7fb2ff" d="M441.44,-455.05C426.84,-459.43 412.7,-465.24 400,-473 376.63,-487.28 385.39,-505.9 364,-523 339.56,-542.54 309.42,-557.96 280.8,-569.29"/>
<polygon fill="#7fb2ff" stroke="#7fb2ff" points="279.25,-566.14 271.16,-572.98 281.75,-572.67 279.25,-566.14"/>
</g>
<!-- Node0x55e43623e868&#45;&gt;Node0x55e43623d0a8 -->
<g id="edge18" class="edge">
<title>Node0x55e43623e868&#45;&gt;Node0x55e43623d0a8</title>
<path fill="none" stroke="black" d="M579.5,-418.63C579.5,-390.84 579.5,-363.05 579.5,-335.27"/>
<polygon fill="black" stroke="black" points="583,-335.03 579.5,-325.03 576,-335.03 583,-335.03"/>
</g>
<!-- Node0x55e43623afd8&#45;&gt;Node0x55e43623ef98 -->
<g id="edge39" class="edge">
<title>Node0x55e43623afd8&#45;&gt;Node0x55e43623ef98</title>
<path fill="none" stroke="#7fb2ff" d="M475.29,-563.02C430.5,-568.98 377.25,-575.35 328.55,-580.61"/>
<polygon fill="#7fb2ff" stroke="#7fb2ff" points="328.13,-577.13 318.56,-581.68 328.87,-584.09 328.13,-577.13"/>
</g>
<!-- Node0x55e43623afd8&#45;&gt;Node0x55e43623d0a8 -->
<g id="edge35" class="edge">
<title>Node0x55e43623afd8&#45;&gt;Node0x55e43623d0a8</title>
<path fill="none" stroke="black" d="M419.46,-541.38C404.28,-534.23 391.16,-523.82 382,-509 367.63,-485.75 367.63,-409.25 382,-386 399.2,-358.17 428.14,-340.14 458.65,-328.46"/>
<polygon fill="black" stroke="black" points="459.93,-331.72 468.15,-325.04 457.56,-325.14 459.93,-331.72"/>
</g>
<!-- Node0x55e43623afd8&#45;&gt;Node0x55e43623e868 -->
<g id="edge38" class="edge">
<title>Node0x55e43623afd8&#45;&gt;Node0x55e43623e868</title>
<path fill="none" stroke="#7fb2ff" d="M419.28,-529.63C385.23,-519.17 364.2,-501.79 382,-473 392.94,-455.29 409.53,-443.89 428.53,-436.81"/>
<polygon fill="#7fb2ff" stroke="#7fb2ff" points="429.64,-440.13 438.04,-433.67 427.45,-433.48 429.64,-440.13"/>
</g>
<!-- Node0x55e43623afd8&#45;&gt;Node0x55e43623ba78 -->
<g id="edge36" class="edge">
<title>Node0x55e43623afd8&#45;&gt;Node0x55e43623ba78</title>
<path fill="none" stroke="#7fb2ff" d="M730.61,-526.97C740.89,-522.33 750.52,-516.44 759,-509 802.45,-470.87 752.14,-422.8 795,-384 797.86,-381.41 800.85,-379 803.97,-376.76"/>
<polygon fill="#7fb2ff" stroke="#7fb2ff" points="806.02,-379.6 812.47,-371.2 802.18,-373.74 806.02,-379.6"/>
</g>
<!-- Node0x55e43623daa8 -->
<g id="node11" class="node">
<title>Node0x55e43623daa8</title>
<polygon fill="#7fb2ff" stroke="black" points="1122,-471 820,-471 820,-435 1122,-435 1122,-471"/>
<text text-anchor="middle" x="971" y="-449.3" font-family="Times,serif" font-size="14.00">{lib/libLLVMObject.a(ObjectFile.cpp.o)}</text>
</g>
<!-- Node0x55e43623afd8&#45;&gt;Node0x55e43623daa8 -->
<g id="edge37" class="edge">
<title>Node0x55e43623afd8&#45;&gt;Node0x55e43623daa8</title>
<path fill="none" stroke="#7fb2ff" d="M661.39,-526.95C692.14,-522.02 727.37,-516.22 759,-509 801.02,-499.41 846.84,-485.7 885.01,-474.11"/>
<polygon fill="#7fb2ff" stroke="#7fb2ff" points="886.5,-477.31 895.05,-471.05 884.47,-470.61 886.5,-477.31"/>
</g>
<!-- Node0x55e43623ae48&#45;&gt;Node0x55e43623ef98 -->
<g id="edge41" class="edge">
<title>Node0x55e43623ae48&#45;&gt;Node0x55e43623ef98</title>
<path fill="none" stroke="#7fb2ff" d="M415.69,-809.76C410.32,-807.71 405.08,-805.46 400,-803 309.49,-759.16 231,-664.38 198.7,-617.68"/>
<polygon fill="#7fb2ff" stroke="#7fb2ff" points="201.53,-615.62 193.04,-609.28 195.73,-619.53 201.53,-615.62"/>
</g>
<!-- Node0x55e43623ae48&#45;&gt;Node0x55e43623e868 -->
<g id="edge40" class="edge">
<title>Node0x55e43623ae48&#45;&gt;Node0x55e43623e868</title>
<path fill="none" stroke="#7fb2ff" d="M415.85,-815.6C402.21,-808.54 390.43,-798.64 382,-785 363.77,-755.51 363.77,-502.49 382,-473 392.94,-455.29 409.53,-443.89 428.53,-436.81"/>
<polygon fill="#7fb2ff" stroke="#7fb2ff" points="429.64,-440.13 438.04,-433.67 427.45,-433.48 429.64,-440.13"/>
</g>
<!-- Node0x55e43623ea98&#45;&gt;Node0x55e43623ef98 -->
<g id="edge44" class="edge">
<title>Node0x55e43623ea98&#45;&gt;Node0x55e43623ef98</title>
<path fill="none" stroke="#7fb2ff" d="M424.55,-656.97C416.24,-655.34 408.01,-653.68 400,-652 343.89,-640.26 280.14,-624.72 236.34,-611.95"/>
<polygon fill="#7fb2ff" stroke="#7fb2ff" points="237.06,-608.52 226.48,-609.02 235.06,-615.23 237.06,-608.52"/>
</g>
<!-- Node0x55e43623ea98&#45;&gt;Node0x55e43623d0a8 -->
<g id="edge42" class="edge">
<title>Node0x55e43623ea98&#45;&gt;Node0x55e43623d0a8</title>
<path fill="none" stroke="black" d="M513.65,-656.92C467.86,-640.54 410.17,-611.37 382,-563 365.89,-535.35 365.89,-446.65 382,-419 408.25,-373.94 460.11,-345.54 504.1,-328.62"/>
<polygon fill="black" stroke="black" points="505.49,-331.84 513.65,-325.08 503.05,-325.27 505.49,-331.84"/>
</g>
<!-- Node0x55e43623ea98&#45;&gt;Node0x55e43623e868 -->
<g id="edge43" class="edge">
<title>Node0x55e43623ea98&#45;&gt;Node0x55e43623e868</title>
<path fill="none" stroke="#7fb2ff" d="M513.65,-656.92C467.86,-640.54 410.17,-611.37 382,-563 361.87,-528.44 360.97,-507.03 382,-473 392.94,-455.29 409.53,-443.89 428.53,-436.81"/>
<polygon fill="#7fb2ff" stroke="#7fb2ff" points="429.64,-440.13 438.04,-433.67 427.45,-433.48 429.64,-440.13"/>
</g>
<!-- Node0x55e43623ec78 -->
<g id="node12" class="node">
<title>Node0x55e43623ec78</title>
<polygon fill="#7fb2ff" stroke="black" points="1143,-693 799,-693 799,-657 1143,-657 1143,-693"/>
<text text-anchor="middle" x="971" y="-671.3" font-family="Times,serif" font-size="14.00">{lib/libLLVMObject.a(WasmObjectFile.cpp.o)}</text>
</g>
<!-- Node0x55e43623ea98&#45;&gt;Node0x55e43623ec78 -->
<g id="edge45" class="edge">
<title>Node0x55e43623ea98&#45;&gt;Node0x55e43623ec78</title>
<path fill="none" stroke="#7fb2ff" d="M759.01,-675C768.88,-675 778.82,-675 788.71,-675"/>
<polygon fill="#7fb2ff" stroke="#7fb2ff" points="788.99,-678.5 798.99,-675 788.99,-671.5 788.99,-678.5"/>
</g>
<!-- Node0x55e43623c978&#45;&gt;Node0x55e43623ef98 -->
<g id="edge11" class="edge">
<title>Node0x55e43623c978&#45;&gt;Node0x55e43623ef98</title>
<path fill="none" stroke="#7fb2ff" d="M844.68,-563.01C816.55,-566.5 786.79,-569.77 759,-572 612.91,-583.73 445.42,-588.26 328.85,-589.98"/>
<polygon fill="#7fb2ff" stroke="#7fb2ff" points="328.74,-586.48 318.79,-590.13 328.84,-593.48 328.74,-586.48"/>
</g>
<!-- Node0x55e43623c978&#45;&gt;Node0x55e43623d0a8 -->
<g id="edge8" class="edge">
<title>Node0x55e43623c978&#45;&gt;Node0x55e43623d0a8</title>
<path fill="none" stroke="black" d="M884.4,-526.98C853.5,-517.15 820.09,-502.26 795,-480 768.83,-456.78 783.13,-435.33 759,-410 724.64,-373.94 674.87,-346.64 636.61,-329.24"/>
<polygon fill="black" stroke="black" points="637.7,-325.9 627.14,-325.03 634.86,-332.29 637.7,-325.9"/>
</g>
<!-- Node0x55e43623c978&#45;&gt;Node0x55e43623e868 -->
<g id="edge10" class="edge">
<title>Node0x55e43623c978&#45;&gt;Node0x55e43623e868</title>
<path fill="none" stroke="#7fb2ff" d="M823.08,-526.94C813.24,-523.09 803.77,-518.49 795,-513 772.09,-498.67 782.13,-477.98 759,-464 750.06,-458.59 740.41,-454.14 730.41,-450.48"/>
<polygon fill="#7fb2ff" stroke="#7fb2ff" points="731.31,-447.09 720.71,-447.21 729.07,-453.72 731.31,-447.09"/>
</g>
<!-- Node0x55e43623c978&#45;&gt;Node0x55e43623afd8 -->
<g id="edge12" class="edge">
<title>Node0x55e43623c978&#45;&gt;Node0x55e43623afd8</title>
<path fill="none" stroke="#7fb2ff" d="M794.94,-545C780.01,-545 764.92,-545 750.04,-545"/>
<polygon fill="#7fb2ff" stroke="#7fb2ff" points="749.77,-541.5 739.77,-545 749.77,-548.5 749.77,-541.5"/>
</g>
<!-- Node0x55e43623c978&#45;&gt;Node0x55e43623daa8 -->
<g id="edge9" class="edge">
<title>Node0x55e43623c978&#45;&gt;Node0x55e43623daa8</title>
<path fill="none" stroke="#7fb2ff" d="M1042.45,-526.95C1094.8,-509.45 1097.98,-491.94 1051.97,-474.44"/>
<polygon fill="#7fb2ff" stroke="#7fb2ff" points="1053.06,-471.11 1042.47,-471.06 1050.71,-477.71 1053.06,-471.11"/>
</g>
<!-- Node0x55e43623ba78&#45;&gt;Node0x55e43623ef98 -->
<g id="edge50" class="edge">
<title>Node0x55e43623ba78&#45;&gt;Node0x55e43623ef98</title>
<path fill="none" stroke="#7fb2ff" d="M812.35,-365.83C654.97,-372.03 431.98,-385.09 400,-410 361.41,-440.05 397.37,-478.24 364,-514 339.51,-540.24 304.61,-557.92 271.98,-569.64"/>
<polygon fill="#7fb2ff" stroke="#7fb2ff" points="270.71,-566.37 262.4,-572.93 272.99,-572.99 270.71,-566.37"/>
</g>
<!-- Node0x55e43623ba78&#45;&gt;Node0x55e43623d0a8 -->
<g id="edge46" class="edge">
<title>Node0x55e43623ba78&#45;&gt;Node0x55e43623d0a8</title>
<path fill="none" stroke="black" d="M840.04,-342.98C801.76,-337.68 759.72,-331.85 720.82,-326.45"/>
<polygon fill="black" stroke="black" points="720.85,-322.93 710.47,-325.02 719.89,-329.86 720.85,-322.93"/>
</g>
<!-- Node0x55e43623ba78&#45;&gt;Node0x55e43623e868 -->
<g id="edge49" class="edge">
<title>Node0x55e43623ba78&#45;&gt;Node0x55e43623e868</title>
<path fill="none" stroke="#7fb2ff" d="M857.93,-379.07C836.9,-383.14 815.19,-387.82 795,-393 778.66,-397.19 775.34,-400.83 759,-405 741.75,-409.4 723.42,-413.41 705.32,-417"/>
<polygon fill="#7fb2ff" stroke="#7fb2ff" points="704.44,-413.6 695.3,-418.95 705.78,-420.47 704.44,-413.6"/>
</g>
<!-- Node0x55e43623ba78&#45;&gt;Node0x55e43623afd8 -->
<g id="edge51" class="edge">
<title>Node0x55e43623ba78&#45;&gt;Node0x55e43623afd8</title>
<path fill="none" stroke="#7fb2ff" d="M833.35,-379.12C819.29,-384.56 806.11,-391.95 795,-402 752.14,-440.8 802.45,-488.87 759,-527 755.69,-529.91 752.2,-532.58 748.57,-535.02"/>
<polygon fill="#7fb2ff" stroke="#7fb2ff" points="746.56,-532.15 739.84,-540.34 750.2,-538.13 746.56,-532.15"/>
</g>
<!-- Node0x55e43623ba78&#45;&gt;Node0x55e43623daa8 -->
<g id="edge48" class="edge">
<title>Node0x55e43623ba78&#45;&gt;Node0x55e43623daa8</title>
<path fill="none" stroke="#7fb2ff" d="M895.99,-379.06C840.93,-396.6 837.7,-414.13 886.32,-431.67"/>
<polygon fill="#7fb2ff" stroke="#7fb2ff" points="885.41,-435.06 896.01,-434.95 887.65,-428.43 885.41,-435.06"/>
</g>
<!-- Node0x55e43623f5d8 -->
<g id="node13" class="node">
<title>Node0x55e43623f5d8</title>
<polygon fill="none" stroke="black" points="1556,-59 1183,-59 1183,-23 1556,-23 1556,-59"/>
<text text-anchor="middle" x="1369.5" y="-37.3" font-family="Times,serif" font-size="14.00">{lib/libLLVMObject.a(ModuleSymbolTable.cpp.o)}</text>
</g>
<!-- Node0x55e43623ba78&#45;&gt;Node0x55e43623f5d8 -->
<g id="edge47" class="edge">
<title>Node0x55e43623ba78&#45;&gt;Node0x55e43623f5d8</title>
<path fill="none" stroke="black" d="M994.45,-342.88C1061.63,-288.66 1261.13,-127.65 1337.91,-65.69"/>
<polygon fill="black" stroke="black" points="1340.22,-68.32 1345.8,-59.32 1335.82,-62.88 1340.22,-68.32"/>
</g>
<!-- Node0x55e43623daa8&#45;&gt;Node0x55e43623d0a8 -->
<g id="edge20" class="edge">
<title>Node0x55e43623daa8&#45;&gt;Node0x55e43623d0a8</title>
<path fill="none" stroke="black" d="M921.32,-435C886.19,-421.99 837.64,-403.97 795,-388 741.63,-368.01 680.86,-345.05 637.67,-328.68"/>
<polygon fill="black" stroke="black" points="638.77,-325.36 628.18,-325.09 636.29,-331.91 638.77,-325.36"/>
</g>
<!-- Node0x55e43623daa8&#45;&gt;Node0x55e43623e868 -->
<g id="edge25" class="edge">
<title>Node0x55e43623daa8&#45;&gt;Node0x55e43623e868</title>
<path fill="none" stroke="#7fb2ff" d="M819.99,-446.84C790.75,-445.64 760.1,-444.38 730.85,-443.18"/>
<polygon fill="#7fb2ff" stroke="#7fb2ff" points="730.7,-439.67 720.57,-442.75 730.42,-446.66 730.7,-439.67"/>
</g>
<!-- Node0x55e43623daa8&#45;&gt;Node0x55e43623afd8 -->
<g id="edge26" class="edge">
<title>Node0x55e43623daa8&#45;&gt;Node0x55e43623afd8</title>
<path fill="none" stroke="#7fb2ff" d="M937.16,-471.08C896,-488.17 823.09,-512.37 759,-527 755.97,-527.69 752.9,-528.37 749.81,-529.04"/>
<polygon fill="#7fb2ff" stroke="#7fb2ff" points="748.92,-525.65 739.85,-531.12 750.35,-532.5 748.92,-525.65"/>
</g>
<!-- Node0x55e43623daa8&#45;&gt;Node0x55e43623c978 -->
<g id="edge21" class="edge">
<title>Node0x55e43623daa8&#45;&gt;Node0x55e43623c978</title>
<path fill="none" stroke="#7fb2ff" d="M899.53,-471.06C847.19,-488.56 844.03,-506.06 890.04,-523.56"/>
<polygon fill="#7fb2ff" stroke="#7fb2ff" points="888.96,-526.89 899.55,-526.95 891.31,-520.3 888.96,-526.89"/>
</g>
<!-- Node0x55e43623daa8&#45;&gt;Node0x55e43623ba78 -->
<g id="edge22" class="edge">
<title>Node0x55e43623daa8&#45;&gt;Node0x55e43623ba78</title>
<path fill="none" stroke="#7fb2ff" d="M1045.99,-434.95C1101.07,-417.41 1104.3,-399.87 1055.69,-382.33"/>
<polygon fill="#7fb2ff" stroke="#7fb2ff" points="1056.61,-378.95 1046.01,-379.06 1054.37,-385.58 1056.61,-378.95"/>
</g>
<!-- Node0x55e43623daa8&#45;&gt;Node0x55e43623ec78 -->
<g id="edge27" class="edge">
<title>Node0x55e43623daa8&#45;&gt;Node0x55e43623ec78</title>
<path fill="none" stroke="#7fb2ff" d="M854.73,-471.04C826.09,-481.52 799.05,-498.03 783,-524 769.8,-545.36 769.8,-615.64 783,-637 785.93,-641.75 789.29,-646.03 793,-649.9"/>
<polygon fill="#7fb2ff" stroke="#7fb2ff" points="790.82,-652.65 800.55,-656.84 795.55,-647.5 790.82,-652.65"/>
</g>
<!-- Node0x55e43623d418 -->
<g id="node14" class="node">
<title>Node0x55e43623d418</title>
<polygon fill="#7fb2ff" stroke="black" points="1535,-563 1204,-563 1204,-527 1535,-527 1535,-563"/>
<text text-anchor="middle" x="1369.5" y="-541.3" font-family="Times,serif" font-size="14.00">{lib/libLLVMObject.a(ELFObjectFile.cpp.o)}</text>
</g>
<!-- Node0x55e43623daa8&#45;&gt;Node0x55e43623d418 -->
<g id="edge23" class="edge">
<title>Node0x55e43623daa8&#45;&gt;Node0x55e43623d418</title>
<path fill="none" stroke="#7fb2ff" d="M1122.05,-470.6C1130.5,-472.35 1138.87,-474.16 1147,-476 1207.15,-489.62 1275.54,-508.71 1320.22,-523.66"/>
<polygon fill="#7fb2ff" stroke="#7fb2ff" points="1319.34,-527.06 1329.93,-526.98 1321.6,-520.43 1319.34,-527.06"/>
</g>
<!-- Node0x55e436237b58 -->
<g id="node15" class="node">
<title>Node0x55e436237b58</title>
<polygon fill="#7fb2ff" stroke="black" points="1541,-425 1198,-425 1198,-389 1541,-389 1541,-425"/>
<text text-anchor="middle" x="1369.5" y="-403.3" font-family="Times,serif" font-size="14.00">{lib/libLLVMObject.a(COFFObjectFile.cpp.o)}</text>
</g>
<!-- Node0x55e43623daa8&#45;&gt;Node0x55e436237b58 -->
<g id="edge24" class="edge">
<title>Node0x55e43623daa8&#45;&gt;Node0x55e436237b58</title>
<path fill="none" stroke="#7fb2ff" d="M1075.4,-434.99C1109.73,-430.43 1149.03,-425.63 1187.46,-421.28"/>
<polygon fill="#7fb2ff" stroke="#7fb2ff" points="1188.19,-424.72 1197.74,-420.12 1187.41,-417.76 1188.19,-424.72"/>
</g>
<!-- Node0x55e43623f0d8 -->
<g id="node16" class="node">
<title>Node0x55e43623f0d8</title>
<polygon fill="#7fb2ff" stroke="black" points="1546,-479 1193,-479 1193,-443 1546,-443 1546,-479"/>
<text text-anchor="middle" x="1369.5" y="-457.3" font-family="Times,serif" font-size="14.00">{lib/libLLVMObject.a(XCOFFObjectFile.cpp.o)}</text>
</g>
<!-- Node0x55e43623daa8&#45;&gt;Node0x55e43623f0d8 -->
<g id="edge28" class="edge">
<title>Node0x55e43623daa8&#45;&gt;Node0x55e43623f0d8</title>
<path fill="none" stroke="#7fb2ff" d="M1122.18,-449.46C1141.96,-449.71 1162.43,-450.07 1182.71,-450.51"/>
<polygon fill="#7fb2ff" stroke="#7fb2ff" points="1182.9,-454.02 1192.98,-450.75 1183.06,-447.02 1182.9,-454.02"/>
</g>
<!-- Node0x55e43623ec78&#45;&gt;Node0x55e43623ef98 -->
<g id="edge72" class="edge">
<title>Node0x55e43623ec78&#45;&gt;Node0x55e43623ef98</title>
<path fill="none" stroke="#7fb2ff" d="M833.86,-657C808.97,-653.87 783.22,-650.75 759,-648 612.74,-631.41 445.28,-615.14 328.76,-604.26"/>
<polygon fill="#7fb2ff" stroke="#7fb2ff" points="328.98,-600.77 318.7,-603.32 328.33,-607.74 328.98,-600.77"/>
</g>
<!-- Node0x55e43623ec78&#45;&gt;Node0x55e43623d0a8 -->
<g id="edge68" class="edge">
<title>Node0x55e43623ec78&#45;&gt;Node0x55e43623d0a8</title>
<path fill="none" stroke="black" d="M916.38,-656.85C876.85,-640.71 824.96,-613.2 795,-572 751.62,-512.35 802.63,-469.46 759,-410 730.9,-371.71 683.95,-345.43 645.24,-329.01"/>
<polygon fill="black" stroke="black" points="646.18,-325.61 635.6,-325.04 643.52,-332.08 646.18,-325.61"/>
</g>
<!-- Node0x55e43623ec78&#45;&gt;Node0x55e43623e868 -->
<g id="edge71" class="edge">
<title>Node0x55e43623ec78&#45;&gt;Node0x55e43623e868</title>
<path fill="none" stroke="#7fb2ff" d="M919.97,-656.96C880.82,-640.46 827.71,-612.42 795,-572 763.17,-532.67 797.71,-496.58 759,-464 750.28,-456.66 740.44,-450.87 729.97,-446.32"/>
<polygon fill="#7fb2ff" stroke="#7fb2ff" points="731.21,-443.05 720.62,-442.64 728.65,-449.56 731.21,-443.05"/>
</g>
<!-- Node0x55e43623ec78&#45;&gt;Node0x55e43623afd8 -->
<g id="edge73" class="edge">
<title>Node0x55e43623ec78&#45;&gt;Node0x55e43623afd8</title>
<path fill="none" stroke="#7fb2ff" d="M834.25,-656.94C820.71,-653.14 807.4,-648.55 795,-643 776.5,-634.72 776.62,-625.03 759,-615 724.09,-595.13 682.44,-578.45 648.15,-566.35"/>
<polygon fill="#7fb2ff" stroke="#7fb2ff" points="649.28,-563.04 638.69,-563.06 646.99,-569.65 649.28,-563.04"/>
</g>
<!-- Node0x55e43623ec78&#45;&gt;Node0x55e43623c978 -->
<g id="edge69" class="edge">
<title>Node0x55e43623ec78&#45;&gt;Node0x55e43623c978</title>
<path fill="none" stroke="#7fb2ff" d="M971,-656.63C971,-628.84 971,-601.05 971,-573.27"/>
<polygon fill="#7fb2ff" stroke="#7fb2ff" points="974.5,-573.03 971,-563.03 967.5,-573.03 974.5,-573.03"/>
</g>
<!-- Node0x55e43623ec78&#45;&gt;Node0x55e43623daa8 -->
<g id="edge70" class="edge">
<title>Node0x55e43623ec78&#45;&gt;Node0x55e43623daa8</title>
<path fill="none" stroke="#7fb2ff" d="M798.79,-658.9C787.75,-651.78 778.2,-642.64 771,-631 759.2,-611.91 759.2,-549.09 771,-530 787.46,-503.37 814.71,-485.93 843.87,-474.51"/>
<polygon fill="#7fb2ff" stroke="#7fb2ff" points="845.21,-477.74 853.39,-471.01 842.8,-471.17 845.21,-477.74"/>
</g>
<!-- Node0x55e43623c018 -->
<g id="node19" class="node">
<title>Node0x55e43623c018</title>
<polygon fill="none" stroke="black" points="1936,-59 1592,-59 1592,-23 1936,-23 1936,-59"/>
<text text-anchor="middle" x="1764" y="-37.3" font-family="Times,serif" font-size="14.00">{lib/libLLVMObject.a(RecordStreamer.cpp.o)}</text>
</g>
<!-- Node0x55e43623f5d8&#45;&gt;Node0x55e43623c018 -->
<g id="edge52" class="edge">
<title>Node0x55e43623f5d8&#45;&gt;Node0x55e43623c018</title>
<path fill="none" stroke="black" d="M1556.12,-41C1564.67,-41 1573.25,-41 1581.79,-41"/>
<polygon fill="black" stroke="black" points="1581.8,-44.5 1591.8,-41 1581.8,-37.5 1581.8,-44.5"/>
</g>
<!-- Node0x55e43623d418&#45;&gt;Node0x55e43623ef98 -->
<g id="edge61" class="edge">
<title>Node0x55e43623d418&#45;&gt;Node0x55e43623ef98</title>
<path fill="none" stroke="#7fb2ff" d="M1351.42,-563.01C1316.83,-598.01 1234.36,-674.18 1147,-702 1067.91,-727.19 480.69,-721.44 400,-702 330.44,-685.24 258.1,-642.19 217,-614.9"/>
<polygon fill="#7fb2ff" stroke="#7fb2ff" points="218.72,-611.84 208.47,-609.16 214.81,-617.65 218.72,-611.84"/>
</g>
<!-- Node0x55e43623d418&#45;&gt;Node0x55e43623d0a8 -->
<g id="edge55" class="edge">
<title>Node0x55e43623d418&#45;&gt;Node0x55e43623d0a8</title>
<path fill="none" stroke="black" d="M1242,-526.82C1219.65,-518.3 1198.58,-505.92 1183,-488 1116.55,-411.57 1224.06,-328.71 1147,-263 1076.35,-202.76 803.32,-254.89 663.72,-286.72"/>
<polygon fill="black" stroke="black" points="662.87,-283.32 653.91,-288.97 664.44,-290.15 662.87,-283.32"/>
</g>
<!-- Node0x55e43623d418&#45;&gt;Node0x55e43623e9f8 -->
<g id="edge57" class="edge">
<title>Node0x55e43623d418&#45;&gt;Node0x55e43623e9f8</title>
<path fill="none" stroke="#7fb2ff" d="M1354.6,-563.16C1322.91,-602.95 1240.76,-697.25 1147,-735 1075.83,-763.65 881.55,-769.28 740.31,-769.3"/>
<polygon fill="#7fb2ff" stroke="#7fb2ff" points="740.24,-765.8 730.24,-769.29 740.23,-772.8 740.24,-765.8"/>
</g>
<!-- Node0x55e43623d418&#45;&gt;Node0x55e43623e868 -->
<g id="edge60" class="edge">
<title>Node0x55e43623d418&#45;&gt;Node0x55e43623e868</title>
<path fill="none" stroke="#7fb2ff" d="M1223.17,-527C1197.79,-523.93 1171.63,-520.83 1147,-518 990.68,-500.04 946.95,-520.89 795,-480 778.09,-475.45 775.81,-468.91 759,-464 749.75,-461.3 740.14,-458.86 730.41,-456.65"/>
<polygon fill="#7fb2ff" stroke="#7fb2ff" points="731.15,-453.23 720.63,-454.52 729.66,-460.07 731.15,-453.23"/>
</g>
<!-- Node0x55e43623d418&#45;&gt;Node0x55e43623afd8 -->
<g id="edge62" class="edge">
<title>Node0x55e43623d418&#45;&gt;Node0x55e43623afd8</title>
<path fill="none" stroke="#7fb2ff" d="M1316.93,-563.14C1272.54,-577.75 1206.44,-597.09 1147,-605 991.92,-625.63 949.99,-626.27 795,-605 741.51,-597.66 682.56,-580.48 640.02,-566.37"/>
<polygon fill="#7fb2ff" stroke="#7fb2ff" points="640.98,-563 630.39,-563.14 638.75,-569.64 640.98,-563"/>
</g>
<!-- Node0x55e43623d418&#45;&gt;Node0x55e43623c978 -->
<g id="edge56" class="edge">
<title>Node0x55e43623d418&#45;&gt;Node0x55e43623c978</title>
<path fill="none" stroke="#7fb2ff" d="M1203.86,-545C1188.48,-545 1172.82,-545 1157.26,-545"/>
<polygon fill="#7fb2ff" stroke="#7fb2ff" points="1157.06,-541.5 1147.06,-545 1157.06,-548.5 1157.06,-541.5"/>
</g>
<!-- Node0x55e43623d418&#45;&gt;Node0x55e43623daa8 -->
<g id="edge58" class="edge">
<title>Node0x55e43623d418&#45;&gt;Node0x55e43623daa8</title>
<path fill="none" stroke="#7fb2ff" d="M1278.13,-526.94C1238.14,-516.51 1190.42,-503.83 1147,-494 1113.43,-486.4 1075.93,-479.35 1044.27,-473.07"/>
<polygon fill="#7fb2ff" stroke="#7fb2ff" points="1044.71,-469.59 1034.21,-471.06 1043.33,-476.46 1044.71,-469.59"/>
</g>
<!-- Node0x55e43623e098 -->
<g id="node21" class="node">
<title>Node0x55e43623e098</title>
<polygon fill="#7fb2ff" stroke="black" points="1891.5,-563 1636.5,-563 1636.5,-527 1891.5,-527 1891.5,-563"/>
<text text-anchor="middle" x="1764" y="-541.3" font-family="Times,serif" font-size="14.00">{lib/libLLVMObject.a(ELF.cpp.o)}</text>
</g>
<!-- Node0x55e43623d418&#45;&gt;Node0x55e43623e098 -->
<g id="edge59" class="edge">
<title>Node0x55e43623d418&#45;&gt;Node0x55e43623e098</title>
<path fill="none" stroke="#7fb2ff" d="M1535.25,-538.33C1565.46,-538.18 1596.7,-538.25 1625.99,-538.53"/>
<polygon fill="#7fb2ff" stroke="#7fb2ff" points="1626.23,-542.03 1636.27,-538.64 1626.31,-535.03 1626.23,-542.03"/>
</g>
<!-- Node0x55e436237b58&#45;&gt;Node0x55e43623d0a8 -->
<g id="edge63" class="edge">
<title>Node0x55e436237b58&#45;&gt;Node0x55e43623d0a8</title>
<path fill="none" stroke="black" d="M1353.06,-388.86C1319.92,-351.5 1237.58,-266.9 1147,-236 965.46,-174.08 734.69,-246.34 632.84,-285.3"/>
<polygon fill="black" stroke="black" points="631.45,-282.09 623.39,-288.96 633.98,-288.61 631.45,-282.09"/>
</g>
<!-- Node0x55e436237b58&#45;&gt;Node0x55e43623e868 -->
<g id="edge66" class="edge">
<title>Node0x55e436237b58&#45;&gt;Node0x55e43623e868</title>
<path fill="none" stroke="#7fb2ff" d="M1346,-388.99C1307.8,-359.7 1226.65,-302.92 1147,-282 995.69,-242.25 933.58,-209.39 795,-282 770.1,-295.05 779.68,-314.96 759,-334 721.52,-368.52 670.49,-396.51 632.59,-414.56"/>
<polygon fill="#7fb2ff" stroke="#7fb2ff" points="630.83,-411.52 623.25,-418.93 633.79,-417.86 630.83,-411.52"/>
</g>
<!-- Node0x55e436237b58&#45;&gt;Node0x55e43623afd8 -->
<g id="edge67" class="edge">
<title>Node0x55e436237b58&#45;&gt;Node0x55e43623afd8</title>
<path fill="none" stroke="#7fb2ff" d="M1197.81,-403.27C1040.73,-401.35 827.33,-403.14 795,-426 759.15,-451.35 793.31,-490.6 759,-518 755.63,-520.7 752.1,-523.18 748.44,-525.47"/>
<polygon fill="#7fb2ff" stroke="#7fb2ff" points="746.65,-522.46 739.69,-530.45 750.11,-528.54 746.65,-522.46"/>
</g>
<!-- Node0x55e436237b58&#45;&gt;Node0x55e43623c978 -->
<g id="edge64" class="edge">
<title>Node0x55e436237b58&#45;&gt;Node0x55e43623c978</title>
<path fill="none" stroke="#7fb2ff" d="M1201.03,-425.01C1194.81,-427.67 1188.77,-430.65 1183,-434 1160.54,-447.03 1167.96,-464.68 1147,-480 1120.44,-499.41 1087.42,-513.65 1057.25,-523.77"/>
<polygon fill="#7fb2ff" stroke="#7fb2ff" points="1056,-520.49 1047.57,-526.91 1058.16,-527.15 1056,-520.49"/>
</g>
<!-- Node0x55e436237b58&#45;&gt;Node0x55e43623daa8 -->
<g id="edge65" class="edge">
<title>Node0x55e436237b58&#45;&gt;Node0x55e43623daa8</title>
<path fill="none" stroke="#7fb2ff" d="M1265.09,-425.01C1224.54,-430.4 1177.08,-436.11 1132.29,-441.04"/>
<polygon fill="#7fb2ff" stroke="#7fb2ff" points="1131.74,-437.58 1122.18,-442.15 1132.5,-444.54 1131.74,-437.58"/>
</g>
<!-- Node0x55e43623f0d8&#45;&gt;Node0x55e43623d0a8 -->
<g id="edge74" class="edge">
<title>Node0x55e43623f0d8&#45;&gt;Node0x55e43623d0a8</title>
<path fill="none" stroke="black" d="M1193.35,-442.76C1189.72,-440.09 1186.26,-437.18 1183,-434 1115.49,-368.22 1219.08,-285.73 1147,-225 1087.18,-174.6 871.92,-210.8 795,-225 733.77,-236.31 667.41,-264.34 624.97,-284.48"/>
<polygon fill="black" stroke="black" points="623.26,-281.42 615.76,-288.9 626.29,-287.73 623.26,-281.42"/>
</g>
<!-- Node0x55e43623f0d8&#45;&gt;Node0x55e43623e868 -->
<g id="edge77" class="edge">
<title>Node0x55e43623f0d8&#45;&gt;Node0x55e43623e868</title>
<path fill="none" stroke="#7fb2ff" d="M1195.72,-442.99C1191.29,-440.28 1187.03,-437.29 1183,-434 1146.42,-404.12 1185.65,-361.16 1147,-334 1019.01,-244.04 947.54,-299.27 795,-334 728.02,-349.25 657.54,-388.15 616.38,-413.54"/>
<polygon fill="#7fb2ff" stroke="#7fb2ff" points="614.43,-410.63 607.8,-418.9 618.14,-416.57 614.43,-410.63"/>
</g>
<!-- Node0x55e43623f0d8&#45;&gt;Node0x55e43623afd8 -->
<g id="edge78" class="edge">
<title>Node0x55e43623f0d8&#45;&gt;Node0x55e43623afd8</title>
<path fill="none" stroke="#7fb2ff" d="M1265.85,-479.1C1237.12,-487.59 1207.18,-499.98 1183,-518 1159.87,-535.24 1172.43,-558.39 1147,-572 1072.13,-612.07 840.98,-585.89 698.13,-564.54"/>
<polygon fill="#7fb2ff" stroke="#7fb2ff" points="698.41,-561.04 688,-563.01 697.37,-567.96 698.41,-561.04"/>
</g>
<!-- Node0x55e43623f0d8&#45;&gt;Node0x55e43623c978 -->
<g id="edge75" class="edge">
<title>Node0x55e43623f0d8&#45;&gt;Node0x55e43623c978</title>
<path fill="none" stroke="#7fb2ff" d="M1283.24,-479.06C1219.67,-492.53 1132.82,-510.93 1067.02,-524.87"/>
<polygon fill="#7fb2ff" stroke="#7fb2ff" points="1066.12,-521.48 1057.06,-526.98 1067.57,-528.33 1066.12,-521.48"/>
</g>
<!-- Node0x55e43623f0d8&#45;&gt;Node0x55e43623daa8 -->
<g id="edge76" class="edge">
<title>Node0x55e43623f0d8&#45;&gt;Node0x55e43623daa8</title>
<path fill="none" stroke="#7fb2ff" d="M1192.98,-464.17C1172.77,-463.83 1152.25,-463.39 1132.26,-462.87"/>
<polygon fill="#7fb2ff" stroke="#7fb2ff" points="1132.27,-459.37 1122.18,-462.6 1132.08,-466.37 1132.27,-459.37"/>
</g>
<!-- Node0x55e43623f768 -->
<g id="node17" class="node">
<title>Node0x55e43623f768</title>
<polygon fill="none" stroke="black" points="346.5,-317 17.5,-317 17.5,-281 346.5,-281 346.5,-317"/>
<text text-anchor="middle" x="182" y="-295.3" font-family="Times,serif" font-size="14.00">{lib/libLLVMObject.a(Decompressor.cpp.o)}</text>
</g>
<!-- Node0x55e43623f768&#45;&gt;Node0x55e43623d0a8 -->
<g id="edge29" class="edge">
<title>Node0x55e43623f768&#45;&gt;Node0x55e43623d0a8</title>
<path fill="none" stroke="black" d="M346.72,-302.31C376.37,-302.91 407.08,-303.53 436.07,-304.12"/>
<polygon fill="black" stroke="black" points="436.17,-307.62 446.24,-304.32 436.31,-300.62 436.17,-307.62"/>
</g>
<!-- Node0x55e43623d0f8 -->
<g id="node18" class="node">
<title>Node0x55e43623d0f8</title>
<polygon fill="none" stroke="black" points="364,-371 0,-371 0,-335 364,-335 364,-371"/>
<text text-anchor="middle" x="182" y="-349.3" font-family="Times,serif" font-size="14.00">{lib/libLLVMObject.a(RelocationResolver.cpp.o)}</text>
</g>
<!-- Node0x55e43623d0f8&#45;&gt;Node0x55e43623d0a8 -->
<g id="edge30" class="edge">
<title>Node0x55e43623d0f8&#45;&gt;Node0x55e43623d0a8</title>
<path fill="none" stroke="black" d="M337.89,-334.98C370.23,-331.22 404.17,-327.28 436.03,-323.57"/>
<polygon fill="black" stroke="black" points="436.77,-327.01 446.3,-322.38 435.96,-320.05 436.77,-327.01"/>
</g>
<!-- Node0x55e43623d0f8&#45;&gt;Node0x55e43623d418 -->
<g id="edge31" class="edge">
<title>Node0x55e43623d0f8&#45;&gt;Node0x55e43623d418</title>
<path fill="none" stroke="black" d="M364.17,-346.54C639.18,-337.13 1131.9,-322.02 1147,-334 1202.07,-377.68 1135.03,-436.63 1183,-488 1197.59,-503.62 1216.34,-515.01 1236.3,-523.29"/>
<polygon fill="black" stroke="black" points="1235.27,-526.64 1245.86,-526.99 1237.8,-520.11 1235.27,-526.64"/>
</g>
<!-- Node0x55e43623b5c8 -->
<g id="node20" class="node">
<title>Node0x55e43623b5c8</title>
<polygon fill="none" stroke="black" points="729,-59 430,-59 430,-23 729,-23 729,-59"/>
<text text-anchor="middle" x="579.5" y="-37.3" font-family="Times,serif" font-size="14.00">{lib/libLLVMObject.a(IRSymtab.cpp.o)}</text>
</g>
<!-- Node0x55e43623b5c8&#45;&gt;Node0x55e43623ba78 -->
<g id="edge53" class="edge">
<title>Node0x55e43623b5c8&#45;&gt;Node0x55e43623ba78</title>
<path fill="none" stroke="black" d="M602.56,-59.12C668.55,-113.34 864.53,-274.35 939.95,-336.31"/>
<polygon fill="black" stroke="black" points="937.75,-339.04 947.7,-342.68 942.2,-333.63 937.75,-339.04"/>
</g>
<!-- Node0x55e43623b5c8&#45;&gt;Node0x55e43623f5d8 -->
<g id="edge54" class="edge">
<title>Node0x55e43623b5c8&#45;&gt;Node0x55e43623f5d8</title>
<path fill="none" stroke="black" d="M729.18,-41C854.71,-41 1035.43,-41 1172.72,-41"/>
<polygon fill="black" stroke="black" points="1172.94,-44.5 1182.94,-41 1172.94,-37.5 1172.94,-44.5"/>
</g>
<!-- Node0x55e43623e098&#45;&gt;Node0x55e43623d0a8 -->
<g id="edge79" class="edge">
<title>Node0x55e43623e098&#45;&gt;Node0x55e43623d0a8</title>
<path fill="none" stroke="black" d="M1744.07,-526.9C1709.15,-494.23 1631.29,-424.68 1556,-380 1386.41,-279.37 1340.3,-246.99 1147,-208 993.64,-177.07 947.8,-174.44 795,-208 728.94,-222.51 658.98,-259.4 617.56,-283.82"/>
<polygon fill="black" stroke="black" points="615.71,-280.85 608.92,-288.98 619.3,-286.86 615.71,-280.85"/>
</g>
<!-- Node0x55e43623e098&#45;&gt;Node0x55e43623e9f8 -->
<g id="edge80" class="edge">
<title>Node0x55e43623e098&#45;&gt;Node0x55e43623e9f8</title>
<path fill="none" stroke="#7fb2ff" d="M1726.36,-563.1C1632.75,-608.22 1376.03,-724.91 1147,-765 1011.35,-788.74 854.61,-787.11 740.43,-780.76"/>
<polygon fill="#7fb2ff" stroke="#7fb2ff" points="740.4,-777.25 730.21,-780.17 740,-784.24 740.4,-777.25"/>
</g>
<!-- Node0x55e43623e098&#45;&gt;Node0x55e43623d418 -->
<g id="edge81" class="edge">
<title>Node0x55e43623e098&#45;&gt;Node0x55e43623d418</title>
<path fill="none" stroke="#7fb2ff" d="M1636.27,-551.36C1607.35,-551.7 1576.12,-551.82 1545.58,-551.71"/>
<polygon fill="#7fb2ff" stroke="#7fb2ff" points="1545.26,-548.21 1535.25,-551.67 1545.23,-555.21 1545.26,-548.21"/>
</g>
<!-- Node0x55e43623b668 -->
<g id="node22" class="node">
<title>Node0x55e43623b668</title>
<polygon fill="none" stroke="black" points="324.5,-505 39.5,-505 39.5,-469 324.5,-469 324.5,-505"/>
<text text-anchor="middle" x="182" y="-483.3" font-family="Times,serif" font-size="14.00">{lib/libLLVMObject.a(TapiFile.cpp.o)}</text>
</g>
<!-- Node0x55e43623b668&#45;&gt;Node0x55e43623e868 -->
<g id="edge82" class="edge">
<title>Node0x55e43623b668&#45;&gt;Node0x55e43623e868</title>
<path fill="none" stroke="black" d="M324.67,-469.09C358.36,-464.83 394.41,-460.27 428.46,-455.97"/>
<polygon fill="black" stroke="black" points="429,-459.43 438.49,-454.7 428.13,-452.48 429,-459.43"/>
</g>
<!-- Node0x55e43623b668&#45;&gt;Node0x55e43623afd8 -->
<g id="edge83" class="edge">
<title>Node0x55e43623b668&#45;&gt;Node0x55e43623afd8</title>
<path fill="none" stroke="black" d="M305.97,-505.03C350.24,-511.53 400.38,-518.88 445.47,-525.49"/>
<polygon fill="black" stroke="black" points="445.2,-528.99 455.61,-526.98 446.22,-522.06 445.2,-528.99"/>
</g>
</g>
</svg>
