<?xml version="1.0" encoding="UTF-8" standalone="no"?>
<!DOCTYPE svg PUBLIC "-//W3C//DTD SVG 1.1//EN"
 "http://www.w3.org/Graphics/SVG/1.1/DTD/svg11.dtd">
<!-- Generated by graphviz version 2.43.0 (0)
 -->
<!-- Title: cmTC_eea83 Pages: 1 -->
<svg width="1148pt" height="213pt"
 viewBox="0.00 0.00 1148.08 213.00" xmlns="http://www.w3.org/2000/svg" xmlns:xlink="http://www.w3.org/1999/xlink">
<g id="graph0" class="graph" transform="scale(1 1) rotate(0) translate(4 209)">
<title>cmTC_eea83</title>
<polygon fill="white" stroke="transparent" points="-4,4 -4,-209 1144.08,-209 1144.08,4 -4,4"/>
<text text-anchor="middle" x="570.04" y="-7.8" font-family="Times,serif" font-size="14.00">cmTC_eea83</text>
<!-- Node0x5647287dba68 -->
<g id="node1" class="node">
<title>Node0x5647287dba68</title>
<polygon fill="none" stroke="black" points="219.34,-168.5 219.34,-204.5 677.34,-204.5 677.34,-168.5 219.34,-168.5"/>
<text text-anchor="middle" x="448.34" y="-182.8" font-family="Times,serif" font-size="14.00">/usr/lib/gcc/x86_64&#45;linux&#45;gnu/9/../../../x86_64&#45;linux&#45;gnu/Scrt1.o</text>
</g>
<!-- Node0x5647287dbbd0 -->
<g id="node2" class="node">
<title>Node0x5647287dbbd0</title>
<ellipse fill="none" stroke="black" cx="116.34" cy="-113.5" rx="116.18" ry="18"/>
<text text-anchor="middle" x="116.34" y="-109.8" font-family="Times,serif" font-size="14.00">Node0x5647287dbbd0</text>
</g>
<!-- Node0x5647287dba68&#45;&gt;Node0x5647287dbbd0 -->
<g id="edge1" class="edge">
<title>Node0x5647287dba68&#45;&gt;Node0x5647287dbbd0</title>
<path fill="none" stroke="black" d="M368.82,-168.49C315.02,-156.99 244.42,-141.89 191.55,-130.58"/>
<polygon fill="black" stroke="black" points="192.07,-127.12 181.56,-128.45 190.61,-133.96 192.07,-127.12"/>
</g>
<!-- Node0x5647287dbe58 -->
<g id="node3" class="node">
<title>Node0x5647287dbe58</title>
<polygon fill="none" stroke="black" points="250.34,-95.5 250.34,-131.5 646.34,-131.5 646.34,-95.5 250.34,-95.5"/>
<text text-anchor="middle" x="448.34" y="-109.8" font-family="Times,serif" font-size="14.00">/usr/lib/x86_64&#45;linux&#45;gnu/libc_nonshared.a(elf&#45;init.oS)</text>
</g>
<!-- Node0x5647287dba68&#45;&gt;Node0x5647287dbe58 -->
<g id="edge2" class="edge">
<title>Node0x5647287dba68&#45;&gt;Node0x5647287dbe58</title>
<path fill="none" stroke="black" d="M448.34,-168.31C448.34,-160.29 448.34,-150.55 448.34,-141.57"/>
<polygon fill="black" stroke="black" points="451.84,-141.53 448.34,-131.53 444.84,-141.53 451.84,-141.53"/>
</g>
<!-- Node0x5647287dadc0 -->
<g id="node4" class="node">
<title>Node0x5647287dadc0</title>
<ellipse fill="none" stroke="black" cx="779.34" cy="-113.5" rx="115.08" ry="18"/>
<text text-anchor="middle" x="779.34" y="-109.8" font-family="Times,serif" font-size="14.00">Node0x5647287dadc0</text>
</g>
<!-- Node0x5647287dba68&#45;&gt;Node0x5647287dadc0 -->
<g id="edge3" class="edge">
<title>Node0x5647287dba68&#45;&gt;Node0x5647287dadc0</title>
<path fill="none" stroke="black" d="M527.62,-168.49C581.35,-156.97 651.89,-141.84 704.62,-130.53"/>
<polygon fill="black" stroke="black" points="705.54,-133.91 714.58,-128.39 704.07,-127.07 705.54,-133.91"/>
</g>
<!-- Node0x5647287dafb8 -->
<g id="node7" class="node">
<title>Node0x5647287dafb8</title>
<ellipse fill="none" stroke="black" cx="448.34" cy="-41" rx="113.98" ry="18"/>
<text text-anchor="middle" x="448.34" y="-37.3" font-family="Times,serif" font-size="14.00">Node0x5647287dafb8</text>
</g>
<!-- Node0x5647287dbe58&#45;&gt;Node0x5647287dafb8 -->
<g id="edge6" class="edge">
<title>Node0x5647287dbe58&#45;&gt;Node0x5647287dafb8</title>
<path fill="none" stroke="black" d="M448.34,-95.43C448.34,-87.67 448.34,-78.28 448.34,-69.56"/>
<polygon fill="black" stroke="black" points="451.84,-69.4 448.34,-59.4 444.84,-69.4 451.84,-69.4"/>
</g>
<!-- Node0x5647287db510 -->
<g id="node5" class="node">
<title>Node0x5647287db510</title>
<polygon fill="none" stroke="black" points="780.84,-168.5 780.84,-204.5 1101.84,-204.5 1101.84,-168.5 780.84,-168.5"/>
<text text-anchor="middle" x="941.34" y="-182.8" font-family="Times,serif" font-size="14.00">/usr/lib/gcc/x86_64&#45;linux&#45;gnu/9/crtbeginS.o</text>
</g>
<!-- Node0x5647287db510&#45;&gt;Node0x5647287dadc0 -->
<g id="edge5" class="edge">
<title>Node0x5647287db510&#45;&gt;Node0x5647287dadc0</title>
<path fill="none" stroke="black" d="M902.54,-168.49C879.4,-158.35 849.89,-145.42 825.55,-134.75"/>
<polygon fill="black" stroke="black" points="826.72,-131.44 816.16,-130.64 823.91,-137.86 826.72,-131.44"/>
</g>
<!-- Node0x5647287daf70 -->
<g id="node6" class="node">
<title>Node0x5647287daf70</title>
<ellipse fill="none" stroke="black" cx="1026.34" cy="-113.5" rx="113.98" ry="18"/>
<text text-anchor="middle" x="1026.34" y="-109.8" font-family="Times,serif" font-size="14.00">Node0x5647287daf70</text>
</g>
<!-- Node0x5647287db510&#45;&gt;Node0x5647287daf70 -->
<g id="edge4" class="edge">
<title>Node0x5647287db510&#45;&gt;Node0x5647287daf70</title>
<path fill="none" stroke="black" d="M961.92,-168.31C972.85,-159.18 986.46,-147.81 998.35,-137.88"/>
<polygon fill="black" stroke="black" points="1000.82,-140.38 1006.25,-131.28 996.33,-135.01 1000.82,-140.38"/>
</g>
</g>
</svg>
