<?xml version="1.0" encoding="UTF-8" standalone="no"?>
<!DOCTYPE svg PUBLIC "-//W3C//DTD SVG 1.1//EN"
 "http://www.w3.org/Graphics/SVG/1.1/DTD/svg11.dtd">
<!-- Generated by graphviz version 2.43.0 (0)
 -->
<!-- Title: cmTC_a50f7 Pages: 1 -->
<svg width="1138pt" height="213pt"
 viewBox="0.00 0.00 1137.83 213.00" xmlns="http://www.w3.org/2000/svg" xmlns:xlink="http://www.w3.org/1999/xlink">
<g id="graph0" class="graph" transform="scale(1 1) rotate(0) translate(4 209)">
<title>cmTC_a50f7</title>
<polygon fill="white" stroke="transparent" points="-4,4 -4,-209 1133.83,-209 1133.83,4 -4,4"/>
<text text-anchor="middle" x="564.91" y="-7.8" font-family="Times,serif" font-size="14.00">cmTC_a50f7</text>
<!-- Node0x55875f44c9a8 -->
<g id="node1" class="node">
<title>Node0x55875f44c9a8</title>
<polygon fill="none" stroke="black" points="213.09,-168.5 213.09,-204.5 671.09,-204.5 671.09,-168.5 213.09,-168.5"/>
<text text-anchor="middle" x="442.09" y="-182.8" font-family="Times,serif" font-size="14.00">/usr/lib/gcc/x86_64&#45;linux&#45;gnu/9/../../../x86_64&#45;linux&#45;gnu/Scrt1.o</text>
</g>
<!-- Node0x55875f44cb10 -->
<g id="node2" class="node">
<title>Node0x55875f44cb10</title>
<ellipse fill="none" stroke="black" cx="113.09" cy="-113.5" rx="113.18" ry="18"/>
<text text-anchor="middle" x="113.09" y="-109.8" font-family="Times,serif" font-size="14.00">Node0x55875f44cb10</text>
</g>
<!-- Node0x55875f44c9a8&#45;&gt;Node0x55875f44cb10 -->
<g id="edge1" class="edge">
<title>Node0x55875f44c9a8&#45;&gt;Node0x55875f44cb10</title>
<path fill="none" stroke="black" d="M363.29,-168.49C309.8,-156.95 239.54,-141.79 187.1,-130.47"/>
<polygon fill="black" stroke="black" points="187.7,-127.02 177.19,-128.33 186.22,-133.86 187.7,-127.02"/>
</g>
<!-- Node0x55875f44c918 -->
<g id="node3" class="node">
<title>Node0x55875f44c918</title>
<polygon fill="none" stroke="black" points="244.09,-95.5 244.09,-131.5 640.09,-131.5 640.09,-95.5 244.09,-95.5"/>
<text text-anchor="middle" x="442.09" y="-109.8" font-family="Times,serif" font-size="14.00">/usr/lib/x86_64&#45;linux&#45;gnu/libc_nonshared.a(elf&#45;init.oS)</text>
</g>
<!-- Node0x55875f44c9a8&#45;&gt;Node0x55875f44c918 -->
<g id="edge2" class="edge">
<title>Node0x55875f44c9a8&#45;&gt;Node0x55875f44c918</title>
<path fill="none" stroke="black" d="M442.09,-168.31C442.09,-160.29 442.09,-150.55 442.09,-141.57"/>
<polygon fill="black" stroke="black" points="445.59,-141.53 442.09,-131.53 438.59,-141.53 445.59,-141.53"/>
</g>
<!-- Node0x55875f44c138 -->
<g id="node4" class="node">
<title>Node0x55875f44c138</title>
<ellipse fill="none" stroke="black" cx="771.09" cy="-113.5" rx="113.18" ry="18"/>
<text text-anchor="middle" x="771.09" y="-109.8" font-family="Times,serif" font-size="14.00">Node0x55875f44c138</text>
</g>
<!-- Node0x55875f44c9a8&#45;&gt;Node0x55875f44c138 -->
<g id="edge3" class="edge">
<title>Node0x55875f44c9a8&#45;&gt;Node0x55875f44c138</title>
<path fill="none" stroke="black" d="M520.89,-168.49C574.38,-156.95 644.64,-141.79 697.08,-130.47"/>
<polygon fill="black" stroke="black" points="697.96,-133.86 706.99,-128.33 696.48,-127.02 697.96,-133.86"/>
</g>
<!-- Node0x55875f44ba78 -->
<g id="node7" class="node">
<title>Node0x55875f44ba78</title>
<ellipse fill="none" stroke="black" cx="442.09" cy="-41" rx="113.98" ry="18"/>
<text text-anchor="middle" x="442.09" y="-37.3" font-family="Times,serif" font-size="14.00">Node0x55875f44ba78</text>
</g>
<!-- Node0x55875f44c918&#45;&gt;Node0x55875f44ba78 -->
<g id="edge6" class="edge">
<title>Node0x55875f44c918&#45;&gt;Node0x55875f44ba78</title>
<path fill="none" stroke="black" d="M442.09,-95.43C442.09,-87.67 442.09,-78.28 442.09,-69.56"/>
<polygon fill="black" stroke="black" points="445.59,-69.4 442.09,-59.4 438.59,-69.4 445.59,-69.4"/>
</g>
<!-- Node0x55875f44bfd0 -->
<g id="node5" class="node">
<title>Node0x55875f44bfd0</title>
<polygon fill="none" stroke="black" points="772.59,-168.5 772.59,-204.5 1093.59,-204.5 1093.59,-168.5 772.59,-168.5"/>
<text text-anchor="middle" x="933.09" y="-182.8" font-family="Times,serif" font-size="14.00">/usr/lib/gcc/x86_64&#45;linux&#45;gnu/9/crtbeginS.o</text>
</g>
<!-- Node0x55875f44bfd0&#45;&gt;Node0x55875f44c138 -->
<g id="edge5" class="edge">
<title>Node0x55875f44bfd0&#45;&gt;Node0x55875f44c138</title>
<path fill="none" stroke="black" d="M894.29,-168.49C871.15,-158.35 841.64,-145.42 817.3,-134.75"/>
<polygon fill="black" stroke="black" points="818.47,-131.44 807.91,-130.64 815.66,-137.86 818.47,-131.44"/>
</g>
<!-- Node0x55875f44ba30 -->
<g id="node6" class="node">
<title>Node0x55875f44ba30</title>
<ellipse fill="none" stroke="black" cx="1016.09" cy="-113.5" rx="113.98" ry="18"/>
<text text-anchor="middle" x="1016.09" y="-109.8" font-family="Times,serif" font-size="14.00">Node0x55875f44ba30</text>
</g>
<!-- Node0x55875f44bfd0&#45;&gt;Node0x55875f44ba30 -->
<g id="edge4" class="edge">
<title>Node0x55875f44bfd0&#45;&gt;Node0x55875f44ba30</title>
<path fill="none" stroke="black" d="M953.18,-168.31C963.86,-159.18 977.15,-147.81 988.76,-137.88"/>
<polygon fill="black" stroke="black" points="991.15,-140.44 996.47,-131.28 986.6,-135.12 991.15,-140.44"/>
</g>
</g>
</svg>
