<?xml version="1.0" encoding="UTF-8" standalone="no"?>
<!DOCTYPE svg PUBLIC "-//W3C//DTD SVG 1.1//EN"
 "http://www.w3.org/Graphics/SVG/1.1/DTD/svg11.dtd">
<!-- Generated by graphviz version 2.43.0 (0)
 -->
<!-- Title: bin/split&#45;file Pages: 1 -->
<svg width="420pt" height="139pt"
 viewBox="0.00 0.00 420.00 139.00" xmlns="http://www.w3.org/2000/svg" xmlns:xlink="http://www.w3.org/1999/xlink">
<g id="graph0" class="graph" transform="scale(1 1) rotate(0) translate(4 135)">
<title>bin/split&#45;file</title>
<polygon fill="white" stroke="transparent" points="-4,4 -4,-135 416,-135 416,4 -4,4"/>
<text text-anchor="middle" x="206" y="-7.8" font-family="Times,serif" font-size="14.00">bin/split&#45;file</text>
<!-- Node0x55fed6fe1ab8 -->
<g id="node1" class="node">
<title>Node0x55fed6fe1ab8</title>
<polygon fill="#ff7f7f" stroke="black" points="412,-131 0,-131 0,-95 412,-95 412,-131"/>
<text text-anchor="middle" x="206" y="-109.3" font-family="Times,serif" font-size="14.00">{tools/split&#45;file/CMakeFiles/split&#45;file.dir/split&#45;file.cpp.o}</text>
</g>
<!-- Node0x55fed6fe1c48 -->
<g id="node2" class="node">
<title>Node0x55fed6fe1c48</title>
<polygon fill="#ff7f7f" stroke="black" points="299,-59 113,-59 113,-23 299,-23 299,-59"/>
<text text-anchor="middle" x="206" y="-37.3" font-family="Times,serif" font-size="14.00">{lib/libLLVMSupport.a}</text>
</g>
<!-- Node0x55fed6fe1ab8&#45;&gt;Node0x55fed6fe1c48 -->
<g id="edge1" class="edge">
<title>Node0x55fed6fe1ab8&#45;&gt;Node0x55fed6fe1c48</title>
<path fill="none" stroke="#ff7f7f" d="M200.08,-94.7C199.29,-86.98 199.06,-77.71 199.4,-69.11"/>
<polygon fill="#ff7f7f" stroke="#ff7f7f" points="202.9,-69.32 200.1,-59.1 195.92,-68.84 202.9,-69.32"/>
</g>
<!-- Node0x55fed6fe1c48&#45;&gt;Node0x55fed6fe1ab8 -->
<g id="edge2" class="edge">
<title>Node0x55fed6fe1c48&#45;&gt;Node0x55fed6fe1ab8</title>
<path fill="none" stroke="#ff7f7f" d="M211.9,-59.1C212.7,-66.79 212.94,-76.05 212.6,-84.67"/>
<polygon fill="#ff7f7f" stroke="#ff7f7f" points="209.11,-84.48 211.92,-94.7 216.09,-84.96 209.11,-84.48"/>
</g>
</g>
</svg>
