<?xml version="1.0" encoding="UTF-8" standalone="no"?>
<!DOCTYPE svg PUBLIC "-//W3C//DTD SVG 1.1//EN"
 "http://www.w3.org/Graphics/SVG/1.1/DTD/svg11.dtd">
<!-- Generated by graphviz version 2.43.0 (0)
 -->
<!-- Title: bin/llvm&#45;libtool&#45;darwin Pages: 1 -->
<svg width="1152pt" height="283pt"
 viewBox="0.00 0.00 1151.67 283.00" xmlns="http://www.w3.org/2000/svg" xmlns:xlink="http://www.w3.org/1999/xlink">
<g id="graph0" class="graph" transform="scale(1 1) rotate(0) translate(4 279)">
<title>bin/llvm&#45;libtool&#45;darwin</title>
<polygon fill="white" stroke="transparent" points="-4,4 -4,-279 1147.67,-279 1147.67,4 -4,4"/>
<text text-anchor="middle" x="571.83" y="-7.8" font-family="Times,serif" font-size="14.00">bin/llvm&#45;libtool&#45;darwin</text>
<!-- Node0x56524377f868 -->
<g id="node1" class="node">
<title>Node0x56524377f868</title>
<polygon fill="#ff7f7f" stroke="black" points="871.43,-275 230.43,-275 230.43,-239 871.43,-239 871.43,-275"/>
<text text-anchor="middle" x="550.93" y="-253.3" font-family="Times,serif" font-size="14.00">{tools/llvm&#45;libtool&#45;darwin/CMakeFiles/llvm&#45;libtool&#45;darwin.dir/llvm&#45;libtool&#45;darwin.cpp.o}</text>
</g>
<!-- Node0x56524377ffe8 -->
<g id="node2" class="node">
<title>Node0x56524377ffe8</title>
<polygon fill="#ff7f7f" stroke="black" points="664.43,-203 437.43,-203 437.43,-167 664.43,-167 664.43,-203"/>
<text text-anchor="middle" x="550.93" y="-181.3" font-family="Times,serif" font-size="14.00">{lib/libLLVMBinaryFormat.a}</text>
</g>
<!-- Node0x56524377f868&#45;&gt;Node0x56524377ffe8 -->
<g id="edge1" class="edge">
<title>Node0x56524377f868&#45;&gt;Node0x56524377ffe8</title>
<path fill="none" stroke="#ff7f7f" d="M545.02,-238.7C544.22,-230.98 543.99,-221.71 544.34,-213.11"/>
<polygon fill="#ff7f7f" stroke="#ff7f7f" points="547.83,-213.32 545.04,-203.1 540.85,-212.84 547.83,-213.32"/>
</g>
<!-- Node0x56524377f138 -->
<g id="node3" class="node">
<title>Node0x56524377f138</title>
<polygon fill="#ff7f7f" stroke="black" points="418.93,-203 256.93,-203 256.93,-167 418.93,-167 418.93,-203"/>
<text text-anchor="middle" x="337.93" y="-181.3" font-family="Times,serif" font-size="14.00">{lib/libLLVMCore.a}</text>
</g>
<!-- Node0x56524377f868&#45;&gt;Node0x56524377f138 -->
<g id="edge2" class="edge">
<title>Node0x56524377f868&#45;&gt;Node0x56524377f138</title>
<path fill="none" stroke="#ff7f7f" d="M493.21,-238.97C462.28,-229.14 424.41,-216.73 393.77,-206.39"/>
<polygon fill="#ff7f7f" stroke="#ff7f7f" points="394.7,-203.01 384.1,-203.11 392.45,-209.64 394.7,-203.01"/>
</g>
<!-- Node0x56524377f5e8 -->
<g id="node4" class="node">
<title>Node0x56524377f5e8</title>
<polygon fill="#ff7f7f" stroke="black" points="1062.43,-203 887.43,-203 887.43,-167 1062.43,-167 1062.43,-203"/>
<text text-anchor="middle" x="974.93" y="-181.3" font-family="Times,serif" font-size="14.00">{lib/libLLVMObject.a}</text>
</g>
<!-- Node0x56524377f868&#45;&gt;Node0x56524377f5e8 -->
<g id="edge3" class="edge">
<title>Node0x56524377f868&#45;&gt;Node0x56524377f5e8</title>
<path fill="none" stroke="#ff7f7f" d="M650.29,-238.98C712.99,-228.75 795.63,-215.36 868.93,-203 871.74,-202.53 874.59,-202.04 877.47,-201.55"/>
<polygon fill="#ff7f7f" stroke="#ff7f7f" points="878.09,-205 887.35,-199.86 876.91,-198.1 878.09,-205"/>
</g>
<!-- Node0x565243780e98 -->
<g id="node5" class="node">
<title>Node0x565243780e98</title>
<polygon fill="#ff7f7f" stroke="black" points="868.93,-203 682.93,-203 682.93,-167 868.93,-167 868.93,-203"/>
<text text-anchor="middle" x="775.93" y="-181.3" font-family="Times,serif" font-size="14.00">{lib/libLLVMSupport.a}</text>
</g>
<!-- Node0x56524377f868&#45;&gt;Node0x565243780e98 -->
<g id="edge4" class="edge">
<title>Node0x56524377f868&#45;&gt;Node0x565243780e98</title>
<path fill="none" stroke="#ff7f7f" d="M599.8,-238.97C630.6,-229.06 670.82,-216.51 705.08,-206.12"/>
<polygon fill="#ff7f7f" stroke="#ff7f7f" points="706.48,-209.36 715.04,-203.11 704.45,-202.65 706.48,-209.36"/>
</g>
<!-- Node0x5652437803f8 -->
<g id="node6" class="node">
<title>Node0x5652437803f8</title>
<polygon fill="#ff7f7f" stroke="black" points="200.93,-203 16.93,-203 16.93,-167 200.93,-167 200.93,-203"/>
<text text-anchor="middle" x="108.93" y="-181.3" font-family="Times,serif" font-size="14.00">{lib/libLLVMTextAPI.a}</text>
</g>
<!-- Node0x56524377f868&#45;&gt;Node0x5652437803f8 -->
<g id="edge5" class="edge">
<title>Node0x56524377f868&#45;&gt;Node0x5652437803f8</title>
<path fill="none" stroke="#ff7f7f" d="M434.53,-238.94C370.29,-229.01 288.89,-216.19 211.15,-203.83"/>
<polygon fill="#ff7f7f" stroke="#ff7f7f" points="211.63,-200.36 201.2,-202.25 210.53,-207.27 211.63,-200.36"/>
</g>
<!-- Node0x56524377ffe8&#45;&gt;Node0x56524377f868 -->
<g id="edge6" class="edge">
<title>Node0x56524377ffe8&#45;&gt;Node0x56524377f868</title>
<path fill="none" stroke="#ff7f7f" d="M556.83,-203.1C557.63,-210.79 557.87,-220.05 557.54,-228.67"/>
<polygon fill="#ff7f7f" stroke="#ff7f7f" points="554.04,-228.48 556.85,-238.7 561.02,-228.96 554.04,-228.48"/>
</g>
<!-- Node0x56524377ffe8&#45;&gt;Node0x565243780e98 -->
<g id="edge7" class="edge">
<title>Node0x56524377ffe8&#45;&gt;Node0x565243780e98</title>
<path fill="none" stroke="#ff7f7f" d="M664.75,-185C667.35,-185 669.94,-185 672.54,-185"/>
<polygon fill="#ff7f7f" stroke="#ff7f7f" points="672.56,-188.5 682.56,-185 672.56,-181.5 672.56,-188.5"/>
</g>
<!-- Node0x56524377f138&#45;&gt;Node0x56524377f868 -->
<g id="edge10" class="edge">
<title>Node0x56524377f138&#45;&gt;Node0x56524377f868</title>
<path fill="none" stroke="#ff7f7f" d="M395.89,-203.11C426.85,-212.95 464.73,-225.36 495.33,-235.69"/>
<polygon fill="#ff7f7f" stroke="#ff7f7f" points="494.39,-239.07 504.99,-238.97 496.64,-232.44 494.39,-239.07"/>
</g>
<!-- Node0x56524377f138&#45;&gt;Node0x56524377ffe8 -->
<g id="edge9" class="edge">
<title>Node0x56524377f138&#45;&gt;Node0x56524377ffe8</title>
<path fill="none" stroke="#ff7f7f" d="M419.05,-185C421.82,-185 424.58,-185 427.34,-185"/>
<polygon fill="#ff7f7f" stroke="#ff7f7f" points="427.34,-188.5 437.34,-185 427.34,-181.5 427.34,-188.5"/>
</g>
<!-- Node0x56524377f138&#45;&gt;Node0x56524377f5e8 -->
<g id="edge12" class="edge">
<title>Node0x56524377f138&#45;&gt;Node0x56524377f5e8</title>
<path fill="none" stroke="#ff7f7f" d="M385.6,-203.02C400.82,-207.92 417.88,-212.55 433.93,-215 530.15,-229.68 775.57,-228.75 871.93,-215 885.73,-213.03 900.26,-209.65 913.92,-205.85"/>
<polygon fill="#ff7f7f" stroke="#ff7f7f" points="915.06,-209.17 923.69,-203.02 913.11,-202.44 915.06,-209.17"/>
</g>
<!-- Node0x56524377f138&#45;&gt;Node0x565243780e98 -->
<g id="edge8" class="edge">
<title>Node0x56524377f138&#45;&gt;Node0x565243780e98</title>
<path fill="none" stroke="#ff7f7f" d="M385.6,-203.02C400.82,-207.92 417.88,-212.55 433.93,-215 536.74,-230.69 564.88,-229.05 667.93,-215 682.5,-213.01 697.88,-209.59 712.32,-205.74"/>
<polygon fill="#ff7f7f" stroke="#ff7f7f" points="713.44,-209.06 722.14,-203.03 711.57,-202.32 713.44,-209.06"/>
</g>
<!-- Node0x565243778798 -->
<g id="node7" class="node">
<title>Node0x565243778798</title>
<polygon fill="#ff7f7f" stroke="black" points="417.43,-131 226.43,-131 226.43,-95 417.43,-95 417.43,-131"/>
<text text-anchor="middle" x="321.93" y="-109.3" font-family="Times,serif" font-size="14.00">{lib/libLLVMRemarks.a}</text>
</g>
<!-- Node0x56524377f138&#45;&gt;Node0x565243778798 -->
<g id="edge11" class="edge">
<title>Node0x56524377f138&#45;&gt;Node0x565243778798</title>
<path fill="none" stroke="#ff7f7f" d="M328.06,-166.7C325.5,-158.98 323.16,-149.71 321.53,-141.11"/>
<polygon fill="#ff7f7f" stroke="#ff7f7f" points="324.97,-140.43 319.95,-131.1 318.06,-141.53 324.97,-140.43"/>
</g>
<!-- Node0x5652437808f8 -->
<g id="node8" class="node">
<title>Node0x5652437808f8</title>
<polygon fill="#ff7f7f" stroke="black" points="883.43,-131 684.43,-131 684.43,-95 883.43,-95 883.43,-131"/>
<text text-anchor="middle" x="783.93" y="-109.3" font-family="Times,serif" font-size="14.00">{lib/libLLVMBitReader.a}</text>
</g>
<!-- Node0x56524377f138&#45;&gt;Node0x5652437808f8 -->
<g id="edge13" class="edge">
<title>Node0x56524377f138&#45;&gt;Node0x5652437808f8</title>
<path fill="none" stroke="#ff7f7f" d="M419.39,-166.92C504.68,-152.53 601.74,-138.22 674.3,-128.12"/>
<polygon fill="#ff7f7f" stroke="#ff7f7f" points="674.95,-131.56 684.37,-126.72 673.99,-124.63 674.95,-131.56"/>
</g>
<!-- Node0x56524377f5e8&#45;&gt;Node0x56524377f868 -->
<g id="edge14" class="edge">
<title>Node0x56524377f5e8&#45;&gt;Node0x56524377f868</title>
<path fill="none" stroke="#ff7f7f" d="M887.18,-202.96C887.1,-202.97 887.02,-202.99 886.93,-203 817.35,-214.73 739.36,-227.39 676.01,-237.4"/>
<polygon fill="#ff7f7f" stroke="#ff7f7f" points="675.31,-233.97 665.97,-238.98 676.4,-240.88 675.31,-233.97"/>
</g>
<!-- Node0x56524377f5e8&#45;&gt;Node0x56524377ffe8 -->
<g id="edge16" class="edge">
<title>Node0x56524377f5e8&#45;&gt;Node0x56524377ffe8</title>
<path fill="none" stroke="#ff7f7f" d="M932.18,-203.09C913.18,-210.18 890.31,-217.47 868.93,-221 787.37,-234.47 764.87,-231.97 682.93,-221 660.06,-217.94 635.55,-212.02 613.93,-205.85"/>
<polygon fill="#ff7f7f" stroke="#ff7f7f" points="614.79,-202.45 604.21,-203.01 612.83,-209.17 614.79,-202.45"/>
</g>
<!-- Node0x56524377f5e8&#45;&gt;Node0x56524377f138 -->
<g id="edge17" class="edge">
<title>Node0x56524377f5e8&#45;&gt;Node0x56524377f138</title>
<path fill="none" stroke="#ff7f7f" d="M938.09,-203.1C917.43,-212.24 890.85,-222.36 865.93,-227 819.4,-235.66 486.36,-236.19 439.93,-227 420.12,-223.08 399.32,-215.26 381.71,-207.42"/>
<polygon fill="#ff7f7f" stroke="#ff7f7f" points="382.82,-204.08 372.28,-203.09 379.9,-210.44 382.82,-204.08"/>
</g>
<!-- Node0x56524377f5e8&#45;&gt;Node0x565243780e98 -->
<g id="edge15" class="edge">
<title>Node0x56524377f5e8&#45;&gt;Node0x565243780e98</title>
<path fill="none" stroke="#ff7f7f" d="M887.38,-171.69C884.73,-171.61 882.08,-171.55 879.43,-171.52"/>
<polygon fill="#ff7f7f" stroke="#ff7f7f" points="879.2,-168.02 869.21,-171.55 879.22,-175.02 879.2,-168.02"/>
</g>
<!-- Node0x56524377f5e8&#45;&gt;Node0x5652437803f8 -->
<g id="edge21" class="edge">
<title>Node0x56524377f5e8&#45;&gt;Node0x5652437803f8</title>
<path fill="none" stroke="#ff7f7f" d="M923.69,-203.02C907.36,-207.93 889.08,-212.55 871.93,-215 803.95,-224.7 322.24,-221.99 253.93,-215 233.49,-212.91 211.68,-209.2 191.35,-205.08"/>
<polygon fill="#ff7f7f" stroke="#ff7f7f" points="192,-201.65 181.5,-203.04 190.58,-208.5 192,-201.65"/>
</g>
<!-- Node0x56524377f5e8&#45;&gt;Node0x5652437808f8 -->
<g id="edge18" class="edge">
<title>Node0x56524377f5e8&#45;&gt;Node0x5652437808f8</title>
<path fill="none" stroke="#ff7f7f" d="M922.56,-166.97C894.97,-157.23 861.34,-144.94 834.08,-134.66"/>
<polygon fill="#ff7f7f" stroke="#ff7f7f" points="835.31,-131.38 824.72,-131.11 832.83,-137.93 835.31,-131.38"/>
</g>
<!-- Node0x565243779698 -->
<g id="node9" class="node">
<title>Node0x565243779698</title>
<polygon fill="#ff7f7f" stroke="black" points="627.43,-131 474.43,-131 474.43,-95 627.43,-95 627.43,-131"/>
<text text-anchor="middle" x="550.93" y="-109.3" font-family="Times,serif" font-size="14.00">{lib/libLLVMMC.a}</text>
</g>
<!-- Node0x56524377f5e8&#45;&gt;Node0x565243779698 -->
<g id="edge19" class="edge">
<title>Node0x56524377f5e8&#45;&gt;Node0x565243779698</title>
<path fill="none" stroke="#ff7f7f" d="M887.35,-170.14C881.11,-169.07 874.92,-168.01 868.93,-167 790.61,-153.79 701.62,-139.41 637.68,-128.96"/>
<polygon fill="#ff7f7f" stroke="#ff7f7f" points="638.08,-125.48 627.64,-127.32 636.95,-132.39 638.08,-125.48"/>
</g>
<!-- Node0x565243777e38 -->
<g id="node10" class="node">
<title>Node0x565243777e38</title>
<polygon fill="#ff7f7f" stroke="black" points="1099.93,-131 901.93,-131 901.93,-95 1099.93,-95 1099.93,-131"/>
<text text-anchor="middle" x="1000.93" y="-109.3" font-family="Times,serif" font-size="14.00">{lib/libLLVMMCParser.a}</text>
</g>
<!-- Node0x56524377f5e8&#45;&gt;Node0x565243777e38 -->
<g id="edge20" class="edge">
<title>Node0x56524377f5e8&#45;&gt;Node0x565243777e38</title>
<path fill="none" stroke="#ff7f7f" d="M975.44,-166.7C977.58,-158.73 980.94,-149.1 984.62,-140.26"/>
<polygon fill="#ff7f7f" stroke="#ff7f7f" points="987.82,-141.66 988.68,-131.1 981.43,-138.82 987.82,-141.66"/>
</g>
<!-- Node0x565243780e98&#45;&gt;Node0x56524377f868 -->
<g id="edge22" class="edge">
<title>Node0x565243780e98&#45;&gt;Node0x56524377f868</title>
<path fill="none" stroke="#ff7f7f" d="M726.83,-203.11C695.98,-213.03 655.74,-225.58 621.52,-235.96"/>
<polygon fill="#ff7f7f" stroke="#ff7f7f" points="620.13,-232.72 611.57,-238.97 622.16,-239.42 620.13,-232.72"/>
</g>
<!-- Node0x565243780e98&#45;&gt;Node0x56524377f138 -->
<g id="edge23" class="edge">
<title>Node0x565243780e98&#45;&gt;Node0x56524377f138</title>
<path fill="none" stroke="#ff7f7f" d="M737.32,-203.1C715.67,-212.25 687.89,-222.37 661.93,-227 613.36,-235.66 488.33,-236.57 439.93,-227 420.12,-223.08 399.32,-215.26 381.71,-207.42"/>
<polygon fill="#ff7f7f" stroke="#ff7f7f" points="382.82,-204.08 372.28,-203.09 379.9,-210.44 382.82,-204.08"/>
</g>
<!-- Node0x565243780e98&#45;&gt;Node0x56524377f5e8 -->
<g id="edge24" class="edge">
<title>Node0x565243780e98&#45;&gt;Node0x56524377f5e8</title>
<path fill="none" stroke="#ff7f7f" d="M869.21,-198.45C871.86,-198.49 874.51,-198.51 877.16,-198.5"/>
<polygon fill="#ff7f7f" stroke="#ff7f7f" points="877.45,-201.99 887.38,-198.31 877.32,-194.99 877.45,-201.99"/>
</g>
<!-- Node0x5652437803f8&#45;&gt;Node0x56524377f868 -->
<g id="edge26" class="edge">
<title>Node0x5652437803f8&#45;&gt;Node0x56524377f868</title>
<path fill="none" stroke="#ff7f7f" d="M201.22,-199.38C208.92,-200.61 216.57,-201.83 223.93,-203 296.04,-214.47 376.87,-227.22 440.16,-237.34"/>
<polygon fill="#ff7f7f" stroke="#ff7f7f" points="439.73,-240.82 450.16,-238.94 440.84,-233.91 439.73,-240.82"/>
</g>
<!-- Node0x5652437803f8&#45;&gt;Node0x56524377f138 -->
<g id="edge27" class="edge">
<title>Node0x5652437803f8&#45;&gt;Node0x56524377f138</title>
<path fill="none" stroke="#ff7f7f" d="M201.07,-185C216.13,-185 231.18,-185 246.24,-185"/>
<polygon fill="#ff7f7f" stroke="#ff7f7f" points="246.67,-188.5 256.67,-185 246.67,-181.5 246.67,-188.5"/>
</g>
<!-- Node0x5652437803f8&#45;&gt;Node0x56524377f5e8 -->
<g id="edge28" class="edge">
<title>Node0x5652437803f8&#45;&gt;Node0x56524377f5e8</title>
<path fill="none" stroke="#ff7f7f" d="M160.27,-203.02C189.15,-212.2 226.1,-222.38 259.93,-227 326.65,-236.11 799.73,-239.31 865.93,-227 887.25,-223.03 909.78,-215.05 928.78,-207.1"/>
<polygon fill="#ff7f7f" stroke="#ff7f7f" points="930.29,-210.27 938.09,-203.1 927.52,-203.84 930.29,-210.27"/>
</g>
<!-- Node0x5652437803f8&#45;&gt;Node0x565243780e98 -->
<g id="edge25" class="edge">
<title>Node0x5652437803f8&#45;&gt;Node0x565243780e98</title>
<path fill="none" stroke="#ff7f7f" d="M168.82,-203.01C195.52,-210.14 227.52,-217.47 256.93,-221 346.95,-231.79 575.38,-235.16 664.93,-221 683.76,-218.02 703.74,-212.37 721.48,-206.42"/>
<polygon fill="#ff7f7f" stroke="#ff7f7f" points="722.78,-209.67 731.09,-203.09 720.49,-203.05 722.78,-209.67"/>
</g>
<!-- Node0x565243778798&#45;&gt;Node0x56524377f868 -->
<g id="edge29" class="edge">
<title>Node0x565243778798&#45;&gt;Node0x56524377f868</title>
<path fill="none" stroke="#ff7f7f" d="M226.39,-116.98C144.51,-121.79 35.55,-134.33 7.93,-167 -2.4,-179.22 -2.82,-191.15 7.93,-203 24.4,-221.16 116.37,-233.3 220.07,-241.32"/>
<polygon fill="#ff7f7f" stroke="#ff7f7f" points="219.9,-244.81 230.14,-242.08 220.43,-237.83 219.9,-244.81"/>
</g>
<!-- Node0x565243778798&#45;&gt;Node0x56524377f138 -->
<g id="edge31" class="edge">
<title>Node0x565243778798&#45;&gt;Node0x56524377f138</title>
<path fill="none" stroke="#ff7f7f" d="M331.74,-131.1C334.3,-138.79 336.65,-148.05 338.29,-156.67"/>
<polygon fill="#ff7f7f" stroke="#ff7f7f" points="334.86,-157.38 339.89,-166.7 341.77,-156.27 334.86,-157.38"/>
</g>
<!-- Node0x565243778798&#45;&gt;Node0x56524377f5e8 -->
<g id="edge33" class="edge">
<title>Node0x565243778798&#45;&gt;Node0x56524377f5e8</title>
<path fill="none" stroke="#ff7f7f" d="M417.55,-125.7C433.69,-127.56 450.28,-129.39 465.93,-131 645.56,-149.45 693.99,-143.34 877.25,-166.98"/>
<polygon fill="#ff7f7f" stroke="#ff7f7f" points="876.85,-170.46 887.21,-168.28 877.75,-163.52 876.85,-170.46"/>
</g>
<!-- Node0x565243778798&#45;&gt;Node0x565243780e98 -->
<g id="edge30" class="edge">
<title>Node0x565243778798&#45;&gt;Node0x565243780e98</title>
<path fill="none" stroke="#ff7f7f" d="M417.61,-127.99C485.95,-138.08 580.34,-152.22 672.74,-166.82"/>
<polygon fill="#ff7f7f" stroke="#ff7f7f" points="672.41,-170.31 682.83,-168.42 673.5,-163.4 672.41,-170.31"/>
</g>
<!-- Node0x565243778798&#45;&gt;Node0x5652437803f8 -->
<g id="edge35" class="edge">
<title>Node0x565243778798&#45;&gt;Node0x5652437803f8</title>
<path fill="none" stroke="#ff7f7f" d="M269.87,-131.11C239.8,-140.99 201.83,-153.47 170.32,-163.83"/>
<polygon fill="#ff7f7f" stroke="#ff7f7f" points="169.17,-160.52 160.76,-166.97 171.36,-167.17 169.17,-160.52"/>
</g>
<!-- Node0x565243778798&#45;&gt;Node0x5652437808f8 -->
<g id="edge32" class="edge">
<title>Node0x565243778798&#45;&gt;Node0x5652437808f8</title>
<path fill="none" stroke="#ff7f7f" d="M383.88,-131.01C411.49,-138.15 444.57,-145.48 474.93,-149 557.05,-158.53 579.1,-160.73 660.93,-149 682.13,-145.96 704.78,-140.12 724.78,-134.01"/>
<polygon fill="#ff7f7f" stroke="#ff7f7f" points="725.88,-137.33 734.38,-131 723.79,-130.65 725.88,-137.33"/>
</g>
<!-- Node0x565243777938 -->
<g id="node11" class="node">
<title>Node0x565243777938</title>
<polygon fill="#ff7f7f" stroke="black" points="844.43,-59 595.43,-59 595.43,-23 844.43,-23 844.43,-59"/>
<text text-anchor="middle" x="719.93" y="-37.3" font-family="Times,serif" font-size="14.00">{lib/libLLVMBitstreamReader.a}</text>
</g>
<!-- Node0x565243778798&#45;&gt;Node0x565243777938 -->
<g id="edge34" class="edge">
<title>Node0x565243778798&#45;&gt;Node0x565243777938</title>
<path fill="none" stroke="#ff7f7f" d="M412.9,-94.97C470.55,-84.63 545.52,-71.44 606.97,-60.8"/>
<polygon fill="#ff7f7f" stroke="#ff7f7f" points="607.84,-64.2 617.1,-59.05 606.65,-57.3 607.84,-64.2"/>
</g>
<!-- Node0x5652437808f8&#45;&gt;Node0x56524377f868 -->
<g id="edge36" class="edge">
<title>Node0x5652437808f8&#45;&gt;Node0x56524377f868</title>
<path fill="none" stroke="#ff7f7f" d="M883.57,-130.81C965.55,-144.88 1068.8,-163.25 1071.93,-167 1082.17,-179.29 1082.66,-191.13 1071.93,-203 1056.87,-219.68 975.72,-231.38 881.78,-239.46"/>
<polygon fill="#ff7f7f" stroke="#ff7f7f" points="881.43,-235.97 871.76,-240.3 882.02,-242.95 881.43,-235.97"/>
</g>
<!-- Node0x5652437808f8&#45;&gt;Node0x56524377f138 -->
<g id="edge37" class="edge">
<title>Node0x5652437808f8&#45;&gt;Node0x56524377f138</title>
<path fill="none" stroke="#ff7f7f" d="M684.33,-128.86C614.91,-138.94 520.27,-152.93 436.93,-167 434.3,-167.44 431.63,-167.9 428.93,-168.37"/>
<polygon fill="#ff7f7f" stroke="#ff7f7f" points="428.31,-164.93 419.07,-170.11 429.53,-171.82 428.31,-164.93"/>
</g>
<!-- Node0x5652437808f8&#45;&gt;Node0x56524377f5e8 -->
<g id="edge38" class="edge">
<title>Node0x5652437808f8&#45;&gt;Node0x56524377f5e8</title>
<path fill="none" stroke="#ff7f7f" d="M836.39,-131.07C863.85,-140.76 897.24,-152.95 924.4,-163.2"/>
<polygon fill="#ff7f7f" stroke="#ff7f7f" points="923.51,-166.6 934.1,-166.88 925.99,-160.06 923.51,-166.6"/>
</g>
<!-- Node0x5652437808f8&#45;&gt;Node0x565243780e98 -->
<g id="edge39" class="edge">
<title>Node0x5652437808f8&#45;&gt;Node0x565243780e98</title>
<path fill="none" stroke="#ff7f7f" d="M781.98,-131.1C781.1,-138.79 780.04,-148.05 779.06,-156.67"/>
<polygon fill="#ff7f7f" stroke="#ff7f7f" points="775.57,-156.36 777.91,-166.7 782.52,-157.16 775.57,-156.36"/>
</g>
<!-- Node0x5652437808f8&#45;&gt;Node0x565243777938 -->
<g id="edge40" class="edge">
<title>Node0x5652437808f8&#45;&gt;Node0x565243777938</title>
<path fill="none" stroke="#ff7f7f" d="M762.2,-94.7C753.66,-86.3 744.11,-76.07 736.17,-66.86"/>
<polygon fill="#ff7f7f" stroke="#ff7f7f" points="738.78,-64.52 729.67,-59.1 733.41,-69.02 738.78,-64.52"/>
</g>
<!-- Node0x565243779698&#45;&gt;Node0x56524377f868 -->
<g id="edge44" class="edge">
<title>Node0x565243779698&#45;&gt;Node0x56524377f868</title>
<path fill="none" stroke="#ff7f7f" d="M474.18,-124.93C386.84,-137.73 255.24,-158.3 247.93,-167 237.64,-179.25 237.64,-190.75 247.93,-203 260.88,-218.41 292.46,-229.33 330.58,-237.09"/>
<polygon fill="#ff7f7f" stroke="#ff7f7f" points="329.93,-240.52 340.41,-238.99 331.26,-233.65 329.93,-240.52"/>
</g>
<!-- Node0x565243779698&#45;&gt;Node0x56524377ffe8 -->
<g id="edge45" class="edge">
<title>Node0x565243779698&#45;&gt;Node0x56524377ffe8</title>
<path fill="none" stroke="#ff7f7f" d="M550.93,-131.1C550.93,-138.79 550.93,-148.05 550.93,-156.67"/>
<polygon fill="#ff7f7f" stroke="#ff7f7f" points="547.43,-156.7 550.93,-166.7 554.43,-156.7 547.43,-156.7"/>
</g>
<!-- Node0x565243779698&#45;&gt;Node0x56524377f138 -->
<g id="edge41" class="edge">
<title>Node0x565243779698&#45;&gt;Node0x56524377f138</title>
<path fill="none" stroke="#ff7f7f" d="M498.87,-131.11C468.8,-140.99 430.83,-153.47 399.32,-163.83"/>
<polygon fill="#ff7f7f" stroke="#ff7f7f" points="398.17,-160.52 389.76,-166.97 400.36,-167.17 398.17,-160.52"/>
</g>
<!-- Node0x565243779698&#45;&gt;Node0x56524377f5e8 -->
<g id="edge42" class="edge">
<title>Node0x565243779698&#45;&gt;Node0x56524377f5e8</title>
<path fill="none" stroke="#ff7f7f" d="M627.45,-125.01C693.2,-135.17 790.62,-150.82 877.22,-165.37"/>
<polygon fill="#ff7f7f" stroke="#ff7f7f" points="876.74,-168.83 887.18,-167.04 877.9,-161.93 876.74,-168.83"/>
</g>
<!-- Node0x565243779698&#45;&gt;Node0x565243780e98 -->
<g id="edge43" class="edge">
<title>Node0x565243779698&#45;&gt;Node0x565243780e98</title>
<path fill="none" stroke="#ff7f7f" d="M605.93,-131.11C637.82,-141.03 678.14,-153.58 711.51,-163.96"/>
<polygon fill="#ff7f7f" stroke="#ff7f7f" points="710.59,-167.34 721.18,-166.97 712.67,-160.65 710.59,-167.34"/>
</g>
<!-- Node0x565243779698&#45;&gt;Node0x565243777e38 -->
<g id="edge46" class="edge">
<title>Node0x565243779698&#45;&gt;Node0x565243777e38</title>
<path fill="none" stroke="#ff7f7f" d="M616.4,-131.03C637.19,-135.94 660.37,-140.56 681.93,-143 772.47,-153.23 796.57,-154.69 886.93,-143 902.42,-141 918.79,-137.52 934.16,-133.63"/>
<polygon fill="#ff7f7f" stroke="#ff7f7f" points="935.31,-136.95 944.09,-131.03 933.53,-130.18 935.31,-136.95"/>
</g>
<!-- Node0x565243777e38&#45;&gt;Node0x56524377f868 -->
<g id="edge47" class="edge">
<title>Node0x565243777e38&#45;&gt;Node0x56524377f868</title>
<path fill="none" stroke="#ff7f7f" d="M1047.97,-131.03C1063.88,-139.3 1079.89,-151.01 1088.93,-167 1096.8,-180.93 1099.68,-191.14 1088.93,-203 1072.79,-220.81 983.38,-232.86 881.94,-240.9"/>
<polygon fill="#ff7f7f" stroke="#ff7f7f" points="881.47,-237.42 871.77,-241.69 882.01,-244.4 881.47,-237.42"/>
</g>
<!-- Node0x565243777e38&#45;&gt;Node0x56524377f138 -->
<g id="edge48" class="edge">
<title>Node0x565243777e38&#45;&gt;Node0x56524377f138</title>
<path fill="none" stroke="#ff7f7f" d="M901.81,-129.91C898.82,-130.29 895.85,-130.66 892.93,-131 690.27,-154.76 635.13,-140.19 429.22,-166.91"/>
<polygon fill="#ff7f7f" stroke="#ff7f7f" points="428.76,-163.44 419.3,-168.22 429.67,-170.38 428.76,-163.44"/>
</g>
<!-- Node0x565243777e38&#45;&gt;Node0x56524377f5e8 -->
<g id="edge49" class="edge">
<title>Node0x565243777e38&#45;&gt;Node0x56524377f5e8</title>
<path fill="none" stroke="#ff7f7f" d="M1000.47,-131.1C998.36,-139.04 995.01,-148.67 991.34,-157.51"/>
<polygon fill="#ff7f7f" stroke="#ff7f7f" points="988.12,-156.14 987.27,-166.7 994.52,-158.97 988.12,-156.14"/>
</g>
<!-- Node0x565243777e38&#45;&gt;Node0x565243780e98 -->
<g id="edge50" class="edge">
<title>Node0x565243777e38&#45;&gt;Node0x565243780e98</title>
<path fill="none" stroke="#ff7f7f" d="M945.93,-131.11C914.04,-141.03 873.72,-153.58 840.35,-163.96"/>
<polygon fill="#ff7f7f" stroke="#ff7f7f" points="839.19,-160.65 830.68,-166.97 841.27,-167.34 839.19,-160.65"/>
</g>
<!-- Node0x565243777e38&#45;&gt;Node0x565243779698 -->
<g id="edge51" class="edge">
<title>Node0x565243777e38&#45;&gt;Node0x565243779698</title>
<path fill="none" stroke="#ff7f7f" d="M960.19,-131.11C937.38,-140.26 908.13,-150.38 880.93,-155 796.37,-169.37 772.76,-167.71 687.93,-155 660.67,-150.92 631.35,-142.5 606.85,-134.27"/>
<polygon fill="#ff7f7f" stroke="#ff7f7f" points="607.96,-130.95 597.37,-131.01 605.69,-137.57 607.96,-130.95"/>
</g>
<!-- Node0x565243777938&#45;&gt;Node0x56524377f868 -->
<g id="edge52" class="edge">
<title>Node0x565243777938&#45;&gt;Node0x56524377f868</title>
<path fill="none" stroke="#ff7f7f" d="M844.46,-50.06C956.86,-58.63 1107.39,-73.88 1125.93,-95 1158.14,-131.68 1143.35,-171.64 1105.93,-203 1086.44,-219.33 989.42,-231.19 881.81,-239.49"/>
<polygon fill="#ff7f7f" stroke="#ff7f7f" points="881.41,-236.01 871.7,-240.26 881.94,-242.99 881.41,-236.01"/>
</g>
<!-- Node0x565243777938&#45;&gt;Node0x56524377f138 -->
<g id="edge53" class="edge">
<title>Node0x565243777938&#45;&gt;Node0x56524377f138</title>
<path fill="none" stroke="#ff7f7f" d="M595.39,-54.6C552.7,-62.34 505.71,-74.83 465.93,-95 444.6,-105.82 445.15,-116.77 425.93,-131 410.96,-142.09 393.54,-152.96 378.18,-161.94"/>
<polygon fill="#ff7f7f" stroke="#ff7f7f" points="376.32,-158.97 369.4,-166.99 379.82,-165.03 376.32,-158.97"/>
</g>
<!-- Node0x565243777938&#45;&gt;Node0x56524377f5e8 -->
<g id="edge54" class="edge">
<title>Node0x565243777938&#45;&gt;Node0x56524377f5e8</title>
<path fill="none" stroke="#ff7f7f" d="M844.5,-41.84C944.97,-44.68 1074.98,-56.11 1108.93,-95 1119.45,-107.05 1117.93,-117.77 1108.93,-131 1099.55,-144.79 1085.97,-155 1071.02,-162.54"/>
<polygon fill="#ff7f7f" stroke="#ff7f7f" points="1069.17,-159.54 1061.55,-166.91 1072.1,-165.9 1069.17,-159.54"/>
</g>
<!-- Node0x565243777938&#45;&gt;Node0x565243780e98 -->
<g id="edge55" class="edge">
<title>Node0x565243777938&#45;&gt;Node0x565243780e98</title>
<path fill="none" stroke="#ff7f7f" d="M700.99,-59.17C683.24,-77.43 661.44,-106.93 675.93,-131 683.99,-144.4 696.7,-154.58 710.4,-162.27"/>
<polygon fill="#ff7f7f" stroke="#ff7f7f" points="709,-165.49 719.49,-166.96 712.21,-159.27 709,-165.49"/>
</g>
<!-- Node0x565243777938&#45;&gt;Node0x565243778798 -->
<g id="edge57" class="edge">
<title>Node0x565243777938&#45;&gt;Node0x565243778798</title>
<path fill="none" stroke="#ff7f7f" d="M629.02,-59.02C569.01,-69.78 490.2,-83.64 427.43,-94.49"/>
<polygon fill="#ff7f7f" stroke="#ff7f7f" points="426.76,-91.05 417.5,-96.2 427.95,-97.95 426.76,-91.05"/>
</g>
<!-- Node0x565243777938&#45;&gt;Node0x5652437808f8 -->
<g id="edge56" class="edge">
<title>Node0x565243777938&#45;&gt;Node0x5652437808f8</title>
<path fill="none" stroke="#ff7f7f" d="M741.46,-59.1C749.99,-67.47 759.54,-77.69 767.5,-86.92"/>
<polygon fill="#ff7f7f" stroke="#ff7f7f" points="764.92,-89.28 774.03,-94.7 770.28,-84.79 764.92,-89.28"/>
</g>
</g>
</svg>
