<?xml version="1.0" encoding="UTF-8" standalone="no"?>
<!DOCTYPE svg PUBLIC "-//W3C//DTD SVG 1.1//EN"
 "http://www.w3.org/Graphics/SVG/1.1/DTD/svg11.dtd">
<!-- Generated by graphviz version 2.43.0 (0)
 -->
<!-- Title: bin/llvm&#45;nm Pages: 1 -->
<svg width="1863pt" height="283pt"
 viewBox="0.00 0.00 1863.32 283.00" xmlns="http://www.w3.org/2000/svg" xmlns:xlink="http://www.w3.org/1999/xlink">
<g id="graph0" class="graph" transform="scale(1 1) rotate(0) translate(4 279)">
<title>bin/llvm&#45;nm</title>
<polygon fill="white" stroke="transparent" points="-4,4 -4,-279 1859.32,-279 1859.32,4 -4,4"/>
<text text-anchor="middle" x="927.66" y="-7.8" font-family="Times,serif" font-size="14.00">bin/llvm&#45;nm</text>
<!-- Node0x559bbed989e8 -->
<g id="node1" class="node">
<title>Node0x559bbed989e8</title>
<polygon fill="#ff7f7f" stroke="black" points="1221.32,-275 809.32,-275 809.32,-239 1221.32,-239 1221.32,-275"/>
<text text-anchor="middle" x="1015.32" y="-253.3" font-family="Times,serif" font-size="14.00">{tools/llvm&#45;nm/CMakeFiles/llvm&#45;nm.dir/llvm&#45;nm.cpp.o}</text>
</g>
<!-- Node0x559bbed99b18 -->
<g id="node2" class="node">
<title>Node0x559bbed99b18</title>
<polygon fill="#ff7f7f" stroke="black" points="255.32,-203 23.32,-203 23.32,-167 255.32,-167 255.32,-203"/>
<text text-anchor="middle" x="139.32" y="-181.3" font-family="Times,serif" font-size="14.00">{lib/libLLVMX86AsmParser.a}</text>
</g>
<!-- Node0x559bbed989e8&#45;&gt;Node0x559bbed99b18 -->
<g id="edge1" class="edge">
<title>Node0x559bbed989e8&#45;&gt;Node0x559bbed99b18</title>
<path fill="none" stroke="#ff7f7f" d="M809.17,-245.49C658.78,-236.78 449.92,-222.8 265.16,-204.01"/>
<polygon fill="#ff7f7f" stroke="#ff7f7f" points="265.29,-200.5 254.99,-202.97 264.58,-207.47 265.29,-200.5"/>
</g>
<!-- Node0x559bbed9aa68 -->
<g id="node3" class="node">
<title>Node0x559bbed9aa68</title>
<polygon fill="#ff7f7f" stroke="black" points="464.82,-203 273.82,-203 273.82,-167 464.82,-167 464.82,-203"/>
<text text-anchor="middle" x="369.32" y="-181.3" font-family="Times,serif" font-size="14.00">{lib/libLLVMX86Desc.a}</text>
</g>
<!-- Node0x559bbed989e8&#45;&gt;Node0x559bbed9aa68 -->
<g id="edge2" class="edge">
<title>Node0x559bbed989e8&#45;&gt;Node0x559bbed9aa68</title>
<path fill="none" stroke="#ff7f7f" d="M809.07,-239.59C708.64,-230.61 585.98,-218.44 475.05,-204.25"/>
<polygon fill="#ff7f7f" stroke="#ff7f7f" points="475.41,-200.77 465.04,-202.96 474.51,-207.71 475.41,-200.77"/>
</g>
<!-- Node0x559bbed9a518 -->
<g id="node4" class="node">
<title>Node0x559bbed9a518</title>
<polygon fill="#ff7f7f" stroke="black" points="667.32,-203 483.32,-203 483.32,-167 667.32,-167 667.32,-203"/>
<text text-anchor="middle" x="575.32" y="-181.3" font-family="Times,serif" font-size="14.00">{lib/libLLVMX86Info.a}</text>
</g>
<!-- Node0x559bbed989e8&#45;&gt;Node0x559bbed9a518 -->
<g id="edge3" class="edge">
<title>Node0x559bbed989e8&#45;&gt;Node0x559bbed9a518</title>
<path fill="none" stroke="#ff7f7f" d="M907.76,-238.98C842.29,-228.61 756.98,-215.07 681.32,-203 680.05,-202.8 678.77,-202.59 677.49,-202.39"/>
<polygon fill="#ff7f7f" stroke="#ff7f7f" points="677.96,-198.92 667.53,-200.8 676.85,-205.83 677.96,-198.92"/>
</g>
<!-- Node0x559bbed98718 -->
<g id="node5" class="node">
<title>Node0x559bbed98718</title>
<polygon fill="#ff7f7f" stroke="black" points="1523.32,-203 1361.32,-203 1361.32,-167 1523.32,-167 1523.32,-203"/>
<text text-anchor="middle" x="1442.32" y="-181.3" font-family="Times,serif" font-size="14.00">{lib/libLLVMCore.a}</text>
</g>
<!-- Node0x559bbed989e8&#45;&gt;Node0x559bbed98718 -->
<g id="edge4" class="edge">
<title>Node0x559bbed989e8&#45;&gt;Node0x559bbed98718</title>
<path fill="none" stroke="#ff7f7f" d="M1121.43,-238.96C1185.68,-228.97 1269.2,-215.82 1343.32,-203 1345.94,-202.55 1348.61,-202.08 1351.31,-201.6"/>
<polygon fill="#ff7f7f" stroke="#ff7f7f" points="1351.94,-205.04 1361.17,-199.83 1350.71,-198.15 1351.94,-205.04"/>
</g>
<!-- Node0x559bbed99118 -->
<g id="node6" class="node">
<title>Node0x559bbed99118</title>
<polygon fill="#ff7f7f" stroke="black" points="1102.82,-203 927.82,-203 927.82,-167 1102.82,-167 1102.82,-203"/>
<text text-anchor="middle" x="1015.32" y="-181.3" font-family="Times,serif" font-size="14.00">{lib/libLLVMObject.a}</text>
</g>
<!-- Node0x559bbed989e8&#45;&gt;Node0x559bbed99118 -->
<g id="edge5" class="edge">
<title>Node0x559bbed989e8&#45;&gt;Node0x559bbed99118</title>
<path fill="none" stroke="#ff7f7f" d="M1009.4,-238.7C1008.61,-230.98 1008.38,-221.71 1008.72,-213.11"/>
<polygon fill="#ff7f7f" stroke="#ff7f7f" points="1012.22,-213.32 1009.42,-203.1 1005.23,-212.84 1012.22,-213.32"/>
</g>
<!-- Node0x559bbed99668 -->
<g id="node7" class="node">
<title>Node0x559bbed99668</title>
<polygon fill="none" stroke="black" points="1855.32,-203 1655.32,-203 1655.32,-167 1855.32,-167 1855.32,-203"/>
<text text-anchor="middle" x="1755.32" y="-181.3" font-family="Times,serif" font-size="14.00">{lib/libLLVMDemangle.a}</text>
</g>
<!-- Node0x559bbed989e8&#45;&gt;Node0x559bbed99668 -->
<g id="edge6" class="edge">
<title>Node0x559bbed989e8&#45;&gt;Node0x559bbed99668</title>
<path fill="none" stroke="black" d="M1221.47,-241.86C1343.7,-232.65 1501.57,-219.32 1641.32,-203 1642.6,-202.85 1643.9,-202.7 1645.2,-202.54"/>
<polygon fill="black" stroke="black" points="1645.78,-205.99 1655.27,-201.29 1644.92,-199.05 1645.78,-205.99"/>
</g>
<!-- Node0x559bbed9ca48 -->
<g id="node8" class="node">
<title>Node0x559bbed9ca48</title>
<polygon fill="#ff7f7f" stroke="black" points="909.32,-203 723.32,-203 723.32,-167 909.32,-167 909.32,-203"/>
<text text-anchor="middle" x="816.32" y="-181.3" font-family="Times,serif" font-size="14.00">{lib/libLLVMSupport.a}</text>
</g>
<!-- Node0x559bbed989e8&#45;&gt;Node0x559bbed9ca48 -->
<g id="edge7" class="edge">
<title>Node0x559bbed989e8&#45;&gt;Node0x559bbed9ca48</title>
<path fill="none" stroke="#ff7f7f" d="M961,-238.97C932.29,-229.23 897.26,-216.94 868.83,-206.66"/>
<polygon fill="#ff7f7f" stroke="#ff7f7f" points="869.66,-203.24 859.07,-203.11 867.27,-209.82 869.66,-203.24"/>
</g>
<!-- Node0x559bbed9c318 -->
<g id="node9" class="node">
<title>Node0x559bbed9c318</title>
<polygon fill="#ff7f7f" stroke="black" points="1343.32,-203 1159.32,-203 1159.32,-167 1343.32,-167 1343.32,-203"/>
<text text-anchor="middle" x="1251.32" y="-181.3" font-family="Times,serif" font-size="14.00">{lib/libLLVMTextAPI.a}</text>
</g>
<!-- Node0x559bbed989e8&#45;&gt;Node0x559bbed9c318 -->
<g id="edge8" class="edge">
<title>Node0x559bbed989e8&#45;&gt;Node0x559bbed9c318</title>
<path fill="none" stroke="#ff7f7f" d="M1066.86,-238.97C1099.36,-229.01 1141.78,-216.41 1177.77,-205.99"/>
<polygon fill="#ff7f7f" stroke="#ff7f7f" points="1179.1,-209.25 1187.73,-203.11 1177.16,-202.52 1179.1,-209.25"/>
</g>
<!-- Node0x559bbed99b18&#45;&gt;Node0x559bbed989e8 -->
<g id="edge9" class="edge">
<title>Node0x559bbed99b18&#45;&gt;Node0x559bbed989e8</title>
<path fill="none" stroke="#ff7f7f" d="M255.65,-201.06C261.63,-201.75 267.54,-202.4 273.32,-203 450.14,-221.24 651.04,-235.06 799.18,-244.01"/>
<polygon fill="#ff7f7f" stroke="#ff7f7f" points="799.12,-247.51 809.31,-244.62 799.54,-240.52 799.12,-247.51"/>
</g>
<!-- Node0x559bbed99b18&#45;&gt;Node0x559bbed9aa68 -->
<g id="edge10" class="edge">
<title>Node0x559bbed99b18&#45;&gt;Node0x559bbed9aa68</title>
<path fill="none" stroke="#ff7f7f" d="M255.66,-171.5C258.16,-171.51 260.66,-171.53 263.16,-171.58"/>
<polygon fill="#ff7f7f" stroke="#ff7f7f" points="263.33,-175.09 273.42,-171.87 263.53,-168.09 263.33,-175.09"/>
</g>
<!-- Node0x559bbed99b18&#45;&gt;Node0x559bbed9a518 -->
<g id="edge11" class="edge">
<title>Node0x559bbed99b18&#45;&gt;Node0x559bbed9a518</title>
<path fill="none" stroke="#ff7f7f" d="M193.43,-203.01C217.58,-210.14 246.57,-217.47 273.32,-221 357.92,-232.17 381.05,-234.44 465.32,-221 483.99,-218.02 503.79,-212.37 521.37,-206.41"/>
<polygon fill="#ff7f7f" stroke="#ff7f7f" points="522.6,-209.69 530.89,-203.09 520.29,-203.08 522.6,-209.69"/>
</g>
<!-- Node0x559bbed99b18&#45;&gt;Node0x559bbed9ca48 -->
<g id="edge12" class="edge">
<title>Node0x559bbed99b18&#45;&gt;Node0x559bbed9ca48</title>
<path fill="none" stroke="#ff7f7f" d="M193.43,-203.01C217.58,-210.14 246.57,-217.47 273.32,-221 367.39,-233.42 606.5,-235.22 700.32,-221 720.11,-218 741.18,-212.27 759.86,-206.25"/>
<polygon fill="#ff7f7f" stroke="#ff7f7f" points="760.99,-209.56 769.38,-203.09 758.79,-202.92 760.99,-209.56"/>
</g>
<!-- Node0x559bbed9cd18 -->
<g id="node10" class="node">
<title>Node0x559bbed9cd18</title>
<polygon fill="#ff7f7f" stroke="black" points="394.32,-131 196.32,-131 196.32,-95 394.32,-95 394.32,-131"/>
<text text-anchor="middle" x="295.32" y="-109.3" font-family="Times,serif" font-size="14.00">{lib/libLLVMMCParser.a}</text>
</g>
<!-- Node0x559bbed99b18&#45;&gt;Node0x559bbed9cd18 -->
<g id="edge13" class="edge">
<title>Node0x559bbed99b18&#45;&gt;Node0x559bbed9cd18</title>
<path fill="none" stroke="#ff7f7f" d="M171.58,-166.88C191.91,-157.31 218.54,-145.3 241.93,-135.15"/>
<polygon fill="#ff7f7f" stroke="#ff7f7f" points="243.59,-138.24 251.39,-131.07 240.82,-131.82 243.59,-138.24"/>
</g>
<!-- Node0x559bbed9b508 -->
<g id="node11" class="node">
<title>Node0x559bbed9b508</title>
<polygon fill="#ff7f7f" stroke="black" points="831.82,-131 678.82,-131 678.82,-95 831.82,-95 831.82,-131"/>
<text text-anchor="middle" x="755.32" y="-109.3" font-family="Times,serif" font-size="14.00">{lib/libLLVMMC.a}</text>
</g>
<!-- Node0x559bbed99b18&#45;&gt;Node0x559bbed9b508 -->
<g id="edge14" class="edge">
<title>Node0x559bbed99b18&#45;&gt;Node0x559bbed9b508</title>
<path fill="none" stroke="#ff7f7f" d="M254.99,-167.04C255.1,-167.02 255.21,-167.01 255.32,-167 434.9,-146.82 481.42,-156.56 660.32,-131 662.98,-130.62 665.68,-130.21 668.42,-129.78"/>
<polygon fill="#ff7f7f" stroke="#ff7f7f" points="669.1,-133.21 678.39,-128.13 667.96,-126.31 669.1,-133.21"/>
</g>
<!-- Node0x559bbed9aa68&#45;&gt;Node0x559bbed989e8 -->
<g id="edge15" class="edge">
<title>Node0x559bbed9aa68&#45;&gt;Node0x559bbed989e8</title>
<path fill="none" stroke="#ff7f7f" d="M465.04,-200.48C471.23,-201.38 477.37,-202.23 483.32,-203 590.42,-216.9 709.89,-228.97 808.45,-238.06"/>
<polygon fill="#ff7f7f" stroke="#ff7f7f" points="808.25,-241.56 818.53,-238.98 808.89,-234.58 808.25,-241.56"/>
</g>
<!-- Node0x559bbed9aa68&#45;&gt;Node0x559bbed99b18 -->
<g id="edge20" class="edge">
<title>Node0x559bbed9aa68&#45;&gt;Node0x559bbed99b18</title>
<path fill="none" stroke="#ff7f7f" d="M273.42,-198.13C270.93,-198.22 268.43,-198.3 265.93,-198.36"/>
<polygon fill="#ff7f7f" stroke="#ff7f7f" points="265.62,-194.87 255.66,-198.5 265.71,-201.87 265.62,-194.87"/>
</g>
<!-- Node0x559bbed9aa68&#45;&gt;Node0x559bbed9a518 -->
<g id="edge18" class="edge">
<title>Node0x559bbed9aa68&#45;&gt;Node0x559bbed9a518</title>
<path fill="none" stroke="#ff7f7f" d="M465.08,-185C467.71,-185 470.35,-185 472.99,-185"/>
<polygon fill="#ff7f7f" stroke="#ff7f7f" points="473.16,-188.5 483.16,-185 473.16,-181.5 473.16,-188.5"/>
</g>
<!-- Node0x559bbed9aa68&#45;&gt;Node0x559bbed9ca48 -->
<g id="edge16" class="edge">
<title>Node0x559bbed9aa68&#45;&gt;Node0x559bbed9ca48</title>
<path fill="none" stroke="#ff7f7f" d="M424.63,-203.03C442.23,-207.93 461.91,-212.56 480.32,-215 578.57,-228.04 605.04,-227.82 703.32,-215 718.67,-213 734.91,-209.52 750.14,-205.63"/>
<polygon fill="#ff7f7f" stroke="#ff7f7f" points="751.21,-208.97 759.99,-203.03 749.42,-202.2 751.21,-208.97"/>
</g>
<!-- Node0x559bbed9aa68&#45;&gt;Node0x559bbed9b508 -->
<g id="edge17" class="edge">
<title>Node0x559bbed9aa68&#45;&gt;Node0x559bbed9b508</title>
<path fill="none" stroke="#ff7f7f" d="M460.86,-166.96C518.19,-156.81 593.51,-143.5 660.32,-131 663.12,-130.48 665.98,-129.94 668.86,-129.39"/>
<polygon fill="#ff7f7f" stroke="#ff7f7f" points="669.61,-132.81 678.77,-127.49 668.3,-125.93 669.61,-132.81"/>
</g>
<!-- Node0x559bbed9d268 -->
<g id="node12" class="node">
<title>Node0x559bbed9d268</title>
<polygon fill="none" stroke="black" points="660.32,-131 412.32,-131 412.32,-95 660.32,-95 660.32,-131"/>
<text text-anchor="middle" x="536.32" y="-109.3" font-family="Times,serif" font-size="14.00">{lib/libLLVMMCDisassembler.a}</text>
</g>
<!-- Node0x559bbed9aa68&#45;&gt;Node0x559bbed9d268 -->
<g id="edge19" class="edge">
<title>Node0x559bbed9aa68&#45;&gt;Node0x559bbed9d268</title>
<path fill="none" stroke="black" d="M410.17,-166.88C433.1,-157.26 461.9,-145.19 486.19,-135.01"/>
<polygon fill="black" stroke="black" points="487.73,-138.16 495.6,-131.07 485.02,-131.71 487.73,-138.16"/>
</g>
<!-- Node0x559bbed98d08 -->
<g id="node13" class="node">
<title>Node0x559bbed98d08</title>
<polygon fill="#ff7f7f" stroke="black" points="1324.82,-131 1097.82,-131 1097.82,-95 1324.82,-95 1324.82,-131"/>
<text text-anchor="middle" x="1211.32" y="-109.3" font-family="Times,serif" font-size="14.00">{lib/libLLVMBinaryFormat.a}</text>
</g>
<!-- Node0x559bbed9aa68&#45;&gt;Node0x559bbed98d08 -->
<g id="edge21" class="edge">
<title>Node0x559bbed9aa68&#45;&gt;Node0x559bbed98d08</title>
<path fill="none" stroke="#ff7f7f" d="M464.83,-168.11C468.03,-167.72 471.2,-167.34 474.32,-167 743.16,-137.45 815.09,-157.41 1087.52,-131.13"/>
<polygon fill="#ff7f7f" stroke="#ff7f7f" points="1088.1,-134.59 1097.71,-130.13 1087.41,-127.62 1088.1,-134.59"/>
</g>
<!-- Node0x559bbed9a518&#45;&gt;Node0x559bbed9ca48 -->
<g id="edge22" class="edge">
<title>Node0x559bbed9a518&#45;&gt;Node0x559bbed9ca48</title>
<path fill="none" stroke="#ff7f7f" d="M667.58,-185C682.6,-185 697.63,-185 712.66,-185"/>
<polygon fill="#ff7f7f" stroke="#ff7f7f" points="713.06,-188.5 723.06,-185 713.06,-181.5 713.06,-188.5"/>
</g>
<!-- Node0x559bbed98718&#45;&gt;Node0x559bbed989e8 -->
<g id="edge24" class="edge">
<title>Node0x559bbed98718&#45;&gt;Node0x559bbed989e8</title>
<path fill="none" stroke="#ff7f7f" d="M1360.88,-203.08C1290.63,-215.23 1211.99,-227.66 1147.47,-237.42"/>
<polygon fill="#ff7f7f" stroke="#ff7f7f" points="1146.6,-234.01 1137.23,-238.96 1147.64,-240.93 1146.6,-234.01"/>
</g>
<!-- Node0x559bbed98718&#45;&gt;Node0x559bbed9aa68 -->
<g id="edge25" class="edge">
<title>Node0x559bbed98718&#45;&gt;Node0x559bbed9aa68</title>
<path fill="none" stroke="#ff7f7f" d="M1402.26,-203.17C1384.58,-210.24 1363.31,-217.48 1343.32,-221 1249.21,-237.58 577.76,-235.56 483.32,-221 463.93,-218.01 443.32,-212.32 425.03,-206.33"/>
<polygon fill="#ff7f7f" stroke="#ff7f7f" points="426.01,-202.97 415.42,-203.09 423.77,-209.6 426.01,-202.97"/>
</g>
<!-- Node0x559bbed98718&#45;&gt;Node0x559bbed99118 -->
<g id="edge29" class="edge">
<title>Node0x559bbed98718&#45;&gt;Node0x559bbed99118</title>
<path fill="none" stroke="#ff7f7f" d="M1394.65,-203.02C1379.43,-207.92 1362.37,-212.55 1346.32,-215 1262.84,-227.74 1240.3,-223.84 1156.32,-215 1136.52,-212.92 1115.4,-209.23 1095.71,-205.14"/>
<polygon fill="#ff7f7f" stroke="#ff7f7f" points="1096.37,-201.7 1085.86,-203.04 1094.91,-208.55 1096.37,-201.7"/>
</g>
<!-- Node0x559bbed98718&#45;&gt;Node0x559bbed9ca48 -->
<g id="edge23" class="edge">
<title>Node0x559bbed98718&#45;&gt;Node0x559bbed9ca48</title>
<path fill="none" stroke="#ff7f7f" d="M1394.65,-203.02C1379.43,-207.92 1362.37,-212.55 1346.32,-215 1253.83,-229.11 1018.03,-227.53 925.32,-215 910.62,-213.01 895.1,-209.59 880.53,-205.74"/>
<polygon fill="#ff7f7f" stroke="#ff7f7f" points="881.18,-202.29 870.61,-203.03 879.33,-209.04 881.18,-202.29"/>
</g>
<!-- Node0x559bbed98718&#45;&gt;Node0x559bbed98d08 -->
<g id="edge26" class="edge">
<title>Node0x559bbed98718&#45;&gt;Node0x559bbed98d08</title>
<path fill="none" stroke="#ff7f7f" d="M1386.1,-166.97C1353.41,-157.06 1312.01,-144.51 1277.72,-134.12"/>
<polygon fill="#ff7f7f" stroke="#ff7f7f" points="1278.37,-130.66 1267.78,-131.11 1276.34,-137.36 1278.37,-130.66"/>
</g>
<!-- Node0x559bbed9af68 -->
<g id="node14" class="node">
<title>Node0x559bbed9af68</title>
<polygon fill="#ff7f7f" stroke="black" points="1079.82,-131 888.82,-131 888.82,-95 1079.82,-95 1079.82,-131"/>
<text text-anchor="middle" x="984.32" y="-109.3" font-family="Times,serif" font-size="14.00">{lib/libLLVMRemarks.a}</text>
</g>
<!-- Node0x559bbed98718&#45;&gt;Node0x559bbed9af68 -->
<g id="edge27" class="edge">
<title>Node0x559bbed98718&#45;&gt;Node0x559bbed9af68</title>
<path fill="none" stroke="#ff7f7f" d="M1361.19,-170.04C1355.13,-168.97 1349.12,-167.95 1343.32,-167 1230.28,-148.6 1198.83,-148.42 1090.1,-132.45"/>
<polygon fill="#ff7f7f" stroke="#ff7f7f" points="1090.45,-128.96 1080.04,-130.96 1089.42,-135.89 1090.45,-128.96"/>
</g>
<!-- Node0x559bbed9be68 -->
<g id="node15" class="node">
<title>Node0x559bbed9be68</title>
<polygon fill="#ff7f7f" stroke="black" points="1541.82,-131 1342.82,-131 1342.82,-95 1541.82,-95 1541.82,-131"/>
<text text-anchor="middle" x="1442.32" y="-109.3" font-family="Times,serif" font-size="14.00">{lib/libLLVMBitReader.a}</text>
</g>
<!-- Node0x559bbed98718&#45;&gt;Node0x559bbed9be68 -->
<g id="edge28" class="edge">
<title>Node0x559bbed98718&#45;&gt;Node0x559bbed9be68</title>
<path fill="none" stroke="#ff7f7f" d="M1436.4,-166.7C1435.61,-158.98 1435.38,-149.71 1435.72,-141.11"/>
<polygon fill="#ff7f7f" stroke="#ff7f7f" points="1439.22,-141.32 1436.42,-131.1 1432.23,-140.84 1439.22,-141.32"/>
</g>
<!-- Node0x559bbed99118&#45;&gt;Node0x559bbed989e8 -->
<g id="edge30" class="edge">
<title>Node0x559bbed99118&#45;&gt;Node0x559bbed989e8</title>
<path fill="none" stroke="#ff7f7f" d="M1021.21,-203.1C1022.02,-210.79 1022.25,-220.05 1021.92,-228.67"/>
<polygon fill="#ff7f7f" stroke="#ff7f7f" points="1018.43,-228.48 1021.23,-238.7 1025.41,-228.96 1018.43,-228.48"/>
</g>
<!-- Node0x559bbed99118&#45;&gt;Node0x559bbed99b18 -->
<g id="edge37" class="edge">
<title>Node0x559bbed99118&#45;&gt;Node0x559bbed99b18</title>
<path fill="none" stroke="#ff7f7f" d="M972.56,-203.09C953.56,-210.18 930.7,-217.47 909.32,-221 769.87,-244.03 413.44,-239.49 273.32,-221 250.12,-217.94 225.24,-212.02 203.29,-205.85"/>
<polygon fill="#ff7f7f" stroke="#ff7f7f" points="204,-202.41 193.43,-203.01 202.06,-209.14 204,-202.41"/>
</g>
<!-- Node0x559bbed99118&#45;&gt;Node0x559bbed9aa68 -->
<g id="edge36" class="edge">
<title>Node0x559bbed99118&#45;&gt;Node0x559bbed9aa68</title>
<path fill="none" stroke="#ff7f7f" d="M972.56,-203.09C953.56,-210.18 930.7,-217.47 909.32,-221 815.92,-236.43 576.88,-235.42 483.32,-221 463.93,-218.01 443.32,-212.32 425.03,-206.33"/>
<polygon fill="#ff7f7f" stroke="#ff7f7f" points="426.01,-202.97 415.42,-203.09 423.77,-209.6 426.01,-202.97"/>
</g>
<!-- Node0x559bbed99118&#45;&gt;Node0x559bbed98718 -->
<g id="edge34" class="edge">
<title>Node0x559bbed99118&#45;&gt;Node0x559bbed98718</title>
<path fill="none" stroke="#ff7f7f" d="M1065.25,-203.01C1093.36,-212.2 1129.33,-222.38 1162.32,-227 1240.66,-237.97 1262.71,-242.35 1340.32,-227 1360.13,-223.08 1380.93,-215.26 1398.54,-207.42"/>
<polygon fill="#ff7f7f" stroke="#ff7f7f" points="1400.35,-210.44 1407.97,-203.09 1397.42,-204.08 1400.35,-210.44"/>
</g>
<!-- Node0x559bbed99118&#45;&gt;Node0x559bbed9ca48 -->
<g id="edge31" class="edge">
<title>Node0x559bbed99118&#45;&gt;Node0x559bbed9ca48</title>
<path fill="none" stroke="#ff7f7f" d="M927.77,-171.69C925.12,-171.61 922.47,-171.55 919.82,-171.52"/>
<polygon fill="#ff7f7f" stroke="#ff7f7f" points="919.59,-168.02 909.6,-171.55 919.61,-175.02 919.59,-168.02"/>
</g>
<!-- Node0x559bbed99118&#45;&gt;Node0x559bbed9c318 -->
<g id="edge39" class="edge">
<title>Node0x559bbed99118&#45;&gt;Node0x559bbed9c318</title>
<path fill="none" stroke="#ff7f7f" d="M1102.9,-172.4C1118.27,-171.49 1133.65,-171.27 1149.03,-171.74"/>
<polygon fill="#ff7f7f" stroke="#ff7f7f" points="1149,-175.24 1159.13,-172.15 1149.28,-168.25 1149,-175.24"/>
</g>
<!-- Node0x559bbed99118&#45;&gt;Node0x559bbed9cd18 -->
<g id="edge38" class="edge">
<title>Node0x559bbed99118&#45;&gt;Node0x559bbed9cd18</title>
<path fill="none" stroke="#ff7f7f" d="M927.56,-169.49C921.39,-168.57 915.26,-167.73 909.32,-167 685.12,-139.59 624.19,-156.32 404.88,-132.18"/>
<polygon fill="#ff7f7f" stroke="#ff7f7f" points="404.98,-128.67 394.65,-131.04 404.2,-135.63 404.98,-128.67"/>
</g>
<!-- Node0x559bbed99118&#45;&gt;Node0x559bbed9b508 -->
<g id="edge33" class="edge">
<title>Node0x559bbed99118&#45;&gt;Node0x559bbed9b508</title>
<path fill="none" stroke="#ff7f7f" d="M946.16,-166.97C907.99,-156.97 860.82,-144.3 822.91,-133.85"/>
<polygon fill="#ff7f7f" stroke="#ff7f7f" points="823.55,-130.4 812.98,-131.11 821.68,-137.15 823.55,-130.4"/>
</g>
<!-- Node0x559bbed99118&#45;&gt;Node0x559bbed98d08 -->
<g id="edge32" class="edge">
<title>Node0x559bbed99118&#45;&gt;Node0x559bbed98d08</title>
<path fill="none" stroke="#ff7f7f" d="M1063.01,-166.97C1090.4,-157.19 1124.98,-144.84 1153.85,-134.52"/>
<polygon fill="#ff7f7f" stroke="#ff7f7f" points="1155.17,-137.77 1163.41,-131.11 1152.81,-131.18 1155.17,-137.77"/>
</g>
<!-- Node0x559bbed99118&#45;&gt;Node0x559bbed9be68 -->
<g id="edge35" class="edge">
<title>Node0x559bbed99118&#45;&gt;Node0x559bbed9be68</title>
<path fill="none" stroke="#ff7f7f" d="M1103.07,-168.68C1169.59,-157.56 1261.37,-142.5 1332.71,-131"/>
<polygon fill="#ff7f7f" stroke="#ff7f7f" points="1333.32,-134.45 1342.64,-129.41 1332.21,-127.54 1333.32,-134.45"/>
</g>
<!-- Node0x559bbed9ca48&#45;&gt;Node0x559bbed989e8 -->
<g id="edge40" class="edge">
<title>Node0x559bbed9ca48&#45;&gt;Node0x559bbed989e8</title>
<path fill="none" stroke="#ff7f7f" d="M870.73,-203.07C899.41,-212.8 934.39,-225.06 962.78,-235.33"/>
<polygon fill="#ff7f7f" stroke="#ff7f7f" points="961.94,-238.75 972.53,-238.88 964.33,-232.17 961.94,-238.75"/>
</g>
<!-- Node0x559bbed9ca48&#45;&gt;Node0x559bbed9aa68 -->
<g id="edge43" class="edge">
<title>Node0x559bbed9ca48&#45;&gt;Node0x559bbed9aa68</title>
<path fill="none" stroke="#ff7f7f" d="M775.93,-203.11C753.31,-212.25 724.31,-222.38 697.32,-227 604.89,-242.83 578.71,-243.08 486.32,-227 463.37,-223.01 438.98,-214.92 418.44,-206.89"/>
<polygon fill="#ff7f7f" stroke="#ff7f7f" points="419.58,-203.58 409,-203.1 416.97,-210.08 419.58,-203.58"/>
</g>
<!-- Node0x559bbed9ca48&#45;&gt;Node0x559bbed98718 -->
<g id="edge41" class="edge">
<title>Node0x559bbed9ca48&#45;&gt;Node0x559bbed98718</title>
<path fill="none" stroke="#ff7f7f" d="M855.29,-203.1C877.12,-212.25 905.15,-222.37 931.32,-227 976.07,-234.92 1295.74,-235.82 1340.32,-227 1360.13,-223.08 1380.93,-215.26 1398.54,-207.42"/>
<polygon fill="#ff7f7f" stroke="#ff7f7f" points="1400.35,-210.44 1407.97,-203.09 1397.42,-204.08 1400.35,-210.44"/>
</g>
<!-- Node0x559bbed9ca48&#45;&gt;Node0x559bbed99118 -->
<g id="edge42" class="edge">
<title>Node0x559bbed9ca48&#45;&gt;Node0x559bbed99118</title>
<path fill="none" stroke="#ff7f7f" d="M909.6,-198.45C912.25,-198.49 914.9,-198.51 917.55,-198.5"/>
<polygon fill="#ff7f7f" stroke="#ff7f7f" points="917.84,-201.99 927.77,-198.31 917.71,-194.99 917.84,-201.99"/>
</g>
<!-- Node0x559bbed9c318&#45;&gt;Node0x559bbed989e8 -->
<g id="edge45" class="edge">
<title>Node0x559bbed9c318&#45;&gt;Node0x559bbed989e8</title>
<path fill="none" stroke="#ff7f7f" d="M1199.53,-203.11C1166.98,-213.08 1124.55,-225.68 1088.59,-236.09"/>
<polygon fill="#ff7f7f" stroke="#ff7f7f" points="1087.27,-232.83 1078.64,-238.97 1089.21,-239.56 1087.27,-232.83"/>
</g>
<!-- Node0x559bbed9c318&#45;&gt;Node0x559bbed9aa68 -->
<g id="edge48" class="edge">
<title>Node0x559bbed9c318&#45;&gt;Node0x559bbed9aa68</title>
<path fill="none" stroke="#ff7f7f" d="M1204.8,-203.09C1184.16,-210.19 1159.38,-217.48 1136.32,-221 992.87,-242.93 626.73,-243.11 483.32,-221 463.93,-218.01 443.32,-212.32 425.03,-206.33"/>
<polygon fill="#ff7f7f" stroke="#ff7f7f" points="426.01,-202.97 415.42,-203.09 423.77,-209.6 426.01,-202.97"/>
</g>
<!-- Node0x559bbed9c318&#45;&gt;Node0x559bbed98718 -->
<g id="edge47" class="edge">
<title>Node0x559bbed9c318&#45;&gt;Node0x559bbed98718</title>
<path fill="none" stroke="#ff7f7f" d="M1343.46,-185C1345.96,-185 1348.46,-185 1350.95,-185"/>
<polygon fill="#ff7f7f" stroke="#ff7f7f" points="1351.22,-188.5 1361.22,-185 1351.22,-181.5 1351.22,-188.5"/>
</g>
<!-- Node0x559bbed9c318&#45;&gt;Node0x559bbed99118 -->
<g id="edge46" class="edge">
<title>Node0x559bbed9c318&#45;&gt;Node0x559bbed99118</title>
<path fill="none" stroke="#ff7f7f" d="M1159.13,-197.85C1143.76,-198.62 1128.38,-198.71 1113,-198.1"/>
<polygon fill="#ff7f7f" stroke="#ff7f7f" points="1113.06,-194.6 1102.9,-197.6 1112.71,-201.59 1113.06,-194.6"/>
</g>
<!-- Node0x559bbed9c318&#45;&gt;Node0x559bbed9ca48 -->
<g id="edge44" class="edge">
<title>Node0x559bbed9c318&#45;&gt;Node0x559bbed9ca48</title>
<path fill="none" stroke="#ff7f7f" d="M1204.8,-203.09C1184.16,-210.19 1159.38,-217.48 1136.32,-221 1044.93,-234.97 1019.65,-235.32 928.32,-221 909.33,-218.02 889.18,-212.37 871.27,-206.42"/>
<polygon fill="#ff7f7f" stroke="#ff7f7f" points="872.18,-203.03 861.58,-203.09 869.9,-209.65 872.18,-203.03"/>
</g>
<!-- Node0x559bbed9cd18&#45;&gt;Node0x559bbed989e8 -->
<g id="edge49" class="edge">
<title>Node0x559bbed9cd18&#45;&gt;Node0x559bbed989e8</title>
<path fill="none" stroke="#ff7f7f" d="M196.18,-116.28C93.42,-121.96 -44.58,-140.9 14.32,-203 40.92,-231.05 512.93,-245.69 799.16,-252.03"/>
<polygon fill="#ff7f7f" stroke="#ff7f7f" points="799.19,-255.53 809.26,-252.25 799.34,-248.53 799.19,-255.53"/>
</g>
<!-- Node0x559bbed9cd18&#45;&gt;Node0x559bbed99b18 -->
<g id="edge50" class="edge">
<title>Node0x559bbed9cd18&#45;&gt;Node0x559bbed99b18</title>
<path fill="none" stroke="#ff7f7f" d="M263.17,-131.07C242.87,-140.63 216.24,-152.63 192.84,-162.79"/>
<polygon fill="#ff7f7f" stroke="#ff7f7f" points="191.17,-159.7 183.38,-166.88 193.94,-166.13 191.17,-159.7"/>
</g>
<!-- Node0x559bbed9cd18&#45;&gt;Node0x559bbed9aa68 -->
<g id="edge51" class="edge">
<title>Node0x559bbed9cd18&#45;&gt;Node0x559bbed9aa68</title>
<path fill="none" stroke="#ff7f7f" d="M313.4,-131.1C322.51,-139.72 333.71,-150.32 343.69,-159.76"/>
<polygon fill="#ff7f7f" stroke="#ff7f7f" points="341.36,-162.37 351.03,-166.7 346.17,-157.28 341.36,-162.37"/>
</g>
<!-- Node0x559bbed9cd18&#45;&gt;Node0x559bbed99118 -->
<g id="edge52" class="edge">
<title>Node0x559bbed9cd18&#45;&gt;Node0x559bbed99118</title>
<path fill="none" stroke="#ff7f7f" d="M394.38,-128.78C400.46,-129.58 406.47,-130.34 412.32,-131 636.85,-156.47 697.73,-139.68 917.33,-165.8"/>
<polygon fill="#ff7f7f" stroke="#ff7f7f" points="917.22,-169.31 927.57,-167.03 918.06,-162.36 917.22,-169.31"/>
</g>
<!-- Node0x559bbed9cd18&#45;&gt;Node0x559bbed9ca48 -->
<g id="edge53" class="edge">
<title>Node0x559bbed9cd18&#45;&gt;Node0x559bbed9ca48</title>
<path fill="none" stroke="#ff7f7f" d="M394.47,-129.72C397.45,-130.16 400.4,-130.58 403.32,-131 461.15,-139.26 610.57,-158.21 712.88,-171.07"/>
<polygon fill="#ff7f7f" stroke="#ff7f7f" points="712.58,-174.56 722.94,-172.33 713.45,-167.61 712.58,-174.56"/>
</g>
<!-- Node0x559bbed9cd18&#45;&gt;Node0x559bbed9b508 -->
<g id="edge54" class="edge">
<title>Node0x559bbed9cd18&#45;&gt;Node0x559bbed9b508</title>
<path fill="none" stroke="#ff7f7f" d="M352.16,-131.03C370.24,-135.93 390.44,-140.56 409.32,-143 465.3,-150.24 607.57,-151.86 663.32,-143 675.37,-141.08 688,-137.84 699.89,-134.17"/>
<polygon fill="#ff7f7f" stroke="#ff7f7f" points="701.24,-137.42 709.69,-131.02 699.1,-130.75 701.24,-137.42"/>
</g>
<!-- Node0x559bbed9b508&#45;&gt;Node0x559bbed989e8 -->
<g id="edge57" class="edge">
<title>Node0x559bbed9b508&#45;&gt;Node0x559bbed989e8</title>
<path fill="none" stroke="#ff7f7f" d="M736.95,-131.25C718.79,-150.37 696.16,-181.37 714.32,-203 727.49,-218.69 760.09,-229.74 799.21,-237.51"/>
<polygon fill="#ff7f7f" stroke="#ff7f7f" points="798.81,-241 809.28,-239.42 800.11,-234.12 798.81,-241"/>
</g>
<!-- Node0x559bbed9b508&#45;&gt;Node0x559bbed99b18 -->
<g id="edge59" class="edge">
<title>Node0x559bbed9b508&#45;&gt;Node0x559bbed99b18</title>
<path fill="none" stroke="#ff7f7f" d="M678.77,-130.94C678.62,-130.96 678.47,-130.98 678.32,-131 499.42,-156.56 452.9,-146.82 273.32,-167 270.75,-167.29 268.15,-167.59 265.53,-167.89"/>
<polygon fill="#ff7f7f" stroke="#ff7f7f" points="264.84,-164.45 255.32,-169.11 265.67,-171.4 264.84,-164.45"/>
</g>
<!-- Node0x559bbed9b508&#45;&gt;Node0x559bbed9aa68 -->
<g id="edge55" class="edge">
<title>Node0x559bbed9b508&#45;&gt;Node0x559bbed9aa68</title>
<path fill="none" stroke="#ff7f7f" d="M678.77,-130.92C678.62,-130.94 678.47,-130.97 678.32,-131 610.99,-143.6 535.01,-157.02 475.19,-167.2"/>
<polygon fill="#ff7f7f" stroke="#ff7f7f" points="474.25,-163.81 464.97,-168.93 475.42,-170.71 474.25,-163.81"/>
</g>
<!-- Node0x559bbed9b508&#45;&gt;Node0x559bbed98718 -->
<g id="edge60" class="edge">
<title>Node0x559bbed9b508&#45;&gt;Node0x559bbed98718</title>
<path fill="none" stroke="#ff7f7f" d="M831.91,-125.15C847.89,-127.26 864.64,-129.34 880.32,-131 1086.26,-152.84 1142.01,-139.85 1350.88,-166.89"/>
<polygon fill="#ff7f7f" stroke="#ff7f7f" points="1350.58,-170.38 1360.95,-168.21 1351.49,-163.44 1350.58,-170.38"/>
</g>
<!-- Node0x559bbed9b508&#45;&gt;Node0x559bbed99118 -->
<g id="edge61" class="edge">
<title>Node0x559bbed9b508&#45;&gt;Node0x559bbed99118</title>
<path fill="none" stroke="#ff7f7f" d="M824.77,-131.11C862.98,-141.12 910.15,-153.79 948.02,-164.23"/>
<polygon fill="#ff7f7f" stroke="#ff7f7f" points="947.36,-167.68 957.93,-166.97 949.23,-160.93 947.36,-167.68"/>
</g>
<!-- Node0x559bbed9b508&#45;&gt;Node0x559bbed9ca48 -->
<g id="edge56" class="edge">
<title>Node0x559bbed9b508&#45;&gt;Node0x559bbed9ca48</title>
<path fill="none" stroke="#ff7f7f" d="M770.22,-131.1C777.51,-139.47 786.42,-149.69 794.46,-158.92"/>
<polygon fill="#ff7f7f" stroke="#ff7f7f" points="792.03,-161.46 801.24,-166.7 797.31,-156.86 792.03,-161.46"/>
</g>
<!-- Node0x559bbed9b508&#45;&gt;Node0x559bbed9cd18 -->
<g id="edge58" class="edge">
<title>Node0x559bbed9b508&#45;&gt;Node0x559bbed9cd18</title>
<path fill="none" stroke="#ff7f7f" d="M722.4,-131.08C703.88,-140.23 679.98,-150.35 657.32,-155 604.64,-165.81 468.33,-164.01 415.32,-155 391.73,-150.99 366.6,-142.85 345.47,-134.79"/>
<polygon fill="#ff7f7f" stroke="#ff7f7f" points="346.65,-131.49 336.06,-131.11 344.1,-138.01 346.65,-131.49"/>
</g>
<!-- Node0x559bbed9b508&#45;&gt;Node0x559bbed98d08 -->
<g id="edge62" class="edge">
<title>Node0x559bbed9b508&#45;&gt;Node0x559bbed98d08</title>
<path fill="none" stroke="#ff7f7f" d="M809.43,-131.01C833.58,-138.14 862.57,-145.47 889.32,-149 973.48,-160.11 996.19,-160.35 1080.32,-149 1103.02,-145.94 1127.35,-140.02 1148.81,-133.85"/>
<polygon fill="#ff7f7f" stroke="#ff7f7f" points="1149.85,-137.19 1158.45,-131.01 1147.87,-130.48 1149.85,-137.19"/>
</g>
<!-- Node0x559bbed98d08&#45;&gt;Node0x559bbed989e8 -->
<g id="edge64" class="edge">
<title>Node0x559bbed98d08&#45;&gt;Node0x559bbed989e8</title>
<path fill="none" stroke="#ff7f7f" d="M1325.04,-131.04C1415.96,-144.93 1528.84,-162.9 1532.32,-167 1542.67,-179.2 1543.04,-191.12 1532.32,-203 1511.55,-226.01 1364.1,-239.59 1231.96,-247.23"/>
<polygon fill="#ff7f7f" stroke="#ff7f7f" points="1231.45,-243.75 1221.67,-247.82 1231.85,-250.74 1231.45,-243.75"/>
</g>
<!-- Node0x559bbed98d08&#45;&gt;Node0x559bbed9ca48 -->
<g id="edge63" class="edge">
<title>Node0x559bbed98d08&#45;&gt;Node0x559bbed9ca48</title>
<path fill="none" stroke="#ff7f7f" d="M1115.05,-131.06C1055.79,-141.56 979.86,-155.02 919.38,-165.74"/>
<polygon fill="#ff7f7f" stroke="#ff7f7f" points="918.66,-162.31 909.43,-167.5 919.88,-169.2 918.66,-162.31"/>
</g>
<!-- Node0x559bbed9af68&#45;&gt;Node0x559bbed989e8 -->
<g id="edge65" class="edge">
<title>Node0x559bbed9af68&#45;&gt;Node0x559bbed989e8</title>
<path fill="none" stroke="#ff7f7f" d="M1065.15,-131.02C1083.66,-138.86 1101.16,-150.3 1112.32,-167 1121.21,-180.3 1120.48,-189.24 1112.32,-203 1104.41,-216.34 1091.83,-226.53 1078.31,-234.25"/>
<polygon fill="#ff7f7f" stroke="#ff7f7f" points="1076.56,-231.21 1069.34,-238.96 1079.82,-237.41 1076.56,-231.21"/>
</g>
<!-- Node0x559bbed9af68&#45;&gt;Node0x559bbed98718 -->
<g id="edge67" class="edge">
<title>Node0x559bbed9af68&#45;&gt;Node0x559bbed98718</title>
<path fill="none" stroke="#ff7f7f" d="M1080.08,-128.22C1086.26,-129.18 1092.38,-130.11 1098.32,-131 1211.47,-147.9 1242.98,-148.05 1350.98,-165.33"/>
<polygon fill="#ff7f7f" stroke="#ff7f7f" points="1350.55,-168.81 1360.98,-166.94 1351.66,-161.9 1350.55,-168.81"/>
</g>
<!-- Node0x559bbed9af68&#45;&gt;Node0x559bbed99118 -->
<g id="edge70" class="edge">
<title>Node0x559bbed9af68&#45;&gt;Node0x559bbed99118</title>
<path fill="none" stroke="#ff7f7f" d="M991.89,-131.1C995.41,-139.04 999.67,-148.67 1003.59,-157.51"/>
<polygon fill="#ff7f7f" stroke="#ff7f7f" points="1000.4,-158.97 1007.65,-166.7 1006.81,-156.14 1000.4,-158.97"/>
</g>
<!-- Node0x559bbed9af68&#45;&gt;Node0x559bbed9ca48 -->
<g id="edge66" class="edge">
<title>Node0x559bbed9af68&#45;&gt;Node0x559bbed9ca48</title>
<path fill="none" stroke="#ff7f7f" d="M943.35,-131.07C920.31,-140.67 891.34,-152.74 866.89,-162.93"/>
<polygon fill="#ff7f7f" stroke="#ff7f7f" points="865.3,-159.8 857.41,-166.88 867.99,-166.26 865.3,-159.8"/>
</g>
<!-- Node0x559bbed9af68&#45;&gt;Node0x559bbed9c318 -->
<g id="edge72" class="edge">
<title>Node0x559bbed9af68&#45;&gt;Node0x559bbed9c318</title>
<path fill="none" stroke="#ff7f7f" d="M1049.58,-131.11C1088,-141.18 1136.72,-153.95 1176.65,-164.43"/>
<polygon fill="#ff7f7f" stroke="#ff7f7f" points="1175.78,-167.82 1186.34,-166.97 1177.56,-161.04 1175.78,-167.82"/>
</g>
<!-- Node0x559bbed9af68&#45;&gt;Node0x559bbed98d08 -->
<g id="edge69" class="edge">
<title>Node0x559bbed9af68&#45;&gt;Node0x559bbed98d08</title>
<path fill="none" stroke="#ff7f7f" d="M1080.08,-113C1082.57,-113 1085.06,-113 1087.54,-113"/>
<polygon fill="#ff7f7f" stroke="#ff7f7f" points="1087.77,-116.5 1097.77,-113 1087.77,-109.5 1087.77,-116.5"/>
</g>
<!-- Node0x559bbed9af68&#45;&gt;Node0x559bbed9be68 -->
<g id="edge68" class="edge">
<title>Node0x559bbed9af68&#45;&gt;Node0x559bbed9be68</title>
<path fill="none" stroke="#ff7f7f" d="M1030.42,-131.09C1050.87,-138.19 1075.45,-145.47 1098.32,-149 1198.03,-164.37 1225.55,-164 1325.32,-149 1345.27,-146 1366.52,-140.27 1385.36,-134.25"/>
<polygon fill="#ff7f7f" stroke="#ff7f7f" points="1386.56,-137.54 1394.97,-131.09 1384.37,-130.89 1386.56,-137.54"/>
</g>
<!-- Node0x559bbed963c8 -->
<g id="node16" class="node">
<title>Node0x559bbed963c8</title>
<polygon fill="#ff7f7f" stroke="black" points="1566.82,-59 1317.82,-59 1317.82,-23 1566.82,-23 1566.82,-59"/>
<text text-anchor="middle" x="1442.32" y="-37.3" font-family="Times,serif" font-size="14.00">{lib/libLLVMBitstreamReader.a}</text>
</g>
<!-- Node0x559bbed9af68&#45;&gt;Node0x559bbed963c8 -->
<g id="edge71" class="edge">
<title>Node0x559bbed9af68&#45;&gt;Node0x559bbed963c8</title>
<path fill="none" stroke="#ff7f7f" d="M1080.04,-95.04C1080.13,-95.03 1080.23,-95.01 1080.32,-95 1155.75,-83.23 1240.33,-70.52 1308.78,-60.49"/>
<polygon fill="#ff7f7f" stroke="#ff7f7f" points="1309.37,-63.94 1318.76,-59.03 1308.36,-57.01 1309.37,-63.94"/>
</g>
<!-- Node0x559bbed9be68&#45;&gt;Node0x559bbed989e8 -->
<g id="edge73" class="edge">
<title>Node0x559bbed9be68&#45;&gt;Node0x559bbed989e8</title>
<path fill="none" stroke="#ff7f7f" d="M1504.57,-131.05C1522.07,-139.02 1539.1,-150.53 1549.32,-167 1557.75,-180.59 1560.06,-191.14 1549.32,-203 1527.45,-227.15 1370.06,-240.73 1231.77,-248.08"/>
<polygon fill="#ff7f7f" stroke="#ff7f7f" points="1231.23,-244.61 1221.43,-248.62 1231.59,-251.6 1231.23,-244.61"/>
</g>
<!-- Node0x559bbed9be68&#45;&gt;Node0x559bbed98718 -->
<g id="edge74" class="edge">
<title>Node0x559bbed9be68&#45;&gt;Node0x559bbed98718</title>
<path fill="none" stroke="#ff7f7f" d="M1448.21,-131.1C1449.02,-138.79 1449.25,-148.05 1448.92,-156.67"/>
<polygon fill="#ff7f7f" stroke="#ff7f7f" points="1445.43,-156.48 1448.23,-166.7 1452.41,-156.96 1445.43,-156.48"/>
</g>
<!-- Node0x559bbed9be68&#45;&gt;Node0x559bbed99118 -->
<g id="edge75" class="edge">
<title>Node0x559bbed9be68&#45;&gt;Node0x559bbed99118</title>
<path fill="none" stroke="#ff7f7f" d="M1344.46,-131.01C1275.03,-142.59 1182.28,-157.78 1112.91,-168.93"/>
<polygon fill="#ff7f7f" stroke="#ff7f7f" points="1112.17,-165.5 1102.85,-170.54 1113.27,-172.42 1112.17,-165.5"/>
</g>
<!-- Node0x559bbed9be68&#45;&gt;Node0x559bbed9ca48 -->
<g id="edge76" class="edge">
<title>Node0x559bbed9be68&#45;&gt;Node0x559bbed9ca48</title>
<path fill="none" stroke="#ff7f7f" d="M1342.61,-129.95C1339.82,-130.32 1337.05,-130.67 1334.32,-131 1153.77,-153.01 1104.72,-144.23 919.54,-167.04"/>
<polygon fill="#ff7f7f" stroke="#ff7f7f" points="918.96,-163.59 909.47,-168.3 919.82,-170.53 918.96,-163.59"/>
</g>
<!-- Node0x559bbed9be68&#45;&gt;Node0x559bbed963c8 -->
<g id="edge77" class="edge">
<title>Node0x559bbed9be68&#45;&gt;Node0x559bbed963c8</title>
<path fill="none" stroke="#ff7f7f" d="M1436.4,-94.7C1435.61,-86.98 1435.38,-77.71 1435.72,-69.11"/>
<polygon fill="#ff7f7f" stroke="#ff7f7f" points="1439.22,-69.32 1436.42,-59.1 1432.23,-68.84 1439.22,-69.32"/>
</g>
<!-- Node0x559bbed963c8&#45;&gt;Node0x559bbed989e8 -->
<g id="edge78" class="edge">
<title>Node0x559bbed963c8&#45;&gt;Node0x559bbed989e8</title>
<path fill="none" stroke="#ff7f7f" d="M1521.59,-59.14C1539.93,-66.98 1557.29,-78.39 1568.32,-95 1594.88,-134.99 1599.09,-167.92 1566.32,-203 1543.01,-227.95 1375.83,-241.53 1231.67,-248.68"/>
<polygon fill="#ff7f7f" stroke="#ff7f7f" points="1231.15,-245.2 1221.33,-249.18 1231.49,-252.19 1231.15,-245.2"/>
</g>
<!-- Node0x559bbed963c8&#45;&gt;Node0x559bbed98718 -->
<g id="edge79" class="edge">
<title>Node0x559bbed963c8&#45;&gt;Node0x559bbed98718</title>
<path fill="none" stroke="#ff7f7f" d="M1506.27,-59.05C1523.9,-67 1540.99,-78.5 1551.32,-95 1559.8,-108.56 1559.8,-117.44 1551.32,-131 1542.77,-144.66 1529.57,-154.9 1515.28,-162.53"/>
<polygon fill="#ff7f7f" stroke="#ff7f7f" points="1513.71,-159.4 1506.27,-166.95 1516.79,-165.68 1513.71,-159.4"/>
</g>
<!-- Node0x559bbed963c8&#45;&gt;Node0x559bbed9ca48 -->
<g id="edge80" class="edge">
<title>Node0x559bbed963c8&#45;&gt;Node0x559bbed9ca48</title>
<path fill="none" stroke="#ff7f7f" d="M1317.55,-41.92C1175.05,-43.86 952.31,-53.71 880.32,-95 855.8,-109.06 838.2,-136.75 827.73,-157.53"/>
<polygon fill="#ff7f7f" stroke="#ff7f7f" points="824.45,-156.27 823.3,-166.8 830.77,-159.29 824.45,-156.27"/>
</g>
<!-- Node0x559bbed963c8&#45;&gt;Node0x559bbed9af68 -->
<g id="edge82" class="edge">
<title>Node0x559bbed963c8&#45;&gt;Node0x559bbed9af68</title>
<path fill="none" stroke="#ff7f7f" d="M1334.45,-59.03C1266.67,-69.26 1177.46,-82.65 1098.32,-95 1095.63,-95.42 1092.9,-95.85 1090.15,-96.28"/>
<polygon fill="#ff7f7f" stroke="#ff7f7f" points="1089.42,-92.85 1080.09,-97.87 1090.52,-99.77 1089.42,-92.85"/>
</g>
<!-- Node0x559bbed963c8&#45;&gt;Node0x559bbed9be68 -->
<g id="edge81" class="edge">
<title>Node0x559bbed963c8&#45;&gt;Node0x559bbed9be68</title>
<path fill="none" stroke="#ff7f7f" d="M1448.21,-59.1C1449.02,-66.79 1449.25,-76.05 1448.92,-84.67"/>
<polygon fill="#ff7f7f" stroke="#ff7f7f" points="1445.43,-84.48 1448.23,-94.7 1452.41,-84.96 1445.43,-84.48"/>
</g>
</g>
</svg>
