<?xml version="1.0" encoding="UTF-8" standalone="no"?>
<!DOCTYPE svg PUBLIC "-//W3C//DTD SVG 1.1//EN"
 "http://www.w3.org/Graphics/SVG/1.1/DTD/svg11.dtd">
<!-- Generated by graphviz version 2.43.0 (0)
 -->
<!-- Title: bin/llvm&#45;rc Pages: 1 -->
<svg width="1530pt" height="355pt"
 viewBox="0.00 0.00 1530.00 355.00" xmlns="http://www.w3.org/2000/svg" xmlns:xlink="http://www.w3.org/1999/xlink">
<g id="graph0" class="graph" transform="scale(1 1) rotate(0) translate(4 351)">
<title>bin/llvm&#45;rc</title>
<polygon fill="white" stroke="transparent" points="-4,4 -4,-351 1526,-351 1526,4 -4,4"/>
<text text-anchor="middle" x="761" y="-7.8" font-family="Times,serif" font-size="14.00">bin/llvm&#45;rc</text>
<!-- Node0x55936a7f5728 -->
<g id="node1" class="node">
<title>Node0x55936a7f5728</title>
<polygon fill="#ff7f7f" stroke="black" points="1078.5,-347 691.5,-347 691.5,-311 1078.5,-311 1078.5,-347"/>
<text text-anchor="middle" x="885" y="-325.3" font-family="Times,serif" font-size="14.00">{tools/llvm&#45;rc/CMakeFiles/llvm&#45;rc.dir/llvm&#45;rc.cpp.o}</text>
</g>
<!-- Node0x55936a7f6308 -->
<g id="node2" class="node">
<title>Node0x55936a7f6308</title>
<polygon fill="#ff7f7f" stroke="black" points="847.5,-275 372.5,-275 372.5,-239 847.5,-239 847.5,-275"/>
<text text-anchor="middle" x="610" y="-253.3" font-family="Times,serif" font-size="14.00">{tools/llvm&#45;rc/CMakeFiles/llvm&#45;rc.dir/ResourceFileWriter.cpp.o}</text>
</g>
<!-- Node0x55936a7f5728&#45;&gt;Node0x55936a7f6308 -->
<g id="edge1" class="edge">
<title>Node0x55936a7f5728&#45;&gt;Node0x55936a7f6308</title>
<path fill="none" stroke="#ff7f7f" d="M812.19,-310.97C771.62,-300.91 721.36,-288.14 681.08,-277.65"/>
<polygon fill="#ff7f7f" stroke="#ff7f7f" points="681.88,-274.25 671.33,-275.11 680.12,-281.02 681.88,-274.25"/>
</g>
<!-- Node0x55936a7f4828 -->
<g id="node3" class="node">
<title>Node0x55936a7f4828</title>
<polygon fill="#ff7f7f" stroke="black" points="1522,-59 1008,-59 1008,-23 1522,-23 1522,-59"/>
<text text-anchor="middle" x="1265" y="-37.3" font-family="Times,serif" font-size="14.00">{tools/llvm&#45;rc/CMakeFiles/llvm&#45;rc.dir/ResourceScriptCppFilter.cpp.o}</text>
</g>
<!-- Node0x55936a7f5728&#45;&gt;Node0x55936a7f4828 -->
<g id="edge2" class="edge">
<title>Node0x55936a7f5728&#45;&gt;Node0x55936a7f4828</title>
<path fill="none" stroke="#ff7f7f" d="M930.45,-310.97C953.67,-301.56 982.01,-288.95 1006,-275 1098.51,-221.18 1123.43,-206.79 1199,-131 1218.26,-111.68 1236.43,-86.46 1248.81,-67.8"/>
<polygon fill="#ff7f7f" stroke="#ff7f7f" points="1251.88,-69.51 1254.41,-59.22 1246.01,-65.69 1251.88,-69.51"/>
</g>
<!-- Node0x55936a7f4198 -->
<g id="node4" class="node">
<title>Node0x55936a7f4198</title>
<polygon fill="#ff7f7f" stroke="black" points="864,-131 372,-131 372,-95 864,-95 864,-131"/>
<text text-anchor="middle" x="618" y="-109.3" font-family="Times,serif" font-size="14.00">{tools/llvm&#45;rc/CMakeFiles/llvm&#45;rc.dir/ResourceScriptParser.cpp.o}</text>
</g>
<!-- Node0x55936a7f5728&#45;&gt;Node0x55936a7f4198 -->
<g id="edge3" class="edge">
<title>Node0x55936a7f5728&#45;&gt;Node0x55936a7f4198</title>
<path fill="none" stroke="#ff7f7f" d="M876.77,-310.73C871.51,-291.29 864.51,-259.74 847,-239 803.02,-186.9 731.73,-153.56 680.3,-134.53"/>
<polygon fill="#ff7f7f" stroke="#ff7f7f" points="681.21,-131.14 670.61,-131.03 678.83,-137.72 681.21,-131.14"/>
</g>
<!-- Node0x55936a7f4e18 -->
<g id="node5" class="node">
<title>Node0x55936a7f4e18</title>
<polygon fill="#ff7f7f" stroke="black" points="482,-59 0,-59 0,-23 482,-23 482,-59"/>
<text text-anchor="middle" x="241" y="-37.3" font-family="Times,serif" font-size="14.00">{tools/llvm&#45;rc/CMakeFiles/llvm&#45;rc.dir/ResourceScriptStmt.cpp.o}</text>
</g>
<!-- Node0x55936a7f5728&#45;&gt;Node0x55936a7f4e18 -->
<g id="edge4" class="edge">
<title>Node0x55936a7f5728&#45;&gt;Node0x55936a7f4e18</title>
<path fill="none" stroke="#ff7f7f" d="M691.2,-319.59C541.13,-311.34 354.07,-296.8 325,-275 258.13,-224.85 239.25,-118.94 237.79,-69.06"/>
<polygon fill="#ff7f7f" stroke="#ff7f7f" points="241.29,-69.01 237.73,-59.03 234.29,-69.05 241.29,-69.01"/>
</g>
<!-- Node0x55936a7f60d8 -->
<g id="node6" class="node">
<title>Node0x55936a7f60d8</title>
<polygon fill="#ff7f7f" stroke="black" points="989.5,-59 500.5,-59 500.5,-23 989.5,-23 989.5,-59"/>
<text text-anchor="middle" x="745" y="-37.3" font-family="Times,serif" font-size="14.00">{tools/llvm&#45;rc/CMakeFiles/llvm&#45;rc.dir/ResourceScriptToken.cpp.o}</text>
</g>
<!-- Node0x55936a7f5728&#45;&gt;Node0x55936a7f60d8 -->
<g id="edge5" class="edge">
<title>Node0x55936a7f5728&#45;&gt;Node0x55936a7f60d8</title>
<path fill="none" stroke="#ff7f7f" d="M691.4,-320.74C552.23,-313.46 385.31,-299.69 363,-275 309.36,-215.64 310.46,-155.33 363,-95 375.25,-80.93 449.28,-69.06 528.95,-60.15"/>
<polygon fill="#ff7f7f" stroke="#ff7f7f" points="529.64,-63.59 539.2,-59.02 528.88,-56.63 529.64,-63.59"/>
</g>
<!-- Node0x55936a7f5458 -->
<g id="node7" class="node">
<title>Node0x55936a7f5458</title>
<polygon fill="#ff7f7f" stroke="black" points="1190,-131 1014,-131 1014,-95 1190,-95 1190,-131"/>
<text text-anchor="middle" x="1102" y="-109.3" font-family="Times,serif" font-size="14.00">{lib/libLLVMOption.a}</text>
</g>
<!-- Node0x55936a7f5728&#45;&gt;Node0x55936a7f5458 -->
<g id="edge6" class="edge">
<title>Node0x55936a7f5728&#45;&gt;Node0x55936a7f5458</title>
<path fill="none" stroke="#ff7f7f" d="M905.18,-310.96C935.62,-288.73 993.16,-247.42 1034,-203 1051.87,-183.56 1068.12,-158.2 1080.57,-139.53"/>
<polygon fill="#ff7f7f" stroke="#ff7f7f" points="1083.49,-141.45 1086.19,-131.21 1077.69,-137.53 1083.49,-141.45"/>
</g>
<!-- Node0x55936a7f6358 -->
<g id="node8" class="node">
<title>Node0x55936a7f6358</title>
<polygon fill="#ff7f7f" stroke="black" points="1034,-203 848,-203 848,-167 1034,-167 1034,-203"/>
<text text-anchor="middle" x="941" y="-181.3" font-family="Times,serif" font-size="14.00">{lib/libLLVMSupport.a}</text>
</g>
<!-- Node0x55936a7f5728&#45;&gt;Node0x55936a7f6358 -->
<g id="edge7" class="edge">
<title>Node0x55936a7f5728&#45;&gt;Node0x55936a7f6358</title>
<path fill="none" stroke="#ff7f7f" d="M884.87,-310.91C888.28,-300.58 894.14,-287.1 899,-275 907.4,-254.1 916.24,-230.15 924.02,-212.36"/>
<polygon fill="#ff7f7f" stroke="#ff7f7f" points="927.25,-213.72 928.23,-203.17 920.88,-210.8 927.25,-213.72"/>
</g>
<!-- Node0x55936a7f6308&#45;&gt;Node0x55936a7f5728 -->
<g id="edge8" class="edge">
<title>Node0x55936a7f6308&#45;&gt;Node0x55936a7f5728</title>
<path fill="none" stroke="#ff7f7f" d="M683.12,-275.11C723.73,-285.18 773.99,-297.95 814.23,-308.43"/>
<polygon fill="#ff7f7f" stroke="#ff7f7f" points="813.41,-311.83 823.97,-310.97 815.17,-305.05 813.41,-311.83"/>
</g>
<!-- Node0x55936a7f6308&#45;&gt;Node0x55936a7f4e18 -->
<g id="edge9" class="edge">
<title>Node0x55936a7f6308&#45;&gt;Node0x55936a7f4e18</title>
<path fill="none" stroke="#ff7f7f" d="M565.54,-238.99C513.29,-216.48 425.11,-174.54 354,-131 321.14,-110.88 285.81,-84.53 263.37,-65.74"/>
<polygon fill="#ff7f7f" stroke="#ff7f7f" points="265.58,-63.03 255.71,-59.18 261.03,-68.34 265.58,-63.03"/>
</g>
<!-- Node0x55936a7f6308&#45;&gt;Node0x55936a7f6358 -->
<g id="edge10" class="edge">
<title>Node0x55936a7f6308&#45;&gt;Node0x55936a7f6358</title>
<path fill="none" stroke="#ff7f7f" d="M684.66,-238.97C731.93,-228.74 793.48,-215.71 844.44,-205.13"/>
<polygon fill="#ff7f7f" stroke="#ff7f7f" points="845.41,-208.51 854.49,-203.05 843.99,-201.65 845.41,-208.51"/>
</g>
<!-- Node0x55936a7f4828&#45;&gt;Node0x55936a7f6358 -->
<g id="edge11" class="edge">
<title>Node0x55936a7f4828&#45;&gt;Node0x55936a7f6358</title>
<path fill="none" stroke="#ff7f7f" d="M1098.63,-59.05C1068.95,-67.05 1039.43,-78.55 1014,-95 990.3,-110.33 972.59,-137.76 960.12,-158.13"/>
<polygon fill="#ff7f7f" stroke="#ff7f7f" points="956.98,-156.57 954.76,-166.93 962.96,-160.21 956.98,-156.57"/>
</g>
<!-- Node0x55936a7f4198&#45;&gt;Node0x55936a7f5728 -->
<g id="edge12" class="edge">
<title>Node0x55936a7f4198&#45;&gt;Node0x55936a7f5728</title>
<path fill="none" stroke="#ff7f7f" d="M684.58,-131.03C740.43,-149.34 818.19,-183.54 865,-239 879.7,-256.42 887,-281.46 889.11,-300.55"/>
<polygon fill="#ff7f7f" stroke="#ff7f7f" points="885.63,-300.98 889.77,-310.73 892.62,-300.52 885.63,-300.98"/>
</g>
<!-- Node0x55936a7f4198&#45;&gt;Node0x55936a7f6308 -->
<g id="edge13" class="edge">
<title>Node0x55936a7f4198&#45;&gt;Node0x55936a7f6308</title>
<path fill="none" stroke="#ff7f7f" d="M617.03,-131.19C615.67,-155.42 613.16,-199.89 611.54,-228.68"/>
<polygon fill="#ff7f7f" stroke="#ff7f7f" points="608.03,-228.69 610.96,-238.87 615.02,-229.08 608.03,-228.69"/>
</g>
<!-- Node0x55936a7f4198&#45;&gt;Node0x55936a7f4828 -->
<g id="edge14" class="edge">
<title>Node0x55936a7f4198&#45;&gt;Node0x55936a7f4828</title>
<path fill="none" stroke="#ff7f7f" d="M775.45,-94.97C873,-84.41 998.18,-70.87 1097.55,-60.12"/>
<polygon fill="#ff7f7f" stroke="#ff7f7f" points="1098.12,-63.58 1107.69,-59.02 1097.37,-56.62 1098.12,-63.58"/>
</g>
<!-- Node0x55936a7f4198&#45;&gt;Node0x55936a7f4e18 -->
<g id="edge15" class="edge">
<title>Node0x55936a7f4198&#45;&gt;Node0x55936a7f4e18</title>
<path fill="none" stroke="#ff7f7f" d="M520.37,-94.97C463.87,-84.68 393.1,-71.55 336.9,-60.93"/>
<polygon fill="#ff7f7f" stroke="#ff7f7f" points="337.41,-57.47 326.94,-59.05 336.11,-64.35 337.41,-57.47"/>
</g>
<!-- Node0x55936a7f4198&#45;&gt;Node0x55936a7f60d8 -->
<g id="edge16" class="edge">
<title>Node0x55936a7f4198&#45;&gt;Node0x55936a7f60d8</title>
<path fill="none" stroke="#ff7f7f" d="M649.07,-94.88C665.83,-85.64 686.71,-74.13 704.7,-64.21"/>
<polygon fill="#ff7f7f" stroke="#ff7f7f" points="706.74,-67.08 713.81,-59.19 703.37,-60.95 706.74,-67.08"/>
</g>
<!-- Node0x55936a7f4198&#45;&gt;Node0x55936a7f6358 -->
<g id="edge17" class="edge">
<title>Node0x55936a7f4198&#45;&gt;Node0x55936a7f6358</title>
<path fill="none" stroke="#ff7f7f" d="M702.56,-131.05C750.63,-141.24 810.53,-154.2 858.29,-164.75"/>
<polygon fill="#ff7f7f" stroke="#ff7f7f" points="857.77,-168.22 868.29,-166.97 859.28,-161.39 857.77,-168.22"/>
</g>
<!-- Node0x55936a7f4e18&#45;&gt;Node0x55936a7f5728 -->
<g id="edge18" class="edge">
<title>Node0x55936a7f4e18&#45;&gt;Node0x55936a7f5728</title>
<path fill="none" stroke="#ff7f7f" d="M246.35,-59.03C254.74,-103.1 271.22,-221.17 343,-275 370.48,-295.6 539.06,-309.72 681.04,-318.18"/>
<polygon fill="#ff7f7f" stroke="#ff7f7f" points="681.02,-321.68 691.21,-318.77 681.43,-314.69 681.02,-321.68"/>
</g>
<!-- Node0x55936a7f4e18&#45;&gt;Node0x55936a7f6308 -->
<g id="edge19" class="edge">
<title>Node0x55936a7f4e18&#45;&gt;Node0x55936a7f6308</title>
<path fill="none" stroke="#ff7f7f" d="M268.89,-59.18C295.09,-77.97 335.11,-108.41 372,-131 438.67,-171.82 520.33,-211.23 568.71,-234.54"/>
<polygon fill="#ff7f7f" stroke="#ff7f7f" points="567.4,-237.8 577.93,-238.99 570.44,-231.49 567.4,-237.8"/>
</g>
<!-- Node0x55936a7f4e18&#45;&gt;Node0x55936a7f4198 -->
<g id="edge20" class="edge">
<title>Node0x55936a7f4e18&#45;&gt;Node0x55936a7f4198</title>
<path fill="none" stroke="#ff7f7f" d="M338.72,-59.05C395.23,-69.34 466,-82.47 522.19,-93.08"/>
<polygon fill="#ff7f7f" stroke="#ff7f7f" points="521.67,-96.55 532.15,-94.97 522.97,-89.67 521.67,-96.55"/>
</g>
<!-- Node0x55936a7f4e18&#45;&gt;Node0x55936a7f6358 -->
<g id="edge21" class="edge">
<title>Node0x55936a7f4e18&#45;&gt;Node0x55936a7f6358</title>
<path fill="none" stroke="#ff7f7f" d="M469.47,-59.02C646.72,-72.55 863.91,-90.02 873,-95 886.54,-102.41 909.43,-134.85 924.87,-158.42"/>
<polygon fill="#ff7f7f" stroke="#ff7f7f" points="922.02,-160.46 930.39,-166.96 927.9,-156.66 922.02,-160.46"/>
</g>
<!-- Node0x55936a7f60d8&#45;&gt;Node0x55936a7f6358 -->
<g id="edge22" class="edge">
<title>Node0x55936a7f60d8&#45;&gt;Node0x55936a7f6358</title>
<path fill="none" stroke="#ff7f7f" d="M842.3,-59.06C865.36,-66.9 888.35,-78.33 906,-95 923.29,-111.34 932.19,-137.26 936.67,-156.92"/>
<polygon fill="#ff7f7f" stroke="#ff7f7f" points="933.26,-157.72 938.69,-166.83 940.12,-156.33 933.26,-157.72"/>
</g>
<!-- Node0x55936a7f5458&#45;&gt;Node0x55936a7f5728 -->
<g id="edge24" class="edge">
<title>Node0x55936a7f5458&#45;&gt;Node0x55936a7f5728</title>
<path fill="none" stroke="#ff7f7f" d="M1099.37,-131.21C1091.23,-150.02 1072.7,-180.48 1052,-203 1014.35,-243.95 962.51,-282.26 926.48,-305.4"/>
<polygon fill="#ff7f7f" stroke="#ff7f7f" points="924.27,-302.66 917.68,-310.96 928,-308.58 924.27,-302.66"/>
</g>
<!-- Node0x55936a7f5458&#45;&gt;Node0x55936a7f6358 -->
<g id="edge23" class="edge">
<title>Node0x55936a7f5458&#45;&gt;Node0x55936a7f6358</title>
<path fill="none" stroke="#ff7f7f" d="M1068.63,-131.07C1047.56,-140.67 1019.92,-152.74 995.72,-162.93"/>
<polygon fill="#ff7f7f" stroke="#ff7f7f" points="994.16,-159.79 986.28,-166.88 996.86,-166.24 994.16,-159.79"/>
</g>
<!-- Node0x55936a7f6358&#45;&gt;Node0x55936a7f5728 -->
<g id="edge27" class="edge">
<title>Node0x55936a7f6358&#45;&gt;Node0x55936a7f5728</title>
<path fill="none" stroke="#ff7f7f" d="M941.67,-203.17C937.53,-221.17 926.96,-250.23 917,-275 913.47,-283.79 909.41,-293.31 905.24,-301.82"/>
<polygon fill="#ff7f7f" stroke="#ff7f7f" points="902.02,-300.43 900.52,-310.91 908.24,-303.66 902.02,-300.43"/>
</g>
<!-- Node0x55936a7f6358&#45;&gt;Node0x55936a7f6308 -->
<g id="edge25" class="edge">
<title>Node0x55936a7f6358&#45;&gt;Node0x55936a7f6308</title>
<path fill="none" stroke="#ff7f7f" d="M866.27,-203.05C818.98,-213.28 757.43,-226.31 706.48,-236.88"/>
<polygon fill="#ff7f7f" stroke="#ff7f7f" points="705.52,-233.51 696.44,-238.97 706.94,-240.36 705.52,-233.51"/>
</g>
<!-- Node0x55936a7f6358&#45;&gt;Node0x55936a7f4828 -->
<g id="edge28" class="edge">
<title>Node0x55936a7f6358&#45;&gt;Node0x55936a7f4828</title>
<path fill="none" stroke="#ff7f7f" d="M942.13,-166.93C949.3,-146.45 968.68,-112.68 996,-95 1018.65,-80.35 1044.54,-69.62 1071.12,-61.8"/>
<polygon fill="#ff7f7f" stroke="#ff7f7f" points="1072.25,-65.12 1080.93,-59.05 1070.36,-58.38 1072.25,-65.12"/>
</g>
<!-- Node0x55936a7f6358&#45;&gt;Node0x55936a7f4198 -->
<g id="edge26" class="edge">
<title>Node0x55936a7f6358&#45;&gt;Node0x55936a7f4198</title>
<path fill="none" stroke="#ff7f7f" d="M856.51,-166.97C808.45,-156.78 748.56,-143.82 700.79,-133.26"/>
<polygon fill="#ff7f7f" stroke="#ff7f7f" points="701.3,-129.79 690.78,-131.05 699.79,-136.63 701.3,-129.79"/>
</g>
<!-- Node0x55936a7f6358&#45;&gt;Node0x55936a7f5458 -->
<g id="edge29" class="edge">
<title>Node0x55936a7f6358&#45;&gt;Node0x55936a7f5458</title>
<path fill="none" stroke="#ff7f7f" d="M974.49,-166.88C995.59,-157.26 1023.24,-145.19 1047.43,-135.01"/>
<polygon fill="#ff7f7f" stroke="#ff7f7f" points="1048.98,-138.16 1056.85,-131.07 1046.28,-131.7 1048.98,-138.16"/>
</g>
</g>
</svg>
