<?xml version="1.0" encoding="UTF-8" standalone="no"?>
<!DOCTYPE svg PUBLIC "-//W3C//DTD SVG 1.1//EN"
 "http://www.w3.org/Graphics/SVG/1.1/DTD/svg11.dtd">
<!-- Generated by graphviz version 2.43.0 (0)
 -->
<!-- Title: bin/llvm&#45;readobj_lib/libLLVMObject.a Pages: 1 -->
<svg width="1906pt" height="654pt"
 viewBox="0.00 0.00 1906.00 654.00" xmlns="http://www.w3.org/2000/svg" xmlns:xlink="http://www.w3.org/1999/xlink">
<g id="graph0" class="graph" transform="scale(1 1) rotate(0) translate(4 650)">
<title>bin/llvm&#45;readobj_lib/libLLVMObject.a</title>
<polygon fill="white" stroke="transparent" points="-4,4 -4,-650 1902,-650 1902,4 -4,4"/>
<text text-anchor="middle" x="949" y="-7.8" font-family="Times,serif" font-size="14.00">bin/llvm&#45;readobj_lib/libLLVMObject.a</text>
<!-- Node0x55d33e70ebc8 -->
<g id="node1" class="node">
<title>Node0x55d33e70ebc8</title>
<polygon fill="#7fb2ff" stroke="black" points="353.5,-430 10.5,-430 10.5,-394 353.5,-394 353.5,-430"/>
<text text-anchor="middle" x="182" y="-408.3" font-family="Times,serif" font-size="14.00">{lib/libLLVMObject.a(COFFObjectFile.cpp.o)}</text>
</g>
<!-- Node0x55d33e70d598 -->
<g id="node2" class="node">
<title>Node0x55d33e70d598</title>
<polygon fill="none" stroke="black" points="693,-86 427,-86 427,-50 693,-50 693,-86"/>
<text text-anchor="middle" x="560" y="-64.3" font-family="Times,serif" font-size="14.00">{lib/libLLVMObject.a(Error.cpp.o)}</text>
</g>
<!-- Node0x55d33e70ebc8&#45;&gt;Node0x55d33e70d598 -->
<g id="edge1" class="edge">
<title>Node0x55d33e70ebc8&#45;&gt;Node0x55d33e70d598</title>
<path fill="none" stroke="black" d="M196.23,-393.89C228.02,-351.14 312.61,-242 400,-168 435.94,-137.56 481.93,-109.64 515.2,-91.09"/>
<polygon fill="black" stroke="black" points="517.16,-94 524.22,-86.11 513.78,-87.87 517.16,-94"/>
</g>
<!-- Node0x55d33e7125e8 -->
<g id="node3" class="node">
<title>Node0x55d33e7125e8</title>
<polygon fill="#7fb2ff" stroke="black" points="711,-430 409,-430 409,-394 711,-394 711,-430"/>
<text text-anchor="middle" x="560" y="-408.3" font-family="Times,serif" font-size="14.00">{lib/libLLVMObject.a(ObjectFile.cpp.o)}</text>
</g>
<!-- Node0x55d33e70ebc8&#45;&gt;Node0x55d33e7125e8 -->
<g id="edge2" class="edge">
<title>Node0x55d33e70ebc8&#45;&gt;Node0x55d33e7125e8</title>
<path fill="none" stroke="#7fb2ff" d="M353.67,-405.28C368.66,-405.23 383.79,-405.24 398.69,-405.32"/>
<polygon fill="#7fb2ff" stroke="#7fb2ff" points="398.94,-408.82 408.96,-405.37 398.98,-401.82 398.94,-408.82"/>
</g>
<!-- Node0x55d33e713218 -->
<g id="node4" class="node">
<title>Node0x55d33e713218</title>
<polygon fill="#7fb2ff" stroke="black" points="720,-484 400,-484 400,-448 720,-448 720,-484"/>
<text text-anchor="middle" x="560" y="-462.3" font-family="Times,serif" font-size="14.00">{lib/libLLVMObject.a(SymbolicFile.cpp.o)}</text>
</g>
<!-- Node0x55d33e70ebc8&#45;&gt;Node0x55d33e713218 -->
<g id="edge3" class="edge">
<title>Node0x55d33e70ebc8&#45;&gt;Node0x55d33e713218</title>
<path fill="none" stroke="#7fb2ff" d="M308.46,-430.02C345.42,-435.33 386.01,-441.16 423.56,-446.55"/>
<polygon fill="#7fb2ff" stroke="#7fb2ff" points="423.15,-450.03 433.55,-447.98 424.15,-443.1 423.15,-450.03"/>
</g>
<!-- Node0x55d33e7125e8&#45;&gt;Node0x55d33e70ebc8 -->
<g id="edge11" class="edge">
<title>Node0x55d33e7125e8&#45;&gt;Node0x55d33e70ebc8</title>
<path fill="none" stroke="#7fb2ff" d="M408.96,-418.63C394.19,-418.72 379.1,-418.76 364.07,-418.75"/>
<polygon fill="#7fb2ff" stroke="#7fb2ff" points="363.68,-415.25 353.67,-418.72 363.66,-422.25 363.68,-415.25"/>
</g>
<!-- Node0x55d33e7125e8&#45;&gt;Node0x55d33e70d598 -->
<g id="edge13" class="edge">
<title>Node0x55d33e7125e8&#45;&gt;Node0x55d33e70d598</title>
<path fill="none" stroke="black" d="M560,-393.86C560,-294.69 560,-195.53 560,-96.36"/>
<polygon fill="black" stroke="black" points="563.5,-96.14 560,-86.14 556.5,-96.14 563.5,-96.14"/>
</g>
<!-- Node0x55d33e7125e8&#45;&gt;Node0x55d33e713218 -->
<g id="edge15" class="edge">
<title>Node0x55d33e7125e8&#45;&gt;Node0x55d33e713218</title>
<path fill="none" stroke="#7fb2ff" d="M660.76,-430.04C673.19,-434.5 676.34,-438.96 670.22,-443.42"/>
<polygon fill="#7fb2ff" stroke="#7fb2ff" points="668.48,-440.37 661.01,-447.88 671.53,-446.67 668.48,-440.37"/>
</g>
<!-- Node0x55d33e70d818 -->
<g id="node5" class="node">
<title>Node0x55d33e70d818</title>
<polygon fill="#7fb2ff" stroke="black" points="1098,-484 767,-484 767,-448 1098,-448 1098,-484"/>
<text text-anchor="middle" x="932.5" y="-462.3" font-family="Times,serif" font-size="14.00">{lib/libLLVMObject.a(ELFObjectFile.cpp.o)}</text>
</g>
<!-- Node0x55d33e7125e8&#45;&gt;Node0x55d33e70d818 -->
<g id="edge12" class="edge">
<title>Node0x55d33e7125e8&#45;&gt;Node0x55d33e70d818</title>
<path fill="none" stroke="#7fb2ff" d="M711.16,-427.24C753.79,-433.19 798.99,-440 837.28,-446.3"/>
<polygon fill="#7fb2ff" stroke="#7fb2ff" points="836.94,-449.79 847.38,-447.98 838.08,-442.89 836.94,-449.79"/>
</g>
<!-- Node0x55d33e70c918 -->
<g id="node6" class="node">
<title>Node0x55d33e70c918</title>
<polygon fill="#7fb2ff" stroke="black" points="1108.5,-538 756.5,-538 756.5,-502 1108.5,-502 1108.5,-538"/>
<text text-anchor="middle" x="932.5" y="-516.3" font-family="Times,serif" font-size="14.00">{lib/libLLVMObject.a(MachOObjectFile.cpp.o)}</text>
</g>
<!-- Node0x55d33e7125e8&#45;&gt;Node0x55d33e70c918 -->
<g id="edge14" class="edge">
<title>Node0x55d33e7125e8&#45;&gt;Node0x55d33e70c918</title>
<path fill="none" stroke="#7fb2ff" d="M711.3,-424.84C714.28,-426.45 717.18,-428.17 720,-430 744.2,-445.7 731.68,-468.49 756,-484 765.25,-489.9 775.33,-494.68 785.81,-498.57"/>
<polygon fill="#7fb2ff" stroke="#7fb2ff" points="784.96,-501.97 795.55,-501.89 787.22,-495.35 784.96,-501.97"/>
</g>
<!-- Node0x55d33e7145c8 -->
<g id="node7" class="node">
<title>Node0x55d33e7145c8</title>
<polygon fill="#7fb2ff" stroke="black" points="1104.5,-430 760.5,-430 760.5,-394 1104.5,-394 1104.5,-430"/>
<text text-anchor="middle" x="932.5" y="-408.3" font-family="Times,serif" font-size="14.00">{lib/libLLVMObject.a(WasmObjectFile.cpp.o)}</text>
</g>
<!-- Node0x55d33e7125e8&#45;&gt;Node0x55d33e7145c8 -->
<g id="edge16" class="edge">
<title>Node0x55d33e7125e8&#45;&gt;Node0x55d33e7145c8</title>
<path fill="none" stroke="#7fb2ff" d="M711.16,-405.36C723.9,-405.28 736.87,-405.24 749.82,-405.25"/>
<polygon fill="#7fb2ff" stroke="#7fb2ff" points="750.19,-408.75 760.2,-405.27 750.2,-401.75 750.19,-408.75"/>
</g>
<!-- Node0x55d33e715ec8 -->
<g id="node8" class="node">
<title>Node0x55d33e715ec8</title>
<polygon fill="#7fb2ff" stroke="black" points="1109,-376 756,-376 756,-340 1109,-340 1109,-376"/>
<text text-anchor="middle" x="932.5" y="-354.3" font-family="Times,serif" font-size="14.00">{lib/libLLVMObject.a(XCOFFObjectFile.cpp.o)}</text>
</g>
<!-- Node0x55d33e7125e8&#45;&gt;Node0x55d33e715ec8 -->
<g id="edge17" class="edge">
<title>Node0x55d33e7125e8&#45;&gt;Node0x55d33e715ec8</title>
<path fill="none" stroke="#7fb2ff" d="M645.07,-393.99C676.92,-388.65 714.52,-382.84 751.83,-377.44"/>
<polygon fill="#7fb2ff" stroke="#7fb2ff" points="752.41,-380.89 761.81,-376 751.42,-373.96 752.41,-380.89"/>
</g>
<!-- Node0x55d33e713218&#45;&gt;Node0x55d33e70d598 -->
<g id="edge50" class="edge">
<title>Node0x55d33e713218&#45;&gt;Node0x55d33e70d598</title>
<path fill="none" stroke="black" d="M399.67,-449.63C392.81,-444.26 386.81,-437.78 382,-430 343.61,-367.89 485.86,-166.78 539.94,-94.32"/>
<polygon fill="black" stroke="black" points="542.88,-96.24 546.08,-86.14 537.28,-92.04 542.88,-96.24"/>
</g>
<!-- Node0x55d33e713218&#45;&gt;Node0x55d33e7125e8 -->
<g id="edge52" class="edge">
<title>Node0x55d33e713218&#45;&gt;Node0x55d33e7125e8</title>
<path fill="none" stroke="#7fb2ff" d="M458.99,-447.88C446.69,-443.42 443.66,-438.96 449.9,-434.5"/>
<polygon fill="#7fb2ff" stroke="#7fb2ff" points="451.72,-437.51 459.24,-430.04 448.7,-431.19 451.72,-437.51"/>
</g>
<!-- Node0x55d33e711148 -->
<g id="node9" class="node">
<title>Node0x55d33e711148</title>
<polygon fill="#7fb2ff" stroke="black" points="1069,-284 796,-284 796,-248 1069,-248 1069,-284"/>
<text text-anchor="middle" x="932.5" y="-262.3" font-family="Times,serif" font-size="14.00">{lib/libLLVMObject.a(Binary.cpp.o)}</text>
</g>
<!-- Node0x55d33e713218&#45;&gt;Node0x55d33e711148 -->
<g id="edge49" class="edge">
<title>Node0x55d33e713218&#45;&gt;Node0x55d33e711148</title>
<path fill="none" stroke="#7fb2ff" d="M690.24,-447.86C701.04,-443.38 711.18,-437.56 720,-430 758.42,-397.07 720.82,-358.36 756,-322 769.56,-307.98 786.42,-296.96 804.27,-288.43"/>
<polygon fill="#7fb2ff" stroke="#7fb2ff" points="806.01,-291.48 813.69,-284.18 803.13,-285.1 806.01,-291.48"/>
</g>
<!-- Node0x55d33e715c98 -->
<g id="node10" class="node">
<title>Node0x55d33e715c98</title>
<polygon fill="#7fb2ff" stroke="black" points="1091,-592 774,-592 774,-556 1091,-556 1091,-592"/>
<text text-anchor="middle" x="932.5" y="-570.3" font-family="Times,serif" font-size="14.00">{lib/libLLVMObject.a(IRObjectFile.cpp.o)}</text>
</g>
<!-- Node0x55d33e713218&#45;&gt;Node0x55d33e715c98 -->
<g id="edge51" class="edge">
<title>Node0x55d33e713218&#45;&gt;Node0x55d33e715c98</title>
<path fill="none" stroke="#7fb2ff" d="M612.75,-484.06C651.36,-500.57 705.87,-523.96 756,-538 780.37,-544.83 807.16,-550.05 832.31,-554.3"/>
<polygon fill="#7fb2ff" stroke="#7fb2ff" points="831.79,-557.76 842.23,-555.94 832.94,-550.85 831.79,-557.76"/>
</g>
<!-- Node0x55d33e70d818&#45;&gt;Node0x55d33e70d598 -->
<g id="edge24" class="edge">
<title>Node0x55d33e70d818&#45;&gt;Node0x55d33e70d598</title>
<path fill="none" stroke="black" d="M770.6,-447.96C765.53,-445.29 760.64,-442.31 756,-439 740.26,-427.77 616.2,-179.36 574.57,-95.42"/>
<polygon fill="black" stroke="black" points="577.6,-93.66 570.02,-86.25 571.33,-96.77 577.6,-93.66"/>
</g>
<!-- Node0x55d33e70d818&#45;&gt;Node0x55d33e7125e8 -->
<g id="edge25" class="edge">
<title>Node0x55d33e70d818&#45;&gt;Node0x55d33e7125e8</title>
<path fill="none" stroke="#7fb2ff" d="M766.67,-448.69C728.4,-443.25 688.95,-437.25 654.97,-431.66"/>
<polygon fill="#7fb2ff" stroke="#7fb2ff" points="655.51,-428.2 645.07,-430.01 654.36,-435.1 655.51,-428.2"/>
</g>
<!-- Node0x55d33e70d818&#45;&gt;Node0x55d33e713218 -->
<g id="edge26" class="edge">
<title>Node0x55d33e70d818&#45;&gt;Node0x55d33e713218</title>
<path fill="none" stroke="#7fb2ff" d="M766.83,-466C754.67,-466 742.4,-466 730.21,-466"/>
<polygon fill="#7fb2ff" stroke="#7fb2ff" points="730.01,-462.5 720.01,-466 730.01,-469.5 730.01,-462.5"/>
</g>
<!-- Node0x55d33e70d818&#45;&gt;Node0x55d33e711148 -->
<g id="edge22" class="edge">
<title>Node0x55d33e70d818&#45;&gt;Node0x55d33e711148</title>
<path fill="none" stroke="#7fb2ff" d="M766.61,-457.57C755.18,-450.82 745.31,-441.83 738,-430 716.97,-395.97 716.97,-374.03 738,-340 753.33,-315.19 778.34,-298.67 805.39,-287.67"/>
<polygon fill="#7fb2ff" stroke="#7fb2ff" points="806.93,-290.83 815.03,-284.01 804.44,-284.29 806.93,-290.83"/>
</g>
<!-- Node0x55d33e70e498 -->
<g id="node11" class="node">
<title>Node0x55d33e70e498</title>
<polygon fill="none" stroke="black" points="1459,-86 1204,-86 1204,-50 1459,-50 1459,-86"/>
<text text-anchor="middle" x="1331.5" y="-64.3" font-family="Times,serif" font-size="14.00">{lib/libLLVMObject.a(ELF.cpp.o)}</text>
</g>
<!-- Node0x55d33e70d818&#45;&gt;Node0x55d33e70e498 -->
<g id="edge23" class="edge">
<title>Node0x55d33e70d818&#45;&gt;Node0x55d33e70e498</title>
<path fill="none" stroke="black" d="M1098.32,-448.35C1102.09,-445.53 1105.67,-442.42 1109,-439 1197.76,-347.85 1070.13,-257.87 1145,-155 1168.25,-123.06 1206.25,-102.45 1241.82,-89.36"/>
<polygon fill="black" stroke="black" points="1243.01,-92.65 1251.28,-86.03 1240.69,-86.05 1243.01,-92.65"/>
</g>
<!-- Node0x55d33e70c918&#45;&gt;Node0x55d33e70d598 -->
<g id="edge36" class="edge">
<title>Node0x55d33e70c918&#45;&gt;Node0x55d33e70d598</title>
<path fill="none" stroke="black" d="M768.3,-501.93C764,-499.25 759.89,-496.28 756,-493 717.33,-460.37 739.39,-431.73 720,-385 674.14,-274.49 606.28,-149.09 576.25,-95.08"/>
<polygon fill="black" stroke="black" points="579.19,-93.17 571.26,-86.15 573.08,-96.59 579.19,-93.17"/>
</g>
<!-- Node0x55d33e70c918&#45;&gt;Node0x55d33e7125e8 -->
<g id="edge37" class="edge">
<title>Node0x55d33e70c918&#45;&gt;Node0x55d33e7125e8</title>
<path fill="none" stroke="#7fb2ff" d="M756.39,-502.25C756.26,-502.17 756.13,-502.08 756,-502 731.68,-486.49 744.2,-463.7 720,-448 710.64,-441.93 700.35,-437.1 689.64,-433.22"/>
<polygon fill="#7fb2ff" stroke="#7fb2ff" points="690.72,-429.9 680.13,-430.06 688.51,-436.54 690.72,-429.9"/>
</g>
<!-- Node0x55d33e70c918&#45;&gt;Node0x55d33e713218 -->
<g id="edge38" class="edge">
<title>Node0x55d33e70c918&#45;&gt;Node0x55d33e713218</title>
<path fill="none" stroke="#7fb2ff" d="M807.88,-501.98C771.63,-496.7 731.81,-490.9 694.94,-485.52"/>
<polygon fill="#7fb2ff" stroke="#7fb2ff" points="695.03,-482 684.63,-484.02 694.02,-488.92 695.03,-482"/>
</g>
<!-- Node0x55d33e70c918&#45;&gt;Node0x55d33e711148 -->
<g id="edge35" class="edge">
<title>Node0x55d33e70c918&#45;&gt;Node0x55d33e711148</title>
<path fill="none" stroke="#7fb2ff" d="M756.12,-504.36C749.11,-498.76 742.96,-492.03 738,-484 721.18,-456.78 721.18,-367.22 738,-340 753.33,-315.19 778.34,-298.67 805.39,-287.67"/>
<polygon fill="#7fb2ff" stroke="#7fb2ff" points="806.93,-290.83 815.03,-284.01 804.44,-284.29 806.93,-290.83"/>
</g>
<!-- Node0x55d33e7145c8&#45;&gt;Node0x55d33e70d598 -->
<g id="edge40" class="edge">
<title>Node0x55d33e7145c8&#45;&gt;Node0x55d33e70d598</title>
<path fill="none" stroke="black" d="M771.72,-393.96C766.27,-391.3 761.01,-388.32 756,-385 647.89,-313.24 589.4,-158.99 569.21,-95.83"/>
<polygon fill="black" stroke="black" points="572.51,-94.66 566.19,-86.16 565.82,-96.75 572.51,-94.66"/>
</g>
<!-- Node0x55d33e7145c8&#45;&gt;Node0x55d33e7125e8 -->
<g id="edge41" class="edge">
<title>Node0x55d33e7145c8&#45;&gt;Node0x55d33e7125e8</title>
<path fill="none" stroke="#7fb2ff" d="M760.2,-418.73C747.28,-418.76 734.27,-418.75 721.43,-418.7"/>
<polygon fill="#7fb2ff" stroke="#7fb2ff" points="721.18,-415.19 711.16,-418.64 721.14,-422.19 721.18,-415.19"/>
</g>
<!-- Node0x55d33e7145c8&#45;&gt;Node0x55d33e713218 -->
<g id="edge42" class="edge">
<title>Node0x55d33e7145c8&#45;&gt;Node0x55d33e713218</title>
<path fill="none" stroke="#7fb2ff" d="M807.88,-430.02C771.63,-435.3 731.81,-441.1 694.94,-446.48"/>
<polygon fill="#7fb2ff" stroke="#7fb2ff" points="694.02,-443.08 684.63,-447.98 695.03,-450 694.02,-443.08"/>
</g>
<!-- Node0x55d33e7145c8&#45;&gt;Node0x55d33e711148 -->
<g id="edge39" class="edge">
<title>Node0x55d33e7145c8&#45;&gt;Node0x55d33e711148</title>
<path fill="none" stroke="#7fb2ff" d="M760.43,-399.59C751.61,-393.39 743.96,-385.64 738,-376 710.52,-331.53 765.85,-303.4 824.44,-286.73"/>
<polygon fill="#7fb2ff" stroke="#7fb2ff" points="825.52,-290.06 834.24,-284.05 823.67,-283.31 825.52,-290.06"/>
</g>
<!-- Node0x55d33e715ec8&#45;&gt;Node0x55d33e70d598 -->
<g id="edge43" class="edge">
<title>Node0x55d33e715ec8&#45;&gt;Node0x55d33e70d598</title>
<path fill="none" stroke="black" d="M784.25,-339.83C774.36,-336.01 764.83,-331.44 756,-326 662.84,-268.63 598.52,-149.1 573.11,-95.29"/>
<polygon fill="black" stroke="black" points="576.2,-93.64 568.82,-86.04 569.85,-96.58 576.2,-93.64"/>
</g>
<!-- Node0x55d33e715ec8&#45;&gt;Node0x55d33e7125e8 -->
<g id="edge44" class="edge">
<title>Node0x55d33e715ec8&#45;&gt;Node0x55d33e7125e8</title>
<path fill="none" stroke="#7fb2ff" d="M847.38,-376.02C810,-382.28 764.7,-389.2 721.27,-395.34"/>
<polygon fill="#7fb2ff" stroke="#7fb2ff" points="720.58,-391.9 711.16,-396.76 721.55,-398.83 720.58,-391.9"/>
</g>
<!-- Node0x55d33e715ec8&#45;&gt;Node0x55d33e713218 -->
<g id="edge45" class="edge">
<title>Node0x55d33e715ec8&#45;&gt;Node0x55d33e713218</title>
<path fill="none" stroke="#7fb2ff" d="M772.3,-376.08C766.66,-378.72 761.2,-381.68 756,-385 731.68,-400.51 744.2,-423.3 720,-439 717.66,-440.52 715.26,-441.96 712.81,-443.33"/>
<polygon fill="#7fb2ff" stroke="#7fb2ff" points="711.04,-440.3 703.73,-447.97 714.22,-446.54 711.04,-440.3"/>
</g>
<!-- Node0x55d33e711148&#45;&gt;Node0x55d33e70d598 -->
<g id="edge5" class="edge">
<title>Node0x55d33e711148&#45;&gt;Node0x55d33e70d598</title>
<path fill="none" stroke="black" d="M795.56,-248.66C781.88,-244.72 768.45,-239.91 756,-234 683.73,-199.73 616.74,-131.65 583.29,-94.2"/>
<polygon fill="black" stroke="black" points="585.53,-91.45 576.29,-86.26 580.28,-96.08 585.53,-91.45"/>
</g>
<!-- Node0x55d33e711148&#45;&gt;Node0x55d33e713218 -->
<g id="edge8" class="edge">
<title>Node0x55d33e711148&#45;&gt;Node0x55d33e713218</title>
<path fill="none" stroke="#7fb2ff" d="M865.01,-284.08C828.45,-293.99 784.81,-310.23 756,-340 723.56,-373.53 753,-409.06 727.66,-440.21"/>
<polygon fill="#7fb2ff" stroke="#7fb2ff" points="724.92,-438.01 720.45,-447.61 729.93,-442.89 724.92,-438.01"/>
</g>
<!-- Node0x55d33e710a18 -->
<g id="node12" class="node">
<title>Node0x55d33e710a18</title>
<polygon fill="#7fb2ff" stroke="black" points="1472.5,-308 1190.5,-308 1190.5,-272 1472.5,-272 1472.5,-308"/>
<text text-anchor="middle" x="1331.5" y="-286.3" font-family="Times,serif" font-size="14.00">{lib/libLLVMObject.a(Archive.cpp.o)}</text>
</g>
<!-- Node0x55d33e711148&#45;&gt;Node0x55d33e710a18 -->
<g id="edge4" class="edge">
<title>Node0x55d33e711148&#45;&gt;Node0x55d33e710a18</title>
<path fill="none" stroke="#7fb2ff" d="M1069.01,-267.75C1104.74,-269.55 1143.5,-271.85 1179.97,-274.33"/>
<polygon fill="#7fb2ff" stroke="#7fb2ff" points="1179.97,-277.84 1190.19,-275.03 1180.45,-270.85 1179.97,-277.84"/>
</g>
<!-- Node0x55d33e70c6e8 -->
<g id="node13" class="node">
<title>Node0x55d33e70c6e8</title>
<polygon fill="#7fb2ff" stroke="black" points="1505,-416 1158,-416 1158,-380 1505,-380 1505,-416"/>
<text text-anchor="middle" x="1331.5" y="-394.3" font-family="Times,serif" font-size="14.00">{lib/libLLVMObject.a(MachOUniversal.cpp.o)}</text>
</g>
<!-- Node0x55d33e711148&#45;&gt;Node0x55d33e70c6e8 -->
<g id="edge6" class="edge">
<title>Node0x55d33e711148&#45;&gt;Node0x55d33e70c6e8</title>
<path fill="none" stroke="#7fb2ff" d="M1069.3,-268.37C1083.55,-273.32 1097.13,-280.04 1109,-289 1137.87,-310.79 1115.74,-340.73 1145,-362 1152.72,-367.61 1161.1,-372.29 1169.89,-376.19"/>
<polygon fill="#7fb2ff" stroke="#7fb2ff" points="1168.61,-379.45 1179.2,-379.98 1171.26,-372.97 1168.61,-379.45"/>
</g>
<!-- Node0x55d33e714d48 -->
<g id="node14" class="node">
<title>Node0x55d33e714d48</title>
<polygon fill="#7fb2ff" stroke="black" points="1482,-254 1181,-254 1181,-218 1482,-218 1482,-254"/>
<text text-anchor="middle" x="1331.5" y="-232.3" font-family="Times,serif" font-size="14.00">{lib/libLLVMObject.a(Minidump.cpp.o)}</text>
</g>
<!-- Node0x55d33e711148&#45;&gt;Node0x55d33e714d48 -->
<g id="edge7" class="edge">
<title>Node0x55d33e711148&#45;&gt;Node0x55d33e714d48</title>
<path fill="none" stroke="#7fb2ff" d="M1069.01,-249.32C1101.69,-246.52 1136.9,-243.79 1170.57,-241.45"/>
<polygon fill="#7fb2ff" stroke="#7fb2ff" points="1171.23,-244.91 1180.97,-240.74 1170.75,-237.93 1171.23,-244.91"/>
</g>
<!-- Node0x55d33e712f98 -->
<g id="node15" class="node">
<title>Node0x55d33e712f98</title>
<polygon fill="#7fb2ff" stroke="black" points="1495,-362 1168,-362 1168,-326 1495,-326 1495,-362"/>
<text text-anchor="middle" x="1331.5" y="-340.3" font-family="Times,serif" font-size="14.00">{lib/libLLVMObject.a(TapiUniversal.cpp.o)}</text>
</g>
<!-- Node0x55d33e711148&#45;&gt;Node0x55d33e712f98 -->
<g id="edge9" class="edge">
<title>Node0x55d33e711148&#45;&gt;Node0x55d33e712f98</title>
<path fill="none" stroke="#7fb2ff" d="M1069.2,-277.48C1082.79,-280.77 1096.27,-284.6 1109,-289 1126.1,-294.91 1127.8,-302.39 1145,-308 1166.56,-315.03 1190.13,-320.23 1213.02,-324.26"/>
<polygon fill="#7fb2ff" stroke="#7fb2ff" points="1212.68,-327.75 1223.12,-325.98 1213.85,-320.85 1212.68,-327.75"/>
</g>
<!-- Node0x55d33e7142a8 -->
<g id="node16" class="node">
<title>Node0x55d33e7142a8</title>
<polygon fill="#7fb2ff" stroke="black" points="1511,-200 1152,-200 1152,-164 1511,-164 1511,-200"/>
<text text-anchor="middle" x="1331.5" y="-178.3" font-family="Times,serif" font-size="14.00">{lib/libLLVMObject.a(WindowsResource.cpp.o)}</text>
</g>
<!-- Node0x55d33e711148&#45;&gt;Node0x55d33e7142a8 -->
<g id="edge10" class="edge">
<title>Node0x55d33e711148&#45;&gt;Node0x55d33e7142a8</title>
<path fill="none" stroke="#7fb2ff" d="M971,-247.88C1010.98,-233.57 1076.56,-214.69 1141.71,-200.74"/>
<polygon fill="#7fb2ff" stroke="#7fb2ff" points="1142.67,-204.11 1151.74,-198.63 1141.23,-197.26 1142.67,-204.11"/>
</g>
<!-- Node0x55d33e715c98&#45;&gt;Node0x55d33e70d598 -->
<g id="edge55" class="edge">
<title>Node0x55d33e715c98&#45;&gt;Node0x55d33e70d598</title>
<path fill="none" stroke="black" d="M773.65,-560.12C767.33,-556.4 761.4,-552.06 756,-547 702.15,-496.6 744.72,-454.49 720,-385 679.99,-272.55 609.4,-148.62 577.49,-95.09"/>
<polygon fill="black" stroke="black" points="580.31,-93 572.17,-86.22 574.31,-96.6 580.31,-93"/>
</g>
<!-- Node0x55d33e715c98&#45;&gt;Node0x55d33e7125e8 -->
<g id="edge57" class="edge">
<title>Node0x55d33e715c98&#45;&gt;Node0x55d33e7125e8</title>
<path fill="none" stroke="#7fb2ff" d="M773.87,-559.2C767.54,-555.71 761.54,-551.67 756,-547 717.33,-514.37 758.42,-471.93 720,-439 718.8,-437.98 717.58,-436.98 716.34,-436.02"/>
<polygon fill="#7fb2ff" stroke="#7fb2ff" points="718.04,-432.94 707.83,-430.11 714.05,-438.69 718.04,-432.94"/>
</g>
<!-- Node0x55d33e715c98&#45;&gt;Node0x55d33e713218 -->
<g id="edge58" class="edge">
<title>Node0x55d33e715c98&#45;&gt;Node0x55d33e713218</title>
<path fill="none" stroke="#7fb2ff" d="M773.72,-560.59C767.71,-559.15 761.79,-557.62 756,-556 697.26,-539.54 632.5,-510.26 594.36,-489.3"/>
<polygon fill="#7fb2ff" stroke="#7fb2ff" points="595.68,-486.03 585.25,-484.17 592.24,-492.13 595.68,-486.03"/>
</g>
<!-- Node0x55d33e715c98&#45;&gt;Node0x55d33e711148 -->
<g id="edge54" class="edge">
<title>Node0x55d33e715c98&#45;&gt;Node0x55d33e711148</title>
<path fill="none" stroke="#7fb2ff" d="M773.56,-569.31C759.18,-562.26 746.76,-552.17 738,-538 714.87,-500.57 714.87,-377.43 738,-340 753.33,-315.19 778.34,-298.67 805.39,-287.67"/>
<polygon fill="#7fb2ff" stroke="#7fb2ff" points="806.93,-290.83 815.03,-284.01 804.44,-284.29 806.93,-290.83"/>
</g>
<!-- Node0x55d33e714938 -->
<g id="node17" class="node">
<title>Node0x55d33e714938</title>
<polygon fill="none" stroke="black" points="1518,-646 1145,-646 1145,-610 1518,-610 1518,-646"/>
<text text-anchor="middle" x="1331.5" y="-624.3" font-family="Times,serif" font-size="14.00">{lib/libLLVMObject.a(ModuleSymbolTable.cpp.o)}</text>
</g>
<!-- Node0x55d33e715c98&#45;&gt;Node0x55d33e714938 -->
<g id="edge56" class="edge">
<title>Node0x55d33e715c98&#45;&gt;Node0x55d33e714938</title>
<path fill="none" stroke="black" d="M1065.97,-592.02C1105.15,-597.35 1148.21,-603.21 1188,-608.62"/>
<polygon fill="black" stroke="black" points="1187.66,-612.1 1198.04,-609.98 1188.6,-605.17 1187.66,-612.1"/>
</g>
<!-- Node0x55d33e70e498&#45;&gt;Node0x55d33e70d598 -->
<g id="edge21" class="edge">
<title>Node0x55d33e70e498&#45;&gt;Node0x55d33e70d598</title>
<path fill="none" stroke="black" d="M1203.77,-68C1066.19,-68 846.95,-68 703.48,-68"/>
<polygon fill="black" stroke="black" points="703.28,-64.5 693.28,-68 703.28,-71.5 703.28,-64.5"/>
</g>
<!-- Node0x55d33e710a18&#45;&gt;Node0x55d33e70d598 -->
<g id="edge29" class="edge">
<title>Node0x55d33e710a18&#45;&gt;Node0x55d33e70d598</title>
<path fill="none" stroke="black" d="M1190.02,-276.35C1174.57,-272.85 1159.28,-268.48 1145,-263 1127.05,-256.11 1126.84,-246.17 1109,-239 961.14,-179.55 906.18,-229.33 756,-176 696.41,-154.84 633.45,-116.69 595.69,-91.86"/>
<polygon fill="black" stroke="black" points="597.38,-88.78 587.11,-86.16 593.51,-94.61 597.38,-88.78"/>
</g>
<!-- Node0x55d33e710a18&#45;&gt;Node0x55d33e711148 -->
<g id="edge28" class="edge">
<title>Node0x55d33e710a18&#45;&gt;Node0x55d33e711148</title>
<path fill="none" stroke="#7fb2ff" d="M1190.19,-288C1154.2,-286.16 1115.42,-283.83 1079.17,-281.34"/>
<polygon fill="#7fb2ff" stroke="#7fb2ff" points="1079.23,-277.84 1069.01,-280.63 1078.75,-284.82 1079.23,-277.84"/>
</g>
<!-- Node0x55d33e70c6e8&#45;&gt;Node0x55d33e70d598 -->
<g id="edge32" class="edge">
<title>Node0x55d33e70c6e8&#45;&gt;Node0x55d33e70d598</title>
<path fill="none" stroke="black" d="M1164.24,-379.85C1157.61,-377.24 1151.17,-374.3 1145,-371 1123.91,-359.72 1130.3,-341.89 1109,-331 968.5,-259.17 895.82,-366.14 756,-293 668.22,-247.08 602.58,-143.81 575.13,-94.8"/>
<polygon fill="black" stroke="black" points="578.19,-93.1 570.3,-86.03 572.06,-96.48 578.19,-93.1"/>
</g>
<!-- Node0x55d33e70c6e8&#45;&gt;Node0x55d33e70c918 -->
<g id="edge33" class="edge">
<title>Node0x55d33e70c6e8&#45;&gt;Node0x55d33e70c918</title>
<path fill="none" stroke="#7fb2ff" d="M1295.83,-416.14C1253.06,-437.74 1177.58,-473.36 1109,-493 1100.4,-495.46 1091.5,-497.71 1082.47,-499.77"/>
<polygon fill="#7fb2ff" stroke="#7fb2ff" points="1081.66,-496.36 1072.64,-501.92 1083.15,-503.2 1081.66,-496.36"/>
</g>
<!-- Node0x55d33e70c6e8&#45;&gt;Node0x55d33e711148 -->
<g id="edge31" class="edge">
<title>Node0x55d33e70c6e8&#45;&gt;Node0x55d33e711148</title>
<path fill="none" stroke="#7fb2ff" d="M1157.76,-388.14C1153.35,-385.67 1149.08,-382.97 1145,-380 1115.74,-358.73 1137.87,-328.79 1109,-307 1098.06,-298.74 1085.66,-292.38 1072.62,-287.47"/>
<polygon fill="#7fb2ff" stroke="#7fb2ff" points="1073.63,-284.11 1063.03,-284.14 1071.33,-290.72 1073.63,-284.11"/>
</g>
<!-- Node0x55d33e70c6e8&#45;&gt;Node0x55d33e715c98 -->
<g id="edge34" class="edge">
<title>Node0x55d33e70c6e8&#45;&gt;Node0x55d33e715c98</title>
<path fill="none" stroke="#7fb2ff" d="M1310.28,-416.22C1273.3,-448.4 1191.02,-514.96 1109,-547 1103.48,-549.16 1097.8,-551.14 1092.02,-552.97"/>
<polygon fill="#7fb2ff" stroke="#7fb2ff" points="1090.78,-549.68 1082.19,-555.89 1092.78,-556.39 1090.78,-549.68"/>
</g>
<!-- Node0x55d33e70c6e8&#45;&gt;Node0x55d33e710a18 -->
<g id="edge30" class="edge">
<title>Node0x55d33e70c6e8&#45;&gt;Node0x55d33e710a18</title>
<path fill="none" stroke="#7fb2ff" d="M1157.95,-391.34C1145.55,-384.27 1134.87,-374.73 1127,-362 1106.21,-328.36 1136.92,-310.21 1180.37,-300.49"/>
<polygon fill="#7fb2ff" stroke="#7fb2ff" points="1181.33,-303.87 1190.43,-298.43 1179.93,-297.01 1181.33,-303.87"/>
</g>
<!-- Node0x55d33e714d48&#45;&gt;Node0x55d33e70d598 -->
<g id="edge48" class="edge">
<title>Node0x55d33e714d48&#45;&gt;Node0x55d33e70d598</title>
<path fill="none" stroke="black" d="M1198.06,-217.97C1180.19,-215.17 1162.12,-212.16 1145,-209 970.78,-176.89 927.87,-164.99 756,-122 715.02,-111.75 669.51,-99.21 632.77,-88.8"/>
<polygon fill="black" stroke="black" points="633.72,-85.43 623.14,-86.06 631.8,-92.17 633.72,-85.43"/>
</g>
<!-- Node0x55d33e714d48&#45;&gt;Node0x55d33e711148 -->
<g id="edge47" class="edge">
<title>Node0x55d33e714d48&#45;&gt;Node0x55d33e711148</title>
<path fill="none" stroke="#7fb2ff" d="M1180.97,-253.86C1147.66,-256.64 1112.39,-259.29 1079.23,-261.52"/>
<polygon fill="#7fb2ff" stroke="#7fb2ff" points="1078.76,-258.04 1069.01,-262.2 1079.22,-265.03 1078.76,-258.04"/>
</g>
<!-- Node0x55d33e712f98&#45;&gt;Node0x55d33e711148 -->
<g id="edge53" class="edge">
<title>Node0x55d33e712f98&#45;&gt;Node0x55d33e711148</title>
<path fill="none" stroke="#7fb2ff" d="M1167.88,-332.62C1160.09,-330.62 1152.43,-328.42 1145,-326 1127.8,-320.39 1126.1,-312.91 1109,-307 1082.41,-297.8 1052.59,-291.1 1025.18,-285.89"/>
<polygon fill="#7fb2ff" stroke="#7fb2ff" points="1025.68,-282.42 1015.21,-284.03 1024.4,-289.3 1025.68,-282.42"/>
</g>
<!-- Node0x55d33e7142a8&#45;&gt;Node0x55d33e70ebc8 -->
<g id="edge19" class="edge">
<title>Node0x55d33e7142a8&#45;&gt;Node0x55d33e70ebc8</title>
<path fill="none" stroke="#7fb2ff" d="M1151.91,-190.76C1037.84,-198.55 887.24,-212.93 756,-239 563.46,-277.24 343.07,-353.25 240.77,-390.46"/>
<polygon fill="#7fb2ff" stroke="#7fb2ff" points="239.44,-387.22 231.24,-393.94 241.84,-393.8 239.44,-387.22"/>
</g>
<!-- Node0x55d33e7142a8&#45;&gt;Node0x55d33e70d598 -->
<g id="edge20" class="edge">
<title>Node0x55d33e7142a8&#45;&gt;Node0x55d33e70d598</title>
<path fill="none" stroke="black" d="M1263.06,-163.99C1219.4,-152.86 1161.15,-139.04 1109,-130 972.12,-106.27 814.36,-89.53 703.36,-79.47"/>
<polygon fill="black" stroke="black" points="703.38,-75.96 693.11,-78.55 702.75,-82.93 703.38,-75.96"/>
</g>
<!-- Node0x55d33e7142a8&#45;&gt;Node0x55d33e711148 -->
<g id="edge18" class="edge">
<title>Node0x55d33e7142a8&#45;&gt;Node0x55d33e711148</title>
<path fill="none" stroke="#7fb2ff" d="M1249.33,-200.04C1216.75,-205.13 1178.94,-210.98 1145,-218 1107.73,-225.71 1067.27,-236.1 1031.81,-245.36"/>
<polygon fill="#7fb2ff" stroke="#7fb2ff" points="1030.74,-242.03 1021.95,-247.94 1032.51,-248.8 1030.74,-242.03"/>
</g>
<!-- Node0x55d33e7118c8 -->
<g id="node20" class="node">
<title>Node0x55d33e7118c8</title>
<polygon fill="none" stroke="black" points="1898,-646 1554,-646 1554,-610 1898,-610 1898,-646"/>
<text text-anchor="middle" x="1726" y="-624.3" font-family="Times,serif" font-size="14.00">{lib/libLLVMObject.a(RecordStreamer.cpp.o)}</text>
</g>
<!-- Node0x55d33e714938&#45;&gt;Node0x55d33e7118c8 -->
<g id="edge59" class="edge">
<title>Node0x55d33e714938&#45;&gt;Node0x55d33e7118c8</title>
<path fill="none" stroke="black" d="M1518.12,-628C1526.67,-628 1535.25,-628 1543.79,-628"/>
<polygon fill="black" stroke="black" points="1543.8,-631.5 1553.8,-628 1543.8,-624.5 1543.8,-631.5"/>
</g>
<!-- Node0x55d33e711698 -->
<g id="node18" class="node">
<title>Node0x55d33e711698</title>
<polygon fill="none" stroke="black" points="364,-113 0,-113 0,-77 364,-77 364,-113"/>
<text text-anchor="middle" x="182" y="-91.3" font-family="Times,serif" font-size="14.00">{lib/libLLVMObject.a(RelocationResolver.cpp.o)}</text>
</g>
<!-- Node0x55d33e711698&#45;&gt;Node0x55d33e70d598 -->
<g id="edge27" class="edge">
<title>Node0x55d33e711698&#45;&gt;Node0x55d33e70d598</title>
<path fill="none" stroke="black" d="M364.12,-81.99C381.79,-80.72 399.55,-79.45 416.76,-78.21"/>
<polygon fill="black" stroke="black" points="417.11,-81.7 426.83,-77.49 416.61,-74.72 417.11,-81.7"/>
</g>
<!-- Node0x55d33e70ea38 -->
<g id="node19" class="node">
<title>Node0x55d33e70ea38</title>
<polygon fill="none" stroke="black" points="346.5,-59 17.5,-59 17.5,-23 346.5,-23 346.5,-59"/>
<text text-anchor="middle" x="182" y="-37.3" font-family="Times,serif" font-size="14.00">{lib/libLLVMObject.a(Decompressor.cpp.o)}</text>
</g>
<!-- Node0x55d33e70ea38&#45;&gt;Node0x55d33e70d598 -->
<g id="edge46" class="edge">
<title>Node0x55d33e70ea38&#45;&gt;Node0x55d33e70d598</title>
<path fill="none" stroke="black" d="M346.55,-52.74C369.93,-54.42 393.82,-56.14 416.74,-57.78"/>
<polygon fill="black" stroke="black" points="416.62,-61.28 426.85,-58.51 417.12,-54.3 416.62,-61.28"/>
</g>
<!-- Node0x55d33e715478 -->
<g id="node21" class="node">
<title>Node0x55d33e715478</title>
<polygon fill="none" stroke="black" points="1082,-646 783,-646 783,-610 1082,-610 1082,-646"/>
<text text-anchor="middle" x="932.5" y="-624.3" font-family="Times,serif" font-size="14.00">{lib/libLLVMObject.a(IRSymtab.cpp.o)}</text>
</g>
<!-- Node0x55d33e715478&#45;&gt;Node0x55d33e714938 -->
<g id="edge60" class="edge">
<title>Node0x55d33e715478&#45;&gt;Node0x55d33e714938</title>
<path fill="none" stroke="black" d="M1082.18,-628C1099.29,-628 1116.93,-628 1134.54,-628"/>
<polygon fill="black" stroke="black" points="1134.91,-631.5 1144.91,-628 1134.91,-624.5 1134.91,-631.5"/>
</g>
<!-- Node0x55d33e712ae8 -->
<g id="node22" class="node">
<title>Node0x55d33e712ae8</title>
<polygon fill="none" stroke="black" points="324.5,-484 39.5,-484 39.5,-448 324.5,-448 324.5,-484"/>
<text text-anchor="middle" x="182" y="-462.3" font-family="Times,serif" font-size="14.00">{lib/libLLVMObject.a(TapiFile.cpp.o)}</text>
</g>
<!-- Node0x55d33e712ae8&#45;&gt;Node0x55d33e713218 -->
<g id="edge61" class="edge">
<title>Node0x55d33e712ae8&#45;&gt;Node0x55d33e713218</title>
<path fill="none" stroke="black" d="M324.61,-466C345.82,-466 367.87,-466 389.58,-466"/>
<polygon fill="black" stroke="black" points="389.86,-469.5 399.86,-466 389.86,-462.5 389.86,-469.5"/>
</g>
</g>
</svg>
