<?xml version="1.0" encoding="UTF-8" standalone="no"?>
<!DOCTYPE svg PUBLIC "-//W3C//DTD SVG 1.1//EN"
 "http://www.w3.org/Graphics/SVG/1.1/DTD/svg11.dtd">
<!-- Generated by graphviz version 2.43.0 (0)
 -->
<!-- Title: a.out Pages: 1 -->
<svg width="1137pt" height="213pt"
 viewBox="0.00 0.00 1137.18 213.00" xmlns="http://www.w3.org/2000/svg" xmlns:xlink="http://www.w3.org/1999/xlink">
<g id="graph0" class="graph" transform="scale(1 1) rotate(0) translate(4 209)">
<title>a.out</title>
<polygon fill="white" stroke="transparent" points="-4,4 -4,-209 1133.18,-209 1133.18,4 -4,4"/>
<text text-anchor="middle" x="564.59" y="-7.8" font-family="Times,serif" font-size="14.00">a.out</text>
<!-- Node0x5607ef49a2e8 -->
<g id="node1" class="node">
<title>Node0x5607ef49a2e8</title>
<polygon fill="none" stroke="black" points="211.44,-168.5 211.44,-204.5 669.44,-204.5 669.44,-168.5 211.44,-168.5"/>
<text text-anchor="middle" x="440.44" y="-182.8" font-family="Times,serif" font-size="14.00">/usr/lib/gcc/x86_64&#45;linux&#45;gnu/9/../../../x86_64&#45;linux&#45;gnu/Scrt1.o</text>
</g>
<!-- Node0x5607ef499ac0 -->
<g id="node2" class="node">
<title>Node0x5607ef499ac0</title>
<ellipse fill="none" stroke="black" cx="112.44" cy="-113.5" rx="112.38" ry="18"/>
<text text-anchor="middle" x="112.44" y="-109.8" font-family="Times,serif" font-size="14.00">Node0x5607ef499ac0</text>
</g>
<!-- Node0x5607ef49a2e8&#45;&gt;Node0x5607ef499ac0 -->
<g id="edge1" class="edge">
<title>Node0x5607ef49a2e8&#45;&gt;Node0x5607ef499ac0</title>
<path fill="none" stroke="black" d="M361.88,-168.49C308.55,-156.95 238.51,-141.79 186.22,-130.47"/>
<polygon fill="black" stroke="black" points="186.86,-127.03 176.34,-128.33 185.38,-133.87 186.86,-127.03"/>
</g>
<!-- Node0x5607ef499dd8 -->
<g id="node3" class="node">
<title>Node0x5607ef499dd8</title>
<polygon fill="none" stroke="black" points="242.44,-95.5 242.44,-131.5 638.44,-131.5 638.44,-95.5 242.44,-95.5"/>
<text text-anchor="middle" x="440.44" y="-109.8" font-family="Times,serif" font-size="14.00">/usr/lib/x86_64&#45;linux&#45;gnu/libc_nonshared.a(elf&#45;init.oS)</text>
</g>
<!-- Node0x5607ef49a2e8&#45;&gt;Node0x5607ef499dd8 -->
<g id="edge2" class="edge">
<title>Node0x5607ef49a2e8&#45;&gt;Node0x5607ef499dd8</title>
<path fill="none" stroke="black" d="M440.44,-168.31C440.44,-160.29 440.44,-150.55 440.44,-141.57"/>
<polygon fill="black" stroke="black" points="443.94,-141.53 440.44,-131.53 436.94,-141.53 443.94,-141.53"/>
</g>
<!-- Node0x5607ef499400 -->
<g id="node4" class="node">
<title>Node0x5607ef499400</title>
<ellipse fill="none" stroke="black" cx="770.44" cy="-113.5" rx="113.98" ry="18"/>
<text text-anchor="middle" x="770.44" y="-109.8" font-family="Times,serif" font-size="14.00">Node0x5607ef499400</text>
</g>
<!-- Node0x5607ef49a2e8&#45;&gt;Node0x5607ef499400 -->
<g id="edge3" class="edge">
<title>Node0x5607ef49a2e8&#45;&gt;Node0x5607ef499400</title>
<path fill="none" stroke="black" d="M519.48,-168.49C573.04,-156.97 643.37,-141.84 695.95,-130.53"/>
<polygon fill="black" stroke="black" points="696.84,-133.92 705.88,-128.39 695.37,-127.07 696.84,-133.92"/>
</g>
<!-- Node0x5607ef499718 -->
<g id="node7" class="node">
<title>Node0x5607ef499718</title>
<ellipse fill="none" stroke="black" cx="440.44" cy="-41" rx="113.98" ry="18"/>
<text text-anchor="middle" x="440.44" y="-37.3" font-family="Times,serif" font-size="14.00">Node0x5607ef499718</text>
</g>
<!-- Node0x5607ef499dd8&#45;&gt;Node0x5607ef499718 -->
<g id="edge6" class="edge">
<title>Node0x5607ef499dd8&#45;&gt;Node0x5607ef499718</title>
<path fill="none" stroke="black" d="M440.44,-95.43C440.44,-87.67 440.44,-78.28 440.44,-69.56"/>
<polygon fill="black" stroke="black" points="443.94,-69.4 440.44,-59.4 436.94,-69.4 443.94,-69.4"/>
</g>
<!-- Node0x5607ef499520 -->
<g id="node5" class="node">
<title>Node0x5607ef499520</title>
<polygon fill="none" stroke="black" points="770.94,-168.5 770.94,-204.5 1091.94,-204.5 1091.94,-168.5 770.94,-168.5"/>
<text text-anchor="middle" x="931.44" y="-182.8" font-family="Times,serif" font-size="14.00">/usr/lib/gcc/x86_64&#45;linux&#45;gnu/9/crtbeginS.o</text>
</g>
<!-- Node0x5607ef499520&#45;&gt;Node0x5607ef499400 -->
<g id="edge5" class="edge">
<title>Node0x5607ef499520&#45;&gt;Node0x5607ef499400</title>
<path fill="none" stroke="black" d="M892.88,-168.49C869.88,-158.35 840.55,-145.42 816.36,-134.75"/>
<polygon fill="black" stroke="black" points="817.59,-131.47 807.03,-130.64 814.77,-137.87 817.59,-131.47"/>
</g>
<!-- Node0x5607ef499880 -->
<g id="node6" class="node">
<title>Node0x5607ef499880</title>
<ellipse fill="none" stroke="black" cx="1015.44" cy="-113.5" rx="113.98" ry="18"/>
<text text-anchor="middle" x="1015.44" y="-109.8" font-family="Times,serif" font-size="14.00">Node0x5607ef499880</text>
</g>
<!-- Node0x5607ef499520&#45;&gt;Node0x5607ef499880 -->
<g id="edge4" class="edge">
<title>Node0x5607ef499520&#45;&gt;Node0x5607ef499880</title>
<path fill="none" stroke="black" d="M951.77,-168.31C962.58,-159.18 976.03,-147.81 987.78,-137.88"/>
<polygon fill="black" stroke="black" points="990.21,-140.41 995.58,-131.28 985.69,-135.07 990.21,-140.41"/>
</g>
</g>
</svg>
