<?xml version="1.0" encoding="UTF-8" standalone="no"?>
<!DOCTYPE svg PUBLIC "-//W3C//DTD SVG 1.1//EN"
 "http://www.w3.org/Graphics/SVG/1.1/DTD/svg11.dtd">
<!-- Generated by graphviz version 2.43.0 (0)
 -->
<!-- Title: cmTC_b974d Pages: 1 -->
<svg width="1140pt" height="213pt"
 viewBox="0.00 0.00 1140.48 213.00" xmlns="http://www.w3.org/2000/svg" xmlns:xlink="http://www.w3.org/1999/xlink">
<g id="graph0" class="graph" transform="scale(1 1) rotate(0) translate(4 209)">
<title>cmTC_b974d</title>
<polygon fill="white" stroke="transparent" points="-4,4 -4,-209 1136.48,-209 1136.48,4 -4,4"/>
<text text-anchor="middle" x="566.24" y="-7.8" font-family="Times,serif" font-size="14.00">cmTC_b974d</text>
<!-- Node0x55617aa9c668 -->
<g id="node1" class="node">
<title>Node0x55617aa9c668</title>
<polygon fill="none" stroke="black" points="215.39,-168.5 215.39,-204.5 673.39,-204.5 673.39,-168.5 215.39,-168.5"/>
<text text-anchor="middle" x="444.39" y="-182.8" font-family="Times,serif" font-size="14.00">/usr/lib/gcc/x86_64&#45;linux&#45;gnu/9/../../../x86_64&#45;linux&#45;gnu/Scrt1.o</text>
</g>
<!-- Node0x55617aa9c7d0 -->
<g id="node2" class="node">
<title>Node0x55617aa9c7d0</title>
<ellipse fill="none" stroke="black" cx="114.39" cy="-113.5" rx="114.28" ry="18"/>
<text text-anchor="middle" x="114.39" y="-109.8" font-family="Times,serif" font-size="14.00">Node0x55617aa9c7d0</text>
</g>
<!-- Node0x55617aa9c668&#45;&gt;Node0x55617aa9c7d0 -->
<g id="edge1" class="edge">
<title>Node0x55617aa9c668&#45;&gt;Node0x55617aa9c7d0</title>
<path fill="none" stroke="black" d="M365.35,-168.49C311.79,-156.97 241.46,-141.84 188.88,-130.53"/>
<polygon fill="black" stroke="black" points="189.46,-127.07 178.95,-128.39 187.99,-133.92 189.46,-127.07"/>
</g>
<!-- Node0x55617aa9c5d8 -->
<g id="node3" class="node">
<title>Node0x55617aa9c5d8</title>
<polygon fill="none" stroke="black" points="246.39,-95.5 246.39,-131.5 642.39,-131.5 642.39,-95.5 246.39,-95.5"/>
<text text-anchor="middle" x="444.39" y="-109.8" font-family="Times,serif" font-size="14.00">/usr/lib/x86_64&#45;linux&#45;gnu/libc_nonshared.a(elf&#45;init.oS)</text>
</g>
<!-- Node0x55617aa9c668&#45;&gt;Node0x55617aa9c5d8 -->
<g id="edge2" class="edge">
<title>Node0x55617aa9c668&#45;&gt;Node0x55617aa9c5d8</title>
<path fill="none" stroke="black" d="M444.39,-168.31C444.39,-160.29 444.39,-150.55 444.39,-141.57"/>
<polygon fill="black" stroke="black" points="447.89,-141.53 444.39,-131.53 440.89,-141.53 447.89,-141.53"/>
</g>
<!-- Node0x55617aa9bae0 -->
<g id="node4" class="node">
<title>Node0x55617aa9bae0</title>
<ellipse fill="none" stroke="black" cx="774.39" cy="-113.5" rx="114.28" ry="18"/>
<text text-anchor="middle" x="774.39" y="-109.8" font-family="Times,serif" font-size="14.00">Node0x55617aa9bae0</text>
</g>
<!-- Node0x55617aa9c668&#45;&gt;Node0x55617aa9bae0 -->
<g id="edge3" class="edge">
<title>Node0x55617aa9c668&#45;&gt;Node0x55617aa9bae0</title>
<path fill="none" stroke="black" d="M523.43,-168.49C576.99,-156.97 647.32,-141.84 699.9,-130.53"/>
<polygon fill="black" stroke="black" points="700.79,-133.92 709.83,-128.39 699.32,-127.07 700.79,-133.92"/>
</g>
<!-- Node0x55617aa9b738 -->
<g id="node7" class="node">
<title>Node0x55617aa9b738</title>
<ellipse fill="none" stroke="black" cx="444.39" cy="-41" rx="115.88" ry="18"/>
<text text-anchor="middle" x="444.39" y="-37.3" font-family="Times,serif" font-size="14.00">Node0x55617aa9b738</text>
</g>
<!-- Node0x55617aa9c5d8&#45;&gt;Node0x55617aa9b738 -->
<g id="edge6" class="edge">
<title>Node0x55617aa9c5d8&#45;&gt;Node0x55617aa9b738</title>
<path fill="none" stroke="black" d="M444.39,-95.43C444.39,-87.67 444.39,-78.28 444.39,-69.56"/>
<polygon fill="black" stroke="black" points="447.89,-69.4 444.39,-59.4 440.89,-69.4 447.89,-69.4"/>
</g>
<!-- Node0x55617aa9bc90 -->
<g id="node5" class="node">
<title>Node0x55617aa9bc90</title>
<polygon fill="none" stroke="black" points="774.89,-168.5 774.89,-204.5 1095.89,-204.5 1095.89,-168.5 774.89,-168.5"/>
<text text-anchor="middle" x="935.39" y="-182.8" font-family="Times,serif" font-size="14.00">/usr/lib/gcc/x86_64&#45;linux&#45;gnu/9/crtbeginS.o</text>
</g>
<!-- Node0x55617aa9bc90&#45;&gt;Node0x55617aa9bae0 -->
<g id="edge5" class="edge">
<title>Node0x55617aa9bc90&#45;&gt;Node0x55617aa9bae0</title>
<path fill="none" stroke="black" d="M896.83,-168.49C873.83,-158.35 844.5,-145.42 820.31,-134.75"/>
<polygon fill="black" stroke="black" points="821.54,-131.47 810.98,-130.64 818.72,-137.87 821.54,-131.47"/>
</g>
<!-- Node0x55617aa9b6f0 -->
<g id="node6" class="node">
<title>Node0x55617aa9b6f0</title>
<ellipse fill="none" stroke="black" cx="1019.39" cy="-113.5" rx="113.18" ry="18"/>
<text text-anchor="middle" x="1019.39" y="-109.8" font-family="Times,serif" font-size="14.00">Node0x55617aa9b6f0</text>
</g>
<!-- Node0x55617aa9bc90&#45;&gt;Node0x55617aa9b6f0 -->
<g id="edge4" class="edge">
<title>Node0x55617aa9bc90&#45;&gt;Node0x55617aa9b6f0</title>
<path fill="none" stroke="black" d="M955.72,-168.31C966.53,-159.18 979.98,-147.81 991.73,-137.88"/>
<polygon fill="black" stroke="black" points="994.15,-140.41 999.53,-131.28 989.64,-135.07 994.15,-140.41"/>
</g>
</g>
</svg>
