<?xml version="1.0" encoding="UTF-8" standalone="no"?>
<!DOCTYPE svg PUBLIC "-//W3C//DTD SVG 1.1//EN"
 "http://www.w3.org/Graphics/SVG/1.1/DTD/svg11.dtd">
<!-- Generated by graphviz version 2.43.0 (0)
 -->
<!-- Title: cmTC_aa9cb Pages: 1 -->
<svg width="1144pt" height="213pt"
 viewBox="0.00 0.00 1144.43 213.00" xmlns="http://www.w3.org/2000/svg" xmlns:xlink="http://www.w3.org/1999/xlink">
<g id="graph0" class="graph" transform="scale(1 1) rotate(0) translate(4 209)">
<title>cmTC_aa9cb</title>
<polygon fill="white" stroke="transparent" points="-4,4 -4,-209 1140.43,-209 1140.43,4 -4,4"/>
<text text-anchor="middle" x="568.21" y="-7.8" font-family="Times,serif" font-size="14.00">cmTC_aa9cb</text>
<!-- Node0x55e882c26ac8 -->
<g id="node1" class="node">
<title>Node0x55e882c26ac8</title>
<polygon fill="none" stroke="black" points="215.39,-168.5 215.39,-204.5 673.39,-204.5 673.39,-168.5 215.39,-168.5"/>
<text text-anchor="middle" x="444.39" y="-182.8" font-family="Times,serif" font-size="14.00">/usr/lib/gcc/x86_64&#45;linux&#45;gnu/9/../../../x86_64&#45;linux&#45;gnu/Scrt1.o</text>
</g>
<!-- Node0x55e882c26c30 -->
<g id="node2" class="node">
<title>Node0x55e882c26c30</title>
<ellipse fill="none" stroke="black" cx="114.39" cy="-113.5" rx="114.28" ry="18"/>
<text text-anchor="middle" x="114.39" y="-109.8" font-family="Times,serif" font-size="14.00">Node0x55e882c26c30</text>
</g>
<!-- Node0x55e882c26ac8&#45;&gt;Node0x55e882c26c30 -->
<g id="edge1" class="edge">
<title>Node0x55e882c26ac8&#45;&gt;Node0x55e882c26c30</title>
<path fill="none" stroke="black" d="M365.35,-168.49C311.79,-156.97 241.46,-141.84 188.88,-130.53"/>
<polygon fill="black" stroke="black" points="189.46,-127.07 178.95,-128.39 187.99,-133.92 189.46,-127.07"/>
</g>
<!-- Node0x55e882c26eb8 -->
<g id="node3" class="node">
<title>Node0x55e882c26eb8</title>
<polygon fill="none" stroke="black" points="246.39,-95.5 246.39,-131.5 642.39,-131.5 642.39,-95.5 246.39,-95.5"/>
<text text-anchor="middle" x="444.39" y="-109.8" font-family="Times,serif" font-size="14.00">/usr/lib/x86_64&#45;linux&#45;gnu/libc_nonshared.a(elf&#45;init.oS)</text>
</g>
<!-- Node0x55e882c26ac8&#45;&gt;Node0x55e882c26eb8 -->
<g id="edge2" class="edge">
<title>Node0x55e882c26ac8&#45;&gt;Node0x55e882c26eb8</title>
<path fill="none" stroke="black" d="M444.39,-168.31C444.39,-160.29 444.39,-150.55 444.39,-141.57"/>
<polygon fill="black" stroke="black" points="447.89,-141.53 444.39,-131.53 440.89,-141.53 447.89,-141.53"/>
</g>
<!-- Node0x55e882c26be8 -->
<g id="node4" class="node">
<title>Node0x55e882c26be8</title>
<ellipse fill="none" stroke="black" cx="774.39" cy="-113.5" rx="114.28" ry="18"/>
<text text-anchor="middle" x="774.39" y="-109.8" font-family="Times,serif" font-size="14.00">Node0x55e882c26be8</text>
</g>
<!-- Node0x55e882c26ac8&#45;&gt;Node0x55e882c26be8 -->
<g id="edge3" class="edge">
<title>Node0x55e882c26ac8&#45;&gt;Node0x55e882c26be8</title>
<path fill="none" stroke="black" d="M523.43,-168.49C576.99,-156.97 647.32,-141.84 699.9,-130.53"/>
<polygon fill="black" stroke="black" points="700.79,-133.92 709.83,-128.39 699.32,-127.07 700.79,-133.92"/>
</g>
<!-- Node0x55e882c27218 -->
<g id="node7" class="node">
<title>Node0x55e882c27218</title>
<ellipse fill="none" stroke="black" cx="444.39" cy="-41" rx="115.08" ry="18"/>
<text text-anchor="middle" x="444.39" y="-37.3" font-family="Times,serif" font-size="14.00">Node0x55e882c27218</text>
</g>
<!-- Node0x55e882c26eb8&#45;&gt;Node0x55e882c27218 -->
<g id="edge6" class="edge">
<title>Node0x55e882c26eb8&#45;&gt;Node0x55e882c27218</title>
<path fill="none" stroke="black" d="M444.39,-95.43C444.39,-87.67 444.39,-78.28 444.39,-69.56"/>
<polygon fill="black" stroke="black" points="447.89,-69.4 444.39,-59.4 440.89,-69.4 447.89,-69.4"/>
</g>
<!-- Node0x55e882c27770 -->
<g id="node5" class="node">
<title>Node0x55e882c27770</title>
<polygon fill="none" stroke="black" points="775.89,-168.5 775.89,-204.5 1096.89,-204.5 1096.89,-168.5 775.89,-168.5"/>
<text text-anchor="middle" x="936.39" y="-182.8" font-family="Times,serif" font-size="14.00">/usr/lib/gcc/x86_64&#45;linux&#45;gnu/9/crtbeginS.o</text>
</g>
<!-- Node0x55e882c27770&#45;&gt;Node0x55e882c26be8 -->
<g id="edge5" class="edge">
<title>Node0x55e882c27770&#45;&gt;Node0x55e882c26be8</title>
<path fill="none" stroke="black" d="M897.59,-168.49C874.45,-158.35 844.94,-145.42 820.6,-134.75"/>
<polygon fill="black" stroke="black" points="821.77,-131.44 811.21,-130.64 818.96,-137.86 821.77,-131.44"/>
</g>
<!-- Node0x55e882c271d0 -->
<g id="node6" class="node">
<title>Node0x55e882c271d0</title>
<ellipse fill="none" stroke="black" cx="1021.39" cy="-113.5" rx="115.08" ry="18"/>
<text text-anchor="middle" x="1021.39" y="-109.8" font-family="Times,serif" font-size="14.00">Node0x55e882c271d0</text>
</g>
<!-- Node0x55e882c27770&#45;&gt;Node0x55e882c271d0 -->
<g id="edge4" class="edge">
<title>Node0x55e882c27770&#45;&gt;Node0x55e882c271d0</title>
<path fill="none" stroke="black" d="M956.97,-168.31C967.9,-159.18 981.51,-147.81 993.4,-137.88"/>
<polygon fill="black" stroke="black" points="995.87,-140.38 1001.3,-131.28 991.38,-135.01 995.87,-140.38"/>
</g>
</g>
</svg>
