<?xml version="1.0" encoding="UTF-8" standalone="no"?>
<!DOCTYPE svg PUBLIC "-//W3C//DTD SVG 1.1//EN"
 "http://www.w3.org/Graphics/SVG/1.1/DTD/svg11.dtd">
<!-- Generated by graphviz version 2.43.0 (0)
 -->
<!-- Title: bin/llvm&#45;split Pages: 1 -->
<svg width="1268pt" height="571pt"
 viewBox="0.00 0.00 1268.00 571.01" xmlns="http://www.w3.org/2000/svg" xmlns:xlink="http://www.w3.org/1999/xlink">
<g id="graph0" class="graph" transform="scale(1 1) rotate(0) translate(4 567.01)">
<title>bin/llvm&#45;split</title>
<polygon fill="white" stroke="transparent" points="-4,4 -4,-567.01 1264,-567.01 1264,4 -4,4"/>
<text text-anchor="middle" x="630" y="-7.8" font-family="Times,serif" font-size="14.00">bin/llvm&#45;split</text>
<!-- Node0x555621f23328 -->
<g id="node1" class="node">
<title>Node0x555621f23328</title>
<polygon fill="none" stroke="black" points="439,-509.01 0,-509.01 0,-473.01 439,-473.01 439,-509.01"/>
<text text-anchor="middle" x="219.5" y="-487.31" font-family="Times,serif" font-size="14.00">{tools/llvm&#45;split/CMakeFiles/llvm&#45;split.dir/llvm&#45;split.cpp.o}</text>
</g>
<!-- Node0x555621f23288 -->
<g id="node2" class="node">
<title>Node0x555621f23288</title>
<polygon fill="#7fb2ff" stroke="black" points="712,-309.01 475,-309.01 475,-273.01 712,-273.01 712,-309.01"/>
<text text-anchor="middle" x="593.5" y="-287.31" font-family="Times,serif" font-size="14.00">{lib/libLLVMTransformUtils.a}</text>
</g>
<!-- Node0x555621f23328&#45;&gt;Node0x555621f23288 -->
<g id="edge1" class="edge">
<title>Node0x555621f23328&#45;&gt;Node0x555621f23288</title>
<path fill="none" stroke="black" d="M241.34,-472.78C282.83,-437.44 380,-359.46 475,-318.01 479.68,-315.97 484.53,-314.08 489.48,-312.31"/>
<polygon fill="black" stroke="black" points="490.73,-315.59 499.1,-309.09 488.5,-308.95 490.73,-315.59"/>
</g>
<!-- Node0x555621f23788 -->
<g id="node3" class="node">
<title>Node0x555621f23788</title>
<polygon fill="#7fb2ff" stroke="black" points="690.5,-201.01 496.5,-201.01 496.5,-165.01 690.5,-165.01 690.5,-201.01"/>
<text text-anchor="middle" x="593.5" y="-179.31" font-family="Times,serif" font-size="14.00">{lib/libLLVMBitWriter.a}</text>
</g>
<!-- Node0x555621f23328&#45;&gt;Node0x555621f23788 -->
<g id="edge2" class="edge">
<title>Node0x555621f23328&#45;&gt;Node0x555621f23788</title>
<path fill="none" stroke="black" d="M231.31,-472.75C262.25,-422.17 356.62,-279.43 475,-210.01 478.86,-207.75 482.9,-205.67 487.06,-203.77"/>
<polygon fill="black" stroke="black" points="488.46,-206.98 496.32,-199.88 485.75,-200.53 488.46,-206.98"/>
</g>
<!-- Node0x555621f21348 -->
<g id="node4" class="node">
<title>Node0x555621f21348</title>
<polygon fill="#7fb2ff" stroke="black" points="674.5,-363.01 512.5,-363.01 512.5,-327.01 674.5,-327.01 674.5,-363.01"/>
<text text-anchor="middle" x="593.5" y="-341.31" font-family="Times,serif" font-size="14.00">{lib/libLLVMCore.a}</text>
</g>
<!-- Node0x555621f23328&#45;&gt;Node0x555621f21348 -->
<g id="edge3" class="edge">
<title>Node0x555621f23328&#45;&gt;Node0x555621f21348</title>
<path fill="none" stroke="black" d="M266.49,-472.96C334.95,-446.09 463.48,-395.65 537.05,-366.77"/>
<polygon fill="black" stroke="black" points="538.59,-369.93 546.62,-363.02 536.03,-363.42 538.59,-369.93"/>
</g>
<!-- Node0x555621f21848 -->
<g id="node5" class="node">
<title>Node0x555621f21848</title>
<polygon fill="none" stroke="black" points="690.5,-509.01 496.5,-509.01 496.5,-473.01 690.5,-473.01 690.5,-509.01"/>
<text text-anchor="middle" x="593.5" y="-487.31" font-family="Times,serif" font-size="14.00">{lib/libLLVMIRReader.a}</text>
</g>
<!-- Node0x555621f23328&#45;&gt;Node0x555621f21848 -->
<g id="edge4" class="edge">
<title>Node0x555621f23328&#45;&gt;Node0x555621f21848</title>
<path fill="none" stroke="black" d="M439.05,-491.01C455.24,-491.01 471.09,-491.01 486.09,-491.01"/>
<polygon fill="black" stroke="black" points="486.33,-494.51 496.33,-491.01 486.33,-487.51 486.33,-494.51"/>
</g>
<!-- Node0x555621f21d48 -->
<g id="node6" class="node">
<title>Node0x555621f21d48</title>
<polygon fill="#7fb2ff" stroke="black" points="686.5,-255.01 500.5,-255.01 500.5,-219.01 686.5,-219.01 686.5,-255.01"/>
<text text-anchor="middle" x="593.5" y="-233.31" font-family="Times,serif" font-size="14.00">{lib/libLLVMSupport.a}</text>
</g>
<!-- Node0x555621f23328&#45;&gt;Node0x555621f21d48 -->
<g id="edge5" class="edge">
<title>Node0x555621f23328&#45;&gt;Node0x555621f21d48</title>
<path fill="none" stroke="black" d="M234.98,-472.95C270.76,-429.6 368.23,-319.2 475,-264.01 480.12,-261.36 485.5,-258.97 491.03,-256.82"/>
<polygon fill="black" stroke="black" points="492.23,-260.1 500.44,-253.4 489.84,-253.52 492.23,-260.1"/>
</g>
<!-- Node0x555621f23288&#45;&gt;Node0x555621f21348 -->
<g id="edge6" class="edge">
<title>Node0x555621f23288&#45;&gt;Node0x555621f21348</title>
<path fill="none" stroke="#7fb2ff" d="M672.81,-309.15C681.61,-313.23 684.34,-317.31 680.99,-321.38"/>
<polygon fill="#7fb2ff" stroke="#7fb2ff" points="679.03,-318.48 672.65,-326.94 682.91,-324.31 679.03,-318.48"/>
</g>
<!-- Node0x555621f23288&#45;&gt;Node0x555621f21d48 -->
<g id="edge7" class="edge">
<title>Node0x555621f23288&#45;&gt;Node0x555621f21d48</title>
<path fill="none" stroke="#7fb2ff" d="M655.86,-272.8C661.73,-269.31 664.11,-265.82 662.98,-262.32"/>
<polygon fill="#7fb2ff" stroke="#7fb2ff" points="665.31,-259.71 655.74,-255.15 660.38,-264.68 665.31,-259.71"/>
</g>
<!-- Node0x555621f22248 -->
<g id="node7" class="node">
<title>Node0x555621f22248</title>
<polygon fill="#7fb2ff" stroke="black" points="955.5,-363.01 767.5,-363.01 767.5,-327.01 955.5,-327.01 955.5,-363.01"/>
<text text-anchor="middle" x="861.5" y="-341.31" font-family="Times,serif" font-size="14.00">{lib/libLLVMAnalysis.a}</text>
</g>
<!-- Node0x555621f23288&#45;&gt;Node0x555621f22248 -->
<g id="edge8" class="edge">
<title>Node0x555621f23288&#45;&gt;Node0x555621f22248</title>
<path fill="none" stroke="#7fb2ff" d="M712.33,-308.22C738.84,-313.47 766.16,-319.24 790.01,-324.67"/>
<polygon fill="#7fb2ff" stroke="#7fb2ff" points="789.48,-328.13 800.01,-326.97 791.05,-321.31 789.48,-328.13"/>
</g>
<!-- Node0x555621f23788&#45;&gt;Node0x555621f21348 -->
<g id="edge9" class="edge">
<title>Node0x555621f23788&#45;&gt;Node0x555621f21348</title>
<path fill="none" stroke="#7fb2ff" d="M496.34,-189.52C482.76,-195 470.8,-203.39 463,-216.01 451.78,-234.16 451.78,-293.87 463,-312.01 471.99,-326.55 486.49,-335.48 502.63,-340.81"/>
<polygon fill="#7fb2ff" stroke="#7fb2ff" points="501.71,-344.19 512.29,-343.55 503.62,-337.45 501.71,-344.19"/>
</g>
<!-- Node0x555621f23788&#45;&gt;Node0x555621f21d48 -->
<g id="edge10" class="edge">
<title>Node0x555621f23788&#45;&gt;Node0x555621f21d48</title>
<path fill="none" stroke="#7fb2ff" d="M658.42,-201.15C664.76,-204.74 667.25,-208.32 665.89,-211.91"/>
<polygon fill="#7fb2ff" stroke="#7fb2ff" points="663.44,-209.41 658.54,-218.8 668.23,-214.52 663.44,-209.41"/>
</g>
<!-- Node0x555621f23788&#45;&gt;Node0x555621f22248 -->
<g id="edge11" class="edge">
<title>Node0x555621f23788&#45;&gt;Node0x555621f22248</title>
<path fill="none" stroke="#7fb2ff" d="M690.76,-197.52C698.35,-200.89 705.56,-205 712,-210.01 739.62,-231.48 723.87,-254.68 748,-280.01 764.59,-297.44 786.89,-311.63 807.25,-322.25"/>
<polygon fill="#7fb2ff" stroke="#7fb2ff" points="805.94,-325.51 816.45,-326.88 809.09,-319.26 805.94,-325.51"/>
</g>
<!-- Node0x555621f25308 -->
<g id="node8" class="node">
<title>Node0x555621f25308</title>
<polygon fill="#7fb2ff" stroke="black" points="949,-271.01 774,-271.01 774,-235.01 949,-235.01 949,-271.01"/>
<text text-anchor="middle" x="861.5" y="-249.31" font-family="Times,serif" font-size="14.00">{lib/libLLVMObject.a}</text>
</g>
<!-- Node0x555621f23788&#45;&gt;Node0x555621f25308 -->
<g id="edge12" class="edge">
<title>Node0x555621f23788&#45;&gt;Node0x555621f25308</title>
<path fill="none" stroke="#7fb2ff" d="M681.65,-201.06C691.96,-203.77 702.27,-206.77 712,-210.01 728.61,-215.55 731.42,-220.39 748,-226.01 754.39,-228.18 761.04,-230.24 767.77,-232.19"/>
<polygon fill="#7fb2ff" stroke="#7fb2ff" points="767.1,-235.64 777.67,-234.96 768.99,-228.9 767.1,-235.64"/>
</g>
<!-- Node0x555621f25d58 -->
<g id="node9" class="node">
<title>Node0x555621f25d58</title>
<polygon fill="#7fb2ff" stroke="black" points="938,-217.01 785,-217.01 785,-181.01 938,-181.01 938,-217.01"/>
<text text-anchor="middle" x="861.5" y="-195.31" font-family="Times,serif" font-size="14.00">{lib/libLLVMMC.a}</text>
</g>
<!-- Node0x555621f23788&#45;&gt;Node0x555621f25d58 -->
<g id="edge13" class="edge">
<title>Node0x555621f23788&#45;&gt;Node0x555621f25d58</title>
<path fill="none" stroke="#7fb2ff" d="M690.53,-188.79C717.98,-190.44 747.71,-192.23 774.51,-193.84"/>
<polygon fill="#7fb2ff" stroke="#7fb2ff" points="774.44,-197.34 784.63,-194.45 774.86,-190.35 774.44,-197.34"/>
</g>
<!-- Node0x555621f21348&#45;&gt;Node0x555621f23288 -->
<g id="edge16" class="edge">
<title>Node0x555621f21348&#45;&gt;Node0x555621f23288</title>
<path fill="none" stroke="#7fb2ff" d="M514.35,-326.94C505.67,-322.96 502.8,-318.97 505.74,-314.99"/>
<polygon fill="#7fb2ff" stroke="#7fb2ff" points="507.95,-317.71 514.19,-309.15 503.98,-311.95 507.95,-317.71"/>
</g>
<!-- Node0x555621f21348&#45;&gt;Node0x555621f23788 -->
<g id="edge17" class="edge">
<title>Node0x555621f21348&#45;&gt;Node0x555621f23788</title>
<path fill="none" stroke="#7fb2ff" d="M512.39,-343.14C487.95,-338.01 464.15,-327.29 451,-306.01 441.19,-290.13 441.19,-237.89 451,-222.01 459.41,-208.41 472.17,-199.12 486.67,-192.85"/>
<polygon fill="#7fb2ff" stroke="#7fb2ff" points="488.31,-195.97 496.42,-189.15 485.83,-189.42 488.31,-195.97"/>
</g>
<!-- Node0x555621f21348&#45;&gt;Node0x555621f21d48 -->
<g id="edge14" class="edge">
<title>Node0x555621f21348&#45;&gt;Node0x555621f21d48</title>
<path fill="none" stroke="#7fb2ff" d="M512.17,-343.31C490.05,-338.35 468.92,-328.3 457,-309.01 448.59,-295.4 448.59,-286.62 457,-273.01 464.96,-260.14 477.02,-251.38 490.74,-245.5"/>
<polygon fill="#7fb2ff" stroke="#7fb2ff" points="492.32,-248.65 500.47,-241.88 489.88,-242.09 492.32,-248.65"/>
</g>
<!-- Node0x555621f288c8 -->
<g id="node10" class="node">
<title>Node0x555621f288c8</title>
<polygon fill="none" stroke="black" points="975,-417.01 748,-417.01 748,-381.01 975,-381.01 975,-417.01"/>
<text text-anchor="middle" x="861.5" y="-395.31" font-family="Times,serif" font-size="14.00">{lib/libLLVMBinaryFormat.a}</text>
</g>
<!-- Node0x555621f21348&#45;&gt;Node0x555621f288c8 -->
<g id="edge15" class="edge">
<title>Node0x555621f21348&#45;&gt;Node0x555621f288c8</title>
<path fill="none" stroke="black" d="M674.67,-361.29C702.04,-366.84 732.97,-373.12 761.63,-378.94"/>
<polygon fill="black" stroke="black" points="761.17,-382.42 771.67,-380.98 762.56,-375.56 761.17,-382.42"/>
</g>
<!-- Node0x555621f27a18 -->
<g id="node11" class="node">
<title>Node0x555621f27a18</title>
<polygon fill="#7fb2ff" stroke="black" points="957,-125.01 766,-125.01 766,-89.01 957,-89.01 957,-125.01"/>
<text text-anchor="middle" x="861.5" y="-103.31" font-family="Times,serif" font-size="14.00">{lib/libLLVMRemarks.a}</text>
</g>
<!-- Node0x555621f21348&#45;&gt;Node0x555621f27a18 -->
<g id="edge18" class="edge">
<title>Node0x555621f21348&#45;&gt;Node0x555621f27a18</title>
<path fill="none" stroke="#7fb2ff" d="M674.52,-339.06C688.43,-334.77 701.71,-328.14 712,-318.01 759.63,-271.13 707.86,-225.45 748,-172.01 761.75,-153.71 782.27,-139.71 802.04,-129.47"/>
<polygon fill="#7fb2ff" stroke="#7fb2ff" points="803.62,-132.59 811.04,-125.03 800.52,-126.32 803.62,-132.59"/>
</g>
<!-- Node0x555621f21848&#45;&gt;Node0x555621f21348 -->
<g id="edge19" class="edge">
<title>Node0x555621f21848&#45;&gt;Node0x555621f21348</title>
<path fill="none" stroke="black" d="M593.5,-472.55C593.5,-439.54 593.5,-406.52 593.5,-373.51"/>
<polygon fill="black" stroke="black" points="597,-373.26 593.5,-363.26 590,-373.26 597,-373.26"/>
</g>
<!-- Node0x555621f21848&#45;&gt;Node0x555621f21d48 -->
<g id="edge20" class="edge">
<title>Node0x555621f21848&#45;&gt;Node0x555621f21d48</title>
<path fill="none" stroke="black" d="M562.4,-472.83C529.16,-451.39 478.37,-412.35 457,-363.01 441.1,-326.31 435.97,-307.04 457,-273.01 464.96,-260.14 477.02,-251.38 490.74,-245.5"/>
<polygon fill="black" stroke="black" points="492.32,-248.65 500.47,-241.88 489.88,-242.09 492.32,-248.65"/>
</g>
<!-- Node0x555621f24638 -->
<g id="node12" class="node">
<title>Node0x555621f24638</title>
<polygon fill="none" stroke="black" points="963.5,-509.01 759.5,-509.01 759.5,-473.01 963.5,-473.01 963.5,-509.01"/>
<text text-anchor="middle" x="861.5" y="-487.31" font-family="Times,serif" font-size="14.00">{lib/libLLVMAsmParser.a}</text>
</g>
<!-- Node0x555621f21848&#45;&gt;Node0x555621f24638 -->
<g id="edge21" class="edge">
<title>Node0x555621f21848&#45;&gt;Node0x555621f24638</title>
<path fill="none" stroke="black" d="M690.53,-491.01C709.54,-491.01 729.64,-491.01 749.11,-491.01"/>
<polygon fill="black" stroke="black" points="749.23,-494.51 759.23,-491.01 749.23,-487.51 749.23,-494.51"/>
</g>
<!-- Node0x555621f27d38 -->
<g id="node13" class="node">
<title>Node0x555621f27d38</title>
<polygon fill="none" stroke="black" points="961,-563.01 762,-563.01 762,-527.01 961,-527.01 961,-563.01"/>
<text text-anchor="middle" x="861.5" y="-541.31" font-family="Times,serif" font-size="14.00">{lib/libLLVMBitReader.a}</text>
</g>
<!-- Node0x555621f21848&#45;&gt;Node0x555621f27d38 -->
<g id="edge22" class="edge">
<title>Node0x555621f21848&#45;&gt;Node0x555621f27d38</title>
<path fill="none" stroke="black" d="M683.44,-509.07C708.51,-514.16 735.93,-519.72 761.54,-524.92"/>
<polygon fill="black" stroke="black" points="761.14,-528.41 771.64,-526.97 762.54,-521.55 761.14,-528.41"/>
</g>
<!-- Node0x555621f21d48&#45;&gt;Node0x555621f23288 -->
<g id="edge23" class="edge">
<title>Node0x555621f21d48&#45;&gt;Node0x555621f23288</title>
<path fill="none" stroke="#7fb2ff" d="M531.26,-255.15C525.34,-258.65 522.92,-262.14 524,-265.63"/>
<polygon fill="#7fb2ff" stroke="#7fb2ff" points="521.61,-268.19 531.14,-272.8 526.57,-263.25 521.61,-268.19"/>
</g>
<!-- Node0x555621f21d48&#45;&gt;Node0x555621f23788 -->
<g id="edge24" class="edge">
<title>Node0x555621f21d48&#45;&gt;Node0x555621f23788</title>
<path fill="none" stroke="#7fb2ff" d="M528.46,-218.8C522.17,-215.22 519.73,-211.63 521.14,-208.05"/>
<polygon fill="#7fb2ff" stroke="#7fb2ff" points="523.62,-210.52 528.58,-201.15 518.87,-205.38 523.62,-210.52"/>
</g>
<!-- Node0x555621f22248&#45;&gt;Node0x555621f23288 -->
<g id="edge27" class="edge">
<title>Node0x555621f22248&#45;&gt;Node0x555621f23288</title>
<path fill="none" stroke="#7fb2ff" d="M767.49,-332.6C733.78,-326.24 696.28,-318.48 664.84,-311.33"/>
<polygon fill="#7fb2ff" stroke="#7fb2ff" points="665.39,-307.86 654.86,-309.03 663.82,-314.68 665.39,-307.86"/>
</g>
<!-- Node0x555621f22248&#45;&gt;Node0x555621f21348 -->
<g id="edge25" class="edge">
<title>Node0x555621f22248&#45;&gt;Node0x555621f21348</title>
<path fill="none" stroke="#7fb2ff" d="M767.41,-345.01C740.59,-345.01 711.39,-345.01 684.74,-345.01"/>
<polygon fill="#7fb2ff" stroke="#7fb2ff" points="684.67,-341.51 674.67,-345.01 684.67,-348.51 684.67,-341.51"/>
</g>
<!-- Node0x555621f22248&#45;&gt;Node0x555621f21d48 -->
<g id="edge26" class="edge">
<title>Node0x555621f22248&#45;&gt;Node0x555621f21d48</title>
<path fill="none" stroke="#7fb2ff" d="M774.24,-326.98C764.96,-323.17 756,-318.57 748,-313.01 725.81,-297.6 734.58,-278.86 712,-264.01 707.01,-260.74 701.68,-257.85 696.14,-255.32"/>
<polygon fill="#7fb2ff" stroke="#7fb2ff" points="697.22,-251.98 686.65,-251.37 694.54,-258.44 697.22,-251.98"/>
</g>
<!-- Node0x555621f22248&#45;&gt;Node0x555621f25308 -->
<g id="edge28" class="edge">
<title>Node0x555621f22248&#45;&gt;Node0x555621f25308</title>
<path fill="none" stroke="#7fb2ff" d="M861.5,-326.88C861.5,-311.84 861.5,-296.8 861.5,-281.75"/>
<polygon fill="#7fb2ff" stroke="#7fb2ff" points="865,-281.34 861.5,-271.34 858,-281.34 865,-281.34"/>
</g>
<!-- Node0x555621f259e8 -->
<g id="node14" class="node">
<title>Node0x555621f259e8</title>
<polygon fill="#7fb2ff" stroke="black" points="1240,-363.01 1031,-363.01 1031,-327.01 1240,-327.01 1240,-363.01"/>
<text text-anchor="middle" x="1135.5" y="-341.31" font-family="Times,serif" font-size="14.00">{lib/libLLVMProfileData.a}</text>
</g>
<!-- Node0x555621f22248&#45;&gt;Node0x555621f259e8 -->
<g id="edge29" class="edge">
<title>Node0x555621f22248&#45;&gt;Node0x555621f259e8</title>
<path fill="none" stroke="#7fb2ff" d="M955.73,-345.01C976.57,-345.01 998.91,-345.01 1020.48,-345.01"/>
<polygon fill="#7fb2ff" stroke="#7fb2ff" points="1020.67,-348.51 1030.67,-345.01 1020.67,-341.51 1020.67,-348.51"/>
</g>
<!-- Node0x555621f25308&#45;&gt;Node0x555621f21348 -->
<g id="edge30" class="edge">
<title>Node0x555621f25308&#45;&gt;Node0x555621f21348</title>
<path fill="none" stroke="#7fb2ff" d="M824.33,-271.12C794.71,-285.39 751.41,-304.99 712,-318.01 703.15,-320.94 693.82,-323.66 684.45,-326.17"/>
<polygon fill="#7fb2ff" stroke="#7fb2ff" points="683.49,-322.8 674.69,-328.7 685.25,-329.58 683.49,-322.8"/>
</g>
<!-- Node0x555621f25308&#45;&gt;Node0x555621f21d48 -->
<g id="edge31" class="edge">
<title>Node0x555621f25308&#45;&gt;Node0x555621f21d48</title>
<path fill="none" stroke="#7fb2ff" d="M773.74,-247.79C749.17,-246.32 722.2,-244.69 696.81,-243.17"/>
<polygon fill="#7fb2ff" stroke="#7fb2ff" points="696.98,-239.67 686.79,-242.56 696.56,-246.66 696.98,-239.67"/>
</g>
<!-- Node0x555621f25308&#45;&gt;Node0x555621f25d58 -->
<g id="edge32" class="edge">
<title>Node0x555621f25308&#45;&gt;Node0x555621f25d58</title>
<path fill="none" stroke="#7fb2ff" d="M861.5,-234.8C861.5,-232.32 861.5,-229.84 861.5,-227.36"/>
<polygon fill="#7fb2ff" stroke="#7fb2ff" points="865,-227.15 861.5,-217.15 858,-227.15 865,-227.15"/>
</g>
<!-- Node0x555621f26208 -->
<g id="node15" class="node">
<title>Node0x555621f26208</title>
<polygon fill="#7fb2ff" stroke="black" points="1234.5,-217.01 1036.5,-217.01 1036.5,-181.01 1234.5,-181.01 1234.5,-217.01"/>
<text text-anchor="middle" x="1135.5" y="-195.31" font-family="Times,serif" font-size="14.00">{lib/libLLVMMCParser.a}</text>
</g>
<!-- Node0x555621f25308&#45;&gt;Node0x555621f26208 -->
<g id="edge33" class="edge">
<title>Node0x555621f25308&#45;&gt;Node0x555621f26208</title>
<path fill="none" stroke="#7fb2ff" d="M949.31,-235.78C976.17,-230.45 1006,-224.52 1033.72,-219.02"/>
<polygon fill="#7fb2ff" stroke="#7fb2ff" points="1034.7,-222.39 1043.83,-217.01 1033.34,-215.53 1034.7,-222.39"/>
</g>
<!-- Node0x555621f25d58&#45;&gt;Node0x555621f23288 -->
<g id="edge36" class="edge">
<title>Node0x555621f25d58&#45;&gt;Node0x555621f23288</title>
<path fill="none" stroke="#7fb2ff" d="M784.95,-210.77C772.12,-214.52 759.3,-219.48 748,-226.01 727.86,-237.65 732.2,-252.47 712,-264.01 708.95,-265.75 705.8,-267.38 702.58,-268.9"/>
<polygon fill="#7fb2ff" stroke="#7fb2ff" points="701.08,-265.74 693.29,-272.93 703.86,-272.16 701.08,-265.74"/>
</g>
<!-- Node0x555621f25d58&#45;&gt;Node0x555621f21d48 -->
<g id="edge34" class="edge">
<title>Node0x555621f25d58&#45;&gt;Node0x555621f21d48</title>
<path fill="none" stroke="#7fb2ff" d="M784.67,-209.85C757.4,-213.74 726.17,-218.2 697.01,-222.37"/>
<polygon fill="#7fb2ff" stroke="#7fb2ff" points="696.19,-218.95 686.79,-223.83 697.18,-225.88 696.19,-218.95"/>
</g>
<!-- Node0x555621f25d58&#45;&gt;Node0x555621f288c8 -->
<g id="edge35" class="edge">
<title>Node0x555621f25d58&#45;&gt;Node0x555621f288c8</title>
<path fill="none" stroke="black" d="M784.91,-201.12C762.98,-206 741.82,-215.88 730,-235.01 715.05,-259.21 715.05,-338.82 730,-363.01 732.84,-367.61 736.23,-371.68 740.03,-375.27"/>
<polygon fill="black" stroke="black" points="737.87,-378.02 747.84,-381.61 742.28,-372.59 737.87,-378.02"/>
</g>
<!-- Node0x555621f27a18&#45;&gt;Node0x555621f23788 -->
<g id="edge38" class="edge">
<title>Node0x555621f27a18&#45;&gt;Node0x555621f23788</title>
<path fill="none" stroke="#7fb2ff" d="M797.13,-125.01C781.1,-129.57 763.91,-134.47 748,-139.01 721.53,-146.57 692.49,-154.89 666.87,-162.24"/>
<polygon fill="#7fb2ff" stroke="#7fb2ff" points="665.87,-158.88 657.23,-165 667.8,-165.61 665.87,-158.88"/>
</g>
<!-- Node0x555621f27a18&#45;&gt;Node0x555621f21d48 -->
<g id="edge37" class="edge">
<title>Node0x555621f27a18&#45;&gt;Node0x555621f21d48</title>
<path fill="none" stroke="#7fb2ff" d="M770.45,-125.07C762.39,-128.87 754.74,-133.46 748,-139.01 720.7,-161.52 739.87,-188.22 712,-210.01 707.02,-213.91 701.59,-217.26 695.87,-220.14"/>
<polygon fill="#7fb2ff" stroke="#7fb2ff" points="694.34,-216.98 686.67,-224.29 697.23,-223.36 694.34,-216.98"/>
</g>
<!-- Node0x555621f27ec8 -->
<g id="node16" class="node">
<title>Node0x555621f27ec8</title>
<polygon fill="#7fb2ff" stroke="black" points="1260,-79.01 1011,-79.01 1011,-43.01 1260,-43.01 1260,-79.01"/>
<text text-anchor="middle" x="1135.5" y="-57.31" font-family="Times,serif" font-size="14.00">{lib/libLLVMBitstreamReader.a}</text>
</g>
<!-- Node0x555621f27a18&#45;&gt;Node0x555621f27ec8 -->
<g id="edge39" class="edge">
<title>Node0x555621f27a18&#45;&gt;Node0x555621f27ec8</title>
<path fill="none" stroke="#7fb2ff" d="M957.25,-90.99C976.88,-87.67 997.78,-84.13 1018.08,-80.7"/>
<polygon fill="#7fb2ff" stroke="#7fb2ff" points="1018.72,-84.14 1028,-79.02 1017.55,-77.24 1018.72,-84.14"/>
</g>
<!-- Node0x555621f24638&#45;&gt;Node0x555621f21348 -->
<g id="edge40" class="edge">
<title>Node0x555621f24638&#45;&gt;Node0x555621f21348</title>
<path fill="none" stroke="black" d="M782.86,-472.93C770.91,-469.02 758.93,-464.4 748,-459.01 699.56,-435.13 650.69,-395.56 621.5,-369.89"/>
<polygon fill="black" stroke="black" points="623.6,-367.07 613.81,-363.04 618.95,-372.3 623.6,-367.07"/>
</g>
<!-- Node0x555621f24638&#45;&gt;Node0x555621f21d48 -->
<g id="edge41" class="edge">
<title>Node0x555621f24638&#45;&gt;Node0x555621f21d48</title>
<path fill="none" stroke="black" d="M810.25,-472.89C788.02,-462.44 763.47,-447.11 748,-426.01 704.38,-366.54 763.97,-316.35 712,-264.01 707.14,-259.12 701.6,-255.04 695.61,-251.65"/>
<polygon fill="black" stroke="black" points="697.07,-248.47 686.56,-247.15 693.96,-254.73 697.07,-248.47"/>
</g>
<!-- Node0x555621f24638&#45;&gt;Node0x555621f288c8 -->
<g id="edge42" class="edge">
<title>Node0x555621f24638&#45;&gt;Node0x555621f288c8</title>
<path fill="none" stroke="black" d="M861.5,-472.88C861.5,-457.84 861.5,-442.8 861.5,-427.75"/>
<polygon fill="black" stroke="black" points="865,-427.34 861.5,-417.34 858,-427.34 865,-427.34"/>
</g>
<!-- Node0x555621f27d38&#45;&gt;Node0x555621f21348 -->
<g id="edge43" class="edge">
<title>Node0x555621f27d38&#45;&gt;Node0x555621f21348</title>
<path fill="none" stroke="black" d="M763.55,-526.97C758.09,-524.37 752.86,-521.4 748,-518.01 724.34,-501.51 730.22,-486.38 712,-464.01 683.87,-429.48 647.27,-393.61 622.44,-370.4"/>
<polygon fill="black" stroke="black" points="624.53,-367.56 614.82,-363.32 619.77,-372.69 624.53,-367.56"/>
</g>
<!-- Node0x555621f27d38&#45;&gt;Node0x555621f21d48 -->
<g id="edge44" class="edge">
<title>Node0x555621f27d38&#45;&gt;Node0x555621f21d48</title>
<path fill="none" stroke="black" d="M761.75,-529.46C756.7,-526.25 752.05,-522.47 748,-518.01 671.29,-433.66 789.12,-347.99 712,-264.01 707.24,-258.83 701.71,-254.55 695.69,-251.01"/>
<polygon fill="black" stroke="black" points="697.05,-247.78 686.55,-246.35 693.87,-254.01 697.05,-247.78"/>
</g>
<!-- Node0x555621f27d38&#45;&gt;Node0x555621f27ec8 -->
<g id="edge45" class="edge">
<title>Node0x555621f27d38&#45;&gt;Node0x555621f27ec8</title>
<path fill="none" stroke="black" d="M961.19,-529.8C966.29,-526.51 970.96,-522.62 975,-518.01 1025.94,-459.87 975.91,-240.89 1011,-172.01 1029.86,-135 1066.61,-104.49 1095.14,-84.88"/>
<polygon fill="black" stroke="black" points="1097.34,-87.62 1103.71,-79.15 1093.45,-81.81 1097.34,-87.62"/>
</g>
<!-- Node0x555621f259e8&#45;&gt;Node0x555621f21348 -->
<g id="edge46" class="edge">
<title>Node0x555621f259e8&#45;&gt;Node0x555621f21348</title>
<path fill="none" stroke="#7fb2ff" d="M1108.63,-363.02C1078.26,-382.96 1025.59,-413.9 975,-426.01 876.88,-449.5 845.93,-450.27 748,-426.01 703.54,-415 657.77,-388.51 627.91,-368.81"/>
<polygon fill="#7fb2ff" stroke="#7fb2ff" points="629.8,-365.86 619.55,-363.19 625.9,-371.67 629.8,-365.86"/>
</g>
<!-- Node0x555621f259e8&#45;&gt;Node0x555621f21d48 -->
<g id="edge47" class="edge">
<title>Node0x555621f259e8&#45;&gt;Node0x555621f21d48</title>
<path fill="none" stroke="#7fb2ff" d="M1030.69,-327.41C1012.14,-324.28 993,-321.04 975,-318.01 874.13,-301.03 845.96,-309.46 748,-280.01 731.23,-274.97 728.61,-269.55 712,-264.01 705.46,-261.83 698.66,-259.77 691.78,-257.82"/>
<polygon fill="#7fb2ff" stroke="#7fb2ff" points="692.22,-254.31 681.65,-255.06 690.38,-261.06 692.22,-254.31"/>
</g>
<!-- Node0x555621f26208&#45;&gt;Node0x555621f21d48 -->
<g id="edge48" class="edge">
<title>Node0x555621f26208&#45;&gt;Node0x555621f21d48</title>
<path fill="none" stroke="#7fb2ff" d="M1082.9,-180.93C1006.33,-157.23 859.69,-123.97 748,-172.01 726.63,-181.21 732.2,-198.47 712,-210.01 706.94,-212.91 701.58,-215.49 696.06,-217.8"/>
<polygon fill="#7fb2ff" stroke="#7fb2ff" points="694.71,-214.57 686.63,-221.42 697.22,-221.1 694.71,-214.57"/>
</g>
<!-- Node0x555621f26208&#45;&gt;Node0x555621f25d58 -->
<g id="edge49" class="edge">
<title>Node0x555621f26208&#45;&gt;Node0x555621f25d58</title>
<path fill="none" stroke="#7fb2ff" d="M1036.48,-199.01C1007.68,-199.01 976.4,-199.01 948.42,-199.01"/>
<polygon fill="#7fb2ff" stroke="#7fb2ff" points="948.27,-195.51 938.27,-199.01 948.27,-202.51 948.27,-195.51"/>
</g>
<!-- Node0x555621f27ec8&#45;&gt;Node0x555621f23788 -->
<g id="edge50" class="edge">
<title>Node0x555621f27ec8&#45;&gt;Node0x555621f23788</title>
<path fill="none" stroke="#7fb2ff" d="M1066.28,-43.01C986.96,-25.54 853.47,-7.01 748,-47.01 690.24,-68.92 640.27,-123.6 614.06,-156.57"/>
<polygon fill="#7fb2ff" stroke="#7fb2ff" points="610.99,-154.81 607.61,-164.85 616.52,-159.11 610.99,-154.81"/>
</g>
<!-- Node0x555621f27ec8&#45;&gt;Node0x555621f21d48 -->
<g id="edge51" class="edge">
<title>Node0x555621f27ec8&#45;&gt;Node0x555621f21d48</title>
<path fill="none" stroke="#7fb2ff" d="M1010.82,-51.9C913.27,-47.42 787.34,-48.53 748,-80.01 701.19,-117.47 755.32,-168.57 712,-210.01 707.24,-214.57 701.87,-218.42 696.11,-221.65"/>
<polygon fill="#7fb2ff" stroke="#7fb2ff" points="694.2,-218.69 686.78,-226.26 697.3,-224.97 694.2,-218.69"/>
</g>
</g>
</svg>
