<?xml version="1.0" encoding="UTF-8" standalone="no"?>
<!DOCTYPE svg PUBLIC "-//W3C//DTD SVG 1.1//EN"
 "http://www.w3.org/Graphics/SVG/1.1/DTD/svg11.dtd">
<!-- Generated by graphviz version 2.43.0 (0)
 -->
<!-- Title: bin/llvm&#45;lto_lib/libLLVMGlobalISel.a Pages: 1 -->
<svg width="2535pt" height="901pt"
 viewBox="0.00 0.00 2535.00 901.37" xmlns="http://www.w3.org/2000/svg" xmlns:xlink="http://www.w3.org/1999/xlink">
<g id="graph0" class="graph" transform="scale(1 1) rotate(0) translate(4 897.37)">
<title>bin/llvm&#45;lto_lib/libLLVMGlobalISel.a</title>
<polygon fill="white" stroke="transparent" points="-4,4 -4,-897.37 2531,-897.37 2531,4 -4,4"/>
<text text-anchor="middle" x="1263.5" y="-7.8" font-family="Times,serif" font-size="14.00">bin/llvm&#45;lto_lib/libLLVMGlobalISel.a</text>
<!-- Node0x55ec3a1562b8 -->
<g id="node1" class="node">
<title>Node0x55ec3a1562b8</title>
<polygon fill="none" stroke="black" points="1210.5,-347.12 860.5,-347.12 860.5,-311.12 1210.5,-311.12 1210.5,-347.12"/>
<text text-anchor="middle" x="1035.5" y="-325.42" font-family="Times,serif" font-size="14.00">{lib/libLLVMGlobalISel.a(CallLowering.cpp.o)}</text>
</g>
<!-- Node0x55ec3a14f738 -->
<g id="node2" class="node">
<title>Node0x55ec3a14f738</title>
<polygon fill="none" stroke="black" points="1670.5,-546.12 1287.5,-546.12 1287.5,-510.12 1670.5,-510.12 1670.5,-546.12"/>
<text text-anchor="middle" x="1479" y="-524.42" font-family="Times,serif" font-size="14.00">{lib/libLLVMGlobalISel.a(MachineIRBuilder.cpp.o)}</text>
</g>
<!-- Node0x55ec3a1562b8&#45;&gt;Node0x55ec3a14f738 -->
<g id="edge1" class="edge">
<title>Node0x55ec3a1562b8&#45;&gt;Node0x55ec3a14f738</title>
<path fill="none" stroke="black" d="M1093.35,-347.15C1132.8,-360.22 1186.28,-379.06 1232,-399.12 1306.68,-431.88 1390.04,-477.65 1438.02,-504.95"/>
<polygon fill="black" stroke="black" points="1436.43,-508.07 1446.85,-509.98 1439.9,-501.99 1436.43,-508.07"/>
</g>
<!-- Node0x55ec3a164ae8 -->
<g id="node3" class="node">
<title>Node0x55ec3a164ae8</title>
<polygon fill="none" stroke="black" points="1624,-370.12 1334,-370.12 1334,-334.12 1624,-334.12 1624,-370.12"/>
<text text-anchor="middle" x="1479" y="-348.42" font-family="Times,serif" font-size="14.00">{lib/libLLVMGlobalISel.a(Utils.cpp.o)}</text>
</g>
<!-- Node0x55ec3a1562b8&#45;&gt;Node0x55ec3a164ae8 -->
<g id="edge2" class="edge">
<title>Node0x55ec3a1562b8&#45;&gt;Node0x55ec3a164ae8</title>
<path fill="none" stroke="black" d="M1210.68,-338.2C1247.93,-340.14 1287.04,-342.17 1323.49,-344.07"/>
<polygon fill="black" stroke="black" points="1323.53,-347.58 1333.7,-344.6 1323.9,-340.59 1323.53,-347.58"/>
</g>
<!-- Node0x55ec3a14f738&#45;&gt;Node0x55ec3a164ae8 -->
<g id="edge3" class="edge">
<title>Node0x55ec3a14f738&#45;&gt;Node0x55ec3a164ae8</title>
<path fill="none" stroke="black" d="M1479,-509.94C1479,-466.77 1479,-423.6 1479,-380.43"/>
<polygon fill="black" stroke="black" points="1482.5,-380.34 1479,-370.34 1475.5,-380.34 1482.5,-380.34"/>
</g>
<!-- Node0x55ec3a168148 -->
<g id="node4" class="node">
<title>Node0x55ec3a168148</title>
<polygon fill="none" stroke="black" points="2139,-370.12 1726,-370.12 1726,-334.12 2139,-334.12 2139,-370.12"/>
<text text-anchor="middle" x="1932.5" y="-348.42" font-family="Times,serif" font-size="14.00">{lib/libLLVMGlobalISel.a(GISelChangeObserver.cpp.o)}</text>
</g>
<!-- Node0x55ec3a164ae8&#45;&gt;Node0x55ec3a168148 -->
<g id="edge4" class="edge">
<title>Node0x55ec3a164ae8&#45;&gt;Node0x55ec3a168148</title>
<path fill="none" stroke="black" d="M1624.1,-352.12C1653.32,-352.12 1684.66,-352.12 1715.74,-352.12"/>
<polygon fill="black" stroke="black" points="1715.82,-355.62 1725.82,-352.12 1715.82,-348.62 1715.82,-355.62"/>
</g>
<!-- Node0x55ec3a1656c8 -->
<g id="node5" class="node">
<title>Node0x55ec3a1656c8</title>
<polygon fill="none" stroke="black" points="2122.5,-554.12 1742.5,-554.12 1742.5,-518.12 2122.5,-518.12 2122.5,-554.12"/>
<text text-anchor="middle" x="1932.5" y="-532.42" font-family="Times,serif" font-size="14.00">{lib/libLLVMGlobalISel.a(RegisterBankInfo.cpp.o)}</text>
</g>
<!-- Node0x55ec3a164ae8&#45;&gt;Node0x55ec3a1656c8 -->
<g id="edge5" class="edge">
<title>Node0x55ec3a164ae8&#45;&gt;Node0x55ec3a1656c8</title>
<path fill="none" stroke="black" d="M1524.53,-370.27C1608.03,-404.3 1787.8,-477.56 1877.83,-514.25"/>
<polygon fill="black" stroke="black" points="1876.72,-517.58 1887.31,-518.11 1879.37,-511.1 1876.72,-517.58"/>
</g>
<!-- Node0x55ec3a1659e8 -->
<g id="node9" class="node">
<title>Node0x55ec3a1659e8</title>
<polygon fill="none" stroke="black" points="2527,-554.12 2175,-554.12 2175,-518.12 2527,-518.12 2527,-554.12"/>
<text text-anchor="middle" x="2351" y="-532.42" font-family="Times,serif" font-size="14.00">{lib/libLLVMGlobalISel.a(RegisterBank.cpp.o)}</text>
</g>
<!-- Node0x55ec3a1656c8&#45;&gt;Node0x55ec3a1659e8 -->
<g id="edge6" class="edge">
<title>Node0x55ec3a1656c8&#45;&gt;Node0x55ec3a1659e8</title>
<path fill="none" stroke="black" d="M2122.56,-536.12C2136.57,-536.12 2150.71,-536.12 2164.7,-536.12"/>
<polygon fill="black" stroke="black" points="2164.87,-539.62 2174.87,-536.12 2164.87,-532.62 2164.87,-539.62"/>
</g>
<!-- Node0x55ec3a152b18 -->
<g id="node6" class="node">
<title>Node0x55ec3a152b18</title>
<polygon fill="none" stroke="black" points="389,-443.12 0,-443.12 0,-407.12 389,-407.12 389,-443.12"/>
<text text-anchor="middle" x="194.5" y="-421.42" font-family="Times,serif" font-size="14.00">{lib/libLLVMGlobalISel.a(LegalityPredicates.cpp.o)}</text>
</g>
<!-- Node0x55ec3a151fd8 -->
<g id="node7" class="node">
<title>Node0x55ec3a151fd8</title>
<polygon fill="none" stroke="black" points="388,-497.12 1,-497.12 1,-461.12 388,-461.12 388,-497.12"/>
<text text-anchor="middle" x="194.5" y="-475.42" font-family="Times,serif" font-size="14.00">{lib/libLLVMGlobalISel.a(LegalizeMutations.cpp.o)}</text>
</g>
<!-- Node0x55ec3a150a48 -->
<g id="node8" class="node">
<title>Node0x55ec3a150a48</title>
<polygon fill="none" stroke="black" points="1653.5,-759.12 1304.5,-759.12 1304.5,-723.12 1653.5,-723.12 1653.5,-759.12"/>
<text text-anchor="middle" x="1479" y="-737.42" font-family="Times,serif" font-size="14.00">{lib/libLLVMGlobalISel.a(LegalizerInfo.cpp.o)}</text>
</g>
<!-- Node0x55ec3a152348 -->
<g id="node10" class="node">
<title>Node0x55ec3a152348</title>
<polygon fill="none" stroke="black" points="1231.5,-163.12 839.5,-163.12 839.5,-127.12 1231.5,-127.12 1231.5,-163.12"/>
<text text-anchor="middle" x="1035.5" y="-141.42" font-family="Times,serif" font-size="14.00">{lib/libLLVMGlobalISel.a(InstructionSelector.cpp.o)}</text>
</g>
<!-- Node0x55ec3a152348&#45;&gt;Node0x55ec3a164ae8 -->
<g id="edge7" class="edge">
<title>Node0x55ec3a152348&#45;&gt;Node0x55ec3a164ae8</title>
<path fill="none" stroke="black" d="M1206.11,-163.18C1214.98,-165.78 1223.66,-168.75 1232,-172.12 1322.98,-208.93 1411.25,-286.88 1452.98,-327.04"/>
<polygon fill="black" stroke="black" points="1450.61,-329.62 1460.22,-334.08 1455.49,-324.6 1450.61,-329.62"/>
</g>
<!-- Node0x55ec3a155638 -->
<g id="node11" class="node">
<title>Node0x55ec3a155638</title>
<polygon fill="none" stroke="black" points="1192.5,-531.12 878.5,-531.12 878.5,-495.12 1192.5,-495.12 1192.5,-531.12"/>
<text text-anchor="middle" x="1035.5" y="-509.42" font-family="Times,serif" font-size="14.00">{lib/libLLVMGlobalISel.a(CSEInfo.cpp.o)}</text>
</g>
<!-- Node0x55ec3a156538 -->
<g id="node12" class="node">
<title>Node0x55ec3a156538</title>
<polygon fill="none" stroke="black" points="359,-389.12 30,-389.12 30,-353.12 359,-353.12 359,-389.12"/>
<text text-anchor="middle" x="194.5" y="-367.42" font-family="Times,serif" font-size="14.00">{lib/libLLVMGlobalISel.a(GlobalISel.cpp.o)}</text>
</g>
<!-- Node0x55ec3a157208 -->
<g id="node13" class="node">
<title>Node0x55ec3a157208</title>
<polygon fill="none" stroke="black" points="786,-389.12 442,-389.12 442,-353.12 786,-353.12 786,-389.12"/>
<text text-anchor="middle" x="614" y="-367.42" font-family="Times,serif" font-size="14.00">{lib/libLLVMGlobalISel.a(IRTranslator.cpp.o)}</text>
</g>
<!-- Node0x55ec3a156538&#45;&gt;Node0x55ec3a157208 -->
<g id="edge8" class="edge">
<title>Node0x55ec3a156538&#45;&gt;Node0x55ec3a157208</title>
<path fill="none" stroke="black" d="M359.01,-371.12C382.81,-371.12 407.43,-371.12 431.56,-371.12"/>
<polygon fill="black" stroke="black" points="431.87,-374.62 441.87,-371.12 431.87,-367.62 431.87,-374.62"/>
</g>
<!-- Node0x55ec3a1685a8 -->
<g id="node14" class="node">
<title>Node0x55ec3a1685a8</title>
<polygon fill="none" stroke="black" points="803,-263.12 425,-263.12 425,-227.12 803,-227.12 803,-263.12"/>
<text text-anchor="middle" x="614" y="-241.42" font-family="Times,serif" font-size="14.00">{lib/libLLVMGlobalISel.a(InstructionSelect.cpp.o)}</text>
</g>
<!-- Node0x55ec3a156538&#45;&gt;Node0x55ec3a1685a8 -->
<g id="edge9" class="edge">
<title>Node0x55ec3a156538&#45;&gt;Node0x55ec3a1685a8</title>
<path fill="none" stroke="black" d="M255.32,-353.07C331.43,-330.1 462.66,-290.5 543.24,-266.18"/>
<polygon fill="black" stroke="black" points="544.73,-269.38 553.29,-263.14 542.71,-262.68 544.73,-269.38"/>
</g>
<!-- Node0x55ec3a151358 -->
<g id="node15" class="node">
<title>Node0x55ec3a151358</title>
<polygon fill="none" stroke="black" points="774,-728.12 454,-728.12 454,-692.12 774,-692.12 774,-728.12"/>
<text text-anchor="middle" x="614" y="-706.42" font-family="Times,serif" font-size="14.00">{lib/libLLVMGlobalISel.a(Legalizer.cpp.o)}</text>
</g>
<!-- Node0x55ec3a156538&#45;&gt;Node0x55ec3a151358 -->
<g id="edge10" class="edge">
<title>Node0x55ec3a156538&#45;&gt;Node0x55ec3a151358</title>
<path fill="none" stroke="black" d="M359.36,-377.65C370.25,-382.83 380.32,-389.54 389,-398.12 465.08,-473.33 358.32,-552.47 425,-636.12 444.93,-661.12 474.49,-677.7 504.31,-688.68"/>
<polygon fill="black" stroke="black" points="503.39,-692.07 513.98,-692.06 505.69,-685.46 503.39,-692.07"/>
</g>
<!-- Node0x55ec3a14fe68 -->
<g id="node16" class="node">
<title>Node0x55ec3a14fe68</title>
<polygon fill="none" stroke="black" points="773,-144.12 455,-144.12 455,-108.12 773,-108.12 773,-144.12"/>
<text text-anchor="middle" x="614" y="-122.42" font-family="Times,serif" font-size="14.00">{lib/libLLVMGlobalISel.a(Localizer.cpp.o)}</text>
</g>
<!-- Node0x55ec3a156538&#45;&gt;Node0x55ec3a14fe68 -->
<g id="edge11" class="edge">
<title>Node0x55ec3a156538&#45;&gt;Node0x55ec3a14fe68</title>
<path fill="none" stroke="black" d="M220.27,-353.01C261.62,-323.16 347.77,-262.5 425,-218.12 470.46,-192 524.39,-166.1 562.8,-148.47"/>
<polygon fill="black" stroke="black" points="564.58,-151.51 572.22,-144.17 561.67,-145.14 564.58,-151.51"/>
</g>
<!-- Node0x55ec3a14efb8 -->
<g id="node17" class="node">
<title>Node0x55ec3a14efb8</title>
<polygon fill="none" stroke="black" points="1217,-661.12 854,-661.12 854,-625.12 1217,-625.12 1217,-661.12"/>
<text text-anchor="middle" x="1035.5" y="-639.42" font-family="Times,serif" font-size="14.00">{lib/libLLVMGlobalISel.a(RegBankSelect.cpp.o)}</text>
</g>
<!-- Node0x55ec3a156538&#45;&gt;Node0x55ec3a14efb8 -->
<g id="edge12" class="edge">
<title>Node0x55ec3a156538&#45;&gt;Node0x55ec3a14efb8</title>
<path fill="none" stroke="black" d="M359.37,-379.03C370.12,-383.94 380.16,-390.2 389,-398.12 437.49,-441.57 377.14,-495.98 425,-540.12 538.52,-644.81 717,-664.35 851.54,-661.39"/>
<polygon fill="black" stroke="black" points="851.65,-664.89 861.56,-661.13 851.47,-657.89 851.65,-664.89"/>
</g>
<!-- Node0x55ec3a157208&#45;&gt;Node0x55ec3a1562b8 -->
<g id="edge14" class="edge">
<title>Node0x55ec3a157208&#45;&gt;Node0x55ec3a1562b8</title>
<path fill="none" stroke="black" d="M786.23,-353.98C807.35,-351.86 829.02,-349.7 850.32,-347.56"/>
<polygon fill="black" stroke="black" points="850.81,-351.03 860.41,-346.55 850.12,-344.07 850.81,-351.03"/>
</g>
<!-- Node0x55ec3a157208&#45;&gt;Node0x55ec3a14f738 -->
<g id="edge17" class="edge">
<title>Node0x55ec3a157208&#45;&gt;Node0x55ec3a14f738</title>
<path fill="none" stroke="black" d="M786.32,-375.52C911.31,-381.75 1084.02,-396.64 1232,-432.12 1304.1,-449.41 1383.27,-483.16 1431.81,-505.68"/>
<polygon fill="black" stroke="black" points="1430.56,-508.96 1441.1,-510.03 1433.53,-502.62 1430.56,-508.96"/>
</g>
<!-- Node0x55ec3a157208&#45;&gt;Node0x55ec3a164ae8 -->
<g id="edge18" class="edge">
<title>Node0x55ec3a157208&#45;&gt;Node0x55ec3a164ae8</title>
<path fill="none" stroke="black" d="M659.55,-353.06C704.11,-336.04 775.02,-311.75 839,-302.12 1011.72,-276.12 1058.21,-284.64 1232,-302.12 1288.17,-307.77 1350.48,-320.51 1398.34,-331.71"/>
<polygon fill="black" stroke="black" points="1397.78,-335.18 1408.32,-334.07 1399.4,-328.36 1397.78,-335.18"/>
</g>
<!-- Node0x55ec3a157208&#45;&gt;Node0x55ec3a168148 -->
<g id="edge15" class="edge">
<title>Node0x55ec3a157208&#45;&gt;Node0x55ec3a168148</title>
<path fill="none" stroke="black" d="M678.17,-353.09C719.68,-338.02 771.87,-312.4 803,-272.12 845.98,-216.5 783.93,-161.8 839,-118.12 1177.64,150.49 1754.51,-225.82 1898.29,-327.83"/>
<polygon fill="black" stroke="black" points="1896.58,-330.91 1906.75,-333.87 1900.64,-325.21 1896.58,-330.91"/>
</g>
<!-- Node0x55ec3a157208&#45;&gt;Node0x55ec3a155638 -->
<g id="edge13" class="edge">
<title>Node0x55ec3a157208&#45;&gt;Node0x55ec3a155638</title>
<path fill="none" stroke="black" d="M642.66,-389.25C683.71,-415.2 763.96,-462.44 839,-486.12 848.5,-489.12 858.36,-491.78 868.37,-494.15"/>
<polygon fill="black" stroke="black" points="867.91,-497.64 878.44,-496.43 869.45,-490.81 867.91,-497.64"/>
</g>
<!-- Node0x55ec3a168828 -->
<g id="node18" class="node">
<title>Node0x55ec3a168828</title>
<polygon fill="none" stroke="black" points="1232,-477.12 839,-477.12 839,-441.12 1232,-441.12 1232,-477.12"/>
<text text-anchor="middle" x="1035.5" y="-455.42" font-family="Times,serif" font-size="14.00">{lib/libLLVMGlobalISel.a(InlineAsmLowering.cpp.o)}</text>
</g>
<!-- Node0x55ec3a157208&#45;&gt;Node0x55ec3a168828 -->
<g id="edge16" class="edge">
<title>Node0x55ec3a157208&#45;&gt;Node0x55ec3a168828</title>
<path fill="none" stroke="black" d="M681.32,-389.23C725.73,-400.98 785.61,-416.1 839,-427.12 860.1,-431.48 882.59,-435.62 904.51,-439.39"/>
<polygon fill="black" stroke="black" points="904.09,-442.87 914.54,-441.1 905.27,-435.97 904.09,-442.87"/>
</g>
<!-- Node0x55ec3a1685a8&#45;&gt;Node0x55ec3a164ae8 -->
<g id="edge20" class="edge">
<title>Node0x55ec3a1685a8&#45;&gt;Node0x55ec3a164ae8</title>
<path fill="none" stroke="black" d="M803.18,-245.83C926.02,-248.89 1089.45,-257.86 1232,-282.12 1296.43,-293.09 1368.09,-314.58 1417.37,-330.88"/>
<polygon fill="black" stroke="black" points="1416.33,-334.22 1426.92,-334.06 1418.54,-327.58 1416.33,-334.22"/>
</g>
<!-- Node0x55ec3a1531f8 -->
<g id="node19" class="node">
<title>Node0x55ec3a1531f8</title>
<polygon fill="none" stroke="black" points="1221,-217.12 850,-217.12 850,-181.12 1221,-181.12 1221,-217.12"/>
<text text-anchor="middle" x="1035.5" y="-195.42" font-family="Times,serif" font-size="14.00">{lib/libLLVMGlobalISel.a(GISelKnownBits.cpp.o)}</text>
</g>
<!-- Node0x55ec3a1685a8&#45;&gt;Node0x55ec3a1531f8 -->
<g id="edge19" class="edge">
<title>Node0x55ec3a1685a8&#45;&gt;Node0x55ec3a1531f8</title>
<path fill="none" stroke="black" d="M779.29,-227.11C805.77,-224.2 833.26,-221.19 859.96,-218.26"/>
<polygon fill="black" stroke="black" points="860.6,-221.71 870.16,-217.14 859.83,-214.75 860.6,-221.71"/>
</g>
<!-- Node0x55ec3a151358&#45;&gt;Node0x55ec3a14f738 -->
<g id="edge26" class="edge">
<title>Node0x55ec3a151358&#45;&gt;Node0x55ec3a14f738</title>
<path fill="none" stroke="black" d="M774.11,-708C927.97,-704.48 1149.56,-695.1 1232,-670.12 1316.24,-644.6 1402.6,-585.64 1447.17,-552.27"/>
<polygon fill="black" stroke="black" points="1449.4,-554.98 1455.26,-546.15 1445.17,-549.4 1449.4,-554.98"/>
</g>
<!-- Node0x55ec3a151358&#45;&gt;Node0x55ec3a164ae8 -->
<g id="edge27" class="edge">
<title>Node0x55ec3a151358&#45;&gt;Node0x55ec3a164ae8</title>
<path fill="none" stroke="black" d="M651.39,-692.09C695.02,-671.13 770.79,-636.79 839,-616.12 1009.26,-564.54 1076.58,-626.69 1232,-540.12 1252.61,-528.64 1250.28,-516.7 1268,-501.12 1324.06,-451.83 1396.34,-403.44 1439.83,-375.76"/>
<polygon fill="black" stroke="black" points="1441.81,-378.64 1448.39,-370.33 1438.07,-372.73 1441.81,-378.64"/>
</g>
<!-- Node0x55ec3a151358&#45;&gt;Node0x55ec3a168148 -->
<g id="edge22" class="edge">
<title>Node0x55ec3a151358&#45;&gt;Node0x55ec3a168148</title>
<path fill="none" stroke="black" d="M645.61,-728.17C687.58,-751.87 766.14,-792.54 839,-810.12 1022.9,-854.49 1549.04,-959.29 1690,-833.12 1743.98,-784.81 1690.35,-572.19 1726,-509.12 1761.6,-446.15 1833.79,-400.26 1882.41,-374.89"/>
<polygon fill="black" stroke="black" points="1884.19,-377.91 1891.5,-370.24 1881,-371.67 1884.19,-377.91"/>
</g>
<!-- Node0x55ec3a151358&#45;&gt;Node0x55ec3a150a48 -->
<g id="edge24" class="edge">
<title>Node0x55ec3a151358&#45;&gt;Node0x55ec3a150a48</title>
<path fill="none" stroke="black" d="M675.66,-728.17C720.36,-740.48 782.88,-755.69 839,-762.12 998.2,-780.36 1181.05,-771.35 1310.26,-760.02"/>
<polygon fill="black" stroke="black" points="1310.59,-763.51 1320.24,-759.13 1309.97,-756.53 1310.59,-763.51"/>
</g>
<!-- Node0x55ec3a151358&#45;&gt;Node0x55ec3a155638 -->
<g id="edge21" class="edge">
<title>Node0x55ec3a151358&#45;&gt;Node0x55ec3a155638</title>
<path fill="none" stroke="black" d="M633.13,-691.91C668.97,-657.1 752.86,-581.39 839,-545.12 849.24,-540.81 860,-537.08 870.99,-533.85"/>
<polygon fill="black" stroke="black" points="872.02,-537.2 880.71,-531.14 870.14,-530.46 872.02,-537.2"/>
</g>
<!-- Node0x55ec3a1517b8 -->
<g id="node20" class="node">
<title>Node0x55ec3a1517b8</title>
<polygon fill="none" stroke="black" points="1219.5,-753.12 851.5,-753.12 851.5,-717.12 1219.5,-717.12 1219.5,-753.12"/>
<text text-anchor="middle" x="1035.5" y="-731.42" font-family="Times,serif" font-size="14.00">{lib/libLLVMGlobalISel.a(LegalizerHelper.cpp.o)}</text>
</g>
<!-- Node0x55ec3a151358&#45;&gt;Node0x55ec3a1517b8 -->
<g id="edge23" class="edge">
<title>Node0x55ec3a151358&#45;&gt;Node0x55ec3a1517b8</title>
<path fill="none" stroke="black" d="M774.19,-719.61C796,-720.91 818.59,-722.25 840.92,-723.59"/>
<polygon fill="black" stroke="black" points="840.98,-727.1 851.17,-724.2 841.39,-720.11 840.98,-727.1"/>
</g>
<!-- Node0x55ec3a14f6e8 -->
<g id="node21" class="node">
<title>Node0x55ec3a14f6e8</title>
<polygon fill="none" stroke="black" points="1690,-824.12 1268,-824.12 1268,-788.12 1690,-788.12 1690,-824.12"/>
<text text-anchor="middle" x="1479" y="-802.42" font-family="Times,serif" font-size="14.00">{lib/libLLVMGlobalISel.a(LostDebugLocObserver.cpp.o)}</text>
</g>
<!-- Node0x55ec3a151358&#45;&gt;Node0x55ec3a14f6e8 -->
<g id="edge25" class="edge">
<title>Node0x55ec3a151358&#45;&gt;Node0x55ec3a14f6e8</title>
<path fill="none" stroke="black" d="M659.59,-728.17C704.17,-745.27 775.1,-769.95 839,-781.12 976.75,-805.2 1133.65,-811.63 1257.5,-811.96"/>
<polygon fill="black" stroke="black" points="1257.86,-815.46 1267.86,-811.97 1257.87,-808.46 1257.86,-815.46"/>
</g>
<!-- Node0x55ec3a14fe68&#45;&gt;Node0x55ec3a164ae8 -->
<g id="edge31" class="edge">
<title>Node0x55ec3a14fe68&#45;&gt;Node0x55ec3a164ae8</title>
<path fill="none" stroke="black" d="M686.66,-108.07C805.1,-81.91 1046.97,-44.18 1232,-118.12 1338.59,-160.72 1425.36,-273.91 1460.79,-325.65"/>
<polygon fill="black" stroke="black" points="1457.92,-327.66 1466.42,-333.99 1463.72,-323.74 1457.92,-327.66"/>
</g>
<!-- Node0x55ec3a14efb8&#45;&gt;Node0x55ec3a14f738 -->
<g id="edge28" class="edge">
<title>Node0x55ec3a14efb8&#45;&gt;Node0x55ec3a14f738</title>
<path fill="none" stroke="black" d="M1165.41,-625.09C1187.74,-621.09 1210.64,-616.44 1232,-611.12 1298.64,-594.55 1373.08,-568.3 1422.44,-549.77"/>
<polygon fill="black" stroke="black" points="1423.85,-552.98 1431.97,-546.17 1421.38,-546.43 1423.85,-552.98"/>
</g>
<!-- Node0x55ec3a14efb8&#45;&gt;Node0x55ec3a164ae8 -->
<g id="edge30" class="edge">
<title>Node0x55ec3a14efb8&#45;&gt;Node0x55ec3a164ae8</title>
<path fill="none" stroke="black" d="M1130.75,-625.01C1165.7,-614.53 1203.68,-598.24 1232,-573.12 1258.77,-549.38 1244.72,-528.29 1268,-501.12 1315.32,-445.92 1387.29,-400.71 1433.48,-375.09"/>
<polygon fill="black" stroke="black" points="1435.26,-378.1 1442.36,-370.23 1431.9,-371.96 1435.26,-378.1"/>
</g>
<!-- Node0x55ec3a14efb8&#45;&gt;Node0x55ec3a1656c8 -->
<g id="edge29" class="edge">
<title>Node0x55ec3a14efb8&#45;&gt;Node0x55ec3a1656c8</title>
<path fill="none" stroke="black" d="M1187.31,-625.09C1349.07,-605.75 1604.96,-575.16 1770.54,-555.37"/>
<polygon fill="black" stroke="black" points="1771.3,-558.8 1780.82,-554.14 1770.47,-551.85 1771.3,-558.8"/>
</g>
<!-- Node0x55ec3a168828&#45;&gt;Node0x55ec3a14f738 -->
<g id="edge32" class="edge">
<title>Node0x55ec3a168828&#45;&gt;Node0x55ec3a14f738</title>
<path fill="none" stroke="black" d="M1171.2,-477.15C1191.58,-480.05 1212.36,-483.09 1232,-486.12 1276.1,-492.93 1324.53,-501.06 1366.68,-508.34"/>
<polygon fill="black" stroke="black" points="1366.23,-511.82 1376.68,-510.08 1367.43,-504.92 1366.23,-511.82"/>
</g>
<!-- Node0x55ec3a1531f8&#45;&gt;Node0x55ec3a164ae8 -->
<g id="edge36" class="edge">
<title>Node0x55ec3a1531f8&#45;&gt;Node0x55ec3a164ae8</title>
<path fill="none" stroke="black" d="M1177.84,-217.15C1196.26,-220.98 1214.72,-225.59 1232,-231.12 1309.29,-255.85 1392.76,-301.32 1439.88,-328.93"/>
<polygon fill="black" stroke="black" points="1438.14,-331.96 1448.53,-334.03 1441.7,-325.94 1438.14,-331.96"/>
</g>
<!-- Node0x55ec3a1517b8&#45;&gt;Node0x55ec3a14f738 -->
<g id="edge39" class="edge">
<title>Node0x55ec3a1517b8&#45;&gt;Node0x55ec3a14f738</title>
<path fill="none" stroke="black" d="M1189.42,-717.08C1204.06,-713.28 1218.48,-708.68 1232,-703.12 1321.21,-666.42 1409.29,-592.04 1451.76,-553.13"/>
<polygon fill="black" stroke="black" points="1454.19,-555.65 1459.15,-546.29 1449.44,-550.51 1454.19,-555.65"/>
</g>
<!-- Node0x55ec3a1517b8&#45;&gt;Node0x55ec3a164ae8 -->
<g id="edge40" class="edge">
<title>Node0x55ec3a1517b8&#45;&gt;Node0x55ec3a164ae8</title>
<path fill="none" stroke="black" d="M1154.77,-717.11C1183.53,-707.47 1211.79,-692.71 1232,-670.12 1283.2,-612.89 1225.8,-565.28 1268,-501.12 1307,-441.83 1378.4,-398.77 1427.01,-374.62"/>
<polygon fill="black" stroke="black" points="1428.65,-377.71 1436.11,-370.18 1425.59,-371.42 1428.65,-377.71"/>
</g>
<!-- Node0x55ec3a1517b8&#45;&gt;Node0x55ec3a150a48 -->
<g id="edge37" class="edge">
<title>Node0x55ec3a1517b8&#45;&gt;Node0x55ec3a150a48</title>
<path fill="none" stroke="black" d="M1219.58,-737.61C1244.27,-737.95 1269.61,-738.29 1294.31,-738.63"/>
<polygon fill="black" stroke="black" points="1294.44,-742.13 1304.48,-738.76 1294.53,-735.13 1294.44,-742.13"/>
</g>
<!-- Node0x55ec3a1517b8&#45;&gt;Node0x55ec3a14f6e8 -->
<g id="edge38" class="edge">
<title>Node0x55ec3a1517b8&#45;&gt;Node0x55ec3a14f6e8</title>
<path fill="none" stroke="black" d="M1148.48,-753.13C1211.78,-763.31 1290.99,-776.05 1355.88,-786.48"/>
<polygon fill="black" stroke="black" points="1355.33,-789.94 1365.76,-788.07 1356.44,-783.03 1355.33,-789.94"/>
</g>
<!-- Node0x55ec3a167018 -->
<g id="node22" class="node">
<title>Node0x55ec3a167018</title>
<polygon fill="none" stroke="black" points="797.5,-531.12 430.5,-531.12 430.5,-495.12 797.5,-495.12 797.5,-531.12"/>
<text text-anchor="middle" x="614" y="-509.42" font-family="Times,serif" font-size="14.00">{lib/libLLVMGlobalISel.a(CSEMIRBuilder.cpp.o)}</text>
</g>
<!-- Node0x55ec3a167018&#45;&gt;Node0x55ec3a14f738 -->
<g id="edge34" class="edge">
<title>Node0x55ec3a167018&#45;&gt;Node0x55ec3a14f738</title>
<path fill="none" stroke="black" d="M742.1,-531.13C773.69,-534.86 807.52,-538.23 839,-540.12 985.52,-548.92 1151.25,-545.42 1277.21,-539.98"/>
<polygon fill="black" stroke="black" points="1277.52,-543.47 1287.36,-539.54 1277.21,-536.48 1277.52,-543.47"/>
</g>
<!-- Node0x55ec3a167018&#45;&gt;Node0x55ec3a164ae8 -->
<g id="edge35" class="edge">
<title>Node0x55ec3a167018&#45;&gt;Node0x55ec3a164ae8</title>
<path fill="none" stroke="black" d="M656.26,-495.05C700.57,-476.4 773.46,-447.87 839,-432.12 1002.03,-392.96 1193.34,-372.22 1323.85,-361.77"/>
<polygon fill="black" stroke="black" points="1324.23,-365.25 1333.92,-360.97 1323.68,-358.27 1324.23,-365.25"/>
</g>
<!-- Node0x55ec3a167018&#45;&gt;Node0x55ec3a155638 -->
<g id="edge33" class="edge">
<title>Node0x55ec3a167018&#45;&gt;Node0x55ec3a155638</title>
<path fill="none" stroke="black" d="M797.78,-513.12C821.15,-513.12 844.97,-513.12 868.06,-513.12"/>
<polygon fill="black" stroke="black" points="868.26,-516.62 878.26,-513.12 868.26,-509.62 868.26,-516.62"/>
</g>
</g>
</svg>
