<?xml version="1.0" encoding="UTF-8" standalone="no"?>
<!DOCTYPE svg PUBLIC "-//W3C//DTD SVG 1.1//EN"
 "http://www.w3.org/Graphics/SVG/1.1/DTD/svg11.dtd">
<!-- Generated by graphviz version 2.43.0 (0)
 -->
<!-- Title: bin/llvm&#45;profdata Pages: 1 -->
<svg width="1301pt" height="213pt"
 viewBox="0.00 0.00 1301.00 213.00" xmlns="http://www.w3.org/2000/svg" xmlns:xlink="http://www.w3.org/1999/xlink">
<g id="graph0" class="graph" transform="scale(1 1) rotate(0) translate(4 209)">
<title>bin/llvm&#45;profdata</title>
<polygon fill="white" stroke="transparent" points="-4,4 -4,-209 1297,-209 1297,4 -4,4"/>
<text text-anchor="middle" x="646.5" y="-7.8" font-family="Times,serif" font-size="14.00">bin/llvm&#45;profdata</text>
<!-- Node0x556466b733e8 -->
<g id="node1" class="node">
<title>Node0x556466b733e8</title>
<polygon fill="#7fb2ff" stroke="black" points="812,-105 285,-105 285,-69 812,-69 812,-105"/>
<text text-anchor="middle" x="548.5" y="-83.3" font-family="Times,serif" font-size="14.00">{tools/llvm&#45;profdata/CMakeFiles/llvm&#45;profdata.dir/llvm&#45;profdata.cpp.o}</text>
</g>
<!-- Node0x556466b72da8 -->
<g id="node2" class="node">
<title>Node0x556466b72da8</title>
<polygon fill="#7fb2ff" stroke="black" points="1033.5,-59 871.5,-59 871.5,-23 1033.5,-23 1033.5,-59"/>
<text text-anchor="middle" x="952.5" y="-37.3" font-family="Times,serif" font-size="14.00">{lib/libLLVMCore.a}</text>
</g>
<!-- Node0x556466b733e8&#45;&gt;Node0x556466b72da8 -->
<g id="edge1" class="edge">
<title>Node0x556466b733e8&#45;&gt;Node0x556466b72da8</title>
<path fill="none" stroke="#7fb2ff" d="M654.33,-68.99C718.57,-60.57 799.95,-51.35 861.3,-45.58"/>
<polygon fill="#7fb2ff" stroke="#7fb2ff" points="861.72,-49.06 871.36,-44.65 861.08,-42.09 861.72,-49.06"/>
</g>
<!-- Node0x556466b77268 -->
<g id="node3" class="node">
<title>Node0x556466b77268</title>
<polygon fill="#7fb2ff" stroke="black" points="1045.5,-151 859.5,-151 859.5,-115 1045.5,-115 1045.5,-151"/>
<text text-anchor="middle" x="952.5" y="-129.3" font-family="Times,serif" font-size="14.00">{lib/libLLVMSupport.a}</text>
</g>
<!-- Node0x556466b733e8&#45;&gt;Node0x556466b77268 -->
<g id="edge2" class="edge">
<title>Node0x556466b733e8&#45;&gt;Node0x556466b77268</title>
<path fill="none" stroke="#7fb2ff" d="M765.8,-105.02C794.84,-108.41 823.45,-111.94 849.19,-115.32"/>
<polygon fill="#7fb2ff" stroke="#7fb2ff" points="848.9,-118.82 859.28,-116.67 849.83,-111.88 848.9,-118.82"/>
</g>
<!-- Node0x556466b76d18 -->
<g id="node4" class="node">
<title>Node0x556466b76d18</title>
<polygon fill="#7fb2ff" stroke="black" points="1057,-205 848,-205 848,-169 1057,-169 1057,-205"/>
<text text-anchor="middle" x="952.5" y="-183.3" font-family="Times,serif" font-size="14.00">{lib/libLLVMProfileData.a}</text>
</g>
<!-- Node0x556466b733e8&#45;&gt;Node0x556466b76d18 -->
<g id="edge3" class="edge">
<title>Node0x556466b733e8&#45;&gt;Node0x556466b76d18</title>
<path fill="none" stroke="#7fb2ff" d="M622.3,-105.11C691.77,-122.39 796.32,-148.4 868.88,-166.45"/>
<polygon fill="#7fb2ff" stroke="#7fb2ff" points="868.35,-169.92 878.9,-168.94 870.04,-163.13 868.35,-169.92"/>
</g>
<!-- Node0x556466b72da8&#45;&gt;Node0x556466b733e8 -->
<g id="edge5" class="edge">
<title>Node0x556466b72da8&#45;&gt;Node0x556466b733e8</title>
<path fill="none" stroke="#7fb2ff" d="M871.45,-55.68C843.3,-59.56 810.12,-63.75 775.94,-67.79"/>
<polygon fill="#7fb2ff" stroke="#7fb2ff" points="775.32,-64.34 765.8,-68.98 776.14,-71.29 775.32,-64.34"/>
</g>
<!-- Node0x556466b72da8&#45;&gt;Node0x556466b77268 -->
<g id="edge4" class="edge">
<title>Node0x556466b72da8&#45;&gt;Node0x556466b77268</title>
<path fill="none" stroke="#7fb2ff" d="M990.98,-59.15C1017.53,-75.75 1020.34,-92.35 999.41,-108.95"/>
<polygon fill="#7fb2ff" stroke="#7fb2ff" points="997.21,-106.22 991.02,-114.83 1001.22,-111.96 997.21,-106.22"/>
</g>
<!-- Node0x556466b75918 -->
<g id="node5" class="node">
<title>Node0x556466b75918</title>
<polygon fill="#7fb2ff" stroke="black" points="1288.5,-105 1097.5,-105 1097.5,-69 1288.5,-69 1288.5,-105"/>
<text text-anchor="middle" x="1193" y="-83.3" font-family="Times,serif" font-size="14.00">{lib/libLLVMRemarks.a}</text>
</g>
<!-- Node0x556466b72da8&#45;&gt;Node0x556466b75918 -->
<g id="edge6" class="edge">
<title>Node0x556466b72da8&#45;&gt;Node0x556466b75918</title>
<path fill="none" stroke="#7fb2ff" d="M1033.58,-56.45C1051.25,-59.85 1070.2,-63.51 1088.64,-67.06"/>
<polygon fill="#7fb2ff" stroke="#7fb2ff" points="1088.04,-70.51 1098.52,-68.97 1089.37,-63.64 1088.04,-70.51"/>
</g>
<!-- Node0x556466b77268&#45;&gt;Node0x556466b733e8 -->
<g id="edge9" class="edge">
<title>Node0x556466b77268&#45;&gt;Node0x556466b733e8</title>
<path fill="none" stroke="#7fb2ff" d="M859.21,-128.22C801.33,-122.74 726.26,-114.28 664.52,-106.33"/>
<polygon fill="#7fb2ff" stroke="#7fb2ff" points="664.7,-102.82 654.33,-105.01 663.8,-109.77 664.7,-102.82"/>
</g>
<!-- Node0x556466b77268&#45;&gt;Node0x556466b72da8 -->
<g id="edge7" class="edge">
<title>Node0x556466b77268&#45;&gt;Node0x556466b72da8</title>
<path fill="none" stroke="#7fb2ff" d="M913.98,-114.83C887.45,-98.22 884.67,-81.62 905.62,-65.02"/>
<polygon fill="#7fb2ff" stroke="#7fb2ff" points="907.83,-67.75 914.02,-59.15 903.82,-62.01 907.83,-67.75"/>
</g>
<!-- Node0x556466b74798 -->
<g id="node6" class="node">
<title>Node0x556466b74798</title>
<polygon fill="none" stroke="black" points="1293,-159 1093,-159 1093,-123 1293,-123 1293,-159"/>
<text text-anchor="middle" x="1193" y="-137.3" font-family="Times,serif" font-size="14.00">{lib/libLLVMDemangle.a}</text>
</g>
<!-- Node0x556466b77268&#45;&gt;Node0x556466b74798 -->
<g id="edge8" class="edge">
<title>Node0x556466b77268&#45;&gt;Node0x556466b74798</title>
<path fill="none" stroke="black" d="M1045.71,-136.09C1057.79,-136.5 1070.27,-136.92 1082.6,-137.33"/>
<polygon fill="black" stroke="black" points="1082.81,-140.84 1092.92,-137.68 1083.04,-133.84 1082.81,-140.84"/>
</g>
<!-- Node0x556466b76d18&#45;&gt;Node0x556466b72da8 -->
<g id="edge10" class="edge">
<title>Node0x556466b76d18&#45;&gt;Node0x556466b72da8</title>
<path fill="none" stroke="#7fb2ff" d="M847.99,-169.47C840.86,-164.61 834.66,-158.54 830,-151 807.46,-114.53 853.39,-83.03 895.29,-63.2"/>
<polygon fill="#7fb2ff" stroke="#7fb2ff" points="896.78,-66.37 904.42,-59.03 893.87,-60 896.78,-66.37"/>
</g>
<!-- Node0x556466b76d18&#45;&gt;Node0x556466b77268 -->
<g id="edge11" class="edge">
<title>Node0x556466b76d18&#45;&gt;Node0x556466b77268</title>
<path fill="none" stroke="#7fb2ff" d="M952.5,-168.79C952.5,-166.31 952.5,-163.83 952.5,-161.34"/>
<polygon fill="#7fb2ff" stroke="#7fb2ff" points="956,-161.14 952.5,-151.14 949,-161.14 956,-161.14"/>
</g>
<!-- Node0x556466b75918&#45;&gt;Node0x556466b733e8 -->
<g id="edge13" class="edge">
<title>Node0x556466b75918&#45;&gt;Node0x556466b733e8</title>
<path fill="none" stroke="#7fb2ff" d="M1097.21,-87C1024.51,-87 920.32,-87 822.3,-87"/>
<polygon fill="#7fb2ff" stroke="#7fb2ff" points="822.22,-83.5 812.22,-87 822.22,-90.5 822.22,-83.5"/>
</g>
<!-- Node0x556466b75918&#45;&gt;Node0x556466b77268 -->
<g id="edge12" class="edge">
<title>Node0x556466b75918&#45;&gt;Node0x556466b77268</title>
<path fill="none" stroke="#7fb2ff" d="M1098.46,-105.04C1084.5,-107.73 1070.06,-110.52 1055.93,-113.24"/>
<polygon fill="#7fb2ff" stroke="#7fb2ff" points="1054.87,-109.88 1045.71,-115.22 1056.19,-116.76 1054.87,-109.88"/>
</g>
<!-- Node0x556466b751e8 -->
<g id="node7" class="node">
<title>Node0x556466b751e8</title>
<polygon fill="none" stroke="black" points="249,-128 0,-128 0,-92 249,-92 249,-128"/>
<text text-anchor="middle" x="124.5" y="-106.3" font-family="Times,serif" font-size="14.00">{lib/libLLVMBitstreamReader.a}</text>
</g>
<!-- Node0x556466b751e8&#45;&gt;Node0x556466b733e8 -->
<g id="edge14" class="edge">
<title>Node0x556466b751e8&#45;&gt;Node0x556466b733e8</title>
<path fill="none" stroke="black" d="M249.26,-103.25C257.48,-102.81 265.91,-102.35 274.49,-101.88"/>
<polygon fill="black" stroke="black" points="274.83,-105.37 284.63,-101.33 274.45,-98.38 274.83,-105.37"/>
</g>
<!-- Node0x556466b751e8&#45;&gt;Node0x556466b77268 -->
<g id="edge15" class="edge">
<title>Node0x556466b751e8&#45;&gt;Node0x556466b77268</title>
<path fill="none" stroke="black" d="M249.16,-113.44C412.49,-117.99 697.14,-125.92 849.07,-130.15"/>
<polygon fill="black" stroke="black" points="849.24,-133.65 859.33,-130.43 849.43,-126.66 849.24,-133.65"/>
</g>
</g>
</svg>
