<?xml version="1.0" encoding="UTF-8" standalone="no"?>
<!DOCTYPE svg PUBLIC "-//W3C//DTD SVG 1.1//EN"
 "http://www.w3.org/Graphics/SVG/1.1/DTD/svg11.dtd">
<!-- Generated by graphviz version 2.43.0 (0)
 -->
<!-- Title: bin/lld_lib/liblldCOFF.a Pages: 1 -->
<svg width="913pt" height="798pt"
 viewBox="0.00 0.00 913.00 797.90" xmlns="http://www.w3.org/2000/svg" xmlns:xlink="http://www.w3.org/1999/xlink">
<g id="graph0" class="graph" transform="scale(1 1) rotate(0) translate(4 793.9)">
<title>bin/lld_lib/liblldCOFF.a</title>
<polygon fill="white" stroke="transparent" points="-4,4 -4,-793.9 909,-793.9 909,4 -4,4"/>
<text text-anchor="middle" x="452.5" y="-7.8" font-family="Times,serif" font-size="14.00">bin/lld_lib/liblldCOFF.a</text>
<!-- Node0x5569a1422b68 -->
<g id="node1" class="node">
<title>Node0x5569a1422b68</title>
<polygon fill="#7fb2ff" stroke="black" points="242,-394 0,-394 0,-358 242,-358 242,-394"/>
<text text-anchor="middle" x="121" y="-372.3" font-family="Times,serif" font-size="14.00">{lib/liblldCOFF.a(Driver.cpp.o)}</text>
</g>
<!-- Node0x5569a142a048 -->
<g id="node2" class="node">
<title>Node0x5569a142a048</title>
<polygon fill="#7fb2ff" stroke="black" points="566.5,-113 279.5,-113 279.5,-77 566.5,-77 566.5,-113"/>
<text text-anchor="middle" x="423" y="-91.3" font-family="Times,serif" font-size="14.00">{lib/liblldCOFF.a(DebugTypes.cpp.o)}</text>
</g>
<!-- Node0x5569a1422b68&#45;&gt;Node0x5569a142a048 -->
<g id="edge1" class="edge">
<title>Node0x5569a1422b68&#45;&gt;Node0x5569a142a048</title>
<path fill="none" stroke="#7fb2ff" d="M126.23,-357.69C139.53,-310.06 184.76,-183.19 271.06,-118.06"/>
<polygon fill="#7fb2ff" stroke="#7fb2ff" points="273.2,-120.83 279.26,-112.14 269.11,-115.15 273.2,-120.83"/>
</g>
<!-- Node0x5569a142b998 -->
<g id="node3" class="node">
<title>Node0x5569a142b998</title>
<polygon fill="#7fb2ff" stroke="black" points="548.5,-475 297.5,-475 297.5,-439 548.5,-439 548.5,-475"/>
<text text-anchor="middle" x="423" y="-453.3" font-family="Times,serif" font-size="14.00">{lib/liblldCOFF.a(Chunks.cpp.o)}</text>
</g>
<!-- Node0x5569a1422b68&#45;&gt;Node0x5569a142b998 -->
<g id="edge2" class="edge">
<title>Node0x5569a1422b68&#45;&gt;Node0x5569a142b998</title>
<path fill="none" stroke="#7fb2ff" d="M191.21,-394.03C218.04,-403.01 249.19,-413.36 278,-421 300.92,-427.08 326.23,-432.31 349.17,-436.94"/>
<polygon fill="#7fb2ff" stroke="#7fb2ff" points="348.68,-440.41 359.17,-438.96 350.06,-433.55 348.68,-440.41"/>
</g>
<!-- Node0x5569a14248c8 -->
<g id="node4" class="node">
<title>Node0x5569a14248c8</title>
<polygon fill="#7fb2ff" stroke="black" points="562,-529 284,-529 284,-493 562,-493 562,-529"/>
<text text-anchor="middle" x="423" y="-507.3" font-family="Times,serif" font-size="14.00">{lib/liblldCOFF.a(DriverUtils.cpp.o)}</text>
</g>
<!-- Node0x5569a1422b68&#45;&gt;Node0x5569a14248c8 -->
<g id="edge3" class="edge">
<title>Node0x5569a1422b68&#45;&gt;Node0x5569a14248c8</title>
<path fill="none" stroke="#7fb2ff" d="M150.01,-394.17C179.67,-416.89 228.91,-454.51 278,-475 294.09,-481.72 311.89,-486.77 329.32,-490.75"/>
<polygon fill="#7fb2ff" stroke="#7fb2ff" points="329.02,-494.26 339.53,-492.97 330.51,-487.42 329.02,-494.26"/>
</g>
<!-- Node0x5569a1426da8 -->
<g id="node5" class="node">
<title>Node0x5569a1426da8</title>
<polygon fill="#7fb2ff" stroke="black" points="533.5,-659 312.5,-659 312.5,-623 533.5,-623 533.5,-659"/>
<text text-anchor="middle" x="423" y="-637.3" font-family="Times,serif" font-size="14.00">{lib/liblldCOFF.a(ICF.cpp.o)}</text>
</g>
<!-- Node0x5569a1422b68&#45;&gt;Node0x5569a1426da8 -->
<g id="edge4" class="edge">
<title>Node0x5569a1422b68&#45;&gt;Node0x5569a1426da8</title>
<path fill="none" stroke="#7fb2ff" d="M128.67,-394.32C145.88,-438.83 196.22,-553.08 278,-609 285.77,-614.31 294.27,-618.76 303.14,-622.47"/>
<polygon fill="#7fb2ff" stroke="#7fb2ff" points="301.91,-625.75 312.5,-626.09 304.43,-619.22 301.91,-625.75"/>
</g>
<!-- Node0x5569a1425f98 -->
<g id="node6" class="node">
<title>Node0x5569a1425f98</title>
<polygon fill="#7fb2ff" stroke="black" points="558.5,-421 287.5,-421 287.5,-385 558.5,-385 558.5,-421"/>
<text text-anchor="middle" x="423" y="-399.3" font-family="Times,serif" font-size="14.00">{lib/liblldCOFF.a(InputFiles.cpp.o)}</text>
</g>
<!-- Node0x5569a1422b68&#45;&gt;Node0x5569a1425f98 -->
<g id="edge5" class="edge">
<title>Node0x5569a1422b68&#45;&gt;Node0x5569a1425f98</title>
<path fill="none" stroke="#7fb2ff" d="M242.29,-380.2C256.6,-381.37 271.28,-382.66 285.78,-384.02"/>
<polygon fill="#7fb2ff" stroke="#7fb2ff" points="285.51,-387.51 295.79,-384.97 286.17,-380.54 285.51,-387.51"/>
</g>
<!-- Node0x5569a1442238 -->
<g id="node7" class="node">
<title>Node0x5569a1442238</title>
<polygon fill="#7fb2ff" stroke="black" points="536,-275 310,-275 310,-239 536,-239 536,-275"/>
<text text-anchor="middle" x="423" y="-253.3" font-family="Times,serif" font-size="14.00">{lib/liblldCOFF.a(LTO.cpp.o)}</text>
</g>
<!-- Node0x5569a1422b68&#45;&gt;Node0x5569a1442238 -->
<g id="edge6" class="edge">
<title>Node0x5569a1422b68&#45;&gt;Node0x5569a1442238</title>
<path fill="none" stroke="#7fb2ff" d="M140.35,-357.66C168.66,-335.58 225.25,-300.08 278,-280 285.15,-277.28 292.6,-274.75 300.17,-272.44"/>
<polygon fill="#7fb2ff" stroke="#7fb2ff" points="301.2,-275.78 309.81,-269.61 299.23,-269.06 301.2,-275.78"/>
</g>
<!-- Node0x5569a143df08 -->
<g id="node8" class="node">
<title>Node0x5569a143df08</title>
<polygon fill="#7fb2ff" stroke="black" points="556,-59 290,-59 290,-23 556,-23 556,-59"/>
<text text-anchor="middle" x="423" y="-37.3" font-family="Times,serif" font-size="14.00">{lib/liblldCOFF.a(MarkLive.cpp.o)}</text>
</g>
<!-- Node0x5569a1422b68&#45;&gt;Node0x5569a143df08 -->
<g id="edge7" class="edge">
<title>Node0x5569a1422b68&#45;&gt;Node0x5569a143df08</title>
<path fill="none" stroke="#7fb2ff" d="M124.65,-357.89C134.58,-302.55 174.44,-136.7 278,-59 279.06,-58.21 280.13,-57.43 281.22,-56.68"/>
<polygon fill="#7fb2ff" stroke="#7fb2ff" points="283.22,-59.56 289.87,-51.31 279.53,-53.62 283.22,-59.56"/>
</g>
<!-- Node0x5569a143d7d8 -->
<g id="node9" class="node">
<title>Node0x5569a143d7d8</title>
<polygon fill="#7fb2ff" stroke="black" points="547.5,-221 298.5,-221 298.5,-185 547.5,-185 547.5,-221"/>
<text text-anchor="middle" x="423" y="-199.3" font-family="Times,serif" font-size="14.00">{lib/liblldCOFF.a(MinGW.cpp.o)}</text>
</g>
<!-- Node0x5569a1422b68&#45;&gt;Node0x5569a143d7d8 -->
<g id="edge8" class="edge">
<title>Node0x5569a1422b68&#45;&gt;Node0x5569a143d7d8</title>
<path fill="none" stroke="#7fb2ff" d="M131.79,-357.95C154.12,-324.43 211.98,-254.44 278,-221 281.54,-219.21 285.18,-217.54 288.89,-215.97"/>
<polygon fill="#7fb2ff" stroke="#7fb2ff" points="290.23,-219.21 298.28,-212.32 287.69,-212.69 290.23,-219.21"/>
</g>
<!-- Node0x5569a1428b08 -->
<g id="node10" class="node">
<title>Node0x5569a1428b08</title>
<polygon fill="#7fb2ff" stroke="black" points="568,-367 278,-367 278,-331 568,-331 568,-367"/>
<text text-anchor="middle" x="423" y="-345.3" font-family="Times,serif" font-size="14.00">{lib/liblldCOFF.a(SymbolTable.cpp.o)}</text>
</g>
<!-- Node0x5569a1422b68&#45;&gt;Node0x5569a1428b08 -->
<g id="edge9" class="edge">
<title>Node0x5569a1422b68&#45;&gt;Node0x5569a1428b08</title>
<path fill="none" stroke="#7fb2ff" d="M242.29,-358.54C250.73,-357.72 259.3,-356.91 267.88,-356.12"/>
<polygon fill="#7fb2ff" stroke="#7fb2ff" points="268.31,-359.6 277.96,-355.22 267.69,-352.63 268.31,-359.6"/>
</g>
<!-- Node0x5569a14291e8 -->
<g id="node11" class="node">
<title>Node0x5569a14291e8</title>
<polygon fill="#7fb2ff" stroke="black" points="552.5,-167 293.5,-167 293.5,-131 552.5,-131 552.5,-167"/>
<text text-anchor="middle" x="423" y="-145.3" font-family="Times,serif" font-size="14.00">{lib/liblldCOFF.a(Symbols.cpp.o)}</text>
</g>
<!-- Node0x5569a1422b68&#45;&gt;Node0x5569a14291e8 -->
<g id="edge10" class="edge">
<title>Node0x5569a1422b68&#45;&gt;Node0x5569a14291e8</title>
<path fill="none" stroke="#7fb2ff" d="M128.4,-357.79C146.2,-315.91 200.14,-214.4 278,-167 279.99,-165.79 282.01,-164.63 284.08,-163.53"/>
<polygon fill="#7fb2ff" stroke="#7fb2ff" points="285.9,-166.53 293.34,-158.99 282.82,-160.24 285.9,-166.53"/>
</g>
<!-- Node0x5569a14264e8 -->
<g id="node12" class="node">
<title>Node0x5569a14264e8</title>
<polygon fill="#7fb2ff" stroke="black" points="544,-713 302,-713 302,-677 544,-677 544,-713"/>
<text text-anchor="middle" x="423" y="-691.3" font-family="Times,serif" font-size="14.00">{lib/liblldCOFF.a(Writer.cpp.o)}</text>
</g>
<!-- Node0x5569a1422b68&#45;&gt;Node0x5569a14264e8 -->
<g id="edge11" class="edge">
<title>Node0x5569a1422b68&#45;&gt;Node0x5569a14264e8</title>
<path fill="none" stroke="#7fb2ff" d="M126.99,-394.22C140.53,-445.41 183.45,-589.66 278,-659 286.08,-664.92 295.08,-669.66 304.52,-673.47"/>
<polygon fill="#7fb2ff" stroke="#7fb2ff" points="303.51,-676.83 314.1,-676.99 305.92,-670.26 303.51,-676.83"/>
</g>
<!-- Node0x5569a142a048&#45;&gt;Node0x5569a1422b68 -->
<g id="edge12" class="edge">
<title>Node0x5569a142a048&#45;&gt;Node0x5569a1422b68</title>
<path fill="none" stroke="#7fb2ff" d="M316.4,-113.04C302.74,-117.3 289.52,-123.07 278,-131 198.06,-186 151.54,-296.69 132.36,-348.45"/>
<polygon fill="#7fb2ff" stroke="#7fb2ff" points="129.02,-347.39 128.89,-357.99 135.6,-349.79 129.02,-347.39"/>
</g>
<!-- Node0x5569a142a048&#45;&gt;Node0x5569a142b998 -->
<g id="edge13" class="edge">
<title>Node0x5569a142a048&#45;&gt;Node0x5569a142b998</title>
<path fill="none" stroke="#7fb2ff" d="M279.21,-110.6C271.66,-116.03 265.1,-122.74 260,-131 243.06,-158.41 243.06,-393.59 260,-421 266.97,-432.28 276.66,-440.68 287.87,-446.87"/>
<polygon fill="#7fb2ff" stroke="#7fb2ff" points="286.64,-450.16 297.17,-451.37 289.69,-443.86 286.64,-450.16"/>
</g>
<!-- Node0x5569a142a048&#45;&gt;Node0x5569a1425f98 -->
<g id="edge14" class="edge">
<title>Node0x5569a142a048&#45;&gt;Node0x5569a1425f98</title>
<path fill="none" stroke="#7fb2ff" d="M279.44,-112.39C274.28,-116.79 269.73,-121.96 266,-128 251.86,-150.87 251.86,-347.13 266,-370 269.65,-375.91 274.08,-380.98 279.1,-385.32"/>
<polygon fill="#7fb2ff" stroke="#7fb2ff" points="277.35,-388.38 287.46,-391.55 281.54,-382.77 277.35,-388.38"/>
</g>
<!-- Node0x5569a143f858 -->
<g id="node13" class="node">
<title>Node0x5569a143f858</title>
<polygon fill="#7fb2ff" stroke="black" points="869.5,-367 639.5,-367 639.5,-331 869.5,-331 869.5,-367"/>
<text text-anchor="middle" x="754.5" y="-345.3" font-family="Times,serif" font-size="14.00">{lib/liblldCOFF.a(PDB.cpp.o)}</text>
</g>
<!-- Node0x5569a142a048&#45;&gt;Node0x5569a143f858 -->
<g id="edge15" class="edge">
<title>Node0x5569a142a048&#45;&gt;Node0x5569a143f858</title>
<path fill="none" stroke="#7fb2ff" d="M566.68,-112.23C567.12,-112.48 567.56,-112.74 568,-113 654.17,-164.13 717.51,-270.87 742.18,-321.54"/>
<polygon fill="#7fb2ff" stroke="#7fb2ff" points="739.16,-323.35 746.59,-330.9 745.49,-320.36 739.16,-323.35"/>
</g>
<!-- Node0x5569a142b998&#45;&gt;Node0x5569a1422b68 -->
<g id="edge16" class="edge">
<title>Node0x5569a142b998&#45;&gt;Node0x5569a1422b68</title>
<path fill="none" stroke="#7fb2ff" d="M297.25,-443.79C290.72,-442.26 284.27,-440.66 278,-439 236.95,-428.11 191.16,-411.74 159.87,-398.13"/>
<polygon fill="#7fb2ff" stroke="#7fb2ff" points="161.2,-394.89 150.64,-394.01 158.34,-401.28 161.2,-394.89"/>
</g>
<!-- Node0x5569a142b998&#45;&gt;Node0x5569a1425f98 -->
<g id="edge17" class="edge">
<title>Node0x5569a142b998&#45;&gt;Node0x5569a1425f98</title>
<path fill="none" stroke="#7fb2ff" d="M513.64,-438.88C524.22,-434.6 527.16,-430.33 522.45,-426.05"/>
<polygon fill="#7fb2ff" stroke="#7fb2ff" points="523.86,-422.83 513.42,-421.04 520.46,-428.95 523.86,-422.83"/>
</g>
<!-- Node0x5569a142b998&#45;&gt;Node0x5569a1428b08 -->
<g id="edge18" class="edge">
<title>Node0x5569a142b998&#45;&gt;Node0x5569a1428b08</title>
<path fill="none" stroke="#7fb2ff" d="M297.31,-451C284.61,-445 273.61,-436.32 266,-424 256.19,-408.12 256.19,-397.88 266,-382 267.65,-379.33 269.45,-376.84 271.4,-374.51"/>
<polygon fill="#7fb2ff" stroke="#7fb2ff" points="274.07,-376.78 278.54,-367.17 269.06,-371.9 274.07,-376.78"/>
</g>
<!-- Node0x5569a142b998&#45;&gt;Node0x5569a14291e8 -->
<g id="edge19" class="edge">
<title>Node0x5569a142b998&#45;&gt;Node0x5569a14291e8</title>
<path fill="none" stroke="#7fb2ff" d="M297.31,-451C284.61,-445 273.61,-436.32 266,-424 251.86,-401.13 251.86,-204.87 266,-182 270.89,-174.08 277.19,-167.67 284.43,-162.5"/>
<polygon fill="#7fb2ff" stroke="#7fb2ff" points="286.67,-165.23 293.34,-156.99 282.99,-159.27 286.67,-165.23"/>
</g>
<!-- Node0x5569a142b998&#45;&gt;Node0x5569a14264e8 -->
<g id="edge20" class="edge">
<title>Node0x5569a142b998&#45;&gt;Node0x5569a14264e8</title>
<path fill="none" stroke="#7fb2ff" d="M297.31,-463C284.61,-469 273.61,-477.68 266,-490 255.95,-506.26 255.95,-645.74 266,-662 272.64,-672.74 281.84,-680.7 292.5,-686.55"/>
<polygon fill="#7fb2ff" stroke="#7fb2ff" points="291.23,-689.83 301.77,-690.98 294.25,-683.51 291.23,-689.83"/>
</g>
<!-- Node0x5569a14248c8&#45;&gt;Node0x5569a1422b68 -->
<g id="edge21" class="edge">
<title>Node0x5569a14248c8&#45;&gt;Node0x5569a1422b68</title>
<path fill="none" stroke="#7fb2ff" d="M283.7,-495.28C281.78,-494.55 279.88,-493.78 278,-493 225.21,-470.96 172.25,-429.12 143.64,-401.68"/>
<polygon fill="#7fb2ff" stroke="#7fb2ff" points="145.81,-398.9 136.24,-394.35 140.89,-403.87 145.81,-398.9"/>
</g>
<!-- Node0x5569a14248c8&#45;&gt;Node0x5569a1425f98 -->
<g id="edge22" class="edge">
<title>Node0x5569a14248c8&#45;&gt;Node0x5569a1425f98</title>
<path fill="none" stroke="#7fb2ff" d="M283.71,-498.42C274.26,-492.52 266.09,-484.86 260,-475 251.59,-461.39 251.59,-452.61 260,-439 264.93,-431.03 271.21,-424.49 278.43,-419.16"/>
<polygon fill="#7fb2ff" stroke="#7fb2ff" points="280.8,-421.8 287.31,-413.45 277.01,-415.92 280.8,-421.8"/>
</g>
<!-- Node0x5569a1426da8&#45;&gt;Node0x5569a142b998 -->
<g id="edge23" class="edge">
<title>Node0x5569a1426da8&#45;&gt;Node0x5569a142b998</title>
<path fill="none" stroke="#7fb2ff" d="M312.28,-636.8C291.01,-630.29 271.74,-618.99 260,-600 247.5,-579.77 247.5,-513.23 260,-493 266.97,-481.72 276.66,-473.32 287.87,-467.13"/>
<polygon fill="#7fb2ff" stroke="#7fb2ff" points="289.69,-470.14 297.17,-462.63 286.64,-463.84 289.69,-470.14"/>
</g>
<!-- Node0x5569a1426da8&#45;&gt;Node0x5569a14291e8 -->
<g id="edge24" class="edge">
<title>Node0x5569a1426da8&#45;&gt;Node0x5569a14291e8</title>
<path fill="none" stroke="#7fb2ff" d="M312.28,-636.8C291.01,-630.29 271.74,-618.99 260,-600 247.88,-580.39 247.88,-204.61 260,-185 266.25,-174.89 274.67,-167.1 284.42,-161.14"/>
<polygon fill="#7fb2ff" stroke="#7fb2ff" points="286.15,-164.18 293.3,-156.36 282.83,-158.02 286.15,-164.18"/>
</g>
<!-- Node0x5569a1425f98&#45;&gt;Node0x5569a1422b68 -->
<g id="edge25" class="edge">
<title>Node0x5569a1425f98&#45;&gt;Node0x5569a1422b68</title>
<path fill="none" stroke="#7fb2ff" d="M287.39,-397.6C275.77,-396.61 264.02,-395.54 252.43,-394.44"/>
<polygon fill="#7fb2ff" stroke="#7fb2ff" points="252.58,-390.94 242.29,-393.46 251.91,-397.9 252.58,-390.94"/>
</g>
<!-- Node0x5569a1425f98&#45;&gt;Node0x5569a142a048 -->
<g id="edge26" class="edge">
<title>Node0x5569a1425f98&#45;&gt;Node0x5569a142a048</title>
<path fill="none" stroke="#7fb2ff" d="M287.37,-393.35C273.86,-386.65 262.15,-377.19 254,-364 240.56,-342.26 240.56,-155.74 254,-134 258.67,-126.45 264.5,-120.12 271.16,-114.84"/>
<polygon fill="#7fb2ff" stroke="#7fb2ff" points="273.17,-117.7 279.35,-109.1 269.15,-111.97 273.17,-117.7"/>
</g>
<!-- Node0x5569a1425f98&#45;&gt;Node0x5569a142b998 -->
<g id="edge27" class="edge">
<title>Node0x5569a1425f98&#45;&gt;Node0x5569a142b998</title>
<path fill="none" stroke="#7fb2ff" d="M332.58,-421.04C321.89,-425.31 318.85,-429.58 323.45,-433.86"/>
<polygon fill="#7fb2ff" stroke="#7fb2ff" points="321.93,-437.02 332.36,-438.88 325.36,-430.92 321.93,-437.02"/>
</g>
<!-- Node0x5569a1425f98&#45;&gt;Node0x5569a1428b08 -->
<g id="edge28" class="edge">
<title>Node0x5569a1425f98&#45;&gt;Node0x5569a1428b08</title>
<path fill="none" stroke="#7fb2ff" d="M519.99,-384.88C531.81,-380.42 534.72,-375.96 528.72,-371.5"/>
<polygon fill="#7fb2ff" stroke="#7fb2ff" points="530.27,-368.36 519.76,-367.04 527.15,-374.62 530.27,-368.36"/>
</g>
<!-- Node0x5569a1425f98&#45;&gt;Node0x5569a14291e8 -->
<g id="edge29" class="edge">
<title>Node0x5569a1425f98&#45;&gt;Node0x5569a14291e8</title>
<path fill="none" stroke="#7fb2ff" d="M287.31,-392.55C276.34,-386.4 266.86,-378.09 260,-367 238.74,-332.6 238.74,-219.4 260,-185 266.25,-174.89 274.67,-167.1 284.42,-161.14"/>
<polygon fill="#7fb2ff" stroke="#7fb2ff" points="286.15,-164.18 293.3,-156.36 282.83,-158.02 286.15,-164.18"/>
</g>
<!-- Node0x5569a1442238&#45;&gt;Node0x5569a1422b68 -->
<g id="edge30" class="edge">
<title>Node0x5569a1442238&#45;&gt;Node0x5569a1422b68</title>
<path fill="none" stroke="#7fb2ff" d="M359.89,-275.02C334.07,-280.79 304.09,-288.07 278,-298 239.65,-312.6 199.27,-335.34 169.2,-352.68"/>
<polygon fill="#7fb2ff" stroke="#7fb2ff" points="167.13,-349.83 160.22,-357.87 170.63,-355.9 167.13,-349.83"/>
</g>
<!-- Node0x5569a1442238&#45;&gt;Node0x5569a14291e8 -->
<g id="edge31" class="edge">
<title>Node0x5569a1442238&#45;&gt;Node0x5569a14291e8</title>
<path fill="none" stroke="#7fb2ff" d="M309.67,-255.82C289.4,-249.8 271.2,-239.12 260,-221 251.59,-207.39 251.59,-198.61 260,-185 266.25,-174.89 274.67,-167.1 284.42,-161.14"/>
<polygon fill="#7fb2ff" stroke="#7fb2ff" points="286.15,-164.18 293.3,-156.36 282.83,-158.02 286.15,-164.18"/>
</g>
<!-- Node0x5569a143df08&#45;&gt;Node0x5569a1422b68 -->
<g id="edge32" class="edge">
<title>Node0x5569a143df08&#45;&gt;Node0x5569a1422b68</title>
<path fill="none" stroke="#7fb2ff" d="M313.2,-59.04C300.57,-63.35 288.48,-69.14 278,-77 185.05,-146.73 143.42,-287.48 128.68,-347.79"/>
<polygon fill="#7fb2ff" stroke="#7fb2ff" points="125.22,-347.21 126.31,-357.75 132.03,-348.83 125.22,-347.21"/>
</g>
<!-- Node0x5569a143d7d8&#45;&gt;Node0x5569a1422b68 -->
<g id="edge33" class="edge">
<title>Node0x5569a143d7d8&#45;&gt;Node0x5569a1422b68</title>
<path fill="none" stroke="#7fb2ff" d="M329.95,-221.03C312.1,-225.21 294,-230.9 278,-239 223.7,-266.5 174.91,-318.73 146.89,-350.32"/>
<polygon fill="#7fb2ff" stroke="#7fb2ff" points="144.21,-348.07 140.22,-357.88 149.46,-352.7 144.21,-348.07"/>
</g>
<!-- Node0x5569a143d7d8&#45;&gt;Node0x5569a1425f98 -->
<g id="edge34" class="edge">
<title>Node0x5569a143d7d8&#45;&gt;Node0x5569a1425f98</title>
<path fill="none" stroke="#7fb2ff" d="M298.35,-208.14C282.72,-214.54 269.07,-224.33 260,-239 245.05,-263.2 245.05,-342.8 260,-367 264.93,-374.97 271.21,-381.51 278.43,-386.84"/>
<polygon fill="#7fb2ff" stroke="#7fb2ff" points="277.01,-390.08 287.31,-392.55 280.8,-384.2 277.01,-390.08"/>
</g>
<!-- Node0x5569a143d7d8&#45;&gt;Node0x5569a1428b08 -->
<g id="edge35" class="edge">
<title>Node0x5569a143d7d8&#45;&gt;Node0x5569a1428b08</title>
<path fill="none" stroke="#7fb2ff" d="M298.41,-208.48C285.25,-214.51 273.83,-223.32 266,-236 257.24,-250.18 257.24,-296.82 266,-311 269.09,-315.99 272.72,-320.43 276.79,-324.35"/>
<polygon fill="#7fb2ff" stroke="#7fb2ff" points="274.65,-327.13 284.55,-330.89 279.16,-321.78 274.65,-327.13"/>
</g>
<!-- Node0x5569a143d7d8&#45;&gt;Node0x5569a14291e8 -->
<g id="edge36" class="edge">
<title>Node0x5569a143d7d8&#45;&gt;Node0x5569a14291e8</title>
<path fill="none" stroke="#7fb2ff" d="M423,-184.79C423,-182.31 423,-179.83 423,-177.34"/>
<polygon fill="#7fb2ff" stroke="#7fb2ff" points="426.5,-177.14 423,-167.14 419.5,-177.14 426.5,-177.14"/>
</g>
<!-- Node0x5569a1428b08&#45;&gt;Node0x5569a1422b68 -->
<g id="edge37" class="edge">
<title>Node0x5569a1428b08&#45;&gt;Node0x5569a1422b68</title>
<path fill="none" stroke="#7fb2ff" d="M295.79,-367.03C281.53,-368.41 266.98,-369.73 252.67,-370.94"/>
<polygon fill="#7fb2ff" stroke="#7fb2ff" points="251.97,-367.49 242.29,-371.8 252.55,-374.46 251.97,-367.49"/>
</g>
<!-- Node0x5569a1428b08&#45;&gt;Node0x5569a142b998 -->
<g id="edge38" class="edge">
<title>Node0x5569a1428b08&#45;&gt;Node0x5569a142b998</title>
<path fill="none" stroke="#7fb2ff" d="M277.88,-364.03C268.39,-370.16 260.17,-378.01 254,-388 238.18,-413.59 257.34,-429.69 287.7,-439.82"/>
<polygon fill="#7fb2ff" stroke="#7fb2ff" points="286.87,-443.23 297.45,-442.78 288.9,-436.53 286.87,-443.23"/>
</g>
<!-- Node0x5569a1428b08&#45;&gt;Node0x5569a1425f98 -->
<g id="edge39" class="edge">
<title>Node0x5569a1428b08&#45;&gt;Node0x5569a1425f98</title>
<path fill="none" stroke="#7fb2ff" d="M326.24,-367.04C314.56,-371.4 311.41,-375.77 316.8,-380.14"/>
<polygon fill="#7fb2ff" stroke="#7fb2ff" points="315.51,-383.41 326.01,-384.88 318.72,-377.19 315.51,-383.41"/>
</g>
<!-- Node0x5569a1428b08&#45;&gt;Node0x5569a1442238 -->
<g id="edge40" class="edge">
<title>Node0x5569a1428b08&#45;&gt;Node0x5569a1442238</title>
<path fill="none" stroke="#7fb2ff" d="M423,-330.87C423,-315.83 423,-300.78 423,-285.74"/>
<polygon fill="#7fb2ff" stroke="#7fb2ff" points="426.5,-285.33 423,-275.33 419.5,-285.33 426.5,-285.33"/>
</g>
<!-- Node0x5569a1428b08&#45;&gt;Node0x5569a143d7d8 -->
<g id="edge41" class="edge">
<title>Node0x5569a1428b08&#45;&gt;Node0x5569a143d7d8</title>
<path fill="none" stroke="#7fb2ff" d="M280.19,-330.87C269.74,-324.29 260.69,-315.83 254,-305 239.28,-281.18 239.28,-265.82 254,-242 262.44,-228.34 274.7,-218.68 288.81,-211.95"/>
<polygon fill="#7fb2ff" stroke="#7fb2ff" points="290.48,-215.04 298.34,-207.93 287.76,-208.59 290.48,-215.04"/>
</g>
<!-- Node0x5569a1428b08&#45;&gt;Node0x5569a14291e8 -->
<g id="edge43" class="edge">
<title>Node0x5569a1428b08&#45;&gt;Node0x5569a14291e8</title>
<path fill="none" stroke="#7fb2ff" d="M282.39,-330.96C273.52,-324.97 265.83,-317.43 260,-308 245.63,-284.75 245.63,-208.25 260,-185 266.25,-174.89 274.67,-167.1 284.42,-161.14"/>
<polygon fill="#7fb2ff" stroke="#7fb2ff" points="286.15,-164.18 293.3,-156.36 282.83,-158.02 286.15,-164.18"/>
</g>
<!-- Node0x5569a1428b08&#45;&gt;Node0x5569a143f858 -->
<g id="edge42" class="edge">
<title>Node0x5569a1428b08&#45;&gt;Node0x5569a143f858</title>
<path fill="none" stroke="#7fb2ff" d="M568.04,-349C588.49,-349 609.36,-349 629.39,-349"/>
<polygon fill="#7fb2ff" stroke="#7fb2ff" points="629.45,-352.5 639.45,-349 629.45,-345.5 629.45,-352.5"/>
</g>
<!-- Node0x5569a14291e8&#45;&gt;Node0x5569a1422b68 -->
<g id="edge44" class="edge">
<title>Node0x5569a14291e8&#45;&gt;Node0x5569a1422b68</title>
<path fill="none" stroke="#7fb2ff" d="M321.32,-167.07C306.12,-171.27 291.14,-177 278,-185 211.03,-225.77 161.76,-306.56 137.96,-348.97"/>
<polygon fill="#7fb2ff" stroke="#7fb2ff" points="134.8,-347.45 133,-357.89 140.92,-350.85 134.8,-347.45"/>
</g>
<!-- Node0x5569a14291e8&#45;&gt;Node0x5569a142b998 -->
<g id="edge45" class="edge">
<title>Node0x5569a14291e8&#45;&gt;Node0x5569a142b998</title>
<path fill="none" stroke="#7fb2ff" d="M293.38,-155.89C277.35,-162.67 263.34,-172.89 254,-188 240.56,-209.74 240.56,-396.26 254,-418 262.25,-431.34 274.13,-440.87 287.84,-447.58"/>
<polygon fill="#7fb2ff" stroke="#7fb2ff" points="286.52,-450.83 297.09,-451.6 289.31,-444.41 286.52,-450.83"/>
</g>
<!-- Node0x5569a14264e8&#45;&gt;Node0x5569a1422b68 -->
<g id="edge46" class="edge">
<title>Node0x5569a14264e8&#45;&gt;Node0x5569a1422b68</title>
<path fill="none" stroke="#7fb2ff" d="M301.75,-690.27C293.31,-686.72 285.28,-682.34 278,-677 183.99,-608.06 141.02,-465.07 127.23,-404.17"/>
<polygon fill="#7fb2ff" stroke="#7fb2ff" points="130.59,-403.15 125.05,-394.12 123.75,-404.63 130.59,-403.15"/>
</g>
<!-- Node0x5569a14264e8&#45;&gt;Node0x5569a142b998 -->
<g id="edge47" class="edge">
<title>Node0x5569a14264e8&#45;&gt;Node0x5569a142b998</title>
<path fill="none" stroke="#7fb2ff" d="M301.7,-691.26C282.24,-684.65 264.92,-673.67 254,-656 244.65,-640.88 244.65,-511.12 254,-496 262.25,-482.66 274.13,-473.13 287.84,-466.42"/>
<polygon fill="#7fb2ff" stroke="#7fb2ff" points="289.31,-469.59 297.09,-462.4 286.52,-463.17 289.31,-469.59"/>
</g>
<!-- Node0x5569a14264e8&#45;&gt;Node0x5569a1425f98 -->
<g id="edge48" class="edge">
<title>Node0x5569a14264e8&#45;&gt;Node0x5569a1425f98</title>
<path fill="none" stroke="#7fb2ff" d="M301.92,-691.25C284.81,-684.92 269.75,-674.78 260,-659 247.15,-638.21 247.15,-459.79 260,-439 264.93,-431.03 271.21,-424.49 278.43,-419.16"/>
<polygon fill="#7fb2ff" stroke="#7fb2ff" points="280.8,-421.8 287.31,-413.45 277.01,-415.92 280.8,-421.8"/>
</g>
<!-- Node0x5569a14264e8&#45;&gt;Node0x5569a1428b08 -->
<g id="edge50" class="edge">
<title>Node0x5569a14264e8&#45;&gt;Node0x5569a1428b08</title>
<path fill="none" stroke="#7fb2ff" d="M301.92,-691.25C284.81,-684.92 269.75,-674.78 260,-659 243.99,-633.1 243.99,-410.9 260,-385 262.92,-380.27 266.33,-376.04 270.12,-372.28"/>
<polygon fill="#7fb2ff" stroke="#7fb2ff" points="272.59,-374.77 277.87,-365.58 268.01,-369.47 272.59,-374.77"/>
</g>
<!-- Node0x5569a14264e8&#45;&gt;Node0x5569a14291e8 -->
<g id="edge51" class="edge">
<title>Node0x5569a14264e8&#45;&gt;Node0x5569a14291e8</title>
<path fill="none" stroke="#7fb2ff" d="M301.92,-691.25C284.81,-684.92 269.75,-674.78 260,-659 246.16,-636.6 246.16,-207.4 260,-185 266.25,-174.89 274.67,-167.1 284.42,-161.14"/>
<polygon fill="#7fb2ff" stroke="#7fb2ff" points="286.15,-164.18 293.3,-156.36 282.83,-158.02 286.15,-164.18"/>
</g>
<!-- Node0x5569a14264e8&#45;&gt;Node0x5569a143f858 -->
<g id="edge49" class="edge">
<title>Node0x5569a14264e8&#45;&gt;Node0x5569a143f858</title>
<path fill="none" stroke="#7fb2ff" d="M542.43,-676.93C551.93,-672.44 560.67,-666.59 568,-659 642.3,-582.03 542.52,-508.55 604,-421 619.05,-399.57 641.63,-383.26 664.7,-371.48"/>
<polygon fill="#7fb2ff" stroke="#7fb2ff" points="666.43,-374.53 673.9,-367.02 663.38,-368.23 666.43,-374.53"/>
</g>
<!-- Node0x5569a1424f08 -->
<g id="node14" class="node">
<title>Node0x5569a1424f08</title>
<polygon fill="#7fb2ff" stroke="black" points="868,-475 641,-475 641,-439 868,-439 868,-475"/>
<text text-anchor="middle" x="754.5" y="-453.3" font-family="Times,serif" font-size="14.00">{lib/liblldCOFF.a(DLL.cpp.o)}</text>
</g>
<!-- Node0x5569a14264e8&#45;&gt;Node0x5569a1424f08 -->
<g id="edge52" class="edge">
<title>Node0x5569a14264e8&#45;&gt;Node0x5569a1424f08</title>
<path fill="none" stroke="#7fb2ff" d="M544.14,-684.05C552.86,-679.9 560.98,-674.64 568,-668 616.57,-622.09 560.88,-573.06 604,-522 620.6,-502.34 644.27,-488.44 667.89,-478.7"/>
<polygon fill="#7fb2ff" stroke="#7fb2ff" points="669.24,-481.93 677.28,-475.03 666.69,-475.41 669.24,-481.93"/>
</g>
<!-- Node0x5569a1424af8 -->
<g id="node15" class="node">
<title>Node0x5569a1424af8</title>
<polygon fill="#7fb2ff" stroke="black" points="905,-713 604,-713 604,-677 905,-677 905,-713"/>
<text text-anchor="middle" x="754.5" y="-691.3" font-family="Times,serif" font-size="14.00">{lib/liblldCOFF.a(CallGraphSort.cpp.o)}</text>
</g>
<!-- Node0x5569a14264e8&#45;&gt;Node0x5569a1424af8 -->
<g id="edge53" class="edge">
<title>Node0x5569a14264e8&#45;&gt;Node0x5569a1424af8</title>
<path fill="none" stroke="#7fb2ff" d="M544.36,-688.47C560.34,-688.31 576.93,-688.24 593.45,-688.25"/>
<polygon fill="#7fb2ff" stroke="#7fb2ff" points="593.72,-691.75 603.73,-688.27 593.74,-684.75 593.72,-691.75"/>
</g>
<!-- Node0x5569a1425278 -->
<g id="node16" class="node">
<title>Node0x5569a1425278</title>
<polygon fill="#7fb2ff" stroke="black" points="897.5,-567 611.5,-567 611.5,-531 897.5,-531 897.5,-567"/>
<text text-anchor="middle" x="754.5" y="-545.3" font-family="Times,serif" font-size="14.00">{lib/liblldCOFF.a(LLDMapFile.cpp.o)}</text>
</g>
<!-- Node0x5569a14264e8&#45;&gt;Node0x5569a1425278 -->
<g id="edge54" class="edge">
<title>Node0x5569a14264e8&#45;&gt;Node0x5569a1425278</title>
<path fill="none" stroke="#7fb2ff" d="M544.06,-680.35C552.49,-676.98 560.57,-672.91 568,-668 592.06,-652.09 581.87,-632.5 604,-614 626.53,-595.16 655.35,-580.92 681.67,-570.64"/>
<polygon fill="#7fb2ff" stroke="#7fb2ff" points="683.11,-573.83 691.24,-567.03 680.64,-567.28 683.11,-573.83"/>
</g>
<!-- Node0x5569a1428ab8 -->
<g id="node17" class="node">
<title>Node0x5569a1428ab8</title>
<polygon fill="#7fb2ff" stroke="black" points="883,-659 626,-659 626,-623 883,-623 883,-659"/>
<text text-anchor="middle" x="754.5" y="-637.3" font-family="Times,serif" font-size="14.00">{lib/liblldCOFF.a(MapFile.cpp.o)}</text>
</g>
<!-- Node0x5569a14264e8&#45;&gt;Node0x5569a1428ab8 -->
<g id="edge55" class="edge">
<title>Node0x5569a14264e8&#45;&gt;Node0x5569a1428ab8</title>
<path fill="none" stroke="#7fb2ff" d="M498.77,-676.99C533.34,-670.47 575.54,-663.25 615.56,-656.94"/>
<polygon fill="#7fb2ff" stroke="#7fb2ff" points="616.35,-660.36 625.68,-655.35 615.26,-653.44 616.35,-660.36"/>
</g>
<!-- Node0x5569a143f858&#45;&gt;Node0x5569a1422b68 -->
<g id="edge56" class="edge">
<title>Node0x5569a143f858&#45;&gt;Node0x5569a1422b68</title>
<path fill="none" stroke="#7fb2ff" d="M656.73,-330.99C560.16,-315.94 407.85,-300.16 278,-322 241.28,-328.18 201.64,-341.99 171.51,-354.11"/>
<polygon fill="#7fb2ff" stroke="#7fb2ff" points="170.01,-350.94 162.08,-357.97 172.66,-357.42 170.01,-350.94"/>
</g>
<!-- Node0x5569a143f858&#45;&gt;Node0x5569a142a048 -->
<g id="edge57" class="edge">
<title>Node0x5569a143f858&#45;&gt;Node0x5569a142a048</title>
<path fill="none" stroke="#7fb2ff" d="M741.84,-330.79C716.95,-287.92 653.79,-181.9 568,-131 557.3,-124.65 545.43,-119.74 533.23,-115.89"/>
<polygon fill="#7fb2ff" stroke="#7fb2ff" points="533.97,-112.46 523.39,-113.02 532.01,-119.18 533.97,-112.46"/>
</g>
<!-- Node0x5569a143f858&#45;&gt;Node0x5569a142b998 -->
<g id="edge58" class="edge">
<title>Node0x5569a143f858&#45;&gt;Node0x5569a142b998</title>
<path fill="none" stroke="#7fb2ff" d="M718.5,-367.14C681.87,-385.44 622.24,-413.31 568,-430 560.31,-432.37 552.32,-434.56 544.22,-436.59"/>
<polygon fill="#7fb2ff" stroke="#7fb2ff" points="543.21,-433.23 534.31,-438.98 544.85,-440.04 543.21,-433.23"/>
</g>
<!-- Node0x5569a143f858&#45;&gt;Node0x5569a1425f98 -->
<g id="edge59" class="edge">
<title>Node0x5569a143f858&#45;&gt;Node0x5569a1425f98</title>
<path fill="none" stroke="#7fb2ff" d="M643.43,-367.04C611.56,-372.26 576.61,-377.99 544.16,-383.31"/>
<polygon fill="#7fb2ff" stroke="#7fb2ff" points="543.48,-379.87 534.18,-384.94 544.61,-386.78 543.48,-379.87"/>
</g>
<!-- Node0x5569a143f858&#45;&gt;Node0x5569a14291e8 -->
<g id="edge60" class="edge">
<title>Node0x5569a143f858&#45;&gt;Node0x5569a14291e8</title>
<path fill="none" stroke="#7fb2ff" d="M739.98,-330.81C712.15,-294.84 644.64,-214.73 568,-176 564.23,-174.1 560.35,-172.33 556.38,-170.68"/>
<polygon fill="#7fb2ff" stroke="#7fb2ff" points="557.57,-167.39 546.98,-167.06 555.05,-173.92 557.57,-167.39"/>
</g>
<!-- Node0x5569a143f858&#45;&gt;Node0x5569a14264e8 -->
<g id="edge61" class="edge">
<title>Node0x5569a143f858&#45;&gt;Node0x5569a14264e8</title>
<path fill="none" stroke="#7fb2ff" d="M712.64,-367.05C677.97,-380.47 629.87,-402.16 604,-439 542.52,-526.55 642.3,-600.03 568,-677 563.48,-681.68 558.42,-685.7 552.98,-689.13"/>
<polygon fill="#7fb2ff" stroke="#7fb2ff" points="551.18,-686.12 544.14,-694.04 554.58,-692.24 551.18,-686.12"/>
</g>
<!-- Node0x5569a1424f08&#45;&gt;Node0x5569a1422b68 -->
<g id="edge62" class="edge">
<title>Node0x5569a1424f08&#45;&gt;Node0x5569a1422b68</title>
<path fill="none" stroke="#7fb2ff" d="M711.57,-475.12C681.58,-488.11 640.27,-506.05 604,-522 587.97,-529.05 585.13,-534.37 568,-538 441.92,-564.76 396.61,-588.44 278,-538 213.14,-510.41 162.18,-441.17 137.77,-402.75"/>
<polygon fill="#7fb2ff" stroke="#7fb2ff" points="140.67,-400.78 132.42,-394.13 134.72,-404.48 140.67,-400.78"/>
</g>
<!-- Node0x5569a1424f08&#45;&gt;Node0x5569a142b998 -->
<g id="edge63" class="edge">
<title>Node0x5569a1424f08&#45;&gt;Node0x5569a142b998</title>
<path fill="none" stroke="#7fb2ff" d="M640.94,-457C614.45,-457 585.94,-457 558.59,-457"/>
<polygon fill="#7fb2ff" stroke="#7fb2ff" points="558.57,-453.5 548.57,-457 558.57,-460.5 558.57,-453.5"/>
</g>
<!-- Node0x5569a1424f08&#45;&gt;Node0x5569a1428b08 -->
<g id="edge64" class="edge">
<title>Node0x5569a1424f08&#45;&gt;Node0x5569a1428b08</title>
<path fill="none" stroke="#7fb2ff" d="M718.5,-438.86C681.87,-420.56 622.24,-392.69 568,-376 560.31,-373.63 552.32,-371.44 544.22,-369.41"/>
<polygon fill="#7fb2ff" stroke="#7fb2ff" points="544.85,-365.96 534.31,-367.02 543.21,-372.77 544.85,-365.96"/>
</g>
<!-- Node0x5569a1424f08&#45;&gt;Node0x5569a14291e8 -->
<g id="edge65" class="edge">
<title>Node0x5569a1424f08&#45;&gt;Node0x5569a14291e8</title>
<path fill="none" stroke="#7fb2ff" d="M693.86,-438.87C662.35,-426.23 625.8,-406.14 604,-376 551.07,-302.82 631.63,-240.1 568,-176 565.82,-173.8 563.51,-171.75 561.11,-169.84"/>
<polygon fill="#7fb2ff" stroke="#7fb2ff" points="562.76,-166.72 552.56,-163.86 558.75,-172.46 562.76,-166.72"/>
</g>
<!-- Node0x5569a1424af8&#45;&gt;Node0x5569a1422b68 -->
<g id="edge66" class="edge">
<title>Node0x5569a1424af8&#45;&gt;Node0x5569a1422b68</title>
<path fill="none" stroke="#7fb2ff" d="M718.54,-713.03C634.6,-753.55 418.23,-841.26 278,-748 158.19,-668.32 130.21,-476.94 123.83,-404.46"/>
<polygon fill="#7fb2ff" stroke="#7fb2ff" points="127.3,-403.96 123.01,-394.27 120.32,-404.52 127.3,-403.96"/>
</g>
<!-- Node0x5569a1424af8&#45;&gt;Node0x5569a14291e8 -->
<g id="edge67" class="edge">
<title>Node0x5569a1424af8&#45;&gt;Node0x5569a14291e8</title>
<path fill="none" stroke="#7fb2ff" d="M613.43,-676.82C610.07,-674.17 606.91,-671.24 604,-668 530.68,-586.5 641.04,-257.75 568,-176 565.71,-173.44 563.26,-171.07 560.68,-168.89"/>
<polygon fill="#7fb2ff" stroke="#7fb2ff" points="562.67,-166.01 552.55,-162.87 558.5,-171.63 562.67,-166.01"/>
</g>
<!-- Node0x5569a1424af8&#45;&gt;Node0x5569a14264e8 -->
<g id="edge68" class="edge">
<title>Node0x5569a1424af8&#45;&gt;Node0x5569a14264e8</title>
<path fill="none" stroke="#7fb2ff" d="M603.73,-701.73C587.26,-701.78 570.59,-701.74 554.38,-701.62"/>
<polygon fill="#7fb2ff" stroke="#7fb2ff" points="554.39,-698.12 544.36,-701.53 554.32,-705.12 554.39,-698.12"/>
</g>
<!-- Node0x5569a1425278&#45;&gt;Node0x5569a1422b68 -->
<g id="edge69" class="edge">
<title>Node0x5569a1425278&#45;&gt;Node0x5569a1422b68</title>
<path fill="none" stroke="#7fb2ff" d="M696.69,-567.06C603.96,-593.15 416.53,-631.5 278,-566 206.26,-532.08 156.43,-447.2 134.54,-403.28"/>
<polygon fill="#7fb2ff" stroke="#7fb2ff" points="137.57,-401.52 130.05,-394.06 131.28,-404.58 137.57,-401.52"/>
</g>
<!-- Node0x5569a1425278&#45;&gt;Node0x5569a1425f98 -->
<g id="edge70" class="edge">
<title>Node0x5569a1425278&#45;&gt;Node0x5569a1425f98</title>
<path fill="none" stroke="#7fb2ff" d="M691.24,-530.97C662.53,-520.51 629.29,-505.15 604,-484 581.87,-465.5 592.06,-445.91 568,-430 565.69,-428.47 563.32,-427.03 560.9,-425.66"/>
<polygon fill="#7fb2ff" stroke="#7fb2ff" points="562.39,-422.49 551.89,-421.04 559.19,-428.72 562.39,-422.49"/>
</g>
<!-- Node0x5569a1425278&#45;&gt;Node0x5569a14291e8 -->
<g id="edge71" class="edge">
<title>Node0x5569a1425278&#45;&gt;Node0x5569a14291e8</title>
<path fill="none" stroke="#7fb2ff" d="M672.23,-530.88C646.58,-521.17 620.61,-506.39 604,-484 521.86,-373.33 662.03,-276.76 568,-176 565.84,-173.69 563.56,-171.54 561.16,-169.54"/>
<polygon fill="#7fb2ff" stroke="#7fb2ff" points="562.75,-166.37 552.6,-163.31 558.63,-172.03 562.75,-166.37"/>
</g>
<!-- Node0x5569a1428ab8&#45;&gt;Node0x5569a1422b68 -->
<g id="edge72" class="edge">
<title>Node0x5569a1428ab8&#45;&gt;Node0x5569a1422b68</title>
<path fill="none" stroke="#7fb2ff" d="M625.89,-656.51C618.21,-659.72 610.84,-663.51 604,-668 579.88,-683.83 593.43,-708.39 568,-722 511.18,-752.41 332.13,-756.97 278,-722 165.31,-649.19 133.19,-473.33 124.77,-404.4"/>
<polygon fill="#7fb2ff" stroke="#7fb2ff" points="128.22,-403.82 123.61,-394.28 121.27,-404.62 128.22,-403.82"/>
</g>
<!-- Node0x5569a1428ab8&#45;&gt;Node0x5569a1425f98 -->
<g id="edge73" class="edge">
<title>Node0x5569a1428ab8&#45;&gt;Node0x5569a1425f98</title>
<path fill="none" stroke="#7fb2ff" d="M677.28,-622.97C650.68,-613.15 622.81,-598.27 604,-576 560.88,-524.94 616.57,-475.91 568,-430 567.01,-429.07 566,-428.16 564.97,-427.28"/>
<polygon fill="#7fb2ff" stroke="#7fb2ff" points="566.8,-424.27 556.71,-421.04 562.58,-429.86 566.8,-424.27"/>
</g>
<!-- Node0x5569a1428ab8&#45;&gt;Node0x5569a14291e8 -->
<g id="edge74" class="edge">
<title>Node0x5569a1428ab8&#45;&gt;Node0x5569a14291e8</title>
<path fill="none" stroke="#7fb2ff" d="M671.5,-622.98C645.95,-613.29 620.23,-598.49 604,-576 551.77,-503.63 628.02,-242.05 568,-176 565.88,-173.66 563.62,-171.49 561.24,-169.46"/>
<polygon fill="#7fb2ff" stroke="#7fb2ff" points="562.88,-166.32 552.76,-163.16 558.7,-171.94 562.88,-166.32"/>
</g>
<!-- Node0x5569a1428ab8&#45;&gt;Node0x5569a14264e8 -->
<g id="edge75" class="edge">
<title>Node0x5569a1428ab8&#45;&gt;Node0x5569a14264e8</title>
<path fill="none" stroke="#7fb2ff" d="M678.45,-659.07C641.76,-665.98 596.52,-673.67 554.42,-680.24"/>
<polygon fill="#7fb2ff" stroke="#7fb2ff" points="553.7,-676.81 544.36,-681.8 554.77,-683.73 553.7,-676.81"/>
</g>
</g>
</svg>
