<?xml version="1.0" encoding="UTF-8" standalone="no"?>
<!DOCTYPE svg PUBLIC "-//W3C//DTD SVG 1.1//EN"
 "http://www.w3.org/Graphics/SVG/1.1/DTD/svg11.dtd">
<!-- Generated by graphviz version 2.43.0 (0)
 -->
<!-- Title: bin/llvm&#45;readobj_lib/libLLVMBinaryFormat.a Pages: 1 -->
<svg width="1399pt" height="364pt"
 viewBox="0.00 0.00 1399.00 364.00" xmlns="http://www.w3.org/2000/svg" xmlns:xlink="http://www.w3.org/1999/xlink">
<g id="graph0" class="graph" transform="scale(1 1) rotate(0) translate(4 360)">
<title>bin/llvm&#45;readobj_lib/libLLVMBinaryFormat.a</title>
<polygon fill="white" stroke="transparent" points="-4,4 -4,-360 1395,-360 1395,4 -4,4"/>
<text text-anchor="middle" x="695.5" y="-7.8" font-family="Times,serif" font-size="14.00">bin/llvm&#45;readobj_lib/libLLVMBinaryFormat.a</text>
<!-- Node0x55b190137c68 -->
<g id="node1" class="node">
<title>Node0x55b190137c68</title>
<polygon fill="none" stroke="black" points="467,-86 0,-86 0,-50 467,-50 467,-86"/>
<text text-anchor="middle" x="233.5" y="-64.3" font-family="Times,serif" font-size="14.00">{lib/libLLVMBinaryFormat.a(AMDGPUMetadataVerifier.cpp.o)}</text>
</g>
<!-- Node0x55b190134838 -->
<g id="node2" class="node">
<title>Node0x55b190134838</title>
<polygon fill="none" stroke="black" points="940.5,-59 523.5,-59 523.5,-23 940.5,-23 940.5,-59"/>
<text text-anchor="middle" x="732" y="-37.3" font-family="Times,serif" font-size="14.00">{lib/libLLVMBinaryFormat.a(MsgPackDocument.cpp.o)}</text>
</g>
<!-- Node0x55b190137c68&#45;&gt;Node0x55b190134838 -->
<g id="edge1" class="edge">
<title>Node0x55b190137c68&#45;&gt;Node0x55b190134838</title>
<path fill="none" stroke="black" d="M467.12,-55.35C482.53,-54.51 498.02,-53.67 513.36,-52.84"/>
<polygon fill="black" stroke="black" points="513.61,-56.33 523.41,-52.29 513.23,-49.34 513.61,-56.33"/>
</g>
<!-- Node0x55b190134f68 -->
<g id="node3" class="node">
<title>Node0x55b190134f68</title>
<polygon fill="none" stroke="black" points="961,-113 503,-113 503,-77 961,-77 961,-113"/>
<text text-anchor="middle" x="732" y="-91.3" font-family="Times,serif" font-size="14.00">{lib/libLLVMBinaryFormat.a(MsgPackDocumentYAML.cpp.o)}</text>
</g>
<!-- Node0x55b190137c68&#45;&gt;Node0x55b190134f68 -->
<g id="edge2" class="edge">
<title>Node0x55b190137c68&#45;&gt;Node0x55b190134f68</title>
<path fill="none" stroke="black" d="M467.12,-80.65C475.64,-81.11 484.18,-81.58 492.71,-82.04"/>
<polygon fill="black" stroke="black" points="492.54,-85.54 502.71,-82.59 492.92,-78.55 492.54,-85.54"/>
</g>
<!-- Node0x55b1901356e8 -->
<g id="node4" class="node">
<title>Node0x55b1901356e8</title>
<polygon fill="none" stroke="black" points="1391,-59 997,-59 997,-23 1391,-23 1391,-59"/>
<text text-anchor="middle" x="1194" y="-37.3" font-family="Times,serif" font-size="14.00">{lib/libLLVMBinaryFormat.a(MsgPackReader.cpp.o)}</text>
</g>
<!-- Node0x55b190134838&#45;&gt;Node0x55b1901356e8 -->
<g id="edge3" class="edge">
<title>Node0x55b190134838&#45;&gt;Node0x55b1901356e8</title>
<path fill="none" stroke="black" d="M940.79,-41C956.13,-41 971.59,-41 986.91,-41"/>
<polygon fill="black" stroke="black" points="986.96,-44.5 996.96,-41 986.96,-37.5 986.96,-44.5"/>
</g>
<!-- Node0x55b190134f68&#45;&gt;Node0x55b190134838 -->
<g id="edge4" class="edge">
<title>Node0x55b190134f68&#45;&gt;Node0x55b190134838</title>
<path fill="none" stroke="black" d="M732,-76.79C732,-74.31 732,-71.83 732,-69.34"/>
<polygon fill="black" stroke="black" points="735.5,-69.14 732,-59.14 728.5,-69.14 735.5,-69.14"/>
</g>
<!-- Node0x55b190134b58 -->
<g id="node5" class="node">
<title>Node0x55b190134b58</title>
<polygon fill="none" stroke="black" points="395.5,-140 71.5,-140 71.5,-104 395.5,-104 395.5,-140"/>
<text text-anchor="middle" x="233.5" y="-118.3" font-family="Times,serif" font-size="14.00">{lib/libLLVMBinaryFormat.a(Magic.cpp.o)}</text>
</g>
<!-- Node0x55b1901364a8 -->
<g id="node6" class="node">
<title>Node0x55b1901364a8</title>
<polygon fill="none" stroke="black" points="395,-194 72,-194 72,-158 395,-158 395,-194"/>
<text text-anchor="middle" x="233.5" y="-172.3" font-family="Times,serif" font-size="14.00">{lib/libLLVMBinaryFormat.a(Wasm.cpp.o)}</text>
</g>
<!-- Node0x55b190136fe8 -->
<g id="node7" class="node">
<title>Node0x55b190136fe8</title>
<polygon fill="none" stroke="black" points="395,-248 72,-248 72,-212 395,-212 395,-248"/>
<text text-anchor="middle" x="233.5" y="-226.3" font-family="Times,serif" font-size="14.00">{lib/libLLVMBinaryFormat.a(Dwarf.cpp.o)}</text>
</g>
<!-- Node0x55b190136c78 -->
<g id="node8" class="node">
<title>Node0x55b190136c78</title>
<polygon fill="none" stroke="black" points="398,-302 69,-302 69,-266 398,-266 398,-302"/>
<text text-anchor="middle" x="233.5" y="-280.3" font-family="Times,serif" font-size="14.00">{lib/libLLVMBinaryFormat.a(XCOFF.cpp.o)}</text>
</g>
<!-- Node0x55b190135d28 -->
<g id="node9" class="node">
<title>Node0x55b190135d28</title>
<polygon fill="none" stroke="black" points="428,-356 39,-356 39,-320 428,-320 428,-356"/>
<text text-anchor="middle" x="233.5" y="-334.3" font-family="Times,serif" font-size="14.00">{lib/libLLVMBinaryFormat.a(MsgPackWriter.cpp.o)}</text>
</g>
</g>
</svg>
