<?xml version="1.0" encoding="UTF-8" standalone="no"?>
<!DOCTYPE svg PUBLIC "-//W3C//DTD SVG 1.1//EN"
 "http://www.w3.org/Graphics/SVG/1.1/DTD/svg11.dtd">
<!-- Generated by graphviz version 2.43.0 (0)
 -->
<!-- Title: bin/llvm&#45;readobj_lib/libLLVMDebugInfoCodeView.a Pages: 1 -->
<svg width="4831pt" height="863pt"
 viewBox="0.00 0.00 4831.00 863.00" xmlns="http://www.w3.org/2000/svg" xmlns:xlink="http://www.w3.org/1999/xlink">
<g id="graph0" class="graph" transform="scale(1 1) rotate(0) translate(4 859)">
<title>bin/llvm&#45;readobj_lib/libLLVMDebugInfoCodeView.a</title>
<polygon fill="white" stroke="transparent" points="-4,4 -4,-859 4827,-859 4827,4 -4,4"/>
<text text-anchor="middle" x="2411.5" y="-7.8" font-family="Times,serif" font-size="14.00">bin/llvm&#45;readobj_lib/libLLVMDebugInfoCodeView.a</text>
<!-- Node0x55b190137218 -->
<g id="node1" class="node">
<title>Node0x55b190137218</title>
<polygon fill="none" stroke="black" points="4823,-403 4390,-403 4390,-367 4823,-367 4823,-403"/>
<text text-anchor="middle" x="4606.5" y="-381.3" font-family="Times,serif" font-size="14.00">{lib/libLLVMDebugInfoCodeView.a(CodeViewError.cpp.o)}</text>
</g>
<!-- Node0x55b190137f38 -->
<g id="node2" class="node">
<title>Node0x55b190137f38</title>
<polygon fill="none" stroke="black" points="2671.5,-389 2246.5,-389 2246.5,-353 2671.5,-353 2671.5,-389"/>
<text text-anchor="middle" x="2459" y="-367.3" font-family="Times,serif" font-size="14.00">{lib/libLLVMDebugInfoCodeView.a(CVTypeVisitor.cpp.o)}</text>
</g>
<!-- Node0x55b190137f38&#45;&gt;Node0x55b190137218 -->
<g id="edge1" class="edge">
<title>Node0x55b190137f38&#45;&gt;Node0x55b190137218</title>
<path fill="none" stroke="black" d="M2671.59,-372.38C3077.69,-375.03 3962.99,-380.81 4379.87,-383.53"/>
<polygon fill="black" stroke="black" points="4379.91,-387.03 4389.93,-383.59 4379.95,-380.03 4379.91,-387.03"/>
</g>
<!-- Node0x55b1901350a8 -->
<g id="node3" class="node">
<title>Node0x55b1901350a8</title>
<polygon fill="none" stroke="black" points="3259,-323 2786,-323 2786,-287 3259,-287 3259,-323"/>
<text text-anchor="middle" x="3022.5" y="-301.3" font-family="Times,serif" font-size="14.00">{lib/libLLVMDebugInfoCodeView.a(TypeRecordMapping.cpp.o)}</text>
</g>
<!-- Node0x55b190137f38&#45;&gt;Node0x55b1901350a8 -->
<g id="edge2" class="edge">
<title>Node0x55b190137f38&#45;&gt;Node0x55b1901350a8</title>
<path fill="none" stroke="black" d="M2566.94,-353C2633.46,-344.01 2721.44,-333.28 2802.27,-324.17"/>
<polygon fill="black" stroke="black" points="2803.05,-327.6 2812.6,-323.01 2802.27,-320.64 2803.05,-327.6"/>
</g>
<!-- Node0x55b1901350a8&#45;&gt;Node0x55b190137218 -->
<g id="edge33" class="edge">
<title>Node0x55b1901350a8&#45;&gt;Node0x55b190137218</title>
<path fill="none" stroke="black" d="M3106.38,-287C3317.87,-244.28 3893.35,-148.29 4354,-258 4437.59,-277.91 4524.89,-330.3 4571.45,-361.22"/>
<polygon fill="black" stroke="black" points="4569.68,-364.24 4579.93,-366.91 4573.58,-358.43 4569.68,-364.24"/>
</g>
<!-- Node0x55b1901350a8&#45;&gt;Node0x55b190137f38 -->
<g id="edge34" class="edge">
<title>Node0x55b1901350a8&#45;&gt;Node0x55b190137f38</title>
<path fill="none" stroke="black" d="M2914.22,-323.05C2847.78,-332.02 2760.03,-342.73 2679.39,-351.82"/>
<polygon fill="black" stroke="black" points="2678.63,-348.38 2669.08,-352.97 2679.41,-355.34 2678.63,-348.38"/>
</g>
<!-- Node0x55b19013a788 -->
<g id="node15" class="node">
<title>Node0x55b19013a788</title>
<polygon fill="none" stroke="black" points="3764,-357 3351,-357 3351,-321 3764,-321 3764,-357"/>
<text text-anchor="middle" x="3557.5" y="-335.3" font-family="Times,serif" font-size="14.00">{lib/libLLVMDebugInfoCodeView.a(EnumTables.cpp.o)}</text>
</g>
<!-- Node0x55b1901350a8&#45;&gt;Node0x55b19013a788 -->
<g id="edge35" class="edge">
<title>Node0x55b1901350a8&#45;&gt;Node0x55b19013a788</title>
<path fill="none" stroke="black" d="M3259.22,-320.04C3286.28,-321.76 3313.76,-323.52 3340.54,-325.22"/>
<polygon fill="black" stroke="black" points="3340.57,-328.73 3350.77,-325.88 3341.01,-321.75 3340.57,-328.73"/>
</g>
<!-- Node0x55b19013cbc8 -->
<g id="node25" class="node">
<title>Node0x55b19013cbc8</title>
<polygon fill="none" stroke="black" points="3788,-303 3327,-303 3327,-267 3788,-267 3788,-303"/>
<text text-anchor="middle" x="3557.5" y="-281.3" font-family="Times,serif" font-size="14.00">{lib/libLLVMDebugInfoCodeView.a(CodeViewRecordIO.cpp.o)}</text>
</g>
<!-- Node0x55b1901350a8&#45;&gt;Node0x55b19013cbc8 -->
<g id="edge36" class="edge">
<title>Node0x55b1901350a8&#45;&gt;Node0x55b19013cbc8</title>
<path fill="none" stroke="black" d="M3259.22,-296.15C3278.24,-295.44 3297.46,-294.72 3316.51,-294.01"/>
<polygon fill="black" stroke="black" points="3316.89,-297.49 3326.76,-293.62 3316.63,-290.5 3316.89,-297.49"/>
</g>
<!-- Node0x55b1901361d8 -->
<g id="node4" class="node">
<title>Node0x55b1901361d8</title>
<polygon fill="none" stroke="black" points="531,-274 0,-274 0,-238 531,-238 531,-274"/>
<text text-anchor="middle" x="265.5" y="-252.3" font-family="Times,serif" font-size="14.00">{lib/libLLVMDebugInfoCodeView.a(DebugChecksumsSubsection.cpp.o)}</text>
</g>
<!-- Node0x55b190135c88 -->
<g id="node5" class="node">
<title>Node0x55b190135c88</title>
<polygon fill="none" stroke="black" points="4354,-59 3824,-59 3824,-23 4354,-23 4354,-59"/>
<text text-anchor="middle" x="4089" y="-37.3" font-family="Times,serif" font-size="14.00">{lib/libLLVMDebugInfoCodeView.a(DebugFrameDataSubsection.cpp.o)}</text>
</g>
<!-- Node0x55b190135c88&#45;&gt;Node0x55b190137218 -->
<g id="edge3" class="edge">
<title>Node0x55b190135c88&#45;&gt;Node0x55b190137218</title>
<path fill="none" stroke="black" d="M4323.93,-59.09C4334.33,-63.07 4344.41,-67.68 4354,-73 4476.43,-140.92 4561.79,-294.85 4592.7,-357.6"/>
<polygon fill="black" stroke="black" points="4589.68,-359.39 4597.2,-366.86 4595.98,-356.33 4589.68,-359.39"/>
</g>
<!-- Node0x55b190136908 -->
<g id="node6" class="node">
<title>Node0x55b190136908</title>
<polygon fill="none" stroke="black" points="3291,-801 2754,-801 2754,-765 3291,-765 3291,-801"/>
<text text-anchor="middle" x="3022.5" y="-779.3" font-family="Times,serif" font-size="14.00">{lib/libLLVMDebugInfoCodeView.a(DebugInlineeLinesSubsection.cpp.o)}</text>
</g>
<!-- Node0x55b19013c768 -->
<g id="node7" class="node">
<title>Node0x55b19013c768</title>
<polygon fill="none" stroke="black" points="3782.5,-782 3332.5,-782 3332.5,-746 3782.5,-746 3782.5,-782"/>
<text text-anchor="middle" x="3557.5" y="-760.3" font-family="Times,serif" font-size="14.00">{lib/libLLVMDebugInfoCodeView.a(DebugSubsection.cpp.o)}</text>
</g>
<!-- Node0x55b190136908&#45;&gt;Node0x55b19013c768 -->
<g id="edge4" class="edge">
<title>Node0x55b190136908&#45;&gt;Node0x55b19013c768</title>
<path fill="none" stroke="black" d="M3291.17,-773.46C3301.49,-773.09 3311.8,-772.72 3322.05,-772.36"/>
<polygon fill="black" stroke="black" points="3322.4,-775.85 3332.27,-771.99 3322.15,-768.85 3322.4,-775.85"/>
</g>
<!-- Node0x55b190134d88 -->
<g id="node8" class="node">
<title>Node0x55b190134d88</title>
<polygon fill="none" stroke="black" points="3266.5,-709 2778.5,-709 2778.5,-673 3266.5,-673 3266.5,-709"/>
<text text-anchor="middle" x="3022.5" y="-687.3" font-family="Times,serif" font-size="14.00">{lib/libLLVMDebugInfoCodeView.a(DebugLinesSubsection.cpp.o)}</text>
</g>
<!-- Node0x55b190134d88&#45;&gt;Node0x55b190137218 -->
<g id="edge5" class="edge">
<title>Node0x55b190134d88&#45;&gt;Node0x55b190137218</title>
<path fill="none" stroke="black" d="M3266.66,-699.84C3623.85,-711.2 4258.56,-724.53 4354,-680 4476.44,-622.87 4561.51,-473.92 4592.53,-412.3"/>
<polygon fill="black" stroke="black" points="4595.74,-413.7 4597.04,-403.19 4589.46,-410.6 4595.74,-413.7"/>
</g>
<!-- Node0x55b190134d88&#45;&gt;Node0x55b19013c768 -->
<g id="edge6" class="edge">
<title>Node0x55b190134d88&#45;&gt;Node0x55b19013c768</title>
<path fill="none" stroke="black" d="M3181.68,-709.02C3217.65,-713.36 3255.67,-718.16 3291,-723 3338.26,-729.47 3390.12,-737.32 3435.38,-744.4"/>
<polygon fill="black" stroke="black" points="3435.11,-747.9 3445.53,-746 3436.19,-740.99 3435.11,-747.9"/>
</g>
<!-- Node0x55b19013cee8 -->
<g id="node9" class="node">
<title>Node0x55b19013cee8</title>
<polygon fill="none" stroke="black" points="3289,-855 2756,-855 2756,-819 3289,-819 3289,-855"/>
<text text-anchor="middle" x="3022.5" y="-833.3" font-family="Times,serif" font-size="14.00">{lib/libLLVMDebugInfoCodeView.a(DebugStringTableSubsection.cpp.o)}</text>
</g>
<!-- Node0x55b19013cee8&#45;&gt;Node0x55b19013c768 -->
<g id="edge7" class="edge">
<title>Node0x55b19013cee8&#45;&gt;Node0x55b19013c768</title>
<path fill="none" stroke="black" d="M3218.37,-818.96C3242.85,-816.21 3267.53,-813.21 3291,-810 3344.33,-802.7 3403.36,-792.67 3452.2,-783.83"/>
<polygon fill="black" stroke="black" points="3452.92,-787.26 3462.14,-782.03 3451.67,-780.37 3452.92,-787.26"/>
</g>
<!-- Node0x55b19013b138 -->
<g id="node10" class="node">
<title>Node0x55b19013b138</title>
<polygon fill="none" stroke="black" points="1619,-549 1097,-549 1097,-513 1619,-513 1619,-549"/>
<text text-anchor="middle" x="1358" y="-527.3" font-family="Times,serif" font-size="14.00">{lib/libLLVMDebugInfoCodeView.a(LazyRandomTypeCollection.cpp.o)}</text>
</g>
<!-- Node0x55b19013b138&#45;&gt;Node0x55b190137218 -->
<g id="edge8" class="edge">
<title>Node0x55b19013b138&#45;&gt;Node0x55b190137218</title>
<path fill="none" stroke="black" d="M1619.27,-545.07C1841.9,-555.89 2170.92,-569 2458,-569 2458,-569 2458,-569 3558.5,-569 3931.94,-569 4369.15,-454.05 4536.01,-405.86"/>
<polygon fill="black" stroke="black" points="4537.03,-409.21 4545.66,-403.06 4535.08,-402.49 4537.03,-409.21"/>
</g>
<!-- Node0x55b19013a288 -->
<g id="node11" class="node">
<title>Node0x55b19013a288</title>
<polygon fill="none" stroke="black" points="2118,-503 1701,-503 1701,-467 2118,-467 2118,-503"/>
<text text-anchor="middle" x="1909.5" y="-481.3" font-family="Times,serif" font-size="14.00">{lib/libLLVMDebugInfoCodeView.a(RecordName.cpp.o)}</text>
</g>
<!-- Node0x55b19013b138&#45;&gt;Node0x55b19013a288 -->
<g id="edge9" class="edge">
<title>Node0x55b19013b138&#45;&gt;Node0x55b19013a288</title>
<path fill="none" stroke="black" d="M1574.21,-512.98C1612.45,-509.78 1652.32,-506.45 1690.64,-503.24"/>
<polygon fill="black" stroke="black" points="1691.2,-506.7 1700.88,-502.38 1690.62,-499.73 1691.2,-506.7"/>
</g>
<!-- Node0x55b19013dd98 -->
<g id="node12" class="node">
<title>Node0x55b19013dd98</title>
<polygon fill="none" stroke="black" points="3222,-449 2823,-449 2823,-413 3222,-413 3222,-449"/>
<text text-anchor="middle" x="3022.5" y="-427.3" font-family="Times,serif" font-size="14.00">{lib/libLLVMDebugInfoCodeView.a(TypeIndex.cpp.o)}</text>
</g>
<!-- Node0x55b19013b138&#45;&gt;Node0x55b19013dd98 -->
<g id="edge10" class="edge">
<title>Node0x55b19013b138&#45;&gt;Node0x55b19013dd98</title>
<path fill="none" stroke="black" d="M1619.31,-529.51C1777.04,-527.45 1982.23,-522.72 2164,-512 2228.35,-508.21 2595.07,-472.77 2827.62,-450.04"/>
<polygon fill="black" stroke="black" points="2828.29,-453.5 2837.9,-449.04 2827.61,-446.53 2828.29,-453.5"/>
</g>
<!-- Node0x55b19013a288&#45;&gt;Node0x55b190137f38 -->
<g id="edge39" class="edge">
<title>Node0x55b19013a288&#45;&gt;Node0x55b190137f38</title>
<path fill="none" stroke="black" d="M1996.95,-467C2096.2,-446.33 2258.56,-412.53 2361.75,-391.04"/>
<polygon fill="black" stroke="black" points="2362.47,-394.47 2371.55,-389 2361.05,-387.61 2362.47,-394.47"/>
</g>
<!-- Node0x55b19013bf48 -->
<g id="node17" class="node">
<title>Node0x55b19013bf48</title>
<polygon fill="none" stroke="black" points="3268,-503 2777,-503 2777,-467 3268,-467 3268,-503"/>
<text text-anchor="middle" x="3022.5" y="-481.3" font-family="Times,serif" font-size="14.00">{lib/libLLVMDebugInfoCodeView.a(SymbolRecordMapping.cpp.o)}</text>
</g>
<!-- Node0x55b19013a288&#45;&gt;Node0x55b19013bf48 -->
<g id="edge40" class="edge">
<title>Node0x55b19013a288&#45;&gt;Node0x55b19013bf48</title>
<path fill="none" stroke="black" d="M2118.17,-485C2301.67,-485 2569.9,-485 2766.4,-485"/>
<polygon fill="black" stroke="black" points="2766.59,-488.5 2776.59,-485 2766.59,-481.5 2766.59,-488.5"/>
</g>
<!-- Node0x55b190139b08 -->
<g id="node13" class="node">
<title>Node0x55b190139b08</title>
<polygon fill="none" stroke="black" points="4321.5,-303 3856.5,-303 3856.5,-267 4321.5,-267 4321.5,-303"/>
<text text-anchor="middle" x="4089" y="-281.3" font-family="Times,serif" font-size="14.00">{lib/libLLVMDebugInfoCodeView.a(RecordSerialization.cpp.o)}</text>
</g>
<!-- Node0x55b190139b08&#45;&gt;Node0x55b190137218 -->
<g id="edge11" class="edge">
<title>Node0x55b190139b08&#45;&gt;Node0x55b190137218</title>
<path fill="none" stroke="black" d="M4223.66,-303.03C4265.52,-309.27 4311.8,-316.78 4354,-325 4412.23,-336.34 4477.35,-351.96 4526.74,-364.42"/>
<polygon fill="black" stroke="black" points="4526.17,-367.88 4536.72,-366.95 4527.89,-361.1 4526.17,-367.88"/>
</g>
<!-- Node0x55b190139fb8 -->
<g id="node14" class="node">
<title>Node0x55b190139fb8</title>
<polygon fill="none" stroke="black" points="2676,-633 2242,-633 2242,-597 2676,-597 2676,-633"/>
<text text-anchor="middle" x="2459" y="-611.3" font-family="Times,serif" font-size="14.00">{lib/libLLVMDebugInfoCodeView.a(SymbolDumper.cpp.o)}</text>
</g>
<!-- Node0x55b190139fb8&#45;&gt;Node0x55b190137218 -->
<g id="edge12" class="edge">
<title>Node0x55b190139fb8&#45;&gt;Node0x55b190137218</title>
<path fill="none" stroke="black" d="M2676.16,-615.04C3156.45,-614.62 4276.28,-610.66 4354,-583 4453.27,-547.67 4543.46,-456.05 4583.56,-410.91"/>
<polygon fill="black" stroke="black" points="4586.27,-413.13 4590.23,-403.3 4581.01,-408.51 4586.27,-413.13"/>
</g>
<!-- Node0x55b190139fb8&#45;&gt;Node0x55b19013c768 -->
<g id="edge14" class="edge">
<title>Node0x55b190139fb8&#45;&gt;Node0x55b19013c768</title>
<path fill="none" stroke="black" d="M2499.89,-633.02C2555.52,-657.19 2660.13,-699.25 2754,-718 2808.43,-728.87 3105.16,-744 3322,-753.89"/>
<polygon fill="black" stroke="black" points="3322.12,-757.4 3332.27,-754.36 3322.44,-750.41 3322.12,-757.4"/>
</g>
<!-- Node0x55b190139fb8&#45;&gt;Node0x55b19013cee8 -->
<g id="edge13" class="edge">
<title>Node0x55b190139fb8&#45;&gt;Node0x55b19013cee8</title>
<path fill="none" stroke="black" d="M2479.83,-633.3C2524.66,-673.43 2638.93,-768.89 2754,-810 2760.13,-812.19 2766.39,-814.22 2772.74,-816.11"/>
<polygon fill="black" stroke="black" points="2772.21,-819.59 2782.79,-818.95 2774.12,-812.86 2772.21,-819.59"/>
</g>
<!-- Node0x55b190139fb8&#45;&gt;Node0x55b19013dd98 -->
<g id="edge18" class="edge">
<title>Node0x55b190139fb8&#45;&gt;Node0x55b19013dd98</title>
<path fill="none" stroke="black" d="M2529.98,-596.95C2585.17,-580.2 2661.91,-551.15 2718,-507 2739.24,-490.29 2730.53,-471.4 2754,-458 2772.2,-447.61 2792.24,-440.03 2812.91,-434.6"/>
<polygon fill="black" stroke="black" points="2813.9,-437.96 2822.78,-432.18 2812.23,-431.16 2813.9,-437.96"/>
</g>
<!-- Node0x55b190139fb8&#45;&gt;Node0x55b19013a788 -->
<g id="edge15" class="edge">
<title>Node0x55b190139fb8&#45;&gt;Node0x55b19013a788</title>
<path fill="none" stroke="black" d="M2676.36,-599.29C2884,-582.22 3181.68,-551.95 3291,-512 3386.3,-477.17 3482.08,-402.74 3528.19,-363.84"/>
<polygon fill="black" stroke="black" points="3530.61,-366.38 3535.95,-357.23 3526.07,-361.05 3530.61,-366.38"/>
</g>
<!-- Node0x55b19013ba48 -->
<g id="node16" class="node">
<title>Node0x55b19013ba48</title>
<polygon fill="none" stroke="black" points="4311,-671 3867,-671 3867,-635 4311,-635 4311,-671"/>
<text text-anchor="middle" x="4089" y="-649.3" font-family="Times,serif" font-size="14.00">{lib/libLLVMDebugInfoCodeView.a(CVSymbolVisitor.cpp.o)}</text>
</g>
<!-- Node0x55b190139fb8&#45;&gt;Node0x55b19013ba48 -->
<g id="edge16" class="edge">
<title>Node0x55b190139fb8&#45;&gt;Node0x55b19013ba48</title>
<path fill="none" stroke="black" d="M2676.19,-620.05C2982.83,-627.2 3541.72,-640.25 3856.51,-647.6"/>
<polygon fill="black" stroke="black" points="3856.6,-651.1 3866.68,-647.83 3856.77,-644.1 3856.6,-651.1"/>
</g>
<!-- Node0x55b190139fb8&#45;&gt;Node0x55b19013bf48 -->
<g id="edge17" class="edge">
<title>Node0x55b190139fb8&#45;&gt;Node0x55b19013bf48</title>
<path fill="none" stroke="black" d="M2562.62,-596.95C2611.35,-585.96 2669.42,-569.25 2718,-545 2736.14,-535.95 2735.25,-524.71 2754,-517 2764.29,-512.77 2774.97,-509.05 2785.89,-505.78"/>
<polygon fill="black" stroke="black" points="2786.89,-509.14 2795.55,-503.02 2784.97,-502.41 2786.89,-509.14"/>
</g>
<!-- Node0x55b19013ba48&#45;&gt;Node0x55b190137218 -->
<g id="edge43" class="edge">
<title>Node0x55b19013ba48&#45;&gt;Node0x55b190137218</title>
<path fill="none" stroke="black" d="M4311.23,-636.94C4326.01,-632.61 4340.41,-627.35 4354,-621 4459.12,-571.88 4549.21,-461.89 4586.79,-411.33"/>
<polygon fill="black" stroke="black" points="4589.68,-413.31 4592.77,-403.18 4584.03,-409.17 4589.68,-413.31"/>
</g>
<!-- Node0x55b19013bf48&#45;&gt;Node0x55b190137218 -->
<g id="edge41" class="edge">
<title>Node0x55b19013bf48&#45;&gt;Node0x55b190137218</title>
<path fill="none" stroke="black" d="M3268.09,-469.54C3571.51,-450.36 4084.72,-417.92 4379.35,-399.3"/>
<polygon fill="black" stroke="black" points="4379.98,-402.76 4389.73,-398.64 4379.53,-395.78 4379.98,-402.76"/>
</g>
<!-- Node0x55b19013bf48&#45;&gt;Node0x55b19013cbc8 -->
<g id="edge42" class="edge">
<title>Node0x55b19013bf48&#45;&gt;Node0x55b19013cbc8</title>
<path fill="none" stroke="black" d="M3268.08,-474.24C3276.18,-469.58 3283.86,-464.2 3291,-458 3341.47,-414.19 3276.89,-356.22 3327,-312 3328.02,-311.1 3329.04,-310.23 3330.08,-309.37"/>
<polygon fill="black" stroke="black" points="3332.44,-311.97 3338.3,-303.15 3328.22,-306.39 3332.44,-311.97"/>
</g>
<!-- Node0x55b190134bf8 -->
<g id="node18" class="node">
<title>Node0x55b190134bf8</title>
<polygon fill="none" stroke="black" points="1567.5,-243 1148.5,-243 1148.5,-207 1567.5,-207 1567.5,-243"/>
<text text-anchor="middle" x="1358" y="-221.3" font-family="Times,serif" font-size="14.00">{lib/libLLVMDebugInfoCodeView.a(TypeHashing.cpp.o)}</text>
</g>
<!-- Node0x55b19013a918 -->
<g id="node19" class="node">
<title>Node0x55b19013a918</title>
<polygon fill="none" stroke="black" points="2164,-243 1655,-243 1655,-207 2164,-207 2164,-243"/>
<text text-anchor="middle" x="1909.5" y="-221.3" font-family="Times,serif" font-size="14.00">{lib/libLLVMDebugInfoCodeView.a(MergingTypeTableBuilder.cpp.o)}</text>
</g>
<!-- Node0x55b190134bf8&#45;&gt;Node0x55b19013a918 -->
<g id="edge19" class="edge">
<title>Node0x55b190134bf8&#45;&gt;Node0x55b19013a918</title>
<path fill="none" stroke="black" d="M1567.53,-218.43C1592.72,-218.29 1618.71,-218.23 1644.56,-218.25"/>
<polygon fill="black" stroke="black" points="1644.85,-221.75 1654.85,-218.27 1644.86,-214.75 1644.85,-221.75"/>
</g>
<!-- Node0x55b190134928 -->
<g id="node20" class="node">
<title>Node0x55b190134928</title>
<polygon fill="none" stroke="black" points="2143,-151 1676,-151 1676,-115 2143,-115 2143,-151"/>
<text text-anchor="middle" x="1909.5" y="-129.3" font-family="Times,serif" font-size="14.00">{lib/libLLVMDebugInfoCodeView.a(TypeIndexDiscovery.cpp.o)}</text>
</g>
<!-- Node0x55b190134bf8&#45;&gt;Node0x55b190134928 -->
<g id="edge20" class="edge">
<title>Node0x55b190134bf8&#45;&gt;Node0x55b190134928</title>
<path fill="none" stroke="black" d="M1466.58,-206.99C1559.83,-191.38 1694.51,-168.83 1790.65,-152.73"/>
<polygon fill="black" stroke="black" points="1791.42,-156.15 1800.71,-151.05 1790.27,-149.25 1791.42,-156.15"/>
</g>
<!-- Node0x55b19013a918&#45;&gt;Node0x55b190134bf8 -->
<g id="edge32" class="edge">
<title>Node0x55b19013a918&#45;&gt;Node0x55b190134bf8</title>
<path fill="none" stroke="black" d="M1654.85,-231.73C1629.04,-231.78 1602.99,-231.74 1577.6,-231.62"/>
<polygon fill="black" stroke="black" points="1577.54,-228.12 1567.53,-231.57 1577.51,-235.12 1577.54,-228.12"/>
</g>
<!-- Node0x55b190139888 -->
<g id="node24" class="node">
<title>Node0x55b190139888</title>
<polygon fill="none" stroke="black" points="2697,-151 2221,-151 2221,-115 2697,-115 2697,-151"/>
<text text-anchor="middle" x="2459" y="-129.3" font-family="Times,serif" font-size="14.00">{lib/libLLVMDebugInfoCodeView.a(SimpleTypeSerializer.cpp.o)}</text>
</g>
<!-- Node0x55b19013a918&#45;&gt;Node0x55b190139888 -->
<g id="edge31" class="edge">
<title>Node0x55b19013a918&#45;&gt;Node0x55b190139888</title>
<path fill="none" stroke="black" d="M2122.66,-206.96C2136.88,-203.09 2150.79,-198.48 2164,-193 2182.72,-185.23 2181.27,-172.75 2200,-165 2210.24,-160.76 2220.89,-157.05 2231.78,-153.78"/>
<polygon fill="black" stroke="black" points="2232.75,-157.15 2241.4,-151.04 2230.83,-150.42 2232.75,-157.15"/>
</g>
<!-- Node0x55b1901360e8 -->
<g id="node21" class="node">
<title>Node0x55b1901360e8</title>
<polygon fill="none" stroke="black" points="497.5,-220 33.5,-220 33.5,-184 497.5,-184 497.5,-220"/>
<text text-anchor="middle" x="265.5" y="-198.3" font-family="Times,serif" font-size="14.00">{lib/libLLVMDebugInfoCodeView.a(TypeStreamMerger.cpp.o)}</text>
</g>
<!-- Node0x55b1901360e8&#45;&gt;Node0x55b190137218 -->
<g id="edge21" class="edge">
<title>Node0x55b1901360e8&#45;&gt;Node0x55b190137218</title>
<path fill="none" stroke="black" d="M320.04,-183.98C379.57,-164.84 478.95,-135.51 567,-122 914.39,-68.7 1005.54,-87 1357,-87 1357,-87 1357,-87 3558.5,-87 3915.79,-87 4022.94,-68.61 4354,-203 4446.62,-240.6 4537.03,-319.24 4579.83,-359.72"/>
<polygon fill="black" stroke="black" points="4577.61,-362.44 4587.26,-366.82 4582.45,-357.38 4577.61,-362.44"/>
</g>
<!-- Node0x55b1901360e8&#45;&gt;Node0x55b1901350a8 -->
<g id="edge26" class="edge">
<title>Node0x55b1901360e8&#45;&gt;Node0x55b1901350a8</title>
<path fill="none" stroke="black" d="M497.67,-218.02C509.08,-221.16 520.25,-224.8 531,-229 549.63,-236.28 548.32,-248.86 567,-256 896.19,-381.91 1004.55,-325 1357,-325 1357,-325 1357,-325 1910.5,-325 2208.08,-325 2550.41,-317.74 2775.53,-311.97"/>
<polygon fill="black" stroke="black" points="2775.92,-315.46 2785.83,-311.7 2775.74,-308.46 2775.92,-315.46"/>
</g>
<!-- Node0x55b1901360e8&#45;&gt;Node0x55b190134bf8 -->
<g id="edge24" class="edge">
<title>Node0x55b1901360e8&#45;&gt;Node0x55b190134bf8</title>
<path fill="none" stroke="black" d="M497.77,-206.88C686.85,-210.87 952.36,-216.47 1138.03,-220.38"/>
<polygon fill="black" stroke="black" points="1138.12,-223.88 1148.19,-220.6 1138.27,-216.89 1138.12,-223.88"/>
</g>
<!-- Node0x55b1901360e8&#45;&gt;Node0x55b19013a918 -->
<g id="edge23" class="edge">
<title>Node0x55b1901360e8&#45;&gt;Node0x55b19013a918</title>
<path fill="none" stroke="black" d="M471.31,-220.03C503.33,-222.56 536.05,-224.98 567,-227 1033.7,-257.41 1151.82,-273.74 1619,-252 1656.26,-250.27 1696.13,-247.28 1734,-243.92"/>
<polygon fill="black" stroke="black" points="1734.46,-247.39 1744.11,-243.01 1733.83,-240.42 1734.46,-247.39"/>
</g>
<!-- Node0x55b1901360e8&#45;&gt;Node0x55b190134928 -->
<g id="edge25" class="edge">
<title>Node0x55b1901360e8&#45;&gt;Node0x55b190134928</title>
<path fill="none" stroke="black" d="M353.5,-183.96C413.26,-172.44 494.57,-158.5 567,-152 949.79,-117.64 1396.44,-119.68 1665.6,-125.47"/>
<polygon fill="black" stroke="black" points="1665.82,-128.98 1675.9,-125.7 1665.98,-121.98 1665.82,-128.98"/>
</g>
<!-- Node0x55b19013c038 -->
<g id="node22" class="node">
<title>Node0x55b19013c038</title>
<polygon fill="none" stroke="black" points="1061,-197 567,-197 567,-161 1061,-161 1061,-197"/>
<text text-anchor="middle" x="814" y="-175.3" font-family="Times,serif" font-size="14.00">{lib/libLLVMDebugInfoCodeView.a(GlobalTypeTableBuilder.cpp.o)}</text>
</g>
<!-- Node0x55b1901360e8&#45;&gt;Node0x55b19013c038 -->
<g id="edge22" class="edge">
<title>Node0x55b1901360e8&#45;&gt;Node0x55b19013c038</title>
<path fill="none" stroke="black" d="M497.87,-192.26C517.33,-191.44 537.08,-190.61 556.71,-189.79"/>
<polygon fill="black" stroke="black" points="557.12,-193.27 566.97,-189.35 556.83,-186.28 557.12,-193.27"/>
</g>
<!-- Node0x55b19013c038&#45;&gt;Node0x55b190134bf8 -->
<g id="edge30" class="edge">
<title>Node0x55b19013c038&#45;&gt;Node0x55b190134bf8</title>
<path fill="none" stroke="black" d="M1027.27,-197.02C1063.61,-200.1 1101.44,-203.31 1137.96,-206.41"/>
<polygon fill="black" stroke="black" points="1137.96,-209.92 1148.22,-207.28 1138.55,-202.95 1137.96,-209.92"/>
</g>
<!-- Node0x55b19013c038&#45;&gt;Node0x55b190139888 -->
<g id="edge29" class="edge">
<title>Node0x55b19013c038&#45;&gt;Node0x55b190139888</title>
<path fill="none" stroke="black" d="M1061.04,-181.25C1331.6,-182.39 1779.09,-180.35 2164,-160 2200.26,-158.08 2238.96,-155.16 2275.98,-151.93"/>
<polygon fill="black" stroke="black" points="2276.72,-155.38 2286.38,-151.02 2276.11,-148.41 2276.72,-155.38"/>
</g>
<!-- Node0x55b190135e18 -->
<g id="node23" class="node">
<title>Node0x55b190135e18</title>
<polygon fill="none" stroke="black" points="1592.5,-476 1123.5,-476 1123.5,-440 1592.5,-440 1592.5,-476"/>
<text text-anchor="middle" x="1358" y="-454.3" font-family="Times,serif" font-size="14.00">{lib/libLLVMDebugInfoCodeView.a(TypeTableCollection.cpp.o)}</text>
</g>
<!-- Node0x55b190135e18&#45;&gt;Node0x55b19013a288 -->
<g id="edge27" class="edge">
<title>Node0x55b190135e18&#45;&gt;Node0x55b19013a288</title>
<path fill="none" stroke="black" d="M1592.83,-469.49C1625.25,-471.08 1658.45,-472.71 1690.57,-474.29"/>
<polygon fill="black" stroke="black" points="1690.8,-477.81 1700.95,-474.8 1691.14,-470.82 1690.8,-477.81"/>
</g>
<!-- Node0x55b190135e18&#45;&gt;Node0x55b19013dd98 -->
<g id="edge28" class="edge">
<title>Node0x55b190135e18&#45;&gt;Node0x55b19013dd98</title>
<path fill="none" stroke="black" d="M1592.79,-454.2C1917.93,-448.92 2501.67,-439.44 2812.84,-434.39"/>
<polygon fill="black" stroke="black" points="2812.93,-437.89 2822.87,-434.23 2812.82,-430.89 2812.93,-437.89"/>
</g>
<!-- Node0x55b190139888&#45;&gt;Node0x55b1901350a8 -->
<g id="edge37" class="edge">
<title>Node0x55b190139888&#45;&gt;Node0x55b1901350a8</title>
<path fill="none" stroke="black" d="M2539.56,-151.04C2590.83,-163.16 2658.74,-180.13 2718,-198 2805.33,-224.33 2904.71,-260.6 2965.26,-283.42"/>
<polygon fill="black" stroke="black" points="2964.04,-286.7 2974.63,-286.96 2966.51,-280.15 2964.04,-286.7"/>
</g>
<!-- Node0x55b19013cbc8&#45;&gt;Node0x55b190137218 -->
<g id="edge44" class="edge">
<title>Node0x55b19013cbc8&#45;&gt;Node0x55b190137218</title>
<path fill="none" stroke="black" d="M3733.78,-303.03C3763.87,-306.07 3794.83,-309.15 3824,-312 4018.42,-330.97 4240.15,-351.58 4397.65,-366.05"/>
<polygon fill="black" stroke="black" points="4397.65,-369.57 4407.93,-367 4398.29,-362.6 4397.65,-369.57"/>
</g>
<!-- Node0x55b19013cbc8&#45;&gt;Node0x55b190139b08 -->
<g id="edge45" class="edge">
<title>Node0x55b19013cbc8&#45;&gt;Node0x55b190139b08</title>
<path fill="none" stroke="black" d="M3788.05,-285C3807.32,-285 3826.83,-285 3846.19,-285"/>
<polygon fill="black" stroke="black" points="3846.29,-288.5 3856.29,-285 3846.29,-281.5 3846.29,-288.5"/>
</g>
<!-- Node0x55b19013b6d8 -->
<g id="node26" class="node">
<title>Node0x55b19013b6d8</title>
<polygon fill="none" stroke="black" points="2718,-297 2200,-297 2200,-261 2718,-261 2718,-297"/>
<text text-anchor="middle" x="2459" y="-275.3" font-family="Times,serif" font-size="14.00">{lib/libLLVMDebugInfoCodeView.a(ContinuationRecordBuilder.cpp.o)}</text>
</g>
<!-- Node0x55b19013b6d8&#45;&gt;Node0x55b1901350a8 -->
<g id="edge38" class="edge">
<title>Node0x55b19013b6d8&#45;&gt;Node0x55b1901350a8</title>
<path fill="none" stroke="black" d="M2718.15,-290.95C2737.41,-291.85 2756.81,-292.74 2775.98,-293.63"/>
<polygon fill="black" stroke="black" points="2775.84,-297.13 2785.99,-294.09 2776.16,-290.14 2775.84,-297.13"/>
</g>
<!-- Node0x55b19013cd58 -->
<g id="node27" class="node">
<title>Node0x55b19013cd58</title>
<polygon fill="none" stroke="black" points="2133.5,-389 1685.5,-389 1685.5,-353 2133.5,-353 2133.5,-389"/>
<text text-anchor="middle" x="1909.5" y="-367.3" font-family="Times,serif" font-size="14.00">{lib/libLLVMDebugInfoCodeView.a(TypeDumpVisitor.cpp.o)}</text>
</g>
<!-- Node0x55b19013cd58&#45;&gt;Node0x55b190137f38 -->
<g id="edge46" class="edge">
<title>Node0x55b19013cd58&#45;&gt;Node0x55b190137f38</title>
<path fill="none" stroke="black" d="M2133.58,-371C2167.51,-371 2202.52,-371 2236.42,-371"/>
<polygon fill="black" stroke="black" points="2236.42,-374.5 2246.42,-371 2236.42,-367.5 2236.42,-374.5"/>
</g>
<!-- Node0x55b19013cd58&#45;&gt;Node0x55b19013dd98 -->
<g id="edge49" class="edge">
<title>Node0x55b19013cd58&#45;&gt;Node0x55b19013dd98</title>
<path fill="none" stroke="black" d="M2087.59,-389.01C2124.7,-392.37 2163.61,-395.57 2200,-398 2408.2,-411.88 2646.51,-420.67 2812.64,-425.66"/>
<polygon fill="black" stroke="black" points="2812.88,-429.16 2822.98,-425.96 2813.09,-422.17 2812.88,-429.16"/>
</g>
<!-- Node0x55b19013cd58&#45;&gt;Node0x55b190139b08 -->
<g id="edge47" class="edge">
<title>Node0x55b19013cd58&#45;&gt;Node0x55b190139b08</title>
<path fill="none" stroke="black" d="M1971.34,-352.92C2026.27,-334.31 2106.98,-301.09 2164,-252 2185.86,-233.18 2174.57,-211.61 2200,-198 2347.59,-119.01 3459.59,-221.24 3904.66,-265.96"/>
<polygon fill="black" stroke="black" points="3904.43,-269.45 3914.73,-266.97 3905.13,-262.49 3904.43,-269.45"/>
</g>
<!-- Node0x55b19013dac8 -->
<g id="node28" class="node">
<title>Node0x55b19013dac8</title>
<polygon fill="none" stroke="black" points="2661.5,-243 2256.5,-243 2256.5,-207 2661.5,-207 2661.5,-243"/>
<text text-anchor="middle" x="2459" y="-221.3" font-family="Times,serif" font-size="14.00">{lib/libLLVMDebugInfoCodeView.a(Formatters.cpp.o)}</text>
</g>
<!-- Node0x55b19013cd58&#45;&gt;Node0x55b19013dac8 -->
<g id="edge48" class="edge">
<title>Node0x55b19013cd58&#45;&gt;Node0x55b19013dac8</title>
<path fill="none" stroke="black" d="M1945.05,-352.98C1998.24,-326.13 2104.1,-276.19 2200,-252 2215.01,-248.21 2230.64,-244.96 2246.45,-242.16"/>
<polygon fill="black" stroke="black" points="2247.04,-245.61 2256.31,-240.47 2245.86,-238.71 2247.04,-245.61"/>
</g>
</g>
</svg>
