<?xml version="1.0" encoding="UTF-8" standalone="no"?>
<!DOCTYPE svg PUBLIC "-//W3C//DTD SVG 1.1//EN"
 "http://www.w3.org/Graphics/SVG/1.1/DTD/svg11.dtd">
<!-- Generated by graphviz version 2.43.0 (0)
 -->
<!-- Title: bin/llvm&#45;cvtres_lib/libLLVMObject.a Pages: 1 -->
<svg width="2274pt" height="843pt"
 viewBox="0.00 0.00 2274.00 842.79" xmlns="http://www.w3.org/2000/svg" xmlns:xlink="http://www.w3.org/1999/xlink">
<g id="graph0" class="graph" transform="scale(1 1) rotate(0) translate(4 838.79)">
<title>bin/llvm&#45;cvtres_lib/libLLVMObject.a</title>
<polygon fill="white" stroke="transparent" points="-4,4 -4,-838.79 2270,-838.79 2270,4 -4,4"/>
<text text-anchor="middle" x="1133" y="-7.8" font-family="Times,serif" font-size="14.00">bin/llvm&#45;cvtres_lib/libLLVMObject.a</text>
<!-- Node0x562d9e66df48 -->
<g id="node1" class="node">
<title>Node0x562d9e66df48</title>
<polygon fill="#7fb2ff" stroke="black" points="694,-495 421,-495 421,-459 694,-459 694,-495"/>
<text text-anchor="middle" x="557.5" y="-473.3" font-family="Times,serif" font-size="14.00">{lib/libLLVMObject.a(Binary.cpp.o)}</text>
</g>
<!-- Node0x562d9e66d5e8 -->
<g id="node2" class="node">
<title>Node0x562d9e66d5e8</title>
<polygon fill="#7fb2ff" stroke="black" points="1050.5,-441 768.5,-441 768.5,-405 1050.5,-405 1050.5,-441"/>
<text text-anchor="middle" x="909.5" y="-419.3" font-family="Times,serif" font-size="14.00">{lib/libLLVMObject.a(Archive.cpp.o)}</text>
</g>
<!-- Node0x562d9e66df48&#45;&gt;Node0x562d9e66d5e8 -->
<g id="edge1" class="edge">
<title>Node0x562d9e66df48&#45;&gt;Node0x562d9e66d5e8</title>
<path fill="none" stroke="#7fb2ff" d="M621.21,-458.99C653.67,-452.9 693.96,-446.56 730,-441 739.2,-439.58 748.66,-438.13 758.2,-436.68"/>
<polygon fill="#7fb2ff" stroke="#7fb2ff" points="758.81,-440.13 768.17,-435.18 757.76,-433.21 758.81,-440.13"/>
</g>
<!-- Node0x562d9e66c8c8 -->
<g id="node3" class="node">
<title>Node0x562d9e66c8c8</title>
<polygon fill="none" stroke="black" points="1042.5,-241 776.5,-241 776.5,-205 1042.5,-205 1042.5,-241"/>
<text text-anchor="middle" x="909.5" y="-219.3" font-family="Times,serif" font-size="14.00">{lib/libLLVMObject.a(Error.cpp.o)}</text>
</g>
<!-- Node0x562d9e66df48&#45;&gt;Node0x562d9e66c8c8 -->
<g id="edge2" class="edge">
<title>Node0x562d9e66df48&#45;&gt;Node0x562d9e66c8c8</title>
<path fill="none" stroke="black" d="M566.28,-458.76C586.2,-414.53 643.63,-301.41 730,-250 741.27,-243.29 753.62,-238.06 766.4,-233.99"/>
<polygon fill="black" stroke="black" points="767.63,-237.28 776.25,-231.1 765.66,-230.56 767.63,-237.28"/>
</g>
<!-- Node0x562d9e66c698 -->
<g id="node4" class="node">
<title>Node0x562d9e66c698</title>
<polygon fill="#7fb2ff" stroke="black" points="1083,-495 736,-495 736,-459 1083,-459 1083,-495"/>
<text text-anchor="middle" x="909.5" y="-473.3" font-family="Times,serif" font-size="14.00">{lib/libLLVMObject.a(MachOUniversal.cpp.o)}</text>
</g>
<!-- Node0x562d9e66df48&#45;&gt;Node0x562d9e66c698 -->
<g id="edge3" class="edge">
<title>Node0x562d9e66df48&#45;&gt;Node0x562d9e66c698</title>
<path fill="none" stroke="#7fb2ff" d="M694.07,-470.4C704.49,-470.32 715.1,-470.27 725.75,-470.26"/>
<polygon fill="#7fb2ff" stroke="#7fb2ff" points="725.97,-473.76 735.97,-470.25 725.97,-466.76 725.97,-473.76"/>
</g>
<!-- Node0x562d9e66dfe8 -->
<g id="node5" class="node">
<title>Node0x562d9e66dfe8</title>
<polygon fill="#7fb2ff" stroke="black" points="1060,-295 759,-295 759,-259 1060,-259 1060,-295"/>
<text text-anchor="middle" x="909.5" y="-273.3" font-family="Times,serif" font-size="14.00">{lib/libLLVMObject.a(Minidump.cpp.o)}</text>
</g>
<!-- Node0x562d9e66df48&#45;&gt;Node0x562d9e66dfe8 -->
<g id="edge4" class="edge">
<title>Node0x562d9e66df48&#45;&gt;Node0x562d9e66dfe8</title>
<path fill="none" stroke="#7fb2ff" d="M567.84,-458.85C591.03,-421.7 654.8,-338.79 730,-300 736.11,-296.85 742.48,-294 749.01,-291.44"/>
<polygon fill="#7fb2ff" stroke="#7fb2ff" points="750.52,-294.61 758.69,-287.88 748.1,-288.04 750.52,-294.61"/>
</g>
<!-- Node0x562d9e66af28 -->
<g id="node6" class="node">
<title>Node0x562d9e66af28</title>
<polygon fill="#7fb2ff" stroke="black" points="1069.5,-641 749.5,-641 749.5,-605 1069.5,-605 1069.5,-641"/>
<text text-anchor="middle" x="909.5" y="-619.3" font-family="Times,serif" font-size="14.00">{lib/libLLVMObject.a(SymbolicFile.cpp.o)}</text>
</g>
<!-- Node0x562d9e66df48&#45;&gt;Node0x562d9e66af28 -->
<g id="edge5" class="edge">
<title>Node0x562d9e66df48&#45;&gt;Node0x562d9e66af28</title>
<path fill="none" stroke="#7fb2ff" d="M608.14,-495.02C634.69,-508.88 667.31,-528.78 694,-550 711.96,-564.28 709.59,-576.51 730,-587 742.57,-593.46 756.25,-598.48 770.26,-602.42"/>
<polygon fill="#7fb2ff" stroke="#7fb2ff" points="769.44,-605.82 780,-604.98 771.22,-599.05 769.44,-605.82"/>
</g>
<!-- Node0x562d9e66b798 -->
<g id="node7" class="node">
<title>Node0x562d9e66b798</title>
<polygon fill="#7fb2ff" stroke="black" points="1073,-387 746,-387 746,-351 1073,-351 1073,-387"/>
<text text-anchor="middle" x="909.5" y="-365.3" font-family="Times,serif" font-size="14.00">{lib/libLLVMObject.a(TapiUniversal.cpp.o)}</text>
</g>
<!-- Node0x562d9e66df48&#45;&gt;Node0x562d9e66b798 -->
<g id="edge6" class="edge">
<title>Node0x562d9e66df48&#45;&gt;Node0x562d9e66b798</title>
<path fill="none" stroke="#7fb2ff" d="M579.35,-458.87C610.86,-437.67 672.99,-404.37 730,-387 731.91,-386.42 733.84,-385.85 735.78,-385.29"/>
<polygon fill="#7fb2ff" stroke="#7fb2ff" points="736.87,-388.62 745.58,-382.6 735.01,-381.87 736.87,-388.62"/>
</g>
<!-- Node0x562d9e66d4f8 -->
<g id="node8" class="node">
<title>Node0x562d9e66d4f8</title>
<polygon fill="#7fb2ff" stroke="black" points="1089,-587 730,-587 730,-551 1089,-551 1089,-587"/>
<text text-anchor="middle" x="909.5" y="-565.3" font-family="Times,serif" font-size="14.00">{lib/libLLVMObject.a(WindowsResource.cpp.o)}</text>
</g>
<!-- Node0x562d9e66df48&#45;&gt;Node0x562d9e66d4f8 -->
<g id="edge7" class="edge">
<title>Node0x562d9e66df48&#45;&gt;Node0x562d9e66d4f8</title>
<path fill="none" stroke="#7fb2ff" d="M625.75,-495.12C657.08,-505.85 695.07,-518.82 730,-528 761.87,-536.38 797.52,-543.25 828.53,-549.07"/>
<polygon fill="#7fb2ff" stroke="#7fb2ff" points="827.95,-552.52 838.43,-550.92 829.24,-545.64 827.95,-552.52"/>
</g>
<!-- Node0x562d9e66d5e8&#45;&gt;Node0x562d9e66df48 -->
<g id="edge13" class="edge">
<title>Node0x562d9e66d5e8&#45;&gt;Node0x562d9e66df48</title>
<path fill="none" stroke="#7fb2ff" d="M841.94,-441.05C808.37,-447.02 767.02,-453.29 730,-459 721.56,-460.3 712.89,-461.65 704.13,-463"/>
<polygon fill="#7fb2ff" stroke="#7fb2ff" points="703.58,-459.54 694.23,-464.52 704.65,-466.46 703.58,-459.54"/>
</g>
<!-- Node0x562d9e66d5e8&#45;&gt;Node0x562d9e66c8c8 -->
<g id="edge14" class="edge">
<title>Node0x562d9e66d5e8&#45;&gt;Node0x562d9e66c8c8</title>
<path fill="none" stroke="black" d="M768.04,-426.33C745.11,-419.68 724.73,-407.61 712,-387 697.05,-362.8 697.05,-283.2 712,-259 724.47,-238.83 744.25,-226.84 766.59,-220.1"/>
<polygon fill="black" stroke="black" points="767.54,-223.47 776.31,-217.53 765.74,-216.71 767.54,-223.47"/>
</g>
<!-- Node0x562d9e66c698&#45;&gt;Node0x562d9e66df48 -->
<g id="edge15" class="edge">
<title>Node0x562d9e66c698&#45;&gt;Node0x562d9e66df48</title>
<path fill="none" stroke="#7fb2ff" d="M735.97,-483.75C725.31,-483.75 714.64,-483.73 704.11,-483.66"/>
<polygon fill="#7fb2ff" stroke="#7fb2ff" points="704.09,-480.16 694.07,-483.6 704.05,-487.16 704.09,-480.16"/>
</g>
<!-- Node0x562d9e66c698&#45;&gt;Node0x562d9e66d5e8 -->
<g id="edge16" class="edge">
<title>Node0x562d9e66c698&#45;&gt;Node0x562d9e66d5e8</title>
<path fill="none" stroke="#7fb2ff" d="M909.5,-458.79C909.5,-456.31 909.5,-453.83 909.5,-451.34"/>
<polygon fill="#7fb2ff" stroke="#7fb2ff" points="913,-451.14 909.5,-441.14 906,-451.14 913,-451.14"/>
</g>
<!-- Node0x562d9e66c698&#45;&gt;Node0x562d9e66c8c8 -->
<g id="edge17" class="edge">
<title>Node0x562d9e66c698&#45;&gt;Node0x562d9e66c8c8</title>
<path fill="none" stroke="black" d="M735.99,-465.76C726.53,-459.35 718.32,-451.23 712,-441 690.74,-406.6 690.74,-293.4 712,-259 724.47,-238.83 744.25,-226.84 766.59,-220.1"/>
<polygon fill="black" stroke="black" points="767.54,-223.47 776.31,-217.53 765.74,-216.71 767.54,-223.47"/>
</g>
<!-- Node0x562d9e66ba18 -->
<g id="node9" class="node">
<title>Node0x562d9e66ba18</title>
<polygon fill="#7fb2ff" stroke="black" points="1477,-617 1125,-617 1125,-581 1477,-581 1477,-617"/>
<text text-anchor="middle" x="1301" y="-595.3" font-family="Times,serif" font-size="14.00">{lib/libLLVMObject.a(MachOObjectFile.cpp.o)}</text>
</g>
<!-- Node0x562d9e66c698&#45;&gt;Node0x562d9e66ba18 -->
<g id="edge18" class="edge">
<title>Node0x562d9e66c698&#45;&gt;Node0x562d9e66ba18</title>
<path fill="none" stroke="#7fb2ff" d="M976.5,-495.03C1011.26,-505.98 1053.84,-521.77 1089,-542 1107.05,-552.38 1106.02,-563.43 1125,-572 1129.41,-573.99 1133.94,-575.84 1138.55,-577.55"/>
<polygon fill="#7fb2ff" stroke="#7fb2ff" points="1137.55,-580.91 1148.14,-580.89 1139.85,-574.3 1137.55,-580.91"/>
</g>
<!-- Node0x562d9e6715a8 -->
<g id="node10" class="node">
<title>Node0x562d9e6715a8</title>
<polygon fill="#7fb2ff" stroke="black" points="1459.5,-341 1142.5,-341 1142.5,-305 1459.5,-305 1459.5,-341"/>
<text text-anchor="middle" x="1301" y="-319.3" font-family="Times,serif" font-size="14.00">{lib/libLLVMObject.a(IRObjectFile.cpp.o)}</text>
</g>
<!-- Node0x562d9e66c698&#45;&gt;Node0x562d9e6715a8 -->
<g id="edge19" class="edge">
<title>Node0x562d9e66c698&#45;&gt;Node0x562d9e6715a8</title>
<path fill="none" stroke="#7fb2ff" d="M1076.38,-458.94C1080.78,-456.25 1085,-453.28 1089,-450 1125.5,-420.02 1088.54,-380.04 1125,-350 1127.75,-347.73 1130.62,-345.61 1133.57,-343.64"/>
<polygon fill="#7fb2ff" stroke="#7fb2ff" points="1135.41,-346.62 1142.14,-338.43 1131.78,-340.63 1135.41,-346.62"/>
</g>
<!-- Node0x562d9e66dfe8&#45;&gt;Node0x562d9e66df48 -->
<g id="edge20" class="edge">
<title>Node0x562d9e66dfe8&#45;&gt;Node0x562d9e66df48</title>
<path fill="none" stroke="#7fb2ff" d="M797.99,-295.01C774.68,-300.04 750.85,-307.25 730,-318 666.73,-350.64 611.54,-414.51 581.82,-450.74"/>
<polygon fill="#7fb2ff" stroke="#7fb2ff" points="578.78,-448.93 575.17,-458.89 584.2,-453.35 578.78,-448.93"/>
</g>
<!-- Node0x562d9e66dfe8&#45;&gt;Node0x562d9e66c8c8 -->
<g id="edge21" class="edge">
<title>Node0x562d9e66dfe8&#45;&gt;Node0x562d9e66c8c8</title>
<path fill="none" stroke="black" d="M909.5,-258.79C909.5,-256.31 909.5,-253.83 909.5,-251.34"/>
<polygon fill="black" stroke="black" points="913,-251.14 909.5,-241.14 906,-251.14 913,-251.14"/>
</g>
<!-- Node0x562d9e66dfe8&#45;&gt;Node0x562d9e6715a8 -->
<g id="edge22" class="edge">
<title>Node0x562d9e66dfe8&#45;&gt;Node0x562d9e6715a8</title>
<path fill="none" stroke="#7fb2ff" d="M1060.26,-294.69C1085.53,-297.67 1111.87,-300.78 1137.44,-303.8"/>
<polygon fill="#7fb2ff" stroke="#7fb2ff" points="1137.24,-307.3 1147.58,-305 1138.06,-300.35 1137.24,-307.3"/>
</g>
<!-- Node0x562d9e66af28&#45;&gt;Node0x562d9e66df48 -->
<g id="edge23" class="edge">
<title>Node0x562d9e66af28&#45;&gt;Node0x562d9e66df48</title>
<path fill="none" stroke="#7fb2ff" d="M749.1,-613.46C742.53,-610.96 736.13,-608.15 730,-605 709.59,-594.51 711.96,-582.28 694,-568 660.98,-541.75 618.88,-517.52 590.44,-500.37"/>
<polygon fill="#7fb2ff" stroke="#7fb2ff" points="592.07,-497.27 581.71,-495.06 588.43,-503.25 592.07,-497.27"/>
</g>
<!-- Node0x562d9e66af28&#45;&gt;Node0x562d9e66d5e8 -->
<g id="edge24" class="edge">
<title>Node0x562d9e66af28&#45;&gt;Node0x562d9e66d5e8</title>
<path fill="none" stroke="#7fb2ff" d="M749.46,-619.38C734.28,-612.23 721.16,-601.82 712,-587 697.05,-562.8 697.05,-483.2 712,-459 722.94,-441.29 739.53,-429.89 758.53,-422.81"/>
<polygon fill="#7fb2ff" stroke="#7fb2ff" points="759.64,-426.13 768.04,-419.67 757.45,-419.48 759.64,-426.13"/>
</g>
<!-- Node0x562d9e66af28&#45;&gt;Node0x562d9e66c8c8 -->
<g id="edge25" class="edge">
<title>Node0x562d9e66af28&#45;&gt;Node0x562d9e66c8c8</title>
<path fill="none" stroke="black" d="M749.46,-619.38C734.28,-612.23 721.16,-601.82 712,-587 692.84,-556 692.84,-290 712,-259 724.47,-238.83 744.25,-226.84 766.59,-220.1"/>
<polygon fill="black" stroke="black" points="767.54,-223.47 776.31,-217.53 765.74,-216.71 767.54,-223.47"/>
</g>
<!-- Node0x562d9e66af28&#45;&gt;Node0x562d9e6715a8 -->
<g id="edge26" class="edge">
<title>Node0x562d9e66af28&#45;&gt;Node0x562d9e6715a8</title>
<path fill="none" stroke="#7fb2ff" d="M1064.26,-604.94C1073.32,-600.22 1081.7,-594.33 1089,-587 1166.95,-508.68 1047.17,-419.44 1125,-341 1127.76,-338.22 1130.68,-335.65 1133.74,-333.27"/>
<polygon fill="#7fb2ff" stroke="#7fb2ff" points="1135.92,-336.02 1142.13,-327.44 1131.92,-330.27 1135.92,-336.02"/>
</g>
<!-- Node0x562d9e66fa78 -->
<g id="node11" class="node">
<title>Node0x562d9e66fa78</title>
<polygon fill="#7fb2ff" stroke="black" points="1452,-563 1150,-563 1150,-527 1452,-527 1452,-563"/>
<text text-anchor="middle" x="1301" y="-541.3" font-family="Times,serif" font-size="14.00">{lib/libLLVMObject.a(ObjectFile.cpp.o)}</text>
</g>
<!-- Node0x562d9e66af28&#45;&gt;Node0x562d9e66fa78 -->
<g id="edge27" class="edge">
<title>Node0x562d9e66af28&#45;&gt;Node0x562d9e66fa78</title>
<path fill="none" stroke="#7fb2ff" d="M1022.44,-604.94C1044.95,-600.76 1068.1,-595.08 1089,-587 1106.93,-580.06 1107.08,-569.96 1125,-563 1129.89,-561.1 1134.9,-559.33 1140.01,-557.69"/>
<polygon fill="#7fb2ff" stroke="#7fb2ff" points="1141.36,-560.94 1149.92,-554.7 1139.33,-554.24 1141.36,-560.94"/>
</g>
<!-- Node0x562d9e66b798&#45;&gt;Node0x562d9e66df48 -->
<g id="edge28" class="edge">
<title>Node0x562d9e66b798&#45;&gt;Node0x562d9e66df48</title>
<path fill="none" stroke="#7fb2ff" d="M811.94,-387.02C785.06,-391.39 756.08,-397.05 730,-405 688.97,-417.5 645.3,-438.25 612.29,-454.43"/>
<polygon fill="#7fb2ff" stroke="#7fb2ff" points="610.7,-451.31 603.27,-458.86 613.79,-457.59 610.7,-451.31"/>
</g>
<!-- Node0x562d9e66c9b8 -->
<g id="node12" class="node">
<title>Node0x562d9e66c9b8</title>
<polygon fill="#7fb2ff" stroke="black" points="1472.5,-395 1129.5,-395 1129.5,-359 1472.5,-359 1472.5,-395"/>
<text text-anchor="middle" x="1301" y="-373.3" font-family="Times,serif" font-size="14.00">{lib/libLLVMObject.a(COFFObjectFile.cpp.o)}</text>
</g>
<!-- Node0x562d9e66b798&#45;&gt;Node0x562d9e66c9b8 -->
<g id="edge29" class="edge">
<title>Node0x562d9e66b798&#45;&gt;Node0x562d9e66c9b8</title>
<path fill="none" stroke="#7fb2ff" d="M1073.14,-372.34C1088.37,-372.65 1103.87,-372.97 1119.25,-373.29"/>
<polygon fill="#7fb2ff" stroke="#7fb2ff" points="1119.27,-376.79 1129.34,-373.49 1119.42,-369.79 1119.27,-376.79"/>
</g>
<!-- Node0x562d9e66d4f8&#45;&gt;Node0x562d9e66df48 -->
<g id="edge8" class="edge">
<title>Node0x562d9e66d4f8&#45;&gt;Node0x562d9e66df48</title>
<path fill="none" stroke="#7fb2ff" d="M750.05,-550.96C743.25,-549.38 736.55,-547.72 730,-546 683.15,-533.69 630.8,-514.56 596.4,-499.28"/>
<polygon fill="#7fb2ff" stroke="#7fb2ff" points="597.74,-496.04 587.19,-495.08 594.84,-502.41 597.74,-496.04"/>
</g>
<!-- Node0x562d9e66d4f8&#45;&gt;Node0x562d9e66d5e8 -->
<g id="edge9" class="edge">
<title>Node0x562d9e66d4f8&#45;&gt;Node0x562d9e66d5e8</title>
<path fill="none" stroke="#7fb2ff" d="M808.46,-550.93C746,-534.76 682.85,-506.16 712,-459 722.94,-441.29 739.53,-429.89 758.53,-422.81"/>
<polygon fill="#7fb2ff" stroke="#7fb2ff" points="759.64,-426.13 768.04,-419.67 757.45,-419.48 759.64,-426.13"/>
</g>
<!-- Node0x562d9e66d4f8&#45;&gt;Node0x562d9e66c8c8 -->
<g id="edge10" class="edge">
<title>Node0x562d9e66d4f8&#45;&gt;Node0x562d9e66c8c8</title>
<path fill="none" stroke="black" d="M788.63,-550.91C758.06,-540.01 729.08,-522.64 712,-495 698.21,-472.69 698.21,-281.31 712,-259 724.47,-238.83 744.25,-226.84 766.59,-220.1"/>
<polygon fill="black" stroke="black" points="767.54,-223.47 776.31,-217.53 765.74,-216.71 767.54,-223.47"/>
</g>
<!-- Node0x562d9e66d4f8&#45;&gt;Node0x562d9e66c9b8 -->
<g id="edge11" class="edge">
<title>Node0x562d9e66d4f8&#45;&gt;Node0x562d9e66c9b8</title>
<path fill="none" stroke="#7fb2ff" d="M968.73,-550.96C1004.19,-539.2 1050.01,-522.62 1089,-504 1153.7,-473.1 1224.18,-428.19 1265.1,-400.88"/>
<polygon fill="#7fb2ff" stroke="#7fb2ff" points="1267.26,-403.64 1273.61,-395.16 1263.36,-397.83 1267.26,-403.64"/>
</g>
<!-- Node0x562d9e66bd38 -->
<g id="node13" class="node">
<title>Node0x562d9e66bd38</title>
<polygon fill="#7fb2ff" stroke="black" points="1473,-671 1129,-671 1129,-635 1473,-635 1473,-671"/>
<text text-anchor="middle" x="1301" y="-649.3" font-family="Times,serif" font-size="14.00">{lib/libLLVMObject.a(WasmObjectFile.cpp.o)}</text>
</g>
<!-- Node0x562d9e66d4f8&#45;&gt;Node0x562d9e66bd38 -->
<g id="edge12" class="edge">
<title>Node0x562d9e66d4f8&#45;&gt;Node0x562d9e66bd38</title>
<path fill="none" stroke="#7fb2ff" d="M1065.85,-587.13C1073.8,-589.72 1081.57,-592.66 1089,-596 1108,-604.54 1106.02,-617.43 1125,-626 1129.41,-627.99 1133.94,-629.84 1138.55,-631.55"/>
<polygon fill="#7fb2ff" stroke="#7fb2ff" points="1137.55,-634.91 1148.14,-634.89 1139.85,-628.3 1137.55,-634.91"/>
</g>
<!-- Node0x562d9e66ba18&#45;&gt;Node0x562d9e66df48 -->
<g id="edge30" class="edge">
<title>Node0x562d9e66ba18&#45;&gt;Node0x562d9e66df48</title>
<path fill="none" stroke="#7fb2ff" d="M1152.2,-617.04C1142.88,-619.64 1133.74,-622.6 1125,-626 1107.08,-632.96 1107.4,-644.43 1089,-650 936.29,-696.24 877.28,-711.38 730,-650 658.5,-620.2 601.53,-544.49 574.89,-503.82"/>
<polygon fill="#7fb2ff" stroke="#7fb2ff" points="577.72,-501.75 569.37,-495.22 571.83,-505.53 577.72,-501.75"/>
</g>
<!-- Node0x562d9e66ba18&#45;&gt;Node0x562d9e66d5e8 -->
<g id="edge31" class="edge">
<title>Node0x562d9e66ba18&#45;&gt;Node0x562d9e66d5e8</title>
<path fill="none" stroke="#7fb2ff" d="M1136.73,-580.84C1132.63,-578.18 1128.7,-575.24 1125,-572 1082.44,-534.79 1131.61,-487.15 1089,-450 1080.32,-442.43 1070.46,-436.48 1059.93,-431.84"/>
<polygon fill="#7fb2ff" stroke="#7fb2ff" points="1061.1,-428.54 1050.51,-428.09 1058.51,-435.04 1061.1,-428.54"/>
</g>
<!-- Node0x562d9e66ba18&#45;&gt;Node0x562d9e66c8c8 -->
<g id="edge32" class="edge">
<title>Node0x562d9e66ba18&#45;&gt;Node0x562d9e66c8c8</title>
<path fill="none" stroke="black" d="M1134.86,-580.84C1131.38,-578.16 1128.09,-575.22 1125,-572 1025.32,-468.07 1188.83,-353.78 1089,-250 1078.67,-239.26 1066.03,-231.58 1052.28,-226.19"/>
<polygon fill="black" stroke="black" points="1053.19,-222.81 1042.6,-222.82 1050.89,-229.42 1053.19,-222.81"/>
</g>
<!-- Node0x562d9e66ba18&#45;&gt;Node0x562d9e66af28 -->
<g id="edge34" class="edge">
<title>Node0x562d9e66ba18&#45;&gt;Node0x562d9e66af28</title>
<path fill="none" stroke="#7fb2ff" d="M1124.94,-609.79C1110.01,-610.71 1094.92,-611.64 1080.04,-612.55"/>
<polygon fill="#7fb2ff" stroke="#7fb2ff" points="1079.53,-609.08 1069.77,-613.19 1079.96,-616.06 1079.53,-609.08"/>
</g>
<!-- Node0x562d9e66ba18&#45;&gt;Node0x562d9e66fa78 -->
<g id="edge33" class="edge">
<title>Node0x562d9e66ba18&#45;&gt;Node0x562d9e66fa78</title>
<path fill="none" stroke="#7fb2ff" d="M1402.01,-580.88C1414.31,-576.42 1417.34,-571.96 1411.1,-567.5"/>
<polygon fill="#7fb2ff" stroke="#7fb2ff" points="1412.3,-564.19 1401.76,-563.04 1409.28,-570.51 1412.3,-564.19"/>
</g>
<!-- Node0x562d9e6715a8&#45;&gt;Node0x562d9e66df48 -->
<g id="edge35" class="edge">
<title>Node0x562d9e6715a8&#45;&gt;Node0x562d9e66df48</title>
<path fill="none" stroke="#7fb2ff" d="M1279.07,-304.96C1243.11,-275.3 1166.04,-217.4 1089,-196 935.26,-153.3 869.14,-117.91 730,-196 631.26,-251.41 582.64,-389.34 565.7,-448.89"/>
<polygon fill="#7fb2ff" stroke="#7fb2ff" points="562.27,-448.16 562.98,-458.73 569.02,-450.02 562.27,-448.16"/>
</g>
<!-- Node0x562d9e6715a8&#45;&gt;Node0x562d9e66d5e8 -->
<g id="edge36" class="edge">
<title>Node0x562d9e6715a8&#45;&gt;Node0x562d9e66d5e8</title>
<path fill="none" stroke="#7fb2ff" d="M1142.85,-341.05C1136.68,-343.69 1130.7,-346.66 1125,-350 1102.6,-363.12 1111.42,-382.91 1089,-396 1080.08,-401.21 1070.49,-405.52 1060.57,-409.09"/>
<polygon fill="#7fb2ff" stroke="#7fb2ff" points="1059.34,-405.81 1050.95,-412.28 1061.55,-412.45 1059.34,-405.81"/>
</g>
<!-- Node0x562d9e6715a8&#45;&gt;Node0x562d9e66c8c8 -->
<g id="edge37" class="edge">
<title>Node0x562d9e6715a8&#45;&gt;Node0x562d9e66c8c8</title>
<path fill="none" stroke="black" d="M1155.84,-304.87C1145.09,-301.05 1134.67,-296.48 1125,-291 1103.9,-279.04 1110.28,-261.63 1089,-250 1077.6,-243.77 1065.22,-238.85 1052.47,-234.98"/>
<polygon fill="black" stroke="black" points="1053.23,-231.56 1042.65,-232.22 1051.33,-238.3 1053.23,-231.56"/>
</g>
<!-- Node0x562d9e6715a8&#45;&gt;Node0x562d9e66af28 -->
<g id="edge40" class="edge">
<title>Node0x562d9e6715a8&#45;&gt;Node0x562d9e66af28</title>
<path fill="none" stroke="#7fb2ff" d="M1149.64,-341.15C1140.61,-345.83 1132.25,-351.69 1125,-359 1047.17,-437.44 1166.95,-526.68 1089,-605 1085.61,-608.4 1081.99,-611.5 1078.18,-614.3"/>
<polygon fill="#7fb2ff" stroke="#7fb2ff" points="1075.96,-611.57 1069.53,-619.99 1079.81,-617.42 1075.96,-611.57"/>
</g>
<!-- Node0x562d9e6715a8&#45;&gt;Node0x562d9e66fa78 -->
<g id="edge39" class="edge">
<title>Node0x562d9e6715a8&#45;&gt;Node0x562d9e66fa78</title>
<path fill="none" stroke="#7fb2ff" d="M1142.27,-328.58C1130.53,-335.11 1120.4,-344.02 1113,-356 1104.18,-370.27 1104.18,-492.73 1113,-507 1120.04,-518.4 1129.52,-527.15 1140.49,-533.81"/>
<polygon fill="#7fb2ff" stroke="#7fb2ff" points="1139.12,-537.05 1149.59,-538.71 1142.44,-530.89 1139.12,-537.05"/>
</g>
<!-- Node0x562d9e66d8b8 -->
<g id="node14" class="node">
<title>Node0x562d9e66d8b8</title>
<polygon fill="none" stroke="black" points="1886,-59 1513,-59 1513,-23 1886,-23 1886,-59"/>
<text text-anchor="middle" x="1699.5" y="-37.3" font-family="Times,serif" font-size="14.00">{lib/libLLVMObject.a(ModuleSymbolTable.cpp.o)}</text>
</g>
<!-- Node0x562d9e6715a8&#45;&gt;Node0x562d9e66d8b8 -->
<g id="edge38" class="edge">
<title>Node0x562d9e6715a8&#45;&gt;Node0x562d9e66d8b8</title>
<path fill="none" stroke="black" d="M1327.41,-304.93C1396.28,-255.94 1586.61,-120.58 1664.55,-65.14"/>
<polygon fill="black" stroke="black" points="1666.93,-67.75 1673.05,-59.1 1662.87,-62.04 1666.93,-67.75"/>
</g>
<!-- Node0x562d9e66fa78&#45;&gt;Node0x562d9e66df48 -->
<g id="edge41" class="edge">
<title>Node0x562d9e66fa78&#45;&gt;Node0x562d9e66df48</title>
<path fill="none" stroke="#7fb2ff" d="M1149.96,-537.67C1034.83,-531.21 872.06,-520.26 730,-504 711.85,-501.92 692.68,-499.32 674,-496.55"/>
<polygon fill="#7fb2ff" stroke="#7fb2ff" points="674.38,-493.06 663.98,-495.04 673.34,-499.99 674.38,-493.06"/>
</g>
<!-- Node0x562d9e66fa78&#45;&gt;Node0x562d9e66d5e8 -->
<g id="edge42" class="edge">
<title>Node0x562d9e66fa78&#45;&gt;Node0x562d9e66d5e8</title>
<path fill="none" stroke="#7fb2ff" d="M1149.75,-526.93C1141.03,-523.05 1132.69,-518.44 1125,-513 1098.68,-494.36 1115.6,-468.23 1089,-450 1080.09,-443.89 1070.35,-438.94 1060.16,-434.95"/>
<polygon fill="#7fb2ff" stroke="#7fb2ff" points="1061.28,-431.63 1050.68,-431.54 1058.91,-438.22 1061.28,-431.63"/>
</g>
<!-- Node0x562d9e66fa78&#45;&gt;Node0x562d9e66c8c8 -->
<g id="edge43" class="edge">
<title>Node0x562d9e66fa78&#45;&gt;Node0x562d9e66c8c8</title>
<path fill="none" stroke="black" d="M1265.97,-526.97C1225.89,-503.91 1160.3,-460.16 1125,-404 1087.6,-344.49 1140.64,-297.69 1089,-250 1078.34,-240.15 1065.69,-232.98 1052.12,-227.85"/>
<polygon fill="black" stroke="black" points="1053.2,-224.52 1042.6,-224.61 1050.94,-231.14 1053.2,-224.52"/>
</g>
<!-- Node0x562d9e66fa78&#45;&gt;Node0x562d9e66af28 -->
<g id="edge48" class="edge">
<title>Node0x562d9e66fa78&#45;&gt;Node0x562d9e66af28</title>
<path fill="none" stroke="#7fb2ff" d="M1191.18,-563.09C1168.82,-567.26 1145.77,-572.93 1125,-581 1107.08,-587.96 1106.93,-598.06 1089,-605 1085.86,-606.22 1082.66,-607.38 1079.43,-608.48"/>
<polygon fill="#7fb2ff" stroke="#7fb2ff" points="1078.06,-605.25 1069.61,-611.65 1080.21,-611.91 1078.06,-605.25"/>
</g>
<!-- Node0x562d9e66fa78&#45;&gt;Node0x562d9e66ba18 -->
<g id="edge44" class="edge">
<title>Node0x562d9e66fa78&#45;&gt;Node0x562d9e66ba18</title>
<path fill="none" stroke="#7fb2ff" d="M1200.24,-563.04C1187.81,-567.5 1184.66,-571.96 1190.78,-576.42"/>
<polygon fill="#7fb2ff" stroke="#7fb2ff" points="1189.47,-579.67 1199.99,-580.88 1192.52,-573.37 1189.47,-579.67"/>
</g>
<!-- Node0x562d9e66fa78&#45;&gt;Node0x562d9e6715a8 -->
<g id="edge45" class="edge">
<title>Node0x562d9e66fa78&#45;&gt;Node0x562d9e6715a8</title>
<path fill="none" stroke="#7fb2ff" d="M1149.99,-539.61C1130.01,-531.8 1112.5,-519.6 1101,-501 1092.88,-487.86 1092.88,-375.14 1101,-362 1109.08,-348.92 1120.19,-339.16 1133.06,-331.96"/>
<polygon fill="#7fb2ff" stroke="#7fb2ff" points="1134.85,-334.98 1142.23,-327.38 1131.72,-328.72 1134.85,-334.98"/>
</g>
<!-- Node0x562d9e66fa78&#45;&gt;Node0x562d9e66c9b8 -->
<g id="edge47" class="edge">
<title>Node0x562d9e66fa78&#45;&gt;Node0x562d9e66c9b8</title>
<path fill="none" stroke="#7fb2ff" d="M1350.25,-526.99C1452.85,-484.34 1455.99,-441.69 1359.65,-399.04"/>
<polygon fill="#7fb2ff" stroke="#7fb2ff" points="1360.9,-395.77 1350.33,-395.05 1358.14,-402.21 1360.9,-395.77"/>
</g>
<!-- Node0x562d9e66fa78&#45;&gt;Node0x562d9e66bd38 -->
<g id="edge49" class="edge">
<title>Node0x562d9e66fa78&#45;&gt;Node0x562d9e66bd38</title>
<path fill="none" stroke="#7fb2ff" d="M1157.96,-563.08C1146.71,-565.67 1135.61,-568.63 1125,-572 1119.32,-573.81 1116.13,-572.93 1113,-578 1103.19,-593.88 1103.19,-604.12 1113,-620 1115.45,-623.96 1118.2,-627.59 1121.2,-630.91"/>
<polygon fill="#7fb2ff" stroke="#7fb2ff" points="1119.04,-633.68 1128.67,-638.1 1123.89,-628.64 1119.04,-633.68"/>
</g>
<!-- Node0x562d9e66f2f8 -->
<g id="node15" class="node">
<title>Node0x562d9e66f2f8</title>
<polygon fill="#7fb2ff" stroke="black" points="1865,-433 1534,-433 1534,-397 1865,-397 1865,-433"/>
<text text-anchor="middle" x="1699.5" y="-411.3" font-family="Times,serif" font-size="14.00">{lib/libLLVMObject.a(ELFObjectFile.cpp.o)}</text>
</g>
<!-- Node0x562d9e66fa78&#45;&gt;Node0x562d9e66f2f8 -->
<g id="edge46" class="edge">
<title>Node0x562d9e66fa78&#45;&gt;Node0x562d9e66f2f8</title>
<path fill="none" stroke="#7fb2ff" d="M1343.68,-526.99C1408.42,-503.04 1534.32,-461.35 1617.41,-436.02"/>
<polygon fill="#7fb2ff" stroke="#7fb2ff" points="1618.51,-439.34 1627.07,-433.09 1616.48,-432.64 1618.51,-439.34"/>
</g>
<!-- Node0x562d9e66c878 -->
<g id="node16" class="node">
<title>Node0x562d9e66c878</title>
<polygon fill="#7fb2ff" stroke="black" points="1876,-563 1523,-563 1523,-527 1876,-527 1876,-563"/>
<text text-anchor="middle" x="1699.5" y="-541.3" font-family="Times,serif" font-size="14.00">{lib/libLLVMObject.a(XCOFFObjectFile.cpp.o)}</text>
</g>
<!-- Node0x562d9e66fa78&#45;&gt;Node0x562d9e66c878 -->
<g id="edge50" class="edge">
<title>Node0x562d9e66fa78&#45;&gt;Node0x562d9e66c878</title>
<path fill="none" stroke="#7fb2ff" d="M1452.18,-538.43C1471.96,-538.28 1492.43,-538.22 1512.71,-538.26"/>
<polygon fill="#7fb2ff" stroke="#7fb2ff" points="1512.97,-541.76 1522.98,-538.29 1512.99,-534.76 1512.97,-541.76"/>
</g>
<!-- Node0x562d9e66c9b8&#45;&gt;Node0x562d9e66df48 -->
<g id="edge63" class="edge">
<title>Node0x562d9e66c9b8&#45;&gt;Node0x562d9e66df48</title>
<path fill="none" stroke="#7fb2ff" d="M1176.49,-358.98C1159.17,-356.15 1141.62,-353.12 1125,-350 1108.89,-346.97 1105.29,-343.79 1089,-342 930.4,-324.59 880.77,-289.78 730,-342 667.61,-363.61 610.71,-418.34 580.72,-451.09"/>
<polygon fill="#7fb2ff" stroke="#7fb2ff" points="577.77,-449.14 573.69,-458.92 582.98,-453.82 577.77,-449.14"/>
</g>
<!-- Node0x562d9e66c9b8&#45;&gt;Node0x562d9e66d5e8 -->
<g id="edge64" class="edge">
<title>Node0x562d9e66c9b8&#45;&gt;Node0x562d9e66d5e8</title>
<path fill="none" stroke="#7fb2ff" d="M1147.33,-395.03C1118.81,-398.4 1089.02,-401.92 1060.57,-405.28"/>
<polygon fill="#7fb2ff" stroke="#7fb2ff" points="1060.09,-401.81 1050.57,-406.46 1060.91,-408.76 1060.09,-401.81"/>
</g>
<!-- Node0x562d9e66c9b8&#45;&gt;Node0x562d9e66c8c8 -->
<g id="edge65" class="edge">
<title>Node0x562d9e66c9b8&#45;&gt;Node0x562d9e66c8c8</title>
<path fill="none" stroke="black" d="M1137.37,-358.79C1133.05,-356.15 1128.91,-353.23 1125,-350 1088.54,-319.96 1125.5,-279.98 1089,-250 1078.18,-241.12 1065.71,-234.51 1052.48,-229.66"/>
<polygon fill="black" stroke="black" points="1053.33,-226.25 1042.73,-226.42 1051.12,-232.89 1053.33,-226.25"/>
</g>
<!-- Node0x562d9e66c9b8&#45;&gt;Node0x562d9e66af28 -->
<g id="edge70" class="edge">
<title>Node0x562d9e66c9b8&#45;&gt;Node0x562d9e66af28</title>
<path fill="none" stroke="#7fb2ff" d="M1269.83,-395.07C1231.84,-419.1 1166.52,-464.78 1125,-518 1101.52,-548.1 1119.53,-573.07 1089,-596 1085.71,-598.47 1082.29,-600.76 1078.76,-602.88"/>
<polygon fill="#7fb2ff" stroke="#7fb2ff" points="1076.86,-599.93 1069.77,-607.8 1080.22,-606.07 1076.86,-599.93"/>
</g>
<!-- Node0x562d9e66c9b8&#45;&gt;Node0x562d9e66ba18 -->
<g id="edge66" class="edge">
<title>Node0x562d9e66c9b8&#45;&gt;Node0x562d9e66ba18</title>
<path fill="none" stroke="#7fb2ff" d="M1254.04,-395.04C1183.14,-425.13 1061.62,-489.57 1107,-563 1109.96,-567.79 1113.35,-572.12 1117.08,-576.02"/>
<polygon fill="#7fb2ff" stroke="#7fb2ff" points="1114.96,-578.82 1124.69,-583 1119.69,-573.66 1114.96,-578.82"/>
</g>
<!-- Node0x562d9e66c9b8&#45;&gt;Node0x562d9e6715a8 -->
<g id="edge67" class="edge">
<title>Node0x562d9e66c9b8&#45;&gt;Node0x562d9e6715a8</title>
<path fill="none" stroke="#7fb2ff" d="M1301,-358.79C1301,-356.31 1301,-353.83 1301,-351.34"/>
<polygon fill="#7fb2ff" stroke="#7fb2ff" points="1304.5,-351.14 1301,-341.14 1297.5,-351.14 1304.5,-351.14"/>
</g>
<!-- Node0x562d9e66c9b8&#45;&gt;Node0x562d9e66fa78 -->
<g id="edge68" class="edge">
<title>Node0x562d9e66c9b8&#45;&gt;Node0x562d9e66fa78</title>
<path fill="none" stroke="#7fb2ff" d="M1251.67,-395.05C1149.12,-437.7 1146.04,-480.34 1242.43,-522.99"/>
<polygon fill="#7fb2ff" stroke="#7fb2ff" points="1241.18,-526.27 1251.75,-526.99 1243.94,-519.83 1241.18,-526.27"/>
</g>
<!-- Node0x562d9e66c9b8&#45;&gt;Node0x562d9e66f2f8 -->
<g id="edge69" class="edge">
<title>Node0x562d9e66c9b8&#45;&gt;Node0x562d9e66f2f8</title>
<path fill="none" stroke="#7fb2ff" d="M1472.74,-393.36C1489.5,-394.97 1506.53,-396.6 1523.34,-398.21"/>
<polygon fill="#7fb2ff" stroke="#7fb2ff" points="1523.48,-401.74 1533.77,-399.21 1524.15,-394.77 1523.48,-401.74"/>
</g>
<!-- Node0x562d9e66bd38&#45;&gt;Node0x562d9e66df48 -->
<g id="edge71" class="edge">
<title>Node0x562d9e66bd38&#45;&gt;Node0x562d9e66df48</title>
<path fill="none" stroke="#7fb2ff" d="M1249.32,-671.06C1145.91,-704.72 905.56,-766.54 730,-684 649.99,-646.38 594.48,-551.08 571.02,-504.07"/>
<polygon fill="#7fb2ff" stroke="#7fb2ff" points="574.16,-502.53 566.63,-495.08 567.87,-505.6 574.16,-502.53"/>
</g>
<!-- Node0x562d9e66bd38&#45;&gt;Node0x562d9e66c8c8 -->
<g id="edge72" class="edge">
<title>Node0x562d9e66bd38&#45;&gt;Node0x562d9e66c8c8</title>
<path fill="none" stroke="black" d="M1134.79,-634.9C1131.33,-632.2 1128.06,-629.24 1125,-626 1067.38,-564.96 1146.71,-310.95 1089,-250 1078.76,-239.18 1066.17,-231.45 1052.45,-226.03"/>
<polygon fill="black" stroke="black" points="1053.38,-222.65 1042.79,-222.64 1051.06,-229.26 1053.38,-222.65"/>
</g>
<!-- Node0x562d9e66bd38&#45;&gt;Node0x562d9e66af28 -->
<g id="edge76" class="edge">
<title>Node0x562d9e66bd38&#45;&gt;Node0x562d9e66af28</title>
<path fill="none" stroke="#7fb2ff" d="M1128.76,-639.81C1112.52,-638.56 1096.06,-637.29 1079.83,-636.04"/>
<polygon fill="#7fb2ff" stroke="#7fb2ff" points="1080.01,-632.55 1069.77,-635.27 1079.47,-639.52 1080.01,-632.55"/>
</g>
<!-- Node0x562d9e66bd38&#45;&gt;Node0x562d9e66ba18 -->
<g id="edge73" class="edge">
<title>Node0x562d9e66bd38&#45;&gt;Node0x562d9e66ba18</title>
<path fill="none" stroke="#7fb2ff" d="M1301,-634.79C1301,-632.31 1301,-629.83 1301,-627.34"/>
<polygon fill="#7fb2ff" stroke="#7fb2ff" points="1304.5,-627.14 1301,-617.14 1297.5,-627.14 1304.5,-627.14"/>
</g>
<!-- Node0x562d9e66bd38&#45;&gt;Node0x562d9e66fa78 -->
<g id="edge74" class="edge">
<title>Node0x562d9e66bd38&#45;&gt;Node0x562d9e66fa78</title>
<path fill="none" stroke="#7fb2ff" d="M1128.72,-641.47C1117.69,-634.57 1108.16,-625.59 1101,-614 1082.87,-584.67 1104.93,-567.58 1140.13,-557.68"/>
<polygon fill="#7fb2ff" stroke="#7fb2ff" points="1141.04,-561.06 1149.87,-555.2 1139.31,-554.28 1141.04,-561.06"/>
</g>
<!-- Node0x562d9e66bd38&#45;&gt;Node0x562d9e66f2f8 -->
<g id="edge75" class="edge">
<title>Node0x562d9e66bd38&#45;&gt;Node0x562d9e66f2f8</title>
<path fill="none" stroke="#7fb2ff" d="M1464.74,-634.91C1469.02,-632.23 1473.12,-629.27 1477,-626 1515.66,-593.36 1480.68,-556.93 1513,-518 1544.58,-479.95 1594.05,-453.49 1633.96,-436.92"/>
<polygon fill="#7fb2ff" stroke="#7fb2ff" points="1635.4,-440.11 1643.36,-433.12 1632.78,-433.62 1635.4,-440.11"/>
</g>
<!-- Node0x562d9e66d048 -->
<g id="node18" class="node">
<title>Node0x562d9e66d048</title>
<polygon fill="none" stroke="black" points="2266,-59 1922,-59 1922,-23 2266,-23 2266,-59"/>
<text text-anchor="middle" x="2094" y="-37.3" font-family="Times,serif" font-size="14.00">{lib/libLLVMObject.a(RecordStreamer.cpp.o)}</text>
</g>
<!-- Node0x562d9e66d8b8&#45;&gt;Node0x562d9e66d048 -->
<g id="edge51" class="edge">
<title>Node0x562d9e66d8b8&#45;&gt;Node0x562d9e66d048</title>
<path fill="none" stroke="black" d="M1886.12,-41C1894.67,-41 1903.25,-41 1911.79,-41"/>
<polygon fill="black" stroke="black" points="1911.8,-44.5 1921.8,-41 1911.8,-37.5 1911.8,-44.5"/>
</g>
<!-- Node0x562d9e66f2f8&#45;&gt;Node0x562d9e66df48 -->
<g id="edge54" class="edge">
<title>Node0x562d9e66f2f8&#45;&gt;Node0x562d9e66df48</title>
<path fill="none" stroke="#7fb2ff" d="M1685.75,-396.69C1655.23,-354.45 1573.3,-250.23 1477,-203 1327.51,-129.69 872.21,-58.4 730,-145 617.68,-213.4 575.7,-381.65 563.1,-448.73"/>
<polygon fill="#7fb2ff" stroke="#7fb2ff" points="559.58,-448.49 561.26,-458.95 566.47,-449.73 559.58,-448.49"/>
</g>
<!-- Node0x562d9e66f2f8&#45;&gt;Node0x562d9e66d5e8 -->
<g id="edge55" class="edge">
<title>Node0x562d9e66f2f8&#45;&gt;Node0x562d9e66d5e8</title>
<path fill="none" stroke="#7fb2ff" d="M1533.77,-416.67C1394.34,-418.09 1196.17,-420.1 1060.96,-421.47"/>
<polygon fill="#7fb2ff" stroke="#7fb2ff" points="1060.89,-417.97 1050.92,-421.57 1060.96,-424.97 1060.89,-417.97"/>
</g>
<!-- Node0x562d9e66f2f8&#45;&gt;Node0x562d9e66c8c8 -->
<g id="edge56" class="edge">
<title>Node0x562d9e66f2f8&#45;&gt;Node0x562d9e66c8c8</title>
<path fill="none" stroke="black" d="M1681.05,-396.93C1646.13,-362.16 1563.56,-286.66 1477,-256 1338.83,-207.06 1169.91,-203.86 1052.65,-209.77"/>
<polygon fill="black" stroke="black" points="1052.33,-206.28 1042.53,-210.3 1052.7,-213.27 1052.33,-206.28"/>
</g>
<!-- Node0x562d9e66f2f8&#45;&gt;Node0x562d9e66dfe8 -->
<g id="edge59" class="edge">
<title>Node0x562d9e66f2f8&#45;&gt;Node0x562d9e66dfe8</title>
<path fill="none" stroke="#7fb2ff" d="M1673.88,-396.79C1634.61,-368.95 1554.34,-316.85 1477,-296 1343.38,-259.99 1185.61,-257.81 1070.55,-263.16"/>
<polygon fill="#7fb2ff" stroke="#7fb2ff" points="1070.06,-259.68 1060.25,-263.66 1070.41,-266.67 1070.06,-259.68"/>
</g>
<!-- Node0x562d9e66f2f8&#45;&gt;Node0x562d9e66af28 -->
<g id="edge62" class="edge">
<title>Node0x562d9e66f2f8&#45;&gt;Node0x562d9e66af28</title>
<path fill="none" stroke="#7fb2ff" d="M1639.52,-433.15C1597.94,-448.98 1544.29,-476.08 1513,-518 1468.88,-577.1 1534.53,-633.85 1477,-680 1415.98,-728.95 1202.56,-690.13 1125,-680 1072.72,-673.17 1015.04,-657.36 972.67,-644.11"/>
<polygon fill="#7fb2ff" stroke="#7fb2ff" points="973.65,-640.75 963.06,-641.07 971.54,-647.43 973.65,-640.75"/>
</g>
<!-- Node0x562d9e66f2f8&#45;&gt;Node0x562d9e66ba18 -->
<g id="edge57" class="edge">
<title>Node0x562d9e66f2f8&#45;&gt;Node0x562d9e66ba18</title>
<path fill="none" stroke="#7fb2ff" d="M1652.7,-433.05C1612.6,-450.47 1554.44,-479.8 1513,-518 1491.79,-537.55 1501.32,-556.48 1477,-572 1474.65,-573.5 1472.25,-574.92 1469.8,-576.28"/>
<polygon fill="#7fb2ff" stroke="#7fb2ff" points="1468.07,-573.24 1460.75,-580.9 1471.25,-579.47 1468.07,-573.24"/>
</g>
<!-- Node0x562d9e66f2f8&#45;&gt;Node0x562d9e6715a8 -->
<g id="edge58" class="edge">
<title>Node0x562d9e66f2f8&#45;&gt;Node0x562d9e6715a8</title>
<path fill="none" stroke="#7fb2ff" d="M1637.78,-396.97C1575.02,-378.36 1485.08,-351.8 1477,-350 1465.63,-347.47 1453.79,-345.09 1441.88,-342.88"/>
<polygon fill="#7fb2ff" stroke="#7fb2ff" points="1442.32,-339.41 1431.85,-341.07 1441.07,-346.29 1442.32,-339.41"/>
</g>
<!-- Node0x562d9e66f2f8&#45;&gt;Node0x562d9e66fa78 -->
<g id="edge60" class="edge">
<title>Node0x562d9e66f2f8&#45;&gt;Node0x562d9e66fa78</title>
<path fill="none" stroke="#7fb2ff" d="M1656.65,-433.07C1591.84,-457.05 1466.01,-498.71 1383,-524.01"/>
<polygon fill="#7fb2ff" stroke="#7fb2ff" points="1381.9,-520.69 1373.34,-526.94 1383.93,-527.38 1381.9,-520.69"/>
</g>
<!-- Node0x562d9e66ebc8 -->
<g id="node20" class="node">
<title>Node0x562d9e66ebc8</title>
<polygon fill="#7fb2ff" stroke="black" points="2221.5,-433 1966.5,-433 1966.5,-397 2221.5,-397 2221.5,-433"/>
<text text-anchor="middle" x="2094" y="-411.3" font-family="Times,serif" font-size="14.00">{lib/libLLVMObject.a(ELF.cpp.o)}</text>
</g>
<!-- Node0x562d9e66f2f8&#45;&gt;Node0x562d9e66ebc8 -->
<g id="edge61" class="edge">
<title>Node0x562d9e66f2f8&#45;&gt;Node0x562d9e66ebc8</title>
<path fill="none" stroke="#7fb2ff" d="M1865.25,-408.33C1895.46,-408.18 1926.7,-408.25 1955.99,-408.53"/>
<polygon fill="#7fb2ff" stroke="#7fb2ff" points="1956.23,-412.03 1966.27,-408.64 1956.31,-405.03 1956.23,-412.03"/>
</g>
<!-- Node0x562d9e66c878&#45;&gt;Node0x562d9e66df48 -->
<g id="edge77" class="edge">
<title>Node0x562d9e66c878&#45;&gt;Node0x562d9e66df48</title>
<path fill="none" stroke="#7fb2ff" d="M1685.61,-563.28C1655.09,-604.75 1573.68,-705.23 1477,-742 1166.53,-860.09 1020.47,-879.14 730,-718 643.1,-669.79 589.58,-556.74 568.63,-504.44"/>
<polygon fill="#7fb2ff" stroke="#7fb2ff" points="571.89,-503.16 564.98,-495.12 565.37,-505.7 571.89,-503.16"/>
</g>
<!-- Node0x562d9e66c878&#45;&gt;Node0x562d9e66d5e8 -->
<g id="edge78" class="edge">
<title>Node0x562d9e66c878&#45;&gt;Node0x562d9e66d5e8</title>
<path fill="none" stroke="#7fb2ff" d="M1550.54,-526.97C1380.72,-506.27 1125.31,-475.12 1125,-475 1106.8,-468.06 1107.1,-457.2 1089,-450 1079.83,-446.35 1070.21,-443.19 1060.39,-440.46"/>
<polygon fill="#7fb2ff" stroke="#7fb2ff" points="1061.08,-437.02 1050.52,-437.86 1059.3,-443.79 1061.08,-437.02"/>
</g>
<!-- Node0x562d9e66c878&#45;&gt;Node0x562d9e66c8c8 -->
<g id="edge79" class="edge">
<title>Node0x562d9e66c878&#45;&gt;Node0x562d9e66c8c8</title>
<path fill="none" stroke="black" d="M1640.68,-526.97C1599.13,-511.08 1545,-483.84 1513,-442 1472.4,-388.91 1526.86,-340.5 1477,-296 1469.08,-288.93 1218.14,-258.64 1052.94,-239.37"/>
<polygon fill="black" stroke="black" points="1053.01,-235.85 1042.68,-238.17 1052.2,-242.81 1053.01,-235.85"/>
</g>
<!-- Node0x562d9e66c878&#45;&gt;Node0x562d9e66af28 -->
<g id="edge82" class="edge">
<title>Node0x562d9e66c878&#45;&gt;Node0x562d9e66af28</title>
<path fill="none" stroke="#7fb2ff" d="M1682.73,-563.11C1649.29,-599.96 1566.89,-682.77 1477,-713 1328.72,-762.87 1278.37,-743.87 1125,-713 1061.51,-700.22 993.39,-668.13 951.35,-645.94"/>
<polygon fill="#7fb2ff" stroke="#7fb2ff" points="952.75,-642.72 942.28,-641.09 949.45,-648.89 952.75,-642.72"/>
</g>
<!-- Node0x562d9e66c878&#45;&gt;Node0x562d9e66ba18 -->
<g id="edge80" class="edge">
<title>Node0x562d9e66c878&#45;&gt;Node0x562d9e66ba18</title>
<path fill="none" stroke="#7fb2ff" d="M1566.21,-563.02C1527.07,-568.35 1484.07,-574.2 1444.33,-579.62"/>
<polygon fill="#7fb2ff" stroke="#7fb2ff" points="1443.74,-576.16 1434.3,-580.98 1444.69,-583.1 1443.74,-576.16"/>
</g>
<!-- Node0x562d9e66c878&#45;&gt;Node0x562d9e66fa78 -->
<g id="edge81" class="edge">
<title>Node0x562d9e66c878&#45;&gt;Node0x562d9e66fa78</title>
<path fill="none" stroke="#7fb2ff" d="M1522.98,-551.71C1502.77,-551.78 1482.25,-551.76 1462.26,-551.64"/>
<polygon fill="#7fb2ff" stroke="#7fb2ff" points="1462.21,-548.14 1452.18,-551.57 1462.16,-555.14 1462.21,-548.14"/>
</g>
<!-- Node0x562d9e66b0b8 -->
<g id="node17" class="node">
<title>Node0x562d9e66b0b8</title>
<polygon fill="none" stroke="black" points="385,-572 0,-572 0,-536 385,-536 385,-572"/>
<text text-anchor="middle" x="192.5" y="-550.3" font-family="Times,serif" font-size="14.00">{lib/libLLVMObject.a(WindowsMachineFlag.cpp.o)}</text>
</g>
<!-- Node0x562d9e66e808 -->
<g id="node19" class="node">
<title>Node0x562d9e66e808</title>
<polygon fill="none" stroke="black" points="1059,-59 760,-59 760,-23 1059,-23 1059,-59"/>
<text text-anchor="middle" x="909.5" y="-37.3" font-family="Times,serif" font-size="14.00">{lib/libLLVMObject.a(IRSymtab.cpp.o)}</text>
</g>
<!-- Node0x562d9e66e808&#45;&gt;Node0x562d9e6715a8 -->
<g id="edge52" class="edge">
<title>Node0x562d9e66e808&#45;&gt;Node0x562d9e6715a8</title>
<path fill="none" stroke="black" d="M938.01,-59.19C973.31,-82.68 1036.31,-125.05 1089,-163 1153.91,-209.75 1228.07,-266.87 1268.91,-298.66"/>
<polygon fill="black" stroke="black" points="1266.82,-301.48 1276.86,-304.86 1271.13,-295.95 1266.82,-301.48"/>
</g>
<!-- Node0x562d9e66e808&#45;&gt;Node0x562d9e66d8b8 -->
<g id="edge53" class="edge">
<title>Node0x562d9e66e808&#45;&gt;Node0x562d9e66d8b8</title>
<path fill="none" stroke="black" d="M1059.18,-41C1184.71,-41 1365.43,-41 1502.72,-41"/>
<polygon fill="black" stroke="black" points="1502.94,-44.5 1512.94,-41 1502.94,-37.5 1502.94,-44.5"/>
</g>
<!-- Node0x562d9e66ebc8&#45;&gt;Node0x562d9e66d5e8 -->
<g id="edge83" class="edge">
<title>Node0x562d9e66ebc8&#45;&gt;Node0x562d9e66d5e8</title>
<path fill="none" stroke="#7fb2ff" d="M1975.58,-433C1946.39,-436.74 1915.11,-440.11 1886,-442 1594.35,-460.94 1252.72,-445.72 1060.95,-433.78"/>
<polygon fill="#7fb2ff" stroke="#7fb2ff" points="1061.01,-430.28 1050.81,-433.14 1060.57,-437.26 1061.01,-430.28"/>
</g>
<!-- Node0x562d9e66ebc8&#45;&gt;Node0x562d9e66c8c8 -->
<g id="edge84" class="edge">
<title>Node0x562d9e66ebc8&#45;&gt;Node0x562d9e66c8c8</title>
<path fill="none" stroke="black" d="M2076.28,-396.79C2043.52,-362.43 1967.01,-288.51 1886,-255 1589.84,-132.48 1198.79,-173.54 1014.74,-203.34"/>
<polygon fill="black" stroke="black" points="1014.1,-199.9 1004.8,-204.97 1015.23,-206.81 1014.1,-199.9"/>
</g>
<!-- Node0x562d9e66ebc8&#45;&gt;Node0x562d9e66dfe8 -->
<g id="edge87" class="edge">
<title>Node0x562d9e66ebc8&#45;&gt;Node0x562d9e66dfe8</title>
<path fill="none" stroke="#7fb2ff" d="M2047.11,-396.85C2005.53,-380.88 1942.33,-357.78 1886,-342 1558.24,-250.18 1464.97,-239.4 1125,-256 1107.26,-256.87 1088.73,-258.13 1070.3,-259.62"/>
<polygon fill="#7fb2ff" stroke="#7fb2ff" points="1069.76,-256.16 1060.09,-260.47 1070.34,-263.13 1069.76,-256.16"/>
</g>
<!-- Node0x562d9e66ebc8&#45;&gt;Node0x562d9e66ba18 -->
<g id="edge85" class="edge">
<title>Node0x562d9e66ebc8&#45;&gt;Node0x562d9e66ba18</title>
<path fill="none" stroke="#7fb2ff" d="M2076.68,-433.19C2044.33,-467.79 1968.06,-542.27 1886,-572 1754.91,-619.49 1596.35,-623.79 1477.54,-617.57"/>
<polygon fill="#7fb2ff" stroke="#7fb2ff" points="1477.43,-614.06 1467.26,-617 1477.05,-621.05 1477.43,-614.06"/>
</g>
<!-- Node0x562d9e66ebc8&#45;&gt;Node0x562d9e6715a8 -->
<g id="edge86" class="edge">
<title>Node0x562d9e66ebc8&#45;&gt;Node0x562d9e6715a8</title>
<path fill="none" stroke="#7fb2ff" d="M1966.34,-398.09C1939.81,-394.66 1912,-391.14 1886,-388 1745.89,-371.07 1586.66,-353.45 1469.9,-340.84"/>
<polygon fill="#7fb2ff" stroke="#7fb2ff" points="1470.12,-337.34 1459.8,-339.75 1469.36,-344.3 1470.12,-337.34"/>
</g>
<!-- Node0x562d9e66ebc8&#45;&gt;Node0x562d9e66f2f8 -->
<g id="edge88" class="edge">
<title>Node0x562d9e66ebc8&#45;&gt;Node0x562d9e66f2f8</title>
<path fill="none" stroke="#7fb2ff" d="M1966.27,-421.36C1937.35,-421.7 1906.12,-421.82 1875.58,-421.71"/>
<polygon fill="#7fb2ff" stroke="#7fb2ff" points="1875.26,-418.21 1865.25,-421.67 1875.23,-425.21 1875.26,-418.21"/>
</g>
<!-- Node0x562d9e66c058 -->
<g id="node21" class="node">
<title>Node0x562d9e66c058</title>
<polygon fill="none" stroke="black" points="335,-518 50,-518 50,-482 335,-482 335,-518"/>
<text text-anchor="middle" x="192.5" y="-496.3" font-family="Times,serif" font-size="14.00">{lib/libLLVMObject.a(TapiFile.cpp.o)}</text>
</g>
<!-- Node0x562d9e66c058&#45;&gt;Node0x562d9e66df48 -->
<g id="edge89" class="edge">
<title>Node0x562d9e66c058&#45;&gt;Node0x562d9e66df48</title>
<path fill="none" stroke="black" d="M335.14,-491.03C359.89,-489.46 385.67,-487.82 410.53,-486.25"/>
<polygon fill="black" stroke="black" points="410.99,-489.73 420.75,-485.6 410.55,-482.74 410.99,-489.73"/>
</g>
<!-- Node0x562d9e66c058&#45;&gt;Node0x562d9e66af28 -->
<g id="edge90" class="edge">
<title>Node0x562d9e66c058&#45;&gt;Node0x562d9e66af28</title>
<path fill="none" stroke="black" d="M328.35,-518.02C347.4,-520.86 366.71,-523.88 385,-527 539.15,-553.26 575.98,-568.97 730,-596 744.17,-598.49 759,-600.95 773.79,-603.32"/>
<polygon fill="black" stroke="black" points="773.6,-606.83 784.02,-604.94 774.7,-599.92 773.6,-606.83"/>
</g>
</g>
</svg>
