<?xml version="1.0" encoding="UTF-8" standalone="no"?>
<!DOCTYPE svg PUBLIC "-//W3C//DTD SVG 1.1//EN"
 "http://www.w3.org/Graphics/SVG/1.1/DTD/svg11.dtd">
<!-- Generated by graphviz version 2.43.0 (0)
 -->
<!-- Title: bin/lld_lib/libLLVMBitWriter.a Pages: 1 -->
<svg width="760pt" height="67pt"
 viewBox="0.00 0.00 760.00 67.00" xmlns="http://www.w3.org/2000/svg" xmlns:xlink="http://www.w3.org/1999/xlink">
<g id="graph0" class="graph" transform="scale(1 1) rotate(0) translate(4 63)">
<title>bin/lld_lib/libLLVMBitWriter.a</title>
<polygon fill="white" stroke="transparent" points="-4,4 -4,-63 756,-63 756,4 -4,4"/>
<text text-anchor="middle" x="376" y="-7.8" font-family="Times,serif" font-size="14.00">bin/lld_lib/libLLVMBitWriter.a</text>
<!-- Node0x5634617b0ea8 -->
<g id="node1" class="node">
<title>Node0x5634617b0ea8</title>
<polygon fill="#7fb2ff" stroke="black" points="345,-59 0,-59 0,-23 345,-23 345,-59"/>
<text text-anchor="middle" x="172.5" y="-37.3" font-family="Times,serif" font-size="14.00">{lib/libLLVMBitWriter.a(BitcodeWriter.cpp.o)}</text>
</g>
<!-- Node0x5634617a79e8 -->
<g id="node2" class="node">
<title>Node0x5634617a79e8</title>
<polygon fill="#7fb2ff" stroke="black" points="752,-59 381,-59 381,-23 752,-23 752,-59"/>
<text text-anchor="middle" x="566.5" y="-37.3" font-family="Times,serif" font-size="14.00">{lib/libLLVMBitWriter.a(ValueEnumerator.cpp.o)}</text>
</g>
<!-- Node0x5634617b0ea8&#45;&gt;Node0x5634617a79e8 -->
<g id="edge1" class="edge">
<title>Node0x5634617b0ea8&#45;&gt;Node0x5634617a79e8</title>
<path fill="none" stroke="#7fb2ff" d="M345.15,-34.3C353.66,-34.26 362.23,-34.25 370.8,-34.25"/>
<polygon fill="#7fb2ff" stroke="#7fb2ff" points="370.84,-37.75 380.85,-34.26 370.85,-30.75 370.84,-37.75"/>
</g>
<!-- Node0x5634617a79e8&#45;&gt;Node0x5634617b0ea8 -->
<g id="edge2" class="edge">
<title>Node0x5634617a79e8&#45;&gt;Node0x5634617b0ea8</title>
<path fill="none" stroke="#7fb2ff" d="M380.85,-47.74C372.29,-47.76 363.71,-47.75 355.16,-47.73"/>
<polygon fill="#7fb2ff" stroke="#7fb2ff" points="355.16,-44.23 345.15,-47.7 355.14,-51.23 355.16,-44.23"/>
</g>
</g>
</svg>
