<?xml version="1.0" encoding="UTF-8" standalone="no"?>
<!DOCTYPE svg PUBLIC "-//W3C//DTD SVG 1.1//EN"
 "http://www.w3.org/Graphics/SVG/1.1/DTD/svg11.dtd">
<!-- Generated by graphviz version 2.43.0 (0)
 -->
<!-- Title: bin/llvm&#45;config_lib/libLLVMSupport.a Pages: 1 -->
<svg width="2344pt" height="1537pt"
 viewBox="0.00 0.00 2344.00 1537.19" xmlns="http://www.w3.org/2000/svg" xmlns:xlink="http://www.w3.org/1999/xlink">
<g id="graph0" class="graph" transform="scale(1 1) rotate(0) translate(4 1533.19)">
<title>bin/llvm&#45;config_lib/libLLVMSupport.a</title>
<polygon fill="white" stroke="transparent" points="-4,4 -4,-1533.19 2340,-1533.19 2340,4 -4,4"/>
<text text-anchor="middle" x="1168" y="-7.8" font-family="Times,serif" font-size="14.00">bin/llvm&#45;config_lib/libLLVMSupport.a</text>
<!-- Node0x55b4a1b3af78 -->
<g id="node1" class="node">
<title>Node0x55b4a1b3af78</title>
<polygon fill="#7fb2ff" stroke="black" points="718,-1135.21 374,-1135.21 374,-1099.21 718,-1099.21 718,-1135.21"/>
<text text-anchor="middle" x="546" y="-1113.51" font-family="Times,serif" font-size="14.00">{lib/libLLVMSupport.a(ErrorHandling.cpp.o)}</text>
</g>
<!-- Node0x55b4a1b39fd8 -->
<g id="node2" class="node">
<title>Node0x55b4a1b39fd8</title>
<polygon fill="#7fb2ff" stroke="black" points="1134,-1135.21 802,-1135.21 802,-1099.21 1134,-1099.21 1134,-1135.21"/>
<text text-anchor="middle" x="968" y="-1113.51" font-family="Times,serif" font-size="14.00">{lib/libLLVMSupport.a(raw_ostream.cpp.o)}</text>
</g>
<!-- Node0x55b4a1b3af78&#45;&gt;Node0x55b4a1b39fd8 -->
<g id="edge1" class="edge">
<title>Node0x55b4a1b3af78&#45;&gt;Node0x55b4a1b39fd8</title>
<path fill="none" stroke="#7fb2ff" d="M718.13,-1110.57C742.47,-1110.44 767.53,-1110.43 791.94,-1110.55"/>
<polygon fill="#7fb2ff" stroke="#7fb2ff" points="791.97,-1114.05 801.99,-1110.6 792.01,-1107.05 791.97,-1114.05"/>
</g>
<!-- Node0x55b4a1b39e98 -->
<g id="node3" class="node">
<title>Node0x55b4a1b39e98</title>
<polygon fill="#7fb2ff" stroke="black" points="1109,-891.21 827,-891.21 827,-855.21 1109,-855.21 1109,-891.21"/>
<text text-anchor="middle" x="968" y="-869.51" font-family="Times,serif" font-size="14.00">{lib/libLLVMSupport.a(Twine.cpp.o)}</text>
</g>
<!-- Node0x55b4a1b3af78&#45;&gt;Node0x55b4a1b39e98 -->
<g id="edge2" class="edge">
<title>Node0x55b4a1b3af78&#45;&gt;Node0x55b4a1b39e98</title>
<path fill="none" stroke="#7fb2ff" d="M595.69,-1099.18C635.85,-1082.29 692.18,-1053.71 730,-1014.21 754.47,-988.66 739.36,-966.5 766,-943.21 792.27,-920.25 826.51,-904.7 859.26,-894.23"/>
<polygon fill="#7fb2ff" stroke="#7fb2ff" points="860.37,-897.55 868.91,-891.27 858.32,-890.85 860.37,-897.55"/>
</g>
<!-- Node0x55b4a1b3c288 -->
<g id="node4" class="node">
<title>Node0x55b4a1b3c288</title>
<polygon fill="#7fb2ff" stroke="black" points="1114,-1189.21 822,-1189.21 822,-1153.21 1114,-1153.21 1114,-1189.21"/>
<text text-anchor="middle" x="968" y="-1167.51" font-family="Times,serif" font-size="14.00">{lib/libLLVMSupport.a(Signals.cpp.o)}</text>
</g>
<!-- Node0x55b4a1b3af78&#45;&gt;Node0x55b4a1b3c288 -->
<g id="edge3" class="edge">
<title>Node0x55b4a1b3af78&#45;&gt;Node0x55b4a1b3c288</title>
<path fill="none" stroke="#7fb2ff" d="M718.13,-1132.57C766.77,-1138.56 818.3,-1145.42 861.77,-1151.74"/>
<polygon fill="#7fb2ff" stroke="#7fb2ff" points="861.37,-1155.22 871.77,-1153.21 862.39,-1148.3 861.37,-1155.22"/>
</g>
<!-- Node0x55b4a1b39fd8&#45;&gt;Node0x55b4a1b3af78 -->
<g id="edge4" class="edge">
<title>Node0x55b4a1b39fd8&#45;&gt;Node0x55b4a1b3af78</title>
<path fill="none" stroke="#7fb2ff" d="M801.99,-1123.82C777.78,-1123.98 752.74,-1124 728.23,-1123.91"/>
<polygon fill="#7fb2ff" stroke="#7fb2ff" points="728.15,-1120.41 718.13,-1123.86 728.12,-1127.41 728.15,-1120.41"/>
</g>
<!-- Node0x55b4a1b39fd8&#45;&gt;Node0x55b4a1b39e98 -->
<g id="edge11" class="edge">
<title>Node0x55b4a1b39fd8&#45;&gt;Node0x55b4a1b39e98</title>
<path fill="none" stroke="#7fb2ff" d="M997.03,-1099.13C1096.42,-1031.82 1099.24,-964.51 1005.51,-897.21"/>
<polygon fill="#7fb2ff" stroke="#7fb2ff" points="1007.27,-894.17 997.06,-891.32 1003.27,-899.91 1007.27,-894.17"/>
</g>
<!-- Node0x55b4a1b3a2a8 -->
<g id="node5" class="node">
<title>Node0x55b4a1b3a2a8</title>
<polygon fill="#7fb2ff" stroke="black" points="1573,-1349.21 1206,-1349.21 1206,-1313.21 1573,-1313.21 1573,-1349.21"/>
<text text-anchor="middle" x="1389.5" y="-1327.51" font-family="Times,serif" font-size="14.00">{lib/libLLVMSupport.a(NativeFormatting.cpp.o)}</text>
</g>
<!-- Node0x55b4a1b39fd8&#45;&gt;Node0x55b4a1b3a2a8 -->
<g id="edge5" class="edge">
<title>Node0x55b4a1b39fd8&#45;&gt;Node0x55b4a1b3a2a8</title>
<path fill="none" stroke="#7fb2ff" d="M1134.07,-1113.04C1147.21,-1118.38 1159.45,-1125.62 1170,-1135.21 1222.32,-1182.8 1154.64,-1241.59 1206,-1290.21 1214.05,-1297.83 1223.23,-1303.98 1233.11,-1308.94"/>
<polygon fill="#7fb2ff" stroke="#7fb2ff" points="1231.81,-1312.19 1242.36,-1313.16 1234.72,-1305.83 1231.81,-1312.19"/>
</g>
<!-- Node0x55b4a1b3c328 -->
<g id="node6" class="node">
<title>Node0x55b4a1b3c328</title>
<polygon fill="#7fb2ff" stroke="black" points="1564,-1203.21 1215,-1203.21 1215,-1167.21 1564,-1167.21 1564,-1203.21"/>
<text text-anchor="middle" x="1389.5" y="-1181.51" font-family="Times,serif" font-size="14.00">{lib/libLLVMSupport.a(FormatVariadic.cpp.o)}</text>
</g>
<!-- Node0x55b4a1b39fd8&#45;&gt;Node0x55b4a1b3c328 -->
<g id="edge6" class="edge">
<title>Node0x55b4a1b39fd8&#45;&gt;Node0x55b4a1b3c328</title>
<path fill="none" stroke="#7fb2ff" d="M1129.3,-1135.24C1143.15,-1137.86 1156.87,-1140.83 1170,-1144.21 1186.62,-1148.5 1189.4,-1153.82 1206,-1158.21 1215.52,-1160.74 1225.39,-1163.04 1235.38,-1165.15"/>
<polygon fill="#7fb2ff" stroke="#7fb2ff" points="1234.91,-1168.62 1245.41,-1167.18 1236.3,-1161.76 1234.91,-1168.62"/>
</g>
<!-- Node0x55b4a1b3b6f8 -->
<g id="node7" class="node">
<title>Node0x55b4a1b3b6f8</title>
<polygon fill="#7fb2ff" stroke="black" points="1525.5,-1149.21 1253.5,-1149.21 1253.5,-1113.21 1525.5,-1113.21 1525.5,-1149.21"/>
<text text-anchor="middle" x="1389.5" y="-1127.51" font-family="Times,serif" font-size="14.00">{lib/libLLVMSupport.a(Path.cpp.o)}</text>
</g>
<!-- Node0x55b4a1b39fd8&#45;&gt;Node0x55b4a1b3b6f8 -->
<g id="edge7" class="edge">
<title>Node0x55b4a1b39fd8&#45;&gt;Node0x55b4a1b3b6f8</title>
<path fill="none" stroke="#7fb2ff" d="M1134.2,-1122.73C1170.09,-1123.93 1207.81,-1125.18 1242.88,-1126.35"/>
<polygon fill="#7fb2ff" stroke="#7fb2ff" points="1243.07,-1129.86 1253.18,-1126.7 1243.31,-1122.87 1243.07,-1129.86"/>
</g>
<!-- Node0x55b4a1b39d08 -->
<g id="node8" class="node">
<title>Node0x55b4a1b39d08</title>
<polygon fill="#7fb2ff" stroke="black" points="1537,-1095.21 1242,-1095.21 1242,-1059.21 1537,-1059.21 1537,-1095.21"/>
<text text-anchor="middle" x="1389.5" y="-1073.51" font-family="Times,serif" font-size="14.00">{lib/libLLVMSupport.a(Process.cpp.o)}</text>
</g>
<!-- Node0x55b4a1b39fd8&#45;&gt;Node0x55b4a1b39d08 -->
<g id="edge8" class="edge">
<title>Node0x55b4a1b39fd8&#45;&gt;Node0x55b4a1b39d08</title>
<path fill="none" stroke="#7fb2ff" d="M1134.2,-1101.46C1166.26,-1098.4 1199.79,-1095.21 1231.58,-1092.18"/>
<polygon fill="#7fb2ff" stroke="#7fb2ff" points="1232.22,-1095.63 1241.84,-1091.2 1231.55,-1088.66 1232.22,-1095.63"/>
</g>
<!-- Node0x55b4a1b3b9c8 -->
<g id="node9" class="node">
<title>Node0x55b4a1b3b9c8</title>
<polygon fill="#7fb2ff" stroke="black" points="1540.5,-1257.21 1238.5,-1257.21 1238.5,-1221.21 1540.5,-1221.21 1540.5,-1257.21"/>
<text text-anchor="middle" x="1389.5" y="-1235.51" font-family="Times,serif" font-size="14.00">{lib/libLLVMSupport.a(Program.cpp.o)}</text>
</g>
<!-- Node0x55b4a1b39fd8&#45;&gt;Node0x55b4a1b3b9c8 -->
<g id="edge9" class="edge">
<title>Node0x55b4a1b39fd8&#45;&gt;Node0x55b4a1b3b9c8</title>
<path fill="none" stroke="#7fb2ff" d="M1134.15,-1116.99C1146.88,-1121.59 1159.02,-1127.56 1170,-1135.21 1198.05,-1154.77 1178.08,-1183.47 1206,-1203.21 1213.96,-1208.84 1222.6,-1213.51 1231.66,-1217.39"/>
<polygon fill="#7fb2ff" stroke="#7fb2ff" points="1230.65,-1220.75 1241.23,-1221.15 1233.2,-1214.23 1230.65,-1220.75"/>
</g>
<!-- Node0x55b4a1b3a988 -->
<g id="node10" class="node">
<title>Node0x55b4a1b3a988</title>
<polygon fill="#7fb2ff" stroke="black" points="1551.5,-803.21 1227.5,-803.21 1227.5,-767.21 1551.5,-767.21 1551.5,-803.21"/>
<text text-anchor="middle" x="1389.5" y="-781.51" font-family="Times,serif" font-size="14.00">{lib/libLLVMSupport.a(SmallVector.cpp.o)}</text>
</g>
<!-- Node0x55b4a1b39fd8&#45;&gt;Node0x55b4a1b3a988 -->
<g id="edge10" class="edge">
<title>Node0x55b4a1b39fd8&#45;&gt;Node0x55b4a1b3a988</title>
<path fill="none" stroke="#7fb2ff" d="M987.28,-1099.05C1023.59,-1062.62 1106.76,-977.53 1170,-900.21 1187.34,-879.02 1184.11,-866.66 1206,-850.21 1232.32,-830.43 1265.21,-816.27 1295.78,-806.33"/>
<polygon fill="#7fb2ff" stroke="#7fb2ff" points="1297.12,-809.58 1305.61,-803.25 1295.02,-802.9 1297.12,-809.58"/>
</g>
<!-- Node0x55b4a1b39e98&#45;&gt;Node0x55b4a1b39fd8 -->
<g id="edge23" class="edge">
<title>Node0x55b4a1b39e98&#45;&gt;Node0x55b4a1b39fd8</title>
<path fill="none" stroke="#7fb2ff" d="M938.94,-891.32C839.57,-958.63 836.77,-1025.93 930.52,-1093.24"/>
<polygon fill="#7fb2ff" stroke="#7fb2ff" points="928.76,-1096.28 938.97,-1099.13 932.76,-1090.54 928.76,-1096.28"/>
</g>
<!-- Node0x55b4a1b39e98&#45;&gt;Node0x55b4a1b3a988 -->
<g id="edge24" class="edge">
<title>Node0x55b4a1b39e98&#45;&gt;Node0x55b4a1b3a988</title>
<path fill="none" stroke="#7fb2ff" d="M1109.2,-858.86C1129.98,-854.46 1150.83,-848.71 1170,-841.21 1187.91,-834.21 1188.15,-824.36 1206,-817.21 1216.85,-812.87 1228.29,-809.12 1239.95,-805.87"/>
<polygon fill="#7fb2ff" stroke="#7fb2ff" points="1241.01,-809.21 1249.78,-803.26 1239.21,-802.44 1241.01,-809.21"/>
</g>
<!-- Node0x55b4a1b3c288&#45;&gt;Node0x55b4a1b3af78 -->
<g id="edge27" class="edge">
<title>Node0x55b4a1b3c288&#45;&gt;Node0x55b4a1b3af78</title>
<path fill="none" stroke="#7fb2ff" d="M821.78,-1159C766.09,-1152.36 703.66,-1144.16 652.4,-1136.71"/>
<polygon fill="#7fb2ff" stroke="#7fb2ff" points="652.71,-1133.22 642.3,-1135.23 651.69,-1140.14 652.71,-1133.22"/>
</g>
<!-- Node0x55b4a1b3c288&#45;&gt;Node0x55b4a1b39fd8 -->
<g id="edge30" class="edge">
<title>Node0x55b4a1b3c288&#45;&gt;Node0x55b4a1b39fd8</title>
<path fill="none" stroke="#7fb2ff" d="M968,-1153C968,-1150.52 968,-1148.04 968,-1145.56"/>
<polygon fill="#7fb2ff" stroke="#7fb2ff" points="971.5,-1145.35 968,-1135.35 964.5,-1145.35 971.5,-1145.35"/>
</g>
<!-- Node0x55b4a1b3c288&#45;&gt;Node0x55b4a1b39e98 -->
<g id="edge35" class="edge">
<title>Node0x55b4a1b3c288&#45;&gt;Node0x55b4a1b39e98</title>
<path fill="none" stroke="#7fb2ff" d="M821.82,-1180.85C791.69,-1174.86 764.23,-1161.47 748,-1135.21 688.09,-1038.28 841.54,-939.48 922.2,-896.06"/>
<polygon fill="#7fb2ff" stroke="#7fb2ff" points="924,-899.07 931.19,-891.29 920.71,-892.89 924,-899.07"/>
</g>
<!-- Node0x55b4a1b3c288&#45;&gt;Node0x55b4a1b3a2a8 -->
<g id="edge31" class="edge">
<title>Node0x55b4a1b3c288&#45;&gt;Node0x55b4a1b3a2a8</title>
<path fill="none" stroke="#7fb2ff" d="M1007.98,-1189.28C1049.1,-1208.77 1115.36,-1241.44 1170,-1274.21 1186.71,-1284.23 1187.99,-1291.8 1206,-1299.21 1216.47,-1303.52 1227.51,-1307.25 1238.76,-1310.47"/>
<polygon fill="#7fb2ff" stroke="#7fb2ff" points="1238.13,-1313.93 1248.7,-1313.18 1239.97,-1307.18 1238.13,-1313.93"/>
</g>
<!-- Node0x55b4a1b3c288&#45;&gt;Node0x55b4a1b3b6f8 -->
<g id="edge32" class="edge">
<title>Node0x55b4a1b3c288&#45;&gt;Node0x55b4a1b3b6f8</title>
<path fill="none" stroke="#7fb2ff" d="M1114.25,-1157.36C1156,-1153.38 1201.53,-1149.04 1243.28,-1145.06"/>
<polygon fill="#7fb2ff" stroke="#7fb2ff" points="1243.62,-1148.54 1253.24,-1144.11 1242.95,-1141.58 1243.62,-1148.54"/>
</g>
<!-- Node0x55b4a1b3c288&#45;&gt;Node0x55b4a1b3a988 -->
<g id="edge33" class="edge">
<title>Node0x55b4a1b3c288&#45;&gt;Node0x55b4a1b3a988</title>
<path fill="none" stroke="#7fb2ff" d="M1114.16,-1174.88C1135.11,-1169.25 1154.72,-1159.68 1170,-1144.21 1262.54,-1050.59 1123.71,-952.97 1206,-850.21 1221.96,-830.28 1244.51,-816.46 1268.33,-806.87"/>
<polygon fill="#7fb2ff" stroke="#7fb2ff" points="1269.75,-810.07 1277.87,-803.27 1267.28,-803.52 1269.75,-810.07"/>
</g>
<!-- Node0x55b4a1b3b388 -->
<g id="node11" class="node">
<title>Node0x55b4a1b3b388</title>
<polygon fill="#7fb2ff" stroke="black" points="1563,-1041.21 1216,-1041.21 1216,-1005.21 1563,-1005.21 1563,-1041.21"/>
<text text-anchor="middle" x="1389.5" y="-1019.51" font-family="Times,serif" font-size="14.00">{lib/libLLVMSupport.a(ManagedStatic.cpp.o)}</text>
</g>
<!-- Node0x55b4a1b3c288&#45;&gt;Node0x55b4a1b3b388 -->
<g id="edge28" class="edge">
<title>Node0x55b4a1b3c288&#45;&gt;Node0x55b4a1b3b388</title>
<path fill="none" stroke="#7fb2ff" d="M1114.21,-1170.69C1134.41,-1165.41 1153.78,-1157.05 1170,-1144.21 1205.09,-1116.46 1171.1,-1078.2 1206,-1050.21 1207.37,-1049.11 1208.77,-1048.04 1210.2,-1047.01"/>
<polygon fill="#7fb2ff" stroke="#7fb2ff" points="1212.18,-1049.89 1218.59,-1041.46 1208.32,-1044.06 1212.18,-1049.89"/>
</g>
<!-- Node0x55b4a1b3c008 -->
<g id="node12" class="node">
<title>Node0x55b4a1b3c008</title>
<polygon fill="none" stroke="black" points="1544.5,-281.21 1234.5,-281.21 1234.5,-245.21 1544.5,-245.21 1544.5,-281.21"/>
<text text-anchor="middle" x="1389.5" y="-259.51" font-family="Times,serif" font-size="14.00">{lib/libLLVMSupport.a(MemAlloc.cpp.o)}</text>
</g>
<!-- Node0x55b4a1b3c288&#45;&gt;Node0x55b4a1b3c008 -->
<g id="edge29" class="edge">
<title>Node0x55b4a1b3c288&#45;&gt;Node0x55b4a1b3c008</title>
<path fill="none" stroke="black" d="M1114.04,-1175.39C1135.14,-1169.74 1154.82,-1160.02 1170,-1144.21 1229.67,-1082.07 1186.94,-842.23 1206,-758.21 1247.89,-573.57 1341.13,-364.36 1375.47,-290.66"/>
<polygon fill="black" stroke="black" points="1378.66,-292.1 1379.73,-281.56 1372.32,-289.13 1378.66,-292.1"/>
</g>
<!-- Node0x55b4a1b3b748 -->
<g id="node13" class="node">
<title>Node0x55b4a1b3b748</title>
<polygon fill="#7fb2ff" stroke="black" points="1543.5,-987.21 1235.5,-987.21 1235.5,-951.21 1543.5,-951.21 1543.5,-987.21"/>
<text text-anchor="middle" x="1389.5" y="-965.51" font-family="Times,serif" font-size="14.00">{lib/libLLVMSupport.a(StringRef.cpp.o)}</text>
</g>
<!-- Node0x55b4a1b3c288&#45;&gt;Node0x55b4a1b3b748 -->
<g id="edge34" class="edge">
<title>Node0x55b4a1b3c288&#45;&gt;Node0x55b4a1b3b748</title>
<path fill="none" stroke="#7fb2ff" d="M1114.18,-1172.89C1134.75,-1167.41 1154.23,-1158.41 1170,-1144.21 1220.32,-1098.93 1155.99,-1041.84 1206,-996.21 1212.07,-990.67 1218.76,-985.97 1225.88,-982"/>
<polygon fill="#7fb2ff" stroke="#7fb2ff" points="1227.76,-984.97 1235.12,-977.35 1224.62,-978.72 1227.76,-984.97"/>
</g>
<!-- Node0x55b4a1b3a708 -->
<g id="node14" class="node">
<title>Node0x55b4a1b3a708</title>
<polygon fill="#7fb2ff" stroke="black" points="1560.5,-1403.21 1218.5,-1403.21 1218.5,-1367.21 1560.5,-1367.21 1560.5,-1403.21"/>
<text text-anchor="middle" x="1389.5" y="-1381.51" font-family="Times,serif" font-size="14.00">{lib/libLLVMSupport.a(CommandLine.cpp.o)}</text>
</g>
<!-- Node0x55b4a1b3c288&#45;&gt;Node0x55b4a1b3a708 -->
<g id="edge36" class="edge">
<title>Node0x55b4a1b3c288&#45;&gt;Node0x55b4a1b3a708</title>
<path fill="none" stroke="#7fb2ff" d="M1028.17,-1189.24C1072.28,-1205.32 1131.33,-1232.8 1170,-1274.21 1197.72,-1303.9 1173.82,-1333.43 1206,-1358.21 1207.44,-1359.32 1208.9,-1360.4 1210.39,-1361.43"/>
<polygon fill="#7fb2ff" stroke="#7fb2ff" points="1208.85,-1364.6 1219.17,-1367 1212.6,-1358.69 1208.85,-1364.6"/>
</g>
<!-- Node0x55b4a1b3a078 -->
<g id="node15" class="node">
<title>Node0x55b4a1b3a078</title>
<polygon fill="#7fb2ff" stroke="black" points="1545.5,-895.21 1233.5,-895.21 1233.5,-859.21 1545.5,-859.21 1545.5,-895.21"/>
<text text-anchor="middle" x="1389.5" y="-873.51" font-family="Times,serif" font-size="14.00">{lib/libLLVMSupport.a(Threading.cpp.o)}</text>
</g>
<!-- Node0x55b4a1b3c288&#45;&gt;Node0x55b4a1b3a078 -->
<g id="edge37" class="edge">
<title>Node0x55b4a1b3c288&#45;&gt;Node0x55b4a1b3a078</title>
<path fill="none" stroke="#7fb2ff" d="M1114.21,-1173.95C1134.96,-1168.38 1154.49,-1159.07 1170,-1144.21 1235.85,-1081.13 1147.08,-1011.81 1206,-942.21 1222.96,-922.18 1246.53,-908.32 1271.12,-898.74"/>
<polygon fill="#7fb2ff" stroke="#7fb2ff" points="1272.39,-902 1280.58,-895.27 1269.98,-895.42 1272.39,-902"/>
</g>
<!-- Node0x55b4a1b3a2a8&#45;&gt;Node0x55b4a1b39fd8 -->
<g id="edge101" class="edge">
<title>Node0x55b4a1b3a2a8&#45;&gt;Node0x55b4a1b39fd8</title>
<path fill="none" stroke="#7fb2ff" d="M1211.41,-1312.98C1209.56,-1311.46 1207.75,-1309.87 1206,-1308.21 1154.64,-1259.59 1222.32,-1200.8 1170,-1153.21 1162.01,-1145.94 1153.04,-1140.03 1143.45,-1135.23"/>
<polygon fill="#7fb2ff" stroke="#7fb2ff" points="1144.63,-1131.92 1134.07,-1130.97 1141.73,-1138.29 1144.63,-1131.92"/>
</g>
<!-- Node0x55b4a1b3a2a8&#45;&gt;Node0x55b4a1b3a988 -->
<g id="edge102" class="edge">
<title>Node0x55b4a1b3a2a8&#45;&gt;Node0x55b4a1b3a988</title>
<path fill="none" stroke="#7fb2ff" d="M1208.82,-1313.07C1200.71,-1306.86 1193.63,-1299.32 1188,-1290.21 1175.41,-1269.85 1175.41,-879.58 1188,-859.21 1203.29,-834.47 1227.99,-817.94 1254.93,-806.91"/>
<polygon fill="#7fb2ff" stroke="#7fb2ff" points="1256.46,-810.07 1264.55,-803.23 1253.96,-803.53 1256.46,-810.07"/>
</g>
<!-- Node0x55b4a1b3c328&#45;&gt;Node0x55b4a1b3a988 -->
<g id="edge103" class="edge">
<title>Node0x55b4a1b3c328&#45;&gt;Node0x55b4a1b3a988</title>
<path fill="none" stroke="#7fb2ff" d="M1214.59,-1175.81C1204.04,-1169.1 1194.91,-1160.4 1188,-1149.21 1171.06,-1121.8 1171.06,-886.62 1188,-859.21 1203.29,-834.47 1227.99,-817.94 1254.93,-806.91"/>
<polygon fill="#7fb2ff" stroke="#7fb2ff" points="1256.46,-810.07 1264.55,-803.23 1253.96,-803.53 1256.46,-810.07"/>
</g>
<!-- Node0x55b4a1b3c328&#45;&gt;Node0x55b4a1b3b748 -->
<g id="edge104" class="edge">
<title>Node0x55b4a1b3c328&#45;&gt;Node0x55b4a1b3b748</title>
<path fill="none" stroke="#7fb2ff" d="M1214.59,-1175.81C1204.04,-1169.1 1194.91,-1160.4 1188,-1149.21 1171.18,-1121.99 1171.18,-1032.43 1188,-1005.21 1197.29,-990.18 1210.58,-979.63 1225.96,-972.38"/>
<polygon fill="#7fb2ff" stroke="#7fb2ff" points="1227.37,-975.59 1235.24,-968.49 1224.67,-969.13 1227.37,-975.59"/>
</g>
<!-- Node0x55b4a1b3b6f8&#45;&gt;Node0x55b4a1b39e98 -->
<g id="edge15" class="edge">
<title>Node0x55b4a1b3b6f8&#45;&gt;Node0x55b4a1b39e98</title>
<path fill="none" stroke="#7fb2ff" d="M1253.35,-1130.8C1235.72,-1125.44 1219.23,-1117.03 1206,-1104.21 1141.43,-1041.69 1234.22,-968.1 1170,-905.21 1155.69,-891.2 1137.87,-881.83 1118.78,-875.72"/>
<polygon fill="#7fb2ff" stroke="#7fb2ff" points="1119.59,-872.31 1109.01,-872.9 1117.65,-879.04 1119.59,-872.31"/>
</g>
<!-- Node0x55b4a1b3b6f8&#45;&gt;Node0x55b4a1b39d08 -->
<g id="edge12" class="edge">
<title>Node0x55b4a1b3b6f8&#45;&gt;Node0x55b4a1b39d08</title>
<path fill="none" stroke="#7fb2ff" d="M1488.17,-1113.09C1500.18,-1108.63 1503.14,-1104.17 1497.05,-1099.71"/>
<polygon fill="#7fb2ff" stroke="#7fb2ff" points="1498.45,-1096.5 1487.93,-1095.25 1495.37,-1102.79 1498.45,-1096.5"/>
</g>
<!-- Node0x55b4a1b3b6f8&#45;&gt;Node0x55b4a1b3a988 -->
<g id="edge13" class="edge">
<title>Node0x55b4a1b3b6f8&#45;&gt;Node0x55b4a1b3a988</title>
<path fill="none" stroke="#7fb2ff" d="M1253.34,-1137.28C1226.66,-1131.18 1202.48,-1118.64 1188,-1095.21 1174.21,-1072.91 1174.21,-881.52 1188,-859.21 1203.29,-834.47 1227.99,-817.94 1254.93,-806.91"/>
<polygon fill="#7fb2ff" stroke="#7fb2ff" points="1256.46,-810.07 1264.55,-803.23 1253.96,-803.53 1256.46,-810.07"/>
</g>
<!-- Node0x55b4a1b3b6f8&#45;&gt;Node0x55b4a1b3b748 -->
<g id="edge14" class="edge">
<title>Node0x55b4a1b3b6f8&#45;&gt;Node0x55b4a1b3b748</title>
<path fill="none" stroke="#7fb2ff" d="M1253.34,-1137.28C1226.66,-1131.18 1202.48,-1118.64 1188,-1095.21 1166.97,-1061.19 1166.97,-1039.24 1188,-1005.21 1197.29,-990.18 1210.58,-979.63 1225.96,-972.38"/>
<polygon fill="#7fb2ff" stroke="#7fb2ff" points="1227.37,-975.59 1235.24,-968.49 1224.67,-969.13 1227.37,-975.59"/>
</g>
<!-- Node0x55b4a1b39d08&#45;&gt;Node0x55b4a1b3b6f8 -->
<g id="edge106" class="edge">
<title>Node0x55b4a1b39d08&#45;&gt;Node0x55b4a1b3b6f8</title>
<path fill="none" stroke="#7fb2ff" d="M1291.07,-1095.25C1278.93,-1099.71 1275.86,-1104.17 1281.84,-1108.63"/>
<polygon fill="#7fb2ff" stroke="#7fb2ff" points="1280.32,-1111.79 1290.83,-1113.09 1283.43,-1105.51 1280.32,-1111.79"/>
</g>
<!-- Node0x55b4a1b39d08&#45;&gt;Node0x55b4a1b3a988 -->
<g id="edge107" class="edge">
<title>Node0x55b4a1b39d08&#45;&gt;Node0x55b4a1b3a988</title>
<path fill="none" stroke="#7fb2ff" d="M1241.9,-1080.21C1219.84,-1073.31 1200.38,-1061.24 1188,-1041.21 1166.74,-1006.81 1166.74,-893.62 1188,-859.21 1203.29,-834.47 1227.99,-817.94 1254.93,-806.91"/>
<polygon fill="#7fb2ff" stroke="#7fb2ff" points="1256.46,-810.07 1264.55,-803.23 1253.96,-803.53 1256.46,-810.07"/>
</g>
<!-- Node0x55b4a1b39d08&#45;&gt;Node0x55b4a1b3b388 -->
<g id="edge105" class="edge">
<title>Node0x55b4a1b39d08&#45;&gt;Node0x55b4a1b3b388</title>
<path fill="none" stroke="#7fb2ff" d="M1389.5,-1059C1389.5,-1056.52 1389.5,-1054.04 1389.5,-1051.56"/>
<polygon fill="#7fb2ff" stroke="#7fb2ff" points="1393,-1051.35 1389.5,-1041.35 1386,-1051.35 1393,-1051.35"/>
</g>
<!-- Node0x55b4a1b3b9c8&#45;&gt;Node0x55b4a1b39fd8 -->
<g id="edge109" class="edge">
<title>Node0x55b4a1b3b9c8&#45;&gt;Node0x55b4a1b39fd8</title>
<path fill="none" stroke="#7fb2ff" d="M1238.49,-1238.08C1226.95,-1233.78 1215.94,-1228.24 1206,-1221.21 1178.08,-1201.47 1198.05,-1172.77 1170,-1153.21 1161.77,-1147.48 1152.88,-1142.68 1143.58,-1138.68"/>
<polygon fill="#7fb2ff" stroke="#7fb2ff" points="1144.74,-1135.37 1134.15,-1134.93 1142.15,-1141.88 1144.74,-1135.37"/>
</g>
<!-- Node0x55b4a1b3b9c8&#45;&gt;Node0x55b4a1b3b6f8 -->
<g id="edge110" class="edge">
<title>Node0x55b4a1b3b9c8&#45;&gt;Node0x55b4a1b3b6f8</title>
<path fill="none" stroke="#7fb2ff" d="M1238.35,-1227.75C1196.71,-1217.86 1167.83,-1199.84 1188,-1167.21 1200.67,-1146.71 1220.77,-1134.55 1243.46,-1127.74"/>
<polygon fill="#7fb2ff" stroke="#7fb2ff" points="1244.56,-1131.07 1253.34,-1125.14 1242.78,-1124.3 1244.56,-1131.07"/>
</g>
<!-- Node0x55b4a1b3b9c8&#45;&gt;Node0x55b4a1b3a988 -->
<g id="edge111" class="edge">
<title>Node0x55b4a1b3b9c8&#45;&gt;Node0x55b4a1b3a988</title>
<path fill="none" stroke="#7fb2ff" d="M1238.18,-1240.99C1217.66,-1233.92 1199.68,-1222.11 1188,-1203.21 1167.91,-1170.7 1167.91,-891.73 1188,-859.21 1203.29,-834.47 1227.99,-817.94 1254.93,-806.91"/>
<polygon fill="#7fb2ff" stroke="#7fb2ff" points="1256.46,-810.07 1264.55,-803.23 1253.96,-803.53 1256.46,-810.07"/>
</g>
<!-- Node0x55b4a1b3b9c8&#45;&gt;Node0x55b4a1b3c008 -->
<g id="edge108" class="edge">
<title>Node0x55b4a1b3b9c8&#45;&gt;Node0x55b4a1b3c008</title>
<path fill="none" stroke="black" d="M1238.18,-1240.99C1217.66,-1233.92 1199.68,-1222.11 1188,-1203.21 1162.53,-1162 1178.84,-814.79 1188,-767.21 1224.82,-575.93 1333.56,-364.93 1374.07,-290.79"/>
<polygon fill="black" stroke="black" points="1377.34,-292.09 1379.1,-281.64 1371.21,-288.72 1377.34,-292.09"/>
</g>
<!-- Node0x55b4a1b3b9c8&#45;&gt;Node0x55b4a1b3b748 -->
<g id="edge112" class="edge">
<title>Node0x55b4a1b3b9c8&#45;&gt;Node0x55b4a1b3b748</title>
<path fill="none" stroke="#7fb2ff" d="M1238.18,-1240.99C1217.66,-1233.92 1199.68,-1222.11 1188,-1203.21 1164.87,-1165.79 1164.87,-1042.64 1188,-1005.21 1197.29,-990.18 1210.58,-979.63 1225.96,-972.38"/>
<polygon fill="#7fb2ff" stroke="#7fb2ff" points="1227.37,-975.59 1235.24,-968.49 1224.67,-969.13 1227.37,-975.59"/>
</g>
<!-- Node0x55b4a1b3a988&#45;&gt;Node0x55b4a1b3af78 -->
<g id="edge16" class="edge">
<title>Node0x55b4a1b3a988&#45;&gt;Node0x55b4a1b3af78</title>
<path fill="none" stroke="#7fb2ff" d="M1227.36,-791.26C1054.42,-799.26 799.82,-816.02 766,-846.21 709.03,-897.06 775.27,-952.72 730,-1014.21 701.49,-1052.95 653.76,-1079.11 614.2,-1095.38"/>
<polygon fill="#7fb2ff" stroke="#7fb2ff" points="612.85,-1092.15 604.86,-1099.1 615.44,-1098.65 612.85,-1092.15"/>
</g>
<!-- Node0x55b4a1b3b388&#45;&gt;Node0x55b4a1b3a078 -->
<g id="edge40" class="edge">
<title>Node0x55b4a1b3b388&#45;&gt;Node0x55b4a1b3a078</title>
<path fill="none" stroke="#7fb2ff" d="M1215.88,-1014.61C1204.78,-1007.8 1195.19,-998.85 1188,-987.21 1160.21,-942.25 1215.29,-914.35 1274.83,-897.91"/>
<polygon fill="#7fb2ff" stroke="#7fb2ff" points="1276.04,-901.21 1284.81,-895.27 1274.24,-894.44 1276.04,-901.21"/>
</g>
<!-- Node0x55b4a1b3b748&#45;&gt;Node0x55b4a1b3a988 -->
<g id="edge18" class="edge">
<title>Node0x55b4a1b3b748&#45;&gt;Node0x55b4a1b3a988</title>
<path fill="none" stroke="#7fb2ff" d="M1235.33,-965.77C1216.03,-958.17 1199.17,-946.28 1188,-928.21 1171.88,-902.13 1171.88,-885.3 1188,-859.21 1203.29,-834.47 1227.99,-817.94 1254.93,-806.91"/>
<polygon fill="#7fb2ff" stroke="#7fb2ff" points="1256.46,-810.07 1264.55,-803.23 1253.96,-803.53 1256.46,-810.07"/>
</g>
<!-- Node0x55b4a1b3a708&#45;&gt;Node0x55b4a1b3af78 -->
<g id="edge60" class="edge">
<title>Node0x55b4a1b3a708&#45;&gt;Node0x55b4a1b3af78</title>
<path fill="none" stroke="#7fb2ff" d="M1218.42,-1400.66C1058.22,-1411.4 833.08,-1415.43 766,-1361.21 715.7,-1320.56 769.35,-1271.54 730,-1220.21 700.53,-1181.78 652.37,-1155.49 612.84,-1139.1"/>
<polygon fill="#7fb2ff" stroke="#7fb2ff" points="614.1,-1135.84 603.52,-1135.35 611.49,-1142.33 614.1,-1135.84"/>
</g>
<!-- Node0x55b4a1b3a708&#45;&gt;Node0x55b4a1b39fd8 -->
<g id="edge63" class="edge">
<title>Node0x55b4a1b3a708&#45;&gt;Node0x55b4a1b39fd8</title>
<path fill="none" stroke="#7fb2ff" d="M1218.47,-1368.52C1214.06,-1365.45 1209.89,-1362.03 1206,-1358.21 1137.13,-1290.69 1239.32,-1211.27 1170,-1144.21 1162.06,-1136.53 1153.04,-1130.32 1143.33,-1125.35"/>
<polygon fill="#7fb2ff" stroke="#7fb2ff" points="1144.77,-1122.16 1134.23,-1121.12 1141.82,-1128.51 1144.77,-1122.16"/>
</g>
<!-- Node0x55b4a1b3a708&#45;&gt;Node0x55b4a1b39e98 -->
<g id="edge70" class="edge">
<title>Node0x55b4a1b3a708&#45;&gt;Node0x55b4a1b39e98</title>
<path fill="none" stroke="#7fb2ff" d="M1218.31,-1368.69C1213.95,-1365.57 1209.82,-1362.09 1206,-1358.21 1121.59,-1272.67 1221.23,-1198.93 1170,-1090.21 1130.77,-1006.95 1047.94,-933.91 1001.8,-897.59"/>
<polygon fill="#7fb2ff" stroke="#7fb2ff" points="1003.94,-894.82 993.9,-891.45 999.65,-900.35 1003.94,-894.82"/>
</g>
<!-- Node0x55b4a1b3a708&#45;&gt;Node0x55b4a1b3b6f8 -->
<g id="edge65" class="edge">
<title>Node0x55b4a1b3a708&#45;&gt;Node0x55b4a1b3b6f8</title>
<path fill="none" stroke="#7fb2ff" d="M1218.5,-1378.17C1206.29,-1371.18 1195.75,-1361.76 1188,-1349.21 1166.74,-1314.81 1166.74,-1201.62 1188,-1167.21 1200.67,-1146.71 1220.77,-1134.55 1243.46,-1127.74"/>
<polygon fill="#7fb2ff" stroke="#7fb2ff" points="1244.56,-1131.07 1253.34,-1125.14 1242.78,-1124.3 1244.56,-1131.07"/>
</g>
<!-- Node0x55b4a1b3a708&#45;&gt;Node0x55b4a1b3a988 -->
<g id="edge66" class="edge">
<title>Node0x55b4a1b3a708&#45;&gt;Node0x55b4a1b3a988</title>
<path fill="none" stroke="#7fb2ff" d="M1218.5,-1378.17C1206.29,-1371.18 1195.75,-1361.76 1188,-1349.21 1173.69,-1326.06 1173.69,-882.37 1188,-859.21 1203.29,-834.47 1227.99,-817.94 1254.93,-806.91"/>
<polygon fill="#7fb2ff" stroke="#7fb2ff" points="1256.46,-810.07 1264.55,-803.23 1253.96,-803.53 1256.46,-810.07"/>
</g>
<!-- Node0x55b4a1b3a708&#45;&gt;Node0x55b4a1b3b388 -->
<g id="edge61" class="edge">
<title>Node0x55b4a1b3a708&#45;&gt;Node0x55b4a1b3b388</title>
<path fill="none" stroke="#7fb2ff" d="M1218.5,-1378.17C1206.29,-1371.18 1195.75,-1361.76 1188,-1349.21 1171.06,-1321.8 1171.06,-1086.62 1188,-1059.21 1193.28,-1050.67 1199.86,-1043.57 1207.37,-1037.7"/>
<polygon fill="#7fb2ff" stroke="#7fb2ff" points="1209.65,-1040.38 1215.88,-1031.81 1205.66,-1034.63 1209.65,-1040.38"/>
</g>
<!-- Node0x55b4a1b3a708&#45;&gt;Node0x55b4a1b3c008 -->
<g id="edge62" class="edge">
<title>Node0x55b4a1b3a708&#45;&gt;Node0x55b4a1b3c008</title>
<path fill="none" stroke="black" d="M1218.5,-1378.17C1206.29,-1371.18 1195.75,-1361.76 1188,-1349.21 1171,-1321.71 1181.89,-798.96 1188,-767.21 1224.82,-575.93 1333.56,-364.93 1374.07,-290.79"/>
<polygon fill="black" stroke="black" points="1377.34,-292.09 1379.1,-281.64 1371.21,-288.72 1377.34,-292.09"/>
</g>
<!-- Node0x55b4a1b3a708&#45;&gt;Node0x55b4a1b3b748 -->
<g id="edge68" class="edge">
<title>Node0x55b4a1b3a708&#45;&gt;Node0x55b4a1b3b748</title>
<path fill="none" stroke="#7fb2ff" d="M1218.5,-1378.17C1206.29,-1371.18 1195.75,-1361.76 1188,-1349.21 1167.91,-1316.7 1167.91,-1037.73 1188,-1005.21 1197.29,-990.18 1210.58,-979.63 1225.96,-972.38"/>
<polygon fill="#7fb2ff" stroke="#7fb2ff" points="1227.37,-975.59 1235.24,-968.49 1224.67,-969.13 1227.37,-975.59"/>
</g>
<!-- Node0x55b4a1b3b1a8 -->
<g id="node16" class="node">
<title>Node0x55b4a1b3b1a8</title>
<polygon fill="#7fb2ff" stroke="black" points="1908.5,-1033.21 1635.5,-1033.21 1635.5,-997.21 1908.5,-997.21 1908.5,-1033.21"/>
<text text-anchor="middle" x="1772" y="-1011.51" font-family="Times,serif" font-size="14.00">{lib/libLLVMSupport.a(Host.cpp.o)}</text>
</g>
<!-- Node0x55b4a1b3a708&#45;&gt;Node0x55b4a1b3b1a8 -->
<g id="edge64" class="edge">
<title>Node0x55b4a1b3a708&#45;&gt;Node0x55b4a1b3b1a8</title>
<path fill="none" stroke="#7fb2ff" d="M1558.06,-1367C1563.23,-1364.37 1568.23,-1361.46 1573,-1358.21 1688.24,-1279.87 1745.11,-1110.61 1763.8,-1043.48"/>
<polygon fill="#7fb2ff" stroke="#7fb2ff" points="1767.24,-1044.18 1766.48,-1033.61 1760.48,-1042.35 1767.24,-1044.18"/>
</g>
<!-- Node0x55b4a1b3b018 -->
<g id="node17" class="node">
<title>Node0x55b4a1b3b018</title>
<polygon fill="#7fb2ff" stroke="black" points="1930,-941.21 1614,-941.21 1614,-905.21 1930,-905.21 1930,-941.21"/>
<text text-anchor="middle" x="1772" y="-919.51" font-family="Times,serif" font-size="14.00">{lib/libLLVMSupport.a(StringMap.cpp.o)}</text>
</g>
<!-- Node0x55b4a1b3a708&#45;&gt;Node0x55b4a1b3b018 -->
<g id="edge67" class="edge">
<title>Node0x55b4a1b3a708&#45;&gt;Node0x55b4a1b3b018</title>
<path fill="none" stroke="#7fb2ff" d="M1560.88,-1368.87C1565.19,-1365.7 1569.25,-1362.16 1573,-1358.21 1629.94,-1298.36 1559.46,-1054.32 1609,-988.21 1623.85,-968.39 1645.74,-954.6 1668.65,-945.01"/>
<polygon fill="#7fb2ff" stroke="#7fb2ff" points="1670.13,-948.19 1678.16,-941.28 1667.57,-941.67 1670.13,-948.19"/>
</g>
<!-- Node0x55b4a1b3bce8 -->
<g id="node18" class="node">
<title>Node0x55b4a1b3bce8</title>
<polygon fill="#7fb2ff" stroke="black" points="1912.5,-887.21 1631.5,-887.21 1631.5,-851.21 1912.5,-851.21 1912.5,-887.21"/>
<text text-anchor="middle" x="1772" y="-865.51" font-family="Times,serif" font-size="14.00">{lib/libLLVMSupport.a(Triple.cpp.o)}</text>
</g>
<!-- Node0x55b4a1b3a708&#45;&gt;Node0x55b4a1b3bce8 -->
<g id="edge69" class="edge">
<title>Node0x55b4a1b3a708&#45;&gt;Node0x55b4a1b3bce8</title>
<path fill="none" stroke="#7fb2ff" d="M1560.6,-1369.25C1565.02,-1365.98 1569.18,-1362.31 1573,-1358.21 1643.26,-1282.93 1539.43,-972.14 1609,-896.21 1613.13,-891.7 1617.71,-887.76 1622.63,-884.32"/>
<polygon fill="#7fb2ff" stroke="#7fb2ff" points="1624.57,-887.23 1631.22,-878.99 1620.88,-881.29 1624.57,-887.23"/>
</g>
<!-- Node0x55b4a1b3c148 -->
<g id="node19" class="node">
<title>Node0x55b4a1b3c148</title>
<polygon fill="#7fb2ff" stroke="black" points="1935,-1426.21 1609,-1426.21 1609,-1390.21 1935,-1390.21 1935,-1426.21"/>
<text text-anchor="middle" x="1772" y="-1404.51" font-family="Times,serif" font-size="14.00">{lib/libLLVMSupport.a(SmallPtrSet.cpp.o)}</text>
</g>
<!-- Node0x55b4a1b3a708&#45;&gt;Node0x55b4a1b3c148 -->
<g id="edge71" class="edge">
<title>Node0x55b4a1b3a708&#45;&gt;Node0x55b4a1b3c148</title>
<path fill="none" stroke="#7fb2ff" d="M1560.72,-1395.5C1573.36,-1396.27 1586.13,-1397.04 1598.79,-1397.8"/>
<polygon fill="#7fb2ff" stroke="#7fb2ff" points="1598.72,-1401.31 1608.91,-1398.42 1599.14,-1394.32 1598.72,-1401.31"/>
</g>
<!-- Node0x55b4a1b3a078&#45;&gt;Node0x55b4a1b3af78 -->
<g id="edge41" class="edge">
<title>Node0x55b4a1b3a078&#45;&gt;Node0x55b4a1b3af78</title>
<path fill="none" stroke="#7fb2ff" d="M1233.15,-892.96C1076.33,-910.66 846.2,-942.1 766,-981.21 746.49,-990.73 747.57,-1001.47 730,-1014.21 686.46,-1045.78 632.34,-1075.16 594.29,-1094.4"/>
<polygon fill="#7fb2ff" stroke="#7fb2ff" points="592.35,-1091.46 584.98,-1099.07 595.49,-1097.72 592.35,-1091.46"/>
</g>
<!-- Node0x55b4a1b3a078&#45;&gt;Node0x55b4a1b39e98 -->
<g id="edge44" class="edge">
<title>Node0x55b4a1b3a078&#45;&gt;Node0x55b4a1b39e98</title>
<path fill="none" stroke="#7fb2ff" d="M1233.19,-875.73C1196.07,-875.38 1156.51,-875 1119.6,-874.65"/>
<polygon fill="#7fb2ff" stroke="#7fb2ff" points="1119.3,-871.15 1109.27,-874.55 1119.24,-878.15 1119.3,-871.15"/>
</g>
<!-- Node0x55b4a1b3a078&#45;&gt;Node0x55b4a1b3a988 -->
<g id="edge43" class="edge">
<title>Node0x55b4a1b3a078&#45;&gt;Node0x55b4a1b3a988</title>
<path fill="none" stroke="#7fb2ff" d="M1389.5,-859.08C1389.5,-844.04 1389.5,-829 1389.5,-813.96"/>
<polygon fill="#7fb2ff" stroke="#7fb2ff" points="1393,-813.54 1389.5,-803.54 1386,-813.54 1393,-813.54"/>
</g>
<!-- Node0x55b4a1b3a078&#45;&gt;Node0x55b4a1b3c008 -->
<g id="edge42" class="edge">
<title>Node0x55b4a1b3a078&#45;&gt;Node0x55b4a1b3c008</title>
<path fill="none" stroke="black" d="M1233.4,-872.99C1214.9,-865.36 1198.79,-853.68 1188,-836.21 1127.45,-738.24 1316.96,-390.23 1373.86,-290.25"/>
<polygon fill="black" stroke="black" points="1377.01,-291.79 1378.94,-281.37 1370.94,-288.31 1377.01,-291.79"/>
</g>
<!-- Node0x55b4a1b3b1a8&#45;&gt;Node0x55b4a1b39fd8 -->
<g id="edge73" class="edge">
<title>Node0x55b4a1b3b1a8&#45;&gt;Node0x55b4a1b39fd8</title>
<path fill="none" stroke="#7fb2ff" d="M1763.53,-1033.42C1742.35,-1082.27 1676.63,-1215.97 1573,-1266.21 1499.61,-1301.79 1271.32,-1315.04 1206,-1266.21 1160.72,-1232.37 1212.92,-1181.01 1170,-1144.21 1162,-1137.35 1153.12,-1131.73 1143.68,-1127.15"/>
<polygon fill="#7fb2ff" stroke="#7fb2ff" points="1145.03,-1123.91 1134.47,-1123.06 1142.19,-1130.31 1145.03,-1123.91"/>
</g>
<!-- Node0x55b4a1b3b1a8&#45;&gt;Node0x55b4a1b3c008 -->
<g id="edge72" class="edge">
<title>Node0x55b4a1b3b1a8&#45;&gt;Node0x55b4a1b3c008</title>
<path fill="none" stroke="black" d="M1681.89,-997.13C1654.85,-987.46 1627.46,-972.7 1609,-950.21 1553.92,-883.1 1596.1,-841.91 1573,-758.21 1522.61,-575.65 1434.56,-365.07 1402.56,-290.83"/>
<polygon fill="black" stroke="black" points="1405.61,-289.07 1398.43,-281.28 1399.19,-291.85 1405.61,-289.07"/>
</g>
<!-- Node0x55b4a1b3b1a8&#45;&gt;Node0x55b4a1b3b748 -->
<g id="edge75" class="edge">
<title>Node0x55b4a1b3b1a8&#45;&gt;Node0x55b4a1b3b748</title>
<path fill="none" stroke="#7fb2ff" d="M1635.27,-998.8C1607.5,-995.45 1578.05,-991.89 1549.55,-988.44"/>
<polygon fill="#7fb2ff" stroke="#7fb2ff" points="1549.87,-984.96 1539.52,-987.23 1549.03,-991.9 1549.87,-984.96"/>
</g>
<!-- Node0x55b4a1b3b1a8&#45;&gt;Node0x55b4a1b3b018 -->
<g id="edge74" class="edge">
<title>Node0x55b4a1b3b1a8&#45;&gt;Node0x55b4a1b3b018</title>
<path fill="none" stroke="#7fb2ff" d="M1772,-997.08C1772,-982.04 1772,-967 1772,-951.96"/>
<polygon fill="#7fb2ff" stroke="#7fb2ff" points="1775.5,-951.54 1772,-941.54 1768.5,-951.54 1775.5,-951.54"/>
</g>
<!-- Node0x55b4a1b3b1a8&#45;&gt;Node0x55b4a1b3bce8 -->
<g id="edge76" class="edge">
<title>Node0x55b4a1b3b1a8&#45;&gt;Node0x55b4a1b3bce8</title>
<path fill="none" stroke="#7fb2ff" d="M1635.36,-1009.37C1617.28,-1002.19 1601.42,-991.07 1591,-974.21 1574.88,-948.13 1574.88,-931.3 1591,-905.21 1598.73,-892.71 1609.49,-883.54 1621.97,-876.89"/>
<polygon fill="#7fb2ff" stroke="#7fb2ff" points="1623.77,-879.91 1631.33,-872.49 1620.79,-873.58 1623.77,-879.91"/>
</g>
<!-- Node0x55b4a1b3b018&#45;&gt;Node0x55b4a1b3af78 -->
<g id="edge17" class="edge">
<title>Node0x55b4a1b3b018&#45;&gt;Node0x55b4a1b3af78</title>
<path fill="none" stroke="#7fb2ff" d="M1613.96,-915.45C1499.77,-912.95 1342.01,-916.05 1206,-942.21 1189.3,-945.43 1186.25,-950.18 1170,-955.21 981.81,-1013.53 757.36,-1068.35 635.84,-1096.84"/>
<polygon fill="#7fb2ff" stroke="#7fb2ff" points="634.78,-1093.49 625.84,-1099.18 636.38,-1100.31 634.78,-1093.49"/>
</g>
<!-- Node0x55b4a1b3bce8&#45;&gt;Node0x55b4a1b39e98 -->
<g id="edge22" class="edge">
<title>Node0x55b4a1b3bce8&#45;&gt;Node0x55b4a1b39e98</title>
<path fill="none" stroke="#7fb2ff" d="M1631.31,-854.13C1611.75,-852.5 1591.89,-851.12 1573,-850.21 1410.08,-842.41 1368.92,-842.33 1206,-850.21 1177.93,-851.57 1148.05,-853.83 1119.31,-856.42"/>
<polygon fill="#7fb2ff" stroke="#7fb2ff" points="1118.83,-852.95 1109.2,-857.34 1119.47,-859.92 1118.83,-852.95"/>
</g>
<!-- Node0x55b4a1b3bce8&#45;&gt;Node0x55b4a1b3a988 -->
<g id="edge19" class="edge">
<title>Node0x55b4a1b3bce8&#45;&gt;Node0x55b4a1b3a988</title>
<path fill="none" stroke="#7fb2ff" d="M1707.57,-851.12C1668.88,-840.44 1618.31,-827.12 1573,-817.21 1553.42,-812.93 1532.56,-808.84 1512.21,-805.1"/>
<polygon fill="#7fb2ff" stroke="#7fb2ff" points="1512.73,-801.64 1502.26,-803.29 1511.47,-808.52 1512.73,-801.64"/>
</g>
<!-- Node0x55b4a1b3bce8&#45;&gt;Node0x55b4a1b3b748 -->
<g id="edge20" class="edge">
<title>Node0x55b4a1b3bce8&#45;&gt;Node0x55b4a1b3b748</title>
<path fill="none" stroke="#7fb2ff" d="M1649.82,-887.26C1635.99,-889.96 1622.14,-892.94 1609,-896.21 1553.07,-910.13 1490.87,-931.51 1447.19,-947.54"/>
<polygon fill="#7fb2ff" stroke="#7fb2ff" points="1445.77,-944.33 1437.6,-951.08 1448.2,-950.9 1445.77,-944.33"/>
</g>
<!-- Node0x55b4a1b3bfb8 -->
<g id="node20" class="node">
<title>Node0x55b4a1b3bfb8</title>
<polygon fill="#7fb2ff" stroke="black" points="2336,-887.21 1971,-887.21 1971,-851.21 2336,-851.21 2336,-887.21"/>
<text text-anchor="middle" x="2153.5" y="-865.51" font-family="Times,serif" font-size="14.00">{lib/libLLVMSupport.a(ARMTargetParser.cpp.o)}</text>
</g>
<!-- Node0x55b4a1b3bce8&#45;&gt;Node0x55b4a1b3bfb8 -->
<g id="edge21" class="edge">
<title>Node0x55b4a1b3bce8&#45;&gt;Node0x55b4a1b3bfb8</title>
<path fill="none" stroke="#7fb2ff" d="M1912.7,-862.68C1928.36,-862.54 1944.51,-862.47 1960.69,-862.46"/>
<polygon fill="#7fb2ff" stroke="#7fb2ff" points="1960.76,-865.96 1970.76,-862.47 1960.76,-858.96 1960.76,-865.96"/>
</g>
<!-- Node0x55b4a1b3c148&#45;&gt;Node0x55b4a1b3af78 -->
<g id="edge77" class="edge">
<title>Node0x55b4a1b3c148&#45;&gt;Node0x55b4a1b3af78</title>
<path fill="none" stroke="#7fb2ff" d="M1723.7,-1426.26C1566.06,-1483 1052.39,-1640.19 766,-1398.21 704.35,-1346.12 777.48,-1285.49 730,-1220.21 701.71,-1181.32 653.98,-1155.16 614.36,-1138.94"/>
<polygon fill="#7fb2ff" stroke="#7fb2ff" points="615.58,-1135.66 605,-1135.22 613,-1142.16 615.58,-1135.66"/>
</g>
<!-- Node0x55b4a1b3bfb8&#45;&gt;Node0x55b4a1b3a988 -->
<g id="edge57" class="edge">
<title>Node0x55b4a1b3bfb8&#45;&gt;Node0x55b4a1b3a988</title>
<path fill="none" stroke="#7fb2ff" d="M2010.69,-851.21C1985.49,-848.13 1959.48,-845.01 1935,-842.21 1810.24,-827.94 1669.24,-813.22 1561.98,-802.31"/>
<polygon fill="#7fb2ff" stroke="#7fb2ff" points="1562.01,-798.8 1551.71,-801.27 1561.3,-805.76 1562.01,-798.8"/>
</g>
<!-- Node0x55b4a1b3bfb8&#45;&gt;Node0x55b4a1b3b748 -->
<g id="edge58" class="edge">
<title>Node0x55b4a1b3bfb8&#45;&gt;Node0x55b4a1b3b748</title>
<path fill="none" stroke="#7fb2ff" d="M2115.08,-887.39C2072.59,-907.01 2000.61,-937.21 1935,-950.21 1808.7,-975.25 1662.76,-979.03 1553.78,-977.09"/>
<polygon fill="#7fb2ff" stroke="#7fb2ff" points="1553.75,-973.59 1543.68,-976.89 1553.61,-980.58 1553.75,-973.59"/>
</g>
<!-- Node0x55b4a1b3bfb8&#45;&gt;Node0x55b4a1b3bce8 -->
<g id="edge59" class="edge">
<title>Node0x55b4a1b3bfb8&#45;&gt;Node0x55b4a1b3bce8</title>
<path fill="none" stroke="#7fb2ff" d="M1970.76,-875.96C1954.75,-875.98 1938.66,-875.94 1922.96,-875.83"/>
<polygon fill="#7fb2ff" stroke="#7fb2ff" points="1922.72,-872.33 1912.7,-875.75 1922.67,-879.33 1922.72,-872.33"/>
</g>
<!-- Node0x55b4a1b3b4c8 -->
<g id="node21" class="node">
<title>Node0x55b4a1b3b4c8</title>
<polygon fill="none" stroke="black" points="701,-1357.21 391,-1357.21 391,-1321.21 701,-1321.21 701,-1357.21"/>
<text text-anchor="middle" x="546" y="-1335.51" font-family="Times,serif" font-size="14.00">{lib/libLLVMSupport.a(WithColor.cpp.o)}</text>
</g>
<!-- Node0x55b4a1b3b4c8&#45;&gt;Node0x55b4a1b39fd8 -->
<g id="edge25" class="edge">
<title>Node0x55b4a1b3b4c8&#45;&gt;Node0x55b4a1b39fd8</title>
<path fill="none" stroke="black" d="M650.53,-1321.15C679.6,-1311.53 708.98,-1296.79 730,-1274.21 770.86,-1230.34 720.81,-1183.61 766,-1144.21 774.04,-1137.2 783,-1131.47 792.54,-1126.81"/>
<polygon fill="black" stroke="black" points="794.14,-1129.93 801.86,-1122.67 791.3,-1123.54 794.14,-1129.93"/>
</g>
<!-- Node0x55b4a1b3b4c8&#45;&gt;Node0x55b4a1b3a708 -->
<g id="edge26" class="edge">
<title>Node0x55b4a1b3b4c8&#45;&gt;Node0x55b4a1b3a708</title>
<path fill="none" stroke="black" d="M597.97,-1357.36C641.85,-1371.96 707.2,-1391.3 766,-1399.21 914.25,-1419.16 1084.11,-1413.45 1208.91,-1403.99"/>
<polygon fill="black" stroke="black" points="1209.25,-1407.48 1218.95,-1403.22 1208.71,-1400.5 1209.25,-1407.48"/>
</g>
<!-- Node0x55b4a1b3a848 -->
<g id="node22" class="node">
<title>Node0x55b4a1b3a848</title>
<polygon fill="none" stroke="black" points="689,-1265.21 403,-1265.21 403,-1229.21 689,-1229.21 689,-1265.21"/>
<text text-anchor="middle" x="546" y="-1243.51" font-family="Times,serif" font-size="14.00">{lib/libLLVMSupport.a(Debug.cpp.o)}</text>
</g>
<!-- Node0x55b4a1b3a848&#45;&gt;Node0x55b4a1b39fd8 -->
<g id="edge39" class="edge">
<title>Node0x55b4a1b3a848&#45;&gt;Node0x55b4a1b39fd8</title>
<path fill="none" stroke="black" d="M689.4,-1236.09C703.94,-1231.02 717.82,-1224.23 730,-1215.21 758.43,-1194.16 737.15,-1164.7 766,-1144.21 774.24,-1138.37 783.15,-1133.49 792.49,-1129.44"/>
<polygon fill="black" stroke="black" points="793.96,-1132.62 801.95,-1125.66 791.37,-1126.12 793.96,-1132.62"/>
</g>
<!-- Node0x55b4a1b3a848&#45;&gt;Node0x55b4a1b3b388 -->
<g id="edge38" class="edge">
<title>Node0x55b4a1b3a848&#45;&gt;Node0x55b4a1b3b388</title>
<path fill="none" stroke="black" d="M689.22,-1240.22C867.44,-1230.85 1151.93,-1213.6 1170,-1198.21 1221.54,-1154.33 1155.99,-1095.84 1206,-1050.21 1207,-1049.3 1208.01,-1048.42 1209.04,-1047.55"/>
<polygon fill="black" stroke="black" points="1211.39,-1050.17 1217.24,-1041.34 1207.16,-1044.59 1211.39,-1050.17"/>
</g>
<!-- Node0x55b4a1b3bf18 -->
<g id="node23" class="node">
<title>Node0x55b4a1b3bf18</title>
<polygon fill="none" stroke="black" points="694,-603.21 398,-603.21 398,-567.21 694,-567.21 694,-603.21"/>
<text text-anchor="middle" x="546" y="-581.51" font-family="Times,serif" font-size="14.00">{lib/libLLVMSupport.a(APFloat.cpp.o)}</text>
</g>
<!-- Node0x55b4a1b3bf18&#45;&gt;Node0x55b4a1b39fd8 -->
<g id="edge45" class="edge">
<title>Node0x55b4a1b3bf18&#45;&gt;Node0x55b4a1b39fd8</title>
<path fill="none" stroke="black" d="M556.17,-603.35C583.7,-656.92 669.7,-817.86 766,-933.21 819.15,-996.88 893.77,-1059.64 935.52,-1092.87"/>
<polygon fill="black" stroke="black" points="933.41,-1095.66 943.42,-1099.12 937.75,-1090.17 933.41,-1095.66"/>
</g>
<!-- Node0x55b4a1b3bf18&#45;&gt;Node0x55b4a1b3a988 -->
<g id="edge46" class="edge">
<title>Node0x55b4a1b3bf18&#45;&gt;Node0x55b4a1b3a988</title>
<path fill="none" stroke="black" d="M611.42,-567.17C664.77,-552.57 736.43,-533.87 766,-530.21 944.2,-508.18 1006.88,-455.17 1170,-530.21 1273.93,-578.02 1346.9,-702.35 1375.32,-757.81"/>
<polygon fill="black" stroke="black" points="1372.33,-759.67 1379.95,-767.03 1378.59,-756.52 1372.33,-759.67"/>
</g>
<!-- Node0x55b4a1b39cb8 -->
<g id="node24" class="node">
<title>Node0x55b4a1b39cb8</title>
<polygon fill="none" stroke="black" points="301.5,-1158.21 24.5,-1158.21 24.5,-1122.21 301.5,-1122.21 301.5,-1158.21"/>
<text text-anchor="middle" x="163" y="-1136.51" font-family="Times,serif" font-size="14.00">{lib/libLLVMSupport.a(Error.cpp.o)}</text>
</g>
<!-- Node0x55b4a1b39cb8&#45;&gt;Node0x55b4a1b3af78 -->
<g id="edge47" class="edge">
<title>Node0x55b4a1b39cb8&#45;&gt;Node0x55b4a1b3af78</title>
<path fill="none" stroke="black" d="M301.55,-1131.91C321.7,-1130.69 342.71,-1129.43 363.57,-1128.17"/>
<polygon fill="black" stroke="black" points="364.02,-1131.65 373.79,-1127.55 363.6,-1124.66 364.02,-1131.65"/>
</g>
<!-- Node0x55b4a1b39cb8&#45;&gt;Node0x55b4a1b39fd8 -->
<g id="edge49" class="edge">
<title>Node0x55b4a1b39cb8&#45;&gt;Node0x55b4a1b39fd8</title>
<path fill="none" stroke="black" d="M301.67,-1143.35C321.9,-1143.71 342.49,-1144.02 362,-1144.21 525.55,-1145.87 566.71,-1153.49 730,-1144.21 759.9,-1142.52 791.83,-1139.62 822.24,-1136.34"/>
<polygon fill="black" stroke="black" points="822.93,-1139.79 832.49,-1135.22 822.17,-1132.83 822.93,-1139.79"/>
</g>
<!-- Node0x55b4a1b39cb8&#45;&gt;Node0x55b4a1b39e98 -->
<g id="edge50" class="edge">
<title>Node0x55b4a1b39cb8&#45;&gt;Node0x55b4a1b39e98</title>
<path fill="none" stroke="black" d="M170.19,-1122.1C189.09,-1070.02 251.61,-920 362,-863.21 537.86,-772.75 782.26,-820.75 899.28,-852.48"/>
<polygon fill="black" stroke="black" points="898.61,-855.93 909.18,-855.21 900.47,-849.18 898.61,-855.93"/>
</g>
<!-- Node0x55b4a1b39cb8&#45;&gt;Node0x55b4a1b3b388 -->
<g id="edge48" class="edge">
<title>Node0x55b4a1b39cb8&#45;&gt;Node0x55b4a1b3b388</title>
<path fill="none" stroke="black" d="M182.18,-1158.22C214.82,-1189.14 287,-1251.22 362,-1274.21 518.37,-1322.15 566.65,-1282.36 730,-1274.21 779.07,-1271.77 1133.6,-1263.22 1170,-1230.21 1230.44,-1175.41 1146.87,-1106.43 1206,-1050.21 1206.84,-1049.41 1207.7,-1048.63 1208.56,-1047.87"/>
<polygon fill="black" stroke="black" points="1211.02,-1050.38 1216.68,-1041.42 1206.67,-1044.9 1211.02,-1050.38"/>
</g>
<!-- Node0x55b4a1b3a668 -->
<g id="node25" class="node">
<title>Node0x55b4a1b3a668</title>
<polygon fill="none" stroke="black" points="685.5,-527.21 406.5,-527.21 406.5,-491.21 685.5,-491.21 685.5,-527.21"/>
<text text-anchor="middle" x="546" y="-505.51" font-family="Times,serif" font-size="14.00">{lib/libLLVMSupport.a(APInt.cpp.o)}</text>
</g>
<!-- Node0x55b4a1b3a668&#45;&gt;Node0x55b4a1b39fd8 -->
<g id="edge51" class="edge">
<title>Node0x55b4a1b3a668&#45;&gt;Node0x55b4a1b39fd8</title>
<path fill="none" stroke="black" d="M685.77,-526.46C702.65,-533.9 718.1,-544.16 730,-558.21 784.09,-622.11 728.64,-858.3 766,-933.21 802.08,-1005.55 879.54,-1063.3 927.07,-1093.7"/>
<polygon fill="black" stroke="black" points="925.25,-1096.69 935.58,-1099.06 928.98,-1090.77 925.25,-1096.69"/>
</g>
<!-- Node0x55b4a1b3a668&#45;&gt;Node0x55b4a1b3a988 -->
<g id="edge52" class="edge">
<title>Node0x55b4a1b3a668&#45;&gt;Node0x55b4a1b3a988</title>
<path fill="none" stroke="black" d="M668.94,-491.19C825.05,-470.44 1085.47,-444.38 1170,-487.21 1284.65,-545.32 1353.67,-694.99 1378.27,-757.32"/>
<polygon fill="black" stroke="black" points="1375.09,-758.82 1381.96,-766.89 1381.62,-756.3 1375.09,-758.82"/>
</g>
<!-- Node0x55b4a1b3ade8 -->
<g id="node26" class="node">
<title>Node0x55b4a1b3ade8</title>
<polygon fill="none" stroke="black" points="321.5,-205.21 4.5,-205.21 4.5,-169.21 321.5,-169.21 321.5,-205.21"/>
<text text-anchor="middle" x="163" y="-183.51" font-family="Times,serif" font-size="14.00">{lib/libLLVMSupport.a(FoldingSet.cpp.o)}</text>
</g>
<!-- Node0x55b4a1b3ade8&#45;&gt;Node0x55b4a1b3af78 -->
<g id="edge53" class="edge">
<title>Node0x55b4a1b3ade8&#45;&gt;Node0x55b4a1b3af78</title>
<path fill="none" stroke="black" d="M165.31,-205.28C174.07,-320.96 227.92,-956.89 362,-1085.21 365.15,-1088.22 368.47,-1091.01 371.94,-1093.58"/>
<polygon fill="black" stroke="black" points="370.05,-1096.52 380.3,-1099.19 373.95,-1090.71 370.05,-1096.52"/>
</g>
<!-- Node0x55b4a1b3ade8&#45;&gt;Node0x55b4a1b3a988 -->
<g id="edge55" class="edge">
<title>Node0x55b4a1b3ade8&#45;&gt;Node0x55b4a1b3a988</title>
<path fill="none" stroke="black" d="M192.34,-205.3C229.76,-228.37 298.36,-267.96 362,-290.21 534.7,-350.61 585.36,-340.18 766,-369.21 855.34,-383.57 1094.23,-370.74 1170,-420.21 1296.46,-502.79 1360.31,-686.36 1380.88,-756.87"/>
<polygon fill="black" stroke="black" points="1377.61,-758.15 1383.71,-766.81 1384.34,-756.23 1377.61,-758.15"/>
</g>
<!-- Node0x55b4a1b3ade8&#45;&gt;Node0x55b4a1b3c008 -->
<g id="edge54" class="edge">
<title>Node0x55b4a1b3ade8&#45;&gt;Node0x55b4a1b3c008</title>
<path fill="none" stroke="black" d="M321.58,-196.99C554.32,-211.44 987.9,-238.35 1224.36,-253.03"/>
<polygon fill="black" stroke="black" points="1224.22,-256.52 1234.42,-253.65 1224.66,-249.54 1224.22,-256.52"/>
</g>
<!-- Node0x55b4a1b3ade8&#45;&gt;Node0x55b4a1b3b018 -->
<g id="edge56" class="edge">
<title>Node0x55b4a1b3ade8&#45;&gt;Node0x55b4a1b3b018</title>
<path fill="none" stroke="black" d="M238.3,-169.15C501.02,-107.25 1380.66,82.61 1573,-101.21 1636.92,-162.31 1550.33,-830.06 1609,-896.21 1609.53,-896.81 1610.07,-897.4 1610.62,-897.98"/>
<polygon fill="black" stroke="black" points="1608.44,-900.74 1618.15,-904.99 1613.21,-895.61 1608.44,-900.74"/>
</g>
<!-- Node0x55b4a1b3a488 -->
<g id="node27" class="node">
<title>Node0x55b4a1b3a488</title>
<polygon fill="none" stroke="black" points="1130,-327.21 806,-327.21 806,-291.21 1130,-291.21 1130,-327.21"/>
<text text-anchor="middle" x="968" y="-305.51" font-family="Times,serif" font-size="14.00">{lib/libLLVMSupport.a(StringSaver.cpp.o)}</text>
</g>
<!-- Node0x55b4a1b3a488&#45;&gt;Node0x55b4a1b3a988 -->
<g id="edge79" class="edge">
<title>Node0x55b4a1b3a488&#45;&gt;Node0x55b4a1b3a988</title>
<path fill="none" stroke="black" d="M1130.01,-320.26C1144.3,-325.46 1157.92,-332.3 1170,-341.21 1314.6,-447.9 1368.77,-676.65 1383.75,-756.78"/>
<polygon fill="black" stroke="black" points="1380.39,-757.85 1385.61,-767.07 1387.28,-756.61 1380.39,-757.85"/>
</g>
<!-- Node0x55b4a1b3a488&#45;&gt;Node0x55b4a1b3c008 -->
<g id="edge78" class="edge">
<title>Node0x55b4a1b3a488&#45;&gt;Node0x55b4a1b3c008</title>
<path fill="none" stroke="black" d="M1130.29,-291.53C1161.13,-288.15 1193.45,-284.6 1224.38,-281.21"/>
<polygon fill="black" stroke="black" points="1224.81,-284.68 1234.37,-280.12 1224.04,-277.73 1224.81,-284.68"/>
</g>
<!-- Node0x55b4a1b3be78 -->
<g id="node28" class="node">
<title>Node0x55b4a1b3be78</title>
<polygon fill="none" stroke="black" points="730,-281.21 362,-281.21 362,-245.21 730,-245.21 730,-281.21"/>
<text text-anchor="middle" x="546" y="-259.51" font-family="Times,serif" font-size="14.00">{lib/libLLVMSupport.a(VirtualFileSystem.cpp.o)}</text>
</g>
<!-- Node0x55b4a1b3be78&#45;&gt;Node0x55b4a1b39fd8 -->
<g id="edge81" class="edge">
<title>Node0x55b4a1b3be78&#45;&gt;Node0x55b4a1b39fd8</title>
<path fill="none" stroke="black" d="M582.34,-281.3C625.73,-305.64 697.53,-353.37 730,-417.21 834.21,-622.13 666.09,-726.17 766,-933.21 801.13,-1006.02 878.91,-1063.6 926.75,-1093.86"/>
<polygon fill="black" stroke="black" points="924.98,-1096.87 935.32,-1099.18 928.68,-1090.93 924.98,-1096.87"/>
</g>
<!-- Node0x55b4a1b3be78&#45;&gt;Node0x55b4a1b39e98 -->
<g id="edge86" class="edge">
<title>Node0x55b4a1b3be78&#45;&gt;Node0x55b4a1b39e98</title>
<path fill="none" stroke="black" d="M581.51,-281.33C624.36,-305.86 695.98,-353.95 730,-417.21 795.7,-539.37 695.99,-607.48 766,-727.21 800.08,-785.51 867.66,-827.11 915.01,-850.63"/>
<polygon fill="black" stroke="black" points="913.67,-853.87 924.19,-855.09 916.73,-847.57 913.67,-853.87"/>
</g>
<!-- Node0x55b4a1b3be78&#45;&gt;Node0x55b4a1b3b6f8 -->
<g id="edge82" class="edge">
<title>Node0x55b4a1b3be78&#45;&gt;Node0x55b4a1b3b6f8</title>
<path fill="none" stroke="black" d="M582.3,-281.32C625.63,-305.69 697.38,-353.44 730,-417.21 779.01,-513.04 704.74,-811.72 766,-900.21 781.34,-922.37 1180.19,-1096.5 1206,-1104.21 1218.1,-1107.83 1230.81,-1110.98 1243.65,-1113.71"/>
<polygon fill="black" stroke="black" points="1242.98,-1117.14 1253.48,-1115.72 1244.38,-1110.29 1242.98,-1117.14"/>
</g>
<!-- Node0x55b4a1b3be78&#45;&gt;Node0x55b4a1b3a988 -->
<g id="edge83" class="edge">
<title>Node0x55b4a1b3be78&#45;&gt;Node0x55b4a1b3a988</title>
<path fill="none" stroke="black" d="M636.71,-281.32C671.04,-292.79 707.37,-311.35 730,-341.21 804.99,-440.15 677.2,-531.45 766,-618.21 830.58,-681.31 1084.05,-633.58 1170,-661.21 1241.33,-684.15 1315.32,-732.14 1356.28,-761.23"/>
<polygon fill="black" stroke="black" points="1354.34,-764.15 1364.5,-767.14 1358.42,-758.46 1354.34,-764.15"/>
</g>
<!-- Node0x55b4a1b3be78&#45;&gt;Node0x55b4a1b3c008 -->
<g id="edge80" class="edge">
<title>Node0x55b4a1b3be78&#45;&gt;Node0x55b4a1b3c008</title>
<path fill="none" stroke="black" d="M730.11,-263.21C877.31,-263.21 1082.24,-263.21 1224.2,-263.21"/>
<polygon fill="black" stroke="black" points="1224.31,-266.71 1234.31,-263.21 1224.31,-259.71 1224.31,-266.71"/>
</g>
<!-- Node0x55b4a1b3be78&#45;&gt;Node0x55b4a1b3b748 -->
<g id="edge85" class="edge">
<title>Node0x55b4a1b3be78&#45;&gt;Node0x55b4a1b3b748</title>
<path fill="none" stroke="black" d="M637.39,-281.31C671.63,-292.78 707.68,-311.33 730,-341.21 813.52,-453.06 671.84,-550.17 766,-653.21 889.71,-788.6 1039.85,-608.01 1170,-737.21 1223.88,-790.71 1155.91,-847.16 1206,-904.21 1223.61,-924.27 1247.84,-938.14 1272.89,-947.73"/>
<polygon fill="black" stroke="black" points="1271.93,-951.1 1282.52,-951.2 1274.3,-944.52 1271.93,-951.1"/>
</g>
<!-- Node0x55b4a1b3be78&#45;&gt;Node0x55b4a1b3a708 -->
<g id="edge87" class="edge">
<title>Node0x55b4a1b3be78&#45;&gt;Node0x55b4a1b3a708</title>
<path fill="none" stroke="black" d="M583.03,-281.36C626.78,-305.6 698.59,-353.07 730,-417.21 774.55,-508.19 695.89,-1255.09 766,-1328.21 797.17,-1360.72 1125.17,-1356.92 1170,-1361.21 1185.89,-1362.74 1202.41,-1364.4 1218.95,-1366.12"/>
<polygon fill="black" stroke="black" points="1218.93,-1369.64 1229.24,-1367.2 1219.66,-1362.68 1218.93,-1369.64"/>
</g>
<!-- Node0x55b4a1b3be78&#45;&gt;Node0x55b4a1b3b018 -->
<g id="edge84" class="edge">
<title>Node0x55b4a1b3be78&#45;&gt;Node0x55b4a1b3b018</title>
<path fill="none" stroke="black" d="M586.56,-245.21C738.36,-179.14 1289.17,32.56 1573,-236.21 1626.33,-286.71 1560.02,-841.49 1609,-896.21 1609.53,-896.81 1610.08,-897.4 1610.63,-897.98"/>
<polygon fill="black" stroke="black" points="1608.46,-900.74 1618.19,-904.95 1613.21,-895.6 1608.46,-900.74"/>
</g>
<!-- Node0x55b4a1b3b8d8 -->
<g id="node29" class="node">
<title>Node0x55b4a1b3b8d8</title>
<polygon fill="none" stroke="black" points="716.5,-462.21 375.5,-462.21 375.5,-426.21 716.5,-426.21 716.5,-462.21"/>
<text text-anchor="middle" x="546" y="-440.51" font-family="Times,serif" font-size="14.00">{lib/libLLVMSupport.a(MemoryBuffer.cpp.o)}</text>
</g>
<!-- Node0x55b4a1b3b8d8&#45;&gt;Node0x55b4a1b39e98 -->
<g id="edge89" class="edge">
<title>Node0x55b4a1b3b8d8&#45;&gt;Node0x55b4a1b39e98</title>
<path fill="none" stroke="black" d="M704.69,-462.35C714.04,-467.69 722.62,-474.23 730,-482.21 816.08,-575.31 694.18,-660.72 766,-765.21 795.37,-807.95 847.25,-835.22 890.95,-851.66"/>
<polygon fill="black" stroke="black" points="889.83,-854.98 900.43,-855.11 892.23,-848.4 889.83,-854.98"/>
</g>
<!-- Node0x55b4a1b3b8d8&#45;&gt;Node0x55b4a1b3a988 -->
<g id="edge88" class="edge">
<title>Node0x55b4a1b3b8d8&#45;&gt;Node0x55b4a1b3a988</title>
<path fill="none" stroke="black" d="M716.57,-431.12C873.94,-422.03 1094.85,-417.94 1170,-459.21 1291.03,-525.68 1357.37,-691.21 1379.76,-757.31"/>
<polygon fill="black" stroke="black" points="1376.51,-758.64 1382.98,-767.03 1383.16,-756.44 1376.51,-758.64"/>
</g>
<!-- Node0x55b4a1b3abb8 -->
<g id="node30" class="node">
<title>Node0x55b4a1b3abb8</title>
<polygon fill="none" stroke="black" points="321.5,-1357.21 4.5,-1357.21 4.5,-1321.21 321.5,-1321.21 321.5,-1357.21"/>
<text text-anchor="middle" x="163" y="-1335.51" font-family="Times,serif" font-size="14.00">{lib/libLLVMSupport.a(SourceMgr.cpp.o)}</text>
</g>
<!-- Node0x55b4a1b3abb8&#45;&gt;Node0x55b4a1b39fd8 -->
<g id="edge90" class="edge">
<title>Node0x55b4a1b3abb8&#45;&gt;Node0x55b4a1b39fd8</title>
<path fill="none" stroke="black" d="M187.18,-1321.21C222.7,-1294.61 293.66,-1245.27 362,-1220.21 517.59,-1163.17 571.2,-1207.59 730,-1160.21 746.78,-1155.21 749.15,-1148.98 766,-1144.21 774.93,-1141.69 784.14,-1139.39 793.5,-1137.31"/>
<polygon fill="black" stroke="black" points="794.24,-1140.73 803.29,-1135.22 792.78,-1133.89 794.24,-1140.73"/>
</g>
<!-- Node0x55b4a1b3abb8&#45;&gt;Node0x55b4a1b39e98 -->
<g id="edge93" class="edge">
<title>Node0x55b4a1b3abb8&#45;&gt;Node0x55b4a1b39e98</title>
<path fill="none" stroke="black" d="M189.02,-1321.06C225.9,-1292.78 293.92,-1234.4 326,-1167.21 351.51,-1113.78 318.37,-943.24 362,-903.21 511.01,-766.5 777.51,-818.24 900.93,-852.46"/>
<polygon fill="black" stroke="black" points="900.06,-855.85 910.64,-855.2 901.96,-849.12 900.06,-855.85"/>
</g>
<!-- Node0x55b4a1b3abb8&#45;&gt;Node0x55b4a1b3a988 -->
<g id="edge91" class="edge">
<title>Node0x55b4a1b3abb8&#45;&gt;Node0x55b4a1b3a988</title>
<path fill="none" stroke="black" d="M189.33,-1321.2C226.59,-1293.1 295.11,-1234.96 326,-1167.21 359.17,-1094.46 308.64,-868.76 362,-809.21 482.5,-674.74 991.15,-698.33 1170,-723.21 1225.37,-730.92 1286.43,-749.11 1329.89,-763.8"/>
<polygon fill="black" stroke="black" points="1328.85,-767.14 1339.44,-767.07 1331.11,-760.52 1328.85,-767.14"/>
</g>
<!-- Node0x55b4a1b3abb8&#45;&gt;Node0x55b4a1b3b748 -->
<g id="edge92" class="edge">
<title>Node0x55b4a1b3abb8&#45;&gt;Node0x55b4a1b3b748</title>
<path fill="none" stroke="black" d="M184.9,-1321.11C218.11,-1291.53 283.49,-1229.83 326,-1167.21 347.22,-1135.96 331.37,-1112.33 362,-1090.21 379.33,-1077.7 939.96,-1016.74 1225.21,-986.41"/>
<polygon fill="black" stroke="black" points="1225.66,-989.88 1235.24,-985.35 1224.92,-982.92 1225.66,-989.88"/>
</g>
<!-- Node0x55b4a1b3abb8&#45;&gt;Node0x55b4a1b3b4c8 -->
<g id="edge94" class="edge">
<title>Node0x55b4a1b3abb8&#45;&gt;Node0x55b4a1b3b4c8</title>
<path fill="none" stroke="black" d="M321.72,-1339.21C341.16,-1339.21 361.06,-1339.21 380.6,-1339.21"/>
<polygon fill="black" stroke="black" points="380.77,-1342.71 390.77,-1339.21 380.77,-1335.71 380.77,-1342.71"/>
</g>
<!-- Node0x55b4a1b3aa28 -->
<g id="node31" class="node">
<title>Node0x55b4a1b3aa28</title>
<polygon fill="none" stroke="black" points="1161.5,-609.21 774.5,-609.21 774.5,-573.21 1161.5,-573.21 1161.5,-609.21"/>
<text text-anchor="middle" x="968" y="-587.51" font-family="Times,serif" font-size="14.00">{lib/libLLVMSupport.a(ConvertUTFWrapper.cpp.o)}</text>
</g>
<!-- Node0x55b4a1b3aa28&#45;&gt;Node0x55b4a1b3a988 -->
<g id="edge95" class="edge">
<title>Node0x55b4a1b3aa28&#45;&gt;Node0x55b4a1b3a988</title>
<path fill="none" stroke="black" d="M1128.45,-609.28C1142.76,-613.08 1156.81,-617.67 1170,-623.21 1248.44,-656.19 1324.7,-723 1363,-759.68"/>
<polygon fill="black" stroke="black" points="1360.96,-762.58 1370.58,-767.03 1365.83,-757.55 1360.96,-762.58"/>
</g>
<!-- Node0x55b4a1b3c0a8 -->
<g id="node32" class="node">
<title>Node0x55b4a1b3c0a8</title>
<polygon fill="none" stroke="black" points="326,-91.21 0,-91.21 0,-55.21 326,-55.21 326,-91.21"/>
<text text-anchor="middle" x="163" y="-69.51" font-family="Times,serif" font-size="14.00">{lib/libLLVMSupport.a(YAMLParser.cpp.o)}</text>
</g>
<!-- Node0x55b4a1b3c0a8&#45;&gt;Node0x55b4a1b3af78 -->
<g id="edge96" class="edge">
<title>Node0x55b4a1b3c0a8&#45;&gt;Node0x55b4a1b3af78</title>
<path fill="none" stroke="black" d="M230.41,-91.34C265.11,-104.49 304.69,-126.1 326,-160.21 380.5,-247.44 294.31,-1007.77 362,-1085.21 364.28,-1087.82 366.69,-1090.27 369.22,-1092.57"/>
<polygon fill="black" stroke="black" points="367.17,-1095.41 377.14,-1099 371.59,-1089.98 367.17,-1095.41"/>
</g>
<!-- Node0x55b4a1b3c0a8&#45;&gt;Node0x55b4a1b39fd8 -->
<g id="edge98" class="edge">
<title>Node0x55b4a1b3c0a8&#45;&gt;Node0x55b4a1b39fd8</title>
<path fill="none" stroke="black" d="M230.37,-91.37C265.05,-104.53 304.63,-126.13 326,-160.21 376.45,-240.68 299.22,-942.95 362,-1014.21 377.35,-1031.64 652.46,-1073.11 826.35,-1097.79"/>
<polygon fill="black" stroke="black" points="825.97,-1101.27 836.37,-1099.21 826.95,-1094.34 825.97,-1101.27"/>
</g>
<!-- Node0x55b4a1b3c0a8&#45;&gt;Node0x55b4a1b3a988 -->
<g id="edge99" class="edge">
<title>Node0x55b4a1b3c0a8&#45;&gt;Node0x55b4a1b3a988</title>
<path fill="none" stroke="black" d="M266.88,-91.26C411,-118.42 662.93,-173.38 730,-236.21 764.47,-268.51 728.49,-307.5 766,-336.21 837.52,-390.97 1094.87,-319.52 1170,-369.21 1311.67,-462.91 1367.43,-679.37 1383.31,-756.93"/>
<polygon fill="black" stroke="black" points="1379.91,-757.79 1385.29,-766.92 1386.78,-756.43 1379.91,-757.79"/>
</g>
<!-- Node0x55b4a1b3c0a8&#45;&gt;Node0x55b4a1b3c008 -->
<g id="edge97" class="edge">
<title>Node0x55b4a1b3c0a8&#45;&gt;Node0x55b4a1b3c008</title>
<path fill="none" stroke="black" d="M326.14,-71.32C439.76,-72.13 594.84,-77.52 730,-97.21 951.57,-129.49 1206.79,-205.23 1323.8,-242.19"/>
<polygon fill="black" stroke="black" points="1322.75,-245.53 1333.34,-245.21 1324.86,-238.85 1322.75,-245.53"/>
</g>
<!-- Node0x55b4a1b3c0a8&#45;&gt;Node0x55b4a1b3b748 -->
<g id="edge100" class="edge">
<title>Node0x55b4a1b3c0a8&#45;&gt;Node0x55b4a1b3b748</title>
<path fill="none" stroke="black" d="M222.3,-91.35C257.13,-105.02 299.6,-127.17 326,-160.21 363.42,-207.05 320.95,-246.52 362,-290.21 480.48,-416.3 621.13,-282.74 730,-417.21 812.28,-518.84 683.45,-607.81 766,-709.21 885.7,-856.25 1021.52,-728.31 1170,-846.21 1193.76,-865.08 1182.38,-885.17 1206,-904.21 1230.8,-924.22 1262.25,-938.32 1292.02,-948.15"/>
<polygon fill="black" stroke="black" points="1291.02,-951.5 1301.61,-951.19 1293.14,-944.83 1291.02,-951.5"/>
</g>
<!-- Node0x55b4a1b3aed8 -->
<g id="node33" class="node">
<title>Node0x55b4a1b3aed8</title>
<polygon fill="none" stroke="black" points="683,-948.21 409,-948.21 409,-912.21 683,-912.21 683,-948.21"/>
<text text-anchor="middle" x="546" y="-926.51" font-family="Times,serif" font-size="14.00">{lib/libLLVMSupport.a(MD5.cpp.o)}</text>
</g>
<!-- Node0x55b4a1b3aed8&#45;&gt;Node0x55b4a1b39fd8 -->
<g id="edge113" class="edge">
<title>Node0x55b4a1b3aed8&#45;&gt;Node0x55b4a1b39fd8</title>
<path fill="none" stroke="black" d="M683.16,-945.92C699.22,-949.7 715.16,-954.4 730,-960.21 812.88,-992.72 896.62,-1057.36 938.87,-1092.72"/>
<polygon fill="black" stroke="black" points="936.61,-1095.39 946.51,-1099.17 941.13,-1090.04 936.61,-1095.39"/>
</g>
<!-- Node0x55b4a1b3aed8&#45;&gt;Node0x55b4a1b3a988 -->
<g id="edge114" class="edge">
<title>Node0x55b4a1b3aed8&#45;&gt;Node0x55b4a1b3a988</title>
<path fill="none" stroke="black" d="M557.16,-912.13C597.92,-839.74 748.21,-574.3 766,-564.21 844.1,-519.93 1087.15,-529.62 1170,-564.21 1265.85,-604.24 1341.11,-709.05 1372.54,-758.57"/>
<polygon fill="black" stroke="black" points="1369.63,-760.51 1377.89,-767.14 1375.56,-756.81 1369.63,-760.51"/>
</g>
<!-- Node0x55b4a1b3bdd8 -->
<g id="node34" class="node">
<title>Node0x55b4a1b3bdd8</title>
<polygon fill="none" stroke="black" points="1170,-1319.21 766,-1319.21 766,-1283.21 1170,-1283.21 1170,-1319.21"/>
<text text-anchor="middle" x="968" y="-1297.51" font-family="Times,serif" font-size="14.00">{lib/libLLVMSupport.a(CrashRecoveryContext.cpp.o)}</text>
</g>
<!-- Node0x55b4a1b3bdd8&#45;&gt;Node0x55b4a1b39d08 -->
<g id="edge116" class="edge">
<title>Node0x55b4a1b3bdd8&#45;&gt;Node0x55b4a1b39d08</title>
<path fill="none" stroke="black" d="M1152.08,-1282.99C1158.46,-1279 1164.48,-1274.43 1170,-1269.21 1224.56,-1217.67 1151.15,-1155.46 1206,-1104.21 1213.89,-1096.84 1222.87,-1090.94 1232.52,-1086.26"/>
<polygon fill="black" stroke="black" points="1234.19,-1089.34 1241.95,-1082.13 1231.39,-1082.93 1234.19,-1089.34"/>
</g>
<!-- Node0x55b4a1b3bdd8&#45;&gt;Node0x55b4a1b3b388 -->
<g id="edge115" class="edge">
<title>Node0x55b4a1b3bdd8&#45;&gt;Node0x55b4a1b3b388</title>
<path fill="none" stroke="black" d="M1152.87,-1283.06C1158.99,-1279.04 1164.74,-1274.45 1170,-1269.21 1239.92,-1199.64 1135.69,-1119.4 1206,-1050.21 1206.83,-1049.4 1207.67,-1048.6 1208.52,-1047.82"/>
<polygon fill="black" stroke="black" points="1211.01,-1050.31 1216.53,-1041.27 1206.57,-1044.9 1211.01,-1050.31"/>
</g>
<!-- Node0x55b4a1b3c198 -->
<g id="node35" class="node">
<title>Node0x55b4a1b3c198</title>
<polygon fill="none" stroke="black" points="712,-1005.21 380,-1005.21 380,-969.21 712,-969.21 712,-1005.21"/>
<text text-anchor="middle" x="546" y="-983.51" font-family="Times,serif" font-size="14.00">{lib/libLLVMSupport.a(StringExtras.cpp.o)}</text>
</g>
<!-- Node0x55b4a1b3c198&#45;&gt;Node0x55b4a1b39fd8 -->
<g id="edge117" class="edge">
<title>Node0x55b4a1b3c198&#45;&gt;Node0x55b4a1b39fd8</title>
<path fill="none" stroke="black" d="M605.4,-1005.29C682.4,-1029.12 817.62,-1070.98 899.1,-1096.2"/>
<polygon fill="black" stroke="black" points="898.17,-1099.57 908.76,-1099.19 900.24,-1092.89 898.17,-1099.57"/>
</g>
<!-- Node0x55b4a1b3c198&#45;&gt;Node0x55b4a1b3a988 -->
<g id="edge118" class="edge">
<title>Node0x55b4a1b3c198&#45;&gt;Node0x55b4a1b3a988</title>
<path fill="none" stroke="black" d="M712.3,-970.36C718.61,-966.59 724.55,-962.23 730,-957.21 778.53,-912.53 714.93,-854.97 766,-813.21 926.03,-682.37 1193.96,-731.25 1319.57,-764.46"/>
<polygon fill="black" stroke="black" points="1318.89,-767.9 1329.46,-767.12 1320.71,-761.14 1318.89,-767.9"/>
</g>
<!-- Node0x55b4a1b3c198&#45;&gt;Node0x55b4a1b3b748 -->
<g id="edge119" class="edge">
<title>Node0x55b4a1b3c198&#45;&gt;Node0x55b4a1b3b748</title>
<path fill="none" stroke="black" d="M712.25,-983.68C860.69,-980.5 1077.41,-975.87 1225.24,-972.71"/>
<polygon fill="black" stroke="black" points="1225.4,-976.2 1235.32,-972.49 1225.25,-969.21 1225.4,-976.2"/>
</g>
</g>
</svg>
