<?xml version="1.0" encoding="UTF-8" standalone="no"?>
<!DOCTYPE svg PUBLIC "-//W3C//DTD SVG 1.1//EN"
 "http://www.w3.org/Graphics/SVG/1.1/DTD/svg11.dtd">
<!-- Generated by graphviz version 2.43.0 (0)
 -->
<!-- Title: bin/bugpoint_lib/libLLVMTarget.a Pages: 1 -->
<svg width="794pt" height="121pt"
 viewBox="0.00 0.00 794.00 121.00" xmlns="http://www.w3.org/2000/svg" xmlns:xlink="http://www.w3.org/1999/xlink">
<g id="graph0" class="graph" transform="scale(1 1) rotate(0) translate(4 117)">
<title>bin/bugpoint_lib/libLLVMTarget.a</title>
<polygon fill="white" stroke="transparent" points="-4,4 -4,-117 790,-117 790,4 -4,4"/>
<text text-anchor="middle" x="393" y="-7.8" font-family="Times,serif" font-size="14.00">bin/bugpoint_lib/libLLVMTarget.a</text>
<!-- Node0x55b4fcbdacf8 -->
<g id="node1" class="node">
<title>Node0x55b4fcbdacf8</title>
<polygon fill="none" stroke="black" points="345,-59 70,-59 70,-23 345,-23 345,-59"/>
<text text-anchor="middle" x="207.5" y="-37.3" font-family="Times,serif" font-size="14.00">{lib/libLLVMTarget.a(Target.cpp.o)}</text>
</g>
<!-- Node0x55b4fcbdca58 -->
<g id="node2" class="node">
<title>Node0x55b4fcbdca58</title>
<polygon fill="none" stroke="black" points="786,-113 451,-113 451,-77 786,-77 786,-113"/>
<text text-anchor="middle" x="618.5" y="-91.3" font-family="Times,serif" font-size="14.00">{lib/libLLVMTarget.a(TargetMachine.cpp.o)}</text>
</g>
<!-- Node0x55b4fcbdd2c8 -->
<g id="node3" class="node">
<title>Node0x55b4fcbdd2c8</title>
<polygon fill="none" stroke="black" points="415,-113 0,-113 0,-77 415,-77 415,-113"/>
<text text-anchor="middle" x="207.5" y="-91.3" font-family="Times,serif" font-size="14.00">{lib/libLLVMTarget.a(TargetLoweringObjectFile.cpp.o)}</text>
</g>
<!-- Node0x55b4fcbdd2c8&#45;&gt;Node0x55b4fcbdca58 -->
<g id="edge1" class="edge">
<title>Node0x55b4fcbdd2c8&#45;&gt;Node0x55b4fcbdca58</title>
<path fill="none" stroke="black" d="M415.1,-95C423.72,-95 432.34,-95 440.89,-95"/>
<polygon fill="black" stroke="black" points="440.9,-98.5 450.9,-95 440.9,-91.5 440.9,-98.5"/>
</g>
</g>
</svg>
