<?xml version="1.0" encoding="UTF-8" standalone="no"?>
<!DOCTYPE svg PUBLIC "-//W3C//DTD SVG 1.1//EN"
 "http://www.w3.org/Graphics/SVG/1.1/DTD/svg11.dtd">
<!-- Generated by graphviz version 2.43.0 (0)
 -->
<!-- Title: cmTC_bc160 Pages: 1 -->
<svg width="1133pt" height="213pt"
 viewBox="0.00 0.00 1132.58 213.00" xmlns="http://www.w3.org/2000/svg" xmlns:xlink="http://www.w3.org/1999/xlink">
<g id="graph0" class="graph" transform="scale(1 1) rotate(0) translate(4 209)">
<title>cmTC_bc160</title>
<polygon fill="white" stroke="transparent" points="-4,4 -4,-209 1128.58,-209 1128.58,4 -4,4"/>
<text text-anchor="middle" x="562.29" y="-7.8" font-family="Times,serif" font-size="14.00">cmTC_bc160</text>
<!-- Node0x5592e9bfd300 -->
<g id="node1" class="node">
<title>Node0x5592e9bfd300</title>
<polygon fill="none" stroke="black" points="209.14,-168.5 209.14,-204.5 667.14,-204.5 667.14,-168.5 209.14,-168.5"/>
<text text-anchor="middle" x="438.14" y="-182.8" font-family="Times,serif" font-size="14.00">/usr/lib/gcc/x86_64&#45;linux&#45;gnu/9/../../../x86_64&#45;linux&#45;gnu/Scrt1.o</text>
</g>
<!-- Node0x5592e9bfcec8 -->
<g id="node2" class="node">
<title>Node0x5592e9bfcec8</title>
<ellipse fill="none" stroke="black" cx="111.14" cy="-113.5" rx="111.28" ry="18"/>
<text text-anchor="middle" x="111.14" y="-109.8" font-family="Times,serif" font-size="14.00">Node0x5592e9bfcec8</text>
</g>
<!-- Node0x5592e9bfd300&#45;&gt;Node0x5592e9bfcec8 -->
<g id="edge1" class="edge">
<title>Node0x5592e9bfd300&#45;&gt;Node0x5592e9bfcec8</title>
<path fill="none" stroke="black" d="M359.82,-168.49C306.65,-156.95 236.82,-141.79 184.7,-130.47"/>
<polygon fill="black" stroke="black" points="185.36,-127.03 174.85,-128.33 183.88,-133.87 185.36,-127.03"/>
</g>
<!-- Node0x5592e9bfc538 -->
<g id="node3" class="node">
<title>Node0x5592e9bfc538</title>
<polygon fill="none" stroke="black" points="240.14,-95.5 240.14,-131.5 636.14,-131.5 636.14,-95.5 240.14,-95.5"/>
<text text-anchor="middle" x="438.14" y="-109.8" font-family="Times,serif" font-size="14.00">/usr/lib/x86_64&#45;linux&#45;gnu/libc_nonshared.a(elf&#45;init.oS)</text>
</g>
<!-- Node0x5592e9bfd300&#45;&gt;Node0x5592e9bfc538 -->
<g id="edge2" class="edge">
<title>Node0x5592e9bfd300&#45;&gt;Node0x5592e9bfc538</title>
<path fill="none" stroke="black" d="M438.14,-168.31C438.14,-160.29 438.14,-150.55 438.14,-141.57"/>
<polygon fill="black" stroke="black" points="441.64,-141.53 438.14,-131.53 434.64,-141.53 441.64,-141.53"/>
</g>
<!-- Node0x5592e9bfd228 -->
<g id="node4" class="node">
<title>Node0x5592e9bfd228</title>
<ellipse fill="none" stroke="black" cx="768.14" cy="-113.5" rx="113.98" ry="18"/>
<text text-anchor="middle" x="768.14" y="-109.8" font-family="Times,serif" font-size="14.00">Node0x5592e9bfd228</text>
</g>
<!-- Node0x5592e9bfd300&#45;&gt;Node0x5592e9bfd228 -->
<g id="edge3" class="edge">
<title>Node0x5592e9bfd300&#45;&gt;Node0x5592e9bfd228</title>
<path fill="none" stroke="black" d="M517.18,-168.49C570.74,-156.97 641.07,-141.84 693.65,-130.53"/>
<polygon fill="black" stroke="black" points="694.54,-133.92 703.58,-128.39 693.07,-127.07 694.54,-133.92"/>
</g>
<!-- Node0x5592e9bfc340 -->
<g id="node7" class="node">
<title>Node0x5592e9bfc340</title>
<ellipse fill="none" stroke="black" cx="438.14" cy="-41" rx="112.38" ry="18"/>
<text text-anchor="middle" x="438.14" y="-37.3" font-family="Times,serif" font-size="14.00">Node0x5592e9bfc340</text>
</g>
<!-- Node0x5592e9bfc538&#45;&gt;Node0x5592e9bfc340 -->
<g id="edge6" class="edge">
<title>Node0x5592e9bfc538&#45;&gt;Node0x5592e9bfc340</title>
<path fill="none" stroke="black" d="M438.14,-95.43C438.14,-87.67 438.14,-78.28 438.14,-69.56"/>
<polygon fill="black" stroke="black" points="441.64,-69.4 438.14,-59.4 434.64,-69.4 441.64,-69.4"/>
</g>
<!-- Node0x5592e9bfce80 -->
<g id="node5" class="node">
<title>Node0x5592e9bfce80</title>
<polygon fill="none" stroke="black" points="768.64,-168.5 768.64,-204.5 1089.64,-204.5 1089.64,-168.5 768.64,-168.5"/>
<text text-anchor="middle" x="929.14" y="-182.8" font-family="Times,serif" font-size="14.00">/usr/lib/gcc/x86_64&#45;linux&#45;gnu/9/crtbeginS.o</text>
</g>
<!-- Node0x5592e9bfce80&#45;&gt;Node0x5592e9bfd228 -->
<g id="edge5" class="edge">
<title>Node0x5592e9bfce80&#45;&gt;Node0x5592e9bfd228</title>
<path fill="none" stroke="black" d="M890.58,-168.49C867.58,-158.35 838.25,-145.42 814.06,-134.75"/>
<polygon fill="black" stroke="black" points="815.29,-131.47 804.73,-130.64 812.47,-137.87 815.29,-131.47"/>
</g>
<!-- Node0x5592e9bfc9b8 -->
<g id="node6" class="node">
<title>Node0x5592e9bfc9b8</title>
<ellipse fill="none" stroke="black" cx="1012.14" cy="-113.5" rx="112.38" ry="18"/>
<text text-anchor="middle" x="1012.14" y="-109.8" font-family="Times,serif" font-size="14.00">Node0x5592e9bfc9b8</text>
</g>
<!-- Node0x5592e9bfce80&#45;&gt;Node0x5592e9bfc9b8 -->
<g id="edge4" class="edge">
<title>Node0x5592e9bfce80&#45;&gt;Node0x5592e9bfc9b8</title>
<path fill="none" stroke="black" d="M949.23,-168.31C959.91,-159.18 973.2,-147.81 984.81,-137.88"/>
<polygon fill="black" stroke="black" points="987.2,-140.44 992.52,-131.28 982.65,-135.12 987.2,-140.44"/>
</g>
</g>
</svg>
