<?xml version="1.0" encoding="UTF-8" standalone="no"?>
<!DOCTYPE svg PUBLIC "-//W3C//DTD SVG 1.1//EN"
 "http://www.w3.org/Graphics/SVG/1.1/DTD/svg11.dtd">
<!-- Generated by graphviz version 2.43.0 (0)
 -->
<!-- Title: cmTC_dea7d Pages: 1 -->
<svg width="1088pt" height="213pt"
 viewBox="0.00 0.00 1087.50 213.00" xmlns="http://www.w3.org/2000/svg" xmlns:xlink="http://www.w3.org/1999/xlink">
<g id="graph0" class="graph" transform="scale(1 1) rotate(0) translate(4 209)">
<title>cmTC_dea7d</title>
<polygon fill="white" stroke="transparent" points="-4,4 -4,-209 1083.5,-209 1083.5,4 -4,4"/>
<text text-anchor="middle" x="539.75" y="-7.8" font-family="Times,serif" font-size="14.00">cmTC_dea7d</text>
<!-- Node0x55d9a9674830 -->
<g id="node1" class="node">
<title>Node0x55d9a9674830</title>
<polygon fill="none" stroke="black" points="195,-168.5 195,-204.5 653,-204.5 653,-168.5 195,-168.5"/>
<text text-anchor="middle" x="424" y="-182.8" font-family="Times,serif" font-size="14.00">/usr/lib/gcc/x86_64&#45;linux&#45;gnu/9/../../../x86_64&#45;linux&#45;gnu/Scrt1.o</text>
</g>
<!-- Node0x55d9a9674878 -->
<g id="node2" class="node">
<title>Node0x55d9a9674878</title>
<polygon fill="none" stroke="black" points="452,-95.5 452,-131.5 740,-131.5 740,-95.5 452,-95.5"/>
<text text-anchor="middle" x="596" y="-109.8" font-family="Times,serif" font-size="14.00">CMakeFiles/cmTC_dea7d.dir/src.cxx.o</text>
</g>
<!-- Node0x55d9a9674830&#45;&gt;Node0x55d9a9674878 -->
<g id="edge1" class="edge">
<title>Node0x55d9a9674830&#45;&gt;Node0x55d9a9674878</title>
<path fill="none" stroke="black" d="M465.2,-168.49C489.17,-158.6 519.58,-146.04 545.05,-135.53"/>
<polygon fill="black" stroke="black" points="546.63,-138.66 554.54,-131.61 543.96,-132.19 546.63,-138.66"/>
</g>
<!-- Node0x55d9a9673a68 -->
<g id="node3" class="node">
<title>Node0x55d9a9673a68</title>
<polygon fill="none" stroke="black" points="0,-95.5 0,-131.5 396,-131.5 396,-95.5 0,-95.5"/>
<text text-anchor="middle" x="198" y="-109.8" font-family="Times,serif" font-size="14.00">/usr/lib/x86_64&#45;linux&#45;gnu/libc_nonshared.a(elf&#45;init.oS)</text>
</g>
<!-- Node0x55d9a9674830&#45;&gt;Node0x55d9a9673a68 -->
<g id="edge2" class="edge">
<title>Node0x55d9a9674830&#45;&gt;Node0x55d9a9673a68</title>
<path fill="none" stroke="black" d="M369.87,-168.49C337.54,-158.34 296.29,-145.38 262.31,-134.7"/>
<polygon fill="black" stroke="black" points="263.06,-131.27 252.47,-131.61 260.97,-137.95 263.06,-131.27"/>
</g>
<!-- Node0x55d9a96745a8 -->
<g id="node4" class="node">
<title>Node0x55d9a96745a8</title>
<ellipse fill="none" stroke="black" cx="596" cy="-41" rx="115.88" ry="18"/>
<text text-anchor="middle" x="596" y="-37.3" font-family="Times,serif" font-size="14.00">Node0x55d9a96745a8</text>
</g>
<!-- Node0x55d9a9674830&#45;&gt;Node0x55d9a96745a8 -->
<g id="edge3" class="edge">
<title>Node0x55d9a9674830&#45;&gt;Node0x55d9a96745a8</title>
<path fill="none" stroke="black" d="M422.88,-168.3C422.53,-148.28 425.07,-115.36 443,-95 459.01,-76.82 481.59,-64.87 504.49,-57.02"/>
<polygon fill="black" stroke="black" points="505.83,-60.27 514.3,-53.9 503.71,-53.6 505.83,-60.27"/>
</g>
<!-- Node0x55d9a9674878&#45;&gt;Node0x55d9a96745a8 -->
<g id="edge6" class="edge">
<title>Node0x55d9a9674878&#45;&gt;Node0x55d9a96745a8</title>
<path fill="none" stroke="black" d="M596,-95.43C596,-87.67 596,-78.28 596,-69.56"/>
<polygon fill="black" stroke="black" points="599.5,-69.4 596,-59.4 592.5,-69.4 599.5,-69.4"/>
</g>
<!-- Node0x55d9a9673cf0 -->
<g id="node7" class="node">
<title>Node0x55d9a9673cf0</title>
<ellipse fill="none" stroke="black" cx="198" cy="-41" rx="112.38" ry="18"/>
<text text-anchor="middle" x="198" y="-37.3" font-family="Times,serif" font-size="14.00">Node0x55d9a9673cf0</text>
</g>
<!-- Node0x55d9a9673a68&#45;&gt;Node0x55d9a9673cf0 -->
<g id="edge7" class="edge">
<title>Node0x55d9a9673a68&#45;&gt;Node0x55d9a9673cf0</title>
<path fill="none" stroke="black" d="M198,-95.43C198,-87.67 198,-78.28 198,-69.56"/>
<polygon fill="black" stroke="black" points="201.5,-69.4 198,-59.4 194.5,-69.4 201.5,-69.4"/>
</g>
<!-- Node0x55d9a96743b0 -->
<g id="node5" class="node">
<title>Node0x55d9a96743b0</title>
<polygon fill="none" stroke="black" points="758.5,-95.5 758.5,-131.5 1079.5,-131.5 1079.5,-95.5 758.5,-95.5"/>
<text text-anchor="middle" x="919" y="-109.8" font-family="Times,serif" font-size="14.00">/usr/lib/gcc/x86_64&#45;linux&#45;gnu/9/crtbeginS.o</text>
</g>
<!-- Node0x55d9a96743b0&#45;&gt;Node0x55d9a96745a8 -->
<g id="edge5" class="edge">
<title>Node0x55d9a96743b0&#45;&gt;Node0x55d9a96745a8</title>
<path fill="none" stroke="black" d="M840.81,-95.43C788.91,-84.11 721.21,-69.33 670.16,-58.19"/>
<polygon fill="black" stroke="black" points="670.7,-54.72 660.18,-56.01 669.2,-61.56 670.7,-54.72"/>
</g>
<!-- Node0x55d9a9673ee8 -->
<g id="node6" class="node">
<title>Node0x55d9a9673ee8</title>
<ellipse fill="none" stroke="black" cx="919" cy="-41" rx="115.08" ry="18"/>
<text text-anchor="middle" x="919" y="-37.3" font-family="Times,serif" font-size="14.00">Node0x55d9a9673ee8</text>
</g>
<!-- Node0x55d9a96743b0&#45;&gt;Node0x55d9a9673ee8 -->
<g id="edge4" class="edge">
<title>Node0x55d9a96743b0&#45;&gt;Node0x55d9a9673ee8</title>
<path fill="none" stroke="black" d="M919,-95.43C919,-87.67 919,-78.28 919,-69.56"/>
<polygon fill="black" stroke="black" points="922.5,-69.4 919,-59.4 915.5,-69.4 922.5,-69.4"/>
</g>
</g>
</svg>
