<?xml version="1.0" encoding="UTF-8" standalone="no"?>
<!DOCTYPE svg PUBLIC "-//W3C//DTD SVG 1.1//EN"
 "http://www.w3.org/Graphics/SVG/1.1/DTD/svg11.dtd">
<!-- Generated by graphviz version 2.43.0 (0)
 -->
<!-- Title: bin/lli_lib/libLLVMOrcJIT.a Pages: 1 -->
<svg width="3436pt" height="1082pt"
 viewBox="0.00 0.00 3436.00 1081.61" xmlns="http://www.w3.org/2000/svg" xmlns:xlink="http://www.w3.org/1999/xlink">
<g id="graph0" class="graph" transform="scale(1 1) rotate(0) translate(4 1077.61)">
<title>bin/lli_lib/libLLVMOrcJIT.a</title>
<polygon fill="white" stroke="transparent" points="-4,4 -4,-1077.61 3432,-1077.61 3432,4 -4,4"/>
<text text-anchor="middle" x="1714" y="-7.8" font-family="Times,serif" font-size="14.00">bin/lli_lib/libLLVMOrcJIT.a</text>
<!-- Node0x55fc404a7008 -->
<g id="node1" class="node">
<title>Node0x55fc404a7008</title>
<polygon fill="#7fb2ff" stroke="black" points="1302,-800.24 874,-800.24 874,-764.24 1302,-764.24 1302,-800.24"/>
<text text-anchor="middle" x="1088" y="-778.54" font-family="Times,serif" font-size="14.00">{lib/libLLVMOrcJIT.a(DebugObjectManagerPlugin.cpp.o)}</text>
</g>
<!-- Node0x55fc404ad228 -->
<g id="node2" class="node">
<title>Node0x55fc404ad228</title>
<polygon fill="#7fb2ff" stroke="black" points="1649.5,-556.24 1390.5,-556.24 1390.5,-520.24 1649.5,-520.24 1649.5,-556.24"/>
<text text-anchor="middle" x="1520" y="-534.54" font-family="Times,serif" font-size="14.00">{lib/libLLVMOrcJIT.a(Core.cpp.o)}</text>
</g>
<!-- Node0x55fc404a7008&#45;&gt;Node0x55fc404ad228 -->
<g id="edge1" class="edge">
<title>Node0x55fc404a7008&#45;&gt;Node0x55fc404ad228</title>
<path fill="none" stroke="#7fb2ff" d="M1120.97,-764.1C1197.87,-720.46 1393.11,-609.67 1478.26,-561.36"/>
<polygon fill="#7fb2ff" stroke="#7fb2ff" points="1480.14,-564.31 1487.11,-556.33 1476.69,-558.22 1480.14,-564.31"/>
</g>
<!-- Node0x55fc404a4948 -->
<g id="node3" class="node">
<title>Node0x55fc404a4948</title>
<polygon fill="#7fb2ff" stroke="black" points="1702,-800.24 1338,-800.24 1338,-764.24 1702,-764.24 1702,-800.24"/>
<text text-anchor="middle" x="1520" y="-778.54" font-family="Times,serif" font-size="14.00">{lib/libLLVMOrcJIT.a(ObjectLinkingLayer.cpp.o)}</text>
</g>
<!-- Node0x55fc404a7008&#45;&gt;Node0x55fc404a4948 -->
<g id="edge2" class="edge">
<title>Node0x55fc404a7008&#45;&gt;Node0x55fc404a4948</title>
<path fill="none" stroke="#7fb2ff" d="M1302.11,-775.49C1310.59,-775.49 1319.08,-775.5 1327.52,-775.52"/>
<polygon fill="#7fb2ff" stroke="#7fb2ff" points="1327.77,-779.03 1337.78,-775.56 1327.8,-772.03 1327.77,-779.03"/>
</g>
<!-- Node0x55fc404a41c8 -->
<g id="node4" class="node">
<title>Node0x55fc404a41c8</title>
<polygon fill="#7fb2ff" stroke="black" points="2092,-556.24 1786,-556.24 1786,-520.24 2092,-520.24 2092,-556.24"/>
<text text-anchor="middle" x="1939" y="-534.54" font-family="Times,serif" font-size="14.00">{lib/libLLVMOrcJIT.a(DebugUtils.cpp.o)}</text>
</g>
<!-- Node0x55fc404ad228&#45;&gt;Node0x55fc404a41c8 -->
<g id="edge39" class="edge">
<title>Node0x55fc404ad228&#45;&gt;Node0x55fc404a41c8</title>
<path fill="none" stroke="#7fb2ff" d="M1649.52,-531.95C1689.39,-531.47 1733.87,-531.36 1775.73,-531.64"/>
<polygon fill="#7fb2ff" stroke="#7fb2ff" points="1775.72,-535.14 1785.75,-531.71 1775.77,-528.14 1775.72,-535.14"/>
</g>
<!-- Node0x55fc404aaed8 -->
<g id="node5" class="node">
<title>Node0x55fc404aaed8</title>
<polygon fill="#7fb2ff" stroke="black" points="2140,-464.24 1738,-464.24 1738,-428.24 2140,-428.24 2140,-464.24"/>
<text text-anchor="middle" x="1939" y="-442.54" font-family="Times,serif" font-size="14.00">{lib/libLLVMOrcJIT.a(CompileOnDemandLayer.cpp.o)}</text>
</g>
<!-- Node0x55fc404ad228&#45;&gt;Node0x55fc404aaed8 -->
<g id="edge40" class="edge">
<title>Node0x55fc404ad228&#45;&gt;Node0x55fc404aaed8</title>
<path fill="none" stroke="#7fb2ff" d="M1557.93,-520.2C1600.87,-504.55 1674.03,-483.16 1738,-469.24 1742.69,-468.22 1747.45,-467.21 1752.26,-466.23"/>
<polygon fill="#7fb2ff" stroke="#7fb2ff" points="1753.07,-469.64 1762.19,-464.24 1751.7,-462.78 1753.07,-469.64"/>
</g>
<!-- Node0x55fc404a4948&#45;&gt;Node0x55fc404a7008 -->
<g id="edge46" class="edge">
<title>Node0x55fc404a4948&#45;&gt;Node0x55fc404a7008</title>
<path fill="none" stroke="#7fb2ff" d="M1337.78,-788.91C1329.3,-788.95 1320.75,-788.98 1312.18,-788.98"/>
<polygon fill="#7fb2ff" stroke="#7fb2ff" points="1312.11,-785.48 1302.11,-788.99 1312.11,-792.48 1312.11,-785.48"/>
</g>
<!-- Node0x55fc404a4948&#45;&gt;Node0x55fc404ad228 -->
<g id="edge49" class="edge">
<title>Node0x55fc404a4948&#45;&gt;Node0x55fc404ad228</title>
<path fill="none" stroke="#7fb2ff" d="M1520,-764.15C1520,-698.26 1520,-632.38 1520,-566.49"/>
<polygon fill="#7fb2ff" stroke="#7fb2ff" points="1523.5,-566.35 1520,-556.35 1516.5,-566.35 1523.5,-566.35"/>
</g>
<!-- Node0x55fc404a4948&#45;&gt;Node0x55fc404aaed8 -->
<g id="edge48" class="edge">
<title>Node0x55fc404a4948&#45;&gt;Node0x55fc404aaed8</title>
<path fill="none" stroke="#7fb2ff" d="M1537.18,-764.2C1569.7,-727.67 1644.75,-641.88 1702,-565.24 1719.26,-542.13 1715.01,-528.66 1738,-511.24 1764.7,-491 1797.95,-476.92 1829.63,-467.19"/>
<polygon fill="#7fb2ff" stroke="#7fb2ff" points="1830.81,-470.49 1839.41,-464.3 1828.82,-463.78 1830.81,-470.49"/>
</g>
<!-- Node0x55fc404caa08 -->
<g id="node6" class="node">
<title>Node0x55fc404caa08</title>
<polygon fill="#7fb2ff" stroke="black" points="2071,-610.24 1807,-610.24 1807,-574.24 2071,-574.24 2071,-610.24"/>
<text text-anchor="middle" x="1939" y="-588.54" font-family="Times,serif" font-size="14.00">{lib/libLLVMOrcJIT.a(Layer.cpp.o)}</text>
</g>
<!-- Node0x55fc404a4948&#45;&gt;Node0x55fc404caa08 -->
<g id="edge47" class="edge">
<title>Node0x55fc404a4948&#45;&gt;Node0x55fc404caa08</title>
<path fill="none" stroke="#7fb2ff" d="M1560.61,-764.19C1637.25,-729.27 1805.61,-652.56 1889.09,-614.52"/>
<polygon fill="#7fb2ff" stroke="#7fb2ff" points="1890.7,-617.63 1898.35,-610.3 1887.8,-611.26 1890.7,-617.63"/>
</g>
<!-- Node0x55fc404c80c8 -->
<g id="node7" class="node">
<title>Node0x55fc404c80c8</title>
<polygon fill="#7fb2ff" stroke="black" points="2108,-960.24 1770,-960.24 1770,-924.24 2108,-924.24 2108,-960.24"/>
<text text-anchor="middle" x="1939" y="-938.54" font-family="Times,serif" font-size="14.00">{lib/libLLVMOrcJIT.a(MachOPlatform.cpp.o)}</text>
</g>
<!-- Node0x55fc404a4948&#45;&gt;Node0x55fc404c80c8 -->
<g id="edge50" class="edge">
<title>Node0x55fc404a4948&#45;&gt;Node0x55fc404c80c8</title>
<path fill="none" stroke="#7fb2ff" d="M1588.42,-800.31C1624,-814.75 1667.34,-836.37 1702,-862.24 1720.9,-876.35 1717.21,-890.09 1738,-901.24 1754.76,-910.22 1773.36,-916.84 1792.28,-921.77"/>
<polygon fill="#7fb2ff" stroke="#7fb2ff" points="1791.65,-925.22 1802.2,-924.2 1793.32,-918.42 1791.65,-925.22"/>
</g>
<!-- Node0x55fc404a41c8&#45;&gt;Node0x55fc404ad228 -->
<g id="edge68" class="edge">
<title>Node0x55fc404a41c8&#45;&gt;Node0x55fc404ad228</title>
<path fill="none" stroke="#7fb2ff" d="M1785.75,-544.77C1744.53,-545.1 1700.14,-545.06 1659.71,-544.64"/>
<polygon fill="#7fb2ff" stroke="#7fb2ff" points="1659.56,-541.14 1649.52,-544.53 1659.48,-548.14 1659.56,-541.14"/>
</g>
<!-- Node0x55fc404a41c8&#45;&gt;Node0x55fc404aaed8 -->
<g id="edge67" class="edge">
<title>Node0x55fc404a41c8&#45;&gt;Node0x55fc404aaed8</title>
<path fill="none" stroke="#7fb2ff" d="M1939,-520.11C1939,-505.07 1939,-490.02 1939,-474.98"/>
<polygon fill="#7fb2ff" stroke="#7fb2ff" points="1942.5,-474.57 1939,-464.57 1935.5,-474.57 1942.5,-474.57"/>
</g>
<!-- Node0x55fc404aaed8&#45;&gt;Node0x55fc404ad228 -->
<g id="edge34" class="edge">
<title>Node0x55fc404aaed8&#45;&gt;Node0x55fc404ad228</title>
<path fill="none" stroke="#7fb2ff" d="M1863.07,-464.3C1825.37,-470.74 1779.06,-478.31 1738,-487.24 1698.12,-495.91 1654.67,-507.5 1617.2,-517.56"/>
<polygon fill="#7fb2ff" stroke="#7fb2ff" points="1616.05,-514.24 1607.3,-520.21 1617.87,-521 1616.05,-514.24"/>
</g>
<!-- Node0x55fc404aaed8&#45;&gt;Node0x55fc404caa08 -->
<g id="edge33" class="edge">
<title>Node0x55fc404aaed8&#45;&gt;Node0x55fc404caa08</title>
<path fill="none" stroke="#7fb2ff" d="M1827.74,-464.28C1761.31,-480.47 1695.3,-509.56 1726,-559.24 1741.6,-584.48 1767.97,-597.25 1796.94,-602.85"/>
<polygon fill="#7fb2ff" stroke="#7fb2ff" points="1796.41,-606.31 1806.85,-604.49 1797.55,-599.41 1796.41,-606.31"/>
</g>
<!-- Node0x55fc404a3a48 -->
<g id="node8" class="node">
<title>Node0x55fc404a3a48</title>
<polygon fill="#7fb2ff" stroke="black" points="2521.5,-510.24 2190.5,-510.24 2190.5,-474.24 2521.5,-474.24 2521.5,-510.24"/>
<text text-anchor="middle" x="2356" y="-488.54" font-family="Times,serif" font-size="14.00">{lib/libLLVMOrcJIT.a(ExecutionUtils.cpp.o)}</text>
</g>
<!-- Node0x55fc404aaed8&#45;&gt;Node0x55fc404a3a48 -->
<g id="edge30" class="edge">
<title>Node0x55fc404aaed8&#45;&gt;Node0x55fc404a3a48</title>
<path fill="none" stroke="#7fb2ff" d="M2140.21,-461.68C2173.17,-465.3 2206.37,-469.18 2236.49,-472.94"/>
<polygon fill="#7fb2ff" stroke="#7fb2ff" points="2236.23,-476.43 2246.59,-474.21 2237.1,-469.49 2236.23,-476.43"/>
</g>
<!-- Node0x55fc404a3458 -->
<g id="node9" class="node">
<title>Node0x55fc404a3458</title>
<polygon fill="#7fb2ff" stroke="black" points="2525,-272.24 2187,-272.24 2187,-236.24 2525,-236.24 2525,-272.24"/>
<text text-anchor="middle" x="2356" y="-250.54" font-family="Times,serif" font-size="14.00">{lib/libLLVMOrcJIT.a(IndirectionUtils.cpp.o)}</text>
</g>
<!-- Node0x55fc404aaed8&#45;&gt;Node0x55fc404a3458 -->
<g id="edge31" class="edge">
<title>Node0x55fc404aaed8&#45;&gt;Node0x55fc404a3458</title>
<path fill="none" stroke="#7fb2ff" d="M1954.3,-428.01C1989.04,-391.17 2081.98,-309.78 2176,-272.24 2176.33,-272.11 2176.66,-271.98 2176.99,-271.85"/>
<polygon fill="#7fb2ff" stroke="#7fb2ff" points="2178.53,-275.01 2186.69,-268.26 2176.1,-268.44 2178.53,-275.01"/>
</g>
<!-- Node0x55fc404ca0f8 -->
<g id="node10" class="node">
<title>Node0x55fc404ca0f8</title>
<polygon fill="#7fb2ff" stroke="black" points="2521.5,-326.24 2190.5,-326.24 2190.5,-290.24 2521.5,-290.24 2521.5,-326.24"/>
<text text-anchor="middle" x="2356" y="-304.54" font-family="Times,serif" font-size="14.00">{lib/libLLVMOrcJIT.a(LazyReexports.cpp.o)}</text>
</g>
<!-- Node0x55fc404aaed8&#45;&gt;Node0x55fc404ca0f8 -->
<g id="edge32" class="edge">
<title>Node0x55fc404aaed8&#45;&gt;Node0x55fc404ca0f8</title>
<path fill="none" stroke="#7fb2ff" d="M1978.71,-428.18C2020.13,-412.8 2087.01,-389.33 2140,-359.24 2157.63,-349.23 2157.48,-339.48 2176,-331.24 2177.59,-330.53 2179.19,-329.84 2180.8,-329.17"/>
<polygon fill="#7fb2ff" stroke="#7fb2ff" points="2182.16,-332.39 2190.18,-325.46 2179.59,-325.88 2182.16,-332.39"/>
</g>
<!-- Node0x55fc404c8848 -->
<g id="node11" class="node">
<title>Node0x55fc404c8848</title>
<polygon fill="#7fb2ff" stroke="black" points="2502.5,-456.24 2209.5,-456.24 2209.5,-420.24 2502.5,-420.24 2502.5,-456.24"/>
<text text-anchor="middle" x="2356" y="-434.54" font-family="Times,serif" font-size="14.00">{lib/libLLVMOrcJIT.a(Mangling.cpp.o)}</text>
</g>
<!-- Node0x55fc404aaed8&#45;&gt;Node0x55fc404c8848 -->
<g id="edge35" class="edge">
<title>Node0x55fc404aaed8&#45;&gt;Node0x55fc404c8848</title>
<path fill="none" stroke="#7fb2ff" d="M2140.21,-442.38C2160.06,-442 2180.01,-441.61 2199.32,-441.24"/>
<polygon fill="#7fb2ff" stroke="#7fb2ff" points="2199.42,-444.74 2209.35,-441.05 2199.28,-437.74 2199.42,-444.74"/>
</g>
<!-- Node0x55fc404a76e8 -->
<g id="node12" class="node">
<title>Node0x55fc404a76e8</title>
<polygon fill="none" stroke="black" points="2536,-564.24 2176,-564.24 2176,-528.24 2536,-528.24 2536,-564.24"/>
<text text-anchor="middle" x="2356" y="-542.54" font-family="Times,serif" font-size="14.00">{lib/libLLVMOrcJIT.a(ThreadSafeModule.cpp.o)}</text>
</g>
<!-- Node0x55fc404aaed8&#45;&gt;Node0x55fc404a76e8 -->
<g id="edge36" class="edge">
<title>Node0x55fc404aaed8&#45;&gt;Node0x55fc404a76e8</title>
<path fill="none" stroke="black" d="M1990.5,-464.28C2037.88,-480.63 2110.99,-504.37 2176,-519.24 2187.25,-521.81 2198.95,-524.2 2210.75,-526.41"/>
<polygon fill="black" stroke="black" points="2210.21,-529.87 2220.68,-528.22 2211.47,-522.98 2210.21,-529.87"/>
</g>
<!-- Node0x55fc404caa08&#45;&gt;Node0x55fc404ad228 -->
<g id="edge64" class="edge">
<title>Node0x55fc404caa08&#45;&gt;Node0x55fc404ad228</title>
<path fill="none" stroke="#7fb2ff" d="M1806.67,-575.23C1759.84,-569.17 1706.96,-562.32 1659.55,-556.18"/>
<polygon fill="#7fb2ff" stroke="#7fb2ff" points="1659.88,-552.69 1649.52,-554.88 1658.98,-559.64 1659.88,-552.69"/>
</g>
<!-- Node0x55fc404caa08&#45;&gt;Node0x55fc404aaed8 -->
<g id="edge63" class="edge">
<title>Node0x55fc404caa08&#45;&gt;Node0x55fc404aaed8</title>
<path fill="none" stroke="#7fb2ff" d="M1806.86,-603.31C1769.51,-598.76 1733.7,-585.11 1714,-553.24 1686.32,-508.45 1735.83,-482.06 1795.39,-466.7"/>
<polygon fill="#7fb2ff" stroke="#7fb2ff" points="1796.54,-470.03 1805.41,-464.24 1794.87,-463.23 1796.54,-470.03"/>
</g>
<!-- Node0x55fc404caa08&#45;&gt;Node0x55fc404a3a48 -->
<g id="edge62" class="edge">
<title>Node0x55fc404caa08&#45;&gt;Node0x55fc404a3a48</title>
<path fill="none" stroke="#7fb2ff" d="M2071.19,-589.21C2095.18,-584.65 2119.18,-577.17 2140,-565.24 2162.52,-552.33 2153.58,-532.32 2176,-519.24 2178.85,-517.58 2181.77,-516 2184.74,-514.52"/>
<polygon fill="#7fb2ff" stroke="#7fb2ff" points="2186.22,-517.69 2193.83,-510.31 2183.28,-511.34 2186.22,-517.69"/>
</g>
<!-- Node0x55fc404caa08&#45;&gt;Node0x55fc404c8848 -->
<g id="edge65" class="edge">
<title>Node0x55fc404caa08&#45;&gt;Node0x55fc404c8848</title>
<path fill="none" stroke="#7fb2ff" d="M2071.03,-586.22C2095.98,-581.17 2120.38,-572.1 2140,-556.24 2176.74,-526.55 2139.49,-486.21 2176,-456.24 2183.31,-450.23 2191.38,-445.27 2199.93,-441.19"/>
<polygon fill="#7fb2ff" stroke="#7fb2ff" points="2201.58,-444.29 2209.38,-437.12 2198.81,-437.87 2201.58,-444.29"/>
</g>
<!-- Node0x55fc404caa08&#45;&gt;Node0x55fc404a76e8 -->
<g id="edge66" class="edge">
<title>Node0x55fc404caa08&#45;&gt;Node0x55fc404a76e8</title>
<path fill="none" stroke="black" d="M2071.02,-577.72C2106.2,-573.82 2144.78,-569.54 2181.85,-565.43"/>
<polygon fill="black" stroke="black" points="2182.71,-568.86 2192.27,-564.28 2181.94,-561.9 2182.71,-568.86"/>
</g>
<!-- Node0x55fc404c80c8&#45;&gt;Node0x55fc404a7008 -->
<g id="edge41" class="edge">
<title>Node0x55fc404c80c8&#45;&gt;Node0x55fc404a7008</title>
<path fill="none" stroke="#7fb2ff" d="M1820.76,-924.21C1793.56,-919.82 1764.74,-915.01 1738,-910.24 1541.1,-875.08 1311.74,-828.52 1185.21,-802.34"/>
<polygon fill="#7fb2ff" stroke="#7fb2ff" points="1185.66,-798.86 1175.16,-800.26 1184.24,-805.71 1185.66,-798.86"/>
</g>
<!-- Node0x55fc404c80c8&#45;&gt;Node0x55fc404ad228 -->
<g id="edge43" class="edge">
<title>Node0x55fc404c80c8&#45;&gt;Node0x55fc404ad228</title>
<path fill="none" stroke="#7fb2ff" d="M1769.74,-931.31C1758.16,-925.9 1747.39,-918.99 1738,-910.24 1686.28,-862 1733.5,-818.56 1702,-755.24 1662.66,-676.18 1589.16,-601.02 1548.98,-563.35"/>
<polygon fill="#7fb2ff" stroke="#7fb2ff" points="1551.13,-560.57 1541.41,-556.33 1546.37,-565.7 1551.13,-560.57"/>
</g>
<!-- Node0x55fc404c80c8&#45;&gt;Node0x55fc404a4948 -->
<g id="edge44" class="edge">
<title>Node0x55fc404c80c8&#45;&gt;Node0x55fc404a4948</title>
<path fill="none" stroke="#7fb2ff" d="M1769.88,-932.98C1758.81,-929.18 1748.07,-924.64 1738,-919.24 1717.21,-908.09 1720.9,-894.35 1702,-880.24 1658.41,-847.7 1601.08,-821.88 1562.73,-804.6"/>
<polygon fill="#7fb2ff" stroke="#7fb2ff" points="1563.96,-801.31 1553.41,-800.39 1561.08,-807.69 1563.96,-801.31"/>
</g>
<!-- Node0x55fc404cafa8 -->
<g id="node13" class="node">
<title>Node0x55fc404cafa8</title>
<polygon fill="#7fb2ff" stroke="black" points="2486.5,-922.24 2225.5,-922.24 2225.5,-886.24 2486.5,-886.24 2486.5,-922.24"/>
<text text-anchor="middle" x="2356" y="-900.54" font-family="Times,serif" font-size="14.00">{lib/libLLVMOrcJIT.a(LLJIT.cpp.o)}</text>
</g>
<!-- Node0x55fc404c80c8&#45;&gt;Node0x55fc404cafa8 -->
<g id="edge42" class="edge">
<title>Node0x55fc404c80c8&#45;&gt;Node0x55fc404cafa8</title>
<path fill="none" stroke="#7fb2ff" d="M2068.18,-924.21C2114.75,-919.38 2167.6,-914.5 2215.13,-910.63"/>
<polygon fill="#7fb2ff" stroke="#7fb2ff" points="2215.5,-914.11 2225.19,-909.81 2214.94,-907.13 2215.5,-914.11"/>
</g>
<!-- Node0x55fc404a3a48&#45;&gt;Node0x55fc404ad228 -->
<g id="edge4" class="edge">
<title>Node0x55fc404a3a48&#45;&gt;Node0x55fc404ad228</title>
<path fill="none" stroke="#7fb2ff" d="M2190.44,-493.15C2066.02,-494.85 1891.06,-499.39 1738,-511.24 1712.69,-513.2 1685.79,-515.98 1659.87,-519.01"/>
<polygon fill="#7fb2ff" stroke="#7fb2ff" points="1659.12,-515.58 1649.6,-520.23 1659.95,-522.53 1659.12,-515.58"/>
</g>
<!-- Node0x55fc404a3a48&#45;&gt;Node0x55fc404aaed8 -->
<g id="edge3" class="edge">
<title>Node0x55fc404a3a48&#45;&gt;Node0x55fc404aaed8</title>
<path fill="none" stroke="#7fb2ff" d="M2190.24,-480.6C2146.12,-475.98 2099.31,-470.63 2058.26,-465.51"/>
<polygon fill="#7fb2ff" stroke="#7fb2ff" points="2058.58,-462.02 2048.22,-464.24 2057.71,-468.97 2058.58,-462.02"/>
</g>
<!-- Node0x55fc404a3a48&#45;&gt;Node0x55fc404c8848 -->
<g id="edge5" class="edge">
<title>Node0x55fc404a3a48&#45;&gt;Node0x55fc404c8848</title>
<path fill="none" stroke="#7fb2ff" d="M2356,-474.03C2356,-471.55 2356,-469.06 2356,-466.58"/>
<polygon fill="#7fb2ff" stroke="#7fb2ff" points="2359.5,-466.38 2356,-456.38 2352.5,-466.38 2359.5,-466.38"/>
</g>
<!-- Node0x55fc404a3458&#45;&gt;Node0x55fc404ad228 -->
<g id="edge7" class="edge">
<title>Node0x55fc404a3458&#45;&gt;Node0x55fc404ad228</title>
<path fill="none" stroke="#7fb2ff" d="M2186.9,-245.57C2058.08,-245.51 1879.08,-260.03 1738,-327.24 1647.97,-370.12 1572.18,-465.37 1538.98,-511.79"/>
<polygon fill="#7fb2ff" stroke="#7fb2ff" points="1536,-509.94 1533.1,-520.13 1541.72,-513.97 1536,-509.94"/>
</g>
<!-- Node0x55fc404a3458&#45;&gt;Node0x55fc404aaed8 -->
<g id="edge6" class="edge">
<title>Node0x55fc404a3458&#45;&gt;Node0x55fc404aaed8</title>
<path fill="none" stroke="#7fb2ff" d="M2240.71,-272.27C2218.75,-276.45 2196.28,-282.14 2176,-290.24 2095.74,-322.29 2016.27,-386.29 1973.11,-421.7"/>
<polygon fill="#7fb2ff" stroke="#7fb2ff" points="1970.74,-419.13 1965.23,-428.18 1975.18,-424.53 1970.74,-419.13"/>
</g>
<!-- Node0x55fc404a5898 -->
<g id="node14" class="node">
<title>Node0x55fc404a5898</title>
<polygon fill="none" stroke="black" points="2947,-299.24 2613,-299.24 2613,-263.24 2947,-263.24 2947,-299.24"/>
<text text-anchor="middle" x="2780" y="-277.54" font-family="Times,serif" font-size="14.00">{lib/libLLVMOrcJIT.a(OrcABISupport.cpp.o)}</text>
</g>
<!-- Node0x55fc404a3458&#45;&gt;Node0x55fc404a5898 -->
<g id="edge8" class="edge">
<title>Node0x55fc404a3458&#45;&gt;Node0x55fc404a5898</title>
<path fill="none" stroke="black" d="M2525.3,-265.01C2550.75,-266.63 2577.07,-268.32 2602.68,-269.96"/>
<polygon fill="black" stroke="black" points="2602.64,-273.46 2612.84,-270.61 2603.09,-266.48 2602.64,-273.46"/>
</g>
<!-- Node0x55fc404ca0f8&#45;&gt;Node0x55fc404ad228 -->
<g id="edge13" class="edge">
<title>Node0x55fc404ca0f8&#45;&gt;Node0x55fc404ad228</title>
<path fill="none" stroke="#7fb2ff" d="M2190.21,-323.24C2063.74,-338.21 1886.28,-366.82 1738,-419.24 1669.74,-443.37 1597.32,-487.3 1555.79,-514.5"/>
<polygon fill="#7fb2ff" stroke="#7fb2ff" points="1553.82,-511.6 1547.41,-520.04 1557.68,-517.44 1553.82,-511.6"/>
</g>
<!-- Node0x55fc404ca0f8&#45;&gt;Node0x55fc404aaed8 -->
<g id="edge12" class="edge">
<title>Node0x55fc404ca0f8&#45;&gt;Node0x55fc404aaed8</title>
<path fill="none" stroke="#7fb2ff" d="M2253.51,-326.33C2227.5,-331.38 2200.08,-338.51 2176,-349.24 2157.48,-357.48 2157.63,-367.23 2140,-377.24 2106.53,-396.25 2067.5,-412.61 2032.86,-424.79"/>
<polygon fill="#7fb2ff" stroke="#7fb2ff" points="2031.53,-421.54 2023.22,-428.11 2033.81,-428.16 2031.53,-421.54"/>
</g>
<!-- Node0x55fc404ca0f8&#45;&gt;Node0x55fc404a3458 -->
<g id="edge11" class="edge">
<title>Node0x55fc404ca0f8&#45;&gt;Node0x55fc404a3458</title>
<path fill="none" stroke="#7fb2ff" d="M2356,-290.03C2356,-287.55 2356,-285.06 2356,-282.58"/>
<polygon fill="#7fb2ff" stroke="#7fb2ff" points="2359.5,-282.38 2356,-272.38 2352.5,-282.38 2359.5,-282.38"/>
</g>
<!-- Node0x55fc404ca0f8&#45;&gt;Node0x55fc404a5898 -->
<g id="edge14" class="edge">
<title>Node0x55fc404ca0f8&#45;&gt;Node0x55fc404a5898</title>
<path fill="none" stroke="black" d="M2521.67,-297.7C2548.23,-296 2575.82,-294.24 2602.64,-292.52"/>
<polygon fill="black" stroke="black" points="2603.12,-296 2612.88,-291.87 2602.68,-289.01 2603.12,-296"/>
</g>
<!-- Node0x55fc404a6798 -->
<g id="node17" class="node">
<title>Node0x55fc404a6798</title>
<polygon fill="#7fb2ff" stroke="black" points="2934.5,-456.24 2625.5,-456.24 2625.5,-420.24 2934.5,-420.24 2934.5,-456.24"/>
<text text-anchor="middle" x="2780" y="-434.54" font-family="Times,serif" font-size="14.00">{lib/libLLVMOrcJIT.a(Speculation.cpp.o)}</text>
</g>
<!-- Node0x55fc404ca0f8&#45;&gt;Node0x55fc404a6798 -->
<g id="edge15" class="edge">
<title>Node0x55fc404ca0f8&#45;&gt;Node0x55fc404a6798</title>
<path fill="none" stroke="#7fb2ff" d="M2406.88,-326.36C2443.07,-339.84 2493.01,-359.13 2536,-378.24 2552.35,-385.5 2555.09,-390.41 2572,-396.24 2597.63,-405.07 2625.71,-412.31 2652.7,-418.13"/>
<polygon fill="#7fb2ff" stroke="#7fb2ff" points="2652.08,-421.57 2662.59,-420.21 2653.53,-414.72 2652.08,-421.57"/>
</g>
<!-- Node0x55fc404c8848&#45;&gt;Node0x55fc404caa08 -->
<g id="edge45" class="edge">
<title>Node0x55fc404c8848&#45;&gt;Node0x55fc404caa08</title>
<path fill="none" stroke="#7fb2ff" d="M2209.38,-455.04C2197.32,-459.81 2185.96,-466.06 2176,-474.24 2139.49,-504.21 2176.74,-544.55 2140,-574.24 2122.99,-587.99 2102.37,-596.64 2080.93,-601.73"/>
<polygon fill="#7fb2ff" stroke="#7fb2ff" points="2080.09,-598.33 2071.03,-603.82 2081.54,-605.18 2080.09,-598.33"/>
</g>
<!-- Node0x55fc404cafa8&#45;&gt;Node0x55fc404ad228 -->
<g id="edge23" class="edge">
<title>Node0x55fc404cafa8&#45;&gt;Node0x55fc404ad228</title>
<path fill="none" stroke="#7fb2ff" d="M2225.33,-905.31C2055.66,-905.54 1775.41,-901.4 1738,-872.24 1695.09,-838.79 1727.93,-803.07 1702,-755.24 1659.8,-677.41 1587.15,-601.47 1547.95,-563.44"/>
<polygon fill="#7fb2ff" stroke="#7fb2ff" points="1550.21,-560.75 1540.58,-556.35 1545.36,-565.8 1550.21,-560.75"/>
</g>
<!-- Node0x55fc404cafa8&#45;&gt;Node0x55fc404a4948 -->
<g id="edge27" class="edge">
<title>Node0x55fc404cafa8&#45;&gt;Node0x55fc404a4948</title>
<path fill="none" stroke="#7fb2ff" d="M2310.29,-922.24C2206.23,-961.35 1941.2,-1044.71 1738,-969.24 1650.81,-936.85 1575.19,-851.97 1540.78,-808.59"/>
<polygon fill="#7fb2ff" stroke="#7fb2ff" points="1543.37,-806.22 1534.45,-800.5 1537.85,-810.53 1543.37,-806.22"/>
</g>
<!-- Node0x55fc404cafa8&#45;&gt;Node0x55fc404aaed8 -->
<g id="edge21" class="edge">
<title>Node0x55fc404cafa8&#45;&gt;Node0x55fc404aaed8</title>
<path fill="none" stroke="#7fb2ff" d="M2345.13,-885.99C2303.5,-809.02 2144.16,-514.69 2140,-511.24 2115.53,-490.95 2084.56,-476.94 2054.35,-467.29"/>
<polygon fill="#7fb2ff" stroke="#7fb2ff" points="2055.17,-463.88 2044.58,-464.31 2053.13,-470.57 2055.17,-463.88"/>
</g>
<!-- Node0x55fc404cafa8&#45;&gt;Node0x55fc404c80c8 -->
<g id="edge25" class="edge">
<title>Node0x55fc404cafa8&#45;&gt;Node0x55fc404c80c8</title>
<path fill="none" stroke="#7fb2ff" d="M2227.05,-922.24C2192.73,-925.8 2154.98,-929.39 2118.46,-932.59"/>
<polygon fill="#7fb2ff" stroke="#7fb2ff" points="2117.86,-929.13 2108.2,-933.48 2118.46,-936.1 2117.86,-929.13"/>
</g>
<!-- Node0x55fc404cafa8&#45;&gt;Node0x55fc404a3a48 -->
<g id="edge16" class="edge">
<title>Node0x55fc404cafa8&#45;&gt;Node0x55fc404a3a48</title>
<path fill="none" stroke="#7fb2ff" d="M2225.37,-906.74C2197.95,-900.25 2172.86,-887.28 2158,-863.24 2138.43,-831.58 2138.43,-559.9 2158,-528.24 2164.19,-518.23 2172.18,-510.23 2181.38,-503.88"/>
<polygon fill="#7fb2ff" stroke="#7fb2ff" points="2183.46,-506.71 2190.16,-498.51 2179.81,-500.74 2183.46,-506.71"/>
</g>
<!-- Node0x55fc404cafa8&#45;&gt;Node0x55fc404a3458 -->
<g id="edge17" class="edge">
<title>Node0x55fc404cafa8&#45;&gt;Node0x55fc404a3458</title>
<path fill="none" stroke="#7fb2ff" d="M2225.37,-906.74C2197.95,-900.25 2172.86,-887.28 2158,-863.24 2141.26,-836.16 2141.26,-317.32 2158,-290.24 2163.4,-281.51 2170.16,-274.31 2177.91,-268.4"/>
<polygon fill="#7fb2ff" stroke="#7fb2ff" points="2180.35,-270.98 2186.68,-262.49 2176.43,-265.17 2180.35,-270.98"/>
</g>
<!-- Node0x55fc404cafa8&#45;&gt;Node0x55fc404ca0f8 -->
<g id="edge20" class="edge">
<title>Node0x55fc404cafa8&#45;&gt;Node0x55fc404ca0f8</title>
<path fill="none" stroke="#7fb2ff" d="M2225.37,-906.74C2197.95,-900.25 2172.86,-887.28 2158,-863.24 2145.06,-842.3 2145.6,-441.5 2158,-420.24 2184.32,-375.11 2236.32,-346.71 2280.42,-329.81"/>
<polygon fill="#7fb2ff" stroke="#7fb2ff" points="2281.82,-333.02 2289.99,-326.27 2279.39,-326.45 2281.82,-333.02"/>
</g>
<!-- Node0x55fc404cafa8&#45;&gt;Node0x55fc404c8848 -->
<g id="edge26" class="edge">
<title>Node0x55fc404cafa8&#45;&gt;Node0x55fc404c8848</title>
<path fill="none" stroke="#7fb2ff" d="M2225.37,-906.74C2197.95,-900.25 2172.86,-887.28 2158,-863.24 2135.28,-826.47 2135.28,-511.01 2158,-474.24 2168,-458.06 2182.69,-447.14 2199.63,-439.96"/>
<polygon fill="#7fb2ff" stroke="#7fb2ff" points="2201.13,-443.14 2209.26,-436.35 2198.67,-436.59 2201.13,-443.14"/>
</g>
<!-- Node0x55fc404a5438 -->
<g id="node15" class="node">
<title>Node0x55fc404a5438</title>
<polygon fill="#7fb2ff" stroke="black" points="3395,-800.24 3057,-800.24 3057,-764.24 3395,-764.24 3395,-800.24"/>
<text text-anchor="middle" x="3226" y="-778.54" font-family="Times,serif" font-size="14.00">{lib/libLLVMOrcJIT.a(IRCompileLayer.cpp.o)}</text>
</g>
<!-- Node0x55fc404cafa8&#45;&gt;Node0x55fc404a5438 -->
<g id="edge18" class="edge">
<title>Node0x55fc404cafa8&#45;&gt;Node0x55fc404a5438</title>
<path fill="none" stroke="#7fb2ff" d="M2486.53,-887.25C2514.68,-883.76 2544.32,-880.24 2572,-877.24 2756.58,-857.22 2804.82,-869.47 2988,-839.24 3043.35,-830.1 3104.93,-815.14 3151.45,-802.84"/>
<polygon fill="#7fb2ff" stroke="#7fb2ff" points="3152.38,-806.22 3161.14,-800.26 3150.57,-799.45 3152.38,-806.22"/>
</g>
<!-- Node0x55fc404a4d58 -->
<g id="node16" class="node">
<title>Node0x55fc404a4d58</title>
<polygon fill="none" stroke="black" points="3428,-945.24 3024,-945.24 3024,-909.24 3428,-909.24 3428,-945.24"/>
<text text-anchor="middle" x="3226" y="-923.54" font-family="Times,serif" font-size="14.00">{lib/libLLVMOrcJIT.a(JITTargetMachineBuilder.cpp.o)}</text>
</g>
<!-- Node0x55fc404cafa8&#45;&gt;Node0x55fc404a4d58 -->
<g id="edge19" class="edge">
<title>Node0x55fc404cafa8&#45;&gt;Node0x55fc404a4d58</title>
<path fill="none" stroke="black" d="M2478.98,-922.24C2509.3,-925.98 2541.78,-929.35 2572,-931.24 2719.21,-940.45 2885.45,-939.26 3013.35,-935.87"/>
<polygon fill="black" stroke="black" points="3013.76,-939.36 3023.66,-935.59 3013.57,-932.36 3013.76,-939.36"/>
</g>
<!-- Node0x55fc404ac9b8 -->
<g id="node18" class="node">
<title>Node0x55fc404ac9b8</title>
<polygon fill="#7fb2ff" stroke="black" points="2939,-922.24 2621,-922.24 2621,-886.24 2939,-886.24 2939,-922.24"/>
<text text-anchor="middle" x="2780" y="-900.54" font-family="Times,serif" font-size="14.00">{lib/libLLVMOrcJIT.a(CompileUtils.cpp.o)}</text>
</g>
<!-- Node0x55fc404cafa8&#45;&gt;Node0x55fc404ac9b8 -->
<g id="edge22" class="edge">
<title>Node0x55fc404cafa8&#45;&gt;Node0x55fc404ac9b8</title>
<path fill="none" stroke="#7fb2ff" d="M2486.77,-904.24C2525.93,-904.24 2569.5,-904.24 2610.78,-904.24"/>
<polygon fill="#7fb2ff" stroke="#7fb2ff" points="2610.95,-907.74 2620.95,-904.24 2610.95,-900.74 2610.95,-907.74"/>
</g>
<!-- Node0x55fc404c7858 -->
<g id="node19" class="node">
<title>Node0x55fc404c7858</title>
<polygon fill="#7fb2ff" stroke="black" points="2957,-776.24 2603,-776.24 2603,-740.24 2957,-740.24 2957,-776.24"/>
<text text-anchor="middle" x="2780" y="-754.54" font-family="Times,serif" font-size="14.00">{lib/libLLVMOrcJIT.a(IRTransformLayer.cpp.o)}</text>
</g>
<!-- Node0x55fc404cafa8&#45;&gt;Node0x55fc404c7858 -->
<g id="edge24" class="edge">
<title>Node0x55fc404cafa8&#45;&gt;Node0x55fc404c7858</title>
<path fill="none" stroke="#7fb2ff" d="M2429.31,-886.19C2463.96,-875.11 2504.64,-858.32 2536,-834.24 2557.43,-817.78 2548.73,-798.98 2572,-785.24 2578.8,-781.22 2585.95,-777.69 2593.33,-774.6"/>
<polygon fill="#7fb2ff" stroke="#7fb2ff" points="2594.75,-777.8 2602.79,-770.91 2592.2,-771.28 2594.75,-777.8"/>
</g>
<!-- Node0x55fc404a55c8 -->
<g id="node20" class="node">
<title>Node0x55fc404a55c8</title>
<polygon fill="#7fb2ff" stroke="black" points="2972.5,-830.24 2587.5,-830.24 2587.5,-794.24 2972.5,-794.24 2972.5,-830.24"/>
<text text-anchor="middle" x="2780" y="-808.54" font-family="Times,serif" font-size="14.00">{lib/libLLVMOrcJIT.a(ObjectTransformLayer.cpp.o)}</text>
</g>
<!-- Node0x55fc404cafa8&#45;&gt;Node0x55fc404a55c8 -->
<g id="edge28" class="edge">
<title>Node0x55fc404cafa8&#45;&gt;Node0x55fc404a55c8</title>
<path fill="none" stroke="#7fb2ff" d="M2486.85,-888.74C2503.77,-884.51 2520.57,-879.11 2536,-872.24 2554.52,-863.99 2553.39,-852.27 2572,-844.24 2581.84,-839.99 2592.16,-836.3 2602.72,-833.09"/>
<polygon fill="#7fb2ff" stroke="#7fb2ff" points="2603.84,-836.41 2612.48,-830.28 2601.9,-829.69 2603.84,-836.41"/>
</g>
<!-- Node0x55fc404a6338 -->
<g id="node21" class="node">
<title>Node0x55fc404a6338</title>
<polygon fill="#7fb2ff" stroke="black" points="2988,-387.24 2572,-387.24 2572,-351.24 2988,-351.24 2988,-387.24"/>
<text text-anchor="middle" x="2780" y="-365.54" font-family="Times,serif" font-size="14.00">{lib/libLLVMOrcJIT.a(RTDyldObjectLinkingLayer.cpp.o)}</text>
</g>
<!-- Node0x55fc404cafa8&#45;&gt;Node0x55fc404a6338 -->
<g id="edge29" class="edge">
<title>Node0x55fc404cafa8&#45;&gt;Node0x55fc404a6338</title>
<path fill="none" stroke="#7fb2ff" d="M2371.26,-885.94C2405.49,-841.07 2492.64,-720.82 2536,-606.24 2567.19,-523.81 2510.23,-474.1 2572,-411.24 2579.23,-403.88 2587.37,-397.63 2596.13,-392.34"/>
<polygon fill="#7fb2ff" stroke="#7fb2ff" points="2598.05,-395.28 2605.09,-387.36 2594.65,-389.16 2598.05,-395.28"/>
</g>
<!-- Node0x55fc404a5438&#45;&gt;Node0x55fc404ad228 -->
<g id="edge10" class="edge">
<title>Node0x55fc404a5438&#45;&gt;Node0x55fc404ad228</title>
<path fill="none" stroke="#7fb2ff" d="M3222.73,-764.21C3212.21,-688.66 3161.13,-394.89 2988,-254.24 2828.38,-124.57 2740.46,-177.37 2536,-155.24 2183.39,-117.08 2044.43,23.34 1738,-155.24 1601.43,-234.83 1543.89,-435.81 1526.83,-510.08"/>
<polygon fill="#7fb2ff" stroke="#7fb2ff" points="1523.36,-509.57 1524.6,-520.09 1530.19,-511.09 1523.36,-509.57"/>
</g>
<!-- Node0x55fc404a5438&#45;&gt;Node0x55fc404caa08 -->
<g id="edge9" class="edge">
<title>Node0x55fc404a5438&#45;&gt;Node0x55fc404caa08</title>
<path fill="none" stroke="#7fb2ff" d="M3150.1,-764.23C3103.64,-753.53 3042.6,-740.32 2988,-731.24 2629.52,-671.61 2535.38,-689.17 2176,-635.24 2131.68,-628.59 2082.91,-619.93 2041.27,-612.13"/>
<polygon fill="#7fb2ff" stroke="#7fb2ff" points="2041.87,-608.68 2031.4,-610.27 2040.58,-615.56 2041.87,-608.68"/>
</g>
<!-- Node0x55fc404a6798&#45;&gt;Node0x55fc404ad228 -->
<g id="edge72" class="edge">
<title>Node0x55fc404a6798&#45;&gt;Node0x55fc404ad228</title>
<path fill="none" stroke="#7fb2ff" d="M2625.4,-428.31C2605.51,-421.28 2586.92,-411.01 2572,-396.24 2517.43,-342.2 2595.69,-275.55 2536,-227.24 2467.07,-171.44 1816.4,-200.8 1738,-242.24 1625.14,-301.89 1556.02,-449.47 1531.31,-510.81"/>
<polygon fill="#7fb2ff" stroke="#7fb2ff" points="1528.01,-509.64 1527.59,-520.22 1534.52,-512.21 1528.01,-509.64"/>
</g>
<!-- Node0x55fc404a6798&#45;&gt;Node0x55fc404a4948 -->
<g id="edge74" class="edge">
<title>Node0x55fc404a6798&#45;&gt;Node0x55fc404a4948</title>
<path fill="none" stroke="#7fb2ff" d="M2763.22,-456.44C2727.39,-496.43 2635.26,-591.8 2536,-635.24 2266.78,-753.06 1922.81,-780.06 1712.38,-784.37"/>
<polygon fill="#7fb2ff" stroke="#7fb2ff" points="1712.08,-780.88 1702.14,-784.57 1712.21,-787.88 1712.08,-780.88"/>
</g>
<!-- Node0x55fc404a6798&#45;&gt;Node0x55fc404aaed8 -->
<g id="edge71" class="edge">
<title>Node0x55fc404a6798&#45;&gt;Node0x55fc404aaed8</title>
<path fill="none" stroke="#7fb2ff" d="M2641.08,-420.23C2606.81,-416.5 2570.12,-413.13 2536,-411.24 2376.24,-402.39 2335.57,-399.47 2176,-411.24 2134.4,-414.31 2089,-420.38 2049.24,-426.61"/>
<polygon fill="#7fb2ff" stroke="#7fb2ff" points="2048.58,-423.17 2039.25,-428.2 2049.68,-430.09 2048.58,-423.17"/>
</g>
<!-- Node0x55fc404a6798&#45;&gt;Node0x55fc404caa08 -->
<g id="edge69" class="edge">
<title>Node0x55fc404a6798&#45;&gt;Node0x55fc404caa08</title>
<path fill="none" stroke="#7fb2ff" d="M2761.31,-456.38C2723.89,-493.3 2632.21,-576.22 2536,-606.24 2364.15,-659.86 2150.7,-634.16 2031.5,-612.16"/>
<polygon fill="#7fb2ff" stroke="#7fb2ff" points="2031.8,-608.66 2021.32,-610.25 2030.5,-615.54 2031.8,-608.66"/>
</g>
<!-- Node0x55fc404a6798&#45;&gt;Node0x55fc404c8848 -->
<g id="edge73" class="edge">
<title>Node0x55fc404a6798&#45;&gt;Node0x55fc404c8848</title>
<path fill="none" stroke="#7fb2ff" d="M2625.43,-438.24C2588.76,-438.24 2549.59,-438.24 2512.83,-438.24"/>
<polygon fill="#7fb2ff" stroke="#7fb2ff" points="2512.52,-434.74 2502.52,-438.24 2512.52,-441.74 2512.52,-434.74"/>
</g>
<!-- Node0x55fc404a6798&#45;&gt;Node0x55fc404cafa8 -->
<g id="edge70" class="edge">
<title>Node0x55fc404a6798&#45;&gt;Node0x55fc404cafa8</title>
<path fill="none" stroke="#7fb2ff" d="M2765.21,-456.27C2730.88,-501.46 2639.54,-623.62 2572,-731.24 2554.45,-759.21 2558.91,-772.46 2536,-796.24 2499.9,-833.7 2448.1,-863.08 2409.51,-881.67"/>
<polygon fill="#7fb2ff" stroke="#7fb2ff" points="2407.54,-878.73 2399.99,-886.16 2410.53,-885.06 2407.54,-878.73"/>
</g>
<!-- Node0x55fc404ac9b8&#45;&gt;Node0x55fc404a5438 -->
<g id="edge37" class="edge">
<title>Node0x55fc404ac9b8&#45;&gt;Node0x55fc404a5438</title>
<path fill="none" stroke="#7fb2ff" d="M2923.51,-886.23C2945.27,-882.33 2967.34,-877.69 2988,-872.24 3054.68,-854.63 3128.53,-824.86 3175.79,-804.41"/>
<polygon fill="#7fb2ff" stroke="#7fb2ff" points="3177.4,-807.53 3185.17,-800.32 3174.6,-801.11 3177.4,-807.53"/>
</g>
<!-- Node0x55fc404ac9b8&#45;&gt;Node0x55fc404a4d58 -->
<g id="edge38" class="edge">
<title>Node0x55fc404ac9b8&#45;&gt;Node0x55fc404a4d58</title>
<path fill="none" stroke="black" d="M2939.1,-912.43C2963.3,-913.68 2988.6,-914.99 3013.72,-916.29"/>
<polygon fill="black" stroke="black" points="3013.54,-919.79 3023.71,-916.81 3013.9,-912.8 3013.54,-919.79"/>
</g>
<!-- Node0x55fc404c7858&#45;&gt;Node0x55fc404ad228 -->
<g id="edge76" class="edge">
<title>Node0x55fc404c7858&#45;&gt;Node0x55fc404ad228</title>
<path fill="none" stroke="#7fb2ff" d="M2602.77,-753.79C2482.12,-748.98 2318.76,-738.98 2176,-718.24 1978.5,-689.55 1929.26,-676.26 1738,-619.24 1680.86,-602.2 1617.11,-577.72 1573.57,-560.14"/>
<polygon fill="#7fb2ff" stroke="#7fb2ff" points="1574.64,-556.8 1564.06,-556.28 1572,-563.28 1574.64,-556.8"/>
</g>
<!-- Node0x55fc404c7858&#45;&gt;Node0x55fc404caa08 -->
<g id="edge75" class="edge">
<title>Node0x55fc404c7858&#45;&gt;Node0x55fc404caa08</title>
<path fill="none" stroke="#7fb2ff" d="M2628.69,-740.2C2457.29,-719.5 2197.79,-687.68 2176,-682.24 2108.94,-665.48 2034.98,-635.24 1988.05,-614.47"/>
<polygon fill="#7fb2ff" stroke="#7fb2ff" points="1989.3,-611.19 1978.74,-610.32 1986.45,-617.59 1989.3,-611.19"/>
</g>
<!-- Node0x55fc404a55c8&#45;&gt;Node0x55fc404ad228 -->
<g id="edge78" class="edge">
<title>Node0x55fc404a55c8&#45;&gt;Node0x55fc404ad228</title>
<path fill="none" stroke="#7fb2ff" d="M2587.22,-814.63C2373.2,-811.24 2019.97,-787.38 1738,-679.24 1664.37,-651 1589.7,-595.2 1550.03,-562.91"/>
<polygon fill="#7fb2ff" stroke="#7fb2ff" points="1552.05,-560.05 1542.11,-556.4 1547.61,-565.45 1552.05,-560.05"/>
</g>
<!-- Node0x55fc404a55c8&#45;&gt;Node0x55fc404caa08 -->
<g id="edge77" class="edge">
<title>Node0x55fc404a55c8&#45;&gt;Node0x55fc404caa08</title>
<path fill="none" stroke="#7fb2ff" d="M2587.17,-799.49C2466.61,-787.32 2309.23,-763.73 2176,-718.24 2100.59,-692.49 2020.26,-644.67 1975.48,-615.92"/>
<polygon fill="#7fb2ff" stroke="#7fb2ff" points="1977.3,-612.93 1967,-610.43 1973.5,-618.8 1977.3,-612.93"/>
</g>
<!-- Node0x55fc404a6338&#45;&gt;Node0x55fc404a7008 -->
<g id="edge51" class="edge">
<title>Node0x55fc404a6338&#45;&gt;Node0x55fc404a7008</title>
<path fill="none" stroke="#7fb2ff" d="M2643.05,-351.21C2616.56,-342.06 2591.12,-328.45 2572,-308.24 2523.99,-257.49 2590.76,-198.61 2536,-155.24 2257.97,64.96 2069.48,-29.09 1738,-155.24 1515.57,-239.88 1494.17,-331.65 1338,-511.24 1319.07,-533 1320.18,-542.85 1302,-565.24 1241.22,-640.08 1158.76,-718.58 1116.48,-757.43"/>
<polygon fill="#7fb2ff" stroke="#7fb2ff" points="1114.08,-754.88 1109.07,-764.21 1118.81,-760.04 1114.08,-754.88"/>
</g>
<!-- Node0x55fc404a6338&#45;&gt;Node0x55fc404ad228 -->
<g id="edge54" class="edge">
<title>Node0x55fc404a6338&#45;&gt;Node0x55fc404ad228</title>
<path fill="none" stroke="#7fb2ff" d="M2647.35,-351.23C2619.67,-342.13 2592.64,-328.53 2572,-308.24 2533.81,-270.69 2579.16,-224.95 2536,-193.24 2464.55,-140.74 1815.57,-152.29 1738,-195.24 1612.22,-264.87 1549.1,-441.38 1528.65,-510.18"/>
<polygon fill="#7fb2ff" stroke="#7fb2ff" points="1525.25,-509.31 1525.83,-519.89 1531.98,-511.26 1525.25,-509.31"/>
</g>
<!-- Node0x55fc404a6338&#45;&gt;Node0x55fc404aaed8 -->
<g id="edge53" class="edge">
<title>Node0x55fc404a6338&#45;&gt;Node0x55fc404aaed8</title>
<path fill="none" stroke="#7fb2ff" d="M2571.86,-372.67C2455.22,-376.41 2307.1,-384.17 2176,-400.24 2126.5,-406.3 2071.81,-416.73 2027.55,-426.12"/>
<polygon fill="#7fb2ff" stroke="#7fb2ff" points="2026.73,-422.71 2017.69,-428.23 2028.2,-429.56 2026.73,-422.71"/>
</g>
<!-- Node0x55fc404a6338&#45;&gt;Node0x55fc404caa08 -->
<g id="edge52" class="edge">
<title>Node0x55fc404a6338&#45;&gt;Node0x55fc404caa08</title>
<path fill="none" stroke="#7fb2ff" d="M2606.45,-387.26C2593.8,-393.48 2582.07,-401.35 2572,-411.24 2519.37,-462.91 2592.79,-526.18 2536,-573.24 2501.87,-601.53 2246.59,-600.47 2081.38,-596.67"/>
<polygon fill="#7fb2ff" stroke="#7fb2ff" points="2081.2,-593.16 2071.12,-596.42 2081.04,-600.16 2081.2,-593.16"/>
</g>
<!-- Node0x55fc404a6338&#45;&gt;Node0x55fc404c8848 -->
<g id="edge55" class="edge">
<title>Node0x55fc404a6338&#45;&gt;Node0x55fc404c8848</title>
<path fill="none" stroke="#7fb2ff" d="M2668.59,-387.29C2609.82,-396.9 2537.45,-408.73 2477.26,-418.58"/>
<polygon fill="#7fb2ff" stroke="#7fb2ff" points="2476.63,-415.13 2467.32,-420.2 2477.76,-422.04 2476.63,-415.13"/>
</g>
<!-- Node0x55fc404a7378 -->
<g id="node22" class="node">
<title>Node0x55fc404a7378</title>
<polygon fill="none" stroke="black" points="1278,-556.24 898,-556.24 898,-520.24 1278,-520.24 1278,-556.24"/>
<text text-anchor="middle" x="1088" y="-534.54" font-family="Times,serif" font-size="14.00">{lib/libLLVMOrcJIT.a(TargetProcessControl.cpp.o)}</text>
</g>
<!-- Node0x55fc404a7378&#45;&gt;Node0x55fc404ad228 -->
<g id="edge56" class="edge">
<title>Node0x55fc404a7378&#45;&gt;Node0x55fc404ad228</title>
<path fill="none" stroke="black" d="M1278.23,-538.24C1312.53,-538.24 1347.73,-538.24 1380.25,-538.24"/>
<polygon fill="black" stroke="black" points="1380.25,-541.74 1390.25,-538.24 1380.25,-534.74 1380.25,-541.74"/>
</g>
<!-- Node0x55fc404a8368 -->
<g id="node23" class="node">
<title>Node0x55fc404a8368</title>
<polygon fill="none" stroke="black" points="838,-988.24 425,-988.24 425,-952.24 838,-952.24 838,-988.24"/>
<text text-anchor="middle" x="631.5" y="-966.54" font-family="Times,serif" font-size="14.00">{lib/libLLVMOrcJIT.a(TPCDebugObjectRegistrar.cpp.o)}</text>
</g>
<!-- Node0x55fc404a8368&#45;&gt;Node0x55fc404a7008 -->
<g id="edge57" class="edge">
<title>Node0x55fc404a8368&#45;&gt;Node0x55fc404a7008</title>
<path fill="none" stroke="black" d="M676.08,-952.21C759.88,-917.55 943.19,-841.72 1033.94,-804.19"/>
<polygon fill="black" stroke="black" points="1035.32,-807.4 1043.22,-800.35 1032.64,-800.94 1035.32,-807.4"/>
</g>
<!-- Node0x55fc404a8368&#45;&gt;Node0x55fc404cafa8 -->
<g id="edge58" class="edge">
<title>Node0x55fc404a8368&#45;&gt;Node0x55fc404cafa8</title>
<path fill="none" stroke="black" d="M838.12,-985.37C1191.11,-1009.45 1897.79,-1048.87 2140,-998.24 2204.83,-984.69 2274.02,-950.44 2315.9,-927.25"/>
<polygon fill="black" stroke="black" points="2317.65,-930.27 2324.66,-922.33 2314.23,-924.17 2317.65,-930.27"/>
</g>
<!-- Node0x55fc404b2ae8 -->
<g id="node24" class="node">
<title>Node0x55fc404b2ae8</title>
<polygon fill="none" stroke="black" points="389,-988.24 0,-988.24 0,-952.24 389,-952.24 389,-988.24"/>
<text text-anchor="middle" x="194.5" y="-966.54" font-family="Times,serif" font-size="14.00">{lib/libLLVMOrcJIT.a(TPCEHFrameRegistrar.cpp.o)}</text>
</g>
<!-- Node0x55fc404b2ae8&#45;&gt;Node0x55fc404a7008 -->
<g id="edge59" class="edge">
<title>Node0x55fc404b2ae8&#45;&gt;Node0x55fc404a7008</title>
<path fill="none" stroke="black" d="M280.98,-952.21C448.03,-916.98 816.71,-839.24 991.49,-802.38"/>
<polygon fill="black" stroke="black" points="992.39,-805.77 1001.45,-800.28 990.94,-798.92 992.39,-805.77"/>
</g>
<!-- Node0x55fc404b2ae8&#45;&gt;Node0x55fc404cafa8 -->
<g id="edge60" class="edge">
<title>Node0x55fc404b2ae8&#45;&gt;Node0x55fc404cafa8</title>
<path fill="none" stroke="black" d="M298.76,-988.25C464.46,-1015.55 800.25,-1064.24 1087,-1064.24 1087,-1064.24 1087,-1064.24 1521,-1064.24 1796.68,-1064.24 1875.58,-1102.23 2140,-1024.24 2210.09,-1003.57 2282.45,-956.99 2322.79,-928.32"/>
<polygon fill="black" stroke="black" points="2325.06,-931 2331.14,-922.32 2320.98,-925.32 2325.06,-931"/>
</g>
<!-- Node0x55fc404b2ae8&#45;&gt;Node0x55fc404a8368 -->
<g id="edge61" class="edge">
<title>Node0x55fc404b2ae8&#45;&gt;Node0x55fc404a8368</title>
<path fill="none" stroke="black" d="M389.15,-970.24C397.53,-970.24 405.96,-970.24 414.39,-970.24"/>
<polygon fill="black" stroke="black" points="414.66,-973.74 424.66,-970.24 414.66,-966.74 414.66,-973.74"/>
</g>
</g>
</svg>
