<?xml version="1.0" encoding="UTF-8" standalone="no"?>
<!DOCTYPE svg PUBLIC "-//W3C//DTD SVG 1.1//EN"
 "http://www.w3.org/Graphics/SVG/1.1/DTD/svg11.dtd">
<!-- Generated by graphviz version 2.43.0 (0)
 -->
<!-- Title: bin/llvm&#45;isel&#45;fuzzer_lib/libLLVMMC.a Pages: 1 -->
<svg width="3115pt" height="3242pt"
 viewBox="0.00 0.00 3115.00 3242.10" xmlns="http://www.w3.org/2000/svg" xmlns:xlink="http://www.w3.org/1999/xlink">
<g id="graph0" class="graph" transform="scale(1 1) rotate(0) translate(4 3238.1)">
<title>bin/llvm&#45;isel&#45;fuzzer_lib/libLLVMMC.a</title>
<polygon fill="white" stroke="transparent" points="-4,4 -4,-3238.1 3111,-3238.1 3111,4 -4,4"/>
<text text-anchor="middle" x="1553.5" y="-7.8" font-family="Times,serif" font-size="14.00">bin/llvm&#45;isel&#45;fuzzer_lib/libLLVMMC.a</text>
<!-- Node0x55cedc397438 -->
<g id="node1" class="node">
<title>Node0x55cedc397438</title>
<polygon fill="#7fb2ff" stroke="black" points="1603,-1745.1 1316,-1745.1 1316,-1709.1 1603,-1709.1 1603,-1745.1"/>
<text text-anchor="middle" x="1459.5" y="-1723.4" font-family="Times,serif" font-size="14.00">{lib/libLLVMMC.a(MCContext.cpp.o)}</text>
</g>
<!-- Node0x55cedc3980b8 -->
<g id="node2" class="node">
<title>Node0x55cedc3980b8</title>
<polygon fill="#7fb2ff" stroke="black" points="2013,-1493.1 1713,-1493.1 1713,-1457.1 2013,-1457.1 2013,-1493.1"/>
<text text-anchor="middle" x="1863" y="-1471.4" font-family="Times,serif" font-size="14.00">{lib/libLLVMMC.a(MCCodeView.cpp.o)}</text>
</g>
<!-- Node0x55cedc397438&#45;&gt;Node0x55cedc3980b8 -->
<g id="edge1" class="edge">
<title>Node0x55cedc397438&#45;&gt;Node0x55cedc3980b8</title>
<path fill="none" stroke="#7fb2ff" d="M1603.11,-1719.09C1623.9,-1713.64 1643.74,-1704.89 1660,-1691.1 1701.49,-1655.91 1663.24,-1617.53 1696,-1574.1 1721.08,-1540.85 1759.58,-1514.89 1793.19,-1497.72"/>
<polygon fill="#7fb2ff" stroke="#7fb2ff" points="1795.11,-1500.67 1802.53,-1493.11 1792.01,-1494.4 1795.11,-1500.67"/>
</g>
<!-- Node0x55cedc399378 -->
<g id="node3" class="node">
<title>Node0x55cedc399378</title>
<polygon fill="#7fb2ff" stroke="black" points="2000,-1899.1 1726,-1899.1 1726,-1863.1 2000,-1863.1 2000,-1899.1"/>
<text text-anchor="middle" x="1863" y="-1877.4" font-family="Times,serif" font-size="14.00">{lib/libLLVMMC.a(MCDwarf.cpp.o)}</text>
</g>
<!-- Node0x55cedc397438&#45;&gt;Node0x55cedc399378 -->
<g id="edge2" class="edge">
<title>Node0x55cedc397438&#45;&gt;Node0x55cedc399378</title>
<path fill="none" stroke="#7fb2ff" d="M1496.67,-1745.26C1541.45,-1771.73 1621.02,-1819.59 1696,-1845.1 1716.38,-1852.03 1738.78,-1857.21 1760.36,-1861.28"/>
<polygon fill="#7fb2ff" stroke="#7fb2ff" points="1759.73,-1864.73 1770.2,-1863.08 1760.99,-1857.84 1759.73,-1864.73"/>
</g>
<!-- Node0x55cedc397ca8 -->
<g id="node4" class="node">
<title>Node0x55cedc397ca8</title>
<polygon fill="#7fb2ff" stroke="black" points="1995,-1439.1 1731,-1439.1 1731,-1403.1 1995,-1403.1 1995,-1439.1"/>
<text text-anchor="middle" x="1863" y="-1417.4" font-family="Times,serif" font-size="14.00">{lib/libLLVMMC.a(MCExpr.cpp.o)}</text>
</g>
<!-- Node0x55cedc397438&#45;&gt;Node0x55cedc397ca8 -->
<g id="edge3" class="edge">
<title>Node0x55cedc397438&#45;&gt;Node0x55cedc397ca8</title>
<path fill="none" stroke="#7fb2ff" d="M1603.05,-1721.78C1624.35,-1716.12 1644.37,-1706.61 1660,-1691.1 1740.29,-1611.39 1616.78,-1519.87 1696,-1439.1 1703.44,-1431.52 1712.11,-1425.54 1721.52,-1420.9"/>
<polygon fill="#7fb2ff" stroke="#7fb2ff" points="1723,-1424.07 1730.76,-1416.85 1720.19,-1417.66 1723,-1424.07"/>
</g>
<!-- Node0x55cedc3975c8 -->
<g id="node5" class="node">
<title>Node0x55cedc3975c8</title>
<polygon fill="#7fb2ff" stroke="black" points="2014,-1331.1 1712,-1331.1 1712,-1295.1 2014,-1295.1 2014,-1331.1"/>
<text text-anchor="middle" x="1863" y="-1309.4" font-family="Times,serif" font-size="14.00">{lib/libLLVMMC.a(MCFragment.cpp.o)}</text>
</g>
<!-- Node0x55cedc397438&#45;&gt;Node0x55cedc3975c8 -->
<g id="edge4" class="edge">
<title>Node0x55cedc397438&#45;&gt;Node0x55cedc3975c8</title>
<path fill="none" stroke="#7fb2ff" d="M1603.11,-1722.48C1624.54,-1716.77 1644.58,-1707.06 1660,-1691.1 1715.85,-1633.26 1640.93,-1389.67 1696,-1331.1 1698.48,-1328.46 1701.1,-1326.02 1703.85,-1323.76"/>
<polygon fill="#7fb2ff" stroke="#7fb2ff" points="1705.92,-1326.58 1711.93,-1317.86 1701.79,-1320.93 1705.92,-1326.58"/>
</g>
<!-- Node0x55cedc37ce58 -->
<g id="node6" class="node">
<title>Node0x55cedc37ce58</title>
<polygon fill="#7fb2ff" stroke="black" points="2025,-1661.1 1701,-1661.1 1701,-1625.1 2025,-1625.1 2025,-1661.1"/>
<text text-anchor="middle" x="1863" y="-1639.4" font-family="Times,serif" font-size="14.00">{lib/libLLVMMC.a(MCPseudoProbe.cpp.o)}</text>
</g>
<!-- Node0x55cedc397438&#45;&gt;Node0x55cedc37ce58 -->
<g id="edge5" class="edge">
<title>Node0x55cedc397438&#45;&gt;Node0x55cedc37ce58</title>
<path fill="none" stroke="#7fb2ff" d="M1603.14,-1710.28C1622.32,-1707.29 1641.69,-1703.9 1660,-1700.1 1706.05,-1690.53 1757.01,-1676.13 1796.22,-1664.19"/>
<polygon fill="#7fb2ff" stroke="#7fb2ff" points="1797.39,-1667.49 1805.93,-1661.21 1795.34,-1660.8 1797.39,-1667.49"/>
</g>
<!-- Node0x55cedc3832a8 -->
<g id="node7" class="node">
<title>Node0x55cedc3832a8</title>
<polygon fill="#7fb2ff" stroke="black" points="2005,-1791.1 1721,-1791.1 1721,-1755.1 2005,-1755.1 2005,-1791.1"/>
<text text-anchor="middle" x="1863" y="-1769.4" font-family="Times,serif" font-size="14.00">{lib/libLLVMMC.a(MCSection.cpp.o)}</text>
</g>
<!-- Node0x55cedc397438&#45;&gt;Node0x55cedc3832a8 -->
<g id="edge6" class="edge">
<title>Node0x55cedc397438&#45;&gt;Node0x55cedc3832a8</title>
<path fill="none" stroke="#7fb2ff" d="M1603.18,-1736.95C1650.44,-1741.94 1702.39,-1748 1747.26,-1753.79"/>
<polygon fill="#7fb2ff" stroke="#7fb2ff" points="1746.95,-1757.27 1757.32,-1755.09 1747.85,-1750.33 1746.95,-1757.27"/>
</g>
<!-- Node0x55cedc384978 -->
<g id="node8" class="node">
<title>Node0x55cedc384978</title>
<polygon fill="#7fb2ff" stroke="black" points="2030,-1991.1 1696,-1991.1 1696,-1955.1 2030,-1955.1 2030,-1991.1"/>
<text text-anchor="middle" x="1863" y="-1969.4" font-family="Times,serif" font-size="14.00">{lib/libLLVMMC.a(MCSectionMachO.cpp.o)}</text>
</g>
<!-- Node0x55cedc397438&#45;&gt;Node0x55cedc384978 -->
<g id="edge7" class="edge">
<title>Node0x55cedc397438&#45;&gt;Node0x55cedc384978</title>
<path fill="none" stroke="#7fb2ff" d="M1486.96,-1745.16C1527.08,-1773.29 1604.5,-1830.55 1660,-1890.1 1678.92,-1910.39 1672.69,-1926.05 1696,-1941.1 1701.72,-1944.79 1707.76,-1948.07 1714.02,-1950.99"/>
<polygon fill="#7fb2ff" stroke="#7fb2ff" points="1712.77,-1954.27 1723.34,-1955.02 1715.55,-1947.84 1712.77,-1954.27"/>
</g>
<!-- Node0x55cedc386f48 -->
<g id="node9" class="node">
<title>Node0x55cedc386f48</title>
<polygon fill="#7fb2ff" stroke="black" points="2029.5,-1845.1 1696.5,-1845.1 1696.5,-1809.1 2029.5,-1809.1 2029.5,-1845.1"/>
<text text-anchor="middle" x="1863" y="-1823.4" font-family="Times,serif" font-size="14.00">{lib/libLLVMMC.a(MCSectionXCOFF.cpp.o)}</text>
</g>
<!-- Node0x55cedc397438&#45;&gt;Node0x55cedc386f48 -->
<g id="edge8" class="edge">
<title>Node0x55cedc397438&#45;&gt;Node0x55cedc386f48</title>
<path fill="none" stroke="#7fb2ff" d="M1511.39,-1745.13C1558.7,-1761.35 1631.41,-1784.91 1696,-1800.1 1706.66,-1802.6 1717.76,-1804.96 1728.95,-1807.14"/>
<polygon fill="#7fb2ff" stroke="#7fb2ff" points="1728.31,-1810.59 1738.79,-1809.03 1729.62,-1803.71 1728.31,-1810.59"/>
</g>
<!-- Node0x55cedc383258 -->
<g id="node10" class="node">
<title>Node0x55cedc383258</title>
<polygon fill="#7fb2ff" stroke="black" points="2005,-1385.1 1721,-1385.1 1721,-1349.1 2005,-1349.1 2005,-1385.1"/>
<text text-anchor="middle" x="1863" y="-1363.4" font-family="Times,serif" font-size="14.00">{lib/libLLVMMC.a(MCSymbol.cpp.o)}</text>
</g>
<!-- Node0x55cedc397438&#45;&gt;Node0x55cedc383258 -->
<g id="edge9" class="edge">
<title>Node0x55cedc397438&#45;&gt;Node0x55cedc383258</title>
<path fill="none" stroke="#7fb2ff" d="M1603.13,-1731.04C1624.49,-1725.49 1644.5,-1715.86 1660,-1700.1 1755.98,-1602.43 1601.33,-1493.04 1696,-1394.1 1700.81,-1389.07 1706.17,-1384.74 1711.93,-1381.02"/>
<polygon fill="#7fb2ff" stroke="#7fb2ff" points="1713.72,-1384.04 1720.64,-1376.02 1710.23,-1377.97 1713.72,-1384.04"/>
</g>
<!-- Node0x55cedc3856e8 -->
<g id="node11" class="node">
<title>Node0x55cedc3856e8</title>
<polygon fill="#7fb2ff" stroke="black" points="2018.5,-2045.1 1707.5,-2045.1 1707.5,-2009.1 2018.5,-2009.1 2018.5,-2045.1"/>
<text text-anchor="middle" x="1863" y="-2023.4" font-family="Times,serif" font-size="14.00">{lib/libLLVMMC.a(MCSymbolELF.cpp.o)}</text>
</g>
<!-- Node0x55cedc397438&#45;&gt;Node0x55cedc3856e8 -->
<g id="edge10" class="edge">
<title>Node0x55cedc397438&#45;&gt;Node0x55cedc3856e8</title>
<path fill="none" stroke="#7fb2ff" d="M1492.61,-1745.21C1536.56,-1771.58 1615.11,-1824.62 1660,-1890.1 1689.09,-1932.52 1656.92,-1966.65 1696,-2000.1 1697.18,-2001.11 1698.38,-2002.08 1699.6,-2003.03"/>
<polygon fill="#7fb2ff" stroke="#7fb2ff" points="1697.76,-2006.02 1707.96,-2008.88 1701.77,-2000.28 1697.76,-2006.02"/>
</g>
<!-- Node0x55cedc384f18 -->
<g id="node12" class="node">
<title>Node0x55cedc384f18</title>
<polygon fill="none" stroke="black" points="2029.5,-2541.1 1696.5,-2541.1 1696.5,-2505.1 2029.5,-2505.1 2029.5,-2541.1"/>
<text text-anchor="middle" x="1863" y="-2519.4" font-family="Times,serif" font-size="14.00">{lib/libLLVMMC.a(MCSymbolXCOFF.cpp.o)}</text>
</g>
<!-- Node0x55cedc397438&#45;&gt;Node0x55cedc384f18 -->
<g id="edge11" class="edge">
<title>Node0x55cedc397438&#45;&gt;Node0x55cedc384f18</title>
<path fill="none" stroke="black" d="M1469.64,-1745.22C1522.14,-1849.31 1785.2,-2370.83 1848.35,-2496.04"/>
<polygon fill="black" stroke="black" points="1845.25,-2497.65 1852.87,-2505 1851.5,-2494.5 1845.25,-2497.65"/>
</g>
<!-- Node0x55cedc3980b8&#45;&gt;Node0x55cedc397438 -->
<g id="edge86" class="edge">
<title>Node0x55cedc3980b8&#45;&gt;Node0x55cedc397438</title>
<path fill="none" stroke="#7fb2ff" d="M1831.94,-1493.21C1794.67,-1512.17 1731.72,-1544.75 1696,-1592.1 1663.24,-1635.53 1701.49,-1673.91 1660,-1709.1 1646.28,-1720.73 1630.01,-1728.78 1612.78,-1734.14"/>
<polygon fill="#7fb2ff" stroke="#7fb2ff" points="1611.8,-1730.78 1603.11,-1736.85 1613.69,-1737.52 1611.8,-1730.78"/>
</g>
<!-- Node0x55cedc3980b8&#45;&gt;Node0x55cedc397ca8 -->
<g id="edge87" class="edge">
<title>Node0x55cedc3980b8&#45;&gt;Node0x55cedc397ca8</title>
<path fill="none" stroke="#7fb2ff" d="M1863,-1456.89C1863,-1454.41 1863,-1451.92 1863,-1449.44"/>
<polygon fill="#7fb2ff" stroke="#7fb2ff" points="1866.5,-1449.24 1863,-1439.24 1859.5,-1449.24 1866.5,-1449.24"/>
</g>
<!-- Node0x55cedc3980b8&#45;&gt;Node0x55cedc3975c8 -->
<g id="edge88" class="edge">
<title>Node0x55cedc3980b8&#45;&gt;Node0x55cedc3975c8</title>
<path fill="none" stroke="#7fb2ff" d="M1712.7,-1469.51C1698.65,-1462.67 1686.52,-1452.88 1678,-1439.1 1656.97,-1405.07 1656.97,-1383.12 1678,-1349.1 1684.45,-1338.66 1692.99,-1330.5 1702.85,-1324.19"/>
<polygon fill="#7fb2ff" stroke="#7fb2ff" points="1704.87,-1327.07 1711.85,-1319.1 1701.42,-1320.98 1704.87,-1327.07"/>
</g>
<!-- Node0x55cedc3841a8 -->
<g id="node18" class="node">
<title>Node0x55cedc3841a8</title>
<polygon fill="#7fb2ff" stroke="black" points="2747,-1684.1 2450,-1684.1 2450,-1648.1 2747,-1648.1 2747,-1684.1"/>
<text text-anchor="middle" x="2598.5" y="-1662.4" font-family="Times,serif" font-size="14.00">{lib/libLLVMMC.a(MCStreamer.cpp.o)}</text>
</g>
<!-- Node0x55cedc3980b8&#45;&gt;Node0x55cedc3841a8 -->
<g id="edge90" class="edge">
<title>Node0x55cedc3980b8&#45;&gt;Node0x55cedc3841a8</title>
<path fill="none" stroke="#7fb2ff" d="M2009.05,-1493.13C2016.15,-1494.74 2023.16,-1496.4 2030,-1498.1 2046.24,-1502.13 2049.76,-1505.07 2066,-1509.1 2217.1,-1546.56 2261.32,-1528.96 2410,-1575.1 2466.46,-1592.62 2528.74,-1622.01 2565.42,-1642.9"/>
<polygon fill="#7fb2ff" stroke="#7fb2ff" points="2563.78,-1646 2574.18,-1648.02 2567.31,-1639.95 2563.78,-1646"/>
</g>
<!-- Node0x55cedc37dc68 -->
<g id="node31" class="node">
<title>Node0x55cedc37dc68</title>
<polygon fill="#7fb2ff" stroke="black" points="2410,-1629.1 2066,-1629.1 2066,-1593.1 2410,-1593.1 2410,-1629.1"/>
<text text-anchor="middle" x="2238" y="-1607.4" font-family="Times,serif" font-size="14.00">{lib/libLLVMMC.a(MCObjectStreamer.cpp.o)}</text>
</g>
<!-- Node0x55cedc3980b8&#45;&gt;Node0x55cedc37dc68 -->
<g id="edge89" class="edge">
<title>Node0x55cedc3980b8&#45;&gt;Node0x55cedc37dc68</title>
<path fill="none" stroke="#7fb2ff" d="M2013.25,-1487.45C2019.12,-1490.57 2024.74,-1494.11 2030,-1498.1 2058.51,-1519.71 2037.43,-1548.56 2066,-1570.1 2077.06,-1578.44 2089.65,-1584.82 2102.86,-1589.72"/>
<polygon fill="#7fb2ff" stroke="#7fb2ff" points="2101.98,-1593.12 2112.58,-1593.04 2104.24,-1586.5 2101.98,-1593.12"/>
</g>
<!-- Node0x55cedc399378&#45;&gt;Node0x55cedc397438 -->
<g id="edge92" class="edge">
<title>Node0x55cedc399378&#45;&gt;Node0x55cedc397438</title>
<path fill="none" stroke="#7fb2ff" d="M1725.65,-1871.7C1715.52,-1869.2 1705.54,-1866.34 1696,-1863.1 1615.57,-1835.74 1529.86,-1782.64 1487.47,-1751.27"/>
<polygon fill="#7fb2ff" stroke="#7fb2ff" points="1489.42,-1748.36 1479.34,-1745.12 1485.19,-1753.94 1489.42,-1748.36"/>
</g>
<!-- Node0x55cedc399378&#45;&gt;Node0x55cedc397ca8 -->
<g id="edge93" class="edge">
<title>Node0x55cedc399378&#45;&gt;Node0x55cedc397ca8</title>
<path fill="none" stroke="#7fb2ff" d="M1725.94,-1880.94C1706.34,-1874.24 1689.1,-1863.05 1678,-1845.1 1655.34,-1808.42 1655.34,-1493.77 1678,-1457.1 1688.09,-1440.78 1703.26,-1430.04 1720.66,-1423.19"/>
<polygon fill="#7fb2ff" stroke="#7fb2ff" points="1722.23,-1426.35 1730.54,-1419.78 1719.94,-1419.74 1722.23,-1426.35"/>
</g>
<!-- Node0x55cedc399378&#45;&gt;Node0x55cedc3832a8 -->
<g id="edge96" class="edge">
<title>Node0x55cedc399378&#45;&gt;Node0x55cedc3832a8</title>
<path fill="none" stroke="#7fb2ff" d="M1728.61,-1863.05C1717.48,-1860.45 1706.48,-1857.48 1696,-1854.1 1687.49,-1851.35 1682.7,-1852.71 1678,-1845.1 1669.59,-1831.49 1669.59,-1822.71 1678,-1809.1 1686.33,-1795.63 1698.12,-1785.96 1711.76,-1779.15"/>
<polygon fill="#7fb2ff" stroke="#7fb2ff" points="1713.25,-1782.32 1720.98,-1775.07 1710.42,-1775.91 1713.25,-1782.32"/>
</g>
<!-- Node0x55cedc399378&#45;&gt;Node0x55cedc3841a8 -->
<g id="edge97" class="edge">
<title>Node0x55cedc399378&#45;&gt;Node0x55cedc3841a8</title>
<path fill="none" stroke="#7fb2ff" d="M1952.86,-1899.22C1980.89,-1908.92 2009.79,-1923.69 2030,-1946.1 2070.15,-1990.62 2018.28,-2039.8 2066,-2076.1 2187.68,-2168.66 2281.36,-2158.72 2410,-2076.1 2547.12,-1988.03 2585.22,-1772.01 2594.67,-1694.42"/>
<polygon fill="#7fb2ff" stroke="#7fb2ff" points="2598.16,-1694.76 2595.82,-1684.42 2591.2,-1693.96 2598.16,-1694.76"/>
</g>
<!-- Node0x55cedc384298 -->
<g id="node19" class="node">
<title>Node0x55cedc384298</title>
<polygon fill="none" stroke="black" points="3107,-2891.1 2787,-2891.1 2787,-2855.1 3107,-2855.1 3107,-2891.1"/>
<text text-anchor="middle" x="2947" y="-2869.4" font-family="Times,serif" font-size="14.00">{lib/libLLVMMC.a(MCRegisterInfo.cpp.o)}</text>
</g>
<!-- Node0x55cedc399378&#45;&gt;Node0x55cedc384298 -->
<g id="edge95" class="edge">
<title>Node0x55cedc399378&#45;&gt;Node0x55cedc384298</title>
<path fill="none" stroke="black" d="M1955.93,-1899.18C1983.34,-1908.84 2011.08,-1923.59 2030,-1946.1 2081.66,-2007.54 2021.07,-2056.57 2066,-2123.1 2168.53,-2274.89 2267.36,-2235.17 2410,-2350.1 2624.36,-2522.81 2850.78,-2767.58 2922.69,-2847.08"/>
<polygon fill="black" stroke="black" points="2920.24,-2849.6 2929.54,-2854.68 2925.44,-2844.91 2920.24,-2849.6"/>
</g>
<!-- Node0x55cedc399378&#45;&gt;Node0x55cedc37dc68 -->
<g id="edge94" class="edge">
<title>Node0x55cedc399378&#45;&gt;Node0x55cedc37dc68</title>
<path fill="none" stroke="#7fb2ff" d="M2000.4,-1863.4C2011.16,-1858.79 2021.24,-1852.82 2030,-1845.1 2072.41,-1807.71 2033.11,-1769.08 2066,-1723.1 2093.7,-1684.38 2137.78,-1653.62 2174.25,-1634"/>
<polygon fill="#7fb2ff" stroke="#7fb2ff" points="2176.1,-1636.99 2183.35,-1629.26 2172.86,-1630.78 2176.1,-1636.99"/>
</g>
<!-- Node0x55cedc380b98 -->
<g id="node38" class="node">
<title>Node0x55cedc380b98</title>
<polygon fill="none" stroke="black" points="2408.5,-2395.1 2067.5,-2395.1 2067.5,-2359.1 2408.5,-2359.1 2408.5,-2395.1"/>
<text text-anchor="middle" x="2238" y="-2373.4" font-family="Times,serif" font-size="14.00">{lib/libLLVMMC.a(StringTableBuilder.cpp.o)}</text>
</g>
<!-- Node0x55cedc399378&#45;&gt;Node0x55cedc380b98 -->
<g id="edge98" class="edge">
<title>Node0x55cedc399378&#45;&gt;Node0x55cedc380b98</title>
<path fill="none" stroke="black" d="M1959.64,-1899.22C1986.24,-1908.85 2012.58,-1923.58 2030,-1946.1 2112.18,-2052.31 1999.48,-2129.44 2066,-2246.1 2094.1,-2295.37 2148.94,-2332.25 2188.96,-2354.12"/>
<polygon fill="black" stroke="black" points="2187.55,-2357.33 2198.02,-2358.95 2190.85,-2351.16 2187.55,-2357.33"/>
</g>
<!-- Node0x55cedc397ca8&#45;&gt;Node0x55cedc397438 -->
<g id="edge13" class="edge">
<title>Node0x55cedc397ca8&#45;&gt;Node0x55cedc397438</title>
<path fill="none" stroke="#7fb2ff" d="M1730.76,-1434.73C1717.78,-1439.89 1705.81,-1447.09 1696,-1457.1 1616.78,-1537.87 1740.29,-1629.39 1660,-1709.1 1630.79,-1738.09 1586.25,-1746.12 1546.65,-1745.47"/>
<polygon fill="#7fb2ff" stroke="#7fb2ff" points="1546.55,-1741.97 1536.44,-1745.11 1546.31,-1748.96 1546.55,-1741.97"/>
</g>
<!-- Node0x55cedc397ca8&#45;&gt;Node0x55cedc3975c8 -->
<g id="edge14" class="edge">
<title>Node0x55cedc397ca8&#45;&gt;Node0x55cedc3975c8</title>
<path fill="none" stroke="#7fb2ff" d="M1730.79,-1422.58C1711.65,-1416.3 1694.8,-1405.57 1684,-1388.1 1674.19,-1372.22 1674.19,-1361.98 1684,-1346.1 1689.19,-1337.71 1695.77,-1330.87 1703.33,-1325.34"/>
<polygon fill="#7fb2ff" stroke="#7fb2ff" points="1705.37,-1328.18 1711.89,-1319.83 1701.59,-1322.3 1705.37,-1328.18"/>
</g>
<!-- Node0x55cedc397ca8&#45;&gt;Node0x55cedc383258 -->
<g id="edge16" class="edge">
<title>Node0x55cedc397ca8&#45;&gt;Node0x55cedc383258</title>
<path fill="none" stroke="#7fb2ff" d="M1863,-1402.89C1863,-1400.41 1863,-1397.92 1863,-1395.44"/>
<polygon fill="#7fb2ff" stroke="#7fb2ff" points="1866.5,-1395.24 1863,-1385.24 1859.5,-1395.24 1866.5,-1395.24"/>
</g>
<!-- Node0x55cedc398fb8 -->
<g id="node13" class="node">
<title>Node0x55cedc398fb8</title>
<polygon fill="#7fb2ff" stroke="black" points="2751,-1388.1 2446,-1388.1 2446,-1352.1 2751,-1352.1 2751,-1388.1"/>
<text text-anchor="middle" x="2598.5" y="-1366.4" font-family="Times,serif" font-size="14.00">{lib/libLLVMMC.a(MCAssembler.cpp.o)}</text>
</g>
<!-- Node0x55cedc397ca8&#45;&gt;Node0x55cedc398fb8 -->
<g id="edge12" class="edge">
<title>Node0x55cedc397ca8&#45;&gt;Node0x55cedc398fb8</title>
<path fill="none" stroke="#7fb2ff" d="M1964.13,-1403.09C1996.61,-1399.71 2032.82,-1396.61 2066,-1394.1 2190.03,-1384.72 2330.48,-1376.09 2435.85,-1371.31"/>
<polygon fill="#7fb2ff" stroke="#7fb2ff" points="2436.1,-1374.8 2445.93,-1370.86 2435.79,-1367.81 2436.1,-1374.8"/>
</g>
<!-- Node0x55cedc37dfd8 -->
<g id="node14" class="node">
<title>Node0x55cedc37dfd8</title>
<polygon fill="#7fb2ff" stroke="black" points="2399,-1481.1 2077,-1481.1 2077,-1445.1 2399,-1445.1 2399,-1481.1"/>
<text text-anchor="middle" x="2238" y="-1459.4" font-family="Times,serif" font-size="14.00">{lib/libLLVMMC.a(MCObjectWriter.cpp.o)}</text>
</g>
<!-- Node0x55cedc397ca8&#45;&gt;Node0x55cedc37dfd8 -->
<g id="edge15" class="edge">
<title>Node0x55cedc397ca8&#45;&gt;Node0x55cedc37dfd8</title>
<path fill="none" stroke="#7fb2ff" d="M1995.24,-1429.4C2036.45,-1433.62 2081.6,-1438.77 2121.62,-1443.81"/>
<polygon fill="#7fb2ff" stroke="#7fb2ff" points="2121.32,-1447.3 2131.68,-1445.09 2122.2,-1440.36 2121.32,-1447.3"/>
</g>
<!-- Node0x55cedc3975c8&#45;&gt;Node0x55cedc397438 -->
<g id="edge41" class="edge">
<title>Node0x55cedc3975c8&#45;&gt;Node0x55cedc397438</title>
<path fill="none" stroke="#7fb2ff" d="M1719.73,-1331.25C1710.96,-1335.91 1702.9,-1341.76 1696,-1349.1 1640.93,-1407.67 1715.85,-1651.26 1660,-1709.1 1629.72,-1740.45 1581.59,-1747.67 1540.2,-1745.78"/>
<polygon fill="#7fb2ff" stroke="#7fb2ff" points="1540.31,-1742.28 1530.11,-1745.13 1539.86,-1749.26 1540.31,-1742.28"/>
</g>
<!-- Node0x55cedc3975c8&#45;&gt;Node0x55cedc397ca8 -->
<g id="edge42" class="edge">
<title>Node0x55cedc3975c8&#45;&gt;Node0x55cedc397ca8</title>
<path fill="none" stroke="#7fb2ff" d="M1711.86,-1318.59C1695.66,-1325.83 1681.61,-1336.55 1672,-1352.1 1652.65,-1383.4 1680.84,-1400.65 1721.01,-1410.1"/>
<polygon fill="#7fb2ff" stroke="#7fb2ff" points="1720.37,-1413.54 1730.88,-1412.23 1721.84,-1406.7 1720.37,-1413.54"/>
</g>
<!-- Node0x55cedc3975c8&#45;&gt;Node0x55cedc398fb8 -->
<g id="edge40" class="edge">
<title>Node0x55cedc3975c8&#45;&gt;Node0x55cedc398fb8</title>
<path fill="none" stroke="#7fb2ff" d="M1913,-1295.09C2009.56,-1267.79 2230.64,-1224.65 2410,-1267.1 2471.74,-1281.71 2536.29,-1319.97 2571.23,-1345.76"/>
<polygon fill="#7fb2ff" stroke="#7fb2ff" points="2569.38,-1348.75 2579.46,-1352.03 2573.62,-1343.19 2569.38,-1348.75"/>
</g>
<!-- Node0x55cedc37ce58&#45;&gt;Node0x55cedc397ca8 -->
<g id="edge163" class="edge">
<title>Node0x55cedc37ce58&#45;&gt;Node0x55cedc397ca8</title>
<path fill="none" stroke="#7fb2ff" d="M1700.96,-1626.09C1691.91,-1619.77 1684.05,-1611.89 1678,-1602.1 1661.06,-1574.69 1661.06,-1484.51 1678,-1457.1 1688.09,-1440.78 1703.26,-1430.04 1720.66,-1423.19"/>
<polygon fill="#7fb2ff" stroke="#7fb2ff" points="1722.23,-1426.35 1730.54,-1419.78 1719.94,-1419.74 1722.23,-1426.35"/>
</g>
<!-- Node0x55cedc37ce58&#45;&gt;Node0x55cedc3975c8 -->
<g id="edge164" class="edge">
<title>Node0x55cedc37ce58&#45;&gt;Node0x55cedc3975c8</title>
<path fill="none" stroke="#7fb2ff" d="M1700.96,-1626.09C1691.91,-1619.77 1684.05,-1611.89 1678,-1602.1 1663.22,-1578.18 1663.22,-1373.01 1678,-1349.1 1684.45,-1338.66 1692.99,-1330.5 1702.85,-1324.19"/>
<polygon fill="#7fb2ff" stroke="#7fb2ff" points="1704.87,-1327.07 1711.85,-1319.1 1701.42,-1320.98 1704.87,-1327.07"/>
</g>
<!-- Node0x55cedc37ce58&#45;&gt;Node0x55cedc3841a8 -->
<g id="edge167" class="edge">
<title>Node0x55cedc37ce58&#45;&gt;Node0x55cedc3841a8</title>
<path fill="none" stroke="#7fb2ff" d="M2025.42,-1642.45C2148.61,-1644.91 2317.39,-1650.22 2439.67,-1655.49"/>
<polygon fill="#7fb2ff" stroke="#7fb2ff" points="2439.73,-1658.99 2449.87,-1655.93 2440.03,-1652 2439.73,-1658.99"/>
</g>
<!-- Node0x55cedc37ce58&#45;&gt;Node0x55cedc37dc68 -->
<g id="edge166" class="edge">
<title>Node0x55cedc37ce58&#45;&gt;Node0x55cedc37dc68</title>
<path fill="none" stroke="#7fb2ff" d="M1998.13,-1625.08C2016.81,-1623.3 2036.25,-1621.56 2055.61,-1619.91"/>
<polygon fill="#7fb2ff" stroke="#7fb2ff" points="2056.05,-1623.39 2065.73,-1619.06 2055.47,-1616.41 2056.05,-1623.39"/>
</g>
<!-- Node0x55cedc37bb98 -->
<g id="node44" class="node">
<title>Node0x55cedc37bb98</title>
<polygon fill="#7fb2ff" stroke="black" points="2404,-1777.1 2072,-1777.1 2072,-1741.1 2404,-1741.1 2404,-1777.1"/>
<text text-anchor="middle" x="2238" y="-1755.4" font-family="Times,serif" font-size="14.00">{lib/libLLVMMC.a(MCObjectFileInfo.cpp.o)}</text>
</g>
<!-- Node0x55cedc37ce58&#45;&gt;Node0x55cedc37bb98 -->
<g id="edge165" class="edge">
<title>Node0x55cedc37ce58&#45;&gt;Node0x55cedc37bb98</title>
<path fill="none" stroke="#7fb2ff" d="M1922.28,-1661.22C1989.11,-1682.01 2098.51,-1716.03 2169.12,-1737.99"/>
<polygon fill="#7fb2ff" stroke="#7fb2ff" points="2168.23,-1741.38 2178.82,-1741 2170.31,-1734.69 2168.23,-1741.38"/>
</g>
<!-- Node0x55cedc3832a8&#45;&gt;Node0x55cedc397438 -->
<g id="edge159" class="edge">
<title>Node0x55cedc3832a8&#45;&gt;Node0x55cedc397438</title>
<path fill="none" stroke="#7fb2ff" d="M1720.84,-1763.4C1673.23,-1758.39 1620.69,-1752.27 1575.36,-1746.42"/>
<polygon fill="#7fb2ff" stroke="#7fb2ff" points="1575.57,-1742.92 1565.2,-1745.1 1574.67,-1749.86 1575.57,-1742.92"/>
</g>
<!-- Node0x55cedc3832a8&#45;&gt;Node0x55cedc397ca8 -->
<g id="edge160" class="edge">
<title>Node0x55cedc3832a8&#45;&gt;Node0x55cedc397ca8</title>
<path fill="none" stroke="#7fb2ff" d="M1720.63,-1766.77C1703.27,-1759.5 1688.12,-1748.47 1678,-1732.1 1661.94,-1706.11 1661.94,-1483.09 1678,-1457.1 1688.09,-1440.78 1703.26,-1430.04 1720.66,-1423.19"/>
<polygon fill="#7fb2ff" stroke="#7fb2ff" points="1722.23,-1426.35 1730.54,-1419.78 1719.94,-1419.74 1722.23,-1426.35"/>
</g>
<!-- Node0x55cedc3832a8&#45;&gt;Node0x55cedc3975c8 -->
<g id="edge161" class="edge">
<title>Node0x55cedc3832a8&#45;&gt;Node0x55cedc3975c8</title>
<path fill="none" stroke="#7fb2ff" d="M1720.63,-1766.77C1703.27,-1759.5 1688.12,-1748.47 1678,-1732.1 1655.63,-1695.9 1655.63,-1385.3 1678,-1349.1 1684.45,-1338.66 1692.99,-1330.5 1702.85,-1324.19"/>
<polygon fill="#7fb2ff" stroke="#7fb2ff" points="1704.87,-1327.07 1711.85,-1319.1 1701.42,-1320.98 1704.87,-1327.07"/>
</g>
<!-- Node0x55cedc3832a8&#45;&gt;Node0x55cedc383258 -->
<g id="edge162" class="edge">
<title>Node0x55cedc3832a8&#45;&gt;Node0x55cedc383258</title>
<path fill="none" stroke="#7fb2ff" d="M1720.63,-1766.77C1703.27,-1759.5 1688.12,-1748.47 1678,-1732.1 1658.78,-1701 1658.78,-1434.19 1678,-1403.1 1686.33,-1389.63 1698.12,-1379.96 1711.76,-1373.15"/>
<polygon fill="#7fb2ff" stroke="#7fb2ff" points="1713.25,-1376.32 1720.98,-1369.07 1710.42,-1369.91 1713.25,-1376.32"/>
</g>
<!-- Node0x55cedc384978&#45;&gt;Node0x55cedc3832a8 -->
<g id="edge137" class="edge">
<title>Node0x55cedc384978&#45;&gt;Node0x55cedc3832a8</title>
<path fill="none" stroke="#7fb2ff" d="M1699.42,-1954.99C1691.02,-1948.87 1683.71,-1941.33 1678,-1932.1 1663.63,-1908.85 1663.63,-1832.35 1678,-1809.1 1686.33,-1795.63 1698.12,-1785.96 1711.76,-1779.15"/>
<polygon fill="#7fb2ff" stroke="#7fb2ff" points="1713.25,-1782.32 1720.98,-1775.07 1710.42,-1775.91 1713.25,-1782.32"/>
</g>
<!-- Node0x55cedc386f48&#45;&gt;Node0x55cedc3832a8 -->
<g id="edge168" class="edge">
<title>Node0x55cedc386f48&#45;&gt;Node0x55cedc3832a8</title>
<path fill="none" stroke="#7fb2ff" d="M1863,-1808.89C1863,-1806.41 1863,-1803.92 1863,-1801.44"/>
<polygon fill="#7fb2ff" stroke="#7fb2ff" points="1866.5,-1801.24 1863,-1791.24 1859.5,-1801.24 1866.5,-1801.24"/>
</g>
<!-- Node0x55cedc383258&#45;&gt;Node0x55cedc3975c8 -->
<g id="edge26" class="edge">
<title>Node0x55cedc383258&#45;&gt;Node0x55cedc3975c8</title>
<path fill="none" stroke="#7fb2ff" d="M1863,-1348.89C1863,-1346.41 1863,-1343.92 1863,-1341.44"/>
<polygon fill="#7fb2ff" stroke="#7fb2ff" points="1866.5,-1341.24 1863,-1331.24 1859.5,-1341.24 1866.5,-1341.24"/>
</g>
<!-- Node0x55cedc3856e8&#45;&gt;Node0x55cedc397ca8 -->
<g id="edge158" class="edge">
<title>Node0x55cedc3856e8&#45;&gt;Node0x55cedc397ca8</title>
<path fill="none" stroke="#7fb2ff" d="M1707.27,-2018.66C1695.53,-2012.03 1685.4,-2003.07 1678,-1991.1 1662.4,-1965.86 1662.4,-1482.33 1678,-1457.1 1688.09,-1440.78 1703.26,-1430.04 1720.66,-1423.19"/>
<polygon fill="#7fb2ff" stroke="#7fb2ff" points="1722.23,-1426.35 1730.54,-1419.78 1719.94,-1419.74 1722.23,-1426.35"/>
</g>
<!-- Node0x55cedc398fb8&#45;&gt;Node0x55cedc397438 -->
<g id="edge35" class="edge">
<title>Node0x55cedc398fb8&#45;&gt;Node0x55cedc397438</title>
<path fill="none" stroke="#7fb2ff" d="M2576.86,-1352.01C2544.17,-1324.69 2477.25,-1274.08 2410,-1255.1 2104.31,-1168.82 1920.95,-1061.85 1696,-1286.1 1630.6,-1351.29 1723.72,-1633.26 1660,-1700.1 1647.03,-1713.7 1630.7,-1722.79 1613,-1728.64"/>
<polygon fill="#7fb2ff" stroke="#7fb2ff" points="1611.64,-1725.39 1603.04,-1731.57 1613.62,-1732.11 1611.64,-1725.39"/>
</g>
<!-- Node0x55cedc398fb8&#45;&gt;Node0x55cedc3980b8 -->
<g id="edge34" class="edge">
<title>Node0x55cedc398fb8&#45;&gt;Node0x55cedc3980b8</title>
<path fill="none" stroke="#7fb2ff" d="M2577.81,-1388.26C2545.62,-1416.58 2478.44,-1470.07 2410,-1490.1 2256.88,-1534.9 2069.19,-1514.33 1958.51,-1494.97"/>
<polygon fill="#7fb2ff" stroke="#7fb2ff" points="1958.83,-1491.47 1948.37,-1493.16 1957.6,-1498.36 1958.83,-1491.47"/>
</g>
<!-- Node0x55cedc398fb8&#45;&gt;Node0x55cedc399378 -->
<g id="edge36" class="edge">
<title>Node0x55cedc398fb8&#45;&gt;Node0x55cedc399378</title>
<path fill="none" stroke="#7fb2ff" d="M2585.01,-1388.14C2556.42,-1430.22 2485.61,-1538.91 2446,-1639.1 2421.27,-1701.65 2460.24,-1741.37 2410,-1786.1 2352.46,-1837.33 2137.95,-1801.55 2066,-1829.1 2047.81,-1836.06 2048.06,-1846.8 2030,-1854.1 2023.63,-1856.67 2017.04,-1859 2010.31,-1861.11"/>
<polygon fill="#7fb2ff" stroke="#7fb2ff" points="2008.96,-1857.85 2000.36,-1864.04 2010.94,-1864.57 2008.96,-1857.85"/>
</g>
<!-- Node0x55cedc398fb8&#45;&gt;Node0x55cedc397ca8 -->
<g id="edge37" class="edge">
<title>Node0x55cedc398fb8&#45;&gt;Node0x55cedc397ca8</title>
<path fill="none" stroke="#7fb2ff" d="M2445.93,-1385.99C2339.56,-1393.53 2194.03,-1402.42 2066,-1412.1 2046.31,-1413.59 2025.56,-1415.29 2005.15,-1416.94"/>
<polygon fill="#7fb2ff" stroke="#7fb2ff" points="2004.85,-1413.45 1995.16,-1417.74 2005.41,-1420.43 2004.85,-1413.45"/>
</g>
<!-- Node0x55cedc398fb8&#45;&gt;Node0x55cedc3975c8 -->
<g id="edge38" class="edge">
<title>Node0x55cedc398fb8&#45;&gt;Node0x55cedc3975c8</title>
<path fill="none" stroke="#7fb2ff" d="M2560.72,-1352.03C2524.29,-1331.05 2465.99,-1298.35 2410,-1285.1 2262.48,-1250.19 2086.74,-1273.17 1975.27,-1293.26"/>
<polygon fill="#7fb2ff" stroke="#7fb2ff" points="1974.57,-1289.83 1965.36,-1295.07 1975.82,-1296.72 1974.57,-1289.83"/>
</g>
<!-- Node0x55cedc398fb8&#45;&gt;Node0x55cedc383258 -->
<g id="edge39" class="edge">
<title>Node0x55cedc398fb8&#45;&gt;Node0x55cedc383258</title>
<path fill="none" stroke="#7fb2ff" d="M2554.88,-1351.96C2517.48,-1337.09 2461.22,-1317.22 2410,-1309.1 2259,-1285.15 2209.33,-1255.89 2066,-1309.1 2046.21,-1316.45 2049.14,-1331.18 2030,-1340.1 2025.04,-1342.41 2019.91,-1344.53 2014.67,-1346.47"/>
<polygon fill="#7fb2ff" stroke="#7fb2ff" points="2013.44,-1343.19 2005.13,-1349.77 2015.73,-1349.81 2013.44,-1343.19"/>
</g>
<!-- Node0x55cedc37dfd8&#45;&gt;Node0x55cedc397ca8 -->
<g id="edge157" class="edge">
<title>Node0x55cedc37dfd8&#45;&gt;Node0x55cedc397ca8</title>
<path fill="none" stroke="#7fb2ff" d="M2076.82,-1451.75C2044.17,-1448.22 2010.43,-1444.29 1979.69,-1440.42"/>
<polygon fill="#7fb2ff" stroke="#7fb2ff" points="1979.75,-1436.9 1969.39,-1439.11 1978.87,-1443.85 1979.75,-1436.9"/>
</g>
<!-- Node0x55cedc383988 -->
<g id="node15" class="node">
<title>Node0x55cedc383988</title>
<polygon fill="none" stroke="black" points="387.5,-2964.1 56.5,-2964.1 56.5,-2928.1 387.5,-2928.1 387.5,-2964.1"/>
<text text-anchor="middle" x="222" y="-2942.4" font-family="Times,serif" font-size="14.00">{lib/libLLVMMC.a(MCSubtargetInfo.cpp.o)}</text>
</g>
<!-- Node0x55cedc383fc8 -->
<g id="node16" class="node">
<title>Node0x55cedc383fc8</title>
<polygon fill="none" stroke="black" points="798.5,-2991.1 502.5,-2991.1 502.5,-2955.1 798.5,-2955.1 798.5,-2991.1"/>
<text text-anchor="middle" x="650.5" y="-2969.4" font-family="Times,serif" font-size="14.00">{lib/libLLVMMC.a(MCSchedule.cpp.o)}</text>
</g>
<!-- Node0x55cedc383988&#45;&gt;Node0x55cedc383fc8 -->
<g id="edge17" class="edge">
<title>Node0x55cedc383988&#45;&gt;Node0x55cedc383fc8</title>
<path fill="none" stroke="black" d="M387.59,-2956.52C421.96,-2958.69 458.11,-2960.98 492.2,-2963.14"/>
<polygon fill="black" stroke="black" points="492.03,-2966.64 502.24,-2963.77 492.48,-2959.65 492.03,-2966.64"/>
</g>
<!-- Node0x55cedc382b28 -->
<g id="node17" class="node">
<title>Node0x55cedc382b28</title>
<polygon fill="none" stroke="black" points="817.5,-2937.1 483.5,-2937.1 483.5,-2901.1 817.5,-2901.1 817.5,-2937.1"/>
<text text-anchor="middle" x="650.5" y="-2915.4" font-family="Times,serif" font-size="14.00">{lib/libLLVMMC.a(SubtargetFeature.cpp.o)}</text>
</g>
<!-- Node0x55cedc383988&#45;&gt;Node0x55cedc382b28 -->
<g id="edge18" class="edge">
<title>Node0x55cedc383988&#45;&gt;Node0x55cedc382b28</title>
<path fill="none" stroke="black" d="M387.59,-2935.68C415.7,-2933.9 445.01,-2932.04 473.41,-2930.25"/>
<polygon fill="black" stroke="black" points="473.65,-2933.74 483.41,-2929.61 473.21,-2926.75 473.65,-2933.74"/>
</g>
<!-- Node0x55cedc3841a8&#45;&gt;Node0x55cedc397438 -->
<g id="edge20" class="edge">
<title>Node0x55cedc3841a8&#45;&gt;Node0x55cedc397438</title>
<path fill="none" stroke="#7fb2ff" d="M2578.65,-1684.29C2546.61,-1714.24 2478.32,-1773.9 2410,-1807.1 2252.82,-1883.47 2203.28,-1885.46 2030,-1908.1 1956.4,-1917.71 1755.5,-1952.47 1696,-1908.1 1651.02,-1874.55 1699.62,-1826.83 1660,-1787.1 1642.72,-1769.76 1620.63,-1757.4 1597.49,-1748.59"/>
<polygon fill="#7fb2ff" stroke="#7fb2ff" points="1598.47,-1745.23 1587.87,-1745.15 1596.11,-1751.82 1598.47,-1745.23"/>
</g>
<!-- Node0x55cedc3841a8&#45;&gt;Node0x55cedc3980b8 -->
<g id="edge19" class="edge">
<title>Node0x55cedc3841a8&#45;&gt;Node0x55cedc3980b8</title>
<path fill="none" stroke="#7fb2ff" d="M2547.34,-1647.98C2510.23,-1631.48 2458.01,-1608 2410,-1593.1 2261.32,-1546.96 2217.1,-1564.56 2066,-1527.1 2049.76,-1523.07 2046.24,-1520.13 2030,-1516.1 1998.78,-1508.34 1963.86,-1501.36 1934.14,-1495.21"/>
<polygon fill="#7fb2ff" stroke="#7fb2ff" points="1934.77,-1491.76 1924.27,-1493.15 1933.34,-1498.62 1934.77,-1491.76"/>
</g>
<!-- Node0x55cedc3841a8&#45;&gt;Node0x55cedc397ca8 -->
<g id="edge21" class="edge">
<title>Node0x55cedc3841a8&#45;&gt;Node0x55cedc397ca8</title>
<path fill="none" stroke="#7fb2ff" d="M2589.42,-1647.9C2567.99,-1602.16 2504.77,-1482.71 2410,-1436.1 2341.46,-1402.38 2142.98,-1405.16 2005.23,-1411.85"/>
<polygon fill="#7fb2ff" stroke="#7fb2ff" points="2004.82,-1408.37 1995,-1412.36 2005.16,-1415.36 2004.82,-1408.37"/>
</g>
<!-- Node0x55cedc3841a8&#45;&gt;Node0x55cedc37ce58 -->
<g id="edge22" class="edge">
<title>Node0x55cedc3841a8&#45;&gt;Node0x55cedc37ce58</title>
<path fill="none" stroke="#7fb2ff" d="M2449.87,-1667.01C2330.16,-1664.77 2161.25,-1659.57 2035.54,-1654.29"/>
<polygon fill="#7fb2ff" stroke="#7fb2ff" points="2035.56,-1650.79 2025.42,-1653.86 2035.27,-1657.78 2035.56,-1650.79"/>
</g>
<!-- Node0x55cedc3841a8&#45;&gt;Node0x55cedc3832a8 -->
<g id="edge24" class="edge">
<title>Node0x55cedc3841a8&#45;&gt;Node0x55cedc3832a8</title>
<path fill="none" stroke="#7fb2ff" d="M2577.81,-1684.26C2545.62,-1712.58 2478.44,-1766.07 2410,-1786.1 2338.81,-1806.93 2150.69,-1797.44 2015.16,-1786.91"/>
<polygon fill="#7fb2ff" stroke="#7fb2ff" points="2015.33,-1783.42 2005.09,-1786.12 2014.78,-1790.39 2015.33,-1783.42"/>
</g>
<!-- Node0x55cedc3841a8&#45;&gt;Node0x55cedc383258 -->
<g id="edge25" class="edge">
<title>Node0x55cedc3841a8&#45;&gt;Node0x55cedc383258</title>
<path fill="none" stroke="#7fb2ff" d="M2590.91,-1647.89C2571.88,-1598.31 2511.61,-1460.76 2410,-1404.1 2276.25,-1329.52 2094.49,-1334.18 1978.19,-1347.87"/>
<polygon fill="#7fb2ff" stroke="#7fb2ff" points="1977.69,-1344.41 1968.19,-1349.09 1978.54,-1351.35 1977.69,-1344.41"/>
</g>
<!-- Node0x55cedc3841a8&#45;&gt;Node0x55cedc384298 -->
<g id="edge23" class="edge">
<title>Node0x55cedc3841a8&#45;&gt;Node0x55cedc384298</title>
<path fill="none" stroke="black" d="M2604.8,-1684.57C2644.13,-1821.56 2890.15,-2678.54 2937.96,-2845.08"/>
<polygon fill="black" stroke="black" points="2934.69,-2846.39 2940.81,-2855.03 2941.42,-2844.45 2934.69,-2846.39"/>
</g>
<!-- Node0x55cedc3915d8 -->
<g id="node20" class="node">
<title>Node0x55cedc3915d8</title>
<polygon fill="none" stroke="black" points="372,-3018.1 72,-3018.1 72,-2982.1 372,-2982.1 372,-3018.1"/>
<text text-anchor="middle" x="222" y="-2996.4" font-family="Times,serif" font-size="14.00">{lib/libLLVMMC.a(MCInstrDesc.cpp.o)}</text>
</g>
<!-- Node0x55cedc391858 -->
<g id="node21" class="node">
<title>Node0x55cedc391858</title>
<polygon fill="none" stroke="black" points="1194,-281.1 886,-281.1 886,-245.1 1194,-245.1 1194,-281.1"/>
<text text-anchor="middle" x="1040" y="-259.4" font-family="Times,serif" font-size="14.00">{lib/libLLVMMC.a(MCInstPrinter.cpp.o)}</text>
</g>
<!-- Node0x55cedc391358 -->
<g id="node22" class="node">
<title>Node0x55cedc391358</title>
<polygon fill="none" stroke="black" points="1185,-1507.1 895,-1507.1 895,-1471.1 1185,-1471.1 1185,-1507.1"/>
<text text-anchor="middle" x="1040" y="-1485.4" font-family="Times,serif" font-size="14.00">{lib/libLLVMMC.a(MCAsmInfo.cpp.o)}</text>
</g>
<!-- Node0x55cedc391358&#45;&gt;Node0x55cedc397438 -->
<g id="edge27" class="edge">
<title>Node0x55cedc391358&#45;&gt;Node0x55cedc397438</title>
<path fill="none" stroke="black" d="M1060.35,-1507.16C1093.84,-1538.52 1164.63,-1605.24 1223,-1663.1 1239.29,-1679.25 1238.51,-1689.77 1259,-1700.1 1273.6,-1707.46 1289.53,-1713.03 1305.82,-1717.22"/>
<polygon fill="black" stroke="black" points="1305.45,-1720.73 1315.99,-1719.65 1307.08,-1713.92 1305.45,-1720.73"/>
</g>
<!-- Node0x55cedc391358&#45;&gt;Node0x55cedc397ca8 -->
<g id="edge28" class="edge">
<title>Node0x55cedc391358&#45;&gt;Node0x55cedc397ca8</title>
<path fill="none" stroke="black" d="M1153.77,-1470.96C1179.95,-1461.61 1205.3,-1447.48 1223,-1426.1 1293.46,-1340.98 1175.4,-1252.35 1259,-1180.1 1393.84,-1063.56 1523.93,-1065 1660,-1180.1 1733.64,-1242.38 1627.62,-1326.08 1696,-1394.1 1703.53,-1401.59 1712.27,-1407.49 1721.73,-1412.12"/>
<polygon fill="black" stroke="black" points="1720.43,-1415.37 1731,-1416.16 1723.24,-1408.95 1720.43,-1415.37"/>
</g>
<!-- Node0x55cedc3847e8 -->
<g id="node23" class="node">
<title>Node0x55cedc3847e8</title>
<polygon fill="none" stroke="black" points="817,-3072.1 484,-3072.1 484,-3036.1 817,-3036.1 817,-3072.1"/>
<text text-anchor="middle" x="650.5" y="-3050.4" font-family="Times,serif" font-size="14.00">{lib/libLLVMMC.a(MCTargetOptions.cpp.o)}</text>
</g>
<!-- Node0x55cedc3918a8 -->
<g id="node24" class="node">
<title>Node0x55cedc3918a8</title>
<polygon fill="none" stroke="black" points="812,-2395.1 489,-2395.1 489,-2359.1 812,-2359.1 812,-2395.1"/>
<text text-anchor="middle" x="650.5" y="-2373.4" font-family="Times,serif" font-size="14.00">{lib/libLLVMMC.a(MCAsmBackend.cpp.o)}</text>
</g>
<!-- Node0x55cedc391088 -->
<g id="node25" class="node">
<title>Node0x55cedc391088</title>
<polygon fill="none" stroke="black" points="1203,-2395.1 877,-2395.1 877,-2359.1 1203,-2359.1 1203,-2395.1"/>
<text text-anchor="middle" x="1040" y="-2373.4" font-family="Times,serif" font-size="14.00">{lib/libLLVMMC.a(ELFObjectWriter.cpp.o)}</text>
</g>
<!-- Node0x55cedc3918a8&#45;&gt;Node0x55cedc391088 -->
<g id="edge29" class="edge">
<title>Node0x55cedc3918a8&#45;&gt;Node0x55cedc391088</title>
<path fill="none" stroke="black" d="M812.19,-2377.1C830.18,-2377.1 848.57,-2377.1 866.7,-2377.1"/>
<polygon fill="black" stroke="black" points="866.75,-2380.6 876.75,-2377.1 866.75,-2373.6 866.75,-2380.6"/>
</g>
<!-- Node0x55cedc389dd8 -->
<g id="node26" class="node">
<title>Node0x55cedc389dd8</title>
<polygon fill="none" stroke="black" points="1208,-2533.1 872,-2533.1 872,-2497.1 1208,-2497.1 1208,-2533.1"/>
<text text-anchor="middle" x="1040" y="-2511.4" font-family="Times,serif" font-size="14.00">{lib/libLLVMMC.a(MachObjectWriter.cpp.o)}</text>
</g>
<!-- Node0x55cedc3918a8&#45;&gt;Node0x55cedc389dd8 -->
<g id="edge30" class="edge">
<title>Node0x55cedc3918a8&#45;&gt;Node0x55cedc389dd8</title>
<path fill="none" stroke="black" d="M702.16,-2395.14C773.38,-2420.5 902.87,-2466.62 978.88,-2493.69"/>
<polygon fill="black" stroke="black" points="977.73,-2496.99 988.33,-2497.05 980.08,-2490.4 977.73,-2496.99"/>
</g>
<!-- Node0x55cedc382d08 -->
<g id="node27" class="node">
<title>Node0x55cedc382d08</title>
<polygon fill="none" stroke="black" points="1210,-2287.1 870,-2287.1 870,-2251.1 1210,-2251.1 1210,-2287.1"/>
<text text-anchor="middle" x="1040" y="-2265.4" font-family="Times,serif" font-size="14.00">{lib/libLLVMMC.a(WasmObjectWriter.cpp.o)}</text>
</g>
<!-- Node0x55cedc3918a8&#45;&gt;Node0x55cedc382d08 -->
<g id="edge31" class="edge">
<title>Node0x55cedc3918a8&#45;&gt;Node0x55cedc382d08</title>
<path fill="none" stroke="black" d="M689.62,-2359.02C730.22,-2340.5 796.8,-2312.2 857,-2296.1 866.37,-2293.59 876.08,-2291.3 885.92,-2289.2"/>
<polygon fill="black" stroke="black" points="886.7,-2292.62 895.79,-2287.18 885.29,-2285.76 886.7,-2292.62"/>
</g>
<!-- Node0x55cedc382678 -->
<g id="node28" class="node">
<title>Node0x55cedc382678</title>
<polygon fill="none" stroke="black" points="1223,-2341.1 857,-2341.1 857,-2305.1 1223,-2305.1 1223,-2341.1"/>
<text text-anchor="middle" x="1040" y="-2319.4" font-family="Times,serif" font-size="14.00">{lib/libLLVMMC.a(WinCOFFObjectWriter.cpp.o)}</text>
</g>
<!-- Node0x55cedc3918a8&#45;&gt;Node0x55cedc382678 -->
<g id="edge32" class="edge">
<title>Node0x55cedc3918a8&#45;&gt;Node0x55cedc382678</title>
<path fill="none" stroke="black" d="M780.8,-2359.08C818.89,-2353.77 860.72,-2347.94 899.42,-2342.55"/>
<polygon fill="black" stroke="black" points="900.29,-2345.96 909.71,-2341.11 899.32,-2339.03 900.29,-2345.96"/>
</g>
<!-- Node0x55cedc383d48 -->
<g id="node29" class="node">
<title>Node0x55cedc383d48</title>
<polygon fill="none" stroke="black" points="1633.5,-2739.1 1285.5,-2739.1 1285.5,-2703.1 1633.5,-2703.1 1633.5,-2739.1"/>
<text text-anchor="middle" x="1459.5" y="-2717.4" font-family="Times,serif" font-size="14.00">{lib/libLLVMMC.a(XCOFFObjectWriter.cpp.o)}</text>
</g>
<!-- Node0x55cedc3918a8&#45;&gt;Node0x55cedc383d48 -->
<g id="edge33" class="edge">
<title>Node0x55cedc3918a8&#45;&gt;Node0x55cedc383d48</title>
<path fill="none" stroke="black" d="M669.8,-2395.3C703.95,-2428.45 780.88,-2499.17 857,-2542.1 1022.7,-2635.55 1074.91,-2641.15 1259,-2689.1 1276.55,-2693.67 1295.15,-2697.7 1313.66,-2701.22"/>
<polygon fill="black" stroke="black" points="1313.16,-2704.69 1323.63,-2703.07 1314.43,-2697.8 1313.16,-2704.69"/>
</g>
<!-- Node0x55cedc391088&#45;&gt;Node0x55cedc397438 -->
<g id="edge139" class="edge">
<title>Node0x55cedc391088&#45;&gt;Node0x55cedc397438</title>
<path fill="none" stroke="black" d="M1203.3,-2365.51C1210.45,-2361.25 1217.09,-2356.15 1223,-2350.1 1268.51,-2303.47 1237.76,-2120.7 1259,-2059.1 1301.87,-1934.79 1395.64,-1806.68 1437.55,-1753.1"/>
<polygon fill="black" stroke="black" points="1440.37,-1755.18 1443.81,-1745.16 1434.87,-1750.84 1440.37,-1755.18"/>
</g>
<!-- Node0x55cedc391088&#45;&gt;Node0x55cedc397ca8 -->
<g id="edge140" class="edge">
<title>Node0x55cedc391088&#45;&gt;Node0x55cedc397ca8</title>
<path fill="none" stroke="black" d="M1203.05,-2366.52C1210.37,-2362.03 1217.1,-2356.61 1223,-2350.1 1278.05,-2289.34 1207.93,-1677.23 1259,-1613.1 1374.34,-1468.25 1509.3,-1607.68 1660,-1500.1 1682.88,-1483.77 1672.23,-1463.11 1696,-1448.1 1703.97,-1443.06 1712.57,-1438.87 1721.52,-1435.39"/>
<polygon fill="black" stroke="black" points="1722.72,-1438.67 1730.95,-1432.01 1720.35,-1432.08 1722.72,-1438.67"/>
</g>
<!-- Node0x55cedc391088&#45;&gt;Node0x55cedc3975c8 -->
<g id="edge141" class="edge">
<title>Node0x55cedc391088&#45;&gt;Node0x55cedc3975c8</title>
<path fill="none" stroke="black" d="M1203.2,-2366.65C1210.48,-2362.13 1217.16,-2356.66 1223,-2350.1 1311.34,-2250.74 1163.59,-1246.68 1259,-1154.1 1386.9,-1029.99 1517.83,-1046.62 1660,-1154.1 1706.8,-1189.48 1652.77,-1241.43 1696,-1281.1 1699.28,-1284.11 1702.76,-1286.88 1706.4,-1289.42"/>
<polygon fill="black" stroke="black" points="1704.84,-1292.58 1715.17,-1294.95 1708.58,-1286.66 1704.84,-1292.58"/>
</g>
<!-- Node0x55cedc391088&#45;&gt;Node0x55cedc383258 -->
<g id="edge143" class="edge">
<title>Node0x55cedc391088&#45;&gt;Node0x55cedc383258</title>
<path fill="none" stroke="black" d="M1203.19,-2366.65C1210.48,-2362.12 1217.16,-2356.66 1223,-2350.1 1309.46,-2252.93 1165.63,-1270.64 1259,-1180.1 1290.99,-1149.08 1625.21,-1152.26 1660,-1180.1 1716.92,-1225.63 1642.94,-1290.13 1696,-1340.1 1700.81,-1344.63 1706.07,-1348.57 1711.66,-1351.99"/>
<polygon fill="black" stroke="black" points="1710.25,-1355.21 1720.7,-1356.95 1713.62,-1349.07 1710.25,-1355.21"/>
</g>
<!-- Node0x55cedc391088&#45;&gt;Node0x55cedc3856e8 -->
<g id="edge144" class="edge">
<title>Node0x55cedc391088&#45;&gt;Node0x55cedc3856e8</title>
<path fill="none" stroke="black" d="M1203.06,-2363.2C1210.13,-2359.5 1216.83,-2355.17 1223,-2350.1 1259.82,-2319.84 1225.48,-2282.97 1259,-2249.1 1379.29,-2127.55 1571.73,-2071.97 1706.78,-2046.93"/>
<polygon fill="black" stroke="black" points="1707.6,-2050.34 1716.81,-2045.11 1706.34,-2043.46 1707.6,-2050.34"/>
</g>
<!-- Node0x55cedc391088&#45;&gt;Node0x55cedc398fb8 -->
<g id="edge138" class="edge">
<title>Node0x55cedc391088&#45;&gt;Node0x55cedc398fb8</title>
<path fill="none" stroke="black" d="M1203.07,-2371.05C1454.16,-2358.08 1919.8,-2318.46 2030,-2201.1 2085.55,-2141.94 2012.77,-2083.34 2066,-2022.1 2172.32,-1899.77 2307.52,-2026.65 2410,-1901.1 2484.32,-1810.04 2408.5,-1750.49 2446,-1639.1 2478.21,-1543.42 2545.04,-1442.91 2578.11,-1396.47"/>
<polygon fill="black" stroke="black" points="2581.07,-1398.35 2584.06,-1388.18 2575.38,-1394.26 2581.07,-1398.35"/>
</g>
<!-- Node0x55cedc391088&#45;&gt;Node0x55cedc37dfd8 -->
<g id="edge142" class="edge">
<title>Node0x55cedc391088&#45;&gt;Node0x55cedc37dfd8</title>
<path fill="none" stroke="black" d="M1196.68,-2358.97C1205.7,-2356.39 1214.54,-2353.45 1223,-2350.1 1241.11,-2342.92 1241.21,-2333.03 1259,-2325.1 1339.39,-2289.25 1973.18,-2210.33 2030,-2143.1 2110.35,-2048.02 2005.27,-1692.76 2066,-1584.1 2091.76,-1538 2143.31,-1505.27 2183.1,-1485.58"/>
<polygon fill="black" stroke="black" points="2184.68,-1488.7 2192.17,-1481.21 2181.64,-1482.39 2184.68,-1488.7"/>
</g>
<!-- Node0x55cedc391088&#45;&gt;Node0x55cedc380b98 -->
<g id="edge145" class="edge">
<title>Node0x55cedc391088&#45;&gt;Node0x55cedc380b98</title>
<path fill="none" stroke="black" d="M1203.23,-2377.1C1426.08,-2377.1 1825.56,-2377.1 2057.25,-2377.1"/>
<polygon fill="black" stroke="black" points="2057.48,-2380.6 2067.48,-2377.1 2057.48,-2373.6 2057.48,-2380.6"/>
</g>
<!-- Node0x55cedc389dd8&#45;&gt;Node0x55cedc397438 -->
<g id="edge59" class="edge">
<title>Node0x55cedc389dd8&#45;&gt;Node0x55cedc397438</title>
<path fill="none" stroke="black" d="M1093.4,-2496.92C1135.17,-2479.65 1191.69,-2449.49 1223,-2404.1 1272.54,-2332.27 1234.24,-2294.77 1259,-2211.1 1312.18,-2031.36 1409.16,-1827.09 1444.85,-1754.47"/>
<polygon fill="black" stroke="black" points="1447.99,-1756.02 1449.27,-1745.5 1441.71,-1752.92 1447.99,-1756.02"/>
</g>
<!-- Node0x55cedc389dd8&#45;&gt;Node0x55cedc397ca8 -->
<g id="edge60" class="edge">
<title>Node0x55cedc389dd8&#45;&gt;Node0x55cedc397ca8</title>
<path fill="none" stroke="black" d="M1097.66,-2496.97C1140.12,-2480.14 1195.44,-2450.57 1223,-2404.1 1266.01,-2331.57 1203.61,-1709.67 1259,-1646.1 1378.1,-1509.39 1525.56,-1692.75 1660,-1571.1 1702.24,-1532.88 1653.31,-1485.81 1696,-1448.1 1703.63,-1441.36 1712.26,-1435.95 1721.48,-1431.64"/>
<polygon fill="black" stroke="black" points="1723.02,-1434.79 1730.88,-1427.69 1720.31,-1428.34 1723.02,-1434.79"/>
</g>
<!-- Node0x55cedc389dd8&#45;&gt;Node0x55cedc3975c8 -->
<g id="edge61" class="edge">
<title>Node0x55cedc389dd8&#45;&gt;Node0x55cedc3975c8</title>
<path fill="none" stroke="black" d="M1097.77,-2497.03C1140.28,-2480.24 1195.63,-2450.69 1223,-2404.1 1274.54,-2316.37 1198.18,-1570.66 1259,-1489.1 1315.39,-1413.47 1570.95,-1359.68 1730.74,-1332.75"/>
<polygon fill="black" stroke="black" points="1731.36,-1336.2 1740.64,-1331.1 1730.2,-1329.29 1731.36,-1336.2"/>
</g>
<!-- Node0x55cedc389dd8&#45;&gt;Node0x55cedc384978 -->
<g id="edge63" class="edge">
<title>Node0x55cedc389dd8&#45;&gt;Node0x55cedc384978</title>
<path fill="none" stroke="black" d="M1074.22,-2496.96C1111.5,-2476.12 1173.26,-2440.16 1223,-2404.1 1446.84,-2241.83 1445.17,-2116.37 1696,-2000.1 1700.33,-1998.09 1704.77,-1996.23 1709.31,-1994.51"/>
<polygon fill="black" stroke="black" points="1710.5,-1997.8 1718.75,-1991.16 1708.15,-1991.21 1710.5,-1997.8"/>
</g>
<!-- Node0x55cedc389dd8&#45;&gt;Node0x55cedc383258 -->
<g id="edge64" class="edge">
<title>Node0x55cedc389dd8&#45;&gt;Node0x55cedc383258</title>
<path fill="none" stroke="black" d="M1097.72,-2497C1140.21,-2480.19 1195.54,-2450.64 1223,-2404.1 1270.3,-2323.93 1198.26,-1637.64 1259,-1567.1 1377.46,-1429.51 1521.17,-1606.11 1660,-1489.1 1694.52,-1460 1661.03,-1422.66 1696,-1394.1 1700.97,-1390.04 1706.31,-1386.47 1711.93,-1383.35"/>
<polygon fill="black" stroke="black" points="1713.59,-1386.43 1720.95,-1378.81 1710.45,-1380.18 1713.59,-1386.43"/>
</g>
<!-- Node0x55cedc389dd8&#45;&gt;Node0x55cedc398fb8 -->
<g id="edge58" class="edge">
<title>Node0x55cedc389dd8&#45;&gt;Node0x55cedc398fb8</title>
<path fill="none" stroke="black" d="M1164.69,-2497.09C1195.43,-2493.36 1228.36,-2489.99 1259,-2488.1 1347.94,-2482.61 1582.77,-2443.64 1660,-2488.1 1687.61,-2504 1668.39,-2534.2 1696,-2550.1 1824.65,-2624.16 1904.36,-2629.15 2030,-2550.1 2061.29,-2530.41 2035.8,-2496.44 2066,-2475.1 2128.79,-2430.72 2357.35,-2494.13 2410,-2438.1 2470.86,-2373.34 2421.53,-1724.53 2446,-1639.1 2473.73,-1542.28 2542.37,-1442.68 2576.92,-1396.53"/>
<polygon fill="black" stroke="black" points="2579.92,-1398.37 2583.16,-1388.29 2574.34,-1394.15 2579.92,-1398.37"/>
</g>
<!-- Node0x55cedc389dd8&#45;&gt;Node0x55cedc37dfd8 -->
<g id="edge62" class="edge">
<title>Node0x55cedc389dd8&#45;&gt;Node0x55cedc37dfd8</title>
<path fill="none" stroke="black" d="M1184.08,-2533.1C1222.31,-2537.86 1254.41,-2541.77 1259,-2542.1 1344.46,-2548.15 1968.3,-2609.54 2030,-2550.1 2107.35,-2475.58 2014.87,-1678.56 2066,-1584.1 2091.05,-1537.81 2142.43,-1505.19 2182.36,-1485.57"/>
<polygon fill="black" stroke="black" points="2183.95,-1488.69 2191.47,-1481.22 2180.94,-1482.37 2183.95,-1488.69"/>
</g>
<!-- Node0x55cedc381d18 -->
<g id="node37" class="node">
<title>Node0x55cedc381d18</title>
<polygon fill="none" stroke="black" points="1660,-2533.1 1259,-2533.1 1259,-2497.1 1660,-2497.1 1660,-2533.1"/>
<text text-anchor="middle" x="1459.5" y="-2511.4" font-family="Times,serif" font-size="14.00">{lib/libLLVMMC.a(MCLinkerOptimizationHint.cpp.o)}</text>
</g>
<!-- Node0x55cedc389dd8&#45;&gt;Node0x55cedc381d18 -->
<g id="edge65" class="edge">
<title>Node0x55cedc389dd8&#45;&gt;Node0x55cedc381d18</title>
<path fill="none" stroke="black" d="M1208.11,-2508.47C1221.4,-2508.39 1234.93,-2508.35 1248.47,-2508.35"/>
<polygon fill="black" stroke="black" points="1248.82,-2511.85 1258.82,-2508.35 1248.82,-2504.85 1248.82,-2511.85"/>
</g>
<!-- Node0x55cedc389dd8&#45;&gt;Node0x55cedc380b98 -->
<g id="edge66" class="edge">
<title>Node0x55cedc389dd8&#45;&gt;Node0x55cedc380b98</title>
<path fill="none" stroke="black" d="M1208.37,-2529.08C1213.45,-2531.75 1218.35,-2534.75 1223,-2538.1 1253,-2559.72 1227.71,-2593.41 1259,-2613.1 1404.12,-2704.41 1874.29,-2654.88 2030,-2583.1 2116.98,-2543 2188.31,-2449.91 2219.72,-2403.87"/>
<polygon fill="black" stroke="black" points="2222.79,-2405.57 2225.46,-2395.32 2216.98,-2401.67 2222.79,-2405.57"/>
</g>
<!-- Node0x55cedc382d08&#45;&gt;Node0x55cedc397438 -->
<g id="edge147" class="edge">
<title>Node0x55cedc382d08&#45;&gt;Node0x55cedc397438</title>
<path fill="none" stroke="black" d="M1054.89,-2251.06C1116.5,-2171.09 1365.21,-1848.21 1438.24,-1753.4"/>
<polygon fill="black" stroke="black" points="1441.23,-1755.26 1444.56,-1745.2 1435.68,-1750.98 1441.23,-1755.26"/>
</g>
<!-- Node0x55cedc382d08&#45;&gt;Node0x55cedc397ca8 -->
<g id="edge148" class="edge">
<title>Node0x55cedc382d08&#45;&gt;Node0x55cedc397ca8</title>
<path fill="none" stroke="black" d="M1045.03,-2250.88C1071.82,-2130.24 1224.09,-1450.24 1259,-1423.1 1328.24,-1369.25 1565.2,-1385.04 1720.64,-1402.37"/>
<polygon fill="black" stroke="black" points="1720.43,-1405.87 1730.76,-1403.52 1721.22,-1398.92 1720.43,-1405.87"/>
</g>
<!-- Node0x55cedc382d08&#45;&gt;Node0x55cedc3975c8 -->
<g id="edge149" class="edge">
<title>Node0x55cedc382d08&#45;&gt;Node0x55cedc3975c8</title>
<path fill="none" stroke="black" d="M1046.67,-2250.99C1072.4,-2167.91 1178.86,-1814.45 1223,-1516.1 1233.34,-1446.19 1207.63,-929.63 1259,-881.1 1388.54,-758.69 1528.45,-760.86 1660,-881.1 1725.88,-941.31 1636.15,-1214.89 1696,-1281.1 1698.49,-1283.85 1701.13,-1286.4 1703.91,-1288.78"/>
<polygon fill="black" stroke="black" points="1702.02,-1291.74 1712.1,-1295.01 1706.26,-1286.17 1702.02,-1291.74"/>
</g>
<!-- Node0x55cedc382d08&#45;&gt;Node0x55cedc398fb8 -->
<g id="edge146" class="edge">
<title>Node0x55cedc382d08&#45;&gt;Node0x55cedc398fb8</title>
<path fill="none" stroke="black" d="M1046.75,-2251C1072.84,-2167.97 1180.66,-1814.71 1223,-1516.1 1229.31,-1471.61 1226.53,-739.15 1259,-708.1 1489.44,-487.7 2311.71,-839.62 2410,-927.1 2539.89,-1042.7 2582.53,-1263.29 2593.92,-1341.63"/>
<polygon fill="black" stroke="black" points="2590.47,-1342.29 2595.32,-1351.71 2597.41,-1341.33 2590.47,-1342.29"/>
</g>
<!-- Node0x55cedc382d08&#45;&gt;Node0x55cedc37dfd8 -->
<g id="edge150" class="edge">
<title>Node0x55cedc382d08&#45;&gt;Node0x55cedc37dfd8</title>
<path fill="none" stroke="black" d="M1056.5,-2250.98C1089.38,-2214.02 1170.4,-2130.63 1259,-2097.1 1339.24,-2066.72 1968.7,-2114.13 2030,-2054.1 2104.83,-1980.8 2014.34,-1675.22 2066,-1584.1 2092.12,-1538.02 2143.88,-1505.2 2183.64,-1485.47"/>
<polygon fill="black" stroke="black" points="2185.21,-1488.6 2192.69,-1481.1 2182.17,-1482.3 2185.21,-1488.6"/>
</g>
<!-- Node0x55cedc382678&#45;&gt;Node0x55cedc397438 -->
<g id="edge69" class="edge">
<title>Node0x55cedc382678&#45;&gt;Node0x55cedc397438</title>
<path fill="none" stroke="black" d="M1212.56,-2305.08C1216.23,-2302.35 1219.72,-2299.37 1223,-2296.1 1298.47,-2220.89 1222.88,-2159.33 1259,-2059.1 1303.58,-1935.4 1396.45,-1806.97 1437.83,-1753.21"/>
<polygon fill="black" stroke="black" points="1440.66,-1755.28 1444.02,-1745.23 1435.12,-1750.99 1440.66,-1755.28"/>
</g>
<!-- Node0x55cedc382678&#45;&gt;Node0x55cedc397ca8 -->
<g id="edge70" class="edge">
<title>Node0x55cedc382678&#45;&gt;Node0x55cedc397ca8</title>
<path fill="none" stroke="black" d="M1213.75,-2304.92C1217.01,-2302.23 1220.11,-2299.3 1223,-2296.1 1279.65,-2233.49 1204.05,-1601.2 1259,-1537.1 1317.6,-1468.74 1561.4,-1440.08 1720.48,-1428.5"/>
<polygon fill="black" stroke="black" points="1721.11,-1431.97 1730.84,-1427.76 1720.61,-1424.98 1721.11,-1431.97"/>
</g>
<!-- Node0x55cedc382678&#45;&gt;Node0x55cedc3975c8 -->
<g id="edge71" class="edge">
<title>Node0x55cedc382678&#45;&gt;Node0x55cedc3975c8</title>
<path fill="none" stroke="black" d="M1213.83,-2304.99C1217.07,-2302.28 1220.14,-2299.32 1223,-2296.1 1314.68,-2192.88 1159.97,-1150.29 1259,-1054.1 1386.83,-929.91 1524.47,-938.36 1660,-1054.1 1737.68,-1120.43 1624.98,-1207.68 1696,-1281.1 1698.85,-1284.04 1701.87,-1286.76 1705.06,-1289.26"/>
<polygon fill="black" stroke="black" points="1703.08,-1292.15 1713.27,-1295.07 1707.13,-1286.44 1703.08,-1292.15"/>
</g>
<!-- Node0x55cedc382678&#45;&gt;Node0x55cedc383258 -->
<g id="edge73" class="edge">
<title>Node0x55cedc382678&#45;&gt;Node0x55cedc383258</title>
<path fill="none" stroke="black" d="M1213.82,-2304.99C1217.06,-2302.27 1220.13,-2299.32 1223,-2296.1 1307.93,-2200.7 1167.28,-1235.99 1259,-1147.1 1386.98,-1023.06 1522.91,-1033.21 1660,-1147.1 1727.12,-1202.85 1633.59,-1279.12 1696,-1340.1 1700.8,-1344.78 1706.07,-1348.85 1711.69,-1352.36"/>
<polygon fill="black" stroke="black" points="1710.36,-1355.63 1720.8,-1357.44 1713.77,-1349.51 1710.36,-1355.63"/>
</g>
<!-- Node0x55cedc382678&#45;&gt;Node0x55cedc398fb8 -->
<g id="edge68" class="edge">
<title>Node0x55cedc382678&#45;&gt;Node0x55cedc398fb8</title>
<path fill="none" stroke="black" d="M1192.64,-2305.07C1455.02,-2272.5 1971.44,-2201.77 2030,-2143.1 2091.33,-2081.64 2010.16,-2017.57 2066,-1951.1 2171.03,-1826.07 2304.42,-1946.65 2410,-1822.1 2463.6,-1758.87 2417.3,-1716.86 2446,-1639.1 2480.96,-1544.38 2546.49,-1443.42 2578.68,-1396.68"/>
<polygon fill="black" stroke="black" points="2581.65,-1398.54 2584.47,-1388.33 2575.9,-1394.55 2581.65,-1398.54"/>
</g>
<!-- Node0x55cedc382678&#45;&gt;Node0x55cedc37dfd8 -->
<g id="edge72" class="edge">
<title>Node0x55cedc382678&#45;&gt;Node0x55cedc37dfd8</title>
<path fill="none" stroke="black" d="M1211.19,-2304.99C1215.32,-2302.31 1219.27,-2299.35 1223,-2296.1 1265.95,-2258.68 1215.43,-2209.79 1259,-2173.1 1522.82,-1950.95 1791.29,-2334.03 2030,-2085.1 2107.26,-2004.53 2011.18,-1681.33 2066,-1584.1 2091.93,-1538.1 2143.45,-1505.36 2183.2,-1485.63"/>
<polygon fill="black" stroke="black" points="2184.77,-1488.76 2192.25,-1481.26 2181.72,-1482.45 2184.77,-1488.76"/>
</g>
<!-- Node0x55cedc382678&#45;&gt;Node0x55cedc380b98 -->
<g id="edge74" class="edge">
<title>Node0x55cedc382678&#45;&gt;Node0x55cedc380b98</title>
<path fill="none" stroke="black" d="M1223.3,-2331.33C1449.35,-2341.53 1832.25,-2358.82 2057.16,-2368.98"/>
<polygon fill="black" stroke="black" points="2057.27,-2372.49 2067.42,-2369.44 2057.59,-2365.49 2057.27,-2372.49"/>
</g>
<!-- Node0x55cedc383d48&#45;&gt;Node0x55cedc397ca8 -->
<g id="edge152" class="edge">
<title>Node0x55cedc383d48&#45;&gt;Node0x55cedc397ca8</title>
<path fill="none" stroke="black" d="M1493.84,-2702.98C1540.83,-2675.35 1624.71,-2617.8 1660,-2542.1 1711.38,-2431.86 1615.69,-1539.43 1696,-1448.1 1703.23,-1439.87 1711.91,-1433.48 1721.45,-1428.55"/>
<polygon fill="black" stroke="black" points="1723.2,-1431.6 1730.85,-1424.27 1720.3,-1425.23 1723.2,-1431.6"/>
</g>
<!-- Node0x55cedc383d48&#45;&gt;Node0x55cedc3975c8 -->
<g id="edge153" class="edge">
<title>Node0x55cedc383d48&#45;&gt;Node0x55cedc3975c8</title>
<path fill="none" stroke="black" d="M1493.87,-2702.99C1540.89,-2675.38 1624.82,-2617.86 1660,-2542.1 1688.14,-2481.5 1651.96,-1390.33 1696,-1340.1 1698.43,-1337.32 1701.03,-1334.76 1703.77,-1332.39"/>
<polygon fill="black" stroke="black" points="1706.03,-1335.06 1711.84,-1326.21 1701.77,-1329.51 1706.03,-1335.06"/>
</g>
<!-- Node0x55cedc383d48&#45;&gt;Node0x55cedc384f18 -->
<g id="edge155" class="edge">
<title>Node0x55cedc383d48&#45;&gt;Node0x55cedc384f18</title>
<path fill="none" stroke="black" d="M1551.69,-2703.06C1588.19,-2692.47 1628.87,-2676.08 1660,-2651.1 1683.66,-2632.11 1672.94,-2612.81 1696,-2593.1 1721.42,-2571.37 1754.57,-2555.58 1784.55,-2544.56"/>
<polygon fill="black" stroke="black" points="1785.91,-2547.79 1794.16,-2541.15 1783.57,-2541.19 1785.91,-2547.79"/>
</g>
<!-- Node0x55cedc383d48&#45;&gt;Node0x55cedc398fb8 -->
<g id="edge151" class="edge">
<title>Node0x55cedc383d48&#45;&gt;Node0x55cedc398fb8</title>
<path fill="none" stroke="black" d="M1623.47,-2739.12C1851.85,-2753.9 2256.34,-2739.08 2410,-2475.1 2456.77,-2394.74 2420.49,-1728.5 2446,-1639.1 2473.64,-1542.26 2542.31,-1442.66 2576.9,-1396.52"/>
<polygon fill="black" stroke="black" points="2579.9,-1398.37 2583.15,-1388.28 2574.32,-1394.14 2579.9,-1398.37"/>
</g>
<!-- Node0x55cedc383d48&#45;&gt;Node0x55cedc37dfd8 -->
<g id="edge154" class="edge">
<title>Node0x55cedc383d48&#45;&gt;Node0x55cedc37dfd8</title>
<path fill="none" stroke="black" d="M1521.22,-2702.98C1568.62,-2689.11 1636.24,-2669.9 1696,-2655.1 1843.4,-2618.59 1932.49,-2699.51 2030,-2583.1 2101.32,-2497.95 2013.19,-1681.81 2066,-1584.1 2091.03,-1537.79 2142.41,-1505.17 2182.35,-1485.56"/>
<polygon fill="black" stroke="black" points="2183.94,-1488.68 2191.46,-1481.22 2180.92,-1482.36 2183.94,-1488.68"/>
</g>
<!-- Node0x55cedc383d48&#45;&gt;Node0x55cedc380b98 -->
<g id="edge156" class="edge">
<title>Node0x55cedc383d48&#45;&gt;Node0x55cedc380b98</title>
<path fill="none" stroke="black" d="M1633.59,-2737.35C1752.63,-2740.49 1910.24,-2728.15 2030,-2659.1 2134.2,-2599.02 2201.06,-2463.13 2226,-2404.68"/>
<polygon fill="black" stroke="black" points="2229.27,-2405.92 2229.9,-2395.34 2222.81,-2403.21 2229.27,-2405.92"/>
</g>
<!-- Node0x55cedc397898 -->
<g id="node30" class="node">
<title>Node0x55cedc397898</title>
<polygon fill="none" stroke="black" points="780,-327.1 521,-327.1 521,-291.1 780,-291.1 780,-327.1"/>
<text text-anchor="middle" x="650.5" y="-305.4" font-family="Times,serif" font-size="14.00">{lib/libLLVMMC.a(MCInst.cpp.o)}</text>
</g>
<!-- Node0x55cedc397898&#45;&gt;Node0x55cedc397ca8 -->
<g id="edge43" class="edge">
<title>Node0x55cedc397898&#45;&gt;Node0x55cedc397ca8</title>
<path fill="none" stroke="black" d="M780.06,-304.8C1044.84,-296.57 1628.96,-281.98 1660,-312.1 1746.34,-395.86 1616.56,-1303.78 1696,-1394.1 1703.23,-1402.32 1711.91,-1408.72 1721.46,-1413.64"/>
<polygon fill="black" stroke="black" points="1720.3,-1416.96 1730.85,-1417.92 1723.2,-1410.59 1720.3,-1416.96"/>
</g>
<!-- Node0x55cedc397898&#45;&gt;Node0x55cedc391858 -->
<g id="edge44" class="edge">
<title>Node0x55cedc397898&#45;&gt;Node0x55cedc391858</title>
<path fill="none" stroke="black" d="M780.26,-293.81C811.3,-290.13 844.85,-286.14 877.18,-282.31"/>
<polygon fill="black" stroke="black" points="877.66,-285.78 887.17,-281.12 876.83,-278.82 877.66,-285.78"/>
</g>
<!-- Node0x55cedc37dc68&#45;&gt;Node0x55cedc397438 -->
<g id="edge47" class="edge">
<title>Node0x55cedc37dc68&#45;&gt;Node0x55cedc397438</title>
<path fill="none" stroke="#7fb2ff" d="M2068.41,-1593.09C1932.64,-1582.11 1755.02,-1576.79 1696,-1616.1 1662.19,-1638.61 1692.33,-1675.51 1660,-1700.1 1646.1,-1710.67 1630.04,-1718.14 1613.17,-1723.32"/>
<polygon fill="#7fb2ff" stroke="#7fb2ff" points="1611.86,-1720.05 1603.16,-1726.11 1613.74,-1726.8 1611.86,-1720.05"/>
</g>
<!-- Node0x55cedc37dc68&#45;&gt;Node0x55cedc3980b8 -->
<g id="edge46" class="edge">
<title>Node0x55cedc37dc68&#45;&gt;Node0x55cedc3980b8</title>
<path fill="none" stroke="#7fb2ff" d="M2073.06,-1593.03C2070.65,-1591.47 2068.29,-1589.82 2066,-1588.1 2037.43,-1566.56 2058.51,-1537.71 2030,-1516.1 2018.99,-1507.75 2006.42,-1501.39 1993.23,-1496.51"/>
<polygon fill="#7fb2ff" stroke="#7fb2ff" points="1994.12,-1493.12 1983.53,-1493.22 1991.87,-1499.75 1994.12,-1493.12"/>
</g>
<!-- Node0x55cedc37dc68&#45;&gt;Node0x55cedc399378 -->
<g id="edge48" class="edge">
<title>Node0x55cedc37dc68&#45;&gt;Node0x55cedc399378</title>
<path fill="none" stroke="#7fb2ff" d="M2209.54,-1629.26C2171.62,-1650.51 2103.66,-1688.45 2066,-1741.1 2033.11,-1787.08 2072.41,-1825.71 2030,-1863.1 2023.84,-1868.53 2017.03,-1873.09 2009.79,-1876.9"/>
<polygon fill="#7fb2ff" stroke="#7fb2ff" points="2007.95,-1873.9 2000.4,-1881.33 2010.93,-1880.23 2007.95,-1873.9"/>
</g>
<!-- Node0x55cedc37dc68&#45;&gt;Node0x55cedc397ca8 -->
<g id="edge49" class="edge">
<title>Node0x55cedc37dc68&#45;&gt;Node0x55cedc397ca8</title>
<path fill="none" stroke="#7fb2ff" d="M2206.92,-1593.02C2171.4,-1570.97 2111.43,-1531.49 2066,-1490.1 2047.83,-1473.54 2051.44,-1460.14 2030,-1448.1 2022.05,-1443.64 2013.58,-1439.86 2004.82,-1436.67"/>
<polygon fill="#7fb2ff" stroke="#7fb2ff" points="2005.81,-1433.31 1995.22,-1433.43 2003.58,-1439.94 2005.81,-1433.31"/>
</g>
<!-- Node0x55cedc37dc68&#45;&gt;Node0x55cedc3975c8 -->
<g id="edge50" class="edge">
<title>Node0x55cedc37dc68&#45;&gt;Node0x55cedc3975c8</title>
<path fill="none" stroke="#7fb2ff" d="M2196.29,-1592.95C2156.9,-1573.28 2098.53,-1538.13 2066,-1490.1 2027.56,-1433.33 2080.25,-1386.74 2030,-1340.1 2027.74,-1338 2025.39,-1336.03 2022.95,-1334.19"/>
<polygon fill="#7fb2ff" stroke="#7fb2ff" points="2024.6,-1331.07 2014.36,-1328.35 2020.67,-1336.87 2024.6,-1331.07"/>
</g>
<!-- Node0x55cedc37dc68&#45;&gt;Node0x55cedc37ce58 -->
<g id="edge51" class="edge">
<title>Node0x55cedc37dc68&#45;&gt;Node0x55cedc37ce58</title>
<path fill="none" stroke="#7fb2ff" d="M2102.84,-1629.12C2080.89,-1631.21 2057.9,-1633.25 2035.21,-1635.14"/>
<polygon fill="#7fb2ff" stroke="#7fb2ff" points="2034.84,-1631.66 2025.16,-1635.97 2035.42,-1638.63 2034.84,-1631.66"/>
</g>
<!-- Node0x55cedc37dc68&#45;&gt;Node0x55cedc3832a8 -->
<g id="edge52" class="edge">
<title>Node0x55cedc37dc68&#45;&gt;Node0x55cedc3832a8</title>
<path fill="none" stroke="#7fb2ff" d="M2195.28,-1629.22C2126.45,-1659.11 1989.32,-1718.67 1914.9,-1750.99"/>
<polygon fill="#7fb2ff" stroke="#7fb2ff" points="1913.48,-1747.79 1905.7,-1754.99 1916.27,-1754.21 1913.48,-1747.79"/>
</g>
<!-- Node0x55cedc37dc68&#45;&gt;Node0x55cedc398fb8 -->
<g id="edge45" class="edge">
<title>Node0x55cedc37dc68&#45;&gt;Node0x55cedc398fb8</title>
<path fill="none" stroke="#7fb2ff" d="M2279.71,-1593.09C2315.22,-1576.71 2367.55,-1550.9 2410,-1523.1 2470.94,-1483.18 2535.34,-1427.15 2570.56,-1395.14"/>
<polygon fill="#7fb2ff" stroke="#7fb2ff" points="2573.02,-1397.64 2578.04,-1388.31 2568.3,-1392.47 2573.02,-1397.64"/>
</g>
<!-- Node0x55cedc37dc68&#45;&gt;Node0x55cedc3841a8 -->
<g id="edge53" class="edge">
<title>Node0x55cedc37dc68&#45;&gt;Node0x55cedc3841a8</title>
<path fill="none" stroke="#7fb2ff" d="M2356.39,-1629.11C2392.69,-1634.68 2432.86,-1640.84 2469.82,-1646.51"/>
<polygon fill="#7fb2ff" stroke="#7fb2ff" points="2469.74,-1650.04 2480.16,-1648.09 2470.8,-1643.12 2469.74,-1650.04"/>
</g>
<!-- Node0x55cedc390d18 -->
<g id="node32" class="node">
<title>Node0x55cedc390d18</title>
<polygon fill="none" stroke="black" points="815,-1453.1 486,-1453.1 486,-1417.1 815,-1417.1 815,-1453.1"/>
<text text-anchor="middle" x="650.5" y="-1431.4" font-family="Times,serif" font-size="14.00">{lib/libLLVMMC.a(MCAsmInfoCOFF.cpp.o)}</text>
</g>
<!-- Node0x55cedc390d18&#45;&gt;Node0x55cedc391358 -->
<g id="edge54" class="edge">
<title>Node0x55cedc390d18&#45;&gt;Node0x55cedc391358</title>
<path fill="none" stroke="black" d="M780.8,-1453.12C818.89,-1458.42 860.72,-1464.25 899.42,-1469.65"/>
<polygon fill="black" stroke="black" points="899.32,-1473.17 909.71,-1471.08 900.29,-1466.23 899.32,-1473.17"/>
</g>
<!-- Node0x55cedc38fb98 -->
<g id="node33" class="node">
<title>Node0x55cedc38fb98</title>
<polygon fill="none" stroke="black" points="821,-1507.1 480,-1507.1 480,-1471.1 821,-1471.1 821,-1507.1"/>
<text text-anchor="middle" x="650.5" y="-1485.4" font-family="Times,serif" font-size="14.00">{lib/libLLVMMC.a(MCAsmInfoDarwin.cpp.o)}</text>
</g>
<!-- Node0x55cedc38fb98&#45;&gt;Node0x55cedc391358 -->
<g id="edge55" class="edge">
<title>Node0x55cedc38fb98&#45;&gt;Node0x55cedc391358</title>
<path fill="none" stroke="black" d="M821.18,-1489.1C842.25,-1489.1 863.71,-1489.1 884.54,-1489.1"/>
<polygon fill="black" stroke="black" points="884.71,-1492.6 894.71,-1489.1 884.71,-1485.6 884.71,-1492.6"/>
</g>
<!-- Node0x55cedc399558 -->
<g id="node34" class="node">
<title>Node0x55cedc399558</title>
<polygon fill="none" stroke="black" points="809,-1561.1 492,-1561.1 492,-1525.1 809,-1525.1 809,-1561.1"/>
<text text-anchor="middle" x="650.5" y="-1539.4" font-family="Times,serif" font-size="14.00">{lib/libLLVMMC.a(MCAsmInfoELF.cpp.o)}</text>
</g>
<!-- Node0x55cedc399558&#45;&gt;Node0x55cedc397438 -->
<g id="edge57" class="edge">
<title>Node0x55cedc399558&#45;&gt;Node0x55cedc397438</title>
<path fill="none" stroke="black" d="M711.75,-1561.2C820.26,-1593.25 1056.16,-1660.31 1259,-1700.1 1274.2,-1703.08 1290.11,-1705.84 1306.03,-1708.36"/>
<polygon fill="black" stroke="black" points="1305.52,-1711.82 1315.94,-1709.9 1306.6,-1704.9 1305.52,-1711.82"/>
</g>
<!-- Node0x55cedc399558&#45;&gt;Node0x55cedc391358 -->
<g id="edge56" class="edge">
<title>Node0x55cedc399558&#45;&gt;Node0x55cedc391358</title>
<path fill="none" stroke="black" d="M780.8,-1525.08C818.89,-1519.77 860.72,-1513.94 899.42,-1508.55"/>
<polygon fill="black" stroke="black" points="900.29,-1511.96 909.71,-1507.11 899.32,-1505.03 900.29,-1511.96"/>
</g>
<!-- Node0x55cedc398298 -->
<g id="node35" class="node">
<title>Node0x55cedc398298</title>
<polygon fill="none" stroke="black" points="382.5,-3126.1 61.5,-3126.1 61.5,-3090.1 382.5,-3090.1 382.5,-3126.1"/>
<text text-anchor="middle" x="222" y="-3104.4" font-family="Times,serif" font-size="14.00">{lib/libLLVMMC.a(MCCodeEmitter.cpp.o)}</text>
</g>
<!-- Node0x55cedc390548 -->
<g id="node36" class="node">
<title>Node0x55cedc390548</title>
<polygon fill="none" stroke="black" points="425.5,-3180.1 18.5,-3180.1 18.5,-3144.1 425.5,-3144.1 425.5,-3180.1"/>
<text text-anchor="middle" x="222" y="-3158.4" font-family="Times,serif" font-size="14.00">{lib/libLLVMMC.a(MCMachObjectTargetWriter.cpp.o)}</text>
</g>
<!-- Node0x55cedc381d18&#45;&gt;Node0x55cedc389dd8 -->
<g id="edge173" class="edge">
<title>Node0x55cedc381d18&#45;&gt;Node0x55cedc389dd8</title>
<path fill="none" stroke="black" d="M1258.82,-2521.84C1245.29,-2521.86 1231.72,-2521.84 1218.32,-2521.78"/>
<polygon fill="black" stroke="black" points="1218.13,-2518.28 1208.11,-2521.73 1218.09,-2525.28 1218.13,-2518.28"/>
</g>
<!-- Node0x55cedc3995a8 -->
<g id="node39" class="node">
<title>Node0x55cedc3995a8</title>
<polygon fill="none" stroke="black" points="421,-3234.1 23,-3234.1 23,-3198.1 421,-3198.1 421,-3234.1"/>
<text text-anchor="middle" x="222" y="-3212.4" font-family="Times,serif" font-size="14.00">{lib/libLLVMMC.a(MCELFObjectTargetWriter.cpp.o)}</text>
</g>
<!-- Node0x55cedc3810e8 -->
<g id="node40" class="node">
<title>Node0x55cedc3810e8</title>
<polygon fill="none" stroke="black" points="1594.5,-1225.1 1324.5,-1225.1 1324.5,-1189.1 1594.5,-1189.1 1594.5,-1225.1"/>
<text text-anchor="middle" x="1459.5" y="-1203.4" font-family="Times,serif" font-size="14.00">{lib/libLLVMMC.a(MCValue.cpp.o)}</text>
</g>
<!-- Node0x55cedc3810e8&#45;&gt;Node0x55cedc397ca8 -->
<g id="edge67" class="edge">
<title>Node0x55cedc3810e8&#45;&gt;Node0x55cedc397ca8</title>
<path fill="none" stroke="black" d="M1594.59,-1202.91C1618.71,-1207.99 1641.9,-1217.51 1660,-1234.1 1713.73,-1283.35 1642.94,-1344.13 1696,-1394.1 1703.49,-1401.15 1712.07,-1406.78 1721.29,-1411.23"/>
<polygon fill="black" stroke="black" points="1720.14,-1414.55 1730.71,-1415.31 1722.92,-1408.12 1720.14,-1414.55"/>
</g>
<!-- Node0x55cedc382a38 -->
<g id="node41" class="node">
<title>Node0x55cedc382a38</title>
<polygon fill="none" stroke="black" points="1189.5,-373.1 890.5,-373.1 890.5,-337.1 1189.5,-337.1 1189.5,-373.1"/>
<text text-anchor="middle" x="1040" y="-351.4" font-family="Times,serif" font-size="14.00">{lib/libLLVMMC.a(MCWin64EH.cpp.o)}</text>
</g>
<!-- Node0x55cedc382a38&#45;&gt;Node0x55cedc397438 -->
<g id="edge75" class="edge">
<title>Node0x55cedc382a38&#45;&gt;Node0x55cedc397438</title>
<path fill="none" stroke="black" d="M1067.69,-373.24C1109.83,-403.66 1190.32,-469.41 1223,-548.1 1247.56,-607.23 1216.12,-1652.54 1259,-1700.1 1271.74,-1714.22 1288.08,-1723.56 1305.91,-1729.51"/>
<polygon fill="black" stroke="black" points="1305.37,-1733.01 1315.95,-1732.48 1307.35,-1726.29 1305.37,-1733.01"/>
</g>
<!-- Node0x55cedc382a38&#45;&gt;Node0x55cedc397ca8 -->
<g id="edge76" class="edge">
<title>Node0x55cedc382a38&#45;&gt;Node0x55cedc397ca8</title>
<path fill="none" stroke="black" d="M1065.83,-373.29C1106.07,-404.27 1184.87,-471.39 1223,-548.1 1265.94,-634.46 1194.25,-690.62 1259,-762.1 1382.99,-898.98 1542.86,-728.31 1660,-871.1 1733.89,-961.16 1617.52,-1308 1696,-1394.1 1703.3,-1402.11 1711.98,-1408.37 1721.48,-1413.21"/>
<polygon fill="black" stroke="black" points="1720.27,-1416.5 1730.82,-1417.43 1723.15,-1410.12 1720.27,-1416.5"/>
</g>
<!-- Node0x55cedc382a38&#45;&gt;Node0x55cedc3841a8 -->
<g id="edge77" class="edge">
<title>Node0x55cedc382a38&#45;&gt;Node0x55cedc3841a8</title>
<path fill="none" stroke="black" d="M1189.53,-365.13C1352.76,-379.54 1599.88,-412.44 1660,-482.1 1754.08,-591.11 1597.16,-1024.38 1696,-1129.1 1747.28,-1183.42 1958.39,-1145.85 2030,-1167.1 2047.15,-1172.19 2048.99,-1179.55 2066,-1185.1 2213.4,-1233.18 2296.99,-1136.95 2410,-1243.1 2461.23,-1291.22 2420.5,-1331.6 2446,-1397.1 2482.72,-1491.41 2547.7,-1592.95 2579.27,-1639.74"/>
<polygon fill="black" stroke="black" points="2576.42,-1641.78 2584.94,-1648.08 2582.21,-1637.85 2576.42,-1641.78"/>
</g>
<!-- Node0x55cedc38a6e8 -->
<g id="node42" class="node">
<title>Node0x55cedc38a6e8</title>
<polygon fill="none" stroke="black" points="1600,-357.1 1319,-357.1 1319,-321.1 1600,-321.1 1600,-357.1"/>
<text text-anchor="middle" x="1459.5" y="-335.4" font-family="Times,serif" font-size="14.00">{lib/libLLVMMC.a(MCWinEH.cpp.o)}</text>
</g>
<!-- Node0x55cedc382a38&#45;&gt;Node0x55cedc38a6e8 -->
<g id="edge78" class="edge">
<title>Node0x55cedc382a38&#45;&gt;Node0x55cedc38a6e8</title>
<path fill="none" stroke="black" d="M1189.66,-349.4C1228.27,-347.92 1269.87,-346.33 1308.54,-344.84"/>
<polygon fill="black" stroke="black" points="1308.97,-348.33 1318.83,-344.45 1308.7,-341.34 1308.97,-348.33"/>
</g>
<!-- Node0x55cedc388b18 -->
<g id="node43" class="node">
<title>Node0x55cedc388b18</title>
<polygon fill="none" stroke="black" points="1223,-593.1 857,-593.1 857,-557.1 1223,-557.1 1223,-593.1"/>
<text text-anchor="middle" x="1040" y="-571.4" font-family="Times,serif" font-size="14.00">{lib/libLLVMMC.a(MCWinCOFFStreamer.cpp.o)}</text>
</g>
<!-- Node0x55cedc388b18&#45;&gt;Node0x55cedc397438 -->
<g id="edge80" class="edge">
<title>Node0x55cedc388b18&#45;&gt;Node0x55cedc397438</title>
<path fill="none" stroke="black" d="M1045.95,-593.19C1069.34,-679.33 1169.89,-1056.84 1223,-1372.1 1235.18,-1444.4 1207.81,-1647.6 1259,-1700.1 1272.02,-1713.45 1288.28,-1722.41 1305.87,-1728.23"/>
<polygon fill="black" stroke="black" points="1305.18,-1731.68 1315.76,-1731.15 1307.16,-1724.96 1305.18,-1731.68"/>
</g>
<!-- Node0x55cedc388b18&#45;&gt;Node0x55cedc397ca8 -->
<g id="edge81" class="edge">
<title>Node0x55cedc388b18&#45;&gt;Node0x55cedc397ca8</title>
<path fill="none" stroke="black" d="M1049.18,-593.18C1073.41,-644.72 1150.02,-793.63 1259,-871.1 1411.05,-979.18 1542.64,-850.09 1660,-995.1 1716.01,-1064.3 1635.33,-1328.94 1696,-1394.1 1703.31,-1401.95 1711.95,-1408.11 1721.37,-1412.89"/>
<polygon fill="black" stroke="black" points="1720.08,-1416.15 1730.64,-1417.06 1722.96,-1409.76 1720.08,-1416.15"/>
</g>
<!-- Node0x55cedc388b18&#45;&gt;Node0x55cedc3975c8 -->
<g id="edge82" class="edge">
<title>Node0x55cedc388b18&#45;&gt;Node0x55cedc3975c8</title>
<path fill="none" stroke="black" d="M1223.21,-562.58C1383.76,-555.95 1601.03,-559.14 1660,-619.1 1763.31,-724.14 1599.15,-1170.08 1696,-1281.1 1698.44,-1283.89 1701.04,-1286.49 1703.78,-1288.9"/>
<polygon fill="black" stroke="black" points="1701.83,-1291.82 1711.87,-1295.21 1706.14,-1286.3 1701.83,-1291.82"/>
</g>
<!-- Node0x55cedc388b18&#45;&gt;Node0x55cedc383258 -->
<g id="edge85" class="edge">
<title>Node0x55cedc388b18&#45;&gt;Node0x55cedc383258</title>
<path fill="none" stroke="black" d="M1162.35,-593.15C1333.25,-619.75 1627.74,-670.42 1660,-708.1 1751.48,-814.96 1601.85,-1235.58 1696,-1340.1 1700.79,-1345.42 1706.19,-1349.97 1712.03,-1353.84"/>
<polygon fill="black" stroke="black" points="1710.5,-1357 1720.89,-1359.05 1714.05,-1350.97 1710.5,-1357"/>
</g>
<!-- Node0x55cedc388b18&#45;&gt;Node0x55cedc398fb8 -->
<g id="edge79" class="edge">
<title>Node0x55cedc388b18&#45;&gt;Node0x55cedc398fb8</title>
<path fill="none" stroke="black" d="M1085.43,-557C1272.85,-483.9 2007.63,-230.31 2410,-572.1 2531.73,-675.5 2584.14,-1211.05 2595.21,-1341.45"/>
<polygon fill="black" stroke="black" points="2591.75,-1342.12 2596.07,-1351.8 2598.73,-1341.54 2591.75,-1342.12"/>
</g>
<!-- Node0x55cedc388b18&#45;&gt;Node0x55cedc3841a8 -->
<g id="edge84" class="edge">
<title>Node0x55cedc388b18&#45;&gt;Node0x55cedc3841a8</title>
<path fill="none" stroke="black" d="M1092.63,-556.97C1136.31,-542.65 1200.89,-523.82 1259,-516.1 1347.33,-504.36 1595.27,-454.85 1660,-516.1 1712.62,-565.89 1648.95,-1112.01 1696,-1167.1 1794.62,-1282.57 1882.18,-1204.31 2030,-1239.1 2199.67,-1279.03 2271.45,-1230.33 2410,-1336.1 2413.45,-1338.73 2538.5,-1561.05 2582.43,-1639.25"/>
<polygon fill="black" stroke="black" points="2579.42,-1641.05 2587.37,-1648.05 2585.53,-1637.62 2579.42,-1641.05"/>
</g>
<!-- Node0x55cedc388b18&#45;&gt;Node0x55cedc37dc68 -->
<g id="edge83" class="edge">
<title>Node0x55cedc388b18&#45;&gt;Node0x55cedc37dc68</title>
<path fill="none" stroke="black" d="M1134.23,-557.07C1288.42,-529.68 1586.84,-487.67 1660,-557.1 1715.37,-609.64 1644.11,-1187.12 1696,-1243.1 1797.76,-1352.85 1921.73,-1182.76 2030,-1286.1 2096.6,-1349.66 2016.72,-1412.33 2066,-1490.1 2094.56,-1535.17 2146.56,-1568.33 2185.75,-1588.42"/>
<polygon fill="black" stroke="black" points="2184.4,-1591.66 2194.91,-1593 2187.53,-1585.4 2184.4,-1591.66"/>
</g>
<!-- Node0x55cedc37bb98&#45;&gt;Node0x55cedc397438 -->
<g id="edge91" class="edge">
<title>Node0x55cedc37bb98&#45;&gt;Node0x55cedc397438</title>
<path fill="none" stroke="#7fb2ff" d="M2071.78,-1748.29C2057.65,-1747.49 2043.58,-1746.75 2030,-1746.1 1888.88,-1739.31 1727.98,-1734.19 1613.28,-1730.98"/>
<polygon fill="#7fb2ff" stroke="#7fb2ff" points="1613.11,-1727.47 1603.02,-1730.69 1612.92,-1734.47 1613.11,-1727.47"/>
</g>
<!-- Node0x55cedc381688 -->
<g id="node45" class="node">
<title>Node0x55cedc381688</title>
<polygon fill="none" stroke="black" points="444,-3072.1 0,-3072.1 0,-3036.1 444,-3036.1 444,-3072.1"/>
<text text-anchor="middle" x="222" y="-3050.4" font-family="Times,serif" font-size="14.00">{lib/libLLVMMC.a(MCTargetOptionsCommandFlags.cpp.o)}</text>
</g>
<!-- Node0x55cedc381688&#45;&gt;Node0x55cedc3847e8 -->
<g id="edge99" class="edge">
<title>Node0x55cedc381688&#45;&gt;Node0x55cedc3847e8</title>
<path fill="none" stroke="black" d="M444.06,-3054.1C454,-3054.1 463.93,-3054.1 473.74,-3054.1"/>
<polygon fill="black" stroke="black" points="473.93,-3057.6 483.93,-3054.1 473.93,-3050.6 473.93,-3057.6"/>
</g>
<!-- Node0x55cedc3992d8 -->
<g id="node46" class="node">
<title>Node0x55cedc3992d8</title>
<polygon fill="none" stroke="black" points="386,-2395.1 58,-2395.1 58,-2359.1 386,-2359.1 386,-2395.1"/>
<text text-anchor="middle" x="222" y="-2373.4" font-family="Times,serif" font-size="14.00">{lib/libLLVMMC.a(MCAsmStreamer.cpp.o)}</text>
</g>
<!-- Node0x55cedc3992d8&#45;&gt;Node0x55cedc397438 -->
<g id="edge103" class="edge">
<title>Node0x55cedc3992d8&#45;&gt;Node0x55cedc397438</title>
<path fill="none" stroke="black" d="M257.33,-2359.03C431.9,-2267.19 1220.33,-1852.4 1414.96,-1750"/>
<polygon fill="black" stroke="black" points="1416.82,-1752.98 1424.04,-1745.23 1413.56,-1746.79 1416.82,-1752.98"/>
</g>
<!-- Node0x55cedc3992d8&#45;&gt;Node0x55cedc3980b8 -->
<g id="edge102" class="edge">
<title>Node0x55cedc3992d8&#45;&gt;Node0x55cedc3980b8</title>
<path fill="none" stroke="black" d="M234.14,-2359.09C266.71,-2307.55 366.65,-2157.05 480,-2062.1 888.47,-1719.9 1525.78,-1549.92 1766.03,-1495.31"/>
<polygon fill="black" stroke="black" points="1766.81,-1498.72 1775.79,-1493.11 1765.27,-1491.9 1766.81,-1498.72"/>
</g>
<!-- Node0x55cedc3992d8&#45;&gt;Node0x55cedc399378 -->
<g id="edge104" class="edge">
<title>Node0x55cedc3992d8&#45;&gt;Node0x55cedc399378</title>
<path fill="none" stroke="black" d="M235.27,-2395.41C268.17,-2442.59 363.72,-2567.81 480,-2613.1 602.23,-2660.71 1568.62,-2669.22 1660,-2575.1 1757.53,-2474.65 1613.81,-2059.44 1696,-1946.1 1710.37,-1926.28 1731.71,-1912.5 1754.34,-1902.92"/>
<polygon fill="black" stroke="black" points="1755.74,-1906.13 1763.75,-1899.2 1753.16,-1899.62 1755.74,-1906.13"/>
</g>
<!-- Node0x55cedc3992d8&#45;&gt;Node0x55cedc397ca8 -->
<g id="edge105" class="edge">
<title>Node0x55cedc3992d8&#45;&gt;Node0x55cedc397ca8</title>
<path fill="none" stroke="black" d="M222.55,-2359.05C220.87,-2254.21 225.34,-1717.52 480,-1408.1 655.02,-1195.44 1455.92,-844.15 1660,-1029.1 1720.39,-1083.83 1640.21,-1334.68 1696,-1394.1 1703.35,-1401.92 1712,-1408.05 1721.45,-1412.82"/>
<polygon fill="black" stroke="black" points="1720.17,-1416.08 1730.72,-1416.98 1723.03,-1409.7 1720.17,-1416.08"/>
</g>
<!-- Node0x55cedc3992d8&#45;&gt;Node0x55cedc3832a8 -->
<g id="edge108" class="edge">
<title>Node0x55cedc3992d8&#45;&gt;Node0x55cedc3832a8</title>
<path fill="none" stroke="black" d="M274.31,-2395.24C381.06,-2431.9 635.6,-2513.76 857,-2542.1 945.5,-2553.42 1595.4,-2603.64 1660,-2542.1 1719.76,-2485.16 1641.02,-1861.66 1696,-1800.1 1700.77,-1794.76 1706.15,-1790.19 1711.98,-1786.3"/>
<polygon fill="black" stroke="black" points="1713.99,-1789.18 1720.82,-1781.08 1710.43,-1783.15 1713.99,-1789.18"/>
</g>
<!-- Node0x55cedc3992d8&#45;&gt;Node0x55cedc383258 -->
<g id="edge110" class="edge">
<title>Node0x55cedc3992d8&#45;&gt;Node0x55cedc383258</title>
<path fill="none" stroke="black" d="M223.89,-2358.9C233.65,-2162.42 323.59,-438.41 480,-282.1 572.74,-189.42 1571.49,-193.37 1660,-290.1 1738.8,-376.22 1618.86,-1252.48 1696,-1340.1 1700.73,-1345.47 1706.08,-1350.06 1711.88,-1353.97"/>
<polygon fill="black" stroke="black" points="1710.31,-1357.11 1720.69,-1359.23 1713.9,-1351.1 1710.31,-1357.11"/>
</g>
<!-- Node0x55cedc3992d8&#45;&gt;Node0x55cedc398fb8 -->
<g id="edge101" class="edge">
<title>Node0x55cedc3992d8&#45;&gt;Node0x55cedc398fb8</title>
<path fill="none" stroke="black" d="M235.06,-2395.23C268.13,-2443.5 365.48,-2576.1 480,-2644.1 701.48,-2775.61 781.42,-2797.1 1039,-2797.1 1039,-2797.1 1039,-2797.1 1864,-2797.1 1986.28,-2797.1 2357.81,-2676.22 2410,-2604.1 2472.9,-2517.17 2416.85,-1742.36 2446,-1639.1 2473.36,-1542.18 2542.17,-1442.62 2576.84,-1396.51"/>
<polygon fill="black" stroke="black" points="2579.84,-1398.35 2583.1,-1388.27 2574.27,-1394.12 2579.84,-1398.35"/>
</g>
<!-- Node0x55cedc3992d8&#45;&gt;Node0x55cedc3841a8 -->
<g id="edge109" class="edge">
<title>Node0x55cedc3992d8&#45;&gt;Node0x55cedc3841a8</title>
<path fill="none" stroke="black" d="M227.24,-2395.5C244.36,-2465.01 315.47,-2712.58 480,-2811.1 586.67,-2874.97 914.66,-2835.1 1039,-2835.1 1039,-2835.1 1039,-2835.1 1864,-2835.1 1985.45,-2835.1 2319.19,-2891.74 2410,-2811.1 2583.18,-2657.3 2596.53,-1855.86 2597.45,-1694.44"/>
<polygon fill="black" stroke="black" points="2600.95,-1694.36 2597.5,-1684.34 2593.95,-1694.33 2600.95,-1694.36"/>
</g>
<!-- Node0x55cedc3992d8&#45;&gt;Node0x55cedc384298 -->
<g id="edge107" class="edge">
<title>Node0x55cedc3992d8&#45;&gt;Node0x55cedc384298</title>
<path fill="none" stroke="black" d="M226.48,-2395.3C241.38,-2467.59 307.09,-2735.75 480,-2844.1 585.4,-2910.15 914.61,-2873.1 1039,-2873.1 1039,-2873.1 1039,-2873.1 2239,-2873.1 2422.7,-2873.1 2633.24,-2873.1 2776.46,-2873.1"/>
<polygon fill="black" stroke="black" points="2776.65,-2876.6 2786.65,-2873.1 2776.65,-2869.6 2776.65,-2876.6"/>
</g>
<!-- Node0x55cedc3992d8&#45;&gt;Node0x55cedc3918a8 -->
<g id="edge100" class="edge">
<title>Node0x55cedc3992d8&#45;&gt;Node0x55cedc3918a8</title>
<path fill="none" stroke="black" d="M386.07,-2377.1C416.39,-2377.1 448.14,-2377.1 478.68,-2377.1"/>
<polygon fill="black" stroke="black" points="478.99,-2380.6 488.99,-2377.1 478.99,-2373.6 478.99,-2380.6"/>
</g>
<!-- Node0x55cedc3992d8&#45;&gt;Node0x55cedc397898 -->
<g id="edge106" class="edge">
<title>Node0x55cedc3992d8&#45;&gt;Node0x55cedc397898</title>
<path fill="none" stroke="black" d="M225.94,-2359.09C245.5,-2239.79 359.77,-1550.86 480,-995.1 535.64,-737.92 617.03,-430.14 641.96,-337.08"/>
<polygon fill="black" stroke="black" points="645.38,-337.86 644.59,-327.29 638.62,-336.04 645.38,-337.86"/>
</g>
<!-- Node0x55cedc398d88 -->
<g id="node47" class="node">
<title>Node0x55cedc398d88</title>
<polygon fill="none" stroke="black" points="1203,-1417.1 877,-1417.1 877,-1381.1 1203,-1381.1 1203,-1417.1"/>
<text text-anchor="middle" x="1040" y="-1395.4" font-family="Times,serif" font-size="14.00">{lib/libLLVMMC.a(MCELFStreamer.cpp.o)}</text>
</g>
<!-- Node0x55cedc398d88&#45;&gt;Node0x55cedc397438 -->
<g id="edge112" class="edge">
<title>Node0x55cedc398d88&#45;&gt;Node0x55cedc397438</title>
<path fill="none" stroke="black" d="M1153.22,-1417.12C1179.58,-1426.47 1205.15,-1440.63 1223,-1462.1 1291.41,-1544.34 1182.77,-1625.04 1259,-1700.1 1272.19,-1713.08 1288.45,-1721.85 1305.96,-1727.59"/>
<polygon fill="black" stroke="black" points="1305.22,-1731.02 1315.8,-1730.47 1307.19,-1724.3 1305.22,-1731.02"/>
</g>
<!-- Node0x55cedc398d88&#45;&gt;Node0x55cedc397ca8 -->
<g id="edge113" class="edge">
<title>Node0x55cedc398d88&#45;&gt;Node0x55cedc397ca8</title>
<path fill="none" stroke="black" d="M1046.26,-1381.09C1064.35,-1322.99 1130.04,-1140.23 1259,-1071.1 1337.54,-1028.99 1593.59,-1011.68 1660,-1071.1 1713.82,-1119.25 1646.23,-1341.76 1696,-1394.1 1703.4,-1401.87 1712.09,-1407.97 1721.56,-1412.72"/>
<polygon fill="black" stroke="black" points="1720.29,-1415.99 1730.85,-1416.86 1723.14,-1409.59 1720.29,-1415.99"/>
</g>
<!-- Node0x55cedc398d88&#45;&gt;Node0x55cedc3975c8 -->
<g id="edge114" class="edge">
<title>Node0x55cedc398d88&#45;&gt;Node0x55cedc3975c8</title>
<path fill="none" stroke="black" d="M1043.83,-1380.83C1059.88,-1280.05 1142.71,-793.35 1259,-708.1 1402.74,-602.73 1530.09,-586.09 1660,-708.1 1753,-795.44 1611.72,-1185.31 1696,-1281.1 1698.45,-1283.88 1701.06,-1286.47 1703.81,-1288.87"/>
<polygon fill="black" stroke="black" points="1701.88,-1291.8 1711.92,-1295.16 1706.17,-1286.27 1701.88,-1291.8"/>
</g>
<!-- Node0x55cedc398d88&#45;&gt;Node0x55cedc3832a8 -->
<g id="edge116" class="edge">
<title>Node0x55cedc398d88&#45;&gt;Node0x55cedc3832a8</title>
<path fill="none" stroke="black" d="M1154.57,-1417.13C1180.58,-1426.48 1205.65,-1440.65 1223,-1462.1 1305.23,-1563.76 1162.42,-1665.95 1259,-1754.1 1322.68,-1812.22 1553.85,-1803.44 1710.74,-1789.78"/>
<polygon fill="black" stroke="black" points="1711.31,-1793.24 1720.96,-1788.87 1710.69,-1786.27 1711.31,-1793.24"/>
</g>
<!-- Node0x55cedc398d88&#45;&gt;Node0x55cedc383258 -->
<g id="edge118" class="edge">
<title>Node0x55cedc398d88&#45;&gt;Node0x55cedc383258</title>
<path fill="none" stroke="black" d="M1042.57,-1380.78C1050.04,-1306.77 1088.95,-1028.63 1259,-919.1 1408.83,-822.59 1528.72,-798.56 1660,-919.1 1729.17,-982.6 1632.17,-1271.23 1696,-1340.1 1700.8,-1345.28 1706.18,-1349.72 1711.97,-1353.52"/>
<polygon fill="black" stroke="black" points="1710.35,-1356.62 1720.76,-1358.63 1713.88,-1350.57 1710.35,-1356.62"/>
</g>
<!-- Node0x55cedc398d88&#45;&gt;Node0x55cedc3856e8 -->
<g id="edge119" class="edge">
<title>Node0x55cedc398d88&#45;&gt;Node0x55cedc3856e8</title>
<path fill="none" stroke="black" d="M1155.25,-1417.14C1181.09,-1426.5 1205.9,-1440.66 1223,-1462.1 1314.72,-1577.09 1173.91,-1671.11 1259,-1791.1 1358.78,-1931.81 1555.58,-1988.62 1697.25,-2011.56"/>
<polygon fill="black" stroke="black" points="1696.93,-2015.06 1707.36,-2013.16 1698.02,-2008.14 1696.93,-2015.06"/>
</g>
<!-- Node0x55cedc398d88&#45;&gt;Node0x55cedc398fb8 -->
<g id="edge111" class="edge">
<title>Node0x55cedc398d88&#45;&gt;Node0x55cedc398fb8</title>
<path fill="none" stroke="black" d="M1043.13,-1381.04C1056.23,-1273.37 1129.63,-717.27 1259,-619.1 1414.23,-501.3 2249.16,-542.11 2410,-675.1 2517.06,-763.62 2579.57,-1222.51 2594.18,-1341.75"/>
<polygon fill="black" stroke="black" points="2590.73,-1342.4 2595.4,-1351.91 2597.68,-1341.56 2590.73,-1342.4"/>
</g>
<!-- Node0x55cedc398d88&#45;&gt;Node0x55cedc3841a8 -->
<g id="edge117" class="edge">
<title>Node0x55cedc398d88&#45;&gt;Node0x55cedc3841a8</title>
<path fill="none" stroke="black" d="M1156.63,-1417.14C1182.11,-1426.51 1206.42,-1440.68 1223,-1462.1 1284.4,-1541.43 1196.84,-1833.35 1259,-1912.1 1385.53,-2072.39 1494.3,-2022.15 1696,-2054.1 1842.62,-2077.32 1891.25,-2106.85 2030,-2054.1 2050.01,-2046.49 2048.01,-2033.7 2066,-2022.1 2206.64,-1931.44 2273.99,-1966.56 2410,-1869.1 2482.09,-1817.44 2547.83,-1734.54 2578.81,-1692.45"/>
<polygon fill="black" stroke="black" points="2581.82,-1694.26 2584.88,-1684.12 2576.16,-1690.14 2581.82,-1694.26"/>
</g>
<!-- Node0x55cedc398d88&#45;&gt;Node0x55cedc37dc68 -->
<g id="edge115" class="edge">
<title>Node0x55cedc398d88&#45;&gt;Node0x55cedc37dc68</title>
<path fill="none" stroke="black" d="M1116.77,-1417.19C1238.38,-1445.78 1484.9,-1501.85 1696,-1538.1 1843.57,-1563.44 1881.64,-1561.93 2030,-1582.1 2052.5,-1585.15 2076.36,-1588.45 2099.58,-1591.68"/>
<polygon fill="black" stroke="black" points="2099.1,-1595.15 2109.48,-1593.07 2100.06,-1588.22 2099.1,-1595.15"/>
</g>
<!-- Node0x55cedc391268 -->
<g id="node48" class="node">
<title>Node0x55cedc391268</title>
<polygon fill="none" stroke="black" points="1213.5,-159.1 866.5,-159.1 866.5,-123.1 1213.5,-123.1 1213.5,-159.1"/>
<text text-anchor="middle" x="1040" y="-137.4" font-family="Times,serif" font-size="14.00">{lib/libLLVMMC.a(MCMachOStreamer.cpp.o)}</text>
</g>
<!-- Node0x55cedc391268&#45;&gt;Node0x55cedc397438 -->
<g id="edge121" class="edge">
<title>Node0x55cedc391268&#45;&gt;Node0x55cedc397438</title>
<path fill="none" stroke="black" d="M1112.98,-159.23C1152.66,-173.25 1198.69,-197.07 1223,-236.1 1266.02,-305.15 1204.72,-1639.49 1259,-1700.1 1271.69,-1714.27 1288,-1723.63 1305.82,-1729.59"/>
<polygon fill="black" stroke="black" points="1305.28,-1733.08 1315.86,-1732.57 1307.27,-1726.37 1305.28,-1733.08"/>
</g>
<!-- Node0x55cedc391268&#45;&gt;Node0x55cedc397ca8 -->
<g id="edge122" class="edge">
<title>Node0x55cedc391268&#45;&gt;Node0x55cedc397ca8</title>
<path fill="none" stroke="black" d="M1106.11,-159.15C1149.31,-170.87 1207.36,-186.14 1259,-198.1 1436.14,-239.11 1542.61,-140.25 1660,-279.1 1740.03,-373.75 1614.18,-1300.98 1696,-1394.1 1703.23,-1402.33 1711.9,-1408.72 1721.45,-1413.65"/>
<polygon fill="black" stroke="black" points="1720.29,-1416.97 1730.84,-1417.93 1723.19,-1410.6 1720.29,-1416.97"/>
</g>
<!-- Node0x55cedc391268&#45;&gt;Node0x55cedc3975c8 -->
<g id="edge123" class="edge">
<title>Node0x55cedc391268&#45;&gt;Node0x55cedc3975c8</title>
<path fill="none" stroke="black" d="M1213.69,-136.01C1385.85,-132.79 1629.05,-133.98 1660,-165.1 1744.52,-250.07 1628.08,-1144.36 1696,-1243.1 1711.55,-1265.7 1735.94,-1281.04 1761.28,-1291.43"/>
<polygon fill="black" stroke="black" points="1760.05,-1294.7 1770.64,-1295.03 1762.57,-1288.17 1760.05,-1294.7"/>
</g>
<!-- Node0x55cedc391268&#45;&gt;Node0x55cedc383258 -->
<g id="edge126" class="edge">
<title>Node0x55cedc391268&#45;&gt;Node0x55cedc383258</title>
<path fill="none" stroke="black" d="M1210.58,-159.12C1226.94,-160.82 1243.29,-162.5 1259,-164.1 1303.54,-168.61 1629.4,-170.43 1660,-203.1 1746.41,-295.34 1612.6,-1245.12 1696,-1340.1 1700.72,-1345.48 1706.07,-1350.08 1711.87,-1353.99"/>
<polygon fill="black" stroke="black" points="1710.29,-1357.13 1720.67,-1359.25 1713.88,-1351.12 1710.29,-1357.13"/>
</g>
<!-- Node0x55cedc391268&#45;&gt;Node0x55cedc398fb8 -->
<g id="edge120" class="edge">
<title>Node0x55cedc391268&#45;&gt;Node0x55cedc398fb8</title>
<path fill="none" stroke="black" d="M1073.34,-123C1114.82,-100.92 1189.72,-64.84 1259,-51.1 1433.82,-16.43 1486.29,-11.27 1660,-51.1 2020.96,-133.86 2183.87,-120.83 2410,-414.1 2527.14,-566.01 2583.9,-1199.32 2595.32,-1341.63"/>
<polygon fill="black" stroke="black" points="2591.84,-1342.04 2596.12,-1351.73 2598.82,-1341.49 2591.84,-1342.04"/>
</g>
<!-- Node0x55cedc391268&#45;&gt;Node0x55cedc3841a8 -->
<g id="edge125" class="edge">
<title>Node0x55cedc391268&#45;&gt;Node0x55cedc3841a8</title>
<path fill="none" stroke="black" d="M1097.67,-123.04C1141.26,-110.13 1203.27,-93.9 1259,-87.1 1347.46,-76.31 1581.2,-45.49 1660,-87.1 1790.65,-156.08 2354.69,-1048.1 2410,-1185.1 2445.78,-1273.72 2414.08,-1307.02 2446,-1397.1 2479.72,-1492.26 2545.84,-1593.01 2578.42,-1639.61"/>
<polygon fill="black" stroke="black" points="2575.66,-1641.78 2584.29,-1647.93 2581.39,-1637.74 2575.66,-1641.78"/>
</g>
<!-- Node0x55cedc391268&#45;&gt;Node0x55cedc37dc68 -->
<g id="edge124" class="edge">
<title>Node0x55cedc391268&#45;&gt;Node0x55cedc37dc68</title>
<path fill="none" stroke="black" d="M1142.19,-123.08C1298.62,-97.84 1588.64,-62.26 1660,-131.1 1739.86,-208.13 1629.83,-1040.03 1696,-1129.1 1789.54,-1255.01 1929.76,-1122.46 2030,-1243.1 2100.9,-1328.42 2008.03,-1395.51 2066,-1490.1 2093.8,-1535.45 2145.66,-1568.48 2185.01,-1588.46"/>
<polygon fill="black" stroke="black" points="2183.69,-1591.72 2194.21,-1593.02 2186.8,-1585.44 2183.69,-1591.72"/>
</g>
<!-- Node0x55cedc3903b8 -->
<g id="node49" class="node">
<title>Node0x55cedc3903b8</title>
<polygon fill="none" stroke="black" points="2401.5,-2067.1 2074.5,-2067.1 2074.5,-2031.1 2401.5,-2031.1 2401.5,-2067.1"/>
<text text-anchor="middle" x="2238" y="-2045.4" font-family="Times,serif" font-size="14.00">{lib/libLLVMMC.a(MCNullStreamer.cpp.o)}</text>
</g>
<!-- Node0x55cedc3903b8&#45;&gt;Node0x55cedc3841a8 -->
<g id="edge127" class="edge">
<title>Node0x55cedc3903b8&#45;&gt;Node0x55cedc3841a8</title>
<path fill="none" stroke="black" d="M2386,-2031.03C2394.48,-2027.15 2402.57,-2022.54 2410,-2017.1 2523.18,-1934.12 2574.8,-1761.83 2591.29,-1694.21"/>
<polygon fill="black" stroke="black" points="2594.75,-1694.82 2593.64,-1684.28 2587.93,-1693.21 2594.75,-1694.82"/>
</g>
<!-- Node0x55cedc3830c8 -->
<g id="node50" class="node">
<title>Node0x55cedc3830c8</title>
<polygon fill="none" stroke="black" points="1629.5,-1333.1 1289.5,-1333.1 1289.5,-1297.1 1629.5,-1297.1 1629.5,-1333.1"/>
<text text-anchor="middle" x="1459.5" y="-1311.4" font-family="Times,serif" font-size="14.00">{lib/libLLVMMC.a(MCWasmStreamer.cpp.o)}</text>
</g>
<!-- Node0x55cedc3830c8&#45;&gt;Node0x55cedc397ca8 -->
<g id="edge129" class="edge">
<title>Node0x55cedc3830c8&#45;&gt;Node0x55cedc397ca8</title>
<path fill="none" stroke="black" d="M1629.54,-1332.6C1640.18,-1336.61 1650.44,-1341.39 1660,-1347.1 1682.59,-1360.58 1673.42,-1380.59 1696,-1394.1 1703.91,-1398.83 1712.4,-1402.81 1721.2,-1406.14"/>
<polygon fill="black" stroke="black" points="1720.26,-1409.52 1730.85,-1409.51 1722.57,-1402.91 1720.26,-1409.52"/>
</g>
<!-- Node0x55cedc3830c8&#45;&gt;Node0x55cedc383258 -->
<g id="edge132" class="edge">
<title>Node0x55cedc3830c8&#45;&gt;Node0x55cedc383258</title>
<path fill="none" stroke="black" d="M1599.52,-1333.1C1635.97,-1337.82 1675.43,-1342.93 1712.4,-1347.72"/>
<polygon fill="black" stroke="black" points="1712.4,-1351.25 1722.76,-1349.06 1713.3,-1344.31 1712.4,-1351.25"/>
</g>
<!-- Node0x55cedc3830c8&#45;&gt;Node0x55cedc398fb8 -->
<g id="edge128" class="edge">
<title>Node0x55cedc3830c8&#45;&gt;Node0x55cedc398fb8</title>
<path fill="none" stroke="black" d="M1629.79,-1308.8C1640.87,-1303.55 1651.12,-1296.76 1660,-1288.1 1732.47,-1217.36 1618.94,-1128.81 1696,-1063.1 1937.46,-857.2 2133.24,-907.83 2410,-1063.1 2519.38,-1124.46 2572.53,-1278.47 2590.37,-1342.01"/>
<polygon fill="black" stroke="black" points="2587.01,-1343.02 2593.02,-1351.75 2593.77,-1341.18 2587.01,-1343.02"/>
</g>
<!-- Node0x55cedc3830c8&#45;&gt;Node0x55cedc3841a8 -->
<g id="edge131" class="edge">
<title>Node0x55cedc3830c8&#45;&gt;Node0x55cedc3841a8</title>
<path fill="none" stroke="black" d="M1469.62,-1333.21C1503.7,-1400.07 1625.22,-1631.12 1696,-1670.1 1819.55,-1738.13 2215.96,-1708.39 2439.8,-1684.82"/>
<polygon fill="black" stroke="black" points="2440.42,-1688.27 2449.99,-1683.74 2439.68,-1681.31 2440.42,-1688.27"/>
</g>
<!-- Node0x55cedc3830c8&#45;&gt;Node0x55cedc37dc68 -->
<g id="edge130" class="edge">
<title>Node0x55cedc3830c8&#45;&gt;Node0x55cedc37dc68</title>
<path fill="none" stroke="black" d="M1567.99,-1333.11C1601.23,-1343.42 1635.51,-1359.63 1660,-1385.1 1697.71,-1424.31 1654.39,-1467.04 1696,-1502.1 1810.46,-1598.54 1892.33,-1486.39 2030,-1545.1 2048.9,-1553.16 2047.46,-1565.24 2066,-1574.1 2079.49,-1580.54 2094.11,-1585.87 2108.94,-1590.29"/>
<polygon fill="black" stroke="black" points="2108.12,-1593.69 2118.7,-1593.06 2110.03,-1586.96 2108.12,-1593.69"/>
</g>
<!-- Node0x55cedc389608 -->
<g id="node51" class="node">
<title>Node0x55cedc389608</title>
<polygon fill="none" stroke="black" points="1633.5,-2441.1 1285.5,-2441.1 1285.5,-2405.1 1633.5,-2405.1 1633.5,-2441.1"/>
<text text-anchor="middle" x="1459.5" y="-2419.4" font-family="Times,serif" font-size="14.00">{lib/libLLVMMC.a(MCXCOFFStreamer.cpp.o)}</text>
</g>
<!-- Node0x55cedc389608&#45;&gt;Node0x55cedc384f18 -->
<g id="edge136" class="edge">
<title>Node0x55cedc389608&#45;&gt;Node0x55cedc384f18</title>
<path fill="none" stroke="black" d="M1625.9,-2441.15C1637.73,-2444.99 1649.22,-2449.59 1660,-2455.1 1680.15,-2465.39 1676.01,-2480.49 1696,-2491.1 1703.63,-2495.15 1711.7,-2498.69 1720,-2501.78"/>
<polygon fill="black" stroke="black" points="1718.88,-2505.1 1729.47,-2505.09 1721.19,-2498.49 1718.88,-2505.1"/>
</g>
<!-- Node0x55cedc389608&#45;&gt;Node0x55cedc398fb8 -->
<g id="edge133" class="edge">
<title>Node0x55cedc389608&#45;&gt;Node0x55cedc398fb8</title>
<path fill="none" stroke="black" d="M1633.58,-2432.12C1892.4,-2443.77 2355.85,-2456.8 2410,-2404.1 2470.98,-2344.75 2422.49,-1720.88 2446,-1639.1 2473.83,-1542.31 2542.42,-1442.69 2576.94,-1396.54"/>
<polygon fill="black" stroke="black" points="2579.94,-1398.38 2583.18,-1388.29 2574.35,-1394.16 2579.94,-1398.38"/>
</g>
<!-- Node0x55cedc389608&#45;&gt;Node0x55cedc3841a8 -->
<g id="edge135" class="edge">
<title>Node0x55cedc389608&#45;&gt;Node0x55cedc3841a8</title>
<path fill="none" stroke="black" d="M1569.05,-2441.11C1790.13,-2475.22 2282.49,-2537.32 2410,-2437.1 2531.42,-2341.67 2583.98,-1821.97 2595.16,-1694.39"/>
<polygon fill="black" stroke="black" points="2598.66,-1694.52 2596.03,-1684.25 2591.69,-1693.92 2598.66,-1694.52"/>
</g>
<!-- Node0x55cedc389608&#45;&gt;Node0x55cedc37dc68 -->
<g id="edge134" class="edge">
<title>Node0x55cedc389608&#45;&gt;Node0x55cedc37dc68</title>
<path fill="none" stroke="black" d="M1630.12,-2405.09C1761.64,-2381.48 1936.72,-2326.95 2030,-2201.1 2092.24,-2117.12 2014.44,-1823.03 2066,-1732.1 2092.13,-1686.02 2143.88,-1653.2 2183.64,-1633.48"/>
<polygon fill="black" stroke="black" points="2185.21,-1636.6 2192.69,-1629.1 2182.17,-1630.3 2185.21,-1636.6"/>
</g>
<!-- Node0x55cedc385788 -->
<g id="node52" class="node">
<title>Node0x55cedc385788</title>
<polygon fill="none" stroke="black" points="1621,-753.1 1298,-753.1 1298,-717.1 1621,-717.1 1621,-753.1"/>
<text text-anchor="middle" x="1459.5" y="-731.4" font-family="Times,serif" font-size="14.00">{lib/libLLVMMC.a(MCSectionCOFF.cpp.o)}</text>
</g>
<!-- Node0x55cedc385788&#45;&gt;Node0x55cedc383258 -->
<g id="edge169" class="edge">
<title>Node0x55cedc385788&#45;&gt;Node0x55cedc383258</title>
<path fill="none" stroke="black" d="M1621.09,-740.25C1635.76,-746.47 1649.15,-755.15 1660,-767.1 1745.77,-861.55 1610.33,-1245.55 1696,-1340.1 1700.81,-1345.4 1706.22,-1349.94 1712.07,-1353.81"/>
<polygon fill="black" stroke="black" points="1710.55,-1356.97 1720.94,-1359.01 1714.08,-1350.93 1710.55,-1356.97"/>
</g>
<!-- Node0x55cedc384ba8 -->
<g id="node53" class="node">
<title>Node0x55cedc384ba8</title>
<polygon fill="none" stroke="black" points="1615,-1279.1 1304,-1279.1 1304,-1243.1 1615,-1243.1 1615,-1279.1"/>
<text text-anchor="middle" x="1459.5" y="-1257.4" font-family="Times,serif" font-size="14.00">{lib/libLLVMMC.a(MCSectionELF.cpp.o)}</text>
</g>
<!-- Node0x55cedc384ba8&#45;&gt;Node0x55cedc397ca8 -->
<g id="edge170" class="edge">
<title>Node0x55cedc384ba8&#45;&gt;Node0x55cedc397ca8</title>
<path fill="none" stroke="black" d="M1615.19,-1264.23C1631.47,-1269.58 1646.85,-1277.27 1660,-1288.1 1698.41,-1319.73 1658.02,-1361.96 1696,-1394.1 1703.69,-1400.6 1712.32,-1405.85 1721.5,-1410.05"/>
<polygon fill="black" stroke="black" points="1720.27,-1413.33 1730.85,-1413.91 1722.95,-1406.86 1720.27,-1413.33"/>
</g>
<!-- Node0x55cedc381c78 -->
<g id="node54" class="node">
<title>Node0x55cedc381c78</title>
<polygon fill="none" stroke="black" points="1623,-1691.1 1296,-1691.1 1296,-1655.1 1623,-1655.1 1623,-1691.1"/>
<text text-anchor="middle" x="1459.5" y="-1669.4" font-family="Times,serif" font-size="14.00">{lib/libLLVMMC.a(MCSectionWasm.cpp.o)}</text>
</g>
<!-- Node0x55cedc381c78&#45;&gt;Node0x55cedc397ca8 -->
<g id="edge171" class="edge">
<title>Node0x55cedc381c78&#45;&gt;Node0x55cedc397ca8</title>
<path fill="none" stroke="black" d="M1623.06,-1665.17C1636.7,-1659.34 1649.33,-1651.5 1660,-1641.1 1722.48,-1580.18 1633.59,-1509.08 1696,-1448.1 1703.52,-1440.75 1712.2,-1434.94 1721.58,-1430.37"/>
<polygon fill="black" stroke="black" points="1723,-1433.57 1730.76,-1426.37 1720.2,-1427.15 1723,-1433.57"/>
</g>
<!-- Node0x55cedc381c78&#45;&gt;Node0x55cedc3832a8 -->
<g id="edge172" class="edge">
<title>Node0x55cedc381c78&#45;&gt;Node0x55cedc3832a8</title>
<path fill="none" stroke="black" d="M1617.38,-1691.11C1631.86,-1693.74 1646.25,-1696.72 1660,-1700.1 1712.64,-1713.01 1770.62,-1734.8 1810.91,-1751.21"/>
<polygon fill="black" stroke="black" points="1809.67,-1754.49 1820.25,-1755.05 1812.33,-1748.01 1809.67,-1754.49"/>
</g>
</g>
</svg>
