<?xml version="1.0" encoding="UTF-8" standalone="no"?>
<!DOCTYPE svg PUBLIC "-//W3C//DTD SVG 1.1//EN"
 "http://www.w3.org/Graphics/SVG/1.1/DTD/svg11.dtd">
<!-- Generated by graphviz version 2.43.0 (0)
 -->
<!-- Title: bin/lli_lib/libLLVMRuntimeDyld.a Pages: 1 -->
<svg width="1787pt" height="175pt"
 viewBox="0.00 0.00 1787.00 175.00" xmlns="http://www.w3.org/2000/svg" xmlns:xlink="http://www.w3.org/1999/xlink">
<g id="graph0" class="graph" transform="scale(1 1) rotate(0) translate(4 171)">
<title>bin/lli_lib/libLLVMRuntimeDyld.a</title>
<polygon fill="white" stroke="transparent" points="-4,4 -4,-171 1783,-171 1783,4 -4,4"/>
<text text-anchor="middle" x="889.5" y="-7.8" font-family="Times,serif" font-size="14.00">bin/lli_lib/libLLVMRuntimeDyld.a</text>
<!-- Node0x561051cf3b58 -->
<g id="node1" class="node">
<title>Node0x561051cf3b58</title>
<polygon fill="#7fb2ff" stroke="black" points="876,-113 528,-113 528,-77 876,-77 876,-113"/>
<text text-anchor="middle" x="702" y="-91.3" font-family="Times,serif" font-size="14.00">{lib/libLLVMRuntimeDyld.a(JITSymbol.cpp.o)}</text>
</g>
<!-- Node0x561051cf5318 -->
<g id="node2" class="node">
<title>Node0x561051cf5318</title>
<polygon fill="#7fb2ff" stroke="black" points="1324,-113 955,-113 955,-77 1324,-77 1324,-113"/>
<text text-anchor="middle" x="1139.5" y="-91.3" font-family="Times,serif" font-size="14.00">{lib/libLLVMRuntimeDyld.a(RuntimeDyld.cpp.o)}</text>
</g>
<!-- Node0x561051cf3b58&#45;&gt;Node0x561051cf5318 -->
<g id="edge1" class="edge">
<title>Node0x561051cf3b58&#45;&gt;Node0x561051cf5318</title>
<path fill="none" stroke="#7fb2ff" d="M876.06,-88.38C898.59,-88.25 921.8,-88.22 944.64,-88.29"/>
<polygon fill="#7fb2ff" stroke="#7fb2ff" points="944.75,-91.79 954.76,-88.32 944.77,-84.79 944.75,-91.79"/>
</g>
<!-- Node0x561051cf5318&#45;&gt;Node0x561051cf3b58 -->
<g id="edge3" class="edge">
<title>Node0x561051cf5318&#45;&gt;Node0x561051cf3b58</title>
<path fill="none" stroke="#7fb2ff" d="M954.76,-101.68C932.04,-101.78 908.81,-101.77 886.1,-101.67"/>
<polygon fill="#7fb2ff" stroke="#7fb2ff" points="886.08,-98.17 876.06,-101.62 886.04,-105.17 886.08,-98.17"/>
</g>
<!-- Node0x561051cf5188 -->
<g id="node4" class="node">
<title>Node0x561051cf5188</title>
<polygon fill="#7fb2ff" stroke="black" points="1773.5,-113 1365.5,-113 1365.5,-77 1773.5,-77 1773.5,-113"/>
<text text-anchor="middle" x="1569.5" y="-91.3" font-family="Times,serif" font-size="14.00">{lib/libLLVMRuntimeDyld.a(RuntimeDyldCOFF.cpp.o)}</text>
</g>
<!-- Node0x561051cf5318&#45;&gt;Node0x561051cf5188 -->
<g id="edge4" class="edge">
<title>Node0x561051cf5318&#45;&gt;Node0x561051cf5188</title>
<path fill="none" stroke="#7fb2ff" d="M1324.18,-88.31C1334.39,-88.27 1344.68,-88.25 1354.98,-88.25"/>
<polygon fill="#7fb2ff" stroke="#7fb2ff" points="1355.27,-91.75 1365.27,-88.26 1355.27,-84.75 1355.27,-91.75"/>
</g>
<!-- Node0x561051cf5908 -->
<g id="node5" class="node">
<title>Node0x561051cf5908</title>
<polygon fill="#7fb2ff" stroke="black" points="1767.5,-167 1371.5,-167 1371.5,-131 1767.5,-131 1767.5,-167"/>
<text text-anchor="middle" x="1569.5" y="-145.3" font-family="Times,serif" font-size="14.00">{lib/libLLVMRuntimeDyld.a(RuntimeDyldELF.cpp.o)}</text>
</g>
<!-- Node0x561051cf5318&#45;&gt;Node0x561051cf5908 -->
<g id="edge5" class="edge">
<title>Node0x561051cf5318&#45;&gt;Node0x561051cf5908</title>
<path fill="none" stroke="#7fb2ff" d="M1324.18,-111.49C1371,-117.2 1419.79,-123.61 1461.34,-129.54"/>
<polygon fill="#7fb2ff" stroke="#7fb2ff" points="1461.08,-133.04 1471.47,-131 1462.07,-126.11 1461.08,-133.04"/>
</g>
<!-- Node0x561051cf1a88 -->
<g id="node6" class="node">
<title>Node0x561051cf1a88</title>
<polygon fill="#7fb2ff" stroke="black" points="1779,-59 1360,-59 1360,-23 1779,-23 1779,-59"/>
<text text-anchor="middle" x="1569.5" y="-37.3" font-family="Times,serif" font-size="14.00">{lib/libLLVMRuntimeDyld.a(RuntimeDyldMachO.cpp.o)}</text>
</g>
<!-- Node0x561051cf5318&#45;&gt;Node0x561051cf1a88 -->
<g id="edge6" class="edge">
<title>Node0x561051cf5318&#45;&gt;Node0x561051cf1a88</title>
<path fill="none" stroke="#7fb2ff" d="M1237.62,-76.99C1274.8,-71.59 1318.77,-65.72 1362.32,-60.27"/>
<polygon fill="#7fb2ff" stroke="#7fb2ff" points="1362.99,-63.71 1372.48,-59 1362.12,-56.76 1362.99,-63.71"/>
</g>
<!-- Node0x561051cf4c38 -->
<g id="node3" class="node">
<title>Node0x561051cf4c38</title>
<polygon fill="none" stroke="black" points="449,-113 0,-113 0,-77 449,-77 449,-113"/>
<text text-anchor="middle" x="224.5" y="-91.3" font-family="Times,serif" font-size="14.00">{lib/libLLVMRuntimeDyld.a(RTDyldMemoryManager.cpp.o)}</text>
</g>
<!-- Node0x561051cf4c38&#45;&gt;Node0x561051cf3b58 -->
<g id="edge2" class="edge">
<title>Node0x561051cf4c38&#45;&gt;Node0x561051cf3b58</title>
<path fill="none" stroke="black" d="M449.33,-95C472.2,-95 495.25,-95 517.61,-95"/>
<polygon fill="black" stroke="black" points="517.84,-98.5 527.84,-95 517.84,-91.5 517.84,-98.5"/>
</g>
<!-- Node0x561051cf5188&#45;&gt;Node0x561051cf5318 -->
<g id="edge7" class="edge">
<title>Node0x561051cf5188&#45;&gt;Node0x561051cf5318</title>
<path fill="none" stroke="#7fb2ff" d="M1365.27,-101.74C1354.99,-101.76 1344.67,-101.75 1334.41,-101.72"/>
<polygon fill="#7fb2ff" stroke="#7fb2ff" points="1334.2,-98.22 1324.18,-101.69 1334.17,-105.22 1334.2,-98.22"/>
</g>
<!-- Node0x561051cf5908&#45;&gt;Node0x561051cf5318 -->
<g id="edge8" class="edge">
<title>Node0x561051cf5908&#45;&gt;Node0x561051cf5318</title>
<path fill="none" stroke="#7fb2ff" d="M1372.48,-131C1329.51,-125.68 1285.56,-119.87 1247.64,-114.46"/>
<polygon fill="#7fb2ff" stroke="#7fb2ff" points="1248.02,-110.97 1237.62,-113.01 1247.02,-117.9 1248.02,-110.97"/>
</g>
<!-- Node0x561051cf1a88&#45;&gt;Node0x561051cf3b58 -->
<g id="edge9" class="edge">
<title>Node0x561051cf1a88&#45;&gt;Node0x561051cf3b58</title>
<path fill="none" stroke="#7fb2ff" d="M1359.95,-46.93C1241.16,-51.12 1089.62,-57.84 955,-68 926.55,-70.15 896.33,-72.94 867.08,-75.91"/>
<polygon fill="#7fb2ff" stroke="#7fb2ff" points="866.37,-72.47 856.78,-76.97 867.09,-79.43 866.37,-72.47"/>
</g>
<!-- Node0x561051cf1a88&#45;&gt;Node0x561051cf5318 -->
<g id="edge10" class="edge">
<title>Node0x561051cf1a88&#45;&gt;Node0x561051cf5318</title>
<path fill="none" stroke="#7fb2ff" d="M1471.47,-59C1430.74,-64.91 1381.85,-71.4 1334.31,-77.27"/>
<polygon fill="#7fb2ff" stroke="#7fb2ff" points="1333.68,-73.82 1324.18,-78.51 1334.54,-80.77 1333.68,-73.82"/>
</g>
<!-- Node0x561051cf2258 -->
<g id="node7" class="node">
<title>Node0x561051cf2258</title>
<polygon fill="none" stroke="black" points="919,-167 485,-167 485,-131 919,-131 919,-167"/>
<text text-anchor="middle" x="702" y="-145.3" font-family="Times,serif" font-size="14.00">{lib/libLLVMRuntimeDyld.a(RuntimeDyldELFMips.cpp.o)}</text>
</g>
<!-- Node0x561051cf2258&#45;&gt;Node0x561051cf5318 -->
<g id="edge11" class="edge">
<title>Node0x561051cf2258&#45;&gt;Node0x561051cf5318</title>
<path fill="none" stroke="black" d="M848.32,-130.98C891.57,-125.62 939.14,-119.72 983.01,-114.28"/>
<polygon fill="black" stroke="black" points="983.7,-117.72 993.2,-113.02 982.84,-110.77 983.7,-117.72"/>
</g>
<!-- Node0x561051cf2258&#45;&gt;Node0x561051cf5908 -->
<g id="edge12" class="edge">
<title>Node0x561051cf2258&#45;&gt;Node0x561051cf5908</title>
<path fill="none" stroke="black" d="M919.17,-149C1054.34,-149 1227.49,-149 1361,-149"/>
<polygon fill="black" stroke="black" points="1361.35,-152.5 1371.35,-149 1361.35,-145.5 1361.35,-152.5"/>
</g>
</g>
</svg>
