<?xml version="1.0" encoding="UTF-8" standalone="no"?>
<!DOCTYPE svg PUBLIC "-//W3C//DTD SVG 1.1//EN"
 "http://www.w3.org/Graphics/SVG/1.1/DTD/svg11.dtd">
<!-- Generated by graphviz version 2.43.0 (0)
 -->
<!-- Title: bin/llvm&#45;extract_lib/libLLVMTransformUtils.a Pages: 1 -->
<svg width="1801pt" height="427pt"
 viewBox="0.00 0.00 1801.00 426.59" xmlns="http://www.w3.org/2000/svg" xmlns:xlink="http://www.w3.org/1999/xlink">
<g id="graph0" class="graph" transform="scale(1 1) rotate(0) translate(4 422.59)">
<title>bin/llvm&#45;extract_lib/libLLVMTransformUtils.a</title>
<polygon fill="white" stroke="transparent" points="-4,4 -4,-422.59 1797,-422.59 1797,4 -4,4"/>
<text text-anchor="middle" x="896.5" y="-7.8" font-family="Times,serif" font-size="14.00">bin/llvm&#45;extract_lib/libLLVMTransformUtils.a</text>
<!-- Node0x55f87446c108 -->
<g id="node1" class="node">
<title>Node0x55f87446c108</title>
<polygon fill="none" stroke="black" points="1328,-243 926,-243 926,-207 1328,-207 1328,-243"/>
<text text-anchor="middle" x="1127" y="-221.3" font-family="Times,serif" font-size="14.00">{lib/libLLVMTransformUtils.a(BasicBlockUtils.cpp.o)}</text>
</g>
<!-- Node0x55f87446ebd8 -->
<g id="node2" class="node">
<title>Node0x55f87446ebd8</title>
<polygon fill="none" stroke="black" points="851,-389 458,-389 458,-353 851,-353 851,-389"/>
<text text-anchor="middle" x="654.5" y="-367.3" font-family="Times,serif" font-size="14.00">{lib/libLLVMTransformUtils.a(CodeExtractor.cpp.o)}</text>
</g>
<!-- Node0x55f87446ebd8&#45;&gt;Node0x55f87446c108 -->
<g id="edge1" class="edge">
<title>Node0x55f87446ebd8&#45;&gt;Node0x55f87446c108</title>
<path fill="none" stroke="black" d="M851.28,-361.9C864.87,-357.25 877.94,-351.37 890,-344 914.61,-328.96 903.01,-307.42 926,-290 952.7,-269.77 985.95,-255.69 1017.63,-245.95"/>
<polygon fill="black" stroke="black" points="1018.81,-249.25 1027.41,-243.06 1016.82,-242.54 1018.81,-249.25"/>
</g>
<!-- Node0x55f87446cd88 -->
<g id="node3" class="node">
<title>Node0x55f87446cd88</title>
<polygon fill="none" stroke="black" points="1793,-312 1364,-312 1364,-276 1793,-276 1793,-312"/>
<text text-anchor="middle" x="1578.5" y="-290.3" font-family="Times,serif" font-size="14.00">{lib/libLLVMTransformUtils.a(BreakCriticalEdges.cpp.o)}</text>
</g>
<!-- Node0x55f87446ebd8&#45;&gt;Node0x55f87446cd88 -->
<g id="edge2" class="edge">
<title>Node0x55f87446ebd8&#45;&gt;Node0x55f87446cd88</title>
<path fill="none" stroke="black" d="M752.12,-389.04C883.76,-410.41 1126.2,-438.37 1328,-398 1405.38,-382.52 1488.76,-342.5 1536.87,-316.86"/>
<polygon fill="black" stroke="black" points="1538.57,-319.92 1545.72,-312.09 1535.25,-313.75 1538.57,-319.92"/>
</g>
<!-- Node0x55f874467c48 -->
<g id="node4" class="node">
<title>Node0x55f874467c48</title>
<polygon fill="none" stroke="black" points="1291,-335 963,-335 963,-299 1291,-299 1291,-335"/>
<text text-anchor="middle" x="1127" y="-313.3" font-family="Times,serif" font-size="14.00">{lib/libLLVMTransformUtils.a(Local.cpp.o)}</text>
</g>
<!-- Node0x55f87446ebd8&#45;&gt;Node0x55f874467c48 -->
<g id="edge3" class="edge">
<title>Node0x55f87446ebd8&#45;&gt;Node0x55f874467c48</title>
<path fill="none" stroke="black" d="M812.5,-352.98C859.53,-347.58 911.26,-341.65 958.91,-336.18"/>
<polygon fill="black" stroke="black" points="959.48,-339.63 969.02,-335.02 958.68,-332.68 959.48,-339.63"/>
</g>
<!-- Node0x55f874467c48&#45;&gt;Node0x55f87446cd88 -->
<g id="edge4" class="edge">
<title>Node0x55f874467c48&#45;&gt;Node0x55f87446cd88</title>
<path fill="none" stroke="black" d="M1291.23,-308.65C1311.61,-307.6 1332.72,-306.52 1353.82,-305.45"/>
<polygon fill="black" stroke="black" points="1354.03,-308.94 1363.84,-304.93 1353.67,-301.95 1354.03,-308.94"/>
</g>
<!-- Node0x55f87446f3a8 -->
<g id="node5" class="node">
<title>Node0x55f87446f3a8</title>
<polygon fill="none" stroke="black" points="369.5,-270 13.5,-270 13.5,-234 369.5,-234 369.5,-270"/>
<text text-anchor="middle" x="191.5" y="-248.3" font-family="Times,serif" font-size="14.00">{lib/libLLVMTransformUtils.a(CtorUtils.cpp.o)}</text>
</g>
<!-- Node0x55f874465c68 -->
<g id="node6" class="node">
<title>Node0x55f874465c68</title>
<polygon fill="none" stroke="black" points="383,-324 0,-324 0,-288 383,-288 383,-324"/>
<text text-anchor="middle" x="191.5" y="-302.3" font-family="Times,serif" font-size="14.00">{lib/libLLVMTransformUtils.a(GlobalStatus.cpp.o)}</text>
</g>
<!-- Node0x55f87446e4a8 -->
<g id="node7" class="node">
<title>Node0x55f87446e4a8</title>
<polygon fill="none" stroke="black" points="1324,-105 930,-105 930,-69 1324,-69 1324,-105"/>
<text text-anchor="middle" x="1127" y="-83.3" font-family="Times,serif" font-size="14.00">{lib/libLLVMTransformUtils.a(CloneFunction.cpp.o)}</text>
</g>
<!-- Node0x55f874467568 -->
<g id="node8" class="node">
<title>Node0x55f874467568</title>
<polygon fill="none" stroke="black" points="845.5,-151 463.5,-151 463.5,-115 845.5,-115 845.5,-151"/>
<text text-anchor="middle" x="654.5" y="-129.3" font-family="Times,serif" font-size="14.00">{lib/libLLVMTransformUtils.a(LoopSimplify.cpp.o)}</text>
</g>
<!-- Node0x55f874467568&#45;&gt;Node0x55f87446c108 -->
<g id="edge5" class="edge">
<title>Node0x55f874467568&#45;&gt;Node0x55f87446c108</title>
<path fill="none" stroke="black" d="M747.61,-151.01C827.05,-166.54 941.61,-188.95 1023.84,-205.02"/>
<polygon fill="black" stroke="black" points="1023.22,-208.47 1033.71,-206.95 1024.56,-201.6 1023.22,-208.47"/>
</g>
<!-- Node0x55f874467568&#45;&gt;Node0x55f87446cd88 -->
<g id="edge6" class="edge">
<title>Node0x55f874467568&#45;&gt;Node0x55f87446cd88</title>
<path fill="none" stroke="black" d="M845.8,-120.65C982.32,-116.93 1169.4,-122.41 1328,-165 1410.51,-187.16 1496.95,-239.41 1543.29,-270.19"/>
<polygon fill="black" stroke="black" points="1541.48,-273.19 1551.74,-275.85 1545.38,-267.38 1541.48,-273.19"/>
</g>
<!-- Node0x55f874467568&#45;&gt;Node0x55f87446e4a8 -->
<g id="edge7" class="edge">
<title>Node0x55f874467568&#45;&gt;Node0x55f87446e4a8</title>
<path fill="none" stroke="black" d="M839.77,-114.98C869.85,-112.04 901.11,-108.99 931.43,-106.02"/>
<polygon fill="black" stroke="black" points="932.07,-109.48 941.68,-105.02 931.38,-102.51 932.07,-109.48"/>
</g>
<!-- Node0x55f87446daf8 -->
<g id="node9" class="node">
<title>Node0x55f87446daf8</title>
<polygon fill="none" stroke="black" points="1296,-389 958,-389 958,-353 1296,-353 1296,-389"/>
<text text-anchor="middle" x="1127" y="-367.3" font-family="Times,serif" font-size="14.00">{lib/libLLVMTransformUtils.a(LCSSA.cpp.o)}</text>
</g>
<!-- Node0x55f87446daf8&#45;&gt;Node0x55f87446cd88 -->
<g id="edge8" class="edge">
<title>Node0x55f87446daf8&#45;&gt;Node0x55f87446cd88</title>
<path fill="none" stroke="black" d="M1269.93,-352.98C1289.47,-350.16 1309.25,-347.14 1328,-344 1379.96,-335.29 1437.66,-323.85 1484.48,-314.1"/>
<polygon fill="black" stroke="black" points="1485.22,-317.52 1494.29,-312.05 1483.79,-310.67 1485.22,-317.52"/>
</g>
<!-- Node0x55f87446cdd8 -->
<g id="node10" class="node">
<title>Node0x55f87446cdd8</title>
<polygon fill="none" stroke="black" points="371,-216 12,-216 12,-180 371,-180 371,-216"/>
<text text-anchor="middle" x="191.5" y="-194.3" font-family="Times,serif" font-size="14.00">{lib/libLLVMTransformUtils.a(LoopUtils.cpp.o)}</text>
</g>
<!-- Node0x55f87446cdd8&#45;&gt;Node0x55f87446c108 -->
<g id="edge9" class="edge">
<title>Node0x55f87446cdd8&#45;&gt;Node0x55f87446c108</title>
<path fill="none" stroke="black" d="M371.11,-203.17C526.38,-207.66 751.55,-214.17 915.54,-218.91"/>
<polygon fill="black" stroke="black" points="915.66,-222.42 925.76,-219.21 915.86,-215.42 915.66,-222.42"/>
</g>
<!-- Node0x55f87446cdd8&#45;&gt;Node0x55f87446cd88 -->
<g id="edge10" class="edge">
<title>Node0x55f87446cdd8&#45;&gt;Node0x55f87446cd88</title>
<path fill="none" stroke="black" d="M371.06,-190.06C643.51,-179.3 1150.11,-164.96 1328,-198 1403.23,-211.97 1485.05,-247.77 1533.76,-271.48"/>
<polygon fill="black" stroke="black" points="1532.24,-274.63 1542.76,-275.9 1535.33,-268.35 1532.24,-274.63"/>
</g>
<!-- Node0x55f87446cdd8&#45;&gt;Node0x55f87446e4a8 -->
<g id="edge11" class="edge">
<title>Node0x55f87446cdd8&#45;&gt;Node0x55f87446e4a8</title>
<path fill="none" stroke="black" d="M226.2,-179.81C269.41,-157.56 347.34,-121 419,-106 584.93,-71.27 777.51,-68.47 919.74,-73.27"/>
<polygon fill="black" stroke="black" points="919.78,-76.77 929.9,-73.63 920.03,-69.77 919.78,-76.77"/>
</g>
<!-- Node0x55f87446d5a8 -->
<g id="node11" class="node">
<title>Node0x55f87446d5a8</title>
<polygon fill="none" stroke="black" points="890,-281 419,-281 419,-245 890,-245 890,-281"/>
<text text-anchor="middle" x="654.5" y="-259.3" font-family="Times,serif" font-size="14.00">{lib/libLLVMTransformUtils.a(ScalarEvolutionExpander.cpp.o)}</text>
</g>
<!-- Node0x55f87446cdd8&#45;&gt;Node0x55f87446d5a8 -->
<g id="edge12" class="edge">
<title>Node0x55f87446cdd8&#45;&gt;Node0x55f87446d5a8</title>
<path fill="none" stroke="black" d="M322.71,-216.02C342.9,-218.94 363.52,-222 383,-225 399.03,-227.47 402.96,-228.57 419,-231 447.16,-235.27 477.27,-239.57 506.2,-243.58"/>
<polygon fill="black" stroke="black" points="506,-247.08 516.38,-244.98 506.96,-240.15 506,-247.08"/>
</g>
<!-- Node0x55f87446d5a8&#45;&gt;Node0x55f87446c108 -->
<g id="edge13" class="edge">
<title>Node0x55f87446d5a8&#45;&gt;Node0x55f87446c108</title>
<path fill="none" stroke="black" d="M878.69,-244.97C891.02,-243.98 903.4,-242.98 915.68,-241.99"/>
<polygon fill="black" stroke="black" points="916.28,-245.45 925.97,-241.16 915.72,-238.47 916.28,-245.45"/>
</g>
<!-- Node0x55f87446efe8 -->
<g id="node12" class="node">
<title>Node0x55f87446efe8</title>
<polygon fill="none" stroke="black" points="380,-378 3,-378 3,-342 380,-342 380,-378"/>
<text text-anchor="middle" x="191.5" y="-356.3" font-family="Times,serif" font-size="14.00">{lib/libLLVMTransformUtils.a(SSAUpdater.cpp.o)}</text>
</g>
<!-- Node0x55f87446e818 -->
<g id="node13" class="node">
<title>Node0x55f87446e818</title>
<polygon fill="none" stroke="black" points="844.5,-335 464.5,-335 464.5,-299 844.5,-299 844.5,-335"/>
<text text-anchor="middle" x="654.5" y="-313.3" font-family="Times,serif" font-size="14.00">{lib/libLLVMTransformUtils.a(SimplifyCFG.cpp.o)}</text>
</g>
<!-- Node0x55f87446e818&#45;&gt;Node0x55f87446c108 -->
<g id="edge14" class="edge">
<title>Node0x55f87446e818&#45;&gt;Node0x55f87446c108</title>
<path fill="none" stroke="black" d="M844.6,-305.84C860.31,-301.75 875.65,-296.55 890,-290 909.74,-280.99 906.46,-266.45 926,-257 934.46,-252.91 943.33,-249.33 952.44,-246.19"/>
<polygon fill="black" stroke="black" points="953.58,-249.5 962,-243.07 951.41,-242.84 953.58,-249.5"/>
</g>
<!-- Node0x55f87446e818&#45;&gt;Node0x55f87446cd88 -->
<g id="edge15" class="edge">
<title>Node0x55f87446e818&#45;&gt;Node0x55f87446cd88</title>
<path fill="none" stroke="black" d="M809.08,-298.99C847.23,-295.26 888.05,-291.89 926,-290 1104.45,-281.12 1149.34,-288.57 1328,-290 1336.41,-290.07 1344.97,-290.15 1353.63,-290.24"/>
<polygon fill="black" stroke="black" points="1353.78,-293.74 1363.82,-290.35 1353.86,-286.74 1353.78,-293.74"/>
</g>
<!-- Node0x55f87446e818&#45;&gt;Node0x55f874467c48 -->
<g id="edge16" class="edge">
<title>Node0x55f87446e818&#45;&gt;Node0x55f874467c48</title>
<path fill="none" stroke="black" d="M844.84,-317C880.4,-317 917.41,-317 952.46,-317"/>
<polygon fill="black" stroke="black" points="952.78,-320.5 962.78,-317 952.78,-313.5 952.78,-320.5"/>
</g>
<!-- Node0x55f87446b028 -->
<g id="node14" class="node">
<title>Node0x55f87446b028</title>
<polygon fill="none" stroke="black" points="846,-59 463,-59 463,-23 846,-23 846,-59"/>
<text text-anchor="middle" x="654.5" y="-37.3" font-family="Times,serif" font-size="14.00">{lib/libLLVMTransformUtils.a(ValueMapper.cpp.o)}</text>
</g>
<!-- Node0x55f87446b028&#45;&gt;Node0x55f87446e4a8 -->
<g id="edge17" class="edge">
<title>Node0x55f87446b028&#45;&gt;Node0x55f87446e4a8</title>
<path fill="none" stroke="black" d="M839.77,-59.02C869.85,-61.96 901.11,-65.01 931.43,-67.98"/>
<polygon fill="black" stroke="black" points="931.38,-71.49 941.68,-68.98 932.07,-64.52 931.38,-71.49"/>
</g>
</g>
</svg>
