<?xml version="1.0" encoding="UTF-8" standalone="no"?>
<!DOCTYPE svg PUBLIC "-//W3C//DTD SVG 1.1//EN"
 "http://www.w3.org/Graphics/SVG/1.1/DTD/svg11.dtd">
<!-- Generated by graphviz version 2.43.0 (0)
 -->
<!-- Title: lib/libLTO.so.13git_lib/libLLVMScalarOpts.a Pages: 1 -->
<svg width="914pt" height="3847pt"
 viewBox="0.00 0.00 914.00 3847.00" xmlns="http://www.w3.org/2000/svg" xmlns:xlink="http://www.w3.org/1999/xlink">
<g id="graph0" class="graph" transform="scale(1 1) rotate(0) translate(4 3843)">
<title>lib/libLTO.so.13git_lib/libLLVMScalarOpts.a</title>
<polygon fill="white" stroke="transparent" points="-4,4 -4,-3843 910,-3843 910,4 -4,4"/>
<text text-anchor="middle" x="453" y="-7.8" font-family="Times,serif" font-size="14.00">lib/libLTO.so.13git_lib/libLLVMScalarOpts.a</text>
<!-- Node0x563057376668 -->
<g id="node1" class="node">
<title>Node0x563057376668</title>
<polygon fill="none" stroke="black" points="442,-59 56,-59 56,-23 442,-23 442,-59"/>
<text text-anchor="middle" x="249" y="-37.3" font-family="Times,serif" font-size="14.00">{lib/libLLVMScalarOpts.a(ConstantHoisting.cpp.o)}</text>
</g>
<!-- Node0x563057377ec8 -->
<g id="node2" class="node">
<title>Node0x563057377ec8</title>
<polygon fill="none" stroke="black" points="454.5,-113 43.5,-113 43.5,-77 454.5,-77 454.5,-113"/>
<text text-anchor="middle" x="249" y="-91.3" font-family="Times,serif" font-size="14.00">{lib/libLLVMScalarOpts.a(LoopStrengthReduce.cpp.o)}</text>
</g>
<!-- Node0x5630573942a8 -->
<g id="node3" class="node">
<title>Node0x5630573942a8</title>
<polygon fill="none" stroke="black" points="467.5,-167 30.5,-167 30.5,-131 467.5,-131 467.5,-167"/>
<text text-anchor="middle" x="249" y="-145.3" font-family="Times,serif" font-size="14.00">{lib/libLLVMScalarOpts.a(LowerConstantIntrinsics.cpp.o)}</text>
</g>
<!-- Node0x5630573810b8 -->
<g id="node4" class="node">
<title>Node0x5630573810b8</title>
<polygon fill="none" stroke="black" points="425.5,-221 72.5,-221 72.5,-185 425.5,-185 425.5,-221"/>
<text text-anchor="middle" x="249" y="-199.3" font-family="Times,serif" font-size="14.00">{lib/libLLVMScalarOpts.a(MergeICmps.cpp.o)}</text>
</g>
<!-- Node0x563057381bf8 -->
<g id="node5" class="node">
<title>Node0x563057381bf8</title>
<polygon fill="none" stroke="black" points="458.5,-275 39.5,-275 39.5,-239 458.5,-239 458.5,-275"/>
<text text-anchor="middle" x="249" y="-253.3" font-family="Times,serif" font-size="14.00">{lib/libLLVMScalarOpts.a(PartiallyInlineLibCalls.cpp.o)}</text>
</g>
<!-- Node0x563057383318 -->
<g id="node6" class="node">
<title>Node0x563057383318</title>
<polygon fill="none" stroke="black" points="478,-329 20,-329 20,-293 478,-293 478,-329"/>
<text text-anchor="middle" x="249" y="-307.3" font-family="Times,serif" font-size="14.00">{lib/libLLVMScalarOpts.a(ScalarizeMaskedMemIntrin.cpp.o)}</text>
</g>
<!-- Node0x563057373d28 -->
<g id="node7" class="node">
<title>Node0x563057373d28</title>
<polygon fill="none" stroke="black" points="464.5,-383 33.5,-383 33.5,-347 464.5,-347 464.5,-383"/>
<text text-anchor="middle" x="249" y="-361.3" font-family="Times,serif" font-size="14.00">{lib/libLLVMScalarOpts.a(WarnMissedTransforms.cpp.o)}</text>
</g>
<!-- Node0x563057394118 -->
<g id="node8" class="node">
<title>Node0x563057394118</title>
<polygon fill="none" stroke="black" points="400,-437 98,-437 98,-401 400,-401 400,-437"/>
<text text-anchor="middle" x="249" y="-415.3" font-family="Times,serif" font-size="14.00">{lib/libLLVMScalarOpts.a(ADCE.cpp.o)}</text>
</g>
<!-- Node0x563057393948 -->
<g id="node9" class="node">
<title>Node0x563057393948</title>
<polygon fill="none" stroke="black" points="481,-491 17,-491 17,-455 481,-455 481,-491"/>
<text text-anchor="middle" x="249" y="-469.3" font-family="Times,serif" font-size="14.00">{lib/libLLVMScalarOpts.a(AlignmentFromAssumptions.cpp.o)}</text>
</g>
<!-- Node0x563057393218 -->
<g id="node10" class="node">
<title>Node0x563057393218</title>
<polygon fill="none" stroke="black" points="449.5,-545 48.5,-545 48.5,-509 449.5,-509 449.5,-545"/>
<text text-anchor="middle" x="249" y="-523.3" font-family="Times,serif" font-size="14.00">{lib/libLLVMScalarOpts.a(AnnotationRemarks.cpp.o)}</text>
</g>
<!-- Node0x5630573780a8 -->
<g id="node11" class="node">
<title>Node0x5630573780a8</title>
<polygon fill="none" stroke="black" points="400.5,-599 97.5,-599 97.5,-563 400.5,-563 400.5,-599"/>
<text text-anchor="middle" x="249" y="-577.3" font-family="Times,serif" font-size="14.00">{lib/libLLVMScalarOpts.a(BDCE.cpp.o)}</text>
</g>
<!-- Node0x5630573787d8 -->
<g id="node12" class="node">
<title>Node0x5630573787d8</title>
<polygon fill="none" stroke="black" points="438.5,-653 59.5,-653 59.5,-617 438.5,-617 438.5,-653"/>
<text text-anchor="middle" x="249" y="-631.3" font-family="Times,serif" font-size="14.00">{lib/libLLVMScalarOpts.a(CallSiteSplitting.cpp.o)}</text>
</g>
<!-- Node0x563057376e38 -->
<g id="node13" class="node">
<title>Node0x563057376e38</title>
<polygon fill="none" stroke="black" points="458.5,-707 39.5,-707 39.5,-671 458.5,-671 458.5,-707"/>
<text text-anchor="middle" x="249" y="-685.3" font-family="Times,serif" font-size="14.00">{lib/libLLVMScalarOpts.a(ConstraintElimination.cpp.o)}</text>
</g>
<!-- Node0x563057377568 -->
<g id="node14" class="node">
<title>Node0x563057377568</title>
<polygon fill="none" stroke="black" points="480.5,-761 17.5,-761 17.5,-725 480.5,-725 480.5,-761"/>
<text text-anchor="middle" x="249" y="-739.3" font-family="Times,serif" font-size="14.00">{lib/libLLVMScalarOpts.a(CorrelatedValuePropagation.cpp.o)}</text>
</g>
<!-- Node0x5630573783c8 -->
<g id="node15" class="node">
<title>Node0x5630573783c8</title>
<polygon fill="none" stroke="black" points="395.5,-815 102.5,-815 102.5,-779 395.5,-779 395.5,-815"/>
<text text-anchor="middle" x="249" y="-793.3" font-family="Times,serif" font-size="14.00">{lib/libLLVMScalarOpts.a(DCE.cpp.o)}</text>
</g>
<!-- Node0x563057376de8 -->
<g id="node16" class="node">
<title>Node0x563057376de8</title>
<polygon fill="none" stroke="black" points="458.5,-869 39.5,-869 39.5,-833 458.5,-833 458.5,-869"/>
<text text-anchor="middle" x="249" y="-847.3" font-family="Times,serif" font-size="14.00">{lib/libLLVMScalarOpts.a(DeadStoreElimination.cpp.o)}</text>
</g>
<!-- Node0x563057377608 -->
<g id="node17" class="node">
<title>Node0x563057377608</title>
<polygon fill="none" stroke="black" points="425.5,-923 72.5,-923 72.5,-887 425.5,-887 425.5,-923"/>
<text text-anchor="middle" x="249" y="-901.3" font-family="Times,serif" font-size="14.00">{lib/libLLVMScalarOpts.a(DivRemPairs.cpp.o)}</text>
</g>
<!-- Node0x5630573773d8 -->
<g id="node18" class="node">
<title>Node0x5630573773d8</title>
<polygon fill="none" stroke="black" points="413.5,-977 84.5,-977 84.5,-941 413.5,-941 413.5,-977"/>
<text text-anchor="middle" x="249" y="-955.3" font-family="Times,serif" font-size="14.00">{lib/libLLVMScalarOpts.a(EarlyCSE.cpp.o)}</text>
</g>
<!-- Node0x563057375498 -->
<g id="node19" class="node">
<title>Node0x563057375498</title>
<polygon fill="none" stroke="black" points="412,-1031 86,-1031 86,-995 412,-995 412,-1031"/>
<text text-anchor="middle" x="249" y="-1009.3" font-family="Times,serif" font-size="14.00">{lib/libLLVMScalarOpts.a(Float2Int.cpp.o)}</text>
</g>
<!-- Node0x563057376118 -->
<g id="node20" class="node">
<title>Node0x563057376118</title>
<polygon fill="none" stroke="black" points="435,-1085 63,-1085 63,-1049 435,-1049 435,-1085"/>
<text text-anchor="middle" x="249" y="-1063.3" font-family="Times,serif" font-size="14.00">{lib/libLLVMScalarOpts.a(GuardWidening.cpp.o)}</text>
</g>
<!-- Node0x563057375da8 -->
<g id="node21" class="node">
<title>Node0x563057375da8</title>
<polygon fill="none" stroke="black" points="866.5,-1139 573.5,-1139 573.5,-1103 866.5,-1103 866.5,-1139"/>
<text text-anchor="middle" x="720" y="-1117.3" font-family="Times,serif" font-size="14.00">{lib/libLLVMScalarOpts.a(GVN.cpp.o)}</text>
</g>
<!-- Node0x563057374188 -->
<g id="node22" class="node">
<title>Node0x563057374188</title>
<polygon fill="none" stroke="black" points="415,-1139 83,-1139 83,-1103 415,-1103 415,-1139"/>
<text text-anchor="middle" x="249" y="-1117.3" font-family="Times,serif" font-size="14.00">{lib/libLLVMScalarOpts.a(GVNHoist.cpp.o)}</text>
</g>
<!-- Node0x563057374188&#45;&gt;Node0x563057375da8 -->
<g id="edge1" class="edge">
<title>Node0x563057374188&#45;&gt;Node0x563057375da8</title>
<path fill="none" stroke="black" d="M415.02,-1121C463.18,-1121 515.63,-1121 563.19,-1121"/>
<polygon fill="black" stroke="black" points="563.26,-1124.5 573.26,-1121 563.26,-1117.5 563.26,-1124.5"/>
</g>
<!-- Node0x563057374ea8 -->
<g id="node23" class="node">
<title>Node0x563057374ea8</title>
<polygon fill="none" stroke="black" points="411.5,-1193 86.5,-1193 86.5,-1157 411.5,-1157 411.5,-1193"/>
<text text-anchor="middle" x="249" y="-1171.3" font-family="Times,serif" font-size="14.00">{lib/libLLVMScalarOpts.a(GVNSink.cpp.o)}</text>
</g>
<!-- Node0x563057382968 -->
<g id="node24" class="node">
<title>Node0x563057382968</title>
<polygon fill="none" stroke="black" points="882.5,-1193 557.5,-1193 557.5,-1157 882.5,-1157 882.5,-1193"/>
<text text-anchor="middle" x="720" y="-1171.3" font-family="Times,serif" font-size="14.00">{lib/libLLVMScalarOpts.a(NewGVN.cpp.o)}</text>
</g>
<!-- Node0x563057374ea8&#45;&gt;Node0x563057382968 -->
<g id="edge2" class="edge">
<title>Node0x563057374ea8&#45;&gt;Node0x563057382968</title>
<path fill="none" stroke="black" d="M411.73,-1175C455.35,-1175 502.69,-1175 546.86,-1175"/>
<polygon fill="black" stroke="black" points="547.12,-1178.5 557.12,-1175 547.12,-1171.5 547.12,-1178.5"/>
</g>
<!-- Node0x563057373148 -->
<g id="node25" class="node">
<title>Node0x563057373148</title>
<polygon fill="none" stroke="black" points="432.5,-1247 65.5,-1247 65.5,-1211 432.5,-1211 432.5,-1247"/>
<text text-anchor="middle" x="249" y="-1225.3" font-family="Times,serif" font-size="14.00">{lib/libLLVMScalarOpts.a(IVUsersPrinter.cpp.o)}</text>
</g>
<!-- Node0x563057372bf8 -->
<g id="node26" class="node">
<title>Node0x563057372bf8</title>
<polygon fill="none" stroke="black" points="498,-1301 0,-1301 0,-1265 498,-1265 498,-1301"/>
<text text-anchor="middle" x="249" y="-1279.3" font-family="Times,serif" font-size="14.00">{lib/libLLVMScalarOpts.a(InductiveRangeCheckElimination.cpp.o)}</text>
</g>
<!-- Node0x56305737eb88 -->
<g id="node27" class="node">
<title>Node0x56305737eb88</title>
<polygon fill="none" stroke="black" points="431.5,-1355 66.5,-1355 66.5,-1319 431.5,-1319 431.5,-1355"/>
<text text-anchor="middle" x="249" y="-1333.3" font-family="Times,serif" font-size="14.00">{lib/libLLVMScalarOpts.a(IndVarSimplify.cpp.o)}</text>
</g>
<!-- Node0x56305737de68 -->
<g id="node28" class="node">
<title>Node0x56305737de68</title>
<polygon fill="none" stroke="black" points="450.5,-1409 47.5,-1409 47.5,-1373 450.5,-1373 450.5,-1409"/>
<text text-anchor="middle" x="249" y="-1387.3" font-family="Times,serif" font-size="14.00">{lib/libLLVMScalarOpts.a(InferAddressSpaces.cpp.o)}</text>
</g>
<!-- Node0x56305737e688 -->
<g id="node29" class="node">
<title>Node0x56305737e688</title>
<polygon fill="none" stroke="black" points="439,-1463 59,-1463 59,-1427 439,-1427 439,-1463"/>
<text text-anchor="middle" x="249" y="-1441.3" font-family="Times,serif" font-size="14.00">{lib/libLLVMScalarOpts.a(InstSimplifyPass.cpp.o)}</text>
</g>
<!-- Node0x563057380208 -->
<g id="node30" class="node">
<title>Node0x563057380208</title>
<polygon fill="none" stroke="black" points="434,-1517 64,-1517 64,-1481 434,-1481 434,-1517"/>
<text text-anchor="middle" x="249" y="-1495.3" font-family="Times,serif" font-size="14.00">{lib/libLLVMScalarOpts.a(JumpThreading.cpp.o)}</text>
</g>
<!-- Node0x56305737f628 -->
<g id="node31" class="node">
<title>Node0x56305737f628</title>
<polygon fill="none" stroke="black" points="869.5,-1571 570.5,-1571 570.5,-1535 869.5,-1535 869.5,-1571"/>
<text text-anchor="middle" x="720" y="-1549.3" font-family="Times,serif" font-size="14.00">{lib/libLLVMScalarOpts.a(LICM.cpp.o)}</text>
</g>
<!-- Node0x56305737fa88 -->
<g id="node32" class="node">
<title>Node0x56305737fa88</title>
<polygon fill="none" stroke="black" points="475,-1625 23,-1625 23,-1589 475,-1589 475,-1625"/>
<text text-anchor="middle" x="249" y="-1603.3" font-family="Times,serif" font-size="14.00">{lib/libLLVMScalarOpts.a(LoopAccessAnalysisPrinter.cpp.o)}</text>
</g>
<!-- Node0x56305737c568 -->
<g id="node33" class="node">
<title>Node0x56305737c568</title>
<polygon fill="none" stroke="black" points="436,-1679 62,-1679 62,-1643 436,-1643 436,-1679"/>
<text text-anchor="middle" x="249" y="-1657.3" font-family="Times,serif" font-size="14.00">{lib/libLLVMScalarOpts.a(LoopBoundSplit.cpp.o)}</text>
</g>
<!-- Node0x56305737b848 -->
<g id="node34" class="node">
<title>Node0x56305737b848</title>
<polygon fill="none" stroke="black" points="412,-1571 86,-1571 86,-1535 412,-1535 412,-1571"/>
<text text-anchor="middle" x="249" y="-1549.3" font-family="Times,serif" font-size="14.00">{lib/libLLVMScalarOpts.a(LoopSink.cpp.o)}</text>
</g>
<!-- Node0x56305737b848&#45;&gt;Node0x56305737f628 -->
<g id="edge3" class="edge">
<title>Node0x56305737b848&#45;&gt;Node0x56305737f628</title>
<path fill="none" stroke="black" d="M412.06,-1553C460.01,-1553 512.45,-1553 560.2,-1553"/>
<polygon fill="black" stroke="black" points="560.31,-1556.5 570.31,-1553 560.31,-1549.5 560.31,-1556.5"/>
</g>
<!-- Node0x56305737d468 -->
<g id="node35" class="node">
<title>Node0x56305737d468</title>
<polygon fill="none" stroke="black" points="426.5,-1733 71.5,-1733 71.5,-1697 426.5,-1697 426.5,-1733"/>
<text text-anchor="middle" x="249" y="-1711.3" font-family="Times,serif" font-size="14.00">{lib/libLLVMScalarOpts.a(LoopDeletion.cpp.o)}</text>
</g>
<!-- Node0x56305737dcd8 -->
<g id="node36" class="node">
<title>Node0x56305737dcd8</title>
<polygon fill="none" stroke="black" points="443.5,-1787 54.5,-1787 54.5,-1751 443.5,-1751 443.5,-1787"/>
<text text-anchor="middle" x="249" y="-1765.3" font-family="Times,serif" font-size="14.00">{lib/libLLVMScalarOpts.a(LoopDataPrefetch.cpp.o)}</text>
</g>
<!-- Node0x56305737d058 -->
<g id="node37" class="node">
<title>Node0x56305737d058</title>
<polygon fill="none" stroke="black" points="433,-1841 65,-1841 65,-1805 433,-1805 433,-1841"/>
<text text-anchor="middle" x="249" y="-1819.3" font-family="Times,serif" font-size="14.00">{lib/libLLVMScalarOpts.a(LoopDistribute.cpp.o)}</text>
</g>
<!-- Node0x563057377478 -->
<g id="node38" class="node">
<title>Node0x563057377478</title>
<polygon fill="none" stroke="black" points="413.5,-1895 84.5,-1895 84.5,-1859 413.5,-1859 413.5,-1895"/>
<text text-anchor="middle" x="249" y="-1873.3" font-family="Times,serif" font-size="14.00">{lib/libLLVMScalarOpts.a(LoopFuse.cpp.o)}</text>
</g>
<!-- Node0x563057377b08 -->
<g id="node39" class="node">
<title>Node0x563057377b08</title>
<polygon fill="none" stroke="black" points="453,-1949 45,-1949 45,-1913 453,-1913 453,-1949"/>
<text text-anchor="middle" x="249" y="-1927.3" font-family="Times,serif" font-size="14.00">{lib/libLLVMScalarOpts.a(LoopIdiomRecognize.cpp.o)}</text>
</g>
<!-- Node0x563057378378 -->
<g id="node40" class="node">
<title>Node0x563057378378</title>
<polygon fill="none" stroke="black" points="439,-2003 59,-2003 59,-1967 439,-1967 439,-2003"/>
<text text-anchor="middle" x="249" y="-1981.3" font-family="Times,serif" font-size="14.00">{lib/libLLVMScalarOpts.a(LoopInstSimplify.cpp.o)}</text>
</g>
<!-- Node0x563057378af8 -->
<g id="node41" class="node">
<title>Node0x563057378af8</title>
<polygon fill="none" stroke="black" points="439.5,-2057 58.5,-2057 58.5,-2021 439.5,-2021 439.5,-2057"/>
<text text-anchor="middle" x="249" y="-2035.3" font-family="Times,serif" font-size="14.00">{lib/libLLVMScalarOpts.a(LoopInterchange.cpp.o)}</text>
</g>
<!-- Node0x563057379278 -->
<g id="node42" class="node">
<title>Node0x563057379278</title>
<polygon fill="none" stroke="black" points="422.5,-2111 75.5,-2111 75.5,-2075 422.5,-2075 422.5,-2111"/>
<text text-anchor="middle" x="249" y="-2089.3" font-family="Times,serif" font-size="14.00">{lib/libLLVMScalarOpts.a(LoopFlatten.cpp.o)}</text>
</g>
<!-- Node0x5630573799f8 -->
<g id="node43" class="node">
<title>Node0x5630573799f8</title>
<polygon fill="none" stroke="black" points="455,-2165 43,-2165 43,-2129 455,-2129 455,-2165"/>
<text text-anchor="middle" x="249" y="-2143.3" font-family="Times,serif" font-size="14.00">{lib/libLLVMScalarOpts.a(LoopLoadElimination.cpp.o)}</text>
</g>
<!-- Node0x56305737a088 -->
<g id="node44" class="node">
<title>Node0x56305737a088</title>
<polygon fill="none" stroke="black" points="443.5,-2219 54.5,-2219 54.5,-2183 443.5,-2183 443.5,-2219"/>
<text text-anchor="middle" x="249" y="-2197.3" font-family="Times,serif" font-size="14.00">{lib/libLLVMScalarOpts.a(LoopPassManager.cpp.o)}</text>
</g>
<!-- Node0x56305737a8f8 -->
<g id="node45" class="node">
<title>Node0x56305737a8f8</title>
<polygon fill="none" stroke="black" points="437.5,-2273 60.5,-2273 60.5,-2237 437.5,-2237 437.5,-2273"/>
<text text-anchor="middle" x="249" y="-2251.3" font-family="Times,serif" font-size="14.00">{lib/libLLVMScalarOpts.a(LoopPredication.cpp.o)}</text>
</g>
<!-- Node0x56305737abc8 -->
<g id="node46" class="node">
<title>Node0x56305737abc8</title>
<polygon fill="none" stroke="black" points="434,-2327 64,-2327 64,-2291 434,-2291 434,-2327"/>
<text text-anchor="middle" x="249" y="-2305.3" font-family="Times,serif" font-size="14.00">{lib/libLLVMScalarOpts.a(LoopRerollPass.cpp.o)}</text>
</g>
<!-- Node0x56305737b3e8 -->
<g id="node47" class="node">
<title>Node0x56305737b3e8</title>
<polygon fill="none" stroke="black" points="427,-2381 71,-2381 71,-2345 427,-2345 427,-2381"/>
<text text-anchor="middle" x="249" y="-2359.3" font-family="Times,serif" font-size="14.00">{lib/libLLVMScalarOpts.a(LoopRotation.cpp.o)}</text>
</g>
<!-- Node0x563057371ed8 -->
<g id="node48" class="node">
<title>Node0x563057371ed8</title>
<polygon fill="none" stroke="black" points="441.5,-2435 56.5,-2435 56.5,-2399 441.5,-2399 441.5,-2435"/>
<text text-anchor="middle" x="249" y="-2413.3" font-family="Times,serif" font-size="14.00">{lib/libLLVMScalarOpts.a(LoopSimplifyCFG.cpp.o)}</text>
</g>
<!-- Node0x563057378d28 -->
<g id="node49" class="node">
<title>Node0x563057378d28</title>
<polygon fill="none" stroke="black" points="906,-2489 534,-2489 534,-2453 906,-2453 906,-2489"/>
<text text-anchor="middle" x="720" y="-2467.3" font-family="Times,serif" font-size="14.00">{lib/libLLVMScalarOpts.a(LoopUnrollPass.cpp.o)}</text>
</g>
<!-- Node0x5630573785f8 -->
<g id="node50" class="node">
<title>Node0x5630573785f8</title>
<polygon fill="none" stroke="black" points="462.5,-2489 35.5,-2489 35.5,-2453 462.5,-2453 462.5,-2489"/>
<text text-anchor="middle" x="249" y="-2467.3" font-family="Times,serif" font-size="14.00">{lib/libLLVMScalarOpts.a(LoopUnrollAndJamPass.cpp.o)}</text>
</g>
<!-- Node0x5630573785f8&#45;&gt;Node0x563057378d28 -->
<g id="edge4" class="edge">
<title>Node0x5630573785f8&#45;&gt;Node0x563057378d28</title>
<path fill="none" stroke="black" d="M462.54,-2471C482.86,-2471 503.4,-2471 523.55,-2471"/>
<polygon fill="black" stroke="black" points="523.72,-2474.5 533.72,-2471 523.72,-2467.5 523.72,-2474.5"/>
</g>
<!-- Node0x5630573776f8 -->
<g id="node51" class="node">
<title>Node0x5630573776f8</title>
<polygon fill="none" stroke="black" points="454,-2543 44,-2543 44,-2507 454,-2507 454,-2543"/>
<text text-anchor="middle" x="249" y="-2521.3" font-family="Times,serif" font-size="14.00">{lib/libLLVMScalarOpts.a(LoopVersioningLICM.cpp.o)}</text>
</g>
<!-- Node0x563057376fc8 -->
<g id="node52" class="node">
<title>Node0x563057376fc8</title>
<polygon fill="none" stroke="black" points="426,-2597 72,-2597 72,-2561 426,-2561 426,-2597"/>
<text text-anchor="middle" x="249" y="-2575.3" font-family="Times,serif" font-size="14.00">{lib/libLLVMScalarOpts.a(LowerAtomic.cpp.o)}</text>
</g>
<!-- Node0x563057393588 -->
<g id="node53" class="node">
<title>Node0x563057393588</title>
<polygon fill="none" stroke="black" points="456,-2651 42,-2651 42,-2615 456,-2615 456,-2651"/>
<text text-anchor="middle" x="249" y="-2629.3" font-family="Times,serif" font-size="14.00">{lib/libLLVMScalarOpts.a(LowerExpectIntrinsic.cpp.o)}</text>
</g>
<!-- Node0x5630573929a8 -->
<g id="node54" class="node">
<title>Node0x5630573929a8</title>
<polygon fill="none" stroke="black" points="453.5,-2705 44.5,-2705 44.5,-2669 453.5,-2669 453.5,-2705"/>
<text text-anchor="middle" x="249" y="-2683.3" font-family="Times,serif" font-size="14.00">{lib/libLLVMScalarOpts.a(LowerGuardIntrinsic.cpp.o)}</text>
</g>
<!-- Node0x563057392f98 -->
<g id="node55" class="node">
<title>Node0x563057392f98</title>
<polygon fill="none" stroke="black" points="459,-2759 39,-2759 39,-2723 459,-2723 459,-2759"/>
<text text-anchor="middle" x="249" y="-2737.3" font-family="Times,serif" font-size="14.00">{lib/libLLVMScalarOpts.a(LowerMatrixIntrinsics.cpp.o)}</text>
</g>
<!-- Node0x563057392318 -->
<g id="node56" class="node">
<title>Node0x563057392318</title>
<polygon fill="none" stroke="black" points="473.5,-2813 24.5,-2813 24.5,-2777 473.5,-2777 473.5,-2813"/>
<text text-anchor="middle" x="249" y="-2791.3" font-family="Times,serif" font-size="14.00">{lib/libLLVMScalarOpts.a(LowerWidenableCondition.cpp.o)}</text>
</g>
<!-- Node0x563057384858 -->
<g id="node57" class="node">
<title>Node0x563057384858</title>
<polygon fill="none" stroke="black" points="452,-2867 46,-2867 46,-2831 452,-2831 452,-2867"/>
<text text-anchor="middle" x="249" y="-2845.3" font-family="Times,serif" font-size="14.00">{lib/libLLVMScalarOpts.a(MakeGuardsExplicit.cpp.o)}</text>
</g>
<!-- Node0x563057384628 -->
<g id="node58" class="node">
<title>Node0x563057384628</title>
<polygon fill="none" stroke="black" points="446,-2921 52,-2921 52,-2885 446,-2885 446,-2921"/>
<text text-anchor="middle" x="249" y="-2899.3" font-family="Times,serif" font-size="14.00">{lib/libLLVMScalarOpts.a(MemCpyOptimizer.cpp.o)}</text>
</g>
<!-- Node0x563057380f28 -->
<g id="node59" class="node">
<title>Node0x563057380f28</title>
<polygon fill="none" stroke="black" points="469,-2975 29,-2975 29,-2939 469,-2939 469,-2975"/>
<text text-anchor="middle" x="249" y="-2953.3" font-family="Times,serif" font-size="14.00">{lib/libLLVMScalarOpts.a(MergedLoadStoreMotion.cpp.o)}</text>
</g>
<!-- Node0x563057382a58 -->
<g id="node60" class="node">
<title>Node0x563057382a58</title>
<polygon fill="none" stroke="black" points="439,-3029 59,-3029 59,-2993 439,-2993 439,-3029"/>
<text text-anchor="middle" x="249" y="-3007.3" font-family="Times,serif" font-size="14.00">{lib/libLLVMScalarOpts.a(NaryReassociate.cpp.o)}</text>
</g>
<!-- Node0x56305737f178 -->
<g id="node61" class="node">
<title>Node0x56305737f178</title>
<polygon fill="none" stroke="black" points="421.5,-3083 76.5,-3083 76.5,-3047 421.5,-3047 421.5,-3083"/>
<text text-anchor="middle" x="249" y="-3061.3" font-family="Times,serif" font-size="14.00">{lib/libLLVMScalarOpts.a(Reassociate.cpp.o)}</text>
</g>
<!-- Node0x56305737e9a8 -->
<g id="node62" class="node">
<title>Node0x56305737e9a8</title>
<polygon fill="none" stroke="black" points="415.5,-3137 82.5,-3137 82.5,-3101 415.5,-3101 415.5,-3137"/>
<text text-anchor="middle" x="249" y="-3115.3" font-family="Times,serif" font-size="14.00">{lib/libLLVMScalarOpts.a(Reg2Mem.cpp.o)}</text>
</g>
<!-- Node0x56305737e278 -->
<g id="node63" class="node">
<title>Node0x56305737e278</title>
<polygon fill="none" stroke="black" points="471.5,-3191 26.5,-3191 26.5,-3155 471.5,-3155 471.5,-3191"/>
<text text-anchor="middle" x="249" y="-3169.3" font-family="Times,serif" font-size="14.00">{lib/libLLVMScalarOpts.a(RewriteStatepointsForGC.cpp.o)}</text>
</g>
<!-- Node0x5630573802f8 -->
<g id="node64" class="node">
<title>Node0x5630573802f8</title>
<polygon fill="none" stroke="black" points="398,-3245 100,-3245 100,-3209 398,-3209 398,-3245"/>
<text text-anchor="middle" x="249" y="-3223.3" font-family="Times,serif" font-size="14.00">{lib/libLLVMScalarOpts.a(SCCP.cpp.o)}</text>
</g>
<!-- Node0x563057385488 -->
<g id="node65" class="node">
<title>Node0x563057385488</title>
<polygon fill="none" stroke="black" points="400,-3299 98,-3299 98,-3263 400,-3263 400,-3299"/>
<text text-anchor="middle" x="249" y="-3277.3" font-family="Times,serif" font-size="14.00">{lib/libLLVMScalarOpts.a(SROA.cpp.o)}</text>
</g>
<!-- Node0x563057384d58 -->
<g id="node66" class="node">
<title>Node0x563057384d58</title>
<polygon fill="none" stroke="black" points="414.5,-3353 83.5,-3353 83.5,-3317 414.5,-3317 414.5,-3353"/>
<text text-anchor="middle" x="249" y="-3331.3" font-family="Times,serif" font-size="14.00">{lib/libLLVMScalarOpts.a(Scalarizer.cpp.o)}</text>
</g>
<!-- Node0x563057383f98 -->
<g id="node67" class="node">
<title>Node0x563057383f98</title>
<polygon fill="none" stroke="black" points="487,-3407 11,-3407 11,-3371 487,-3371 487,-3407"/>
<text text-anchor="middle" x="249" y="-3385.3" font-family="Times,serif" font-size="14.00">{lib/libLLVMScalarOpts.a(SeparateConstOffsetFromGEP.cpp.o)}</text>
</g>
<!-- Node0x5630573838b8 -->
<g id="node68" class="node">
<title>Node0x5630573838b8</title>
<polygon fill="none" stroke="black" points="455,-3461 43,-3461 43,-3425 455,-3425 455,-3461"/>
<text text-anchor="middle" x="249" y="-3439.3" font-family="Times,serif" font-size="14.00">{lib/libLLVMScalarOpts.a(SimpleLoopUnswitch.cpp.o)}</text>
</g>
<!-- Node0x563057387a08 -->
<g id="node69" class="node">
<title>Node0x563057387a08</title>
<polygon fill="none" stroke="black" points="440.5,-3515 57.5,-3515 57.5,-3479 440.5,-3479 440.5,-3515"/>
<text text-anchor="middle" x="249" y="-3493.3" font-family="Times,serif" font-size="14.00">{lib/libLLVMScalarOpts.a(SimplifyCFGPass.cpp.o)}</text>
</g>
<!-- Node0x563057387008 -->
<g id="node70" class="node">
<title>Node0x563057387008</title>
<polygon fill="none" stroke="black" points="395,-3569 103,-3569 103,-3533 395,-3533 395,-3569"/>
<text text-anchor="middle" x="249" y="-3547.3" font-family="Times,serif" font-size="14.00">{lib/libLLVMScalarOpts.a(Sink.cpp.o)}</text>
</g>
<!-- Node0x563057386018 -->
<g id="node71" class="node">
<title>Node0x563057386018</title>
<polygon fill="none" stroke="black" points="456.5,-3623 41.5,-3623 41.5,-3587 456.5,-3587 456.5,-3623"/>
<text text-anchor="middle" x="249" y="-3601.3" font-family="Times,serif" font-size="14.00">{lib/libLLVMScalarOpts.a(SpeculativeExecution.cpp.o)}</text>
</g>
<!-- Node0x563057386a18 -->
<g id="node72" class="node">
<title>Node0x563057386a18</title>
<polygon fill="none" stroke="black" points="482.5,-3677 15.5,-3677 15.5,-3641 482.5,-3641 482.5,-3677"/>
<text text-anchor="middle" x="249" y="-3655.3" font-family="Times,serif" font-size="14.00">{lib/libLLVMScalarOpts.a(StraightLineStrengthReduce.cpp.o)}</text>
</g>
<!-- Node0x563057385d98 -->
<g id="node73" class="node">
<title>Node0x563057385d98</title>
<polygon fill="none" stroke="black" points="435,-3731 63,-3731 63,-3695 435,-3695 435,-3731"/>
<text text-anchor="middle" x="249" y="-3709.3" font-family="Times,serif" font-size="14.00">{lib/libLLVMScalarOpts.a(StructurizeCFG.cpp.o)}</text>
</g>
<!-- Node0x563057389e98 -->
<g id="node74" class="node">
<title>Node0x563057389e98</title>
<polygon fill="none" stroke="black" points="469,-3785 29,-3785 29,-3749 469,-3749 469,-3785"/>
<text text-anchor="middle" x="249" y="-3763.3" font-family="Times,serif" font-size="14.00">{lib/libLLVMScalarOpts.a(TailRecursionElimination.cpp.o)}</text>
</g>
<!-- Node0x563057376a78 -->
<g id="node75" class="node">
<title>Node0x563057376a78</title>
<polygon fill="none" stroke="black" points="430,-3839 68,-3839 68,-3803 430,-3803 430,-3839"/>
<text text-anchor="middle" x="249" y="-3817.3" font-family="Times,serif" font-size="14.00">{lib/libLLVMScalarOpts.a(LoopUnswitch.cpp.o)}</text>
</g>
</g>
</svg>
