<?xml version="1.0" encoding="UTF-8" standalone="no"?>
<!DOCTYPE svg PUBLIC "-//W3C//DTD SVG 1.1//EN"
 "http://www.w3.org/Graphics/SVG/1.1/DTD/svg11.dtd">
<!-- Generated by graphviz version 2.43.0 (0)
 -->
<!-- Title: bin/llvm&#45;cxxmap Pages: 1 -->
<svg width="499pt" height="214pt"
 viewBox="0.00 0.00 499.00 214.00" xmlns="http://www.w3.org/2000/svg" xmlns:xlink="http://www.w3.org/1999/xlink">
<g id="graph0" class="graph" transform="scale(1 1) rotate(0) translate(4 210)">
<title>bin/llvm&#45;cxxmap</title>
<polygon fill="white" stroke="transparent" points="-4,4 -4,-210 495,-210 495,4 -4,4"/>
<text text-anchor="middle" x="245.5" y="-7.8" font-family="Times,serif" font-size="14.00">bin/llvm&#45;cxxmap</text>
<!-- Node0x56380f670e78 -->
<g id="node1" class="node">
<title>Node0x56380f670e78</title>
<polygon fill="#ff7f7f" stroke="black" points="0,-169.5 0,-205.5 491,-205.5 491,-169.5 0,-169.5"/>
<text text-anchor="middle" x="245.5" y="-183.8" font-family="Times,serif" font-size="14.00">tools/llvm&#45;cxxmap/CMakeFiles/llvm&#45;cxxmap.dir/llvm&#45;cxxmap.cpp.o</text>
</g>
<!-- Node0x56380f671d78 -->
<g id="node2" class="node">
<title>Node0x56380f671d78</title>
<polygon fill="#ff7f7f" stroke="black" points="161.5,-96.5 161.5,-132.5 329.5,-132.5 329.5,-96.5 161.5,-96.5"/>
<text text-anchor="middle" x="245.5" y="-110.8" font-family="Times,serif" font-size="14.00">lib/libLLVMSupport.a</text>
</g>
<!-- Node0x56380f670e78&#45;&gt;Node0x56380f671d78 -->
<g id="edge1" class="edge">
<title>Node0x56380f670e78&#45;&gt;Node0x56380f671d78</title>
<path fill="none" stroke="#ff7f7f" d="M239.62,-169.31C238.78,-161.29 238.55,-151.55 238.92,-142.57"/>
<polygon fill="#ff7f7f" stroke="#ff7f7f" points="242.42,-142.75 239.64,-132.53 235.44,-142.25 242.42,-142.75"/>
</g>
<!-- Node0x56380f671d78&#45;&gt;Node0x56380f670e78 -->
<g id="edge2" class="edge">
<title>Node0x56380f671d78&#45;&gt;Node0x56380f670e78</title>
<path fill="none" stroke="#ff7f7f" d="M251.36,-132.53C252.21,-140.53 252.45,-150.27 252.09,-159.25"/>
<polygon fill="#ff7f7f" stroke="#ff7f7f" points="248.59,-159.09 251.38,-169.31 255.57,-159.58 248.59,-159.09"/>
</g>
<!-- Node0x56380f672598 -->
<g id="node3" class="node">
<title>Node0x56380f672598</title>
<polygon fill="#ff7f7f" stroke="black" points="154.5,-23.5 154.5,-59.5 336.5,-59.5 336.5,-23.5 154.5,-23.5"/>
<text text-anchor="middle" x="245.5" y="-37.8" font-family="Times,serif" font-size="14.00">lib/libLLVMDemangle.a</text>
</g>
<!-- Node0x56380f671d78&#45;&gt;Node0x56380f672598 -->
<g id="edge3" class="edge">
<title>Node0x56380f671d78&#45;&gt;Node0x56380f672598</title>
<path fill="none" stroke="#ff7f7f" d="M239.62,-96.31C238.78,-88.29 238.55,-78.55 238.92,-69.57"/>
<polygon fill="#ff7f7f" stroke="#ff7f7f" points="242.42,-69.75 239.64,-59.53 235.44,-69.25 242.42,-69.75"/>
</g>
<!-- Node0x56380f672598&#45;&gt;Node0x56380f671d78 -->
<g id="edge4" class="edge">
<title>Node0x56380f672598&#45;&gt;Node0x56380f671d78</title>
<path fill="none" stroke="#ff7f7f" d="M251.36,-59.53C252.21,-67.53 252.45,-77.27 252.09,-86.25"/>
<polygon fill="#ff7f7f" stroke="#ff7f7f" points="248.59,-86.09 251.38,-96.31 255.57,-86.58 248.59,-86.09"/>
</g>
</g>
</svg>
