<?xml version="1.0" encoding="UTF-8" standalone="no"?>
<!DOCTYPE svg PUBLIC "-//W3C//DTD SVG 1.1//EN"
 "http://www.w3.org/Graphics/SVG/1.1/DTD/svg11.dtd">
<!-- Generated by graphviz version 2.43.0 (0)
 -->
<!-- Title: bin/llvm&#45;jitlink Pages: 1 -->
<svg width="3141pt" height="1455pt"
 viewBox="0.00 0.00 3141.34 1455.00" xmlns="http://www.w3.org/2000/svg" xmlns:xlink="http://www.w3.org/1999/xlink">
<g id="graph0" class="graph" transform="scale(1 1) rotate(0) translate(4 1451)">
<title>bin/llvm&#45;jitlink</title>
<polygon fill="white" stroke="transparent" points="-4,4 -4,-1451 3137.34,-1451 3137.34,4 -4,4"/>
<text text-anchor="middle" x="1566.67" y="-7.8" font-family="Times,serif" font-size="14.00">bin/llvm&#45;jitlink</text>
<!-- Node0x55f36b8d9538 -->
<g id="node1" class="node">
<title>Node0x55f36b8d9538</title>
<polygon fill="#ff7f7f" stroke="black" points="1634,-1410.5 1634,-1446.5 2084,-1446.5 2084,-1410.5 1634,-1410.5"/>
<text text-anchor="middle" x="1859" y="-1424.8" font-family="Times,serif" font-size="14.00">tools/llvm&#45;jitlink/CMakeFiles/llvm&#45;jitlink.dir/llvm&#45;jitlink.cpp.o</text>
</g>
<!-- Node0x55f36b8d8d68 -->
<g id="node2" class="node">
<title>Node0x55f36b8d8d68</title>
<polygon fill="#ff7f7f" stroke="black" points="1550,-1264.5 1550,-1300.5 2022,-1300.5 2022,-1264.5 1550,-1264.5"/>
<text text-anchor="middle" x="1786" y="-1278.8" font-family="Times,serif" font-size="14.00">tools/llvm&#45;jitlink/CMakeFiles/llvm&#45;jitlink.dir/llvm&#45;jitlink&#45;elf.cpp.o</text>
</g>
<!-- Node0x55f36b8d9538&#45;&gt;Node0x55f36b8d8d68 -->
<g id="edge1" class="edge">
<title>Node0x55f36b8d9538&#45;&gt;Node0x55f36b8d8d68</title>
<path fill="none" stroke="#ff7f7f" d="M1919.89,-1410.39C1937.71,-1402.41 1955.24,-1390.81 1966,-1374 1974.86,-1360.15 1975.92,-1350.12 1966,-1337 1955.38,-1322.95 1922.56,-1311.53 1887.78,-1302.9"/>
<polygon fill="#ff7f7f" stroke="#ff7f7f" points="1888.47,-1299.47 1877.93,-1300.54 1886.84,-1306.28 1888.47,-1299.47"/>
</g>
<!-- Node0x55f36b8d99e8 -->
<g id="node3" class="node">
<title>Node0x55f36b8d99e8</title>
<polygon fill="#ff7f7f" stroke="black" points="1464.5,-1337.5 1464.5,-1373.5 1965.5,-1373.5 1965.5,-1337.5 1464.5,-1337.5"/>
<text text-anchor="middle" x="1715" y="-1351.8" font-family="Times,serif" font-size="14.00">tools/llvm&#45;jitlink/CMakeFiles/llvm&#45;jitlink.dir/llvm&#45;jitlink&#45;macho.cpp.o</text>
</g>
<!-- Node0x55f36b8d9538&#45;&gt;Node0x55f36b8d99e8 -->
<g id="edge2" class="edge">
<title>Node0x55f36b8d9538&#45;&gt;Node0x55f36b8d99e8</title>
<path fill="none" stroke="#ff7f7f" d="M1818.65,-1410.49C1798,-1400.82 1773.07,-1388.6 1752.8,-1378.23"/>
<polygon fill="#ff7f7f" stroke="#ff7f7f" points="1754.33,-1375.08 1743.84,-1373.61 1751.12,-1381.31 1754.33,-1375.08"/>
</g>
<!-- Node0x55f36b8d12e8 -->
<g id="node4" class="node">
<title>Node0x55f36b8d12e8</title>
<polygon fill="#ff7f7f" stroke="black" points="533.5,-169.5 533.5,-205.5 706.5,-205.5 706.5,-169.5 533.5,-169.5"/>
<text text-anchor="middle" x="620" y="-183.8" font-family="Times,serif" font-size="14.00">lib/libLLVMX86Desc.a</text>
</g>
<!-- Node0x55f36b8d9538&#45;&gt;Node0x55f36b8d12e8 -->
<g id="edge3" class="edge">
<title>Node0x55f36b8d9538&#45;&gt;Node0x55f36b8d12e8</title>
<path fill="none" stroke="#ff7f7f" d="M1633.89,-1427.07C1218.94,-1425.25 371.18,-1416.37 323,-1374 245.96,-1306.26 248,-1021.09 248,-918.5 248,-918.5 248,-918.5 248,-770.5 248,-672.59 286,-651.41 286,-553.5 286,-553.5 286,-553.5 286,-478.5 286,-336.71 460.35,-247.05 557.19,-209.22"/>
<polygon fill="#ff7f7f" stroke="#ff7f7f" points="558.51,-212.46 566.6,-205.61 556.01,-205.93 558.51,-212.46"/>
</g>
<!-- Node0x55f36b8d0398 -->
<g id="node5" class="node">
<title>Node0x55f36b8d0398</title>
<polygon fill="#ff7f7f" stroke="black" points="28.5,-1264.5 28.5,-1300.5 261.5,-1300.5 261.5,-1264.5 28.5,-1264.5"/>
<text text-anchor="middle" x="145" y="-1278.8" font-family="Times,serif" font-size="14.00">lib/libLLVMX86Disassembler.a</text>
</g>
<!-- Node0x55f36b8d9538&#45;&gt;Node0x55f36b8d0398 -->
<g id="edge4" class="edge">
<title>Node0x55f36b8d9538&#45;&gt;Node0x55f36b8d0398</title>
<path fill="none" stroke="#ff7f7f" d="M1633.96,-1426.9C1227.48,-1424.78 401.2,-1415.38 276,-1374 234.79,-1360.38 194.85,-1329.43 170.13,-1307.52"/>
<polygon fill="#ff7f7f" stroke="#ff7f7f" points="172.42,-1304.87 162.65,-1300.76 167.72,-1310.07 172.42,-1304.87"/>
</g>
<!-- Node0x55f36b8d05c8 -->
<g id="node6" class="node">
<title>Node0x55f36b8d05c8</title>
<polygon fill="#ff7f7f" stroke="black" points="65,-96.5 65,-132.5 231,-132.5 231,-96.5 65,-96.5"/>
<text text-anchor="middle" x="148" y="-110.8" font-family="Times,serif" font-size="14.00">lib/libLLVMX86Info.a</text>
</g>
<!-- Node0x55f36b8d9538&#45;&gt;Node0x55f36b8d05c8 -->
<g id="edge5" class="edge">
<title>Node0x55f36b8d9538&#45;&gt;Node0x55f36b8d05c8</title>
<path fill="none" stroke="#ff7f7f" d="M1633.95,-1424.51C1213.77,-1418.29 340,-1402.15 204,-1374 106.87,-1353.9 0,-1382.69 0,-1283.5 0,-1283.5 0,-1283.5 0,-259.5 0,-202.44 57.22,-160.66 100.5,-137.23"/>
<polygon fill="#ff7f7f" stroke="#ff7f7f" points="102.27,-140.25 109.5,-132.5 99.02,-134.05 102.27,-140.25"/>
</g>
<!-- Node0x55f36b8cf718 -->
<g id="node7" class="node">
<title>Node0x55f36b8cf718</title>
<polygon fill="#ff7f7f" stroke="black" points="1626.5,-23.5 1626.5,-59.5 1835.5,-59.5 1835.5,-23.5 1626.5,-23.5"/>
<text text-anchor="middle" x="1731" y="-37.8" font-family="Times,serif" font-size="14.00">lib/libLLVMBinaryFormat.a</text>
</g>
<!-- Node0x55f36b8d9538&#45;&gt;Node0x55f36b8cf718 -->
<g id="edge6" class="edge">
<title>Node0x55f36b8d9538&#45;&gt;Node0x55f36b8cf718</title>
<path fill="none" stroke="#ff7f7f" d="M2084.07,-1426.32C2347.69,-1423.14 2767.81,-1412.01 2921,-1374 3013.34,-1351.09 3115,-1378.64 3115,-1283.5 3115,-1283.5 3115,-1283.5 3115,-186.5 3115,-144.4 3120.39,-121.65 3087,-96 3038,-58.36 2163.99,-46.55 1845.69,-43.46"/>
<polygon fill="#ff7f7f" stroke="#ff7f7f" points="1845.55,-39.96 1835.52,-43.36 1845.48,-46.96 1845.55,-39.96"/>
</g>
<!-- Node0x55f36b8ced18 -->
<g id="node8" class="node">
<title>Node0x55f36b8ced18</title>
<polygon fill="#ff7f7f" stroke="black" points="2172.5,-1118.5 2172.5,-1154.5 2333.5,-1154.5 2333.5,-1118.5 2172.5,-1118.5"/>
<text text-anchor="middle" x="2253" y="-1132.8" font-family="Times,serif" font-size="14.00">lib/libLLVMJITLink.a</text>
</g>
<!-- Node0x55f36b8d9538&#45;&gt;Node0x55f36b8ced18 -->
<g id="edge7" class="edge">
<title>Node0x55f36b8d9538&#45;&gt;Node0x55f36b8ced18</title>
<path fill="none" stroke="#ff7f7f" d="M2026.71,-1410.46C2079.2,-1402.27 2128.7,-1390.51 2149,-1374 2214.71,-1320.54 2235.27,-1214.77 2245.22,-1164.83"/>
<polygon fill="#ff7f7f" stroke="#ff7f7f" points="2248.7,-1165.27 2247.26,-1154.78 2241.84,-1163.89 2248.7,-1165.27"/>
</g>
<!-- Node0x55f36b8cf308 -->
<g id="node9" class="node">
<title>Node0x55f36b8cf308</title>
<polygon fill="#ff7f7f" stroke="black" points="951.5,-96.5 951.5,-132.5 1086.5,-132.5 1086.5,-96.5 951.5,-96.5"/>
<text text-anchor="middle" x="1019" y="-110.8" font-family="Times,serif" font-size="14.00">lib/libLLVMMC.a</text>
</g>
<!-- Node0x55f36b8d9538&#45;&gt;Node0x55f36b8cf308 -->
<g id="edge8" class="edge">
<title>Node0x55f36b8d9538&#45;&gt;Node0x55f36b8cf308</title>
<path fill="none" stroke="#ff7f7f" d="M1633.76,-1426.4C1243.52,-1423.48 478.97,-1412.79 435,-1374 373.24,-1319.52 380,-1221.04 380,-772.5 380,-772.5 380,-772.5 380,-259.5 380,-146.39 770.82,-122.13 941.22,-116.92"/>
<polygon fill="#ff7f7f" stroke="#ff7f7f" points="941.49,-120.41 951.38,-116.63 941.28,-113.42 941.49,-120.41"/>
</g>
<!-- Node0x55f36b8ce318 -->
<g id="node10" class="node">
<title>Node0x55f36b8ce318</title>
<polygon fill="#ff7f7f" stroke="black" points="1787.5,-972.5 1787.5,-1008.5 1944.5,-1008.5 1944.5,-972.5 1787.5,-972.5"/>
<text text-anchor="middle" x="1866" y="-986.8" font-family="Times,serif" font-size="14.00">lib/libLLVMObject.a</text>
</g>
<!-- Node0x55f36b8d9538&#45;&gt;Node0x55f36b8ce318 -->
<g id="edge9" class="edge">
<title>Node0x55f36b8d9538&#45;&gt;Node0x55f36b8ce318</title>
<path fill="none" stroke="#ff7f7f" d="M1929.53,-1410.42C1951.63,-1402.41 1974.7,-1390.79 1992,-1374 2017.17,-1349.57 2015.2,-1335.41 2022,-1301 2045.01,-1184.47 1937.16,-1065.83 1888.49,-1015.95"/>
<polygon fill="#ff7f7f" stroke="#ff7f7f" points="1890.72,-1013.23 1881.21,-1008.55 1885.73,-1018.13 1890.72,-1013.23"/>
</g>
<!-- Node0x55f36b8e11e8 -->
<g id="node11" class="node">
<title>Node0x55f36b8e11e8</title>
<polygon fill="#ff7f7f" stroke="black" points="1267,-1191.5 1267,-1227.5 1435,-1227.5 1435,-1191.5 1267,-1191.5"/>
<text text-anchor="middle" x="1351" y="-1205.8" font-family="Times,serif" font-size="14.00">lib/libLLVMSupport.a</text>
</g>
<!-- Node0x55f36b8d9538&#45;&gt;Node0x55f36b8e11e8 -->
<g id="edge10" class="edge">
<title>Node0x55f36b8d9538&#45;&gt;Node0x55f36b8e11e8</title>
<path fill="none" stroke="#ff7f7f" d="M1633.69,-1414.62C1517.06,-1405.74 1394.88,-1392.22 1375,-1374 1337.21,-1339.36 1335.9,-1274.45 1341.67,-1237.69"/>
<polygon fill="#ff7f7f" stroke="#ff7f7f" points="1345.14,-1238.16 1343.56,-1227.69 1338.26,-1236.86 1345.14,-1238.16"/>
</g>
<!-- Node0x55f36b8ce868 -->
<g id="node12" class="node">
<title>Node0x55f36b8ce868</title>
<polygon fill="#ff7f7f" stroke="black" points="2231,-169.5 2231,-205.5 2385,-205.5 2385,-169.5 2231,-169.5"/>
<text text-anchor="middle" x="2308" y="-183.8" font-family="Times,serif" font-size="14.00">lib/libLLVMOrcJIT.a</text>
</g>
<!-- Node0x55f36b8d9538&#45;&gt;Node0x55f36b8ce868 -->
<g id="edge11" class="edge">
<title>Node0x55f36b8d9538&#45;&gt;Node0x55f36b8ce868</title>
<path fill="none" stroke="#ff7f7f" d="M2084.15,-1421.62C2296.54,-1414.65 2599.07,-1400.47 2715,-1374 2816.07,-1350.92 2930,-1387.18 2930,-1283.5 2930,-1283.5 2930,-1283.5 2930,-1135.5 2930,-832.39 2740,-783.61 2740,-480.5 2740,-480.5 2740,-480.5 2740,-332.5 2740,-287.38 2731.05,-267.76 2694,-242 2639.1,-203.83 2466.58,-216.06 2388.74,-207"/>
<polygon fill="#ff7f7f" stroke="#ff7f7f" points="2388.79,-203.47 2378.4,-205.57 2387.83,-210.4 2388.79,-203.47"/>
</g>
<!-- Node0x55f36b8cd918 -->
<g id="node13" class="node">
<title>Node0x55f36b8cd918</title>
<polygon fill="#ff7f7f" stroke="black" points="2899.5,-96.5 2899.5,-132.5 3086.5,-132.5 3086.5,-96.5 2899.5,-96.5"/>
<text text-anchor="middle" x="2993" y="-110.8" font-family="Times,serif" font-size="14.00">lib/libLLVMOrcShared.a</text>
</g>
<!-- Node0x55f36b8d9538&#45;&gt;Node0x55f36b8cd918 -->
<g id="edge12" class="edge">
<title>Node0x55f36b8d9538&#45;&gt;Node0x55f36b8cd918</title>
<path fill="none" stroke="#ff7f7f" d="M2084.16,-1427.72C2327.8,-1425.68 2699.54,-1415.47 2835,-1374 2909.81,-1351.1 2986,-1361.74 2986,-1283.5 2986,-1283.5 2986,-1283.5 2986,-259.5 2986,-218.93 2985.2,-171.93 2986.9,-142.96"/>
<polygon fill="#ff7f7f" stroke="#ff7f7f" points="2990.41,-143.03 2987.68,-132.79 2983.43,-142.49 2990.41,-143.03"/>
</g>
<!-- Node0x55f36b8cddc8 -->
<g id="node14" class="node">
<title>Node0x55f36b8cddc8</title>
<polygon fill="#ff7f7f" stroke="black" points="2608,-1045.5 2608,-1081.5 2846,-1081.5 2846,-1045.5 2608,-1045.5"/>
<text text-anchor="middle" x="2727" y="-1059.8" font-family="Times,serif" font-size="14.00">lib/libLLVMOrcTargetProcess.a</text>
</g>
<!-- Node0x55f36b8d9538&#45;&gt;Node0x55f36b8cddc8 -->
<g id="edge13" class="edge">
<title>Node0x55f36b8d9538&#45;&gt;Node0x55f36b8cddc8</title>
<path fill="none" stroke="#ff7f7f" d="M2084.2,-1410.83C2335.45,-1389.36 2707,-1347.08 2707,-1283.5 2707,-1283.5 2707,-1283.5 2707,-1208.5 2707,-1167.81 2711.42,-1120.85 2716.95,-1091.91"/>
<polygon fill="#ff7f7f" stroke="#ff7f7f" points="2720.45,-1092.27 2719.11,-1081.76 2713.61,-1090.81 2720.45,-1092.27"/>
</g>
<!-- Node0x55f36b8e1698 -->
<g id="node15" class="node">
<title>Node0x55f36b8e1698</title>
<polygon fill="#ff7f7f" stroke="black" points="1853,-242.5 1853,-278.5 2057,-278.5 2057,-242.5 1853,-242.5"/>
<text text-anchor="middle" x="1955" y="-256.8" font-family="Times,serif" font-size="14.00">lib/libLLVMRuntimeDyld.a</text>
</g>
<!-- Node0x55f36b8d9538&#45;&gt;Node0x55f36b8e1698 -->
<g id="edge14" class="edge">
<title>Node0x55f36b8d9538&#45;&gt;Node0x55f36b8e1698</title>
<path fill="none" stroke="#ff7f7f" d="M2084.07,-1417.59C2383.1,-1401.48 2874,-1363.05 2874,-1283.5 2874,-1283.5 2874,-1283.5 2874,-1135.5 2874,-1093.4 2867.7,-1081.08 2846,-1045 2787.22,-947.23 2740.09,-948.88 2665,-863 2495.62,-669.3 2534.65,-549.09 2334,-388 2284.13,-347.96 2269.72,-337.89 2210,-315 2164.54,-297.58 2112.39,-285.47 2067.12,-277.25"/>
<polygon fill="#ff7f7f" stroke="#ff7f7f" points="2067.73,-273.8 2057.27,-275.5 2066.5,-280.7 2067.73,-273.8"/>
</g>
<!-- Node0x55f36b8d8d68&#45;&gt;Node0x55f36b8d9538 -->
<g id="edge15" class="edge">
<title>Node0x55f36b8d8d68&#45;&gt;Node0x55f36b8d9538</title>
<path fill="none" stroke="#ff7f7f" d="M1894.38,-1300.54C1934.19,-1309.41 1972.38,-1321.63 1984,-1337 1993.92,-1350.12 1992.86,-1360.15 1984,-1374 1975.09,-1387.92 1961.54,-1398.27 1946.57,-1405.95"/>
<polygon fill="#ff7f7f" stroke="#ff7f7f" points="1944.67,-1402.98 1937.11,-1410.39 1947.65,-1409.31 1944.67,-1402.98"/>
</g>
<!-- Node0x55f36b8d8d68&#45;&gt;Node0x55f36b8e11e8 -->
<g id="edge16" class="edge">
<title>Node0x55f36b8d8d68&#45;&gt;Node0x55f36b8e11e8</title>
<path fill="none" stroke="#ff7f7f" d="M1681.81,-1264.49C1609.82,-1252.74 1514.85,-1237.24 1445.14,-1225.87"/>
<polygon fill="#ff7f7f" stroke="#ff7f7f" points="1445.48,-1222.37 1435.04,-1224.22 1444.35,-1229.28 1445.48,-1222.37"/>
</g>
<!-- Node0x55f36b8d99e8&#45;&gt;Node0x55f36b8d9538 -->
<g id="edge17" class="edge">
<title>Node0x55f36b8d99e8&#45;&gt;Node0x55f36b8d9538</title>
<path fill="none" stroke="#ff7f7f" d="M1755.58,-1373.61C1776.26,-1383.31 1801.19,-1395.53 1821.43,-1405.88"/>
<polygon fill="#ff7f7f" stroke="#ff7f7f" points="1819.88,-1409.02 1830.37,-1410.49 1823.08,-1402.8 1819.88,-1409.02"/>
</g>
<!-- Node0x55f36b8d99e8&#45;&gt;Node0x55f36b8d8d68 -->
<g id="edge18" class="edge">
<title>Node0x55f36b8d99e8&#45;&gt;Node0x55f36b8d8d68</title>
<path fill="none" stroke="#ff7f7f" d="M1732.19,-1337.31C1741.08,-1328.42 1752.09,-1317.41 1761.83,-1307.67"/>
<polygon fill="#ff7f7f" stroke="#ff7f7f" points="1764.37,-1310.07 1768.97,-1300.53 1759.43,-1305.13 1764.37,-1310.07"/>
</g>
<!-- Node0x55f36b8d99e8&#45;&gt;Node0x55f36b8e11e8 -->
<g id="edge19" class="edge">
<title>Node0x55f36b8d99e8&#45;&gt;Node0x55f36b8e11e8</title>
<path fill="none" stroke="#ff7f7f" d="M1651.83,-1337.49C1618.47,-1327.9 1577.08,-1315.05 1541,-1301 1488.43,-1280.52 1430.15,-1251.82 1392.18,-1232.27"/>
<polygon fill="#ff7f7f" stroke="#ff7f7f" points="1393.47,-1229 1382.98,-1227.51 1390.25,-1235.21 1393.47,-1229"/>
</g>
<!-- Node0x55f36b8d12e8&#45;&gt;Node0x55f36b8d9538 -->
<g id="edge24" class="edge">
<title>Node0x55f36b8d12e8&#45;&gt;Node0x55f36b8d9538</title>
<path fill="none" stroke="#ff7f7f" d="M576.79,-205.61C490.16,-241.13 304,-331.99 304,-478.5 304,-553.5 304,-553.5 304,-553.5 304,-651.41 266,-672.59 266,-770.5 266,-918.5 266,-918.5 266,-918.5 266,-1021.09 263.96,-1306.26 341,-1374 388.39,-1415.68 1209.37,-1424.95 1623.75,-1426.97"/>
<polygon fill="#ff7f7f" stroke="#ff7f7f" points="1623.75,-1430.47 1633.77,-1427.02 1623.79,-1423.47 1623.75,-1430.47"/>
</g>
<!-- Node0x55f36b8d12e8&#45;&gt;Node0x55f36b8d05c8 -->
<g id="edge20" class="edge">
<title>Node0x55f36b8d12e8&#45;&gt;Node0x55f36b8d05c8</title>
<path fill="none" stroke="#ff7f7f" d="M533.43,-173.48C450.61,-161.02 326.09,-142.29 241.15,-129.51"/>
<polygon fill="#ff7f7f" stroke="#ff7f7f" points="241.66,-126.05 231.25,-128.02 240.62,-132.97 241.66,-126.05"/>
</g>
<!-- Node0x55f36b8d12e8&#45;&gt;Node0x55f36b8cf718 -->
<g id="edge25" class="edge">
<title>Node0x55f36b8d12e8&#45;&gt;Node0x55f36b8cf718</title>
<path fill="none" stroke="#ff7f7f" d="M668.65,-169.42C731.08,-148.3 843.15,-113.05 942,-96 1179.23,-55.07 1461.64,-45.11 1616.04,-42.9"/>
<polygon fill="#ff7f7f" stroke="#ff7f7f" points="1616.53,-46.39 1626.48,-42.76 1616.44,-39.39 1616.53,-46.39"/>
</g>
<!-- Node0x55f36b8d12e8&#45;&gt;Node0x55f36b8cf308 -->
<g id="edge21" class="edge">
<title>Node0x55f36b8d12e8&#45;&gt;Node0x55f36b8cf308</title>
<path fill="none" stroke="#ff7f7f" d="M706.74,-170.03C776.61,-157.35 873.9,-140.06 941.27,-128.38"/>
<polygon fill="#ff7f7f" stroke="#ff7f7f" points="942.14,-131.78 951.4,-126.63 940.95,-124.88 942.14,-131.78"/>
</g>
<!-- Node0x55f36b8d12e8&#45;&gt;Node0x55f36b8e11e8 -->
<g id="edge22" class="edge">
<title>Node0x55f36b8d12e8&#45;&gt;Node0x55f36b8e11e8</title>
<path fill="none" stroke="#ff7f7f" d="M612.88,-205.58C606.07,-215.52 597.02,-228.69 592,-242 508.48,-463.26 530,-534 530,-770.5 530,-918.5 530,-918.5 530,-918.5 530,-998.1 725.94,-1123.41 799,-1155 879.25,-1189.7 1120.87,-1202.02 1256.37,-1206.3"/>
<polygon fill="#ff7f7f" stroke="#ff7f7f" points="1256.64,-1209.81 1266.74,-1206.62 1256.85,-1202.82 1256.64,-1209.81"/>
</g>
<!-- Node0x55f36b8e0c98 -->
<g id="node16" class="node">
<title>Node0x55f36b8e0c98</title>
<polygon fill="#ff7f7f" stroke="black" points="294,-96.5 294,-132.5 524,-132.5 524,-96.5 294,-96.5"/>
<text text-anchor="middle" x="409" y="-110.8" font-family="Times,serif" font-size="14.00">lib/libLLVMMCDisassembler.a</text>
</g>
<!-- Node0x55f36b8d12e8&#45;&gt;Node0x55f36b8e0c98 -->
<g id="edge23" class="edge">
<title>Node0x55f36b8d12e8&#45;&gt;Node0x55f36b8e0c98</title>
<path fill="none" stroke="#ff7f7f" d="M569.46,-169.49C539.41,-159.38 501.1,-146.49 469.45,-135.84"/>
<polygon fill="#ff7f7f" stroke="#ff7f7f" points="470.45,-132.49 459.86,-132.61 468.22,-139.12 470.45,-132.49"/>
</g>
<!-- Node0x55f36b8d0398&#45;&gt;Node0x55f36b8d05c8 -->
<g id="edge26" class="edge">
<title>Node0x55f36b8d0398&#45;&gt;Node0x55f36b8d05c8</title>
<path fill="none" stroke="#ff7f7f" d="M145.2,-1264.21C145.49,-1237.18 146,-1183.25 146,-1137.5 146,-1137.5 146,-1137.5 146,-259.5 146,-218.93 146.8,-171.93 147.39,-142.96"/>
<polygon fill="#ff7f7f" stroke="#ff7f7f" points="150.89,-142.86 147.6,-132.79 143.9,-142.71 150.89,-142.86"/>
</g>
<!-- Node0x55f36b8d0398&#45;&gt;Node0x55f36b8e11e8 -->
<g id="edge27" class="edge">
<title>Node0x55f36b8d0398&#45;&gt;Node0x55f36b8e11e8</title>
<path fill="none" stroke="#ff7f7f" d="M261.73,-1274.63C500.02,-1260.6 1038.28,-1228.91 1256.47,-1216.07"/>
<polygon fill="#ff7f7f" stroke="#ff7f7f" points="1256.84,-1219.55 1266.62,-1215.47 1256.43,-1212.56 1256.84,-1219.55"/>
</g>
<!-- Node0x55f36b8d0398&#45;&gt;Node0x55f36b8e0c98 -->
<g id="edge28" class="edge">
<title>Node0x55f36b8d0398&#45;&gt;Node0x55f36b8e0c98</title>
<path fill="none" stroke="#ff7f7f" d="M158.47,-1264.45C177.51,-1238.57 210,-1187.15 210,-1137.5 210,-1137.5 210,-1137.5 210,-551.5 210,-381.49 336.77,-205.12 387.95,-140.84"/>
<polygon fill="#ff7f7f" stroke="#ff7f7f" points="390.82,-142.86 394.37,-132.87 385.37,-138.46 390.82,-142.86"/>
</g>
<!-- Node0x55f36b8d05c8&#45;&gt;Node0x55f36b8e11e8 -->
<g id="edge29" class="edge">
<title>Node0x55f36b8d05c8&#45;&gt;Node0x55f36b8e11e8</title>
<path fill="none" stroke="#ff7f7f" d="M160.85,-132.65C179.01,-158.65 210,-210.23 210,-259.5 210,-334.5 210,-334.5 210,-334.5 210,-532.73 304,-572.27 304,-770.5 304,-918.5 304,-918.5 304,-918.5 304,-1093.92 453.13,-1100.9 620,-1155 735.73,-1192.52 1086.42,-1203.84 1256.49,-1207.16"/>
<polygon fill="#ff7f7f" stroke="#ff7f7f" points="1256.62,-1210.67 1266.69,-1207.36 1256.76,-1203.67 1256.62,-1210.67"/>
</g>
<!-- Node0x55f36b8cf718&#45;&gt;Node0x55f36b8d9538 -->
<g id="edge31" class="edge">
<title>Node0x55f36b8cf718&#45;&gt;Node0x55f36b8d9538</title>
<path fill="none" stroke="#ff7f7f" d="M1835.64,-43.29C2148.03,-46.1 3055.05,-57.64 3105,-96 3138.39,-121.65 3133,-144.4 3133,-186.5 3133,-1283.5 3133,-1283.5 3133,-1283.5 3133,-1378.64 3031.34,-1351.09 2939,-1374 2785.36,-1412.12 2363.21,-1423.2 2094.46,-1426.35"/>
<polygon fill="#ff7f7f" stroke="#ff7f7f" points="2094.13,-1422.85 2084.17,-1426.47 2094.21,-1429.85 2094.13,-1422.85"/>
</g>
<!-- Node0x55f36b8cf718&#45;&gt;Node0x55f36b8e11e8 -->
<g id="edge30" class="edge">
<title>Node0x55f36b8cf718&#45;&gt;Node0x55f36b8e11e8</title>
<path fill="none" stroke="#ff7f7f" d="M1626.24,-42.44C1301.62,-42.78 331.41,-47.84 285,-96 165.73,-219.76 342,-306.62 342,-478.5 342,-772.5 342,-772.5 342,-772.5 342,-825.24 507.14,-1094.52 653,-1155 759.6,-1199.2 1092.13,-1207.26 1256.74,-1208.48"/>
<polygon fill="#ff7f7f" stroke="#ff7f7f" points="1256.84,-1211.98 1266.86,-1208.55 1256.88,-1204.98 1256.84,-1211.98"/>
</g>
<!-- Node0x55f36b8ced18&#45;&gt;Node0x55f36b8d9538 -->
<g id="edge32" class="edge">
<title>Node0x55f36b8ced18&#45;&gt;Node0x55f36b8d9538</title>
<path fill="none" stroke="#ff7f7f" d="M2255.95,-1154.78C2256.04,-1198.96 2237.54,-1316.62 2167,-1374 2147.97,-1389.48 2103.27,-1400.78 2053.65,-1408.89"/>
<polygon fill="#ff7f7f" stroke="#ff7f7f" points="2053,-1405.44 2043.66,-1410.46 2054.09,-1412.36 2053,-1405.44"/>
</g>
<!-- Node0x55f36b8ced18&#45;&gt;Node0x55f36b8d8d68 -->
<g id="edge35" class="edge">
<title>Node0x55f36b8ced18&#45;&gt;Node0x55f36b8d8d68</title>
<path fill="none" stroke="#ff7f7f" d="M2197.67,-1154.56C2110.99,-1181.29 1943.59,-1232.91 1851.2,-1261.4"/>
<polygon fill="#ff7f7f" stroke="#ff7f7f" points="1849.93,-1258.12 1841.4,-1264.42 1851.99,-1264.81 1849.93,-1258.12"/>
</g>
<!-- Node0x55f36b8ced18&#45;&gt;Node0x55f36b8cf718 -->
<g id="edge33" class="edge">
<title>Node0x55f36b8ced18&#45;&gt;Node0x55f36b8cf718</title>
<path fill="none" stroke="#ff7f7f" d="M2312.72,-1118.48C2337.8,-1109.78 2366.54,-1097.67 2390,-1082 2502.28,-1007.03 2739.13,-758.29 2811,-644 2852.29,-578.34 2872,-558.06 2872,-480.5 2872,-480.5 2872,-480.5 2872,-186.5 2872,-141.84 3084.2,-189.4 2667,-96 2513.87,-61.72 2060.43,-48.73 1845.93,-44.4"/>
<polygon fill="#ff7f7f" stroke="#ff7f7f" points="1845.96,-40.9 1835.9,-44.2 1845.83,-47.9 1845.96,-40.9"/>
</g>
<!-- Node0x55f36b8ced18&#45;&gt;Node0x55f36b8ce318 -->
<g id="edge36" class="edge">
<title>Node0x55f36b8ced18&#45;&gt;Node0x55f36b8ce318</title>
<path fill="none" stroke="#ff7f7f" d="M2172.34,-1121.64C2129.46,-1112.59 2076.45,-1099.25 2031,-1082 1981.83,-1063.33 1928.64,-1034.24 1896.17,-1014.1"/>
<polygon fill="#ff7f7f" stroke="#ff7f7f" points="1897.9,-1011.06 1887.58,-1008.68 1894.16,-1016.98 1897.9,-1011.06"/>
</g>
<!-- Node0x55f36b8ced18&#45;&gt;Node0x55f36b8e11e8 -->
<g id="edge34" class="edge">
<title>Node0x55f36b8ced18&#45;&gt;Node0x55f36b8e11e8</title>
<path fill="none" stroke="#ff7f7f" d="M2172.37,-1144.17C2005.48,-1157.58 1623.14,-1187.68 1445.22,-1201.42"/>
<polygon fill="#ff7f7f" stroke="#ff7f7f" points="1444.79,-1197.94 1435.09,-1202.2 1445.33,-1204.92 1444.79,-1197.94"/>
</g>
<!-- Node0x55f36b8ced18&#45;&gt;Node0x55f36b8cddc8 -->
<g id="edge37" class="edge">
<title>Node0x55f36b8ced18&#45;&gt;Node0x55f36b8cddc8</title>
<path fill="none" stroke="#ff7f7f" d="M2333.77,-1122.6C2406.22,-1111.51 2513.73,-1095.37 2598.05,-1082.92"/>
<polygon fill="#ff7f7f" stroke="#ff7f7f" points="2598.57,-1086.38 2607.96,-1081.45 2597.55,-1079.45 2598.57,-1086.38"/>
</g>
<!-- Node0x55f36b8cf308&#45;&gt;Node0x55f36b8d9538 -->
<g id="edge40" class="edge">
<title>Node0x55f36b8cf308&#45;&gt;Node0x55f36b8d9538</title>
<path fill="none" stroke="#ff7f7f" d="M951.31,-116.89C790.25,-122.04 398,-146.18 398,-259.5 398,-772.5 398,-772.5 398,-772.5 398,-1221.04 391.24,-1319.52 453,-1374 496.19,-1412.09 1234.41,-1423.09 1623.41,-1426.24"/>
<polygon fill="#ff7f7f" stroke="#ff7f7f" points="1623.65,-1429.74 1633.68,-1426.32 1623.7,-1422.74 1623.65,-1429.74"/>
</g>
<!-- Node0x55f36b8cf308&#45;&gt;Node0x55f36b8d12e8 -->
<g id="edge38" class="edge">
<title>Node0x55f36b8cf308&#45;&gt;Node0x55f36b8d12e8</title>
<path fill="none" stroke="#ff7f7f" d="M951.31,-128.5C886.91,-140.26 789.45,-157.63 716.86,-170.29"/>
<polygon fill="#ff7f7f" stroke="#ff7f7f" points="716.04,-166.88 706.78,-172.05 717.24,-173.78 716.04,-166.88"/>
</g>
<!-- Node0x55f36b8cf308&#45;&gt;Node0x55f36b8cf718 -->
<g id="edge41" class="edge">
<title>Node0x55f36b8cf308&#45;&gt;Node0x55f36b8cf718</title>
<path fill="none" stroke="#ff7f7f" d="M1086.63,-106.76C1208.53,-94.6 1466.36,-68.89 1616.3,-53.94"/>
<polygon fill="#ff7f7f" stroke="#ff7f7f" points="1616.86,-57.4 1626.46,-52.92 1616.16,-50.43 1616.86,-57.4"/>
</g>
<!-- Node0x55f36b8cf308&#45;&gt;Node0x55f36b8e11e8 -->
<g id="edge39" class="edge">
<title>Node0x55f36b8cf308&#45;&gt;Node0x55f36b8e11e8</title>
<path fill="none" stroke="#ff7f7f" d="M983.79,-132.52C964.66,-141.59 941.37,-153.98 923,-169 890.92,-195.23 889.13,-208.32 865,-242 731.6,-428.18 624,-468.47 624,-697.5 624,-845.5 624,-845.5 624,-845.5 624,-1024.3 719.02,-1079.3 881,-1155 946.01,-1185.38 1138.89,-1199.06 1256.43,-1204.79"/>
<polygon fill="#ff7f7f" stroke="#ff7f7f" points="1256.36,-1208.29 1266.51,-1205.27 1256.69,-1201.3 1256.36,-1208.29"/>
</g>
<!-- Node0x55f36b8ce318&#45;&gt;Node0x55f36b8d9538 -->
<g id="edge42" class="edge">
<title>Node0x55f36b8ce318&#45;&gt;Node0x55f36b8d9538</title>
<path fill="none" stroke="#ff7f7f" d="M1889.9,-1008.55C1943.24,-1053.13 2064.24,-1178.24 2040,-1301 2033.2,-1335.41 2035.17,-1349.57 2010,-1374 1995.07,-1388.5 1975.83,-1399.14 1956.11,-1406.93"/>
<polygon fill="#ff7f7f" stroke="#ff7f7f" points="1954.87,-1403.65 1946.71,-1410.42 1957.3,-1410.22 1954.87,-1403.65"/>
</g>
<!-- Node0x55f36b8ce318&#45;&gt;Node0x55f36b8d12e8 -->
<g id="edge47" class="edge">
<title>Node0x55f36b8ce318&#45;&gt;Node0x55f36b8d12e8</title>
<path fill="none" stroke="#ff7f7f" d="M1787.37,-985.77C1706.61,-980.34 1577.95,-967.23 1471,-936 1248.63,-871.06 1176.41,-864.78 998,-717 903.21,-638.48 695.33,-309.77 636.06,-214.49"/>
<polygon fill="#ff7f7f" stroke="#ff7f7f" points="638.9,-212.41 630.65,-205.76 632.95,-216.1 638.9,-212.41"/>
</g>
<!-- Node0x55f36b8ce318&#45;&gt;Node0x55f36b8cf718 -->
<g id="edge43" class="edge">
<title>Node0x55f36b8ce318&#45;&gt;Node0x55f36b8cf718</title>
<path fill="none" stroke="#ff7f7f" d="M1944.55,-985.66C2010.71,-980.26 2106.78,-967.27 2185,-936 2244.18,-912.34 2834,-557.61 2834,-480.5 2834,-480.5 2834,-480.5 2834,-186.5 2834,-87.66 2128.63,-54.82 1846.04,-45.62"/>
<polygon fill="#ff7f7f" stroke="#ff7f7f" points="1845.87,-42.11 1835.76,-45.29 1845.64,-49.11 1845.87,-42.11"/>
</g>
<!-- Node0x55f36b8ce318&#45;&gt;Node0x55f36b8ced18 -->
<g id="edge45" class="edge">
<title>Node0x55f36b8ce318&#45;&gt;Node0x55f36b8ced18</title>
<path fill="none" stroke="#ff7f7f" d="M1900.4,-1008.68C1936.6,-1028.68 1995.2,-1061.58 2049,-1082 2085.9,-1096.01 2127.78,-1107.44 2164,-1116.08"/>
<polygon fill="#ff7f7f" stroke="#ff7f7f" points="2163.51,-1119.56 2174.05,-1118.44 2165.12,-1112.75 2163.51,-1119.56"/>
</g>
<!-- Node0x55f36b8ce318&#45;&gt;Node0x55f36b8cf308 -->
<g id="edge46" class="edge">
<title>Node0x55f36b8ce318&#45;&gt;Node0x55f36b8cf308</title>
<path fill="none" stroke="#ff7f7f" d="M1787.37,-985.75C1712.6,-980.37 1597.8,-967.36 1503,-936 1470.43,-925.23 1394.15,-883.97 1367,-863 1196.72,-731.48 1148.94,-688.53 1049,-498 1012.44,-428.31 981,-413.2 981,-334.5 981,-334.5 981,-334.5 981,-259.5 981,-217.41 996.37,-170.61 1007.56,-142.12"/>
<polygon fill="#ff7f7f" stroke="#ff7f7f" points="1010.81,-143.43 1011.31,-132.84 1004.32,-140.8 1010.81,-143.43"/>
</g>
<!-- Node0x55f36b8ce318&#45;&gt;Node0x55f36b8e11e8 -->
<g id="edge44" class="edge">
<title>Node0x55f36b8ce318&#45;&gt;Node0x55f36b8e11e8</title>
<path fill="none" stroke="#ff7f7f" d="M1829.27,-1008.6C1739.62,-1047.96 1509.77,-1144.85 1404.72,-1187.63"/>
<polygon fill="#ff7f7f" stroke="#ff7f7f" points="1403.2,-1184.47 1395.25,-1191.47 1405.84,-1190.95 1403.2,-1184.47"/>
</g>
<!-- Node0x55f36b8de628 -->
<g id="node17" class="node">
<title>Node0x55f36b8de628</title>
<polygon fill="#ff7f7f" stroke="black" points="1700,-534.5 1700,-570.5 1844,-570.5 1844,-534.5 1700,-534.5"/>
<text text-anchor="middle" x="1772" y="-548.8" font-family="Times,serif" font-size="14.00">lib/libLLVMCore.a</text>
</g>
<!-- Node0x55f36b8ce318&#45;&gt;Node0x55f36b8de628 -->
<g id="edge48" class="edge">
<title>Node0x55f36b8ce318&#45;&gt;Node0x55f36b8de628</title>
<path fill="none" stroke="#ff7f7f" d="M1880.12,-972.31C1900.82,-953.45 1939.61,-922.71 1975,-899 2001.47,-881.27 2021.1,-890.61 2037,-863 2045.2,-848.75 2040.62,-842.04 2037,-826 2013.31,-720.89 2014.28,-677.74 1933,-607 1910.66,-587.56 1881.26,-575.18 1853.68,-567.29"/>
<polygon fill="#ff7f7f" stroke="#ff7f7f" points="1854.57,-563.91 1844.01,-564.69 1852.75,-570.67 1854.57,-563.91"/>
</g>
<!-- Node0x55f36b8db888 -->
<g id="node18" class="node">
<title>Node0x55f36b8db888</title>
<polygon fill="#ff7f7f" stroke="black" points="1609.5,-315.5 1609.5,-351.5 1790.5,-351.5 1790.5,-315.5 1609.5,-315.5"/>
<text text-anchor="middle" x="1700" y="-329.8" font-family="Times,serif" font-size="14.00">lib/libLLVMBitReader.a</text>
</g>
<!-- Node0x55f36b8ce318&#45;&gt;Node0x55f36b8db888 -->
<g id="edge49" class="edge">
<title>Node0x55f36b8ce318&#45;&gt;Node0x55f36b8db888</title>
<path fill="none" stroke="#ff7f7f" d="M1913.84,-972.44C1999.59,-940.4 2166.52,-864.28 2127,-753 2054.41,-548.59 1983.66,-508.05 1803,-388 1784.5,-375.71 1762.74,-364.64 1743.93,-355.8"/>
<polygon fill="#ff7f7f" stroke="#ff7f7f" points="1745.22,-352.54 1734.68,-351.52 1742.28,-358.9 1745.22,-352.54"/>
</g>
<!-- Node0x55f36b8dbd38 -->
<g id="node19" class="node">
<title>Node0x55f36b8dbd38</title>
<polygon fill="#ff7f7f" stroke="black" points="652,-899.5 652,-935.5 832,-935.5 832,-899.5 652,-899.5"/>
<text text-anchor="middle" x="742" y="-913.8" font-family="Times,serif" font-size="14.00">lib/libLLVMMCParser.a</text>
</g>
<!-- Node0x55f36b8ce318&#45;&gt;Node0x55f36b8dbd38 -->
<g id="edge50" class="edge">
<title>Node0x55f36b8ce318&#45;&gt;Node0x55f36b8dbd38</title>
<path fill="none" stroke="#ff7f7f" d="M1787.41,-985.2C1633.14,-976.37 1280.23,-955.4 984,-936 937.29,-932.94 885.71,-929.38 842.18,-926.27"/>
<polygon fill="#ff7f7f" stroke="#ff7f7f" points="842.38,-922.77 832.16,-925.55 841.88,-929.75 842.38,-922.77"/>
</g>
<!-- Node0x55f36b8dc8c8 -->
<g id="node20" class="node">
<title>Node0x55f36b8dc8c8</title>
<polygon fill="#ff7f7f" stroke="black" points="1002,-899.5 1002,-935.5 1168,-935.5 1168,-899.5 1002,-899.5"/>
<text text-anchor="middle" x="1085" y="-913.8" font-family="Times,serif" font-size="14.00">lib/libLLVMTextAPI.a</text>
</g>
<!-- Node0x55f36b8ce318&#45;&gt;Node0x55f36b8dc8c8 -->
<g id="edge51" class="edge">
<title>Node0x55f36b8ce318&#45;&gt;Node0x55f36b8dc8c8</title>
<path fill="none" stroke="#ff7f7f" d="M1787.3,-982.72C1642.16,-969.83 1333.23,-941.76 1178.01,-927.38"/>
<polygon fill="#ff7f7f" stroke="#ff7f7f" points="1178.29,-923.89 1168.01,-926.45 1177.65,-930.86 1178.29,-923.89"/>
</g>
<!-- Node0x55f36b8e11e8&#45;&gt;Node0x55f36b8d9538 -->
<g id="edge54" class="edge">
<title>Node0x55f36b8e11e8&#45;&gt;Node0x55f36b8d9538</title>
<path fill="none" stroke="#ff7f7f" d="M1353.66,-1227.69C1354,-1261.34 1351.48,-1335.94 1393,-1374 1411.39,-1390.86 1517.3,-1403.68 1623.53,-1412.54"/>
<polygon fill="#ff7f7f" stroke="#ff7f7f" points="1623.55,-1416.06 1633.81,-1413.39 1624.13,-1409.08 1623.55,-1416.06"/>
</g>
<!-- Node0x55f36b8e11e8&#45;&gt;Node0x55f36b8d12e8 -->
<g id="edge57" class="edge">
<title>Node0x55f36b8e11e8&#45;&gt;Node0x55f36b8d12e8</title>
<path fill="none" stroke="#ff7f7f" d="M1266.81,-1206.94C1129.8,-1203.31 865.64,-1191.6 781,-1155 707.94,-1123.41 512,-998.1 512,-918.5 512,-918.5 512,-918.5 512,-770.5 512,-534 490.48,-463.26 574,-242 577.81,-231.91 583.92,-221.91 590.56,-213.32"/>
<polygon fill="#ff7f7f" stroke="#ff7f7f" points="593.31,-215.5 597.03,-205.58 587.93,-211.01 593.31,-215.5"/>
</g>
<!-- Node0x55f36b8e11e8&#45;&gt;Node0x55f36b8ced18 -->
<g id="edge55" class="edge">
<title>Node0x55f36b8e11e8&#45;&gt;Node0x55f36b8ced18</title>
<path fill="none" stroke="#ff7f7f" d="M1435.32,-1201.53C1605.15,-1187.9 1986.87,-1157.85 2162.05,-1144.33"/>
<polygon fill="#ff7f7f" stroke="#ff7f7f" points="2162.57,-1147.8 2172.27,-1143.54 2162.03,-1140.82 2162.57,-1147.8"/>
</g>
<!-- Node0x55f36b8e11e8&#45;&gt;Node0x55f36b8cf308 -->
<g id="edge52" class="edge">
<title>Node0x55f36b8e11e8&#45;&gt;Node0x55f36b8cf308</title>
<path fill="none" stroke="#ff7f7f" d="M1266.59,-1205.8C1146.16,-1200.75 932.17,-1187.33 863,-1155 701.02,-1079.3 606,-1024.3 606,-845.5 606,-845.5 606,-845.5 606,-697.5 606,-468.47 713.6,-428.18 847,-242 871.13,-208.32 872.92,-195.23 905,-169 920.72,-156.15 940.03,-145.22 958.31,-136.66"/>
<polygon fill="#ff7f7f" stroke="#ff7f7f" points="959.79,-139.83 967.46,-132.52 956.91,-133.45 959.79,-139.83"/>
</g>
<!-- Node0x55f36b8e11e8&#45;&gt;Node0x55f36b8ce318 -->
<g id="edge53" class="edge">
<title>Node0x55f36b8e11e8&#45;&gt;Node0x55f36b8ce318</title>
<path fill="none" stroke="#ff7f7f" d="M1387.57,-1191.47C1477.05,-1152.18 1706.89,-1055.29 1812.09,-1012.45"/>
<polygon fill="#ff7f7f" stroke="#ff7f7f" points="1813.62,-1015.6 1821.57,-1008.6 1810.99,-1009.12 1813.62,-1015.6"/>
</g>
<!-- Node0x55f36b8e11e8&#45;&gt;Node0x55f36b8ce868 -->
<g id="edge56" class="edge">
<title>Node0x55f36b8e11e8&#45;&gt;Node0x55f36b8ce868</title>
<path fill="none" stroke="#ff7f7f" d="M1435.01,-1208.15C1640.66,-1206.62 2164.52,-1198.42 2334,-1155 2406.6,-1136.4 2425.97,-1126.86 2486,-1082 2592.68,-1002.28 2670,-978.68 2670,-845.5 2670,-845.5 2670,-845.5 2670,-697.5 2670,-600.47 2646,-577.53 2646,-480.5 2646,-480.5 2646,-480.5 2646,-332.5 2646,-282.45 2621.49,-268.44 2579,-242 2505.95,-196.54 2471.42,-221.27 2388.88,-207.41"/>
<polygon fill="#ff7f7f" stroke="#ff7f7f" points="2389.31,-203.93 2378.85,-205.57 2388.06,-210.81 2389.31,-203.93"/>
</g>
<!-- Node0x55f36b8e11e8&#45;&gt;Node0x55f36b8cddc8 -->
<g id="edge58" class="edge">
<title>Node0x55f36b8e11e8&#45;&gt;Node0x55f36b8cddc8</title>
<path fill="none" stroke="#ff7f7f" d="M1435.02,-1207.5C1695.21,-1204.08 2476.34,-1191.04 2585,-1155 2626.8,-1141.14 2667.57,-1110.01 2694.82,-1088.16"/>
<polygon fill="#ff7f7f" stroke="#ff7f7f" points="2697.24,-1090.7 2702.83,-1081.7 2692.85,-1085.25 2697.24,-1090.7"/>
</g>
<!-- Node0x55f36b8dbe28 -->
<g id="node21" class="node">
<title>Node0x55f36b8dbe28</title>
<polygon fill="#ff7f7f" stroke="black" points="1533,-680.5 1533,-716.5 1703,-716.5 1703,-680.5 1533,-680.5"/>
<text text-anchor="middle" x="1618" y="-694.8" font-family="Times,serif" font-size="14.00">lib/libLLVMAnalysis.a</text>
</g>
<!-- Node0x55f36b8e11e8&#45;&gt;Node0x55f36b8dbe28 -->
<g id="edge59" class="edge">
<title>Node0x55f36b8e11e8&#45;&gt;Node0x55f36b8dbe28</title>
<path fill="none" stroke="#ff7f7f" d="M1350.03,-1191.3C1354.48,-1160.96 1373.03,-1096.28 1397,-1045 1456.24,-918.26 1551.31,-780.01 1595.06,-724.56"/>
<polygon fill="#ff7f7f" stroke="#ff7f7f" points="1597.85,-726.68 1601.38,-716.69 1592.39,-722.29 1597.85,-726.68"/>
</g>
<!-- Node0x55f36b8cffd8 -->
<g id="node22" class="node">
<title>Node0x55f36b8cffd8</title>
<polygon fill="#ff7f7f" stroke="black" points="1154,-1118.5 1154,-1154.5 1336,-1154.5 1336,-1118.5 1154,-1118.5"/>
<text text-anchor="middle" x="1245" y="-1132.8" font-family="Times,serif" font-size="14.00">lib/libLLVMDemangle.a</text>
</g>
<!-- Node0x55f36b8e11e8&#45;&gt;Node0x55f36b8cffd8 -->
<g id="edge60" class="edge">
<title>Node0x55f36b8e11e8&#45;&gt;Node0x55f36b8cffd8</title>
<path fill="none" stroke="#ff7f7f" d="M1319.75,-1191.49C1304.97,-1182.25 1287.54,-1170.69 1273.18,-1160.64"/>
<polygon fill="#ff7f7f" stroke="#ff7f7f" points="1274.86,-1157.54 1264.68,-1154.61 1270.81,-1163.25 1274.86,-1157.54"/>
</g>
<!-- Node0x55f36b8ce868&#45;&gt;Node0x55f36b8d9538 -->
<g id="edge61" class="edge">
<title>Node0x55f36b8ce868&#45;&gt;Node0x55f36b8d9538</title>
<path fill="none" stroke="#ff7f7f" d="M2385.35,-203.6C2389.97,-204.46 2394.55,-205.27 2399,-206 2468.09,-217.32 2654.51,-202.03 2712,-242 2749.05,-267.76 2758,-287.38 2758,-332.5 2758,-480.5 2758,-480.5 2758,-480.5 2758,-783.61 2948,-832.39 2948,-1135.5 2948,-1283.5 2948,-1283.5 2948,-1283.5 2948,-1387.18 2834.07,-1350.92 2733,-1374 2616.45,-1400.61 2311.27,-1414.8 2094.42,-1421.74"/>
<polygon fill="#ff7f7f" stroke="#ff7f7f" points="2094.04,-1418.25 2084.16,-1422.06 2094.26,-1425.24 2094.04,-1418.25"/>
</g>
<!-- Node0x55f36b8ce868&#45;&gt;Node0x55f36b8ced18 -->
<g id="edge65" class="edge">
<title>Node0x55f36b8ce868&#45;&gt;Node0x55f36b8ced18</title>
<path fill="none" stroke="#ff7f7f" d="M2385.26,-192.91C2474.15,-202.65 2608,-233.71 2608,-332.5 2608,-480.5 2608,-480.5 2608,-480.5 2608,-577.53 2632,-600.47 2632,-697.5 2632,-845.5 2632,-845.5 2632,-845.5 2632,-888.97 2509.63,-1050.56 2462,-1082 2427.07,-1105.06 2382.8,-1118.19 2344.01,-1125.65"/>
<polygon fill="#ff7f7f" stroke="#ff7f7f" points="2342.96,-1122.28 2333.75,-1127.52 2344.22,-1129.17 2342.96,-1122.28"/>
</g>
<!-- Node0x55f36b8ce868&#45;&gt;Node0x55f36b8ce318 -->
<g id="edge62" class="edge">
<title>Node0x55f36b8ce868&#45;&gt;Node0x55f36b8ce318</title>
<path fill="none" stroke="#ff7f7f" d="M2385.19,-197.95C2462.48,-212.22 2570,-247.38 2570,-332.5 2570,-480.5 2570,-480.5 2570,-480.5 2570,-703.05 2544.27,-808.3 2362,-936 2298.27,-980.65 2079.62,-988.98 1954.94,-989.98"/>
<polygon fill="#ff7f7f" stroke="#ff7f7f" points="1954.63,-986.48 1944.65,-990.04 1954.67,-993.48 1954.63,-986.48"/>
</g>
<!-- Node0x55f36b8ce868&#45;&gt;Node0x55f36b8e11e8 -->
<g id="edge63" class="edge">
<title>Node0x55f36b8ce868&#45;&gt;Node0x55f36b8e11e8</title>
<path fill="none" stroke="#ff7f7f" d="M2385.41,-203.27C2390.02,-204.21 2394.57,-205.13 2399,-206 2486.75,-223.34 2521.06,-194.74 2597,-242 2639.49,-268.44 2664,-282.45 2664,-332.5 2664,-480.5 2664,-480.5 2664,-480.5 2664,-577.53 2688,-600.47 2688,-697.5 2688,-845.5 2688,-845.5 2688,-845.5 2688,-978.68 2610.68,-1002.28 2504,-1082 2443.97,-1126.86 2424.6,-1136.4 2352,-1155 2182.81,-1198.35 1660.41,-1206.59 1445.14,-1208.15"/>
<polygon fill="#ff7f7f" stroke="#ff7f7f" points="1445.09,-1204.65 1435.12,-1208.22 1445.14,-1211.65 1445.09,-1204.65"/>
</g>
<!-- Node0x55f36b8ce868&#45;&gt;Node0x55f36b8cd918 -->
<g id="edge64" class="edge">
<title>Node0x55f36b8ce868&#45;&gt;Node0x55f36b8cd918</title>
<path fill="none" stroke="#ff7f7f" d="M2385.25,-178.49C2508.73,-165.69 2750.74,-140.61 2889.21,-126.26"/>
<polygon fill="#ff7f7f" stroke="#ff7f7f" points="2889.82,-129.71 2899.4,-125.2 2889.1,-122.75 2889.82,-129.71"/>
</g>
<!-- Node0x55f36b8ce868&#45;&gt;Node0x55f36b8cddc8 -->
<g id="edge68" class="edge">
<title>Node0x55f36b8ce868&#45;&gt;Node0x55f36b8cddc8</title>
<path fill="none" stroke="#ff7f7f" d="M2385.41,-189.92C2480.95,-193.29 2635.95,-204.55 2678,-242 2709.08,-269.68 2702,-290.89 2702,-332.5 2702,-480.5 2702,-480.5 2702,-480.5 2702,-577.53 2726,-600.47 2726,-697.5 2726,-918.5 2726,-918.5 2726,-918.5 2726,-959.07 2726.4,-1006.06 2726.7,-1035.04"/>
<polygon fill="#ff7f7f" stroke="#ff7f7f" points="2723.2,-1035.25 2726.8,-1045.21 2730.2,-1035.17 2723.2,-1035.25"/>
</g>
<!-- Node0x55f36b8ce868&#45;&gt;Node0x55f36b8e1698 -->
<g id="edge67" class="edge">
<title>Node0x55f36b8ce868&#45;&gt;Node0x55f36b8e1698</title>
<path fill="none" stroke="#ff7f7f" d="M2230.88,-205.18C2179.33,-215.78 2111.06,-229.53 2055.31,-240.54"/>
<polygon fill="#ff7f7f" stroke="#ff7f7f" points="2054.55,-237.12 2045.41,-242.49 2055.9,-243.99 2054.55,-237.12"/>
</g>
<!-- Node0x55f36b8ce868&#45;&gt;Node0x55f36b8de628 -->
<g id="edge66" class="edge">
<title>Node0x55f36b8ce868&#45;&gt;Node0x55f36b8de628</title>
<path fill="none" stroke="#ff7f7f" d="M2257.14,-205.6C2231.34,-214.54 2200.13,-226.81 2174,-242 2020.4,-331.28 2010.99,-393.94 1867,-498 1851.87,-508.93 1834.5,-520 1818.7,-529.21"/>
<polygon fill="#ff7f7f" stroke="#ff7f7f" points="1816.56,-526.4 1809.62,-534.4 1820.04,-532.48 1816.56,-526.4"/>
</g>
<!-- Node0x55f36b8ce868&#45;&gt;Node0x55f36b8db888 -->
<g id="edge71" class="edge">
<title>Node0x55f36b8ce868&#45;&gt;Node0x55f36b8db888</title>
<path fill="none" stroke="#ff7f7f" d="M2230.9,-193.64C2119.93,-201.46 1921.28,-218.01 1853,-242 1809.14,-257.41 1764.76,-288.1 1734.99,-309.45"/>
<polygon fill="#ff7f7f" stroke="#ff7f7f" points="1732.69,-306.79 1726.62,-315.47 1736.78,-312.47 1732.69,-306.79"/>
</g>
<!-- Node0x55f36b8d0118 -->
<g id="node23" class="node">
<title>Node0x55f36b8d0118</title>
<polygon fill="#ff7f7f" stroke="black" points="1339,-753.5 1339,-789.5 1515,-789.5 1515,-753.5 1339,-753.5"/>
<text text-anchor="middle" x="1427" y="-767.8" font-family="Times,serif" font-size="14.00">lib/libLLVMBitWriter.a</text>
</g>
<!-- Node0x55f36b8ce868&#45;&gt;Node0x55f36b8d0118 -->
<g id="edge69" class="edge">
<title>Node0x55f36b8ce868&#45;&gt;Node0x55f36b8d0118</title>
<path fill="none" stroke="#ff7f7f" d="M2292.53,-205.63C2221.4,-284.3 1926.97,-608.72 1877,-644 1771.19,-718.71 1622.41,-749.43 1525.36,-761.98"/>
<polygon fill="#ff7f7f" stroke="#ff7f7f" points="1524.74,-758.53 1515.25,-763.24 1525.61,-765.47 1524.74,-758.53"/>
</g>
<!-- Node0x55f36b8da578 -->
<g id="node24" class="node">
<title>Node0x55f36b8da578</title>
<polygon fill="#ff7f7f" stroke="black" points="1817.5,-826.5 1817.5,-862.5 2036.5,-862.5 2036.5,-826.5 1817.5,-826.5"/>
<text text-anchor="middle" x="1927" y="-840.8" font-family="Times,serif" font-size="14.00">lib/libLLVMTransformUtils.a</text>
</g>
<!-- Node0x55f36b8ce868&#45;&gt;Node0x55f36b8da578 -->
<g id="edge70" class="edge">
<title>Node0x55f36b8ce868&#45;&gt;Node0x55f36b8da578</title>
<path fill="none" stroke="#ff7f7f" d="M2313.71,-205.79C2317,-232.82 2317,-286.75 2317,-332.5 2317,-407.5 2317,-407.5 2317,-407.5 2317,-593.9 2288.21,-670.69 2145,-790 2117.51,-812.9 2081.44,-826.16 2046.55,-833.79"/>
<polygon fill="#ff7f7f" stroke="#ff7f7f" points="2045.84,-830.36 2036.75,-835.79 2047.25,-837.21 2045.84,-830.36"/>
</g>
<!-- Node0x55f36b8cd918&#45;&gt;Node0x55f36b8d9538 -->
<g id="edge72" class="edge">
<title>Node0x55f36b8cd918&#45;&gt;Node0x55f36b8d9538</title>
<path fill="none" stroke="#ff7f7f" d="M2999.11,-132.79C3002.98,-159.82 3004,-213.75 3004,-259.5 3004,-1283.5 3004,-1283.5 3004,-1283.5 3004,-1361.74 2927.81,-1351.1 2853,-1374 2717.02,-1415.63 2342.94,-1425.76 2094.45,-1427.74"/>
<polygon fill="#ff7f7f" stroke="#ff7f7f" points="2094.16,-1424.25 2084.19,-1427.82 2094.21,-1431.25 2094.16,-1424.25"/>
</g>
<!-- Node0x55f36b8cd918&#45;&gt;Node0x55f36b8e11e8 -->
<g id="edge73" class="edge">
<title>Node0x55f36b8cd918&#45;&gt;Node0x55f36b8e11e8</title>
<path fill="none" stroke="#ff7f7f" d="M2974.99,-132.73C2950.58,-158.03 2910,-207.85 2910,-259.5 2910,-918.5 2910,-918.5 2910,-918.5 2910,-1067.72 2736.67,-987.43 2599,-1045 2484.75,-1092.78 2463.58,-1126.79 2343,-1155 2174.26,-1194.48 1659.15,-1204.95 1445.45,-1207.62"/>
<polygon fill="#ff7f7f" stroke="#ff7f7f" points="1445.15,-1204.12 1435.2,-1207.74 1445.24,-1211.12 1445.15,-1204.12"/>
</g>
<!-- Node0x55f36b8cddc8&#45;&gt;Node0x55f36b8d9538 -->
<g id="edge78" class="edge">
<title>Node0x55f36b8cddc8&#45;&gt;Node0x55f36b8d9538</title>
<path fill="none" stroke="#ff7f7f" d="M2730.54,-1081.76C2730.62,-1108.75 2725,-1162.62 2725,-1208.5 2725,-1283.5 2725,-1283.5 2725,-1283.5 2725,-1347.31 2350.73,-1389.67 2094.26,-1411.06"/>
<polygon fill="#ff7f7f" stroke="#ff7f7f" points="2093.73,-1407.6 2084.05,-1411.91 2094.3,-1414.57 2093.73,-1407.6"/>
</g>
<!-- Node0x55f36b8cddc8&#45;&gt;Node0x55f36b8ced18 -->
<g id="edge74" class="edge">
<title>Node0x55f36b8cddc8&#45;&gt;Node0x55f36b8ced18</title>
<path fill="none" stroke="#ff7f7f" d="M2619.05,-1081.55C2536,-1094.19 2422.59,-1111.15 2344.09,-1122.66"/>
<polygon fill="#ff7f7f" stroke="#ff7f7f" points="2343.12,-1119.26 2333.73,-1124.17 2344.13,-1126.19 2343.12,-1119.26"/>
</g>
<!-- Node0x55f36b8cddc8&#45;&gt;Node0x55f36b8cf308 -->
<g id="edge79" class="edge">
<title>Node0x55f36b8cddc8&#45;&gt;Node0x55f36b8cf308</title>
<path fill="none" stroke="#ff7f7f" d="M2731.6,-1045.24C2734.27,-1034.8 2737.59,-1021.19 2740,-1009 2771.85,-848 2783.52,-807.65 2796,-644 2801.53,-571.54 2796,-553.17 2796,-480.5 2796,-480.5 2796,-480.5 2796,-259.5 2796,-234.15 2816.43,-217.72 2394,-169 2139.88,-139.69 1348.68,-121.98 1096.83,-116.97"/>
<polygon fill="#ff7f7f" stroke="#ff7f7f" points="1096.74,-113.47 1086.67,-116.77 1096.6,-120.47 1096.74,-113.47"/>
</g>
<!-- Node0x55f36b8cddc8&#45;&gt;Node0x55f36b8ce318 -->
<g id="edge75" class="edge">
<title>Node0x55f36b8cddc8&#45;&gt;Node0x55f36b8ce318</title>
<path fill="none" stroke="#ff7f7f" d="M2607.73,-1052.67C2432.67,-1038.23 2110.1,-1011.63 1954.51,-998.8"/>
<polygon fill="#ff7f7f" stroke="#ff7f7f" points="1954.76,-995.31 1944.51,-997.97 1954.19,-1002.28 1954.76,-995.31"/>
</g>
<!-- Node0x55f36b8cddc8&#45;&gt;Node0x55f36b8e11e8 -->
<g id="edge77" class="edge">
<title>Node0x55f36b8cddc8&#45;&gt;Node0x55f36b8e11e8</title>
<path fill="none" stroke="#ff7f7f" d="M2715.18,-1081.7C2693.99,-1103.39 2649.13,-1139.7 2603,-1155 2494.71,-1190.92 1718.48,-1203.99 1445.56,-1207.46"/>
<polygon fill="#ff7f7f" stroke="#ff7f7f" points="1445.23,-1203.96 1435.28,-1207.59 1445.32,-1210.96 1445.23,-1203.96"/>
</g>
<!-- Node0x55f36b8cddc8&#45;&gt;Node0x55f36b8cd918 -->
<g id="edge76" class="edge">
<title>Node0x55f36b8cddc8&#45;&gt;Node0x55f36b8cd918</title>
<path fill="none" stroke="#ff7f7f" d="M2846.12,-1051.02C2874.76,-1043.05 2903.07,-1030.05 2924,-1009 2953.34,-979.49 2948,-960.11 2948,-918.5 2948,-918.5 2948,-918.5 2948,-259.5 2948,-216.86 2966.2,-170.21 2979.45,-141.9"/>
<polygon fill="#ff7f7f" stroke="#ff7f7f" points="2982.7,-143.22 2983.89,-132.69 2976.4,-140.18 2982.7,-143.22"/>
</g>
<!-- Node0x55f36b8e1698&#45;&gt;Node0x55f36b8d9538 -->
<g id="edge80" class="edge">
<title>Node0x55f36b8e1698&#45;&gt;Node0x55f36b8d9538</title>
<path fill="none" stroke="#ff7f7f" d="M2057.03,-272.8C2109.45,-280.89 2173.52,-294.12 2228,-315 2287.72,-337.89 2302.13,-347.96 2352,-388 2552.65,-549.09 2513.62,-669.3 2683,-863 2758.09,-948.88 2805.22,-947.23 2864,-1045 2885.7,-1081.08 2892,-1093.4 2892,-1135.5 2892,-1283.5 2892,-1283.5 2892,-1283.5 2892,-1363.19 2399.46,-1401.6 2094.57,-1417.67"/>
<polygon fill="#ff7f7f" stroke="#ff7f7f" points="2094.06,-1414.19 2084.25,-1418.21 2094.42,-1421.18 2094.06,-1414.19"/>
</g>
<!-- Node0x55f36b8e1698&#45;&gt;Node0x55f36b8d12e8 -->
<g id="edge86" class="edge">
<title>Node0x55f36b8e1698&#45;&gt;Node0x55f36b8d12e8</title>
<path fill="none" stroke="#ff7f7f" d="M1852.74,-254.06C1602.4,-240.75 961.48,-206.66 716.86,-193.65"/>
<polygon fill="#ff7f7f" stroke="#ff7f7f" points="716.74,-190.14 706.57,-193.1 716.37,-197.13 716.74,-190.14"/>
</g>
<!-- Node0x55f36b8e1698&#45;&gt;Node0x55f36b8ced18 -->
<g id="edge87" class="edge">
<title>Node0x55f36b8e1698&#45;&gt;Node0x55f36b8ced18</title>
<path fill="none" stroke="#ff7f7f" d="M2041.63,-278.51C2117.02,-296.44 2226.53,-330.28 2307,-388 2427.08,-474.12 2424.58,-538.15 2466,-680 2507.37,-821.67 2505.61,-888.08 2421,-1009 2396.26,-1044.35 2391.01,-1055.44 2357,-1082 2340.92,-1094.56 2321.44,-1105.5 2303.71,-1114.16"/>
<polygon fill="#ff7f7f" stroke="#ff7f7f" points="2302.15,-1111.03 2294.62,-1118.48 2305.15,-1117.35 2302.15,-1111.03"/>
</g>
<!-- Node0x55f36b8e1698&#45;&gt;Node0x55f36b8cf308 -->
<g id="edge84" class="edge">
<title>Node0x55f36b8e1698&#45;&gt;Node0x55f36b8cf308</title>
<path fill="none" stroke="#ff7f7f" d="M1910.28,-242.48C1853.14,-221.5 1750.74,-186.49 1660,-169 1459.43,-130.33 1218.22,-119.61 1096.85,-116.64"/>
<polygon fill="#ff7f7f" stroke="#ff7f7f" points="1096.63,-113.13 1086.55,-116.4 1096.47,-120.13 1096.63,-113.13"/>
</g>
<!-- Node0x55f36b8e1698&#45;&gt;Node0x55f36b8ce318 -->
<g id="edge82" class="edge">
<title>Node0x55f36b8e1698&#45;&gt;Node0x55f36b8ce318</title>
<path fill="none" stroke="#ff7f7f" d="M1971.31,-278.57C1992.29,-299.43 2030.86,-334.14 2071,-352 2155.12,-389.42 2206.17,-326.85 2275,-388 2409.56,-507.54 2415.55,-635.03 2324,-790 2247.64,-919.25 2065.15,-964.93 1954.96,-980.95"/>
<polygon fill="#ff7f7f" stroke="#ff7f7f" points="1954.28,-977.51 1944.86,-982.37 1955.25,-984.44 1954.28,-977.51"/>
</g>
<!-- Node0x55f36b8e1698&#45;&gt;Node0x55f36b8e11e8 -->
<g id="edge81" class="edge">
<title>Node0x55f36b8e1698&#45;&gt;Node0x55f36b8e11e8</title>
<path fill="none" stroke="#ff7f7f" d="M1852.97,-275.81C1782.15,-286.01 1685.69,-300.45 1601,-315 1254.98,-374.45 1038.09,-300.42 867,-607 806.23,-715.9 894.12,-1072.91 988,-1155 1026.98,-1189.09 1162.85,-1201.46 1256.83,-1205.94"/>
<polygon fill="#ff7f7f" stroke="#ff7f7f" points="1256.78,-1209.45 1266.93,-1206.4 1257.1,-1202.45 1256.78,-1209.45"/>
</g>
<!-- Node0x55f36b8e1698&#45;&gt;Node0x55f36b8ce868 -->
<g id="edge85" class="edge">
<title>Node0x55f36b8e1698&#45;&gt;Node0x55f36b8ce868</title>
<path fill="none" stroke="#ff7f7f" d="M2033.69,-242.49C2089.15,-231.1 2163.38,-216.17 2220.67,-204.9"/>
<polygon fill="#ff7f7f" stroke="#ff7f7f" points="2221.65,-208.27 2230.79,-202.91 2220.31,-201.4 2221.65,-208.27"/>
</g>
<!-- Node0x55f36b8e1698&#45;&gt;Node0x55f36b8de628 -->
<g id="edge83" class="edge">
<title>Node0x55f36b8e1698&#45;&gt;Node0x55f36b8de628</title>
<path fill="none" stroke="#ff7f7f" d="M1942.3,-278.9C1935.07,-289.16 1926.07,-302.53 1919,-315 1874.67,-393.17 1887.03,-426.19 1833,-498 1824.78,-508.92 1814.03,-519.26 1803.84,-527.87"/>
<polygon fill="#ff7f7f" stroke="#ff7f7f" points="1801.38,-525.36 1795.85,-534.39 1805.81,-530.78 1801.38,-525.36"/>
</g>
<!-- Node0x55f36b8e0c98&#45;&gt;Node0x55f36b8e11e8 -->
<g id="edge88" class="edge">
<title>Node0x55f36b8e0c98&#45;&gt;Node0x55f36b8e11e8</title>
<path fill="none" stroke="#ff7f7f" d="M411.74,-132.77C418.6,-177.63 436,-301.59 436,-405.5 436,-699.5 436,-699.5 436,-699.5 436,-844.76 464.73,-885.38 541,-1009 567.86,-1052.54 670.83,-1137.76 719,-1155 815.4,-1189.51 1105.28,-1202.11 1256.65,-1206.43"/>
<polygon fill="#ff7f7f" stroke="#ff7f7f" points="1256.77,-1209.93 1266.86,-1206.71 1256.96,-1202.93 1256.77,-1209.93"/>
</g>
<!-- Node0x55f36b8de628&#45;&gt;Node0x55f36b8d9538 -->
<g id="edge90" class="edge">
<title>Node0x55f36b8de628&#45;&gt;Node0x55f36b8d9538</title>
<path fill="none" stroke="#ff7f7f" d="M1699.79,-559.82C1561.98,-575.65 1279.43,-628.11 1330,-790 1359.33,-883.91 1426.67,-878.09 1456,-972 1489.96,-1080.72 1450.77,-1114.3 1444,-1228 1437.57,-1336.1 1431.3,-1367.53 1437,-1374 1450.78,-1389.64 1534.47,-1401.89 1623.74,-1410.7"/>
<polygon fill="#ff7f7f" stroke="#ff7f7f" points="1623.51,-1414.19 1633.8,-1411.67 1624.18,-1407.22 1623.51,-1414.19"/>
</g>
<!-- Node0x55f36b8de628&#45;&gt;Node0x55f36b8d12e8 -->
<g id="edge95" class="edge">
<title>Node0x55f36b8de628&#45;&gt;Node0x55f36b8d12e8</title>
<path fill="none" stroke="#ff7f7f" d="M1735.45,-534.47C1716.19,-524.83 1692.58,-511.94 1673,-498 1614.06,-456.04 1617.24,-421.28 1553,-388 1272.74,-242.83 892.78,-203.24 716.81,-192.48"/>
<polygon fill="#ff7f7f" stroke="#ff7f7f" points="716.99,-188.99 706.8,-191.89 716.57,-195.98 716.99,-188.99"/>
</g>
<!-- Node0x55f36b8de628&#45;&gt;Node0x55f36b8cf718 -->
<g id="edge94" class="edge">
<title>Node0x55f36b8de628&#45;&gt;Node0x55f36b8cf718</title>
<path fill="none" stroke="#ff7f7f" d="M1777.68,-534.34C1780.91,-523.94 1784.74,-510.34 1787,-498 1798.73,-433.92 1797.11,-417.08 1800,-352 1800.73,-335.57 1802.03,-331.32 1800,-315 1788.56,-223.19 1756.22,-117.91 1740.21,-69.46"/>
<polygon fill="#ff7f7f" stroke="#ff7f7f" points="1743.45,-68.12 1736.97,-59.75 1736.81,-70.34 1743.45,-68.12"/>
</g>
<!-- Node0x55f36b8de628&#45;&gt;Node0x55f36b8ced18 -->
<g id="edge100" class="edge">
<title>Node0x55f36b8de628&#45;&gt;Node0x55f36b8ced18</title>
<path fill="none" stroke="#ff7f7f" d="M1844.21,-563.4C1953.33,-581.92 2160.75,-631.57 2286,-753 2349.23,-814.3 2383.79,-850.67 2362,-936 2344.67,-1003.86 2298.99,-1073.51 2272.59,-1109.85"/>
<polygon fill="#ff7f7f" stroke="#ff7f7f" points="2269.44,-1108.23 2266.32,-1118.35 2275.07,-1112.38 2269.44,-1108.23"/>
</g>
<!-- Node0x55f36b8de628&#45;&gt;Node0x55f36b8cf308 -->
<g id="edge91" class="edge">
<title>Node0x55f36b8de628&#45;&gt;Node0x55f36b8cf308</title>
<path fill="none" stroke="#ff7f7f" d="M1754.33,-534.46C1721.01,-501.6 1648.01,-426.17 1601,-352 1553.29,-276.72 1591.12,-221.37 1519,-169 1453.47,-121.41 1220.3,-114.7 1096.9,-114.61"/>
<polygon fill="#ff7f7f" stroke="#ff7f7f" points="1096.76,-111.11 1086.76,-114.62 1096.76,-118.11 1096.76,-111.11"/>
</g>
<!-- Node0x55f36b8de628&#45;&gt;Node0x55f36b8ce318 -->
<g id="edge97" class="edge">
<title>Node0x55f36b8de628&#45;&gt;Node0x55f36b8ce318</title>
<path fill="none" stroke="#ff7f7f" d="M1844.17,-561.08C1879.95,-568.05 1921.59,-581.41 1951,-607 2032.28,-677.74 2031.31,-720.89 2055,-826 2058.62,-842.04 2063.2,-848.75 2055,-863 2039.1,-890.61 2019.47,-881.27 1993,-899 1961.2,-920.3 1926.66,-947.28 1901.47,-966.22"/>
<polygon fill="#ff7f7f" stroke="#ff7f7f" points="1899.23,-963.52 1893.3,-972.31 1903.41,-969.13 1899.23,-963.52"/>
</g>
<!-- Node0x55f36b8de628&#45;&gt;Node0x55f36b8e11e8 -->
<g id="edge89" class="edge">
<title>Node0x55f36b8de628&#45;&gt;Node0x55f36b8e11e8</title>
<path fill="none" stroke="#ff7f7f" d="M1832.03,-570.57C1849.59,-578.67 1866.79,-590.34 1877,-607 1885.59,-621.02 1882.88,-628.64 1877,-644 1768.03,-928.85 1641.46,-946.37 1419,-1155 1407.8,-1165.5 1394.71,-1176.14 1383.02,-1185.14"/>
<polygon fill="#ff7f7f" stroke="#ff7f7f" points="1380.65,-1182.54 1374.8,-1191.38 1384.88,-1188.12 1380.65,-1182.54"/>
</g>
<!-- Node0x55f36b8de628&#45;&gt;Node0x55f36b8ce868 -->
<g id="edge101" class="edge">
<title>Node0x55f36b8de628&#45;&gt;Node0x55f36b8ce868</title>
<path fill="none" stroke="#ff7f7f" d="M1793.81,-534.4C1809.59,-524.35 1830.9,-511.08 1849,-498 1992.99,-393.94 2002.4,-331.28 2156,-242 2179.06,-228.59 2206.09,-217.46 2230.95,-208.88"/>
<polygon fill="#ff7f7f" stroke="#ff7f7f" points="2232.36,-212.1 2240.73,-205.6 2230.13,-205.47 2232.36,-212.1"/>
</g>
<!-- Node0x55f36b8de628&#45;&gt;Node0x55f36b8db888 -->
<g id="edge96" class="edge">
<title>Node0x55f36b8de628&#45;&gt;Node0x55f36b8db888</title>
<path fill="none" stroke="#ff7f7f" d="M1765.55,-534.06C1759.53,-503.34 1752.04,-438.09 1730,-388 1725.67,-378.16 1719.3,-368.37 1713.4,-359.91"/>
<polygon fill="#ff7f7f" stroke="#ff7f7f" points="1716.16,-357.75 1707.52,-351.62 1710.45,-361.8 1716.16,-357.75"/>
</g>
<!-- Node0x55f36b8de628&#45;&gt;Node0x55f36b8dbe28 -->
<g id="edge93" class="edge">
<title>Node0x55f36b8de628&#45;&gt;Node0x55f36b8dbe28</title>
<path fill="none" stroke="#ff7f7f" d="M1733.28,-570.56C1714.68,-579.27 1693.1,-591.37 1677,-607 1658.41,-625.05 1644.88,-651.53 1635.01,-671.18"/>
<polygon fill="#ff7f7f" stroke="#ff7f7f" points="1631.83,-669.71 1630.45,-680.22 1638.08,-672.87 1631.83,-669.71"/>
</g>
<!-- Node0x55f36b8de628&#45;&gt;Node0x55f36b8d0118 -->
<g id="edge92" class="edge">
<title>Node0x55f36b8de628&#45;&gt;Node0x55f36b8d0118</title>
<path fill="none" stroke="#ff7f7f" d="M1730.26,-570.56C1705.29,-580.11 1673.35,-592.92 1646,-607 1592.84,-634.37 1580.15,-643.24 1533,-680 1506.42,-700.72 1478.54,-727.31 1457.85,-746.3"/>
<polygon fill="#ff7f7f" stroke="#ff7f7f" points="1455.33,-743.86 1450.29,-753.18 1460.04,-749.04 1455.33,-743.86"/>
</g>
<!-- Node0x55f36b8de628&#45;&gt;Node0x55f36b8da578 -->
<g id="edge98" class="edge">
<title>Node0x55f36b8de628&#45;&gt;Node0x55f36b8da578</title>
<path fill="none" stroke="#ff7f7f" d="M1844.05,-562.78C1872.07,-570.14 1901.52,-583.34 1919,-607 1965.38,-669.77 1952.39,-769.28 1938.87,-816.68"/>
<polygon fill="#ff7f7f" stroke="#ff7f7f" points="1935.52,-815.65 1935.91,-826.24 1942.21,-817.72 1935.52,-815.65"/>
</g>
<!-- Node0x55f36b8d0ed8 -->
<g id="node25" class="node">
<title>Node0x55f36b8d0ed8</title>
<polygon fill="#ff7f7f" stroke="black" points="1200.5,-461.5 1200.5,-497.5 1373.5,-497.5 1373.5,-461.5 1200.5,-461.5"/>
<text text-anchor="middle" x="1287" y="-475.8" font-family="Times,serif" font-size="14.00">lib/libLLVMRemarks.a</text>
</g>
<!-- Node0x55f36b8de628&#45;&gt;Node0x55f36b8d0ed8 -->
<g id="edge99" class="edge">
<title>Node0x55f36b8de628&#45;&gt;Node0x55f36b8d0ed8</title>
<path fill="none" stroke="#ff7f7f" d="M1699.98,-541.67C1616.05,-529.71 1477.11,-509.41 1383.81,-495.5"/>
<polygon fill="#ff7f7f" stroke="#ff7f7f" points="1384.2,-492.02 1373.8,-494 1383.17,-498.94 1384.2,-492.02"/>
</g>
<!-- Node0x55f36b8db888&#45;&gt;Node0x55f36b8d9538 -->
<g id="edge102" class="edge">
<title>Node0x55f36b8db888&#45;&gt;Node0x55f36b8d9538</title>
<path fill="none" stroke="#ff7f7f" d="M1609.35,-334.6C1319.79,-340.13 436,-399.35 436,-916.5 436,-1283.5 436,-1283.5 436,-1283.5 436,-1330.11 449.02,-1350.03 489,-1374 536.7,-1402.59 1245.02,-1417.95 1623.9,-1424.16"/>
<polygon fill="#ff7f7f" stroke="#ff7f7f" points="1623.84,-1427.66 1633.9,-1424.32 1623.95,-1420.66 1623.84,-1427.66"/>
</g>
<!-- Node0x55f36b8db888&#45;&gt;Node0x55f36b8ced18 -->
<g id="edge111" class="edge">
<title>Node0x55f36b8db888&#45;&gt;Node0x55f36b8ced18</title>
<path fill="none" stroke="#ff7f7f" d="M1790.78,-343.85C1992.83,-370.2 2462,-464.33 2462,-770.5 2462,-845.5 2462,-845.5 2462,-845.5 2462,-964.39 2344.95,-1067.75 2286.04,-1112.24"/>
<polygon fill="#ff7f7f" stroke="#ff7f7f" points="2283.73,-1109.59 2277.8,-1118.37 2287.91,-1115.21 2283.73,-1109.59"/>
</g>
<!-- Node0x55f36b8db888&#45;&gt;Node0x55f36b8cf308 -->
<g id="edge104" class="edge">
<title>Node0x55f36b8db888&#45;&gt;Node0x55f36b8cf308</title>
<path fill="none" stroke="#ff7f7f" d="M1690.94,-315.34C1671.62,-280.71 1622.71,-202.85 1557,-169 1478.7,-128.67 1226.08,-118.72 1096.8,-116.28"/>
<polygon fill="#ff7f7f" stroke="#ff7f7f" points="1096.63,-112.78 1086.57,-116.1 1096.51,-119.78 1096.63,-112.78"/>
</g>
<!-- Node0x55f36b8db888&#45;&gt;Node0x55f36b8ce318 -->
<g id="edge103" class="edge">
<title>Node0x55f36b8db888&#45;&gt;Node0x55f36b8ce318</title>
<path fill="none" stroke="#ff7f7f" d="M1750.8,-351.52C1773.29,-360.93 1799.37,-373.63 1821,-388 2001.66,-508.05 2072.41,-548.59 2145,-753 2183.21,-860.58 2028.44,-935.31 1934.04,-969.1"/>
<polygon fill="#ff7f7f" stroke="#ff7f7f" points="1932.82,-965.83 1924.54,-972.44 1935.14,-972.43 1932.82,-965.83"/>
</g>
<!-- Node0x55f36b8db888&#45;&gt;Node0x55f36b8e11e8 -->
<g id="edge106" class="edge">
<title>Node0x55f36b8db888&#45;&gt;Node0x55f36b8e11e8</title>
<path fill="none" stroke="#ff7f7f" d="M1609.27,-349.91C1604.45,-350.64 1599.67,-351.34 1595,-352 1456.78,-371.48 1411.96,-334.57 1283,-388 1211.5,-417.63 1211.52,-453.78 1148,-498 1120.9,-516.87 1108.46,-512.97 1083,-534 1050.4,-560.92 1044.47,-571.18 1022,-607 1003.08,-637.16 998.85,-645.78 989,-680 959.75,-781.6 936.83,-1084.93 1016,-1155 1050.84,-1185.84 1170.28,-1198.99 1256.62,-1204.54"/>
<polygon fill="#ff7f7f" stroke="#ff7f7f" points="1256.51,-1208.04 1266.71,-1205.16 1256.94,-1201.05 1256.51,-1208.04"/>
</g>
<!-- Node0x55f36b8db888&#45;&gt;Node0x55f36b8ce868 -->
<g id="edge107" class="edge">
<title>Node0x55f36b8db888&#45;&gt;Node0x55f36b8ce868</title>
<path fill="none" stroke="#ff7f7f" d="M1714.18,-315.47C1737.99,-294.31 1786.81,-258.94 1835,-242 1903.67,-217.87 2104.2,-201.27 2220.99,-193.51"/>
<polygon fill="#ff7f7f" stroke="#ff7f7f" points="2221.24,-197 2230.99,-192.85 2220.78,-190.02 2221.24,-197"/>
</g>
<!-- Node0x55f36b8db888&#45;&gt;Node0x55f36b8e1698 -->
<g id="edge112" class="edge">
<title>Node0x55f36b8db888&#45;&gt;Node0x55f36b8e1698</title>
<path fill="none" stroke="#ff7f7f" d="M1761.08,-315.49C1797.87,-305.25 1844.89,-292.16 1883.42,-281.43"/>
<polygon fill="#ff7f7f" stroke="#ff7f7f" points="1884.84,-284.67 1893.54,-278.61 1882.96,-277.92 1884.84,-284.67"/>
</g>
<!-- Node0x55f36b8db888&#45;&gt;Node0x55f36b8de628 -->
<g id="edge108" class="edge">
<title>Node0x55f36b8db888&#45;&gt;Node0x55f36b8de628</title>
<path fill="none" stroke="#ff7f7f" d="M1723.37,-351.62C1732.63,-361.58 1742.17,-374.74 1748,-388 1767.8,-433.01 1775.86,-490.24 1776.41,-523.68"/>
<polygon fill="#ff7f7f" stroke="#ff7f7f" points="1772.9,-524.03 1776.31,-534.06 1779.9,-524.09 1772.9,-524.03"/>
</g>
<!-- Node0x55f36b8db888&#45;&gt;Node0x55f36b8dbe28 -->
<g id="edge109" class="edge">
<title>Node0x55f36b8db888&#45;&gt;Node0x55f36b8dbe28</title>
<path fill="none" stroke="#ff7f7f" d="M1695.9,-351.69C1685.67,-394.66 1658.33,-510.27 1637,-607 1632.29,-628.36 1627.21,-652.62 1623.49,-670.64"/>
<polygon fill="#ff7f7f" stroke="#ff7f7f" points="1620.06,-669.96 1621.47,-680.46 1626.91,-671.37 1620.06,-669.96"/>
</g>
<!-- Node0x55f36b8db888&#45;&gt;Node0x55f36b8d0118 -->
<g id="edge113" class="edge">
<title>Node0x55f36b8db888&#45;&gt;Node0x55f36b8d0118</title>
<path fill="none" stroke="#ff7f7f" d="M1688.67,-351.57C1655.59,-401.57 1556.56,-552.16 1479,-680 1465.95,-701.5 1451.77,-726.3 1441.51,-744.49"/>
<polygon fill="#ff7f7f" stroke="#ff7f7f" points="1438.38,-742.91 1436.54,-753.35 1444.49,-746.34 1438.38,-742.91"/>
</g>
<!-- Node0x55f36b8db888&#45;&gt;Node0x55f36b8da578 -->
<g id="edge105" class="edge">
<title>Node0x55f36b8db888&#45;&gt;Node0x55f36b8da578</title>
<path fill="none" stroke="#ff7f7f" d="M1725.67,-351.58C1781.53,-390.13 1914.6,-489.76 1983,-607 2008.08,-649.99 2016.6,-668.85 2004,-717 1993.87,-755.72 1967.6,-794.12 1948.55,-818.27"/>
<polygon fill="#ff7f7f" stroke="#ff7f7f" points="1945.71,-816.22 1942.15,-826.2 1951.16,-820.61 1945.71,-816.22"/>
</g>
<!-- Node0x55f36b8d09d8 -->
<g id="node26" class="node">
<title>Node0x55f36b8d09d8</title>
<polygon fill="#ff7f7f" stroke="black" points="1313.5,-388.5 1313.5,-424.5 1544.5,-424.5 1544.5,-388.5 1313.5,-388.5"/>
<text text-anchor="middle" x="1429" y="-402.8" font-family="Times,serif" font-size="14.00">lib/libLLVMBitstreamReader.a</text>
</g>
<!-- Node0x55f36b8db888&#45;&gt;Node0x55f36b8d09d8 -->
<g id="edge110" class="edge">
<title>Node0x55f36b8db888&#45;&gt;Node0x55f36b8d09d8</title>
<path fill="none" stroke="#ff7f7f" d="M1640.55,-351.61C1602.13,-361.96 1551.71,-375.2 1509.7,-385.96"/>
<polygon fill="#ff7f7f" stroke="#ff7f7f" points="1508.59,-382.63 1499.77,-388.49 1510.33,-389.41 1508.59,-382.63"/>
</g>
<!-- Node0x55f36b8dbd38&#45;&gt;Node0x55f36b8d9538 -->
<g id="edge114" class="edge">
<title>Node0x55f36b8dbd38&#45;&gt;Node0x55f36b8d9538</title>
<path fill="none" stroke="#ff7f7f" d="M715.22,-935.56C656.18,-975.49 520,-1081.37 520,-1208.5 520,-1283.5 520,-1283.5 520,-1283.5 520,-1331.27 536.57,-1350.21 578,-1374 622.44,-1399.52 1265.91,-1416.01 1623.52,-1423.25"/>
<polygon fill="#ff7f7f" stroke="#ff7f7f" points="1623.68,-1426.76 1633.75,-1423.46 1623.83,-1419.76 1623.68,-1426.76"/>
</g>
<!-- Node0x55f36b8dbd38&#45;&gt;Node0x55f36b8d12e8 -->
<g id="edge115" class="edge">
<title>Node0x55f36b8dbd38&#45;&gt;Node0x55f36b8d12e8</title>
<path fill="none" stroke="#ff7f7f" d="M732.58,-899.25C702.82,-843.39 611.72,-661.58 594,-498 581.75,-384.88 568.48,-352.88 594,-242 596.15,-232.64 600.17,-223.02 604.42,-214.56"/>
<polygon fill="#ff7f7f" stroke="#ff7f7f" points="607.59,-216.06 609.22,-205.59 601.42,-212.75 607.59,-216.06"/>
</g>
<!-- Node0x55f36b8dbd38&#45;&gt;Node0x55f36b8cf308 -->
<g id="edge117" class="edge">
<title>Node0x55f36b8dbd38&#45;&gt;Node0x55f36b8cf308</title>
<path fill="none" stroke="#ff7f7f" d="M737.58,-899.42C726.09,-852.14 697.88,-715.86 724,-607 774.96,-394.58 806.05,-335.89 947,-169 956.7,-157.51 969.33,-147.08 981.29,-138.54"/>
<polygon fill="#ff7f7f" stroke="#ff7f7f" points="983.58,-141.21 989.84,-132.67 979.61,-135.45 983.58,-141.21"/>
</g>
<!-- Node0x55f36b8dbd38&#45;&gt;Node0x55f36b8ce318 -->
<g id="edge116" class="edge">
<title>Node0x55f36b8dbd38&#45;&gt;Node0x55f36b8ce318</title>
<path fill="none" stroke="#ff7f7f" d="M832.07,-924.41C882.23,-927.88 945.66,-932.31 1002,-936 1285.37,-954.56 1620.63,-974.56 1777.22,-983.98"/>
<polygon fill="#ff7f7f" stroke="#ff7f7f" points="1777.08,-987.48 1787.27,-984.59 1777.5,-980.49 1777.08,-987.48"/>
</g>
<!-- Node0x55f36b8dbd38&#45;&gt;Node0x55f36b8e11e8 -->
<g id="edge118" class="edge">
<title>Node0x55f36b8dbd38&#45;&gt;Node0x55f36b8e11e8</title>
<path fill="none" stroke="#ff7f7f" d="M749.23,-935.65C769.16,-980.57 829.65,-1101.86 922,-1155 977.28,-1186.81 1148.22,-1199.96 1256.9,-1205.21"/>
<polygon fill="#ff7f7f" stroke="#ff7f7f" points="1256.74,-1208.71 1266.89,-1205.68 1257.07,-1201.71 1256.74,-1208.71"/>
</g>
<!-- Node0x55f36b8dbd38&#45;&gt;Node0x55f36b8ce868 -->
<g id="edge119" class="edge">
<title>Node0x55f36b8dbd38&#45;&gt;Node0x55f36b8ce868</title>
<path fill="none" stroke="#ff7f7f" d="M832.28,-909.43C880.04,-905.89 939.67,-901.77 993,-899 1109.91,-892.93 1933.16,-894.19 2046,-863 2181.8,-825.46 2487,-548.39 2487,-407.5 2487,-407.5 2487,-407.5 2487,-332.5 2487,-270.92 2421.89,-231.24 2370.21,-209.45"/>
<polygon fill="#ff7f7f" stroke="#ff7f7f" points="2371.32,-206.12 2360.74,-205.58 2368.68,-212.6 2371.32,-206.12"/>
</g>
<!-- Node0x55f36b8dc8c8&#45;&gt;Node0x55f36b8d9538 -->
<g id="edge121" class="edge">
<title>Node0x55f36b8dc8c8&#45;&gt;Node0x55f36b8d9538</title>
<path fill="none" stroke="#ff7f7f" d="M1031.08,-935.54C896.76,-979.59 558,-1101.33 558,-1208.5 558,-1283.5 558,-1283.5 558,-1283.5 558,-1356.85 626.22,-1351.4 696,-1374 781.48,-1401.68 1309.33,-1416.72 1623.76,-1423.32"/>
<polygon fill="#ff7f7f" stroke="#ff7f7f" points="1623.86,-1426.83 1633.93,-1423.54 1624.01,-1419.83 1623.86,-1426.83"/>
</g>
<!-- Node0x55f36b8dc8c8&#45;&gt;Node0x55f36b8d12e8 -->
<g id="edge125" class="edge">
<title>Node0x55f36b8dc8c8&#45;&gt;Node0x55f36b8d12e8</title>
<path fill="none" stroke="#ff7f7f" d="M1047.57,-899.31C935.12,-844.82 608,-664.25 608,-407.5 608,-407.5 608,-407.5 608,-332.5 608,-291.79 612.82,-244.83 616.35,-215.9"/>
<polygon fill="#ff7f7f" stroke="#ff7f7f" points="619.85,-216.11 617.63,-205.75 612.91,-215.24 619.85,-216.11"/>
</g>
<!-- Node0x55f36b8dc8c8&#45;&gt;Node0x55f36b8cf308 -->
<g id="edge123" class="edge">
<title>Node0x55f36b8dc8c8&#45;&gt;Node0x55f36b8cf308</title>
<path fill="none" stroke="#ff7f7f" d="M1075.6,-899.26C1045.82,-843.42 954.12,-661.65 930,-498 913.91,-388.85 890.4,-328.13 967,-169 972.26,-158.08 980.62,-147.99 989.12,-139.59"/>
<polygon fill="#ff7f7f" stroke="#ff7f7f" points="991.62,-142.04 996.54,-132.66 986.84,-136.92 991.62,-142.04"/>
</g>
<!-- Node0x55f36b8dc8c8&#45;&gt;Node0x55f36b8ce318 -->
<g id="edge122" class="edge">
<title>Node0x55f36b8dc8c8&#45;&gt;Node0x55f36b8ce318</title>
<path fill="none" stroke="#ff7f7f" d="M1168.26,-925.68C1316.48,-938.86 1624.6,-966.87 1776.9,-980.98"/>
<polygon fill="#ff7f7f" stroke="#ff7f7f" points="1776.87,-984.5 1787.15,-981.94 1777.52,-977.53 1776.87,-984.5"/>
</g>
<!-- Node0x55f36b8dc8c8&#45;&gt;Node0x55f36b8e11e8 -->
<g id="edge120" class="edge">
<title>Node0x55f36b8dc8c8&#45;&gt;Node0x55f36b8e11e8</title>
<path fill="none" stroke="#ff7f7f" d="M1077.22,-935.8C1059.3,-978.55 1020.63,-1090.33 1074,-1155 1097.03,-1182.9 1185.73,-1196.42 1256.63,-1202.86"/>
<polygon fill="#ff7f7f" stroke="#ff7f7f" points="1256.69,-1206.38 1266.96,-1203.76 1257.3,-1199.4 1256.69,-1206.38"/>
</g>
<!-- Node0x55f36b8dc8c8&#45;&gt;Node0x55f36b8da578 -->
<g id="edge124" class="edge">
<title>Node0x55f36b8dc8c8&#45;&gt;Node0x55f36b8da578</title>
<path fill="none" stroke="#ff7f7f" d="M1168.04,-909.5C1317.84,-896.87 1633.79,-870.22 1807.06,-855.61"/>
<polygon fill="#ff7f7f" stroke="#ff7f7f" points="1807.57,-859.08 1817.24,-854.75 1806.99,-852.11 1807.57,-859.08"/>
</g>
<!-- Node0x55f36b8dbe28&#45;&gt;Node0x55f36b8d9538 -->
<g id="edge142" class="edge">
<title>Node0x55f36b8dbe28&#45;&gt;Node0x55f36b8d9538</title>
<path fill="none" stroke="#ff7f7f" d="M1614.35,-716.55C1601.37,-776.79 1555.77,-985.1 1510,-1155 1439.9,-1415.21 1426.16,-1341.09 1455,-1374 1467.83,-1388.64 1544.26,-1400.57 1627.25,-1409.43"/>
<polygon fill="#ff7f7f" stroke="#ff7f7f" points="1627.08,-1412.93 1637.4,-1410.49 1627.81,-1405.97 1627.08,-1412.93"/>
</g>
<!-- Node0x55f36b8dbe28&#45;&gt;Node0x55f36b8d12e8 -->
<g id="edge149" class="edge">
<title>Node0x55f36b8dbe28&#45;&gt;Node0x55f36b8d12e8</title>
<path fill="none" stroke="#ff7f7f" d="M1559.1,-680.45C1525.71,-670.47 1483.27,-657.25 1446,-644 1281.76,-585.62 1229.53,-590.83 1082,-498 960.06,-421.27 947.74,-377.93 843,-279 825.86,-262.81 825.38,-253.85 805,-242 778.13,-226.37 746.37,-215.04 716.81,-206.94"/>
<polygon fill="#ff7f7f" stroke="#ff7f7f" points="717.45,-203.49 706.89,-204.32 715.66,-210.25 717.45,-203.49"/>
</g>
<!-- Node0x55f36b8dbe28&#45;&gt;Node0x55f36b8ced18 -->
<g id="edge152" class="edge">
<title>Node0x55f36b8dbe28&#45;&gt;Node0x55f36b8ced18</title>
<path fill="none" stroke="#ff7f7f" d="M1635.91,-716.52C1668.83,-747.42 1741.77,-814.06 1809,-863 1950.76,-966.19 2132.45,-1069.37 2212.29,-1113.37"/>
<polygon fill="#ff7f7f" stroke="#ff7f7f" points="2211.06,-1116.69 2221.51,-1118.44 2214.43,-1110.56 2211.06,-1116.69"/>
</g>
<!-- Node0x55f36b8dbe28&#45;&gt;Node0x55f36b8cf308 -->
<g id="edge146" class="edge">
<title>Node0x55f36b8dbe28&#45;&gt;Node0x55f36b8cf308</title>
<path fill="none" stroke="#ff7f7f" d="M1577.96,-680.44C1477.74,-637.5 1221.92,-526.4 1191,-498 1134.55,-446.15 1054.61,-220.86 1028,-142.49"/>
<polygon fill="#ff7f7f" stroke="#ff7f7f" points="1031.26,-141.21 1024.75,-132.85 1024.63,-143.44 1031.26,-141.21"/>
</g>
<!-- Node0x55f36b8dbe28&#45;&gt;Node0x55f36b8ce318 -->
<g id="edge148" class="edge">
<title>Node0x55f36b8dbe28&#45;&gt;Node0x55f36b8ce318</title>
<path fill="none" stroke="#ff7f7f" d="M1624.28,-716.82C1636.03,-747.91 1663.41,-814.46 1699,-863 1726.7,-900.77 1737.67,-907.72 1775,-936 1790.14,-947.47 1807.94,-958.43 1823.76,-967.4"/>
<polygon fill="#ff7f7f" stroke="#ff7f7f" points="1822.38,-970.63 1832.82,-972.44 1825.78,-964.52 1822.38,-970.63"/>
</g>
<!-- Node0x55f36b8dbe28&#45;&gt;Node0x55f36b8e11e8 -->
<g id="edge143" class="edge">
<title>Node0x55f36b8dbe28&#45;&gt;Node0x55f36b8e11e8</title>
<path fill="none" stroke="#ff7f7f" d="M1609.59,-716.69C1579.17,-765.79 1477.28,-911.75 1415,-1045 1393.28,-1091.47 1376,-1148.95 1364.25,-1181.9"/>
<polygon fill="#ff7f7f" stroke="#ff7f7f" points="1360.96,-1180.71 1360.78,-1191.3 1367.53,-1183.13 1360.96,-1180.71"/>
</g>
<!-- Node0x55f36b8dbe28&#45;&gt;Node0x55f36b8ce868 -->
<g id="edge150" class="edge">
<title>Node0x55f36b8dbe28&#45;&gt;Node0x55f36b8ce868</title>
<path fill="none" stroke="#ff7f7f" d="M1703.1,-687.91C1754.78,-680.16 1821.29,-666.68 1877,-644 1988.45,-598.63 2016.38,-579.4 2105,-498 2199.17,-411.5 2269.59,-272.47 2296.29,-214.84"/>
<polygon fill="#ff7f7f" stroke="#ff7f7f" points="2299.5,-216.23 2300.48,-205.68 2293.14,-213.32 2299.5,-216.23"/>
</g>
<!-- Node0x55f36b8dbe28&#45;&gt;Node0x55f36b8de628 -->
<g id="edge145" class="edge">
<title>Node0x55f36b8dbe28&#45;&gt;Node0x55f36b8de628</title>
<path fill="none" stroke="#ff7f7f" d="M1617.54,-680.22C1622.59,-660.42 1637.36,-628.01 1659,-607 1672.58,-593.81 1690.07,-583.14 1707.24,-574.89"/>
<polygon fill="#ff7f7f" stroke="#ff7f7f" points="1709.09,-577.9 1716.73,-570.56 1706.18,-571.53 1709.09,-577.9"/>
</g>
<!-- Node0x55f36b8dbe28&#45;&gt;Node0x55f36b8d0118 -->
<g id="edge147" class="edge">
<title>Node0x55f36b8dbe28&#45;&gt;Node0x55f36b8d0118</title>
<path fill="none" stroke="#ff7f7f" d="M1577.83,-716.61C1551.87,-726.66 1517.65,-739.42 1488.34,-750"/>
<polygon fill="#ff7f7f" stroke="#ff7f7f" points="1486.84,-746.82 1478.61,-753.49 1489.2,-753.41 1486.84,-746.82"/>
</g>
<!-- Node0x55f36b8dbe28&#45;&gt;Node0x55f36b8da578 -->
<g id="edge144" class="edge">
<title>Node0x55f36b8dbe28&#45;&gt;Node0x55f36b8da578</title>
<path fill="none" stroke="#ff7f7f" d="M1659.16,-716.56C1718.37,-742.86 1826.63,-793.24 1885.83,-821.99"/>
<polygon fill="#ff7f7f" stroke="#ff7f7f" points="1884.37,-825.18 1894.89,-826.42 1887.44,-818.89 1884.37,-825.18"/>
</g>
<!-- Node0x55f36b8dcd78 -->
<g id="node27" class="node">
<title>Node0x55f36b8dcd78</title>
<polygon fill="#ff7f7f" stroke="black" points="1676.5,-607.5 1676.5,-643.5 1867.5,-643.5 1867.5,-607.5 1676.5,-607.5"/>
<text text-anchor="middle" x="1772" y="-621.8" font-family="Times,serif" font-size="14.00">lib/libLLVMProfileData.a</text>
</g>
<!-- Node0x55f36b8dbe28&#45;&gt;Node0x55f36b8dcd78 -->
<g id="edge151" class="edge">
<title>Node0x55f36b8dbe28&#45;&gt;Node0x55f36b8dcd78</title>
<path fill="none" stroke="#ff7f7f" d="M1649.03,-680.49C1669.35,-670.64 1696.31,-658.16 1719.84,-647.67"/>
<polygon fill="#ff7f7f" stroke="#ff7f7f" points="1721.28,-650.86 1729.01,-643.61 1718.45,-644.46 1721.28,-650.86"/>
</g>
<!-- Node0x55f36b8cffd8&#45;&gt;Node0x55f36b8e11e8 -->
<g id="edge167" class="edge">
<title>Node0x55f36b8cffd8&#45;&gt;Node0x55f36b8e11e8</title>
<path fill="none" stroke="#ff7f7f" d="M1276.42,-1154.61C1291.22,-1163.87 1308.65,-1175.44 1322.99,-1185.47"/>
<polygon fill="#ff7f7f" stroke="#ff7f7f" points="1321.29,-1188.56 1331.47,-1191.49 1325.34,-1182.85 1321.29,-1188.56"/>
</g>
<!-- Node0x55f36b8d0118&#45;&gt;Node0x55f36b8d9538 -->
<g id="edge126" class="edge">
<title>Node0x55f36b8d0118&#45;&gt;Node0x55f36b8d9538</title>
<path fill="none" stroke="#ff7f7f" d="M1399.68,-789.72C1383.22,-800.15 1361.85,-813.75 1343,-826 1268.78,-874.22 1252.14,-889.23 1177,-936 972.98,-1062.98 710,-968.19 710,-1208.5 710,-1283.5 710,-1283.5 710,-1283.5 710,-1370.67 799.93,-1350.98 884,-1374 1018.11,-1410.71 1380.68,-1422.34 1623.86,-1425.96"/>
<polygon fill="#ff7f7f" stroke="#ff7f7f" points="1623.85,-1429.46 1633.9,-1426.11 1623.96,-1422.46 1623.85,-1429.46"/>
</g>
<!-- Node0x55f36b8d0118&#45;&gt;Node0x55f36b8d12e8 -->
<g id="edge127" class="edge">
<title>Node0x55f36b8d0118&#45;&gt;Node0x55f36b8d12e8</title>
<path fill="none" stroke="#ff7f7f" d="M1338.86,-756.09C1300.49,-747.78 1255.77,-735.26 1218,-717 1073.23,-647 1046.93,-608.39 930,-498 821.12,-395.21 825.78,-338.15 711,-242 696.79,-230.1 679.6,-219.25 664.01,-210.48"/>
<polygon fill="#ff7f7f" stroke="#ff7f7f" points="665.5,-207.3 655.05,-205.56 662.13,-213.44 665.5,-207.3"/>
</g>
<!-- Node0x55f36b8d0118&#45;&gt;Node0x55f36b8cf308 -->
<g id="edge128" class="edge">
<title>Node0x55f36b8d0118&#45;&gt;Node0x55f36b8cf308</title>
<path fill="none" stroke="#ff7f7f" d="M1390.07,-753.36C1289.64,-703.92 1019,-550.65 1019,-334.5 1019,-334.5 1019,-334.5 1019,-259.5 1019,-218.93 1019,-171.94 1019,-142.96"/>
<polygon fill="#ff7f7f" stroke="#ff7f7f" points="1022.5,-142.79 1019,-132.79 1015.5,-142.79 1022.5,-142.79"/>
</g>
<!-- Node0x55f36b8d0118&#45;&gt;Node0x55f36b8ce318 -->
<g id="edge129" class="edge">
<title>Node0x55f36b8d0118&#45;&gt;Node0x55f36b8ce318</title>
<path fill="none" stroke="#ff7f7f" d="M1457.17,-789.55C1474.64,-799.69 1496.89,-813.06 1516,-826 1582.98,-871.35 1588.24,-900.66 1661,-936 1697.29,-953.63 1740.13,-965.97 1777.23,-974.32"/>
<polygon fill="#ff7f7f" stroke="#ff7f7f" points="1776.51,-977.75 1787.03,-976.47 1778.01,-970.91 1776.51,-977.75"/>
</g>
<!-- Node0x55f36b8d0118&#45;&gt;Node0x55f36b8e11e8 -->
<g id="edge130" class="edge">
<title>Node0x55f36b8d0118&#45;&gt;Node0x55f36b8e11e8</title>
<path fill="none" stroke="#ff7f7f" d="M1408.9,-789.65C1398.54,-799.83 1385.54,-813.2 1375,-826 1312.06,-902.42 1310.4,-932.14 1248,-1009 1205.99,-1060.75 1169.63,-1056.07 1145,-1118 1138.92,-1133.28 1134.94,-1141.99 1145,-1155 1159.27,-1173.45 1209.58,-1186.72 1256.91,-1195.42"/>
<polygon fill="#ff7f7f" stroke="#ff7f7f" points="1256.49,-1198.9 1266.95,-1197.21 1257.71,-1192.01 1256.49,-1198.9"/>
</g>
<!-- Node0x55f36b8d0118&#45;&gt;Node0x55f36b8de628 -->
<g id="edge131" class="edge">
<title>Node0x55f36b8d0118&#45;&gt;Node0x55f36b8de628</title>
<path fill="none" stroke="#ff7f7f" d="M1437.1,-753.18C1453.4,-734.21 1485.03,-703.36 1515,-680 1562.15,-643.24 1574.84,-634.37 1628,-607 1652.14,-594.57 1679.86,-583.13 1704.55,-574.05"/>
<polygon fill="#ff7f7f" stroke="#ff7f7f" points="1705.99,-577.25 1714.21,-570.56 1703.61,-570.66 1705.99,-577.25"/>
</g>
<!-- Node0x55f36b8d0118&#45;&gt;Node0x55f36b8dbe28 -->
<g id="edge132" class="edge">
<title>Node0x55f36b8d0118&#45;&gt;Node0x55f36b8dbe28</title>
<path fill="none" stroke="#ff7f7f" d="M1466.89,-753.49C1492.8,-743.47 1527,-730.71 1556.34,-720.12"/>
<polygon fill="#ff7f7f" stroke="#ff7f7f" points="1557.86,-723.29 1566.09,-716.61 1555.5,-716.7 1557.86,-723.29"/>
</g>
<!-- Node0x55f36b8da578&#45;&gt;Node0x55f36b8d9538 -->
<g id="edge139" class="edge">
<title>Node0x55f36b8da578&#45;&gt;Node0x55f36b8d9538</title>
<path fill="none" stroke="#ff7f7f" d="M1946.64,-862.54C2000.06,-910.9 2144,-1055.41 2144,-1208.5 2144,-1283.5 2144,-1283.5 2144,-1283.5 2144,-1325.11 2150.25,-1345.43 2120,-1374 2103.94,-1389.17 2063.52,-1400.47 2019.16,-1408.67"/>
<polygon fill="#ff7f7f" stroke="#ff7f7f" points="2018.27,-1405.28 2009.04,-1410.48 2019.5,-1412.17 2018.27,-1405.28"/>
</g>
<!-- Node0x55f36b8da578&#45;&gt;Node0x55f36b8d12e8 -->
<g id="edge140" class="edge">
<title>Node0x55f36b8da578&#45;&gt;Node0x55f36b8d12e8</title>
<path fill="none" stroke="#ff7f7f" d="M1817.4,-842.96C1696.51,-840.24 1496.99,-829.4 1330,-790 1160.5,-750.01 646,-581.65 646,-407.5 646,-407.5 646,-407.5 646,-332.5 646,-291.1 635.46,-244.04 627.8,-215.32"/>
<polygon fill="#ff7f7f" stroke="#ff7f7f" points="631.16,-214.33 625.14,-205.61 624.41,-216.18 631.16,-214.33"/>
</g>
<!-- Node0x55f36b8da578&#45;&gt;Node0x55f36b8cf308 -->
<g id="edge138" class="edge">
<title>Node0x55f36b8da578&#45;&gt;Node0x55f36b8cf308</title>
<path fill="none" stroke="#ff7f7f" d="M1954.36,-826.43C1967.54,-817.04 1982.69,-804.39 1993,-790 2061.2,-694.85 2103.87,-640.38 2055,-534 1992.64,-398.24 1917.52,-407.23 1800,-315 1756.14,-280.58 1648.24,-188.47 1596,-169 1506.54,-135.65 1232.55,-122.34 1096.84,-117.69"/>
<polygon fill="#ff7f7f" stroke="#ff7f7f" points="1096.63,-114.18 1086.52,-117.35 1096.4,-121.18 1096.63,-114.18"/>
</g>
<!-- Node0x55f36b8da578&#45;&gt;Node0x55f36b8ce318 -->
<g id="edge141" class="edge">
<title>Node0x55f36b8da578&#45;&gt;Node0x55f36b8ce318</title>
<path fill="none" stroke="#ff7f7f" d="M1912.68,-862.88C1905.02,-872.92 1895.96,-886.08 1890,-899 1880.67,-919.24 1874.45,-943.75 1870.68,-962.16"/>
<polygon fill="#ff7f7f" stroke="#ff7f7f" points="1867.2,-961.73 1868.75,-972.22 1874.07,-963.06 1867.2,-961.73"/>
</g>
<!-- Node0x55f36b8da578&#45;&gt;Node0x55f36b8e11e8 -->
<g id="edge134" class="edge">
<title>Node0x55f36b8da578&#45;&gt;Node0x55f36b8e11e8</title>
<path fill="none" stroke="#ff7f7f" d="M1937.19,-862.58C1954.72,-894.46 1985.82,-963.85 1954,-1009 1894.52,-1093.39 1599.4,-1161.07 1445.21,-1191.33"/>
<polygon fill="#ff7f7f" stroke="#ff7f7f" points="1444.4,-1187.92 1435.26,-1193.27 1445.74,-1194.79 1444.4,-1187.92"/>
</g>
<!-- Node0x55f36b8da578&#45;&gt;Node0x55f36b8ce868 -->
<g id="edge133" class="edge">
<title>Node0x55f36b8da578&#45;&gt;Node0x55f36b8ce868</title>
<path fill="none" stroke="#ff7f7f" d="M2036.73,-832.08C2068.51,-824.23 2101.46,-811.28 2127,-790 2270.21,-670.69 2299,-593.9 2299,-407.5 2299,-407.5 2299,-407.5 2299,-332.5 2299,-291.93 2299,-244.94 2301.29,-215.96"/>
<polygon fill="#ff7f7f" stroke="#ff7f7f" points="2304.8,-216.08 2302.29,-205.79 2297.83,-215.4 2304.8,-216.08"/>
</g>
<!-- Node0x55f36b8da578&#45;&gt;Node0x55f36b8de628 -->
<g id="edge135" class="edge">
<title>Node0x55f36b8da578&#45;&gt;Node0x55f36b8de628</title>
<path fill="none" stroke="#ff7f7f" d="M1926.95,-826.24C1932.16,-784.08 1950.78,-674.37 1901,-607 1889.17,-590.99 1871.85,-579.76 1853.71,-571.9"/>
<polygon fill="#ff7f7f" stroke="#ff7f7f" points="1854.76,-568.55 1844.17,-568.09 1852.16,-575.05 1854.76,-568.55"/>
</g>
<!-- Node0x55f36b8da578&#45;&gt;Node0x55f36b8dbe28 -->
<g id="edge137" class="edge">
<title>Node0x55f36b8da578&#45;&gt;Node0x55f36b8dbe28</title>
<path fill="none" stroke="#ff7f7f" d="M1885.79,-826.42C1826.56,-800.11 1718.29,-749.72 1659.12,-720.98"/>
<polygon fill="#ff7f7f" stroke="#ff7f7f" points="1660.58,-717.8 1650.06,-716.56 1657.51,-724.09 1660.58,-717.8"/>
</g>
<!-- Node0x55f36b8da578&#45;&gt;Node0x55f36b8d0118 -->
<g id="edge136" class="edge">
<title>Node0x55f36b8da578&#45;&gt;Node0x55f36b8d0118</title>
<path fill="none" stroke="#ff7f7f" d="M1817.27,-827.92C1730.12,-815.54 1609.34,-798.39 1525.31,-786.46"/>
<polygon fill="#ff7f7f" stroke="#ff7f7f" points="1525.65,-782.97 1515.25,-785.03 1524.66,-789.9 1525.65,-782.97"/>
</g>
<!-- Node0x55f36b8d0ed8&#45;&gt;Node0x55f36b8d9538 -->
<g id="edge169" class="edge">
<title>Node0x55f36b8d0ed8&#45;&gt;Node0x55f36b8d9538</title>
<path fill="none" stroke="#ff7f7f" d="M1200.35,-494.51C1162.89,-502.74 1119.4,-515.31 1083,-534 725.84,-717.45 482,-806.98 482,-1208.5 482,-1283.5 482,-1283.5 482,-1283.5 482,-1329.03 491.47,-1349.75 530,-1374 575.38,-1402.56 1254.55,-1417.84 1623.91,-1424.08"/>
<polygon fill="#ff7f7f" stroke="#ff7f7f" points="1623.88,-1427.58 1633.93,-1424.24 1623.99,-1420.58 1623.88,-1427.58"/>
</g>
<!-- Node0x55f36b8d0ed8&#45;&gt;Node0x55f36b8cf718 -->
<g id="edge175" class="edge">
<title>Node0x55f36b8d0ed8&#45;&gt;Node0x55f36b8cf718</title>
<path fill="none" stroke="#ff7f7f" d="M1281.59,-461.5C1276.58,-442.53 1271.48,-411.43 1283,-388 1366.96,-217.22 1580.45,-107.04 1679.31,-63.56"/>
<polygon fill="#ff7f7f" stroke="#ff7f7f" points="1680.73,-66.75 1688.51,-59.56 1677.94,-60.33 1680.73,-66.75"/>
</g>
<!-- Node0x55f36b8d0ed8&#45;&gt;Node0x55f36b8cf308 -->
<g id="edge172" class="edge">
<title>Node0x55f36b8d0ed8&#45;&gt;Node0x55f36b8cf308</title>
<path fill="none" stroke="#ff7f7f" d="M1245.73,-461.34C1200.11,-439.3 1133,-396.36 1133,-334.5 1133,-334.5 1133,-334.5 1133,-259.5 1133,-217.89 1134.08,-202.21 1109,-169 1099.2,-156.03 1085.27,-145.59 1071.29,-137.5"/>
<polygon fill="#ff7f7f" stroke="#ff7f7f" points="1072.59,-134.23 1062.13,-132.52 1069.25,-140.38 1072.59,-134.23"/>
</g>
<!-- Node0x55f36b8d0ed8&#45;&gt;Node0x55f36b8ce318 -->
<g id="edge174" class="edge">
<title>Node0x55f36b8d0ed8&#45;&gt;Node0x55f36b8ce318</title>
<path fill="none" stroke="#ff7f7f" d="M1284.31,-497.55C1277.35,-547.7 1263.68,-697.04 1330,-790 1369.39,-845.21 1534.24,-912.88 1598,-936 1656.03,-957.05 1724.31,-970.52 1777.42,-978.68"/>
<polygon fill="#ff7f7f" stroke="#ff7f7f" points="1777.08,-982.17 1787.49,-980.19 1778.12,-975.25 1777.08,-982.17"/>
</g>
<!-- Node0x55f36b8d0ed8&#45;&gt;Node0x55f36b8e11e8 -->
<g id="edge168" class="edge">
<title>Node0x55f36b8d0ed8&#45;&gt;Node0x55f36b8e11e8</title>
<path fill="none" stroke="#ff7f7f" d="M1200.47,-497.45C1175.2,-505.46 1148.81,-517.12 1128,-534 981.63,-652.73 964.84,-749.64 993,-936 1008.05,-1035.56 976.93,-1086.8 1051,-1155 1080.47,-1182.14 1180.07,-1195.89 1256.51,-1202.6"/>
<polygon fill="#ff7f7f" stroke="#ff7f7f" points="1256.39,-1206.1 1266.65,-1203.46 1256.99,-1199.13 1256.39,-1206.1"/>
</g>
<!-- Node0x55f36b8d0ed8&#45;&gt;Node0x55f36b8de628 -->
<g id="edge173" class="edge">
<title>Node0x55f36b8d0ed8&#45;&gt;Node0x55f36b8de628</title>
<path fill="none" stroke="#ff7f7f" d="M1373.86,-492.45C1463.52,-505.28 1602.25,-525.59 1690.06,-538.72"/>
<polygon fill="#ff7f7f" stroke="#ff7f7f" points="1689.57,-542.19 1699.98,-540.21 1690.61,-535.27 1689.57,-542.19"/>
</g>
<!-- Node0x55f36b8d0ed8&#45;&gt;Node0x55f36b8db888 -->
<g id="edge176" class="edge">
<title>Node0x55f36b8d0ed8&#45;&gt;Node0x55f36b8db888</title>
<path fill="none" stroke="#ff7f7f" d="M1284.79,-461.38C1283.18,-440.81 1284.07,-406.72 1304,-388 1351.49,-343.39 1530.52,-361.36 1595,-352 1596.31,-351.81 1597.63,-351.62 1598.96,-351.42"/>
<polygon fill="#ff7f7f" stroke="#ff7f7f" points="1599.89,-354.82 1609.26,-349.87 1598.85,-347.9 1599.89,-354.82"/>
</g>
<!-- Node0x55f36b8d0ed8&#45;&gt;Node0x55f36b8dc8c8 -->
<g id="edge178" class="edge">
<title>Node0x55f36b8d0ed8&#45;&gt;Node0x55f36b8dc8c8</title>
<path fill="none" stroke="#ff7f7f" d="M1242.32,-497.64C1198.66,-516.99 1134.46,-553.01 1104,-607 1051.94,-699.28 1068.7,-832.6 1079.23,-889.32"/>
<polygon fill="#ff7f7f" stroke="#ff7f7f" points="1075.83,-890.15 1081.17,-899.3 1082.7,-888.81 1075.83,-890.15"/>
</g>
<!-- Node0x55f36b8d0ed8&#45;&gt;Node0x55f36b8dbe28 -->
<g id="edge171" class="edge">
<title>Node0x55f36b8d0ed8&#45;&gt;Node0x55f36b8dbe28</title>
<path fill="none" stroke="#ff7f7f" d="M1358.29,-497.53C1386.49,-506.05 1418.45,-518.02 1445,-534 1508.43,-572.18 1567.8,-636.99 1597.73,-672.46"/>
<polygon fill="#ff7f7f" stroke="#ff7f7f" points="1595.26,-674.96 1604.35,-680.4 1600.63,-670.47 1595.26,-674.96"/>
</g>
<!-- Node0x55f36b8d0ed8&#45;&gt;Node0x55f36b8d0118 -->
<g id="edge170" class="edge">
<title>Node0x55f36b8d0ed8&#45;&gt;Node0x55f36b8d0118</title>
<path fill="none" stroke="#ff7f7f" d="M1289.34,-497.66C1295.72,-539.14 1316.65,-646.6 1370,-717 1378.09,-727.67 1388.4,-738.06 1398.03,-746.8"/>
<polygon fill="#ff7f7f" stroke="#ff7f7f" points="1395.73,-749.44 1405.55,-753.43 1400.36,-744.19 1395.73,-749.44"/>
</g>
<!-- Node0x55f36b8d0ed8&#45;&gt;Node0x55f36b8d09d8 -->
<g id="edge177" class="edge">
<title>Node0x55f36b8d0ed8&#45;&gt;Node0x55f36b8d09d8</title>
<path fill="none" stroke="#ff7f7f" d="M1321.01,-461.49C1340.45,-451.77 1365.03,-439.49 1385.82,-429.09"/>
<polygon fill="#ff7f7f" stroke="#ff7f7f" points="1387.39,-432.22 1394.77,-424.61 1384.26,-425.96 1387.39,-432.22"/>
</g>
<!-- Node0x55f36b8d09d8&#45;&gt;Node0x55f36b8d9538 -->
<g id="edge163" class="edge">
<title>Node0x55f36b8d09d8&#45;&gt;Node0x55f36b8d9538</title>
<path fill="none" stroke="#ff7f7f" d="M1421.88,-424.69C1413.67,-443.56 1399.08,-474.3 1382,-498 1173.97,-786.57 898,-779.76 898,-1135.5 898,-1283.5 898,-1283.5 898,-1283.5 898,-1356.68 1339.44,-1396.81 1623.94,-1415.07"/>
<polygon fill="#ff7f7f" stroke="#ff7f7f" points="1623.79,-1418.57 1633.99,-1415.71 1624.23,-1411.59 1623.79,-1418.57"/>
</g>
<!-- Node0x55f36b8d09d8&#45;&gt;Node0x55f36b8e11e8 -->
<g id="edge164" class="edge">
<title>Node0x55f36b8d09d8&#45;&gt;Node0x55f36b8e11e8</title>
<path fill="none" stroke="#ff7f7f" d="M1441.25,-424.8C1453.04,-443.77 1467.25,-474.6 1454,-498 1438.68,-525.06 1416.64,-512.68 1394,-534 1336.74,-587.92 1329.93,-610.03 1294,-680 1246.7,-772.11 1152.94,-1016.02 1135,-1118 1132.15,-1134.2 1124.87,-1142.05 1135,-1155 1150.48,-1174.79 1206,-1188.28 1256.87,-1196.76"/>
<polygon fill="#ff7f7f" stroke="#ff7f7f" points="1256.54,-1200.26 1266.97,-1198.4 1257.65,-1193.35 1256.54,-1200.26"/>
</g>
<!-- Node0x55f36b8d09d8&#45;&gt;Node0x55f36b8db888 -->
<g id="edge166" class="edge">
<title>Node0x55f36b8d09d8&#45;&gt;Node0x55f36b8db888</title>
<path fill="none" stroke="#ff7f7f" d="M1488.05,-388.49C1526.39,-378.16 1576.8,-364.93 1618.86,-354.16"/>
<polygon fill="#ff7f7f" stroke="#ff7f7f" points="1619.99,-357.48 1628.81,-351.61 1618.25,-350.7 1619.99,-357.48"/>
</g>
<!-- Node0x55f36b8d09d8&#45;&gt;Node0x55f36b8d0118 -->
<g id="edge165" class="edge">
<title>Node0x55f36b8d09d8&#45;&gt;Node0x55f36b8d0118</title>
<path fill="none" stroke="#ff7f7f" d="M1458.98,-424.68C1471.65,-433.71 1485.07,-446.02 1492,-461 1498.91,-475.92 1498.72,-482.99 1492,-498 1462.3,-564.37 1399.7,-540.63 1370,-607 1363.28,-622.01 1366.55,-627.92 1370,-644 1377.9,-680.75 1397.35,-719.71 1411.33,-744.52"/>
<polygon fill="#ff7f7f" stroke="#ff7f7f" points="1408.37,-746.38 1416.39,-753.3 1414.43,-742.89 1408.37,-746.38"/>
</g>
<!-- Node0x55f36b8dcd78&#45;&gt;Node0x55f36b8d9538 -->
<g id="edge153" class="edge">
<title>Node0x55f36b8dcd78&#45;&gt;Node0x55f36b8d9538</title>
<path fill="none" stroke="#ff7f7f" d="M1812.44,-643.5C1873.96,-671.65 1989.85,-734.12 2046,-826 2135.73,-972.83 2106,-1036.42 2106,-1208.5 2106,-1283.5 2106,-1283.5 2106,-1283.5 2106,-1352.22 2033.76,-1388.73 1967.42,-1407.76"/>
<polygon fill="#ff7f7f" stroke="#ff7f7f" points="1966.4,-1404.42 1957.69,-1410.45 1968.26,-1411.16 1966.4,-1404.42"/>
</g>
<!-- Node0x55f36b8dcd78&#45;&gt;Node0x55f36b8d12e8 -->
<g id="edge154" class="edge">
<title>Node0x55f36b8dcd78&#45;&gt;Node0x55f36b8d12e8</title>
<path fill="none" stroke="#ff7f7f" d="M1731.79,-607.5C1565.39,-537.21 935.12,-271.58 843,-242 801.15,-228.56 753.93,-216.77 713.74,-207.69"/>
<polygon fill="#ff7f7f" stroke="#ff7f7f" points="714.48,-204.27 703.95,-205.5 712.95,-211.1 714.48,-204.27"/>
</g>
<!-- Node0x55f36b8dcd78&#45;&gt;Node0x55f36b8ced18 -->
<g id="edge161" class="edge">
<title>Node0x55f36b8dcd78&#45;&gt;Node0x55f36b8ced18</title>
<path fill="none" stroke="#ff7f7f" d="M1867.61,-640.37C2007.88,-666.74 2253,-738.3 2253,-916.5 2253,-991.5 2253,-991.5 2253,-991.5 2253,-1032.07 2253,-1079.06 2253,-1108.04"/>
<polygon fill="#ff7f7f" stroke="#ff7f7f" points="2249.5,-1108.21 2253,-1118.21 2256.5,-1108.21 2249.5,-1108.21"/>
</g>
<!-- Node0x55f36b8dcd78&#45;&gt;Node0x55f36b8cf308 -->
<g id="edge155" class="edge">
<title>Node0x55f36b8dcd78&#45;&gt;Node0x55f36b8cf308</title>
<path fill="none" stroke="#ff7f7f" d="M1740.97,-607.44C1725.08,-597.89 1705.99,-585.08 1691,-571 1616.76,-501.25 1630.74,-453.83 1553,-388 1403.38,-261.3 1184.83,-173.52 1079.79,-135.98"/>
<polygon fill="#ff7f7f" stroke="#ff7f7f" points="1080.88,-132.65 1070.29,-132.61 1078.54,-139.25 1080.88,-132.65"/>
</g>
<!-- Node0x55f36b8dcd78&#45;&gt;Node0x55f36b8ce318 -->
<g id="edge159" class="edge">
<title>Node0x55f36b8dcd78&#45;&gt;Node0x55f36b8ce318</title>
<path fill="none" stroke="#ff7f7f" d="M1773.11,-643.77C1776,-683.3 1785.23,-783.14 1809,-863 1819.78,-899.24 1838.77,-938.59 1851.85,-963.62"/>
<polygon fill="#ff7f7f" stroke="#ff7f7f" points="1848.76,-965.27 1856.54,-972.47 1854.95,-962 1848.76,-965.27"/>
</g>
<!-- Node0x55f36b8dcd78&#45;&gt;Node0x55f36b8e11e8 -->
<g id="edge156" class="edge">
<title>Node0x55f36b8dcd78&#45;&gt;Node0x55f36b8e11e8</title>
<path fill="none" stroke="#ff7f7f" d="M1761.43,-643.52C1749.81,-661.97 1730.35,-692.12 1712,-717 1600.29,-868.53 1542.73,-884.71 1444,-1045 1415.93,-1090.57 1423.14,-1109.48 1395,-1155 1388.96,-1164.77 1381.31,-1174.69 1374.08,-1183.3"/>
<polygon fill="#ff7f7f" stroke="#ff7f7f" points="1371.24,-1181.24 1367.35,-1191.09 1376.54,-1185.81 1371.24,-1181.24"/>
</g>
<!-- Node0x55f36b8dcd78&#45;&gt;Node0x55f36b8ce868 -->
<g id="edge162" class="edge">
<title>Node0x55f36b8dcd78&#45;&gt;Node0x55f36b8ce868</title>
<path fill="none" stroke="#ff7f7f" d="M1818.29,-607.49C1838.38,-598.64 1861.3,-586.41 1879,-571 1945.9,-512.76 2032.47,-293.05 2105,-242 2138.79,-218.22 2182.46,-205.01 2220.64,-197.67"/>
<polygon fill="#ff7f7f" stroke="#ff7f7f" points="2221.52,-201.07 2230.73,-195.84 2220.27,-194.18 2221.52,-201.07"/>
</g>
<!-- Node0x55f36b8dcd78&#45;&gt;Node0x55f36b8e1698 -->
<g id="edge160" class="edge">
<title>Node0x55f36b8dcd78&#45;&gt;Node0x55f36b8e1698</title>
<path fill="none" stroke="#ff7f7f" d="M1808.35,-607.47C1823.99,-598.54 1841.33,-586.26 1853,-571 1920.79,-482.33 1944.67,-346.52 1952.06,-288.88"/>
<polygon fill="#ff7f7f" stroke="#ff7f7f" points="1955.56,-289.09 1953.29,-278.75 1948.61,-288.25 1955.56,-289.09"/>
</g>
<!-- Node0x55f36b8dcd78&#45;&gt;Node0x55f36b8de628 -->
<g id="edge157" class="edge">
<title>Node0x55f36b8dcd78&#45;&gt;Node0x55f36b8de628</title>
<path fill="none" stroke="#ff7f7f" d="M1772,-607.31C1772,-599.29 1772,-589.55 1772,-580.57"/>
<polygon fill="#ff7f7f" stroke="#ff7f7f" points="1775.5,-580.53 1772,-570.53 1768.5,-580.53 1775.5,-580.53"/>
</g>
<!-- Node0x55f36b8dcd78&#45;&gt;Node0x55f36b8dbe28 -->
<g id="edge158" class="edge">
<title>Node0x55f36b8dcd78&#45;&gt;Node0x55f36b8dbe28</title>
<path fill="none" stroke="#ff7f7f" d="M1740.75,-643.61C1720.38,-653.48 1693.41,-665.97 1669.9,-676.44"/>
<polygon fill="#ff7f7f" stroke="#ff7f7f" points="1668.47,-673.25 1660.75,-680.49 1671.31,-679.65 1668.47,-673.25"/>
</g>
</g>
</svg>
