<?xml version="1.0" encoding="UTF-8" standalone="no"?>
<!DOCTYPE svg PUBLIC "-//W3C//DTD SVG 1.1//EN"
 "http://www.w3.org/Graphics/SVG/1.1/DTD/svg11.dtd">
<!-- Generated by graphviz version 2.43.0 (0)
 -->
<!-- Title: bin/llvm&#45;ifs_lib/libLLVMCore.a Pages: 1 -->
<svg width="385pt" height="2551pt"
 viewBox="0.00 0.00 385.00 2551.00" xmlns="http://www.w3.org/2000/svg" xmlns:xlink="http://www.w3.org/1999/xlink">
<g id="graph0" class="graph" transform="scale(1 1) rotate(0) translate(4 2547)">
<title>bin/llvm&#45;ifs_lib/libLLVMCore.a</title>
<polygon fill="white" stroke="transparent" points="-4,4 -4,-2547 381,-2547 381,4 -4,4"/>
<text text-anchor="middle" x="188.5" y="-7.8" font-family="Times,serif" font-size="14.00">bin/llvm&#45;ifs_lib/libLLVMCore.a</text>
<!-- Node0x55d6c819d8c8 -->
<g id="node1" class="node">
<title>Node0x55d6c819d8c8</title>
<polygon fill="none" stroke="black" points="332.5,-59 44.5,-59 44.5,-23 332.5,-23 332.5,-59"/>
<text text-anchor="middle" x="188.5" y="-37.3" font-family="Times,serif" font-size="14.00">{lib/libLLVMCore.a(Attributes.cpp.o)}</text>
</g>
<!-- Node0x55d6c8195718 -->
<g id="node2" class="node">
<title>Node0x55d6c8195718</title>
<polygon fill="none" stroke="black" points="333.5,-113 43.5,-113 43.5,-77 333.5,-77 333.5,-113"/>
<text text-anchor="middle" x="188.5" y="-91.3" font-family="Times,serif" font-size="14.00">{lib/libLLVMCore.a(AsmWriter.cpp.o)}</text>
</g>
<!-- Node0x55d6c8197018 -->
<g id="node3" class="node">
<title>Node0x55d6c8197018</title>
<polygon fill="none" stroke="black" points="344,-167 33,-167 33,-131 344,-131 344,-167"/>
<text text-anchor="middle" x="188.5" y="-145.3" font-family="Times,serif" font-size="14.00">{lib/libLLVMCore.a(AutoUpgrade.cpp.o)}</text>
</g>
<!-- Node0x55d6c8196028 -->
<g id="node4" class="node">
<title>Node0x55d6c8196028</title>
<polygon fill="none" stroke="black" points="335,-221 42,-221 42,-185 335,-185 335,-221"/>
<text text-anchor="middle" x="188.5" y="-199.3" font-family="Times,serif" font-size="14.00">{lib/libLLVMCore.a(BasicBlock.cpp.o)}</text>
</g>
<!-- Node0x55d6c819d198 -->
<g id="node5" class="node">
<title>Node0x55d6c819d198</title>
<polygon fill="none" stroke="black" points="351,-275 26,-275 26,-239 351,-239 351,-275"/>
<text text-anchor="middle" x="188.5" y="-253.3" font-family="Times,serif" font-size="14.00">{lib/libLLVMCore.a(ConstantRange.cpp.o)}</text>
</g>
<!-- Node0x55d6c819c978 -->
<g id="node6" class="node">
<title>Node0x55d6c819c978</title>
<polygon fill="none" stroke="black" points="332,-329 45,-329 45,-293 332,-293 332,-329"/>
<text text-anchor="middle" x="188.5" y="-307.3" font-family="Times,serif" font-size="14.00">{lib/libLLVMCore.a(Constants.cpp.o)}</text>
</g>
<!-- Node0x55d6c819df58 -->
<g id="node7" class="node">
<title>Node0x55d6c819df58</title>
<polygon fill="none" stroke="black" points="344,-383 33,-383 33,-347 344,-347 344,-383"/>
<text text-anchor="middle" x="188.5" y="-361.3" font-family="Times,serif" font-size="14.00">{lib/libLLVMCore.a(ConstantFold.cpp.o)}</text>
</g>
<!-- Node0x55d6c819d878 -->
<g id="node8" class="node">
<title>Node0x55d6c819d878</title>
<polygon fill="none" stroke="black" points="337.5,-437 39.5,-437 39.5,-401 337.5,-401 337.5,-437"/>
<text text-anchor="middle" x="188.5" y="-415.3" font-family="Times,serif" font-size="14.00">{lib/libLLVMCore.a(DataLayout.cpp.o)}</text>
</g>
<!-- Node0x55d6c819db48 -->
<g id="node9" class="node">
<title>Node0x55d6c819db48</title>
<polygon fill="none" stroke="black" points="333.5,-491 43.5,-491 43.5,-455 333.5,-455 333.5,-491"/>
<text text-anchor="middle" x="188.5" y="-469.3" font-family="Times,serif" font-size="14.00">{lib/libLLVMCore.a(DebugInfo.cpp.o)}</text>
</g>
<!-- Node0x55d6c819a448 -->
<g id="node10" class="node">
<title>Node0x55d6c819a448</title>
<polygon fill="none" stroke="black" points="330,-545 47,-545 47,-509 330,-509 330,-545"/>
<text text-anchor="middle" x="188.5" y="-523.3" font-family="Times,serif" font-size="14.00">{lib/libLLVMCore.a(DIBuilder.cpp.o)}</text>
</g>
<!-- Node0x55d6c8199d18 -->
<g id="node11" class="node">
<title>Node0x55d6c8199d18</title>
<polygon fill="none" stroke="black" points="367.5,-599 9.5,-599 9.5,-563 367.5,-563 367.5,-599"/>
<text text-anchor="middle" x="188.5" y="-577.3" font-family="Times,serif" font-size="14.00">{lib/libLLVMCore.a(DebugInfoMetadata.cpp.o)}</text>
</g>
<!-- Node0x55d6c8199e58 -->
<g id="node12" class="node">
<title>Node0x55d6c8199e58</title>
<polygon fill="none" stroke="black" points="332,-653 45,-653 45,-617 332,-617 332,-653"/>
<text text-anchor="middle" x="188.5" y="-631.3" font-family="Times,serif" font-size="14.00">{lib/libLLVMCore.a(DebugLoc.cpp.o)}</text>
</g>
<!-- Node0x55d6c8195a38 -->
<g id="node13" class="node">
<title>Node0x55d6c8195a38</title>
<polygon fill="none" stroke="black" points="348,-707 29,-707 29,-671 348,-671 348,-707"/>
<text text-anchor="middle" x="188.5" y="-685.3" font-family="Times,serif" font-size="14.00">{lib/libLLVMCore.a(DiagnosticInfo.cpp.o)}</text>
</g>
<!-- Node0x55d6c819dc88 -->
<g id="node14" class="node">
<title>Node0x55d6c819dc88</title>
<polygon fill="none" stroke="black" points="327.5,-761 49.5,-761 49.5,-725 327.5,-725 327.5,-761"/>
<text text-anchor="middle" x="188.5" y="-739.3" font-family="Times,serif" font-size="14.00">{lib/libLLVMCore.a(Function.cpp.o)}</text>
</g>
<!-- Node0x55d6c819d058 -->
<g id="node15" class="node">
<title>Node0x55d6c819d058</title>
<polygon fill="none" stroke="black" points="323,-815 54,-815 54,-779 323,-779 323,-815"/>
<text text-anchor="middle" x="188.5" y="-793.3" font-family="Times,serif" font-size="14.00">{lib/libLLVMCore.a(Globals.cpp.o)}</text>
</g>
<!-- Node0x55d6c819d0a8 -->
<g id="node16" class="node">
<title>Node0x55d6c819d0a8</title>
<polygon fill="none" stroke="black" points="329.5,-869 47.5,-869 47.5,-833 329.5,-833 329.5,-869"/>
<text text-anchor="middle" x="188.5" y="-847.3" font-family="Times,serif" font-size="14.00">{lib/libLLVMCore.a(IRBuilder.cpp.o)}</text>
</g>
<!-- Node0x55d6c819b8e8 -->
<g id="node17" class="node">
<title>Node0x55d6c819b8e8</title>
<polygon fill="none" stroke="black" points="332,-923 45,-923 45,-887 332,-887 332,-923"/>
<text text-anchor="middle" x="188.5" y="-901.3" font-family="Times,serif" font-size="14.00">{lib/libLLVMCore.a(InlineAsm.cpp.o)}</text>
</g>
<!-- Node0x55d6c8199e08 -->
<g id="node18" class="node">
<title>Node0x55d6c8199e08</title>
<polygon fill="none" stroke="black" points="335.5,-977 41.5,-977 41.5,-941 335.5,-941 335.5,-977"/>
<text text-anchor="middle" x="188.5" y="-955.3" font-family="Times,serif" font-size="14.00">{lib/libLLVMCore.a(Instruction.cpp.o)}</text>
</g>
<!-- Node0x55d6c819a128 -->
<g id="node19" class="node">
<title>Node0x55d6c819a128</title>
<polygon fill="none" stroke="black" points="339.5,-1031 37.5,-1031 37.5,-995 339.5,-995 339.5,-1031"/>
<text text-anchor="middle" x="188.5" y="-1009.3" font-family="Times,serif" font-size="14.00">{lib/libLLVMCore.a(Instructions.cpp.o)}</text>
</g>
<!-- Node0x55d6c819c388 -->
<g id="node20" class="node">
<title>Node0x55d6c819c388</title>
<polygon fill="none" stroke="black" points="340,-1085 37,-1085 37,-1049 340,-1049 340,-1085"/>
<text text-anchor="middle" x="188.5" y="-1063.3" font-family="Times,serif" font-size="14.00">{lib/libLLVMCore.a(IntrinsicInst.cpp.o)}</text>
</g>
<!-- Node0x55d6c819d0f8 -->
<g id="node21" class="node">
<title>Node0x55d6c819d0f8</title>
<polygon fill="none" stroke="black" points="344.5,-1139 32.5,-1139 32.5,-1103 344.5,-1103 344.5,-1139"/>
<text text-anchor="middle" x="188.5" y="-1117.3" font-family="Times,serif" font-size="14.00">{lib/libLLVMCore.a(LLVMContext.cpp.o)}</text>
</g>
<!-- Node0x55d6c819d1e8 -->
<g id="node22" class="node">
<title>Node0x55d6c819d1e8</title>
<polygon fill="none" stroke="black" points="359,-1193 18,-1193 18,-1157 359,-1157 359,-1193"/>
<text text-anchor="middle" x="188.5" y="-1171.3" font-family="Times,serif" font-size="14.00">{lib/libLLVMCore.a(DiagnosticPrinter.cpp.o)}</text>
</g>
<!-- Node0x55d6c819deb8 -->
<g id="node23" class="node">
<title>Node0x55d6c819deb8</title>
<polygon fill="none" stroke="black" points="360.5,-1247 16.5,-1247 16.5,-1211 360.5,-1211 360.5,-1247"/>
<text text-anchor="middle" x="188.5" y="-1225.3" font-family="Times,serif" font-size="14.00">{lib/libLLVMCore.a(LLVMContextImpl.cpp.o)}</text>
</g>
<!-- Node0x55d6c819e048 -->
<g id="node24" class="node">
<title>Node0x55d6c819e048</title>
<polygon fill="none" stroke="black" points="362,-1301 15,-1301 15,-1265 362,-1265 362,-1301"/>
<text text-anchor="middle" x="188.5" y="-1279.3" font-family="Times,serif" font-size="14.00">{lib/libLLVMCore.a(DiagnosticHandler.cpp.o)}</text>
</g>
<!-- Node0x55d6c8199ea8 -->
<g id="node25" class="node">
<title>Node0x55d6c8199ea8</title>
<polygon fill="none" stroke="black" points="377,-1355 0,-1355 0,-1319 377,-1319 377,-1355"/>
<text text-anchor="middle" x="188.5" y="-1333.3" font-family="Times,serif" font-size="14.00">{lib/libLLVMCore.a(LLVMRemarkStreamer.cpp.o)}</text>
</g>
<!-- Node0x55d6c819ac68 -->
<g id="node26" class="node">
<title>Node0x55d6c819ac68</title>
<polygon fill="none" stroke="black" points="334.5,-1409 42.5,-1409 42.5,-1373 334.5,-1373 334.5,-1409"/>
<text text-anchor="middle" x="188.5" y="-1387.3" font-family="Times,serif" font-size="14.00">{lib/libLLVMCore.a(MDBuilder.cpp.o)}</text>
</g>
<!-- Node0x55d6c819b078 -->
<g id="node27" class="node">
<title>Node0x55d6c819b078</title>
<polygon fill="none" stroke="black" points="325.5,-1463 51.5,-1463 51.5,-1427 325.5,-1427 325.5,-1463"/>
<text text-anchor="middle" x="188.5" y="-1441.3" font-family="Times,serif" font-size="14.00">{lib/libLLVMCore.a(Mangler.cpp.o)}</text>
</g>
<!-- Node0x55d6c819b258 -->
<g id="node28" class="node">
<title>Node0x55d6c819b258</title>
<polygon fill="none" stroke="black" points="330.5,-1517 46.5,-1517 46.5,-1481 330.5,-1481 330.5,-1517"/>
<text text-anchor="middle" x="188.5" y="-1495.3" font-family="Times,serif" font-size="14.00">{lib/libLLVMCore.a(Metadata.cpp.o)}</text>
</g>
<!-- Node0x55d6c819bf78 -->
<g id="node29" class="node">
<title>Node0x55d6c819bf78</title>
<polygon fill="none" stroke="black" points="323,-1571 54,-1571 54,-1535 323,-1535 323,-1571"/>
<text text-anchor="middle" x="188.5" y="-1549.3" font-family="Times,serif" font-size="14.00">{lib/libLLVMCore.a(Module.cpp.o)}</text>
</g>
<!-- Node0x55d6c819cb58 -->
<g id="node30" class="node">
<title>Node0x55d6c819cb58</title>
<polygon fill="none" stroke="black" points="377,-1625 0,-1625 0,-1589 377,-1589 377,-1625"/>
<text text-anchor="middle" x="188.5" y="-1603.3" font-family="Times,serif" font-size="14.00">{lib/libLLVMCore.a(ModuleSummaryIndex.cpp.o)}</text>
</g>
<!-- Node0x55d6c8197068 -->
<g id="node31" class="node">
<title>Node0x55d6c8197068</title>
<polygon fill="none" stroke="black" points="327.5,-1679 49.5,-1679 49.5,-1643 327.5,-1643 327.5,-1679"/>
<text text-anchor="middle" x="188.5" y="-1657.3" font-family="Times,serif" font-size="14.00">{lib/libLLVMCore.a(Operator.cpp.o)}</text>
</g>
<!-- Node0x55d6c8194b88 -->
<g id="node32" class="node">
<title>Node0x55d6c8194b88</title>
<polygon fill="none" stroke="black" points="331.5,-1733 45.5,-1733 45.5,-1697 331.5,-1697 331.5,-1733"/>
<text text-anchor="middle" x="188.5" y="-1711.3" font-family="Times,serif" font-size="14.00">{lib/libLLVMCore.a(OptBisect.cpp.o)}</text>
</g>
<!-- Node0x55d6c81955d8 -->
<g id="node33" class="node">
<title>Node0x55d6c81955d8</title>
<polygon fill="none" stroke="black" points="353,-1787 24,-1787 24,-1751 353,-1751 353,-1787"/>
<text text-anchor="middle" x="188.5" y="-1765.3" font-family="Times,serif" font-size="14.00">{lib/libLLVMCore.a(ProfileSummary.cpp.o)}</text>
</g>
<!-- Node0x55d6c81958a8 -->
<g id="node34" class="node">
<title>Node0x55d6c81958a8</title>
<polygon fill="none" stroke="black" points="313.5,-1841 63.5,-1841 63.5,-1805 313.5,-1805 313.5,-1841"/>
<text text-anchor="middle" x="188.5" y="-1819.3" font-family="Times,serif" font-size="14.00">{lib/libLLVMCore.a(Type.cpp.o)}</text>
</g>
<!-- Node0x55d6c8198e68 -->
<g id="node35" class="node">
<title>Node0x55d6c8198e68</title>
<polygon fill="none" stroke="black" points="336.5,-1895 40.5,-1895 40.5,-1859 336.5,-1859 336.5,-1895"/>
<text text-anchor="middle" x="188.5" y="-1873.3" font-family="Times,serif" font-size="14.00">{lib/libLLVMCore.a(TypeFinder.cpp.o)}</text>
</g>
<!-- Node0x55d6c8199f98 -->
<g id="node36" class="node">
<title>Node0x55d6c8199f98</title>
<polygon fill="none" stroke="black" points="315.5,-1949 61.5,-1949 61.5,-1913 315.5,-1913 315.5,-1949"/>
<text text-anchor="middle" x="188.5" y="-1927.3" font-family="Times,serif" font-size="14.00">{lib/libLLVMCore.a(Value.cpp.o)}</text>
</g>
<!-- Node0x55d6c8198ff8 -->
<g id="node37" class="node">
<title>Node0x55d6c8198ff8</title>
<polygon fill="none" stroke="black" points="361.5,-2003 15.5,-2003 15.5,-1967 361.5,-1967 361.5,-2003"/>
<text text-anchor="middle" x="188.5" y="-1981.3" font-family="Times,serif" font-size="14.00">{lib/libLLVMCore.a(ValueSymbolTable.cpp.o)}</text>
</g>
<!-- Node0x55d6c8198cd8 -->
<g id="node38" class="node">
<title>Node0x55d6c8198cd8</title>
<polygon fill="none" stroke="black" points="321.5,-2057 55.5,-2057 55.5,-2021 321.5,-2021 321.5,-2057"/>
<text text-anchor="middle" x="188.5" y="-2035.3" font-family="Times,serif" font-size="14.00">{lib/libLLVMCore.a(Verifier.cpp.o)}</text>
</g>
<!-- Node0x55d6c81980f8 -->
<g id="node39" class="node">
<title>Node0x55d6c81980f8</title>
<polygon fill="none" stroke="black" points="341.5,-2111 35.5,-2111 35.5,-2075 341.5,-2075 341.5,-2111"/>
<text text-anchor="middle" x="188.5" y="-2089.3" font-family="Times,serif" font-size="14.00">{lib/libLLVMCore.a(PassRegistry.cpp.o)}</text>
</g>
<!-- Node0x55d6c8197d38 -->
<g id="node40" class="node">
<title>Node0x55d6c8197d38</title>
<polygon fill="none" stroke="black" points="312.5,-2165 64.5,-2165 64.5,-2129 312.5,-2129 312.5,-2165"/>
<text text-anchor="middle" x="188.5" y="-2143.3" font-family="Times,serif" font-size="14.00">{lib/libLLVMCore.a(Pass.cpp.o)}</text>
</g>
<!-- Node0x55d6c8197a68 -->
<g id="node41" class="node">
<title>Node0x55d6c8197a68</title>
<polygon fill="none" stroke="black" points="357.5,-2219 19.5,-2219 19.5,-2183 357.5,-2183 357.5,-2219"/>
<text text-anchor="middle" x="188.5" y="-2197.3" font-family="Times,serif" font-size="14.00">{lib/libLLVMCore.a(IRPrintingPasses.cpp.o)}</text>
</g>
<!-- Node0x55d6c8196ca8 -->
<g id="node42" class="node">
<title>Node0x55d6c8196ca8</title>
<polygon fill="none" stroke="black" points="338,-2273 39,-2273 39,-2237 338,-2237 338,-2273"/>
<text text-anchor="middle" x="188.5" y="-2251.3" font-family="Times,serif" font-size="14.00">{lib/libLLVMCore.a(PrintPasses.cpp.o)}</text>
</g>
<!-- Node0x55d6c81969d8 -->
<g id="node43" class="node">
<title>Node0x55d6c81969d8</title>
<polygon fill="none" stroke="black" points="343.5,-2327 33.5,-2327 33.5,-2291 343.5,-2291 343.5,-2327"/>
<text text-anchor="middle" x="188.5" y="-2305.3" font-family="Times,serif" font-size="14.00">{lib/libLLVMCore.a(PassManager.cpp.o)}</text>
</g>
<!-- Node0x55d6c8195f38 -->
<g id="node44" class="node">
<title>Node0x55d6c8195f38</title>
<polygon fill="none" stroke="black" points="370.5,-2381 6.5,-2381 6.5,-2345 370.5,-2345 370.5,-2381"/>
<text text-anchor="middle" x="188.5" y="-2359.3" font-family="Times,serif" font-size="14.00">{lib/libLLVMCore.a(PassInstrumentation.cpp.o)}</text>
</g>
<!-- Node0x55d6c819d698 -->
<g id="node45" class="node">
<title>Node0x55d6c819d698</title>
<polygon fill="none" stroke="black" points="368.5,-2435 8.5,-2435 8.5,-2399 368.5,-2399 368.5,-2435"/>
<text text-anchor="middle" x="188.5" y="-2413.3" font-family="Times,serif" font-size="14.00">{lib/libLLVMCore.a(LegacyPassManager.cpp.o)}</text>
</g>
<!-- Node0x55d6c819b938 -->
<g id="node46" class="node">
<title>Node0x55d6c819b938</title>
<polygon fill="none" stroke="black" points="351,-2489 26,-2489 26,-2453 351,-2453 351,-2489"/>
<text text-anchor="middle" x="188.5" y="-2467.3" font-family="Times,serif" font-size="14.00">{lib/libLLVMCore.a(PassTimingInfo.cpp.o)}</text>
</g>
<!-- Node0x55d6c819c018 -->
<g id="node47" class="node">
<title>Node0x55d6c819c018</title>
<polygon fill="none" stroke="black" points="338,-2543 39,-2543 39,-2507 338,-2507 338,-2543"/>
<text text-anchor="middle" x="188.5" y="-2521.3" font-family="Times,serif" font-size="14.00">{lib/libLLVMCore.a(Dominators.cpp.o)}</text>
</g>
</g>
</svg>
