<?xml version="1.0" encoding="UTF-8" standalone="no"?>
<!DOCTYPE svg PUBLIC "-//W3C//DTD SVG 1.1//EN"
 "http://www.w3.org/Graphics/SVG/1.1/DTD/svg11.dtd">
<!-- Generated by graphviz version 2.43.0 (0)
 -->
<!-- Title: a.out Pages: 1 -->
<svg width="1156pt" height="213pt"
 viewBox="0.00 0.00 1155.68 213.00" xmlns="http://www.w3.org/2000/svg" xmlns:xlink="http://www.w3.org/1999/xlink">
<g id="graph0" class="graph" transform="scale(1 1) rotate(0) translate(4 209)">
<title>a.out</title>
<polygon fill="white" stroke="transparent" points="-4,4 -4,-209 1151.68,-209 1151.68,4 -4,4"/>
<text text-anchor="middle" x="573.84" y="-7.8" font-family="Times,serif" font-size="14.00">a.out</text>
<!-- Node0x563d28880fb8 -->
<g id="node1" class="node">
<title>Node0x563d28880fb8</title>
<polygon fill="none" stroke="black" points="219.34,-168.5 219.34,-204.5 677.34,-204.5 677.34,-168.5 219.34,-168.5"/>
<text text-anchor="middle" x="448.34" y="-182.8" font-family="Times,serif" font-size="14.00">/usr/lib/gcc/x86_64&#45;linux&#45;gnu/9/../../../x86_64&#45;linux&#45;gnu/Scrt1.o</text>
</g>
<!-- Node0x563d28881510 -->
<g id="node2" class="node">
<title>Node0x563d28881510</title>
<ellipse fill="none" stroke="black" cx="116.34" cy="-113.5" rx="116.18" ry="18"/>
<text text-anchor="middle" x="116.34" y="-109.8" font-family="Times,serif" font-size="14.00">Node0x563d28881510</text>
</g>
<!-- Node0x563d28880fb8&#45;&gt;Node0x563d28881510 -->
<g id="edge1" class="edge">
<title>Node0x563d28880fb8&#45;&gt;Node0x563d28881510</title>
<path fill="none" stroke="black" d="M368.82,-168.49C315.02,-156.99 244.42,-141.89 191.55,-130.58"/>
<polygon fill="black" stroke="black" points="192.07,-127.12 181.56,-128.45 190.61,-133.96 192.07,-127.12"/>
</g>
<!-- Node0x563d288813a8 -->
<g id="node3" class="node">
<title>Node0x563d288813a8</title>
<polygon fill="none" stroke="black" points="250.34,-95.5 250.34,-131.5 646.34,-131.5 646.34,-95.5 250.34,-95.5"/>
<text text-anchor="middle" x="448.34" y="-109.8" font-family="Times,serif" font-size="14.00">/usr/lib/x86_64&#45;linux&#45;gnu/libc_nonshared.a(elf&#45;init.oS)</text>
</g>
<!-- Node0x563d28880fb8&#45;&gt;Node0x563d288813a8 -->
<g id="edge2" class="edge">
<title>Node0x563d28880fb8&#45;&gt;Node0x563d288813a8</title>
<path fill="none" stroke="black" d="M448.34,-168.31C448.34,-160.29 448.34,-150.55 448.34,-141.57"/>
<polygon fill="black" stroke="black" points="451.84,-141.53 448.34,-131.53 444.84,-141.53 451.84,-141.53"/>
</g>
<!-- Node0x563d28880550 -->
<g id="node4" class="node">
<title>Node0x563d28880550</title>
<ellipse fill="none" stroke="black" cx="780.34" cy="-113.5" rx="116.18" ry="18"/>
<text text-anchor="middle" x="780.34" y="-109.8" font-family="Times,serif" font-size="14.00">Node0x563d28880550</text>
</g>
<!-- Node0x563d28880fb8&#45;&gt;Node0x563d28880550 -->
<g id="edge3" class="edge">
<title>Node0x563d28880fb8&#45;&gt;Node0x563d28880550</title>
<path fill="none" stroke="black" d="M527.86,-168.49C581.66,-156.99 652.26,-141.89 705.13,-130.58"/>
<polygon fill="black" stroke="black" points="706.07,-133.96 715.12,-128.45 704.61,-127.12 706.07,-133.96"/>
</g>
<!-- Node0x563d28880868 -->
<g id="node7" class="node">
<title>Node0x563d28880868</title>
<ellipse fill="none" stroke="black" cx="448.34" cy="-41" rx="116.18" ry="18"/>
<text text-anchor="middle" x="448.34" y="-37.3" font-family="Times,serif" font-size="14.00">Node0x563d28880868</text>
</g>
<!-- Node0x563d288813a8&#45;&gt;Node0x563d28880868 -->
<g id="edge6" class="edge">
<title>Node0x563d288813a8&#45;&gt;Node0x563d28880868</title>
<path fill="none" stroke="black" d="M448.34,-95.43C448.34,-87.67 448.34,-78.28 448.34,-69.56"/>
<polygon fill="black" stroke="black" points="451.84,-69.4 448.34,-59.4 444.84,-69.4 451.84,-69.4"/>
</g>
<!-- Node0x563d28880af0 -->
<g id="node5" class="node">
<title>Node0x563d28880af0</title>
<polygon fill="none" stroke="black" points="782.84,-168.5 782.84,-204.5 1103.84,-204.5 1103.84,-168.5 782.84,-168.5"/>
<text text-anchor="middle" x="943.34" y="-182.8" font-family="Times,serif" font-size="14.00">/usr/lib/gcc/x86_64&#45;linux&#45;gnu/9/crtbeginS.o</text>
</g>
<!-- Node0x563d28880af0&#45;&gt;Node0x563d28880550 -->
<g id="edge5" class="edge">
<title>Node0x563d28880af0&#45;&gt;Node0x563d28880550</title>
<path fill="none" stroke="black" d="M904.3,-168.49C881.02,-158.35 851.32,-145.42 826.83,-134.75"/>
<polygon fill="black" stroke="black" points="827.95,-131.42 817.38,-130.64 825.15,-137.84 827.95,-131.42"/>
</g>
<!-- Node0x563d28880598 -->
<g id="node6" class="node">
<title>Node0x563d28880598</title>
<ellipse fill="none" stroke="black" cx="1031.34" cy="-113.5" rx="116.18" ry="18"/>
<text text-anchor="middle" x="1031.34" y="-109.8" font-family="Times,serif" font-size="14.00">Node0x563d28880598</text>
</g>
<!-- Node0x563d28880af0&#45;&gt;Node0x563d28880598 -->
<g id="edge4" class="edge">
<title>Node0x563d28880af0&#45;&gt;Node0x563d28880598</title>
<path fill="none" stroke="black" d="M964.64,-168.31C976.08,-159.09 990.32,-147.59 1002.71,-137.6"/>
<polygon fill="black" stroke="black" points="1004.95,-140.29 1010.54,-131.28 1000.56,-134.84 1004.95,-140.29"/>
</g>
</g>
</svg>
