<?xml version="1.0" encoding="UTF-8" standalone="no"?>
<!DOCTYPE svg PUBLIC "-//W3C//DTD SVG 1.1//EN"
 "http://www.w3.org/Graphics/SVG/1.1/DTD/svg11.dtd">
<!-- Generated by graphviz version 2.43.0 (0)
 -->
<!-- Title: cmTC_87093 Pages: 1 -->
<svg width="1154pt" height="213pt"
 viewBox="0.00 0.00 1154.03 213.00" xmlns="http://www.w3.org/2000/svg" xmlns:xlink="http://www.w3.org/1999/xlink">
<g id="graph0" class="graph" transform="scale(1 1) rotate(0) translate(4 209)">
<title>cmTC_87093</title>
<polygon fill="white" stroke="transparent" points="-4,4 -4,-209 1150.03,-209 1150.03,4 -4,4"/>
<text text-anchor="middle" x="573.01" y="-7.8" font-family="Times,serif" font-size="14.00">cmTC_87093</text>
<!-- Node0x55a194564818 -->
<g id="node1" class="node">
<title>Node0x55a194564818</title>
<polygon fill="none" stroke="black" points="219.34,-168.5 219.34,-204.5 677.34,-204.5 677.34,-168.5 219.34,-168.5"/>
<text text-anchor="middle" x="448.34" y="-182.8" font-family="Times,serif" font-size="14.00">/usr/lib/gcc/x86_64&#45;linux&#45;gnu/9/../../../x86_64&#45;linux&#45;gnu/Scrt1.o</text>
</g>
<!-- Node0x55a194564980 -->
<g id="node2" class="node">
<title>Node0x55a194564980</title>
<ellipse fill="none" stroke="black" cx="116.34" cy="-113.5" rx="116.18" ry="18"/>
<text text-anchor="middle" x="116.34" y="-109.8" font-family="Times,serif" font-size="14.00">Node0x55a194564980</text>
</g>
<!-- Node0x55a194564818&#45;&gt;Node0x55a194564980 -->
<g id="edge1" class="edge">
<title>Node0x55a194564818&#45;&gt;Node0x55a194564980</title>
<path fill="none" stroke="black" d="M368.82,-168.49C315.02,-156.99 244.42,-141.89 191.55,-130.58"/>
<polygon fill="black" stroke="black" points="192.07,-127.12 181.56,-128.45 190.61,-133.96 192.07,-127.12"/>
</g>
<!-- Node0x55a194564788 -->
<g id="node3" class="node">
<title>Node0x55a194564788</title>
<polygon fill="none" stroke="black" points="250.34,-95.5 250.34,-131.5 646.34,-131.5 646.34,-95.5 250.34,-95.5"/>
<text text-anchor="middle" x="448.34" y="-109.8" font-family="Times,serif" font-size="14.00">/usr/lib/x86_64&#45;linux&#45;gnu/libc_nonshared.a(elf&#45;init.oS)</text>
</g>
<!-- Node0x55a194564818&#45;&gt;Node0x55a194564788 -->
<g id="edge2" class="edge">
<title>Node0x55a194564818&#45;&gt;Node0x55a194564788</title>
<path fill="none" stroke="black" d="M448.34,-168.31C448.34,-160.29 448.34,-150.55 448.34,-141.57"/>
<polygon fill="black" stroke="black" points="451.84,-141.53 448.34,-131.53 444.84,-141.53 451.84,-141.53"/>
</g>
<!-- Node0x55a194563bb8 -->
<g id="node4" class="node">
<title>Node0x55a194563bb8</title>
<ellipse fill="none" stroke="black" cx="780.34" cy="-113.5" rx="116.18" ry="18"/>
<text text-anchor="middle" x="780.34" y="-109.8" font-family="Times,serif" font-size="14.00">Node0x55a194563bb8</text>
</g>
<!-- Node0x55a194564818&#45;&gt;Node0x55a194563bb8 -->
<g id="edge3" class="edge">
<title>Node0x55a194564818&#45;&gt;Node0x55a194563bb8</title>
<path fill="none" stroke="black" d="M527.86,-168.49C581.66,-156.99 652.26,-141.89 705.13,-130.58"/>
<polygon fill="black" stroke="black" points="706.07,-133.96 715.12,-128.45 704.61,-127.12 706.07,-133.96"/>
</g>
<!-- Node0x55a1945638e8 -->
<g id="node7" class="node">
<title>Node0x55a1945638e8</title>
<ellipse fill="none" stroke="black" cx="448.34" cy="-41" rx="115.88" ry="18"/>
<text text-anchor="middle" x="448.34" y="-37.3" font-family="Times,serif" font-size="14.00">Node0x55a1945638e8</text>
</g>
<!-- Node0x55a194564788&#45;&gt;Node0x55a1945638e8 -->
<g id="edge6" class="edge">
<title>Node0x55a194564788&#45;&gt;Node0x55a1945638e8</title>
<path fill="none" stroke="black" d="M448.34,-95.43C448.34,-87.67 448.34,-78.28 448.34,-69.56"/>
<polygon fill="black" stroke="black" points="451.84,-69.4 448.34,-59.4 444.84,-69.4 451.84,-69.4"/>
</g>
<!-- Node0x55a194563e40 -->
<g id="node5" class="node">
<title>Node0x55a194563e40</title>
<polygon fill="none" stroke="black" points="782.84,-168.5 782.84,-204.5 1103.84,-204.5 1103.84,-168.5 782.84,-168.5"/>
<text text-anchor="middle" x="943.34" y="-182.8" font-family="Times,serif" font-size="14.00">/usr/lib/gcc/x86_64&#45;linux&#45;gnu/9/crtbeginS.o</text>
</g>
<!-- Node0x55a194563e40&#45;&gt;Node0x55a194563bb8 -->
<g id="edge5" class="edge">
<title>Node0x55a194563e40&#45;&gt;Node0x55a194563bb8</title>
<path fill="none" stroke="black" d="M904.3,-168.49C881.02,-158.35 851.32,-145.42 826.83,-134.75"/>
<polygon fill="black" stroke="black" points="827.95,-131.42 817.38,-130.64 825.15,-137.84 827.95,-131.42"/>
</g>
<!-- Node0x55a1945638a0 -->
<g id="node6" class="node">
<title>Node0x55a1945638a0</title>
<ellipse fill="none" stroke="black" cx="1030.34" cy="-113.5" rx="115.88" ry="18"/>
<text text-anchor="middle" x="1030.34" y="-109.8" font-family="Times,serif" font-size="14.00">Node0x55a1945638a0</text>
</g>
<!-- Node0x55a194563e40&#45;&gt;Node0x55a1945638a0 -->
<g id="edge4" class="edge">
<title>Node0x55a194563e40&#45;&gt;Node0x55a1945638a0</title>
<path fill="none" stroke="black" d="M964.4,-168.31C975.6,-159.18 989.52,-147.81 1001.69,-137.88"/>
<polygon fill="black" stroke="black" points="1004.24,-140.32 1009.77,-131.28 999.81,-134.89 1004.24,-140.32"/>
</g>
</g>
</svg>
