<?xml version="1.0" encoding="UTF-8" standalone="no"?>
<!DOCTYPE svg PUBLIC "-//W3C//DTD SVG 1.1//EN"
 "http://www.w3.org/Graphics/SVG/1.1/DTD/svg11.dtd">
<!-- Generated by graphviz version 2.43.0 (0)
 -->
<!-- Title: bin/llvm&#45;ifs_lib/libLLVMTextAPI.a Pages: 1 -->
<svg width="1459pt" height="298pt"
 viewBox="0.00 0.00 1459.00 298.32" xmlns="http://www.w3.org/2000/svg" xmlns:xlink="http://www.w3.org/1999/xlink">
<g id="graph0" class="graph" transform="scale(1 1) rotate(0) translate(4 294.32)">
<title>bin/llvm&#45;ifs_lib/libLLVMTextAPI.a</title>
<polygon fill="white" stroke="transparent" points="-4,4 -4,-294.32 1455,-294.32 1455,4 -4,4"/>
<text text-anchor="middle" x="725.5" y="-7.8" font-family="Times,serif" font-size="14.00">bin/llvm&#45;ifs_lib/libLLVMTextAPI.a</text>
<!-- Node0x56146ff01a68 -->
<g id="node1" class="node">
<title>Node0x56146ff01a68</title>
<polygon fill="none" stroke="black" points="1451,-147 1125,-147 1125,-111 1451,-111 1451,-147"/>
<text text-anchor="middle" x="1288" y="-125.3" font-family="Times,serif" font-size="14.00">{lib/libLLVMTextAPI.a(Architecture.cpp.o)}</text>
</g>
<!-- Node0x56146ff00988 -->
<g id="node2" class="node">
<title>Node0x56146ff00988</title>
<polygon fill="none" stroke="black" points="685,-243 356,-243 356,-207 685,-207 685,-243"/>
<text text-anchor="middle" x="520.5" y="-221.3" font-family="Times,serif" font-size="14.00">{lib/libLLVMTextAPI.a(InterfaceFile.cpp.o)}</text>
</g>
<!-- Node0x56146fefacb8 -->
<g id="node3" class="node">
<title>Node0x56146fefacb8</title>
<polygon fill="none" stroke="black" points="302,-174 0,-174 0,-138 302,-138 302,-174"/>
<text text-anchor="middle" x="151" y="-152.3" font-family="Times,serif" font-size="14.00">{lib/libLLVMTextAPI.a(TextStub.cpp.o)}</text>
</g>
<!-- Node0x56146fefacb8&#45;&gt;Node0x56146ff01a68 -->
<g id="edge1" class="edge">
<title>Node0x56146fefacb8&#45;&gt;Node0x56146ff01a68</title>
<path fill="none" stroke="black" d="M204.57,-137.9C241.41,-126.2 292.09,-112.06 338,-106 668.9,-62.3 755.78,-86.71 1089,-106 1105.46,-106.95 1122.65,-108.35 1139.74,-109.99"/>
<polygon fill="black" stroke="black" points="1139.48,-113.48 1149.78,-110.98 1140.17,-106.51 1139.48,-113.48"/>
</g>
<!-- Node0x56146fefacb8&#45;&gt;Node0x56146ff00988 -->
<g id="edge2" class="edge">
<title>Node0x56146fefacb8&#45;&gt;Node0x56146ff00988</title>
<path fill="none" stroke="black" d="M240.86,-174.09C271.6,-180.23 306.29,-187.05 338,-193 359.54,-197.04 382.56,-201.21 404.71,-205.15"/>
<polygon fill="black" stroke="black" points="404.36,-208.64 414.81,-206.95 405.58,-201.75 404.36,-208.64"/>
</g>
<!-- Node0x56146ff00cf8 -->
<g id="node4" class="node">
<title>Node0x56146ff00cf8</title>
<polygon fill="none" stroke="black" points="1056,-243 772,-243 772,-207 1056,-207 1056,-243"/>
<text text-anchor="middle" x="914" y="-221.3" font-family="Times,serif" font-size="14.00">{lib/libLLVMTextAPI.a(Target.cpp.o)}</text>
</g>
<!-- Node0x56146fefacb8&#45;&gt;Node0x56146ff00cf8 -->
<g id="edge3" class="edge">
<title>Node0x56146fefacb8&#45;&gt;Node0x56146ff00cf8</title>
<path fill="none" stroke="black" d="M302.15,-165.34C413.04,-172.75 567.6,-184.14 703,-198 725.06,-200.26 748.38,-202.95 771.15,-205.75"/>
<polygon fill="black" stroke="black" points="770.86,-209.24 781.21,-207 771.72,-202.29 770.86,-209.24"/>
</g>
<!-- Node0x56146ff005c8 -->
<g id="node5" class="node">
<title>Node0x56146ff005c8</title>
<polygon fill="none" stroke="black" points="1437.5,-243 1138.5,-243 1138.5,-207 1437.5,-207 1437.5,-243"/>
<text text-anchor="middle" x="1288" y="-221.3" font-family="Times,serif" font-size="14.00">{lib/libLLVMTextAPI.a(Platform.cpp.o)}</text>
</g>
<!-- Node0x56146fefacb8&#45;&gt;Node0x56146ff005c8 -->
<g id="edge4" class="edge">
<title>Node0x56146fefacb8&#45;&gt;Node0x56146ff005c8</title>
<path fill="none" stroke="black" d="M177.22,-174.04C211.61,-197.42 276.03,-236.95 338,-252 640.26,-325.4 1012.58,-275.91 1187.42,-244.83"/>
<polygon fill="black" stroke="black" points="1188.15,-248.25 1197.38,-243.04 1186.92,-241.36 1188.15,-248.25"/>
</g>
<!-- Node0x56146fefa038 -->
<g id="node6" class="node">
<title>Node0x56146fefa038</title>
<polygon fill="none" stroke="black" points="1089,-59 739,-59 739,-23 1089,-23 1089,-59"/>
<text text-anchor="middle" x="914" y="-37.3" font-family="Times,serif" font-size="14.00">{lib/libLLVMTextAPI.a(ArchitectureSet.cpp.o)}</text>
</g>
<!-- Node0x56146fefacb8&#45;&gt;Node0x56146fefa038 -->
<g id="edge5" class="edge">
<title>Node0x56146fefacb8&#45;&gt;Node0x56146fefa038</title>
<path fill="none" stroke="black" d="M183,-137.92C218.94,-117.99 280.61,-86.9 338,-73 466.04,-41.98 614.62,-34.42 728.66,-34.38"/>
<polygon fill="black" stroke="black" points="728.89,-37.88 738.89,-34.4 728.9,-30.88 728.89,-37.88"/>
</g>
<!-- Node0x56146fef9d18 -->
<g id="node7" class="node">
<title>Node0x56146fef9d18</title>
<polygon fill="none" stroke="black" points="703,-151 338,-151 338,-115 703,-115 703,-151"/>
<text text-anchor="middle" x="520.5" y="-129.3" font-family="Times,serif" font-size="14.00">{lib/libLLVMTextAPI.a(TextStubCommon.cpp.o)}</text>
</g>
<!-- Node0x56146fefacb8&#45;&gt;Node0x56146fef9d18 -->
<g id="edge6" class="edge">
<title>Node0x56146fefacb8&#45;&gt;Node0x56146fef9d18</title>
<path fill="none" stroke="black" d="M302.01,-146.61C310.49,-146.08 319.08,-145.54 327.69,-145"/>
<polygon fill="black" stroke="black" points="328.05,-148.49 337.81,-144.37 327.61,-141.5 328.05,-148.49"/>
</g>
<!-- Node0x56146ff00cf8&#45;&gt;Node0x56146ff01a68 -->
<g id="edge7" class="edge">
<title>Node0x56146ff00cf8&#45;&gt;Node0x56146ff01a68</title>
<path fill="none" stroke="black" d="M1025.46,-206.93C1046.66,-202.83 1068.6,-198.15 1089,-193 1136.31,-181.06 1188.81,-163.9 1227.85,-150.36"/>
<polygon fill="black" stroke="black" points="1229.19,-153.6 1237.48,-147 1226.88,-146.99 1229.19,-153.6"/>
</g>
<!-- Node0x56146ff00cf8&#45;&gt;Node0x56146ff005c8 -->
<g id="edge8" class="edge">
<title>Node0x56146ff00cf8&#45;&gt;Node0x56146ff005c8</title>
<path fill="none" stroke="black" d="M1056.17,-218.43C1079.73,-218.24 1104.31,-218.2 1128.27,-218.31"/>
<polygon fill="black" stroke="black" points="1128.48,-221.82 1138.5,-218.37 1128.52,-214.82 1128.48,-221.82"/>
</g>
<!-- Node0x56146ff005c8&#45;&gt;Node0x56146ff00cf8 -->
<g id="edge9" class="edge">
<title>Node0x56146ff005c8&#45;&gt;Node0x56146ff00cf8</title>
<path fill="none" stroke="black" d="M1138.5,-231.63C1114.75,-231.78 1090.14,-231.79 1066.32,-231.64"/>
<polygon fill="black" stroke="black" points="1066.19,-228.14 1056.17,-231.57 1066.14,-235.14 1066.19,-228.14"/>
</g>
<!-- Node0x56146fefa038&#45;&gt;Node0x56146ff01a68 -->
<g id="edge10" class="edge">
<title>Node0x56146fefa038&#45;&gt;Node0x56146ff01a68</title>
<path fill="none" stroke="black" d="M1022.07,-59.06C1044.27,-63.26 1067.46,-67.99 1089,-73 1132.44,-83.11 1180.6,-96.68 1218.54,-107.93"/>
<polygon fill="black" stroke="black" points="1217.88,-111.38 1228.46,-110.88 1219.88,-104.67 1217.88,-111.38"/>
</g>
<!-- Node0x56146fef9d18&#45;&gt;Node0x56146ff01a68 -->
<g id="edge11" class="edge">
<title>Node0x56146fef9d18&#45;&gt;Node0x56146ff01a68</title>
<path fill="none" stroke="black" d="M644.9,-151C675.58,-154.74 708.43,-158.11 739,-160 894.26,-169.6 933.91,-172.07 1089,-160 1119.15,-157.65 1151.66,-153.33 1181.44,-148.63"/>
<polygon fill="black" stroke="black" points="1182.11,-152.07 1191.43,-147.03 1181,-145.16 1182.11,-152.07"/>
</g>
<!-- Node0x56146fef9d18&#45;&gt;Node0x56146ff00cf8 -->
<g id="edge12" class="edge">
<title>Node0x56146fef9d18&#45;&gt;Node0x56146ff00cf8</title>
<path fill="none" stroke="black" d="M663.24,-151C676.95,-154.81 690.42,-159.42 703,-165 721.53,-173.22 720.5,-184.71 739,-193 748.35,-197.19 758.21,-200.83 768.29,-204"/>
<polygon fill="black" stroke="black" points="767.44,-207.39 778.02,-206.89 769.44,-200.68 767.44,-207.39"/>
</g>
<!-- Node0x56146fef8fa8 -->
<g id="node8" class="node">
<title>Node0x56146fef8fa8</title>
<polygon fill="none" stroke="black" points="1084.5,-151 743.5,-151 743.5,-115 1084.5,-115 1084.5,-151"/>
<text text-anchor="middle" x="914" y="-129.3" font-family="Times,serif" font-size="14.00">{lib/libLLVMTextAPI.a(PackedVersion.cpp.o)}</text>
</g>
<!-- Node0x56146fef9d18&#45;&gt;Node0x56146fef8fa8 -->
<g id="edge13" class="edge">
<title>Node0x56146fef9d18&#45;&gt;Node0x56146fef8fa8</title>
<path fill="none" stroke="black" d="M703.21,-133C713.25,-133 723.34,-133 733.38,-133"/>
<polygon fill="black" stroke="black" points="733.39,-136.5 743.39,-133 733.39,-129.5 733.39,-136.5"/>
</g>
</g>
</svg>
