<?xml version="1.0" encoding="UTF-8" standalone="no"?>
<!DOCTYPE svg PUBLIC "-//W3C//DTD SVG 1.1//EN"
 "http://www.w3.org/Graphics/SVG/1.1/DTD/svg11.dtd">
<!-- Generated by graphviz version 2.43.0 (0)
 -->
<!-- Title: bin/FileCheck Pages: 1 -->
<svg width="912pt" height="90pt"
 viewBox="0.00 0.00 912.00 90.00" xmlns="http://www.w3.org/2000/svg" xmlns:xlink="http://www.w3.org/1999/xlink">
<g id="graph0" class="graph" transform="scale(1 1) rotate(0) translate(4 86)">
<title>bin/FileCheck</title>
<polygon fill="white" stroke="transparent" points="-4,4 -4,-86 908,-86 908,4 -4,4"/>
<text text-anchor="middle" x="452" y="-7.8" font-family="Times,serif" font-size="14.00">bin/FileCheck</text>
<!-- Node0x5598fea85bd8 -->
<g id="node1" class="node">
<title>Node0x5598fea85bd8</title>
<polygon fill="none" stroke="black" points="447,-59 0,-59 0,-23 447,-23 447,-59"/>
<text text-anchor="middle" x="223.5" y="-37.3" font-family="Times,serif" font-size="14.00">{utils/FileCheck/CMakeFiles/FileCheck.dir/FileCheck.cpp.o}</text>
</g>
<!-- Node0x5598fea86308 -->
<g id="node2" class="node">
<title>Node0x5598fea86308</title>
<polygon fill="none" stroke="black" points="682,-82 483,-82 483,-46 682,-46 682,-82"/>
<text text-anchor="middle" x="582.5" y="-60.3" font-family="Times,serif" font-size="14.00">{lib/libLLVMFileCheck.a}</text>
</g>
<!-- Node0x5598fea85bd8&#45;&gt;Node0x5598fea86308 -->
<g id="edge1" class="edge">
<title>Node0x5598fea85bd8&#45;&gt;Node0x5598fea86308</title>
<path fill="none" stroke="black" d="M447.04,-55.34C455.79,-55.9 464.38,-56.45 472.73,-56.99"/>
<polygon fill="black" stroke="black" points="472.59,-60.49 482.79,-57.64 473.04,-53.5 472.59,-60.49"/>
</g>
<!-- Node0x5598fea853b8 -->
<g id="node3" class="node">
<title>Node0x5598fea853b8</title>
<polygon fill="none" stroke="black" points="904,-59 718,-59 718,-23 904,-23 904,-59"/>
<text text-anchor="middle" x="811" y="-37.3" font-family="Times,serif" font-size="14.00">{lib/libLLVMSupport.a}</text>
</g>
<!-- Node0x5598fea85bd8&#45;&gt;Node0x5598fea853b8 -->
<g id="edge2" class="edge">
<title>Node0x5598fea85bd8&#45;&gt;Node0x5598fea853b8</title>
<path fill="none" stroke="black" d="M447.02,-36.88C521.71,-36.08 605.46,-35.8 682,-37 690.31,-37.13 698.92,-37.31 707.57,-37.51"/>
<polygon fill="black" stroke="black" points="707.63,-41.02 717.72,-37.77 707.81,-34.02 707.63,-41.02"/>
</g>
<!-- Node0x5598fea86308&#45;&gt;Node0x5598fea853b8 -->
<g id="edge3" class="edge">
<title>Node0x5598fea86308&#45;&gt;Node0x5598fea853b8</title>
<path fill="none" stroke="black" d="M682.19,-53.98C690.58,-53.13 699.08,-52.26 707.5,-51.41"/>
<polygon fill="black" stroke="black" points="708.12,-54.86 717.71,-50.37 707.41,-47.9 708.12,-54.86"/>
</g>
</g>
</svg>
