<?xml version="1.0" encoding="UTF-8" standalone="no"?>
<!DOCTYPE svg PUBLIC "-//W3C//DTD SVG 1.1//EN"
 "http://www.w3.org/Graphics/SVG/1.1/DTD/svg11.dtd">
<!-- Generated by graphviz version 2.43.0 (0)
 -->
<!-- Title: bin/lld_lib/libLLVMOption.a Pages: 1 -->
<svg width="934pt" height="138pt"
 viewBox="0.00 0.00 934.00 137.50" xmlns="http://www.w3.org/2000/svg" xmlns:xlink="http://www.w3.org/1999/xlink">
<g id="graph0" class="graph" transform="scale(1 1) rotate(0) translate(4 133.5)">
<title>bin/lld_lib/libLLVMOption.a</title>
<polygon fill="white" stroke="transparent" points="-4,4 -4,-133.5 930,-133.5 930,4 -4,4"/>
<text text-anchor="middle" x="463" y="-7.8" font-family="Times,serif" font-size="14.00">bin/lld_lib/libLLVMOption.a</text>
<!-- Node0x555e928e5ec8 -->
<g id="node1" class="node">
<title>Node0x555e928e5ec8</title>
<polygon fill="#7fb2ff" stroke="black" points="278,-75.5 0,-75.5 0,-39.5 278,-39.5 278,-75.5"/>
<text text-anchor="middle" x="139" y="-53.8" font-family="Times,serif" font-size="14.00">{lib/libLLVMOption.a(Option.cpp.o)}</text>
</g>
<!-- Node0x555e928e1a08 -->
<g id="node2" class="node">
<title>Node0x555e928e1a08</title>
<polygon fill="#7fb2ff" stroke="black" points="608,-129.5 314,-129.5 314,-93.5 608,-93.5 608,-129.5"/>
<text text-anchor="middle" x="461" y="-107.8" font-family="Times,serif" font-size="14.00">{lib/libLLVMOption.a(OptTable.cpp.o)}</text>
</g>
<!-- Node0x555e928e5ec8&#45;&gt;Node0x555e928e1a08 -->
<g id="edge1" class="edge">
<title>Node0x555e928e5ec8&#45;&gt;Node0x555e928e1a08</title>
<path fill="none" stroke="#7fb2ff" d="M278.03,-74.1C311.77,-79.62 346.84,-85.77 377.08,-91.51"/>
<polygon fill="#7fb2ff" stroke="#7fb2ff" points="376.66,-94.99 387.14,-93.44 377.98,-88.12 376.66,-94.99"/>
</g>
<!-- Node0x555e928ea608 -->
<g id="node3" class="node">
<title>Node0x555e928ea608</title>
<polygon fill="#7fb2ff" stroke="black" points="588.5,-75.5 333.5,-75.5 333.5,-39.5 588.5,-39.5 588.5,-75.5"/>
<text text-anchor="middle" x="461" y="-53.8" font-family="Times,serif" font-size="14.00">{lib/libLLVMOption.a(Arg.cpp.o)}</text>
</g>
<!-- Node0x555e928e5ec8&#45;&gt;Node0x555e928ea608 -->
<g id="edge2" class="edge">
<title>Node0x555e928e5ec8&#45;&gt;Node0x555e928ea608</title>
<path fill="none" stroke="#7fb2ff" d="M278.03,-50.81C292.94,-50.73 308.11,-50.73 323.01,-50.81"/>
<polygon fill="#7fb2ff" stroke="#7fb2ff" points="323.26,-54.31 333.28,-50.88 323.3,-47.32 323.26,-54.31"/>
</g>
<!-- Node0x555e928e1a08&#45;&gt;Node0x555e928e5ec8 -->
<g id="edge3" class="edge">
<title>Node0x555e928e1a08&#45;&gt;Node0x555e928e5ec8</title>
<path fill="none" stroke="#7fb2ff" d="M313.77,-93.55C282.5,-88.38 250.53,-82.74 222.68,-77.45"/>
<polygon fill="#7fb2ff" stroke="#7fb2ff" points="223.09,-73.96 212.61,-75.52 221.77,-80.84 223.09,-73.96"/>
</g>
<!-- Node0x555e928e1a08&#45;&gt;Node0x555e928ea608 -->
<g id="edge4" class="edge">
<title>Node0x555e928e1a08&#45;&gt;Node0x555e928ea608</title>
<path fill="none" stroke="#7fb2ff" d="M461,-93.29C461,-90.81 461,-88.33 461,-85.85"/>
<polygon fill="#7fb2ff" stroke="#7fb2ff" points="464.5,-85.64 461,-75.64 457.5,-85.64 464.5,-85.64"/>
</g>
<!-- Node0x555e928ea338 -->
<g id="node4" class="node">
<title>Node0x555e928ea338</title>
<polygon fill="#7fb2ff" stroke="black" points="926,-75.5 644,-75.5 644,-39.5 926,-39.5 926,-75.5"/>
<text text-anchor="middle" x="785" y="-53.8" font-family="Times,serif" font-size="14.00">{lib/libLLVMOption.a(ArgList.cpp.o)}</text>
</g>
<!-- Node0x555e928e1a08&#45;&gt;Node0x555e928ea338 -->
<g id="edge5" class="edge">
<title>Node0x555e928e1a08&#45;&gt;Node0x555e928ea338</title>
<path fill="none" stroke="#7fb2ff" d="M535.07,-93.49C564.45,-87.82 599.48,-81.62 633.84,-75.95"/>
<polygon fill="#7fb2ff" stroke="#7fb2ff" points="634.69,-79.35 643.99,-74.28 633.55,-72.45 634.69,-79.35"/>
</g>
<!-- Node0x555e928ea608&#45;&gt;Node0x555e928e5ec8 -->
<g id="edge9" class="edge">
<title>Node0x555e928ea608&#45;&gt;Node0x555e928e5ec8</title>
<path fill="none" stroke="#7fb2ff" d="M333.28,-64.12C318.53,-64.24 303.39,-64.28 288.39,-64.23"/>
<polygon fill="#7fb2ff" stroke="#7fb2ff" points="288.04,-60.73 278.03,-64.19 288.02,-67.73 288.04,-60.73"/>
</g>
<!-- Node0x555e928ea608&#45;&gt;Node0x555e928ea338 -->
<g id="edge10" class="edge">
<title>Node0x555e928ea608&#45;&gt;Node0x555e928ea338</title>
<path fill="none" stroke="#7fb2ff" d="M588.8,-50.89C603.46,-50.77 618.51,-50.73 633.44,-50.76"/>
<polygon fill="#7fb2ff" stroke="#7fb2ff" points="633.74,-54.26 643.76,-50.8 633.77,-47.26 633.74,-54.26"/>
</g>
<!-- Node0x555e928ea338&#45;&gt;Node0x555e928e5ec8 -->
<g id="edge6" class="edge">
<title>Node0x555e928ea338&#45;&gt;Node0x555e928e5ec8</title>
<path fill="none" stroke="#7fb2ff" d="M684.25,-39.5C659.42,-35.76 632.81,-32.39 608,-30.5 477.71,-20.57 444.28,-20.45 314,-30.5 292.82,-32.13 270.31,-34.87 248.77,-37.99"/>
<polygon fill="#7fb2ff" stroke="#7fb2ff" points="247.99,-34.57 238.61,-39.5 249.02,-41.49 247.99,-34.57"/>
</g>
<!-- Node0x555e928ea338&#45;&gt;Node0x555e928e1a08 -->
<g id="edge7" class="edge">
<title>Node0x555e928ea338&#45;&gt;Node0x555e928e1a08</title>
<path fill="none" stroke="#7fb2ff" d="M710.92,-75.52C683.31,-80.84 650.74,-86.63 618.41,-92.02"/>
<polygon fill="#7fb2ff" stroke="#7fb2ff" points="617.69,-88.59 608.4,-93.68 618.83,-95.5 617.69,-88.59"/>
</g>
<!-- Node0x555e928ea338&#45;&gt;Node0x555e928ea608 -->
<g id="edge8" class="edge">
<title>Node0x555e928ea338&#45;&gt;Node0x555e928ea608</title>
<path fill="none" stroke="#7fb2ff" d="M643.76,-64.2C628.91,-64.27 613.82,-64.27 599,-64.18"/>
<polygon fill="#7fb2ff" stroke="#7fb2ff" points="598.82,-60.68 588.8,-64.11 598.78,-67.68 598.82,-60.68"/>
</g>
</g>
</svg>
