<?xml version="1.0" encoding="UTF-8" standalone="no"?>
<!DOCTYPE svg PUBLIC "-//W3C//DTD SVG 1.1//EN"
 "http://www.w3.org/Graphics/SVG/1.1/DTD/svg11.dtd">
<!-- Generated by graphviz version 2.43.0 (0)
 -->
<!-- Title: unittest/unittest_src/libccache_lib.a Pages: 1 -->
<svg width="3417pt" height="2659pt"
 viewBox="0.00 0.00 3417.00 2659.48" xmlns="http://www.w3.org/2000/svg" xmlns:xlink="http://www.w3.org/1999/xlink">
<g id="graph0" class="graph" transform="scale(1 1) rotate(0) translate(4 2655.48)">
<title>unittest/unittest_src/libccache_lib.a</title>
<polygon fill="white" stroke="transparent" points="-4,4 -4,-2655.48 3413,-2655.48 3413,4 -4,4"/>
<text text-anchor="middle" x="1704.5" y="-7.8" font-family="Times,serif" font-size="14.00">unittest/unittest_src/libccache_lib.a</text>
<!-- Node0x556b8dee5848 -->
<g id="node1" class="node">
<title>Node0x556b8dee5848</title>
<polygon fill="#7fb2ff" stroke="black" points="2724,-1691.02 2479,-1691.02 2479,-1655.02 2724,-1655.02 2724,-1691.02"/>
<text text-anchor="middle" x="2601.5" y="-1669.32" font-family="Times,serif" font-size="14.00">{src/libccache_lib.a(Util.cpp.o)}</text>
</g>
<!-- Node0x556b8dee6388 -->
<g id="node2" class="node">
<title>Node0x556b8dee6388</title>
<polygon fill="#7fb2ff" stroke="black" points="3401,-1801.02 3126,-1801.02 3126,-1765.02 3401,-1765.02 3401,-1801.02"/>
<text text-anchor="middle" x="3263.5" y="-1779.32" font-family="Times,serif" font-size="14.00">{src/libccache_lib.a(Logging.cpp.o)}</text>
</g>
<!-- Node0x556b8dee5848&#45;&gt;Node0x556b8dee6388 -->
<g id="edge1" class="edge">
<title>Node0x556b8dee5848&#45;&gt;Node0x556b8dee6388</title>
<path fill="none" stroke="#7fb2ff" d="M2640.08,-1691.14C2670.85,-1708.77 2716.3,-1734.03 2760,-1746.02 2876.71,-1778.05 3014.23,-1783.62 3115.88,-1783.41"/>
<polygon fill="#7fb2ff" stroke="#7fb2ff" points="3115.92,-1786.91 3125.91,-1783.37 3115.9,-1779.91 3115.92,-1786.91"/>
</g>
<!-- Node0x556b8dee74b8 -->
<g id="node3" class="node">
<title>Node0x556b8dee74b8</title>
<polygon fill="#7fb2ff" stroke="black" points="3045,-1746.02 2797,-1746.02 2797,-1710.02 3045,-1710.02 3045,-1746.02"/>
<text text-anchor="middle" x="2921" y="-1724.32" font-family="Times,serif" font-size="14.00">{src/libccache_lib.a(Stat.cpp.o)}</text>
</g>
<!-- Node0x556b8dee5848&#45;&gt;Node0x556b8dee74b8 -->
<g id="edge2" class="edge">
<title>Node0x556b8dee5848&#45;&gt;Node0x556b8dee74b8</title>
<path fill="none" stroke="#7fb2ff" d="M2706.46,-1691.03C2738.34,-1696.56 2773.58,-1702.66 2806.08,-1708.29"/>
<polygon fill="#7fb2ff" stroke="#7fb2ff" points="2805.63,-1711.76 2816.08,-1710.02 2806.82,-1704.87 2805.63,-1711.76"/>
</g>
<!-- Node0x556b8dee6608 -->
<g id="node4" class="node">
<title>Node0x556b8dee6608</title>
<polygon fill="#7fb2ff" stroke="black" points="3082,-1636.02 2760,-1636.02 2760,-1600.02 3082,-1600.02 3082,-1636.02"/>
<text text-anchor="middle" x="2921" y="-1614.32" font-family="Times,serif" font-size="14.00">{src/libccache_lib.a(TemporaryFile.cpp.o)}</text>
</g>
<!-- Node0x556b8dee5848&#45;&gt;Node0x556b8dee6608 -->
<g id="edge3" class="edge">
<title>Node0x556b8dee5848&#45;&gt;Node0x556b8dee6608</title>
<path fill="none" stroke="#7fb2ff" d="M2673.36,-1655.02C2701.18,-1649.48 2734.27,-1643.41 2767.03,-1637.78"/>
<polygon fill="#7fb2ff" stroke="#7fb2ff" points="2767.91,-1641.18 2777.18,-1636.05 2766.73,-1634.28 2767.91,-1641.18"/>
</g>
<!-- Node0x556b8dee6928 -->
<g id="node5" class="node">
<title>Node0x556b8dee6928</title>
<polygon fill="#7fb2ff" stroke="black" points="3409,-1691.02 3118,-1691.02 3118,-1655.02 3409,-1655.02 3409,-1691.02"/>
<text text-anchor="middle" x="3263.5" y="-1669.32" font-family="Times,serif" font-size="14.00">{src/libccache_lib.a(assertions.cpp.o)}</text>
</g>
<!-- Node0x556b8dee5848&#45;&gt;Node0x556b8dee6928 -->
<g id="edge4" class="edge">
<title>Node0x556b8dee5848&#45;&gt;Node0x556b8dee6928</title>
<path fill="none" stroke="#7fb2ff" d="M2724.32,-1667.65C2832.36,-1665.98 2990.7,-1665.83 3107.68,-1667.2"/>
<polygon fill="#7fb2ff" stroke="#7fb2ff" points="3107.76,-1670.7 3117.8,-1667.33 3107.85,-1663.71 3107.76,-1670.7"/>
</g>
<!-- Node0x556b8dee6388&#45;&gt;Node0x556b8dee5848 -->
<g id="edge111" class="edge">
<title>Node0x556b8dee6388&#45;&gt;Node0x556b8dee5848</title>
<path fill="none" stroke="#7fb2ff" d="M3125.91,-1798.22C3023.41,-1801.96 2880.6,-1797.12 2760,-1764.02 2710.48,-1750.44 2658.73,-1719.82 2628.61,-1697.6"/>
<polygon fill="#7fb2ff" stroke="#7fb2ff" points="2630.42,-1694.58 2620.35,-1691.3 2626.17,-1700.15 2630.42,-1694.58"/>
</g>
<!-- Node0x556b8dee74b8&#45;&gt;Node0x556b8dee6388 -->
<g id="edge27" class="edge">
<title>Node0x556b8dee74b8&#45;&gt;Node0x556b8dee6388</title>
<path fill="none" stroke="#7fb2ff" d="M3033.49,-1746.03C3067.83,-1751.58 3105.8,-1757.71 3140.78,-1763.36"/>
<polygon fill="#7fb2ff" stroke="#7fb2ff" points="3140.62,-1766.88 3151.05,-1765.02 3141.73,-1759.97 3140.62,-1766.88"/>
</g>
<!-- Node0x556b8dee6608&#45;&gt;Node0x556b8dee5848 -->
<g id="edge89" class="edge">
<title>Node0x556b8dee6608&#45;&gt;Node0x556b8dee5848</title>
<path fill="none" stroke="#7fb2ff" d="M2849.01,-1636.06C2815.18,-1642.79 2773.59,-1650.31 2734.28,-1656.86"/>
<polygon fill="#7fb2ff" stroke="#7fb2ff" points="2733.64,-1653.42 2724.35,-1658.5 2734.78,-1660.32 2733.64,-1653.42"/>
</g>
<!-- Node0x556b8dee6608&#45;&gt;Node0x556b8dee6928 -->
<g id="edge90" class="edge">
<title>Node0x556b8dee6608&#45;&gt;Node0x556b8dee6928</title>
<path fill="none" stroke="#7fb2ff" d="M3033.49,-1636.03C3067.83,-1641.58 3105.8,-1647.71 3140.78,-1653.36"/>
<polygon fill="#7fb2ff" stroke="#7fb2ff" points="3140.62,-1656.88 3151.05,-1655.02 3141.73,-1649.97 3140.62,-1656.88"/>
</g>
<!-- Node0x556b8dee6928&#45;&gt;Node0x556b8dee5848 -->
<g id="edge91" class="edge">
<title>Node0x556b8dee6928&#45;&gt;Node0x556b8dee5848</title>
<path fill="none" stroke="#7fb2ff" d="M3117.8,-1678.72C3003.54,-1680.18 2845.42,-1680.12 2734.56,-1678.55"/>
<polygon fill="#7fb2ff" stroke="#7fb2ff" points="2734.37,-1675.05 2724.32,-1678.4 2734.27,-1682.05 2734.37,-1675.05"/>
</g>
<!-- Node0x556b8dee61f8 -->
<g id="node6" class="node">
<title>Node0x556b8dee61f8</title>
<polygon fill="none" stroke="black" points="2022,-2223.02 1771,-2223.02 1771,-2187.02 2022,-2187.02 2022,-2223.02"/>
<text text-anchor="middle" x="1896.5" y="-2201.32" font-family="Times,serif" font-size="14.00">{src/libccache_lib.a(Args.cpp.o)}</text>
</g>
<!-- Node0x556b8dee61f8&#45;&gt;Node0x556b8dee5848 -->
<g id="edge5" class="edge">
<title>Node0x556b8dee61f8&#45;&gt;Node0x556b8dee5848</title>
<path fill="none" stroke="black" d="M2022.07,-2217.68C2034.44,-2222.69 2046.07,-2229.31 2056,-2238.02 2092.46,-2270 2052.46,-2312.96 2092,-2341.02 2155.61,-2386.17 2381.84,-2389.44 2443,-2341.02 2546.51,-2259.08 2588.84,-1818.46 2598.34,-1701.53"/>
<polygon fill="black" stroke="black" points="2601.85,-1701.49 2599.16,-1691.24 2594.88,-1700.94 2601.85,-1701.49"/>
</g>
<!-- Node0x556b8dee5578 -->
<g id="node7" class="node">
<title>Node0x556b8dee5578</title>
<polygon fill="none" stroke="black" points="1672.5,-1127.02 1378.5,-1127.02 1378.5,-1091.02 1672.5,-1091.02 1672.5,-1127.02"/>
<text text-anchor="middle" x="1525.5" y="-1105.32" font-family="Times,serif" font-size="14.00">{src/libccache_lib.a(AtomicFile.cpp.o)}</text>
</g>
<!-- Node0x556b8dee5578&#45;&gt;Node0x556b8dee5848 -->
<g id="edge7" class="edge">
<title>Node0x556b8dee5578&#45;&gt;Node0x556b8dee5848</title>
<path fill="none" stroke="black" d="M1672.7,-1103.34C1901.43,-1097.57 2329.51,-1100.29 2443,-1195.02 2584.37,-1313.03 2599.72,-1560.72 2600.73,-1644.58"/>
<polygon fill="black" stroke="black" points="2597.23,-1644.65 2600.79,-1654.63 2604.23,-1644.61 2597.23,-1644.65"/>
</g>
<!-- Node0x556b8dee5578&#45;&gt;Node0x556b8dee6608 -->
<g id="edge6" class="edge">
<title>Node0x556b8dee5578&#45;&gt;Node0x556b8dee6608</title>
<path fill="none" stroke="black" d="M1672.74,-1106.68C1954.27,-1104.95 2558.39,-1115.51 2724,-1233.02 2849.93,-1322.39 2900.07,-1517.01 2914.88,-1589.8"/>
<polygon fill="black" stroke="black" points="2911.45,-1590.49 2916.82,-1599.63 2918.32,-1589.14 2911.45,-1590.49"/>
</g>
<!-- Node0x556b8dee5578&#45;&gt;Node0x556b8dee6928 -->
<g id="edge8" class="edge">
<title>Node0x556b8dee5578&#45;&gt;Node0x556b8dee6928</title>
<path fill="none" stroke="black" d="M1672.54,-1100.41C1694.15,-1099.42 1716.15,-1098.57 1737,-1098.02 1878.73,-1094.32 1914.24,-1096.01 2056,-1098.02 2518.39,-1104.59 2739.29,-960.54 3082,-1271.02 3198.49,-1376.56 3244.26,-1571.62 3257.79,-1644.54"/>
<polygon fill="black" stroke="black" points="3254.42,-1645.55 3259.63,-1654.77 3261.31,-1644.31 3254.42,-1645.55"/>
</g>
<!-- Node0x556b8dee76e8 -->
<g id="node8" class="node">
<title>Node0x556b8dee76e8</title>
<polygon fill="none" stroke="black" points="2052,-791.02 1741,-791.02 1741,-755.02 2052,-755.02 2052,-791.02"/>
<text text-anchor="middle" x="1896.5" y="-769.32" font-family="Times,serif" font-size="14.00">{src/libccache_lib.a(Compression.cpp.o)}</text>
</g>
<!-- Node0x556b8dee76e8&#45;&gt;Node0x556b8dee6928 -->
<g id="edge9" class="edge">
<title>Node0x556b8dee76e8&#45;&gt;Node0x556b8dee6928</title>
<path fill="none" stroke="black" d="M1921.98,-754.94C1957.36,-730.06 2025.81,-686.47 2092,-670.02 2305.98,-616.86 2919.43,-587.07 3082,-736.02 3220.69,-863.09 3255.36,-1502.01 3261.42,-1644.73"/>
<polygon fill="black" stroke="black" points="3257.93,-1645 3261.84,-1654.85 3264.92,-1644.72 3257.93,-1645"/>
</g>
<!-- Node0x556b8dee5ca8 -->
<g id="node9" class="node">
<title>Node0x556b8dee5ca8</title>
<polygon fill="none" stroke="black" points="1305,-1279.02 1042,-1279.02 1042,-1243.02 1305,-1243.02 1305,-1279.02"/>
<text text-anchor="middle" x="1173.5" y="-1257.32" font-family="Times,serif" font-size="14.00">{src/libccache_lib.a(Config.cpp.o)}</text>
</g>
<!-- Node0x556b8dee5ca8&#45;&gt;Node0x556b8dee5848 -->
<g id="edge12" class="edge">
<title>Node0x556b8dee5ca8&#45;&gt;Node0x556b8dee5848</title>
<path fill="none" stroke="black" d="M1207.77,-1279.1C1239.25,-1297.79 1285.78,-1329.71 1314,-1369.02 1342.52,-1408.76 1312.17,-1442.01 1350,-1473.02 1410.88,-1522.94 1623.08,-1509.77 1701,-1521.02 1858.95,-1543.84 1925.3,-1483.44 2056,-1575.02 2083.36,-1594.2 2063.82,-1623.07 2092,-1641.02 2217.16,-1720.75 2396.66,-1709.72 2505.52,-1692.65"/>
<polygon fill="black" stroke="black" points="2506.19,-1696.09 2515.51,-1691.04 2505.08,-1689.18 2506.19,-1696.09"/>
</g>
<!-- Node0x556b8dee5ca8&#45;&gt;Node0x556b8dee74b8 -->
<g id="edge11" class="edge">
<title>Node0x556b8dee5ca8&#45;&gt;Node0x556b8dee74b8</title>
<path fill="none" stroke="black" d="M1204.66,-1279.1C1235.09,-1298.45 1282.02,-1331.49 1314,-1369.02 1335.67,-1394.46 1322.23,-1416.44 1350,-1435.02 1415.21,-1478.65 1623.09,-1463.76 1701,-1473.02 1858.98,-1491.81 1929.09,-1423.07 2056,-1519.02 2088.4,-1543.52 2058.87,-1579.53 2092,-1603.02 2149.41,-1643.74 2655.5,-1629.84 2724,-1646.02 2778.93,-1659.01 2838.23,-1685.77 2877.04,-1705.2"/>
<polygon fill="black" stroke="black" points="2875.95,-1708.57 2886.45,-1709.97 2879.12,-1702.33 2875.95,-1708.57"/>
</g>
<!-- Node0x556b8dee5ca8&#45;&gt;Node0x556b8dee6928 -->
<g id="edge13" class="edge">
<title>Node0x556b8dee5ca8&#45;&gt;Node0x556b8dee6928</title>
<path fill="none" stroke="black" d="M1223.69,-1279.08C1258.68,-1291.62 1306.92,-1308.29 1350,-1321.02 1520.04,-1371.31 1562.97,-1384.04 1737,-1418.02 1877.53,-1445.47 1924.64,-1406.07 2056,-1463.02 2074.85,-1471.2 2072.86,-1484.55 2092,-1492.02 2502.76,-1652.45 2662.98,-1420.6 3082,-1558.02 3141.07,-1577.4 3200.03,-1620.57 3233.79,-1648.16"/>
<polygon fill="black" stroke="black" points="3231.89,-1651.13 3241.82,-1654.82 3236.35,-1645.74 3231.89,-1651.13"/>
</g>
<!-- Node0x556b8dee5ca8&#45;&gt;Node0x556b8dee5578 -->
<g id="edge10" class="edge">
<title>Node0x556b8dee5ca8&#45;&gt;Node0x556b8dee5578</title>
<path fill="none" stroke="black" d="M1216.02,-1242.99C1280.36,-1215.05 1403.95,-1161.38 1473.58,-1131.14"/>
<polygon fill="black" stroke="black" points="1475.25,-1134.23 1483.03,-1127.03 1472.46,-1127.81 1475.25,-1134.23"/>
</g>
<!-- Node0x556b8dee5cf8 -->
<g id="node10" class="node">
<title>Node0x556b8dee5cf8</title>
<polygon fill="none" stroke="black" points="1667,-623.02 1384,-623.02 1384,-587.02 1667,-587.02 1667,-623.02"/>
<text text-anchor="middle" x="1525.5" y="-601.32" font-family="Times,serif" font-size="14.00">{src/libccache_lib.a(Counters.cpp.o)}</text>
</g>
<!-- Node0x556b8dee5cf8&#45;&gt;Node0x556b8dee6928 -->
<g id="edge14" class="edge">
<title>Node0x556b8dee5cf8&#45;&gt;Node0x556b8dee6928</title>
<path fill="none" stroke="black" d="M1667.26,-595.92C1816.08,-587.09 2057.72,-575.02 2266.5,-575.02 2266.5,-575.02 2266.5,-575.02 2602.5,-575.02 2817.16,-575.02 2926.35,-485.19 3082,-633.02 3233.83,-777.23 3258.42,-1492.76 3261.96,-1644.65"/>
<polygon fill="black" stroke="black" points="3258.46,-1645.06 3262.18,-1654.98 3265.46,-1644.91 3258.46,-1645.06"/>
</g>
<!-- Node0x556b8dee6478 -->
<g id="node11" class="node">
<title>Node0x556b8dee6478</title>
<polygon fill="none" stroke="black" points="603.5,-509.02 329.5,-509.02 329.5,-473.02 603.5,-473.02 603.5,-509.02"/>
<text text-anchor="middle" x="466.5" y="-487.32" font-family="Times,serif" font-size="14.00">{src/libccache_lib.a(Context.cpp.o)}</text>
</g>
<!-- Node0x556b8dee6478&#45;&gt;Node0x556b8dee5848 -->
<g id="edge18" class="edge">
<title>Node0x556b8dee6478&#45;&gt;Node0x556b8dee5848</title>
<path fill="none" stroke="black" d="M603.74,-490C811.33,-486.31 1195.24,-470.52 1314,-405.02 1336.73,-392.49 1326.66,-370.4 1350,-359.02 1490.24,-290.7 1545.67,-344.6 1701,-359.02 2035.08,-390.05 2212,-254.7 2443,-498.02 2524.94,-584.33 2587.38,-1473.8 2598.67,-1644.71"/>
<polygon fill="black" stroke="black" points="2595.18,-1644.95 2599.33,-1654.7 2602.16,-1644.49 2595.18,-1644.95"/>
</g>
<!-- Node0x556b8dee6478&#45;&gt;Node0x556b8dee6388 -->
<g id="edge16" class="edge">
<title>Node0x556b8dee6478&#45;&gt;Node0x556b8dee6388</title>
<path fill="none" stroke="black" d="M603.71,-497.37C710.76,-501.01 863.56,-503.24 997,-494.02 1565.83,-454.74 1696.32,-309.02 2266.5,-309.02 2266.5,-309.02 2266.5,-309.02 2602.5,-309.02 2834.8,-309.02 2951.61,-324.77 3082,-517.02 3155.81,-625.86 3050.4,-1587.23 3118,-1700.02 3134.98,-1728.35 3165.54,-1747.92 3194.2,-1760.91"/>
<polygon fill="black" stroke="black" points="3192.86,-1764.14 3203.42,-1764.89 3195.63,-1757.71 3192.86,-1764.14"/>
</g>
<!-- Node0x556b8dee6478&#45;&gt;Node0x556b8dee5cf8 -->
<g id="edge15" class="edge">
<title>Node0x556b8dee6478&#45;&gt;Node0x556b8dee5cf8</title>
<path fill="none" stroke="black" d="M603.52,-505.69C801.56,-527.05 1168.05,-566.58 1373.97,-588.79"/>
<polygon fill="black" stroke="black" points="1373.64,-592.27 1383.96,-589.87 1374.39,-585.31 1373.64,-592.27"/>
</g>
<!-- Node0x556b8dee7738 -->
<g id="node12" class="node">
<title>Node0x556b8dee7738</title>
<polygon fill="none" stroke="black" points="991.5,-417.02 672.5,-417.02 672.5,-381.02 991.5,-381.02 991.5,-417.02"/>
<text text-anchor="middle" x="832" y="-395.32" font-family="Times,serif" font-size="14.00">{src/libccache_lib.a(SignalHandler.cpp.o)}</text>
</g>
<!-- Node0x556b8dee6478&#45;&gt;Node0x556b8dee7738 -->
<g id="edge17" class="edge">
<title>Node0x556b8dee6478&#45;&gt;Node0x556b8dee7738</title>
<path fill="none" stroke="black" d="M555.12,-473.02C580.37,-467.89 607.44,-460.75 631,-450.02 649.45,-441.63 648.55,-430.42 667,-422.02 667.72,-421.7 668.44,-421.38 669.16,-421.06"/>
<polygon fill="black" stroke="black" points="670.85,-424.15 678.74,-417.08 668.16,-417.68 670.85,-424.15"/>
</g>
<!-- Node0x556b8dee6888 -->
<g id="node13" class="node">
<title>Node0x556b8dee6888</title>
<polygon fill="none" stroke="black" points="2047,-1409.02 1746,-1409.02 1746,-1373.02 2047,-1373.02 2047,-1409.02"/>
<text text-anchor="middle" x="1896.5" y="-1387.32" font-family="Times,serif" font-size="14.00">{src/libccache_lib.a(InodeCache.cpp.o)}</text>
</g>
<!-- Node0x556b8dee6478&#45;&gt;Node0x556b8dee6888 -->
<g id="edge19" class="edge">
<title>Node0x556b8dee6478&#45;&gt;Node0x556b8dee6888</title>
<path fill="none" stroke="black" d="M535.3,-509.08C573.66,-518.51 622.68,-529.26 667,-535.02 724.01,-542.44 1659.4,-538.33 1701,-578.02 1766.53,-640.55 1716.36,-895.83 1737,-984.02 1771.84,-1132.91 1850.14,-1299.77 1881.81,-1363.91"/>
<polygon fill="black" stroke="black" points="1878.72,-1365.56 1886.31,-1372.96 1884.99,-1362.45 1878.72,-1365.56"/>
</g>
<!-- Node0x556b8dee7738&#45;&gt;Node0x556b8dee6928 -->
<g id="edge113" class="edge">
<title>Node0x556b8dee7738&#45;&gt;Node0x556b8dee6928</title>
<path fill="none" stroke="black" d="M955.38,-417.04C1057.2,-426.13 1202.91,-425.04 1314,-367.02 1336.7,-355.17 1327.48,-334.22 1350,-322.02 1529.92,-224.56 2061.88,-233.02 2266.5,-233.02 2266.5,-233.02 2266.5,-233.02 2602.5,-233.02 2817.39,-233.02 2929.93,-143.2 3082,-295.02 3181.51,-394.37 3249.46,-1455.35 3260.82,-1644.32"/>
<polygon fill="black" stroke="black" points="3257.34,-1644.78 3261.43,-1654.56 3264.32,-1644.37 3257.34,-1644.78"/>
</g>
<!-- Node0x556b8dee7738&#45;&gt;Node0x556b8dee6478 -->
<g id="edge112" class="edge">
<title>Node0x556b8dee7738&#45;&gt;Node0x556b8dee6478</title>
<path fill="none" stroke="black" d="M742.69,-417.09C717.48,-422.21 690.5,-429.34 667,-440.02 648.55,-448.42 649.45,-459.63 631,-468.02 625.3,-470.62 619.39,-473 613.36,-475.19"/>
<polygon fill="black" stroke="black" points="612.11,-471.92 603.77,-478.47 614.37,-478.54 612.11,-471.92"/>
</g>
<!-- Node0x556b8dee6888&#45;&gt;Node0x556b8dee5848 -->
<g id="edge87" class="edge">
<title>Node0x556b8dee6888&#45;&gt;Node0x556b8dee5848</title>
<path fill="none" stroke="black" d="M1925.07,-1409.05C1956.98,-1430.08 2010.92,-1466.18 2056,-1499.02 2072.38,-1510.96 2073.93,-1517.84 2092,-1527.02 2219.11,-1591.64 2379.05,-1631.58 2485.26,-1653.01"/>
<polygon fill="black" stroke="black" points="2484.88,-1656.5 2495.37,-1655.02 2486.25,-1649.63 2484.88,-1656.5"/>
</g>
<!-- Node0x556b8dee6888&#45;&gt;Node0x556b8dee6388 -->
<g id="edge84" class="edge">
<title>Node0x556b8dee6888&#45;&gt;Node0x556b8dee6388</title>
<path fill="none" stroke="black" d="M1987.7,-1373.02C2206.69,-1335 2771.3,-1271.92 3082,-1558.02 3129.89,-1602.13 3078.66,-1648.15 3118,-1700.02 3138.82,-1727.48 3171.55,-1747.36 3200.6,-1760.76"/>
<polygon fill="black" stroke="black" points="3199.32,-1764.02 3209.88,-1764.89 3202.16,-1757.63 3199.32,-1764.02"/>
</g>
<!-- Node0x556b8dee6888&#45;&gt;Node0x556b8dee74b8 -->
<g id="edge85" class="edge">
<title>Node0x556b8dee6888&#45;&gt;Node0x556b8dee74b8</title>
<path fill="none" stroke="black" d="M2047.01,-1387.5C2225.98,-1390.88 2526.25,-1421.63 2724,-1575.02 2751.64,-1596.47 2735.31,-1620.24 2760,-1645.02 2787.14,-1672.26 2825.09,-1692.47 2857.21,-1706.13"/>
<polygon fill="black" stroke="black" points="2855.96,-1709.4 2866.54,-1709.98 2858.63,-1702.93 2855.96,-1709.4"/>
</g>
<!-- Node0x556b8dee6888&#45;&gt;Node0x556b8dee6608 -->
<g id="edge86" class="edge">
<title>Node0x556b8dee6888&#45;&gt;Node0x556b8dee6608</title>
<path fill="none" stroke="black" d="M2017.54,-1409.06C2030.8,-1412.87 2043.88,-1417.46 2056,-1423.02 2074.42,-1431.48 2073.55,-1442.62 2092,-1451.02 2124.56,-1465.86 2688.97,-1567.75 2724,-1575.02 2758.47,-1582.19 2796.26,-1590.39 2829.39,-1597.7"/>
<polygon fill="black" stroke="black" points="2828.99,-1601.2 2839.51,-1599.94 2830.5,-1594.37 2828.99,-1601.2"/>
</g>
<!-- Node0x556b8dee6888&#45;&gt;Node0x556b8dee6928 -->
<g id="edge88" class="edge">
<title>Node0x556b8dee6888&#45;&gt;Node0x556b8dee6928</title>
<path fill="none" stroke="black" d="M2017.54,-1409.06C2030.8,-1412.87 2043.88,-1417.46 2056,-1423.02 2074.42,-1431.48 2073.07,-1443.78 2092,-1451.02 2503.96,-1608.59 2673.44,-1353.82 3082,-1520.02 3149.81,-1547.61 3210.68,-1610.94 3241.42,-1646.87"/>
<polygon fill="black" stroke="black" points="3239.1,-1649.55 3248.21,-1654.95 3244.45,-1645.05 3239.1,-1649.55"/>
</g>
<!-- Node0x556b8dee7288 -->
<g id="node15" class="node">
<title>Node0x556b8dee7288</title>
<polygon fill="none" stroke="black" points="2394.5,-1767.02 2140.5,-1767.02 2140.5,-1731.02 2394.5,-1731.02 2394.5,-1767.02"/>
<text text-anchor="middle" x="2267.5" y="-1745.32" font-family="Times,serif" font-size="14.00">{src/libccache_lib.a(Hash.cpp.o)}</text>
</g>
<!-- Node0x556b8dee6888&#45;&gt;Node0x556b8dee7288 -->
<g id="edge83" class="edge">
<title>Node0x556b8dee6888&#45;&gt;Node0x556b8dee7288</title>
<path fill="none" stroke="black" d="M1916.31,-1409.27C1977.38,-1468.52 2170.26,-1655.65 2240.55,-1723.85"/>
<polygon fill="black" stroke="black" points="2238.12,-1726.36 2247.73,-1730.82 2242.99,-1721.34 2238.12,-1726.36"/>
</g>
<!-- Node0x556b8dee79b8 -->
<g id="node14" class="node">
<title>Node0x556b8dee79b8</title>
<polygon fill="none" stroke="black" points="966,-1767.02 698,-1767.02 698,-1731.02 966,-1731.02 966,-1767.02"/>
<text text-anchor="middle" x="832" y="-1745.32" font-family="Times,serif" font-size="14.00">{src/libccache_lib.a(Depfile.cpp.o)}</text>
</g>
<!-- Node0x556b8dee79b8&#45;&gt;Node0x556b8dee5848 -->
<g id="edge21" class="edge">
<title>Node0x556b8dee79b8&#45;&gt;Node0x556b8dee5848</title>
<path fill="none" stroke="black" d="M839.9,-1767.18C860.31,-1818 925.74,-1961.84 1033,-2021.02 1163.3,-2092.93 1554.71,-2041.68 1701,-2069.02 1701.7,-2069.16 2091.3,-2188.92 2092,-2189.02 2246.27,-2212.17 2317.62,-2281.85 2443,-2189.02 2524.63,-2128.59 2580.99,-1800.24 2596.31,-1701.27"/>
<polygon fill="black" stroke="black" points="2599.81,-1701.55 2597.86,-1691.13 2592.89,-1700.49 2599.81,-1701.55"/>
</g>
<!-- Node0x556b8dee79b8&#45;&gt;Node0x556b8dee6388 -->
<g id="edge20" class="edge">
<title>Node0x556b8dee79b8&#45;&gt;Node0x556b8dee6388</title>
<path fill="none" stroke="black" d="M842.12,-1767.09C866.16,-1812.57 936.14,-1931.83 1033,-1983.02 1165.02,-2052.8 1568.52,-1987.13 1701,-2056.02 1722.51,-2067.21 1716.32,-2084.36 1737,-2097.02 1861.75,-2173.41 1945.41,-2082.28 2056,-2178.02 2087.64,-2205.41 2057.21,-2241.77 2092,-2265.02 2274.9,-2387.28 2901.2,-2390.38 3082,-2265.02 3237.63,-2157.12 3259.29,-1897.53 3262.13,-1811.36"/>
<polygon fill="black" stroke="black" points="3265.63,-1811.37 3262.4,-1801.28 3258.63,-1811.18 3265.63,-1811.37"/>
</g>
<!-- Node0x556b8dee79b8&#45;&gt;Node0x556b8dee6928 -->
<g id="edge22" class="edge">
<title>Node0x556b8dee79b8&#45;&gt;Node0x556b8dee6928</title>
<path fill="none" stroke="black" d="M846.03,-1767.26C874.76,-1805.86 947.82,-1895.53 1033,-1935.02 1304.27,-2060.81 1438.9,-1871.11 1701,-2015.02 1723.15,-2027.19 1714.85,-2046.87 1737,-2059.02 1862.18,-2127.7 1947.68,-2004 2056,-2097.02 2101.48,-2136.09 2044.28,-2190.73 2092,-2227.02 2154.08,-2274.25 2365.14,-2231.64 2443,-2227.02 2728.5,-2210.11 2882.57,-2356.02 3082,-2151.02 3143.46,-2087.85 3070.42,-1830.22 3118,-1756.02 3136.04,-1727.9 3167.21,-1708.25 3196,-1695.17"/>
<polygon fill="black" stroke="black" points="3197.47,-1698.34 3205.24,-1691.14 3194.67,-1691.92 3197.47,-1698.34"/>
</g>
<!-- Node0x556b8dee7288&#45;&gt;Node0x556b8dee5848 -->
<g id="edge24" class="edge">
<title>Node0x556b8dee7288&#45;&gt;Node0x556b8dee5848</title>
<path fill="none" stroke="black" d="M2375.4,-1731.01C2397.81,-1726.79 2421.24,-1722.05 2443,-1717.02 2472.07,-1710.31 2503.82,-1701.7 2531.14,-1693.87"/>
<polygon fill="black" stroke="black" points="2532.36,-1697.16 2541,-1691.03 2530.42,-1690.44 2532.36,-1697.16"/>
</g>
<!-- Node0x556b8dee7288&#45;&gt;Node0x556b8dee6388 -->
<g id="edge23" class="edge">
<title>Node0x556b8dee7288&#45;&gt;Node0x556b8dee6388</title>
<path fill="none" stroke="black" d="M2394.84,-1746.99C2487.19,-1748.13 2614.84,-1755.18 2724,-1781.02 2740.87,-1785.02 2743,-1792.63 2760,-1796.02 2900.33,-1824.09 2938.98,-1801.17 3082,-1796.02 3092.93,-1795.63 3104.22,-1795.11 3115.58,-1794.49"/>
<polygon fill="black" stroke="black" points="3115.78,-1797.98 3125.57,-1793.93 3115.38,-1790.99 3115.78,-1797.98"/>
</g>
<!-- Node0x556b8dee5528 -->
<g id="node16" class="node">
<title>Node0x556b8dee5528</title>
<polygon fill="none" stroke="black" points="1309.5,-1675.02 1037.5,-1675.02 1037.5,-1639.02 1309.5,-1639.02 1309.5,-1675.02"/>
<text text-anchor="middle" x="1173.5" y="-1653.32" font-family="Times,serif" font-size="14.00">{src/libccache_lib.a(Lockfile.cpp.o)}</text>
</g>
<!-- Node0x556b8dee5528&#45;&gt;Node0x556b8dee5848 -->
<g id="edge26" class="edge">
<title>Node0x556b8dee5528&#45;&gt;Node0x556b8dee5848</title>
<path fill="none" stroke="black" d="M1236.54,-1675.08C1269.91,-1684.15 1311.91,-1694.56 1350,-1701.02 1505.31,-1727.37 1933.99,-1665.37 2056,-1765.02 2099.13,-1800.25 2047.33,-1851.79 2092,-1885.02 2217.16,-1978.15 2303.63,-1955.11 2443,-1885.02 2520.63,-1845.99 2569.64,-1748.56 2589.86,-1700.59"/>
<polygon fill="black" stroke="black" points="2593.18,-1701.73 2593.74,-1691.15 2586.7,-1699.07 2593.18,-1701.73"/>
</g>
<!-- Node0x556b8dee5528&#45;&gt;Node0x556b8dee6388 -->
<g id="edge25" class="edge">
<title>Node0x556b8dee5528&#45;&gt;Node0x556b8dee6388</title>
<path fill="none" stroke="black" d="M1309.66,-1660.88C1416.6,-1665.71 1569.33,-1676.58 1701,-1701.02 1878.97,-1734.06 1914.31,-1780.51 2092,-1815.02 2384.91,-1871.91 2461.99,-1867.12 2760,-1882.02 2902.93,-1889.17 2943.37,-1917.55 3082,-1882.02 3138.33,-1867.59 3195.97,-1831.51 3230.5,-1807.13"/>
<polygon fill="black" stroke="black" points="3232.68,-1809.88 3238.77,-1801.21 3228.6,-1804.19 3232.68,-1809.88"/>
</g>
<!-- Node0x556b8dee6b08 -->
<g id="node17" class="node">
<title>Node0x556b8dee6b08</title>
<polygon fill="none" stroke="black" points="2047.5,-975.02 1745.5,-975.02 1745.5,-939.02 2047.5,-939.02 2047.5,-975.02"/>
<text text-anchor="middle" x="1896.5" y="-953.32" font-family="Times,serif" font-size="14.00">{src/libccache_lib.a(Compressor.cpp.o)}</text>
</g>
<!-- Node0x556b8dee6b08&#45;&gt;Node0x556b8dee6928 -->
<g id="edge30" class="edge">
<title>Node0x556b8dee6b08&#45;&gt;Node0x556b8dee6928</title>
<path fill="none" stroke="black" d="M2007.8,-939.02C2035.23,-935.29 2064.62,-931.92 2092,-930.02 2312.71,-914.78 2918.83,-885.62 3082,-1035.02 3175.66,-1120.79 3241.96,-1532.69 3258.48,-1644.8"/>
<polygon fill="black" stroke="black" points="3255.06,-1645.59 3259.97,-1654.98 3261.99,-1644.58 3255.06,-1645.59"/>
</g>
<!-- Node0x556b8dee5fc8 -->
<g id="node18" class="node">
<title>Node0x556b8dee5fc8</title>
<polygon fill="none" stroke="black" points="2433.5,-1029.02 2101.5,-1029.02 2101.5,-993.02 2433.5,-993.02 2433.5,-1029.02"/>
<text text-anchor="middle" x="2267.5" y="-1007.32" font-family="Times,serif" font-size="14.00">{src/libccache_lib.a(NullCompressor.cpp.o)}</text>
</g>
<!-- Node0x556b8dee6b08&#45;&gt;Node0x556b8dee5fc8 -->
<g id="edge28" class="edge">
<title>Node0x556b8dee6b08&#45;&gt;Node0x556b8dee5fc8</title>
<path fill="none" stroke="black" d="M2020.63,-975.04C2056.74,-980.33 2096.39,-986.13 2133.11,-991.5"/>
<polygon fill="black" stroke="black" points="2132.98,-995.02 2143.38,-993.01 2134,-988.1 2132.98,-995.02"/>
</g>
<!-- Node0x556b8dee5618 -->
<g id="node19" class="node">
<title>Node0x556b8dee5618</title>
<polygon fill="none" stroke="black" points="2435,-975.02 2100,-975.02 2100,-939.02 2435,-939.02 2435,-975.02"/>
<text text-anchor="middle" x="2267.5" y="-953.32" font-family="Times,serif" font-size="14.00">{src/libccache_lib.a(ZstdCompressor.cpp.o)}</text>
</g>
<!-- Node0x556b8dee6b08&#45;&gt;Node0x556b8dee5618 -->
<g id="edge29" class="edge">
<title>Node0x556b8dee6b08&#45;&gt;Node0x556b8dee5618</title>
<path fill="none" stroke="black" d="M2047.59,-957.02C2061.47,-957.02 2075.63,-957.02 2089.73,-957.02"/>
<polygon fill="black" stroke="black" points="2089.98,-960.52 2099.98,-957.02 2089.98,-953.52 2089.98,-960.52"/>
</g>
<!-- Node0x556b8dee5618&#45;&gt;Node0x556b8dee6388 -->
<g id="edge109" class="edge">
<title>Node0x556b8dee5618&#45;&gt;Node0x556b8dee6388</title>
<path fill="none" stroke="black" d="M2435.43,-964.79C2631.96,-984.19 2948.47,-1050.13 3082,-1271.02 3180.98,-1434.77 3015.3,-1538.58 3118,-1700.02 3135.94,-1728.22 3167.1,-1747.87 3195.91,-1760.94"/>
<polygon fill="black" stroke="black" points="3194.59,-1764.19 3205.16,-1764.96 3197.38,-1757.77 3194.59,-1764.19"/>
</g>
<!-- Node0x556b8dee5618&#45;&gt;Node0x556b8dee6928 -->
<g id="edge110" class="edge">
<title>Node0x556b8dee5618&#45;&gt;Node0x556b8dee6928</title>
<path fill="none" stroke="black" d="M2388.14,-939C2562.54,-919.88 2886.96,-912.34 3082,-1081.02 3171.08,-1158.07 3239.96,-1537.28 3257.91,-1644.65"/>
<polygon fill="black" stroke="black" points="3254.49,-1645.43 3259.58,-1654.73 3261.4,-1644.29 3254.49,-1645.43"/>
</g>
<!-- Node0x556b8dee6d38 -->
<g id="node20" class="node">
<title>Node0x556b8dee6d38</title>
<polygon fill="none" stroke="black" points="2056,-845.02 1737,-845.02 1737,-809.02 2056,-809.02 2056,-845.02"/>
<text text-anchor="middle" x="1896.5" y="-823.32" font-family="Times,serif" font-size="14.00">{src/libccache_lib.a(Decompressor.cpp.o)}</text>
</g>
<!-- Node0x556b8dee6d38&#45;&gt;Node0x556b8dee6928 -->
<g id="edge33" class="edge">
<title>Node0x556b8dee6d38&#45;&gt;Node0x556b8dee6928</title>
<path fill="none" stroke="black" d="M2036.33,-808.93C2043.12,-806.33 2049.72,-803.38 2056,-800.02 2076.52,-789.06 2070.69,-771.36 2092,-762.02 2147.42,-737.76 3045.62,-727.12 3082,-757.02 3224,-873.78 3256.07,-1502.83 3261.54,-1644.62"/>
<polygon fill="black" stroke="black" points="3258.04,-1644.83 3261.91,-1654.7 3265.04,-1644.57 3258.04,-1644.83"/>
</g>
<!-- Node0x556b8dee64c8 -->
<g id="node21" class="node">
<title>Node0x556b8dee64c8</title>
<polygon fill="none" stroke="black" points="2442,-715.02 2093,-715.02 2093,-679.02 2442,-679.02 2442,-715.02"/>
<text text-anchor="middle" x="2267.5" y="-693.32" font-family="Times,serif" font-size="14.00">{src/libccache_lib.a(NullDecompressor.cpp.o)}</text>
</g>
<!-- Node0x556b8dee6d38&#45;&gt;Node0x556b8dee64c8 -->
<g id="edge31" class="edge">
<title>Node0x556b8dee6d38&#45;&gt;Node0x556b8dee64c8</title>
<path fill="none" stroke="black" d="M2041.79,-808.94C2046.75,-806.3 2051.51,-803.34 2056,-800.02 2084.48,-779.03 2063.65,-750.19 2092,-729.02 2096.55,-725.63 2101.35,-722.55 2106.34,-719.77"/>
<polygon fill="black" stroke="black" points="2108.2,-722.75 2115.51,-715.08 2105.02,-716.52 2108.2,-722.75"/>
</g>
<!-- Node0x556b8dee7918 -->
<g id="node22" class="node">
<title>Node0x556b8dee7918</title>
<polygon fill="none" stroke="black" points="2443,-807.02 2092,-807.02 2092,-771.02 2443,-771.02 2443,-807.02"/>
<text text-anchor="middle" x="2267.5" y="-785.32" font-family="Times,serif" font-size="14.00">{src/libccache_lib.a(ZstdDecompressor.cpp.o)}</text>
</g>
<!-- Node0x556b8dee6d38&#45;&gt;Node0x556b8dee7918 -->
<g id="edge32" class="edge">
<title>Node0x556b8dee6d38&#45;&gt;Node0x556b8dee7918</title>
<path fill="none" stroke="black" d="M2056.13,-810.69C2064.62,-809.81 2073.19,-808.93 2081.76,-808.05"/>
<polygon fill="black" stroke="black" points="2082.23,-811.52 2091.82,-807.01 2081.51,-804.56 2082.23,-811.52"/>
</g>
<!-- Node0x556b8dee7918&#45;&gt;Node0x556b8dee6928 -->
<g id="edge114" class="edge">
<title>Node0x556b8dee7918&#45;&gt;Node0x556b8dee6928</title>
<path fill="none" stroke="black" d="M2443.31,-771.82C2653.31,-755.17 2989.02,-742.6 3082,-821.02 3212.4,-931.01 3253.16,-1509.09 3260.99,-1644.59"/>
<polygon fill="black" stroke="black" points="3257.52,-1645.16 3261.57,-1654.95 3264.51,-1644.76 3257.52,-1645.16"/>
</g>
<!-- Node0x556b8dee6748 -->
<g id="node23" class="node">
<title>Node0x556b8dee6748</title>
<polygon fill="none" stroke="black" points="974.5,-1523.02 689.5,-1523.02 689.5,-1487.02 974.5,-1487.02 974.5,-1523.02"/>
<text text-anchor="middle" x="832" y="-1501.32" font-family="Times,serif" font-size="14.00">{src/libccache_lib.a(Statistics.cpp.o)}</text>
</g>
<!-- Node0x556b8dee6748&#45;&gt;Node0x556b8dee5848 -->
<g id="edge40" class="edge">
<title>Node0x556b8dee6748&#45;&gt;Node0x556b8dee5848</title>
<path fill="none" stroke="black" d="M969.53,-1523.15C979.17,-1526.97 988.45,-1531.55 997,-1537.02 1020.06,-1551.8 1009.42,-1573.11 1033,-1587.02 1155.21,-1659.13 1208.88,-1610.17 1350,-1625.02 1506.67,-1641.51 1929.12,-1595.65 2056,-1689.02 2089.7,-1713.83 2057.21,-1752.77 2092,-1776.02 2221.69,-1862.72 2293.5,-1820.57 2443,-1776.02 2493.94,-1760.85 2543.75,-1723.36 2573.29,-1698.05"/>
<polygon fill="black" stroke="black" points="2575.83,-1700.47 2581.07,-1691.26 2571.23,-1695.2 2575.83,-1700.47"/>
</g>
<!-- Node0x556b8dee6748&#45;&gt;Node0x556b8dee6388 -->
<g id="edge38" class="edge">
<title>Node0x556b8dee6748&#45;&gt;Node0x556b8dee6388</title>
<path fill="none" stroke="black" d="M974.7,-1517.35C1295.68,-1545.33 2050.95,-1611.6 2056,-1616.02 2110.8,-1664.09 2036.47,-1728.81 2092,-1776.02 2120.32,-1800.11 2722.84,-1814.91 2760,-1816.02 2903.05,-1820.3 2939.47,-1828.95 3082,-1816.02 3111.37,-1813.36 3143.11,-1808.31 3171.66,-1802.94"/>
<polygon fill="black" stroke="black" points="3172.45,-1806.35 3181.61,-1801.04 3171.13,-1799.48 3172.45,-1806.35"/>
</g>
<!-- Node0x556b8dee6748&#45;&gt;Node0x556b8dee74b8 -->
<g id="edge39" class="edge">
<title>Node0x556b8dee6748&#45;&gt;Node0x556b8dee74b8</title>
<path fill="none" stroke="black" d="M936.26,-1523.06C956.5,-1527.19 977.5,-1531.9 997,-1537.02 1013.31,-1541.32 1016.54,-1545.34 1033,-1549.02 1171.46,-1580.06 1209.02,-1570.94 1350,-1587.02 1508.04,-1605.05 1930.49,-1607.3 2056,-1705.02 2083.92,-1726.76 2061.85,-1757.51 2092,-1776.02 2224.93,-1857.67 2287.2,-1783.84 2443,-1776.02 2559.41,-1770.18 2691.21,-1756.37 2786.71,-1745.05"/>
<polygon fill="black" stroke="black" points="2787.2,-1748.52 2796.72,-1743.86 2786.37,-1741.57 2787.2,-1748.52"/>
</g>
<!-- Node0x556b8dee6748&#45;&gt;Node0x556b8dee5578 -->
<g id="edge34" class="edge">
<title>Node0x556b8dee6748&#45;&gt;Node0x556b8dee5578</title>
<path fill="none" stroke="black" d="M974.58,-1510.04C1095.8,-1511.74 1259.19,-1507.12 1314,-1473.02 1441.06,-1393.99 1499.6,-1208.16 1517.89,-1137.22"/>
<polygon fill="black" stroke="black" points="1521.36,-1137.79 1520.39,-1127.23 1514.57,-1136.08 1521.36,-1137.79"/>
</g>
<!-- Node0x556b8dee6748&#45;&gt;Node0x556b8dee5ca8 -->
<g id="edge35" class="edge">
<title>Node0x556b8dee6748&#45;&gt;Node0x556b8dee5ca8</title>
<path fill="none" stroke="black" d="M967.45,-1486.87C977.79,-1483.07 987.77,-1478.51 997,-1473.02 1037,-1449.27 1117.7,-1338.98 1154.03,-1287.56"/>
<polygon fill="black" stroke="black" points="1156.98,-1289.44 1159.87,-1279.25 1151.26,-1285.42 1156.98,-1289.44"/>
</g>
<!-- Node0x556b8dee6748&#45;&gt;Node0x556b8dee5cf8 -->
<g id="edge36" class="edge">
<title>Node0x556b8dee6748&#45;&gt;Node0x556b8dee5cf8</title>
<path fill="none" stroke="black" d="M942.44,-1487.02C971.82,-1482.32 1003.6,-1477.36 1033,-1473.02 1095.34,-1463.82 1271.16,-1481.24 1314,-1435.02 1360.38,-1384.99 1325.46,-885.69 1350,-822.02 1381.2,-741.09 1454.39,-667 1495.38,-629.93"/>
<polygon fill="black" stroke="black" points="1497.76,-632.5 1502.89,-623.23 1493.1,-627.28 1497.76,-632.5"/>
</g>
<!-- Node0x556b8dee6748&#45;&gt;Node0x556b8dee5528 -->
<g id="edge37" class="edge">
<title>Node0x556b8dee6748&#45;&gt;Node0x556b8dee5528</title>
<path fill="none" stroke="black" d="M974.66,-1522.7C982.63,-1526.68 990.16,-1531.41 997,-1537.02 1029.66,-1563.84 1000.79,-1597.67 1033,-1625.02 1036.82,-1628.27 1040.91,-1631.21 1045.2,-1633.86"/>
<polygon fill="black" stroke="black" points="1043.82,-1637.09 1054.26,-1638.9 1047.23,-1630.98 1043.82,-1637.09"/>
</g>
<!-- Node0x556b8dee5c08 -->
<g id="node24" class="node">
<title>Node0x556b8dee5c08</title>
<polygon fill="none" stroke="black" points="976,-1241.02 688,-1241.02 688,-1205.02 976,-1205.02 976,-1241.02"/>
<text text-anchor="middle" x="832" y="-1219.32" font-family="Times,serif" font-size="14.00">{src/libccache_lib.a(CacheFile.cpp.o)}</text>
</g>
<!-- Node0x556b8dee5c08&#45;&gt;Node0x556b8dee74b8 -->
<g id="edge43" class="edge">
<title>Node0x556b8dee5c08&#45;&gt;Node0x556b8dee74b8</title>
<path fill="none" stroke="black" d="M976.12,-1212.62C1096.32,-1206.35 1257.28,-1204.49 1314,-1234.02 1337.97,-1246.5 1326.32,-1270.01 1350,-1283.02 1418.91,-1320.89 1977.64,-1324.52 2056,-1331.02 2228.23,-1345.33 2273.42,-1335.68 2443,-1369.02 2570.9,-1394.18 2636.8,-1356.14 2724,-1453.02 2782.08,-1517.56 2708.23,-1575.32 2760,-1645.02 2781.22,-1673.6 2815.17,-1693.16 2846.34,-1706.09"/>
<polygon fill="black" stroke="black" points="2845.33,-1709.45 2855.91,-1709.89 2847.91,-1702.94 2845.33,-1709.45"/>
</g>
<!-- Node0x556b8dee6f68 -->
<g id="node25" class="node">
<title>Node0x556b8dee6f68</title>
<polygon fill="none" stroke="black" points="1314,-1149.02 1033,-1149.02 1033,-1113.02 1314,-1113.02 1314,-1149.02"/>
<text text-anchor="middle" x="1173.5" y="-1127.32" font-family="Times,serif" font-size="14.00">{src/libccache_lib.a(Manifest.cpp.o)}</text>
</g>
<!-- Node0x556b8dee5c08&#45;&gt;Node0x556b8dee6f68 -->
<g id="edge41" class="edge">
<title>Node0x556b8dee5c08&#45;&gt;Node0x556b8dee6f68</title>
<path fill="none" stroke="black" d="M958,-1205.01C971.24,-1202.34 984.45,-1199.35 997,-1196.02 1039.78,-1184.69 1086.71,-1167.02 1121.27,-1152.96"/>
<polygon fill="black" stroke="black" points="1122.76,-1156.14 1130.68,-1149.1 1120.1,-1149.66 1122.76,-1156.14"/>
</g>
<!-- Node0x556b8dee52f8 -->
<g id="node26" class="node">
<title>Node0x556b8dee52f8</title>
<polygon fill="none" stroke="black" points="1305,-867.02 1042,-867.02 1042,-831.02 1305,-831.02 1305,-867.02"/>
<text text-anchor="middle" x="1173.5" y="-845.32" font-family="Times,serif" font-size="14.00">{src/libccache_lib.a(Result.cpp.o)}</text>
</g>
<!-- Node0x556b8dee5c08&#45;&gt;Node0x556b8dee52f8 -->
<g id="edge42" class="edge">
<title>Node0x556b8dee5c08&#45;&gt;Node0x556b8dee52f8</title>
<path fill="none" stroke="black" d="M976.21,-1209.21C983.61,-1205.56 990.61,-1201.2 997,-1196.02 1031.13,-1168.4 1014.43,-1143.81 1033,-1104.02 1072.94,-1018.47 1129.02,-921.75 1156.31,-875.9"/>
<polygon fill="black" stroke="black" points="1159.4,-877.54 1161.52,-867.16 1153.39,-873.96 1159.4,-877.54"/>
</g>
<!-- Node0x556b8dee6f68&#45;&gt;Node0x556b8dee5848 -->
<g id="edge99" class="edge">
<title>Node0x556b8dee6f68&#45;&gt;Node0x556b8dee5848</title>
<path fill="none" stroke="black" d="M1314.27,-1138.8C1605.89,-1157.54 2266.77,-1213.86 2443,-1347.02 2543.74,-1423.15 2583.36,-1580.53 2595.75,-1644.78"/>
<polygon fill="black" stroke="black" points="2592.37,-1645.76 2597.63,-1654.96 2599.26,-1644.49 2592.37,-1645.76"/>
</g>
<!-- Node0x556b8dee6f68&#45;&gt;Node0x556b8dee6388 -->
<g id="edge95" class="edge">
<title>Node0x556b8dee6f68&#45;&gt;Node0x556b8dee6388</title>
<path fill="none" stroke="black" d="M1214.76,-1149.15C1249.78,-1164.14 1302.26,-1184.72 1350,-1196.02 1726.82,-1285.27 2807.56,-1114.81 3082,-1388.02 3131.46,-1437.27 3079.63,-1641.73 3118,-1700.02 3136.44,-1728.04 3167.82,-1747.71 3196.64,-1760.84"/>
<polygon fill="black" stroke="black" points="3195.32,-1764.08 3205.88,-1764.88 3198.12,-1757.67 3195.32,-1764.08"/>
</g>
<!-- Node0x556b8dee6f68&#45;&gt;Node0x556b8dee74b8 -->
<g id="edge98" class="edge">
<title>Node0x556b8dee6f68&#45;&gt;Node0x556b8dee74b8</title>
<path fill="none" stroke="black" d="M1244.56,-1149.09C1276.53,-1156.79 1315,-1165.3 1350,-1171.02 1501.42,-1195.79 2615.15,-1200.89 2724,-1309.02 2777.28,-1361.95 2717.63,-1583.03 2760,-1645.02 2779.76,-1673.94 2812.83,-1693.44 2843.78,-1706.22"/>
<polygon fill="black" stroke="black" points="2842.72,-1709.57 2853.31,-1709.98 2845.29,-1703.06 2842.72,-1709.57"/>
</g>
<!-- Node0x556b8dee6f68&#45;&gt;Node0x556b8dee5578 -->
<g id="edge92" class="edge">
<title>Node0x556b8dee6f68&#45;&gt;Node0x556b8dee5578</title>
<path fill="none" stroke="black" d="M1314.09,-1122.25C1331.93,-1121.13 1350.29,-1119.98 1368.37,-1118.84"/>
<polygon fill="black" stroke="black" points="1368.62,-1122.33 1378.38,-1118.21 1368.18,-1115.34 1368.62,-1122.33"/>
</g>
<!-- Node0x556b8dee6f68&#45;&gt;Node0x556b8dee76e8 -->
<g id="edge93" class="edge">
<title>Node0x556b8dee6f68&#45;&gt;Node0x556b8dee76e8</title>
<path fill="none" stroke="black" d="M1235.59,-1113.01C1269.22,-1103.34 1311.77,-1091.49 1350,-1082.02 1504.94,-1043.66 1590.43,-1121.14 1701,-1006.02 1765.39,-939 1671.14,-865.6 1737,-800.02 1737.82,-799.21 1738.65,-798.42 1739.49,-797.64"/>
<polygon fill="black" stroke="black" points="1741.91,-800.19 1747.46,-791.17 1737.49,-794.76 1741.91,-800.19"/>
</g>
<!-- Node0x556b8dee6f68&#45;&gt;Node0x556b8dee7288 -->
<g id="edge94" class="edge">
<title>Node0x556b8dee6f68&#45;&gt;Node0x556b8dee7288</title>
<path fill="none" stroke="black" d="M1314.29,-1134.71C1501.8,-1146.46 1836.51,-1192.12 2056,-1364.02 2178.93,-1460.31 2239.96,-1649.23 2259.4,-1720.71"/>
<polygon fill="black" stroke="black" points="2256.12,-1722 2262.07,-1730.77 2262.88,-1720.2 2256.12,-1722"/>
</g>
<!-- Node0x556b8dee6518 -->
<g id="node38" class="node">
<title>Node0x556b8dee6518</title>
<polygon fill="none" stroke="black" points="1663,-1827.02 1388,-1827.02 1388,-1791.02 1663,-1791.02 1663,-1827.02"/>
<text text-anchor="middle" x="1525.5" y="-1805.32" font-family="Times,serif" font-size="14.00">{src/libccache_lib.a(hashutil.cpp.o)}</text>
</g>
<!-- Node0x556b8dee6f68&#45;&gt;Node0x556b8dee6518 -->
<g id="edge100" class="edge">
<title>Node0x556b8dee6f68&#45;&gt;Node0x556b8dee6518</title>
<path fill="none" stroke="black" d="M1209.45,-1149.03C1240.79,-1166.8 1286.03,-1196.68 1314,-1234.02 1449.51,-1414.94 1505.13,-1692 1520.09,-1780.69"/>
<polygon fill="black" stroke="black" points="1516.67,-1781.48 1521.75,-1790.78 1523.58,-1780.34 1516.67,-1781.48"/>
</g>
<!-- Node0x556b8dee68d8 -->
<g id="node40" class="node">
<title>Node0x556b8dee68d8</title>
<polygon fill="none" stroke="black" points="1701,-867.02 1350,-867.02 1350,-831.02 1701,-831.02 1701,-867.02"/>
<text text-anchor="middle" x="1525.5" y="-845.32" font-family="Times,serif" font-size="14.00">{src/libccache_lib.a(CacheEntryReader.cpp.o)}</text>
</g>
<!-- Node0x556b8dee6f68&#45;&gt;Node0x556b8dee68d8 -->
<g id="edge96" class="edge">
<title>Node0x556b8dee6f68&#45;&gt;Node0x556b8dee68d8</title>
<path fill="none" stroke="black" d="M1191.72,-1112.94C1232.44,-1070.22 1332.61,-965.64 1350,-952.02 1390.73,-920.14 1442.24,-890.9 1478.71,-871.79"/>
<polygon fill="black" stroke="black" points="1480.38,-874.87 1487.64,-867.15 1477.15,-868.65 1480.38,-874.87"/>
</g>
<!-- Node0x556b8dee7558 -->
<g id="node41" class="node">
<title>Node0x556b8dee7558</title>
<polygon fill="none" stroke="black" points="1698.5,-997.02 1352.5,-997.02 1352.5,-961.02 1698.5,-961.02 1698.5,-997.02"/>
<text text-anchor="middle" x="1525.5" y="-975.32" font-family="Times,serif" font-size="14.00">{src/libccache_lib.a(CacheEntryWriter.cpp.o)}</text>
</g>
<!-- Node0x556b8dee6f68&#45;&gt;Node0x556b8dee7558 -->
<g id="edge97" class="edge">
<title>Node0x556b8dee6f68&#45;&gt;Node0x556b8dee7558</title>
<path fill="none" stroke="black" d="M1211.54,-1112.98C1246.88,-1095.95 1301.72,-1069.97 1350,-1049.02 1389.14,-1032.05 1433.81,-1014.16 1468.15,-1000.71"/>
<polygon fill="black" stroke="black" points="1469.5,-1003.94 1477.55,-997.04 1466.96,-997.42 1469.5,-1003.94"/>
</g>
<!-- Node0x556b8dee52f8&#45;&gt;Node0x556b8dee5848 -->
<g id="edge108" class="edge">
<title>Node0x556b8dee52f8&#45;&gt;Node0x556b8dee5848</title>
<path fill="none" stroke="black" d="M1239.08,-830.91C1265.42,-820.64 1294.27,-805.28 1314,-783.02 1347.56,-745.16 1310.52,-706.66 1350,-675.02 1366.17,-662.07 2071.31,-600.08 2092,-599.02 2247.8,-591.07 2324.96,-497.03 2443,-599.02 2525.07,-669.94 2586.9,-1481.82 2598.53,-1644.68"/>
<polygon fill="black" stroke="black" points="2595.05,-1645.13 2599.25,-1654.86 2602.03,-1644.64 2595.05,-1645.13"/>
</g>
<!-- Node0x556b8dee52f8&#45;&gt;Node0x556b8dee6388 -->
<g id="edge104" class="edge">
<title>Node0x556b8dee52f8&#45;&gt;Node0x556b8dee6388</title>
<path fill="none" stroke="black" d="M1235.55,-830.89C1262.34,-820.44 1292.52,-804.92 1314,-783.02 1341.31,-755.19 1318.32,-725.75 1350,-703.02 1477.35,-611.67 1570.79,-756.25 1701,-669.02 1729.41,-649.99 1709.51,-621.37 1737,-601.02 1929.64,-458.46 2026.84,-499.02 2266.5,-499.02 2266.5,-499.02 2266.5,-499.02 2602.5,-499.02 2868.99,-499.02 2957.81,-623.24 3082,-859.02 3169.17,-1024.53 3020.85,-1540.17 3118,-1700.02 3135.22,-1728.36 3165.98,-1747.96 3194.7,-1760.96"/>
<polygon fill="black" stroke="black" points="3193.37,-1764.2 3203.94,-1764.96 3196.15,-1757.77 3193.37,-1764.2"/>
</g>
<!-- Node0x556b8dee52f8&#45;&gt;Node0x556b8dee74b8 -->
<g id="edge107" class="edge">
<title>Node0x556b8dee52f8&#45;&gt;Node0x556b8dee74b8</title>
<path fill="none" stroke="black" d="M1218.33,-831.01C1253.51,-816.98 1304.4,-797.67 1350,-784.02 1503.38,-738.13 1545.62,-741.61 1701,-703.02 1875.52,-659.69 1913.7,-622.33 2092,-599.02 2246.68,-578.8 2306.34,-523.79 2443,-599.02 2647.58,-711.66 2652.32,-820.77 2724,-1043.02 2765.14,-1170.57 2687.01,-1532.63 2760,-1645.02 2778.84,-1674.04 2811.26,-1693.48 2842,-1706.19"/>
<polygon fill="black" stroke="black" points="2840.88,-1709.51 2851.47,-1709.93 2843.45,-1703 2840.88,-1709.51"/>
</g>
<!-- Node0x556b8dee52f8&#45;&gt;Node0x556b8dee5578 -->
<g id="edge101" class="edge">
<title>Node0x556b8dee52f8&#45;&gt;Node0x556b8dee5578</title>
<path fill="none" stroke="black" d="M1192.43,-867.26C1223.09,-897.92 1288.3,-960.89 1350,-1006.02 1392.27,-1036.95 1444.4,-1066.74 1480.62,-1086.26"/>
<polygon fill="black" stroke="black" points="1479,-1089.36 1489.47,-1090.99 1482.3,-1083.19 1479,-1089.36"/>
</g>
<!-- Node0x556b8dee52f8&#45;&gt;Node0x556b8dee76e8 -->
<g id="edge102" class="edge">
<title>Node0x556b8dee52f8&#45;&gt;Node0x556b8dee76e8</title>
<path fill="none" stroke="black" d="M1284.82,-830.97C1306.4,-827.74 1328.89,-824.59 1350,-822.02 1477.57,-806.5 1622.49,-793.71 1730.88,-785.09"/>
<polygon fill="black" stroke="black" points="1731.23,-788.58 1740.92,-784.3 1730.68,-781.6 1731.23,-788.58"/>
</g>
<!-- Node0x556b8dee52f8&#45;&gt;Node0x556b8dee5cf8 -->
<g id="edge103" class="edge">
<title>Node0x556b8dee52f8&#45;&gt;Node0x556b8dee5cf8</title>
<path fill="none" stroke="black" d="M1296.23,-830.93C1302.71,-827.05 1308.72,-822.46 1314,-817.02 1370.87,-758.53 1291.85,-694.25 1350,-637.02 1357.33,-629.81 1365.71,-623.94 1374.75,-619.18"/>
<polygon fill="black" stroke="black" points="1376.47,-622.23 1383.99,-614.77 1373.46,-615.91 1376.47,-622.23"/>
</g>
<!-- Node0x556b8dee52f8&#45;&gt;Node0x556b8dee68d8 -->
<g id="edge105" class="edge">
<title>Node0x556b8dee52f8&#45;&gt;Node0x556b8dee68d8</title>
<path fill="none" stroke="black" d="M1305.32,-849.02C1316.59,-849.02 1328.11,-849.02 1339.69,-849.02"/>
<polygon fill="black" stroke="black" points="1339.88,-852.52 1349.88,-849.02 1339.88,-845.52 1339.88,-852.52"/>
</g>
<!-- Node0x556b8dee52f8&#45;&gt;Node0x556b8dee7558 -->
<g id="edge106" class="edge">
<title>Node0x556b8dee52f8&#45;&gt;Node0x556b8dee7558</title>
<path fill="none" stroke="black" d="M1223.17,-867.1C1286.81,-890.74 1398.19,-932.11 1466.25,-957.39"/>
<polygon fill="black" stroke="black" points="1465.37,-960.8 1475.97,-961 1467.81,-954.24 1465.37,-960.8"/>
</g>
<!-- Node0x556b8dee6c98 -->
<g id="node27" class="node">
<title>Node0x556b8dee6c98</title>
<polygon fill="none" stroke="black" points="626,-2253.02 307,-2253.02 307,-2217.02 626,-2217.02 626,-2253.02"/>
<text text-anchor="middle" x="466.5" y="-2231.32" font-family="Times,serif" font-size="14.00">{src/libccache_lib.a(argprocessing.cpp.o)}</text>
</g>
<!-- Node0x556b8dee6c98&#45;&gt;Node0x556b8dee5848 -->
<g id="edge47" class="edge">
<title>Node0x556b8dee6c98&#45;&gt;Node0x556b8dee5848</title>
<path fill="none" stroke="black" d="M626.24,-2251.87C1082.98,-2299.56 2372.37,-2428.51 2443,-2372.02 2551.1,-2285.57 2590.28,-1821.16 2598.67,-1701.28"/>
<polygon fill="black" stroke="black" points="2602.18,-1701.29 2599.37,-1691.08 2595.2,-1700.82 2602.18,-1701.29"/>
</g>
<!-- Node0x556b8dee6c98&#45;&gt;Node0x556b8dee6388 -->
<g id="edge45" class="edge">
<title>Node0x556b8dee6c98&#45;&gt;Node0x556b8dee6388</title>
<path fill="none" stroke="black" d="M521.38,-2216.99C561.11,-2204.67 616.76,-2189.46 667,-2183.02 780.96,-2168.42 1605.74,-2118.8 1701,-2183.02 1736.38,-2206.88 1703.74,-2245.29 1737,-2272.02 1849.08,-2362.11 1940.91,-2239.82 2056,-2326.02 2085.27,-2347.95 2060.99,-2380.63 2092,-2400.02 2255.31,-2502.19 3004.98,-2383.95 3082,-2321.02 3245.12,-2187.75 3261.67,-1901.82 3262.7,-1811.19"/>
<polygon fill="black" stroke="black" points="3266.2,-1811.15 3262.76,-1801.13 3259.2,-1811.11 3266.2,-1811.15"/>
</g>
<!-- Node0x556b8dee6c98&#45;&gt;Node0x556b8dee74b8 -->
<g id="edge46" class="edge">
<title>Node0x556b8dee6c98&#45;&gt;Node0x556b8dee74b8</title>
<path fill="none" stroke="black" d="M496.88,-2216.95C534.62,-2194.88 602.92,-2158.81 667,-2145.02 779.32,-2120.86 1605.48,-2081.18 1701,-2145.02 1735.79,-2168.28 1704.2,-2206.04 1737,-2232.02 1849.59,-2321.23 1943.59,-2194.59 2056,-2284.02 2089.07,-2310.33 2056.92,-2348.47 2092,-2372.02 2156.76,-2415.5 2373.34,-2407.12 2443,-2372.02 2715.38,-2234.82 2871.03,-1860.42 2910.15,-1755.62"/>
<polygon fill="black" stroke="black" points="2913.5,-1756.65 2913.67,-1746.06 2906.93,-1754.23 2913.5,-1756.65"/>
</g>
<!-- Node0x556b8dee6c98&#45;&gt;Node0x556b8dee6928 -->
<g id="edge48" class="edge">
<title>Node0x556b8dee6c98&#45;&gt;Node0x556b8dee6928</title>
<path fill="none" stroke="black" d="M626.15,-2221.14C639.95,-2220.29 653.72,-2219.56 667,-2219.02 813.55,-2213.16 850.7,-2208.69 997,-2219.02 1312.24,-2241.3 1392.15,-2252.04 1701,-2319.02 1878.02,-2357.42 1912.71,-2408.21 2092,-2434.02 2246.41,-2456.26 2289.03,-2459.12 2443,-2434.02 2738.6,-2385.84 2897.77,-2456.16 3082,-2220.02 3145.62,-2138.48 3062.76,-1843.46 3118,-1756.02 3135.85,-1727.77 3167,-1708.12 3195.83,-1695.06"/>
<polygon fill="black" stroke="black" points="3197.3,-1698.23 3205.08,-1691.04 3194.52,-1691.81 3197.3,-1698.23"/>
</g>
<!-- Node0x556b8dee6c98&#45;&gt;Node0x556b8dee61f8 -->
<g id="edge44" class="edge">
<title>Node0x556b8dee6c98&#45;&gt;Node0x556b8dee61f8</title>
<path fill="none" stroke="black" d="M626.12,-2231.69C909.12,-2225.75 1496.14,-2213.41 1760.86,-2207.85"/>
<polygon fill="black" stroke="black" points="1760.99,-2211.35 1770.91,-2207.64 1760.84,-2204.35 1760.99,-2211.35"/>
</g>
<!-- Node0x556b8dee7328 -->
<g id="node28" class="node">
<title>Node0x556b8dee7328</title>
<polygon fill="none" stroke="black" points="971.5,-2391.02 692.5,-2391.02 692.5,-2355.02 971.5,-2355.02 971.5,-2391.02"/>
<text text-anchor="middle" x="832" y="-2369.32" font-family="Times,serif" font-size="14.00">{src/libccache_lib.a(compopt.cpp.o)}</text>
</g>
<!-- Node0x556b8dee6c98&#45;&gt;Node0x556b8dee7328 -->
<g id="edge49" class="edge">
<title>Node0x556b8dee6c98&#45;&gt;Node0x556b8dee7328</title>
<path fill="none" stroke="black" d="M514.58,-2253.09C548.37,-2267.08 594.24,-2288.22 631,-2313.02 648.99,-2325.16 647.48,-2336.53 667,-2346.02 672.03,-2348.47 677.23,-2350.7 682.56,-2352.73"/>
<polygon fill="black" stroke="black" points="681.68,-2356.13 692.28,-2356.18 684.02,-2349.54 681.68,-2356.13"/>
</g>
<!-- Node0x556b8dee7378 -->
<g id="node29" class="node">
<title>Node0x556b8dee7378</title>
<polygon fill="none" stroke="black" points="973.5,-2337.02 690.5,-2337.02 690.5,-2301.02 973.5,-2301.02 973.5,-2337.02"/>
<text text-anchor="middle" x="832" y="-2315.32" font-family="Times,serif" font-size="14.00">{src/libccache_lib.a(language.cpp.o)}</text>
</g>
<!-- Node0x556b8dee6c98&#45;&gt;Node0x556b8dee7378 -->
<g id="edge50" class="edge">
<title>Node0x556b8dee6c98&#45;&gt;Node0x556b8dee7378</title>
<path fill="none" stroke="black" d="M532.39,-2253.03C571.28,-2263.55 621.8,-2276.74 667,-2287.02 685.1,-2291.15 704.4,-2295.21 723.17,-2298.98"/>
<polygon fill="black" stroke="black" points="722.74,-2302.46 733.23,-2300.98 724.11,-2295.6 722.74,-2302.46"/>
</g>
<!-- Node0x556b8dee7378&#45;&gt;Node0x556b8dee5848 -->
<g id="edge118" class="edge">
<title>Node0x556b8dee7378&#45;&gt;Node0x556b8dee5848</title>
<path fill="none" stroke="black" d="M942.84,-2337.04C960.94,-2340.03 979.5,-2343.11 997,-2346.02 1156.77,-2372.67 2318.55,-2634.71 2443,-2531.02 2574.41,-2421.54 2596.54,-1837.27 2599.93,-1701.31"/>
<polygon fill="black" stroke="black" points="2603.43,-1701.35 2600.17,-1691.27 2596.43,-1701.18 2603.43,-1701.35"/>
</g>
<!-- Node0x556b8dee5f28 -->
<g id="node30" class="node">
<title>Node0x556b8dee5f28</title>
<polygon fill="none" stroke="black" points="266,-1287.02 0,-1287.02 0,-1251.02 266,-1251.02 266,-1287.02"/>
<text text-anchor="middle" x="133" y="-1265.32" font-family="Times,serif" font-size="14.00">{src/libccache_lib.a(ccache.cpp.o)}</text>
</g>
<!-- Node0x556b8dee5f28&#45;&gt;Node0x556b8dee5848 -->
<g id="edge64" class="edge">
<title>Node0x556b8dee5f28&#45;&gt;Node0x556b8dee5848</title>
<path fill="none" stroke="black" d="M141.01,-1287.36C159.49,-1332.98 214.26,-1451.81 302,-1506.02 434.94,-1588.16 870.47,-1521.32 997,-1613.02 1025.65,-1633.79 1004.28,-1663.36 1033,-1684.02 1276.59,-1859.25 1404.67,-1734.84 1701,-1782.02 1859.1,-1807.2 1930.74,-1743.33 2056,-1843.02 2088.42,-1868.83 2057.5,-1906.07 2092,-1929.02 2221.87,-2015.45 2307.25,-2005.89 2443,-1929.02 2470.06,-1913.7 2462.81,-1895.57 2479,-1869.02 2515.99,-1808.37 2560.08,-1737.62 2583.66,-1699.92"/>
<polygon fill="black" stroke="black" points="2586.85,-1701.41 2589.19,-1691.08 2580.92,-1697.7 2586.85,-1701.41"/>
</g>
<!-- Node0x556b8dee5f28&#45;&gt;Node0x556b8dee6388 -->
<g id="edge57" class="edge">
<title>Node0x556b8dee5f28&#45;&gt;Node0x556b8dee6388</title>
<path fill="none" stroke="black" d="M135.13,-1287.44C144.5,-1436.77 210.98,-2446.31 302,-2542.02 466.29,-2714.8 592.58,-2631.02 831,-2631.02 831,-2631.02 831,-2631.02 2602.5,-2631.02 2855.31,-2631.02 2926.57,-2524.41 3082,-2325.02 3210.93,-2159.62 3250.02,-1897.67 3259.72,-1811.52"/>
<polygon fill="black" stroke="black" points="3263.21,-1811.77 3260.81,-1801.45 3256.25,-1811.02 3263.21,-1811.77"/>
</g>
<!-- Node0x556b8dee5f28&#45;&gt;Node0x556b8dee74b8 -->
<g id="edge61" class="edge">
<title>Node0x556b8dee5f28&#45;&gt;Node0x556b8dee74b8</title>
<path fill="none" stroke="black" d="M133.91,-1287.16C133.59,-1422.55 138.18,-2275.21 302,-2458.02 463.93,-2638.73 588.35,-2593.02 831,-2593.02 831,-2593.02 831,-2593.02 2268.5,-2593.02 2522.73,-2593.02 2591.39,-2463.93 2724,-2247.02 2829.29,-2074.79 2893.55,-1836.7 2913.39,-1756.03"/>
<polygon fill="black" stroke="black" points="2916.84,-1756.68 2915.8,-1746.14 2910.03,-1755.03 2916.84,-1756.68"/>
</g>
<!-- Node0x556b8dee5f28&#45;&gt;Node0x556b8dee6608 -->
<g id="edge63" class="edge">
<title>Node0x556b8dee5f28&#45;&gt;Node0x556b8dee6608</title>
<path fill="none" stroke="black" d="M136,-1250.74C146.85,-1155.02 201.95,-712.82 302,-628.02 474.28,-482.01 1110.85,-633.67 1314,-535.02 1334.93,-524.86 1329.86,-508.67 1350,-497.02 1503.15,-408.5 1561.33,-424.84 1737,-404.02 1877.79,-387.35 1915.23,-387.17 2056,-404.02 2365.41,-441.06 2527.63,-375.07 2724,-617.02 2850.98,-773.48 2907.09,-1442.8 2917.98,-1589.52"/>
<polygon fill="black" stroke="black" points="2914.52,-1590.19 2918.74,-1599.91 2921.5,-1589.68 2914.52,-1590.19"/>
</g>
<!-- Node0x556b8dee5f28&#45;&gt;Node0x556b8dee6928 -->
<g id="edge66" class="edge">
<title>Node0x556b8dee5f28&#45;&gt;Node0x556b8dee6928</title>
<path fill="none" stroke="black" d="M134.18,-1250.66C135.84,-1125.59 151.89,-399.81 302,-255.02 460.02,-102.61 2046.95,-43.02 2266.5,-43.02 2266.5,-43.02 2266.5,-43.02 2602.5,-43.02 2818.34,-43.02 2932.73,35.88 3082,-120.02 3192.13,-235.06 3252.03,-1444.31 3261.24,-1644.9"/>
<polygon fill="black" stroke="black" points="3257.75,-1645.11 3261.7,-1654.94 3264.74,-1644.79 3257.75,-1645.11"/>
</g>
<!-- Node0x556b8dee5f28&#45;&gt;Node0x556b8dee61f8 -->
<g id="edge51" class="edge">
<title>Node0x556b8dee5f28&#45;&gt;Node0x556b8dee61f8</title>
<path fill="none" stroke="black" d="M137.48,-1287.31C150.08,-1349.59 198.11,-1557.1 302,-1692.02 480.37,-1923.67 538.64,-2083.02 831,-2083.02 831,-2083.02 831,-2083.02 1174.5,-2083.02 1291.62,-2083.02 1593.84,-2059.75 1701,-2107.02 1721.7,-2116.16 1718.06,-2130.64 1737,-2143.02 1762.99,-2160.02 1794.36,-2173.51 1822.31,-2183.51"/>
<polygon fill="black" stroke="black" points="1821.44,-2186.92 1832.04,-2186.9 1823.74,-2180.31 1821.44,-2186.92"/>
</g>
<!-- Node0x556b8dee5f28&#45;&gt;Node0x556b8dee5ca8 -->
<g id="edge52" class="edge">
<title>Node0x556b8dee5f28&#45;&gt;Node0x556b8dee5ca8</title>
<path fill="none" stroke="black" d="M266.05,-1268.01C462.55,-1266.49 830.3,-1263.66 1031.73,-1262.11"/>
<polygon fill="black" stroke="black" points="1031.81,-1265.61 1041.78,-1262.03 1031.76,-1258.61 1031.81,-1265.61"/>
</g>
<!-- Node0x556b8dee5f28&#45;&gt;Node0x556b8dee5cf8 -->
<g id="edge54" class="edge">
<title>Node0x556b8dee5f28&#45;&gt;Node0x556b8dee5cf8</title>
<path fill="none" stroke="black" d="M134.4,-1250.71C137.41,-1133.5 160.28,-489.67 302,-372.02 675.23,-62.21 1334.04,-474.99 1490.49,-581.25"/>
<polygon fill="black" stroke="black" points="1488.59,-584.19 1498.82,-586.94 1492.54,-578.41 1488.59,-584.19"/>
</g>
<!-- Node0x556b8dee5f28&#45;&gt;Node0x556b8dee6478 -->
<g id="edge53" class="edge">
<title>Node0x556b8dee5f28&#45;&gt;Node0x556b8dee6478</title>
<path fill="none" stroke="black" d="M133.46,-1250.95C131.83,-1166.17 135.21,-802.79 302,-583.02 326.66,-550.54 366.32,-527.82 400.4,-513.09"/>
<polygon fill="black" stroke="black" points="401.97,-516.22 409.85,-509.14 399.27,-509.76 401.97,-516.22"/>
</g>
<!-- Node0x556b8dee5f28&#45;&gt;Node0x556b8dee7738 -->
<g id="edge60" class="edge">
<title>Node0x556b8dee5f28&#45;&gt;Node0x556b8dee7738</title>
<path fill="none" stroke="black" d="M135.01,-1250.67C141.43,-1141.19 180.23,-575.22 302,-464.02 356.35,-414.4 557.97,-435.17 631,-426.02 650.18,-423.62 670.39,-421 690.28,-418.37"/>
<polygon fill="black" stroke="black" points="690.88,-421.82 700.33,-417.03 689.96,-414.88 690.88,-421.82"/>
</g>
<!-- Node0x556b8dee5f28&#45;&gt;Node0x556b8dee79b8 -->
<g id="edge55" class="edge">
<title>Node0x556b8dee5f28&#45;&gt;Node0x556b8dee79b8</title>
<path fill="none" stroke="black" d="M137.36,-1287.38C148.91,-1345.14 192.5,-1524.74 302,-1616.02 410.4,-1706.4 571.87,-1736.62 687.88,-1746.1"/>
<polygon fill="black" stroke="black" points="687.67,-1749.6 697.91,-1746.88 688.21,-1742.62 687.67,-1749.6"/>
</g>
<!-- Node0x556b8dee5f28&#45;&gt;Node0x556b8dee7288 -->
<g id="edge56" class="edge">
<title>Node0x556b8dee5f28&#45;&gt;Node0x556b8dee7288</title>
<path fill="none" stroke="black" d="M133.82,-1287.31C132.93,-1420.14 134.37,-2236.42 302,-2398.02 472.32,-2562.21 594.43,-2457.02 831,-2457.02 831,-2457.02 831,-2457.02 1526.5,-2457.02 1782.2,-2457.02 1874.37,-2412 2056,-2232.02 2192.5,-2096.78 2246.72,-1858.26 2261.78,-1777.03"/>
<polygon fill="black" stroke="black" points="2265.25,-1777.52 2263.58,-1767.06 2258.36,-1776.28 2265.25,-1777.52"/>
</g>
<!-- Node0x556b8dee5f28&#45;&gt;Node0x556b8dee6748 -->
<g id="edge62" class="edge">
<title>Node0x556b8dee5f28&#45;&gt;Node0x556b8dee6748</title>
<path fill="none" stroke="black" d="M142.4,-1287.12C162.84,-1328.77 219.62,-1431.06 302,-1473.02 365.62,-1505.43 546.54,-1510.31 679.15,-1509.12"/>
<polygon fill="black" stroke="black" points="679.45,-1512.62 689.41,-1509.02 679.37,-1505.62 679.45,-1512.62"/>
</g>
<!-- Node0x556b8dee5f28&#45;&gt;Node0x556b8dee6f68 -->
<g id="edge58" class="edge">
<title>Node0x556b8dee5f28&#45;&gt;Node0x556b8dee6f68</title>
<path fill="none" stroke="black" d="M154.71,-1287.07C184.74,-1311.91 243.23,-1355.44 302,-1372.02 442.73,-1411.73 486.67,-1395.45 631,-1372.02 800.25,-1344.56 843.27,-1325.96 997,-1250.02 1051.31,-1223.2 1108.31,-1181.69 1142.11,-1155.46"/>
<polygon fill="black" stroke="black" points="1144.47,-1158.06 1150.18,-1149.14 1140.15,-1152.55 1144.47,-1158.06"/>
</g>
<!-- Node0x556b8dee5f28&#45;&gt;Node0x556b8dee52f8 -->
<g id="edge59" class="edge">
<title>Node0x556b8dee5f28&#45;&gt;Node0x556b8dee52f8</title>
<path fill="none" stroke="black" d="M134.44,-1250.92C137.19,-1180.03 157.17,-918.92 302,-790.02 418.17,-686.64 853.32,-648.51 997,-708.02 1017.91,-716.68 1015.92,-729.18 1033,-744.02 1067.11,-773.66 1108.8,-804.39 1137.68,-824.89"/>
<polygon fill="black" stroke="black" points="1136.01,-828 1146.2,-830.91 1140.05,-822.28 1136.01,-828"/>
</g>
<!-- Node0x556b8dee5f28&#45;&gt;Node0x556b8dee6c98 -->
<g id="edge65" class="edge">
<title>Node0x556b8dee5f28&#45;&gt;Node0x556b8dee6c98</title>
<path fill="none" stroke="black" d="M133.45,-1287.16C131.45,-1380.15 132.06,-1810.27 302,-2097.02 331.72,-2147.17 386.43,-2187.69 424.34,-2211.54"/>
<polygon fill="black" stroke="black" points="422.76,-2214.68 433.11,-2216.96 426.44,-2208.73 422.76,-2214.68"/>
</g>
<!-- Node0x556b8dee5f28&#45;&gt;Node0x556b8dee7328 -->
<g id="edge72" class="edge">
<title>Node0x556b8dee5f28&#45;&gt;Node0x556b8dee7328</title>
<path fill="none" stroke="black" d="M134.42,-1287.25C137.61,-1409.8 161.95,-2113.51 302,-2262.02 398.2,-2364.04 562.33,-2384.78 682.31,-2384.37"/>
<polygon fill="black" stroke="black" points="682.35,-2387.87 692.32,-2384.29 682.29,-2380.87 682.35,-2387.87"/>
</g>
<!-- Node0x556b8dee7508 -->
<g id="node31" class="node">
<title>Node0x556b8dee7508</title>
<polygon fill="none" stroke="black" points="619,-135.02 314,-135.02 314,-99.02 619,-99.02 619,-135.02"/>
<text text-anchor="middle" x="466.5" y="-113.32" font-family="Times,serif" font-size="14.00">{src/libccache_lib.a(ProgressBar.cpp.o)}</text>
</g>
<!-- Node0x556b8dee5f28&#45;&gt;Node0x556b8dee7508 -->
<g id="edge67" class="edge">
<title>Node0x556b8dee5f28&#45;&gt;Node0x556b8dee7508</title>
<path fill="none" stroke="black" d="M133.98,-1251.02C134.23,-1120.2 142.3,-315.97 302,-149.02 304.71,-146.19 307.59,-143.57 310.61,-141.15"/>
<polygon fill="black" stroke="black" points="312.86,-143.84 318.94,-135.17 308.78,-138.16 312.86,-143.84"/>
</g>
<!-- Node0x556b8dee6838 -->
<g id="node32" class="node">
<title>Node0x556b8dee6838</title>
<polygon fill="none" stroke="black" points="631,-1607.02 302,-1607.02 302,-1571.02 631,-1571.02 631,-1607.02"/>
<text text-anchor="middle" x="466.5" y="-1585.32" font-family="Times,serif" font-size="14.00">{src/libccache_lib.a(ResultRetriever.cpp.o)}</text>
</g>
<!-- Node0x556b8dee5f28&#45;&gt;Node0x556b8dee6838 -->
<g id="edge68" class="edge">
<title>Node0x556b8dee5f28&#45;&gt;Node0x556b8dee6838</title>
<path fill="none" stroke="black" d="M138.83,-1287.12C153.58,-1338.62 203.16,-1486.76 302,-1557.02 306.91,-1560.51 312.1,-1563.65 317.5,-1566.46"/>
<polygon fill="black" stroke="black" points="316.22,-1569.73 326.76,-1570.9 319.25,-1563.42 316.22,-1569.73"/>
</g>
<!-- Node0x556b8dee6fb8 -->
<g id="node33" class="node">
<title>Node0x556b8dee6fb8</title>
<polygon fill="none" stroke="black" points="992,-661.02 672,-661.02 672,-625.02 992,-625.02 992,-661.02"/>
<text text-anchor="middle" x="832" y="-639.32" font-family="Times,serif" font-size="14.00">{src/libccache_lib.a(ResultDumper.cpp.o)}</text>
</g>
<!-- Node0x556b8dee5f28&#45;&gt;Node0x556b8dee6fb8 -->
<g id="edge69" class="edge">
<title>Node0x556b8dee5f28&#45;&gt;Node0x556b8dee6fb8</title>
<path fill="none" stroke="black" d="M136.33,-1250.82C148.44,-1159.35 207.25,-751.3 302,-675.02 355.74,-631.76 528.06,-628.21 661.58,-632.68"/>
<polygon fill="black" stroke="black" points="661.82,-636.19 671.94,-633.05 662.07,-629.2 661.82,-636.19"/>
</g>
<!-- Node0x556b8dee62e8 -->
<g id="node34" class="node">
<title>Node0x556b8dee62e8</title>
<polygon fill="none" stroke="black" points="997,-753.02 667,-753.02 667,-717.02 997,-717.02 997,-753.02"/>
<text text-anchor="middle" x="832" y="-731.32" font-family="Times,serif" font-size="14.00">{src/libccache_lib.a(ResultExtractor.cpp.o)}</text>
</g>
<!-- Node0x556b8dee5f28&#45;&gt;Node0x556b8dee62e8 -->
<g id="edge70" class="edge">
<title>Node0x556b8dee5f28&#45;&gt;Node0x556b8dee62e8</title>
<path fill="none" stroke="black" d="M146.33,-1250.82C198.61,-1175.33 411.12,-885.27 667,-767.02 675.99,-762.87 685.49,-759.26 695.22,-756.11"/>
<polygon fill="black" stroke="black" points="696.46,-759.39 705,-753.12 694.42,-752.7 696.46,-759.39"/>
</g>
<!-- Node0x556b8dee5668 -->
<g id="node35" class="node">
<title>Node0x556b8dee5668</title>
<polygon fill="none" stroke="black" points="603,-1363.02 330,-1363.02 330,-1327.02 603,-1327.02 603,-1363.02"/>
<text text-anchor="middle" x="466.5" y="-1341.32" font-family="Times,serif" font-size="14.00">{src/libccache_lib.a(cleanup.cpp.o)}</text>
</g>
<!-- Node0x556b8dee5f28&#45;&gt;Node0x556b8dee5668 -->
<g id="edge71" class="edge">
<title>Node0x556b8dee5f28&#45;&gt;Node0x556b8dee5668</title>
<path fill="none" stroke="black" d="M212.56,-1287.04C261.92,-1298.35 325.71,-1312.98 376.87,-1324.71"/>
<polygon fill="black" stroke="black" points="376.4,-1328.19 386.93,-1327.01 377.96,-1321.37 376.4,-1328.19"/>
</g>
<!-- Node0x556b8dee7968 -->
<g id="node36" class="node">
<title>Node0x556b8dee7968</title>
<polygon fill="none" stroke="black" points="609.5,-1103.02 323.5,-1103.02 323.5,-1067.02 609.5,-1067.02 609.5,-1103.02"/>
<text text-anchor="middle" x="466.5" y="-1081.32" font-family="Times,serif" font-size="14.00">{src/libccache_lib.a(compress.cpp.o)}</text>
</g>
<!-- Node0x556b8dee5f28&#45;&gt;Node0x556b8dee7968 -->
<g id="edge73" class="edge">
<title>Node0x556b8dee5f28&#45;&gt;Node0x556b8dee7968</title>
<path fill="none" stroke="black" d="M166.69,-1250.88C227.38,-1217.19 357.33,-1145.07 424.07,-1108.02"/>
<polygon fill="black" stroke="black" points="426.01,-1110.95 433.05,-1103.04 422.61,-1104.83 426.01,-1110.95"/>
</g>
<!-- Node0x556b8dee5e88 -->
<g id="node37" class="node">
<title>Node0x556b8dee5e88</title>
<polygon fill="none" stroke="black" points="603,-417.02 330,-417.02 330,-381.02 603,-381.02 603,-417.02"/>
<text text-anchor="middle" x="466.5" y="-395.32" font-family="Times,serif" font-size="14.00">{src/libccache_lib.a(execute.cpp.o)}</text>
</g>
<!-- Node0x556b8dee5f28&#45;&gt;Node0x556b8dee5e88 -->
<g id="edge74" class="edge">
<title>Node0x556b8dee5f28&#45;&gt;Node0x556b8dee5e88</title>
<path fill="none" stroke="black" d="M134.98,-1250.8C141.32,-1139.49 180.28,-552.19 302,-431.02 307.69,-425.36 314.08,-420.54 320.93,-416.46"/>
<polygon fill="black" stroke="black" points="322.69,-419.49 329.85,-411.68 319.38,-413.32 322.69,-419.49"/>
</g>
<!-- Node0x556b8dee5f28&#45;&gt;Node0x556b8dee6518 -->
<g id="edge75" class="edge">
<title>Node0x556b8dee5f28&#45;&gt;Node0x556b8dee6518</title>
<path fill="none" stroke="black" d="M134.1,-1287.43C135.17,-1416.01 148.05,-2179.37 302,-2336.02 410.71,-2446.65 855.45,-2463.42 997,-2400.02 1270.62,-2277.49 1460.74,-1935.1 1511.16,-1836.14"/>
<polygon fill="black" stroke="black" points="1514.35,-1837.58 1515.73,-1827.08 1508.1,-1834.43 1514.35,-1837.58"/>
</g>
<!-- Node0x556b8dee75a8 -->
<g id="node39" class="node">
<title>Node0x556b8dee75a8</title>
<polygon fill="none" stroke="black" points="601.5,-81.02 331.5,-81.02 331.5,-45.02 601.5,-45.02 601.5,-81.02"/>
<text text-anchor="middle" x="466.5" y="-59.32" font-family="Times,serif" font-size="14.00">{src/libccache_lib.a(version.cpp.o)}</text>
</g>
<!-- Node0x556b8dee5f28&#45;&gt;Node0x556b8dee75a8 -->
<g id="edge76" class="edge">
<title>Node0x556b8dee5f28&#45;&gt;Node0x556b8dee75a8</title>
<path fill="none" stroke="black" d="M133.78,-1250.9C132.56,-1115.63 131.77,-264.07 302,-90.02 308.07,-83.82 314.99,-78.7 322.46,-74.49"/>
<polygon fill="black" stroke="black" points="324.1,-77.59 331.47,-69.97 320.96,-71.33 324.1,-77.59"/>
</g>
<!-- Node0x556b8dee6838&#45;&gt;Node0x556b8dee5848 -->
<g id="edge122" class="edge">
<title>Node0x556b8dee6838&#45;&gt;Node0x556b8dee5848</title>
<path fill="none" stroke="black" d="M618.48,-1607.1C622.74,-1608.62 626.92,-1610.26 631,-1612.02 649.85,-1620.19 648.17,-1632.81 667,-1641.02 802.85,-1700.28 886.56,-1590.19 997,-1689.02 1044.23,-1731.3 985.55,-1785 1033,-1827.02 1145.14,-1926.33 1554.9,-1884 1701,-1917.02 1862.63,-1953.56 1899.15,-1977.54 2056,-2031.02 2072.1,-2036.52 2075.24,-2041.09 2092,-2044.02 2245.66,-2070.92 2312.91,-2130.12 2443,-2044.02 2562.88,-1964.68 2591.79,-1773.73 2598.53,-1701.42"/>
<polygon fill="black" stroke="black" points="2602.03,-1701.52 2599.4,-1691.26 2595.06,-1700.92 2602.03,-1701.52"/>
</g>
<!-- Node0x556b8dee6838&#45;&gt;Node0x556b8dee6388 -->
<g id="edge120" class="edge">
<title>Node0x556b8dee6838&#45;&gt;Node0x556b8dee6388</title>
<path fill="none" stroke="black" d="M623.39,-1607.16C625.99,-1608.69 628.53,-1610.3 631,-1612.02 658.73,-1631.36 639.17,-1659.84 667,-1679.02 788.77,-1762.99 887.17,-1622.96 997,-1722.02 1048.55,-1768.52 981.57,-1827.39 1033,-1874.02 1138.33,-1969.53 1208.84,-1900.01 1350,-1917.02 1427.87,-1926.41 1630.68,-1919.29 1701,-1954.02 1721.86,-1964.33 1716.69,-1980.67 1737,-1992.02 1863.46,-2062.71 1920.8,-2006.97 2056,-2059.02 2073.29,-2065.68 2074.12,-2075.19 2092,-2080.02 2242.59,-2120.74 2287.65,-2094.28 2443,-2080.02 2740.56,-2052.72 2810.83,-1996.53 3082,-1871.02 3128.32,-1849.59 3180.7,-1823.88 3217.06,-1805.81"/>
<polygon fill="black" stroke="black" points="3219.01,-1808.75 3226.4,-1801.15 3215.89,-1802.48 3219.01,-1808.75"/>
</g>
<!-- Node0x556b8dee6838&#45;&gt;Node0x556b8dee6928 -->
<g id="edge123" class="edge">
<title>Node0x556b8dee6838&#45;&gt;Node0x556b8dee6928</title>
<path fill="none" stroke="black" d="M631.1,-1586.19C765.36,-1587.23 941.96,-1597.36 997,-1641.02 1035.98,-1671.95 996.89,-1712.8 1033,-1747.02 1039.64,-1753.32 1341.07,-1834.07 1350,-1836.02 1504.3,-1869.88 1565.32,-1811.12 1701,-1892.02 1723.6,-1905.5 1715.27,-1924.19 1737,-1939.02 1858.87,-2022.22 1933.26,-1949.12 2056,-2031.02 2077.3,-2045.24 2068.92,-2064.93 2092,-2076.02 2232.6,-2143.6 2290.75,-2110 2443,-2076.02 2610.5,-2038.64 3080.79,-1776.27 3221.95,-1696.18"/>
<polygon fill="black" stroke="black" points="3223.8,-1699.16 3230.76,-1691.17 3220.34,-1693.07 3223.8,-1699.16"/>
</g>
<!-- Node0x556b8dee6838&#45;&gt;Node0x556b8dee79b8 -->
<g id="edge119" class="edge">
<title>Node0x556b8dee6838&#45;&gt;Node0x556b8dee79b8</title>
<path fill="none" stroke="black" d="M509.4,-1607.16C543.86,-1623.13 593.02,-1648.43 631,-1678.02 649.61,-1692.52 646.4,-1705.53 667,-1717.02 674.02,-1720.94 681.45,-1724.39 689.11,-1727.42"/>
<polygon fill="black" stroke="black" points="687.96,-1730.73 698.55,-1730.91 690.39,-1724.16 687.96,-1730.73"/>
</g>
<!-- Node0x556b8dee6838&#45;&gt;Node0x556b8dee52f8 -->
<g id="edge121" class="edge">
<title>Node0x556b8dee6838&#45;&gt;Node0x556b8dee52f8</title>
<path fill="none" stroke="black" d="M631,-1593.34C767.51,-1593.13 947.49,-1582.7 997,-1532.02 1063.7,-1463.75 1005.5,-1195.42 1033,-1104.02 1060.06,-1014.1 1121.49,-920.16 1153.03,-875.57"/>
<polygon fill="black" stroke="black" points="1155.95,-877.49 1158.92,-867.32 1150.26,-873.43 1155.95,-877.49"/>
</g>
<!-- Node0x556b8dee6fb8&#45;&gt;Node0x556b8dee52f8 -->
<g id="edge125" class="edge">
<title>Node0x556b8dee6fb8&#45;&gt;Node0x556b8dee52f8</title>
<path fill="none" stroke="black" d="M963.49,-661.05C975.14,-664.86 986.49,-669.46 997,-675.02 1065.74,-711.42 1125.14,-783.53 1153.95,-822.51"/>
<polygon fill="black" stroke="black" points="1151.24,-824.74 1159.95,-830.76 1156.9,-820.62 1151.24,-824.74"/>
</g>
<!-- Node0x556b8dee6fb8&#45;&gt;Node0x556b8dee68d8 -->
<g id="edge124" class="edge">
<title>Node0x556b8dee6fb8&#45;&gt;Node0x556b8dee68d8</title>
<path fill="none" stroke="black" d="M936.24,-661.11C956.49,-665.24 977.49,-669.93 997,-675.02 1170.86,-720.47 1371.12,-791.95 1467.22,-827.49"/>
<polygon fill="black" stroke="black" points="1466.15,-830.82 1476.74,-831.02 1468.58,-824.26 1466.15,-830.82"/>
</g>
<!-- Node0x556b8dee62e8&#45;&gt;Node0x556b8dee5848 -->
<g id="edge127" class="edge">
<title>Node0x556b8dee62e8&#45;&gt;Node0x556b8dee5848</title>
<path fill="none" stroke="black" d="M997.02,-740.46C1116.85,-740.98 1266.39,-733.34 1314,-695.02 1356.39,-660.92 1306.9,-611.23 1350,-578.02 1415.37,-527.67 2009.51,-549.69 2092,-548.02 2247.97,-544.87 2325.29,-445.65 2443,-548.02 2528.87,-622.71 2587.93,-1477.25 2598.72,-1644.67"/>
<polygon fill="black" stroke="black" points="2595.24,-1645.14 2599.37,-1654.9 2602.23,-1644.69 2595.24,-1645.14"/>
</g>
<!-- Node0x556b8dee62e8&#45;&gt;Node0x556b8dee6928 -->
<g id="edge128" class="edge">
<title>Node0x556b8dee62e8&#45;&gt;Node0x556b8dee6928</title>
<path fill="none" stroke="black" d="M918.39,-716.99C1048.08,-689.01 1283.01,-635.78 1314,-611.02 1341.33,-589.19 1321.33,-561.07 1350,-541.02 1414.42,-495.98 1623.4,-509.56 1701,-497.02 1953.94,-456.18 2010.28,-385.02 2266.5,-385.02 2266.5,-385.02 2266.5,-385.02 2602.5,-385.02 2823.54,-385.02 2934.84,-352.1 3082,-517.02 3237.34,-691.12 3259.24,-1483.72 3262.1,-1644.52"/>
<polygon fill="black" stroke="black" points="3258.6,-1645.05 3262.27,-1654.99 3265.6,-1644.93 3258.6,-1645.05"/>
</g>
<!-- Node0x556b8dee62e8&#45;&gt;Node0x556b8dee52f8 -->
<g id="edge126" class="edge">
<title>Node0x556b8dee62e8&#45;&gt;Node0x556b8dee52f8</title>
<path fill="none" stroke="black" d="M886.79,-753.09C947.17,-773.36 1045.04,-806.23 1109.09,-827.73"/>
<polygon fill="black" stroke="black" points="1108.08,-831.09 1118.68,-830.95 1110.31,-824.45 1108.08,-831.09"/>
</g>
<!-- Node0x556b8dee5668&#45;&gt;Node0x556b8dee5848 -->
<g id="edge133" class="edge">
<title>Node0x556b8dee5668&#45;&gt;Node0x556b8dee5848</title>
<path fill="none" stroke="black" d="M603.09,-1340.05C934.83,-1328.94 1780.37,-1307.31 2056,-1364.02 2238.13,-1401.5 2286.99,-1421.83 2443,-1523.02 2497.61,-1558.45 2550.09,-1614.18 2578.55,-1646.81"/>
<polygon fill="black" stroke="black" points="2576.07,-1649.3 2585.25,-1654.58 2581.37,-1644.72 2576.07,-1649.3"/>
</g>
<!-- Node0x556b8dee5668&#45;&gt;Node0x556b8dee6388 -->
<g id="edge131" class="edge">
<title>Node0x556b8dee5668&#45;&gt;Node0x556b8dee6388</title>
<path fill="none" stroke="black" d="M543.68,-1363.08C695.87,-1398.33 1048.82,-1475.92 1350,-1511.02 1397.84,-1516.6 3043.63,-1561.92 3082,-1591.02 3122.65,-1621.86 3085.75,-1660.49 3118,-1700.02 3140.11,-1727.13 3173.57,-1747.15 3202.73,-1760.73"/>
<polygon fill="black" stroke="black" points="3201.47,-1764 3212.02,-1764.91 3204.34,-1757.61 3201.47,-1764"/>
</g>
<!-- Node0x556b8dee5668&#45;&gt;Node0x556b8dee5cf8 -->
<g id="edge130" class="edge">
<title>Node0x556b8dee5668&#45;&gt;Node0x556b8dee5cf8</title>
<path fill="none" stroke="black" d="M524.58,-1363.06C677.09,-1407.3 1097.21,-1502.69 1314,-1288.02 1387.8,-1214.95 1311.75,-918.59 1350,-822.02 1381.95,-741.38 1454.84,-667.17 1495.58,-630"/>
<polygon fill="black" stroke="black" points="1497.95,-632.58 1503.04,-623.29 1493.27,-627.38 1497.95,-632.58"/>
</g>
<!-- Node0x556b8dee5668&#45;&gt;Node0x556b8dee6888 -->
<g id="edge134" class="edge">
<title>Node0x556b8dee5668&#45;&gt;Node0x556b8dee6888</title>
<path fill="none" stroke="black" d="M603.13,-1348.47C770.31,-1352.82 1063.1,-1360.72 1314,-1369.02 1456.63,-1373.74 1618.91,-1379.95 1735.72,-1384.57"/>
<polygon fill="black" stroke="black" points="1735.69,-1388.07 1745.82,-1384.97 1735.96,-1381.08 1735.69,-1388.07"/>
</g>
<!-- Node0x556b8dee5668&#45;&gt;Node0x556b8dee6748 -->
<g id="edge132" class="edge">
<title>Node0x556b8dee5668&#45;&gt;Node0x556b8dee6748</title>
<path fill="none" stroke="black" d="M507.14,-1363.19C547.32,-1381.54 611.33,-1410.59 667,-1435.02 704.28,-1451.39 746.54,-1469.41 778.82,-1483.07"/>
<polygon fill="black" stroke="black" points="777.51,-1486.32 788.08,-1486.99 780.23,-1479.87 777.51,-1486.32"/>
</g>
<!-- Node0x556b8dee5668&#45;&gt;Node0x556b8dee5c08 -->
<g id="edge129" class="edge">
<title>Node0x556b8dee5668&#45;&gt;Node0x556b8dee5c08</title>
<path fill="none" stroke="black" d="M521.14,-1327.02C586.77,-1304.99 697.77,-1267.74 767.58,-1244.31"/>
<polygon fill="black" stroke="black" points="768.78,-1247.6 777.14,-1241.1 766.55,-1240.96 768.78,-1247.6"/>
</g>
<!-- Node0x556b8dee7968&#45;&gt;Node0x556b8dee5848 -->
<g id="edge145" class="edge">
<title>Node0x556b8dee7968&#45;&gt;Node0x556b8dee5848</title>
<path fill="none" stroke="black" d="M493.19,-1066.9C528.47,-1040.85 591.98,-989.68 631,-933.02 655.2,-897.88 633.13,-869.98 667,-844.02 745.68,-783.71 2367.66,-605.59 2443,-670.02 2595.74,-800.65 2601.34,-1494.45 2600.74,-1644.43"/>
<polygon fill="black" stroke="black" points="2597.24,-1644.63 2600.69,-1654.65 2604.24,-1644.66 2597.24,-1644.63"/>
</g>
<!-- Node0x556b8dee7968&#45;&gt;Node0x556b8dee6388 -->
<g id="edge138" class="edge">
<title>Node0x556b8dee7968&#45;&gt;Node0x556b8dee6388</title>
<path fill="none" stroke="black" d="M500.94,-1066.93C539.67,-1046.93 605.97,-1015.64 667,-1001.02 962.97,-930.14 1046.29,-971.55 1350,-952.02 1734.54,-927.3 2828.33,-744.97 3082,-1035.02 3130.71,-1090.73 3079.21,-1637.01 3118,-1700.02 3135.38,-1728.26 3166.15,-1747.85 3194.85,-1760.87"/>
<polygon fill="black" stroke="black" points="3193.51,-1764.11 3204.07,-1764.87 3196.29,-1757.68 3193.51,-1764.11"/>
</g>
<!-- Node0x556b8dee7968&#45;&gt;Node0x556b8dee74b8 -->
<g id="edge143" class="edge">
<title>Node0x556b8dee7968&#45;&gt;Node0x556b8dee74b8</title>
<path fill="none" stroke="black" d="M609.76,-1078.19C1002.53,-1060.68 2095.87,-1021.38 2443,-1108.02 2577.43,-1141.58 2645.07,-1129.15 2724,-1243.02 2826.19,-1390.45 2660.08,-1496.05 2760,-1645.02 2779.43,-1673.99 2812.27,-1693.47 2843.17,-1706.23"/>
<polygon fill="black" stroke="black" points="2842.09,-1709.57 2852.68,-1709.98 2844.66,-1703.06 2842.09,-1709.57"/>
</g>
<!-- Node0x556b8dee7968&#45;&gt;Node0x556b8dee6928 -->
<g id="edge146" class="edge">
<title>Node0x556b8dee7968&#45;&gt;Node0x556b8dee6928</title>
<path fill="none" stroke="black" d="M481.89,-1066.9C511.8,-1030.8 584.8,-950.7 667,-919.02 774.3,-877.68 1586.12,-880.91 1701,-876.02 1874.78,-868.63 1918.1,-862.8 2092,-859.02 2201.97,-856.64 2996.21,-790.18 3082,-859.02 3209.1,-961.03 3252.26,-1513.34 3260.81,-1644.89"/>
<polygon fill="black" stroke="black" points="3257.32,-1645.21 3261.45,-1654.97 3264.31,-1644.77 3257.32,-1645.21"/>
</g>
<!-- Node0x556b8dee7968&#45;&gt;Node0x556b8dee5578 -->
<g id="edge135" class="edge">
<title>Node0x556b8dee7968&#45;&gt;Node0x556b8dee5578</title>
<path fill="none" stroke="black" d="M609.79,-1088.16C777.99,-1091.88 1066.37,-1098.3 1314,-1104.02 1331.58,-1104.43 1349.98,-1104.86 1368.27,-1105.29"/>
<polygon fill="black" stroke="black" points="1368.34,-1108.79 1378.42,-1105.53 1368.51,-1101.8 1368.34,-1108.79"/>
</g>
<!-- Node0x556b8dee7968&#45;&gt;Node0x556b8dee5cf8 -->
<g id="edge137" class="edge">
<title>Node0x556b8dee7968&#45;&gt;Node0x556b8dee5cf8</title>
<path fill="none" stroke="black" d="M493.19,-1066.9C528.47,-1040.85 591.98,-989.68 631,-933.02 655.2,-897.88 633.77,-870.79 667,-844.02 894.2,-660.99 1089.16,-918.96 1314,-733.02 1349.12,-703.99 1315.05,-666.27 1350,-637.02 1357.45,-630.79 1365.72,-625.61 1374.48,-621.31"/>
<polygon fill="black" stroke="black" points="1376.08,-624.43 1383.78,-617.14 1373.22,-618.04 1376.08,-624.43"/>
</g>
<!-- Node0x556b8dee7968&#45;&gt;Node0x556b8dee6748 -->
<g id="edge144" class="edge">
<title>Node0x556b8dee7968&#45;&gt;Node0x556b8dee6748</title>
<path fill="none" stroke="black" d="M483.12,-1103.07C540.55,-1169.43 740.18,-1400.08 808.14,-1478.61"/>
<polygon fill="black" stroke="black" points="805.84,-1481.3 815.03,-1486.57 811.13,-1476.72 805.84,-1481.3"/>
</g>
<!-- Node0x556b8dee7968&#45;&gt;Node0x556b8dee5c08 -->
<g id="edge136" class="edge">
<title>Node0x556b8dee7968&#45;&gt;Node0x556b8dee5c08</title>
<path fill="none" stroke="black" d="M493.22,-1103.19C529.95,-1128.21 600.38,-1172.8 667,-1196.02 673.5,-1198.29 680.21,-1200.37 687.04,-1202.27"/>
<polygon fill="black" stroke="black" points="686.55,-1205.77 697.11,-1204.94 688.34,-1199 686.55,-1205.77"/>
</g>
<!-- Node0x556b8dee7968&#45;&gt;Node0x556b8dee6f68 -->
<g id="edge139" class="edge">
<title>Node0x556b8dee7968&#45;&gt;Node0x556b8dee6f68</title>
<path fill="none" stroke="black" d="M609.71,-1095.12C628.97,-1096.46 648.47,-1097.79 667,-1099.02 786.5,-1107 921.93,-1115.55 1022.51,-1121.8"/>
<polygon fill="black" stroke="black" points="1022.55,-1125.31 1032.75,-1122.44 1022.98,-1118.32 1022.55,-1125.31"/>
</g>
<!-- Node0x556b8dee7968&#45;&gt;Node0x556b8dee52f8 -->
<g id="edge142" class="edge">
<title>Node0x556b8dee7968&#45;&gt;Node0x556b8dee52f8</title>
<path fill="none" stroke="black" d="M478.44,-1066.88C504.77,-1025.12 576.26,-922.63 667,-881.02 729.65,-852.3 905.11,-846.76 1031.73,-846.77"/>
<polygon fill="black" stroke="black" points="1031.91,-850.27 1041.91,-846.79 1031.92,-843.27 1031.91,-850.27"/>
</g>
<!-- Node0x556b8dee7968&#45;&gt;Node0x556b8dee68d8 -->
<g id="edge140" class="edge">
<title>Node0x556b8dee7968&#45;&gt;Node0x556b8dee68d8</title>
<path fill="none" stroke="black" d="M503.73,-1066.86C543.04,-1047.86 608.07,-1018.42 667,-1001.02 801.02,-961.47 1188.58,-899.79 1393.66,-868.56"/>
<polygon fill="black" stroke="black" points="1394.22,-872.01 1403.58,-867.05 1393.17,-865.09 1394.22,-872.01"/>
</g>
<!-- Node0x556b8dee7968&#45;&gt;Node0x556b8dee7558 -->
<g id="edge141" class="edge">
<title>Node0x556b8dee7968&#45;&gt;Node0x556b8dee7558</title>
<path fill="none" stroke="black" d="M524.93,-1066.92C564.46,-1055.24 618.41,-1040.81 667,-1033.02 792.32,-1012.94 1129.94,-995.69 1342.24,-986.39"/>
<polygon fill="black" stroke="black" points="1342.41,-989.89 1352.25,-985.95 1342.11,-982.89 1342.41,-989.89"/>
</g>
<!-- Node0x556b8dee69c8 -->
<g id="node42" class="node">
<title>Node0x556b8dee69c8</title>
<polygon fill="none" stroke="black" points="981,-1187.02 683,-1187.02 683,-1151.02 981,-1151.02 981,-1187.02"/>
<text text-anchor="middle" x="832" y="-1165.32" font-family="Times,serif" font-size="14.00">{src/libccache_lib.a(ThreadPool.cpp.o)}</text>
</g>
<!-- Node0x556b8dee7968&#45;&gt;Node0x556b8dee69c8 -->
<g id="edge147" class="edge">
<title>Node0x556b8dee7968&#45;&gt;Node0x556b8dee69c8</title>
<path fill="none" stroke="black" d="M532.39,-1103.03C571.28,-1113.55 621.8,-1126.74 667,-1137.02 685.1,-1141.15 704.4,-1145.21 723.17,-1148.98"/>
<polygon fill="black" stroke="black" points="722.74,-1152.46 733.23,-1150.98 724.11,-1145.6 722.74,-1152.46"/>
</g>
<!-- Node0x556b8dee5e88&#45;&gt;Node0x556b8dee5848 -->
<g id="edge151" class="edge">
<title>Node0x556b8dee5e88&#45;&gt;Node0x556b8dee5848</title>
<path fill="none" stroke="black" d="M537.82,-380.99C569.15,-370.22 604.8,-353.88 631,-330.02 656,-307.27 639.64,-282.87 667,-263.02 903.47,-91.48 1030.91,-219.18 1314,-147.02 1330.34,-142.86 1333.35,-137.73 1350,-135.02 1594.14,-95.41 2282.43,-156.9 2443,-345.02 2530.7,-447.78 2589.12,-1461.38 2599.01,-1644.68"/>
<polygon fill="black" stroke="black" points="2595.52,-1645.07 2599.55,-1654.86 2602.51,-1644.69 2595.52,-1645.07"/>
</g>
<!-- Node0x556b8dee5e88&#45;&gt;Node0x556b8dee6388 -->
<g id="edge148" class="edge">
<title>Node0x556b8dee5e88&#45;&gt;Node0x556b8dee6388</title>
<path fill="none" stroke="black" d="M513.79,-380.94C553.93,-365.65 613.77,-343.78 667,-328.02 950.43,-244.13 1027.77,-247.82 1314,-174.02 1330.08,-169.88 1333.61,-166.67 1350,-164.02 1450.65,-147.78 2164.54,-119.02 2266.5,-119.02 2266.5,-119.02 2266.5,-119.02 2602.5,-119.02 2832.23,-119.02 2950.96,-123.34 3082,-312.02 3170,-438.74 3038.99,-1567.52 3118,-1700.02 3134.91,-1728.39 3165.47,-1747.96 3194.15,-1760.94"/>
<polygon fill="black" stroke="black" points="3192.8,-1764.17 3203.37,-1764.93 3195.58,-1757.75 3192.8,-1764.17"/>
</g>
<!-- Node0x556b8dee5e88&#45;&gt;Node0x556b8dee74b8 -->
<g id="edge150" class="edge">
<title>Node0x556b8dee5e88&#45;&gt;Node0x556b8dee74b8</title>
<path fill="none" stroke="black" d="M590.79,-381C615.97,-377.7 642.31,-374.51 667,-372.02 738.68,-364.8 1255.2,-370.66 1314,-329.02 1347.15,-305.55 1316.53,-268.04 1350,-245.02 1414.65,-200.57 1978.35,-218.73 2056,-230.02 2233.57,-255.85 2288.09,-254.47 2443,-345.02 2593.06,-432.74 2653.39,-458.2 2724,-617.02 2770.43,-721.46 2698.94,-1548.41 2760,-1645.02 2778.41,-1674.15 2810.58,-1693.58 2841.27,-1706.26"/>
<polygon fill="black" stroke="black" points="2840.15,-1709.58 2850.73,-1709.98 2842.71,-1703.06 2840.15,-1709.58"/>
</g>
<!-- Node0x556b8dee5e88&#45;&gt;Node0x556b8dee6928 -->
<g id="edge152" class="edge">
<title>Node0x556b8dee5e88&#45;&gt;Node0x556b8dee6928</title>
<path fill="none" stroke="black" d="M551.18,-380.99C586.77,-373.75 628.79,-365.79 667,-360.02 702.74,-354.64 1284.63,-312.1 1314,-291.02 1345.02,-268.77 1318.48,-234.57 1350,-213.02 1434.22,-155.44 2164.48,-157.02 2266.5,-157.02 2266.5,-157.02 2266.5,-157.02 2602.5,-157.02 2816.59,-157.02 2928.62,-53.66 3082,-203.02 3189.8,-308 3251.37,-1449.99 3261.13,-1644.83"/>
<polygon fill="black" stroke="black" points="3257.63,-1645.04 3261.62,-1654.86 3264.62,-1644.69 3257.63,-1645.04"/>
</g>
<!-- Node0x556b8dee5e88&#45;&gt;Node0x556b8dee7738 -->
<g id="edge149" class="edge">
<title>Node0x556b8dee5e88&#45;&gt;Node0x556b8dee7738</title>
<path fill="none" stroke="black" d="M603.11,-399.02C622.44,-399.02 642.52,-399.02 662.38,-399.02"/>
<polygon fill="black" stroke="black" points="662.43,-402.52 672.43,-399.02 662.43,-395.52 662.43,-402.52"/>
</g>
<!-- Node0x556b8dee6518&#45;&gt;Node0x556b8dee5848 -->
<g id="edge81" class="edge">
<title>Node0x556b8dee6518&#45;&gt;Node0x556b8dee5848</title>
<path fill="none" stroke="black" d="M1627.64,-1827.05C1651.71,-1831.48 1677.29,-1836.31 1701,-1841.02 1859.26,-1872.47 1930.94,-1815.07 2056,-1917.02 2086.85,-1942.18 2058.68,-1977.26 2092,-1999.02 2222.61,-2084.33 2310.86,-2081.94 2443,-1999.02 2550.68,-1931.46 2586.52,-1767.19 2596.83,-1701.18"/>
<polygon fill="black" stroke="black" points="2600.32,-1701.5 2598.32,-1691.1 2593.39,-1700.48 2600.32,-1701.5"/>
</g>
<!-- Node0x556b8dee6518&#45;&gt;Node0x556b8dee6388 -->
<g id="edge79" class="edge">
<title>Node0x556b8dee6518&#45;&gt;Node0x556b8dee6388</title>
<path fill="none" stroke="black" d="M1663.19,-1822.78C1676.58,-1827.39 1689.45,-1833.36 1701,-1841.02 1725.34,-1857.19 1712.68,-1879.84 1737,-1896.02 1857.04,-1975.89 1944.31,-1863.84 2056,-1955.02 2089.05,-1982.01 2056.62,-2020.17 2092,-2044.02 2269.27,-2163.54 3013.02,-1954.11 3082,-1923.02 3144.59,-1894.82 3205.07,-1840.73 3237.68,-1808.67"/>
<polygon fill="black" stroke="black" points="3240.35,-1810.95 3244.97,-1801.41 3235.41,-1805.99 3240.35,-1810.95"/>
</g>
<!-- Node0x556b8dee6518&#45;&gt;Node0x556b8dee74b8 -->
<g id="edge80" class="edge">
<title>Node0x556b8dee6518&#45;&gt;Node0x556b8dee74b8</title>
<path fill="none" stroke="black" d="M1627.64,-1827.05C1651.71,-1831.48 1677.29,-1836.31 1701,-1841.02 1859.26,-1872.47 1930.94,-1815.07 2056,-1917.02 2086.85,-1942.18 2058.68,-1977.26 2092,-1999.02 2222.61,-2084.33 2291.77,-2037.31 2443,-1999.02 2629.32,-1951.86 2818.29,-1810.66 2889.96,-1752.98"/>
<polygon fill="black" stroke="black" points="2892.55,-1755.39 2898.11,-1746.38 2888.14,-1749.95 2892.55,-1755.39"/>
</g>
<!-- Node0x556b8dee6518&#45;&gt;Node0x556b8dee61f8 -->
<g id="edge77" class="edge">
<title>Node0x556b8dee6518&#45;&gt;Node0x556b8dee61f8</title>
<path fill="none" stroke="black" d="M1543.31,-1827.07C1602.62,-1890.72 1802.22,-2104.92 1871.54,-2179.31"/>
<polygon fill="black" stroke="black" points="1869.21,-2181.94 1878.59,-2186.87 1874.33,-2177.17 1869.21,-2181.94"/>
</g>
<!-- Node0x556b8dee6518&#45;&gt;Node0x556b8dee6888 -->
<g id="edge82" class="edge">
<title>Node0x556b8dee6518&#45;&gt;Node0x556b8dee6888</title>
<path fill="none" stroke="black" d="M1542.59,-1790.8C1601.21,-1724.39 1803.49,-1495.25 1872.34,-1417.26"/>
<polygon fill="black" stroke="black" points="1875.33,-1419.16 1879.32,-1409.35 1870.08,-1414.53 1875.33,-1419.16"/>
</g>
<!-- Node0x556b8dee6518&#45;&gt;Node0x556b8dee7288 -->
<g id="edge78" class="edge">
<title>Node0x556b8dee6518&#45;&gt;Node0x556b8dee7288</title>
<path fill="none" stroke="black" d="M1663.09,-1797.95C1796.08,-1787.17 1997.07,-1770.87 2130.02,-1760.09"/>
<polygon fill="black" stroke="black" points="2130.59,-1763.56 2140.27,-1759.26 2130.02,-1756.58 2130.59,-1763.56"/>
</g>
<!-- Node0x556b8dee68d8&#45;&gt;Node0x556b8dee76e8 -->
<g id="edge115" class="edge">
<title>Node0x556b8dee68d8&#45;&gt;Node0x556b8dee76e8</title>
<path fill="none" stroke="black" d="M1648.14,-830.93C1666.05,-827.05 1684.14,-822.45 1701,-817.02 1717.84,-811.61 1720.12,-805.34 1737,-800.02 1744.57,-797.64 1752.42,-795.45 1760.38,-793.45"/>
<polygon fill="black" stroke="black" points="1761.25,-796.84 1770.15,-791.09 1759.6,-790.04 1761.25,-796.84"/>
</g>
<!-- Node0x556b8dee68d8&#45;&gt;Node0x556b8dee6d38 -->
<g id="edge116" class="edge">
<title>Node0x556b8dee68d8&#45;&gt;Node0x556b8dee6d38</title>
<path fill="none" stroke="black" d="M1701,-838.62C1709.58,-838.11 1718.19,-837.6 1726.75,-837.09"/>
<polygon fill="black" stroke="black" points="1726.99,-840.58 1736.77,-836.49 1726.58,-833.59 1726.99,-840.58"/>
</g>
<!-- Node0x556b8dee7558&#45;&gt;Node0x556b8dee6b08 -->
<g id="edge117" class="edge">
<title>Node0x556b8dee7558&#45;&gt;Node0x556b8dee6b08</title>
<path fill="none" stroke="black" d="M1698.58,-968.77C1710.76,-968.04 1723.02,-967.31 1735.13,-966.59"/>
<polygon fill="black" stroke="black" points="1735.5,-970.07 1745.27,-965.98 1735.08,-963.08 1735.5,-970.07"/>
</g>
</g>
</svg>
