<?xml version="1.0" encoding="UTF-8" standalone="no"?>
<!DOCTYPE svg PUBLIC "-//W3C//DTD SVG 1.1//EN"
 "http://www.w3.org/Graphics/SVG/1.1/DTD/svg11.dtd">
<!-- Generated by graphviz version 2.43.0 (0)
 -->
<!-- Title: bin/llvm&#45;opt&#45;report Pages: 1 -->
<svg width="622pt" height="211pt"
 viewBox="0.00 0.00 622.00 211.00" xmlns="http://www.w3.org/2000/svg" xmlns:xlink="http://www.w3.org/1999/xlink">
<g id="graph0" class="graph" transform="scale(1 1) rotate(0) translate(4 207)">
<title>bin/llvm&#45;opt&#45;report</title>
<polygon fill="white" stroke="transparent" points="-4,4 -4,-207 618,-207 618,4 -4,4"/>
<text text-anchor="middle" x="307" y="-7.8" font-family="Times,serif" font-size="14.00">bin/llvm&#45;opt&#45;report</text>
<!-- Node0x5617823d9338 -->
<g id="node1" class="node">
<title>Node0x5617823d9338</title>
<polygon fill="#ff7f7f" stroke="black" points="579,-203 49,-203 49,-167 579,-167 579,-203"/>
<text text-anchor="middle" x="314" y="-181.3" font-family="Times,serif" font-size="14.00">{tools/llvm&#45;opt&#45;report/CMakeFiles/llvm&#45;opt&#45;report.dir/OptReport.cpp.o}</text>
</g>
<!-- Node0x5617823d93d8 -->
<g id="node2" class="node">
<title>Node0x5617823d93d8</title>
<polygon fill="none" stroke="black" points="200,-131 0,-131 0,-95 200,-95 200,-131"/>
<text text-anchor="middle" x="100" y="-109.3" font-family="Times,serif" font-size="14.00">{lib/libLLVMDemangle.a}</text>
</g>
<!-- Node0x5617823d9338&#45;&gt;Node0x5617823d93d8 -->
<g id="edge1" class="edge">
<title>Node0x5617823d9338&#45;&gt;Node0x5617823d93d8</title>
<path fill="none" stroke="black" d="M261.92,-166.97C231.76,-157.1 193.61,-144.62 161.92,-134.25"/>
<polygon fill="black" stroke="black" points="162.9,-130.89 152.31,-131.11 160.73,-137.55 162.9,-130.89"/>
</g>
<!-- Node0x5617823d8938 -->
<g id="node3" class="node">
<title>Node0x5617823d8938</title>
<polygon fill="#ff7f7f" stroke="black" points="409.5,-131 218.5,-131 218.5,-95 409.5,-95 409.5,-131"/>
<text text-anchor="middle" x="314" y="-109.3" font-family="Times,serif" font-size="14.00">{lib/libLLVMRemarks.a}</text>
</g>
<!-- Node0x5617823d9338&#45;&gt;Node0x5617823d8938 -->
<g id="edge2" class="edge">
<title>Node0x5617823d9338&#45;&gt;Node0x5617823d8938</title>
<path fill="none" stroke="#ff7f7f" d="M308.08,-166.7C307.29,-158.98 307.06,-149.71 307.4,-141.11"/>
<polygon fill="#ff7f7f" stroke="#ff7f7f" points="310.9,-141.32 308.1,-131.1 303.92,-140.84 310.9,-141.32"/>
</g>
<!-- Node0x5617823d83e8 -->
<g id="node4" class="node">
<title>Node0x5617823d83e8</title>
<polygon fill="#ff7f7f" stroke="black" points="614,-131 428,-131 428,-95 614,-95 614,-131"/>
<text text-anchor="middle" x="521" y="-109.3" font-family="Times,serif" font-size="14.00">{lib/libLLVMSupport.a}</text>
</g>
<!-- Node0x5617823d9338&#45;&gt;Node0x5617823d83e8 -->
<g id="edge3" class="edge">
<title>Node0x5617823d9338&#45;&gt;Node0x5617823d83e8</title>
<path fill="none" stroke="#ff7f7f" d="M358.49,-166.97C386.62,-157.1 423.42,-144.62 454.92,-134.25"/>
<polygon fill="#ff7f7f" stroke="#ff7f7f" points="456.09,-137.55 464.51,-131.11 453.91,-130.9 456.09,-137.55"/>
</g>
<!-- Node0x5617823d8938&#45;&gt;Node0x5617823d9338 -->
<g id="edge5" class="edge">
<title>Node0x5617823d8938&#45;&gt;Node0x5617823d9338</title>
<path fill="none" stroke="#ff7f7f" d="M319.9,-131.1C320.7,-138.79 320.94,-148.05 320.6,-156.67"/>
<polygon fill="#ff7f7f" stroke="#ff7f7f" points="317.11,-156.48 319.92,-166.7 324.09,-156.96 317.11,-156.48"/>
</g>
<!-- Node0x5617823d8938&#45;&gt;Node0x5617823d83e8 -->
<g id="edge4" class="edge">
<title>Node0x5617823d8938&#45;&gt;Node0x5617823d83e8</title>
<path fill="none" stroke="#ff7f7f" d="M409.82,-99.57C412.42,-99.52 415.01,-99.5 417.61,-99.5"/>
<polygon fill="#ff7f7f" stroke="#ff7f7f" points="417.58,-103 427.62,-99.63 417.67,-96 417.58,-103"/>
</g>
<!-- Node0x5617823d97e8 -->
<g id="node5" class="node">
<title>Node0x5617823d97e8</title>
<polygon fill="#ff7f7f" stroke="black" points="438.5,-59 189.5,-59 189.5,-23 438.5,-23 438.5,-59"/>
<text text-anchor="middle" x="314" y="-37.3" font-family="Times,serif" font-size="14.00">{lib/libLLVMBitstreamReader.a}</text>
</g>
<!-- Node0x5617823d8938&#45;&gt;Node0x5617823d97e8 -->
<g id="edge6" class="edge">
<title>Node0x5617823d8938&#45;&gt;Node0x5617823d97e8</title>
<path fill="none" stroke="#ff7f7f" d="M308.08,-94.7C307.29,-86.98 307.06,-77.71 307.4,-69.11"/>
<polygon fill="#ff7f7f" stroke="#ff7f7f" points="310.9,-69.32 308.1,-59.1 303.92,-68.84 310.9,-69.32"/>
</g>
<!-- Node0x5617823d83e8&#45;&gt;Node0x5617823d9338 -->
<g id="edge7" class="edge">
<title>Node0x5617823d83e8&#45;&gt;Node0x5617823d9338</title>
<path fill="none" stroke="#ff7f7f" d="M476.3,-131.11C448.12,-140.99 411.31,-153.47 379.84,-163.83"/>
<polygon fill="#ff7f7f" stroke="#ff7f7f" points="378.67,-160.52 370.26,-166.97 380.85,-167.18 378.67,-160.52"/>
</g>
<!-- Node0x5617823d83e8&#45;&gt;Node0x5617823d8938 -->
<g id="edge8" class="edge">
<title>Node0x5617823d83e8&#45;&gt;Node0x5617823d8938</title>
<path fill="none" stroke="#ff7f7f" d="M427.62,-126.37C425.03,-126.44 422.43,-126.48 419.83,-126.49"/>
<polygon fill="#ff7f7f" stroke="#ff7f7f" points="419.84,-122.99 409.82,-126.43 419.79,-129.99 419.84,-122.99"/>
</g>
<!-- Node0x5617823d97e8&#45;&gt;Node0x5617823d8938 -->
<g id="edge9" class="edge">
<title>Node0x5617823d97e8&#45;&gt;Node0x5617823d8938</title>
<path fill="none" stroke="#ff7f7f" d="M319.9,-59.1C320.7,-66.79 320.94,-76.05 320.6,-84.67"/>
<polygon fill="#ff7f7f" stroke="#ff7f7f" points="317.11,-84.48 319.92,-94.7 324.09,-84.96 317.11,-84.48"/>
</g>
<!-- Node0x5617823d97e8&#45;&gt;Node0x5617823d83e8 -->
<g id="edge10" class="edge">
<title>Node0x5617823d97e8&#45;&gt;Node0x5617823d83e8</title>
<path fill="none" stroke="#ff7f7f" d="M364.6,-59.11C393.69,-68.95 430.4,-81.36 460.94,-91.69"/>
<polygon fill="#ff7f7f" stroke="#ff7f7f" points="460.03,-95.08 470.63,-94.97 462.28,-88.45 460.03,-95.08"/>
</g>
</g>
</svg>
