<?xml version="1.0" encoding="UTF-8" standalone="no"?>
<!DOCTYPE svg PUBLIC "-//W3C//DTD SVG 1.1//EN"
 "http://www.w3.org/Graphics/SVG/1.1/DTD/svg11.dtd">
<!-- Generated by graphviz version 2.43.0 (0)
 -->
<!-- Title: bin/llvm&#45;special&#45;case&#45;list&#45;fuzzer Pages: 1 -->
<svg width="2550pt" height="433pt"
 viewBox="0.00 0.00 2550.00 433.00" xmlns="http://www.w3.org/2000/svg" xmlns:xlink="http://www.w3.org/1999/xlink">
<g id="graph0" class="graph" transform="scale(1 1) rotate(0) translate(4 429)">
<title>bin/llvm&#45;special&#45;case&#45;list&#45;fuzzer</title>
<polygon fill="white" stroke="transparent" points="-4,4 -4,-429 2546,-429 2546,4 -4,4"/>
<text text-anchor="middle" x="1271" y="-7.8" font-family="Times,serif" font-size="14.00">bin/llvm&#45;special&#45;case&#45;list&#45;fuzzer</text>
<!-- Node0x564595608438 -->
<g id="node1" class="node">
<title>Node0x564595608438</title>
<polygon fill="none" stroke="black" points="802,-388.5 802,-424.5 1630,-424.5 1630,-388.5 802,-388.5"/>
<text text-anchor="middle" x="1216" y="-402.8" font-family="Times,serif" font-size="14.00">tools/llvm&#45;special&#45;case&#45;list&#45;fuzzer/CMakeFiles/llvm&#45;special&#45;case&#45;list&#45;fuzzer.dir/DummySpecialCaseListFuzzer.cpp.o</text>
</g>
<!-- Node0x564595608c08 -->
<g id="node2" class="node">
<title>Node0x564595608c08</title>
<polygon fill="none" stroke="black" points="579,-315.5 579,-351.5 1351,-351.5 1351,-315.5 579,-315.5"/>
<text text-anchor="middle" x="965" y="-329.8" font-family="Times,serif" font-size="14.00">tools/llvm&#45;special&#45;case&#45;list&#45;fuzzer/CMakeFiles/llvm&#45;special&#45;case&#45;list&#45;fuzzer.dir/special&#45;case&#45;list&#45;fuzzer.cpp.o</text>
</g>
<!-- Node0x564595608438&#45;&gt;Node0x564595608c08 -->
<g id="edge1" class="edge">
<title>Node0x564595608438&#45;&gt;Node0x564595608c08</title>
<path fill="none" stroke="black" d="M1155.88,-388.49C1119.67,-378.25 1073.38,-365.16 1035.45,-354.43"/>
<polygon fill="black" stroke="black" points="1036.08,-350.97 1025.5,-351.61 1034.17,-357.7 1036.08,-350.97"/>
</g>
<!-- Node0x56459560c538 -->
<g id="node3" class="node">
<title>Node0x56459560c538</title>
<polygon fill="none" stroke="black" points="1369,-315.5 1369,-351.5 1565,-351.5 1565,-315.5 1369,-315.5"/>
<text text-anchor="middle" x="1467" y="-329.8" font-family="Times,serif" font-size="14.00">lib/libLLVMFuzzMutate.a</text>
</g>
<!-- Node0x564595608438&#45;&gt;Node0x56459560c538 -->
<g id="edge2" class="edge">
<title>Node0x564595608438&#45;&gt;Node0x56459560c538</title>
<path fill="none" stroke="black" d="M1276.12,-388.49C1312.33,-378.25 1358.62,-365.16 1396.55,-354.43"/>
<polygon fill="black" stroke="black" points="1397.83,-357.7 1406.5,-351.61 1395.92,-350.97 1397.83,-357.7"/>
</g>
<!-- Node0x56459560ca88 -->
<g id="node4" class="node">
<title>Node0x56459560ca88</title>
<polygon fill="#ff7f7f" stroke="black" points="1638,-242.5 1638,-278.5 1806,-278.5 1806,-242.5 1638,-242.5"/>
<text text-anchor="middle" x="1722" y="-256.8" font-family="Times,serif" font-size="14.00">lib/libLLVMSupport.a</text>
</g>
<!-- Node0x564595608c08&#45;&gt;Node0x56459560ca88 -->
<g id="edge3" class="edge">
<title>Node0x564595608c08&#45;&gt;Node0x56459560ca88</title>
<path fill="none" stroke="black" d="M1146.32,-315.49C1297.63,-301.3 1507.26,-281.64 1627.34,-270.38"/>
<polygon fill="black" stroke="black" points="1627.98,-273.83 1637.61,-269.42 1627.32,-266.86 1627.98,-273.83"/>
</g>
<!-- Node0x56459560c538&#45;&gt;Node0x56459560ca88 -->
<g id="edge4" class="edge">
<title>Node0x56459560c538&#45;&gt;Node0x56459560ca88</title>
<path fill="none" stroke="black" d="M1528.08,-315.49C1564.87,-305.25 1611.89,-292.16 1650.42,-281.43"/>
<polygon fill="black" stroke="black" points="1651.84,-284.67 1660.54,-278.61 1649.96,-277.92 1651.84,-284.67"/>
</g>
<!-- Node0x56459560bea8 -->
<g id="node5" class="node">
<title>Node0x56459560bea8</title>
<polygon fill="#ff7f7f" stroke="black" points="1767,-96.5 1767,-132.5 1943,-132.5 1943,-96.5 1767,-96.5"/>
<text text-anchor="middle" x="1855" y="-110.8" font-family="Times,serif" font-size="14.00">lib/libLLVMBitWriter.a</text>
</g>
<!-- Node0x56459560ca88&#45;&gt;Node0x56459560bea8 -->
<g id="edge5" class="edge">
<title>Node0x56459560ca88&#45;&gt;Node0x56459560bea8</title>
<path fill="none" stroke="#ff7f7f" d="M1766.46,-242.41C1784.59,-234.04 1804.36,-222.2 1818,-206 1833.08,-188.08 1840.05,-162.1 1844.81,-142.56"/>
<polygon fill="#ff7f7f" stroke="#ff7f7f" points="1848.24,-143.28 1847.2,-132.74 1841.44,-141.63 1848.24,-143.28"/>
</g>
<!-- Node0x56459560cdf8 -->
<g id="node6" class="node">
<title>Node0x56459560cdf8</title>
<polygon fill="#ff7f7f" stroke="black" points="1626.5,-169.5 1626.5,-205.5 1817.5,-205.5 1817.5,-169.5 1626.5,-169.5"/>
<text text-anchor="middle" x="1722" y="-183.8" font-family="Times,serif" font-size="14.00">lib/libLLVMProfileData.a</text>
</g>
<!-- Node0x56459560ca88&#45;&gt;Node0x56459560cdf8 -->
<g id="edge6" class="edge">
<title>Node0x56459560ca88&#45;&gt;Node0x56459560cdf8</title>
<path fill="none" stroke="#ff7f7f" d="M1716.12,-242.31C1715.28,-234.29 1715.05,-224.55 1715.42,-215.57"/>
<polygon fill="#ff7f7f" stroke="#ff7f7f" points="1718.92,-215.75 1716.14,-205.53 1711.94,-215.25 1718.92,-215.75"/>
</g>
<!-- Node0x56459560bea8&#45;&gt;Node0x56459560ca88 -->
<g id="edge7" class="edge">
<title>Node0x56459560bea8&#45;&gt;Node0x56459560ca88</title>
<path fill="none" stroke="#ff7f7f" d="M1860.11,-132.74C1860.29,-152.49 1853.8,-184.86 1836,-206 1824.6,-219.54 1808.91,-230.04 1792.79,-238.01"/>
<polygon fill="#ff7f7f" stroke="#ff7f7f" points="1790.88,-235.03 1783.28,-242.41 1793.82,-241.39 1790.88,-235.03"/>
</g>
<!-- Node0x56459560b408 -->
<g id="node7" class="node">
<title>Node0x56459560b408</title>
<polygon fill="#ff7f7f" stroke="black" points="1886,-23.5 1886,-59.5 2056,-59.5 2056,-23.5 1886,-23.5"/>
<text text-anchor="middle" x="1971" y="-37.8" font-family="Times,serif" font-size="14.00">lib/libLLVMAnalysis.a</text>
</g>
<!-- Node0x56459560bea8&#45;&gt;Node0x56459560b408 -->
<g id="edge8" class="edge">
<title>Node0x56459560bea8&#45;&gt;Node0x56459560b408</title>
<path fill="none" stroke="#ff7f7f" d="M1876.93,-96.49C1891.44,-86.99 1910.82,-75.04 1928.26,-64.79"/>
<polygon fill="#ff7f7f" stroke="#ff7f7f" points="1930.28,-67.67 1937.17,-59.61 1926.77,-61.61 1930.28,-67.67"/>
</g>
<!-- Node0x56459560cdf8&#45;&gt;Node0x56459560ca88 -->
<g id="edge16" class="edge">
<title>Node0x56459560cdf8&#45;&gt;Node0x56459560ca88</title>
<path fill="none" stroke="#ff7f7f" d="M1727.86,-205.53C1728.71,-213.53 1728.95,-223.27 1728.59,-232.25"/>
<polygon fill="#ff7f7f" stroke="#ff7f7f" points="1725.09,-232.09 1727.88,-242.31 1732.07,-232.58 1725.09,-232.09"/>
</g>
<!-- Node0x56459560cdf8&#45;&gt;Node0x56459560bea8 -->
<g id="edge17" class="edge">
<title>Node0x56459560cdf8&#45;&gt;Node0x56459560bea8</title>
<path fill="none" stroke="#ff7f7f" d="M1753.86,-169.49C1771.9,-159.86 1794.67,-147.71 1814.03,-137.37"/>
<polygon fill="#ff7f7f" stroke="#ff7f7f" points="1815.77,-140.41 1822.94,-132.61 1812.47,-134.24 1815.77,-140.41"/>
</g>
<!-- Node0x56459560b408&#45;&gt;Node0x56459560ca88 -->
<g id="edge9" class="edge">
<title>Node0x56459560b408&#45;&gt;Node0x56459560ca88</title>
<path fill="none" stroke="#ff7f7f" d="M1970.82,-59.8C1969.88,-79.03 1966.07,-110.37 1952,-133 1917.92,-187.84 1851.11,-220.72 1798.24,-239.16"/>
<polygon fill="#ff7f7f" stroke="#ff7f7f" points="1796.9,-235.92 1788.54,-242.43 1799.14,-242.55 1796.9,-235.92"/>
</g>
<!-- Node0x56459560b408&#45;&gt;Node0x56459560bea8 -->
<g id="edge10" class="edge">
<title>Node0x56459560b408&#45;&gt;Node0x56459560bea8</title>
<path fill="none" stroke="#ff7f7f" d="M1948.91,-59.61C1934.36,-69.13 1914.97,-81.09 1897.54,-91.32"/>
<polygon fill="#ff7f7f" stroke="#ff7f7f" points="1895.53,-88.44 1888.64,-96.49 1899.05,-94.5 1895.53,-88.44"/>
</g>
<!-- Node0x56459560b8b8 -->
<g id="node8" class="node">
<title>Node0x56459560b8b8</title>
<polygon fill="none" stroke="black" points="1583.5,-315.5 1583.5,-351.5 1740.5,-351.5 1740.5,-315.5 1583.5,-315.5"/>
<text text-anchor="middle" x="1662" y="-329.8" font-family="Times,serif" font-size="14.00">lib/libLLVMObject.a</text>
</g>
<!-- Node0x56459560b8b8&#45;&gt;Node0x56459560ca88 -->
<g id="edge11" class="edge">
<title>Node0x56459560b8b8&#45;&gt;Node0x56459560ca88</title>
<path fill="none" stroke="black" d="M1676.52,-315.31C1683.89,-306.59 1692.98,-295.84 1701.09,-286.25"/>
<polygon fill="black" stroke="black" points="1703.83,-288.43 1707.61,-278.53 1698.48,-283.91 1703.83,-288.43"/>
</g>
<!-- Node0x56459560bef8 -->
<g id="node9" class="node">
<title>Node0x56459560bef8</title>
<polygon fill="none" stroke="black" points="2198.5,-315.5 2198.5,-351.5 2379.5,-351.5 2379.5,-315.5 2198.5,-315.5"/>
<text text-anchor="middle" x="2289" y="-329.8" font-family="Times,serif" font-size="14.00">lib/libLLVMBitReader.a</text>
</g>
<!-- Node0x56459560bef8&#45;&gt;Node0x56459560ca88 -->
<g id="edge12" class="edge">
<title>Node0x56459560bef8&#45;&gt;Node0x56459560ca88</title>
<path fill="none" stroke="black" d="M2198.4,-316.26C2195.57,-315.82 2192.76,-315.4 2190,-315 2060.97,-296.24 1911.13,-280.09 1816.45,-270.58"/>
<polygon fill="black" stroke="black" points="1816.62,-267.08 1806.32,-269.57 1815.92,-274.05 1816.62,-267.08"/>
</g>
<!-- Node0x56459560bef8&#45;&gt;Node0x56459560b408 -->
<g id="edge13" class="edge">
<title>Node0x56459560bef8&#45;&gt;Node0x56459560b408</title>
<path fill="none" stroke="black" d="M2270.06,-315.23C2215.82,-265.76 2059.8,-123.48 1997.33,-66.51"/>
<polygon fill="black" stroke="black" points="1999.59,-63.83 1989.84,-59.68 1994.87,-69.01 1999.59,-63.83"/>
</g>
<!-- Node0x56459560c3f8 -->
<g id="node10" class="node">
<title>Node0x56459560c3f8</title>
<polygon fill="none" stroke="black" points="0,-315.5 0,-351.5 180,-351.5 180,-315.5 0,-315.5"/>
<text text-anchor="middle" x="90" y="-329.8" font-family="Times,serif" font-size="14.00">lib/libLLVMMCParser.a</text>
</g>
<!-- Node0x56459560c3f8&#45;&gt;Node0x56459560ca88 -->
<g id="edge14" class="edge">
<title>Node0x56459560c3f8&#45;&gt;Node0x56459560ca88</title>
<path fill="none" stroke="black" d="M180.03,-316.03C183.05,-315.66 186.05,-315.31 189,-315 470.04,-285.4 1338.73,-268.11 1627.54,-263.06"/>
<polygon fill="black" stroke="black" points="1627.63,-266.56 1637.57,-262.89 1627.51,-259.56 1627.63,-266.56"/>
</g>
<!-- Node0x56459560c3f8&#45;&gt;Node0x56459560bea8 -->
<g id="edge15" class="edge">
<title>Node0x56459560c3f8&#45;&gt;Node0x56459560bea8</title>
<path fill="none" stroke="black" d="M180.07,-316.36C183.08,-315.89 186.06,-315.43 189,-315 782.24,-227.12 1498.78,-151.56 1756.63,-125.34"/>
<polygon fill="black" stroke="black" points="1757.12,-128.81 1766.72,-124.32 1756.41,-121.85 1757.12,-128.81"/>
</g>
<!-- Node0x56459560d438 -->
<g id="node11" class="node">
<title>Node0x56459560d438</title>
<polygon fill="none" stroke="black" points="2398,-315.5 2398,-351.5 2542,-351.5 2542,-315.5 2398,-315.5"/>
<text text-anchor="middle" x="2470" y="-329.8" font-family="Times,serif" font-size="14.00">lib/libLLVMCore.a</text>
</g>
<!-- Node0x56459560d438&#45;&gt;Node0x56459560ca88 -->
<g id="edge18" class="edge">
<title>Node0x56459560d438&#45;&gt;Node0x56459560ca88</title>
<path fill="none" stroke="black" d="M2397.67,-316.35C2394.75,-315.86 2391.85,-315.41 2389,-315 2174.63,-284.06 2118.81,-297.42 1903,-279 1874.84,-276.6 1844.25,-273.73 1816.37,-271.03"/>
<polygon fill="black" stroke="black" points="1816.52,-267.53 1806.22,-270.04 1815.84,-274.49 1816.52,-267.53"/>
</g>
<!-- Node0x56459560d438&#45;&gt;Node0x56459560bea8 -->
<g id="edge20" class="edge">
<title>Node0x56459560d438&#45;&gt;Node0x56459560bea8</title>
<path fill="none" stroke="black" d="M2421.74,-315.47C2309.95,-276.03 2033.57,-178.51 1912.91,-135.93"/>
<polygon fill="black" stroke="black" points="1914.05,-132.63 1903.46,-132.6 1911.72,-139.23 1914.05,-132.63"/>
</g>
<!-- Node0x56459560d438&#45;&gt;Node0x56459560b408 -->
<g id="edge19" class="edge">
<title>Node0x56459560d438&#45;&gt;Node0x56459560b408</title>
<path fill="none" stroke="black" d="M2440.65,-315.44C2354.94,-265.63 2105.03,-120.4 2009.11,-64.65"/>
<polygon fill="black" stroke="black" points="2010.72,-61.54 2000.31,-59.54 2007.2,-67.59 2010.72,-61.54"/>
</g>
<!-- Node0x56459560dc08 -->
<g id="node12" class="node">
<title>Node0x56459560dc08</title>
<polygon fill="none" stroke="black" points="1758.5,-315.5 1758.5,-351.5 1931.5,-351.5 1931.5,-315.5 1758.5,-315.5"/>
<text text-anchor="middle" x="1845" y="-329.8" font-family="Times,serif" font-size="14.00">lib/libLLVMRemarks.a</text>
</g>
<!-- Node0x56459560dc08&#45;&gt;Node0x56459560ca88 -->
<g id="edge21" class="edge">
<title>Node0x56459560dc08&#45;&gt;Node0x56459560ca88</title>
<path fill="none" stroke="black" d="M1815.54,-315.49C1799.08,-305.99 1778.37,-294.04 1760.62,-283.79"/>
<polygon fill="black" stroke="black" points="1762.06,-280.58 1751.65,-278.61 1758.56,-286.64 1762.06,-280.58"/>
</g>
<!-- Node0x56459560d708 -->
<g id="node13" class="node">
<title>Node0x56459560d708</title>
<polygon fill="none" stroke="black" points="1949.5,-315.5 1949.5,-351.5 2180.5,-351.5 2180.5,-315.5 1949.5,-315.5"/>
<text text-anchor="middle" x="2065" y="-329.8" font-family="Times,serif" font-size="14.00">lib/libLLVMBitstreamReader.a</text>
</g>
<!-- Node0x56459560d708&#45;&gt;Node0x56459560ca88 -->
<g id="edge22" class="edge">
<title>Node0x56459560d708&#45;&gt;Node0x56459560ca88</title>
<path fill="none" stroke="black" d="M1982.84,-315.49C1932.11,-304.99 1866.89,-291.49 1814.37,-280.62"/>
<polygon fill="black" stroke="black" points="1814.88,-277.15 1804.38,-278.55 1813.46,-284.01 1814.88,-277.15"/>
</g>
<!-- Node0x56459560e428 -->
<g id="node14" class="node">
<title>Node0x56459560e428</title>
<polygon fill="none" stroke="black" points="198.5,-315.5 198.5,-351.5 333.5,-351.5 333.5,-315.5 198.5,-315.5"/>
<text text-anchor="middle" x="266" y="-329.8" font-family="Times,serif" font-size="14.00">lib/libLLVMMC.a</text>
</g>
<!-- Node0x56459560e428&#45;&gt;Node0x56459560ca88 -->
<g id="edge23" class="edge">
<title>Node0x56459560e428&#45;&gt;Node0x56459560ca88</title>
<path fill="none" stroke="black" d="M333.84,-316.22C336.59,-315.77 339.32,-315.36 342,-315 591.31,-281.76 1358.85,-267.07 1627.75,-262.85"/>
<polygon fill="black" stroke="black" points="1627.93,-266.35 1637.88,-262.69 1627.82,-259.35 1627.93,-266.35"/>
</g>
<!-- Node0x56459560df28 -->
<g id="node15" class="node">
<title>Node0x56459560df28</title>
<polygon fill="none" stroke="black" points="351.5,-315.5 351.5,-351.5 560.5,-351.5 560.5,-315.5 351.5,-315.5"/>
<text text-anchor="middle" x="456" y="-329.8" font-family="Times,serif" font-size="14.00">lib/libLLVMBinaryFormat.a</text>
</g>
<!-- Node0x56459560df28&#45;&gt;Node0x56459560ca88 -->
<g id="edge24" class="edge">
<title>Node0x56459560df28&#45;&gt;Node0x56459560ca88</title>
<path fill="none" stroke="black" d="M560.62,-316C563.78,-315.64 566.91,-315.31 570,-315 961.65,-275.96 1431.1,-265.33 1627.92,-262.5"/>
<polygon fill="black" stroke="black" points="1627.99,-266 1637.94,-262.36 1627.89,-259 1627.99,-266"/>
</g>
</g>
</svg>
