<?xml version="1.0" encoding="UTF-8" standalone="no"?>
<!DOCTYPE svg PUBLIC "-//W3C//DTD SVG 1.1//EN"
 "http://www.w3.org/Graphics/SVG/1.1/DTD/svg11.dtd">
<!-- Generated by graphviz version 2.43.0 (0)
 -->
<!-- Title: bin/llvm&#45;yaml&#45;parser&#45;fuzzer Pages: 1 -->
<svg width="2649pt" height="355pt"
 viewBox="0.00 0.00 2649.00 355.00" xmlns="http://www.w3.org/2000/svg" xmlns:xlink="http://www.w3.org/1999/xlink">
<g id="graph0" class="graph" transform="scale(1 1) rotate(0) translate(4 351)">
<title>bin/llvm&#45;yaml&#45;parser&#45;fuzzer</title>
<polygon fill="white" stroke="transparent" points="-4,4 -4,-351 2645,-351 2645,4 -4,4"/>
<text text-anchor="middle" x="1320.5" y="-7.8" font-family="Times,serif" font-size="14.00">bin/llvm&#45;yaml&#45;parser&#45;fuzzer</text>
<!-- Node0x55fc1fef2ef8 -->
<g id="node1" class="node">
<title>Node0x55fc1fef2ef8</title>
<polygon fill="none" stroke="black" points="1901,-347 1134,-347 1134,-311 1901,-311 1901,-347"/>
<text text-anchor="middle" x="1517.5" y="-325.3" font-family="Times,serif" font-size="14.00">{tools/llvm&#45;yaml&#45;parser&#45;fuzzer/CMakeFiles/llvm&#45;yaml&#45;parser&#45;fuzzer.dir/DummyYAMLParserFuzzer.cpp.o}</text>
</g>
<!-- Node0x55fc1fef0c98 -->
<g id="node2" class="node">
<title>Node0x55fc1fef0c98</title>
<polygon fill="#ff7f7f" stroke="black" points="1392,-275 683,-275 683,-239 1392,-239 1392,-275"/>
<text text-anchor="middle" x="1037.5" y="-253.3" font-family="Times,serif" font-size="14.00">{tools/llvm&#45;yaml&#45;parser&#45;fuzzer/CMakeFiles/llvm&#45;yaml&#45;parser&#45;fuzzer.dir/yaml&#45;parser&#45;fuzzer.cpp.o}</text>
</g>
<!-- Node0x55fc1fef2ef8&#45;&gt;Node0x55fc1fef0c98 -->
<g id="edge1" class="edge">
<title>Node0x55fc1fef2ef8&#45;&gt;Node0x55fc1fef0c98</title>
<path fill="none" stroke="black" d="M1400.69,-310.97C1329.27,-300.55 1237.86,-287.22 1164.62,-276.54"/>
<polygon fill="black" stroke="black" points="1164.82,-273.03 1154.41,-275.05 1163.8,-279.96 1164.82,-273.03"/>
</g>
<!-- Node0x55fc1fef15f8 -->
<g id="node3" class="node">
<title>Node0x55fc1fef15f8</title>
<polygon fill="none" stroke="black" points="1624.5,-275 1410.5,-275 1410.5,-239 1624.5,-239 1624.5,-275"/>
<text text-anchor="middle" x="1517.5" y="-253.3" font-family="Times,serif" font-size="14.00">{lib/libLLVMFuzzMutate.a}</text>
</g>
<!-- Node0x55fc1fef2ef8&#45;&gt;Node0x55fc1fef15f8 -->
<g id="edge2" class="edge">
<title>Node0x55fc1fef2ef8&#45;&gt;Node0x55fc1fef15f8</title>
<path fill="none" stroke="black" d="M1517.5,-310.7C1517.5,-302.98 1517.5,-293.71 1517.5,-285.11"/>
<polygon fill="black" stroke="black" points="1521,-285.1 1517.5,-275.1 1514,-285.1 1521,-285.1"/>
</g>
<!-- Node0x55fc1fef1af8 -->
<g id="node4" class="node">
<title>Node0x55fc1fef1af8</title>
<polygon fill="#ff7f7f" stroke="black" points="1130.5,-203 944.5,-203 944.5,-167 1130.5,-167 1130.5,-203"/>
<text text-anchor="middle" x="1037.5" y="-181.3" font-family="Times,serif" font-size="14.00">{lib/libLLVMSupport.a}</text>
</g>
<!-- Node0x55fc1fef0c98&#45;&gt;Node0x55fc1fef1af8 -->
<g id="edge3" class="edge">
<title>Node0x55fc1fef0c98&#45;&gt;Node0x55fc1fef1af8</title>
<path fill="none" stroke="#ff7f7f" d="M1031.58,-238.7C1030.79,-230.98 1030.56,-221.71 1030.9,-213.11"/>
<polygon fill="#ff7f7f" stroke="#ff7f7f" points="1034.4,-213.32 1031.6,-203.1 1027.42,-212.84 1034.4,-213.32"/>
</g>
<!-- Node0x55fc1fef15f8&#45;&gt;Node0x55fc1fef1af8 -->
<g id="edge4" class="edge">
<title>Node0x55fc1fef15f8&#45;&gt;Node0x55fc1fef1af8</title>
<path fill="none" stroke="black" d="M1410.37,-240.3C1407.38,-239.86 1404.42,-239.43 1401.5,-239 1313.54,-226.15 1213.61,-211.6 1140.74,-201.01"/>
<polygon fill="black" stroke="black" points="1141.04,-197.51 1130.64,-199.54 1140.03,-204.44 1141.04,-197.51"/>
</g>
<!-- Node0x55fc1fef1af8&#45;&gt;Node0x55fc1fef0c98 -->
<g id="edge5" class="edge">
<title>Node0x55fc1fef1af8&#45;&gt;Node0x55fc1fef0c98</title>
<path fill="none" stroke="#ff7f7f" d="M1043.4,-203.1C1044.2,-210.79 1044.44,-220.05 1044.1,-228.67"/>
<polygon fill="#ff7f7f" stroke="#ff7f7f" points="1040.61,-228.48 1043.42,-238.7 1047.59,-228.96 1040.61,-228.48"/>
</g>
<!-- Node0x55fc1fef10f8 -->
<g id="node5" class="node">
<title>Node0x55fc1fef10f8</title>
<polygon fill="#ff7f7f" stroke="black" points="1354.5,-131 1160.5,-131 1160.5,-95 1354.5,-95 1354.5,-131"/>
<text text-anchor="middle" x="1257.5" y="-109.3" font-family="Times,serif" font-size="14.00">{lib/libLLVMBitWriter.a}</text>
</g>
<!-- Node0x55fc1fef1af8&#45;&gt;Node0x55fc1fef10f8 -->
<g id="edge6" class="edge">
<title>Node0x55fc1fef1af8&#45;&gt;Node0x55fc1fef10f8</title>
<path fill="none" stroke="#ff7f7f" d="M1085.15,-166.97C1115.24,-157.06 1154.57,-144.51 1188.09,-134.12"/>
<polygon fill="#ff7f7f" stroke="#ff7f7f" points="1189.31,-137.41 1197.83,-131.11 1187.24,-130.72 1189.31,-137.41"/>
</g>
<!-- Node0x55fc1feed408 -->
<g id="node6" class="node">
<title>Node0x55fc1feed408</title>
<polygon fill="#ff7f7f" stroke="black" points="1142,-131 933,-131 933,-95 1142,-95 1142,-131"/>
<text text-anchor="middle" x="1037.5" y="-109.3" font-family="Times,serif" font-size="14.00">{lib/libLLVMProfileData.a}</text>
</g>
<!-- Node0x55fc1fef1af8&#45;&gt;Node0x55fc1feed408 -->
<g id="edge7" class="edge">
<title>Node0x55fc1fef1af8&#45;&gt;Node0x55fc1feed408</title>
<path fill="none" stroke="#ff7f7f" d="M1031.58,-166.7C1030.79,-158.98 1030.56,-149.71 1030.9,-141.11"/>
<polygon fill="#ff7f7f" stroke="#ff7f7f" points="1034.4,-141.32 1031.6,-131.1 1027.42,-140.84 1034.4,-141.32"/>
</g>
<!-- Node0x55fc1fef10f8&#45;&gt;Node0x55fc1fef1af8 -->
<g id="edge8" class="edge">
<title>Node0x55fc1fef10f8&#45;&gt;Node0x55fc1fef1af8</title>
<path fill="none" stroke="#ff7f7f" d="M1209.62,-131.11C1179.48,-141.03 1140.14,-153.58 1106.66,-163.96"/>
<polygon fill="#ff7f7f" stroke="#ff7f7f" points="1105.45,-160.67 1096.92,-166.97 1107.51,-167.36 1105.45,-160.67"/>
</g>
<!-- Node0x55fc1feef078 -->
<g id="node7" class="node">
<title>Node0x55fc1feef078</title>
<polygon fill="#ff7f7f" stroke="black" points="1351.5,-59 1163.5,-59 1163.5,-23 1351.5,-23 1351.5,-59"/>
<text text-anchor="middle" x="1257.5" y="-37.3" font-family="Times,serif" font-size="14.00">{lib/libLLVMAnalysis.a}</text>
</g>
<!-- Node0x55fc1fef10f8&#45;&gt;Node0x55fc1feef078 -->
<g id="edge9" class="edge">
<title>Node0x55fc1fef10f8&#45;&gt;Node0x55fc1feef078</title>
<path fill="none" stroke="#ff7f7f" d="M1251.58,-94.7C1250.79,-86.98 1250.56,-77.71 1250.9,-69.11"/>
<polygon fill="#ff7f7f" stroke="#ff7f7f" points="1254.4,-69.32 1251.6,-59.1 1247.42,-68.84 1254.4,-69.32"/>
</g>
<!-- Node0x55fc1feed408&#45;&gt;Node0x55fc1fef1af8 -->
<g id="edge17" class="edge">
<title>Node0x55fc1feed408&#45;&gt;Node0x55fc1fef1af8</title>
<path fill="none" stroke="#ff7f7f" d="M1043.4,-131.1C1044.2,-138.79 1044.44,-148.05 1044.1,-156.67"/>
<polygon fill="#ff7f7f" stroke="#ff7f7f" points="1040.61,-156.48 1043.42,-166.7 1047.59,-156.96 1040.61,-156.48"/>
</g>
<!-- Node0x55fc1feed408&#45;&gt;Node0x55fc1fef10f8 -->
<g id="edge18" class="edge">
<title>Node0x55fc1feed408&#45;&gt;Node0x55fc1fef10f8</title>
<path fill="none" stroke="#ff7f7f" d="M1142.34,-113C1144.97,-113 1147.59,-113 1150.22,-113"/>
<polygon fill="#ff7f7f" stroke="#ff7f7f" points="1150.34,-116.5 1160.34,-113 1150.34,-109.5 1150.34,-116.5"/>
</g>
<!-- Node0x55fc1feef078&#45;&gt;Node0x55fc1fef1af8 -->
<g id="edge10" class="edge">
<title>Node0x55fc1feef078&#45;&gt;Node0x55fc1fef1af8</title>
<path fill="none" stroke="#ff7f7f" d="M1163.32,-43.81C1075.85,-47.73 954.71,-59.6 924.5,-95 914.11,-107.17 915.92,-117.5 924.5,-131 933.21,-144.71 946.51,-154.93 960.95,-162.53"/>
<polygon fill="#ff7f7f" stroke="#ff7f7f" points="959.54,-165.74 970.07,-166.94 962.59,-159.44 959.54,-165.74"/>
</g>
<!-- Node0x55fc1feef078&#45;&gt;Node0x55fc1fef10f8 -->
<g id="edge11" class="edge">
<title>Node0x55fc1feef078&#45;&gt;Node0x55fc1fef10f8</title>
<path fill="none" stroke="#ff7f7f" d="M1263.4,-59.1C1264.2,-66.79 1264.44,-76.05 1264.1,-84.67"/>
<polygon fill="#ff7f7f" stroke="#ff7f7f" points="1260.61,-84.48 1263.42,-94.7 1267.59,-84.96 1260.61,-84.48"/>
</g>
<!-- Node0x55fc1feeeb78 -->
<g id="node8" class="node">
<title>Node0x55fc1feeeb78</title>
<polygon fill="none" stroke="black" points="1818,-275 1643,-275 1643,-239 1818,-239 1818,-275"/>
<text text-anchor="middle" x="1730.5" y="-253.3" font-family="Times,serif" font-size="14.00">{lib/libLLVMObject.a}</text>
</g>
<!-- Node0x55fc1feeeb78&#45;&gt;Node0x55fc1fef1af8 -->
<g id="edge12" class="edge">
<title>Node0x55fc1feeeb78&#45;&gt;Node0x55fc1fef1af8</title>
<path fill="none" stroke="black" d="M1642.78,-240.28C1639.65,-239.83 1636.55,-239.4 1633.5,-239 1461.38,-216.31 1259.97,-200.65 1140.88,-192.52"/>
<polygon fill="black" stroke="black" points="1140.89,-189.01 1130.68,-191.83 1140.42,-196 1140.89,-189.01"/>
</g>
<!-- Node0x55fc1feee678 -->
<g id="node9" class="node">
<title>Node0x55fc1feee678</title>
<polygon fill="none" stroke="black" points="2641,-275 2442,-275 2442,-239 2641,-239 2641,-275"/>
<text text-anchor="middle" x="2541.5" y="-253.3" font-family="Times,serif" font-size="14.00">{lib/libLLVMBitReader.a}</text>
</g>
<!-- Node0x55fc1feee678&#45;&gt;Node0x55fc1fef1af8 -->
<g id="edge13" class="edge">
<title>Node0x55fc1feee678&#45;&gt;Node0x55fc1fef1af8</title>
<path fill="none" stroke="black" d="M2441.77,-239.97C2438.64,-239.62 2435.55,-239.29 2432.5,-239 1951.15,-192.48 1372.68,-186.28 1140.91,-185.81"/>
<polygon fill="black" stroke="black" points="1140.81,-182.31 1130.81,-185.79 1140.8,-189.31 1140.81,-182.31"/>
</g>
<!-- Node0x55fc1feee678&#45;&gt;Node0x55fc1feef078 -->
<g id="edge14" class="edge">
<title>Node0x55fc1feee678&#45;&gt;Node0x55fc1feef078</title>
<path fill="none" stroke="black" d="M2451.46,-238.94C2288.56,-208.33 1933.91,-142.79 1633.5,-95 1541.75,-80.4 1437.08,-65.82 1361.51,-55.65"/>
<polygon fill="black" stroke="black" points="1361.89,-52.17 1351.51,-54.31 1360.96,-59.11 1361.89,-52.17"/>
</g>
<!-- Node0x55fc1feee178 -->
<g id="node10" class="node">
<title>Node0x55fc1feee178</title>
<polygon fill="none" stroke="black" points="2243.5,-275 2045.5,-275 2045.5,-239 2243.5,-239 2243.5,-275"/>
<text text-anchor="middle" x="2144.5" y="-253.3" font-family="Times,serif" font-size="14.00">{lib/libLLVMMCParser.a}</text>
</g>
<!-- Node0x55fc1feee178&#45;&gt;Node0x55fc1fef1af8 -->
<g id="edge15" class="edge">
<title>Node0x55fc1feee178&#45;&gt;Node0x55fc1fef1af8</title>
<path fill="none" stroke="black" d="M2045.39,-239.99C2042.39,-239.64 2039.43,-239.31 2036.5,-239 1992.55,-234.39 1386.89,-203.6 1140.57,-191.18"/>
<polygon fill="black" stroke="black" points="1140.7,-187.68 1130.54,-190.68 1140.35,-194.67 1140.7,-187.68"/>
</g>
<!-- Node0x55fc1feee178&#45;&gt;Node0x55fc1fef10f8 -->
<g id="edge16" class="edge">
<title>Node0x55fc1feee178&#45;&gt;Node0x55fc1fef10f8</title>
<path fill="none" stroke="black" d="M2045.38,-240.07C2042.39,-239.7 2039.42,-239.34 2036.5,-239 1819.57,-214 1761.1,-243.39 1546.5,-203 1462.61,-187.21 1368.7,-155.58 1311.34,-134.59"/>
<polygon fill="black" stroke="black" points="1312.36,-131.24 1301.76,-131.06 1309.94,-137.81 1312.36,-131.24"/>
</g>
<!-- Node0x55fc1feeceb8 -->
<g id="node11" class="node">
<title>Node0x55fc1feeceb8</title>
<polygon fill="none" stroke="black" points="2423.5,-275 2261.5,-275 2261.5,-239 2423.5,-239 2423.5,-275"/>
<text text-anchor="middle" x="2342.5" y="-253.3" font-family="Times,serif" font-size="14.00">{lib/libLLVMCore.a}</text>
</g>
<!-- Node0x55fc1feeceb8&#45;&gt;Node0x55fc1fef1af8 -->
<g id="edge19" class="edge">
<title>Node0x55fc1feeceb8&#45;&gt;Node0x55fc1fef1af8</title>
<path fill="none" stroke="black" d="M2261.14,-240.09C2258.23,-239.7 2255.34,-239.33 2252.5,-239 2143.85,-226.43 1415.07,-199.49 1141.23,-189.67"/>
<polygon fill="black" stroke="black" points="1141.02,-186.16 1130.9,-189.3 1140.77,-193.16 1141.02,-186.16"/>
</g>
<!-- Node0x55fc1feeceb8&#45;&gt;Node0x55fc1fef10f8 -->
<g id="edge21" class="edge">
<title>Node0x55fc1feeceb8&#45;&gt;Node0x55fc1fef10f8</title>
<path fill="none" stroke="black" d="M2261.12,-240.26C2258.22,-239.81 2255.34,-239.39 2252.5,-239 2073.94,-214.24 2027.49,-224.43 1848.5,-203 1678.82,-182.68 1482.85,-151.67 1364.65,-132.13"/>
<polygon fill="black" stroke="black" points="1364.95,-128.64 1354.51,-130.45 1363.81,-135.54 1364.95,-128.64"/>
</g>
<!-- Node0x55fc1feeceb8&#45;&gt;Node0x55fc1feef078 -->
<g id="edge20" class="edge">
<title>Node0x55fc1feeceb8&#45;&gt;Node0x55fc1feef078</title>
<path fill="none" stroke="black" d="M2261.39,-240C2065.01,-201.27 1564.67,-102.58 1353.67,-60.97"/>
<polygon fill="black" stroke="black" points="1354.33,-57.53 1343.84,-59.03 1352.98,-64.4 1354.33,-57.53"/>
</g>
<!-- Node0x55fc1fef1878 -->
<g id="node12" class="node">
<title>Node0x55fc1fef1878</title>
<polygon fill="none" stroke="black" points="2027,-275 1836,-275 1836,-239 2027,-239 2027,-275"/>
<text text-anchor="middle" x="1931.5" y="-253.3" font-family="Times,serif" font-size="14.00">{lib/libLLVMRemarks.a}</text>
</g>
<!-- Node0x55fc1fef1878&#45;&gt;Node0x55fc1fef1af8 -->
<g id="edge22" class="edge">
<title>Node0x55fc1fef1878&#45;&gt;Node0x55fc1fef1af8</title>
<path fill="none" stroke="black" d="M1835.78,-240C1832.99,-239.65 1830.23,-239.31 1827.5,-239 1697.49,-224.05 1323.87,-202.02 1140.93,-191.71"/>
<polygon fill="black" stroke="black" points="1140.94,-188.21 1130.76,-191.14 1140.55,-195.2 1140.94,-188.21"/>
</g>
<!-- Node0x55fc1fef1be8 -->
<g id="node13" class="node">
<title>Node0x55fc1fef1be8</title>
<polygon fill="none" stroke="black" points="249,-275 0,-275 0,-239 249,-239 249,-275"/>
<text text-anchor="middle" x="124.5" y="-253.3" font-family="Times,serif" font-size="14.00">{lib/libLLVMBitstreamReader.a}</text>
</g>
<!-- Node0x55fc1fef1be8&#45;&gt;Node0x55fc1fef1af8 -->
<g id="edge23" class="edge">
<title>Node0x55fc1fef1be8&#45;&gt;Node0x55fc1fef1af8</title>
<path fill="none" stroke="black" d="M249.07,-239.85C251.91,-239.56 254.72,-239.27 257.5,-239 499.48,-215.33 784.73,-198.84 934.21,-191.06"/>
<polygon fill="black" stroke="black" points="934.5,-194.55 944.3,-190.54 934.13,-187.56 934.5,-194.55"/>
</g>
<!-- Node0x55fc1fef2138 -->
<g id="node14" class="node">
<title>Node0x55fc1fef2138</title>
<polygon fill="none" stroke="black" points="420,-275 267,-275 267,-239 420,-239 420,-275"/>
<text text-anchor="middle" x="343.5" y="-253.3" font-family="Times,serif" font-size="14.00">{lib/libLLVMMC.a}</text>
</g>
<!-- Node0x55fc1fef2138&#45;&gt;Node0x55fc1fef1af8 -->
<g id="edge24" class="edge">
<title>Node0x55fc1fef2138&#45;&gt;Node0x55fc1fef1af8</title>
<path fill="none" stroke="black" d="M420.35,-240.24C423.09,-239.8 425.82,-239.38 428.5,-239 605.28,-213.71 812.78,-198.77 934.24,-191.5"/>
<polygon fill="black" stroke="black" points="934.5,-194.99 944.28,-190.9 934.09,-188 934.5,-194.99"/>
</g>
<!-- Node0x55fc1fef2688 -->
<g id="node15" class="node">
<title>Node0x55fc1fef2688</title>
<polygon fill="none" stroke="black" points="665,-275 438,-275 438,-239 665,-239 665,-275"/>
<text text-anchor="middle" x="551.5" y="-253.3" font-family="Times,serif" font-size="14.00">{lib/libLLVMBinaryFormat.a}</text>
</g>
<!-- Node0x55fc1fef2688&#45;&gt;Node0x55fc1fef1af8 -->
<g id="edge25" class="edge">
<title>Node0x55fc1fef2688&#45;&gt;Node0x55fc1fef1af8</title>
<path fill="none" stroke="black" d="M665.14,-239.63C746.52,-227.91 855.22,-212.26 934.15,-200.89"/>
<polygon fill="black" stroke="black" points="934.71,-204.34 944.11,-199.45 933.71,-197.41 934.71,-204.34"/>
</g>
</g>
</svg>
