<?xml version="1.0" encoding="UTF-8" standalone="no"?>
<!DOCTYPE svg PUBLIC "-//W3C//DTD SVG 1.1//EN"
 "http://www.w3.org/Graphics/SVG/1.1/DTD/svg11.dtd">
<!-- Generated by graphviz version 2.43.0 (0)
 -->
<!-- Title: bin/llvm&#45;cfi&#45;verify_lib/libLLVMObject.a Pages: 1 -->
<svg width="1944pt" height="926pt"
 viewBox="0.00 0.00 1944.00 925.52" xmlns="http://www.w3.org/2000/svg" xmlns:xlink="http://www.w3.org/1999/xlink">
<g id="graph0" class="graph" transform="scale(1 1) rotate(0) translate(4 921.52)">
<title>bin/llvm&#45;cfi&#45;verify_lib/libLLVMObject.a</title>
<polygon fill="white" stroke="transparent" points="-4,4 -4,-921.52 1940,-921.52 1940,4 -4,4"/>
<text text-anchor="middle" x="968" y="-7.8" font-family="Times,serif" font-size="14.00">bin/llvm&#45;cfi&#45;verify_lib/libLLVMObject.a</text>
<!-- Node0x55e535db2258 -->
<g id="node1" class="node">
<title>Node0x55e535db2258</title>
<polygon fill="#7fb2ff" stroke="black" points="318.5,-693 45.5,-693 45.5,-657 318.5,-657 318.5,-693"/>
<text text-anchor="middle" x="182" y="-671.3" font-family="Times,serif" font-size="14.00">{lib/libLLVMObject.a(Binary.cpp.o)}</text>
</g>
<!-- Node0x55e535db1f88 -->
<g id="node2" class="node">
<title>Node0x55e535db1f88</title>
<polygon fill="none" stroke="black" points="712.5,-113 446.5,-113 446.5,-77 712.5,-77 712.5,-113"/>
<text text-anchor="middle" x="579.5" y="-91.3" font-family="Times,serif" font-size="14.00">{lib/libLLVMObject.a(Error.cpp.o)}</text>
</g>
<!-- Node0x55e535db2258&#45;&gt;Node0x55e535db1f88 -->
<g id="edge1" class="edge">
<title>Node0x55e535db2258&#45;&gt;Node0x55e535db1f88</title>
<path fill="none" stroke="black" d="M199.76,-656.74C232.98,-620.11 308.77,-534.45 364,-456 407.58,-394.1 521.61,-195.06 563.11,-122.12"/>
<polygon fill="black" stroke="black" points="566.35,-123.5 568.25,-113.08 560.27,-120.04 566.35,-123.5"/>
</g>
<!-- Node0x55e535db0048 -->
<g id="node3" class="node">
<title>Node0x55e535db0048</title>
<polygon fill="#7fb2ff" stroke="black" points="739.5,-447 419.5,-447 419.5,-411 739.5,-411 739.5,-447"/>
<text text-anchor="middle" x="579.5" y="-425.3" font-family="Times,serif" font-size="14.00">{lib/libLLVMObject.a(SymbolicFile.cpp.o)}</text>
</g>
<!-- Node0x55e535db2258&#45;&gt;Node0x55e535db0048 -->
<g id="edge2" class="edge">
<title>Node0x55e535db2258&#45;&gt;Node0x55e535db0048</title>
<path fill="none" stroke="#7fb2ff" d="M192.52,-656.73C219.7,-612.78 302.04,-502.74 400,-452 403.17,-450.36 406.41,-448.8 409.71,-447.32"/>
<polygon fill="#7fb2ff" stroke="#7fb2ff" points="411.28,-450.45 419.14,-443.35 408.57,-444 411.28,-450.45"/>
</g>
<!-- Node0x55e535dacbc8 -->
<g id="node4" class="node">
<title>Node0x55e535dacbc8</title>
<polygon fill="#7fb2ff" stroke="black" points="720.5,-739 438.5,-739 438.5,-703 720.5,-703 720.5,-739"/>
<text text-anchor="middle" x="579.5" y="-717.3" font-family="Times,serif" font-size="14.00">{lib/libLLVMObject.a(Archive.cpp.o)}</text>
</g>
<!-- Node0x55e535db2258&#45;&gt;Node0x55e535dacbc8 -->
<g id="edge3" class="edge">
<title>Node0x55e535db2258&#45;&gt;Node0x55e535dacbc8</title>
<path fill="none" stroke="#7fb2ff" d="M318.56,-684.32C366.37,-689.4 419.58,-695.68 465.34,-701.67"/>
<polygon fill="#7fb2ff" stroke="#7fb2ff" points="464.92,-705.14 475.29,-702.98 465.83,-698.21 464.92,-705.14"/>
</g>
<!-- Node0x55e535dabea8 -->
<g id="node5" class="node">
<title>Node0x55e535dabea8</title>
<polygon fill="#7fb2ff" stroke="black" points="753,-647 406,-647 406,-611 753,-611 753,-647"/>
<text text-anchor="middle" x="579.5" y="-625.3" font-family="Times,serif" font-size="14.00">{lib/libLLVMObject.a(MachOUniversal.cpp.o)}</text>
</g>
<!-- Node0x55e535db2258&#45;&gt;Node0x55e535dabea8 -->
<g id="edge4" class="edge">
<title>Node0x55e535db2258&#45;&gt;Node0x55e535dabea8</title>
<path fill="none" stroke="#7fb2ff" d="M286.14,-656.99C319.75,-652.52 358.14,-647.81 395.8,-643.52"/>
<polygon fill="#7fb2ff" stroke="#7fb2ff" points="396.33,-646.98 405.87,-642.38 395.54,-640.02 396.33,-646.98"/>
</g>
<!-- Node0x55e535dabd18 -->
<g id="node6" class="node">
<title>Node0x55e535dabd18</title>
<polygon fill="#7fb2ff" stroke="black" points="730,-793 429,-793 429,-757 730,-757 730,-793"/>
<text text-anchor="middle" x="579.5" y="-771.3" font-family="Times,serif" font-size="14.00">{lib/libLLVMObject.a(Minidump.cpp.o)}</text>
</g>
<!-- Node0x55e535db2258&#45;&gt;Node0x55e535dabd18 -->
<g id="edge5" class="edge">
<title>Node0x55e535db2258&#45;&gt;Node0x55e535dabd18</title>
<path fill="none" stroke="#7fb2ff" d="M249.56,-693.02C292.05,-707.35 348.62,-726.57 400,-739 427.27,-745.6 457.29,-750.88 484.8,-755.35"/>
<polygon fill="#7fb2ff" stroke="#7fb2ff" points="484.39,-758.83 494.82,-756.96 485.5,-751.91 484.39,-758.83"/>
</g>
<!-- Node0x55e535dab098 -->
<g id="node7" class="node">
<title>Node0x55e535dab098</title>
<polygon fill="#7fb2ff" stroke="black" points="759,-847 400,-847 400,-811 759,-811 759,-847"/>
<text text-anchor="middle" x="579.5" y="-825.3" font-family="Times,serif" font-size="14.00">{lib/libLLVMObject.a(WindowsResource.cpp.o)}</text>
</g>
<!-- Node0x55e535db2258&#45;&gt;Node0x55e535dab098 -->
<g id="edge6" class="edge">
<title>Node0x55e535db2258&#45;&gt;Node0x55e535dab098</title>
<path fill="none" stroke="#7fb2ff" d="M215.61,-693.16C256.44,-719.81 329.62,-768.12 400,-793 419.77,-799.99 441.4,-805.17 462.56,-809.17"/>
<polygon fill="#7fb2ff" stroke="#7fb2ff" points="462.11,-812.64 472.57,-810.98 463.36,-805.76 462.11,-812.64"/>
</g>
<!-- Node0x55e535dafe18 -->
<g id="node8" class="node">
<title>Node0x55e535dafe18</title>
<polygon fill="#7fb2ff" stroke="black" points="743,-593 416,-593 416,-557 743,-557 743,-593"/>
<text text-anchor="middle" x="579.5" y="-571.3" font-family="Times,serif" font-size="14.00">{lib/libLLVMObject.a(TapiUniversal.cpp.o)}</text>
</g>
<!-- Node0x55e535db2258&#45;&gt;Node0x55e535dafe18 -->
<g id="edge7" class="edge">
<title>Node0x55e535db2258&#45;&gt;Node0x55e535dafe18</title>
<path fill="none" stroke="#7fb2ff" d="M213.06,-656.97C254.5,-637.94 331.81,-609.49 400,-593 401.94,-592.53 403.9,-592.07 405.87,-591.61"/>
<polygon fill="#7fb2ff" stroke="#7fb2ff" points="406.81,-594.99 415.8,-589.39 405.28,-588.16 406.81,-594.99"/>
</g>
<!-- Node0x55e535db0048&#45;&gt;Node0x55e535db2258 -->
<g id="edge20" class="edge">
<title>Node0x55e535db0048&#45;&gt;Node0x55e535db2258</title>
<path fill="none" stroke="#7fb2ff" d="M467.49,-447.06C444.33,-452.09 420.69,-459.28 400,-470 314.37,-514.35 240.68,-604.02 205.33,-648.75"/>
<polygon fill="#7fb2ff" stroke="#7fb2ff" points="202.42,-646.79 198.98,-656.81 207.92,-651.12 202.42,-646.79"/>
</g>
<!-- Node0x55e535db0048&#45;&gt;Node0x55e535db1f88 -->
<g id="edge21" class="edge">
<title>Node0x55e535db0048&#45;&gt;Node0x55e535db1f88</title>
<path fill="none" stroke="black" d="M579.5,-410.81C579.5,-315.02 579.5,-219.23 579.5,-123.44"/>
<polygon fill="black" stroke="black" points="583,-123.27 579.5,-113.27 576,-123.27 583,-123.27"/>
</g>
<!-- Node0x55e535db1178 -->
<g id="node9" class="node">
<title>Node0x55e535db1178</title>
<polygon fill="#7fb2ff" stroke="black" points="1122,-349 820,-349 820,-313 1122,-313 1122,-349"/>
<text text-anchor="middle" x="971" y="-327.3" font-family="Times,serif" font-size="14.00">{lib/libLLVMObject.a(ObjectFile.cpp.o)}</text>
</g>
<!-- Node0x55e535db0048&#45;&gt;Node0x55e535db1178 -->
<g id="edge22" class="edge">
<title>Node0x55e535db0048&#45;&gt;Node0x55e535db1178</title>
<path fill="none" stroke="#7fb2ff" d="M633.03,-410.99C692.25,-394.01 790.05,-368.98 865.07,-351.33"/>
<polygon fill="#7fb2ff" stroke="#7fb2ff" points="866.1,-354.69 875.04,-349 864.5,-347.87 866.1,-354.69"/>
</g>
<!-- Node0x55e535db1218 -->
<g id="node10" class="node">
<title>Node0x55e535db1218</title>
<polygon fill="#7fb2ff" stroke="black" points="1129.5,-517 812.5,-517 812.5,-481 1129.5,-481 1129.5,-517"/>
<text text-anchor="middle" x="971" y="-495.3" font-family="Times,serif" font-size="14.00">{lib/libLLVMObject.a(IRObjectFile.cpp.o)}</text>
</g>
<!-- Node0x55e535db0048&#45;&gt;Node0x55e535db1218 -->
<g id="edge23" class="edge">
<title>Node0x55e535db0048&#45;&gt;Node0x55e535db1218</title>
<path fill="none" stroke="#7fb2ff" d="M731.45,-447.07C740.77,-448.73 750.01,-450.39 759,-452 806.55,-460.54 860.13,-470.19 901.39,-478.8"/>
<polygon fill="#7fb2ff" stroke="#7fb2ff" points="900.83,-482.26 911.34,-480.91 902.28,-475.41 900.83,-482.26"/>
</g>
<!-- Node0x55e535dacbc8&#45;&gt;Node0x55e535db2258 -->
<g id="edge24" class="edge">
<title>Node0x55e535dacbc8&#45;&gt;Node0x55e535db2258</title>
<path fill="none" stroke="#7fb2ff" d="M438.34,-711.19C391.71,-706.2 340.39,-700.12 296.07,-694.32"/>
<polygon fill="#7fb2ff" stroke="#7fb2ff" points="296.51,-690.85 286.14,-693.01 295.59,-697.79 296.51,-690.85"/>
</g>
<!-- Node0x55e535dacbc8&#45;&gt;Node0x55e535db1f88 -->
<g id="edge25" class="edge">
<title>Node0x55e535dacbc8&#45;&gt;Node0x55e535db1f88</title>
<path fill="none" stroke="black" d="M458.63,-702.91C428.06,-692.01 399.08,-674.64 382,-647 354.43,-602.39 367.54,-461.41 382,-411 416.54,-290.58 511.83,-171.53 556.2,-120.68"/>
<polygon fill="black" stroke="black" points="558.88,-122.93 562.87,-113.11 553.63,-118.3 558.88,-122.93"/>
</g>
<!-- Node0x55e535dabea8&#45;&gt;Node0x55e535db2258 -->
<g id="edge15" class="edge">
<title>Node0x55e535dabea8&#45;&gt;Node0x55e535db2258</title>
<path fill="none" stroke="#7fb2ff" d="M475.29,-647.02C430.5,-652.98 377.25,-659.35 328.55,-664.61"/>
<polygon fill="#7fb2ff" stroke="#7fb2ff" points="328.13,-661.13 318.56,-665.68 328.87,-668.09 328.13,-661.13"/>
</g>
<!-- Node0x55e535dabea8&#45;&gt;Node0x55e535db1f88 -->
<g id="edge16" class="edge">
<title>Node0x55e535dabea8&#45;&gt;Node0x55e535db1f88</title>
<path fill="none" stroke="black" d="M405.99,-617.76C396.53,-611.35 388.32,-603.23 382,-593 360.74,-558.6 370.85,-449.88 382,-411 416.54,-290.58 511.83,-171.53 556.2,-120.68"/>
<polygon fill="black" stroke="black" points="558.88,-122.93 562.87,-113.11 553.63,-118.3 558.88,-122.93"/>
</g>
<!-- Node0x55e535dabea8&#45;&gt;Node0x55e535dacbc8 -->
<g id="edge19" class="edge">
<title>Node0x55e535dabea8&#45;&gt;Node0x55e535dacbc8</title>
<path fill="none" stroke="#7fb2ff" d="M579.5,-647.33C579.5,-662.37 579.5,-677.41 579.5,-692.46"/>
<polygon fill="#7fb2ff" stroke="#7fb2ff" points="576,-692.87 579.5,-702.87 583,-692.87 576,-692.87"/>
</g>
<!-- Node0x55e535dabea8&#45;&gt;Node0x55e535db1218 -->
<g id="edge18" class="edge">
<title>Node0x55e535dabea8&#45;&gt;Node0x55e535db1218</title>
<path fill="none" stroke="#7fb2ff" d="M725.06,-611C736.64,-608.39 748.08,-605.4 759,-602 822.32,-582.27 890.38,-546.01 931.58,-522.21"/>
<polygon fill="#7fb2ff" stroke="#7fb2ff" points="933.58,-525.1 940.45,-517.03 930.05,-519.05 933.58,-525.1"/>
</g>
<!-- Node0x55e535db9238 -->
<g id="node11" class="node">
<title>Node0x55e535db9238</title>
<polygon fill="#7fb2ff" stroke="black" points="1147,-647 795,-647 795,-611 1147,-611 1147,-647"/>
<text text-anchor="middle" x="971" y="-625.3" font-family="Times,serif" font-size="14.00">{lib/libLLVMObject.a(MachOObjectFile.cpp.o)}</text>
</g>
<!-- Node0x55e535dabea8&#45;&gt;Node0x55e535db9238 -->
<g id="edge17" class="edge">
<title>Node0x55e535dabea8&#45;&gt;Node0x55e535db9238</title>
<path fill="none" stroke="#7fb2ff" d="M753.04,-629C763.53,-629 774.1,-629 784.64,-629"/>
<polygon fill="#7fb2ff" stroke="#7fb2ff" points="784.72,-632.5 794.72,-629 784.72,-625.5 784.72,-632.5"/>
</g>
<!-- Node0x55e535dabd18&#45;&gt;Node0x55e535db2258 -->
<g id="edge26" class="edge">
<title>Node0x55e535dabd18&#45;&gt;Node0x55e535db2258</title>
<path fill="none" stroke="#7fb2ff" d="M428.63,-763.27C418.9,-761.34 409.29,-759.25 400,-757 336.61,-741.67 265.33,-716 222.31,-697.17"/>
<polygon fill="#7fb2ff" stroke="#7fb2ff" points="223.61,-693.92 213.06,-693.03 220.75,-700.31 223.61,-693.92"/>
</g>
<!-- Node0x55e535dabd18&#45;&gt;Node0x55e535db1f88 -->
<g id="edge27" class="edge">
<title>Node0x55e535dabd18&#45;&gt;Node0x55e535db1f88</title>
<path fill="none" stroke="black" d="M428.8,-775.29C409.68,-768.22 392.99,-756.79 382,-739 362.84,-708 371.95,-446.03 382,-411 416.54,-290.58 511.83,-171.53 556.2,-120.68"/>
<polygon fill="black" stroke="black" points="558.88,-122.93 562.87,-113.11 553.63,-118.3 558.88,-122.93"/>
</g>
<!-- Node0x55e535dab098&#45;&gt;Node0x55e535db2258 -->
<g id="edge28" class="edge">
<title>Node0x55e535dab098&#45;&gt;Node0x55e535db2258</title>
<path fill="none" stroke="#7fb2ff" d="M399.53,-810.83C324.86,-784.33 247.12,-731.56 208.28,-699.94"/>
<polygon fill="#7fb2ff" stroke="#7fb2ff" points="210.07,-696.88 200.15,-693.15 205.58,-702.25 210.07,-696.88"/>
</g>
<!-- Node0x55e535dab098&#45;&gt;Node0x55e535db1f88 -->
<g id="edge29" class="edge">
<title>Node0x55e535dab098&#45;&gt;Node0x55e535db1f88</title>
<path fill="none" stroke="black" d="M399.62,-813.02C392.82,-807.47 386.86,-800.86 382,-793 359.69,-756.89 370.3,-451.8 382,-411 416.54,-290.58 511.83,-171.53 556.2,-120.68"/>
<polygon fill="black" stroke="black" points="558.88,-122.93 562.87,-113.11 553.63,-118.3 558.88,-122.93"/>
</g>
<!-- Node0x55e535dafe18&#45;&gt;Node0x55e535db2258 -->
<g id="edge30" class="edge">
<title>Node0x55e535dafe18&#45;&gt;Node0x55e535db2258</title>
<path fill="none" stroke="#7fb2ff" d="M494.82,-593.04C464.7,-597.84 430.62,-603.59 400,-611 352.43,-622.51 300.42,-639.83 259.25,-653.71"/>
<polygon fill="#7fb2ff" stroke="#7fb2ff" points="257.92,-650.47 249.56,-656.98 260.15,-657.1 257.92,-650.47"/>
</g>
<!-- Node0x55e535db1178&#45;&gt;Node0x55e535db1f88 -->
<g id="edge31" class="edge">
<title>Node0x55e535db1178&#45;&gt;Node0x55e535db1f88</title>
<path fill="none" stroke="black" d="M940.25,-312.97C870.66,-270.81 697.28,-165.75 619.42,-118.58"/>
<polygon fill="black" stroke="black" points="620.78,-115.32 610.42,-113.13 617.16,-121.3 620.78,-115.32"/>
</g>
<!-- Node0x55e535db1178&#45;&gt;Node0x55e535db0048 -->
<g id="edge32" class="edge">
<title>Node0x55e535db1178&#45;&gt;Node0x55e535db0048</title>
<path fill="none" stroke="#7fb2ff" d="M917.26,-349.07C858.09,-366.02 760.62,-390.97 685.73,-408.6"/>
<polygon fill="#7fb2ff" stroke="#7fb2ff" points="684.72,-405.24 675.78,-410.92 686.32,-412.05 684.72,-405.24"/>
</g>
<!-- Node0x55e535db1178&#45;&gt;Node0x55e535db9238 -->
<g id="edge33" class="edge">
<title>Node0x55e535db1178&#45;&gt;Node0x55e535db9238</title>
<path fill="none" stroke="#7fb2ff" d="M928.74,-349.05C880.4,-372.3 803.73,-417.76 771,-484 761.06,-504.12 759.2,-565.91 771,-585 775.7,-592.61 781.41,-599.15 787.88,-604.75"/>
<polygon fill="#7fb2ff" stroke="#7fb2ff" points="785.77,-607.54 795.82,-610.91 790.06,-602.01 785.77,-607.54"/>
</g>
<!-- Node0x55e535daeba8 -->
<g id="node12" class="node">
<title>Node0x55e535daeba8</title>
<polygon fill="#7fb2ff" stroke="black" points="1535,-457 1204,-457 1204,-421 1535,-421 1535,-457"/>
<text text-anchor="middle" x="1369.5" y="-435.3" font-family="Times,serif" font-size="14.00">{lib/libLLVMObject.a(ELFObjectFile.cpp.o)}</text>
</g>
<!-- Node0x55e535db1178&#45;&gt;Node0x55e535daeba8 -->
<g id="edge34" class="edge">
<title>Node0x55e535db1178&#45;&gt;Node0x55e535daeba8</title>
<path fill="none" stroke="#7fb2ff" d="M1122.42,-341.49C1131.01,-345.02 1139.28,-349.17 1147,-354 1169.91,-368.33 1159.83,-389.09 1183,-403 1193.03,-409.02 1203.89,-413.88 1215.17,-417.82"/>
<polygon fill="#7fb2ff" stroke="#7fb2ff" points="1214.13,-421.16 1224.72,-420.91 1216.29,-414.5 1214.13,-421.16"/>
</g>
<!-- Node0x55e535daad28 -->
<g id="node13" class="node">
<title>Node0x55e535daad28</title>
<polygon fill="#7fb2ff" stroke="black" points="1541,-349 1198,-349 1198,-313 1541,-313 1541,-349"/>
<text text-anchor="middle" x="1369.5" y="-327.3" font-family="Times,serif" font-size="14.00">{lib/libLLVMObject.a(COFFObjectFile.cpp.o)}</text>
</g>
<!-- Node0x55e535db1178&#45;&gt;Node0x55e535daad28 -->
<g id="edge35" class="edge">
<title>Node0x55e535db1178&#45;&gt;Node0x55e535daad28</title>
<path fill="none" stroke="#7fb2ff" d="M1122.18,-324.43C1143.57,-324.27 1165.74,-324.21 1187.64,-324.27"/>
<polygon fill="#7fb2ff" stroke="#7fb2ff" points="1187.66,-327.77 1197.67,-324.31 1187.68,-320.77 1187.66,-327.77"/>
</g>
<!-- Node0x55e535db2118 -->
<g id="node14" class="node">
<title>Node0x55e535db2118</title>
<polygon fill="#7fb2ff" stroke="black" points="1541.5,-403 1197.5,-403 1197.5,-367 1541.5,-367 1541.5,-403"/>
<text text-anchor="middle" x="1369.5" y="-381.3" font-family="Times,serif" font-size="14.00">{lib/libLLVMObject.a(WasmObjectFile.cpp.o)}</text>
</g>
<!-- Node0x55e535db1178&#45;&gt;Node0x55e535db2118 -->
<g id="edge36" class="edge">
<title>Node0x55e535db1178&#45;&gt;Node0x55e535db2118</title>
<path fill="none" stroke="#7fb2ff" d="M1122.18,-344.88C1171.09,-351.17 1224.15,-358.6 1268.45,-365.42"/>
<polygon fill="#7fb2ff" stroke="#7fb2ff" points="1267.93,-368.88 1278.35,-366.96 1269,-361.97 1267.93,-368.88"/>
</g>
<!-- Node0x55e535db13a8 -->
<g id="node15" class="node">
<title>Node0x55e535db13a8</title>
<polygon fill="#7fb2ff" stroke="black" points="1546,-295 1193,-295 1193,-259 1546,-259 1546,-295"/>
<text text-anchor="middle" x="1369.5" y="-273.3" font-family="Times,serif" font-size="14.00">{lib/libLLVMObject.a(XCOFFObjectFile.cpp.o)}</text>
</g>
<!-- Node0x55e535db1178&#45;&gt;Node0x55e535db13a8 -->
<g id="edge37" class="edge">
<title>Node0x55e535db1178&#45;&gt;Node0x55e535db13a8</title>
<path fill="none" stroke="#7fb2ff" d="M1061.97,-312.99C1097.93,-307.36 1140.75,-301.2 1182.81,-295.55"/>
<polygon fill="#7fb2ff" stroke="#7fb2ff" points="1183.45,-299 1192.9,-294.2 1182.53,-292.06 1183.45,-299"/>
</g>
<!-- Node0x55e535db1218&#45;&gt;Node0x55e535db2258 -->
<g id="edge38" class="edge">
<title>Node0x55e535db1218&#45;&gt;Node0x55e535db2258</title>
<path fill="none" stroke="#7fb2ff" d="M888.67,-481C775.31,-459.71 565.15,-434.16 400,-494 314.16,-525.1 238.45,-606.63 203.5,-648.84"/>
<polygon fill="#7fb2ff" stroke="#7fb2ff" points="200.68,-646.77 197.07,-656.73 206.1,-651.19 200.68,-646.77"/>
</g>
<!-- Node0x55e535db1218&#45;&gt;Node0x55e535db1f88 -->
<g id="edge39" class="edge">
<title>Node0x55e535db1218&#45;&gt;Node0x55e535db1f88</title>
<path fill="none" stroke="black" d="M931.58,-480.87C894.03,-461.93 836.6,-429.62 795,-391 703.77,-306.3 626.41,-177.62 595.23,-122.08"/>
<polygon fill="black" stroke="black" points="598.21,-120.24 590.29,-113.2 592.09,-123.64 598.21,-120.24"/>
</g>
<!-- Node0x55e535db1218&#45;&gt;Node0x55e535db0048 -->
<g id="edge40" class="edge">
<title>Node0x55e535db1218&#45;&gt;Node0x55e535db0048</title>
<path fill="none" stroke="#7fb2ff" d="M820.44,-480.96C799.8,-477.34 778.87,-473.57 759,-470 722.21,-463.39 681.16,-456.03 647.7,-449.14"/>
<polygon fill="#7fb2ff" stroke="#7fb2ff" points="648.08,-445.64 637.58,-447.01 646.65,-452.49 648.08,-445.64"/>
</g>
<!-- Node0x55e535db1218&#45;&gt;Node0x55e535db1178 -->
<g id="edge41" class="edge">
<title>Node0x55e535db1218&#45;&gt;Node0x55e535db1178</title>
<path fill="none" stroke="#7fb2ff" d="M971,-480.84C971,-440.26 971,-399.67 971,-359.09"/>
<polygon fill="#7fb2ff" stroke="#7fb2ff" points="974.5,-359.05 971,-349.05 967.5,-359.05 974.5,-359.05"/>
</g>
<!-- Node0x55e535db0368 -->
<g id="node16" class="node">
<title>Node0x55e535db0368</title>
<polygon fill="none" stroke="black" points="1556,-59 1183,-59 1183,-23 1556,-23 1556,-59"/>
<text text-anchor="middle" x="1369.5" y="-37.3" font-family="Times,serif" font-size="14.00">{lib/libLLVMObject.a(ModuleSymbolTable.cpp.o)}</text>
</g>
<!-- Node0x55e535db1218&#45;&gt;Node0x55e535db0368 -->
<g id="edge42" class="edge">
<title>Node0x55e535db1218&#45;&gt;Node0x55e535db0368</title>
<path fill="none" stroke="black" d="M1004.48,-480.81C1043.64,-457.3 1108.93,-412.79 1147,-358 1175.87,-316.45 1157.69,-293.81 1183,-250 1226.45,-174.78 1299.87,-102.53 1340.08,-65.9"/>
<polygon fill="black" stroke="black" points="1342.58,-68.36 1347.66,-59.06 1337.89,-63.16 1342.58,-68.36"/>
</g>
<!-- Node0x55e535db9238&#45;&gt;Node0x55e535db2258 -->
<g id="edge8" class="edge">
<title>Node0x55e535db9238&#45;&gt;Node0x55e535db2258</title>
<path fill="none" stroke="#7fb2ff" d="M960.25,-647.19C934.59,-692.88 860.12,-811.94 759,-856 685.86,-887.87 475.01,-883.18 400,-856 314.16,-824.9 238.45,-743.37 203.5,-701.16"/>
<polygon fill="#7fb2ff" stroke="#7fb2ff" points="206.1,-698.81 197.07,-693.27 200.68,-703.23 206.1,-698.81"/>
</g>
<!-- Node0x55e535db9238&#45;&gt;Node0x55e535db1f88 -->
<g id="edge9" class="edge">
<title>Node0x55e535db9238&#45;&gt;Node0x55e535db1f88</title>
<path fill="none" stroke="black" d="M918.73,-610.97C879.42,-594.62 826.69,-566.78 795,-526 759.78,-480.69 781.59,-454.75 759,-402 712.08,-292.44 634.24,-173.28 598.93,-121.5"/>
<polygon fill="black" stroke="black" points="601.78,-119.47 593.24,-113.2 596.01,-123.43 601.78,-119.47"/>
</g>
<!-- Node0x55e535db9238&#45;&gt;Node0x55e535db0048 -->
<g id="edge10" class="edge">
<title>Node0x55e535db9238&#45;&gt;Node0x55e535db0048</title>
<path fill="none" stroke="#7fb2ff" d="M934.88,-610.96C898.63,-591.73 841.03,-559.51 795,-526 777.69,-513.4 777.38,-504.97 759,-494 727.94,-475.47 690.74,-460.89 658.36,-450.27"/>
<polygon fill="#7fb2ff" stroke="#7fb2ff" points="659.06,-446.82 648.47,-447.11 656.93,-453.49 659.06,-446.82"/>
</g>
<!-- Node0x55e535db9238&#45;&gt;Node0x55e535db1178 -->
<g id="edge11" class="edge">
<title>Node0x55e535db9238&#45;&gt;Node0x55e535db1178</title>
<path fill="none" stroke="#7fb2ff" d="M800.55,-610.84C793.76,-605.34 787.81,-598.79 783,-591 769.8,-569.64 772,-500.57 783,-478 811.45,-419.64 875.51,-377.65 920.93,-353.85"/>
<polygon fill="#7fb2ff" stroke="#7fb2ff" points="922.73,-356.86 930.03,-349.19 919.54,-350.63 922.73,-356.86"/>
</g>
<!-- Node0x55e535daeba8&#45;&gt;Node0x55e535db2258 -->
<g id="edge43" class="edge">
<title>Node0x55e535daeba8&#45;&gt;Node0x55e535db2258</title>
<path fill="none" stroke="#7fb2ff" d="M1356.2,-457.19C1325.42,-501.63 1240.75,-617.34 1147,-689 994.14,-805.84 946.35,-837.18 759,-881 603.64,-917.34 548.19,-940.14 400,-881 308.22,-844.37 233.01,-748.42 200.43,-701.55"/>
<polygon fill="#7fb2ff" stroke="#7fb2ff" points="203.2,-699.4 194.67,-693.12 197.43,-703.35 203.2,-699.4"/>
</g>
<!-- Node0x55e535daeba8&#45;&gt;Node0x55e535db1f88 -->
<g id="edge44" class="edge">
<title>Node0x55e535daeba8&#45;&gt;Node0x55e535db1f88</title>
<path fill="none" stroke="black" d="M1203.88,-429.08C1059.75,-418 863.04,-396.37 795,-358 694.54,-301.35 622.3,-177.56 593.86,-122.43"/>
<polygon fill="black" stroke="black" points="596.86,-120.61 589.21,-113.28 590.62,-123.78 596.86,-120.61"/>
</g>
<!-- Node0x55e535daeba8&#45;&gt;Node0x55e535db0048 -->
<g id="edge45" class="edge">
<title>Node0x55e535daeba8&#45;&gt;Node0x55e535db0048</title>
<path fill="none" stroke="#7fb2ff" d="M1203.85,-436.91C1070.94,-435.22 884.62,-432.86 750.35,-431.16"/>
<polygon fill="#7fb2ff" stroke="#7fb2ff" points="750.01,-427.65 739.96,-431.02 749.92,-434.65 750.01,-427.65"/>
</g>
<!-- Node0x55e535daeba8&#45;&gt;Node0x55e535db1178 -->
<g id="edge46" class="edge">
<title>Node0x55e535daeba8&#45;&gt;Node0x55e535db1178</title>
<path fill="none" stroke="#7fb2ff" d="M1203.63,-431.38C1196.47,-428.38 1189.56,-424.94 1183,-421 1159.83,-407.09 1169.91,-386.33 1147,-372 1132.88,-363.17 1116.95,-356.64 1100.59,-351.75"/>
<polygon fill="#7fb2ff" stroke="#7fb2ff" points="1101.49,-348.36 1090.92,-349.05 1099.61,-355.11 1101.49,-348.36"/>
</g>
<!-- Node0x55e535da6e08 -->
<g id="node17" class="node">
<title>Node0x55e535da6e08</title>
<polygon fill="none" stroke="black" points="1891.5,-113 1636.5,-113 1636.5,-77 1891.5,-77 1891.5,-113"/>
<text text-anchor="middle" x="1764" y="-91.3" font-family="Times,serif" font-size="14.00">{lib/libLLVMObject.a(ELF.cpp.o)}</text>
</g>
<!-- Node0x55e535daeba8&#45;&gt;Node0x55e535da6e08 -->
<g id="edge47" class="edge">
<title>Node0x55e535daeba8&#45;&gt;Node0x55e535da6e08</title>
<path fill="none" stroke="black" d="M1535.2,-423.03C1542.44,-419.86 1549.42,-416.2 1556,-412 1667.24,-340.94 1731.34,-186.3 1753.8,-122.93"/>
<polygon fill="black" stroke="black" points="1757.19,-123.82 1757.16,-113.23 1750.58,-121.53 1757.19,-123.82"/>
</g>
<!-- Node0x55e535daad28&#45;&gt;Node0x55e535db1f88 -->
<g id="edge12" class="edge">
<title>Node0x55e535daad28&#45;&gt;Node0x55e535db1f88</title>
<path fill="none" stroke="black" d="M1197.67,-314.4C1192.53,-311.32 1187.61,-307.87 1183,-304 1143.92,-271.2 1186.23,-227.62 1147,-195 1086.3,-144.53 872.57,-161.65 795,-147 748.91,-138.29 697.86,-126.03 657.12,-115.59"/>
<polygon fill="black" stroke="black" points="657.82,-112.16 647.26,-113.05 656.07,-118.94 657.82,-112.16"/>
</g>
<!-- Node0x55e535daad28&#45;&gt;Node0x55e535db0048 -->
<g id="edge13" class="edge">
<title>Node0x55e535daad28&#45;&gt;Node0x55e535db0048</title>
<path fill="none" stroke="#7fb2ff" d="M1242.82,-313C1211.58,-309.26 1178.13,-305.89 1147,-304 990.84,-294.52 946.03,-263.2 795,-304 722.55,-323.57 649.43,-374.34 610.06,-404.82"/>
<polygon fill="#7fb2ff" stroke="#7fb2ff" points="607.89,-402.07 602.19,-411 612.21,-407.58 607.89,-402.07"/>
</g>
<!-- Node0x55e535daad28&#45;&gt;Node0x55e535db1178 -->
<g id="edge14" class="edge">
<title>Node0x55e535daad28&#45;&gt;Node0x55e535db1178</title>
<path fill="none" stroke="#7fb2ff" d="M1197.67,-337.69C1175.99,-337.78 1153.86,-337.77 1132.35,-337.64"/>
<polygon fill="#7fb2ff" stroke="#7fb2ff" points="1132.21,-334.14 1122.18,-337.57 1132.16,-341.14 1132.21,-334.14"/>
</g>
<!-- Node0x55e535db2118&#45;&gt;Node0x55e535db2258 -->
<g id="edge48" class="edge">
<title>Node0x55e535db2118&#45;&gt;Node0x55e535db2258</title>
<path fill="none" stroke="#7fb2ff" d="M1197.17,-400.34C1192.13,-403.76 1187.38,-407.63 1183,-412 1105.41,-489.44 1229.27,-583.55 1147,-656 1116.9,-682.51 591.38,-679.97 329.25,-677.02"/>
<polygon fill="#7fb2ff" stroke="#7fb2ff" points="328.92,-673.52 318.88,-676.91 328.84,-680.52 328.92,-673.52"/>
</g>
<!-- Node0x55e535db2118&#45;&gt;Node0x55e535db1f88 -->
<g id="edge49" class="edge">
<title>Node0x55e535db2118&#45;&gt;Node0x55e535db1f88</title>
<path fill="none" stroke="black" d="M1199.35,-366.92C1193.7,-364.27 1188.23,-361.3 1183,-358 1158.62,-342.59 1169.89,-321.56 1147,-304 1015.97,-203.48 949.46,-243.43 795,-185 737.99,-163.44 673.65,-136.02 630.43,-117.14"/>
<polygon fill="black" stroke="black" points="631.84,-113.93 621.27,-113.13 629.03,-120.35 631.84,-113.93"/>
</g>
<!-- Node0x55e535db2118&#45;&gt;Node0x55e535db0048 -->
<g id="edge50" class="edge">
<title>Node0x55e535db2118&#45;&gt;Node0x55e535db0048</title>
<path fill="none" stroke="#7fb2ff" d="M1197.33,-394.56C1064.85,-401.96 882.29,-412.15 750.18,-419.53"/>
<polygon fill="#7fb2ff" stroke="#7fb2ff" points="749.75,-416.04 739.96,-420.1 750.14,-423.03 749.75,-416.04"/>
</g>
<!-- Node0x55e535db2118&#45;&gt;Node0x55e535db1178 -->
<g id="edge51" class="edge">
<title>Node0x55e535db2118&#45;&gt;Node0x55e535db1178</title>
<path fill="none" stroke="#7fb2ff" d="M1197.29,-368.38C1154.52,-362.73 1110.03,-356.42 1072.01,-350.57"/>
<polygon fill="#7fb2ff" stroke="#7fb2ff" points="1072.39,-347.09 1061.97,-349.01 1071.32,-354.01 1072.39,-347.09"/>
</g>
<!-- Node0x55e535db13a8&#45;&gt;Node0x55e535db1f88 -->
<g id="edge52" class="edge">
<title>Node0x55e535db13a8&#45;&gt;Node0x55e535db1f88</title>
<path fill="none" stroke="black" d="M1343.05,-258.89C1303.32,-231.65 1223.19,-180.8 1147,-157 1070.51,-133.11 864,-114.63 722.64,-104.28"/>
<polygon fill="black" stroke="black" points="722.8,-100.78 712.58,-103.55 722.3,-107.76 722.8,-100.78"/>
</g>
<!-- Node0x55e535db13a8&#45;&gt;Node0x55e535db0048 -->
<g id="edge53" class="edge">
<title>Node0x55e535db13a8&#45;&gt;Node0x55e535db0048</title>
<path fill="none" stroke="#7fb2ff" d="M1263.58,-258.98C1146.34,-243.01 952.32,-229.15 795,-279 717.15,-303.67 642.89,-367.63 605.55,-403.55"/>
<polygon fill="#7fb2ff" stroke="#7fb2ff" points="602.87,-401.28 598.15,-410.77 607.76,-406.29 602.87,-401.28"/>
</g>
<!-- Node0x55e535db13a8&#45;&gt;Node0x55e535db1178 -->
<g id="edge54" class="edge">
<title>Node0x55e535db13a8&#45;&gt;Node0x55e535db1178</title>
<path fill="none" stroke="#7fb2ff" d="M1278.35,-295.04C1235.17,-301.8 1182.14,-309.31 1132.41,-315.79"/>
<polygon fill="#7fb2ff" stroke="#7fb2ff" points="1131.65,-312.36 1122.18,-317.12 1132.55,-319.3 1131.65,-312.36"/>
</g>
<!-- Node0x55e535db0138 -->
<g id="node18" class="node">
<title>Node0x55e535db0138</title>
<polygon fill="none" stroke="black" points="1936,-59 1592,-59 1592,-23 1936,-23 1936,-59"/>
<text text-anchor="middle" x="1764" y="-37.3" font-family="Times,serif" font-size="14.00">{lib/libLLVMObject.a(RecordStreamer.cpp.o)}</text>
</g>
<!-- Node0x55e535db0368&#45;&gt;Node0x55e535db0138 -->
<g id="edge56" class="edge">
<title>Node0x55e535db0368&#45;&gt;Node0x55e535db0138</title>
<path fill="none" stroke="black" d="M1556.12,-41C1564.67,-41 1573.25,-41 1581.79,-41"/>
<polygon fill="black" stroke="black" points="1581.8,-44.5 1591.8,-41 1581.8,-37.5 1581.8,-44.5"/>
</g>
<!-- Node0x55e535da6e08&#45;&gt;Node0x55e535db1f88 -->
<g id="edge55" class="edge">
<title>Node0x55e535da6e08&#45;&gt;Node0x55e535db1f88</title>
<path fill="none" stroke="black" d="M1636.12,-95C1413.87,-95 955.7,-95 722.94,-95"/>
<polygon fill="black" stroke="black" points="722.71,-91.5 712.71,-95 722.71,-98.5 722.71,-91.5"/>
</g>
<!-- Node0x55e535dad1b8 -->
<g id="node19" class="node">
<title>Node0x55e535dad1b8</title>
<polygon fill="none" stroke="black" points="1120.5,-59 821.5,-59 821.5,-23 1120.5,-23 1120.5,-59"/>
<text text-anchor="middle" x="971" y="-37.3" font-family="Times,serif" font-size="14.00">{lib/libLLVMObject.a(IRSymtab.cpp.o)}</text>
</g>
<!-- Node0x55e535dad1b8&#45;&gt;Node0x55e535db0368 -->
<g id="edge57" class="edge">
<title>Node0x55e535dad1b8&#45;&gt;Node0x55e535db0368</title>
<path fill="none" stroke="black" d="M1120.77,-41C1137.67,-41 1155.08,-41 1172.47,-41"/>
<polygon fill="black" stroke="black" points="1172.7,-44.5 1182.7,-41 1172.7,-37.5 1172.7,-44.5"/>
</g>
<!-- Node0x55e535daf198 -->
<g id="node20" class="node">
<title>Node0x55e535daf198</title>
<polygon fill="none" stroke="black" points="324.5,-447 39.5,-447 39.5,-411 324.5,-411 324.5,-447"/>
<text text-anchor="middle" x="182" y="-425.3" font-family="Times,serif" font-size="14.00">{lib/libLLVMObject.a(TapiFile.cpp.o)}</text>
</g>
<!-- Node0x55e535daf198&#45;&gt;Node0x55e535db0048 -->
<g id="edge58" class="edge">
<title>Node0x55e535daf198&#45;&gt;Node0x55e535db0048</title>
<path fill="none" stroke="black" d="M324.67,-429C352.01,-429 380.91,-429 409.03,-429"/>
<polygon fill="black" stroke="black" points="409.35,-432.5 419.35,-429 409.35,-425.5 409.35,-432.5"/>
</g>
<!-- Node0x55e535daaff8 -->
<g id="node21" class="node">
<title>Node0x55e535daaff8</title>
<polygon fill="none" stroke="black" points="735,-539 424,-539 424,-503 735,-503 735,-539"/>
<text text-anchor="middle" x="579.5" y="-517.3" font-family="Times,serif" font-size="14.00">{lib/libLLVMObject.a(SymbolSize.cpp.o)}</text>
</g>
<!-- Node0x55e535daaff8&#45;&gt;Node0x55e535db1178 -->
<g id="edge59" class="edge">
<title>Node0x55e535daaff8&#45;&gt;Node0x55e535db1178</title>
<path fill="none" stroke="black" d="M638.28,-503C673.77,-491.2 719.8,-474.55 759,-456 823.36,-425.54 893.67,-381.54 934.7,-354.68"/>
<polygon fill="black" stroke="black" points="936.81,-357.48 943.24,-349.06 932.96,-351.63 936.81,-357.48"/>
</g>
<!-- Node0x55e535daaff8&#45;&gt;Node0x55e535db9238 -->
<g id="edge60" class="edge">
<title>Node0x55e535daaff8&#45;&gt;Node0x55e535db9238</title>
<path fill="none" stroke="black" d="M735.19,-536.3C743.49,-539.59 751.49,-543.46 759,-548 782.13,-561.98 772.09,-582.67 795,-597 800.89,-600.69 807.1,-603.97 813.53,-606.9"/>
<polygon fill="black" stroke="black" points="812.51,-610.27 823.08,-610.94 815.23,-603.82 812.51,-610.27"/>
</g>
<!-- Node0x55e535daaff8&#45;&gt;Node0x55e535daad28 -->
<g id="edge61" class="edge">
<title>Node0x55e535daaff8&#45;&gt;Node0x55e535daad28</title>
<path fill="none" stroke="black" d="M735.25,-532.3C891.97,-542.17 1115.64,-551.35 1147,-526 1206.38,-477.99 1127.24,-410.17 1183,-358 1185.17,-355.97 1187.43,-354.05 1189.75,-352.23"/>
<polygon fill="black" stroke="black" points="1191.78,-355.08 1197.93,-346.45 1187.74,-349.36 1191.78,-355.08"/>
</g>
<!-- Node0x55e535daaff8&#45;&gt;Node0x55e535db2118 -->
<g id="edge62" class="edge">
<title>Node0x55e535daaff8&#45;&gt;Node0x55e535db2118</title>
<path fill="none" stroke="black" d="M714.44,-539.08C729.53,-541.76 744.64,-544.74 759,-548 775.31,-551.71 778.45,-556.53 795,-559 872.36,-570.56 1085.46,-607.29 1147,-559 1199.92,-517.48 1133.22,-457.24 1183,-412 1184.95,-410.23 1186.96,-408.54 1189.03,-406.94"/>
<polygon fill="black" stroke="black" points="1191.1,-409.76 1197.27,-401.14 1187.08,-404.03 1191.1,-409.76"/>
</g>
<!-- Node0x55e535db2348 -->
<g id="node22" class="node">
<title>Node0x55e535db2348</title>
<polygon fill="none" stroke="black" points="346.5,-140 17.5,-140 17.5,-104 346.5,-104 346.5,-140"/>
<text text-anchor="middle" x="182" y="-118.3" font-family="Times,serif" font-size="14.00">{lib/libLLVMObject.a(Decompressor.cpp.o)}</text>
</g>
<!-- Node0x55e535db2348&#45;&gt;Node0x55e535db1f88 -->
<g id="edge63" class="edge">
<title>Node0x55e535db2348&#45;&gt;Node0x55e535db1f88</title>
<path fill="none" stroke="black" d="M346.72,-110.82C376.37,-108.8 407.08,-106.7 436.07,-104.72"/>
<polygon fill="black" stroke="black" points="436.5,-108.2 446.24,-104.03 436.03,-101.22 436.5,-108.2"/>
</g>
<!-- Node0x55e535db1678 -->
<g id="node23" class="node">
<title>Node0x55e535db1678</title>
<polygon fill="none" stroke="black" points="364,-86 0,-86 0,-50 364,-50 364,-86"/>
<text text-anchor="middle" x="182" y="-64.3" font-family="Times,serif" font-size="14.00">{lib/libLLVMObject.a(RelocationResolver.cpp.o)}</text>
</g>
<!-- Node0x55e535db1678&#45;&gt;Node0x55e535db1f88 -->
<g id="edge64" class="edge">
<title>Node0x55e535db1678&#45;&gt;Node0x55e535db1f88</title>
<path fill="none" stroke="black" d="M364.26,-80.37C388.33,-82.02 412.74,-83.68 436.03,-85.27"/>
<polygon fill="black" stroke="black" points="436.08,-88.79 446.29,-85.97 436.55,-81.8 436.08,-88.79"/>
</g>
</g>
</svg>
