<?xml version="1.0" encoding="UTF-8" standalone="no"?>
<!DOCTYPE svg PUBLIC "-//W3C//DTD SVG 1.1//EN"
 "http://www.w3.org/Graphics/SVG/1.1/DTD/svg11.dtd">
<!-- Generated by graphviz version 2.43.0 (0)
 -->
<!-- Title: cmTC_d549e Pages: 1 -->
<svg width="1140pt" height="213pt"
 viewBox="0.00 0.00 1139.78 213.00" xmlns="http://www.w3.org/2000/svg" xmlns:xlink="http://www.w3.org/1999/xlink">
<g id="graph0" class="graph" transform="scale(1 1) rotate(0) translate(4 209)">
<title>cmTC_d549e</title>
<polygon fill="white" stroke="transparent" points="-4,4 -4,-209 1135.78,-209 1135.78,4 -4,4"/>
<text text-anchor="middle" x="565.89" y="-7.8" font-family="Times,serif" font-size="14.00">cmTC_d549e</text>
<!-- Node0x5626343f6fa0 -->
<g id="node1" class="node">
<title>Node0x5626343f6fa0</title>
<polygon fill="none" stroke="black" points="215.39,-168.5 215.39,-204.5 673.39,-204.5 673.39,-168.5 215.39,-168.5"/>
<text text-anchor="middle" x="444.39" y="-182.8" font-family="Times,serif" font-size="14.00">/usr/lib/gcc/x86_64&#45;linux&#45;gnu/9/../../../x86_64&#45;linux&#45;gnu/Scrt1.o</text>
</g>
<!-- Node0x5626343f6b68 -->
<g id="node2" class="node">
<title>Node0x5626343f6b68</title>
<ellipse fill="none" stroke="black" cx="114.39" cy="-113.5" rx="114.28" ry="18"/>
<text text-anchor="middle" x="114.39" y="-109.8" font-family="Times,serif" font-size="14.00">Node0x5626343f6b68</text>
</g>
<!-- Node0x5626343f6fa0&#45;&gt;Node0x5626343f6b68 -->
<g id="edge1" class="edge">
<title>Node0x5626343f6fa0&#45;&gt;Node0x5626343f6b68</title>
<path fill="none" stroke="black" d="M365.35,-168.49C311.79,-156.97 241.46,-141.84 188.88,-130.53"/>
<polygon fill="black" stroke="black" points="189.46,-127.07 178.95,-128.39 187.99,-133.92 189.46,-127.07"/>
</g>
<!-- Node0x5626343f6ad8 -->
<g id="node3" class="node">
<title>Node0x5626343f6ad8</title>
<polygon fill="none" stroke="black" points="246.39,-95.5 246.39,-131.5 642.39,-131.5 642.39,-95.5 246.39,-95.5"/>
<text text-anchor="middle" x="444.39" y="-109.8" font-family="Times,serif" font-size="14.00">/usr/lib/x86_64&#45;linux&#45;gnu/libc_nonshared.a(elf&#45;init.oS)</text>
</g>
<!-- Node0x5626343f6fa0&#45;&gt;Node0x5626343f6ad8 -->
<g id="edge2" class="edge">
<title>Node0x5626343f6fa0&#45;&gt;Node0x5626343f6ad8</title>
<path fill="none" stroke="black" d="M444.39,-168.31C444.39,-160.29 444.39,-150.55 444.39,-141.57"/>
<polygon fill="black" stroke="black" points="447.89,-141.53 444.39,-131.53 440.89,-141.53 447.89,-141.53"/>
</g>
<!-- Node0x5626343f6ec8 -->
<g id="node4" class="node">
<title>Node0x5626343f6ec8</title>
<ellipse fill="none" stroke="black" cx="772.39" cy="-113.5" rx="112.38" ry="18"/>
<text text-anchor="middle" x="772.39" y="-109.8" font-family="Times,serif" font-size="14.00">Node0x5626343f6ec8</text>
</g>
<!-- Node0x5626343f6fa0&#45;&gt;Node0x5626343f6ec8 -->
<g id="edge3" class="edge">
<title>Node0x5626343f6fa0&#45;&gt;Node0x5626343f6ec8</title>
<path fill="none" stroke="black" d="M522.95,-168.49C576.28,-156.95 646.32,-141.79 698.61,-130.47"/>
<polygon fill="black" stroke="black" points="699.45,-133.87 708.49,-128.33 697.97,-127.03 699.45,-133.87"/>
</g>
<!-- Node0x5626343f68e0 -->
<g id="node7" class="node">
<title>Node0x5626343f68e0</title>
<ellipse fill="none" stroke="black" cx="444.39" cy="-41" rx="113.98" ry="18"/>
<text text-anchor="middle" x="444.39" y="-37.3" font-family="Times,serif" font-size="14.00">Node0x5626343f68e0</text>
</g>
<!-- Node0x5626343f6ad8&#45;&gt;Node0x5626343f68e0 -->
<g id="edge6" class="edge">
<title>Node0x5626343f6ad8&#45;&gt;Node0x5626343f68e0</title>
<path fill="none" stroke="black" d="M444.39,-95.43C444.39,-87.67 444.39,-78.28 444.39,-69.56"/>
<polygon fill="black" stroke="black" points="447.89,-69.4 444.39,-59.4 440.89,-69.4 447.89,-69.4"/>
</g>
<!-- Node0x5626343f7420 -->
<g id="node5" class="node">
<title>Node0x5626343f7420</title>
<polygon fill="none" stroke="black" points="773.89,-168.5 773.89,-204.5 1094.89,-204.5 1094.89,-168.5 773.89,-168.5"/>
<text text-anchor="middle" x="934.39" y="-182.8" font-family="Times,serif" font-size="14.00">/usr/lib/gcc/x86_64&#45;linux&#45;gnu/9/crtbeginS.o</text>
</g>
<!-- Node0x5626343f7420&#45;&gt;Node0x5626343f6ec8 -->
<g id="edge5" class="edge">
<title>Node0x5626343f7420&#45;&gt;Node0x5626343f6ec8</title>
<path fill="none" stroke="black" d="M895.59,-168.49C872.45,-158.35 842.94,-145.42 818.6,-134.75"/>
<polygon fill="black" stroke="black" points="819.77,-131.44 809.21,-130.64 816.96,-137.86 819.77,-131.44"/>
</g>
<!-- Node0x5626343f6658 -->
<g id="node6" class="node">
<title>Node0x5626343f6658</title>
<ellipse fill="none" stroke="black" cx="1017.39" cy="-113.5" rx="114.28" ry="18"/>
<text text-anchor="middle" x="1017.39" y="-109.8" font-family="Times,serif" font-size="14.00">Node0x5626343f6658</text>
</g>
<!-- Node0x5626343f7420&#45;&gt;Node0x5626343f6658 -->
<g id="edge4" class="edge">
<title>Node0x5626343f7420&#45;&gt;Node0x5626343f6658</title>
<path fill="none" stroke="black" d="M954.48,-168.31C965.16,-159.18 978.45,-147.81 990.06,-137.88"/>
<polygon fill="black" stroke="black" points="992.45,-140.44 997.77,-131.28 987.9,-135.12 992.45,-140.44"/>
</g>
</g>
</svg>
