<?xml version="1.0" encoding="UTF-8" standalone="no"?>
<!DOCTYPE svg PUBLIC "-//W3C//DTD SVG 1.1//EN"
 "http://www.w3.org/Graphics/SVG/1.1/DTD/svg11.dtd">
<!-- Generated by graphviz version 2.43.0 (0)
 -->
<!-- Title: bin/llvm&#45;cov_lib/libLLVMProfileData.a Pages: 1 -->
<svg width="867pt" height="229pt"
 viewBox="0.00 0.00 867.00 229.00" xmlns="http://www.w3.org/2000/svg" xmlns:xlink="http://www.w3.org/1999/xlink">
<g id="graph0" class="graph" transform="scale(1 1) rotate(0) translate(4 225)">
<title>bin/llvm&#45;cov_lib/libLLVMProfileData.a</title>
<polygon fill="white" stroke="transparent" points="-4,4 -4,-225 863,-225 863,4 -4,4"/>
<text text-anchor="middle" x="429.5" y="-7.8" font-family="Times,serif" font-size="14.00">bin/llvm&#45;cov_lib/libLLVMProfileData.a</text>
<!-- Node0x563f65c5c4a8 -->
<g id="node1" class="node">
<title>Node0x563f65c5c4a8</title>
<polygon fill="none" stroke="black" points="348.5,-59 46.5,-59 46.5,-23 348.5,-23 348.5,-59"/>
<text text-anchor="middle" x="197.5" y="-37.3" font-family="Times,serif" font-size="14.00">{lib/libLLVMProfileData.a(GCOV.cpp.o)}</text>
</g>
<!-- Node0x563f65c5b8c8 -->
<g id="node2" class="node">
<title>Node0x563f65c5b8c8</title>
<polygon fill="none" stroke="black" points="808,-167 482,-167 482,-131 808,-131 808,-167"/>
<text text-anchor="middle" x="645" y="-145.3" font-family="Times,serif" font-size="14.00">{lib/libLLVMProfileData.a(InstrProf.cpp.o)}</text>
</g>
<!-- Node0x563f65c5c098 -->
<g id="node3" class="node">
<title>Node0x563f65c5c098</title>
<polygon fill="none" stroke="black" points="385.5,-167 9.5,-167 9.5,-131 385.5,-131 385.5,-167"/>
<text text-anchor="middle" x="197.5" y="-145.3" font-family="Times,serif" font-size="14.00">{lib/libLLVMProfileData.a(InstrProfReader.cpp.o)}</text>
</g>
<!-- Node0x563f65c5c098&#45;&gt;Node0x563f65c5b8c8 -->
<g id="edge1" class="edge">
<title>Node0x563f65c5c098&#45;&gt;Node0x563f65c5b8c8</title>
<path fill="none" stroke="black" d="M385.82,-149C414.22,-149 443.4,-149 471.47,-149"/>
<polygon fill="black" stroke="black" points="471.76,-152.5 481.75,-149 471.75,-145.5 471.76,-152.5"/>
</g>
<!-- Node0x563f65c5fbf8 -->
<g id="node4" class="node">
<title>Node0x563f65c5fbf8</title>
<polygon fill="none" stroke="black" points="859,-113 431,-113 431,-77 859,-77 859,-113"/>
<text text-anchor="middle" x="645" y="-91.3" font-family="Times,serif" font-size="14.00">{lib/libLLVMProfileData.a(ProfileSummaryBuilder.cpp.o)}</text>
</g>
<!-- Node0x563f65c5c098&#45;&gt;Node0x563f65c5fbf8 -->
<g id="edge2" class="edge">
<title>Node0x563f65c5c098&#45;&gt;Node0x563f65c5fbf8</title>
<path fill="none" stroke="black" d="M347.15,-130.98C391.5,-125.61 440.26,-119.7 485.23,-114.25"/>
<polygon fill="black" stroke="black" points="485.85,-117.69 495.36,-113.02 485.01,-110.75 485.85,-117.69"/>
</g>
<!-- Node0x563f65c5efc8 -->
<g id="node5" class="node">
<title>Node0x563f65c5efc8</title>
<polygon fill="none" stroke="black" points="369.5,-221 25.5,-221 25.5,-185 369.5,-185 369.5,-221"/>
<text text-anchor="middle" x="197.5" y="-199.3" font-family="Times,serif" font-size="14.00">{lib/libLLVMProfileData.a(SampleProf.cpp.o)}</text>
</g>
<!-- Node0x563f65c5e3e8 -->
<g id="node6" class="node">
<title>Node0x563f65c5e3e8</title>
<polygon fill="none" stroke="black" points="395,-113 0,-113 0,-77 395,-77 395,-113"/>
<text text-anchor="middle" x="197.5" y="-91.3" font-family="Times,serif" font-size="14.00">{lib/libLLVMProfileData.a(SampleProfReader.cpp.o)}</text>
</g>
<!-- Node0x563f65c5e3e8&#45;&gt;Node0x563f65c5fbf8 -->
<g id="edge3" class="edge">
<title>Node0x563f65c5e3e8&#45;&gt;Node0x563f65c5fbf8</title>
<path fill="none" stroke="black" d="M395.2,-95C403.57,-95 411.99,-95 420.41,-95"/>
<polygon fill="black" stroke="black" points="420.67,-98.5 430.67,-95 420.67,-91.5 420.67,-98.5"/>
</g>
</g>
</svg>
