<?xml version="1.0" encoding="UTF-8" standalone="no"?>
<!DOCTYPE svg PUBLIC "-//W3C//DTD SVG 1.1//EN"
 "http://www.w3.org/Graphics/SVG/1.1/DTD/svg11.dtd">
<!-- Generated by graphviz version 2.43.0 (0)
 -->
<!-- Title: cmTC_4826f Pages: 1 -->
<svg width="1150pt" height="213pt"
 viewBox="0.00 0.00 1149.73 213.00" xmlns="http://www.w3.org/2000/svg" xmlns:xlink="http://www.w3.org/1999/xlink">
<g id="graph0" class="graph" transform="scale(1 1) rotate(0) translate(4 209)">
<title>cmTC_4826f</title>
<polygon fill="white" stroke="transparent" points="-4,4 -4,-209 1145.73,-209 1145.73,4 -4,4"/>
<text text-anchor="middle" x="570.86" y="-7.8" font-family="Times,serif" font-size="14.00">cmTC_4826f</text>
<!-- Node0x556d05c3b848 -->
<g id="node1" class="node">
<title>Node0x556d05c3b848</title>
<polygon fill="none" stroke="black" points="218.69,-168.5 218.69,-204.5 676.69,-204.5 676.69,-168.5 218.69,-168.5"/>
<text text-anchor="middle" x="447.69" y="-182.8" font-family="Times,serif" font-size="14.00">/usr/lib/gcc/x86_64&#45;linux&#45;gnu/9/../../../x86_64&#45;linux&#45;gnu/Scrt1.o</text>
</g>
<!-- Node0x556d05c3b9b0 -->
<g id="node2" class="node">
<title>Node0x556d05c3b9b0</title>
<ellipse fill="none" stroke="black" cx="115.69" cy="-113.5" rx="115.88" ry="18"/>
<text text-anchor="middle" x="115.69" y="-109.8" font-family="Times,serif" font-size="14.00">Node0x556d05c3b9b0</text>
</g>
<!-- Node0x556d05c3b848&#45;&gt;Node0x556d05c3b9b0 -->
<g id="edge1" class="edge">
<title>Node0x556d05c3b848&#45;&gt;Node0x556d05c3b9b0</title>
<path fill="none" stroke="black" d="M368.17,-168.49C314.37,-156.99 243.77,-141.89 190.9,-130.58"/>
<polygon fill="black" stroke="black" points="191.42,-127.12 180.91,-128.45 189.96,-133.96 191.42,-127.12"/>
</g>
<!-- Node0x556d05c3bc38 -->
<g id="node3" class="node">
<title>Node0x556d05c3bc38</title>
<polygon fill="none" stroke="black" points="249.69,-95.5 249.69,-131.5 645.69,-131.5 645.69,-95.5 249.69,-95.5"/>
<text text-anchor="middle" x="447.69" y="-109.8" font-family="Times,serif" font-size="14.00">/usr/lib/x86_64&#45;linux&#45;gnu/libc_nonshared.a(elf&#45;init.oS)</text>
</g>
<!-- Node0x556d05c3b848&#45;&gt;Node0x556d05c3bc38 -->
<g id="edge2" class="edge">
<title>Node0x556d05c3b848&#45;&gt;Node0x556d05c3bc38</title>
<path fill="none" stroke="black" d="M447.69,-168.31C447.69,-160.29 447.69,-150.55 447.69,-141.57"/>
<polygon fill="black" stroke="black" points="451.19,-141.53 447.69,-131.53 444.19,-141.53 451.19,-141.53"/>
</g>
<!-- Node0x556d05c3ba40 -->
<g id="node4" class="node">
<title>Node0x556d05c3ba40</title>
<ellipse fill="none" stroke="black" cx="778.69" cy="-113.5" rx="115.08" ry="18"/>
<text text-anchor="middle" x="778.69" y="-109.8" font-family="Times,serif" font-size="14.00">Node0x556d05c3ba40</text>
</g>
<!-- Node0x556d05c3b848&#45;&gt;Node0x556d05c3ba40 -->
<g id="edge3" class="edge">
<title>Node0x556d05c3b848&#45;&gt;Node0x556d05c3ba40</title>
<path fill="none" stroke="black" d="M526.97,-168.49C580.7,-156.97 651.24,-141.84 703.97,-130.53"/>
<polygon fill="black" stroke="black" points="704.89,-133.91 713.93,-128.39 703.42,-127.07 704.89,-133.91"/>
</g>
<!-- Node0x556d05c3ad98 -->
<g id="node7" class="node">
<title>Node0x556d05c3ad98</title>
<ellipse fill="none" stroke="black" cx="447.69" cy="-41" rx="115.08" ry="18"/>
<text text-anchor="middle" x="447.69" y="-37.3" font-family="Times,serif" font-size="14.00">Node0x556d05c3ad98</text>
</g>
<!-- Node0x556d05c3bc38&#45;&gt;Node0x556d05c3ad98 -->
<g id="edge6" class="edge">
<title>Node0x556d05c3bc38&#45;&gt;Node0x556d05c3ad98</title>
<path fill="none" stroke="black" d="M447.69,-95.43C447.69,-87.67 447.69,-78.28 447.69,-69.56"/>
<polygon fill="black" stroke="black" points="451.19,-69.4 447.69,-59.4 444.19,-69.4 451.19,-69.4"/>
</g>
<!-- Node0x556d05c3b2f0 -->
<g id="node5" class="node">
<title>Node0x556d05c3b2f0</title>
<polygon fill="none" stroke="black" points="780.19,-168.5 780.19,-204.5 1101.19,-204.5 1101.19,-168.5 780.19,-168.5"/>
<text text-anchor="middle" x="940.69" y="-182.8" font-family="Times,serif" font-size="14.00">/usr/lib/gcc/x86_64&#45;linux&#45;gnu/9/crtbeginS.o</text>
</g>
<!-- Node0x556d05c3b2f0&#45;&gt;Node0x556d05c3ba40 -->
<g id="edge5" class="edge">
<title>Node0x556d05c3b2f0&#45;&gt;Node0x556d05c3ba40</title>
<path fill="none" stroke="black" d="M901.89,-168.49C878.75,-158.35 849.24,-145.42 824.9,-134.75"/>
<polygon fill="black" stroke="black" points="826.07,-131.44 815.51,-130.64 823.26,-137.86 826.07,-131.44"/>
</g>
<!-- Node0x556d05c3ad50 -->
<g id="node6" class="node">
<title>Node0x556d05c3ad50</title>
<ellipse fill="none" stroke="black" cx="1026.69" cy="-113.5" rx="115.08" ry="18"/>
<text text-anchor="middle" x="1026.69" y="-109.8" font-family="Times,serif" font-size="14.00">Node0x556d05c3ad50</text>
</g>
<!-- Node0x556d05c3b2f0&#45;&gt;Node0x556d05c3ad50 -->
<g id="edge4" class="edge">
<title>Node0x556d05c3b2f0&#45;&gt;Node0x556d05c3ad50</title>
<path fill="none" stroke="black" d="M961.51,-168.31C972.57,-159.18 986.34,-147.81 998.37,-137.88"/>
<polygon fill="black" stroke="black" points="1000.88,-140.35 1006.36,-131.28 996.42,-134.95 1000.88,-140.35"/>
</g>
</g>
</svg>
