<?xml version="1.0" encoding="UTF-8" standalone="no"?>
<!DOCTYPE svg PUBLIC "-//W3C//DTD SVG 1.1//EN"
 "http://www.w3.org/Graphics/SVG/1.1/DTD/svg11.dtd">
<!-- Generated by graphviz version 2.43.0 (0)
 -->
<!-- Title: bin/llc_lib/libLLVMVectorize.a Pages: 1 -->
<svg width="1593pt" height="337pt"
 viewBox="0.00 0.00 1593.00 337.00" xmlns="http://www.w3.org/2000/svg" xmlns:xlink="http://www.w3.org/1999/xlink">
<g id="graph0" class="graph" transform="scale(1 1) rotate(0) translate(4 333)">
<title>bin/llc_lib/libLLVMVectorize.a</title>
<polygon fill="white" stroke="transparent" points="-4,4 -4,-333 1589,-333 1589,4 -4,4"/>
<text text-anchor="middle" x="792.5" y="-7.8" font-family="Times,serif" font-size="14.00">bin/llc_lib/libLLVMVectorize.a</text>
<!-- Node0x56316db6f2e8 -->
<g id="node1" class="node">
<title>Node0x56316db6f2e8</title>
<polygon fill="none" stroke="black" points="314,-275 0,-275 0,-239 314,-239 314,-275"/>
<text text-anchor="middle" x="157" y="-253.3" font-family="Times,serif" font-size="14.00">{lib/libLLVMVectorize.a(Vectorize.cpp.o)}</text>
</g>
<!-- Node0x56316db6f8d8 -->
<g id="node2" class="node">
<title>Node0x56316db6f8d8</title>
<polygon fill="#7fb2ff" stroke="black" points="720,-167 372,-167 372,-131 720,-131 720,-167"/>
<text text-anchor="middle" x="546" y="-145.3" font-family="Times,serif" font-size="14.00">{lib/libLLVMVectorize.a(LoopVectorize.cpp.o)}</text>
</g>
<!-- Node0x56316db6f2e8&#45;&gt;Node0x56316db6f8d8 -->
<g id="edge1" class="edge">
<title>Node0x56316db6f2e8&#45;&gt;Node0x56316db6f8d8</title>
<path fill="none" stroke="black" d="M193.09,-238.89C230.85,-220.2 293.14,-191.64 350,-176 359.17,-173.48 368.65,-171.18 378.27,-169.1"/>
<polygon fill="black" stroke="black" points="379.26,-172.47 388.33,-167 377.83,-165.62 379.26,-172.47"/>
</g>
<!-- Node0x56316db6de98 -->
<g id="node3" class="node">
<title>Node0x56316db6de98</title>
<polygon fill="none" stroke="black" points="719.5,-221 372.5,-221 372.5,-185 719.5,-185 719.5,-221"/>
<text text-anchor="middle" x="546" y="-199.3" font-family="Times,serif" font-size="14.00">{lib/libLLVMVectorize.a(SLPVectorizer.cpp.o)}</text>
</g>
<!-- Node0x56316db6f2e8&#45;&gt;Node0x56316db6de98 -->
<g id="edge2" class="edge">
<title>Node0x56316db6f2e8&#45;&gt;Node0x56316db6de98</title>
<path fill="none" stroke="black" d="M285.8,-238.99C307.23,-235.98 329.25,-232.9 350,-230 367.64,-227.54 386.17,-224.96 404.51,-222.42"/>
<polygon fill="black" stroke="black" points="405.24,-225.85 414.67,-221.01 404.28,-218.91 405.24,-225.85"/>
</g>
<!-- Node0x56316db6e0c8 -->
<g id="node4" class="node">
<title>Node0x56316db6e0c8</title>
<polygon fill="none" stroke="black" points="742,-329 350,-329 350,-293 742,-293 742,-329"/>
<text text-anchor="middle" x="546" y="-307.3" font-family="Times,serif" font-size="14.00">{lib/libLLVMVectorize.a(LoadStoreVectorizer.cpp.o)}</text>
</g>
<!-- Node0x56316db6f2e8&#45;&gt;Node0x56316db6e0c8 -->
<g id="edge3" class="edge">
<title>Node0x56316db6f2e8&#45;&gt;Node0x56316db6e0c8</title>
<path fill="none" stroke="black" d="M285.8,-275.01C307.23,-278.02 329.25,-281.1 350,-284 367.64,-286.46 386.17,-289.04 404.51,-291.58"/>
<polygon fill="black" stroke="black" points="404.28,-295.09 414.67,-292.99 405.24,-288.15 404.28,-295.09"/>
</g>
<!-- Node0x56316db5f2f8 -->
<g id="node5" class="node">
<title>Node0x56316db5f2f8</title>
<polygon fill="none" stroke="black" points="724,-275 368,-275 368,-239 724,-239 724,-275"/>
<text text-anchor="middle" x="546" y="-253.3" font-family="Times,serif" font-size="14.00">{lib/libLLVMVectorize.a(VectorCombine.cpp.o)}</text>
</g>
<!-- Node0x56316db6f2e8&#45;&gt;Node0x56316db5f2f8 -->
<g id="edge4" class="edge">
<title>Node0x56316db6f2e8&#45;&gt;Node0x56316db5f2f8</title>
<path fill="none" stroke="black" d="M314.01,-257C328.42,-257 343.12,-257 357.78,-257"/>
<polygon fill="black" stroke="black" points="357.91,-260.5 367.91,-257 357.91,-253.5 357.91,-260.5"/>
</g>
<!-- Node0x56316db6e848 -->
<g id="node6" class="node">
<title>Node0x56316db6e848</title>
<polygon fill="#7fb2ff" stroke="black" points="1209,-275 778,-275 778,-239 1209,-239 1209,-275"/>
<text text-anchor="middle" x="993.5" y="-253.3" font-family="Times,serif" font-size="14.00">{lib/libLLVMVectorize.a(LoopVectorizationLegality.cpp.o)}</text>
</g>
<!-- Node0x56316db6f8d8&#45;&gt;Node0x56316db6e848 -->
<g id="edge5" class="edge">
<title>Node0x56316db6f8d8&#45;&gt;Node0x56316db6e848</title>
<path fill="none" stroke="#7fb2ff" d="M720.06,-155.6C727.69,-158.86 735.05,-162.64 742,-167 766.44,-182.33 753.47,-205.83 778,-221 787.29,-226.74 797.23,-231.53 807.57,-235.52"/>
<polygon fill="#7fb2ff" stroke="#7fb2ff" points="806.57,-238.88 817.16,-238.96 808.93,-232.29 806.57,-238.88"/>
</g>
<!-- Node0x56316db5d778 -->
<g id="node7" class="node">
<title>Node0x56316db5d778</title>
<polygon fill="#7fb2ff" stroke="black" points="1138,-59 849,-59 849,-23 1138,-23 1138,-59"/>
<text text-anchor="middle" x="993.5" y="-37.3" font-family="Times,serif" font-size="14.00">{lib/libLLVMVectorize.a(VPlan.cpp.o)}</text>
</g>
<!-- Node0x56316db6f8d8&#45;&gt;Node0x56316db5d778 -->
<g id="edge6" class="edge">
<title>Node0x56316db6f8d8&#45;&gt;Node0x56316db5d778</title>
<path fill="none" stroke="#7fb2ff" d="M575.58,-130.94C618.65,-109.82 703.13,-76.63 778,-59 797.54,-54.4 818.29,-50.54 838.87,-47.4"/>
<polygon fill="#7fb2ff" stroke="#7fb2ff" points="839.58,-50.83 848.96,-45.91 838.56,-43.91 839.58,-50.83"/>
</g>
<!-- Node0x56316db5cfa8 -->
<g id="node8" class="node">
<title>Node0x56316db5cfa8</title>
<polygon fill="#7fb2ff" stroke="black" points="1185,-221 802,-221 802,-185 1185,-185 1185,-221"/>
<text text-anchor="middle" x="993.5" y="-199.3" font-family="Times,serif" font-size="14.00">{lib/libLLVMVectorize.a(VPlanHCFGBuilder.cpp.o)}</text>
</g>
<!-- Node0x56316db6f8d8&#45;&gt;Node0x56316db5cfa8 -->
<g id="edge7" class="edge">
<title>Node0x56316db6f8d8&#45;&gt;Node0x56316db5cfa8</title>
<path fill="none" stroke="#7fb2ff" d="M720.2,-163.39C774.4,-169.63 832.72,-176.92 881.43,-183.61"/>
<polygon fill="#7fb2ff" stroke="#7fb2ff" points="880.97,-187.08 891.36,-184.98 881.93,-180.14 880.97,-187.08"/>
</g>
<!-- Node0x56316db5da48 -->
<g id="node9" class="node">
<title>Node0x56316db5da48</title>
<polygon fill="#7fb2ff" stroke="black" points="1174.5,-167 812.5,-167 812.5,-131 1174.5,-131 1174.5,-167"/>
<text text-anchor="middle" x="993.5" y="-145.3" font-family="Times,serif" font-size="14.00">{lib/libLLVMVectorize.a(VPlanPredicator.cpp.o)}</text>
</g>
<!-- Node0x56316db6f8d8&#45;&gt;Node0x56316db5da48 -->
<g id="edge8" class="edge">
<title>Node0x56316db6f8d8&#45;&gt;Node0x56316db5da48</title>
<path fill="none" stroke="#7fb2ff" d="M720.2,-142.4C747.09,-142.23 774.99,-142.21 802.23,-142.31"/>
<polygon fill="#7fb2ff" stroke="#7fb2ff" points="802.21,-145.81 812.23,-142.36 802.25,-138.81 802.21,-145.81"/>
</g>
<!-- Node0x56316db610a8 -->
<g id="node10" class="node">
<title>Node0x56316db610a8</title>
<polygon fill="#7fb2ff" stroke="black" points="1179,-113 808,-113 808,-77 1179,-77 1179,-113"/>
<text text-anchor="middle" x="993.5" y="-91.3" font-family="Times,serif" font-size="14.00">{lib/libLLVMVectorize.a(VPlanTransforms.cpp.o)}</text>
</g>
<!-- Node0x56316db6f8d8&#45;&gt;Node0x56316db610a8 -->
<g id="edge9" class="edge">
<title>Node0x56316db6f8d8&#45;&gt;Node0x56316db610a8</title>
<path fill="none" stroke="#7fb2ff" d="M648.09,-130.99C692.47,-124.8 746.14,-117.98 797.77,-111.9"/>
<polygon fill="#7fb2ff" stroke="#7fb2ff" points="798.2,-115.38 807.72,-110.74 797.38,-108.42 798.2,-115.38"/>
</g>
<!-- Node0x56316db6de98&#45;&gt;Node0x56316db6f8d8 -->
<g id="edge10" class="edge">
<title>Node0x56316db6de98&#45;&gt;Node0x56316db6f8d8</title>
<path fill="none" stroke="black" d="M546,-184.79C546,-182.31 546,-179.83 546,-177.34"/>
<polygon fill="black" stroke="black" points="549.5,-177.14 546,-167.14 542.5,-177.14 549.5,-177.14"/>
</g>
<!-- Node0x56316db6e0c8&#45;&gt;Node0x56316db6f8d8 -->
<g id="edge11" class="edge">
<title>Node0x56316db6e0c8&#45;&gt;Node0x56316db6f8d8</title>
<path fill="none" stroke="black" d="M349.82,-295.53C342.98,-289.8 336.95,-283.01 332,-275 310.97,-240.97 310.97,-219.03 332,-185 339.81,-172.36 350.29,-162.77 362.43,-155.57"/>
<polygon fill="black" stroke="black" points="364.35,-158.52 371.56,-150.75 361.08,-152.33 364.35,-158.52"/>
</g>
<!-- Node0x56316db5f2f8&#45;&gt;Node0x56316db6de98 -->
<g id="edge12" class="edge">
<title>Node0x56316db5f2f8&#45;&gt;Node0x56316db6de98</title>
<path fill="none" stroke="black" d="M546,-238.79C546,-236.31 546,-233.83 546,-231.34"/>
<polygon fill="black" stroke="black" points="549.5,-231.14 546,-221.14 542.5,-231.14 549.5,-231.14"/>
</g>
<!-- Node0x56316db6e848&#45;&gt;Node0x56316db6f8d8 -->
<g id="edge13" class="edge">
<title>Node0x56316db6e848&#45;&gt;Node0x56316db6f8d8</title>
<path fill="none" stroke="#7fb2ff" d="M777.71,-238.82C753.57,-223.64 766.34,-200.27 742,-185 732.69,-179.16 722.64,-174.36 712.19,-170.42"/>
<polygon fill="#7fb2ff" stroke="#7fb2ff" points="713.08,-167.02 702.48,-167.03 710.77,-173.63 713.08,-167.02"/>
</g>
<!-- Node0x56316db5d778&#45;&gt;Node0x56316db6f8d8 -->
<g id="edge14" class="edge">
<title>Node0x56316db5d778&#45;&gt;Node0x56316db6f8d8</title>
<path fill="none" stroke="#7fb2ff" d="M881.48,-59.03C847.96,-63.5 811.25,-69.17 778,-77 723.08,-89.93 663,-111.23 617.88,-127.49"/>
<polygon fill="#7fb2ff" stroke="#7fb2ff" points="616.42,-124.3 608.2,-130.98 618.79,-130.88 616.42,-124.3"/>
</g>
<!-- Node0x56316db5cfa8&#45;&gt;Node0x56316db6f8d8 -->
<g id="edge15" class="edge">
<title>Node0x56316db5cfa8&#45;&gt;Node0x56316db6f8d8</title>
<path fill="none" stroke="#7fb2ff" d="M801.92,-186.59C752.85,-180.83 701.65,-174.37 658.12,-168.4"/>
<polygon fill="#7fb2ff" stroke="#7fb2ff" points="658.48,-164.92 648.09,-167.01 657.52,-171.85 658.48,-164.92"/>
</g>
<!-- Node0x56316db5cfa8&#45;&gt;Node0x56316db5d778 -->
<g id="edge16" class="edge">
<title>Node0x56316db5cfa8&#45;&gt;Node0x56316db5d778</title>
<path fill="none" stroke="#7fb2ff" d="M801.78,-203.37C784.88,-195.36 770.3,-183.66 760,-167 738.97,-132.97 738.97,-111.03 760,-77 777.3,-49.02 806.67,-35.03 838.86,-29.02"/>
<polygon fill="#7fb2ff" stroke="#7fb2ff" points="839.61,-32.45 848.93,-27.41 838.5,-25.54 839.61,-32.45"/>
</g>
<!-- Node0x56316db61c88 -->
<g id="node11" class="node">
<title>Node0x56316db61c88</title>
<polygon fill="none" stroke="black" points="1585,-221 1245,-221 1245,-185 1585,-185 1585,-221"/>
<text text-anchor="middle" x="1415" y="-199.3" font-family="Times,serif" font-size="14.00">{lib/libLLVMVectorize.a(VPlanVerifier.cpp.o)}</text>
</g>
<!-- Node0x56316db5cfa8&#45;&gt;Node0x56316db61c88 -->
<g id="edge17" class="edge">
<title>Node0x56316db5cfa8&#45;&gt;Node0x56316db61c88</title>
<path fill="none" stroke="black" d="M1185.22,-203C1201.71,-203 1218.36,-203 1234.76,-203"/>
<polygon fill="black" stroke="black" points="1234.93,-206.5 1244.93,-203 1234.93,-199.5 1234.93,-206.5"/>
</g>
<!-- Node0x56316db5da48&#45;&gt;Node0x56316db6f8d8 -->
<g id="edge18" class="edge">
<title>Node0x56316db5da48&#45;&gt;Node0x56316db6f8d8</title>
<path fill="none" stroke="#7fb2ff" d="M812.23,-155.64C785.3,-155.78 757.5,-155.79 730.5,-155.66"/>
<polygon fill="#7fb2ff" stroke="#7fb2ff" points="730.22,-152.15 720.2,-155.6 730.18,-159.15 730.22,-152.15"/>
</g>
<!-- Node0x56316db5da48&#45;&gt;Node0x56316db5d778 -->
<g id="edge19" class="edge">
<title>Node0x56316db5da48&#45;&gt;Node0x56316db5d778</title>
<path fill="none" stroke="#7fb2ff" d="M812.5,-141.21C767.69,-131.49 737.98,-112.63 760,-77 777.3,-49.02 806.67,-35.03 838.86,-29.02"/>
<polygon fill="#7fb2ff" stroke="#7fb2ff" points="839.61,-32.45 848.93,-27.41 838.5,-25.54 839.61,-32.45"/>
</g>
<!-- Node0x56316db610a8&#45;&gt;Node0x56316db6f8d8 -->
<g id="edge20" class="edge">
<title>Node0x56316db610a8&#45;&gt;Node0x56316db6f8d8</title>
<path fill="none" stroke="#7fb2ff" d="M891.36,-113.02C843.74,-119.66 785.43,-127.02 730.43,-133.42"/>
<polygon fill="#7fb2ff" stroke="#7fb2ff" points="729.73,-129.98 720.2,-134.61 730.53,-136.93 729.73,-129.98"/>
</g>
<!-- Node0x56316db610a8&#45;&gt;Node0x56316db5d778 -->
<g id="edge21" class="edge">
<title>Node0x56316db610a8&#45;&gt;Node0x56316db5d778</title>
<path fill="none" stroke="#7fb2ff" d="M993.5,-76.79C993.5,-74.31 993.5,-71.83 993.5,-69.34"/>
<polygon fill="#7fb2ff" stroke="#7fb2ff" points="997,-69.14 993.5,-59.14 990,-69.14 997,-69.14"/>
</g>
</g>
</svg>
