<?xml version="1.0" encoding="UTF-8" standalone="no"?>
<!DOCTYPE svg PUBLIC "-//W3C//DTD SVG 1.1//EN"
 "http://www.w3.org/Graphics/SVG/1.1/DTD/svg11.dtd">
<!-- Generated by graphviz version 2.43.0 (0)
 -->
<!-- Title: bin/lld_lib/libLLVMScalarOpts.a Pages: 1 -->
<svg width="914pt" height="3847pt"
 viewBox="0.00 0.00 914.00 3847.00" xmlns="http://www.w3.org/2000/svg" xmlns:xlink="http://www.w3.org/1999/xlink">
<g id="graph0" class="graph" transform="scale(1 1) rotate(0) translate(4 3843)">
<title>bin/lld_lib/libLLVMScalarOpts.a</title>
<polygon fill="white" stroke="transparent" points="-4,4 -4,-3843 910,-3843 910,4 -4,4"/>
<text text-anchor="middle" x="453" y="-7.8" font-family="Times,serif" font-size="14.00">bin/lld_lib/libLLVMScalarOpts.a</text>
<!-- Node0x5587d9d701a8 -->
<g id="node1" class="node">
<title>Node0x5587d9d701a8</title>
<polygon fill="none" stroke="black" points="442,-59 56,-59 56,-23 442,-23 442,-59"/>
<text text-anchor="middle" x="249" y="-37.3" font-family="Times,serif" font-size="14.00">{lib/libLLVMScalarOpts.a(ConstantHoisting.cpp.o)}</text>
</g>
<!-- Node0x5587d9d74578 -->
<g id="node2" class="node">
<title>Node0x5587d9d74578</title>
<polygon fill="none" stroke="black" points="454.5,-113 43.5,-113 43.5,-77 454.5,-77 454.5,-113"/>
<text text-anchor="middle" x="249" y="-91.3" font-family="Times,serif" font-size="14.00">{lib/libLLVMScalarOpts.a(LoopStrengthReduce.cpp.o)}</text>
</g>
<!-- Node0x5587d9d70b08 -->
<g id="node3" class="node">
<title>Node0x5587d9d70b08</title>
<polygon fill="none" stroke="black" points="467.5,-167 30.5,-167 30.5,-131 467.5,-131 467.5,-167"/>
<text text-anchor="middle" x="249" y="-145.3" font-family="Times,serif" font-size="14.00">{lib/libLLVMScalarOpts.a(LowerConstantIntrinsics.cpp.o)}</text>
</g>
<!-- Node0x5587d9d634a8 -->
<g id="node4" class="node">
<title>Node0x5587d9d634a8</title>
<polygon fill="none" stroke="black" points="425.5,-221 72.5,-221 72.5,-185 425.5,-185 425.5,-221"/>
<text text-anchor="middle" x="249" y="-199.3" font-family="Times,serif" font-size="14.00">{lib/libLLVMScalarOpts.a(MergeICmps.cpp.o)}</text>
</g>
<!-- Node0x5587d9d77548 -->
<g id="node5" class="node">
<title>Node0x5587d9d77548</title>
<polygon fill="none" stroke="black" points="458.5,-275 39.5,-275 39.5,-239 458.5,-239 458.5,-275"/>
<text text-anchor="middle" x="249" y="-253.3" font-family="Times,serif" font-size="14.00">{lib/libLLVMScalarOpts.a(PartiallyInlineLibCalls.cpp.o)}</text>
</g>
<!-- Node0x5587d9d78c68 -->
<g id="node6" class="node">
<title>Node0x5587d9d78c68</title>
<polygon fill="none" stroke="black" points="478,-329 20,-329 20,-293 478,-293 478,-329"/>
<text text-anchor="middle" x="249" y="-307.3" font-family="Times,serif" font-size="14.00">{lib/libLLVMScalarOpts.a(ScalarizeMaskedMemIntrin.cpp.o)}</text>
</g>
<!-- Node0x5587d9d81318 -->
<g id="node7" class="node">
<title>Node0x5587d9d81318</title>
<polygon fill="none" stroke="black" points="400,-383 98,-383 98,-347 400,-347 400,-383"/>
<text text-anchor="middle" x="249" y="-361.3" font-family="Times,serif" font-size="14.00">{lib/libLLVMScalarOpts.a(ADCE.cpp.o)}</text>
</g>
<!-- Node0x5587d9d71d28 -->
<g id="node8" class="node">
<title>Node0x5587d9d71d28</title>
<polygon fill="none" stroke="black" points="481,-437 17,-437 17,-401 481,-401 481,-437"/>
<text text-anchor="middle" x="249" y="-415.3" font-family="Times,serif" font-size="14.00">{lib/libLLVMScalarOpts.a(AlignmentFromAssumptions.cpp.o)}</text>
</g>
<!-- Node0x5587d9d715a8 -->
<g id="node9" class="node">
<title>Node0x5587d9d715a8</title>
<polygon fill="none" stroke="black" points="449.5,-491 48.5,-491 48.5,-455 449.5,-455 449.5,-491"/>
<text text-anchor="middle" x="249" y="-469.3" font-family="Times,serif" font-size="14.00">{lib/libLLVMScalarOpts.a(AnnotationRemarks.cpp.o)}</text>
</g>
<!-- Node0x5587d9d70e78 -->
<g id="node10" class="node">
<title>Node0x5587d9d70e78</title>
<polygon fill="none" stroke="black" points="400.5,-545 97.5,-545 97.5,-509 400.5,-509 400.5,-545"/>
<text text-anchor="middle" x="249" y="-523.3" font-family="Times,serif" font-size="14.00">{lib/libLLVMScalarOpts.a(BDCE.cpp.o)}</text>
</g>
<!-- Node0x5587d9d70978 -->
<g id="node11" class="node">
<title>Node0x5587d9d70978</title>
<polygon fill="none" stroke="black" points="438.5,-599 59.5,-599 59.5,-563 438.5,-563 438.5,-599"/>
<text text-anchor="middle" x="249" y="-577.3" font-family="Times,serif" font-size="14.00">{lib/libLLVMScalarOpts.a(CallSiteSplitting.cpp.o)}</text>
</g>
<!-- Node0x5587d9d6fb18 -->
<g id="node12" class="node">
<title>Node0x5587d9d6fb18</title>
<polygon fill="none" stroke="black" points="458.5,-653 39.5,-653 39.5,-617 458.5,-617 458.5,-653"/>
<text text-anchor="middle" x="249" y="-631.3" font-family="Times,serif" font-size="14.00">{lib/libLLVMScalarOpts.a(ConstraintElimination.cpp.o)}</text>
</g>
<!-- Node0x5587d9d6f2a8 -->
<g id="node13" class="node">
<title>Node0x5587d9d6f2a8</title>
<polygon fill="none" stroke="black" points="480.5,-707 17.5,-707 17.5,-671 480.5,-671 480.5,-707"/>
<text text-anchor="middle" x="249" y="-685.3" font-family="Times,serif" font-size="14.00">{lib/libLLVMScalarOpts.a(CorrelatedValuePropagation.cpp.o)}</text>
</g>
<!-- Node0x5587d9d6eb78 -->
<g id="node14" class="node">
<title>Node0x5587d9d6eb78</title>
<polygon fill="none" stroke="black" points="395.5,-761 102.5,-761 102.5,-725 395.5,-725 395.5,-761"/>
<text text-anchor="middle" x="249" y="-739.3" font-family="Times,serif" font-size="14.00">{lib/libLLVMScalarOpts.a(DCE.cpp.o)}</text>
</g>
<!-- Node0x5587d9d785d8 -->
<g id="node15" class="node">
<title>Node0x5587d9d785d8</title>
<polygon fill="none" stroke="black" points="458.5,-815 39.5,-815 39.5,-779 458.5,-779 458.5,-815"/>
<text text-anchor="middle" x="249" y="-793.3" font-family="Times,serif" font-size="14.00">{lib/libLLVMScalarOpts.a(DeadStoreElimination.cpp.o)}</text>
</g>
<!-- Node0x5587d9d78d08 -->
<g id="node16" class="node">
<title>Node0x5587d9d78d08</title>
<polygon fill="none" stroke="black" points="425.5,-869 72.5,-869 72.5,-833 425.5,-833 425.5,-869"/>
<text text-anchor="middle" x="249" y="-847.3" font-family="Times,serif" font-size="14.00">{lib/libLLVMScalarOpts.a(DivRemPairs.cpp.o)}</text>
</g>
<!-- Node0x5587d9d79668 -->
<g id="node17" class="node">
<title>Node0x5587d9d79668</title>
<polygon fill="none" stroke="black" points="413.5,-923 84.5,-923 84.5,-887 413.5,-887 413.5,-923"/>
<text text-anchor="middle" x="249" y="-901.3" font-family="Times,serif" font-size="14.00">{lib/libLLVMScalarOpts.a(EarlyCSE.cpp.o)}</text>
</g>
<!-- Node0x5587d9d67238 -->
<g id="node18" class="node">
<title>Node0x5587d9d67238</title>
<polygon fill="none" stroke="black" points="412,-977 86,-977 86,-941 412,-941 412,-977"/>
<text text-anchor="middle" x="249" y="-955.3" font-family="Times,serif" font-size="14.00">{lib/libLLVMScalarOpts.a(Float2Int.cpp.o)}</text>
</g>
<!-- Node0x5587d9d69588 -->
<g id="node19" class="node">
<title>Node0x5587d9d69588</title>
<polygon fill="none" stroke="black" points="435,-1031 63,-1031 63,-995 435,-995 435,-1031"/>
<text text-anchor="middle" x="249" y="-1009.3" font-family="Times,serif" font-size="14.00">{lib/libLLVMScalarOpts.a(GuardWidening.cpp.o)}</text>
</g>
<!-- Node0x5587d9d68e08 -->
<g id="node20" class="node">
<title>Node0x5587d9d68e08</title>
<polygon fill="none" stroke="black" points="866.5,-1085 573.5,-1085 573.5,-1049 866.5,-1049 866.5,-1085"/>
<text text-anchor="middle" x="720" y="-1063.3" font-family="Times,serif" font-size="14.00">{lib/libLLVMScalarOpts.a(GVN.cpp.o)}</text>
</g>
<!-- Node0x5587d9d68188 -->
<g id="node21" class="node">
<title>Node0x5587d9d68188</title>
<polygon fill="none" stroke="black" points="415,-1085 83,-1085 83,-1049 415,-1049 415,-1085"/>
<text text-anchor="middle" x="249" y="-1063.3" font-family="Times,serif" font-size="14.00">{lib/libLLVMScalarOpts.a(GVNHoist.cpp.o)}</text>
</g>
<!-- Node0x5587d9d68188&#45;&gt;Node0x5587d9d68e08 -->
<g id="edge1" class="edge">
<title>Node0x5587d9d68188&#45;&gt;Node0x5587d9d68e08</title>
<path fill="none" stroke="black" d="M415.02,-1067C463.18,-1067 515.63,-1067 563.19,-1067"/>
<polygon fill="black" stroke="black" points="563.26,-1070.5 573.26,-1067 563.26,-1063.5 563.26,-1070.5"/>
</g>
<!-- Node0x5587d9d65398 -->
<g id="node22" class="node">
<title>Node0x5587d9d65398</title>
<polygon fill="none" stroke="black" points="411.5,-1139 86.5,-1139 86.5,-1103 411.5,-1103 411.5,-1139"/>
<text text-anchor="middle" x="249" y="-1117.3" font-family="Times,serif" font-size="14.00">{lib/libLLVMScalarOpts.a(GVNSink.cpp.o)}</text>
</g>
<!-- Node0x5587d9d76788 -->
<g id="node23" class="node">
<title>Node0x5587d9d76788</title>
<polygon fill="none" stroke="black" points="882.5,-1139 557.5,-1139 557.5,-1103 882.5,-1103 882.5,-1139"/>
<text text-anchor="middle" x="720" y="-1117.3" font-family="Times,serif" font-size="14.00">{lib/libLLVMScalarOpts.a(NewGVN.cpp.o)}</text>
</g>
<!-- Node0x5587d9d65398&#45;&gt;Node0x5587d9d76788 -->
<g id="edge2" class="edge">
<title>Node0x5587d9d65398&#45;&gt;Node0x5587d9d76788</title>
<path fill="none" stroke="black" d="M411.73,-1121C455.35,-1121 502.69,-1121 546.86,-1121"/>
<polygon fill="black" stroke="black" points="547.12,-1124.5 557.12,-1121 547.12,-1117.5 547.12,-1124.5"/>
</g>
<!-- Node0x5587d9d64bc8 -->
<g id="node24" class="node">
<title>Node0x5587d9d64bc8</title>
<polygon fill="none" stroke="black" points="432.5,-1193 65.5,-1193 65.5,-1157 432.5,-1157 432.5,-1193"/>
<text text-anchor="middle" x="249" y="-1171.3" font-family="Times,serif" font-size="14.00">{lib/libLLVMScalarOpts.a(IVUsersPrinter.cpp.o)}</text>
</g>
<!-- Node0x5587d9d67558 -->
<g id="node25" class="node">
<title>Node0x5587d9d67558</title>
<polygon fill="none" stroke="black" points="498,-1247 0,-1247 0,-1211 498,-1211 498,-1247"/>
<text text-anchor="middle" x="249" y="-1225.3" font-family="Times,serif" font-size="14.00">{lib/libLLVMScalarOpts.a(InductiveRangeCheckElimination.cpp.o)}</text>
</g>
<!-- Node0x5587d9d66ab8 -->
<g id="node26" class="node">
<title>Node0x5587d9d66ab8</title>
<polygon fill="none" stroke="black" points="431.5,-1301 66.5,-1301 66.5,-1265 431.5,-1265 431.5,-1301"/>
<text text-anchor="middle" x="249" y="-1279.3" font-family="Times,serif" font-size="14.00">{lib/libLLVMScalarOpts.a(IndVarSimplify.cpp.o)}</text>
</g>
<!-- Node0x5587d9d65e88 -->
<g id="node27" class="node">
<title>Node0x5587d9d65e88</title>
<polygon fill="none" stroke="black" points="450.5,-1355 47.5,-1355 47.5,-1319 450.5,-1319 450.5,-1355"/>
<text text-anchor="middle" x="249" y="-1333.3" font-family="Times,serif" font-size="14.00">{lib/libLLVMScalarOpts.a(InferAddressSpaces.cpp.o)}</text>
</g>
<!-- Node0x5587d9d813b8 -->
<g id="node28" class="node">
<title>Node0x5587d9d813b8</title>
<polygon fill="none" stroke="black" points="439,-1409 59,-1409 59,-1373 439,-1373 439,-1409"/>
<text text-anchor="middle" x="249" y="-1387.3" font-family="Times,serif" font-size="14.00">{lib/libLLVMScalarOpts.a(InstSimplifyPass.cpp.o)}</text>
</g>
<!-- Node0x5587d9d81a48 -->
<g id="node29" class="node">
<title>Node0x5587d9d81a48</title>
<polygon fill="none" stroke="black" points="434,-1463 64,-1463 64,-1427 434,-1427 434,-1463"/>
<text text-anchor="middle" x="249" y="-1441.3" font-family="Times,serif" font-size="14.00">{lib/libLLVMScalarOpts.a(JumpThreading.cpp.o)}</text>
</g>
<!-- Node0x5587d9d64178 -->
<g id="node30" class="node">
<title>Node0x5587d9d64178</title>
<polygon fill="none" stroke="black" points="869.5,-1517 570.5,-1517 570.5,-1481 869.5,-1481 869.5,-1517"/>
<text text-anchor="middle" x="720" y="-1495.3" font-family="Times,serif" font-size="14.00">{lib/libLLVMScalarOpts.a(LICM.cpp.o)}</text>
</g>
<!-- Node0x5587d9d642b8 -->
<g id="node31" class="node">
<title>Node0x5587d9d642b8</title>
<polygon fill="none" stroke="black" points="475,-1571 23,-1571 23,-1535 475,-1535 475,-1571"/>
<text text-anchor="middle" x="249" y="-1549.3" font-family="Times,serif" font-size="14.00">{lib/libLLVMScalarOpts.a(LoopAccessAnalysisPrinter.cpp.o)}</text>
</g>
<!-- Node0x5587d9d5fee8 -->
<g id="node32" class="node">
<title>Node0x5587d9d5fee8</title>
<polygon fill="none" stroke="black" points="412,-1517 86,-1517 86,-1481 412,-1481 412,-1517"/>
<text text-anchor="middle" x="249" y="-1495.3" font-family="Times,serif" font-size="14.00">{lib/libLLVMScalarOpts.a(LoopSink.cpp.o)}</text>
</g>
<!-- Node0x5587d9d5fee8&#45;&gt;Node0x5587d9d64178 -->
<g id="edge3" class="edge">
<title>Node0x5587d9d5fee8&#45;&gt;Node0x5587d9d64178</title>
<path fill="none" stroke="black" d="M412.06,-1499C460.01,-1499 512.45,-1499 560.2,-1499"/>
<polygon fill="black" stroke="black" points="560.31,-1502.5 570.31,-1499 560.31,-1495.5 560.31,-1502.5"/>
</g>
<!-- Node0x5587d9d60258 -->
<g id="node33" class="node">
<title>Node0x5587d9d60258</title>
<polygon fill="none" stroke="black" points="426.5,-1625 71.5,-1625 71.5,-1589 426.5,-1589 426.5,-1625"/>
<text text-anchor="middle" x="249" y="-1603.3" font-family="Times,serif" font-size="14.00">{lib/libLLVMScalarOpts.a(LoopDeletion.cpp.o)}</text>
</g>
<!-- Node0x5587d9d60de8 -->
<g id="node34" class="node">
<title>Node0x5587d9d60de8</title>
<polygon fill="none" stroke="black" points="443.5,-1679 54.5,-1679 54.5,-1643 443.5,-1643 443.5,-1679"/>
<text text-anchor="middle" x="249" y="-1657.3" font-family="Times,serif" font-size="14.00">{lib/libLLVMScalarOpts.a(LoopDataPrefetch.cpp.o)}</text>
</g>
<!-- Node0x5587d9d61108 -->
<g id="node35" class="node">
<title>Node0x5587d9d61108</title>
<polygon fill="none" stroke="black" points="433,-1733 65,-1733 65,-1697 433,-1697 433,-1733"/>
<text text-anchor="middle" x="249" y="-1711.3" font-family="Times,serif" font-size="14.00">{lib/libLLVMScalarOpts.a(LoopDistribute.cpp.o)}</text>
</g>
<!-- Node0x5587d9d61388 -->
<g id="node36" class="node">
<title>Node0x5587d9d61388</title>
<polygon fill="none" stroke="black" points="413.5,-1787 84.5,-1787 84.5,-1751 413.5,-1751 413.5,-1787"/>
<text text-anchor="middle" x="249" y="-1765.3" font-family="Times,serif" font-size="14.00">{lib/libLLVMScalarOpts.a(LoopFuse.cpp.o)}</text>
</g>
<!-- Node0x5587d9d71418 -->
<g id="node37" class="node">
<title>Node0x5587d9d71418</title>
<polygon fill="none" stroke="black" points="453,-1841 45,-1841 45,-1805 453,-1805 453,-1841"/>
<text text-anchor="middle" x="249" y="-1819.3" font-family="Times,serif" font-size="14.00">{lib/libLLVMScalarOpts.a(LoopIdiomRecognize.cpp.o)}</text>
</g>
<!-- Node0x5587d9d71328 -->
<g id="node38" class="node">
<title>Node0x5587d9d71328</title>
<polygon fill="none" stroke="black" points="439,-1895 59,-1895 59,-1859 439,-1859 439,-1895"/>
<text text-anchor="middle" x="249" y="-1873.3" font-family="Times,serif" font-size="14.00">{lib/libLLVMScalarOpts.a(LoopInstSimplify.cpp.o)}</text>
</g>
<!-- Node0x5587d9d718c8 -->
<g id="node39" class="node">
<title>Node0x5587d9d718c8</title>
<polygon fill="none" stroke="black" points="439.5,-1949 58.5,-1949 58.5,-1913 439.5,-1913 439.5,-1949"/>
<text text-anchor="middle" x="249" y="-1927.3" font-family="Times,serif" font-size="14.00">{lib/libLLVMScalarOpts.a(LoopInterchange.cpp.o)}</text>
</g>
<!-- Node0x5587d9d72908 -->
<g id="node40" class="node">
<title>Node0x5587d9d72908</title>
<polygon fill="none" stroke="black" points="422.5,-2003 75.5,-2003 75.5,-1967 422.5,-1967 422.5,-2003"/>
<text text-anchor="middle" x="249" y="-1981.3" font-family="Times,serif" font-size="14.00">{lib/libLLVMScalarOpts.a(LoopFlatten.cpp.o)}</text>
</g>
<!-- Node0x5587d9d77138 -->
<g id="node41" class="node">
<title>Node0x5587d9d77138</title>
<polygon fill="none" stroke="black" points="455,-2057 43,-2057 43,-2021 455,-2021 455,-2057"/>
<text text-anchor="middle" x="249" y="-2035.3" font-family="Times,serif" font-size="14.00">{lib/libLLVMScalarOpts.a(LoopLoadElimination.cpp.o)}</text>
</g>
<!-- Node0x5587d9d76918 -->
<g id="node42" class="node">
<title>Node0x5587d9d76918</title>
<polygon fill="none" stroke="black" points="443.5,-2111 54.5,-2111 54.5,-2075 443.5,-2075 443.5,-2111"/>
<text text-anchor="middle" x="249" y="-2089.3" font-family="Times,serif" font-size="14.00">{lib/libLLVMScalarOpts.a(LoopPassManager.cpp.o)}</text>
</g>
<!-- Node0x5587d9d76008 -->
<g id="node43" class="node">
<title>Node0x5587d9d76008</title>
<polygon fill="none" stroke="black" points="437.5,-2165 60.5,-2165 60.5,-2129 437.5,-2129 437.5,-2165"/>
<text text-anchor="middle" x="249" y="-2143.3" font-family="Times,serif" font-size="14.00">{lib/libLLVMScalarOpts.a(LoopPredication.cpp.o)}</text>
</g>
<!-- Node0x5587d9d75a68 -->
<g id="node44" class="node">
<title>Node0x5587d9d75a68</title>
<polygon fill="none" stroke="black" points="434,-2219 64,-2219 64,-2183 434,-2183 434,-2219"/>
<text text-anchor="middle" x="249" y="-2197.3" font-family="Times,serif" font-size="14.00">{lib/libLLVMScalarOpts.a(LoopRerollPass.cpp.o)}</text>
</g>
<!-- Node0x5587d9d751f8 -->
<g id="node45" class="node">
<title>Node0x5587d9d751f8</title>
<polygon fill="none" stroke="black" points="427,-2273 71,-2273 71,-2237 427,-2237 427,-2273"/>
<text text-anchor="middle" x="249" y="-2251.3" font-family="Times,serif" font-size="14.00">{lib/libLLVMScalarOpts.a(LoopRotation.cpp.o)}</text>
</g>
<!-- Node0x5587d9d74ac8 -->
<g id="node46" class="node">
<title>Node0x5587d9d74ac8</title>
<polygon fill="none" stroke="black" points="441.5,-2327 56.5,-2327 56.5,-2291 441.5,-2291 441.5,-2327"/>
<text text-anchor="middle" x="249" y="-2305.3" font-family="Times,serif" font-size="14.00">{lib/libLLVMScalarOpts.a(LoopSimplifyCFG.cpp.o)}</text>
</g>
<!-- Node0x5587d9d73d08 -->
<g id="node47" class="node">
<title>Node0x5587d9d73d08</title>
<polygon fill="none" stroke="black" points="906,-2381 534,-2381 534,-2345 906,-2345 906,-2381"/>
<text text-anchor="middle" x="720" y="-2359.3" font-family="Times,serif" font-size="14.00">{lib/libLLVMScalarOpts.a(LoopUnrollPass.cpp.o)}</text>
</g>
<!-- Node0x5587d9d735d8 -->
<g id="node48" class="node">
<title>Node0x5587d9d735d8</title>
<polygon fill="none" stroke="black" points="462.5,-2381 35.5,-2381 35.5,-2345 462.5,-2345 462.5,-2381"/>
<text text-anchor="middle" x="249" y="-2359.3" font-family="Times,serif" font-size="14.00">{lib/libLLVMScalarOpts.a(LoopUnrollAndJamPass.cpp.o)}</text>
</g>
<!-- Node0x5587d9d735d8&#45;&gt;Node0x5587d9d73d08 -->
<g id="edge4" class="edge">
<title>Node0x5587d9d735d8&#45;&gt;Node0x5587d9d73d08</title>
<path fill="none" stroke="black" d="M462.54,-2363C482.86,-2363 503.4,-2363 523.55,-2363"/>
<polygon fill="black" stroke="black" points="523.72,-2366.5 533.72,-2363 523.72,-2359.5 523.72,-2366.5"/>
</g>
<!-- Node0x5587d9d742a8 -->
<g id="node49" class="node">
<title>Node0x5587d9d742a8</title>
<polygon fill="none" stroke="black" points="454,-2435 44,-2435 44,-2399 454,-2399 454,-2435"/>
<text text-anchor="middle" x="249" y="-2413.3" font-family="Times,serif" font-size="14.00">{lib/libLLVMScalarOpts.a(LoopVersioningLICM.cpp.o)}</text>
</g>
<!-- Node0x5587d9d70798 -->
<g id="node50" class="node">
<title>Node0x5587d9d70798</title>
<polygon fill="none" stroke="black" points="426,-2489 72,-2489 72,-2453 426,-2453 426,-2489"/>
<text text-anchor="middle" x="249" y="-2467.3" font-family="Times,serif" font-size="14.00">{lib/libLLVMScalarOpts.a(LowerAtomic.cpp.o)}</text>
</g>
<!-- Node0x5587d9d6f9d8 -->
<g id="node51" class="node">
<title>Node0x5587d9d6f9d8</title>
<polygon fill="none" stroke="black" points="456,-2543 42,-2543 42,-2507 456,-2507 456,-2543"/>
<text text-anchor="middle" x="249" y="-2521.3" font-family="Times,serif" font-size="14.00">{lib/libLLVMScalarOpts.a(LowerExpectIntrinsic.cpp.o)}</text>
</g>
<!-- Node0x5587d9d62eb8 -->
<g id="node52" class="node">
<title>Node0x5587d9d62eb8</title>
<polygon fill="none" stroke="black" points="453.5,-2597 44.5,-2597 44.5,-2561 453.5,-2561 453.5,-2597"/>
<text text-anchor="middle" x="249" y="-2575.3" font-family="Times,serif" font-size="14.00">{lib/libLLVMScalarOpts.a(LowerGuardIntrinsic.cpp.o)}</text>
</g>
<!-- Node0x5587d9d62af8 -->
<g id="node53" class="node">
<title>Node0x5587d9d62af8</title>
<polygon fill="none" stroke="black" points="459,-2651 39,-2651 39,-2615 459,-2615 459,-2651"/>
<text text-anchor="middle" x="249" y="-2629.3" font-family="Times,serif" font-size="14.00">{lib/libLLVMScalarOpts.a(LowerMatrixIntrinsics.cpp.o)}</text>
</g>
<!-- Node0x5587d9d61dd8 -->
<g id="node54" class="node">
<title>Node0x5587d9d61dd8</title>
<polygon fill="none" stroke="black" points="473.5,-2705 24.5,-2705 24.5,-2669 473.5,-2669 473.5,-2705"/>
<text text-anchor="middle" x="249" y="-2683.3" font-family="Times,serif" font-size="14.00">{lib/libLLVMScalarOpts.a(LowerWidenableCondition.cpp.o)}</text>
</g>
<!-- Node0x5587d9d643a8 -->
<g id="node55" class="node">
<title>Node0x5587d9d643a8</title>
<polygon fill="none" stroke="black" points="452,-2759 46,-2759 46,-2723 452,-2723 452,-2759"/>
<text text-anchor="middle" x="249" y="-2737.3" font-family="Times,serif" font-size="14.00">{lib/libLLVMScalarOpts.a(MakeGuardsExplicit.cpp.o)}</text>
</g>
<!-- Node0x5587d9d636d8 -->
<g id="node56" class="node">
<title>Node0x5587d9d636d8</title>
<polygon fill="none" stroke="black" points="446,-2813 52,-2813 52,-2777 446,-2777 446,-2813"/>
<text text-anchor="middle" x="249" y="-2791.3" font-family="Times,serif" font-size="14.00">{lib/libLLVMScalarOpts.a(MemCpyOptimizer.cpp.o)}</text>
</g>
<!-- Node0x5587d9d60988 -->
<g id="node57" class="node">
<title>Node0x5587d9d60988</title>
<polygon fill="none" stroke="black" points="469,-2867 29,-2867 29,-2831 469,-2831 469,-2867"/>
<text text-anchor="middle" x="249" y="-2845.3" font-family="Times,serif" font-size="14.00">{lib/libLLVMScalarOpts.a(MergedLoadStoreMotion.cpp.o)}</text>
</g>
<!-- Node0x5587d9d5fb28 -->
<g id="node58" class="node">
<title>Node0x5587d9d5fb28</title>
<polygon fill="none" stroke="black" points="439,-2921 59,-2921 59,-2885 439,-2885 439,-2921"/>
<text text-anchor="middle" x="249" y="-2899.3" font-family="Times,serif" font-size="14.00">{lib/libLLVMScalarOpts.a(NaryReassociate.cpp.o)}</text>
</g>
<!-- Node0x5587d9d762d8 -->
<g id="node59" class="node">
<title>Node0x5587d9d762d8</title>
<polygon fill="none" stroke="black" points="421.5,-2975 76.5,-2975 76.5,-2939 421.5,-2939 421.5,-2975"/>
<text text-anchor="middle" x="249" y="-2953.3" font-family="Times,serif" font-size="14.00">{lib/libLLVMScalarOpts.a(Reassociate.cpp.o)}</text>
</g>
<!-- Node0x5587d9d7a568 -->
<g id="node60" class="node">
<title>Node0x5587d9d7a568</title>
<polygon fill="none" stroke="black" points="415.5,-3029 82.5,-3029 82.5,-2993 415.5,-2993 415.5,-3029"/>
<text text-anchor="middle" x="249" y="-3007.3" font-family="Times,serif" font-size="14.00">{lib/libLLVMScalarOpts.a(Reg2Mem.cpp.o)}</text>
</g>
<!-- Node0x5587d9d79ca8 -->
<g id="node61" class="node">
<title>Node0x5587d9d79ca8</title>
<polygon fill="none" stroke="black" points="471.5,-3083 26.5,-3083 26.5,-3047 471.5,-3047 471.5,-3083"/>
<text text-anchor="middle" x="249" y="-3061.3" font-family="Times,serif" font-size="14.00">{lib/libLLVMScalarOpts.a(RewriteStatepointsForGC.cpp.o)}</text>
</g>
<!-- Node0x5587d9d7b788 -->
<g id="node62" class="node">
<title>Node0x5587d9d7b788</title>
<polygon fill="none" stroke="black" points="398,-3137 100,-3137 100,-3101 398,-3101 398,-3137"/>
<text text-anchor="middle" x="249" y="-3115.3" font-family="Times,serif" font-size="14.00">{lib/libLLVMScalarOpts.a(SCCP.cpp.o)}</text>
</g>
<!-- Node0x5587d9d797a8 -->
<g id="node63" class="node">
<title>Node0x5587d9d797a8</title>
<polygon fill="none" stroke="black" points="400,-3191 98,-3191 98,-3155 400,-3155 400,-3191"/>
<text text-anchor="middle" x="249" y="-3169.3" font-family="Times,serif" font-size="14.00">{lib/libLLVMScalarOpts.a(SROA.cpp.o)}</text>
</g>
<!-- Node0x5587d9d78628 -->
<g id="node64" class="node">
<title>Node0x5587d9d78628</title>
<polygon fill="none" stroke="black" points="414.5,-3245 83.5,-3245 83.5,-3209 414.5,-3209 414.5,-3245"/>
<text text-anchor="middle" x="249" y="-3223.3" font-family="Times,serif" font-size="14.00">{lib/libLLVMScalarOpts.a(Scalarizer.cpp.o)}</text>
</g>
<!-- Node0x5587d9d7d678 -->
<g id="node65" class="node">
<title>Node0x5587d9d7d678</title>
<polygon fill="none" stroke="black" points="487,-3299 11,-3299 11,-3263 487,-3263 487,-3299"/>
<text text-anchor="middle" x="249" y="-3277.3" font-family="Times,serif" font-size="14.00">{lib/libLLVMScalarOpts.a(SeparateConstOffsetFromGEP.cpp.o)}</text>
</g>
<!-- Node0x5587d9d7c138 -->
<g id="node66" class="node">
<title>Node0x5587d9d7c138</title>
<polygon fill="none" stroke="black" points="455,-3353 43,-3353 43,-3317 455,-3317 455,-3353"/>
<text text-anchor="middle" x="249" y="-3331.3" font-family="Times,serif" font-size="14.00">{lib/libLLVMScalarOpts.a(SimpleLoopUnswitch.cpp.o)}</text>
</g>
<!-- Node0x5587d9d724f8 -->
<g id="node67" class="node">
<title>Node0x5587d9d724f8</title>
<polygon fill="none" stroke="black" points="440.5,-3407 57.5,-3407 57.5,-3371 440.5,-3371 440.5,-3407"/>
<text text-anchor="middle" x="249" y="-3385.3" font-family="Times,serif" font-size="14.00">{lib/libLLVMScalarOpts.a(SimplifyCFGPass.cpp.o)}</text>
</g>
<!-- Node0x5587d9d71e18 -->
<g id="node68" class="node">
<title>Node0x5587d9d71e18</title>
<polygon fill="none" stroke="black" points="395,-3461 103,-3461 103,-3425 395,-3425 395,-3461"/>
<text text-anchor="middle" x="249" y="-3439.3" font-family="Times,serif" font-size="14.00">{lib/libLLVMScalarOpts.a(Sink.cpp.o)}</text>
</g>
<!-- Node0x5587d9d71968 -->
<g id="node69" class="node">
<title>Node0x5587d9d71968</title>
<polygon fill="none" stroke="black" points="456.5,-3515 41.5,-3515 41.5,-3479 456.5,-3479 456.5,-3515"/>
<text text-anchor="middle" x="249" y="-3493.3" font-family="Times,serif" font-size="14.00">{lib/libLLVMScalarOpts.a(SpeculativeExecution.cpp.o)}</text>
</g>
<!-- Node0x5587d9d71008 -->
<g id="node70" class="node">
<title>Node0x5587d9d71008</title>
<polygon fill="none" stroke="black" points="457.5,-3569 40.5,-3569 40.5,-3533 457.5,-3533 457.5,-3569"/>
<text text-anchor="middle" x="249" y="-3547.3" font-family="Times,serif" font-size="14.00">{lib/libLLVMScalarOpts.a(SpeculateAroundPHIs.cpp.o)}</text>
</g>
<!-- Node0x5587d9d76148 -->
<g id="node71" class="node">
<title>Node0x5587d9d76148</title>
<polygon fill="none" stroke="black" points="482.5,-3623 15.5,-3623 15.5,-3587 482.5,-3587 482.5,-3623"/>
<text text-anchor="middle" x="249" y="-3601.3" font-family="Times,serif" font-size="14.00">{lib/libLLVMScalarOpts.a(StraightLineStrengthReduce.cpp.o)}</text>
</g>
<!-- Node0x5587d9d768c8 -->
<g id="node72" class="node">
<title>Node0x5587d9d768c8</title>
<polygon fill="none" stroke="black" points="435,-3677 63,-3677 63,-3641 435,-3641 435,-3677"/>
<text text-anchor="middle" x="249" y="-3655.3" font-family="Times,serif" font-size="14.00">{lib/libLLVMScalarOpts.a(StructurizeCFG.cpp.o)}</text>
</g>
<!-- Node0x5587d9d76f58 -->
<g id="node73" class="node">
<title>Node0x5587d9d76f58</title>
<polygon fill="none" stroke="black" points="469,-3731 29,-3731 29,-3695 469,-3695 469,-3731"/>
<text text-anchor="middle" x="249" y="-3709.3" font-family="Times,serif" font-size="14.00">{lib/libLLVMScalarOpts.a(TailRecursionElimination.cpp.o)}</text>
</g>
<!-- Node0x5587d9d77638 -->
<g id="node74" class="node">
<title>Node0x5587d9d77638</title>
<polygon fill="none" stroke="black" points="464.5,-3785 33.5,-3785 33.5,-3749 464.5,-3749 464.5,-3785"/>
<text text-anchor="middle" x="249" y="-3763.3" font-family="Times,serif" font-size="14.00">{lib/libLLVMScalarOpts.a(WarnMissedTransforms.cpp.o)}</text>
</g>
<!-- Node0x5587d9d73bc8 -->
<g id="node75" class="node">
<title>Node0x5587d9d73bc8</title>
<polygon fill="none" stroke="black" points="430,-3839 68,-3839 68,-3803 430,-3803 430,-3839"/>
<text text-anchor="middle" x="249" y="-3817.3" font-family="Times,serif" font-size="14.00">{lib/libLLVMScalarOpts.a(LoopUnswitch.cpp.o)}</text>
</g>
</g>
</svg>
