<?xml version="1.0" encoding="UTF-8" standalone="no"?>
<!DOCTYPE svg PUBLIC "-//W3C//DTD SVG 1.1//EN"
 "http://www.w3.org/Graphics/SVG/1.1/DTD/svg11.dtd">
<!-- Generated by graphviz version 2.43.0 (0)
 -->
<!-- Title: bin/llvm&#45;ml_lib/libLLVMOption.a Pages: 1 -->
<svg width="1225pt" height="120pt"
 viewBox="0.00 0.00 1225.00 120.10" xmlns="http://www.w3.org/2000/svg" xmlns:xlink="http://www.w3.org/1999/xlink">
<g id="graph0" class="graph" transform="scale(1 1) rotate(0) translate(4 116.1)">
<title>bin/llvm&#45;ml_lib/libLLVMOption.a</title>
<polygon fill="white" stroke="transparent" points="-4,4 -4,-116.1 1221,-116.1 1221,4 -4,4"/>
<text text-anchor="middle" x="608.5" y="-7.8" font-family="Times,serif" font-size="14.00">bin/llvm&#45;ml_lib/libLLVMOption.a</text>
<!-- Node0x55fdbe8f64f8 -->
<g id="node1" class="node">
<title>Node0x55fdbe8f64f8</title>
<polygon fill="#7fb2ff" stroke="black" points="255,-89.1 0,-89.1 0,-53.1 255,-53.1 255,-89.1"/>
<text text-anchor="middle" x="127.5" y="-67.4" font-family="Times,serif" font-size="14.00">{lib/libLLVMOption.a(Arg.cpp.o)}</text>
</g>
<!-- Node0x55fdbe8f2538 -->
<g id="node2" class="node">
<title>Node0x55fdbe8f2538</title>
<polygon fill="#7fb2ff" stroke="black" points="573,-112.1 291,-112.1 291,-76.1 573,-76.1 573,-112.1"/>
<text text-anchor="middle" x="432" y="-90.4" font-family="Times,serif" font-size="14.00">{lib/libLLVMOption.a(ArgList.cpp.o)}</text>
</g>
<!-- Node0x55fdbe8f64f8&#45;&gt;Node0x55fdbe8f2538 -->
<g id="edge1" class="edge">
<title>Node0x55fdbe8f64f8&#45;&gt;Node0x55fdbe8f2538</title>
<path fill="none" stroke="#7fb2ff" d="M255.03,-74.05C263.53,-74.64 272.13,-75.27 280.73,-75.92"/>
<polygon fill="#7fb2ff" stroke="#7fb2ff" points="280.57,-79.42 290.81,-76.71 281.11,-72.44 280.57,-79.42"/>
</g>
<!-- Node0x55fdbe8f2538&#45;&gt;Node0x55fdbe8f64f8 -->
<g id="edge2" class="edge">
<title>Node0x55fdbe8f2538&#45;&gt;Node0x55fdbe8f64f8</title>
<path fill="none" stroke="#7fb2ff" d="M290.81,-90.17C282.24,-89.55 273.61,-88.89 265.05,-88.2"/>
<polygon fill="#7fb2ff" stroke="#7fb2ff" points="265.29,-84.71 255.03,-87.39 264.72,-91.69 265.29,-84.71"/>
</g>
<!-- Node0x55fdbe8f31b8 -->
<g id="node3" class="node">
<title>Node0x55fdbe8f31b8</title>
<polygon fill="#7fb2ff" stroke="black" points="1217,-74.1 939,-74.1 939,-38.1 1217,-38.1 1217,-74.1"/>
<text text-anchor="middle" x="1078" y="-52.4" font-family="Times,serif" font-size="14.00">{lib/libLLVMOption.a(Option.cpp.o)}</text>
</g>
<!-- Node0x55fdbe8f2538&#45;&gt;Node0x55fdbe8f31b8 -->
<g id="edge3" class="edge">
<title>Node0x55fdbe8f2538&#45;&gt;Node0x55fdbe8f31b8</title>
<path fill="none" stroke="#7fb2ff" d="M573.11,-95.59C666.7,-95.42 792.43,-92.93 903,-83.1 923.28,-81.3 944.78,-78.6 965.5,-75.61"/>
<polygon fill="#7fb2ff" stroke="#7fb2ff" points="966.22,-79.04 975.6,-74.11 965.2,-72.11 966.22,-79.04"/>
</g>
<!-- Node0x55fdbe8f2948 -->
<g id="node4" class="node">
<title>Node0x55fdbe8f2948</title>
<polygon fill="#7fb2ff" stroke="black" points="903,-74.1 609,-74.1 609,-38.1 903,-38.1 903,-74.1"/>
<text text-anchor="middle" x="756" y="-52.4" font-family="Times,serif" font-size="14.00">{lib/libLLVMOption.a(OptTable.cpp.o)}</text>
</g>
<!-- Node0x55fdbe8f2538&#45;&gt;Node0x55fdbe8f2948 -->
<g id="edge4" class="edge">
<title>Node0x55fdbe8f2538&#45;&gt;Node0x55fdbe8f2948</title>
<path fill="none" stroke="#7fb2ff" d="M532.68,-76.04C553.67,-73.24 576.31,-70.42 598.81,-67.78"/>
<polygon fill="#7fb2ff" stroke="#7fb2ff" points="599.26,-71.26 608.79,-66.63 598.46,-64.3 599.26,-71.26"/>
</g>
<!-- Node0x55fdbe8f31b8&#45;&gt;Node0x55fdbe8f64f8 -->
<g id="edge5" class="edge">
<title>Node0x55fdbe8f31b8&#45;&gt;Node0x55fdbe8f64f8</title>
<path fill="none" stroke="#7fb2ff" d="M978.39,-38.1C953.85,-34.36 927.54,-30.99 903,-29.1 679.82,-11.89 419.93,-34.74 265.1,-52.88"/>
<polygon fill="#7fb2ff" stroke="#7fb2ff" points="264.57,-49.41 255.05,-54.06 265.4,-56.37 264.57,-49.41"/>
</g>
<!-- Node0x55fdbe8f31b8&#45;&gt;Node0x55fdbe8f2948 -->
<g id="edge6" class="edge">
<title>Node0x55fdbe8f31b8&#45;&gt;Node0x55fdbe8f2948</title>
<path fill="none" stroke="#7fb2ff" d="M938.51,-62.8C930.25,-62.84 921.9,-62.86 913.57,-62.85"/>
<polygon fill="#7fb2ff" stroke="#7fb2ff" points="913.43,-59.35 903.42,-62.83 913.41,-66.35 913.43,-59.35"/>
</g>
<!-- Node0x55fdbe8f2948&#45;&gt;Node0x55fdbe8f64f8 -->
<g id="edge7" class="edge">
<title>Node0x55fdbe8f2948&#45;&gt;Node0x55fdbe8f64f8</title>
<path fill="none" stroke="#7fb2ff" d="M608.97,-59.53C517.6,-61.68 397.43,-64.53 291,-67.1 282.69,-67.3 274.13,-67.51 265.51,-67.72"/>
<polygon fill="#7fb2ff" stroke="#7fb2ff" points="265.27,-64.22 255.35,-67.97 265.44,-71.22 265.27,-64.22"/>
</g>
<!-- Node0x55fdbe8f2948&#45;&gt;Node0x55fdbe8f2538 -->
<g id="edge8" class="edge">
<title>Node0x55fdbe8f2948&#45;&gt;Node0x55fdbe8f2538</title>
<path fill="none" stroke="#7fb2ff" d="M655.33,-74.16C632.52,-77.2 607.78,-80.27 583.36,-83.09"/>
<polygon fill="#7fb2ff" stroke="#7fb2ff" points="582.83,-79.63 573.3,-84.24 583.63,-86.58 582.83,-79.63"/>
</g>
<!-- Node0x55fdbe8f2948&#45;&gt;Node0x55fdbe8f31b8 -->
<g id="edge9" class="edge">
<title>Node0x55fdbe8f2948&#45;&gt;Node0x55fdbe8f31b8</title>
<path fill="none" stroke="#7fb2ff" d="M903.42,-49.37C911.73,-49.35 920.08,-49.34 928.4,-49.37"/>
<polygon fill="#7fb2ff" stroke="#7fb2ff" points="928.5,-52.87 938.51,-49.4 928.53,-45.87 928.5,-52.87"/>
</g>
</g>
</svg>
