<?xml version="1.0" encoding="UTF-8" standalone="no"?>
<!DOCTYPE svg PUBLIC "-//W3C//DTD SVG 1.1//EN"
 "http://www.w3.org/Graphics/SVG/1.1/DTD/svg11.dtd">
<!-- Generated by graphviz version 2.43.0 (0)
 -->
<!-- Title: bin/lli_lib/libLLVMInterpreter.a Pages: 1 -->
<svg width="1143pt" height="122pt"
 viewBox="0.00 0.00 1143.00 122.00" xmlns="http://www.w3.org/2000/svg" xmlns:xlink="http://www.w3.org/1999/xlink">
<g id="graph0" class="graph" transform="scale(1 1) rotate(0) translate(4 118)">
<title>bin/lli_lib/libLLVMInterpreter.a</title>
<polygon fill="white" stroke="transparent" points="-4,4 -4,-118 1139,-118 1139,4 -4,4"/>
<text text-anchor="middle" x="567.5" y="-7.8" font-family="Times,serif" font-size="14.00">bin/lli_lib/libLLVMInterpreter.a</text>
<!-- Node0x55af0ef70ca8 -->
<g id="node1" class="node">
<title>Node0x55af0ef70ca8</title>
<polygon fill="#7fb2ff" stroke="black" points="339,-59 0,-59 0,-23 339,-23 339,-59"/>
<text text-anchor="middle" x="169.5" y="-37.3" font-family="Times,serif" font-size="14.00">{lib/libLLVMInterpreter.a(Interpreter.cpp.o)}</text>
</g>
<!-- Node0x55af0ef70f28 -->
<g id="node2" class="node">
<title>Node0x55af0ef70f28</title>
<polygon fill="#7fb2ff" stroke="black" points="767,-114 375,-114 375,-78 767,-78 767,-114"/>
<text text-anchor="middle" x="571" y="-92.3" font-family="Times,serif" font-size="14.00">{lib/libLLVMInterpreter.a(ExternalFunctions.cpp.o)}</text>
</g>
<!-- Node0x55af0ef70ca8&#45;&gt;Node0x55af0ef70f28 -->
<g id="edge1" class="edge">
<title>Node0x55af0ef70ca8&#45;&gt;Node0x55af0ef70f28</title>
<path fill="none" stroke="#7fb2ff" d="M301.31,-59.01C342.29,-64.65 387.67,-70.9 429.3,-76.63"/>
<polygon fill="#7fb2ff" stroke="#7fb2ff" points="428.85,-80.1 439.24,-78 429.81,-73.17 428.85,-80.1"/>
</g>
<!-- Node0x55af0ef71b58 -->
<g id="node3" class="node">
<title>Node0x55af0ef71b58</title>
<polygon fill="#7fb2ff" stroke="black" points="1135,-86 803,-86 803,-50 1135,-50 1135,-86"/>
<text text-anchor="middle" x="969" y="-64.3" font-family="Times,serif" font-size="14.00">{lib/libLLVMInterpreter.a(Execution.cpp.o)}</text>
</g>
<!-- Node0x55af0ef70ca8&#45;&gt;Node0x55af0ef71b58 -->
<g id="edge2" class="edge">
<title>Node0x55af0ef70ca8&#45;&gt;Node0x55af0ef71b58</title>
<path fill="none" stroke="#7fb2ff" d="M339.14,-41.08C472.37,-44.12 657.7,-50.37 792.64,-56.36"/>
<polygon fill="#7fb2ff" stroke="#7fb2ff" points="792.52,-59.86 802.67,-56.81 792.84,-52.87 792.52,-59.86"/>
</g>
<!-- Node0x55af0ef70f28&#45;&gt;Node0x55af0ef71b58 -->
<g id="edge3" class="edge">
<title>Node0x55af0ef70f28&#45;&gt;Node0x55af0ef71b58</title>
<path fill="none" stroke="#7fb2ff" d="M732.78,-77.99C752.58,-76.47 772.89,-75.02 792.88,-73.67"/>
<polygon fill="#7fb2ff" stroke="#7fb2ff" points="793.24,-77.16 802.99,-73 792.78,-70.17 793.24,-77.16"/>
</g>
<!-- Node0x55af0ef71b58&#45;&gt;Node0x55af0ef70ca8 -->
<g id="edge4" class="edge">
<title>Node0x55af0ef71b58&#45;&gt;Node0x55af0ef70ca8</title>
<path fill="none" stroke="#7fb2ff" d="M802.67,-68C670.32,-65.01 485.01,-58.78 349.24,-52.79"/>
<polygon fill="#7fb2ff" stroke="#7fb2ff" points="349.29,-49.29 339.14,-52.34 348.98,-56.28 349.29,-49.29"/>
</g>
<!-- Node0x55af0ef71b58&#45;&gt;Node0x55af0ef70f28 -->
<g id="edge5" class="edge">
<title>Node0x55af0ef71b58&#45;&gt;Node0x55af0ef70f28</title>
<path fill="none" stroke="#7fb2ff" d="M807.32,-86C797.37,-86.76 787.3,-87.51 777.2,-88.24"/>
<polygon fill="#7fb2ff" stroke="#7fb2ff" points="776.83,-84.75 767.1,-88.95 777.32,-91.74 776.83,-84.75"/>
</g>
</g>
</svg>
