<?xml version="1.0" encoding="UTF-8" standalone="no"?>
<!DOCTYPE svg PUBLIC "-//W3C//DTD SVG 1.1//EN"
 "http://www.w3.org/Graphics/SVG/1.1/DTD/svg11.dtd">
<!-- Generated by graphviz version 2.43.0 (0)
 -->
<!-- Title: bin/llvm&#45;lto_lib/libLLVMipo.a Pages: 1 -->
<svg width="2018pt" height="1747pt"
 viewBox="0.00 0.00 2018.00 1747.00" xmlns="http://www.w3.org/2000/svg" xmlns:xlink="http://www.w3.org/1999/xlink">
<g id="graph0" class="graph" transform="scale(1 1) rotate(0) translate(4 1743)">
<title>bin/llvm&#45;lto_lib/libLLVMipo.a</title>
<polygon fill="white" stroke="transparent" points="-4,4 -4,-1743 2014,-1743 2014,4 -4,4"/>
<text text-anchor="middle" x="1005" y="-7.8" font-family="Times,serif" font-size="14.00">bin/llvm&#45;lto_lib/libLLVMipo.a</text>
<!-- Node0x5587e8305ab8 -->
<g id="node1" class="node">
<title>Node0x5587e8305ab8</title>
<polygon fill="none" stroke="black" points="819.5,-1415 464.5,-1415 464.5,-1379 819.5,-1379 819.5,-1415"/>
<text text-anchor="middle" x="642" y="-1393.3" font-family="Times,serif" font-size="14.00">{lib/libLLVMipo.a(WholeProgramDevirt.cpp.o)}</text>
</g>
<!-- Node0x5587e8325db8 -->
<g id="node2" class="node">
<title>Node0x5587e8325db8</title>
<polygon fill="none" stroke="black" points="1209,-1386 907,-1386 907,-1350 1209,-1350 1209,-1386"/>
<text text-anchor="middle" x="1058" y="-1364.3" font-family="Times,serif" font-size="14.00">{lib/libLLVMipo.a(FunctionAttrs.cpp.o)}</text>
</g>
<!-- Node0x5587e8305ab8&#45;&gt;Node0x5587e8325db8 -->
<g id="edge1" class="edge">
<title>Node0x5587e8305ab8&#45;&gt;Node0x5587e8325db8</title>
<path fill="none" stroke="black" d="M819.77,-1384.62C845.38,-1382.82 871.63,-1380.99 896.88,-1379.22"/>
<polygon fill="black" stroke="black" points="897.16,-1382.71 906.89,-1378.52 896.67,-1375.72 897.16,-1382.71"/>
</g>
<!-- Node0x5587e8325ae8 -->
<g id="node3" class="node">
<title>Node0x5587e8325ae8</title>
<polygon fill="none" stroke="black" points="362,-1523 47,-1523 47,-1487 362,-1487 362,-1523"/>
<text text-anchor="middle" x="204.5" y="-1501.3" font-family="Times,serif" font-size="14.00">{lib/libLLVMipo.a(FunctionImport.cpp.o)}</text>
</g>
<!-- Node0x5587e83209a8 -->
<g id="node4" class="node">
<title>Node0x5587e83209a8</title>
<polygon fill="none" stroke="black" points="782.5,-1523 501.5,-1523 501.5,-1487 782.5,-1487 782.5,-1523"/>
<text text-anchor="middle" x="642" y="-1501.3" font-family="Times,serif" font-size="14.00">{lib/libLLVMipo.a(Internalize.cpp.o)}</text>
</g>
<!-- Node0x5587e8325ae8&#45;&gt;Node0x5587e83209a8 -->
<g id="edge2" class="edge">
<title>Node0x5587e8325ae8&#45;&gt;Node0x5587e83209a8</title>
<path fill="none" stroke="black" d="M362.11,-1505C404.12,-1505 449.44,-1505 491.09,-1505"/>
<polygon fill="black" stroke="black" points="491.31,-1508.5 501.31,-1505 491.31,-1501.5 491.31,-1508.5"/>
</g>
<!-- Node0x5587e8327078 -->
<g id="node5" class="node">
<title>Node0x5587e8327078</title>
<polygon fill="none" stroke="black" points="788.5,-1069 495.5,-1069 495.5,-1033 788.5,-1033 788.5,-1069"/>
<text text-anchor="middle" x="642" y="-1047.3" font-family="Times,serif" font-size="14.00">{lib/libLLVMipo.a(InlineSimple.cpp.o)}</text>
</g>
<!-- Node0x5587e8320278 -->
<g id="node6" class="node">
<title>Node0x5587e8320278</title>
<polygon fill="none" stroke="black" points="1182.5,-1096 933.5,-1096 933.5,-1060 1182.5,-1060 1182.5,-1096"/>
<text text-anchor="middle" x="1058" y="-1074.3" font-family="Times,serif" font-size="14.00">{lib/libLLVMipo.a(Inliner.cpp.o)}</text>
</g>
<!-- Node0x5587e8327078&#45;&gt;Node0x5587e8320278 -->
<g id="edge3" class="edge">
<title>Node0x5587e8327078&#45;&gt;Node0x5587e8320278</title>
<path fill="none" stroke="black" d="M788.67,-1060.5C832.44,-1063.35 880.23,-1066.47 923.19,-1069.27"/>
<polygon fill="black" stroke="black" points="923.22,-1072.78 933.43,-1069.94 923.67,-1065.8 923.22,-1072.78"/>
</g>
<!-- Node0x5587e83242d8 -->
<g id="node7" class="node">
<title>Node0x5587e83242d8</title>
<polygon fill="none" stroke="black" points="379.5,-745 29.5,-745 29.5,-709 379.5,-709 379.5,-745"/>
<text text-anchor="middle" x="204.5" y="-723.3" font-family="Times,serif" font-size="14.00">{lib/libLLVMipo.a(PassManagerBuilder.cpp.o)}</text>
</g>
<!-- Node0x5587e83242d8&#45;&gt;Node0x5587e8305ab8 -->
<g id="edge6" class="edge">
<title>Node0x5587e83242d8&#45;&gt;Node0x5587e8305ab8</title>
<path fill="none" stroke="black" d="M206.12,-745.09C210.07,-830.47 238.92,-1196.03 445,-1365 448.88,-1368.18 452.95,-1371.1 457.18,-1373.78"/>
<polygon fill="black" stroke="black" points="455.66,-1376.95 466.07,-1378.96 459.19,-1370.91 455.66,-1376.95"/>
</g>
<!-- Node0x5587e83242d8&#45;&gt;Node0x5587e8325db8 -->
<g id="edge17" class="edge">
<title>Node0x5587e83242d8&#45;&gt;Node0x5587e8325db8</title>
<path fill="none" stroke="black" d="M206.14,-745.19C210.18,-829.36 239.3,-1183.18 445,-1332 480.8,-1357.9 727.69,-1365.35 896.74,-1367.38"/>
<polygon fill="black" stroke="black" points="896.7,-1370.88 906.74,-1367.5 896.78,-1363.88 896.7,-1370.88"/>
</g>
<!-- Node0x5587e83242d8&#45;&gt;Node0x5587e8327078 -->
<g id="edge24" class="edge">
<title>Node0x5587e83242d8&#45;&gt;Node0x5587e8327078</title>
<path fill="none" stroke="black" d="M214,-745.31C239.92,-798.8 323.62,-955.38 445,-1024 457.57,-1031.11 471.3,-1036.61 485.47,-1040.84"/>
<polygon fill="black" stroke="black" points="484.77,-1044.28 495.34,-1043.57 486.64,-1037.53 484.77,-1044.28"/>
</g>
<!-- Node0x5587e8308628 -->
<g id="node8" class="node">
<title>Node0x5587e8308628</title>
<polygon fill="none" stroke="black" points="762.5,-1323 521.5,-1323 521.5,-1287 762.5,-1287 762.5,-1323"/>
<text text-anchor="middle" x="642" y="-1301.3" font-family="Times,serif" font-size="14.00">{lib/libLLVMipo.a(SCCP.cpp.o)}</text>
</g>
<!-- Node0x5587e83242d8&#45;&gt;Node0x5587e8308628 -->
<g id="edge4" class="edge">
<title>Node0x5587e83242d8&#45;&gt;Node0x5587e8308628</title>
<path fill="none" stroke="black" d="M207.35,-745.09C216.34,-822.92 262.8,-1131.7 445,-1273 464.16,-1287.86 487.58,-1296.97 511.47,-1302.36"/>
<polygon fill="black" stroke="black" points="510.87,-1305.81 521.37,-1304.39 512.27,-1298.96 510.87,-1305.81"/>
</g>
<!-- Node0x5587e83095c8 -->
<g id="node9" class="node">
<title>Node0x5587e83095c8</title>
<polygon fill="none" stroke="black" points="819,-1231 465,-1231 465,-1195 819,-1195 819,-1231"/>
<text text-anchor="middle" x="642" y="-1209.3" font-family="Times,serif" font-size="14.00">{lib/libLLVMipo.a(StripDeadPrototypes.cpp.o)}</text>
</g>
<!-- Node0x5587e83242d8&#45;&gt;Node0x5587e83095c8 -->
<g id="edge5" class="edge">
<title>Node0x5587e83242d8&#45;&gt;Node0x5587e83095c8</title>
<path fill="none" stroke="black" d="M208.88,-745.41C222.92,-816.17 283.67,-1072.43 445,-1186 448.38,-1188.38 451.87,-1190.59 455.47,-1192.65"/>
<polygon fill="black" stroke="black" points="454.1,-1195.89 464.58,-1197.47 457.37,-1189.7 454.1,-1195.89"/>
</g>
<!-- Node0x5587e831e568 -->
<g id="node10" class="node">
<title>Node0x5587e831e568</title>
<polygon fill="none" stroke="black" points="821.5,-1177 462.5,-1177 462.5,-1141 821.5,-1141 821.5,-1177"/>
<text text-anchor="middle" x="642" y="-1155.3" font-family="Times,serif" font-size="14.00">{lib/libLLVMipo.a(Annotation2Metadata.cpp.o)}</text>
</g>
<!-- Node0x5587e83242d8&#45;&gt;Node0x5587e831e568 -->
<g id="edge7" class="edge">
<title>Node0x5587e83242d8&#45;&gt;Node0x5587e831e568</title>
<path fill="none" stroke="black" d="M210.08,-745.05C227.62,-810.07 297.05,-1033.62 445,-1132 447.63,-1133.75 450.33,-1135.41 453.08,-1136.98"/>
<polygon fill="black" stroke="black" points="451.57,-1140.14 462.05,-1141.72 454.84,-1133.95 451.57,-1140.14"/>
</g>
<!-- Node0x5587e831e748 -->
<g id="node11" class="node">
<title>Node0x5587e831e748</title>
<polygon fill="none" stroke="black" points="2010,-738 1661,-738 1661,-702 2010,-702 2010,-738"/>
<text text-anchor="middle" x="1835.5" y="-716.3" font-family="Times,serif" font-size="14.00">{lib/libLLVMipo.a(ArgumentPromotion.cpp.o)}</text>
</g>
<!-- Node0x5587e83242d8&#45;&gt;Node0x5587e831e748 -->
<g id="edge8" class="edge">
<title>Node0x5587e83242d8&#45;&gt;Node0x5587e831e748</title>
<path fill="none" stroke="black" d="M207.25,-745.02C215.8,-821.73 260.53,-1122.54 445,-1240 518.85,-1287.03 752.59,-1254.12 839,-1240 1260.94,-1171.04 1690.38,-838.74 1804.95,-744.79"/>
<polygon fill="black" stroke="black" points="1807.46,-747.26 1812.95,-738.19 1803.01,-741.85 1807.46,-747.26"/>
</g>
<!-- Node0x5587e8303bc8 -->
<g id="node12" class="node">
<title>Node0x5587e8303bc8</title>
<polygon fill="none" stroke="black" points="1195,-200 921,-200 921,-164 1195,-164 1195,-200"/>
<text text-anchor="middle" x="1058" y="-178.3" font-family="Times,serif" font-size="14.00">{lib/libLLVMipo.a(Attributor.cpp.o)}</text>
</g>
<!-- Node0x5587e83242d8&#45;&gt;Node0x5587e8303bc8 -->
<g id="edge9" class="edge">
<title>Node0x5587e83242d8&#45;&gt;Node0x5587e8303bc8</title>
<path fill="none" stroke="black" d="M207.45,-708.97C216.73,-632.85 263.86,-336.1 445,-214 482.61,-188.65 741.64,-182.87 910.44,-181.84"/>
<polygon fill="black" stroke="black" points="910.68,-185.34 920.66,-181.78 910.64,-178.34 910.68,-185.34"/>
</g>
<!-- Node0x5587e83031c8 -->
<g id="node13" class="node">
<title>Node0x5587e83031c8</title>
<polygon fill="none" stroke="black" points="804.5,-1015 479.5,-1015 479.5,-979 804.5,-979 804.5,-1015"/>
<text text-anchor="middle" x="642" y="-993.3" font-family="Times,serif" font-size="14.00">{lib/libLLVMipo.a(BarrierNoopPass.cpp.o)}</text>
</g>
<!-- Node0x5587e83242d8&#45;&gt;Node0x5587e83031c8 -->
<g id="edge10" class="edge">
<title>Node0x5587e83242d8&#45;&gt;Node0x5587e83031c8</title>
<path fill="none" stroke="black" d="M217.08,-745.27C247.74,-791.89 336.19,-915.44 445,-970 452.86,-973.94 461.12,-977.37 469.6,-980.34"/>
<polygon fill="black" stroke="black" points="468.68,-983.72 479.27,-983.5 470.85,-977.06 468.68,-983.72"/>
</g>
<!-- Node0x5587e8300b58 -->
<g id="node14" class="node">
<title>Node0x5587e8300b58</title>
<polygon fill="none" stroke="black" points="829,-961 455,-961 455,-925 829,-925 829,-961"/>
<text text-anchor="middle" x="642" y="-939.3" font-family="Times,serif" font-size="14.00">{lib/libLLVMipo.a(CalledValuePropagation.cpp.o)}</text>
</g>
<!-- Node0x5587e83242d8&#45;&gt;Node0x5587e8300b58 -->
<g id="edge11" class="edge">
<title>Node0x5587e83242d8&#45;&gt;Node0x5587e8300b58</title>
<path fill="none" stroke="black" d="M221.68,-745.09C257.55,-783.87 348.26,-874.82 445,-916 449.81,-918.05 454.75,-919.95 459.78,-921.71"/>
<polygon fill="black" stroke="black" points="458.95,-925.13 469.54,-924.94 461.14,-918.48 458.95,-925.13"/>
</g>
<!-- Node0x5587e8301d78 -->
<g id="node15" class="node">
<title>Node0x5587e8301d78</title>
<polygon fill="none" stroke="black" points="799,-907 485,-907 485,-871 799,-871 799,-907"/>
<text text-anchor="middle" x="642" y="-885.3" font-family="Times,serif" font-size="14.00">{lib/libLLVMipo.a(ConstantMerge.cpp.o)}</text>
</g>
<!-- Node0x5587e83242d8&#45;&gt;Node0x5587e8301d78 -->
<g id="edge12" class="edge">
<title>Node0x5587e83242d8&#45;&gt;Node0x5587e8301d78</title>
<path fill="none" stroke="black" d="M230.22,-745.16C272.09,-774.91 360.65,-833.57 445,-862 454.68,-865.26 464.76,-868.13 475.01,-870.66"/>
<polygon fill="black" stroke="black" points="474.35,-874.1 484.89,-872.97 475.95,-867.28 474.35,-874.1"/>
</g>
<!-- Node0x5587e8309e88 -->
<g id="node16" class="node">
<title>Node0x5587e8309e88</title>
<polygon fill="none" stroke="black" points="793,-853 491,-853 491,-817 793,-817 793,-853"/>
<text text-anchor="middle" x="642" y="-831.3" font-family="Times,serif" font-size="14.00">{lib/libLLVMipo.a(CrossDSOCFI.cpp.o)}</text>
</g>
<!-- Node0x5587e83242d8&#45;&gt;Node0x5587e8309e88 -->
<g id="edge13" class="edge">
<title>Node0x5587e83242d8&#45;&gt;Node0x5587e8309e88</title>
<path fill="none" stroke="black" d="M250.67,-745.14C298.27,-763.58 375.79,-791.68 445,-808 456.67,-810.75 468.81,-813.26 481.06,-815.53"/>
<polygon fill="black" stroke="black" points="480.45,-818.97 490.91,-817.3 481.69,-812.08 480.45,-818.97"/>
</g>
<!-- Node0x5587e8309708 -->
<g id="node17" class="node">
<title>Node0x5587e8309708</title>
<polygon fill="none" stroke="black" points="839,-799 445,-799 445,-763 839,-763 839,-799"/>
<text text-anchor="middle" x="642" y="-777.3" font-family="Times,serif" font-size="14.00">{lib/libLLVMipo.a(DeadArgumentElimination.cpp.o)}</text>
</g>
<!-- Node0x5587e83242d8&#45;&gt;Node0x5587e8309708 -->
<g id="edge14" class="edge">
<title>Node0x5587e83242d8&#45;&gt;Node0x5587e8309708</title>
<path fill="none" stroke="black" d="M350.82,-745.02C394.07,-750.38 441.64,-756.28 485.51,-761.72"/>
<polygon fill="black" stroke="black" points="485.34,-765.23 495.7,-762.98 486.2,-758.28 485.34,-765.23"/>
</g>
<!-- Node0x5587e830a4c8 -->
<g id="node18" class="node">
<title>Node0x5587e830a4c8</title>
<polygon fill="none" stroke="black" points="802,-745 482,-745 482,-709 802,-709 802,-745"/>
<text text-anchor="middle" x="642" y="-723.3" font-family="Times,serif" font-size="14.00">{lib/libLLVMipo.a(ElimAvailExtern.cpp.o)}</text>
</g>
<!-- Node0x5587e83242d8&#45;&gt;Node0x5587e830a4c8 -->
<g id="edge15" class="edge">
<title>Node0x5587e83242d8&#45;&gt;Node0x5587e830a4c8</title>
<path fill="none" stroke="black" d="M379.81,-727C410.13,-727 441.61,-727 471.79,-727"/>
<polygon fill="black" stroke="black" points="471.97,-730.5 481.97,-727 471.97,-723.5 471.97,-730.5"/>
</g>
<!-- Node0x5587e8308718 -->
<g id="node19" class="node">
<title>Node0x5587e8308718</title>
<polygon fill="none" stroke="black" points="813,-691 471,-691 471,-655 813,-655 813,-691"/>
<text text-anchor="middle" x="642" y="-669.3" font-family="Times,serif" font-size="14.00">{lib/libLLVMipo.a(ForceFunctionAttrs.cpp.o)}</text>
</g>
<!-- Node0x5587e83242d8&#45;&gt;Node0x5587e8308718 -->
<g id="edge16" class="edge">
<title>Node0x5587e83242d8&#45;&gt;Node0x5587e8308718</title>
<path fill="none" stroke="black" d="M350.82,-708.98C394.07,-703.62 441.64,-697.72 485.51,-692.28"/>
<polygon fill="black" stroke="black" points="486.2,-695.72 495.7,-691.02 485.34,-688.77 486.2,-695.72"/>
</g>
<!-- Node0x5587e8324b98 -->
<g id="node20" class="node">
<title>Node0x5587e8324b98</title>
<polygon fill="none" stroke="black" points="782.5,-637 501.5,-637 501.5,-601 782.5,-601 782.5,-637"/>
<text text-anchor="middle" x="642" y="-615.3" font-family="Times,serif" font-size="14.00">{lib/libLLVMipo.a(GlobalDCE.cpp.o)}</text>
</g>
<!-- Node0x5587e83242d8&#45;&gt;Node0x5587e8324b98 -->
<g id="edge18" class="edge">
<title>Node0x5587e83242d8&#45;&gt;Node0x5587e8324b98</title>
<path fill="none" stroke="black" d="M250.67,-708.86C298.27,-690.42 375.79,-662.32 445,-646 459.88,-642.49 475.51,-639.39 491.17,-636.65"/>
<polygon fill="black" stroke="black" points="492.19,-640.03 501.47,-634.91 491.02,-633.13 492.19,-640.03"/>
</g>
<!-- Node0x5587e8323f18 -->
<g id="node21" class="node">
<title>Node0x5587e8323f18</title>
<polygon fill="none" stroke="black" points="779.5,-583 504.5,-583 504.5,-547 779.5,-547 779.5,-583"/>
<text text-anchor="middle" x="642" y="-561.3" font-family="Times,serif" font-size="14.00">{lib/libLLVMipo.a(GlobalOpt.cpp.o)}</text>
</g>
<!-- Node0x5587e83242d8&#45;&gt;Node0x5587e8323f18 -->
<g id="edge19" class="edge">
<title>Node0x5587e83242d8&#45;&gt;Node0x5587e8323f18</title>
<path fill="none" stroke="black" d="M230.22,-708.84C272.09,-679.09 360.65,-620.43 445,-592 460.71,-586.7 477.47,-582.44 494.32,-579.02"/>
<polygon fill="black" stroke="black" points="495.09,-582.44 504.24,-577.1 493.76,-575.56 495.09,-582.44"/>
</g>
<!-- Node0x5587e8323e78 -->
<g id="node22" class="node">
<title>Node0x5587e8323e78</title>
<polygon fill="none" stroke="black" points="783.5,-529 500.5,-529 500.5,-493 783.5,-493 783.5,-529"/>
<text text-anchor="middle" x="642" y="-507.3" font-family="Times,serif" font-size="14.00">{lib/libLLVMipo.a(GlobalSplit.cpp.o)}</text>
</g>
<!-- Node0x5587e83242d8&#45;&gt;Node0x5587e8323e78 -->
<g id="edge20" class="edge">
<title>Node0x5587e83242d8&#45;&gt;Node0x5587e8323e78</title>
<path fill="none" stroke="black" d="M221.68,-708.91C257.55,-670.13 348.26,-579.18 445,-538 459.39,-531.87 474.87,-527.07 490.59,-523.32"/>
<polygon fill="black" stroke="black" points="491.41,-526.72 500.4,-521.11 489.88,-519.89 491.41,-526.72"/>
</g>
<!-- Node0x5587e8328298 -->
<g id="node23" class="node">
<title>Node0x5587e8328298</title>
<polygon fill="none" stroke="black" points="804,-475 480,-475 480,-439 804,-439 804,-475"/>
<text text-anchor="middle" x="642" y="-453.3" font-family="Times,serif" font-size="14.00">{lib/libLLVMipo.a(HotColdSplitting.cpp.o)}</text>
</g>
<!-- Node0x5587e83242d8&#45;&gt;Node0x5587e8328298 -->
<g id="edge21" class="edge">
<title>Node0x5587e83242d8&#45;&gt;Node0x5587e8328298</title>
<path fill="none" stroke="black" d="M217.08,-708.73C247.74,-662.11 336.19,-538.56 445,-484 453.06,-479.96 461.53,-476.46 470.24,-473.44"/>
<polygon fill="black" stroke="black" points="471.34,-476.76 479.78,-470.35 469.18,-470.1 471.34,-476.76"/>
</g>
<!-- Node0x5587e8327f78 -->
<g id="node24" class="node">
<title>Node0x5587e8327f78</title>
<polygon fill="none" stroke="black" points="780.5,-421 503.5,-421 503.5,-385 780.5,-385 780.5,-421"/>
<text text-anchor="middle" x="642" y="-399.3" font-family="Times,serif" font-size="14.00">{lib/libLLVMipo.a(IROutliner.cpp.o)}</text>
</g>
<!-- Node0x5587e83242d8&#45;&gt;Node0x5587e8327f78 -->
<g id="edge22" class="edge">
<title>Node0x5587e83242d8&#45;&gt;Node0x5587e8327f78</title>
<path fill="none" stroke="black" d="M214,-708.69C239.92,-655.2 323.62,-498.62 445,-430 459.87,-421.59 476.36,-415.43 493.29,-410.96"/>
<polygon fill="black" stroke="black" points="494.4,-414.29 503.29,-408.52 492.74,-407.49 494.4,-414.29"/>
</g>
<!-- Node0x5587e8327208 -->
<g id="node25" class="node">
<title>Node0x5587e8327208</title>
<polygon fill="none" stroke="black" points="810.5,-367 473.5,-367 473.5,-331 810.5,-331 810.5,-367"/>
<text text-anchor="middle" x="642" y="-345.3" font-family="Times,serif" font-size="14.00">{lib/libLLVMipo.a(InferFunctionAttrs.cpp.o)}</text>
</g>
<!-- Node0x5587e83242d8&#45;&gt;Node0x5587e8327208 -->
<g id="edge23" class="edge">
<title>Node0x5587e83242d8&#45;&gt;Node0x5587e8327208</title>
<path fill="none" stroke="black" d="M211.73,-708.89C233.24,-649.43 310.47,-459.31 445,-376 450.98,-372.29 457.27,-369.01 463.76,-366.1"/>
<polygon fill="black" stroke="black" points="465.52,-369.16 473.42,-362.1 462.84,-362.69 465.52,-369.16"/>
</g>
<!-- Node0x5587e83220c8 -->
<g id="node26" class="node">
<title>Node0x5587e83220c8</title>
<polygon fill="none" stroke="black" points="802,-313 482,-313 482,-277 802,-277 802,-313"/>
<text text-anchor="middle" x="642" y="-291.3" font-family="Times,serif" font-size="14.00">{lib/libLLVMipo.a(LowerTypeTests.cpp.o)}</text>
</g>
<!-- Node0x5587e83242d8&#45;&gt;Node0x5587e83220c8 -->
<g id="edge25" class="edge">
<title>Node0x5587e83242d8&#45;&gt;Node0x5587e83220c8</title>
<path fill="none" stroke="black" d="M210.08,-708.95C227.62,-643.93 297.05,-420.38 445,-322 453.47,-316.37 462.61,-311.67 472.14,-307.78"/>
<polygon fill="black" stroke="black" points="473.67,-310.95 481.8,-304.15 471.21,-304.39 473.67,-310.95"/>
</g>
<!-- Node0x5587e8321f38 -->
<g id="node27" class="node">
<title>Node0x5587e8321f38</title>
<polygon fill="none" stroke="black" points="802,-259 482,-259 482,-223 802,-223 802,-259"/>
<text text-anchor="middle" x="642" y="-237.3" font-family="Times,serif" font-size="14.00">{lib/libLLVMipo.a(MergeFunctions.cpp.o)}</text>
</g>
<!-- Node0x5587e83242d8&#45;&gt;Node0x5587e8321f38 -->
<g id="edge26" class="edge">
<title>Node0x5587e83242d8&#45;&gt;Node0x5587e8321f38</title>
<path fill="none" stroke="black" d="M208.88,-708.59C222.92,-637.83 283.67,-381.57 445,-268 453.51,-262.01 462.76,-257.05 472.44,-252.98"/>
<polygon fill="black" stroke="black" points="473.79,-256.21 481.86,-249.34 471.27,-249.68 473.79,-256.21"/>
</g>
<!-- Node0x5587e83226b8 -->
<g id="node28" class="node">
<title>Node0x5587e83226b8</title>
<polygon fill="none" stroke="black" points="787.5,-113 496.5,-113 496.5,-77 787.5,-77 787.5,-113"/>
<text text-anchor="middle" x="642" y="-91.3" font-family="Times,serif" font-size="14.00">{lib/libLLVMipo.a(OpenMPOpt.cpp.o)}</text>
</g>
<!-- Node0x5587e83242d8&#45;&gt;Node0x5587e83226b8 -->
<g id="edge27" class="edge">
<title>Node0x5587e83242d8&#45;&gt;Node0x5587e83226b8</title>
<path fill="none" stroke="black" d="M206.42,-708.89C211.72,-625.8 245.49,-278.57 445,-122 457.36,-112.3 471.56,-105.21 486.54,-100.1"/>
<polygon fill="black" stroke="black" points="487.97,-103.32 496.49,-97.02 485.9,-96.63 487.97,-103.32"/>
</g>
<!-- Node0x5587e83237e8 -->
<g id="node29" class="node">
<title>Node0x5587e83237e8</title>
<polygon fill="none" stroke="black" points="794.5,-167 489.5,-167 489.5,-131 794.5,-131 794.5,-167"/>
<text text-anchor="middle" x="642" y="-145.3" font-family="Times,serif" font-size="14.00">{lib/libLLVMipo.a(PartialInlining.cpp.o)}</text>
</g>
<!-- Node0x5587e83242d8&#45;&gt;Node0x5587e83237e8 -->
<g id="edge28" class="edge">
<title>Node0x5587e83242d8&#45;&gt;Node0x5587e83237e8</title>
<path fill="none" stroke="black" d="M207.35,-708.91C216.34,-631.08 262.8,-322.3 445,-181 455.53,-172.83 467.35,-166.4 479.82,-161.37"/>
<polygon fill="black" stroke="black" points="481.32,-164.55 489.48,-157.79 478.89,-157.99 481.32,-164.55"/>
</g>
<!-- Node0x5587e8323d38 -->
<g id="node30" class="node">
<title>Node0x5587e8323d38</title>
<polygon fill="none" stroke="black" points="776.5,-59 507.5,-59 507.5,-23 776.5,-23 776.5,-59"/>
<text text-anchor="middle" x="642" y="-37.3" font-family="Times,serif" font-size="14.00">{lib/libLLVMipo.a(PruneEH.cpp.o)}</text>
</g>
<!-- Node0x5587e83242d8&#45;&gt;Node0x5587e8323d38 -->
<g id="edge29" class="edge">
<title>Node0x5587e83242d8&#45;&gt;Node0x5587e8323d38</title>
<path fill="none" stroke="black" d="M205.79,-708.8C208.24,-621.28 231.24,-240.7 445,-68 460.26,-55.67 478.46,-47.5 497.53,-42.25"/>
<polygon fill="black" stroke="black" points="498.41,-45.64 507.27,-39.83 496.72,-38.84 498.41,-45.64"/>
</g>
<!-- Node0x5587e83247d8 -->
<g id="node31" class="node">
<title>Node0x5587e83247d8</title>
<polygon fill="none" stroke="black" points="793.5,-1469 490.5,-1469 490.5,-1433 793.5,-1433 793.5,-1469"/>
<text text-anchor="middle" x="642" y="-1447.3" font-family="Times,serif" font-size="14.00">{lib/libLLVMipo.a(SampleProfile.cpp.o)}</text>
</g>
<!-- Node0x5587e83242d8&#45;&gt;Node0x5587e83247d8 -->
<g id="edge30" class="edge">
<title>Node0x5587e83242d8&#45;&gt;Node0x5587e83247d8</title>
<path fill="none" stroke="black" d="M205.39,-745.3C205.93,-835.95 221.18,-1239.89 445,-1424 455.67,-1432.78 467.83,-1439.47 480.75,-1444.5"/>
<polygon fill="black" stroke="black" points="479.68,-1447.84 490.28,-1447.88 482.02,-1441.24 479.68,-1447.84"/>
</g>
<!-- Node0x5587e8308df8 -->
<g id="node34" class="node">
<title>Node0x5587e8308df8</title>
<polygon fill="none" stroke="black" points="1241,-1323 875,-1323 875,-1287 1241,-1287 1241,-1323"/>
<text text-anchor="middle" x="1058" y="-1301.3" font-family="Times,serif" font-size="14.00">{lib/libLLVMipo.a(FunctionSpecialization.cpp.o)}</text>
</g>
<!-- Node0x5587e8308628&#45;&gt;Node0x5587e8308df8 -->
<g id="edge31" class="edge">
<title>Node0x5587e8308628&#45;&gt;Node0x5587e8308df8</title>
<path fill="none" stroke="black" d="M762.75,-1305C794.59,-1305 829.8,-1305 864.47,-1305"/>
<polygon fill="black" stroke="black" points="864.72,-1308.5 874.72,-1305 864.72,-1301.5 864.72,-1308.5"/>
</g>
<!-- Node0x5587e83038a8 -->
<g id="node37" class="node">
<title>Node0x5587e83038a8</title>
<polygon fill="none" stroke="black" points="1625,-200 1277,-200 1277,-164 1625,-164 1625,-200"/>
<text text-anchor="middle" x="1451" y="-178.3" font-family="Times,serif" font-size="14.00">{lib/libLLVMipo.a(AttributorAttributes.cpp.o)}</text>
</g>
<!-- Node0x5587e8303bc8&#45;&gt;Node0x5587e83038a8 -->
<g id="edge33" class="edge">
<title>Node0x5587e8303bc8&#45;&gt;Node0x5587e83038a8</title>
<path fill="none" stroke="black" d="M1195.2,-175.53C1218.25,-175.31 1242.51,-175.22 1266.52,-175.26"/>
<polygon fill="black" stroke="black" points="1266.79,-178.76 1276.8,-175.29 1266.81,-171.76 1266.79,-178.76"/>
</g>
<!-- Node0x5587e83226b8&#45;&gt;Node0x5587e8303bc8 -->
<g id="edge34" class="edge">
<title>Node0x5587e83226b8&#45;&gt;Node0x5587e8303bc8</title>
<path fill="none" stroke="black" d="M787.6,-112.72C804.98,-115.5 822.43,-118.59 839,-122 890.19,-132.52 947.09,-148.33 989.93,-161.07"/>
<polygon fill="black" stroke="black" points="989.09,-164.48 999.67,-163.99 991.09,-157.77 989.09,-164.48"/>
</g>
<!-- Node0x5587e83226b8&#45;&gt;Node0x5587e83038a8 -->
<g id="edge35" class="edge">
<title>Node0x5587e83226b8&#45;&gt;Node0x5587e83038a8</title>
<path fill="none" stroke="black" d="M787.52,-108.34C908.71,-119.8 1086.29,-137.25 1241,-155 1261.63,-157.37 1283.39,-160.01 1304.76,-162.69"/>
<polygon fill="black" stroke="black" points="1304.52,-166.19 1314.88,-163.97 1305.39,-159.25 1304.52,-166.19"/>
</g>
<!-- Node0x5587e8321498 -->
<g id="node33" class="node">
<title>Node0x5587e8321498</title>
<polygon fill="none" stroke="black" points="1230.5,-1513 885.5,-1513 885.5,-1477 1230.5,-1477 1230.5,-1513"/>
<text text-anchor="middle" x="1058" y="-1491.3" font-family="Times,serif" font-size="14.00">{lib/libLLVMipo.a(SampleProfileProbe.cpp.o)}</text>
</g>
<!-- Node0x5587e83247d8&#45;&gt;Node0x5587e8321498 -->
<g id="edge37" class="edge">
<title>Node0x5587e83247d8&#45;&gt;Node0x5587e8321498</title>
<path fill="none" stroke="black" d="M793.63,-1467.01C820.81,-1469.9 849.4,-1472.94 877.31,-1475.9"/>
<polygon fill="black" stroke="black" points="877.24,-1479.41 887.56,-1476.99 877.98,-1472.45 877.24,-1479.41"/>
</g>
<!-- Node0x5587e8321bc8 -->
<g id="node40" class="node">
<title>Node0x5587e8321bc8</title>
<polygon fill="none" stroke="black" points="1241,-1459 875,-1459 875,-1423 1241,-1423 1241,-1459"/>
<text text-anchor="middle" x="1058" y="-1437.3" font-family="Times,serif" font-size="14.00">{lib/libLLVMipo.a(SampleContextTracker.cpp.o)}</text>
</g>
<!-- Node0x5587e83247d8&#45;&gt;Node0x5587e8321bc8 -->
<g id="edge36" class="edge">
<title>Node0x5587e83247d8&#45;&gt;Node0x5587e8321bc8</title>
<path fill="none" stroke="black" d="M793.63,-1447.36C816.7,-1446.8 840.77,-1446.22 864.58,-1445.65"/>
<polygon fill="black" stroke="black" points="864.86,-1449.14 874.77,-1445.4 864.69,-1442.14 864.86,-1449.14"/>
</g>
<!-- Node0x5587e830a3d8 -->
<g id="node32" class="node">
<title>Node0x5587e830a3d8</title>
<polygon fill="none" stroke="black" points="409,-1577 0,-1577 0,-1541 409,-1541 409,-1577"/>
<text text-anchor="middle" x="204.5" y="-1555.3" font-family="Times,serif" font-size="14.00">{lib/libLLVMipo.a(SyntheticCountsPropagation.cpp.o)}</text>
</g>
<!-- Node0x5587e8309c08 -->
<g id="node35" class="node">
<title>Node0x5587e8309c08</title>
<polygon fill="none" stroke="black" points="354.5,-1631 54.5,-1631 54.5,-1595 354.5,-1595 354.5,-1631"/>
<text text-anchor="middle" x="204.5" y="-1609.3" font-family="Times,serif" font-size="14.00">{lib/libLLVMipo.a(StripSymbols.cpp.o)}</text>
</g>
<!-- Node0x5587e8314c48 -->
<g id="node36" class="node">
<title>Node0x5587e8314c48</title>
<polygon fill="none" stroke="black" points="791.5,-1123 492.5,-1123 492.5,-1087 791.5,-1087 791.5,-1123"/>
<text text-anchor="middle" x="642" y="-1101.3" font-family="Times,serif" font-size="14.00">{lib/libLLVMipo.a(AlwaysInliner.cpp.o)}</text>
</g>
<!-- Node0x5587e8314c48&#45;&gt;Node0x5587e8320278 -->
<g id="edge32" class="edge">
<title>Node0x5587e8314c48&#45;&gt;Node0x5587e8320278</title>
<path fill="none" stroke="black" d="M791.59,-1095.31C834.63,-1092.5 881.35,-1089.46 923.42,-1086.71"/>
<polygon fill="black" stroke="black" points="923.7,-1090.2 933.45,-1086.06 923.24,-1083.22 923.7,-1090.2"/>
</g>
<!-- Node0x5587e83038a8&#45;&gt;Node0x5587e831e748 -->
<g id="edge38" class="edge">
<title>Node0x5587e83038a8&#45;&gt;Node0x5587e831e748</title>
<path fill="none" stroke="black" d="M1464.95,-200.21C1521.7,-280.04 1748.7,-599.31 1815.75,-693.63"/>
<polygon fill="black" stroke="black" points="1812.91,-695.67 1821.56,-701.8 1818.62,-691.62 1812.91,-695.67"/>
</g>
<!-- Node0x5587e83038a8&#45;&gt;Node0x5587e8303bc8 -->
<g id="edge39" class="edge">
<title>Node0x5587e83038a8&#45;&gt;Node0x5587e8303bc8</title>
<path fill="none" stroke="black" d="M1276.8,-188.71C1252.99,-188.79 1228.73,-188.74 1205.46,-188.56"/>
<polygon fill="black" stroke="black" points="1205.23,-185.06 1195.2,-188.47 1205.17,-192.06 1205.23,-185.06"/>
</g>
<!-- Node0x5587e8303d58 -->
<g id="node38" class="node">
<title>Node0x5587e8303d58</title>
<polygon fill="none" stroke="black" points="359,-1685 50,-1685 50,-1649 359,-1649 359,-1685"/>
<text text-anchor="middle" x="204.5" y="-1663.3" font-family="Times,serif" font-size="14.00">{lib/libLLVMipo.a(BlockExtractor.cpp.o)}</text>
</g>
<!-- Node0x5587e8321998 -->
<g id="node39" class="node">
<title>Node0x5587e8321998</title>
<polygon fill="none" stroke="black" points="357,-1739 52,-1739 52,-1703 357,-1703 357,-1739"/>
<text text-anchor="middle" x="204.5" y="-1717.3" font-family="Times,serif" font-size="14.00">{lib/libLLVMipo.a(LoopExtractor.cpp.o)}</text>
</g>
</g>
</svg>
