<?xml version="1.0" encoding="UTF-8" standalone="no"?>
<!DOCTYPE svg PUBLIC "-//W3C//DTD SVG 1.1//EN"
 "http://www.w3.org/Graphics/SVG/1.1/DTD/svg11.dtd">
<!-- Generated by graphviz version 2.43.0 (0)
 -->
<!-- Title: bin/lli_lib/libLLVMDebugInfoCodeView.a Pages: 1 -->
<svg width="2571pt" height="337pt"
 viewBox="0.00 0.00 2571.00 337.00" xmlns="http://www.w3.org/2000/svg" xmlns:xlink="http://www.w3.org/1999/xlink">
<g id="graph0" class="graph" transform="scale(1 1) rotate(0) translate(4 333)">
<title>bin/lli_lib/libLLVMDebugInfoCodeView.a</title>
<polygon fill="white" stroke="transparent" points="-4,4 -4,-333 2567,-333 2567,4 -4,4"/>
<text text-anchor="middle" x="1281.5" y="-7.8" font-family="Times,serif" font-size="14.00">bin/lli_lib/libLLVMDebugInfoCodeView.a</text>
<!-- Node0x55af0ef66cf8 -->
<g id="node1" class="node">
<title>Node0x55af0ef66cf8</title>
<polygon fill="none" stroke="black" points="469,-86 0,-86 0,-50 469,-50 469,-86"/>
<text text-anchor="middle" x="234.5" y="-64.3" font-family="Times,serif" font-size="14.00">{lib/libLLVMDebugInfoCodeView.a(TypeTableCollection.cpp.o)}</text>
</g>
<!-- Node0x55af0ef688c8 -->
<g id="node2" class="node">
<title>Node0x55af0ef688c8</title>
<polygon fill="none" stroke="black" points="960.5,-113 543.5,-113 543.5,-77 960.5,-77 960.5,-113"/>
<text text-anchor="middle" x="752" y="-91.3" font-family="Times,serif" font-size="14.00">{lib/libLLVMDebugInfoCodeView.a(RecordName.cpp.o)}</text>
</g>
<!-- Node0x55af0ef66cf8&#45;&gt;Node0x55af0ef688c8 -->
<g id="edge1" class="edge">
<title>Node0x55af0ef66cf8&#45;&gt;Node0x55af0ef688c8</title>
<path fill="none" stroke="black" d="M469.12,-80.24C490.51,-81.36 512.12,-82.49 533.36,-83.6"/>
<polygon fill="black" stroke="black" points="533.25,-87.1 543.42,-84.13 533.61,-80.11 533.25,-87.1"/>
</g>
<!-- Node0x55af0ef6fd58 -->
<g id="node3" class="node">
<title>Node0x55af0ef6fd58</title>
<polygon fill="none" stroke="black" points="951.5,-59 552.5,-59 552.5,-23 951.5,-23 951.5,-59"/>
<text text-anchor="middle" x="752" y="-37.3" font-family="Times,serif" font-size="14.00">{lib/libLLVMDebugInfoCodeView.a(TypeIndex.cpp.o)}</text>
</g>
<!-- Node0x55af0ef66cf8&#45;&gt;Node0x55af0ef6fd58 -->
<g id="edge2" class="edge">
<title>Node0x55af0ef66cf8&#45;&gt;Node0x55af0ef6fd58</title>
<path fill="none" stroke="black" d="M469.12,-55.76C493.48,-54.49 518.12,-53.2 542.18,-51.94"/>
<polygon fill="black" stroke="black" points="542.65,-55.42 552.45,-51.4 542.29,-48.43 542.65,-55.42"/>
</g>
<!-- Node0x55af0ef75398 -->
<g id="node4" class="node">
<title>Node0x55af0ef75398</title>
<polygon fill="#7fb2ff" stroke="black" points="1506.5,-167 1081.5,-167 1081.5,-131 1506.5,-131 1506.5,-167"/>
<text text-anchor="middle" x="1294" y="-145.3" font-family="Times,serif" font-size="14.00">{lib/libLLVMDebugInfoCodeView.a(CVTypeVisitor.cpp.o)}</text>
</g>
<!-- Node0x55af0ef688c8&#45;&gt;Node0x55af0ef75398 -->
<g id="edge20" class="edge">
<title>Node0x55af0ef688c8&#45;&gt;Node0x55af0ef75398</title>
<path fill="none" stroke="black" d="M933.19,-113.02C987.61,-118.46 1047.54,-124.45 1102.61,-129.96"/>
<polygon fill="black" stroke="black" points="1102.53,-133.47 1112.83,-130.98 1103.23,-126.51 1102.53,-133.47"/>
</g>
<!-- Node0x55af0ef70398 -->
<g id="node5" class="node">
<title>Node0x55af0ef70398</title>
<polygon fill="none" stroke="black" points="1539.5,-113 1048.5,-113 1048.5,-77 1539.5,-77 1539.5,-113"/>
<text text-anchor="middle" x="1294" y="-91.3" font-family="Times,serif" font-size="14.00">{lib/libLLVMDebugInfoCodeView.a(SymbolRecordMapping.cpp.o)}</text>
</g>
<!-- Node0x55af0ef688c8&#45;&gt;Node0x55af0ef70398 -->
<g id="edge21" class="edge">
<title>Node0x55af0ef688c8&#45;&gt;Node0x55af0ef70398</title>
<path fill="none" stroke="black" d="M960.62,-95C985.94,-95 1012.04,-95 1037.96,-95"/>
<polygon fill="black" stroke="black" points="1038.27,-98.5 1048.27,-95 1038.27,-91.5 1038.27,-98.5"/>
</g>
<!-- Node0x55af0ef74538 -->
<g id="node6" class="node">
<title>Node0x55af0ef74538</title>
<polygon fill="none" stroke="black" points="2042,-59 1609,-59 1609,-23 2042,-23 2042,-59"/>
<text text-anchor="middle" x="1825.5" y="-37.3" font-family="Times,serif" font-size="14.00">{lib/libLLVMDebugInfoCodeView.a(CodeViewError.cpp.o)}</text>
</g>
<!-- Node0x55af0ef75398&#45;&gt;Node0x55af0ef74538 -->
<g id="edge6" class="edge">
<title>Node0x55af0ef75398&#45;&gt;Node0x55af0ef74538</title>
<path fill="none" stroke="black" d="M1506.75,-142.55C1523,-137.4 1538.64,-130.68 1553,-122 1577.69,-107.08 1564.39,-83.04 1589,-68 1592.46,-65.89 1596,-63.9 1599.61,-62.02"/>
<polygon fill="black" stroke="black" points="1601.25,-65.12 1608.72,-57.6 1598.19,-58.82 1601.25,-65.12"/>
</g>
<!-- Node0x55af0ef6e688 -->
<g id="node7" class="node">
<title>Node0x55af0ef6e688</title>
<polygon fill="#7fb2ff" stroke="black" points="2062,-167 1589,-167 1589,-131 2062,-131 2062,-167"/>
<text text-anchor="middle" x="1825.5" y="-145.3" font-family="Times,serif" font-size="14.00">{lib/libLLVMDebugInfoCodeView.a(TypeRecordMapping.cpp.o)}</text>
</g>
<!-- Node0x55af0ef75398&#45;&gt;Node0x55af0ef6e688 -->
<g id="edge7" class="edge">
<title>Node0x55af0ef75398&#45;&gt;Node0x55af0ef6e688</title>
<path fill="none" stroke="#7fb2ff" d="M1506.56,-142.37C1530.25,-142.26 1554.53,-142.23 1578.61,-142.27"/>
<polygon fill="#7fb2ff" stroke="#7fb2ff" points="1578.91,-145.77 1588.91,-142.29 1578.92,-138.77 1578.91,-145.77"/>
</g>
<!-- Node0x55af0ef70398&#45;&gt;Node0x55af0ef74538 -->
<g id="edge12" class="edge">
<title>Node0x55af0ef70398&#45;&gt;Node0x55af0ef74538</title>
<path fill="none" stroke="black" d="M1471.68,-76.98C1525.05,-71.54 1583.81,-65.55 1637.81,-60.04"/>
<polygon fill="black" stroke="black" points="1638.24,-63.51 1647.83,-59.02 1637.53,-56.55 1638.24,-63.51"/>
</g>
<!-- Node0x55af0ef73c78 -->
<g id="node8" class="node">
<title>Node0x55af0ef73c78</title>
<polygon fill="none" stroke="black" points="2056,-113 1595,-113 1595,-77 2056,-77 2056,-113"/>
<text text-anchor="middle" x="1825.5" y="-91.3" font-family="Times,serif" font-size="14.00">{lib/libLLVMDebugInfoCodeView.a(CodeViewRecordIO.cpp.o)}</text>
</g>
<!-- Node0x55af0ef70398&#45;&gt;Node0x55af0ef73c78 -->
<g id="edge11" class="edge">
<title>Node0x55af0ef70398&#45;&gt;Node0x55af0ef73c78</title>
<path fill="none" stroke="black" d="M1539.6,-95C1554.57,-95 1569.63,-95 1584.58,-95"/>
<polygon fill="black" stroke="black" points="1584.91,-98.5 1594.91,-95 1584.91,-91.5 1584.91,-98.5"/>
</g>
<!-- Node0x55af0ef6e688&#45;&gt;Node0x55af0ef75398 -->
<g id="edge16" class="edge">
<title>Node0x55af0ef6e688&#45;&gt;Node0x55af0ef75398</title>
<path fill="none" stroke="#7fb2ff" d="M1588.91,-155.71C1564.91,-155.77 1540.59,-155.76 1516.74,-155.67"/>
<polygon fill="#7fb2ff" stroke="#7fb2ff" points="1516.57,-152.17 1506.56,-155.63 1516.54,-159.17 1516.57,-152.17"/>
</g>
<!-- Node0x55af0ef6e688&#45;&gt;Node0x55af0ef74538 -->
<g id="edge15" class="edge">
<title>Node0x55af0ef6e688&#45;&gt;Node0x55af0ef74538</title>
<path fill="none" stroke="black" d="M1727.31,-167.02C1669.68,-171.23 1602.2,-163.49 1571,-113 1552.38,-82.87 1568.09,-64.36 1599.12,-53.2"/>
<polygon fill="black" stroke="black" points="1600.29,-56.5 1608.74,-50.11 1598.15,-49.84 1600.29,-56.5"/>
</g>
<!-- Node0x55af0ef6e688&#45;&gt;Node0x55af0ef73c78 -->
<g id="edge14" class="edge">
<title>Node0x55af0ef6e688&#45;&gt;Node0x55af0ef73c78</title>
<path fill="none" stroke="black" d="M1825.5,-130.79C1825.5,-128.31 1825.5,-125.83 1825.5,-123.34"/>
<polygon fill="black" stroke="black" points="1829,-123.14 1825.5,-113.14 1822,-123.14 1829,-123.14"/>
</g>
<!-- Node0x55af0ef6da08 -->
<g id="node11" class="node">
<title>Node0x55af0ef6da08</title>
<polygon fill="none" stroke="black" points="2537,-167 2124,-167 2124,-131 2537,-131 2537,-167"/>
<text text-anchor="middle" x="2330.5" y="-145.3" font-family="Times,serif" font-size="14.00">{lib/libLLVMDebugInfoCodeView.a(EnumTables.cpp.o)}</text>
</g>
<!-- Node0x55af0ef6e688&#45;&gt;Node0x55af0ef6da08 -->
<g id="edge17" class="edge">
<title>Node0x55af0ef6e688&#45;&gt;Node0x55af0ef6da08</title>
<path fill="none" stroke="black" d="M2062.17,-149C2079.36,-149 2096.65,-149 2113.72,-149"/>
<polygon fill="black" stroke="black" points="2113.74,-152.5 2123.74,-149 2113.74,-145.5 2113.74,-152.5"/>
</g>
<!-- Node0x55af0ef73c78&#45;&gt;Node0x55af0ef74538 -->
<g id="edge3" class="edge">
<title>Node0x55af0ef73c78&#45;&gt;Node0x55af0ef74538</title>
<path fill="none" stroke="black" d="M1825.5,-76.79C1825.5,-74.31 1825.5,-71.83 1825.5,-69.34"/>
<polygon fill="black" stroke="black" points="1829,-69.14 1825.5,-59.14 1822,-69.14 1829,-69.14"/>
</g>
<!-- Node0x55af0ef6c428 -->
<g id="node9" class="node">
<title>Node0x55af0ef6c428</title>
<polygon fill="none" stroke="black" points="2563,-86 2098,-86 2098,-50 2563,-50 2563,-86"/>
<text text-anchor="middle" x="2330.5" y="-64.3" font-family="Times,serif" font-size="14.00">{lib/libLLVMDebugInfoCodeView.a(RecordSerialization.cpp.o)}</text>
</g>
<!-- Node0x55af0ef73c78&#45;&gt;Node0x55af0ef6c428 -->
<g id="edge4" class="edge">
<title>Node0x55af0ef73c78&#45;&gt;Node0x55af0ef6c428</title>
<path fill="none" stroke="black" d="M2056.29,-82.67C2066.78,-82.1 2077.33,-81.54 2087.86,-80.97"/>
<polygon fill="black" stroke="black" points="2088.14,-84.46 2097.94,-80.43 2087.76,-77.47 2088.14,-84.46"/>
</g>
<!-- Node0x55af0ef6c428&#45;&gt;Node0x55af0ef74538 -->
<g id="edge13" class="edge">
<title>Node0x55af0ef6c428&#45;&gt;Node0x55af0ef74538</title>
<path fill="none" stroke="black" d="M2097.99,-55.57C2082.69,-54.75 2067.29,-53.93 2052.02,-53.11"/>
<polygon fill="black" stroke="black" points="2052.18,-49.61 2042.01,-52.57 2051.8,-56.6 2052.18,-49.61"/>
</g>
<!-- Node0x55af0ef74d58 -->
<g id="node10" class="node">
<title>Node0x55af0ef74d58</title>
<polygon fill="none" stroke="black" points="1553,-221 1035,-221 1035,-185 1553,-185 1553,-221"/>
<text text-anchor="middle" x="1294" y="-199.3" font-family="Times,serif" font-size="14.00">{lib/libLLVMDebugInfoCodeView.a(ContinuationRecordBuilder.cpp.o)}</text>
</g>
<!-- Node0x55af0ef74d58&#45;&gt;Node0x55af0ef6e688 -->
<g id="edge5" class="edge">
<title>Node0x55af0ef74d58&#45;&gt;Node0x55af0ef6e688</title>
<path fill="none" stroke="black" d="M1471.68,-184.98C1525.05,-179.54 1583.81,-173.55 1637.81,-168.04"/>
<polygon fill="black" stroke="black" points="1638.24,-171.51 1647.83,-167.02 1637.53,-164.55 1638.24,-171.51"/>
</g>
<!-- Node0x55af0ef6d238 -->
<g id="node12" class="node">
<title>Node0x55af0ef6d238</title>
<polygon fill="none" stroke="black" points="999,-275 505,-275 505,-239 999,-239 999,-275"/>
<text text-anchor="middle" x="752" y="-253.3" font-family="Times,serif" font-size="14.00">{lib/libLLVMDebugInfoCodeView.a(GlobalTypeTableBuilder.cpp.o)}</text>
</g>
<!-- Node0x55af0ef6d238&#45;&gt;Node0x55af0ef74d58 -->
<g id="edge8" class="edge">
<title>Node0x55af0ef6d238&#45;&gt;Node0x55af0ef74d58</title>
<path fill="none" stroke="black" d="M933.19,-238.98C987.61,-233.54 1047.54,-227.55 1102.61,-222.04"/>
<polygon fill="black" stroke="black" points="1103.23,-225.49 1112.83,-221.02 1102.53,-218.53 1103.23,-225.49"/>
</g>
<!-- Node0x55af0ef6bf78 -->
<g id="node13" class="node">
<title>Node0x55af0ef6bf78</title>
<polygon fill="none" stroke="black" points="1532,-275 1056,-275 1056,-239 1532,-239 1532,-275"/>
<text text-anchor="middle" x="1294" y="-253.3" font-family="Times,serif" font-size="14.00">{lib/libLLVMDebugInfoCodeView.a(SimpleTypeSerializer.cpp.o)}</text>
</g>
<!-- Node0x55af0ef6d238&#45;&gt;Node0x55af0ef6bf78 -->
<g id="edge9" class="edge">
<title>Node0x55af0ef6d238&#45;&gt;Node0x55af0ef6bf78</title>
<path fill="none" stroke="black" d="M999.3,-257C1014.7,-257 1030.2,-257 1045.61,-257"/>
<polygon fill="black" stroke="black" points="1045.72,-260.5 1055.72,-257 1045.72,-253.5 1045.72,-260.5"/>
</g>
<!-- Node0x55af0ef6f4e8 -->
<g id="node14" class="node">
<title>Node0x55af0ef6f4e8</title>
<polygon fill="none" stroke="black" points="1503.5,-329 1084.5,-329 1084.5,-293 1503.5,-293 1503.5,-329"/>
<text text-anchor="middle" x="1294" y="-307.3" font-family="Times,serif" font-size="14.00">{lib/libLLVMDebugInfoCodeView.a(TypeHashing.cpp.o)}</text>
</g>
<!-- Node0x55af0ef6d238&#45;&gt;Node0x55af0ef6f4e8 -->
<g id="edge10" class="edge">
<title>Node0x55af0ef6d238&#45;&gt;Node0x55af0ef6f4e8</title>
<path fill="none" stroke="black" d="M933.19,-275.02C987.61,-280.46 1047.54,-286.45 1102.61,-291.96"/>
<polygon fill="black" stroke="black" points="1102.53,-295.47 1112.83,-292.98 1103.23,-288.51 1102.53,-295.47"/>
</g>
<!-- Node0x55af0ef6bf78&#45;&gt;Node0x55af0ef6e688 -->
<g id="edge18" class="edge">
<title>Node0x55af0ef6bf78&#45;&gt;Node0x55af0ef6e688</title>
<path fill="none" stroke="black" d="M1500.78,-238.95C1518.5,-236.34 1536.11,-233.37 1553,-230 1627.17,-215.19 1710.19,-188.95 1764.67,-170.35"/>
<polygon fill="black" stroke="black" points="1765.85,-173.65 1774.17,-167.09 1763.58,-167.03 1765.85,-173.65"/>
</g>
<!-- Node0x55af0ef6ef48 -->
<g id="node16" class="node">
<title>Node0x55af0ef6ef48</title>
<polygon fill="none" stroke="black" points="2059,-329 1592,-329 1592,-293 2059,-293 2059,-329"/>
<text text-anchor="middle" x="1825.5" y="-307.3" font-family="Times,serif" font-size="14.00">{lib/libLLVMDebugInfoCodeView.a(TypeIndexDiscovery.cpp.o)}</text>
</g>
<!-- Node0x55af0ef6f4e8&#45;&gt;Node0x55af0ef6ef48 -->
<g id="edge19" class="edge">
<title>Node0x55af0ef6f4e8&#45;&gt;Node0x55af0ef6ef48</title>
<path fill="none" stroke="black" d="M1503.51,-311C1529.06,-311 1555.34,-311 1581.34,-311"/>
<polygon fill="black" stroke="black" points="1581.68,-314.5 1591.68,-311 1581.68,-307.5 1581.68,-314.5"/>
</g>
<!-- Node0x55af0ef6cba8 -->
<g id="node15" class="node">
<title>Node0x55af0ef6cba8</title>
<polygon fill="none" stroke="black" points="412.5,-140 56.5,-140 56.5,-104 412.5,-104 412.5,-140"/>
<text text-anchor="middle" x="234.5" y="-118.3" font-family="Times,serif" font-size="14.00">{lib/libLLVMDebugInfoCodeView.a(Line.cpp.o)}</text>
</g>
</g>
</svg>
