<?xml version="1.0" encoding="UTF-8" standalone="no"?>
<!DOCTYPE svg PUBLIC "-//W3C//DTD SVG 1.1//EN"
 "http://www.w3.org/Graphics/SVG/1.1/DTD/svg11.dtd">
<!-- Generated by graphviz version 2.43.0 (0)
 -->
<!-- Title: bin/llvm&#45;cvtres_lib/libLLVMObject.a Pages: 1 -->
<svg width="2171pt" height="970pt"
 viewBox="0.00 0.00 2171.00 969.81" xmlns="http://www.w3.org/2000/svg" xmlns:xlink="http://www.w3.org/1999/xlink">
<g id="graph0" class="graph" transform="scale(1 1) rotate(0) translate(4 965.81)">
<title>bin/llvm&#45;cvtres_lib/libLLVMObject.a</title>
<polygon fill="white" stroke="transparent" points="-4,4 -4,-965.81 2167,-965.81 2167,4 -4,4"/>
<text text-anchor="middle" x="1081.5" y="-7.8" font-family="Times,serif" font-size="14.00">bin/llvm&#45;cvtres_lib/libLLVMObject.a</text>
<!-- Node0x56025f2c7238 -->
<g id="node1" class="node">
<title>Node0x56025f2c7238</title>
<polygon fill="none" stroke="black" points="385,-245.6 0,-245.6 0,-209.6 385,-209.6 385,-245.6"/>
<text text-anchor="middle" x="192.5" y="-223.9" font-family="Times,serif" font-size="14.00">{lib/libLLVMObject.a(WindowsMachineFlag.cpp.o)}</text>
</g>
<!-- Node0x56025f2c7a58 -->
<g id="node2" class="node">
<title>Node0x56025f2c7a58</title>
<polygon fill="none" stroke="black" points="1552,-475.6 1193,-475.6 1193,-439.6 1552,-439.6 1552,-475.6"/>
<text text-anchor="middle" x="1372.5" y="-453.9" font-family="Times,serif" font-size="14.00">{lib/libLLVMObject.a(WindowsResource.cpp.o)}</text>
</g>
<!-- Node0x56025f2c39f8 -->
<g id="node3" class="node">
<title>Node0x56025f2c39f8</title>
<polygon fill="none" stroke="black" points="2163,-475.6 1897,-475.6 1897,-439.6 2163,-439.6 2163,-475.6"/>
<text text-anchor="middle" x="2030" y="-453.9" font-family="Times,serif" font-size="14.00">{lib/libLLVMObject.a(Error.cpp.o)}</text>
</g>
<!-- Node0x56025f2c7a58&#45;&gt;Node0x56025f2c39f8 -->
<g id="edge1" class="edge">
<title>Node0x56025f2c7a58&#45;&gt;Node0x56025f2c39f8</title>
<path fill="none" stroke="black" d="M1552.19,-451.52C1657.36,-450.51 1788.55,-450.65 1886.69,-451.92"/>
<polygon fill="black" stroke="black" points="1886.93,-455.43 1896.98,-452.06 1887.03,-448.43 1886.93,-455.43"/>
</g>
<!-- Node0x56025f2c4358 -->
<g id="node4" class="node">
<title>Node0x56025f2c4358</title>
<polygon fill="none" stroke="black" points="1861,-377.6 1588,-377.6 1588,-341.6 1861,-341.6 1861,-377.6"/>
<text text-anchor="middle" x="1724.5" y="-355.9" font-family="Times,serif" font-size="14.00">{lib/libLLVMObject.a(Binary.cpp.o)}</text>
</g>
<!-- Node0x56025f2c7a58&#45;&gt;Node0x56025f2c4358 -->
<g id="edge2" class="edge">
<title>Node0x56025f2c7a58&#45;&gt;Node0x56025f2c4358</title>
<path fill="none" stroke="black" d="M1420.7,-439.6C1473.7,-422.69 1561.08,-397.79 1628.39,-380.15"/>
<polygon fill="black" stroke="black" points="1629.37,-383.51 1638.17,-377.6 1627.61,-376.74 1629.37,-383.51"/>
</g>
<!-- Node0x56025f2c39f8&#45;&gt;Node0x56025f2c7a58 -->
<g id="edge3" class="edge">
<title>Node0x56025f2c39f8&#45;&gt;Node0x56025f2c7a58</title>
<path fill="none" stroke="black" d="M1896.98,-463.14C1800.97,-464.5 1669.59,-464.72 1562.47,-463.78"/>
<polygon fill="black" stroke="black" points="1562.22,-460.28 1552.19,-463.69 1562.15,-467.28 1562.22,-460.28"/>
</g>
<!-- Node0x56025f2c4358&#45;&gt;Node0x56025f2c7a58 -->
<g id="edge4" class="edge">
<title>Node0x56025f2c4358&#45;&gt;Node0x56025f2c7a58</title>
<path fill="none" stroke="black" d="M1675.86,-377.75C1622.88,-394.63 1535.95,-419.4 1468.87,-436.99"/>
<polygon fill="black" stroke="black" points="1467.91,-433.62 1459.12,-439.53 1469.68,-440.39 1467.91,-433.62"/>
</g>
<!-- Node0x56025f2c4358&#45;&gt;Node0x56025f2c39f8 -->
<g id="edge5" class="edge">
<title>Node0x56025f2c4358&#45;&gt;Node0x56025f2c39f8</title>
<path fill="none" stroke="black" d="M1801.16,-377.63C1820.77,-382.72 1841.77,-388.53 1861,-394.6 1899.8,-406.85 1942.74,-423 1975.49,-435.88"/>
<polygon fill="black" stroke="black" points="1974.29,-439.17 1984.88,-439.59 1976.87,-432.66 1974.29,-439.17"/>
</g>
<!-- Node0x56025f2c4858 -->
<g id="node5" class="node">
<title>Node0x56025f2c4858</title>
<polygon fill="none" stroke="black" points="1143.5,-651.6 823.5,-651.6 823.5,-615.6 1143.5,-615.6 1143.5,-651.6"/>
<text text-anchor="middle" x="983.5" y="-629.9" font-family="Times,serif" font-size="14.00">{lib/libLLVMObject.a(SymbolicFile.cpp.o)}</text>
</g>
<!-- Node0x56025f2c4858&#45;&gt;Node0x56025f2c7a58 -->
<g id="edge6" class="edge">
<title>Node0x56025f2c4858&#45;&gt;Node0x56025f2c7a58</title>
<path fill="none" stroke="black" d="M1133.8,-615.47C1142.01,-611.59 1149.82,-607.01 1157,-601.6 1185.58,-580.08 1166.71,-553.87 1193,-529.6 1218.37,-506.19 1252.34,-489.95 1283.83,-478.9"/>
<polygon fill="black" stroke="black" points="1285.15,-482.15 1293.51,-475.64 1282.91,-475.52 1285.15,-482.15"/>
</g>
<!-- Node0x56025f2c4858&#45;&gt;Node0x56025f2c39f8 -->
<g id="edge7" class="edge">
<title>Node0x56025f2c4858&#45;&gt;Node0x56025f2c39f8</title>
<path fill="none" stroke="black" d="M1117.48,-615.59C1232.66,-599.59 1403.62,-574.88 1552,-549.6 1683.89,-527.13 1835.49,-497.18 1931.72,-477.65"/>
<polygon fill="black" stroke="black" points="1932.63,-481.04 1941.73,-475.62 1931.23,-474.18 1932.63,-481.04"/>
</g>
<!-- Node0x56025f2c4858&#45;&gt;Node0x56025f2c4358 -->
<g id="edge8" class="edge">
<title>Node0x56025f2c4858&#45;&gt;Node0x56025f2c4358</title>
<path fill="none" stroke="black" d="M1098.87,-615.51C1118.41,-611.53 1138.4,-606.89 1157,-601.6 1173.51,-596.9 1176.73,-593.09 1193,-587.6 1350.3,-534.58 1402.87,-557.49 1552,-484.6 1607.39,-457.53 1663.63,-412.45 1695.96,-384.46"/>
<polygon fill="black" stroke="black" points="1698.42,-386.96 1703.64,-377.74 1693.81,-381.69 1698.42,-386.96"/>
</g>
<!-- Node0x56025f2c6bf8 -->
<g id="node6" class="node">
<title>Node0x56025f2c6bf8</title>
<polygon fill="none" stroke="black" points="1134.5,-705.6 832.5,-705.6 832.5,-669.6 1134.5,-669.6 1134.5,-705.6"/>
<text text-anchor="middle" x="983.5" y="-683.9" font-family="Times,serif" font-size="14.00">{lib/libLLVMObject.a(ObjectFile.cpp.o)}</text>
</g>
<!-- Node0x56025f2c6bf8&#45;&gt;Node0x56025f2c7a58 -->
<g id="edge9" class="edge">
<title>Node0x56025f2c6bf8&#45;&gt;Node0x56025f2c7a58</title>
<path fill="none" stroke="black" d="M1134.89,-669.79C1142.51,-667.12 1149.93,-664.08 1157,-660.6 1179.7,-649.45 1294.82,-534.91 1346.42,-482.97"/>
<polygon fill="black" stroke="black" points="1348.99,-485.34 1353.55,-475.78 1344.02,-480.41 1348.99,-485.34"/>
</g>
<!-- Node0x56025f2c6bf8&#45;&gt;Node0x56025f2c39f8 -->
<g id="edge10" class="edge">
<title>Node0x56025f2c6bf8&#45;&gt;Node0x56025f2c39f8</title>
<path fill="none" stroke="black" d="M1134.54,-672.52C1311.29,-652.1 1612.33,-609.01 1861,-531.6 1904.53,-518.05 1951.87,-496.54 1985.17,-480.19"/>
<polygon fill="black" stroke="black" points="1986.77,-483.31 1994.17,-475.73 1983.66,-477.03 1986.77,-483.31"/>
</g>
<!-- Node0x56025f2c6158 -->
<g id="node7" class="node">
<title>Node0x56025f2c6158</title>
<polygon fill="none" stroke="black" points="773.5,-755.6 421.5,-755.6 421.5,-719.6 773.5,-719.6 773.5,-755.6"/>
<text text-anchor="middle" x="597.5" y="-733.9" font-family="Times,serif" font-size="14.00">{lib/libLLVMObject.a(MachOObjectFile.cpp.o)}</text>
</g>
<!-- Node0x56025f2c6158&#45;&gt;Node0x56025f2c7a58 -->
<g id="edge11" class="edge">
<title>Node0x56025f2c6158&#45;&gt;Node0x56025f2c7a58</title>
<path fill="none" stroke="black" d="M773.58,-745.62C911.8,-749.15 1091.83,-746.74 1157,-714.6 1183.51,-701.53 1303.34,-546.94 1351.43,-484.01"/>
<polygon fill="black" stroke="black" points="1354.44,-485.83 1357.73,-475.76 1348.88,-481.59 1354.44,-485.83"/>
</g>
<!-- Node0x56025f2c6158&#45;&gt;Node0x56025f2c39f8 -->
<g id="edge12" class="edge">
<title>Node0x56025f2c6158&#45;&gt;Node0x56025f2c39f8</title>
<path fill="none" stroke="black" d="M626.45,-755.79C665.6,-780.08 739.86,-821.86 810,-837.6 1132.47,-909.99 1228.52,-856.33 1552,-788.6 1692.25,-759.24 1744.69,-780.3 1861,-696.6 1939.73,-639.95 1994.59,-534.55 2017.3,-484.86"/>
<polygon fill="black" stroke="black" points="2020.52,-486.26 2021.42,-475.7 2014.13,-483.39 2020.52,-486.26"/>
</g>
<!-- Node0x56025f2c6158&#45;&gt;Node0x56025f2c6bf8 -->
<g id="edge13" class="edge">
<title>Node0x56025f2c6158&#45;&gt;Node0x56025f2c6bf8</title>
<path fill="none" stroke="black" d="M736.86,-719.59C768.38,-715.48 801.99,-711.11 833.91,-706.95"/>
<polygon fill="black" stroke="black" points="834.74,-710.37 844.21,-705.61 833.84,-703.43 834.74,-710.37"/>
</g>
<!-- Node0x56025f2c5f28 -->
<g id="node8" class="node">
<title>Node0x56025f2c5f28</title>
<polygon fill="none" stroke="black" points="763,-483.6 432,-483.6 432,-447.6 763,-447.6 763,-483.6"/>
<text text-anchor="middle" x="597.5" y="-461.9" font-family="Times,serif" font-size="14.00">{lib/libLLVMObject.a(ELFObjectFile.cpp.o)}</text>
</g>
<!-- Node0x56025f2c5f28&#45;&gt;Node0x56025f2c7a58 -->
<g id="edge14" class="edge">
<title>Node0x56025f2c5f28&#45;&gt;Node0x56025f2c7a58</title>
<path fill="none" stroke="black" d="M763.38,-463.9C886.2,-462.62 1054.12,-460.89 1182.39,-459.56"/>
<polygon fill="black" stroke="black" points="1182.76,-463.06 1192.72,-459.45 1182.69,-456.06 1182.76,-463.06"/>
</g>
<!-- Node0x56025f2c5f28&#45;&gt;Node0x56025f2c39f8 -->
<g id="edge15" class="edge">
<title>Node0x56025f2c5f28&#45;&gt;Node0x56025f2c39f8</title>
<path fill="none" stroke="black" d="M602.58,-447.4C617.45,-385.9 675.12,-185.47 810,-108.6 911.52,-50.75 1763.85,-79.68 1861,-144.6 1963.76,-213.27 2008.59,-366.24 2023.21,-429.45"/>
<polygon fill="black" stroke="black" points="2019.86,-430.48 2025.45,-439.48 2026.69,-428.96 2019.86,-430.48"/>
</g>
<!-- Node0x56025f2c5f28&#45;&gt;Node0x56025f2c6bf8 -->
<g id="edge16" class="edge">
<title>Node0x56025f2c5f28&#45;&gt;Node0x56025f2c6bf8</title>
<path fill="none" stroke="black" d="M620.94,-483.69C655.13,-511.61 721.82,-567.44 774,-619.6 791.15,-636.75 788.75,-648.92 810,-660.6 814.07,-662.84 818.27,-664.91 822.57,-666.81"/>
<polygon fill="black" stroke="black" points="821.55,-670.18 832.13,-670.74 824.21,-663.71 821.55,-670.18"/>
</g>
<!-- Node0x56025f2c7aa8 -->
<g id="node9" class="node">
<title>Node0x56025f2c7aa8</title>
<polygon fill="none" stroke="black" points="320,-628.6 65,-628.6 65,-592.6 320,-592.6 320,-628.6"/>
<text text-anchor="middle" x="192.5" y="-606.9" font-family="Times,serif" font-size="14.00">{lib/libLLVMObject.a(ELF.cpp.o)}</text>
</g>
<!-- Node0x56025f2c7aa8&#45;&gt;Node0x56025f2c7a58 -->
<g id="edge17" class="edge">
<title>Node0x56025f2c7aa8&#45;&gt;Node0x56025f2c7a58</title>
<path fill="none" stroke="black" d="M320.48,-608.68C574.39,-604.33 1123.38,-592.25 1157,-568.6 1189,-546.09 1163.89,-511.91 1192.02,-482.66"/>
<polygon fill="black" stroke="black" points="1194.69,-484.97 1199.87,-475.73 1190.06,-479.73 1194.69,-484.97"/>
</g>
<!-- Node0x56025f2c7aa8&#45;&gt;Node0x56025f2c39f8 -->
<g id="edge18" class="edge">
<title>Node0x56025f2c7aa8&#45;&gt;Node0x56025f2c39f8</title>
<path fill="none" stroke="black" d="M320.23,-606.08C344.3,-610.98 367.43,-620.52 385,-637.6 453.52,-704.22 353.59,-781.86 421,-849.6 599.28,-1028.75 729.76,-939.6 982.5,-939.6 982.5,-939.6 982.5,-939.6 1373.5,-939.6 1595.14,-939.6 1692.05,-978.06 1861,-834.6 1972.7,-739.75 2013.15,-555.86 2024.9,-485.72"/>
<polygon fill="black" stroke="black" points="2028.36,-486.27 2026.49,-475.84 2021.45,-485.16 2028.36,-486.27"/>
</g>
<!-- Node0x56025f2c7aa8&#45;&gt;Node0x56025f2c6bf8 -->
<g id="edge19" class="edge">
<title>Node0x56025f2c7aa8&#45;&gt;Node0x56025f2c6bf8</title>
<path fill="none" stroke="black" d="M320,-618.12C437.76,-625.71 618.05,-638.85 774,-656.6 802.22,-659.81 832.48,-663.93 860.97,-668.1"/>
<polygon fill="black" stroke="black" points="860.56,-671.58 870.96,-669.58 861.58,-664.65 860.56,-671.58"/>
</g>
<!-- Node0x56025f2c7aa8&#45;&gt;Node0x56025f2c5f28 -->
<g id="edge20" class="edge">
<title>Node0x56025f2c7aa8&#45;&gt;Node0x56025f2c5f28</title>
<path fill="none" stroke="black" d="M243.73,-592.53C317.99,-565.81 456.84,-515.85 536.4,-487.22"/>
<polygon fill="black" stroke="black" points="538.05,-490.35 546.28,-483.67 535.68,-483.76 538.05,-490.35"/>
</g>
<!-- Node0x56025f2c7828 -->
<g id="node10" class="node">
<title>Node0x56025f2c7828</title>
<polygon fill="none" stroke="black" points="364,-483.6 21,-483.6 21,-447.6 364,-447.6 364,-483.6"/>
<text text-anchor="middle" x="192.5" y="-461.9" font-family="Times,serif" font-size="14.00">{lib/libLLVMObject.a(COFFObjectFile.cpp.o)}</text>
</g>
<!-- Node0x56025f2c7828&#45;&gt;Node0x56025f2c7a58 -->
<g id="edge21" class="edge">
<title>Node0x56025f2c7828&#45;&gt;Node0x56025f2c7a58</title>
<path fill="none" stroke="black" d="M322.6,-447.6C354.68,-443.86 389.04,-440.49 421,-438.6 684.84,-423 990.52,-434.35 1182.46,-445.04"/>
<polygon fill="black" stroke="black" points="1182.47,-448.55 1192.65,-445.61 1182.86,-441.56 1182.47,-448.55"/>
</g>
<!-- Node0x56025f2c7828&#45;&gt;Node0x56025f2c39f8 -->
<g id="edge22" class="edge">
<title>Node0x56025f2c7828&#45;&gt;Node0x56025f2c39f8</title>
<path fill="none" stroke="black" d="M244.99,-483.71C289.16,-501.98 350.9,-534.54 385,-583.6 431.81,-650.95 364.92,-704.75 421,-764.6 596.65,-952.04 725.62,-901.6 982.5,-901.6 982.5,-901.6 982.5,-901.6 1373.5,-901.6 1600.06,-901.6 1684.1,-894.16 1861,-752.6 1951.95,-679.83 2002.6,-543.6 2020.97,-485.26"/>
<polygon fill="black" stroke="black" points="2024.34,-486.22 2023.93,-475.63 2017.64,-484.16 2024.34,-486.22"/>
</g>
<!-- Node0x56025f2c7828&#45;&gt;Node0x56025f2c5f28 -->
<g id="edge23" class="edge">
<title>Node0x56025f2c7828&#45;&gt;Node0x56025f2c5f28</title>
<path fill="none" stroke="black" d="M364.12,-465.6C383.13,-465.6 402.52,-465.6 421.59,-465.6"/>
<polygon fill="black" stroke="black" points="421.84,-469.1 431.84,-465.6 421.84,-462.1 421.84,-469.1"/>
</g>
<!-- Node0x56025f2c70f8 -->
<g id="node11" class="node">
<title>Node0x56025f2c70f8</title>
<polygon fill="none" stroke="black" points="1155.5,-797.6 811.5,-797.6 811.5,-761.6 1155.5,-761.6 1155.5,-797.6"/>
<text text-anchor="middle" x="983.5" y="-775.9" font-family="Times,serif" font-size="14.00">{lib/libLLVMObject.a(WasmObjectFile.cpp.o)}</text>
</g>
<!-- Node0x56025f2c70f8&#45;&gt;Node0x56025f2c7a58 -->
<g id="edge24" class="edge">
<title>Node0x56025f2c70f8&#45;&gt;Node0x56025f2c7a58</title>
<path fill="none" stroke="black" d="M1132.18,-761.57C1140.94,-757.68 1149.3,-753.07 1157,-747.6 1183.29,-728.93 1174.98,-711.35 1193,-684.6 1244.46,-608.2 1314.01,-524.52 1349.17,-483.38"/>
<polygon fill="black" stroke="black" points="1351.87,-485.6 1355.73,-475.73 1346.56,-481.05 1351.87,-485.6"/>
</g>
<!-- Node0x56025f2c70f8&#45;&gt;Node0x56025f2c39f8 -->
<g id="edge25" class="edge">
<title>Node0x56025f2c70f8&#45;&gt;Node0x56025f2c39f8</title>
<path fill="none" stroke="black" d="M1155.47,-761.56C1337.13,-737.68 1629.48,-685.54 1861,-579.6 1915.69,-554.58 1970.46,-510.34 2001.97,-482.57"/>
<polygon fill="black" stroke="black" points="2004.33,-485.16 2009.47,-475.89 1999.67,-479.93 2004.33,-485.16"/>
</g>
<!-- Node0x56025f2be8b8 -->
<g id="node12" class="node">
<title>Node0x56025f2be8b8</title>
<polygon fill="none" stroke="black" points="1142,-353.6 825,-353.6 825,-317.6 1142,-317.6 1142,-353.6"/>
<text text-anchor="middle" x="983.5" y="-331.9" font-family="Times,serif" font-size="14.00">{lib/libLLVMObject.a(IRObjectFile.cpp.o)}</text>
</g>
<!-- Node0x56025f2be8b8&#45;&gt;Node0x56025f2c7a58 -->
<g id="edge26" class="edge">
<title>Node0x56025f2be8b8&#45;&gt;Node0x56025f2c7a58</title>
<path fill="none" stroke="black" d="M1130.52,-353.64C1139.83,-357.51 1148.76,-362.12 1157,-367.6 1181.32,-383.79 1168.76,-406.29 1193,-422.6 1200.33,-427.53 1208.19,-431.81 1216.37,-435.5"/>
<polygon fill="black" stroke="black" points="1215.16,-438.79 1225.74,-439.44 1217.88,-432.34 1215.16,-438.79"/>
</g>
<!-- Node0x56025f2be8b8&#45;&gt;Node0x56025f2c39f8 -->
<g id="edge27" class="edge">
<title>Node0x56025f2be8b8&#45;&gt;Node0x56025f2c39f8</title>
<path fill="none" stroke="black" d="M1127.48,-353.62C1149.42,-356.33 1171.81,-359.06 1193,-361.6 1436.49,-390.76 1720.1,-422.96 1886.53,-441.67"/>
<polygon fill="black" stroke="black" points="1886.5,-445.19 1896.83,-442.83 1887.28,-438.23 1886.5,-445.19"/>
</g>
<!-- Node0x56025f2be8b8&#45;&gt;Node0x56025f2c4358 -->
<g id="edge28" class="edge">
<title>Node0x56025f2be8b8&#45;&gt;Node0x56025f2c4358</title>
<path fill="none" stroke="black" d="M1142.13,-340.72C1271.1,-344.91 1452.1,-350.79 1577.74,-354.87"/>
<polygon fill="black" stroke="black" points="1577.71,-358.37 1587.82,-355.2 1577.94,-351.37 1577.71,-358.37"/>
</g>
<!-- Node0x56025f2c09d8 -->
<g id="node13" class="node">
<title>Node0x56025f2c09d8</title>
<polygon fill="none" stroke="black" points="379,-682.6 6,-682.6 6,-646.6 379,-646.6 379,-682.6"/>
<text text-anchor="middle" x="192.5" y="-660.9" font-family="Times,serif" font-size="14.00">{lib/libLLVMObject.a(ModuleSymbolTable.cpp.o)}</text>
</g>
<!-- Node0x56025f2c0118 -->
<g id="node14" class="node">
<title>Node0x56025f2c0118</title>
<polygon fill="none" stroke="black" points="364.5,-736.6 20.5,-736.6 20.5,-700.6 364.5,-700.6 364.5,-736.6"/>
<text text-anchor="middle" x="192.5" y="-714.9" font-family="Times,serif" font-size="14.00">{lib/libLLVMObject.a(RecordStreamer.cpp.o)}</text>
</g>
<!-- Node0x56025f2c4d08 -->
<g id="node15" class="node">
<title>Node0x56025f2c4d08</title>
<polygon fill="none" stroke="black" points="342,-790.6 43,-790.6 43,-754.6 342,-754.6 342,-790.6"/>
<text text-anchor="middle" x="192.5" y="-768.9" font-family="Times,serif" font-size="14.00">{lib/libLLVMObject.a(IRSymtab.cpp.o)}</text>
</g>
<!-- Node0x56025f2c6c48 -->
<g id="node16" class="node">
<title>Node0x56025f2c6c48</title>
<polygon fill="none" stroke="black" points="333.5,-299.6 51.5,-299.6 51.5,-263.6 333.5,-263.6 333.5,-299.6"/>
<text text-anchor="middle" x="192.5" y="-277.9" font-family="Times,serif" font-size="14.00">{lib/libLLVMObject.a(Archive.cpp.o)}</text>
</g>
<!-- Node0x56025f2c6c48&#45;&gt;Node0x56025f2c7a58 -->
<g id="edge29" class="edge">
<title>Node0x56025f2c6c48&#45;&gt;Node0x56025f2c7a58</title>
<path fill="none" stroke="black" d="M314.03,-299.61C536.63,-332.87 1010.44,-403.66 1240.6,-438.04"/>
<polygon fill="black" stroke="black" points="1240.29,-441.54 1250.7,-439.55 1241.33,-434.61 1240.29,-441.54"/>
</g>
<!-- Node0x56025f2c6c48&#45;&gt;Node0x56025f2c39f8 -->
<g id="edge30" class="edge">
<title>Node0x56025f2c6c48&#45;&gt;Node0x56025f2c39f8</title>
<path fill="none" stroke="black" d="M333.95,-275.98C352,-271.26 369.55,-264.41 385,-254.6 409.66,-238.94 397.8,-217.36 421,-199.6 565.41,-89.05 632.45,-112 810,-72.6 885.4,-55.87 905.27,-51.6 982.5,-51.6 982.5,-51.6 982.5,-51.6 1373.5,-51.6 1590.89,-51.6 1682.96,33.14 1861,-91.6 1978.37,-173.84 2015.49,-359.03 2025.63,-429.58"/>
<polygon fill="black" stroke="black" points="2022.16,-430.08 2026.98,-439.51 2029.1,-429.13 2022.16,-430.08"/>
</g>
<!-- Node0x56025f2c6c48&#45;&gt;Node0x56025f2c4358 -->
<g id="edge31" class="edge">
<title>Node0x56025f2c6c48&#45;&gt;Node0x56025f2c4358</title>
<path fill="none" stroke="black" d="M323.67,-263.58C490.15,-240.67 762.7,-203.7 810,-200.6 963.89,-190.54 1003.2,-189.18 1157,-200.6 1334.02,-213.75 1384.54,-200.73 1552,-259.6 1603.94,-277.86 1657.83,-312.26 1691.01,-335.56"/>
<polygon fill="black" stroke="black" points="1689.22,-338.58 1699.4,-341.52 1693.28,-332.87 1689.22,-338.58"/>
</g>
<!-- Node0x56025f2c6c48&#45;&gt;Node0x56025f2c5f28 -->
<g id="edge32" class="edge">
<title>Node0x56025f2c6c48&#45;&gt;Node0x56025f2c5f28</title>
<path fill="none" stroke="black" d="M227.37,-299.71C271.44,-323 351.08,-364.21 421,-395.6 459.7,-412.98 504.1,-430.67 538.55,-443.91"/>
<polygon fill="black" stroke="black" points="537.4,-447.22 547.99,-447.53 539.91,-440.68 537.4,-447.22"/>
</g>
<!-- Node0x56025f2c5ac8 -->
<g id="node17" class="node">
<title>Node0x56025f2c5ac8</title>
<polygon fill="none" stroke="black" points="1157,-153.6 810,-153.6 810,-117.6 1157,-117.6 1157,-153.6"/>
<text text-anchor="middle" x="983.5" y="-131.9" font-family="Times,serif" font-size="14.00">{lib/libLLVMObject.a(MachOUniversal.cpp.o)}</text>
</g>
<!-- Node0x56025f2c5ac8&#45;&gt;Node0x56025f2c7a58 -->
<g id="edge33" class="edge">
<title>Node0x56025f2c5ac8&#45;&gt;Node0x56025f2c7a58</title>
<path fill="none" stroke="black" d="M1056.54,-153.63C1089.14,-164 1127,-179.28 1157,-200.6 1248.61,-265.71 1324.22,-379.11 1355.72,-430.69"/>
<polygon fill="black" stroke="black" points="1352.75,-432.53 1360.92,-439.28 1358.74,-428.91 1352.75,-432.53"/>
</g>
<!-- Node0x56025f2c5ac8&#45;&gt;Node0x56025f2c39f8 -->
<g id="edge34" class="edge">
<title>Node0x56025f2c5ac8&#45;&gt;Node0x56025f2c39f8</title>
<path fill="none" stroke="black" d="M1157.4,-120.22C1343.3,-111.76 1641.66,-122.12 1861,-245.6 1938.17,-289.05 1992.81,-383.53 2016.24,-430.28"/>
<polygon fill="black" stroke="black" points="2013.21,-432.06 2020.76,-439.49 2019.5,-428.98 2013.21,-432.06"/>
</g>
<!-- Node0x56025f2c5ac8&#45;&gt;Node0x56025f2c4358 -->
<g id="edge35" class="edge">
<title>Node0x56025f2c5ac8&#45;&gt;Node0x56025f2c4358</title>
<path fill="none" stroke="black" d="M1157.1,-143.66C1272.75,-154.08 1426.26,-177.79 1552,-231.6 1609.94,-256.4 1666.39,-304.53 1697.89,-334.19"/>
<polygon fill="black" stroke="black" points="1695.7,-336.93 1705.35,-341.3 1700.53,-331.87 1695.7,-336.93"/>
</g>
<!-- Node0x56025f2c7c88 -->
<g id="node18" class="node">
<title>Node0x56025f2c7c88</title>
<polygon fill="none" stroke="black" points="1134,-245.6 833,-245.6 833,-209.6 1134,-209.6 1134,-245.6"/>
<text text-anchor="middle" x="983.5" y="-223.9" font-family="Times,serif" font-size="14.00">{lib/libLLVMObject.a(Minidump.cpp.o)}</text>
</g>
<!-- Node0x56025f2c7c88&#45;&gt;Node0x56025f2c7a58 -->
<g id="edge36" class="edge">
<title>Node0x56025f2c7c88&#45;&gt;Node0x56025f2c7a58</title>
<path fill="none" stroke="black" d="M1134.11,-243.93C1142.06,-246.97 1149.74,-250.5 1157,-254.6 1178.7,-266.87 1175.68,-279.68 1193,-297.6 1242.35,-348.65 1305.19,-402.71 1341.63,-433.11"/>
<polygon fill="black" stroke="black" points="1339.5,-435.88 1349.43,-439.58 1343.98,-430.5 1339.5,-435.88"/>
</g>
<!-- Node0x56025f2c7c88&#45;&gt;Node0x56025f2c39f8 -->
<g id="edge37" class="edge">
<title>Node0x56025f2c7c88&#45;&gt;Node0x56025f2c39f8</title>
<path fill="none" stroke="black" d="M1134.26,-217.49C1315.34,-211.4 1625.15,-221.01 1861,-332.6 1916.14,-358.69 1971.16,-404.28 2002.54,-432.59"/>
<polygon fill="black" stroke="black" points="2000.25,-435.24 2009.99,-439.4 2004.97,-430.07 2000.25,-435.24"/>
</g>
<!-- Node0x56025f2c7c88&#45;&gt;Node0x56025f2c4358 -->
<g id="edge38" class="edge">
<title>Node0x56025f2c7c88&#45;&gt;Node0x56025f2c4358</title>
<path fill="none" stroke="black" d="M1098.86,-245.63C1136.89,-251.52 1174.3,-257.18 1193,-259.6 1352.12,-280.22 1395.64,-261.62 1552,-297.6 1593.7,-307.2 1639.17,-323.94 1672.81,-337.61"/>
<polygon fill="black" stroke="black" points="1671.83,-341 1682.41,-341.56 1674.49,-334.52 1671.83,-341"/>
</g>
<!-- Node0x56025f2c7eb8 -->
<g id="node19" class="node">
<title>Node0x56025f2c7eb8</title>
<polygon fill="none" stroke="black" points="1147,-299.6 820,-299.6 820,-263.6 1147,-263.6 1147,-299.6"/>
<text text-anchor="middle" x="983.5" y="-277.9" font-family="Times,serif" font-size="14.00">{lib/libLLVMObject.a(TapiUniversal.cpp.o)}</text>
</g>
<!-- Node0x56025f2c7eb8&#45;&gt;Node0x56025f2c7a58 -->
<g id="edge39" class="edge">
<title>Node0x56025f2c7eb8&#45;&gt;Node0x56025f2c7a58</title>
<path fill="none" stroke="black" d="M1132.21,-299.71C1140.72,-302.3 1149.04,-305.24 1157,-308.6 1175.43,-316.38 1176.74,-323.96 1193,-335.6 1241.81,-370.56 1299.31,-409.46 1335.58,-433.73"/>
<polygon fill="black" stroke="black" points="1334.07,-436.93 1344.33,-439.57 1337.96,-431.11 1334.07,-436.93"/>
</g>
<!-- Node0x56025f2c7eb8&#45;&gt;Node0x56025f2c4358 -->
<g id="edge40" class="edge">
<title>Node0x56025f2c7eb8&#45;&gt;Node0x56025f2c4358</title>
<path fill="none" stroke="black" d="M1147.27,-297C1260.78,-307.98 1415.7,-323.41 1552,-338.6 1560.36,-339.53 1568.94,-340.51 1577.6,-341.52"/>
<polygon fill="black" stroke="black" points="1577.45,-345.02 1587.79,-342.71 1578.26,-338.07 1577.45,-345.02"/>
</g>
<!-- Node0x56025f2c77d8 -->
<g id="node20" class="node">
<title>Node0x56025f2c77d8</title>
<polygon fill="none" stroke="black" points="1126,-559.6 841,-559.6 841,-523.6 1126,-523.6 1126,-559.6"/>
<text text-anchor="middle" x="983.5" y="-537.9" font-family="Times,serif" font-size="14.00">{lib/libLLVMObject.a(TapiFile.cpp.o)}</text>
</g>
<!-- Node0x56025f2c77d8&#45;&gt;Node0x56025f2c7a58 -->
<g id="edge41" class="edge">
<title>Node0x56025f2c77d8&#45;&gt;Node0x56025f2c7a58</title>
<path fill="none" stroke="black" d="M1086.84,-523.57C1109.96,-519.23 1134.36,-514.44 1157,-509.6 1201.66,-500.05 1251.22,-488.13 1291.44,-478.1"/>
<polygon fill="black" stroke="black" points="1292.34,-481.49 1301.2,-475.67 1290.65,-474.7 1292.34,-481.49"/>
</g>
<!-- Node0x56025f2bf3f8 -->
<g id="node21" class="node">
<title>Node0x56025f2bf3f8</title>
<polygon fill="none" stroke="black" points="774,-701.6 421,-701.6 421,-665.6 774,-665.6 774,-701.6"/>
<text text-anchor="middle" x="597.5" y="-679.9" font-family="Times,serif" font-size="14.00">{lib/libLLVMObject.a(XCOFFObjectFile.cpp.o)}</text>
</g>
<!-- Node0x56025f2bf3f8&#45;&gt;Node0x56025f2c7a58 -->
<g id="edge42" class="edge">
<title>Node0x56025f2bf3f8&#45;&gt;Node0x56025f2c7a58</title>
<path fill="none" stroke="black" d="M614.1,-665.57C646.45,-629.58 724.93,-549.34 810,-514.6 827.43,-507.48 1026.46,-488.36 1182.67,-474.21"/>
<polygon fill="black" stroke="black" points="1183.25,-477.67 1192.89,-473.29 1182.62,-470.7 1183.25,-477.67"/>
</g>
<!-- Node0x56025f2bf3f8&#45;&gt;Node0x56025f2c39f8 -->
<g id="edge43" class="edge">
<title>Node0x56025f2bf3f8&#45;&gt;Node0x56025f2c39f8</title>
<path fill="none" stroke="black" d="M761.15,-701.62C765.63,-704.31 769.93,-707.3 774,-710.6 809.37,-739.34 772.55,-780.65 810,-806.6 946.16,-900.96 1391,-773.63 1552,-734.6 1691.51,-700.79 1739.51,-717.06 1861,-640.6 1927.51,-598.74 1984.46,-523.76 2011.75,-484.01"/>
<polygon fill="black" stroke="black" points="2014.72,-485.87 2017.43,-475.63 2008.93,-481.95 2014.72,-485.87"/>
</g>
<!-- Node0x56025f2bf3f8&#45;&gt;Node0x56025f2c6bf8 -->
<g id="edge44" class="edge">
<title>Node0x56025f2bf3f8&#45;&gt;Node0x56025f2c6bf8</title>
<path fill="none" stroke="black" d="M774.2,-685.43C790.16,-685.6 806.27,-685.77 822.08,-685.93"/>
<polygon fill="black" stroke="black" points="822.39,-689.43 832.43,-686.04 822.47,-682.43 822.39,-689.43"/>
</g>
</g>
</svg>
