<?xml version="1.0" encoding="UTF-8" standalone="no"?>
<!DOCTYPE svg PUBLIC "-//W3C//DTD SVG 1.1//EN"
 "http://www.w3.org/Graphics/SVG/1.1/DTD/svg11.dtd">
<!-- Generated by graphviz version 2.43.0 (0)
 -->
<!-- Title: bin/llvm&#45;jitlink_lib/libLLVMOrcShared.a Pages: 1 -->
<svg width="820pt" height="121pt"
 viewBox="0.00 0.00 820.00 121.00" xmlns="http://www.w3.org/2000/svg" xmlns:xlink="http://www.w3.org/1999/xlink">
<g id="graph0" class="graph" transform="scale(1 1) rotate(0) translate(4 117)">
<title>bin/llvm&#45;jitlink_lib/libLLVMOrcShared.a</title>
<polygon fill="white" stroke="transparent" points="-4,4 -4,-117 816,-117 816,4 -4,4"/>
<text text-anchor="middle" x="406" y="-7.8" font-family="Times,serif" font-size="14.00">bin/llvm&#45;jitlink_lib/libLLVMOrcShared.a</text>
<!-- Node0x55efd7623c48 -->
<g id="node1" class="node">
<title>Node0x55efd7623c48</title>
<polygon fill="none" stroke="black" points="812,-59 491,-59 491,-23 812,-23 812,-59"/>
<text text-anchor="middle" x="651.5" y="-37.3" font-family="Times,serif" font-size="14.00">{lib/libLLVMOrcShared.a(OrcError.cpp.o)}</text>
</g>
<!-- Node0x55efd7626da8 -->
<g id="node2" class="node">
<title>Node0x55efd7626da8</title>
<polygon fill="none" stroke="black" points="390.5,-59 64.5,-59 64.5,-23 390.5,-23 390.5,-59"/>
<text text-anchor="middle" x="227.5" y="-37.3" font-family="Times,serif" font-size="14.00">{lib/libLLVMOrcShared.a(RPCError.cpp.o)}</text>
</g>
<!-- Node0x55efd7626da8&#45;&gt;Node0x55efd7623c48 -->
<g id="edge1" class="edge">
<title>Node0x55efd7626da8&#45;&gt;Node0x55efd7623c48</title>
<path fill="none" stroke="black" d="M390.75,-41C420.28,-41 451.17,-41 480.9,-41"/>
<polygon fill="black" stroke="black" points="480.94,-44.5 490.94,-41 480.94,-37.5 480.94,-44.5"/>
</g>
<!-- Node0x55efd7627c58 -->
<g id="node3" class="node">
<title>Node0x55efd7627c58</title>
<polygon fill="none" stroke="black" points="455,-113 0,-113 0,-77 455,-77 455,-113"/>
<text text-anchor="middle" x="227.5" y="-91.3" font-family="Times,serif" font-size="14.00">{lib/libLLVMOrcShared.a(TargetProcessControlTypes.cpp.o)}</text>
</g>
</g>
</svg>
