<?xml version="1.0" encoding="UTF-8" standalone="no"?>
<!DOCTYPE svg PUBLIC "-//W3C//DTD SVG 1.1//EN"
 "http://www.w3.org/Graphics/SVG/1.1/DTD/svg11.dtd">
<!-- Generated by graphviz version 2.43.0 (0)
 -->
<!-- Title: bin/bugpoint_lib/libLLVMMC.a Pages: 1 -->
<svg width="3078pt" height="3242pt"
 viewBox="0.00 0.00 3078.00 3242.10" xmlns="http://www.w3.org/2000/svg" xmlns:xlink="http://www.w3.org/1999/xlink">
<g id="graph0" class="graph" transform="scale(1 1) rotate(0) translate(4 3238.1)">
<title>bin/bugpoint_lib/libLLVMMC.a</title>
<polygon fill="white" stroke="transparent" points="-4,4 -4,-3238.1 3074,-3238.1 3074,4 -4,4"/>
<text text-anchor="middle" x="1535" y="-7.8" font-family="Times,serif" font-size="14.00">bin/bugpoint_lib/libLLVMMC.a</text>
<!-- Node0x557d8d6bf5d8 -->
<g id="node1" class="node">
<title>Node0x557d8d6bf5d8</title>
<polygon fill="#7fb2ff" stroke="black" points="1566,-1745.1 1279,-1745.1 1279,-1709.1 1566,-1709.1 1566,-1745.1"/>
<text text-anchor="middle" x="1422.5" y="-1723.4" font-family="Times,serif" font-size="14.00">{lib/libLLVMMC.a(MCContext.cpp.o)}</text>
</g>
<!-- Node0x557d8d6c1018 -->
<g id="node2" class="node">
<title>Node0x557d8d6c1018</title>
<polygon fill="#7fb2ff" stroke="black" points="1976,-1493.1 1676,-1493.1 1676,-1457.1 1976,-1457.1 1976,-1493.1"/>
<text text-anchor="middle" x="1826" y="-1471.4" font-family="Times,serif" font-size="14.00">{lib/libLLVMMC.a(MCCodeView.cpp.o)}</text>
</g>
<!-- Node0x557d8d6bf5d8&#45;&gt;Node0x557d8d6c1018 -->
<g id="edge1" class="edge">
<title>Node0x557d8d6bf5d8&#45;&gt;Node0x557d8d6c1018</title>
<path fill="none" stroke="#7fb2ff" d="M1566.11,-1719.09C1586.9,-1713.64 1606.74,-1704.89 1623,-1691.1 1664.49,-1655.91 1626.24,-1617.53 1659,-1574.1 1684.08,-1540.85 1722.58,-1514.89 1756.19,-1497.72"/>
<polygon fill="#7fb2ff" stroke="#7fb2ff" points="1758.11,-1500.67 1765.53,-1493.11 1755.01,-1494.4 1758.11,-1500.67"/>
</g>
<!-- Node0x557d8d6bee08 -->
<g id="node3" class="node">
<title>Node0x557d8d6bee08</title>
<polygon fill="#7fb2ff" stroke="black" points="1963,-1899.1 1689,-1899.1 1689,-1863.1 1963,-1863.1 1963,-1899.1"/>
<text text-anchor="middle" x="1826" y="-1877.4" font-family="Times,serif" font-size="14.00">{lib/libLLVMMC.a(MCDwarf.cpp.o)}</text>
</g>
<!-- Node0x557d8d6bf5d8&#45;&gt;Node0x557d8d6bee08 -->
<g id="edge2" class="edge">
<title>Node0x557d8d6bf5d8&#45;&gt;Node0x557d8d6bee08</title>
<path fill="none" stroke="#7fb2ff" d="M1459.67,-1745.26C1504.45,-1771.73 1584.02,-1819.59 1659,-1845.1 1679.38,-1852.03 1701.78,-1857.21 1723.36,-1861.28"/>
<polygon fill="#7fb2ff" stroke="#7fb2ff" points="1722.73,-1864.73 1733.2,-1863.08 1723.99,-1857.84 1722.73,-1864.73"/>
</g>
<!-- Node0x557d8d6c93a8 -->
<g id="node4" class="node">
<title>Node0x557d8d6c93a8</title>
<polygon fill="#7fb2ff" stroke="black" points="1958,-1439.1 1694,-1439.1 1694,-1403.1 1958,-1403.1 1958,-1439.1"/>
<text text-anchor="middle" x="1826" y="-1417.4" font-family="Times,serif" font-size="14.00">{lib/libLLVMMC.a(MCExpr.cpp.o)}</text>
</g>
<!-- Node0x557d8d6bf5d8&#45;&gt;Node0x557d8d6c93a8 -->
<g id="edge3" class="edge">
<title>Node0x557d8d6bf5d8&#45;&gt;Node0x557d8d6c93a8</title>
<path fill="none" stroke="#7fb2ff" d="M1566.05,-1721.78C1587.35,-1716.12 1607.37,-1706.61 1623,-1691.1 1703.29,-1611.39 1579.78,-1519.87 1659,-1439.1 1666.44,-1431.52 1675.11,-1425.54 1684.52,-1420.9"/>
<polygon fill="#7fb2ff" stroke="#7fb2ff" points="1686,-1424.07 1693.76,-1416.85 1683.19,-1417.66 1686,-1424.07"/>
</g>
<!-- Node0x557d8d6cb3d8 -->
<g id="node5" class="node">
<title>Node0x557d8d6cb3d8</title>
<polygon fill="#7fb2ff" stroke="black" points="1977,-1331.1 1675,-1331.1 1675,-1295.1 1977,-1295.1 1977,-1331.1"/>
<text text-anchor="middle" x="1826" y="-1309.4" font-family="Times,serif" font-size="14.00">{lib/libLLVMMC.a(MCFragment.cpp.o)}</text>
</g>
<!-- Node0x557d8d6bf5d8&#45;&gt;Node0x557d8d6cb3d8 -->
<g id="edge4" class="edge">
<title>Node0x557d8d6bf5d8&#45;&gt;Node0x557d8d6cb3d8</title>
<path fill="none" stroke="#7fb2ff" d="M1566.11,-1722.48C1587.54,-1716.77 1607.58,-1707.06 1623,-1691.1 1678.85,-1633.26 1603.93,-1389.67 1659,-1331.1 1661.48,-1328.46 1664.1,-1326.02 1666.85,-1323.76"/>
<polygon fill="#7fb2ff" stroke="#7fb2ff" points="1668.92,-1326.58 1674.93,-1317.86 1664.79,-1320.93 1668.92,-1326.58"/>
</g>
<!-- Node0x557d8d6cc9b8 -->
<g id="node6" class="node">
<title>Node0x557d8d6cc9b8</title>
<polygon fill="#7fb2ff" stroke="black" points="1988,-1661.1 1664,-1661.1 1664,-1625.1 1988,-1625.1 1988,-1661.1"/>
<text text-anchor="middle" x="1826" y="-1639.4" font-family="Times,serif" font-size="14.00">{lib/libLLVMMC.a(MCPseudoProbe.cpp.o)}</text>
</g>
<!-- Node0x557d8d6bf5d8&#45;&gt;Node0x557d8d6cc9b8 -->
<g id="edge5" class="edge">
<title>Node0x557d8d6bf5d8&#45;&gt;Node0x557d8d6cc9b8</title>
<path fill="none" stroke="#7fb2ff" d="M1566.14,-1710.28C1585.32,-1707.29 1604.69,-1703.9 1623,-1700.1 1669.05,-1690.53 1720.01,-1676.13 1759.22,-1664.19"/>
<polygon fill="#7fb2ff" stroke="#7fb2ff" points="1760.39,-1667.49 1768.93,-1661.21 1758.34,-1660.8 1760.39,-1667.49"/>
</g>
<!-- Node0x557d8d6ccc38 -->
<g id="node7" class="node">
<title>Node0x557d8d6ccc38</title>
<polygon fill="#7fb2ff" stroke="black" points="1968,-1791.1 1684,-1791.1 1684,-1755.1 1968,-1755.1 1968,-1791.1"/>
<text text-anchor="middle" x="1826" y="-1769.4" font-family="Times,serif" font-size="14.00">{lib/libLLVMMC.a(MCSection.cpp.o)}</text>
</g>
<!-- Node0x557d8d6bf5d8&#45;&gt;Node0x557d8d6ccc38 -->
<g id="edge6" class="edge">
<title>Node0x557d8d6bf5d8&#45;&gt;Node0x557d8d6ccc38</title>
<path fill="none" stroke="#7fb2ff" d="M1566.18,-1736.95C1613.44,-1741.94 1665.39,-1748 1710.26,-1753.79"/>
<polygon fill="#7fb2ff" stroke="#7fb2ff" points="1709.95,-1757.27 1720.32,-1755.09 1710.85,-1750.33 1709.95,-1757.27"/>
</g>
<!-- Node0x557d8d6ce1c8 -->
<g id="node8" class="node">
<title>Node0x557d8d6ce1c8</title>
<polygon fill="#7fb2ff" stroke="black" points="1993,-1991.1 1659,-1991.1 1659,-1955.1 1993,-1955.1 1993,-1991.1"/>
<text text-anchor="middle" x="1826" y="-1969.4" font-family="Times,serif" font-size="14.00">{lib/libLLVMMC.a(MCSectionMachO.cpp.o)}</text>
</g>
<!-- Node0x557d8d6bf5d8&#45;&gt;Node0x557d8d6ce1c8 -->
<g id="edge7" class="edge">
<title>Node0x557d8d6bf5d8&#45;&gt;Node0x557d8d6ce1c8</title>
<path fill="none" stroke="#7fb2ff" d="M1449.96,-1745.16C1490.08,-1773.29 1567.5,-1830.55 1623,-1890.1 1641.92,-1910.39 1635.69,-1926.05 1659,-1941.1 1664.72,-1944.79 1670.76,-1948.07 1677.02,-1950.99"/>
<polygon fill="#7fb2ff" stroke="#7fb2ff" points="1675.77,-1954.27 1686.34,-1955.02 1678.55,-1947.84 1675.77,-1954.27"/>
</g>
<!-- Node0x557d8d6d0248 -->
<g id="node9" class="node">
<title>Node0x557d8d6d0248</title>
<polygon fill="#7fb2ff" stroke="black" points="1992.5,-1845.1 1659.5,-1845.1 1659.5,-1809.1 1992.5,-1809.1 1992.5,-1845.1"/>
<text text-anchor="middle" x="1826" y="-1823.4" font-family="Times,serif" font-size="14.00">{lib/libLLVMMC.a(MCSectionXCOFF.cpp.o)}</text>
</g>
<!-- Node0x557d8d6bf5d8&#45;&gt;Node0x557d8d6d0248 -->
<g id="edge8" class="edge">
<title>Node0x557d8d6bf5d8&#45;&gt;Node0x557d8d6d0248</title>
<path fill="none" stroke="#7fb2ff" d="M1474.39,-1745.13C1521.7,-1761.35 1594.41,-1784.91 1659,-1800.1 1669.66,-1802.6 1680.76,-1804.96 1691.95,-1807.14"/>
<polygon fill="#7fb2ff" stroke="#7fb2ff" points="1691.31,-1810.59 1701.79,-1809.03 1692.62,-1803.71 1691.31,-1810.59"/>
</g>
<!-- Node0x557d8d6c3958 -->
<g id="node10" class="node">
<title>Node0x557d8d6c3958</title>
<polygon fill="#7fb2ff" stroke="black" points="1968,-1385.1 1684,-1385.1 1684,-1349.1 1968,-1349.1 1968,-1385.1"/>
<text text-anchor="middle" x="1826" y="-1363.4" font-family="Times,serif" font-size="14.00">{lib/libLLVMMC.a(MCSymbol.cpp.o)}</text>
</g>
<!-- Node0x557d8d6bf5d8&#45;&gt;Node0x557d8d6c3958 -->
<g id="edge9" class="edge">
<title>Node0x557d8d6bf5d8&#45;&gt;Node0x557d8d6c3958</title>
<path fill="none" stroke="#7fb2ff" d="M1566.13,-1731.04C1587.49,-1725.49 1607.5,-1715.86 1623,-1700.1 1718.98,-1602.43 1564.33,-1493.04 1659,-1394.1 1663.81,-1389.07 1669.17,-1384.74 1674.93,-1381.02"/>
<polygon fill="#7fb2ff" stroke="#7fb2ff" points="1676.72,-1384.04 1683.64,-1376.02 1673.23,-1377.97 1676.72,-1384.04"/>
</g>
<!-- Node0x557d8d6c4858 -->
<g id="node11" class="node">
<title>Node0x557d8d6c4858</title>
<polygon fill="#7fb2ff" stroke="black" points="1981.5,-2045.1 1670.5,-2045.1 1670.5,-2009.1 1981.5,-2009.1 1981.5,-2045.1"/>
<text text-anchor="middle" x="1826" y="-2023.4" font-family="Times,serif" font-size="14.00">{lib/libLLVMMC.a(MCSymbolELF.cpp.o)}</text>
</g>
<!-- Node0x557d8d6bf5d8&#45;&gt;Node0x557d8d6c4858 -->
<g id="edge10" class="edge">
<title>Node0x557d8d6bf5d8&#45;&gt;Node0x557d8d6c4858</title>
<path fill="none" stroke="#7fb2ff" d="M1455.61,-1745.21C1499.56,-1771.58 1578.11,-1824.62 1623,-1890.1 1652.09,-1932.52 1619.92,-1966.65 1659,-2000.1 1660.18,-2001.11 1661.38,-2002.08 1662.6,-2003.03"/>
<polygon fill="#7fb2ff" stroke="#7fb2ff" points="1660.76,-2006.02 1670.96,-2008.88 1664.77,-2000.28 1660.76,-2006.02"/>
</g>
<!-- Node0x557d8d6c4948 -->
<g id="node12" class="node">
<title>Node0x557d8d6c4948</title>
<polygon fill="none" stroke="black" points="1992.5,-2541.1 1659.5,-2541.1 1659.5,-2505.1 1992.5,-2505.1 1992.5,-2541.1"/>
<text text-anchor="middle" x="1826" y="-2519.4" font-family="Times,serif" font-size="14.00">{lib/libLLVMMC.a(MCSymbolXCOFF.cpp.o)}</text>
</g>
<!-- Node0x557d8d6bf5d8&#45;&gt;Node0x557d8d6c4948 -->
<g id="edge11" class="edge">
<title>Node0x557d8d6bf5d8&#45;&gt;Node0x557d8d6c4948</title>
<path fill="none" stroke="black" d="M1432.64,-1745.22C1485.14,-1849.31 1748.2,-2370.83 1811.35,-2496.04"/>
<polygon fill="black" stroke="black" points="1808.25,-2497.65 1815.87,-2505 1814.5,-2494.5 1808.25,-2497.65"/>
</g>
<!-- Node0x557d8d6c1018&#45;&gt;Node0x557d8d6bf5d8 -->
<g id="edge86" class="edge">
<title>Node0x557d8d6c1018&#45;&gt;Node0x557d8d6bf5d8</title>
<path fill="none" stroke="#7fb2ff" d="M1794.94,-1493.21C1757.67,-1512.17 1694.72,-1544.75 1659,-1592.1 1626.24,-1635.53 1664.49,-1673.91 1623,-1709.1 1609.28,-1720.73 1593.01,-1728.78 1575.78,-1734.14"/>
<polygon fill="#7fb2ff" stroke="#7fb2ff" points="1574.8,-1730.78 1566.11,-1736.85 1576.69,-1737.52 1574.8,-1730.78"/>
</g>
<!-- Node0x557d8d6c1018&#45;&gt;Node0x557d8d6c93a8 -->
<g id="edge87" class="edge">
<title>Node0x557d8d6c1018&#45;&gt;Node0x557d8d6c93a8</title>
<path fill="none" stroke="#7fb2ff" d="M1826,-1456.89C1826,-1454.41 1826,-1451.92 1826,-1449.44"/>
<polygon fill="#7fb2ff" stroke="#7fb2ff" points="1829.5,-1449.24 1826,-1439.24 1822.5,-1449.24 1829.5,-1449.24"/>
</g>
<!-- Node0x557d8d6c1018&#45;&gt;Node0x557d8d6cb3d8 -->
<g id="edge88" class="edge">
<title>Node0x557d8d6c1018&#45;&gt;Node0x557d8d6cb3d8</title>
<path fill="none" stroke="#7fb2ff" d="M1675.7,-1469.51C1661.65,-1462.67 1649.52,-1452.88 1641,-1439.1 1619.97,-1405.07 1619.97,-1383.12 1641,-1349.1 1647.45,-1338.66 1655.99,-1330.5 1665.85,-1324.19"/>
<polygon fill="#7fb2ff" stroke="#7fb2ff" points="1667.87,-1327.07 1674.85,-1319.1 1664.42,-1320.98 1667.87,-1327.07"/>
</g>
<!-- Node0x557d8d6cf528 -->
<g id="node18" class="node">
<title>Node0x557d8d6cf528</title>
<polygon fill="#7fb2ff" stroke="black" points="2710,-1684.1 2413,-1684.1 2413,-1648.1 2710,-1648.1 2710,-1684.1"/>
<text text-anchor="middle" x="2561.5" y="-1662.4" font-family="Times,serif" font-size="14.00">{lib/libLLVMMC.a(MCStreamer.cpp.o)}</text>
</g>
<!-- Node0x557d8d6c1018&#45;&gt;Node0x557d8d6cf528 -->
<g id="edge90" class="edge">
<title>Node0x557d8d6c1018&#45;&gt;Node0x557d8d6cf528</title>
<path fill="none" stroke="#7fb2ff" d="M1972.05,-1493.13C1979.15,-1494.74 1986.16,-1496.4 1993,-1498.1 2009.24,-1502.13 2012.76,-1505.07 2029,-1509.1 2180.1,-1546.56 2224.32,-1528.96 2373,-1575.1 2429.46,-1592.62 2491.74,-1622.01 2528.42,-1642.9"/>
<polygon fill="#7fb2ff" stroke="#7fb2ff" points="2526.78,-1646 2537.18,-1648.02 2530.31,-1639.95 2526.78,-1646"/>
</g>
<!-- Node0x557d8d6c7be8 -->
<g id="node31" class="node">
<title>Node0x557d8d6c7be8</title>
<polygon fill="#7fb2ff" stroke="black" points="2373,-1629.1 2029,-1629.1 2029,-1593.1 2373,-1593.1 2373,-1629.1"/>
<text text-anchor="middle" x="2201" y="-1607.4" font-family="Times,serif" font-size="14.00">{lib/libLLVMMC.a(MCObjectStreamer.cpp.o)}</text>
</g>
<!-- Node0x557d8d6c1018&#45;&gt;Node0x557d8d6c7be8 -->
<g id="edge89" class="edge">
<title>Node0x557d8d6c1018&#45;&gt;Node0x557d8d6c7be8</title>
<path fill="none" stroke="#7fb2ff" d="M1976.25,-1487.45C1982.12,-1490.57 1987.74,-1494.11 1993,-1498.1 2021.51,-1519.71 2000.43,-1548.56 2029,-1570.1 2040.06,-1578.44 2052.65,-1584.82 2065.86,-1589.72"/>
<polygon fill="#7fb2ff" stroke="#7fb2ff" points="2064.98,-1593.12 2075.58,-1593.04 2067.24,-1586.5 2064.98,-1593.12"/>
</g>
<!-- Node0x557d8d6bee08&#45;&gt;Node0x557d8d6bf5d8 -->
<g id="edge130" class="edge">
<title>Node0x557d8d6bee08&#45;&gt;Node0x557d8d6bf5d8</title>
<path fill="none" stroke="#7fb2ff" d="M1688.65,-1871.7C1678.52,-1869.2 1668.54,-1866.34 1659,-1863.1 1578.57,-1835.74 1492.86,-1782.64 1450.47,-1751.27"/>
<polygon fill="#7fb2ff" stroke="#7fb2ff" points="1452.42,-1748.36 1442.34,-1745.12 1448.19,-1753.94 1452.42,-1748.36"/>
</g>
<!-- Node0x557d8d6bee08&#45;&gt;Node0x557d8d6c93a8 -->
<g id="edge131" class="edge">
<title>Node0x557d8d6bee08&#45;&gt;Node0x557d8d6c93a8</title>
<path fill="none" stroke="#7fb2ff" d="M1688.94,-1880.94C1669.34,-1874.24 1652.1,-1863.05 1641,-1845.1 1618.34,-1808.42 1618.34,-1493.77 1641,-1457.1 1651.09,-1440.78 1666.26,-1430.04 1683.66,-1423.19"/>
<polygon fill="#7fb2ff" stroke="#7fb2ff" points="1685.23,-1426.35 1693.54,-1419.78 1682.94,-1419.74 1685.23,-1426.35"/>
</g>
<!-- Node0x557d8d6bee08&#45;&gt;Node0x557d8d6ccc38 -->
<g id="edge134" class="edge">
<title>Node0x557d8d6bee08&#45;&gt;Node0x557d8d6ccc38</title>
<path fill="none" stroke="#7fb2ff" d="M1691.61,-1863.05C1680.48,-1860.45 1669.48,-1857.48 1659,-1854.1 1650.49,-1851.35 1645.7,-1852.71 1641,-1845.1 1632.59,-1831.49 1632.59,-1822.71 1641,-1809.1 1649.33,-1795.63 1661.12,-1785.96 1674.76,-1779.15"/>
<polygon fill="#7fb2ff" stroke="#7fb2ff" points="1676.25,-1782.32 1683.98,-1775.07 1673.42,-1775.91 1676.25,-1782.32"/>
</g>
<!-- Node0x557d8d6bee08&#45;&gt;Node0x557d8d6cf528 -->
<g id="edge135" class="edge">
<title>Node0x557d8d6bee08&#45;&gt;Node0x557d8d6cf528</title>
<path fill="none" stroke="#7fb2ff" d="M1915.86,-1899.22C1943.89,-1908.92 1972.79,-1923.69 1993,-1946.1 2033.15,-1990.62 1981.28,-2039.8 2029,-2076.1 2150.68,-2168.66 2244.36,-2158.72 2373,-2076.1 2510.12,-1988.03 2548.22,-1772.01 2557.67,-1694.42"/>
<polygon fill="#7fb2ff" stroke="#7fb2ff" points="2561.16,-1694.76 2558.82,-1684.42 2554.2,-1693.96 2561.16,-1694.76"/>
</g>
<!-- Node0x557d8d6cbd38 -->
<g id="node19" class="node">
<title>Node0x557d8d6cbd38</title>
<polygon fill="none" stroke="black" points="3070,-2891.1 2750,-2891.1 2750,-2855.1 3070,-2855.1 3070,-2891.1"/>
<text text-anchor="middle" x="2910" y="-2869.4" font-family="Times,serif" font-size="14.00">{lib/libLLVMMC.a(MCRegisterInfo.cpp.o)}</text>
</g>
<!-- Node0x557d8d6bee08&#45;&gt;Node0x557d8d6cbd38 -->
<g id="edge133" class="edge">
<title>Node0x557d8d6bee08&#45;&gt;Node0x557d8d6cbd38</title>
<path fill="none" stroke="black" d="M1918.93,-1899.18C1946.34,-1908.84 1974.08,-1923.59 1993,-1946.1 2044.66,-2007.54 1984.07,-2056.57 2029,-2123.1 2131.53,-2274.89 2230.36,-2235.17 2373,-2350.1 2587.36,-2522.81 2813.78,-2767.58 2885.69,-2847.08"/>
<polygon fill="black" stroke="black" points="2883.24,-2849.6 2892.54,-2854.68 2888.44,-2844.91 2883.24,-2849.6"/>
</g>
<!-- Node0x557d8d6bee08&#45;&gt;Node0x557d8d6c7be8 -->
<g id="edge132" class="edge">
<title>Node0x557d8d6bee08&#45;&gt;Node0x557d8d6c7be8</title>
<path fill="none" stroke="#7fb2ff" d="M1963.4,-1863.4C1974.16,-1858.79 1984.24,-1852.82 1993,-1845.1 2035.41,-1807.71 1996.11,-1769.08 2029,-1723.1 2056.7,-1684.38 2100.78,-1653.62 2137.25,-1634"/>
<polygon fill="#7fb2ff" stroke="#7fb2ff" points="2139.1,-1636.99 2146.35,-1629.26 2135.86,-1630.78 2139.1,-1636.99"/>
</g>
<!-- Node0x557d8d6b8788 -->
<g id="node38" class="node">
<title>Node0x557d8d6b8788</title>
<polygon fill="none" stroke="black" points="2371.5,-2395.1 2030.5,-2395.1 2030.5,-2359.1 2371.5,-2359.1 2371.5,-2395.1"/>
<text text-anchor="middle" x="2201" y="-2373.4" font-family="Times,serif" font-size="14.00">{lib/libLLVMMC.a(StringTableBuilder.cpp.o)}</text>
</g>
<!-- Node0x557d8d6bee08&#45;&gt;Node0x557d8d6b8788 -->
<g id="edge136" class="edge">
<title>Node0x557d8d6bee08&#45;&gt;Node0x557d8d6b8788</title>
<path fill="none" stroke="black" d="M1922.64,-1899.22C1949.24,-1908.85 1975.58,-1923.58 1993,-1946.1 2075.18,-2052.31 1962.48,-2129.44 2029,-2246.1 2057.1,-2295.37 2111.94,-2332.25 2151.96,-2354.12"/>
<polygon fill="black" stroke="black" points="2150.55,-2357.33 2161.02,-2358.95 2153.85,-2351.16 2150.55,-2357.33"/>
</g>
<!-- Node0x557d8d6c93a8&#45;&gt;Node0x557d8d6bf5d8 -->
<g id="edge13" class="edge">
<title>Node0x557d8d6c93a8&#45;&gt;Node0x557d8d6bf5d8</title>
<path fill="none" stroke="#7fb2ff" d="M1693.76,-1434.73C1680.78,-1439.89 1668.81,-1447.09 1659,-1457.1 1579.78,-1537.87 1703.29,-1629.39 1623,-1709.1 1593.79,-1738.09 1549.25,-1746.12 1509.65,-1745.47"/>
<polygon fill="#7fb2ff" stroke="#7fb2ff" points="1509.55,-1741.97 1499.44,-1745.11 1509.31,-1748.96 1509.55,-1741.97"/>
</g>
<!-- Node0x557d8d6c93a8&#45;&gt;Node0x557d8d6cb3d8 -->
<g id="edge14" class="edge">
<title>Node0x557d8d6c93a8&#45;&gt;Node0x557d8d6cb3d8</title>
<path fill="none" stroke="#7fb2ff" d="M1693.79,-1422.58C1674.65,-1416.3 1657.8,-1405.57 1647,-1388.1 1637.19,-1372.22 1637.19,-1361.98 1647,-1346.1 1652.19,-1337.71 1658.77,-1330.87 1666.33,-1325.34"/>
<polygon fill="#7fb2ff" stroke="#7fb2ff" points="1668.37,-1328.18 1674.89,-1319.83 1664.59,-1322.3 1668.37,-1328.18"/>
</g>
<!-- Node0x557d8d6c93a8&#45;&gt;Node0x557d8d6c3958 -->
<g id="edge16" class="edge">
<title>Node0x557d8d6c93a8&#45;&gt;Node0x557d8d6c3958</title>
<path fill="none" stroke="#7fb2ff" d="M1826,-1402.89C1826,-1400.41 1826,-1397.92 1826,-1395.44"/>
<polygon fill="#7fb2ff" stroke="#7fb2ff" points="1829.5,-1395.24 1826,-1385.24 1822.5,-1395.24 1829.5,-1395.24"/>
</g>
<!-- Node0x557d8d6c0b68 -->
<g id="node13" class="node">
<title>Node0x557d8d6c0b68</title>
<polygon fill="#7fb2ff" stroke="black" points="2714,-1388.1 2409,-1388.1 2409,-1352.1 2714,-1352.1 2714,-1388.1"/>
<text text-anchor="middle" x="2561.5" y="-1366.4" font-family="Times,serif" font-size="14.00">{lib/libLLVMMC.a(MCAssembler.cpp.o)}</text>
</g>
<!-- Node0x557d8d6c93a8&#45;&gt;Node0x557d8d6c0b68 -->
<g id="edge12" class="edge">
<title>Node0x557d8d6c93a8&#45;&gt;Node0x557d8d6c0b68</title>
<path fill="none" stroke="#7fb2ff" d="M1927.13,-1403.09C1959.61,-1399.71 1995.82,-1396.61 2029,-1394.1 2153.03,-1384.72 2293.48,-1376.09 2398.85,-1371.31"/>
<polygon fill="#7fb2ff" stroke="#7fb2ff" points="2399.1,-1374.8 2408.93,-1370.86 2398.79,-1367.81 2399.1,-1374.8"/>
</g>
<!-- Node0x557d8d6cc2d8 -->
<g id="node14" class="node">
<title>Node0x557d8d6cc2d8</title>
<polygon fill="#7fb2ff" stroke="black" points="2362,-1481.1 2040,-1481.1 2040,-1445.1 2362,-1445.1 2362,-1481.1"/>
<text text-anchor="middle" x="2201" y="-1459.4" font-family="Times,serif" font-size="14.00">{lib/libLLVMMC.a(MCObjectWriter.cpp.o)}</text>
</g>
<!-- Node0x557d8d6c93a8&#45;&gt;Node0x557d8d6cc2d8 -->
<g id="edge15" class="edge">
<title>Node0x557d8d6c93a8&#45;&gt;Node0x557d8d6cc2d8</title>
<path fill="none" stroke="#7fb2ff" d="M1958.24,-1429.4C1999.45,-1433.62 2044.6,-1438.77 2084.62,-1443.81"/>
<polygon fill="#7fb2ff" stroke="#7fb2ff" points="2084.32,-1447.3 2094.68,-1445.09 2085.2,-1440.36 2084.32,-1447.3"/>
</g>
<!-- Node0x557d8d6cb3d8&#45;&gt;Node0x557d8d6bf5d8 -->
<g id="edge41" class="edge">
<title>Node0x557d8d6cb3d8&#45;&gt;Node0x557d8d6bf5d8</title>
<path fill="none" stroke="#7fb2ff" d="M1682.73,-1331.25C1673.96,-1335.91 1665.9,-1341.76 1659,-1349.1 1603.93,-1407.67 1678.85,-1651.26 1623,-1709.1 1592.72,-1740.45 1544.59,-1747.67 1503.2,-1745.78"/>
<polygon fill="#7fb2ff" stroke="#7fb2ff" points="1503.31,-1742.28 1493.11,-1745.13 1502.86,-1749.26 1503.31,-1742.28"/>
</g>
<!-- Node0x557d8d6cb3d8&#45;&gt;Node0x557d8d6c93a8 -->
<g id="edge42" class="edge">
<title>Node0x557d8d6cb3d8&#45;&gt;Node0x557d8d6c93a8</title>
<path fill="none" stroke="#7fb2ff" d="M1674.86,-1318.59C1658.66,-1325.83 1644.61,-1336.55 1635,-1352.1 1615.65,-1383.4 1643.84,-1400.65 1684.01,-1410.1"/>
<polygon fill="#7fb2ff" stroke="#7fb2ff" points="1683.37,-1413.54 1693.88,-1412.23 1684.84,-1406.7 1683.37,-1413.54"/>
</g>
<!-- Node0x557d8d6cb3d8&#45;&gt;Node0x557d8d6c0b68 -->
<g id="edge40" class="edge">
<title>Node0x557d8d6cb3d8&#45;&gt;Node0x557d8d6c0b68</title>
<path fill="none" stroke="#7fb2ff" d="M1876,-1295.09C1972.56,-1267.79 2193.64,-1224.65 2373,-1267.1 2434.74,-1281.71 2499.29,-1319.97 2534.23,-1345.76"/>
<polygon fill="#7fb2ff" stroke="#7fb2ff" points="2532.38,-1348.75 2542.46,-1352.03 2536.62,-1343.19 2532.38,-1348.75"/>
</g>
<!-- Node0x557d8d6cc9b8&#45;&gt;Node0x557d8d6c93a8 -->
<g id="edge163" class="edge">
<title>Node0x557d8d6cc9b8&#45;&gt;Node0x557d8d6c93a8</title>
<path fill="none" stroke="#7fb2ff" d="M1663.96,-1626.09C1654.91,-1619.77 1647.05,-1611.89 1641,-1602.1 1624.06,-1574.69 1624.06,-1484.51 1641,-1457.1 1651.09,-1440.78 1666.26,-1430.04 1683.66,-1423.19"/>
<polygon fill="#7fb2ff" stroke="#7fb2ff" points="1685.23,-1426.35 1693.54,-1419.78 1682.94,-1419.74 1685.23,-1426.35"/>
</g>
<!-- Node0x557d8d6cc9b8&#45;&gt;Node0x557d8d6cb3d8 -->
<g id="edge164" class="edge">
<title>Node0x557d8d6cc9b8&#45;&gt;Node0x557d8d6cb3d8</title>
<path fill="none" stroke="#7fb2ff" d="M1663.96,-1626.09C1654.91,-1619.77 1647.05,-1611.89 1641,-1602.1 1626.22,-1578.18 1626.22,-1373.01 1641,-1349.1 1647.45,-1338.66 1655.99,-1330.5 1665.85,-1324.19"/>
<polygon fill="#7fb2ff" stroke="#7fb2ff" points="1667.87,-1327.07 1674.85,-1319.1 1664.42,-1320.98 1667.87,-1327.07"/>
</g>
<!-- Node0x557d8d6cc9b8&#45;&gt;Node0x557d8d6cf528 -->
<g id="edge167" class="edge">
<title>Node0x557d8d6cc9b8&#45;&gt;Node0x557d8d6cf528</title>
<path fill="none" stroke="#7fb2ff" d="M1988.42,-1642.45C2111.61,-1644.91 2280.39,-1650.22 2402.67,-1655.49"/>
<polygon fill="#7fb2ff" stroke="#7fb2ff" points="2402.73,-1658.99 2412.87,-1655.93 2403.03,-1652 2402.73,-1658.99"/>
</g>
<!-- Node0x557d8d6cc9b8&#45;&gt;Node0x557d8d6c7be8 -->
<g id="edge166" class="edge">
<title>Node0x557d8d6cc9b8&#45;&gt;Node0x557d8d6c7be8</title>
<path fill="none" stroke="#7fb2ff" d="M1961.13,-1625.08C1979.81,-1623.3 1999.25,-1621.56 2018.61,-1619.91"/>
<polygon fill="#7fb2ff" stroke="#7fb2ff" points="2019.05,-1623.39 2028.73,-1619.06 2018.47,-1616.41 2019.05,-1623.39"/>
</g>
<!-- Node0x557d8d6c82c8 -->
<g id="node50" class="node">
<title>Node0x557d8d6c82c8</title>
<polygon fill="#7fb2ff" stroke="black" points="2367,-1777.1 2035,-1777.1 2035,-1741.1 2367,-1741.1 2367,-1777.1"/>
<text text-anchor="middle" x="2201" y="-1755.4" font-family="Times,serif" font-size="14.00">{lib/libLLVMMC.a(MCObjectFileInfo.cpp.o)}</text>
</g>
<!-- Node0x557d8d6cc9b8&#45;&gt;Node0x557d8d6c82c8 -->
<g id="edge165" class="edge">
<title>Node0x557d8d6cc9b8&#45;&gt;Node0x557d8d6c82c8</title>
<path fill="none" stroke="#7fb2ff" d="M1885.28,-1661.22C1952.11,-1682.01 2061.51,-1716.03 2132.12,-1737.99"/>
<polygon fill="#7fb2ff" stroke="#7fb2ff" points="2131.23,-1741.38 2141.82,-1741 2133.31,-1734.69 2131.23,-1741.38"/>
</g>
<!-- Node0x557d8d6ccc38&#45;&gt;Node0x557d8d6bf5d8 -->
<g id="edge159" class="edge">
<title>Node0x557d8d6ccc38&#45;&gt;Node0x557d8d6bf5d8</title>
<path fill="none" stroke="#7fb2ff" d="M1683.84,-1763.4C1636.23,-1758.39 1583.69,-1752.27 1538.36,-1746.42"/>
<polygon fill="#7fb2ff" stroke="#7fb2ff" points="1538.57,-1742.92 1528.2,-1745.1 1537.67,-1749.86 1538.57,-1742.92"/>
</g>
<!-- Node0x557d8d6ccc38&#45;&gt;Node0x557d8d6c93a8 -->
<g id="edge160" class="edge">
<title>Node0x557d8d6ccc38&#45;&gt;Node0x557d8d6c93a8</title>
<path fill="none" stroke="#7fb2ff" d="M1683.63,-1766.77C1666.27,-1759.5 1651.12,-1748.47 1641,-1732.1 1624.94,-1706.11 1624.94,-1483.09 1641,-1457.1 1651.09,-1440.78 1666.26,-1430.04 1683.66,-1423.19"/>
<polygon fill="#7fb2ff" stroke="#7fb2ff" points="1685.23,-1426.35 1693.54,-1419.78 1682.94,-1419.74 1685.23,-1426.35"/>
</g>
<!-- Node0x557d8d6ccc38&#45;&gt;Node0x557d8d6cb3d8 -->
<g id="edge161" class="edge">
<title>Node0x557d8d6ccc38&#45;&gt;Node0x557d8d6cb3d8</title>
<path fill="none" stroke="#7fb2ff" d="M1683.63,-1766.77C1666.27,-1759.5 1651.12,-1748.47 1641,-1732.1 1618.63,-1695.9 1618.63,-1385.3 1641,-1349.1 1647.45,-1338.66 1655.99,-1330.5 1665.85,-1324.19"/>
<polygon fill="#7fb2ff" stroke="#7fb2ff" points="1667.87,-1327.07 1674.85,-1319.1 1664.42,-1320.98 1667.87,-1327.07"/>
</g>
<!-- Node0x557d8d6ccc38&#45;&gt;Node0x557d8d6c3958 -->
<g id="edge162" class="edge">
<title>Node0x557d8d6ccc38&#45;&gt;Node0x557d8d6c3958</title>
<path fill="none" stroke="#7fb2ff" d="M1683.63,-1766.77C1666.27,-1759.5 1651.12,-1748.47 1641,-1732.1 1621.78,-1701 1621.78,-1434.19 1641,-1403.1 1649.33,-1389.63 1661.12,-1379.96 1674.76,-1373.15"/>
<polygon fill="#7fb2ff" stroke="#7fb2ff" points="1676.25,-1376.32 1683.98,-1369.07 1673.42,-1369.91 1676.25,-1376.32"/>
</g>
<!-- Node0x557d8d6ce1c8&#45;&gt;Node0x557d8d6ccc38 -->
<g id="edge129" class="edge">
<title>Node0x557d8d6ce1c8&#45;&gt;Node0x557d8d6ccc38</title>
<path fill="none" stroke="#7fb2ff" d="M1662.42,-1954.99C1654.02,-1948.87 1646.71,-1941.33 1641,-1932.1 1626.63,-1908.85 1626.63,-1832.35 1641,-1809.1 1649.33,-1795.63 1661.12,-1785.96 1674.76,-1779.15"/>
<polygon fill="#7fb2ff" stroke="#7fb2ff" points="1676.25,-1782.32 1683.98,-1775.07 1673.42,-1775.91 1676.25,-1782.32"/>
</g>
<!-- Node0x557d8d6d0248&#45;&gt;Node0x557d8d6ccc38 -->
<g id="edge168" class="edge">
<title>Node0x557d8d6d0248&#45;&gt;Node0x557d8d6ccc38</title>
<path fill="none" stroke="#7fb2ff" d="M1826,-1808.89C1826,-1806.41 1826,-1803.92 1826,-1801.44"/>
<polygon fill="#7fb2ff" stroke="#7fb2ff" points="1829.5,-1801.24 1826,-1791.24 1822.5,-1801.24 1829.5,-1801.24"/>
</g>
<!-- Node0x557d8d6c3958&#45;&gt;Node0x557d8d6cb3d8 -->
<g id="edge26" class="edge">
<title>Node0x557d8d6c3958&#45;&gt;Node0x557d8d6cb3d8</title>
<path fill="none" stroke="#7fb2ff" d="M1826,-1348.89C1826,-1346.41 1826,-1343.92 1826,-1341.44"/>
<polygon fill="#7fb2ff" stroke="#7fb2ff" points="1829.5,-1341.24 1826,-1331.24 1822.5,-1341.24 1829.5,-1341.24"/>
</g>
<!-- Node0x557d8d6c4858&#45;&gt;Node0x557d8d6c93a8 -->
<g id="edge158" class="edge">
<title>Node0x557d8d6c4858&#45;&gt;Node0x557d8d6c93a8</title>
<path fill="none" stroke="#7fb2ff" d="M1670.27,-2018.66C1658.53,-2012.03 1648.4,-2003.07 1641,-1991.1 1625.4,-1965.86 1625.4,-1482.33 1641,-1457.1 1651.09,-1440.78 1666.26,-1430.04 1683.66,-1423.19"/>
<polygon fill="#7fb2ff" stroke="#7fb2ff" points="1685.23,-1426.35 1693.54,-1419.78 1682.94,-1419.74 1685.23,-1426.35"/>
</g>
<!-- Node0x557d8d6c0b68&#45;&gt;Node0x557d8d6bf5d8 -->
<g id="edge35" class="edge">
<title>Node0x557d8d6c0b68&#45;&gt;Node0x557d8d6bf5d8</title>
<path fill="none" stroke="#7fb2ff" d="M2539.86,-1352.01C2507.17,-1324.69 2440.25,-1274.08 2373,-1255.1 2067.31,-1168.82 1883.95,-1061.85 1659,-1286.1 1593.6,-1351.29 1686.72,-1633.26 1623,-1700.1 1610.03,-1713.7 1593.7,-1722.79 1576,-1728.64"/>
<polygon fill="#7fb2ff" stroke="#7fb2ff" points="1574.64,-1725.39 1566.04,-1731.57 1576.62,-1732.11 1574.64,-1725.39"/>
</g>
<!-- Node0x557d8d6c0b68&#45;&gt;Node0x557d8d6c1018 -->
<g id="edge34" class="edge">
<title>Node0x557d8d6c0b68&#45;&gt;Node0x557d8d6c1018</title>
<path fill="none" stroke="#7fb2ff" d="M2540.81,-1388.26C2508.62,-1416.58 2441.44,-1470.07 2373,-1490.1 2219.88,-1534.9 2032.19,-1514.33 1921.51,-1494.97"/>
<polygon fill="#7fb2ff" stroke="#7fb2ff" points="1921.83,-1491.47 1911.37,-1493.16 1920.6,-1498.36 1921.83,-1491.47"/>
</g>
<!-- Node0x557d8d6c0b68&#45;&gt;Node0x557d8d6bee08 -->
<g id="edge36" class="edge">
<title>Node0x557d8d6c0b68&#45;&gt;Node0x557d8d6bee08</title>
<path fill="none" stroke="#7fb2ff" d="M2548.01,-1388.14C2519.42,-1430.22 2448.61,-1538.91 2409,-1639.1 2384.27,-1701.65 2423.24,-1741.37 2373,-1786.1 2315.46,-1837.33 2100.95,-1801.55 2029,-1829.1 2010.81,-1836.06 2011.06,-1846.8 1993,-1854.1 1986.63,-1856.67 1980.04,-1859 1973.31,-1861.11"/>
<polygon fill="#7fb2ff" stroke="#7fb2ff" points="1971.96,-1857.85 1963.36,-1864.04 1973.94,-1864.57 1971.96,-1857.85"/>
</g>
<!-- Node0x557d8d6c0b68&#45;&gt;Node0x557d8d6c93a8 -->
<g id="edge37" class="edge">
<title>Node0x557d8d6c0b68&#45;&gt;Node0x557d8d6c93a8</title>
<path fill="none" stroke="#7fb2ff" d="M2408.93,-1385.99C2302.56,-1393.53 2157.03,-1402.42 2029,-1412.1 2009.31,-1413.59 1988.56,-1415.29 1968.15,-1416.94"/>
<polygon fill="#7fb2ff" stroke="#7fb2ff" points="1967.85,-1413.45 1958.16,-1417.74 1968.41,-1420.43 1967.85,-1413.45"/>
</g>
<!-- Node0x557d8d6c0b68&#45;&gt;Node0x557d8d6cb3d8 -->
<g id="edge38" class="edge">
<title>Node0x557d8d6c0b68&#45;&gt;Node0x557d8d6cb3d8</title>
<path fill="none" stroke="#7fb2ff" d="M2523.72,-1352.03C2487.29,-1331.05 2428.99,-1298.35 2373,-1285.1 2225.48,-1250.19 2049.74,-1273.17 1938.27,-1293.26"/>
<polygon fill="#7fb2ff" stroke="#7fb2ff" points="1937.57,-1289.83 1928.36,-1295.07 1938.82,-1296.72 1937.57,-1289.83"/>
</g>
<!-- Node0x557d8d6c0b68&#45;&gt;Node0x557d8d6c3958 -->
<g id="edge39" class="edge">
<title>Node0x557d8d6c0b68&#45;&gt;Node0x557d8d6c3958</title>
<path fill="none" stroke="#7fb2ff" d="M2517.88,-1351.96C2480.48,-1337.09 2424.22,-1317.22 2373,-1309.1 2222,-1285.15 2172.33,-1255.89 2029,-1309.1 2009.21,-1316.45 2012.14,-1331.18 1993,-1340.1 1988.04,-1342.41 1982.91,-1344.53 1977.67,-1346.47"/>
<polygon fill="#7fb2ff" stroke="#7fb2ff" points="1976.44,-1343.19 1968.13,-1349.77 1978.73,-1349.81 1976.44,-1343.19"/>
</g>
<!-- Node0x557d8d6cc2d8&#45;&gt;Node0x557d8d6c93a8 -->
<g id="edge157" class="edge">
<title>Node0x557d8d6cc2d8&#45;&gt;Node0x557d8d6c93a8</title>
<path fill="none" stroke="#7fb2ff" d="M2039.82,-1451.75C2007.17,-1448.22 1973.43,-1444.29 1942.69,-1440.42"/>
<polygon fill="#7fb2ff" stroke="#7fb2ff" points="1942.75,-1436.9 1932.39,-1439.11 1941.87,-1443.85 1942.75,-1436.9"/>
</g>
<!-- Node0x557d8d6c38b8 -->
<g id="node15" class="node">
<title>Node0x557d8d6c38b8</title>
<polygon fill="none" stroke="black" points="369,-2964.1 38,-2964.1 38,-2928.1 369,-2928.1 369,-2964.1"/>
<text text-anchor="middle" x="203.5" y="-2942.4" font-family="Times,serif" font-size="14.00">{lib/libLLVMMC.a(MCSubtargetInfo.cpp.o)}</text>
</g>
<!-- Node0x557d8d6cd8b8 -->
<g id="node16" class="node">
<title>Node0x557d8d6cd8b8</title>
<polygon fill="none" stroke="black" points="761.5,-2991.1 465.5,-2991.1 465.5,-2955.1 761.5,-2955.1 761.5,-2991.1"/>
<text text-anchor="middle" x="613.5" y="-2969.4" font-family="Times,serif" font-size="14.00">{lib/libLLVMMC.a(MCSchedule.cpp.o)}</text>
</g>
<!-- Node0x557d8d6c38b8&#45;&gt;Node0x557d8d6cd8b8 -->
<g id="edge17" class="edge">
<title>Node0x557d8d6c38b8&#45;&gt;Node0x557d8d6cd8b8</title>
<path fill="none" stroke="black" d="M369.27,-2957C397.54,-2958.87 426.85,-2960.81 454.92,-2962.67"/>
<polygon fill="black" stroke="black" points="454.99,-2966.18 465.2,-2963.35 455.45,-2959.2 454.99,-2966.18"/>
</g>
<!-- Node0x557d8d6b84b8 -->
<g id="node17" class="node">
<title>Node0x557d8d6b84b8</title>
<polygon fill="none" stroke="black" points="780.5,-2937.1 446.5,-2937.1 446.5,-2901.1 780.5,-2901.1 780.5,-2937.1"/>
<text text-anchor="middle" x="613.5" y="-2915.4" font-family="Times,serif" font-size="14.00">{lib/libLLVMMC.a(SubtargetFeature.cpp.o)}</text>
</g>
<!-- Node0x557d8d6c38b8&#45;&gt;Node0x557d8d6b84b8 -->
<g id="edge18" class="edge">
<title>Node0x557d8d6c38b8&#45;&gt;Node0x557d8d6b84b8</title>
<path fill="none" stroke="black" d="M369.27,-2935.19C391.33,-2933.73 414.02,-2932.23 436.26,-2930.76"/>
<polygon fill="black" stroke="black" points="436.7,-2934.24 446.45,-2930.09 436.24,-2927.25 436.7,-2934.24"/>
</g>
<!-- Node0x557d8d6cf528&#45;&gt;Node0x557d8d6bf5d8 -->
<g id="edge20" class="edge">
<title>Node0x557d8d6cf528&#45;&gt;Node0x557d8d6bf5d8</title>
<path fill="none" stroke="#7fb2ff" d="M2541.65,-1684.29C2509.61,-1714.24 2441.32,-1773.9 2373,-1807.1 2215.82,-1883.47 2166.28,-1885.46 1993,-1908.1 1919.4,-1917.71 1718.5,-1952.47 1659,-1908.1 1614.02,-1874.55 1662.62,-1826.83 1623,-1787.1 1605.72,-1769.76 1583.63,-1757.4 1560.49,-1748.59"/>
<polygon fill="#7fb2ff" stroke="#7fb2ff" points="1561.47,-1745.23 1550.87,-1745.15 1559.11,-1751.82 1561.47,-1745.23"/>
</g>
<!-- Node0x557d8d6cf528&#45;&gt;Node0x557d8d6c1018 -->
<g id="edge19" class="edge">
<title>Node0x557d8d6cf528&#45;&gt;Node0x557d8d6c1018</title>
<path fill="none" stroke="#7fb2ff" d="M2510.34,-1647.98C2473.23,-1631.48 2421.01,-1608 2373,-1593.1 2224.32,-1546.96 2180.1,-1564.56 2029,-1527.1 2012.76,-1523.07 2009.24,-1520.13 1993,-1516.1 1961.78,-1508.34 1926.86,-1501.36 1897.14,-1495.21"/>
<polygon fill="#7fb2ff" stroke="#7fb2ff" points="1897.77,-1491.76 1887.27,-1493.15 1896.34,-1498.62 1897.77,-1491.76"/>
</g>
<!-- Node0x557d8d6cf528&#45;&gt;Node0x557d8d6c93a8 -->
<g id="edge21" class="edge">
<title>Node0x557d8d6cf528&#45;&gt;Node0x557d8d6c93a8</title>
<path fill="none" stroke="#7fb2ff" d="M2552.42,-1647.9C2530.99,-1602.16 2467.77,-1482.71 2373,-1436.1 2304.46,-1402.38 2105.98,-1405.16 1968.23,-1411.85"/>
<polygon fill="#7fb2ff" stroke="#7fb2ff" points="1967.82,-1408.37 1958,-1412.36 1968.16,-1415.36 1967.82,-1408.37"/>
</g>
<!-- Node0x557d8d6cf528&#45;&gt;Node0x557d8d6cc9b8 -->
<g id="edge22" class="edge">
<title>Node0x557d8d6cf528&#45;&gt;Node0x557d8d6cc9b8</title>
<path fill="none" stroke="#7fb2ff" d="M2412.87,-1667.01C2293.16,-1664.77 2124.25,-1659.57 1998.54,-1654.29"/>
<polygon fill="#7fb2ff" stroke="#7fb2ff" points="1998.56,-1650.79 1988.42,-1653.86 1998.27,-1657.78 1998.56,-1650.79"/>
</g>
<!-- Node0x557d8d6cf528&#45;&gt;Node0x557d8d6ccc38 -->
<g id="edge24" class="edge">
<title>Node0x557d8d6cf528&#45;&gt;Node0x557d8d6ccc38</title>
<path fill="none" stroke="#7fb2ff" d="M2540.81,-1684.26C2508.62,-1712.58 2441.44,-1766.07 2373,-1786.1 2301.81,-1806.93 2113.69,-1797.44 1978.16,-1786.91"/>
<polygon fill="#7fb2ff" stroke="#7fb2ff" points="1978.33,-1783.42 1968.09,-1786.12 1977.78,-1790.39 1978.33,-1783.42"/>
</g>
<!-- Node0x557d8d6cf528&#45;&gt;Node0x557d8d6c3958 -->
<g id="edge25" class="edge">
<title>Node0x557d8d6cf528&#45;&gt;Node0x557d8d6c3958</title>
<path fill="none" stroke="#7fb2ff" d="M2553.91,-1647.89C2534.88,-1598.31 2474.61,-1460.76 2373,-1404.1 2239.25,-1329.52 2057.49,-1334.18 1941.19,-1347.87"/>
<polygon fill="#7fb2ff" stroke="#7fb2ff" points="1940.69,-1344.41 1931.19,-1349.09 1941.54,-1351.35 1940.69,-1344.41"/>
</g>
<!-- Node0x557d8d6cf528&#45;&gt;Node0x557d8d6cbd38 -->
<g id="edge23" class="edge">
<title>Node0x557d8d6cf528&#45;&gt;Node0x557d8d6cbd38</title>
<path fill="none" stroke="black" d="M2567.8,-1684.57C2607.13,-1821.56 2853.15,-2678.54 2900.96,-2845.08"/>
<polygon fill="black" stroke="black" points="2897.69,-2846.39 2903.81,-2855.03 2904.42,-2844.45 2897.69,-2846.39"/>
</g>
<!-- Node0x557d8d6c7878 -->
<g id="node20" class="node">
<title>Node0x557d8d6c7878</title>
<polygon fill="none" stroke="black" points="353.5,-3018.1 53.5,-3018.1 53.5,-2982.1 353.5,-2982.1 353.5,-3018.1"/>
<text text-anchor="middle" x="203.5" y="-2996.4" font-family="Times,serif" font-size="14.00">{lib/libLLVMMC.a(MCInstrDesc.cpp.o)}</text>
</g>
<!-- Node0x557d8d6ca578 -->
<g id="node21" class="node">
<title>Node0x557d8d6ca578</title>
<polygon fill="none" stroke="black" points="1157,-281.1 849,-281.1 849,-245.1 1157,-245.1 1157,-281.1"/>
<text text-anchor="middle" x="1003" y="-259.4" font-family="Times,serif" font-size="14.00">{lib/libLLVMMC.a(MCInstPrinter.cpp.o)}</text>
</g>
<!-- Node0x557d8d6be138 -->
<g id="node22" class="node">
<title>Node0x557d8d6be138</title>
<polygon fill="none" stroke="black" points="1148,-1507.1 858,-1507.1 858,-1471.1 1148,-1471.1 1148,-1507.1"/>
<text text-anchor="middle" x="1003" y="-1485.4" font-family="Times,serif" font-size="14.00">{lib/libLLVMMC.a(MCAsmInfo.cpp.o)}</text>
</g>
<!-- Node0x557d8d6be138&#45;&gt;Node0x557d8d6bf5d8 -->
<g id="edge27" class="edge">
<title>Node0x557d8d6be138&#45;&gt;Node0x557d8d6bf5d8</title>
<path fill="none" stroke="black" d="M1023.35,-1507.16C1056.84,-1538.52 1127.63,-1605.24 1186,-1663.1 1202.29,-1679.25 1201.51,-1689.77 1222,-1700.1 1236.6,-1707.46 1252.53,-1713.03 1268.82,-1717.22"/>
<polygon fill="black" stroke="black" points="1268.45,-1720.73 1278.99,-1719.65 1270.08,-1713.92 1268.45,-1720.73"/>
</g>
<!-- Node0x557d8d6be138&#45;&gt;Node0x557d8d6c93a8 -->
<g id="edge28" class="edge">
<title>Node0x557d8d6be138&#45;&gt;Node0x557d8d6c93a8</title>
<path fill="none" stroke="black" d="M1116.77,-1470.96C1142.95,-1461.61 1168.3,-1447.48 1186,-1426.1 1256.46,-1340.98 1138.4,-1252.35 1222,-1180.1 1356.84,-1063.56 1486.93,-1065 1623,-1180.1 1696.64,-1242.38 1590.62,-1326.08 1659,-1394.1 1666.53,-1401.59 1675.27,-1407.49 1684.73,-1412.12"/>
<polygon fill="black" stroke="black" points="1683.43,-1415.37 1694,-1416.16 1686.24,-1408.95 1683.43,-1415.37"/>
</g>
<!-- Node0x557d8d6c5668 -->
<g id="node23" class="node">
<title>Node0x557d8d6c5668</title>
<polygon fill="none" stroke="black" points="370,-3072.1 37,-3072.1 37,-3036.1 370,-3036.1 370,-3072.1"/>
<text text-anchor="middle" x="203.5" y="-3050.4" font-family="Times,serif" font-size="14.00">{lib/libLLVMMC.a(MCTargetOptions.cpp.o)}</text>
</g>
<!-- Node0x557d8d6aa908 -->
<g id="node24" class="node">
<title>Node0x557d8d6aa908</title>
<polygon fill="none" stroke="black" points="775,-2395.1 452,-2395.1 452,-2359.1 775,-2359.1 775,-2395.1"/>
<text text-anchor="middle" x="613.5" y="-2373.4" font-family="Times,serif" font-size="14.00">{lib/libLLVMMC.a(MCAsmBackend.cpp.o)}</text>
</g>
<!-- Node0x557d8d6aab38 -->
<g id="node25" class="node">
<title>Node0x557d8d6aab38</title>
<polygon fill="none" stroke="black" points="1166,-2395.1 840,-2395.1 840,-2359.1 1166,-2359.1 1166,-2395.1"/>
<text text-anchor="middle" x="1003" y="-2373.4" font-family="Times,serif" font-size="14.00">{lib/libLLVMMC.a(ELFObjectWriter.cpp.o)}</text>
</g>
<!-- Node0x557d8d6aa908&#45;&gt;Node0x557d8d6aab38 -->
<g id="edge29" class="edge">
<title>Node0x557d8d6aa908&#45;&gt;Node0x557d8d6aab38</title>
<path fill="none" stroke="black" d="M775.19,-2377.1C793.18,-2377.1 811.57,-2377.1 829.7,-2377.1"/>
<polygon fill="black" stroke="black" points="829.75,-2380.6 839.75,-2377.1 829.75,-2373.6 829.75,-2380.6"/>
</g>
<!-- Node0x557d8d6b9638 -->
<g id="node26" class="node">
<title>Node0x557d8d6b9638</title>
<polygon fill="none" stroke="black" points="1171,-2533.1 835,-2533.1 835,-2497.1 1171,-2497.1 1171,-2533.1"/>
<text text-anchor="middle" x="1003" y="-2511.4" font-family="Times,serif" font-size="14.00">{lib/libLLVMMC.a(MachObjectWriter.cpp.o)}</text>
</g>
<!-- Node0x557d8d6aa908&#45;&gt;Node0x557d8d6b9638 -->
<g id="edge30" class="edge">
<title>Node0x557d8d6aa908&#45;&gt;Node0x557d8d6b9638</title>
<path fill="none" stroke="black" d="M665.16,-2395.14C736.38,-2420.5 865.87,-2466.62 941.88,-2493.69"/>
<polygon fill="black" stroke="black" points="940.73,-2496.99 951.33,-2497.05 943.08,-2490.4 940.73,-2496.99"/>
</g>
<!-- Node0x557d8d6b7608 -->
<g id="node27" class="node">
<title>Node0x557d8d6b7608</title>
<polygon fill="none" stroke="black" points="1173,-2287.1 833,-2287.1 833,-2251.1 1173,-2251.1 1173,-2287.1"/>
<text text-anchor="middle" x="1003" y="-2265.4" font-family="Times,serif" font-size="14.00">{lib/libLLVMMC.a(WasmObjectWriter.cpp.o)}</text>
</g>
<!-- Node0x557d8d6aa908&#45;&gt;Node0x557d8d6b7608 -->
<g id="edge31" class="edge">
<title>Node0x557d8d6aa908&#45;&gt;Node0x557d8d6b7608</title>
<path fill="none" stroke="black" d="M652.62,-2359.02C693.22,-2340.5 759.8,-2312.2 820,-2296.1 829.37,-2293.59 839.08,-2291.3 848.92,-2289.2"/>
<polygon fill="black" stroke="black" points="849.7,-2292.62 858.79,-2287.18 848.29,-2285.76 849.7,-2292.62"/>
</g>
<!-- Node0x557d8d6bc568 -->
<g id="node28" class="node">
<title>Node0x557d8d6bc568</title>
<polygon fill="none" stroke="black" points="1186,-2341.1 820,-2341.1 820,-2305.1 1186,-2305.1 1186,-2341.1"/>
<text text-anchor="middle" x="1003" y="-2319.4" font-family="Times,serif" font-size="14.00">{lib/libLLVMMC.a(WinCOFFObjectWriter.cpp.o)}</text>
</g>
<!-- Node0x557d8d6aa908&#45;&gt;Node0x557d8d6bc568 -->
<g id="edge32" class="edge">
<title>Node0x557d8d6aa908&#45;&gt;Node0x557d8d6bc568</title>
<path fill="none" stroke="black" d="M743.8,-2359.08C781.89,-2353.77 823.72,-2347.94 862.42,-2342.55"/>
<polygon fill="black" stroke="black" points="863.29,-2345.96 872.71,-2341.11 862.32,-2339.03 863.29,-2345.96"/>
</g>
<!-- Node0x557d8d6bb848 -->
<g id="node29" class="node">
<title>Node0x557d8d6bb848</title>
<polygon fill="none" stroke="black" points="1596.5,-2739.1 1248.5,-2739.1 1248.5,-2703.1 1596.5,-2703.1 1596.5,-2739.1"/>
<text text-anchor="middle" x="1422.5" y="-2717.4" font-family="Times,serif" font-size="14.00">{lib/libLLVMMC.a(XCOFFObjectWriter.cpp.o)}</text>
</g>
<!-- Node0x557d8d6aa908&#45;&gt;Node0x557d8d6bb848 -->
<g id="edge33" class="edge">
<title>Node0x557d8d6aa908&#45;&gt;Node0x557d8d6bb848</title>
<path fill="none" stroke="black" d="M632.8,-2395.3C666.95,-2428.45 743.88,-2499.17 820,-2542.1 985.7,-2635.55 1037.91,-2641.15 1222,-2689.1 1239.55,-2693.67 1258.15,-2697.7 1276.66,-2701.22"/>
<polygon fill="black" stroke="black" points="1276.16,-2704.69 1286.63,-2703.07 1277.43,-2697.8 1276.16,-2704.69"/>
</g>
<!-- Node0x557d8d6aab38&#45;&gt;Node0x557d8d6bf5d8 -->
<g id="edge139" class="edge">
<title>Node0x557d8d6aab38&#45;&gt;Node0x557d8d6bf5d8</title>
<path fill="none" stroke="black" d="M1166.3,-2365.51C1173.45,-2361.25 1180.09,-2356.15 1186,-2350.1 1231.51,-2303.47 1200.76,-2120.7 1222,-2059.1 1264.87,-1934.79 1358.64,-1806.68 1400.55,-1753.1"/>
<polygon fill="black" stroke="black" points="1403.37,-1755.18 1406.81,-1745.16 1397.87,-1750.84 1403.37,-1755.18"/>
</g>
<!-- Node0x557d8d6aab38&#45;&gt;Node0x557d8d6c93a8 -->
<g id="edge140" class="edge">
<title>Node0x557d8d6aab38&#45;&gt;Node0x557d8d6c93a8</title>
<path fill="none" stroke="black" d="M1166.05,-2366.52C1173.37,-2362.03 1180.1,-2356.61 1186,-2350.1 1241.05,-2289.34 1170.93,-1677.23 1222,-1613.1 1337.34,-1468.25 1472.3,-1607.68 1623,-1500.1 1645.88,-1483.77 1635.23,-1463.11 1659,-1448.1 1666.97,-1443.06 1675.57,-1438.87 1684.52,-1435.39"/>
<polygon fill="black" stroke="black" points="1685.72,-1438.67 1693.95,-1432.01 1683.35,-1432.08 1685.72,-1438.67"/>
</g>
<!-- Node0x557d8d6aab38&#45;&gt;Node0x557d8d6cb3d8 -->
<g id="edge141" class="edge">
<title>Node0x557d8d6aab38&#45;&gt;Node0x557d8d6cb3d8</title>
<path fill="none" stroke="black" d="M1166.2,-2366.65C1173.48,-2362.13 1180.16,-2356.66 1186,-2350.1 1274.34,-2250.74 1126.59,-1246.68 1222,-1154.1 1349.9,-1029.99 1480.83,-1046.62 1623,-1154.1 1669.8,-1189.48 1615.77,-1241.43 1659,-1281.1 1662.28,-1284.11 1665.76,-1286.88 1669.4,-1289.42"/>
<polygon fill="black" stroke="black" points="1667.84,-1292.58 1678.17,-1294.95 1671.58,-1286.66 1667.84,-1292.58"/>
</g>
<!-- Node0x557d8d6aab38&#45;&gt;Node0x557d8d6c3958 -->
<g id="edge143" class="edge">
<title>Node0x557d8d6aab38&#45;&gt;Node0x557d8d6c3958</title>
<path fill="none" stroke="black" d="M1166.19,-2366.65C1173.48,-2362.12 1180.16,-2356.66 1186,-2350.1 1272.46,-2252.93 1128.63,-1270.64 1222,-1180.1 1253.99,-1149.08 1588.21,-1152.26 1623,-1180.1 1679.92,-1225.63 1605.94,-1290.13 1659,-1340.1 1663.81,-1344.63 1669.07,-1348.57 1674.66,-1351.99"/>
<polygon fill="black" stroke="black" points="1673.25,-1355.21 1683.7,-1356.95 1676.62,-1349.07 1673.25,-1355.21"/>
</g>
<!-- Node0x557d8d6aab38&#45;&gt;Node0x557d8d6c4858 -->
<g id="edge144" class="edge">
<title>Node0x557d8d6aab38&#45;&gt;Node0x557d8d6c4858</title>
<path fill="none" stroke="black" d="M1166.06,-2363.2C1173.13,-2359.5 1179.83,-2355.17 1186,-2350.1 1222.82,-2319.84 1188.48,-2282.97 1222,-2249.1 1342.29,-2127.55 1534.73,-2071.97 1669.78,-2046.93"/>
<polygon fill="black" stroke="black" points="1670.6,-2050.34 1679.81,-2045.11 1669.34,-2043.46 1670.6,-2050.34"/>
</g>
<!-- Node0x557d8d6aab38&#45;&gt;Node0x557d8d6c0b68 -->
<g id="edge138" class="edge">
<title>Node0x557d8d6aab38&#45;&gt;Node0x557d8d6c0b68</title>
<path fill="none" stroke="black" d="M1166.07,-2371.05C1417.16,-2358.08 1882.8,-2318.46 1993,-2201.1 2048.55,-2141.94 1975.77,-2083.34 2029,-2022.1 2135.32,-1899.77 2270.52,-2026.65 2373,-1901.1 2447.32,-1810.04 2371.5,-1750.49 2409,-1639.1 2441.21,-1543.42 2508.04,-1442.91 2541.11,-1396.47"/>
<polygon fill="black" stroke="black" points="2544.07,-1398.35 2547.06,-1388.18 2538.38,-1394.26 2544.07,-1398.35"/>
</g>
<!-- Node0x557d8d6aab38&#45;&gt;Node0x557d8d6cc2d8 -->
<g id="edge142" class="edge">
<title>Node0x557d8d6aab38&#45;&gt;Node0x557d8d6cc2d8</title>
<path fill="none" stroke="black" d="M1159.68,-2358.97C1168.7,-2356.39 1177.54,-2353.45 1186,-2350.1 1204.11,-2342.92 1204.21,-2333.03 1222,-2325.1 1302.39,-2289.25 1936.18,-2210.33 1993,-2143.1 2073.35,-2048.02 1968.27,-1692.76 2029,-1584.1 2054.76,-1538 2106.31,-1505.27 2146.1,-1485.58"/>
<polygon fill="black" stroke="black" points="2147.68,-1488.7 2155.17,-1481.21 2144.64,-1482.39 2147.68,-1488.7"/>
</g>
<!-- Node0x557d8d6aab38&#45;&gt;Node0x557d8d6b8788 -->
<g id="edge145" class="edge">
<title>Node0x557d8d6aab38&#45;&gt;Node0x557d8d6b8788</title>
<path fill="none" stroke="black" d="M1166.23,-2377.1C1389.08,-2377.1 1788.56,-2377.1 2020.25,-2377.1"/>
<polygon fill="black" stroke="black" points="2020.48,-2380.6 2030.48,-2377.1 2020.48,-2373.6 2020.48,-2380.6"/>
</g>
<!-- Node0x557d8d6b9638&#45;&gt;Node0x557d8d6bf5d8 -->
<g id="edge59" class="edge">
<title>Node0x557d8d6b9638&#45;&gt;Node0x557d8d6bf5d8</title>
<path fill="none" stroke="black" d="M1056.4,-2496.92C1098.17,-2479.65 1154.69,-2449.49 1186,-2404.1 1235.54,-2332.27 1197.24,-2294.77 1222,-2211.1 1275.18,-2031.36 1372.16,-1827.09 1407.85,-1754.47"/>
<polygon fill="black" stroke="black" points="1410.99,-1756.02 1412.27,-1745.5 1404.71,-1752.92 1410.99,-1756.02"/>
</g>
<!-- Node0x557d8d6b9638&#45;&gt;Node0x557d8d6c93a8 -->
<g id="edge60" class="edge">
<title>Node0x557d8d6b9638&#45;&gt;Node0x557d8d6c93a8</title>
<path fill="none" stroke="black" d="M1060.66,-2496.97C1103.12,-2480.14 1158.44,-2450.57 1186,-2404.1 1229.01,-2331.57 1166.61,-1709.67 1222,-1646.1 1341.1,-1509.39 1488.56,-1692.75 1623,-1571.1 1665.24,-1532.88 1616.31,-1485.81 1659,-1448.1 1666.63,-1441.36 1675.26,-1435.95 1684.48,-1431.64"/>
<polygon fill="black" stroke="black" points="1686.02,-1434.79 1693.88,-1427.69 1683.31,-1428.34 1686.02,-1434.79"/>
</g>
<!-- Node0x557d8d6b9638&#45;&gt;Node0x557d8d6cb3d8 -->
<g id="edge61" class="edge">
<title>Node0x557d8d6b9638&#45;&gt;Node0x557d8d6cb3d8</title>
<path fill="none" stroke="black" d="M1060.77,-2497.03C1103.28,-2480.24 1158.63,-2450.69 1186,-2404.1 1237.54,-2316.37 1161.18,-1570.66 1222,-1489.1 1278.39,-1413.47 1533.95,-1359.68 1693.74,-1332.75"/>
<polygon fill="black" stroke="black" points="1694.36,-1336.2 1703.64,-1331.1 1693.2,-1329.29 1694.36,-1336.2"/>
</g>
<!-- Node0x557d8d6b9638&#45;&gt;Node0x557d8d6ce1c8 -->
<g id="edge63" class="edge">
<title>Node0x557d8d6b9638&#45;&gt;Node0x557d8d6ce1c8</title>
<path fill="none" stroke="black" d="M1037.22,-2496.96C1074.5,-2476.12 1136.26,-2440.16 1186,-2404.1 1409.84,-2241.83 1408.17,-2116.37 1659,-2000.1 1663.33,-1998.09 1667.77,-1996.23 1672.31,-1994.51"/>
<polygon fill="black" stroke="black" points="1673.5,-1997.8 1681.75,-1991.16 1671.15,-1991.21 1673.5,-1997.8"/>
</g>
<!-- Node0x557d8d6b9638&#45;&gt;Node0x557d8d6c3958 -->
<g id="edge64" class="edge">
<title>Node0x557d8d6b9638&#45;&gt;Node0x557d8d6c3958</title>
<path fill="none" stroke="black" d="M1060.72,-2497C1103.21,-2480.19 1158.54,-2450.64 1186,-2404.1 1233.3,-2323.93 1161.26,-1637.64 1222,-1567.1 1340.46,-1429.51 1484.17,-1606.11 1623,-1489.1 1657.52,-1460 1624.03,-1422.66 1659,-1394.1 1663.97,-1390.04 1669.31,-1386.47 1674.93,-1383.35"/>
<polygon fill="black" stroke="black" points="1676.59,-1386.43 1683.95,-1378.81 1673.45,-1380.18 1676.59,-1386.43"/>
</g>
<!-- Node0x557d8d6b9638&#45;&gt;Node0x557d8d6c0b68 -->
<g id="edge58" class="edge">
<title>Node0x557d8d6b9638&#45;&gt;Node0x557d8d6c0b68</title>
<path fill="none" stroke="black" d="M1127.69,-2497.09C1158.43,-2493.36 1191.36,-2489.99 1222,-2488.1 1310.94,-2482.61 1545.77,-2443.64 1623,-2488.1 1650.61,-2504 1631.39,-2534.2 1659,-2550.1 1787.65,-2624.16 1867.36,-2629.15 1993,-2550.1 2024.29,-2530.41 1998.8,-2496.44 2029,-2475.1 2091.79,-2430.72 2320.35,-2494.13 2373,-2438.1 2433.86,-2373.34 2384.53,-1724.53 2409,-1639.1 2436.73,-1542.28 2505.37,-1442.68 2539.92,-1396.53"/>
<polygon fill="black" stroke="black" points="2542.92,-1398.37 2546.16,-1388.29 2537.34,-1394.15 2542.92,-1398.37"/>
</g>
<!-- Node0x557d8d6b9638&#45;&gt;Node0x557d8d6cc2d8 -->
<g id="edge62" class="edge">
<title>Node0x557d8d6b9638&#45;&gt;Node0x557d8d6cc2d8</title>
<path fill="none" stroke="black" d="M1147.08,-2533.1C1185.31,-2537.86 1217.41,-2541.77 1222,-2542.1 1307.46,-2548.15 1931.3,-2609.54 1993,-2550.1 2070.35,-2475.58 1977.87,-1678.56 2029,-1584.1 2054.05,-1537.81 2105.43,-1505.19 2145.36,-1485.57"/>
<polygon fill="black" stroke="black" points="2146.95,-1488.69 2154.47,-1481.22 2143.94,-1482.37 2146.95,-1488.69"/>
</g>
<!-- Node0x557d8d6b93b8 -->
<g id="node37" class="node">
<title>Node0x557d8d6b93b8</title>
<polygon fill="none" stroke="black" points="1623,-2533.1 1222,-2533.1 1222,-2497.1 1623,-2497.1 1623,-2533.1"/>
<text text-anchor="middle" x="1422.5" y="-2511.4" font-family="Times,serif" font-size="14.00">{lib/libLLVMMC.a(MCLinkerOptimizationHint.cpp.o)}</text>
</g>
<!-- Node0x557d8d6b9638&#45;&gt;Node0x557d8d6b93b8 -->
<g id="edge65" class="edge">
<title>Node0x557d8d6b9638&#45;&gt;Node0x557d8d6b93b8</title>
<path fill="none" stroke="black" d="M1171.11,-2508.47C1184.4,-2508.39 1197.93,-2508.35 1211.47,-2508.35"/>
<polygon fill="black" stroke="black" points="1211.82,-2511.85 1221.82,-2508.35 1211.82,-2504.85 1211.82,-2511.85"/>
</g>
<!-- Node0x557d8d6b9638&#45;&gt;Node0x557d8d6b8788 -->
<g id="edge66" class="edge">
<title>Node0x557d8d6b9638&#45;&gt;Node0x557d8d6b8788</title>
<path fill="none" stroke="black" d="M1171.37,-2529.08C1176.45,-2531.75 1181.35,-2534.75 1186,-2538.1 1216,-2559.72 1190.71,-2593.41 1222,-2613.1 1367.12,-2704.41 1837.29,-2654.88 1993,-2583.1 2079.98,-2543 2151.31,-2449.91 2182.72,-2403.87"/>
<polygon fill="black" stroke="black" points="2185.79,-2405.57 2188.46,-2395.32 2179.98,-2401.67 2185.79,-2405.57"/>
</g>
<!-- Node0x557d8d6b7608&#45;&gt;Node0x557d8d6bf5d8 -->
<g id="edge147" class="edge">
<title>Node0x557d8d6b7608&#45;&gt;Node0x557d8d6bf5d8</title>
<path fill="none" stroke="black" d="M1017.89,-2251.06C1079.5,-2171.09 1328.21,-1848.21 1401.24,-1753.4"/>
<polygon fill="black" stroke="black" points="1404.23,-1755.26 1407.56,-1745.2 1398.68,-1750.98 1404.23,-1755.26"/>
</g>
<!-- Node0x557d8d6b7608&#45;&gt;Node0x557d8d6c93a8 -->
<g id="edge148" class="edge">
<title>Node0x557d8d6b7608&#45;&gt;Node0x557d8d6c93a8</title>
<path fill="none" stroke="black" d="M1008.03,-2250.88C1034.82,-2130.24 1187.09,-1450.24 1222,-1423.1 1291.24,-1369.25 1528.2,-1385.04 1683.64,-1402.37"/>
<polygon fill="black" stroke="black" points="1683.43,-1405.87 1693.76,-1403.52 1684.22,-1398.92 1683.43,-1405.87"/>
</g>
<!-- Node0x557d8d6b7608&#45;&gt;Node0x557d8d6cb3d8 -->
<g id="edge149" class="edge">
<title>Node0x557d8d6b7608&#45;&gt;Node0x557d8d6cb3d8</title>
<path fill="none" stroke="black" d="M1009.67,-2250.99C1035.4,-2167.91 1141.86,-1814.45 1186,-1516.1 1196.34,-1446.19 1170.63,-929.63 1222,-881.1 1351.54,-758.69 1491.45,-760.86 1623,-881.1 1688.88,-941.31 1599.15,-1214.89 1659,-1281.1 1661.49,-1283.85 1664.13,-1286.4 1666.91,-1288.78"/>
<polygon fill="black" stroke="black" points="1665.02,-1291.74 1675.1,-1295.01 1669.26,-1286.17 1665.02,-1291.74"/>
</g>
<!-- Node0x557d8d6b7608&#45;&gt;Node0x557d8d6c0b68 -->
<g id="edge146" class="edge">
<title>Node0x557d8d6b7608&#45;&gt;Node0x557d8d6c0b68</title>
<path fill="none" stroke="black" d="M1009.75,-2251C1035.84,-2167.97 1143.66,-1814.71 1186,-1516.1 1192.31,-1471.61 1189.53,-739.15 1222,-708.1 1452.44,-487.7 2274.71,-839.62 2373,-927.1 2502.89,-1042.7 2545.53,-1263.29 2556.92,-1341.63"/>
<polygon fill="black" stroke="black" points="2553.47,-1342.29 2558.32,-1351.71 2560.41,-1341.33 2553.47,-1342.29"/>
</g>
<!-- Node0x557d8d6b7608&#45;&gt;Node0x557d8d6cc2d8 -->
<g id="edge150" class="edge">
<title>Node0x557d8d6b7608&#45;&gt;Node0x557d8d6cc2d8</title>
<path fill="none" stroke="black" d="M1019.5,-2250.98C1052.38,-2214.02 1133.4,-2130.63 1222,-2097.1 1302.24,-2066.72 1931.7,-2114.13 1993,-2054.1 2067.83,-1980.8 1977.34,-1675.22 2029,-1584.1 2055.12,-1538.02 2106.88,-1505.2 2146.64,-1485.47"/>
<polygon fill="black" stroke="black" points="2148.21,-1488.6 2155.69,-1481.1 2145.17,-1482.3 2148.21,-1488.6"/>
</g>
<!-- Node0x557d8d6bc568&#45;&gt;Node0x557d8d6bf5d8 -->
<g id="edge69" class="edge">
<title>Node0x557d8d6bc568&#45;&gt;Node0x557d8d6bf5d8</title>
<path fill="none" stroke="black" d="M1175.56,-2305.08C1179.23,-2302.35 1182.72,-2299.37 1186,-2296.1 1261.47,-2220.89 1185.88,-2159.33 1222,-2059.1 1266.58,-1935.4 1359.45,-1806.97 1400.83,-1753.21"/>
<polygon fill="black" stroke="black" points="1403.66,-1755.28 1407.02,-1745.23 1398.12,-1750.99 1403.66,-1755.28"/>
</g>
<!-- Node0x557d8d6bc568&#45;&gt;Node0x557d8d6c93a8 -->
<g id="edge70" class="edge">
<title>Node0x557d8d6bc568&#45;&gt;Node0x557d8d6c93a8</title>
<path fill="none" stroke="black" d="M1176.75,-2304.92C1180.01,-2302.23 1183.11,-2299.3 1186,-2296.1 1242.65,-2233.49 1167.05,-1601.2 1222,-1537.1 1280.6,-1468.74 1524.4,-1440.08 1683.48,-1428.5"/>
<polygon fill="black" stroke="black" points="1684.11,-1431.97 1693.84,-1427.76 1683.61,-1424.98 1684.11,-1431.97"/>
</g>
<!-- Node0x557d8d6bc568&#45;&gt;Node0x557d8d6cb3d8 -->
<g id="edge71" class="edge">
<title>Node0x557d8d6bc568&#45;&gt;Node0x557d8d6cb3d8</title>
<path fill="none" stroke="black" d="M1176.83,-2304.99C1180.07,-2302.28 1183.14,-2299.32 1186,-2296.1 1277.68,-2192.88 1122.97,-1150.29 1222,-1054.1 1349.83,-929.91 1487.47,-938.36 1623,-1054.1 1700.68,-1120.43 1587.98,-1207.68 1659,-1281.1 1661.85,-1284.04 1664.87,-1286.76 1668.06,-1289.26"/>
<polygon fill="black" stroke="black" points="1666.08,-1292.15 1676.27,-1295.07 1670.13,-1286.44 1666.08,-1292.15"/>
</g>
<!-- Node0x557d8d6bc568&#45;&gt;Node0x557d8d6c3958 -->
<g id="edge73" class="edge">
<title>Node0x557d8d6bc568&#45;&gt;Node0x557d8d6c3958</title>
<path fill="none" stroke="black" d="M1176.82,-2304.99C1180.06,-2302.27 1183.13,-2299.32 1186,-2296.1 1270.93,-2200.7 1130.28,-1235.99 1222,-1147.1 1349.98,-1023.06 1485.91,-1033.21 1623,-1147.1 1690.12,-1202.85 1596.59,-1279.12 1659,-1340.1 1663.8,-1344.78 1669.07,-1348.85 1674.69,-1352.36"/>
<polygon fill="black" stroke="black" points="1673.36,-1355.63 1683.8,-1357.44 1676.77,-1349.51 1673.36,-1355.63"/>
</g>
<!-- Node0x557d8d6bc568&#45;&gt;Node0x557d8d6c0b68 -->
<g id="edge68" class="edge">
<title>Node0x557d8d6bc568&#45;&gt;Node0x557d8d6c0b68</title>
<path fill="none" stroke="black" d="M1155.64,-2305.07C1418.02,-2272.5 1934.44,-2201.77 1993,-2143.1 2054.33,-2081.64 1973.16,-2017.57 2029,-1951.1 2134.03,-1826.07 2267.42,-1946.65 2373,-1822.1 2426.6,-1758.87 2380.3,-1716.86 2409,-1639.1 2443.96,-1544.38 2509.49,-1443.42 2541.68,-1396.68"/>
<polygon fill="black" stroke="black" points="2544.65,-1398.54 2547.47,-1388.33 2538.9,-1394.55 2544.65,-1398.54"/>
</g>
<!-- Node0x557d8d6bc568&#45;&gt;Node0x557d8d6cc2d8 -->
<g id="edge72" class="edge">
<title>Node0x557d8d6bc568&#45;&gt;Node0x557d8d6cc2d8</title>
<path fill="none" stroke="black" d="M1174.19,-2304.99C1178.32,-2302.31 1182.27,-2299.35 1186,-2296.1 1228.95,-2258.68 1178.43,-2209.79 1222,-2173.1 1485.82,-1950.95 1754.29,-2334.03 1993,-2085.1 2070.26,-2004.53 1974.18,-1681.33 2029,-1584.1 2054.93,-1538.1 2106.45,-1505.36 2146.2,-1485.63"/>
<polygon fill="black" stroke="black" points="2147.77,-1488.76 2155.25,-1481.26 2144.72,-1482.45 2147.77,-1488.76"/>
</g>
<!-- Node0x557d8d6bc568&#45;&gt;Node0x557d8d6b8788 -->
<g id="edge74" class="edge">
<title>Node0x557d8d6bc568&#45;&gt;Node0x557d8d6b8788</title>
<path fill="none" stroke="black" d="M1186.3,-2331.33C1412.35,-2341.53 1795.25,-2358.82 2020.16,-2368.98"/>
<polygon fill="black" stroke="black" points="2020.27,-2372.49 2030.42,-2369.44 2020.59,-2365.49 2020.27,-2372.49"/>
</g>
<!-- Node0x557d8d6bb848&#45;&gt;Node0x557d8d6c93a8 -->
<g id="edge152" class="edge">
<title>Node0x557d8d6bb848&#45;&gt;Node0x557d8d6c93a8</title>
<path fill="none" stroke="black" d="M1456.84,-2702.98C1503.83,-2675.35 1587.71,-2617.8 1623,-2542.1 1674.38,-2431.86 1578.69,-1539.43 1659,-1448.1 1666.23,-1439.87 1674.91,-1433.48 1684.45,-1428.55"/>
<polygon fill="black" stroke="black" points="1686.2,-1431.6 1693.85,-1424.27 1683.3,-1425.23 1686.2,-1431.6"/>
</g>
<!-- Node0x557d8d6bb848&#45;&gt;Node0x557d8d6cb3d8 -->
<g id="edge153" class="edge">
<title>Node0x557d8d6bb848&#45;&gt;Node0x557d8d6cb3d8</title>
<path fill="none" stroke="black" d="M1456.87,-2702.99C1503.89,-2675.38 1587.82,-2617.86 1623,-2542.1 1651.14,-2481.5 1614.96,-1390.33 1659,-1340.1 1661.43,-1337.32 1664.03,-1334.76 1666.77,-1332.39"/>
<polygon fill="black" stroke="black" points="1669.03,-1335.06 1674.84,-1326.21 1664.77,-1329.51 1669.03,-1335.06"/>
</g>
<!-- Node0x557d8d6bb848&#45;&gt;Node0x557d8d6c4948 -->
<g id="edge155" class="edge">
<title>Node0x557d8d6bb848&#45;&gt;Node0x557d8d6c4948</title>
<path fill="none" stroke="black" d="M1514.69,-2703.06C1551.19,-2692.47 1591.87,-2676.08 1623,-2651.1 1646.66,-2632.11 1635.94,-2612.81 1659,-2593.1 1684.42,-2571.37 1717.57,-2555.58 1747.55,-2544.56"/>
<polygon fill="black" stroke="black" points="1748.91,-2547.79 1757.16,-2541.15 1746.57,-2541.19 1748.91,-2547.79"/>
</g>
<!-- Node0x557d8d6bb848&#45;&gt;Node0x557d8d6c0b68 -->
<g id="edge151" class="edge">
<title>Node0x557d8d6bb848&#45;&gt;Node0x557d8d6c0b68</title>
<path fill="none" stroke="black" d="M1586.47,-2739.12C1814.85,-2753.9 2219.34,-2739.08 2373,-2475.1 2419.77,-2394.74 2383.49,-1728.5 2409,-1639.1 2436.64,-1542.26 2505.31,-1442.66 2539.9,-1396.52"/>
<polygon fill="black" stroke="black" points="2542.9,-1398.37 2546.15,-1388.28 2537.32,-1394.14 2542.9,-1398.37"/>
</g>
<!-- Node0x557d8d6bb848&#45;&gt;Node0x557d8d6cc2d8 -->
<g id="edge154" class="edge">
<title>Node0x557d8d6bb848&#45;&gt;Node0x557d8d6cc2d8</title>
<path fill="none" stroke="black" d="M1484.22,-2702.98C1531.62,-2689.11 1599.24,-2669.9 1659,-2655.1 1806.4,-2618.59 1895.49,-2699.51 1993,-2583.1 2064.32,-2497.95 1976.19,-1681.81 2029,-1584.1 2054.03,-1537.79 2105.41,-1505.17 2145.35,-1485.56"/>
<polygon fill="black" stroke="black" points="2146.94,-1488.68 2154.46,-1481.22 2143.92,-1482.36 2146.94,-1488.68"/>
</g>
<!-- Node0x557d8d6bb848&#45;&gt;Node0x557d8d6b8788 -->
<g id="edge156" class="edge">
<title>Node0x557d8d6bb848&#45;&gt;Node0x557d8d6b8788</title>
<path fill="none" stroke="black" d="M1596.59,-2737.35C1715.63,-2740.49 1873.24,-2728.15 1993,-2659.1 2097.2,-2599.02 2164.06,-2463.13 2189,-2404.68"/>
<polygon fill="black" stroke="black" points="2192.27,-2405.92 2192.9,-2395.34 2185.81,-2403.21 2192.27,-2405.92"/>
</g>
<!-- Node0x557d8d6cacf8 -->
<g id="node30" class="node">
<title>Node0x557d8d6cacf8</title>
<polygon fill="none" stroke="black" points="743,-327.1 484,-327.1 484,-291.1 743,-291.1 743,-327.1"/>
<text text-anchor="middle" x="613.5" y="-305.4" font-family="Times,serif" font-size="14.00">{lib/libLLVMMC.a(MCInst.cpp.o)}</text>
</g>
<!-- Node0x557d8d6cacf8&#45;&gt;Node0x557d8d6c93a8 -->
<g id="edge43" class="edge">
<title>Node0x557d8d6cacf8&#45;&gt;Node0x557d8d6c93a8</title>
<path fill="none" stroke="black" d="M743.06,-304.8C1007.84,-296.57 1591.96,-281.98 1623,-312.1 1709.34,-395.86 1579.56,-1303.78 1659,-1394.1 1666.23,-1402.32 1674.91,-1408.72 1684.46,-1413.64"/>
<polygon fill="black" stroke="black" points="1683.3,-1416.96 1693.85,-1417.92 1686.2,-1410.59 1683.3,-1416.96"/>
</g>
<!-- Node0x557d8d6cacf8&#45;&gt;Node0x557d8d6ca578 -->
<g id="edge44" class="edge">
<title>Node0x557d8d6cacf8&#45;&gt;Node0x557d8d6ca578</title>
<path fill="none" stroke="black" d="M743.26,-293.81C774.3,-290.13 807.85,-286.14 840.18,-282.31"/>
<polygon fill="black" stroke="black" points="840.66,-285.78 850.17,-281.12 839.83,-278.82 840.66,-285.78"/>
</g>
<!-- Node0x557d8d6c7be8&#45;&gt;Node0x557d8d6bf5d8 -->
<g id="edge47" class="edge">
<title>Node0x557d8d6c7be8&#45;&gt;Node0x557d8d6bf5d8</title>
<path fill="none" stroke="#7fb2ff" d="M2031.41,-1593.09C1895.64,-1582.11 1718.02,-1576.79 1659,-1616.1 1625.19,-1638.61 1655.33,-1675.51 1623,-1700.1 1609.1,-1710.67 1593.04,-1718.14 1576.17,-1723.32"/>
<polygon fill="#7fb2ff" stroke="#7fb2ff" points="1574.86,-1720.05 1566.16,-1726.11 1576.74,-1726.8 1574.86,-1720.05"/>
</g>
<!-- Node0x557d8d6c7be8&#45;&gt;Node0x557d8d6c1018 -->
<g id="edge46" class="edge">
<title>Node0x557d8d6c7be8&#45;&gt;Node0x557d8d6c1018</title>
<path fill="none" stroke="#7fb2ff" d="M2036.06,-1593.03C2033.65,-1591.47 2031.29,-1589.82 2029,-1588.1 2000.43,-1566.56 2021.51,-1537.71 1993,-1516.1 1981.99,-1507.75 1969.42,-1501.39 1956.23,-1496.51"/>
<polygon fill="#7fb2ff" stroke="#7fb2ff" points="1957.12,-1493.12 1946.53,-1493.22 1954.87,-1499.75 1957.12,-1493.12"/>
</g>
<!-- Node0x557d8d6c7be8&#45;&gt;Node0x557d8d6bee08 -->
<g id="edge48" class="edge">
<title>Node0x557d8d6c7be8&#45;&gt;Node0x557d8d6bee08</title>
<path fill="none" stroke="#7fb2ff" d="M2172.54,-1629.26C2134.62,-1650.51 2066.66,-1688.45 2029,-1741.1 1996.11,-1787.08 2035.41,-1825.71 1993,-1863.1 1986.84,-1868.53 1980.03,-1873.09 1972.79,-1876.9"/>
<polygon fill="#7fb2ff" stroke="#7fb2ff" points="1970.95,-1873.9 1963.4,-1881.33 1973.93,-1880.23 1970.95,-1873.9"/>
</g>
<!-- Node0x557d8d6c7be8&#45;&gt;Node0x557d8d6c93a8 -->
<g id="edge49" class="edge">
<title>Node0x557d8d6c7be8&#45;&gt;Node0x557d8d6c93a8</title>
<path fill="none" stroke="#7fb2ff" d="M2169.92,-1593.02C2134.4,-1570.97 2074.43,-1531.49 2029,-1490.1 2010.83,-1473.54 2014.44,-1460.14 1993,-1448.1 1985.05,-1443.64 1976.58,-1439.86 1967.82,-1436.67"/>
<polygon fill="#7fb2ff" stroke="#7fb2ff" points="1968.81,-1433.31 1958.22,-1433.43 1966.58,-1439.94 1968.81,-1433.31"/>
</g>
<!-- Node0x557d8d6c7be8&#45;&gt;Node0x557d8d6cb3d8 -->
<g id="edge50" class="edge">
<title>Node0x557d8d6c7be8&#45;&gt;Node0x557d8d6cb3d8</title>
<path fill="none" stroke="#7fb2ff" d="M2159.29,-1592.95C2119.9,-1573.28 2061.53,-1538.13 2029,-1490.1 1990.56,-1433.33 2043.25,-1386.74 1993,-1340.1 1990.74,-1338 1988.39,-1336.03 1985.95,-1334.19"/>
<polygon fill="#7fb2ff" stroke="#7fb2ff" points="1987.6,-1331.07 1977.36,-1328.35 1983.67,-1336.87 1987.6,-1331.07"/>
</g>
<!-- Node0x557d8d6c7be8&#45;&gt;Node0x557d8d6cc9b8 -->
<g id="edge51" class="edge">
<title>Node0x557d8d6c7be8&#45;&gt;Node0x557d8d6cc9b8</title>
<path fill="none" stroke="#7fb2ff" d="M2065.84,-1629.12C2043.89,-1631.21 2020.9,-1633.25 1998.21,-1635.14"/>
<polygon fill="#7fb2ff" stroke="#7fb2ff" points="1997.84,-1631.66 1988.16,-1635.97 1998.42,-1638.63 1997.84,-1631.66"/>
</g>
<!-- Node0x557d8d6c7be8&#45;&gt;Node0x557d8d6ccc38 -->
<g id="edge52" class="edge">
<title>Node0x557d8d6c7be8&#45;&gt;Node0x557d8d6ccc38</title>
<path fill="none" stroke="#7fb2ff" d="M2158.28,-1629.22C2089.45,-1659.11 1952.32,-1718.67 1877.9,-1750.99"/>
<polygon fill="#7fb2ff" stroke="#7fb2ff" points="1876.48,-1747.79 1868.7,-1754.99 1879.27,-1754.21 1876.48,-1747.79"/>
</g>
<!-- Node0x557d8d6c7be8&#45;&gt;Node0x557d8d6c0b68 -->
<g id="edge45" class="edge">
<title>Node0x557d8d6c7be8&#45;&gt;Node0x557d8d6c0b68</title>
<path fill="none" stroke="#7fb2ff" d="M2242.71,-1593.09C2278.22,-1576.71 2330.55,-1550.9 2373,-1523.1 2433.94,-1483.18 2498.34,-1427.15 2533.56,-1395.14"/>
<polygon fill="#7fb2ff" stroke="#7fb2ff" points="2536.02,-1397.64 2541.04,-1388.31 2531.3,-1392.47 2536.02,-1397.64"/>
</g>
<!-- Node0x557d8d6c7be8&#45;&gt;Node0x557d8d6cf528 -->
<g id="edge53" class="edge">
<title>Node0x557d8d6c7be8&#45;&gt;Node0x557d8d6cf528</title>
<path fill="none" stroke="#7fb2ff" d="M2319.39,-1629.11C2355.69,-1634.68 2395.86,-1640.84 2432.82,-1646.51"/>
<polygon fill="#7fb2ff" stroke="#7fb2ff" points="2432.74,-1650.04 2443.16,-1648.09 2433.8,-1643.12 2432.74,-1650.04"/>
</g>
<!-- Node0x557d8d6bedb8 -->
<g id="node32" class="node">
<title>Node0x557d8d6bedb8</title>
<polygon fill="none" stroke="black" points="778,-1453.1 449,-1453.1 449,-1417.1 778,-1417.1 778,-1453.1"/>
<text text-anchor="middle" x="613.5" y="-1431.4" font-family="Times,serif" font-size="14.00">{lib/libLLVMMC.a(MCAsmInfoCOFF.cpp.o)}</text>
</g>
<!-- Node0x557d8d6bedb8&#45;&gt;Node0x557d8d6be138 -->
<g id="edge54" class="edge">
<title>Node0x557d8d6bedb8&#45;&gt;Node0x557d8d6be138</title>
<path fill="none" stroke="black" d="M743.8,-1453.12C781.89,-1458.42 823.72,-1464.25 862.42,-1469.65"/>
<polygon fill="black" stroke="black" points="862.32,-1473.17 872.71,-1471.08 863.29,-1466.23 862.32,-1473.17"/>
</g>
<!-- Node0x557d8d6be548 -->
<g id="node33" class="node">
<title>Node0x557d8d6be548</title>
<polygon fill="none" stroke="black" points="784,-1507.1 443,-1507.1 443,-1471.1 784,-1471.1 784,-1507.1"/>
<text text-anchor="middle" x="613.5" y="-1485.4" font-family="Times,serif" font-size="14.00">{lib/libLLVMMC.a(MCAsmInfoDarwin.cpp.o)}</text>
</g>
<!-- Node0x557d8d6be548&#45;&gt;Node0x557d8d6be138 -->
<g id="edge55" class="edge">
<title>Node0x557d8d6be548&#45;&gt;Node0x557d8d6be138</title>
<path fill="none" stroke="black" d="M784.18,-1489.1C805.25,-1489.1 826.71,-1489.1 847.54,-1489.1"/>
<polygon fill="black" stroke="black" points="847.71,-1492.6 857.71,-1489.1 847.71,-1485.6 847.71,-1492.6"/>
</g>
<!-- Node0x557d8d6bcab8 -->
<g id="node34" class="node">
<title>Node0x557d8d6bcab8</title>
<polygon fill="none" stroke="black" points="772,-1561.1 455,-1561.1 455,-1525.1 772,-1525.1 772,-1561.1"/>
<text text-anchor="middle" x="613.5" y="-1539.4" font-family="Times,serif" font-size="14.00">{lib/libLLVMMC.a(MCAsmInfoELF.cpp.o)}</text>
</g>
<!-- Node0x557d8d6bcab8&#45;&gt;Node0x557d8d6bf5d8 -->
<g id="edge57" class="edge">
<title>Node0x557d8d6bcab8&#45;&gt;Node0x557d8d6bf5d8</title>
<path fill="none" stroke="black" d="M674.75,-1561.2C783.26,-1593.25 1019.16,-1660.31 1222,-1700.1 1237.2,-1703.08 1253.11,-1705.84 1269.03,-1708.36"/>
<polygon fill="black" stroke="black" points="1268.52,-1711.82 1278.94,-1709.9 1269.6,-1704.9 1268.52,-1711.82"/>
</g>
<!-- Node0x557d8d6bcab8&#45;&gt;Node0x557d8d6be138 -->
<g id="edge56" class="edge">
<title>Node0x557d8d6bcab8&#45;&gt;Node0x557d8d6be138</title>
<path fill="none" stroke="black" d="M743.8,-1525.08C781.89,-1519.77 823.72,-1513.94 862.42,-1508.55"/>
<polygon fill="black" stroke="black" points="863.29,-1511.96 872.71,-1507.11 862.32,-1505.03 863.29,-1511.96"/>
</g>
<!-- Node0x557d8d6c0398 -->
<g id="node35" class="node">
<title>Node0x557d8d6c0398</title>
<polygon fill="none" stroke="black" points="364,-3126.1 43,-3126.1 43,-3090.1 364,-3090.1 364,-3126.1"/>
<text text-anchor="middle" x="203.5" y="-3104.4" font-family="Times,serif" font-size="14.00">{lib/libLLVMMC.a(MCCodeEmitter.cpp.o)}</text>
</g>
<!-- Node0x557d8d6c6888 -->
<g id="node36" class="node">
<title>Node0x557d8d6c6888</title>
<polygon fill="none" stroke="black" points="407,-3180.1 0,-3180.1 0,-3144.1 407,-3144.1 407,-3180.1"/>
<text text-anchor="middle" x="203.5" y="-3158.4" font-family="Times,serif" font-size="14.00">{lib/libLLVMMC.a(MCMachObjectTargetWriter.cpp.o)}</text>
</g>
<!-- Node0x557d8d6b93b8&#45;&gt;Node0x557d8d6b9638 -->
<g id="edge172" class="edge">
<title>Node0x557d8d6b93b8&#45;&gt;Node0x557d8d6b9638</title>
<path fill="none" stroke="black" d="M1221.82,-2521.84C1208.29,-2521.86 1194.72,-2521.84 1181.32,-2521.78"/>
<polygon fill="black" stroke="black" points="1181.13,-2518.28 1171.11,-2521.73 1181.09,-2525.28 1181.13,-2518.28"/>
</g>
<!-- Node0x557d8d6bfb28 -->
<g id="node39" class="node">
<title>Node0x557d8d6bfb28</title>
<polygon fill="none" stroke="black" points="402.5,-3234.1 4.5,-3234.1 4.5,-3198.1 402.5,-3198.1 402.5,-3234.1"/>
<text text-anchor="middle" x="203.5" y="-3212.4" font-family="Times,serif" font-size="14.00">{lib/libLLVMMC.a(MCELFObjectTargetWriter.cpp.o)}</text>
</g>
<!-- Node0x557d8d6c59d8 -->
<g id="node40" class="node">
<title>Node0x557d8d6c59d8</title>
<polygon fill="none" stroke="black" points="1557.5,-1225.1 1287.5,-1225.1 1287.5,-1189.1 1557.5,-1189.1 1557.5,-1225.1"/>
<text text-anchor="middle" x="1422.5" y="-1203.4" font-family="Times,serif" font-size="14.00">{lib/libLLVMMC.a(MCValue.cpp.o)}</text>
</g>
<!-- Node0x557d8d6c59d8&#45;&gt;Node0x557d8d6c93a8 -->
<g id="edge67" class="edge">
<title>Node0x557d8d6c59d8&#45;&gt;Node0x557d8d6c93a8</title>
<path fill="none" stroke="black" d="M1557.59,-1202.91C1581.71,-1207.99 1604.9,-1217.51 1623,-1234.1 1676.73,-1283.35 1605.94,-1344.13 1659,-1394.1 1666.49,-1401.15 1675.07,-1406.78 1684.29,-1411.23"/>
<polygon fill="black" stroke="black" points="1683.14,-1414.55 1693.71,-1415.31 1685.92,-1408.12 1683.14,-1414.55"/>
</g>
<!-- Node0x557d8d6c6c98 -->
<g id="node41" class="node">
<title>Node0x557d8d6c6c98</title>
<polygon fill="none" stroke="black" points="1152.5,-373.1 853.5,-373.1 853.5,-337.1 1152.5,-337.1 1152.5,-373.1"/>
<text text-anchor="middle" x="1003" y="-351.4" font-family="Times,serif" font-size="14.00">{lib/libLLVMMC.a(MCWin64EH.cpp.o)}</text>
</g>
<!-- Node0x557d8d6c6c98&#45;&gt;Node0x557d8d6bf5d8 -->
<g id="edge75" class="edge">
<title>Node0x557d8d6c6c98&#45;&gt;Node0x557d8d6bf5d8</title>
<path fill="none" stroke="black" d="M1030.69,-373.24C1072.83,-403.66 1153.32,-469.41 1186,-548.1 1210.56,-607.23 1179.12,-1652.54 1222,-1700.1 1234.74,-1714.22 1251.08,-1723.56 1268.91,-1729.51"/>
<polygon fill="black" stroke="black" points="1268.37,-1733.01 1278.95,-1732.48 1270.35,-1726.29 1268.37,-1733.01"/>
</g>
<!-- Node0x557d8d6c6c98&#45;&gt;Node0x557d8d6c93a8 -->
<g id="edge76" class="edge">
<title>Node0x557d8d6c6c98&#45;&gt;Node0x557d8d6c93a8</title>
<path fill="none" stroke="black" d="M1028.83,-373.29C1069.07,-404.27 1147.87,-471.39 1186,-548.1 1228.94,-634.46 1157.25,-690.62 1222,-762.1 1345.99,-898.98 1505.86,-728.31 1623,-871.1 1696.89,-961.16 1580.52,-1308 1659,-1394.1 1666.3,-1402.11 1674.98,-1408.37 1684.48,-1413.21"/>
<polygon fill="black" stroke="black" points="1683.27,-1416.5 1693.82,-1417.43 1686.15,-1410.12 1683.27,-1416.5"/>
</g>
<!-- Node0x557d8d6c6c98&#45;&gt;Node0x557d8d6cf528 -->
<g id="edge77" class="edge">
<title>Node0x557d8d6c6c98&#45;&gt;Node0x557d8d6cf528</title>
<path fill="none" stroke="black" d="M1152.53,-365.13C1315.76,-379.54 1562.88,-412.44 1623,-482.1 1717.08,-591.11 1560.16,-1024.38 1659,-1129.1 1710.28,-1183.42 1921.39,-1145.85 1993,-1167.1 2010.15,-1172.19 2011.99,-1179.55 2029,-1185.1 2176.4,-1233.18 2259.99,-1136.95 2373,-1243.1 2424.23,-1291.22 2383.5,-1331.6 2409,-1397.1 2445.72,-1491.41 2510.7,-1592.95 2542.27,-1639.74"/>
<polygon fill="black" stroke="black" points="2539.42,-1641.78 2547.94,-1648.08 2545.21,-1637.85 2539.42,-1641.78"/>
</g>
<!-- Node0x557d8d6c70a8 -->
<g id="node42" class="node">
<title>Node0x557d8d6c70a8</title>
<polygon fill="none" stroke="black" points="1563,-357.1 1282,-357.1 1282,-321.1 1563,-321.1 1563,-357.1"/>
<text text-anchor="middle" x="1422.5" y="-335.4" font-family="Times,serif" font-size="14.00">{lib/libLLVMMC.a(MCWinEH.cpp.o)}</text>
</g>
<!-- Node0x557d8d6c6c98&#45;&gt;Node0x557d8d6c70a8 -->
<g id="edge78" class="edge">
<title>Node0x557d8d6c6c98&#45;&gt;Node0x557d8d6c70a8</title>
<path fill="none" stroke="black" d="M1152.66,-349.4C1191.27,-347.92 1232.87,-346.33 1271.54,-344.84"/>
<polygon fill="black" stroke="black" points="1271.97,-348.33 1281.83,-344.45 1271.7,-341.34 1271.97,-348.33"/>
</g>
<!-- Node0x557d8d6c69c8 -->
<g id="node43" class="node">
<title>Node0x557d8d6c69c8</title>
<polygon fill="none" stroke="black" points="1186,-593.1 820,-593.1 820,-557.1 1186,-557.1 1186,-593.1"/>
<text text-anchor="middle" x="1003" y="-571.4" font-family="Times,serif" font-size="14.00">{lib/libLLVMMC.a(MCWinCOFFStreamer.cpp.o)}</text>
</g>
<!-- Node0x557d8d6c69c8&#45;&gt;Node0x557d8d6bf5d8 -->
<g id="edge80" class="edge">
<title>Node0x557d8d6c69c8&#45;&gt;Node0x557d8d6bf5d8</title>
<path fill="none" stroke="black" d="M1008.95,-593.19C1032.34,-679.33 1132.89,-1056.84 1186,-1372.1 1198.18,-1444.4 1170.81,-1647.6 1222,-1700.1 1235.02,-1713.45 1251.28,-1722.41 1268.87,-1728.23"/>
<polygon fill="black" stroke="black" points="1268.18,-1731.68 1278.76,-1731.15 1270.16,-1724.96 1268.18,-1731.68"/>
</g>
<!-- Node0x557d8d6c69c8&#45;&gt;Node0x557d8d6c93a8 -->
<g id="edge81" class="edge">
<title>Node0x557d8d6c69c8&#45;&gt;Node0x557d8d6c93a8</title>
<path fill="none" stroke="black" d="M1012.18,-593.18C1036.41,-644.72 1113.02,-793.63 1222,-871.1 1374.05,-979.18 1505.64,-850.09 1623,-995.1 1679.01,-1064.3 1598.33,-1328.94 1659,-1394.1 1666.31,-1401.95 1674.95,-1408.11 1684.37,-1412.89"/>
<polygon fill="black" stroke="black" points="1683.08,-1416.15 1693.64,-1417.06 1685.96,-1409.76 1683.08,-1416.15"/>
</g>
<!-- Node0x557d8d6c69c8&#45;&gt;Node0x557d8d6cb3d8 -->
<g id="edge82" class="edge">
<title>Node0x557d8d6c69c8&#45;&gt;Node0x557d8d6cb3d8</title>
<path fill="none" stroke="black" d="M1186.21,-562.58C1346.76,-555.95 1564.03,-559.14 1623,-619.1 1726.31,-724.14 1562.15,-1170.08 1659,-1281.1 1661.44,-1283.89 1664.04,-1286.49 1666.78,-1288.9"/>
<polygon fill="black" stroke="black" points="1664.83,-1291.82 1674.87,-1295.21 1669.14,-1286.3 1664.83,-1291.82"/>
</g>
<!-- Node0x557d8d6c69c8&#45;&gt;Node0x557d8d6c3958 -->
<g id="edge85" class="edge">
<title>Node0x557d8d6c69c8&#45;&gt;Node0x557d8d6c3958</title>
<path fill="none" stroke="black" d="M1125.35,-593.15C1296.25,-619.75 1590.74,-670.42 1623,-708.1 1714.48,-814.96 1564.85,-1235.58 1659,-1340.1 1663.79,-1345.42 1669.19,-1349.97 1675.03,-1353.84"/>
<polygon fill="black" stroke="black" points="1673.5,-1357 1683.89,-1359.05 1677.05,-1350.97 1673.5,-1357"/>
</g>
<!-- Node0x557d8d6c69c8&#45;&gt;Node0x557d8d6c0b68 -->
<g id="edge79" class="edge">
<title>Node0x557d8d6c69c8&#45;&gt;Node0x557d8d6c0b68</title>
<path fill="none" stroke="black" d="M1048.43,-557C1235.85,-483.9 1970.63,-230.31 2373,-572.1 2494.73,-675.5 2547.14,-1211.05 2558.21,-1341.45"/>
<polygon fill="black" stroke="black" points="2554.75,-1342.12 2559.07,-1351.8 2561.73,-1341.54 2554.75,-1342.12"/>
</g>
<!-- Node0x557d8d6c69c8&#45;&gt;Node0x557d8d6cf528 -->
<g id="edge84" class="edge">
<title>Node0x557d8d6c69c8&#45;&gt;Node0x557d8d6cf528</title>
<path fill="none" stroke="black" d="M1055.63,-556.97C1099.31,-542.65 1163.89,-523.82 1222,-516.1 1310.33,-504.36 1558.27,-454.85 1623,-516.1 1675.62,-565.89 1611.95,-1112.01 1659,-1167.1 1757.62,-1282.57 1845.18,-1204.31 1993,-1239.1 2162.67,-1279.03 2234.45,-1230.33 2373,-1336.1 2376.45,-1338.73 2501.5,-1561.05 2545.43,-1639.25"/>
<polygon fill="black" stroke="black" points="2542.42,-1641.05 2550.37,-1648.05 2548.53,-1637.62 2542.42,-1641.05"/>
</g>
<!-- Node0x557d8d6c69c8&#45;&gt;Node0x557d8d6c7be8 -->
<g id="edge83" class="edge">
<title>Node0x557d8d6c69c8&#45;&gt;Node0x557d8d6c7be8</title>
<path fill="none" stroke="black" d="M1097.23,-557.07C1251.42,-529.68 1549.84,-487.67 1623,-557.1 1678.37,-609.64 1607.11,-1187.12 1659,-1243.1 1760.76,-1352.85 1884.73,-1182.76 1993,-1286.1 2059.6,-1349.66 1979.72,-1412.33 2029,-1490.1 2057.56,-1535.17 2109.56,-1568.33 2148.75,-1588.42"/>
<polygon fill="black" stroke="black" points="2147.4,-1591.66 2157.91,-1593 2150.53,-1585.4 2147.4,-1591.66"/>
</g>
<!-- Node0x557d8d6bd508 -->
<g id="node44" class="node">
<title>Node0x557d8d6bd508</title>
<polygon fill="none" stroke="black" points="367.5,-2395.1 39.5,-2395.1 39.5,-2359.1 367.5,-2359.1 367.5,-2395.1"/>
<text text-anchor="middle" x="203.5" y="-2373.4" font-family="Times,serif" font-size="14.00">{lib/libLLVMMC.a(MCAsmStreamer.cpp.o)}</text>
</g>
<!-- Node0x557d8d6bd508&#45;&gt;Node0x557d8d6bf5d8 -->
<g id="edge94" class="edge">
<title>Node0x557d8d6bd508&#45;&gt;Node0x557d8d6bf5d8</title>
<path fill="none" stroke="black" d="M238.32,-2359.03C410.27,-2267.19 1186.89,-1852.4 1378.61,-1750"/>
<polygon fill="black" stroke="black" points="1380.38,-1753.03 1387.56,-1745.23 1377.09,-1746.85 1380.38,-1753.03"/>
</g>
<!-- Node0x557d8d6bd508&#45;&gt;Node0x557d8d6c1018 -->
<g id="edge93" class="edge">
<title>Node0x557d8d6bd508&#45;&gt;Node0x557d8d6c1018</title>
<path fill="none" stroke="black" d="M215.5,-2358.95C246.4,-2309.03 338.6,-2167.38 443,-2076.1 846.13,-1723.65 1487.98,-1550.62 1729.2,-1495.39"/>
<polygon fill="black" stroke="black" points="1730.02,-1498.79 1738.99,-1493.16 1728.47,-1491.97 1730.02,-1498.79"/>
</g>
<!-- Node0x557d8d6bd508&#45;&gt;Node0x557d8d6bee08 -->
<g id="edge95" class="edge">
<title>Node0x557d8d6bd508&#45;&gt;Node0x557d8d6bee08</title>
<path fill="none" stroke="black" d="M215.54,-2395.37C245.21,-2442.46 332.02,-2567.47 443,-2613.1 564.33,-2662.98 1531.62,-2669.22 1623,-2575.1 1720.53,-2474.65 1576.81,-2059.44 1659,-1946.1 1673.37,-1926.28 1694.71,-1912.5 1717.34,-1902.92"/>
<polygon fill="black" stroke="black" points="1718.74,-1906.13 1726.75,-1899.2 1716.16,-1899.62 1718.74,-1906.13"/>
</g>
<!-- Node0x557d8d6bd508&#45;&gt;Node0x557d8d6c93a8 -->
<g id="edge96" class="edge">
<title>Node0x557d8d6bd508&#45;&gt;Node0x557d8d6c93a8</title>
<path fill="none" stroke="black" d="M206.86,-2358.84C222.64,-2239.01 316.14,-1565.08 443,-1408.1 616.11,-1193.88 1418.92,-844.15 1623,-1029.1 1683.39,-1083.83 1603.21,-1334.68 1659,-1394.1 1666.35,-1401.92 1675,-1408.05 1684.45,-1412.82"/>
<polygon fill="black" stroke="black" points="1683.17,-1416.08 1693.72,-1416.98 1686.03,-1409.7 1683.17,-1416.08"/>
</g>
<!-- Node0x557d8d6bd508&#45;&gt;Node0x557d8d6ccc38 -->
<g id="edge99" class="edge">
<title>Node0x557d8d6bd508&#45;&gt;Node0x557d8d6ccc38</title>
<path fill="none" stroke="black" d="M254.26,-2395.23C357.8,-2431.9 604.75,-2513.75 820,-2542.1 908.46,-2553.75 1558.4,-2603.64 1623,-2542.1 1682.76,-2485.16 1604.02,-1861.66 1659,-1800.1 1663.77,-1794.76 1669.15,-1790.19 1674.98,-1786.3"/>
<polygon fill="black" stroke="black" points="1676.99,-1789.18 1683.82,-1781.08 1673.43,-1783.15 1676.99,-1789.18"/>
</g>
<!-- Node0x557d8d6bd508&#45;&gt;Node0x557d8d6c3958 -->
<g id="edge101" class="edge">
<title>Node0x557d8d6bd508&#45;&gt;Node0x557d8d6c3958</title>
<path fill="none" stroke="black" d="M205.22,-2358.9C213.2,-2162.48 287.43,-438.92 443,-282.1 535.34,-189.01 1534.49,-193.37 1623,-290.1 1701.8,-376.22 1581.86,-1252.48 1659,-1340.1 1663.73,-1345.47 1669.08,-1350.06 1674.88,-1353.97"/>
<polygon fill="black" stroke="black" points="1673.31,-1357.11 1683.69,-1359.23 1676.9,-1351.1 1673.31,-1357.11"/>
</g>
<!-- Node0x557d8d6bd508&#45;&gt;Node0x557d8d6c0b68 -->
<g id="edge92" class="edge">
<title>Node0x557d8d6bd508&#45;&gt;Node0x557d8d6c0b68</title>
<path fill="none" stroke="black" d="M215.35,-2395.25C245.19,-2443.6 333.61,-2576.36 443,-2644.1 662,-2779.71 744.42,-2797.1 1002,-2797.1 1002,-2797.1 1002,-2797.1 1827,-2797.1 1949.28,-2797.1 2320.81,-2676.22 2373,-2604.1 2435.9,-2517.17 2379.85,-1742.36 2409,-1639.1 2436.36,-1542.18 2505.17,-1442.62 2539.84,-1396.51"/>
<polygon fill="black" stroke="black" points="2542.84,-1398.35 2546.1,-1388.27 2537.27,-1394.12 2542.84,-1398.35"/>
</g>
<!-- Node0x557d8d6bd508&#45;&gt;Node0x557d8d6cf528 -->
<g id="edge100" class="edge">
<title>Node0x557d8d6bd508&#45;&gt;Node0x557d8d6cf528</title>
<path fill="none" stroke="black" d="M207.98,-2395.45C222.22,-2464.78 283.04,-2711.78 443,-2811.1 548.63,-2876.68 877.66,-2835.1 1002,-2835.1 1002,-2835.1 1002,-2835.1 1827,-2835.1 1948.45,-2835.1 2282.19,-2891.74 2373,-2811.1 2546.18,-2657.3 2559.53,-1855.86 2560.45,-1694.44"/>
<polygon fill="black" stroke="black" points="2563.95,-1694.36 2560.5,-1684.34 2556.95,-1694.33 2563.95,-1694.36"/>
</g>
<!-- Node0x557d8d6bd508&#45;&gt;Node0x557d8d6cbd38 -->
<g id="edge98" class="edge">
<title>Node0x557d8d6bd508&#45;&gt;Node0x557d8d6cbd38</title>
<path fill="none" stroke="black" d="M207.29,-2395.2C219.44,-2467.12 274.9,-2734 443,-2843.1 547.35,-2910.82 877.6,-2873.1 1002,-2873.1 1002,-2873.1 1002,-2873.1 2202,-2873.1 2385.7,-2873.1 2596.24,-2873.1 2739.46,-2873.1"/>
<polygon fill="black" stroke="black" points="2739.65,-2876.6 2749.65,-2873.1 2739.65,-2869.6 2739.65,-2876.6"/>
</g>
<!-- Node0x557d8d6bd508&#45;&gt;Node0x557d8d6aa908 -->
<g id="edge91" class="edge">
<title>Node0x557d8d6bd508&#45;&gt;Node0x557d8d6aa908</title>
<path fill="none" stroke="black" d="M367.51,-2377.1C391.9,-2377.1 417.1,-2377.1 441.64,-2377.1"/>
<polygon fill="black" stroke="black" points="441.74,-2380.6 451.74,-2377.1 441.74,-2373.6 441.74,-2380.6"/>
</g>
<!-- Node0x557d8d6bd508&#45;&gt;Node0x557d8d6cacf8 -->
<g id="edge97" class="edge">
<title>Node0x557d8d6bd508&#45;&gt;Node0x557d8d6cacf8</title>
<path fill="none" stroke="black" d="M207.11,-2359.08C224.52,-2239.69 326.65,-1550.34 443,-995.1 496.97,-737.56 579.49,-430.03 604.83,-337.05"/>
<polygon fill="black" stroke="black" points="608.24,-337.84 607.5,-327.27 601.49,-336 608.24,-337.84"/>
</g>
<!-- Node0x557d8d6c9bc8 -->
<g id="node45" class="node">
<title>Node0x557d8d6c9bc8</title>
<polygon fill="none" stroke="black" points="1166,-1417.1 840,-1417.1 840,-1381.1 1166,-1381.1 1166,-1417.1"/>
<text text-anchor="middle" x="1003" y="-1395.4" font-family="Times,serif" font-size="14.00">{lib/libLLVMMC.a(MCELFStreamer.cpp.o)}</text>
</g>
<!-- Node0x557d8d6c9bc8&#45;&gt;Node0x557d8d6bf5d8 -->
<g id="edge103" class="edge">
<title>Node0x557d8d6c9bc8&#45;&gt;Node0x557d8d6bf5d8</title>
<path fill="none" stroke="black" d="M1116.22,-1417.12C1142.58,-1426.47 1168.15,-1440.63 1186,-1462.1 1254.41,-1544.34 1145.77,-1625.04 1222,-1700.1 1235.19,-1713.08 1251.45,-1721.85 1268.96,-1727.59"/>
<polygon fill="black" stroke="black" points="1268.22,-1731.02 1278.8,-1730.47 1270.19,-1724.3 1268.22,-1731.02"/>
</g>
<!-- Node0x557d8d6c9bc8&#45;&gt;Node0x557d8d6c93a8 -->
<g id="edge104" class="edge">
<title>Node0x557d8d6c9bc8&#45;&gt;Node0x557d8d6c93a8</title>
<path fill="none" stroke="black" d="M1009.26,-1381.09C1027.35,-1322.99 1093.04,-1140.23 1222,-1071.1 1300.54,-1028.99 1556.59,-1011.68 1623,-1071.1 1676.82,-1119.25 1609.23,-1341.76 1659,-1394.1 1666.4,-1401.87 1675.09,-1407.97 1684.56,-1412.72"/>
<polygon fill="black" stroke="black" points="1683.29,-1415.99 1693.85,-1416.86 1686.14,-1409.59 1683.29,-1415.99"/>
</g>
<!-- Node0x557d8d6c9bc8&#45;&gt;Node0x557d8d6cb3d8 -->
<g id="edge105" class="edge">
<title>Node0x557d8d6c9bc8&#45;&gt;Node0x557d8d6cb3d8</title>
<path fill="none" stroke="black" d="M1006.83,-1380.83C1022.88,-1280.05 1105.71,-793.35 1222,-708.1 1365.74,-602.73 1493.09,-586.09 1623,-708.1 1716,-795.44 1574.72,-1185.31 1659,-1281.1 1661.45,-1283.88 1664.06,-1286.47 1666.81,-1288.87"/>
<polygon fill="black" stroke="black" points="1664.88,-1291.8 1674.92,-1295.16 1669.17,-1286.27 1664.88,-1291.8"/>
</g>
<!-- Node0x557d8d6c9bc8&#45;&gt;Node0x557d8d6ccc38 -->
<g id="edge107" class="edge">
<title>Node0x557d8d6c9bc8&#45;&gt;Node0x557d8d6ccc38</title>
<path fill="none" stroke="black" d="M1117.57,-1417.13C1143.58,-1426.48 1168.65,-1440.65 1186,-1462.1 1268.23,-1563.76 1125.42,-1665.95 1222,-1754.1 1285.68,-1812.22 1516.85,-1803.44 1673.74,-1789.78"/>
<polygon fill="black" stroke="black" points="1674.31,-1793.24 1683.96,-1788.87 1673.69,-1786.27 1674.31,-1793.24"/>
</g>
<!-- Node0x557d8d6c9bc8&#45;&gt;Node0x557d8d6c3958 -->
<g id="edge109" class="edge">
<title>Node0x557d8d6c9bc8&#45;&gt;Node0x557d8d6c3958</title>
<path fill="none" stroke="black" d="M1005.57,-1380.78C1013.04,-1306.77 1051.95,-1028.63 1222,-919.1 1371.83,-822.59 1491.72,-798.56 1623,-919.1 1692.17,-982.6 1595.17,-1271.23 1659,-1340.1 1663.8,-1345.28 1669.18,-1349.72 1674.97,-1353.52"/>
<polygon fill="black" stroke="black" points="1673.35,-1356.62 1683.76,-1358.63 1676.88,-1350.57 1673.35,-1356.62"/>
</g>
<!-- Node0x557d8d6c9bc8&#45;&gt;Node0x557d8d6c4858 -->
<g id="edge110" class="edge">
<title>Node0x557d8d6c9bc8&#45;&gt;Node0x557d8d6c4858</title>
<path fill="none" stroke="black" d="M1118.25,-1417.14C1144.09,-1426.5 1168.9,-1440.66 1186,-1462.1 1277.72,-1577.09 1136.91,-1671.11 1222,-1791.1 1321.78,-1931.81 1518.58,-1988.62 1660.25,-2011.56"/>
<polygon fill="black" stroke="black" points="1659.93,-2015.06 1670.36,-2013.16 1661.02,-2008.14 1659.93,-2015.06"/>
</g>
<!-- Node0x557d8d6c9bc8&#45;&gt;Node0x557d8d6c0b68 -->
<g id="edge102" class="edge">
<title>Node0x557d8d6c9bc8&#45;&gt;Node0x557d8d6c0b68</title>
<path fill="none" stroke="black" d="M1006.13,-1381.04C1019.23,-1273.37 1092.63,-717.27 1222,-619.1 1377.23,-501.3 2212.16,-542.11 2373,-675.1 2480.06,-763.62 2542.57,-1222.51 2557.18,-1341.75"/>
<polygon fill="black" stroke="black" points="2553.73,-1342.4 2558.4,-1351.91 2560.68,-1341.56 2553.73,-1342.4"/>
</g>
<!-- Node0x557d8d6c9bc8&#45;&gt;Node0x557d8d6cf528 -->
<g id="edge108" class="edge">
<title>Node0x557d8d6c9bc8&#45;&gt;Node0x557d8d6cf528</title>
<path fill="none" stroke="black" d="M1119.63,-1417.14C1145.11,-1426.51 1169.42,-1440.68 1186,-1462.1 1247.4,-1541.43 1159.84,-1833.35 1222,-1912.1 1348.53,-2072.39 1457.3,-2022.15 1659,-2054.1 1805.62,-2077.32 1854.25,-2106.85 1993,-2054.1 2013.01,-2046.49 2011.01,-2033.7 2029,-2022.1 2169.64,-1931.44 2236.99,-1966.56 2373,-1869.1 2445.09,-1817.44 2510.83,-1734.54 2541.81,-1692.45"/>
<polygon fill="black" stroke="black" points="2544.82,-1694.26 2547.88,-1684.12 2539.16,-1690.14 2544.82,-1694.26"/>
</g>
<!-- Node0x557d8d6c9bc8&#45;&gt;Node0x557d8d6c7be8 -->
<g id="edge106" class="edge">
<title>Node0x557d8d6c9bc8&#45;&gt;Node0x557d8d6c7be8</title>
<path fill="none" stroke="black" d="M1079.77,-1417.19C1201.38,-1445.78 1447.9,-1501.85 1659,-1538.1 1806.57,-1563.44 1844.64,-1561.93 1993,-1582.1 2015.5,-1585.15 2039.36,-1588.45 2062.58,-1591.68"/>
<polygon fill="black" stroke="black" points="2062.1,-1595.15 2072.48,-1593.07 2063.06,-1588.22 2062.1,-1595.15"/>
</g>
<!-- Node0x557d8d6c70f8 -->
<g id="node46" class="node">
<title>Node0x557d8d6c70f8</title>
<polygon fill="none" stroke="black" points="1176.5,-159.1 829.5,-159.1 829.5,-123.1 1176.5,-123.1 1176.5,-159.1"/>
<text text-anchor="middle" x="1003" y="-137.4" font-family="Times,serif" font-size="14.00">{lib/libLLVMMC.a(MCMachOStreamer.cpp.o)}</text>
</g>
<!-- Node0x557d8d6c70f8&#45;&gt;Node0x557d8d6bf5d8 -->
<g id="edge112" class="edge">
<title>Node0x557d8d6c70f8&#45;&gt;Node0x557d8d6bf5d8</title>
<path fill="none" stroke="black" d="M1075.98,-159.23C1115.66,-173.25 1161.69,-197.07 1186,-236.1 1229.02,-305.15 1167.72,-1639.49 1222,-1700.1 1234.69,-1714.27 1251,-1723.63 1268.82,-1729.59"/>
<polygon fill="black" stroke="black" points="1268.28,-1733.08 1278.86,-1732.57 1270.27,-1726.37 1268.28,-1733.08"/>
</g>
<!-- Node0x557d8d6c70f8&#45;&gt;Node0x557d8d6c93a8 -->
<g id="edge113" class="edge">
<title>Node0x557d8d6c70f8&#45;&gt;Node0x557d8d6c93a8</title>
<path fill="none" stroke="black" d="M1069.11,-159.15C1112.31,-170.87 1170.36,-186.14 1222,-198.1 1399.14,-239.11 1505.61,-140.25 1623,-279.1 1703.03,-373.75 1577.18,-1300.98 1659,-1394.1 1666.23,-1402.33 1674.9,-1408.72 1684.45,-1413.65"/>
<polygon fill="black" stroke="black" points="1683.29,-1416.97 1693.84,-1417.93 1686.19,-1410.6 1683.29,-1416.97"/>
</g>
<!-- Node0x557d8d6c70f8&#45;&gt;Node0x557d8d6cb3d8 -->
<g id="edge114" class="edge">
<title>Node0x557d8d6c70f8&#45;&gt;Node0x557d8d6cb3d8</title>
<path fill="none" stroke="black" d="M1176.69,-136.01C1348.85,-132.79 1592.05,-133.98 1623,-165.1 1707.52,-250.07 1591.08,-1144.36 1659,-1243.1 1674.55,-1265.7 1698.94,-1281.04 1724.28,-1291.43"/>
<polygon fill="black" stroke="black" points="1723.05,-1294.7 1733.64,-1295.03 1725.57,-1288.17 1723.05,-1294.7"/>
</g>
<!-- Node0x557d8d6c70f8&#45;&gt;Node0x557d8d6c3958 -->
<g id="edge117" class="edge">
<title>Node0x557d8d6c70f8&#45;&gt;Node0x557d8d6c3958</title>
<path fill="none" stroke="black" d="M1173.58,-159.12C1189.94,-160.82 1206.29,-162.5 1222,-164.1 1266.54,-168.61 1592.4,-170.43 1623,-203.1 1709.41,-295.34 1575.6,-1245.12 1659,-1340.1 1663.72,-1345.48 1669.07,-1350.08 1674.87,-1353.99"/>
<polygon fill="black" stroke="black" points="1673.29,-1357.13 1683.67,-1359.25 1676.88,-1351.12 1673.29,-1357.13"/>
</g>
<!-- Node0x557d8d6c70f8&#45;&gt;Node0x557d8d6c0b68 -->
<g id="edge111" class="edge">
<title>Node0x557d8d6c70f8&#45;&gt;Node0x557d8d6c0b68</title>
<path fill="none" stroke="black" d="M1036.34,-123C1077.82,-100.92 1152.72,-64.84 1222,-51.1 1396.82,-16.43 1449.29,-11.27 1623,-51.1 1983.96,-133.86 2146.87,-120.83 2373,-414.1 2490.14,-566.01 2546.9,-1199.32 2558.32,-1341.63"/>
<polygon fill="black" stroke="black" points="2554.84,-1342.04 2559.12,-1351.73 2561.82,-1341.49 2554.84,-1342.04"/>
</g>
<!-- Node0x557d8d6c70f8&#45;&gt;Node0x557d8d6cf528 -->
<g id="edge116" class="edge">
<title>Node0x557d8d6c70f8&#45;&gt;Node0x557d8d6cf528</title>
<path fill="none" stroke="black" d="M1060.67,-123.04C1104.26,-110.13 1166.27,-93.9 1222,-87.1 1310.46,-76.31 1544.2,-45.49 1623,-87.1 1753.65,-156.08 2317.69,-1048.1 2373,-1185.1 2408.78,-1273.72 2377.08,-1307.02 2409,-1397.1 2442.72,-1492.26 2508.84,-1593.01 2541.42,-1639.61"/>
<polygon fill="black" stroke="black" points="2538.66,-1641.78 2547.29,-1647.93 2544.39,-1637.74 2538.66,-1641.78"/>
</g>
<!-- Node0x557d8d6c70f8&#45;&gt;Node0x557d8d6c7be8 -->
<g id="edge115" class="edge">
<title>Node0x557d8d6c70f8&#45;&gt;Node0x557d8d6c7be8</title>
<path fill="none" stroke="black" d="M1105.19,-123.08C1261.62,-97.84 1551.64,-62.26 1623,-131.1 1702.86,-208.13 1592.83,-1040.03 1659,-1129.1 1752.54,-1255.01 1892.76,-1122.46 1993,-1243.1 2063.9,-1328.42 1971.03,-1395.51 2029,-1490.1 2056.8,-1535.45 2108.66,-1568.48 2148.01,-1588.46"/>
<polygon fill="black" stroke="black" points="2146.69,-1591.72 2157.21,-1593.02 2149.8,-1585.44 2146.69,-1591.72"/>
</g>
<!-- Node0x557d8d6c89a8 -->
<g id="node47" class="node">
<title>Node0x557d8d6c89a8</title>
<polygon fill="none" stroke="black" points="2364.5,-2067.1 2037.5,-2067.1 2037.5,-2031.1 2364.5,-2031.1 2364.5,-2067.1"/>
<text text-anchor="middle" x="2201" y="-2045.4" font-family="Times,serif" font-size="14.00">{lib/libLLVMMC.a(MCNullStreamer.cpp.o)}</text>
</g>
<!-- Node0x557d8d6c89a8&#45;&gt;Node0x557d8d6cf528 -->
<g id="edge118" class="edge">
<title>Node0x557d8d6c89a8&#45;&gt;Node0x557d8d6cf528</title>
<path fill="none" stroke="black" d="M2349,-2031.03C2357.48,-2027.15 2365.57,-2022.54 2373,-2017.1 2486.18,-1934.12 2537.8,-1761.83 2554.29,-1694.21"/>
<polygon fill="black" stroke="black" points="2557.75,-1694.82 2556.64,-1684.28 2550.93,-1693.21 2557.75,-1694.82"/>
</g>
<!-- Node0x557d8d6c5c58 -->
<g id="node48" class="node">
<title>Node0x557d8d6c5c58</title>
<polygon fill="none" stroke="black" points="1592.5,-1333.1 1252.5,-1333.1 1252.5,-1297.1 1592.5,-1297.1 1592.5,-1333.1"/>
<text text-anchor="middle" x="1422.5" y="-1311.4" font-family="Times,serif" font-size="14.00">{lib/libLLVMMC.a(MCWasmStreamer.cpp.o)}</text>
</g>
<!-- Node0x557d8d6c5c58&#45;&gt;Node0x557d8d6c93a8 -->
<g id="edge120" class="edge">
<title>Node0x557d8d6c5c58&#45;&gt;Node0x557d8d6c93a8</title>
<path fill="none" stroke="black" d="M1592.54,-1332.6C1603.18,-1336.61 1613.44,-1341.39 1623,-1347.1 1645.59,-1360.58 1636.42,-1380.59 1659,-1394.1 1666.91,-1398.83 1675.4,-1402.81 1684.2,-1406.14"/>
<polygon fill="black" stroke="black" points="1683.26,-1409.52 1693.85,-1409.51 1685.57,-1402.91 1683.26,-1409.52"/>
</g>
<!-- Node0x557d8d6c5c58&#45;&gt;Node0x557d8d6c3958 -->
<g id="edge123" class="edge">
<title>Node0x557d8d6c5c58&#45;&gt;Node0x557d8d6c3958</title>
<path fill="none" stroke="black" d="M1562.52,-1333.1C1598.97,-1337.82 1638.43,-1342.93 1675.4,-1347.72"/>
<polygon fill="black" stroke="black" points="1675.4,-1351.25 1685.76,-1349.06 1676.3,-1344.31 1675.4,-1351.25"/>
</g>
<!-- Node0x557d8d6c5c58&#45;&gt;Node0x557d8d6c0b68 -->
<g id="edge119" class="edge">
<title>Node0x557d8d6c5c58&#45;&gt;Node0x557d8d6c0b68</title>
<path fill="none" stroke="black" d="M1592.79,-1308.8C1603.87,-1303.55 1614.12,-1296.76 1623,-1288.1 1695.47,-1217.36 1581.94,-1128.81 1659,-1063.1 1900.46,-857.2 2096.24,-907.83 2373,-1063.1 2482.38,-1124.46 2535.53,-1278.47 2553.37,-1342.01"/>
<polygon fill="black" stroke="black" points="2550.01,-1343.02 2556.02,-1351.75 2556.77,-1341.18 2550.01,-1343.02"/>
</g>
<!-- Node0x557d8d6c5c58&#45;&gt;Node0x557d8d6cf528 -->
<g id="edge122" class="edge">
<title>Node0x557d8d6c5c58&#45;&gt;Node0x557d8d6cf528</title>
<path fill="none" stroke="black" d="M1432.62,-1333.21C1466.7,-1400.07 1588.22,-1631.12 1659,-1670.1 1782.55,-1738.13 2178.96,-1708.39 2402.8,-1684.82"/>
<polygon fill="black" stroke="black" points="2403.42,-1688.27 2412.99,-1683.74 2402.68,-1681.31 2403.42,-1688.27"/>
</g>
<!-- Node0x557d8d6c5c58&#45;&gt;Node0x557d8d6c7be8 -->
<g id="edge121" class="edge">
<title>Node0x557d8d6c5c58&#45;&gt;Node0x557d8d6c7be8</title>
<path fill="none" stroke="black" d="M1530.99,-1333.11C1564.23,-1343.42 1598.51,-1359.63 1623,-1385.1 1660.71,-1424.31 1617.39,-1467.04 1659,-1502.1 1773.46,-1598.54 1855.33,-1486.39 1993,-1545.1 2011.9,-1553.16 2010.46,-1565.24 2029,-1574.1 2042.49,-1580.54 2057.11,-1585.87 2071.94,-1590.29"/>
<polygon fill="black" stroke="black" points="2071.12,-1593.69 2081.7,-1593.06 2073.03,-1586.96 2071.12,-1593.69"/>
</g>
<!-- Node0x557d8d6c8188 -->
<g id="node49" class="node">
<title>Node0x557d8d6c8188</title>
<polygon fill="none" stroke="black" points="1596.5,-2441.1 1248.5,-2441.1 1248.5,-2405.1 1596.5,-2405.1 1596.5,-2441.1"/>
<text text-anchor="middle" x="1422.5" y="-2419.4" font-family="Times,serif" font-size="14.00">{lib/libLLVMMC.a(MCXCOFFStreamer.cpp.o)}</text>
</g>
<!-- Node0x557d8d6c8188&#45;&gt;Node0x557d8d6c4948 -->
<g id="edge127" class="edge">
<title>Node0x557d8d6c8188&#45;&gt;Node0x557d8d6c4948</title>
<path fill="none" stroke="black" d="M1588.9,-2441.15C1600.73,-2444.99 1612.22,-2449.59 1623,-2455.1 1643.15,-2465.39 1639.01,-2480.49 1659,-2491.1 1666.63,-2495.15 1674.7,-2498.69 1683,-2501.78"/>
<polygon fill="black" stroke="black" points="1681.88,-2505.1 1692.47,-2505.09 1684.19,-2498.49 1681.88,-2505.1"/>
</g>
<!-- Node0x557d8d6c8188&#45;&gt;Node0x557d8d6c0b68 -->
<g id="edge124" class="edge">
<title>Node0x557d8d6c8188&#45;&gt;Node0x557d8d6c0b68</title>
<path fill="none" stroke="black" d="M1596.58,-2432.12C1855.4,-2443.77 2318.85,-2456.8 2373,-2404.1 2433.98,-2344.75 2385.49,-1720.88 2409,-1639.1 2436.83,-1542.31 2505.42,-1442.69 2539.94,-1396.54"/>
<polygon fill="black" stroke="black" points="2542.94,-1398.38 2546.18,-1388.29 2537.35,-1394.16 2542.94,-1398.38"/>
</g>
<!-- Node0x557d8d6c8188&#45;&gt;Node0x557d8d6cf528 -->
<g id="edge126" class="edge">
<title>Node0x557d8d6c8188&#45;&gt;Node0x557d8d6cf528</title>
<path fill="none" stroke="black" d="M1532.05,-2441.11C1753.13,-2475.22 2245.49,-2537.32 2373,-2437.1 2494.42,-2341.67 2546.98,-1821.97 2558.16,-1694.39"/>
<polygon fill="black" stroke="black" points="2561.66,-1694.52 2559.03,-1684.25 2554.69,-1693.92 2561.66,-1694.52"/>
</g>
<!-- Node0x557d8d6c8188&#45;&gt;Node0x557d8d6c7be8 -->
<g id="edge125" class="edge">
<title>Node0x557d8d6c8188&#45;&gt;Node0x557d8d6c7be8</title>
<path fill="none" stroke="black" d="M1593.12,-2405.09C1724.64,-2381.48 1899.72,-2326.95 1993,-2201.1 2055.24,-2117.12 1977.44,-1823.03 2029,-1732.1 2055.13,-1686.02 2106.88,-1653.2 2146.64,-1633.48"/>
<polygon fill="black" stroke="black" points="2148.21,-1636.6 2155.69,-1629.1 2145.17,-1630.3 2148.21,-1636.6"/>
</g>
<!-- Node0x557d8d6c82c8&#45;&gt;Node0x557d8d6bf5d8 -->
<g id="edge128" class="edge">
<title>Node0x557d8d6c82c8&#45;&gt;Node0x557d8d6bf5d8</title>
<path fill="none" stroke="#7fb2ff" d="M2034.78,-1748.29C2020.65,-1747.49 2006.58,-1746.75 1993,-1746.1 1851.88,-1739.31 1690.98,-1734.19 1576.28,-1730.98"/>
<polygon fill="#7fb2ff" stroke="#7fb2ff" points="1576.11,-1727.47 1566.02,-1730.69 1575.92,-1734.47 1576.11,-1727.47"/>
</g>
<!-- Node0x557d8d6cd188 -->
<g id="node51" class="node">
<title>Node0x557d8d6cd188</title>
<polygon fill="none" stroke="black" points="1584,-753.1 1261,-753.1 1261,-717.1 1584,-717.1 1584,-753.1"/>
<text text-anchor="middle" x="1422.5" y="-731.4" font-family="Times,serif" font-size="14.00">{lib/libLLVMMC.a(MCSectionCOFF.cpp.o)}</text>
</g>
<!-- Node0x557d8d6cd188&#45;&gt;Node0x557d8d6c3958 -->
<g id="edge137" class="edge">
<title>Node0x557d8d6cd188&#45;&gt;Node0x557d8d6c3958</title>
<path fill="none" stroke="black" d="M1584.09,-740.25C1598.76,-746.47 1612.15,-755.15 1623,-767.1 1708.77,-861.55 1573.33,-1245.55 1659,-1340.1 1663.81,-1345.4 1669.22,-1349.94 1675.07,-1353.81"/>
<polygon fill="black" stroke="black" points="1673.55,-1356.97 1683.94,-1359.01 1677.08,-1350.93 1673.55,-1356.97"/>
</g>
<!-- Node0x557d8d6ceee8 -->
<g id="node52" class="node">
<title>Node0x557d8d6ceee8</title>
<polygon fill="none" stroke="black" points="1578,-1279.1 1267,-1279.1 1267,-1243.1 1578,-1243.1 1578,-1279.1"/>
<text text-anchor="middle" x="1422.5" y="-1257.4" font-family="Times,serif" font-size="14.00">{lib/libLLVMMC.a(MCSectionELF.cpp.o)}</text>
</g>
<!-- Node0x557d8d6ceee8&#45;&gt;Node0x557d8d6c93a8 -->
<g id="edge169" class="edge">
<title>Node0x557d8d6ceee8&#45;&gt;Node0x557d8d6c93a8</title>
<path fill="none" stroke="black" d="M1578.19,-1264.23C1594.47,-1269.58 1609.85,-1277.27 1623,-1288.1 1661.41,-1319.73 1621.02,-1361.96 1659,-1394.1 1666.69,-1400.6 1675.32,-1405.85 1684.5,-1410.05"/>
<polygon fill="black" stroke="black" points="1683.27,-1413.33 1693.85,-1413.91 1685.95,-1406.86 1683.27,-1413.33"/>
</g>
<!-- Node0x557d8d6d0298 -->
<g id="node53" class="node">
<title>Node0x557d8d6d0298</title>
<polygon fill="none" stroke="black" points="1586,-1691.1 1259,-1691.1 1259,-1655.1 1586,-1655.1 1586,-1691.1"/>
<text text-anchor="middle" x="1422.5" y="-1669.4" font-family="Times,serif" font-size="14.00">{lib/libLLVMMC.a(MCSectionWasm.cpp.o)}</text>
</g>
<!-- Node0x557d8d6d0298&#45;&gt;Node0x557d8d6c93a8 -->
<g id="edge170" class="edge">
<title>Node0x557d8d6d0298&#45;&gt;Node0x557d8d6c93a8</title>
<path fill="none" stroke="black" d="M1586.06,-1665.17C1599.7,-1659.34 1612.33,-1651.5 1623,-1641.1 1685.48,-1580.18 1596.59,-1509.08 1659,-1448.1 1666.52,-1440.75 1675.2,-1434.94 1684.58,-1430.37"/>
<polygon fill="black" stroke="black" points="1686,-1433.57 1693.76,-1426.37 1683.2,-1427.15 1686,-1433.57"/>
</g>
<!-- Node0x557d8d6d0298&#45;&gt;Node0x557d8d6ccc38 -->
<g id="edge171" class="edge">
<title>Node0x557d8d6d0298&#45;&gt;Node0x557d8d6ccc38</title>
<path fill="none" stroke="black" d="M1580.38,-1691.11C1594.86,-1693.74 1609.25,-1696.72 1623,-1700.1 1675.64,-1713.01 1733.62,-1734.8 1773.91,-1751.21"/>
<polygon fill="black" stroke="black" points="1772.67,-1754.49 1783.25,-1755.05 1775.33,-1748.01 1772.67,-1754.49"/>
</g>
</g>
</svg>
