<?xml version="1.0" encoding="UTF-8" standalone="no"?>
<!DOCTYPE svg PUBLIC "-//W3C//DTD SVG 1.1//EN"
 "http://www.w3.org/Graphics/SVG/1.1/DTD/svg11.dtd">
<!-- Generated by graphviz version 2.43.0 (0)
 -->
<!-- Title: bin/llvm&#45;mc_lib/libLLVMMC.a Pages: 1 -->
<svg width="2450pt" height="2612pt"
 viewBox="0.00 0.00 2450.00 2612.31" xmlns="http://www.w3.org/2000/svg" xmlns:xlink="http://www.w3.org/1999/xlink">
<g id="graph0" class="graph" transform="scale(1 1) rotate(0) translate(4 2608.31)">
<title>bin/llvm&#45;mc_lib/libLLVMMC.a</title>
<polygon fill="white" stroke="transparent" points="-4,4 -4,-2608.31 2446,-2608.31 2446,4 -4,4"/>
<text text-anchor="middle" x="1221" y="-7.8" font-family="Times,serif" font-size="14.00">bin/llvm&#45;mc_lib/libLLVMMC.a</text>
<!-- Node0x55fdce6aae28 -->
<g id="node1" class="node">
<title>Node0x55fdce6aae28</title>
<polygon fill="none" stroke="black" points="826.5,-717.31 499.5,-717.31 499.5,-681.31 826.5,-681.31 826.5,-717.31"/>
<text text-anchor="middle" x="663" y="-695.61" font-family="Times,serif" font-size="14.00">{lib/libLLVMMC.a(MCNullStreamer.cpp.o)}</text>
</g>
<!-- Node0x55fdce6a82b8 -->
<g id="node2" class="node">
<title>Node0x55fdce6a82b8</title>
<polygon fill="#7fb2ff" stroke="black" points="1213.5,-755.31 916.5,-755.31 916.5,-719.31 1213.5,-719.31 1213.5,-755.31"/>
<text text-anchor="middle" x="1065" y="-733.61" font-family="Times,serif" font-size="14.00">{lib/libLLVMMC.a(MCStreamer.cpp.o)}</text>
</g>
<!-- Node0x55fdce6aae28&#45;&gt;Node0x55fdce6a82b8 -->
<g id="edge1" class="edge">
<title>Node0x55fdce6aae28&#45;&gt;Node0x55fdce6a82b8</title>
<path fill="none" stroke="black" d="M826.7,-714.77C852.97,-717.26 880.14,-719.84 906.29,-722.33"/>
<polygon fill="black" stroke="black" points="905.98,-725.81 916.26,-723.27 906.64,-718.84 905.98,-725.81"/>
</g>
<!-- Node0x55fdce6aa5b8 -->
<g id="node3" class="node">
<title>Node0x55fdce6aa5b8</title>
<polygon fill="#7fb2ff" stroke="black" points="1646.5,-533.31 1322.5,-533.31 1322.5,-497.31 1646.5,-497.31 1646.5,-533.31"/>
<text text-anchor="middle" x="1484.5" y="-511.61" font-family="Times,serif" font-size="14.00">{lib/libLLVMMC.a(MCPseudoProbe.cpp.o)}</text>
</g>
<!-- Node0x55fdce6a82b8&#45;&gt;Node0x55fdce6aa5b8 -->
<g id="edge107" class="edge">
<title>Node0x55fdce6a82b8&#45;&gt;Node0x55fdce6aa5b8</title>
<path fill="none" stroke="#7fb2ff" d="M1081.04,-719.15C1114.98,-685.24 1201.02,-613.41 1284,-571.31 1311.36,-557.43 1342.31,-545.64 1371.53,-536.4"/>
<polygon fill="#7fb2ff" stroke="#7fb2ff" points="1372.85,-539.66 1381.37,-533.36 1370.78,-532.97 1372.85,-539.66"/>
</g>
<!-- Node0x55fdce6a88a8 -->
<g id="node4" class="node">
<title>Node0x55fdce6a88a8</title>
<polygon fill="none" stroke="black" points="1644.5,-1219.31 1324.5,-1219.31 1324.5,-1183.31 1644.5,-1183.31 1644.5,-1219.31"/>
<text text-anchor="middle" x="1484.5" y="-1197.61" font-family="Times,serif" font-size="14.00">{lib/libLLVMMC.a(MCRegisterInfo.cpp.o)}</text>
</g>
<!-- Node0x55fdce6a82b8&#45;&gt;Node0x55fdce6a88a8 -->
<g id="edge108" class="edge">
<title>Node0x55fdce6a82b8&#45;&gt;Node0x55fdce6a88a8</title>
<path fill="none" stroke="black" d="M1084.67,-755.54C1120.26,-791.08 1198.63,-873.27 1248,-954.31 1269.56,-989.7 1259.12,-1007.18 1284,-1040.31 1328.51,-1099.58 1399.53,-1149.86 1443.74,-1177.78"/>
<polygon fill="black" stroke="black" points="1442.14,-1180.9 1452.47,-1183.22 1445.84,-1174.96 1442.14,-1180.9"/>
</g>
<!-- Node0x55fdce6a8f38 -->
<g id="node5" class="node">
<title>Node0x55fdce6a8f38</title>
<polygon fill="#7fb2ff" stroke="black" points="1626.5,-885.31 1342.5,-885.31 1342.5,-849.31 1626.5,-849.31 1626.5,-885.31"/>
<text text-anchor="middle" x="1484.5" y="-863.61" font-family="Times,serif" font-size="14.00">{lib/libLLVMMC.a(MCSection.cpp.o)}</text>
</g>
<!-- Node0x55fdce6a82b8&#45;&gt;Node0x55fdce6a8f38 -->
<g id="edge109" class="edge">
<title>Node0x55fdce6a82b8&#45;&gt;Node0x55fdce6a8f38</title>
<path fill="none" stroke="#7fb2ff" d="M1208.61,-755.42C1222.2,-759.21 1235.54,-763.78 1248,-769.31 1266.53,-777.53 1266.2,-787.6 1284,-797.31 1321.86,-817.96 1367,-834.4 1404.75,-846.14"/>
<polygon fill="#7fb2ff" stroke="#7fb2ff" points="1404.1,-849.6 1414.69,-849.18 1406.15,-842.91 1404.1,-849.6"/>
</g>
<!-- Node0x55fdce6a9898 -->
<g id="node6" class="node">
<title>Node0x55fdce6a9898</title>
<polygon fill="#7fb2ff" stroke="black" points="1634.5,-625.31 1334.5,-625.31 1334.5,-589.31 1634.5,-589.31 1634.5,-625.31"/>
<text text-anchor="middle" x="1484.5" y="-603.61" font-family="Times,serif" font-size="14.00">{lib/libLLVMMC.a(MCCodeView.cpp.o)}</text>
</g>
<!-- Node0x55fdce6a82b8&#45;&gt;Node0x55fdce6a9898 -->
<g id="edge110" class="edge">
<title>Node0x55fdce6a82b8&#45;&gt;Node0x55fdce6a9898</title>
<path fill="none" stroke="#7fb2ff" d="M1109.89,-719.3C1178.2,-695.3 1311.16,-653.49 1398.64,-628.18"/>
<polygon fill="#7fb2ff" stroke="#7fb2ff" points="1399.64,-631.53 1408.28,-625.4 1397.71,-624.8 1399.64,-631.53"/>
</g>
<!-- Node0x55fdce6aa1f8 -->
<g id="node7" class="node">
<title>Node0x55fdce6aa1f8</title>
<polygon fill="#7fb2ff" stroke="black" points="1628,-939.31 1341,-939.31 1341,-903.31 1628,-903.31 1628,-939.31"/>
<text text-anchor="middle" x="1484.5" y="-917.61" font-family="Times,serif" font-size="14.00">{lib/libLLVMMC.a(MCContext.cpp.o)}</text>
</g>
<!-- Node0x55fdce6a82b8&#45;&gt;Node0x55fdce6aa1f8 -->
<g id="edge111" class="edge">
<title>Node0x55fdce6a82b8&#45;&gt;Node0x55fdce6aa1f8</title>
<path fill="none" stroke="#7fb2ff" d="M1106.31,-755.35C1145.37,-774.12 1204.85,-806.2 1248,-845.31 1268.02,-863.46 1260.76,-880.51 1284,-894.31 1298.45,-902.89 1314.5,-909.2 1331.05,-913.78"/>
<polygon fill="#7fb2ff" stroke="#7fb2ff" points="1330.29,-917.2 1340.84,-916.29 1332.02,-910.42 1330.29,-917.2"/>
</g>
<!-- Node0x55fdce6a7048 -->
<g id="node8" class="node">
<title>Node0x55fdce6a7048</title>
<polygon fill="#7fb2ff" stroke="black" points="1616.5,-1031.31 1352.5,-1031.31 1352.5,-995.31 1616.5,-995.31 1616.5,-1031.31"/>
<text text-anchor="middle" x="1484.5" y="-1009.61" font-family="Times,serif" font-size="14.00">{lib/libLLVMMC.a(MCExpr.cpp.o)}</text>
</g>
<!-- Node0x55fdce6a82b8&#45;&gt;Node0x55fdce6a7048 -->
<g id="edge112" class="edge">
<title>Node0x55fdce6a82b8&#45;&gt;Node0x55fdce6a7048</title>
<path fill="none" stroke="#7fb2ff" d="M1079.52,-755.34C1118.5,-806.84 1231.67,-952.7 1284,-981.31 1301.92,-991.11 1322.01,-998.1 1342.35,-1003.07"/>
<polygon fill="#7fb2ff" stroke="#7fb2ff" points="1341.82,-1006.53 1352.35,-1005.34 1343.38,-999.71 1341.82,-1006.53"/>
</g>
<!-- Node0x55fdce6a6e18 -->
<g id="node9" class="node">
<title>Node0x55fdce6a6e18</title>
<polygon fill="#7fb2ff" stroke="black" points="1626.5,-755.31 1342.5,-755.31 1342.5,-719.31 1626.5,-719.31 1626.5,-755.31"/>
<text text-anchor="middle" x="1484.5" y="-733.61" font-family="Times,serif" font-size="14.00">{lib/libLLVMMC.a(MCSymbol.cpp.o)}</text>
</g>
<!-- Node0x55fdce6a82b8&#45;&gt;Node0x55fdce6a6e18 -->
<g id="edge113" class="edge">
<title>Node0x55fdce6a82b8&#45;&gt;Node0x55fdce6a6e18</title>
<path fill="none" stroke="#7fb2ff" d="M1213.78,-737.31C1252.11,-737.31 1293.45,-737.31 1331.96,-737.31"/>
<polygon fill="#7fb2ff" stroke="#7fb2ff" points="1332.22,-740.81 1342.22,-737.31 1332.22,-733.81 1332.22,-740.81"/>
</g>
<!-- Node0x55fdce6aa5b8&#45;&gt;Node0x55fdce6a82b8 -->
<g id="edge167" class="edge">
<title>Node0x55fdce6aa5b8&#45;&gt;Node0x55fdce6a82b8</title>
<path fill="none" stroke="#7fb2ff" d="M1436.33,-533.36C1394.85,-545.92 1333.54,-564.17 1284,-589.31 1214.54,-624.55 1142.94,-680.62 1101.54,-712.85"/>
<polygon fill="#7fb2ff" stroke="#7fb2ff" points="1099.18,-710.26 1093.43,-719.16 1103.47,-715.79 1099.18,-710.26"/>
</g>
<!-- Node0x55fdce6aa5b8&#45;&gt;Node0x55fdce6a7048 -->
<g id="edge165" class="edge">
<title>Node0x55fdce6aa5b8&#45;&gt;Node0x55fdce6a7048</title>
<path fill="none" stroke="#7fb2ff" d="M1340.84,-533.4C1310.67,-544.5 1282.9,-561.97 1266,-589.31 1243.63,-625.51 1243.63,-936.11 1266,-972.31 1282.71,-999.34 1311.27,-1013.23 1342.34,-1019.63"/>
<polygon fill="#7fb2ff" stroke="#7fb2ff" points="1342.04,-1023.13 1352.5,-1021.45 1343.27,-1016.24 1342.04,-1023.13"/>
</g>
<!-- Node0x55fdce6abaa8 -->
<g id="node10" class="node">
<title>Node0x55fdce6abaa8</title>
<polygon fill="#7fb2ff" stroke="black" points="2059,-613.31 1727,-613.31 1727,-577.31 2059,-577.31 2059,-613.31"/>
<text text-anchor="middle" x="1893" y="-591.61" font-family="Times,serif" font-size="14.00">{lib/libLLVMMC.a(MCObjectFileInfo.cpp.o)}</text>
</g>
<!-- Node0x55fdce6aa5b8&#45;&gt;Node0x55fdce6abaa8 -->
<g id="edge163" class="edge">
<title>Node0x55fdce6aa5b8&#45;&gt;Node0x55fdce6abaa8</title>
<path fill="none" stroke="#7fb2ff" d="M1606.27,-533.31C1632.3,-537.57 1659.61,-542.34 1685,-547.31 1726.21,-555.38 1771.7,-565.77 1809.51,-574.81"/>
<polygon fill="#7fb2ff" stroke="#7fb2ff" points="1808.91,-578.27 1819.46,-577.2 1810.55,-571.46 1808.91,-578.27"/>
</g>
<!-- Node0x55fdce6a9668 -->
<g id="node11" class="node">
<title>Node0x55fdce6a9668</title>
<polygon fill="#7fb2ff" stroke="black" points="2065,-801.31 1721,-801.31 1721,-765.31 2065,-765.31 2065,-801.31"/>
<text text-anchor="middle" x="1893" y="-779.61" font-family="Times,serif" font-size="14.00">{lib/libLLVMMC.a(MCObjectStreamer.cpp.o)}</text>
</g>
<!-- Node0x55fdce6aa5b8&#45;&gt;Node0x55fdce6a9668 -->
<g id="edge164" class="edge">
<title>Node0x55fdce6aa5b8&#45;&gt;Node0x55fdce6a9668</title>
<path fill="none" stroke="#7fb2ff" d="M1646.76,-513.52C1660.93,-519.39 1674.02,-527.46 1685,-538.31 1752.03,-604.57 1653.89,-681.13 1721,-747.31 1726.03,-752.27 1731.58,-756.55 1737.51,-760.24"/>
<polygon fill="#7fb2ff" stroke="#7fb2ff" points="1736.02,-763.41 1746.46,-765.22 1739.43,-757.3 1736.02,-763.41"/>
</g>
<!-- Node0x55fdce6a7278 -->
<g id="node12" class="node">
<title>Node0x55fdce6a7278</title>
<polygon fill="#7fb2ff" stroke="black" points="2044,-747.31 1742,-747.31 1742,-711.31 2044,-711.31 2044,-747.31"/>
<text text-anchor="middle" x="1893" y="-725.61" font-family="Times,serif" font-size="14.00">{lib/libLLVMMC.a(MCFragment.cpp.o)}</text>
</g>
<!-- Node0x55fdce6aa5b8&#45;&gt;Node0x55fdce6a7278 -->
<g id="edge166" class="edge">
<title>Node0x55fdce6aa5b8&#45;&gt;Node0x55fdce6a7278</title>
<path fill="none" stroke="#7fb2ff" d="M1646.9,-526.91C1660.52,-532.04 1673.47,-538.71 1685,-547.31 1714.63,-569.42 1696.35,-594.75 1721,-622.31 1754.25,-659.49 1803.43,-688.42 1840.53,-706.77"/>
<polygon fill="#7fb2ff" stroke="#7fb2ff" points="1839.16,-710 1849.68,-711.21 1842.21,-703.7 1839.16,-710"/>
</g>
<!-- Node0x55fdce6a8f38&#45;&gt;Node0x55fdce6aa1f8 -->
<g id="edge152" class="edge">
<title>Node0x55fdce6a8f38&#45;&gt;Node0x55fdce6aa1f8</title>
<path fill="none" stroke="#7fb2ff" d="M1389.74,-885.34C1378.3,-889.71 1375.22,-894.08 1380.5,-898.45"/>
<polygon fill="#7fb2ff" stroke="#7fb2ff" points="1379.03,-901.63 1389.51,-903.19 1382.29,-895.43 1379.03,-901.63"/>
</g>
<!-- Node0x55fdce6a8f38&#45;&gt;Node0x55fdce6a7048 -->
<g id="edge153" class="edge">
<title>Node0x55fdce6a8f38&#45;&gt;Node0x55fdce6a7048</title>
<path fill="none" stroke="#7fb2ff" d="M1342.43,-857.32C1311.29,-863 1282.67,-876.33 1266,-903.31 1249.88,-929.4 1249.88,-946.22 1266,-972.31 1282.71,-999.34 1311.27,-1013.23 1342.34,-1019.63"/>
<polygon fill="#7fb2ff" stroke="#7fb2ff" points="1342.04,-1023.13 1352.5,-1021.45 1343.27,-1016.24 1342.04,-1023.13"/>
</g>
<!-- Node0x55fdce6a8f38&#45;&gt;Node0x55fdce6a6e18 -->
<g id="edge155" class="edge">
<title>Node0x55fdce6a8f38&#45;&gt;Node0x55fdce6a6e18</title>
<path fill="none" stroke="#7fb2ff" d="M1484.5,-848.94C1484.5,-821.15 1484.5,-793.36 1484.5,-765.57"/>
<polygon fill="#7fb2ff" stroke="#7fb2ff" points="1488,-765.34 1484.5,-755.34 1481,-765.34 1488,-765.34"/>
</g>
<!-- Node0x55fdce6a8f38&#45;&gt;Node0x55fdce6a7278 -->
<g id="edge154" class="edge">
<title>Node0x55fdce6a8f38&#45;&gt;Node0x55fdce6a7278</title>
<path fill="none" stroke="#7fb2ff" d="M1516.35,-849.27C1560.29,-824.39 1644.1,-779.97 1721,-756.31 1728.76,-753.92 1736.79,-751.74 1744.94,-749.74"/>
<polygon fill="#7fb2ff" stroke="#7fb2ff" points="1746,-753.09 1754.93,-747.39 1744.4,-746.27 1746,-753.09"/>
</g>
<!-- Node0x55fdce6a9898&#45;&gt;Node0x55fdce6a82b8 -->
<g id="edge129" class="edge">
<title>Node0x55fdce6a9898&#45;&gt;Node0x55fdce6a82b8</title>
<path fill="none" stroke="#7fb2ff" d="M1439.43,-625.38C1371.05,-649.4 1238.16,-691.18 1150.75,-716.47"/>
<polygon fill="#7fb2ff" stroke="#7fb2ff" points="1149.76,-713.12 1141.12,-719.25 1151.7,-719.84 1149.76,-713.12"/>
</g>
<!-- Node0x55fdce6a9898&#45;&gt;Node0x55fdce6aa1f8 -->
<g id="edge126" class="edge">
<title>Node0x55fdce6a9898&#45;&gt;Node0x55fdce6aa1f8</title>
<path fill="none" stroke="#7fb2ff" d="M1404.91,-625.4C1353.84,-641.57 1291.41,-670.93 1260,-722.31 1250.73,-737.48 1250.65,-867.19 1260,-882.31 1275.79,-907.86 1301.96,-921.68 1330.96,-928.49"/>
<polygon fill="#7fb2ff" stroke="#7fb2ff" points="1330.39,-931.95 1340.89,-930.54 1331.81,-925.09 1330.39,-931.95"/>
</g>
<!-- Node0x55fdce6a9898&#45;&gt;Node0x55fdce6a7048 -->
<g id="edge127" class="edge">
<title>Node0x55fdce6a9898&#45;&gt;Node0x55fdce6a7048</title>
<path fill="none" stroke="#7fb2ff" d="M1405.68,-625.37C1356.23,-641.22 1296.29,-669.75 1266,-719.31 1251.34,-743.3 1251.22,-948.4 1266,-972.31 1282.71,-999.34 1311.27,-1013.23 1342.34,-1019.63"/>
<polygon fill="#7fb2ff" stroke="#7fb2ff" points="1342.04,-1023.13 1352.5,-1021.45 1343.27,-1016.24 1342.04,-1023.13"/>
</g>
<!-- Node0x55fdce6a9898&#45;&gt;Node0x55fdce6a9668 -->
<g id="edge125" class="edge">
<title>Node0x55fdce6a9898&#45;&gt;Node0x55fdce6a9668</title>
<path fill="none" stroke="#7fb2ff" d="M1634.66,-603.27C1653.09,-609.03 1670.51,-617.71 1685,-630.31 1726.06,-666.01 1679.9,-711.66 1721,-747.31 1727.07,-752.57 1733.73,-757.03 1740.8,-760.8"/>
<polygon fill="#7fb2ff" stroke="#7fb2ff" points="1739.43,-764.03 1749.95,-765.23 1742.47,-757.72 1739.43,-764.03"/>
</g>
<!-- Node0x55fdce6a9898&#45;&gt;Node0x55fdce6a7278 -->
<g id="edge128" class="edge">
<title>Node0x55fdce6a9898&#45;&gt;Node0x55fdce6a7278</title>
<path fill="none" stroke="#7fb2ff" d="M1626.28,-625.34C1646.17,-629.2 1666.23,-633.82 1685,-639.31 1743.62,-656.46 1807.59,-686.09 1848.67,-706.64"/>
<polygon fill="#7fb2ff" stroke="#7fb2ff" points="1847.33,-709.89 1857.84,-711.27 1850.49,-703.64 1847.33,-709.89"/>
</g>
<!-- Node0x55fdce6aa1f8&#45;&gt;Node0x55fdce6aa5b8 -->
<g id="edge19" class="edge">
<title>Node0x55fdce6aa1f8&#45;&gt;Node0x55fdce6aa5b8</title>
<path fill="none" stroke="#7fb2ff" d="M1340.73,-930.98C1310.26,-925.13 1282.37,-911.8 1266,-885.31 1248.71,-857.33 1248.71,-617.29 1266,-589.31 1281.12,-564.85 1304.93,-548.29 1331.39,-537.12"/>
<polygon fill="#7fb2ff" stroke="#7fb2ff" points="1332.83,-540.32 1340.84,-533.4 1330.26,-533.81 1332.83,-540.32"/>
</g>
<!-- Node0x55fdce6aa1f8&#45;&gt;Node0x55fdce6a8f38 -->
<g id="edge20" class="edge">
<title>Node0x55fdce6aa1f8&#45;&gt;Node0x55fdce6a8f38</title>
<path fill="none" stroke="#7fb2ff" d="M1579.49,-903.19C1590.82,-898.82 1593.78,-894.45 1588.39,-890.08"/>
<polygon fill="#7fb2ff" stroke="#7fb2ff" points="1589.75,-886.84 1579.26,-885.34 1586.52,-893.06 1589.75,-886.84"/>
</g>
<!-- Node0x55fdce6aa1f8&#45;&gt;Node0x55fdce6a9898 -->
<g id="edge22" class="edge">
<title>Node0x55fdce6aa1f8&#45;&gt;Node0x55fdce6a9898</title>
<path fill="none" stroke="#7fb2ff" d="M1340.82,-931.45C1312.69,-925.66 1287.21,-912.92 1272,-888.31 1261.95,-872.05 1262.04,-732.62 1272,-716.31 1299.24,-671.72 1351.17,-644.61 1396.87,-628.58"/>
<polygon fill="#7fb2ff" stroke="#7fb2ff" points="1398.16,-631.84 1406.52,-625.33 1395.92,-625.21 1398.16,-631.84"/>
</g>
<!-- Node0x55fdce6aa1f8&#45;&gt;Node0x55fdce6a7048 -->
<g id="edge24" class="edge">
<title>Node0x55fdce6aa1f8&#45;&gt;Node0x55fdce6a7048</title>
<path fill="none" stroke="#7fb2ff" d="M1552.42,-939.37C1601.95,-956.8 1605.14,-974.23 1561.98,-991.66"/>
<polygon fill="#7fb2ff" stroke="#7fb2ff" points="1560.53,-988.46 1552.4,-995.26 1562.99,-995.01 1560.53,-988.46"/>
</g>
<!-- Node0x55fdce6aa1f8&#45;&gt;Node0x55fdce6a6e18 -->
<g id="edge27" class="edge">
<title>Node0x55fdce6aa1f8&#45;&gt;Node0x55fdce6a6e18</title>
<path fill="none" stroke="#7fb2ff" d="M1340.73,-930.98C1310.26,-925.13 1282.37,-911.8 1266,-885.31 1227.65,-823.27 1321.49,-781.16 1397.94,-758.18"/>
<polygon fill="#7fb2ff" stroke="#7fb2ff" points="1399.03,-761.51 1407.65,-755.34 1397.06,-754.79 1399.03,-761.51"/>
</g>
<!-- Node0x55fdce6aa1f8&#45;&gt;Node0x55fdce6a7278 -->
<g id="edge25" class="edge">
<title>Node0x55fdce6aa1f8&#45;&gt;Node0x55fdce6a7278</title>
<path fill="none" stroke="#7fb2ff" d="M1628.13,-914.05C1649.04,-908.53 1668.91,-899.56 1685,-885.31 1732.44,-843.27 1674.03,-789.87 1721,-747.31 1724.77,-743.89 1728.79,-740.81 1733,-738.04"/>
<polygon fill="#7fb2ff" stroke="#7fb2ff" points="1735.1,-740.87 1741.93,-732.77 1731.54,-734.84 1735.1,-740.87"/>
</g>
<!-- Node0x55fdce6a7e08 -->
<g id="node13" class="node">
<title>Node0x55fdce6a7e08</title>
<polygon fill="#7fb2ff" stroke="black" points="2060,-909.31 1726,-909.31 1726,-873.31 2060,-873.31 2060,-909.31"/>
<text text-anchor="middle" x="1893" y="-887.61" font-family="Times,serif" font-size="14.00">{lib/libLLVMMC.a(MCSectionMachO.cpp.o)}</text>
</g>
<!-- Node0x55fdce6aa1f8&#45;&gt;Node0x55fdce6a7e08 -->
<g id="edge21" class="edge">
<title>Node0x55fdce6aa1f8&#45;&gt;Node0x55fdce6a7e08</title>
<path fill="none" stroke="#7fb2ff" d="M1628.25,-910.77C1656.49,-908.69 1686.44,-906.48 1715.64,-904.32"/>
<polygon fill="#7fb2ff" stroke="#7fb2ff" points="1716.22,-907.79 1725.93,-903.57 1715.7,-900.81 1716.22,-907.79"/>
</g>
<!-- Node0x55fdce6aa8d8 -->
<g id="node14" class="node">
<title>Node0x55fdce6aa8d8</title>
<polygon fill="#7fb2ff" stroke="black" points="2030,-963.31 1756,-963.31 1756,-927.31 2030,-927.31 2030,-963.31"/>
<text text-anchor="middle" x="1893" y="-941.61" font-family="Times,serif" font-size="14.00">{lib/libLLVMMC.a(MCDwarf.cpp.o)}</text>
</g>
<!-- Node0x55fdce6aa1f8&#45;&gt;Node0x55fdce6aa8d8 -->
<g id="edge23" class="edge">
<title>Node0x55fdce6aa1f8&#45;&gt;Node0x55fdce6aa8d8</title>
<path fill="none" stroke="#7fb2ff" d="M1628.25,-923.26C1666.26,-925.15 1707.37,-927.57 1745.58,-930.15"/>
<polygon fill="#7fb2ff" stroke="#7fb2ff" points="1745.53,-933.66 1755.74,-930.85 1746.01,-926.68 1745.53,-933.66"/>
</g>
<!-- Node0x55fdce6a8e48 -->
<g id="node15" class="node">
<title>Node0x55fdce6a8e48</title>
<polygon fill="#7fb2ff" stroke="black" points="2059.5,-855.31 1726.5,-855.31 1726.5,-819.31 2059.5,-819.31 2059.5,-855.31"/>
<text text-anchor="middle" x="1893" y="-833.61" font-family="Times,serif" font-size="14.00">{lib/libLLVMMC.a(MCSectionXCOFF.cpp.o)}</text>
</g>
<!-- Node0x55fdce6aa1f8&#45;&gt;Node0x55fdce6a8e48 -->
<g id="edge26" class="edge">
<title>Node0x55fdce6aa1f8&#45;&gt;Node0x55fdce6a8e48</title>
<path fill="none" stroke="#7fb2ff" d="M1628.26,-911.95C1647.81,-907.82 1667.25,-902.12 1685,-894.31 1704.06,-885.92 1702.03,-872.91 1721,-864.31 1725.39,-862.32 1729.9,-860.47 1734.5,-858.76"/>
<polygon fill="#7fb2ff" stroke="#7fb2ff" points="1735.76,-862.03 1744.05,-855.43 1733.45,-855.42 1735.76,-862.03"/>
</g>
<!-- Node0x55fdce6ab378 -->
<g id="node16" class="node">
<title>Node0x55fdce6ab378</title>
<polygon fill="#7fb2ff" stroke="black" points="2048.5,-1071.31 1737.5,-1071.31 1737.5,-1035.31 2048.5,-1035.31 2048.5,-1071.31"/>
<text text-anchor="middle" x="1893" y="-1049.61" font-family="Times,serif" font-size="14.00">{lib/libLLVMMC.a(MCSymbolELF.cpp.o)}</text>
</g>
<!-- Node0x55fdce6aa1f8&#45;&gt;Node0x55fdce6ab378 -->
<g id="edge28" class="edge">
<title>Node0x55fdce6aa1f8&#45;&gt;Node0x55fdce6ab378</title>
<path fill="none" stroke="#7fb2ff" d="M1573.87,-939.45C1610.23,-949.53 1651.56,-964.57 1685,-986.31 1705.05,-999.35 1699.98,-1014.9 1721,-1026.31 1724.3,-1028.1 1727.68,-1029.78 1731.13,-1031.35"/>
<polygon fill="#7fb2ff" stroke="#7fb2ff" points="1729.85,-1034.61 1740.42,-1035.29 1732.58,-1028.17 1729.85,-1034.61"/>
</g>
<!-- Node0x55fdce6ab058 -->
<g id="node17" class="node">
<title>Node0x55fdce6ab058</title>
<polygon fill="none" stroke="black" points="2059.5,-2277.31 1726.5,-2277.31 1726.5,-2241.31 2059.5,-2241.31 2059.5,-2277.31"/>
<text text-anchor="middle" x="1893" y="-2255.61" font-family="Times,serif" font-size="14.00">{lib/libLLVMMC.a(MCSymbolXCOFF.cpp.o)}</text>
</g>
<!-- Node0x55fdce6aa1f8&#45;&gt;Node0x55fdce6ab058 -->
<g id="edge29" class="edge">
<title>Node0x55fdce6aa1f8&#45;&gt;Node0x55fdce6ab058</title>
<path fill="none" stroke="black" d="M1610.29,-939.32C1638.44,-948.99 1665.68,-963.77 1685,-986.31 1706.23,-1011.08 1860.43,-2046.24 1887.84,-2231.18"/>
<polygon fill="black" stroke="black" points="1884.4,-2231.83 1889.32,-2241.21 1891.32,-2230.8 1884.4,-2231.83"/>
</g>
<!-- Node0x55fdce6a7048&#45;&gt;Node0x55fdce6aa1f8 -->
<g id="edge58" class="edge">
<title>Node0x55fdce6a7048&#45;&gt;Node0x55fdce6aa1f8</title>
<path fill="none" stroke="#7fb2ff" d="M1416.6,-995.26C1367.05,-977.83 1363.85,-960.4 1407.01,-942.97"/>
<polygon fill="#7fb2ff" stroke="#7fb2ff" points="1408.46,-946.16 1416.58,-939.37 1405.99,-939.61 1408.46,-946.16"/>
</g>
<!-- Node0x55fdce6a7048&#45;&gt;Node0x55fdce6a6e18 -->
<g id="edge60" class="edge">
<title>Node0x55fdce6a7048&#45;&gt;Node0x55fdce6a6e18</title>
<path fill="none" stroke="#7fb2ff" d="M1352.5,-1021.45C1317.59,-1016.08 1284.52,-1002.27 1266,-972.31 1251.63,-949.06 1251.75,-872.63 1266,-849.31 1294.33,-802.95 1348.62,-774.99 1396,-758.6"/>
<polygon fill="#7fb2ff" stroke="#7fb2ff" points="1397.3,-761.85 1405.68,-755.37 1395.09,-755.21 1397.3,-761.85"/>
</g>
<!-- Node0x55fdce6a7048&#45;&gt;Node0x55fdce6a7278 -->
<g id="edge59" class="edge">
<title>Node0x55fdce6a7048&#45;&gt;Node0x55fdce6a7278</title>
<path fill="none" stroke="#7fb2ff" d="M1579.58,-995.29C1617.46,-985.87 1658.38,-969.62 1685,-939.31 1742.29,-874.07 1658.73,-807.81 1721,-747.31 1724.81,-743.61 1728.91,-740.29 1733.24,-737.32"/>
<polygon fill="#7fb2ff" stroke="#7fb2ff" points="1735.15,-740.25 1741.83,-732.03 1731.48,-734.29 1735.15,-740.25"/>
</g>
<!-- Node0x55fdce6a98e8 -->
<g id="node18" class="node">
<title>Node0x55fdce6a98e8</title>
<polygon fill="#7fb2ff" stroke="black" points="2054,-1125.31 1732,-1125.31 1732,-1089.31 2054,-1089.31 2054,-1125.31"/>
<text text-anchor="middle" x="1893" y="-1103.61" font-family="Times,serif" font-size="14.00">{lib/libLLVMMC.a(MCObjectWriter.cpp.o)}</text>
</g>
<!-- Node0x55fdce6a7048&#45;&gt;Node0x55fdce6a98e8 -->
<g id="edge56" class="edge">
<title>Node0x55fdce6a7048&#45;&gt;Node0x55fdce6a98e8</title>
<path fill="none" stroke="#7fb2ff" d="M1567.71,-1031.35C1612.66,-1043.89 1669.53,-1059.97 1721,-1071.31 1749.1,-1077.5 1780.1,-1082.84 1807.9,-1087.56"/>
<polygon fill="#7fb2ff" stroke="#7fb2ff" points="1807.54,-1091.05 1817.99,-1089.28 1808.71,-1084.15 1807.54,-1091.05"/>
</g>
<!-- Node0x55fdce6aa018 -->
<g id="node19" class="node">
<title>Node0x55fdce6aa018</title>
<polygon fill="#7fb2ff" stroke="black" points="2045.5,-1017.31 1740.5,-1017.31 1740.5,-981.31 2045.5,-981.31 2045.5,-1017.31"/>
<text text-anchor="middle" x="1893" y="-995.61" font-family="Times,serif" font-size="14.00">{lib/libLLVMMC.a(MCAssembler.cpp.o)}</text>
</g>
<!-- Node0x55fdce6a7048&#45;&gt;Node0x55fdce6aa018 -->
<g id="edge57" class="edge">
<title>Node0x55fdce6a7048&#45;&gt;Node0x55fdce6aa018</title>
<path fill="none" stroke="#7fb2ff" d="M1616.64,-1002.44C1652.85,-1000.78 1692.56,-999.32 1730.29,-998.26"/>
<polygon fill="#7fb2ff" stroke="#7fb2ff" points="1730.45,-1001.75 1740.35,-997.98 1730.26,-994.76 1730.45,-1001.75"/>
</g>
<!-- Node0x55fdce6a6e18&#45;&gt;Node0x55fdce6a7278 -->
<g id="edge89" class="edge">
<title>Node0x55fdce6a6e18&#45;&gt;Node0x55fdce6a7278</title>
<path fill="none" stroke="#7fb2ff" d="M1626.53,-734.53C1660.45,-733.87 1696.92,-733.15 1731.64,-732.47"/>
<polygon fill="#7fb2ff" stroke="#7fb2ff" points="1731.94,-735.96 1741.87,-732.26 1731.8,-728.96 1731.94,-735.96"/>
</g>
<!-- Node0x55fdce6abaa8&#45;&gt;Node0x55fdce6aa1f8 -->
<g id="edge2" class="edge">
<title>Node0x55fdce6abaa8&#45;&gt;Node0x55fdce6aa1f8</title>
<path fill="none" stroke="#7fb2ff" d="M1842.36,-613.34C1803.15,-630.22 1750.3,-659.34 1721,-702.31 1672.08,-774.04 1747.93,-834.5 1685,-894.31 1671.69,-906.96 1655.45,-915.55 1638.03,-921.22"/>
<polygon fill="#7fb2ff" stroke="#7fb2ff" points="1636.87,-917.92 1628.25,-924.08 1638.83,-924.64 1636.87,-917.92"/>
</g>
<!-- Node0x55fdce6a9668&#45;&gt;Node0x55fdce6a82b8 -->
<g id="edge73" class="edge">
<title>Node0x55fdce6a9668&#45;&gt;Node0x55fdce6a82b8</title>
<path fill="none" stroke="#7fb2ff" d="M1720.77,-782.16C1598.83,-780.31 1431.15,-775.7 1284,-764.31 1258.54,-762.34 1231.49,-759.55 1205.42,-756.51"/>
<polygon fill="#7fb2ff" stroke="#7fb2ff" points="1205.83,-753.04 1195.49,-755.34 1205.01,-759.99 1205.83,-753.04"/>
</g>
<!-- Node0x55fdce6a9668&#45;&gt;Node0x55fdce6aa5b8 -->
<g id="edge65" class="edge">
<title>Node0x55fdce6a9668&#45;&gt;Node0x55fdce6aa5b8</title>
<path fill="none" stroke="#7fb2ff" d="M1720.61,-764.92C1654.27,-698.83 1751.9,-622.44 1685,-556.31 1676.42,-547.83 1666.56,-541.05 1655.89,-535.65"/>
<polygon fill="#7fb2ff" stroke="#7fb2ff" points="1657.31,-532.45 1646.76,-531.43 1654.37,-538.8 1657.31,-532.45"/>
</g>
<!-- Node0x55fdce6a9668&#45;&gt;Node0x55fdce6a8f38 -->
<g id="edge66" class="edge">
<title>Node0x55fdce6a9668&#45;&gt;Node0x55fdce6a8f38</title>
<path fill="none" stroke="#7fb2ff" d="M1747.06,-801.43C1738.12,-804.01 1729.37,-806.95 1721,-810.31 1702.92,-817.57 1703.07,-828.03 1685,-835.31 1669.63,-841.5 1653.15,-846.5 1636.47,-850.53"/>
<polygon fill="#7fb2ff" stroke="#7fb2ff" points="1635.6,-847.14 1626.64,-852.79 1637.17,-853.96 1635.6,-847.14"/>
</g>
<!-- Node0x55fdce6a9668&#45;&gt;Node0x55fdce6a9898 -->
<g id="edge68" class="edge">
<title>Node0x55fdce6a9668&#45;&gt;Node0x55fdce6a9898</title>
<path fill="none" stroke="#7fb2ff" d="M1720.52,-764.89C1680.26,-729.31 1725.9,-683.87 1685,-648.31 1673.11,-637.97 1659.25,-630.28 1644.48,-624.57"/>
<polygon fill="#7fb2ff" stroke="#7fb2ff" points="1645.25,-621.13 1634.66,-621.09 1642.92,-627.73 1645.25,-621.13"/>
</g>
<!-- Node0x55fdce6a9668&#45;&gt;Node0x55fdce6aa1f8 -->
<g id="edge69" class="edge">
<title>Node0x55fdce6a9668&#45;&gt;Node0x55fdce6aa1f8</title>
<path fill="none" stroke="#7fb2ff" d="M1734.49,-801.31C1729.78,-804 1725.27,-806.99 1721,-810.31 1688.94,-835.25 1717.33,-869.72 1685,-894.31 1671.1,-904.88 1655.04,-912.35 1638.17,-917.53"/>
<polygon fill="#7fb2ff" stroke="#7fb2ff" points="1636.86,-914.26 1628.16,-920.32 1638.74,-921.01 1636.86,-914.26"/>
</g>
<!-- Node0x55fdce6a9668&#45;&gt;Node0x55fdce6a7048 -->
<g id="edge71" class="edge">
<title>Node0x55fdce6a9668&#45;&gt;Node0x55fdce6a7048</title>
<path fill="none" stroke="#7fb2ff" d="M1732.32,-801.49C1728.35,-804.15 1724.56,-807.08 1721,-810.31 1674.03,-852.87 1728.46,-902.17 1685,-948.31 1666.04,-968.44 1640.77,-982.35 1614.61,-991.96"/>
<polygon fill="#7fb2ff" stroke="#7fb2ff" points="1613.25,-988.72 1604.95,-995.3 1615.54,-995.34 1613.25,-988.72"/>
</g>
<!-- Node0x55fdce6a9668&#45;&gt;Node0x55fdce6a7278 -->
<g id="edge72" class="edge">
<title>Node0x55fdce6a9668&#45;&gt;Node0x55fdce6a7278</title>
<path fill="none" stroke="#7fb2ff" d="M1893,-765.1C1893,-762.62 1893,-760.14 1893,-757.65"/>
<polygon fill="#7fb2ff" stroke="#7fb2ff" points="1896.5,-757.45 1893,-747.45 1889.5,-757.45 1896.5,-757.45"/>
</g>
<!-- Node0x55fdce6a9668&#45;&gt;Node0x55fdce6aa8d8 -->
<g id="edge70" class="edge">
<title>Node0x55fdce6a9668&#45;&gt;Node0x55fdce6aa8d8</title>
<path fill="none" stroke="#7fb2ff" d="M1721.23,-801.34C1716.62,-805.69 1712.5,-810.65 1709,-816.31 1697.78,-834.46 1697.78,-894.16 1709,-912.31 1717.97,-926.83 1731.02,-936.77 1746.1,-943.41"/>
<polygon fill="#7fb2ff" stroke="#7fb2ff" points="1745.14,-946.79 1755.73,-947.13 1747.66,-940.26 1745.14,-946.79"/>
</g>
<!-- Node0x55fdce6a9668&#45;&gt;Node0x55fdce6aa018 -->
<g id="edge67" class="edge">
<title>Node0x55fdce6a9668&#45;&gt;Node0x55fdce6aa018</title>
<path fill="none" stroke="#7fb2ff" d="M1720.71,-799.38C1713.86,-804.87 1707.85,-811.46 1703,-819.31 1686.18,-846.53 1686.18,-936.09 1703,-963.31 1710.24,-975.03 1720.05,-983.92 1731.4,-990.58"/>
<polygon fill="#7fb2ff" stroke="#7fb2ff" points="1729.89,-993.74 1740.38,-995.25 1733.12,-987.53 1729.89,-993.74"/>
</g>
<!-- Node0x55fdce6a7278&#45;&gt;Node0x55fdce6aa1f8 -->
<g id="edge81" class="edge">
<title>Node0x55fdce6a7278&#45;&gt;Node0x55fdce6aa1f8</title>
<path fill="none" stroke="#7fb2ff" d="M1748.78,-747.36C1738.67,-751.97 1729.24,-757.84 1721,-765.31 1674.03,-807.87 1732.44,-861.27 1685,-903.31 1671.43,-915.34 1655.16,-923.6 1637.85,-929.05"/>
<polygon fill="#7fb2ff" stroke="#7fb2ff" points="1636.8,-925.71 1628.13,-931.8 1638.71,-932.44 1636.8,-925.71"/>
</g>
<!-- Node0x55fdce6a7278&#45;&gt;Node0x55fdce6a7048 -->
<g id="edge82" class="edge">
<title>Node0x55fdce6a7278&#45;&gt;Node0x55fdce6a7048</title>
<path fill="none" stroke="#7fb2ff" d="M1746.98,-747.32C1737.47,-751.98 1728.65,-757.87 1721,-765.31 1658.73,-825.81 1742.29,-892.07 1685,-957.31 1669.23,-975.27 1648.43,-988.3 1626.22,-997.58"/>
<polygon fill="#7fb2ff" stroke="#7fb2ff" points="1624.67,-994.43 1616.63,-1001.34 1627.22,-1000.95 1624.67,-994.43"/>
</g>
<!-- Node0x55fdce6a7278&#45;&gt;Node0x55fdce6aa018 -->
<g id="edge80" class="edge">
<title>Node0x55fdce6a7278&#45;&gt;Node0x55fdce6aa018</title>
<path fill="none" stroke="#7fb2ff" d="M1741.61,-732.49C1723.43,-739.83 1707.58,-751.19 1697,-768.31 1685.78,-786.46 1685.78,-942.16 1697,-960.31 1705.45,-973.99 1717.27,-983.99 1730.96,-991.2"/>
<polygon fill="#7fb2ff" stroke="#7fb2ff" points="1729.66,-994.46 1740.2,-995.55 1732.64,-988.13 1729.66,-994.46"/>
</g>
<!-- Node0x55fdce6a7e08&#45;&gt;Node0x55fdce6a8f38 -->
<g id="edge168" class="edge">
<title>Node0x55fdce6a7e08&#45;&gt;Node0x55fdce6a8f38</title>
<path fill="none" stroke="#7fb2ff" d="M1725.71,-881.49C1696.26,-879.75 1665.73,-877.95 1636.73,-876.24"/>
<polygon fill="#7fb2ff" stroke="#7fb2ff" points="1636.72,-872.73 1626.53,-875.64 1636.31,-879.72 1636.72,-872.73"/>
</g>
<!-- Node0x55fdce6aa8d8&#45;&gt;Node0x55fdce6a82b8 -->
<g id="edge161" class="edge">
<title>Node0x55fdce6aa8d8&#45;&gt;Node0x55fdce6a82b8</title>
<path fill="none" stroke="#7fb2ff" d="M1755.68,-957.87C1603.05,-969.85 1366.31,-981.62 1284,-948.31 1190.89,-910.63 1115.52,-811.99 1083.14,-764.13"/>
<polygon fill="#7fb2ff" stroke="#7fb2ff" points="1085.87,-761.92 1077.42,-755.54 1080.05,-765.8 1085.87,-761.92"/>
</g>
<!-- Node0x55fdce6aa8d8&#45;&gt;Node0x55fdce6a88a8 -->
<g id="edge157" class="edge">
<title>Node0x55fdce6aa8d8&#45;&gt;Node0x55fdce6a88a8</title>
<path fill="none" stroke="black" d="M1755.69,-954.68C1743.32,-959.05 1731.52,-964.8 1721,-972.31 1693.17,-992.19 1706.75,-1013.92 1685,-1040.31 1637.46,-1097.98 1566.45,-1149.27 1523.21,-1177.73"/>
<polygon fill="black" stroke="black" points="1521.15,-1174.9 1514.69,-1183.29 1524.97,-1180.76 1521.15,-1174.9"/>
</g>
<!-- Node0x55fdce6aa8d8&#45;&gt;Node0x55fdce6a8f38 -->
<g id="edge158" class="edge">
<title>Node0x55fdce6aa8d8&#45;&gt;Node0x55fdce6a8f38</title>
<path fill="none" stroke="#7fb2ff" d="M1755.68,-929.31C1743.78,-926.26 1732.06,-922.63 1721,-918.31 1703.09,-911.31 1702.99,-901.11 1685,-894.31 1669.63,-888.5 1653.17,-883.91 1636.55,-880.3"/>
<polygon fill="#7fb2ff" stroke="#7fb2ff" points="1637.25,-876.87 1626.75,-878.28 1635.83,-883.73 1637.25,-876.87"/>
</g>
<!-- Node0x55fdce6aa8d8&#45;&gt;Node0x55fdce6aa1f8 -->
<g id="edge159" class="edge">
<title>Node0x55fdce6aa8d8&#45;&gt;Node0x55fdce6aa1f8</title>
<path fill="none" stroke="#7fb2ff" d="M1755.74,-943.68C1718.11,-941.85 1677.02,-939.47 1638.51,-936.91"/>
<polygon fill="#7fb2ff" stroke="#7fb2ff" points="1638.46,-933.4 1628.25,-936.21 1637.99,-940.38 1638.46,-933.4"/>
</g>
<!-- Node0x55fdce6aa8d8&#45;&gt;Node0x55fdce6a7048 -->
<g id="edge160" class="edge">
<title>Node0x55fdce6aa8d8&#45;&gt;Node0x55fdce6a7048</title>
<path fill="none" stroke="#7fb2ff" d="M1769.4,-963.32C1753.08,-966.11 1736.61,-969.13 1721,-972.31 1704.84,-975.6 1701.16,-978 1685,-981.31 1663.52,-985.71 1640.64,-989.87 1618.32,-993.64"/>
<polygon fill="#7fb2ff" stroke="#7fb2ff" points="1617.74,-990.19 1608.45,-995.29 1618.89,-997.09 1617.74,-990.19"/>
</g>
<!-- Node0x55fdce6aa8d8&#45;&gt;Node0x55fdce6a9668 -->
<g id="edge156" class="edge">
<title>Node0x55fdce6aa8d8&#45;&gt;Node0x55fdce6a9668</title>
<path fill="none" stroke="#7fb2ff" d="M1755.64,-946.9C1731.68,-940.11 1710.22,-927.71 1697,-906.31 1687.19,-890.43 1687.19,-838.19 1697,-822.31 1701.42,-815.15 1706.77,-809 1712.82,-803.72"/>
<polygon fill="#7fb2ff" stroke="#7fb2ff" points="1715.09,-806.4 1720.85,-797.51 1710.8,-800.86 1715.09,-806.4"/>
</g>
<!-- Node0x55fdce6a9938 -->
<g id="node45" class="node">
<title>Node0x55fdce6a9938</title>
<polygon fill="none" stroke="black" points="2442,-2193.31 2101,-2193.31 2101,-2157.31 2442,-2157.31 2442,-2193.31"/>
<text text-anchor="middle" x="2271.5" y="-2171.61" font-family="Times,serif" font-size="14.00">{lib/libLLVMMC.a(StringTableBuilder.cpp.o)}</text>
</g>
<!-- Node0x55fdce6aa8d8&#45;&gt;Node0x55fdce6a9938 -->
<g id="edge162" class="edge">
<title>Node0x55fdce6aa8d8&#45;&gt;Node0x55fdce6a9938</title>
<path fill="none" stroke="black" d="M2030.14,-950.23C2043.08,-955.35 2055.06,-962.49 2065,-972.31 2238.72,-1143.85 2266.2,-1981.44 2269.96,-2146.89"/>
<polygon fill="black" stroke="black" points="2266.47,-2147.29 2270.18,-2157.21 2273.47,-2147.14 2266.47,-2147.29"/>
</g>
<!-- Node0x55fdce6a8e48&#45;&gt;Node0x55fdce6a8f38 -->
<g id="edge169" class="edge">
<title>Node0x55fdce6a8e48&#45;&gt;Node0x55fdce6a8f38</title>
<path fill="none" stroke="#7fb2ff" d="M1726.42,-849.53C1696.77,-851.72 1666.02,-853.99 1636.8,-856.14"/>
<polygon fill="#7fb2ff" stroke="#7fb2ff" points="1636.25,-852.67 1626.53,-856.9 1636.76,-859.66 1636.25,-852.67"/>
</g>
<!-- Node0x55fdce6ab378&#45;&gt;Node0x55fdce6a7048 -->
<g id="edge151" class="edge">
<title>Node0x55fdce6ab378&#45;&gt;Node0x55fdce6a7048</title>
<path fill="none" stroke="#7fb2ff" d="M1737.47,-1038.1C1701.06,-1034.52 1662.44,-1030.72 1626.65,-1027.2"/>
<polygon fill="#7fb2ff" stroke="#7fb2ff" points="1626.93,-1023.71 1616.64,-1026.21 1626.25,-1030.68 1626.93,-1023.71"/>
</g>
<!-- Node0x55fdce6a98e8&#45;&gt;Node0x55fdce6a7048 -->
<g id="edge150" class="edge">
<title>Node0x55fdce6a98e8&#45;&gt;Node0x55fdce6a7048</title>
<path fill="none" stroke="#7fb2ff" d="M1731.69,-1091.6C1728.09,-1090.85 1724.52,-1090.09 1721,-1089.31 1654.34,-1074.62 1578.65,-1052 1531.48,-1034.95"/>
<polygon fill="#7fb2ff" stroke="#7fb2ff" points="1532.46,-1031.58 1521.86,-1031.4 1530.04,-1038.15 1532.46,-1031.58"/>
</g>
<!-- Node0x55fdce6aa018&#45;&gt;Node0x55fdce6a9898 -->
<g id="edge74" class="edge">
<title>Node0x55fdce6aa018&#45;&gt;Node0x55fdce6a9898</title>
<path fill="none" stroke="#7fb2ff" d="M1740.5,-987.71C1733.38,-983.49 1726.8,-978.4 1721,-972.31 1618.34,-864.51 1787.52,-747.24 1685,-639.31 1673.6,-627.3 1659.62,-618.64 1644.39,-612.49"/>
<polygon fill="#7fb2ff" stroke="#7fb2ff" points="1645.36,-609.12 1634.77,-608.98 1642.96,-615.69 1645.36,-609.12"/>
</g>
<!-- Node0x55fdce6aa018&#45;&gt;Node0x55fdce6aa1f8 -->
<g id="edge75" class="edge">
<title>Node0x55fdce6aa018&#45;&gt;Node0x55fdce6aa1f8</title>
<path fill="none" stroke="#7fb2ff" d="M1772.26,-981.29C1755.03,-978.44 1737.54,-975.4 1721,-972.31 1671.97,-963.14 1617.53,-951.45 1573.35,-941.57"/>
<polygon fill="#7fb2ff" stroke="#7fb2ff" points="1574.03,-938.14 1563.51,-939.36 1572.5,-944.97 1574.03,-938.14"/>
</g>
<!-- Node0x55fdce6aa018&#45;&gt;Node0x55fdce6a7048 -->
<g id="edge77" class="edge">
<title>Node0x55fdce6aa018&#45;&gt;Node0x55fdce6a7048</title>
<path fill="none" stroke="#7fb2ff" d="M1740.35,-1011.09C1703.18,-1012.65 1663.56,-1013.99 1626.89,-1014.9"/>
<polygon fill="#7fb2ff" stroke="#7fb2ff" points="1626.55,-1011.41 1616.64,-1015.15 1626.72,-1018.41 1626.55,-1011.41"/>
</g>
<!-- Node0x55fdce6aa018&#45;&gt;Node0x55fdce6a6e18 -->
<g id="edge79" class="edge">
<title>Node0x55fdce6aa018&#45;&gt;Node0x55fdce6a6e18</title>
<path fill="none" stroke="#7fb2ff" d="M1740.42,-985.93C1733.47,-982.13 1726.93,-977.62 1721,-972.31 1675.71,-931.73 1723.25,-887.58 1685,-840.31 1653.09,-800.87 1602.06,-774.91 1559.6,-758.91"/>
<polygon fill="#7fb2ff" stroke="#7fb2ff" points="1560.72,-755.6 1550.12,-755.46 1558.32,-762.17 1560.72,-755.6"/>
</g>
<!-- Node0x55fdce6aa018&#45;&gt;Node0x55fdce6a7278 -->
<g id="edge78" class="edge">
<title>Node0x55fdce6aa018&#45;&gt;Node0x55fdce6a7278</title>
<path fill="none" stroke="#7fb2ff" d="M1740.12,-994.54C1727.58,-988.01 1716.76,-978.87 1709,-966.31 1697.08,-947.03 1697.08,-781.59 1709,-762.31 1715.21,-752.27 1723.36,-744.42 1732.79,-738.33"/>
<polygon fill="#7fb2ff" stroke="#7fb2ff" points="1734.81,-741.21 1741.78,-733.23 1731.36,-735.12 1734.81,-741.21"/>
</g>
<!-- Node0x55fdce6aa018&#45;&gt;Node0x55fdce6aa8d8 -->
<g id="edge76" class="edge">
<title>Node0x55fdce6aa018&#45;&gt;Node0x55fdce6aa8d8</title>
<path fill="none" stroke="#7fb2ff" d="M1893,-981.1C1893,-978.62 1893,-976.14 1893,-973.65"/>
<polygon fill="#7fb2ff" stroke="#7fb2ff" points="1896.5,-973.45 1893,-963.45 1889.5,-973.45 1896.5,-973.45"/>
</g>
<!-- Node0x55fdce6a8fd8 -->
<g id="node20" class="node">
<title>Node0x55fdce6a8fd8</title>
<polygon fill="none" stroke="black" points="824.5,-2012.31 501.5,-2012.31 501.5,-1976.31 824.5,-1976.31 824.5,-2012.31"/>
<text text-anchor="middle" x="663" y="-1990.61" font-family="Times,serif" font-size="14.00">{lib/libLLVMMC.a(MCAsmBackend.cpp.o)}</text>
</g>
<!-- Node0x55fdce6a88f8 -->
<g id="node21" class="node">
<title>Node0x55fdce6a88f8</title>
<polygon fill="none" stroke="black" points="1228,-2093.31 902,-2093.31 902,-2057.31 1228,-2057.31 1228,-2093.31"/>
<text text-anchor="middle" x="1065" y="-2071.61" font-family="Times,serif" font-size="14.00">{lib/libLLVMMC.a(ELFObjectWriter.cpp.o)}</text>
</g>
<!-- Node0x55fdce6a8fd8&#45;&gt;Node0x55fdce6a88f8 -->
<g id="edge3" class="edge">
<title>Node0x55fdce6a8fd8&#45;&gt;Node0x55fdce6a88f8</title>
<path fill="none" stroke="black" d="M729.94,-2012.39C772.99,-2023.76 830.55,-2038.15 882,-2048.31 894.99,-2050.88 908.54,-2053.32 922.13,-2055.61"/>
<polygon fill="black" stroke="black" points="921.59,-2059.07 932.03,-2057.25 922.74,-2052.16 921.59,-2059.07"/>
</g>
<!-- Node0x55fdce6a87b8 -->
<g id="node22" class="node">
<title>Node0x55fdce6a87b8</title>
<polygon fill="none" stroke="black" points="1233,-1985.31 897,-1985.31 897,-1949.31 1233,-1949.31 1233,-1985.31"/>
<text text-anchor="middle" x="1065" y="-1963.61" font-family="Times,serif" font-size="14.00">{lib/libLLVMMC.a(MachObjectWriter.cpp.o)}</text>
</g>
<!-- Node0x55fdce6a8fd8&#45;&gt;Node0x55fdce6a87b8 -->
<g id="edge4" class="edge">
<title>Node0x55fdce6a8fd8&#45;&gt;Node0x55fdce6a87b8</title>
<path fill="none" stroke="black" d="M824.68,-1983.46C845.12,-1982.08 866.13,-1980.67 886.81,-1979.27"/>
<polygon fill="black" stroke="black" points="887.19,-1982.75 896.93,-1978.59 886.72,-1975.77 887.19,-1982.75"/>
</g>
<!-- Node0x55fdce6ab2d8 -->
<g id="node23" class="node">
<title>Node0x55fdce6ab2d8</title>
<polygon fill="none" stroke="black" points="1235,-1931.31 895,-1931.31 895,-1895.31 1235,-1895.31 1235,-1931.31"/>
<text text-anchor="middle" x="1065" y="-1909.61" font-family="Times,serif" font-size="14.00">{lib/libLLVMMC.a(WasmObjectWriter.cpp.o)}</text>
</g>
<!-- Node0x55fdce6a8fd8&#45;&gt;Node0x55fdce6ab2d8 -->
<g id="edge5" class="edge">
<title>Node0x55fdce6a8fd8&#45;&gt;Node0x55fdce6ab2d8</title>
<path fill="none" stroke="black" d="M729.94,-1976.23C772.99,-1964.86 830.55,-1950.47 882,-1940.31 894.99,-1937.74 908.54,-1935.3 922.13,-1933.01"/>
<polygon fill="black" stroke="black" points="922.74,-1936.46 932.03,-1931.37 921.59,-1929.55 922.74,-1936.46"/>
</g>
<!-- Node0x55fdce6ab008 -->
<g id="node24" class="node">
<title>Node0x55fdce6ab008</title>
<polygon fill="none" stroke="black" points="1248,-2039.31 882,-2039.31 882,-2003.31 1248,-2003.31 1248,-2039.31"/>
<text text-anchor="middle" x="1065" y="-2017.61" font-family="Times,serif" font-size="14.00">{lib/libLLVMMC.a(WinCOFFObjectWriter.cpp.o)}</text>
</g>
<!-- Node0x55fdce6a8fd8&#45;&gt;Node0x55fdce6ab008 -->
<g id="edge6" class="edge">
<title>Node0x55fdce6a8fd8&#45;&gt;Node0x55fdce6ab008</title>
<path fill="none" stroke="black" d="M824.68,-2005.16C840.09,-2006.2 855.83,-2007.26 871.51,-2008.32"/>
<polygon fill="black" stroke="black" points="871.58,-2011.83 881.79,-2009.01 872.05,-2004.84 871.58,-2011.83"/>
</g>
<!-- Node0x55fdce6aab58 -->
<g id="node25" class="node">
<title>Node0x55fdce6aab58</title>
<polygon fill="none" stroke="black" points="1239,-2261.31 891,-2261.31 891,-2225.31 1239,-2225.31 1239,-2261.31"/>
<text text-anchor="middle" x="1065" y="-2239.61" font-family="Times,serif" font-size="14.00">{lib/libLLVMMC.a(XCOFFObjectWriter.cpp.o)}</text>
</g>
<!-- Node0x55fdce6a8fd8&#45;&gt;Node0x55fdce6aab58 -->
<g id="edge7" class="edge">
<title>Node0x55fdce6a8fd8&#45;&gt;Node0x55fdce6aab58</title>
<path fill="none" stroke="black" d="M693.09,-2012.42C764.24,-2056.71 947,-2170.47 1026.32,-2219.85"/>
<polygon fill="black" stroke="black" points="1024.68,-2222.96 1035.02,-2225.27 1028.38,-2217.01 1024.68,-2222.96"/>
</g>
<!-- Node0x55fdce6a88f8&#45;&gt;Node0x55fdce6aa1f8 -->
<g id="edge132" class="edge">
<title>Node0x55fdce6a88f8&#45;&gt;Node0x55fdce6aa1f8</title>
<path fill="none" stroke="black" d="M1228.17,-2064.84C1235.46,-2060.32 1242.15,-2054.86 1248,-2048.31 1326.62,-1960.23 1213.03,-1080.67 1284,-986.31 1298.82,-966.61 1319.74,-952.78 1342.51,-943.1"/>
<polygon fill="black" stroke="black" points="1344.01,-946.27 1352.02,-939.33 1341.43,-939.76 1344.01,-946.27"/>
</g>
<!-- Node0x55fdce6a88f8&#45;&gt;Node0x55fdce6a7048 -->
<g id="edge133" class="edge">
<title>Node0x55fdce6a88f8&#45;&gt;Node0x55fdce6a7048</title>
<path fill="none" stroke="black" d="M1228.11,-2064.79C1235.42,-2060.28 1242.13,-2054.84 1248,-2048.31 1312.98,-1976.04 1240.29,-1261.12 1284,-1174.31 1316.53,-1109.7 1388.17,-1062.24 1436.14,-1036.19"/>
<polygon fill="black" stroke="black" points="1437.92,-1039.21 1445.11,-1031.42 1434.63,-1033.03 1437.92,-1039.21"/>
</g>
<!-- Node0x55fdce6a88f8&#45;&gt;Node0x55fdce6a6e18 -->
<g id="edge135" class="edge">
<title>Node0x55fdce6a88f8&#45;&gt;Node0x55fdce6a6e18</title>
<path fill="none" stroke="black" d="M1228.2,-2064.87C1235.48,-2060.34 1242.16,-2054.87 1248,-2048.31 1337.21,-1947.95 1212.44,-953.94 1284,-840.31 1309.68,-799.53 1357.1,-774.11 1399.26,-758.73"/>
<polygon fill="black" stroke="black" points="1400.45,-762.02 1408.72,-755.41 1398.13,-755.42 1400.45,-762.02"/>
</g>
<!-- Node0x55fdce6a88f8&#45;&gt;Node0x55fdce6a7278 -->
<g id="edge134" class="edge">
<title>Node0x55fdce6a88f8&#45;&gt;Node0x55fdce6a7278</title>
<path fill="none" stroke="black" d="M1228.11,-2064.17C1235.36,-2059.81 1242.07,-2054.57 1248,-2048.31 1306.52,-1986.6 1224.39,-1727.97 1284,-1667.31 1409.7,-1539.39 1562.72,-1753.5 1685,-1622.31 1750.67,-1551.86 1656.93,-828.21 1721,-756.31 1724.81,-752.03 1729,-748.24 1733.5,-744.89"/>
<polygon fill="black" stroke="black" points="1735.5,-747.76 1741.9,-739.32 1731.63,-741.93 1735.5,-747.76"/>
</g>
<!-- Node0x55fdce6a88f8&#45;&gt;Node0x55fdce6ab378 -->
<g id="edge136" class="edge">
<title>Node0x55fdce6a88f8&#45;&gt;Node0x55fdce6ab378</title>
<path fill="none" stroke="black" d="M1228.18,-2060.82C1235.18,-2057.27 1241.83,-2053.13 1248,-2048.31 1280.98,-2022.56 1252.75,-1989.14 1284,-1961.31 1422.35,-1838.06 1569.89,-1992.5 1685,-1847.31 1738,-1780.46 1664.07,-1143.85 1721,-1080.31 1723.61,-1077.4 1726.4,-1074.71 1729.34,-1072.23"/>
<polygon fill="black" stroke="black" points="1731.54,-1074.95 1737.45,-1066.16 1727.35,-1069.35 1731.54,-1074.95"/>
</g>
<!-- Node0x55fdce6a88f8&#45;&gt;Node0x55fdce6a98e8 -->
<g id="edge130" class="edge">
<title>Node0x55fdce6a88f8&#45;&gt;Node0x55fdce6a98e8</title>
<path fill="none" stroke="black" d="M1228.08,-2091.03C1367.47,-2095.12 1564.56,-2076.87 1685,-1961.31 1809.07,-1842.26 1875.14,-1270.74 1889.15,-1135.87"/>
<polygon fill="black" stroke="black" points="1892.67,-1135.86 1890.21,-1125.55 1885.71,-1135.14 1892.67,-1135.86"/>
</g>
<!-- Node0x55fdce6a88f8&#45;&gt;Node0x55fdce6aa018 -->
<g id="edge131" class="edge">
<title>Node0x55fdce6a88f8&#45;&gt;Node0x55fdce6aa018</title>
<path fill="none" stroke="black" d="M1228.25,-2063.03C1235.37,-2058.93 1242.01,-2054.07 1248,-2048.31 1310.26,-1988.43 1226.48,-1921.76 1284,-1857.31 1408.21,-1718.12 1570.49,-1880.58 1685,-1733.31 1733.28,-1671.21 1668.4,-1084.79 1721,-1026.31 1724.4,-1022.53 1728.1,-1019.13 1732.04,-1016.08"/>
<polygon fill="black" stroke="black" points="1734.2,-1018.84 1740.46,-1010.29 1730.23,-1013.07 1734.2,-1018.84"/>
</g>
<!-- Node0x55fdce6a88f8&#45;&gt;Node0x55fdce6a9938 -->
<g id="edge137" class="edge">
<title>Node0x55fdce6a88f8&#45;&gt;Node0x55fdce6a9938</title>
<path fill="none" stroke="black" d="M1090.87,-2093.51C1129.74,-2120.69 1208.31,-2170.71 1284,-2189.31 1593.52,-2265.35 1974.28,-2223.45 2159.19,-2194.89"/>
<polygon fill="black" stroke="black" points="2159.85,-2198.33 2169.19,-2193.33 2158.77,-2191.41 2159.85,-2198.33"/>
</g>
<!-- Node0x55fdce6a87b8&#45;&gt;Node0x55fdce6aa1f8 -->
<g id="edge93" class="edge">
<title>Node0x55fdce6a87b8&#45;&gt;Node0x55fdce6aa1f8</title>
<path fill="none" stroke="black" d="M1233.21,-1953.45C1238.56,-1949.66 1243.52,-1945.31 1248,-1940.31 1318.79,-1861.31 1220.08,-1070.96 1284,-986.31 1298.86,-966.64 1319.8,-952.82 1342.57,-943.14"/>
<polygon fill="black" stroke="black" points="1344.07,-946.31 1352.08,-939.37 1341.49,-939.81 1344.07,-946.31"/>
</g>
<!-- Node0x55fdce6a87b8&#45;&gt;Node0x55fdce6a7048 -->
<g id="edge94" class="edge">
<title>Node0x55fdce6a87b8&#45;&gt;Node0x55fdce6a7048</title>
<path fill="none" stroke="black" d="M1233.15,-1953.4C1238.51,-1949.63 1243.5,-1945.28 1248,-1940.31 1305.15,-1877.12 1245.46,-1250.3 1284,-1174.31 1316.72,-1109.8 1388.3,-1062.31 1436.22,-1036.23"/>
<polygon fill="black" stroke="black" points="1437.99,-1039.25 1445.17,-1031.45 1434.7,-1033.07 1437.99,-1039.25"/>
</g>
<!-- Node0x55fdce6a87b8&#45;&gt;Node0x55fdce6a6e18 -->
<g id="edge96" class="edge">
<title>Node0x55fdce6a87b8&#45;&gt;Node0x55fdce6a6e18</title>
<path fill="none" stroke="black" d="M1233.24,-1953.48C1238.58,-1949.68 1243.54,-1945.32 1248,-1940.31 1329.38,-1849.03 1218.68,-943.69 1284,-840.31 1309.74,-799.56 1357.16,-774.15 1399.31,-758.76"/>
<polygon fill="black" stroke="black" points="1400.49,-762.06 1408.77,-755.44 1398.17,-755.45 1400.49,-762.06"/>
</g>
<!-- Node0x55fdce6a87b8&#45;&gt;Node0x55fdce6a7278 -->
<g id="edge95" class="edge">
<title>Node0x55fdce6a87b8&#45;&gt;Node0x55fdce6a7278</title>
<path fill="none" stroke="black" d="M1233.09,-1953.35C1238.47,-1949.59 1243.48,-1945.26 1248,-1940.31 1344.18,-1834.93 1184.69,-1401.74 1284,-1299.31 1346.26,-1235.09 1622.27,-1328.07 1685,-1264.31 1764.37,-1183.63 1644.48,-839.69 1721,-756.31 1724.71,-752.26 1728.77,-748.65 1733.1,-745.44"/>
<polygon fill="black" stroke="black" points="1735.32,-748.17 1741.75,-739.75 1731.47,-742.33 1735.32,-748.17"/>
</g>
<!-- Node0x55fdce6a87b8&#45;&gt;Node0x55fdce6a7e08 -->
<g id="edge91" class="edge">
<title>Node0x55fdce6a87b8&#45;&gt;Node0x55fdce6a7e08</title>
<path fill="none" stroke="black" d="M1233.01,-1953.27C1238.41,-1949.53 1243.44,-1945.23 1248,-1940.31 1325.48,-1856.61 1213.63,-1518.07 1284,-1428.31 1399.51,-1280.97 1567.73,-1445.25 1685,-1299.31 1738.27,-1233.02 1662.77,-980.29 1721,-918.31 1721.65,-917.61 1722.32,-916.93 1722.99,-916.26"/>
<polygon fill="black" stroke="black" points="1725.38,-918.82 1730.55,-909.58 1720.74,-913.58 1725.38,-918.82"/>
</g>
<!-- Node0x55fdce6a87b8&#45;&gt;Node0x55fdce6a98e8 -->
<g id="edge90" class="edge">
<title>Node0x55fdce6a87b8&#45;&gt;Node0x55fdce6a98e8</title>
<path fill="none" stroke="black" d="M1229.82,-1949.28C1236.1,-1946.63 1242.18,-1943.65 1248,-1940.31 1270.21,-1927.55 1265.73,-1913.25 1284,-1895.31 1444.54,-1737.67 1546.86,-1763.91 1685,-1586.31 1800.81,-1437.43 1865.17,-1213.87 1885.16,-1135.59"/>
<polygon fill="black" stroke="black" points="1888.64,-1136.09 1887.69,-1125.53 1881.85,-1134.38 1888.64,-1136.09"/>
</g>
<!-- Node0x55fdce6a87b8&#45;&gt;Node0x55fdce6aa018 -->
<g id="edge92" class="edge">
<title>Node0x55fdce6a87b8&#45;&gt;Node0x55fdce6aa018</title>
<path fill="none" stroke="black" d="M1233.28,-1952.9C1238.57,-1949.25 1243.51,-1945.07 1248,-1940.31 1310.42,-1874.07 1224.86,-1601.5 1284,-1532.31 1403.34,-1392.68 1565.63,-1571.91 1685,-1432.31 1743.86,-1363.47 1659.17,-1092.5 1721,-1026.31 1724.41,-1022.66 1728.1,-1019.37 1732.02,-1016.4"/>
<polygon fill="black" stroke="black" points="1734.03,-1019.27 1740.36,-1010.78 1730.11,-1013.47 1734.03,-1019.27"/>
</g>
<!-- Node0x55fdce6aa658 -->
<g id="node44" class="node">
<title>Node0x55fdce6aa658</title>
<polygon fill="none" stroke="black" points="1685,-1577.31 1284,-1577.31 1284,-1541.31 1685,-1541.31 1685,-1577.31"/>
<text text-anchor="middle" x="1484.5" y="-1555.61" font-family="Times,serif" font-size="14.00">{lib/libLLVMMC.a(MCLinkerOptimizationHint.cpp.o)}</text>
</g>
<!-- Node0x55fdce6a87b8&#45;&gt;Node0x55fdce6aa658 -->
<g id="edge97" class="edge">
<title>Node0x55fdce6a87b8&#45;&gt;Node0x55fdce6aa658</title>
<path fill="none" stroke="black" d="M1224.37,-1949.23C1233.05,-1944.47 1241.05,-1938.58 1248,-1931.31 1299.79,-1877.17 1235.83,-1657.13 1282.58,-1585.51"/>
<polygon fill="black" stroke="black" points="1285.42,-1587.55 1288.84,-1577.53 1279.91,-1583.23 1285.42,-1587.55"/>
</g>
<!-- Node0x55fdce6a87b8&#45;&gt;Node0x55fdce6a9938 -->
<g id="edge98" class="edge">
<title>Node0x55fdce6a87b8&#45;&gt;Node0x55fdce6a9938</title>
<path fill="none" stroke="black" d="M1233.34,-1979.25C1433.45,-1996.04 1777.44,-2032.92 2065,-2104.31 2117.4,-2117.32 2175.4,-2137.95 2216.38,-2153.63"/>
<polygon fill="black" stroke="black" points="2215.31,-2156.97 2225.9,-2157.3 2217.82,-2150.44 2215.31,-2156.97"/>
</g>
<!-- Node0x55fdce6ab2d8&#45;&gt;Node0x55fdce6aa1f8 -->
<g id="edge140" class="edge">
<title>Node0x55fdce6ab2d8&#45;&gt;Node0x55fdce6aa1f8</title>
<path fill="none" stroke="black" d="M1235.09,-1898.06C1239.72,-1894.61 1244.05,-1890.71 1248,-1886.31 1314.87,-1811.85 1223.6,-1066.11 1284,-986.31 1298.88,-966.65 1319.83,-952.85 1342.61,-943.17"/>
<polygon fill="black" stroke="black" points="1344.11,-946.34 1352.12,-939.4 1341.53,-939.83 1344.11,-946.34"/>
</g>
<!-- Node0x55fdce6ab2d8&#45;&gt;Node0x55fdce6a7048 -->
<g id="edge142" class="edge">
<title>Node0x55fdce6ab2d8&#45;&gt;Node0x55fdce6a7048</title>
<path fill="none" stroke="black" d="M1235.03,-1898.01C1239.68,-1894.57 1244.03,-1890.69 1248,-1886.31 1301.24,-1827.65 1248.04,-1244.89 1284,-1174.31 1316.83,-1109.86 1388.39,-1062.35 1436.26,-1036.25"/>
<polygon fill="black" stroke="black" points="1438.04,-1039.27 1445.21,-1031.47 1434.74,-1033.1 1438.04,-1039.27"/>
</g>
<!-- Node0x55fdce6ab2d8&#45;&gt;Node0x55fdce6a7278 -->
<g id="edge143" class="edge">
<title>Node0x55fdce6ab2d8&#45;&gt;Node0x55fdce6a7278</title>
<path fill="none" stroke="black" d="M1235.36,-1897.69C1239.88,-1894.33 1244.12,-1890.55 1248,-1886.31 1340.41,-1785.3 1189.57,-1370.42 1284,-1271.31 1345.82,-1206.42 1622.61,-1292.65 1685,-1228.31 1758.23,-1152.79 1649.67,-833.62 1721,-756.31 1724.73,-752.27 1728.79,-748.67 1733.13,-745.47"/>
<polygon fill="black" stroke="black" points="1735.35,-748.2 1741.79,-739.79 1731.51,-742.35 1735.35,-748.2"/>
</g>
<!-- Node0x55fdce6ab2d8&#45;&gt;Node0x55fdce6aa8d8 -->
<g id="edge141" class="edge">
<title>Node0x55fdce6ab2d8&#45;&gt;Node0x55fdce6aa8d8</title>
<path fill="none" stroke="black" d="M1235.3,-1897.63C1239.84,-1894.29 1244.09,-1890.53 1248,-1886.31 1325.34,-1802.78 1204.48,-1456.77 1284,-1375.31 1346.52,-1311.26 1621.59,-1400.48 1685,-1337.31 1742.74,-1279.79 1665.07,-1031.6 1721,-972.31 1728.42,-964.44 1737.14,-958.25 1746.64,-953.42"/>
<polygon fill="black" stroke="black" points="1748.3,-956.51 1755.97,-949.2 1745.42,-950.13 1748.3,-956.51"/>
</g>
<!-- Node0x55fdce6ab2d8&#45;&gt;Node0x55fdce6a98e8 -->
<g id="edge138" class="edge">
<title>Node0x55fdce6ab2d8&#45;&gt;Node0x55fdce6a98e8</title>
<path fill="none" stroke="black" d="M1235.13,-1897.47C1239.72,-1894.17 1244.03,-1890.47 1248,-1886.31 1302.61,-1829.13 1230.89,-1590.89 1284,-1532.31 1406.12,-1397.6 1536.41,-1556.09 1685,-1451.31 1800.44,-1369.9 1862.83,-1201.81 1883.82,-1135.29"/>
<polygon fill="black" stroke="black" points="1887.23,-1136.1 1886.83,-1125.51 1880.54,-1134.04 1887.23,-1136.1"/>
</g>
<!-- Node0x55fdce6ab2d8&#45;&gt;Node0x55fdce6aa018 -->
<g id="edge139" class="edge">
<title>Node0x55fdce6ab2d8&#45;&gt;Node0x55fdce6aa018</title>
<path fill="none" stroke="black" d="M1235.22,-1897.56C1239.78,-1894.24 1244.06,-1890.5 1248,-1886.31 1312.89,-1817.22 1221.36,-1532.44 1284,-1461.31 1404.47,-1324.52 1563.29,-1510.99 1685,-1375.31 1737.06,-1317.27 1667.37,-1082.9 1721,-1026.31 1724.44,-1022.68 1728.15,-1019.41 1732.08,-1016.47"/>
<polygon fill="black" stroke="black" points="1734.09,-1019.34 1740.46,-1010.87 1730.2,-1013.52 1734.09,-1019.34"/>
</g>
<!-- Node0x55fdce6ab008&#45;&gt;Node0x55fdce6aa1f8 -->
<g id="edge102" class="edge">
<title>Node0x55fdce6ab008&#45;&gt;Node0x55fdce6aa1f8</title>
<path fill="none" stroke="black" d="M1238.8,-2003.18C1242.05,-2000.47 1245.13,-1997.52 1248,-1994.31 1322.7,-1910.77 1216.55,-1075.81 1284,-986.31 1298.84,-966.62 1319.77,-952.8 1342.54,-943.12"/>
<polygon fill="black" stroke="black" points="1344.04,-946.29 1352.05,-939.35 1341.46,-939.78 1344.04,-946.29"/>
</g>
<!-- Node0x55fdce6ab008&#45;&gt;Node0x55fdce6a7048 -->
<g id="edge103" class="edge">
<title>Node0x55fdce6ab008&#45;&gt;Node0x55fdce6a7048</title>
<path fill="none" stroke="black" d="M1238.76,-2003.15C1242.02,-2000.45 1245.11,-1997.51 1248,-1994.31 1309.07,-1926.58 1242.87,-1255.71 1284,-1174.31 1316.62,-1109.75 1388.23,-1062.27 1436.18,-1036.21"/>
<polygon fill="black" stroke="black" points="1437.95,-1039.22 1445.14,-1031.43 1434.66,-1033.05 1437.95,-1039.22"/>
</g>
<!-- Node0x55fdce6ab008&#45;&gt;Node0x55fdce6a6e18 -->
<g id="edge105" class="edge">
<title>Node0x55fdce6ab008&#45;&gt;Node0x55fdce6a6e18</title>
<path fill="none" stroke="black" d="M1238.82,-2003.2C1242.06,-2000.49 1245.13,-1997.53 1248,-1994.31 1333.3,-1898.49 1215.56,-948.82 1284,-840.31 1309.71,-799.54 1357.13,-774.13 1399.28,-758.75"/>
<polygon fill="black" stroke="black" points="1400.47,-762.04 1408.75,-755.43 1398.15,-755.43 1400.47,-762.04"/>
</g>
<!-- Node0x55fdce6ab008&#45;&gt;Node0x55fdce6a7278 -->
<g id="edge104" class="edge">
<title>Node0x55fdce6ab008&#45;&gt;Node0x55fdce6a7278</title>
<path fill="none" stroke="black" d="M1238.16,-2003.23C1241.63,-2000.51 1244.92,-1997.55 1248,-1994.31 1304.2,-1935.28 1226.61,-1687.19 1284,-1629.31 1347.1,-1565.67 1623.67,-1651.66 1685,-1586.31 1748.17,-1519 1659.53,-825.17 1721,-756.31 1724.82,-752.04 1729.01,-748.25 1733.51,-744.9"/>
<polygon fill="black" stroke="black" points="1735.51,-747.77 1741.91,-739.33 1731.64,-741.94 1735.51,-747.77"/>
</g>
<!-- Node0x55fdce6ab008&#45;&gt;Node0x55fdce6a98e8 -->
<g id="edge100" class="edge">
<title>Node0x55fdce6ab008&#45;&gt;Node0x55fdce6a98e8</title>
<path fill="none" stroke="black" d="M1216.48,-2003.29C1227.25,-2000.69 1237.86,-1997.71 1248,-1994.31 1457.86,-1923.86 1544.13,-1926.07 1685,-1755.31 1847.28,-1558.59 1883.07,-1232.71 1890.3,-1135.51"/>
<polygon fill="black" stroke="black" points="1893.81,-1135.53 1891.01,-1125.31 1886.82,-1135.04 1893.81,-1135.53"/>
</g>
<!-- Node0x55fdce6ab008&#45;&gt;Node0x55fdce6aa018 -->
<g id="edge101" class="edge">
<title>Node0x55fdce6ab008&#45;&gt;Node0x55fdce6aa018</title>
<path fill="none" stroke="black" d="M1237.33,-2003.06C1241.07,-2000.4 1244.64,-1997.49 1248,-1994.31 1305.69,-1939.74 1235.6,-1882.26 1284,-1819.31 1405.4,-1661.43 1575.13,-1785.42 1685,-1619.31 1757.83,-1509.2 1632.23,-1124.03 1721,-1026.31 1724.36,-1022.61 1728,-1019.28 1731.88,-1016.28"/>
<polygon fill="black" stroke="black" points="1733.9,-1019.14 1740.15,-1010.59 1729.93,-1013.37 1733.9,-1019.14"/>
</g>
<!-- Node0x55fdce6ab008&#45;&gt;Node0x55fdce6a9938 -->
<g id="edge106" class="edge">
<title>Node0x55fdce6ab008&#45;&gt;Node0x55fdce6a9938</title>
<path fill="none" stroke="black" d="M1206.82,-2039.31C1435.29,-2068.53 1884.76,-2125.99 2119.57,-2156.01"/>
<polygon fill="black" stroke="black" points="2119.19,-2159.49 2129.55,-2157.29 2120.08,-2152.55 2119.19,-2159.49"/>
</g>
<!-- Node0x55fdce6aab58&#45;&gt;Node0x55fdce6a7048 -->
<g id="edge146" class="edge">
<title>Node0x55fdce6aab58&#45;&gt;Node0x55fdce6a7048</title>
<path fill="none" stroke="black" d="M1106.41,-2225.16C1150.13,-2203.08 1217.64,-2161.31 1248,-2102.31 1342.42,-1918.8 1191.4,-1358.75 1284,-1174.31 1316.46,-1109.66 1388.11,-1062.21 1436.11,-1036.17"/>
<polygon fill="black" stroke="black" points="1437.89,-1039.19 1445.08,-1031.41 1434.61,-1033.01 1437.89,-1039.19"/>
</g>
<!-- Node0x55fdce6aab58&#45;&gt;Node0x55fdce6a7278 -->
<g id="edge147" class="edge">
<title>Node0x55fdce6aab58&#45;&gt;Node0x55fdce6a7278</title>
<path fill="none" stroke="black" d="M1091.57,-2225.17C1127.58,-2199.25 1194.78,-2149.53 1248,-2102.31 1351.44,-2010.54 1629.98,-1786.17 1685,-1659.31 1724.95,-1567.19 1654.26,-831.33 1721,-756.31 1724.81,-752.03 1729,-748.24 1733.49,-744.88"/>
<polygon fill="black" stroke="black" points="1735.49,-747.75 1741.89,-739.31 1731.62,-741.92 1735.49,-747.75"/>
</g>
<!-- Node0x55fdce6aab58&#45;&gt;Node0x55fdce6ab058 -->
<g id="edge148" class="edge">
<title>Node0x55fdce6aab58&#45;&gt;Node0x55fdce6ab058</title>
<path fill="none" stroke="black" d="M1239.16,-2246.66C1379.25,-2249.38 1575.69,-2253.18 1716.43,-2255.91"/>
<polygon fill="black" stroke="black" points="1716.4,-2259.41 1726.47,-2256.1 1716.53,-2252.41 1716.4,-2259.41"/>
</g>
<!-- Node0x55fdce6aab58&#45;&gt;Node0x55fdce6a98e8 -->
<g id="edge144" class="edge">
<title>Node0x55fdce6aab58&#45;&gt;Node0x55fdce6a98e8</title>
<path fill="none" stroke="black" d="M1239.29,-2228.24C1400.2,-2210.59 1623.87,-2175.53 1685,-2113.31 1827.49,-1968.28 1880.38,-1283.36 1890.23,-1135.49"/>
<polygon fill="black" stroke="black" points="1893.73,-1135.62 1890.89,-1125.42 1886.74,-1135.17 1893.73,-1135.62"/>
</g>
<!-- Node0x55fdce6aab58&#45;&gt;Node0x55fdce6aa018 -->
<g id="edge145" class="edge">
<title>Node0x55fdce6aab58&#45;&gt;Node0x55fdce6aa018</title>
<path fill="none" stroke="black" d="M1227.25,-2225.19C1234.62,-2221.25 1241.6,-2216.66 1248,-2211.31 1283.6,-2181.54 1247.25,-2141.63 1284,-2113.31 1354.9,-2058.67 1623.64,-2140.48 1685,-2075.31 1764.95,-1990.4 1643.73,-1113.66 1721,-1026.31 1724.37,-1022.5 1728.04,-1019.08 1731.96,-1016"/>
<polygon fill="black" stroke="black" points="1734.12,-1018.76 1740.33,-1010.18 1730.12,-1013.02 1734.12,-1018.76"/>
</g>
<!-- Node0x55fdce6aab58&#45;&gt;Node0x55fdce6a9938 -->
<g id="edge149" class="edge">
<title>Node0x55fdce6aab58&#45;&gt;Node0x55fdce6a9938</title>
<path fill="none" stroke="black" d="M1142.71,-2261.35C1312.2,-2298.03 1730.08,-2370.98 2065,-2286.31 2131.33,-2269.54 2199.5,-2226.65 2238.27,-2199.36"/>
<polygon fill="black" stroke="black" points="2240.44,-2202.11 2246.55,-2193.46 2236.37,-2196.42 2240.44,-2202.11"/>
</g>
<!-- Node0x55fdce6a9a78 -->
<g id="node26" class="node">
<title>Node0x55fdce6a9a78</title>
<polygon fill="none" stroke="black" points="386,-1877.31 58,-1877.31 58,-1841.31 386,-1841.31 386,-1877.31"/>
<text text-anchor="middle" x="222" y="-1855.61" font-family="Times,serif" font-size="14.00">{lib/libLLVMMC.a(MCAsmStreamer.cpp.o)}</text>
</g>
<!-- Node0x55fdce6a9a78&#45;&gt;Node0x55fdce6a82b8 -->
<g id="edge17" class="edge">
<title>Node0x55fdce6a9a78&#45;&gt;Node0x55fdce6a82b8</title>
<path fill="none" stroke="black" d="M224.4,-1841.05C234.85,-1710.18 305.02,-915.8 480,-769.31 512.05,-742.48 744.53,-736.92 906.31,-736.38"/>
<polygon fill="black" stroke="black" points="906.38,-739.88 916.37,-736.35 906.36,-732.88 906.38,-739.88"/>
</g>
<!-- Node0x55fdce6a9a78&#45;&gt;Node0x55fdce6a88a8 -->
<g id="edge8" class="edge">
<title>Node0x55fdce6a9a78&#45;&gt;Node0x55fdce6a88a8</title>
<path fill="none" stroke="black" d="M232.18,-1840.96C260.47,-1786.61 352.16,-1625.88 480,-1556.31 782.34,-1391.76 1001.64,-1696.71 1248,-1456.31 1322.68,-1383.43 1208.79,-1296.63 1284,-1224.31 1293.12,-1215.54 1303.67,-1208.79 1315.05,-1203.67"/>
<polygon fill="black" stroke="black" points="1316.39,-1206.91 1324.35,-1199.91 1313.76,-1200.42 1316.39,-1206.91"/>
</g>
<!-- Node0x55fdce6a9a78&#45;&gt;Node0x55fdce6a8f38 -->
<g id="edge9" class="edge">
<title>Node0x55fdce6a9a78&#45;&gt;Node0x55fdce6a8f38</title>
<path fill="none" stroke="black" d="M224.59,-1841.27C236.08,-1715.28 310.87,-968.21 480,-836.31 616.79,-729.63 1147.5,-807.58 1376.89,-847.55"/>
<polygon fill="black" stroke="black" points="1376.46,-851.02 1386.92,-849.3 1377.67,-844.13 1376.46,-851.02"/>
</g>
<!-- Node0x55fdce6a9a78&#45;&gt;Node0x55fdce6a9898 -->
<g id="edge12" class="edge">
<title>Node0x55fdce6a9a78&#45;&gt;Node0x55fdce6a9898</title>
<path fill="none" stroke="black" d="M224.25,-1841.06C236.68,-1662.34 340.5,-228.83 480,-108.31 609.15,3.26 1122.43,7.27 1248,-108.31 1319.2,-173.85 1223.96,-466.41 1284,-542.31 1299.66,-562.11 1321.46,-575.95 1344.94,-585.61"/>
<polygon fill="black" stroke="black" points="1343.77,-588.91 1354.36,-589.24 1346.29,-582.38 1343.77,-588.91"/>
</g>
<!-- Node0x55fdce6a9a78&#45;&gt;Node0x55fdce6aa1f8 -->
<g id="edge13" class="edge">
<title>Node0x55fdce6a9a78&#45;&gt;Node0x55fdce6aa1f8</title>
<path fill="none" stroke="black" d="M232.3,-1841.26C261.96,-1785.07 359.48,-1610.43 480,-1501.31 632.92,-1362.86 700.01,-1366.44 882,-1269.31 1041.92,-1183.96 1127.79,-1225 1248,-1089.31 1280.16,-1053.01 1249.35,-1020.23 1284,-986.31 1304.67,-966.08 1331.7,-952.14 1359.17,-942.55"/>
<polygon fill="black" stroke="black" points="1360.49,-945.79 1368.89,-939.33 1358.3,-939.15 1360.49,-945.79"/>
</g>
<!-- Node0x55fdce6a9a78&#45;&gt;Node0x55fdce6a7048 -->
<g id="edge15" class="edge">
<title>Node0x55fdce6a9a78&#45;&gt;Node0x55fdce6a7048</title>
<path fill="none" stroke="black" d="M291.03,-1841.26C342.59,-1828.11 415.36,-1810.68 480,-1799.31 657.22,-1768.14 703.04,-1770.06 882,-1751.31 922.61,-1747.06 1219.47,-1747.52 1248,-1718.31 1332.64,-1631.63 1228.17,-1281.83 1284,-1174.31 1317.43,-1109.93 1389.17,-1062.26 1436.88,-1036.13"/>
<polygon fill="black" stroke="black" points="1438.63,-1039.16 1445.78,-1031.34 1435.32,-1032.99 1438.63,-1039.16"/>
</g>
<!-- Node0x55fdce6a9a78&#45;&gt;Node0x55fdce6a6e18 -->
<g id="edge18" class="edge">
<title>Node0x55fdce6a9a78&#45;&gt;Node0x55fdce6a6e18</title>
<path fill="none" stroke="black" d="M223.35,-1840.94C226.67,-1689.6 257.46,-649.43 480,-458.31 738.97,-235.89 984.89,-228.8 1248,-446.31 1313.57,-500.51 1233.08,-566.16 1284,-634.31 1313.93,-674.37 1363.97,-700.15 1406.44,-715.9"/>
<polygon fill="black" stroke="black" points="1405.34,-719.22 1415.94,-719.3 1407.7,-712.63 1405.34,-719.22"/>
</g>
<!-- Node0x55fdce6a9a78&#45;&gt;Node0x55fdce6aa8d8 -->
<g id="edge14" class="edge">
<title>Node0x55fdce6a9a78&#45;&gt;Node0x55fdce6aa8d8</title>
<path fill="none" stroke="black" d="M386.19,-1842.12C674.99,-1811.67 1246.13,-1751.22 1248,-1749.31 1312.34,-1683.68 1225.06,-1407.82 1284,-1337.31 1402.45,-1195.61 1562.87,-1366.85 1685,-1228.31 1760.98,-1142.12 1640.44,-1054.24 1721,-972.31 1728.51,-964.68 1737.23,-958.64 1746.7,-953.92"/>
<polygon fill="black" stroke="black" points="1748.27,-957.04 1755.98,-949.77 1745.42,-950.65 1748.27,-957.04"/>
</g>
<!-- Node0x55fdce6a9a78&#45;&gt;Node0x55fdce6aa018 -->
<g id="edge11" class="edge">
<title>Node0x55fdce6a9a78&#45;&gt;Node0x55fdce6aa018</title>
<path fill="none" stroke="black" d="M245.53,-1877.57C288.43,-1911.37 385.98,-1983.69 480,-2021.31 639.33,-2085.07 1117.1,-2213.28 1248,-2102.31 1322.57,-2039.09 1215.67,-1955.23 1284,-1885.31 1410.79,-1755.58 1566.11,-1946.31 1685,-1809.31 1742.08,-1743.53 1662.92,-1091.2 1721,-1026.31 1724.39,-1022.52 1728.08,-1019.11 1732.02,-1016.06"/>
<polygon fill="black" stroke="black" points="1734.18,-1018.82 1740.42,-1010.26 1730.2,-1013.06 1734.18,-1018.82"/>
</g>
<!-- Node0x55fdce6a9a78&#45;&gt;Node0x55fdce6a8fd8 -->
<g id="edge10" class="edge">
<title>Node0x55fdce6a9a78&#45;&gt;Node0x55fdce6a8fd8</title>
<path fill="none" stroke="black" d="M281.75,-1877.38C362.63,-1902.25 507.96,-1946.94 593.62,-1973.28"/>
<polygon fill="black" stroke="black" points="592.66,-1976.65 603.25,-1976.24 594.72,-1969.96 592.66,-1976.65"/>
</g>
<!-- Node0x55fdce6a7e58 -->
<g id="node27" class="node">
<title>Node0x55fdce6a7e58</title>
<polygon fill="none" stroke="black" points="792.5,-1877.31 533.5,-1877.31 533.5,-1841.31 792.5,-1841.31 792.5,-1877.31"/>
<text text-anchor="middle" x="663" y="-1855.61" font-family="Times,serif" font-size="14.00">{lib/libLLVMMC.a(MCInst.cpp.o)}</text>
</g>
<!-- Node0x55fdce6a9a78&#45;&gt;Node0x55fdce6a7e58 -->
<g id="edge16" class="edge">
<title>Node0x55fdce6a9a78&#45;&gt;Node0x55fdce6a7e58</title>
<path fill="none" stroke="black" d="M386.16,-1859.31C431.18,-1859.31 479.6,-1859.31 523.12,-1859.31"/>
<polygon fill="black" stroke="black" points="523.19,-1862.81 533.19,-1859.31 523.19,-1855.81 523.19,-1862.81"/>
</g>
<!-- Node0x55fdce6a7e58&#45;&gt;Node0x55fdce6a7048 -->
<g id="edge83" class="edge">
<title>Node0x55fdce6a7e58&#45;&gt;Node0x55fdce6a7048</title>
<path fill="none" stroke="black" d="M792.72,-1843.94C955.42,-1823.25 1218.04,-1785.12 1248,-1751.31 1333.21,-1655.16 1225.01,-1288.44 1284,-1174.31 1317.31,-1109.86 1389.08,-1062.22 1436.83,-1036.1"/>
<polygon fill="black" stroke="black" points="1438.58,-1039.13 1445.74,-1031.32 1435.28,-1032.96 1438.58,-1039.13"/>
</g>
<!-- Node0x55fdce6a8178 -->
<g id="node37" class="node">
<title>Node0x55fdce6a8178</title>
<polygon fill="none" stroke="black" points="1219,-1877.31 911,-1877.31 911,-1841.31 1219,-1841.31 1219,-1877.31"/>
<text text-anchor="middle" x="1065" y="-1855.61" font-family="Times,serif" font-size="14.00">{lib/libLLVMMC.a(MCInstPrinter.cpp.o)}</text>
</g>
<!-- Node0x55fdce6a7e58&#45;&gt;Node0x55fdce6a8178 -->
<g id="edge84" class="edge">
<title>Node0x55fdce6a7e58&#45;&gt;Node0x55fdce6a8178</title>
<path fill="none" stroke="black" d="M792.76,-1859.31C827.1,-1859.31 864.67,-1859.31 900.6,-1859.31"/>
<polygon fill="black" stroke="black" points="900.69,-1862.81 910.69,-1859.31 900.69,-1855.81 900.69,-1862.81"/>
</g>
<!-- Node0x55fdce6ab918 -->
<g id="node28" class="node">
<title>Node0x55fdce6ab918</title>
<polygon fill="none" stroke="black" points="826,-881.31 500,-881.31 500,-845.31 826,-845.31 826,-881.31"/>
<text text-anchor="middle" x="663" y="-859.61" font-family="Times,serif" font-size="14.00">{lib/libLLVMMC.a(MCELFStreamer.cpp.o)}</text>
</g>
<!-- Node0x55fdce6ab918&#45;&gt;Node0x55fdce6a82b8 -->
<g id="edge36" class="edge">
<title>Node0x55fdce6ab918&#45;&gt;Node0x55fdce6a82b8</title>
<path fill="none" stroke="black" d="M721.31,-845.26C794.23,-822.29 919.96,-782.68 997.16,-758.36"/>
<polygon fill="black" stroke="black" points="998.31,-761.67 1006.8,-755.33 996.21,-754.99 998.31,-761.67"/>
</g>
<!-- Node0x55fdce6ab918&#45;&gt;Node0x55fdce6a8f38 -->
<g id="edge31" class="edge">
<title>Node0x55fdce6ab918&#45;&gt;Node0x55fdce6a8f38</title>
<path fill="none" stroke="black" d="M826.4,-864.1C973.47,-864.82 1188.48,-865.87 1332.05,-866.57"/>
<polygon fill="black" stroke="black" points="1332.25,-870.07 1342.27,-866.62 1332.28,-863.07 1332.25,-870.07"/>
</g>
<!-- Node0x55fdce6ab918&#45;&gt;Node0x55fdce6aa1f8 -->
<g id="edge33" class="edge">
<title>Node0x55fdce6ab918&#45;&gt;Node0x55fdce6aa1f8</title>
<path fill="none" stroke="black" d="M826.34,-876.17C833.38,-880.13 840,-884.8 846,-890.31 896.85,-936.93 827.85,-998.55 882,-1041.31 1009.67,-1142.12 1104.91,-1118.67 1248,-1041.31 1273.7,-1027.42 1260.8,-1004.06 1284,-986.31 1310.48,-966.05 1343.53,-951.97 1375.06,-942.24"/>
<polygon fill="black" stroke="black" points="1376.2,-945.55 1384.79,-939.35 1374.21,-938.84 1376.2,-945.55"/>
</g>
<!-- Node0x55fdce6ab918&#45;&gt;Node0x55fdce6a7048 -->
<g id="edge34" class="edge">
<title>Node0x55fdce6ab918&#45;&gt;Node0x55fdce6a7048</title>
<path fill="none" stroke="black" d="M826.3,-875.54C833.4,-879.65 840.04,-884.53 846,-890.31 910.55,-952.85 813.02,-1031.69 882,-1089.31 1006.84,-1193.59 1092.31,-1136.45 1248,-1089.31 1266.4,-1083.74 1266.45,-1073.18 1284,-1065.31 1313.54,-1052.06 1347.12,-1041.69 1378.19,-1033.8"/>
<polygon fill="black" stroke="black" points="1379.31,-1037.13 1388.18,-1031.33 1377.63,-1030.33 1379.31,-1037.13"/>
</g>
<!-- Node0x55fdce6ab918&#45;&gt;Node0x55fdce6a6e18 -->
<g id="edge37" class="edge">
<title>Node0x55fdce6ab918&#45;&gt;Node0x55fdce6a6e18</title>
<path fill="none" stroke="black" d="M693.17,-845.21C730.93,-820.95 797.62,-775.25 846,-726.31 865,-707.09 857.89,-689.51 882,-677.31 954.57,-640.58 1171.07,-650.91 1248,-677.31 1267.17,-683.89 1265.41,-697.23 1284,-705.31 1299.26,-711.94 1315.72,-717.22 1332.4,-721.41"/>
<polygon fill="black" stroke="black" points="1331.7,-724.84 1342.24,-723.75 1333.33,-718.03 1331.7,-724.84"/>
</g>
<!-- Node0x55fdce6ab918&#45;&gt;Node0x55fdce6a9668 -->
<g id="edge30" class="edge">
<title>Node0x55fdce6ab918&#45;&gt;Node0x55fdce6a9668</title>
<path fill="none" stroke="black" d="M702.37,-845.25C744.58,-823.29 811.06,-782.12 846,-726.31 890.22,-655.68 817.67,-595.27 882,-542.31 1007.58,-438.92 1085.49,-535.26 1248,-542.31 1296.69,-544.42 1648.61,-547.88 1685,-580.31 1744.61,-633.43 1663.28,-701.14 1721,-756.31 1721.84,-757.11 1722.7,-757.9 1723.57,-758.67"/>
<polygon fill="black" stroke="black" points="1721.71,-761.66 1731.72,-765.12 1726.05,-756.17 1721.71,-761.66"/>
</g>
<!-- Node0x55fdce6ab918&#45;&gt;Node0x55fdce6a7278 -->
<g id="edge35" class="edge">
<title>Node0x55fdce6ab918&#45;&gt;Node0x55fdce6a7278</title>
<path fill="none" stroke="black" d="M703.56,-845.11C746.19,-823.29 812.42,-782.49 846,-726.31 900.21,-635.61 802.08,-560.43 882,-491.31 1151.92,-257.83 1401.79,-271.14 1685,-488.31 1733.94,-525.83 1684.32,-572.74 1721,-622.31 1749.81,-661.24 1797.39,-689.33 1835.05,-706.94"/>
<polygon fill="black" stroke="black" points="1833.85,-710.23 1844.4,-711.19 1836.74,-703.86 1833.85,-710.23"/>
</g>
<!-- Node0x55fdce6ab918&#45;&gt;Node0x55fdce6ab378 -->
<g id="edge38" class="edge">
<title>Node0x55fdce6ab918&#45;&gt;Node0x55fdce6ab378</title>
<path fill="none" stroke="black" d="M826.29,-874.28C833.49,-878.69 840.14,-883.98 846,-890.31 923.34,-973.84 798.72,-1323.69 882,-1401.31 1001,-1512.22 1124.3,-1506.94 1248,-1401.31 1325.68,-1334.98 1213.77,-1248.48 1284,-1174.31 1315.9,-1140.62 1580.69,-1097.41 1750.15,-1072.8"/>
<polygon fill="black" stroke="black" points="1750.77,-1076.25 1760.16,-1071.35 1749.77,-1069.32 1750.77,-1076.25"/>
</g>
<!-- Node0x55fdce6ab918&#45;&gt;Node0x55fdce6aa018 -->
<g id="edge32" class="edge">
<title>Node0x55fdce6ab918&#45;&gt;Node0x55fdce6aa018</title>
<path fill="none" stroke="black" d="M826.25,-874.32C833.46,-878.71 840.12,-884 846,-890.31 918.27,-967.96 804.21,-1294.18 882,-1366.31 941.64,-1421.61 1186.84,-1419.93 1248,-1366.31 1340.02,-1285.63 1197.47,-1179.86 1284,-1093.31 1347.55,-1029.74 1597.93,-1062.65 1685,-1040.31 1701.63,-1036.04 1704.43,-1030.78 1721,-1026.31 1730.15,-1023.84 1739.65,-1021.57 1749.26,-1019.48"/>
<polygon fill="black" stroke="black" points="1750.24,-1022.85 1759.31,-1017.38 1748.8,-1016 1750.24,-1022.85"/>
</g>
<!-- Node0x55fdce6a8c18 -->
<g id="node29" class="node">
<title>Node0x55fdce6a8c18</title>
<polygon fill="none" stroke="black" points="836.5,-633.31 489.5,-633.31 489.5,-597.31 836.5,-597.31 836.5,-633.31"/>
<text text-anchor="middle" x="663" y="-611.61" font-family="Times,serif" font-size="14.00">{lib/libLLVMMC.a(MCMachOStreamer.cpp.o)}</text>
</g>
<!-- Node0x55fdce6a8c18&#45;&gt;Node0x55fdce6a82b8 -->
<g id="edge44" class="edge">
<title>Node0x55fdce6a8c18&#45;&gt;Node0x55fdce6a82b8</title>
<path fill="none" stroke="black" d="M723.02,-633.31C795.55,-655.43 918.39,-692.9 995.15,-716.31"/>
<polygon fill="black" stroke="black" points="994.15,-719.66 1004.74,-719.23 996.19,-712.97 994.15,-719.66"/>
</g>
<!-- Node0x55fdce6a8c18&#45;&gt;Node0x55fdce6aa1f8 -->
<g id="edge41" class="edge">
<title>Node0x55fdce6a8c18&#45;&gt;Node0x55fdce6aa1f8</title>
<path fill="none" stroke="black" d="M789.34,-633.48C811.03,-642.01 831.3,-654.39 846,-672.31 893.63,-730.37 826.14,-958.12 882,-1008.31 1002.99,-1117.03 1091.41,-1052.37 1248,-1008.31 1266.05,-1003.23 1266.97,-994.16 1284,-986.31 1322.57,-968.54 1367.39,-953.47 1404.76,-942.33"/>
<polygon fill="black" stroke="black" points="1405.98,-945.62 1414.59,-939.44 1404.01,-938.91 1405.98,-945.62"/>
</g>
<!-- Node0x55fdce6a8c18&#45;&gt;Node0x55fdce6a7048 -->
<g id="edge42" class="edge">
<title>Node0x55fdce6a8c18&#45;&gt;Node0x55fdce6a7048</title>
<path fill="none" stroke="black" d="M790.17,-633.36C811.66,-641.91 831.64,-654.33 846,-672.31 907.92,-749.83 809.07,-1050.04 882,-1117.31 941.79,-1172.45 1175.96,-1155.06 1248,-1117.31 1272.9,-1104.26 1260.96,-1081.41 1284,-1065.31 1303.38,-1051.76 1326.04,-1041.74 1349,-1034.33"/>
<polygon fill="black" stroke="black" points="1350.32,-1037.59 1358.85,-1031.32 1348.27,-1030.9 1350.32,-1037.59"/>
</g>
<!-- Node0x55fdce6a8c18&#45;&gt;Node0x55fdce6a6e18 -->
<g id="edge45" class="edge">
<title>Node0x55fdce6a8c18&#45;&gt;Node0x55fdce6a6e18</title>
<path fill="none" stroke="black" d="M836.65,-604.05C983.79,-597.75 1181.64,-598.05 1248,-639.31 1276.38,-656.95 1256.71,-686.02 1284,-705.31 1298.62,-715.64 1315.35,-723.13 1332.75,-728.49"/>
<polygon fill="black" stroke="black" points="1331.91,-731.89 1342.48,-731.26 1333.82,-725.16 1331.91,-731.89"/>
</g>
<!-- Node0x55fdce6a8c18&#45;&gt;Node0x55fdce6a9668 -->
<g id="edge39" class="edge">
<title>Node0x55fdce6a8c18&#45;&gt;Node0x55fdce6a9668</title>
<path fill="none" stroke="black" d="M718.37,-597.15C759.01,-580.93 813.01,-553.34 846,-512.31 880.09,-469.91 838.24,-427.63 882,-395.31 1012.85,-298.67 1086.23,-378.29 1248,-395.31 1445.48,-416.09 1550.04,-342.65 1685,-488.31 1766.68,-576.46 1637.01,-670.35 1721,-756.31 1721.79,-757.12 1722.59,-757.9 1723.4,-758.67"/>
<polygon fill="black" stroke="black" points="1721.17,-761.37 1731.07,-765.15 1725.69,-756.02 1721.17,-761.37"/>
</g>
<!-- Node0x55fdce6a8c18&#45;&gt;Node0x55fdce6a7278 -->
<g id="edge43" class="edge">
<title>Node0x55fdce6a8c18&#45;&gt;Node0x55fdce6a7278</title>
<path fill="none" stroke="black" d="M723.12,-597.28C764.25,-581.57 816.77,-554.56 846,-512.31 905.11,-426.86 803.07,-348.89 882,-281.31 949.77,-223.28 1618.68,-221.62 1685,-281.31 1741.64,-332.28 1680.63,-557.69 1721,-622.31 1746.06,-662.42 1792.27,-689.99 1830.34,-707.09"/>
<polygon fill="black" stroke="black" points="1829.26,-710.43 1839.83,-711.21 1832.05,-704.01 1829.26,-710.43"/>
</g>
<!-- Node0x55fdce6a8c18&#45;&gt;Node0x55fdce6aa018 -->
<g id="edge40" class="edge">
<title>Node0x55fdce6a8c18&#45;&gt;Node0x55fdce6aa018</title>
<path fill="none" stroke="black" d="M696.16,-597.14C791.38,-546 1075.95,-412.81 1248,-542.31 1294.19,-577.08 1239.73,-630.13 1284,-667.31 1352.63,-724.95 1620.69,-647.89 1685,-710.31 1769.34,-792.18 1638.73,-888.37 1721,-972.31 1724.34,-975.72 1727.93,-978.81 1731.72,-981.61"/>
<polygon fill="black" stroke="black" points="1730.05,-984.7 1740.32,-987.29 1733.9,-978.86 1730.05,-984.7"/>
</g>
<!-- Node0x55fdce6a9de8 -->
<g id="node30" class="node">
<title>Node0x55fdce6a9de8</title>
<polygon fill="none" stroke="black" points="444,-2361.31 0,-2361.31 0,-2325.31 444,-2325.31 444,-2361.31"/>
<text text-anchor="middle" x="222" y="-2339.61" font-family="Times,serif" font-size="14.00">{lib/libLLVMMC.a(MCTargetOptionsCommandFlags.cpp.o)}</text>
</g>
<!-- Node0x55fdce6aa478 -->
<g id="node31" class="node">
<title>Node0x55fdce6aa478</title>
<polygon fill="none" stroke="black" points="829.5,-2361.31 496.5,-2361.31 496.5,-2325.31 829.5,-2325.31 829.5,-2361.31"/>
<text text-anchor="middle" x="663" y="-2339.61" font-family="Times,serif" font-size="14.00">{lib/libLLVMMC.a(MCTargetOptions.cpp.o)}</text>
</g>
<!-- Node0x55fdce6a9de8&#45;&gt;Node0x55fdce6aa478 -->
<g id="edge46" class="edge">
<title>Node0x55fdce6a9de8&#45;&gt;Node0x55fdce6aa478</title>
<path fill="none" stroke="black" d="M444.11,-2343.31C458.27,-2343.31 472.42,-2343.31 486.33,-2343.31"/>
<polygon fill="black" stroke="black" points="486.41,-2346.81 496.41,-2343.31 486.41,-2339.81 486.41,-2346.81"/>
</g>
<!-- Node0x55fdce6a92a8 -->
<g id="node32" class="node">
<title>Node0x55fdce6a92a8</title>
<polygon fill="none" stroke="black" points="833,-935.31 493,-935.31 493,-899.31 833,-899.31 833,-935.31"/>
<text text-anchor="middle" x="663" y="-913.61" font-family="Times,serif" font-size="14.00">{lib/libLLVMMC.a(MCWasmStreamer.cpp.o)}</text>
</g>
<!-- Node0x55fdce6a92a8&#45;&gt;Node0x55fdce6a82b8 -->
<g id="edge50" class="edge">
<title>Node0x55fdce6a92a8&#45;&gt;Node0x55fdce6a82b8</title>
<path fill="none" stroke="black" d="M832.43,-899.29C837.15,-896.6 841.69,-893.61 846,-890.31 877.9,-865.83 852.98,-835.14 882,-807.31 905.59,-784.69 937.28,-769.17 967.6,-758.62"/>
<polygon fill="black" stroke="black" points="968.99,-761.85 977.38,-755.37 966.79,-755.2 968.99,-761.85"/>
</g>
<!-- Node0x55fdce6a92a8&#45;&gt;Node0x55fdce6a7048 -->
<g id="edge49" class="edge">
<title>Node0x55fdce6a92a8&#45;&gt;Node0x55fdce6a7048</title>
<path fill="none" stroke="black" d="M666.13,-935.45C675.56,-1006.26 720.42,-1265.14 882,-1366.31 1019.87,-1452.63 1125.43,-1473.25 1248,-1366.31 1336.9,-1288.75 1213.4,-1197.83 1284,-1103.31 1309.31,-1069.42 1350.33,-1047.99 1388.61,-1034.58"/>
<polygon fill="black" stroke="black" points="1389.9,-1037.84 1398.27,-1031.35 1387.68,-1031.21 1389.9,-1037.84"/>
</g>
<!-- Node0x55fdce6a92a8&#45;&gt;Node0x55fdce6a6e18 -->
<g id="edge51" class="edge">
<title>Node0x55fdce6a92a8&#45;&gt;Node0x55fdce6a6e18</title>
<path fill="none" stroke="black" d="M833.02,-900.7C837.6,-897.61 841.95,-894.16 846,-890.31 905.12,-834.08 818.91,-762.03 882,-710.31 944.9,-658.74 1166.8,-705.67 1248,-710.31 1277.72,-712.01 1309.44,-714.9 1339.66,-718.18"/>
<polygon fill="black" stroke="black" points="1339.52,-721.68 1349.85,-719.3 1340.29,-714.73 1339.52,-721.68"/>
</g>
<!-- Node0x55fdce6a92a8&#45;&gt;Node0x55fdce6a9668 -->
<g id="edge47" class="edge">
<title>Node0x55fdce6a92a8&#45;&gt;Node0x55fdce6a9668</title>
<path fill="none" stroke="black" d="M799.63,-899.27C925.14,-882.87 1117,-858.5 1284,-840.31 1427.26,-824.7 1589.8,-809.6 1710.76,-798.86"/>
<polygon fill="black" stroke="black" points="1711.21,-802.34 1720.86,-797.97 1710.59,-795.37 1711.21,-802.34"/>
</g>
<!-- Node0x55fdce6a92a8&#45;&gt;Node0x55fdce6aa018 -->
<g id="edge48" class="edge">
<title>Node0x55fdce6a92a8&#45;&gt;Node0x55fdce6aa018</title>
<path fill="none" stroke="black" d="M665.21,-935.33C671.35,-1010.71 706.13,-1302.13 882,-1417.31 1018.08,-1506.43 1124.84,-1523.57 1248,-1417.31 1330.66,-1345.99 1208.84,-1253.5 1284,-1174.31 1409.17,-1042.43 1539,-1201.68 1685,-1093.31 1712.14,-1073.16 1693.43,-1045.87 1721,-1026.31 1724.28,-1023.98 1727.69,-1021.82 1731.2,-1019.82"/>
<polygon fill="black" stroke="black" points="1732.88,-1022.89 1740.13,-1015.16 1729.65,-1016.68 1732.88,-1022.89"/>
</g>
<!-- Node0x55fdce6a8e98 -->
<g id="node33" class="node">
<title>Node0x55fdce6a8e98</title>
<polygon fill="none" stroke="black" points="837,-2307.31 489,-2307.31 489,-2271.31 837,-2271.31 837,-2307.31"/>
<text text-anchor="middle" x="663" y="-2285.61" font-family="Times,serif" font-size="14.00">{lib/libLLVMMC.a(MCXCOFFStreamer.cpp.o)}</text>
</g>
<!-- Node0x55fdce6a8e98&#45;&gt;Node0x55fdce6a82b8 -->
<g id="edge54" class="edge">
<title>Node0x55fdce6a8e98&#45;&gt;Node0x55fdce6a82b8</title>
<path fill="none" stroke="black" d="M681.89,-2271.19C720.58,-2230.64 811.31,-2127.72 846,-2021.31 919.54,-1795.75 797.13,-1175.86 882,-954.31 913.48,-872.13 989.89,-798.8 1033.03,-762.11"/>
<polygon fill="black" stroke="black" points="1035.52,-764.59 1040.93,-755.48 1031.02,-759.22 1035.52,-764.59"/>
</g>
<!-- Node0x55fdce6a8e98&#45;&gt;Node0x55fdce6a9668 -->
<g id="edge52" class="edge">
<title>Node0x55fdce6a8e98&#45;&gt;Node0x55fdce6a9668</title>
<path fill="none" stroke="black" d="M690.2,-2271.2C729.86,-2244.67 808.34,-2195.54 882,-2169.31 1037.79,-2113.83 1132.22,-2220.38 1248,-2102.31 1317.68,-2031.25 1226.72,-1962.69 1284,-1881.31 1401.25,-1714.73 1577.87,-1832.57 1685,-1659.31 1734.65,-1579 1658.16,-880.78 1721,-810.31 1721.63,-809.6 1722.28,-808.9 1722.93,-808.22"/>
<polygon fill="black" stroke="black" points="1725.36,-810.74 1730.33,-801.38 1720.61,-805.6 1725.36,-810.74"/>
</g>
<!-- Node0x55fdce6a8e98&#45;&gt;Node0x55fdce6ab058 -->
<g id="edge55" class="edge">
<title>Node0x55fdce6a8e98&#45;&gt;Node0x55fdce6ab058</title>
<path fill="none" stroke="black" d="M837.44,-2285.52C1040.57,-2281.02 1387.23,-2273.12 1685,-2265.31 1695.21,-2265.04 1705.71,-2264.76 1716.3,-2264.47"/>
<polygon fill="black" stroke="black" points="1716.58,-2267.96 1726.48,-2264.19 1716.39,-2260.96 1716.58,-2267.96"/>
</g>
<!-- Node0x55fdce6a8e98&#45;&gt;Node0x55fdce6aa018 -->
<g id="edge53" class="edge">
<title>Node0x55fdce6a8e98&#45;&gt;Node0x55fdce6aa018</title>
<path fill="none" stroke="black" d="M708.74,-2271.3C752.28,-2254.5 820.65,-2230.03 882,-2216.31 961.92,-2198.43 1183.7,-2224.03 1248,-2173.31 1284.43,-2144.57 1252.71,-2109.57 1284,-2075.31 1417.01,-1929.7 1576.08,-2049.72 1685,-1885.31 1737.76,-1805.67 1657.43,-1097.62 1721,-1026.31 1724.38,-1022.51 1728.07,-1019.1 1732,-1016.04"/>
<polygon fill="black" stroke="black" points="1734.16,-1018.8 1740.39,-1010.23 1730.18,-1013.04 1734.16,-1018.8"/>
</g>
<!-- Node0x55fdce6a9708 -->
<g id="node34" class="node">
<title>Node0x55fdce6a9708</title>
<polygon fill="none" stroke="black" points="830,-2469.31 496,-2469.31 496,-2433.31 830,-2433.31 830,-2469.31"/>
<text text-anchor="middle" x="663" y="-2447.61" font-family="Times,serif" font-size="14.00">{lib/libLLVMMC.a(SubtargetFeature.cpp.o)}</text>
</g>
<!-- Node0x55fdce6a7f48 -->
<g id="node35" class="node">
<title>Node0x55fdce6a7f48</title>
<polygon fill="none" stroke="black" points="387.5,-2442.31 56.5,-2442.31 56.5,-2406.31 387.5,-2406.31 387.5,-2442.31"/>
<text text-anchor="middle" x="222" y="-2420.61" font-family="Times,serif" font-size="14.00">{lib/libLLVMMC.a(MCSubtargetInfo.cpp.o)}</text>
</g>
<!-- Node0x55fdce6a7f48&#45;&gt;Node0x55fdce6a9708 -->
<g id="edge62" class="edge">
<title>Node0x55fdce6a7f48&#45;&gt;Node0x55fdce6a9708</title>
<path fill="none" stroke="black" d="M387.72,-2434.44C419.8,-2436.41 453.55,-2438.49 485.98,-2440.48"/>
<polygon fill="black" stroke="black" points="485.8,-2443.98 496,-2441.1 486.23,-2436.99 485.8,-2443.98"/>
</g>
<!-- Node0x55fdce6a72c8 -->
<g id="node36" class="node">
<title>Node0x55fdce6a72c8</title>
<polygon fill="none" stroke="black" points="811,-2415.31 515,-2415.31 515,-2379.31 811,-2379.31 811,-2415.31"/>
<text text-anchor="middle" x="663" y="-2393.61" font-family="Times,serif" font-size="14.00">{lib/libLLVMMC.a(MCSchedule.cpp.o)}</text>
</g>
<!-- Node0x55fdce6a7f48&#45;&gt;Node0x55fdce6a72c8 -->
<g id="edge61" class="edge">
<title>Node0x55fdce6a7f48&#45;&gt;Node0x55fdce6a72c8</title>
<path fill="none" stroke="black" d="M387.72,-2414.18C426.02,-2411.82 466.7,-2409.32 504.67,-2406.99"/>
<polygon fill="black" stroke="black" points="505.02,-2410.47 514.79,-2406.36 504.59,-2403.48 505.02,-2410.47"/>
</g>
<!-- Node0x55fdce6a81c8 -->
<g id="node38" class="node">
<title>Node0x55fdce6a81c8</title>
<polygon fill="none" stroke="black" points="1210,-1655.31 920,-1655.31 920,-1619.31 1210,-1619.31 1210,-1655.31"/>
<text text-anchor="middle" x="1065" y="-1633.61" font-family="Times,serif" font-size="14.00">{lib/libLLVMMC.a(MCAsmInfo.cpp.o)}</text>
</g>
<!-- Node0x55fdce6a81c8&#45;&gt;Node0x55fdce6aa1f8 -->
<g id="edge63" class="edge">
<title>Node0x55fdce6a81c8&#45;&gt;Node0x55fdce6aa1f8</title>
<path fill="none" stroke="black" d="M1083.13,-1619.1C1120.69,-1577.89 1209.98,-1472.79 1248,-1366.31 1276.52,-1286.43 1230.99,-1052.52 1284,-986.31 1299.88,-966.48 1321.91,-952.63 1345.57,-942.97"/>
<polygon fill="black" stroke="black" points="1346.97,-946.18 1355.06,-939.34 1344.47,-939.64 1346.97,-946.18"/>
</g>
<!-- Node0x55fdce6a81c8&#45;&gt;Node0x55fdce6a7048 -->
<g id="edge64" class="edge">
<title>Node0x55fdce6a81c8&#45;&gt;Node0x55fdce6a7048</title>
<path fill="none" stroke="black" d="M1090.11,-1619.14C1130.42,-1587.27 1210.73,-1517.06 1248,-1437.31 1297.95,-1330.43 1226,-1277.05 1284,-1174.31 1319.76,-1110.95 1391.2,-1062.86 1438.16,-1036.38"/>
<polygon fill="black" stroke="black" points="1439.87,-1039.43 1446.92,-1031.53 1436.48,-1033.31 1439.87,-1039.43"/>
</g>
<!-- Node0x55fdce6aac48 -->
<g id="node39" class="node">
<title>Node0x55fdce6aac48</title>
<polygon fill="none" stroke="black" points="827.5,-1655.31 498.5,-1655.31 498.5,-1619.31 827.5,-1619.31 827.5,-1655.31"/>
<text text-anchor="middle" x="663" y="-1633.61" font-family="Times,serif" font-size="14.00">{lib/libLLVMMC.a(MCAsmInfoCOFF.cpp.o)}</text>
</g>
<!-- Node0x55fdce6aac48&#45;&gt;Node0x55fdce6a81c8 -->
<g id="edge85" class="edge">
<title>Node0x55fdce6aac48&#45;&gt;Node0x55fdce6a81c8</title>
<path fill="none" stroke="black" d="M827.56,-1637.31C854.65,-1637.31 882.66,-1637.31 909.51,-1637.31"/>
<polygon fill="black" stroke="black" points="909.75,-1640.81 919.75,-1637.31 909.75,-1633.81 909.75,-1640.81"/>
</g>
<!-- Node0x55fdce6ab418 -->
<g id="node40" class="node">
<title>Node0x55fdce6ab418</title>
<polygon fill="none" stroke="black" points="833.5,-1709.31 492.5,-1709.31 492.5,-1673.31 833.5,-1673.31 833.5,-1709.31"/>
<text text-anchor="middle" x="663" y="-1687.61" font-family="Times,serif" font-size="14.00">{lib/libLLVMMC.a(MCAsmInfoDarwin.cpp.o)}</text>
</g>
<!-- Node0x55fdce6ab418&#45;&gt;Node0x55fdce6a81c8 -->
<g id="edge86" class="edge">
<title>Node0x55fdce6ab418&#45;&gt;Node0x55fdce6a81c8</title>
<path fill="none" stroke="black" d="M797.47,-1673.29C836.95,-1667.96 880.33,-1662.1 920.42,-1656.69"/>
<polygon fill="black" stroke="black" points="921.1,-1660.13 930.54,-1655.33 920.16,-1653.2 921.1,-1660.13"/>
</g>
<!-- Node0x55fdce6aba58 -->
<g id="node41" class="node">
<title>Node0x55fdce6aba58</title>
<polygon fill="none" stroke="black" points="821.5,-1601.31 504.5,-1601.31 504.5,-1565.31 821.5,-1565.31 821.5,-1601.31"/>
<text text-anchor="middle" x="663" y="-1579.61" font-family="Times,serif" font-size="14.00">{lib/libLLVMMC.a(MCAsmInfoELF.cpp.o)}</text>
</g>
<!-- Node0x55fdce6aba58&#45;&gt;Node0x55fdce6aa1f8 -->
<g id="edge88" class="edge">
<title>Node0x55fdce6aba58&#45;&gt;Node0x55fdce6aa1f8</title>
<path fill="none" stroke="black" d="M672.35,-1565.07C696.51,-1514.68 771.83,-1373.24 882,-1312.31 953.66,-1272.68 1189.82,-1326.94 1248,-1269.31 1338.08,-1180.08 1203.18,-1084 1284,-986.31 1300.4,-966.49 1322.93,-952.65 1346.97,-943.02"/>
<polygon fill="black" stroke="black" points="1348.48,-946.19 1356.61,-939.4 1346.02,-939.63 1348.48,-946.19"/>
</g>
<!-- Node0x55fdce6aba58&#45;&gt;Node0x55fdce6a81c8 -->
<g id="edge87" class="edge">
<title>Node0x55fdce6aba58&#45;&gt;Node0x55fdce6a81c8</title>
<path fill="none" stroke="black" d="M797.47,-1601.33C836.95,-1606.66 880.33,-1612.51 920.42,-1617.93"/>
<polygon fill="black" stroke="black" points="920.16,-1621.42 930.54,-1619.29 921.1,-1614.49 920.16,-1621.42"/>
</g>
<!-- Node0x55fdce6a8268 -->
<g id="node42" class="node">
<title>Node0x55fdce6a8268</title>
<polygon fill="none" stroke="black" points="382.5,-2496.31 61.5,-2496.31 61.5,-2460.31 382.5,-2460.31 382.5,-2496.31"/>
<text text-anchor="middle" x="222" y="-2474.61" font-family="Times,serif" font-size="14.00">{lib/libLLVMMC.a(MCCodeEmitter.cpp.o)}</text>
</g>
<!-- Node0x55fdce6a8ee8 -->
<g id="node43" class="node">
<title>Node0x55fdce6a8ee8</title>
<polygon fill="none" stroke="black" points="425.5,-2550.31 18.5,-2550.31 18.5,-2514.31 425.5,-2514.31 425.5,-2550.31"/>
<text text-anchor="middle" x="222" y="-2528.61" font-family="Times,serif" font-size="14.00">{lib/libLLVMMC.a(MCMachObjectTargetWriter.cpp.o)}</text>
</g>
<!-- Node0x55fdce6aa658&#45;&gt;Node0x55fdce6a87b8 -->
<g id="edge174" class="edge">
<title>Node0x55fdce6aa658&#45;&gt;Node0x55fdce6a87b8</title>
<path fill="none" stroke="black" d="M1315.34,-1577.53C1303.71,-1583.3 1293.04,-1590.75 1284,-1600.31 1230.44,-1656.97 1301.89,-1892.97 1248,-1949.31 1245.88,-1951.53 1243.66,-1953.62 1241.35,-1955.58"/>
<polygon fill="black" stroke="black" points="1239.02,-1952.96 1233.19,-1961.81 1243.27,-1958.53 1239.02,-1952.96"/>
</g>
<!-- Node0x55fdce6ab148 -->
<g id="node46" class="node">
<title>Node0x55fdce6ab148</title>
<polygon fill="none" stroke="black" points="421,-2604.31 23,-2604.31 23,-2568.31 421,-2568.31 421,-2604.31"/>
<text text-anchor="middle" x="222" y="-2582.61" font-family="Times,serif" font-size="14.00">{lib/libLLVMMC.a(MCELFObjectTargetWriter.cpp.o)}</text>
</g>
<!-- Node0x55fdce6a9bb8 -->
<g id="node47" class="node">
<title>Node0x55fdce6a9bb8</title>
<polygon fill="none" stroke="black" points="1200,-1709.31 930,-1709.31 930,-1673.31 1200,-1673.31 1200,-1709.31"/>
<text text-anchor="middle" x="1065" y="-1687.61" font-family="Times,serif" font-size="14.00">{lib/libLLVMMC.a(MCValue.cpp.o)}</text>
</g>
<!-- Node0x55fdce6a9bb8&#45;&gt;Node0x55fdce6a7048 -->
<g id="edge99" class="edge">
<title>Node0x55fdce6a9bb8&#45;&gt;Node0x55fdce6a7048</title>
<path fill="none" stroke="black" d="M1200.22,-1692.62C1218.31,-1687.15 1235.07,-1678.24 1248,-1664.31 1322.3,-1584.31 1233.33,-1271.02 1284,-1174.31 1317.66,-1110.05 1389.34,-1062.35 1436.97,-1036.17"/>
<polygon fill="black" stroke="black" points="1438.72,-1039.21 1445.86,-1031.38 1435.4,-1033.04 1438.72,-1039.21"/>
</g>
<!-- Node0x55fdce6a7c28 -->
<g id="node48" class="node">
<title>Node0x55fdce6a7c28</title>
<polygon fill="none" stroke="black" points="812.5,-153.31 513.5,-153.31 513.5,-117.31 812.5,-117.31 812.5,-153.31"/>
<text text-anchor="middle" x="663" y="-131.61" font-family="Times,serif" font-size="14.00">{lib/libLLVMMC.a(MCWin64EH.cpp.o)}</text>
</g>
<!-- Node0x55fdce6a7c28&#45;&gt;Node0x55fdce6a82b8 -->
<g id="edge116" class="edge">
<title>Node0x55fdce6a7c28&#45;&gt;Node0x55fdce6a82b8</title>
<path fill="none" stroke="black" d="M676.43,-153.39C708.74,-201.14 796.31,-335.38 846,-458.31 869.76,-517.08 847.08,-543.41 882,-596.31 916.77,-648.99 977.9,-690.33 1019.63,-714.27"/>
<polygon fill="black" stroke="black" points="1018.06,-717.4 1028.49,-719.26 1021.49,-711.3 1018.06,-717.4"/>
</g>
<!-- Node0x55fdce6a7c28&#45;&gt;Node0x55fdce6aa1f8 -->
<g id="edge114" class="edge">
<title>Node0x55fdce6a7c28&#45;&gt;Node0x55fdce6aa1f8</title>
<path fill="none" stroke="black" d="M677.67,-153.38C712.55,-200.56 805.01,-332.55 846,-458.31 867.22,-523.41 837.93,-711.91 882,-764.31 991.24,-894.21 1092.26,-805.85 1248,-873.31 1265,-880.67 1266.48,-888.28 1284,-894.31 1298.92,-899.44 1314.77,-903.6 1330.78,-906.97"/>
<polygon fill="black" stroke="black" points="1330.26,-910.44 1340.75,-908.98 1331.64,-903.58 1330.26,-910.44"/>
</g>
<!-- Node0x55fdce6a7c28&#45;&gt;Node0x55fdce6a7048 -->
<g id="edge115" class="edge">
<title>Node0x55fdce6a7c28&#45;&gt;Node0x55fdce6a7048</title>
<path fill="none" stroke="black" d="M678.31,-153.6C714.3,-200.8 808.36,-331.84 846,-458.31 863.47,-517.01 837.48,-966.26 882,-1008.31 946.58,-1069.31 1191.01,-1051.44 1347.7,-1032.59"/>
<polygon fill="black" stroke="black" points="1348.38,-1036.03 1357.89,-1031.34 1347.54,-1029.08 1348.38,-1036.03"/>
</g>
<!-- Node0x55fdce6a8c68 -->
<g id="node49" class="node">
<title>Node0x55fdce6a8c68</title>
<polygon fill="none" stroke="black" points="1205.5,-153.31 924.5,-153.31 924.5,-117.31 1205.5,-117.31 1205.5,-153.31"/>
<text text-anchor="middle" x="1065" y="-131.61" font-family="Times,serif" font-size="14.00">{lib/libLLVMMC.a(MCWinEH.cpp.o)}</text>
</g>
<!-- Node0x55fdce6a7c28&#45;&gt;Node0x55fdce6a8c68 -->
<g id="edge117" class="edge">
<title>Node0x55fdce6a7c28&#45;&gt;Node0x55fdce6a8c68</title>
<path fill="none" stroke="black" d="M812.66,-135.31C845.79,-135.31 880.94,-135.31 914.11,-135.31"/>
<polygon fill="black" stroke="black" points="914.34,-138.81 924.34,-135.31 914.34,-131.81 914.34,-138.81"/>
</g>
<!-- Node0x55fdce6a74a8 -->
<g id="node50" class="node">
<title>Node0x55fdce6a74a8</title>
<polygon fill="none" stroke="black" points="846,-503.31 480,-503.31 480,-467.31 846,-467.31 846,-503.31"/>
<text text-anchor="middle" x="663" y="-481.61" font-family="Times,serif" font-size="14.00">{lib/libLLVMMC.a(MCWinCOFFStreamer.cpp.o)}</text>
</g>
<!-- Node0x55fdce6a74a8&#45;&gt;Node0x55fdce6a82b8 -->
<g id="edge123" class="edge">
<title>Node0x55fdce6a74a8&#45;&gt;Node0x55fdce6a82b8</title>
<path fill="none" stroke="black" d="M698.04,-503.45C734.99,-523.4 795.47,-556.82 846,-588.31 912.97,-630.05 988.45,-683.02 1030.71,-713.25"/>
<polygon fill="black" stroke="black" points="1028.79,-716.19 1038.96,-719.17 1032.87,-710.5 1028.79,-716.19"/>
</g>
<!-- Node0x55fdce6a74a8&#45;&gt;Node0x55fdce6aa1f8 -->
<g id="edge120" class="edge">
<title>Node0x55fdce6a74a8&#45;&gt;Node0x55fdce6aa1f8</title>
<path fill="none" stroke="black" d="M724.36,-503.42C765.54,-519.06 817.59,-545.94 846,-588.31 917.11,-694.35 789.67,-785.13 882,-873.31 944.18,-932.69 1173.92,-935.66 1330.77,-930.14"/>
<polygon fill="black" stroke="black" points="1331.13,-933.63 1341,-929.76 1330.87,-926.63 1331.13,-933.63"/>
</g>
<!-- Node0x55fdce6a74a8&#45;&gt;Node0x55fdce6a7048 -->
<g id="edge121" class="edge">
<title>Node0x55fdce6a74a8&#45;&gt;Node0x55fdce6a7048</title>
<path fill="none" stroke="black" d="M726.38,-503.47C767.67,-518.97 819,-545.67 846,-588.31 904.53,-680.74 801.86,-1004.83 882,-1079.31 941.58,-1134.68 1168.06,-1094.31 1248,-1079.31 1264.87,-1076.14 1267.67,-1070.59 1284,-1065.31 1320.26,-1053.58 1360.88,-1042.61 1395.95,-1033.8"/>
<polygon fill="black" stroke="black" points="1396.83,-1037.18 1405.69,-1031.37 1395.14,-1030.39 1396.83,-1037.18"/>
</g>
<!-- Node0x55fdce6a74a8&#45;&gt;Node0x55fdce6a6e18 -->
<g id="edge124" class="edge">
<title>Node0x55fdce6a74a8&#45;&gt;Node0x55fdce6a6e18</title>
<path fill="none" stroke="black" d="M745.43,-467.31C869.13,-445.07 1105.07,-423.42 1248,-542.31 1292.45,-579.28 1244.3,-625.28 1284,-667.31 1305.66,-690.24 1335.27,-705.67 1365.04,-716.04"/>
<polygon fill="black" stroke="black" points="1364.11,-719.42 1374.7,-719.24 1366.3,-712.77 1364.11,-719.42"/>
</g>
<!-- Node0x55fdce6a74a8&#45;&gt;Node0x55fdce6a9668 -->
<g id="edge118" class="edge">
<title>Node0x55fdce6a74a8&#45;&gt;Node0x55fdce6a9668</title>
<path fill="none" stroke="black" d="M683.36,-467.24C719.21,-435.18 799.78,-369.44 882,-345.31 1225.01,-244.65 1433.06,-137.71 1685,-391.31 1742.44,-449.13 1665.07,-697.02 1721,-756.31 1721.77,-757.13 1722.56,-757.93 1723.36,-758.71"/>
<polygon fill="black" stroke="black" points="1721.08,-761.37 1730.92,-765.3 1725.68,-756.09 1721.08,-761.37"/>
</g>
<!-- Node0x55fdce6a74a8&#45;&gt;Node0x55fdce6a7278 -->
<g id="edge122" class="edge">
<title>Node0x55fdce6a74a8&#45;&gt;Node0x55fdce6a7278</title>
<path fill="none" stroke="black" d="M671.33,-466.94C693.53,-414.14 765.77,-262.12 882,-205.31 962.21,-166.11 1620.99,-171.08 1685,-233.31 1747.25,-293.82 1675.48,-548.39 1721,-622.31 1745.8,-662.58 1792.03,-690.14 1830.17,-707.19"/>
<polygon fill="black" stroke="black" points="1829.11,-710.55 1839.67,-711.31 1831.88,-704.12 1829.11,-710.55"/>
</g>
<!-- Node0x55fdce6a74a8&#45;&gt;Node0x55fdce6aa018 -->
<g id="edge119" class="edge">
<title>Node0x55fdce6a74a8&#45;&gt;Node0x55fdce6aa018</title>
<path fill="none" stroke="black" d="M712.34,-467.3C821.22,-430.17 1088.56,-358.61 1248,-484.31 1301.84,-526.76 1231.95,-589.69 1284,-634.31 1351.88,-692.5 1620.67,-605.21 1685,-667.31 1783.21,-762.1 1626.39,-873.92 1721,-972.31 1724.31,-975.75 1727.87,-978.87 1731.64,-981.7"/>
<polygon fill="black" stroke="black" points="1729.93,-984.77 1740.19,-987.42 1733.82,-978.95 1729.93,-984.77"/>
</g>
<!-- Node0x55fdce6a8d08 -->
<g id="node51" class="node">
<title>Node0x55fdce6a8d08</title>
<polygon fill="none" stroke="black" points="1226.5,-587.31 903.5,-587.31 903.5,-551.31 1226.5,-551.31 1226.5,-587.31"/>
<text text-anchor="middle" x="1065" y="-565.61" font-family="Times,serif" font-size="14.00">{lib/libLLVMMC.a(MCSectionCOFF.cpp.o)}</text>
</g>
<!-- Node0x55fdce6a8d08&#45;&gt;Node0x55fdce6a6e18 -->
<g id="edge170" class="edge">
<title>Node0x55fdce6a8d08&#45;&gt;Node0x55fdce6a6e18</title>
<path fill="none" stroke="black" d="M1226.53,-586.83C1234.18,-590.9 1241.41,-595.69 1248,-601.31 1285.23,-633.04 1246.54,-673.86 1284,-705.31 1298.11,-717.15 1314.83,-725.49 1332.49,-731.25"/>
<polygon fill="black" stroke="black" points="1331.81,-734.7 1342.39,-734.19 1333.8,-727.99 1331.81,-734.7"/>
</g>
<!-- Node0x55fdce6a6c88 -->
<g id="node52" class="node">
<title>Node0x55fdce6a6c88</title>
<polygon fill="none" stroke="black" points="1220.5,-1357.31 909.5,-1357.31 909.5,-1321.31 1220.5,-1321.31 1220.5,-1357.31"/>
<text text-anchor="middle" x="1065" y="-1335.61" font-family="Times,serif" font-size="14.00">{lib/libLLVMMC.a(MCSectionELF.cpp.o)}</text>
</g>
<!-- Node0x55fdce6a6c88&#45;&gt;Node0x55fdce6a7048 -->
<g id="edge171" class="edge">
<title>Node0x55fdce6a6c88&#45;&gt;Node0x55fdce6a7048</title>
<path fill="none" stroke="black" d="M1220.79,-1327.14C1230.81,-1321.98 1240.05,-1315.47 1248,-1307.31 1323.87,-1229.41 1211.34,-1146.21 1284,-1065.31 1299.75,-1047.78 1320.59,-1035.82 1342.87,-1027.74"/>
<polygon fill="black" stroke="black" points="1344.13,-1031 1352.49,-1024.5 1341.9,-1024.37 1344.13,-1031"/>
</g>
<!-- Node0x55fdce6a79a8 -->
<g id="node53" class="node">
<title>Node0x55fdce6a79a8</title>
<polygon fill="none" stroke="black" points="1228.5,-999.31 901.5,-999.31 901.5,-963.31 1228.5,-963.31 1228.5,-999.31"/>
<text text-anchor="middle" x="1065" y="-977.61" font-family="Times,serif" font-size="14.00">{lib/libLLVMMC.a(MCSectionWasm.cpp.o)}</text>
</g>
<!-- Node0x55fdce6a79a8&#45;&gt;Node0x55fdce6a8f38 -->
<g id="edge172" class="edge">
<title>Node0x55fdce6a79a8&#45;&gt;Node0x55fdce6a8f38</title>
<path fill="none" stroke="black" d="M1115.84,-963.28C1152.64,-949.68 1203.8,-930.21 1248,-911.31 1264.27,-904.35 1267.03,-899.33 1284,-894.31 1299.4,-889.75 1315.71,-885.96 1332.09,-882.8"/>
<polygon fill="black" stroke="black" points="1333.09,-886.18 1342.29,-880.92 1331.82,-879.29 1333.09,-886.18"/>
</g>
<!-- Node0x55fdce6a79a8&#45;&gt;Node0x55fdce6a7048 -->
<g id="edge173" class="edge">
<title>Node0x55fdce6a79a8&#45;&gt;Node0x55fdce6a7048</title>
<path fill="none" stroke="black" d="M1228.61,-993.77C1266.07,-996.64 1305.62,-999.68 1342.1,-1002.47"/>
<polygon fill="black" stroke="black" points="1342.06,-1005.98 1352.3,-1003.25 1342.6,-999 1342.06,-1005.98"/>
</g>
</g>
</svg>
