<?xml version="1.0" encoding="UTF-8" standalone="no"?>
<!DOCTYPE svg PUBLIC "-//W3C//DTD SVG 1.1//EN"
 "http://www.w3.org/Graphics/SVG/1.1/DTD/svg11.dtd">
<!-- Generated by graphviz version 2.43.0 (0)
 -->
<!-- Title: bin/llvm&#45;readobj Pages: 1 -->
<svg width="3868pt" height="1215pt"
 viewBox="0.00 0.00 3868.00 1214.62" xmlns="http://www.w3.org/2000/svg" xmlns:xlink="http://www.w3.org/1999/xlink">
<g id="graph0" class="graph" transform="scale(1 1) rotate(0) translate(4 1210.62)">
<title>bin/llvm&#45;readobj</title>
<polygon fill="white" stroke="transparent" points="-4,4 -4,-1210.62 3864,-1210.62 3864,4 -4,4"/>
<text text-anchor="middle" x="1930" y="-7.8" font-family="Times,serif" font-size="14.00">bin/llvm&#45;readobj</text>
<!-- Node0x55dd1f7887e8 -->
<g id="node1" class="node">
<title>Node0x55dd1f7887e8</title>
<polygon fill="none" stroke="black" points="1102,-935.47 551,-935.47 551,-899.47 1102,-899.47 1102,-935.47"/>
<text text-anchor="middle" x="826.5" y="-913.77" font-family="Times,serif" font-size="14.00">{tools/llvm&#45;readobj/CMakeFiles/llvm&#45;readobj.dir/ARMWinEHPrinter.cpp.o}</text>
</g>
<!-- Node0x55dd1f784ff8 -->
<g id="node2" class="node">
<title>Node0x55dd1f784ff8</title>
<polygon fill="#7fb2ff" stroke="black" points="3034.5,-707.47 2859.5,-707.47 2859.5,-671.47 3034.5,-671.47 3034.5,-707.47"/>
<text text-anchor="middle" x="2947" y="-685.77" font-family="Times,serif" font-size="14.00">{lib/libLLVMObject.a}</text>
</g>
<!-- Node0x55dd1f7887e8&#45;&gt;Node0x55dd1f784ff8 -->
<g id="edge1" class="edge">
<title>Node0x55dd1f7887e8&#45;&gt;Node0x55dd1f784ff8</title>
<path fill="none" stroke="black" d="M1094.97,-935.52C1097.36,-937.1 1099.7,-938.75 1102,-940.47 1137.2,-966.71 1101.96,-1007.39 1138,-1032.47 1353.66,-1182.49 2057.3,-1051.13 2320,-1053.47 2541.32,-1055.43 2637.39,-1181.41 2818,-1053.47 2929.82,-974.26 2944.66,-789.23 2946.12,-718.06"/>
<polygon fill="black" stroke="black" points="2949.62,-717.69 2946.25,-707.65 2942.62,-717.6 2949.62,-717.69"/>
</g>
<!-- Node0x55dd1f7847d8 -->
<g id="node3" class="node">
<title>Node0x55dd1f7847d8</title>
<polygon fill="#7fb2ff" stroke="black" points="3040,-577.47 2854,-577.47 2854,-541.47 3040,-541.47 3040,-577.47"/>
<text text-anchor="middle" x="2947" y="-555.77" font-family="Times,serif" font-size="14.00">{lib/libLLVMSupport.a}</text>
</g>
<!-- Node0x55dd1f7887e8&#45;&gt;Node0x55dd1f7847d8 -->
<g id="edge2" class="edge">
<title>Node0x55dd1f7887e8&#45;&gt;Node0x55dd1f7847d8</title>
<path fill="none" stroke="black" d="M1046.66,-935.47C1065.38,-937.12 1084.02,-938.8 1102,-940.47 1359.12,-964.36 1422.11,-986.34 1680,-999.47 1948.1,-1013.11 2015.65,-1006.5 2284,-999.47 2521.58,-993.24 2644.69,-1134.09 2818,-971.47 2868.41,-924.16 2825.65,-725.52 2854,-662.47 2867.86,-631.63 2894.36,-603.52 2915.37,-584.49"/>
<polygon fill="black" stroke="black" points="2917.94,-586.89 2923.12,-577.65 2913.3,-581.64 2917.94,-586.89"/>
</g>
<!-- Node0x55dd1f784ff8&#45;&gt;Node0x55dd1f7847d8 -->
<g id="edge3" class="edge">
<title>Node0x55dd1f784ff8&#45;&gt;Node0x55dd1f7847d8</title>
<path fill="none" stroke="#7fb2ff" d="M2947,-671.1C2947,-643.31 2947,-615.52 2947,-587.73"/>
<polygon fill="#7fb2ff" stroke="#7fb2ff" points="2950.5,-587.49 2947,-577.49 2943.5,-587.49 2950.5,-587.49"/>
</g>
<!-- Node0x55dd1f785688 -->
<g id="node4" class="node">
<title>Node0x55dd1f785688</title>
<polygon fill="#7fb2ff" stroke="black" points="3325.5,-523.47 3098.5,-523.47 3098.5,-487.47 3325.5,-487.47 3325.5,-523.47"/>
<text text-anchor="middle" x="3212" y="-501.77" font-family="Times,serif" font-size="14.00">{lib/libLLVMBinaryFormat.a}</text>
</g>
<!-- Node0x55dd1f784ff8&#45;&gt;Node0x55dd1f785688 -->
<g id="edge4" class="edge">
<title>Node0x55dd1f784ff8&#45;&gt;Node0x55dd1f785688</title>
<path fill="none" stroke="#7fb2ff" d="M3021.81,-671.35C3028.53,-667.56 3034.77,-662.99 3040,-657.47 3079.76,-615.49 3033.46,-571.62 3076,-532.47 3080.12,-528.67 3084.62,-525.35 3089.39,-522.44"/>
<polygon fill="#7fb2ff" stroke="#7fb2ff" points="3091.13,-525.48 3098.26,-517.63 3087.8,-519.32 3091.13,-525.48"/>
</g>
<!-- Node0x55dd1f78adb8 -->
<g id="node5" class="node">
<title>Node0x55dd1f78adb8</title>
<polygon fill="#7fb2ff" stroke="black" points="3288.5,-577.47 3135.5,-577.47 3135.5,-541.47 3288.5,-541.47 3288.5,-577.47"/>
<text text-anchor="middle" x="3212" y="-555.77" font-family="Times,serif" font-size="14.00">{lib/libLLVMMC.a}</text>
</g>
<!-- Node0x55dd1f784ff8&#45;&gt;Node0x55dd1f78adb8 -->
<g id="edge5" class="edge">
<title>Node0x55dd1f784ff8&#45;&gt;Node0x55dd1f78adb8</title>
<path fill="none" stroke="#7fb2ff" d="M3018.47,-671.46C3026.24,-667.64 3033.63,-663.03 3040,-657.47 3066.64,-634.19 3047.82,-607.86 3076,-586.47 3090.29,-575.61 3107.82,-568.8 3125.45,-564.6"/>
<polygon fill="#7fb2ff" stroke="#7fb2ff" points="3126.18,-568.02 3135.23,-562.52 3124.72,-561.17 3126.18,-568.02"/>
</g>
<!-- Node0x55dd1f788748 -->
<g id="node6" class="node">
<title>Node0x55dd1f788748</title>
<polygon fill="#7fb2ff" stroke="black" points="3311.5,-739.47 3112.5,-739.47 3112.5,-703.47 3311.5,-703.47 3311.5,-739.47"/>
<text text-anchor="middle" x="3212" y="-717.77" font-family="Times,serif" font-size="14.00">{lib/libLLVMBitReader.a}</text>
</g>
<!-- Node0x55dd1f784ff8&#45;&gt;Node0x55dd1f788748 -->
<g id="edge6" class="edge">
<title>Node0x55dd1f784ff8&#45;&gt;Node0x55dd1f788748</title>
<path fill="none" stroke="#7fb2ff" d="M3034.84,-700.03C3056.48,-702.67 3079.95,-705.52 3102.48,-708.26"/>
<polygon fill="#7fb2ff" stroke="#7fb2ff" points="3102.07,-711.74 3112.42,-709.47 3102.91,-704.79 3102.07,-711.74"/>
</g>
<!-- Node0x55dd1f7877f8 -->
<g id="node7" class="node">
<title>Node0x55dd1f7877f8</title>
<polygon fill="#7fb2ff" stroke="black" points="3293,-685.47 3131,-685.47 3131,-649.47 3293,-649.47 3293,-685.47"/>
<text text-anchor="middle" x="3212" y="-663.77" font-family="Times,serif" font-size="14.00">{lib/libLLVMCore.a}</text>
</g>
<!-- Node0x55dd1f784ff8&#45;&gt;Node0x55dd1f7877f8 -->
<g id="edge7" class="edge">
<title>Node0x55dd1f784ff8&#45;&gt;Node0x55dd1f7877f8</title>
<path fill="none" stroke="#7fb2ff" d="M3034.84,-682.2C3062.43,-679.89 3092.99,-677.34 3120.8,-675.01"/>
<polygon fill="#7fb2ff" stroke="#7fb2ff" points="3121.24,-678.49 3130.92,-674.17 3120.66,-671.51 3121.24,-678.49"/>
</g>
<!-- Node0x55dd1f78b3f8 -->
<g id="node8" class="node">
<title>Node0x55dd1f78b3f8</title>
<polygon fill="#7fb2ff" stroke="black" points="3311,-847.47 3113,-847.47 3113,-811.47 3311,-811.47 3311,-847.47"/>
<text text-anchor="middle" x="3212" y="-825.77" font-family="Times,serif" font-size="14.00">{lib/libLLVMMCParser.a}</text>
</g>
<!-- Node0x55dd1f784ff8&#45;&gt;Node0x55dd1f78b3f8 -->
<g id="edge8" class="edge">
<title>Node0x55dd1f784ff8&#45;&gt;Node0x55dd1f78b3f8</title>
<path fill="none" stroke="#7fb2ff" d="M2962.87,-707.59C2984.82,-733.04 3028.46,-778.89 3076,-802.47 3084.5,-806.68 3093.62,-810.24 3102.94,-813.24"/>
<polygon fill="#7fb2ff" stroke="#7fb2ff" points="3102.14,-816.66 3112.73,-816.17 3104.15,-809.95 3102.14,-816.66"/>
</g>
<!-- Node0x55dd1f78a458 -->
<g id="node9" class="node">
<title>Node0x55dd1f78a458</title>
<polygon fill="#7fb2ff" stroke="black" points="3304,-793.47 3120,-793.47 3120,-757.47 3304,-757.47 3304,-793.47"/>
<text text-anchor="middle" x="3212" y="-771.77" font-family="Times,serif" font-size="14.00">{lib/libLLVMTextAPI.a}</text>
</g>
<!-- Node0x55dd1f784ff8&#45;&gt;Node0x55dd1f78a458 -->
<g id="edge9" class="edge">
<title>Node0x55dd1f784ff8&#45;&gt;Node0x55dd1f78a458</title>
<path fill="none" stroke="#7fb2ff" d="M2981.35,-707.47C3006.69,-720.5 3042.73,-737.64 3076,-748.47 3086.81,-751.98 3098.27,-755.13 3109.75,-757.91"/>
<polygon fill="#7fb2ff" stroke="#7fb2ff" points="3109.3,-761.4 3119.84,-760.27 3110.89,-754.59 3109.3,-761.4"/>
</g>
<!-- Node0x55dd1f786948 -->
<g id="node10" class="node">
<title>Node0x55dd1f786948</title>
<polygon fill="#7fb2ff" stroke="black" points="3348,-393.47 3076,-393.47 3076,-357.47 3348,-357.47 3348,-393.47"/>
<text text-anchor="middle" x="3212" y="-371.77" font-family="Times,serif" font-size="14.00">{lib/libLLVMDebugInfoCodeView.a}</text>
</g>
<!-- Node0x55dd1f7847d8&#45;&gt;Node0x55dd1f786948 -->
<g id="edge10" class="edge">
<title>Node0x55dd1f7847d8&#45;&gt;Node0x55dd1f786948</title>
<path fill="none" stroke="#7fb2ff" d="M2955.26,-541.31C2971.44,-508.54 3013.42,-440.79 3075.99,-399.08"/>
<polygon fill="#7fb2ff" stroke="#7fb2ff" points="3077.99,-401.95 3084.54,-393.62 3074.23,-396.05 3077.99,-401.95"/>
</g>
<!-- Node0x55dd1f785a98 -->
<g id="node11" class="node">
<title>Node0x55dd1f785a98</title>
<polygon fill="#7fb2ff" stroke="black" points="3339.5,-631.47 3084.5,-631.47 3084.5,-595.47 3339.5,-595.47 3339.5,-631.47"/>
<text text-anchor="middle" x="3212" y="-609.77" font-family="Times,serif" font-size="14.00">{lib/libLLVMDebugInfoDWARF.a}</text>
</g>
<!-- Node0x55dd1f7847d8&#45;&gt;Node0x55dd1f785a98 -->
<g id="edge11" class="edge">
<title>Node0x55dd1f7847d8&#45;&gt;Node0x55dd1f785a98</title>
<path fill="none" stroke="#7fb2ff" d="M3040.26,-570.12C3052.28,-572.56 3064.43,-575.09 3076,-577.47 3100.48,-582.5 3127.49,-587.92 3150.87,-593.19"/>
<polygon fill="#7fb2ff" stroke="#7fb2ff" points="3150.12,-596.61 3160.65,-595.44 3151.69,-589.79 3150.12,-596.61"/>
</g>
<!-- Node0x55dd1f785688&#45;&gt;Node0x55dd1f7847d8 -->
<g id="edge51" class="edge">
<title>Node0x55dd1f785688&#45;&gt;Node0x55dd1f7847d8</title>
<path fill="none" stroke="#7fb2ff" d="M3120.2,-523.49C3105.42,-526.46 3090.28,-529.53 3076,-532.47 3065.25,-534.68 3053.99,-537.01 3042.8,-539.35"/>
<polygon fill="#7fb2ff" stroke="#7fb2ff" points="3042.08,-535.93 3033.01,-541.4 3043.51,-542.78 3042.08,-535.93"/>
</g>
<!-- Node0x55dd1f78adb8&#45;&gt;Node0x55dd1f7847d8 -->
<g id="edge67" class="edge">
<title>Node0x55dd1f78adb8&#45;&gt;Node0x55dd1f7847d8</title>
<path fill="none" stroke="#7fb2ff" d="M3135.37,-559.47C3108.97,-559.47 3078.88,-559.47 3050.66,-559.47"/>
<polygon fill="#7fb2ff" stroke="#7fb2ff" points="3050.35,-555.97 3040.35,-559.47 3050.35,-562.97 3050.35,-555.97"/>
</g>
<!-- Node0x55dd1f78adb8&#45;&gt;Node0x55dd1f785688 -->
<g id="edge68" class="edge">
<title>Node0x55dd1f78adb8&#45;&gt;Node0x55dd1f785688</title>
<path fill="none" stroke="#7fb2ff" d="M3212,-541.26C3212,-538.77 3212,-536.29 3212,-533.81"/>
<polygon fill="#7fb2ff" stroke="#7fb2ff" points="3215.5,-533.61 3212,-523.61 3208.5,-533.61 3215.5,-533.61"/>
</g>
<!-- Node0x55dd1f78adb8&#45;&gt;Node0x55dd1f786948 -->
<g id="edge69" class="edge">
<title>Node0x55dd1f78adb8&#45;&gt;Node0x55dd1f786948</title>
<path fill="none" stroke="#7fb2ff" d="M3135.17,-562.85C3105.1,-559.6 3074.02,-549.39 3058,-523.47 3025.5,-470.88 3100.64,-424.02 3157.01,-397.72"/>
<polygon fill="#7fb2ff" stroke="#7fb2ff" points="3158.58,-400.86 3166.23,-393.53 3155.68,-394.49 3158.58,-400.86"/>
</g>
<!-- Node0x55dd1f788748&#45;&gt;Node0x55dd1f7847d8 -->
<g id="edge70" class="edge">
<title>Node0x55dd1f788748&#45;&gt;Node0x55dd1f7847d8</title>
<path fill="none" stroke="#7fb2ff" d="M3112.23,-709.12C3099.6,-705.43 3087.19,-700.65 3076,-694.47 3063.13,-687.36 3003.84,-622.09 2970.65,-584.97"/>
<polygon fill="#7fb2ff" stroke="#7fb2ff" points="2973.26,-582.64 2963.99,-577.51 2968.04,-587.3 2973.26,-582.64"/>
</g>
<!-- Node0x55dd1f788748&#45;&gt;Node0x55dd1f7877f8 -->
<g id="edge71" class="edge">
<title>Node0x55dd1f788748&#45;&gt;Node0x55dd1f7877f8</title>
<path fill="none" stroke="#7fb2ff" d="M3212,-703.26C3212,-700.77 3212,-698.29 3212,-695.81"/>
<polygon fill="#7fb2ff" stroke="#7fb2ff" points="3215.5,-695.61 3212,-685.61 3208.5,-695.61 3215.5,-695.61"/>
</g>
<!-- Node0x55dd1f787258 -->
<g id="node23" class="node">
<title>Node0x55dd1f787258</title>
<polygon fill="#7fb2ff" stroke="black" points="3860,-608.47 3611,-608.47 3611,-572.47 3860,-572.47 3860,-608.47"/>
<text text-anchor="middle" x="3735.5" y="-586.77" font-family="Times,serif" font-size="14.00">{lib/libLLVMBitstreamReader.a}</text>
</g>
<!-- Node0x55dd1f788748&#45;&gt;Node0x55dd1f787258 -->
<g id="edge72" class="edge">
<title>Node0x55dd1f788748&#45;&gt;Node0x55dd1f787258</title>
<path fill="none" stroke="#7fb2ff" d="M3307.22,-703.44C3320.93,-700.58 3334.85,-697.55 3348,-694.47 3458.62,-668.55 3585.6,-633.31 3662.92,-611.24"/>
<polygon fill="#7fb2ff" stroke="#7fb2ff" points="3663.91,-614.59 3672.56,-608.48 3661.98,-607.86 3663.91,-614.59"/>
</g>
<!-- Node0x55dd1f7877f8&#45;&gt;Node0x55dd1f7847d8 -->
<g id="edge73" class="edge">
<title>Node0x55dd1f7877f8&#45;&gt;Node0x55dd1f7847d8</title>
<path fill="none" stroke="#7fb2ff" d="M3130.71,-656.43C3112.35,-652.54 3093.2,-647.35 3076,-640.47 3040.62,-626.3 3004.28,-602.22 2979.4,-583.98"/>
<polygon fill="#7fb2ff" stroke="#7fb2ff" points="2981.21,-580.97 2971.1,-577.8 2977.03,-586.58 2981.21,-580.97"/>
</g>
<!-- Node0x55dd1f7877f8&#45;&gt;Node0x55dd1f785688 -->
<g id="edge74" class="edge">
<title>Node0x55dd1f7877f8&#45;&gt;Node0x55dd1f785688</title>
<path fill="none" stroke="#7fb2ff" d="M3130.7,-670.32C3102.06,-666.55 3073.23,-656.11 3058,-631.47 3036.97,-597.44 3036.97,-575.49 3058,-541.47 3065.55,-529.25 3076.44,-520.52 3089,-514.37"/>
<polygon fill="#7fb2ff" stroke="#7fb2ff" points="3090.6,-517.49 3098.41,-510.33 3087.84,-511.06 3090.6,-517.49"/>
</g>
<!-- Node0x55dd1f7877f8&#45;&gt;Node0x55dd1f786948 -->
<g id="edge75" class="edge">
<title>Node0x55dd1f7877f8&#45;&gt;Node0x55dd1f786948</title>
<path fill="none" stroke="#7fb2ff" d="M3130.7,-670.32C3102.06,-666.55 3073.23,-656.11 3058,-631.47 3041.18,-604.25 3043.48,-515.98 3058,-487.47 3079,-446.23 3123.08,-416.6 3158.73,-398.21"/>
<polygon fill="#7fb2ff" stroke="#7fb2ff" points="3160.67,-401.15 3168.06,-393.55 3157.55,-394.89 3160.67,-401.15"/>
</g>
<!-- Node0x55dd1f7877f8&#45;&gt;Node0x55dd1f785a98 -->
<g id="edge76" class="edge">
<title>Node0x55dd1f7877f8&#45;&gt;Node0x55dd1f785a98</title>
<path fill="none" stroke="#7fb2ff" d="M3212,-649.26C3212,-646.77 3212,-644.29 3212,-641.81"/>
<polygon fill="#7fb2ff" stroke="#7fb2ff" points="3215.5,-641.61 3212,-631.61 3208.5,-641.61 3215.5,-641.61"/>
</g>
<!-- Node0x55dd1f786e48 -->
<g id="node24" class="node">
<title>Node0x55dd1f786e48</title>
<polygon fill="#7fb2ff" stroke="black" points="3575,-585.47 3384,-585.47 3384,-549.47 3575,-549.47 3575,-585.47"/>
<text text-anchor="middle" x="3479.5" y="-563.77" font-family="Times,serif" font-size="14.00">{lib/libLLVMRemarks.a}</text>
</g>
<!-- Node0x55dd1f7877f8&#45;&gt;Node0x55dd1f786e48 -->
<g id="edge77" class="edge">
<title>Node0x55dd1f7877f8&#45;&gt;Node0x55dd1f786e48</title>
<path fill="none" stroke="#7fb2ff" d="M3293.03,-655.75C3311.39,-651.89 3330.62,-646.88 3348,-640.47 3381.98,-627.92 3417.69,-607.36 3443.15,-591.25"/>
<polygon fill="#7fb2ff" stroke="#7fb2ff" points="3445.18,-594.11 3451.71,-585.76 3441.4,-588.21 3445.18,-594.11"/>
</g>
<!-- Node0x55dd1f78b3f8&#45;&gt;Node0x55dd1f7847d8 -->
<g id="edge78" class="edge">
<title>Node0x55dd1f78b3f8&#45;&gt;Node0x55dd1f7847d8</title>
<path fill="none" stroke="#7fb2ff" d="M3112.74,-823.45C3099.14,-818.94 3086.33,-812.25 3076,-802.47 3029.35,-758.29 3070.26,-719.14 3040,-662.47 3023.98,-632.46 2997.46,-604.08 2977,-584.73"/>
<polygon fill="#7fb2ff" stroke="#7fb2ff" points="2979.2,-582.01 2969.49,-577.78 2974.45,-587.14 2979.2,-582.01"/>
</g>
<!-- Node0x55dd1f78b3f8&#45;&gt;Node0x55dd1f78adb8 -->
<g id="edge79" class="edge">
<title>Node0x55dd1f78b3f8&#45;&gt;Node0x55dd1f78adb8</title>
<path fill="none" stroke="#7fb2ff" d="M3112.88,-829.02C3090.63,-823.58 3070.05,-812.97 3058,-793.47 3034.87,-756.04 3034.87,-632.89 3058,-595.47 3072.21,-572.48 3098.25,-561.84 3124.94,-557.46"/>
<polygon fill="#7fb2ff" stroke="#7fb2ff" points="3125.73,-560.89 3135.17,-556.08 3124.79,-553.95 3125.73,-560.89"/>
</g>
<!-- Node0x55dd1f78a458&#45;&gt;Node0x55dd1f7847d8 -->
<g id="edge80" class="edge">
<title>Node0x55dd1f78a458&#45;&gt;Node0x55dd1f7847d8</title>
<path fill="none" stroke="#7fb2ff" d="M3119.86,-769.82C3104,-765.49 3088.58,-758.76 3076,-748.47 3043.93,-722.22 3062.11,-697.51 3040,-662.47 3021.62,-633.34 2994.9,-604.47 2974.99,-584.74"/>
<polygon fill="#7fb2ff" stroke="#7fb2ff" points="2977.32,-582.12 2967.72,-577.64 2972.43,-587.13 2977.32,-582.12"/>
</g>
<!-- Node0x55dd1f78a458&#45;&gt;Node0x55dd1f785688 -->
<g id="edge81" class="edge">
<title>Node0x55dd1f78a458&#45;&gt;Node0x55dd1f785688</title>
<path fill="none" stroke="#7fb2ff" d="M3119.72,-776.53C3094.9,-771.65 3071.28,-760.95 3058,-739.47 3034.87,-702.04 3034.87,-578.89 3058,-541.47 3065.55,-529.25 3076.44,-520.52 3089,-514.37"/>
<polygon fill="#7fb2ff" stroke="#7fb2ff" points="3090.6,-517.49 3098.41,-510.33 3087.84,-511.06 3090.6,-517.49"/>
</g>
<!-- Node0x55dd1f78a458&#45;&gt;Node0x55dd1f786948 -->
<g id="edge82" class="edge">
<title>Node0x55dd1f78a458&#45;&gt;Node0x55dd1f786948</title>
<path fill="none" stroke="#7fb2ff" d="M3119.72,-776.53C3094.9,-771.65 3071.28,-760.95 3058,-739.47 3043.28,-715.65 3045.29,-512.42 3058,-487.47 3079,-446.23 3123.08,-416.6 3158.73,-398.21"/>
<polygon fill="#7fb2ff" stroke="#7fb2ff" points="3160.67,-401.15 3168.06,-393.55 3157.55,-394.89 3160.67,-401.15"/>
</g>
<!-- Node0x55dd1f786948&#45;&gt;Node0x55dd1f7847d8 -->
<g id="edge37" class="edge">
<title>Node0x55dd1f786948&#45;&gt;Node0x55dd1f7847d8</title>
<path fill="none" stroke="#7fb2ff" d="M3134.1,-393.53C3114.18,-398.6 3093.43,-405.73 3076,-416.47 3027.8,-446.14 2988.8,-500.21 2967.01,-532.85"/>
<polygon fill="#7fb2ff" stroke="#7fb2ff" points="2963.93,-531.18 2961.33,-541.45 2969.77,-535.04 2963.93,-531.18"/>
</g>
<!-- Node0x55dd1f785a98&#45;&gt;Node0x55dd1f784ff8 -->
<g id="edge47" class="edge">
<title>Node0x55dd1f785a98&#45;&gt;Node0x55dd1f784ff8</title>
<path fill="none" stroke="#7fb2ff" d="M3107.14,-631.56C3096.53,-634.2 3085.99,-637.17 3076,-640.47 3059.2,-646.02 3056.38,-650.77 3040,-657.47 3031.17,-661.07 3021.76,-664.65 3012.47,-668.02"/>
<polygon fill="#7fb2ff" stroke="#7fb2ff" points="3011.08,-664.8 3002.84,-671.46 3013.44,-671.39 3011.08,-664.8"/>
</g>
<!-- Node0x55dd1f785a98&#45;&gt;Node0x55dd1f7847d8 -->
<g id="edge49" class="edge">
<title>Node0x55dd1f785a98&#45;&gt;Node0x55dd1f7847d8</title>
<path fill="none" stroke="#7fb2ff" d="M3084.16,-597.14C3081.42,-596.58 3078.69,-596.02 3076,-595.47 3052.66,-590.67 3026.95,-585.27 3004.73,-579.95"/>
<polygon fill="#7fb2ff" stroke="#7fb2ff" points="3005.33,-576.49 2994.79,-577.51 3003.67,-583.29 3005.33,-576.49"/>
</g>
<!-- Node0x55dd1f785a98&#45;&gt;Node0x55dd1f785688 -->
<g id="edge48" class="edge">
<title>Node0x55dd1f785a98&#45;&gt;Node0x55dd1f785688</title>
<path fill="none" stroke="#7fb2ff" d="M3084.19,-602.03C3073.67,-596.08 3064.57,-588.09 3058,-577.47 3049.59,-563.86 3049.59,-555.08 3058,-541.47 3065.55,-529.25 3076.44,-520.52 3089,-514.37"/>
<polygon fill="#7fb2ff" stroke="#7fb2ff" points="3090.6,-517.49 3098.41,-510.33 3087.84,-511.06 3090.6,-517.49"/>
</g>
<!-- Node0x55dd1f785a98&#45;&gt;Node0x55dd1f78adb8 -->
<g id="edge50" class="edge">
<title>Node0x55dd1f785a98&#45;&gt;Node0x55dd1f78adb8</title>
<path fill="none" stroke="#7fb2ff" d="M3212,-595.26C3212,-592.77 3212,-590.29 3212,-587.81"/>
<polygon fill="#7fb2ff" stroke="#7fb2ff" points="3215.5,-587.61 3212,-577.61 3208.5,-587.61 3215.5,-587.61"/>
</g>
<!-- Node0x55dd1f78a548 -->
<g id="node12" class="node">
<title>Node0x55dd1f78a548</title>
<polygon fill="none" stroke="black" points="515,-880.47 0,-880.47 0,-844.47 515,-844.47 515,-880.47"/>
<text text-anchor="middle" x="257.5" y="-858.77" font-family="Times,serif" font-size="14.00">{tools/llvm&#45;readobj/CMakeFiles/llvm&#45;readobj.dir/COFFDumper.cpp.o}</text>
</g>
<!-- Node0x55dd1f78a548&#45;&gt;Node0x55dd1f7887e8 -->
<g id="edge12" class="edge">
<title>Node0x55dd1f78a548&#45;&gt;Node0x55dd1f7887e8</title>
<path fill="none" stroke="black" d="M444.16,-880.48C503.66,-886.25 569.72,-892.66 629.91,-898.49"/>
<polygon fill="black" stroke="black" points="629.62,-901.98 639.91,-899.46 630.3,-895.01 629.62,-901.98"/>
</g>
<!-- Node0x55dd1f78a548&#45;&gt;Node0x55dd1f784ff8 -->
<g id="edge17" class="edge">
<title>Node0x55dd1f78a548&#45;&gt;Node0x55dd1f784ff8</title>
<path fill="none" stroke="black" d="M289.34,-880.65C341.41,-910.51 450.91,-969.68 551,-1000.47 911.79,-1111.46 1012.52,-1132.47 1390,-1132.47 1390,-1132.47 1390,-1132.47 1983,-1132.47 2354.48,-1132.47 2523.37,-1321.71 2818,-1095.47 2879.98,-1047.88 2926.9,-801.9 2941.35,-717.74"/>
<polygon fill="black" stroke="black" points="2944.81,-718.3 2943.03,-707.86 2937.9,-717.13 2944.81,-718.3"/>
</g>
<!-- Node0x55dd1f78a548&#45;&gt;Node0x55dd1f7847d8 -->
<g id="edge18" class="edge">
<title>Node0x55dd1f78a548&#45;&gt;Node0x55dd1f7847d8</title>
<path fill="none" stroke="black" d="M273.52,-844.39C352.08,-751.23 727.76,-322.47 1138,-136.47 1241.35,-89.61 1276.53,-95.47 1390,-95.47 1390,-95.47 1390,-95.47 1983,-95.47 2169.26,-95.47 2672.1,-52.68 2818,-168.47 2933.22,-259.9 2945.9,-457.24 2946.45,-530.94"/>
<polygon fill="black" stroke="black" points="2942.95,-531.28 2946.45,-541.28 2949.95,-531.28 2942.95,-531.28"/>
</g>
<!-- Node0x55dd1f78a548&#45;&gt;Node0x55dd1f786948 -->
<g id="edge16" class="edge">
<title>Node0x55dd1f78a548&#45;&gt;Node0x55dd1f786948</title>
<path fill="none" stroke="black" d="M259.7,-844.43C266.84,-753.29 311.89,-340.77 551,-159.47 850.32,67.49 1014.37,-57.47 1390,-57.47 1390,-57.47 1390,-57.47 2570,-57.47 2680.87,-57.47 2714.75,-44.07 2818,-84.47 2977.28,-146.78 3129.24,-291.22 3186.77,-349.95"/>
<polygon fill="black" stroke="black" points="3184.46,-352.59 3193.94,-357.33 3189.48,-347.72 3184.46,-352.59"/>
</g>
<!-- Node0x55dd1f78ba38 -->
<g id="node13" class="node">
<title>Node0x55dd1f78ba38</title>
<polygon fill="none" stroke="black" points="1644,-880.47 1138,-880.47 1138,-844.47 1644,-844.47 1644,-880.47"/>
<text text-anchor="middle" x="1391" y="-858.77" font-family="Times,serif" font-size="14.00">{tools/llvm&#45;readobj/CMakeFiles/llvm&#45;readobj.dir/llvm&#45;readobj.cpp.o}</text>
</g>
<!-- Node0x55dd1f78a548&#45;&gt;Node0x55dd1f78ba38 -->
<g id="edge13" class="edge">
<title>Node0x55dd1f78a548&#45;&gt;Node0x55dd1f78ba38</title>
<path fill="none" stroke="black" d="M515.25,-856.71C698.21,-855.4 943.35,-855.39 1127.57,-856.67"/>
<polygon fill="black" stroke="black" points="1127.65,-860.17 1137.67,-856.74 1127.7,-853.17 1127.65,-860.17"/>
</g>
<!-- Node0x55dd1f78c7f8 -->
<g id="node14" class="node">
<title>Node0x55dd1f78c7f8</title>
<polygon fill="none" stroke="black" points="2818,-935.47 2320,-935.47 2320,-899.47 2818,-899.47 2818,-935.47"/>
<text text-anchor="middle" x="2569" y="-913.77" font-family="Times,serif" font-size="14.00">{tools/llvm&#45;readobj/CMakeFiles/llvm&#45;readobj.dir/ObjDumper.cpp.o}</text>
</g>
<!-- Node0x55dd1f78a548&#45;&gt;Node0x55dd1f78c7f8 -->
<g id="edge14" class="edge">
<title>Node0x55dd1f78a548&#45;&gt;Node0x55dd1f78c7f8</title>
<path fill="none" stroke="black" d="M309.49,-880.54C367.25,-900.12 464.59,-930.43 551,-944.47 1311.64,-1068 1520.99,-1107.41 2284,-999.47 2364.7,-988.05 2454.57,-959.24 2511.18,-939.01"/>
<polygon fill="black" stroke="black" points="2512.44,-942.28 2520.66,-935.59 2510.06,-935.69 2512.44,-942.28"/>
</g>
<!-- Node0x55dd1f787b68 -->
<g id="node15" class="node">
<title>Node0x55dd1f787b68</title>
<polygon fill="none" stroke="black" points="1097.5,-825.47 555.5,-825.47 555.5,-789.47 1097.5,-789.47 1097.5,-825.47"/>
<text text-anchor="middle" x="826.5" y="-803.77" font-family="Times,serif" font-size="14.00">{tools/llvm&#45;readobj/CMakeFiles/llvm&#45;readobj.dir/Win64EHDumper.cpp.o}</text>
</g>
<!-- Node0x55dd1f78a548&#45;&gt;Node0x55dd1f787b68 -->
<g id="edge15" class="edge">
<title>Node0x55dd1f78a548&#45;&gt;Node0x55dd1f787b68</title>
<path fill="none" stroke="black" d="M444.16,-844.46C503.66,-838.68 569.72,-832.28 629.91,-826.44"/>
<polygon fill="black" stroke="black" points="630.3,-829.92 639.91,-825.47 629.62,-822.95 630.3,-829.92"/>
</g>
<!-- Node0x55dd1f78ba38&#45;&gt;Node0x55dd1f784ff8 -->
<g id="edge28" class="edge">
<title>Node0x55dd1f78ba38&#45;&gt;Node0x55dd1f784ff8</title>
<path fill="none" stroke="black" d="M1422.31,-844.44C1473.5,-814.88 1581.19,-756.5 1680,-727.47 1939.86,-651.1 2042.87,-769.82 2284,-646.47 2304.71,-635.87 2298.63,-617.66 2320,-608.47 2523.32,-521.01 2605.42,-546.85 2818,-608.47 2855.9,-619.45 2893.34,-645.38 2917.84,-664.97"/>
<polygon fill="black" stroke="black" points="2915.68,-667.72 2925.64,-671.34 2920.11,-662.3 2915.68,-667.72"/>
</g>
<!-- Node0x55dd1f78ba38&#45;&gt;Node0x55dd1f7847d8 -->
<g id="edge30" class="edge">
<title>Node0x55dd1f78ba38&#45;&gt;Node0x55dd1f7847d8</title>
<path fill="none" stroke="black" d="M1422.31,-844.44C1473.5,-814.88 1581.19,-756.5 1680,-727.47 1809.93,-689.28 2180.77,-734.12 2284,-646.47 2325.8,-610.98 2275.93,-561.09 2320,-528.47 2495.65,-398.41 2781.02,-491.52 2895.82,-537.67"/>
<polygon fill="black" stroke="black" points="2894.51,-540.91 2905.09,-541.44 2897.15,-534.43 2894.51,-540.91"/>
</g>
<!-- Node0x55dd1f78ba38&#45;&gt;Node0x55dd1f785688 -->
<g id="edge29" class="edge">
<title>Node0x55dd1f78ba38&#45;&gt;Node0x55dd1f785688</title>
<path fill="none" stroke="black" d="M1408.61,-844.17C1449.61,-800.46 1560.96,-690.35 1680,-646.47 1806.19,-599.95 2169.11,-678.37 2284,-608.47 2310.57,-592.3 2294.91,-566.84 2320,-548.47 2516.84,-404.36 2611.71,-449.88 2854,-421.47 2936.1,-411.84 2959.48,-402.76 3040,-421.47 3089.98,-433.08 3142.18,-461.47 3175.56,-482.03"/>
<polygon fill="black" stroke="black" points="3173.71,-485 3184.04,-487.34 3177.42,-479.07 3173.71,-485"/>
</g>
<!-- Node0x55dd1f78ba38&#45;&gt;Node0x55dd1f786948 -->
<g id="edge27" class="edge">
<title>Node0x55dd1f78ba38&#45;&gt;Node0x55dd1f786948</title>
<path fill="none" stroke="black" d="M1405.31,-844.22C1442.28,-795.2 1551.98,-660.89 1680,-608.47 1742.2,-583 2232.47,-618.62 2284,-575.47 2337.56,-530.62 2266.4,-467.27 2320,-422.47 2561.13,-220.93 2979.66,-309.31 3142.97,-354.66"/>
<polygon fill="black" stroke="black" points="3142.32,-358.11 3152.89,-357.45 3144.21,-351.38 3142.32,-358.11"/>
</g>
<!-- Node0x55dd1f78ba38&#45;&gt;Node0x55dd1f78a548 -->
<g id="edge19" class="edge">
<title>Node0x55dd1f78ba38&#45;&gt;Node0x55dd1f78a548</title>
<path fill="none" stroke="black" d="M1137.67,-868.2C955.74,-869.52 710.61,-869.56 525.42,-868.3"/>
<polygon fill="black" stroke="black" points="525.28,-864.8 515.25,-868.23 525.23,-871.8 525.28,-864.8"/>
</g>
<!-- Node0x55dd1f78ba38&#45;&gt;Node0x55dd1f78c7f8 -->
<g id="edge23" class="edge">
<title>Node0x55dd1f78ba38&#45;&gt;Node0x55dd1f78c7f8</title>
<path fill="none" stroke="black" d="M1644.02,-878.01C1656.18,-878.9 1668.22,-879.73 1680,-880.47 1891.79,-893.72 2132.41,-900.82 2309.71,-905.94"/>
<polygon fill="black" stroke="black" points="2309.86,-909.45 2319.96,-906.24 2310.07,-902.45 2309.86,-909.45"/>
</g>
<!-- Node0x55dd1f789328 -->
<g id="node16" class="node">
<title>Node0x55dd1f789328</title>
<polygon fill="none" stroke="black" points="2263.5,-566.47 1700.5,-566.47 1700.5,-530.47 2263.5,-530.47 2263.5,-566.47"/>
<text text-anchor="middle" x="1982" y="-544.77" font-family="Times,serif" font-size="14.00">{tools/llvm&#45;readobj/CMakeFiles/llvm&#45;readobj.dir/COFFImportDumper.cpp.o}</text>
</g>
<!-- Node0x55dd1f78ba38&#45;&gt;Node0x55dd1f789328 -->
<g id="edge20" class="edge">
<title>Node0x55dd1f78ba38&#45;&gt;Node0x55dd1f789328</title>
<path fill="none" stroke="black" d="M1403.93,-844.12C1438.95,-792.03 1547.38,-642.96 1680,-580.47 1688.29,-576.56 1696.85,-573.04 1705.6,-569.86"/>
<polygon fill="black" stroke="black" points="1706.86,-573.13 1715.17,-566.55 1704.57,-566.51 1706.86,-573.13"/>
</g>
<!-- Node0x55dd1f78b448 -->
<g id="node17" class="node">
<title>Node0x55dd1f78b448</title>
<polygon fill="none" stroke="black" points="2233.5,-772.47 1730.5,-772.47 1730.5,-736.47 2233.5,-736.47 2233.5,-772.47"/>
<text text-anchor="middle" x="1982" y="-750.77" font-family="Times,serif" font-size="14.00">{tools/llvm&#45;readobj/CMakeFiles/llvm&#45;readobj.dir/ELFDumper.cpp.o}</text>
</g>
<!-- Node0x55dd1f78ba38&#45;&gt;Node0x55dd1f78b448 -->
<g id="edge21" class="edge">
<title>Node0x55dd1f78ba38&#45;&gt;Node0x55dd1f78b448</title>
<path fill="none" stroke="black" d="M1427.42,-844.42C1481.27,-823.1 1587.28,-789.51 1680,-772.47 1693.18,-770.04 1706.73,-767.83 1720.45,-765.83"/>
<polygon fill="black" stroke="black" points="1721.05,-769.28 1730.46,-764.41 1720.06,-762.35 1721.05,-769.28"/>
</g>
<!-- Node0x55dd1f78a8b8 -->
<g id="node18" class="node">
<title>Node0x55dd1f78a8b8</title>
<polygon fill="none" stroke="black" points="2244,-990.47 1720,-990.47 1720,-954.47 2244,-954.47 2244,-990.47"/>
<text text-anchor="middle" x="1982" y="-968.77" font-family="Times,serif" font-size="14.00">{tools/llvm&#45;readobj/CMakeFiles/llvm&#45;readobj.dir/MachODumper.cpp.o}</text>
</g>
<!-- Node0x55dd1f78ba38&#45;&gt;Node0x55dd1f78a8b8 -->
<g id="edge22" class="edge">
<title>Node0x55dd1f78ba38&#45;&gt;Node0x55dd1f78a8b8</title>
<path fill="none" stroke="black" d="M1472.83,-880.5C1530.12,-896.27 1609.1,-918.18 1680,-931.47 1730.74,-940.97 1786.86,-947.89 1836.76,-953.33"/>
<polygon fill="black" stroke="black" points="1836.66,-956.83 1846.98,-954.43 1837.41,-949.88 1836.66,-956.83"/>
</g>
<!-- Node0x55dd1f78ca28 -->
<g id="node19" class="node">
<title>Node0x55dd1f78ca28</title>
<polygon fill="none" stroke="black" points="2240,-826.47 1724,-826.47 1724,-790.47 2240,-790.47 2240,-826.47"/>
<text text-anchor="middle" x="1982" y="-804.77" font-family="Times,serif" font-size="14.00">{tools/llvm&#45;readobj/CMakeFiles/llvm&#45;readobj.dir/WasmDumper.cpp.o}</text>
</g>
<!-- Node0x55dd1f78ba38&#45;&gt;Node0x55dd1f78ca28 -->
<g id="edge24" class="edge">
<title>Node0x55dd1f78ba38&#45;&gt;Node0x55dd1f78ca28</title>
<path fill="none" stroke="black" d="M1497.32,-844.44C1551.84,-838.35 1619.49,-832.02 1680,-826.47 1691.01,-825.46 1702.25,-824.43 1713.6,-823.4"/>
<polygon fill="black" stroke="black" points="1713.96,-826.88 1723.61,-822.5 1713.33,-819.91 1713.96,-826.88"/>
</g>
<!-- Node0x55dd1f787938 -->
<g id="node20" class="node">
<title>Node0x55dd1f787938</title>
<polygon fill="none" stroke="black" points="2284,-512.47 1680,-512.47 1680,-476.47 2284,-476.47 2284,-512.47"/>
<text text-anchor="middle" x="1982" y="-490.77" font-family="Times,serif" font-size="14.00">{tools/llvm&#45;readobj/CMakeFiles/llvm&#45;readobj.dir/WindowsResourceDumper.cpp.o}</text>
</g>
<!-- Node0x55dd1f78ba38&#45;&gt;Node0x55dd1f787938 -->
<g id="edge25" class="edge">
<title>Node0x55dd1f78ba38&#45;&gt;Node0x55dd1f787938</title>
<path fill="none" stroke="black" d="M1400.83,-844.12C1430.47,-784.85 1532.87,-597.96 1680,-521.47 1683.18,-519.81 1686.41,-518.23 1689.67,-516.71"/>
<polygon fill="black" stroke="black" points="1691.24,-519.84 1698.97,-512.61 1688.41,-513.44 1691.24,-519.84"/>
</g>
<!-- Node0x55dd1f78a9f8 -->
<g id="node21" class="node">
<title>Node0x55dd1f78a9f8</title>
<polygon fill="none" stroke="black" points="2244,-880.47 1720,-880.47 1720,-844.47 2244,-844.47 2244,-880.47"/>
<text text-anchor="middle" x="1982" y="-858.77" font-family="Times,serif" font-size="14.00">{tools/llvm&#45;readobj/CMakeFiles/llvm&#45;readobj.dir/XCOFFDumper.cpp.o}</text>
</g>
<!-- Node0x55dd1f78ba38&#45;&gt;Node0x55dd1f78a9f8 -->
<g id="edge26" class="edge">
<title>Node0x55dd1f78ba38&#45;&gt;Node0x55dd1f78a9f8</title>
<path fill="none" stroke="black" d="M1644.35,-855.78C1666.01,-855.71 1687.99,-855.7 1709.79,-855.73"/>
<polygon fill="black" stroke="black" points="1709.78,-859.23 1719.79,-855.75 1709.8,-852.23 1709.78,-859.23"/>
</g>
<!-- Node0x55dd1f78c7f8&#45;&gt;Node0x55dd1f784ff8 -->
<g id="edge32" class="edge">
<title>Node0x55dd1f78c7f8&#45;&gt;Node0x55dd1f784ff8</title>
<path fill="none" stroke="black" d="M2791.33,-899.38C2800.6,-895.38 2809.54,-890.77 2818,-885.47 2881.72,-845.49 2920.21,-760.87 2936.64,-717.05"/>
<polygon fill="black" stroke="black" points="2939.95,-718.19 2940.08,-707.6 2933.38,-715.8 2939.95,-718.19"/>
</g>
<!-- Node0x55dd1f78c7f8&#45;&gt;Node0x55dd1f7847d8 -->
<g id="edge33" class="edge">
<title>Node0x55dd1f78c7f8&#45;&gt;Node0x55dd1f7847d8</title>
<path fill="none" stroke="black" d="M2731.26,-899.42C2763.76,-888.82 2794.97,-872.48 2818,-847.47 2874.72,-785.83 2816.77,-737.5 2854,-662.47 2869.12,-631.99 2895.74,-603.66 2916.47,-584.46"/>
<polygon fill="black" stroke="black" points="2919.02,-586.87 2924.08,-577.56 2914.32,-581.68 2919.02,-586.87"/>
</g>
<!-- Node0x55dd1f78c7f8&#45;&gt;Node0x55dd1f78ba38 -->
<g id="edge31" class="edge">
<title>Node0x55dd1f78c7f8&#45;&gt;Node0x55dd1f78ba38</title>
<path fill="none" stroke="black" d="M2319.96,-921.28C2141.77,-919.09 1895.9,-911.98 1680,-898.47 1618.54,-894.62 1549.89,-888.26 1495.03,-881.7"/>
<polygon fill="black" stroke="black" points="1495.3,-878.2 1484.95,-880.47 1494.45,-885.15 1495.3,-878.2"/>
</g>
<!-- Node0x55dd1f787b68&#45;&gt;Node0x55dd1f784ff8 -->
<g id="edge35" class="edge">
<title>Node0x55dd1f787b68&#45;&gt;Node0x55dd1f784ff8</title>
<path fill="none" stroke="black" d="M829.41,-789.29C839.84,-700.25 898.66,-308.38 1138,-157.47 1211.09,-111.38 2739.04,-162.16 2818,-238.47 2873.91,-292.49 2822.58,-515.35 2854,-586.47 2867.66,-617.39 2894.18,-645.49 2915.25,-664.5"/>
<polygon fill="black" stroke="black" points="2913.2,-667.36 2923.02,-671.33 2917.82,-662.1 2913.2,-667.36"/>
</g>
<!-- Node0x55dd1f787b68&#45;&gt;Node0x55dd1f7847d8 -->
<g id="edge36" class="edge">
<title>Node0x55dd1f787b68&#45;&gt;Node0x55dd1f7847d8</title>
<path fill="none" stroke="black" d="M858.34,-789.32C1010.43,-701.02 1698.35,-315.53 2320,-192.47 2537.12,-149.49 2637.55,-64.3 2818,-192.47 2930.77,-272.56 2945.01,-459.68 2946.21,-531.09"/>
<polygon fill="black" stroke="black" points="2942.71,-531.17 2946.3,-541.14 2949.71,-531.11 2942.71,-531.17"/>
</g>
<!-- Node0x55dd1f787b68&#45;&gt;Node0x55dd1f78ba38 -->
<g id="edge34" class="edge">
<title>Node0x55dd1f787b68&#45;&gt;Node0x55dd1f78ba38</title>
<path fill="none" stroke="black" d="M1011.68,-825.48C1070.59,-831.24 1135.98,-837.63 1195.6,-843.46"/>
<polygon fill="black" stroke="black" points="1195.59,-846.97 1205.88,-844.46 1196.27,-840.01 1195.59,-846.97"/>
</g>
<!-- Node0x55dd1f789328&#45;&gt;Node0x55dd1f784ff8 -->
<g id="edge38" class="edge">
<title>Node0x55dd1f789328&#45;&gt;Node0x55dd1f784ff8</title>
<path fill="none" stroke="black" d="M2263.74,-534.85C2270.77,-530.86 2277.55,-526.41 2284,-521.47 2320.82,-493.23 2281.95,-450.02 2320,-423.47 2501.49,-296.78 2645.44,-284.86 2818,-423.47 2875.84,-469.93 2820.19,-520.43 2854,-586.47 2869.5,-616.74 2896.08,-645.1 2916.69,-664.36"/>
<polygon fill="black" stroke="black" points="2914.52,-667.12 2924.27,-671.28 2919.25,-661.95 2914.52,-667.12"/>
</g>
<!-- Node0x55dd1f789328&#45;&gt;Node0x55dd1f7847d8 -->
<g id="edge39" class="edge">
<title>Node0x55dd1f789328&#45;&gt;Node0x55dd1f7847d8</title>
<path fill="none" stroke="black" d="M2070.12,-566.51C2137.14,-574.94 2227.55,-573.64 2284,-521.47 2354.19,-456.6 2246.98,-371.13 2320,-309.47 2404.55,-238.06 2723.58,-251.74 2818,-309.47 2898.73,-358.83 2930.62,-477.01 2941.32,-531.31"/>
<polygon fill="black" stroke="black" points="2937.91,-532.1 2943.19,-541.28 2944.79,-530.81 2937.91,-532.1"/>
</g>
<!-- Node0x55dd1f78b448&#45;&gt;Node0x55dd1f784ff8 -->
<g id="edge44" class="edge">
<title>Node0x55dd1f78b448&#45;&gt;Node0x55dd1f784ff8</title>
<path fill="none" stroke="black" d="M2233.5,-737.56C2434.73,-723.98 2706.5,-705.63 2849.23,-696"/>
<polygon fill="black" stroke="black" points="2849.54,-699.48 2859.28,-695.32 2849.07,-692.5 2849.54,-699.48"/>
</g>
<!-- Node0x55dd1f78b448&#45;&gt;Node0x55dd1f7847d8 -->
<g id="edge46" class="edge">
<title>Node0x55dd1f78b448&#45;&gt;Node0x55dd1f7847d8</title>
<path fill="none" stroke="black" d="M2233.73,-752.81C2251.99,-745.42 2269.06,-735.52 2284,-722.47 2334.65,-678.2 2267.62,-617.66 2320,-575.47 2397.88,-512.74 2687.08,-531.9 2843.69,-547.65"/>
<polygon fill="black" stroke="black" points="2843.5,-551.15 2853.8,-548.68 2844.21,-544.19 2843.5,-551.15"/>
</g>
<!-- Node0x55dd1f78b448&#45;&gt;Node0x55dd1f785688 -->
<g id="edge45" class="edge">
<title>Node0x55dd1f78b448&#45;&gt;Node0x55dd1f785688</title>
<path fill="none" stroke="black" d="M2107.93,-736.43C2168.46,-721.67 2237.85,-694.9 2284,-646.47 2321.82,-606.77 2276.36,-561.66 2320,-528.47 2571.68,-337.04 2989.28,-436.56 3147.55,-484.52"/>
<polygon fill="black" stroke="black" points="3146.56,-487.88 3157.15,-487.46 3148.62,-481.18 3146.56,-487.88"/>
</g>
<!-- Node0x55dd1f78b448&#45;&gt;Node0x55dd1f785a98 -->
<g id="edge42" class="edge">
<title>Node0x55dd1f78b448&#45;&gt;Node0x55dd1f785a98</title>
<path fill="none" stroke="black" d="M2233.54,-751.44C2251.73,-744.32 2268.85,-734.86 2284,-722.47 2325.13,-688.83 2277.14,-639.87 2320,-608.47 2409.26,-543.05 2707.34,-607.76 2818,-608.47 2903.22,-609.01 2998.82,-610.21 3074.4,-611.3"/>
<polygon fill="black" stroke="black" points="3074.41,-614.8 3084.46,-611.45 3074.51,-607.8 3074.41,-614.8"/>
</g>
<!-- Node0x55dd1f78b448&#45;&gt;Node0x55dd1f78ba38 -->
<g id="edge40" class="edge">
<title>Node0x55dd1f78b448&#45;&gt;Node0x55dd1f78ba38</title>
<path fill="none" stroke="black" d="M1815.44,-772.47C1771.22,-776.78 1723.6,-782.45 1680,-790.47 1610.82,-803.18 1534.25,-825.11 1477.46,-841.61"/>
<polygon fill="black" stroke="black" points="1476.43,-838.27 1467.8,-844.42 1478.38,-844.99 1476.43,-838.27"/>
</g>
<!-- Node0x55dd1f78b448&#45;&gt;Node0x55dd1f78c7f8 -->
<g id="edge41" class="edge">
<title>Node0x55dd1f78b448&#45;&gt;Node0x55dd1f78c7f8</title>
<path fill="none" stroke="black" d="M2233.88,-770.09C2250.96,-773.26 2267.81,-777.02 2284,-781.47 2377.44,-807.13 2477.63,-862.45 2530.43,-894.06"/>
<polygon fill="black" stroke="black" points="2528.74,-897.13 2539.11,-899.3 2532.36,-891.13 2528.74,-897.13"/>
</g>
<!-- Node0x55dd1f785f48 -->
<g id="node22" class="node">
<title>Node0x55dd1f785f48</title>
<polygon fill="none" stroke="black" points="2669,-653.47 2469,-653.47 2469,-617.47 2669,-617.47 2669,-653.47"/>
<text text-anchor="middle" x="2569" y="-631.77" font-family="Times,serif" font-size="14.00">{lib/libLLVMDemangle.a}</text>
</g>
<!-- Node0x55dd1f78b448&#45;&gt;Node0x55dd1f785f48 -->
<g id="edge43" class="edge">
<title>Node0x55dd1f78b448&#45;&gt;Node0x55dd1f785f48</title>
<path fill="none" stroke="black" d="M2233.57,-745.54C2251.28,-739.62 2268.31,-732.06 2284,-722.47 2308.93,-707.23 2295.24,-682.98 2320,-667.47 2360.87,-641.86 2412.97,-632.45 2458.86,-630"/>
<polygon fill="black" stroke="black" points="2459.02,-633.5 2468.86,-629.57 2458.72,-626.5 2459.02,-633.5"/>
</g>
<!-- Node0x55dd1f78a8b8&#45;&gt;Node0x55dd1f784ff8 -->
<g id="edge54" class="edge">
<title>Node0x55dd1f78a8b8&#45;&gt;Node0x55dd1f784ff8</title>
<path fill="none" stroke="black" d="M2115.78,-990.47C2321.65,-1015.58 2705.87,-1050.34 2818,-977.47 2908.92,-918.38 2935.78,-778.2 2943.27,-717.87"/>
<polygon fill="black" stroke="black" points="2946.79,-717.91 2944.46,-707.58 2939.84,-717.11 2946.79,-717.91"/>
</g>
<!-- Node0x55dd1f78a8b8&#45;&gt;Node0x55dd1f7847d8 -->
<g id="edge55" class="edge">
<title>Node0x55dd1f78a8b8&#45;&gt;Node0x55dd1f7847d8</title>
<path fill="none" stroke="black" d="M2244.01,-971.8C2480.98,-969.95 2796.73,-963.84 2818,-944.47 2864.71,-901.93 2827.78,-719.94 2854,-662.47 2868.03,-631.71 2894.51,-603.59 2915.47,-584.53"/>
<polygon fill="black" stroke="black" points="2918.04,-586.94 2923.2,-577.68 2913.39,-581.7 2918.04,-586.94"/>
</g>
<!-- Node0x55dd1f78a8b8&#45;&gt;Node0x55dd1f78ba38 -->
<g id="edge52" class="edge">
<title>Node0x55dd1f78a8b8&#45;&gt;Node0x55dd1f78ba38</title>
<path fill="none" stroke="black" d="M1720,-956.29C1706.44,-954.18 1693.04,-951.91 1680,-949.47 1593.78,-933.31 1495.62,-904.4 1439.03,-884.07"/>
<polygon fill="black" stroke="black" points="1439.89,-880.66 1429.3,-880.51 1437.49,-887.24 1439.89,-880.66"/>
</g>
<!-- Node0x55dd1f78a8b8&#45;&gt;Node0x55dd1f78c7f8 -->
<g id="edge53" class="edge">
<title>Node0x55dd1f78a8b8&#45;&gt;Node0x55dd1f78c7f8</title>
<path fill="none" stroke="black" d="M2174.55,-954.46C2235.95,-948.68 2304.1,-942.28 2366.21,-936.44"/>
<polygon fill="black" stroke="black" points="2366.89,-939.89 2376.52,-935.47 2366.23,-932.92 2366.89,-939.89"/>
</g>
<!-- Node0x55dd1f78ca28&#45;&gt;Node0x55dd1f784ff8 -->
<g id="edge58" class="edge">
<title>Node0x55dd1f78ca28&#45;&gt;Node0x55dd1f784ff8</title>
<path fill="none" stroke="black" d="M2155.45,-826.47C2327.53,-838.56 2597.38,-841.41 2818,-771.47 2855.75,-759.5 2893.21,-733.39 2917.77,-713.83"/>
<polygon fill="black" stroke="black" points="2920.03,-716.5 2925.58,-707.48 2915.61,-711.07 2920.03,-716.5"/>
</g>
<!-- Node0x55dd1f78ca28&#45;&gt;Node0x55dd1f7847d8 -->
<g id="edge60" class="edge">
<title>Node0x55dd1f78ca28&#45;&gt;Node0x55dd1f7847d8</title>
<path fill="none" stroke="black" d="M2240.22,-798.3C2255.35,-793.76 2270.07,-788.21 2284,-781.47 2304.94,-771.33 2299.44,-754.35 2320,-743.47 2518.19,-638.56 2616.24,-760.33 2818,-662.47 2837.53,-652.99 2837.35,-643.39 2854,-629.47 2872.92,-613.65 2894.88,-596.89 2912.6,-583.73"/>
<polygon fill="black" stroke="black" points="2914.96,-586.34 2920.92,-577.58 2910.8,-580.71 2914.96,-586.34"/>
</g>
<!-- Node0x55dd1f78ca28&#45;&gt;Node0x55dd1f785688 -->
<g id="edge59" class="edge">
<title>Node0x55dd1f78ca28&#45;&gt;Node0x55dd1f785688</title>
<path fill="none" stroke="black" d="M2226.65,-790.42C2246.11,-787.82 2265.42,-784.85 2284,-781.47 2300.34,-778.49 2303.69,-774.59 2320,-771.47 2429.32,-750.5 2723.08,-775.61 2818,-717.47 2842.91,-702.21 2831.46,-681.05 2854,-662.47 2922.9,-605.65 2970.86,-642.99 3040,-586.47 3062.33,-568.21 3052.03,-548.52 3076,-532.47 3080.13,-529.7 3084.47,-527.21 3088.98,-524.96"/>
<polygon fill="black" stroke="black" points="3090.76,-528 3098.42,-520.68 3087.87,-521.62 3090.76,-528"/>
</g>
<!-- Node0x55dd1f78ca28&#45;&gt;Node0x55dd1f78ba38 -->
<g id="edge56" class="edge">
<title>Node0x55dd1f78ca28&#45;&gt;Node0x55dd1f78ba38</title>
<path fill="none" stroke="black" d="M1869.14,-826.47C1812.46,-832.45 1742.57,-838.73 1680,-844.47 1671.55,-845.24 1662.97,-846.03 1654.3,-846.83"/>
<polygon fill="black" stroke="black" points="1653.72,-843.37 1644.08,-847.77 1654.36,-850.34 1653.72,-843.37"/>
</g>
<!-- Node0x55dd1f78ca28&#45;&gt;Node0x55dd1f78c7f8 -->
<g id="edge57" class="edge">
<title>Node0x55dd1f78ca28&#45;&gt;Node0x55dd1f78c7f8</title>
<path fill="none" stroke="black" d="M2227.9,-826.47C2246.94,-829.08 2265.82,-832.06 2284,-835.47 2362.32,-850.15 2450.11,-877.18 2507.07,-896.19"/>
<polygon fill="black" stroke="black" points="2506.04,-899.54 2516.64,-899.4 2508.27,-892.9 2506.04,-899.54"/>
</g>
<!-- Node0x55dd1f787938&#45;&gt;Node0x55dd1f784ff8 -->
<g id="edge61" class="edge">
<title>Node0x55dd1f787938&#45;&gt;Node0x55dd1f784ff8</title>
<path fill="none" stroke="black" d="M2007.91,-476.24C2118.28,-397.8 2568.78,-102.7 2818,-320.47 2862.92,-359.71 2829.04,-532.29 2854,-586.47 2868.15,-617.17 2894.62,-645.29 2915.54,-664.37"/>
<polygon fill="black" stroke="black" points="2913.46,-667.2 2923.26,-671.22 2918.11,-661.96 2913.46,-667.2"/>
</g>
<!-- Node0x55dd1f787938&#45;&gt;Node0x55dd1f7847d8 -->
<g id="edge62" class="edge">
<title>Node0x55dd1f787938&#45;&gt;Node0x55dd1f7847d8</title>
<path fill="none" stroke="black" d="M1998.11,-476.36C2041.65,-425.8 2173.66,-283.51 2320,-233.47 2424.71,-197.66 2726.56,-171.13 2818,-233.47 2919.37,-302.57 2940.46,-465.25 2944.85,-531.08"/>
<polygon fill="black" stroke="black" points="2941.36,-531.36 2945.44,-541.14 2948.35,-530.95 2941.36,-531.36"/>
</g>
<!-- Node0x55dd1f78a9f8&#45;&gt;Node0x55dd1f784ff8 -->
<g id="edge65" class="edge">
<title>Node0x55dd1f78a9f8&#45;&gt;Node0x55dd1f784ff8</title>
<path fill="none" stroke="black" d="M2226.24,-880.48C2434.96,-891.89 2717.5,-896.5 2818,-847.47 2874.5,-819.9 2914.34,-754.22 2933.35,-716.8"/>
<polygon fill="black" stroke="black" points="2936.66,-718.01 2937.94,-707.5 2930.38,-714.91 2936.66,-718.01"/>
</g>
<!-- Node0x55dd1f78a9f8&#45;&gt;Node0x55dd1f7847d8 -->
<g id="edge66" class="edge">
<title>Node0x55dd1f78a9f8&#45;&gt;Node0x55dd1f7847d8</title>
<path fill="none" stroke="black" d="M2209.84,-844.47C2422.48,-823.83 2721.67,-783.99 2818,-717.47 2842.04,-700.87 2836.22,-685.65 2854,-662.47 2875.22,-634.8 2902.02,-605.33 2921.21,-585.03"/>
<polygon fill="black" stroke="black" points="2923.81,-587.38 2928.17,-577.72 2918.74,-582.55 2923.81,-587.38"/>
</g>
<!-- Node0x55dd1f78a9f8&#45;&gt;Node0x55dd1f78ba38 -->
<g id="edge63" class="edge">
<title>Node0x55dd1f78a9f8&#45;&gt;Node0x55dd1f78ba38</title>
<path fill="none" stroke="black" d="M1719.79,-869.18C1698.15,-869.23 1676.27,-869.23 1654.62,-869.18"/>
<polygon fill="black" stroke="black" points="1654.36,-865.68 1644.35,-869.15 1654.34,-872.68 1654.36,-865.68"/>
</g>
<!-- Node0x55dd1f78a9f8&#45;&gt;Node0x55dd1f78c7f8 -->
<g id="edge64" class="edge">
<title>Node0x55dd1f78a9f8&#45;&gt;Node0x55dd1f78c7f8</title>
<path fill="none" stroke="black" d="M2174.55,-880.48C2235.95,-886.25 2304.1,-892.66 2366.21,-898.49"/>
<polygon fill="black" stroke="black" points="2366.23,-902.01 2376.52,-899.46 2366.89,-895.04 2366.23,-902.01"/>
</g>
<!-- Node0x55dd1f787258&#45;&gt;Node0x55dd1f7847d8 -->
<g id="edge84" class="edge">
<title>Node0x55dd1f787258&#45;&gt;Node0x55dd1f7847d8</title>
<path fill="none" stroke="#7fb2ff" d="M3698.38,-572.4C3631.37,-540.01 3482.34,-473.21 3348,-449.47 3228.96,-428.43 3189.35,-407.45 3076,-449.47 3030.93,-466.17 2991.07,-506.63 2968.24,-533.54"/>
<polygon fill="#7fb2ff" stroke="#7fb2ff" points="2965.4,-531.49 2961.72,-541.42 2970.79,-535.95 2965.4,-531.49"/>
</g>
<!-- Node0x55dd1f787258&#45;&gt;Node0x55dd1f785a98 -->
<g id="edge83" class="edge">
<title>Node0x55dd1f787258&#45;&gt;Node0x55dd1f785a98</title>
<path fill="none" stroke="#7fb2ff" d="M3610.93,-595.92C3532.44,-599.38 3430.76,-603.86 3349.84,-607.43"/>
<polygon fill="#7fb2ff" stroke="#7fb2ff" points="3349.41,-603.95 3339.57,-607.88 3349.72,-610.94 3349.41,-603.95"/>
</g>
<!-- Node0x55dd1f786e48&#45;&gt;Node0x55dd1f7847d8 -->
<g id="edge85" class="edge">
<title>Node0x55dd1f786e48&#45;&gt;Node0x55dd1f7847d8</title>
<path fill="none" stroke="#7fb2ff" d="M3459.71,-549.12C3435.98,-527.36 3392.81,-492.29 3348,-478.47 3232.48,-442.83 3192.11,-444.81 3076,-478.47 3038.1,-489.45 3000.66,-515.38 2976.16,-534.97"/>
<polygon fill="#7fb2ff" stroke="#7fb2ff" points="2973.89,-532.3 2968.36,-541.34 2978.32,-537.72 2973.89,-532.3"/>
</g>
<!-- Node0x55dd1f786e48&#45;&gt;Node0x55dd1f785688 -->
<g id="edge88" class="edge">
<title>Node0x55dd1f786e48&#45;&gt;Node0x55dd1f785688</title>
<path fill="none" stroke="#7fb2ff" d="M3414.66,-549.46C3393.51,-543.73 3369.81,-537.57 3348,-532.47 3338.03,-530.14 3327.63,-527.83 3317.2,-525.61"/>
<polygon fill="#7fb2ff" stroke="#7fb2ff" points="3317.72,-522.14 3307.22,-523.5 3316.28,-528.99 3317.72,-522.14"/>
</g>
<!-- Node0x55dd1f786e48&#45;&gt;Node0x55dd1f785a98 -->
<g id="edge86" class="edge">
<title>Node0x55dd1f786e48&#45;&gt;Node0x55dd1f785a98</title>
<path fill="none" stroke="#7fb2ff" d="M3383.71,-583.89C3365.42,-587.06 3346.09,-590.41 3327.26,-593.67"/>
<polygon fill="#7fb2ff" stroke="#7fb2ff" points="3326.43,-590.26 3317.17,-595.42 3327.62,-597.16 3326.43,-590.26"/>
</g>
<!-- Node0x55dd1f786e48&#45;&gt;Node0x55dd1f787258 -->
<g id="edge87" class="edge">
<title>Node0x55dd1f786e48&#45;&gt;Node0x55dd1f787258</title>
<path fill="none" stroke="#7fb2ff" d="M3575.08,-576.03C3583.49,-576.79 3592.11,-577.57 3600.77,-578.36"/>
<polygon fill="#7fb2ff" stroke="#7fb2ff" points="3600.67,-581.86 3610.95,-579.28 3601.3,-574.89 3600.67,-581.86"/>
</g>
</g>
</svg>
