<?xml version="1.0" encoding="UTF-8" standalone="no"?>
<!DOCTYPE svg PUBLIC "-//W3C//DTD SVG 1.1//EN"
 "http://www.w3.org/Graphics/SVG/1.1/DTD/svg11.dtd">
<!-- Generated by graphviz version 2.43.0 (0)
 -->
<!-- Title: bin/llvm&#45;as Pages: 1 -->
<svg width="1148pt" height="401pt"
 viewBox="0.00 0.00 1148.00 401.46" xmlns="http://www.w3.org/2000/svg" xmlns:xlink="http://www.w3.org/1999/xlink">
<g id="graph0" class="graph" transform="scale(1 1) rotate(0) translate(4 397.46)">
<title>bin/llvm&#45;as</title>
<polygon fill="white" stroke="transparent" points="-4,4 -4,-397.46 1144,-397.46 1144,4 -4,4"/>
<text text-anchor="middle" x="570" y="-7.8" font-family="Times,serif" font-size="14.00">bin/llvm&#45;as</text>
<!-- Node0x563494de77a8 -->
<g id="node1" class="node">
<title>Node0x563494de77a8</title>
<polygon fill="none" stroke="black" points="392,-393.46 0,-393.46 0,-357.46 392,-357.46 392,-393.46"/>
<text text-anchor="middle" x="196" y="-371.76" font-family="Times,serif" font-size="14.00">{tools/llvm&#45;as/CMakeFiles/llvm&#45;as.dir/llvm&#45;as.cpp.o}</text>
</g>
<!-- Node0x563494de8068 -->
<g id="node2" class="node">
<title>Node0x563494de8068</title>
<polygon fill="none" stroke="black" points="632,-393.46 428,-393.46 428,-357.46 632,-357.46 632,-393.46"/>
<text text-anchor="middle" x="530" y="-371.76" font-family="Times,serif" font-size="14.00">{lib/libLLVMAsmParser.a}</text>
</g>
<!-- Node0x563494de77a8&#45;&gt;Node0x563494de8068 -->
<g id="edge1" class="edge">
<title>Node0x563494de77a8&#45;&gt;Node0x563494de8068</title>
<path fill="none" stroke="black" d="M392.05,-375.46C400.78,-375.46 409.4,-375.46 417.8,-375.46"/>
<polygon fill="black" stroke="black" points="417.95,-378.96 427.95,-375.46 417.95,-371.96 417.95,-378.96"/>
</g>
<!-- Node0x563494de7b68 -->
<g id="node3" class="node">
<title>Node0x563494de7b68</title>
<polygon fill="#7fb2ff" stroke="black" points="627,-209.46 433,-209.46 433,-173.46 627,-173.46 627,-209.46"/>
<text text-anchor="middle" x="530" y="-187.76" font-family="Times,serif" font-size="14.00">{lib/libLLVMBitWriter.a}</text>
</g>
<!-- Node0x563494de77a8&#45;&gt;Node0x563494de7b68 -->
<g id="edge2" class="edge">
<title>Node0x563494de77a8&#45;&gt;Node0x563494de7b68</title>
<path fill="none" stroke="black" d="M234.34,-357.32C275.25,-336.51 341.73,-299.88 392,-258.46 410.46,-243.25 407.6,-230.95 428,-218.46 430.66,-216.83 433.42,-215.29 436.25,-213.85"/>
<polygon fill="black" stroke="black" points="437.92,-216.94 445.52,-209.55 434.97,-210.59 437.92,-216.94"/>
</g>
<!-- Node0x563494de7488 -->
<g id="node4" class="node">
<title>Node0x563494de7488</title>
<polygon fill="#7fb2ff" stroke="black" points="611,-155.46 449,-155.46 449,-119.46 611,-119.46 611,-155.46"/>
<text text-anchor="middle" x="530" y="-133.76" font-family="Times,serif" font-size="14.00">{lib/libLLVMCore.a}</text>
</g>
<!-- Node0x563494de77a8&#45;&gt;Node0x563494de7488 -->
<g id="edge3" class="edge">
<title>Node0x563494de77a8&#45;&gt;Node0x563494de7488</title>
<path fill="none" stroke="black" d="M244.9,-357.45C288.66,-338.77 352.41,-305.64 392,-258.46 420.75,-224.18 394.76,-194.4 428,-164.46 431.64,-161.18 435.64,-158.29 439.88,-155.74"/>
<polygon fill="black" stroke="black" points="441.67,-158.75 448.88,-150.99 438.41,-152.56 441.67,-158.75"/>
</g>
<!-- Node0x563494de6f88 -->
<g id="node5" class="node">
<title>Node0x563494de6f88</title>
<polygon fill="#7fb2ff" stroke="black" points="623,-263.46 437,-263.46 437,-227.46 623,-227.46 623,-263.46"/>
<text text-anchor="middle" x="530" y="-241.76" font-family="Times,serif" font-size="14.00">{lib/libLLVMSupport.a}</text>
</g>
<!-- Node0x563494de77a8&#45;&gt;Node0x563494de6f88 -->
<g id="edge4" class="edge">
<title>Node0x563494de77a8&#45;&gt;Node0x563494de6f88</title>
<path fill="none" stroke="black" d="M243.16,-357.38C303.41,-333.79 408.75,-292.54 473.35,-267.25"/>
<polygon fill="black" stroke="black" points="474.93,-270.39 482.96,-263.48 472.37,-263.87 474.93,-270.39"/>
</g>
<!-- Node0x563494de8068&#45;&gt;Node0x563494de7488 -->
<g id="edge5" class="edge">
<title>Node0x563494de8068&#45;&gt;Node0x563494de7488</title>
<path fill="none" stroke="black" d="M499.15,-357.3C469.98,-338.15 428.06,-305.01 410,-263.46 394.06,-226.77 388.97,-207.48 410,-173.46 417.02,-162.1 427.56,-154.13 439.55,-148.56"/>
<polygon fill="black" stroke="black" points="441,-151.74 448.95,-144.75 438.37,-145.26 441,-151.74"/>
</g>
<!-- Node0x563494de8068&#45;&gt;Node0x563494de6f88 -->
<g id="edge6" class="edge">
<title>Node0x563494de8068&#45;&gt;Node0x563494de6f88</title>
<path fill="none" stroke="black" d="M530,-357.09C530,-329.3 530,-301.51 530,-273.72"/>
<polygon fill="black" stroke="black" points="533.5,-273.48 530,-263.48 526.5,-273.48 533.5,-273.48"/>
</g>
<!-- Node0x563494de37e8 -->
<g id="node6" class="node">
<title>Node0x563494de37e8</title>
<polygon fill="none" stroke="black" points="895,-393.46 668,-393.46 668,-357.46 895,-357.46 895,-393.46"/>
<text text-anchor="middle" x="781.5" y="-371.76" font-family="Times,serif" font-size="14.00">{lib/libLLVMBinaryFormat.a}</text>
</g>
<!-- Node0x563494de8068&#45;&gt;Node0x563494de37e8 -->
<g id="edge7" class="edge">
<title>Node0x563494de8068&#45;&gt;Node0x563494de37e8</title>
<path fill="none" stroke="black" d="M632.12,-375.46C640.57,-375.46 649.16,-375.46 657.75,-375.46"/>
<polygon fill="black" stroke="black" points="657.81,-378.96 667.81,-375.46 657.81,-371.96 657.81,-378.96"/>
</g>
<!-- Node0x563494de7b68&#45;&gt;Node0x563494de7488 -->
<g id="edge8" class="edge">
<title>Node0x563494de7b68&#45;&gt;Node0x563494de7488</title>
<path fill="none" stroke="#7fb2ff" d="M584.31,-173.25C589.16,-169.94 591.27,-166.63 590.64,-163.32"/>
<polygon fill="#7fb2ff" stroke="#7fb2ff" points="593.3,-161.04 584.21,-155.6 587.92,-165.52 593.3,-161.04"/>
</g>
<!-- Node0x563494de7b68&#45;&gt;Node0x563494de6f88 -->
<g id="edge9" class="edge">
<title>Node0x563494de7b68&#45;&gt;Node0x563494de6f88</title>
<path fill="none" stroke="#7fb2ff" d="M594.92,-209.6C601.26,-213.18 603.75,-216.77 602.39,-220.35"/>
<polygon fill="#7fb2ff" stroke="#7fb2ff" points="599.94,-217.85 595.04,-227.25 604.73,-222.96 599.94,-217.85"/>
</g>
<!-- Node0x563494de9378 -->
<g id="node7" class="node">
<title>Node0x563494de9378</title>
<polygon fill="#7fb2ff" stroke="black" points="875.5,-209.46 687.5,-209.46 687.5,-173.46 875.5,-173.46 875.5,-209.46"/>
<text text-anchor="middle" x="781.5" y="-187.76" font-family="Times,serif" font-size="14.00">{lib/libLLVMAnalysis.a}</text>
</g>
<!-- Node0x563494de7b68&#45;&gt;Node0x563494de9378 -->
<g id="edge10" class="edge">
<title>Node0x563494de7b68&#45;&gt;Node0x563494de9378</title>
<path fill="none" stroke="#7fb2ff" d="M627.11,-191.46C643.48,-191.46 660.54,-191.46 677.09,-191.46"/>
<polygon fill="#7fb2ff" stroke="#7fb2ff" points="677.32,-194.96 687.32,-191.46 677.32,-187.96 677.32,-194.96"/>
</g>
<!-- Node0x563494de8888 -->
<g id="node8" class="node">
<title>Node0x563494de8888</title>
<polygon fill="#7fb2ff" stroke="black" points="869,-155.46 694,-155.46 694,-119.46 869,-119.46 869,-155.46"/>
<text text-anchor="middle" x="781.5" y="-133.76" font-family="Times,serif" font-size="14.00">{lib/libLLVMObject.a}</text>
</g>
<!-- Node0x563494de7b68&#45;&gt;Node0x563494de8888 -->
<g id="edge11" class="edge">
<title>Node0x563494de7b68&#45;&gt;Node0x563494de8888</title>
<path fill="none" stroke="#7fb2ff" d="M614.43,-173.4C637.83,-168.33 663.43,-162.79 687.36,-157.61"/>
<polygon fill="#7fb2ff" stroke="#7fb2ff" points="688.12,-161.03 697.15,-155.5 686.64,-154.19 688.12,-161.03"/>
</g>
<!-- Node0x563494ddfd28 -->
<g id="node9" class="node">
<title>Node0x563494ddfd28</title>
<polygon fill="#7fb2ff" stroke="black" points="858,-101.46 705,-101.46 705,-65.46 858,-65.46 858,-101.46"/>
<text text-anchor="middle" x="781.5" y="-79.76" font-family="Times,serif" font-size="14.00">{lib/libLLVMMC.a}</text>
</g>
<!-- Node0x563494de7b68&#45;&gt;Node0x563494ddfd28 -->
<g id="edge12" class="edge">
<title>Node0x563494de7b68&#45;&gt;Node0x563494ddfd28</title>
<path fill="none" stroke="#7fb2ff" d="M616.82,-173.39C622.16,-170.8 627.28,-167.84 632,-164.46 655.44,-147.65 644.34,-126.96 668,-110.46 676.22,-104.73 685.5,-100.2 695.13,-96.63"/>
<polygon fill="#7fb2ff" stroke="#7fb2ff" points="696.47,-99.87 704.84,-93.37 694.24,-93.24 696.47,-99.87"/>
</g>
<!-- Node0x563494de7488&#45;&gt;Node0x563494de7b68 -->
<g id="edge15" class="edge">
<title>Node0x563494de7488&#45;&gt;Node0x563494de7b68</title>
<path fill="none" stroke="#7fb2ff" d="M475.79,-155.6C471.04,-158.82 468.88,-162.03 469.3,-165.25"/>
<polygon fill="#7fb2ff" stroke="#7fb2ff" points="466.71,-167.62 475.69,-173.25 472.18,-163.25 466.71,-167.62"/>
</g>
<!-- Node0x563494de7488&#45;&gt;Node0x563494de6f88 -->
<g id="edge13" class="edge">
<title>Node0x563494de7488&#45;&gt;Node0x563494de6f88</title>
<path fill="none" stroke="#7fb2ff" d="M448.92,-144.97C435.54,-150.16 423.58,-158.19 416,-170.46 406.19,-186.34 406.19,-196.58 416,-212.46 419.33,-217.85 423.51,-222.42 428.28,-226.29"/>
<polygon fill="#7fb2ff" stroke="#7fb2ff" points="426.6,-229.38 436.82,-232.16 430.56,-223.61 426.6,-229.38"/>
</g>
<!-- Node0x563494de7488&#45;&gt;Node0x563494de37e8 -->
<g id="edge14" class="edge">
<title>Node0x563494de7488&#45;&gt;Node0x563494de37e8</title>
<path fill="none" stroke="black" d="M611.12,-150.6C618.76,-154.2 625.92,-158.73 632,-164.46 668.84,-199.14 640.46,-230.01 668,-272.46 688.46,-303.99 720.82,-332.22 745.59,-351.12"/>
<polygon fill="black" stroke="black" points="743.57,-353.98 753.68,-357.16 747.76,-348.37 743.57,-353.98"/>
</g>
<!-- Node0x563494de1538 -->
<g id="node10" class="node">
<title>Node0x563494de1538</title>
<polygon fill="#7fb2ff" stroke="black" points="877,-263.46 686,-263.46 686,-227.46 877,-227.46 877,-263.46"/>
<text text-anchor="middle" x="781.5" y="-241.76" font-family="Times,serif" font-size="14.00">{lib/libLLVMRemarks.a}</text>
</g>
<!-- Node0x563494de7488&#45;&gt;Node0x563494de1538 -->
<g id="edge16" class="edge">
<title>Node0x563494de7488&#45;&gt;Node0x563494de1538</title>
<path fill="none" stroke="#7fb2ff" d="M611.24,-152.98C618.6,-156.13 625.66,-159.91 632,-164.46 655.44,-181.26 644.34,-201.95 668,-218.46 670.76,-220.38 673.64,-222.17 676.61,-223.83"/>
<polygon fill="#7fb2ff" stroke="#7fb2ff" points="675.28,-227.08 685.78,-228.45 678.42,-220.83 675.28,-227.08"/>
</g>
<!-- Node0x563494de6f88&#45;&gt;Node0x563494de7b68 -->
<g id="edge18" class="edge">
<title>Node0x563494de6f88&#45;&gt;Node0x563494de7b68</title>
<path fill="none" stroke="#7fb2ff" d="M464.96,-227.25C458.67,-223.66 456.23,-220.08 457.64,-216.49"/>
<polygon fill="#7fb2ff" stroke="#7fb2ff" points="460.12,-218.96 465.08,-209.6 455.37,-213.82 460.12,-218.96"/>
</g>
<!-- Node0x563494de6f88&#45;&gt;Node0x563494de7488 -->
<g id="edge17" class="edge">
<title>Node0x563494de6f88&#45;&gt;Node0x563494de7488</title>
<path fill="none" stroke="#7fb2ff" d="M436.69,-233.59C423.43,-227.59 411.7,-218.92 404,-206.46 396.99,-195.12 396.99,-187.8 404,-176.46 412.2,-163.19 424.95,-154.23 439.25,-148.21"/>
<polygon fill="#7fb2ff" stroke="#7fb2ff" points="440.67,-151.42 448.84,-144.67 438.24,-144.85 440.67,-151.42"/>
</g>
<!-- Node0x563494de9378&#45;&gt;Node0x563494de7488 -->
<g id="edge19" class="edge">
<title>Node0x563494de9378&#45;&gt;Node0x563494de7488</title>
<path fill="none" stroke="#7fb2ff" d="M697.33,-173.46C672.86,-168.16 645.99,-162.34 621.11,-156.96"/>
<polygon fill="#7fb2ff" stroke="#7fb2ff" points="621.83,-153.54 611.32,-154.84 620.35,-160.38 621.83,-153.54"/>
</g>
<!-- Node0x563494de9378&#45;&gt;Node0x563494de6f88 -->
<g id="edge20" class="edge">
<title>Node0x563494de9378&#45;&gt;Node0x563494de6f88</title>
<path fill="none" stroke="#7fb2ff" d="M697.15,-209.5C673.75,-214.56 648.15,-220.1 624.22,-225.28"/>
<polygon fill="#7fb2ff" stroke="#7fb2ff" points="623.46,-221.86 614.43,-227.4 624.94,-228.71 623.46,-221.86"/>
</g>
<!-- Node0x563494de9378&#45;&gt;Node0x563494de8888 -->
<g id="edge21" class="edge">
<title>Node0x563494de9378&#45;&gt;Node0x563494de8888</title>
<path fill="none" stroke="#7fb2ff" d="M781.5,-173.25C781.5,-170.77 781.5,-168.28 781.5,-165.8"/>
<polygon fill="#7fb2ff" stroke="#7fb2ff" points="785,-165.6 781.5,-155.6 778,-165.6 785,-165.6"/>
</g>
<!-- Node0x563494de8f18 -->
<g id="node11" class="node">
<title>Node0x563494de8f18</title>
<polygon fill="#7fb2ff" stroke="black" points="1140,-209.46 931,-209.46 931,-173.46 1140,-173.46 1140,-209.46"/>
<text text-anchor="middle" x="1035.5" y="-187.76" font-family="Times,serif" font-size="14.00">{lib/libLLVMProfileData.a}</text>
</g>
<!-- Node0x563494de9378&#45;&gt;Node0x563494de8f18 -->
<g id="edge22" class="edge">
<title>Node0x563494de9378&#45;&gt;Node0x563494de8f18</title>
<path fill="none" stroke="#7fb2ff" d="M875.62,-191.46C890.2,-191.46 905.41,-191.46 920.4,-191.46"/>
<polygon fill="#7fb2ff" stroke="#7fb2ff" points="920.73,-194.96 930.73,-191.46 920.73,-187.96 920.73,-194.96"/>
</g>
<!-- Node0x563494de8888&#45;&gt;Node0x563494de7488 -->
<g id="edge23" class="edge">
<title>Node0x563494de8888&#45;&gt;Node0x563494de7488</title>
<path fill="none" stroke="#7fb2ff" d="M693.87,-137.46C670.42,-137.46 644.98,-137.46 621.33,-137.46"/>
<polygon fill="#7fb2ff" stroke="#7fb2ff" points="621.32,-133.96 611.32,-137.46 621.32,-140.96 621.32,-133.96"/>
</g>
<!-- Node0x563494de8888&#45;&gt;Node0x563494de6f88 -->
<g id="edge24" class="edge">
<title>Node0x563494de8888&#45;&gt;Node0x563494de6f88</title>
<path fill="none" stroke="#7fb2ff" d="M693.75,-151.15C684.62,-154.64 675.82,-159 668,-164.46 644.34,-180.96 655.44,-201.65 632,-218.46 630.08,-219.83 628.1,-221.14 626.06,-222.38"/>
<polygon fill="#7fb2ff" stroke="#7fb2ff" points="623.94,-219.55 616.82,-227.39 627.28,-225.7 623.94,-219.55"/>
</g>
<!-- Node0x563494de8888&#45;&gt;Node0x563494ddfd28 -->
<g id="edge25" class="edge">
<title>Node0x563494de8888&#45;&gt;Node0x563494ddfd28</title>
<path fill="none" stroke="#7fb2ff" d="M781.5,-119.25C781.5,-116.77 781.5,-114.28 781.5,-111.8"/>
<polygon fill="#7fb2ff" stroke="#7fb2ff" points="785,-111.6 781.5,-101.6 778,-111.6 785,-111.6"/>
</g>
<!-- Node0x563494ddf7d8 -->
<g id="node12" class="node">
<title>Node0x563494ddf7d8</title>
<polygon fill="#7fb2ff" stroke="black" points="1134.5,-155.46 936.5,-155.46 936.5,-119.46 1134.5,-119.46 1134.5,-155.46"/>
<text text-anchor="middle" x="1035.5" y="-133.76" font-family="Times,serif" font-size="14.00">{lib/libLLVMMCParser.a}</text>
</g>
<!-- Node0x563494de8888&#45;&gt;Node0x563494ddf7d8 -->
<g id="edge26" class="edge">
<title>Node0x563494de8888&#45;&gt;Node0x563494ddf7d8</title>
<path fill="none" stroke="#7fb2ff" d="M869.22,-137.46C887.57,-137.46 907.15,-137.46 926.17,-137.46"/>
<polygon fill="#7fb2ff" stroke="#7fb2ff" points="926.37,-140.96 936.37,-137.46 926.37,-133.96 926.37,-140.96"/>
</g>
<!-- Node0x563494ddfd28&#45;&gt;Node0x563494de7488 -->
<g id="edge29" class="edge">
<title>Node0x563494ddfd28&#45;&gt;Node0x563494de7488</title>
<path fill="none" stroke="#7fb2ff" d="M705,-99.8C678.63,-105.51 648.76,-111.97 621.31,-117.91"/>
<polygon fill="#7fb2ff" stroke="#7fb2ff" points="620.35,-114.54 611.32,-120.07 621.83,-121.38 620.35,-114.54"/>
</g>
<!-- Node0x563494ddfd28&#45;&gt;Node0x563494de6f88 -->
<g id="edge27" class="edge">
<title>Node0x563494ddfd28&#45;&gt;Node0x563494de6f88</title>
<path fill="none" stroke="#7fb2ff" d="M704.75,-90.54C691.28,-94.72 678.29,-101.02 668,-110.46 630.71,-144.66 668.84,-183.78 632,-218.46 630.88,-219.51 629.73,-220.52 628.55,-221.49"/>
<polygon fill="#7fb2ff" stroke="#7fb2ff" points="626.42,-218.71 620.3,-227.36 630.48,-224.41 626.42,-218.71"/>
</g>
<!-- Node0x563494ddfd28&#45;&gt;Node0x563494de37e8 -->
<g id="edge28" class="edge">
<title>Node0x563494ddfd28&#45;&gt;Node0x563494de37e8</title>
<path fill="none" stroke="black" d="M704.91,-85.57C682.98,-90.44 661.82,-100.33 650,-119.46 637.44,-139.78 637.44,-314.14 650,-334.46 654.11,-341.1 659.3,-346.72 665.25,-351.46"/>
<polygon fill="black" stroke="black" points="663.58,-354.56 673.79,-357.4 667.58,-348.81 663.58,-354.56"/>
</g>
<!-- Node0x563494de1538&#45;&gt;Node0x563494de7b68 -->
<g id="edge31" class="edge">
<title>Node0x563494de1538&#45;&gt;Node0x563494de7b68</title>
<path fill="none" stroke="#7fb2ff" d="M697.15,-227.42C673.75,-222.35 648.15,-216.81 624.22,-211.63"/>
<polygon fill="#7fb2ff" stroke="#7fb2ff" points="624.94,-208.21 614.43,-209.51 623.46,-215.05 624.94,-208.21"/>
</g>
<!-- Node0x563494de1538&#45;&gt;Node0x563494de6f88 -->
<g id="edge30" class="edge">
<title>Node0x563494de1538&#45;&gt;Node0x563494de6f88</title>
<path fill="none" stroke="#7fb2ff" d="M685.76,-245.46C668.62,-245.46 650.68,-245.46 633.33,-245.46"/>
<polygon fill="#7fb2ff" stroke="#7fb2ff" points="633.2,-241.96 623.2,-245.46 633.2,-248.96 633.2,-241.96"/>
</g>
<!-- Node0x563494de8f18&#45;&gt;Node0x563494de7488 -->
<g id="edge32" class="edge">
<title>Node0x563494de8f18&#45;&gt;Node0x563494de7488</title>
<path fill="none" stroke="#7fb2ff" d="M942.52,-173.22C938.4,-170.66 934.53,-167.76 931,-164.46 894.05,-129.89 936.05,-86.04 895,-56.46 813.15,2.53 765.31,-29.84 668,-56.46 627.84,-67.44 587.49,-93.56 561.09,-113.19"/>
<polygon fill="#7fb2ff" stroke="#7fb2ff" points="558.87,-110.48 553.02,-119.31 563.11,-116.05 558.87,-110.48"/>
</g>
<!-- Node0x563494de8f18&#45;&gt;Node0x563494de6f88 -->
<g id="edge33" class="edge">
<title>Node0x563494de8f18&#45;&gt;Node0x563494de6f88</title>
<path fill="none" stroke="#7fb2ff" d="M1019.71,-209.73C996.5,-236.78 948.62,-286.34 895,-305.46 799.97,-339.35 766.75,-326.13 668,-305.46 633.79,-298.29 597.67,-282.07 571.11,-268.3"/>
<polygon fill="#7fb2ff" stroke="#7fb2ff" points="572.61,-265.13 562.14,-263.55 569.34,-271.32 572.61,-265.13"/>
</g>
<!-- Node0x563494ddf7d8&#45;&gt;Node0x563494de6f88 -->
<g id="edge34" class="edge">
<title>Node0x563494ddf7d8&#45;&gt;Node0x563494de6f88</title>
<path fill="none" stroke="#7fb2ff" d="M942.52,-155.69C938.4,-158.25 934.53,-161.16 931,-164.46 894.05,-199.02 936.05,-242.87 895,-272.46 853.03,-302.71 716.49,-283.38 623.11,-265.41"/>
<polygon fill="#7fb2ff" stroke="#7fb2ff" points="623.57,-261.94 613.08,-263.46 622.23,-268.81 623.57,-261.94"/>
</g>
<!-- Node0x563494ddf7d8&#45;&gt;Node0x563494ddfd28 -->
<g id="edge35" class="edge">
<title>Node0x563494ddf7d8&#45;&gt;Node0x563494ddfd28</title>
<path fill="none" stroke="#7fb2ff" d="M950.13,-119.38C923.73,-113.72 894.59,-107.48 868.12,-101.8"/>
<polygon fill="#7fb2ff" stroke="#7fb2ff" points="868.62,-98.33 858.11,-99.66 867.15,-105.18 868.62,-98.33"/>
</g>
<!-- Node0x563494de83d8 -->
<g id="node13" class="node">
<title>Node0x563494de83d8</title>
<polygon fill="none" stroke="black" points="295.5,-168.46 96.5,-168.46 96.5,-132.46 295.5,-132.46 295.5,-168.46"/>
<text text-anchor="middle" x="196" y="-146.76" font-family="Times,serif" font-size="14.00">{lib/libLLVMBitReader.a}</text>
</g>
<!-- Node0x563494de83d8&#45;&gt;Node0x563494de7488 -->
<g id="edge36" class="edge">
<title>Node0x563494de83d8&#45;&gt;Node0x563494de7488</title>
<path fill="none" stroke="black" d="M295.71,-146.59C341.02,-144.82 394.38,-142.73 438.62,-141"/>
<polygon fill="black" stroke="black" points="438.93,-144.49 448.79,-140.6 438.66,-137.49 438.93,-144.49"/>
</g>
<!-- Node0x563494de83d8&#45;&gt;Node0x563494de6f88 -->
<g id="edge37" class="edge">
<title>Node0x563494de83d8&#45;&gt;Node0x563494de6f88</title>
<path fill="none" stroke="black" d="M268.84,-168.5C305.89,-178.27 351.66,-191.07 392,-204.46 408.29,-209.87 411.68,-213.12 428,-218.46 434.37,-220.54 441.01,-222.59 447.71,-224.56"/>
<polygon fill="black" stroke="black" points="446.95,-227.99 457.53,-227.4 448.89,-221.26 446.95,-227.99"/>
</g>
<!-- Node0x563494de1a88 -->
<g id="node14" class="node">
<title>Node0x563494de1a88</title>
<polygon fill="none" stroke="black" points="320.5,-249.46 71.5,-249.46 71.5,-213.46 320.5,-213.46 320.5,-249.46"/>
<text text-anchor="middle" x="196" y="-227.76" font-family="Times,serif" font-size="14.00">{lib/libLLVMBitstreamReader.a}</text>
</g>
<!-- Node0x563494de1a88&#45;&gt;Node0x563494de7b68 -->
<g id="edge38" class="edge">
<title>Node0x563494de1a88&#45;&gt;Node0x563494de7b68</title>
<path fill="none" stroke="black" d="M320.62,-216.56C354.21,-212.52 390.27,-208.17 422.8,-204.25"/>
<polygon fill="black" stroke="black" points="423.26,-207.72 432.77,-203.05 422.42,-200.77 423.26,-207.72"/>
</g>
<!-- Node0x563494de1a88&#45;&gt;Node0x563494de6f88 -->
<g id="edge39" class="edge">
<title>Node0x563494de1a88&#45;&gt;Node0x563494de6f88</title>
<path fill="none" stroke="black" d="M320.62,-236.67C355.54,-238.14 393.14,-239.73 426.66,-241.14"/>
<polygon fill="black" stroke="black" points="426.79,-244.65 436.93,-241.57 427.08,-237.66 426.79,-244.65"/>
</g>
</g>
</svg>
