<?xml version="1.0" encoding="UTF-8" standalone="no"?>
<!DOCTYPE svg PUBLIC "-//W3C//DTD SVG 1.1//EN"
 "http://www.w3.org/Graphics/SVG/1.1/DTD/svg11.dtd">
<!-- Generated by graphviz version 2.43.0 (0)
 -->
<!-- Title: bin/llvm&#45;dwp_lib/libLLVMGlobalISel.a Pages: 1 -->
<svg width="2535pt" height="874pt"
 viewBox="0.00 0.00 2535.00 874.14" xmlns="http://www.w3.org/2000/svg" xmlns:xlink="http://www.w3.org/1999/xlink">
<g id="graph0" class="graph" transform="scale(1 1) rotate(0) translate(4 870.14)">
<title>bin/llvm&#45;dwp_lib/libLLVMGlobalISel.a</title>
<polygon fill="white" stroke="transparent" points="-4,4 -4,-870.14 2531,-870.14 2531,4 -4,4"/>
<text text-anchor="middle" x="1263.5" y="-7.8" font-family="Times,serif" font-size="14.00">bin/llvm&#45;dwp_lib/libLLVMGlobalISel.a</text>
<!-- Node0x563a15b77628 -->
<g id="node1" class="node">
<title>Node0x563a15b77628</title>
<polygon fill="none" stroke="black" points="1210.5,-346.14 860.5,-346.14 860.5,-310.14 1210.5,-310.14 1210.5,-346.14"/>
<text text-anchor="middle" x="1035.5" y="-324.44" font-family="Times,serif" font-size="14.00">{lib/libLLVMGlobalISel.a(CallLowering.cpp.o)}</text>
</g>
<!-- Node0x563a15b69cf8 -->
<g id="node2" class="node">
<title>Node0x563a15b69cf8</title>
<polygon fill="none" stroke="black" points="1670.5,-545.14 1287.5,-545.14 1287.5,-509.14 1670.5,-509.14 1670.5,-545.14"/>
<text text-anchor="middle" x="1479" y="-523.44" font-family="Times,serif" font-size="14.00">{lib/libLLVMGlobalISel.a(MachineIRBuilder.cpp.o)}</text>
</g>
<!-- Node0x563a15b77628&#45;&gt;Node0x563a15b69cf8 -->
<g id="edge1" class="edge">
<title>Node0x563a15b77628&#45;&gt;Node0x563a15b69cf8</title>
<path fill="none" stroke="black" d="M1093.35,-346.17C1132.8,-359.24 1186.28,-378.09 1232,-398.14 1306.68,-430.9 1390.04,-476.67 1438.02,-503.97"/>
<polygon fill="black" stroke="black" points="1436.43,-507.09 1446.85,-509.01 1439.9,-501.01 1436.43,-507.09"/>
</g>
<!-- Node0x563a15b781b8 -->
<g id="node3" class="node">
<title>Node0x563a15b781b8</title>
<polygon fill="none" stroke="black" points="1624,-369.14 1334,-369.14 1334,-333.14 1624,-333.14 1624,-369.14"/>
<text text-anchor="middle" x="1479" y="-347.44" font-family="Times,serif" font-size="14.00">{lib/libLLVMGlobalISel.a(Utils.cpp.o)}</text>
</g>
<!-- Node0x563a15b77628&#45;&gt;Node0x563a15b781b8 -->
<g id="edge2" class="edge">
<title>Node0x563a15b77628&#45;&gt;Node0x563a15b781b8</title>
<path fill="none" stroke="black" d="M1210.68,-337.22C1247.93,-339.16 1287.04,-341.2 1323.49,-343.09"/>
<polygon fill="black" stroke="black" points="1323.53,-346.6 1333.7,-343.63 1323.9,-339.61 1323.53,-346.6"/>
</g>
<!-- Node0x563a15b69cf8&#45;&gt;Node0x563a15b781b8 -->
<g id="edge3" class="edge">
<title>Node0x563a15b69cf8&#45;&gt;Node0x563a15b781b8</title>
<path fill="none" stroke="black" d="M1479,-508.96C1479,-465.79 1479,-422.62 1479,-379.45"/>
<polygon fill="black" stroke="black" points="1482.5,-379.36 1479,-369.36 1475.5,-379.36 1482.5,-379.36"/>
</g>
<!-- Node0x563a15b6b238 -->
<g id="node4" class="node">
<title>Node0x563a15b6b238</title>
<polygon fill="none" stroke="black" points="2139,-369.14 1726,-369.14 1726,-333.14 2139,-333.14 2139,-369.14"/>
<text text-anchor="middle" x="1932.5" y="-347.44" font-family="Times,serif" font-size="14.00">{lib/libLLVMGlobalISel.a(GISelChangeObserver.cpp.o)}</text>
</g>
<!-- Node0x563a15b781b8&#45;&gt;Node0x563a15b6b238 -->
<g id="edge4" class="edge">
<title>Node0x563a15b781b8&#45;&gt;Node0x563a15b6b238</title>
<path fill="none" stroke="black" d="M1624.1,-351.14C1653.32,-351.14 1684.66,-351.14 1715.74,-351.14"/>
<polygon fill="black" stroke="black" points="1715.82,-354.64 1725.82,-351.14 1715.82,-347.64 1715.82,-354.64"/>
</g>
<!-- Node0x563a15b779e8 -->
<g id="node5" class="node">
<title>Node0x563a15b779e8</title>
<polygon fill="none" stroke="black" points="2122.5,-553.14 1742.5,-553.14 1742.5,-517.14 2122.5,-517.14 2122.5,-553.14"/>
<text text-anchor="middle" x="1932.5" y="-531.44" font-family="Times,serif" font-size="14.00">{lib/libLLVMGlobalISel.a(RegisterBankInfo.cpp.o)}</text>
</g>
<!-- Node0x563a15b781b8&#45;&gt;Node0x563a15b779e8 -->
<g id="edge5" class="edge">
<title>Node0x563a15b781b8&#45;&gt;Node0x563a15b779e8</title>
<path fill="none" stroke="black" d="M1524.53,-369.29C1608.03,-403.32 1787.8,-476.58 1877.83,-513.27"/>
<polygon fill="black" stroke="black" points="1876.72,-516.6 1887.31,-517.13 1879.37,-510.12 1876.72,-516.6"/>
</g>
<!-- Node0x563a15b6af18 -->
<g id="node10" class="node">
<title>Node0x563a15b6af18</title>
<polygon fill="none" stroke="black" points="2527,-553.14 2175,-553.14 2175,-517.14 2527,-517.14 2527,-553.14"/>
<text text-anchor="middle" x="2351" y="-531.44" font-family="Times,serif" font-size="14.00">{lib/libLLVMGlobalISel.a(RegisterBank.cpp.o)}</text>
</g>
<!-- Node0x563a15b779e8&#45;&gt;Node0x563a15b6af18 -->
<g id="edge7" class="edge">
<title>Node0x563a15b779e8&#45;&gt;Node0x563a15b6af18</title>
<path fill="none" stroke="black" d="M2122.56,-535.14C2136.57,-535.14 2150.71,-535.14 2164.7,-535.14"/>
<polygon fill="black" stroke="black" points="2164.87,-538.64 2174.87,-535.14 2164.87,-531.64 2164.87,-538.64"/>
</g>
<!-- Node0x563a15b76db8 -->
<g id="node6" class="node">
<title>Node0x563a15b76db8</title>
<polygon fill="none" stroke="black" points="389,-442.14 0,-442.14 0,-406.14 389,-406.14 389,-442.14"/>
<text text-anchor="middle" x="194.5" y="-420.44" font-family="Times,serif" font-size="14.00">{lib/libLLVMGlobalISel.a(LegalityPredicates.cpp.o)}</text>
</g>
<!-- Node0x563a15b79ec8 -->
<g id="node7" class="node">
<title>Node0x563a15b79ec8</title>
<polygon fill="none" stroke="black" points="388,-496.14 1,-496.14 1,-460.14 388,-460.14 388,-496.14"/>
<text text-anchor="middle" x="194.5" y="-474.44" font-family="Times,serif" font-size="14.00">{lib/libLLVMGlobalISel.a(LegalizeMutations.cpp.o)}</text>
</g>
<!-- Node0x563a15b78ca8 -->
<g id="node8" class="node">
<title>Node0x563a15b78ca8</title>
<polygon fill="none" stroke="black" points="1653.5,-805.14 1304.5,-805.14 1304.5,-769.14 1653.5,-769.14 1653.5,-805.14"/>
<text text-anchor="middle" x="1479" y="-783.44" font-family="Times,serif" font-size="14.00">{lib/libLLVMGlobalISel.a(LegalizerInfo.cpp.o)}</text>
</g>
<!-- Node0x563a15b79478 -->
<g id="node9" class="node">
<title>Node0x563a15b79478</title>
<polygon fill="none" stroke="black" points="2132,-805.14 1733,-805.14 1733,-769.14 2132,-769.14 2132,-805.14"/>
<text text-anchor="middle" x="1932.5" y="-783.44" font-family="Times,serif" font-size="14.00">{lib/libLLVMGlobalISel.a(LegacyLegalizerInfo.cpp.o)}</text>
</g>
<!-- Node0x563a15b78ca8&#45;&gt;Node0x563a15b79478 -->
<g id="edge6" class="edge">
<title>Node0x563a15b78ca8&#45;&gt;Node0x563a15b79478</title>
<path fill="none" stroke="black" d="M1653.59,-787.14C1676.22,-787.14 1699.58,-787.14 1722.71,-787.14"/>
<polygon fill="black" stroke="black" points="1722.96,-790.64 1732.96,-787.14 1722.96,-783.64 1722.96,-790.64"/>
</g>
<!-- Node0x563a15b77038 -->
<g id="node11" class="node">
<title>Node0x563a15b77038</title>
<polygon fill="none" stroke="black" points="1231.5,-162.14 839.5,-162.14 839.5,-126.14 1231.5,-126.14 1231.5,-162.14"/>
<text text-anchor="middle" x="1035.5" y="-140.44" font-family="Times,serif" font-size="14.00">{lib/libLLVMGlobalISel.a(InstructionSelector.cpp.o)}</text>
</g>
<!-- Node0x563a15b77038&#45;&gt;Node0x563a15b781b8 -->
<g id="edge8" class="edge">
<title>Node0x563a15b77038&#45;&gt;Node0x563a15b781b8</title>
<path fill="none" stroke="black" d="M1189.42,-162.19C1204.06,-165.99 1218.48,-170.58 1232,-176.14 1321.21,-212.84 1409.29,-287.22 1451.76,-326.14"/>
<polygon fill="black" stroke="black" points="1449.44,-328.75 1459.15,-332.97 1454.19,-323.61 1449.44,-328.75"/>
</g>
<!-- Node0x563a15b787f8 -->
<g id="node12" class="node">
<title>Node0x563a15b787f8</title>
<polygon fill="none" stroke="black" points="1192.5,-530.14 878.5,-530.14 878.5,-494.14 1192.5,-494.14 1192.5,-530.14"/>
<text text-anchor="middle" x="1035.5" y="-508.44" font-family="Times,serif" font-size="14.00">{lib/libLLVMGlobalISel.a(CSEInfo.cpp.o)}</text>
</g>
<!-- Node0x563a15b77218 -->
<g id="node13" class="node">
<title>Node0x563a15b77218</title>
<polygon fill="none" stroke="black" points="359,-388.14 30,-388.14 30,-352.14 359,-352.14 359,-388.14"/>
<text text-anchor="middle" x="194.5" y="-366.44" font-family="Times,serif" font-size="14.00">{lib/libLLVMGlobalISel.a(GlobalISel.cpp.o)}</text>
</g>
<!-- Node0x563a15b76a48 -->
<g id="node14" class="node">
<title>Node0x563a15b76a48</title>
<polygon fill="none" stroke="black" points="786,-388.14 442,-388.14 442,-352.14 786,-352.14 786,-388.14"/>
<text text-anchor="middle" x="614" y="-366.44" font-family="Times,serif" font-size="14.00">{lib/libLLVMGlobalISel.a(IRTranslator.cpp.o)}</text>
</g>
<!-- Node0x563a15b77218&#45;&gt;Node0x563a15b76a48 -->
<g id="edge9" class="edge">
<title>Node0x563a15b77218&#45;&gt;Node0x563a15b76a48</title>
<path fill="none" stroke="black" d="M359.01,-370.14C382.81,-370.14 407.43,-370.14 431.56,-370.14"/>
<polygon fill="black" stroke="black" points="431.87,-373.64 441.87,-370.14 431.87,-366.64 431.87,-373.64"/>
</g>
<!-- Node0x563a15b77fd8 -->
<g id="node15" class="node">
<title>Node0x563a15b77fd8</title>
<polygon fill="none" stroke="black" points="803,-254.14 425,-254.14 425,-218.14 803,-218.14 803,-254.14"/>
<text text-anchor="middle" x="614" y="-232.44" font-family="Times,serif" font-size="14.00">{lib/libLLVMGlobalISel.a(InstructionSelect.cpp.o)}</text>
</g>
<!-- Node0x563a15b77218&#45;&gt;Node0x563a15b77fd8 -->
<g id="edge10" class="edge">
<title>Node0x563a15b77218&#45;&gt;Node0x563a15b77fd8</title>
<path fill="none" stroke="black" d="M251.81,-352.07C328.48,-327.46 465.5,-283.49 546.94,-257.35"/>
<polygon fill="black" stroke="black" points="548.14,-260.64 556.59,-254.25 546,-253.97 548.14,-260.64"/>
</g>
<!-- Node0x563a15b7b098 -->
<g id="node16" class="node">
<title>Node0x563a15b7b098</title>
<polygon fill="none" stroke="black" points="774,-725.14 454,-725.14 454,-689.14 774,-689.14 774,-725.14"/>
<text text-anchor="middle" x="614" y="-703.44" font-family="Times,serif" font-size="14.00">{lib/libLLVMGlobalISel.a(Legalizer.cpp.o)}</text>
</g>
<!-- Node0x563a15b77218&#45;&gt;Node0x563a15b7b098 -->
<g id="edge11" class="edge">
<title>Node0x563a15b77218&#45;&gt;Node0x563a15b7b098</title>
<path fill="none" stroke="black" d="M359.34,-376.68C370.24,-381.86 380.31,-388.56 389,-397.14 464.5,-471.69 358.81,-550.22 425,-633.14 444.94,-658.13 474.51,-674.7 504.33,-685.69"/>
<polygon fill="black" stroke="black" points="503.41,-689.08 514,-689.06 505.71,-682.47 503.41,-689.08"/>
</g>
<!-- Node0x563a15b72a88 -->
<g id="node17" class="node">
<title>Node0x563a15b72a88</title>
<polygon fill="none" stroke="black" points="773,-139.14 455,-139.14 455,-103.14 773,-103.14 773,-139.14"/>
<text text-anchor="middle" x="614" y="-117.44" font-family="Times,serif" font-size="14.00">{lib/libLLVMGlobalISel.a(Localizer.cpp.o)}</text>
</g>
<!-- Node0x563a15b77218&#45;&gt;Node0x563a15b72a88 -->
<g id="edge12" class="edge">
<title>Node0x563a15b77218&#45;&gt;Node0x563a15b72a88</title>
<path fill="none" stroke="black" d="M218.39,-352.05C258.7,-320.67 345.6,-255.11 425,-209.14 468.85,-183.76 521.23,-159.72 559.56,-143.2"/>
<polygon fill="black" stroke="black" points="561.17,-146.32 568.98,-139.16 558.41,-139.88 561.17,-146.32"/>
</g>
<!-- Node0x563a15b6be18 -->
<g id="node18" class="node">
<title>Node0x563a15b6be18</title>
<polygon fill="none" stroke="black" points="1217,-660.14 854,-660.14 854,-624.14 1217,-624.14 1217,-660.14"/>
<text text-anchor="middle" x="1035.5" y="-638.44" font-family="Times,serif" font-size="14.00">{lib/libLLVMGlobalISel.a(RegBankSelect.cpp.o)}</text>
</g>
<!-- Node0x563a15b77218&#45;&gt;Node0x563a15b6be18 -->
<g id="edge13" class="edge">
<title>Node0x563a15b77218&#45;&gt;Node0x563a15b6be18</title>
<path fill="none" stroke="black" d="M359.37,-378.06C370.12,-382.96 380.16,-389.22 389,-397.14 437.49,-440.59 377.14,-495 425,-539.14 538.52,-643.84 717,-663.38 851.54,-660.41"/>
<polygon fill="black" stroke="black" points="851.65,-663.91 861.56,-660.15 851.47,-656.92 851.65,-663.91"/>
</g>
<!-- Node0x563a15b76a48&#45;&gt;Node0x563a15b77628 -->
<g id="edge15" class="edge">
<title>Node0x563a15b76a48&#45;&gt;Node0x563a15b77628</title>
<path fill="none" stroke="black" d="M786.23,-353C807.35,-350.89 829.02,-348.72 850.32,-346.58"/>
<polygon fill="black" stroke="black" points="850.81,-350.05 860.41,-345.57 850.12,-343.09 850.81,-350.05"/>
</g>
<!-- Node0x563a15b76a48&#45;&gt;Node0x563a15b69cf8 -->
<g id="edge18" class="edge">
<title>Node0x563a15b76a48&#45;&gt;Node0x563a15b69cf8</title>
<path fill="none" stroke="black" d="M786.32,-374.54C911.31,-380.77 1084.02,-395.67 1232,-431.14 1304.1,-448.43 1383.27,-482.19 1431.81,-504.71"/>
<polygon fill="black" stroke="black" points="1430.56,-507.98 1441.1,-509.05 1433.53,-501.64 1430.56,-507.98"/>
</g>
<!-- Node0x563a15b76a48&#45;&gt;Node0x563a15b781b8 -->
<g id="edge19" class="edge">
<title>Node0x563a15b76a48&#45;&gt;Node0x563a15b781b8</title>
<path fill="none" stroke="black" d="M659.55,-352.08C704.11,-335.06 775.02,-310.77 839,-301.14 1011.72,-275.14 1058.21,-283.66 1232,-301.14 1288.17,-306.79 1350.48,-319.53 1398.34,-330.73"/>
<polygon fill="black" stroke="black" points="1397.78,-334.2 1408.32,-333.09 1399.4,-327.38 1397.78,-334.2"/>
</g>
<!-- Node0x563a15b76a48&#45;&gt;Node0x563a15b6b238 -->
<g id="edge16" class="edge">
<title>Node0x563a15b76a48&#45;&gt;Node0x563a15b6b238</title>
<path fill="none" stroke="black" d="M670.98,-352.08C713.43,-335.53 769.92,-306.87 803,-263.14 843.32,-209.84 786.39,-158.36 839,-117.14 1179.26,149.41 1754.93,-225.38 1898.37,-326.96"/>
<polygon fill="black" stroke="black" points="1896.64,-330.02 1906.81,-332.97 1900.7,-324.32 1896.64,-330.02"/>
</g>
<!-- Node0x563a15b76a48&#45;&gt;Node0x563a15b787f8 -->
<g id="edge14" class="edge">
<title>Node0x563a15b76a48&#45;&gt;Node0x563a15b787f8</title>
<path fill="none" stroke="black" d="M642.66,-388.27C683.71,-414.23 763.96,-461.46 839,-485.14 848.5,-488.14 858.36,-490.81 868.37,-493.18"/>
<polygon fill="black" stroke="black" points="867.91,-496.66 878.44,-495.45 869.45,-489.83 867.91,-496.66"/>
</g>
<!-- Node0x563a15b6b288 -->
<g id="node19" class="node">
<title>Node0x563a15b6b288</title>
<polygon fill="none" stroke="black" points="1232,-476.14 839,-476.14 839,-440.14 1232,-440.14 1232,-476.14"/>
<text text-anchor="middle" x="1035.5" y="-454.44" font-family="Times,serif" font-size="14.00">{lib/libLLVMGlobalISel.a(InlineAsmLowering.cpp.o)}</text>
</g>
<!-- Node0x563a15b76a48&#45;&gt;Node0x563a15b6b288 -->
<g id="edge17" class="edge">
<title>Node0x563a15b76a48&#45;&gt;Node0x563a15b6b288</title>
<path fill="none" stroke="black" d="M681.32,-388.26C725.73,-400 785.61,-415.12 839,-426.14 860.1,-430.5 882.59,-434.64 904.51,-438.41"/>
<polygon fill="black" stroke="black" points="904.09,-441.89 914.54,-440.12 905.27,-434.99 904.09,-441.89"/>
</g>
<!-- Node0x563a15b77fd8&#45;&gt;Node0x563a15b781b8 -->
<g id="edge21" class="edge">
<title>Node0x563a15b77fd8&#45;&gt;Node0x563a15b781b8</title>
<path fill="none" stroke="black" d="M692.12,-218.12C810.54,-193.69 1043.25,-158.58 1232,-209.14 1317.47,-232.04 1403.98,-292.6 1448.08,-326.78"/>
<polygon fill="black" stroke="black" points="1446.04,-329.63 1456.07,-333.04 1450.36,-324.12 1446.04,-329.63"/>
</g>
<!-- Node0x563a15b76868 -->
<g id="node20" class="node">
<title>Node0x563a15b76868</title>
<polygon fill="none" stroke="black" points="1221,-254.14 850,-254.14 850,-218.14 1221,-218.14 1221,-254.14"/>
<text text-anchor="middle" x="1035.5" y="-232.44" font-family="Times,serif" font-size="14.00">{lib/libLLVMGlobalISel.a(GISelKnownBits.cpp.o)}</text>
</g>
<!-- Node0x563a15b77fd8&#45;&gt;Node0x563a15b76868 -->
<g id="edge20" class="edge">
<title>Node0x563a15b77fd8&#45;&gt;Node0x563a15b76868</title>
<path fill="none" stroke="black" d="M803.28,-236.14C815.36,-236.14 827.54,-236.14 839.65,-236.14"/>
<polygon fill="black" stroke="black" points="839.8,-239.64 849.8,-236.14 839.8,-232.64 839.8,-239.64"/>
</g>
<!-- Node0x563a15b7b098&#45;&gt;Node0x563a15b69cf8 -->
<g id="edge27" class="edge">
<title>Node0x563a15b7b098&#45;&gt;Node0x563a15b69cf8</title>
<path fill="none" stroke="black" d="M774.1,-705.59C927.95,-702.61 1149.53,-693.98 1232,-669.14 1316.28,-643.76 1402.63,-584.74 1447.18,-551.33"/>
<polygon fill="black" stroke="black" points="1449.41,-554.03 1455.27,-545.2 1445.18,-548.46 1449.41,-554.03"/>
</g>
<!-- Node0x563a15b7b098&#45;&gt;Node0x563a15b781b8 -->
<g id="edge28" class="edge">
<title>Node0x563a15b7b098&#45;&gt;Node0x563a15b781b8</title>
<path fill="none" stroke="black" d="M652.61,-688.99C696.45,-668.47 771.53,-635.31 839,-615.14 1009.46,-564.21 1076.58,-625.71 1232,-539.14 1252.61,-527.67 1250.28,-515.72 1268,-500.14 1324.06,-450.85 1396.34,-402.46 1439.83,-374.78"/>
<polygon fill="black" stroke="black" points="1441.81,-377.66 1448.39,-369.36 1438.07,-371.75 1441.81,-377.66"/>
</g>
<!-- Node0x563a15b7b098&#45;&gt;Node0x563a15b6b238 -->
<g id="edge23" class="edge">
<title>Node0x563a15b7b098&#45;&gt;Node0x563a15b6b238</title>
<path fill="none" stroke="black" d="M760.57,-725.17C982.07,-744.7 1407.75,-750.44 1690,-554.14 1711.31,-539.32 1707.54,-526.39 1726,-508.14 1779.92,-454.85 1852.12,-403.55 1895.03,-374.8"/>
<polygon fill="black" stroke="black" points="1897.07,-377.64 1903.46,-369.19 1893.2,-371.82 1897.07,-377.64"/>
</g>
<!-- Node0x563a15b7b098&#45;&gt;Node0x563a15b78ca8 -->
<g id="edge25" class="edge">
<title>Node0x563a15b7b098&#45;&gt;Node0x563a15b78ca8</title>
<path fill="none" stroke="black" d="M647.5,-725.25C689.99,-747.78 767.44,-785.02 839,-799.14 1009.81,-832.85 1211.3,-820.73 1341.68,-806.3"/>
<polygon fill="black" stroke="black" points="1342.18,-809.76 1351.72,-805.16 1341.4,-802.81 1342.18,-809.76"/>
</g>
<!-- Node0x563a15b7b098&#45;&gt;Node0x563a15b787f8 -->
<g id="edge22" class="edge">
<title>Node0x563a15b7b098&#45;&gt;Node0x563a15b787f8</title>
<path fill="none" stroke="black" d="M633.46,-688.89C669.53,-654.4 753.35,-579.92 839,-544.14 849.31,-539.84 860.15,-536.11 871.22,-532.88"/>
<polygon fill="black" stroke="black" points="872.3,-536.21 881,-530.17 870.43,-529.47 872.3,-536.21"/>
</g>
<!-- Node0x563a15b78f28 -->
<g id="node21" class="node">
<title>Node0x563a15b78f28</title>
<polygon fill="none" stroke="black" points="1219.5,-790.14 851.5,-790.14 851.5,-754.14 1219.5,-754.14 1219.5,-790.14"/>
<text text-anchor="middle" x="1035.5" y="-768.44" font-family="Times,serif" font-size="14.00">{lib/libLLVMGlobalISel.a(LegalizerHelper.cpp.o)}</text>
</g>
<!-- Node0x563a15b7b098&#45;&gt;Node0x563a15b78f28 -->
<g id="edge24" class="edge">
<title>Node0x563a15b7b098&#45;&gt;Node0x563a15b78f28</title>
<path fill="none" stroke="black" d="M731.3,-725.16C786.2,-733.67 851.83,-743.84 907.97,-752.54"/>
<polygon fill="black" stroke="black" points="907.56,-756.02 917.98,-754.09 908.63,-749.1 907.56,-756.02"/>
</g>
<!-- Node0x563a15b6a478 -->
<g id="node22" class="node">
<title>Node0x563a15b6a478</title>
<polygon fill="none" stroke="black" points="1690,-866.14 1268,-866.14 1268,-830.14 1690,-830.14 1690,-866.14"/>
<text text-anchor="middle" x="1479" y="-844.44" font-family="Times,serif" font-size="14.00">{lib/libLLVMGlobalISel.a(LostDebugLocObserver.cpp.o)}</text>
</g>
<!-- Node0x563a15b7b098&#45;&gt;Node0x563a15b6a478 -->
<g id="edge26" class="edge">
<title>Node0x563a15b7b098&#45;&gt;Node0x563a15b6a478</title>
<path fill="none" stroke="black" d="M640.68,-725.29C680.79,-752.46 761.73,-802.72 839,-823.14 974.99,-859.1 1132.88,-865.59 1257.69,-862.97"/>
<polygon fill="black" stroke="black" points="1257.84,-866.47 1267.76,-862.74 1257.68,-859.47 1257.84,-866.47"/>
</g>
<!-- Node0x563a15b72a88&#45;&gt;Node0x563a15b781b8 -->
<g id="edge32" class="edge">
<title>Node0x563a15b72a88&#45;&gt;Node0x563a15b781b8</title>
<path fill="none" stroke="black" d="M690.04,-103.12C809.66,-78.16 1048.73,-43.9 1232,-117.14 1338.59,-159.74 1425.36,-272.93 1460.79,-324.67"/>
<polygon fill="black" stroke="black" points="1457.92,-326.68 1466.42,-333.01 1463.72,-322.76 1457.92,-326.68"/>
</g>
<!-- Node0x563a15b6be18&#45;&gt;Node0x563a15b69cf8 -->
<g id="edge29" class="edge">
<title>Node0x563a15b6be18&#45;&gt;Node0x563a15b69cf8</title>
<path fill="none" stroke="black" d="M1165.41,-624.11C1187.74,-620.11 1210.64,-615.46 1232,-610.14 1298.64,-593.57 1373.08,-567.33 1422.44,-548.79"/>
<polygon fill="black" stroke="black" points="1423.85,-552 1431.97,-545.2 1421.38,-545.45 1423.85,-552"/>
</g>
<!-- Node0x563a15b6be18&#45;&gt;Node0x563a15b781b8 -->
<g id="edge31" class="edge">
<title>Node0x563a15b6be18&#45;&gt;Node0x563a15b781b8</title>
<path fill="none" stroke="black" d="M1130.75,-624.03C1165.7,-613.55 1203.68,-597.26 1232,-572.14 1258.77,-548.41 1244.72,-527.31 1268,-500.14 1315.32,-444.94 1387.29,-399.73 1433.48,-374.11"/>
<polygon fill="black" stroke="black" points="1435.26,-377.12 1442.36,-369.25 1431.9,-370.98 1435.26,-377.12"/>
</g>
<!-- Node0x563a15b6be18&#45;&gt;Node0x563a15b779e8 -->
<g id="edge30" class="edge">
<title>Node0x563a15b6be18&#45;&gt;Node0x563a15b779e8</title>
<path fill="none" stroke="black" d="M1187.31,-624.11C1349.07,-604.77 1604.96,-574.18 1770.54,-554.39"/>
<polygon fill="black" stroke="black" points="1771.3,-557.82 1780.82,-553.16 1770.47,-550.87 1771.3,-557.82"/>
</g>
<!-- Node0x563a15b6b288&#45;&gt;Node0x563a15b69cf8 -->
<g id="edge33" class="edge">
<title>Node0x563a15b6b288&#45;&gt;Node0x563a15b69cf8</title>
<path fill="none" stroke="black" d="M1171.2,-476.17C1191.58,-479.07 1212.36,-482.11 1232,-485.14 1276.1,-491.95 1324.53,-500.08 1366.68,-507.36"/>
<polygon fill="black" stroke="black" points="1366.23,-510.84 1376.68,-509.1 1367.43,-503.94 1366.23,-510.84"/>
</g>
<!-- Node0x563a15b76868&#45;&gt;Node0x563a15b781b8 -->
<g id="edge37" class="edge">
<title>Node0x563a15b76868&#45;&gt;Node0x563a15b781b8</title>
<path fill="none" stroke="black" d="M1165.41,-254.18C1187.74,-258.17 1210.64,-262.83 1232,-268.14 1298.64,-284.72 1373.08,-310.96 1422.44,-329.49"/>
<polygon fill="black" stroke="black" points="1421.38,-332.83 1431.97,-333.09 1423.85,-326.28 1421.38,-332.83"/>
</g>
<!-- Node0x563a15b78f28&#45;&gt;Node0x563a15b69cf8 -->
<g id="edge40" class="edge">
<title>Node0x563a15b78f28&#45;&gt;Node0x563a15b69cf8</title>
<path fill="none" stroke="black" d="M1100.87,-754C1139.92,-741.82 1190.13,-724 1232,-702.14 1316.42,-658.08 1404.92,-588.41 1449.19,-551.68"/>
<polygon fill="black" stroke="black" points="1451.5,-554.31 1456.93,-545.22 1447.01,-548.94 1451.5,-554.31"/>
</g>
<!-- Node0x563a15b78f28&#45;&gt;Node0x563a15b781b8 -->
<g id="edge41" class="edge">
<title>Node0x563a15b78f28&#45;&gt;Node0x563a15b781b8</title>
<path fill="none" stroke="black" d="M1101.05,-754.08C1144.55,-738.57 1199.7,-711.82 1232,-669.14 1278.35,-607.91 1225.8,-564.31 1268,-500.14 1307,-440.85 1378.4,-397.79 1427.01,-373.64"/>
<polygon fill="black" stroke="black" points="1428.65,-376.73 1436.11,-369.2 1425.59,-370.44 1428.65,-376.73"/>
</g>
<!-- Node0x563a15b78f28&#45;&gt;Node0x563a15b78ca8 -->
<g id="edge38" class="edge">
<title>Node0x563a15b78f28&#45;&gt;Node0x563a15b78ca8</title>
<path fill="none" stroke="black" d="M1219.58,-778.36C1244.27,-779.2 1269.61,-780.06 1294.31,-780.9"/>
<polygon fill="black" stroke="black" points="1294.37,-784.41 1304.48,-781.25 1294.61,-777.41 1294.37,-784.41"/>
</g>
<!-- Node0x563a15b78f28&#45;&gt;Node0x563a15b6a478 -->
<g id="edge39" class="edge">
<title>Node0x563a15b78f28&#45;&gt;Node0x563a15b6a478</title>
<path fill="none" stroke="black" d="M1133.58,-790.18C1174.97,-797.76 1223.82,-806.56 1268,-814.14 1295.92,-818.94 1325.96,-823.91 1354.35,-828.52"/>
<polygon fill="black" stroke="black" points="1353.88,-831.99 1364.32,-830.14 1355.01,-825.09 1353.88,-831.99"/>
</g>
<!-- Node0x563a15b6beb8 -->
<g id="node23" class="node">
<title>Node0x563a15b6beb8</title>
<polygon fill="none" stroke="black" points="797.5,-530.14 430.5,-530.14 430.5,-494.14 797.5,-494.14 797.5,-530.14"/>
<text text-anchor="middle" x="614" y="-508.44" font-family="Times,serif" font-size="14.00">{lib/libLLVMGlobalISel.a(CSEMIRBuilder.cpp.o)}</text>
</g>
<!-- Node0x563a15b6beb8&#45;&gt;Node0x563a15b69cf8 -->
<g id="edge35" class="edge">
<title>Node0x563a15b6beb8&#45;&gt;Node0x563a15b69cf8</title>
<path fill="none" stroke="black" d="M742.1,-530.15C773.69,-533.88 807.52,-537.25 839,-539.14 985.52,-547.94 1151.25,-544.44 1277.21,-539.01"/>
<polygon fill="black" stroke="black" points="1277.52,-542.5 1287.36,-538.56 1277.21,-535.5 1277.52,-542.5"/>
</g>
<!-- Node0x563a15b6beb8&#45;&gt;Node0x563a15b781b8 -->
<g id="edge36" class="edge">
<title>Node0x563a15b6beb8&#45;&gt;Node0x563a15b781b8</title>
<path fill="none" stroke="black" d="M656.26,-494.07C700.57,-475.42 773.46,-446.89 839,-431.14 1002.03,-391.98 1193.34,-371.25 1323.85,-360.79"/>
<polygon fill="black" stroke="black" points="1324.23,-364.27 1333.92,-359.99 1323.68,-357.29 1324.23,-364.27"/>
</g>
<!-- Node0x563a15b6beb8&#45;&gt;Node0x563a15b787f8 -->
<g id="edge34" class="edge">
<title>Node0x563a15b6beb8&#45;&gt;Node0x563a15b787f8</title>
<path fill="none" stroke="black" d="M797.78,-512.14C821.15,-512.14 844.97,-512.14 868.06,-512.14"/>
<polygon fill="black" stroke="black" points="868.26,-515.64 878.26,-512.14 868.26,-508.64 868.26,-515.64"/>
</g>
</g>
</svg>
