<?xml version="1.0" encoding="UTF-8" standalone="no"?>
<!DOCTYPE svg PUBLIC "-//W3C//DTD SVG 1.1//EN"
 "http://www.w3.org/Graphics/SVG/1.1/DTD/svg11.dtd">
<!-- Generated by graphviz version 2.43.0 (0)
 -->
<!-- Title: ccache Pages: 1 -->
<svg width="558pt" height="214pt"
 viewBox="0.00 0.00 558.00 214.00" xmlns="http://www.w3.org/2000/svg" xmlns:xlink="http://www.w3.org/1999/xlink">
<g id="graph0" class="graph" transform="scale(1 1) rotate(0) translate(4 210)">
<title>ccache</title>
<polygon fill="white" stroke="transparent" points="-4,4 -4,-210 554,-210 554,4 -4,4"/>
<text text-anchor="middle" x="275" y="-7.8" font-family="Times,serif" font-size="14.00">ccache</text>
<!-- Node0x562638564508 -->
<g id="node1" class="node">
<title>Node0x562638564508</title>
<polygon fill="none" stroke="black" points="0,-169.5 0,-205.5 287,-205.5 287,-169.5 0,-169.5"/>
<text text-anchor="middle" x="143.5" y="-183.8" font-family="Times,serif" font-size="14.00">CMakeFiles/ccache.dir/src/main.cpp.o</text>
</g>
<!-- Node0x5626385652c8 -->
<g id="node2" class="node">
<title>Node0x5626385652c8</title>
<polygon fill="#ff7f7f" stroke="black" points="70.5,-96.5 70.5,-132.5 216.5,-132.5 216.5,-96.5 70.5,-96.5"/>
<text text-anchor="middle" x="143.5" y="-110.8" font-family="Times,serif" font-size="14.00">src/libccache_lib.a</text>
</g>
<!-- Node0x562638564508&#45;&gt;Node0x5626385652c8 -->
<g id="edge1" class="edge">
<title>Node0x562638564508&#45;&gt;Node0x5626385652c8</title>
<path fill="none" stroke="black" d="M143.5,-169.31C143.5,-161.29 143.5,-151.55 143.5,-142.57"/>
<polygon fill="black" stroke="black" points="147,-142.53 143.5,-132.53 140,-142.53 147,-142.53"/>
</g>
<!-- Node0x5626385657c8 -->
<g id="node3" class="node">
<title>Node0x5626385657c8</title>
<polygon fill="#ff7f7f" stroke="black" points="12,-23.5 12,-59.5 275,-59.5 275,-23.5 12,-23.5"/>
<text text-anchor="middle" x="143.5" y="-37.8" font-family="Times,serif" font-size="14.00">src/third_party/libthird_party_lib.a</text>
</g>
<!-- Node0x5626385652c8&#45;&gt;Node0x5626385657c8 -->
<g id="edge2" class="edge">
<title>Node0x5626385652c8&#45;&gt;Node0x5626385657c8</title>
<path fill="none" stroke="#ff7f7f" d="M137.62,-96.31C136.78,-88.29 136.55,-78.55 136.92,-69.57"/>
<polygon fill="#ff7f7f" stroke="#ff7f7f" points="140.42,-69.75 137.64,-59.53 133.44,-69.25 140.42,-69.75"/>
</g>
<!-- Node0x562638564968 -->
<g id="node4" class="node">
<title>Node0x562638564968</title>
<polygon fill="none" stroke="black" points="293,-23.5 293,-59.5 550,-59.5 550,-23.5 293,-23.5"/>
<text text-anchor="middle" x="421.5" y="-37.8" font-family="Times,serif" font-size="14.00">src/third_party/blake3/libblake3.a</text>
</g>
<!-- Node0x5626385652c8&#45;&gt;Node0x562638564968 -->
<g id="edge3" class="edge">
<title>Node0x5626385652c8&#45;&gt;Node0x562638564968</title>
<path fill="none" stroke="black" d="M210.09,-96.49C250.54,-86.16 302.34,-72.93 344.54,-62.16"/>
<polygon fill="black" stroke="black" points="345.67,-65.48 354.49,-59.61 343.94,-58.7 345.67,-65.48"/>
</g>
<!-- Node0x5626385657c8&#45;&gt;Node0x5626385652c8 -->
<g id="edge4" class="edge">
<title>Node0x5626385657c8&#45;&gt;Node0x5626385652c8</title>
<path fill="none" stroke="#ff7f7f" d="M149.36,-59.53C150.21,-67.53 150.45,-77.27 150.09,-86.25"/>
<polygon fill="#ff7f7f" stroke="#ff7f7f" points="146.59,-86.09 149.38,-96.31 153.57,-86.58 146.59,-86.09"/>
</g>
</g>
</svg>
