<?xml version="1.0" encoding="UTF-8" standalone="no"?>
<!DOCTYPE svg PUBLIC "-//W3C//DTD SVG 1.1//EN"
 "http://www.w3.org/Graphics/SVG/1.1/DTD/svg11.dtd">
<!-- Generated by graphviz version 2.43.0 (0)
 -->
<!-- Title: bin/dsymutil_lib/libLLVMGlobalISel.a Pages: 1 -->
<svg width="2545pt" height="438pt"
 viewBox="0.00 0.00 2545.00 437.80" xmlns="http://www.w3.org/2000/svg" xmlns:xlink="http://www.w3.org/1999/xlink">
<g id="graph0" class="graph" transform="scale(1 1) rotate(0) translate(4 433.8)">
<title>bin/dsymutil_lib/libLLVMGlobalISel.a</title>
<polygon fill="white" stroke="transparent" points="-4,4 -4,-433.8 2541,-433.8 2541,4 -4,4"/>
<text text-anchor="middle" x="1268.5" y="-7.8" font-family="Times,serif" font-size="14.00">bin/dsymutil_lib/libLLVMGlobalISel.a</text>
<!-- Node0x555fc60201f8 -->
<g id="node1" class="node">
<title>Node0x555fc60201f8</title>
<polygon fill="#7fb2ff" stroke="black" points="788.5,-413 439.5,-413 439.5,-377 788.5,-377 788.5,-413"/>
<text text-anchor="middle" x="614" y="-391.3" font-family="Times,serif" font-size="14.00">{lib/libLLVMGlobalISel.a(LegalizerInfo.cpp.o)}</text>
</g>
<!-- Node0x555fc6021698 -->
<g id="node2" class="node">
<title>Node0x555fc6021698</title>
<polygon fill="#7fb2ff" stroke="black" points="1219,-413 851,-413 851,-377 1219,-377 1219,-413"/>
<text text-anchor="middle" x="1035" y="-391.3" font-family="Times,serif" font-size="14.00">{lib/libLLVMGlobalISel.a(LegalizerHelper.cpp.o)}</text>
</g>
<!-- Node0x555fc60201f8&#45;&gt;Node0x555fc6021698 -->
<g id="edge1" class="edge">
<title>Node0x555fc60201f8&#45;&gt;Node0x555fc6021698</title>
<path fill="none" stroke="#7fb2ff" d="M788.75,-388.34C805.87,-388.25 823.31,-388.23 840.6,-388.27"/>
<polygon fill="#7fb2ff" stroke="#7fb2ff" points="840.76,-391.77 850.77,-388.3 840.78,-384.77 840.76,-391.77"/>
</g>
<!-- Node0x555fc6021698&#45;&gt;Node0x555fc60201f8 -->
<g id="edge43" class="edge">
<title>Node0x555fc6021698&#45;&gt;Node0x555fc60201f8</title>
<path fill="none" stroke="#7fb2ff" d="M850.77,-401.7C833.55,-401.77 816.09,-401.77 798.86,-401.7"/>
<polygon fill="#7fb2ff" stroke="#7fb2ff" points="798.77,-398.2 788.75,-401.66 798.74,-405.2 798.77,-398.2"/>
</g>
<!-- Node0x555fc60210f8 -->
<g id="node3" class="node">
<title>Node0x555fc60210f8</title>
<polygon fill="#7fb2ff" stroke="black" points="1618.5,-413 1298.5,-413 1298.5,-377 1618.5,-377 1618.5,-413"/>
<text text-anchor="middle" x="1458.5" y="-391.3" font-family="Times,serif" font-size="14.00">{lib/libLLVMGlobalISel.a(Legalizer.cpp.o)}</text>
</g>
<!-- Node0x555fc6021698&#45;&gt;Node0x555fc60210f8 -->
<g id="edge42" class="edge">
<title>Node0x555fc6021698&#45;&gt;Node0x555fc60210f8</title>
<path fill="none" stroke="#7fb2ff" d="M1219.04,-388.3C1242.07,-388.22 1265.55,-388.24 1288.35,-388.37"/>
<polygon fill="#7fb2ff" stroke="#7fb2ff" points="1288.4,-391.87 1298.42,-388.43 1288.45,-384.87 1288.4,-391.87"/>
</g>
<!-- Node0x555fc6018778 -->
<g id="node4" class="node">
<title>Node0x555fc6018778</title>
<polygon fill="none" stroke="black" points="1633.5,-359 1283.5,-359 1283.5,-323 1633.5,-323 1633.5,-359"/>
<text text-anchor="middle" x="1458.5" y="-337.3" font-family="Times,serif" font-size="14.00">{lib/libLLVMGlobalISel.a(CallLowering.cpp.o)}</text>
</g>
<!-- Node0x555fc6021698&#45;&gt;Node0x555fc6018778 -->
<g id="edge44" class="edge">
<title>Node0x555fc6021698&#45;&gt;Node0x555fc6018778</title>
<path fill="none" stroke="black" d="M1176.65,-376.98C1218.42,-371.63 1264.35,-365.75 1306.74,-360.31"/>
<polygon fill="black" stroke="black" points="1307.39,-363.76 1316.87,-359.02 1306.5,-356.82 1307.39,-363.76"/>
</g>
<!-- Node0x555fc6024d48 -->
<g id="node5" class="node">
<title>Node0x555fc6024d48</title>
<polygon fill="none" stroke="black" points="1650,-259 1267,-259 1267,-223 1650,-223 1650,-259"/>
<text text-anchor="middle" x="1458.5" y="-237.3" font-family="Times,serif" font-size="14.00">{lib/libLLVMGlobalISel.a(MachineIRBuilder.cpp.o)}</text>
</g>
<!-- Node0x555fc6021698&#45;&gt;Node0x555fc6024d48 -->
<g id="edge45" class="edge">
<title>Node0x555fc6021698&#45;&gt;Node0x555fc6024d48</title>
<path fill="none" stroke="black" d="M1085.59,-376.88C1163.67,-348.35 1314.95,-293.08 1398.5,-262.56"/>
<polygon fill="black" stroke="black" points="1399.91,-265.77 1408.1,-259.05 1397.5,-259.19 1399.91,-265.77"/>
</g>
<!-- Node0x555fc6022ef8 -->
<g id="node6" class="node">
<title>Node0x555fc6022ef8</title>
<polygon fill="none" stroke="black" points="1603.5,-197 1313.5,-197 1313.5,-161 1603.5,-161 1603.5,-197"/>
<text text-anchor="middle" x="1458.5" y="-175.3" font-family="Times,serif" font-size="14.00">{lib/libLLVMGlobalISel.a(Utils.cpp.o)}</text>
</g>
<!-- Node0x555fc6021698&#45;&gt;Node0x555fc6022ef8 -->
<g id="edge46" class="edge">
<title>Node0x555fc6021698&#45;&gt;Node0x555fc6022ef8</title>
<path fill="none" stroke="black" d="M1063.99,-376.81C1102.97,-350.97 1175.1,-301.28 1231,-252 1248.45,-236.61 1246.55,-225.09 1267,-214 1278.42,-207.8 1290.74,-202.68 1303.42,-198.45"/>
<polygon fill="black" stroke="black" points="1304.69,-201.72 1313.18,-195.38 1302.59,-195.04 1304.69,-201.72"/>
</g>
<!-- Node0x555fc60210f8&#45;&gt;Node0x555fc60201f8 -->
<g id="edge13" class="edge">
<title>Node0x555fc60210f8&#45;&gt;Node0x555fc60201f8</title>
<path fill="none" stroke="#7fb2ff" d="M1328.97,-413C1297.03,-416.74 1262.82,-420.11 1231,-422 1057.08,-432.33 1012.91,-432.44 839,-422 810.84,-420.31 780.8,-417.43 752.17,-414.17"/>
<polygon fill="#7fb2ff" stroke="#7fb2ff" points="752.44,-410.68 742.1,-413 751.63,-417.63 752.44,-410.68"/>
</g>
<!-- Node0x555fc60210f8&#45;&gt;Node0x555fc6021698 -->
<g id="edge12" class="edge">
<title>Node0x555fc60210f8&#45;&gt;Node0x555fc6021698</title>
<path fill="none" stroke="#7fb2ff" d="M1298.42,-401.57C1275.85,-401.73 1252.43,-401.78 1229.29,-401.73"/>
<polygon fill="#7fb2ff" stroke="#7fb2ff" points="1229.05,-398.23 1219.04,-401.7 1229.03,-405.23 1229.05,-398.23"/>
</g>
<!-- Node0x555fc60210f8&#45;&gt;Node0x555fc6024d48 -->
<g id="edge18" class="edge">
<title>Node0x555fc60210f8&#45;&gt;Node0x555fc6024d48</title>
<path fill="none" stroke="black" d="M1298.35,-397.04C1278.19,-389.72 1260.59,-377.76 1249,-359 1218.58,-309.77 1282.54,-279.26 1347.59,-261.62"/>
<polygon fill="black" stroke="black" points="1348.81,-264.92 1357.6,-259.01 1347.04,-258.15 1348.81,-264.92"/>
</g>
<!-- Node0x555fc60210f8&#45;&gt;Node0x555fc6022ef8 -->
<g id="edge19" class="edge">
<title>Node0x555fc60210f8&#45;&gt;Node0x555fc6022ef8</title>
<path fill="none" stroke="black" d="M1298.35,-397.04C1278.19,-389.72 1260.59,-377.76 1249,-359 1233.11,-333.29 1233.11,-248.71 1249,-223 1261.65,-202.53 1281.31,-189.6 1303.61,-181.71"/>
<polygon fill="black" stroke="black" points="1304.85,-184.98 1313.32,-178.62 1302.73,-178.31 1304.85,-184.98"/>
</g>
<!-- Node0x555fc601b9c8 -->
<g id="node7" class="node">
<title>Node0x555fc601b9c8</title>
<polygon fill="none" stroke="black" points="2103.5,-113 1690.5,-113 1690.5,-77 2103.5,-77 2103.5,-113"/>
<text text-anchor="middle" x="1897" y="-91.3" font-family="Times,serif" font-size="14.00">{lib/libLLVMGlobalISel.a(GISelChangeObserver.cpp.o)}</text>
</g>
<!-- Node0x555fc60210f8&#45;&gt;Node0x555fc601b9c8 -->
<g id="edge11" class="edge">
<title>Node0x555fc60210f8&#45;&gt;Node0x555fc601b9c8</title>
<path fill="none" stroke="black" d="M1618.83,-388.83C1630.28,-383.65 1640.89,-376.84 1650,-368 1717.35,-302.68 1624.07,-230.47 1686,-160 1703.48,-140.11 1726.91,-126.23 1751.79,-116.55"/>
<polygon fill="black" stroke="black" points="1753.19,-119.77 1761.38,-113.05 1750.79,-113.19 1753.19,-119.77"/>
</g>
<!-- Node0x555fc6017f58 -->
<g id="node8" class="node">
<title>Node0x555fc6017f58</title>
<polygon fill="none" stroke="black" points="2054,-205 1740,-205 1740,-169 2054,-169 2054,-205"/>
<text text-anchor="middle" x="1897" y="-183.3" font-family="Times,serif" font-size="14.00">{lib/libLLVMGlobalISel.a(CSEInfo.cpp.o)}</text>
</g>
<!-- Node0x555fc60210f8&#45;&gt;Node0x555fc6017f58 -->
<g id="edge14" class="edge">
<title>Node0x555fc60210f8&#45;&gt;Node0x555fc6017f58</title>
<path fill="none" stroke="black" d="M1618.74,-388.05C1630.14,-383.01 1640.76,-376.46 1650,-368 1701.86,-320.55 1633.83,-261.11 1686,-214 1698.83,-202.42 1714.03,-194.18 1730.3,-188.44"/>
<polygon fill="black" stroke="black" points="1731.53,-191.72 1739.99,-185.35 1729.4,-185.06 1731.53,-191.72"/>
</g>
<!-- Node0x555fc6014678 -->
<g id="node9" class="node">
<title>Node0x555fc6014678</title>
<polygon fill="none" stroke="black" points="2069,-313 1725,-313 1725,-277 2069,-277 2069,-313"/>
<text text-anchor="middle" x="1897" y="-291.3" font-family="Times,serif" font-size="14.00">{lib/libLLVMGlobalISel.a(IRTranslator.cpp.o)}</text>
</g>
<!-- Node0x555fc60210f8&#45;&gt;Node0x555fc6014678 -->
<g id="edge15" class="edge">
<title>Node0x555fc60210f8&#45;&gt;Node0x555fc6014678</title>
<path fill="none" stroke="black" d="M1602.94,-377C1618.88,-374.31 1634.82,-371.31 1650,-368 1713.45,-354.17 1784.41,-332.42 1833.75,-316.25"/>
<polygon fill="black" stroke="black" points="1834.92,-319.55 1843.32,-313.1 1832.73,-312.9 1834.92,-319.55"/>
</g>
<!-- Node0x555fc60158e8 -->
<g id="node10" class="node">
<title>Node0x555fc60158e8</title>
<polygon fill="none" stroke="black" points="2080.5,-259 1713.5,-259 1713.5,-223 2080.5,-223 2080.5,-259"/>
<text text-anchor="middle" x="1897" y="-237.3" font-family="Times,serif" font-size="14.00">{lib/libLLVMGlobalISel.a(CSEMIRBuilder.cpp.o)}</text>
</g>
<!-- Node0x555fc60210f8&#45;&gt;Node0x555fc60158e8 -->
<g id="edge16" class="edge">
<title>Node0x555fc60210f8&#45;&gt;Node0x555fc60158e8</title>
<path fill="none" stroke="black" d="M1618.63,-386.46C1629.91,-381.74 1640.54,-375.69 1650,-368 1686.64,-338.19 1649.17,-297.58 1686,-268 1691.58,-263.52 1697.54,-259.56 1703.76,-256.07"/>
<polygon fill="black" stroke="black" points="1705.78,-258.97 1713.08,-251.3 1702.58,-252.74 1705.78,-258.97"/>
</g>
<!-- Node0x555fc6024f78 -->
<g id="node11" class="node">
<title>Node0x555fc6024f78</title>
<polygon fill="#7fb2ff" stroke="black" points="2108,-413 1686,-413 1686,-377 2108,-377 2108,-413"/>
<text text-anchor="middle" x="1897" y="-391.3" font-family="Times,serif" font-size="14.00">{lib/libLLVMGlobalISel.a(LostDebugLocObserver.cpp.o)}</text>
</g>
<!-- Node0x555fc60210f8&#45;&gt;Node0x555fc6024f78 -->
<g id="edge17" class="edge">
<title>Node0x555fc60210f8&#45;&gt;Node0x555fc6024f78</title>
<path fill="none" stroke="#7fb2ff" d="M1618.63,-388.48C1637.2,-388.33 1656.39,-388.26 1675.6,-388.25"/>
<polygon fill="#7fb2ff" stroke="#7fb2ff" points="1675.64,-391.75 1685.64,-388.25 1675.64,-384.75 1675.64,-391.75"/>
</g>
<!-- Node0x555fc6018778&#45;&gt;Node0x555fc6024d48 -->
<g id="edge3" class="edge">
<title>Node0x555fc6018778&#45;&gt;Node0x555fc6024d48</title>
<path fill="none" stroke="black" d="M1458.5,-322.82C1458.5,-305.14 1458.5,-287.45 1458.5,-269.77"/>
<polygon fill="black" stroke="black" points="1462,-269.36 1458.5,-259.36 1455,-269.36 1462,-269.36"/>
</g>
<!-- Node0x555fc6018778&#45;&gt;Node0x555fc6022ef8 -->
<g id="edge4" class="edge">
<title>Node0x555fc6018778&#45;&gt;Node0x555fc6022ef8</title>
<path fill="none" stroke="black" d="M1357.6,-322.99C1289.36,-305.83 1217.01,-274.76 1249,-223 1261.65,-202.53 1281.31,-189.6 1303.61,-181.71"/>
<polygon fill="black" stroke="black" points="1304.85,-184.98 1313.32,-178.62 1302.73,-178.31 1304.85,-184.98"/>
</g>
<!-- Node0x555fc6024d48&#45;&gt;Node0x555fc6022ef8 -->
<g id="edge5" class="edge">
<title>Node0x555fc6024d48&#45;&gt;Node0x555fc6022ef8</title>
<path fill="none" stroke="black" d="M1458.5,-222.95C1458.5,-217.89 1458.5,-212.84 1458.5,-207.78"/>
<polygon fill="black" stroke="black" points="1462,-207.41 1458.5,-197.41 1455,-207.41 1462,-207.41"/>
</g>
<!-- Node0x555fc6022ef8&#45;&gt;Node0x555fc601b9c8 -->
<g id="edge6" class="edge">
<title>Node0x555fc6022ef8&#45;&gt;Node0x555fc601b9c8</title>
<path fill="none" stroke="black" d="M1531.64,-161C1575.99,-150.29 1634.08,-136.9 1686,-127 1708.98,-122.62 1733.47,-118.44 1757.3,-114.64"/>
<polygon fill="black" stroke="black" points="1758.14,-118.05 1767.47,-113.03 1757.05,-111.14 1758.14,-118.05"/>
</g>
<!-- Node0x555fc6023718 -->
<g id="node12" class="node">
<title>Node0x555fc6023718</title>
<polygon fill="none" stroke="black" points="2087,-59 1707,-59 1707,-23 2087,-23 2087,-59"/>
<text text-anchor="middle" x="1897" y="-37.3" font-family="Times,serif" font-size="14.00">{lib/libLLVMGlobalISel.a(RegisterBankInfo.cpp.o)}</text>
</g>
<!-- Node0x555fc6022ef8&#45;&gt;Node0x555fc6023718 -->
<g id="edge7" class="edge">
<title>Node0x555fc6022ef8&#45;&gt;Node0x555fc6023718</title>
<path fill="none" stroke="black" d="M1488.62,-160.82C1530.55,-135.58 1611.14,-90.48 1686,-68 1694.25,-65.52 1702.75,-63.27 1711.38,-61.23"/>
<polygon fill="black" stroke="black" points="1712.2,-64.63 1721.18,-59.01 1710.65,-57.8 1712.2,-64.63"/>
</g>
<!-- Node0x555fc6014678&#45;&gt;Node0x555fc6018778 -->
<g id="edge28" class="edge">
<title>Node0x555fc6014678&#45;&gt;Node0x555fc6018778</title>
<path fill="none" stroke="black" d="M1725,-313.02C1697.33,-315.94 1668.59,-318.97 1640.69,-321.91"/>
<polygon fill="black" stroke="black" points="1640.03,-318.46 1630.45,-322.98 1640.76,-325.42 1640.03,-318.46"/>
</g>
<!-- Node0x555fc6014678&#45;&gt;Node0x555fc6024d48 -->
<g id="edge30" class="edge">
<title>Node0x555fc6014678&#45;&gt;Node0x555fc6024d48</title>
<path fill="none" stroke="black" d="M1750.36,-276.98C1706.92,-271.61 1659.14,-265.7 1615.08,-260.25"/>
<polygon fill="black" stroke="black" points="1615.51,-256.77 1605.15,-259.02 1614.65,-263.72 1615.51,-256.77"/>
</g>
<!-- Node0x555fc6014678&#45;&gt;Node0x555fc6022ef8 -->
<g id="edge31" class="edge">
<title>Node0x555fc6014678&#45;&gt;Node0x555fc6022ef8</title>
<path fill="none" stroke="black" d="M1724.86,-285.81C1711.18,-281.29 1698.03,-275.46 1686,-268 1661.49,-252.79 1674.09,-229.86 1650,-214 1638.7,-206.56 1626.25,-200.59 1613.28,-195.82"/>
<polygon fill="black" stroke="black" points="1614.35,-192.49 1603.76,-192.56 1612.08,-199.11 1614.35,-192.49"/>
</g>
<!-- Node0x555fc6014678&#45;&gt;Node0x555fc601b9c8 -->
<g id="edge25" class="edge">
<title>Node0x555fc6014678&#45;&gt;Node0x555fc601b9c8</title>
<path fill="none" stroke="black" d="M1724.95,-301.06C1701.64,-293.49 1681.22,-280.4 1668,-259 1646.97,-224.97 1646.97,-203.03 1668,-169 1683.03,-144.68 1706.39,-128.07 1732.55,-116.79"/>
<polygon fill="black" stroke="black" points="1733.94,-120.01 1741.91,-113.02 1731.33,-113.51 1733.94,-120.01"/>
</g>
<!-- Node0x555fc6014678&#45;&gt;Node0x555fc6017f58 -->
<g id="edge27" class="edge">
<title>Node0x555fc6014678&#45;&gt;Node0x555fc6017f58</title>
<path fill="none" stroke="black" d="M1724.95,-301.06C1701.64,-293.49 1681.22,-280.4 1668,-259 1644.74,-221.36 1680.16,-202.56 1729.59,-193.44"/>
<polygon fill="black" stroke="black" points="1730.37,-196.86 1739.65,-191.74 1729.21,-189.96 1730.37,-196.86"/>
</g>
<!-- Node0x555fc6014678&#45;&gt;Node0x555fc60158e8 -->
<g id="edge29" class="edge">
<title>Node0x555fc6014678&#45;&gt;Node0x555fc60158e8</title>
<path fill="none" stroke="black" d="M1897,-276.79C1897,-274.31 1897,-271.83 1897,-269.34"/>
<polygon fill="black" stroke="black" points="1900.5,-269.14 1897,-259.14 1893.5,-269.14 1900.5,-269.14"/>
</g>
<!-- Node0x555fc6019e48 -->
<g id="node22" class="node">
<title>Node0x555fc6019e48</title>
<polygon fill="none" stroke="black" points="2537,-236 2144,-236 2144,-200 2537,-200 2537,-236"/>
<text text-anchor="middle" x="2340.5" y="-214.3" font-family="Times,serif" font-size="14.00">{lib/libLLVMGlobalISel.a(InlineAsmLowering.cpp.o)}</text>
</g>
<!-- Node0x555fc6014678&#45;&gt;Node0x555fc6019e48 -->
<g id="edge26" class="edge">
<title>Node0x555fc6014678&#45;&gt;Node0x555fc6019e48</title>
<path fill="none" stroke="black" d="M2050.21,-276.98C2069.69,-274.22 2089.34,-271.21 2108,-268 2156.59,-259.64 2210.45,-248.15 2253.99,-238.28"/>
<polygon fill="black" stroke="black" points="2254.99,-241.64 2263.96,-236.01 2253.44,-234.82 2254.99,-241.64"/>
</g>
<!-- Node0x555fc60158e8&#45;&gt;Node0x555fc6024d48 -->
<g id="edge38" class="edge">
<title>Node0x555fc60158e8&#45;&gt;Node0x555fc6024d48</title>
<path fill="none" stroke="black" d="M1713.27,-241C1695.79,-241 1678,-241 1660.37,-241"/>
<polygon fill="black" stroke="black" points="1660,-237.5 1650,-241 1660,-244.5 1660,-237.5"/>
</g>
<!-- Node0x555fc60158e8&#45;&gt;Node0x555fc6022ef8 -->
<g id="edge39" class="edge">
<title>Node0x555fc60158e8&#45;&gt;Node0x555fc6022ef8</title>
<path fill="none" stroke="black" d="M1751.9,-222.97C1729.82,-220.06 1707.29,-217.01 1686,-214 1652.44,-209.25 1616.13,-203.79 1582.62,-198.61"/>
<polygon fill="black" stroke="black" points="1582.74,-195.08 1572.32,-197.01 1581.67,-202 1582.74,-195.08"/>
</g>
<!-- Node0x555fc60158e8&#45;&gt;Node0x555fc6017f58 -->
<g id="edge37" class="edge">
<title>Node0x555fc60158e8&#45;&gt;Node0x555fc6017f58</title>
<path fill="none" stroke="black" d="M1897,-222.79C1897,-220.31 1897,-217.83 1897,-215.34"/>
<polygon fill="black" stroke="black" points="1900.5,-215.14 1897,-205.14 1893.5,-215.14 1900.5,-215.14"/>
</g>
<!-- Node0x555fc6024f78&#45;&gt;Node0x555fc60210f8 -->
<g id="edge47" class="edge">
<title>Node0x555fc6024f78&#45;&gt;Node0x555fc60210f8</title>
<path fill="none" stroke="#7fb2ff" d="M1685.64,-401.75C1666.53,-401.77 1647.34,-401.72 1628.65,-401.6"/>
<polygon fill="#7fb2ff" stroke="#7fb2ff" points="1628.65,-398.1 1618.63,-401.52 1628.61,-405.1 1628.65,-398.1"/>
</g>
<!-- Node0x555fc6023e48 -->
<g id="node13" class="node">
<title>Node0x555fc6023e48</title>
<polygon fill="none" stroke="black" points="2516.5,-59 2164.5,-59 2164.5,-23 2516.5,-23 2516.5,-59"/>
<text text-anchor="middle" x="2340.5" y="-37.3" font-family="Times,serif" font-size="14.00">{lib/libLLVMGlobalISel.a(RegisterBank.cpp.o)}</text>
</g>
<!-- Node0x555fc6023718&#45;&gt;Node0x555fc6023e48 -->
<g id="edge2" class="edge">
<title>Node0x555fc6023718&#45;&gt;Node0x555fc6023e48</title>
<path fill="none" stroke="black" d="M2087.16,-41C2109.38,-41 2132.04,-41 2154.21,-41"/>
<polygon fill="black" stroke="black" points="2154.36,-44.5 2164.36,-41 2154.36,-37.5 2154.36,-44.5"/>
</g>
<!-- Node0x555fc6023498 -->
<g id="node14" class="node">
<title>Node0x555fc6023498</title>
<polygon fill="none" stroke="black" points="389,-213 0,-213 0,-177 389,-177 389,-213"/>
<text text-anchor="middle" x="194.5" y="-191.3" font-family="Times,serif" font-size="14.00">{lib/libLLVMGlobalISel.a(LegalityPredicates.cpp.o)}</text>
</g>
<!-- Node0x555fc60213c8 -->
<g id="node15" class="node">
<title>Node0x555fc60213c8</title>
<polygon fill="none" stroke="black" points="388,-267 1,-267 1,-231 388,-231 388,-267"/>
<text text-anchor="middle" x="194.5" y="-245.3" font-family="Times,serif" font-size="14.00">{lib/libLLVMGlobalISel.a(LegalizeMutations.cpp.o)}</text>
</g>
<!-- Node0x555fc60222c8 -->
<g id="node16" class="node">
<title>Node0x555fc60222c8</title>
<polygon fill="none" stroke="black" points="1231,-243 839,-243 839,-207 1231,-207 1231,-243"/>
<text text-anchor="middle" x="1035" y="-221.3" font-family="Times,serif" font-size="14.00">{lib/libLLVMGlobalISel.a(InstructionSelector.cpp.o)}</text>
</g>
<!-- Node0x555fc60222c8&#45;&gt;Node0x555fc6022ef8 -->
<g id="edge8" class="edge">
<title>Node0x555fc60222c8&#45;&gt;Node0x555fc6022ef8</title>
<path fill="none" stroke="black" d="M1201.08,-206.98C1234.64,-203.32 1269.83,-199.48 1303.01,-195.86"/>
<polygon fill="black" stroke="black" points="1303.68,-199.31 1313.24,-194.74 1302.92,-192.35 1303.68,-199.31"/>
</g>
<!-- Node0x555fc601a078 -->
<g id="node17" class="node">
<title>Node0x555fc601a078</title>
<polygon fill="none" stroke="black" points="803,-159 425,-159 425,-123 803,-123 803,-159"/>
<text text-anchor="middle" x="614" y="-137.3" font-family="Times,serif" font-size="14.00">{lib/libLLVMGlobalISel.a(InstructionSelect.cpp.o)}</text>
</g>
<!-- Node0x555fc601a078&#45;&gt;Node0x555fc6022ef8 -->
<g id="edge10" class="edge">
<title>Node0x555fc601a078&#45;&gt;Node0x555fc6022ef8</title>
<path fill="none" stroke="black" d="M803.16,-157.7C815.29,-158.55 827.31,-159.33 839,-160 997.07,-169.13 1178.13,-174.04 1303.33,-176.57"/>
<polygon fill="black" stroke="black" points="1303.3,-180.07 1313.37,-176.77 1303.44,-173.07 1303.3,-180.07"/>
</g>
<!-- Node0x555fc6022598 -->
<g id="node18" class="node">
<title>Node0x555fc6022598</title>
<polygon fill="none" stroke="black" points="1220.5,-151 849.5,-151 849.5,-115 1220.5,-115 1220.5,-151"/>
<text text-anchor="middle" x="1035" y="-129.3" font-family="Times,serif" font-size="14.00">{lib/libLLVMGlobalISel.a(GISelKnownBits.cpp.o)}</text>
</g>
<!-- Node0x555fc601a078&#45;&gt;Node0x555fc6022598 -->
<g id="edge9" class="edge">
<title>Node0x555fc601a078&#45;&gt;Node0x555fc6022598</title>
<path fill="none" stroke="black" d="M803.05,-130.69C815.03,-130.43 827.11,-130.19 839.12,-129.99"/>
<polygon fill="black" stroke="black" points="839.25,-133.48 849.2,-129.82 839.14,-126.48 839.25,-133.48"/>
</g>
<!-- Node0x555fc6022598&#45;&gt;Node0x555fc6022ef8 -->
<g id="edge41" class="edge">
<title>Node0x555fc6022598&#45;&gt;Node0x555fc6022ef8</title>
<path fill="none" stroke="black" d="M1201.08,-151.02C1234.64,-154.68 1269.83,-158.52 1303.01,-162.14"/>
<polygon fill="black" stroke="black" points="1302.92,-165.65 1313.24,-163.26 1303.68,-158.69 1302.92,-165.65"/>
</g>
<!-- Node0x555fc6022598&#45;&gt;Node0x555fc601a078 -->
<g id="edge40" class="edge">
<title>Node0x555fc6022598&#45;&gt;Node0x555fc601a078</title>
<path fill="none" stroke="black" d="M849.2,-143.24C837.23,-143.51 825.16,-143.75 813.14,-143.96"/>
<polygon fill="black" stroke="black" points="812.99,-140.46 803.05,-144.13 813.11,-147.46 812.99,-140.46"/>
</g>
<!-- Node0x555fc6018d18 -->
<g id="node19" class="node">
<title>Node0x555fc6018d18</title>
<polygon fill="none" stroke="black" points="359,-159 30,-159 30,-123 359,-123 359,-159"/>
<text text-anchor="middle" x="194.5" y="-137.3" font-family="Times,serif" font-size="14.00">{lib/libLLVMGlobalISel.a(GlobalISel.cpp.o)}</text>
</g>
<!-- Node0x555fc6018d18&#45;&gt;Node0x555fc60210f8 -->
<g id="edge21" class="edge">
<title>Node0x555fc6018d18&#45;&gt;Node0x555fc60210f8</title>
<path fill="none" stroke="black" d="M334.98,-159.01C353.19,-161.79 371.57,-164.8 389,-168 782.66,-240.16 873.42,-295.41 1267,-368 1281.01,-370.58 1295.64,-373.06 1310.3,-375.38"/>
<polygon fill="black" stroke="black" points="1310.02,-378.88 1320.44,-376.97 1311.1,-371.97 1310.02,-378.88"/>
</g>
<!-- Node0x555fc6018d18&#45;&gt;Node0x555fc6014678 -->
<g id="edge23" class="edge">
<title>Node0x555fc6018d18&#45;&gt;Node0x555fc6014678</title>
<path fill="none" stroke="black" d="M330.42,-159.02C350.09,-161.88 370.09,-164.92 389,-168 589.8,-200.73 636.83,-229.14 839,-252 1144.92,-286.59 1503.41,-294.32 1714.46,-295.53"/>
<polygon fill="black" stroke="black" points="1714.69,-299.03 1724.71,-295.59 1714.73,-292.03 1714.69,-299.03"/>
</g>
<!-- Node0x555fc6018d18&#45;&gt;Node0x555fc601a078 -->
<g id="edge20" class="edge">
<title>Node0x555fc6018d18&#45;&gt;Node0x555fc601a078</title>
<path fill="none" stroke="black" d="M359.01,-141C377.32,-141 396.12,-141 414.8,-141"/>
<polygon fill="black" stroke="black" points="414.86,-144.5 424.86,-141 414.86,-137.5 414.86,-144.5"/>
</g>
<!-- Node0x555fc60208d8 -->
<g id="node20" class="node">
<title>Node0x555fc60208d8</title>
<polygon fill="none" stroke="black" points="773,-105 455,-105 455,-69 773,-69 773,-105"/>
<text text-anchor="middle" x="614" y="-83.3" font-family="Times,serif" font-size="14.00">{lib/libLLVMGlobalISel.a(Localizer.cpp.o)}</text>
</g>
<!-- Node0x555fc6018d18&#45;&gt;Node0x555fc60208d8 -->
<g id="edge22" class="edge">
<title>Node0x555fc6018d18&#45;&gt;Node0x555fc60208d8</title>
<path fill="none" stroke="black" d="M334.81,-122.98C376.19,-117.63 421.68,-111.75 463.67,-106.31"/>
<polygon fill="black" stroke="black" points="464.23,-109.77 473.7,-105.02 463.34,-102.83 464.23,-109.77"/>
</g>
<!-- Node0x555fc60240c8 -->
<g id="node21" class="node">
<title>Node0x555fc60240c8</title>
<polygon fill="none" stroke="black" points="1216.5,-59 853.5,-59 853.5,-23 1216.5,-23 1216.5,-59"/>
<text text-anchor="middle" x="1035" y="-37.3" font-family="Times,serif" font-size="14.00">{lib/libLLVMGlobalISel.a(RegBankSelect.cpp.o)}</text>
</g>
<!-- Node0x555fc6018d18&#45;&gt;Node0x555fc60240c8 -->
<g id="edge24" class="edge">
<title>Node0x555fc6018d18&#45;&gt;Node0x555fc60240c8</title>
<path fill="none" stroke="black" d="M234.68,-122.97C279.57,-103.32 355.85,-72.96 425,-60 563.29,-34.09 722.28,-29.97 843.13,-32"/>
<polygon fill="black" stroke="black" points="843.17,-35.5 853.23,-32.18 843.29,-28.5 843.17,-35.5"/>
</g>
<!-- Node0x555fc60208d8&#45;&gt;Node0x555fc6022ef8 -->
<g id="edge35" class="edge">
<title>Node0x555fc60208d8&#45;&gt;Node0x555fc6022ef8</title>
<path fill="none" stroke="black" d="M773.2,-79.76C898.36,-76.93 1077.07,-79.37 1231,-106 1292.06,-116.56 1359.33,-139.81 1404.56,-157.25"/>
<polygon fill="black" stroke="black" points="1403.57,-160.62 1414.15,-160.99 1406.11,-154.09 1403.57,-160.62"/>
</g>
<!-- Node0x555fc60240c8&#45;&gt;Node0x555fc6024d48 -->
<g id="edge32" class="edge">
<title>Node0x555fc60240c8&#45;&gt;Node0x555fc6024d48</title>
<path fill="none" stroke="black" d="M1145.9,-59C1176.58,-68.62 1207.83,-83.37 1231,-106 1264.8,-139 1230.98,-175.44 1267,-206 1272.25,-210.46 1277.89,-214.43 1283.81,-217.95"/>
<polygon fill="black" stroke="black" points="1282.22,-221.08 1292.67,-222.82 1285.59,-214.94 1282.22,-221.08"/>
</g>
<!-- Node0x555fc60240c8&#45;&gt;Node0x555fc6022ef8 -->
<g id="edge34" class="edge">
<title>Node0x555fc60240c8&#45;&gt;Node0x555fc6022ef8</title>
<path fill="none" stroke="black" d="M1175.31,-59.04C1194.22,-62.89 1213.22,-67.5 1231,-73 1298.95,-94.03 1372.7,-131.56 1417,-155.86"/>
<polygon fill="black" stroke="black" points="1415.54,-159.05 1425.99,-160.83 1418.93,-152.93 1415.54,-159.05"/>
</g>
<!-- Node0x555fc60240c8&#45;&gt;Node0x555fc6023718 -->
<g id="edge33" class="edge">
<title>Node0x555fc60240c8&#45;&gt;Node0x555fc6023718</title>
<path fill="none" stroke="black" d="M1216.55,-41C1356.9,-41 1551.44,-41 1696.41,-41"/>
<polygon fill="black" stroke="black" points="1696.76,-44.5 1706.76,-41 1696.76,-37.5 1696.76,-44.5"/>
</g>
<!-- Node0x555fc6019e48&#45;&gt;Node0x555fc6024d48 -->
<g id="edge36" class="edge">
<title>Node0x555fc6019e48&#45;&gt;Node0x555fc6024d48</title>
<path fill="none" stroke="black" d="M2283.62,-199.89C2237.18,-185.84 2169.07,-167.53 2108,-160 2014.93,-148.52 1770.3,-118.93 1686,-160 1662.66,-171.37 1672.21,-192.56 1650,-206 1641.48,-211.16 1632.38,-215.59 1622.94,-219.4"/>
<polygon fill="black" stroke="black" points="1621.53,-216.19 1613.41,-223 1624,-222.74 1621.53,-216.19"/>
</g>
</g>
</svg>
