<?xml version="1.0" encoding="UTF-8" standalone="no"?>
<!DOCTYPE svg PUBLIC "-//W3C//DTD SVG 1.1//EN"
 "http://www.w3.org/Graphics/SVG/1.1/DTD/svg11.dtd">
<!-- Generated by graphviz version 2.43.0 (0)
 -->
<!-- Title: bin/llvm&#45;rtdyld Pages: 1 -->
<svg width="1820pt" height="355pt"
 viewBox="0.00 0.00 1820.15 355.00" xmlns="http://www.w3.org/2000/svg" xmlns:xlink="http://www.w3.org/1999/xlink">
<g id="graph0" class="graph" transform="scale(1 1) rotate(0) translate(4 351)">
<title>bin/llvm&#45;rtdyld</title>
<polygon fill="white" stroke="transparent" points="-4,4 -4,-351 1816.15,-351 1816.15,4 -4,4"/>
<text text-anchor="middle" x="906.08" y="-7.8" font-family="Times,serif" font-size="14.00">bin/llvm&#45;rtdyld</text>
<!-- Node0x55866601d2c8 -->
<g id="node1" class="node">
<title>Node0x55866601d2c8</title>
<polygon fill="#ff7f7f" stroke="black" points="1252.5,-203 777.5,-203 777.5,-167 1252.5,-167 1252.5,-203"/>
<text text-anchor="middle" x="1015" y="-181.3" font-family="Times,serif" font-size="14.00">{tools/llvm&#45;rtdyld/CMakeFiles/llvm&#45;rtdyld.dir/llvm&#45;rtdyld.cpp.o}</text>
</g>
<!-- Node0x55866601d0e8 -->
<g id="node2" class="node">
<title>Node0x55866601d0e8</title>
<polygon fill="#ff7f7f" stroke="black" points="700.5,-131 449.5,-131 449.5,-95 700.5,-95 700.5,-131"/>
<text text-anchor="middle" x="575" y="-109.3" font-family="Times,serif" font-size="14.00">{lib/libLLVMX86Disassembler.a}</text>
</g>
<!-- Node0x55866601d2c8&#45;&gt;Node0x55866601d0e8 -->
<g id="edge1" class="edge">
<title>Node0x55866601d2c8&#45;&gt;Node0x55866601d0e8</title>
<path fill="none" stroke="#ff7f7f" d="M907.93,-166.97C842.72,-156.59 759.35,-143.33 692.36,-132.67"/>
<polygon fill="#ff7f7f" stroke="#ff7f7f" points="692.6,-129.16 682.17,-131.05 691.5,-136.08 692.6,-129.16"/>
</g>
<!-- Node0x55866601ae38 -->
<g id="node3" class="node">
<title>Node0x55866601ae38</title>
<polygon fill="#ff7f7f" stroke="black" points="431.5,-131 240.5,-131 240.5,-95 431.5,-95 431.5,-131"/>
<text text-anchor="middle" x="336" y="-109.3" font-family="Times,serif" font-size="14.00">{lib/libLLVMX86Desc.a}</text>
</g>
<!-- Node0x55866601d2c8&#45;&gt;Node0x55866601ae38 -->
<g id="edge2" class="edge">
<title>Node0x55866601d2c8&#45;&gt;Node0x55866601ae38</title>
<path fill="none" stroke="#ff7f7f" d="M782.52,-167C678.47,-158.26 554.13,-146.46 441.5,-132.33"/>
<polygon fill="#ff7f7f" stroke="#ff7f7f" points="441.7,-128.83 431.34,-131.04 440.82,-135.77 441.7,-128.83"/>
</g>
<!-- Node0x55866601b388 -->
<g id="node4" class="node">
<title>Node0x55866601b388</title>
<polygon fill="#ff7f7f" stroke="black" points="1107,-131 923,-131 923,-95 1107,-95 1107,-131"/>
<text text-anchor="middle" x="1015" y="-109.3" font-family="Times,serif" font-size="14.00">{lib/libLLVMX86Info.a}</text>
</g>
<!-- Node0x55866601d2c8&#45;&gt;Node0x55866601b388 -->
<g id="edge3" class="edge">
<title>Node0x55866601d2c8&#45;&gt;Node0x55866601b388</title>
<path fill="none" stroke="#ff7f7f" d="M1015,-166.7C1015,-158.98 1015,-149.71 1015,-141.11"/>
<polygon fill="#ff7f7f" stroke="#ff7f7f" points="1018.5,-141.1 1015,-131.1 1011.5,-141.1 1018.5,-141.1"/>
</g>
<!-- Node0x55866601b838 -->
<g id="node5" class="node">
<title>Node0x55866601b838</title>
<polygon fill="#ff7f7f" stroke="black" points="1589.5,-131 1334.5,-131 1334.5,-95 1589.5,-95 1589.5,-131"/>
<text text-anchor="middle" x="1462" y="-109.3" font-family="Times,serif" font-size="14.00">{lib/libLLVMDebugInfoDWARF.a}</text>
</g>
<!-- Node0x55866601d2c8&#45;&gt;Node0x55866601b838 -->
<g id="edge4" class="edge">
<title>Node0x55866601d2c8&#45;&gt;Node0x55866601b838</title>
<path fill="none" stroke="#ff7f7f" d="M1117.89,-166.97C1183.17,-156.57 1268.03,-143.27 1337.15,-132.6"/>
<polygon fill="#ff7f7f" stroke="#ff7f7f" points="1337.88,-136.03 1347.23,-131.05 1336.82,-129.12 1337.88,-136.03"/>
</g>
<!-- Node0x55866601ee48 -->
<g id="node6" class="node">
<title>Node0x55866601ee48</title>
<polygon fill="#ff7f7f" stroke="black" points="1782.5,-131 1607.5,-131 1607.5,-95 1782.5,-95 1782.5,-131"/>
<text text-anchor="middle" x="1695" y="-109.3" font-family="Times,serif" font-size="14.00">{lib/libLLVMObject.a}</text>
</g>
<!-- Node0x55866601d2c8&#45;&gt;Node0x55866601ee48 -->
<g id="edge5" class="edge">
<title>Node0x55866601d2c8&#45;&gt;Node0x55866601ee48</title>
<path fill="none" stroke="#ff7f7f" d="M1244.89,-166.99C1350.23,-158.22 1476.6,-146.16 1590,-131 1592.37,-130.68 1594.77,-130.35 1597.2,-130"/>
<polygon fill="#ff7f7f" stroke="#ff7f7f" points="1597.88,-133.44 1607.26,-128.5 1596.85,-126.51 1597.88,-133.44"/>
</g>
<!-- Node0x55866601e8f8 -->
<g id="node7" class="node">
<title>Node0x55866601e8f8</title>
<polygon fill="#ff7f7f" stroke="black" points="1316.5,-131 1163.5,-131 1163.5,-95 1316.5,-95 1316.5,-131"/>
<text text-anchor="middle" x="1240" y="-109.3" font-family="Times,serif" font-size="14.00">{lib/libLLVMMC.a}</text>
</g>
<!-- Node0x55866601d2c8&#45;&gt;Node0x55866601e8f8 -->
<g id="edge6" class="edge">
<title>Node0x55866601d2c8&#45;&gt;Node0x55866601e8f8</title>
<path fill="none" stroke="#ff7f7f" d="M1063.87,-166.97C1094.67,-157.06 1134.89,-144.51 1169.15,-134.12"/>
<polygon fill="#ff7f7f" stroke="#ff7f7f" points="1170.55,-137.36 1179.11,-131.11 1168.52,-130.65 1170.55,-137.36"/>
</g>
<!-- Node0x55866601f2f8 -->
<g id="node8" class="node">
<title>Node0x55866601f2f8</title>
<polygon fill="#ff7f7f" stroke="black" points="222,-131 0,-131 0,-95 222,-95 222,-131"/>
<text text-anchor="middle" x="111" y="-109.3" font-family="Times,serif" font-size="14.00">{lib/libLLVMRuntimeDyld.a}</text>
</g>
<!-- Node0x55866601d2c8&#45;&gt;Node0x55866601f2f8 -->
<g id="edge7" class="edge">
<title>Node0x55866601d2c8&#45;&gt;Node0x55866601f2f8</title>
<path fill="none" stroke="#ff7f7f" d="M777.15,-172.88C622.2,-164.39 415.51,-150.92 231.8,-132.02"/>
<polygon fill="#ff7f7f" stroke="#ff7f7f" points="231.99,-128.52 221.69,-130.97 231.27,-135.48 231.99,-128.52"/>
</g>
<!-- Node0x55866601d8b8 -->
<g id="node9" class="node">
<title>Node0x55866601d8b8</title>
<polygon fill="#ff7f7f" stroke="black" points="905,-131 719,-131 719,-95 905,-95 905,-131"/>
<text text-anchor="middle" x="812" y="-109.3" font-family="Times,serif" font-size="14.00">{lib/libLLVMSupport.a}</text>
</g>
<!-- Node0x55866601d2c8&#45;&gt;Node0x55866601d8b8 -->
<g id="edge8" class="edge">
<title>Node0x55866601d2c8&#45;&gt;Node0x55866601d8b8</title>
<path fill="none" stroke="#ff7f7f" d="M959.71,-166.97C930.32,-157.19 894.4,-144.84 865.31,-134.52"/>
<polygon fill="#ff7f7f" stroke="#ff7f7f" points="866.32,-131.17 855.73,-131.11 863.97,-137.76 866.32,-131.17"/>
</g>
<!-- Node0x55866601d0e8&#45;&gt;Node0x55866601b388 -->
<g id="edge9" class="edge">
<title>Node0x55866601d0e8&#45;&gt;Node0x55866601b388</title>
<path fill="none" stroke="#ff7f7f" d="M633.24,-131.01C659.21,-138.14 690.35,-145.47 719,-149 801.05,-159.1 823.36,-162.02 905,-149 923.67,-146.02 943.47,-140.37 961.05,-134.41"/>
<polygon fill="#ff7f7f" stroke="#ff7f7f" points="962.29,-137.69 970.57,-131.09 959.98,-131.08 962.29,-137.69"/>
</g>
<!-- Node0x55866601d0e8&#45;&gt;Node0x55866601d8b8 -->
<g id="edge10" class="edge">
<title>Node0x55866601d0e8&#45;&gt;Node0x55866601d8b8</title>
<path fill="none" stroke="#ff7f7f" d="M700.91,-113C703.5,-113 706.1,-113 708.69,-113"/>
<polygon fill="#ff7f7f" stroke="#ff7f7f" points="708.7,-116.5 718.7,-113 708.7,-109.5 708.7,-116.5"/>
</g>
<!-- Node0x55866601ddb8 -->
<g id="node10" class="node">
<title>Node0x55866601ddb8</title>
<polygon fill="none" stroke="black" points="580,-59 332,-59 332,-23 580,-23 580,-59"/>
<text text-anchor="middle" x="456" y="-37.3" font-family="Times,serif" font-size="14.00">{lib/libLLVMMCDisassembler.a}</text>
</g>
<!-- Node0x55866601d0e8&#45;&gt;Node0x55866601ddb8 -->
<g id="edge11" class="edge">
<title>Node0x55866601d0e8&#45;&gt;Node0x55866601ddb8</title>
<path fill="none" stroke="black" d="M545.89,-94.88C530.33,-85.72 510.98,-74.34 494.22,-64.48"/>
<polygon fill="black" stroke="black" points="495.62,-61.24 485.22,-59.19 492.07,-67.28 495.62,-61.24"/>
</g>
<!-- Node0x55866601ae38&#45;&gt;Node0x55866601d2c8 -->
<g id="edge16" class="edge">
<title>Node0x55866601ae38&#45;&gt;Node0x55866601d2c8</title>
<path fill="none" stroke="#ff7f7f" d="M431.74,-128.65C437.59,-129.49 443.37,-130.28 449,-131 560.75,-145.27 685.19,-157.22 788.88,-166.14"/>
<polygon fill="#ff7f7f" stroke="#ff7f7f" points="788.59,-169.63 798.85,-167 789.18,-162.66 788.59,-169.63"/>
</g>
<!-- Node0x55866601ae38&#45;&gt;Node0x55866601b388 -->
<g id="edge12" class="edge">
<title>Node0x55866601ae38&#45;&gt;Node0x55866601b388</title>
<path fill="none" stroke="#ff7f7f" d="M381.68,-131.09C401.95,-138.19 426.32,-145.47 449,-149 549.13,-164.56 804.93,-164.96 905,-149 923.67,-146.02 943.47,-140.37 961.05,-134.41"/>
<polygon fill="#ff7f7f" stroke="#ff7f7f" points="962.29,-137.69 970.57,-131.09 959.98,-131.08 962.29,-137.69"/>
</g>
<!-- Node0x55866601ae38&#45;&gt;Node0x55866601e8f8 -->
<g id="edge13" class="edge">
<title>Node0x55866601ae38&#45;&gt;Node0x55866601e8f8</title>
<path fill="none" stroke="#ff7f7f" d="M390.8,-131.03C408.25,-135.93 427.75,-140.56 446,-143 522.76,-153.28 1066.42,-154.57 1143,-143 1155.92,-141.05 1169.48,-137.71 1182.24,-133.96"/>
<polygon fill="#ff7f7f" stroke="#ff7f7f" points="1183.28,-137.3 1191.82,-131.02 1181.23,-130.61 1183.28,-137.3"/>
</g>
<!-- Node0x55866601ae38&#45;&gt;Node0x55866601d8b8 -->
<g id="edge14" class="edge">
<title>Node0x55866601ae38&#45;&gt;Node0x55866601d8b8</title>
<path fill="none" stroke="#ff7f7f" d="M390.8,-131.03C408.25,-135.93 427.75,-140.56 446,-143 559.21,-158.16 589.81,-158.29 703,-143 717.7,-141.01 733.21,-137.59 747.79,-133.74"/>
<polygon fill="#ff7f7f" stroke="#ff7f7f" points="748.98,-137.04 757.7,-131.03 747.13,-130.29 748.98,-137.04"/>
</g>
<!-- Node0x55866601ae38&#45;&gt;Node0x55866601ddb8 -->
<g id="edge15" class="edge">
<title>Node0x55866601ae38&#45;&gt;Node0x55866601ddb8</title>
<path fill="none" stroke="black" d="M365.36,-94.88C381.05,-85.72 400.56,-74.34 417.45,-64.48"/>
<polygon fill="black" stroke="black" points="419.66,-67.25 426.53,-59.19 416.13,-61.21 419.66,-67.25"/>
</g>
<!-- Node0x558666024618 -->
<g id="node11" class="node">
<title>Node0x558666024618</title>
<polygon fill="#ff7f7f" stroke="black" points="1575.5,-59 1348.5,-59 1348.5,-23 1575.5,-23 1575.5,-59"/>
<text text-anchor="middle" x="1462" y="-37.3" font-family="Times,serif" font-size="14.00">{lib/libLLVMBinaryFormat.a}</text>
</g>
<!-- Node0x55866601ae38&#45;&gt;Node0x558666024618 -->
<g id="edge17" class="edge">
<title>Node0x55866601ae38&#45;&gt;Node0x558666024618</title>
<path fill="none" stroke="#ff7f7f" d="M431.72,-95.95C434.51,-95.61 437.27,-95.29 440,-95 762.8,-60.35 1145.48,-48.16 1338.1,-44.03"/>
<polygon fill="#ff7f7f" stroke="#ff7f7f" points="1338.33,-47.52 1348.25,-43.81 1338.18,-40.52 1338.33,-47.52"/>
</g>
<!-- Node0x55866601b388&#45;&gt;Node0x55866601d8b8 -->
<g id="edge18" class="edge">
<title>Node0x55866601b388&#45;&gt;Node0x55866601d8b8</title>
<path fill="none" stroke="#ff7f7f" d="M922.76,-113C920.29,-113 917.82,-113 915.34,-113"/>
<polygon fill="#ff7f7f" stroke="#ff7f7f" points="915.17,-109.5 905.17,-113 915.17,-116.5 915.17,-109.5"/>
</g>
<!-- Node0x55866601b838&#45;&gt;Node0x55866601d2c8 -->
<g id="edge19" class="edge">
<title>Node0x55866601b838&#45;&gt;Node0x55866601d2c8</title>
<path fill="none" stroke="#ff7f7f" d="M1359.01,-131.05C1293.71,-141.45 1208.85,-154.74 1139.74,-165.41"/>
<polygon fill="#ff7f7f" stroke="#ff7f7f" points="1139.01,-161.98 1129.66,-166.97 1140.08,-168.9 1139.01,-161.98"/>
</g>
<!-- Node0x55866601b838&#45;&gt;Node0x55866601ae38 -->
<g id="edge20" class="edge">
<title>Node0x55866601b838&#45;&gt;Node0x55866601ae38</title>
<path fill="none" stroke="#ff7f7f" d="M1403.35,-131.01C1377.19,-138.14 1345.84,-145.47 1317,-149 1221.27,-160.71 544.3,-163.81 449,-149 429.77,-146.01 409.34,-140.32 391.21,-134.33"/>
<polygon fill="#ff7f7f" stroke="#ff7f7f" points="392.28,-131 381.68,-131.09 390.02,-137.63 392.28,-131"/>
</g>
<!-- Node0x55866601b838&#45;&gt;Node0x55866601ee48 -->
<g id="edge21" class="edge">
<title>Node0x55866601b838&#45;&gt;Node0x55866601ee48</title>
<path fill="none" stroke="#ff7f7f" d="M1589.88,-99.63C1592.21,-99.68 1594.55,-99.75 1596.88,-99.84"/>
<polygon fill="#ff7f7f" stroke="#ff7f7f" points="1596.97,-103.34 1607.12,-100.31 1597.3,-96.35 1596.97,-103.34"/>
</g>
<!-- Node0x55866601b838&#45;&gt;Node0x55866601e8f8 -->
<g id="edge24" class="edge">
<title>Node0x55866601b838&#45;&gt;Node0x55866601e8f8</title>
<path fill="none" stroke="#ff7f7f" d="M1334.34,-99.8C1331.86,-99.89 1329.39,-100.01 1326.91,-100.14"/>
<polygon fill="#ff7f7f" stroke="#ff7f7f" points="1326.5,-96.65 1316.75,-100.79 1326.95,-103.64 1326.5,-96.65"/>
</g>
<!-- Node0x55866601b838&#45;&gt;Node0x55866601d8b8 -->
<g id="edge22" class="edge">
<title>Node0x55866601b838&#45;&gt;Node0x55866601d8b8</title>
<path fill="none" stroke="#ff7f7f" d="M1390.95,-131.04C1368.42,-135.94 1343.31,-140.56 1320,-143 1231.59,-152.24 1008.07,-155.01 920,-143 905.43,-141.01 890.05,-137.59 875.61,-133.74"/>
<polygon fill="#ff7f7f" stroke="#ff7f7f" points="876.36,-130.32 865.79,-131.03 874.49,-137.06 876.36,-130.32"/>
</g>
<!-- Node0x55866601b838&#45;&gt;Node0x558666024618 -->
<g id="edge23" class="edge">
<title>Node0x55866601b838&#45;&gt;Node0x558666024618</title>
<path fill="none" stroke="#ff7f7f" d="M1456.08,-94.7C1455.29,-86.98 1455.06,-77.71 1455.4,-69.11"/>
<polygon fill="#ff7f7f" stroke="#ff7f7f" points="1458.9,-69.32 1456.1,-59.1 1451.92,-68.84 1458.9,-69.32"/>
</g>
<!-- Node0x55866601ee48&#45;&gt;Node0x55866601d2c8 -->
<g id="edge25" class="edge">
<title>Node0x55866601ee48&#45;&gt;Node0x55866601d2c8</title>
<path fill="none" stroke="#ff7f7f" d="M1607.66,-131.05C1494.96,-146.1 1369.48,-158.1 1263.08,-166.84"/>
<polygon fill="#ff7f7f" stroke="#ff7f7f" points="1262.53,-163.38 1252.85,-167.68 1263.1,-170.35 1262.53,-163.38"/>
</g>
<!-- Node0x55866601ee48&#45;&gt;Node0x55866601ae38 -->
<g id="edge29" class="edge">
<title>Node0x55866601ee48&#45;&gt;Node0x55866601ae38</title>
<path fill="none" stroke="#ff7f7f" d="M1652.66,-131.08C1633.85,-138.18 1611.19,-145.47 1590,-149 1464.95,-169.84 574.27,-168.47 449,-149 429.77,-146.01 409.34,-140.32 391.21,-134.33"/>
<polygon fill="#ff7f7f" stroke="#ff7f7f" points="392.28,-131 381.68,-131.09 390.02,-137.63 392.28,-131"/>
</g>
<!-- Node0x55866601ee48&#45;&gt;Node0x55866601b838 -->
<g id="edge28" class="edge">
<title>Node0x55866601ee48&#45;&gt;Node0x55866601b838</title>
<path fill="none" stroke="#ff7f7f" d="M1607.12,-125.69C1604.79,-125.82 1602.45,-125.93 1600.12,-126.04"/>
<polygon fill="#ff7f7f" stroke="#ff7f7f" points="1599.76,-122.55 1589.88,-126.37 1599.99,-129.54 1599.76,-122.55"/>
</g>
<!-- Node0x55866601ee48&#45;&gt;Node0x55866601e8f8 -->
<g id="edge30" class="edge">
<title>Node0x55866601ee48&#45;&gt;Node0x55866601e8f8</title>
<path fill="none" stroke="#ff7f7f" d="M1652.66,-131.08C1633.85,-138.18 1611.19,-145.47 1590,-149 1478.21,-167.63 1446.48,-169.41 1335,-149 1319.2,-146.11 1302.62,-140.72 1287.82,-134.97"/>
<polygon fill="#ff7f7f" stroke="#ff7f7f" points="1288.96,-131.66 1278.37,-131.17 1286.34,-138.15 1288.96,-131.66"/>
</g>
<!-- Node0x55866601ee48&#45;&gt;Node0x55866601d8b8 -->
<g id="edge26" class="edge">
<title>Node0x55866601ee48&#45;&gt;Node0x55866601d8b8</title>
<path fill="none" stroke="#ff7f7f" d="M1644.27,-131.02C1628.1,-135.92 1609.99,-140.55 1593,-143 1518.99,-153.66 994.09,-153.1 920,-143 905.43,-141.01 890.05,-137.59 875.61,-133.74"/>
<polygon fill="#ff7f7f" stroke="#ff7f7f" points="876.36,-130.32 865.79,-131.03 874.49,-137.06 876.36,-130.32"/>
</g>
<!-- Node0x55866601ee48&#45;&gt;Node0x558666024618 -->
<g id="edge27" class="edge">
<title>Node0x55866601ee48&#45;&gt;Node0x558666024618</title>
<path fill="none" stroke="#ff7f7f" d="M1638.3,-94.97C1605.32,-85.06 1563.57,-72.51 1528.97,-62.12"/>
<polygon fill="#ff7f7f" stroke="#ff7f7f" points="1529.54,-58.64 1518.95,-59.11 1527.52,-65.34 1529.54,-58.64"/>
</g>
<!-- Node0x55866601e8f8&#45;&gt;Node0x55866601d2c8 -->
<g id="edge33" class="edge">
<title>Node0x55866601e8f8&#45;&gt;Node0x55866601d2c8</title>
<path fill="none" stroke="#ff7f7f" d="M1190.9,-131.11C1160.04,-141.03 1119.81,-153.58 1085.59,-163.96"/>
<polygon fill="#ff7f7f" stroke="#ff7f7f" points="1084.2,-160.72 1075.64,-166.97 1086.23,-167.42 1084.2,-160.72"/>
</g>
<!-- Node0x55866601e8f8&#45;&gt;Node0x55866601ae38 -->
<g id="edge31" class="edge">
<title>Node0x55866601e8f8&#45;&gt;Node0x55866601ae38</title>
<path fill="none" stroke="#ff7f7f" d="M1205.3,-131.09C1185.8,-140.23 1160.69,-150.36 1137,-155 1062.31,-169.64 526.97,-168.15 452,-155 429.24,-151.01 405.05,-142.92 384.69,-134.89"/>
<polygon fill="#ff7f7f" stroke="#ff7f7f" points="385.91,-131.61 375.32,-131.1 383.28,-138.1 385.91,-131.61"/>
</g>
<!-- Node0x55866601e8f8&#45;&gt;Node0x55866601b838 -->
<g id="edge34" class="edge">
<title>Node0x55866601e8f8&#45;&gt;Node0x55866601b838</title>
<path fill="none" stroke="#ff7f7f" d="M1316.75,-125.21C1319.22,-125.4 1321.69,-125.57 1324.17,-125.71"/>
<polygon fill="#ff7f7f" stroke="#ff7f7f" points="1324.18,-129.22 1334.34,-126.2 1324.51,-122.22 1324.18,-129.22"/>
</g>
<!-- Node0x55866601e8f8&#45;&gt;Node0x55866601d8b8 -->
<g id="edge32" class="edge">
<title>Node0x55866601e8f8&#45;&gt;Node0x55866601d8b8</title>
<path fill="none" stroke="#ff7f7f" d="M1191.82,-131.02C1176.44,-135.92 1159.21,-140.55 1143,-143 1045,-157.81 1018.2,-156.39 920,-143 905.43,-141.01 890.05,-137.59 875.61,-133.74"/>
<polygon fill="#ff7f7f" stroke="#ff7f7f" points="876.36,-130.32 865.79,-131.03 874.49,-137.06 876.36,-130.32"/>
</g>
<!-- Node0x55866601f2f8&#45;&gt;Node0x55866601d2c8 -->
<g id="edge35" class="edge">
<title>Node0x55866601f2f8&#45;&gt;Node0x55866601d2c8</title>
<path fill="none" stroke="#ff7f7f" d="M222.05,-128.98C228.13,-129.71 234.14,-130.39 240,-131 415.91,-149.38 614.72,-162.74 766.95,-171.44"/>
<polygon fill="#ff7f7f" stroke="#ff7f7f" points="767.19,-174.96 777.37,-172.04 767.59,-167.97 767.19,-174.96"/>
</g>
<!-- Node0x55866601f2f8&#45;&gt;Node0x55866601ae38 -->
<g id="edge39" class="edge">
<title>Node0x55866601f2f8&#45;&gt;Node0x55866601ae38</title>
<path fill="none" stroke="#ff7f7f" d="M222.18,-113C224.84,-113 227.5,-113 230.16,-113"/>
<polygon fill="#ff7f7f" stroke="#ff7f7f" points="230.41,-116.5 240.41,-113 230.41,-109.5 230.41,-116.5"/>
</g>
<!-- Node0x55866601f2f8&#45;&gt;Node0x55866601b838 -->
<g id="edge38" class="edge">
<title>Node0x55866601f2f8&#45;&gt;Node0x55866601b838</title>
<path fill="none" stroke="#ff7f7f" d="M163.04,-131C186.28,-138.14 214.2,-145.47 240,-149 358.56,-165.23 1198.22,-163.52 1317,-149 1342.34,-145.9 1369.64,-139.86 1393.63,-133.6"/>
<polygon fill="#ff7f7f" stroke="#ff7f7f" points="1394.59,-136.97 1403.35,-131.01 1392.78,-130.21 1394.59,-136.97"/>
</g>
<!-- Node0x55866601f2f8&#45;&gt;Node0x55866601ee48 -->
<g id="edge36" class="edge">
<title>Node0x55866601f2f8&#45;&gt;Node0x55866601ee48</title>
<path fill="none" stroke="#ff7f7f" d="M163.04,-131C186.28,-138.14 214.2,-145.47 240,-149 388.61,-169.35 1442.04,-173.66 1590,-149 1607.72,-146.05 1626.45,-140.47 1643.12,-134.58"/>
<polygon fill="#ff7f7f" stroke="#ff7f7f" points="1644.47,-137.81 1652.66,-131.08 1642.07,-131.23 1644.47,-137.81"/>
</g>
<!-- Node0x55866601f2f8&#45;&gt;Node0x55866601e8f8 -->
<g id="edge40" class="edge">
<title>Node0x55866601f2f8&#45;&gt;Node0x55866601e8f8</title>
<path fill="none" stroke="#ff7f7f" d="M163.04,-131C186.28,-138.14 214.2,-145.47 240,-149 339.08,-162.57 1041.49,-166.19 1140,-149 1156.71,-146.08 1174.31,-140.62 1190.01,-134.82"/>
<polygon fill="#ff7f7f" stroke="#ff7f7f" points="1191.43,-138.02 1199.52,-131.18 1188.93,-131.48 1191.43,-138.02"/>
</g>
<!-- Node0x55866601f2f8&#45;&gt;Node0x55866601d8b8 -->
<g id="edge37" class="edge">
<title>Node0x55866601f2f8&#45;&gt;Node0x55866601d8b8</title>
<path fill="none" stroke="#ff7f7f" d="M163.04,-131C186.28,-138.14 214.2,-145.47 240,-149 341.28,-162.87 599.01,-164.83 700,-149 718.98,-146.02 739.14,-140.37 757.04,-134.42"/>
<polygon fill="#ff7f7f" stroke="#ff7f7f" points="758.41,-137.65 766.74,-131.09 756.14,-131.03 758.41,-137.65"/>
</g>
<!-- Node0x55866601d8b8&#45;&gt;Node0x55866601d2c8 -->
<g id="edge44" class="edge">
<title>Node0x55866601d8b8&#45;&gt;Node0x55866601d2c8</title>
<path fill="none" stroke="#ff7f7f" d="M867.52,-131.11C896.95,-140.9 932.86,-153.25 961.92,-163.56"/>
<polygon fill="#ff7f7f" stroke="#ff7f7f" points="960.89,-166.91 971.49,-166.97 963.24,-160.31 960.89,-166.91"/>
</g>
<!-- Node0x55866601d8b8&#45;&gt;Node0x55866601ae38 -->
<g id="edge45" class="edge">
<title>Node0x55866601d8b8&#45;&gt;Node0x55866601ae38</title>
<path fill="none" stroke="#ff7f7f" d="M773.03,-131.1C751.19,-140.25 723.16,-150.37 697,-155 643.39,-164.48 505.63,-164.41 452,-155 429.24,-151.01 405.05,-142.92 384.69,-134.89"/>
<polygon fill="#ff7f7f" stroke="#ff7f7f" points="385.91,-131.61 375.32,-131.1 383.28,-138.1 385.91,-131.61"/>
</g>
<!-- Node0x55866601d8b8&#45;&gt;Node0x55866601b838 -->
<g id="edge43" class="edge">
<title>Node0x55866601d8b8&#45;&gt;Node0x55866601b838</title>
<path fill="none" stroke="#ff7f7f" d="M850.61,-131.1C872.26,-140.25 900.04,-150.37 926,-155 1010.88,-170.14 1228.6,-166.88 1314,-155 1343.57,-150.89 1375.53,-142.36 1402.16,-134.05"/>
<polygon fill="#ff7f7f" stroke="#ff7f7f" points="1403.25,-137.38 1411.71,-131.01 1401.12,-130.71 1403.25,-137.38"/>
</g>
<!-- Node0x55866601d8b8&#45;&gt;Node0x55866601ee48 -->
<g id="edge42" class="edge">
<title>Node0x55866601d8b8&#45;&gt;Node0x55866601ee48</title>
<path fill="none" stroke="#ff7f7f" d="M850.61,-131.1C872.26,-140.25 900.04,-150.37 926,-155 998.3,-167.9 1514.81,-168.54 1587,-155 1608.14,-151.03 1630.47,-143.05 1649.3,-135.1"/>
<polygon fill="#ff7f7f" stroke="#ff7f7f" points="1650.74,-138.29 1658.52,-131.1 1647.95,-131.87 1650.74,-138.29"/>
</g>
<!-- Node0x55866601d8b8&#45;&gt;Node0x55866601e8f8 -->
<g id="edge41" class="edge">
<title>Node0x55866601d8b8&#45;&gt;Node0x55866601e8f8</title>
<path fill="none" stroke="#ff7f7f" d="M850.61,-131.1C872.26,-140.25 900.04,-150.37 926,-155 972.16,-163.23 1090.99,-164.02 1137,-155 1156.99,-151.08 1177.99,-143.26 1195.77,-135.42"/>
<polygon fill="#ff7f7f" stroke="#ff7f7f" points="1197.65,-138.42 1205.3,-131.09 1194.75,-132.05 1197.65,-138.42"/>
</g>
<!-- Node0x558666024618&#45;&gt;Node0x55866601d2c8 -->
<g id="edge48" class="edge">
<title>Node0x558666024618&#45;&gt;Node0x55866601d2c8</title>
<path fill="none" stroke="#ff7f7f" d="M1348.19,-46.19C1288.16,-52.13 1214.79,-65.51 1155,-95 1133.84,-105.43 1135.28,-117.4 1116,-131 1099.48,-142.65 1080.07,-153.44 1062.71,-162.2"/>
<polygon fill="#ff7f7f" stroke="#ff7f7f" points="1060.72,-159.28 1053.3,-166.85 1063.82,-165.56 1060.72,-159.28"/>
</g>
<!-- Node0x558666024618&#45;&gt;Node0x55866601b838 -->
<g id="edge46" class="edge">
<title>Node0x558666024618&#45;&gt;Node0x55866601b838</title>
<path fill="none" stroke="#ff7f7f" d="M1467.9,-59.1C1468.7,-66.79 1468.94,-76.05 1468.6,-84.67"/>
<polygon fill="#ff7f7f" stroke="#ff7f7f" points="1465.11,-84.48 1467.92,-94.7 1472.09,-84.96 1465.11,-84.48"/>
</g>
<!-- Node0x558666024618&#45;&gt;Node0x55866601d8b8 -->
<g id="edge47" class="edge">
<title>Node0x558666024618&#45;&gt;Node0x55866601d8b8</title>
<path fill="none" stroke="#ff7f7f" d="M1348.39,-50.7C1239.77,-59.54 1071.16,-74.64 915.32,-94.88"/>
<polygon fill="#ff7f7f" stroke="#ff7f7f" points="914.53,-91.45 905.07,-96.22 915.44,-98.39 914.53,-91.45"/>
</g>
<!-- Node0x558666021698 -->
<g id="node12" class="node">
<title>Node0x558666021698</title>
<polygon fill="none" stroke="black" points="1632.5,-275 1433.5,-275 1433.5,-239 1632.5,-239 1632.5,-275"/>
<text text-anchor="middle" x="1533" y="-253.3" font-family="Times,serif" font-size="14.00">{lib/libLLVMBitReader.a}</text>
</g>
<!-- Node0x558666021698&#45;&gt;Node0x55866601d2c8 -->
<g id="edge49" class="edge">
<title>Node0x558666021698&#45;&gt;Node0x55866601d2c8</title>
<path fill="none" stroke="black" d="M1433.27,-240.2C1430.49,-239.79 1427.72,-239.39 1425,-239 1338.82,-226.65 1242.25,-214.1 1164.5,-204.32"/>
<polygon fill="black" stroke="black" points="1164.5,-200.79 1154.14,-203.02 1163.62,-207.74 1164.5,-200.79"/>
</g>
<!-- Node0x558666021698&#45;&gt;Node0x55866601b838 -->
<g id="edge50" class="edge">
<title>Node0x558666021698&#45;&gt;Node0x55866601b838</title>
<path fill="none" stroke="black" d="M1546.3,-238.95C1559.13,-220.27 1574.73,-189.93 1561,-167 1552.99,-153.62 1540.32,-143.43 1526.69,-135.74"/>
<polygon fill="black" stroke="black" points="1528.11,-132.54 1517.63,-131.04 1524.89,-138.75 1528.11,-132.54"/>
</g>
<!-- Node0x558666021698&#45;&gt;Node0x55866601ee48 -->
<g id="edge52" class="edge">
<title>Node0x558666021698&#45;&gt;Node0x55866601ee48</title>
<path fill="none" stroke="black" d="M1552.54,-238.87C1581.25,-213.71 1634.93,-166.65 1667.57,-138.04"/>
<polygon fill="black" stroke="black" points="1670.18,-140.41 1675.39,-131.19 1665.56,-135.15 1670.18,-140.41"/>
</g>
<!-- Node0x558666021698&#45;&gt;Node0x55866601e8f8 -->
<g id="edge51" class="edge">
<title>Node0x558666021698&#45;&gt;Node0x55866601e8f8</title>
<path fill="none" stroke="black" d="M1497.94,-238.9C1461.11,-220.95 1401.51,-191.94 1350,-167 1328.59,-156.63 1304.81,-145.17 1284.85,-135.57"/>
<polygon fill="black" stroke="black" points="1286.21,-132.34 1275.68,-131.15 1283.18,-138.64 1286.21,-132.34"/>
</g>
<!-- Node0x558666021698&#45;&gt;Node0x55866601d8b8 -->
<g id="edge53" class="edge">
<title>Node0x558666021698&#45;&gt;Node0x55866601d8b8</title>
<path fill="none" stroke="black" d="M1433.31,-239.93C1430.51,-239.6 1427.74,-239.29 1425,-239 1352.41,-231.31 819.18,-256.01 769,-203 751.61,-184.63 768.51,-157.9 785.97,-138.53"/>
<polygon fill="black" stroke="black" points="788.54,-140.91 792.88,-131.25 783.46,-136.1 788.54,-140.91"/>
</g>
<!-- Node0x558666021198 -->
<g id="node13" class="node">
<title>Node0x558666021198</title>
<polygon fill="none" stroke="black" points="939,-275 741,-275 741,-239 939,-239 939,-275"/>
<text text-anchor="middle" x="840" y="-253.3" font-family="Times,serif" font-size="14.00">{lib/libLLVMMCParser.a}</text>
</g>
<!-- Node0x558666021198&#45;&gt;Node0x55866601d2c8 -->
<g id="edge54" class="edge">
<title>Node0x558666021198&#45;&gt;Node0x55866601d2c8</title>
<path fill="none" stroke="black" d="M882.81,-238.88C906.95,-229.22 937.28,-217.09 962.81,-206.88"/>
<polygon fill="black" stroke="black" points="964.34,-210.03 972.33,-203.07 961.74,-203.53 964.34,-210.03"/>
</g>
<!-- Node0x558666021198&#45;&gt;Node0x55866601ae38 -->
<g id="edge55" class="edge">
<title>Node0x558666021198&#45;&gt;Node0x55866601ae38</title>
<path fill="none" stroke="black" d="M777.7,-238.95C740.12,-228.62 691.28,-215.15 648,-203 564.35,-179.52 468.23,-152.03 405.04,-133.88"/>
<polygon fill="black" stroke="black" points="405.77,-130.44 395.19,-131.05 403.83,-137.17 405.77,-130.44"/>
</g>
<!-- Node0x558666021198&#45;&gt;Node0x55866601b838 -->
<g id="edge56" class="edge">
<title>Node0x558666021198&#45;&gt;Node0x55866601b838</title>
<path fill="none" stroke="black" d="M939.17,-240.2C942.48,-239.78 945.77,-239.38 949,-239 1050.84,-227.09 1321.9,-257.11 1409,-203 1431.58,-188.97 1445.75,-161.47 1453.7,-140.73"/>
<polygon fill="black" stroke="black" points="1457.04,-141.78 1457.11,-131.19 1450.45,-139.43 1457.04,-141.78"/>
</g>
<!-- Node0x558666021198&#45;&gt;Node0x55866601ee48 -->
<g id="edge58" class="edge">
<title>Node0x558666021198&#45;&gt;Node0x55866601ee48</title>
<path fill="none" stroke="black" d="M939.16,-240.18C942.48,-239.77 945.77,-239.37 949,-239 1165.5,-214.19 1224.57,-247.03 1438,-203 1512.72,-187.59 1595.51,-156.17 1646.41,-135.1"/>
<polygon fill="black" stroke="black" points="1647.96,-138.24 1655.84,-131.16 1645.26,-131.78 1647.96,-138.24"/>
</g>
<!-- Node0x558666021198&#45;&gt;Node0x55866601e8f8 -->
<g id="edge57" class="edge">
<title>Node0x558666021198&#45;&gt;Node0x55866601e8f8</title>
<path fill="none" stroke="black" d="M939.18,-240.31C942.49,-239.86 945.77,-239.42 949,-239 1025.66,-229.04 1243.24,-260.42 1295,-203 1312.87,-183.17 1292.1,-156.78 1271.16,-137.9"/>
<polygon fill="black" stroke="black" points="1273.37,-135.18 1263.51,-131.3 1268.81,-140.48 1273.37,-135.18"/>
</g>
<!-- Node0x558666021198&#45;&gt;Node0x55866601f2f8 -->
<g id="edge59" class="edge">
<title>Node0x558666021198&#45;&gt;Node0x55866601f2f8</title>
<path fill="none" stroke="black" d="M740.7,-239.86C664.06,-227.3 564.5,-210.76 524,-203 409.61,-181.09 278.22,-152.12 194.94,-133.28"/>
<polygon fill="black" stroke="black" points="195.55,-129.83 185.02,-131.03 194,-136.65 195.55,-129.83"/>
</g>
<!-- Node0x558666021198&#45;&gt;Node0x55866601d8b8 -->
<g id="edge60" class="edge">
<title>Node0x558666021198&#45;&gt;Node0x55866601d8b8</title>
<path fill="none" stroke="black" d="M745.04,-238.96C707.31,-230.08 670.19,-217.94 659,-203 634.92,-170.86 675.31,-148.33 720.62,-133.99"/>
<polygon fill="black" stroke="black" points="721.78,-137.3 730.34,-131.05 719.75,-130.59 721.78,-137.3"/>
</g>
<!-- Node0x558666020298 -->
<g id="node14" class="node">
<title>Node0x558666020298</title>
<polygon fill="none" stroke="black" points="723,-275 539,-275 539,-239 723,-239 723,-275"/>
<text text-anchor="middle" x="631" y="-253.3" font-family="Times,serif" font-size="14.00">{lib/libLLVMTextAPI.a}</text>
</g>
<!-- Node0x558666020298&#45;&gt;Node0x55866601d2c8 -->
<g id="edge62" class="edge">
<title>Node0x558666020298&#45;&gt;Node0x55866601d2c8</title>
<path fill="none" stroke="black" d="M723.47,-239.14C780.21,-228.8 853,-215.53 911.64,-204.84"/>
<polygon fill="black" stroke="black" points="912.46,-208.25 921.67,-203.01 911.21,-201.36 912.46,-208.25"/>
</g>
<!-- Node0x558666020298&#45;&gt;Node0x55866601ae38 -->
<g id="edge65" class="edge">
<title>Node0x558666020298&#45;&gt;Node0x55866601ae38</title>
<path fill="none" stroke="black" d="M595.42,-238.87C541.6,-212.96 439.55,-163.84 380.76,-135.55"/>
<polygon fill="black" stroke="black" points="382.24,-132.37 371.71,-131.19 379.2,-138.68 382.24,-132.37"/>
</g>
<!-- Node0x558666020298&#45;&gt;Node0x55866601b838 -->
<g id="edge63" class="edge">
<title>Node0x558666020298&#45;&gt;Node0x55866601b838</title>
<path fill="none" stroke="black" d="M723.14,-240.1C726.13,-239.71 729.09,-239.34 732,-239 974.44,-210.71 1044.14,-265.8 1280,-203 1333.98,-188.63 1391.02,-157.84 1426.56,-136.53"/>
<polygon fill="black" stroke="black" points="1428.83,-139.25 1435.55,-131.06 1425.19,-133.27 1428.83,-139.25"/>
</g>
<!-- Node0x558666020298&#45;&gt;Node0x55866601e8f8 -->
<g id="edge64" class="edge">
<title>Node0x558666020298&#45;&gt;Node0x55866601e8f8</title>
<path fill="none" stroke="black" d="M723.14,-240.1C726.13,-239.71 729.09,-239.34 732,-239 790.62,-232.09 1221.7,-246.13 1262,-203 1277.85,-186.03 1268.49,-159.5 1257.51,-139.81"/>
<polygon fill="black" stroke="black" points="1260.4,-137.83 1252.26,-131.04 1254.39,-141.42 1260.4,-137.83"/>
</g>
<!-- Node0x558666020298&#45;&gt;Node0x55866601d8b8 -->
<g id="edge61" class="edge">
<title>Node0x558666020298&#45;&gt;Node0x55866601d8b8</title>
<path fill="none" stroke="black" d="M629.44,-238.7C628.65,-218.95 630.51,-186.81 648,-167 659.04,-154.5 691.57,-142.83 724.78,-133.65"/>
<polygon fill="black" stroke="black" points="725.87,-136.98 734.62,-131 724.05,-130.22 725.87,-136.98"/>
</g>
<!-- Node0x558666024b18 -->
<g id="node15" class="node">
<title>Node0x558666024b18</title>
<polygon fill="none" stroke="black" points="1614,-347 1452,-347 1452,-311 1614,-311 1614,-347"/>
<text text-anchor="middle" x="1533" y="-325.3" font-family="Times,serif" font-size="14.00">{lib/libLLVMCore.a}</text>
</g>
<!-- Node0x558666024b18&#45;&gt;Node0x55866601d2c8 -->
<g id="edge66" class="edge">
<title>Node0x558666024b18&#45;&gt;Node0x55866601d2c8</title>
<path fill="none" stroke="black" d="M1451.79,-326.72C1218.59,-322.65 561.56,-308.27 530,-275 518.99,-263.39 519.32,-250.91 530,-239 547.12,-219.91 656.56,-207.02 767.16,-198.74"/>
<polygon fill="black" stroke="black" points="767.46,-202.22 777.17,-198 766.94,-195.24 767.46,-202.22"/>
</g>
<!-- Node0x558666024b18&#45;&gt;Node0x55866601ae38 -->
<g id="edge67" class="edge">
<title>Node0x558666024b18&#45;&gt;Node0x55866601ae38</title>
<path fill="none" stroke="black" d="M1451.9,-327.17C1223.22,-324.37 584.22,-313.17 498,-275 432.21,-245.88 378.29,-177.15 352.47,-139.6"/>
<polygon fill="black" stroke="black" points="355.31,-137.54 346.81,-131.2 349.5,-141.45 355.31,-137.54"/>
</g>
<!-- Node0x558666024b18&#45;&gt;Node0x55866601b838 -->
<g id="edge69" class="edge">
<title>Node0x558666024b18&#45;&gt;Node0x55866601b838</title>
<path fill="none" stroke="black" d="M1614.31,-315.72C1637.76,-308 1660.82,-295.43 1675,-275 1684.12,-261.86 1682.23,-253.28 1675,-239 1647.71,-185.09 1585.93,-152.66 1535.89,-134.39"/>
<polygon fill="black" stroke="black" points="1536.97,-131.06 1526.37,-131.03 1534.64,-137.66 1536.97,-131.06"/>
</g>
<!-- Node0x558666024b18&#45;&gt;Node0x55866601e8f8 -->
<g id="edge71" class="edge">
<title>Node0x558666024b18&#45;&gt;Node0x55866601e8f8</title>
<path fill="none" stroke="black" d="M1596.96,-310.95C1614.58,-303 1631.68,-291.5 1642,-275 1650.49,-261.44 1651.49,-251.88 1642,-239 1622.49,-212.51 1431.54,-161.44 1319.98,-133.48"/>
<polygon fill="black" stroke="black" points="1320.65,-130.04 1310.1,-131.01 1318.95,-136.83 1320.65,-130.04"/>
</g>
<!-- Node0x558666024b18&#45;&gt;Node0x55866601d8b8 -->
<g id="edge68" class="edge">
<title>Node0x558666024b18&#45;&gt;Node0x55866601d8b8</title>
<path fill="none" stroke="black" d="M1451.66,-326.77C1216.42,-322.82 549.98,-308.7 518,-275 450.43,-203.81 599.51,-156.54 709.09,-132.57"/>
<polygon fill="black" stroke="black" points="709.86,-135.99 718.9,-130.47 708.39,-129.15 709.86,-135.99"/>
</g>
<!-- Node0x558666024b18&#45;&gt;Node0x558666024618 -->
<g id="edge70" class="edge">
<title>Node0x558666024b18&#45;&gt;Node0x558666024618</title>
<path fill="none" stroke="black" d="M1614.26,-311.76C1640.82,-303.75 1669.29,-292.01 1692,-275 1765.25,-220.14 1851.36,-164.65 1792,-95 1765.49,-63.89 1668.23,-50.97 1586.11,-45.64"/>
<polygon fill="black" stroke="black" points="1586.11,-42.14 1575.92,-45.01 1585.68,-49.12 1586.11,-42.14"/>
</g>
<!-- Node0x558666024b18&#45;&gt;Node0x558666021698 -->
<g id="edge72" class="edge">
<title>Node0x558666024b18&#45;&gt;Node0x558666021698</title>
<path fill="none" stroke="black" d="M1533,-310.7C1533,-302.98 1533,-293.71 1533,-285.11"/>
<polygon fill="black" stroke="black" points="1536.5,-285.1 1533,-275.1 1529.5,-285.1 1536.5,-285.1"/>
</g>
<!-- Node0x558666024118 -->
<g id="node16" class="node">
<title>Node0x558666024118</title>
<polygon fill="none" stroke="black" points="1415.5,-275 1224.5,-275 1224.5,-239 1415.5,-239 1415.5,-275"/>
<text text-anchor="middle" x="1320" y="-253.3" font-family="Times,serif" font-size="14.00">{lib/libLLVMRemarks.a}</text>
</g>
<!-- Node0x558666024118&#45;&gt;Node0x55866601d2c8 -->
<g id="edge75" class="edge">
<title>Node0x558666024118&#45;&gt;Node0x55866601d2c8</title>
<path fill="none" stroke="black" d="M1245.78,-238.97C1201.51,-228.8 1145.16,-215.87 1099.22,-205.33"/>
<polygon fill="black" stroke="black" points="1099.82,-201.88 1089.29,-203.05 1098.25,-208.7 1099.82,-201.88"/>
</g>
<!-- Node0x558666024118&#45;&gt;Node0x55866601b838 -->
<g id="edge73" class="edge">
<title>Node0x558666024118&#45;&gt;Node0x55866601b838</title>
<path fill="none" stroke="black" d="M1403.03,-238.91C1438.67,-229.72 1474.54,-217.34 1485,-203 1498.41,-184.6 1489.73,-159.07 1479.42,-140.07"/>
<polygon fill="black" stroke="black" points="1482.38,-138.2 1474.32,-131.33 1476.34,-141.73 1482.38,-138.2"/>
</g>
<!-- Node0x558666024118&#45;&gt;Node0x55866601e8f8 -->
<g id="edge76" class="edge">
<title>Node0x558666024118&#45;&gt;Node0x55866601e8f8</title>
<path fill="none" stroke="black" d="M1328.67,-238.7C1336.8,-219.81 1345.95,-189.28 1333,-167 1325.41,-153.94 1313.27,-143.84 1300.24,-136.12"/>
<polygon fill="black" stroke="black" points="1301.57,-132.86 1291.11,-131.16 1298.22,-139.01 1301.57,-132.86"/>
</g>
<!-- Node0x558666024118&#45;&gt;Node0x55866601d8b8 -->
<g id="edge74" class="edge">
<title>Node0x558666024118&#45;&gt;Node0x55866601d8b8</title>
<path fill="none" stroke="black" d="M1224.27,-240.03C1221.49,-239.67 1218.73,-239.32 1216,-239 1162.78,-232.67 771.45,-242.29 735,-203 724.12,-191.27 727.56,-181.16 735,-167 741.56,-154.52 752.54,-144.4 764.19,-136.48"/>
<polygon fill="black" stroke="black" points="766.13,-139.4 772.73,-131.1 762.4,-133.47 766.13,-139.4"/>
</g>
<!-- Node0x558666023c18 -->
<g id="node17" class="node">
<title>Node0x558666023c18</title>
<polygon fill="none" stroke="black" points="1206.5,-275 957.5,-275 957.5,-239 1206.5,-239 1206.5,-275"/>
<text text-anchor="middle" x="1082" y="-253.3" font-family="Times,serif" font-size="14.00">{lib/libLLVMBitstreamReader.a}</text>
</g>
<!-- Node0x558666023c18&#45;&gt;Node0x55866601d2c8 -->
<g id="edge77" class="edge">
<title>Node0x558666023c18&#45;&gt;Node0x55866601d2c8</title>
<path fill="none" stroke="black" d="M1065.44,-238.7C1057.32,-230.22 1047.41,-219.86 1038.53,-210.58"/>
<polygon fill="black" stroke="black" points="1040.81,-207.91 1031.37,-203.1 1035.76,-212.75 1040.81,-207.91"/>
</g>
<!-- Node0x558666023c18&#45;&gt;Node0x55866601b838 -->
<g id="edge78" class="edge">
<title>Node0x558666023c18&#45;&gt;Node0x55866601b838</title>
<path fill="none" stroke="black" d="M1206.55,-239.65C1310.55,-225.73 1442.58,-207.32 1447,-203 1463.15,-187.22 1465.87,-161 1465.16,-141.1"/>
<polygon fill="black" stroke="black" points="1468.65,-140.83 1464.51,-131.08 1461.67,-141.29 1468.65,-140.83"/>
</g>
<!-- Node0x558666023c18&#45;&gt;Node0x55866601d8b8 -->
<g id="edge79" class="edge">
<title>Node0x558666023c18&#45;&gt;Node0x55866601d8b8</title>
<path fill="none" stroke="black" d="M957.43,-239.82C845.79,-225.17 699.19,-205.52 697,-203 686.49,-190.94 688.37,-180.47 697,-167 705.79,-153.28 719.12,-143.06 733.64,-135.46"/>
<polygon fill="black" stroke="black" points="735.3,-138.55 742.8,-131.07 732.27,-132.24 735.3,-138.55"/>
</g>
</g>
</svg>
