<?xml version="1.0" encoding="UTF-8" standalone="no"?>
<!DOCTYPE svg PUBLIC "-//W3C//DTD SVG 1.1//EN"
 "http://www.w3.org/Graphics/SVG/1.1/DTD/svg11.dtd">
<!-- Generated by graphviz version 2.43.0 (0)
 -->
<!-- Title: bin/lld_lib/liblldMachO2.a Pages: 1 -->
<svg width="1750pt" height="1044pt"
 viewBox="0.00 0.00 1750.00 1044.50" xmlns="http://www.w3.org/2000/svg" xmlns:xlink="http://www.w3.org/1999/xlink">
<g id="graph0" class="graph" transform="scale(1 1) rotate(0) translate(4 1040.5)">
<title>bin/lld_lib/liblldMachO2.a</title>
<polygon fill="white" stroke="transparent" points="-4,4 -4,-1040.5 1746,-1040.5 1746,4 -4,4"/>
<text text-anchor="middle" x="871" y="-7.8" font-family="Times,serif" font-size="14.00">bin/lld_lib/liblldMachO2.a</text>
<!-- Node0x5571696f9088 -->
<g id="node1" class="node">
<title>Node0x5571696f9088</title>
<polygon fill="#7fb2ff" stroke="black" points="263,-553 0,-553 0,-517 263,-517 263,-553"/>
<text text-anchor="middle" x="131.5" y="-531.3" font-family="Times,serif" font-size="14.00">{lib/liblldMachO2.a(Driver.cpp.o)}</text>
</g>
<!-- Node0x5571696f80e8 -->
<g id="node2" class="node">
<title>Node0x5571696f80e8</title>
<polygon fill="#7fb2ff" stroke="black" points="608,-753 337,-753 337,-717 608,-717 608,-753"/>
<text text-anchor="middle" x="472.5" y="-731.3" font-family="Times,serif" font-size="14.00">{lib/liblldMachO2.a(X86_64.cpp.o)}</text>
</g>
<!-- Node0x5571696f9088&#45;&gt;Node0x5571696f80e8 -->
<g id="edge1" class="edge">
<title>Node0x5571696f9088&#45;&gt;Node0x5571696f80e8</title>
<path fill="none" stroke="#7fb2ff" d="M143.89,-553.12C167.73,-589.32 226.71,-670.37 299,-708 307.87,-712.62 317.33,-716.49 327.06,-719.74"/>
<polygon fill="#7fb2ff" stroke="#7fb2ff" points="326.29,-723.17 336.88,-722.79 328.36,-716.48 326.29,-723.17"/>
</g>
<!-- Node0x5571696fa078 -->
<g id="node3" class="node">
<title>Node0x5571696fa078</title>
<polygon fill="#7fb2ff" stroke="black" points="620.5,-915 324.5,-915 324.5,-879 620.5,-879 620.5,-915"/>
<text text-anchor="middle" x="472.5" y="-893.3" font-family="Times,serif" font-size="14.00">{lib/liblldMachO2.a(ARM64_32.cpp.o)}</text>
</g>
<!-- Node0x5571696f9088&#45;&gt;Node0x5571696fa078 -->
<g id="edge2" class="edge">
<title>Node0x5571696f9088&#45;&gt;Node0x5571696fa078</title>
<path fill="none" stroke="#7fb2ff" d="M135.57,-553.26C146.25,-610.62 187.42,-788.23 299,-870 304.13,-873.76 309.59,-877.09 315.27,-880.03"/>
<polygon fill="#7fb2ff" stroke="#7fb2ff" points="313.85,-883.22 324.38,-884.33 316.84,-876.89 313.85,-883.22"/>
</g>
<!-- Node0x5571696fbb08 -->
<g id="node4" class="node">
<title>Node0x5571696fbb08</title>
<polygon fill="#7fb2ff" stroke="black" points="599,-699 346,-699 346,-663 599,-663 599,-699"/>
<text text-anchor="middle" x="472.5" y="-677.3" font-family="Times,serif" font-size="14.00">{lib/liblldMachO2.a(ARM.cpp.o)}</text>
</g>
<!-- Node0x5571696f9088&#45;&gt;Node0x5571696fbb08 -->
<g id="edge3" class="edge">
<title>Node0x5571696f9088&#45;&gt;Node0x5571696fbb08</title>
<path fill="none" stroke="#7fb2ff" d="M152.65,-553.02C182.41,-578.6 240.88,-624.98 299,-649 310.78,-653.87 323.31,-658 336.04,-661.5"/>
<polygon fill="#7fb2ff" stroke="#7fb2ff" points="335.24,-664.91 345.8,-664.06 337.02,-658.14 335.24,-664.91"/>
</g>
<!-- Node0x5571696fb568 -->
<g id="node5" class="node">
<title>Node0x5571696fb568</title>
<polygon fill="#7fb2ff" stroke="black" points="608,-807 337,-807 337,-771 608,-771 608,-807"/>
<text text-anchor="middle" x="472.5" y="-785.3" font-family="Times,serif" font-size="14.00">{lib/liblldMachO2.a(ARM64.cpp.o)}</text>
</g>
<!-- Node0x5571696f9088&#45;&gt;Node0x5571696fb568 -->
<g id="edge4" class="edge">
<title>Node0x5571696f9088&#45;&gt;Node0x5571696fb568</title>
<path fill="none" stroke="#7fb2ff" d="M139.91,-553.2C158.94,-597.35 214.03,-710.3 299,-762 307.83,-767.37 317.37,-771.79 327.27,-775.42"/>
<polygon fill="#7fb2ff" stroke="#7fb2ff" points="326.27,-778.78 336.87,-778.66 328.51,-772.14 326.27,-778.78"/>
</g>
<!-- Node0x5571696fade8 -->
<g id="node6" class="node">
<title>Node0x5571696fade8</title>
<polygon fill="#7fb2ff" stroke="black" points="622,-245 323,-245 323,-209 622,-209 622,-245"/>
<text text-anchor="middle" x="472.5" y="-223.3" font-family="Times,serif" font-size="14.00">{lib/liblldMachO2.a(DriverUtils.cpp.o)}</text>
</g>
<!-- Node0x5571696f9088&#45;&gt;Node0x5571696fade8 -->
<g id="edge5" class="edge">
<title>Node0x5571696f9088&#45;&gt;Node0x5571696fade8</title>
<path fill="none" stroke="#7fb2ff" d="M136.27,-516.91C149.46,-464.4 198.31,-313.23 299,-245 303.63,-241.86 308.48,-239.04 313.51,-236.5"/>
<polygon fill="#7fb2ff" stroke="#7fb2ff" points="315.12,-239.61 322.73,-232.24 312.18,-233.26 315.12,-239.61"/>
</g>
<!-- Node0x5571696fceb8 -->
<g id="node7" class="node">
<title>Node0x5571696fceb8</title>
<polygon fill="#7fb2ff" stroke="black" points="618,-407 327,-407 327,-371 618,-371 618,-407"/>
<text text-anchor="middle" x="472.5" y="-385.3" font-family="Times,serif" font-size="14.00">{lib/liblldMachO2.a(InputFiles.cpp.o)}</text>
</g>
<!-- Node0x5571696f9088&#45;&gt;Node0x5571696fceb8 -->
<g id="edge6" class="edge">
<title>Node0x5571696f9088&#45;&gt;Node0x5571696fceb8</title>
<path fill="none" stroke="#7fb2ff" d="M145.84,-516.95C172.48,-487.97 235.19,-433.07 299,-407 304.8,-404.63 310.79,-402.47 316.9,-400.5"/>
<polygon fill="#7fb2ff" stroke="#7fb2ff" points="318.03,-403.81 326.59,-397.56 316,-397.11 318.03,-403.81"/>
</g>
<!-- Node0x5571696ee368 -->
<g id="node8" class="node">
<title>Node0x5571696ee368</title>
<polygon fill="#7fb2ff" stroke="black" points="627.5,-553 317.5,-553 317.5,-517 627.5,-517 627.5,-553"/>
<text text-anchor="middle" x="472.5" y="-531.3" font-family="Times,serif" font-size="14.00">{lib/liblldMachO2.a(InputSection.cpp.o)}</text>
</g>
<!-- Node0x5571696f9088&#45;&gt;Node0x5571696ee368 -->
<g id="edge7" class="edge">
<title>Node0x5571696f9088&#45;&gt;Node0x5571696ee368</title>
<path fill="none" stroke="#7fb2ff" d="M263.08,-535C277.55,-535 292.43,-535 307.25,-535"/>
<polygon fill="#7fb2ff" stroke="#7fb2ff" points="307.49,-538.5 317.49,-535 307.49,-531.5 307.49,-538.5"/>
</g>
<!-- Node0x5571696f03e8 -->
<g id="node9" class="node">
<title>Node0x5571696f03e8</title>
<polygon fill="#7fb2ff" stroke="black" points="595.5,-861 349.5,-861 349.5,-825 595.5,-825 595.5,-861"/>
<text text-anchor="middle" x="472.5" y="-839.3" font-family="Times,serif" font-size="14.00">{lib/liblldMachO2.a(LTO.cpp.o)}</text>
</g>
<!-- Node0x5571696f9088&#45;&gt;Node0x5571696f03e8 -->
<g id="edge8" class="edge">
<title>Node0x5571696f9088&#45;&gt;Node0x5571696f03e8</title>
<path fill="none" stroke="#7fb2ff" d="M138.7,-553.33C154.85,-603.57 203.71,-742.42 299,-807 311.23,-815.29 325.06,-821.4 339.44,-825.93"/>
<polygon fill="#7fb2ff" stroke="#7fb2ff" points="338.88,-829.41 349.46,-828.81 340.82,-822.68 338.88,-829.41"/>
</g>
<!-- Node0x5571696f7198 -->
<g id="node10" class="node">
<title>Node0x5571696f7198</title>
<polygon fill="#7fb2ff" stroke="black" points="627.5,-353 317.5,-353 317.5,-317 627.5,-317 627.5,-353"/>
<text text-anchor="middle" x="472.5" y="-331.3" font-family="Times,serif" font-size="14.00">{lib/liblldMachO2.a(SymbolTable.cpp.o)}</text>
</g>
<!-- Node0x5571696f9088&#45;&gt;Node0x5571696f7198 -->
<g id="edge9" class="edge">
<title>Node0x5571696f9088&#45;&gt;Node0x5571696f7198</title>
<path fill="none" stroke="#7fb2ff" d="M140.98,-516.9C162.63,-478.81 223.57,-392.26 299,-353 301.96,-351.46 304.98,-350 308.06,-348.63"/>
<polygon fill="#7fb2ff" stroke="#7fb2ff" points="309.54,-351.8 317.43,-344.72 306.85,-345.33 309.54,-351.8"/>
</g>
<!-- Node0x5571696f5898 -->
<g id="node11" class="node">
<title>Node0x5571696f5898</title>
<polygon fill="#7fb2ff" stroke="black" points="646,-461 299,-461 299,-425 646,-425 646,-461"/>
<text text-anchor="middle" x="472.5" y="-439.3" font-family="Times,serif" font-size="14.00">{lib/liblldMachO2.a(SyntheticSections.cpp.o)}</text>
</g>
<!-- Node0x5571696f9088&#45;&gt;Node0x5571696f5898 -->
<g id="edge10" class="edge">
<title>Node0x5571696f9088&#45;&gt;Node0x5571696f5898</title>
<path fill="none" stroke="#7fb2ff" d="M160.34,-516.93C193.04,-501.12 249.18,-479.5 299,-466 302.16,-465.14 305.36,-464.3 308.59,-463.48"/>
<polygon fill="#7fb2ff" stroke="#7fb2ff" points="309.49,-466.86 318.36,-461.05 307.81,-460.07 309.49,-466.86"/>
</g>
<!-- Node0x5571696e58a8 -->
<g id="node12" class="node">
<title>Node0x5571696e58a8</title>
<polygon fill="none" stroke="black" points="605,-299 340,-299 340,-263 605,-263 605,-299"/>
<text text-anchor="middle" x="472.5" y="-277.3" font-family="Times,serif" font-size="14.00">{lib/liblldMachO2.a(Target.cpp.o)}</text>
</g>
<!-- Node0x5571696f9088&#45;&gt;Node0x5571696e58a8 -->
<g id="edge11" class="edge">
<title>Node0x5571696f9088&#45;&gt;Node0x5571696e58a8</title>
<path fill="none" stroke="black" d="M139.91,-516.8C158.94,-472.65 214.03,-359.7 299,-308 308.71,-302.09 319.28,-297.33 330.25,-293.52"/>
<polygon fill="black" stroke="black" points="331.53,-296.78 339.98,-290.4 329.39,-290.12 331.53,-296.78"/>
</g>
<!-- Node0x5571696e5128 -->
<g id="node13" class="node">
<title>Node0x5571696e5128</title>
<polygon fill="#7fb2ff" stroke="black" points="604,-607 341,-607 341,-571 604,-571 604,-607"/>
<text text-anchor="middle" x="472.5" y="-585.3" font-family="Times,serif" font-size="14.00">{lib/liblldMachO2.a(Writer.cpp.o)}</text>
</g>
<!-- Node0x5571696f9088&#45;&gt;Node0x5571696e5128 -->
<g id="edge12" class="edge">
<title>Node0x5571696f9088&#45;&gt;Node0x5571696e5128</title>
<path fill="none" stroke="#7fb2ff" d="M263.37,-547.33C275.41,-549.23 287.43,-551.16 299,-553 331.14,-558.12 366.66,-563.7 397.08,-569.11"/>
<polygon fill="#7fb2ff" stroke="#7fb2ff" points="396.72,-572.6 407.18,-570.93 397.96,-565.71 396.72,-572.6"/>
</g>
<!-- Node0x5571696f80e8&#45;&gt;Node0x5571696ee368 -->
<g id="edge13" class="edge">
<title>Node0x5571696f80e8&#45;&gt;Node0x5571696ee368</title>
<path fill="none" stroke="#7fb2ff" d="M336.8,-737.78C313.98,-731.3 293.63,-719.43 281,-699 266.05,-674.8 266.05,-595.2 281,-571 288.02,-559.65 297.42,-550.94 308.3,-544.33"/>
<polygon fill="#7fb2ff" stroke="#7fb2ff" points="310.19,-547.29 317.34,-539.47 306.87,-541.12 310.19,-547.29"/>
</g>
<!-- Node0x5571696f80e8&#45;&gt;Node0x5571696f5898 -->
<g id="edge15" class="edge">
<title>Node0x5571696f80e8&#45;&gt;Node0x5571696f5898</title>
<path fill="none" stroke="#7fb2ff" d="M336.8,-737.78C313.98,-731.3 293.63,-719.43 281,-699 259.74,-664.6 259.74,-551.4 281,-517 296.34,-492.18 321.44,-475.67 348.5,-464.69"/>
<polygon fill="#7fb2ff" stroke="#7fb2ff" points="350.04,-467.85 358.14,-461.03 347.55,-461.31 350.04,-467.85"/>
</g>
<!-- Node0x5571696ef588 -->
<g id="node14" class="node">
<title>Node0x5571696ef588</title>
<polygon fill="#7fb2ff" stroke="black" points="1411.5,-789 1110.5,-789 1110.5,-753 1411.5,-753 1411.5,-789"/>
<text text-anchor="middle" x="1261" y="-767.3" font-family="Times,serif" font-size="14.00">{lib/liblldMachO2.a(Relocations.cpp.o)}</text>
</g>
<!-- Node0x5571696f80e8&#45;&gt;Node0x5571696ef588 -->
<g id="edge14" class="edge">
<title>Node0x5571696f80e8&#45;&gt;Node0x5571696ef588</title>
<path fill="none" stroke="#7fb2ff" d="M608.18,-750.5C621.15,-753.65 633.95,-757.44 646,-762 663.76,-768.72 663.78,-779.68 682,-785 842.83,-831.99 891.55,-790.82 1059,-785 1072.36,-784.54 1086.22,-783.9 1100.11,-783.15"/>
<polygon fill="#7fb2ff" stroke="#7fb2ff" points="1100.45,-786.63 1110.24,-782.58 1100.06,-779.65 1100.45,-786.63"/>
</g>
<!-- Node0x5571696fa078&#45;&gt;Node0x5571696ee368 -->
<g id="edge17" class="edge">
<title>Node0x5571696fa078&#45;&gt;Node0x5571696ee368</title>
<path fill="none" stroke="#7fb2ff" d="M324.09,-895.48C306.52,-888.48 291.23,-877.55 281,-861 264.06,-833.59 264.06,-598.41 281,-571 288.02,-559.65 297.42,-550.94 308.3,-544.33"/>
<polygon fill="#7fb2ff" stroke="#7fb2ff" points="310.19,-547.29 317.34,-539.47 306.87,-541.12 310.19,-547.29"/>
</g>
<!-- Node0x5571696fa078&#45;&gt;Node0x5571696f5898 -->
<g id="edge19" class="edge">
<title>Node0x5571696fa078&#45;&gt;Node0x5571696f5898</title>
<path fill="none" stroke="#7fb2ff" d="M324.09,-895.48C306.52,-888.48 291.23,-877.55 281,-861 260.91,-828.49 260.91,-549.51 281,-517 296.34,-492.18 321.44,-475.67 348.5,-464.69"/>
<polygon fill="#7fb2ff" stroke="#7fb2ff" points="350.04,-467.85 358.14,-461.03 347.55,-461.31 350.04,-467.85"/>
</g>
<!-- Node0x5571696fa078&#45;&gt;Node0x5571696ef588 -->
<g id="edge18" class="edge">
<title>Node0x5571696fa078&#45;&gt;Node0x5571696ef588</title>
<path fill="none" stroke="#7fb2ff" d="M542.84,-915.05C654.72,-940.83 880.54,-978.93 1059,-920 1132.82,-895.62 1201.66,-832.51 1236.4,-796.73"/>
<polygon fill="#7fb2ff" stroke="#7fb2ff" points="1239.31,-798.76 1243.69,-789.11 1234.25,-793.92 1239.31,-798.76"/>
</g>
<!-- Node0x5571696f99e8 -->
<g id="node15" class="node">
<title>Node0x5571696f99e8</title>
<polygon fill="#7fb2ff" stroke="black" points="1037.5,-911 703.5,-911 703.5,-875 1037.5,-875 1037.5,-911"/>
<text text-anchor="middle" x="870.5" y="-889.3" font-family="Times,serif" font-size="14.00">{lib/liblldMachO2.a(ARM64Common.cpp.o)}</text>
</g>
<!-- Node0x5571696fa078&#45;&gt;Node0x5571696f99e8 -->
<g id="edge16" class="edge">
<title>Node0x5571696fa078&#45;&gt;Node0x5571696f99e8</title>
<path fill="none" stroke="#7fb2ff" d="M620.67,-895.51C644.36,-895.27 669.09,-895.02 693.37,-894.78"/>
<polygon fill="#7fb2ff" stroke="#7fb2ff" points="693.42,-898.28 703.38,-894.68 693.35,-891.28 693.42,-898.28"/>
</g>
<!-- Node0x5571696fbb08&#45;&gt;Node0x5571696ef588 -->
<g id="edge20" class="edge">
<title>Node0x5571696fbb08&#45;&gt;Node0x5571696ef588</title>
<path fill="none" stroke="#7fb2ff" d="M599.24,-690.5C615.54,-694.63 631.56,-700.29 646,-708 666.81,-719.11 660.59,-737.09 682,-747 753.6,-780.13 955,-781.64 1099.92,-777.86"/>
<polygon fill="#7fb2ff" stroke="#7fb2ff" points="1100.36,-781.35 1110.26,-777.58 1100.17,-774.35 1100.36,-781.35"/>
</g>
<!-- Node0x5571696fb568&#45;&gt;Node0x5571696ee368 -->
<g id="edge22" class="edge">
<title>Node0x5571696fb568&#45;&gt;Node0x5571696ee368</title>
<path fill="none" stroke="#7fb2ff" d="M336.8,-791.78C313.98,-785.3 293.63,-773.43 281,-753 259.74,-718.6 259.74,-605.4 281,-571 288.02,-559.65 297.42,-550.94 308.3,-544.33"/>
<polygon fill="#7fb2ff" stroke="#7fb2ff" points="310.19,-547.29 317.34,-539.47 306.87,-541.12 310.19,-547.29"/>
</g>
<!-- Node0x5571696fb568&#45;&gt;Node0x5571696f5898 -->
<g id="edge24" class="edge">
<title>Node0x5571696fb568&#45;&gt;Node0x5571696f5898</title>
<path fill="none" stroke="#7fb2ff" d="M336.8,-791.78C313.98,-785.3 293.63,-773.43 281,-753 267.21,-730.69 267.21,-539.31 281,-517 296.34,-492.18 321.44,-475.67 348.5,-464.69"/>
<polygon fill="#7fb2ff" stroke="#7fb2ff" points="350.04,-467.85 358.14,-461.03 347.55,-461.31 350.04,-467.85"/>
</g>
<!-- Node0x5571696fb568&#45;&gt;Node0x5571696ef588 -->
<g id="edge23" class="edge">
<title>Node0x5571696fb568&#45;&gt;Node0x5571696ef588</title>
<path fill="none" stroke="#7fb2ff" d="M592.37,-807.02C610.36,-809.92 628.68,-812.96 646,-816 662.05,-818.82 665.78,-821.44 682,-823 848.78,-839.06 892.78,-844.15 1059,-823 1105.64,-817.06 1156.94,-803.68 1196.04,-791.97"/>
<polygon fill="#7fb2ff" stroke="#7fb2ff" points="1197.15,-795.29 1205.7,-789.04 1195.12,-788.59 1197.15,-795.29"/>
</g>
<!-- Node0x5571696fb568&#45;&gt;Node0x5571696f99e8 -->
<g id="edge21" class="edge">
<title>Node0x5571696fb568&#45;&gt;Node0x5571696f99e8</title>
<path fill="none" stroke="#7fb2ff" d="M608.28,-799.98C621.51,-804 634.33,-809.23 646,-816 668.15,-828.85 659.93,-848 682,-861 688.36,-864.75 695.03,-868.08 701.92,-871.05"/>
<polygon fill="#7fb2ff" stroke="#7fb2ff" points="700.86,-874.4 711.44,-874.88 703.47,-867.9 700.86,-874.4"/>
</g>
<!-- Node0x5571696fade8&#45;&gt;Node0x5571696f9088 -->
<g id="edge25" class="edge">
<title>Node0x5571696fade8&#45;&gt;Node0x5571696f9088</title>
<path fill="none" stroke="#7fb2ff" d="M336.13,-245.15C322.94,-249.55 310.29,-255.35 299,-263 209.29,-323.79 160.73,-450.41 141.88,-506.96"/>
<polygon fill="#7fb2ff" stroke="#7fb2ff" points="138.49,-506.08 138.7,-516.67 145.14,-508.26 138.49,-506.08"/>
</g>
<!-- Node0x5571696fade8&#45;&gt;Node0x5571696fceb8 -->
<g id="edge26" class="edge">
<title>Node0x5571696fade8&#45;&gt;Node0x5571696fceb8</title>
<path fill="none" stroke="#7fb2ff" d="M322.6,-229.49C308.16,-236.16 295.68,-245.95 287,-260 275.78,-278.15 275.78,-337.85 287,-356 294.68,-368.43 305.33,-377.52 317.67,-384.07"/>
<polygon fill="#7fb2ff" stroke="#7fb2ff" points="316.4,-387.34 326.94,-388.4 319.36,-381 316.4,-387.34"/>
</g>
<!-- Node0x5571696efc68 -->
<g id="node16" class="node">
<title>Node0x5571696efc68</title>
<polygon fill="none" stroke="black" points="997.5,-59 743.5,-59 743.5,-23 997.5,-23 997.5,-59"/>
<text text-anchor="middle" x="870.5" y="-37.3" font-family="Times,serif" font-size="14.00">{lib/liblldMachO2.a(ObjC.cpp.o)}</text>
</g>
<!-- Node0x5571696fade8&#45;&gt;Node0x5571696efc68 -->
<g id="edge27" class="edge">
<title>Node0x5571696fade8&#45;&gt;Node0x5571696efc68</title>
<path fill="none" stroke="black" d="M491.7,-208.77C525.78,-175.83 602.92,-106.68 682,-73 698.15,-66.12 715.68,-60.72 733.31,-56.48"/>
<polygon fill="black" stroke="black" points="734.15,-59.88 743.11,-54.24 732.59,-53.06 734.15,-59.88"/>
</g>
<!-- Node0x5571696fceb8&#45;&gt;Node0x5571696f9088 -->
<g id="edge28" class="edge">
<title>Node0x5571696fceb8&#45;&gt;Node0x5571696f9088</title>
<path fill="none" stroke="#7fb2ff" d="M362.2,-407.06C340.75,-411.24 318.78,-416.92 299,-425 248.28,-445.73 198.24,-484.67 166.48,-510.39"/>
<polygon fill="#7fb2ff" stroke="#7fb2ff" points="163.96,-507.92 158.41,-516.94 168.38,-513.35 163.96,-507.92"/>
</g>
<!-- Node0x5571696fceb8&#45;&gt;Node0x5571696fade8 -->
<g id="edge29" class="edge">
<title>Node0x5571696fceb8&#45;&gt;Node0x5571696fade8</title>
<path fill="none" stroke="#7fb2ff" d="M326.68,-388.54C305.55,-381.35 286.94,-369.32 275,-350 265.19,-334.12 265.19,-281.88 275,-266 284.37,-250.84 297.84,-240.17 313.41,-232.81"/>
<polygon fill="#7fb2ff" stroke="#7fb2ff" points="314.95,-235.96 322.81,-228.84 312.23,-229.51 314.95,-235.96"/>
</g>
<!-- Node0x5571696fceb8&#45;&gt;Node0x5571696f7198 -->
<g id="edge32" class="edge">
<title>Node0x5571696fceb8&#45;&gt;Node0x5571696f7198</title>
<path fill="none" stroke="#7fb2ff" d="M576.18,-370.88C589.08,-366.32 592.05,-361.77 585.1,-357.22"/>
<polygon fill="#7fb2ff" stroke="#7fb2ff" points="586.48,-354 575.93,-353.04 583.58,-360.37 586.48,-354"/>
</g>
<!-- Node0x5571696fceb8&#45;&gt;Node0x5571696e58a8 -->
<g id="edge34" class="edge">
<title>Node0x5571696fceb8&#45;&gt;Node0x5571696e58a8</title>
<path fill="none" stroke="black" d="M331.95,-370.95C320.7,-368.35 309.6,-365.38 299,-362 290.48,-359.28 285.7,-360.61 281,-353 272.59,-339.39 272.59,-330.61 281,-317 292.36,-298.62 309.98,-287.17 330.02,-280.33"/>
<polygon fill="black" stroke="black" points="331.14,-283.65 339.71,-277.43 329.12,-276.95 331.14,-283.65"/>
</g>
<!-- Node0x5571696f1f18 -->
<g id="node17" class="node">
<title>Node0x5571696f1f18</title>
<polygon fill="none" stroke="black" points="1001,-245 740,-245 740,-209 1001,-209 1001,-245"/>
<text text-anchor="middle" x="870.5" y="-223.3" font-family="Times,serif" font-size="14.00">{lib/liblldMachO2.a(Dwarf.cpp.o)}</text>
</g>
<!-- Node0x5571696fceb8&#45;&gt;Node0x5571696f1f18 -->
<g id="edge30" class="edge">
<title>Node0x5571696fceb8&#45;&gt;Node0x5571696f1f18</title>
<path fill="none" stroke="black" d="M618.27,-379.07C628.27,-374.65 637.67,-369.05 646,-362 684.63,-329.32 643.17,-286.44 682,-254 695.84,-242.44 712.36,-234.59 729.77,-229.39"/>
<polygon fill="black" stroke="black" points="730.77,-232.75 739.52,-226.77 728.95,-225.99 730.77,-232.75"/>
</g>
<!-- Node0x5571696ef128 -->
<g id="node18" class="node">
<title>Node0x5571696ef128</title>
<polygon fill="none" stroke="black" points="1018.5,-299 722.5,-299 722.5,-263 1018.5,-263 1018.5,-299"/>
<text text-anchor="middle" x="870.5" y="-277.3" font-family="Times,serif" font-size="14.00">{lib/liblldMachO2.a(ExportTrie.cpp.o)}</text>
</g>
<!-- Node0x5571696fceb8&#45;&gt;Node0x5571696ef128 -->
<g id="edge31" class="edge">
<title>Node0x5571696fceb8&#45;&gt;Node0x5571696ef128</title>
<path fill="none" stroke="black" d="M618.09,-375.83C627.9,-372.11 637.32,-367.55 646,-362 670.3,-346.46 657.61,-323.39 682,-308 691.57,-301.96 701.96,-297.06 712.77,-293.09"/>
<polygon fill="black" stroke="black" points="714.02,-296.36 722.37,-289.84 711.78,-289.73 714.02,-296.36"/>
</g>
<!-- Node0x5571696f7878 -->
<g id="node19" class="node">
<title>Node0x5571696f7878</title>
<polygon fill="#7fb2ff" stroke="black" points="1742,-453 1463,-453 1463,-417 1742,-417 1742,-453"/>
<text text-anchor="middle" x="1602.5" y="-431.3" font-family="Times,serif" font-size="14.00">{lib/liblldMachO2.a(Symbols.cpp.o)}</text>
</g>
<!-- Node0x5571696fceb8&#45;&gt;Node0x5571696f7878 -->
<g id="edge33" class="edge">
<title>Node0x5571696fceb8&#45;&gt;Node0x5571696f7878</title>
<path fill="none" stroke="#7fb2ff" d="M618.28,-371.41C628.4,-366.7 637.82,-360.68 646,-353 699.78,-302.53 624.47,-237.15 682,-191 812.7,-86.16 894.93,-156.99 1059,-191 1264.65,-233.63 1488.13,-358.24 1569.56,-411.14"/>
<polygon fill="#7fb2ff" stroke="#7fb2ff" points="1568.06,-414.35 1578.33,-416.93 1571.91,-408.5 1568.06,-414.35"/>
</g>
<!-- Node0x5571696ee368&#45;&gt;Node0x5571696fceb8 -->
<g id="edge35" class="edge">
<title>Node0x5571696ee368&#45;&gt;Node0x5571696fceb8</title>
<path fill="none" stroke="#7fb2ff" d="M376.98,-516.97C315.53,-500.6 252.12,-471.72 281,-425 289.91,-410.58 302.67,-400.43 317.43,-393.42"/>
<polygon fill="#7fb2ff" stroke="#7fb2ff" points="318.99,-396.56 326.86,-389.46 316.28,-390.11 318.99,-396.56"/>
</g>
<!-- Node0x5571696ee368&#45;&gt;Node0x5571696f5898 -->
<g id="edge36" class="edge">
<title>Node0x5571696ee368&#45;&gt;Node0x5571696f5898</title>
<path fill="none" stroke="#7fb2ff" d="M554.59,-516.95C615.25,-499.3 618.46,-481.65 564.21,-464.01"/>
<polygon fill="#7fb2ff" stroke="#7fb2ff" points="565.2,-460.65 554.61,-461.06 563.15,-467.34 565.2,-460.65"/>
</g>
<!-- Node0x5571696ee368&#45;&gt;Node0x5571696e58a8 -->
<g id="edge37" class="edge">
<title>Node0x5571696ee368&#45;&gt;Node0x5571696e58a8</title>
<path fill="none" stroke="black" d="M358.14,-516.97C327.5,-506.11 298.15,-488.74 281,-461 264.18,-433.78 264.18,-344.22 281,-317 292.36,-298.62 309.98,-287.17 330.02,-280.33"/>
<polygon fill="black" stroke="black" points="331.14,-283.65 339.71,-277.43 329.12,-276.95 331.14,-283.65"/>
</g>
<!-- Node0x5571696ee368&#45;&gt;Node0x5571696e5128 -->
<g id="edge38" class="edge">
<title>Node0x5571696ee368&#45;&gt;Node0x5571696e5128</title>
<path fill="none" stroke="#7fb2ff" d="M575.93,-553.04C588.69,-557.5 591.92,-561.96 585.64,-566.42"/>
<polygon fill="#7fb2ff" stroke="#7fb2ff" points="583.73,-563.45 576.18,-570.88 586.72,-569.78 583.73,-563.45"/>
</g>
<!-- Node0x5571696f03e8&#45;&gt;Node0x5571696f9088 -->
<g id="edge39" class="edge">
<title>Node0x5571696f03e8&#45;&gt;Node0x5571696f9088</title>
<path fill="none" stroke="#7fb2ff" d="M349.46,-846.58C331.53,-842.11 314.06,-835.2 299,-825 204.01,-760.63 155.16,-622.46 138.86,-562.93"/>
<polygon fill="#7fb2ff" stroke="#7fb2ff" points="142.2,-561.87 136.27,-553.09 135.43,-563.65 142.2,-561.87"/>
</g>
<!-- Node0x5571696f03e8&#45;&gt;Node0x5571696fade8 -->
<g id="edge40" class="edge">
<title>Node0x5571696f03e8&#45;&gt;Node0x5571696fade8</title>
<path fill="none" stroke="#7fb2ff" d="M349.06,-848.72C321.39,-843.21 295.85,-831.03 281,-807 265.11,-781.29 265.11,-288.71 281,-263 289.09,-249.91 300.36,-240.33 313.41,-233.43"/>
<polygon fill="#7fb2ff" stroke="#7fb2ff" points="315.14,-236.49 322.72,-229.08 312.18,-230.15 315.14,-236.49"/>
</g>
<!-- Node0x5571696f03e8&#45;&gt;Node0x5571696fceb8 -->
<g id="edge41" class="edge">
<title>Node0x5571696f03e8&#45;&gt;Node0x5571696fceb8</title>
<path fill="none" stroke="#7fb2ff" d="M349.06,-848.72C321.39,-843.21 295.85,-831.03 281,-807 258.69,-770.89 258.69,-461.11 281,-425 289.91,-410.58 302.67,-400.43 317.43,-393.42"/>
<polygon fill="#7fb2ff" stroke="#7fb2ff" points="318.99,-396.56 326.86,-389.46 316.28,-390.11 318.99,-396.56"/>
</g>
<!-- Node0x5571696f7198&#45;&gt;Node0x5571696f9088 -->
<g id="edge42" class="edge">
<title>Node0x5571696f7198&#45;&gt;Node0x5571696f9088</title>
<path fill="none" stroke="#7fb2ff" d="M348.63,-353.02C331.38,-357.26 314.33,-363.02 299,-371 235.33,-404.14 181.98,-470.97 153.88,-508.43"/>
<polygon fill="#7fb2ff" stroke="#7fb2ff" points="150.78,-506.74 147.61,-516.85 156.39,-510.92 150.78,-506.74"/>
</g>
<!-- Node0x5571696f7198&#45;&gt;Node0x5571696fceb8 -->
<g id="edge43" class="edge">
<title>Node0x5571696f7198&#45;&gt;Node0x5571696fceb8</title>
<path fill="none" stroke="#7fb2ff" d="M369.07,-353.04C356.31,-357.5 353.08,-361.96 359.36,-366.42"/>
<polygon fill="#7fb2ff" stroke="#7fb2ff" points="358.28,-369.78 368.82,-370.88 361.27,-363.45 358.28,-369.78"/>
</g>
<!-- Node0x5571696f7198&#45;&gt;Node0x5571696f7878 -->
<g id="edge44" class="edge">
<title>Node0x5571696f7198&#45;&gt;Node0x5571696f7878</title>
<path fill="none" stroke="#7fb2ff" d="M627.54,-321.66C634.17,-317.83 640.38,-313.31 646,-308 701.2,-255.86 622.92,-188.7 682,-141 812.37,-35.74 892.1,-126.15 1059,-141 1224.51,-155.72 1285.12,-120.5 1427,-207 1508.2,-256.5 1565.29,-358.85 1589.1,-407.78"/>
<polygon fill="#7fb2ff" stroke="#7fb2ff" points="1585.95,-409.31 1593.42,-416.83 1592.27,-406.3 1585.95,-409.31"/>
</g>
<!-- Node0x5571696f5898&#45;&gt;Node0x5571696f9088 -->
<g id="edge45" class="edge">
<title>Node0x5571696f5898&#45;&gt;Node0x5571696f9088</title>
<path fill="none" stroke="#7fb2ff" d="M404.17,-461.03C372.05,-467.26 333.25,-474.72 299,-484 268.49,-492.27 235.62,-503.58 207.2,-513.57"/>
<polygon fill="#7fb2ff" stroke="#7fb2ff" points="206.02,-510.28 197.75,-516.9 208.34,-516.88 206.02,-510.28"/>
</g>
<!-- Node0x5571696f5898&#45;&gt;Node0x5571696fceb8 -->
<g id="edge46" class="edge">
<title>Node0x5571696f5898&#45;&gt;Node0x5571696fceb8</title>
<path fill="none" stroke="#7fb2ff" d="M472.5,-424.79C472.5,-422.31 472.5,-419.83 472.5,-417.34"/>
<polygon fill="#7fb2ff" stroke="#7fb2ff" points="476,-417.14 472.5,-407.14 469,-417.14 476,-417.14"/>
</g>
<!-- Node0x5571696f5898&#45;&gt;Node0x5571696ee368 -->
<g id="edge48" class="edge">
<title>Node0x5571696f5898&#45;&gt;Node0x5571696ee368</title>
<path fill="none" stroke="#7fb2ff" d="M390.39,-461.06C329.74,-478.71 326.55,-496.35 380.81,-514"/>
<polygon fill="#7fb2ff" stroke="#7fb2ff" points="379.82,-517.36 390.41,-516.95 381.88,-510.67 379.82,-517.36"/>
</g>
<!-- Node0x5571696f5898&#45;&gt;Node0x5571696f7198 -->
<g id="edge49" class="edge">
<title>Node0x5571696f5898&#45;&gt;Node0x5571696f7198</title>
<path fill="none" stroke="#7fb2ff" d="M331.95,-424.95C320.7,-422.35 309.6,-419.38 299,-416 290.48,-413.28 285.7,-414.61 281,-407 272.59,-393.39 272.59,-384.61 281,-371 288.02,-359.65 297.42,-350.94 308.3,-344.33"/>
<polygon fill="#7fb2ff" stroke="#7fb2ff" points="310.19,-347.29 317.34,-339.47 306.87,-341.12 310.19,-347.29"/>
</g>
<!-- Node0x5571696f5898&#45;&gt;Node0x5571696e58a8 -->
<g id="edge52" class="edge">
<title>Node0x5571696f5898&#45;&gt;Node0x5571696e58a8</title>
<path fill="none" stroke="black" d="M298.84,-427.07C291.94,-421.54 285.89,-414.91 281,-407 259.97,-372.97 259.97,-351.03 281,-317 292.36,-298.62 309.98,-287.17 330.02,-280.33"/>
<polygon fill="black" stroke="black" points="331.14,-283.65 339.71,-277.43 329.12,-276.95 331.14,-283.65"/>
</g>
<!-- Node0x5571696f5898&#45;&gt;Node0x5571696ef128 -->
<g id="edge47" class="edge">
<title>Node0x5571696f5898&#45;&gt;Node0x5571696ef128</title>
<path fill="none" stroke="black" d="M633.92,-424.8C638.14,-422.16 642.18,-419.23 646,-416 684.63,-383.32 643.17,-340.44 682,-308 691.27,-300.26 701.73,-294.18 712.86,-289.45"/>
<polygon fill="black" stroke="black" points="714.29,-292.65 722.36,-285.79 711.77,-286.12 714.29,-292.65"/>
</g>
<!-- Node0x5571696f5e88 -->
<g id="node20" class="node">
<title>Node0x5571696f5e88</title>
<polygon fill="#7fb2ff" stroke="black" points="1427,-499 1095,-499 1095,-463 1427,-463 1427,-499"/>
<text text-anchor="middle" x="1261" y="-477.3" font-family="Times,serif" font-size="14.00">{lib/liblldMachO2.a(OutputSegment.cpp.o)}</text>
</g>
<!-- Node0x5571696f5898&#45;&gt;Node0x5571696f5e88 -->
<g id="edge50" class="edge">
<title>Node0x5571696f5898&#45;&gt;Node0x5571696f5e88</title>
<path fill="none" stroke="#7fb2ff" d="M646.04,-441.05C762.78,-441.01 920.37,-443.42 1059,-454 1082.99,-455.83 1108.5,-458.61 1133,-461.7"/>
<polygon fill="#7fb2ff" stroke="#7fb2ff" points="1132.7,-465.19 1143.06,-462.99 1133.59,-458.24 1132.7,-465.19"/>
</g>
<!-- Node0x5571696e62f8 -->
<g id="node21" class="node">
<title>Node0x5571696e62f8</title>
<polygon fill="none" stroke="black" points="1031.5,-407 709.5,-407 709.5,-371 1031.5,-371 1031.5,-407"/>
<text text-anchor="middle" x="870.5" y="-385.3" font-family="Times,serif" font-size="14.00">{lib/liblldMachO2.a(OutputSection.cpp.o)}</text>
</g>
<!-- Node0x5571696f5898&#45;&gt;Node0x5571696e62f8 -->
<g id="edge51" class="edge">
<title>Node0x5571696f5898&#45;&gt;Node0x5571696e62f8</title>
<path fill="none" stroke="black" d="M605.64,-424.98C644.72,-419.65 687.67,-413.79 727.36,-408.38"/>
<polygon fill="black" stroke="black" points="727.94,-411.84 737.38,-407.02 726.99,-404.9 727.94,-411.84"/>
</g>
<!-- Node0x5571696e5128&#45;&gt;Node0x5571696f9088 -->
<g id="edge53" class="edge">
<title>Node0x5571696e5128&#45;&gt;Node0x5571696f9088</title>
<path fill="none" stroke="#7fb2ff" d="M340.57,-577.54C326.54,-575.37 312.47,-573.15 299,-571 267.56,-565.99 232.8,-560.37 203.21,-554.86"/>
<polygon fill="#7fb2ff" stroke="#7fb2ff" points="203.86,-551.43 193.38,-553 202.55,-558.3 203.86,-551.43"/>
</g>
<!-- Node0x5571696e5128&#45;&gt;Node0x5571696fceb8 -->
<g id="edge54" class="edge">
<title>Node0x5571696e5128&#45;&gt;Node0x5571696fceb8</title>
<path fill="none" stroke="#7fb2ff" d="M340.68,-592.83C316.3,-586.61 294.34,-574.58 281,-553 266.05,-528.8 266.05,-449.2 281,-425 289.91,-410.58 302.67,-400.43 317.43,-393.42"/>
<polygon fill="#7fb2ff" stroke="#7fb2ff" points="318.99,-396.56 326.86,-389.46 316.28,-390.11 318.99,-396.56"/>
</g>
<!-- Node0x5571696e5128&#45;&gt;Node0x5571696ee368 -->
<g id="edge55" class="edge">
<title>Node0x5571696e5128&#45;&gt;Node0x5571696ee368</title>
<path fill="none" stroke="#7fb2ff" d="M368.82,-570.88C355.92,-566.32 352.95,-561.77 359.9,-557.22"/>
<polygon fill="#7fb2ff" stroke="#7fb2ff" points="361.42,-560.37 369.07,-553.04 358.52,-554 361.42,-560.37"/>
</g>
<!-- Node0x5571696e5128&#45;&gt;Node0x5571696f7198 -->
<g id="edge57" class="edge">
<title>Node0x5571696e5128&#45;&gt;Node0x5571696f7198</title>
<path fill="none" stroke="#7fb2ff" d="M340.68,-592.83C316.3,-586.61 294.34,-574.58 281,-553 259.74,-518.6 259.74,-405.4 281,-371 288.02,-359.65 297.42,-350.94 308.3,-344.33"/>
<polygon fill="#7fb2ff" stroke="#7fb2ff" points="310.19,-347.29 317.34,-339.47 306.87,-341.12 310.19,-347.29"/>
</g>
<!-- Node0x5571696e5128&#45;&gt;Node0x5571696f5898 -->
<g id="edge58" class="edge">
<title>Node0x5571696e5128&#45;&gt;Node0x5571696f5898</title>
<path fill="none" stroke="#7fb2ff" d="M340.68,-592.83C316.3,-586.61 294.34,-574.58 281,-553 264.88,-526.91 264.88,-510.09 281,-484 284.78,-477.88 289.25,-472.49 294.26,-467.75"/>
<polygon fill="#7fb2ff" stroke="#7fb2ff" points="296.57,-470.38 301.98,-461.27 292.07,-465.02 296.57,-470.38"/>
</g>
<!-- Node0x5571696e5128&#45;&gt;Node0x5571696e58a8 -->
<g id="edge60" class="edge">
<title>Node0x5571696e5128&#45;&gt;Node0x5571696e58a8</title>
<path fill="none" stroke="black" d="M340.68,-592.83C316.3,-586.61 294.34,-574.58 281,-553 267.21,-530.69 267.21,-339.31 281,-317 292.36,-298.62 309.98,-287.17 330.02,-280.33"/>
<polygon fill="black" stroke="black" points="331.14,-283.65 339.71,-277.43 329.12,-276.95 331.14,-283.65"/>
</g>
<!-- Node0x5571696e5128&#45;&gt;Node0x5571696ef588 -->
<g id="edge56" class="edge">
<title>Node0x5571696e5128&#45;&gt;Node0x5571696ef588</title>
<path fill="none" stroke="#7fb2ff" d="M604.18,-590.63C724.9,-595.43 907.86,-611.15 1059,-660 1121.86,-680.32 1187.56,-720.84 1226.09,-746.9"/>
<polygon fill="#7fb2ff" stroke="#7fb2ff" points="1224.58,-750.11 1234.81,-752.87 1228.54,-744.34 1224.58,-750.11"/>
</g>
<!-- Node0x5571696e5128&#45;&gt;Node0x5571696f5e88 -->
<g id="edge59" class="edge">
<title>Node0x5571696e5128&#45;&gt;Node0x5571696f5e88</title>
<path fill="none" stroke="#7fb2ff" d="M604.26,-571.04C746.34,-551.53 972.56,-520.47 1118.66,-500.41"/>
<polygon fill="#7fb2ff" stroke="#7fb2ff" points="1119.17,-503.87 1128.6,-499.04 1118.22,-496.94 1119.17,-503.87"/>
</g>
<!-- Node0x5571696e49a8 -->
<g id="node22" class="node">
<title>Node0x5571696e49a8</title>
<polygon fill="#7fb2ff" stroke="black" points="1048,-353 693,-353 693,-317 1048,-317 1048,-353"/>
<text text-anchor="middle" x="870.5" y="-331.3" font-family="Times,serif" font-size="14.00">{lib/liblldMachO2.a(UnwindInfoSection.cpp.o)}</text>
</g>
<!-- Node0x5571696e5128&#45;&gt;Node0x5571696e49a8 -->
<g id="edge61" class="edge">
<title>Node0x5571696e5128&#45;&gt;Node0x5571696e49a8</title>
<path fill="none" stroke="#7fb2ff" d="M604.35,-586.47C619.85,-581.26 634.29,-573.44 646,-562 710.59,-498.87 617.03,-424.73 682,-362 682.96,-361.07 683.95,-360.16 684.94,-359.27"/>
<polygon fill="#7fb2ff" stroke="#7fb2ff" points="687.28,-361.89 692.9,-352.91 682.9,-356.42 687.28,-361.89"/>
</g>
<!-- Node0x5571696e3ff8 -->
<g id="node23" class="node">
<title>Node0x5571696e3ff8</title>
<polygon fill="none" stroke="black" points="1059,-705 682,-705 682,-669 1059,-669 1059,-705"/>
<text text-anchor="middle" x="870.5" y="-683.3" font-family="Times,serif" font-size="14.00">{lib/liblldMachO2.a(MergedOutputSection.cpp.o)}</text>
</g>
<!-- Node0x5571696e5128&#45;&gt;Node0x5571696e3ff8 -->
<g id="edge62" class="edge">
<title>Node0x5571696e5128&#45;&gt;Node0x5571696e3ff8</title>
<path fill="none" stroke="black" d="M604.27,-604.93C618.76,-609.11 632.97,-614.38 646,-621 665.62,-630.97 662.31,-645.17 682,-655 690.14,-659.06 698.69,-662.62 707.48,-665.73"/>
<polygon fill="black" stroke="black" points="706.51,-669.1 717.11,-668.94 708.73,-662.46 706.51,-669.1"/>
</g>
<!-- Node0x5571696e8a58 -->
<g id="node24" class="node">
<title>Node0x5571696e8a58</title>
<polygon fill="#7fb2ff" stroke="black" points="1009,-499 732,-499 732,-463 1009,-463 1009,-499"/>
<text text-anchor="middle" x="870.5" y="-477.3" font-family="Times,serif" font-size="14.00">{lib/liblldMachO2.a(MapFile.cpp.o)}</text>
</g>
<!-- Node0x5571696e5128&#45;&gt;Node0x5571696e8a58 -->
<g id="edge63" class="edge">
<title>Node0x5571696e5128&#45;&gt;Node0x5571696e8a58</title>
<path fill="none" stroke="#7fb2ff" d="M604.03,-571.31C618.27,-568.56 632.49,-565.47 646,-562 706.33,-546.5 773.21,-521.12 817.94,-502.9"/>
<polygon fill="#7fb2ff" stroke="#7fb2ff" points="819.5,-506.05 827.42,-499.01 816.84,-499.57 819.5,-506.05"/>
</g>
<!-- Node0x5571696ef588&#45;&gt;Node0x5571696ee368 -->
<g id="edge64" class="edge">
<title>Node0x5571696ef588&#45;&gt;Node0x5571696ee368</title>
<path fill="none" stroke="#7fb2ff" d="M1246.58,-752.91C1217.36,-715.1 1143.74,-628.12 1059,-591 985.91,-558.99 783.85,-545.19 637.53,-539.3"/>
<polygon fill="#7fb2ff" stroke="#7fb2ff" points="637.66,-535.8 627.53,-538.9 637.39,-542.8 637.66,-535.8"/>
</g>
<!-- Node0x5571696ef588&#45;&gt;Node0x5571696e58a8 -->
<g id="edge66" class="edge">
<title>Node0x5571696ef588&#45;&gt;Node0x5571696e58a8</title>
<path fill="none" stroke="black" d="M1244.4,-752.74C1210.56,-711.98 1130.6,-609.18 1095,-508 1072.13,-443 1110.48,-245.81 1059,-200 933.83,-88.61 829.73,-120.94 682,-200 656.57,-213.61 670.3,-238.46 646,-254 636.42,-260.13 625.95,-265.04 615.04,-268.96"/>
<polygon fill="black" stroke="black" points="613.76,-265.69 605.36,-272.15 615.95,-272.34 613.76,-265.69"/>
</g>
<!-- Node0x5571696ef588&#45;&gt;Node0x5571696f7878 -->
<g id="edge65" class="edge">
<title>Node0x5571696ef588&#45;&gt;Node0x5571696f7878</title>
<path fill="none" stroke="#7fb2ff" d="M1280.25,-752.94C1336.9,-696.87 1509.83,-525.73 1575.67,-460.56"/>
<polygon fill="#7fb2ff" stroke="#7fb2ff" points="1578.51,-462.68 1583.16,-453.15 1573.59,-457.7 1578.51,-462.68"/>
</g>
<!-- Node0x5571696f99e8&#45;&gt;Node0x5571696ef588 -->
<g id="edge67" class="edge">
<title>Node0x5571696f99e8&#45;&gt;Node0x5571696ef588</title>
<path fill="none" stroke="#7fb2ff" d="M1002.61,-874.97C1021.7,-871.09 1040.99,-866.47 1059,-861 1115.85,-843.73 1177.74,-814.26 1217.61,-793.77"/>
<polygon fill="#7fb2ff" stroke="#7fb2ff" points="1219.25,-796.86 1226.51,-789.16 1216.02,-790.65 1219.25,-796.86"/>
</g>
<!-- Node0x5571696efc68&#45;&gt;Node0x5571696e58a8 -->
<g id="edge68" class="edge">
<title>Node0x5571696efc68&#45;&gt;Node0x5571696e58a8</title>
<path fill="none" stroke="black" d="M743.11,-41.48C720.4,-47.04 698.69,-56.76 682,-73 623.22,-130.2 705.18,-197.21 646,-254 636.85,-262.78 626.09,-269.41 614.49,-274.36"/>
<polygon fill="black" stroke="black" points="613.11,-271.14 605.02,-277.98 615.61,-277.68 613.11,-271.14"/>
</g>
<!-- Node0x5571696f7878&#45;&gt;Node0x5571696f9088 -->
<g id="edge69" class="edge">
<title>Node0x5571696f7878&#45;&gt;Node0x5571696f9088</title>
<path fill="none" stroke="#7fb2ff" d="M1597.65,-453.22C1584.43,-511.52 1535.62,-695.58 1427,-798 1298.38,-919.28 1232.45,-914.8 1059,-949 727.42,-1014.38 574.89,-1119.2 299,-924 175.26,-836.44 142.82,-637.29 134.9,-563.34"/>
<polygon fill="#7fb2ff" stroke="#7fb2ff" points="138.38,-562.97 133.9,-553.36 131.41,-563.66 138.38,-562.97"/>
</g>
<!-- Node0x5571696f7878&#45;&gt;Node0x5571696fceb8 -->
<g id="edge70" class="edge">
<title>Node0x5571696f7878&#45;&gt;Node0x5571696fceb8</title>
<path fill="none" stroke="#7fb2ff" d="M1563.83,-416.87C1478.06,-370.66 1260.01,-250.67 1059,-209 894.93,-174.99 812.7,-104.16 682,-209 624.47,-255.15 699.78,-320.53 646,-371 640.38,-376.28 634.17,-380.77 627.55,-384.58"/>
<polygon fill="#7fb2ff" stroke="#7fb2ff" points="625.56,-381.66 618.28,-389.35 628.77,-387.89 625.56,-381.66"/>
</g>
<!-- Node0x5571696f7878&#45;&gt;Node0x5571696ee368 -->
<g id="edge71" class="edge">
<title>Node0x5571696f7878&#45;&gt;Node0x5571696ee368</title>
<path fill="none" stroke="#7fb2ff" d="M1568.6,-453.1C1534.38,-470.86 1478.68,-496.86 1427,-508 1281.44,-539.37 869.89,-539.99 637.86,-537.58"/>
<polygon fill="#7fb2ff" stroke="#7fb2ff" points="637.67,-534.08 627.63,-537.47 637.59,-541.08 637.67,-534.08"/>
</g>
<!-- Node0x5571696f5e88&#45;&gt;Node0x5571696f9088 -->
<g id="edge72" class="edge">
<title>Node0x5571696f5e88&#45;&gt;Node0x5571696f9088</title>
<path fill="none" stroke="#7fb2ff" d="M1251.27,-499.29C1227.9,-545.82 1158.81,-668.28 1059,-714 982.83,-748.89 754.9,-755.28 682,-714 654.94,-698.68 672.19,-670.77 646,-654 515.36,-570.31 448.06,-659.01 299,-616 252.56,-602.6 203.23,-577 170.43,-558.15"/>
<polygon fill="#7fb2ff" stroke="#7fb2ff" points="172.04,-555.03 161.63,-553.03 168.52,-561.08 172.04,-555.03"/>
</g>
<!-- Node0x5571696e49a8&#45;&gt;Node0x5571696fceb8 -->
<g id="edge73" class="edge">
<title>Node0x5571696e49a8&#45;&gt;Node0x5571696fceb8</title>
<path fill="none" stroke="#7fb2ff" d="M737.38,-353.02C698.29,-358.35 655.34,-364.2 615.65,-369.62"/>
<polygon fill="#7fb2ff" stroke="#7fb2ff" points="615.07,-366.16 605.64,-370.98 616.02,-373.1 615.07,-366.16"/>
</g>
<!-- Node0x5571696e49a8&#45;&gt;Node0x5571696ee368 -->
<g id="edge74" class="edge">
<title>Node0x5571696e49a8&#45;&gt;Node0x5571696ee368</title>
<path fill="none" stroke="#7fb2ff" d="M694.34,-353.06C690.04,-355.76 685.91,-358.73 682,-362 643.17,-394.44 681.08,-433.54 646,-470 626.73,-490.03 600.69,-503.95 574.68,-513.6"/>
<polygon fill="#7fb2ff" stroke="#7fb2ff" points="573.39,-510.34 565.11,-516.96 575.71,-516.95 573.39,-510.34"/>
</g>
<!-- Node0x5571696e49a8&#45;&gt;Node0x5571696f7198 -->
<g id="edge75" class="edge">
<title>Node0x5571696e49a8&#45;&gt;Node0x5571696f7198</title>
<path fill="none" stroke="#7fb2ff" d="M693,-335C674.64,-335 656.03,-335 637.81,-335"/>
<polygon fill="#7fb2ff" stroke="#7fb2ff" points="637.74,-331.5 627.74,-335 637.74,-338.5 637.74,-331.5"/>
</g>
<!-- Node0x5571696e49a8&#45;&gt;Node0x5571696f5898 -->
<g id="edge76" class="edge">
<title>Node0x5571696e49a8&#45;&gt;Node0x5571696f5898</title>
<path fill="none" stroke="#7fb2ff" d="M698.53,-353C692.82,-355.68 687.28,-358.67 682,-362 657.61,-377.39 670.3,-400.46 646,-416 643.63,-417.52 641.2,-418.96 638.73,-420.33"/>
<polygon fill="#7fb2ff" stroke="#7fb2ff" points="636.89,-417.34 629.57,-424.99 640.07,-423.58 636.89,-417.34"/>
</g>
<!-- Node0x5571696e49a8&#45;&gt;Node0x5571696e58a8 -->
<g id="edge77" class="edge">
<title>Node0x5571696e49a8&#45;&gt;Node0x5571696e58a8</title>
<path fill="none" stroke="black" d="M737.37,-316.98C698.11,-311.63 654.97,-305.75 615.14,-300.31"/>
<polygon fill="black" stroke="black" points="615.47,-296.83 605.09,-298.94 614.52,-303.76 615.47,-296.83"/>
</g>
<!-- Node0x5571696e8a58&#45;&gt;Node0x5571696f9088 -->
<g id="edge78" class="edge">
<title>Node0x5571696e8a58&#45;&gt;Node0x5571696f9088</title>
<path fill="none" stroke="#7fb2ff" d="M731.99,-483.14C616.23,-485.98 446.44,-492.61 299,-508 280.61,-509.92 261.16,-512.54 242.29,-515.39"/>
<polygon fill="#7fb2ff" stroke="#7fb2ff" points="241.53,-511.96 232.18,-516.95 242.6,-518.88 241.53,-511.96"/>
</g>
<!-- Node0x5571696e8a58&#45;&gt;Node0x5571696fceb8 -->
<g id="edge79" class="edge">
<title>Node0x5571696e8a58&#45;&gt;Node0x5571696fceb8</title>
<path fill="none" stroke="#7fb2ff" d="M814.9,-463C769.95,-448.69 704.38,-429 646,-416 634.67,-413.48 622.88,-411.11 611,-408.9"/>
<polygon fill="#7fb2ff" stroke="#7fb2ff" points="611.49,-405.43 601.02,-407.08 610.23,-412.31 611.49,-405.43"/>
</g>
<!-- Node0x5571696e8a58&#45;&gt;Node0x5571696ee368 -->
<g id="edge80" class="edge">
<title>Node0x5571696e8a58&#45;&gt;Node0x5571696ee368</title>
<path fill="none" stroke="#7fb2ff" d="M737.38,-499.02C698.29,-504.35 655.34,-510.2 615.65,-515.62"/>
<polygon fill="#7fb2ff" stroke="#7fb2ff" points="615.07,-512.16 605.64,-516.98 616.02,-519.1 615.07,-512.16"/>
</g>
<!-- Node0x5571696e8a58&#45;&gt;Node0x5571696f7878 -->
<g id="edge81" class="edge">
<title>Node0x5571696e8a58&#45;&gt;Node0x5571696f7878</title>
<path fill="none" stroke="#7fb2ff" d="M1005.46,-462.99C1034.91,-459.54 1065.97,-456.29 1095,-454 1215.11,-444.51 1351.63,-439.73 1452.65,-437.35"/>
<polygon fill="#7fb2ff" stroke="#7fb2ff" points="1453.01,-440.84 1462.93,-437.11 1452.85,-433.84 1453.01,-440.84"/>
</g>
<!-- Node0x5571696e8a58&#45;&gt;Node0x5571696f5e88 -->
<g id="edge82" class="edge">
<title>Node0x5571696e8a58&#45;&gt;Node0x5571696f5e88</title>
<path fill="none" stroke="#7fb2ff" d="M1009.02,-481C1033.49,-481 1059.28,-481 1084.64,-481"/>
<polygon fill="#7fb2ff" stroke="#7fb2ff" points="1084.71,-484.5 1094.71,-481 1084.71,-477.5 1084.71,-484.5"/>
</g>
</g>
</svg>
