<?xml version="1.0" encoding="UTF-8" standalone="no"?>
<!DOCTYPE svg PUBLIC "-//W3C//DTD SVG 1.1//EN"
 "http://www.w3.org/Graphics/SVG/1.1/DTD/svg11.dtd">
<!-- Generated by graphviz version 2.43.0 (0)
 -->
<!-- Title: bin/llvm&#45;profgen_lib/libLLVMipo.a Pages: 1 -->
<svg width="755pt" height="121pt"
 viewBox="0.00 0.00 755.00 121.00" xmlns="http://www.w3.org/2000/svg" xmlns:xlink="http://www.w3.org/1999/xlink">
<g id="graph0" class="graph" transform="scale(1 1) rotate(0) translate(4 117)">
<title>bin/llvm&#45;profgen_lib/libLLVMipo.a</title>
<polygon fill="white" stroke="transparent" points="-4,4 -4,-117 751,-117 751,4 -4,4"/>
<text text-anchor="middle" x="373.5" y="-7.8" font-family="Times,serif" font-size="14.00">bin/llvm&#45;profgen_lib/libLLVMipo.a</text>
<!-- Node0x55c9fa530778 -->
<g id="node1" class="node">
<title>Node0x55c9fa530778</title>
<polygon fill="none" stroke="black" points="747,-59 381,-59 381,-23 747,-23 747,-59"/>
<text text-anchor="middle" x="564" y="-37.3" font-family="Times,serif" font-size="14.00">{lib/libLLVMipo.a(SampleContextTracker.cpp.o)}</text>
</g>
<!-- Node0x55c9fa53cd48 -->
<g id="node2" class="node">
<title>Node0x55c9fa53cd48</title>
<polygon fill="none" stroke="black" points="324,-59 21,-59 21,-23 324,-23 324,-59"/>
<text text-anchor="middle" x="172.5" y="-37.3" font-family="Times,serif" font-size="14.00">{lib/libLLVMipo.a(SampleProfile.cpp.o)}</text>
</g>
<!-- Node0x55c9fa53cd48&#45;&gt;Node0x55c9fa530778 -->
<g id="edge1" class="edge">
<title>Node0x55c9fa53cd48&#45;&gt;Node0x55c9fa530778</title>
<path fill="none" stroke="black" d="M324.09,-41C339.37,-41 355.03,-41 370.67,-41"/>
<polygon fill="black" stroke="black" points="370.94,-44.5 380.94,-41 370.94,-37.5 370.94,-44.5"/>
</g>
<!-- Node0x55c9fa5346e8 -->
<g id="node3" class="node">
<title>Node0x55c9fa5346e8</title>
<polygon fill="none" stroke="black" points="345,-113 0,-113 0,-77 345,-77 345,-113"/>
<text text-anchor="middle" x="172.5" y="-91.3" font-family="Times,serif" font-size="14.00">{lib/libLLVMipo.a(SampleProfileProbe.cpp.o)}</text>
</g>
</g>
</svg>
