<?xml version="1.0" encoding="UTF-8" standalone="no"?>
<!DOCTYPE svg PUBLIC "-//W3C//DTD SVG 1.1//EN"
 "http://www.w3.org/Graphics/SVG/1.1/DTD/svg11.dtd">
<!-- Generated by graphviz version 2.43.0 (0)
 -->
<!-- Title: bin/obj2yaml_lib/libLLVMDebugInfoCodeView.a Pages: 1 -->
<svg width="4341pt" height="857pt"
 viewBox="0.00 0.00 4341.00 856.65" xmlns="http://www.w3.org/2000/svg" xmlns:xlink="http://www.w3.org/1999/xlink">
<g id="graph0" class="graph" transform="scale(1 1) rotate(0) translate(4 852.65)">
<title>bin/obj2yaml_lib/libLLVMDebugInfoCodeView.a</title>
<polygon fill="white" stroke="transparent" points="-4,4 -4,-852.65 4337,-852.65 4337,4 -4,4"/>
<text text-anchor="middle" x="2166.5" y="-7.8" font-family="Times,serif" font-size="14.00">bin/obj2yaml_lib/libLLVMDebugInfoCodeView.a</text>
<!-- Node0x55eead649128 -->
<g id="node1" class="node">
<title>Node0x55eead649128</title>
<polygon fill="none" stroke="black" points="3262.5,-537.58 2762.5,-537.58 2762.5,-501.58 3262.5,-501.58 3262.5,-537.58"/>
<text text-anchor="middle" x="3012.5" y="-515.88" font-family="Times,serif" font-size="14.00">{lib/libLLVMDebugInfoCodeView.a(DebugSubsectionRecord.cpp.o)}</text>
</g>
<!-- Node0x55eead645de8 -->
<g id="node2" class="node">
<title>Node0x55eead645de8</title>
<polygon fill="none" stroke="black" points="2685.5,-579.58 2199.5,-579.58 2199.5,-543.58 2685.5,-543.58 2685.5,-579.58"/>
<text text-anchor="middle" x="2442.5" y="-557.88" font-family="Times,serif" font-size="14.00">{lib/libLLVMDebugInfoCodeView.a(StringsAndChecksums.cpp.o)}</text>
</g>
<!-- Node0x55eead645de8&#45;&gt;Node0x55eead649128 -->
<g id="edge1" class="edge">
<title>Node0x55eead645de8&#45;&gt;Node0x55eead649128</title>
<path fill="none" stroke="black" d="M2685.62,-543.68C2709.38,-541.92 2733.54,-540.14 2757.42,-538.37"/>
<polygon fill="black" stroke="black" points="2757.92,-541.84 2767.63,-537.62 2757.4,-534.86 2757.92,-541.84"/>
</g>
<!-- Node0x55eead645b18 -->
<g id="node3" class="node">
<title>Node0x55eead645b18</title>
<polygon fill="none" stroke="black" points="4333,-621.58 3883,-621.58 3883,-585.58 4333,-585.58 4333,-621.58"/>
<text text-anchor="middle" x="4108" y="-599.88" font-family="Times,serif" font-size="14.00">{lib/libLLVMDebugInfoCodeView.a(DebugSubsection.cpp.o)}</text>
</g>
<!-- Node0x55eead645de8&#45;&gt;Node0x55eead645b18 -->
<g id="edge2" class="edge">
<title>Node0x55eead645de8&#45;&gt;Node0x55eead645b18</title>
<path fill="none" stroke="black" d="M2685.76,-571.54C2706.47,-572.28 2727.1,-572.97 2747,-573.58 3141.89,-585.75 3601.43,-594.82 3872.5,-599.65"/>
<polygon fill="black" stroke="black" points="3872.8,-603.16 3882.86,-599.84 3872.92,-596.16 3872.8,-603.16"/>
</g>
<!-- Node0x55eead645578 -->
<g id="node4" class="node">
<title>Node0x55eead645578</title>
<polygon fill="none" stroke="black" points="3847,-575.58 3314,-575.58 3314,-539.58 3847,-539.58 3847,-575.58"/>
<text text-anchor="middle" x="3580.5" y="-553.88" font-family="Times,serif" font-size="14.00">{lib/libLLVMDebugInfoCodeView.a(DebugStringTableSubsection.cpp.o)}</text>
</g>
<!-- Node0x55eead645de8&#45;&gt;Node0x55eead645578 -->
<g id="edge3" class="edge">
<title>Node0x55eead645de8&#45;&gt;Node0x55eead645578</title>
<path fill="none" stroke="black" d="M2685.81,-560.73C2866.97,-560.09 3114.91,-559.22 3303.68,-558.56"/>
<polygon fill="black" stroke="black" points="3303.77,-562.05 3313.76,-558.52 3303.74,-555.05 3303.77,-562.05"/>
</g>
<!-- Node0x55eead647058 -->
<g id="node5" class="node">
<title>Node0x55eead647058</title>
<polygon fill="none" stroke="black" points="3278,-667.58 2747,-667.58 2747,-631.58 3278,-631.58 3278,-667.58"/>
<text text-anchor="middle" x="3012.5" y="-645.88" font-family="Times,serif" font-size="14.00">{lib/libLLVMDebugInfoCodeView.a(DebugChecksumsSubsection.cpp.o)}</text>
</g>
<!-- Node0x55eead645de8&#45;&gt;Node0x55eead647058 -->
<g id="edge4" class="edge">
<title>Node0x55eead645de8&#45;&gt;Node0x55eead647058</title>
<path fill="none" stroke="black" d="M2685.7,-579.5C2694.33,-582.2 2702.8,-585.22 2711,-588.58 2730.01,-596.38 2728.07,-609.6 2747,-617.58 2756.87,-621.75 2767.12,-625.42 2777.6,-628.66"/>
<polygon fill="black" stroke="black" points="2776.7,-632.04 2787.28,-631.51 2778.68,-625.33 2776.7,-632.04"/>
</g>
<!-- Node0x55eead645578&#45;&gt;Node0x55eead645b18 -->
<g id="edge5" class="edge">
<title>Node0x55eead645578&#45;&gt;Node0x55eead645b18</title>
<path fill="none" stroke="black" d="M3787.31,-575.6C3821.35,-578.58 3856.73,-581.68 3891.01,-584.68"/>
<polygon fill="black" stroke="black" points="3890.86,-588.18 3901.13,-585.56 3891.47,-581.2 3890.86,-588.18"/>
</g>
<!-- Node0x55eead647058&#45;&gt;Node0x55eead645b18 -->
<g id="edge6" class="edge">
<title>Node0x55eead647058&#45;&gt;Node0x55eead645b18</title>
<path fill="none" stroke="black" d="M3278.19,-640.46C3442.05,-634.56 3656.78,-626.36 3847,-617.58 3855.44,-617.19 3864.03,-616.79 3872.71,-616.37"/>
<polygon fill="black" stroke="black" points="3873.11,-619.85 3882.93,-615.87 3872.77,-612.86 3873.11,-619.85"/>
</g>
<!-- Node0x55eead647058&#45;&gt;Node0x55eead645578 -->
<g id="edge7" class="edge">
<title>Node0x55eead647058&#45;&gt;Node0x55eead645578</title>
<path fill="none" stroke="black" d="M3124.31,-631.57C3220.45,-615.94 3359.37,-593.36 3458.41,-577.27"/>
<polygon fill="black" stroke="black" points="3459.16,-580.69 3468.47,-575.63 3458.04,-573.78 3459.16,-580.69"/>
</g>
<!-- Node0x55eead643e08 -->
<g id="node6" class="node">
<title>Node0x55eead643e08</title>
<polygon fill="none" stroke="black" points="3229,-253.58 2796,-253.58 2796,-217.58 3229,-217.58 3229,-253.58"/>
<text text-anchor="middle" x="3012.5" y="-231.88" font-family="Times,serif" font-size="14.00">{lib/libLLVMDebugInfoCodeView.a(CodeViewError.cpp.o)}</text>
</g>
<!-- Node0x55eead643778 -->
<g id="node7" class="node">
<title>Node0x55eead643778</title>
<polygon fill="none" stroke="black" points="2711,-725.58 2174,-725.58 2174,-689.58 2711,-689.58 2711,-725.58"/>
<text text-anchor="middle" x="2442.5" y="-703.88" font-family="Times,serif" font-size="14.00">{lib/libLLVMDebugInfoCodeView.a(DebugInlineeLinesSubsection.cpp.o)}</text>
</g>
<!-- Node0x55eead643778&#45;&gt;Node0x55eead645b18 -->
<g id="edge8" class="edge">
<title>Node0x55eead643778&#45;&gt;Node0x55eead645b18</title>
<path fill="none" stroke="black" d="M2711.05,-725.43C2995,-739.07 3455.8,-746.04 3847,-681.58 3918.64,-669.78 3998.22,-643.93 4050.24,-625.22"/>
<polygon fill="black" stroke="black" points="4051.74,-628.4 4059.94,-621.7 4049.35,-621.82 4051.74,-628.4"/>
</g>
<!-- Node0x55eead643778&#45;&gt;Node0x55eead647058 -->
<g id="edge9" class="edge">
<title>Node0x55eead643778&#45;&gt;Node0x55eead647058</title>
<path fill="none" stroke="black" d="M2620.11,-689.55C2685.15,-682.91 2759.02,-675.37 2824.92,-668.64"/>
<polygon fill="black" stroke="black" points="2825.41,-672.1 2835,-667.61 2824.7,-665.14 2825.41,-672.1"/>
</g>
<!-- Node0x55eead642f08 -->
<g id="node8" class="node">
<title>Node0x55eead642f08</title>
<polygon fill="none" stroke="black" points="2686.5,-633.58 2198.5,-633.58 2198.5,-597.58 2686.5,-597.58 2686.5,-633.58"/>
<text text-anchor="middle" x="2442.5" y="-611.88" font-family="Times,serif" font-size="14.00">{lib/libLLVMDebugInfoCodeView.a(DebugLinesSubsection.cpp.o)}</text>
</g>
<!-- Node0x55eead642f08&#45;&gt;Node0x55eead645b18 -->
<g id="edge10" class="edge">
<title>Node0x55eead642f08&#45;&gt;Node0x55eead645b18</title>
<path fill="none" stroke="black" d="M2512.82,-633.6C2573.96,-648.51 2665.71,-668.5 2747,-676.58 3233.73,-725.01 3360.47,-692.01 3847,-641.58 3893.19,-636.8 3943.76,-629.81 3987.92,-623.12"/>
<polygon fill="black" stroke="black" points="3988.47,-626.58 3997.83,-621.61 3987.41,-619.66 3988.47,-626.58"/>
</g>
<!-- Node0x55eead642f08&#45;&gt;Node0x55eead647058 -->
<g id="edge11" class="edge">
<title>Node0x55eead642f08&#45;&gt;Node0x55eead647058</title>
<path fill="none" stroke="black" d="M2686.85,-630.15C2703.31,-631.14 2719.96,-632.13 2736.56,-633.13"/>
<polygon fill="black" stroke="black" points="2736.7,-636.64 2746.89,-633.74 2737.11,-629.65 2736.7,-636.64"/>
</g>
<!-- Node0x55eead642f08&#45;&gt;Node0x55eead643e08 -->
<g id="edge12" class="edge">
<title>Node0x55eead642f08&#45;&gt;Node0x55eead643e08</title>
<path fill="none" stroke="black" d="M2686.57,-604.06C2695.14,-599.62 2703.33,-594.49 2711,-588.58 2747.1,-560.78 2722.06,-530.72 2747,-492.58 2812.51,-392.44 2923.35,-301.53 2978.41,-259.76"/>
<polygon fill="black" stroke="black" points="2980.55,-262.53 2986.44,-253.72 2976.34,-256.93 2980.55,-262.53"/>
</g>
<!-- Node0x55eead6470f8 -->
<g id="node9" class="node">
<title>Node0x55eead6470f8</title>
<polygon fill="none" stroke="black" points="2697,-353.58 2188,-353.58 2188,-317.58 2697,-317.58 2697,-353.58"/>
<text text-anchor="middle" x="2442.5" y="-331.88" font-family="Times,serif" font-size="14.00">{lib/libLLVMDebugInfoCodeView.a(DebugCrossExSubsection.cpp.o)}</text>
</g>
<!-- Node0x55eead6470f8&#45;&gt;Node0x55eead645b18 -->
<g id="edge13" class="edge">
<title>Node0x55eead6470f8&#45;&gt;Node0x55eead645b18</title>
<path fill="none" stroke="black" d="M2697.35,-321.39C3043.87,-305.54 3645.03,-291.59 3847,-371.58 3956.26,-414.86 4049.42,-526.05 4087.99,-577.16"/>
<polygon fill="black" stroke="black" points="4085.35,-579.48 4094.13,-585.41 4090.97,-575.3 4085.35,-579.48"/>
</g>
<!-- Node0x55eead6470f8&#45;&gt;Node0x55eead643e08 -->
<g id="edge14" class="edge">
<title>Node0x55eead6470f8&#45;&gt;Node0x55eead643e08</title>
<path fill="none" stroke="black" d="M2650.53,-317.55C2671.01,-314.91 2691.45,-311.93 2711,-308.58 2789.58,-295.14 2878.09,-272.73 2938.59,-256.28"/>
<polygon fill="black" stroke="black" points="2939.7,-259.61 2948.42,-253.59 2937.85,-252.86 2939.7,-259.61"/>
</g>
<!-- Node0x55eead646888 -->
<g id="node10" class="node">
<title>Node0x55eead646888</title>
<polygon fill="none" stroke="black" points="2701.5,-407.58 2183.5,-407.58 2183.5,-371.58 2701.5,-371.58 2701.5,-407.58"/>
<text text-anchor="middle" x="2442.5" y="-385.88" font-family="Times,serif" font-size="14.00">{lib/libLLVMDebugInfoCodeView.a(DebugCrossImpSubsection.cpp.o)}</text>
</g>
<!-- Node0x55eead646888&#45;&gt;Node0x55eead645b18 -->
<g id="edge15" class="edge">
<title>Node0x55eead646888&#45;&gt;Node0x55eead645b18</title>
<path fill="none" stroke="black" d="M2701.84,-379.39C3047.64,-368.69 3641.34,-361.46 3847,-427.58 3943.68,-458.67 4037.35,-537.73 4081.18,-578.47"/>
<polygon fill="black" stroke="black" points="4078.85,-581.08 4088.53,-585.37 4083.64,-575.98 4078.85,-581.08"/>
</g>
<!-- Node0x55eead646888&#45;&gt;Node0x55eead645578 -->
<g id="edge16" class="edge">
<title>Node0x55eead646888&#45;&gt;Node0x55eead645578</title>
<path fill="none" stroke="black" d="M2701.53,-380.82C2869.59,-382.44 3091.45,-398.57 3278,-459.58 3295.82,-465.41 3296.83,-474.05 3314,-481.58 3368.85,-505.66 3433.41,-524.34 3485.13,-537.16"/>
<polygon fill="black" stroke="black" points="3484.42,-540.59 3494.96,-539.56 3486.08,-533.79 3484.42,-540.59"/>
</g>
<!-- Node0x55eead646888&#45;&gt;Node0x55eead643e08 -->
<g id="edge17" class="edge">
<title>Node0x55eead646888&#45;&gt;Node0x55eead643e08</title>
<path fill="none" stroke="black" d="M2673.55,-371.52C2686.3,-368.92 2698.86,-365.96 2711,-362.58 2728.05,-357.85 2730.83,-352.76 2747,-345.58 2819.04,-313.61 2903.26,-279.07 2956.96,-257.39"/>
<polygon fill="black" stroke="black" points="2958.33,-260.61 2966.3,-253.63 2955.71,-254.12 2958.33,-260.61"/>
</g>
<!-- Node0x55eead646158 -->
<g id="node11" class="node">
<title>Node0x55eead646158</title>
<polygon fill="none" stroke="black" points="3836,-472.58 3325,-472.58 3325,-436.58 3836,-436.58 3836,-472.58"/>
<text text-anchor="middle" x="3580.5" y="-450.88" font-family="Times,serif" font-size="14.00">{lib/libLLVMDebugInfoCodeView.a(DebugSymbolsSubsection.cpp.o)}</text>
</g>
<!-- Node0x55eead646158&#45;&gt;Node0x55eead645b18 -->
<g id="edge18" class="edge">
<title>Node0x55eead646158&#45;&gt;Node0x55eead645b18</title>
<path fill="none" stroke="black" d="M3645.15,-472.63C3743.09,-500.4 3930.26,-553.47 4033.72,-582.8"/>
<polygon fill="black" stroke="black" points="4032.88,-586.21 4043.46,-585.57 4034.79,-579.47 4032.88,-586.21"/>
</g>
<!-- Node0x55eead645938 -->
<g id="node12" class="node">
<title>Node0x55eead645938</title>
<polygon fill="none" stroke="black" points="2707.5,-299.58 2177.5,-299.58 2177.5,-263.58 2707.5,-263.58 2707.5,-299.58"/>
<text text-anchor="middle" x="2442.5" y="-277.88" font-family="Times,serif" font-size="14.00">{lib/libLLVMDebugInfoCodeView.a(DebugFrameDataSubsection.cpp.o)}</text>
</g>
<!-- Node0x55eead645938&#45;&gt;Node0x55eead645b18 -->
<g id="edge19" class="edge">
<title>Node0x55eead645938&#45;&gt;Node0x55eead645b18</title>
<path fill="none" stroke="black" d="M2707.76,-275.04C3085.87,-267.41 3746.89,-261.15 3847,-307.58 3971.57,-365.36 4060.66,-514.56 4093.31,-576.26"/>
<polygon fill="black" stroke="black" points="4090.34,-578.13 4098.06,-585.38 4096.54,-574.89 4090.34,-578.13"/>
</g>
<!-- Node0x55eead645938&#45;&gt;Node0x55eead643e08 -->
<g id="edge20" class="edge">
<title>Node0x55eead645938&#45;&gt;Node0x55eead643e08</title>
<path fill="none" stroke="black" d="M2665.95,-263.57C2705.37,-260.38 2746.45,-257.05 2785.95,-253.85"/>
<polygon fill="black" stroke="black" points="2786.27,-257.34 2795.96,-253.04 2785.71,-250.36 2786.27,-257.34"/>
</g>
<!-- Node0x55eead6452a8 -->
<g id="node13" class="node">
<title>Node0x55eead6452a8</title>
<polygon fill="none" stroke="black" points="440.5,-199.58 84.5,-199.58 84.5,-163.58 440.5,-163.58 440.5,-199.58"/>
<text text-anchor="middle" x="262.5" y="-177.88" font-family="Times,serif" font-size="14.00">{lib/libLLVMDebugInfoCodeView.a(Line.cpp.o)}</text>
</g>
<!-- Node0x55eead644f38 -->
<g id="node14" class="node">
<title>Node0x55eead644f38</title>
<polygon fill="none" stroke="black" points="3846.5,-835.58 3314.5,-835.58 3314.5,-799.58 3846.5,-799.58 3846.5,-835.58"/>
<text text-anchor="middle" x="3580.5" y="-813.88" font-family="Times,serif" font-size="14.00">{lib/libLLVMDebugInfoCodeView.a(DebugSymbolRVASubsection.cpp.o)}</text>
</g>
<!-- Node0x55eead644f38&#45;&gt;Node0x55eead645b18 -->
<g id="edge21" class="edge">
<title>Node0x55eead644f38&#45;&gt;Node0x55eead645b18</title>
<path fill="none" stroke="black" d="M3802.33,-799.5C3817.66,-795.65 3832.69,-791.06 3847,-785.58 3942.88,-748.91 4036.92,-669.22 4081.01,-628.55"/>
<polygon fill="black" stroke="black" points="4083.47,-631.04 4088.4,-621.66 4078.69,-625.92 4083.47,-631.04"/>
</g>
<!-- Node0x55eead645668 -->
<g id="node15" class="node">
<title>Node0x55eead645668</title>
<polygon fill="none" stroke="black" points="2138,-533.58 1642,-533.58 1642,-497.58 2138,-497.58 2138,-533.58"/>
<text text-anchor="middle" x="1890" y="-511.88" font-family="Times,serif" font-size="14.00">{lib/libLLVMDebugInfoCodeView.a(DebugSubsectionVisitor.cpp.o)}</text>
</g>
<!-- Node0x55eead645668&#45;&gt;Node0x55eead649128 -->
<g id="edge22" class="edge">
<title>Node0x55eead645668&#45;&gt;Node0x55eead649128</title>
<path fill="none" stroke="black" d="M2138.29,-516.47C2320.39,-517.12 2567.43,-518 2752.29,-518.66"/>
<polygon fill="black" stroke="black" points="2752.41,-522.16 2762.43,-518.69 2752.44,-515.16 2752.41,-522.16"/>
</g>
<!-- Node0x55eead645668&#45;&gt;Node0x55eead645b18 -->
<g id="edge23" class="edge">
<title>Node0x55eead645668&#45;&gt;Node0x55eead645b18</title>
<path fill="none" stroke="black" d="M1906.49,-533.82C1945.72,-578.44 2054.44,-692.56 2174,-734.58 2349.38,-796.23 3666.07,-762.29 3847,-719.58 3929.65,-700.08 4018.47,-654.51 4067.95,-626.64"/>
<polygon fill="black" stroke="black" points="4069.76,-629.64 4076.72,-621.66 4066.3,-623.55 4069.76,-629.64"/>
</g>
<!-- Node0x55eead645668&#45;&gt;Node0x55eead645578 -->
<g id="edge24" class="edge">
<title>Node0x55eead645668&#45;&gt;Node0x55eead645578</title>
<path fill="none" stroke="black" d="M2083.21,-497.57C2351.58,-475.8 2853.38,-447.33 3278,-492.58 3356.56,-500.96 3444.71,-521.27 3505.3,-536.98"/>
<polygon fill="black" stroke="black" points="3504.6,-540.41 3515.16,-539.55 3506.37,-533.64 3504.6,-540.41"/>
</g>
<!-- Node0x55eead645668&#45;&gt;Node0x55eead647058 -->
<g id="edge25" class="edge">
<title>Node0x55eead645668&#45;&gt;Node0x55eead647058</title>
<path fill="none" stroke="black" d="M1920.15,-533.6C1969.96,-563.23 2075.62,-621.09 2174,-642.58 2400.5,-692.07 2669.75,-682.63 2840.63,-668.46"/>
<polygon fill="black" stroke="black" points="2841.05,-671.94 2850.72,-667.61 2840.46,-664.97 2841.05,-671.94"/>
</g>
<!-- Node0x55eead645668&#45;&gt;Node0x55eead643778 -->
<g id="edge26" class="edge">
<title>Node0x55eead645668&#45;&gt;Node0x55eead643778</title>
<path fill="none" stroke="black" d="M1915.18,-533.72C1962.2,-567.94 2070.49,-641.65 2174,-675.58 2187.72,-680.08 2202.03,-683.96 2216.57,-687.31"/>
<polygon fill="black" stroke="black" points="2216.15,-690.8 2226.67,-689.54 2217.66,-683.96 2216.15,-690.8"/>
</g>
<!-- Node0x55eead645668&#45;&gt;Node0x55eead642f08 -->
<g id="edge27" class="edge">
<title>Node0x55eead645668&#45;&gt;Node0x55eead642f08</title>
<path fill="none" stroke="black" d="M1950.05,-533.62C2006.9,-550.31 2095.58,-574.59 2174,-588.58 2189.6,-591.37 2205.77,-593.89 2222.08,-596.16"/>
<polygon fill="black" stroke="black" points="2221.87,-599.67 2232.25,-597.55 2222.82,-592.73 2221.87,-599.67"/>
</g>
<!-- Node0x55eead645668&#45;&gt;Node0x55eead6470f8 -->
<g id="edge28" class="edge">
<title>Node0x55eead645668&#45;&gt;Node0x55eead6470f8</title>
<path fill="none" stroke="black" d="M1916,-497.58C1963.56,-464.39 2071.49,-394.08 2174,-362.58 2181.77,-360.2 2189.72,-358.01 2197.8,-356"/>
<polygon fill="black" stroke="black" points="2198.78,-359.37 2207.7,-353.65 2197.16,-352.56 2198.78,-359.37"/>
</g>
<!-- Node0x55eead645668&#45;&gt;Node0x55eead646888 -->
<g id="edge29" class="edge">
<title>Node0x55eead645668&#45;&gt;Node0x55eead646888</title>
<path fill="none" stroke="black" d="M1935.79,-497.57C1990.93,-476.14 2087.85,-440.84 2174,-421.58 2195.47,-416.79 2218.08,-412.67 2240.69,-409.15"/>
<polygon fill="black" stroke="black" points="2241.37,-412.59 2250.73,-407.62 2240.31,-405.67 2241.37,-412.59"/>
</g>
<!-- Node0x55eead645668&#45;&gt;Node0x55eead646158 -->
<g id="edge30" class="edge">
<title>Node0x55eead645668&#45;&gt;Node0x55eead646158</title>
<path fill="none" stroke="black" d="M1971.94,-497.57C2028.28,-485.95 2105.31,-471.88 2174,-465.58 2570.06,-429.3 3031.51,-434.76 3314.55,-443.52"/>
<polygon fill="black" stroke="black" points="3314.86,-447.03 3324.96,-443.84 3315.08,-440.03 3314.86,-447.03"/>
</g>
<!-- Node0x55eead645668&#45;&gt;Node0x55eead645938 -->
<g id="edge31" class="edge">
<title>Node0x55eead645668&#45;&gt;Node0x55eead645938</title>
<path fill="none" stroke="black" d="M1908.45,-497.4C1949.9,-455.52 2059.47,-352.49 2174,-308.58 2179.58,-306.44 2185.28,-304.45 2191.06,-302.59"/>
<polygon fill="black" stroke="black" points="2192.33,-305.87 2200.87,-299.6 2190.28,-299.17 2192.33,-305.87"/>
</g>
<!-- Node0x55eead645668&#45;&gt;Node0x55eead644f38 -->
<g id="edge32" class="edge">
<title>Node0x55eead645668&#45;&gt;Node0x55eead644f38</title>
<path fill="none" stroke="black" d="M1902.61,-533.69C1936.72,-585 2042.55,-731.19 2174,-785.58 2371.06,-867.13 2954.05,-852.25 3304.23,-834.6"/>
<polygon fill="black" stroke="black" points="3304.45,-838.09 3314.26,-834.09 3304.1,-831.1 3304.45,-838.09"/>
</g>
<!-- Node0x55eead646428 -->
<g id="node16" class="node">
<title>Node0x55eead646428</title>
<polygon fill="none" stroke="black" points="2096.5,-153.58 1683.5,-153.58 1683.5,-117.58 2096.5,-117.58 2096.5,-153.58"/>
<text text-anchor="middle" x="1890" y="-131.88" font-family="Times,serif" font-size="14.00">{lib/libLLVMDebugInfoCodeView.a(EnumTables.cpp.o)}</text>
</g>
<!-- Node0x55eead646ba8 -->
<g id="node17" class="node">
<title>Node0x55eead646ba8</title>
<polygon fill="none" stroke="black" points="1606,-222.58 1115,-222.58 1115,-186.58 1606,-186.58 1606,-222.58"/>
<text text-anchor="middle" x="1360.5" y="-200.88" font-family="Times,serif" font-size="14.00">{lib/libLLVMDebugInfoCodeView.a(SymbolRecordMapping.cpp.o)}</text>
</g>
<!-- Node0x55eead646ba8&#45;&gt;Node0x55eead643e08 -->
<g id="edge33" class="edge">
<title>Node0x55eead646ba8&#45;&gt;Node0x55eead643e08</title>
<path fill="none" stroke="black" d="M1606.26,-215.47C1618.34,-215.88 1630.31,-216.25 1642,-216.58 2044.61,-227.99 2513.99,-232.62 2785.53,-234.45"/>
<polygon fill="black" stroke="black" points="2785.88,-237.95 2795.91,-234.52 2785.93,-230.95 2785.88,-237.95"/>
</g>
<!-- Node0x55eead647378 -->
<g id="node18" class="node">
<title>Node0x55eead647378</title>
<polygon fill="none" stroke="black" points="2120.5,-207.58 1659.5,-207.58 1659.5,-171.58 2120.5,-171.58 2120.5,-207.58"/>
<text text-anchor="middle" x="1890" y="-185.88" font-family="Times,serif" font-size="14.00">{lib/libLLVMDebugInfoCodeView.a(CodeViewRecordIO.cpp.o)}</text>
</g>
<!-- Node0x55eead646ba8&#45;&gt;Node0x55eead647378 -->
<g id="edge34" class="edge">
<title>Node0x55eead646ba8&#45;&gt;Node0x55eead647378</title>
<path fill="none" stroke="black" d="M1606.33,-197.62C1620.53,-197.22 1634.79,-196.81 1648.97,-196.41"/>
<polygon fill="black" stroke="black" points="1649.37,-199.9 1659.27,-196.12 1649.17,-192.9 1649.37,-199.9"/>
</g>
<!-- Node0x55eead647378&#45;&gt;Node0x55eead643e08 -->
<g id="edge36" class="edge">
<title>Node0x55eead647378&#45;&gt;Node0x55eead643e08</title>
<path fill="none" stroke="black" d="M2120.77,-198.09C2285.17,-204.28 2511.73,-213.05 2711,-221.58 2735.18,-222.62 2760.46,-223.74 2785.64,-224.88"/>
<polygon fill="black" stroke="black" points="2785.51,-228.37 2795.66,-225.33 2785.83,-221.38 2785.51,-228.37"/>
</g>
<!-- Node0x55eead640258 -->
<g id="node20" class="node">
<title>Node0x55eead640258</title>
<polygon fill="none" stroke="black" points="2675,-169.58 2210,-169.58 2210,-133.58 2675,-133.58 2675,-169.58"/>
<text text-anchor="middle" x="2442.5" y="-147.88" font-family="Times,serif" font-size="14.00">{lib/libLLVMDebugInfoCodeView.a(RecordSerialization.cpp.o)}</text>
</g>
<!-- Node0x55eead647378&#45;&gt;Node0x55eead640258 -->
<g id="edge37" class="edge">
<title>Node0x55eead647378&#45;&gt;Node0x55eead640258</title>
<path fill="none" stroke="black" d="M2120.87,-173.72C2146.89,-171.92 2173.45,-170.09 2199.61,-168.28"/>
<polygon fill="black" stroke="black" points="2199.88,-171.77 2209.62,-167.59 2199.4,-164.79 2199.88,-171.77"/>
</g>
<!-- Node0x55eead642378 -->
<g id="node19" class="node">
<title>Node0x55eead642378</title>
<polygon fill="none" stroke="black" points="1043,-222.58 597,-222.58 597,-186.58 1043,-186.58 1043,-222.58"/>
<text text-anchor="middle" x="820" y="-200.88" font-family="Times,serif" font-size="14.00">{lib/libLLVMDebugInfoCodeView.a(SymbolSerializer.cpp.o)}</text>
</g>
<!-- Node0x55eead642378&#45;&gt;Node0x55eead646ba8 -->
<g id="edge35" class="edge">
<title>Node0x55eead642378&#45;&gt;Node0x55eead646ba8</title>
<path fill="none" stroke="black" d="M1043.14,-204.58C1063.43,-204.58 1084.09,-204.58 1104.64,-204.58"/>
<polygon fill="black" stroke="black" points="1104.71,-208.08 1114.71,-204.58 1104.71,-201.08 1104.71,-208.08"/>
</g>
<!-- Node0x55eead640258&#45;&gt;Node0x55eead643e08 -->
<g id="edge38" class="edge">
<title>Node0x55eead640258&#45;&gt;Node0x55eead643e08</title>
<path fill="none" stroke="black" d="M2605.65,-169.6C2640.45,-173.85 2676.98,-178.61 2711,-183.58 2775.49,-193.02 2847.45,-205.4 2904.78,-215.72"/>
<polygon fill="black" stroke="black" points="2904.48,-219.22 2914.94,-217.55 2905.72,-212.33 2904.48,-219.22"/>
</g>
<!-- Node0x55eead642f58 -->
<g id="node21" class="node">
<title>Node0x55eead642f58</title>
<polygon fill="none" stroke="black" points="1597,-107.58 1124,-107.58 1124,-71.58 1597,-71.58 1597,-107.58"/>
<text text-anchor="middle" x="1360.5" y="-85.88" font-family="Times,serif" font-size="14.00">{lib/libLLVMDebugInfoCodeView.a(TypeRecordMapping.cpp.o)}</text>
</g>
<!-- Node0x55eead642f58&#45;&gt;Node0x55eead643e08 -->
<g id="edge39" class="edge">
<title>Node0x55eead642f58&#45;&gt;Node0x55eead643e08</title>
<path fill="none" stroke="black" d="M1597.05,-86.39C1925.71,-83.53 2504.76,-84.73 2711,-124.58 2804.62,-142.67 2907.63,-186.32 2965.46,-213.18"/>
<polygon fill="black" stroke="black" points="2964.15,-216.43 2974.69,-217.5 2967.11,-210.09 2964.15,-216.43"/>
</g>
<!-- Node0x55eead642f58&#45;&gt;Node0x55eead646428 -->
<g id="edge40" class="edge">
<title>Node0x55eead642f58&#45;&gt;Node0x55eead646428</title>
<path fill="none" stroke="black" d="M1568.09,-107.6C1602.52,-110.6 1638.32,-113.72 1672.98,-116.75"/>
<polygon fill="black" stroke="black" points="1672.95,-120.26 1683.21,-117.64 1673.55,-113.28 1672.95,-120.26"/>
</g>
<!-- Node0x55eead642f58&#45;&gt;Node0x55eead647378 -->
<g id="edge41" class="edge">
<title>Node0x55eead642f58&#45;&gt;Node0x55eead647378</title>
<path fill="none" stroke="black" d="M1420.58,-107.64C1476.96,-124.24 1564.55,-148.35 1642,-162.58 1656.97,-165.33 1672.5,-167.84 1688.15,-170.11"/>
<polygon fill="black" stroke="black" points="1688.06,-173.64 1698.45,-171.58 1689.04,-166.71 1688.06,-173.64"/>
</g>
<!-- Node0x55eead642a08 -->
<g id="node22" class="node">
<title>Node0x55eead642a08</title>
<polygon fill="none" stroke="black" points="2102.5,-61.58 1677.5,-61.58 1677.5,-25.58 2102.5,-25.58 2102.5,-61.58"/>
<text text-anchor="middle" x="1890" y="-39.88" font-family="Times,serif" font-size="14.00">{lib/libLLVMDebugInfoCodeView.a(CVTypeVisitor.cpp.o)}</text>
</g>
<!-- Node0x55eead642f58&#45;&gt;Node0x55eead642a08 -->
<g id="edge42" class="edge">
<title>Node0x55eead642f58&#45;&gt;Node0x55eead642a08</title>
<path fill="none" stroke="black" d="M1499.06,-71.58C1550.39,-66.45 1610.07,-61.03 1667.07,-56.26"/>
<polygon fill="black" stroke="black" points="1667.63,-59.73 1677.3,-55.41 1667.05,-52.75 1667.63,-59.73"/>
</g>
<!-- Node0x55eead642a08&#45;&gt;Node0x55eead643e08 -->
<g id="edge43" class="edge">
<title>Node0x55eead642a08&#45;&gt;Node0x55eead643e08</title>
<path fill="none" stroke="black" d="M2102.58,-26.21C2270.51,-18.49 2509.69,-21.14 2711,-75.58 2816.12,-104.01 2925.58,-174.4 2978.68,-211.62"/>
<polygon fill="black" stroke="black" points="2976.83,-214.6 2987.02,-217.51 2980.88,-208.88 2976.83,-214.6"/>
</g>
<!-- Node0x55eead642a08&#45;&gt;Node0x55eead642f58 -->
<g id="edge44" class="edge">
<title>Node0x55eead642a08&#45;&gt;Node0x55eead642f58</title>
<path fill="none" stroke="black" d="M1751.22,-61.61C1707.07,-66.02 1656.76,-70.65 1607.3,-74.89"/>
<polygon fill="black" stroke="black" points="1606.76,-71.42 1597.09,-75.75 1607.36,-78.39 1606.76,-71.42"/>
</g>
<!-- Node0x55eead644998 -->
<g id="node23" class="node">
<title>Node0x55eead644998</title>
<polygon fill="none" stroke="black" points="525,-145.58 0,-145.58 0,-109.58 525,-109.58 525,-145.58"/>
<text text-anchor="middle" x="262.5" y="-123.88" font-family="Times,serif" font-size="14.00">{lib/libLLVMDebugInfoCodeView.a(AppendingTypeTableBuilder.cpp.o)}</text>
</g>
<!-- Node0x55eead644308 -->
<g id="node24" class="node">
<title>Node0x55eead644308</title>
<polygon fill="none" stroke="black" points="1079,-145.58 561,-145.58 561,-109.58 1079,-109.58 1079,-145.58"/>
<text text-anchor="middle" x="820" y="-123.88" font-family="Times,serif" font-size="14.00">{lib/libLLVMDebugInfoCodeView.a(ContinuationRecordBuilder.cpp.o)}</text>
</g>
<!-- Node0x55eead644998&#45;&gt;Node0x55eead644308 -->
<g id="edge45" class="edge">
<title>Node0x55eead644998&#45;&gt;Node0x55eead644308</title>
<path fill="none" stroke="black" d="M525.39,-127.58C533.79,-127.58 542.2,-127.58 550.6,-127.58"/>
<polygon fill="black" stroke="black" points="550.85,-131.08 560.85,-127.58 550.85,-124.08 550.85,-131.08"/>
</g>
<!-- Node0x55eead644308&#45;&gt;Node0x55eead642f58 -->
<g id="edge46" class="edge">
<title>Node0x55eead644308&#45;&gt;Node0x55eead642f58</title>
<path fill="none" stroke="black" d="M1076.45,-109.56C1088.76,-108.69 1101.1,-107.82 1113.39,-106.95"/>
<polygon fill="black" stroke="black" points="1113.96,-110.42 1123.68,-106.22 1113.46,-103.44 1113.96,-110.42"/>
</g>
<!-- Node0x55eead643c78 -->
<g id="node25" class="node">
<title>Node0x55eead643c78</title>
<polygon fill="none" stroke="black" points="465,-253.58 60,-253.58 60,-217.58 465,-217.58 465,-253.58"/>
<text text-anchor="middle" x="262.5" y="-231.88" font-family="Times,serif" font-size="14.00">{lib/libLLVMDebugInfoCodeView.a(Formatters.cpp.o)}</text>
</g>
<!-- Node0x55eead643728 -->
<g id="node26" class="node">
<title>Node0x55eead643728</title>
<polygon fill="none" stroke="black" points="1058,-91.58 582,-91.58 582,-55.58 1058,-55.58 1058,-91.58"/>
<text text-anchor="middle" x="820" y="-69.88" font-family="Times,serif" font-size="14.00">{lib/libLLVMDebugInfoCodeView.a(SimpleTypeSerializer.cpp.o)}</text>
</g>
<!-- Node0x55eead643728&#45;&gt;Node0x55eead642f58 -->
<g id="edge47" class="edge">
<title>Node0x55eead643728&#45;&gt;Node0x55eead642f58</title>
<path fill="none" stroke="black" d="M1058.37,-80.64C1076.69,-81.18 1095.21,-81.73 1113.58,-82.28"/>
<polygon fill="black" stroke="black" points="1113.67,-85.78 1123.77,-82.58 1113.88,-78.78 1113.67,-85.78"/>
</g>
</g>
</svg>
