<?xml version="1.0" encoding="UTF-8" standalone="no"?>
<!DOCTYPE svg PUBLIC "-//W3C//DTD SVG 1.1//EN"
 "http://www.w3.org/Graphics/SVG/1.1/DTD/svg11.dtd">
<!-- Generated by graphviz version 2.43.0 (0)
 -->
<!-- Title: bin/llvm&#45;cov_lib/libLLVMCoverage.a Pages: 1 -->
<svg width="853pt" height="67pt"
 viewBox="0.00 0.00 853.00 67.00" xmlns="http://www.w3.org/2000/svg" xmlns:xlink="http://www.w3.org/1999/xlink">
<g id="graph0" class="graph" transform="scale(1 1) rotate(0) translate(4 63)">
<title>bin/llvm&#45;cov_lib/libLLVMCoverage.a</title>
<polygon fill="white" stroke="transparent" points="-4,4 -4,-63 849,-63 849,4 -4,4"/>
<text text-anchor="middle" x="422.5" y="-7.8" font-family="Times,serif" font-size="14.00">bin/llvm&#45;cov_lib/libLLVMCoverage.a</text>
<!-- Node0x55ec5aebc7c8 -->
<g id="node1" class="node">
<title>Node0x55ec5aebc7c8</title>
<polygon fill="#7fb2ff" stroke="black" points="380,-59 0,-59 0,-23 380,-23 380,-59"/>
<text text-anchor="middle" x="190" y="-37.3" font-family="Times,serif" font-size="14.00">{lib/libLLVMCoverage.a(CoverageMapping.cpp.o)}</text>
</g>
<!-- Node0x55ec5aebc188 -->
<g id="node2" class="node">
<title>Node0x55ec5aebc188</title>
<polygon fill="#7fb2ff" stroke="black" points="845,-59 416,-59 416,-23 845,-23 845,-59"/>
<text text-anchor="middle" x="630.5" y="-37.3" font-family="Times,serif" font-size="14.00">{lib/libLLVMCoverage.a(CoverageMappingReader.cpp.o)}</text>
</g>
<!-- Node0x55ec5aebc7c8&#45;&gt;Node0x55ec5aebc188 -->
<g id="edge1" class="edge">
<title>Node0x55ec5aebc7c8&#45;&gt;Node0x55ec5aebc188</title>
<path fill="none" stroke="#7fb2ff" d="M380.15,-34.31C388.64,-34.27 397.2,-34.26 405.77,-34.25"/>
<polygon fill="#7fb2ff" stroke="#7fb2ff" points="405.83,-37.75 415.83,-34.25 405.83,-30.75 405.83,-37.75"/>
</g>
<!-- Node0x55ec5aebc188&#45;&gt;Node0x55ec5aebc7c8 -->
<g id="edge2" class="edge">
<title>Node0x55ec5aebc188&#45;&gt;Node0x55ec5aebc7c8</title>
<path fill="none" stroke="#7fb2ff" d="M415.83,-47.75C407.35,-47.75 398.87,-47.75 390.42,-47.73"/>
<polygon fill="#7fb2ff" stroke="#7fb2ff" points="390.16,-44.22 380.15,-47.69 390.13,-51.22 390.16,-44.22"/>
</g>
</g>
</svg>
