<?xml version="1.0" encoding="UTF-8" standalone="no"?>
<!DOCTYPE svg PUBLIC "-//W3C//DTD SVG 1.1//EN"
 "http://www.w3.org/Graphics/SVG/1.1/DTD/svg11.dtd">
<!-- Generated by graphviz version 2.43.0 (0)
 -->
<!-- Title: bin/llvm&#45;cvtres Pages: 1 -->
<svg width="1870pt" height="762pt"
 viewBox="0.00 0.00 1870.00 762.36" xmlns="http://www.w3.org/2000/svg" xmlns:xlink="http://www.w3.org/1999/xlink">
<g id="graph0" class="graph" transform="scale(1 1) rotate(0) translate(4 758.36)">
<title>bin/llvm&#45;cvtres</title>
<polygon fill="white" stroke="transparent" points="-4,4 -4,-758.36 1866,-758.36 1866,4 -4,4"/>
<text text-anchor="middle" x="931" y="-7.8" font-family="Times,serif" font-size="14.00">bin/llvm&#45;cvtres</text>
<!-- Node0x55f5b1bdf618 -->
<g id="node1" class="node">
<title>Node0x55f5b1bdf618</title>
<polygon fill="#7fb2ff" stroke="black" points="1144,-728.63 667,-728.63 667,-692.63 1144,-692.63 1144,-728.63"/>
<text text-anchor="middle" x="905.5" y="-706.93" font-family="Times,serif" font-size="14.00">{tools/llvm&#45;cvtres/CMakeFiles/llvm&#45;cvtres.dir/llvm&#45;cvtres.cpp.o}</text>
</g>
<!-- Node0x55f5b1bdd818 -->
<g id="node2" class="node">
<title>Node0x55f5b1bdd818</title>
<polygon fill="#7fb2ff" stroke="black" points="1418,-728.63 1191,-728.63 1191,-692.63 1418,-692.63 1418,-728.63"/>
<text text-anchor="middle" x="1304.5" y="-706.93" font-family="Times,serif" font-size="14.00">{lib/libLLVMBinaryFormat.a}</text>
</g>
<!-- Node0x55f5b1bdf618&#45;&gt;Node0x55f5b1bdd818 -->
<g id="edge1" class="edge">
<title>Node0x55f5b1bdf618&#45;&gt;Node0x55f5b1bdd818</title>
<path fill="none" stroke="#7fb2ff" d="M1144.03,-704C1156.43,-704.07 1168.63,-704.18 1180.41,-704.33"/>
<polygon fill="#7fb2ff" stroke="#7fb2ff" points="1180.6,-707.84 1190.64,-704.47 1180.69,-700.84 1180.6,-707.84"/>
</g>
<!-- Node0x55f5b1bddd18 -->
<g id="node3" class="node">
<title>Node0x55f5b1bddd18</title>
<polygon fill="#7fb2ff" stroke="black" points="1862,-673.63 1687,-673.63 1687,-637.63 1862,-637.63 1862,-673.63"/>
<text text-anchor="middle" x="1774.5" y="-651.93" font-family="Times,serif" font-size="14.00">{lib/libLLVMObject.a}</text>
</g>
<!-- Node0x55f5b1bdf618&#45;&gt;Node0x55f5b1bddd18 -->
<g id="edge2" class="edge">
<title>Node0x55f5b1bdf618&#45;&gt;Node0x55f5b1bddd18</title>
<path fill="none" stroke="#7fb2ff" d="M1098.7,-728.64C1251.23,-740.76 1468.42,-746.24 1651,-696.63 1669.61,-691.57 1689.19,-684.45 1707.1,-677.49"/>
<polygon fill="#7fb2ff" stroke="#7fb2ff" points="1708.84,-680.57 1716.86,-673.65 1706.27,-674.05 1708.84,-680.57"/>
</g>
<!-- Node0x55f5b1be2db8 -->
<g id="node4" class="node">
<title>Node0x55f5b1be2db8</title>
<polygon fill="#7fb2ff" stroke="black" points="1392.5,-618.63 1216.5,-618.63 1216.5,-582.63 1392.5,-582.63 1392.5,-618.63"/>
<text text-anchor="middle" x="1304.5" y="-596.93" font-family="Times,serif" font-size="14.00">{lib/libLLVMOption.a}</text>
</g>
<!-- Node0x55f5b1bdf618&#45;&gt;Node0x55f5b1be2db8 -->
<g id="edge3" class="edge">
<title>Node0x55f5b1bdf618&#45;&gt;Node0x55f5b1be2db8</title>
<path fill="none" stroke="#7fb2ff" d="M1039.48,-692.59C1074.46,-685.04 1111.48,-674.45 1144,-659.63 1162.2,-651.34 1161.98,-641.3 1180,-632.63 1188.44,-628.57 1197.47,-624.97 1206.65,-621.8"/>
<polygon fill="#7fb2ff" stroke="#7fb2ff" points="1207.85,-625.09 1216.26,-618.65 1205.67,-618.44 1207.85,-625.09"/>
</g>
<!-- Node0x55f5b1be32b8 -->
<g id="node5" class="node">
<title>Node0x55f5b1be32b8</title>
<polygon fill="#7fb2ff" stroke="black" points="1651,-673.63 1465,-673.63 1465,-637.63 1651,-637.63 1651,-673.63"/>
<text text-anchor="middle" x="1558" y="-651.93" font-family="Times,serif" font-size="14.00">{lib/libLLVMSupport.a}</text>
</g>
<!-- Node0x55f5b1bdf618&#45;&gt;Node0x55f5b1be32b8 -->
<g id="edge4" class="edge">
<title>Node0x55f5b1bdf618&#45;&gt;Node0x55f5b1be32b8</title>
<path fill="none" stroke="#7fb2ff" d="M1002.33,-692.62C1054.78,-686.25 1120.94,-679.74 1180,-674.63 1272.93,-666.59 1378.87,-658.85 1454.73,-655.09"/>
<polygon fill="#7fb2ff" stroke="#7fb2ff" points="1454.94,-658.59 1464.76,-654.61 1454.61,-651.59 1454.94,-658.59"/>
</g>
<!-- Node0x55f5b1bdd818&#45;&gt;Node0x55f5b1bdf618 -->
<g id="edge5" class="edge">
<title>Node0x55f5b1bdd818&#45;&gt;Node0x55f5b1bdf618</title>
<path fill="none" stroke="#7fb2ff" d="M1190.64,-716.79C1178.89,-716.96 1166.65,-717.1 1154.13,-717.19"/>
<polygon fill="#7fb2ff" stroke="#7fb2ff" points="1154,-713.69 1144.03,-717.26 1154.05,-720.69 1154,-713.69"/>
</g>
<!-- Node0x55f5b1bdd818&#45;&gt;Node0x55f5b1be32b8 -->
<g id="edge6" class="edge">
<title>Node0x55f5b1bdd818&#45;&gt;Node0x55f5b1be32b8</title>
<path fill="none" stroke="#7fb2ff" d="M1387.85,-692.62C1412.39,-687.26 1439.43,-681.34 1464.57,-675.84"/>
<polygon fill="#7fb2ff" stroke="#7fb2ff" points="1465.44,-679.23 1474.46,-673.68 1463.95,-672.4 1465.44,-679.23"/>
</g>
<!-- Node0x55f5b1bddd18&#45;&gt;Node0x55f5b1bdf618 -->
<g id="edge8" class="edge">
<title>Node0x55f5b1bddd18&#45;&gt;Node0x55f5b1bdf618</title>
<path fill="none" stroke="#7fb2ff" d="M1750.61,-673.68C1726.43,-687.44 1686.91,-704.87 1651,-714.63 1421.85,-776.9 1138.17,-752.37 996.24,-730.23"/>
<polygon fill="#7fb2ff" stroke="#7fb2ff" points="996.7,-726.76 986.27,-728.64 995.59,-733.67 996.7,-726.76"/>
</g>
<!-- Node0x55f5b1bddd18&#45;&gt;Node0x55f5b1bdd818 -->
<g id="edge9" class="edge">
<title>Node0x55f5b1bddd18&#45;&gt;Node0x55f5b1bdd818</title>
<path fill="none" stroke="#7fb2ff" d="M1699.3,-673.68C1683.44,-677.06 1666.72,-680.27 1651,-682.63 1577.55,-693.65 1494.62,-700.55 1428.43,-704.74"/>
<polygon fill="#7fb2ff" stroke="#7fb2ff" points="1428.13,-701.26 1418.37,-705.37 1428.56,-708.24 1428.13,-701.26"/>
</g>
<!-- Node0x55f5b1bddd18&#45;&gt;Node0x55f5b1be32b8 -->
<g id="edge7" class="edge">
<title>Node0x55f5b1bddd18&#45;&gt;Node0x55f5b1be32b8</title>
<path fill="none" stroke="#7fb2ff" d="M1686.8,-662.27C1678.37,-662.36 1669.78,-662.4 1661.22,-662.37"/>
<polygon fill="#7fb2ff" stroke="#7fb2ff" points="1661.23,-658.87 1651.21,-662.32 1661.19,-665.87 1661.23,-658.87"/>
</g>
<!-- Node0x55f5b1be2db8&#45;&gt;Node0x55f5b1bddd18 -->
<g id="edge11" class="edge">
<title>Node0x55f5b1be2db8&#45;&gt;Node0x55f5b1bddd18</title>
<path fill="none" stroke="#7fb2ff" d="M1392.85,-604.42C1462.92,-608.25 1563.66,-615.53 1651,-628.63 1663.41,-630.49 1676.43,-632.88 1689.17,-635.47"/>
<polygon fill="#7fb2ff" stroke="#7fb2ff" points="1688.8,-638.97 1699.3,-637.58 1690.23,-632.11 1688.8,-638.97"/>
</g>
<!-- Node0x55f5b1be2db8&#45;&gt;Node0x55f5b1be32b8 -->
<g id="edge10" class="edge">
<title>Node0x55f5b1be2db8&#45;&gt;Node0x55f5b1be32b8</title>
<path fill="none" stroke="#7fb2ff" d="M1387.85,-618.64C1412.39,-624 1439.43,-629.92 1464.57,-635.42"/>
<polygon fill="#7fb2ff" stroke="#7fb2ff" points="1463.95,-638.86 1474.46,-637.58 1465.44,-632.02 1463.95,-638.86"/>
</g>
<!-- Node0x55f5b1be32b8&#45;&gt;Node0x55f5b1bdf618 -->
<g id="edge13" class="edge">
<title>Node0x55f5b1be32b8&#45;&gt;Node0x55f5b1bdf618</title>
<path fill="none" stroke="#7fb2ff" d="M1464.76,-669.1C1388.41,-676.16 1277.1,-684.23 1180,-692.63 1171.54,-693.36 1162.94,-694.12 1154.26,-694.9"/>
<polygon fill="#7fb2ff" stroke="#7fb2ff" points="1153.67,-691.44 1144.02,-695.82 1154.3,-698.41 1153.67,-691.44"/>
</g>
<!-- Node0x55f5b1be32b8&#45;&gt;Node0x55f5b1bddd18 -->
<g id="edge12" class="edge">
<title>Node0x55f5b1be32b8&#45;&gt;Node0x55f5b1bddd18</title>
<path fill="none" stroke="#7fb2ff" d="M1651.21,-648.94C1659.61,-648.87 1668.13,-648.86 1676.56,-648.91"/>
<polygon fill="#7fb2ff" stroke="#7fb2ff" points="1676.77,-652.41 1686.8,-648.99 1676.82,-645.41 1676.77,-652.41"/>
</g>
<!-- Node0x55f5b1be38a8 -->
<g id="node6" class="node">
<title>Node0x55f5b1be38a8</title>
<polygon fill="none" stroke="black" points="631,-677.63 432,-677.63 432,-641.63 631,-641.63 631,-677.63"/>
<text text-anchor="middle" x="531.5" y="-655.93" font-family="Times,serif" font-size="14.00">{lib/libLLVMBitReader.a}</text>
</g>
<!-- Node0x55f5b1be38a8&#45;&gt;Node0x55f5b1bdf618 -->
<g id="edge14" class="edge">
<title>Node0x55f5b1be38a8&#45;&gt;Node0x55f5b1bdf618</title>
<path fill="none" stroke="black" d="M631.21,-673.16C671.64,-678.7 719.17,-685.22 763.16,-691.25"/>
<polygon fill="black" stroke="black" points="762.7,-694.72 773.08,-692.61 763.65,-687.79 762.7,-694.72"/>
</g>
<!-- Node0x55f5b1be38a8&#45;&gt;Node0x55f5b1bddd18 -->
<g id="edge15" class="edge">
<title>Node0x55f5b1be38a8&#45;&gt;Node0x55f5b1bddd18</title>
<path fill="none" stroke="black" d="M551.98,-641.59C577.27,-618.72 623.34,-578.88 667,-550.63 881.44,-411.88 931.54,-350.79 1180,-291.63 1386.56,-242.44 1496.32,-226.16 1651,-371.63 1727.44,-443.51 1758.56,-571.13 1769.01,-627.51"/>
<polygon fill="black" stroke="black" points="1765.58,-628.26 1770.78,-637.49 1772.48,-627.03 1765.58,-628.26"/>
</g>
<!-- Node0x55f5b1be38a8&#45;&gt;Node0x55f5b1be2db8 -->
<g id="edge16" class="edge">
<title>Node0x55f5b1be38a8&#45;&gt;Node0x55f5b1be2db8</title>
<path fill="none" stroke="black" d="M631.32,-652.07C779.73,-640.71 1058.45,-619.38 1206.05,-608.09"/>
<polygon fill="black" stroke="black" points="1206.74,-611.54 1216.45,-607.29 1206.21,-604.56 1206.74,-611.54"/>
</g>
<!-- Node0x55f5b1be38a8&#45;&gt;Node0x55f5b1be32b8 -->
<g id="edge17" class="edge">
<title>Node0x55f5b1be38a8&#45;&gt;Node0x55f5b1be32b8</title>
<path fill="none" stroke="black" d="M571,-641.55C597.41,-630.03 633.58,-615.94 667,-608.63 832.6,-572.42 1266.32,-525.99 1429,-573.63 1467,-584.76 1504.43,-611.01 1528.9,-630.83"/>
<polygon fill="black" stroke="black" points="1526.75,-633.6 1536.68,-637.28 1531.21,-628.21 1526.75,-633.6"/>
</g>
<!-- Node0x55f5b1be3d58 -->
<g id="node7" class="node">
<title>Node0x55f5b1be3d58</title>
<polygon fill="none" stroke="black" points="396,-677.63 234,-677.63 234,-641.63 396,-641.63 396,-677.63"/>
<text text-anchor="middle" x="315" y="-655.93" font-family="Times,serif" font-size="14.00">{lib/libLLVMCore.a}</text>
</g>
<!-- Node0x55f5b1be3d58&#45;&gt;Node0x55f5b1bdf618 -->
<g id="edge18" class="edge">
<title>Node0x55f5b1be3d58&#45;&gt;Node0x55f5b1bdf618</title>
<path fill="none" stroke="black" d="M384.32,-677.66C399.89,-681.17 416.44,-684.44 432,-686.63 504.63,-696.84 584.09,-702.85 656.77,-706.35"/>
<polygon fill="black" stroke="black" points="656.82,-709.85 666.98,-706.82 657.15,-702.86 656.82,-709.85"/>
</g>
<!-- Node0x55f5b1be3d58&#45;&gt;Node0x55f5b1bddd18 -->
<g id="edge19" class="edge">
<title>Node0x55f5b1be3d58&#45;&gt;Node0x55f5b1bddd18</title>
<path fill="none" stroke="black" d="M316.02,-641.45C317.16,-583.44 329.11,-401.44 432,-313.63 593.95,-175.41 691.59,-234.63 904.5,-234.63 904.5,-234.63 904.5,-234.63 1305.5,-234.63 1382.49,-234.63 1590.77,-212.66 1651,-260.63 1710.18,-307.77 1754.95,-545.02 1768.92,-627.4"/>
<polygon fill="black" stroke="black" points="1765.48,-628.03 1770.58,-637.31 1772.38,-626.87 1765.48,-628.03"/>
</g>
<!-- Node0x55f5b1be3d58&#45;&gt;Node0x55f5b1be2db8 -->
<g id="edge21" class="edge">
<title>Node0x55f5b1be3d58&#45;&gt;Node0x55f5b1be2db8</title>
<path fill="none" stroke="black" d="M387.18,-641.56C401.93,-638.24 417.42,-635.06 432,-632.63 709.84,-586.3 1044.11,-590.41 1206.07,-596.11"/>
<polygon fill="black" stroke="black" points="1206.36,-599.63 1216.48,-596.49 1206.61,-592.63 1206.36,-599.63"/>
</g>
<!-- Node0x55f5b1be3d58&#45;&gt;Node0x55f5b1be32b8 -->
<g id="edge20" class="edge">
<title>Node0x55f5b1be3d58&#45;&gt;Node0x55f5b1be32b8</title>
<path fill="none" stroke="black" d="M349.2,-641.52C371.96,-629.7 403.16,-614.65 432,-604.63 533.23,-569.47 560.54,-562.91 667,-550.63 835.22,-531.22 1269.82,-490.86 1429,-548.63 1473.17,-564.66 1512.76,-603.34 1535.83,-629.53"/>
<polygon fill="black" stroke="black" points="1533.28,-631.92 1542.45,-637.21 1538.58,-627.35 1533.28,-631.92"/>
</g>
<!-- Node0x55f5b1be3d58&#45;&gt;Node0x55f5b1be38a8 -->
<g id="edge22" class="edge">
<title>Node0x55f5b1be3d58&#45;&gt;Node0x55f5b1be38a8</title>
<path fill="none" stroke="black" d="M396.18,-659.63C404.56,-659.63 413.18,-659.63 421.81,-659.63"/>
<polygon fill="black" stroke="black" points="421.93,-663.13 431.93,-659.63 421.93,-656.13 421.93,-663.13"/>
</g>
<!-- Node0x55f5b1be41b8 -->
<g id="node8" class="node">
<title>Node0x55f5b1be41b8</title>
<polygon fill="none" stroke="black" points="627,-504.63 436,-504.63 436,-468.63 627,-468.63 627,-504.63"/>
<text text-anchor="middle" x="531.5" y="-482.93" font-family="Times,serif" font-size="14.00">{lib/libLLVMRemarks.a}</text>
</g>
<!-- Node0x55f5b1be41b8&#45;&gt;Node0x55f5b1bdf618 -->
<g id="edge24" class="edge">
<title>Node0x55f5b1be41b8&#45;&gt;Node0x55f5b1bdf618</title>
<path fill="none" stroke="black" d="M562.63,-504.77C629.69,-545.16 791.25,-642.43 865.71,-687.27"/>
<polygon fill="black" stroke="black" points="863.98,-690.32 874.35,-692.48 867.59,-684.32 863.98,-690.32"/>
</g>
<!-- Node0x55f5b1be41b8&#45;&gt;Node0x55f5b1bddd18 -->
<g id="edge25" class="edge">
<title>Node0x55f5b1be41b8&#45;&gt;Node0x55f5b1bddd18</title>
<path fill="none" stroke="black" d="M573.02,-468.39C593.11,-457.46 616.17,-441.75 631,-421.63 665.04,-375.43 622.82,-334.26 667,-297.63 751.43,-227.63 1563.57,-154.42 1651,-220.63 1717.65,-271.1 1758.22,-539 1769.95,-627.34"/>
<polygon fill="black" stroke="black" points="1766.5,-627.97 1771.27,-637.43 1773.44,-627.06 1766.5,-627.97"/>
</g>
<!-- Node0x55f5b1be41b8&#45;&gt;Node0x55f5b1be32b8 -->
<g id="edge23" class="edge">
<title>Node0x55f5b1be41b8&#45;&gt;Node0x55f5b1be32b8</title>
<path fill="none" stroke="black" d="M627.15,-478.57C827.96,-463.04 1289.7,-436.03 1429,-502.63 1484.21,-529.03 1524.19,-591.88 1543.66,-628.29"/>
<polygon fill="black" stroke="black" points="1540.66,-630.11 1548.38,-637.37 1546.87,-626.88 1540.66,-630.11"/>
</g>
<!-- Node0x55f5b1be47a8 -->
<g id="node9" class="node">
<title>Node0x55f5b1be47a8</title>
<polygon fill="none" stroke="black" points="1429,-336.63 1180,-336.63 1180,-300.63 1429,-300.63 1429,-336.63"/>
<text text-anchor="middle" x="1304.5" y="-314.93" font-family="Times,serif" font-size="14.00">{lib/libLLVMBitstreamReader.a}</text>
</g>
<!-- Node0x55f5b1be47a8&#45;&gt;Node0x55f5b1bddd18 -->
<g id="edge26" class="edge">
<title>Node0x55f5b1be47a8&#45;&gt;Node0x55f5b1bddd18</title>
<path fill="none" stroke="black" d="M1395.76,-336.68C1407.27,-340.51 1418.64,-345.11 1429,-350.63 1570.43,-425.9 1701.71,-570.44 1751.93,-629.51"/>
<polygon fill="black" stroke="black" points="1749.35,-631.87 1758.47,-637.26 1754.7,-627.36 1749.35,-631.87"/>
</g>
<!-- Node0x55f5b1be47a8&#45;&gt;Node0x55f5b1be32b8 -->
<g id="edge27" class="edge">
<title>Node0x55f5b1be47a8&#45;&gt;Node0x55f5b1be32b8</title>
<path fill="none" stroke="black" d="M1409.12,-336.73C1416.33,-340.54 1423.08,-345.13 1429,-350.63 1465.46,-384.49 1446.53,-410.43 1465,-456.63 1489.96,-519.09 1524.3,-590.14 1543.17,-628.16"/>
<polygon fill="black" stroke="black" points="1540.25,-630.14 1547.85,-637.53 1546.52,-627.02 1540.25,-630.14"/>
</g>
<!-- Node0x55f5b1be4de8 -->
<g id="node10" class="node">
<title>Node0x55f5b1be4de8</title>
<polygon fill="none" stroke="black" points="198,-677.63 0,-677.63 0,-641.63 198,-641.63 198,-677.63"/>
<text text-anchor="middle" x="99" y="-655.93" font-family="Times,serif" font-size="14.00">{lib/libLLVMMCParser.a}</text>
</g>
<!-- Node0x55f5b1be4de8&#45;&gt;Node0x55f5b1bdf618 -->
<g id="edge28" class="edge">
<title>Node0x55f5b1be4de8&#45;&gt;Node0x55f5b1bdf618</title>
<path fill="none" stroke="black" d="M176.13,-641.56C194.94,-637.86 215.11,-634.51 234,-632.63 409.57,-615.12 456.26,-608.2 631,-632.63 707.35,-643.3 792.3,-669.97 846.96,-689.15"/>
<polygon fill="black" stroke="black" points="845.87,-692.48 856.47,-692.52 848.21,-685.88 845.87,-692.48"/>
</g>
<!-- Node0x55f5b1be4de8&#45;&gt;Node0x55f5b1bddd18 -->
<g id="edge29" class="edge">
<title>Node0x55f5b1be4de8&#45;&gt;Node0x55f5b1bddd18</title>
<path fill="none" stroke="black" d="M105.39,-641.5C133.33,-551.68 270.46,-158.63 530.5,-158.63 530.5,-158.63 530.5,-158.63 1305.5,-158.63 1382.63,-158.63 1592.21,-141.71 1651,-191.63 1719.05,-249.41 1759.01,-535.57 1770.22,-627.29"/>
<polygon fill="black" stroke="black" points="1766.78,-627.97 1771.45,-637.48 1773.73,-627.14 1766.78,-627.97"/>
</g>
<!-- Node0x55f5b1be4de8&#45;&gt;Node0x55f5b1be32b8 -->
<g id="edge30" class="edge">
<title>Node0x55f5b1be4de8&#45;&gt;Node0x55f5b1be32b8</title>
<path fill="none" stroke="black" d="M119.24,-641.33C176.68,-588.7 353.99,-440.63 530.5,-440.63 530.5,-440.63 530.5,-440.63 906.5,-440.63 1022.67,-440.63 1327.88,-400.44 1429,-457.63 1495.27,-495.11 1532.82,-582.66 1548.39,-627.73"/>
<polygon fill="black" stroke="black" points="1545.15,-629.07 1551.63,-637.44 1551.79,-626.85 1545.15,-629.07"/>
</g>
<!-- Node0x55f5b1be4de8&#45;&gt;Node0x55f5b1be3d58 -->
<g id="edge31" class="edge">
<title>Node0x55f5b1be4de8&#45;&gt;Node0x55f5b1be3d58</title>
<path fill="none" stroke="black" d="M198.23,-659.63C206.75,-659.63 215.34,-659.63 223.78,-659.63"/>
<polygon fill="black" stroke="black" points="224,-663.13 234,-659.63 224,-656.13 224,-663.13"/>
</g>
<!-- Node0x55f5b1be5298 -->
<g id="node11" class="node">
<title>Node0x55f5b1be5298</title>
<polygon fill="none" stroke="black" points="608,-412.63 455,-412.63 455,-376.63 608,-376.63 608,-412.63"/>
<text text-anchor="middle" x="531.5" y="-390.93" font-family="Times,serif" font-size="14.00">{lib/libLLVMMC.a}</text>
</g>
<!-- Node0x55f5b1be5298&#45;&gt;Node0x55f5b1bdf618 -->
<g id="edge33" class="edge">
<title>Node0x55f5b1be5298&#45;&gt;Node0x55f5b1bdf618</title>
<path fill="none" stroke="black" d="M562.66,-412.78C582.61,-425.21 609.04,-442.48 631,-459.63 728.2,-535.52 832.9,-638.19 879.58,-685.21"/>
<polygon fill="black" stroke="black" points="877.3,-687.89 886.82,-692.53 882.28,-682.96 877.3,-687.89"/>
</g>
<!-- Node0x55f5b1be5298&#45;&gt;Node0x55f5b1bddd18 -->
<g id="edge34" class="edge">
<title>Node0x55f5b1be5298&#45;&gt;Node0x55f5b1bddd18</title>
<path fill="none" stroke="black" d="M608.35,-383.24C616.8,-379.39 624.64,-374.31 631,-367.63 681.86,-314.22 611.27,-253.94 667,-205.63 749.77,-133.88 1564.99,-76.8 1651,-144.63 1728.59,-205.82 1762.58,-529.36 1771.2,-627.43"/>
<polygon fill="black" stroke="black" points="1767.72,-627.82 1772.07,-637.48 1774.7,-627.22 1767.72,-627.82"/>
</g>
<!-- Node0x55f5b1be5298&#45;&gt;Node0x55f5b1be32b8 -->
<g id="edge32" class="edge">
<title>Node0x55f5b1be5298&#45;&gt;Node0x55f5b1be32b8</title>
<path fill="none" stroke="black" d="M608.31,-393.12C811.91,-389.67 1359.93,-384.44 1429,-426.63 1467.22,-449.98 1522.27,-572.63 1545.73,-628.21"/>
<polygon fill="black" stroke="black" points="1542.51,-629.59 1549.6,-637.46 1548.97,-626.88 1542.51,-629.59"/>
</g>
<!-- Node0x55f5b1be0b08 -->
<g id="node12" class="node">
<title>Node0x55f5b1be0b08</title>
<polygon fill="none" stroke="black" points="623.5,-358.63 439.5,-358.63 439.5,-322.63 623.5,-322.63 623.5,-358.63"/>
<text text-anchor="middle" x="531.5" y="-336.93" font-family="Times,serif" font-size="14.00">{lib/libLLVMTextAPI.a}</text>
</g>
<!-- Node0x55f5b1be0b08&#45;&gt;Node0x55f5b1bdf618 -->
<g id="edge36" class="edge">
<title>Node0x55f5b1be0b08&#45;&gt;Node0x55f5b1bdf618</title>
<path fill="none" stroke="black" d="M614.89,-358.84C620.53,-361.4 625.97,-364.31 631,-367.63 759.85,-452.53 856.05,-617.88 890.58,-683.16"/>
<polygon fill="black" stroke="black" points="887.68,-685.16 895.41,-692.4 893.88,-681.92 887.68,-685.16"/>
</g>
<!-- Node0x55f5b1be0b08&#45;&gt;Node0x55f5b1bddd18 -->
<g id="edge37" class="edge">
<title>Node0x55f5b1be0b08&#45;&gt;Node0x55f5b1bddd18</title>
<path fill="none" stroke="black" d="M537.18,-322.39C549.6,-278.24 587.98,-165.96 667,-120.63 856.69,-11.83 1480.54,25.35 1651,-111.63 1733.19,-177.67 1764.2,-525.14 1771.62,-627.34"/>
<polygon fill="black" stroke="black" points="1768.14,-627.78 1772.34,-637.5 1775.13,-627.28 1768.14,-627.78"/>
</g>
<!-- Node0x55f5b1be0b08&#45;&gt;Node0x55f5b1be32b8 -->
<g id="edge35" class="edge">
<title>Node0x55f5b1be0b08&#45;&gt;Node0x55f5b1be32b8</title>
<path fill="none" stroke="black" d="M623.8,-340.64C838.67,-341.39 1363.22,-347.77 1429,-391.63 1434.42,-395.24 1512.82,-561.46 1544.18,-628.26"/>
<polygon fill="black" stroke="black" points="1541.03,-629.8 1548.45,-637.36 1547.37,-626.82 1541.03,-629.8"/>
</g>
</g>
</svg>
