<?xml version="1.0" encoding="UTF-8" standalone="no"?>
<!DOCTYPE svg PUBLIC "-//W3C//DTD SVG 1.1//EN"
 "http://www.w3.org/Graphics/SVG/1.1/DTD/svg11.dtd">
<!-- Generated by graphviz version 2.43.0 (0)
 -->
<!-- Title: bin/llvm&#45;lto_lib/libLLVMDebugInfoDWARF.a Pages: 1 -->
<svg width="1023pt" height="1390pt"
 viewBox="0.00 0.00 1023.00 1390.00" xmlns="http://www.w3.org/2000/svg" xmlns:xlink="http://www.w3.org/1999/xlink">
<g id="graph0" class="graph" transform="scale(1 1) rotate(0) translate(4 1386)">
<title>bin/llvm&#45;lto_lib/libLLVMDebugInfoDWARF.a</title>
<polygon fill="white" stroke="transparent" points="-4,4 -4,-1386 1019,-1386 1019,4 -4,4"/>
<text text-anchor="middle" x="507.5" y="-7.8" font-family="Times,serif" font-size="14.00">bin/llvm&#45;lto_lib/libLLVMDebugInfoDWARF.a</text>
<!-- Node0x557205b67688 -->
<g id="node1" class="node">
<title>Node0x557205b67688</title>
<polygon fill="none" stroke="black" points="1015,-113 572,-113 572,-77 1015,-77 1015,-113"/>
<text text-anchor="middle" x="793.5" y="-91.3" font-family="Times,serif" font-size="14.00">{lib/libLLVMDebugInfoDWARF.a(DWARFExpression.cpp.o)}</text>
</g>
<!-- Node0x557205b67e58 -->
<g id="node2" class="node">
<title>Node0x557205b67e58</title>
<polygon fill="none" stroke="black" points="461.5,-140 74.5,-140 74.5,-104 461.5,-104 461.5,-140"/>
<text text-anchor="middle" x="268" y="-118.3" font-family="Times,serif" font-size="14.00">{lib/libLLVMDebugInfoDWARF.a(DWARFDie.cpp.o)}</text>
</g>
<!-- Node0x557205b647f8 -->
<g id="node3" class="node">
<title>Node0x557205b647f8</title>
<polygon fill="none" stroke="black" points="536,-194 0,-194 0,-158 536,-158 536,-194"/>
<text text-anchor="middle" x="268" y="-172.3" font-family="Times,serif" font-size="14.00">{lib/libLLVMDebugInfoDWARF.a(DWARFAbbreviationDeclaration.cpp.o)}</text>
</g>
<!-- Node0x557205b63e48 -->
<g id="node4" class="node">
<title>Node0x557205b63e48</title>
<polygon fill="none" stroke="black" points="477.5,-248 58.5,-248 58.5,-212 477.5,-212 477.5,-248"/>
<text text-anchor="middle" x="268" y="-226.3" font-family="Times,serif" font-size="14.00">{lib/libLLVMDebugInfoDWARF.a(DWARFContext.cpp.o)}</text>
</g>
<!-- Node0x557205b65838 -->
<g id="node5" class="node">
<title>Node0x557205b65838</title>
<polygon fill="none" stroke="black" points="485,-302 51,-302 51,-266 485,-266 485,-302"/>
<text text-anchor="middle" x="268" y="-280.3" font-family="Times,serif" font-size="14.00">{lib/libLLVMDebugInfoDWARF.a(DWARFDebugLoc.cpp.o)}</text>
</g>
<!-- Node0x557205b660a8 -->
<g id="node6" class="node">
<title>Node0x557205b660a8</title>
<polygon fill="none" stroke="black" points="500,-356 36,-356 36,-320 500,-320 500,-356"/>
<text text-anchor="middle" x="268" y="-334.3" font-family="Times,serif" font-size="14.00">{lib/libLLVMDebugInfoDWARF.a(DWARFDataExtractor.cpp.o)}</text>
</g>
<!-- Node0x557205b61fa8 -->
<g id="node7" class="node">
<title>Node0x557205b61fa8</title>
<polygon fill="none" stroke="black" points="500,-410 36,-410 36,-374 500,-374 500,-410"/>
<text text-anchor="middle" x="268" y="-388.3" font-family="Times,serif" font-size="14.00">{lib/libLLVMDebugInfoDWARF.a(DWARFAddressRange.cpp.o)}</text>
</g>
<!-- Node0x557205b621d8 -->
<g id="node8" class="node">
<title>Node0x557205b621d8</title>
<polygon fill="none" stroke="black" points="502,-464 34,-464 34,-428 502,-428 502,-464"/>
<text text-anchor="middle" x="268" y="-442.3" font-family="Times,serif" font-size="14.00">{lib/libLLVMDebugInfoDWARF.a(DWARFDebugAranges.cpp.o)}</text>
</g>
<!-- Node0x557205b61a08 -->
<g id="node9" class="node">
<title>Node0x557205b61a08</title>
<polygon fill="none" stroke="black" points="510.5,-518 25.5,-518 25.5,-482 510.5,-482 510.5,-518"/>
<text text-anchor="middle" x="268" y="-496.3" font-family="Times,serif" font-size="14.00">{lib/libLLVMDebugInfoDWARF.a(DWARFDebugArangeSet.cpp.o)}</text>
</g>
<!-- Node0x557205b632b8 -->
<g id="node10" class="node">
<title>Node0x557205b632b8</title>
<polygon fill="none" stroke="black" points="496,-572 40,-572 40,-536 496,-536 496,-572"/>
<text text-anchor="middle" x="268" y="-550.3" font-family="Times,serif" font-size="14.00">{lib/libLLVMDebugInfoDWARF.a(DWARFDebugFrame.cpp.o)}</text>
</g>
<!-- Node0x557205b52f58 -->
<g id="node11" class="node">
<title>Node0x557205b52f58</title>
<polygon fill="none" stroke="black" points="495.5,-626 40.5,-626 40.5,-590 495.5,-590 495.5,-626"/>
<text text-anchor="middle" x="268" y="-604.3" font-family="Times,serif" font-size="14.00">{lib/libLLVMDebugInfoDWARF.a(DWARFDebugMacro.cpp.o)}</text>
</g>
<!-- Node0x557205b50cf8 -->
<g id="node12" class="node">
<title>Node0x557205b50cf8</title>
<polygon fill="none" stroke="black" points="502,-680 34,-680 34,-644 502,-644 502,-680"/>
<text text-anchor="middle" x="268" y="-658.3" font-family="Times,serif" font-size="14.00">{lib/libLLVMDebugInfoDWARF.a(DWARFDebugRnglists.cpp.o)}</text>
</g>
<!-- Node0x557205b52058 -->
<g id="node13" class="node">
<title>Node0x557205b52058</title>
<polygon fill="none" stroke="black" points="488,-734 48,-734 48,-698 488,-698 488,-734"/>
<text text-anchor="middle" x="268" y="-712.3" font-family="Times,serif" font-size="14.00">{lib/libLLVMDebugInfoDWARF.a(DWARFDebugLine.cpp.o)}</text>
</g>
<!-- Node0x557205b4ff38 -->
<g id="node14" class="node">
<title>Node0x557205b4ff38</title>
<polygon fill="none" stroke="black" points="509,-788 27,-788 27,-752 509,-752 509,-788"/>
<text text-anchor="middle" x="268" y="-766.3" font-family="Times,serif" font-size="14.00">{lib/libLLVMDebugInfoDWARF.a(DWARFAcceleratorTable.cpp.o)}</text>
</g>
<!-- Node0x557205b4fda8 -->
<g id="node15" class="node">
<title>Node0x557205b4fda8</title>
<polygon fill="none" stroke="black" points="497,-842 39,-842 39,-806 497,-806 497,-842"/>
<text text-anchor="middle" x="268" y="-820.3" font-family="Times,serif" font-size="14.00">{lib/libLLVMDebugInfoDWARF.a(DWARFDebugAbbrev.cpp.o)}</text>
</g>
<!-- Node0x557205b50528 -->
<g id="node16" class="node">
<title>Node0x557205b50528</title>
<polygon fill="none" stroke="black" points="489.5,-896 46.5,-896 46.5,-860 489.5,-860 489.5,-896"/>
<text text-anchor="middle" x="268" y="-874.3" font-family="Times,serif" font-size="14.00">{lib/libLLVMDebugInfoDWARF.a(DWARFDebugAddr.cpp.o)}</text>
</g>
<!-- Node0x557205b4eea8 -->
<g id="node17" class="node">
<title>Node0x557205b4eea8</title>
<polygon fill="none" stroke="black" points="509,-950 27,-950 27,-914 509,-914 509,-950"/>
<text text-anchor="middle" x="268" y="-928.3" font-family="Times,serif" font-size="14.00">{lib/libLLVMDebugInfoDWARF.a(DWARFDebugRangeList.cpp.o)}</text>
</g>
<!-- Node0x557205b4e6d8 -->
<g id="node18" class="node">
<title>Node0x557205b4e6d8</title>
<polygon fill="none" stroke="black" points="506,-1004 30,-1004 30,-968 506,-968 506,-1004"/>
<text text-anchor="middle" x="268" y="-982.3" font-family="Times,serif" font-size="14.00">{lib/libLLVMDebugInfoDWARF.a(DWARFDebugPubTable.cpp.o)}</text>
</g>
<!-- Node0x557205b4e278 -->
<g id="node19" class="node">
<title>Node0x557205b4e278</title>
<polygon fill="none" stroke="black" points="488,-1058 48,-1058 48,-1022 488,-1022 488,-1058"/>
<text text-anchor="middle" x="268" y="-1036.3" font-family="Times,serif" font-size="14.00">{lib/libLLVMDebugInfoDWARF.a(DWARFFormValue.cpp.o)}</text>
</g>
<!-- Node0x557205b66cd8 -->
<g id="node20" class="node">
<title>Node0x557205b66cd8</title>
<polygon fill="none" stroke="black" points="1009.5,-59 577.5,-59 577.5,-23 1009.5,-23 1009.5,-59"/>
<text text-anchor="middle" x="793.5" y="-37.3" font-family="Times,serif" font-size="14.00">{lib/libLLVMDebugInfoDWARF.a(DWARFGdbIndex.cpp.o)}</text>
</g>
<!-- Node0x557205b674f8 -->
<g id="node21" class="node">
<title>Node0x557205b674f8</title>
<polygon fill="none" stroke="black" points="482,-1112 54,-1112 54,-1076 482,-1076 482,-1112"/>
<text text-anchor="middle" x="268" y="-1090.3" font-family="Times,serif" font-size="14.00">{lib/libLLVMDebugInfoDWARF.a(DWARFListTable.cpp.o)}</text>
</g>
<!-- Node0x557205b67c28 -->
<g id="node22" class="node">
<title>Node0x557205b67c28</title>
<polygon fill="none" stroke="black" points="485,-1166 51,-1166 51,-1130 485,-1130 485,-1166"/>
<text text-anchor="middle" x="268" y="-1144.3" font-family="Times,serif" font-size="14.00">{lib/libLLVMDebugInfoDWARF.a(DWARFUnitIndex.cpp.o)}</text>
</g>
<!-- Node0x557205b683a8 -->
<g id="node23" class="node">
<title>Node0x557205b683a8</title>
<polygon fill="none" stroke="black" points="465.5,-1220 70.5,-1220 70.5,-1184 465.5,-1184 465.5,-1220"/>
<text text-anchor="middle" x="268" y="-1198.3" font-family="Times,serif" font-size="14.00">{lib/libLLVMDebugInfoDWARF.a(DWARFUnit.cpp.o)}</text>
</g>
<!-- Node0x557205b63b28 -->
<g id="node24" class="node">
<title>Node0x557205b63b28</title>
<polygon fill="none" stroke="black" points="506,-1274 30,-1274 30,-1238 506,-1238 506,-1274"/>
<text text-anchor="middle" x="268" y="-1252.3" font-family="Times,serif" font-size="14.00">{lib/libLLVMDebugInfoDWARF.a(DWARFDebugInfoEntry.cpp.o)}</text>
</g>
<!-- Node0x557205b64258 -->
<g id="node25" class="node">
<title>Node0x557205b64258</title>
<polygon fill="none" stroke="black" points="482.5,-1328 53.5,-1328 53.5,-1292 482.5,-1292 482.5,-1328"/>
<text text-anchor="middle" x="268" y="-1306.3" font-family="Times,serif" font-size="14.00">{lib/libLLVMDebugInfoDWARF.a(DWARFTypeUnit.cpp.o)}</text>
</g>
<!-- Node0x557205b64b18 -->
<g id="node26" class="node">
<title>Node0x557205b64b18</title>
<polygon fill="none" stroke="black" points="494.5,-1382 41.5,-1382 41.5,-1346 494.5,-1346 494.5,-1382"/>
<text text-anchor="middle" x="268" y="-1360.3" font-family="Times,serif" font-size="14.00">{lib/libLLVMDebugInfoDWARF.a(DWARFCompileUnit.cpp.o)}</text>
</g>
<!-- Node0x557205b65158 -->
<g id="node27" class="node">
<title>Node0x557205b65158</title>
<polygon fill="none" stroke="black" points="475,-86 61,-86 61,-50 475,-50 475,-86"/>
<text text-anchor="middle" x="268" y="-64.3" font-family="Times,serif" font-size="14.00">{lib/libLLVMDebugInfoDWARF.a(DWARFVerifier.cpp.o)}</text>
</g>
<!-- Node0x557205b65158&#45;&gt;Node0x557205b67688 -->
<g id="edge1" class="edge">
<title>Node0x557205b65158&#45;&gt;Node0x557205b67688</title>
<path fill="none" stroke="black" d="M475.15,-78.63C503.56,-80.1 532.89,-81.61 561.7,-83.1"/>
<polygon fill="black" stroke="black" points="561.71,-86.6 571.87,-83.62 562.07,-79.61 561.71,-86.6"/>
</g>
<!-- Node0x557205b65158&#45;&gt;Node0x557205b66cd8 -->
<g id="edge2" class="edge">
<title>Node0x557205b65158&#45;&gt;Node0x557205b66cd8</title>
<path fill="none" stroke="black" d="M475.15,-57.37C505.35,-55.81 536.6,-54.2 567.16,-52.62"/>
<polygon fill="black" stroke="black" points="567.69,-56.1 577.5,-52.09 567.33,-49.11 567.69,-56.1"/>
</g>
</g>
</svg>
