<?xml version="1.0" encoding="UTF-8" standalone="no"?>
<!DOCTYPE svg PUBLIC "-//W3C//DTD SVG 1.1//EN"
 "http://www.w3.org/Graphics/SVG/1.1/DTD/svg11.dtd">
<!-- Generated by graphviz version 2.43.0 (0)
 -->
<!-- Title: bin/llc Pages: 1 -->
<svg width="1382pt" height="1039pt"
 viewBox="0.00 0.00 1382.00 1038.94" xmlns="http://www.w3.org/2000/svg" xmlns:xlink="http://www.w3.org/1999/xlink">
<g id="graph0" class="graph" transform="scale(1 1) rotate(0) translate(4 1034.94)">
<title>bin/llc</title>
<polygon fill="white" stroke="transparent" points="-4,4 -4,-1034.94 1378,-1034.94 1378,4 -4,4"/>
<text text-anchor="middle" x="687" y="-7.8" font-family="Times,serif" font-size="14.00">bin/llc</text>
<!-- Node0x55d1bf261c58 -->
<g id="node1" class="node">
<title>Node0x55d1bf261c58</title>
<polygon fill="none" stroke="black" points="288,-922.94 0,-922.94 0,-886.94 288,-886.94 288,-922.94"/>
<text text-anchor="middle" x="144" y="-901.24" font-family="Times,serif" font-size="14.00">{tools/llc/CMakeFiles/llc.dir/llc.cpp.o}</text>
</g>
<!-- Node0x55d1bf26a678 -->
<g id="node2" class="node">
<title>Node0x55d1bf26a678</title>
<polygon fill="none" stroke="black" points="558.5,-868.94 326.5,-868.94 326.5,-832.94 558.5,-832.94 558.5,-868.94"/>
<text text-anchor="middle" x="442.5" y="-847.24" font-family="Times,serif" font-size="14.00">{lib/libLLVMX86AsmParser.a}</text>
</g>
<!-- Node0x55d1bf261c58&#45;&gt;Node0x55d1bf26a678 -->
<g id="edge1" class="edge">
<title>Node0x55d1bf261c58&#45;&gt;Node0x55d1bf26a678</title>
<path fill="none" stroke="black" d="M244.14,-886.88C272.45,-881.73 303.46,-876.08 332.33,-870.82"/>
<polygon fill="black" stroke="black" points="333.24,-874.21 342.45,-868.98 331.99,-867.33 333.24,-874.21"/>
</g>
<!-- Node0x55d1bf26ab78 -->
<g id="node3" class="node">
<title>Node0x55d1bf26ab78</title>
<polygon fill="#7fb2ff" stroke="black" points="553,-748.94 332,-748.94 332,-712.94 553,-712.94 553,-748.94"/>
<text text-anchor="middle" x="442.5" y="-727.24" font-family="Times,serif" font-size="14.00">{lib/libLLVMX86CodeGen.a}</text>
</g>
<!-- Node0x55d1bf261c58&#45;&gt;Node0x55d1bf26ab78 -->
<g id="edge2" class="edge">
<title>Node0x55d1bf261c58&#45;&gt;Node0x55d1bf26ab78</title>
<path fill="none" stroke="black" d="M175.89,-886.81C230.07,-855.02 342.12,-789.26 401.9,-754.18"/>
<polygon fill="black" stroke="black" points="403.82,-757.11 410.68,-749.03 400.28,-751.07 403.82,-757.11"/>
</g>
<!-- Node0x55d1bf26c478 -->
<g id="node4" class="node">
<title>Node0x55d1bf26c478</title>
<polygon fill="#7fb2ff" stroke="black" points="538,-694.94 347,-694.94 347,-658.94 538,-658.94 538,-694.94"/>
<text text-anchor="middle" x="442.5" y="-673.24" font-family="Times,serif" font-size="14.00">{lib/libLLVMX86Desc.a}</text>
</g>
<!-- Node0x55d1bf261c58&#45;&gt;Node0x55d1bf26c478 -->
<g id="edge3" class="edge">
<title>Node0x55d1bf261c58&#45;&gt;Node0x55d1bf26c478</title>
<path fill="none" stroke="black" d="M155.59,-886.83C179.88,-846.97 243.78,-751.43 324,-703.94 328.22,-701.44 332.66,-699.17 337.23,-697.11"/>
<polygon fill="black" stroke="black" points="338.88,-700.22 346.79,-693.17 336.21,-693.74 338.88,-700.22"/>
</g>
<!-- Node0x55d1bf26c978 -->
<g id="node5" class="node">
<title>Node0x55d1bf26c978</title>
<polygon fill="#7fb2ff" stroke="black" points="534.5,-640.94 350.5,-640.94 350.5,-604.94 534.5,-604.94 534.5,-640.94"/>
<text text-anchor="middle" x="442.5" y="-619.24" font-family="Times,serif" font-size="14.00">{lib/libLLVMX86Info.a}</text>
</g>
<!-- Node0x55d1bf261c58&#45;&gt;Node0x55d1bf26c978 -->
<g id="edge4" class="edge">
<title>Node0x55d1bf261c58&#45;&gt;Node0x55d1bf26c978</title>
<path fill="none" stroke="black" d="M152.24,-886.67C171.98,-839.36 231.56,-712.14 324,-649.94 329.3,-646.37 335,-643.27 340.94,-640.58"/>
<polygon fill="black" stroke="black" points="342.53,-643.71 350.45,-636.67 339.87,-637.24 342.53,-643.71"/>
</g>
<!-- Node0x55d1bf26ba78 -->
<g id="node6" class="node">
<title>Node0x55d1bf26ba78</title>
<polygon fill="#7fb2ff" stroke="black" points="536.5,-154.94 348.5,-154.94 348.5,-118.94 536.5,-118.94 536.5,-154.94"/>
<text text-anchor="middle" x="442.5" y="-133.24" font-family="Times,serif" font-size="14.00">{lib/libLLVMAnalysis.a}</text>
</g>
<!-- Node0x55d1bf261c58&#45;&gt;Node0x55d1bf26ba78 -->
<g id="edge5" class="edge">
<title>Node0x55d1bf261c58&#45;&gt;Node0x55d1bf26ba78</title>
<path fill="none" stroke="black" d="M146.82,-886.87C157.53,-783.8 215.78,-270.96 324,-163.94 328.59,-159.4 333.78,-155.56 339.36,-152.32"/>
<polygon fill="black" stroke="black" points="341.09,-155.37 348.41,-147.71 337.91,-149.13 341.09,-155.37"/>
</g>
<!-- Node0x55d1bf277878 -->
<g id="node7" class="node">
<title>Node0x55d1bf277878</title>
<polygon fill="#7fb2ff" stroke="black" points="539,-424.94 346,-424.94 346,-388.94 539,-388.94 539,-424.94"/>
<text text-anchor="middle" x="442.5" y="-403.24" font-family="Times,serif" font-size="14.00">{lib/libLLVMCodeGen.a}</text>
</g>
<!-- Node0x55d1bf261c58&#45;&gt;Node0x55d1bf277878 -->
<g id="edge6" class="edge">
<title>Node0x55d1bf261c58&#45;&gt;Node0x55d1bf277878</title>
<path fill="none" stroke="black" d="M146.05,-886.64C151.12,-816.17 179.23,-560.08 324,-433.94 327.94,-430.5 332.24,-427.48 336.77,-424.82"/>
<polygon fill="black" stroke="black" points="338.51,-427.87 345.77,-420.15 335.28,-421.66 338.51,-427.87"/>
</g>
<!-- Node0x55d1bf277d78 -->
<g id="node8" class="node">
<title>Node0x55d1bf277d78</title>
<polygon fill="#7fb2ff" stroke="black" points="547,-586.94 338,-586.94 338,-550.94 547,-550.94 547,-586.94"/>
<text text-anchor="middle" x="442.5" y="-565.24" font-family="Times,serif" font-size="14.00">{lib/libLLVMAsmPrinter.a}</text>
</g>
<!-- Node0x55d1bf261c58&#45;&gt;Node0x55d1bf277d78 -->
<g id="edge7" class="edge">
<title>Node0x55d1bf261c58&#45;&gt;Node0x55d1bf277d78</title>
<path fill="none" stroke="black" d="M149.89,-886.85C165.4,-833.16 218.75,-673.62 324,-595.94 325.85,-594.57 327.75,-593.28 329.71,-592.05"/>
<polygon fill="black" stroke="black" points="331.58,-595.01 338.56,-587.04 328.13,-588.92 331.58,-595.01"/>
</g>
<!-- Node0x55d1bf277378 -->
<g id="node9" class="node">
<title>Node0x55d1bf277378</title>
<polygon fill="#7fb2ff" stroke="black" points="523.5,-100.94 361.5,-100.94 361.5,-64.94 523.5,-64.94 523.5,-100.94"/>
<text text-anchor="middle" x="442.5" y="-79.24" font-family="Times,serif" font-size="14.00">{lib/libLLVMCore.a}</text>
</g>
<!-- Node0x55d1bf261c58&#45;&gt;Node0x55d1bf277378 -->
<g id="edge8" class="edge">
<title>Node0x55d1bf261c58&#45;&gt;Node0x55d1bf277378</title>
<path fill="none" stroke="black" d="M146.52,-886.64C155.85,-778.66 208.83,-225.61 324,-109.94 331.8,-102.1 341.39,-96.35 351.69,-92.16"/>
<polygon fill="black" stroke="black" points="353.07,-95.38 361.32,-88.73 350.72,-88.78 353.07,-95.38"/>
</g>
<!-- Node0x55d1bf276e78 -->
<g id="node10" class="node">
<title>Node0x55d1bf276e78</title>
<polygon fill="none" stroke="black" points="539.5,-922.94 345.5,-922.94 345.5,-886.94 539.5,-886.94 539.5,-922.94"/>
<text text-anchor="middle" x="442.5" y="-901.24" font-family="Times,serif" font-size="14.00">{lib/libLLVMIRReader.a}</text>
</g>
<!-- Node0x55d1bf261c58&#45;&gt;Node0x55d1bf276e78 -->
<g id="edge9" class="edge">
<title>Node0x55d1bf261c58&#45;&gt;Node0x55d1bf276e78</title>
<path fill="none" stroke="black" d="M288.04,-904.94C303.8,-904.94 319.64,-904.94 334.85,-904.94"/>
<polygon fill="black" stroke="black" points="335.26,-908.44 345.26,-904.94 335.26,-901.44 335.26,-908.44"/>
</g>
<!-- Node0x55d1bf279178 -->
<g id="node11" class="node">
<title>Node0x55d1bf279178</title>
<polygon fill="#7fb2ff" stroke="black" points="519,-262.94 366,-262.94 366,-226.94 519,-226.94 519,-262.94"/>
<text text-anchor="middle" x="442.5" y="-241.24" font-family="Times,serif" font-size="14.00">{lib/libLLVMMC.a}</text>
</g>
<!-- Node0x55d1bf261c58&#45;&gt;Node0x55d1bf279178 -->
<g id="edge10" class="edge">
<title>Node0x55d1bf261c58&#45;&gt;Node0x55d1bf279178</title>
<path fill="none" stroke="black" d="M147.62,-886.79C161.53,-792.73 229.78,-361.58 324,-271.94 333.03,-263.34 344.23,-257.29 356.08,-253.05"/>
<polygon fill="black" stroke="black" points="357.21,-256.37 365.71,-250.03 355.12,-249.69 357.21,-256.37"/>
</g>
<!-- Node0x55d1bf278c78 -->
<g id="node12" class="node">
<title>Node0x55d1bf278c78</title>
<polygon fill="none" stroke="black" points="544,-976.94 341,-976.94 341,-940.94 544,-940.94 544,-976.94"/>
<text text-anchor="middle" x="442.5" y="-955.24" font-family="Times,serif" font-size="14.00">{lib/libLLVMMIRParser.a}</text>
</g>
<!-- Node0x55d1bf261c58&#45;&gt;Node0x55d1bf278c78 -->
<g id="edge11" class="edge">
<title>Node0x55d1bf261c58&#45;&gt;Node0x55d1bf278c78</title>
<path fill="none" stroke="black" d="M244.14,-922.99C272.45,-928.15 303.46,-933.8 332.33,-939.06"/>
<polygon fill="black" stroke="black" points="331.99,-942.55 342.45,-940.9 333.24,-935.66 331.99,-942.55"/>
</g>
<!-- Node0x55d1bf278278 -->
<g id="node13" class="node">
<title>Node0x55d1bf278278</title>
<polygon fill="#7fb2ff" stroke="black" points="546,-316.94 339,-316.94 339,-280.94 546,-280.94 546,-316.94"/>
<text text-anchor="middle" x="442.5" y="-295.24" font-family="Times,serif" font-size="14.00">{lib/libLLVMScalarOpts.a}</text>
</g>
<!-- Node0x55d1bf261c58&#45;&gt;Node0x55d1bf278278 -->
<g id="edge12" class="edge">
<title>Node0x55d1bf261c58&#45;&gt;Node0x55d1bf278278</title>
<path fill="none" stroke="black" d="M144.59,-886.78C143.83,-807.17 151.88,-485.78 324,-325.94 325.98,-324.1 328.06,-322.38 330.22,-320.77"/>
<polygon fill="black" stroke="black" points="332.48,-323.47 338.95,-315.08 328.66,-317.61 332.48,-323.47"/>
</g>
<!-- Node0x55d1bf27a578 -->
<g id="node14" class="node">
<title>Node0x55d1bf27a578</title>
<polygon fill="#7fb2ff" stroke="black" points="555.5,-532.94 329.5,-532.94 329.5,-496.94 555.5,-496.94 555.5,-532.94"/>
<text text-anchor="middle" x="442.5" y="-511.24" font-family="Times,serif" font-size="14.00">{lib/libLLVMSelectionDAG.a}</text>
</g>
<!-- Node0x55d1bf261c58&#45;&gt;Node0x55d1bf27a578 -->
<g id="edge13" class="edge">
<title>Node0x55d1bf261c58&#45;&gt;Node0x55d1bf27a578</title>
<path fill="none" stroke="black" d="M148.27,-886.78C160.01,-827.1 205.79,-635.45 324,-541.94 325.6,-540.67 327.25,-539.46 328.94,-538.31"/>
<polygon fill="black" stroke="black" points="330.99,-541.16 337.73,-532.98 327.36,-535.18 330.99,-541.16"/>
</g>
<!-- Node0x55d1bf256308 -->
<g id="node15" class="node">
<title>Node0x55d1bf256308</title>
<polygon fill="#7fb2ff" stroke="black" points="535.5,-478.94 349.5,-478.94 349.5,-442.94 535.5,-442.94 535.5,-478.94"/>
<text text-anchor="middle" x="442.5" y="-457.24" font-family="Times,serif" font-size="14.00">{lib/libLLVMSupport.a}</text>
</g>
<!-- Node0x55d1bf261c58&#45;&gt;Node0x55d1bf256308 -->
<g id="edge14" class="edge">
<title>Node0x55d1bf261c58&#45;&gt;Node0x55d1bf256308</title>
<path fill="none" stroke="black" d="M147,-886.93C155.23,-821.97 192.46,-597.75 324,-487.94 328.9,-483.85 334.31,-480.34 340.02,-477.35"/>
<polygon fill="black" stroke="black" points="341.65,-480.46 349.23,-473.06 338.69,-474.11 341.65,-480.46"/>
</g>
<!-- Node0x55d1bf254058 -->
<g id="node16" class="node">
<title>Node0x55d1bf254058</title>
<polygon fill="#7fb2ff" stroke="black" points="530,-370.94 355,-370.94 355,-334.94 530,-334.94 530,-370.94"/>
<text text-anchor="middle" x="442.5" y="-349.24" font-family="Times,serif" font-size="14.00">{lib/libLLVMTarget.a}</text>
</g>
<!-- Node0x55d1bf261c58&#45;&gt;Node0x55d1bf254058 -->
<g id="edge15" class="edge">
<title>Node0x55d1bf261c58&#45;&gt;Node0x55d1bf254058</title>
<path fill="none" stroke="black" d="M145.25,-886.69C147.31,-811.48 165.63,-522.82 324,-379.94 330.37,-374.19 337.71,-369.6 345.54,-365.93"/>
<polygon fill="black" stroke="black" points="347.04,-369.09 354.94,-362.03 344.36,-362.63 347.04,-369.09"/>
</g>
<!-- Node0x55d1bf2545a8 -->
<g id="node17" class="node">
<title>Node0x55d1bf2545a8</title>
<polygon fill="#7fb2ff" stroke="black" points="561,-208.94 324,-208.94 324,-172.94 561,-172.94 561,-208.94"/>
<text text-anchor="middle" x="442.5" y="-187.24" font-family="Times,serif" font-size="14.00">{lib/libLLVMTransformUtils.a}</text>
</g>
<!-- Node0x55d1bf261c58&#45;&gt;Node0x55d1bf2545a8 -->
<g id="edge16" class="edge">
<title>Node0x55d1bf261c58&#45;&gt;Node0x55d1bf2545a8</title>
<path fill="none" stroke="black" d="M147.18,-886.91C159.41,-788.41 222.77,-316.27 324,-217.94 324.97,-216.99 325.97,-216.08 326.99,-215.2"/>
<polygon fill="black" stroke="black" points="329.36,-217.79 335.26,-208.99 325.16,-212.2 329.36,-217.79"/>
</g>
<!-- Node0x55d1bf254a58 -->
<g id="node18" class="node">
<title>Node0x55d1bf254a58</title>
<polygon fill="none" stroke="black" points="539.5,-1030.94 345.5,-1030.94 345.5,-994.94 539.5,-994.94 539.5,-1030.94"/>
<text text-anchor="middle" x="442.5" y="-1009.24" font-family="Times,serif" font-size="14.00">{lib/libLLVMVectorize.a}</text>
</g>
<!-- Node0x55d1bf261c58&#45;&gt;Node0x55d1bf254a58 -->
<g id="edge17" class="edge">
<title>Node0x55d1bf261c58&#45;&gt;Node0x55d1bf254a58</title>
<path fill="none" stroke="black" d="M179.49,-923.04C214.94,-941.04 272.13,-968.44 324,-985.94 330.46,-988.12 337.18,-990.18 343.99,-992.12"/>
<polygon fill="black" stroke="black" points="343.44,-995.6 354.01,-994.87 345.3,-988.85 343.44,-995.6"/>
</g>
<!-- Node0x55d1bf26a678&#45;&gt;Node0x55d1bf26c478 -->
<g id="edge18" class="edge">
<title>Node0x55d1bf26a678&#45;&gt;Node0x55d1bf26c478</title>
<path fill="none" stroke="black" d="M399.97,-832.88C349.31,-808.64 275.17,-762.82 306,-712.94 313.47,-700.86 324.54,-692.4 337.22,-686.55"/>
<polygon fill="black" stroke="black" points="338.73,-689.72 346.7,-682.73 336.11,-683.22 338.73,-689.72"/>
</g>
<!-- Node0x55d1bf26a678&#45;&gt;Node0x55d1bf26c978 -->
<g id="edge19" class="edge">
<title>Node0x55d1bf26a678&#45;&gt;Node0x55d1bf26c978</title>
<path fill="none" stroke="black" d="M400.92,-832.86C368.46,-816.25 325.68,-788.21 306,-748.94 288.08,-713.18 284.97,-692.96 306,-658.94 314.14,-645.77 326.57,-636.91 340.68,-631.03"/>
<polygon fill="black" stroke="black" points="341.97,-634.29 350.17,-627.58 339.58,-627.71 341.97,-634.29"/>
</g>
<!-- Node0x55d1bf26a678&#45;&gt;Node0x55d1bf279178 -->
<g id="edge20" class="edge">
<title>Node0x55d1bf26a678&#45;&gt;Node0x55d1bf279178</title>
<path fill="none" stroke="black" d="M400.92,-832.86C368.46,-816.25 325.68,-788.21 306,-748.94 294.35,-725.69 292.33,-303.06 306,-280.94 316.96,-263.2 335.71,-253.28 355.87,-247.93"/>
<polygon fill="black" stroke="black" points="356.87,-251.29 365.85,-245.66 355.32,-244.47 356.87,-251.29"/>
</g>
<!-- Node0x55d1bf26a678&#45;&gt;Node0x55d1bf256308 -->
<g id="edge21" class="edge">
<title>Node0x55d1bf26a678&#45;&gt;Node0x55d1bf256308</title>
<path fill="none" stroke="black" d="M400.92,-832.86C368.46,-816.25 325.68,-788.21 306,-748.94 293.46,-723.91 291.28,-520.76 306,-496.94 313.96,-484.06 326.02,-475.31 339.74,-469.43"/>
<polygon fill="black" stroke="black" points="341.32,-472.57 349.47,-465.8 338.88,-466.01 341.32,-472.57"/>
</g>
<!-- Node0x55d1bf270708 -->
<g id="node19" class="node">
<title>Node0x55d1bf270708</title>
<polygon fill="#7fb2ff" stroke="black" points="832,-738.94 634,-738.94 634,-702.94 832,-702.94 832,-738.94"/>
<text text-anchor="middle" x="733" y="-717.24" font-family="Times,serif" font-size="14.00">{lib/libLLVMMCParser.a}</text>
</g>
<!-- Node0x55d1bf26a678&#45;&gt;Node0x55d1bf270708 -->
<g id="edge22" class="edge">
<title>Node0x55d1bf26a678&#45;&gt;Node0x55d1bf270708</title>
<path fill="none" stroke="black" d="M483.61,-832.86C535.57,-809.45 626.13,-768.65 682.36,-743.31"/>
<polygon fill="black" stroke="black" points="684.08,-746.37 691.76,-739.07 681.21,-739.99 684.08,-746.37"/>
</g>
<!-- Node0x55d1bf26ab78&#45;&gt;Node0x55d1bf26c478 -->
<g id="edge23" class="edge">
<title>Node0x55d1bf26ab78&#45;&gt;Node0x55d1bf26c478</title>
<path fill="none" stroke="#7fb2ff" d="M442.5,-712.73C442.5,-710.25 442.5,-707.76 442.5,-705.28"/>
<polygon fill="#7fb2ff" stroke="#7fb2ff" points="446,-705.08 442.5,-695.08 439,-705.08 446,-705.08"/>
</g>
<!-- Node0x55d1bf26ab78&#45;&gt;Node0x55d1bf26c978 -->
<g id="edge24" class="edge">
<title>Node0x55d1bf26ab78&#45;&gt;Node0x55d1bf26c978</title>
<path fill="none" stroke="#7fb2ff" d="M331.79,-718.6C321.39,-712.93 312.38,-705.26 306,-694.94 297.59,-681.33 297.59,-672.55 306,-658.94 314.14,-645.77 326.57,-636.91 340.68,-631.03"/>
<polygon fill="#7fb2ff" stroke="#7fb2ff" points="341.97,-634.29 350.17,-627.58 339.58,-627.71 341.97,-634.29"/>
</g>
<!-- Node0x55d1bf26ab78&#45;&gt;Node0x55d1bf26ba78 -->
<g id="edge30" class="edge">
<title>Node0x55d1bf26ab78&#45;&gt;Node0x55d1bf26ba78</title>
<path fill="none" stroke="#7fb2ff" d="M331.92,-717.63C323.97,-712.63 317.1,-706.19 312,-697.94 296.58,-672.99 296.58,-194.89 312,-169.94 318.53,-159.38 327.96,-151.78 338.82,-146.37"/>
<polygon fill="#7fb2ff" stroke="#7fb2ff" points="340.44,-149.48 348.25,-142.32 337.68,-143.05 340.44,-149.48"/>
</g>
<!-- Node0x55d1bf26ab78&#45;&gt;Node0x55d1bf277878 -->
<g id="edge26" class="edge">
<title>Node0x55d1bf26ab78&#45;&gt;Node0x55d1bf277878</title>
<path fill="none" stroke="#7fb2ff" d="M331.92,-717.63C323.97,-712.63 317.1,-706.19 312,-697.94 296.93,-673.55 296.93,-464.32 312,-439.94 318.13,-430.02 326.83,-422.72 336.85,-417.38"/>
<polygon fill="#7fb2ff" stroke="#7fb2ff" points="338.36,-420.54 345.98,-413.18 335.43,-414.18 338.36,-420.54"/>
</g>
<!-- Node0x55d1bf26ab78&#45;&gt;Node0x55d1bf277d78 -->
<g id="edge25" class="edge">
<title>Node0x55d1bf26ab78&#45;&gt;Node0x55d1bf277d78</title>
<path fill="none" stroke="#7fb2ff" d="M331.79,-718.6C321.39,-712.93 312.38,-705.26 306,-694.94 284.97,-660.91 284.97,-638.96 306,-604.94 311.76,-595.62 319.67,-588.45 328.81,-582.98"/>
<polygon fill="#7fb2ff" stroke="#7fb2ff" points="330.67,-585.96 337.91,-578.23 327.43,-579.75 330.67,-585.96"/>
</g>
<!-- Node0x55d1bf26ab78&#45;&gt;Node0x55d1bf277378 -->
<g id="edge27" class="edge">
<title>Node0x55d1bf26ab78&#45;&gt;Node0x55d1bf277378</title>
<path fill="none" stroke="#7fb2ff" d="M331.92,-717.63C323.97,-712.63 317.1,-706.19 312,-697.94 303.5,-684.19 303.5,-129.69 312,-115.94 320.99,-101.4 335.49,-92.47 351.63,-87.14"/>
<polygon fill="#7fb2ff" stroke="#7fb2ff" points="352.62,-90.5 361.29,-84.4 350.71,-83.76 352.62,-90.5"/>
</g>
<!-- Node0x55d1bf26ab78&#45;&gt;Node0x55d1bf279178 -->
<g id="edge28" class="edge">
<title>Node0x55d1bf26ab78&#45;&gt;Node0x55d1bf279178</title>
<path fill="none" stroke="#7fb2ff" d="M331.92,-717.63C323.97,-712.63 317.1,-706.19 312,-697.94 299.73,-678.09 299.73,-297.79 312,-277.94 321.74,-262.17 337.98,-253.01 355.74,-247.87"/>
<polygon fill="#7fb2ff" stroke="#7fb2ff" points="356.86,-251.2 365.74,-245.41 355.19,-244.4 356.86,-251.2"/>
</g>
<!-- Node0x55d1bf26ab78&#45;&gt;Node0x55d1bf27a578 -->
<g id="edge31" class="edge">
<title>Node0x55d1bf26ab78&#45;&gt;Node0x55d1bf27a578</title>
<path fill="none" stroke="#7fb2ff" d="M331.92,-717.63C323.97,-712.63 317.1,-706.19 312,-697.94 303.24,-683.76 303.24,-562.12 312,-547.94 314.7,-543.57 317.9,-539.71 321.49,-536.3"/>
<polygon fill="#7fb2ff" stroke="#7fb2ff" points="323.8,-538.93 329.37,-529.92 319.39,-533.49 323.8,-538.93"/>
</g>
<!-- Node0x55d1bf26ab78&#45;&gt;Node0x55d1bf256308 -->
<g id="edge29" class="edge">
<title>Node0x55d1bf26ab78&#45;&gt;Node0x55d1bf256308</title>
<path fill="none" stroke="#7fb2ff" d="M331.92,-717.63C323.97,-712.63 317.1,-706.19 312,-697.94 300.08,-678.66 300.08,-513.22 312,-493.94 318.74,-483.04 328.58,-475.29 339.88,-469.85"/>
<polygon fill="#7fb2ff" stroke="#7fb2ff" points="341.34,-473.03 349.23,-465.96 338.65,-466.57 341.34,-473.03"/>
</g>
<!-- Node0x55d1bf26ab78&#45;&gt;Node0x55d1bf254058 -->
<g id="edge32" class="edge">
<title>Node0x55d1bf26ab78&#45;&gt;Node0x55d1bf254058</title>
<path fill="none" stroke="#7fb2ff" d="M331.79,-718.6C321.39,-712.93 312.38,-705.26 306,-694.94 288.13,-666.02 288.13,-417.86 306,-388.94 314.99,-374.39 329.23,-365.09 345.18,-359.27"/>
<polygon fill="#7fb2ff" stroke="#7fb2ff" points="346.28,-362.6 354.75,-356.23 344.16,-355.93 346.28,-362.6"/>
</g>
<!-- Node0x55d1bf26ab78&#45;&gt;Node0x55d1bf2545a8 -->
<g id="edge36" class="edge">
<title>Node0x55d1bf26ab78&#45;&gt;Node0x55d1bf2545a8</title>
<path fill="none" stroke="#7fb2ff" d="M331.92,-717.63C323.97,-712.63 317.1,-706.19 312,-697.94 298.16,-675.54 298.16,-246.34 312,-223.94 313.7,-221.19 315.6,-218.64 317.66,-216.28"/>
<polygon fill="#7fb2ff" stroke="#7fb2ff" points="320.51,-218.4 325.31,-208.95 315.67,-213.34 320.51,-218.4"/>
</g>
<!-- Node0x55d1bf258518 -->
<g id="node20" class="node">
<title>Node0x55d1bf258518</title>
<polygon fill="#7fb2ff" stroke="black" points="834,-208.94 632,-208.94 632,-172.94 834,-172.94 834,-208.94"/>
<text text-anchor="middle" x="733" y="-187.24" font-family="Times,serif" font-size="14.00">{lib/libLLVMGlobalISel.a}</text>
</g>
<!-- Node0x55d1bf26ab78&#45;&gt;Node0x55d1bf258518 -->
<g id="edge33" class="edge">
<title>Node0x55d1bf26ab78&#45;&gt;Node0x55d1bf258518</title>
<path fill="none" stroke="#7fb2ff" d="M536.24,-712.9C545.63,-708.56 554.2,-702.75 561,-694.94 621.05,-625.95 552.89,-365.06 597,-284.94 613.68,-254.65 643.42,-230.49 670.75,-214.07"/>
<polygon fill="#7fb2ff" stroke="#7fb2ff" points="672.6,-217.04 679.52,-209.01 669.1,-210.98 672.6,-217.04"/>
</g>
<!-- Node0x55d1bf2565d8 -->
<g id="node21" class="node">
<title>Node0x55d1bf2565d8</title>
<polygon fill="#7fb2ff" stroke="black" points="829.5,-554.94 636.5,-554.94 636.5,-518.94 829.5,-518.94 829.5,-554.94"/>
<text text-anchor="middle" x="733" y="-533.24" font-family="Times,serif" font-size="14.00">{lib/libLLVMCFGuard.a}</text>
</g>
<!-- Node0x55d1bf26ab78&#45;&gt;Node0x55d1bf2565d8 -->
<g id="edge34" class="edge">
<title>Node0x55d1bf26ab78&#45;&gt;Node0x55d1bf2565d8</title>
<path fill="none" stroke="#7fb2ff" d="M548.86,-712.85C553.17,-710.24 557.25,-707.28 561,-703.94 596.87,-671.93 564.92,-637.74 597,-601.94 614.01,-582.95 637.78,-568.98 660.64,-558.96"/>
<polygon fill="#7fb2ff" stroke="#7fb2ff" points="662.14,-562.13 670.02,-555.04 659.45,-555.67 662.14,-562.13"/>
</g>
<!-- Node0x55d1bf2711a8 -->
<g id="node22" class="node">
<title>Node0x55d1bf2711a8</title>
<polygon fill="#7fb2ff" stroke="black" points="837.5,-154.94 628.5,-154.94 628.5,-118.94 837.5,-118.94 837.5,-154.94"/>
<text text-anchor="middle" x="733" y="-133.24" font-family="Times,serif" font-size="14.00">{lib/libLLVMProfileData.a}</text>
</g>
<!-- Node0x55d1bf26ab78&#45;&gt;Node0x55d1bf2711a8 -->
<g id="edge35" class="edge">
<title>Node0x55d1bf26ab78&#45;&gt;Node0x55d1bf2711a8</title>
<path fill="none" stroke="#7fb2ff" d="M551.55,-712.91C554.98,-710.26 558.15,-707.28 561,-703.94 639.01,-612.4 517.7,-254.36 597,-163.94 603.25,-156.81 610.8,-151.25 619.11,-146.93"/>
<polygon fill="#7fb2ff" stroke="#7fb2ff" points="620.72,-150.04 628.38,-142.72 617.83,-143.66 620.72,-150.04"/>
</g>
<!-- Node0x55d1bf26c478&#45;&gt;Node0x55d1bf26c978 -->
<g id="edge39" class="edge">
<title>Node0x55d1bf26c478&#45;&gt;Node0x55d1bf26c978</title>
<path fill="none" stroke="#7fb2ff" d="M442.5,-658.73C442.5,-656.25 442.5,-653.76 442.5,-651.28"/>
<polygon fill="#7fb2ff" stroke="#7fb2ff" points="446,-651.08 442.5,-641.08 439,-651.08 446,-651.08"/>
</g>
<!-- Node0x55d1bf26c478&#45;&gt;Node0x55d1bf279178 -->
<g id="edge37" class="edge">
<title>Node0x55d1bf26c478&#45;&gt;Node0x55d1bf279178</title>
<path fill="none" stroke="#7fb2ff" d="M346.7,-671.14C330.13,-665.36 315.28,-655.95 306,-640.94 284.97,-606.91 284.97,-314.96 306,-280.94 316.96,-263.2 335.71,-253.28 355.87,-247.93"/>
<polygon fill="#7fb2ff" stroke="#7fb2ff" points="356.87,-251.29 365.85,-245.66 355.32,-244.47 356.87,-251.29"/>
</g>
<!-- Node0x55d1bf26c478&#45;&gt;Node0x55d1bf256308 -->
<g id="edge38" class="edge">
<title>Node0x55d1bf26c478&#45;&gt;Node0x55d1bf256308</title>
<path fill="none" stroke="#7fb2ff" d="M346.7,-671.14C330.13,-665.36 315.28,-655.95 306,-640.94 289.18,-613.72 289.18,-524.16 306,-496.94 313.96,-484.06 326.02,-475.31 339.74,-469.43"/>
<polygon fill="#7fb2ff" stroke="#7fb2ff" points="341.32,-472.57 349.47,-465.8 338.88,-466.01 341.32,-472.57"/>
</g>
<!-- Node0x55d1bf254f58 -->
<g id="node23" class="node">
<title>Node0x55d1bf254f58</title>
<polygon fill="#7fb2ff" stroke="black" points="857,-830.94 609,-830.94 609,-794.94 857,-794.94 857,-830.94"/>
<text text-anchor="middle" x="733" y="-809.24" font-family="Times,serif" font-size="14.00">{lib/libLLVMMCDisassembler.a}</text>
</g>
<!-- Node0x55d1bf26c478&#45;&gt;Node0x55d1bf254f58 -->
<g id="edge40" class="edge">
<title>Node0x55d1bf26c478&#45;&gt;Node0x55d1bf254f58</title>
<path fill="none" stroke="#7fb2ff" d="M538.22,-690.41C546.41,-693.97 554.16,-698.41 561,-703.94 590.38,-727.68 567.7,-757.09 597,-780.94 601.1,-784.27 605.49,-787.27 610.08,-789.97"/>
<polygon fill="#7fb2ff" stroke="#7fb2ff" points="608.69,-793.19 619.16,-794.79 611.97,-787.01 608.69,-793.19"/>
</g>
<!-- Node0x55d1bf268c88 -->
<g id="node24" class="node">
<title>Node0x55d1bf268c88</title>
<polygon fill="#7fb2ff" stroke="black" points="846.5,-446.94 619.5,-446.94 619.5,-410.94 846.5,-410.94 846.5,-446.94"/>
<text text-anchor="middle" x="733" y="-425.24" font-family="Times,serif" font-size="14.00">{lib/libLLVMBinaryFormat.a}</text>
</g>
<!-- Node0x55d1bf26c478&#45;&gt;Node0x55d1bf268c88 -->
<g id="edge41" class="edge">
<title>Node0x55d1bf26c478&#45;&gt;Node0x55d1bf268c88</title>
<path fill="none" stroke="#7fb2ff" d="M538.1,-666.01C546.63,-661.98 554.48,-656.74 561,-649.94 621.68,-586.63 535.42,-518.38 597,-455.94 601.04,-451.84 605.51,-448.28 610.3,-445.18"/>
<polygon fill="#7fb2ff" stroke="#7fb2ff" points="612.27,-448.09 619.23,-440.1 608.81,-442 612.27,-448.09"/>
</g>
<!-- Node0x55d1bf26c978&#45;&gt;Node0x55d1bf256308 -->
<g id="edge42" class="edge">
<title>Node0x55d1bf26c978&#45;&gt;Node0x55d1bf256308</title>
<path fill="none" stroke="#7fb2ff" d="M350.17,-618.29C332.22,-612.64 315.92,-602.99 306,-586.94 284.97,-552.91 284.97,-530.96 306,-496.94 313.96,-484.06 326.02,-475.31 339.74,-469.43"/>
<polygon fill="#7fb2ff" stroke="#7fb2ff" points="341.32,-472.57 349.47,-465.8 338.88,-466.01 341.32,-472.57"/>
</g>
<!-- Node0x55d1bf26ba78&#45;&gt;Node0x55d1bf26ab78 -->
<g id="edge43" class="edge">
<title>Node0x55d1bf26ba78&#45;&gt;Node0x55d1bf26ab78</title>
<path fill="none" stroke="#7fb2ff" d="M348.35,-142.14C328.75,-148.13 310.79,-158.48 300,-175.94 284.93,-200.32 284.93,-667.55 300,-691.94 305.88,-701.46 313.9,-708.87 323.16,-714.61"/>
<polygon fill="#7fb2ff" stroke="#7fb2ff" points="321.53,-717.7 331.98,-719.42 324.88,-711.56 321.53,-717.7"/>
</g>
<!-- Node0x55d1bf26ba78&#45;&gt;Node0x55d1bf277378 -->
<g id="edge44" class="edge">
<title>Node0x55d1bf26ba78&#45;&gt;Node0x55d1bf277378</title>
<path fill="none" stroke="#7fb2ff" d="M442.5,-118.73C442.5,-116.25 442.5,-113.76 442.5,-111.28"/>
<polygon fill="#7fb2ff" stroke="#7fb2ff" points="446,-111.08 442.5,-101.08 439,-111.08 446,-111.08"/>
</g>
<!-- Node0x55d1bf26ba78&#45;&gt;Node0x55d1bf256308 -->
<g id="edge45" class="edge">
<title>Node0x55d1bf26ba78&#45;&gt;Node0x55d1bf256308</title>
<path fill="none" stroke="#7fb2ff" d="M348.43,-142.14C331.17,-147.87 315.6,-157.41 306,-172.94 291.28,-196.76 291.28,-401.12 306,-424.94 313.96,-437.81 326.02,-446.57 339.74,-452.45"/>
<polygon fill="#7fb2ff" stroke="#7fb2ff" points="338.88,-455.86 349.47,-456.07 341.32,-449.3 338.88,-455.86"/>
</g>
<!-- Node0x55d1bf26ba78&#45;&gt;Node0x55d1bf2711a8 -->
<g id="edge46" class="edge">
<title>Node0x55d1bf26ba78&#45;&gt;Node0x55d1bf2711a8</title>
<path fill="none" stroke="#7fb2ff" d="M536.77,-136.94C562.68,-136.94 591.11,-136.94 618.06,-136.94"/>
<polygon fill="#7fb2ff" stroke="#7fb2ff" points="618.31,-140.44 628.31,-136.94 618.31,-133.44 618.31,-140.44"/>
</g>
<!-- Node0x55d1bf277878&#45;&gt;Node0x55d1bf26ab78 -->
<g id="edge47" class="edge">
<title>Node0x55d1bf277878&#45;&gt;Node0x55d1bf26ab78</title>
<path fill="none" stroke="#7fb2ff" d="M345.78,-412.95C327.19,-419.05 310.32,-429.25 300,-445.94 285.63,-469.19 285.63,-668.69 300,-691.94 305.88,-701.46 313.9,-708.87 323.16,-714.61"/>
<polygon fill="#7fb2ff" stroke="#7fb2ff" points="321.53,-717.7 331.98,-719.42 324.88,-711.56 321.53,-717.7"/>
</g>
<!-- Node0x55d1bf277878&#45;&gt;Node0x55d1bf26ba78 -->
<g id="edge51" class="edge">
<title>Node0x55d1bf277878&#45;&gt;Node0x55d1bf26ba78</title>
<path fill="none" stroke="#7fb2ff" d="M345.66,-400.78C329.52,-394.97 315.08,-385.64 306,-370.94 282.87,-333.51 282.87,-210.37 306,-172.94 313.8,-160.32 325.54,-151.65 338.93,-145.78"/>
<polygon fill="#7fb2ff" stroke="#7fb2ff" points="340.34,-148.99 348.43,-142.14 337.84,-142.45 340.34,-148.99"/>
</g>
<!-- Node0x55d1bf277878&#45;&gt;Node0x55d1bf277378 -->
<g id="edge48" class="edge">
<title>Node0x55d1bf277878&#45;&gt;Node0x55d1bf277378</title>
<path fill="none" stroke="#7fb2ff" d="M345.98,-400.69C332.14,-395.22 319.92,-386.76 312,-373.94 296.93,-349.55 296.93,-140.32 312,-115.94 320.99,-101.4 335.49,-92.47 351.63,-87.14"/>
<polygon fill="#7fb2ff" stroke="#7fb2ff" points="352.62,-90.5 361.29,-84.4 350.71,-83.76 352.62,-90.5"/>
</g>
<!-- Node0x55d1bf277878&#45;&gt;Node0x55d1bf279178 -->
<g id="edge50" class="edge">
<title>Node0x55d1bf277878&#45;&gt;Node0x55d1bf279178</title>
<path fill="none" stroke="#7fb2ff" d="M345.66,-400.78C329.52,-394.97 315.08,-385.64 306,-370.94 284.97,-336.91 284.97,-314.96 306,-280.94 316.96,-263.2 335.71,-253.28 355.87,-247.93"/>
<polygon fill="#7fb2ff" stroke="#7fb2ff" points="356.87,-251.29 365.85,-245.66 355.32,-244.47 356.87,-251.29"/>
</g>
<!-- Node0x55d1bf277878&#45;&gt;Node0x55d1bf278278 -->
<g id="edge55" class="edge">
<title>Node0x55d1bf277878&#45;&gt;Node0x55d1bf278278</title>
<path fill="none" stroke="#7fb2ff" d="M345.66,-400.78C329.52,-394.97 315.08,-385.64 306,-370.94 297.59,-357.33 297.59,-348.55 306,-334.94 311.97,-325.28 320.25,-317.94 329.8,-312.39"/>
<polygon fill="#7fb2ff" stroke="#7fb2ff" points="331.56,-315.43 338.91,-307.79 328.4,-309.18 331.56,-315.43"/>
</g>
<!-- Node0x55d1bf277878&#45;&gt;Node0x55d1bf256308 -->
<g id="edge49" class="edge">
<title>Node0x55d1bf277878&#45;&gt;Node0x55d1bf256308</title>
<path fill="none" stroke="#7fb2ff" d="M507.08,-425.08C513.39,-428.66 515.87,-432.25 514.52,-435.83"/>
<polygon fill="#7fb2ff" stroke="#7fb2ff" points="512.08,-433.32 507.2,-442.73 516.88,-438.42 512.08,-433.32"/>
</g>
<!-- Node0x55d1bf277878&#45;&gt;Node0x55d1bf254058 -->
<g id="edge53" class="edge">
<title>Node0x55d1bf277878&#45;&gt;Node0x55d1bf254058</title>
<path fill="none" stroke="#7fb2ff" d="M442.5,-388.73C442.5,-386.25 442.5,-383.76 442.5,-381.28"/>
<polygon fill="#7fb2ff" stroke="#7fb2ff" points="446,-381.08 442.5,-371.08 439,-381.08 446,-381.08"/>
</g>
<!-- Node0x55d1bf277878&#45;&gt;Node0x55d1bf2545a8 -->
<g id="edge52" class="edge">
<title>Node0x55d1bf277878&#45;&gt;Node0x55d1bf2545a8</title>
<path fill="none" stroke="#7fb2ff" d="M345.66,-400.78C329.52,-394.97 315.08,-385.64 306,-370.94 289.18,-343.72 289.18,-254.16 306,-226.94 308.87,-222.3 312.26,-218.2 316.08,-214.57"/>
<polygon fill="#7fb2ff" stroke="#7fb2ff" points="318.38,-217.21 323.91,-208.17 313.95,-211.79 318.38,-217.21"/>
</g>
<!-- Node0x55d1bf277878&#45;&gt;Node0x55d1bf2711a8 -->
<g id="edge54" class="edge">
<title>Node0x55d1bf277878&#45;&gt;Node0x55d1bf2711a8</title>
<path fill="none" stroke="#7fb2ff" d="M539.08,-395.72C547.25,-391.73 554.76,-386.57 561,-379.94 627.7,-309.06 529.3,-233.86 597,-163.94 603.34,-157.39 610.79,-152.19 618.88,-148.09"/>
<polygon fill="#7fb2ff" stroke="#7fb2ff" points="620.54,-151.18 628.25,-143.91 617.69,-144.78 620.54,-151.18"/>
</g>
<!-- Node0x55d1bf277d78&#45;&gt;Node0x55d1bf26ba78 -->
<g id="edge56" class="edge">
<title>Node0x55d1bf277d78&#45;&gt;Node0x55d1bf26ba78</title>
<path fill="none" stroke="#7fb2ff" d="M337.91,-559.65C324.95,-553.78 313.6,-545.24 306,-532.94 284.97,-498.91 284.97,-206.96 306,-172.94 313.8,-160.32 325.54,-151.65 338.93,-145.78"/>
<polygon fill="#7fb2ff" stroke="#7fb2ff" points="340.34,-148.99 348.43,-142.14 337.84,-142.45 340.34,-148.99"/>
</g>
<!-- Node0x55d1bf277d78&#45;&gt;Node0x55d1bf277878 -->
<g id="edge57" class="edge">
<title>Node0x55d1bf277d78&#45;&gt;Node0x55d1bf277878</title>
<path fill="none" stroke="#7fb2ff" d="M337.91,-559.65C324.95,-553.78 313.6,-545.24 306,-532.94 284.97,-498.91 284.97,-476.96 306,-442.94 313.24,-431.23 323.87,-422.92 336.07,-417.09"/>
<polygon fill="#7fb2ff" stroke="#7fb2ff" points="337.77,-420.17 345.66,-413.1 335.09,-413.71 337.77,-420.17"/>
</g>
<!-- Node0x55d1bf277d78&#45;&gt;Node0x55d1bf277378 -->
<g id="edge58" class="edge">
<title>Node0x55d1bf277d78&#45;&gt;Node0x55d1bf277378</title>
<path fill="none" stroke="#7fb2ff" d="M337.91,-559.65C324.95,-553.78 313.6,-545.24 306,-532.94 293.91,-513.37 293.91,-138.5 306,-118.94 316.15,-102.52 332.98,-92.79 351.41,-87.2"/>
<polygon fill="#7fb2ff" stroke="#7fb2ff" points="352.39,-90.56 361.17,-84.64 350.61,-83.79 352.39,-90.56"/>
</g>
<!-- Node0x55d1bf277d78&#45;&gt;Node0x55d1bf279178 -->
<g id="edge59" class="edge">
<title>Node0x55d1bf277d78&#45;&gt;Node0x55d1bf279178</title>
<path fill="none" stroke="#7fb2ff" d="M337.91,-559.65C324.95,-553.78 313.6,-545.24 306,-532.94 291.28,-509.12 291.28,-304.76 306,-280.94 316.96,-263.2 335.71,-253.28 355.87,-247.93"/>
<polygon fill="#7fb2ff" stroke="#7fb2ff" points="356.87,-251.29 365.85,-245.66 355.32,-244.47 356.87,-251.29"/>
</g>
<!-- Node0x55d1bf277d78&#45;&gt;Node0x55d1bf256308 -->
<g id="edge61" class="edge">
<title>Node0x55d1bf277d78&#45;&gt;Node0x55d1bf256308</title>
<path fill="none" stroke="#7fb2ff" d="M337.91,-559.65C324.95,-553.78 313.6,-545.24 306,-532.94 297.59,-519.33 297.59,-510.55 306,-496.94 313.96,-484.06 326.02,-475.31 339.74,-469.43"/>
<polygon fill="#7fb2ff" stroke="#7fb2ff" points="341.32,-472.57 349.47,-465.8 338.88,-466.01 341.32,-472.57"/>
</g>
<!-- Node0x55d1bf277d78&#45;&gt;Node0x55d1bf254058 -->
<g id="edge62" class="edge">
<title>Node0x55d1bf277d78&#45;&gt;Node0x55d1bf254058</title>
<path fill="none" stroke="#7fb2ff" d="M337.91,-559.65C324.95,-553.78 313.6,-545.24 306,-532.94 289.18,-505.72 289.18,-416.16 306,-388.94 314.99,-374.39 329.23,-365.09 345.18,-359.27"/>
<polygon fill="#7fb2ff" stroke="#7fb2ff" points="346.28,-362.6 354.75,-356.23 344.16,-355.93 346.28,-362.6"/>
</g>
<!-- Node0x55d1bf277d78&#45;&gt;Node0x55d1bf270708 -->
<g id="edge64" class="edge">
<title>Node0x55d1bf277d78&#45;&gt;Node0x55d1bf270708</title>
<path fill="none" stroke="#7fb2ff" d="M547.1,-586.22C552.05,-589.02 556.73,-592.24 561,-595.94 594.51,-624.95 563.59,-659.81 597,-688.94 605.13,-696.03 614.55,-701.62 624.56,-706.01"/>
<polygon fill="#7fb2ff" stroke="#7fb2ff" points="623.3,-709.28 633.89,-709.72 625.89,-702.78 623.3,-709.28"/>
</g>
<!-- Node0x55d1bf277d78&#45;&gt;Node0x55d1bf268c88 -->
<g id="edge63" class="edge">
<title>Node0x55d1bf277d78&#45;&gt;Node0x55d1bf268c88</title>
<path fill="none" stroke="#7fb2ff" d="M547.26,-551.36C552.14,-548.64 556.76,-545.51 561,-541.94 592.69,-515.24 564.93,-482.18 597,-455.94 601.11,-452.57 605.53,-449.59 610.17,-446.94"/>
<polygon fill="#7fb2ff" stroke="#7fb2ff" points="612.02,-449.92 619.34,-442.26 608.84,-443.69 612.02,-449.92"/>
</g>
<!-- Node0x55d1bf278868 -->
<g id="node25" class="node">
<title>Node0x55d1bf278868</title>
<polygon fill="#7fb2ff" stroke="black" points="828.5,-392.94 637.5,-392.94 637.5,-356.94 828.5,-356.94 828.5,-392.94"/>
<text text-anchor="middle" x="733" y="-371.24" font-family="Times,serif" font-size="14.00">{lib/libLLVMRemarks.a}</text>
</g>
<!-- Node0x55d1bf277d78&#45;&gt;Node0x55d1bf278868 -->
<g id="edge60" class="edge">
<title>Node0x55d1bf277d78&#45;&gt;Node0x55d1bf278868</title>
<path fill="none" stroke="#7fb2ff" d="M547.1,-552.57C552.12,-549.55 556.8,-546.03 561,-541.94 607.01,-497.1 550.35,-446.12 597,-401.94 605.74,-393.66 616.28,-387.59 627.56,-383.18"/>
<polygon fill="#7fb2ff" stroke="#7fb2ff" points="628.87,-386.43 637.18,-379.86 626.59,-379.82 628.87,-386.43"/>
</g>
<!-- Node0x55d1bf257b18 -->
<g id="node26" class="node">
<title>Node0x55d1bf257b18</title>
<polygon fill="#7fb2ff" stroke="black" points="860.5,-500.94 605.5,-500.94 605.5,-464.94 860.5,-464.94 860.5,-500.94"/>
<text text-anchor="middle" x="733" y="-479.24" font-family="Times,serif" font-size="14.00">{lib/libLLVMDebugInfoDWARF.a}</text>
</g>
<!-- Node0x55d1bf277d78&#45;&gt;Node0x55d1bf257b18 -->
<g id="edge65" class="edge">
<title>Node0x55d1bf277d78&#45;&gt;Node0x55d1bf257b18</title>
<path fill="none" stroke="#7fb2ff" d="M540.15,-550.93C547.36,-548.33 554.4,-545.34 561,-541.94 580.03,-532.12 577.84,-519.48 597,-509.94 600.85,-508.02 604.83,-506.24 608.89,-504.58"/>
<polygon fill="#7fb2ff" stroke="#7fb2ff" points="610.41,-507.75 618.53,-500.95 607.93,-501.21 610.41,-507.75"/>
</g>
<!-- Node0x55d1bf26fc68 -->
<g id="node27" class="node">
<title>Node0x55d1bf26fc68</title>
<polygon fill="#7fb2ff" stroke="black" points="869,-884.94 597,-884.94 597,-848.94 869,-848.94 869,-884.94"/>
<text text-anchor="middle" x="733" y="-863.24" font-family="Times,serif" font-size="14.00">{lib/libLLVMDebugInfoCodeView.a}</text>
</g>
<!-- Node0x55d1bf277d78&#45;&gt;Node0x55d1bf26fc68 -->
<g id="edge66" class="edge">
<title>Node0x55d1bf277d78&#45;&gt;Node0x55d1bf26fc68</title>
<path fill="none" stroke="#7fb2ff" d="M547.1,-584.46C552.19,-587.68 556.88,-591.48 561,-595.94 635.38,-676.46 521.49,-760.48 597,-839.94 597.78,-840.76 598.58,-841.56 599.4,-842.34"/>
<polygon fill="#7fb2ff" stroke="#7fb2ff" points="597.24,-845.11 607.16,-848.83 601.73,-839.73 597.24,-845.11"/>
</g>
<!-- Node0x55d1bf277378&#45;&gt;Node0x55d1bf26ab78 -->
<g id="edge70" class="edge">
<title>Node0x55d1bf277378&#45;&gt;Node0x55d1bf26ab78</title>
<path fill="none" stroke="#7fb2ff" d="M361.39,-84.81C336.95,-89.94 313.15,-100.67 300,-121.94 291.68,-135.41 291.68,-678.47 300,-691.94 305.88,-701.46 313.9,-708.87 323.16,-714.61"/>
<polygon fill="#7fb2ff" stroke="#7fb2ff" points="321.53,-717.7 331.98,-719.42 324.88,-711.56 321.53,-717.7"/>
</g>
<!-- Node0x55d1bf277378&#45;&gt;Node0x55d1bf277878 -->
<g id="edge68" class="edge">
<title>Node0x55d1bf277378&#45;&gt;Node0x55d1bf277878</title>
<path fill="none" stroke="#7fb2ff" d="M361.39,-84.81C336.95,-89.94 313.15,-100.67 300,-121.94 285.63,-145.19 285.63,-344.69 300,-367.94 308.54,-381.76 321.58,-391.13 336.37,-397.4"/>
<polygon fill="#7fb2ff" stroke="#7fb2ff" points="335.19,-400.7 345.78,-400.92 337.64,-394.14 335.19,-400.7"/>
</g>
<!-- Node0x55d1bf277378&#45;&gt;Node0x55d1bf256308 -->
<g id="edge67" class="edge">
<title>Node0x55d1bf277378&#45;&gt;Node0x55d1bf256308</title>
<path fill="none" stroke="#7fb2ff" d="M361.17,-84.64C339.05,-89.61 317.92,-99.65 306,-118.94 288.13,-147.86 288.13,-396.02 306,-424.94 313.96,-437.81 326.02,-446.57 339.74,-452.45"/>
<polygon fill="#7fb2ff" stroke="#7fb2ff" points="338.88,-455.86 349.47,-456.07 341.32,-449.3 338.88,-455.86"/>
</g>
<!-- Node0x55d1bf277378&#45;&gt;Node0x55d1bf268c88 -->
<g id="edge69" class="edge">
<title>Node0x55d1bf277378&#45;&gt;Node0x55d1bf268c88</title>
<path fill="none" stroke="#7fb2ff" d="M523.61,-87.66C537.77,-92.01 551.12,-98.98 561,-109.94 648.57,-207.05 508.06,-306.09 597,-401.94 601.11,-406.37 605.73,-410.19 610.72,-413.48"/>
<polygon fill="#7fb2ff" stroke="#7fb2ff" points="609.02,-416.54 619.43,-418.52 612.53,-410.48 609.02,-416.54"/>
</g>
<!-- Node0x55d1bf277378&#45;&gt;Node0x55d1bf278868 -->
<g id="edge71" class="edge">
<title>Node0x55d1bf277378&#45;&gt;Node0x55d1bf278868</title>
<path fill="none" stroke="#7fb2ff" d="M523.67,-87.97C537.74,-92.31 551.04,-99.19 561,-109.94 633.73,-188.4 523.16,-270.52 597,-347.94 605.51,-356.86 616.06,-363.28 627.5,-367.85"/>
<polygon fill="#7fb2ff" stroke="#7fb2ff" points="626.69,-371.27 637.29,-371.26 629,-364.66 626.69,-371.27"/>
</g>
<!-- Node0x55d1bf276e78&#45;&gt;Node0x55d1bf277378 -->
<g id="edge72" class="edge">
<title>Node0x55d1bf276e78&#45;&gt;Node0x55d1bf277378</title>
<path fill="none" stroke="black" d="M345.32,-898.65C329.31,-892.84 315.02,-883.53 306,-868.94 284.09,-833.49 284.09,-154.38 306,-118.94 316.15,-102.52 332.98,-92.79 351.41,-87.2"/>
<polygon fill="black" stroke="black" points="352.39,-90.56 361.17,-84.64 350.61,-83.79 352.39,-90.56"/>
</g>
<!-- Node0x55d1bf276e78&#45;&gt;Node0x55d1bf256308 -->
<g id="edge74" class="edge">
<title>Node0x55d1bf276e78&#45;&gt;Node0x55d1bf256308</title>
<path fill="none" stroke="black" d="M345.32,-898.65C329.31,-892.84 315.02,-883.53 306,-868.94 284.27,-833.78 284.27,-532.1 306,-496.94 313.96,-484.06 326.02,-475.31 339.74,-469.43"/>
<polygon fill="black" stroke="black" points="341.32,-472.57 349.47,-465.8 338.88,-466.01 341.32,-472.57"/>
</g>
<!-- Node0x55d1bf26bf78 -->
<g id="node28" class="node">
<title>Node0x55d1bf26bf78</title>
<polygon fill="none" stroke="black" points="835,-976.94 631,-976.94 631,-940.94 835,-940.94 835,-976.94"/>
<text text-anchor="middle" x="733" y="-955.24" font-family="Times,serif" font-size="14.00">{lib/libLLVMAsmParser.a}</text>
</g>
<!-- Node0x55d1bf276e78&#45;&gt;Node0x55d1bf26bf78 -->
<g id="edge73" class="edge">
<title>Node0x55d1bf276e78&#45;&gt;Node0x55d1bf26bf78</title>
<path fill="none" stroke="black" d="M539.57,-922.92C567.13,-928.08 597.35,-933.74 625.5,-939.01"/>
<polygon fill="black" stroke="black" points="624.9,-942.45 635.37,-940.85 626.18,-935.57 624.9,-942.45"/>
</g>
<!-- Node0x55d1bf269b88 -->
<g id="node29" class="node">
<title>Node0x55d1bf269b88</title>
<polygon fill="#7fb2ff" stroke="black" points="832.5,-338.94 633.5,-338.94 633.5,-302.94 832.5,-302.94 832.5,-338.94"/>
<text text-anchor="middle" x="733" y="-317.24" font-family="Times,serif" font-size="14.00">{lib/libLLVMBitReader.a}</text>
</g>
<!-- Node0x55d1bf276e78&#45;&gt;Node0x55d1bf269b88 -->
<g id="edge75" class="edge">
<title>Node0x55d1bf276e78&#45;&gt;Node0x55d1bf269b88</title>
<path fill="none" stroke="black" d="M539.76,-894.33C547.8,-890.22 555.09,-884.86 561,-877.94 637.62,-788.14 519.11,-436.64 597,-347.94 604.43,-339.48 613.69,-333.22 623.86,-328.64"/>
<polygon fill="black" stroke="black" points="625.4,-331.8 633.43,-324.88 622.84,-325.28 625.4,-331.8"/>
</g>
<!-- Node0x55d1bf279178&#45;&gt;Node0x55d1bf26ab78 -->
<g id="edge78" class="edge">
<title>Node0x55d1bf279178&#45;&gt;Node0x55d1bf26ab78</title>
<path fill="none" stroke="#7fb2ff" d="M365.9,-245.93C339.92,-250.66 313.96,-261.36 300,-283.94 288.08,-303.22 288.08,-672.66 300,-691.94 305.88,-701.46 313.9,-708.87 323.16,-714.61"/>
<polygon fill="#7fb2ff" stroke="#7fb2ff" points="321.53,-717.7 331.98,-719.42 324.88,-711.56 321.53,-717.7"/>
</g>
<!-- Node0x55d1bf279178&#45;&gt;Node0x55d1bf256308 -->
<g id="edge76" class="edge">
<title>Node0x55d1bf279178&#45;&gt;Node0x55d1bf256308</title>
<path fill="none" stroke="#7fb2ff" d="M365.85,-245.66C342.06,-250.24 318.76,-260.3 306,-280.94 289.18,-308.16 289.18,-397.72 306,-424.94 313.96,-437.81 326.02,-446.57 339.74,-452.45"/>
<polygon fill="#7fb2ff" stroke="#7fb2ff" points="338.88,-455.86 349.47,-456.07 341.32,-449.3 338.88,-455.86"/>
</g>
<!-- Node0x55d1bf279178&#45;&gt;Node0x55d1bf268c88 -->
<g id="edge77" class="edge">
<title>Node0x55d1bf279178&#45;&gt;Node0x55d1bf268c88</title>
<path fill="none" stroke="#7fb2ff" d="M519.03,-249.9C534.48,-254.09 549.51,-260.94 561,-271.94 604.32,-313.38 553.09,-361.12 597,-401.94 601.1,-405.75 605.59,-409.1 610.34,-412.02"/>
<polygon fill="#7fb2ff" stroke="#7fb2ff" points="608.73,-415.13 619.19,-416.84 612.09,-408.98 608.73,-415.13"/>
</g>
<!-- Node0x55d1bf278c78&#45;&gt;Node0x55d1bf277878 -->
<g id="edge79" class="edge">
<title>Node0x55d1bf278c78&#45;&gt;Node0x55d1bf277878</title>
<path fill="none" stroke="black" d="M340.91,-950.94C326.7,-945.06 314.18,-936.18 306,-922.94 291.98,-900.25 291.98,-465.62 306,-442.94 313.24,-431.23 323.87,-422.92 336.07,-417.09"/>
<polygon fill="black" stroke="black" points="337.77,-420.17 345.66,-413.1 335.09,-413.71 337.77,-420.17"/>
</g>
<!-- Node0x55d1bf278c78&#45;&gt;Node0x55d1bf277378 -->
<g id="edge80" class="edge">
<title>Node0x55d1bf278c78&#45;&gt;Node0x55d1bf277378</title>
<path fill="none" stroke="black" d="M340.91,-950.94C326.7,-945.06 314.18,-936.18 306,-922.94 282.52,-884.94 282.52,-156.93 306,-118.94 316.15,-102.52 332.98,-92.79 351.41,-87.2"/>
<polygon fill="black" stroke="black" points="352.39,-90.56 361.17,-84.64 350.61,-83.79 352.39,-90.56"/>
</g>
<!-- Node0x55d1bf278c78&#45;&gt;Node0x55d1bf279178 -->
<g id="edge83" class="edge">
<title>Node0x55d1bf278c78&#45;&gt;Node0x55d1bf279178</title>
<path fill="none" stroke="black" d="M340.91,-950.94C326.7,-945.06 314.18,-936.18 306,-922.94 287.25,-892.6 287.25,-311.28 306,-280.94 316.96,-263.2 335.71,-253.28 355.87,-247.93"/>
<polygon fill="black" stroke="black" points="356.87,-251.29 365.85,-245.66 355.32,-244.47 356.87,-251.29"/>
</g>
<!-- Node0x55d1bf278c78&#45;&gt;Node0x55d1bf256308 -->
<g id="edge82" class="edge">
<title>Node0x55d1bf278c78&#45;&gt;Node0x55d1bf256308</title>
<path fill="none" stroke="black" d="M340.91,-950.94C326.7,-945.06 314.18,-936.18 306,-922.94 293.56,-902.81 293.56,-517.07 306,-496.94 313.96,-484.06 326.02,-475.31 339.74,-469.43"/>
<polygon fill="black" stroke="black" points="341.32,-472.57 349.47,-465.8 338.88,-466.01 341.32,-472.57"/>
</g>
<!-- Node0x55d1bf278c78&#45;&gt;Node0x55d1bf268c88 -->
<g id="edge84" class="edge">
<title>Node0x55d1bf278c78&#45;&gt;Node0x55d1bf268c88</title>
<path fill="none" stroke="black" d="M544.07,-945.89C550.39,-942.16 556.16,-937.57 561,-931.94 630.16,-851.51 526.7,-535.38 597,-455.94 601.06,-451.35 605.66,-447.41 610.65,-444.04"/>
<polygon fill="black" stroke="black" points="612.56,-446.97 619.39,-438.88 609,-440.95 612.56,-446.97"/>
</g>
<!-- Node0x55d1bf278c78&#45;&gt;Node0x55d1bf26bf78 -->
<g id="edge81" class="edge">
<title>Node0x55d1bf278c78&#45;&gt;Node0x55d1bf26bf78</title>
<path fill="none" stroke="black" d="M544.4,-958.94C568.97,-958.94 595.38,-958.94 620.41,-958.94"/>
<polygon fill="black" stroke="black" points="620.67,-962.44 630.67,-958.94 620.67,-955.44 620.67,-962.44"/>
</g>
<!-- Node0x55d1bf278278&#45;&gt;Node0x55d1bf26ab78 -->
<g id="edge89" class="edge">
<title>Node0x55d1bf278278&#45;&gt;Node0x55d1bf26ab78</title>
<path fill="none" stroke="#7fb2ff" d="M338.91,-307.79C325.53,-313.66 313.8,-322.33 306,-334.94 284.97,-368.96 284.97,-660.91 306,-694.94 310.48,-702.19 316.27,-708.14 322.93,-713.01"/>
<polygon fill="#7fb2ff" stroke="#7fb2ff" points="321.46,-716.22 331.79,-718.6 325.2,-710.3 321.46,-716.22"/>
</g>
<!-- Node0x55d1bf278278&#45;&gt;Node0x55d1bf26ba78 -->
<g id="edge85" class="edge">
<title>Node0x55d1bf278278&#45;&gt;Node0x55d1bf26ba78</title>
<path fill="none" stroke="#7fb2ff" d="M338.91,-290.09C325.53,-284.21 313.8,-275.55 306,-262.94 284.97,-228.91 284.97,-206.96 306,-172.94 313.8,-160.32 325.54,-151.65 338.93,-145.78"/>
<polygon fill="#7fb2ff" stroke="#7fb2ff" points="340.34,-148.99 348.43,-142.14 337.84,-142.45 340.34,-148.99"/>
</g>
<!-- Node0x55d1bf278278&#45;&gt;Node0x55d1bf277378 -->
<g id="edge86" class="edge">
<title>Node0x55d1bf278278&#45;&gt;Node0x55d1bf277378</title>
<path fill="none" stroke="#7fb2ff" d="M338.91,-290.09C325.53,-284.21 313.8,-275.55 306,-262.94 289.18,-235.72 289.18,-146.16 306,-118.94 316.15,-102.52 332.98,-92.79 351.41,-87.2"/>
<polygon fill="#7fb2ff" stroke="#7fb2ff" points="352.39,-90.56 361.17,-84.64 350.61,-83.79 352.39,-90.56"/>
</g>
<!-- Node0x55d1bf278278&#45;&gt;Node0x55d1bf256308 -->
<g id="edge87" class="edge">
<title>Node0x55d1bf278278&#45;&gt;Node0x55d1bf256308</title>
<path fill="none" stroke="#7fb2ff" d="M338.91,-307.79C325.53,-313.66 313.8,-322.33 306,-334.94 284.97,-368.96 284.97,-390.91 306,-424.94 313.96,-437.81 326.02,-446.57 339.74,-452.45"/>
<polygon fill="#7fb2ff" stroke="#7fb2ff" points="338.88,-455.86 349.47,-456.07 341.32,-449.3 338.88,-455.86"/>
</g>
<!-- Node0x55d1bf278278&#45;&gt;Node0x55d1bf2545a8 -->
<g id="edge88" class="edge">
<title>Node0x55d1bf278278&#45;&gt;Node0x55d1bf2545a8</title>
<path fill="none" stroke="#7fb2ff" d="M338.91,-290.09C325.53,-284.21 313.8,-275.55 306,-262.94 297.59,-249.33 297.59,-240.55 306,-226.94 308.87,-222.3 312.26,-218.2 316.08,-214.57"/>
<polygon fill="#7fb2ff" stroke="#7fb2ff" points="318.38,-217.21 323.91,-208.17 313.95,-211.79 318.38,-217.21"/>
</g>
<!-- Node0x55d1bf27a578&#45;&gt;Node0x55d1bf26ab78 -->
<g id="edge97" class="edge">
<title>Node0x55d1bf27a578&#45;&gt;Node0x55d1bf26ab78</title>
<path fill="none" stroke="#7fb2ff" d="M329.28,-527.8C317.44,-533.93 307.15,-542.37 300,-553.94 291.94,-566.98 291.94,-678.89 300,-691.94 305.88,-701.46 313.9,-708.87 323.16,-714.61"/>
<polygon fill="#7fb2ff" stroke="#7fb2ff" points="321.53,-717.7 331.98,-719.42 324.88,-711.56 321.53,-717.7"/>
</g>
<!-- Node0x55d1bf27a578&#45;&gt;Node0x55d1bf26ba78 -->
<g id="edge90" class="edge">
<title>Node0x55d1bf27a578&#45;&gt;Node0x55d1bf26ba78</title>
<path fill="none" stroke="#7fb2ff" d="M329.29,-501.19C319.95,-495.68 311.86,-488.42 306,-478.94 288.13,-450.02 288.13,-201.86 306,-172.94 313.8,-160.32 325.54,-151.65 338.93,-145.78"/>
<polygon fill="#7fb2ff" stroke="#7fb2ff" points="340.34,-148.99 348.43,-142.14 337.84,-142.45 340.34,-148.99"/>
</g>
<!-- Node0x55d1bf27a578&#45;&gt;Node0x55d1bf277878 -->
<g id="edge91" class="edge">
<title>Node0x55d1bf27a578&#45;&gt;Node0x55d1bf277878</title>
<path fill="none" stroke="#7fb2ff" d="M329.29,-501.19C319.95,-495.68 311.86,-488.42 306,-478.94 297.59,-465.33 297.59,-456.55 306,-442.94 313.24,-431.23 323.87,-422.92 336.07,-417.09"/>
<polygon fill="#7fb2ff" stroke="#7fb2ff" points="337.77,-420.17 345.66,-413.1 335.09,-413.71 337.77,-420.17"/>
</g>
<!-- Node0x55d1bf27a578&#45;&gt;Node0x55d1bf277378 -->
<g id="edge92" class="edge">
<title>Node0x55d1bf27a578&#45;&gt;Node0x55d1bf277378</title>
<path fill="none" stroke="#7fb2ff" d="M329.29,-501.19C319.95,-495.68 311.86,-488.42 306,-478.94 284.97,-444.91 284.97,-152.96 306,-118.94 316.15,-102.52 332.98,-92.79 351.41,-87.2"/>
<polygon fill="#7fb2ff" stroke="#7fb2ff" points="352.39,-90.56 361.17,-84.64 350.61,-83.79 352.39,-90.56"/>
</g>
<!-- Node0x55d1bf27a578&#45;&gt;Node0x55d1bf279178 -->
<g id="edge94" class="edge">
<title>Node0x55d1bf27a578&#45;&gt;Node0x55d1bf279178</title>
<path fill="none" stroke="#7fb2ff" d="M329.29,-501.19C319.95,-495.68 311.86,-488.42 306,-478.94 282.87,-441.51 282.87,-318.37 306,-280.94 316.96,-263.2 335.71,-253.28 355.87,-247.93"/>
<polygon fill="#7fb2ff" stroke="#7fb2ff" points="356.87,-251.29 365.85,-245.66 355.32,-244.47 356.87,-251.29"/>
</g>
<!-- Node0x55d1bf27a578&#45;&gt;Node0x55d1bf256308 -->
<g id="edge93" class="edge">
<title>Node0x55d1bf27a578&#45;&gt;Node0x55d1bf256308</title>
<path fill="none" stroke="#7fb2ff" d="M442.5,-496.73C442.5,-494.25 442.5,-491.76 442.5,-489.28"/>
<polygon fill="#7fb2ff" stroke="#7fb2ff" points="446,-489.08 442.5,-479.08 439,-489.08 446,-489.08"/>
</g>
<!-- Node0x55d1bf27a578&#45;&gt;Node0x55d1bf254058 -->
<g id="edge95" class="edge">
<title>Node0x55d1bf27a578&#45;&gt;Node0x55d1bf254058</title>
<path fill="none" stroke="#7fb2ff" d="M329.29,-501.19C319.95,-495.68 311.86,-488.42 306,-478.94 284.97,-444.91 284.97,-422.96 306,-388.94 314.99,-374.39 329.23,-365.09 345.18,-359.27"/>
<polygon fill="#7fb2ff" stroke="#7fb2ff" points="346.28,-362.6 354.75,-356.23 344.16,-355.93 346.28,-362.6"/>
</g>
<!-- Node0x55d1bf27a578&#45;&gt;Node0x55d1bf2545a8 -->
<g id="edge96" class="edge">
<title>Node0x55d1bf27a578&#45;&gt;Node0x55d1bf2545a8</title>
<path fill="none" stroke="#7fb2ff" d="M329.29,-501.19C319.95,-495.68 311.86,-488.42 306,-478.94 291.28,-455.12 291.28,-250.76 306,-226.94 308.87,-222.3 312.26,-218.2 316.08,-214.57"/>
<polygon fill="#7fb2ff" stroke="#7fb2ff" points="318.38,-217.21 323.91,-208.17 313.95,-211.79 318.38,-217.21"/>
</g>
<!-- Node0x55d1bf256308&#45;&gt;Node0x55d1bf26ab78 -->
<g id="edge98" class="edge">
<title>Node0x55d1bf256308&#45;&gt;Node0x55d1bf26ab78</title>
<path fill="none" stroke="#7fb2ff" d="M349.45,-465.81C329.43,-471.74 310.99,-482.16 300,-499.94 288.78,-518.09 288.78,-673.79 300,-691.94 305.88,-701.46 313.9,-708.87 323.16,-714.61"/>
<polygon fill="#7fb2ff" stroke="#7fb2ff" points="321.53,-717.7 331.98,-719.42 324.88,-711.56 321.53,-717.7"/>
</g>
<!-- Node0x55d1bf256308&#45;&gt;Node0x55d1bf277878 -->
<g id="edge99" class="edge">
<title>Node0x55d1bf256308&#45;&gt;Node0x55d1bf277878</title>
<path fill="none" stroke="#7fb2ff" d="M377.8,-442.73C371.54,-439.14 369.11,-435.56 370.51,-431.97"/>
<polygon fill="#7fb2ff" stroke="#7fb2ff" points="372.98,-434.45 377.92,-425.08 368.21,-429.33 372.98,-434.45"/>
</g>
<!-- Node0x55d1bf27a348 -->
<g id="node30" class="node">
<title>Node0x55d1bf27a348</title>
<polygon fill="none" stroke="black" points="833,-646.94 633,-646.94 633,-610.94 833,-610.94 833,-646.94"/>
<text text-anchor="middle" x="733" y="-625.24" font-family="Times,serif" font-size="14.00">{lib/libLLVMDemangle.a}</text>
</g>
<!-- Node0x55d1bf256308&#45;&gt;Node0x55d1bf27a348 -->
<g id="edge100" class="edge">
<title>Node0x55d1bf256308&#45;&gt;Node0x55d1bf27a348</title>
<path fill="none" stroke="black" d="M535.74,-472.17C544.98,-476.1 553.65,-481.24 561,-487.94 598.72,-522.3 559.4,-562.45 597,-596.94 604.73,-604.03 613.75,-609.64 623.38,-614.06"/>
<polygon fill="black" stroke="black" points="622.2,-617.36 632.78,-617.94 624.88,-610.89 622.2,-617.36"/>
</g>
<!-- Node0x55d1bf254058&#45;&gt;Node0x55d1bf26ba78 -->
<g id="edge104" class="edge">
<title>Node0x55d1bf254058&#45;&gt;Node0x55d1bf26ba78</title>
<path fill="none" stroke="#7fb2ff" d="M354.75,-349.64C335.02,-344.23 316.76,-334.35 306,-316.94 289.18,-289.72 289.18,-200.16 306,-172.94 313.8,-160.32 325.54,-151.65 338.93,-145.78"/>
<polygon fill="#7fb2ff" stroke="#7fb2ff" points="340.34,-148.99 348.43,-142.14 337.84,-142.45 340.34,-148.99"/>
</g>
<!-- Node0x55d1bf254058&#45;&gt;Node0x55d1bf277378 -->
<g id="edge101" class="edge">
<title>Node0x55d1bf254058&#45;&gt;Node0x55d1bf277378</title>
<path fill="none" stroke="#7fb2ff" d="M354.75,-349.64C335.02,-344.23 316.76,-334.35 306,-316.94 282.87,-279.51 282.87,-156.37 306,-118.94 316.15,-102.52 332.98,-92.79 351.41,-87.2"/>
<polygon fill="#7fb2ff" stroke="#7fb2ff" points="352.39,-90.56 361.17,-84.64 350.61,-83.79 352.39,-90.56"/>
</g>
<!-- Node0x55d1bf254058&#45;&gt;Node0x55d1bf279178 -->
<g id="edge102" class="edge">
<title>Node0x55d1bf254058&#45;&gt;Node0x55d1bf279178</title>
<path fill="none" stroke="#7fb2ff" d="M354.75,-349.64C335.02,-344.23 316.76,-334.35 306,-316.94 297.59,-303.33 297.59,-294.55 306,-280.94 316.96,-263.2 335.71,-253.28 355.87,-247.93"/>
<polygon fill="#7fb2ff" stroke="#7fb2ff" points="356.87,-251.29 365.85,-245.66 355.32,-244.47 356.87,-251.29"/>
</g>
<!-- Node0x55d1bf254058&#45;&gt;Node0x55d1bf256308 -->
<g id="edge103" class="edge">
<title>Node0x55d1bf254058&#45;&gt;Node0x55d1bf256308</title>
<path fill="none" stroke="#7fb2ff" d="M354.75,-356.23C335.02,-361.65 316.76,-371.53 306,-388.94 297.59,-402.55 297.59,-411.33 306,-424.94 313.96,-437.81 326.02,-446.57 339.74,-452.45"/>
<polygon fill="#7fb2ff" stroke="#7fb2ff" points="338.88,-455.86 349.47,-456.07 341.32,-449.3 338.88,-455.86"/>
</g>
<!-- Node0x55d1bf2545a8&#45;&gt;Node0x55d1bf26ab78 -->
<g id="edge105" class="edge">
<title>Node0x55d1bf2545a8&#45;&gt;Node0x55d1bf26ab78</title>
<path fill="none" stroke="#7fb2ff" d="M323.71,-206.93C314.22,-212.72 306,-220.23 300,-229.94 286.51,-251.77 286.51,-670.1 300,-691.94 305.88,-701.46 313.9,-708.87 323.16,-714.61"/>
<polygon fill="#7fb2ff" stroke="#7fb2ff" points="321.53,-717.7 331.98,-719.42 324.88,-711.56 321.53,-717.7"/>
</g>
<!-- Node0x55d1bf2545a8&#45;&gt;Node0x55d1bf26ba78 -->
<g id="edge106" class="edge">
<title>Node0x55d1bf2545a8&#45;&gt;Node0x55d1bf26ba78</title>
<path fill="none" stroke="#7fb2ff" d="M442.5,-172.73C442.5,-170.25 442.5,-167.76 442.5,-165.28"/>
<polygon fill="#7fb2ff" stroke="#7fb2ff" points="446,-165.08 442.5,-155.08 439,-165.08 446,-165.08"/>
</g>
<!-- Node0x55d1bf2545a8&#45;&gt;Node0x55d1bf277378 -->
<g id="edge107" class="edge">
<title>Node0x55d1bf2545a8&#45;&gt;Node0x55d1bf277378</title>
<path fill="none" stroke="#7fb2ff" d="M323.91,-173.71C316.84,-168.72 310.7,-162.55 306,-154.94 297.59,-141.33 297.59,-132.55 306,-118.94 316.15,-102.52 332.98,-92.79 351.41,-87.2"/>
<polygon fill="#7fb2ff" stroke="#7fb2ff" points="352.39,-90.56 361.17,-84.64 350.61,-83.79 352.39,-90.56"/>
</g>
<!-- Node0x55d1bf2545a8&#45;&gt;Node0x55d1bf256308 -->
<g id="edge108" class="edge">
<title>Node0x55d1bf2545a8&#45;&gt;Node0x55d1bf256308</title>
<path fill="none" stroke="#7fb2ff" d="M323.91,-208.17C316.84,-213.16 310.7,-219.33 306,-226.94 282.87,-264.37 282.87,-387.51 306,-424.94 313.96,-437.81 326.02,-446.57 339.74,-452.45"/>
<polygon fill="#7fb2ff" stroke="#7fb2ff" points="338.88,-455.86 349.47,-456.07 341.32,-449.3 338.88,-455.86"/>
</g>
<!-- Node0x55d1bf254a58&#45;&gt;Node0x55d1bf26ab78 -->
<g id="edge110" class="edge">
<title>Node0x55d1bf254a58&#45;&gt;Node0x55d1bf26ab78</title>
<path fill="none" stroke="black" d="M345.32,-1006.65C329.31,-1000.84 315.02,-991.53 306,-976.94 289.18,-949.72 291.66,-861.55 306,-832.94 323.91,-797.19 360.96,-770.76 391.94,-753.77"/>
<polygon fill="black" stroke="black" points="393.72,-756.79 400.92,-749.01 390.44,-750.6 393.72,-756.79"/>
</g>
<!-- Node0x55d1bf254a58&#45;&gt;Node0x55d1bf26ba78 -->
<g id="edge111" class="edge">
<title>Node0x55d1bf254a58&#45;&gt;Node0x55d1bf26ba78</title>
<path fill="none" stroke="black" d="M345.32,-1006.65C329.31,-1000.84 315.02,-991.53 306,-976.94 282.52,-938.94 282.52,-210.93 306,-172.94 313.8,-160.32 325.54,-151.65 338.93,-145.78"/>
<polygon fill="black" stroke="black" points="340.34,-148.99 348.43,-142.14 337.84,-142.45 340.34,-148.99"/>
</g>
<!-- Node0x55d1bf254a58&#45;&gt;Node0x55d1bf277378 -->
<g id="edge112" class="edge">
<title>Node0x55d1bf254a58&#45;&gt;Node0x55d1bf277378</title>
<path fill="none" stroke="black" d="M345.32,-1006.65C329.31,-1000.84 315.02,-991.53 306,-976.94 293.47,-956.66 293.47,-139.21 306,-118.94 316.15,-102.52 332.98,-92.79 351.41,-87.2"/>
<polygon fill="black" stroke="black" points="352.39,-90.56 361.17,-84.64 350.61,-83.79 352.39,-90.56"/>
</g>
<!-- Node0x55d1bf254a58&#45;&gt;Node0x55d1bf256308 -->
<g id="edge109" class="edge">
<title>Node0x55d1bf254a58&#45;&gt;Node0x55d1bf256308</title>
<path fill="none" stroke="black" d="M345.32,-1006.65C329.31,-1000.84 315.02,-991.53 306,-976.94 291.98,-954.25 291.98,-519.62 306,-496.94 313.96,-484.06 326.02,-475.31 339.74,-469.43"/>
<polygon fill="black" stroke="black" points="341.32,-472.57 349.47,-465.8 338.88,-466.01 341.32,-472.57"/>
</g>
<!-- Node0x55d1bf254a58&#45;&gt;Node0x55d1bf2545a8 -->
<g id="edge113" class="edge">
<title>Node0x55d1bf254a58&#45;&gt;Node0x55d1bf2545a8</title>
<path fill="none" stroke="black" d="M345.32,-1006.65C329.31,-1000.84 315.02,-991.53 306,-976.94 284.09,-941.49 284.09,-262.38 306,-226.94 308.87,-222.3 312.26,-218.2 316.08,-214.57"/>
<polygon fill="black" stroke="black" points="318.38,-217.21 323.91,-208.17 313.95,-211.79 318.38,-217.21"/>
</g>
<!-- Node0x55d1bf270708&#45;&gt;Node0x55d1bf279178 -->
<g id="edge114" class="edge">
<title>Node0x55d1bf270708&#45;&gt;Node0x55d1bf279178</title>
<path fill="none" stroke="#7fb2ff" d="M662.08,-702.89C637.63,-693.04 612.45,-678.15 597,-655.94 548.06,-585.58 617.46,-336.42 561,-271.94 552.37,-262.09 540.95,-255.44 528.61,-251.02"/>
<polygon fill="#7fb2ff" stroke="#7fb2ff" points="529.61,-247.66 519.02,-248.05 527.54,-254.35 529.61,-247.66"/>
</g>
<!-- Node0x55d1bf270708&#45;&gt;Node0x55d1bf256308 -->
<g id="edge115" class="edge">
<title>Node0x55d1bf270708&#45;&gt;Node0x55d1bf256308</title>
<path fill="none" stroke="#7fb2ff" d="M633.92,-712.1C620.05,-707.02 607.1,-699.61 597,-688.94 534.63,-623.01 623.59,-553.65 561,-487.94 556.2,-482.9 550.66,-478.71 544.66,-475.24"/>
<polygon fill="#7fb2ff" stroke="#7fb2ff" points="546.08,-472.03 535.57,-470.66 542.92,-478.28 546.08,-472.03"/>
</g>
<!-- Node0x55d1bf258518&#45;&gt;Node0x55d1bf26ab78 -->
<g id="edge123" class="edge">
<title>Node0x55d1bf258518&#45;&gt;Node0x55d1bf26ab78</title>
<path fill="none" stroke="#7fb2ff" d="M705.56,-209.01C673.69,-227.47 621.39,-258.65 597,-302.94 552.89,-383.06 621.05,-643.95 561,-712.94 560.85,-713.11 560.71,-713.27 560.56,-713.44"/>
<polygon fill="#7fb2ff" stroke="#7fb2ff" points="558.2,-710.85 553.41,-720.29 563.05,-715.9 558.2,-710.85"/>
</g>
<!-- Node0x55d1bf258518&#45;&gt;Node0x55d1bf26ba78 -->
<g id="edge119" class="edge">
<title>Node0x55d1bf258518&#45;&gt;Node0x55d1bf26ba78</title>
<path fill="none" stroke="#7fb2ff" d="M635.58,-172.89C607.09,-167.56 575.8,-161.7 546.89,-156.29"/>
<polygon fill="#7fb2ff" stroke="#7fb2ff" points="547.24,-152.8 536.77,-154.4 545.95,-159.68 547.24,-152.8"/>
</g>
<!-- Node0x55d1bf258518&#45;&gt;Node0x55d1bf277878 -->
<g id="edge116" class="edge">
<title>Node0x55d1bf258518&#45;&gt;Node0x55d1bf277878</title>
<path fill="none" stroke="#7fb2ff" d="M631.97,-201.09C618.94,-206.08 606.76,-213.11 597,-222.94 546.57,-273.74 611.61,-329.31 561,-379.94 557.17,-383.77 552.91,-387.11 548.35,-390"/>
<polygon fill="#7fb2ff" stroke="#7fb2ff" points="546.29,-387.14 539.24,-395.05 549.68,-393.27 546.29,-387.14"/>
</g>
<!-- Node0x55d1bf258518&#45;&gt;Node0x55d1bf277378 -->
<g id="edge117" class="edge">
<title>Node0x55d1bf258518&#45;&gt;Node0x55d1bf277378</title>
<path fill="none" stroke="#7fb2ff" d="M631.82,-180.23C619.48,-176.27 607.53,-170.99 597,-163.94 573.03,-147.89 584.74,-126.33 561,-109.94 552.58,-104.12 543.09,-99.55 533.25,-95.95"/>
<polygon fill="#7fb2ff" stroke="#7fb2ff" points="534.33,-92.61 523.73,-92.78 532.12,-99.26 534.33,-92.61"/>
</g>
<!-- Node0x55d1bf258518&#45;&gt;Node0x55d1bf279178 -->
<g id="edge120" class="edge">
<title>Node0x55d1bf258518&#45;&gt;Node0x55d1bf279178</title>
<path fill="none" stroke="#7fb2ff" d="M635.76,-208.95C601.4,-215.38 562.94,-222.58 529.51,-228.84"/>
<polygon fill="#7fb2ff" stroke="#7fb2ff" points="528.49,-225.47 519.3,-230.75 529.77,-232.35 528.49,-225.47"/>
</g>
<!-- Node0x55d1bf258518&#45;&gt;Node0x55d1bf27a578 -->
<g id="edge121" class="edge">
<title>Node0x55d1bf258518&#45;&gt;Node0x55d1bf27a578</title>
<path fill="none" stroke="#7fb2ff" d="M695.19,-209.05C663.95,-226.42 620.55,-255.64 597,-293.94 551.07,-368.64 621.68,-424.63 561,-487.94 560.2,-488.77 559.39,-489.58 558.55,-490.36"/>
<polygon fill="#7fb2ff" stroke="#7fb2ff" points="556.13,-487.82 550.56,-496.83 560.53,-493.26 556.13,-487.82"/>
</g>
<!-- Node0x55d1bf258518&#45;&gt;Node0x55d1bf256308 -->
<g id="edge118" class="edge">
<title>Node0x55d1bf258518&#45;&gt;Node0x55d1bf256308</title>
<path fill="none" stroke="#7fb2ff" d="M696.73,-208.94C665.84,-226.51 622.08,-256.1 597,-293.94 561.5,-347.49 607.01,-389.1 561,-433.94 556.12,-438.7 550.57,-442.68 544.61,-446.02"/>
<polygon fill="#7fb2ff" stroke="#7fb2ff" points="543.04,-442.89 535.62,-450.44 546.13,-449.17 543.04,-442.89"/>
</g>
<!-- Node0x55d1bf258518&#45;&gt;Node0x55d1bf254058 -->
<g id="edge122" class="edge">
<title>Node0x55d1bf258518&#45;&gt;Node0x55d1bf254058</title>
<path fill="none" stroke="#7fb2ff" d="M631.9,-202.48C619.11,-207.29 607.02,-213.91 597,-222.94 560.98,-255.41 597.13,-293.59 561,-325.94 554.61,-331.66 547.26,-336.24 539.41,-339.9"/>
<polygon fill="#7fb2ff" stroke="#7fb2ff" points="537.91,-336.73 530.01,-343.78 540.58,-343.2 537.91,-336.73"/>
</g>
<!-- Node0x55d1bf258518&#45;&gt;Node0x55d1bf2545a8 -->
<g id="edge124" class="edge">
<title>Node0x55d1bf258518&#45;&gt;Node0x55d1bf2545a8</title>
<path fill="none" stroke="#7fb2ff" d="M631.69,-190.94C612.25,-190.94 591.63,-190.94 571.45,-190.94"/>
<polygon fill="#7fb2ff" stroke="#7fb2ff" points="571.26,-187.44 561.26,-190.94 571.26,-194.44 571.26,-187.44"/>
</g>
<!-- Node0x55d1bf2565d8&#45;&gt;Node0x55d1bf277378 -->
<g id="edge125" class="edge">
<title>Node0x55d1bf2565d8&#45;&gt;Node0x55d1bf277378</title>
<path fill="none" stroke="#7fb2ff" d="M636.36,-533.69C621.4,-529.04 607.46,-521.59 597,-509.94 537.38,-443.53 619.67,-177.19 561,-109.94 553.44,-101.28 543.72,-95.09 533.11,-90.71"/>
<polygon fill="#7fb2ff" stroke="#7fb2ff" points="534.19,-87.38 523.59,-87.32 531.84,-93.97 534.19,-87.38"/>
</g>
<!-- Node0x55d1bf2565d8&#45;&gt;Node0x55d1bf256308 -->
<g id="edge126" class="edge">
<title>Node0x55d1bf2565d8&#45;&gt;Node0x55d1bf256308</title>
<path fill="none" stroke="#7fb2ff" d="M636.38,-522.18C622.94,-518.85 609.46,-514.82 597,-509.94 579.54,-503.11 578.36,-495.02 561,-487.94 555.85,-485.84 550.51,-483.88 545.06,-482.07"/>
<polygon fill="#7fb2ff" stroke="#7fb2ff" points="545.76,-478.62 535.17,-478.94 543.65,-485.29 545.76,-478.62"/>
</g>
<!-- Node0x55d1bf2711a8&#45;&gt;Node0x55d1bf277378 -->
<g id="edge127" class="edge">
<title>Node0x55d1bf2711a8&#45;&gt;Node0x55d1bf277378</title>
<path fill="none" stroke="#7fb2ff" d="M635.68,-118.91C602.8,-112.75 566.16,-105.9 533.77,-99.83"/>
<polygon fill="#7fb2ff" stroke="#7fb2ff" points="534.34,-96.38 523.86,-97.98 533.05,-103.26 534.34,-96.38"/>
</g>
<!-- Node0x55d1bf2711a8&#45;&gt;Node0x55d1bf256308 -->
<g id="edge128" class="edge">
<title>Node0x55d1bf2711a8&#45;&gt;Node0x55d1bf256308</title>
<path fill="none" stroke="#7fb2ff" d="M628.3,-143.51C616.52,-148.12 605.66,-154.7 597,-163.94 514.22,-252.27 642.52,-344.44 561,-433.94 556.27,-439.14 550.75,-443.44 544.74,-446.98"/>
<polygon fill="#7fb2ff" stroke="#7fb2ff" points="542.92,-443.98 535.61,-451.66 546.11,-450.21 542.92,-443.98"/>
</g>
<!-- Node0x55d1bf254f58&#45;&gt;Node0x55d1bf256308 -->
<g id="edge129" class="edge">
<title>Node0x55d1bf254f58&#45;&gt;Node0x55d1bf256308</title>
<path fill="none" stroke="#7fb2ff" d="M613.7,-794.93C607.55,-791.04 601.9,-786.41 597,-780.94 509.49,-683.18 648.84,-585.39 561,-487.94 556.29,-482.72 550.8,-478.4 544.8,-474.84"/>
<polygon fill="#7fb2ff" stroke="#7fb2ff" points="546.19,-471.62 535.69,-470.15 542.98,-477.84 546.19,-471.62"/>
</g>
<!-- Node0x55d1bf268c88&#45;&gt;Node0x55d1bf256308 -->
<g id="edge130" class="edge">
<title>Node0x55d1bf268c88&#45;&gt;Node0x55d1bf256308</title>
<path fill="none" stroke="#7fb2ff" d="M619.32,-441.44C595.05,-444.13 569.53,-446.96 545.68,-449.6"/>
<polygon fill="#7fb2ff" stroke="#7fb2ff" points="545.13,-446.14 535.58,-450.73 545.9,-453.1 545.13,-446.14"/>
</g>
<!-- Node0x55d1bf278868&#45;&gt;Node0x55d1bf277878 -->
<g id="edge132" class="edge">
<title>Node0x55d1bf278868&#45;&gt;Node0x55d1bf277878</title>
<path fill="none" stroke="#7fb2ff" d="M637.08,-385.47C608.96,-388.59 578,-392.02 549.24,-395.21"/>
<polygon fill="#7fb2ff" stroke="#7fb2ff" points="548.72,-391.75 539.17,-396.33 549.49,-398.7 548.72,-391.75"/>
</g>
<!-- Node0x55d1bf278868&#45;&gt;Node0x55d1bf256308 -->
<g id="edge131" class="edge">
<title>Node0x55d1bf278868&#45;&gt;Node0x55d1bf256308</title>
<path fill="none" stroke="#7fb2ff" d="M637.28,-387.22C623.36,-390.91 609.52,-395.71 597,-401.94 577.84,-411.48 580.03,-424.12 561,-433.94 555.88,-436.58 550.49,-438.97 544.97,-441.12"/>
<polygon fill="#7fb2ff" stroke="#7fb2ff" points="543.76,-437.84 535.56,-444.54 546.15,-444.42 543.76,-437.84"/>
</g>
<!-- Node0x55d1bf268738 -->
<g id="node31" class="node">
<title>Node0x55d1bf268738</title>
<polygon fill="#7fb2ff" stroke="black" points="1154,-378.94 905,-378.94 905,-342.94 1154,-342.94 1154,-378.94"/>
<text text-anchor="middle" x="1029.5" y="-357.24" font-family="Times,serif" font-size="14.00">{lib/libLLVMBitstreamReader.a}</text>
</g>
<!-- Node0x55d1bf278868&#45;&gt;Node0x55d1bf268738 -->
<g id="edge133" class="edge">
<title>Node0x55d1bf278868&#45;&gt;Node0x55d1bf268738</title>
<path fill="none" stroke="#7fb2ff" d="M828.8,-370.43C849.8,-369.43 872.43,-368.36 894.66,-367.3"/>
<polygon fill="#7fb2ff" stroke="#7fb2ff" points="895.01,-370.79 904.83,-366.82 894.68,-363.8 895.01,-370.79"/>
</g>
<!-- Node0x55d1bf257b18&#45;&gt;Node0x55d1bf277878 -->
<g id="edge137" class="edge">
<title>Node0x55d1bf257b18&#45;&gt;Node0x55d1bf277878</title>
<path fill="none" stroke="#7fb2ff" d="M623.8,-464.85C614.61,-462.25 605.57,-459.29 597,-455.94 579.54,-449.11 578.36,-441.02 561,-433.94 555.85,-431.84 550.51,-429.88 545.06,-428.07"/>
<polygon fill="#7fb2ff" stroke="#7fb2ff" points="545.76,-424.62 535.17,-424.94 543.65,-431.29 545.76,-424.62"/>
</g>
<!-- Node0x55d1bf257b18&#45;&gt;Node0x55d1bf279178 -->
<g id="edge134" class="edge">
<title>Node0x55d1bf257b18&#45;&gt;Node0x55d1bf279178</title>
<path fill="none" stroke="#7fb2ff" d="M607.65,-464.84C603.86,-462.2 600.29,-459.24 597,-455.94 538.2,-396.89 618.95,-331.81 561,-271.94 552.16,-262.8 540.89,-256.48 528.85,-252.15"/>
<polygon fill="#7fb2ff" stroke="#7fb2ff" points="529.65,-248.74 519.06,-249.09 527.57,-255.42 529.65,-248.74"/>
</g>
<!-- Node0x55d1bf257b18&#45;&gt;Node0x55d1bf256308 -->
<g id="edge135" class="edge">
<title>Node0x55d1bf257b18&#45;&gt;Node0x55d1bf256308</title>
<path fill="none" stroke="#7fb2ff" d="M605.29,-473.28C585.32,-471.75 564.89,-470.2 545.57,-468.72"/>
<polygon fill="#7fb2ff" stroke="#7fb2ff" points="545.81,-465.23 535.58,-467.96 545.28,-472.21 545.81,-465.23"/>
</g>
<!-- Node0x55d1bf257b18&#45;&gt;Node0x55d1bf268c88 -->
<g id="edge136" class="edge">
<title>Node0x55d1bf257b18&#45;&gt;Node0x55d1bf268c88</title>
<path fill="none" stroke="#7fb2ff" d="M733,-464.73C733,-462.25 733,-459.76 733,-457.28"/>
<polygon fill="#7fb2ff" stroke="#7fb2ff" points="736.5,-457.08 733,-447.08 729.5,-457.08 736.5,-457.08"/>
</g>
<!-- Node0x55d1bf2701b8 -->
<g id="node32" class="node">
<title>Node0x55d1bf2701b8</title>
<polygon fill="#7fb2ff" stroke="black" points="1117,-459.94 942,-459.94 942,-423.94 1117,-423.94 1117,-459.94"/>
<text text-anchor="middle" x="1029.5" y="-438.24" font-family="Times,serif" font-size="14.00">{lib/libLLVMObject.a}</text>
</g>
<!-- Node0x55d1bf257b18&#45;&gt;Node0x55d1bf2701b8 -->
<g id="edge138" class="edge">
<title>Node0x55d1bf257b18&#45;&gt;Node0x55d1bf2701b8</title>
<path fill="none" stroke="#7fb2ff" d="M860.6,-465.31C884.5,-461.99 909.15,-458.55 931.94,-455.38"/>
<polygon fill="#7fb2ff" stroke="#7fb2ff" points="932.51,-458.84 941.93,-453.99 931.54,-451.9 932.51,-458.84"/>
</g>
<!-- Node0x55d1bf26fc68&#45;&gt;Node0x55d1bf26ab78 -->
<g id="edge140" class="edge">
<title>Node0x55d1bf26fc68&#45;&gt;Node0x55d1bf26ab78</title>
<path fill="none" stroke="#7fb2ff" d="M621.41,-848.84C613.02,-846.25 604.79,-843.3 597,-839.94 548.45,-818.98 499.96,-780.98 470.84,-755.85"/>
<polygon fill="#7fb2ff" stroke="#7fb2ff" points="472.99,-753.07 463.16,-749.12 468.38,-758.34 472.99,-753.07"/>
</g>
<!-- Node0x55d1bf26fc68&#45;&gt;Node0x55d1bf256308 -->
<g id="edge139" class="edge">
<title>Node0x55d1bf26fc68&#45;&gt;Node0x55d1bf256308</title>
<path fill="none" stroke="#7fb2ff" d="M606.69,-848.79C603.22,-846.15 599.97,-843.21 597,-839.94 491.23,-723.56 665.1,-605.81 561,-487.94 556.3,-482.62 550.78,-478.23 544.74,-474.62"/>
<polygon fill="#7fb2ff" stroke="#7fb2ff" points="546.05,-471.36 535.56,-469.88 542.84,-477.58 546.05,-471.36"/>
</g>
<!-- Node0x55d1bf26bf78&#45;&gt;Node0x55d1bf277378 -->
<g id="edge141" class="edge">
<title>Node0x55d1bf26bf78&#45;&gt;Node0x55d1bf277378</title>
<path fill="none" stroke="black" d="M660.45,-940.85C636.27,-931.03 611.7,-916.18 597,-893.94 548.92,-821.19 616.87,-176.89 561,-109.94 553.58,-101.05 543.89,-94.74 533.25,-90.32"/>
<polygon fill="black" stroke="black" points="534.28,-86.97 523.68,-86.89 531.92,-93.56 534.28,-86.97"/>
</g>
<!-- Node0x55d1bf26bf78&#45;&gt;Node0x55d1bf256308 -->
<g id="edge142" class="edge">
<title>Node0x55d1bf26bf78&#45;&gt;Node0x55d1bf256308</title>
<path fill="none" stroke="black" d="M662.02,-940.93C637.56,-931.08 612.39,-916.19 597,-893.94 545.46,-819.45 620.5,-556.23 561,-487.94 556.33,-482.58 550.84,-478.17 544.82,-474.55"/>
<polygon fill="black" stroke="black" points="546.15,-471.3 535.66,-469.79 542.92,-477.51 546.15,-471.3"/>
</g>
<!-- Node0x55d1bf26bf78&#45;&gt;Node0x55d1bf268c88 -->
<g id="edge143" class="edge">
<title>Node0x55d1bf26bf78&#45;&gt;Node0x55d1bf268c88</title>
<path fill="none" stroke="black" d="M630.82,-954.03C609.8,-947.69 590.56,-936.65 579,-917.94 565.77,-896.53 565.77,-486.35 579,-464.94 586.55,-452.72 597.44,-443.99 610,-437.84"/>
<polygon fill="black" stroke="black" points="611.6,-440.96 619.41,-433.8 608.84,-434.53 611.6,-440.96"/>
</g>
<!-- Node0x55d1bf269b88&#45;&gt;Node0x55d1bf277378 -->
<g id="edge144" class="edge">
<title>Node0x55d1bf269b88&#45;&gt;Node0x55d1bf277378</title>
<path fill="none" stroke="#7fb2ff" d="M697.95,-302.85C667.45,-285.03 623.56,-255.12 597,-217.94 567.59,-176.77 598.45,-143.96 561,-109.94 552.99,-102.66 543.43,-97.23 533.27,-93.18"/>
<polygon fill="#7fb2ff" stroke="#7fb2ff" points="534.39,-89.87 523.79,-89.84 532.06,-96.47 534.39,-89.87"/>
</g>
<!-- Node0x55d1bf269b88&#45;&gt;Node0x55d1bf256308 -->
<g id="edge145" class="edge">
<title>Node0x55d1bf269b88&#45;&gt;Node0x55d1bf256308</title>
<path fill="none" stroke="#7fb2ff" d="M633.21,-328.88C620.08,-333.18 607.54,-339.31 597,-347.94 564.93,-374.18 592.69,-407.24 561,-433.94 556.06,-438.1 550.61,-441.65 544.84,-444.67"/>
<polygon fill="#7fb2ff" stroke="#7fb2ff" points="543.12,-441.61 535.53,-449.01 546.07,-447.96 543.12,-441.61"/>
</g>
<!-- Node0x55d1bf269b88&#45;&gt;Node0x55d1bf268738 -->
<g id="edge146" class="edge">
<title>Node0x55d1bf269b88&#45;&gt;Node0x55d1bf268738</title>
<path fill="none" stroke="#7fb2ff" d="M832.88,-334.37C852.7,-337.06 873.83,-339.93 894.61,-342.75"/>
<polygon fill="#7fb2ff" stroke="#7fb2ff" points="894.39,-346.25 904.77,-344.13 895.33,-339.32 894.39,-346.25"/>
</g>
<!-- Node0x55d1bf268738&#45;&gt;Node0x55d1bf277878 -->
<g id="edge147" class="edge">
<title>Node0x55d1bf268738&#45;&gt;Node0x55d1bf277878</title>
<path fill="none" stroke="#7fb2ff" d="M997.71,-342.86C922.34,-301.22 725.44,-208.47 597,-293.94 562.5,-316.89 592.69,-353.24 561,-379.94 557,-383.31 552.66,-386.28 548.09,-388.89"/>
<polygon fill="#7fb2ff" stroke="#7fb2ff" points="546.36,-385.84 539.04,-393.49 549.54,-392.08 546.36,-385.84"/>
</g>
<!-- Node0x55d1bf268738&#45;&gt;Node0x55d1bf256308 -->
<g id="edge148" class="edge">
<title>Node0x55d1bf268738&#45;&gt;Node0x55d1bf256308</title>
<path fill="none" stroke="#7fb2ff" d="M954.92,-379.06C936.02,-387.1 917.52,-398.59 905,-414.94 839.16,-500.93 951.04,-585.24 869,-655.94 823.21,-695.4 644.01,-693.94 597,-655.94 537.62,-607.93 614.6,-542.33 561,-487.94 556.16,-483.03 550.63,-478.94 544.65,-475.53"/>
<polygon fill="#7fb2ff" stroke="#7fb2ff" points="546.12,-472.35 535.61,-471.02 543,-478.62 546.12,-472.35"/>
</g>
<!-- Node0x55d1bf2701b8&#45;&gt;Node0x55d1bf277378 -->
<g id="edge152" class="edge">
<title>Node0x55d1bf2701b8&#45;&gt;Node0x55d1bf277378</title>
<path fill="none" stroke="#7fb2ff" d="M953.93,-423.81C935.25,-415.78 917.11,-404.3 905,-387.94 863.74,-332.19 920.79,-124.06 869,-77.94 766.4,13.44 588.31,-30.59 498.56,-61.51"/>
<polygon fill="#7fb2ff" stroke="#7fb2ff" points="497.39,-58.21 489.11,-64.83 499.71,-64.82 497.39,-58.21"/>
</g>
<!-- Node0x55d1bf2701b8&#45;&gt;Node0x55d1bf279178 -->
<g id="edge151" class="edge">
<title>Node0x55d1bf2701b8&#45;&gt;Node0x55d1bf279178</title>
<path fill="none" stroke="#7fb2ff" d="M954.39,-423.84C935.6,-415.81 917.29,-404.32 905,-387.94 830.23,-288.28 962.58,-192.18 869,-109.94 823.6,-70.04 646.04,-74.6 597,-109.94 555.95,-139.52 598.45,-183.92 561,-217.94 551.83,-226.27 540.62,-232.19 528.81,-236.37"/>
<polygon fill="#7fb2ff" stroke="#7fb2ff" points="527.73,-233.04 519.23,-239.36 529.82,-239.72 527.73,-233.04"/>
</g>
<!-- Node0x55d1bf2701b8&#45;&gt;Node0x55d1bf256308 -->
<g id="edge149" class="edge">
<title>Node0x55d1bf2701b8&#45;&gt;Node0x55d1bf256308</title>
<path fill="none" stroke="#7fb2ff" d="M1012.6,-460.11C986.18,-488.75 930.09,-543.25 869,-563.94 811.75,-583.32 648.08,-596.26 597,-563.94 565.42,-543.95 590.13,-511.36 561,-487.94 556.02,-483.94 550.56,-480.5 544.8,-477.56"/>
<polygon fill="#7fb2ff" stroke="#7fb2ff" points="546.09,-474.3 535.54,-473.34 543.18,-480.67 546.09,-474.3"/>
</g>
<!-- Node0x55d1bf2701b8&#45;&gt;Node0x55d1bf270708 -->
<g id="edge154" class="edge">
<title>Node0x55d1bf2701b8&#45;&gt;Node0x55d1bf270708</title>
<path fill="none" stroke="#7fb2ff" d="M1022.21,-460.25C1005.33,-506.49 954.47,-628.56 869,-688.94 860.65,-694.84 851.36,-699.66 841.67,-703.6"/>
<polygon fill="#7fb2ff" stroke="#7fb2ff" points="840.41,-700.33 832.27,-707.11 842.87,-706.89 840.41,-700.33"/>
</g>
<!-- Node0x55d1bf2701b8&#45;&gt;Node0x55d1bf268c88 -->
<g id="edge150" class="edge">
<title>Node0x55d1bf2701b8&#45;&gt;Node0x55d1bf268c88</title>
<path fill="none" stroke="#7fb2ff" d="M941.61,-438.1C914.98,-436.93 885.17,-435.61 856.63,-434.35"/>
<polygon fill="#7fb2ff" stroke="#7fb2ff" points="856.74,-430.85 846.6,-433.91 856.43,-437.85 856.74,-430.85"/>
</g>
<!-- Node0x55d1bf2701b8&#45;&gt;Node0x55d1bf269b88 -->
<g id="edge153" class="edge">
<title>Node0x55d1bf2701b8&#45;&gt;Node0x55d1bf269b88</title>
<path fill="none" stroke="#7fb2ff" d="M973.87,-423.86C951.38,-414.98 925.78,-402.93 905,-387.94 885.61,-373.94 889.78,-359.77 869,-347.94 860.68,-343.2 851.65,-339.28 842.34,-336.04"/>
<polygon fill="#7fb2ff" stroke="#7fb2ff" points="843.16,-332.63 832.56,-332.91 841.02,-339.29 843.16,-332.63"/>
</g>
<!-- Node0x55d1bf26a0d8 -->
<g id="node33" class="node">
<title>Node0x55d1bf26a0d8</title>
<polygon fill="#7fb2ff" stroke="black" points="1374,-621.94 1190,-621.94 1190,-585.94 1374,-585.94 1374,-621.94"/>
<text text-anchor="middle" x="1282" y="-600.24" font-family="Times,serif" font-size="14.00">{lib/libLLVMTextAPI.a}</text>
</g>
<!-- Node0x55d1bf2701b8&#45;&gt;Node0x55d1bf26a0d8 -->
<g id="edge155" class="edge">
<title>Node0x55d1bf2701b8&#45;&gt;Node0x55d1bf26a0d8</title>
<path fill="none" stroke="#7fb2ff" d="M1058.75,-460.21C1104.25,-489.64 1193.78,-547.53 1244.21,-580.15"/>
<polygon fill="#7fb2ff" stroke="#7fb2ff" points="1242.56,-583.24 1252.85,-585.74 1246.36,-577.37 1242.56,-583.24"/>
</g>
<!-- Node0x55d1bf26a0d8&#45;&gt;Node0x55d1bf26ab78 -->
<g id="edge158" class="edge">
<title>Node0x55d1bf26a0d8&#45;&gt;Node0x55d1bf26ab78</title>
<path fill="none" stroke="#7fb2ff" d="M1272.44,-622.11C1254.95,-657.42 1211.83,-735.78 1154,-780.94 1046.6,-864.8 1002.84,-868.37 869,-893.94 750.26,-916.62 700.19,-956.91 597,-893.94 567.14,-875.72 583.22,-850.96 561,-823.94 538.39,-796.44 506.37,-771.76 481.46,-754.75"/>
<polygon fill="#7fb2ff" stroke="#7fb2ff" points="483.23,-751.72 472.98,-749.06 479.34,-757.53 483.23,-751.72"/>
</g>
<!-- Node0x55d1bf26a0d8&#45;&gt;Node0x55d1bf277878 -->
<g id="edge157" class="edge">
<title>Node0x55d1bf26a0d8&#45;&gt;Node0x55d1bf277878</title>
<path fill="none" stroke="#7fb2ff" d="M1277.84,-585.63C1268.45,-536.89 1236.07,-402.95 1154,-333.94 1053.48,-249.42 999.16,-273.43 869,-255.94 749.19,-239.84 693.67,-183.35 597,-255.94 551.11,-290.4 602.71,-340.53 561,-379.94 557.11,-383.62 552.82,-386.83 548.25,-389.63"/>
<polygon fill="#7fb2ff" stroke="#7fb2ff" points="546.3,-386.71 539.15,-394.54 549.62,-392.87 546.3,-386.71"/>
</g>
<!-- Node0x55d1bf26a0d8&#45;&gt;Node0x55d1bf256308 -->
<g id="edge156" class="edge">
<title>Node0x55d1bf26a0d8&#45;&gt;Node0x55d1bf256308</title>
<path fill="none" stroke="#7fb2ff" d="M1243.24,-622C1172.05,-654.95 1012.24,-723.63 869,-747.94 809.41,-758.05 642.58,-787.64 597,-747.94 509.04,-671.31 639.77,-573.99 561,-487.94 556.25,-482.75 550.73,-478.46 544.71,-474.92"/>
<polygon fill="#7fb2ff" stroke="#7fb2ff" points="546.07,-471.69 535.58,-470.25 542.89,-477.92 546.07,-471.69"/>
</g>
</g>
</svg>
