<?xml version="1.0" encoding="UTF-8" standalone="no"?>
<!DOCTYPE svg PUBLIC "-//W3C//DTD SVG 1.1//EN"
 "http://www.w3.org/Graphics/SVG/1.1/DTD/svg11.dtd">
<!-- Generated by graphviz version 2.43.0 (0)
 -->
<!-- Title: bin/llvm&#45;symbolizer_lib/libLLVMDebugInfoCodeView.a Pages: 1 -->
<svg width="3596pt" height="604pt"
 viewBox="0.00 0.00 3596.00 603.94" xmlns="http://www.w3.org/2000/svg" xmlns:xlink="http://www.w3.org/1999/xlink">
<g id="graph0" class="graph" transform="scale(1 1) rotate(0) translate(4 599.94)">
<title>bin/llvm&#45;symbolizer_lib/libLLVMDebugInfoCodeView.a</title>
<polygon fill="white" stroke="transparent" points="-4,4 -4,-599.94 3592,-599.94 3592,4 -4,4"/>
<text text-anchor="middle" x="1794" y="-7.8" font-family="Times,serif" font-size="14.00">bin/llvm&#45;symbolizer_lib/libLLVMDebugInfoCodeView.a</text>
<!-- Node0x55c0c1c7a9b8 -->
<g id="node1" class="node">
<title>Node0x55c0c1c7a9b8</title>
<polygon fill="none" stroke="black" points="3077.5,-487.94 2589.5,-487.94 2589.5,-451.94 3077.5,-451.94 3077.5,-487.94"/>
<text text-anchor="middle" x="2833.5" y="-466.24" font-family="Times,serif" font-size="14.00">{lib/libLLVMDebugInfoCodeView.a(DebugLinesSubsection.cpp.o)}</text>
</g>
<!-- Node0x55c0c1c78fc8 -->
<g id="node2" class="node">
<title>Node0x55c0c1c78fc8</title>
<polygon fill="none" stroke="black" points="3588,-541.94 3138,-541.94 3138,-505.94 3588,-505.94 3588,-541.94"/>
<text text-anchor="middle" x="3363" y="-520.24" font-family="Times,serif" font-size="14.00">{lib/libLLVMDebugInfoCodeView.a(DebugSubsection.cpp.o)}</text>
</g>
<!-- Node0x55c0c1c7a9b8&#45;&gt;Node0x55c0c1c78fc8 -->
<g id="edge1" class="edge">
<title>Node0x55c0c1c7a9b8&#45;&gt;Node0x55c0c1c78fc8</title>
<path fill="none" stroke="black" d="M3013.65,-487.95C3043.17,-490.94 3073.44,-494.01 3102,-496.94 3126.91,-499.49 3153.16,-502.19 3179.01,-504.87"/>
<polygon fill="black" stroke="black" points="3178.98,-508.38 3189.29,-505.93 3179.7,-501.42 3178.98,-508.38"/>
</g>
<!-- Node0x55c0c1c801d8 -->
<g id="node3" class="node">
<title>Node0x55c0c1c801d8</title>
<polygon fill="none" stroke="black" points="3579.5,-311.94 3146.5,-311.94 3146.5,-275.94 3579.5,-275.94 3579.5,-311.94"/>
<text text-anchor="middle" x="3363" y="-290.24" font-family="Times,serif" font-size="14.00">{lib/libLLVMDebugInfoCodeView.a(CodeViewError.cpp.o)}</text>
</g>
<!-- Node0x55c0c1c7a9b8&#45;&gt;Node0x55c0c1c801d8 -->
<g id="edge2" class="edge">
<title>Node0x55c0c1c7a9b8&#45;&gt;Node0x55c0c1c801d8</title>
<path fill="none" stroke="black" d="M3048.56,-451.88C3066.83,-448.07 3084.86,-443.47 3102,-437.94 3189.6,-409.64 3281.37,-350.86 3328.96,-317.81"/>
<polygon fill="black" stroke="black" points="3331.14,-320.56 3337.32,-311.96 3327.12,-314.83 3331.14,-320.56"/>
</g>
<!-- Node0x55c0c1c796f8 -->
<g id="node4" class="node">
<title>Node0x55c0c1c796f8</title>
<polygon fill="none" stroke="black" points="515.5,-342.94 15.5,-342.94 15.5,-306.94 515.5,-306.94 515.5,-342.94"/>
<text text-anchor="middle" x="265.5" y="-321.24" font-family="Times,serif" font-size="14.00">{lib/libLLVMDebugInfoCodeView.a(DebugSubsectionRecord.cpp.o)}</text>
</g>
<!-- Node0x55c0c1c7d398 -->
<g id="node5" class="node">
<title>Node0x55c0c1c7d398</title>
<polygon fill="none" stroke="black" points="3066,-215.94 2601,-215.94 2601,-179.94 3066,-179.94 3066,-215.94"/>
<text text-anchor="middle" x="2833.5" y="-194.24" font-family="Times,serif" font-size="14.00">{lib/libLLVMDebugInfoCodeView.a(RecordSerialization.cpp.o)}</text>
</g>
<!-- Node0x55c0c1c7d398&#45;&gt;Node0x55c0c1c801d8 -->
<g id="edge3" class="edge">
<title>Node0x55c0c1c7d398&#45;&gt;Node0x55c0c1c801d8</title>
<path fill="none" stroke="black" d="M2966.41,-215.96C3009.71,-222.33 3058,-229.92 3102,-237.94 3159.81,-248.48 3224.4,-262.38 3274.74,-273.69"/>
<polygon fill="black" stroke="black" points="3274.09,-277.13 3284.61,-275.92 3275.63,-270.3 3274.09,-277.13"/>
</g>
<!-- Node0x55c0c1c7bb88 -->
<g id="node6" class="node">
<title>Node0x55c0c1c7bb88</title>
<polygon fill="none" stroke="black" points="2032,-119.94 1541,-119.94 1541,-83.94 2032,-83.94 2032,-119.94"/>
<text text-anchor="middle" x="1786.5" y="-98.24" font-family="Times,serif" font-size="14.00">{lib/libLLVMDebugInfoCodeView.a(SymbolRecordMapping.cpp.o)}</text>
</g>
<!-- Node0x55c0c1c7bb88&#45;&gt;Node0x55c0c1c801d8 -->
<g id="edge5" class="edge">
<title>Node0x55c0c1c7bb88&#45;&gt;Node0x55c0c1c801d8</title>
<path fill="none" stroke="black" d="M1911.78,-83.89C2149.02,-53.98 2680.39,-9.04 3102,-133.94 3195.05,-161.5 3288,-231.49 3333.4,-269.11"/>
<polygon fill="black" stroke="black" points="3331.39,-272 3341.31,-275.74 3335.89,-266.64 3331.39,-272"/>
</g>
<!-- Node0x55c0c1c7e388 -->
<g id="node7" class="node">
<title>Node0x55c0c1c7e388</title>
<polygon fill="none" stroke="black" points="2529,-211.94 2068,-211.94 2068,-175.94 2529,-175.94 2529,-211.94"/>
<text text-anchor="middle" x="2298.5" y="-190.24" font-family="Times,serif" font-size="14.00">{lib/libLLVMDebugInfoCodeView.a(CodeViewRecordIO.cpp.o)}</text>
</g>
<!-- Node0x55c0c1c7bb88&#45;&gt;Node0x55c0c1c7e388 -->
<g id="edge4" class="edge">
<title>Node0x55c0c1c7bb88&#45;&gt;Node0x55c0c1c7e388</title>
<path fill="none" stroke="black" d="M1887.35,-119.95C1973.72,-135.53 2098.39,-158.02 2187.58,-174.11"/>
<polygon fill="black" stroke="black" points="2187,-177.56 2197.46,-175.89 2188.24,-170.67 2187,-177.56"/>
</g>
<!-- Node0x55c0c1c7e388&#45;&gt;Node0x55c0c1c801d8 -->
<g id="edge25" class="edge">
<title>Node0x55c0c1c7e388&#45;&gt;Node0x55c0c1c801d8</title>
<path fill="none" stroke="black" d="M2452.07,-211.94C2504.24,-218.06 2552.65,-223.68 2565,-224.94 2757.33,-244.49 2976.13,-263.18 3135.76,-276.16"/>
<polygon fill="black" stroke="black" points="3135.94,-279.69 3146.19,-277.01 3136.51,-272.71 3135.94,-279.69"/>
</g>
<!-- Node0x55c0c1c7e388&#45;&gt;Node0x55c0c1c7d398 -->
<g id="edge24" class="edge">
<title>Node0x55c0c1c7e388&#45;&gt;Node0x55c0c1c7d398</title>
<path fill="none" stroke="black" d="M2529.02,-195.66C2549.49,-195.81 2570.27,-195.97 2590.84,-196.12"/>
<polygon fill="black" stroke="black" points="2590.89,-199.63 2600.92,-196.2 2590.95,-192.63 2590.89,-199.63"/>
</g>
<!-- Node0x55c0c1c7bbd8 -->
<g id="node8" class="node">
<title>Node0x55c0c1c7bbd8</title>
<polygon fill="none" stroke="black" points="531,-396.94 0,-396.94 0,-360.94 531,-360.94 531,-396.94"/>
<text text-anchor="middle" x="265.5" y="-375.24" font-family="Times,serif" font-size="14.00">{lib/libLLVMDebugInfoCodeView.a(DebugChecksumsSubsection.cpp.o)}</text>
</g>
<!-- Node0x55c0c1c81e48 -->
<g id="node9" class="node">
<title>Node0x55c0c1c81e48</title>
<polygon fill="none" stroke="black" points="1495.5,-234.94 1029.5,-234.94 1029.5,-198.94 1495.5,-198.94 1495.5,-234.94"/>
<text text-anchor="middle" x="1262.5" y="-213.24" font-family="Times,serif" font-size="14.00">{lib/libLLVMDebugInfoCodeView.a(TypeRecordHelpers.cpp.o)}</text>
</g>
<!-- Node0x55c0c1c82208 -->
<g id="node10" class="node">
<title>Node0x55c0c1c82208</title>
<polygon fill="none" stroke="black" points="2020,-234.94 1553,-234.94 1553,-198.94 2020,-198.94 2020,-234.94"/>
<text text-anchor="middle" x="1786.5" y="-213.24" font-family="Times,serif" font-size="14.00">{lib/libLLVMDebugInfoCodeView.a(TypeIndexDiscovery.cpp.o)}</text>
</g>
<!-- Node0x55c0c1c81e48&#45;&gt;Node0x55c0c1c82208 -->
<g id="edge6" class="edge">
<title>Node0x55c0c1c81e48&#45;&gt;Node0x55c0c1c82208</title>
<path fill="none" stroke="black" d="M1495.88,-216.94C1511.39,-216.94 1527.04,-216.94 1542.6,-216.94"/>
<polygon fill="black" stroke="black" points="1542.81,-220.44 1552.81,-216.94 1542.81,-213.44 1542.81,-220.44"/>
</g>
<!-- Node0x55c0c1c81a88 -->
<g id="node11" class="node">
<title>Node0x55c0c1c81a88</title>
<polygon fill="none" stroke="black" points="2023,-288.94 1550,-288.94 1550,-252.94 2023,-252.94 2023,-288.94"/>
<text text-anchor="middle" x="1786.5" y="-267.24" font-family="Times,serif" font-size="14.00">{lib/libLLVMDebugInfoCodeView.a(TypeRecordMapping.cpp.o)}</text>
</g>
<!-- Node0x55c0c1c81e48&#45;&gt;Node0x55c0c1c81a88 -->
<g id="edge7" class="edge">
<title>Node0x55c0c1c81e48&#45;&gt;Node0x55c0c1c81a88</title>
<path fill="none" stroke="black" d="M1437.68,-234.96C1490.18,-240.39 1547.98,-246.37 1601.12,-251.86"/>
<polygon fill="black" stroke="black" points="1601.03,-255.37 1611.34,-252.92 1601.75,-248.41 1601.03,-255.37"/>
</g>
<!-- Node0x55c0c1c81a88&#45;&gt;Node0x55c0c1c801d8 -->
<g id="edge9" class="edge">
<title>Node0x55c0c1c81a88&#45;&gt;Node0x55c0c1c801d8</title>
<path fill="none" stroke="black" d="M2023.22,-274.38C2323.77,-278.77 2839.86,-286.31 3135.78,-290.63"/>
<polygon fill="black" stroke="black" points="3136.17,-294.14 3146.22,-290.79 3136.27,-287.14 3136.17,-294.14"/>
</g>
<!-- Node0x55c0c1c81a88&#45;&gt;Node0x55c0c1c7e388 -->
<g id="edge8" class="edge">
<title>Node0x55c0c1c81a88&#45;&gt;Node0x55c0c1c7e388</title>
<path fill="none" stroke="black" d="M2002.46,-252.93C2012.54,-250.3 2022.44,-247.31 2032,-243.94 2049.9,-237.62 2050.12,-227.32 2068,-220.94 2074.35,-218.67 2080.85,-216.59 2087.46,-214.67"/>
<polygon fill="black" stroke="black" points="2088.5,-218.01 2097.21,-211.98 2086.64,-211.27 2088.5,-218.01"/>
</g>
<!-- Node0x55c0c1c7b7c8 -->
<g id="node12" class="node">
<title>Node0x55c0c1c7b7c8</title>
<polygon fill="none" stroke="black" points="1475,-288.94 1050,-288.94 1050,-252.94 1475,-252.94 1475,-288.94"/>
<text text-anchor="middle" x="1262.5" y="-267.24" font-family="Times,serif" font-size="14.00">{lib/libLLVMDebugInfoCodeView.a(CVTypeVisitor.cpp.o)}</text>
</g>
<!-- Node0x55c0c1c81a88&#45;&gt;Node0x55c0c1c7b7c8 -->
<g id="edge10" class="edge">
<title>Node0x55c0c1c81a88&#45;&gt;Node0x55c0c1c7b7c8</title>
<path fill="none" stroke="black" d="M1549.73,-277.66C1528.25,-277.71 1506.54,-277.69 1485.18,-277.62"/>
<polygon fill="black" stroke="black" points="1485.08,-274.12 1475.06,-277.58 1485.05,-281.12 1485.08,-274.12"/>
</g>
<!-- Node0x55c0c1c79fb8 -->
<g id="node13" class="node">
<title>Node0x55c0c1c79fb8</title>
<polygon fill="none" stroke="black" points="2505,-265.94 2092,-265.94 2092,-229.94 2505,-229.94 2505,-265.94"/>
<text text-anchor="middle" x="2298.5" y="-244.24" font-family="Times,serif" font-size="14.00">{lib/libLLVMDebugInfoCodeView.a(EnumTables.cpp.o)}</text>
</g>
<!-- Node0x55c0c1c81a88&#45;&gt;Node0x55c0c1c79fb8 -->
<g id="edge11" class="edge">
<title>Node0x55c0c1c81a88&#45;&gt;Node0x55c0c1c79fb8</title>
<path fill="none" stroke="black" d="M2023.09,-260.31C2042.65,-259.43 2062.36,-258.54 2081.76,-257.67"/>
<polygon fill="black" stroke="black" points="2082.05,-261.16 2091.88,-257.21 2081.73,-254.17 2082.05,-261.16"/>
</g>
<!-- Node0x55c0c1c7b7c8&#45;&gt;Node0x55c0c1c801d8 -->
<g id="edge19" class="edge">
<title>Node0x55c0c1c7b7c8&#45;&gt;Node0x55c0c1c801d8</title>
<path fill="none" stroke="black" d="M1421.8,-288.96C1460.72,-292.67 1502.32,-296.02 1541,-297.94 2114.96,-326.36 2791.92,-312.4 3136.24,-301.92"/>
<polygon fill="black" stroke="black" points="3136.45,-305.42 3146.33,-301.61 3136.23,-298.42 3136.45,-305.42"/>
</g>
<!-- Node0x55c0c1c7b7c8&#45;&gt;Node0x55c0c1c81a88 -->
<g id="edge20" class="edge">
<title>Node0x55c0c1c7b7c8&#45;&gt;Node0x55c0c1c81a88</title>
<path fill="none" stroke="black" d="M1475.06,-264.3C1496.29,-264.2 1517.97,-264.17 1539.51,-264.2"/>
<polygon fill="black" stroke="black" points="1539.73,-267.7 1549.73,-264.22 1539.74,-260.7 1539.73,-267.7"/>
</g>
<!-- Node0x55c0c1c79d38 -->
<g id="node14" class="node">
<title>Node0x55c0c1c79d38</title>
<polygon fill="none" stroke="black" points="3100,-541.94 2567,-541.94 2567,-505.94 3100,-505.94 3100,-541.94"/>
<text text-anchor="middle" x="2833.5" y="-520.24" font-family="Times,serif" font-size="14.00">{lib/libLLVMDebugInfoCodeView.a(DebugStringTableSubsection.cpp.o)}</text>
</g>
<!-- Node0x55c0c1c79d38&#45;&gt;Node0x55c0c1c78fc8 -->
<g id="edge12" class="edge">
<title>Node0x55c0c1c79d38&#45;&gt;Node0x55c0c1c78fc8</title>
<path fill="none" stroke="black" d="M3100.18,-523.94C3109.31,-523.94 3118.43,-523.94 3127.5,-523.94"/>
<polygon fill="black" stroke="black" points="3127.73,-527.44 3137.73,-523.94 3127.73,-520.44 3127.73,-527.44"/>
</g>
<!-- Node0x55c0c1c78ac8 -->
<g id="node15" class="node">
<title>Node0x55c0c1c78ac8</title>
<polygon fill="none" stroke="black" points="526.5,-288.94 4.5,-288.94 4.5,-252.94 526.5,-252.94 526.5,-288.94"/>
<text text-anchor="middle" x="265.5" y="-267.24" font-family="Times,serif" font-size="14.00">{lib/libLLVMDebugInfoCodeView.a(LazyRandomTypeCollection.cpp.o)}</text>
</g>
<!-- Node0x55c0c1c78ac8&#45;&gt;Node0x55c0c1c801d8 -->
<g id="edge14" class="edge">
<title>Node0x55c0c1c78ac8&#45;&gt;Node0x55c0c1c801d8</title>
<path fill="none" stroke="black" d="M458.47,-288.96C482.91,-291.72 507.56,-294.72 531,-297.94 857.41,-342.69 932.04,-423.94 1261.5,-423.94 1261.5,-423.94 1261.5,-423.94 2299.5,-423.94 2477.88,-423.94 2927.67,-442.75 3102,-404.94 3183.73,-387.21 3271.85,-343.91 3321.64,-316.93"/>
<polygon fill="black" stroke="black" points="3323.39,-319.96 3330.48,-312.09 3320.03,-313.82 3323.39,-319.96"/>
</g>
<!-- Node0x55c0c1c7d0c8 -->
<g id="node16" class="node">
<title>Node0x55c0c1c7d0c8</title>
<polygon fill="none" stroke="black" points="984,-288.94 567,-288.94 567,-252.94 984,-252.94 984,-288.94"/>
<text text-anchor="middle" x="775.5" y="-267.24" font-family="Times,serif" font-size="14.00">{lib/libLLVMDebugInfoCodeView.a(RecordName.cpp.o)}</text>
</g>
<!-- Node0x55c0c1c78ac8&#45;&gt;Node0x55c0c1c7d0c8 -->
<g id="edge13" class="edge">
<title>Node0x55c0c1c78ac8&#45;&gt;Node0x55c0c1c7d0c8</title>
<path fill="none" stroke="black" d="M526.82,-270.94C536.78,-270.94 546.72,-270.94 556.59,-270.94"/>
<polygon fill="black" stroke="black" points="556.84,-274.44 566.84,-270.94 556.84,-267.44 556.84,-274.44"/>
</g>
<!-- Node0x55c0c1c7fd78 -->
<g id="node17" class="node">
<title>Node0x55c0c1c7fd78</title>
<polygon fill="none" stroke="black" points="975,-234.94 576,-234.94 576,-198.94 975,-198.94 975,-234.94"/>
<text text-anchor="middle" x="775.5" y="-213.24" font-family="Times,serif" font-size="14.00">{lib/libLLVMDebugInfoCodeView.a(TypeIndex.cpp.o)}</text>
</g>
<!-- Node0x55c0c1c78ac8&#45;&gt;Node0x55c0c1c7fd78 -->
<g id="edge15" class="edge">
<title>Node0x55c0c1c78ac8&#45;&gt;Node0x55c0c1c7fd78</title>
<path fill="none" stroke="black" d="M436.01,-252.92C487,-247.5 543.11,-241.53 594.74,-236.05"/>
<polygon fill="black" stroke="black" points="595.43,-239.49 605.01,-234.96 594.69,-232.53 595.43,-239.49"/>
</g>
<!-- Node0x55c0c1c7d0c8&#45;&gt;Node0x55c0c1c7bb88 -->
<g id="edge16" class="edge">
<title>Node0x55c0c1c7d0c8&#45;&gt;Node0x55c0c1c7bb88</title>
<path fill="none" stroke="black" d="M972.3,-252.74C976.36,-250.05 980.27,-247.13 984,-243.94 1027.28,-206.91 974.84,-155.66 1020,-120.94 1230.48,40.88 1578.42,-38.21 1721.27,-80.82"/>
<polygon fill="black" stroke="black" points="1720.61,-84.27 1731.19,-83.82 1722.63,-77.57 1720.61,-84.27"/>
</g>
<!-- Node0x55c0c1c7d0c8&#45;&gt;Node0x55c0c1c7b7c8 -->
<g id="edge17" class="edge">
<title>Node0x55c0c1c7d0c8&#45;&gt;Node0x55c0c1c7b7c8</title>
<path fill="none" stroke="black" d="M984.29,-270.94C1002.62,-270.94 1021.23,-270.94 1039.67,-270.94"/>
<polygon fill="black" stroke="black" points="1039.89,-274.44 1049.89,-270.94 1039.89,-267.44 1039.89,-274.44"/>
</g>
<!-- Node0x55c0c1c7bf48 -->
<g id="node18" class="node">
<title>Node0x55c0c1c7bf48</title>
<polygon fill="none" stroke="black" points="3098.5,-395.94 2568.5,-395.94 2568.5,-359.94 3098.5,-359.94 3098.5,-395.94"/>
<text text-anchor="middle" x="2833.5" y="-374.24" font-family="Times,serif" font-size="14.00">{lib/libLLVMDebugInfoCodeView.a(DebugFrameDataSubsection.cpp.o)}</text>
</g>
<!-- Node0x55c0c1c7bf48&#45;&gt;Node0x55c0c1c801d8 -->
<g id="edge18" class="edge">
<title>Node0x55c0c1c7bf48&#45;&gt;Node0x55c0c1c801d8</title>
<path fill="none" stroke="black" d="M3002.09,-359.93C3035.27,-355.79 3069.78,-351.08 3102,-345.94 3158.14,-336.98 3220.62,-324.57 3270.26,-314.11"/>
<polygon fill="black" stroke="black" points="3271.27,-317.48 3280.33,-311.98 3269.82,-310.63 3271.27,-317.48"/>
</g>
<!-- Node0x55c0c1c80a98 -->
<g id="node19" class="node">
<title>Node0x55c0c1c80a98</title>
<polygon fill="none" stroke="black" points="3102,-595.94 2565,-595.94 2565,-559.94 3102,-559.94 3102,-595.94"/>
<text text-anchor="middle" x="2833.5" y="-574.24" font-family="Times,serif" font-size="14.00">{lib/libLLVMDebugInfoCodeView.a(DebugInlineeLinesSubsection.cpp.o)}</text>
</g>
<!-- Node0x55c0c1c80a98&#45;&gt;Node0x55c0c1c78fc8 -->
<g id="edge21" class="edge">
<title>Node0x55c0c1c80a98&#45;&gt;Node0x55c0c1c78fc8</title>
<path fill="none" stroke="black" d="M3013.65,-559.93C3043.17,-556.94 3073.44,-553.86 3102,-550.94 3126.91,-548.39 3153.16,-545.68 3179.01,-543.01"/>
<polygon fill="black" stroke="black" points="3179.7,-546.46 3189.29,-541.94 3178.98,-539.49 3179.7,-546.46"/>
</g>
<!-- Node0x55c0c1c7c768 -->
<g id="node20" class="node">
<title>Node0x55c0c1c7c768</title>
<polygon fill="none" stroke="black" points="1505,-165.94 1020,-165.94 1020,-129.94 1505,-129.94 1505,-165.94"/>
<text text-anchor="middle" x="1262.5" y="-144.24" font-family="Times,serif" font-size="14.00">{lib/libLLVMDebugInfoCodeView.a(SymbolRecordHelpers.cpp.o)}</text>
</g>
<!-- Node0x55c0c1c7c768&#45;&gt;Node0x55c0c1c801d8 -->
<g id="edge23" class="edge">
<title>Node0x55c0c1c7c768&#45;&gt;Node0x55c0c1c801d8</title>
<path fill="none" stroke="black" d="M1505.1,-145.23C1968.71,-140.86 2950.82,-135.99 3102,-170.94 3186.96,-190.58 3277,-240.66 3325.65,-270.51"/>
<polygon fill="black" stroke="black" points="3323.9,-273.54 3334.24,-275.84 3327.58,-267.59 3323.9,-273.54"/>
</g>
<!-- Node0x55c0c1c7c768&#45;&gt;Node0x55c0c1c7bb88 -->
<g id="edge22" class="edge">
<title>Node0x55c0c1c7c768&#45;&gt;Node0x55c0c1c7bb88</title>
<path fill="none" stroke="black" d="M1467.94,-129.92C1501.75,-126.94 1536.9,-123.85 1570.95,-120.85"/>
<polygon fill="black" stroke="black" points="1571.35,-124.32 1581,-119.96 1570.73,-117.35 1571.35,-124.32"/>
</g>
</g>
</svg>
