<?xml version="1.0" encoding="UTF-8" standalone="no"?>
<!DOCTYPE svg PUBLIC "-//W3C//DTD SVG 1.1//EN"
 "http://www.w3.org/Graphics/SVG/1.1/DTD/svg11.dtd">
<!-- Generated by graphviz version 2.43.0 (0)
 -->
<!-- Title: bin/llvm&#45;gsymutil_lib/libLLVMScalarOpts.a Pages: 1 -->
<svg width="466pt" height="337pt"
 viewBox="0.00 0.00 466.00 337.00" xmlns="http://www.w3.org/2000/svg" xmlns:xlink="http://www.w3.org/1999/xlink">
<g id="graph0" class="graph" transform="scale(1 1) rotate(0) translate(4 333)">
<title>bin/llvm&#45;gsymutil_lib/libLLVMScalarOpts.a</title>
<polygon fill="white" stroke="transparent" points="-4,4 -4,-333 462,-333 462,4 -4,4"/>
<text text-anchor="middle" x="229" y="-7.8" font-family="Times,serif" font-size="14.00">bin/llvm&#45;gsymutil_lib/libLLVMScalarOpts.a</text>
<!-- Node0x56242f44d278 -->
<g id="node1" class="node">
<title>Node0x56242f44d278</title>
<polygon fill="none" stroke="black" points="405.5,-59 52.5,-59 52.5,-23 405.5,-23 405.5,-59"/>
<text text-anchor="middle" x="229" y="-37.3" font-family="Times,serif" font-size="14.00">{lib/libLLVMScalarOpts.a(MergeICmps.cpp.o)}</text>
</g>
<!-- Node0x56242f44de58 -->
<g id="node2" class="node">
<title>Node0x56242f44de58</title>
<polygon fill="none" stroke="black" points="438.5,-113 19.5,-113 19.5,-77 438.5,-77 438.5,-113"/>
<text text-anchor="middle" x="229" y="-91.3" font-family="Times,serif" font-size="14.00">{lib/libLLVMScalarOpts.a(PartiallyInlineLibCalls.cpp.o)}</text>
</g>
<!-- Node0x56242f44e588 -->
<g id="node3" class="node">
<title>Node0x56242f44e588</title>
<polygon fill="none" stroke="black" points="458,-167 0,-167 0,-131 458,-131 458,-167"/>
<text text-anchor="middle" x="229" y="-145.3" font-family="Times,serif" font-size="14.00">{lib/libLLVMScalarOpts.a(ScalarizeMaskedMemIntrin.cpp.o)}</text>
</g>
<!-- Node0x56242f44dea8 -->
<g id="node4" class="node">
<title>Node0x56242f44dea8</title>
<polygon fill="none" stroke="black" points="422,-221 36,-221 36,-185 422,-185 422,-221"/>
<text text-anchor="middle" x="229" y="-199.3" font-family="Times,serif" font-size="14.00">{lib/libLLVMScalarOpts.a(ConstantHoisting.cpp.o)}</text>
</g>
<!-- Node0x56242f44dae8 -->
<g id="node5" class="node">
<title>Node0x56242f44dae8</title>
<polygon fill="none" stroke="black" points="434.5,-275 23.5,-275 23.5,-239 434.5,-239 434.5,-275"/>
<text text-anchor="middle" x="229" y="-253.3" font-family="Times,serif" font-size="14.00">{lib/libLLVMScalarOpts.a(LoopStrengthReduce.cpp.o)}</text>
</g>
<!-- Node0x56242f44d868 -->
<g id="node6" class="node">
<title>Node0x56242f44d868</title>
<polygon fill="none" stroke="black" points="447.5,-329 10.5,-329 10.5,-293 447.5,-293 447.5,-329"/>
<text text-anchor="middle" x="229" y="-307.3" font-family="Times,serif" font-size="14.00">{lib/libLLVMScalarOpts.a(LowerConstantIntrinsics.cpp.o)}</text>
</g>
</g>
</svg>
