<?xml version="1.0" encoding="UTF-8" standalone="no"?>
<!DOCTYPE svg PUBLIC "-//W3C//DTD SVG 1.1//EN"
 "http://www.w3.org/Graphics/SVG/1.1/DTD/svg11.dtd">
<!-- Generated by graphviz version 2.43.0 (0)
 -->
<!-- Title: bin/llvm&#45;ml_lib/libLLVMSupport.a Pages: 1 -->
<svg width="2426pt" height="1627pt"
 viewBox="0.00 0.00 2426.00 1627.00" xmlns="http://www.w3.org/2000/svg" xmlns:xlink="http://www.w3.org/1999/xlink">
<g id="graph0" class="graph" transform="scale(1 1) rotate(0) translate(4 1623)">
<title>bin/llvm&#45;ml_lib/libLLVMSupport.a</title>
<polygon fill="white" stroke="transparent" points="-4,4 -4,-1623 2422,-1623 2422,4 -4,4"/>
<text text-anchor="middle" x="1209" y="-7.8" font-family="Times,serif" font-size="14.00">bin/llvm&#45;ml_lib/libLLVMSupport.a</text>
<!-- Node0x55f604648ff8 -->
<g id="node1" class="node">
<title>Node0x55f604648ff8</title>
<polygon fill="none" stroke="black" points="746,-880.48 429,-880.48 429,-844.48 746,-844.48 746,-880.48"/>
<text text-anchor="middle" x="587.5" y="-858.78" font-family="Times,serif" font-size="14.00">{lib/libLLVMSupport.a(SourceMgr.cpp.o)}</text>
</g>
<!-- Node0x55f604646c08 -->
<g id="node2" class="node">
<title>Node0x55f604646c08</title>
<polygon fill="#7fb2ff" stroke="black" points="1154.5,-832.48 846.5,-832.48 846.5,-796.48 1154.5,-796.48 1154.5,-832.48"/>
<text text-anchor="middle" x="1000.5" y="-810.78" font-family="Times,serif" font-size="14.00">{lib/libLLVMSupport.a(StringRef.cpp.o)}</text>
</g>
<!-- Node0x55f604648ff8&#45;&gt;Node0x55f604646c08 -->
<g id="edge1" class="edge">
<title>Node0x55f604648ff8&#45;&gt;Node0x55f604646c08</title>
<path fill="none" stroke="black" d="M742.71,-844.47C773.34,-840.89 805.58,-837.13 836.49,-833.52"/>
<polygon fill="black" stroke="black" points="836.95,-836.99 846.47,-832.35 836.14,-830.04 836.95,-836.99"/>
</g>
<!-- Node0x55f604645c68 -->
<g id="node3" class="node">
<title>Node0x55f604645c68</title>
<polygon fill="#7fb2ff" stroke="black" points="1141.5,-1108.48 859.5,-1108.48 859.5,-1072.48 1141.5,-1072.48 1141.5,-1108.48"/>
<text text-anchor="middle" x="1000.5" y="-1086.78" font-family="Times,serif" font-size="14.00">{lib/libLLVMSupport.a(Twine.cpp.o)}</text>
</g>
<!-- Node0x55f604648ff8&#45;&gt;Node0x55f604645c68 -->
<g id="edge2" class="edge">
<title>Node0x55f604648ff8&#45;&gt;Node0x55f604645c68</title>
<path fill="none" stroke="black" d="M602.58,-880.77C634.26,-920.49 715.6,-1014.56 807,-1058.48 820.4,-1064.92 834.87,-1070.09 849.63,-1074.24"/>
<polygon fill="black" stroke="black" points="848.81,-1077.64 859.37,-1076.82 850.61,-1070.88 848.81,-1077.64"/>
</g>
<!-- Node0x55f604648af8 -->
<g id="node4" class="node">
<title>Node0x55f604648af8</title>
<polygon fill="#7fb2ff" stroke="black" points="1171,-1324.48 830,-1324.48 830,-1288.48 1171,-1288.48 1171,-1324.48"/>
<text text-anchor="middle" x="1000.5" y="-1302.78" font-family="Times,serif" font-size="14.00">{lib/libLLVMSupport.a(MemoryBuffer.cpp.o)}</text>
</g>
<!-- Node0x55f604648ff8&#45;&gt;Node0x55f604648af8 -->
<g id="edge3" class="edge">
<title>Node0x55f604648ff8&#45;&gt;Node0x55f604648af8</title>
<path fill="none" stroke="black" d="M600.68,-880.58C632.03,-927.71 716.82,-1058.78 771,-1176.48 791.28,-1220.53 769.51,-1248.73 807,-1279.48 811.4,-1283.09 816.06,-1286.34 820.92,-1289.27"/>
<polygon fill="black" stroke="black" points="819.43,-1292.44 829.88,-1294.19 822.8,-1286.31 819.43,-1292.44"/>
</g>
<!-- Node0x55f604648698 -->
<g id="node5" class="node">
<title>Node0x55f604648698</title>
<polygon fill="none" stroke="black" points="1155.5,-1162.48 845.5,-1162.48 845.5,-1126.48 1155.5,-1126.48 1155.5,-1162.48"/>
<text text-anchor="middle" x="1000.5" y="-1140.78" font-family="Times,serif" font-size="14.00">{lib/libLLVMSupport.a(WithColor.cpp.o)}</text>
</g>
<!-- Node0x55f604648ff8&#45;&gt;Node0x55f604648698 -->
<g id="edge4" class="edge">
<title>Node0x55f604648ff8&#45;&gt;Node0x55f604648698</title>
<path fill="none" stroke="black" d="M612.24,-880.64C649.9,-910.43 723.91,-973.04 771,-1039.48 793.08,-1070.63 776.35,-1094.71 807,-1117.48 815.82,-1124.03 825.5,-1129.35 835.69,-1133.65"/>
<polygon fill="black" stroke="black" points="834.59,-1136.97 845.18,-1137.31 837.11,-1130.44 834.59,-1136.97"/>
</g>
<!-- Node0x55f604648c38 -->
<g id="node6" class="node">
<title>Node0x55f604648c38</title>
<polygon fill="#7fb2ff" stroke="black" points="1166.5,-940.48 834.5,-940.48 834.5,-904.48 1166.5,-904.48 1166.5,-940.48"/>
<text text-anchor="middle" x="1000.5" y="-918.78" font-family="Times,serif" font-size="14.00">{lib/libLLVMSupport.a(raw_ostream.cpp.o)}</text>
</g>
<!-- Node0x55f604648ff8&#45;&gt;Node0x55f604648c38 -->
<g id="edge5" class="edge">
<title>Node0x55f604648ff8&#45;&gt;Node0x55f604648c38</title>
<path fill="none" stroke="black" d="M706.4,-880.52C738.98,-885.44 774.35,-890.73 807,-895.48 823.96,-897.95 841.76,-900.5 859.41,-903.01"/>
<polygon fill="black" stroke="black" points="859.39,-906.54 869.78,-904.48 860.37,-899.61 859.39,-906.54"/>
</g>
<!-- Node0x55f6046475b8 -->
<g id="node7" class="node">
<title>Node0x55f6046475b8</title>
<polygon fill="#7fb2ff" stroke="black" points="1136.5,-1216.48 864.5,-1216.48 864.5,-1180.48 1136.5,-1180.48 1136.5,-1216.48"/>
<text text-anchor="middle" x="1000.5" y="-1194.78" font-family="Times,serif" font-size="14.00">{lib/libLLVMSupport.a(Path.cpp.o)}</text>
</g>
<!-- Node0x55f604648ff8&#45;&gt;Node0x55f6046475b8 -->
<g id="edge6" class="edge">
<title>Node0x55f604648ff8&#45;&gt;Node0x55f6046475b8</title>
<path fill="none" stroke="black" d="M614.54,-880.48C654.32,-909.37 729.92,-969.93 771,-1039.48 801.92,-1091.84 761.36,-1131.29 807,-1171.48 820.68,-1183.52 837.15,-1191.69 854.63,-1197.07"/>
<polygon fill="black" stroke="black" points="853.86,-1200.49 864.43,-1199.78 855.73,-1193.74 853.86,-1200.49"/>
</g>
<!-- Node0x55f604646578 -->
<g id="node8" class="node">
<title>Node0x55f604646578</title>
<polygon fill="#7fb2ff" stroke="black" points="1580,-1286.48 1284,-1286.48 1284,-1250.48 1580,-1250.48 1580,-1286.48"/>
<text text-anchor="middle" x="1432" y="-1264.78" font-family="Times,serif" font-size="14.00">{lib/libLLVMSupport.a(APFloat.cpp.o)}</text>
</g>
<!-- Node0x55f604646c08&#45;&gt;Node0x55f604646578 -->
<g id="edge7" class="edge">
<title>Node0x55f604646c08&#45;&gt;Node0x55f604646578</title>
<path fill="none" stroke="#7fb2ff" d="M1154.59,-806.99C1169.37,-812.63 1182.95,-820.87 1194,-832.48 1255.52,-897.13 1168.29,-1168.01 1230,-1232.48 1242.26,-1245.29 1257.48,-1254.11 1274.01,-1260.07"/>
<polygon fill="#7fb2ff" stroke="#7fb2ff" points="1273.3,-1263.52 1283.89,-1263.26 1275.45,-1256.86 1273.3,-1263.52"/>
</g>
<!-- Node0x55f6046458f8 -->
<g id="node9" class="node">
<title>Node0x55f6046458f8</title>
<polygon fill="#7fb2ff" stroke="black" points="1571.5,-702.48 1292.5,-702.48 1292.5,-666.48 1571.5,-666.48 1571.5,-702.48"/>
<text text-anchor="middle" x="1432" y="-680.78" font-family="Times,serif" font-size="14.00">{lib/libLLVMSupport.a(APInt.cpp.o)}</text>
</g>
<!-- Node0x55f604646c08&#45;&gt;Node0x55f6046458f8 -->
<g id="edge8" class="edge">
<title>Node0x55f604646c08&#45;&gt;Node0x55f6046458f8</title>
<path fill="none" stroke="#7fb2ff" d="M1033.66,-796.36C1076.89,-772.86 1156.78,-732.42 1230,-711.48 1246.78,-706.68 1264.6,-702.73 1282.42,-699.48"/>
<polygon fill="#7fb2ff" stroke="#7fb2ff" points="1283.08,-702.91 1292.32,-697.74 1281.87,-696.02 1283.08,-702.91"/>
</g>
<!-- Node0x55f6046482d8 -->
<g id="node10" class="node">
<title>Node0x55f6046482d8</title>
<polygon fill="#7fb2ff" stroke="black" points="1570.5,-1232.48 1293.5,-1232.48 1293.5,-1196.48 1570.5,-1196.48 1570.5,-1232.48"/>
<text text-anchor="middle" x="1432" y="-1210.78" font-family="Times,serif" font-size="14.00">{lib/libLLVMSupport.a(Error.cpp.o)}</text>
</g>
<!-- Node0x55f604646c08&#45;&gt;Node0x55f6046482d8 -->
<g id="edge9" class="edge">
<title>Node0x55f604646c08&#45;&gt;Node0x55f6046482d8</title>
<path fill="none" stroke="#7fb2ff" d="M1154.75,-816.4C1169.41,-822.05 1182.91,-830.14 1194,-841.48 1290.33,-940.05 1142.57,-1042.94 1230,-1149.48 1246.28,-1169.32 1268.67,-1183.16 1292.62,-1192.82"/>
<polygon fill="#7fb2ff" stroke="#7fb2ff" points="1291.64,-1196.19 1302.23,-1196.44 1294.11,-1189.64 1291.64,-1196.19"/>
</g>
<!-- Node0x55f604649908 -->
<g id="node11" class="node">
<title>Node0x55f604649908</title>
<polygon fill="none" stroke="black" points="1581.5,-306.48 1282.5,-306.48 1282.5,-270.48 1581.5,-270.48 1581.5,-306.48"/>
<text text-anchor="middle" x="1432" y="-284.78" font-family="Times,serif" font-size="14.00">{lib/libLLVMSupport.a(Hashing.cpp.o)}</text>
</g>
<!-- Node0x55f604646c08&#45;&gt;Node0x55f604649908 -->
<g id="edge10" class="edge">
<title>Node0x55f604646c08&#45;&gt;Node0x55f604649908</title>
<path fill="none" stroke="black" d="M1007.21,-796.27C1027.71,-733.39 1103.23,-522.34 1230,-396.48 1269.68,-357.09 1326.7,-328.3 1369.89,-310.4"/>
<polygon fill="black" stroke="black" points="1371.21,-313.64 1379.16,-306.64 1368.57,-307.16 1371.21,-313.64"/>
</g>
<!-- Node0x55f604645c68&#45;&gt;Node0x55f604648c38 -->
<g id="edge51" class="edge">
<title>Node0x55f604645c68&#45;&gt;Node0x55f604648c38</title>
<path fill="none" stroke="#7fb2ff" d="M952.83,-1072.47C853.62,-1029.86 850.49,-987.26 943.45,-944.65"/>
<polygon fill="#7fb2ff" stroke="#7fb2ff" points="945.03,-947.78 952.75,-940.53 942.19,-941.38 945.03,-947.78"/>
</g>
<!-- Node0x55f604648af8&#45;&gt;Node0x55f604645c68 -->
<g id="edge28" class="edge">
<title>Node0x55f604648af8&#45;&gt;Node0x55f604645c68</title>
<path fill="none" stroke="#7fb2ff" d="M829.56,-1305.06C813.11,-1297.57 798.89,-1286.48 789,-1270.48 772.18,-1243.26 772.18,-1153.7 789,-1126.48 802.7,-1104.31 824.71,-1091.57 849.46,-1084.76"/>
<polygon fill="#7fb2ff" stroke="#7fb2ff" points="850.55,-1088.1 859.45,-1082.36 848.91,-1081.3 850.55,-1088.1"/>
</g>
<!-- Node0x55f604648af8&#45;&gt;Node0x55f6046475b8 -->
<g id="edge30" class="edge">
<title>Node0x55f604648af8&#45;&gt;Node0x55f6046475b8</title>
<path fill="none" stroke="#7fb2ff" d="M829.56,-1305.06C813.11,-1297.57 798.89,-1286.48 789,-1270.48 766.01,-1233.28 804.28,-1214.88 854.32,-1205.94"/>
<polygon fill="#7fb2ff" stroke="#7fb2ff" points="855.17,-1209.35 864.47,-1204.28 854.04,-1202.44 855.17,-1209.35"/>
</g>
<!-- Node0x55f604648af8&#45;&gt;Node0x55f6046482d8 -->
<g id="edge29" class="edge">
<title>Node0x55f604648af8&#45;&gt;Node0x55f6046482d8</title>
<path fill="none" stroke="#7fb2ff" d="M1171.02,-1289.47C1178.94,-1286.58 1186.65,-1283.27 1194,-1279.48 1214.68,-1268.82 1209.29,-1252.08 1230,-1241.48 1246.62,-1232.98 1264.97,-1226.84 1283.63,-1222.45"/>
<polygon fill="#7fb2ff" stroke="#7fb2ff" points="1284.38,-1225.87 1293.4,-1220.31 1282.89,-1219.03 1284.38,-1225.87"/>
</g>
<!-- Node0x55f604645a38 -->
<g id="node12" class="node">
<title>Node0x55f604645a38</title>
<polygon fill="#7fb2ff" stroke="black" points="1579.5,-1340.48 1284.5,-1340.48 1284.5,-1304.48 1579.5,-1304.48 1579.5,-1340.48"/>
<text text-anchor="middle" x="1432" y="-1318.78" font-family="Times,serif" font-size="14.00">{lib/libLLVMSupport.a(Process.cpp.o)}</text>
</g>
<!-- Node0x55f604648af8&#45;&gt;Node0x55f604645a38 -->
<g id="edge31" class="edge">
<title>Node0x55f604648af8&#45;&gt;Node0x55f604645a38</title>
<path fill="none" stroke="#7fb2ff" d="M1171.25,-1312.8C1205.14,-1314.07 1240.6,-1315.39 1274.04,-1316.63"/>
<polygon fill="#7fb2ff" stroke="#7fb2ff" points="1274.23,-1320.14 1284.35,-1317.02 1274.49,-1313.15 1274.23,-1320.14"/>
</g>
<!-- Node0x55f60464a268 -->
<g id="node13" class="node">
<title>Node0x55f60464a268</title>
<polygon fill="#7fb2ff" stroke="black" points="1583,-940.48 1281,-940.48 1281,-904.48 1583,-904.48 1583,-940.48"/>
<text text-anchor="middle" x="1432" y="-918.78" font-family="Times,serif" font-size="14.00">{lib/libLLVMSupport.a(Program.cpp.o)}</text>
</g>
<!-- Node0x55f604648af8&#45;&gt;Node0x55f60464a268 -->
<g id="edge32" class="edge">
<title>Node0x55f604648af8&#45;&gt;Node0x55f60464a268</title>
<path fill="none" stroke="#7fb2ff" d="M1171.08,-1297.01C1179.45,-1292.29 1187.19,-1286.51 1194,-1279.48 1296.71,-1173.57 1126.98,-1055.09 1230,-949.48 1241.6,-937.58 1255.76,-929.16 1271.14,-923.32"/>
<polygon fill="#7fb2ff" stroke="#7fb2ff" points="1272.52,-926.55 1280.86,-920.02 1270.27,-919.92 1272.52,-926.55"/>
</g>
<!-- Node0x55f604648698&#45;&gt;Node0x55f604648c38 -->
<g id="edge35" class="edge">
<title>Node0x55f604648698&#45;&gt;Node0x55f604648c38</title>
<path fill="none" stroke="black" d="M845.28,-1148.98C822.24,-1141.91 801.92,-1129.39 789,-1108.48 772.06,-1081.07 772.06,-990.89 789,-963.48 798,-948.92 810.53,-938.26 825.06,-930.56"/>
<polygon fill="black" stroke="black" points="826.82,-933.6 834.34,-926.15 823.81,-927.28 826.82,-933.6"/>
</g>
<!-- Node0x55f604648698&#45;&gt;Node0x55f6046482d8 -->
<g id="edge34" class="edge">
<title>Node0x55f604648698&#45;&gt;Node0x55f6046482d8</title>
<path fill="none" stroke="black" d="M1147.51,-1162.49C1163.26,-1165.17 1179.01,-1168.16 1194,-1171.48 1210.33,-1175.1 1213.7,-1178.71 1230,-1182.48 1249.53,-1186.99 1270.27,-1191.08 1290.73,-1194.7"/>
<polygon fill="black" stroke="black" points="1290.29,-1198.18 1300.74,-1196.45 1291.49,-1191.28 1290.29,-1198.18"/>
</g>
<!-- Node0x55f604647478 -->
<g id="node14" class="node">
<title>Node0x55f604647478</title>
<polygon fill="#7fb2ff" stroke="black" points="1603,-994.48 1261,-994.48 1261,-958.48 1603,-958.48 1603,-994.48"/>
<text text-anchor="middle" x="1432" y="-972.78" font-family="Times,serif" font-size="14.00">{lib/libLLVMSupport.a(CommandLine.cpp.o)}</text>
</g>
<!-- Node0x55f604648698&#45;&gt;Node0x55f604647478 -->
<g id="edge33" class="edge">
<title>Node0x55f604648698&#45;&gt;Node0x55f604647478</title>
<path fill="none" stroke="black" d="M1155.73,-1137.19C1169.42,-1132.39 1182.44,-1125.97 1194,-1117.48 1224.11,-1095.34 1201.92,-1066.14 1230,-1041.48 1253.09,-1021.21 1282.59,-1007.24 1311.84,-997.63"/>
<polygon fill="black" stroke="black" points="1313.24,-1000.85 1321.74,-994.53 1311.15,-994.17 1313.24,-1000.85"/>
</g>
<!-- Node0x55f604648c38&#45;&gt;Node0x55f604645c68 -->
<g id="edge36" class="edge">
<title>Node0x55f604648c38&#45;&gt;Node0x55f604645c68</title>
<path fill="none" stroke="#7fb2ff" d="M1048.25,-940.53C1147.41,-983.13 1150.49,-1025.74 1057.47,-1068.34"/>
<polygon fill="#7fb2ff" stroke="#7fb2ff" points="1055.89,-1065.22 1048.17,-1072.47 1058.73,-1071.62 1055.89,-1065.22"/>
</g>
<!-- Node0x55f604648c38&#45;&gt;Node0x55f6046475b8 -->
<g id="edge41" class="edge">
<title>Node0x55f604648c38&#45;&gt;Node0x55f6046475b8</title>
<path fill="none" stroke="#7fb2ff" d="M834.34,-926.15C815.89,-934 799.86,-945.9 789,-963.48 765.75,-1001.1 765.75,-1124.86 789,-1162.48 803.61,-1186.11 827.66,-1199.03 854.41,-1205.47"/>
<polygon fill="#7fb2ff" stroke="#7fb2ff" points="853.87,-1208.93 864.37,-1207.56 855.3,-1202.08 853.87,-1208.93"/>
</g>
<!-- Node0x55f604648c38&#45;&gt;Node0x55f6046482d8 -->
<g id="edge37" class="edge">
<title>Node0x55f604648c38&#45;&gt;Node0x55f6046482d8</title>
<path fill="none" stroke="#7fb2ff" d="M1049.6,-940.67C1092.47,-963.26 1154.38,-1004.21 1194,-1054.48 1219.65,-1087.02 1199.5,-1112.43 1230,-1140.48 1260.11,-1168.17 1302.13,-1184.07 1339.98,-1193.94"/>
<polygon fill="#7fb2ff" stroke="#7fb2ff" points="1339.46,-1197.42 1350.01,-1196.45 1341.16,-1190.63 1339.46,-1197.42"/>
</g>
<!-- Node0x55f604648c38&#45;&gt;Node0x55f604645a38 -->
<g id="edge42" class="edge">
<title>Node0x55f604648c38&#45;&gt;Node0x55f604645a38</title>
<path fill="none" stroke="#7fb2ff" d="M1042.49,-940.52C1087.52,-962.63 1158.17,-1004.54 1194,-1063.48 1248.21,-1152.64 1155.47,-1222.45 1230,-1295.48 1242.61,-1307.84 1258,-1316.39 1274.59,-1322.16"/>
<polygon fill="#7fb2ff" stroke="#7fb2ff" points="1273.9,-1325.6 1284.48,-1325.23 1275.98,-1318.92 1273.9,-1325.6"/>
</g>
<!-- Node0x55f604648c38&#45;&gt;Node0x55f60464a268 -->
<g id="edge43" class="edge">
<title>Node0x55f604648c38&#45;&gt;Node0x55f60464a268</title>
<path fill="none" stroke="#7fb2ff" d="M1166.63,-915.89C1200.85,-915.66 1236.84,-915.68 1270.88,-915.93"/>
<polygon fill="#7fb2ff" stroke="#7fb2ff" points="1270.87,-919.43 1280.9,-916.01 1270.92,-912.43 1270.87,-919.43"/>
</g>
<!-- Node0x55f604649d18 -->
<g id="node15" class="node">
<title>Node0x55f604649d18</title>
<polygon fill="#7fb2ff" stroke="black" points="1604,-1140.48 1260,-1140.48 1260,-1104.48 1604,-1104.48 1604,-1140.48"/>
<text text-anchor="middle" x="1432" y="-1118.78" font-family="Times,serif" font-size="14.00">{lib/libLLVMSupport.a(ErrorHandling.cpp.o)}</text>
</g>
<!-- Node0x55f604648c38&#45;&gt;Node0x55f604649d18 -->
<g id="edge38" class="edge">
<title>Node0x55f604648c38&#45;&gt;Node0x55f604649d18</title>
<path fill="none" stroke="#7fb2ff" d="M1037.38,-940.62C1076.62,-965.65 1140.99,-1011.66 1194,-1054.48 1210.65,-1067.93 1210.54,-1077.55 1230,-1086.48 1244.31,-1093.04 1259.76,-1098.14 1275.5,-1102.13"/>
<polygon fill="#7fb2ff" stroke="#7fb2ff" points="1274.8,-1105.56 1285.34,-1104.47 1276.42,-1098.75 1274.8,-1105.56"/>
</g>
<!-- Node0x55f604645fd8 -->
<g id="node16" class="node">
<title>Node0x55f604645fd8</title>
<polygon fill="#7fb2ff" stroke="black" points="1606.5,-756.48 1257.5,-756.48 1257.5,-720.48 1606.5,-720.48 1606.5,-756.48"/>
<text text-anchor="middle" x="1432" y="-734.78" font-family="Times,serif" font-size="14.00">{lib/libLLVMSupport.a(FormatVariadic.cpp.o)}</text>
</g>
<!-- Node0x55f604648c38&#45;&gt;Node0x55f604645fd8 -->
<g id="edge39" class="edge">
<title>Node0x55f604648c38&#45;&gt;Node0x55f604645fd8</title>
<path fill="none" stroke="#7fb2ff" d="M1166.54,-913.12C1176.44,-908.47 1185.72,-902.67 1194,-895.48 1237.66,-857.58 1186.69,-808.78 1230,-770.48 1235.64,-765.49 1241.74,-761.11 1248.17,-757.27"/>
<polygon fill="#7fb2ff" stroke="#7fb2ff" points="1250.05,-760.24 1257.14,-752.37 1246.69,-754.09 1250.05,-760.24"/>
</g>
<!-- Node0x55f604646f78 -->
<g id="node17" class="node">
<title>Node0x55f604646f78</title>
<polygon fill="#7fb2ff" stroke="black" points="1615.5,-886.48 1248.5,-886.48 1248.5,-850.48 1615.5,-850.48 1615.5,-886.48"/>
<text text-anchor="middle" x="1432" y="-864.78" font-family="Times,serif" font-size="14.00">{lib/libLLVMSupport.a(NativeFormatting.cpp.o)}</text>
</g>
<!-- Node0x55f604648c38&#45;&gt;Node0x55f604646f78 -->
<g id="edge40" class="edge">
<title>Node0x55f604648c38&#45;&gt;Node0x55f604646f78</title>
<path fill="none" stroke="#7fb2ff" d="M1098.96,-904.47C1140.29,-898.49 1189.98,-891.93 1238.19,-886"/>
<polygon fill="#7fb2ff" stroke="#7fb2ff" points="1238.62,-889.48 1248.13,-884.79 1237.78,-882.53 1238.62,-889.48"/>
</g>
<!-- Node0x55f6046475b8&#45;&gt;Node0x55f604646c08 -->
<g id="edge44" class="edge">
<title>Node0x55f6046475b8&#45;&gt;Node0x55f604646c08</title>
<path fill="none" stroke="#7fb2ff" d="M864.37,-1207.56C833.71,-1202.04 805.4,-1189.02 789,-1162.48 770.77,-1132.99 770.77,-879.97 789,-850.48 800.27,-832.24 817.18,-820.38 836.6,-812.96"/>
<polygon fill="#7fb2ff" stroke="#7fb2ff" points="837.98,-816.19 846.33,-809.66 835.74,-809.56 837.98,-816.19"/>
</g>
<!-- Node0x55f6046475b8&#45;&gt;Node0x55f604645c68 -->
<g id="edge45" class="edge">
<title>Node0x55f6046475b8&#45;&gt;Node0x55f604645c68</title>
<path fill="none" stroke="#7fb2ff" d="M864.37,-1207.56C833.71,-1202.04 805.4,-1189.02 789,-1162.48 766.77,-1126.52 801.81,-1108.13 849.38,-1098.86"/>
<polygon fill="#7fb2ff" stroke="#7fb2ff" points="850.15,-1102.28 859.37,-1097.08 848.91,-1095.39 850.15,-1102.28"/>
</g>
<!-- Node0x55f6046475b8&#45;&gt;Node0x55f6046482d8 -->
<g id="edge46" class="edge">
<title>Node0x55f6046475b8&#45;&gt;Node0x55f6046482d8</title>
<path fill="none" stroke="#7fb2ff" d="M1136.51,-1203.51C1183.12,-1205.25 1235.58,-1207.2 1283.16,-1208.97"/>
<polygon fill="#7fb2ff" stroke="#7fb2ff" points="1283.12,-1212.47 1293.24,-1209.35 1283.38,-1205.48 1283.12,-1212.47"/>
</g>
<!-- Node0x55f6046475b8&#45;&gt;Node0x55f604645a38 -->
<g id="edge47" class="edge">
<title>Node0x55f6046475b8&#45;&gt;Node0x55f604645a38</title>
<path fill="none" stroke="#7fb2ff" d="M1136.71,-1191.87C1157.18,-1196.66 1177.08,-1204.46 1194,-1216.48 1222.52,-1236.74 1201.42,-1266.31 1230,-1286.48 1243.4,-1295.94 1258.58,-1302.85 1274.44,-1307.88"/>
<polygon fill="#7fb2ff" stroke="#7fb2ff" points="1273.82,-1311.34 1284.4,-1310.77 1275.78,-1304.62 1273.82,-1311.34"/>
</g>
<!-- Node0x55f6046467a8 -->
<g id="node18" class="node">
<title>Node0x55f6046467a8</title>
<polygon fill="#7fb2ff" stroke="black" points="1578,-1086.48 1286,-1086.48 1286,-1050.48 1578,-1050.48 1578,-1086.48"/>
<text text-anchor="middle" x="1432" y="-1064.78" font-family="Times,serif" font-size="14.00">{lib/libLLVMSupport.a(Signals.cpp.o)}</text>
</g>
<!-- Node0x55f6046475b8&#45;&gt;Node0x55f6046467a8 -->
<g id="edge48" class="edge">
<title>Node0x55f6046475b8&#45;&gt;Node0x55f6046467a8</title>
<path fill="none" stroke="#7fb2ff" d="M1136.55,-1187.94C1157.16,-1182.85 1177.14,-1174.87 1194,-1162.48 1224.11,-1140.34 1199.82,-1108.53 1230,-1086.48 1243.78,-1076.41 1259.56,-1069.18 1276.07,-1064.15"/>
<polygon fill="#7fb2ff" stroke="#7fb2ff" points="1277.17,-1067.48 1285.87,-1061.43 1275.3,-1060.73 1277.17,-1067.48"/>
</g>
<!-- Node0x55f604646578&#45;&gt;Node0x55f604646c08 -->
<g id="edge89" class="edge">
<title>Node0x55f604646578&#45;&gt;Node0x55f604646c08</title>
<path fill="none" stroke="#7fb2ff" d="M1363.67,-1286.52C1319.38,-1290.68 1263.6,-1285.58 1230,-1250.48 1168.29,-1186.01 1255.52,-915.13 1194,-850.48 1185.28,-841.32 1174.99,-834.26 1163.77,-828.86"/>
<polygon fill="#7fb2ff" stroke="#7fb2ff" points="1165.15,-825.64 1154.59,-824.87 1162.37,-832.06 1165.15,-825.64"/>
</g>
<!-- Node0x55f604646578&#45;&gt;Node0x55f604648c38 -->
<g id="edge93" class="edge">
<title>Node0x55f604646578&#45;&gt;Node0x55f604648c38</title>
<path fill="none" stroke="#7fb2ff" d="M1283.8,-1270.27C1263.86,-1264.69 1245.1,-1255.62 1230,-1241.48 1171.07,-1186.32 1237.49,-1131.47 1194,-1063.48 1159.12,-1008.96 1095.12,-968.47 1050.53,-945.19"/>
<polygon fill="#7fb2ff" stroke="#7fb2ff" points="1052.1,-942.06 1041.6,-940.62 1048.91,-948.3 1052.1,-942.06"/>
</g>
<!-- Node0x55f604646578&#45;&gt;Node0x55f6046458f8 -->
<g id="edge90" class="edge">
<title>Node0x55f604646578&#45;&gt;Node0x55f6046458f8</title>
<path fill="none" stroke="#7fb2ff" d="M1283.84,-1277.71C1254.49,-1271.53 1227.87,-1258.16 1212,-1232.48 1197.05,-1208.28 1197.05,-744.68 1212,-720.48 1227.63,-695.19 1253.69,-681.84 1282.51,-675.53"/>
<polygon fill="#7fb2ff" stroke="#7fb2ff" points="1283.21,-678.96 1292.38,-673.66 1281.9,-672.09 1283.21,-678.96"/>
</g>
<!-- Node0x55f604646578&#45;&gt;Node0x55f6046482d8 -->
<g id="edge91" class="edge">
<title>Node0x55f604646578&#45;&gt;Node0x55f6046482d8</title>
<path fill="none" stroke="#7fb2ff" d="M1432,-1250.27C1432,-1247.79 1432,-1245.31 1432,-1242.82"/>
<polygon fill="#7fb2ff" stroke="#7fb2ff" points="1435.5,-1242.62 1432,-1232.62 1428.5,-1242.62 1435.5,-1242.62"/>
</g>
<!-- Node0x55f604646578&#45;&gt;Node0x55f604649908 -->
<g id="edge92" class="edge">
<title>Node0x55f604646578&#45;&gt;Node0x55f604649908</title>
<path fill="none" stroke="black" d="M1283.84,-1277.71C1254.49,-1271.53 1227.87,-1258.16 1212,-1232.48 1195.47,-1205.73 1203.81,-696.84 1212,-666.48 1251.4,-520.45 1362.69,-372.8 1410.14,-314.48"/>
<polygon fill="black" stroke="black" points="1413.02,-316.48 1416.66,-306.53 1407.61,-312.04 1413.02,-316.48"/>
</g>
<!-- Node0x55f6046458f8&#45;&gt;Node0x55f604648c38 -->
<g id="edge18" class="edge">
<title>Node0x55f6046458f8&#45;&gt;Node0x55f604648c38</title>
<path fill="none" stroke="#7fb2ff" d="M1292.43,-680.39C1269.29,-685.68 1247.24,-695.24 1230,-711.48 1169.35,-768.62 1254.49,-838.17 1194,-895.48 1188.44,-900.75 1182.36,-905.29 1175.88,-909.2"/>
<polygon fill="#7fb2ff" stroke="#7fb2ff" points="1173.92,-906.28 1166.83,-914.15 1177.28,-912.43 1173.92,-906.28"/>
</g>
<!-- Node0x55f6046458f8&#45;&gt;Node0x55f604649908 -->
<g id="edge17" class="edge">
<title>Node0x55f6046458f8&#45;&gt;Node0x55f604649908</title>
<path fill="none" stroke="black" d="M1432,-666.4C1432,-549.88 1432,-433.36 1432,-316.84"/>
<polygon fill="black" stroke="black" points="1435.5,-316.66 1432,-306.66 1428.5,-316.66 1435.5,-316.66"/>
</g>
<!-- Node0x55f6046482d8&#45;&gt;Node0x55f604645c68 -->
<g id="edge66" class="edge">
<title>Node0x55f6046482d8&#45;&gt;Node0x55f604645c68</title>
<path fill="none" stroke="#7fb2ff" d="M1293.44,-1209.58C1270.85,-1204.15 1248.73,-1195.61 1230,-1182.48 1202.96,-1163.52 1221.22,-1136.19 1194,-1117.48 1181.22,-1108.7 1166.83,-1102.2 1151.82,-1097.45"/>
<polygon fill="#7fb2ff" stroke="#7fb2ff" points="1152.46,-1093.99 1141.88,-1094.57 1150.51,-1100.71 1152.46,-1093.99"/>
</g>
<!-- Node0x55f6046482d8&#45;&gt;Node0x55f604648c38 -->
<g id="edge69" class="edge">
<title>Node0x55f6046482d8&#45;&gt;Node0x55f604648c38</title>
<path fill="none" stroke="#7fb2ff" d="M1293.41,-1196.44C1270.31,-1187.4 1248.02,-1175.05 1230,-1158.48 1199.5,-1130.43 1219.65,-1105.02 1194,-1072.48 1149.68,-1016.25 1077.47,-971.68 1035.23,-945.89"/>
<polygon fill="#7fb2ff" stroke="#7fb2ff" points="1036.79,-942.74 1026.43,-940.52 1033.14,-948.72 1036.79,-942.74"/>
</g>
<!-- Node0x55f6046482d8&#45;&gt;Node0x55f604649d18 -->
<g id="edge67" class="edge">
<title>Node0x55f6046482d8&#45;&gt;Node0x55f604649d18</title>
<path fill="none" stroke="#7fb2ff" d="M1432,-1196.35C1432,-1181.31 1432,-1166.26 1432,-1151.22"/>
<polygon fill="#7fb2ff" stroke="#7fb2ff" points="1435.5,-1150.81 1432,-1140.81 1428.5,-1150.81 1435.5,-1150.81"/>
</g>
<!-- Node0x55f604648508 -->
<g id="node19" class="node">
<title>Node0x55f604648508</title>
<polygon fill="#7fb2ff" stroke="black" points="2017,-1194.48 1670,-1194.48 1670,-1158.48 2017,-1158.48 2017,-1194.48"/>
<text text-anchor="middle" x="1843.5" y="-1172.78" font-family="Times,serif" font-size="14.00">{lib/libLLVMSupport.a(ManagedStatic.cpp.o)}</text>
</g>
<!-- Node0x55f6046482d8&#45;&gt;Node0x55f604648508 -->
<g id="edge68" class="edge">
<title>Node0x55f6046482d8&#45;&gt;Node0x55f604648508</title>
<path fill="none" stroke="#7fb2ff" d="M1570.78,-1201.69C1599.37,-1199.04 1629.92,-1196.21 1659.83,-1193.43"/>
<polygon fill="#7fb2ff" stroke="#7fb2ff" points="1660.31,-1196.9 1669.94,-1192.49 1659.66,-1189.93 1660.31,-1196.9"/>
</g>
<!-- Node0x55f604645a38&#45;&gt;Node0x55f6046475b8 -->
<g id="edge120" class="edge">
<title>Node0x55f604645a38&#45;&gt;Node0x55f6046475b8</title>
<path fill="none" stroke="#7fb2ff" d="M1284.4,-1328.58C1264.95,-1323.61 1246.18,-1315.9 1230,-1304.48 1201.42,-1284.31 1222.52,-1254.74 1194,-1234.48 1179.86,-1224.43 1163.63,-1217.33 1146.73,-1212.33"/>
<polygon fill="#7fb2ff" stroke="#7fb2ff" points="1147.27,-1208.85 1136.71,-1209.62 1145.44,-1215.61 1147.27,-1208.85"/>
</g>
<!-- Node0x55f604645a38&#45;&gt;Node0x55f6046482d8 -->
<g id="edge117" class="edge">
<title>Node0x55f604645a38&#45;&gt;Node0x55f6046482d8</title>
<path fill="none" stroke="#7fb2ff" d="M1284.24,-1316.96C1230.18,-1308.56 1187.54,-1290.05 1212,-1250.48 1227.77,-1224.97 1254.15,-1211.6 1283.27,-1205.37"/>
<polygon fill="#7fb2ff" stroke="#7fb2ff" points="1284.04,-1208.78 1293.24,-1203.52 1282.77,-1201.9 1284.04,-1208.78"/>
</g>
<!-- Node0x55f604645a38&#45;&gt;Node0x55f604649908 -->
<g id="edge118" class="edge">
<title>Node0x55f604645a38&#45;&gt;Node0x55f604649908</title>
<path fill="none" stroke="black" d="M1284.41,-1331.83C1254.84,-1325.7 1227.97,-1312.32 1212,-1286.48 1193.89,-1257.18 1203.03,-699.74 1212,-666.48 1251.4,-520.45 1362.69,-372.8 1410.14,-314.48"/>
<polygon fill="black" stroke="black" points="1413.02,-316.48 1416.66,-306.53 1407.61,-312.04 1413.02,-316.48"/>
</g>
<!-- Node0x55f604645a38&#45;&gt;Node0x55f604648508 -->
<g id="edge119" class="edge">
<title>Node0x55f604645a38&#45;&gt;Node0x55f604648508</title>
<path fill="none" stroke="#7fb2ff" d="M1579.72,-1309.49C1598.24,-1305.9 1616.74,-1301.32 1634,-1295.48 1700.62,-1272.95 1770,-1228.42 1809.56,-1200.68"/>
<polygon fill="#7fb2ff" stroke="#7fb2ff" points="1811.88,-1203.33 1818.01,-1194.69 1807.83,-1197.62 1811.88,-1203.33"/>
</g>
<!-- Node0x55f6046462a8 -->
<g id="node20" class="node">
<title>Node0x55f6046462a8</title>
<polygon fill="#7fb2ff" stroke="black" points="2009.5,-637.48 1677.5,-637.48 1677.5,-601.48 2009.5,-601.48 2009.5,-637.48"/>
<text text-anchor="middle" x="1843.5" y="-615.78" font-family="Times,serif" font-size="14.00">{lib/libLLVMSupport.a(StringExtras.cpp.o)}</text>
</g>
<!-- Node0x55f604645a38&#45;&gt;Node0x55f6046462a8 -->
<g id="edge121" class="edge">
<title>Node0x55f604645a38&#45;&gt;Node0x55f6046462a8</title>
<path fill="none" stroke="#7fb2ff" d="M1579.75,-1326.73C1600.31,-1320.98 1619.38,-1311.21 1634,-1295.48 1723.74,-1198.95 1596.76,-813.06 1670,-703.48 1690.05,-673.49 1724.01,-653.84 1756.52,-641.15"/>
<polygon fill="#7fb2ff" stroke="#7fb2ff" points="1757.94,-644.35 1766.09,-637.59 1755.5,-637.79 1757.94,-644.35"/>
</g>
<!-- Node0x55f60464a268&#45;&gt;Node0x55f604646c08 -->
<g id="edge123" class="edge">
<title>Node0x55f60464a268&#45;&gt;Node0x55f604646c08</title>
<path fill="none" stroke="#7fb2ff" d="M1280.84,-916.77C1262.88,-911.98 1245.46,-905.13 1230,-895.48 1205.53,-880.2 1218.42,-856.83 1194,-841.48 1184.7,-835.64 1174.66,-830.84 1164.21,-826.93"/>
<polygon fill="#7fb2ff" stroke="#7fb2ff" points="1165.1,-823.53 1154.51,-823.57 1162.81,-830.15 1165.1,-823.53"/>
</g>
<!-- Node0x55f60464a268&#45;&gt;Node0x55f604648c38 -->
<g id="edge125" class="edge">
<title>Node0x55f60464a268&#45;&gt;Node0x55f604648c38</title>
<path fill="none" stroke="#7fb2ff" d="M1280.9,-928.95C1247.29,-929.25 1211.35,-929.31 1176.82,-929.13"/>
<polygon fill="#7fb2ff" stroke="#7fb2ff" points="1176.66,-925.63 1166.63,-929.07 1176.61,-932.63 1176.66,-925.63"/>
</g>
<!-- Node0x55f60464a268&#45;&gt;Node0x55f6046475b8 -->
<g id="edge126" class="edge">
<title>Node0x55f60464a268&#45;&gt;Node0x55f6046475b8</title>
<path fill="none" stroke="#7fb2ff" d="M1280.77,-920.91C1261.85,-926.62 1244.19,-935.67 1230,-949.48 1158.36,-1019.19 1265.43,-1101.56 1194,-1171.48 1180.77,-1184.43 1164.38,-1193.07 1146.78,-1198.65"/>
<polygon fill="#7fb2ff" stroke="#7fb2ff" points="1145.56,-1195.35 1136.89,-1201.44 1147.47,-1202.09 1145.56,-1195.35"/>
</g>
<!-- Node0x55f60464a268&#45;&gt;Node0x55f6046462a8 -->
<g id="edge127" class="edge">
<title>Node0x55f60464a268&#45;&gt;Node0x55f6046462a8</title>
<path fill="none" stroke="#7fb2ff" d="M1583.17,-923.65C1602.04,-917.99 1619.7,-909.06 1634,-895.48 1696.96,-835.7 1617.35,-772.52 1670,-703.48 1692.61,-673.83 1728.43,-654.05 1761.59,-641.17"/>
<polygon fill="#7fb2ff" stroke="#7fb2ff" points="1763.16,-644.32 1771.32,-637.56 1760.72,-637.76 1763.16,-644.32"/>
</g>
<!-- Node0x55f604647748 -->
<g id="node21" class="node">
<title>Node0x55f604647748</title>
<polygon fill="#7fb2ff" stroke="black" points="2005.5,-940.48 1681.5,-940.48 1681.5,-904.48 2005.5,-904.48 2005.5,-940.48"/>
<text text-anchor="middle" x="1843.5" y="-918.78" font-family="Times,serif" font-size="14.00">{lib/libLLVMSupport.a(StringSaver.cpp.o)}</text>
</g>
<!-- Node0x55f60464a268&#45;&gt;Node0x55f604647748 -->
<g id="edge122" class="edge">
<title>Node0x55f60464a268&#45;&gt;Node0x55f604647748</title>
<path fill="none" stroke="#7fb2ff" d="M1583.16,-922.48C1611.74,-922.48 1641.86,-922.48 1671.05,-922.48"/>
<polygon fill="#7fb2ff" stroke="#7fb2ff" points="1671.33,-925.98 1681.33,-922.48 1671.33,-918.98 1671.33,-925.98"/>
</g>
<!-- Node0x55f604648d28 -->
<g id="node22" class="node">
<title>Node0x55f604648d28</title>
<polygon fill="none" stroke="black" points="1998.5,-260.48 1688.5,-260.48 1688.5,-224.48 1998.5,-224.48 1998.5,-260.48"/>
<text text-anchor="middle" x="1843.5" y="-238.78" font-family="Times,serif" font-size="14.00">{lib/libLLVMSupport.a(MemAlloc.cpp.o)}</text>
</g>
<!-- Node0x55f60464a268&#45;&gt;Node0x55f604648d28 -->
<g id="edge124" class="edge">
<title>Node0x55f60464a268&#45;&gt;Node0x55f604648d28</title>
<path fill="none" stroke="black" d="M1583.09,-925.53C1602.32,-919.69 1620.11,-910.21 1634,-895.48 1707.68,-817.32 1625.01,-511.01 1670,-413.48 1699.68,-349.13 1764.73,-295.58 1805.92,-266.38"/>
<polygon fill="black" stroke="black" points="1808.12,-269.11 1814.32,-260.52 1804.12,-263.37 1808.12,-269.11"/>
</g>
<!-- Node0x55f604649638 -->
<g id="node23" class="node">
<title>Node0x55f604649638</title>
<polygon fill="none" stroke="black" points="1984,-886.48 1703,-886.48 1703,-850.48 1984,-850.48 1984,-886.48"/>
<text text-anchor="middle" x="1843.5" y="-864.78" font-family="Times,serif" font-size="14.00">{lib/libLLVMSupport.a(Errno.cpp.o)}</text>
</g>
<!-- Node0x55f60464a268&#45;&gt;Node0x55f604649638 -->
<g id="edge128" class="edge">
<title>Node0x55f60464a268&#45;&gt;Node0x55f604649638</title>
<path fill="none" stroke="black" d="M1569.64,-904.46C1610.15,-899.12 1654.66,-893.25 1695.77,-887.83"/>
<polygon fill="black" stroke="black" points="1696.41,-891.27 1705.87,-886.5 1695.5,-884.33 1696.41,-891.27"/>
</g>
<!-- Node0x55f604647478&#45;&gt;Node0x55f604646c08 -->
<g id="edge54" class="edge">
<title>Node0x55f604647478&#45;&gt;Node0x55f604646c08</title>
<path fill="none" stroke="#7fb2ff" d="M1260.99,-968.21C1249.85,-963.37 1239.36,-957.22 1230,-949.48 1191.02,-917.22 1232.89,-873.85 1194,-841.48 1185.07,-834.05 1175.07,-828.13 1164.43,-823.45"/>
<polygon fill="#7fb2ff" stroke="#7fb2ff" points="1165.52,-820.11 1154.94,-819.64 1162.92,-826.61 1165.52,-820.11"/>
</g>
<!-- Node0x55f604647478&#45;&gt;Node0x55f604645c68 -->
<g id="edge56" class="edge">
<title>Node0x55f604647478&#45;&gt;Node0x55f604645c68</title>
<path fill="none" stroke="#7fb2ff" d="M1362.91,-994.55C1285.88,-1015 1160.66,-1048.24 1079.69,-1069.73"/>
<polygon fill="#7fb2ff" stroke="#7fb2ff" points="1078.32,-1066.47 1069.56,-1072.42 1080.12,-1073.23 1078.32,-1066.47"/>
</g>
<!-- Node0x55f604647478&#45;&gt;Node0x55f604648c38 -->
<g id="edge62" class="edge">
<title>Node0x55f604647478&#45;&gt;Node0x55f604648c38</title>
<path fill="none" stroke="#7fb2ff" d="M1287.7,-958.46C1245.04,-953.1 1198.13,-947.2 1154.86,-941.76"/>
<polygon fill="#7fb2ff" stroke="#7fb2ff" points="1155.17,-938.27 1144.82,-940.5 1154.3,-945.22 1155.17,-938.27"/>
</g>
<!-- Node0x55f604647478&#45;&gt;Node0x55f6046475b8 -->
<g id="edge64" class="edge">
<title>Node0x55f604647478&#45;&gt;Node0x55f6046475b8</title>
<path fill="none" stroke="#7fb2ff" d="M1310.89,-994.53C1281.15,-1004.16 1251.63,-1018.91 1230,-1041.48 1188.52,-1084.77 1239.07,-1131.95 1194,-1171.48 1180.3,-1183.5 1163.81,-1191.64 1146.33,-1197.02"/>
<polygon fill="#7fb2ff" stroke="#7fb2ff" points="1145.23,-1193.69 1136.52,-1199.73 1147.09,-1200.44 1145.23,-1193.69"/>
</g>
<!-- Node0x55f604647478&#45;&gt;Node0x55f6046482d8 -->
<g id="edge57" class="edge">
<title>Node0x55f604647478&#45;&gt;Node0x55f6046482d8</title>
<path fill="none" stroke="#7fb2ff" d="M1286.77,-994.54C1256.61,-1005.66 1228.9,-1023.14 1212,-1050.48 1197.63,-1073.73 1197.63,-1150.23 1212,-1173.48 1227.83,-1199.09 1254.23,-1212.95 1283.36,-1219.83"/>
<polygon fill="#7fb2ff" stroke="#7fb2ff" points="1282.83,-1223.3 1293.33,-1221.91 1284.25,-1216.44 1282.83,-1223.3"/>
</g>
<!-- Node0x55f604647478&#45;&gt;Node0x55f604649d18 -->
<g id="edge58" class="edge">
<title>Node0x55f604647478&#45;&gt;Node0x55f604649d18</title>
<path fill="none" stroke="#7fb2ff" d="M1308.86,-994.54C1243.37,-1010.05 1181.97,-1037.9 1212,-1086.48 1221.52,-1101.89 1234.92,-1112.87 1250.46,-1120.52"/>
<polygon fill="#7fb2ff" stroke="#7fb2ff" points="1249.28,-1123.83 1259.84,-1124.65 1252.1,-1117.42 1249.28,-1123.83"/>
</g>
<!-- Node0x55f604647478&#45;&gt;Node0x55f604648508 -->
<g id="edge59" class="edge">
<title>Node0x55f604647478&#45;&gt;Node0x55f604648508</title>
<path fill="none" stroke="#7fb2ff" d="M1549.98,-994.53C1580.51,-1004.15 1611.21,-1018.89 1634,-1041.48 1669.94,-1077.1 1631.37,-1116.8 1670,-1149.48 1671.19,-1150.49 1672.41,-1151.47 1673.64,-1152.42"/>
<polygon fill="#7fb2ff" stroke="#7fb2ff" points="1671.87,-1155.45 1682.08,-1158.28 1675.87,-1149.7 1671.87,-1155.45"/>
</g>
<!-- Node0x55f604647478&#45;&gt;Node0x55f604647748 -->
<g id="edge53" class="edge">
<title>Node0x55f604647478&#45;&gt;Node0x55f604647748</title>
<path fill="none" stroke="#7fb2ff" d="M1569.64,-958.46C1610.15,-953.12 1654.66,-947.25 1695.77,-941.83"/>
<polygon fill="#7fb2ff" stroke="#7fb2ff" points="1696.41,-945.27 1705.87,-940.5 1695.5,-938.33 1696.41,-945.27"/>
</g>
<!-- Node0x55f604647478&#45;&gt;Node0x55f604648d28 -->
<g id="edge60" class="edge">
<title>Node0x55f604647478&#45;&gt;Node0x55f604648d28</title>
<path fill="none" stroke="black" d="M1603.08,-971.89C1614.57,-966.32 1625.1,-958.99 1634,-949.48 1715.56,-862.31 1620.41,-522.07 1670,-413.48 1699.44,-349.02 1764.56,-295.5 1805.83,-266.34"/>
<polygon fill="black" stroke="black" points="1808.04,-269.07 1814.25,-260.49 1804.04,-263.32 1808.04,-269.07"/>
</g>
<!-- Node0x55f604648418 -->
<g id="node24" class="node">
<title>Node0x55f604648418</title>
<polygon fill="#7fb2ff" stroke="black" points="2001.5,-748.48 1685.5,-748.48 1685.5,-712.48 2001.5,-712.48 2001.5,-748.48"/>
<text text-anchor="middle" x="1843.5" y="-726.78" font-family="Times,serif" font-size="14.00">{lib/libLLVMSupport.a(StringMap.cpp.o)}</text>
</g>
<!-- Node0x55f604647478&#45;&gt;Node0x55f604648418 -->
<g id="edge52" class="edge">
<title>Node0x55f604647478&#45;&gt;Node0x55f604648418</title>
<path fill="none" stroke="#7fb2ff" d="M1603.3,-970.05C1614.52,-964.83 1624.94,-958.09 1634,-949.48 1696.96,-889.7 1607.69,-817.94 1670,-757.48 1672.19,-755.35 1674.48,-753.35 1676.85,-751.47"/>
<polygon fill="#7fb2ff" stroke="#7fb2ff" points="1679.1,-754.16 1685.22,-745.52 1675.04,-748.46 1679.1,-754.16"/>
</g>
<!-- Node0x55f604646118 -->
<g id="node25" class="node">
<title>Node0x55f604646118</title>
<polygon fill="#7fb2ff" stroke="black" points="1984,-458.48 1703,-458.48 1703,-422.48 1984,-422.48 1984,-458.48"/>
<text text-anchor="middle" x="1843.5" y="-436.78" font-family="Times,serif" font-size="14.00">{lib/libLLVMSupport.a(Triple.cpp.o)}</text>
</g>
<!-- Node0x55f604647478&#45;&gt;Node0x55f604646118 -->
<g id="edge55" class="edge">
<title>Node0x55f604647478&#45;&gt;Node0x55f604646118</title>
<path fill="none" stroke="#7fb2ff" d="M1603.2,-971.34C1614.59,-965.87 1625.06,-958.72 1634,-949.48 1689.44,-892.18 1633.57,-663.41 1670,-592.48 1699.39,-535.25 1760.15,-489.84 1801.13,-464.04"/>
<polygon fill="#7fb2ff" stroke="#7fb2ff" points="1803.14,-466.91 1809.81,-458.68 1799.46,-460.96 1803.14,-466.91"/>
</g>
<!-- Node0x55f6046476f8 -->
<g id="node26" class="node">
<title>Node0x55f6046476f8</title>
<polygon fill="#7fb2ff" stroke="black" points="2006.5,-1040.48 1680.5,-1040.48 1680.5,-1004.48 2006.5,-1004.48 2006.5,-1040.48"/>
<text text-anchor="middle" x="1843.5" y="-1018.78" font-family="Times,serif" font-size="14.00">{lib/libLLVMSupport.a(SmallPtrSet.cpp.o)}</text>
</g>
<!-- Node0x55f604647478&#45;&gt;Node0x55f6046476f8 -->
<g id="edge61" class="edge">
<title>Node0x55f604647478&#45;&gt;Node0x55f6046476f8</title>
<path fill="none" stroke="#7fb2ff" d="M1593.38,-994.5C1619.22,-997.4 1646.05,-1000.41 1672.12,-1003.34"/>
<polygon fill="#7fb2ff" stroke="#7fb2ff" points="1671.75,-1006.82 1682.07,-1004.46 1672.53,-999.86 1671.75,-1006.82"/>
</g>
<!-- Node0x55f604647ce8 -->
<g id="node27" class="node">
<title>Node0x55f604647ce8</title>
<polygon fill="#7fb2ff" stroke="black" points="1980,-802.48 1707,-802.48 1707,-766.48 1980,-766.48 1980,-802.48"/>
<text text-anchor="middle" x="1843.5" y="-780.78" font-family="Times,serif" font-size="14.00">{lib/libLLVMSupport.a(Host.cpp.o)}</text>
</g>
<!-- Node0x55f604647478&#45;&gt;Node0x55f604647ce8 -->
<g id="edge63" class="edge">
<title>Node0x55f604647478&#45;&gt;Node0x55f604647ce8</title>
<path fill="none" stroke="#7fb2ff" d="M1603.01,-968.21C1614.15,-963.37 1624.64,-957.22 1634,-949.48 1672.98,-917.22 1634.18,-877.21 1670,-841.48 1685.85,-825.67 1706.18,-814.24 1727.28,-805.98"/>
<polygon fill="#7fb2ff" stroke="#7fb2ff" points="1728.51,-809.26 1736.69,-802.52 1726.09,-802.69 1728.51,-809.26"/>
</g>
<!-- Node0x55f604649d18&#45;&gt;Node0x55f604645c68 -->
<g id="edge19" class="edge">
<title>Node0x55f604649d18&#45;&gt;Node0x55f604645c68</title>
<path fill="none" stroke="#7fb2ff" d="M1259.64,-1109.71C1223.97,-1107.06 1186.63,-1104.27 1151.78,-1101.68"/>
<polygon fill="#7fb2ff" stroke="#7fb2ff" points="1151.77,-1098.17 1141.54,-1100.91 1151.25,-1105.15 1151.77,-1098.17"/>
</g>
<!-- Node0x55f604649d18&#45;&gt;Node0x55f604648c38 -->
<g id="edge20" class="edge">
<title>Node0x55f604649d18&#45;&gt;Node0x55f604648c38</title>
<path fill="none" stroke="#7fb2ff" d="M1259.82,-1115.71C1249.54,-1112.56 1239.52,-1108.85 1230,-1104.48 1210.54,-1095.55 1210.65,-1085.93 1194,-1072.48 1136.62,-1026.14 1065.95,-976.06 1028.22,-946.83"/>
<polygon fill="#7fb2ff" stroke="#7fb2ff" points="1030.28,-943.99 1020.25,-940.56 1025.95,-949.49 1030.28,-943.99"/>
</g>
<!-- Node0x55f604649d18&#45;&gt;Node0x55f6046467a8 -->
<g id="edge21" class="edge">
<title>Node0x55f604649d18&#45;&gt;Node0x55f6046467a8</title>
<path fill="none" stroke="#7fb2ff" d="M1529.66,-1104.36C1541.56,-1099.9 1544.49,-1095.44 1538.45,-1090.98"/>
<polygon fill="#7fb2ff" stroke="#7fb2ff" points="1539.94,-1087.81 1529.43,-1086.52 1536.84,-1094.08 1539.94,-1087.81"/>
</g>
<!-- Node0x55f604645fd8&#45;&gt;Node0x55f604646c08 -->
<g id="edge22" class="edge">
<title>Node0x55f604645fd8&#45;&gt;Node0x55f604646c08</title>
<path fill="none" stroke="#7fb2ff" d="M1313.71,-756.5C1286.22,-760.9 1257.06,-765.72 1230,-770.48 1187.82,-777.9 1141.39,-786.72 1101.46,-794.51"/>
<polygon fill="#7fb2ff" stroke="#7fb2ff" points="1100.6,-791.11 1091.45,-796.46 1101.94,-797.98 1100.6,-791.11"/>
</g>
<!-- Node0x55f604646f78&#45;&gt;Node0x55f604648c38 -->
<g id="edge145" class="edge">
<title>Node0x55f604646f78&#45;&gt;Node0x55f604648c38</title>
<path fill="none" stroke="#7fb2ff" d="M1333.56,-886.49C1287.13,-893.2 1230.16,-900.66 1176.59,-907.11"/>
<polygon fill="#7fb2ff" stroke="#7fb2ff" points="1176.15,-903.64 1166.63,-908.31 1176.98,-910.59 1176.15,-903.64"/>
</g>
<!-- Node0x55f6046467a8&#45;&gt;Node0x55f604646c08 -->
<g id="edge76" class="edge">
<title>Node0x55f6046467a8&#45;&gt;Node0x55f604646c08</title>
<path fill="none" stroke="#7fb2ff" d="M1285.91,-1067.34C1265.08,-1061.31 1245.49,-1051.59 1230,-1036.48 1166.92,-974.94 1257.65,-902.44 1194,-841.48 1185.24,-833.09 1175.15,-826.53 1164.27,-821.44"/>
<polygon fill="#7fb2ff" stroke="#7fb2ff" points="1165.53,-818.17 1154.95,-817.5 1162.8,-824.62 1165.53,-818.17"/>
</g>
<!-- Node0x55f6046467a8&#45;&gt;Node0x55f604645c68 -->
<g id="edge77" class="edge">
<title>Node0x55f6046467a8&#45;&gt;Node0x55f604645c68</title>
<path fill="none" stroke="#7fb2ff" d="M1285.99,-1075.91C1242.73,-1078.12 1195.23,-1080.56 1151.65,-1082.79"/>
<polygon fill="#7fb2ff" stroke="#7fb2ff" points="1151.35,-1079.3 1141.54,-1083.31 1151.71,-1086.29 1151.35,-1079.3"/>
</g>
<!-- Node0x55f6046467a8&#45;&gt;Node0x55f604648af8 -->
<g id="edge83" class="edge">
<title>Node0x55f6046467a8&#45;&gt;Node0x55f604648af8</title>
<path fill="none" stroke="#7fb2ff" d="M1285.76,-1066.05C1265.07,-1071.59 1245.57,-1080.81 1230,-1095.48 1169.35,-1152.62 1254.49,-1222.17 1194,-1279.48 1189.61,-1283.64 1184.88,-1287.36 1179.9,-1290.66"/>
<polygon fill="#7fb2ff" stroke="#7fb2ff" points="1178.04,-1287.69 1171.27,-1295.84 1181.65,-1293.69 1178.04,-1287.69"/>
</g>
<!-- Node0x55f6046467a8&#45;&gt;Node0x55f604648c38 -->
<g id="edge84" class="edge">
<title>Node0x55f6046467a8&#45;&gt;Node0x55f604648c38</title>
<path fill="none" stroke="#7fb2ff" d="M1285.91,-1063.29C1265.74,-1057.64 1246.36,-1049.11 1230,-1036.48 1198.5,-1012.16 1225.42,-978.91 1194,-954.48 1188.21,-949.98 1182.02,-946.01 1175.54,-942.51"/>
<polygon fill="#7fb2ff" stroke="#7fb2ff" points="1177.05,-939.35 1166.54,-938.03 1173.93,-945.62 1177.05,-939.35"/>
</g>
<!-- Node0x55f6046467a8&#45;&gt;Node0x55f6046475b8 -->
<g id="edge86" class="edge">
<title>Node0x55f6046467a8&#45;&gt;Node0x55f6046475b8</title>
<path fill="none" stroke="#7fb2ff" d="M1285.87,-1079.23C1265.82,-1084.46 1246.49,-1092.43 1230,-1104.48 1199.82,-1126.53 1224.11,-1158.34 1194,-1180.48 1179.91,-1190.84 1163.63,-1198.11 1146.63,-1203.05"/>
<polygon fill="#7fb2ff" stroke="#7fb2ff" points="1145.34,-1199.77 1136.55,-1205.69 1147.11,-1206.54 1145.34,-1199.77"/>
</g>
<!-- Node0x55f6046467a8&#45;&gt;Node0x55f60464a268 -->
<g id="edge87" class="edge">
<title>Node0x55f6046467a8&#45;&gt;Node0x55f60464a268</title>
<path fill="none" stroke="#7fb2ff" d="M1285.91,-1074.42C1255.78,-1067.75 1228.29,-1053.84 1212,-1027.48 1195.88,-1001.39 1195.88,-984.57 1212,-958.48 1225.52,-936.61 1246.83,-923.67 1270.99,-916.49"/>
<polygon fill="#7fb2ff" stroke="#7fb2ff" points="1271.97,-919.85 1280.75,-913.93 1270.19,-913.08 1271.97,-919.85"/>
</g>
<!-- Node0x55f6046467a8&#45;&gt;Node0x55f604647478 -->
<g id="edge78" class="edge">
<title>Node0x55f6046467a8&#45;&gt;Node0x55f604647478</title>
<path fill="none" stroke="#7fb2ff" d="M1432,-1050.35C1432,-1035.31 1432,-1020.26 1432,-1005.22"/>
<polygon fill="#7fb2ff" stroke="#7fb2ff" points="1435.5,-1004.81 1432,-994.81 1428.5,-1004.81 1435.5,-1004.81"/>
</g>
<!-- Node0x55f6046467a8&#45;&gt;Node0x55f604649d18 -->
<g id="edge79" class="edge">
<title>Node0x55f6046467a8&#45;&gt;Node0x55f604649d18</title>
<path fill="none" stroke="#7fb2ff" d="M1334.57,-1086.52C1322.81,-1090.88 1319.64,-1095.25 1325.07,-1099.62"/>
<polygon fill="#7fb2ff" stroke="#7fb2ff" points="1323.84,-1102.92 1334.34,-1104.36 1327.03,-1096.69 1323.84,-1102.92"/>
</g>
<!-- Node0x55f6046467a8&#45;&gt;Node0x55f604645fd8 -->
<g id="edge80" class="edge">
<title>Node0x55f6046467a8&#45;&gt;Node0x55f604645fd8</title>
<path fill="none" stroke="#7fb2ff" d="M1285.91,-1074.42C1255.78,-1067.75 1228.29,-1053.84 1212,-1027.48 1191.32,-994.02 1191.44,-884.01 1212,-850.48 1240.45,-804.07 1294.81,-776.15 1342.38,-759.79"/>
<polygon fill="#7fb2ff" stroke="#7fb2ff" points="1343.71,-763.03 1352.11,-756.57 1341.51,-756.39 1343.71,-763.03"/>
</g>
<!-- Node0x55f6046467a8&#45;&gt;Node0x55f604646f78 -->
<g id="edge85" class="edge">
<title>Node0x55f6046467a8&#45;&gt;Node0x55f604646f78</title>
<path fill="none" stroke="#7fb2ff" d="M1285.91,-1074.42C1255.78,-1067.75 1228.29,-1053.84 1212,-1027.48 1197.63,-1004.23 1197.63,-927.73 1212,-904.48 1219.14,-892.92 1228.47,-883.85 1239.24,-876.81"/>
<polygon fill="#7fb2ff" stroke="#7fb2ff" points="1241.3,-879.66 1248.17,-871.6 1237.77,-873.62 1241.3,-879.66"/>
</g>
<!-- Node0x55f6046467a8&#45;&gt;Node0x55f604648508 -->
<g id="edge81" class="edge">
<title>Node0x55f6046467a8&#45;&gt;Node0x55f604648508</title>
<path fill="none" stroke="#7fb2ff" d="M1578.21,-1072.92C1597.91,-1077.74 1617.13,-1084.94 1634,-1095.48 1658.47,-1110.76 1645.7,-1133.94 1670,-1149.48 1672.37,-1151 1674.8,-1152.44 1677.27,-1153.81"/>
<polygon fill="#7fb2ff" stroke="#7fb2ff" points="1675.93,-1157.06 1686.43,-1158.47 1679.11,-1150.82 1675.93,-1157.06"/>
</g>
<!-- Node0x55f6046467a8&#45;&gt;Node0x55f604648d28 -->
<g id="edge82" class="edge">
<title>Node0x55f6046467a8&#45;&gt;Node0x55f604648d28</title>
<path fill="none" stroke="black" d="M1564.75,-1050.41C1591.46,-1040.67 1616.64,-1025.87 1634,-1003.48 1714.48,-899.67 1615.8,-533.13 1670,-413.48 1699.16,-349.11 1764.06,-295.74 1805.42,-266.55"/>
<polygon fill="black" stroke="black" points="1807.64,-269.27 1813.86,-260.69 1803.65,-263.52 1807.64,-269.27"/>
</g>
<!-- Node0x55f60464a1c8 -->
<g id="node28" class="node">
<title>Node0x55f60464a1c8</title>
<polygon fill="#7fb2ff" stroke="black" points="1999.5,-1140.48 1687.5,-1140.48 1687.5,-1104.48 1999.5,-1104.48 1999.5,-1140.48"/>
<text text-anchor="middle" x="1843.5" y="-1118.78" font-family="Times,serif" font-size="14.00">{lib/libLLVMSupport.a(Threading.cpp.o)}</text>
</g>
<!-- Node0x55f6046467a8&#45;&gt;Node0x55f60464a1c8 -->
<g id="edge88" class="edge">
<title>Node0x55f6046467a8&#45;&gt;Node0x55f60464a1c8</title>
<path fill="none" stroke="#7fb2ff" d="M1569.64,-1086.5C1610.15,-1091.84 1654.66,-1097.71 1695.77,-1103.13"/>
<polygon fill="#7fb2ff" stroke="#7fb2ff" points="1695.5,-1106.63 1705.87,-1104.46 1696.41,-1099.69 1695.5,-1106.63"/>
</g>
<!-- Node0x55f604648508&#45;&gt;Node0x55f60464a1c8 -->
<g id="edge96" class="edge">
<title>Node0x55f604648508&#45;&gt;Node0x55f60464a1c8</title>
<path fill="none" stroke="#7fb2ff" d="M1843.5,-1158.27C1843.5,-1155.79 1843.5,-1153.31 1843.5,-1150.82"/>
<polygon fill="#7fb2ff" stroke="#7fb2ff" points="1847,-1150.62 1843.5,-1140.62 1840,-1150.62 1847,-1150.62"/>
</g>
<!-- Node0x55f6046462a8&#45;&gt;Node0x55f604646c08 -->
<g id="edge146" class="edge">
<title>Node0x55f6046462a8&#45;&gt;Node0x55f604646c08</title>
<path fill="none" stroke="#7fb2ff" d="M1803.37,-601.4C1702.89,-557.76 1429.67,-456.78 1230,-548.48 1120.7,-598.68 1044.01,-729.83 1014.69,-787.08"/>
<polygon fill="#7fb2ff" stroke="#7fb2ff" points="1011.45,-785.74 1010.09,-796.24 1017.71,-788.88 1011.45,-785.74"/>
</g>
<!-- Node0x55f6046462a8&#45;&gt;Node0x55f604648c38 -->
<g id="edge147" class="edge">
<title>Node0x55f6046462a8&#45;&gt;Node0x55f604648c38</title>
<path fill="none" stroke="#7fb2ff" d="M1782.25,-601.4C1660.53,-568.97 1383.83,-516.65 1230,-657.48 1151.09,-729.72 1270.05,-820.24 1194,-895.48 1188.47,-900.95 1182.39,-905.65 1175.88,-909.68"/>
<polygon fill="#7fb2ff" stroke="#7fb2ff" points="1173.79,-906.84 1166.76,-914.76 1177.2,-912.95 1173.79,-906.84"/>
</g>
<!-- Node0x55f604647748&#45;&gt;Node0x55f604646c08 -->
<g id="edge94" class="edge">
<title>Node0x55f604647748&#45;&gt;Node0x55f604646c08</title>
<path fill="none" stroke="#7fb2ff" d="M1686.43,-904.47C1680.74,-901.81 1675.23,-898.83 1670,-895.48 1645.7,-879.94 1659.14,-855.63 1634,-841.48 1461.55,-744.4 1218.78,-770.53 1089.93,-794.57"/>
<polygon fill="#7fb2ff" stroke="#7fb2ff" points="1089.26,-791.13 1080.09,-796.44 1090.57,-798.01 1089.26,-791.13"/>
</g>
<!-- Node0x55f604647748&#45;&gt;Node0x55f604648d28 -->
<g id="edge95" class="edge">
<title>Node0x55f604647748&#45;&gt;Node0x55f604648d28</title>
<path fill="none" stroke="black" d="M1681.43,-914.41C1669.64,-907.66 1659.47,-898.57 1652,-886.48 1624.9,-842.62 1631.54,-469.8 1652,-422.48 1682.71,-351.46 1756.76,-295.55 1803.26,-265.89"/>
<polygon fill="black" stroke="black" points="1805.27,-268.76 1811.89,-260.49 1801.55,-262.83 1805.27,-268.76"/>
</g>
<!-- Node0x55f604648418&#45;&gt;Node0x55f604649d18 -->
<g id="edge75" class="edge">
<title>Node0x55f604648418&#45;&gt;Node0x55f604649d18</title>
<path fill="none" stroke="#7fb2ff" d="M1685.13,-744.81C1679.68,-748.45 1674.6,-752.65 1670,-757.48 1565.83,-866.9 1739.35,-987.2 1634,-1095.48 1627.74,-1101.92 1620.72,-1107.34 1613.17,-1111.89"/>
<polygon fill="#7fb2ff" stroke="#7fb2ff" points="1611.19,-1108.98 1604.08,-1116.83 1614.53,-1115.13 1611.19,-1108.98"/>
</g>
<!-- Node0x55f604646118&#45;&gt;Node0x55f604646c08 -->
<g id="edge14" class="edge">
<title>Node0x55f604646118&#45;&gt;Node0x55f604646c08</title>
<path fill="none" stroke="#7fb2ff" d="M1702.69,-423.25C1547.24,-406.83 1307.75,-390.51 1230,-434.48 1091.41,-512.86 1027.61,-712.63 1008.21,-786.48"/>
<polygon fill="#7fb2ff" stroke="#7fb2ff" points="1004.75,-785.88 1005.67,-796.44 1011.54,-787.61 1004.75,-785.88"/>
</g>
<!-- Node0x55f604646118&#45;&gt;Node0x55f604645c68 -->
<g id="edge16" class="edge">
<title>Node0x55f604646118&#45;&gt;Node0x55f604645c68</title>
<path fill="none" stroke="#7fb2ff" d="M1703,-448.97C1560.63,-465.62 1344.77,-514.53 1230,-657.48 1148.14,-759.44 1260.18,-836.7 1194,-949.48 1161.44,-1004.97 1097.54,-1045.02 1052.31,-1067.95"/>
<polygon fill="#7fb2ff" stroke="#7fb2ff" points="1050.65,-1064.87 1043.24,-1072.44 1053.76,-1071.14 1050.65,-1064.87"/>
</g>
<!-- Node0x55f604645998 -->
<g id="node30" class="node">
<title>Node0x55f604645998</title>
<polygon fill="#7fb2ff" stroke="black" points="2418,-458.48 2053,-458.48 2053,-422.48 2418,-422.48 2418,-458.48"/>
<text text-anchor="middle" x="2235.5" y="-436.78" font-family="Times,serif" font-size="14.00">{lib/libLLVMSupport.a(ARMTargetParser.cpp.o)}</text>
</g>
<!-- Node0x55f604646118&#45;&gt;Node0x55f604645998 -->
<g id="edge15" class="edge">
<title>Node0x55f604646118&#45;&gt;Node0x55f604645998</title>
<path fill="none" stroke="#7fb2ff" d="M1984.2,-433.98C2003.27,-433.8 2023.11,-433.72 2042.9,-433.73"/>
<polygon fill="#7fb2ff" stroke="#7fb2ff" points="2042.92,-437.23 2052.93,-433.74 2042.93,-430.23 2042.92,-437.23"/>
</g>
<!-- Node0x55f6046476f8&#45;&gt;Node0x55f604649d18 -->
<g id="edge74" class="edge">
<title>Node0x55f6046476f8&#45;&gt;Node0x55f604649d18</title>
<path fill="none" stroke="#7fb2ff" d="M1799.34,-1040.49C1757.71,-1057.17 1692.56,-1081.45 1634,-1095.48 1623.14,-1098.08 1611.89,-1100.45 1600.51,-1102.61"/>
<polygon fill="#7fb2ff" stroke="#7fb2ff" points="1599.68,-1099.2 1590.48,-1104.45 1600.95,-1106.09 1599.68,-1099.2"/>
</g>
<!-- Node0x55f604647ce8&#45;&gt;Node0x55f604646c08 -->
<g id="edge98" class="edge">
<title>Node0x55f604647ce8&#45;&gt;Node0x55f604646c08</title>
<path fill="none" stroke="#7fb2ff" d="M1706.84,-777.86C1693.48,-773.06 1680.87,-766.46 1670,-757.48 1633.58,-727.4 1672.65,-684.64 1634,-657.48 1560.55,-605.86 1315.74,-630.86 1230,-657.48 1146.18,-683.5 1065.84,-752.11 1026.55,-789.43"/>
<polygon fill="#7fb2ff" stroke="#7fb2ff" points="1024.02,-787 1019.25,-796.46 1028.88,-792.04 1024.02,-787"/>
</g>
<!-- Node0x55f604647ce8&#45;&gt;Node0x55f604648c38 -->
<g id="edge101" class="edge">
<title>Node0x55f604647ce8&#45;&gt;Node0x55f604648c38</title>
<path fill="none" stroke="#7fb2ff" d="M1706.94,-783.72C1551.4,-785.15 1307.79,-795.08 1230,-841.48 1205.23,-856.26 1218.42,-880.13 1194,-895.48 1188.24,-899.1 1182.19,-902.32 1175.94,-905.17"/>
<polygon fill="#7fb2ff" stroke="#7fb2ff" points="1174.5,-901.98 1166.65,-909.1 1177.22,-908.43 1174.5,-901.98"/>
</g>
<!-- Node0x55f604647ce8&#45;&gt;Node0x55f604648d28 -->
<g id="edge100" class="edge">
<title>Node0x55f604647ce8&#45;&gt;Node0x55f604648d28</title>
<path fill="none" stroke="black" d="M1706.84,-786.98C1684.41,-780.44 1664.45,-768.62 1652,-748.48 1632.96,-717.67 1637.62,-455.73 1652,-422.48 1682.71,-351.46 1756.76,-295.55 1803.26,-265.89"/>
<polygon fill="black" stroke="black" points="1805.27,-268.76 1811.89,-260.49 1801.55,-262.83 1805.27,-268.76"/>
</g>
<!-- Node0x55f604647ce8&#45;&gt;Node0x55f604648418 -->
<g id="edge97" class="edge">
<title>Node0x55f604647ce8&#45;&gt;Node0x55f604648418</title>
<path fill="none" stroke="#7fb2ff" d="M1843.5,-766.27C1843.5,-763.79 1843.5,-761.31 1843.5,-758.82"/>
<polygon fill="#7fb2ff" stroke="#7fb2ff" points="1847,-758.62 1843.5,-748.62 1840,-758.62 1847,-758.62"/>
</g>
<!-- Node0x55f604647ce8&#45;&gt;Node0x55f604646118 -->
<g id="edge99" class="edge">
<title>Node0x55f604647ce8&#45;&gt;Node0x55f604646118</title>
<path fill="none" stroke="#7fb2ff" d="M1706.84,-786.98C1684.41,-780.44 1664.45,-768.62 1652,-748.48 1634.83,-720.69 1638.21,-631.09 1652,-601.48 1681.83,-537.44 1751.06,-489.78 1797.58,-463.54"/>
<polygon fill="#7fb2ff" stroke="#7fb2ff" points="1799.5,-466.48 1806.57,-458.58 1796.12,-460.35 1799.5,-466.48"/>
</g>
<!-- Node0x55f60464a1c8&#45;&gt;Node0x55f604646c08 -->
<g id="edge112" class="edge">
<title>Node0x55f60464a1c8&#45;&gt;Node0x55f604646c08</title>
<path fill="none" stroke="#7fb2ff" d="M1805.46,-1104.47C1764.53,-1085.43 1696.17,-1056.18 1634,-1041.48 1546.25,-1020.73 1297.62,-1063.14 1230,-1003.48 1174.69,-954.68 1248.18,-891.52 1194,-841.48 1185.09,-833.25 1174.89,-826.8 1163.93,-821.79"/>
<polygon fill="#7fb2ff" stroke="#7fb2ff" points="1165.15,-818.5 1154.57,-817.91 1162.47,-824.97 1165.15,-818.5"/>
</g>
<!-- Node0x55f60464a1c8&#45;&gt;Node0x55f604645c68 -->
<g id="edge113" class="edge">
<title>Node0x55f60464a1c8&#45;&gt;Node0x55f604645c68</title>
<path fill="none" stroke="#7fb2ff" d="M1724.23,-1140.48C1694.82,-1144.22 1663.32,-1147.59 1634,-1149.48 1454.82,-1161.03 1397.83,-1213.29 1230,-1149.48 1209.99,-1141.87 1213.43,-1126.46 1194,-1117.48 1180.56,-1111.27 1166.06,-1106.39 1151.28,-1102.57"/>
<polygon fill="#7fb2ff" stroke="#7fb2ff" points="1152.07,-1099.16 1141.53,-1100.21 1150.43,-1105.97 1152.07,-1099.16"/>
</g>
<!-- Node0x55f60464a1c8&#45;&gt;Node0x55f604649d18 -->
<g id="edge114" class="edge">
<title>Node0x55f60464a1c8&#45;&gt;Node0x55f604649d18</title>
<path fill="none" stroke="#7fb2ff" d="M1687.23,-1122.48C1663.41,-1122.48 1638.64,-1122.48 1614.32,-1122.48"/>
<polygon fill="#7fb2ff" stroke="#7fb2ff" points="1614.29,-1118.98 1604.29,-1122.48 1614.29,-1125.98 1614.29,-1118.98"/>
</g>
<!-- Node0x55f60464a1c8&#45;&gt;Node0x55f604648d28 -->
<g id="edge115" class="edge">
<title>Node0x55f60464a1c8&#45;&gt;Node0x55f604648d28</title>
<path fill="none" stroke="black" d="M1743.56,-1104.43C1708.11,-1092.57 1672.06,-1072.94 1652,-1040.48 1633.95,-1011.27 1638.37,-453.99 1652,-422.48 1682.71,-351.46 1756.76,-295.55 1803.26,-265.89"/>
<polygon fill="black" stroke="black" points="1805.27,-268.76 1811.89,-260.49 1801.55,-262.83 1805.27,-268.76"/>
</g>
<!-- Node0x55f60464a1c8&#45;&gt;Node0x55f604649638 -->
<g id="edge116" class="edge">
<title>Node0x55f60464a1c8&#45;&gt;Node0x55f604649638</title>
<path fill="none" stroke="black" d="M1743.56,-1104.43C1708.11,-1092.57 1672.06,-1072.94 1652,-1040.48 1636.11,-1014.77 1636.11,-930.19 1652,-904.48 1661.83,-888.58 1676.34,-877.86 1693.05,-870.84"/>
<polygon fill="black" stroke="black" points="1694.39,-874.07 1702.55,-867.3 1691.95,-867.51 1694.39,-874.07"/>
</g>
<!-- Node0x55f604646ed8 -->
<g id="node29" class="node">
<title>Node0x55f604646ed8</title>
<polygon fill="none" stroke="black" points="760.5,-750.48 414.5,-750.48 414.5,-714.48 760.5,-714.48 760.5,-750.48"/>
<text text-anchor="middle" x="587.5" y="-728.78" font-family="Times,serif" font-size="14.00">{lib/libLLVMSupport.a(ToolOutputFile.cpp.o)}</text>
</g>
<!-- Node0x55f604646ed8&#45;&gt;Node0x55f604648c38 -->
<g id="edge11" class="edge">
<title>Node0x55f604646ed8&#45;&gt;Node0x55f604648c38</title>
<path fill="none" stroke="black" d="M752,-750.65C758.78,-754.6 765.17,-759.18 771,-764.48 815.67,-805.11 761.64,-855.62 807,-895.48 812.66,-900.46 818.81,-904.77 825.3,-908.5"/>
<polygon fill="black" stroke="black" points="823.87,-911.71 834.36,-913.23 827.11,-905.5 823.87,-911.71"/>
</g>
<!-- Node0x55f604646ed8&#45;&gt;Node0x55f6046475b8 -->
<g id="edge12" class="edge">
<title>Node0x55f604646ed8&#45;&gt;Node0x55f6046475b8</title>
<path fill="none" stroke="black" d="M649.71,-750.55C691.05,-766.11 743.01,-792.93 771,-835.48 812.27,-898.22 754.77,-1117.52 807,-1171.48 820.07,-1184.98 836.56,-1193.89 854.37,-1199.56"/>
<polygon fill="black" stroke="black" points="853.81,-1203.04 864.39,-1202.39 855.71,-1196.3 853.81,-1203.04"/>
</g>
<!-- Node0x55f604646ed8&#45;&gt;Node0x55f6046467a8 -->
<g id="edge13" class="edge">
<title>Node0x55f604646ed8&#45;&gt;Node0x55f6046467a8</title>
<path fill="none" stroke="black" d="M753.91,-750.69C760.05,-754.65 765.79,-759.22 771,-764.48 840.09,-834.26 736.18,-914.45 807,-982.48 869.5,-1042.51 1108.24,-1018.02 1194,-1030.48 1210.05,-1032.81 1213.99,-1033.87 1230,-1036.48 1254.86,-1040.53 1281.46,-1044.81 1306.91,-1048.87"/>
<polygon fill="black" stroke="black" points="1306.55,-1052.36 1316.97,-1050.47 1307.65,-1045.44 1306.55,-1052.36"/>
</g>
<!-- Node0x55f604645998&#45;&gt;Node0x55f604646c08 -->
<g id="edge130" class="edge">
<title>Node0x55f604645998&#45;&gt;Node0x55f604646c08</title>
<path fill="none" stroke="#7fb2ff" d="M2102.1,-458.5C2074.05,-461.88 2044.58,-465.09 2017,-467.48 1929.78,-475.04 1307.21,-465.2 1230,-506.48 1111.85,-569.66 1038.25,-723.83 1012.18,-786.9"/>
<polygon fill="#7fb2ff" stroke="#7fb2ff" points="1008.91,-785.63 1008.4,-796.21 1015.4,-788.26 1008.91,-785.63"/>
</g>
<!-- Node0x55f604645998&#45;&gt;Node0x55f604646118 -->
<g id="edge131" class="edge">
<title>Node0x55f604645998&#45;&gt;Node0x55f604646118</title>
<path fill="none" stroke="#7fb2ff" d="M2052.93,-447.22C2033.35,-447.26 2013.6,-447.21 1994.45,-447.07"/>
<polygon fill="#7fb2ff" stroke="#7fb2ff" points="1994.23,-443.57 1984.2,-446.98 1994.17,-450.57 1994.23,-443.57"/>
</g>
<!-- Node0x55f604649548 -->
<g id="node31" class="node">
<title>Node0x55f604649548</title>
<polygon fill="none" stroke="black" points="336.5,-566.48 31.5,-566.48 31.5,-530.48 336.5,-530.48 336.5,-566.48"/>
<text text-anchor="middle" x="184" y="-544.78" font-family="Times,serif" font-size="14.00">{lib/libLLVMSupport.a(InitLLVM.cpp.o)}</text>
</g>
<!-- Node0x55f604649548&#45;&gt;Node0x55f604649d18 -->
<g id="edge23" class="edge">
<title>Node0x55f604649548&#45;&gt;Node0x55f604649d18</title>
<path fill="none" stroke="black" d="M285.66,-566.51C316.97,-577.23 348.38,-594.3 368,-621.48 447.34,-731.41 317.73,-1125.91 404,-1230.48 516.67,-1367.04 1054.63,-1442.66 1194,-1333.48 1246.61,-1292.27 1184.45,-1236.39 1230,-1187.48 1248.7,-1167.4 1273.64,-1153.51 1299.57,-1143.9"/>
<polygon fill="black" stroke="black" points="1300.87,-1147.15 1309.16,-1140.55 1298.56,-1140.54 1300.87,-1147.15"/>
</g>
<!-- Node0x55f604649548&#45;&gt;Node0x55f6046467a8 -->
<g id="edge27" class="edge">
<title>Node0x55f604649548&#45;&gt;Node0x55f6046467a8</title>
<path fill="none" stroke="black" d="M276.09,-566.61C309.17,-577.44 344.23,-594.55 368,-621.48 409.95,-669 355.63,-718.52 404,-759.48 466.49,-812.4 711.19,-736.55 771,-792.48 845.93,-862.55 731.62,-950.89 807,-1020.48 824.05,-1036.22 1096.41,-1052.34 1275.62,-1061.31"/>
<polygon fill="black" stroke="black" points="1275.52,-1064.81 1285.68,-1061.81 1275.86,-1057.82 1275.52,-1064.81"/>
</g>
<!-- Node0x55f604649548&#45;&gt;Node0x55f604648508 -->
<g id="edge24" class="edge">
<title>Node0x55f604649548&#45;&gt;Node0x55f604648508</title>
<path fill="none" stroke="black" d="M286.25,-566.6C317.41,-577.32 348.58,-594.37 368,-621.48 457.67,-746.66 317.01,-1186.42 404,-1313.48 514.92,-1475.5 615.01,-1453.34 807,-1494.48 1167,-1571.61 1312.85,-1626.52 1634,-1446.48 1735.61,-1389.52 1804.16,-1260.7 1830.47,-1204.07"/>
<polygon fill="black" stroke="black" points="1833.79,-1205.23 1834.75,-1194.68 1827.42,-1202.33 1833.79,-1205.23"/>
</g>
<!-- Node0x55f604649548&#45;&gt;Node0x55f604648d28 -->
<g id="edge25" class="edge">
<title>Node0x55f604649548&#45;&gt;Node0x55f604648d28</title>
<path fill="none" stroke="black" d="M189.43,-530.2C205.48,-468.46 267.04,-267.25 404,-190.48 523.22,-123.66 1498.35,-173.82 1634,-190.48 1682.4,-196.43 1735.74,-209.86 1776.35,-221.58"/>
<polygon fill="black" stroke="black" points="1775.55,-224.99 1786.13,-224.44 1777.51,-218.27 1775.55,-224.99"/>
</g>
<!-- Node0x55f604647a68 -->
<g id="node32" class="node">
<title>Node0x55f604647a68</title>
<polygon fill="none" stroke="black" points="769.5,-566.48 405.5,-566.48 405.5,-530.48 769.5,-530.48 769.5,-566.48"/>
<text text-anchor="middle" x="587.5" y="-544.78" font-family="Times,serif" font-size="14.00">{lib/libLLVMSupport.a(PrettyStackTrace.cpp.o)}</text>
</g>
<!-- Node0x55f604649548&#45;&gt;Node0x55f604647a68 -->
<g id="edge26" class="edge">
<title>Node0x55f604649548&#45;&gt;Node0x55f604647a68</title>
<path fill="none" stroke="black" d="M336.5,-548.48C355.61,-548.48 375.36,-548.48 394.98,-548.48"/>
<polygon fill="black" stroke="black" points="395.23,-551.98 405.23,-548.48 395.23,-544.98 395.23,-551.98"/>
</g>
<!-- Node0x55f604647a68&#45;&gt;Node0x55f604648c38 -->
<g id="edge109" class="edge">
<title>Node0x55f604647a68&#45;&gt;Node0x55f604648c38</title>
<path fill="none" stroke="black" d="M761.07,-566.6C764.56,-569.3 767.89,-572.25 771,-575.48 870.42,-678.43 707.19,-792.91 807,-895.48 812.63,-901.26 818.88,-906.2 825.6,-910.4"/>
<polygon fill="black" stroke="black" points="823.91,-913.47 834.34,-915.33 827.35,-907.37 823.91,-913.47"/>
</g>
<!-- Node0x55f604647a68&#45;&gt;Node0x55f6046467a8 -->
<g id="edge110" class="edge">
<title>Node0x55f604647a68&#45;&gt;Node0x55f6046467a8</title>
<path fill="none" stroke="black" d="M761.14,-566.53C764.61,-569.25 767.91,-572.23 771,-575.48 828.52,-636 747.64,-890.76 807,-949.48 868.36,-1010.18 1119.7,-938.55 1194,-982.48 1218.83,-997.16 1205.72,-1020.91 1230,-1036.48 1244.11,-1045.53 1259.89,-1052.33 1276.24,-1057.39"/>
<polygon fill="black" stroke="black" points="1275.35,-1060.78 1285.93,-1060.18 1277.29,-1054.05 1275.35,-1060.78"/>
</g>
<!-- Node0x55f604649cc8 -->
<g id="node44" class="node">
<title>Node0x55f604649cc8</title>
<polygon fill="none" stroke="black" points="1155.5,-886.48 845.5,-886.48 845.5,-850.48 1155.5,-850.48 1155.5,-886.48"/>
<text text-anchor="middle" x="1000.5" y="-864.78" font-family="Times,serif" font-size="14.00">{lib/libLLVMSupport.a(Watchdog.cpp.o)}</text>
</g>
<!-- Node0x55f604647a68&#45;&gt;Node0x55f604649cc8 -->
<g id="edge111" class="edge">
<title>Node0x55f604647a68&#45;&gt;Node0x55f604649cc8</title>
<path fill="none" stroke="black" d="M760.97,-566.69C764.5,-569.37 767.85,-572.29 771,-575.48 854.83,-660.36 722.85,-756.92 807,-841.48 815.38,-849.9 825.09,-856.51 835.61,-861.66"/>
<polygon fill="black" stroke="black" points="834.49,-864.99 845.05,-865.81 837.31,-858.58 834.49,-864.99"/>
</g>
<!-- Node0x55f604645f88 -->
<g id="node33" class="node">
<title>Node0x55f604645f88</title>
<polygon fill="none" stroke="black" points="759.5,-436.48 415.5,-436.48 415.5,-400.48 759.5,-400.48 759.5,-436.48"/>
<text text-anchor="middle" x="587.5" y="-414.78" font-family="Times,serif" font-size="14.00">{lib/libLLVMSupport.a(TargetRegistry.cpp.o)}</text>
</g>
<!-- Node0x55f604645f88&#45;&gt;Node0x55f604648c38 -->
<g id="edge50" class="edge">
<title>Node0x55f604645f88&#45;&gt;Node0x55f604648c38</title>
<path fill="none" stroke="black" d="M650.3,-436.62C691.63,-452.17 743.34,-478.93 771,-521.48 816.51,-591.48 749.25,-835.17 807,-895.48 812.58,-901.31 818.8,-906.28 825.48,-910.51"/>
<polygon fill="black" stroke="black" points="823.77,-913.56 834.19,-915.48 827.24,-907.48 823.77,-913.56"/>
</g>
<!-- Node0x55f604645f88&#45;&gt;Node0x55f604646118 -->
<g id="edge49" class="edge">
<title>Node0x55f604645f88&#45;&gt;Node0x55f604646118</title>
<path fill="none" stroke="black" d="M759.61,-404.34C967.03,-389.81 1326.94,-373.01 1634,-401.48 1673.89,-405.18 1717.52,-412.77 1754.51,-420.29"/>
<polygon fill="black" stroke="black" points="1754.26,-423.81 1764.76,-422.4 1755.68,-416.96 1754.26,-423.81"/>
</g>
<!-- Node0x55f604647ba8 -->
<g id="node34" class="node">
<title>Node0x55f604647ba8</title>
<polygon fill="none" stroke="black" points="1166.5,-1454.48 834.5,-1454.48 834.5,-1418.48 1166.5,-1418.48 1166.5,-1454.48"/>
<text text-anchor="middle" x="1000.5" y="-1432.78" font-family="Times,serif" font-size="14.00">{lib/libLLVMSupport.a(Compression.cpp.o)}</text>
</g>
<!-- Node0x55f604647ba8&#45;&gt;Node0x55f6046482d8 -->
<g id="edge65" class="edge">
<title>Node0x55f604647ba8&#45;&gt;Node0x55f6046482d8</title>
<path fill="none" stroke="black" d="M1166.77,-1423.45C1176.67,-1418.42 1185.89,-1412.17 1194,-1404.48 1247.82,-1353.42 1175.39,-1291.7 1230,-1241.48 1245.09,-1227.6 1263.71,-1218.64 1283.48,-1213.08"/>
<polygon fill="black" stroke="black" points="1284.43,-1216.45 1293.27,-1210.62 1282.72,-1209.66 1284.43,-1216.45"/>
</g>
<!-- Node0x55f604645d58 -->
<g id="node35" class="node">
<title>Node0x55f604645d58</title>
<polygon fill="none" stroke="black" points="771,-138.48 404,-138.48 404,-102.48 771,-102.48 771,-138.48"/>
<text text-anchor="middle" x="587.5" y="-116.78" font-family="Times,serif" font-size="14.00">{lib/libLLVMSupport.a(FormattedStream.cpp.o)}</text>
</g>
<!-- Node0x55f604645d58&#45;&gt;Node0x55f604648c38 -->
<g id="edge72" class="edge">
<title>Node0x55f604645d58&#45;&gt;Node0x55f604648c38</title>
<path fill="none" stroke="black" d="M605.86,-138.62C643.89,-179.68 734.12,-284.5 771,-391.48 807.6,-497.63 730.35,-813.43 807,-895.48 812.59,-901.46 818.85,-906.55 825.6,-910.87"/>
<polygon fill="black" stroke="black" points="823.98,-913.98 834.4,-915.93 827.47,-907.91 823.98,-913.98"/>
</g>
<!-- Node0x55f60464a308 -->
<g id="node36" class="node">
<title>Node0x55f60464a308</title>
<polygon fill="none" stroke="black" points="1149.5,-138.48 851.5,-138.48 851.5,-102.48 1149.5,-102.48 1149.5,-138.48"/>
<text text-anchor="middle" x="1000.5" y="-116.78" font-family="Times,serif" font-size="14.00">{lib/libLLVMSupport.a(Unicode.cpp.o)}</text>
</g>
<!-- Node0x55f604645d58&#45;&gt;Node0x55f60464a308 -->
<g id="edge70" class="edge">
<title>Node0x55f604645d58&#45;&gt;Node0x55f60464a308</title>
<path fill="none" stroke="black" d="M771.16,-120.48C794.51,-120.48 818.25,-120.48 841.17,-120.48"/>
<polygon fill="black" stroke="black" points="841.28,-123.98 851.28,-120.48 841.28,-116.98 841.28,-123.98"/>
</g>
<!-- Node0x55f6046480f8 -->
<g id="node37" class="node">
<title>Node0x55f6046480f8</title>
<polygon fill="none" stroke="black" points="1594.5,-84.48 1269.5,-84.48 1269.5,-48.48 1594.5,-48.48 1594.5,-84.48"/>
<text text-anchor="middle" x="1432" y="-62.78" font-family="Times,serif" font-size="14.00">{lib/libLLVMSupport.a(ConvertUTF.cpp.o)}</text>
</g>
<!-- Node0x55f604645d58&#45;&gt;Node0x55f6046480f8 -->
<g id="edge71" class="edge">
<title>Node0x55f604645d58&#45;&gt;Node0x55f6046480f8</title>
<path fill="none" stroke="black" d="M624.87,-102.42C667.34,-82.43 740.3,-51.45 807,-39.48 983.92,-7.74 1193.35,-28.43 1319.01,-46.95"/>
<polygon fill="black" stroke="black" points="1318.62,-50.43 1329.03,-48.45 1319.66,-43.51 1318.62,-50.43"/>
</g>
<!-- Node0x55f60464a308&#45;&gt;Node0x55f6046480f8 -->
<g id="edge108" class="edge">
<title>Node0x55f60464a308&#45;&gt;Node0x55f6046480f8</title>
<path fill="none" stroke="black" d="M1144.82,-102.46C1187.48,-97.1 1234.38,-91.2 1277.66,-85.76"/>
<polygon fill="black" stroke="black" points="1278.21,-89.22 1287.7,-84.5 1277.34,-82.27 1278.21,-89.22"/>
</g>
<!-- Node0x55f604647248 -->
<g id="node38" class="node">
<title>Node0x55f604647248</title>
<polygon fill="none" stroke="black" points="724.5,-620.48 450.5,-620.48 450.5,-584.48 724.5,-584.48 724.5,-620.48"/>
<text text-anchor="middle" x="587.5" y="-598.78" font-family="Times,serif" font-size="14.00">{lib/libLLVMSupport.a(MD5.cpp.o)}</text>
</g>
<!-- Node0x55f604647248&#45;&gt;Node0x55f604648c38 -->
<g id="edge73" class="edge">
<title>Node0x55f604647248&#45;&gt;Node0x55f604648c38</title>
<path fill="none" stroke="black" d="M724.82,-606.5C742.17,-612.37 758.27,-621.28 771,-634.48 852.28,-718.78 724.29,-812.58 807,-895.48 812.49,-900.98 818.55,-905.71 825.03,-909.77"/>
<polygon fill="black" stroke="black" points="823.69,-913.03 834.12,-914.88 827.12,-906.93 823.69,-913.03"/>
</g>
<!-- Node0x55f604649e08 -->
<g id="node39" class="node">
<title>Node0x55f604649e08</title>
<polygon fill="none" stroke="black" points="332,-774.48 36,-774.48 36,-738.48 332,-738.48 332,-774.48"/>
<text text-anchor="middle" x="184" y="-752.78" font-family="Times,serif" font-size="14.00">{lib/libLLVMSupport.a(LEB128.cpp.o)}</text>
</g>
<!-- Node0x55f604646fc8 -->
<g id="node40" class="node">
<title>Node0x55f604646fc8</title>
<polygon fill="none" stroke="black" points="319.5,-828.48 48.5,-828.48 48.5,-792.48 319.5,-792.48 319.5,-828.48"/>
<text text-anchor="middle" x="184" y="-806.78" font-family="Times,serif" font-size="14.00">{lib/libLLVMSupport.a(CRC.cpp.o)}</text>
</g>
<!-- Node0x55f604648828 -->
<g id="node41" class="node">
<title>Node0x55f604648828</title>
<polygon fill="none" stroke="black" points="1194,-84.48 807,-84.48 807,-48.48 1194,-48.48 1194,-84.48"/>
<text text-anchor="middle" x="1000.5" y="-62.78" font-family="Times,serif" font-size="14.00">{lib/libLLVMSupport.a(ConvertUTFWrapper.cpp.o)}</text>
</g>
<!-- Node0x55f604648828&#45;&gt;Node0x55f6046480f8 -->
<g id="edge102" class="edge">
<title>Node0x55f604648828&#45;&gt;Node0x55f6046480f8</title>
<path fill="none" stroke="black" d="M1194.26,-66.48C1215.92,-66.48 1237.88,-66.48 1259.25,-66.48"/>
<polygon fill="black" stroke="black" points="1259.35,-69.98 1269.35,-66.48 1259.35,-62.98 1259.35,-69.98"/>
</g>
<!-- Node0x55f604649598 -->
<g id="node42" class="node">
<title>Node0x55f604649598</title>
<polygon fill="none" stroke="black" points="730.5,-1221.48 444.5,-1221.48 444.5,-1185.48 730.5,-1185.48 730.5,-1221.48"/>
<text text-anchor="middle" x="587.5" y="-1199.78" font-family="Times,serif" font-size="14.00">{lib/libLLVMSupport.a(Debug.cpp.o)}</text>
</g>
<!-- Node0x55f604649598&#45;&gt;Node0x55f604648c38 -->
<g id="edge104" class="edge">
<title>Node0x55f604649598&#45;&gt;Node0x55f604648c38</title>
<path fill="none" stroke="black" d="M614.84,-1185.47C686.37,-1136.56 884.32,-1001.23 964.8,-946.2"/>
<polygon fill="black" stroke="black" points="966.84,-949.05 973.12,-940.52 962.89,-943.27 966.84,-949.05"/>
</g>
<!-- Node0x55f604649598&#45;&gt;Node0x55f604648508 -->
<g id="edge103" class="edge">
<title>Node0x55f604649598&#45;&gt;Node0x55f604648508</title>
<path fill="none" stroke="black" d="M596.77,-1221.65C620.71,-1271.75 695.56,-1411.57 807,-1463.48 962.91,-1536.11 1022.39,-1475.13 1194,-1463.48 1390.91,-1450.12 1459.09,-1494.92 1634,-1403.48 1724.88,-1355.97 1796.54,-1252.37 1826.83,-1203.29"/>
<polygon fill="black" stroke="black" points="1829.96,-1204.88 1832.16,-1194.51 1823.98,-1201.24 1829.96,-1204.88"/>
</g>
<!-- Node0x55f6046498b8 -->
<g id="node43" class="node">
<title>Node0x55f6046498b8</title>
<polygon fill="none" stroke="black" points="1159,-306.48 842,-306.48 842,-270.48 1159,-270.48 1159,-306.48"/>
<text text-anchor="middle" x="1000.5" y="-284.78" font-family="Times,serif" font-size="14.00">{lib/libLLVMSupport.a(FoldingSet.cpp.o)}</text>
</g>
<!-- Node0x55f6046498b8&#45;&gt;Node0x55f604649908 -->
<g id="edge106" class="edge">
<title>Node0x55f6046498b8&#45;&gt;Node0x55f604649908</title>
<path fill="none" stroke="black" d="M1159.3,-288.48C1196.04,-288.48 1235.19,-288.48 1271.99,-288.48"/>
<polygon fill="black" stroke="black" points="1272.3,-291.98 1282.3,-288.48 1272.3,-284.98 1272.3,-291.98"/>
</g>
<!-- Node0x55f6046498b8&#45;&gt;Node0x55f604649d18 -->
<g id="edge105" class="edge">
<title>Node0x55f6046498b8&#45;&gt;Node0x55f604649d18</title>
<path fill="none" stroke="black" d="M1010.39,-306.52C1041.44,-370.36 1145.77,-592.32 1194,-787.48 1210.53,-854.38 1181.69,-1046.34 1230,-1095.48 1236.21,-1101.8 1243.14,-1107.13 1250.59,-1111.62"/>
<polygon fill="black" stroke="black" points="1249.1,-1114.8 1259.56,-1116.5 1252.45,-1108.65 1249.1,-1114.8"/>
</g>
<!-- Node0x55f6046498b8&#45;&gt;Node0x55f604648d28 -->
<g id="edge107" class="edge">
<title>Node0x55f6046498b8&#45;&gt;Node0x55f604648d28</title>
<path fill="none" stroke="black" d="M1137.24,-270.48C1167.71,-266.99 1199.92,-263.72 1230,-261.48 1381.57,-250.2 1554.71,-245.59 1678.15,-243.72"/>
<polygon fill="black" stroke="black" points="1678.49,-247.22 1688.44,-243.57 1678.39,-240.22 1678.49,-247.22"/>
</g>
<!-- Node0x55f604648878 -->
<g id="node45" class="node">
<title>Node0x55f604648878</title>
<polygon fill="none" stroke="black" points="1162.5,-1270.48 838.5,-1270.48 838.5,-1234.48 1162.5,-1234.48 1162.5,-1270.48"/>
<text text-anchor="middle" x="1000.5" y="-1248.78" font-family="Times,serif" font-size="14.00">{lib/libLLVMSupport.a(SmallVector.cpp.o)}</text>
</g>
<!-- Node0x55f604648878&#45;&gt;Node0x55f604649d18 -->
<g id="edge129" class="edge">
<title>Node0x55f604648878&#45;&gt;Node0x55f604649d18</title>
<path fill="none" stroke="black" d="M1162.69,-1238.32C1173.56,-1234.82 1184.1,-1230.58 1194,-1225.48 1214.68,-1214.82 1210.32,-1199.89 1230,-1187.48 1261.48,-1167.63 1299.57,-1153.31 1334.1,-1143.24"/>
<polygon fill="black" stroke="black" points="1335.07,-1146.61 1343.74,-1140.52 1333.16,-1139.87 1335.07,-1146.61"/>
</g>
<!-- Node0x55f604649368 -->
<g id="node46" class="node">
<title>Node0x55f604649368</title>
<polygon fill="none" stroke="black" points="368,-666.48 0,-666.48 0,-630.48 368,-630.48 368,-666.48"/>
<text text-anchor="middle" x="184" y="-644.78" font-family="Times,serif" font-size="14.00">{lib/libLLVMSupport.a(VirtualFileSystem.cpp.o)}</text>
</g>
<!-- Node0x55f604649368&#45;&gt;Node0x55f604648ff8 -->
<g id="edge132" class="edge">
<title>Node0x55f604649368&#45;&gt;Node0x55f604648ff8</title>
<path fill="none" stroke="black" d="M356.77,-666.53C360.7,-669.24 364.46,-672.22 368,-675.48 420.01,-723.4 352.64,-781.86 404,-830.48 408.83,-835.05 414.07,-839.09 419.62,-842.66"/>
<polygon fill="black" stroke="black" points="418.18,-845.88 428.59,-847.89 421.71,-839.83 418.18,-845.88"/>
</g>
<!-- Node0x55f604649368&#45;&gt;Node0x55f604646c08 -->
<g id="edge134" class="edge">
<title>Node0x55f604649368&#45;&gt;Node0x55f604646c08</title>
<path fill="none" stroke="black" d="M269.28,-630.48C303.57,-619.5 341.31,-602.24 368,-575.48 398.71,-544.68 368.03,-508.93 404,-484.48 471.45,-438.63 698.76,-446.63 771,-484.48 803.34,-501.42 935.82,-711.71 982.85,-787.49"/>
<polygon fill="black" stroke="black" points="980.16,-789.79 988.4,-796.45 986.11,-786.1 980.16,-789.79"/>
</g>
<!-- Node0x55f604649368&#45;&gt;Node0x55f604645c68 -->
<g id="edge135" class="edge">
<title>Node0x55f604649368&#45;&gt;Node0x55f604645c68</title>
<path fill="none" stroke="black" d="M356.07,-666.61C360.23,-669.29 364.22,-672.24 368,-675.48 409.28,-710.92 362.19,-757.66 404,-792.48 530.19,-897.58 652.38,-721.9 771,-835.48 843.51,-904.91 736.18,-987.32 807,-1058.48 819.09,-1070.62 833.91,-1079.22 849.92,-1085.19"/>
<polygon fill="black" stroke="black" points="848.88,-1088.53 859.47,-1088.41 851.11,-1081.9 848.88,-1088.53"/>
</g>
<!-- Node0x55f604649368&#45;&gt;Node0x55f604648c38 -->
<g id="edge138" class="edge">
<title>Node0x55f604649368&#45;&gt;Node0x55f604648c38</title>
<path fill="none" stroke="black" d="M368.21,-641.6C528.75,-637.44 741.1,-637.19 771,-663.48 849.36,-732.38 732.68,-822.24 807,-895.48 812.54,-900.94 818.63,-905.63 825.15,-909.65"/>
<polygon fill="black" stroke="black" points="823.83,-912.93 834.27,-914.73 827.24,-906.81 823.83,-912.93"/>
</g>
<!-- Node0x55f604649368&#45;&gt;Node0x55f6046475b8 -->
<g id="edge139" class="edge">
<title>Node0x55f604649368&#45;&gt;Node0x55f6046475b8</title>
<path fill="none" stroke="black" d="M357.43,-666.53C361.14,-669.24 364.67,-672.22 368,-675.48 436.88,-742.99 352.49,-807.94 404,-889.48 520.76,-1074.29 603.58,-1091.42 807,-1171.48 821.95,-1177.37 838,-1182 854.23,-1185.63"/>
<polygon fill="black" stroke="black" points="853.83,-1189.13 864.34,-1187.77 855.28,-1182.28 853.83,-1189.13"/>
</g>
<!-- Node0x55f604649368&#45;&gt;Node0x55f6046482d8 -->
<g id="edge136" class="edge">
<title>Node0x55f604649368&#45;&gt;Node0x55f6046482d8</title>
<path fill="none" stroke="black" d="M358.68,-666.62C361.97,-669.32 365.09,-672.27 368,-675.48 422.49,-735.54 349.47,-1344.45 404,-1404.48 640.73,-1665.11 925.85,-1691.65 1194,-1463.48 1270.13,-1398.7 1158.36,-1311.19 1230,-1241.48 1244.85,-1227.03 1263.51,-1217.79 1283.42,-1212.14"/>
<polygon fill="black" stroke="black" points="1284.45,-1215.49 1293.29,-1209.65 1282.74,-1208.7 1284.45,-1215.49"/>
</g>
<!-- Node0x55f604649368&#45;&gt;Node0x55f604648d28 -->
<g id="edge137" class="edge">
<title>Node0x55f604649368&#45;&gt;Node0x55f604648d28</title>
<path fill="none" stroke="black" d="M282.03,-630.32C314,-619.57 346.77,-602.52 368,-575.48 438.69,-485.46 323.27,-401.62 404,-320.48 578.09,-145.5 1338.86,-193.98 1678.15,-225.35"/>
<polygon fill="black" stroke="black" points="1678.02,-228.86 1688.31,-226.3 1678.67,-221.89 1678.02,-228.86"/>
</g>
<!-- Node0x55f604649368&#45;&gt;Node0x55f604648418 -->
<g id="edge133" class="edge">
<title>Node0x55f604649368&#45;&gt;Node0x55f604648418</title>
<path fill="none" stroke="black" d="M279.34,-630.33C311.83,-619.55 345.62,-602.47 368,-575.48 421.18,-511.33 339.67,-444.44 404,-391.48 529.92,-287.81 609.28,-370.21 771,-391.48 1164.67,-443.26 1272.23,-458.85 1634,-622.48 1651.52,-630.4 1653.32,-636.92 1670,-646.48 1710.02,-669.42 1757.22,-692.12 1792.12,-708.13"/>
<polygon fill="black" stroke="black" points="1791.07,-711.5 1801.62,-712.46 1793.97,-705.13 1791.07,-711.5"/>
</g>
<!-- Node0x55f604647f18 -->
<g id="node47" class="node">
<title>Node0x55f604647f18</title>
<polygon fill="none" stroke="black" points="347,-720.48 21,-720.48 21,-684.48 347,-684.48 347,-720.48"/>
<text text-anchor="middle" x="184" y="-698.78" font-family="Times,serif" font-size="14.00">{lib/libLLVMSupport.a(YAMLParser.cpp.o)}</text>
</g>
<!-- Node0x55f604647f18&#45;&gt;Node0x55f604648ff8 -->
<g id="edge140" class="edge">
<title>Node0x55f604647f18&#45;&gt;Node0x55f604648ff8</title>
<path fill="none" stroke="black" d="M347.09,-715.87C354.52,-719.68 361.55,-724.18 368,-729.48 404.83,-759.72 367.58,-799.74 404,-830.48 408.92,-834.63 414.19,-838.33 419.72,-841.62"/>
<polygon fill="black" stroke="black" points="418.15,-844.76 428.61,-846.46 421.5,-838.61 418.15,-844.76"/>
</g>
<!-- Node0x55f604647f18&#45;&gt;Node0x55f604646c08 -->
<g id="edge141" class="edge">
<title>Node0x55f604647f18&#45;&gt;Node0x55f604646c08</title>
<path fill="none" stroke="black" d="M347,-690.41C354.55,-686.28 361.62,-681.35 368,-675.48 419.73,-627.89 348.93,-565.16 404,-521.48 467.9,-470.8 697.71,-485.7 771,-521.48 887.13,-578.19 961.44,-725.59 988.26,-787"/>
<polygon fill="black" stroke="black" points="985.15,-788.61 992.3,-796.42 991.58,-785.85 985.15,-788.61"/>
</g>
<!-- Node0x55f604647f18&#45;&gt;Node0x55f604648c38 -->
<g id="edge144" class="edge">
<title>Node0x55f604647f18&#45;&gt;Node0x55f604648c38</title>
<path fill="none" stroke="black" d="M317.13,-684.46C468.63,-666.93 704.64,-650.23 771,-705.48 837.05,-760.48 744.79,-836.18 807,-895.48 812.54,-900.76 818.61,-905.32 825.08,-909.24"/>
<polygon fill="black" stroke="black" points="823.67,-912.46 834.12,-914.2 827.04,-906.32 823.67,-912.46"/>
</g>
<!-- Node0x55f604647f18&#45;&gt;Node0x55f604649d18 -->
<g id="edge142" class="edge">
<title>Node0x55f604647f18&#45;&gt;Node0x55f604649d18</title>
<path fill="none" stroke="black" d="M347.36,-712.9C354.92,-717.42 361.88,-722.89 368,-729.48 443.92,-811.3 332.42,-1144.83 404,-1230.48 517.53,-1366.33 1054.63,-1442.66 1194,-1333.48 1246.61,-1292.27 1184.45,-1236.39 1230,-1187.48 1248.7,-1167.4 1273.64,-1153.51 1299.57,-1143.9"/>
<polygon fill="black" stroke="black" points="1300.87,-1147.15 1309.16,-1140.55 1298.56,-1140.54 1300.87,-1147.15"/>
</g>
<!-- Node0x55f604647f18&#45;&gt;Node0x55f604648d28 -->
<g id="edge143" class="edge">
<title>Node0x55f604647f18&#45;&gt;Node0x55f604648d28</title>
<path fill="none" stroke="black" d="M347.35,-691.43C354.85,-687.05 361.82,-681.79 368,-675.48 457.04,-584.6 311.18,-478.5 404,-391.48 503.89,-297.82 1499.78,-342.58 1634,-315.48 1689.63,-304.25 1750.61,-281.61 1792.17,-264.51"/>
<polygon fill="black" stroke="black" points="1793.63,-267.69 1801.52,-260.62 1790.94,-261.23 1793.63,-267.69"/>
</g>
<!-- Node0x55f6046466b8 -->
<g id="node48" class="node">
<title>Node0x55f6046466b8</title>
<polygon fill="none" stroke="black" points="1634,-1394.48 1230,-1394.48 1230,-1358.48 1634,-1358.48 1634,-1394.48"/>
<text text-anchor="middle" x="1432" y="-1372.78" font-family="Times,serif" font-size="14.00">{lib/libLLVMSupport.a(CrashRecoveryContext.cpp.o)}</text>
</g>
<!-- Node0x55f6046466b8&#45;&gt;Node0x55f604648508 -->
<g id="edge148" class="edge">
<title>Node0x55f6046466b8&#45;&gt;Node0x55f604648508</title>
<path fill="none" stroke="black" d="M1610.22,-1358.42C1618.37,-1355.8 1626.34,-1352.84 1634,-1349.48 1712.63,-1315.02 1785.12,-1241.76 1820.26,-1202.54"/>
<polygon fill="black" stroke="black" points="1823.18,-1204.52 1827.18,-1194.71 1817.93,-1199.89 1823.18,-1204.52"/>
</g>
</g>
</svg>
