<?xml version="1.0" encoding="UTF-8" standalone="no"?>
<!DOCTYPE svg PUBLIC "-//W3C//DTD SVG 1.1//EN"
 "http://www.w3.org/Graphics/SVG/1.1/DTD/svg11.dtd">
<!-- Generated by graphviz version 2.43.0 (0)
 -->
<!-- Title: bin/llvm&#45;yaml&#45;numeric&#45;parser&#45;fuzzer_lib/libLLVMSupport.a Pages: 1 -->
<svg width="3373pt" height="3176pt"
 viewBox="0.00 0.00 3373.00 3175.59" xmlns="http://www.w3.org/2000/svg" xmlns:xlink="http://www.w3.org/1999/xlink">
<g id="graph0" class="graph" transform="scale(1 1) rotate(0) translate(4 3171.59)">
<title>bin/llvm&#45;yaml&#45;numeric&#45;parser&#45;fuzzer_lib/libLLVMSupport.a</title>
<polygon fill="white" stroke="transparent" points="-4,4 -4,-3171.59 3369,-3171.59 3369,4 -4,4"/>
<text text-anchor="middle" x="1682.5" y="-7.8" font-family="Times,serif" font-size="14.00">bin/llvm&#45;yaml&#45;numeric&#45;parser&#45;fuzzer_lib/libLLVMSupport.a</text>
<!-- Node0x55e35d249eb8 -->
<g id="node1" class="node">
<title>Node0x55e35d249eb8</title>
<polygon fill="none" stroke="black" points="353.5,-3059.59 69.5,-3059.59 69.5,-3023.59 353.5,-3023.59 353.5,-3059.59"/>
<text text-anchor="middle" x="211.5" y="-3037.89" font-family="Times,serif" font-size="14.00">{lib/libLLVMSupport.a(Regex.cpp.o)}</text>
</g>
<!-- Node0x55e35d24cc58 -->
<g id="node2" class="node">
<title>Node0x55e35d24cc58</title>
<polygon fill="none" stroke="black" points="784.5,-3167.59 500.5,-3167.59 500.5,-3131.59 784.5,-3131.59 784.5,-3167.59"/>
<text text-anchor="middle" x="642.5" y="-3145.89" font-family="Times,serif" font-size="14.00">{lib/libLLVMSupport.a(regcomp.c.o)}</text>
</g>
<!-- Node0x55e35d249eb8&#45;&gt;Node0x55e35d24cc58 -->
<g id="edge1" class="edge">
<title>Node0x55e35d249eb8&#45;&gt;Node0x55e35d24cc58</title>
<path fill="none" stroke="black" d="M259.53,-3059.71C308.63,-3078 388.2,-3105.85 459,-3122.59 469.85,-3125.16 481.12,-3127.52 492.5,-3129.7"/>
<polygon fill="black" stroke="black" points="492.05,-3133.18 502.52,-3131.56 493.33,-3126.29 492.05,-3133.18"/>
</g>
<!-- Node0x55e35d24ca28 -->
<g id="node3" class="node">
<title>Node0x55e35d24ca28</title>
<polygon fill="none" stroke="black" points="783,-3059.59 502,-3059.59 502,-3023.59 783,-3023.59 783,-3059.59"/>
<text text-anchor="middle" x="642.5" y="-3037.89" font-family="Times,serif" font-size="14.00">{lib/libLLVMSupport.a(regerror.c.o)}</text>
</g>
<!-- Node0x55e35d249eb8&#45;&gt;Node0x55e35d24ca28 -->
<g id="edge2" class="edge">
<title>Node0x55e35d249eb8&#45;&gt;Node0x55e35d24ca28</title>
<path fill="none" stroke="black" d="M353.56,-3041.59C397.84,-3041.59 446.86,-3041.59 491.71,-3041.59"/>
<polygon fill="black" stroke="black" points="491.81,-3045.09 501.81,-3041.59 491.81,-3038.09 491.81,-3045.09"/>
</g>
<!-- Node0x55e35d2448c8 -->
<g id="node4" class="node">
<title>Node0x55e35d2448c8</title>
<polygon fill="none" stroke="black" points="781.5,-3005.59 503.5,-3005.59 503.5,-2969.59 781.5,-2969.59 781.5,-3005.59"/>
<text text-anchor="middle" x="642.5" y="-2983.89" font-family="Times,serif" font-size="14.00">{lib/libLLVMSupport.a(regexec.c.o)}</text>
</g>
<!-- Node0x55e35d249eb8&#45;&gt;Node0x55e35d2448c8 -->
<g id="edge3" class="edge">
<title>Node0x55e35d249eb8&#45;&gt;Node0x55e35d2448c8</title>
<path fill="none" stroke="black" d="M353.56,-3023.84C398.29,-3018.21 447.86,-3011.97 493.09,-3006.27"/>
<polygon fill="black" stroke="black" points="493.79,-3009.71 503.27,-3004.99 492.92,-3002.77 493.79,-3009.71"/>
</g>
<!-- Node0x55e35d2440a8 -->
<g id="node5" class="node">
<title>Node0x55e35d2440a8</title>
<polygon fill="none" stroke="black" points="779.5,-3113.59 505.5,-3113.59 505.5,-3077.59 779.5,-3077.59 779.5,-3113.59"/>
<text text-anchor="middle" x="642.5" y="-3091.89" font-family="Times,serif" font-size="14.00">{lib/libLLVMSupport.a(regfree.c.o)}</text>
</g>
<!-- Node0x55e35d249eb8&#45;&gt;Node0x55e35d2440a8 -->
<g id="edge4" class="edge">
<title>Node0x55e35d249eb8&#45;&gt;Node0x55e35d2440a8</title>
<path fill="none" stroke="black" d="M353.56,-3059.35C399.07,-3065.08 449.59,-3071.44 495.44,-3077.21"/>
<polygon fill="black" stroke="black" points="495.1,-3080.69 505.46,-3078.47 495.97,-3073.75 495.1,-3080.69"/>
</g>
<!-- Node0x55e35d24abd8 -->
<g id="node6" class="node">
<title>Node0x55e35d24abd8</title>
<polygon fill="#7fb2ff" stroke="black" points="796.5,-2655.59 488.5,-2655.59 488.5,-2619.59 796.5,-2619.59 796.5,-2655.59"/>
<text text-anchor="middle" x="642.5" y="-2633.89" font-family="Times,serif" font-size="14.00">{lib/libLLVMSupport.a(StringRef.cpp.o)}</text>
</g>
<!-- Node0x55e35d249eb8&#45;&gt;Node0x55e35d24abd8 -->
<g id="edge5" class="edge">
<title>Node0x55e35d249eb8&#45;&gt;Node0x55e35d24abd8</title>
<path fill="none" stroke="black" d="M231.77,-3023.45C300.65,-2958.58 534.85,-2738.03 614.63,-2662.9"/>
<polygon fill="black" stroke="black" points="617.41,-2665.09 622.29,-2655.69 612.61,-2659.99 617.41,-2665.09"/>
</g>
<!-- Node0x55e35d247938 -->
<g id="node7" class="node">
<title>Node0x55e35d247938</title>
<polygon fill="#7fb2ff" stroke="black" points="783.5,-2265.59 501.5,-2265.59 501.5,-2229.59 783.5,-2229.59 783.5,-2265.59"/>
<text text-anchor="middle" x="642.5" y="-2243.89" font-family="Times,serif" font-size="14.00">{lib/libLLVMSupport.a(Twine.cpp.o)}</text>
</g>
<!-- Node0x55e35d249eb8&#45;&gt;Node0x55e35d247938 -->
<g id="edge6" class="edge">
<title>Node0x55e35d249eb8&#45;&gt;Node0x55e35d247938</title>
<path fill="none" stroke="black" d="M225.41,-3023.22C263.15,-2968.49 373.69,-2800.57 423,-2643.59 462.32,-2518.42 386.05,-2459.64 459,-2350.59 485.31,-2311.26 532,-2285.31 571.57,-2269.29"/>
<polygon fill="black" stroke="black" points="572.89,-2272.53 580.93,-2265.63 570.34,-2266.01 572.89,-2272.53"/>
</g>
<!-- Node0x55e35d24cc58&#45;&gt;Node0x55e35d2440a8 -->
<g id="edge8" class="edge">
<title>Node0x55e35d24cc58&#45;&gt;Node0x55e35d2440a8</title>
<path fill="none" stroke="black" d="M642.5,-3131.38C642.5,-3128.9 642.5,-3126.42 642.5,-3123.94"/>
<polygon fill="black" stroke="black" points="646,-3123.73 642.5,-3113.73 639,-3123.73 646,-3123.73"/>
</g>
<!-- Node0x55e35d246088 -->
<g id="node8" class="node">
<title>Node0x55e35d246088</title>
<polygon fill="none" stroke="black" points="1210.5,-3113.59 917.5,-3113.59 917.5,-3077.59 1210.5,-3077.59 1210.5,-3113.59"/>
<text text-anchor="middle" x="1064" y="-3091.89" font-family="Times,serif" font-size="14.00">{lib/libLLVMSupport.a(regstrlcpy.c.o)}</text>
</g>
<!-- Node0x55e35d24cc58&#45;&gt;Node0x55e35d246088 -->
<g id="edge9" class="edge">
<title>Node0x55e35d24cc58&#45;&gt;Node0x55e35d246088</title>
<path fill="none" stroke="black" d="M783.48,-3131.57C825.06,-3126.22 870.77,-3120.34 912.96,-3114.91"/>
<polygon fill="black" stroke="black" points="913.56,-3118.36 923.03,-3113.61 912.67,-3111.42 913.56,-3118.36"/>
</g>
<!-- Node0x55e35d24ca28&#45;&gt;Node0x55e35d246088 -->
<g id="edge10" class="edge">
<title>Node0x55e35d24ca28&#45;&gt;Node0x55e35d246088</title>
<path fill="none" stroke="black" d="M783.19,-3059.57C824.78,-3064.93 870.53,-3070.82 912.76,-3076.25"/>
<polygon fill="black" stroke="black" points="912.49,-3079.75 922.85,-3077.55 913.38,-3072.8 912.49,-3079.75"/>
</g>
<!-- Node0x55e35d248ab8 -->
<g id="node9" class="node">
<title>Node0x55e35d248ab8</title>
<polygon fill="#7fb2ff" stroke="black" points="1202.5,-2173.59 925.5,-2173.59 925.5,-2137.59 1202.5,-2137.59 1202.5,-2173.59"/>
<text text-anchor="middle" x="1064" y="-2151.89" font-family="Times,serif" font-size="14.00">{lib/libLLVMSupport.a(Error.cpp.o)}</text>
</g>
<!-- Node0x55e35d24abd8&#45;&gt;Node0x55e35d248ab8 -->
<g id="edge7" class="edge">
<title>Node0x55e35d24abd8&#45;&gt;Node0x55e35d248ab8</title>
<path fill="none" stroke="#7fb2ff" d="M796.5,-2631.63C807.47,-2626.42 817.52,-2619.55 826,-2610.59 885.83,-2547.39 807.61,-2288.54 862,-2220.59 877.83,-2200.81 899.76,-2186.98 923.33,-2177.31"/>
<polygon fill="#7fb2ff" stroke="#7fb2ff" points="924.71,-2180.53 932.8,-2173.68 922.21,-2174 924.71,-2180.53"/>
</g>
<!-- Node0x55e35d2471b8 -->
<g id="node10" class="node">
<title>Node0x55e35d2471b8</title>
<polygon fill="#7fb2ff" stroke="black" points="1230,-2265.59 898,-2265.59 898,-2229.59 1230,-2229.59 1230,-2265.59"/>
<text text-anchor="middle" x="1064" y="-2243.89" font-family="Times,serif" font-size="14.00">{lib/libLLVMSupport.a(raw_ostream.cpp.o)}</text>
</g>
<!-- Node0x55e35d247938&#45;&gt;Node0x55e35d2471b8 -->
<g id="edge11" class="edge">
<title>Node0x55e35d247938&#45;&gt;Node0x55e35d2471b8</title>
<path fill="none" stroke="#7fb2ff" d="M783.77,-2241.18C817.05,-2240.85 852.95,-2240.76 887.58,-2240.92"/>
<polygon fill="#7fb2ff" stroke="#7fb2ff" points="887.77,-2244.43 897.79,-2240.98 887.81,-2237.43 887.77,-2244.43"/>
</g>
<!-- Node0x55e35d248ab8&#45;&gt;Node0x55e35d247938 -->
<g id="edge43" class="edge">
<title>Node0x55e35d248ab8&#45;&gt;Node0x55e35d247938</title>
<path fill="none" stroke="#7fb2ff" d="M980.81,-2173.62C910.45,-2189.05 809.2,-2211.25 736.01,-2227.3"/>
<polygon fill="#7fb2ff" stroke="#7fb2ff" points="734.9,-2223.97 725.88,-2229.53 736.4,-2230.8 734.9,-2223.97"/>
</g>
<!-- Node0x55e35d248ab8&#45;&gt;Node0x55e35d2471b8 -->
<g id="edge44" class="edge">
<title>Node0x55e35d248ab8&#45;&gt;Node0x55e35d2471b8</title>
<path fill="none" stroke="#7fb2ff" d="M998.2,-2173.74C950.7,-2191.11 947.64,-2208.48 989.02,-2225.86"/>
<polygon fill="#7fb2ff" stroke="#7fb2ff" points="987.94,-2229.19 998.53,-2229.56 990.48,-2222.67 987.94,-2229.19"/>
</g>
<!-- Node0x55e35d24d5b8 -->
<g id="node11" class="node">
<title>Node0x55e35d24d5b8</title>
<polygon fill="#7fb2ff" stroke="black" points="1703,-1997.59 1359,-1997.59 1359,-1961.59 1703,-1961.59 1703,-1997.59"/>
<text text-anchor="middle" x="1531" y="-1975.89" font-family="Times,serif" font-size="14.00">{lib/libLLVMSupport.a(ErrorHandling.cpp.o)}</text>
</g>
<!-- Node0x55e35d248ab8&#45;&gt;Node0x55e35d24d5b8 -->
<g id="edge41" class="edge">
<title>Node0x55e35d248ab8&#45;&gt;Node0x55e35d24d5b8</title>
<path fill="none" stroke="#7fb2ff" d="M1142.14,-2137.55C1181.15,-2126.29 1228.12,-2109.35 1266,-2085.59 1285.17,-2073.57 1282.61,-2061.26 1302,-2049.59 1339.61,-2026.96 1385.17,-2011.07 1425.65,-2000.22"/>
<polygon fill="#7fb2ff" stroke="#7fb2ff" points="1426.75,-2003.55 1435.55,-1997.64 1424.99,-1996.77 1426.75,-2003.55"/>
</g>
<!-- Node0x55e35d24b998 -->
<g id="node12" class="node">
<title>Node0x55e35d24b998</title>
<polygon fill="#7fb2ff" stroke="black" points="1704.5,-1905.59 1357.5,-1905.59 1357.5,-1869.59 1704.5,-1869.59 1704.5,-1905.59"/>
<text text-anchor="middle" x="1531" y="-1883.89" font-family="Times,serif" font-size="14.00">{lib/libLLVMSupport.a(ManagedStatic.cpp.o)}</text>
</g>
<!-- Node0x55e35d248ab8&#45;&gt;Node0x55e35d24b998 -->
<g id="edge42" class="edge">
<title>Node0x55e35d248ab8&#45;&gt;Node0x55e35d24b998</title>
<path fill="none" stroke="#7fb2ff" d="M1083.99,-2137.44C1131.13,-2092.68 1253.2,-1978.81 1302,-1952.59 1339.19,-1932.61 1383.17,-1918.21 1422.54,-1908.12"/>
<polygon fill="#7fb2ff" stroke="#7fb2ff" points="1423.59,-1911.47 1432.44,-1905.65 1421.89,-1904.68 1423.59,-1911.47"/>
</g>
<!-- Node0x55e35d2471b8&#45;&gt;Node0x55e35d247938 -->
<g id="edge22" class="edge">
<title>Node0x55e35d2471b8&#45;&gt;Node0x55e35d247938</title>
<path fill="none" stroke="#7fb2ff" d="M897.79,-2254.21C863.61,-2254.42 827.77,-2254.38 794.13,-2254.1"/>
<polygon fill="#7fb2ff" stroke="#7fb2ff" points="793.8,-2250.6 783.77,-2254 793.74,-2257.6 793.8,-2250.6"/>
</g>
<!-- Node0x55e35d2471b8&#45;&gt;Node0x55e35d248ab8 -->
<g id="edge21" class="edge">
<title>Node0x55e35d2471b8&#45;&gt;Node0x55e35d248ab8</title>
<path fill="none" stroke="#7fb2ff" d="M1129.47,-2229.56C1177.17,-2212.19 1180.44,-2194.82 1139.26,-2177.45"/>
<polygon fill="#7fb2ff" stroke="#7fb2ff" points="1140.38,-2174.13 1129.8,-2173.74 1137.83,-2180.65 1140.38,-2174.13"/>
</g>
<!-- Node0x55e35d2471b8&#45;&gt;Node0x55e35d24d5b8 -->
<g id="edge16" class="edge">
<title>Node0x55e35d2471b8&#45;&gt;Node0x55e35d24d5b8</title>
<path fill="none" stroke="#7fb2ff" d="M1137.13,-2229.56C1178.42,-2219.57 1229.18,-2203.3 1266,-2173.59 1290.8,-2153.59 1279.78,-2134.44 1302,-2111.59 1348.79,-2063.48 1415.22,-2024.83 1464.31,-2001.86"/>
<polygon fill="#7fb2ff" stroke="#7fb2ff" points="1465.94,-2004.96 1473.57,-1997.61 1463.02,-1998.6 1465.94,-2004.96"/>
</g>
<!-- Node0x55e35d24b718 -->
<g id="node13" class="node">
<title>Node0x55e35d24b718</title>
<polygon fill="#7fb2ff" stroke="black" points="1714.5,-2311.59 1347.5,-2311.59 1347.5,-2275.59 1714.5,-2275.59 1714.5,-2311.59"/>
<text text-anchor="middle" x="1531" y="-2289.89" font-family="Times,serif" font-size="14.00">{lib/libLLVMSupport.a(NativeFormatting.cpp.o)}</text>
</g>
<!-- Node0x55e35d2471b8&#45;&gt;Node0x55e35d24b718 -->
<g id="edge17" class="edge">
<title>Node0x55e35d2471b8&#45;&gt;Node0x55e35d24b718</title>
<path fill="none" stroke="#7fb2ff" d="M1230.25,-2257.45C1285.55,-2262.48 1346.41,-2268.62 1398.75,-2274.46"/>
<polygon fill="#7fb2ff" stroke="#7fb2ff" points="1398.43,-2277.95 1408.76,-2275.59 1399.22,-2270.99 1398.43,-2277.95"/>
</g>
<!-- Node0x55e35d24d8d8 -->
<g id="node14" class="node">
<title>Node0x55e35d24d8d8</title>
<polygon fill="#7fb2ff" stroke="black" points="1705.5,-2533.59 1356.5,-2533.59 1356.5,-2497.59 1705.5,-2497.59 1705.5,-2533.59"/>
<text text-anchor="middle" x="1531" y="-2511.89" font-family="Times,serif" font-size="14.00">{lib/libLLVMSupport.a(FormatVariadic.cpp.o)}</text>
</g>
<!-- Node0x55e35d2471b8&#45;&gt;Node0x55e35d24d8d8 -->
<g id="edge18" class="edge">
<title>Node0x55e35d2471b8&#45;&gt;Node0x55e35d24d8d8</title>
<path fill="none" stroke="#7fb2ff" d="M1076.39,-2265.83C1106.56,-2312.35 1193.72,-2435.51 1302,-2488.59 1316.08,-2495.5 1331.21,-2500.91 1346.75,-2505.14"/>
<polygon fill="#7fb2ff" stroke="#7fb2ff" points="1345.91,-2508.54 1356.47,-2507.62 1347.64,-2501.76 1345.91,-2508.54"/>
</g>
<!-- Node0x55e35d2459f8 -->
<g id="node15" class="node">
<title>Node0x55e35d2459f8</title>
<polygon fill="#7fb2ff" stroke="black" points="1667,-2479.59 1395,-2479.59 1395,-2443.59 1667,-2443.59 1667,-2479.59"/>
<text text-anchor="middle" x="1531" y="-2457.89" font-family="Times,serif" font-size="14.00">{lib/libLLVMSupport.a(Path.cpp.o)}</text>
</g>
<!-- Node0x55e35d2471b8&#45;&gt;Node0x55e35d2459f8 -->
<g id="edge19" class="edge">
<title>Node0x55e35d2471b8&#45;&gt;Node0x55e35d2459f8</title>
<path fill="none" stroke="#7fb2ff" d="M1090.14,-2265.78C1132.21,-2295.52 1220.3,-2354.92 1302,-2391.59 1347.83,-2412.17 1401.43,-2428.96 1445.14,-2440.94"/>
<polygon fill="#7fb2ff" stroke="#7fb2ff" points="1444.32,-2444.34 1454.88,-2443.57 1446.14,-2437.58 1444.32,-2444.34"/>
</g>
<!-- Node0x55e35d247578 -->
<g id="node16" class="node">
<title>Node0x55e35d247578</title>
<polygon fill="#7fb2ff" stroke="black" points="1678.5,-2165.59 1383.5,-2165.59 1383.5,-2129.59 1678.5,-2129.59 1678.5,-2165.59"/>
<text text-anchor="middle" x="1531" y="-2143.89" font-family="Times,serif" font-size="14.00">{lib/libLLVMSupport.a(Process.cpp.o)}</text>
</g>
<!-- Node0x55e35d2471b8&#45;&gt;Node0x55e35d247578 -->
<g id="edge20" class="edge">
<title>Node0x55e35d2471b8&#45;&gt;Node0x55e35d247578</title>
<path fill="none" stroke="#7fb2ff" d="M1114.25,-2229.56C1161.71,-2212.86 1235.87,-2188.57 1302,-2174.59 1324.96,-2169.74 1349.43,-2165.69 1373.49,-2162.33"/>
<polygon fill="#7fb2ff" stroke="#7fb2ff" points="1373.97,-2165.8 1383.4,-2160.98 1373.02,-2158.86 1373.97,-2165.8"/>
</g>
<!-- Node0x55e35d24cbb8 -->
<g id="node17" class="node">
<title>Node0x55e35d24cbb8</title>
<polygon fill="#7fb2ff" stroke="black" points="1682,-2219.59 1380,-2219.59 1380,-2183.59 1682,-2183.59 1682,-2219.59"/>
<text text-anchor="middle" x="1531" y="-2197.89" font-family="Times,serif" font-size="14.00">{lib/libLLVMSupport.a(Program.cpp.o)}</text>
</g>
<!-- Node0x55e35d2471b8&#45;&gt;Node0x55e35d24cbb8 -->
<g id="edge23" class="edge">
<title>Node0x55e35d2471b8&#45;&gt;Node0x55e35d24cbb8</title>
<path fill="none" stroke="#7fb2ff" d="M1186.26,-2229.59C1242.34,-2223.23 1309.72,-2216.42 1369.9,-2210.98"/>
<polygon fill="#7fb2ff" stroke="#7fb2ff" points="1370.24,-2214.46 1379.88,-2210.09 1369.61,-2207.49 1370.24,-2214.46"/>
</g>
<!-- Node0x55e35d24d5b8&#45;&gt;Node0x55e35d247938 -->
<g id="edge13" class="edge">
<title>Node0x55e35d24d5b8&#45;&gt;Node0x55e35d247938</title>
<path fill="none" stroke="#7fb2ff" d="M1358.84,-1991.24C1339.09,-1996.16 1319.71,-2002.77 1302,-2011.59 1281.75,-2021.69 1286.36,-2037.71 1266,-2047.59 1103.33,-2126.54 1018.22,-2004.54 862,-2095.59 838.65,-2109.2 846.22,-2126.66 826,-2144.59 787.23,-2178.98 735.11,-2206.98 696.49,-2225.07"/>
<polygon fill="#7fb2ff" stroke="#7fb2ff" points="694.6,-2222.08 686.98,-2229.45 697.53,-2228.44 694.6,-2222.08"/>
</g>
<!-- Node0x55e35d24d5b8&#45;&gt;Node0x55e35d2471b8 -->
<g id="edge14" class="edge">
<title>Node0x55e35d24d5b8&#45;&gt;Node0x55e35d2471b8</title>
<path fill="none" stroke="#7fb2ff" d="M1500.59,-1997.67C1453.87,-2021.97 1361.87,-2068.04 1302,-2129.59 1279.78,-2152.44 1290.8,-2171.59 1266,-2191.59 1248.08,-2206.05 1226.86,-2217.32 1205.04,-2225.98"/>
<polygon fill="#7fb2ff" stroke="#7fb2ff" points="1203.77,-2222.71 1195.65,-2229.52 1206.25,-2229.26 1203.77,-2222.71"/>
</g>
<!-- Node0x55e35d243c48 -->
<g id="node18" class="node">
<title>Node0x55e35d243c48</title>
<polygon fill="#7fb2ff" stroke="black" points="2156,-2311.59 1864,-2311.59 1864,-2275.59 2156,-2275.59 2156,-2311.59"/>
<text text-anchor="middle" x="2010" y="-2289.89" font-family="Times,serif" font-size="14.00">{lib/libLLVMSupport.a(Signals.cpp.o)}</text>
</g>
<!-- Node0x55e35d24d5b8&#45;&gt;Node0x55e35d243c48 -->
<g id="edge15" class="edge">
<title>Node0x55e35d24d5b8&#45;&gt;Node0x55e35d243c48</title>
<path fill="none" stroke="#7fb2ff" d="M1573.61,-1997.82C1619.63,-2023.08 1695.79,-2069.47 1760,-2111.59 1842.46,-2165.68 1937.58,-2233.25 1982.67,-2269.13"/>
<polygon fill="#7fb2ff" stroke="#7fb2ff" points="1980.51,-2271.89 1990.49,-2275.45 1984.91,-2266.45 1980.51,-2271.89"/>
</g>
<!-- Node0x55e35d24b678 -->
<g id="node19" class="node">
<title>Node0x55e35d24b678</title>
<polygon fill="#7fb2ff" stroke="black" points="2166,-1753.59 1854,-1753.59 1854,-1717.59 2166,-1717.59 2166,-1753.59"/>
<text text-anchor="middle" x="2010" y="-1731.89" font-family="Times,serif" font-size="14.00">{lib/libLLVMSupport.a(Threading.cpp.o)}</text>
</g>
<!-- Node0x55e35d24b998&#45;&gt;Node0x55e35d24b678 -->
<g id="edge36" class="edge">
<title>Node0x55e35d24b998&#45;&gt;Node0x55e35d24b678</title>
<path fill="none" stroke="#7fb2ff" d="M1564.2,-1869.39C1612.83,-1842.74 1708.62,-1793.47 1796,-1767.59 1811.51,-1763 1827.87,-1759.04 1844.34,-1755.64"/>
<polygon fill="#7fb2ff" stroke="#7fb2ff" points="1845.48,-1758.98 1854.6,-1753.6 1844.11,-1752.12 1845.48,-1758.98"/>
</g>
<!-- Node0x55e35d24b718&#45;&gt;Node0x55e35d2471b8 -->
<g id="edge50" class="edge">
<title>Node0x55e35d24b718&#45;&gt;Node0x55e35d2471b8</title>
<path fill="none" stroke="#7fb2ff" d="M1347.17,-2282.12C1296.84,-2277.42 1243.25,-2271.97 1196.45,-2266.75"/>
<polygon fill="#7fb2ff" stroke="#7fb2ff" points="1196.59,-2263.24 1186.26,-2265.6 1195.81,-2270.19 1196.59,-2263.24"/>
</g>
<!-- Node0x55e35d24d8d8&#45;&gt;Node0x55e35d24abd8 -->
<g id="edge51" class="edge">
<title>Node0x55e35d24d8d8&#45;&gt;Node0x55e35d24abd8</title>
<path fill="none" stroke="#7fb2ff" d="M1356.41,-2505.41C1186.49,-2498.69 941.88,-2498.65 862,-2547.59 834.5,-2564.44 852.63,-2592.4 826,-2610.59 819.82,-2614.82 813.24,-2618.49 806.4,-2621.69"/>
<polygon fill="#7fb2ff" stroke="#7fb2ff" points="804.72,-2618.6 796.91,-2625.75 807.48,-2625.03 804.72,-2618.6"/>
</g>
<!-- Node0x55e35d2459f8&#45;&gt;Node0x55e35d24abd8 -->
<g id="edge53" class="edge">
<title>Node0x55e35d2459f8&#45;&gt;Node0x55e35d24abd8</title>
<path fill="none" stroke="#7fb2ff" d="M1394.69,-2461.23C1211.62,-2461.95 903.05,-2467.93 862,-2499.59 820.93,-2531.27 865.6,-2577.1 826,-2610.59 819.81,-2615.83 813.06,-2620.29 805.92,-2624.09"/>
<polygon fill="#7fb2ff" stroke="#7fb2ff" points="804.17,-2621.05 796.68,-2628.54 807.21,-2627.35 804.17,-2621.05"/>
</g>
<!-- Node0x55e35d2459f8&#45;&gt;Node0x55e35d247938 -->
<g id="edge55" class="edge">
<title>Node0x55e35d2459f8&#45;&gt;Node0x55e35d247938</title>
<path fill="none" stroke="#7fb2ff" d="M1394.66,-2447.3C1202.92,-2426.9 873.93,-2391.24 862,-2385.59 841.83,-2376.04 843.86,-2363.97 826,-2350.59 783.17,-2318.54 729.34,-2289.32 691.27,-2270.27"/>
<polygon fill="#7fb2ff" stroke="#7fb2ff" points="692.46,-2266.95 681.94,-2265.64 689.35,-2273.22 692.46,-2266.95"/>
</g>
<!-- Node0x55e35d2459f8&#45;&gt;Node0x55e35d248ab8 -->
<g id="edge54" class="edge">
<title>Node0x55e35d2459f8&#45;&gt;Node0x55e35d248ab8</title>
<path fill="none" stroke="#7fb2ff" d="M1482.39,-2443.42C1431.1,-2421.58 1350.36,-2380.24 1302,-2320.59 1272.25,-2283.9 1299.94,-2253.44 1266,-2220.59 1245.14,-2200.4 1217.95,-2186.48 1190.36,-2176.89"/>
<polygon fill="#7fb2ff" stroke="#7fb2ff" points="1191.18,-2173.47 1180.59,-2173.67 1188.99,-2180.12 1191.18,-2173.47"/>
</g>
<!-- Node0x55e35d2459f8&#45;&gt;Node0x55e35d247578 -->
<g id="edge52" class="edge">
<title>Node0x55e35d2459f8&#45;&gt;Node0x55e35d247578</title>
<path fill="none" stroke="#7fb2ff" d="M1394.71,-2475.8C1350.61,-2472.27 1307.14,-2458.03 1284,-2420.59 1270.16,-2398.19 1270.16,-2205.99 1284,-2183.59 1303.26,-2152.43 1336.74,-2137.92 1372.95,-2132.47"/>
<polygon fill="#7fb2ff" stroke="#7fb2ff" points="1373.75,-2135.89 1383.23,-2131.16 1372.87,-2128.95 1373.75,-2135.89"/>
</g>
<!-- Node0x55e35d247578&#45;&gt;Node0x55e35d248ab8 -->
<g id="edge57" class="edge">
<title>Node0x55e35d247578&#45;&gt;Node0x55e35d248ab8</title>
<path fill="none" stroke="#7fb2ff" d="M1383.41,-2150.12C1328.99,-2151.05 1267.25,-2152.11 1212.72,-2153.05"/>
<polygon fill="#7fb2ff" stroke="#7fb2ff" points="1212.57,-2149.55 1202.63,-2153.23 1212.69,-2156.55 1212.57,-2149.55"/>
</g>
<!-- Node0x55e35d247578&#45;&gt;Node0x55e35d24b998 -->
<g id="edge56" class="edge">
<title>Node0x55e35d247578&#45;&gt;Node0x55e35d24b998</title>
<path fill="none" stroke="#7fb2ff" d="M1383.31,-2160.64C1343.25,-2155.64 1305.14,-2140.8 1284,-2106.59 1267.06,-2079.18 1267.06,-1989 1284,-1961.59 1299.05,-1937.24 1322,-1920.43 1347.96,-1908.93"/>
<polygon fill="#7fb2ff" stroke="#7fb2ff" points="1349.36,-1912.14 1357.26,-1905.07 1346.68,-1905.67 1349.36,-1912.14"/>
</g>
<!-- Node0x55e35d24cbb8&#45;&gt;Node0x55e35d2471b8 -->
<g id="edge59" class="edge">
<title>Node0x55e35d24cbb8&#45;&gt;Node0x55e35d2471b8</title>
<path fill="none" stroke="#7fb2ff" d="M1408.76,-2219.6C1357.36,-2225.42 1296.46,-2231.63 1240.31,-2236.82"/>
<polygon fill="#7fb2ff" stroke="#7fb2ff" points="1239.89,-2233.34 1230.25,-2237.74 1240.53,-2240.31 1239.89,-2233.34"/>
</g>
<!-- Node0x55e35d248f68 -->
<g id="node20" class="node">
<title>Node0x55e35d248f68</title>
<polygon fill="none" stroke="black" points="2165,-525.59 1855,-525.59 1855,-489.59 2165,-489.59 2165,-525.59"/>
<text text-anchor="middle" x="2010" y="-503.89" font-family="Times,serif" font-size="14.00">{lib/libLLVMSupport.a(MemAlloc.cpp.o)}</text>
</g>
<!-- Node0x55e35d24cbb8&#45;&gt;Node0x55e35d248f68 -->
<g id="edge58" class="edge">
<title>Node0x55e35d24cbb8&#45;&gt;Node0x55e35d248f68</title>
<path fill="none" stroke="black" d="M1682,-2212.48C1711.34,-2207.33 1739.37,-2196.09 1760,-2174.59 1795.97,-2137.13 1789.46,-1760.11 1796,-1708.59 1855.94,-1236.59 1974.74,-667.98 2002.91,-535.92"/>
<polygon fill="black" stroke="black" points="2006.4,-536.34 2005.07,-525.83 1999.55,-534.88 2006.4,-536.34"/>
</g>
<!-- Node0x55e35d243c48&#45;&gt;Node0x55e35d24abd8 -->
<g id="edge27" class="edge">
<title>Node0x55e35d243c48&#45;&gt;Node0x55e35d24abd8</title>
<path fill="none" stroke="#7fb2ff" d="M1997.74,-2311.61C1966.73,-2359.37 1874.76,-2489.25 1760,-2542.59 1442.93,-2689.99 1020.72,-2677.24 797.3,-2656.57"/>
<polygon fill="#7fb2ff" stroke="#7fb2ff" points="797.43,-2653.06 787.14,-2655.61 796.77,-2660.03 797.43,-2653.06"/>
</g>
<!-- Node0x55e35d243c48&#45;&gt;Node0x55e35d247938 -->
<g id="edge29" class="edge">
<title>Node0x55e35d243c48&#45;&gt;Node0x55e35d247938</title>
<path fill="none" stroke="#7fb2ff" d="M1915.15,-2311.62C1878.04,-2318.76 1835.01,-2327.05 1796,-2334.59 1780,-2337.69 1776.22,-2340.03 1760,-2341.59 1383.41,-2377.87 934.59,-2304.77 740.66,-2267.55"/>
<polygon fill="#7fb2ff" stroke="#7fb2ff" points="741.26,-2264.1 730.78,-2265.64 739.94,-2270.97 741.26,-2264.1"/>
</g>
<!-- Node0x55e35d243c48&#45;&gt;Node0x55e35d2471b8 -->
<g id="edge30" class="edge">
<title>Node0x55e35d243c48&#45;&gt;Node0x55e35d2471b8</title>
<path fill="none" stroke="#7fb2ff" d="M1890.03,-2311.62C1748.92,-2329.89 1506.97,-2351.45 1302,-2320.59 1237.48,-2310.88 1166.28,-2287.08 1118.94,-2269.28"/>
<polygon fill="#7fb2ff" stroke="#7fb2ff" points="1120.09,-2265.98 1109.5,-2265.69 1117.6,-2272.52 1120.09,-2265.98"/>
</g>
<!-- Node0x55e35d243c48&#45;&gt;Node0x55e35d24d5b8 -->
<g id="edge24" class="edge">
<title>Node0x55e35d243c48&#45;&gt;Node0x55e35d24d5b8</title>
<path fill="none" stroke="#7fb2ff" d="M1975.56,-2275.49C1928.12,-2244.55 1838.35,-2180.98 1760,-2129.59 1690.1,-2083.74 1606.04,-2032.82 1562.11,-2003.4"/>
<polygon fill="#7fb2ff" stroke="#7fb2ff" points="1563.85,-2000.36 1553.62,-1997.64 1559.92,-2006.15 1563.85,-2000.36"/>
</g>
<!-- Node0x55e35d243c48&#45;&gt;Node0x55e35d24b998 -->
<g id="edge26" class="edge">
<title>Node0x55e35d243c48&#45;&gt;Node0x55e35d24b998</title>
<path fill="none" stroke="#7fb2ff" d="M2001.13,-2275.52C1975.4,-2218.66 1888.08,-2041.9 1760,-1952.59 1730.45,-1931.99 1694.46,-1917.88 1659.88,-1908.22"/>
<polygon fill="#7fb2ff" stroke="#7fb2ff" points="1660.73,-1904.83 1650.17,-1905.62 1658.92,-1911.59 1660.73,-1904.83"/>
</g>
<!-- Node0x55e35d243c48&#45;&gt;Node0x55e35d24b718 -->
<g id="edge25" class="edge">
<title>Node0x55e35d243c48&#45;&gt;Node0x55e35d24b718</title>
<path fill="none" stroke="#7fb2ff" d="M1863.98,-2293.59C1820.15,-2293.59 1771.33,-2293.59 1724.89,-2293.59"/>
<polygon fill="#7fb2ff" stroke="#7fb2ff" points="1724.72,-2290.09 1714.72,-2293.59 1724.72,-2297.09 1724.72,-2290.09"/>
</g>
<!-- Node0x55e35d243c48&#45;&gt;Node0x55e35d24b678 -->
<g id="edge33" class="edge">
<title>Node0x55e35d243c48&#45;&gt;Node0x55e35d24b678</title>
<path fill="none" stroke="#7fb2ff" d="M1863.72,-2303C1828.93,-2297.04 1796.55,-2282.6 1778,-2252.59 1756.56,-2217.91 1758.51,-1921.41 1778,-1885.59 1813.22,-1820.88 1889.71,-1779.82 1945.26,-1757.33"/>
<polygon fill="#7fb2ff" stroke="#7fb2ff" points="1946.66,-1760.54 1954.67,-1753.61 1944.09,-1754.03 1946.66,-1760.54"/>
</g>
<!-- Node0x55e35d243c48&#45;&gt;Node0x55e35d248f68 -->
<g id="edge28" class="edge">
<title>Node0x55e35d243c48&#45;&gt;Node0x55e35d248f68</title>
<path fill="none" stroke="black" d="M1863.72,-2303C1828.93,-2297.04 1796.55,-2282.6 1778,-2252.59 1746.75,-2202.03 1772.38,-1776.77 1778,-1717.59 1823.5,-1238.68 1968.12,-667.32 2002.58,-535.61"/>
<polygon fill="black" stroke="black" points="2005.98,-536.45 2005.13,-525.88 1999.21,-534.67 2005.98,-536.45"/>
</g>
<!-- Node0x55e35d245d68 -->
<g id="node21" class="node">
<title>Node0x55e35d245d68</title>
<polygon fill="#7fb2ff" stroke="black" points="2602,-2081.59 2260,-2081.59 2260,-2045.59 2602,-2045.59 2602,-2081.59"/>
<text text-anchor="middle" x="2431" y="-2059.89" font-family="Times,serif" font-size="14.00">{lib/libLLVMSupport.a(CommandLine.cpp.o)}</text>
</g>
<!-- Node0x55e35d243c48&#45;&gt;Node0x55e35d245d68 -->
<g id="edge31" class="edge">
<title>Node0x55e35d243c48&#45;&gt;Node0x55e35d245d68</title>
<path fill="none" stroke="#7fb2ff" d="M2156.17,-2284.07C2179.6,-2279.1 2203.03,-2271.91 2224,-2261.59 2307.24,-2220.62 2378.81,-2133.83 2411.33,-2090.04"/>
<polygon fill="#7fb2ff" stroke="#7fb2ff" points="2414.22,-2092.02 2417.3,-2081.88 2408.57,-2087.88 2414.22,-2092.02"/>
</g>
<!-- Node0x55e35d246e98 -->
<g id="node22" class="node">
<title>Node0x55e35d246e98</title>
<polygon fill="#7fb2ff" stroke="black" points="2601.5,-2311.59 2260.5,-2311.59 2260.5,-2275.59 2601.5,-2275.59 2601.5,-2311.59"/>
<text text-anchor="middle" x="2431" y="-2289.89" font-family="Times,serif" font-size="14.00">{lib/libLLVMSupport.a(MemoryBuffer.cpp.o)}</text>
</g>
<!-- Node0x55e35d243c48&#45;&gt;Node0x55e35d246e98 -->
<g id="edge32" class="edge">
<title>Node0x55e35d243c48&#45;&gt;Node0x55e35d246e98</title>
<path fill="none" stroke="#7fb2ff" d="M2156.08,-2293.59C2186.37,-2293.59 2218.66,-2293.59 2250.05,-2293.59"/>
<polygon fill="#7fb2ff" stroke="#7fb2ff" points="2250.2,-2297.09 2260.2,-2293.59 2250.2,-2290.09 2250.2,-2297.09"/>
</g>
<!-- Node0x55e35d24b678&#45;&gt;Node0x55e35d24abd8 -->
<g id="edge38" class="edge">
<title>Node0x55e35d24b678&#45;&gt;Node0x55e35d24abd8</title>
<path fill="none" stroke="#7fb2ff" d="M1963.62,-1717.59C1791.68,-1652.68 1174.31,-1450.13 862,-1754.59 793.84,-1821.04 889.69,-2539.85 826,-2610.59 819.99,-2617.27 813.11,-2622.8 805.62,-2627.37"/>
<polygon fill="#7fb2ff" stroke="#7fb2ff" points="803.68,-2624.44 796.57,-2632.29 807.03,-2630.59 803.68,-2624.44"/>
</g>
<!-- Node0x55e35d24b678&#45;&gt;Node0x55e35d247938 -->
<g id="edge40" class="edge">
<title>Node0x55e35d24b678&#45;&gt;Node0x55e35d247938</title>
<path fill="none" stroke="#7fb2ff" d="M1975.33,-1717.57C1822.77,-1638.64 1189.75,-1340.64 862,-1645.59 780.61,-1721.33 885.48,-2050.66 826,-2144.59 800.95,-2184.15 754.97,-2209.96 715.43,-2225.86"/>
<polygon fill="#7fb2ff" stroke="#7fb2ff" points="714.12,-2222.61 706.06,-2229.49 716.65,-2229.14 714.12,-2222.61"/>
</g>
<!-- Node0x55e35d24b678&#45;&gt;Node0x55e35d24d5b8 -->
<g id="edge37" class="edge">
<title>Node0x55e35d24b678&#45;&gt;Node0x55e35d24d5b8</title>
<path fill="none" stroke="#7fb2ff" d="M1853.94,-1736.77C1832.56,-1742.92 1812.36,-1752.66 1796,-1767.59 1746.32,-1812.94 1806.66,-1866.15 1760,-1914.59 1740.86,-1934.46 1716.12,-1948.38 1690.02,-1958.11"/>
<polygon fill="#7fb2ff" stroke="#7fb2ff" points="1688.62,-1954.89 1680.35,-1961.5 1690.94,-1961.49 1688.62,-1954.89"/>
</g>
<!-- Node0x55e35d24b678&#45;&gt;Node0x55e35d248f68 -->
<g id="edge39" class="edge">
<title>Node0x55e35d24b678&#45;&gt;Node0x55e35d248f68</title>
<path fill="none" stroke="black" d="M2010,-1717.58C2010,-1323.74 2010,-929.9 2010,-536.06"/>
<polygon fill="black" stroke="black" points="2013.5,-535.88 2010,-525.88 2006.5,-535.88 2013.5,-535.88"/>
</g>
<!-- Node0x55e35d245d68&#45;&gt;Node0x55e35d24abd8 -->
<g id="edge67" class="edge">
<title>Node0x55e35d245d68&#45;&gt;Node0x55e35d24abd8</title>
<path fill="none" stroke="#7fb2ff" d="M2413.6,-2081.79C2382.43,-2116.67 2313.03,-2195.75 2260,-2266.59 2242.71,-2289.68 2244.66,-2300.47 2224,-2320.59 2049.46,-2490.61 1989.12,-2529.67 1760,-2612.59 1383.7,-2748.78 1260.47,-2715.65 862,-2678.59 818.25,-2674.52 770.19,-2665.96 730.32,-2657.71"/>
<polygon fill="#7fb2ff" stroke="#7fb2ff" points="730.87,-2654.25 720.37,-2655.63 729.43,-2661.1 730.87,-2654.25"/>
</g>
<!-- Node0x55e35d245d68&#45;&gt;Node0x55e35d247938 -->
<g id="edge70" class="edge">
<title>Node0x55e35d245d68&#45;&gt;Node0x55e35d247938</title>
<path fill="none" stroke="#7fb2ff" d="M2259.72,-2053.79C2247.64,-2053.31 2235.64,-2052.9 2224,-2052.59 2019.18,-2047.13 1493.44,-1980.59 1302,-2053.59 1282,-2061.22 1285.58,-2076.94 1266,-2085.59 1100.86,-2158.62 1034.38,-2074.82 862,-2128.59 843.36,-2134.41 742.04,-2191.38 684.14,-2224.34"/>
<polygon fill="#7fb2ff" stroke="#7fb2ff" points="682.19,-2221.42 675.24,-2229.41 685.66,-2227.5 682.19,-2221.42"/>
</g>
<!-- Node0x55e35d245d68&#45;&gt;Node0x55e35d248ab8 -->
<g id="edge69" class="edge">
<title>Node0x55e35d245d68&#45;&gt;Node0x55e35d248ab8</title>
<path fill="none" stroke="#7fb2ff" d="M2259.93,-2060.26C1966.33,-2055.53 1387.49,-2051.11 1302,-2087.59 1281.19,-2096.47 1286.16,-2113.31 1266,-2123.59 1249.38,-2132.07 1231.07,-2138.41 1212.47,-2143.14"/>
<polygon fill="#7fb2ff" stroke="#7fb2ff" points="1211.63,-2139.74 1202.72,-2145.46 1213.26,-2146.55 1211.63,-2139.74"/>
</g>
<!-- Node0x55e35d245d68&#45;&gt;Node0x55e35d2471b8 -->
<g id="edge71" class="edge">
<title>Node0x55e35d245d68&#45;&gt;Node0x55e35d2471b8</title>
<path fill="none" stroke="#7fb2ff" d="M2374.31,-2081.63C2260.44,-2117.53 1992.09,-2197.21 1760,-2228.59 1584.2,-2252.36 1381.18,-2255.1 1240.14,-2253.12"/>
<polygon fill="#7fb2ff" stroke="#7fb2ff" points="1240.15,-2249.62 1230.1,-2252.97 1240.04,-2256.62 1240.15,-2249.62"/>
</g>
<!-- Node0x55e35d245d68&#45;&gt;Node0x55e35d24d5b8 -->
<g id="edge65" class="edge">
<title>Node0x55e35d245d68&#45;&gt;Node0x55e35d24d5b8</title>
<path fill="none" stroke="#7fb2ff" d="M2371.59,-2045.51C2330.69,-2033.67 2274.54,-2019.06 2224,-2011.59 2052.07,-1986.18 1853.74,-1979.26 1713.6,-1978.06"/>
<polygon fill="#7fb2ff" stroke="#7fb2ff" points="1713.22,-1974.55 1703.19,-1977.98 1713.17,-1981.55 1713.22,-1974.55"/>
</g>
<!-- Node0x55e35d245d68&#45;&gt;Node0x55e35d24b998 -->
<g id="edge66" class="edge">
<title>Node0x55e35d245d68&#45;&gt;Node0x55e35d24b998</title>
<path fill="none" stroke="#7fb2ff" d="M2417.46,-2045.36C2388.78,-2005.48 2313.89,-1911.31 2224,-1876.59 2016.03,-1796.28 1746.02,-1838.16 1613.14,-1867.3"/>
<polygon fill="#7fb2ff" stroke="#7fb2ff" points="1612.04,-1863.96 1603.04,-1869.55 1613.56,-1870.79 1612.04,-1863.96"/>
</g>
<!-- Node0x55e35d245d68&#45;&gt;Node0x55e35d248f68 -->
<g id="edge68" class="edge">
<title>Node0x55e35d245d68&#45;&gt;Node0x55e35d248f68</title>
<path fill="none" stroke="black" d="M2429.15,-2045.33C2423.46,-1933.99 2386.24,-1336.3 2224,-883.59 2173.56,-742.86 2072.59,-593.4 2030.31,-534.07"/>
<polygon fill="black" stroke="black" points="2032.95,-531.74 2024.28,-525.66 2027.26,-535.82 2032.95,-531.74"/>
</g>
<!-- Node0x55e35d245e58 -->
<g id="node23" class="node">
<title>Node0x55e35d245e58</title>
<polygon fill="#7fb2ff" stroke="black" points="2964,-2081.59 2638,-2081.59 2638,-2045.59 2964,-2045.59 2964,-2081.59"/>
<text text-anchor="middle" x="2801" y="-2059.89" font-family="Times,serif" font-size="14.00">{lib/libLLVMSupport.a(SmallPtrSet.cpp.o)}</text>
</g>
<!-- Node0x55e35d245d68&#45;&gt;Node0x55e35d245e58 -->
<g id="edge72" class="edge">
<title>Node0x55e35d245d68&#45;&gt;Node0x55e35d245e58</title>
<path fill="none" stroke="#7fb2ff" d="M2602.27,-2063.59C2610.69,-2063.59 2619.16,-2063.59 2627.59,-2063.59"/>
<polygon fill="#7fb2ff" stroke="#7fb2ff" points="2627.86,-2067.09 2637.86,-2063.59 2627.86,-2060.09 2627.86,-2067.09"/>
</g>
<!-- Node0x55e35d248c98 -->
<g id="node24" class="node">
<title>Node0x55e35d248c98</title>
<polygon fill="#7fb2ff" stroke="black" points="2959,-2027.59 2643,-2027.59 2643,-1991.59 2959,-1991.59 2959,-2027.59"/>
<text text-anchor="middle" x="2801" y="-2005.89" font-family="Times,serif" font-size="14.00">{lib/libLLVMSupport.a(StringMap.cpp.o)}</text>
</g>
<!-- Node0x55e35d245d68&#45;&gt;Node0x55e35d248c98 -->
<g id="edge73" class="edge">
<title>Node0x55e35d245d68&#45;&gt;Node0x55e35d248c98</title>
<path fill="none" stroke="#7fb2ff" d="M2554.79,-2045.57C2590.81,-2040.29 2630.35,-2034.49 2666.97,-2029.11"/>
<polygon fill="#7fb2ff" stroke="#7fb2ff" points="2667.83,-2032.53 2677.22,-2027.61 2666.82,-2025.6 2667.83,-2032.53"/>
</g>
<!-- Node0x55e35d249aa8 -->
<g id="node25" class="node">
<title>Node0x55e35d249aa8</title>
<polygon fill="#7fb2ff" stroke="black" points="2937.5,-2728.59 2664.5,-2728.59 2664.5,-2692.59 2937.5,-2692.59 2937.5,-2728.59"/>
<text text-anchor="middle" x="2801" y="-2706.89" font-family="Times,serif" font-size="14.00">{lib/libLLVMSupport.a(Host.cpp.o)}</text>
</g>
<!-- Node0x55e35d245d68&#45;&gt;Node0x55e35d249aa8 -->
<g id="edge74" class="edge">
<title>Node0x55e35d245d68&#45;&gt;Node0x55e35d249aa8</title>
<path fill="none" stroke="#7fb2ff" d="M2454.33,-2081.79C2492.39,-2114.3 2568.92,-2186.5 2602,-2266.59 2637.5,-2352.56 2574.88,-2615.28 2638,-2683.59 2643.19,-2689.21 2649.07,-2693.94 2655.43,-2697.92"/>
<polygon fill="#7fb2ff" stroke="#7fb2ff" points="2653.96,-2701.1 2664.4,-2702.89 2657.35,-2694.98 2653.96,-2701.1"/>
</g>
<!-- Node0x55e35d24a188 -->
<g id="node26" class="node">
<title>Node0x55e35d24a188</title>
<polygon fill="#7fb2ff" stroke="black" points="2941.5,-2674.59 2660.5,-2674.59 2660.5,-2638.59 2941.5,-2638.59 2941.5,-2674.59"/>
<text text-anchor="middle" x="2801" y="-2652.89" font-family="Times,serif" font-size="14.00">{lib/libLLVMSupport.a(Triple.cpp.o)}</text>
</g>
<!-- Node0x55e35d245d68&#45;&gt;Node0x55e35d24a188 -->
<g id="edge75" class="edge">
<title>Node0x55e35d245d68&#45;&gt;Node0x55e35d24a188</title>
<path fill="none" stroke="#7fb2ff" d="M2449.7,-2081.77C2482.43,-2115.98 2553.5,-2193.13 2602,-2266.59 2686.56,-2394.68 2761.02,-2563.63 2788.62,-2629.06"/>
<polygon fill="#7fb2ff" stroke="#7fb2ff" points="2785.4,-2630.43 2792.49,-2638.3 2791.85,-2627.73 2785.4,-2630.43"/>
</g>
<!-- Node0x55e35d246e98&#45;&gt;Node0x55e35d247938 -->
<g id="edge79" class="edge">
<title>Node0x55e35d246e98&#45;&gt;Node0x55e35d247938</title>
<path fill="none" stroke="#7fb2ff" d="M2396.79,-2311.77C2356.64,-2333.3 2286.64,-2369.41 2224,-2394.59 1838.94,-2549.42 1713.35,-2597.68 1302,-2542.59 1101.1,-2515.69 1018.75,-2551.1 862,-2422.59 834.33,-2399.91 850.66,-2376.52 826,-2350.59 791.33,-2314.14 740.87,-2287.01 701.79,-2269.78"/>
<polygon fill="#7fb2ff" stroke="#7fb2ff" points="702.68,-2266.35 692.11,-2265.61 699.91,-2272.78 702.68,-2266.35"/>
</g>
<!-- Node0x55e35d246e98&#45;&gt;Node0x55e35d248ab8 -->
<g id="edge78" class="edge">
<title>Node0x55e35d246e98&#45;&gt;Node0x55e35d248ab8</title>
<path fill="none" stroke="#7fb2ff" d="M2405.86,-2275.39C2368.89,-2248.57 2295.03,-2199.06 2224,-2175.59 1857.15,-2054.39 1388.71,-2103.73 1177.37,-2135.98"/>
<polygon fill="#7fb2ff" stroke="#7fb2ff" points="1176.54,-2132.57 1167.19,-2137.55 1177.61,-2139.49 1176.54,-2132.57"/>
</g>
<!-- Node0x55e35d246e98&#45;&gt;Node0x55e35d2459f8 -->
<g id="edge76" class="edge">
<title>Node0x55e35d246e98&#45;&gt;Node0x55e35d2459f8</title>
<path fill="none" stroke="#7fb2ff" d="M2349.34,-2311.62C2223.78,-2339.3 1973.79,-2392.93 1760,-2429.59 1733.33,-2434.17 1704.83,-2438.56 1677.32,-2442.55"/>
<polygon fill="#7fb2ff" stroke="#7fb2ff" points="1676.64,-2439.11 1667.24,-2444 1677.64,-2446.04 1676.64,-2439.11"/>
</g>
<!-- Node0x55e35d246e98&#45;&gt;Node0x55e35d247578 -->
<g id="edge77" class="edge">
<title>Node0x55e35d246e98&#45;&gt;Node0x55e35d247578</title>
<path fill="none" stroke="#7fb2ff" d="M2338.16,-2275.54C2209.32,-2250.62 1967.44,-2205.27 1760,-2174.59 1737.06,-2171.2 1712.76,-2167.95 1688.92,-2164.96"/>
<polygon fill="#7fb2ff" stroke="#7fb2ff" points="1689.09,-2161.46 1678.73,-2163.7 1688.23,-2168.41 1689.09,-2161.46"/>
</g>
<!-- Node0x55e35d245e58&#45;&gt;Node0x55e35d24d5b8 -->
<g id="edge80" class="edge">
<title>Node0x55e35d245e58&#45;&gt;Node0x55e35d24d5b8</title>
<path fill="none" stroke="#7fb2ff" d="M2675.61,-2045.52C2662.83,-2042.87 2650.1,-2039.9 2638,-2036.59 2270.58,-1936.1 2145.92,-1726.08 1796,-1876.59 1774.63,-1885.79 1779.89,-1902.53 1760,-1914.59 1726.4,-1934.97 1686.15,-1949.18 1648.89,-1959"/>
<polygon fill="#7fb2ff" stroke="#7fb2ff" points="1647.8,-1955.67 1638.97,-1961.53 1649.53,-1962.45 1647.8,-1955.67"/>
</g>
<!-- Node0x55e35d248c98&#45;&gt;Node0x55e35d24d5b8 -->
<g id="edge81" class="edge">
<title>Node0x55e35d248c98&#45;&gt;Node0x55e35d24d5b8</title>
<path fill="none" stroke="#7fb2ff" d="M2789.54,-1991.38C2764.02,-1948.99 2693.82,-1844.43 2602,-1805.59 2519.52,-1770.71 1868.58,-1753.13 1796,-1805.59 1754.65,-1835.48 1796.81,-1879.27 1760,-1914.59 1739.08,-1934.67 1712.41,-1948.62 1684.73,-1958.29"/>
<polygon fill="#7fb2ff" stroke="#7fb2ff" points="1683.31,-1955.08 1674.91,-1961.54 1685.5,-1961.72 1683.31,-1955.08"/>
</g>
<!-- Node0x55e35d249aa8&#45;&gt;Node0x55e35d24abd8 -->
<g id="edge82" class="edge">
<title>Node0x55e35d249aa8&#45;&gt;Node0x55e35d24abd8</title>
<path fill="none" stroke="#7fb2ff" d="M2727.65,-2728.62C2589.37,-2761.44 2277.57,-2827.59 2011,-2827.59 1530,-2827.59 1530,-2827.59 1530,-2827.59 1230.12,-2827.59 1150.55,-2814.23 862,-2732.59 798.59,-2714.65 729.48,-2682.25 686.33,-2660.34"/>
<polygon fill="#7fb2ff" stroke="#7fb2ff" points="687.75,-2657.13 677.26,-2655.69 684.56,-2663.36 687.75,-2657.13"/>
</g>
<!-- Node0x55e35d249aa8&#45;&gt;Node0x55e35d2471b8 -->
<g id="edge84" class="edge">
<title>Node0x55e35d249aa8&#45;&gt;Node0x55e35d2471b8</title>
<path fill="none" stroke="#7fb2ff" d="M2682.46,-2692.59C2667.45,-2689.82 2652.33,-2686.81 2638,-2683.59 2242.23,-2594.78 2154.15,-2530.35 1760,-2434.59 1558.16,-2385.56 1501.1,-2400.78 1302,-2341.59 1235.31,-2321.77 1161.18,-2290.85 1113.88,-2269.94"/>
<polygon fill="#7fb2ff" stroke="#7fb2ff" points="1115.05,-2266.63 1104.49,-2265.77 1112.21,-2273.03 1115.05,-2266.63"/>
</g>
<!-- Node0x55e35d249aa8&#45;&gt;Node0x55e35d248f68 -->
<g id="edge83" class="edge">
<title>Node0x55e35d249aa8&#45;&gt;Node0x55e35d248f68</title>
<path fill="none" stroke="black" d="M2664.13,-2703.13C2654.34,-2698.26 2645.42,-2691.88 2638,-2683.59 2589.95,-2629.97 2615.33,-2107.35 2602,-2036.59 2502.17,-1506.63 2441.98,-1376.86 2224,-883.59 2163.43,-746.52 2067.7,-594.44 2028.56,-534.23"/>
<polygon fill="black" stroke="black" points="2031.39,-532.15 2022.99,-525.69 2025.53,-535.98 2031.39,-532.15"/>
</g>
<!-- Node0x55e35d249aa8&#45;&gt;Node0x55e35d248c98 -->
<g id="edge85" class="edge">
<title>Node0x55e35d249aa8&#45;&gt;Node0x55e35d248c98</title>
<path fill="none" stroke="#7fb2ff" d="M2664.26,-2708.85C2646.19,-2702.14 2630.36,-2691.35 2620,-2674.59 2601.63,-2644.87 2601.63,-2075.32 2620,-2045.59 2624.11,-2038.94 2629.08,-2033.23 2634.72,-2028.34"/>
<polygon fill="#7fb2ff" stroke="#7fb2ff" points="2636.97,-2031.03 2642.79,-2022.17 2632.71,-2025.47 2636.97,-2031.03"/>
</g>
<!-- Node0x55e35d249aa8&#45;&gt;Node0x55e35d24a188 -->
<g id="edge86" class="edge">
<title>Node0x55e35d249aa8&#45;&gt;Node0x55e35d24a188</title>
<path fill="none" stroke="#7fb2ff" d="M2801,-2692.38C2801,-2689.9 2801,-2687.42 2801,-2684.94"/>
<polygon fill="#7fb2ff" stroke="#7fb2ff" points="2804.5,-2684.73 2801,-2674.73 2797.5,-2684.73 2804.5,-2684.73"/>
</g>
<!-- Node0x55e35d24a188&#45;&gt;Node0x55e35d24abd8 -->
<g id="edge87" class="edge">
<title>Node0x55e35d24a188&#45;&gt;Node0x55e35d24abd8</title>
<path fill="none" stroke="#7fb2ff" d="M2691.8,-2674.63C2645.59,-2682.33 2602.08,-2689.58 2602,-2689.59 2027.17,-2750.25 1879.89,-2740.06 1302,-2727.59 1106.31,-2723.37 1054.62,-2743.38 862,-2708.59 803.98,-2698.11 740.11,-2676.06 696.49,-2659.3"/>
<polygon fill="#7fb2ff" stroke="#7fb2ff" points="697.55,-2655.95 686.96,-2655.59 695.01,-2662.48 697.55,-2655.95"/>
</g>
<!-- Node0x55e35d24a188&#45;&gt;Node0x55e35d247938 -->
<g id="edge88" class="edge">
<title>Node0x55e35d24a188&#45;&gt;Node0x55e35d247938</title>
<path fill="none" stroke="#7fb2ff" d="M2660.35,-2651.2C2502.68,-2645.58 2238.45,-2637.59 2011,-2637.59 1530,-2637.59 1530,-2637.59 1530,-2637.59 1226.29,-2637.59 1080.41,-2704.63 862,-2493.59 814.87,-2448.05 865.76,-2402.7 826,-2350.59 796.68,-2312.17 748.64,-2285.89 709.21,-2269.49"/>
<polygon fill="#7fb2ff" stroke="#7fb2ff" points="710.49,-2266.23 699.91,-2265.74 707.87,-2272.73 710.49,-2266.23"/>
</g>
<!-- Node0x55e35d24a9a8 -->
<g id="node36" class="node">
<title>Node0x55e35d24a9a8</title>
<polygon fill="#7fb2ff" stroke="black" points="3365,-2797.59 3000,-2797.59 3000,-2761.59 3365,-2761.59 3365,-2797.59"/>
<text text-anchor="middle" x="3182.5" y="-2775.89" font-family="Times,serif" font-size="14.00">{lib/libLLVMSupport.a(ARMTargetParser.cpp.o)}</text>
</g>
<!-- Node0x55e35d24a188&#45;&gt;Node0x55e35d24a9a8 -->
<g id="edge89" class="edge">
<title>Node0x55e35d24a188&#45;&gt;Node0x55e35d24a9a8</title>
<path fill="none" stroke="#7fb2ff" d="M2929.16,-2674.65C2941.03,-2677.28 2952.8,-2680.25 2964,-2683.59 3027,-2702.42 3095.82,-2734.99 3138.82,-2756.91"/>
<polygon fill="#7fb2ff" stroke="#7fb2ff" points="3137.36,-2760.1 3147.85,-2761.55 3140.56,-2753.87 3137.36,-2760.1"/>
</g>
<!-- Node0x55e35d24c938 -->
<g id="node27" class="node">
<title>Node0x55e35d24c938</title>
<polygon fill="none" stroke="black" points="1226,-1967.59 902,-1967.59 902,-1931.59 1226,-1931.59 1226,-1967.59"/>
<text text-anchor="middle" x="1064" y="-1945.89" font-family="Times,serif" font-size="14.00">{lib/libLLVMSupport.a(SmallVector.cpp.o)}</text>
</g>
<!-- Node0x55e35d24c938&#45;&gt;Node0x55e35d24d5b8 -->
<g id="edge12" class="edge">
<title>Node0x55e35d24c938&#45;&gt;Node0x55e35d24d5b8</title>
<path fill="none" stroke="black" d="M1226,-1959.98C1265.56,-1962.53 1308.17,-1965.28 1348.61,-1967.89"/>
<polygon fill="black" stroke="black" points="1348.63,-1971.4 1358.84,-1968.55 1349.08,-1964.41 1348.63,-1971.4"/>
</g>
<!-- Node0x55e35d24c618 -->
<g id="node28" class="node">
<title>Node0x55e35d24c618</title>
<polygon fill="none" stroke="black" points="785.5,-1259.59 499.5,-1259.59 499.5,-1223.59 785.5,-1223.59 785.5,-1259.59"/>
<text text-anchor="middle" x="642.5" y="-1237.89" font-family="Times,serif" font-size="14.00">{lib/libLLVMSupport.a(Debug.cpp.o)}</text>
</g>
<!-- Node0x55e35d24c618&#45;&gt;Node0x55e35d2471b8 -->
<g id="edge35" class="edge">
<title>Node0x55e35d24c618&#45;&gt;Node0x55e35d2471b8</title>
<path fill="none" stroke="black" d="M706.9,-1259.62C748.41,-1275.01 799.66,-1301.63 826,-1344.59 874.71,-1424.05 805.56,-2108.43 862,-2182.59 876.98,-2202.28 898.02,-2216.11 920.89,-2225.79"/>
<polygon fill="black" stroke="black" points="919.85,-2229.14 930.44,-2229.56 922.42,-2222.63 919.85,-2229.14"/>
</g>
<!-- Node0x55e35d24c618&#45;&gt;Node0x55e35d24b998 -->
<g id="edge34" class="edge">
<title>Node0x55e35d24c618&#45;&gt;Node0x55e35d24b998</title>
<path fill="none" stroke="black" d="M772.45,-1259.67C793.1,-1268.09 812.18,-1280.21 826,-1297.59 896.84,-1386.7 783.43,-1726.21 862,-1808.59 926.63,-1876.36 1172.48,-1890.23 1347.11,-1891.13"/>
<polygon fill="black" stroke="black" points="1347.18,-1894.63 1357.19,-1891.16 1347.21,-1887.63 1347.18,-1894.63"/>
</g>
<!-- Node0x55e35d249f58 -->
<g id="node29" class="node">
<title>Node0x55e35d249f58</title>
<polygon fill="none" stroke="black" points="790.5,-1389.59 494.5,-1389.59 494.5,-1353.59 790.5,-1353.59 790.5,-1389.59"/>
<text text-anchor="middle" x="642.5" y="-1367.89" font-family="Times,serif" font-size="14.00">{lib/libLLVMSupport.a(APFloat.cpp.o)}</text>
</g>
<!-- Node0x55e35d249f58&#45;&gt;Node0x55e35d248ab8 -->
<g id="edge45" class="edge">
<title>Node0x55e35d249f58&#45;&gt;Node0x55e35d248ab8</title>
<path fill="none" stroke="black" d="M790.6,-1378.54C803.98,-1384.41 816.17,-1392.53 826,-1403.59 921.21,-1510.73 785.04,-1926.67 862,-2047.59 889.45,-2090.72 940.29,-2117.8 983.97,-2134.07"/>
<polygon fill="black" stroke="black" points="982.86,-2137.39 993.46,-2137.48 985.23,-2130.8 982.86,-2137.39"/>
</g>
<!-- Node0x55e35d249f58&#45;&gt;Node0x55e35d2471b8 -->
<g id="edge46" class="edge">
<title>Node0x55e35d249f58&#45;&gt;Node0x55e35d2471b8</title>
<path fill="none" stroke="black" d="M790.73,-1378.42C804.09,-1384.32 816.23,-1392.48 826,-1403.59 885.6,-1471.44 801.87,-2148.21 862,-2215.59 869.73,-2224.26 878.8,-2231.23 888.72,-2236.79"/>
<polygon fill="black" stroke="black" points="887.14,-2239.92 897.64,-2241.33 890.31,-2233.68 887.14,-2239.92"/>
</g>
<!-- Node0x55e35d24a868 -->
<g id="node30" class="node">
<title>Node0x55e35d24a868</title>
<polygon fill="none" stroke="black" points="782,-1757.59 503,-1757.59 503,-1721.59 782,-1721.59 782,-1757.59"/>
<text text-anchor="middle" x="642.5" y="-1735.89" font-family="Times,serif" font-size="14.00">{lib/libLLVMSupport.a(APInt.cpp.o)}</text>
</g>
<!-- Node0x55e35d24a868&#45;&gt;Node0x55e35d2471b8 -->
<g id="edge47" class="edge">
<title>Node0x55e35d24a868&#45;&gt;Node0x55e35d2471b8</title>
<path fill="none" stroke="black" d="M782.09,-1739.6C798.68,-1745.14 813.97,-1753.73 826,-1766.59 894.37,-1839.7 794.03,-2142.11 862,-2215.59 869.72,-2223.93 878.66,-2230.68 888.41,-2236.11"/>
<polygon fill="black" stroke="black" points="887.08,-2239.36 897.58,-2240.73 890.23,-2233.11 887.08,-2239.36"/>
</g>
<!-- Node0x55e35d249b48 -->
<g id="node31" class="node">
<title>Node0x55e35d249b48</title>
<polygon fill="none" stroke="black" points="1222.5,-533.59 905.5,-533.59 905.5,-497.59 1222.5,-497.59 1222.5,-533.59"/>
<text text-anchor="middle" x="1064" y="-511.89" font-family="Times,serif" font-size="14.00">{lib/libLLVMSupport.a(FoldingSet.cpp.o)}</text>
</g>
<!-- Node0x55e35d249b48&#45;&gt;Node0x55e35d24d5b8 -->
<g id="edge48" class="edge">
<title>Node0x55e35d249b48&#45;&gt;Node0x55e35d24d5b8</title>
<path fill="none" stroke="black" d="M1067.79,-533.67C1092.75,-695.34 1277.49,-1887.23 1302,-1914.59 1319.65,-1934.3 1342.82,-1948.21 1367.62,-1957.99"/>
<polygon fill="black" stroke="black" points="1366.6,-1961.35 1377.19,-1961.54 1369.03,-1954.78 1366.6,-1961.35"/>
</g>
<!-- Node0x55e35d249b48&#45;&gt;Node0x55e35d248f68 -->
<g id="edge49" class="edge">
<title>Node0x55e35d249b48&#45;&gt;Node0x55e35d248f68</title>
<path fill="none" stroke="black" d="M1222.74,-514.26C1395.04,-512.8 1669.75,-510.47 1844.63,-508.99"/>
<polygon fill="black" stroke="black" points="1844.73,-512.49 1854.7,-508.9 1844.67,-505.49 1844.73,-512.49"/>
</g>
<!-- Node0x55e35d245278 -->
<g id="node32" class="node">
<title>Node0x55e35d245278</title>
<polygon fill="none" stroke="black" points="779.5,-1703.59 505.5,-1703.59 505.5,-1667.59 779.5,-1667.59 779.5,-1703.59"/>
<text text-anchor="middle" x="642.5" y="-1681.89" font-family="Times,serif" font-size="14.00">{lib/libLLVMSupport.a(MD5.cpp.o)}</text>
</g>
<!-- Node0x55e35d245278&#45;&gt;Node0x55e35d2471b8 -->
<g id="edge60" class="edge">
<title>Node0x55e35d245278&#45;&gt;Node0x55e35d2471b8</title>
<path fill="none" stroke="black" d="M779.93,-1684.76C797.37,-1690.29 813.48,-1699.09 826,-1712.59 902.2,-1794.77 786.26,-2133 862,-2215.59 869.85,-2224.15 879,-2231.04 888.98,-2236.55"/>
<polygon fill="black" stroke="black" points="887.45,-2239.7 897.96,-2241.04 890.58,-2233.44 887.45,-2239.7"/>
</g>
<!-- Node0x55e35d246da8 -->
<g id="node33" class="node">
<title>Node0x55e35d246da8</title>
<polygon fill="none" stroke="black" points="1266,-1799.59 862,-1799.59 862,-1763.59 1266,-1763.59 1266,-1799.59"/>
<text text-anchor="middle" x="1064" y="-1777.89" font-family="Times,serif" font-size="14.00">{lib/libLLVMSupport.a(CrashRecoveryContext.cpp.o)}</text>
</g>
<!-- Node0x55e35d246da8&#45;&gt;Node0x55e35d24b998 -->
<g id="edge61" class="edge">
<title>Node0x55e35d246da8&#45;&gt;Node0x55e35d24b998</title>
<path fill="none" stroke="black" d="M1192.48,-1799.61C1216.97,-1803.72 1242.36,-1808.42 1266,-1813.59 1333.96,-1828.48 1410.37,-1850.48 1463.43,-1866.63"/>
<polygon fill="black" stroke="black" points="1462.47,-1870 1473.06,-1869.58 1464.52,-1863.3 1462.47,-1870"/>
</g>
<!-- Node0x55e35d24d838 -->
<g id="node34" class="node">
<title>Node0x55e35d24d838</title>
<polygon fill="none" stroke="black" points="377.5,-2538.59 45.5,-2538.59 45.5,-2502.59 377.5,-2502.59 377.5,-2538.59"/>
<text text-anchor="middle" x="211.5" y="-2516.89" font-family="Times,serif" font-size="14.00">{lib/libLLVMSupport.a(StringExtras.cpp.o)}</text>
</g>
<!-- Node0x55e35d24d838&#45;&gt;Node0x55e35d24abd8 -->
<g id="edge62" class="edge">
<title>Node0x55e35d24d838&#45;&gt;Node0x55e35d24abd8</title>
<path fill="none" stroke="black" d="M279.75,-2538.69C321.77,-2550.95 376.52,-2568.7 423,-2589.59 439.9,-2597.19 441.52,-2604.46 459,-2610.59 465.5,-2612.87 472.19,-2614.96 479,-2616.87"/>
<polygon fill="black" stroke="black" points="478.49,-2620.36 489.06,-2619.55 480.29,-2613.59 478.49,-2620.36"/>
</g>
<!-- Node0x55e35d24d838&#45;&gt;Node0x55e35d2471b8 -->
<g id="edge63" class="edge">
<title>Node0x55e35d24d838&#45;&gt;Node0x55e35d2471b8</title>
<path fill="none" stroke="black" d="M377.78,-2522.82C505.07,-2518.94 682.89,-2501.13 826,-2439.59 917.14,-2400.41 1001.81,-2315.75 1040.67,-2273.16"/>
<polygon fill="black" stroke="black" points="1043.28,-2275.49 1047.38,-2265.72 1038.08,-2270.8 1043.28,-2275.49"/>
</g>
<!-- Node0x55e35d244e68 -->
<g id="node35" class="node">
<title>Node0x55e35d244e68</title>
<polygon fill="none" stroke="black" points="1693,-625.59 1369,-625.59 1369,-589.59 1693,-589.59 1693,-625.59"/>
<text text-anchor="middle" x="1531" y="-603.89" font-family="Times,serif" font-size="14.00">{lib/libLLVMSupport.a(StringSaver.cpp.o)}</text>
</g>
<!-- Node0x55e35d244e68&#45;&gt;Node0x55e35d248f68 -->
<g id="edge64" class="edge">
<title>Node0x55e35d244e68&#45;&gt;Node0x55e35d248f68</title>
<path fill="none" stroke="black" d="M1693.23,-591.91C1715.75,-588.73 1738.52,-584.98 1760,-580.59 1824.76,-567.36 1897.08,-545.32 1947.02,-528.91"/>
<polygon fill="black" stroke="black" points="1948.3,-532.17 1956.7,-525.71 1946.1,-525.53 1948.3,-532.17"/>
</g>
<!-- Node0x55e35d24a9a8&#45;&gt;Node0x55e35d24abd8 -->
<g id="edge107" class="edge">
<title>Node0x55e35d24a9a8&#45;&gt;Node0x55e35d24abd8</title>
<path fill="none" stroke="#7fb2ff" d="M3116.93,-2797.62C2987.9,-2832.01 2688.53,-2903.59 2432,-2903.59 1530,-2903.59 1530,-2903.59 1530,-2903.59 1228.82,-2903.59 1140.75,-2903.66 862,-2789.59 785.94,-2758.47 710.1,-2697.23 670.89,-2662.74"/>
<polygon fill="#7fb2ff" stroke="#7fb2ff" points="672.89,-2659.83 663.09,-2655.81 668.24,-2665.07 672.89,-2659.83"/>
</g>
<!-- Node0x55e35d2456d8 -->
<g id="node37" class="node">
<title>Node0x55e35d2456d8</title>
<polygon fill="none" stroke="black" points="395.5,-373.59 27.5,-373.59 27.5,-337.59 395.5,-337.59 395.5,-373.59"/>
<text text-anchor="middle" x="211.5" y="-351.89" font-family="Times,serif" font-size="14.00">{lib/libLLVMSupport.a(VirtualFileSystem.cpp.o)}</text>
</g>
<!-- Node0x55e35d2456d8&#45;&gt;Node0x55e35d24abd8 -->
<g id="edge91" class="edge">
<title>Node0x55e35d2456d8&#45;&gt;Node0x55e35d24abd8</title>
<path fill="none" stroke="black" d="M317.57,-373.64C357.36,-386.1 398.85,-407.13 423,-442.59 490.79,-542.17 379.55,-2520.05 459,-2610.59 464.92,-2617.34 471.73,-2622.94 479.17,-2627.55"/>
<polygon fill="black" stroke="black" points="477.73,-2630.75 488.18,-2632.52 481.11,-2624.62 477.73,-2630.75"/>
</g>
<!-- Node0x55e35d2456d8&#45;&gt;Node0x55e35d247938 -->
<g id="edge94" class="edge">
<title>Node0x55e35d2456d8&#45;&gt;Node0x55e35d247938</title>
<path fill="none" stroke="black" d="M317.21,-373.6C357.08,-386.06 398.72,-407.1 423,-442.59 476.4,-520.65 410.45,-2063.43 459,-2144.59 482.86,-2184.48 528.36,-2210.21 567.95,-2225.98"/>
<polygon fill="black" stroke="black" points="566.76,-2229.27 577.35,-2229.58 569.26,-2222.73 566.76,-2229.27"/>
</g>
<!-- Node0x55e35d2456d8&#45;&gt;Node0x55e35d248ab8 -->
<g id="edge93" class="edge">
<title>Node0x55e35d2456d8&#45;&gt;Node0x55e35d248ab8</title>
<path fill="none" stroke="black" d="M314.82,-373.62C355.05,-386.1 397.62,-407.15 423,-442.59 495.74,-544.16 386.89,-901.58 459,-1003.59 561.4,-1148.46 725.05,-1014.71 826,-1160.59 877.64,-1235.22 823.04,-1894.62 862,-1976.59 895.89,-2047.91 972.62,-2103.07 1020.87,-2132.33"/>
<polygon fill="black" stroke="black" points="1019.14,-2135.38 1029.53,-2137.49 1022.73,-2129.36 1019.14,-2135.38"/>
</g>
<!-- Node0x55e35d2456d8&#45;&gt;Node0x55e35d2471b8 -->
<g id="edge95" class="edge">
<title>Node0x55e35d2456d8&#45;&gt;Node0x55e35d2471b8</title>
<path fill="none" stroke="black" d="M316.42,-373.6C356.41,-386.07 398.36,-407.11 423,-442.59 488.13,-536.38 381.06,-1386.15 459,-1469.59 514.97,-1529.51 769.56,-1448.12 826,-1507.59 880.22,-1564.73 809.36,-2156.99 862,-2215.59 869.76,-2224.23 878.84,-2231.18 888.78,-2236.73"/>
<polygon fill="black" stroke="black" points="887.22,-2239.86 897.72,-2241.26 890.38,-2233.62 887.22,-2239.86"/>
</g>
<!-- Node0x55e35d2456d8&#45;&gt;Node0x55e35d2459f8 -->
<g id="edge90" class="edge">
<title>Node0x55e35d2456d8&#45;&gt;Node0x55e35d2459f8</title>
<path fill="none" stroke="black" d="M317.54,-373.66C357.33,-386.12 398.82,-407.15 423,-442.59 484.43,-532.66 383.27,-2326.18 459,-2404.59 490.64,-2437.35 1099.66,-2453.34 1384.91,-2459.05"/>
<polygon fill="black" stroke="black" points="1384.85,-2462.55 1394.92,-2459.25 1384.99,-2455.55 1384.85,-2462.55"/>
</g>
<!-- Node0x55e35d2456d8&#45;&gt;Node0x55e35d248f68 -->
<g id="edge92" class="edge">
<title>Node0x55e35d2456d8&#45;&gt;Node0x55e35d248f68</title>
<path fill="none" stroke="black" d="M395.55,-346.06C687.21,-334.71 1274.04,-327.61 1760,-420.59 1831.47,-434.27 1910.15,-464.49 1959.56,-485.44"/>
<polygon fill="black" stroke="black" points="1958.47,-488.78 1969.04,-489.5 1961.22,-482.35 1958.47,-488.78"/>
</g>
<!-- Node0x55e35d2456d8&#45;&gt;Node0x55e35d248c98 -->
<g id="edge96" class="edge">
<title>Node0x55e35d2456d8&#45;&gt;Node0x55e35d248c98</title>
<path fill="none" stroke="black" d="M395.58,-341.84C405.5,-336.65 414.76,-330.3 423,-322.59 476.21,-272.78 404.7,-211.22 459,-162.59 491.65,-133.35 1273.8,-51.59 1530,-51.59 1530,-51.59 1530,-51.59 2011,-51.59 2276.5,-51.59 2418.13,52.93 2602,-138.59 2735.76,-277.91 2791.36,-1756.73 2799.06,-1981.13"/>
<polygon fill="black" stroke="black" points="2795.57,-1981.53 2799.41,-1991.4 2802.56,-1981.29 2795.57,-1981.53"/>
</g>
<!-- Node0x55e35d246718 -->
<g id="node38" class="node">
<title>Node0x55e35d246718</title>
<polygon fill="none" stroke="black" points="374.5,-487.59 48.5,-487.59 48.5,-451.59 374.5,-451.59 374.5,-487.59"/>
<text text-anchor="middle" x="211.5" y="-465.89" font-family="Times,serif" font-size="14.00">{lib/libLLVMSupport.a(YAMLParser.cpp.o)}</text>
</g>
<!-- Node0x55e35d246718&#45;&gt;Node0x55e35d24abd8 -->
<g id="edge98" class="edge">
<title>Node0x55e35d246718&#45;&gt;Node0x55e35d24abd8</title>
<path fill="none" stroke="black" d="M256.28,-487.71C306.88,-511.3 387.72,-557.84 423,-626.59 473.32,-724.68 386.22,-2527.79 459,-2610.59 464.93,-2617.34 471.74,-2622.93 479.19,-2627.54"/>
<polygon fill="black" stroke="black" points="477.75,-2630.74 488.19,-2632.51 481.13,-2624.61 477.75,-2630.74"/>
</g>
<!-- Node0x55e35d246718&#45;&gt;Node0x55e35d2471b8 -->
<g id="edge100" class="edge">
<title>Node0x55e35d246718&#45;&gt;Node0x55e35d2471b8</title>
<path fill="none" stroke="black" d="M255.56,-487.63C305.88,-511.3 386.84,-558.04 423,-626.59 468.71,-713.25 392.4,-1435.74 459,-1507.59 570.64,-1628.04 713.56,-1430.89 826,-1550.59 927.32,-1658.46 762.92,-2105.66 862,-2215.59 869.78,-2224.22 878.87,-2231.16 888.81,-2236.7"/>
<polygon fill="black" stroke="black" points="887.25,-2239.84 897.76,-2241.22 890.41,-2233.59 887.25,-2239.84"/>
</g>
<!-- Node0x55e35d246718&#45;&gt;Node0x55e35d24d5b8 -->
<g id="edge97" class="edge">
<title>Node0x55e35d246718&#45;&gt;Node0x55e35d24d5b8</title>
<path fill="none" stroke="black" d="M253.96,-487.61C303.48,-511.54 384.46,-558.83 423,-626.59 461,-693.41 407.06,-913.94 459,-970.59 571.27,-1093.06 717.82,-915.5 826,-1041.59 893.7,-1120.5 787.25,-1904.34 862,-1976.59 896.31,-2009.76 1162.65,-2001.52 1348.46,-1991.4"/>
<polygon fill="black" stroke="black" points="1348.84,-1994.89 1358.63,-1990.84 1348.46,-1987.9 1348.84,-1994.89"/>
</g>
<!-- Node0x55e35d246718&#45;&gt;Node0x55e35d248f68 -->
<g id="edge99" class="edge">
<title>Node0x55e35d246718&#45;&gt;Node0x55e35d248f68</title>
<path fill="none" stroke="black" d="M374.94,-472.14C581.86,-475.48 950.52,-481.71 1266,-488.59 1465.09,-492.93 1694.16,-498.95 1844.72,-503.04"/>
<polygon fill="black" stroke="black" points="1844.88,-506.54 1854.97,-503.32 1845.07,-499.55 1844.88,-506.54"/>
</g>
<!-- Node0x55e35d246b28 -->
<g id="node39" class="node">
<title>Node0x55e35d246b28</title>
<polygon fill="none" stroke="black" points="370,-2441.59 53,-2441.59 53,-2405.59 370,-2405.59 370,-2441.59"/>
<text text-anchor="middle" x="211.5" y="-2419.89" font-family="Times,serif" font-size="14.00">{lib/libLLVMSupport.a(SourceMgr.cpp.o)}</text>
</g>
<!-- Node0x55e35d246b28&#45;&gt;Node0x55e35d247938 -->
<g id="edge101" class="edge">
<title>Node0x55e35d246b28&#45;&gt;Node0x55e35d247938</title>
<path fill="none" stroke="black" d="M269.84,-2405.54C312.52,-2391.67 371.96,-2371.4 423,-2350.59 484.32,-2325.59 553.13,-2292.24 596.86,-2270.36"/>
<polygon fill="black" stroke="black" points="598.7,-2273.35 606.06,-2265.73 595.56,-2267.09 598.7,-2273.35"/>
</g>
<!-- Node0x55e35d246b28&#45;&gt;Node0x55e35d2471b8 -->
<g id="edge102" class="edge">
<title>Node0x55e35d246b28&#45;&gt;Node0x55e35d2471b8</title>
<path fill="none" stroke="black" d="M364.82,-2441.61C491.38,-2451.27 674.57,-2452.77 826,-2404.59 911.72,-2377.32 995.51,-2309.31 1036.67,-2272.38"/>
<polygon fill="black" stroke="black" points="1039.03,-2274.96 1044.09,-2265.65 1034.33,-2269.78 1039.03,-2274.96"/>
</g>
<!-- Node0x55e35d246b28&#45;&gt;Node0x55e35d246e98 -->
<g id="edge103" class="edge">
<title>Node0x55e35d246b28&#45;&gt;Node0x55e35d246e98</title>
<path fill="none" stroke="black" d="M335.78,-2441.62C368.15,-2451.95 400.31,-2468.16 423,-2493.59 474.71,-2551.54 402.99,-2610.79 459,-2664.59 876.04,-3065.14 1200.52,-2821.7 1760,-2675.59 1976.27,-2619.11 2035.56,-2601.81 2224,-2481.59 2298.5,-2434.06 2371.48,-2358.74 2407.24,-2319.42"/>
<polygon fill="black" stroke="black" points="2410.2,-2321.37 2414.29,-2311.6 2405,-2316.68 2410.2,-2321.37"/>
</g>
<!-- Node0x55e35d249e68 -->
<g id="node40" class="node">
<title>Node0x55e35d249e68</title>
<polygon fill="none" stroke="black" points="797.5,-1205.59 487.5,-1205.59 487.5,-1169.59 797.5,-1169.59 797.5,-1205.59"/>
<text text-anchor="middle" x="642.5" y="-1183.89" font-family="Times,serif" font-size="14.00">{lib/libLLVMSupport.a(WithColor.cpp.o)}</text>
</g>
<!-- Node0x55e35d249e68&#45;&gt;Node0x55e35d248ab8 -->
<g id="edge104" class="edge">
<title>Node0x55e35d249e68&#45;&gt;Node0x55e35d248ab8</title>
<path fill="none" stroke="black" d="M797.82,-1193.53C808.36,-1198.78 817.96,-1205.67 826,-1214.59 888.03,-1283.41 812.75,-1969.12 862,-2047.59 889.17,-2090.89 940.02,-2117.98 983.77,-2134.2"/>
<polygon fill="black" stroke="black" points="982.68,-2137.52 993.27,-2137.59 985.03,-2130.93 982.68,-2137.52"/>
</g>
<!-- Node0x55e35d249e68&#45;&gt;Node0x55e35d2471b8 -->
<g id="edge105" class="edge">
<title>Node0x55e35d249e68&#45;&gt;Node0x55e35d2471b8</title>
<path fill="none" stroke="black" d="M797.88,-1193.47C808.4,-1198.74 817.99,-1205.65 826,-1214.59 897.82,-1294.76 797.07,-2096.75 862,-2182.59 876.88,-2202.26 897.8,-2216.08 920.58,-2225.77"/>
<polygon fill="black" stroke="black" points="919.5,-2229.1 930.08,-2229.54 922.08,-2222.6 919.5,-2229.1"/>
</g>
<!-- Node0x55e35d249e68&#45;&gt;Node0x55e35d245d68 -->
<g id="edge106" class="edge">
<title>Node0x55e35d249e68&#45;&gt;Node0x55e35d245d68</title>
<path fill="none" stroke="black" d="M797.59,-1198.48C1105.29,-1227.92 1802.4,-1334.34 2224,-1708.59 2331.74,-1804.24 2397.79,-1970.24 2420.8,-2035.8"/>
<polygon fill="black" stroke="black" points="2417.55,-2037.13 2424.12,-2045.44 2424.17,-2034.84 2417.55,-2037.13"/>
</g>
<!-- Node0x55e35d24d018 -->
<g id="node41" class="node">
<title>Node0x55e35d24d018</title>
<polygon fill="none" stroke="black" points="814.5,-2601.59 470.5,-2601.59 470.5,-2565.59 814.5,-2565.59 814.5,-2601.59"/>
<text text-anchor="middle" x="642.5" y="-2579.89" font-family="Times,serif" font-size="14.00">{lib/libLLVMSupport.a(TargetRegistry.cpp.o)}</text>
</g>
<!-- Node0x55e35d24d018&#45;&gt;Node0x55e35d2471b8 -->
<g id="edge108" class="edge">
<title>Node0x55e35d24d018&#45;&gt;Node0x55e35d2471b8</title>
<path fill="none" stroke="black" d="M803.88,-2565.38C811.7,-2561.49 819.14,-2556.92 826,-2551.59 856.78,-2527.66 840.73,-2504.27 862,-2471.59 914.06,-2391.62 994.14,-2311.75 1035.76,-2272.54"/>
<polygon fill="black" stroke="black" points="1038.16,-2275.09 1043.07,-2265.7 1033.38,-2269.97 1038.16,-2275.09"/>
</g>
<!-- Node0x55e35d24d018&#45;&gt;Node0x55e35d24a188 -->
<g id="edge109" class="edge">
<title>Node0x55e35d24d018&#45;&gt;Node0x55e35d24a188</title>
<path fill="none" stroke="black" d="M807.13,-2601.77C813.63,-2604.37 819.95,-2607.3 826,-2610.59 847.3,-2622.19 839.92,-2641.56 862,-2651.59 1022.81,-2724.65 2223.69,-2681.22 2650.24,-2663.25"/>
<polygon fill="black" stroke="black" points="2650.63,-2666.73 2660.47,-2662.82 2650.34,-2659.74 2650.63,-2666.73"/>
</g>
<!-- Node0x55e35d245ef8 -->
<g id="node42" class="node">
<title>Node0x55e35d245ef8</title>
<polygon fill="none" stroke="black" points="794.5,-961.59 490.5,-961.59 490.5,-925.59 794.5,-925.59 794.5,-961.59"/>
<text text-anchor="middle" x="642.5" y="-939.89" font-family="Times,serif" font-size="14.00">{lib/libLLVMSupport.a(TypeSize.cpp.o)}</text>
</g>
<!-- Node0x55e35d245ef8&#45;&gt;Node0x55e35d2471b8 -->
<g id="edge111" class="edge">
<title>Node0x55e35d245ef8&#45;&gt;Node0x55e35d2471b8</title>
<path fill="none" stroke="black" d="M666.62,-961.75C707.71,-995.64 792.33,-1073.07 826,-1160.59 866.8,-1266.64 793.54,-2091.91 862,-2182.59 876.86,-2202.27 897.77,-2216.1 920.55,-2225.79"/>
<polygon fill="black" stroke="black" points="919.47,-2229.13 930.05,-2229.56 922.05,-2222.62 919.47,-2229.13"/>
</g>
<!-- Node0x55e35d245ef8&#45;&gt;Node0x55e35d24d5b8 -->
<g id="edge110" class="edge">
<title>Node0x55e35d245ef8&#45;&gt;Node0x55e35d24d5b8</title>
<path fill="none" stroke="black" d="M794.62,-952.21C806.45,-957.94 817.2,-965.56 826,-975.59 887.1,-1045.23 803.63,-1736.66 862,-1808.59 880.44,-1831.32 1260.49,-1919.1 1438.94,-1959.29"/>
<polygon fill="black" stroke="black" points="1438.32,-1962.74 1448.84,-1961.52 1439.86,-1955.91 1438.32,-1962.74"/>
</g>
<!-- Node0x55e35d245ef8&#45;&gt;Node0x55e35d245d68 -->
<g id="edge112" class="edge">
<title>Node0x55e35d245ef8&#45;&gt;Node0x55e35d245d68</title>
<path fill="none" stroke="black" d="M704.78,-925.57C746.14,-910.02 798.11,-883.21 826,-840.59 869.05,-774.8 803.87,-541.54 862,-488.59 1085.77,-284.79 1996.59,-280.86 2224,-480.59 2346.3,-588.01 2417.62,-1831.4 2428.53,-2035.37"/>
<polygon fill="black" stroke="black" points="2425.04,-2035.75 2429.07,-2045.55 2432.03,-2035.38 2425.04,-2035.75"/>
</g>
<!-- Node0x55e35d245728 -->
<g id="node43" class="node">
<title>Node0x55e35d245728</title>
<polygon fill="none" stroke="black" points="801,-1649.59 484,-1649.59 484,-1613.59 801,-1613.59 801,-1649.59"/>
<text text-anchor="middle" x="642.5" y="-1627.89" font-family="Times,serif" font-size="14.00">{lib/libLLVMSupport.a(KnownBits.cpp.o)}</text>
</g>
<!-- Node0x55e35d245728&#45;&gt;Node0x55e35d2471b8 -->
<g id="edge113" class="edge">
<title>Node0x55e35d245728&#45;&gt;Node0x55e35d2471b8</title>
<path fill="none" stroke="black" d="M801.39,-1639.66C810.49,-1644.6 818.84,-1650.82 826,-1658.59 910.02,-1749.84 778.48,-2123.89 862,-2215.59 869.82,-2224.18 878.95,-2231.09 888.92,-2236.61"/>
<polygon fill="black" stroke="black" points="887.37,-2239.75 897.88,-2241.11 890.51,-2233.5 887.37,-2239.75"/>
</g>
<!-- Node0x55e35d24b628 -->
<g id="node44" class="node">
<title>Node0x55e35d24b628</title>
<polygon fill="none" stroke="black" points="792.5,-1595.59 492.5,-1595.59 492.5,-1559.59 792.5,-1559.59 792.5,-1595.59"/>
<text text-anchor="middle" x="642.5" y="-1573.89" font-family="Times,serif" font-size="14.00">{lib/libLLVMSupport.a(Optional.cpp.o)}</text>
</g>
<!-- Node0x55e35d24b628&#45;&gt;Node0x55e35d2471b8 -->
<g id="edge114" class="edge">
<title>Node0x55e35d24b628&#45;&gt;Node0x55e35d2471b8</title>
<path fill="none" stroke="black" d="M792.53,-1581.28C805.11,-1586.75 816.59,-1594.32 826,-1604.59 917.85,-1704.91 770.7,-2114.78 862,-2215.59 869.8,-2224.2 878.9,-2231.13 888.86,-2236.66"/>
<polygon fill="black" stroke="black" points="887.31,-2239.8 897.81,-2241.17 890.46,-2233.55 887.31,-2239.8"/>
</g>
<!-- Node0x55e35d2452c8 -->
<g id="node45" class="node">
<title>Node0x55e35d2452c8</title>
<polygon fill="none" stroke="black" points="375.5,-2272.59 47.5,-2272.59 47.5,-2236.59 375.5,-2236.59 375.5,-2272.59"/>
<text text-anchor="middle" x="211.5" y="-2250.89" font-family="Times,serif" font-size="14.00">{lib/libLLVMSupport.a(GraphWriter.cpp.o)}</text>
</g>
<!-- Node0x55e35d2452c8&#45;&gt;Node0x55e35d24abd8 -->
<g id="edge115" class="edge">
<title>Node0x55e35d2452c8&#45;&gt;Node0x55e35d24abd8</title>
<path fill="none" stroke="black" d="M375.73,-2265.04C393.56,-2272.24 409.94,-2282.4 423,-2296.59 518.13,-2399.95 361.31,-2509.65 459,-2610.59 465.08,-2616.88 471.95,-2622.13 479.35,-2626.5"/>
<polygon fill="black" stroke="black" points="477.81,-2629.64 488.28,-2631.23 481.08,-2623.45 477.81,-2629.64"/>
</g>
<!-- Node0x55e35d2452c8&#45;&gt;Node0x55e35d247938 -->
<g id="edge116" class="edge">
<title>Node0x55e35d2452c8&#45;&gt;Node0x55e35d247938</title>
<path fill="none" stroke="black" d="M375.6,-2251.93C413.5,-2251.31 453.67,-2250.66 491,-2250.05"/>
<polygon fill="black" stroke="black" points="491.5,-2253.54 501.44,-2249.88 491.39,-2246.54 491.5,-2253.54"/>
</g>
<!-- Node0x55e35d2452c8&#45;&gt;Node0x55e35d2471b8 -->
<g id="edge117" class="edge">
<title>Node0x55e35d2452c8&#45;&gt;Node0x55e35d2471b8</title>
<path fill="none" stroke="black" d="M375.81,-2269.71C403.55,-2271.75 432.08,-2273.5 459,-2274.59 621.98,-2281.19 663.15,-2283.84 826,-2274.59 855.9,-2272.9 887.83,-2270 918.24,-2266.72"/>
<polygon fill="black" stroke="black" points="918.93,-2270.17 928.49,-2265.6 918.17,-2263.21 918.93,-2270.17"/>
</g>
<!-- Node0x55e35d2452c8&#45;&gt;Node0x55e35d245d68 -->
<g id="edge118" class="edge">
<title>Node0x55e35d2452c8&#45;&gt;Node0x55e35d245d68</title>
<path fill="none" stroke="black" d="M213.62,-2236.18C222.1,-2104.21 280.53,-1303.32 459,-1160.59 586.38,-1058.72 707.51,-1048.5 826,-1160.59 878.39,-1210.15 815.82,-1753.21 862,-1808.59 990.81,-1963.09 1103.13,-1884.4 1302,-1914.59 1505,-1945.42 2024.39,-1926.51 2224,-1974.59 2283.74,-1988.98 2348.05,-2019.42 2388.64,-2040.67"/>
<polygon fill="black" stroke="black" points="2387.2,-2043.87 2397.68,-2045.46 2390.48,-2037.69 2387.2,-2043.87"/>
</g>
<!-- Node0x55e35d246a88 -->
<g id="node46" class="node">
<title>Node0x55e35d246a88</title>
<polygon fill="none" stroke="black" points="826,-2395.59 459,-2395.59 459,-2359.59 826,-2359.59 826,-2395.59"/>
<text text-anchor="middle" x="642.5" y="-2373.89" font-family="Times,serif" font-size="14.00">{lib/libLLVMSupport.a(BranchProbability.cpp.o)}</text>
</g>
<!-- Node0x55e35d246a88&#45;&gt;Node0x55e35d2471b8 -->
<g id="edge119" class="edge">
<title>Node0x55e35d246a88&#45;&gt;Node0x55e35d2471b8</title>
<path fill="none" stroke="black" d="M768.03,-2359.51C787.6,-2355.6 807.47,-2350.98 826,-2345.59 894.6,-2325.66 970.31,-2292.21 1017.26,-2270.03"/>
<polygon fill="black" stroke="black" points="1019.02,-2273.07 1026.55,-2265.61 1016.01,-2266.75 1019.02,-2273.07"/>
</g>
<!-- Node0x55e35d247e38 -->
<g id="node47" class="node">
<title>Node0x55e35d247e38</title>
<polygon fill="none" stroke="black" points="814.5,-2135.59 470.5,-2135.59 470.5,-2099.59 814.5,-2099.59 814.5,-2135.59"/>
<text text-anchor="middle" x="642.5" y="-2113.89" font-family="Times,serif" font-size="14.00">{lib/libLLVMSupport.a(ScaledNumber.cpp.o)}</text>
</g>
<!-- Node0x55e35d247e38&#45;&gt;Node0x55e35d2471b8 -->
<g id="edge120" class="edge">
<title>Node0x55e35d247e38&#45;&gt;Node0x55e35d2471b8</title>
<path fill="none" stroke="black" d="M801.63,-2135.62C810.22,-2139.54 818.42,-2144.15 826,-2149.59 853.15,-2169.08 834.7,-2196.32 862,-2215.59 870.23,-2221.4 879.11,-2226.31 888.41,-2230.45"/>
<polygon fill="black" stroke="black" points="887.26,-2233.76 897.84,-2234.34 889.93,-2227.29 887.26,-2233.76"/>
</g>
<!-- Node0x55e35d24a368 -->
<g id="node48" class="node">
<title>Node0x55e35d24a368</title>
<polygon fill="none" stroke="black" points="792,-831.59 493,-831.59 493,-795.59 792,-795.59 792,-831.59"/>
<text text-anchor="middle" x="642.5" y="-809.89" font-family="Times,serif" font-size="14.00">{lib/libLLVMSupport.a(Statistic.cpp.o)}</text>
</g>
<!-- Node0x55e35d24a368&#45;&gt;Node0x55e35d2471b8 -->
<g id="edge122" class="edge">
<title>Node0x55e35d24a368&#45;&gt;Node0x55e35d2471b8</title>
<path fill="none" stroke="black" d="M707.55,-831.67C749.06,-847.03 800.07,-873.6 826,-916.59 898.68,-1037.1 777.6,-2069.99 862,-2182.59 876.74,-2202.26 897.54,-2216.08 920.21,-2225.78"/>
<polygon fill="black" stroke="black" points="919.1,-2229.1 929.68,-2229.55 921.69,-2222.6 919.1,-2229.1"/>
</g>
<!-- Node0x55e35d24a368&#45;&gt;Node0x55e35d24b998 -->
<g id="edge121" class="edge">
<title>Node0x55e35d24a368&#45;&gt;Node0x55e35d24b998</title>
<path fill="none" stroke="black" d="M719.25,-831.63C754.24,-842.59 794.84,-859.27 826,-883.59 1203.82,-1178.49 1461.58,-1731.2 1518.24,-1860.19"/>
<polygon fill="black" stroke="black" points="1515.05,-1861.63 1522.26,-1869.4 1521.47,-1858.83 1515.05,-1861.63"/>
</g>
<!-- Node0x55e35d24a368&#45;&gt;Node0x55e35d24b678 -->
<g id="edge124" class="edge">
<title>Node0x55e35d24a368&#45;&gt;Node0x55e35d24b678</title>
<path fill="none" stroke="black" d="M700.01,-831.6C736.8,-844.21 785.32,-862.52 826,-883.59 1269.5,-1113.35 1366.79,-1200.59 1760,-1508.59 1846.45,-1576.31 1940.01,-1666.78 1983.76,-1710.22"/>
<polygon fill="black" stroke="black" points="1981.54,-1712.94 1991.09,-1717.52 1986.48,-1707.98 1981.54,-1712.94"/>
</g>
<!-- Node0x55e35d24a368&#45;&gt;Node0x55e35d245d68 -->
<g id="edge123" class="edge">
<title>Node0x55e35d24a368&#45;&gt;Node0x55e35d245d68</title>
<path fill="none" stroke="black" d="M653.67,-795.48C682.82,-743.12 768.31,-586.64 826,-450.59 844.93,-405.95 822.97,-376.38 862,-347.59 983.79,-257.77 2112.01,-240.81 2224,-342.59 2355.26,-461.89 2419.48,-1821.26 2428.8,-2035.3"/>
<polygon fill="black" stroke="black" points="2425.31,-2035.57 2429.24,-2045.41 2432.31,-2035.27 2425.31,-2035.57"/>
</g>
<!-- Node0x55e35d24af48 -->
<g id="node49" class="node">
<title>Node0x55e35d24af48</title>
<polygon fill="none" stroke="black" points="782.5,-441.59 502.5,-441.59 502.5,-405.59 782.5,-405.59 782.5,-441.59"/>
<text text-anchor="middle" x="642.5" y="-419.89" font-family="Times,serif" font-size="14.00">{lib/libLLVMSupport.a(Timer.cpp.o)}</text>
</g>
<!-- Node0x55e35d24af48&#45;&gt;Node0x55e35d2471b8 -->
<g id="edge127" class="edge">
<title>Node0x55e35d24af48&#45;&gt;Node0x55e35d2471b8</title>
<path fill="none" stroke="black" d="M656.32,-441.71C691.66,-492.87 790.21,-643.94 826,-786.59 844.88,-861.84 815.55,-2120.45 862,-2182.59 876.72,-2202.28 897.5,-2216.11 920.17,-2225.81"/>
<polygon fill="black" stroke="black" points="919.05,-2229.13 929.64,-2229.59 921.65,-2222.63 919.05,-2229.13"/>
</g>
<!-- Node0x55e35d24af48&#45;&gt;Node0x55e35d24b998 -->
<g id="edge125" class="edge">
<title>Node0x55e35d24af48&#45;&gt;Node0x55e35d24b998</title>
<path fill="none" stroke="black" d="M653.89,-441.89C682.04,-490.19 764.29,-623.07 862,-705.59 1017.56,-836.96 1139.04,-762.42 1266,-921.59 1508.04,-1225.05 1528.7,-1733.93 1530.03,-1859.13"/>
<polygon fill="black" stroke="black" points="1526.53,-1859.42 1530.1,-1869.4 1533.53,-1859.37 1526.53,-1859.42"/>
</g>
<!-- Node0x55e35d24af48&#45;&gt;Node0x55e35d24b678 -->
<g id="edge130" class="edge">
<title>Node0x55e35d24af48&#45;&gt;Node0x55e35d24b678</title>
<path fill="none" stroke="black" d="M674.04,-441.68C715.76,-466.06 793.25,-510.14 862,-542.59 1037.09,-625.26 1102.47,-601.93 1266,-705.59 1518.61,-865.73 1586.92,-918.66 1760,-1162.59 1893.3,-1350.45 1976.79,-1620.95 2001.38,-1707.7"/>
<polygon fill="black" stroke="black" points="1998.02,-1708.67 2004.09,-1717.35 2004.76,-1706.78 1998.02,-1708.67"/>
</g>
<!-- Node0x55e35d24af48&#45;&gt;Node0x55e35d248f68 -->
<g id="edge126" class="edge">
<title>Node0x55e35d24af48&#45;&gt;Node0x55e35d248f68</title>
<path fill="none" stroke="black" d="M782.89,-419.69C994.77,-415.54 1410.22,-414.39 1760,-455.59 1817.24,-462.34 1880.83,-475.72 1929.42,-487.22"/>
<polygon fill="black" stroke="black" points="1928.71,-490.65 1939.25,-489.57 1930.33,-483.84 1928.71,-490.65"/>
</g>
<!-- Node0x55e35d24af48&#45;&gt;Node0x55e35d245d68 -->
<g id="edge128" class="edge">
<title>Node0x55e35d24af48&#45;&gt;Node0x55e35d245d68</title>
<path fill="none" stroke="black" d="M695.68,-405.53C734.66,-390.2 787.6,-365.3 826,-331.59 847.4,-312.81 836.97,-292.18 862,-278.59 995,-206.4 2111.47,-172.4 2224,-273.59 2361.38,-397.14 2420.64,-1817.26 2428.97,-2035.51"/>
<polygon fill="black" stroke="black" points="2425.47,-2035.67 2429.34,-2045.53 2432.46,-2035.4 2425.47,-2035.67"/>
</g>
<!-- Node0x55e35d24af48&#45;&gt;Node0x55e35d248c98 -->
<g id="edge129" class="edge">
<title>Node0x55e35d24af48&#45;&gt;Node0x55e35d248c98</title>
<path fill="none" stroke="black" d="M707.29,-405.45C746.55,-391.24 795.1,-367.73 826,-331.59 859.98,-291.85 821.02,-252.07 862,-219.59 978.71,-127.08 1381.07,-165.59 1530,-165.59 1530,-165.59 1530,-165.59 2011,-165.59 2452.7,-165.59 2460.77,-546.08 2602,-964.59 2733.67,-1354.78 2786.2,-1858.22 2797.54,-1981.46"/>
<polygon fill="black" stroke="black" points="2794.07,-1981.92 2798.46,-1991.56 2801.04,-1981.29 2794.07,-1981.92"/>
</g>
<!-- Node0x55e35d249cd8 -->
<g id="node50" class="node">
<title>Node0x55e35d249cd8</title>
<polygon fill="none" stroke="black" points="382.5,-313.59 40.5,-313.59 40.5,-277.59 382.5,-277.59 382.5,-313.59"/>
<text text-anchor="middle" x="211.5" y="-291.89" font-family="Times,serif" font-size="14.00">{lib/libLLVMSupport.a(DebugCounter.cpp.o)}</text>
</g>
<!-- Node0x55e35d249cd8&#45;&gt;Node0x55e35d24abd8 -->
<g id="edge132" class="edge">
<title>Node0x55e35d249cd8&#45;&gt;Node0x55e35d24abd8</title>
<path fill="none" stroke="black" d="M382.52,-299.85C397.89,-306.46 411.84,-315.75 423,-328.59 506.18,-424.29 375.41,-2515.26 459,-2610.59 464.92,-2617.34 471.73,-2622.94 479.17,-2627.55"/>
<polygon fill="black" stroke="black" points="477.72,-2630.75 488.17,-2632.53 481.11,-2624.63 477.72,-2630.75"/>
</g>
<!-- Node0x55e35d249cd8&#45;&gt;Node0x55e35d2471b8 -->
<g id="edge134" class="edge">
<title>Node0x55e35d249cd8&#45;&gt;Node0x55e35d2471b8</title>
<path fill="none" stroke="black" d="M382.55,-300.15C397.86,-306.71 411.79,-315.91 423,-328.59 504.22,-420.46 375.41,-1341.88 459,-1431.59 514.9,-1491.58 769.64,-1410.05 826,-1469.59 883.05,-1529.86 806.62,-2153.79 862,-2215.59 869.75,-2224.24 878.82,-2231.2 888.75,-2236.76"/>
<polygon fill="black" stroke="black" points="887.19,-2239.89 897.69,-2241.28 890.35,-2233.64 887.19,-2239.89"/>
</g>
<!-- Node0x55e35d249cd8&#45;&gt;Node0x55e35d24b998 -->
<g id="edge131" class="edge">
<title>Node0x55e35d249cd8&#45;&gt;Node0x55e35d24b998</title>
<path fill="none" stroke="black" d="M382.58,-300.8C397.78,-307.26 411.68,-316.26 423,-328.59 500.14,-412.61 383.93,-754.72 459,-840.59 568.63,-966 711.91,-795.23 826,-916.59 903.19,-998.7 813.47,-1065.88 862,-1167.59 1019.8,-1498.31 1383.4,-1781.16 1496.08,-1863.45"/>
<polygon fill="black" stroke="black" points="1494.22,-1866.43 1504.37,-1869.47 1498.33,-1860.76 1494.22,-1866.43"/>
</g>
<!-- Node0x55e35d249cd8&#45;&gt;Node0x55e35d248f68 -->
<g id="edge133" class="edge">
<title>Node0x55e35d249cd8&#45;&gt;Node0x55e35d248f68</title>
<path fill="none" stroke="black" d="M382.75,-291.95C729.62,-286.26 1506.76,-282.78 1760,-358.59 1847.05,-384.65 1935.05,-447.96 1979.44,-483.09"/>
<polygon fill="black" stroke="black" points="1977.47,-486 1987.47,-489.51 1981.85,-480.53 1977.47,-486"/>
</g>
<!-- Node0x55e35d249cd8&#45;&gt;Node0x55e35d245d68 -->
<g id="edge135" class="edge">
<title>Node0x55e35d249cd8&#45;&gt;Node0x55e35d245d68</title>
<path fill="none" stroke="black" d="M370.32,-277.56C388.14,-274.87 406,-271.88 423,-268.59 620.92,-230.36 662.04,-180.13 862,-154.59 1204.18,-110.89 2201.09,-186.9 2224,-208.59 2363.1,-340.34 2421.01,-1811.92 2429.02,-2035.26"/>
<polygon fill="black" stroke="black" points="2425.53,-2035.62 2429.38,-2045.49 2432.52,-2035.37 2425.53,-2035.62"/>
</g>
<!-- Node0x55e35d24c168 -->
<g id="node51" class="node">
<title>Node0x55e35d24c168</title>
<polygon fill="none" stroke="black" points="1760,-571.59 1302,-571.59 1302,-535.59 1760,-535.59 1760,-571.59"/>
<text text-anchor="middle" x="1531" y="-549.89" font-family="Times,serif" font-size="14.00">{lib/libLLVMSupport.a(ItaniumManglingCanonicalizer.cpp.o)}</text>
</g>
<!-- Node0x55e35d24c168&#45;&gt;Node0x55e35d248f68 -->
<g id="edge136" class="edge">
<title>Node0x55e35d24c168&#45;&gt;Node0x55e35d248f68</title>
<path fill="none" stroke="black" d="M1718.81,-535.58C1760.43,-531.56 1804.25,-527.34 1844.88,-523.42"/>
<polygon fill="black" stroke="black" points="1845.24,-526.9 1854.86,-522.46 1844.57,-519.93 1845.24,-526.9"/>
</g>
<!-- Node0x55e35d24b3a8 -->
<g id="node52" class="node">
<title>Node0x55e35d24b3a8</title>
<polygon fill="none" stroke="black" points="423,-2341.59 0,-2341.59 0,-2305.59 423,-2305.59 423,-2341.59"/>
<text text-anchor="middle" x="211.5" y="-2319.89" font-family="Times,serif" font-size="14.00">{lib/libLLVMSupport.a(SymbolRemappingReader.cpp.o)}</text>
</g>
<!-- Node0x55e35d24b3a8&#45;&gt;Node0x55e35d24abd8 -->
<g id="edge137" class="edge">
<title>Node0x55e35d24b3a8&#45;&gt;Node0x55e35d24abd8</title>
<path fill="none" stroke="black" d="M332.7,-2341.63C366.38,-2352.35 400.03,-2369.42 423,-2396.59 485.27,-2470.25 390.13,-2543.07 459,-2610.59 465.16,-2616.64 472.05,-2621.71 479.45,-2625.94"/>
<polygon fill="black" stroke="black" points="477.85,-2629.06 488.34,-2630.54 481.07,-2622.84 477.85,-2629.06"/>
</g>
<!-- Node0x55e35d24b3a8&#45;&gt;Node0x55e35d247938 -->
<g id="edge139" class="edge">
<title>Node0x55e35d24b3a8&#45;&gt;Node0x55e35d247938</title>
<path fill="none" stroke="black" d="M314.17,-2305.58C378.98,-2294.1 463,-2279.22 529.69,-2267.4"/>
<polygon fill="black" stroke="black" points="530.58,-2270.8 539.82,-2265.61 529.36,-2263.9 530.58,-2270.8"/>
</g>
<!-- Node0x55e35d24b3a8&#45;&gt;Node0x55e35d248ab8 -->
<g id="edge138" class="edge">
<title>Node0x55e35d24b3a8&#45;&gt;Node0x55e35d248ab8</title>
<path fill="none" stroke="black" d="M394.3,-2305.37C405.03,-2299.05 414.78,-2291.23 423,-2281.59 490.61,-2202.32 383.93,-1416.84 459,-1344.59 517.77,-1288.04 766.88,-1288.42 826,-1344.59 882.7,-1398.47 820.16,-1981.51 862,-2047.59 889.34,-2090.78 940.19,-2117.87 983.89,-2134.12"/>
<polygon fill="black" stroke="black" points="982.79,-2137.44 993.39,-2137.52 985.16,-2130.85 982.79,-2137.44"/>
</g>
<!-- Node0x55e35d24b3a8&#45;&gt;Node0x55e35d2471b8 -->
<g id="edge140" class="edge">
<title>Node0x55e35d24b3a8&#45;&gt;Node0x55e35d2471b8</title>
<path fill="none" stroke="black" d="M423.17,-2318.8C541.81,-2314.47 692.52,-2306.23 826,-2290.59 873.2,-2285.06 925.2,-2275.97 968.44,-2267.57"/>
<polygon fill="black" stroke="black" points="969.24,-2270.98 978.38,-2265.62 967.89,-2264.11 969.24,-2270.98"/>
</g>
<!-- Node0x55e35d247ed8 -->
<g id="node53" class="node">
<title>Node0x55e35d247ed8</title>
<polygon fill="none" stroke="black" points="381.5,-2634.59 41.5,-2634.59 41.5,-2598.59 381.5,-2598.59 381.5,-2634.59"/>
<text text-anchor="middle" x="211.5" y="-2612.89" font-family="Times,serif" font-size="14.00">{lib/libLLVMSupport.a(DataExtractor.cpp.o)}</text>
</g>
<!-- Node0x55e35d247ed8&#45;&gt;Node0x55e35d24abd8 -->
<g id="edge141" class="edge">
<title>Node0x55e35d247ed8&#45;&gt;Node0x55e35d24abd8</title>
<path fill="none" stroke="black" d="M381.74,-2624.88C413.46,-2626.43 446.56,-2628.05 478.1,-2629.59"/>
<polygon fill="black" stroke="black" points="478.12,-2633.1 488.28,-2630.09 478.46,-2626.11 478.12,-2633.1"/>
</g>
<!-- Node0x55e35d247ed8&#45;&gt;Node0x55e35d2471b8 -->
<g id="edge142" class="edge">
<title>Node0x55e35d247ed8&#45;&gt;Node0x55e35d2471b8</title>
<path fill="none" stroke="black" d="M281.29,-2598.56C330.58,-2585.95 398.64,-2569.19 459,-2556.59 621.08,-2522.77 679.7,-2570.12 826,-2492.59 832.68,-2489.06 979.58,-2335.18 1038.69,-2273.13"/>
<polygon fill="black" stroke="black" points="1041.41,-2275.35 1045.78,-2265.7 1036.34,-2270.52 1041.41,-2275.35"/>
</g>
<!-- Node0x55e35d2451d8 -->
<g id="node54" class="node">
<title>Node0x55e35d2451d8</title>
<polygon fill="none" stroke="black" points="826,-2081.59 459,-2081.59 459,-2045.59 826,-2045.59 826,-2081.59"/>
<text text-anchor="middle" x="642.5" y="-2059.89" font-family="Times,serif" font-size="14.00">{lib/libLLVMSupport.a(FormattedStream.cpp.o)}</text>
</g>
<!-- Node0x55e35d2451d8&#45;&gt;Node0x55e35d2471b8 -->
<g id="edge143" class="edge">
<title>Node0x55e35d2451d8&#45;&gt;Node0x55e35d2471b8</title>
<path fill="none" stroke="black" d="M814.18,-2081.65C818.31,-2084.35 822.26,-2087.32 826,-2090.59 869.52,-2128.66 818.69,-2177.29 862,-2215.59 870.02,-2222.69 878.96,-2228.55 888.49,-2233.38"/>
<polygon fill="black" stroke="black" points="887.26,-2236.66 897.8,-2237.69 890.2,-2230.31 887.26,-2236.66"/>
</g>
<!-- Node0x55e35d244fa8 -->
<g id="node55" class="node">
<title>Node0x55e35d244fa8</title>
<polygon fill="none" stroke="black" points="817.5,-2027.59 467.5,-2027.59 467.5,-1991.59 817.5,-1991.59 817.5,-2027.59"/>
<text text-anchor="middle" x="642.5" y="-2005.89" font-family="Times,serif" font-size="14.00">{lib/libLLVMSupport.a(InstructionCost.cpp.o)}</text>
</g>
<!-- Node0x55e35d244fa8&#45;&gt;Node0x55e35d2471b8 -->
<g id="edge144" class="edge">
<title>Node0x55e35d244fa8&#45;&gt;Node0x55e35d2471b8</title>
<path fill="none" stroke="black" d="M815.32,-2027.8C819.06,-2030.47 822.63,-2033.4 826,-2036.59 884.84,-2092.47 803.47,-2159.39 862,-2215.59 870,-2223.28 879.06,-2229.56 888.8,-2234.66"/>
<polygon fill="black" stroke="black" points="887.4,-2237.87 897.93,-2239.03 890.42,-2231.55 887.4,-2237.87"/>
</g>
<!-- Node0x55e35d24c6b8 -->
<g id="node56" class="node">
<title>Node0x55e35d24c6b8</title>
<polygon fill="none" stroke="black" points="815.5,-1973.59 469.5,-1973.59 469.5,-1937.59 815.5,-1937.59 815.5,-1973.59"/>
<text text-anchor="middle" x="642.5" y="-1951.89" font-family="Times,serif" font-size="14.00">{lib/libLLVMSupport.a(ToolOutputFile.cpp.o)}</text>
</g>
<!-- Node0x55e35d24c6b8&#45;&gt;Node0x55e35d2471b8 -->
<g id="edge145" class="edge">
<title>Node0x55e35d24c6b8&#45;&gt;Node0x55e35d2471b8</title>
<path fill="none" stroke="black" d="M815.51,-1973.6C819.2,-1976.33 822.71,-1979.32 826,-1982.59 900.33,-2056.45 788.08,-2141.33 862,-2215.59 869.92,-2223.55 878.97,-2230.03 888.75,-2235.26"/>
<polygon fill="black" stroke="black" points="887.4,-2238.5 897.92,-2239.73 890.47,-2232.21 887.4,-2238.5"/>
</g>
<!-- Node0x55e35d24d608 -->
<g id="node57" class="node">
<title>Node0x55e35d24d608</title>
<polygon fill="none" stroke="black" points="824.5,-1919.59 460.5,-1919.59 460.5,-1883.59 824.5,-1883.59 824.5,-1919.59"/>
<text text-anchor="middle" x="642.5" y="-1897.89" font-family="Times,serif" font-size="14.00">{lib/libLLVMSupport.a(PrettyStackTrace.cpp.o)}</text>
</g>
<!-- Node0x55e35d24d608&#45;&gt;Node0x55e35d2471b8 -->
<g id="edge146" class="edge">
<title>Node0x55e35d24d608&#45;&gt;Node0x55e35d2471b8</title>
<path fill="none" stroke="black" d="M816.02,-1919.77C819.53,-1922.45 822.86,-1925.39 826,-1928.59 915.89,-2020.49 772.61,-2123.2 862,-2215.59 869.81,-2223.66 878.77,-2230.22 888.49,-2235.52"/>
<polygon fill="black" stroke="black" points="887.09,-2238.74 897.61,-2240.04 890.2,-2232.46 887.09,-2238.74"/>
</g>
<!-- Node0x55e35d247fc8 -->
<g id="node58" class="node">
<title>Node0x55e35d247fc8</title>
<polygon fill="none" stroke="black" points="788,-1865.59 497,-1865.59 497,-1829.59 788,-1829.59 788,-1865.59"/>
<text text-anchor="middle" x="642.5" y="-1843.89" font-family="Times,serif" font-size="14.00">{lib/libLLVMSupport.a(Chrono.cpp.o)}</text>
</g>
<!-- Node0x55e35d247fc8&#45;&gt;Node0x55e35d2471b8 -->
<g id="edge147" class="edge">
<title>Node0x55e35d247fc8&#45;&gt;Node0x55e35d2471b8</title>
<path fill="none" stroke="black" d="M788.08,-1850.13C802.29,-1855.61 815.36,-1863.5 826,-1874.59 931.49,-1984.58 757.11,-2105.03 862,-2215.59 869.82,-2223.84 878.85,-2230.51 888.65,-2235.89"/>
<polygon fill="black" stroke="black" points="887.35,-2239.15 897.87,-2240.47 890.47,-2232.88 887.35,-2239.15"/>
</g>
<!-- Node0x55e35d2486a8 -->
<g id="node59" class="node">
<title>Node0x55e35d2486a8</title>
<polygon fill="none" stroke="black" points="374.5,-671.59 48.5,-671.59 48.5,-635.59 374.5,-635.59 374.5,-671.59"/>
<text text-anchor="middle" x="211.5" y="-649.89" font-family="Times,serif" font-size="14.00">{lib/libLLVMSupport.a(TimeProfiler.cpp.o)}</text>
</g>
<!-- Node0x55e35d2486a8&#45;&gt;Node0x55e35d247938 -->
<g id="edge149" class="edge">
<title>Node0x55e35d2486a8&#45;&gt;Node0x55e35d247938</title>
<path fill="none" stroke="black" d="M317.14,-671.65C357,-684.12 398.65,-705.15 423,-740.59 513.44,-872.24 366.88,-2047.12 459,-2177.59 474.95,-2200.18 499.24,-2215.49 524.94,-2225.85"/>
<polygon fill="black" stroke="black" points="523.87,-2229.19 534.46,-2229.45 526.35,-2222.64 523.87,-2229.19"/>
</g>
<!-- Node0x55e35d2486a8&#45;&gt;Node0x55e35d2471b8 -->
<g id="edge150" class="edge">
<title>Node0x55e35d2486a8&#45;&gt;Node0x55e35d2471b8</title>
<path fill="none" stroke="black" d="M317.13,-671.66C356.99,-684.13 398.64,-705.16 423,-740.59 467.2,-804.89 405.62,-2087.68 459,-2144.59 515.02,-2204.32 752.3,-2141.9 826,-2177.59 846.94,-2187.73 841.42,-2204.74 862,-2215.59 870.41,-2220.03 879.27,-2223.88 888.4,-2227.23"/>
<polygon fill="black" stroke="black" points="887.4,-2230.59 898,-2230.54 889.68,-2223.97 887.4,-2230.59"/>
</g>
<!-- Node0x55e35d2486a8&#45;&gt;Node0x55e35d248f68 -->
<g id="edge148" class="edge">
<title>Node0x55e35d2486a8&#45;&gt;Node0x55e35d248f68</title>
<path fill="none" stroke="black" d="M342.39,-671.62C611.6,-704.74 1248.07,-760.94 1760,-634.59 1842.55,-614.22 1928.74,-562.25 1974.92,-531.47"/>
<polygon fill="black" stroke="black" points="1977,-534.29 1983.34,-525.8 1973.09,-528.48 1977,-534.29"/>
</g>
<!-- Node0x55e35d2486a8&#45;&gt;Node0x55e35d248c98 -->
<g id="edge151" class="edge">
<title>Node0x55e35d2486a8&#45;&gt;Node0x55e35d248c98</title>
<path fill="none" stroke="black" d="M248.52,-635.42C295.04,-610.24 375.63,-560.51 423,-496.59 451.12,-458.64 429.01,-433.09 459,-396.59 591.63,-235.17 660.76,-210.72 862,-154.59 1048.37,-102.61 2470.61,-81.56 2602,-223.59 2727,-358.72 2789.81,-1762.8 2798.85,-1981.13"/>
<polygon fill="black" stroke="black" points="2795.37,-1981.58 2799.28,-1991.43 2802.36,-1981.29 2795.37,-1981.58"/>
</g>
<!-- Node0x55e35d248478 -->
<g id="node60" class="node">
<title>Node0x55e35d248478</title>
<polygon fill="none" stroke="black" points="350,-259.59 73,-259.59 73,-223.59 350,-223.59 350,-259.59"/>
<text text-anchor="middle" x="211.5" y="-237.89" font-family="Times,serif" font-size="14.00">{lib/libLLVMSupport.a(JSON.cpp.o)}</text>
</g>
<!-- Node0x55e35d248478&#45;&gt;Node0x55e35d24abd8 -->
<g id="edge153" class="edge">
<title>Node0x55e35d248478&#45;&gt;Node0x55e35d24abd8</title>
<path fill="none" stroke="black" d="M350.14,-231.8C377.86,-236.71 404.22,-247.58 423,-268.59 509.71,-365.62 373.23,-2512.73 459,-2610.59 464.92,-2617.35 471.73,-2622.94 479.16,-2627.56"/>
<polygon fill="black" stroke="black" points="477.72,-2630.76 488.16,-2632.53 481.1,-2624.63 477.72,-2630.76"/>
</g>
<!-- Node0x55e35d248478&#45;&gt;Node0x55e35d247938 -->
<g id="edge156" class="edge">
<title>Node0x55e35d248478&#45;&gt;Node0x55e35d247938</title>
<path fill="none" stroke="black" d="M350.08,-231.86C377.81,-236.76 404.18,-247.61 423,-268.59 492.61,-346.19 405.58,-2055.08 459,-2144.59 482.73,-2184.36 527.99,-2210.05 567.49,-2225.82"/>
<polygon fill="black" stroke="black" points="566.28,-2229.11 576.87,-2229.43 568.79,-2222.57 566.28,-2229.11"/>
</g>
<!-- Node0x55e35d248478&#45;&gt;Node0x55e35d248ab8 -->
<g id="edge155" class="edge">
<title>Node0x55e35d248478&#45;&gt;Node0x55e35d248ab8</title>
<path fill="none" stroke="black" d="M350.13,-232.4C377.69,-237.33 403.97,-248.05 423,-268.59 476.08,-325.89 404.84,-914.32 459,-970.59 515.78,-1029.6 769.64,-944.19 826,-1003.59 900.46,-1082.08 815.91,-1878.72 862,-1976.59 895.64,-2048.03 972.45,-2103.15 1020.78,-2132.37"/>
<polygon fill="black" stroke="black" points="1019.07,-2135.42 1029.45,-2137.52 1022.64,-2129.41 1019.07,-2135.42"/>
</g>
<!-- Node0x55e35d248478&#45;&gt;Node0x55e35d2471b8 -->
<g id="edge157" class="edge">
<title>Node0x55e35d248478&#45;&gt;Node0x55e35d2471b8</title>
<path fill="none" stroke="black" d="M350.16,-232.08C377.8,-237 404.11,-247.8 423,-268.59 507.47,-361.57 372.78,-1307.24 459,-1398.59 515.2,-1458.14 769.38,-1372.44 826,-1431.59 886.3,-1494.59 803.89,-2150.58 862,-2215.59 869.74,-2224.25 878.81,-2231.22 888.73,-2236.78"/>
<polygon fill="black" stroke="black" points="887.16,-2239.9 897.66,-2241.31 890.33,-2233.66 887.16,-2239.9"/>
</g>
<!-- Node0x55e35d248478&#45;&gt;Node0x55e35d24b718 -->
<g id="edge152" class="edge">
<title>Node0x55e35d248478&#45;&gt;Node0x55e35d24b718</title>
<path fill="none" stroke="black" d="M350.09,-232.14C377.73,-237.05 404.06,-247.84 423,-268.59 497.94,-350.73 387.26,-1183.65 459,-1268.59 566.47,-1395.86 718.09,-1217.7 826,-1344.59 886.38,-1415.59 797.8,-2115.04 862,-2182.59 924.12,-2247.96 1177.31,-2204.29 1266,-2220.59 1302.92,-2227.38 1394.73,-2253.57 1459.67,-2272.64"/>
<polygon fill="black" stroke="black" points="1458.87,-2276.05 1469.45,-2275.52 1460.84,-2269.33 1458.87,-2276.05"/>
</g>
<!-- Node0x55e35d248478&#45;&gt;Node0x55e35d248f68 -->
<g id="edge154" class="edge">
<title>Node0x55e35d248478&#45;&gt;Node0x55e35d248f68</title>
<path fill="none" stroke="black" d="M314.27,-223.54C568.49,-182.98 1247.69,-102.83 1760,-299.59 1860.45,-338.17 1949.64,-435 1988.44,-481.66"/>
<polygon fill="black" stroke="black" points="1985.82,-483.99 1994.87,-489.5 1991.23,-479.55 1985.82,-483.99"/>
</g>
<!-- Node0x55e35d2460d8 -->
<g id="node61" class="node">
<title>Node0x55e35d2460d8</title>
<polygon fill="none" stroke="black" points="2224,-1921.59 1796,-1921.59 1796,-1885.59 2224,-1885.59 2224,-1921.59"/>
<text text-anchor="middle" x="2010" y="-1899.89" font-family="Times,serif" font-size="14.00">{lib/libLLVMSupport.a(RandomNumberGenerator.cpp.o)}</text>
</g>
<!-- Node0x55e35d2460d8&#45;&gt;Node0x55e35d245d68 -->
<g id="edge158" class="edge">
<title>Node0x55e35d2460d8&#45;&gt;Node0x55e35d245d68</title>
<path fill="none" stroke="black" d="M2176.65,-1921.66C2192.88,-1925.45 2208.91,-1930.04 2224,-1935.59 2291.78,-1960.53 2361.21,-2009.51 2399.65,-2039.13"/>
<polygon fill="black" stroke="black" points="2397.79,-2042.11 2407.83,-2045.49 2402.09,-2036.59 2397.79,-2042.11"/>
</g>
<!-- Node0x55e35d2479d8 -->
<g id="node62" class="node">
<title>Node0x55e35d2479d8</title>
<polygon fill="none" stroke="black" points="372.5,-785.59 50.5,-785.59 50.5,-749.59 372.5,-749.59 372.5,-785.59"/>
<text text-anchor="middle" x="211.5" y="-763.89" font-family="Times,serif" font-size="14.00">{lib/libLLVMSupport.a(YAMLTraits.cpp.o)}</text>
</g>
<!-- Node0x55e35d2479d8&#45;&gt;Node0x55e35d24abd8 -->
<g id="edge160" class="edge">
<title>Node0x55e35d2479d8&#45;&gt;Node0x55e35d24abd8</title>
<path fill="none" stroke="black" d="M215.45,-785.68C235.45,-908.58 352.33,-1633.81 423,-2227.59 428.05,-2270.04 429.59,-2579.58 459,-2610.59 465.02,-2616.94 471.83,-2622.24 479.2,-2626.65"/>
<polygon fill="black" stroke="black" points="477.62,-2629.77 488.09,-2631.41 480.93,-2623.6 477.62,-2629.77"/>
</g>
<!-- Node0x55e35d2479d8&#45;&gt;Node0x55e35d247938 -->
<g id="edge162" class="edge">
<title>Node0x55e35d2479d8&#45;&gt;Node0x55e35d247938</title>
<path fill="none" stroke="black" d="M212.83,-785.82C215.97,-938.29 245.41,-2000.94 459,-2215.59 468.49,-2225.13 479.76,-2232.41 491.96,-2237.91"/>
<polygon fill="black" stroke="black" points="490.88,-2241.25 501.46,-2241.77 493.52,-2234.76 490.88,-2241.25"/>
</g>
<!-- Node0x55e35d2479d8&#45;&gt;Node0x55e35d2471b8 -->
<g id="edge163" class="edge">
<title>Node0x55e35d2479d8&#45;&gt;Node0x55e35d2471b8</title>
<path fill="none" stroke="black" d="M212.82,-785.92C215.88,-936.93 244.63,-1975.25 459,-2177.59 460,-2178.54 716.63,-2208.03 895.01,-2228.43"/>
<polygon fill="black" stroke="black" points="894.71,-2231.91 905.05,-2229.57 895.51,-2224.96 894.71,-2231.91"/>
</g>
<!-- Node0x55e35d2479d8&#45;&gt;Node0x55e35d24d5b8 -->
<g id="edge159" class="edge">
<title>Node0x55e35d2479d8&#45;&gt;Node0x55e35d24d5b8</title>
<path fill="none" stroke="black" d="M223.93,-785.94C255.31,-834.83 347.91,-969.46 459,-1041.59 602.82,-1134.97 722.25,-1024.07 826,-1160.59 883.13,-1235.77 793.84,-1944.26 862,-2009.59 926.81,-2071.72 1176.37,-2014.67 1266,-2009.59 1305.51,-2007.36 1348.18,-2003.25 1387.46,-1998.78"/>
<polygon fill="black" stroke="black" points="1388.11,-2002.23 1397.64,-1997.6 1387.3,-1995.27 1388.11,-2002.23"/>
</g>
<!-- Node0x55e35d2479d8&#45;&gt;Node0x55e35d248f68 -->
<g id="edge161" class="edge">
<title>Node0x55e35d2479d8&#45;&gt;Node0x55e35d248f68</title>
<path fill="none" stroke="black" d="M372.68,-770.45C715.35,-774.69 1508.79,-773.93 1760,-682.59 1851.86,-649.2 1940.98,-572.69 1983.35,-532.81"/>
<polygon fill="black" stroke="black" points="1985.88,-535.24 1990.71,-525.81 1981.06,-530.17 1985.88,-535.24"/>
</g>
<!-- Node0x55e35d2479d8&#45;&gt;Node0x55e35d248c98 -->
<g id="edge164" class="edge">
<title>Node0x55e35d2479d8&#45;&gt;Node0x55e35d248c98</title>
<path fill="none" stroke="black" d="M260.29,-785.74C309.34,-803.4 388.28,-829.2 459,-840.59 724.16,-883.3 794.42,-859.59 1063,-859.59 1063,-859.59 1063,-859.59 2011,-859.59 2573.07,-859.59 2764.55,-1805.21 2795.36,-1981.49"/>
<polygon fill="black" stroke="black" points="2791.95,-1982.27 2797.09,-1991.53 2798.85,-1981.08 2791.95,-1982.27"/>
</g>
<!-- Node0x55e35d247f28 -->
<g id="node63" class="node">
<title>Node0x55e35d247f28</title>
<polygon fill="none" stroke="black" points="808.5,-1811.59 476.5,-1811.59 476.5,-1775.59 808.5,-1775.59 808.5,-1811.59"/>
<text text-anchor="middle" x="642.5" y="-1789.89" font-family="Times,serif" font-size="14.00">{lib/libLLVMSupport.a(VersionTuple.cpp.o)}</text>
</g>
<!-- Node0x55e35d247f28&#45;&gt;Node0x55e35d2471b8 -->
<g id="edge165" class="edge">
<title>Node0x55e35d247f28&#45;&gt;Node0x55e35d2471b8</title>
<path fill="none" stroke="black" d="M808.87,-1806.42C815.07,-1810.43 820.83,-1815.12 826,-1820.59 886.56,-1884.64 801.8,-2151.22 862,-2215.59 869.76,-2223.89 878.74,-2230.61 888.52,-2236.02"/>
<polygon fill="black" stroke="black" points="887.2,-2239.27 897.71,-2240.62 890.33,-2233.01 887.2,-2239.27"/>
</g>
</g>
</svg>
