<?xml version="1.0" encoding="UTF-8" standalone="no"?>
<!DOCTYPE svg PUBLIC "-//W3C//DTD SVG 1.1//EN"
 "http://www.w3.org/Graphics/SVG/1.1/DTD/svg11.dtd">
<!-- Generated by graphviz version 2.43.0 (0)
 -->
<!-- Title: bin/bugpoint_lib/libLLVMVectorize.a Pages: 1 -->
<svg width="1593pt" height="285pt"
 viewBox="0.00 0.00 1593.00 285.00" xmlns="http://www.w3.org/2000/svg" xmlns:xlink="http://www.w3.org/1999/xlink">
<g id="graph0" class="graph" transform="scale(1 1) rotate(0) translate(4 281)">
<title>bin/bugpoint_lib/libLLVMVectorize.a</title>
<polygon fill="white" stroke="transparent" points="-4,4 -4,-281 1589,-281 1589,4 -4,4"/>
<text text-anchor="middle" x="792.5" y="-7.8" font-family="Times,serif" font-size="14.00">bin/bugpoint_lib/libLLVMVectorize.a</text>
<!-- Node0x555ee6975228 -->
<g id="node1" class="node">
<title>Node0x555ee6975228</title>
<polygon fill="none" stroke="black" points="742,-276 350,-276 350,-240 742,-240 742,-276"/>
<text text-anchor="middle" x="546" y="-254.3" font-family="Times,serif" font-size="14.00">{lib/libLLVMVectorize.a(LoadStoreVectorizer.cpp.o)}</text>
</g>
<!-- Node0x555ee6976808 -->
<g id="node2" class="node">
<title>Node0x555ee6976808</title>
<polygon fill="none" stroke="black" points="720,-222 372,-222 372,-186 720,-186 720,-222"/>
<text text-anchor="middle" x="546" y="-200.3" font-family="Times,serif" font-size="14.00">{lib/libLLVMVectorize.a(LoopVectorize.cpp.o)}</text>
</g>
<!-- Node0x555ee6976128 -->
<g id="node3" class="node">
<title>Node0x555ee6976128</title>
<polygon fill="none" stroke="black" points="1209,-277 778,-277 778,-241 1209,-241 1209,-277"/>
<text text-anchor="middle" x="993.5" y="-255.3" font-family="Times,serif" font-size="14.00">{lib/libLLVMVectorize.a(LoopVectorizationLegality.cpp.o)}</text>
</g>
<!-- Node0x555ee6976808&#45;&gt;Node0x555ee6976128 -->
<g id="edge1" class="edge">
<title>Node0x555ee6976808&#45;&gt;Node0x555ee6976128</title>
<path fill="none" stroke="black" d="M720.2,-218.78C774.97,-225.21 833.95,-232.72 882.97,-239.57"/>
<polygon fill="black" stroke="black" points="882.57,-243.05 892.96,-240.98 883.54,-236.12 882.57,-243.05"/>
</g>
<!-- Node0x555ee6968b18 -->
<g id="node4" class="node">
<title>Node0x555ee6968b18</title>
<polygon fill="none" stroke="black" points="1559.5,-167 1270.5,-167 1270.5,-131 1559.5,-131 1559.5,-167"/>
<text text-anchor="middle" x="1415" y="-145.3" font-family="Times,serif" font-size="14.00">{lib/libLLVMVectorize.a(VPlan.cpp.o)}</text>
</g>
<!-- Node0x555ee6976808&#45;&gt;Node0x555ee6968b18 -->
<g id="edge2" class="edge">
<title>Node0x555ee6976808&#45;&gt;Node0x555ee6968b18</title>
<path fill="none" stroke="black" d="M720.11,-193.49C853.83,-188.45 1043.4,-181.38 1209,-167 1225.59,-165.56 1242.9,-163.75 1260.13,-161.82"/>
<polygon fill="black" stroke="black" points="1260.71,-165.27 1270.25,-160.66 1259.92,-158.32 1260.71,-165.27"/>
</g>
<!-- Node0x555ee6968258 -->
<g id="node5" class="node">
<title>Node0x555ee6968258</title>
<polygon fill="none" stroke="black" points="1185,-59 802,-59 802,-23 1185,-23 1185,-59"/>
<text text-anchor="middle" x="993.5" y="-37.3" font-family="Times,serif" font-size="14.00">{lib/libLLVMVectorize.a(VPlanHCFGBuilder.cpp.o)}</text>
</g>
<!-- Node0x555ee6976808&#45;&gt;Node0x555ee6968258 -->
<g id="edge3" class="edge">
<title>Node0x555ee6976808&#45;&gt;Node0x555ee6968258</title>
<path fill="none" stroke="black" d="M720.3,-191.32C728.01,-187.31 735.3,-182.58 742,-177 781.19,-144.34 738.6,-100.42 778,-68 782.73,-64.1 787.74,-60.6 792.96,-57.44"/>
<polygon fill="black" stroke="black" points="794.89,-60.37 801.94,-52.46 791.49,-54.25 794.89,-60.37"/>
</g>
<!-- Node0x555ee6968ed8 -->
<g id="node6" class="node">
<title>Node0x555ee6968ed8</title>
<polygon fill="none" stroke="black" points="1174.5,-167 812.5,-167 812.5,-131 1174.5,-131 1174.5,-167"/>
<text text-anchor="middle" x="993.5" y="-145.3" font-family="Times,serif" font-size="14.00">{lib/libLLVMVectorize.a(VPlanPredicator.cpp.o)}</text>
</g>
<!-- Node0x555ee6976808&#45;&gt;Node0x555ee6968ed8 -->
<g id="edge4" class="edge">
<title>Node0x555ee6976808&#45;&gt;Node0x555ee6968ed8</title>
<path fill="none" stroke="black" d="M692.87,-185.99C738.86,-180.31 789.82,-174.02 836.48,-168.26"/>
<polygon fill="black" stroke="black" points="837.18,-171.7 846.68,-167 836.33,-164.75 837.18,-171.7"/>
</g>
<!-- Node0x555ee6969a18 -->
<g id="node7" class="node">
<title>Node0x555ee6969a18</title>
<polygon fill="none" stroke="black" points="1179,-113 808,-113 808,-77 1179,-77 1179,-113"/>
<text text-anchor="middle" x="993.5" y="-91.3" font-family="Times,serif" font-size="14.00">{lib/libLLVMVectorize.a(VPlanTransforms.cpp.o)}</text>
</g>
<!-- Node0x555ee6976808&#45;&gt;Node0x555ee6969a18 -->
<g id="edge5" class="edge">
<title>Node0x555ee6976808&#45;&gt;Node0x555ee6969a18</title>
<path fill="none" stroke="black" d="M720.1,-188.48C727.72,-185.19 735.07,-181.39 742,-177 766.68,-161.37 753.22,-137.47 778,-122 784.46,-117.97 791.24,-114.41 798.25,-111.26"/>
<polygon fill="black" stroke="black" points="800.05,-114.3 807.94,-107.23 797.37,-107.84 800.05,-114.3"/>
</g>
<!-- Node0x555ee6976128&#45;&gt;Node0x555ee6976808 -->
<g id="edge10" class="edge">
<title>Node0x555ee6976128&#45;&gt;Node0x555ee6976808</title>
<path fill="none" stroke="black" d="M792.1,-240.98C745.43,-235.34 697.43,-229.15 656.42,-223.41"/>
<polygon fill="black" stroke="black" points="656.81,-219.93 646.42,-222 655.84,-226.87 656.81,-219.93"/>
</g>
<!-- Node0x555ee6968b18&#45;&gt;Node0x555ee6976808 -->
<g id="edge11" class="edge">
<title>Node0x555ee6968b18&#45;&gt;Node0x555ee6976808</title>
<path fill="none" stroke="black" d="M1347.69,-167.07C1307.63,-174.06 1255.49,-180.96 1209,-185 1047.6,-199.01 863.44,-206.08 730.4,-208.11"/>
<polygon fill="black" stroke="black" points="730.06,-204.61 720.11,-208.26 730.16,-211.61 730.06,-204.61"/>
</g>
<!-- Node0x555ee6968258&#45;&gt;Node0x555ee6968b18 -->
<g id="edge12" class="edge">
<title>Node0x555ee6968258&#45;&gt;Node0x555ee6968b18</title>
<path fill="none" stroke="black" d="M1167.89,-59.01C1181.88,-61.62 1195.73,-64.6 1209,-68 1265.23,-82.4 1326.8,-108.18 1367.63,-126.79"/>
<polygon fill="black" stroke="black" points="1366.24,-130 1376.79,-131 1369.17,-123.64 1366.24,-130"/>
</g>
<!-- Node0x555ee696a698 -->
<g id="node11" class="node">
<title>Node0x555ee696a698</title>
<polygon fill="none" stroke="black" points="1585,-59 1245,-59 1245,-23 1585,-23 1585,-59"/>
<text text-anchor="middle" x="1415" y="-37.3" font-family="Times,serif" font-size="14.00">{lib/libLLVMVectorize.a(VPlanVerifier.cpp.o)}</text>
</g>
<!-- Node0x555ee6968258&#45;&gt;Node0x555ee696a698 -->
<g id="edge13" class="edge">
<title>Node0x555ee6968258&#45;&gt;Node0x555ee696a698</title>
<path fill="none" stroke="black" d="M1185.22,-41C1201.71,-41 1218.36,-41 1234.76,-41"/>
<polygon fill="black" stroke="black" points="1234.93,-44.5 1244.93,-41 1234.93,-37.5 1234.93,-44.5"/>
</g>
<!-- Node0x555ee6968ed8&#45;&gt;Node0x555ee6968b18 -->
<g id="edge14" class="edge">
<title>Node0x555ee6968ed8&#45;&gt;Node0x555ee6968b18</title>
<path fill="none" stroke="black" d="M1174.54,-149C1203.04,-149 1232.28,-149 1260.12,-149"/>
<polygon fill="black" stroke="black" points="1260.3,-152.5 1270.3,-149 1260.3,-145.5 1260.3,-152.5"/>
</g>
<!-- Node0x555ee6969a18&#45;&gt;Node0x555ee6968b18 -->
<g id="edge15" class="edge">
<title>Node0x555ee6969a18&#45;&gt;Node0x555ee6968b18</title>
<path fill="none" stroke="black" d="M1138.45,-113C1162.03,-115.99 1186.2,-119.06 1209,-122 1228.11,-124.46 1248.22,-127.08 1268.07,-129.68"/>
<polygon fill="black" stroke="black" points="1267.74,-133.16 1278.11,-130.99 1268.65,-126.22 1267.74,-133.16"/>
</g>
<!-- Node0x555ee6967448 -->
<g id="node8" class="node">
<title>Node0x555ee6967448</title>
<polygon fill="none" stroke="black" points="719.5,-168 372.5,-168 372.5,-132 719.5,-132 719.5,-168"/>
<text text-anchor="middle" x="546" y="-146.3" font-family="Times,serif" font-size="14.00">{lib/libLLVMVectorize.a(SLPVectorizer.cpp.o)}</text>
</g>
<!-- Node0x555ee6967128 -->
<g id="node9" class="node">
<title>Node0x555ee6967128</title>
<polygon fill="none" stroke="black" points="314,-195 0,-195 0,-159 314,-159 314,-195"/>
<text text-anchor="middle" x="157" y="-173.3" font-family="Times,serif" font-size="14.00">{lib/libLLVMVectorize.a(Vectorize.cpp.o)}</text>
</g>
<!-- Node0x555ee6967128&#45;&gt;Node0x555ee6975228 -->
<g id="edge6" class="edge">
<title>Node0x555ee6967128&#45;&gt;Node0x555ee6975228</title>
<path fill="none" stroke="black" d="M214.63,-195.13C252.6,-206.73 303.9,-221.37 350,-231 362.53,-233.62 375.57,-236.05 388.7,-238.29"/>
<polygon fill="black" stroke="black" points="388.31,-241.77 398.75,-239.96 389.46,-234.86 388.31,-241.77"/>
</g>
<!-- Node0x555ee6967128&#45;&gt;Node0x555ee6976808 -->
<g id="edge7" class="edge">
<title>Node0x555ee6967128&#45;&gt;Node0x555ee6976808</title>
<path fill="none" stroke="black" d="M314.01,-187.88C329.6,-188.97 345.52,-190.08 361.35,-191.19"/>
<polygon fill="black" stroke="black" points="361.52,-194.71 371.74,-191.91 362,-187.72 361.52,-194.71"/>
</g>
<!-- Node0x555ee6967128&#45;&gt;Node0x555ee6967448 -->
<g id="edge8" class="edge">
<title>Node0x555ee6967128&#45;&gt;Node0x555ee6967448</title>
<path fill="none" stroke="black" d="M314.01,-166.12C329.92,-165.01 346.18,-163.87 362.33,-162.74"/>
<polygon fill="black" stroke="black" points="362.64,-166.23 372.37,-162.04 362.15,-159.25 362.64,-166.23"/>
</g>
<!-- Node0x555ee6967e48 -->
<g id="node10" class="node">
<title>Node0x555ee6967e48</title>
<polygon fill="none" stroke="black" points="724,-114 368,-114 368,-78 724,-78 724,-114"/>
<text text-anchor="middle" x="546" y="-92.3" font-family="Times,serif" font-size="14.00">{lib/libLLVMVectorize.a(VectorCombine.cpp.o)}</text>
</g>
<!-- Node0x555ee6967128&#45;&gt;Node0x555ee6967e48 -->
<g id="edge9" class="edge">
<title>Node0x555ee6967128&#45;&gt;Node0x555ee6967e48</title>
<path fill="none" stroke="black" d="M214.63,-158.87C252.6,-147.27 303.9,-132.63 350,-123 362.53,-120.38 375.57,-117.95 388.7,-115.71"/>
<polygon fill="black" stroke="black" points="389.46,-119.14 398.75,-114.04 388.31,-112.23 389.46,-119.14"/>
</g>
</g>
</svg>
