<?xml version="1.0" encoding="UTF-8" standalone="no"?>
<!DOCTYPE svg PUBLIC "-//W3C//DTD SVG 1.1//EN"
 "http://www.w3.org/Graphics/SVG/1.1/DTD/svg11.dtd">
<!-- Generated by graphviz version 2.43.0 (0)
 -->
<!-- Title: lib/libLTO.so.13git_lib/libLLVMScalarOpts.a Pages: 1 -->
<svg width="914pt" height="3847pt"
 viewBox="0.00 0.00 914.00 3847.00" xmlns="http://www.w3.org/2000/svg" xmlns:xlink="http://www.w3.org/1999/xlink">
<g id="graph0" class="graph" transform="scale(1 1) rotate(0) translate(4 3843)">
<title>lib/libLTO.so.13git_lib/libLLVMScalarOpts.a</title>
<polygon fill="white" stroke="transparent" points="-4,4 -4,-3843 910,-3843 910,4 -4,4"/>
<text text-anchor="middle" x="453" y="-7.8" font-family="Times,serif" font-size="14.00">lib/libLTO.so.13git_lib/libLLVMScalarOpts.a</text>
<!-- Node0x55f6e5fd6f88 -->
<g id="node1" class="node">
<title>Node0x55f6e5fd6f88</title>
<polygon fill="none" stroke="black" points="458.5,-59 39.5,-59 39.5,-23 458.5,-23 458.5,-59"/>
<text text-anchor="middle" x="249" y="-37.3" font-family="Times,serif" font-size="14.00">{lib/libLLVMScalarOpts.a(PartiallyInlineLibCalls.cpp.o)}</text>
</g>
<!-- Node0x55f6e5fdf3b8 -->
<g id="node2" class="node">
<title>Node0x55f6e5fdf3b8</title>
<polygon fill="none" stroke="black" points="478,-113 20,-113 20,-77 478,-77 478,-113"/>
<text text-anchor="middle" x="249" y="-91.3" font-family="Times,serif" font-size="14.00">{lib/libLLVMScalarOpts.a(ScalarizeMaskedMemIntrin.cpp.o)}</text>
</g>
<!-- Node0x55f6e5ff0bb8 -->
<g id="node3" class="node">
<title>Node0x55f6e5ff0bb8</title>
<polygon fill="none" stroke="black" points="454.5,-167 43.5,-167 43.5,-131 454.5,-131 454.5,-167"/>
<text text-anchor="middle" x="249" y="-145.3" font-family="Times,serif" font-size="14.00">{lib/libLLVMScalarOpts.a(LoopStrengthReduce.cpp.o)}</text>
</g>
<!-- Node0x55f6e5ff39f8 -->
<g id="node4" class="node">
<title>Node0x55f6e5ff39f8</title>
<polygon fill="none" stroke="black" points="467.5,-221 30.5,-221 30.5,-185 467.5,-185 467.5,-221"/>
<text text-anchor="middle" x="249" y="-199.3" font-family="Times,serif" font-size="14.00">{lib/libLLVMScalarOpts.a(LowerConstantIntrinsics.cpp.o)}</text>
</g>
<!-- Node0x55f6e5fd9378 -->
<g id="node5" class="node">
<title>Node0x55f6e5fd9378</title>
<polygon fill="none" stroke="black" points="442,-275 56,-275 56,-239 442,-239 442,-275"/>
<text text-anchor="middle" x="249" y="-253.3" font-family="Times,serif" font-size="14.00">{lib/libLLVMScalarOpts.a(ConstantHoisting.cpp.o)}</text>
</g>
<!-- Node0x55f6e5fe7928 -->
<g id="node6" class="node">
<title>Node0x55f6e5fe7928</title>
<polygon fill="none" stroke="black" points="425.5,-329 72.5,-329 72.5,-293 425.5,-293 425.5,-329"/>
<text text-anchor="middle" x="249" y="-307.3" font-family="Times,serif" font-size="14.00">{lib/libLLVMScalarOpts.a(MergeICmps.cpp.o)}</text>
</g>
<!-- Node0x55f6e5fd7708 -->
<g id="node7" class="node">
<title>Node0x55f6e5fd7708</title>
<polygon fill="none" stroke="black" points="421.5,-383 76.5,-383 76.5,-347 421.5,-347 421.5,-383"/>
<text text-anchor="middle" x="249" y="-361.3" font-family="Times,serif" font-size="14.00">{lib/libLLVMScalarOpts.a(Reassociate.cpp.o)}</text>
</g>
<!-- Node0x55f6e5fd7d98 -->
<g id="node8" class="node">
<title>Node0x55f6e5fd7d98</title>
<polygon fill="none" stroke="black" points="415.5,-437 82.5,-437 82.5,-401 415.5,-401 415.5,-437"/>
<text text-anchor="middle" x="249" y="-415.3" font-family="Times,serif" font-size="14.00">{lib/libLLVMScalarOpts.a(Reg2Mem.cpp.o)}</text>
</g>
<!-- Node0x55f6e5fd8568 -->
<g id="node9" class="node">
<title>Node0x55f6e5fd8568</title>
<polygon fill="none" stroke="black" points="471.5,-491 26.5,-491 26.5,-455 471.5,-455 471.5,-491"/>
<text text-anchor="middle" x="249" y="-469.3" font-family="Times,serif" font-size="14.00">{lib/libLLVMScalarOpts.a(RewriteStatepointsForGC.cpp.o)}</text>
</g>
<!-- Node0x55f6e5fde148 -->
<g id="node10" class="node">
<title>Node0x55f6e5fde148</title>
<polygon fill="none" stroke="black" points="398,-545 100,-545 100,-509 398,-509 398,-545"/>
<text text-anchor="middle" x="249" y="-523.3" font-family="Times,serif" font-size="14.00">{lib/libLLVMScalarOpts.a(SCCP.cpp.o)}</text>
</g>
<!-- Node0x55f6e5fde3c8 -->
<g id="node11" class="node">
<title>Node0x55f6e5fde3c8</title>
<polygon fill="none" stroke="black" points="400,-599 98,-599 98,-563 400,-563 400,-599"/>
<text text-anchor="middle" x="249" y="-577.3" font-family="Times,serif" font-size="14.00">{lib/libLLVMScalarOpts.a(SROA.cpp.o)}</text>
</g>
<!-- Node0x55f6e5fdf048 -->
<g id="node12" class="node">
<title>Node0x55f6e5fdf048</title>
<polygon fill="none" stroke="black" points="414.5,-653 83.5,-653 83.5,-617 414.5,-617 414.5,-653"/>
<text text-anchor="middle" x="249" y="-631.3" font-family="Times,serif" font-size="14.00">{lib/libLLVMScalarOpts.a(Scalarizer.cpp.o)}</text>
</g>
<!-- Node0x55f6e5fdfea8 -->
<g id="node13" class="node">
<title>Node0x55f6e5fdfea8</title>
<polygon fill="none" stroke="black" points="487,-707 11,-707 11,-671 487,-671 487,-707"/>
<text text-anchor="middle" x="249" y="-685.3" font-family="Times,serif" font-size="14.00">{lib/libLLVMScalarOpts.a(SeparateConstOffsetFromGEP.cpp.o)}</text>
</g>
<!-- Node0x55f6e5fe0218 -->
<g id="node14" class="node">
<title>Node0x55f6e5fe0218</title>
<polygon fill="none" stroke="black" points="455,-761 43,-761 43,-725 455,-725 455,-761"/>
<text text-anchor="middle" x="249" y="-739.3" font-family="Times,serif" font-size="14.00">{lib/libLLVMScalarOpts.a(SimpleLoopUnswitch.cpp.o)}</text>
</g>
<!-- Node0x55f6e5fe89b8 -->
<g id="node15" class="node">
<title>Node0x55f6e5fe89b8</title>
<polygon fill="none" stroke="black" points="443.5,-815 54.5,-815 54.5,-779 443.5,-779 443.5,-815"/>
<text text-anchor="middle" x="249" y="-793.3" font-family="Times,serif" font-size="14.00">{lib/libLLVMScalarOpts.a(LoopDataPrefetch.cpp.o)}</text>
</g>
<!-- Node0x55f6e5fe9138 -->
<g id="node16" class="node">
<title>Node0x55f6e5fe9138</title>
<polygon fill="none" stroke="black" points="433,-869 65,-869 65,-833 433,-833 433,-869"/>
<text text-anchor="middle" x="249" y="-847.3" font-family="Times,serif" font-size="14.00">{lib/libLLVMScalarOpts.a(LoopDistribute.cpp.o)}</text>
</g>
<!-- Node0x55f6e5fe98b8 -->
<g id="node17" class="node">
<title>Node0x55f6e5fe98b8</title>
<polygon fill="none" stroke="black" points="413.5,-923 84.5,-923 84.5,-887 413.5,-887 413.5,-923"/>
<text text-anchor="middle" x="249" y="-901.3" font-family="Times,serif" font-size="14.00">{lib/libLLVMScalarOpts.a(LoopFuse.cpp.o)}</text>
</g>
<!-- Node0x55f6e5fe9fe8 -->
<g id="node18" class="node">
<title>Node0x55f6e5fe9fe8</title>
<polygon fill="none" stroke="black" points="453,-977 45,-977 45,-941 453,-941 453,-977"/>
<text text-anchor="middle" x="249" y="-955.3" font-family="Times,serif" font-size="14.00">{lib/libLLVMScalarOpts.a(LoopIdiomRecognize.cpp.o)}</text>
</g>
<!-- Node0x55f6e5fe5948 -->
<g id="node19" class="node">
<title>Node0x55f6e5fe5948</title>
<polygon fill="none" stroke="black" points="439,-1031 59,-1031 59,-995 439,-995 439,-1031"/>
<text text-anchor="middle" x="249" y="-1009.3" font-family="Times,serif" font-size="14.00">{lib/libLLVMScalarOpts.a(LoopInstSimplify.cpp.o)}</text>
</g>
<!-- Node0x55f6e5fe60c8 -->
<g id="node20" class="node">
<title>Node0x55f6e5fe60c8</title>
<polygon fill="none" stroke="black" points="439.5,-1085 58.5,-1085 58.5,-1049 439.5,-1049 439.5,-1085"/>
<text text-anchor="middle" x="249" y="-1063.3" font-family="Times,serif" font-size="14.00">{lib/libLLVMScalarOpts.a(LoopInterchange.cpp.o)}</text>
</g>
<!-- Node0x55f6e5fe67f8 -->
<g id="node21" class="node">
<title>Node0x55f6e5fe67f8</title>
<polygon fill="none" stroke="black" points="422.5,-1139 75.5,-1139 75.5,-1103 422.5,-1103 422.5,-1139"/>
<text text-anchor="middle" x="249" y="-1117.3" font-family="Times,serif" font-size="14.00">{lib/libLLVMScalarOpts.a(LoopFlatten.cpp.o)}</text>
</g>
<!-- Node0x55f6e5fe6f28 -->
<g id="node22" class="node">
<title>Node0x55f6e5fe6f28</title>
<polygon fill="none" stroke="black" points="455,-1193 43,-1193 43,-1157 455,-1157 455,-1193"/>
<text text-anchor="middle" x="249" y="-1171.3" font-family="Times,serif" font-size="14.00">{lib/libLLVMScalarOpts.a(LoopLoadElimination.cpp.o)}</text>
</g>
<!-- Node0x55f6e5fe7658 -->
<g id="node23" class="node">
<title>Node0x55f6e5fe7658</title>
<polygon fill="none" stroke="black" points="443.5,-1247 54.5,-1247 54.5,-1211 443.5,-1211 443.5,-1247"/>
<text text-anchor="middle" x="249" y="-1225.3" font-family="Times,serif" font-size="14.00">{lib/libLLVMScalarOpts.a(LoopPassManager.cpp.o)}</text>
</g>
<!-- Node0x55f6e5fe3008 -->
<g id="node24" class="node">
<title>Node0x55f6e5fe3008</title>
<polygon fill="none" stroke="black" points="437.5,-1301 60.5,-1301 60.5,-1265 437.5,-1265 437.5,-1301"/>
<text text-anchor="middle" x="249" y="-1279.3" font-family="Times,serif" font-size="14.00">{lib/libLLVMScalarOpts.a(LoopPredication.cpp.o)}</text>
</g>
<!-- Node0x55f6e5fe5358 -->
<g id="node25" class="node">
<title>Node0x55f6e5fe5358</title>
<polygon fill="none" stroke="black" points="434,-1355 64,-1355 64,-1319 434,-1319 434,-1355"/>
<text text-anchor="middle" x="249" y="-1333.3" font-family="Times,serif" font-size="14.00">{lib/libLLVMScalarOpts.a(LoopRerollPass.cpp.o)}</text>
</g>
<!-- Node0x55f6e5fe4bd8 -->
<g id="node26" class="node">
<title>Node0x55f6e5fe4bd8</title>
<polygon fill="none" stroke="black" points="427,-1409 71,-1409 71,-1373 427,-1373 427,-1409"/>
<text text-anchor="middle" x="249" y="-1387.3" font-family="Times,serif" font-size="14.00">{lib/libLLVMScalarOpts.a(LoopRotation.cpp.o)}</text>
</g>
<!-- Node0x55f6e5fe44a8 -->
<g id="node27" class="node">
<title>Node0x55f6e5fe44a8</title>
<polygon fill="none" stroke="black" points="441.5,-1463 56.5,-1463 56.5,-1427 441.5,-1427 441.5,-1463"/>
<text text-anchor="middle" x="249" y="-1441.3" font-family="Times,serif" font-size="14.00">{lib/libLLVMScalarOpts.a(LoopSimplifyCFG.cpp.o)}</text>
</g>
<!-- Node0x55f6e5ff1388 -->
<g id="node28" class="node">
<title>Node0x55f6e5ff1388</title>
<polygon fill="none" stroke="black" points="906,-1517 534,-1517 534,-1481 906,-1481 906,-1517"/>
<text text-anchor="middle" x="720" y="-1495.3" font-family="Times,serif" font-size="14.00">{lib/libLLVMScalarOpts.a(LoopUnrollPass.cpp.o)}</text>
</g>
<!-- Node0x55f6e5ff1b08 -->
<g id="node29" class="node">
<title>Node0x55f6e5ff1b08</title>
<polygon fill="none" stroke="black" points="462.5,-1517 35.5,-1517 35.5,-1481 462.5,-1481 462.5,-1517"/>
<text text-anchor="middle" x="249" y="-1495.3" font-family="Times,serif" font-size="14.00">{lib/libLLVMScalarOpts.a(LoopUnrollAndJamPass.cpp.o)}</text>
</g>
<!-- Node0x55f6e5ff1b08&#45;&gt;Node0x55f6e5ff1388 -->
<g id="edge1" class="edge">
<title>Node0x55f6e5ff1b08&#45;&gt;Node0x55f6e5ff1388</title>
<path fill="none" stroke="black" d="M462.54,-1499C482.86,-1499 503.4,-1499 523.55,-1499"/>
<polygon fill="black" stroke="black" points="523.72,-1502.5 533.72,-1499 523.72,-1495.5 523.72,-1502.5"/>
</g>
<!-- Node0x55f6e5ff0168 -->
<g id="node30" class="node">
<title>Node0x55f6e5ff0168</title>
<polygon fill="none" stroke="black" points="454,-1571 44,-1571 44,-1535 454,-1535 454,-1571"/>
<text text-anchor="middle" x="249" y="-1549.3" font-family="Times,serif" font-size="14.00">{lib/libLLVMScalarOpts.a(LoopVersioningLICM.cpp.o)}</text>
</g>
<!-- Node0x55f6e5ff3278 -->
<g id="node31" class="node">
<title>Node0x55f6e5ff3278</title>
<polygon fill="none" stroke="black" points="426,-1625 72,-1625 72,-1589 426,-1589 426,-1625"/>
<text text-anchor="middle" x="249" y="-1603.3" font-family="Times,serif" font-size="14.00">{lib/libLLVMScalarOpts.a(LowerAtomic.cpp.o)}</text>
</g>
<!-- Node0x55f6e5fd6cb8 -->
<g id="node32" class="node">
<title>Node0x55f6e5fd6cb8</title>
<polygon fill="none" stroke="black" points="400,-1679 98,-1679 98,-1643 400,-1643 400,-1679"/>
<text text-anchor="middle" x="249" y="-1657.3" font-family="Times,serif" font-size="14.00">{lib/libLLVMScalarOpts.a(ADCE.cpp.o)}</text>
</g>
<!-- Node0x55f6e5fdb128 -->
<g id="node33" class="node">
<title>Node0x55f6e5fdb128</title>
<polygon fill="none" stroke="black" points="481,-1733 17,-1733 17,-1697 481,-1697 481,-1733"/>
<text text-anchor="middle" x="249" y="-1711.3" font-family="Times,serif" font-size="14.00">{lib/libLLVMScalarOpts.a(AlignmentFromAssumptions.cpp.o)}</text>
</g>
<!-- Node0x55f6e5fdaea8 -->
<g id="node34" class="node">
<title>Node0x55f6e5fdaea8</title>
<polygon fill="none" stroke="black" points="449.5,-1787 48.5,-1787 48.5,-1751 449.5,-1751 449.5,-1787"/>
<text text-anchor="middle" x="249" y="-1765.3" font-family="Times,serif" font-size="14.00">{lib/libLLVMScalarOpts.a(AnnotationRemarks.cpp.o)}</text>
</g>
<!-- Node0x55f6e5fda1d8 -->
<g id="node35" class="node">
<title>Node0x55f6e5fda1d8</title>
<polygon fill="none" stroke="black" points="400.5,-1841 97.5,-1841 97.5,-1805 400.5,-1805 400.5,-1841"/>
<text text-anchor="middle" x="249" y="-1819.3" font-family="Times,serif" font-size="14.00">{lib/libLLVMScalarOpts.a(BDCE.cpp.o)}</text>
</g>
<!-- Node0x55f6e5fda048 -->
<g id="node36" class="node">
<title>Node0x55f6e5fda048</title>
<polygon fill="none" stroke="black" points="438.5,-1895 59.5,-1895 59.5,-1859 438.5,-1859 438.5,-1895"/>
<text text-anchor="middle" x="249" y="-1873.3" font-family="Times,serif" font-size="14.00">{lib/libLLVMScalarOpts.a(CallSiteSplitting.cpp.o)}</text>
</g>
<!-- Node0x55f6e5fd90f8 -->
<g id="node37" class="node">
<title>Node0x55f6e5fd90f8</title>
<polygon fill="none" stroke="black" points="458.5,-1949 39.5,-1949 39.5,-1913 458.5,-1913 458.5,-1949"/>
<text text-anchor="middle" x="249" y="-1927.3" font-family="Times,serif" font-size="14.00">{lib/libLLVMScalarOpts.a(ConstraintElimination.cpp.o)}</text>
</g>
<!-- Node0x55f6e5fdd658 -->
<g id="node38" class="node">
<title>Node0x55f6e5fdd658</title>
<polygon fill="none" stroke="black" points="480.5,-2003 17.5,-2003 17.5,-1967 480.5,-1967 480.5,-2003"/>
<text text-anchor="middle" x="249" y="-1981.3" font-family="Times,serif" font-size="14.00">{lib/libLLVMScalarOpts.a(CorrelatedValuePropagation.cpp.o)}</text>
</g>
<!-- Node0x55f6e5ffd8b8 -->
<g id="node39" class="node">
<title>Node0x55f6e5ffd8b8</title>
<polygon fill="none" stroke="black" points="395.5,-2057 102.5,-2057 102.5,-2021 395.5,-2021 395.5,-2057"/>
<text text-anchor="middle" x="249" y="-2035.3" font-family="Times,serif" font-size="14.00">{lib/libLLVMScalarOpts.a(DCE.cpp.o)}</text>
</g>
<!-- Node0x55f6e5ffcb98 -->
<g id="node40" class="node">
<title>Node0x55f6e5ffcb98</title>
<polygon fill="none" stroke="black" points="458.5,-2111 39.5,-2111 39.5,-2075 458.5,-2075 458.5,-2111"/>
<text text-anchor="middle" x="249" y="-2089.3" font-family="Times,serif" font-size="14.00">{lib/libLLVMScalarOpts.a(DeadStoreElimination.cpp.o)}</text>
</g>
<!-- Node0x55f6e5ffc558 -->
<g id="node41" class="node">
<title>Node0x55f6e5ffc558</title>
<polygon fill="none" stroke="black" points="425.5,-2165 72.5,-2165 72.5,-2129 425.5,-2129 425.5,-2165"/>
<text text-anchor="middle" x="249" y="-2143.3" font-family="Times,serif" font-size="14.00">{lib/libLLVMScalarOpts.a(DivRemPairs.cpp.o)}</text>
</g>
<!-- Node0x55f6e5ffbce8 -->
<g id="node42" class="node">
<title>Node0x55f6e5ffbce8</title>
<polygon fill="none" stroke="black" points="413.5,-2219 84.5,-2219 84.5,-2183 413.5,-2183 413.5,-2219"/>
<text text-anchor="middle" x="249" y="-2197.3" font-family="Times,serif" font-size="14.00">{lib/libLLVMScalarOpts.a(EarlyCSE.cpp.o)}</text>
</g>
<!-- Node0x55f6e5ffb748 -->
<g id="node43" class="node">
<title>Node0x55f6e5ffb748</title>
<polygon fill="none" stroke="black" points="412,-2273 86,-2273 86,-2237 412,-2237 412,-2273"/>
<text text-anchor="middle" x="249" y="-2251.3" font-family="Times,serif" font-size="14.00">{lib/libLLVMScalarOpts.a(Float2Int.cpp.o)}</text>
</g>
<!-- Node0x55f6e5ffb018 -->
<g id="node44" class="node">
<title>Node0x55f6e5ffb018</title>
<polygon fill="none" stroke="black" points="435,-2327 63,-2327 63,-2291 435,-2291 435,-2327"/>
<text text-anchor="middle" x="249" y="-2305.3" font-family="Times,serif" font-size="14.00">{lib/libLLVMScalarOpts.a(GuardWidening.cpp.o)}</text>
</g>
<!-- Node0x55f6e5ffa758 -->
<g id="node45" class="node">
<title>Node0x55f6e5ffa758</title>
<polygon fill="none" stroke="black" points="866.5,-2381 573.5,-2381 573.5,-2345 866.5,-2345 866.5,-2381"/>
<text text-anchor="middle" x="720" y="-2359.3" font-family="Times,serif" font-size="14.00">{lib/libLLVMScalarOpts.a(GVN.cpp.o)}</text>
</g>
<!-- Node0x55f6e5ff9fd8 -->
<g id="node46" class="node">
<title>Node0x55f6e5ff9fd8</title>
<polygon fill="none" stroke="black" points="415,-2381 83,-2381 83,-2345 415,-2345 415,-2381"/>
<text text-anchor="middle" x="249" y="-2359.3" font-family="Times,serif" font-size="14.00">{lib/libLLVMScalarOpts.a(GVNHoist.cpp.o)}</text>
</g>
<!-- Node0x55f6e5ff9fd8&#45;&gt;Node0x55f6e5ffa758 -->
<g id="edge2" class="edge">
<title>Node0x55f6e5ff9fd8&#45;&gt;Node0x55f6e5ffa758</title>
<path fill="none" stroke="black" d="M415.02,-2363C463.18,-2363 515.63,-2363 563.19,-2363"/>
<polygon fill="black" stroke="black" points="563.26,-2366.5 573.26,-2363 563.26,-2359.5 563.26,-2366.5"/>
</g>
<!-- Node0x55f6e5ff98a8 -->
<g id="node47" class="node">
<title>Node0x55f6e5ff98a8</title>
<polygon fill="none" stroke="black" points="411.5,-2435 86.5,-2435 86.5,-2399 411.5,-2399 411.5,-2435"/>
<text text-anchor="middle" x="249" y="-2413.3" font-family="Times,serif" font-size="14.00">{lib/libLLVMScalarOpts.a(GVNSink.cpp.o)}</text>
</g>
<!-- Node0x55f6e5fee778 -->
<g id="node48" class="node">
<title>Node0x55f6e5fee778</title>
<polygon fill="none" stroke="black" points="882.5,-2435 557.5,-2435 557.5,-2399 882.5,-2399 882.5,-2435"/>
<text text-anchor="middle" x="720" y="-2413.3" font-family="Times,serif" font-size="14.00">{lib/libLLVMScalarOpts.a(NewGVN.cpp.o)}</text>
</g>
<!-- Node0x55f6e5ff98a8&#45;&gt;Node0x55f6e5fee778 -->
<g id="edge3" class="edge">
<title>Node0x55f6e5ff98a8&#45;&gt;Node0x55f6e5fee778</title>
<path fill="none" stroke="black" d="M411.73,-2417C455.35,-2417 502.69,-2417 546.86,-2417"/>
<polygon fill="black" stroke="black" points="547.12,-2420.5 557.12,-2417 547.12,-2413.5 547.12,-2420.5"/>
</g>
<!-- Node0x55f6e5fdb7b8 -->
<g id="node49" class="node">
<title>Node0x55f6e5fdb7b8</title>
<polygon fill="none" stroke="black" points="432.5,-2489 65.5,-2489 65.5,-2453 432.5,-2453 432.5,-2489"/>
<text text-anchor="middle" x="249" y="-2467.3" font-family="Times,serif" font-size="14.00">{lib/libLLVMScalarOpts.a(IVUsersPrinter.cpp.o)}</text>
</g>
<!-- Node0x55f6e5fd7c08 -->
<g id="node50" class="node">
<title>Node0x55f6e5fd7c08</title>
<polygon fill="none" stroke="black" points="498,-2543 0,-2543 0,-2507 498,-2507 498,-2543"/>
<text text-anchor="middle" x="249" y="-2521.3" font-family="Times,serif" font-size="14.00">{lib/libLLVMScalarOpts.a(InductiveRangeCheckElimination.cpp.o)}</text>
</g>
<!-- Node0x55f6e5fd86a8 -->
<g id="node51" class="node">
<title>Node0x55f6e5fd86a8</title>
<polygon fill="none" stroke="black" points="431.5,-2597 66.5,-2597 66.5,-2561 431.5,-2561 431.5,-2597"/>
<text text-anchor="middle" x="249" y="-2575.3" font-family="Times,serif" font-size="14.00">{lib/libLLVMScalarOpts.a(IndVarSimplify.cpp.o)}</text>
</g>
<!-- Node0x55f6e5fd9468 -->
<g id="node52" class="node">
<title>Node0x55f6e5fd9468</title>
<polygon fill="none" stroke="black" points="450.5,-2651 47.5,-2651 47.5,-2615 450.5,-2615 450.5,-2651"/>
<text text-anchor="middle" x="249" y="-2629.3" font-family="Times,serif" font-size="14.00">{lib/libLLVMScalarOpts.a(InferAddressSpaces.cpp.o)}</text>
</g>
<!-- Node0x55f6e5fd9f08 -->
<g id="node53" class="node">
<title>Node0x55f6e5fd9f08</title>
<polygon fill="none" stroke="black" points="439,-2705 59,-2705 59,-2669 439,-2669 439,-2705"/>
<text text-anchor="middle" x="249" y="-2683.3" font-family="Times,serif" font-size="14.00">{lib/libLLVMScalarOpts.a(InstSimplifyPass.cpp.o)}</text>
</g>
<!-- Node0x55f6e5fd9738 -->
<g id="node54" class="node">
<title>Node0x55f6e5fd9738</title>
<polygon fill="none" stroke="black" points="434,-2759 64,-2759 64,-2723 434,-2723 434,-2759"/>
<text text-anchor="middle" x="249" y="-2737.3" font-family="Times,serif" font-size="14.00">{lib/libLLVMScalarOpts.a(JumpThreading.cpp.o)}</text>
</g>
<!-- Node0x55f6e5fda368 -->
<g id="node55" class="node">
<title>Node0x55f6e5fda368</title>
<polygon fill="none" stroke="black" points="869.5,-2813 570.5,-2813 570.5,-2777 869.5,-2777 869.5,-2813"/>
<text text-anchor="middle" x="720" y="-2791.3" font-family="Times,serif" font-size="14.00">{lib/libLLVMScalarOpts.a(LICM.cpp.o)}</text>
</g>
<!-- Node0x55f6e5fdaf98 -->
<g id="node56" class="node">
<title>Node0x55f6e5fdaf98</title>
<polygon fill="none" stroke="black" points="475,-2867 23,-2867 23,-2831 475,-2831 475,-2867"/>
<text text-anchor="middle" x="249" y="-2845.3" font-family="Times,serif" font-size="14.00">{lib/libLLVMScalarOpts.a(LoopAccessAnalysisPrinter.cpp.o)}</text>
</g>
<!-- Node0x55f6e5ffa0c8 -->
<g id="node57" class="node">
<title>Node0x55f6e5ffa0c8</title>
<polygon fill="none" stroke="black" points="436,-2921 62,-2921 62,-2885 436,-2885 436,-2921"/>
<text text-anchor="middle" x="249" y="-2899.3" font-family="Times,serif" font-size="14.00">{lib/libLLVMScalarOpts.a(LoopBoundSplit.cpp.o)}</text>
</g>
<!-- Node0x55f6e5ffa898 -->
<g id="node58" class="node">
<title>Node0x55f6e5ffa898</title>
<polygon fill="none" stroke="black" points="412,-2813 86,-2813 86,-2777 412,-2777 412,-2813"/>
<text text-anchor="middle" x="249" y="-2791.3" font-family="Times,serif" font-size="14.00">{lib/libLLVMScalarOpts.a(LoopSink.cpp.o)}</text>
</g>
<!-- Node0x55f6e5ffa898&#45;&gt;Node0x55f6e5fda368 -->
<g id="edge4" class="edge">
<title>Node0x55f6e5ffa898&#45;&gt;Node0x55f6e5fda368</title>
<path fill="none" stroke="black" d="M412.06,-2795C460.01,-2795 512.45,-2795 560.2,-2795"/>
<polygon fill="black" stroke="black" points="560.31,-2798.5 570.31,-2795 560.31,-2791.5 560.31,-2798.5"/>
</g>
<!-- Node0x55f6e5ff9b78 -->
<g id="node59" class="node">
<title>Node0x55f6e5ff9b78</title>
<polygon fill="none" stroke="black" points="426.5,-2975 71.5,-2975 71.5,-2939 426.5,-2939 426.5,-2975"/>
<text text-anchor="middle" x="249" y="-2953.3" font-family="Times,serif" font-size="14.00">{lib/libLLVMScalarOpts.a(LoopDeletion.cpp.o)}</text>
</g>
<!-- Node0x55f6e5fe7d38 -->
<g id="node60" class="node">
<title>Node0x55f6e5fe7d38</title>
<polygon fill="none" stroke="black" points="456,-3029 42,-3029 42,-2993 456,-2993 456,-3029"/>
<text text-anchor="middle" x="249" y="-3007.3" font-family="Times,serif" font-size="14.00">{lib/libLLVMScalarOpts.a(LowerExpectIntrinsic.cpp.o)}</text>
</g>
<!-- Node0x55f6e5fe9d68 -->
<g id="node61" class="node">
<title>Node0x55f6e5fe9d68</title>
<polygon fill="none" stroke="black" points="453.5,-3083 44.5,-3083 44.5,-3047 453.5,-3047 453.5,-3083"/>
<text text-anchor="middle" x="249" y="-3061.3" font-family="Times,serif" font-size="14.00">{lib/libLLVMScalarOpts.a(LowerGuardIntrinsic.cpp.o)}</text>
</g>
<!-- Node0x55f6e5fe9598 -->
<g id="node62" class="node">
<title>Node0x55f6e5fe9598</title>
<polygon fill="none" stroke="black" points="459,-3137 39,-3137 39,-3101 459,-3101 459,-3137"/>
<text text-anchor="middle" x="249" y="-3115.3" font-family="Times,serif" font-size="14.00">{lib/libLLVMScalarOpts.a(LowerMatrixIntrinsics.cpp.o)}</text>
</g>
<!-- Node0x55f6e5fe6848 -->
<g id="node63" class="node">
<title>Node0x55f6e5fe6848</title>
<polygon fill="none" stroke="black" points="473.5,-3191 24.5,-3191 24.5,-3155 473.5,-3155 473.5,-3191"/>
<text text-anchor="middle" x="249" y="-3169.3" font-family="Times,serif" font-size="14.00">{lib/libLLVMScalarOpts.a(LowerWidenableCondition.cpp.o)}</text>
</g>
<!-- Node0x55f6e5fe61b8 -->
<g id="node64" class="node">
<title>Node0x55f6e5fe61b8</title>
<polygon fill="none" stroke="black" points="452,-3245 46,-3245 46,-3209 452,-3209 452,-3245"/>
<text text-anchor="middle" x="249" y="-3223.3" font-family="Times,serif" font-size="14.00">{lib/libLLVMScalarOpts.a(MakeGuardsExplicit.cpp.o)}</text>
</g>
<!-- Node0x55f6e5fe58f8 -->
<g id="node65" class="node">
<title>Node0x55f6e5fe58f8</title>
<polygon fill="none" stroke="black" points="446,-3299 52,-3299 52,-3263 446,-3263 446,-3299"/>
<text text-anchor="middle" x="249" y="-3277.3" font-family="Times,serif" font-size="14.00">{lib/libLLVMScalarOpts.a(MemCpyOptimizer.cpp.o)}</text>
</g>
<!-- Node0x55f6e5fe7158 -->
<g id="node66" class="node">
<title>Node0x55f6e5fe7158</title>
<polygon fill="none" stroke="black" points="469,-3353 29,-3353 29,-3317 469,-3317 469,-3353"/>
<text text-anchor="middle" x="249" y="-3331.3" font-family="Times,serif" font-size="14.00">{lib/libLLVMScalarOpts.a(MergedLoadStoreMotion.cpp.o)}</text>
</g>
<!-- Node0x55f6e5fe69d8 -->
<g id="node67" class="node">
<title>Node0x55f6e5fe69d8</title>
<polygon fill="none" stroke="black" points="439,-3407 59,-3407 59,-3371 439,-3371 439,-3407"/>
<text text-anchor="middle" x="249" y="-3385.3" font-family="Times,serif" font-size="14.00">{lib/libLLVMScalarOpts.a(NaryReassociate.cpp.o)}</text>
</g>
<!-- Node0x55f6e5fe1b18 -->
<g id="node68" class="node">
<title>Node0x55f6e5fe1b18</title>
<polygon fill="none" stroke="black" points="440.5,-3461 57.5,-3461 57.5,-3425 440.5,-3425 440.5,-3461"/>
<text text-anchor="middle" x="249" y="-3439.3" font-family="Times,serif" font-size="14.00">{lib/libLLVMScalarOpts.a(SimplifyCFGPass.cpp.o)}</text>
</g>
<!-- Node0x55f6e5fe1848 -->
<g id="node69" class="node">
<title>Node0x55f6e5fe1848</title>
<polygon fill="none" stroke="black" points="395,-3515 103,-3515 103,-3479 395,-3479 395,-3515"/>
<text text-anchor="middle" x="249" y="-3493.3" font-family="Times,serif" font-size="14.00">{lib/libLLVMScalarOpts.a(Sink.cpp.o)}</text>
</g>
<!-- Node0x55f6e5fe1258 -->
<g id="node70" class="node">
<title>Node0x55f6e5fe1258</title>
<polygon fill="none" stroke="black" points="456.5,-3569 41.5,-3569 41.5,-3533 456.5,-3533 456.5,-3569"/>
<text text-anchor="middle" x="249" y="-3547.3" font-family="Times,serif" font-size="14.00">{lib/libLLVMScalarOpts.a(SpeculativeExecution.cpp.o)}</text>
</g>
<!-- Node0x55f6e5fe0998 -->
<g id="node71" class="node">
<title>Node0x55f6e5fe0998</title>
<polygon fill="none" stroke="black" points="482.5,-3623 15.5,-3623 15.5,-3587 482.5,-3587 482.5,-3623"/>
<text text-anchor="middle" x="249" y="-3601.3" font-family="Times,serif" font-size="14.00">{lib/libLLVMScalarOpts.a(StraightLineStrengthReduce.cpp.o)}</text>
</g>
<!-- Node0x55f6e5fe4c78 -->
<g id="node72" class="node">
<title>Node0x55f6e5fe4c78</title>
<polygon fill="none" stroke="black" points="435,-3677 63,-3677 63,-3641 435,-3641 435,-3677"/>
<text text-anchor="middle" x="249" y="-3655.3" font-family="Times,serif" font-size="14.00">{lib/libLLVMScalarOpts.a(StructurizeCFG.cpp.o)}</text>
</g>
<!-- Node0x55f6e5fe48b8 -->
<g id="node73" class="node">
<title>Node0x55f6e5fe48b8</title>
<polygon fill="none" stroke="black" points="469,-3731 29,-3731 29,-3695 469,-3695 469,-3731"/>
<text text-anchor="middle" x="249" y="-3709.3" font-family="Times,serif" font-size="14.00">{lib/libLLVMScalarOpts.a(TailRecursionElimination.cpp.o)}</text>
</g>
<!-- Node0x55f6e5fe3c88 -->
<g id="node74" class="node">
<title>Node0x55f6e5fe3c88</title>
<polygon fill="none" stroke="black" points="464.5,-3785 33.5,-3785 33.5,-3749 464.5,-3749 464.5,-3785"/>
<text text-anchor="middle" x="249" y="-3763.3" font-family="Times,serif" font-size="14.00">{lib/libLLVMScalarOpts.a(WarnMissedTransforms.cpp.o)}</text>
</g>
<!-- Node0x55f6e5fefb78 -->
<g id="node75" class="node">
<title>Node0x55f6e5fefb78</title>
<polygon fill="none" stroke="black" points="430,-3839 68,-3839 68,-3803 430,-3803 430,-3839"/>
<text text-anchor="middle" x="249" y="-3817.3" font-family="Times,serif" font-size="14.00">{lib/libLLVMScalarOpts.a(LoopUnswitch.cpp.o)}</text>
</g>
</g>
</svg>
