<?xml version="1.0" encoding="UTF-8" standalone="no"?>
<!DOCTYPE svg PUBLIC "-//W3C//DTD SVG 1.1//EN"
 "http://www.w3.org/Graphics/SVG/1.1/DTD/svg11.dtd">
<!-- Generated by graphviz version 2.43.0 (0)
 -->
<!-- Title: bin/obj2yaml Pages: 1 -->
<svg width="3182pt" height="1455pt"
 viewBox="0.00 0.00 3182.00 1455.00" xmlns="http://www.w3.org/2000/svg" xmlns:xlink="http://www.w3.org/1999/xlink">
<g id="graph0" class="graph" transform="scale(1 1) rotate(0) translate(4 1451)">
<title>bin/obj2yaml</title>
<polygon fill="white" stroke="transparent" points="-4,4 -4,-1451 3178,-1451 3178,4 -4,4"/>
<text text-anchor="middle" x="1587" y="-7.8" font-family="Times,serif" font-size="14.00">bin/obj2yaml</text>
<!-- Node0x55658c1d9368 -->
<g id="node1" class="node">
<title>Node0x55658c1d9368</title>
<polygon fill="#ff7f7f" stroke="black" points="1734.5,-1410.5 1734.5,-1446.5 2181.5,-1446.5 2181.5,-1410.5 1734.5,-1410.5"/>
<text text-anchor="middle" x="1958" y="-1424.8" font-family="Times,serif" font-size="14.00">tools/obj2yaml/CMakeFiles/obj2yaml.dir/archive2yaml.cpp.o</text>
</g>
<!-- Node0x55658c1d5d08 -->
<g id="node2" class="node">
<title>Node0x55658c1d5d08</title>
<polygon fill="#ff7f7f" stroke="black" points="2171,-1337.5 2171,-1373.5 2369,-1373.5 2369,-1337.5 2171,-1337.5"/>
<text text-anchor="middle" x="2270" y="-1351.8" font-family="Times,serif" font-size="14.00">lib/libLLVMObjectYAML.a</text>
</g>
<!-- Node0x55658c1d9368&#45;&gt;Node0x55658c1d5d08 -->
<g id="edge1" class="edge">
<title>Node0x55658c1d9368&#45;&gt;Node0x55658c1d5d08</title>
<path fill="none" stroke="#ff7f7f" d="M2026.87,-1410.49C2071.72,-1400.03 2130.67,-1386.61 2179.31,-1375.76"/>
<polygon fill="#ff7f7f" stroke="#ff7f7f" points="2180.2,-1379.14 2189.2,-1373.55 2178.68,-1372.31 2180.2,-1379.14"/>
</g>
<!-- Node0x55658c1d6bb8 -->
<g id="node3" class="node">
<title>Node0x55658c1d6bb8</title>
<polygon fill="#ff7f7f" stroke="black" points="1893,-1045.5 1893,-1081.5 2061,-1081.5 2061,-1045.5 1893,-1045.5"/>
<text text-anchor="middle" x="1977" y="-1059.8" font-family="Times,serif" font-size="14.00">lib/libLLVMSupport.a</text>
</g>
<!-- Node0x55658c1d9368&#45;&gt;Node0x55658c1d6bb8 -->
<g id="edge2" class="edge">
<title>Node0x55658c1d9368&#45;&gt;Node0x55658c1d6bb8</title>
<path fill="none" stroke="#ff7f7f" d="M1891.66,-1410.44C1816.3,-1386.32 1708.01,-1336.92 1741,-1264 1778.98,-1180.06 1871.67,-1117.41 1929.04,-1086.33"/>
<polygon fill="#ff7f7f" stroke="#ff7f7f" points="1930.74,-1089.39 1937.93,-1081.62 1927.46,-1083.21 1930.74,-1089.39"/>
</g>
<!-- Node0x55658c1d5d08&#45;&gt;Node0x55658c1d9368 -->
<g id="edge3" class="edge">
<title>Node0x55658c1d5d08&#45;&gt;Node0x55658c1d9368</title>
<path fill="none" stroke="#ff7f7f" d="M2200.93,-1373.55C2156.04,-1384.02 2097.09,-1397.45 2048.48,-1408.29"/>
<polygon fill="#ff7f7f" stroke="#ff7f7f" points="2047.59,-1404.9 2038.59,-1410.49 2049.11,-1411.74 2047.59,-1404.9"/>
</g>
<!-- Node0x55658c1d5d08&#45;&gt;Node0x55658c1d6bb8 -->
<g id="edge5" class="edge">
<title>Node0x55658c1d5d08&#45;&gt;Node0x55658c1d6bb8</title>
<path fill="none" stroke="#ff7f7f" d="M2260.84,-1337.47C2254.46,-1317.91 2245.81,-1285.73 2228,-1264 2168.94,-1191.97 2120.61,-1214.57 2049,-1155 2025.52,-1135.47 2002.69,-1109.08 1988.91,-1089.83"/>
<polygon fill="#ff7f7f" stroke="#ff7f7f" points="1991.78,-1087.83 1983.25,-1081.54 1986,-1091.78 1991.78,-1087.83"/>
</g>
<!-- Node0x55658c1d75b8 -->
<g id="node4" class="node">
<title>Node0x55658c1d75b8</title>
<polygon fill="#ff7f7f" stroke="black" points="2082.5,-96.5 2082.5,-132.5 2495.5,-132.5 2495.5,-96.5 2082.5,-96.5"/>
<text text-anchor="middle" x="2289" y="-110.8" font-family="Times,serif" font-size="14.00">tools/obj2yaml/CMakeFiles/obj2yaml.dir/elf2yaml.cpp.o</text>
</g>
<!-- Node0x55658c1d5d08&#45;&gt;Node0x55658c1d75b8 -->
<g id="edge4" class="edge">
<title>Node0x55658c1d5d08&#45;&gt;Node0x55658c1d75b8</title>
<path fill="none" stroke="#ff7f7f" d="M2369.1,-1349.53C2536.64,-1340.86 2862.25,-1321.89 2911,-1301 3014.63,-1256.6 3030.58,-1194.42 3039,-1082 3056.63,-846.62 3068.73,-510.94 3009,-388 2943.42,-253.02 2890.06,-227.81 2752,-169 2707.25,-149.94 2603.54,-137.09 2505.58,-128.77"/>
<polygon fill="#ff7f7f" stroke="#ff7f7f" points="2505.77,-125.27 2495.51,-127.93 2505.19,-132.25 2505.77,-125.27"/>
</g>
<!-- Node0x55658c1d7a68 -->
<g id="node5" class="node">
<title>Node0x55658c1d7a68</title>
<polygon fill="#ff7f7f" stroke="black" points="1660,-826.5 1660,-862.5 2080,-862.5 2080,-826.5 1660,-826.5"/>
<text text-anchor="middle" x="1870" y="-840.8" font-family="Times,serif" font-size="14.00">tools/obj2yaml/CMakeFiles/obj2yaml.dir/coff2yaml.cpp.o</text>
</g>
<!-- Node0x55658c1d5d08&#45;&gt;Node0x55658c1d7a68 -->
<g id="edge6" class="edge">
<title>Node0x55658c1d5d08&#45;&gt;Node0x55658c1d7a68</title>
<path fill="none" stroke="#ff7f7f" d="M2311.71,-1337.43C2359.52,-1316.19 2431,-1274.71 2431,-1210.5 2431,-1210.5 2431,-1210.5 2431,-1135.5 2431,-961.9 2218.38,-892.18 2054.91,-864.2"/>
<polygon fill="#ff7f7f" stroke="#ff7f7f" points="2055.15,-860.7 2044.71,-862.5 2054,-867.6 2055.15,-860.7"/>
</g>
<!-- Node0x55658c1d8198 -->
<g id="node6" class="node">
<title>Node0x55658c1d8198</title>
<polygon fill="#ff7f7f" stroke="black" points="2664,-23.5 2664,-59.5 3100,-59.5 3100,-23.5 2664,-23.5"/>
<text text-anchor="middle" x="2882" y="-37.8" font-family="Times,serif" font-size="14.00">tools/obj2yaml/CMakeFiles/obj2yaml.dir/dwarf2yaml.cpp.o</text>
</g>
<!-- Node0x55658c1d5d08&#45;&gt;Node0x55658c1d8198 -->
<g id="edge7" class="edge">
<title>Node0x55658c1d5d08&#45;&gt;Node0x55658c1d8198</title>
<path fill="none" stroke="#ff7f7f" d="M2369.32,-1354.25C2536.62,-1352.61 2866.88,-1343.86 2974,-1301 3080.6,-1258.35 3174,-1252.31 3174,-1137.5 3174,-1137.5 3174,-1137.5 3174,-186.5 3174,-116.46 3105.58,-80.48 3034.98,-62.01"/>
<polygon fill="#ff7f7f" stroke="#ff7f7f" points="3035.56,-58.54 3025.01,-59.51 3033.86,-65.33 3035.56,-58.54"/>
</g>
<!-- Node0x55658c1db618 -->
<g id="node7" class="node">
<title>Node0x55658c1db618</title>
<polygon fill="#ff7f7f" stroke="black" points="239.5,-169.5 239.5,-205.5 680.5,-205.5 680.5,-169.5 239.5,-169.5"/>
<text text-anchor="middle" x="460" y="-183.8" font-family="Times,serif" font-size="14.00">tools/obj2yaml/CMakeFiles/obj2yaml.dir/macho2yaml.cpp.o</text>
</g>
<!-- Node0x55658c1d5d08&#45;&gt;Node0x55658c1db618 -->
<g id="edge8" class="edge">
<title>Node0x55658c1d5d08&#45;&gt;Node0x55658c1db618</title>
<path fill="none" stroke="#ff7f7f" d="M2170.71,-1354.59C1752.94,-1354.68 155.51,-1351.75 62,-1301 19.15,-1277.74 0,-1259.26 0,-1210.5 0,-1210.5 0,-1210.5 0,-478.5 0,-354.97 43.75,-311.31 146,-242 168.3,-226.88 219.9,-215.4 274.96,-207.03"/>
<polygon fill="#ff7f7f" stroke="#ff7f7f" points="275.54,-210.48 284.92,-205.55 274.51,-203.56 275.54,-210.48"/>
</g>
<!-- Node0x55658c1d57b8 -->
<g id="node8" class="node">
<title>Node0x55658c1d57b8</title>
<polygon fill="#ff7f7f" stroke="black" points="1874,-753.5 1874,-789.5 2128,-789.5 2128,-753.5 1874,-753.5"/>
<text text-anchor="middle" x="2001" y="-767.8" font-family="Times,serif" font-size="14.00">lib/libLLVMDebugInfoCodeView.a</text>
</g>
<!-- Node0x55658c1d5d08&#45;&gt;Node0x55658c1d57b8 -->
<g id="edge9" class="edge">
<title>Node0x55658c1d5d08&#45;&gt;Node0x55658c1d57b8</title>
<path fill="none" stroke="#ff7f7f" d="M2363.32,-1337.5C2474.72,-1315.14 2646,-1271.43 2646,-1210.5 2646,-1210.5 2646,-1210.5 2646,-1062.5 2646,-840.73 2327.84,-787.24 2138.4,-775.17"/>
<polygon fill="#ff7f7f" stroke="#ff7f7f" points="2138.55,-771.68 2128.36,-774.57 2138.13,-778.66 2138.55,-771.68"/>
</g>
<!-- Node0x55658c1d53a8 -->
<g id="node9" class="node">
<title>Node0x55658c1d53a8</title>
<polygon fill="#ff7f7f" stroke="black" points="2205.5,-680.5 2205.5,-716.5 2442.5,-716.5 2442.5,-680.5 2205.5,-680.5"/>
<text text-anchor="middle" x="2324" y="-694.8" font-family="Times,serif" font-size="14.00">lib/libLLVMDebugInfoDWARF.a</text>
</g>
<!-- Node0x55658c1d5d08&#45;&gt;Node0x55658c1d53a8 -->
<g id="edge10" class="edge">
<title>Node0x55658c1d5d08&#45;&gt;Node0x55658c1d53a8</title>
<path fill="none" stroke="#ff7f7f" d="M2369.27,-1351.79C2544.42,-1344.29 2890,-1316.1 2890,-1210.5 2890,-1210.5 2890,-1210.5 2890,-1062.5 2890,-987.47 2896.17,-956.52 2848,-899 2749.38,-781.22 2573.22,-732.84 2452.6,-713.05"/>
<polygon fill="#ff7f7f" stroke="#ff7f7f" points="2452.98,-709.57 2442.56,-711.45 2451.88,-716.48 2452.98,-709.57"/>
</g>
<!-- Node0x55658c1d61b8 -->
<g id="node10" class="node">
<title>Node0x55658c1d61b8</title>
<polygon fill="#ff7f7f" stroke="black" points="1060.5,-1191.5 1060.5,-1227.5 1217.5,-1227.5 1217.5,-1191.5 1060.5,-1191.5"/>
<text text-anchor="middle" x="1139" y="-1205.8" font-family="Times,serif" font-size="14.00">lib/libLLVMObject.a</text>
</g>
<!-- Node0x55658c1d5d08&#45;&gt;Node0x55658c1d61b8 -->
<g id="edge11" class="edge">
<title>Node0x55658c1d5d08&#45;&gt;Node0x55658c1d61b8</title>
<path fill="none" stroke="#ff7f7f" d="M2170.89,-1351.34C2041.63,-1346.02 1823.35,-1332.58 1750,-1301 1726.84,-1291.03 1730.2,-1273.87 1707,-1264 1622.97,-1228.25 1365.33,-1216.25 1227.75,-1212.33"/>
<polygon fill="#ff7f7f" stroke="#ff7f7f" points="1227.75,-1208.82 1217.65,-1212.05 1227.55,-1215.82 1227.75,-1208.82"/>
</g>
<!-- Node0x55658c1d4908 -->
<g id="node11" class="node">
<title>Node0x55658c1d4908</title>
<polygon fill="#ff7f7f" stroke="black" points="544.5,-388.5 544.5,-424.5 753.5,-424.5 753.5,-388.5 544.5,-388.5"/>
<text text-anchor="middle" x="649" y="-402.8" font-family="Times,serif" font-size="14.00">lib/libLLVMBinaryFormat.a</text>
</g>
<!-- Node0x55658c1d5d08&#45;&gt;Node0x55658c1d4908 -->
<g id="edge12" class="edge">
<title>Node0x55658c1d5d08&#45;&gt;Node0x55658c1d4908</title>
<path fill="none" stroke="#ff7f7f" d="M2170.7,-1353.93C1793.68,-1351.49 462.75,-1340.16 277,-1301 173.14,-1279.11 56,-1316.64 56,-1210.5 56,-1210.5 56,-1210.5 56,-989.5 56,-725.86 240.98,-711.41 436,-534 471.85,-501.39 475.92,-486.71 517,-461 538.09,-447.8 563,-436.71 585.46,-428.11"/>
<polygon fill="#ff7f7f" stroke="#ff7f7f" points="586.77,-431.36 594.92,-424.58 584.32,-424.8 586.77,-431.36"/>
</g>
<!-- Node0x55658c1d99f8 -->
<g id="node12" class="node">
<title>Node0x55658c1d99f8</title>
<polygon fill="#ff7f7f" stroke="black" points="1759,-1264.5 1759,-1300.5 2195,-1300.5 2195,-1264.5 1759,-1264.5"/>
<text text-anchor="middle" x="1977" y="-1278.8" font-family="Times,serif" font-size="14.00">tools/obj2yaml/CMakeFiles/obj2yaml.dir/wasm2yaml.cpp.o</text>
</g>
<!-- Node0x55658c1d5d08&#45;&gt;Node0x55658c1d99f8 -->
<g id="edge13" class="edge">
<title>Node0x55658c1d5d08&#45;&gt;Node0x55658c1d99f8</title>
<path fill="none" stroke="#ff7f7f" d="M2193.96,-1337.49C2150.14,-1327.14 2095.32,-1313.88 2051.73,-1303.09"/>
<polygon fill="#ff7f7f" stroke="#ff7f7f" points="2052.3,-1299.62 2041.75,-1300.61 2050.62,-1306.42 2052.3,-1299.62"/>
</g>
<!-- Node0x55658c1d6bb8&#45;&gt;Node0x55658c1d9368 -->
<g id="edge22" class="edge">
<title>Node0x55658c1d6bb8&#45;&gt;Node0x55658c1d9368</title>
<path fill="none" stroke="#ff7f7f" d="M1949.14,-1081.62C1899.74,-1110.76 1799.01,-1175.57 1759,-1264 1727.49,-1333.64 1824.85,-1381.84 1894.37,-1407.03"/>
<polygon fill="#ff7f7f" stroke="#ff7f7f" points="1893.39,-1410.4 1903.98,-1410.44 1895.72,-1403.8 1893.39,-1410.4"/>
</g>
<!-- Node0x55658c1d6bb8&#45;&gt;Node0x55658c1d5d08 -->
<g id="edge18" class="edge">
<title>Node0x55658c1d6bb8&#45;&gt;Node0x55658c1d5d08</title>
<path fill="none" stroke="#ff7f7f" d="M1996.25,-1081.54C2013.71,-1100.83 2039.93,-1132.48 2067,-1155 2138.61,-1214.57 2186.94,-1191.97 2246,-1264 2261.03,-1282.33 2269.53,-1308.11 2272.6,-1327.47"/>
<polygon fill="#ff7f7f" stroke="#ff7f7f" points="2269.13,-1327.94 2273.75,-1337.47 2276.09,-1327.14 2269.13,-1327.94"/>
</g>
<!-- Node0x55658c1d6bb8&#45;&gt;Node0x55658c1d75b8 -->
<g id="edge15" class="edge">
<title>Node0x55658c1d6bb8&#45;&gt;Node0x55658c1d75b8</title>
<path fill="none" stroke="#ff7f7f" d="M2061.2,-1052.26C2125.38,-1043.75 2215.51,-1029.67 2293,-1009 2382.41,-985.15 2405.85,-978.61 2488,-936 2733.61,-808.61 2817,-684.18 2817,-407.5 2817,-407.5 2817,-407.5 2817,-259.5 2817,-189.56 2644.91,-152.66 2497.2,-133.8"/>
<polygon fill="#ff7f7f" stroke="#ff7f7f" points="2497.42,-130.3 2487.06,-132.53 2496.55,-137.25 2497.42,-130.3"/>
</g>
<!-- Node0x55658c1d6bb8&#45;&gt;Node0x55658c1d7a68 -->
<g id="edge16" class="edge">
<title>Node0x55658c1d6bb8&#45;&gt;Node0x55658c1d7a68</title>
<path fill="none" stroke="#ff7f7f" d="M1973.47,-1045.28C1975.02,-1025.83 1983.83,-994.03 2001,-972 2018.5,-949.54 2040.67,-961.16 2054,-936 2061.7,-921.47 2063.95,-912.09 2054,-899 2043.23,-884.83 2010.2,-873.44 1975.03,-864.87"/>
<polygon fill="#ff7f7f" stroke="#ff7f7f" points="1975.6,-861.41 1965.06,-862.53 1974,-868.22 1975.6,-861.41"/>
</g>
<!-- Node0x55658c1d6bb8&#45;&gt;Node0x55658c1d8198 -->
<g id="edge23" class="edge">
<title>Node0x55658c1d6bb8&#45;&gt;Node0x55658c1d8198</title>
<path fill="none" stroke="#ff7f7f" d="M2061.06,-1053.04C2303.42,-1025.31 2986,-940.2 2986,-845.5 2986,-845.5 2986,-845.5 2986,-186.5 2986,-135.16 2940.99,-91.27 2910.05,-65.87"/>
<polygon fill="#ff7f7f" stroke="#ff7f7f" points="2912.12,-63.05 2902.13,-59.51 2907.74,-68.5 2912.12,-63.05"/>
</g>
<!-- Node0x55658c1d6bb8&#45;&gt;Node0x55658c1db618 -->
<g id="edge20" class="edge">
<title>Node0x55658c1d6bb8&#45;&gt;Node0x55658c1db618</title>
<path fill="none" stroke="#ff7f7f" d="M1892.89,-1061.25C1598.3,-1056.53 628.17,-1038.56 569,-1009 351.04,-900.13 264,-797.14 264,-553.5 264,-553.5 264,-553.5 264,-332.5 264,-269.65 331.12,-230.42 386.88,-209.07"/>
<polygon fill="#ff7f7f" stroke="#ff7f7f" points="388.26,-212.29 396.42,-205.54 385.83,-205.73 388.26,-212.29"/>
</g>
<!-- Node0x55658c1d6bb8&#45;&gt;Node0x55658c1d57b8 -->
<g id="edge17" class="edge">
<title>Node0x55658c1d6bb8&#45;&gt;Node0x55658c1d57b8</title>
<path fill="none" stroke="#ff7f7f" d="M1989.41,-1045.47C2015,-1017.32 2070.28,-961.65 2080,-936 2097.33,-890.29 2103.96,-868.61 2080,-826 2072.59,-812.83 2060.49,-802.53 2047.92,-794.63"/>
<polygon fill="#ff7f7f" stroke="#ff7f7f" points="2049.6,-791.56 2039.19,-789.54 2046.07,-797.6 2049.6,-791.56"/>
</g>
<!-- Node0x55658c1d6bb8&#45;&gt;Node0x55658c1d53a8 -->
<g id="edge21" class="edge">
<title>Node0x55658c1d6bb8&#45;&gt;Node0x55658c1d53a8</title>
<path fill="none" stroke="#ff7f7f" d="M2003.28,-1045.4C2019.65,-1035.92 2040.44,-1023.2 2057,-1009 2162.88,-918.26 2260.3,-781.18 2302.49,-724.94"/>
<polygon fill="#ff7f7f" stroke="#ff7f7f" points="2305.53,-726.71 2308.78,-716.63 2299.95,-722.49 2305.53,-726.71"/>
</g>
<!-- Node0x55658c1d6bb8&#45;&gt;Node0x55658c1d61b8 -->
<g id="edge14" class="edge">
<title>Node0x55658c1d6bb8&#45;&gt;Node0x55658c1d61b8</title>
<path fill="none" stroke="#ff7f7f" d="M1933.63,-1081.58C1903.42,-1092.08 1862.38,-1105.8 1826,-1118 1777.1,-1134.4 1766.46,-1144.29 1716,-1155 1546.01,-1191.09 1342.22,-1202.84 1227.92,-1206.66"/>
<polygon fill="#ff7f7f" stroke="#ff7f7f" points="1227.7,-1203.17 1217.82,-1206.99 1227.93,-1210.16 1227.7,-1203.17"/>
</g>
<!-- Node0x55658c1d86e8 -->
<g id="node13" class="node">
<title>Node0x55658c1d86e8</title>
<polygon fill="#ff7f7f" stroke="black" points="630,-972.5 630,-1008.5 1046,-1008.5 1046,-972.5 630,-972.5"/>
<text text-anchor="middle" x="838" y="-986.8" font-family="Times,serif" font-size="14.00">tools/obj2yaml/CMakeFiles/obj2yaml.dir/obj2yaml.cpp.o</text>
</g>
<!-- Node0x55658c1d6bb8&#45;&gt;Node0x55658c1d86e8 -->
<g id="edge19" class="edge">
<title>Node0x55658c1d6bb8&#45;&gt;Node0x55658c1d86e8</title>
<path fill="none" stroke="#ff7f7f" d="M1892.78,-1057.48C1717.83,-1046.78 1310.43,-1021.43 1056.22,-1005.45"/>
<polygon fill="#ff7f7f" stroke="#ff7f7f" points="1056.31,-1001.94 1046.11,-1004.81 1055.87,-1008.93 1056.31,-1001.94"/>
</g>
<!-- Node0x55658c1d75b8&#45;&gt;Node0x55658c1d5d08 -->
<g id="edge42" class="edge">
<title>Node0x55658c1d75b8&#45;&gt;Node0x55658c1d5d08</title>
<path fill="none" stroke="#ff7f7f" d="M2495.52,-126.67C2602.75,-134.86 2721.3,-148.26 2770,-169 2908.06,-227.81 2961.42,-253.02 3027,-388 3086.73,-510.94 3074.63,-846.62 3057,-1082 3048.58,-1194.42 3032.63,-1256.6 2929,-1301 2880.18,-1321.92 2553.73,-1340.91 2379.31,-1349.57"/>
<polygon fill="#ff7f7f" stroke="#ff7f7f" points="2378.89,-1346.08 2369.07,-1350.07 2379.23,-1353.07 2378.89,-1346.08"/>
</g>
<!-- Node0x55658c1d75b8&#45;&gt;Node0x55658c1d6bb8 -->
<g id="edge43" class="edge">
<title>Node0x55658c1d75b8&#45;&gt;Node0x55658c1d6bb8</title>
<path fill="none" stroke="#ff7f7f" d="M2495.76,-131.84C2650.33,-150.05 2835,-187.05 2835,-259.5 2835,-407.5 2835,-407.5 2835,-407.5 2835,-684.18 2751.61,-808.61 2506,-936 2423.85,-978.61 2400.41,-985.15 2311,-1009 2231.64,-1030.17 2139.03,-1044.42 2071.43,-1052.86"/>
<polygon fill="#ff7f7f" stroke="#ff7f7f" points="2070.72,-1049.42 2061.22,-1054.11 2071.57,-1056.37 2070.72,-1049.42"/>
</g>
<!-- Node0x55658c1d75b8&#45;&gt;Node0x55658c1d7a68 -->
<g id="edge38" class="edge">
<title>Node0x55658c1d75b8&#45;&gt;Node0x55658c1d7a68</title>
<path fill="none" stroke="#ff7f7f" d="M2403.5,-132.53C2525.72,-154.01 2702,-196 2702,-259.5 2702,-553.5 2702,-553.5 2702,-553.5 2702,-742.71 2527.91,-731.4 2348,-790 2266.08,-816.68 2172.54,-830.55 2090.06,-837.59"/>
<polygon fill="#ff7f7f" stroke="#ff7f7f" points="2089.74,-834.11 2080.06,-838.42 2090.31,-841.09 2089.74,-834.11"/>
</g>
<!-- Node0x55658c1d75b8&#45;&gt;Node0x55658c1d8198 -->
<g id="edge39" class="edge">
<title>Node0x55658c1d75b8&#45;&gt;Node0x55658c1d8198</title>
<path fill="none" stroke="#ff7f7f" d="M2431.04,-96.49C2521.21,-85.7 2637.82,-71.74 2729.88,-60.71"/>
<polygon fill="#ff7f7f" stroke="#ff7f7f" points="2730.32,-64.19 2739.84,-59.52 2729.49,-57.23 2730.32,-64.19"/>
</g>
<!-- Node0x55658c1d75b8&#45;&gt;Node0x55658c1d53a8 -->
<g id="edge40" class="edge">
<title>Node0x55658c1d75b8&#45;&gt;Node0x55658c1d53a8</title>
<path fill="none" stroke="#ff7f7f" d="M2308.29,-132.55C2330.51,-158.43 2363,-209.85 2363,-259.5 2363,-334.5 2363,-334.5 2363,-334.5 2363,-460.37 2344.86,-609.96 2332.56,-670.29"/>
<polygon fill="#ff7f7f" stroke="#ff7f7f" points="2329.12,-669.65 2330.42,-680.16 2335.96,-671.13 2329.12,-669.65"/>
</g>
<!-- Node0x55658c1d75b8&#45;&gt;Node0x55658c1d61b8 -->
<g id="edge41" class="edge">
<title>Node0x55658c1d75b8&#45;&gt;Node0x55658c1d61b8</title>
<path fill="none" stroke="#ff7f7f" d="M2082.17,-119.14C1739.18,-125.82 1080.06,-141.9 976,-169 968.3,-171.01 432,-292.51 432,-551.5 432,-845.5 432,-845.5 432,-845.5 432,-965.02 471.5,-1001.67 560,-1082 723.92,-1230.77 826.87,-1159.62 1046,-1191 1047.47,-1191.21 1048.96,-1191.43 1050.45,-1191.65"/>
<polygon fill="#ff7f7f" stroke="#ff7f7f" points="1050,-1195.12 1060.41,-1193.15 1051.04,-1188.2 1050,-1195.12"/>
</g>
<!-- Node0x55658c1d7a68&#45;&gt;Node0x55658c1d5d08 -->
<g id="edge36" class="edge">
<title>Node0x55658c1d7a68&#45;&gt;Node0x55658c1d5d08</title>
<path fill="none" stroke="#ff7f7f" d="M2058.34,-862.5C2227.39,-889.31 2449,-958.27 2449,-1135.5 2449,-1210.5 2449,-1210.5 2449,-1210.5 2449,-1270.95 2385.65,-1311.25 2334.25,-1333.49"/>
<polygon fill="#ff7f7f" stroke="#ff7f7f" points="2332.69,-1330.35 2324.81,-1337.43 2335.38,-1336.8 2332.69,-1330.35"/>
</g>
<!-- Node0x55658c1d7a68&#45;&gt;Node0x55658c1d6bb8 -->
<g id="edge37" class="edge">
<title>Node0x55658c1d7a68&#45;&gt;Node0x55658c1d6bb8</title>
<path fill="none" stroke="#ff7f7f" d="M1981.56,-862.53C2021.8,-871.32 2060.21,-883.5 2072,-899 2081.95,-912.09 2079.7,-921.47 2072,-936 2058.67,-961.16 2036.5,-949.54 2019,-972 2004.45,-990.67 1995.9,-1016.37 1989.64,-1035.61"/>
<polygon fill="#ff7f7f" stroke="#ff7f7f" points="1986.26,-1034.69 1986.47,-1045.28 1992.91,-1036.87 1986.26,-1034.69"/>
</g>
<!-- Node0x55658c1d7a68&#45;&gt;Node0x55658c1d57b8 -->
<g id="edge34" class="edge">
<title>Node0x55658c1d7a68&#45;&gt;Node0x55658c1d57b8</title>
<path fill="none" stroke="#ff7f7f" d="M1895.52,-826.49C1912.35,-816.82 1934.75,-804.6 1954.63,-794.23"/>
<polygon fill="#ff7f7f" stroke="#ff7f7f" points="1956.28,-797.32 1963.55,-789.61 1953.06,-791.1 1956.28,-797.32"/>
</g>
<!-- Node0x55658c1d7a68&#45;&gt;Node0x55658c1d61b8 -->
<g id="edge35" class="edge">
<title>Node0x55658c1d7a68&#45;&gt;Node0x55658c1d61b8</title>
<path fill="none" stroke="#ff7f7f" d="M1659.83,-851.77C1416.93,-859.95 1047.59,-876.01 1026,-899 1014.74,-910.99 1016.81,-922.37 1026,-936 1049.85,-971.38 1088.75,-938.36 1115,-972 1163.36,-1033.99 1158.18,-1133.93 1148.58,-1181.57"/>
<polygon fill="#ff7f7f" stroke="#ff7f7f" points="1145.14,-1180.92 1146.35,-1191.44 1151.97,-1182.46 1145.14,-1180.92"/>
</g>
<!-- Node0x55658c1d8198&#45;&gt;Node0x55658c1d6bb8 -->
<g id="edge87" class="edge">
<title>Node0x55658c1d8198&#45;&gt;Node0x55658c1d6bb8</title>
<path fill="none" stroke="#ff7f7f" d="M2914.28,-59.51C2950.59,-83.48 3004,-130.57 3004,-186.5 3004,-845.5 3004,-845.5 3004,-845.5 3004,-939.96 2324.95,-1024.87 2071.15,-1052.82"/>
<polygon fill="#ff7f7f" stroke="#ff7f7f" points="2070.76,-1049.34 2061.2,-1053.91 2071.53,-1056.3 2070.76,-1049.34"/>
</g>
<!-- Node0x55658c1d8198&#45;&gt;Node0x55658c1d7a68 -->
<g id="edge85" class="edge">
<title>Node0x55658c1d8198&#45;&gt;Node0x55658c1d7a68</title>
<path fill="none" stroke="#ff7f7f" d="M2663.95,-46.82C2140.9,-58.63 858,-96.75 858,-186.5 858,-480.5 858,-480.5 858,-480.5 858,-631.71 1319.61,-745.08 1464,-790 1523,-808.35 1588.74,-820.41 1649.83,-828.33"/>
<polygon fill="#ff7f7f" stroke="#ff7f7f" points="1649.63,-831.84 1659.99,-829.62 1650.51,-824.89 1649.63,-831.84"/>
</g>
<!-- Node0x55658c1d8198&#45;&gt;Node0x55658c1d53a8 -->
<g id="edge86" class="edge">
<title>Node0x55658c1d8198&#45;&gt;Node0x55658c1d53a8</title>
<path fill="none" stroke="#ff7f7f" d="M2887.71,-59.79C2891,-86.82 2891,-140.75 2891,-186.5 2891,-407.5 2891,-407.5 2891,-407.5 2891,-602.22 2620.15,-666.38 2452.81,-687.39"/>
<polygon fill="#ff7f7f" stroke="#ff7f7f" points="2452.19,-683.94 2442.69,-688.62 2453.04,-690.89 2452.19,-683.94"/>
</g>
<!-- Node0x55658c1db618&#45;&gt;Node0x55658c1d5d08 -->
<g id="edge49" class="edge">
<title>Node0x55658c1db618&#45;&gt;Node0x55658c1d5d08</title>
<path fill="none" stroke="#ff7f7f" d="M301.63,-205.55C244.2,-214.04 187.64,-225.98 164,-242 61.75,-311.31 18,-354.97 18,-478.5 18,-1210.5 18,-1210.5 18,-1210.5 18,-1259.26 37.15,-1277.74 80,-1301 172.31,-1351.1 1730.34,-1354.6 2160.69,-1354.6"/>
<polygon fill="#ff7f7f" stroke="#ff7f7f" points="2160.95,-1358.1 2170.95,-1354.59 2160.95,-1351.1 2160.95,-1358.1"/>
</g>
<!-- Node0x55658c1db618&#45;&gt;Node0x55658c1d6bb8 -->
<g id="edge50" class="edge">
<title>Node0x55658c1db618&#45;&gt;Node0x55658c1d6bb8</title>
<path fill="none" stroke="#ff7f7f" d="M409.6,-205.64C356.88,-226.09 282,-266.12 282,-332.5 282,-553.5 282,-553.5 282,-553.5 282,-797.14 369.04,-900.13 587,-1009 645.03,-1037.99 1579.42,-1055.84 1882.76,-1060.96"/>
<polygon fill="#ff7f7f" stroke="#ff7f7f" points="1882.79,-1064.46 1892.85,-1061.13 1882.91,-1057.47 1882.79,-1064.46"/>
</g>
<!-- Node0x55658c1db618&#45;&gt;Node0x55658c1d75b8 -->
<g id="edge46" class="edge">
<title>Node0x55658c1db618&#45;&gt;Node0x55658c1d75b8</title>
<path fill="none" stroke="#ff7f7f" d="M680.88,-172.21C701.53,-171.05 722.16,-169.96 742,-169 1216.42,-146.08 1773.14,-129.31 2072.39,-121.12"/>
<polygon fill="#ff7f7f" stroke="#ff7f7f" points="2072.59,-124.61 2082.49,-120.84 2072.39,-117.62 2072.59,-124.61"/>
</g>
<!-- Node0x55658c1db618&#45;&gt;Node0x55658c1d7a68 -->
<g id="edge44" class="edge">
<title>Node0x55658c1db618&#45;&gt;Node0x55658c1d7a68</title>
<path fill="none" stroke="#ff7f7f" d="M499.44,-205.58C562.54,-234.67 686.74,-299.4 762,-388 819.7,-455.93 794.38,-496.96 844,-571 918.74,-682.51 930.45,-733.04 1052,-790 1078.81,-802.57 1416.62,-821.41 1649.64,-833.06"/>
<polygon fill="#ff7f7f" stroke="#ff7f7f" points="1649.8,-836.57 1659.96,-833.57 1650.15,-829.58 1649.8,-836.57"/>
</g>
<!-- Node0x55658c1db618&#45;&gt;Node0x55658c1d8198 -->
<g id="edge45" class="edge">
<title>Node0x55658c1db618&#45;&gt;Node0x55658c1d8198</title>
<path fill="none" stroke="#ff7f7f" d="M515.94,-169.49C590.11,-147.83 725.47,-111.36 844,-96 1187.65,-51.47 2197.87,-43.76 2653.95,-42.6"/>
<polygon fill="#ff7f7f" stroke="#ff7f7f" points="2653.97,-46.1 2663.96,-42.57 2653.95,-39.1 2653.97,-46.1"/>
</g>
<!-- Node0x55658c1db618&#45;&gt;Node0x55658c1d53a8 -->
<g id="edge47" class="edge">
<title>Node0x55658c1db618&#45;&gt;Node0x55658c1d53a8</title>
<path fill="none" stroke="#ff7f7f" d="M680.62,-190.21C894.44,-194.1 1227.56,-206.06 1514,-242 1715.99,-267.34 1963,-128.93 1963,-332.5 1963,-480.5 1963,-480.5 1963,-480.5 1963,-597.5 2104.02,-653.02 2209.79,-678.2"/>
<polygon fill="#ff7f7f" stroke="#ff7f7f" points="2209.05,-681.62 2219.58,-680.47 2210.63,-674.8 2209.05,-681.62"/>
</g>
<!-- Node0x55658c1db618&#45;&gt;Node0x55658c1d61b8 -->
<g id="edge48" class="edge">
<title>Node0x55658c1db618&#45;&gt;Node0x55658c1d61b8</title>
<path fill="none" stroke="#ff7f7f" d="M293.64,-205.5C220.09,-223.39 150,-259.58 150,-332.5 150,-918.5 150,-918.5 150,-918.5 150,-1063.89 244.38,-1093.25 376,-1155 435.98,-1183.14 861.83,-1199.68 1050.03,-1205.79"/>
<polygon fill="#ff7f7f" stroke="#ff7f7f" points="1050.07,-1209.29 1060.18,-1206.11 1050.29,-1202.29 1050.07,-1209.29"/>
</g>
<!-- Node0x55658c1d57b8&#45;&gt;Node0x55658c1d5d08 -->
<g id="edge80" class="edge">
<title>Node0x55658c1d57b8&#45;&gt;Node0x55658c1d5d08</title>
<path fill="none" stroke="#ff7f7f" d="M2128.06,-773.95C2320.61,-783.33 2664,-832.1 2664,-1062.5 2664,-1210.5 2664,-1210.5 2664,-1210.5 2664,-1270.87 2495.83,-1314.34 2379.18,-1336.88"/>
<polygon fill="#ff7f7f" stroke="#ff7f7f" points="2378.29,-1333.49 2369.12,-1338.8 2379.6,-1340.37 2378.29,-1333.49"/>
</g>
<!-- Node0x55658c1d57b8&#45;&gt;Node0x55658c1d6bb8 -->
<g id="edge78" class="edge">
<title>Node0x55658c1d57b8&#45;&gt;Node0x55658c1d6bb8</title>
<path fill="none" stroke="#ff7f7f" d="M2055.99,-789.54C2072.65,-797.92 2088.89,-809.79 2098,-826 2121.96,-868.61 2115.33,-890.29 2098,-936 2089,-959.74 2040.95,-1009.22 2008,-1038.77"/>
<polygon fill="#ff7f7f" stroke="#ff7f7f" points="2005.59,-1036.24 2000.4,-1045.47 2010.21,-1041.49 2005.59,-1036.24"/>
</g>
<!-- Node0x55658c1d57b8&#45;&gt;Node0x55658c1d75b8 -->
<g id="edge81" class="edge">
<title>Node0x55658c1d57b8&#45;&gt;Node0x55658c1d75b8</title>
<path fill="none" stroke="#ff7f7f" d="M2016.83,-753.08C2069.99,-693.01 2240.71,-486.72 2275,-279 2282.84,-231.52 2286.43,-175.52 2287.96,-142.91"/>
<polygon fill="#ff7f7f" stroke="#ff7f7f" points="2291.46,-142.94 2288.41,-132.79 2284.47,-142.63 2291.46,-142.94"/>
</g>
<!-- Node0x55658c1d57b8&#45;&gt;Node0x55658c1d7a68 -->
<g id="edge77" class="edge">
<title>Node0x55658c1d57b8&#45;&gt;Node0x55658c1d7a68</title>
<path fill="none" stroke="#ff7f7f" d="M1975.29,-789.61C1958.43,-799.31 1936.01,-811.53 1916.15,-821.88"/>
<polygon fill="#ff7f7f" stroke="#ff7f7f" points="1914.51,-818.79 1907.24,-826.49 1917.73,-825.01 1914.51,-818.79"/>
</g>
<!-- Node0x55658c1d57b8&#45;&gt;Node0x55658c1db618 -->
<g id="edge82" class="edge">
<title>Node0x55658c1d57b8&#45;&gt;Node0x55658c1db618</title>
<path fill="none" stroke="#ff7f7f" d="M1978.27,-753.36C1964.88,-743.08 1947.73,-729.6 1933,-717 1842.19,-639.32 1839.59,-593.58 1736,-534 1376.11,-327.02 887.7,-240.04 632.11,-206.82"/>
<polygon fill="#ff7f7f" stroke="#ff7f7f" points="632.35,-203.32 621.99,-205.52 631.46,-210.26 632.35,-203.32"/>
</g>
<!-- Node0x55658c1d57b8&#45;&gt;Node0x55658c1d53a8 -->
<g id="edge84" class="edge">
<title>Node0x55658c1d57b8&#45;&gt;Node0x55658c1d53a8</title>
<path fill="none" stroke="#ff7f7f" d="M2072.51,-753.49C2119.07,-743.01 2180.26,-729.55 2230.64,-718.69"/>
<polygon fill="#ff7f7f" stroke="#ff7f7f" points="2231.52,-722.08 2240.56,-716.55 2230.05,-715.23 2231.52,-722.08"/>
</g>
<!-- Node0x55658c1d57b8&#45;&gt;Node0x55658c1d61b8 -->
<g id="edge83" class="edge">
<title>Node0x55658c1d57b8&#45;&gt;Node0x55658c1d61b8</title>
<path fill="none" stroke="#ff7f7f" d="M2072.28,-789.62C2090.59,-797.58 2108.15,-809.17 2119,-826 2181.76,-923.37 2161.13,-1010.48 2070,-1082 1940.27,-1183.82 1434.61,-1203.71 1227.85,-1207.58"/>
<polygon fill="#ff7f7f" stroke="#ff7f7f" points="1227.57,-1204.08 1217.64,-1207.76 1227.7,-1211.08 1227.57,-1204.08"/>
</g>
<!-- Node0x55658c1d57b8&#45;&gt;Node0x55658c1d99f8 -->
<g id="edge79" class="edge">
<title>Node0x55658c1d57b8&#45;&gt;Node0x55658c1d99f8</title>
<path fill="none" stroke="#ff7f7f" d="M2081.15,-789.62C2188.36,-817.49 2362.6,-882.73 2340,-1009 2327.48,-1078.92 2327.16,-1106.78 2275,-1155 2215.43,-1210.07 2128.3,-1243.25 2063.62,-1261.73"/>
<polygon fill="#ff7f7f" stroke="#ff7f7f" points="2062.54,-1258.39 2053.85,-1264.46 2064.42,-1265.14 2062.54,-1258.39"/>
</g>
<!-- Node0x55658c1d53a8&#45;&gt;Node0x55658c1d9368 -->
<g id="edge88" class="edge">
<title>Node0x55658c1d53a8&#45;&gt;Node0x55658c1d9368</title>
<path fill="none" stroke="#ff7f7f" d="M2442.87,-706.81C2511.85,-713.71 2599.55,-727.08 2674,-753 2735.85,-774.53 2750.07,-786.09 2802,-826 2976.5,-960.12 3087.3,-1135.69 2942,-1301 2893.18,-1356.55 2466.95,-1394.5 2191.7,-1413.47"/>
<polygon fill="#ff7f7f" stroke="#ff7f7f" points="2191.3,-1409.98 2181.57,-1414.16 2191.78,-1416.97 2191.3,-1409.98"/>
</g>
<!-- Node0x55658c1d53a8&#45;&gt;Node0x55658c1d6bb8 -->
<g id="edge95" class="edge">
<title>Node0x55658c1d53a8&#45;&gt;Node0x55658c1d6bb8</title>
<path fill="none" stroke="#ff7f7f" d="M2316.84,-716.63C2288.7,-766.38 2186.54,-913.4 2075,-1009 2061.15,-1020.87 2044.36,-1031.71 2028.54,-1040.48"/>
<polygon fill="#ff7f7f" stroke="#ff7f7f" points="2026.53,-1037.59 2019.38,-1045.4 2029.84,-1043.76 2026.53,-1037.59"/>
</g>
<!-- Node0x55658c1d53a8&#45;&gt;Node0x55658c1d75b8 -->
<g id="edge91" class="edge">
<title>Node0x55658c1d53a8&#45;&gt;Node0x55658c1d75b8</title>
<path fill="none" stroke="#ff7f7f" d="M2322.49,-680.16C2324.62,-628.01 2345,-467.93 2345,-334.5 2345,-334.5 2345,-334.5 2345,-259.5 2345,-214.9 2318.77,-168.85 2301.94,-141.2"/>
<polygon fill="#ff7f7f" stroke="#ff7f7f" points="2304.86,-139.25 2296.65,-132.55 2298.89,-142.91 2304.86,-139.25"/>
</g>
<!-- Node0x55658c1d53a8&#45;&gt;Node0x55658c1d7a68 -->
<g id="edge89" class="edge">
<title>Node0x55658c1d53a8&#45;&gt;Node0x55658c1d7a68</title>
<path fill="none" stroke="#ff7f7f" d="M2290.06,-716.5C2240.51,-741.24 2152.56,-784.77 2137,-790 2092.63,-804.91 2042.64,-816.29 1998.02,-824.64"/>
<polygon fill="#ff7f7f" stroke="#ff7f7f" points="1997.19,-821.24 1987.99,-826.48 1998.46,-828.12 1997.19,-821.24"/>
</g>
<!-- Node0x55658c1d53a8&#45;&gt;Node0x55658c1d8198 -->
<g id="edge90" class="edge">
<title>Node0x55658c1d53a8&#45;&gt;Node0x55658c1d8198</title>
<path fill="none" stroke="#ff7f7f" d="M2442.54,-687.17C2603.99,-665.95 2873,-601.56 2873,-407.5 2873,-407.5 2873,-407.5 2873,-186.5 2873,-145.93 2873,-98.94 2875.29,-69.96"/>
<polygon fill="#ff7f7f" stroke="#ff7f7f" points="2878.8,-70.08 2876.29,-59.79 2871.83,-69.4 2878.8,-70.08"/>
</g>
<!-- Node0x55658c1d53a8&#45;&gt;Node0x55658c1d57b8 -->
<g id="edge92" class="edge">
<title>Node0x55658c1d53a8&#45;&gt;Node0x55658c1d57b8</title>
<path fill="none" stroke="#ff7f7f" d="M2252.29,-716.55C2205.68,-727.04 2144.49,-740.51 2094.14,-751.36"/>
<polygon fill="#ff7f7f" stroke="#ff7f7f" points="2093.27,-747.97 2084.23,-753.49 2094.74,-754.81 2093.27,-747.97"/>
</g>
<!-- Node0x55658c1d53a8&#45;&gt;Node0x55658c1d61b8 -->
<g id="edge94" class="edge">
<title>Node0x55658c1d53a8&#45;&gt;Node0x55658c1d61b8</title>
<path fill="none" stroke="#ff7f7f" d="M2369.53,-716.61C2386.05,-725.48 2403.39,-737.7 2415,-753 2445.19,-792.79 2446.8,-813.84 2438,-863 2412.15,-1007.42 2409.38,-1078.79 2284,-1155 2195.02,-1209.08 1481.32,-1210.36 1227.85,-1209.14"/>
<polygon fill="#ff7f7f" stroke="#ff7f7f" points="1227.6,-1205.64 1217.58,-1209.09 1227.56,-1212.64 1227.6,-1205.64"/>
</g>
<!-- Node0x55658c1d53a8&#45;&gt;Node0x55658c1d4908 -->
<g id="edge93" class="edge">
<title>Node0x55658c1d53a8&#45;&gt;Node0x55658c1d4908</title>
<path fill="none" stroke="#ff7f7f" d="M2205.43,-682.51C2149.95,-673.92 2083.39,-661.34 2025,-644 1904.72,-608.28 1883.59,-574.97 1765,-534 1647.91,-493.55 1618.22,-481.23 1496,-461 1236.69,-418.08 927.48,-409 763.84,-407.44"/>
<polygon fill="#ff7f7f" stroke="#ff7f7f" points="763.78,-403.93 753.75,-407.35 763.72,-410.93 763.78,-403.93"/>
</g>
<!-- Node0x55658c1d53a8&#45;&gt;Node0x55658c1d99f8 -->
<g id="edge97" class="edge">
<title>Node0x55658c1d53a8&#45;&gt;Node0x55658c1d99f8</title>
<path fill="none" stroke="#ff7f7f" d="M2383.69,-716.58C2484.28,-748.79 2671.45,-825.33 2616,-936 2513.94,-1139.7 2237.7,-1227.96 2083.94,-1262.27"/>
<polygon fill="#ff7f7f" stroke="#ff7f7f" points="2083.01,-1258.89 2074,-1264.45 2084.51,-1265.73 2083.01,-1258.89"/>
</g>
<!-- Node0x55658c1d53a8&#45;&gt;Node0x55658c1d86e8 -->
<g id="edge98" class="edge">
<title>Node0x55658c1d53a8&#45;&gt;Node0x55658c1d86e8</title>
<path fill="none" stroke="#ff7f7f" d="M2205.45,-712.1C2112.68,-722.26 1980.48,-737.37 1865,-753 1759.5,-767.28 1011.44,-847.96 918,-899 890.3,-914.13 867.52,-942.75 853.45,-963.77"/>
<polygon fill="#ff7f7f" stroke="#ff7f7f" points="850.46,-961.95 847.96,-972.25 856.33,-965.75 850.46,-961.95"/>
</g>
<!-- Node0x55658c1de638 -->
<g id="node16" class="node">
<title>Node0x55658c1de638</title>
<polygon fill="#ff7f7f" stroke="black" points="1603.5,-607.5 1603.5,-643.5 1738.5,-643.5 1738.5,-607.5 1603.5,-607.5"/>
<text text-anchor="middle" x="1671" y="-621.8" font-family="Times,serif" font-size="14.00">lib/libLLVMMC.a</text>
</g>
<!-- Node0x55658c1d53a8&#45;&gt;Node0x55658c1de638 -->
<g id="edge96" class="edge">
<title>Node0x55658c1d53a8&#45;&gt;Node0x55658c1de638</title>
<path fill="none" stroke="#ff7f7f" d="M2205.37,-685.17C2072.74,-670.99 1861.84,-648.04 1748.7,-635.46"/>
<polygon fill="#ff7f7f" stroke="#ff7f7f" points="1749.05,-631.97 1738.72,-634.34 1748.28,-638.93 1749.05,-631.97"/>
</g>
<!-- Node0x55658c1d61b8&#45;&gt;Node0x55658c1d6bb8 -->
<g id="edge65" class="edge">
<title>Node0x55658c1d61b8&#45;&gt;Node0x55658c1d6bb8</title>
<path fill="none" stroke="#ff7f7f" d="M1217.96,-1206.58C1327.02,-1202.68 1529.17,-1190.84 1698,-1155 1748.46,-1144.29 1759.1,-1134.4 1808,-1118 1840.83,-1106.99 1877.45,-1094.74 1908.25,-1084.75"/>
<polygon fill="#ff7f7f" stroke="#ff7f7f" points="1909.6,-1087.99 1918.04,-1081.58 1907.45,-1081.33 1909.6,-1087.99"/>
</g>
<!-- Node0x55658c1d61b8&#45;&gt;Node0x55658c1d75b8 -->
<g id="edge67" class="edge">
<title>Node0x55658c1d61b8&#45;&gt;Node0x55658c1d75b8</title>
<path fill="none" stroke="#ff7f7f" d="M1060.23,-1195.98C1049.38,-1194.21 1038.4,-1192.49 1028,-1191 808.87,-1159.62 705.92,-1230.77 542,-1082 453.5,-1001.67 414,-965.02 414,-845.5 414,-845.5 414,-845.5 414,-551.5 414,-292.51 950.3,-171.01 958,-169 1062.17,-141.87 1722.57,-125.78 2072.32,-119.12"/>
<polygon fill="#ff7f7f" stroke="#ff7f7f" points="2072.39,-122.62 2082.32,-118.93 2072.26,-115.62 2072.39,-122.62"/>
</g>
<!-- Node0x55658c1d61b8&#45;&gt;Node0x55658c1d7a68 -->
<g id="edge66" class="edge">
<title>Node0x55658c1d61b8&#45;&gt;Node0x55658c1d7a68</title>
<path fill="none" stroke="#ff7f7f" d="M1137.46,-1191.44C1139.09,-1149.27 1149.02,-1038.68 1097,-972 1070.75,-938.36 1031.85,-971.38 1008,-936 998.81,-922.37 996.74,-910.99 1008,-899 1029.67,-875.93 1401.42,-859.85 1649.6,-851.68"/>
<polygon fill="#ff7f7f" stroke="#ff7f7f" points="1649.97,-855.17 1659.85,-851.35 1649.74,-848.18 1649.97,-855.17"/>
</g>
<!-- Node0x55658c1d61b8&#45;&gt;Node0x55658c1d8198 -->
<g id="edge74" class="edge">
<title>Node0x55658c1d61b8&#45;&gt;Node0x55658c1d8198</title>
<path fill="none" stroke="#ff7f7f" d="M1060.41,-1208.86C877.45,-1208.84 427.83,-1203.69 286,-1155 98.38,-1090.59 56,-970.87 56,-772.5 56,-772.5 56,-772.5 56,-478.5 56,-381.72 38,-358.28 38,-261.5 38,-261.5 38,-261.5 38,-186.5 38,-55.83 1978.13,-42.78 2653.51,-42.19"/>
<polygon fill="#ff7f7f" stroke="#ff7f7f" points="2653.85,-45.69 2663.85,-42.19 2653.85,-38.69 2653.85,-45.69"/>
</g>
<!-- Node0x55658c1d61b8&#45;&gt;Node0x55658c1db618 -->
<g id="edge73" class="edge">
<title>Node0x55658c1d61b8&#45;&gt;Node0x55658c1db618</title>
<path fill="none" stroke="#ff7f7f" d="M1060.3,-1206.4C874.54,-1200.84 420.11,-1184.14 358,-1155 226.38,-1093.25 132,-1063.89 132,-918.5 132,-918.5 132,-918.5 132,-332.5 132,-262.86 195.94,-226.71 267.37,-208.03"/>
<polygon fill="#ff7f7f" stroke="#ff7f7f" points="268.64,-211.32 277.49,-205.5 266.94,-204.53 268.64,-211.32"/>
</g>
<!-- Node0x55658c1d61b8&#45;&gt;Node0x55658c1d53a8 -->
<g id="edge68" class="edge">
<title>Node0x55658c1d61b8&#45;&gt;Node0x55658c1d53a8</title>
<path fill="none" stroke="#ff7f7f" d="M1217.6,-1209.13C1458.75,-1210.37 2176.74,-1209.26 2266,-1155 2391.38,-1078.79 2394.15,-1007.42 2420,-863 2428.8,-813.84 2427.19,-792.79 2397,-753 2387.57,-740.57 2374.35,-730.17 2361.7,-721.95"/>
<polygon fill="#ff7f7f" stroke="#ff7f7f" points="2363.43,-718.9 2353.08,-716.61 2359.74,-724.85 2363.43,-718.9"/>
</g>
<!-- Node0x55658c1d61b8&#45;&gt;Node0x55658c1d4908 -->
<g id="edge64" class="edge">
<title>Node0x55658c1d61b8&#45;&gt;Node0x55658c1d4908</title>
<path fill="none" stroke="#ff7f7f" d="M1060.46,-1206.7C885.24,-1202.1 473.51,-1187.91 420,-1155 323.19,-1095.47 318.45,-1045.49 288,-936 225.3,-710.53 510.11,-498.34 613.07,-430.19"/>
<polygon fill="#ff7f7f" stroke="#ff7f7f" points="615.15,-433.01 621.59,-424.6 611.31,-427.15 615.15,-433.01"/>
</g>
<!-- Node0x55658c1d61b8&#45;&gt;Node0x55658c1d99f8 -->
<g id="edge76" class="edge">
<title>Node0x55658c1d61b8&#45;&gt;Node0x55658c1d99f8</title>
<path fill="none" stroke="#ff7f7f" d="M1217.51,-1216.81C1343.12,-1227.22 1593.17,-1248.35 1772.07,-1263.63"/>
<polygon fill="#ff7f7f" stroke="#ff7f7f" points="1771.88,-1267.13 1782.14,-1264.49 1772.47,-1260.15 1771.88,-1267.13"/>
</g>
<!-- Node0x55658c1d61b8&#45;&gt;Node0x55658c1d86e8 -->
<g id="edge63" class="edge">
<title>Node0x55658c1d61b8&#45;&gt;Node0x55658c1d86e8</title>
<path fill="none" stroke="#ff7f7f" d="M1105.39,-1191.41C1088.68,-1181.03 1068.59,-1167.42 1051,-1155 982.02,-1106.27 902.66,-1047.04 862.95,-1014.93"/>
<polygon fill="#ff7f7f" stroke="#ff7f7f" points="865.05,-1012.13 855.1,-1008.51 860.62,-1017.55 865.05,-1012.13"/>
</g>
<!-- Node0x55658c1d61b8&#45;&gt;Node0x55658c1de638 -->
<g id="edge69" class="edge">
<title>Node0x55658c1d61b8&#45;&gt;Node0x55658c1de638</title>
<path fill="none" stroke="#ff7f7f" d="M1131.96,-1191.41C1120.67,-1150.1 1098.77,-1042.99 1046,-972 1029.88,-950.31 1009.2,-960.11 997,-936 989.57,-921.33 987.06,-912.1 997,-899 1105.79,-755.63 1221.55,-860.83 1387,-790 1480.35,-750.04 1580.62,-683.77 1633.6,-649.15"/>
<polygon fill="#ff7f7f" stroke="#ff7f7f" points="1635.53,-652.06 1642,-643.67 1631.71,-646.2 1635.53,-652.06"/>
</g>
<!-- Node0x55658c1dc838 -->
<g id="node17" class="node">
<title>Node0x55658c1dc838</title>
<polygon fill="#ff7f7f" stroke="black" points="1324.5,-242.5 1324.5,-278.5 1505.5,-278.5 1505.5,-242.5 1324.5,-242.5"/>
<text text-anchor="middle" x="1415" y="-256.8" font-family="Times,serif" font-size="14.00">lib/libLLVMBitReader.a</text>
</g>
<!-- Node0x55658c1d61b8&#45;&gt;Node0x55658c1dc838 -->
<g id="edge70" class="edge">
<title>Node0x55658c1d61b8&#45;&gt;Node0x55658c1dc838</title>
<path fill="none" stroke="#ff7f7f" d="M1060.29,-1195.51C1049.43,-1193.81 1038.44,-1192.23 1028,-1191 965.97,-1183.71 517.31,-1192.02 467,-1155 299.33,-1031.64 358,-907.66 358,-699.5 358,-699.5 358,-699.5 358,-551.5 358,-447.31 427.72,-422.58 526,-388 799.77,-291.67 1146.13,-268.6 1314.31,-263.15"/>
<polygon fill="#ff7f7f" stroke="#ff7f7f" points="1314.51,-266.64 1324.39,-262.83 1314.29,-259.64 1314.51,-266.64"/>
</g>
<!-- Node0x55658c1dc388 -->
<g id="node18" class="node">
<title>Node0x55658c1dc388</title>
<polygon fill="#ff7f7f" stroke="black" points="1343,-461.5 1343,-497.5 1487,-497.5 1487,-461.5 1343,-461.5"/>
<text text-anchor="middle" x="1415" y="-475.8" font-family="Times,serif" font-size="14.00">lib/libLLVMCore.a</text>
</g>
<!-- Node0x55658c1d61b8&#45;&gt;Node0x55658c1dc388 -->
<g id="edge71" class="edge">
<title>Node0x55658c1d61b8&#45;&gt;Node0x55658c1dc388</title>
<path fill="none" stroke="#ff7f7f" d="M1060.26,-1194.13C898.89,-1163.08 546,-1090.48 546,-1064.5 546,-1064.5 546,-1064.5 546,-989.5 546,-942.36 1219.78,-554.98 1262,-534 1287.63,-521.26 1317.08,-509.8 1343.3,-500.79"/>
<polygon fill="#ff7f7f" stroke="#ff7f7f" points="1344.45,-504.09 1352.81,-497.58 1342.21,-497.46 1344.45,-504.09"/>
</g>
<!-- Node0x55658c1ddc38 -->
<g id="node19" class="node">
<title>Node0x55658c1ddc38</title>
<polygon fill="#ff7f7f" stroke="black" points="2392,-534.5 2392,-570.5 2572,-570.5 2572,-534.5 2392,-534.5"/>
<text text-anchor="middle" x="2482" y="-548.8" font-family="Times,serif" font-size="14.00">lib/libLLVMMCParser.a</text>
</g>
<!-- Node0x55658c1d61b8&#45;&gt;Node0x55658c1ddc38 -->
<g id="edge72" class="edge">
<title>Node0x55658c1d61b8&#45;&gt;Node0x55658c1ddc38</title>
<path fill="none" stroke="#ff7f7f" d="M1217.89,-1207.11C1464.38,-1202.56 2209.47,-1186.54 2314,-1155 2491.22,-1101.52 2578.38,-1045.22 2611,-863 2631.23,-749.99 2540.44,-629.44 2500.11,-578.5"/>
<polygon fill="#ff7f7f" stroke="#ff7f7f" points="2502.83,-576.3 2493.87,-570.66 2497.35,-580.66 2502.83,-576.3"/>
</g>
<!-- Node0x55658c1dd788 -->
<g id="node20" class="node">
<title>Node0x55658c1dd788</title>
<polygon fill="#ff7f7f" stroke="black" points="2067,-1118.5 2067,-1154.5 2233,-1154.5 2233,-1118.5 2067,-1118.5"/>
<text text-anchor="middle" x="2150" y="-1132.8" font-family="Times,serif" font-size="14.00">lib/libLLVMTextAPI.a</text>
</g>
<!-- Node0x55658c1d61b8&#45;&gt;Node0x55658c1dd788 -->
<g id="edge75" class="edge">
<title>Node0x55658c1d61b8&#45;&gt;Node0x55658c1dd788</title>
<path fill="none" stroke="#ff7f7f" d="M1217.82,-1202.69C1401.93,-1189.5 1859.28,-1157.38 2056.79,-1143.76"/>
<polygon fill="#ff7f7f" stroke="#ff7f7f" points="2057.11,-1147.25 2066.85,-1143.07 2056.63,-1140.26 2057.11,-1147.25"/>
</g>
<!-- Node0x55658c1d4908&#45;&gt;Node0x55658c1d6bb8 -->
<g id="edge62" class="edge">
<title>Node0x55658c1d4908&#45;&gt;Node0x55658c1d6bb8</title>
<path fill="none" stroke="#ff7f7f" d="M640.01,-424.63C597.28,-508.46 424.84,-876.85 621,-1009 673.2,-1044.17 1583.29,-1057.9 1882.51,-1061.48"/>
<polygon fill="#ff7f7f" stroke="#ff7f7f" points="1882.85,-1064.99 1892.89,-1061.6 1882.94,-1057.99 1882.85,-1064.99"/>
</g>
<!-- Node0x55658c1d4908&#45;&gt;Node0x55658c1d86e8 -->
<g id="edge61" class="edge">
<title>Node0x55658c1d4908&#45;&gt;Node0x55658c1d86e8</title>
<path fill="none" stroke="#ff7f7f" d="M654.71,-424.79C658,-451.82 658,-505.75 658,-551.5 658,-845.5 658,-845.5 658,-845.5 658,-888.31 660.44,-906.02 691,-936 705.84,-950.56 724.82,-961.16 744.18,-968.89"/>
<polygon fill="#ff7f7f" stroke="#ff7f7f" points="743.11,-972.22 753.7,-972.45 745.56,-965.67 743.11,-972.22"/>
</g>
<!-- Node0x55658c1d99f8&#45;&gt;Node0x55658c1d5d08 -->
<g id="edge59" class="edge">
<title>Node0x55658c1d99f8&#45;&gt;Node0x55658c1d5d08</title>
<path fill="none" stroke="#ff7f7f" d="M2053.23,-1300.55C2097.17,-1310.93 2152.1,-1324.23 2195.71,-1335.02"/>
<polygon fill="#ff7f7f" stroke="#ff7f7f" points="2195.13,-1338.48 2205.68,-1337.49 2196.82,-1331.69 2195.13,-1338.48"/>
</g>
<!-- Node0x55658c1d99f8&#45;&gt;Node0x55658c1d6bb8 -->
<g id="edge60" class="edge">
<title>Node0x55658c1d99f8&#45;&gt;Node0x55658c1d6bb8</title>
<path fill="none" stroke="#ff7f7f" d="M1977,-1264.47C1977,-1227.01 1977,-1137.18 1977,-1091.76"/>
<polygon fill="#ff7f7f" stroke="#ff7f7f" points="1980.5,-1091.75 1977,-1081.75 1973.5,-1091.75 1980.5,-1091.75"/>
</g>
<!-- Node0x55658c1d99f8&#45;&gt;Node0x55658c1d8198 -->
<g id="edge57" class="edge">
<title>Node0x55658c1d99f8&#45;&gt;Node0x55658c1d8198</title>
<path fill="none" stroke="#ff7f7f" d="M2115.28,-1264.44C2165.94,-1256.15 2223.26,-1244.35 2274,-1228 2686.43,-1095.11 3136,-1205.81 3136,-772.5 3136,-772.5 3136,-772.5 3136,-186.5 3136,-117.41 3064,-81.07 2996.67,-62.19"/>
<polygon fill="#ff7f7f" stroke="#ff7f7f" points="2997.34,-58.75 2986.78,-59.53 2995.53,-65.51 2997.34,-58.75"/>
</g>
<!-- Node0x55658c1d99f8&#45;&gt;Node0x55658c1d61b8 -->
<g id="edge58" class="edge">
<title>Node0x55658c1d99f8&#45;&gt;Node0x55658c1d61b8</title>
<path fill="none" stroke="#ff7f7f" d="M1770.42,-1264.49C1596.44,-1249.88 1356.06,-1229.48 1227.87,-1218.41"/>
<polygon fill="#ff7f7f" stroke="#ff7f7f" points="1227.97,-1214.9 1217.7,-1217.53 1227.36,-1221.88 1227.97,-1214.9"/>
</g>
<!-- Node0x55658c1d86e8&#45;&gt;Node0x55658c1d9368 -->
<g id="edge24" class="edge">
<title>Node0x55658c1d86e8&#45;&gt;Node0x55658c1d9368</title>
<path fill="none" stroke="#ff7f7f" d="M686.16,-1008.5C483.56,-1035.49 150,-1096.88 150,-1208.5 150,-1283.5 150,-1283.5 150,-1283.5 150,-1361.58 1235.76,-1405.12 1724.48,-1420.77"/>
<polygon fill="#ff7f7f" stroke="#ff7f7f" points="1724.38,-1424.27 1734.49,-1421.09 1724.61,-1417.27 1724.38,-1424.27"/>
</g>
<!-- Node0x55658c1d86e8&#45;&gt;Node0x55658c1d6bb8 -->
<g id="edge33" class="edge">
<title>Node0x55658c1d86e8&#45;&gt;Node0x55658c1d6bb8</title>
<path fill="none" stroke="#ff7f7f" d="M1046.18,-1004.15C1294.92,-1019.51 1700.26,-1044.8 1882.75,-1056.38"/>
<polygon fill="#ff7f7f" stroke="#ff7f7f" points="1882.66,-1059.88 1892.86,-1057.02 1883.1,-1052.89 1882.66,-1059.88"/>
</g>
<!-- Node0x55658c1d86e8&#45;&gt;Node0x55658c1d75b8 -->
<g id="edge26" class="edge">
<title>Node0x55658c1d86e8&#45;&gt;Node0x55658c1d75b8</title>
<path fill="none" stroke="#ff7f7f" d="M815.66,-972.5C805.12,-963.04 793.65,-950.31 788,-936 781.96,-920.7 784.92,-915.15 788,-899 812.43,-771.04 896,-756.78 896,-626.5 896,-626.5 896,-626.5 896,-259.5 896,-142.7 1680.84,-120.11 2072.3,-116.11"/>
<polygon fill="#ff7f7f" stroke="#ff7f7f" points="2072.37,-119.61 2082.33,-116.01 2072.3,-112.61 2072.37,-119.61"/>
</g>
<!-- Node0x55658c1d86e8&#45;&gt;Node0x55658c1d7a68 -->
<g id="edge25" class="edge">
<title>Node0x55658c1d86e8&#45;&gt;Node0x55658c1d7a68</title>
<path fill="none" stroke="#ff7f7f" d="M864.61,-972.35C880.32,-962.06 900.5,-948.58 918,-936 939.87,-920.28 940.77,-908.44 966,-899 997.56,-887.2 1392.36,-867.2 1649.68,-855.29"/>
<polygon fill="#ff7f7f" stroke="#ff7f7f" points="1650.09,-858.77 1659.92,-854.81 1649.77,-851.78 1650.09,-858.77"/>
</g>
<!-- Node0x55658c1d86e8&#45;&gt;Node0x55658c1db618 -->
<g id="edge27" class="edge">
<title>Node0x55658c1d86e8&#45;&gt;Node0x55658c1db618</title>
<path fill="none" stroke="#ff7f7f" d="M711.6,-972.35C689.42,-964.35 668.27,-952.75 652,-936 446.17,-724.19 452.45,-322.93 458.17,-215.52"/>
<polygon fill="#ff7f7f" stroke="#ff7f7f" points="461.66,-215.69 458.75,-205.51 454.68,-215.29 461.66,-215.69"/>
</g>
<!-- Node0x55658c1d86e8&#45;&gt;Node0x55658c1d61b8 -->
<g id="edge32" class="edge">
<title>Node0x55658c1d86e8&#45;&gt;Node0x55658c1d61b8</title>
<path fill="none" stroke="#ff7f7f" d="M865.85,-1008.51C909.32,-1038.56 995.11,-1102.8 1069,-1155 1083.43,-1165.19 1099.54,-1176.18 1112.79,-1185.52"/>
<polygon fill="#ff7f7f" stroke="#ff7f7f" points="1110.86,-1188.45 1121.03,-1191.41 1114.92,-1182.75 1110.86,-1188.45"/>
</g>
<!-- Node0x55658c1d86e8&#45;&gt;Node0x55658c1d4908 -->
<g id="edge31" class="edge">
<title>Node0x55658c1d86e8&#45;&gt;Node0x55658c1d4908</title>
<path fill="none" stroke="#ff7f7f" d="M736.35,-972.45C713.14,-964.53 690.27,-952.94 673,-936 642.44,-906.02 640,-888.31 640,-845.5 640,-845.5 640,-845.5 640,-551.5 640,-510.93 640,-463.94 642.29,-434.96"/>
<polygon fill="#ff7f7f" stroke="#ff7f7f" points="645.8,-435.08 643.29,-424.79 638.83,-434.4 645.8,-435.08"/>
</g>
<!-- Node0x55658c1d86e8&#45;&gt;Node0x55658c1d99f8 -->
<g id="edge30" class="edge">
<title>Node0x55658c1d86e8&#45;&gt;Node0x55658c1d99f8</title>
<path fill="none" stroke="#ff7f7f" d="M846.79,-1008.66C871.49,-1054.7 946.56,-1180.69 1051,-1228 1117.5,-1258.12 1634.13,-1259.64 1707,-1264 1720.58,-1264.81 1734.55,-1265.67 1748.64,-1266.54"/>
<polygon fill="#ff7f7f" stroke="#ff7f7f" points="1748.72,-1270.05 1758.92,-1267.18 1749.15,-1263.06 1748.72,-1270.05"/>
</g>
<!-- Node0x55658c1dadf8 -->
<g id="node14" class="node">
<title>Node0x55658c1dadf8</title>
<polygon fill="#ff7f7f" stroke="black" points="1026.5,-899.5 1026.5,-935.5 1493.5,-935.5 1493.5,-899.5 1026.5,-899.5"/>
<text text-anchor="middle" x="1260" y="-913.8" font-family="Times,serif" font-size="14.00">tools/obj2yaml/CMakeFiles/obj2yaml.dir/minidump2yaml.cpp.o</text>
</g>
<!-- Node0x55658c1d86e8&#45;&gt;Node0x55658c1dadf8 -->
<g id="edge28" class="edge">
<title>Node0x55658c1d86e8&#45;&gt;Node0x55658c1dadf8</title>
<path fill="none" stroke="#ff7f7f" d="M939.08,-972.49C1002.28,-961.86 1083.74,-948.16 1148.77,-937.21"/>
<polygon fill="#ff7f7f" stroke="#ff7f7f" points="1149.37,-940.66 1158.65,-935.55 1148.21,-933.76 1149.37,-940.66"/>
</g>
<!-- Node0x55658c1db0c8 -->
<g id="node15" class="node">
<title>Node0x55658c1db0c8</title>
<polygon fill="#ff7f7f" stroke="black" points="1626,-899.5 1626,-935.5 2054,-935.5 2054,-899.5 1626,-899.5"/>
<text text-anchor="middle" x="1840" y="-913.8" font-family="Times,serif" font-size="14.00">tools/obj2yaml/CMakeFiles/obj2yaml.dir/xcoff2yaml.cpp.o</text>
</g>
<!-- Node0x55658c1d86e8&#45;&gt;Node0x55658c1db0c8 -->
<g id="edge29" class="edge">
<title>Node0x55658c1d86e8&#45;&gt;Node0x55658c1db0c8</title>
<path fill="none" stroke="#ff7f7f" d="M1046.22,-974.75C1212.63,-962.95 1445.43,-946.46 1615.89,-934.38"/>
<polygon fill="#ff7f7f" stroke="#ff7f7f" points="1616.27,-937.86 1626,-933.66 1615.77,-930.88 1616.27,-937.86"/>
</g>
<!-- Node0x55658c1dadf8&#45;&gt;Node0x55658c1d5d08 -->
<g id="edge51" class="edge">
<title>Node0x55658c1dadf8&#45;&gt;Node0x55658c1d5d08</title>
<path fill="none" stroke="#ff7f7f" d="M1294.97,-935.54C1334.56,-954.55 1401.19,-985.68 1460,-1009 1480.31,-1017.05 2186.42,-1251.03 2204,-1264 2216.35,-1273.11 2238.56,-1305.39 2253.78,-1328.8"/>
<polygon fill="#ff7f7f" stroke="#ff7f7f" points="2250.88,-1330.76 2259.23,-1337.28 2256.76,-1326.97 2250.88,-1330.76"/>
</g>
<!-- Node0x55658c1dadf8&#45;&gt;Node0x55658c1d6bb8 -->
<g id="edge52" class="edge">
<title>Node0x55658c1dadf8&#45;&gt;Node0x55658c1d6bb8</title>
<path fill="none" stroke="#ff7f7f" d="M1353.86,-935.53C1388.33,-943.85 1426.97,-955.68 1460,-972 1484.15,-983.93 1483.04,-998.88 1508,-1009 1516.6,-1012.49 1748.19,-1037.86 1882.65,-1052.38"/>
<polygon fill="#ff7f7f" stroke="#ff7f7f" points="1882.64,-1055.9 1892.96,-1053.49 1883.39,-1048.94 1882.64,-1055.9"/>
</g>
<!-- Node0x55658c1db0c8&#45;&gt;Node0x55658c1d5d08 -->
<g id="edge55" class="edge">
<title>Node0x55658c1db0c8&#45;&gt;Node0x55658c1d5d08</title>
<path fill="none" stroke="#ff7f7f" d="M1886.52,-935.58C1964.46,-965.46 2124.43,-1032.28 2242,-1118 2278.57,-1144.66 2295.68,-1149.18 2313,-1191 2321.31,-1211.06 2319,-1287.05 2314,-1301 2310.25,-1311.47 2303.47,-1321.35 2296.34,-1329.71"/>
<polygon fill="#ff7f7f" stroke="#ff7f7f" points="2293.63,-1327.48 2289.48,-1337.22 2298.8,-1332.2 2293.63,-1327.48"/>
</g>
<!-- Node0x55658c1db0c8&#45;&gt;Node0x55658c1d6bb8 -->
<g id="edge56" class="edge">
<title>Node0x55658c1db0c8&#45;&gt;Node0x55658c1d6bb8</title>
<path fill="none" stroke="#ff7f7f" d="M1856.23,-935.56C1880.42,-960.99 1926.05,-1008.95 1953.77,-1038.09"/>
<polygon fill="#ff7f7f" stroke="#ff7f7f" points="1951.32,-1040.58 1960.75,-1045.42 1956.39,-1035.76 1951.32,-1040.58"/>
</g>
<!-- Node0x55658c1db0c8&#45;&gt;Node0x55658c1d7a68 -->
<g id="edge53" class="edge">
<title>Node0x55658c1db0c8&#45;&gt;Node0x55658c1d7a68</title>
<path fill="none" stroke="#ff7f7f" d="M1847.26,-899.31C1850.73,-891.12 1854.95,-881.12 1858.81,-871.98"/>
<polygon fill="#ff7f7f" stroke="#ff7f7f" points="1862.14,-873.1 1862.8,-862.53 1855.69,-870.38 1862.14,-873.1"/>
</g>
<!-- Node0x55658c1db0c8&#45;&gt;Node0x55658c1d61b8 -->
<g id="edge54" class="edge">
<title>Node0x55658c1db0c8&#45;&gt;Node0x55658c1d61b8</title>
<path fill="none" stroke="#ff7f7f" d="M1798.82,-935.54C1677.63,-985.67 1322.45,-1132.61 1189.77,-1187.5"/>
<polygon fill="#ff7f7f" stroke="#ff7f7f" points="1188.14,-1184.38 1180.23,-1191.44 1190.81,-1190.85 1188.14,-1184.38"/>
</g>
<!-- Node0x55658c1de638&#45;&gt;Node0x55658c1d5d08 -->
<g id="edge105" class="edge">
<title>Node0x55658c1de638&#45;&gt;Node0x55658c1d5d08</title>
<path fill="none" stroke="#ff7f7f" d="M1603.24,-628.74C1317.56,-639.98 226,-701.74 226,-989.5 226,-1064.5 226,-1064.5 226,-1064.5 226,-1145.4 238.78,-1182.99 306,-1228 460.38,-1331.37 1770.23,-1350.41 2160.62,-1353.79"/>
<polygon fill="#ff7f7f" stroke="#ff7f7f" points="2160.76,-1357.29 2170.79,-1353.88 2160.82,-1350.29 2160.76,-1357.29"/>
</g>
<!-- Node0x55658c1de638&#45;&gt;Node0x55658c1d6bb8 -->
<g id="edge101" class="edge">
<title>Node0x55658c1de638&#45;&gt;Node0x55658c1d6bb8</title>
<path fill="none" stroke="#ff7f7f" d="M1659.98,-643.83C1629.54,-694.15 1550.78,-842.54 1617,-936 1648.77,-980.83 1790.52,-1020.68 1886.38,-1043.17"/>
<polygon fill="#ff7f7f" stroke="#ff7f7f" points="1885.85,-1046.64 1896.38,-1045.5 1887.43,-1039.83 1885.85,-1046.64"/>
</g>
<!-- Node0x55658c1de638&#45;&gt;Node0x55658c1d75b8 -->
<g id="edge103" class="edge">
<title>Node0x55658c1de638&#45;&gt;Node0x55658c1d75b8</title>
<path fill="none" stroke="#ff7f7f" d="M1684.48,-607.33C1716.99,-564.15 1797,-446.48 1797,-334.5 1797,-334.5 1797,-334.5 1797,-259.5 1797,-191.76 1970.96,-153.67 2111.99,-133.91"/>
<polygon fill="#ff7f7f" stroke="#ff7f7f" points="2112.66,-137.35 2122.09,-132.52 2111.7,-130.42 2112.66,-137.35"/>
</g>
<!-- Node0x55658c1de638&#45;&gt;Node0x55658c1d7a68 -->
<g id="edge102" class="edge">
<title>Node0x55658c1de638&#45;&gt;Node0x55658c1d7a68</title>
<path fill="none" stroke="#ff7f7f" d="M1671.77,-643.54C1674.16,-676.28 1683.95,-748.41 1724,-790 1737.94,-804.47 1756.11,-815.05 1774.88,-822.78"/>
<polygon fill="#ff7f7f" stroke="#ff7f7f" points="1773.83,-826.13 1784.42,-826.46 1776.35,-819.6 1773.83,-826.13"/>
</g>
<!-- Node0x55658c1de638&#45;&gt;Node0x55658c1d57b8 -->
<g id="edge99" class="edge">
<title>Node0x55658c1de638&#45;&gt;Node0x55658c1d57b8</title>
<path fill="none" stroke="#ff7f7f" d="M1690.62,-643.63C1714.79,-663.9 1757.84,-697.36 1800,-717 1831.3,-731.58 1867.25,-742.73 1900.02,-750.98"/>
<polygon fill="#ff7f7f" stroke="#ff7f7f" points="1899.53,-754.47 1910.08,-753.45 1901.2,-747.67 1899.53,-754.47"/>
</g>
<!-- Node0x55658c1de638&#45;&gt;Node0x55658c1d53a8 -->
<g id="edge107" class="edge">
<title>Node0x55658c1de638&#45;&gt;Node0x55658c1d53a8</title>
<path fill="none" stroke="#ff7f7f" d="M1738.77,-633.41C1846.43,-644.81 2058.18,-667.78 2195.3,-682.9"/>
<polygon fill="#ff7f7f" stroke="#ff7f7f" points="2195.13,-686.4 2205.45,-684.02 2195.9,-679.44 2195.13,-686.4"/>
</g>
<!-- Node0x55658c1de638&#45;&gt;Node0x55658c1d61b8 -->
<g id="edge100" class="edge">
<title>Node0x55658c1de638&#45;&gt;Node0x55658c1d61b8</title>
<path fill="none" stroke="#ff7f7f" d="M1652.28,-643.67C1609.81,-676.31 1503.55,-747.81 1405,-790 1239.55,-860.83 1123.79,-755.63 1015,-899 1005.06,-912.1 1007.57,-921.33 1015,-936 1027.2,-960.11 1047.88,-950.31 1064,-972 1112.85,-1037.72 1135.25,-1134.4 1140.14,-1181.17"/>
<polygon fill="#ff7f7f" stroke="#ff7f7f" points="1136.68,-1181.74 1140.99,-1191.41 1143.65,-1181.16 1136.68,-1181.74"/>
</g>
<!-- Node0x55658c1de638&#45;&gt;Node0x55658c1d4908 -->
<g id="edge104" class="edge">
<title>Node0x55658c1de638&#45;&gt;Node0x55658c1d4908</title>
<path fill="none" stroke="#ff7f7f" d="M1603.15,-610.09C1424.5,-572.16 940.99,-469.5 739.29,-426.67"/>
<polygon fill="#ff7f7f" stroke="#ff7f7f" points="739.82,-423.21 729.31,-424.55 738.37,-430.05 739.82,-423.21"/>
</g>
<!-- Node0x55658c1de638&#45;&gt;Node0x55658c1ddc38 -->
<g id="edge106" class="edge">
<title>Node0x55658c1de638&#45;&gt;Node0x55658c1ddc38</title>
<path fill="none" stroke="#ff7f7f" d="M1738.58,-618.23C1881.37,-605.43 2214.18,-576.28 2381.81,-561.87"/>
<polygon fill="#ff7f7f" stroke="#ff7f7f" points="2382.21,-565.35 2391.88,-561.01 2381.61,-558.38 2382.21,-565.35"/>
</g>
<!-- Node0x55658c1dc838&#45;&gt;Node0x55658c1d6bb8 -->
<g id="edge113" class="edge">
<title>Node0x55658c1dc838&#45;&gt;Node0x55658c1d6bb8</title>
<path fill="none" stroke="#ff7f7f" d="M1360.77,-278.54C1267.29,-311.12 1077.98,-391.96 996,-534 813.94,-849.42 949.21,-748.37 983,-790 1131.55,-972.99 1295.24,-785.84 1502,-899 1532.05,-915.45 1579.45,-993.5 1610,-1009 1656.35,-1032.52 1790.2,-1047.66 1882.76,-1055.62"/>
<polygon fill="#ff7f7f" stroke="#ff7f7f" points="1882.73,-1059.13 1892.98,-1056.49 1883.32,-1052.16 1882.73,-1059.13"/>
</g>
<!-- Node0x55658c1dc838&#45;&gt;Node0x55658c1d75b8 -->
<g id="edge110" class="edge">
<title>Node0x55658c1dc838&#45;&gt;Node0x55658c1d75b8</title>
<path fill="none" stroke="#ff7f7f" d="M1466.38,-242.48C1530.76,-221.85 1644.82,-187.53 1745,-169 1851.91,-149.23 1972.08,-136.44 2072.23,-128.34"/>
<polygon fill="#ff7f7f" stroke="#ff7f7f" points="2072.79,-131.81 2082.48,-127.53 2072.23,-124.83 2072.79,-131.81"/>
</g>
<!-- Node0x55658c1dc838&#45;&gt;Node0x55658c1d7a68 -->
<g id="edge109" class="edge">
<title>Node0x55658c1dc838&#45;&gt;Node0x55658c1d7a68</title>
<path fill="none" stroke="#ff7f7f" d="M1392.31,-278.78C1362.8,-303.41 1315,-351.63 1315,-405.5 1315,-553.5 1315,-553.5 1315,-553.5 1315,-726.67 1529.88,-796.62 1692.23,-824.75"/>
<polygon fill="#ff7f7f" stroke="#ff7f7f" points="1691.91,-828.25 1702.35,-826.46 1693.08,-821.35 1691.91,-828.25"/>
</g>
<!-- Node0x55658c1dc838&#45;&gt;Node0x55658c1d8198 -->
<g id="edge116" class="edge">
<title>Node0x55658c1dc838&#45;&gt;Node0x55658c1d8198</title>
<path fill="none" stroke="#ff7f7f" d="M1440.59,-242.5C1473.16,-221.71 1531.85,-187.07 1587,-169 1779.19,-106.04 2336.06,-69.27 2653.45,-52.85"/>
<polygon fill="#ff7f7f" stroke="#ff7f7f" points="2653.89,-56.33 2663.7,-52.32 2653.53,-49.34 2653.89,-56.33"/>
</g>
<!-- Node0x55658c1dc838&#45;&gt;Node0x55658c1db618 -->
<g id="edge117" class="edge">
<title>Node0x55658c1dc838&#45;&gt;Node0x55658c1db618</title>
<path fill="none" stroke="#ff7f7f" d="M1324.29,-252.76C1180.18,-242.04 894.44,-220.8 690.98,-205.67"/>
<polygon fill="#ff7f7f" stroke="#ff7f7f" points="690.98,-202.16 680.75,-204.91 690.46,-209.14 690.98,-202.16"/>
</g>
<!-- Node0x55658c1dc838&#45;&gt;Node0x55658c1d53a8 -->
<g id="edge111" class="edge">
<title>Node0x55658c1dc838&#45;&gt;Node0x55658c1d53a8</title>
<path fill="none" stroke="#ff7f7f" d="M1474.51,-278.55C1538.73,-296.89 1644.02,-326.82 1735,-352 1794.02,-368.33 1812.34,-362.45 1868,-388 1958.89,-429.72 2205.39,-609.67 2292.77,-674.29"/>
<polygon fill="#ff7f7f" stroke="#ff7f7f" points="2290.84,-677.21 2300.96,-680.35 2295,-671.59 2290.84,-677.21"/>
</g>
<!-- Node0x55658c1dc838&#45;&gt;Node0x55658c1d61b8 -->
<g id="edge112" class="edge">
<title>Node0x55658c1dc838&#45;&gt;Node0x55658c1d61b8</title>
<path fill="none" stroke="#ff7f7f" d="M1324.45,-263.17C1163.09,-268.67 817.36,-291.82 544,-388 445.72,-422.58 376,-447.31 376,-551.5 376,-699.5 376,-699.5 376,-699.5 376,-907.66 317.33,-1031.64 485,-1155 535.31,-1192.02 983.97,-1183.71 1046,-1191 1047.48,-1191.17 1048.97,-1191.35 1050.46,-1191.54"/>
<polygon fill="#ff7f7f" stroke="#ff7f7f" points="1050.07,-1195.02 1060.44,-1192.86 1050.99,-1188.08 1050.07,-1195.02"/>
</g>
<!-- Node0x55658c1dc838&#45;&gt;Node0x55658c1d86e8 -->
<g id="edge108" class="edge">
<title>Node0x55658c1dc838&#45;&gt;Node0x55658c1d86e8</title>
<path fill="none" stroke="#ff7f7f" d="M1324.26,-265.2C1218.3,-270.87 1050.55,-284.46 996,-315 745.51,-455.25 758.27,-614.48 720,-899 717.81,-915.3 711.09,-922.18 720,-936 728.98,-949.93 742.57,-960.28 757.37,-967.95"/>
<polygon fill="#ff7f7f" stroke="#ff7f7f" points="756.18,-971.26 766.72,-972.38 759.18,-964.93 756.18,-971.26"/>
</g>
<!-- Node0x55658c1dc838&#45;&gt;Node0x55658c1dc388 -->
<g id="edge115" class="edge">
<title>Node0x55658c1dc838&#45;&gt;Node0x55658c1dc388</title>
<path fill="none" stroke="#ff7f7f" d="M1418.86,-278.75C1422.43,-316.42 1422.69,-406.27 1419.64,-451.5"/>
<polygon fill="#ff7f7f" stroke="#ff7f7f" points="1416.15,-451.23 1418.84,-461.47 1423.13,-451.78 1416.15,-451.23"/>
</g>
<!-- Node0x55658c1dce28 -->
<g id="node21" class="node">
<title>Node0x55658c1dce28</title>
<polygon fill="#ff7f7f" stroke="black" points="1991.5,-315.5 1991.5,-351.5 2222.5,-351.5 2222.5,-315.5 1991.5,-315.5"/>
<text text-anchor="middle" x="2107" y="-329.8" font-family="Times,serif" font-size="14.00">lib/libLLVMBitstreamReader.a</text>
</g>
<!-- Node0x55658c1dc838&#45;&gt;Node0x55658c1dce28 -->
<g id="edge114" class="edge">
<title>Node0x55658c1dc838&#45;&gt;Node0x55658c1dce28</title>
<path fill="none" stroke="#ff7f7f" d="M1505.65,-270.33C1627.3,-282.55 1843.81,-304.73 1981.18,-319.03"/>
<polygon fill="#ff7f7f" stroke="#ff7f7f" points="1981.03,-322.54 1991.34,-320.09 1981.76,-315.57 1981.03,-322.54"/>
</g>
<!-- Node0x55658c1dc388&#45;&gt;Node0x55658c1d5d08 -->
<g id="edge128" class="edge">
<title>Node0x55658c1dc388&#45;&gt;Node0x55658c1d5d08</title>
<path fill="none" stroke="#ff7f7f" d="M1342.83,-486.04C1079.81,-508.17 188,-601.08 188,-843.5 188,-918.5 188,-918.5 188,-918.5 188,-1007.28 180.22,-1029.25 178,-1118 177.59,-1134.44 171.36,-1139.96 178,-1155 228.4,-1269.23 296.39,-1272.72 418,-1301 587.17,-1340.33 1789.08,-1351.38 2160.76,-1353.87"/>
<polygon fill="#ff7f7f" stroke="#ff7f7f" points="2160.96,-1357.37 2170.98,-1353.94 2161.01,-1350.37 2160.96,-1357.37"/>
</g>
<!-- Node0x55658c1dc388&#45;&gt;Node0x55658c1d6bb8 -->
<g id="edge120" class="edge">
<title>Node0x55658c1dc388&#45;&gt;Node0x55658c1d6bb8</title>
<path fill="none" stroke="#ff7f7f" d="M1410.35,-497.65C1402.94,-527.91 1390.78,-592.47 1406,-644 1434,-738.79 1553.68,-949.95 1664,-1009 1700.98,-1028.79 1804.59,-1043.96 1882.55,-1053"/>
<polygon fill="#ff7f7f" stroke="#ff7f7f" points="1882.55,-1056.53 1892.88,-1054.19 1883.35,-1049.57 1882.55,-1056.53"/>
</g>
<!-- Node0x55658c1dc388&#45;&gt;Node0x55658c1d75b8 -->
<g id="edge126" class="edge">
<title>Node0x55658c1dc388&#45;&gt;Node0x55658c1d75b8</title>
<path fill="none" stroke="#ff7f7f" d="M1487.11,-463.56C1587.99,-440.55 1759,-392.93 1759,-334.5 1759,-334.5 1759,-334.5 1759,-259.5 1759,-217.89 1751.4,-196.08 1783,-169 1805.65,-149.59 1945.3,-135.77 2072.16,-127.04"/>
<polygon fill="#ff7f7f" stroke="#ff7f7f" points="2072.7,-130.51 2082.44,-126.34 2072.23,-123.53 2072.7,-130.51"/>
</g>
<!-- Node0x55658c1dc388&#45;&gt;Node0x55658c1d7a68 -->
<g id="edge125" class="edge">
<title>Node0x55658c1dc388&#45;&gt;Node0x55658c1d7a68</title>
<path fill="none" stroke="#ff7f7f" d="M1425.78,-497.84C1459.16,-550.13 1566.44,-707.69 1696,-790 1719.28,-804.79 1746.92,-815.72 1773.23,-823.69"/>
<polygon fill="#ff7f7f" stroke="#ff7f7f" points="1772.27,-827.06 1782.85,-826.5 1774.23,-820.34 1772.27,-827.06"/>
</g>
<!-- Node0x55658c1dc388&#45;&gt;Node0x55658c1d57b8 -->
<g id="edge123" class="edge">
<title>Node0x55658c1dc388&#45;&gt;Node0x55658c1d57b8</title>
<path fill="none" stroke="#ff7f7f" d="M1471.49,-497.54C1539.13,-518.94 1654.94,-558.75 1748,-607 1825.59,-647.23 1837.18,-670.21 1911,-717 1927.56,-727.49 1946.13,-738.64 1962.09,-748.03"/>
<polygon fill="#ff7f7f" stroke="#ff7f7f" points="1960.75,-751.3 1971.15,-753.33 1964.29,-745.26 1960.75,-751.3"/>
</g>
<!-- Node0x55658c1dc388&#45;&gt;Node0x55658c1d53a8 -->
<g id="edge118" class="edge">
<title>Node0x55658c1dc388&#45;&gt;Node0x55658c1d53a8</title>
<path fill="none" stroke="#ff7f7f" d="M1487.1,-488.33C1547.81,-496.15 1636.43,-510.45 1711,-534 1766.56,-551.55 1893.12,-627.49 1949,-644 2028.96,-667.63 2121.7,-680.98 2194.95,-688.43"/>
<polygon fill="#ff7f7f" stroke="#ff7f7f" points="2194.85,-691.94 2205.15,-689.44 2195.54,-684.97 2194.85,-691.94"/>
</g>
<!-- Node0x55658c1dc388&#45;&gt;Node0x55658c1d61b8 -->
<g id="edge119" class="edge">
<title>Node0x55658c1dc388&#45;&gt;Node0x55658c1d61b8</title>
<path fill="none" stroke="#ff7f7f" d="M1368.93,-497.58C1342.37,-507.01 1308.78,-519.7 1280,-534 1237.78,-554.98 564,-942.36 564,-989.5 564,-1064.5 564,-1064.5 564,-1064.5 564,-1089.43 889.09,-1157.32 1050.43,-1190.19"/>
<polygon fill="#ff7f7f" stroke="#ff7f7f" points="1049.85,-1193.64 1060.35,-1192.2 1051.25,-1186.78 1049.85,-1193.64"/>
</g>
<!-- Node0x55658c1dc388&#45;&gt;Node0x55658c1d4908 -->
<g id="edge124" class="edge">
<title>Node0x55658c1dc388&#45;&gt;Node0x55658c1d4908</title>
<path fill="none" stroke="#ff7f7f" d="M1342.94,-471.82C1209.83,-459.48 924.41,-433.03 764.19,-418.18"/>
<polygon fill="#ff7f7f" stroke="#ff7f7f" points="764.1,-414.65 753.82,-417.22 763.45,-421.62 764.1,-414.65"/>
</g>
<!-- Node0x55658c1dc388&#45;&gt;Node0x55658c1d99f8 -->
<g id="edge129" class="edge">
<title>Node0x55658c1dc388&#45;&gt;Node0x55658c1d99f8</title>
<path fill="none" stroke="#ff7f7f" d="M1342.66,-493.79C1301.2,-502.64 1248.69,-515.98 1204,-534 1034.4,-602.39 434.43,-854.33 532,-1009 652.6,-1200.17 771.98,-1172.15 991,-1228 1128.99,-1263.19 1503.14,-1275.24 1748.81,-1279.36"/>
<polygon fill="#ff7f7f" stroke="#ff7f7f" points="1748.89,-1282.86 1758.95,-1279.53 1749.01,-1275.86 1748.89,-1282.86"/>
</g>
<!-- Node0x55658c1dc388&#45;&gt;Node0x55658c1d86e8 -->
<g id="edge122" class="edge">
<title>Node0x55658c1dc388&#45;&gt;Node0x55658c1d86e8</title>
<path fill="none" stroke="#ff7f7f" d="M1388.03,-497.73C1271.1,-572.55 812.98,-867.03 796,-899 784.52,-920.62 798.52,-945.96 813.36,-964.32"/>
<polygon fill="#ff7f7f" stroke="#ff7f7f" points="810.98,-966.92 820.16,-972.22 816.29,-962.35 810.98,-966.92"/>
</g>
<!-- Node0x55658c1dc388&#45;&gt;Node0x55658c1dc838 -->
<g id="edge121" class="edge">
<title>Node0x55658c1dc388&#45;&gt;Node0x55658c1dc838</title>
<path fill="none" stroke="#ff7f7f" d="M1411.16,-461.47C1407.58,-424.01 1407.3,-334.18 1410.34,-288.76"/>
<polygon fill="#ff7f7f" stroke="#ff7f7f" points="1413.83,-288.99 1411.14,-278.75 1406.86,-288.44 1413.83,-288.99"/>
</g>
<!-- Node0x55658c1dd238 -->
<g id="node22" class="node">
<title>Node0x55658c1dd238</title>
<polygon fill="#ff7f7f" stroke="black" points="2029.5,-388.5 2029.5,-424.5 2202.5,-424.5 2202.5,-388.5 2029.5,-388.5"/>
<text text-anchor="middle" x="2116" y="-402.8" font-family="Times,serif" font-size="14.00">lib/libLLVMRemarks.a</text>
</g>
<!-- Node0x55658c1dc388&#45;&gt;Node0x55658c1dd238 -->
<g id="edge127" class="edge">
<title>Node0x55658c1dc388&#45;&gt;Node0x55658c1dd238</title>
<path fill="none" stroke="#ff7f7f" d="M1487.16,-463.2C1491.83,-462.4 1496.48,-461.65 1501,-461 1683.22,-434.62 1897.83,-419.55 2019.3,-412.5"/>
<polygon fill="#ff7f7f" stroke="#ff7f7f" points="2019.54,-415.99 2029.32,-411.92 2019.14,-409 2019.54,-415.99"/>
</g>
<!-- Node0x55658c1ddc38&#45;&gt;Node0x55658c1d5d08 -->
<g id="edge136" class="edge">
<title>Node0x55658c1ddc38&#45;&gt;Node0x55658c1d5d08</title>
<path fill="none" stroke="#ff7f7f" d="M2515.52,-570.58C2619.24,-626.06 2928,-812.24 2928,-1062.5 2928,-1210.5 2928,-1210.5 2928,-1210.5 2928,-1272.11 2879.65,-1276.79 2823,-1301 2745.67,-1334.05 2517.08,-1346.9 2379.2,-1351.73"/>
<polygon fill="#ff7f7f" stroke="#ff7f7f" points="2378.89,-1348.24 2369.02,-1352.08 2379.13,-1355.24 2378.89,-1348.24"/>
</g>
<!-- Node0x55658c1ddc38&#45;&gt;Node0x55658c1d6bb8 -->
<g id="edge134" class="edge">
<title>Node0x55658c1ddc38&#45;&gt;Node0x55658c1d6bb8</title>
<path fill="none" stroke="#ff7f7f" d="M2490.51,-570.74C2509.54,-611.93 2550.6,-718.02 2508,-790 2456.48,-877.04 2200.36,-965.6 2109,-1009 2084.27,-1020.75 2056.23,-1032.35 2032.38,-1041.72"/>
<polygon fill="#ff7f7f" stroke="#ff7f7f" points="2030.82,-1038.57 2022.78,-1045.47 2033.36,-1045.09 2030.82,-1038.57"/>
</g>
<!-- Node0x55658c1ddc38&#45;&gt;Node0x55658c1d75b8 -->
<g id="edge131" class="edge">
<title>Node0x55658c1ddc38&#45;&gt;Node0x55658c1d75b8</title>
<path fill="none" stroke="#ff7f7f" d="M2474.51,-534.14C2463.7,-507.44 2445,-454.48 2445,-407.5 2445,-407.5 2445,-407.5 2445,-259.5 2445,-201.22 2385.5,-160 2339.99,-137"/>
<polygon fill="#ff7f7f" stroke="#ff7f7f" points="2341.33,-133.76 2330.81,-132.51 2338.25,-140.05 2341.33,-133.76"/>
</g>
<!-- Node0x55658c1ddc38&#45;&gt;Node0x55658c1d7a68 -->
<g id="edge130" class="edge">
<title>Node0x55658c1ddc38&#45;&gt;Node0x55658c1d7a68</title>
<path fill="none" stroke="#ff7f7f" d="M2484.25,-570.61C2487.55,-603.48 2489.71,-675.81 2452,-717 2400.17,-773.62 2212.72,-807.11 2064.38,-825.26"/>
<polygon fill="#ff7f7f" stroke="#ff7f7f" points="2063.72,-821.81 2054.21,-826.49 2064.56,-828.76 2063.72,-821.81"/>
</g>
<!-- Node0x55658c1ddc38&#45;&gt;Node0x55658c1d53a8 -->
<g id="edge133" class="edge">
<title>Node0x55658c1ddc38&#45;&gt;Node0x55658c1d53a8</title>
<path fill="none" stroke="#ff7f7f" d="M2463.28,-570.56C2435.26,-596.1 2382.31,-644.36 2350.38,-673.46"/>
<polygon fill="#ff7f7f" stroke="#ff7f7f" points="2347.78,-671.09 2342.75,-680.42 2352.49,-676.27 2347.78,-671.09"/>
</g>
<!-- Node0x55658c1ddc38&#45;&gt;Node0x55658c1d61b8 -->
<g id="edge132" class="edge">
<title>Node0x55658c1ddc38&#45;&gt;Node0x55658c1d61b8</title>
<path fill="none" stroke="#ff7f7f" d="M2502.49,-570.66C2547.98,-615.99 2650.35,-743.7 2629,-863 2596.38,-1045.22 2509.22,-1101.52 2332,-1155 2227.76,-1186.46 1486.43,-1202.47 1227.74,-1207.07"/>
<polygon fill="#ff7f7f" stroke="#ff7f7f" points="1227.57,-1203.58 1217.63,-1207.25 1227.69,-1210.57 1227.57,-1203.58"/>
</g>
<!-- Node0x55658c1ddc38&#45;&gt;Node0x55658c1de638 -->
<g id="edge135" class="edge">
<title>Node0x55658c1ddc38&#45;&gt;Node0x55658c1de638</title>
<path fill="none" stroke="#ff7f7f" d="M2391.84,-561.79C2231.59,-576.09 1900.01,-605.11 1748.95,-618.03"/>
<polygon fill="#ff7f7f" stroke="#ff7f7f" points="1748.49,-614.56 1738.83,-618.9 1749.09,-621.53 1748.49,-614.56"/>
</g>
<!-- Node0x55658c1ddc38&#45;&gt;Node0x55658c1dc388 -->
<g id="edge137" class="edge">
<title>Node0x55658c1ddc38&#45;&gt;Node0x55658c1dc388</title>
<path fill="none" stroke="#ff7f7f" d="M2391.95,-545.51C2188.1,-531.94 1693.81,-499.05 1497.43,-485.99"/>
<polygon fill="#ff7f7f" stroke="#ff7f7f" points="1497.39,-482.47 1487.18,-485.3 1496.92,-489.46 1497.39,-482.47"/>
</g>
<!-- Node0x55658c1dd788&#45;&gt;Node0x55658c1d5d08 -->
<g id="edge142" class="edge">
<title>Node0x55658c1dd788&#45;&gt;Node0x55658c1d5d08</title>
<path fill="none" stroke="#ff7f7f" d="M2233.01,-1150.31C2256.24,-1158.14 2278.95,-1170.74 2293,-1191 2321.67,-1232.34 2300.22,-1293.84 2283.9,-1328.43"/>
<polygon fill="#ff7f7f" stroke="#ff7f7f" points="2280.74,-1326.91 2279.47,-1337.43 2287.03,-1330 2280.74,-1326.91"/>
</g>
<!-- Node0x55658c1dd788&#45;&gt;Node0x55658c1d6bb8 -->
<g id="edge138" class="edge">
<title>Node0x55658c1dd788&#45;&gt;Node0x55658c1d6bb8</title>
<path fill="none" stroke="#ff7f7f" d="M2108.56,-1118.49C2084.45,-1108.6 2053.86,-1096.04 2028.25,-1085.53"/>
<polygon fill="#ff7f7f" stroke="#ff7f7f" points="2029.28,-1082.17 2018.7,-1081.61 2026.62,-1088.65 2029.28,-1082.17"/>
</g>
<!-- Node0x55658c1dd788&#45;&gt;Node0x55658c1d7a68 -->
<g id="edge139" class="edge">
<title>Node0x55658c1dd788&#45;&gt;Node0x55658c1d7a68</title>
<path fill="none" stroke="#ff7f7f" d="M2151.07,-1118.35C2152.76,-1074.99 2150.86,-960.07 2089,-899 2074.5,-884.68 2035.55,-873.16 1994.44,-864.53"/>
<polygon fill="#ff7f7f" stroke="#ff7f7f" points="1995.02,-861.07 1984.52,-862.51 1993.62,-867.93 1995.02,-861.07"/>
</g>
<!-- Node0x55658c1dd788&#45;&gt;Node0x55658c1d53a8 -->
<g id="edge141" class="edge">
<title>Node0x55658c1dd788&#45;&gt;Node0x55658c1d53a8</title>
<path fill="none" stroke="#ff7f7f" d="M2178.96,-1118.33C2238.44,-1081.01 2372.3,-985.88 2414,-863 2431.93,-810.17 2385.02,-754.43 2352.38,-723.61"/>
<polygon fill="#ff7f7f" stroke="#ff7f7f" points="2354.58,-720.87 2344.85,-716.69 2349.85,-726.03 2354.58,-720.87"/>
</g>
<!-- Node0x55658c1dd788&#45;&gt;Node0x55658c1d61b8 -->
<g id="edge140" class="edge">
<title>Node0x55658c1dd788&#45;&gt;Node0x55658c1d61b8</title>
<path fill="none" stroke="#ff7f7f" d="M2066.99,-1143.61C1878.89,-1157.08 1421.78,-1189.18 1228.06,-1202.52"/>
<polygon fill="#ff7f7f" stroke="#ff7f7f" points="1227.66,-1199.04 1217.92,-1203.22 1228.14,-1206.03 1227.66,-1199.04"/>
</g>
<!-- Node0x55658c1dce28&#45;&gt;Node0x55658c1d6bb8 -->
<g id="edge146" class="edge">
<title>Node0x55658c1dce28&#45;&gt;Node0x55658c1d6bb8</title>
<path fill="none" stroke="#ff7f7f" d="M2222.74,-343.63C2421.34,-365.02 2798.18,-433.7 2716,-644 2617.55,-895.94 2487.7,-930.03 2229,-1009 2177.58,-1024.7 2118.89,-1037.45 2071.1,-1046.56"/>
<polygon fill="#ff7f7f" stroke="#ff7f7f" points="2070.25,-1043.16 2061.07,-1048.45 2071.54,-1050.04 2070.25,-1043.16"/>
</g>
<!-- Node0x55658c1dce28&#45;&gt;Node0x55658c1d75b8 -->
<g id="edge143" class="edge">
<title>Node0x55658c1dce28&#45;&gt;Node0x55658c1d75b8</title>
<path fill="none" stroke="#ff7f7f" d="M2119.75,-315.34C2142.45,-285.05 2191.73,-220.46 2237,-169 2245.56,-159.27 2255.36,-148.98 2264.14,-140.05"/>
<polygon fill="#ff7f7f" stroke="#ff7f7f" points="2266.66,-142.48 2271.21,-132.91 2261.69,-137.55 2266.66,-142.48"/>
</g>
<!-- Node0x55658c1dce28&#45;&gt;Node0x55658c1d57b8 -->
<g id="edge144" class="edge">
<title>Node0x55658c1dce28&#45;&gt;Node0x55658c1d57b8</title>
<path fill="none" stroke="#ff7f7f" d="M2052.89,-351.51C1999.24,-372.16 1925,-412.62 1925,-478.5 1925,-626.5 1925,-626.5 1925,-626.5 1925,-672.61 1955.86,-718.43 1978.25,-745.6"/>
<polygon fill="#ff7f7f" stroke="#ff7f7f" points="1975.74,-748.06 1984.88,-753.41 1981.08,-743.53 1975.74,-748.06"/>
</g>
<!-- Node0x55658c1dce28&#45;&gt;Node0x55658c1d53a8 -->
<g id="edge145" class="edge">
<title>Node0x55658c1dce28&#45;&gt;Node0x55658c1d53a8</title>
<path fill="none" stroke="#ff7f7f" d="M2158.66,-351.58C2177.56,-360 2197.78,-371.9 2212,-388 2286.95,-472.88 2312.98,-611.81 2320.91,-670.25"/>
<polygon fill="#ff7f7f" stroke="#ff7f7f" points="2317.44,-670.72 2322.19,-680.19 2324.39,-669.82 2317.44,-670.72"/>
</g>
<!-- Node0x55658c1dce28&#45;&gt;Node0x55658c1dc838 -->
<g id="edge147" class="edge">
<title>Node0x55658c1dce28&#45;&gt;Node0x55658c1dc838</title>
<path fill="none" stroke="#ff7f7f" d="M1991.48,-321.17C1858.48,-307.75 1642.23,-285.56 1515.78,-272.36"/>
<polygon fill="#ff7f7f" stroke="#ff7f7f" points="1516.02,-268.86 1505.71,-271.3 1515.29,-275.82 1516.02,-268.86"/>
</g>
<!-- Node0x55658c1dce28&#45;&gt;Node0x55658c1dd238 -->
<g id="edge148" class="edge">
<title>Node0x55658c1dce28&#45;&gt;Node0x55658c1dd238</title>
<path fill="none" stroke="#ff7f7f" d="M2115.02,-351.53C2116.88,-359.53 2118.36,-369.27 2119.13,-378.25"/>
<polygon fill="#ff7f7f" stroke="#ff7f7f" points="2115.64,-378.53 2119.7,-388.31 2122.63,-378.13 2115.64,-378.53"/>
</g>
<!-- Node0x55658c1dd238&#45;&gt;Node0x55658c1d5d08 -->
<g id="edge158" class="edge">
<title>Node0x55658c1dd238&#45;&gt;Node0x55658c1d5d08</title>
<path fill="none" stroke="#ff7f7f" d="M2202.83,-412.14C2276.14,-418.03 2383.08,-431.29 2472,-461 2767.07,-559.58 2961.35,-593.1 3018,-899 3052.48,-1085.17 3045.85,-1215.34 2877,-1301 2833.83,-1322.9 2542.07,-1340.83 2379.28,-1349.28"/>
<polygon fill="#ff7f7f" stroke="#ff7f7f" points="2379.04,-1345.79 2369.23,-1349.8 2379.4,-1352.78 2379.04,-1345.79"/>
</g>
<!-- Node0x55658c1dd238&#45;&gt;Node0x55658c1d6bb8 -->
<g id="edge150" class="edge">
<title>Node0x55658c1dd238&#45;&gt;Node0x55658c1d6bb8</title>
<path fill="none" stroke="#ff7f7f" d="M2202.67,-420.72C2321.87,-440.59 2527.71,-481.47 2581,-534 2616.45,-568.94 2613.44,-595.56 2602,-644 2543.78,-890.62 2402.53,-923.47 2164,-1009 2128.56,-1021.71 2088.52,-1033.49 2054.61,-1042.75"/>
<polygon fill="#ff7f7f" stroke="#ff7f7f" points="2053.49,-1039.43 2044.76,-1045.42 2055.32,-1046.18 2053.49,-1039.43"/>
</g>
<!-- Node0x55658c1dd238&#45;&gt;Node0x55658c1d75b8 -->
<g id="edge154" class="edge">
<title>Node0x55658c1dd238&#45;&gt;Node0x55658c1d75b8</title>
<path fill="none" stroke="#ff7f7f" d="M2179.22,-388.38C2198.65,-380.26 2218.46,-368.58 2232,-352 2284.84,-287.28 2254.87,-250.09 2275,-169 2277.14,-160.39 2279.56,-151.02 2281.78,-142.57"/>
<polygon fill="#ff7f7f" stroke="#ff7f7f" points="2285.18,-143.38 2284.35,-132.82 2278.41,-141.59 2285.18,-143.38"/>
</g>
<!-- Node0x55658c1dd238&#45;&gt;Node0x55658c1d7a68 -->
<g id="edge153" class="edge">
<title>Node0x55658c1dd238&#45;&gt;Node0x55658c1d7a68</title>
<path fill="none" stroke="#ff7f7f" d="M2056.18,-424.57C1979.63,-450.05 1850.54,-506.19 1797,-607 1758.93,-678.69 1816.79,-773.36 1849.74,-818.05"/>
<polygon fill="#ff7f7f" stroke="#ff7f7f" points="1847.15,-820.43 1855.96,-826.31 1852.74,-816.21 1847.15,-820.43"/>
</g>
<!-- Node0x55658c1dd238&#45;&gt;Node0x55658c1d57b8 -->
<g id="edge151" class="edge">
<title>Node0x55658c1dd238&#45;&gt;Node0x55658c1d57b8</title>
<path fill="none" stroke="#ff7f7f" d="M2089.04,-424.61C2055.05,-448.51 2001,-495.35 2001,-551.5 2001,-626.5 2001,-626.5 2001,-626.5 2001,-667.07 2001,-714.06 2001,-743.04"/>
<polygon fill="#ff7f7f" stroke="#ff7f7f" points="1997.5,-743.21 2001,-753.21 2004.5,-743.21 1997.5,-743.21"/>
</g>
<!-- Node0x55658c1dd238&#45;&gt;Node0x55658c1d53a8 -->
<g id="edge149" class="edge">
<title>Node0x55658c1dd238&#45;&gt;Node0x55658c1d53a8</title>
<path fill="none" stroke="#ff7f7f" d="M2128.32,-424.68C2163.43,-473.63 2264.11,-614 2305.69,-671.97"/>
<polygon fill="#ff7f7f" stroke="#ff7f7f" points="2302.94,-674.14 2311.61,-680.23 2308.63,-670.06 2302.94,-674.14"/>
</g>
<!-- Node0x55658c1dd238&#45;&gt;Node0x55658c1d61b8 -->
<g id="edge156" class="edge">
<title>Node0x55658c1dd238&#45;&gt;Node0x55658c1d61b8</title>
<path fill="none" stroke="#ff7f7f" d="M2120.5,-424.52C2148.39,-530.72 2294.65,-1099.73 2242,-1155 2207.19,-1191.54 1483.44,-1204.16 1227.62,-1207.49"/>
<polygon fill="#ff7f7f" stroke="#ff7f7f" points="1227.57,-1204 1217.62,-1207.62 1227.66,-1210.99 1227.57,-1204"/>
</g>
<!-- Node0x55658c1dd238&#45;&gt;Node0x55658c1d86e8 -->
<g id="edge155" class="edge">
<title>Node0x55658c1dd238&#45;&gt;Node0x55658c1d86e8</title>
<path fill="none" stroke="#ff7f7f" d="M2033.72,-424.54C1992.78,-433.84 1942.81,-446.43 1899,-461 1701.61,-526.66 1214.97,-718.31 1037,-826 968.71,-867.32 898.91,-930.51 862.9,-964.98"/>
<polygon fill="#ff7f7f" stroke="#ff7f7f" points="860.09,-962.82 855.32,-972.29 864.95,-967.86 860.09,-962.82"/>
</g>
<!-- Node0x55658c1dd238&#45;&gt;Node0x55658c1dc838 -->
<g id="edge152" class="edge">
<title>Node0x55658c1dd238&#45;&gt;Node0x55658c1dc838</title>
<path fill="none" stroke="#ff7f7f" d="M2050.22,-388.45C1974.51,-369.15 1846.29,-337.49 1735,-315 1661.89,-300.22 1578.8,-286.42 1515.61,-276.54"/>
<polygon fill="#ff7f7f" stroke="#ff7f7f" points="1516.06,-273.06 1505.64,-274.98 1514.99,-279.98 1516.06,-273.06"/>
</g>
<!-- Node0x55658c1dd238&#45;&gt;Node0x55658c1dce28 -->
<g id="edge157" class="edge">
<title>Node0x55658c1dd238&#45;&gt;Node0x55658c1dce28</title>
<path fill="none" stroke="#ff7f7f" d="M2107.94,-388.31C2106.09,-380.29 2104.62,-370.55 2103.85,-361.57"/>
<polygon fill="#ff7f7f" stroke="#ff7f7f" points="2107.35,-361.32 2103.3,-351.53 2100.36,-361.71 2107.35,-361.32"/>
</g>
</g>
</svg>
