<?xml version="1.0" encoding="UTF-8" standalone="no"?>
<!DOCTYPE svg PUBLIC "-//W3C//DTD SVG 1.1//EN"
 "http://www.w3.org/Graphics/SVG/1.1/DTD/svg11.dtd">
<!-- Generated by graphviz version 2.43.0 (0)
 -->
<!-- Title: bin/llvm&#45;objdump Pages: 1 -->
<svg width="3202pt" height="1163pt"
 viewBox="0.00 0.00 3202.26 1163.00" xmlns="http://www.w3.org/2000/svg" xmlns:xlink="http://www.w3.org/1999/xlink">
<g id="graph0" class="graph" transform="scale(1 1) rotate(0) translate(4 1159)">
<title>bin/llvm&#45;objdump</title>
<polygon fill="white" stroke="transparent" points="-4,4 -4,-1159 3198.26,-1159 3198.26,4 -4,4"/>
<text text-anchor="middle" x="1597.13" y="-7.8" font-family="Times,serif" font-size="14.00">bin/llvm&#45;objdump</text>
<!-- Node0x55563edabd68 -->
<g id="node1" class="node">
<title>Node0x55563edabd68</title>
<polygon fill="#ff7f7f" stroke="black" points="1327.5,-1045.5 1327.5,-1081.5 1840.5,-1081.5 1840.5,-1045.5 1327.5,-1045.5"/>
<text text-anchor="middle" x="1584" y="-1059.8" font-family="Times,serif" font-size="14.00">tools/llvm&#45;objdump/CMakeFiles/llvm&#45;objdump.dir/llvm&#45;objdump.cpp.o</text>
</g>
<!-- Node0x55563edab8b8 -->
<g id="node2" class="node">
<title>Node0x55563edab8b8</title>
<polygon fill="#ff7f7f" stroke="black" points="399,-972.5 399,-1008.5 899,-1008.5 899,-972.5 399,-972.5"/>
<text text-anchor="middle" x="649" y="-986.8" font-family="Times,serif" font-size="14.00">tools/llvm&#45;objdump/CMakeFiles/llvm&#45;objdump.dir/COFFDump.cpp.o</text>
</g>
<!-- Node0x55563edabd68&#45;&gt;Node0x55563edab8b8 -->
<g id="edge1" class="edge">
<title>Node0x55563edabd68&#45;&gt;Node0x55563edab8b8</title>
<path fill="none" stroke="#ff7f7f" d="M1354.19,-1045.49C1209.12,-1034.57 1022.48,-1020.4 877.65,-1009.31"/>
<polygon fill="#ff7f7f" stroke="#ff7f7f" points="877.53,-1005.79 867.29,-1008.52 876.99,-1012.77 877.53,-1005.79"/>
</g>
<!-- Node0x55563edb0098 -->
<g id="node3" class="node">
<title>Node0x55563edb0098</title>
<polygon fill="#ff7f7f" stroke="black" points="264,-96.5 264,-132.5 752,-132.5 752,-96.5 264,-96.5"/>
<text text-anchor="middle" x="508" y="-110.8" font-family="Times,serif" font-size="14.00">tools/llvm&#45;objdump/CMakeFiles/llvm&#45;objdump.dir/ELFDump.cpp.o</text>
</g>
<!-- Node0x55563edabd68&#45;&gt;Node0x55563edb0098 -->
<g id="edge2" class="edge">
<title>Node0x55563edabd68&#45;&gt;Node0x55563edb0098</title>
<path fill="none" stroke="#ff7f7f" d="M1327.34,-1060.34C944.87,-1055.98 265.6,-1043.39 224,-1009 79.97,-889.94 127.96,-298.16 263,-169 278.38,-154.29 318.57,-142.84 362.06,-134.38"/>
<polygon fill="#ff7f7f" stroke="#ff7f7f" points="362.8,-137.8 371.98,-132.51 361.51,-130.92 362.8,-137.8"/>
</g>
<!-- Node0x55563edaf878 -->
<g id="node4" class="node">
<title>Node0x55563edaf878</title>
<polygon fill="#ff7f7f" stroke="black" points="597.5,-242.5 597.5,-278.5 1106.5,-278.5 1106.5,-242.5 597.5,-242.5"/>
<text text-anchor="middle" x="852" y="-256.8" font-family="Times,serif" font-size="14.00">tools/llvm&#45;objdump/CMakeFiles/llvm&#45;objdump.dir/MachODump.cpp.o</text>
</g>
<!-- Node0x55563edabd68&#45;&gt;Node0x55563edaf878 -->
<g id="edge3" class="edge">
<title>Node0x55563edabd68&#45;&gt;Node0x55563edaf878</title>
<path fill="none" stroke="#ff7f7f" d="M1327.33,-1061.18C951.13,-1057.96 290.4,-1046.91 254,-1009 133.16,-883.17 254.79,-727.36 750,-315 764.49,-302.93 782.07,-292.04 798.58,-283.28"/>
<polygon fill="#ff7f7f" stroke="#ff7f7f" points="800.32,-286.33 807.62,-278.64 797.12,-280.1 800.32,-286.33"/>
</g>
<!-- Node0x55563edaf198 -->
<g id="node5" class="node">
<title>Node0x55563edaf198</title>
<polygon fill="#ff7f7f" stroke="black" points="1327.5,-972.5 1327.5,-1008.5 1828.5,-1008.5 1828.5,-972.5 1327.5,-972.5"/>
<text text-anchor="middle" x="1578" y="-986.8" font-family="Times,serif" font-size="14.00">tools/llvm&#45;objdump/CMakeFiles/llvm&#45;objdump.dir/WasmDump.cpp.o</text>
</g>
<!-- Node0x55563edabd68&#45;&gt;Node0x55563edaf198 -->
<g id="edge4" class="edge">
<title>Node0x55563edabd68&#45;&gt;Node0x55563edaf198</title>
<path fill="none" stroke="#ff7f7f" d="M1576.67,-1045.31C1575.15,-1037.29 1574.1,-1027.55 1573.71,-1018.57"/>
<polygon fill="#ff7f7f" stroke="#ff7f7f" points="1577.21,-1018.48 1573.58,-1008.53 1570.21,-1018.57 1577.21,-1018.48"/>
</g>
<!-- Node0x55563edaeb08 -->
<g id="node6" class="node">
<title>Node0x55563edaeb08</title>
<polygon fill="#ff7f7f" stroke="black" points="2017.5,-972.5 2017.5,-1008.5 2526.5,-1008.5 2526.5,-972.5 2017.5,-972.5"/>
<text text-anchor="middle" x="2272" y="-986.8" font-family="Times,serif" font-size="14.00">tools/llvm&#45;objdump/CMakeFiles/llvm&#45;objdump.dir/XCOFFDump.cpp.o</text>
</g>
<!-- Node0x55563edabd68&#45;&gt;Node0x55563edaeb08 -->
<g id="edge5" class="edge">
<title>Node0x55563edabd68&#45;&gt;Node0x55563edaeb08</title>
<path fill="none" stroke="#ff7f7f" d="M1742.93,-1045.49C1846.93,-1034.64 1983.03,-1020.59 2091.16,-1009.55"/>
<polygon fill="#ff7f7f" stroke="#ff7f7f" points="2091.61,-1013.02 2101.2,-1008.52 2090.9,-1006.06 2091.61,-1013.02"/>
</g>
<!-- Node0x55563eda19f8 -->
<g id="node7" class="node">
<title>Node0x55563eda19f8</title>
<polygon fill="#ff7f7f" stroke="black" points="2055.5,-315.5 2055.5,-351.5 2228.5,-351.5 2228.5,-315.5 2055.5,-315.5"/>
<text text-anchor="middle" x="2142" y="-329.8" font-family="Times,serif" font-size="14.00">lib/libLLVMX86Desc.a</text>
</g>
<!-- Node0x55563edabd68&#45;&gt;Node0x55563eda19f8 -->
<g id="edge6" class="edge">
<title>Node0x55563edabd68&#45;&gt;Node0x55563eda19f8</title>
<path fill="none" stroke="#ff7f7f" d="M1840.68,-1062.55C2116.57,-1060.4 2523.83,-1050.13 2584,-1009 2842.31,-832.43 2312.83,-454.47 2174.05,-357.53"/>
<polygon fill="#ff7f7f" stroke="#ff7f7f" points="2175.69,-354.41 2165.49,-351.56 2171.69,-360.15 2175.69,-354.41"/>
</g>
<!-- Node0x55563eda1ef8 -->
<g id="node8" class="node">
<title>Node0x55563eda1ef8</title>
<polygon fill="#ff7f7f" stroke="black" points="2733.5,-972.5 2733.5,-1008.5 2966.5,-1008.5 2966.5,-972.5 2733.5,-972.5"/>
<text text-anchor="middle" x="2850" y="-986.8" font-family="Times,serif" font-size="14.00">lib/libLLVMX86Disassembler.a</text>
</g>
<!-- Node0x55563edabd68&#45;&gt;Node0x55563eda1ef8 -->
<g id="edge7" class="edge">
<title>Node0x55563edabd68&#45;&gt;Node0x55563eda1ef8</title>
<path fill="none" stroke="#ff7f7f" d="M1840.53,-1053.94C2063.01,-1045.57 2393.55,-1030.88 2681,-1009 2694.61,-1007.96 2708.82,-1006.73 2722.97,-1005.41"/>
<polygon fill="#ff7f7f" stroke="#ff7f7f" points="2723.63,-1008.86 2733.25,-1004.43 2722.96,-1001.89 2723.63,-1008.86"/>
</g>
<!-- Node0x55563eda37f8 -->
<g id="node9" class="node">
<title>Node0x55563eda37f8</title>
<polygon fill="#ff7f7f" stroke="black" points="2569,-242.5 2569,-278.5 2735,-278.5 2735,-242.5 2569,-242.5"/>
<text text-anchor="middle" x="2652" y="-256.8" font-family="Times,serif" font-size="14.00">lib/libLLVMX86Info.a</text>
</g>
<!-- Node0x55563edabd68&#45;&gt;Node0x55563eda37f8 -->
<g id="edge8" class="edge">
<title>Node0x55563edabd68&#45;&gt;Node0x55563eda37f8</title>
<path fill="none" stroke="#ff7f7f" d="M1840.85,-1061.71C2232.33,-1059.22 2937.35,-1049.16 2976,-1009 2987.4,-997.15 2980.55,-987.8 2976,-972 2936.46,-834.59 2805,-842.48 2805,-699.5 2805,-699.5 2805,-699.5 2805,-405.5 2805,-347.66 2746.29,-306.22 2701.61,-283.06"/>
<polygon fill="#ff7f7f" stroke="#ff7f7f" points="2703.11,-279.89 2692.6,-278.53 2699.96,-286.15 2703.11,-279.89"/>
</g>
<!-- Node0x55563eda2df8 -->
<g id="node10" class="node">
<title>Node0x55563eda2df8</title>
<polygon fill="#ff7f7f" stroke="black" points="1109.5,-169.5 1109.5,-205.5 1346.5,-205.5 1346.5,-169.5 1109.5,-169.5"/>
<text text-anchor="middle" x="1228" y="-183.8" font-family="Times,serif" font-size="14.00">lib/libLLVMDebugInfoDWARF.a</text>
</g>
<!-- Node0x55563edabd68&#45;&gt;Node0x55563eda2df8 -->
<g id="edge9" class="edge">
<title>Node0x55563edabd68&#45;&gt;Node0x55563eda2df8</title>
<path fill="none" stroke="#ff7f7f" d="M1327.23,-1060.24C977,-1055.87 388.92,-1043.4 356,-1009 234.13,-881.66 418.19,-349.33 558,-242 599.57,-210.09 916.32,-196.51 1099.06,-191.33"/>
<polygon fill="#ff7f7f" stroke="#ff7f7f" points="1099.38,-194.82 1109.28,-191.04 1099.19,-187.82 1099.38,-194.82"/>
</g>
<!-- Node0x55563edaa0f8 -->
<g id="node11" class="node">
<title>Node0x55563edaa0f8</title>
<polygon fill="none" stroke="black" points="571,-23.5 571,-59.5 753,-59.5 753,-23.5 571,-23.5"/>
<text text-anchor="middle" x="662" y="-37.8" font-family="Times,serif" font-size="14.00">lib/libLLVMDemangle.a</text>
</g>
<!-- Node0x55563edabd68&#45;&gt;Node0x55563edaa0f8 -->
<g id="edge10" class="edge">
<title>Node0x55563edabd68&#45;&gt;Node0x55563edaa0f8</title>
<path fill="none" stroke="black" d="M1840.53,-1059.03C2245.87,-1052.71 2994.17,-1037.29 3046,-1009 3089.02,-985.52 3109,-967.51 3109,-918.5 3109,-918.5 3109,-918.5 3109,-186.5 3109,-157.64 3467.97,-187.07 2709,-96 2325.96,-50.04 1121.07,-43.56 763.19,-42.65"/>
<polygon fill="black" stroke="black" points="763.12,-39.15 753.11,-42.62 763.1,-46.15 763.12,-39.15"/>
</g>
<!-- Node0x55563eda9bf8 -->
<g id="node12" class="node">
<title>Node0x55563eda9bf8</title>
<polygon fill="#ff7f7f" stroke="black" points="1873.5,-388.5 1873.5,-424.5 2008.5,-424.5 2008.5,-388.5 1873.5,-388.5"/>
<text text-anchor="middle" x="1941" y="-402.8" font-family="Times,serif" font-size="14.00">lib/libLLVMMC.a</text>
</g>
<!-- Node0x55563edabd68&#45;&gt;Node0x55563eda9bf8 -->
<g id="edge11" class="edge">
<title>Node0x55563edabd68&#45;&gt;Node0x55563eda9bf8</title>
<path fill="none" stroke="#ff7f7f" d="M1840.67,-1056.87C2117.97,-1049.57 2523.75,-1034.62 2548,-1009 2771.21,-773.18 2172.01,-504.45 1990.94,-428.47"/>
<polygon fill="#ff7f7f" stroke="#ff7f7f" points="1992.21,-425.21 1981.63,-424.58 1989.51,-431.67 1992.21,-425.21"/>
</g>
<!-- Node0x55563eda96f8 -->
<g id="node13" class="node">
<title>Node0x55563eda96f8</title>
<polygon fill="#ff7f7f" stroke="black" points="2163,-169.5 2163,-205.5 2393,-205.5 2393,-169.5 2163,-169.5"/>
<text text-anchor="middle" x="2278" y="-183.8" font-family="Times,serif" font-size="14.00">lib/libLLVMMCDisassembler.a</text>
</g>
<!-- Node0x55563edabd68&#45;&gt;Node0x55563eda96f8 -->
<g id="edge12" class="edge">
<title>Node0x55563edabd68&#45;&gt;Node0x55563eda96f8</title>
<path fill="none" stroke="#ff7f7f" d="M1840.76,-1061.84C2236.37,-1059.55 2953.76,-1049.75 2993,-1009 3004.41,-997.15 2994.08,-988.41 2993,-972 2984.98,-850.1 2957,-821.66 2957,-699.5 2957,-699.5 2957,-699.5 2957,-551.5 2957,-394.13 2923.25,-317.18 2785,-242 2721.36,-207.39 2531.81,-195.17 2403.4,-190.85"/>
<polygon fill="#ff7f7f" stroke="#ff7f7f" points="2403.21,-187.34 2393.1,-190.52 2402.98,-194.34 2403.21,-187.34"/>
</g>
<!-- Node0x55563eda91f8 -->
<g id="node14" class="node">
<title>Node0x55563eda91f8</title>
<polygon fill="#ff7f7f" stroke="black" points="1195.5,-826.5 1195.5,-862.5 1352.5,-862.5 1352.5,-826.5 1195.5,-826.5"/>
<text text-anchor="middle" x="1274" y="-840.8" font-family="Times,serif" font-size="14.00">lib/libLLVMObject.a</text>
</g>
<!-- Node0x55563edabd68&#45;&gt;Node0x55563eda91f8 -->
<g id="edge13" class="edge">
<title>Node0x55563edabd68&#45;&gt;Node0x55563eda91f8</title>
<path fill="none" stroke="#ff7f7f" d="M1329.68,-1045.42C1287.32,-1037.48 1252.42,-1025.89 1238,-1009 1204.9,-970.24 1230.55,-906.82 1252.46,-871.44"/>
<polygon fill="#ff7f7f" stroke="#ff7f7f" points="1255.66,-872.94 1258.21,-862.66 1249.8,-869.11 1255.66,-872.94"/>
</g>
<!-- Node0x55563edab4f8 -->
<g id="node15" class="node">
<title>Node0x55563edab4f8</title>
<polygon fill="#ff7f7f" stroke="black" points="1842,-899.5 1842,-935.5 2010,-935.5 2010,-899.5 1842,-899.5"/>
<text text-anchor="middle" x="1926" y="-913.8" font-family="Times,serif" font-size="14.00">lib/libLLVMSupport.a</text>
</g>
<!-- Node0x55563edabd68&#45;&gt;Node0x55563edab4f8 -->
<g id="edge14" class="edge">
<title>Node0x55563edabd68&#45;&gt;Node0x55563edab4f8</title>
<path fill="none" stroke="#ff7f7f" d="M1728.23,-1045.47C1762.61,-1037.55 1798.21,-1025.96 1829,-1009 1857.98,-993.04 1883.38,-964.43 1901.19,-943.64"/>
<polygon fill="#ff7f7f" stroke="#ff7f7f" points="1904.04,-945.7 1907.88,-935.83 1898.72,-941.15 1904.04,-945.7"/>
</g>
<!-- Node0x55563edaaff8 -->
<g id="node16" class="node">
<title>Node0x55563edaaff8</title>
<polygon fill="#ff7f7f" stroke="black" points="955,-972.5 955,-1008.5 1139,-1008.5 1139,-972.5 955,-972.5"/>
<text text-anchor="middle" x="1047" y="-986.8" font-family="Times,serif" font-size="14.00">lib/libLLVMSymbolize.a</text>
</g>
<!-- Node0x55563edabd68&#45;&gt;Node0x55563edaaff8 -->
<g id="edge15" class="edge">
<title>Node0x55563edabd68&#45;&gt;Node0x55563edaaff8</title>
<path fill="none" stroke="#ff7f7f" d="M1427.01,-1045.49C1345.73,-1035.97 1244.73,-1023.42 1149.36,-1009.76"/>
<polygon fill="#ff7f7f" stroke="#ff7f7f" points="1149.65,-1006.27 1139.26,-1008.31 1148.66,-1013.2 1149.65,-1006.27"/>
</g>
<!-- Node0x55563edab8b8&#45;&gt;Node0x55563edabd68 -->
<g id="edge16" class="edge">
<title>Node0x55563edab8b8&#45;&gt;Node0x55563edabd68</title>
<path fill="none" stroke="#ff7f7f" d="M879.01,-1008.52C1024.11,-1019.45 1210.75,-1033.62 1355.55,-1044.7"/>
<polygon fill="#ff7f7f" stroke="#ff7f7f" points="1355.67,-1048.22 1365.9,-1045.49 1356.2,-1041.24 1355.67,-1048.22"/>
</g>
<!-- Node0x55563edab8b8&#45;&gt;Node0x55563edaa0f8 -->
<g id="edge17" class="edge">
<title>Node0x55563edab8b8&#45;&gt;Node0x55563edaa0f8</title>
<path fill="none" stroke="black" d="M571.41,-972.47C539.35,-963.85 502.42,-951.81 471,-936 234.97,-817.26 89,-744.71 89,-480.5 89,-480.5 89,-480.5 89,-186.5 89,-137.74 109.11,-120.95 151,-96 217.97,-56.11 431.65,-45.75 560.52,-43.19"/>
<polygon fill="black" stroke="black" points="560.87,-46.69 570.8,-43 560.74,-39.69 560.87,-46.69"/>
</g>
<!-- Node0x55563edab8b8&#45;&gt;Node0x55563eda91f8 -->
<g id="edge18" class="edge">
<title>Node0x55563edab8b8&#45;&gt;Node0x55563eda91f8</title>
<path fill="none" stroke="#ff7f7f" d="M693.58,-972.49C751.7,-952.72 856.35,-920.12 948,-899 1027.41,-880.7 1119.35,-865.87 1185.37,-856.51"/>
<polygon fill="#ff7f7f" stroke="#ff7f7f" points="1185.91,-859.97 1195.33,-855.11 1184.94,-853.03 1185.91,-859.97"/>
</g>
<!-- Node0x55563edab8b8&#45;&gt;Node0x55563edab4f8 -->
<g id="edge19" class="edge">
<title>Node0x55563edab8b8&#45;&gt;Node0x55563edab4f8</title>
<path fill="none" stroke="#ff7f7f" d="M899.17,-974.16C911.96,-973.43 924.62,-972.7 937,-972 1265.33,-953.36 1655.62,-932.42 1831.68,-923.24"/>
<polygon fill="#ff7f7f" stroke="#ff7f7f" points="1831.88,-926.73 1841.69,-922.72 1831.52,-919.74 1831.88,-926.73"/>
</g>
<!-- Node0x55563edb0098&#45;&gt;Node0x55563edabd68 -->
<g id="edge20" class="edge">
<title>Node0x55563edb0098&#45;&gt;Node0x55563edabd68</title>
<path fill="none" stroke="#ff7f7f" d="M388.59,-132.51C342.79,-141.13 297.55,-153.17 281,-169 145.96,-298.16 97.97,-889.94 242,-1009 282.83,-1042.75 937.88,-1055.5 1317.44,-1060.09"/>
<polygon fill="#ff7f7f" stroke="#ff7f7f" points="1317.43,-1063.59 1327.47,-1060.21 1317.51,-1056.59 1317.43,-1063.59"/>
</g>
<!-- Node0x55563edb0098&#45;&gt;Node0x55563edab8b8 -->
<g id="edge21" class="edge">
<title>Node0x55563edb0098&#45;&gt;Node0x55563edab8b8</title>
<path fill="none" stroke="#ff7f7f" d="M393.71,-132.52C349.65,-141.31 306.22,-153.49 291,-169 266.31,-194.17 221,-443.24 221,-478.5 221,-553.5 221,-553.5 221,-553.5 221,-767.84 487.66,-915.46 600.02,-968.14"/>
<polygon fill="#ff7f7f" stroke="#ff7f7f" points="598.57,-971.33 609.12,-972.36 601.52,-964.98 598.57,-971.33"/>
</g>
<!-- Node0x55563edb0098&#45;&gt;Node0x55563edaa0f8 -->
<g id="edge22" class="edge">
<title>Node0x55563edb0098&#45;&gt;Node0x55563edaa0f8</title>
<path fill="none" stroke="black" d="M544.89,-96.49C566.16,-86.69 593.1,-74.27 615.78,-63.81"/>
<polygon fill="black" stroke="black" points="617.26,-66.98 624.88,-59.61 614.33,-60.62 617.26,-66.98"/>
</g>
<!-- Node0x55563edb0098&#45;&gt;Node0x55563eda91f8 -->
<g id="edge23" class="edge">
<title>Node0x55563edb0098&#45;&gt;Node0x55563eda91f8</title>
<path fill="none" stroke="#ff7f7f" d="M510.01,-132.76C508.83,-172.27 498.26,-272.08 518,-352 545.24,-462.33 572.56,-487.82 650,-571 760.54,-689.73 792.56,-726.89 942,-790 1020.24,-823.04 1116.36,-835.89 1185.06,-840.79"/>
<polygon fill="#ff7f7f" stroke="#ff7f7f" points="1185.21,-844.3 1195.42,-841.48 1185.67,-837.32 1185.21,-844.3"/>
</g>
<!-- Node0x55563edb0098&#45;&gt;Node0x55563edab4f8 -->
<g id="edge24" class="edge">
<title>Node0x55563edb0098&#45;&gt;Node0x55563edab4f8</title>
<path fill="none" stroke="#ff7f7f" d="M752.01,-120.68C1041.74,-127.95 1507.24,-143.25 1679,-169 1936.77,-207.64 2087.27,-109.02 2247,-315 2376.63,-482.16 2324.82,-608.01 2217,-790 2194.86,-827.38 2189.2,-840.57 2152,-863 2112.55,-886.79 2063.01,-900.02 2020.33,-907.37"/>
<polygon fill="#ff7f7f" stroke="#ff7f7f" points="2019.52,-903.95 2010.21,-909.02 2020.65,-910.86 2019.52,-903.95"/>
</g>
<!-- Node0x55563edaf878&#45;&gt;Node0x55563edabd68 -->
<g id="edge25" class="edge">
<title>Node0x55563edaf878&#45;&gt;Node0x55563edabd68</title>
<path fill="none" stroke="#ff7f7f" d="M823.76,-278.64C806.68,-288.05 785.18,-300.7 768,-315 272.79,-727.36 151.16,-883.17 272,-1009 307.71,-1046.18 944.02,-1057.53 1317.16,-1060.98"/>
<polygon fill="#ff7f7f" stroke="#ff7f7f" points="1317.26,-1064.49 1327.29,-1061.08 1317.33,-1057.49 1317.26,-1064.49"/>
</g>
<!-- Node0x55563edaf878&#45;&gt;Node0x55563edab8b8 -->
<g id="edge26" class="edge">
<title>Node0x55563edaf878&#45;&gt;Node0x55563edab8b8</title>
<path fill="none" stroke="#ff7f7f" d="M833.02,-278.54C782.87,-325.06 647.58,-460.59 603,-607 563.69,-736.1 614.92,-899.3 638.39,-962.66"/>
<polygon fill="#ff7f7f" stroke="#ff7f7f" points="635.22,-964.17 642.03,-972.29 641.77,-961.69 635.22,-964.17"/>
</g>
<!-- Node0x55563edaf878&#45;&gt;Node0x55563edb0098 -->
<g id="edge27" class="edge">
<title>Node0x55563edaf878&#45;&gt;Node0x55563edb0098</title>
<path fill="none" stroke="#ff7f7f" d="M811.19,-242.42C747.96,-215.95 626.49,-165.1 558.05,-136.45"/>
<polygon fill="#ff7f7f" stroke="#ff7f7f" points="559.33,-133.19 548.76,-132.56 556.63,-139.65 559.33,-133.19"/>
</g>
<!-- Node0x55563edaf878&#45;&gt;Node0x55563eda2df8 -->
<g id="edge28" class="edge">
<title>Node0x55563edaf878&#45;&gt;Node0x55563eda2df8</title>
<path fill="none" stroke="#ff7f7f" d="M936.2,-242.49C991.05,-231.93 1063.01,-218.32 1121.77,-207.42"/>
<polygon fill="#ff7f7f" stroke="#ff7f7f" points="1122.64,-210.82 1131.83,-205.55 1121.36,-203.93 1122.64,-210.82"/>
</g>
<!-- Node0x55563edaf878&#45;&gt;Node0x55563edaa0f8 -->
<g id="edge29" class="edge">
<title>Node0x55563edaf878&#45;&gt;Node0x55563edaa0f8</title>
<path fill="none" stroke="black" d="M846.1,-242.17C834.38,-209.88 805.38,-139.83 761,-96 747.99,-83.15 731.25,-72.54 715.25,-64.25"/>
<polygon fill="black" stroke="black" points="716.47,-60.95 705.96,-59.64 713.36,-67.22 716.47,-60.95"/>
</g>
<!-- Node0x55563edaf878&#45;&gt;Node0x55563eda9bf8 -->
<g id="edge30" class="edge">
<title>Node0x55563edaf878&#45;&gt;Node0x55563eda9bf8</title>
<path fill="none" stroke="#ff7f7f" d="M1012.71,-278.51C1102.18,-288.59 1215.44,-301.91 1316,-315 1513.66,-340.72 1745.4,-374.8 1863.46,-392.92"/>
<polygon fill="#ff7f7f" stroke="#ff7f7f" points="1863.08,-396.4 1873.49,-394.46 1864.14,-389.48 1863.08,-396.4"/>
</g>
<!-- Node0x55563edaf878&#45;&gt;Node0x55563eda96f8 -->
<g id="edge31" class="edge">
<title>Node0x55563edaf878&#45;&gt;Node0x55563eda96f8</title>
<path fill="none" stroke="#ff7f7f" d="M1106.53,-246.83C1414.11,-231.51 1919.37,-206.36 2152.7,-194.74"/>
<polygon fill="#ff7f7f" stroke="#ff7f7f" points="2153.11,-198.22 2162.92,-194.23 2152.76,-191.23 2153.11,-198.22"/>
</g>
<!-- Node0x55563edaf878&#45;&gt;Node0x55563eda91f8 -->
<g id="edge32" class="edge">
<title>Node0x55563edaf878&#45;&gt;Node0x55563eda91f8</title>
<path fill="none" stroke="#ff7f7f" d="M850.48,-278.88C843.2,-305.6 825,-358.6 825,-405.5 825,-553.5 825,-553.5 825,-553.5 825,-688.33 893.79,-730.95 1015,-790 1068.38,-816.01 1133.63,-829.37 1185.32,-836.24"/>
<polygon fill="#ff7f7f" stroke="#ff7f7f" points="1185.11,-839.74 1195.47,-837.53 1185.99,-832.8 1185.11,-839.74"/>
</g>
<!-- Node0x55563edaf878&#45;&gt;Node0x55563edab4f8 -->
<g id="edge33" class="edge">
<title>Node0x55563edaf878&#45;&gt;Node0x55563edab4f8</title>
<path fill="none" stroke="#ff7f7f" d="M979.02,-278.52C1118.56,-302.2 1344.78,-354.74 1511,-461 1703,-583.74 1866.45,-813.44 1913.02,-890.52"/>
<polygon fill="#ff7f7f" stroke="#ff7f7f" points="1910.01,-892.32 1918.11,-899.15 1916.04,-888.76 1910.01,-892.32"/>
</g>
<!-- Node0x55563edaf198&#45;&gt;Node0x55563edabd68 -->
<g id="edge34" class="edge">
<title>Node0x55563edaf198&#45;&gt;Node0x55563edabd68</title>
<path fill="none" stroke="#ff7f7f" d="M1585.3,-1008.53C1586.82,-1016.53 1587.89,-1026.27 1588.28,-1035.25"/>
<polygon fill="#ff7f7f" stroke="#ff7f7f" points="1584.78,-1035.36 1588.43,-1045.31 1591.78,-1035.26 1584.78,-1035.36"/>
</g>
<!-- Node0x55563edaf198&#45;&gt;Node0x55563eda91f8 -->
<g id="edge35" class="edge">
<title>Node0x55563edaf198&#45;&gt;Node0x55563eda91f8</title>
<path fill="none" stroke="#ff7f7f" d="M1541.93,-972.42C1486.4,-946.11 1380.02,-895.72 1319.35,-866.98"/>
<polygon fill="#ff7f7f" stroke="#ff7f7f" points="1320.56,-863.68 1310.02,-862.56 1317.56,-870.01 1320.56,-863.68"/>
</g>
<!-- Node0x55563edaf198&#45;&gt;Node0x55563edab4f8 -->
<g id="edge36" class="edge">
<title>Node0x55563edaf198&#45;&gt;Node0x55563edab4f8</title>
<path fill="none" stroke="#ff7f7f" d="M1661.35,-972.49C1712.94,-961.97 1779.27,-948.44 1832.62,-937.55"/>
<polygon fill="#ff7f7f" stroke="#ff7f7f" points="1833.32,-940.98 1842.42,-935.55 1831.92,-934.12 1833.32,-940.98"/>
</g>
<!-- Node0x55563edaeb08&#45;&gt;Node0x55563edabd68 -->
<g id="edge37" class="edge">
<title>Node0x55563edaeb08&#45;&gt;Node0x55563edabd68</title>
<path fill="none" stroke="#ff7f7f" d="M2112.92,-1008.52C2008.9,-1019.37 1872.8,-1033.42 1764.69,-1044.47"/>
<polygon fill="#ff7f7f" stroke="#ff7f7f" points="1764.24,-1041 1754.65,-1045.49 1764.96,-1047.96 1764.24,-1041"/>
</g>
<!-- Node0x55563edaeb08&#45;&gt;Node0x55563edaa0f8 -->
<g id="edge39" class="edge">
<title>Node0x55563edaeb08&#45;&gt;Node0x55563edaa0f8</title>
<path fill="none" stroke="black" d="M2526.6,-977.94C2588.51,-969.88 2653.67,-956.85 2712,-936 2878.87,-876.35 3033,-876.71 3033,-699.5 3033,-699.5 3033,-699.5 3033,-186.5 3033,-70.98 1216.03,-47.36 763.25,-43.27"/>
<polygon fill="black" stroke="black" points="763.16,-39.77 753.13,-43.18 763.1,-46.77 763.16,-39.77"/>
</g>
<!-- Node0x55563edaeb08&#45;&gt;Node0x55563eda91f8 -->
<g id="edge40" class="edge">
<title>Node0x55563edaeb08&#45;&gt;Node0x55563eda91f8</title>
<path fill="none" stroke="#ff7f7f" d="M2031.29,-972.5C1949.59,-964.1 1869.7,-952.21 1833,-936 1809.94,-925.81 1813.15,-908.98 1790,-899 1770.69,-890.68 1504.91,-866.02 1362.57,-853.3"/>
<polygon fill="#ff7f7f" stroke="#ff7f7f" points="1362.81,-849.8 1352.54,-852.4 1362.19,-856.78 1362.81,-849.8"/>
</g>
<!-- Node0x55563edaeb08&#45;&gt;Node0x55563edab4f8 -->
<g id="edge41" class="edge">
<title>Node0x55563edaeb08&#45;&gt;Node0x55563edab4f8</title>
<path fill="none" stroke="#ff7f7f" d="M2189.12,-972.49C2137.94,-961.99 2072.16,-948.49 2019.18,-937.62"/>
<polygon fill="#ff7f7f" stroke="#ff7f7f" points="2019.6,-934.13 2009.1,-935.55 2018.19,-940.99 2019.6,-934.13"/>
</g>
<!-- Node0x55563eda3cf8 -->
<g id="node17" class="node">
<title>Node0x55563eda3cf8</title>
<polygon fill="#ff7f7f" stroke="black" points="1836.5,-96.5 1836.5,-132.5 2045.5,-132.5 2045.5,-96.5 1836.5,-96.5"/>
<text text-anchor="middle" x="1941" y="-110.8" font-family="Times,serif" font-size="14.00">lib/libLLVMBinaryFormat.a</text>
</g>
<!-- Node0x55563edaeb08&#45;&gt;Node0x55563eda3cf8 -->
<g id="edge38" class="edge">
<title>Node0x55563edaeb08&#45;&gt;Node0x55563eda3cf8</title>
<path fill="none" stroke="#ff7f7f" d="M2494.88,-972.47C2668.77,-945.56 2881,-876.47 2881,-699.5 2881,-699.5 2881,-699.5 2881,-551.5 2881,-449.31 2957,-436.69 2957,-334.5 2957,-334.5 2957,-334.5 2957,-259.5 2957,-169.36 2321.93,-131.74 2055.98,-119.94"/>
<polygon fill="#ff7f7f" stroke="#ff7f7f" points="2056.05,-116.44 2045.9,-119.5 2055.74,-123.43 2056.05,-116.44"/>
</g>
<!-- Node0x55563eda19f8&#45;&gt;Node0x55563edabd68 -->
<g id="edge46" class="edge">
<title>Node0x55563eda19f8&#45;&gt;Node0x55563edabd68</title>
<path fill="none" stroke="#ff7f7f" d="M2170.94,-351.56C2307.2,-437.78 2865.99,-828.55 2602,-1009 2541.63,-1050.27 2131.8,-1060.47 1850.89,-1062.57"/>
<polygon fill="#ff7f7f" stroke="#ff7f7f" points="1850.52,-1059.08 1840.54,-1062.65 1850.57,-1066.08 1850.52,-1059.08"/>
</g>
<!-- Node0x55563eda19f8&#45;&gt;Node0x55563edab8b8 -->
<g id="edge47" class="edge">
<title>Node0x55563eda19f8&#45;&gt;Node0x55563edab8b8</title>
<path fill="none" stroke="#ff7f7f" d="M2055.38,-341.78C1811.48,-363.34 1123.71,-431.85 924,-534 778.38,-608.48 772.26,-679.26 700,-826 684.27,-857.94 677.88,-865.1 667,-899 660.33,-919.78 655.66,-944.08 652.75,-962.26"/>
<polygon fill="#ff7f7f" stroke="#ff7f7f" points="649.29,-961.78 651.24,-972.19 656.21,-962.83 649.29,-961.78"/>
</g>
<!-- Node0x55563eda19f8&#45;&gt;Node0x55563edaf878 -->
<g id="edge48" class="edge">
<title>Node0x55563eda19f8&#45;&gt;Node0x55563edaf878</title>
<path fill="none" stroke="#ff7f7f" d="M2055.36,-327.73C1866.31,-317.33 1410.28,-292.23 1117.06,-276.09"/>
<polygon fill="#ff7f7f" stroke="#ff7f7f" points="1116.88,-272.57 1106.7,-275.52 1116.49,-279.56 1116.88,-272.57"/>
</g>
<!-- Node0x55563eda19f8&#45;&gt;Node0x55563eda37f8 -->
<g id="edge42" class="edge">
<title>Node0x55563eda19f8&#45;&gt;Node0x55563eda37f8</title>
<path fill="none" stroke="#ff7f7f" d="M2228.51,-320.46C2320.23,-307.69 2464.59,-287.59 2558.78,-274.48"/>
<polygon fill="#ff7f7f" stroke="#ff7f7f" points="2559.45,-277.92 2568.87,-273.07 2558.49,-270.98 2559.45,-277.92"/>
</g>
<!-- Node0x55563eda19f8&#45;&gt;Node0x55563eda9bf8 -->
<g id="edge43" class="edge">
<title>Node0x55563eda19f8&#45;&gt;Node0x55563eda9bf8</title>
<path fill="none" stroke="#ff7f7f" d="M2099.42,-351.61C2071.92,-361.7 2035.72,-374.53 2004.83,-385.13"/>
<polygon fill="#ff7f7f" stroke="#ff7f7f" points="2003.33,-381.95 1995,-388.49 2005.6,-388.57 2003.33,-381.95"/>
</g>
<!-- Node0x55563eda19f8&#45;&gt;Node0x55563eda96f8 -->
<g id="edge44" class="edge">
<title>Node0x55563eda19f8&#45;&gt;Node0x55563eda96f8</title>
<path fill="none" stroke="#ff7f7f" d="M2158.14,-315.42C2182.16,-289.98 2227.46,-242.01 2254.97,-212.89"/>
<polygon fill="#ff7f7f" stroke="#ff7f7f" points="2257.56,-215.24 2261.89,-205.56 2252.48,-210.43 2257.56,-215.24"/>
</g>
<!-- Node0x55563eda19f8&#45;&gt;Node0x55563edab4f8 -->
<g id="edge45" class="edge">
<title>Node0x55563eda19f8&#45;&gt;Node0x55563edab4f8</title>
<path fill="none" stroke="#ff7f7f" d="M2155.51,-351.75C2212.03,-426 2419.57,-721.07 2265,-863 2247.08,-879.45 2114.08,-896.68 2020.11,-907.01"/>
<polygon fill="#ff7f7f" stroke="#ff7f7f" points="2019.57,-903.55 2010,-908.11 2020.32,-910.5 2019.57,-903.55"/>
</g>
<!-- Node0x55563eda19f8&#45;&gt;Node0x55563eda3cf8 -->
<g id="edge49" class="edge">
<title>Node0x55563eda19f8&#45;&gt;Node0x55563eda3cf8</title>
<path fill="none" stroke="#ff7f7f" d="M2126.23,-315.47C2090.87,-277.3 2005.14,-184.75 1963.9,-140.23"/>
<polygon fill="#ff7f7f" stroke="#ff7f7f" points="1966.34,-137.71 1956.98,-132.75 1961.2,-142.46 1966.34,-137.71"/>
</g>
<!-- Node0x55563eda1ef8&#45;&gt;Node0x55563eda37f8 -->
<g id="edge50" class="edge">
<title>Node0x55563eda1ef8&#45;&gt;Node0x55563eda37f8</title>
<path fill="none" stroke="#ff7f7f" d="M2823.27,-972.34C2789.58,-948.37 2736,-901.46 2736,-845.5 2736,-845.5 2736,-845.5 2736,-405.5 2736,-358.35 2701.98,-312.89 2677.24,-286.07"/>
<polygon fill="#ff7f7f" stroke="#ff7f7f" points="2679.65,-283.52 2670.23,-278.68 2674.58,-288.35 2679.65,-283.52"/>
</g>
<!-- Node0x55563eda1ef8&#45;&gt;Node0x55563eda96f8 -->
<g id="edge51" class="edge">
<title>Node0x55563eda1ef8&#45;&gt;Node0x55563eda96f8</title>
<path fill="none" stroke="#ff7f7f" d="M2848.62,-972.22C2846.58,-945.21 2843,-891.3 2843,-845.5 2843,-845.5 2843,-845.5 2843,-478.5 2843,-364.55 2846.94,-290.85 2744,-242 2685.6,-214.29 2520.44,-200.37 2403.38,-193.8"/>
<polygon fill="#ff7f7f" stroke="#ff7f7f" points="2403.44,-190.3 2393.27,-193.24 2403.06,-197.29 2403.44,-190.3"/>
</g>
<!-- Node0x55563eda1ef8&#45;&gt;Node0x55563edab4f8 -->
<g id="edge52" class="edge">
<title>Node0x55563eda1ef8&#45;&gt;Node0x55563edab4f8</title>
<path fill="none" stroke="#ff7f7f" d="M2733.27,-973.51C2728.45,-972.98 2723.68,-972.47 2719,-972 2467.02,-946.7 2168.75,-930.18 2020.08,-922.85"/>
<polygon fill="#ff7f7f" stroke="#ff7f7f" points="2020.23,-919.35 2010.07,-922.36 2019.89,-926.35 2020.23,-919.35"/>
</g>
<!-- Node0x55563eda37f8&#45;&gt;Node0x55563edab4f8 -->
<g id="edge53" class="edge">
<title>Node0x55563eda37f8&#45;&gt;Node0x55563edab4f8</title>
<path fill="none" stroke="#ff7f7f" d="M2634.42,-278.81C2610.6,-304.21 2571,-354.16 2571,-405.5 2571,-626.5 2571,-626.5 2571,-626.5 2571,-761.89 2497.61,-797.71 2379,-863 2371.2,-867.29 2150.56,-891.98 2020.14,-906.28"/>
<polygon fill="#ff7f7f" stroke="#ff7f7f" points="2019.7,-902.8 2010.14,-907.37 2020.46,-909.76 2019.7,-902.8"/>
</g>
<!-- Node0x55563eda2df8&#45;&gt;Node0x55563edabd68 -->
<g id="edge54" class="edge">
<title>Node0x55563eda2df8&#45;&gt;Node0x55563edabd68</title>
<path fill="none" stroke="#ff7f7f" d="M1109.33,-191.36C932.81,-196.57 617.47,-210.17 576,-242 436.19,-349.33 252.13,-881.66 374,-1009 406.24,-1042.68 970.8,-1055.34 1317.24,-1059.96"/>
<polygon fill="#ff7f7f" stroke="#ff7f7f" points="1317.38,-1063.46 1327.42,-1060.1 1317.47,-1056.46 1317.38,-1063.46"/>
</g>
<!-- Node0x55563eda2df8&#45;&gt;Node0x55563edab8b8 -->
<g id="edge60" class="edge">
<title>Node0x55563eda2df8&#45;&gt;Node0x55563edab8b8</title>
<path fill="none" stroke="#ff7f7f" d="M1109.34,-188.97C932.05,-191.06 607.25,-200.64 499,-242 473.84,-251.61 472.89,-263.3 451,-279 427.56,-295.81 412.74,-290.83 397,-315 281.07,-493 332,-613.37 450,-790 498.66,-862.84 576.61,-931.39 619.07,-966.01"/>
<polygon fill="#ff7f7f" stroke="#ff7f7f" points="617.09,-968.91 627.07,-972.47 621.49,-963.47 617.09,-968.91"/>
</g>
<!-- Node0x55563eda2df8&#45;&gt;Node0x55563edb0098 -->
<g id="edge55" class="edge">
<title>Node0x55563eda2df8&#45;&gt;Node0x55563edb0098</title>
<path fill="none" stroke="#ff7f7f" d="M1109.11,-174.78C995.34,-163.56 822.12,-146.48 690.81,-133.53"/>
<polygon fill="#ff7f7f" stroke="#ff7f7f" points="690.93,-130.02 680.63,-132.52 690.24,-136.99 690.93,-130.02"/>
</g>
<!-- Node0x55563eda2df8&#45;&gt;Node0x55563edaf878 -->
<g id="edge56" class="edge">
<title>Node0x55563eda2df8&#45;&gt;Node0x55563edaf878</title>
<path fill="none" stroke="#ff7f7f" d="M1143.56,-205.55C1088.67,-216.13 1016.69,-229.73 957.97,-240.63"/>
<polygon fill="#ff7f7f" stroke="#ff7f7f" points="957.12,-237.23 947.92,-242.49 958.39,-244.11 957.12,-237.23"/>
</g>
<!-- Node0x55563eda2df8&#45;&gt;Node0x55563eda9bf8 -->
<g id="edge61" class="edge">
<title>Node0x55563eda2df8&#45;&gt;Node0x55563eda9bf8</title>
<path fill="none" stroke="#ff7f7f" d="M1324.17,-205.56C1368.52,-214.82 1421.47,-227.37 1468,-242 1593.18,-281.37 1617.3,-311.12 1742,-352 1781.68,-365.01 1826.45,-376.87 1863.51,-386.11"/>
<polygon fill="#ff7f7f" stroke="#ff7f7f" points="1862.7,-389.51 1873.25,-388.52 1864.38,-382.72 1862.7,-389.51"/>
</g>
<!-- Node0x55563eda2df8&#45;&gt;Node0x55563eda91f8 -->
<g id="edge58" class="edge">
<title>Node0x55563eda2df8&#45;&gt;Node0x55563eda91f8</title>
<path fill="none" stroke="#ff7f7f" d="M1228.28,-205.74C1222.78,-278.59 1184.33,-567.61 1250,-790 1252.83,-799.58 1257.86,-809.15 1262.73,-817.49"/>
<polygon fill="#ff7f7f" stroke="#ff7f7f" points="1259.9,-819.56 1268.05,-826.33 1265.89,-815.95 1259.9,-819.56"/>
</g>
<!-- Node0x55563eda2df8&#45;&gt;Node0x55563edab4f8 -->
<g id="edge59" class="edge">
<title>Node0x55563eda2df8&#45;&gt;Node0x55563edab4f8</title>
<path fill="none" stroke="#ff7f7f" d="M1346.51,-205.01C1542.74,-235.06 1923.58,-303.44 2027,-388 2175.62,-509.52 2285.53,-626.46 2185,-790 2149.53,-847.7 2078.68,-880.06 2019.98,-897.57"/>
<polygon fill="#ff7f7f" stroke="#ff7f7f" points="2018.94,-894.23 2010.3,-900.36 2020.88,-900.96 2018.94,-894.23"/>
</g>
<!-- Node0x55563eda2df8&#45;&gt;Node0x55563eda3cf8 -->
<g id="edge57" class="edge">
<title>Node0x55563eda2df8&#45;&gt;Node0x55563eda3cf8</title>
<path fill="none" stroke="#ff7f7f" d="M1346.54,-174.7C1479.78,-161.43 1694.64,-140.03 1826.29,-126.92"/>
<polygon fill="#ff7f7f" stroke="#ff7f7f" points="1826.81,-130.39 1836.41,-125.91 1826.11,-123.42 1826.81,-130.39"/>
</g>
<!-- Node0x55563eda9bf8&#45;&gt;Node0x55563edabd68 -->
<g id="edge64" class="edge">
<title>Node0x55563eda9bf8&#45;&gt;Node0x55563edabd68</title>
<path fill="none" stroke="#ff7f7f" d="M1988.03,-424.58C2168.31,-494.82 2793.21,-768.96 2566,-1009 2541.68,-1034.7 2133.56,-1049.66 1851.18,-1056.94"/>
<polygon fill="#ff7f7f" stroke="#ff7f7f" points="1850.67,-1053.45 1840.77,-1057.2 1850.85,-1060.45 1850.67,-1053.45"/>
</g>
<!-- Node0x55563eda9bf8&#45;&gt;Node0x55563edb0098 -->
<g id="edge66" class="edge">
<title>Node0x55563eda9bf8&#45;&gt;Node0x55563edb0098</title>
<path fill="none" stroke="#ff7f7f" d="M1919.98,-388.4C1855.51,-336.14 1662.94,-181.32 1629,-169 1550,-140.33 1068.27,-126 762.56,-119.71"/>
<polygon fill="#ff7f7f" stroke="#ff7f7f" points="762.28,-116.2 752.21,-119.5 762.14,-123.2 762.28,-116.2"/>
</g>
<!-- Node0x55563eda9bf8&#45;&gt;Node0x55563edaf878 -->
<g id="edge67" class="edge">
<title>Node0x55563eda9bf8&#45;&gt;Node0x55563edaf878</title>
<path fill="none" stroke="#ff7f7f" d="M1873.22,-396.06C1755.9,-379.01 1507.76,-342.3 1298,-315 1201.27,-302.41 1092.79,-289.61 1007.01,-279.68"/>
<polygon fill="#ff7f7f" stroke="#ff7f7f" points="1007.27,-276.19 996.93,-278.51 1006.46,-283.14 1007.27,-276.19"/>
</g>
<!-- Node0x55563eda9bf8&#45;&gt;Node0x55563eda19f8 -->
<g id="edge62" class="edge">
<title>Node0x55563eda9bf8&#45;&gt;Node0x55563eda19f8</title>
<path fill="none" stroke="#ff7f7f" d="M1983.29,-388.49C2010.72,-378.42 2046.92,-365.6 2077.84,-354.98"/>
<polygon fill="#ff7f7f" stroke="#ff7f7f" points="2079.35,-358.16 2087.68,-351.61 2077.09,-351.54 2079.35,-358.16"/>
</g>
<!-- Node0x55563eda9bf8&#45;&gt;Node0x55563eda2df8 -->
<g id="edge65" class="edge">
<title>Node0x55563eda9bf8&#45;&gt;Node0x55563eda2df8</title>
<path fill="none" stroke="#ff7f7f" d="M1873.21,-392.2C1829.93,-382.43 1773.07,-368.09 1724,-352 1599.3,-311.12 1575.18,-281.37 1450,-242 1407.01,-228.48 1358.55,-216.74 1317.85,-207.73"/>
<polygon fill="#ff7f7f" stroke="#ff7f7f" points="1318.47,-204.28 1307.95,-205.56 1316.97,-211.12 1318.47,-204.28"/>
</g>
<!-- Node0x55563eda9bf8&#45;&gt;Node0x55563edab4f8 -->
<g id="edge63" class="edge">
<title>Node0x55563eda9bf8&#45;&gt;Node0x55563edab4f8</title>
<path fill="none" stroke="#ff7f7f" d="M1964.59,-424.91C1973.38,-434.76 1981.95,-447.72 1986,-461 1990.8,-476.73 1987,-481.59 1986,-498 1976.99,-646.45 1950.15,-822.89 1934.97,-889.37"/>
<polygon fill="#ff7f7f" stroke="#ff7f7f" points="1931.48,-888.89 1932.54,-899.43 1938.29,-890.52 1931.48,-888.89"/>
</g>
<!-- Node0x55563eda9bf8&#45;&gt;Node0x55563eda3cf8 -->
<g id="edge68" class="edge">
<title>Node0x55563eda9bf8&#45;&gt;Node0x55563eda3cf8</title>
<path fill="none" stroke="#ff7f7f" d="M1941,-388.23C1941,-339.67 1941,-201.67 1941,-142.73"/>
<polygon fill="#ff7f7f" stroke="#ff7f7f" points="1944.5,-142.68 1941,-132.68 1937.5,-142.68 1944.5,-142.68"/>
</g>
<!-- Node0x55563eda96f8&#45;&gt;Node0x55563eda9bf8 -->
<g id="edge69" class="edge">
<title>Node0x55563eda96f8&#45;&gt;Node0x55563eda9bf8</title>
<path fill="none" stroke="#ff7f7f" d="M2241.43,-205.61C2194.72,-228.11 2112.11,-270.08 2047,-315 2017.68,-335.22 1987.03,-362.11 1966.28,-381.31"/>
<polygon fill="#ff7f7f" stroke="#ff7f7f" points="1963.75,-378.88 1958.83,-388.27 1968.53,-384 1963.75,-378.88"/>
</g>
<!-- Node0x55563eda96f8&#45;&gt;Node0x55563edab4f8 -->
<g id="edge70" class="edge">
<title>Node0x55563eda96f8&#45;&gt;Node0x55563edab4f8</title>
<path fill="none" stroke="#ff7f7f" d="M2307.46,-205.55C2343.85,-229.06 2401,-275.13 2401,-332.5 2401,-553.5 2401,-553.5 2401,-553.5 2401,-580.94 2340.19,-764.52 2330,-790 2316.5,-823.77 2322.54,-841.77 2293,-863 2271.15,-878.71 2121.32,-896.72 2019.98,-907.32"/>
<polygon fill="#ff7f7f" stroke="#ff7f7f" points="2019.61,-903.84 2010.03,-908.36 2020.34,-910.8 2019.61,-903.84"/>
</g>
<!-- Node0x55563eda91f8&#45;&gt;Node0x55563edabd68 -->
<g id="edge71" class="edge">
<title>Node0x55563eda91f8&#45;&gt;Node0x55563edabd68</title>
<path fill="none" stroke="#ff7f7f" d="M1268.49,-862.66C1253.6,-895.29 1219.95,-966.77 1256,-1009 1269.24,-1024.51 1299.73,-1035.55 1337.07,-1043.39"/>
<polygon fill="#ff7f7f" stroke="#ff7f7f" points="1336.74,-1046.9 1347.23,-1045.42 1338.11,-1040.03 1336.74,-1046.9"/>
</g>
<!-- Node0x55563eda91f8&#45;&gt;Node0x55563edab8b8 -->
<g id="edge75" class="edge">
<title>Node0x55563eda91f8&#45;&gt;Node0x55563edab8b8</title>
<path fill="none" stroke="#ff7f7f" d="M1195.47,-857.19C1132.94,-866.59 1043.5,-881.14 966,-899 878.83,-919.09 779.89,-949.56 715.99,-969.5"/>
<polygon fill="#ff7f7f" stroke="#ff7f7f" points="714.93,-966.17 706.43,-972.49 717.02,-972.85 714.93,-966.17"/>
</g>
<!-- Node0x55563eda91f8&#45;&gt;Node0x55563edb0098 -->
<g id="edge78" class="edge">
<title>Node0x55563eda91f8&#45;&gt;Node0x55563edb0098</title>
<path fill="none" stroke="#ff7f7f" d="M1195.19,-842.24C1122.06,-838.73 1011.78,-827.07 924,-790 774.56,-726.89 742.54,-689.73 632,-571 554.56,-487.82 527.24,-462.33 500,-352 481.73,-278.01 489.43,-186.98 498.47,-142.52"/>
<polygon fill="#ff7f7f" stroke="#ff7f7f" points="501.89,-143.28 500.66,-132.76 495.06,-141.75 501.89,-143.28"/>
</g>
<!-- Node0x55563eda91f8&#45;&gt;Node0x55563edaf878 -->
<g id="edge72" class="edge">
<title>Node0x55563eda91f8&#45;&gt;Node0x55563edaf878</title>
<path fill="none" stroke="#ff7f7f" d="M1195.24,-839.16C1137.69,-833.47 1059.27,-820.34 997,-790 875.79,-730.95 807,-688.33 807,-553.5 807,-553.5 807,-553.5 807,-405.5 807,-363.55 821.56,-316.71 834.48,-288.18"/>
<polygon fill="#ff7f7f" stroke="#ff7f7f" points="837.77,-289.41 838.95,-278.88 831.46,-286.38 837.77,-289.41"/>
</g>
<!-- Node0x55563eda91f8&#45;&gt;Node0x55563eda19f8 -->
<g id="edge82" class="edge">
<title>Node0x55563eda91f8&#45;&gt;Node0x55563eda19f8</title>
<path fill="none" stroke="#ff7f7f" d="M1352.75,-841.57C1421,-837.39 1521.07,-825.1 1601,-790 1840.71,-684.72 2056.43,-438.81 2121.82,-359.58"/>
<polygon fill="#ff7f7f" stroke="#ff7f7f" points="2124.73,-361.55 2128.36,-351.6 2119.31,-357.11 2124.73,-361.55"/>
</g>
<!-- Node0x55563eda91f8&#45;&gt;Node0x55563eda2df8 -->
<g id="edge76" class="edge">
<title>Node0x55563eda91f8&#45;&gt;Node0x55563eda2df8</title>
<path fill="none" stroke="#ff7f7f" d="M1252.2,-826.33C1243.95,-816.35 1235.89,-803.19 1232,-790 1168.96,-576.52 1201.87,-301.63 1219.86,-215.52"/>
<polygon fill="#ff7f7f" stroke="#ff7f7f" points="1223.27,-216.26 1222.02,-205.74 1216.44,-214.75 1223.27,-216.26"/>
</g>
<!-- Node0x55563eda91f8&#45;&gt;Node0x55563eda9bf8 -->
<g id="edge77" class="edge">
<title>Node0x55563eda91f8&#45;&gt;Node0x55563eda9bf8</title>
<path fill="none" stroke="#ff7f7f" d="M1352.61,-839.29C1404.27,-833.59 1471.72,-820.4 1524,-790 1543.05,-778.92 1540.03,-767.05 1557,-753 1580.96,-733.17 1597.22,-741 1617,-717 1694,-623.59 1619.39,-541.27 1710,-461 1732.6,-440.98 1805.15,-426.34 1862.98,-417.48"/>
<polygon fill="#ff7f7f" stroke="#ff7f7f" points="1863.85,-420.89 1873.23,-415.95 1862.82,-413.97 1863.85,-420.89"/>
</g>
<!-- Node0x55563eda91f8&#45;&gt;Node0x55563edab4f8 -->
<g id="edge73" class="edge">
<title>Node0x55563eda91f8&#45;&gt;Node0x55563edab4f8</title>
<path fill="none" stroke="#ff7f7f" d="M1352.67,-851.84C1480.55,-862.72 1728.86,-884.97 1831.83,-898.35"/>
<polygon fill="#ff7f7f" stroke="#ff7f7f" points="1831.54,-901.84 1841.92,-899.69 1832.47,-894.9 1831.54,-901.84"/>
</g>
<!-- Node0x55563eda91f8&#45;&gt;Node0x55563eda3cf8 -->
<g id="edge74" class="edge">
<title>Node0x55563eda91f8&#45;&gt;Node0x55563eda3cf8</title>
<path fill="none" stroke="#ff7f7f" d="M1284.7,-826.17C1299.44,-802.79 1325.81,-762.91 1340,-753 1387.75,-719.66 1417.62,-749.42 1466,-717 1481.49,-706.62 1834.04,-253.24 1921.5,-140.62"/>
<polygon fill="#ff7f7f" stroke="#ff7f7f" points="1924.42,-142.57 1927.79,-132.52 1918.89,-138.28 1924.42,-142.57"/>
</g>
<!-- Node0x55563eda7da8 -->
<g id="node18" class="node">
<title>Node0x55563eda7da8</title>
<polygon fill="#ff7f7f" stroke="black" points="933.5,-534.5 933.5,-570.5 1114.5,-570.5 1114.5,-534.5 933.5,-534.5"/>
<text text-anchor="middle" x="1024" y="-548.8" font-family="Times,serif" font-size="14.00">lib/libLLVMBitReader.a</text>
</g>
<!-- Node0x55563eda91f8&#45;&gt;Node0x55563eda7da8 -->
<g id="edge79" class="edge">
<title>Node0x55563eda91f8&#45;&gt;Node0x55563eda7da8</title>
<path fill="none" stroke="#ff7f7f" d="M1195.49,-829.86C1102.05,-808.34 951.33,-756.73 891,-644 883.24,-629.5 881.96,-620.74 891,-607 900.32,-592.84 914.26,-582.4 929.68,-574.73"/>
<polygon fill="#ff7f7f" stroke="#ff7f7f" points="931.26,-577.85 938.91,-570.52 928.36,-571.48 931.26,-577.85"/>
</g>
<!-- Node0x55563eda8ac8 -->
<g id="node19" class="node">
<title>Node0x55563eda8ac8</title>
<polygon fill="#ff7f7f" stroke="black" points="1349,-461.5 1349,-497.5 1493,-497.5 1493,-461.5 1349,-461.5"/>
<text text-anchor="middle" x="1421" y="-475.8" font-family="Times,serif" font-size="14.00">lib/libLLVMCore.a</text>
</g>
<!-- Node0x55563eda91f8&#45;&gt;Node0x55563eda8ac8 -->
<g id="edge80" class="edge">
<title>Node0x55563eda91f8&#45;&gt;Node0x55563eda8ac8</title>
<path fill="none" stroke="#ff7f7f" d="M1269.25,-826.27C1269.44,-805.9 1277.15,-772.33 1298,-753 1341.33,-712.82 1390.32,-764.11 1426,-717 1473.2,-654.69 1442.6,-554.55 1427.39,-507.09"/>
<polygon fill="#ff7f7f" stroke="#ff7f7f" points="1430.71,-505.99 1424.32,-497.53 1424.04,-508.12 1430.71,-505.99"/>
</g>
<!-- Node0x55563eda6868 -->
<g id="node20" class="node">
<title>Node0x55563eda6868</title>
<polygon fill="#ff7f7f" stroke="black" points="1987,-753.5 1987,-789.5 2167,-789.5 2167,-753.5 1987,-753.5"/>
<text text-anchor="middle" x="2077" y="-767.8" font-family="Times,serif" font-size="14.00">lib/libLLVMMCParser.a</text>
</g>
<!-- Node0x55563eda91f8&#45;&gt;Node0x55563eda6868 -->
<g id="edge81" class="edge">
<title>Node0x55563eda91f8&#45;&gt;Node0x55563eda6868</title>
<path fill="none" stroke="#ff7f7f" d="M1352.6,-836.17C1499.32,-822.92 1814.43,-795.05 1976.4,-780.99"/>
<polygon fill="#ff7f7f" stroke="#ff7f7f" points="1977.19,-784.44 1986.85,-780.08 1976.58,-777.46 1977.19,-784.44"/>
</g>
<!-- Node0x55563edafd28 -->
<g id="node21" class="node">
<title>Node0x55563edafd28</title>
<polygon fill="#ff7f7f" stroke="black" points="1349,-753.5 1349,-789.5 1515,-789.5 1515,-753.5 1349,-753.5"/>
<text text-anchor="middle" x="1432" y="-767.8" font-family="Times,serif" font-size="14.00">lib/libLLVMTextAPI.a</text>
</g>
<!-- Node0x55563eda91f8&#45;&gt;Node0x55563edafd28 -->
<g id="edge83" class="edge">
<title>Node0x55563eda91f8&#45;&gt;Node0x55563edafd28</title>
<path fill="none" stroke="#ff7f7f" d="M1305.99,-826.49C1326.86,-816.64 1354.53,-804.16 1378.65,-793.67"/>
<polygon fill="#ff7f7f" stroke="#ff7f7f" points="1380.25,-796.79 1388.05,-789.61 1377.48,-790.37 1380.25,-796.79"/>
</g>
<!-- Node0x55563edab4f8&#45;&gt;Node0x55563edabd68 -->
<g id="edge84" class="edge">
<title>Node0x55563edab4f8&#45;&gt;Node0x55563edabd68</title>
<path fill="none" stroke="#ff7f7f" d="M1920.51,-935.83C1908.06,-956.61 1879.82,-990.92 1847,-1009 1819.1,-1024.37 1787.24,-1035.33 1755.55,-1043.15"/>
<polygon fill="#ff7f7f" stroke="#ff7f7f" points="1754.64,-1039.76 1745.72,-1045.47 1756.26,-1046.57 1754.64,-1039.76"/>
</g>
<!-- Node0x55563edab4f8&#45;&gt;Node0x55563edab8b8 -->
<g id="edge90" class="edge">
<title>Node0x55563edab4f8&#45;&gt;Node0x55563edab8b8</title>
<path fill="none" stroke="#ff7f7f" d="M1841.96,-923.24C1673.61,-932.42 1283.33,-953.37 955,-972 940.09,-972.85 924.76,-973.72 909.28,-974.62"/>
<polygon fill="#ff7f7f" stroke="#ff7f7f" points="908.87,-971.13 899.08,-975.21 909.27,-978.12 908.87,-971.13"/>
</g>
<!-- Node0x55563edab4f8&#45;&gt;Node0x55563edb0098 -->
<g id="edge87" class="edge">
<title>Node0x55563edab4f8&#45;&gt;Node0x55563edb0098</title>
<path fill="none" stroke="#ff7f7f" d="M2010.11,-906.26C2049.77,-898.71 2096.45,-885.64 2134,-863 2171.2,-840.57 2176.86,-827.38 2199,-790 2306.82,-608.01 2358.63,-482.16 2229,-315 2069.27,-109.02 1918.77,-207.64 1661,-169 1493.78,-143.93 1048.15,-128.77 762.4,-121.28"/>
<polygon fill="#ff7f7f" stroke="#ff7f7f" points="762.39,-117.78 752.3,-121.01 762.2,-124.77 762.39,-117.78"/>
</g>
<!-- Node0x55563edab4f8&#45;&gt;Node0x55563edaf878 -->
<g id="edge88" class="edge">
<title>Node0x55563edab4f8&#45;&gt;Node0x55563edaf878</title>
<path fill="none" stroke="#ff7f7f" d="M1911.46,-899.15C1861.69,-832.29 1692.81,-588.73 1493,-461 1330.84,-357.34 1111.57,-304.8 976.05,-280.31"/>
<polygon fill="#ff7f7f" stroke="#ff7f7f" points="976.49,-276.83 966.03,-278.52 975.26,-283.72 976.49,-276.83"/>
</g>
<!-- Node0x55563edab4f8&#45;&gt;Node0x55563eda2df8 -->
<g id="edge86" class="edge">
<title>Node0x55563edab4f8&#45;&gt;Node0x55563eda2df8</title>
<path fill="none" stroke="#ff7f7f" d="M1998.63,-899.49C2055.28,-882.46 2130.19,-849.88 2167,-790 2267.53,-626.46 2157.62,-509.52 2009,-388 1907.95,-305.38 1542.07,-238.21 1349.05,-207.14"/>
<polygon fill="#ff7f7f" stroke="#ff7f7f" points="1349.57,-203.68 1339.14,-205.55 1348.46,-210.59 1349.57,-203.68"/>
</g>
<!-- Node0x55563edab4f8&#45;&gt;Node0x55563eda9bf8 -->
<g id="edge89" class="edge">
<title>Node0x55563edab4f8&#45;&gt;Node0x55563eda9bf8</title>
<path fill="none" stroke="#ff7f7f" d="M1925.13,-899.43C1929.11,-842.62 1958.49,-654.71 1968,-498 1969,-481.59 1972.8,-476.73 1968,-461 1965.02,-451.25 1959.61,-441.67 1954.28,-433.36"/>
<polygon fill="#ff7f7f" stroke="#ff7f7f" points="1957.1,-431.29 1948.63,-424.91 1951.27,-435.17 1957.1,-431.29"/>
</g>
<!-- Node0x55563edab4f8&#45;&gt;Node0x55563eda91f8 -->
<g id="edge85" class="edge">
<title>Node0x55563edab4f8&#45;&gt;Node0x55563eda91f8</title>
<path fill="none" stroke="#ff7f7f" d="M1841.97,-902.46C1834.19,-901.2 1826.45,-900.02 1819,-899 1732.82,-887.16 1493.8,-865.51 1362.71,-853.71"/>
<polygon fill="#ff7f7f" stroke="#ff7f7f" points="1362.96,-850.21 1352.69,-852.8 1362.33,-857.19 1362.96,-850.21"/>
</g>
<!-- Node0x55563edaaff8&#45;&gt;Node0x55563edabd68 -->
<g id="edge91" class="edge">
<title>Node0x55563edaaff8&#45;&gt;Node0x55563edabd68</title>
<path fill="none" stroke="#ff7f7f" d="M1139.24,-1005.57C1146.95,-1006.77 1154.62,-1007.93 1162,-1009 1251.63,-1021.96 1352.04,-1034.53 1432.44,-1044.23"/>
<polygon fill="#ff7f7f" stroke="#ff7f7f" points="1432.3,-1047.74 1442.65,-1045.46 1433.14,-1040.79 1432.3,-1047.74"/>
</g>
<!-- Node0x55563edaaff8&#45;&gt;Node0x55563edb0098 -->
<g id="edge92" class="edge">
<title>Node0x55563edaaff8&#45;&gt;Node0x55563edb0098</title>
<path fill="none" stroke="#ff7f7f" d="M998.13,-972.47C975.69,-963.45 949.38,-951.08 928,-936 670.9,-754.6 555.36,-716.95 438,-425 397.59,-324.46 460.6,-195.71 491.96,-141.45"/>
<polygon fill="#ff7f7f" stroke="#ff7f7f" points="495.17,-142.9 497.24,-132.5 489.14,-139.34 495.17,-142.9"/>
</g>
<!-- Node0x55563edaaff8&#45;&gt;Node0x55563edaf878 -->
<g id="edge93" class="edge">
<title>Node0x55563edaaff8&#45;&gt;Node0x55563edaf878</title>
<path fill="none" stroke="#ff7f7f" d="M1030.36,-972.3C991.85,-931.53 896.08,-824.35 846,-717 783.39,-582.78 767.79,-533.95 793,-388 798.86,-354.06 804.1,-346.05 819,-315 823.49,-305.65 829.19,-295.88 834.58,-287.27"/>
<polygon fill="#ff7f7f" stroke="#ff7f7f" points="837.56,-289.11 840.03,-278.8 831.68,-285.32 837.56,-289.11"/>
</g>
<!-- Node0x55563edaaff8&#45;&gt;Node0x55563eda2df8 -->
<g id="edge94" class="edge">
<title>Node0x55563edaaff8&#45;&gt;Node0x55563eda2df8</title>
<path fill="none" stroke="#ff7f7f" d="M1014.38,-972.41C997.97,-962.93 978.36,-950.2 963,-936 933.17,-908.43 931.23,-896.32 908,-863 819.21,-735.65 482.9,-356.26 588,-242 621.83,-205.22 922.12,-193.72 1099.1,-190.13"/>
<polygon fill="#ff7f7f" stroke="#ff7f7f" points="1099.33,-193.62 1109.26,-189.93 1099.2,-186.62 1099.33,-193.62"/>
</g>
<!-- Node0x55563edaaff8&#45;&gt;Node0x55563edaa0f8 -->
<g id="edge95" class="edge">
<title>Node0x55563edaaff8&#45;&gt;Node0x55563edaa0f8</title>
<path fill="none" stroke="black" d="M975.83,-972.44C943.9,-963.54 906.24,-951.29 874,-936 820.99,-910.85 812.07,-896.64 764,-863 454.9,-646.67 165,-638.78 165,-261.5 165,-261.5 165,-261.5 165,-186.5 165,-129.77 204.16,-121.15 255,-96 307.08,-70.23 457.96,-55.58 560.63,-48.34"/>
<polygon fill="black" stroke="black" points="560.99,-51.83 570.72,-47.65 560.5,-44.85 560.99,-51.83"/>
</g>
<!-- Node0x55563edaaff8&#45;&gt;Node0x55563eda9bf8 -->
<g id="edge96" class="edge">
<title>Node0x55563edaaff8&#45;&gt;Node0x55563eda9bf8</title>
<path fill="none" stroke="#ff7f7f" d="M1120.08,-972.46C1295.19,-930.39 1732.29,-817.72 1841,-717 1919.9,-643.9 1920.55,-602.97 1944,-498 1948.65,-477.19 1947.53,-453.03 1945.45,-434.91"/>
<polygon fill="#ff7f7f" stroke="#ff7f7f" points="1948.89,-434.21 1944.11,-424.75 1941.95,-435.12 1948.89,-434.21"/>
</g>
<!-- Node0x55563edaaff8&#45;&gt;Node0x55563eda91f8 -->
<g id="edge97" class="edge">
<title>Node0x55563edaaff8&#45;&gt;Node0x55563eda91f8</title>
<path fill="none" stroke="#ff7f7f" d="M1073.93,-972.42C1114.89,-946.43 1192.88,-896.96 1238.44,-868.06"/>
<polygon fill="#ff7f7f" stroke="#ff7f7f" points="1240.53,-870.87 1247.1,-862.56 1236.78,-864.96 1240.53,-870.87"/>
</g>
<!-- Node0x55563edaaff8&#45;&gt;Node0x55563edab4f8 -->
<g id="edge98" class="edge">
<title>Node0x55563edaaff8&#45;&gt;Node0x55563edab4f8</title>
<path fill="none" stroke="#ff7f7f" d="M1139.41,-982.04C1307.65,-968.45 1662.22,-939.81 1831.79,-926.11"/>
<polygon fill="#ff7f7f" stroke="#ff7f7f" points="1832.26,-929.58 1841.95,-925.29 1831.7,-922.61 1832.26,-929.58"/>
</g>
<!-- Node0x55563eda3cf8&#45;&gt;Node0x55563edabd68 -->
<g id="edge100" class="edge">
<title>Node0x55563eda3cf8&#45;&gt;Node0x55563edabd68</title>
<path fill="none" stroke="#ff7f7f" d="M2045.58,-117.89C2240.48,-123.02 2652.06,-137.34 2791,-169 3204.18,-263.16 2995,-215.35 2995,-259.5 2995,-407.5 2995,-407.5 2995,-407.5 2995,-509.69 3071,-522.31 3071,-624.5 3071,-918.5 3071,-918.5 3071,-918.5 3071,-967.26 3051.7,-985.46 3009,-1009 2959.31,-1036.39 2249.78,-1051.99 1851.1,-1058.64"/>
<polygon fill="#ff7f7f" stroke="#ff7f7f" points="1850.8,-1055.14 1840.86,-1058.81 1850.92,-1062.14 1850.8,-1055.14"/>
</g>
<!-- Node0x55563eda3cf8&#45;&gt;Node0x55563edab4f8 -->
<g id="edge99" class="edge">
<title>Node0x55563eda3cf8&#45;&gt;Node0x55563edab4f8</title>
<path fill="none" stroke="#ff7f7f" d="M2045.75,-115.58C2164.23,-117.71 2347.76,-127.84 2402,-169 2436.62,-195.27 2439,-216.05 2439,-259.5 2439,-553.5 2439,-553.5 2439,-553.5 2439,-746.22 2361.77,-830.72 2320,-863 2308.2,-872.12 2132.85,-893.3 2020.09,-906.11"/>
<polygon fill="#ff7f7f" stroke="#ff7f7f" points="2019.6,-902.64 2010.06,-907.24 2020.39,-909.59 2019.6,-902.64"/>
</g>
<!-- Node0x55563eda7da8&#45;&gt;Node0x55563edabd68 -->
<g id="edge101" class="edge">
<title>Node0x55563eda7da8&#45;&gt;Node0x55563edabd68</title>
<path fill="none" stroke="#ff7f7f" d="M952.51,-570.51C920.13,-579.44 881.84,-591.72 849,-607 632.51,-707.77 542.65,-709.01 398,-899 388.6,-911.35 353.24,-986.26 375,-1009 407.08,-1042.53 970.84,-1055.26 1317.05,-1059.93"/>
<polygon fill="#ff7f7f" stroke="#ff7f7f" points="1317.18,-1063.43 1327.23,-1060.07 1317.27,-1056.43 1317.18,-1063.43"/>
</g>
<!-- Node0x55563eda7da8&#45;&gt;Node0x55563edab8b8 -->
<g id="edge102" class="edge">
<title>Node0x55563eda7da8&#45;&gt;Node0x55563edab8b8</title>
<path fill="none" stroke="#ff7f7f" d="M958.64,-570.55C935.27,-578.87 909.83,-590.69 890,-607 765.44,-709.41 685.59,-893.81 658.91,-962.63"/>
<polygon fill="#ff7f7f" stroke="#ff7f7f" points="655.52,-961.7 655.22,-972.29 662.06,-964.19 655.52,-961.7"/>
</g>
<!-- Node0x55563eda7da8&#45;&gt;Node0x55563edb0098 -->
<g id="edge103" class="edge">
<title>Node0x55563eda7da8&#45;&gt;Node0x55563edb0098</title>
<path fill="none" stroke="#ff7f7f" d="M981.38,-534.48C896.52,-498.72 704.55,-408.29 588,-279 551.18,-238.16 527.46,-177.3 516.03,-142.51"/>
<polygon fill="#ff7f7f" stroke="#ff7f7f" points="519.25,-141.07 512.88,-132.6 512.58,-143.19 519.25,-141.07"/>
</g>
<!-- Node0x55563eda7da8&#45;&gt;Node0x55563edaf878 -->
<g id="edge104" class="edge">
<title>Node0x55563eda7da8&#45;&gt;Node0x55563edaf878</title>
<path fill="none" stroke="#ff7f7f" d="M1013.76,-534.23C984.78,-485.37 902.09,-345.95 867.5,-287.64"/>
<polygon fill="#ff7f7f" stroke="#ff7f7f" points="870.3,-285.5 862.19,-278.68 864.28,-289.07 870.3,-285.5"/>
</g>
<!-- Node0x55563eda7da8&#45;&gt;Node0x55563eda2df8 -->
<g id="edge109" class="edge">
<title>Node0x55563eda7da8&#45;&gt;Node0x55563eda2df8</title>
<path fill="none" stroke="#ff7f7f" d="M1028.28,-534.17C1041.19,-484.49 1083.58,-338.92 1159,-242 1167.99,-230.45 1180.01,-220 1191.51,-211.46"/>
<polygon fill="#ff7f7f" stroke="#ff7f7f" points="1193.62,-214.26 1199.73,-205.6 1189.55,-208.56 1193.62,-214.26"/>
</g>
<!-- Node0x55563eda7da8&#45;&gt;Node0x55563eda91f8 -->
<g id="edge105" class="edge">
<title>Node0x55563eda7da8&#45;&gt;Node0x55563eda91f8</title>
<path fill="none" stroke="#ff7f7f" d="M956.21,-570.52C937.91,-578.45 920.14,-590.06 909,-607 899.96,-620.74 901.24,-629.5 909,-644 964.48,-747.66 1096.37,-799.63 1185.51,-824.06"/>
<polygon fill="#ff7f7f" stroke="#ff7f7f" points="1184.78,-827.49 1195.34,-826.7 1186.59,-820.73 1184.78,-827.49"/>
</g>
<!-- Node0x55563eda7da8&#45;&gt;Node0x55563edab4f8 -->
<g id="edge106" class="edge">
<title>Node0x55563eda7da8&#45;&gt;Node0x55563edab4f8</title>
<path fill="none" stroke="#ff7f7f" d="M1081.37,-570.56C1116.27,-580.98 1161.74,-594.64 1202,-607 1392.53,-665.48 1463.45,-637.68 1626,-753 1678.22,-790.04 1664.79,-828.94 1719,-863 1738.33,-875.14 1786.85,-887.96 1832.06,-898.01"/>
<polygon fill="#ff7f7f" stroke="#ff7f7f" points="1831.43,-901.46 1841.95,-900.18 1832.93,-894.62 1831.43,-901.46"/>
</g>
<!-- Node0x55563eda7da8&#45;&gt;Node0x55563eda8ac8 -->
<g id="edge107" class="edge">
<title>Node0x55563eda7da8&#45;&gt;Node0x55563eda8ac8</title>
<path fill="none" stroke="#ff7f7f" d="M1113.23,-534.49C1180.87,-522.16 1273.05,-505.7 1338.88,-494.21"/>
<polygon fill="#ff7f7f" stroke="#ff7f7f" points="1339.55,-497.65 1348.81,-492.48 1338.35,-490.75 1339.55,-497.65"/>
</g>
<!-- Node0x55563eda6d68 -->
<g id="node22" class="node">
<title>Node0x55563eda6d68</title>
<polygon fill="#ff7f7f" stroke="black" points="909.5,-607.5 909.5,-643.5 1140.5,-643.5 1140.5,-607.5 909.5,-607.5"/>
<text text-anchor="middle" x="1025" y="-621.8" font-family="Times,serif" font-size="14.00">lib/libLLVMBitstreamReader.a</text>
</g>
<!-- Node0x55563eda7da8&#45;&gt;Node0x55563eda6d68 -->
<g id="edge108" class="edge">
<title>Node0x55563eda7da8&#45;&gt;Node0x55563eda6d68</title>
<path fill="none" stroke="#ff7f7f" d="M1030.1,-570.53C1031.06,-578.53 1031.44,-588.27 1031.2,-597.25"/>
<polygon fill="#ff7f7f" stroke="#ff7f7f" points="1027.7,-597.13 1030.64,-607.31 1034.69,-597.53 1027.7,-597.13"/>
</g>
<!-- Node0x55563eda32f8 -->
<g id="node23" class="node">
<title>Node0x55563eda32f8</title>
<polygon fill="#ff7f7f" stroke="black" points="1719,-461.5 1719,-497.5 1935,-497.5 1935,-461.5 1719,-461.5"/>
<text text-anchor="middle" x="1827" y="-475.8" font-family="Times,serif" font-size="14.00">lib/libLLVMDebugInfoPDB.a</text>
</g>
<!-- Node0x55563eda7da8&#45;&gt;Node0x55563eda32f8 -->
<g id="edge110" class="edge">
<title>Node0x55563eda7da8&#45;&gt;Node0x55563eda32f8</title>
<path fill="none" stroke="#ff7f7f" d="M1114.55,-543.49C1260.39,-530.6 1547.26,-505.23 1708.95,-490.94"/>
<polygon fill="#ff7f7f" stroke="#ff7f7f" points="1709.28,-494.42 1718.94,-490.05 1708.67,-487.45 1709.28,-494.42"/>
</g>
<!-- Node0x55563eda8ac8&#45;&gt;Node0x55563edabd68 -->
<g id="edge111" class="edge">
<title>Node0x55563eda8ac8&#45;&gt;Node0x55563edabd68</title>
<path fill="none" stroke="#ff7f7f" d="M1493.21,-487.87C1639.86,-506.42 1975.59,-567.68 2176,-753 2202.14,-777.17 2201.5,-791.19 2209,-826 2212.46,-842.08 2217.94,-849.2 2209,-863 2165.84,-929.62 1958.85,-985.61 1883,-1009 1833.85,-1024.15 1778.75,-1035.53 1729.37,-1043.8"/>
<polygon fill="#ff7f7f" stroke="#ff7f7f" points="1728.55,-1040.39 1719.25,-1045.46 1729.69,-1047.29 1728.55,-1040.39"/>
</g>
<!-- Node0x55563eda8ac8&#45;&gt;Node0x55563edb0098 -->
<g id="edge120" class="edge">
<title>Node0x55563eda8ac8&#45;&gt;Node0x55563edb0098</title>
<path fill="none" stroke="#ff7f7f" d="M1434.39,-461.4C1473.1,-409.79 1577.48,-253.95 1497,-169 1471.95,-142.56 1046.86,-127.69 762.22,-120.65"/>
<polygon fill="#ff7f7f" stroke="#ff7f7f" points="762.23,-117.15 752.15,-120.4 762.06,-124.14 762.23,-117.15"/>
</g>
<!-- Node0x55563eda8ac8&#45;&gt;Node0x55563edaf878 -->
<g id="edge112" class="edge">
<title>Node0x55563eda8ac8&#45;&gt;Node0x55563edaf878</title>
<path fill="none" stroke="#ff7f7f" d="M1376.35,-461.47C1273.13,-422.1 1018.24,-324.9 906.25,-282.19"/>
<polygon fill="#ff7f7f" stroke="#ff7f7f" points="907.42,-278.89 896.83,-278.6 904.93,-285.43 907.42,-278.89"/>
</g>
<!-- Node0x55563eda8ac8&#45;&gt;Node0x55563eda2df8 -->
<g id="edge115" class="edge">
<title>Node0x55563eda8ac8&#45;&gt;Node0x55563eda2df8</title>
<path fill="none" stroke="#ff7f7f" d="M1417.36,-461.27C1406.8,-412.66 1375.01,-275.77 1345,-242 1332.61,-228.05 1315.85,-217.51 1298.89,-209.64"/>
<polygon fill="#ff7f7f" stroke="#ff7f7f" points="1300.03,-206.32 1289.47,-205.53 1297.24,-212.74 1300.03,-206.32"/>
</g>
<!-- Node0x55563eda8ac8&#45;&gt;Node0x55563eda9bf8 -->
<g id="edge118" class="edge">
<title>Node0x55563eda8ac8&#45;&gt;Node0x55563eda9bf8</title>
<path fill="none" stroke="#ff7f7f" d="M1493.03,-468.67C1590.35,-455.38 1763.15,-431.78 1863.3,-418.11"/>
<polygon fill="#ff7f7f" stroke="#ff7f7f" points="1863.92,-421.56 1873.36,-416.74 1862.98,-414.62 1863.92,-421.56"/>
</g>
<!-- Node0x55563eda8ac8&#45;&gt;Node0x55563eda91f8 -->
<g id="edge117" class="edge">
<title>Node0x55563eda8ac8&#45;&gt;Node0x55563eda91f8</title>
<path fill="none" stroke="#ff7f7f" d="M1433.22,-497.53C1455.69,-539.65 1494.67,-650.12 1444,-717 1408.32,-764.11 1359.33,-712.82 1316,-753 1298.25,-769.46 1290.02,-796.25 1284.59,-816.41"/>
<polygon fill="#ff7f7f" stroke="#ff7f7f" points="1281.16,-815.7 1281.98,-826.27 1287.93,-817.5 1281.16,-815.7"/>
</g>
<!-- Node0x55563eda8ac8&#45;&gt;Node0x55563edab4f8 -->
<g id="edge113" class="edge">
<title>Node0x55563eda8ac8&#45;&gt;Node0x55563edab4f8</title>
<path fill="none" stroke="#ff7f7f" d="M1437.22,-497.9C1503.51,-568.91 1752.33,-834.29 1795,-863 1814.98,-876.44 1838.85,-887.43 1860.72,-895.87"/>
<polygon fill="#ff7f7f" stroke="#ff7f7f" points="1859.68,-899.22 1870.28,-899.46 1862.14,-892.67 1859.68,-899.22"/>
</g>
<!-- Node0x55563eda8ac8&#45;&gt;Node0x55563eda3cf8 -->
<g id="edge116" class="edge">
<title>Node0x55563eda8ac8&#45;&gt;Node0x55563eda3cf8</title>
<path fill="none" stroke="#ff7f7f" d="M1464.42,-461.44C1486.34,-452.02 1512.89,-439.33 1535,-425 1681.24,-330.21 1686.6,-265.06 1832,-169 1850.36,-156.87 1871.88,-145.73 1890.92,-136.8"/>
<polygon fill="#ff7f7f" stroke="#ff7f7f" points="1892.43,-139.96 1900.05,-132.59 1889.5,-133.6 1892.43,-139.96"/>
</g>
<!-- Node0x55563eda8ac8&#45;&gt;Node0x55563eda7da8 -->
<g id="edge114" class="edge">
<title>Node0x55563eda8ac8&#45;&gt;Node0x55563eda7da8</title>
<path fill="none" stroke="#ff7f7f" d="M1348.86,-494.38C1286.21,-505.86 1194.88,-522.22 1124.98,-534.49"/>
<polygon fill="#ff7f7f" stroke="#ff7f7f" points="1124.07,-531.09 1114.82,-536.27 1125.28,-537.99 1124.07,-531.09"/>
</g>
<!-- Node0x55563eda85c8 -->
<g id="node24" class="node">
<title>Node0x55563eda85c8</title>
<polygon fill="#ff7f7f" stroke="black" points="1252.5,-680.5 1252.5,-716.5 1425.5,-716.5 1425.5,-680.5 1252.5,-680.5"/>
<text text-anchor="middle" x="1339" y="-694.8" font-family="Times,serif" font-size="14.00">lib/libLLVMRemarks.a</text>
</g>
<!-- Node0x55563eda8ac8&#45;&gt;Node0x55563eda85c8 -->
<g id="edge119" class="edge">
<title>Node0x55563eda8ac8&#45;&gt;Node0x55563eda85c8</title>
<path fill="none" stroke="#ff7f7f" d="M1418.35,-497.75C1407.61,-535.65 1373.56,-626.41 1353.46,-671.36"/>
<polygon fill="#ff7f7f" stroke="#ff7f7f" points="1350.27,-669.92 1349.28,-680.47 1356.63,-672.84 1350.27,-669.92"/>
</g>
<!-- Node0x55563eda6868&#45;&gt;Node0x55563edabd68 -->
<g id="edge121" class="edge">
<title>Node0x55563eda6868&#45;&gt;Node0x55563edabd68</title>
<path fill="none" stroke="#ff7f7f" d="M2075,-789.82C2070.46,-822.1 2056.67,-892.13 2019,-936 1974.31,-988.05 1947.79,-986.46 1883,-1009 1838.34,-1024.54 1788.28,-1035.76 1742.08,-1043.77"/>
<polygon fill="#ff7f7f" stroke="#ff7f7f" points="1741.26,-1040.36 1731.98,-1045.49 1742.43,-1047.27 1741.26,-1040.36"/>
</g>
<!-- Node0x55563eda6868&#45;&gt;Node0x55563eda19f8 -->
<g id="edge122" class="edge">
<title>Node0x55563eda6868&#45;&gt;Node0x55563eda19f8</title>
<path fill="none" stroke="#ff7f7f" d="M2086.58,-753.48C2111.44,-707.45 2175.38,-576.17 2165,-461 2161.88,-426.37 2154.04,-387.06 2148.38,-361.57"/>
<polygon fill="#ff7f7f" stroke="#ff7f7f" points="2151.74,-360.53 2146.11,-351.55 2144.91,-362.08 2151.74,-360.53"/>
</g>
<!-- Node0x55563eda6868&#45;&gt;Node0x55563eda9bf8 -->
<g id="edge123" class="edge">
<title>Node0x55563eda6868&#45;&gt;Node0x55563eda9bf8</title>
<path fill="none" stroke="#ff7f7f" d="M2079.41,-753.27C2085.49,-703.24 2096.66,-555.54 2033,-461 2024.11,-447.8 2010.79,-437.43 1997.02,-429.47"/>
<polygon fill="#ff7f7f" stroke="#ff7f7f" points="1998.42,-426.25 1987.95,-424.59 1995.1,-432.41 1998.42,-426.25"/>
</g>
<!-- Node0x55563eda6868&#45;&gt;Node0x55563eda91f8 -->
<g id="edge124" class="edge">
<title>Node0x55563eda6868&#45;&gt;Node0x55563eda91f8</title>
<path fill="none" stroke="#ff7f7f" d="M1986.88,-780.87C1831.94,-794.84 1517.08,-822.67 1362.95,-836.02"/>
<polygon fill="#ff7f7f" stroke="#ff7f7f" points="1362.25,-832.57 1352.59,-836.92 1362.85,-839.54 1362.25,-832.57"/>
</g>
<!-- Node0x55563eda6868&#45;&gt;Node0x55563edab4f8 -->
<g id="edge125" class="edge">
<title>Node0x55563eda6868&#45;&gt;Node0x55563edab4f8</title>
<path fill="none" stroke="#ff7f7f" d="M2059.11,-789.56C2032.33,-815.1 1981.72,-863.36 1951.21,-892.46"/>
<polygon fill="#ff7f7f" stroke="#ff7f7f" points="1948.74,-889.98 1943.91,-899.42 1953.57,-895.05 1948.74,-889.98"/>
</g>
<!-- Node0x55563edafd28&#45;&gt;Node0x55563edabd68 -->
<g id="edge127" class="edge">
<title>Node0x55563edafd28&#45;&gt;Node0x55563edabd68</title>
<path fill="none" stroke="#ff7f7f" d="M1418.93,-789.77C1383.26,-837.86 1288.89,-972.2 1319,-1009 1331.67,-1024.49 1365.31,-1035.59 1404.53,-1043.52"/>
<polygon fill="#ff7f7f" stroke="#ff7f7f" points="1404.13,-1047.01 1414.61,-1045.46 1405.46,-1040.13 1404.13,-1047.01"/>
</g>
<!-- Node0x55563edafd28&#45;&gt;Node0x55563eda2df8 -->
<g id="edge130" class="edge">
<title>Node0x55563edafd28&#45;&gt;Node0x55563eda2df8</title>
<path fill="none" stroke="#ff7f7f" d="M1501.24,-753.5C1534.55,-743.78 1569.34,-730.79 1579,-717 1607.04,-676.95 1590.75,-654.46 1579,-607 1533.98,-425.11 1512.11,-361.76 1368,-242 1350.82,-227.72 1329.42,-217 1308.56,-209.06"/>
<polygon fill="#ff7f7f" stroke="#ff7f7f" points="1309.62,-205.73 1299.03,-205.61 1307.24,-212.31 1309.62,-205.73"/>
</g>
<!-- Node0x55563edafd28&#45;&gt;Node0x55563eda91f8 -->
<g id="edge128" class="edge">
<title>Node0x55563edafd28&#45;&gt;Node0x55563eda91f8</title>
<path fill="none" stroke="#ff7f7f" d="M1399.79,-789.61C1378.86,-799.48 1351.19,-811.97 1327.09,-822.44"/>
<polygon fill="#ff7f7f" stroke="#ff7f7f" points="1325.5,-819.32 1317.7,-826.49 1328.27,-825.74 1325.5,-819.32"/>
</g>
<!-- Node0x55563edafd28&#45;&gt;Node0x55563edab4f8 -->
<g id="edge126" class="edge">
<title>Node0x55563edafd28&#45;&gt;Node0x55563edab4f8</title>
<path fill="none" stroke="#ff7f7f" d="M1451.42,-789.76C1476.29,-810.81 1521.64,-845.73 1567,-863 1676.43,-904.67 1712.34,-880.7 1828,-899 1829.27,-899.2 1830.55,-899.41 1831.84,-899.61"/>
<polygon fill="#ff7f7f" stroke="#ff7f7f" points="1831.41,-903.09 1841.84,-901.25 1832.54,-896.18 1831.41,-903.09"/>
</g>
<!-- Node0x55563edafd28&#45;&gt;Node0x55563eda85c8 -->
<g id="edge129" class="edge">
<title>Node0x55563edafd28&#45;&gt;Node0x55563eda85c8</title>
<path fill="none" stroke="#ff7f7f" d="M1409.49,-753.31C1397.49,-744.16 1382.57,-732.76 1369.54,-722.82"/>
<polygon fill="#ff7f7f" stroke="#ff7f7f" points="1371.38,-719.82 1361.31,-716.53 1367.13,-725.38 1371.38,-719.82"/>
</g>
<!-- Node0x55563eda6d68&#45;&gt;Node0x55563edabd68 -->
<g id="edge140" class="edge">
<title>Node0x55563eda6d68&#45;&gt;Node0x55563edabd68</title>
<path fill="none" stroke="#ff7f7f" d="M978.28,-643.5C816.25,-703.65 293.55,-908.13 390,-1009 421.57,-1042.02 974.94,-1054.93 1317.12,-1059.77"/>
<polygon fill="#ff7f7f" stroke="#ff7f7f" points="1317.13,-1063.27 1327.18,-1059.91 1317.23,-1056.27 1317.13,-1063.27"/>
</g>
<!-- Node0x55563eda6d68&#45;&gt;Node0x55563edab8b8 -->
<g id="edge141" class="edge">
<title>Node0x55563eda6d68&#45;&gt;Node0x55563edab8b8</title>
<path fill="none" stroke="#ff7f7f" d="M1006.98,-643.64C961.96,-686.5 840.98,-801.87 741,-899 718.08,-921.27 692.14,-946.81 673.66,-965.07"/>
<polygon fill="#ff7f7f" stroke="#ff7f7f" points="670.88,-962.9 666.23,-972.42 675.8,-967.88 670.88,-962.9"/>
</g>
<!-- Node0x55563eda6d68&#45;&gt;Node0x55563eda2df8 -->
<g id="edge142" class="edge">
<title>Node0x55563eda6d68&#45;&gt;Node0x55563eda2df8</title>
<path fill="none" stroke="#ff7f7f" d="M1075.66,-607.42C1093.41,-599.05 1111.91,-587.2 1124,-571 1148.58,-538.06 1143,-521.6 1143,-480.5 1143,-480.5 1143,-480.5 1143,-405.5 1143,-332.08 1185.7,-253.72 1210.57,-214.31"/>
<polygon fill="#ff7f7f" stroke="#ff7f7f" points="1213.71,-215.91 1216.18,-205.6 1207.82,-212.12 1213.71,-215.91"/>
</g>
<!-- Node0x55563eda6d68&#45;&gt;Node0x55563edab4f8 -->
<g id="edge143" class="edge">
<title>Node0x55563eda6d68&#45;&gt;Node0x55563edab4f8</title>
<path fill="none" stroke="#ff7f7f" d="M1058.54,-643.65C1100.7,-664.42 1175.82,-698.87 1244,-717 1365.26,-749.24 1410.43,-699.66 1524,-753 1588.9,-783.48 1578.02,-830.64 1642,-863 1650.65,-867.38 1752.48,-885.99 1831.75,-900.04"/>
<polygon fill="#ff7f7f" stroke="#ff7f7f" points="1831.34,-903.52 1841.79,-901.81 1832.56,-896.63 1831.34,-903.52"/>
</g>
<!-- Node0x55563eda6d68&#45;&gt;Node0x55563eda7da8 -->
<g id="edge144" class="edge">
<title>Node0x55563eda6d68&#45;&gt;Node0x55563eda7da8</title>
<path fill="none" stroke="#ff7f7f" d="M1018.88,-607.31C1017.93,-599.29 1017.56,-589.55 1017.8,-580.57"/>
<polygon fill="#ff7f7f" stroke="#ff7f7f" points="1021.3,-580.71 1018.38,-570.53 1014.31,-580.31 1021.3,-580.71"/>
</g>
<!-- Node0x55563eda6d68&#45;&gt;Node0x55563eda85c8 -->
<g id="edge145" class="edge">
<title>Node0x55563eda6d68&#45;&gt;Node0x55563eda85c8</title>
<path fill="none" stroke="#ff7f7f" d="M1106.28,-643.55C1153.58,-654 1212.89,-667.39 1259.83,-678.22"/>
<polygon fill="#ff7f7f" stroke="#ff7f7f" points="1259.12,-681.65 1269.65,-680.49 1260.69,-674.83 1259.12,-681.65"/>
</g>
<!-- Node0x55563eda32f8&#45;&gt;Node0x55563edabd68 -->
<g id="edge131" class="edge">
<title>Node0x55563eda32f8&#45;&gt;Node0x55563edabd68</title>
<path fill="none" stroke="#ff7f7f" d="M1863.54,-497.61C2024.11,-573.82 2653.99,-884.19 2536,-1009 2512.55,-1033.8 2124.03,-1048.86 1850.66,-1056.43"/>
<polygon fill="#ff7f7f" stroke="#ff7f7f" points="1850.48,-1052.93 1840.58,-1056.7 1850.67,-1059.93 1850.48,-1052.93"/>
</g>
<!-- Node0x55563eda32f8&#45;&gt;Node0x55563eda2df8 -->
<g id="edge135" class="edge">
<title>Node0x55563eda32f8&#45;&gt;Node0x55563eda2df8</title>
<path fill="none" stroke="#ff7f7f" d="M1787.31,-461.39C1717.49,-430.35 1569.63,-360.41 1459,-279 1440.01,-265.03 1441.44,-253.74 1421,-242 1394.99,-227.07 1364.6,-216.12 1335.73,-208.18"/>
<polygon fill="#ff7f7f" stroke="#ff7f7f" points="1336.57,-204.78 1326.01,-205.59 1334.78,-211.54 1336.57,-204.78"/>
</g>
<!-- Node0x55563eda32f8&#45;&gt;Node0x55563eda9bf8 -->
<g id="edge134" class="edge">
<title>Node0x55563eda32f8&#45;&gt;Node0x55563eda9bf8</title>
<path fill="none" stroke="#ff7f7f" d="M1854.31,-461.49C1869.42,-452.08 1888.41,-440.26 1904.75,-430.07"/>
<polygon fill="#ff7f7f" stroke="#ff7f7f" points="1906.88,-432.87 1913.52,-424.61 1903.18,-426.93 1906.88,-432.87"/>
</g>
<!-- Node0x55563eda32f8&#45;&gt;Node0x55563eda91f8 -->
<g id="edge132" class="edge">
<title>Node0x55563eda32f8&#45;&gt;Node0x55563eda91f8</title>
<path fill="none" stroke="#ff7f7f" d="M1818.87,-497.81C1791.52,-553.6 1696.73,-728.68 1557,-790 1495.34,-817.06 1420.24,-830.45 1362.9,-837.07"/>
<polygon fill="#ff7f7f" stroke="#ff7f7f" points="1362.33,-833.62 1352.78,-838.19 1363.1,-840.57 1362.33,-833.62"/>
</g>
<!-- Node0x55563eda32f8&#45;&gt;Node0x55563edab4f8 -->
<g id="edge133" class="edge">
<title>Node0x55563eda32f8&#45;&gt;Node0x55563edab4f8</title>
<path fill="none" stroke="#ff7f7f" d="M1830.96,-497.95C1846.23,-565.17 1901.29,-807.69 1919.85,-889.4"/>
<polygon fill="#ff7f7f" stroke="#ff7f7f" points="1916.49,-890.43 1922.12,-899.41 1923.32,-888.88 1916.49,-890.43"/>
</g>
<!-- Node0x55563eda85c8&#45;&gt;Node0x55563edabd68 -->
<g id="edge151" class="edge">
<title>Node0x55563eda85c8&#45;&gt;Node0x55563edabd68</title>
<path fill="none" stroke="#ff7f7f" d="M1298.82,-716.51C1280.04,-725.64 1258.1,-738.1 1241,-753 1210.57,-779.51 1199.64,-787.67 1187,-826 1160.93,-905.07 1164.74,-953.72 1227,-1009 1244.79,-1024.8 1283.43,-1035.93 1329,-1043.78"/>
<polygon fill="#ff7f7f" stroke="#ff7f7f" points="1328.69,-1047.27 1339.13,-1045.45 1329.83,-1040.37 1328.69,-1047.27"/>
</g>
<!-- Node0x55563eda85c8&#45;&gt;Node0x55563edab8b8 -->
<g id="edge153" class="edge">
<title>Node0x55563eda85c8&#45;&gt;Node0x55563edab8b8</title>
<path fill="none" stroke="#ff7f7f" d="M1283.24,-716.59C1251.35,-726.64 1210.71,-739.91 1175,-753 1013.66,-812.13 972.42,-825.7 817,-899 771.67,-920.38 721.25,-948.09 687.58,-967.19"/>
<polygon fill="#ff7f7f" stroke="#ff7f7f" points="685.51,-964.34 678.55,-972.33 688.97,-970.43 685.51,-964.34"/>
</g>
<!-- Node0x55563eda85c8&#45;&gt;Node0x55563edb0098 -->
<g id="edge146" class="edge">
<title>Node0x55563eda85c8&#45;&gt;Node0x55563edb0098</title>
<path fill="none" stroke="#ff7f7f" d="M1329.65,-680.21C1324.62,-669.99 1318.87,-656.62 1316,-644 1308.8,-612.34 1313.67,-603.46 1313,-571 1312.66,-554.56 1312.1,-550.42 1313,-534 1314.78,-501.41 1317,-493.39 1321,-461 1337.01,-331.28 1445.47,-264.29 1356,-169 1335.65,-147.32 1004.43,-131.73 762.08,-123.15"/>
<polygon fill="#ff7f7f" stroke="#ff7f7f" points="762.17,-119.65 752.05,-122.8 761.92,-126.65 762.17,-119.65"/>
</g>
<!-- Node0x55563eda85c8&#45;&gt;Node0x55563eda2df8 -->
<g id="edge148" class="edge">
<title>Node0x55563eda85c8&#45;&gt;Node0x55563eda2df8</title>
<path fill="none" stroke="#ff7f7f" d="M1317.17,-680.39C1306.45,-670.82 1294.3,-658.01 1287,-644 1271.74,-614.7 1277.47,-603.73 1273,-571 1264.19,-506.49 1265.44,-489.96 1261,-425 1255.44,-343.74 1269.59,-321.3 1251,-242 1248.88,-232.94 1245.31,-223.49 1241.61,-215.09"/>
<polygon fill="#ff7f7f" stroke="#ff7f7f" points="1244.68,-213.39 1237.28,-205.8 1238.33,-216.34 1244.68,-213.39"/>
</g>
<!-- Node0x55563eda85c8&#45;&gt;Node0x55563eda9bf8 -->
<g id="edge150" class="edge">
<title>Node0x55563eda85c8&#45;&gt;Node0x55563eda9bf8</title>
<path fill="none" stroke="#ff7f7f" d="M1357.48,-680.3C1405.84,-636.29 1541.74,-519.02 1677,-461 1736.65,-435.41 1809.23,-421.84 1863.18,-414.78"/>
<polygon fill="#ff7f7f" stroke="#ff7f7f" points="1863.89,-418.22 1873.37,-413.5 1863.01,-411.28 1863.89,-418.22"/>
</g>
<!-- Node0x55563eda85c8&#45;&gt;Node0x55563eda91f8 -->
<g id="edge155" class="edge">
<title>Node0x55563eda85c8&#45;&gt;Node0x55563eda91f8</title>
<path fill="none" stroke="#ff7f7f" d="M1292.41,-716.54C1276.35,-724.92 1260.11,-736.79 1251,-753 1239.78,-772.95 1247.93,-798.41 1257.49,-817.24"/>
<polygon fill="#ff7f7f" stroke="#ff7f7f" points="1254.5,-819.07 1262.38,-826.16 1260.64,-815.71 1254.5,-819.07"/>
</g>
<!-- Node0x55563eda85c8&#45;&gt;Node0x55563edab4f8 -->
<g id="edge147" class="edge">
<title>Node0x55563eda85c8&#45;&gt;Node0x55563edab4f8</title>
<path fill="none" stroke="#ff7f7f" d="M1425.53,-714.55C1494,-726.96 1580.45,-743.94 1595,-753 1647.69,-785.79 1628.46,-829.98 1681,-863 1694.12,-871.25 1768.43,-886.87 1831.81,-899.11"/>
<polygon fill="#ff7f7f" stroke="#ff7f7f" points="1831.4,-902.6 1841.88,-901.05 1832.72,-895.72 1831.4,-902.6"/>
</g>
<!-- Node0x55563eda85c8&#45;&gt;Node0x55563eda3cf8 -->
<g id="edge154" class="edge">
<title>Node0x55563eda85c8&#45;&gt;Node0x55563eda3cf8</title>
<path fill="none" stroke="#ff7f7f" d="M1333.95,-680.42C1322.91,-639.58 1300.61,-534.22 1340,-461 1367.71,-409.49 1725.4,-194.58 1778,-169 1805.67,-155.54 1837.56,-144.23 1865.75,-135.53"/>
<polygon fill="#ff7f7f" stroke="#ff7f7f" points="1867,-138.81 1875.56,-132.56 1864.97,-132.11 1867,-138.81"/>
</g>
<!-- Node0x55563eda85c8&#45;&gt;Node0x55563eda7da8 -->
<g id="edge149" class="edge">
<title>Node0x55563eda85c8&#45;&gt;Node0x55563eda7da8</title>
<path fill="none" stroke="#ff7f7f" d="M1304.18,-680.4C1266.22,-661.88 1203.6,-631.68 1149,-607 1124.63,-595.98 1097.34,-584.24 1074.49,-574.57"/>
<polygon fill="#ff7f7f" stroke="#ff7f7f" points="1075.57,-571.22 1065,-570.56 1072.85,-577.67 1075.57,-571.22"/>
</g>
<!-- Node0x55563eda85c8&#45;&gt;Node0x55563eda8ac8 -->
<g id="edge152" class="edge">
<title>Node0x55563eda85c8&#45;&gt;Node0x55563eda8ac8</title>
<path fill="none" stroke="#ff7f7f" d="M1341.59,-680.47C1352.23,-642.77 1386.27,-552.04 1406.42,-506.91"/>
<polygon fill="#ff7f7f" stroke="#ff7f7f" points="1409.63,-508.3 1410.62,-497.75 1403.27,-505.38 1409.63,-508.3"/>
</g>
<!-- Node0x55563eda85c8&#45;&gt;Node0x55563eda6d68 -->
<g id="edge156" class="edge">
<title>Node0x55563eda85c8&#45;&gt;Node0x55563eda6d68</title>
<path fill="none" stroke="#ff7f7f" d="M1257.93,-680.49C1210.67,-670.06 1151.35,-656.66 1104.38,-645.82"/>
<polygon fill="#ff7f7f" stroke="#ff7f7f" points="1105.08,-642.39 1094.55,-643.55 1103.5,-649.21 1105.08,-642.39"/>
</g>
<!-- Node0x55563eda78f8 -->
<g id="node25" class="node">
<title>Node0x55563eda78f8</title>
<polygon fill="none" stroke="black" points="2239,-1118.5 2239,-1154.5 2455,-1154.5 2455,-1118.5 2239,-1118.5"/>
<text text-anchor="middle" x="2347" y="-1132.8" font-family="Times,serif" font-size="14.00">lib/libLLVMDebugInfoMSF.a</text>
</g>
<!-- Node0x55563eda78f8&#45;&gt;Node0x55563edabd68 -->
<g id="edge136" class="edge">
<title>Node0x55563eda78f8&#45;&gt;Node0x55563edabd68</title>
<path fill="none" stroke="black" d="M2238.9,-1125.44C2119.04,-1114.29 1923.33,-1096.08 1777.02,-1082.46"/>
<polygon fill="black" stroke="black" points="1777.29,-1078.97 1767.01,-1081.53 1776.64,-1085.94 1777.29,-1078.97"/>
</g>
<!-- Node0x55563eda78f8&#45;&gt;Node0x55563eda2df8 -->
<g id="edge137" class="edge">
<title>Node0x55563eda78f8&#45;&gt;Node0x55563eda2df8</title>
<path fill="none" stroke="black" d="M2455.26,-1130.97C2624.6,-1121.37 2939.98,-1092.46 3009,-1009 3019.48,-996.33 3009.42,-988.44 3009,-972 3005.89,-850.77 2995,-820.77 2995,-699.5 2995,-699.5 2995,-699.5 2995,-624.5 2995,-522.83 2832.6,-291.87 2744,-242 2713.95,-225.09 1717.93,-200.03 1356.98,-191.48"/>
<polygon fill="black" stroke="black" points="1356.83,-187.98 1346.75,-191.24 1356.66,-194.98 1356.83,-187.98"/>
</g>
<!-- Node0x55563eda78f8&#45;&gt;Node0x55563eda91f8 -->
<g id="edge138" class="edge">
<title>Node0x55563eda78f8&#45;&gt;Node0x55563eda91f8</title>
<path fill="none" stroke="black" d="M2299.01,-1118.48C2209.24,-1087.01 2009.5,-1018.68 1838,-972 1671.4,-926.66 1473.98,-885.12 1362.42,-862.76"/>
<polygon fill="black" stroke="black" points="1363.05,-859.32 1352.55,-860.79 1361.67,-866.18 1363.05,-859.32"/>
</g>
<!-- Node0x55563eda78f8&#45;&gt;Node0x55563edab4f8 -->
<g id="edge139" class="edge">
<title>Node0x55563eda78f8&#45;&gt;Node0x55563edab4f8</title>
<path fill="none" stroke="black" d="M2395.06,-1118.4C2467.37,-1090.21 2590.22,-1031.18 2536,-972 2501.91,-934.79 2182.74,-923.34 2020.19,-919.92"/>
<polygon fill="black" stroke="black" points="2020.26,-916.42 2010.19,-919.71 2020.11,-923.41 2020.26,-916.42"/>
</g>
<!-- Node0x55563eda71c8 -->
<g id="node26" class="node">
<title>Node0x55563eda71c8</title>
<polygon fill="none" stroke="black" points="0,-1118.5 0,-1154.5 254,-1154.5 254,-1118.5 0,-1118.5"/>
<text text-anchor="middle" x="127" y="-1132.8" font-family="Times,serif" font-size="14.00">lib/libLLVMDebugInfoCodeView.a</text>
</g>
<!-- Node0x55563eda71c8&#45;&gt;Node0x55563edabd68 -->
<g id="edge158" class="edge">
<title>Node0x55563eda71c8&#45;&gt;Node0x55563edabd68</title>
<path fill="none" stroke="black" d="M254.29,-1130.57C471.49,-1121.97 927.63,-1103.13 1313,-1082 1314.32,-1081.93 1315.65,-1081.85 1316.98,-1081.78"/>
<polygon fill="black" stroke="black" points="1317.46,-1085.26 1327.25,-1081.21 1317.07,-1078.27 1317.46,-1085.26"/>
</g>
<!-- Node0x55563eda71c8&#45;&gt;Node0x55563edb0098 -->
<g id="edge162" class="edge">
<title>Node0x55563eda71c8&#45;&gt;Node0x55563edb0098</title>
<path fill="none" stroke="black" d="M100.27,-1118.34C66.58,-1094.37 13,-1047.46 13,-991.5 13,-991.5 13,-991.5 13,-624.5 13,-537.76 196.67,-201.25 240,-169 259.71,-154.33 307.36,-142.77 357.1,-134.2"/>
<polygon fill="black" stroke="black" points="357.79,-137.64 367.07,-132.53 356.63,-130.74 357.79,-137.64"/>
</g>
<!-- Node0x55563eda71c8&#45;&gt;Node0x55563edaf878 -->
<g id="edge163" class="edge">
<title>Node0x55563eda71c8&#45;&gt;Node0x55563edaf878</title>
<path fill="none" stroke="black" d="M130.41,-1118.31C145.28,-1047.27 210.37,-772.53 358,-607 493.52,-455.04 535,-417.38 711,-315 733.98,-301.63 760.9,-290.46 785.04,-281.83"/>
<polygon fill="black" stroke="black" points="786.2,-285.13 794.48,-278.53 783.89,-278.52 786.2,-285.13"/>
</g>
<!-- Node0x55563eda71c8&#45;&gt;Node0x55563eda2df8 -->
<g id="edge159" class="edge">
<title>Node0x55563eda71c8&#45;&gt;Node0x55563eda2df8</title>
<path fill="none" stroke="black" d="M110.88,-1118.41C88.57,-1092.9 51,-1042.38 51,-991.5 51,-991.5 51,-991.5 51,-624.5 51,-501.51 338.07,-290.72 451,-242 508.8,-217.06 893.7,-200.09 1099.2,-192.7"/>
<polygon fill="black" stroke="black" points="1099.58,-196.19 1109.45,-192.33 1099.33,-189.19 1099.58,-196.19"/>
</g>
<!-- Node0x55563eda71c8&#45;&gt;Node0x55563eda91f8 -->
<g id="edge160" class="edge">
<title>Node0x55563eda71c8&#45;&gt;Node0x55563eda91f8</title>
<path fill="none" stroke="black" d="M254.31,-1124.25C445.36,-1105.81 795.81,-1065.47 908,-1009 929.06,-998.4 926.23,-984.84 946,-972 1024.8,-920.84 1127.42,-885.47 1196.73,-865.4"/>
<polygon fill="black" stroke="black" points="1198.06,-868.66 1206.71,-862.55 1196.13,-861.93 1198.06,-868.66"/>
</g>
<!-- Node0x55563eda71c8&#45;&gt;Node0x55563edab4f8 -->
<g id="edge157" class="edge">
<title>Node0x55563eda71c8&#45;&gt;Node0x55563edab4f8</title>
<path fill="none" stroke="black" d="M254.22,-1135.66C415.29,-1133.92 700.75,-1124.33 941,-1082 1113.31,-1051.64 1147.03,-1004.28 1319,-972 1498.33,-938.34 1711.54,-925.75 1831.58,-921.12"/>
<polygon fill="black" stroke="black" points="1831.98,-924.61 1841.84,-920.73 1831.71,-917.61 1831.98,-924.61"/>
</g>
<!-- Node0x55563eda71c8&#45;&gt;Node0x55563eda8ac8 -->
<g id="edge161" class="edge">
<title>Node0x55563eda71c8&#45;&gt;Node0x55563eda8ac8</title>
<path fill="none" stroke="black" d="M141.32,-1118.35C188.5,-1062.36 344.52,-881.23 494,-753 656.78,-613.36 716.97,-590 924,-534 1066.55,-495.45 1239.17,-484.51 1338.91,-481.51"/>
<polygon fill="black" stroke="black" points="1339.03,-485.01 1348.92,-481.23 1338.83,-478.01 1339.03,-485.01"/>
</g>
</g>
</svg>
