<?xml version="1.0" encoding="UTF-8" standalone="no"?>
<!DOCTYPE svg PUBLIC "-//W3C//DTD SVG 1.1//EN"
 "http://www.w3.org/Graphics/SVG/1.1/DTD/svg11.dtd">
<!-- Generated by graphviz version 2.43.0 (0)
 -->
<!-- Title: bin/llvm&#45;opt&#45;report_lib/libLLVMRemarks.a Pages: 1 -->
<svg width="812pt" height="148pt"
 viewBox="0.00 0.00 812.00 148.00" xmlns="http://www.w3.org/2000/svg" xmlns:xlink="http://www.w3.org/1999/xlink">
<g id="graph0" class="graph" transform="scale(1 1) rotate(0) translate(4 144)">
<title>bin/llvm&#45;opt&#45;report_lib/libLLVMRemarks.a</title>
<polygon fill="white" stroke="transparent" points="-4,4 -4,-144 808,-144 808,4 -4,4"/>
<text text-anchor="middle" x="402" y="-7.8" font-family="Times,serif" font-size="14.00">bin/llvm&#45;opt&#45;report_lib/libLLVMRemarks.a</text>
<!-- Node0x561313e473f8 -->
<g id="node1" class="node">
<title>Node0x561313e473f8</title>
<polygon fill="none" stroke="black" points="352,-59 0,-59 0,-23 352,-23 352,-59"/>
<text text-anchor="middle" x="176" y="-37.3" font-family="Times,serif" font-size="14.00">{lib/libLLVMRemarks.a(RemarkFormat.cpp.o)}</text>
</g>
<!-- Node0x561313e44f18 -->
<g id="node2" class="node">
<title>Node0x561313e44f18</title>
<polygon fill="none" stroke="black" points="348.5,-113 3.5,-113 3.5,-77 348.5,-77 348.5,-113"/>
<text text-anchor="middle" x="176" y="-91.3" font-family="Times,serif" font-size="14.00">{lib/libLLVMRemarks.a(RemarkParser.cpp.o)}</text>
</g>
<!-- Node0x561313e45ff8 -->
<g id="node3" class="node">
<title>Node0x561313e45ff8</title>
<polygon fill="none" stroke="black" points="804,-140 388,-140 388,-104 804,-104 804,-140"/>
<text text-anchor="middle" x="596" y="-118.3" font-family="Times,serif" font-size="14.00">{lib/libLLVMRemarks.a(BitstreamRemarkParser.cpp.o)}</text>
</g>
<!-- Node0x561313e44f18&#45;&gt;Node0x561313e45ff8 -->
<g id="edge1" class="edge">
<title>Node0x561313e44f18&#45;&gt;Node0x561313e45ff8</title>
<path fill="none" stroke="black" d="M348.52,-99.43C368.57,-100.62 389.09,-101.92 409.32,-103.29"/>
<polygon fill="black" stroke="black" points="409.33,-106.8 419.54,-103.99 409.81,-99.82 409.33,-106.8"/>
</g>
<!-- Node0x561313e45dc8 -->
<g id="node4" class="node">
<title>Node0x561313e45dc8</title>
<polygon fill="none" stroke="black" points="789,-86 403,-86 403,-50 789,-50 789,-86"/>
<text text-anchor="middle" x="596" y="-64.3" font-family="Times,serif" font-size="14.00">{lib/libLLVMRemarks.a(YAMLRemarkParser.cpp.o)}</text>
</g>
<!-- Node0x561313e44f18&#45;&gt;Node0x561313e45dc8 -->
<g id="edge2" class="edge">
<title>Node0x561313e44f18&#45;&gt;Node0x561313e45dc8</title>
<path fill="none" stroke="black" d="M348.52,-77.27C363.08,-76.25 377.88,-75.26 392.64,-74.32"/>
<polygon fill="black" stroke="black" points="393.09,-77.8 402.85,-73.68 392.65,-70.82 393.09,-77.8"/>
</g>
<!-- Node0x561313e45ff8&#45;&gt;Node0x561313e44f18 -->
<g id="edge3" class="edge">
<title>Node0x561313e45ff8&#45;&gt;Node0x561313e44f18</title>
<path fill="none" stroke="black" d="M387.78,-115.36C378.02,-114.74 368.26,-114.09 358.58,-113.43"/>
<polygon fill="black" stroke="black" points="358.74,-109.93 348.52,-112.73 358.26,-116.91 358.74,-109.93"/>
</g>
<!-- Node0x561313e45dc8&#45;&gt;Node0x561313e44f18 -->
<g id="edge4" class="edge">
<title>Node0x561313e45dc8&#45;&gt;Node0x561313e44f18</title>
<path fill="none" stroke="black" d="M419.54,-86.01C399.44,-87.4 378.91,-88.73 358.72,-89.96"/>
<polygon fill="black" stroke="black" points="358.3,-86.48 348.52,-90.57 358.72,-93.47 358.3,-86.48"/>
</g>
</g>
</svg>
