<?xml version="1.0" encoding="UTF-8" standalone="no"?>
<!DOCTYPE svg PUBLIC "-//W3C//DTD SVG 1.1//EN"
 "http://www.w3.org/Graphics/SVG/1.1/DTD/svg11.dtd">
<!-- Generated by graphviz version 2.43.0 (0)
 -->
<!-- Title: bin/lli_lib/libLLVMOrcJIT.a Pages: 1 -->
<svg width="3230pt" height="1049pt"
 viewBox="0.00 0.00 3230.00 1048.74" xmlns="http://www.w3.org/2000/svg" xmlns:xlink="http://www.w3.org/1999/xlink">
<g id="graph0" class="graph" transform="scale(1 1) rotate(0) translate(4 1044.74)">
<title>bin/lli_lib/libLLVMOrcJIT.a</title>
<polygon fill="white" stroke="transparent" points="-4,4 -4,-1044.74 3226,-1044.74 3226,4 -4,4"/>
<text text-anchor="middle" x="1611" y="-7.8" font-family="Times,serif" font-size="14.00">bin/lli_lib/libLLVMOrcJIT.a</text>
<!-- Node0x5596df7c87d8 -->
<g id="node1" class="node">
<title>Node0x5596df7c87d8</title>
<polygon fill="none" stroke="black" points="819,-809 481,-809 481,-773 819,-773 819,-809"/>
<text text-anchor="middle" x="650" y="-787.3" font-family="Times,serif" font-size="14.00">{lib/libLLVMOrcJIT.a(MachOPlatform.cpp.o)}</text>
</g>
<!-- Node0x5596df7b79d8 -->
<g id="node2" class="node">
<title>Node0x5596df7b79d8</title>
<polygon fill="none" stroke="black" points="2102.5,-533 1843.5,-533 1843.5,-497 2102.5,-497 2102.5,-533"/>
<text text-anchor="middle" x="1973" y="-511.3" font-family="Times,serif" font-size="14.00">{lib/libLLVMOrcJIT.a(Core.cpp.o)}</text>
</g>
<!-- Node0x5596df7c87d8&#45;&gt;Node0x5596df7b79d8 -->
<g id="edge1" class="edge">
<title>Node0x5596df7c87d8&#45;&gt;Node0x5596df7b79d8</title>
<path fill="none" stroke="black" d="M819.03,-793.35C1118.96,-796.81 1718.75,-800.13 1755,-772 1802.7,-734.98 1756.14,-690.3 1791,-641 1824.29,-593.91 1881.06,-558.62 1922.16,-537.54"/>
<polygon fill="black" stroke="black" points="1923.83,-540.62 1931.19,-533 1920.69,-534.36 1923.83,-540.62"/>
</g>
<!-- Node0x5596df7dc468 -->
<g id="node3" class="node">
<title>Node0x5596df7dc468</title>
<polygon fill="none" stroke="black" points="2155,-855 1791,-855 1791,-819 2155,-819 2155,-855"/>
<text text-anchor="middle" x="1973" y="-833.3" font-family="Times,serif" font-size="14.00">{lib/libLLVMOrcJIT.a(ObjectLinkingLayer.cpp.o)}</text>
</g>
<!-- Node0x5596df7c87d8&#45;&gt;Node0x5596df7dc468 -->
<g id="edge2" class="edge">
<title>Node0x5596df7c87d8&#45;&gt;Node0x5596df7dc468</title>
<path fill="none" stroke="black" d="M779.32,-809.02C915.04,-827.09 1135.6,-853.7 1327,-864 1516.95,-874.23 1565.14,-875.77 1755,-864 1782.17,-862.32 1811.14,-859.46 1838.77,-856.22"/>
<polygon fill="black" stroke="black" points="1839.37,-859.67 1848.88,-855 1838.54,-852.72 1839.37,-859.67"/>
</g>
<!-- Node0x5596df7b9b98 -->
<g id="node4" class="node">
<title>Node0x5596df7b9b98</title>
<polygon fill="none" stroke="black" points="2497,-552 2191,-552 2191,-516 2497,-516 2497,-552"/>
<text text-anchor="middle" x="2344" y="-530.3" font-family="Times,serif" font-size="14.00">{lib/libLLVMOrcJIT.a(DebugUtils.cpp.o)}</text>
</g>
<!-- Node0x5596df7b79d8&#45;&gt;Node0x5596df7b9b98 -->
<g id="edge3" class="edge">
<title>Node0x5596df7b79d8&#45;&gt;Node0x5596df7b9b98</title>
<path fill="none" stroke="black" d="M2102.54,-521.62C2127.81,-522.92 2154.62,-524.3 2180.83,-525.65"/>
<polygon fill="black" stroke="black" points="2180.67,-529.15 2190.83,-526.16 2181.03,-522.16 2180.67,-529.15"/>
</g>
<!-- Node0x5596df7dc468&#45;&gt;Node0x5596df7b79d8 -->
<g id="edge39" class="edge">
<title>Node0x5596df7dc468&#45;&gt;Node0x5596df7b79d8</title>
<path fill="none" stroke="black" d="M1895.59,-818.94C1851.42,-804.23 1799.67,-778.54 1773,-735 1753.27,-702.79 1755.27,-683.36 1773,-650 1802.31,-594.86 1865.29,-558.16 1912.8,-537.12"/>
<polygon fill="black" stroke="black" points="1914.28,-540.3 1922.08,-533.12 1911.51,-533.87 1914.28,-540.3"/>
</g>
<!-- Node0x5596df7b6f38 -->
<g id="node5" class="node">
<title>Node0x5596df7b6f38</title>
<polygon fill="none" stroke="black" points="2476,-460 2212,-460 2212,-424 2476,-424 2476,-460"/>
<text text-anchor="middle" x="2344" y="-438.3" font-family="Times,serif" font-size="14.00">{lib/libLLVMOrcJIT.a(Layer.cpp.o)}</text>
</g>
<!-- Node0x5596df7dc468&#45;&gt;Node0x5596df7b6f38 -->
<g id="edge40" class="edge">
<title>Node0x5596df7dc468&#45;&gt;Node0x5596df7b6f38</title>
<path fill="none" stroke="black" d="M2042.44,-818.85C2081.57,-804.87 2128.08,-781.43 2155,-744 2217.2,-657.5 2125.79,-591.25 2191,-507 2206.29,-487.25 2228.74,-473.42 2251.73,-463.76"/>
<polygon fill="black" stroke="black" points="2253.22,-466.93 2261.24,-460 2250.65,-460.42 2253.22,-466.93"/>
</g>
<!-- Node0x5596df7b6f38&#45;&gt;Node0x5596df7b79d8 -->
<g id="edge44" class="edge">
<title>Node0x5596df7b6f38&#45;&gt;Node0x5596df7b79d8</title>
<path fill="none" stroke="black" d="M2251.88,-460.03C2198.24,-470.64 2130.3,-484.08 2075.03,-495.01"/>
<polygon fill="black" stroke="black" points="2074.34,-491.58 2065.21,-496.96 2075.7,-498.45 2074.34,-491.58"/>
</g>
<!-- Node0x5596df7b8f68 -->
<g id="node7" class="node">
<title>Node0x5596df7b8f68</title>
<polygon fill="none" stroke="black" points="2878.5,-506 2547.5,-506 2547.5,-470 2878.5,-470 2878.5,-506"/>
<text text-anchor="middle" x="2713" y="-484.3" font-family="Times,serif" font-size="14.00">{lib/libLLVMOrcJIT.a(ExecutionUtils.cpp.o)}</text>
</g>
<!-- Node0x5596df7b6f38&#45;&gt;Node0x5596df7b8f68 -->
<g id="edge45" class="edge">
<title>Node0x5596df7b6f38&#45;&gt;Node0x5596df7b8f68</title>
<path fill="none" stroke="black" d="M2476.2,-458.44C2502.77,-461.78 2530.94,-465.31 2558.21,-468.72"/>
<polygon fill="black" stroke="black" points="2557.86,-472.21 2568.21,-469.98 2558.73,-465.26 2557.86,-472.21"/>
</g>
<!-- Node0x5596df7dcb48 -->
<g id="node8" class="node">
<title>Node0x5596df7dcb48</title>
<polygon fill="none" stroke="black" points="3222,-506 2929,-506 2929,-470 3222,-470 3222,-506"/>
<text text-anchor="middle" x="3075.5" y="-484.3" font-family="Times,serif" font-size="14.00">{lib/libLLVMOrcJIT.a(Mangling.cpp.o)}</text>
</g>
<!-- Node0x5596df7b6f38&#45;&gt;Node0x5596df7dcb48 -->
<g id="edge46" class="edge">
<title>Node0x5596df7b6f38&#45;&gt;Node0x5596df7dcb48</title>
<path fill="none" stroke="black" d="M2476.19,-442.39C2587.37,-443.72 2750.92,-448.01 2893,-461 2913.81,-462.9 2935.88,-465.6 2957.19,-468.57"/>
<polygon fill="black" stroke="black" points="2956.86,-472.06 2967.25,-470 2957.84,-465.13 2956.86,-472.06"/>
</g>
<!-- Node0x5596df7b6088 -->
<g id="node21" class="node">
<title>Node0x5596df7b6088</title>
<polygon fill="none" stroke="black" points="2893,-292 2533,-292 2533,-256 2893,-256 2893,-292"/>
<text text-anchor="middle" x="2713" y="-270.3" font-family="Times,serif" font-size="14.00">{lib/libLLVMOrcJIT.a(ThreadSafeModule.cpp.o)}</text>
</g>
<!-- Node0x5596df7b6f38&#45;&gt;Node0x5596df7b6088 -->
<g id="edge47" class="edge">
<title>Node0x5596df7b6f38&#45;&gt;Node0x5596df7b6088</title>
<path fill="none" stroke="black" d="M2384.62,-423.86C2452.21,-392.92 2589.57,-330.05 2663.04,-296.41"/>
<polygon fill="black" stroke="black" points="2664.91,-299.41 2672.54,-292.06 2661.99,-293.04 2664.91,-299.41"/>
</g>
<!-- Node0x5596df7b9e18 -->
<g id="node6" class="node">
<title>Node0x5596df7b9e18</title>
<polygon fill="none" stroke="black" points="1755,-855 1327,-855 1327,-819 1755,-819 1755,-855"/>
<text text-anchor="middle" x="1541" y="-833.3" font-family="Times,serif" font-size="14.00">{lib/libLLVMOrcJIT.a(DebugObjectManagerPlugin.cpp.o)}</text>
</g>
<!-- Node0x5596df7b9e18&#45;&gt;Node0x5596df7b79d8 -->
<g id="edge4" class="edge">
<title>Node0x5596df7b9e18&#45;&gt;Node0x5596df7b79d8</title>
<path fill="none" stroke="black" d="M1736.91,-818.88C1743.33,-814.84 1749.4,-810.24 1755,-805 1809.5,-754.03 1749.52,-703.03 1791,-641 1822.85,-593.36 1879.34,-558.35 1920.76,-537.5"/>
<polygon fill="black" stroke="black" points="1922.45,-540.56 1929.88,-533.01 1919.36,-534.28 1922.45,-540.56"/>
</g>
<!-- Node0x5596df7b9e18&#45;&gt;Node0x5596df7dc468 -->
<g id="edge5" class="edge">
<title>Node0x5596df7b9e18&#45;&gt;Node0x5596df7dc468</title>
<path fill="none" stroke="black" d="M1755.11,-837C1763.59,-837 1772.08,-837 1780.52,-837"/>
<polygon fill="black" stroke="black" points="1780.78,-840.5 1790.78,-837 1780.78,-833.5 1780.78,-840.5"/>
</g>
<!-- Node0x5596df7b8f68&#45;&gt;Node0x5596df7b79d8 -->
<g id="edge6" class="edge">
<title>Node0x5596df7b8f68&#45;&gt;Node0x5596df7b79d8</title>
<path fill="none" stroke="black" d="M2547.45,-493.98C2444.93,-497.72 2310.28,-502.63 2191,-507 2165.72,-507.93 2138.79,-508.92 2112.81,-509.87"/>
<polygon fill="black" stroke="black" points="2112.38,-506.39 2102.51,-510.25 2112.64,-513.38 2112.38,-506.39"/>
</g>
<!-- Node0x5596df7b8f68&#45;&gt;Node0x5596df7dcb48 -->
<g id="edge7" class="edge">
<title>Node0x5596df7b8f68&#45;&gt;Node0x5596df7dcb48</title>
<path fill="none" stroke="black" d="M2878.69,-488C2892,-488 2905.42,-488 2918.66,-488"/>
<polygon fill="black" stroke="black" points="2918.75,-491.5 2928.75,-488 2918.75,-484.5 2918.75,-491.5"/>
</g>
<!-- Node0x5596df7b6308 -->
<g id="node9" class="node">
<title>Node0x5596df7b6308</title>
<polygon fill="none" stroke="black" points="1710,-709 1372,-709 1372,-673 1710,-673 1710,-709"/>
<text text-anchor="middle" x="1541" y="-687.3" font-family="Times,serif" font-size="14.00">{lib/libLLVMOrcJIT.a(IndirectionUtils.cpp.o)}</text>
</g>
<!-- Node0x5596df7b6308&#45;&gt;Node0x5596df7b79d8 -->
<g id="edge8" class="edge">
<title>Node0x5596df7b6308&#45;&gt;Node0x5596df7b79d8</title>
<path fill="none" stroke="black" d="M1612.14,-672.96C1654.21,-661.32 1708.41,-644.85 1755,-626 1818.77,-600.2 1889.06,-562.4 1931.87,-538.25"/>
<polygon fill="black" stroke="black" points="1933.86,-541.14 1940.84,-533.17 1930.41,-535.05 1933.86,-541.14"/>
</g>
<!-- Node0x5596df7b6cb8 -->
<g id="node10" class="node">
<title>Node0x5596df7b6cb8</title>
<polygon fill="none" stroke="black" points="2140,-686 1806,-686 1806,-650 2140,-650 2140,-686"/>
<text text-anchor="middle" x="1973" y="-664.3" font-family="Times,serif" font-size="14.00">{lib/libLLVMOrcJIT.a(OrcABISupport.cpp.o)}</text>
</g>
<!-- Node0x5596df7b6308&#45;&gt;Node0x5596df7b6cb8 -->
<g id="edge9" class="edge">
<title>Node0x5596df7b6308&#45;&gt;Node0x5596df7b6cb8</title>
<path fill="none" stroke="black" d="M1710.1,-682.01C1738.1,-680.51 1767.23,-678.95 1795.44,-677.44"/>
<polygon fill="black" stroke="black" points="1795.99,-680.92 1805.79,-676.89 1795.61,-673.93 1795.99,-680.92"/>
</g>
<!-- Node0x5596df7b5868 -->
<g id="node11" class="node">
<title>Node0x5596df7b5868</title>
<polygon fill="none" stroke="black" points="1258,-292 920,-292 920,-256 1258,-256 1258,-292"/>
<text text-anchor="middle" x="1089" y="-270.3" font-family="Times,serif" font-size="14.00">{lib/libLLVMOrcJIT.a(IRCompileLayer.cpp.o)}</text>
</g>
<!-- Node0x5596df7b5868&#45;&gt;Node0x5596df7b79d8 -->
<g id="edge10" class="edge">
<title>Node0x5596df7b5868&#45;&gt;Node0x5596df7b79d8</title>
<path fill="none" stroke="black" d="M1106.2,-292.25C1141.72,-330.85 1231,-420.3 1327,-458 1350.19,-467.1 1650.55,-490.93 1833.1,-504.73"/>
<polygon fill="black" stroke="black" points="1833.09,-508.24 1843.32,-505.5 1833.62,-501.26 1833.09,-508.24"/>
</g>
<!-- Node0x5596df7b5868&#45;&gt;Node0x5596df7b6f38 -->
<g id="edge11" class="edge">
<title>Node0x5596df7b5868&#45;&gt;Node0x5596df7b6f38</title>
<path fill="none" stroke="black" d="M1181.78,-255.98C1371.48,-223.03 1817.29,-167.95 2155,-301 2221.42,-327.17 2284.87,-383.43 2318.38,-416.43"/>
<polygon fill="black" stroke="black" points="2316.3,-419.3 2325.85,-423.89 2321.25,-414.35 2316.3,-419.3"/>
</g>
<!-- Node0x5596df7b5638 -->
<g id="node12" class="node">
<title>Node0x5596df7b5638</title>
<polygon fill="none" stroke="black" points="1291,-59 887,-59 887,-23 1291,-23 1291,-59"/>
<text text-anchor="middle" x="1089" y="-37.3" font-family="Times,serif" font-size="14.00">{lib/libLLVMOrcJIT.a(JITTargetMachineBuilder.cpp.o)}</text>
</g>
<!-- Node0x5596df7b71b8 -->
<g id="node13" class="node">
<title>Node0x5596df7b71b8</title>
<polygon fill="none" stroke="black" points="1254.5,-598 923.5,-598 923.5,-562 1254.5,-562 1254.5,-598"/>
<text text-anchor="middle" x="1089" y="-576.3" font-family="Times,serif" font-size="14.00">{lib/libLLVMOrcJIT.a(LazyReexports.cpp.o)}</text>
</g>
<!-- Node0x5596df7b71b8&#45;&gt;Node0x5596df7b79d8 -->
<g id="edge12" class="edge">
<title>Node0x5596df7b71b8&#45;&gt;Node0x5596df7b79d8</title>
<path fill="none" stroke="black" d="M1254.6,-567.87C1421.31,-555.58 1676.28,-536.79 1833.11,-525.24"/>
<polygon fill="black" stroke="black" points="1833.58,-528.71 1843.3,-524.48 1833.07,-521.73 1833.58,-528.71"/>
</g>
<!-- Node0x5596df7b71b8&#45;&gt;Node0x5596df7b6308 -->
<g id="edge13" class="edge">
<title>Node0x5596df7b71b8&#45;&gt;Node0x5596df7b6308</title>
<path fill="none" stroke="black" d="M1240.68,-598.04C1258.27,-603.36 1275.45,-610.21 1291,-619 1311.82,-630.78 1305.94,-647.67 1327,-659 1338.04,-664.94 1349.85,-669.87 1362.03,-673.96"/>
<polygon fill="black" stroke="black" points="1361.28,-677.4 1371.87,-677.06 1363.38,-670.72 1361.28,-677.4"/>
</g>
<!-- Node0x5596df7b71b8&#45;&gt;Node0x5596df7b6cb8 -->
<g id="edge14" class="edge">
<title>Node0x5596df7b71b8&#45;&gt;Node0x5596df7b6cb8</title>
<path fill="none" stroke="black" d="M1182.82,-598C1216.84,-604.6 1255.67,-612.14 1291,-619 1307,-622.11 1310.83,-623.91 1327,-626 1484.82,-646.4 1665.7,-657.08 1795.68,-662.56"/>
<polygon fill="black" stroke="black" points="1795.6,-666.06 1805.73,-662.98 1795.89,-659.07 1795.6,-666.06"/>
</g>
<!-- Node0x5596df7b5408 -->
<g id="node14" class="node">
<title>Node0x5596df7b5408</title>
<polygon fill="none" stroke="black" points="1695.5,-617 1386.5,-617 1386.5,-581 1695.5,-581 1695.5,-617"/>
<text text-anchor="middle" x="1541" y="-595.3" font-family="Times,serif" font-size="14.00">{lib/libLLVMOrcJIT.a(Speculation.cpp.o)}</text>
</g>
<!-- Node0x5596df7b71b8&#45;&gt;Node0x5596df7b5408 -->
<g id="edge15" class="edge">
<title>Node0x5596df7b71b8&#45;&gt;Node0x5596df7b5408</title>
<path fill="none" stroke="black" d="M1254.69,-586.95C1294.37,-588.63 1336.74,-590.42 1376.37,-592.09"/>
<polygon fill="black" stroke="black" points="1376.25,-595.59 1386.38,-592.51 1376.54,-588.6 1376.25,-595.59"/>
</g>
<!-- Node0x5596df7b5408&#45;&gt;Node0x5596df7b79d8 -->
<g id="edge48" class="edge">
<title>Node0x5596df7b5408&#45;&gt;Node0x5596df7b79d8</title>
<path fill="none" stroke="black" d="M1695.71,-582.65C1715.93,-578.55 1736.15,-573.42 1755,-567 1772.33,-561.1 1773.75,-553.12 1791,-547 1804.44,-542.23 1818.7,-538.15 1833.09,-534.67"/>
<polygon fill="black" stroke="black" points="1834.12,-538.02 1843.06,-532.35 1832.53,-531.2 1834.12,-538.02"/>
</g>
<!-- Node0x5596df7b5408&#45;&gt;Node0x5596df7b6f38 -->
<g id="edge49" class="edge">
<title>Node0x5596df7b5408&#45;&gt;Node0x5596df7b6f38</title>
<path fill="none" stroke="black" d="M1695.8,-590.04C1863.72,-579.41 2114.29,-560.77 2155,-542 2175.27,-532.66 2172.43,-519.37 2191,-507 2217.71,-489.21 2250.08,-474.56 2278.08,-463.7"/>
<polygon fill="black" stroke="black" points="2279.67,-466.84 2287.78,-460.02 2277.19,-460.29 2279.67,-466.84"/>
</g>
<!-- Node0x5596df7b5408&#45;&gt;Node0x5596df7dcb48 -->
<g id="edge50" class="edge">
<title>Node0x5596df7b5408&#45;&gt;Node0x5596df7dcb48</title>
<path fill="none" stroke="black" d="M1695.68,-593.5C1819.67,-589 1998.58,-582.36 2155,-576 2307.02,-569.81 2345.34,-573.12 2497,-561 2673.62,-546.89 2717.35,-538.26 2893,-515 2910.45,-512.69 2928.83,-510.12 2946.92,-507.51"/>
<polygon fill="black" stroke="black" points="2947.54,-510.95 2956.93,-506.05 2946.53,-504.02 2947.54,-510.95"/>
</g>
<!-- Node0x5596df7b6808 -->
<g id="node15" class="node">
<title>Node0x5596df7b6808</title>
<polygon fill="none" stroke="black" points="337,-575 76,-575 76,-539 337,-539 337,-575"/>
<text text-anchor="middle" x="206.5" y="-553.3" font-family="Times,serif" font-size="14.00">{lib/libLLVMOrcJIT.a(LLJIT.cpp.o)}</text>
</g>
<!-- Node0x5596df7b6808&#45;&gt;Node0x5596df7c87d8 -->
<g id="edge17" class="edge">
<title>Node0x5596df7b6808&#45;&gt;Node0x5596df7c87d8</title>
<path fill="none" stroke="black" d="M337.08,-550.49C364.94,-555.09 392.22,-565 413,-584 467.11,-633.48 397.31,-693 449,-745 458.41,-754.46 469.34,-762.14 481.16,-768.36"/>
<polygon fill="black" stroke="black" points="479.83,-771.6 490.35,-772.83 482.89,-765.31 479.83,-771.6"/>
</g>
<!-- Node0x5596df7b6808&#45;&gt;Node0x5596df7b79d8 -->
<g id="edge18" class="edge">
<title>Node0x5596df7b6808&#45;&gt;Node0x5596df7b79d8</title>
<path fill="none" stroke="black" d="M337.21,-553.62C545.78,-548.21 968.64,-537.37 1327,-529 1501.47,-524.92 1702.51,-520.62 1833.13,-517.88"/>
<polygon fill="black" stroke="black" points="1833.27,-521.38 1843.2,-517.67 1833.12,-514.38 1833.27,-521.38"/>
</g>
<!-- Node0x5596df7b6808&#45;&gt;Node0x5596df7dc468 -->
<g id="edge27" class="edge">
<title>Node0x5596df7b6808&#45;&gt;Node0x5596df7dc468</title>
<path fill="none" stroke="black" d="M337.23,-549.36C365.33,-553.94 392.68,-564.12 413,-584 488.22,-657.58 372.18,-746.1 449,-818 591.83,-951.68 1131.46,-876.23 1327,-882 1517.14,-887.61 1565.77,-901.41 1755,-882 1801.32,-877.25 1852.34,-866.93 1893.27,-857.37"/>
<polygon fill="black" stroke="black" points="1894.25,-860.74 1903.18,-855.03 1892.64,-853.93 1894.25,-860.74"/>
</g>
<!-- Node0x5596df7b6808&#45;&gt;Node0x5596df7b8f68 -->
<g id="edge19" class="edge">
<title>Node0x5596df7b6808&#45;&gt;Node0x5596df7b8f68</title>
<path fill="none" stroke="black" d="M337.1,-548.87C365.38,-553.42 392.84,-563.71 413,-584 503.93,-675.5 358.29,-780.29 449,-872 549.78,-973.89 944.69,-959 1088,-959 1088,-959 1088,-959 1974,-959 2307.41,-959 2611.3,-613.19 2691.46,-514.19"/>
<polygon fill="black" stroke="black" points="2694.36,-516.16 2697.89,-506.18 2688.9,-511.78 2694.36,-516.16"/>
</g>
<!-- Node0x5596df7b6808&#45;&gt;Node0x5596df7dcb48 -->
<g id="edge26" class="edge">
<title>Node0x5596df7b6808&#45;&gt;Node0x5596df7dcb48</title>
<path fill="none" stroke="black" d="M337.13,-548.53C365.49,-553.07 392.98,-563.44 413,-584 466.77,-639.23 394.55,-874.44 449,-929 650.75,-1131.16 802.4,-997 1088,-997 1088,-997 1088,-997 2345,-997 2685.63,-997 2980.84,-619.14 3056.02,-514.55"/>
<polygon fill="black" stroke="black" points="3059.08,-516.29 3062.03,-506.12 3053.38,-512.23 3059.08,-516.29"/>
</g>
<!-- Node0x5596df7b6808&#45;&gt;Node0x5596df7b6308 -->
<g id="edge20" class="edge">
<title>Node0x5596df7b6808&#45;&gt;Node0x5596df7b6308</title>
<path fill="none" stroke="black" d="M337.14,-573.96C362.31,-577.27 388.48,-580.73 413,-584 623.72,-612.07 675.48,-626.78 887,-648 1047.31,-664.08 1230.38,-675.54 1361.81,-682.56"/>
<polygon fill="black" stroke="black" points="1361.81,-686.07 1371.98,-683.1 1362.18,-679.08 1361.81,-686.07"/>
</g>
<!-- Node0x5596df7b6808&#45;&gt;Node0x5596df7b5868 -->
<g id="edge21" class="edge">
<title>Node0x5596df7b6808&#45;&gt;Node0x5596df7b5868</title>
<path fill="none" stroke="black" d="M220.16,-538.92C252.37,-494.56 342.48,-380.56 449,-333 469.92,-323.66 727.85,-301.96 909.52,-287.64"/>
<polygon fill="black" stroke="black" points="910.05,-291.11 919.74,-286.84 909.5,-284.13 910.05,-291.11"/>
</g>
<!-- Node0x5596df7b6808&#45;&gt;Node0x5596df7b5638 -->
<g id="edge22" class="edge">
<title>Node0x5596df7b6808&#45;&gt;Node0x5596df7b5638</title>
<path fill="none" stroke="black" d="M213.68,-538.68C235.3,-477.54 313.62,-278.91 449,-182 573.13,-93.14 743.01,-58.72 876.4,-46.07"/>
<polygon fill="black" stroke="black" points="877.11,-49.52 886.75,-45.12 876.48,-42.55 877.11,-49.52"/>
</g>
<!-- Node0x5596df7b6808&#45;&gt;Node0x5596df7b71b8 -->
<g id="edge23" class="edge">
<title>Node0x5596df7b6808&#45;&gt;Node0x5596df7b71b8</title>
<path fill="none" stroke="black" d="M337.42,-560.39C489.97,-564.38 743.67,-571.01 913.34,-575.44"/>
<polygon fill="black" stroke="black" points="913.29,-578.94 923.37,-575.7 913.47,-571.94 913.29,-578.94"/>
</g>
<!-- Node0x5596df7c85a8 -->
<g id="node16" class="node">
<title>Node0x5596df7c85a8</title>
<polygon fill="none" stroke="black" points="1718,-763 1364,-763 1364,-727 1718,-727 1718,-763"/>
<text text-anchor="middle" x="1541" y="-741.3" font-family="Times,serif" font-size="14.00">{lib/libLLVMOrcJIT.a(IRTransformLayer.cpp.o)}</text>
</g>
<!-- Node0x5596df7b6808&#45;&gt;Node0x5596df7c85a8 -->
<g id="edge16" class="edge">
<title>Node0x5596df7b6808&#45;&gt;Node0x5596df7c85a8</title>
<path fill="none" stroke="black" d="M337.16,-558.66C363.49,-563.13 390.11,-570.93 413,-584 435.55,-596.87 426.3,-617.4 449,-630 751.57,-797.99 1174.27,-785.44 1394.13,-764.01"/>
<polygon fill="black" stroke="black" points="1394.52,-767.49 1404.12,-763.02 1393.82,-760.52 1394.52,-767.49"/>
</g>
<!-- Node0x5596df7da0c8 -->
<g id="node17" class="node">
<title>Node0x5596df7da0c8</title>
<polygon fill="none" stroke="black" points="851,-281 449,-281 449,-245 851,-245 851,-281"/>
<text text-anchor="middle" x="650" y="-259.3" font-family="Times,serif" font-size="14.00">{lib/libLLVMOrcJIT.a(CompileOnDemandLayer.cpp.o)}</text>
</g>
<!-- Node0x5596df7b6808&#45;&gt;Node0x5596df7da0c8 -->
<g id="edge24" class="edge">
<title>Node0x5596df7b6808&#45;&gt;Node0x5596df7da0c8</title>
<path fill="none" stroke="black" d="M218.04,-538.89C247.48,-490.12 335.88,-355.68 449,-295 456.35,-291.06 464.05,-287.57 471.99,-284.49"/>
<polygon fill="black" stroke="black" points="473.2,-287.77 481.39,-281.05 470.8,-281.2 473.2,-287.77"/>
</g>
<!-- Node0x5596df7b8928 -->
<g id="node18" class="node">
<title>Node0x5596df7b8928</title>
<polygon fill="none" stroke="black" points="809,-227 491,-227 491,-191 809,-191 809,-227"/>
<text text-anchor="middle" x="650" y="-205.3" font-family="Times,serif" font-size="14.00">{lib/libLLVMOrcJIT.a(CompileUtils.cpp.o)}</text>
</g>
<!-- Node0x5596df7b6808&#45;&gt;Node0x5596df7b8928 -->
<g id="edge25" class="edge">
<title>Node0x5596df7b6808&#45;&gt;Node0x5596df7b8928</title>
<path fill="none" stroke="black" d="M214.97,-538.83C239.15,-482.64 321.13,-310.92 449,-236 459.1,-230.08 469.96,-225.25 481.23,-221.32"/>
<polygon fill="black" stroke="black" points="482.34,-224.64 490.77,-218.23 480.18,-217.98 482.34,-224.64"/>
</g>
<!-- Node0x5596df7b6588 -->
<g id="node19" class="node">
<title>Node0x5596df7b6588</title>
<polygon fill="none" stroke="black" points="1733.5,-357 1348.5,-357 1348.5,-321 1733.5,-321 1733.5,-357"/>
<text text-anchor="middle" x="1541" y="-335.3" font-family="Times,serif" font-size="14.00">{lib/libLLVMOrcJIT.a(ObjectTransformLayer.cpp.o)}</text>
</g>
<!-- Node0x5596df7b6808&#45;&gt;Node0x5596df7b6588 -->
<g id="edge28" class="edge">
<title>Node0x5596df7b6808&#45;&gt;Node0x5596df7b6588</title>
<path fill="none" stroke="black" d="M278.51,-538.95C326.46,-527.15 391.28,-511.96 449,-501 779.56,-438.24 1170.32,-385.31 1382.91,-358.29"/>
<polygon fill="black" stroke="black" points="1383.42,-361.75 1392.9,-357.02 1382.54,-354.81 1383.42,-361.75"/>
</g>
<!-- Node0x5596df7b7438 -->
<g id="node20" class="node">
<title>Node0x5596df7b7438</title>
<polygon fill="none" stroke="black" points="1749,-303 1333,-303 1333,-267 1749,-267 1749,-303"/>
<text text-anchor="middle" x="1541" y="-281.3" font-family="Times,serif" font-size="14.00">{lib/libLLVMOrcJIT.a(RTDyldObjectLinkingLayer.cpp.o)}</text>
</g>
<!-- Node0x5596df7b6808&#45;&gt;Node0x5596df7b7438 -->
<g id="edge29" class="edge">
<title>Node0x5596df7b6808&#45;&gt;Node0x5596df7b7438</title>
<path fill="none" stroke="black" d="M234.77,-538.84C278.15,-510.87 366.44,-457.72 449,-431 608.37,-379.42 1061.09,-330.02 1330.65,-304"/>
<polygon fill="black" stroke="black" points="1331.34,-307.45 1340.96,-303.01 1330.67,-300.48 1331.34,-307.45"/>
</g>
<!-- Node0x5596df7c85a8&#45;&gt;Node0x5596df7b79d8 -->
<g id="edge51" class="edge">
<title>Node0x5596df7c85a8&#45;&gt;Node0x5596df7b79d8</title>
<path fill="none" stroke="black" d="M1718.2,-737.46C1731.31,-732.55 1743.78,-726.18 1755,-718 1785.53,-695.75 1766.66,-669.89 1791,-641 1828.76,-596.17 1886.08,-559.9 1926.06,-537.99"/>
<polygon fill="black" stroke="black" points="1927.93,-540.95 1935.08,-533.13 1924.61,-534.79 1927.93,-540.95"/>
</g>
<!-- Node0x5596df7c85a8&#45;&gt;Node0x5596df7b6f38 -->
<g id="edge52" class="edge">
<title>Node0x5596df7c85a8&#45;&gt;Node0x5596df7b6f38</title>
<path fill="none" stroke="black" d="M1610.15,-763.09C1735.3,-791.81 2002.83,-831.59 2155,-695 2218.31,-638.17 2137.64,-573.26 2191,-507 2206.82,-487.35 2229.69,-473.54 2252.91,-463.86"/>
<polygon fill="black" stroke="black" points="2254.48,-467 2262.51,-460.09 2251.93,-460.49 2254.48,-467"/>
</g>
<!-- Node0x5596df7da0c8&#45;&gt;Node0x5596df7b79d8 -->
<g id="edge30" class="edge">
<title>Node0x5596df7da0c8&#45;&gt;Node0x5596df7b79d8</title>
<path fill="none" stroke="black" d="M761.11,-281.03C800.78,-287.45 845.88,-294.65 887,-301 1082.36,-331.16 1130.69,-342.8 1327,-366 1516.65,-388.41 1571.5,-351.1 1755,-404 1823,-423.6 1894.76,-464.96 1936.35,-491.29"/>
<polygon fill="black" stroke="black" points="1934.69,-494.38 1945,-496.82 1938.46,-488.49 1934.69,-494.38"/>
</g>
<!-- Node0x5596df7da0c8&#45;&gt;Node0x5596df7b6f38 -->
<g id="edge34" class="edge">
<title>Node0x5596df7da0c8&#45;&gt;Node0x5596df7b6f38</title>
<path fill="none" stroke="black" d="M851.27,-246.98C1233.69,-217.84 2040.23,-163.96 2155,-218 2243.06,-259.46 2304.67,-364.45 2330.05,-414.57"/>
<polygon fill="black" stroke="black" points="2327.06,-416.42 2334.64,-423.82 2333.33,-413.31 2327.06,-416.42"/>
</g>
<!-- Node0x5596df7da0c8&#45;&gt;Node0x5596df7b8f68 -->
<g id="edge31" class="edge">
<title>Node0x5596df7da0c8&#45;&gt;Node0x5596df7b8f68</title>
<path fill="none" stroke="black" d="M822.43,-244.93C832.2,-242.34 841.79,-239.38 851,-236 868.83,-229.47 868.99,-219.02 887,-213 1163.07,-120.76 1248.93,-163 1540,-163 1540,-163 1540,-163 1974,-163 2272.25,-163 2585.2,-388.08 2681.83,-463.62"/>
<polygon fill="black" stroke="black" points="2679.7,-466.39 2689.72,-469.83 2684.03,-460.89 2679.7,-466.39"/>
</g>
<!-- Node0x5596df7da0c8&#45;&gt;Node0x5596df7dcb48 -->
<g id="edge35" class="edge">
<title>Node0x5596df7da0c8&#45;&gt;Node0x5596df7dcb48</title>
<path fill="none" stroke="black" d="M839.4,-244.93C843.44,-242.21 847.32,-239.24 851,-236 897.59,-194.95 838.17,-139.36 887,-101 944.07,-56.17 1467.43,-87 1540,-87 1540,-87 1540,-87 2345,-87 2598.72,-87 2688.2,-97.22 2893,-247 2973.66,-305.99 3034.9,-410.9 3060.87,-460.53"/>
<polygon fill="black" stroke="black" points="3057.89,-462.4 3065.59,-469.69 3064.12,-459.2 3057.89,-462.4"/>
</g>
<!-- Node0x5596df7da0c8&#45;&gt;Node0x5596df7b6308 -->
<g id="edge32" class="edge">
<title>Node0x5596df7da0c8&#45;&gt;Node0x5596df7b6308</title>
<path fill="none" stroke="black" d="M657.29,-281.21C678.69,-340.09 754.76,-526.16 887,-607 907.27,-619.39 1176.82,-651.14 1363.19,-671.86"/>
<polygon fill="black" stroke="black" points="1363.06,-675.37 1373.39,-672.99 1363.83,-668.41 1363.06,-675.37"/>
</g>
<!-- Node0x5596df7da0c8&#45;&gt;Node0x5596df7b71b8 -->
<g id="edge33" class="edge">
<title>Node0x5596df7da0c8&#45;&gt;Node0x5596df7b71b8</title>
<path fill="none" stroke="black" d="M676.06,-281.18C750.58,-335.24 970.8,-494.98 1054.87,-555.97"/>
<polygon fill="black" stroke="black" points="1052.89,-558.85 1063.04,-561.89 1057,-553.19 1052.89,-558.85"/>
</g>
<!-- Node0x5596df7da0c8&#45;&gt;Node0x5596df7b6088 -->
<g id="edge36" class="edge">
<title>Node0x5596df7da0c8&#45;&gt;Node0x5596df7b6088</title>
<path fill="none" stroke="black" d="M837.95,-244.79C842.47,-242.13 846.84,-239.21 851,-236 884.15,-210.47 852.64,-172.89 887,-149 1006.22,-66.1 1394.79,-125 1540,-125 1540,-125 1540,-125 1974,-125 2206.69,-125 2273.78,-83.3 2497,-149 2568.73,-170.11 2641.8,-219.87 2681.58,-249.85"/>
<polygon fill="black" stroke="black" points="2679.47,-252.64 2689.55,-255.93 2683.72,-247.08 2679.47,-252.64"/>
</g>
<!-- Node0x5596df7b8928&#45;&gt;Node0x5596df7b5868 -->
<g id="edge37" class="edge">
<title>Node0x5596df7b8928&#45;&gt;Node0x5596df7b5868</title>
<path fill="none" stroke="black" d="M787.97,-227.03C809.09,-229.94 830.64,-232.99 851,-236 889.51,-241.69 931.46,-248.28 969.23,-254.36"/>
<polygon fill="black" stroke="black" points="968.81,-257.84 979.24,-255.98 969.93,-250.93 968.81,-257.84"/>
</g>
<!-- Node0x5596df7b8928&#45;&gt;Node0x5596df7b5638 -->
<g id="edge38" class="edge">
<title>Node0x5596df7b8928&#45;&gt;Node0x5596df7b5638</title>
<path fill="none" stroke="black" d="M705.91,-190.94C748.24,-175.32 806.8,-149.92 851,-116 870.77,-100.83 865.32,-85.29 887,-73 893.75,-69.17 900.83,-65.76 908.12,-62.73"/>
<polygon fill="black" stroke="black" points="909.42,-65.98 917.46,-59.09 906.88,-59.46 909.42,-65.98"/>
</g>
<!-- Node0x5596df7b6588&#45;&gt;Node0x5596df7b79d8 -->
<g id="edge53" class="edge">
<title>Node0x5596df7b6588&#45;&gt;Node0x5596df7b79d8</title>
<path fill="none" stroke="black" d="M1718.57,-357.01C1731.17,-360.87 1743.44,-365.48 1755,-371 1774.59,-380.35 1773.67,-390.93 1791,-404 1835.91,-437.86 1891.58,-470.78 1929.23,-491.86"/>
<polygon fill="black" stroke="black" points="1927.96,-495.16 1938.4,-496.96 1931.36,-489.04 1927.96,-495.16"/>
</g>
<!-- Node0x5596df7b6588&#45;&gt;Node0x5596df7b6f38 -->
<g id="edge54" class="edge">
<title>Node0x5596df7b6588&#45;&gt;Node0x5596df7b6f38</title>
<path fill="none" stroke="black" d="M1681.98,-357C1827.96,-375.77 2055.52,-405.03 2201.91,-423.86"/>
<polygon fill="black" stroke="black" points="2201.5,-427.33 2211.87,-425.14 2202.4,-420.39 2201.5,-427.33"/>
</g>
<!-- Node0x5596df7b7438&#45;&gt;Node0x5596df7b79d8 -->
<g id="edge41" class="edge">
<title>Node0x5596df7b7438&#45;&gt;Node0x5596df7b79d8</title>
<path fill="none" stroke="black" d="M1733.02,-303.07C1740.56,-305.71 1747.91,-308.67 1755,-312 1842.95,-353.31 1918.96,-443.73 1952.98,-488.63"/>
<polygon fill="black" stroke="black" points="1950.23,-490.8 1959.03,-496.71 1955.84,-486.61 1950.23,-490.8"/>
</g>
<!-- Node0x5596df7b7438&#45;&gt;Node0x5596df7b6f38 -->
<g id="edge42" class="edge">
<title>Node0x5596df7b7438&#45;&gt;Node0x5596df7b6f38</title>
<path fill="none" stroke="black" d="M1749.14,-300.33C1869.1,-312.34 2022.18,-333.09 2155,-368 2204.41,-380.99 2258.46,-403.15 2295.87,-419.85"/>
<polygon fill="black" stroke="black" points="2294.45,-423.05 2305.01,-423.96 2297.33,-416.67 2294.45,-423.05"/>
</g>
<!-- Node0x5596df7b5ae8 -->
<g id="node22" class="node">
<title>Node0x5596df7b5ae8</title>
<polygon fill="none" stroke="black" points="1731,-449 1351,-449 1351,-413 1731,-413 1731,-449"/>
<text text-anchor="middle" x="1541" y="-427.3" font-family="Times,serif" font-size="14.00">{lib/libLLVMOrcJIT.a(TargetProcessControl.cpp.o)}</text>
</g>
<!-- Node0x5596df7b5ae8&#45;&gt;Node0x5596df7b79d8 -->
<g id="edge43" class="edge">
<title>Node0x5596df7b5ae8&#45;&gt;Node0x5596df7b79d8</title>
<path fill="none" stroke="black" d="M1674.11,-449.04C1700.95,-453.21 1728.94,-457.93 1755,-463 1801.2,-471.99 1852.42,-484.16 1893.49,-494.46"/>
<polygon fill="black" stroke="black" points="1892.88,-497.92 1903.43,-496.97 1894.59,-491.13 1892.88,-497.92"/>
</g>
<!-- Node0x5596df7b91e8 -->
<g id="node23" class="node">
<title>Node0x5596df7b91e8</title>
<polygon fill="none" stroke="black" points="413,-629 0,-629 0,-593 413,-593 413,-629"/>
<text text-anchor="middle" x="206.5" y="-607.3" font-family="Times,serif" font-size="14.00">{lib/libLLVMOrcJIT.a(TPCDebugObjectRegistrar.cpp.o)}</text>
</g>
<!-- Node0x5596df7b98c8 -->
<g id="node24" class="node">
<title>Node0x5596df7b98c8</title>
<polygon fill="none" stroke="black" points="401,-683 12,-683 12,-647 401,-647 401,-683"/>
<text text-anchor="middle" x="206.5" y="-661.3" font-family="Times,serif" font-size="14.00">{lib/libLLVMOrcJIT.a(TPCEHFrameRegistrar.cpp.o)}</text>
</g>
</g>
</svg>
