<?xml version="1.0" encoding="UTF-8" standalone="no"?>
<!DOCTYPE svg PUBLIC "-//W3C//DTD SVG 1.1//EN"
 "http://www.w3.org/Graphics/SVG/1.1/DTD/svg11.dtd">
<!-- Generated by graphviz version 2.43.0 (0)
 -->
<!-- Title: bin/llvm&#45;dwarfdump_lib/libLLVMBinaryFormat.a Pages: 1 -->
<svg width="368pt" height="229pt"
 viewBox="0.00 0.00 368.00 229.00" xmlns="http://www.w3.org/2000/svg" xmlns:xlink="http://www.w3.org/1999/xlink">
<g id="graph0" class="graph" transform="scale(1 1) rotate(0) translate(4 225)">
<title>bin/llvm&#45;dwarfdump_lib/libLLVMBinaryFormat.a</title>
<polygon fill="white" stroke="transparent" points="-4,4 -4,-225 364,-225 364,4 -4,4"/>
<text text-anchor="middle" x="180" y="-7.8" font-family="Times,serif" font-size="14.00">bin/llvm&#45;dwarfdump_lib/libLLVMBinaryFormat.a</text>
<!-- Node0x55be181203c8 -->
<g id="node1" class="node">
<title>Node0x55be181203c8</title>
<polygon fill="none" stroke="black" points="341.5,-59 18.5,-59 18.5,-23 341.5,-23 341.5,-59"/>
<text text-anchor="middle" x="180" y="-37.3" font-family="Times,serif" font-size="14.00">{lib/libLLVMBinaryFormat.a(Dwarf.cpp.o)}</text>
</g>
<!-- Node0x55be18120b48 -->
<g id="node2" class="node">
<title>Node0x55be18120b48</title>
<polygon fill="none" stroke="black" points="345,-113 15,-113 15,-77 345,-77 345,-113"/>
<text text-anchor="middle" x="180" y="-91.3" font-family="Times,serif" font-size="14.00">{lib/libLLVMBinaryFormat.a(MachO.cpp.o)}</text>
</g>
<!-- Node0x55be18122218 -->
<g id="node3" class="node">
<title>Node0x55be18122218</title>
<polygon fill="none" stroke="black" points="344.5,-167 15.5,-167 15.5,-131 344.5,-131 344.5,-167"/>
<text text-anchor="middle" x="180" y="-145.3" font-family="Times,serif" font-size="14.00">{lib/libLLVMBinaryFormat.a(XCOFF.cpp.o)}</text>
</g>
<!-- Node0x55be18120f08 -->
<g id="node4" class="node">
<title>Node0x55be18120f08</title>
<polygon fill="none" stroke="black" points="342,-221 18,-221 18,-185 342,-185 342,-221"/>
<text text-anchor="middle" x="180" y="-199.3" font-family="Times,serif" font-size="14.00">{lib/libLLVMBinaryFormat.a(Magic.cpp.o)}</text>
</g>
</g>
</svg>
