<?xml version="1.0" encoding="UTF-8" standalone="no"?>
<!DOCTYPE svg PUBLIC "-//W3C//DTD SVG 1.1//EN"
 "http://www.w3.org/Graphics/SVG/1.1/DTD/svg11.dtd">
<!-- Generated by graphviz version 2.43.0 (0)
 -->
<!-- Title: bin/llvm&#45;exegesis_lib/libLLVMRuntimeDyld.a Pages: 1 -->
<svg width="2171pt" height="213pt"
 viewBox="0.00 0.00 2171.00 213.00" xmlns="http://www.w3.org/2000/svg" xmlns:xlink="http://www.w3.org/1999/xlink">
<g id="graph0" class="graph" transform="scale(1 1) rotate(0) translate(4 209)">
<title>bin/llvm&#45;exegesis_lib/libLLVMRuntimeDyld.a</title>
<polygon fill="white" stroke="transparent" points="-4,4 -4,-209 2167,-209 2167,4 -4,4"/>
<text text-anchor="middle" x="1081.5" y="-7.8" font-family="Times,serif" font-size="14.00">bin/llvm&#45;exegesis_lib/libLLVMRuntimeDyld.a</text>
<!-- Node0x56467e84b448 -->
<g id="node1" class="node">
<title>Node0x56467e84b448</title>
<polygon fill="#7fb2ff" stroke="black" points="833,-155 485,-155 485,-119 833,-119 833,-155"/>
<text text-anchor="middle" x="659" y="-133.3" font-family="Times,serif" font-size="14.00">{lib/libLLVMRuntimeDyld.a(JITSymbol.cpp.o)}</text>
</g>
<!-- Node0x56467e849af8 -->
<g id="node2" class="node">
<title>Node0x56467e849af8</title>
<polygon fill="#7fb2ff" stroke="black" points="1238,-155 869,-155 869,-119 1238,-119 1238,-155"/>
<text text-anchor="middle" x="1053.5" y="-133.3" font-family="Times,serif" font-size="14.00">{lib/libLLVMRuntimeDyld.a(RuntimeDyld.cpp.o)}</text>
</g>
<!-- Node0x56467e84b448&#45;&gt;Node0x56467e849af8 -->
<g id="edge1" class="edge">
<title>Node0x56467e84b448&#45;&gt;Node0x56467e849af8</title>
<path fill="none" stroke="#7fb2ff" d="M833.01,-130.29C841.58,-130.26 850.21,-130.25 858.83,-130.25"/>
<polygon fill="#7fb2ff" stroke="#7fb2ff" points="858.94,-133.75 868.94,-130.26 858.95,-126.75 858.94,-133.75"/>
</g>
<!-- Node0x56467e849af8&#45;&gt;Node0x56467e84b448 -->
<g id="edge3" class="edge">
<title>Node0x56467e849af8&#45;&gt;Node0x56467e84b448</title>
<path fill="none" stroke="#7fb2ff" d="M868.94,-143.74C860.34,-143.75 851.7,-143.75 843.09,-143.74"/>
<polygon fill="#7fb2ff" stroke="#7fb2ff" points="843.02,-140.24 833.01,-143.71 843,-147.24 843.02,-140.24"/>
</g>
<!-- Node0x56467e84a318 -->
<g id="node3" class="node">
<title>Node0x56467e84a318</title>
<polygon fill="#7fb2ff" stroke="black" points="1687.5,-59 1279.5,-59 1279.5,-23 1687.5,-23 1687.5,-59"/>
<text text-anchor="middle" x="1483.5" y="-37.3" font-family="Times,serif" font-size="14.00">{lib/libLLVMRuntimeDyld.a(RuntimeDyldCOFF.cpp.o)}</text>
</g>
<!-- Node0x56467e849af8&#45;&gt;Node0x56467e84a318 -->
<g id="edge4" class="edge">
<title>Node0x56467e849af8&#45;&gt;Node0x56467e84a318</title>
<path fill="none" stroke="#7fb2ff" d="M1086.38,-118.88C1126.77,-101.42 1199.05,-76.36 1269.46,-60.08"/>
<polygon fill="#7fb2ff" stroke="#7fb2ff" points="1270.39,-63.45 1279.38,-57.84 1268.85,-56.62 1270.39,-63.45"/>
</g>
<!-- Node0x56467e852478 -->
<g id="node4" class="node">
<title>Node0x56467e852478</title>
<polygon fill="#7fb2ff" stroke="black" points="1681.5,-205 1285.5,-205 1285.5,-169 1681.5,-169 1681.5,-205"/>
<text text-anchor="middle" x="1483.5" y="-183.3" font-family="Times,serif" font-size="14.00">{lib/libLLVMRuntimeDyld.a(RuntimeDyldELF.cpp.o)}</text>
</g>
<!-- Node0x56467e849af8&#45;&gt;Node0x56467e852478 -->
<g id="edge5" class="edge">
<title>Node0x56467e849af8&#45;&gt;Node0x56467e852478</title>
<path fill="none" stroke="#7fb2ff" d="M1238.18,-151.77C1282.49,-156.77 1328.58,-162.37 1368.62,-167.65"/>
<polygon fill="#7fb2ff" stroke="#7fb2ff" points="1368.29,-171.14 1378.66,-168.99 1369.21,-164.2 1368.29,-171.14"/>
</g>
<!-- Node0x56467e840278 -->
<g id="node5" class="node">
<title>Node0x56467e840278</title>
<polygon fill="#7fb2ff" stroke="black" points="1693,-113 1274,-113 1274,-77 1693,-77 1693,-113"/>
<text text-anchor="middle" x="1483.5" y="-91.3" font-family="Times,serif" font-size="14.00">{lib/libLLVMRuntimeDyld.a(RuntimeDyldMachO.cpp.o)}</text>
</g>
<!-- Node0x56467e849af8&#45;&gt;Node0x56467e840278 -->
<g id="edge6" class="edge">
<title>Node0x56467e849af8&#45;&gt;Node0x56467e840278</title>
<path fill="none" stroke="#7fb2ff" d="M1175.43,-118.99C1203.08,-115.89 1233.31,-112.72 1263.66,-109.73"/>
<polygon fill="#7fb2ff" stroke="#7fb2ff" points="1264.35,-113.18 1273.96,-108.72 1263.66,-106.21 1264.35,-113.18"/>
</g>
<!-- Node0x56467e84a318&#45;&gt;Node0x56467e84b448 -->
<g id="edge7" class="edge">
<title>Node0x56467e84a318&#45;&gt;Node0x56467e84b448</title>
<path fill="none" stroke="#7fb2ff" d="M1279.34,-51.29C1159.49,-58.99 1005.11,-71.78 869,-92 827.04,-98.23 780.89,-107.87 742.66,-116.63"/>
<polygon fill="#7fb2ff" stroke="#7fb2ff" points="741.56,-113.29 732.6,-118.95 743.14,-120.11 741.56,-113.29"/>
</g>
<!-- Node0x56467e84a318&#45;&gt;Node0x56467e849af8 -->
<g id="edge8" class="edge">
<title>Node0x56467e84a318&#45;&gt;Node0x56467e849af8</title>
<path fill="none" stroke="#7fb2ff" d="M1381.13,-59.01C1346.89,-63.67 1308.58,-69.39 1274,-77 1227.41,-87.26 1176.52,-102.96 1135.48,-115.88"/>
<polygon fill="#7fb2ff" stroke="#7fb2ff" points="1134.29,-112.59 1125.81,-118.93 1136.4,-119.26 1134.29,-112.59"/>
</g>
<!-- Node0x56467e852478&#45;&gt;Node0x56467e84b448 -->
<g id="edge9" class="edge">
<title>Node0x56467e852478&#45;&gt;Node0x56467e84b448</title>
<path fill="none" stroke="#7fb2ff" d="M1285.37,-184.16C1164.93,-181.3 1007.88,-175.55 869,-164 845.05,-162.01 819.62,-159.26 795.06,-156.28"/>
<polygon fill="#7fb2ff" stroke="#7fb2ff" points="795.32,-152.78 784.96,-155.03 794.46,-159.73 795.32,-152.78"/>
</g>
<!-- Node0x56467e852478&#45;&gt;Node0x56467e849af8 -->
<g id="edge10" class="edge">
<title>Node0x56467e852478&#45;&gt;Node0x56467e849af8</title>
<path fill="none" stroke="#7fb2ff" d="M1285.44,-170.71C1245.34,-166.11 1204.43,-161.11 1168.41,-156.35"/>
<polygon fill="#7fb2ff" stroke="#7fb2ff" points="1168.75,-152.87 1158.38,-155.02 1167.83,-159.81 1168.75,-152.87"/>
</g>
<!-- Node0x56467e852478&#45;&gt;Node0x56467e84a318 -->
<g id="edge11" class="edge">
<title>Node0x56467e852478&#45;&gt;Node0x56467e84a318</title>
<path fill="none" stroke="#7fb2ff" d="M1285.06,-175.43C1273.55,-167.93 1263.6,-158.29 1256,-146 1239.88,-119.91 1239.88,-103.09 1256,-77 1260.43,-69.82 1265.68,-63.59 1271.58,-58.18"/>
<polygon fill="#7fb2ff" stroke="#7fb2ff" points="1273.88,-60.82 1279.39,-51.77 1269.44,-55.41 1273.88,-60.82"/>
</g>
<!-- Node0x56467e843298 -->
<g id="node7" class="node">
<title>Node0x56467e843298</title>
<polygon fill="#7fb2ff" stroke="black" points="2163,-205 1729,-205 1729,-169 2163,-169 2163,-205"/>
<text text-anchor="middle" x="1946" y="-183.3" font-family="Times,serif" font-size="14.00">{lib/libLLVMRuntimeDyld.a(RuntimeDyldELFMips.cpp.o)}</text>
</g>
<!-- Node0x56467e852478&#45;&gt;Node0x56467e843298 -->
<g id="edge12" class="edge">
<title>Node0x56467e852478&#45;&gt;Node0x56467e843298</title>
<path fill="none" stroke="#7fb2ff" d="M1681.8,-180.31C1694,-180.27 1706.34,-180.25 1718.65,-180.25"/>
<polygon fill="#7fb2ff" stroke="#7fb2ff" points="1718.99,-183.75 1728.99,-180.26 1719,-176.75 1718.99,-183.75"/>
</g>
<!-- Node0x56467e840278&#45;&gt;Node0x56467e84b448 -->
<g id="edge13" class="edge">
<title>Node0x56467e840278&#45;&gt;Node0x56467e84b448</title>
<path fill="none" stroke="#7fb2ff" d="M1273.87,-94.73C1155.06,-95.91 1003.51,-99.69 869,-110 844.28,-111.89 818.01,-114.68 792.73,-117.74"/>
<polygon fill="#7fb2ff" stroke="#7fb2ff" points="792.22,-114.28 782.73,-118.98 793.08,-121.23 792.22,-114.28"/>
</g>
<!-- Node0x56467e840278&#45;&gt;Node0x56467e849af8 -->
<g id="edge14" class="edge">
<title>Node0x56467e840278&#45;&gt;Node0x56467e849af8</title>
<path fill="none" stroke="#7fb2ff" d="M1361.53,-113.02C1326.33,-116.96 1286.97,-121.01 1248.48,-124.69"/>
<polygon fill="#7fb2ff" stroke="#7fb2ff" points="1247.81,-121.24 1238.18,-125.66 1248.47,-128.2 1247.81,-121.24"/>
</g>
<!-- Node0x56467e840278&#45;&gt;Node0x56467e84a318 -->
<g id="edge15" class="edge">
<title>Node0x56467e840278&#45;&gt;Node0x56467e84a318</title>
<path fill="none" stroke="#7fb2ff" d="M1483.5,-76.79C1483.5,-74.31 1483.5,-71.83 1483.5,-69.34"/>
<polygon fill="#7fb2ff" stroke="#7fb2ff" points="1487,-69.14 1483.5,-59.14 1480,-69.14 1487,-69.14"/>
</g>
<!-- Node0x56467e84bad8 -->
<g id="node6" class="node">
<title>Node0x56467e84bad8</title>
<polygon fill="none" stroke="black" points="449,-155 0,-155 0,-119 449,-119 449,-155"/>
<text text-anchor="middle" x="224.5" y="-133.3" font-family="Times,serif" font-size="14.00">{lib/libLLVMRuntimeDyld.a(RTDyldMemoryManager.cpp.o)}</text>
</g>
<!-- Node0x56467e84bad8&#45;&gt;Node0x56467e84b448 -->
<g id="edge2" class="edge">
<title>Node0x56467e84bad8&#45;&gt;Node0x56467e84b448</title>
<path fill="none" stroke="black" d="M449.03,-137C457.54,-137 466.04,-137 474.46,-137"/>
<polygon fill="black" stroke="black" points="474.7,-140.5 484.7,-137 474.7,-133.5 474.7,-140.5"/>
</g>
<!-- Node0x56467e843298&#45;&gt;Node0x56467e849af8 -->
<g id="edge16" class="edge">
<title>Node0x56467e843298&#45;&gt;Node0x56467e849af8</title>
<path fill="none" stroke="#7fb2ff" d="M1793.24,-168.98C1760.24,-165.56 1725.48,-162.32 1693,-160 1543.94,-149.34 1374.93,-143.53 1248.25,-140.42"/>
<polygon fill="#7fb2ff" stroke="#7fb2ff" points="1248.14,-136.92 1238.06,-140.17 1247.97,-143.91 1248.14,-136.92"/>
</g>
<!-- Node0x56467e843298&#45;&gt;Node0x56467e852478 -->
<g id="edge17" class="edge">
<title>Node0x56467e843298&#45;&gt;Node0x56467e852478</title>
<path fill="none" stroke="#7fb2ff" d="M1728.99,-193.74C1716.69,-193.76 1704.34,-193.75 1692.08,-193.72"/>
<polygon fill="#7fb2ff" stroke="#7fb2ff" points="1691.81,-190.22 1681.8,-193.69 1691.79,-197.22 1691.81,-190.22"/>
</g>
</g>
</svg>
