<?xml version="1.0" encoding="UTF-8" standalone="no"?>
<!DOCTYPE svg PUBLIC "-//W3C//DTD SVG 1.1//EN"
 "http://www.w3.org/Graphics/SVG/1.1/DTD/svg11.dtd">
<!-- Generated by graphviz version 2.43.0 (0)
 -->
<!-- Title: a.out Pages: 1 -->
<svg width="1147pt" height="213pt"
 viewBox="0.00 0.00 1147.08 213.00" xmlns="http://www.w3.org/2000/svg" xmlns:xlink="http://www.w3.org/1999/xlink">
<g id="graph0" class="graph" transform="scale(1 1) rotate(0) translate(4 209)">
<title>a.out</title>
<polygon fill="white" stroke="transparent" points="-4,4 -4,-209 1143.08,-209 1143.08,4 -4,4"/>
<text text-anchor="middle" x="569.54" y="-7.8" font-family="Times,serif" font-size="14.00">a.out</text>
<!-- Node0x5562c6496708 -->
<g id="node1" class="node">
<title>Node0x5562c6496708</title>
<polygon fill="none" stroke="black" points="218.69,-168.5 218.69,-204.5 676.69,-204.5 676.69,-168.5 218.69,-168.5"/>
<text text-anchor="middle" x="447.69" y="-182.8" font-family="Times,serif" font-size="14.00">/usr/lib/gcc/x86_64&#45;linux&#45;gnu/9/../../../x86_64&#45;linux&#45;gnu/Scrt1.o</text>
</g>
<!-- Node0x5562c6496360 -->
<g id="node2" class="node">
<title>Node0x5562c6496360</title>
<ellipse fill="none" stroke="black" cx="115.69" cy="-113.5" rx="115.88" ry="18"/>
<text text-anchor="middle" x="115.69" y="-109.8" font-family="Times,serif" font-size="14.00">Node0x5562c6496360</text>
</g>
<!-- Node0x5562c6496708&#45;&gt;Node0x5562c6496360 -->
<g id="edge1" class="edge">
<title>Node0x5562c6496708&#45;&gt;Node0x5562c6496360</title>
<path fill="none" stroke="black" d="M368.17,-168.49C314.37,-156.99 243.77,-141.89 190.9,-130.58"/>
<polygon fill="black" stroke="black" points="191.42,-127.12 180.91,-128.45 189.96,-133.96 191.42,-127.12"/>
</g>
<!-- Node0x5562c64961f8 -->
<g id="node3" class="node">
<title>Node0x5562c64961f8</title>
<polygon fill="none" stroke="black" points="249.69,-95.5 249.69,-131.5 645.69,-131.5 645.69,-95.5 249.69,-95.5"/>
<text text-anchor="middle" x="447.69" y="-109.8" font-family="Times,serif" font-size="14.00">/usr/lib/x86_64&#45;linux&#45;gnu/libc_nonshared.a(elf&#45;init.oS)</text>
</g>
<!-- Node0x5562c6496708&#45;&gt;Node0x5562c64961f8 -->
<g id="edge2" class="edge">
<title>Node0x5562c6496708&#45;&gt;Node0x5562c64961f8</title>
<path fill="none" stroke="black" d="M447.69,-168.31C447.69,-160.29 447.69,-150.55 447.69,-141.57"/>
<polygon fill="black" stroke="black" points="451.19,-141.53 447.69,-131.53 444.19,-141.53 451.19,-141.53"/>
</g>
<!-- Node0x5562c6496ea0 -->
<g id="node4" class="node">
<title>Node0x5562c6496ea0</title>
<ellipse fill="none" stroke="black" cx="777.69" cy="-113.5" rx="114.28" ry="18"/>
<text text-anchor="middle" x="777.69" y="-109.8" font-family="Times,serif" font-size="14.00">Node0x5562c6496ea0</text>
</g>
<!-- Node0x5562c6496708&#45;&gt;Node0x5562c6496ea0 -->
<g id="edge3" class="edge">
<title>Node0x5562c6496708&#45;&gt;Node0x5562c6496ea0</title>
<path fill="none" stroke="black" d="M526.73,-168.49C580.29,-156.97 650.62,-141.84 703.2,-130.53"/>
<polygon fill="black" stroke="black" points="704.09,-133.92 713.13,-128.39 702.62,-127.07 704.09,-133.92"/>
</g>
<!-- Node0x5562c64971b8 -->
<g id="node7" class="node">
<title>Node0x5562c64971b8</title>
<ellipse fill="none" stroke="black" cx="447.69" cy="-41" rx="115.88" ry="18"/>
<text text-anchor="middle" x="447.69" y="-37.3" font-family="Times,serif" font-size="14.00">Node0x5562c64971b8</text>
</g>
<!-- Node0x5562c64961f8&#45;&gt;Node0x5562c64971b8 -->
<g id="edge6" class="edge">
<title>Node0x5562c64961f8&#45;&gt;Node0x5562c64971b8</title>
<path fill="none" stroke="black" d="M447.69,-95.43C447.69,-87.67 447.69,-78.28 447.69,-69.56"/>
<polygon fill="black" stroke="black" points="451.19,-69.4 447.69,-59.4 444.19,-69.4 451.19,-69.4"/>
</g>
<!-- Node0x5562c6496b40 -->
<g id="node5" class="node">
<title>Node0x5562c6496b40</title>
<polygon fill="none" stroke="black" points="779.19,-168.5 779.19,-204.5 1100.19,-204.5 1100.19,-168.5 779.19,-168.5"/>
<text text-anchor="middle" x="939.69" y="-182.8" font-family="Times,serif" font-size="14.00">/usr/lib/gcc/x86_64&#45;linux&#45;gnu/9/crtbeginS.o</text>
</g>
<!-- Node0x5562c6496b40&#45;&gt;Node0x5562c6496ea0 -->
<g id="edge5" class="edge">
<title>Node0x5562c6496b40&#45;&gt;Node0x5562c6496ea0</title>
<path fill="none" stroke="black" d="M900.89,-168.49C877.75,-158.35 848.24,-145.42 823.9,-134.75"/>
<polygon fill="black" stroke="black" points="825.07,-131.44 814.51,-130.64 822.26,-137.86 825.07,-131.44"/>
</g>
<!-- Node0x5562c6496ee8 -->
<g id="node6" class="node">
<title>Node0x5562c6496ee8</title>
<ellipse fill="none" stroke="black" cx="1024.69" cy="-113.5" rx="114.28" ry="18"/>
<text text-anchor="middle" x="1024.69" y="-109.8" font-family="Times,serif" font-size="14.00">Node0x5562c6496ee8</text>
</g>
<!-- Node0x5562c6496b40&#45;&gt;Node0x5562c6496ee8 -->
<g id="edge4" class="edge">
<title>Node0x5562c6496b40&#45;&gt;Node0x5562c6496ee8</title>
<path fill="none" stroke="black" d="M960.27,-168.31C971.2,-159.18 984.81,-147.81 996.7,-137.88"/>
<polygon fill="black" stroke="black" points="999.17,-140.38 1004.6,-131.28 994.68,-135.01 999.17,-140.38"/>
</g>
</g>
</svg>
