<?xml version="1.0" encoding="UTF-8" standalone="no"?>
<!DOCTYPE svg PUBLIC "-//W3C//DTD SVG 1.1//EN"
 "http://www.w3.org/Graphics/SVG/1.1/DTD/svg11.dtd">
<!-- Generated by graphviz version 2.43.0 (0)
 -->
<!-- Title: bin/bugpoint_lib/libLLVMDebugInfoCodeView.a Pages: 1 -->
<svg width="3559pt" height="308pt"
 viewBox="0.00 0.00 3559.00 307.92" xmlns="http://www.w3.org/2000/svg" xmlns:xlink="http://www.w3.org/1999/xlink">
<g id="graph0" class="graph" transform="scale(1 1) rotate(0) translate(4 303.92)">
<title>bin/bugpoint_lib/libLLVMDebugInfoCodeView.a</title>
<polygon fill="white" stroke="transparent" points="-4,4 -4,-303.92 3555,-303.92 3555,4 -4,4"/>
<text text-anchor="middle" x="1775.5" y="-7.8" font-family="Times,serif" font-size="14.00">bin/bugpoint_lib/libLLVMDebugInfoCodeView.a</text>
<!-- Node0x5558dfb60058 -->
<g id="node1" class="node">
<title>Node0x5558dfb60058</title>
<polygon fill="#7fb2ff" stroke="black" points="2581,-161.92 2120,-161.92 2120,-125.92 2581,-125.92 2581,-161.92"/>
<text text-anchor="middle" x="2350.5" y="-140.22" font-family="Times,serif" font-size="14.00">{lib/libLLVMDebugInfoCodeView.a(CodeViewRecordIO.cpp.o)}</text>
</g>
<!-- Node0x5558dfb5f888 -->
<g id="node2" class="node">
<title>Node0x5558dfb5f888</title>
<polygon fill="none" stroke="black" points="3551,-115.92 3118,-115.92 3118,-79.92 3551,-79.92 3551,-115.92"/>
<text text-anchor="middle" x="3334.5" y="-94.22" font-family="Times,serif" font-size="14.00">{lib/libLLVMDebugInfoCodeView.a(CodeViewError.cpp.o)}</text>
</g>
<!-- Node0x5558dfb60058&#45;&gt;Node0x5558dfb5f888 -->
<g id="edge1" class="edge">
<title>Node0x5558dfb60058&#45;&gt;Node0x5558dfb5f888</title>
<path fill="none" stroke="black" d="M2476.28,-161.94C2622.28,-179.93 2870.92,-200.94 3082,-170.92 3150.36,-161.2 3226.13,-137.32 3276.45,-119.51"/>
<polygon fill="black" stroke="black" points="3277.93,-122.69 3286.17,-116.03 3275.58,-116.1 3277.93,-122.69"/>
</g>
<!-- Node0x5558dfb5df88 -->
<g id="node3" class="node">
<title>Node0x5558dfb5df88</title>
<polygon fill="#7fb2ff" stroke="black" points="3082,-161.92 2617,-161.92 2617,-125.92 3082,-125.92 3082,-161.92"/>
<text text-anchor="middle" x="2849.5" y="-140.22" font-family="Times,serif" font-size="14.00">{lib/libLLVMDebugInfoCodeView.a(RecordSerialization.cpp.o)}</text>
</g>
<!-- Node0x5558dfb60058&#45;&gt;Node0x5558dfb5df88 -->
<g id="edge2" class="edge">
<title>Node0x5558dfb60058&#45;&gt;Node0x5558dfb5df88</title>
<path fill="none" stroke="#7fb2ff" d="M2581.09,-137.19C2589.5,-137.18 2597.93,-137.17 2606.36,-137.18"/>
<polygon fill="#7fb2ff" stroke="#7fb2ff" points="2606.63,-140.68 2616.63,-137.19 2606.64,-133.68 2606.63,-140.68"/>
</g>
<!-- Node0x5558dfb5df88&#45;&gt;Node0x5558dfb60058 -->
<g id="edge20" class="edge">
<title>Node0x5558dfb5df88&#45;&gt;Node0x5558dfb60058</title>
<path fill="none" stroke="#7fb2ff" d="M2616.63,-150.66C2608.22,-150.68 2599.78,-150.68 2591.36,-150.67"/>
<polygon fill="#7fb2ff" stroke="#7fb2ff" points="2591.09,-147.17 2581.09,-150.66 2591.08,-154.17 2591.09,-147.17"/>
</g>
<!-- Node0x5558dfb5df88&#45;&gt;Node0x5558dfb5f888 -->
<g id="edge21" class="edge">
<title>Node0x5558dfb5df88&#45;&gt;Node0x5558dfb5f888</title>
<path fill="none" stroke="black" d="M3039.66,-125.91C3070.68,-122.96 3102.91,-119.89 3134.17,-116.91"/>
<polygon fill="black" stroke="black" points="3134.66,-120.38 3144.28,-115.95 3133.99,-113.41 3134.66,-120.38"/>
</g>
<!-- Node0x5558dfb604b8 -->
<g id="node4" class="node">
<title>Node0x5558dfb604b8</title>
<polygon fill="none" stroke="black" points="1048,-137.92 530,-137.92 530,-101.92 1048,-101.92 1048,-137.92"/>
<text text-anchor="middle" x="789" y="-116.22" font-family="Times,serif" font-size="14.00">{lib/libLLVMDebugInfoCodeView.a(ContinuationRecordBuilder.cpp.o)}</text>
</g>
<!-- Node0x5558dfb75908 -->
<g id="node5" class="node">
<title>Node0x5558dfb75908</title>
<polygon fill="none" stroke="black" points="1557,-137.92 1084,-137.92 1084,-101.92 1557,-101.92 1557,-137.92"/>
<text text-anchor="middle" x="1320.5" y="-116.22" font-family="Times,serif" font-size="14.00">{lib/libLLVMDebugInfoCodeView.a(TypeRecordMapping.cpp.o)}</text>
</g>
<!-- Node0x5558dfb604b8&#45;&gt;Node0x5558dfb75908 -->
<g id="edge3" class="edge">
<title>Node0x5558dfb604b8&#45;&gt;Node0x5558dfb75908</title>
<path fill="none" stroke="black" d="M1048.16,-119.92C1056.75,-119.92 1065.35,-119.92 1073.93,-119.92"/>
<polygon fill="black" stroke="black" points="1073.98,-123.42 1083.98,-119.92 1073.98,-116.42 1073.98,-123.42"/>
</g>
<!-- Node0x5558dfb75908&#45;&gt;Node0x5558dfb60058 -->
<g id="edge13" class="edge">
<title>Node0x5558dfb75908&#45;&gt;Node0x5558dfb60058</title>
<path fill="none" stroke="black" d="M1557.02,-125.42C1722.48,-129.29 1943.1,-134.44 2109.54,-138.32"/>
<polygon fill="black" stroke="black" points="2109.84,-141.83 2119.92,-138.56 2110,-134.83 2109.84,-141.83"/>
</g>
<!-- Node0x5558dfb75908&#45;&gt;Node0x5558dfb5f888 -->
<g id="edge14" class="edge">
<title>Node0x5558dfb75908&#45;&gt;Node0x5558dfb5f888</title>
<path fill="none" stroke="black" d="M1379.31,-101.9C1433.79,-85.92 1518.03,-63.77 1593,-54.92 2171.22,13.33 2864.7,-45.48 3172.62,-78.78"/>
<polygon fill="black" stroke="black" points="3172.64,-82.3 3182.96,-79.9 3173.4,-75.34 3172.64,-82.3"/>
</g>
<!-- Node0x5558dfb61188 -->
<g id="node6" class="node">
<title>Node0x5558dfb61188</title>
<polygon fill="none" stroke="black" points="2051,-191.92 1626,-191.92 1626,-155.92 2051,-155.92 2051,-191.92"/>
<text text-anchor="middle" x="1838.5" y="-170.22" font-family="Times,serif" font-size="14.00">{lib/libLLVMDebugInfoCodeView.a(CVTypeVisitor.cpp.o)}</text>
</g>
<!-- Node0x5558dfb75908&#45;&gt;Node0x5558dfb61188 -->
<g id="edge15" class="edge">
<title>Node0x5558dfb75908&#45;&gt;Node0x5558dfb61188</title>
<path fill="none" stroke="black" d="M1557.23,-137.87C1609.93,-143.28 1663.88,-149.19 1710.2,-154.69"/>
<polygon fill="black" stroke="black" points="1709.92,-158.18 1720.26,-155.89 1710.75,-151.23 1709.92,-158.18"/>
</g>
<!-- Node0x5558dfb61c78 -->
<g id="node7" class="node">
<title>Node0x5558dfb61c78</title>
<polygon fill="none" stroke="black" points="2045,-99.92 1632,-99.92 1632,-63.92 2045,-63.92 2045,-99.92"/>
<text text-anchor="middle" x="1838.5" y="-78.22" font-family="Times,serif" font-size="14.00">{lib/libLLVMDebugInfoCodeView.a(EnumTables.cpp.o)}</text>
</g>
<!-- Node0x5558dfb75908&#45;&gt;Node0x5558dfb61c78 -->
<g id="edge16" class="edge">
<title>Node0x5558dfb75908&#45;&gt;Node0x5558dfb61c78</title>
<path fill="none" stroke="black" d="M1557.23,-102.57C1578.66,-100.99 1600.31,-99.39 1621.56,-97.83"/>
<polygon fill="black" stroke="black" points="1621.91,-101.31 1631.63,-97.09 1621.4,-94.33 1621.91,-101.31"/>
</g>
<!-- Node0x5558dfb74698 -->
<g id="node12" class="node">
<title>Node0x5558dfb74698</title>
<polygon fill="none" stroke="black" points="2084,-245.92 1593,-245.92 1593,-209.92 2084,-209.92 2084,-245.92"/>
<text text-anchor="middle" x="1838.5" y="-224.22" font-family="Times,serif" font-size="14.00">{lib/libLLVMDebugInfoCodeView.a(SymbolRecordMapping.cpp.o)}</text>
</g>
<!-- Node0x5558dfb75908&#45;&gt;Node0x5558dfb74698 -->
<g id="edge17" class="edge">
<title>Node0x5558dfb75908&#45;&gt;Node0x5558dfb74698</title>
<path fill="none" stroke="black" d="M1540.38,-137.97C1546.09,-140.67 1551.64,-143.65 1557,-146.92 1581.61,-161.96 1568.36,-185.94 1593,-200.92 1595.52,-202.46 1598.09,-203.93 1600.69,-205.34"/>
<polygon fill="black" stroke="black" points="1599.18,-208.5 1609.68,-209.9 1602.35,-202.26 1599.18,-208.5"/>
</g>
<!-- Node0x5558dfb61188&#45;&gt;Node0x5558dfb60058 -->
<g id="edge4" class="edge">
<title>Node0x5558dfb61188&#45;&gt;Node0x5558dfb60058</title>
<path fill="none" stroke="black" d="M2051.36,-161.46C2070.58,-160.33 2090.15,-159.18 2109.59,-158.04"/>
<polygon fill="black" stroke="black" points="2109.97,-161.52 2119.75,-157.44 2109.56,-154.53 2109.97,-161.52"/>
</g>
<!-- Node0x5558dfb61188&#45;&gt;Node0x5558dfb5f888 -->
<g id="edge5" class="edge">
<title>Node0x5558dfb61188&#45;&gt;Node0x5558dfb5f888</title>
<path fill="none" stroke="black" d="M1909.83,-155.87C1966.22,-142.31 2047.62,-124.78 2120,-116.92 2462.97,-79.72 2863.62,-82.33 3107.87,-89.05"/>
<polygon fill="black" stroke="black" points="3107.84,-92.55 3117.94,-89.33 3108.04,-85.55 3107.84,-92.55"/>
</g>
<!-- Node0x5558dfb61188&#45;&gt;Node0x5558dfb75908 -->
<g id="edge6" class="edge">
<title>Node0x5558dfb61188&#45;&gt;Node0x5558dfb75908</title>
<path fill="none" stroke="black" d="M1625.8,-158.42C1565.72,-152.39 1502.17,-145.49 1448.78,-139.16"/>
<polygon fill="black" stroke="black" points="1448.93,-135.65 1438.59,-137.94 1448.1,-142.6 1448.93,-135.65"/>
</g>
<!-- Node0x5558dfb615e8 -->
<g id="node8" class="node">
<title>Node0x5558dfb615e8</title>
<polygon fill="none" stroke="black" points="494,-137.92 0,-137.92 0,-101.92 494,-101.92 494,-137.92"/>
<text text-anchor="middle" x="247" y="-116.22" font-family="Times,serif" font-size="14.00">{lib/libLLVMDebugInfoCodeView.a(GlobalTypeTableBuilder.cpp.o)}</text>
</g>
<!-- Node0x5558dfb615e8&#45;&gt;Node0x5558dfb604b8 -->
<g id="edge7" class="edge">
<title>Node0x5558dfb615e8&#45;&gt;Node0x5558dfb604b8</title>
<path fill="none" stroke="black" d="M494.3,-119.92C502.79,-119.92 511.32,-119.92 519.85,-119.92"/>
<polygon fill="black" stroke="black" points="519.85,-123.42 529.85,-119.92 519.85,-116.42 519.85,-123.42"/>
</g>
<!-- Node0x5558dfb73f18 -->
<g id="node9" class="node">
<title>Node0x5558dfb73f18</title>
<polygon fill="none" stroke="black" points="1027,-83.92 551,-83.92 551,-47.92 1027,-47.92 1027,-83.92"/>
<text text-anchor="middle" x="789" y="-62.22" font-family="Times,serif" font-size="14.00">{lib/libLLVMDebugInfoCodeView.a(SimpleTypeSerializer.cpp.o)}</text>
</g>
<!-- Node0x5558dfb615e8&#45;&gt;Node0x5558dfb73f18 -->
<g id="edge8" class="edge">
<title>Node0x5558dfb615e8&#45;&gt;Node0x5558dfb73f18</title>
<path fill="none" stroke="black" d="M428.19,-101.91C482.61,-96.46 542.54,-90.47 597.61,-84.96"/>
<polygon fill="black" stroke="black" points="598.23,-88.42 607.83,-83.94 597.53,-81.45 598.23,-88.42"/>
</g>
<!-- Node0x5558dfb74b48 -->
<g id="node10" class="node">
<title>Node0x5558dfb74b48</title>
<polygon fill="none" stroke="black" points="998.5,-191.92 579.5,-191.92 579.5,-155.92 998.5,-155.92 998.5,-191.92"/>
<text text-anchor="middle" x="789" y="-170.22" font-family="Times,serif" font-size="14.00">{lib/libLLVMDebugInfoCodeView.a(TypeHashing.cpp.o)}</text>
</g>
<!-- Node0x5558dfb615e8&#45;&gt;Node0x5558dfb74b48 -->
<g id="edge9" class="edge">
<title>Node0x5558dfb615e8&#45;&gt;Node0x5558dfb74b48</title>
<path fill="none" stroke="black" d="M428.19,-137.94C482.61,-143.39 542.54,-149.38 597.61,-154.89"/>
<polygon fill="black" stroke="black" points="597.53,-158.4 607.83,-155.91 598.23,-151.43 597.53,-158.4"/>
</g>
<!-- Node0x5558dfb73f18&#45;&gt;Node0x5558dfb75908 -->
<g id="edge10" class="edge">
<title>Node0x5558dfb73f18&#45;&gt;Node0x5558dfb75908</title>
<path fill="none" stroke="black" d="M966.68,-83.94C1020.05,-89.39 1078.81,-95.38 1132.81,-100.89"/>
<polygon fill="black" stroke="black" points="1132.53,-104.38 1142.83,-101.91 1133.24,-97.41 1132.53,-104.38"/>
</g>
<!-- Node0x5558dfb75f98 -->
<g id="node16" class="node">
<title>Node0x5558dfb75f98</title>
<polygon fill="none" stroke="black" points="1554,-191.92 1087,-191.92 1087,-155.92 1554,-155.92 1554,-191.92"/>
<text text-anchor="middle" x="1320.5" y="-170.22" font-family="Times,serif" font-size="14.00">{lib/libLLVMDebugInfoCodeView.a(TypeIndexDiscovery.cpp.o)}</text>
</g>
<!-- Node0x5558dfb74b48&#45;&gt;Node0x5558dfb75f98 -->
<g id="edge22" class="edge">
<title>Node0x5558dfb74b48&#45;&gt;Node0x5558dfb75f98</title>
<path fill="none" stroke="black" d="M998.51,-173.92C1024.06,-173.92 1050.34,-173.92 1076.34,-173.92"/>
<polygon fill="black" stroke="black" points="1076.68,-177.42 1086.68,-173.92 1076.68,-170.42 1076.68,-177.42"/>
</g>
<!-- Node0x5558dfb5d3a8 -->
<g id="node11" class="node">
<title>Node0x5558dfb5d3a8</title>
<polygon fill="none" stroke="black" points="425,-191.92 69,-191.92 69,-155.92 425,-155.92 425,-191.92"/>
<text text-anchor="middle" x="247" y="-170.22" font-family="Times,serif" font-size="14.00">{lib/libLLVMDebugInfoCodeView.a(Line.cpp.o)}</text>
</g>
<!-- Node0x5558dfb74698&#45;&gt;Node0x5558dfb60058 -->
<g id="edge11" class="edge">
<title>Node0x5558dfb74698&#45;&gt;Node0x5558dfb60058</title>
<path fill="none" stroke="black" d="M2021.36,-209.91C2042.52,-207.21 2063.77,-204.21 2084,-200.92 2145.1,-191.02 2213.36,-176.28 2265.36,-164.27"/>
<polygon fill="black" stroke="black" points="2266.26,-167.66 2275.21,-161.99 2264.68,-160.84 2266.26,-167.66"/>
</g>
<!-- Node0x5558dfb74698&#45;&gt;Node0x5558dfb5f888 -->
<g id="edge12" class="edge">
<title>Node0x5558dfb74698&#45;&gt;Node0x5558dfb5f888</title>
<path fill="none" stroke="black" d="M2084.08,-244.27C2336.56,-255.7 2740.63,-258.75 3082,-191.92 3156.56,-177.33 3238.13,-143.21 3287.56,-120.35"/>
<polygon fill="black" stroke="black" points="3289.13,-123.48 3296.7,-116.08 3286.16,-117.14 3289.13,-123.48"/>
</g>
<!-- Node0x5558dfb74328 -->
<g id="node13" class="node">
<title>Node0x5558dfb74328</title>
<polygon fill="none" stroke="black" points="1520,-299.92 1121,-299.92 1121,-263.92 1520,-263.92 1520,-299.92"/>
<text text-anchor="middle" x="1320.5" y="-278.22" font-family="Times,serif" font-size="14.00">{lib/libLLVMDebugInfoCodeView.a(TypeIndex.cpp.o)}</text>
</g>
<!-- Node0x5558dfb70fe8 -->
<g id="node14" class="node">
<title>Node0x5558dfb70fe8</title>
<polygon fill="none" stroke="black" points="1023.5,-272.92 554.5,-272.92 554.5,-236.92 1023.5,-236.92 1023.5,-272.92"/>
<text text-anchor="middle" x="789" y="-251.22" font-family="Times,serif" font-size="14.00">{lib/libLLVMDebugInfoCodeView.a(TypeTableCollection.cpp.o)}</text>
</g>
<!-- Node0x5558dfb70fe8&#45;&gt;Node0x5558dfb74328 -->
<g id="edge18" class="edge">
<title>Node0x5558dfb70fe8&#45;&gt;Node0x5558dfb74328</title>
<path fill="none" stroke="black" d="M1023.79,-266.85C1052.78,-268.32 1082.28,-269.83 1110.86,-271.29"/>
<polygon fill="black" stroke="black" points="1110.77,-274.79 1120.93,-271.8 1111.12,-267.79 1110.77,-274.79"/>
</g>
<!-- Node0x5558dfb72078 -->
<g id="node15" class="node">
<title>Node0x5558dfb72078</title>
<polygon fill="none" stroke="black" points="1529,-245.92 1112,-245.92 1112,-209.92 1529,-209.92 1529,-245.92"/>
<text text-anchor="middle" x="1320.5" y="-224.22" font-family="Times,serif" font-size="14.00">{lib/libLLVMDebugInfoCodeView.a(RecordName.cpp.o)}</text>
</g>
<!-- Node0x5558dfb70fe8&#45;&gt;Node0x5558dfb72078 -->
<g id="edge19" class="edge">
<title>Node0x5558dfb70fe8&#45;&gt;Node0x5558dfb72078</title>
<path fill="none" stroke="black" d="M1023.79,-243C1049.71,-241.68 1076.04,-240.34 1101.75,-239.03"/>
<polygon fill="black" stroke="black" points="1102.15,-242.51 1111.96,-238.51 1101.8,-235.52 1102.15,-242.51"/>
</g>
<!-- Node0x5558dfb72078&#45;&gt;Node0x5558dfb61188 -->
<g id="edge23" class="edge">
<title>Node0x5558dfb72078&#45;&gt;Node0x5558dfb61188</title>
<path fill="none" stroke="black" d="M1493.68,-209.91C1545.58,-204.47 1602.71,-198.5 1655.24,-193"/>
<polygon fill="black" stroke="black" points="1655.76,-196.46 1665.34,-191.94 1655.03,-189.5 1655.76,-196.46"/>
</g>
<!-- Node0x5558dfb72078&#45;&gt;Node0x5558dfb74698 -->
<g id="edge24" class="edge">
<title>Node0x5558dfb72078&#45;&gt;Node0x5558dfb74698</title>
<path fill="none" stroke="black" d="M1529.15,-227.92C1546.87,-227.92 1564.92,-227.92 1582.95,-227.92"/>
<polygon fill="black" stroke="black" points="1582.96,-231.42 1592.96,-227.92 1582.96,-224.42 1582.96,-231.42"/>
</g>
</g>
</svg>
