<?xml version="1.0" encoding="UTF-8" standalone="no"?>
<!DOCTYPE svg PUBLIC "-//W3C//DTD SVG 1.1//EN"
 "http://www.w3.org/Graphics/SVG/1.1/DTD/svg11.dtd">
<!-- Generated by graphviz version 2.43.0 (0)
 -->
<!-- Title: bin/llvm&#45;gsymutil_lib/libLLVMObject.a Pages: 1 -->
<svg width="2265pt" height="825pt"
 viewBox="0.00 0.00 2265.00 825.00" xmlns="http://www.w3.org/2000/svg" xmlns:xlink="http://www.w3.org/1999/xlink">
<g id="graph0" class="graph" transform="scale(1 1) rotate(0) translate(4 821)">
<title>bin/llvm&#45;gsymutil_lib/libLLVMObject.a</title>
<polygon fill="white" stroke="transparent" points="-4,4 -4,-821 2261,-821 2261,4 -4,4"/>
<text text-anchor="middle" x="1128.5" y="-7.8" font-family="Times,serif" font-size="14.00">bin/llvm&#45;gsymutil_lib/libLLVMObject.a</text>
<!-- Node0x5581373d6c88 -->
<g id="node1" class="node">
<title>Node0x5581373d6c88</title>
<polygon fill="#7fb2ff" stroke="black" points="639.5,-549 366.5,-549 366.5,-513 639.5,-513 639.5,-549"/>
<text text-anchor="middle" x="503" y="-527.3" font-family="Times,serif" font-size="14.00">{lib/libLLVMObject.a(Binary.cpp.o)}</text>
</g>
<!-- Node0x5581373d88a8 -->
<g id="node2" class="node">
<title>Node0x5581373d88a8</title>
<polygon fill="#7fb2ff" stroke="black" points="1041.5,-357 759.5,-357 759.5,-321 1041.5,-321 1041.5,-357"/>
<text text-anchor="middle" x="900.5" y="-335.3" font-family="Times,serif" font-size="14.00">{lib/libLLVMObject.a(Archive.cpp.o)}</text>
</g>
<!-- Node0x5581373d6c88&#45;&gt;Node0x5581373d88a8 -->
<g id="edge1" class="edge">
<title>Node0x5581373d6c88&#45;&gt;Node0x5581373d88a8</title>
<path fill="none" stroke="#7fb2ff" d="M516.91,-512.74C548.33,-475.84 632.73,-394.33 721,-357 730.09,-353.15 739.65,-349.85 749.42,-347.02"/>
<polygon fill="#7fb2ff" stroke="#7fb2ff" points="750.52,-350.35 759.25,-344.35 748.69,-343.59 750.52,-350.35"/>
</g>
<!-- Node0x5581373d7868 -->
<g id="node3" class="node">
<title>Node0x5581373d7868</title>
<polygon fill="none" stroke="black" points="1033.5,-113 767.5,-113 767.5,-77 1033.5,-77 1033.5,-113"/>
<text text-anchor="middle" x="900.5" y="-91.3" font-family="Times,serif" font-size="14.00">{lib/libLLVMObject.a(Error.cpp.o)}</text>
</g>
<!-- Node0x5581373d6c88&#45;&gt;Node0x5581373d7868 -->
<g id="edge2" class="edge">
<title>Node0x5581373d6c88&#45;&gt;Node0x5581373d7868</title>
<path fill="none" stroke="black" d="M509.88,-512.95C529.85,-454.36 600.57,-267.4 721,-165 747.2,-142.72 781.32,-127.03 812.71,-116.23"/>
<polygon fill="black" stroke="black" points="813.96,-119.5 822.35,-113.03 811.76,-112.85 813.96,-119.5"/>
</g>
<!-- Node0x5581373de988 -->
<g id="node4" class="node">
<title>Node0x5581373de988</title>
<polygon fill="#7fb2ff" stroke="black" points="1074,-411 727,-411 727,-375 1074,-375 1074,-411"/>
<text text-anchor="middle" x="900.5" y="-389.3" font-family="Times,serif" font-size="14.00">{lib/libLLVMObject.a(MachOUniversal.cpp.o)}</text>
</g>
<!-- Node0x5581373d6c88&#45;&gt;Node0x5581373de988 -->
<g id="edge3" class="edge">
<title>Node0x5581373d6c88&#45;&gt;Node0x5581373de988</title>
<path fill="none" stroke="#7fb2ff" d="M525.03,-512.91C562.86,-486.91 645.48,-440.68 721,-416 722.96,-415.36 724.94,-414.73 726.94,-414.11"/>
<polygon fill="#7fb2ff" stroke="#7fb2ff" points="728.43,-417.32 737.02,-411.12 726.44,-410.61 728.43,-417.32"/>
</g>
<!-- Node0x5581373dff18 -->
<g id="node5" class="node">
<title>Node0x5581373dff18</title>
<polygon fill="#7fb2ff" stroke="black" points="1051,-817 750,-817 750,-781 1051,-781 1051,-817"/>
<text text-anchor="middle" x="900.5" y="-795.3" font-family="Times,serif" font-size="14.00">{lib/libLLVMObject.a(Minidump.cpp.o)}</text>
</g>
<!-- Node0x5581373d6c88&#45;&gt;Node0x5581373dff18 -->
<g id="edge4" class="edge">
<title>Node0x5581373d6c88&#45;&gt;Node0x5581373dff18</title>
<path fill="none" stroke="#7fb2ff" d="M517.72,-549.18C547.81,-593.35 624.65,-705.07 721,-758 737.57,-767.1 756.18,-773.69 774.97,-778.57"/>
<polygon fill="#7fb2ff" stroke="#7fb2ff" points="774.25,-782 784.8,-780.97 775.91,-775.2 774.25,-782"/>
</g>
<!-- Node0x5581373da798 -->
<g id="node6" class="node">
<title>Node0x5581373da798</title>
<polygon fill="#7fb2ff" stroke="black" points="1060.5,-503 740.5,-503 740.5,-467 1060.5,-467 1060.5,-503"/>
<text text-anchor="middle" x="900.5" y="-481.3" font-family="Times,serif" font-size="14.00">{lib/libLLVMObject.a(SymbolicFile.cpp.o)}</text>
</g>
<!-- Node0x5581373d6c88&#45;&gt;Node0x5581373da798 -->
<g id="edge5" class="edge">
<title>Node0x5581373d6c88&#45;&gt;Node0x5581373da798</title>
<path fill="none" stroke="#7fb2ff" d="M607.14,-512.99C644.75,-507.98 688.33,-502.69 730.18,-498.01"/>
<polygon fill="#7fb2ff" stroke="#7fb2ff" points="730.66,-501.47 740.21,-496.89 729.88,-494.52 730.66,-501.47"/>
</g>
<!-- Node0x5581373da248 -->
<g id="node7" class="node">
<title>Node0x5581373da248</title>
<polygon fill="#7fb2ff" stroke="black" points="1064,-725 737,-725 737,-689 1064,-689 1064,-725"/>
<text text-anchor="middle" x="900.5" y="-703.3" font-family="Times,serif" font-size="14.00">{lib/libLLVMObject.a(TapiUniversal.cpp.o)}</text>
</g>
<!-- Node0x5581373d6c88&#45;&gt;Node0x5581373da248 -->
<g id="edge6" class="edge">
<title>Node0x5581373d6c88&#45;&gt;Node0x5581373da248</title>
<path fill="none" stroke="#7fb2ff" d="M530.43,-549.26C569.13,-580.09 644.91,-640.97 721,-671 738.5,-677.91 757.61,-683.06 776.61,-687.02"/>
<polygon fill="#7fb2ff" stroke="#7fb2ff" points="776.04,-690.47 786.53,-688.98 777.4,-683.61 776.04,-690.47"/>
</g>
<!-- Node0x5581373d9f78 -->
<g id="node8" class="node">
<title>Node0x5581373d9f78</title>
<polygon fill="#7fb2ff" stroke="black" points="1080,-671 721,-671 721,-635 1080,-635 1080,-671"/>
<text text-anchor="middle" x="900.5" y="-649.3" font-family="Times,serif" font-size="14.00">{lib/libLLVMObject.a(WindowsResource.cpp.o)}</text>
</g>
<!-- Node0x5581373d6c88&#45;&gt;Node0x5581373d9f78 -->
<g id="edge7" class="edge">
<title>Node0x5581373d6c88&#45;&gt;Node0x5581373d9f78</title>
<path fill="none" stroke="#7fb2ff" d="M555.91,-549.02C599.17,-567.4 662.88,-594.96 721,-612 750.99,-620.8 784.57,-627.58 814.44,-633.12"/>
<polygon fill="#7fb2ff" stroke="#7fb2ff" points="813.95,-636.59 824.41,-634.95 815.21,-629.7 813.95,-636.59"/>
</g>
<!-- Node0x5581373d88a8&#45;&gt;Node0x5581373d6c88 -->
<g id="edge29" class="edge">
<title>Node0x5581373d88a8&#45;&gt;Node0x5581373d6c88</title>
<path fill="none" stroke="#7fb2ff" d="M781.96,-357.07C761.14,-361.24 740.05,-366.94 721,-375 646.12,-406.67 574.02,-470.13 534.69,-505.74"/>
<polygon fill="#7fb2ff" stroke="#7fb2ff" points="531.86,-503.58 526.81,-512.89 536.56,-508.77 531.86,-503.58"/>
</g>
<!-- Node0x5581373d88a8&#45;&gt;Node0x5581373d7868 -->
<g id="edge30" class="edge">
<title>Node0x5581373d88a8&#45;&gt;Node0x5581373d7868</title>
<path fill="none" stroke="black" d="M900.5,-320.91C900.5,-255.03 900.5,-189.14 900.5,-123.26"/>
<polygon fill="black" stroke="black" points="904,-123.11 900.5,-113.11 897,-123.11 904,-123.11"/>
</g>
<!-- Node0x5581373de988&#45;&gt;Node0x5581373d6c88 -->
<g id="edge12" class="edge">
<title>Node0x5581373de988&#45;&gt;Node0x5581373d6c88</title>
<path fill="none" stroke="#7fb2ff" d="M818.8,-411.01C787.76,-416.57 752.27,-423.78 721,-434 661.78,-453.36 598.19,-485.96 555.27,-508.14"/>
<polygon fill="#7fb2ff" stroke="#7fb2ff" points="553.44,-505.15 546.16,-512.85 556.65,-511.37 553.44,-505.15"/>
</g>
<!-- Node0x5581373de988&#45;&gt;Node0x5581373d88a8 -->
<g id="edge13" class="edge">
<title>Node0x5581373de988&#45;&gt;Node0x5581373d88a8</title>
<path fill="none" stroke="#7fb2ff" d="M900.5,-374.79C900.5,-372.31 900.5,-369.83 900.5,-367.34"/>
<polygon fill="#7fb2ff" stroke="#7fb2ff" points="904,-367.14 900.5,-357.14 897,-367.14 904,-367.14"/>
</g>
<!-- Node0x5581373de988&#45;&gt;Node0x5581373d7868 -->
<g id="edge14" class="edge">
<title>Node0x5581373de988&#45;&gt;Node0x5581373d7868</title>
<path fill="none" stroke="black" d="M726.99,-381.76C717.53,-375.35 709.32,-367.23 703,-357 645.37,-263.76 785.97,-162.66 859.35,-118.2"/>
<polygon fill="black" stroke="black" points="861.16,-121.19 867.95,-113.06 857.57,-115.18 861.16,-121.19"/>
</g>
<!-- Node0x5581373d4ed8 -->
<g id="node9" class="node">
<title>Node0x5581373d4ed8</title>
<polygon fill="#7fb2ff" stroke="black" points="1468,-503 1116,-503 1116,-467 1468,-467 1468,-503"/>
<text text-anchor="middle" x="1292" y="-481.3" font-family="Times,serif" font-size="14.00">{lib/libLLVMObject.a(MachOObjectFile.cpp.o)}</text>
</g>
<!-- Node0x5581373de988&#45;&gt;Node0x5581373d4ed8 -->
<g id="edge15" class="edge">
<title>Node0x5581373de988&#45;&gt;Node0x5581373d4ed8</title>
<path fill="none" stroke="#7fb2ff" d="M953.83,-411.12C996.93,-425.5 1059.84,-445.23 1116,-458 1127.24,-460.56 1138.94,-462.94 1150.73,-465.16"/>
<polygon fill="#7fb2ff" stroke="#7fb2ff" points="1150.18,-468.61 1160.65,-466.97 1151.44,-461.73 1150.18,-468.61"/>
</g>
<!-- Node0x5581373de3e8 -->
<g id="node10" class="node">
<title>Node0x5581373de3e8</title>
<polygon fill="#7fb2ff" stroke="black" points="1450.5,-357 1133.5,-357 1133.5,-321 1450.5,-321 1450.5,-357"/>
<text text-anchor="middle" x="1292" y="-335.3" font-family="Times,serif" font-size="14.00">{lib/libLLVMObject.a(IRObjectFile.cpp.o)}</text>
</g>
<!-- Node0x5581373de988&#45;&gt;Node0x5581373de3e8 -->
<g id="edge16" class="edge">
<title>Node0x5581373de988&#45;&gt;Node0x5581373de3e8</title>
<path fill="none" stroke="#7fb2ff" d="M1031.47,-374.98C1069.75,-369.67 1111.8,-363.84 1150.7,-358.45"/>
<polygon fill="#7fb2ff" stroke="#7fb2ff" points="1151.62,-361.86 1161.04,-357.02 1150.66,-354.92 1151.62,-361.86"/>
</g>
<!-- Node0x5581373dff18&#45;&gt;Node0x5581373d6c88 -->
<g id="edge31" class="edge">
<title>Node0x5581373dff18&#45;&gt;Node0x5581373d6c88</title>
<path fill="none" stroke="#7fb2ff" d="M749.86,-788.83C739.83,-785.25 730.11,-781 721,-776 624.1,-722.77 546.93,-610.06 517.21,-558.02"/>
<polygon fill="#7fb2ff" stroke="#7fb2ff" points="520.13,-556.07 512.22,-549.03 514.01,-559.47 520.13,-556.07"/>
</g>
<!-- Node0x5581373dff18&#45;&gt;Node0x5581373d7868 -->
<g id="edge32" class="edge">
<title>Node0x5581373dff18&#45;&gt;Node0x5581373d7868</title>
<path fill="none" stroke="black" d="M749.89,-795.13C730.76,-787.62 714.05,-775.87 703,-758 677.47,-716.7 685.94,-366.46 703,-321 736.08,-232.87 820.82,-156.58 867.84,-119.31"/>
<polygon fill="black" stroke="black" points="870.16,-121.94 875.88,-113.02 865.85,-116.42 870.16,-121.94"/>
</g>
<!-- Node0x5581373da798&#45;&gt;Node0x5581373d6c88 -->
<g id="edge33" class="edge">
<title>Node0x5581373da798&#45;&gt;Node0x5581373d6c88</title>
<path fill="none" stroke="#7fb2ff" d="M796.29,-503.02C751.5,-508.98 698.25,-515.35 649.55,-520.61"/>
<polygon fill="#7fb2ff" stroke="#7fb2ff" points="649.13,-517.13 639.56,-521.68 649.87,-524.09 649.13,-517.13"/>
</g>
<!-- Node0x5581373da798&#45;&gt;Node0x5581373d88a8 -->
<g id="edge34" class="edge">
<title>Node0x5581373da798&#45;&gt;Node0x5581373d88a8</title>
<path fill="none" stroke="#7fb2ff" d="M799.46,-466.93C737,-450.76 673.85,-422.16 703,-375 713.94,-357.29 730.53,-345.89 749.53,-338.81"/>
<polygon fill="#7fb2ff" stroke="#7fb2ff" points="750.64,-342.13 759.04,-335.67 748.45,-335.48 750.64,-342.13"/>
</g>
<!-- Node0x5581373da798&#45;&gt;Node0x5581373d7868 -->
<g id="edge35" class="edge">
<title>Node0x5581373da798&#45;&gt;Node0x5581373d7868</title>
<path fill="none" stroke="black" d="M779.63,-466.91C749.06,-456.01 720.08,-438.64 703,-411 635.51,-301.8 791.31,-172.03 864.79,-119.18"/>
<polygon fill="black" stroke="black" points="867.2,-121.77 873.33,-113.13 863.14,-116.06 867.2,-121.77"/>
</g>
<!-- Node0x5581373da798&#45;&gt;Node0x5581373de3e8 -->
<g id="edge36" class="edge">
<title>Node0x5581373da798&#45;&gt;Node0x5581373de3e8</title>
<path fill="none" stroke="#7fb2ff" d="M954.27,-466.94C992.06,-455.9 1042.66,-438.99 1080,-411 1101.62,-394.79 1093.09,-376.33 1116,-362 1118.66,-360.33 1121.39,-358.75 1124.17,-357.24"/>
<polygon fill="#7fb2ff" stroke="#7fb2ff" points="1125.87,-360.31 1133.24,-352.7 1122.73,-354.05 1125.87,-360.31"/>
</g>
<!-- Node0x5581373dc8b8 -->
<g id="node11" class="node">
<title>Node0x5581373dc8b8</title>
<polygon fill="#7fb2ff" stroke="black" points="1443,-449 1141,-449 1141,-413 1443,-413 1443,-449"/>
<text text-anchor="middle" x="1292" y="-427.3" font-family="Times,serif" font-size="14.00">{lib/libLLVMObject.a(ObjectFile.cpp.o)}</text>
</g>
<!-- Node0x5581373da798&#45;&gt;Node0x5581373dc8b8 -->
<g id="edge37" class="edge">
<title>Node0x5581373da798&#45;&gt;Node0x5581373dc8b8</title>
<path fill="none" stroke="#7fb2ff" d="M989.88,-466.99C1031.48,-460.36 1082.41,-453 1130.47,-446.6"/>
<polygon fill="#7fb2ff" stroke="#7fb2ff" points="1131.23,-450.03 1140.68,-445.25 1130.31,-443.09 1131.23,-450.03"/>
</g>
<!-- Node0x5581373da248&#45;&gt;Node0x5581373d6c88 -->
<g id="edge38" class="edge">
<title>Node0x5581373da248&#45;&gt;Node0x5581373d6c88</title>
<path fill="none" stroke="#7fb2ff" d="M736.67,-694.6C731.34,-692.88 726.1,-691.01 721,-689 641.63,-657.67 562.6,-592.78 525.64,-556.46"/>
<polygon fill="#7fb2ff" stroke="#7fb2ff" points="527.93,-553.8 518.4,-549.16 522.96,-558.73 527.93,-553.8"/>
</g>
<!-- Node0x5581373d9f78&#45;&gt;Node0x5581373d6c88 -->
<g id="edge39" class="edge">
<title>Node0x5581373d9f78&#45;&gt;Node0x5581373d6c88</title>
<path fill="none" stroke="#7fb2ff" d="M739.03,-634.95C732.92,-633.38 726.89,-631.73 721,-630 654.23,-610.42 580.09,-576.97 538.05,-554.16"/>
<polygon fill="#7fb2ff" stroke="#7fb2ff" points="539.52,-550.98 529.08,-549.18 536.12,-557.1 539.52,-550.98"/>
</g>
<!-- Node0x5581373d9f78&#45;&gt;Node0x5581373d7868 -->
<g id="edge40" class="edge">
<title>Node0x5581373d9f78&#45;&gt;Node0x5581373d7868</title>
<path fill="none" stroke="black" d="M789.15,-634.96C755.26,-623.48 721.98,-604.71 703,-574 688.22,-550.09 693.12,-347.32 703,-321 736.08,-232.87 820.82,-156.58 867.84,-119.31"/>
<polygon fill="black" stroke="black" points="870.16,-121.94 875.88,-113.02 865.85,-116.42 870.16,-121.94"/>
</g>
<!-- Node0x5581373d92f8 -->
<g id="node12" class="node">
<title>Node0x5581373d92f8</title>
<polygon fill="#7fb2ff" stroke="black" points="1464,-671 1120,-671 1120,-635 1464,-635 1464,-671"/>
<text text-anchor="middle" x="1292" y="-649.3" font-family="Times,serif" font-size="14.00">{lib/libLLVMObject.a(WasmObjectFile.cpp.o)}</text>
</g>
<!-- Node0x5581373d9f78&#45;&gt;Node0x5581373d92f8 -->
<g id="edge41" class="edge">
<title>Node0x5581373d9f78&#45;&gt;Node0x5581373d92f8</title>
<path fill="none" stroke="#7fb2ff" d="M1080.01,-653C1089.88,-653 1099.82,-653 1109.71,-653"/>
<polygon fill="#7fb2ff" stroke="#7fb2ff" points="1109.99,-656.5 1119.99,-653 1109.99,-649.5 1109.99,-656.5"/>
</g>
<!-- Node0x5581373d4ed8&#45;&gt;Node0x5581373d6c88 -->
<g id="edge8" class="edge">
<title>Node0x5581373d4ed8&#45;&gt;Node0x5581373d6c88</title>
<path fill="none" stroke="#7fb2ff" d="M1165.68,-503.01C1137.55,-506.5 1107.79,-509.77 1080,-512 933.91,-523.73 766.42,-528.26 649.85,-529.98"/>
<polygon fill="#7fb2ff" stroke="#7fb2ff" points="649.74,-526.48 639.79,-530.13 649.84,-533.48 649.74,-526.48"/>
</g>
<!-- Node0x5581373d4ed8&#45;&gt;Node0x5581373d7868 -->
<g id="edge9" class="edge">
<title>Node0x5581373d4ed8&#45;&gt;Node0x5581373d7868</title>
<path fill="none" stroke="black" d="M1127.15,-466.8C1123.25,-464.14 1119.52,-461.22 1116,-458 1066.69,-412.88 1109.97,-371.73 1080,-312 1040.62,-233.52 968.37,-158.12 928.94,-120.27"/>
<polygon fill="black" stroke="black" points="931.17,-117.56 921.51,-113.21 926.35,-122.64 931.17,-117.56"/>
</g>
<!-- Node0x5581373d4ed8&#45;&gt;Node0x5581373da798 -->
<g id="edge11" class="edge">
<title>Node0x5581373d4ed8&#45;&gt;Node0x5581373da798</title>
<path fill="none" stroke="#7fb2ff" d="M1115.94,-485C1101.01,-485 1085.92,-485 1071.04,-485"/>
<polygon fill="#7fb2ff" stroke="#7fb2ff" points="1070.77,-481.5 1060.77,-485 1070.77,-488.5 1070.77,-481.5"/>
</g>
<!-- Node0x5581373d4ed8&#45;&gt;Node0x5581373dc8b8 -->
<g id="edge10" class="edge">
<title>Node0x5581373d4ed8&#45;&gt;Node0x5581373dc8b8</title>
<path fill="none" stroke="#7fb2ff" d="M1393.01,-466.88C1405.31,-462.42 1408.34,-457.96 1402.1,-453.5"/>
<polygon fill="#7fb2ff" stroke="#7fb2ff" points="1403.3,-450.19 1392.76,-449.04 1400.28,-456.51 1403.3,-450.19"/>
</g>
<!-- Node0x5581373de3e8&#45;&gt;Node0x5581373d6c88 -->
<g id="edge42" class="edge">
<title>Node0x5581373de3e8&#45;&gt;Node0x5581373d6c88</title>
<path fill="none" stroke="#7fb2ff" d="M1167.87,-320.98C1024.91,-302.17 798.78,-279.57 721,-312 626.12,-351.55 551.47,-455.01 520.1,-504.23"/>
<polygon fill="#7fb2ff" stroke="#7fb2ff" points="517.1,-502.43 514.75,-512.76 523.03,-506.15 517.1,-502.43"/>
</g>
<!-- Node0x5581373de3e8&#45;&gt;Node0x5581373d88a8 -->
<g id="edge43" class="edge">
<title>Node0x5581373de3e8&#45;&gt;Node0x5581373d88a8</title>
<path fill="none" stroke="#7fb2ff" d="M1133.34,-339C1106.4,-339 1078.49,-339 1051.75,-339"/>
<polygon fill="#7fb2ff" stroke="#7fb2ff" points="1051.57,-335.5 1041.57,-339 1051.57,-342.5 1051.57,-335.5"/>
</g>
<!-- Node0x5581373de3e8&#45;&gt;Node0x5581373d7868 -->
<g id="edge44" class="edge">
<title>Node0x5581373de3e8&#45;&gt;Node0x5581373d7868</title>
<path fill="none" stroke="black" d="M1233.42,-320.9C1198.27,-308.67 1153.1,-290.79 1116,-269 1041.69,-225.36 966,-157.24 927.49,-120.52"/>
<polygon fill="black" stroke="black" points="929.49,-117.58 919.85,-113.18 924.64,-122.63 929.49,-117.58"/>
</g>
<!-- Node0x5581373de3e8&#45;&gt;Node0x5581373da798 -->
<g id="edge47" class="edge">
<title>Node0x5581373de3e8&#45;&gt;Node0x5581373da798</title>
<path fill="none" stroke="#7fb2ff" d="M1172.08,-357.05C1152.38,-362.16 1132.89,-369.43 1116,-380 1093.09,-394.33 1101.62,-412.79 1080,-429 1061.06,-443.19 1038.72,-454.53 1016.37,-463.31"/>
<polygon fill="#7fb2ff" stroke="#7fb2ff" points="1014.92,-460.12 1006.8,-466.92 1017.39,-466.67 1014.92,-460.12"/>
</g>
<!-- Node0x5581373de3e8&#45;&gt;Node0x5581373dc8b8 -->
<g id="edge46" class="edge">
<title>Node0x5581373de3e8&#45;&gt;Node0x5581373dc8b8</title>
<path fill="none" stroke="#7fb2ff" d="M1216.99,-357.06C1161.93,-374.6 1158.7,-392.13 1207.32,-409.67"/>
<polygon fill="#7fb2ff" stroke="#7fb2ff" points="1206.41,-413.06 1217.01,-412.95 1208.65,-406.43 1206.41,-413.06"/>
</g>
<!-- Node0x5581373df608 -->
<g id="node13" class="node">
<title>Node0x5581373df608</title>
<polygon fill="none" stroke="black" points="1877,-59 1504,-59 1504,-23 1877,-23 1877,-59"/>
<text text-anchor="middle" x="1690.5" y="-37.3" font-family="Times,serif" font-size="14.00">{lib/libLLVMObject.a(ModuleSymbolTable.cpp.o)}</text>
</g>
<!-- Node0x5581373de3e8&#45;&gt;Node0x5581373df608 -->
<g id="edge45" class="edge">
<title>Node0x5581373de3e8&#45;&gt;Node0x5581373df608</title>
<path fill="none" stroke="black" d="M1317.21,-320.81C1385.45,-269.52 1579.43,-123.72 1656.93,-65.48"/>
<polygon fill="black" stroke="black" points="1659.47,-67.95 1665.36,-59.14 1655.26,-62.35 1659.47,-67.95"/>
</g>
<!-- Node0x5581373dc8b8&#45;&gt;Node0x5581373d6c88 -->
<g id="edge17" class="edge">
<title>Node0x5581373dc8b8&#45;&gt;Node0x5581373d6c88</title>
<path fill="none" stroke="#7fb2ff" d="M1140.87,-426.84C1025.16,-426.35 861.69,-431.54 721,-458 662.89,-468.93 599.05,-491.8 555.75,-509.05"/>
<polygon fill="#7fb2ff" stroke="#7fb2ff" points="554.26,-505.88 546.29,-512.86 556.88,-512.37 554.26,-505.88"/>
</g>
<!-- Node0x5581373dc8b8&#45;&gt;Node0x5581373d7868 -->
<g id="edge18" class="edge">
<title>Node0x5581373dc8b8&#45;&gt;Node0x5581373d7868</title>
<path fill="none" stroke="black" d="M1211.57,-413C1179.55,-402.95 1143.71,-387.92 1116,-366 1093.38,-348.11 1097.18,-335.17 1080,-312 1026.98,-240.52 958.88,-160.72 924.12,-120.75"/>
<polygon fill="black" stroke="black" points="926.63,-118.31 917.42,-113.08 921.36,-122.91 926.63,-118.31"/>
</g>
<!-- Node0x5581373dc8b8&#45;&gt;Node0x5581373da798 -->
<g id="edge23" class="edge">
<title>Node0x5581373dc8b8&#45;&gt;Node0x5581373da798</title>
<path fill="none" stroke="#7fb2ff" d="M1202.68,-449C1163.58,-455.24 1116.22,-462.12 1070.74,-468.23"/>
<polygon fill="#7fb2ff" stroke="#7fb2ff" points="1070.22,-464.77 1060.77,-469.57 1071.14,-471.71 1070.22,-464.77"/>
</g>
<!-- Node0x5581373dc8b8&#45;&gt;Node0x5581373d4ed8 -->
<g id="edge19" class="edge">
<title>Node0x5581373dc8b8&#45;&gt;Node0x5581373d4ed8</title>
<path fill="none" stroke="#7fb2ff" d="M1191.24,-449.04C1178.81,-453.5 1175.66,-457.96 1181.78,-462.42"/>
<polygon fill="#7fb2ff" stroke="#7fb2ff" points="1180.47,-465.67 1190.99,-466.88 1183.52,-459.37 1180.47,-465.67"/>
</g>
<!-- Node0x5581373dc8b8&#45;&gt;Node0x5581373de3e8 -->
<g id="edge20" class="edge">
<title>Node0x5581373dc8b8&#45;&gt;Node0x5581373de3e8</title>
<path fill="none" stroke="#7fb2ff" d="M1366.99,-412.95C1422.07,-395.41 1425.3,-377.87 1376.69,-360.33"/>
<polygon fill="#7fb2ff" stroke="#7fb2ff" points="1377.61,-356.95 1367.01,-357.06 1375.37,-363.58 1377.61,-356.95"/>
</g>
<!-- Node0x5581373dc8b8&#45;&gt;Node0x5581373d92f8 -->
<g id="edge24" class="edge">
<title>Node0x5581373dc8b8&#45;&gt;Node0x5581373d92f8</title>
<path fill="none" stroke="#7fb2ff" d="M1140.94,-432.74C1125.94,-439.47 1112.97,-449.48 1104,-464 1095.18,-478.27 1095.18,-600.73 1104,-615 1106.93,-619.75 1110.29,-624.03 1114,-627.9"/>
<polygon fill="#7fb2ff" stroke="#7fb2ff" points="1111.82,-630.65 1121.55,-634.84 1116.55,-625.5 1111.82,-630.65"/>
</g>
<!-- Node0x5581373dcfe8 -->
<g id="node14" class="node">
<title>Node0x5581373dcfe8</title>
<polygon fill="#7fb2ff" stroke="black" points="1856,-625 1525,-625 1525,-589 1856,-589 1856,-625"/>
<text text-anchor="middle" x="1690.5" y="-603.3" font-family="Times,serif" font-size="14.00">{lib/libLLVMObject.a(ELFObjectFile.cpp.o)}</text>
</g>
<!-- Node0x5581373dc8b8&#45;&gt;Node0x5581373dcfe8 -->
<g id="edge21" class="edge">
<title>Node0x5581373dc8b8&#45;&gt;Node0x5581373dcfe8</title>
<path fill="none" stroke="#7fb2ff" d="M1443.18,-436.39C1451.87,-439.87 1460.23,-444.04 1468,-449 1492.32,-464.52 1482.47,-483.81 1504,-503 1546.01,-540.45 1605.44,-567.46 1645.62,-584.91"/>
<polygon fill="#7fb2ff" stroke="#7fb2ff" points="1644.33,-588.16 1654.9,-588.92 1647.11,-581.74 1644.33,-588.16"/>
</g>
<!-- Node0x5581373db6e8 -->
<g id="node15" class="node">
<title>Node0x5581373db6e8</title>
<polygon fill="#7fb2ff" stroke="black" points="1862,-503 1519,-503 1519,-467 1862,-467 1862,-503"/>
<text text-anchor="middle" x="1690.5" y="-481.3" font-family="Times,serif" font-size="14.00">{lib/libLLVMObject.a(COFFObjectFile.cpp.o)}</text>
</g>
<!-- Node0x5581373dc8b8&#45;&gt;Node0x5581373db6e8 -->
<g id="edge22" class="edge">
<title>Node0x5581373dc8b8&#45;&gt;Node0x5581373db6e8</title>
<path fill="none" stroke="#7fb2ff" d="M1443.18,-444.88C1492.09,-451.17 1545.15,-458.6 1589.45,-465.42"/>
<polygon fill="#7fb2ff" stroke="#7fb2ff" points="1588.93,-468.88 1599.35,-466.96 1590,-461.97 1588.93,-468.88"/>
</g>
<!-- Node0x5581373d9938 -->
<g id="node16" class="node">
<title>Node0x5581373d9938</title>
<polygon fill="#7fb2ff" stroke="black" points="1867,-449 1514,-449 1514,-413 1867,-413 1867,-449"/>
<text text-anchor="middle" x="1690.5" y="-427.3" font-family="Times,serif" font-size="14.00">{lib/libLLVMObject.a(XCOFFObjectFile.cpp.o)}</text>
</g>
<!-- Node0x5581373dc8b8&#45;&gt;Node0x5581373d9938 -->
<g id="edge25" class="edge">
<title>Node0x5581373dc8b8&#45;&gt;Node0x5581373d9938</title>
<path fill="none" stroke="#7fb2ff" d="M1443.18,-424.43C1462.96,-424.28 1483.43,-424.22 1503.71,-424.26"/>
<polygon fill="#7fb2ff" stroke="#7fb2ff" points="1503.97,-427.76 1513.98,-424.29 1503.99,-420.76 1503.97,-427.76"/>
</g>
<!-- Node0x5581373d92f8&#45;&gt;Node0x5581373d6c88 -->
<g id="edge63" class="edge">
<title>Node0x5581373d92f8&#45;&gt;Node0x5581373d6c88</title>
<path fill="none" stroke="#7fb2ff" d="M1151.42,-634.98C1127.59,-631.95 1103.09,-628.86 1080,-626 920.52,-606.25 879.18,-611.33 721,-583 673.87,-574.56 621.67,-562.15 580.28,-551.57"/>
<polygon fill="#7fb2ff" stroke="#7fb2ff" points="581.1,-548.17 570.54,-549.06 579.35,-554.94 581.1,-548.17"/>
</g>
<!-- Node0x5581373d92f8&#45;&gt;Node0x5581373d7868 -->
<g id="edge64" class="edge">
<title>Node0x5581373d92f8&#45;&gt;Node0x5581373d7868</title>
<path fill="none" stroke="black" d="M1255.76,-634.86C1215.13,-612 1149.64,-568.71 1116,-512 1069.93,-434.32 1117.92,-393.97 1080,-312 1043.23,-232.51 970.25,-157.79 929.92,-120.24"/>
<polygon fill="black" stroke="black" points="932.04,-117.44 922.32,-113.24 927.3,-122.59 932.04,-117.44"/>
</g>
<!-- Node0x5581373d92f8&#45;&gt;Node0x5581373da798 -->
<g id="edge67" class="edge">
<title>Node0x5581373d92f8&#45;&gt;Node0x5581373da798</title>
<path fill="none" stroke="#7fb2ff" d="M1155.25,-634.94C1141.71,-631.14 1128.4,-626.55 1116,-621 1097.5,-612.72 1096.7,-604.49 1080,-593 1034.33,-561.58 979.48,-529.14 942.74,-508.11"/>
<polygon fill="#7fb2ff" stroke="#7fb2ff" points="944.23,-504.93 933.81,-503.02 940.76,-511.02 944.23,-504.93"/>
</g>
<!-- Node0x5581373d92f8&#45;&gt;Node0x5581373d4ed8 -->
<g id="edge65" class="edge">
<title>Node0x5581373d92f8&#45;&gt;Node0x5581373d4ed8</title>
<path fill="none" stroke="#7fb2ff" d="M1292,-634.84C1292,-594.26 1292,-553.67 1292,-513.09"/>
<polygon fill="#7fb2ff" stroke="#7fb2ff" points="1295.5,-513.05 1292,-503.05 1288.5,-513.05 1295.5,-513.05"/>
</g>
<!-- Node0x5581373d92f8&#45;&gt;Node0x5581373dc8b8 -->
<g id="edge66" class="edge">
<title>Node0x5581373d92f8&#45;&gt;Node0x5581373dc8b8</title>
<path fill="none" stroke="#7fb2ff" d="M1119.79,-636.9C1108.75,-629.78 1099.2,-620.64 1092,-609 1083.88,-595.86 1083.88,-483.14 1092,-470 1101.56,-454.53 1115.35,-443.7 1131.28,-436.27"/>
<polygon fill="#7fb2ff" stroke="#7fb2ff" points="1133,-439.35 1140.89,-432.28 1130.31,-432.88 1133,-439.35"/>
</g>
<!-- Node0x5581373dbcd8 -->
<g id="node19" class="node">
<title>Node0x5581373dbcd8</title>
<polygon fill="none" stroke="black" points="2257,-59 1913,-59 1913,-23 2257,-23 2257,-59"/>
<text text-anchor="middle" x="2085" y="-37.3" font-family="Times,serif" font-size="14.00">{lib/libLLVMObject.a(RecordStreamer.cpp.o)}</text>
</g>
<!-- Node0x5581373df608&#45;&gt;Node0x5581373dbcd8 -->
<g id="edge48" class="edge">
<title>Node0x5581373df608&#45;&gt;Node0x5581373dbcd8</title>
<path fill="none" stroke="black" d="M1877.12,-41C1885.67,-41 1894.25,-41 1902.79,-41"/>
<polygon fill="black" stroke="black" points="1902.8,-44.5 1912.8,-41 1902.8,-37.5 1902.8,-44.5"/>
</g>
<!-- Node0x5581373dcfe8&#45;&gt;Node0x5581373d6c88 -->
<g id="edge51" class="edge">
<title>Node0x5581373dcfe8&#45;&gt;Node0x5581373d6c88</title>
<path fill="none" stroke="#7fb2ff" d="M1643.1,-625.01C1598.76,-641.57 1529.72,-665.66 1468,-680 1305.89,-717.67 875.8,-795.12 721,-734 629.94,-698.05 554.64,-603.85 521.77,-557.51"/>
<polygon fill="#7fb2ff" stroke="#7fb2ff" points="524.55,-555.37 515.95,-549.18 518.81,-559.38 524.55,-555.37"/>
</g>
<!-- Node0x5581373dcfe8&#45;&gt;Node0x5581373d7868 -->
<g id="edge52" class="edge">
<title>Node0x5581373dcfe8&#45;&gt;Node0x5581373d7868</title>
<path fill="none" stroke="black" d="M1620.78,-588.98C1580.4,-574.77 1531.96,-550.72 1504,-512 1442.66,-427.05 1540.79,-354.37 1468,-279 1357.37,-164.45 1239.92,-312.03 1116,-212 1084.08,-186.23 1112.06,-152.6 1080,-127 1069.11,-118.31 1056.65,-111.66 1043.49,-106.62"/>
<polygon fill="black" stroke="black" points="1044.39,-103.22 1033.8,-103.22 1042.08,-109.83 1044.39,-103.22"/>
</g>
<!-- Node0x5581373dcfe8&#45;&gt;Node0x5581373dff18 -->
<g id="edge54" class="edge">
<title>Node0x5581373dcfe8&#45;&gt;Node0x5581373dff18</title>
<path fill="none" stroke="#7fb2ff" d="M1672.08,-625.19C1637.21,-660.21 1554.73,-736.22 1468,-767 1395.76,-792.64 1201.96,-798.93 1061.12,-799.92"/>
<polygon fill="#7fb2ff" stroke="#7fb2ff" points="1061.05,-796.42 1051.07,-799.98 1061.1,-803.42 1061.05,-796.42"/>
</g>
<!-- Node0x5581373dcfe8&#45;&gt;Node0x5581373da798 -->
<g id="edge57" class="edge">
<title>Node0x5581373dcfe8&#45;&gt;Node0x5581373da798</title>
<path fill="none" stroke="#7fb2ff" d="M1536.02,-588.97C1420.28,-574.68 1257.77,-553.15 1116,-529 1075.41,-522.08 1030.76,-513.14 992.76,-505.13"/>
<polygon fill="#7fb2ff" stroke="#7fb2ff" points="993.25,-501.66 982.74,-503.01 991.8,-508.5 993.25,-501.66"/>
</g>
<!-- Node0x5581373dcfe8&#45;&gt;Node0x5581373d4ed8 -->
<g id="edge53" class="edge">
<title>Node0x5581373dcfe8&#45;&gt;Node0x5581373d4ed8</title>
<path fill="none" stroke="#7fb2ff" d="M1630.76,-588.92C1558.9,-566.82 1437.47,-529.45 1361.46,-506.06"/>
<polygon fill="#7fb2ff" stroke="#7fb2ff" points="1362.09,-502.6 1351.5,-503 1360.03,-509.29 1362.09,-502.6"/>
</g>
<!-- Node0x5581373dcfe8&#45;&gt;Node0x5581373dc8b8 -->
<g id="edge55" class="edge">
<title>Node0x5581373dcfe8&#45;&gt;Node0x5581373dc8b8</title>
<path fill="none" stroke="#7fb2ff" d="M1618.67,-588.88C1581.7,-573.89 1537.36,-550.73 1504,-521 1482.47,-501.81 1492.32,-482.52 1468,-467 1458.58,-460.99 1448.31,-456.14 1437.61,-452.22"/>
<polygon fill="#7fb2ff" stroke="#7fb2ff" points="1438.71,-448.9 1428.11,-449.01 1436.47,-455.53 1438.71,-448.9"/>
</g>
<!-- Node0x5581373dd7b8 -->
<g id="node21" class="node">
<title>Node0x5581373dd7b8</title>
<polygon fill="#7fb2ff" stroke="black" points="2212.5,-625 1957.5,-625 1957.5,-589 2212.5,-589 2212.5,-625"/>
<text text-anchor="middle" x="2085" y="-603.3" font-family="Times,serif" font-size="14.00">{lib/libLLVMObject.a(ELF.cpp.o)}</text>
</g>
<!-- Node0x5581373dcfe8&#45;&gt;Node0x5581373dd7b8 -->
<g id="edge56" class="edge">
<title>Node0x5581373dcfe8&#45;&gt;Node0x5581373dd7b8</title>
<path fill="none" stroke="#7fb2ff" d="M1856.25,-600.33C1886.46,-600.18 1917.7,-600.25 1946.99,-600.53"/>
<polygon fill="#7fb2ff" stroke="#7fb2ff" points="1947.23,-604.03 1957.27,-600.64 1947.31,-597.03 1947.23,-604.03"/>
</g>
<!-- Node0x5581373db6e8&#45;&gt;Node0x5581373d6c88 -->
<g id="edge58" class="edge">
<title>Node0x5581373db6e8&#45;&gt;Node0x5581373d6c88</title>
<path fill="none" stroke="#7fb2ff" d="M1616.43,-503.02C1573.5,-512.72 1518.01,-523.76 1468,-529 1179.18,-559.29 839,-549.44 649.78,-539.94"/>
<polygon fill="#7fb2ff" stroke="#7fb2ff" points="649.93,-536.45 639.77,-539.43 649.58,-543.44 649.93,-536.45"/>
</g>
<!-- Node0x5581373db6e8&#45;&gt;Node0x5581373d7868 -->
<g id="edge59" class="edge">
<title>Node0x5581373db6e8&#45;&gt;Node0x5581373d7868</title>
<path fill="none" stroke="black" d="M1518.67,-469.82C1513.45,-466.37 1508.53,-462.44 1504,-458 1434.19,-389.56 1534.48,-312.68 1468,-241 1358.49,-122.92 1260.99,-225.1 1116,-155 1097.75,-146.18 1098.51,-135.25 1080,-127 1068.43,-121.84 1056.08,-117.52 1043.49,-113.89"/>
<polygon fill="black" stroke="black" points="1044.4,-110.51 1033.83,-111.24 1042.55,-117.26 1044.4,-110.51"/>
</g>
<!-- Node0x5581373db6e8&#45;&gt;Node0x5581373da798 -->
<g id="edge62" class="edge">
<title>Node0x5581373db6e8&#45;&gt;Node0x5581373da798</title>
<path fill="none" stroke="#7fb2ff" d="M1563.82,-503C1532.58,-506.74 1499.13,-510.11 1468,-512 1311.84,-521.48 1272.14,-521.79 1116,-512 1089.14,-510.32 1060.51,-507.46 1033.19,-504.22"/>
<polygon fill="#7fb2ff" stroke="#7fb2ff" points="1033.54,-500.73 1023.19,-503 1032.7,-507.68 1033.54,-500.73"/>
</g>
<!-- Node0x5581373db6e8&#45;&gt;Node0x5581373d4ed8 -->
<g id="edge60" class="edge">
<title>Node0x5581373db6e8&#45;&gt;Node0x5581373d4ed8</title>
<path fill="none" stroke="#7fb2ff" d="M1518.97,-485C1505.53,-485 1491.92,-485 1478.39,-485"/>
<polygon fill="#7fb2ff" stroke="#7fb2ff" points="1478.06,-481.5 1468.06,-485 1478.06,-488.5 1478.06,-481.5"/>
</g>
<!-- Node0x5581373db6e8&#45;&gt;Node0x5581373dc8b8 -->
<g id="edge61" class="edge">
<title>Node0x5581373db6e8&#45;&gt;Node0x5581373dc8b8</title>
<path fill="none" stroke="#7fb2ff" d="M1518.69,-468.43C1475.8,-462.77 1431.18,-456.45 1393.04,-450.58"/>
<polygon fill="#7fb2ff" stroke="#7fb2ff" points="1393.39,-447.09 1382.97,-449.01 1392.32,-454.01 1393.39,-447.09"/>
</g>
<!-- Node0x5581373d9938&#45;&gt;Node0x5581373d6c88 -->
<g id="edge68" class="edge">
<title>Node0x5581373d9938&#45;&gt;Node0x5581373d6c88</title>
<path fill="none" stroke="#7fb2ff" d="M1664.82,-412.98C1625.49,-385.4 1545.13,-333.64 1468,-312 1148.22,-222.28 1024.56,-156.22 721,-291 620.99,-335.4 547.53,-451.2 518.13,-504.03"/>
<polygon fill="#7fb2ff" stroke="#7fb2ff" points="515.04,-502.38 513.31,-512.83 521.18,-505.74 515.04,-502.38"/>
</g>
<!-- Node0x5581373d9938&#45;&gt;Node0x5581373d7868 -->
<g id="edge69" class="edge">
<title>Node0x5581373d9938&#45;&gt;Node0x5581373d7868</title>
<path fill="none" stroke="black" d="M1680.63,-412.77C1655.37,-363.06 1577.71,-224.89 1468,-165 1431.51,-145.08 1199.42,-121.2 1043.86,-107.1"/>
<polygon fill="black" stroke="black" points="1044,-103.6 1033.73,-106.19 1043.37,-110.57 1044,-103.6"/>
</g>
<!-- Node0x5581373d9938&#45;&gt;Node0x5581373da798 -->
<g id="edge72" class="edge">
<title>Node0x5581373d9938&#45;&gt;Node0x5581373da798</title>
<path fill="none" stroke="#7fb2ff" d="M1600.44,-412.95C1486.7,-393.05 1284.44,-368.25 1116,-404 1098.87,-407.63 1096.24,-413.45 1080,-420 1041.7,-435.46 998.16,-451.35 963.67,-463.55"/>
<polygon fill="#7fb2ff" stroke="#7fb2ff" points="962.46,-460.26 954.19,-466.89 964.79,-466.86 962.46,-460.26"/>
</g>
<!-- Node0x5581373d9938&#45;&gt;Node0x5581373d4ed8 -->
<g id="edge70" class="edge">
<title>Node0x5581373d9938&#45;&gt;Node0x5581373d4ed8</title>
<path fill="none" stroke="#7fb2ff" d="M1557.21,-449.02C1518.07,-454.35 1475.07,-460.2 1435.33,-465.62"/>
<polygon fill="#7fb2ff" stroke="#7fb2ff" points="1434.74,-462.16 1425.3,-466.98 1435.69,-469.1 1434.74,-462.16"/>
</g>
<!-- Node0x5581373d9938&#45;&gt;Node0x5581373dc8b8 -->
<g id="edge71" class="edge">
<title>Node0x5581373d9938&#45;&gt;Node0x5581373dc8b8</title>
<path fill="none" stroke="#7fb2ff" d="M1513.98,-437.71C1493.77,-437.78 1473.25,-437.76 1453.26,-437.64"/>
<polygon fill="#7fb2ff" stroke="#7fb2ff" points="1453.21,-434.14 1443.18,-437.57 1453.16,-441.14 1453.21,-434.14"/>
</g>
<!-- Node0x5581373d8498 -->
<g id="node17" class="node">
<title>Node0x5581373d8498</title>
<polygon fill="none" stroke="black" points="667.5,-105 338.5,-105 338.5,-69 667.5,-69 667.5,-105"/>
<text text-anchor="middle" x="503" y="-83.3" font-family="Times,serif" font-size="14.00">{lib/libLLVMObject.a(Decompressor.cpp.o)}</text>
</g>
<!-- Node0x5581373d8498&#45;&gt;Node0x5581373d7868 -->
<g id="edge26" class="edge">
<title>Node0x5581373d8498&#45;&gt;Node0x5581373d7868</title>
<path fill="none" stroke="black" d="M667.72,-90.31C697.37,-90.91 728.08,-91.53 757.07,-92.12"/>
<polygon fill="black" stroke="black" points="757.17,-95.62 767.24,-92.32 757.31,-88.62 757.17,-95.62"/>
</g>
<!-- Node0x5581373dc458 -->
<g id="node18" class="node">
<title>Node0x5581373dc458</title>
<polygon fill="none" stroke="black" points="685,-159 321,-159 321,-123 685,-123 685,-159"/>
<text text-anchor="middle" x="503" y="-137.3" font-family="Times,serif" font-size="14.00">{lib/libLLVMObject.a(RelocationResolver.cpp.o)}</text>
</g>
<!-- Node0x5581373dc458&#45;&gt;Node0x5581373d7868 -->
<g id="edge27" class="edge">
<title>Node0x5581373dc458&#45;&gt;Node0x5581373d7868</title>
<path fill="none" stroke="black" d="M658.89,-122.98C691.23,-119.22 725.17,-115.28 757.03,-111.57"/>
<polygon fill="black" stroke="black" points="757.77,-115.01 767.3,-110.38 756.96,-108.05 757.77,-115.01"/>
</g>
<!-- Node0x5581373dc458&#45;&gt;Node0x5581373dcfe8 -->
<g id="edge28" class="edge">
<title>Node0x5581373dc458&#45;&gt;Node0x5581373dcfe8</title>
<path fill="none" stroke="black" d="M591.46,-159.03C710.04,-183.22 928.57,-226.83 1116,-259 1193.96,-272.38 1411.27,-256.87 1468,-312 1532.77,-374.94 1450.22,-439.44 1504,-512 1530.32,-547.51 1573.75,-570.76 1611.98,-585.37"/>
<polygon fill="black" stroke="black" points="1610.98,-588.73 1621.57,-588.9 1613.39,-582.16 1610.98,-588.73"/>
</g>
<!-- Node0x5581373ddcb8 -->
<g id="node20" class="node">
<title>Node0x5581373ddcb8</title>
<polygon fill="none" stroke="black" points="1050,-59 751,-59 751,-23 1050,-23 1050,-59"/>
<text text-anchor="middle" x="900.5" y="-37.3" font-family="Times,serif" font-size="14.00">{lib/libLLVMObject.a(IRSymtab.cpp.o)}</text>
</g>
<!-- Node0x5581373ddcb8&#45;&gt;Node0x5581373de3e8 -->
<g id="edge49" class="edge">
<title>Node0x5581373ddcb8&#45;&gt;Node0x5581373de3e8</title>
<path fill="none" stroke="black" d="M1050.19,-54.39C1060.61,-58.06 1070.67,-62.54 1080,-68 1181.21,-127.26 1251.45,-255.43 1278.57,-311.64"/>
<polygon fill="black" stroke="black" points="1275.54,-313.42 1282.98,-320.96 1281.86,-310.42 1275.54,-313.42"/>
</g>
<!-- Node0x5581373ddcb8&#45;&gt;Node0x5581373df608 -->
<g id="edge50" class="edge">
<title>Node0x5581373ddcb8&#45;&gt;Node0x5581373df608</title>
<path fill="none" stroke="black" d="M1050.18,-41C1175.71,-41 1356.43,-41 1493.72,-41"/>
<polygon fill="black" stroke="black" points="1493.94,-44.5 1503.94,-41 1493.94,-37.5 1493.94,-44.5"/>
</g>
<!-- Node0x5581373dd7b8&#45;&gt;Node0x5581373d7868 -->
<g id="edge73" class="edge">
<title>Node0x5581373dd7b8&#45;&gt;Node0x5581373d7868</title>
<path fill="none" stroke="black" d="M2069.98,-588.8C2009.04,-511.44 1757.28,-209.47 1468,-112 1329.38,-65.29 1160.71,-67.1 1043.64,-76.83"/>
<polygon fill="black" stroke="black" points="1043.2,-73.35 1033.54,-77.7 1043.8,-80.33 1043.2,-73.35"/>
</g>
<!-- Node0x5581373dd7b8&#45;&gt;Node0x5581373dff18 -->
<g id="edge74" class="edge">
<title>Node0x5581373dd7b8&#45;&gt;Node0x5581373dff18</title>
<path fill="none" stroke="#7fb2ff" d="M2040.97,-625.15C1942.04,-665.78 1689.83,-763.17 1468,-797 1331.98,-817.75 1175.44,-816.41 1061.43,-810.94"/>
<polygon fill="#7fb2ff" stroke="#7fb2ff" points="1061.39,-807.43 1051.22,-810.43 1061.04,-814.42 1061.39,-807.43"/>
</g>
<!-- Node0x5581373dd7b8&#45;&gt;Node0x5581373dcfe8 -->
<g id="edge75" class="edge">
<title>Node0x5581373dd7b8&#45;&gt;Node0x5581373dcfe8</title>
<path fill="none" stroke="#7fb2ff" d="M1957.27,-613.36C1928.35,-613.7 1897.12,-613.82 1866.58,-613.71"/>
<polygon fill="#7fb2ff" stroke="#7fb2ff" points="1866.26,-610.21 1856.25,-613.67 1866.23,-617.21 1866.26,-610.21"/>
</g>
<!-- Node0x5581373dae78 -->
<g id="node22" class="node">
<title>Node0x5581373dae78</title>
<polygon fill="none" stroke="black" points="285,-526 0,-526 0,-490 285,-490 285,-526"/>
<text text-anchor="middle" x="142.5" y="-504.3" font-family="Times,serif" font-size="14.00">{lib/libLLVMObject.a(TapiFile.cpp.o)}</text>
</g>
<!-- Node0x5581373dae78&#45;&gt;Node0x5581373d6c88 -->
<g id="edge76" class="edge">
<title>Node0x5581373dae78&#45;&gt;Node0x5581373d6c88</title>
<path fill="none" stroke="black" d="M285.19,-517.09C308.56,-518.59 332.83,-520.15 356.3,-521.65"/>
<polygon fill="black" stroke="black" points="356.11,-525.15 366.31,-522.29 356.56,-518.16 356.11,-525.15"/>
</g>
<!-- Node0x5581373dae78&#45;&gt;Node0x5581373da798 -->
<g id="edge77" class="edge">
<title>Node0x5581373dae78&#45;&gt;Node0x5581373da798</title>
<path fill="none" stroke="black" d="M285.25,-503.69C411.41,-499.85 596.16,-494.23 730.07,-490.15"/>
<polygon fill="black" stroke="black" points="730.54,-493.64 740.43,-489.84 730.33,-486.65 730.54,-493.64"/>
</g>
</g>
</svg>
