<?xml version="1.0" encoding="UTF-8" standalone="no"?>
<!DOCTYPE svg PUBLIC "-//W3C//DTD SVG 1.1//EN"
 "http://www.w3.org/Graphics/SVG/1.1/DTD/svg11.dtd">
<!-- Generated by graphviz version 2.43.0 (0)
 -->
<!-- Title: bin/llvm&#45;diff Pages: 1 -->
<svg width="1665pt" height="405pt"
 viewBox="0.00 0.00 1665.00 405.40" xmlns="http://www.w3.org/2000/svg" xmlns:xlink="http://www.w3.org/1999/xlink">
<g id="graph0" class="graph" transform="scale(1 1) rotate(0) translate(4 401.4)">
<title>bin/llvm&#45;diff</title>
<polygon fill="white" stroke="transparent" points="-4,4 -4,-401.4 1661,-401.4 1661,4 -4,4"/>
<text text-anchor="middle" x="828.5" y="-7.8" font-family="Times,serif" font-size="14.00">bin/llvm&#45;diff</text>
<!-- Node0x5622ac904dc8 -->
<g id="node1" class="node">
<title>Node0x5622ac904dc8</title>
<polygon fill="#7fb2ff" stroke="black" points="414,-250.57 0,-250.57 0,-214.57 414,-214.57 414,-250.57"/>
<text text-anchor="middle" x="207" y="-228.87" font-family="Times,serif" font-size="14.00">{tools/llvm&#45;diff/CMakeFiles/llvm&#45;diff.dir/llvm&#45;diff.cpp.o}</text>
</g>
<!-- Node0x5622ac9043c8 -->
<g id="node2" class="node">
<title>Node0x5622ac9043c8</title>
<polygon fill="#7fb2ff" stroke="black" points="915.5,-304.57 463.5,-304.57 463.5,-268.57 915.5,-268.57 915.5,-304.57"/>
<text text-anchor="middle" x="689.5" y="-282.87" font-family="Times,serif" font-size="14.00">{tools/llvm&#45;diff/CMakeFiles/llvm&#45;diff.dir/DiffConsumer.cpp.o}</text>
</g>
<!-- Node0x5622ac904dc8&#45;&gt;Node0x5622ac9043c8 -->
<g id="edge1" class="edge">
<title>Node0x5622ac904dc8&#45;&gt;Node0x5622ac9043c8</title>
<path fill="none" stroke="#7fb2ff" d="M368.33,-250.58C416.46,-255.99 469.42,-261.95 518.17,-267.42"/>
<polygon fill="#7fb2ff" stroke="#7fb2ff" points="517.85,-270.91 528.18,-268.55 518.64,-263.95 517.85,-270.91"/>
</g>
<!-- Node0x5622ac9033d8 -->
<g id="node3" class="node">
<title>Node0x5622ac9033d8</title>
<polygon fill="#7fb2ff" stroke="black" points="929,-158.57 450,-158.57 450,-122.57 929,-122.57 929,-158.57"/>
<text text-anchor="middle" x="689.5" y="-136.87" font-family="Times,serif" font-size="14.00">{tools/llvm&#45;diff/CMakeFiles/llvm&#45;diff.dir/DifferenceEngine.cpp.o}</text>
</g>
<!-- Node0x5622ac904dc8&#45;&gt;Node0x5622ac9033d8 -->
<g id="edge2" class="edge">
<title>Node0x5622ac904dc8&#45;&gt;Node0x5622ac9033d8</title>
<path fill="none" stroke="#7fb2ff" d="M272.54,-214.52C321.05,-201.45 389.3,-184.13 450,-172.57 474.27,-167.94 500.06,-163.75 525.37,-160.03"/>
<polygon fill="#7fb2ff" stroke="#7fb2ff" points="526.02,-163.47 535.42,-158.57 525.02,-156.54 526.02,-163.47"/>
</g>
<!-- Node0x5622ac906a88 -->
<g id="node4" class="node">
<title>Node0x5622ac906a88</title>
<polygon fill="#7fb2ff" stroke="black" points="770.5,-250.57 608.5,-250.57 608.5,-214.57 770.5,-214.57 770.5,-250.57"/>
<text text-anchor="middle" x="689.5" y="-228.87" font-family="Times,serif" font-size="14.00">{lib/libLLVMCore.a}</text>
</g>
<!-- Node0x5622ac904dc8&#45;&gt;Node0x5622ac906a88 -->
<g id="edge3" class="edge">
<title>Node0x5622ac904dc8&#45;&gt;Node0x5622ac906a88</title>
<path fill="none" stroke="#7fb2ff" d="M414.22,-225.88C478.53,-225.65 546.16,-226.07 598.17,-227.16"/>
<polygon fill="#7fb2ff" stroke="#7fb2ff" points="598.29,-230.66 608.36,-227.38 598.44,-223.66 598.29,-230.66"/>
</g>
<!-- Node0x5622ac9022a8 -->
<g id="node5" class="node">
<title>Node0x5622ac9022a8</title>
<polygon fill="#7fb2ff" stroke="black" points="782.5,-104.57 596.5,-104.57 596.5,-68.57 782.5,-68.57 782.5,-104.57"/>
<text text-anchor="middle" x="689.5" y="-82.87" font-family="Times,serif" font-size="14.00">{lib/libLLVMSupport.a}</text>
</g>
<!-- Node0x5622ac904dc8&#45;&gt;Node0x5622ac9022a8 -->
<g id="edge4" class="edge">
<title>Node0x5622ac904dc8&#45;&gt;Node0x5622ac9022a8</title>
<path fill="none" stroke="#7fb2ff" d="M228.37,-214.42C268.8,-185.27 362.83,-130.09 450,-104.57 493.69,-91.77 543.52,-84.98 586.3,-82.1"/>
<polygon fill="#7fb2ff" stroke="#7fb2ff" points="586.67,-85.58 596.44,-81.48 586.25,-78.6 586.67,-85.58"/>
</g>
<!-- Node0x5622ac901d58 -->
<g id="node6" class="node">
<title>Node0x5622ac901d58</title>
<polygon fill="#7fb2ff" stroke="black" points="786.5,-358.57 592.5,-358.57 592.5,-322.57 786.5,-322.57 786.5,-358.57"/>
<text text-anchor="middle" x="689.5" y="-336.87" font-family="Times,serif" font-size="14.00">{lib/libLLVMIRReader.a}</text>
</g>
<!-- Node0x5622ac904dc8&#45;&gt;Node0x5622ac901d58 -->
<g id="edge5" class="edge">
<title>Node0x5622ac904dc8&#45;&gt;Node0x5622ac901d58</title>
<path fill="none" stroke="#7fb2ff" d="M252.69,-250.69C300.66,-269.39 379.49,-297.96 450,-313.57 492.75,-323.03 540.6,-329.27 582.14,-333.35"/>
<polygon fill="#7fb2ff" stroke="#7fb2ff" points="582,-336.85 592.29,-334.31 582.66,-329.88 582,-336.85"/>
</g>
<!-- Node0x5622ac9043c8&#45;&gt;Node0x5622ac906a88 -->
<g id="edge7" class="edge">
<title>Node0x5622ac9043c8&#45;&gt;Node0x5622ac906a88</title>
<path fill="none" stroke="#7fb2ff" d="M689.5,-268.36C689.5,-265.87 689.5,-263.39 689.5,-260.91"/>
<polygon fill="#7fb2ff" stroke="#7fb2ff" points="693,-260.71 689.5,-250.71 686,-260.71 693,-260.71"/>
</g>
<!-- Node0x5622ac9043c8&#45;&gt;Node0x5622ac9022a8 -->
<g id="edge8" class="edge">
<title>Node0x5622ac9043c8&#45;&gt;Node0x5622ac9022a8</title>
<path fill="none" stroke="#7fb2ff" d="M595.06,-304.59C535.71,-309.76 464.45,-303.08 432,-250.57 417.05,-226.37 417.05,-146.76 432,-122.57 462.84,-72.67 528.72,-64.15 586.12,-67.86"/>
<polygon fill="#7fb2ff" stroke="#7fb2ff" points="586.12,-71.37 596.36,-68.66 586.66,-64.39 586.12,-71.37"/>
</g>
<!-- Node0x5622ac903748 -->
<g id="node7" class="node">
<title>Node0x5622ac903748</title>
<polygon fill="#7fb2ff" stroke="black" points="1372,-104.57 965,-104.57 965,-68.57 1372,-68.57 1372,-104.57"/>
<text text-anchor="middle" x="1168.5" y="-82.87" font-family="Times,serif" font-size="14.00">{tools/llvm&#45;diff/CMakeFiles/llvm&#45;diff.dir/DiffLog.cpp.o}</text>
</g>
<!-- Node0x5622ac9043c8&#45;&gt;Node0x5622ac903748 -->
<g id="edge6" class="edge">
<title>Node0x5622ac9043c8&#45;&gt;Node0x5622ac903748</title>
<path fill="none" stroke="#7fb2ff" d="M915.58,-269.15C920.22,-266.23 924.71,-263.04 929,-259.57 968.31,-227.72 929.02,-187.14 965,-151.57 985.43,-131.36 1012.16,-117.43 1039.46,-107.83"/>
<polygon fill="#7fb2ff" stroke="#7fb2ff" points="1040.75,-111.09 1049.13,-104.62 1038.54,-104.45 1040.75,-111.09"/>
</g>
<!-- Node0x5622ac9033d8&#45;&gt;Node0x5622ac906a88 -->
<g id="edge10" class="edge">
<title>Node0x5622ac9033d8&#45;&gt;Node0x5622ac906a88</title>
<path fill="none" stroke="#7fb2ff" d="M802.85,-158.62C898.04,-178.69 890.69,-198.76 780.79,-218.83"/>
<polygon fill="#7fb2ff" stroke="#7fb2ff" points="780.15,-215.38 770.92,-220.58 781.37,-222.28 780.15,-215.38"/>
</g>
<!-- Node0x5622ac9033d8&#45;&gt;Node0x5622ac9022a8 -->
<g id="edge11" class="edge">
<title>Node0x5622ac9033d8&#45;&gt;Node0x5622ac9022a8</title>
<path fill="none" stroke="#7fb2ff" d="M751.86,-122.36C757.73,-118.86 760.11,-115.37 758.98,-111.88"/>
<polygon fill="#7fb2ff" stroke="#7fb2ff" points="761.31,-109.26 751.74,-104.71 756.38,-114.23 761.31,-109.26"/>
</g>
<!-- Node0x5622ac9033d8&#45;&gt;Node0x5622ac903748 -->
<g id="edge9" class="edge">
<title>Node0x5622ac9033d8&#45;&gt;Node0x5622ac903748</title>
<path fill="none" stroke="#7fb2ff" d="M849.67,-122.55C897.44,-117.14 950.01,-111.19 998.41,-105.71"/>
<polygon fill="#7fb2ff" stroke="#7fb2ff" points="998.81,-109.19 1008.35,-104.58 998.02,-102.23 998.81,-109.19"/>
</g>
<!-- Node0x5622ac906a88&#45;&gt;Node0x5622ac904dc8 -->
<g id="edge16" class="edge">
<title>Node0x5622ac906a88&#45;&gt;Node0x5622ac904dc8</title>
<path fill="none" stroke="#7fb2ff" d="M608.36,-237.75C557.79,-238.94 489.84,-239.45 424.29,-239.29"/>
<polygon fill="#7fb2ff" stroke="#7fb2ff" points="424.23,-235.79 414.22,-239.26 424.2,-242.79 424.23,-235.79"/>
</g>
<!-- Node0x5622ac906a88&#45;&gt;Node0x5622ac9033d8 -->
<g id="edge14" class="edge">
<title>Node0x5622ac906a88&#45;&gt;Node0x5622ac9033d8</title>
<path fill="none" stroke="#7fb2ff" d="M608.08,-220.58C493.02,-200.65 479.06,-180.73 566.22,-160.8"/>
<polygon fill="#7fb2ff" stroke="#7fb2ff" points="567.13,-164.19 576.15,-158.62 565.63,-157.35 567.13,-164.19"/>
</g>
<!-- Node0x5622ac906a88&#45;&gt;Node0x5622ac9022a8 -->
<g id="edge12" class="edge">
<title>Node0x5622ac906a88&#45;&gt;Node0x5622ac9022a8</title>
<path fill="none" stroke="#7fb2ff" d="M608.26,-247.99C548.4,-254.02 471.78,-249.22 438,-194.57 429.24,-180.39 429.24,-133.74 438,-119.57 468.74,-69.83 535.25,-62.81 592.15,-67.57"/>
<polygon fill="#7fb2ff" stroke="#7fb2ff" points="592,-71.07 602.29,-68.55 592.67,-64.11 592,-71.07"/>
</g>
<!-- Node0x5622ac9036a8 -->
<g id="node8" class="node">
<title>Node0x5622ac9036a8</title>
<polygon fill="#7fb2ff" stroke="black" points="1282,-304.57 1055,-304.57 1055,-268.57 1282,-268.57 1282,-304.57"/>
<text text-anchor="middle" x="1168.5" y="-282.87" font-family="Times,serif" font-size="14.00">{lib/libLLVMBinaryFormat.a}</text>
</g>
<!-- Node0x5622ac906a88&#45;&gt;Node0x5622ac9036a8 -->
<g id="edge13" class="edge">
<title>Node0x5622ac906a88&#45;&gt;Node0x5622ac9036a8</title>
<path fill="none" stroke="#7fb2ff" d="M770.61,-236.44C846.8,-243.27 962.36,-256.11 1049.17,-267.25"/>
<polygon fill="#7fb2ff" stroke="#7fb2ff" points="1048.97,-270.75 1059.34,-268.56 1049.87,-263.81 1048.97,-270.75"/>
</g>
<!-- Node0x5622ac903b58 -->
<g id="node9" class="node">
<title>Node0x5622ac903b58</title>
<polygon fill="#7fb2ff" stroke="black" points="1264,-250.57 1073,-250.57 1073,-214.57 1264,-214.57 1264,-250.57"/>
<text text-anchor="middle" x="1168.5" y="-228.87" font-family="Times,serif" font-size="14.00">{lib/libLLVMRemarks.a}</text>
</g>
<!-- Node0x5622ac906a88&#45;&gt;Node0x5622ac903b58 -->
<g id="edge15" class="edge">
<title>Node0x5622ac906a88&#45;&gt;Node0x5622ac903b58</title>
<path fill="none" stroke="#7fb2ff" d="M770.61,-227.37C850.84,-225.48 974.72,-225.32 1062.71,-226.87"/>
<polygon fill="#7fb2ff" stroke="#7fb2ff" points="1062.66,-230.36 1072.72,-227.05 1062.79,-223.37 1062.66,-230.36"/>
</g>
<!-- Node0x5622ac9027a8 -->
<g id="node10" class="node">
<title>Node0x5622ac9027a8</title>
<polygon fill="#7fb2ff" stroke="black" points="1270.5,-358.57 1066.5,-358.57 1066.5,-322.57 1270.5,-322.57 1270.5,-358.57"/>
<text text-anchor="middle" x="1168.5" y="-336.87" font-family="Times,serif" font-size="14.00">{lib/libLLVMAsmParser.a}</text>
</g>
<!-- Node0x5622ac906a88&#45;&gt;Node0x5622ac9027a8 -->
<g id="edge17" class="edge">
<title>Node0x5622ac906a88&#45;&gt;Node0x5622ac9027a8</title>
<path fill="none" stroke="#7fb2ff" d="M770.55,-217.53C819.63,-215.59 881.86,-221.81 929,-250.57 953.62,-265.59 940.53,-289.3 965,-304.57 991.95,-321.38 1024.83,-329.73 1056.19,-333.87"/>
<polygon fill="#7fb2ff" stroke="#7fb2ff" points="1055.96,-337.37 1066.31,-335.07 1056.79,-330.42 1055.96,-337.37"/>
</g>
<!-- Node0x5622ac9022a8&#45;&gt;Node0x5622ac904dc8 -->
<g id="edge19" class="edge">
<title>Node0x5622ac9022a8&#45;&gt;Node0x5622ac904dc8</title>
<path fill="none" stroke="#7fb2ff" d="M596.44,-97.72C551.55,-101.93 497.19,-108.75 450,-122.57 379.08,-143.33 303.63,-183.72 256.18,-209.54"/>
<polygon fill="#7fb2ff" stroke="#7fb2ff" points="254.48,-206.48 247.37,-214.34 257.82,-212.63 254.48,-206.48"/>
</g>
<!-- Node0x5622ac9022a8&#45;&gt;Node0x5622ac9033d8 -->
<g id="edge21" class="edge">
<title>Node0x5622ac9022a8&#45;&gt;Node0x5622ac9033d8</title>
<path fill="none" stroke="#7fb2ff" d="M627.26,-104.71C621.34,-108.2 618.92,-111.69 620,-115.19"/>
<polygon fill="#7fb2ff" stroke="#7fb2ff" points="617.61,-117.74 627.14,-122.36 622.57,-112.8 617.61,-117.74"/>
</g>
<!-- Node0x5622ac9022a8&#45;&gt;Node0x5622ac906a88 -->
<g id="edge18" class="edge">
<title>Node0x5622ac9022a8&#45;&gt;Node0x5622ac906a88</title>
<path fill="none" stroke="#7fb2ff" d="M596.2,-69.32C534.84,-64.06 459.85,-70.79 426,-125.57 411.28,-149.38 411.28,-164.75 426,-188.57 432.27,-198.71 438.6,-197.06 450,-200.57 497.72,-215.23 552.82,-223.18 598.14,-227.48"/>
<polygon fill="#7fb2ff" stroke="#7fb2ff" points="597.97,-230.98 608.24,-228.4 598.6,-224.01 597.97,-230.98"/>
</g>
<!-- Node0x5622ac9022a8&#45;&gt;Node0x5622ac901d58 -->
<g id="edge20" class="edge">
<title>Node0x5622ac9022a8&#45;&gt;Node0x5622ac901d58</title>
<path fill="none" stroke="#7fb2ff" d="M602.29,-68.55C543.37,-62.12 470.59,-66.84 438,-119.57 427.02,-137.34 427.02,-289.8 438,-307.57 468.74,-357.31 535.25,-364.33 592.15,-359.56"/>
<polygon fill="#7fb2ff" stroke="#7fb2ff" points="592.67,-363.03 602.29,-358.58 592,-356.06 592.67,-363.03"/>
</g>
<!-- Node0x5622ac901d58&#45;&gt;Node0x5622ac906a88 -->
<g id="edge23" class="edge">
<title>Node0x5622ac901d58&#45;&gt;Node0x5622ac906a88</title>
<path fill="none" stroke="#7fb2ff" d="M592.38,-344.44C503.99,-344.15 392.83,-331.94 432,-268.57 465.03,-215.12 538.27,-209.15 598.23,-214.83"/>
<polygon fill="#7fb2ff" stroke="#7fb2ff" points="598.18,-218.34 608.49,-215.93 598.92,-211.38 598.18,-218.34"/>
</g>
<!-- Node0x5622ac901d58&#45;&gt;Node0x5622ac9022a8 -->
<g id="edge22" class="edge">
<title>Node0x5622ac901d58&#45;&gt;Node0x5622ac9022a8</title>
<path fill="none" stroke="#7fb2ff" d="M592.21,-358.13C531.63,-362.76 459.13,-355.16 426,-301.57 415.72,-284.93 415.72,-142.2 426,-125.57 458,-73.78 526.76,-64.94 586.02,-68.57"/>
<polygon fill="#7fb2ff" stroke="#7fb2ff" points="585.97,-72.08 596.2,-69.32 586.48,-65.1 585.97,-72.08"/>
</g>
<!-- Node0x5622ac901d58&#45;&gt;Node0x5622ac9027a8 -->
<g id="edge24" class="edge">
<title>Node0x5622ac901d58&#45;&gt;Node0x5622ac9027a8</title>
<path fill="none" stroke="#7fb2ff" d="M786.74,-335.02C864.64,-333.51 974.46,-333.42 1056.15,-334.75"/>
<polygon fill="#7fb2ff" stroke="#7fb2ff" points="1056.41,-338.26 1066.47,-334.93 1056.53,-331.26 1056.41,-338.26"/>
</g>
<!-- Node0x5622ac902d48 -->
<g id="node11" class="node">
<title>Node0x5622ac902d48</title>
<polygon fill="#7fb2ff" stroke="black" points="1268,-196.57 1069,-196.57 1069,-160.57 1268,-160.57 1268,-196.57"/>
<text text-anchor="middle" x="1168.5" y="-174.87" font-family="Times,serif" font-size="14.00">{lib/libLLVMBitReader.a}</text>
</g>
<!-- Node0x5622ac901d58&#45;&gt;Node0x5622ac902d48 -->
<g id="edge25" class="edge">
<title>Node0x5622ac901d58&#45;&gt;Node0x5622ac902d48</title>
<path fill="none" stroke="#7fb2ff" d="M786.54,-344.39C834.17,-344.11 889.74,-336.37 929,-304.57 968.31,-272.72 926,-228.8 965,-196.57 990.95,-175.11 1025.5,-165.86 1058.7,-163.16"/>
<polygon fill="#7fb2ff" stroke="#7fb2ff" points="1059.19,-166.64 1068.95,-162.53 1058.76,-159.65 1059.19,-166.64"/>
</g>
<!-- Node0x5622ac903748&#45;&gt;Node0x5622ac9022a8 -->
<g id="edge26" class="edge">
<title>Node0x5622ac903748&#45;&gt;Node0x5622ac9022a8</title>
<path fill="none" stroke="#7fb2ff" d="M964.93,-86.57C905.59,-86.57 843.22,-86.57 792.96,-86.57"/>
<polygon fill="#7fb2ff" stroke="#7fb2ff" points="792.75,-83.07 782.75,-86.57 792.75,-90.07 792.75,-83.07"/>
</g>
<!-- Node0x5622ac9036a8&#45;&gt;Node0x5622ac906a88 -->
<g id="edge27" class="edge">
<title>Node0x5622ac9036a8&#45;&gt;Node0x5622ac906a88</title>
<path fill="none" stroke="#7fb2ff" d="M1054.9,-279.65C971.26,-271.53 858.66,-258.65 780.87,-248.22"/>
<polygon fill="#7fb2ff" stroke="#7fb2ff" points="780.99,-244.71 770.61,-246.83 780.05,-251.64 780.99,-244.71"/>
</g>
<!-- Node0x5622ac903b58&#45;&gt;Node0x5622ac906a88 -->
<g id="edge29" class="edge">
<title>Node0x5622ac903b58&#45;&gt;Node0x5622ac906a88</title>
<path fill="none" stroke="#7fb2ff" d="M1072.72,-238.08C987.87,-239.76 864.31,-239.73 780.84,-237.99"/>
<polygon fill="#7fb2ff" stroke="#7fb2ff" points="780.68,-234.49 770.61,-237.76 780.53,-241.48 780.68,-234.49"/>
</g>
<!-- Node0x5622ac903b58&#45;&gt;Node0x5622ac9022a8 -->
<g id="edge28" class="edge">
<title>Node0x5622ac903b58&#45;&gt;Node0x5622ac9022a8</title>
<path fill="none" stroke="#7fb2ff" d="M1072.93,-239.63C1035.89,-237.71 995.14,-229.21 965,-205.57 930.45,-178.47 963.81,-140.32 929,-113.57 890.91,-84.29 838.76,-75.91 792.94,-75.54"/>
<polygon fill="#7fb2ff" stroke="#7fb2ff" points="792.64,-72.04 782.66,-75.58 792.68,-79.04 792.64,-72.04"/>
</g>
<!-- Node0x5622ac903b58&#45;&gt;Node0x5622ac901d58 -->
<g id="edge31" class="edge">
<title>Node0x5622ac903b58&#45;&gt;Node0x5622ac901d58</title>
<path fill="none" stroke="#7fb2ff" d="M1072.75,-229.06C1036.72,-231.7 996.75,-239.76 965,-259.57 940.53,-274.83 953.62,-298.54 929,-313.57 889.89,-337.42 840.39,-345.77 796.63,-347.53"/>
<polygon fill="#7fb2ff" stroke="#7fb2ff" points="796.41,-344.03 786.52,-347.82 796.62,-351.03 796.41,-344.03"/>
</g>
<!-- Node0x5622ac903b58&#45;&gt;Node0x5622ac902d48 -->
<g id="edge30" class="edge">
<title>Node0x5622ac903b58&#45;&gt;Node0x5622ac902d48</title>
<path fill="none" stroke="#7fb2ff" d="M1168.5,-214.36C1168.5,-211.87 1168.5,-209.39 1168.5,-206.91"/>
<polygon fill="#7fb2ff" stroke="#7fb2ff" points="1172,-206.71 1168.5,-196.71 1165,-206.71 1172,-206.71"/>
</g>
<!-- Node0x5622ac904a58 -->
<g id="node12" class="node">
<title>Node0x5622ac904a58</title>
<polygon fill="#7fb2ff" stroke="black" points="1657,-196.57 1408,-196.57 1408,-160.57 1657,-160.57 1657,-196.57"/>
<text text-anchor="middle" x="1532.5" y="-174.87" font-family="Times,serif" font-size="14.00">{lib/libLLVMBitstreamReader.a}</text>
</g>
<!-- Node0x5622ac903b58&#45;&gt;Node0x5622ac904a58 -->
<g id="edge32" class="edge">
<title>Node0x5622ac903b58&#45;&gt;Node0x5622ac904a58</title>
<path fill="none" stroke="#7fb2ff" d="M1248.45,-214.53C1285.93,-208.84 1331.32,-202.72 1372,-196.57 1380.47,-195.28 1389.19,-193.92 1397.98,-192.54"/>
<polygon fill="#7fb2ff" stroke="#7fb2ff" points="1398.59,-195.99 1407.92,-190.97 1397.5,-189.07 1398.59,-195.99"/>
</g>
<!-- Node0x5622ac9027a8&#45;&gt;Node0x5622ac904dc8 -->
<g id="edge36" class="edge">
<title>Node0x5622ac9027a8&#45;&gt;Node0x5622ac904dc8</title>
<path fill="none" stroke="#7fb2ff" d="M1086.23,-358.61C951.48,-385.23 674.39,-425.92 450,-367.57 367.5,-346.11 283.27,-289.68 239.23,-256.97"/>
<polygon fill="#7fb2ff" stroke="#7fb2ff" points="241.07,-253.97 230.97,-250.76 236.86,-259.57 241.07,-253.97"/>
</g>
<!-- Node0x5622ac9027a8&#45;&gt;Node0x5622ac906a88 -->
<g id="edge33" class="edge">
<title>Node0x5622ac9027a8&#45;&gt;Node0x5622ac906a88</title>
<path fill="none" stroke="#7fb2ff" d="M1066.31,-352.02C1032.01,-349.44 994.87,-341.2 965,-322.57 940.53,-307.3 953.62,-283.59 929,-268.57 885.09,-241.78 828.07,-234.55 780.79,-233.23"/>
<polygon fill="#7fb2ff" stroke="#7fb2ff" points="780.62,-229.73 770.55,-233.03 780.48,-236.73 780.62,-229.73"/>
</g>
<!-- Node0x5622ac9027a8&#45;&gt;Node0x5622ac9022a8 -->
<g id="edge35" class="edge">
<title>Node0x5622ac9027a8&#45;&gt;Node0x5622ac9022a8</title>
<path fill="none" stroke="#7fb2ff" d="M1066.31,-350.26C1030.09,-348.28 991.67,-339.05 965,-313.57 899.7,-251.17 994.92,-175.31 929,-113.57 893.23,-80.06 839.98,-71.64 792.87,-72.33"/>
<polygon fill="#7fb2ff" stroke="#7fb2ff" points="792.5,-68.84 782.61,-72.63 792.7,-75.84 792.5,-68.84"/>
</g>
<!-- Node0x5622ac9027a8&#45;&gt;Node0x5622ac901d58 -->
<g id="edge34" class="edge">
<title>Node0x5622ac9027a8&#45;&gt;Node0x5622ac901d58</title>
<path fill="none" stroke="#7fb2ff" d="M1066.47,-346.2C987.29,-347.66 877.43,-347.69 796.91,-346.3"/>
<polygon fill="#7fb2ff" stroke="#7fb2ff" points="796.8,-342.79 786.74,-346.11 796.68,-349.79 796.8,-342.79"/>
</g>
<!-- Node0x5622ac9027a8&#45;&gt;Node0x5622ac9036a8 -->
<g id="edge37" class="edge">
<title>Node0x5622ac9027a8&#45;&gt;Node0x5622ac9036a8</title>
<path fill="none" stroke="#7fb2ff" d="M1168.5,-322.36C1168.5,-319.87 1168.5,-317.39 1168.5,-314.91"/>
<polygon fill="#7fb2ff" stroke="#7fb2ff" points="1172,-314.71 1168.5,-304.71 1165,-314.71 1172,-314.71"/>
</g>
<!-- Node0x5622ac902d48&#45;&gt;Node0x5622ac904dc8 -->
<g id="edge38" class="edge">
<title>Node0x5622ac902d48&#45;&gt;Node0x5622ac904dc8</title>
<path fill="none" stroke="#7fb2ff" d="M1068.72,-179.99C930.26,-182.5 670.65,-189.13 450,-205.57 422.09,-207.65 392.44,-210.45 363.81,-213.48"/>
<polygon fill="#7fb2ff" stroke="#7fb2ff" points="363.3,-210.01 353.72,-214.55 364.04,-216.97 363.3,-210.01"/>
</g>
<!-- Node0x5622ac902d48&#45;&gt;Node0x5622ac906a88 -->
<g id="edge39" class="edge">
<title>Node0x5622ac902d48&#45;&gt;Node0x5622ac906a88</title>
<path fill="none" stroke="#7fb2ff" d="M1068.9,-189.73C984.14,-199.32 862.91,-213.05 780.69,-222.36"/>
<polygon fill="#7fb2ff" stroke="#7fb2ff" points="780.15,-218.89 770.61,-223.5 780.94,-225.85 780.15,-218.89"/>
</g>
<!-- Node0x5622ac902d48&#45;&gt;Node0x5622ac9022a8 -->
<g id="edge40" class="edge">
<title>Node0x5622ac902d48&#45;&gt;Node0x5622ac9022a8</title>
<path fill="none" stroke="#7fb2ff" d="M1110.73,-160.45C1062.77,-145.78 992.01,-125.65 929,-113.57 884.67,-105.07 835.16,-98.93 792.78,-94.67"/>
<polygon fill="#7fb2ff" stroke="#7fb2ff" points="793.03,-91.18 782.73,-93.68 792.34,-98.15 793.03,-91.18"/>
</g>
<!-- Node0x5622ac902d48&#45;&gt;Node0x5622ac901d58 -->
<g id="edge41" class="edge">
<title>Node0x5622ac902d48&#45;&gt;Node0x5622ac901d58</title>
<path fill="none" stroke="#7fb2ff" d="M1068.95,-179.3C1032.74,-182.07 993.63,-190.89 965,-214.57 926,-246.8 968.31,-290.72 929,-322.57 885.06,-358.16 820.69,-363.61 769.89,-359.52"/>
<polygon fill="#7fb2ff" stroke="#7fb2ff" points="770.21,-356.04 759.92,-358.59 769.55,-363.01 770.21,-356.04"/>
</g>
<!-- Node0x5622ac902d48&#45;&gt;Node0x5622ac9027a8 -->
<g id="edge42" class="edge">
<title>Node0x5622ac902d48&#45;&gt;Node0x5622ac9027a8</title>
<path fill="none" stroke="#7fb2ff" d="M1068.77,-164.58C1022.2,-164.32 971.68,-174.63 947,-214.57 925.97,-248.59 925.97,-270.54 947,-304.57 969.47,-340.92 1013.36,-352.73 1056.18,-354.35"/>
<polygon fill="#7fb2ff" stroke="#7fb2ff" points="1056.38,-357.86 1066.45,-354.55 1056.52,-350.86 1056.38,-357.86"/>
</g>
<!-- Node0x5622ac902d48&#45;&gt;Node0x5622ac904a58 -->
<g id="edge43" class="edge">
<title>Node0x5622ac902d48&#45;&gt;Node0x5622ac904a58</title>
<path fill="none" stroke="#7fb2ff" d="M1268.42,-172.48C1308.24,-171.79 1354.8,-171.64 1397.58,-172.02"/>
<polygon fill="#7fb2ff" stroke="#7fb2ff" points="1397.76,-175.53 1407.79,-172.13 1397.83,-168.53 1397.76,-175.53"/>
</g>
<!-- Node0x5622ac904a58&#45;&gt;Node0x5622ac906a88 -->
<g id="edge45" class="edge">
<title>Node0x5622ac904a58&#45;&gt;Node0x5622ac906a88</title>
<path fill="none" stroke="#7fb2ff" d="M1441.16,-160.57C1418.66,-156.83 1394.53,-153.46 1372,-151.57 1191.75,-136.42 1141.95,-114.02 965,-151.57 947.87,-155.2 945.49,-161.69 929,-167.57 879.85,-185.07 823.59,-200.61 778.06,-212.1"/>
<polygon fill="#7fb2ff" stroke="#7fb2ff" points="777.07,-208.74 768.22,-214.57 778.77,-215.53 777.07,-208.74"/>
</g>
<!-- Node0x5622ac904a58&#45;&gt;Node0x5622ac9022a8 -->
<g id="edge44" class="edge">
<title>Node0x5622ac904a58&#45;&gt;Node0x5622ac9022a8</title>
<path fill="none" stroke="#7fb2ff" d="M1515.06,-160.37C1488.34,-132.31 1432.33,-79.59 1372,-59.57 1162.53,9.96 896.81,-36.07 767.79,-66.24"/>
<polygon fill="#7fb2ff" stroke="#7fb2ff" points="766.91,-62.85 757.99,-68.57 768.53,-69.66 766.91,-62.85"/>
</g>
<!-- Node0x5622ac904a58&#45;&gt;Node0x5622ac903b58 -->
<g id="edge47" class="edge">
<title>Node0x5622ac904a58&#45;&gt;Node0x5622ac903b58</title>
<path fill="none" stroke="#7fb2ff" d="M1475.11,-196.6C1444.62,-202.91 1406.29,-209.38 1372,-214.57 1340.28,-219.36 1305.69,-224.14 1274.22,-227.92"/>
<polygon fill="#7fb2ff" stroke="#7fb2ff" points="1273.64,-224.46 1264.12,-229.11 1274.46,-231.42 1273.64,-224.46"/>
</g>
<!-- Node0x5622ac904a58&#45;&gt;Node0x5622ac902d48 -->
<g id="edge46" class="edge">
<title>Node0x5622ac904a58&#45;&gt;Node0x5622ac902d48</title>
<path fill="none" stroke="#7fb2ff" d="M1407.79,-185.01C1365.86,-185.47 1319.35,-185.41 1278.64,-184.82"/>
<polygon fill="#7fb2ff" stroke="#7fb2ff" points="1278.47,-181.32 1268.42,-184.66 1278.36,-188.32 1278.47,-181.32"/>
</g>
</g>
</svg>
