<?xml version="1.0" encoding="UTF-8" standalone="no"?>
<!DOCTYPE svg PUBLIC "-//W3C//DTD SVG 1.1//EN"
 "http://www.w3.org/Graphics/SVG/1.1/DTD/svg11.dtd">
<!-- Generated by graphviz version 2.43.0 (0)
 -->
<!-- Title: bin/lli&#45;child&#45;target_lib/libLLVMObject.a Pages: 1 -->
<svg width="381pt" height="1093pt"
 viewBox="0.00 0.00 381.00 1093.00" xmlns="http://www.w3.org/2000/svg" xmlns:xlink="http://www.w3.org/1999/xlink">
<g id="graph0" class="graph" transform="scale(1 1) rotate(0) translate(4 1089)">
<title>bin/lli&#45;child&#45;target_lib/libLLVMObject.a</title>
<polygon fill="white" stroke="transparent" points="-4,4 -4,-1089 377,-1089 377,4 -4,4"/>
<text text-anchor="middle" x="186.5" y="-7.8" font-family="Times,serif" font-size="14.00">bin/lli&#45;child&#45;target_lib/libLLVMObject.a</text>
<!-- Node0x563a2799bbe8 -->
<g id="node1" class="node">
<title>Node0x563a2799bbe8</title>
<polygon fill="none" stroke="black" points="323,-59 50,-59 50,-23 323,-23 323,-59"/>
<text text-anchor="middle" x="186.5" y="-37.3" font-family="Times,serif" font-size="14.00">{lib/libLLVMObject.a(Binary.cpp.o)}</text>
</g>
<!-- Node0x563a2799dbc8 -->
<g id="node2" class="node">
<title>Node0x563a2799dbc8</title>
<polygon fill="none" stroke="black" points="327.5,-113 45.5,-113 45.5,-77 327.5,-77 327.5,-113"/>
<text text-anchor="middle" x="186.5" y="-91.3" font-family="Times,serif" font-size="14.00">{lib/libLLVMObject.a(Archive.cpp.o)}</text>
</g>
<!-- Node0x563a2799be18 -->
<g id="node3" class="node">
<title>Node0x563a2799be18</title>
<polygon fill="none" stroke="black" points="358,-167 15,-167 15,-131 358,-131 358,-167"/>
<text text-anchor="middle" x="186.5" y="-145.3" font-family="Times,serif" font-size="14.00">{lib/libLLVMObject.a(COFFObjectFile.cpp.o)}</text>
</g>
<!-- Node0x563a2799e028 -->
<g id="node4" class="node">
<title>Node0x563a2799e028</title>
<polygon fill="none" stroke="black" points="314,-221 59,-221 59,-185 314,-185 314,-221"/>
<text text-anchor="middle" x="186.5" y="-199.3" font-family="Times,serif" font-size="14.00">{lib/libLLVMObject.a(ELF.cpp.o)}</text>
</g>
<!-- Node0x563a2799eac8 -->
<g id="node5" class="node">
<title>Node0x563a2799eac8</title>
<polygon fill="none" stroke="black" points="352,-275 21,-275 21,-239 352,-239 352,-275"/>
<text text-anchor="middle" x="186.5" y="-253.3" font-family="Times,serif" font-size="14.00">{lib/libLLVMObject.a(ELFObjectFile.cpp.o)}</text>
</g>
<!-- Node0x563a27999398 -->
<g id="node6" class="node">
<title>Node0x563a27999398</title>
<polygon fill="none" stroke="black" points="319.5,-329 53.5,-329 53.5,-293 319.5,-293 319.5,-329"/>
<text text-anchor="middle" x="186.5" y="-307.3" font-family="Times,serif" font-size="14.00">{lib/libLLVMObject.a(Error.cpp.o)}</text>
</g>
<!-- Node0x563a2799b558 -->
<g id="node7" class="node">
<title>Node0x563a2799b558</title>
<polygon fill="none" stroke="black" points="362.5,-383 10.5,-383 10.5,-347 362.5,-347 362.5,-383"/>
<text text-anchor="middle" x="186.5" y="-361.3" font-family="Times,serif" font-size="14.00">{lib/libLLVMObject.a(MachOObjectFile.cpp.o)}</text>
</g>
<!-- Node0x563a2799b788 -->
<g id="node8" class="node">
<title>Node0x563a2799b788</title>
<polygon fill="none" stroke="black" points="360,-437 13,-437 13,-401 360,-401 360,-437"/>
<text text-anchor="middle" x="186.5" y="-415.3" font-family="Times,serif" font-size="14.00">{lib/libLLVMObject.a(MachOUniversal.cpp.o)}</text>
</g>
<!-- Node0x563a2799b0a8 -->
<g id="node9" class="node">
<title>Node0x563a2799b0a8</title>
<polygon fill="none" stroke="black" points="345,-491 28,-491 28,-455 345,-455 345,-491"/>
<text text-anchor="middle" x="186.5" y="-469.3" font-family="Times,serif" font-size="14.00">{lib/libLLVMObject.a(IRObjectFile.cpp.o)}</text>
</g>
<!-- Node0x563a2799ccc8 -->
<g id="node10" class="node">
<title>Node0x563a2799ccc8</title>
<polygon fill="none" stroke="black" points="336,-545 37,-545 37,-509 336,-509 336,-545"/>
<text text-anchor="middle" x="186.5" y="-523.3" font-family="Times,serif" font-size="14.00">{lib/libLLVMObject.a(IRSymtab.cpp.o)}</text>
</g>
<!-- Node0x563a2799bd78 -->
<g id="node11" class="node">
<title>Node0x563a2799bd78</title>
<polygon fill="none" stroke="black" points="337,-599 36,-599 36,-563 337,-563 337,-599"/>
<text text-anchor="middle" x="186.5" y="-577.3" font-family="Times,serif" font-size="14.00">{lib/libLLVMObject.a(Minidump.cpp.o)}</text>
</g>
<!-- Node0x563a2799e2f8 -->
<g id="node12" class="node">
<title>Node0x563a2799e2f8</title>
<polygon fill="none" stroke="black" points="373,-653 0,-653 0,-617 373,-617 373,-653"/>
<text text-anchor="middle" x="186.5" y="-631.3" font-family="Times,serif" font-size="14.00">{lib/libLLVMObject.a(ModuleSymbolTable.cpp.o)}</text>
</g>
<!-- Node0x563a2799d678 -->
<g id="node13" class="node">
<title>Node0x563a2799d678</title>
<polygon fill="none" stroke="black" points="337.5,-707 35.5,-707 35.5,-671 337.5,-671 337.5,-707"/>
<text text-anchor="middle" x="186.5" y="-685.3" font-family="Times,serif" font-size="14.00">{lib/libLLVMObject.a(ObjectFile.cpp.o)}</text>
</g>
<!-- Node0x563a2799d1c8 -->
<g id="node14" class="node">
<title>Node0x563a2799d1c8</title>
<polygon fill="none" stroke="black" points="358.5,-761 14.5,-761 14.5,-725 358.5,-725 358.5,-761"/>
<text text-anchor="middle" x="186.5" y="-739.3" font-family="Times,serif" font-size="14.00">{lib/libLLVMObject.a(RecordStreamer.cpp.o)}</text>
</g>
<!-- Node0x563a2799ef28 -->
<g id="node15" class="node">
<title>Node0x563a2799ef28</title>
<polygon fill="none" stroke="black" points="346.5,-815 26.5,-815 26.5,-779 346.5,-779 346.5,-815"/>
<text text-anchor="middle" x="186.5" y="-793.3" font-family="Times,serif" font-size="14.00">{lib/libLLVMObject.a(SymbolicFile.cpp.o)}</text>
</g>
<!-- Node0x563a2799ae28 -->
<g id="node16" class="node">
<title>Node0x563a2799ae28</title>
<polygon fill="none" stroke="black" points="350,-869 23,-869 23,-833 350,-833 350,-869"/>
<text text-anchor="middle" x="186.5" y="-847.3" font-family="Times,serif" font-size="14.00">{lib/libLLVMObject.a(TapiUniversal.cpp.o)}</text>
</g>
<!-- Node0x563a27997cc8 -->
<g id="node17" class="node">
<title>Node0x563a27997cc8</title>
<polygon fill="none" stroke="black" points="329,-923 44,-923 44,-887 329,-887 329,-923"/>
<text text-anchor="middle" x="186.5" y="-901.3" font-family="Times,serif" font-size="14.00">{lib/libLLVMObject.a(TapiFile.cpp.o)}</text>
</g>
<!-- Node0x563a27996d28 -->
<g id="node18" class="node">
<title>Node0x563a27996d28</title>
<polygon fill="none" stroke="black" points="358.5,-977 14.5,-977 14.5,-941 358.5,-941 358.5,-977"/>
<text text-anchor="middle" x="186.5" y="-955.3" font-family="Times,serif" font-size="14.00">{lib/libLLVMObject.a(WasmObjectFile.cpp.o)}</text>
</g>
<!-- Node0x563a27998d08 -->
<g id="node19" class="node">
<title>Node0x563a27998d08</title>
<polygon fill="none" stroke="black" points="366,-1031 7,-1031 7,-995 366,-995 366,-1031"/>
<text text-anchor="middle" x="186.5" y="-1009.3" font-family="Times,serif" font-size="14.00">{lib/libLLVMObject.a(WindowsResource.cpp.o)}</text>
</g>
<!-- Node0x563a27999078 -->
<g id="node20" class="node">
<title>Node0x563a27999078</title>
<polygon fill="none" stroke="black" points="363,-1085 10,-1085 10,-1049 363,-1049 363,-1085"/>
<text text-anchor="middle" x="186.5" y="-1063.3" font-family="Times,serif" font-size="14.00">{lib/libLLVMObject.a(XCOFFObjectFile.cpp.o)}</text>
</g>
</g>
</svg>
