<?xml version="1.0" encoding="UTF-8" standalone="no"?>
<!DOCTYPE svg PUBLIC "-//W3C//DTD SVG 1.1//EN"
 "http://www.w3.org/Graphics/SVG/1.1/DTD/svg11.dtd">
<!-- Generated by graphviz version 2.43.0 (0)
 -->
<!-- Title: bin/llvm&#45;ifs_lib/libLLVMObject.a Pages: 1 -->
<svg width="1060pt" height="769pt"
 viewBox="0.00 0.00 1060.00 769.00" xmlns="http://www.w3.org/2000/svg" xmlns:xlink="http://www.w3.org/1999/xlink">
<g id="graph0" class="graph" transform="scale(1 1) rotate(0) translate(4 765)">
<title>bin/llvm&#45;ifs_lib/libLLVMObject.a</title>
<polygon fill="white" stroke="transparent" points="-4,4 -4,-765 1056,-765 1056,4 -4,4"/>
<text text-anchor="middle" x="526" y="-7.8" font-family="Times,serif" font-size="14.00">bin/llvm&#45;ifs_lib/libLLVMObject.a</text>
<!-- Node0x563f8f4f7458 -->
<g id="node1" class="node">
<title>Node0x563f8f4f7458</title>
<polygon fill="none" stroke="black" points="323,-59 50,-59 50,-23 323,-23 323,-59"/>
<text text-anchor="middle" x="186.5" y="-37.3" font-family="Times,serif" font-size="14.00">{lib/libLLVMObject.a(Binary.cpp.o)}</text>
</g>
<!-- Node0x563f8f4f5ba8 -->
<g id="node2" class="node">
<title>Node0x563f8f4f5ba8</title>
<polygon fill="none" stroke="black" points="327.5,-113 45.5,-113 45.5,-77 327.5,-77 327.5,-113"/>
<text text-anchor="middle" x="186.5" y="-91.3" font-family="Times,serif" font-size="14.00">{lib/libLLVMObject.a(Archive.cpp.o)}</text>
</g>
<!-- Node0x563f8f4f62d8 -->
<g id="node3" class="node">
<title>Node0x563f8f4f62d8</title>
<polygon fill="none" stroke="black" points="1052,-146 797,-146 797,-110 1052,-110 1052,-146"/>
<text text-anchor="middle" x="924.5" y="-124.3" font-family="Times,serif" font-size="14.00">{lib/libLLVMObject.a(ELF.cpp.o)}</text>
</g>
<!-- Node0x563f8f4f5f68 -->
<g id="node4" class="node">
<title>Node0x563f8f4f5f68</title>
<polygon fill="none" stroke="black" points="718,-383 452,-383 452,-347 718,-347 718,-383"/>
<text text-anchor="middle" x="585" y="-361.3" font-family="Times,serif" font-size="14.00">{lib/libLLVMObject.a(Error.cpp.o)}</text>
</g>
<!-- Node0x563f8f4f8038 -->
<g id="node5" class="node">
<title>Node0x563f8f4f8038</title>
<polygon fill="none" stroke="black" points="360,-437 13,-437 13,-401 360,-401 360,-437"/>
<text text-anchor="middle" x="186.5" y="-415.3" font-family="Times,serif" font-size="14.00">{lib/libLLVMObject.a(MachOUniversal.cpp.o)}</text>
</g>
<!-- Node0x563f8f4f8cb8 -->
<g id="node6" class="node">
<title>Node0x563f8f4f8cb8</title>
<polygon fill="none" stroke="black" points="761,-219 409,-219 409,-183 761,-183 761,-219"/>
<text text-anchor="middle" x="585" y="-197.3" font-family="Times,serif" font-size="14.00">{lib/libLLVMObject.a(MachOObjectFile.cpp.o)}</text>
</g>
<!-- Node0x563f8f4f8cb8&#45;&gt;Node0x563f8f4f62d8 -->
<g id="edge1" class="edge">
<title>Node0x563f8f4f8cb8&#45;&gt;Node0x563f8f4f62d8</title>
<path fill="none" stroke="black" d="M675.55,-182.95C703,-177.32 733.26,-171.01 761,-165 785.36,-159.72 811.72,-153.81 835.98,-148.28"/>
<polygon fill="black" stroke="black" points="836.91,-151.66 845.88,-146.02 835.35,-144.84 836.91,-151.66"/>
</g>
<!-- Node0x563f8f4f4078 -->
<g id="node7" class="node">
<title>Node0x563f8f4f4078</title>
<polygon fill="none" stroke="black" points="345,-275 28,-275 28,-239 345,-239 345,-275"/>
<text text-anchor="middle" x="186.5" y="-253.3" font-family="Times,serif" font-size="14.00">{lib/libLLVMObject.a(IRObjectFile.cpp.o)}</text>
</g>
<!-- Node0x563f8f4f4078&#45;&gt;Node0x563f8f4f8cb8 -->
<g id="edge2" class="edge">
<title>Node0x563f8f4f4078&#45;&gt;Node0x563f8f4f8cb8</title>
<path fill="none" stroke="black" d="M315.14,-238.97C356.95,-233.07 403.58,-226.48 446.12,-220.47"/>
<polygon fill="black" stroke="black" points="446.85,-223.91 456.26,-219.04 445.87,-216.97 446.85,-223.91"/>
</g>
<!-- Node0x563f8f4f4cf8 -->
<g id="node8" class="node">
<title>Node0x563f8f4f4cf8</title>
<polygon fill="none" stroke="black" points="336,-221 37,-221 37,-185 336,-185 336,-221"/>
<text text-anchor="middle" x="186.5" y="-199.3" font-family="Times,serif" font-size="14.00">{lib/libLLVMObject.a(IRSymtab.cpp.o)}</text>
</g>
<!-- Node0x563f8f4f4cf8&#45;&gt;Node0x563f8f4f8cb8 -->
<g id="edge3" class="edge">
<title>Node0x563f8f4f4cf8&#45;&gt;Node0x563f8f4f8cb8</title>
<path fill="none" stroke="black" d="M336.27,-202.25C356.57,-202.15 377.61,-202.04 398.46,-201.94"/>
<polygon fill="black" stroke="black" points="398.7,-205.43 408.68,-201.88 398.66,-198.43 398.7,-205.43"/>
</g>
<!-- Node0x563f8f4f5158 -->
<g id="node9" class="node">
<title>Node0x563f8f4f5158</title>
<polygon fill="none" stroke="black" points="337,-491 36,-491 36,-455 337,-455 337,-491"/>
<text text-anchor="middle" x="186.5" y="-469.3" font-family="Times,serif" font-size="14.00">{lib/libLLVMObject.a(Minidump.cpp.o)}</text>
</g>
<!-- Node0x563f8f4f52e8 -->
<g id="node10" class="node">
<title>Node0x563f8f4f52e8</title>
<polygon fill="none" stroke="black" points="373,-545 0,-545 0,-509 373,-509 373,-545"/>
<text text-anchor="middle" x="186.5" y="-523.3" font-family="Times,serif" font-size="14.00">{lib/libLLVMObject.a(ModuleSymbolTable.cpp.o)}</text>
</g>
<!-- Node0x563f8f4f6008 -->
<g id="node11" class="node">
<title>Node0x563f8f4f6008</title>
<polygon fill="none" stroke="black" points="736,-123 434,-123 434,-87 736,-87 736,-123"/>
<text text-anchor="middle" x="585" y="-101.3" font-family="Times,serif" font-size="14.00">{lib/libLLVMObject.a(ObjectFile.cpp.o)}</text>
</g>
<!-- Node0x563f8f4f6008&#45;&gt;Node0x563f8f4f62d8 -->
<g id="edge4" class="edge">
<title>Node0x563f8f4f6008&#45;&gt;Node0x563f8f4f62d8</title>
<path fill="none" stroke="black" d="M736.49,-115.26C753.16,-116.39 770.07,-117.54 786.55,-118.67"/>
<polygon fill="black" stroke="black" points="786.54,-122.17 796.76,-119.36 787.02,-115.19 786.54,-122.17"/>
</g>
<!-- Node0x563f8f4f6328 -->
<g id="node12" class="node">
<title>Node0x563f8f4f6328</title>
<polygon fill="none" stroke="black" points="750.5,-69 419.5,-69 419.5,-33 750.5,-33 750.5,-69"/>
<text text-anchor="middle" x="585" y="-47.3" font-family="Times,serif" font-size="14.00">{lib/libLLVMObject.a(ELFObjectFile.cpp.o)}</text>
</g>
<!-- Node0x563f8f4f6328&#45;&gt;Node0x563f8f4f62d8 -->
<g id="edge5" class="edge">
<title>Node0x563f8f4f6328&#45;&gt;Node0x563f8f4f62d8</title>
<path fill="none" stroke="black" d="M716.84,-69.05C731.79,-71.75 746.77,-74.73 761,-78 794.88,-85.78 831.97,-96.98 862.15,-106.81"/>
<polygon fill="black" stroke="black" points="861.1,-110.15 871.7,-109.95 863.29,-103.5 861.1,-110.15"/>
</g>
<!-- Node0x563f8f4fb7d8 -->
<g id="node13" class="node">
<title>Node0x563f8f4fb7d8</title>
<polygon fill="none" stroke="black" points="756.5,-329 413.5,-329 413.5,-293 756.5,-293 756.5,-329"/>
<text text-anchor="middle" x="585" y="-307.3" font-family="Times,serif" font-size="14.00">{lib/libLLVMObject.a(COFFObjectFile.cpp.o)}</text>
</g>
<!-- Node0x563f8f4fc958 -->
<g id="node14" class="node">
<title>Node0x563f8f4fc958</title>
<polygon fill="none" stroke="black" points="358.5,-599 14.5,-599 14.5,-563 358.5,-563 358.5,-599"/>
<text text-anchor="middle" x="186.5" y="-577.3" font-family="Times,serif" font-size="14.00">{lib/libLLVMObject.a(RecordStreamer.cpp.o)}</text>
</g>
<!-- Node0x563f8f4fd0d8 -->
<g id="node15" class="node">
<title>Node0x563f8f4fd0d8</title>
<polygon fill="none" stroke="black" points="346.5,-653 26.5,-653 26.5,-617 346.5,-617 346.5,-653"/>
<text text-anchor="middle" x="186.5" y="-631.3" font-family="Times,serif" font-size="14.00">{lib/libLLVMObject.a(SymbolicFile.cpp.o)}</text>
</g>
<!-- Node0x563f8f4f6a08 -->
<g id="node16" class="node">
<title>Node0x563f8f4f6a08</title>
<polygon fill="none" stroke="black" points="350,-329 23,-329 23,-293 350,-293 350,-329"/>
<text text-anchor="middle" x="186.5" y="-307.3" font-family="Times,serif" font-size="14.00">{lib/libLLVMObject.a(TapiUniversal.cpp.o)}</text>
</g>
<!-- Node0x563f8f4f6a08&#45;&gt;Node0x563f8f4fb7d8 -->
<g id="edge6" class="edge">
<title>Node0x563f8f4f6a08&#45;&gt;Node0x563f8f4fb7d8</title>
<path fill="none" stroke="black" d="M350.2,-311C367.62,-311 385.42,-311 403.04,-311"/>
<polygon fill="black" stroke="black" points="403.38,-314.5 413.38,-311 403.38,-307.5 403.38,-314.5"/>
</g>
<!-- Node0x563f8f4f79a8 -->
<g id="node17" class="node">
<title>Node0x563f8f4f79a8</title>
<polygon fill="none" stroke="black" points="329,-707 44,-707 44,-671 329,-671 329,-707"/>
<text text-anchor="middle" x="186.5" y="-685.3" font-family="Times,serif" font-size="14.00">{lib/libLLVMObject.a(TapiFile.cpp.o)}</text>
</g>
<!-- Node0x563f8f4f7278 -->
<g id="node18" class="node">
<title>Node0x563f8f4f7278</title>
<polygon fill="none" stroke="black" points="358.5,-761 14.5,-761 14.5,-725 358.5,-725 358.5,-761"/>
<text text-anchor="middle" x="186.5" y="-739.3" font-family="Times,serif" font-size="14.00">{lib/libLLVMObject.a(WasmObjectFile.cpp.o)}</text>
</g>
<!-- Node0x563f8f4f5608 -->
<g id="node19" class="node">
<title>Node0x563f8f4f5608</title>
<polygon fill="none" stroke="black" points="366,-383 7,-383 7,-347 366,-347 366,-383"/>
<text text-anchor="middle" x="186.5" y="-361.3" font-family="Times,serif" font-size="14.00">{lib/libLLVMObject.a(WindowsResource.cpp.o)}</text>
</g>
<!-- Node0x563f8f4f5608&#45;&gt;Node0x563f8f4f5f68 -->
<g id="edge7" class="edge">
<title>Node0x563f8f4f5608&#45;&gt;Node0x563f8f4f5f68</title>
<path fill="none" stroke="black" d="M366.03,-365C391.41,-365 417.23,-365 441.8,-365"/>
<polygon fill="black" stroke="black" points="441.88,-368.5 451.88,-365 441.88,-361.5 441.88,-368.5"/>
</g>
<!-- Node0x563f8f4f5608&#45;&gt;Node0x563f8f4fb7d8 -->
<g id="edge8" class="edge">
<title>Node0x563f8f4f5608&#45;&gt;Node0x563f8f4fb7d8</title>
<path fill="none" stroke="black" d="M319.8,-346.98C358.94,-341.65 401.94,-335.79 441.68,-330.38"/>
<polygon fill="black" stroke="black" points="442.27,-333.83 451.71,-329.02 441.33,-326.9 442.27,-333.83"/>
</g>
<!-- Node0x563f8f4f6238 -->
<g id="node20" class="node">
<title>Node0x563f8f4f6238</title>
<polygon fill="none" stroke="black" points="363,-167 10,-167 10,-131 363,-131 363,-167"/>
<text text-anchor="middle" x="186.5" y="-145.3" font-family="Times,serif" font-size="14.00">{lib/libLLVMObject.a(XCOFFObjectFile.cpp.o)}</text>
</g>
<!-- Node0x563f8f4f6238&#45;&gt;Node0x563f8f4f62d8 -->
<g id="edge9" class="edge">
<title>Node0x563f8f4f6238&#45;&gt;Node0x563f8f4f62d8</title>
<path fill="none" stroke="black" d="M363.32,-143.98C493.06,-140.28 667.1,-135.32 786.57,-131.91"/>
<polygon fill="black" stroke="black" points="786.98,-135.4 796.87,-131.61 786.78,-128.4 786.98,-135.4"/>
</g>
<!-- Node0x563f8f4f6238&#45;&gt;Node0x563f8f4f8cb8 -->
<g id="edge10" class="edge">
<title>Node0x563f8f4f6238&#45;&gt;Node0x563f8f4f8cb8</title>
<path fill="none" stroke="black" d="M324.79,-167C360.78,-171.73 399.75,-176.84 436.27,-181.63"/>
<polygon fill="black" stroke="black" points="436.13,-185.14 446.5,-182.97 437.04,-178.2 436.13,-185.14"/>
</g>
</g>
</svg>
