<?xml version="1.0" encoding="UTF-8" standalone="no"?>
<!DOCTYPE svg PUBLIC "-//W3C//DTD SVG 1.1//EN"
 "http://www.w3.org/Graphics/SVG/1.1/DTD/svg11.dtd">
<!-- Generated by graphviz version 2.43.0 (0)
 -->
<!-- Title: bin/llvm&#45;dwarfdump_lib/libLLVMBitReader.a Pages: 1 -->
<svg width="1122pt" height="122pt"
 viewBox="0.00 0.00 1122.00 122.00" xmlns="http://www.w3.org/2000/svg" xmlns:xlink="http://www.w3.org/1999/xlink">
<g id="graph0" class="graph" transform="scale(1 1) rotate(0) translate(4 118)">
<title>bin/llvm&#45;dwarfdump_lib/libLLVMBitReader.a</title>
<polygon fill="white" stroke="transparent" points="-4,4 -4,-118 1118,-118 1118,4 -4,4"/>
<text text-anchor="middle" x="557" y="-7.8" font-family="Times,serif" font-size="14.00">bin/llvm&#45;dwarfdump_lib/libLLVMBitReader.a</text>
<!-- Node0x55b7b9ddb268 -->
<g id="node1" class="node">
<title>Node0x55b7b9ddb268</title>
<polygon fill="#7fb2ff" stroke="black" points="356,-86 0,-86 0,-50 356,-50 356,-86"/>
<text text-anchor="middle" x="178" y="-64.3" font-family="Times,serif" font-size="14.00">{lib/libLLVMBitReader.a(BitcodeReader.cpp.o)}</text>
</g>
<!-- Node0x55b7b9dda5e8 -->
<g id="node2" class="node">
<title>Node0x55b7b9dda5e8</title>
<polygon fill="#7fb2ff" stroke="black" points="760,-114 392,-114 392,-78 760,-78 760,-114"/>
<text text-anchor="middle" x="576" y="-92.3" font-family="Times,serif" font-size="14.00">{lib/libLLVMBitReader.a(MetadataLoader.cpp.o)}</text>
</g>
<!-- Node0x55b7b9ddb268&#45;&gt;Node0x55b7b9dda5e8 -->
<g id="edge1" class="edge">
<title>Node0x55b7b9ddb268&#45;&gt;Node0x55b7b9dda5e8</title>
<path fill="none" stroke="#7fb2ff" d="M356.15,-73.81C372.03,-74.88 388.09,-76.02 403.92,-77.21"/>
<polygon fill="#7fb2ff" stroke="#7fb2ff" points="404.04,-80.73 414.28,-77.99 404.57,-73.75 404.04,-80.73"/>
</g>
<!-- Node0x55b7b9dde9b8 -->
<g id="node3" class="node">
<title>Node0x55b7b9dde9b8</title>
<polygon fill="#7fb2ff" stroke="black" points="1114,-59 796,-59 796,-23 1114,-23 1114,-59"/>
<text text-anchor="middle" x="955" y="-37.3" font-family="Times,serif" font-size="14.00">{lib/libLLVMBitReader.a(ValueList.cpp.o)}</text>
</g>
<!-- Node0x55b7b9ddb268&#45;&gt;Node0x55b7b9dde9b8 -->
<g id="edge2" class="edge">
<title>Node0x55b7b9ddb268&#45;&gt;Node0x55b7b9dde9b8</title>
<path fill="none" stroke="#7fb2ff" d="M356.31,-56.05C485.3,-50.22 658.84,-44.21 785.69,-41.18"/>
<polygon fill="#7fb2ff" stroke="#7fb2ff" points="785.98,-44.68 795.89,-40.94 785.81,-37.68 785.98,-44.68"/>
</g>
<!-- Node0x55b7b9dda5e8&#45;&gt;Node0x55b7b9ddb268 -->
<g id="edge3" class="edge">
<title>Node0x55b7b9dda5e8&#45;&gt;Node0x55b7b9ddb268</title>
<path fill="none" stroke="#7fb2ff" d="M391.82,-89.78C377.84,-88.82 363.76,-87.82 349.87,-86.77"/>
<polygon fill="#7fb2ff" stroke="#7fb2ff" points="350.02,-83.28 339.78,-86.01 349.49,-90.26 350.02,-83.28"/>
</g>
<!-- Node0x55b7b9dda5e8&#45;&gt;Node0x55b7b9dde9b8 -->
<g id="edge4" class="edge">
<title>Node0x55b7b9dda5e8&#45;&gt;Node0x55b7b9dde9b8</title>
<path fill="none" stroke="#7fb2ff" d="M700.44,-77.99C738.79,-72.4 781.22,-66.21 820.23,-60.52"/>
<polygon fill="#7fb2ff" stroke="#7fb2ff" points="821.21,-63.91 830.6,-59 820.2,-56.98 821.21,-63.91"/>
</g>
<!-- Node0x55b7b9dde9b8&#45;&gt;Node0x55b7b9ddb268 -->
<g id="edge5" class="edge">
<title>Node0x55b7b9dde9b8&#45;&gt;Node0x55b7b9ddb268</title>
<path fill="none" stroke="#7fb2ff" d="M795.89,-52.07C671.52,-57.87 497.88,-64.03 366.5,-67.35"/>
<polygon fill="#7fb2ff" stroke="#7fb2ff" points="366.22,-63.85 356.31,-67.6 366.4,-70.85 366.22,-63.85"/>
</g>
</g>
</svg>
