<?xml version="1.0" encoding="UTF-8" standalone="no"?>
<!DOCTYPE svg PUBLIC "-//W3C//DTD SVG 1.1//EN"
 "http://www.w3.org/Graphics/SVG/1.1/DTD/svg11.dtd">
<!-- Generated by graphviz version 2.43.0 (0)
 -->
<!-- Title: bin/llvm&#45;mca_lib/libLLVMMC.a Pages: 1 -->
<svg width="2685pt" height="2014pt"
 viewBox="0.00 0.00 2685.00 2014.28" xmlns="http://www.w3.org/2000/svg" xmlns:xlink="http://www.w3.org/1999/xlink">
<g id="graph0" class="graph" transform="scale(1 1) rotate(0) translate(4 2010.28)">
<title>bin/llvm&#45;mca_lib/libLLVMMC.a</title>
<polygon fill="white" stroke="transparent" points="-4,4 -4,-2010.28 2681,-2010.28 2681,4 -4,4"/>
<text text-anchor="middle" x="1338.5" y="-7.8" font-family="Times,serif" font-size="14.00">bin/llvm&#45;mca_lib/libLLVMMC.a</text>
<!-- Node0x55b6578ecd18 -->
<g id="node1" class="node">
<title>Node0x55b6578ecd18</title>
<polygon fill="#7fb2ff" stroke="black" points="1199.5,-1370.28 912.5,-1370.28 912.5,-1334.28 1199.5,-1334.28 1199.5,-1370.28"/>
<text text-anchor="middle" x="1056" y="-1348.58" font-family="Times,serif" font-size="14.00">{lib/libLLVMMC.a(MCContext.cpp.o)}</text>
</g>
<!-- Node0x55b6578eea28 -->
<g id="node2" class="node">
<title>Node0x55b6578eea28</title>
<polygon fill="#7fb2ff" stroke="black" points="1575,-1416.28 1291,-1416.28 1291,-1380.28 1575,-1380.28 1575,-1416.28"/>
<text text-anchor="middle" x="1433" y="-1394.58" font-family="Times,serif" font-size="14.00">{lib/libLLVMMC.a(MCSection.cpp.o)}</text>
</g>
<!-- Node0x55b6578ecd18&#45;&gt;Node0x55b6578eea28 -->
<g id="edge1" class="edge">
<title>Node0x55b6578ecd18&#45;&gt;Node0x55b6578eea28</title>
<path fill="none" stroke="#7fb2ff" d="M1199.57,-1363.2C1240.83,-1367.93 1285.16,-1373.5 1323.94,-1378.85"/>
<polygon fill="#7fb2ff" stroke="#7fb2ff" points="1323.8,-1382.36 1334.19,-1380.28 1324.77,-1375.43 1323.8,-1382.36"/>
</g>
<!-- Node0x55b6578eda38 -->
<g id="node3" class="node">
<title>Node0x55b6578eda38</title>
<polygon fill="#7fb2ff" stroke="black" points="1600,-1670.28 1266,-1670.28 1266,-1634.28 1600,-1634.28 1600,-1670.28"/>
<text text-anchor="middle" x="1433" y="-1648.58" font-family="Times,serif" font-size="14.00">{lib/libLLVMMC.a(MCSectionMachO.cpp.o)}</text>
</g>
<!-- Node0x55b6578ecd18&#45;&gt;Node0x55b6578eda38 -->
<g id="edge2" class="edge">
<title>Node0x55b6578ecd18&#45;&gt;Node0x55b6578eda38</title>
<path fill="none" stroke="#7fb2ff" d="M1159.83,-1370.38C1186.14,-1379.71 1212.03,-1393.85 1230,-1415.28 1289.43,-1486.17 1201.13,-1554.33 1266,-1620.28 1268.87,-1623.2 1271.92,-1625.9 1275.12,-1628.38"/>
<polygon fill="#7fb2ff" stroke="#7fb2ff" points="1273.17,-1631.29 1283.38,-1634.15 1277.18,-1625.56 1273.17,-1631.29"/>
</g>
<!-- Node0x55b6578ebc88 -->
<g id="node4" class="node">
<title>Node0x55b6578ebc88</title>
<polygon fill="#7fb2ff" stroke="black" points="1599.5,-1524.28 1266.5,-1524.28 1266.5,-1488.28 1599.5,-1488.28 1599.5,-1524.28"/>
<text text-anchor="middle" x="1433" y="-1502.58" font-family="Times,serif" font-size="14.00">{lib/libLLVMMC.a(MCSectionXCOFF.cpp.o)}</text>
</g>
<!-- Node0x55b6578ecd18&#45;&gt;Node0x55b6578ebc88 -->
<g id="edge3" class="edge">
<title>Node0x55b6578ecd18&#45;&gt;Node0x55b6578ebc88</title>
<path fill="none" stroke="#7fb2ff" d="M1142.51,-1370.34C1172.63,-1379.9 1205.14,-1394.18 1230,-1415.28 1254.88,-1436.4 1239.25,-1460.59 1266,-1479.28 1267.94,-1480.64 1269.93,-1481.94 1271.96,-1483.19"/>
<polygon fill="#7fb2ff" stroke="#7fb2ff" points="1270.65,-1486.46 1281.09,-1488.28 1274.06,-1480.35 1270.65,-1486.46"/>
</g>
<!-- Node0x55b6578eb008 -->
<g id="node5" class="node">
<title>Node0x55b6578eb008</title>
<polygon fill="#7fb2ff" stroke="black" points="1575,-1124.28 1291,-1124.28 1291,-1088.28 1575,-1088.28 1575,-1124.28"/>
<text text-anchor="middle" x="1433" y="-1102.58" font-family="Times,serif" font-size="14.00">{lib/libLLVMMC.a(MCSymbol.cpp.o)}</text>
</g>
<!-- Node0x55b6578ecd18&#45;&gt;Node0x55b6578eb008 -->
<g id="edge4" class="edge">
<title>Node0x55b6578ecd18&#45;&gt;Node0x55b6578eb008</title>
<path fill="none" stroke="#7fb2ff" d="M1153.15,-1334.28C1181.38,-1324.64 1210.02,-1309.87 1230,-1287.28 1275.14,-1236.26 1216.72,-1185.32 1266,-1138.28 1270.81,-1133.7 1276.06,-1129.67 1281.65,-1126.14"/>
<polygon fill="#7fb2ff" stroke="#7fb2ff" points="1283.73,-1128.99 1290.68,-1121 1280.26,-1122.9 1283.73,-1128.99"/>
</g>
<!-- Node0x55b6578ee988 -->
<g id="node6" class="node">
<title>Node0x55b6578ee988</title>
<polygon fill="#7fb2ff" stroke="black" points="1583,-1324.28 1283,-1324.28 1283,-1288.28 1583,-1288.28 1583,-1324.28"/>
<text text-anchor="middle" x="1433" y="-1302.58" font-family="Times,serif" font-size="14.00">{lib/libLLVMMC.a(MCCodeView.cpp.o)}</text>
</g>
<!-- Node0x55b6578ecd18&#45;&gt;Node0x55b6578ee988 -->
<g id="edge5" class="edge">
<title>Node0x55b6578ecd18&#45;&gt;Node0x55b6578ee988</title>
<path fill="none" stroke="#7fb2ff" d="M1155.04,-1334.24C1191.05,-1329.19 1232.81,-1323.84 1272.81,-1319.13"/>
<polygon fill="#7fb2ff" stroke="#7fb2ff" points="1273.41,-1322.58 1282.94,-1317.95 1272.6,-1315.63 1273.41,-1322.58"/>
</g>
<!-- Node0x55b6578ed448 -->
<g id="node7" class="node">
<title>Node0x55b6578ed448</title>
<polygon fill="#7fb2ff" stroke="black" points="1570,-1578.28 1296,-1578.28 1296,-1542.28 1570,-1542.28 1570,-1578.28"/>
<text text-anchor="middle" x="1433" y="-1556.58" font-family="Times,serif" font-size="14.00">{lib/libLLVMMC.a(MCDwarf.cpp.o)}</text>
</g>
<!-- Node0x55b6578ecd18&#45;&gt;Node0x55b6578ed448 -->
<g id="edge6" class="edge">
<title>Node0x55b6578ecd18&#45;&gt;Node0x55b6578ed448</title>
<path fill="none" stroke="#7fb2ff" d="M1176.56,-1370.35C1196.39,-1379.02 1215.26,-1390.74 1230,-1406.28 1267.73,-1446.07 1224.7,-1488.21 1266,-1524.28 1272.18,-1529.69 1279.01,-1534.23 1286.27,-1538.04"/>
<polygon fill="#7fb2ff" stroke="#7fb2ff" points="1285.14,-1541.38 1295.68,-1542.5 1288.14,-1535.05 1285.14,-1541.38"/>
</g>
<!-- Node0x55b6578ee1b8 -->
<g id="node8" class="node">
<title>Node0x55b6578ee1b8</title>
<polygon fill="#7fb2ff" stroke="black" points="1565,-1216.28 1301,-1216.28 1301,-1180.28 1565,-1180.28 1565,-1216.28"/>
<text text-anchor="middle" x="1433" y="-1194.58" font-family="Times,serif" font-size="14.00">{lib/libLLVMMC.a(MCExpr.cpp.o)}</text>
</g>
<!-- Node0x55b6578ecd18&#45;&gt;Node0x55b6578ee1b8 -->
<g id="edge7" class="edge">
<title>Node0x55b6578ecd18&#45;&gt;Node0x55b6578ee1b8</title>
<path fill="none" stroke="#7fb2ff" d="M1111.84,-1334.22C1148.56,-1323.53 1196.19,-1306.88 1230,-1278.28 1254.33,-1257.71 1239.76,-1234.35 1266,-1216.28 1273.85,-1210.88 1282.4,-1206.41 1291.35,-1202.75"/>
<polygon fill="#7fb2ff" stroke="#7fb2ff" points="1292.65,-1206 1300.8,-1199.22 1290.2,-1199.44 1292.65,-1206"/>
</g>
<!-- Node0x55b6578ee938 -->
<g id="node9" class="node">
<title>Node0x55b6578ee938</title>
<polygon fill="#7fb2ff" stroke="black" points="1584,-1070.28 1282,-1070.28 1282,-1034.28 1584,-1034.28 1584,-1070.28"/>
<text text-anchor="middle" x="1433" y="-1048.58" font-family="Times,serif" font-size="14.00">{lib/libLLVMMC.a(MCFragment.cpp.o)}</text>
</g>
<!-- Node0x55b6578ecd18&#45;&gt;Node0x55b6578ee938 -->
<g id="edge8" class="edge">
<title>Node0x55b6578ecd18&#45;&gt;Node0x55b6578ee938</title>
<path fill="none" stroke="#7fb2ff" d="M1129.06,-1334.26C1164.58,-1324.61 1205.04,-1308.44 1230,-1278.28 1289.82,-1206.01 1199.32,-1136.29 1266,-1070.28 1268.24,-1068.07 1270.58,-1065.99 1273.02,-1064.05"/>
<polygon fill="#7fb2ff" stroke="#7fb2ff" points="1275.51,-1066.57 1281.64,-1057.93 1271.46,-1060.86 1275.51,-1066.57"/>
</g>
<!-- Node0x55b6578ece08 -->
<g id="node10" class="node">
<title>Node0x55b6578ece08</title>
<polygon fill="#7fb2ff" stroke="black" points="1595,-1762.28 1271,-1762.28 1271,-1726.28 1595,-1726.28 1595,-1762.28"/>
<text text-anchor="middle" x="1433" y="-1740.58" font-family="Times,serif" font-size="14.00">{lib/libLLVMMC.a(MCPseudoProbe.cpp.o)}</text>
</g>
<!-- Node0x55b6578ecd18&#45;&gt;Node0x55b6578ece08 -->
<g id="edge9" class="edge">
<title>Node0x55b6578ecd18&#45;&gt;Node0x55b6578ece08</title>
<path fill="none" stroke="#7fb2ff" d="M1063.77,-1370.29C1085.06,-1424.64 1155.88,-1588.84 1266,-1679.28 1289.74,-1698.79 1320.04,-1712.94 1348.23,-1722.96"/>
<polygon fill="#7fb2ff" stroke="#7fb2ff" points="1347.1,-1726.27 1357.7,-1726.2 1349.37,-1719.65 1347.1,-1726.27"/>
</g>
<!-- Node0x55b6578ec278 -->
<g id="node11" class="node">
<title>Node0x55b6578ec278</title>
<polygon fill="#7fb2ff" stroke="black" points="1588.5,-1270.28 1277.5,-1270.28 1277.5,-1234.28 1588.5,-1234.28 1588.5,-1270.28"/>
<text text-anchor="middle" x="1433" y="-1248.58" font-family="Times,serif" font-size="14.00">{lib/libLLVMMC.a(MCSymbolELF.cpp.o)}</text>
</g>
<!-- Node0x55b6578ecd18&#45;&gt;Node0x55b6578ec278 -->
<g id="edge10" class="edge">
<title>Node0x55b6578ecd18&#45;&gt;Node0x55b6578ec278</title>
<path fill="none" stroke="#7fb2ff" d="M1199.07,-1334.19C1209.86,-1330.38 1220.31,-1325.79 1230,-1320.28 1251.09,-1308.31 1244.79,-1291.03 1266,-1279.28 1269.1,-1277.57 1272.27,-1275.96 1275.51,-1274.44"/>
<polygon fill="#7fb2ff" stroke="#7fb2ff" points="1277.01,-1277.61 1284.79,-1270.42 1274.23,-1271.18 1277.01,-1277.61"/>
</g>
<!-- Node0x55b6578ebaf8 -->
<g id="node12" class="node">
<title>Node0x55b6578ebaf8</title>
<polygon fill="none" stroke="black" points="1599.5,-1470.28 1266.5,-1470.28 1266.5,-1434.28 1599.5,-1434.28 1599.5,-1470.28"/>
<text text-anchor="middle" x="1433" y="-1448.58" font-family="Times,serif" font-size="14.00">{lib/libLLVMMC.a(MCSymbolXCOFF.cpp.o)}</text>
</g>
<!-- Node0x55b6578ecd18&#45;&gt;Node0x55b6578ebaf8 -->
<g id="edge11" class="edge">
<title>Node0x55b6578ecd18&#45;&gt;Node0x55b6578ebaf8</title>
<path fill="none" stroke="black" d="M1105.8,-1370.44C1157.33,-1389.41 1235.27,-1417.48 1266,-1425.28 1275.87,-1427.79 1286.12,-1430.11 1296.48,-1432.26"/>
<polygon fill="black" stroke="black" points="1295.94,-1435.72 1306.43,-1434.26 1297.32,-1428.86 1295.94,-1435.72"/>
</g>
<!-- Node0x55b6578eea28&#45;&gt;Node0x55b6578ecd18 -->
<g id="edge101" class="edge">
<title>Node0x55b6578eea28&#45;&gt;Node0x55b6578ecd18</title>
<path fill="none" stroke="#7fb2ff" d="M1290.79,-1387.53C1249.26,-1382.77 1204.51,-1377.16 1165.38,-1371.76"/>
<polygon fill="#7fb2ff" stroke="#7fb2ff" points="1165.42,-1368.24 1155.04,-1370.32 1164.46,-1375.17 1165.42,-1368.24"/>
</g>
<!-- Node0x55b6578eea28&#45;&gt;Node0x55b6578eb008 -->
<g id="edge100" class="edge">
<title>Node0x55b6578eea28&#45;&gt;Node0x55b6578eb008</title>
<path fill="none" stroke="#7fb2ff" d="M1290.63,-1391.96C1273.27,-1384.68 1258.12,-1373.65 1248,-1357.28 1227.32,-1323.82 1227.32,-1213.74 1248,-1180.28 1263.29,-1155.54 1288.5,-1139.07 1315.45,-1128.1"/>
<polygon fill="#7fb2ff" stroke="#7fb2ff" points="1316.95,-1131.28 1325.05,-1124.45 1314.46,-1124.74 1316.95,-1131.28"/>
</g>
<!-- Node0x55b6578eea28&#45;&gt;Node0x55b6578ee1b8 -->
<g id="edge102" class="edge">
<title>Node0x55b6578eea28&#45;&gt;Node0x55b6578ee1b8</title>
<path fill="none" stroke="#7fb2ff" d="M1290.63,-1391.96C1273.27,-1384.68 1258.12,-1373.65 1248,-1357.28 1233.63,-1334.03 1233.63,-1257.53 1248,-1234.28 1258.09,-1217.96 1273.26,-1207.23 1290.66,-1200.38"/>
<polygon fill="#7fb2ff" stroke="#7fb2ff" points="1292.23,-1203.54 1300.54,-1196.96 1289.94,-1196.92 1292.23,-1203.54"/>
</g>
<!-- Node0x55b6578eea28&#45;&gt;Node0x55b6578ee938 -->
<g id="edge103" class="edge">
<title>Node0x55b6578eea28&#45;&gt;Node0x55b6578ee938</title>
<path fill="none" stroke="#7fb2ff" d="M1290.63,-1391.96C1273.27,-1384.68 1258.12,-1373.65 1248,-1357.28 1232.29,-1331.86 1232.29,-1113.71 1248,-1088.28 1254.45,-1077.84 1262.99,-1069.69 1272.85,-1063.38"/>
<polygon fill="#7fb2ff" stroke="#7fb2ff" points="1274.87,-1066.26 1281.85,-1058.29 1271.42,-1060.17 1274.87,-1066.26"/>
</g>
<!-- Node0x55b6578eda38&#45;&gt;Node0x55b6578eea28 -->
<g id="edge104" class="edge">
<title>Node0x55b6578eda38&#45;&gt;Node0x55b6578eea28</title>
<path fill="none" stroke="#7fb2ff" d="M1269.42,-1634.17C1261.02,-1628.05 1253.71,-1620.52 1248,-1611.28 1227.32,-1577.82 1227.32,-1467.74 1248,-1434.28 1256.33,-1420.81 1268.12,-1411.15 1281.76,-1404.33"/>
<polygon fill="#7fb2ff" stroke="#7fb2ff" points="1283.25,-1407.5 1290.98,-1400.25 1280.42,-1401.1 1283.25,-1407.5"/>
</g>
<!-- Node0x55b6578ebc88&#45;&gt;Node0x55b6578eea28 -->
<g id="edge105" class="edge">
<title>Node0x55b6578ebc88&#45;&gt;Node0x55b6578eea28</title>
<path fill="none" stroke="#7fb2ff" d="M1298.61,-1488.24C1287.48,-1485.63 1276.48,-1482.66 1266,-1479.28 1257.49,-1476.54 1252.7,-1477.89 1248,-1470.28 1239.59,-1456.67 1239.59,-1447.89 1248,-1434.28 1256.33,-1420.81 1268.12,-1411.15 1281.76,-1404.33"/>
<polygon fill="#7fb2ff" stroke="#7fb2ff" points="1283.25,-1407.5 1290.98,-1400.25 1280.42,-1401.1 1283.25,-1407.5"/>
</g>
<!-- Node0x55b6578eb008&#45;&gt;Node0x55b6578ee938 -->
<g id="edge54" class="edge">
<title>Node0x55b6578eb008&#45;&gt;Node0x55b6578ee938</title>
<path fill="none" stroke="#7fb2ff" d="M1433,-1088.07C1433,-1085.59 1433,-1083.11 1433,-1080.63"/>
<polygon fill="#7fb2ff" stroke="#7fb2ff" points="1436.5,-1080.42 1433,-1070.42 1429.5,-1080.42 1436.5,-1080.42"/>
</g>
<!-- Node0x55b6578ee988&#45;&gt;Node0x55b6578ecd18 -->
<g id="edge81" class="edge">
<title>Node0x55b6578ee988&#45;&gt;Node0x55b6578ecd18</title>
<path fill="none" stroke="#7fb2ff" d="M1334.19,-1324.29C1296.16,-1329.64 1251.68,-1335.3 1209.64,-1340.21"/>
<polygon fill="#7fb2ff" stroke="#7fb2ff" points="1209.11,-1336.74 1199.57,-1341.37 1209.91,-1343.7 1209.11,-1336.74"/>
</g>
<!-- Node0x55b6578ee988&#45;&gt;Node0x55b6578ee1b8 -->
<g id="edge82" class="edge">
<title>Node0x55b6578ee988&#45;&gt;Node0x55b6578ee1b8</title>
<path fill="none" stroke="#7fb2ff" d="M1298.61,-1288.24C1287.48,-1285.63 1276.48,-1282.66 1266,-1279.28 1257.49,-1276.54 1252.7,-1277.89 1248,-1270.28 1239.59,-1256.67 1239.59,-1247.89 1248,-1234.28 1258.09,-1217.96 1273.26,-1207.23 1290.66,-1200.38"/>
<polygon fill="#7fb2ff" stroke="#7fb2ff" points="1292.23,-1203.54 1300.54,-1196.96 1289.94,-1196.92 1292.23,-1203.54"/>
</g>
<!-- Node0x55b6578ee988&#45;&gt;Node0x55b6578ee938 -->
<g id="edge83" class="edge">
<title>Node0x55b6578ee988&#45;&gt;Node0x55b6578ee938</title>
<path fill="none" stroke="#7fb2ff" d="M1282.7,-1300.7C1268.65,-1293.86 1256.52,-1284.06 1248,-1270.28 1226.74,-1235.88 1226.74,-1122.69 1248,-1088.28 1254.45,-1077.84 1262.99,-1069.69 1272.85,-1063.38"/>
<polygon fill="#7fb2ff" stroke="#7fb2ff" points="1274.87,-1066.26 1281.85,-1058.29 1271.42,-1060.17 1274.87,-1066.26"/>
</g>
<!-- Node0x55b6578ec908 -->
<g id="node16" class="node">
<title>Node0x55b6578ec908</title>
<polygon fill="#7fb2ff" stroke="black" points="2317,-1546.28 2020,-1546.28 2020,-1510.28 2317,-1510.28 2317,-1546.28"/>
<text text-anchor="middle" x="2168.5" y="-1524.58" font-family="Times,serif" font-size="14.00">{lib/libLLVMMC.a(MCStreamer.cpp.o)}</text>
</g>
<!-- Node0x55b6578ee988&#45;&gt;Node0x55b6578ec908 -->
<g id="edge80" class="edge">
<title>Node0x55b6578ee988&#45;&gt;Node0x55b6578ec908</title>
<path fill="none" stroke="#7fb2ff" d="M1583.29,-1315.25C1695.28,-1329.28 1850.86,-1358.05 1980,-1408.28 2042.08,-1432.43 2107.46,-1475.87 2142.24,-1503.57"/>
<polygon fill="#7fb2ff" stroke="#7fb2ff" points="2140.44,-1506.63 2150.4,-1510.25 2144.88,-1501.21 2140.44,-1506.63"/>
</g>
<!-- Node0x55b6578ebf08 -->
<g id="node27" class="node">
<title>Node0x55b6578ebf08</title>
<polygon fill="#7fb2ff" stroke="black" points="1980,-1462.28 1636,-1462.28 1636,-1426.28 1980,-1426.28 1980,-1462.28"/>
<text text-anchor="middle" x="1808" y="-1440.58" font-family="Times,serif" font-size="14.00">{lib/libLLVMMC.a(MCObjectStreamer.cpp.o)}</text>
</g>
<!-- Node0x55b6578ee988&#45;&gt;Node0x55b6578ebf08 -->
<g id="edge84" class="edge">
<title>Node0x55b6578ee988&#45;&gt;Node0x55b6578ebf08</title>
<path fill="none" stroke="#7fb2ff" d="M1583.3,-1318.56C1589.16,-1321.71 1594.76,-1325.27 1600,-1329.28 1629.02,-1351.54 1606.92,-1381.11 1636,-1403.28 1646.92,-1411.61 1659.35,-1417.99 1672.42,-1422.9"/>
<polygon fill="#7fb2ff" stroke="#7fb2ff" points="1671.44,-1426.26 1682.03,-1426.22 1673.73,-1419.65 1671.44,-1426.26"/>
</g>
<!-- Node0x55b6578ed448&#45;&gt;Node0x55b6578ecd18 -->
<g id="edge96" class="edge">
<title>Node0x55b6578ed448&#45;&gt;Node0x55b6578ecd18</title>
<path fill="none" stroke="#7fb2ff" d="M1295.68,-1560.43C1284.9,-1555.91 1274.8,-1549.97 1266,-1542.28 1224.7,-1506.21 1267.73,-1464.07 1230,-1424.28 1205.18,-1398.11 1168.62,-1382.77 1135.49,-1373.02"/>
<polygon fill="#7fb2ff" stroke="#7fb2ff" points="1136.37,-1369.64 1125.8,-1370.3 1134.48,-1376.37 1136.37,-1369.64"/>
</g>
<!-- Node0x55b6578ed448&#45;&gt;Node0x55b6578eea28 -->
<g id="edge94" class="edge">
<title>Node0x55b6578ed448&#45;&gt;Node0x55b6578eea28</title>
<path fill="none" stroke="#7fb2ff" d="M1295.94,-1560.13C1276.34,-1553.43 1259.1,-1542.24 1248,-1524.28 1226.97,-1490.26 1226.97,-1468.31 1248,-1434.28 1256.33,-1420.81 1268.12,-1411.15 1281.76,-1404.33"/>
<polygon fill="#7fb2ff" stroke="#7fb2ff" points="1283.25,-1407.5 1290.98,-1400.25 1280.42,-1401.1 1283.25,-1407.5"/>
</g>
<!-- Node0x55b6578ed448&#45;&gt;Node0x55b6578ee1b8 -->
<g id="edge97" class="edge">
<title>Node0x55b6578ed448&#45;&gt;Node0x55b6578ee1b8</title>
<path fill="none" stroke="#7fb2ff" d="M1295.94,-1560.13C1276.34,-1553.43 1259.1,-1542.24 1248,-1524.28 1231.06,-1496.87 1231.06,-1261.69 1248,-1234.28 1258.09,-1217.96 1273.26,-1207.23 1290.66,-1200.38"/>
<polygon fill="#7fb2ff" stroke="#7fb2ff" points="1292.23,-1203.54 1300.54,-1196.96 1289.94,-1196.92 1292.23,-1203.54"/>
</g>
<!-- Node0x55b6578ed448&#45;&gt;Node0x55b6578ec908 -->
<g id="edge95" class="edge">
<title>Node0x55b6578ed448&#45;&gt;Node0x55b6578ec908</title>
<path fill="none" stroke="#7fb2ff" d="M1570.1,-1557.37C1680.6,-1554.62 1840.43,-1549.79 1980,-1542.28 1989.72,-1541.76 1999.71,-1541.17 2009.79,-1540.53"/>
<polygon fill="#7fb2ff" stroke="#7fb2ff" points="2010.14,-1544.02 2019.89,-1539.88 2009.69,-1537.03 2010.14,-1544.02"/>
</g>
<!-- Node0x55b6578eb468 -->
<g id="node17" class="node">
<title>Node0x55b6578eb468</title>
<polygon fill="none" stroke="black" points="2677,-1584.28 2357,-1584.28 2357,-1548.28 2677,-1548.28 2677,-1584.28"/>
<text text-anchor="middle" x="2517" y="-1562.58" font-family="Times,serif" font-size="14.00">{lib/libLLVMMC.a(MCRegisterInfo.cpp.o)}</text>
</g>
<!-- Node0x55b6578ed448&#45;&gt;Node0x55b6578eb468 -->
<g id="edge93" class="edge">
<title>Node0x55b6578ed448&#45;&gt;Node0x55b6578eb468</title>
<path fill="none" stroke="black" d="M1570.09,-1561.73C1592.13,-1561.94 1614.69,-1562.13 1636,-1562.28 1883.09,-1564.07 2169.22,-1565.19 2346.43,-1565.78"/>
<polygon fill="black" stroke="black" points="2346.61,-1569.28 2356.62,-1565.82 2346.64,-1562.28 2346.61,-1569.28"/>
</g>
<!-- Node0x55b6578ed448&#45;&gt;Node0x55b6578ebf08 -->
<g id="edge98" class="edge">
<title>Node0x55b6578ed448&#45;&gt;Node0x55b6578ebf08</title>
<path fill="none" stroke="#7fb2ff" d="M1561.1,-1542.28C1574.89,-1537.92 1588.19,-1532.1 1600,-1524.28 1622.65,-1509.3 1613.45,-1488.48 1635.7,-1468.58"/>
<polygon fill="#7fb2ff" stroke="#7fb2ff" points="1637.89,-1471.31 1643.69,-1462.44 1633.62,-1465.76 1637.89,-1471.31"/>
</g>
<!-- Node0x55b6578ea1f8 -->
<g id="node34" class="node">
<title>Node0x55b6578ea1f8</title>
<polygon fill="none" stroke="black" points="1978.5,-324.28 1637.5,-324.28 1637.5,-288.28 1978.5,-288.28 1978.5,-324.28"/>
<text text-anchor="middle" x="1808" y="-302.58" font-family="Times,serif" font-size="14.00">{lib/libLLVMMC.a(StringTableBuilder.cpp.o)}</text>
</g>
<!-- Node0x55b6578ed448&#45;&gt;Node0x55b6578ea1f8 -->
<g id="edge99" class="edge">
<title>Node0x55b6578ed448&#45;&gt;Node0x55b6578ea1f8</title>
<path fill="none" stroke="black" d="M1570.27,-1553.79C1581.35,-1548.81 1591.52,-1542.14 1600,-1533.28 1646.76,-1484.49 1625.85,-1298.1 1636,-1231.28 1690.04,-875.44 1777.77,-446.73 1801.13,-334.34"/>
<polygon fill="black" stroke="black" points="1804.58,-334.97 1803.19,-324.47 1797.72,-333.54 1804.58,-334.97"/>
</g>
<!-- Node0x55b6578ee1b8&#45;&gt;Node0x55b6578ecd18 -->
<g id="edge25" class="edge">
<title>Node0x55b6578ee1b8&#45;&gt;Node0x55b6578ecd18</title>
<path fill="none" stroke="#7fb2ff" d="M1302.91,-1216.41C1289.78,-1220.79 1277.18,-1226.58 1266,-1234.28 1239.76,-1252.35 1254.33,-1275.71 1230,-1296.28 1213.22,-1310.48 1193.03,-1321.73 1172.46,-1330.43"/>
<polygon fill="#7fb2ff" stroke="#7fb2ff" points="1170.96,-1327.26 1162.99,-1334.24 1173.57,-1333.75 1170.96,-1327.26"/>
</g>
<!-- Node0x55b6578ee1b8&#45;&gt;Node0x55b6578eb008 -->
<g id="edge23" class="edge">
<title>Node0x55b6578ee1b8&#45;&gt;Node0x55b6578eb008</title>
<path fill="none" stroke="#7fb2ff" d="M1433,-1180.15C1433,-1165.11 1433,-1150.07 1433,-1135.03"/>
<polygon fill="#7fb2ff" stroke="#7fb2ff" points="1436.5,-1134.61 1433,-1124.61 1429.5,-1134.61 1436.5,-1134.61"/>
</g>
<!-- Node0x55b6578ee1b8&#45;&gt;Node0x55b6578ee938 -->
<g id="edge26" class="edge">
<title>Node0x55b6578ee1b8&#45;&gt;Node0x55b6578ee938</title>
<path fill="none" stroke="#7fb2ff" d="M1300.89,-1195.72C1281.74,-1188.95 1264.86,-1177.85 1254,-1160.28 1245.24,-1146.11 1245.24,-1099.46 1254,-1085.28 1259.19,-1076.89 1265.77,-1070.06 1273.33,-1064.53"/>
<polygon fill="#7fb2ff" stroke="#7fb2ff" points="1275.37,-1067.37 1281.89,-1059.02 1271.59,-1061.48 1275.37,-1067.37"/>
</g>
<!-- Node0x55b6578ee2f8 -->
<g id="node21" class="node">
<title>Node0x55b6578ee2f8</title>
<polygon fill="#7fb2ff" stroke="black" points="2321,-1183.28 2016,-1183.28 2016,-1147.28 2321,-1147.28 2321,-1183.28"/>
<text text-anchor="middle" x="2168.5" y="-1161.58" font-family="Times,serif" font-size="14.00">{lib/libLLVMMC.a(MCAssembler.cpp.o)}</text>
</g>
<!-- Node0x55b6578ee1b8&#45;&gt;Node0x55b6578ee2f8 -->
<g id="edge24" class="edge">
<title>Node0x55b6578ee1b8&#45;&gt;Node0x55b6578ee2f8</title>
<path fill="none" stroke="#7fb2ff" d="M1565.14,-1187.07C1688.43,-1179.75 1873.33,-1171.3 2005.73,-1166.85"/>
<polygon fill="#7fb2ff" stroke="#7fb2ff" points="2006.09,-1170.34 2015.97,-1166.51 2005.86,-1163.35 2006.09,-1170.34"/>
</g>
<!-- Node0x55b6578ec688 -->
<g id="node22" class="node">
<title>Node0x55b6578ec688</title>
<polygon fill="#7fb2ff" stroke="black" points="1969,-1276.28 1647,-1276.28 1647,-1240.28 1969,-1240.28 1969,-1276.28"/>
<text text-anchor="middle" x="1808" y="-1254.58" font-family="Times,serif" font-size="14.00">{lib/libLLVMMC.a(MCObjectWriter.cpp.o)}</text>
</g>
<!-- Node0x55b6578ee1b8&#45;&gt;Node0x55b6578ec688 -->
<g id="edge27" class="edge">
<title>Node0x55b6578ee1b8&#45;&gt;Node0x55b6578ec688</title>
<path fill="none" stroke="#7fb2ff" d="M1565.24,-1212.92C1616.46,-1220.64 1673.79,-1230.08 1719.76,-1238.44"/>
<polygon fill="#7fb2ff" stroke="#7fb2ff" points="1719.22,-1241.89 1729.69,-1240.26 1720.49,-1235.01 1719.22,-1241.89"/>
</g>
<!-- Node0x55b6578ee938&#45;&gt;Node0x55b6578ecd18 -->
<g id="edge37" class="edge">
<title>Node0x55b6578ee938&#45;&gt;Node0x55b6578ecd18</title>
<path fill="none" stroke="#7fb2ff" d="M1291.48,-1070.42C1282.12,-1075.04 1273.47,-1080.89 1266,-1088.28 1199.32,-1154.29 1289.82,-1224.01 1230,-1296.28 1218.44,-1310.26 1203.54,-1321.23 1187.35,-1329.75"/>
<polygon fill="#7fb2ff" stroke="#7fb2ff" points="1185.67,-1326.67 1178.24,-1334.23 1188.76,-1332.95 1185.67,-1326.67"/>
</g>
<!-- Node0x55b6578ee938&#45;&gt;Node0x55b6578ee1b8 -->
<g id="edge38" class="edge">
<title>Node0x55b6578ee938&#45;&gt;Node0x55b6578ee1b8</title>
<path fill="none" stroke="#7fb2ff" d="M1281.86,-1057.77C1265.66,-1065.01 1251.61,-1075.74 1242,-1091.28 1227.28,-1115.1 1227.28,-1130.47 1242,-1154.28 1253.43,-1172.78 1271.05,-1184.78 1291.05,-1192.38"/>
<polygon fill="#7fb2ff" stroke="#7fb2ff" points="1290.13,-1195.76 1300.72,-1195.67 1292.38,-1189.13 1290.13,-1195.76"/>
</g>
<!-- Node0x55b6578ee938&#45;&gt;Node0x55b6578ee2f8 -->
<g id="edge36" class="edge">
<title>Node0x55b6578ee938&#45;&gt;Node0x55b6578ee2f8</title>
<path fill="none" stroke="#7fb2ff" d="M1584.05,-1039.68C1694.9,-1037.68 1848.7,-1044.1 1980,-1075.28 2038.2,-1089.11 2101.12,-1119.89 2137.26,-1141.85"/>
<polygon fill="#7fb2ff" stroke="#7fb2ff" points="2135.52,-1144.89 2145.86,-1147.23 2139.24,-1138.95 2135.52,-1144.89"/>
</g>
<!-- Node0x55b6578ece08&#45;&gt;Node0x55b6578ee1b8 -->
<g id="edge107" class="edge">
<title>Node0x55b6578ece08&#45;&gt;Node0x55b6578ee1b8</title>
<path fill="none" stroke="#7fb2ff" d="M1270.96,-1727.27C1261.91,-1720.96 1254.05,-1713.08 1248,-1703.28 1234.3,-1681.12 1234.3,-1256.45 1248,-1234.28 1258.09,-1217.96 1273.26,-1207.23 1290.66,-1200.38"/>
<polygon fill="#7fb2ff" stroke="#7fb2ff" points="1292.23,-1203.54 1300.54,-1196.96 1289.94,-1196.92 1292.23,-1203.54"/>
</g>
<!-- Node0x55b6578ece08&#45;&gt;Node0x55b6578ee938 -->
<g id="edge108" class="edge">
<title>Node0x55b6578ece08&#45;&gt;Node0x55b6578ee938</title>
<path fill="none" stroke="#7fb2ff" d="M1270.96,-1727.27C1261.91,-1720.96 1254.05,-1713.08 1248,-1703.28 1230.04,-1674.22 1230.04,-1117.35 1248,-1088.28 1254.45,-1077.84 1262.99,-1069.69 1272.85,-1063.38"/>
<polygon fill="#7fb2ff" stroke="#7fb2ff" points="1274.87,-1066.26 1281.85,-1058.29 1271.42,-1060.17 1274.87,-1066.26"/>
</g>
<!-- Node0x55b6578eb698 -->
<g id="node13" class="node">
<title>Node0x55b6578eb698</title>
<polygon fill="#7fb2ff" stroke="black" points="1974,-1668.28 1642,-1668.28 1642,-1632.28 1974,-1632.28 1974,-1668.28"/>
<text text-anchor="middle" x="1808" y="-1646.58" font-family="Times,serif" font-size="14.00">{lib/libLLVMMC.a(MCObjectFileInfo.cpp.o)}</text>
</g>
<!-- Node0x55b6578ece08&#45;&gt;Node0x55b6578eb698 -->
<g id="edge109" class="edge">
<title>Node0x55b6578ece08&#45;&gt;Node0x55b6578eb698</title>
<path fill="none" stroke="#7fb2ff" d="M1562.97,-1726.17C1575.77,-1722.39 1588.33,-1717.81 1600,-1712.28 1618.82,-1703.36 1617.16,-1691.15 1636,-1682.28 1644.81,-1678.14 1654.12,-1674.53 1663.66,-1671.38"/>
<polygon fill="#7fb2ff" stroke="#7fb2ff" points="1664.75,-1674.71 1673.26,-1668.39 1662.67,-1668.02 1664.75,-1674.71"/>
</g>
<!-- Node0x55b6578ece08&#45;&gt;Node0x55b6578ec908 -->
<g id="edge106" class="edge">
<title>Node0x55b6578ece08&#45;&gt;Node0x55b6578ec908</title>
<path fill="none" stroke="#7fb2ff" d="M1595.17,-1739.68C1707.12,-1734.93 1857.57,-1719.59 1980,-1668.28 2044.17,-1641.39 2104.57,-1585.99 2138.7,-1553.36"/>
<polygon fill="#7fb2ff" stroke="#7fb2ff" points="2141.2,-1555.81 2145.99,-1546.36 2136.35,-1550.76 2141.2,-1555.81"/>
</g>
<!-- Node0x55b6578ece08&#45;&gt;Node0x55b6578ebf08 -->
<g id="edge110" class="edge">
<title>Node0x55b6578ece08&#45;&gt;Node0x55b6578ebf08</title>
<path fill="none" stroke="#7fb2ff" d="M1556.83,-1726.28C1572.49,-1721 1587.42,-1713.63 1600,-1703.28 1632.95,-1676.18 1612.85,-1650.13 1636,-1614.28 1673.61,-1556.05 1731.71,-1500.14 1769.55,-1468.99"/>
<polygon fill="#7fb2ff" stroke="#7fb2ff" points="1772.19,-1471.36 1777.77,-1462.36 1767.79,-1465.91 1772.19,-1471.36"/>
</g>
<!-- Node0x55b6578ec278&#45;&gt;Node0x55b6578ee1b8 -->
<g id="edge92" class="edge">
<title>Node0x55b6578ec278&#45;&gt;Node0x55b6578ee1b8</title>
<path fill="none" stroke="#7fb2ff" d="M1433,-1234.07C1433,-1231.59 1433,-1229.11 1433,-1226.63"/>
<polygon fill="#7fb2ff" stroke="#7fb2ff" points="1436.5,-1226.42 1433,-1216.42 1429.5,-1226.42 1436.5,-1226.42"/>
</g>
<!-- Node0x55b6578eb698&#45;&gt;Node0x55b6578ecd18 -->
<g id="edge12" class="edge">
<title>Node0x55b6578eb698&#45;&gt;Node0x55b6578ecd18</title>
<path fill="none" stroke="#7fb2ff" d="M1658.89,-1632.27C1639.09,-1629.9 1619.05,-1627.52 1600,-1625.28 1525.81,-1616.58 1321.22,-1637.59 1266,-1587.28 1208.27,-1534.69 1281.14,-1474.31 1230,-1415.28 1213.55,-1396.3 1190.91,-1383.04 1167.42,-1373.77"/>
<polygon fill="#7fb2ff" stroke="#7fb2ff" points="1168.62,-1370.48 1158.03,-1370.29 1166.19,-1377.05 1168.62,-1370.48"/>
</g>
<!-- Node0x55b6578edcb8 -->
<g id="node14" class="node">
<title>Node0x55b6578edcb8</title>
<polygon fill="none" stroke="black" points="444,-1439.28 0,-1439.28 0,-1403.28 444,-1403.28 444,-1439.28"/>
<text text-anchor="middle" x="222" y="-1417.58" font-family="Times,serif" font-size="14.00">{lib/libLLVMMC.a(MCTargetOptionsCommandFlags.cpp.o)}</text>
</g>
<!-- Node0x55b6578eba58 -->
<g id="node15" class="node">
<title>Node0x55b6578eba58</title>
<polygon fill="none" stroke="black" points="829.5,-1439.28 496.5,-1439.28 496.5,-1403.28 829.5,-1403.28 829.5,-1439.28"/>
<text text-anchor="middle" x="663" y="-1417.58" font-family="Times,serif" font-size="14.00">{lib/libLLVMMC.a(MCTargetOptions.cpp.o)}</text>
</g>
<!-- Node0x55b6578edcb8&#45;&gt;Node0x55b6578eba58 -->
<g id="edge13" class="edge">
<title>Node0x55b6578edcb8&#45;&gt;Node0x55b6578eba58</title>
<path fill="none" stroke="black" d="M444.11,-1421.28C458.27,-1421.28 472.42,-1421.28 486.33,-1421.28"/>
<polygon fill="black" stroke="black" points="486.41,-1424.78 496.41,-1421.28 486.41,-1417.78 486.41,-1424.78"/>
</g>
<!-- Node0x55b6578ec908&#45;&gt;Node0x55b6578ecd18 -->
<g id="edge18" class="edge">
<title>Node0x55b6578ec908&#45;&gt;Node0x55b6578ecd18</title>
<path fill="none" stroke="#7fb2ff" d="M2157.26,-1546.59C2132.83,-1588.23 2066.66,-1689.83 1980,-1733.28 1837.97,-1804.51 1401.12,-1854.88 1266,-1771.28 1121.74,-1682.03 1073.79,-1459.86 1061,-1380.79"/>
<polygon fill="#7fb2ff" stroke="#7fb2ff" points="1064.41,-1379.95 1059.42,-1370.61 1057.49,-1381.02 1064.41,-1379.95"/>
</g>
<!-- Node0x55b6578ec908&#45;&gt;Node0x55b6578eea28 -->
<g id="edge15" class="edge">
<title>Node0x55b6578ec908&#45;&gt;Node0x55b6578eea28</title>
<path fill="none" stroke="#7fb2ff" d="M2019.73,-1525.19C1885.76,-1520.11 1699.8,-1506.7 1636,-1471.28 1613.3,-1458.68 1622.35,-1438.5 1600,-1425.28 1595.13,-1422.4 1590.05,-1419.81 1584.81,-1417.46"/>
<polygon fill="#7fb2ff" stroke="#7fb2ff" points="1585.81,-1414.09 1575.23,-1413.52 1583.14,-1420.56 1585.81,-1414.09"/>
</g>
<!-- Node0x55b6578ec908&#45;&gt;Node0x55b6578eb008 -->
<g id="edge16" class="edge">
<title>Node0x55b6578ec908&#45;&gt;Node0x55b6578eb008</title>
<path fill="none" stroke="#7fb2ff" d="M2161.64,-1510.13C2143.72,-1457.74 2084.49,-1305.31 1980,-1231.28 1864.06,-1149.15 1702.59,-1120.05 1585.34,-1110.2"/>
<polygon fill="#7fb2ff" stroke="#7fb2ff" points="1585.46,-1106.7 1575.21,-1109.39 1584.9,-1113.68 1585.46,-1106.7"/>
</g>
<!-- Node0x55b6578ec908&#45;&gt;Node0x55b6578ee988 -->
<g id="edge17" class="edge">
<title>Node0x55b6578ec908&#45;&gt;Node0x55b6578ee988</title>
<path fill="none" stroke="#7fb2ff" d="M2133.33,-1510.08C2097.03,-1487.05 2037.11,-1448.5 1980,-1426.28 1839.33,-1371.56 1667.29,-1342.31 1554.39,-1325.77"/>
<polygon fill="#7fb2ff" stroke="#7fb2ff" points="1554.73,-1322.28 1544.33,-1324.31 1553.72,-1329.21 1554.73,-1322.28"/>
</g>
<!-- Node0x55b6578ec908&#45;&gt;Node0x55b6578ee1b8 -->
<g id="edge19" class="edge">
<title>Node0x55b6578ec908&#45;&gt;Node0x55b6578ee1b8</title>
<path fill="none" stroke="#7fb2ff" d="M2156.87,-1510.27C2131.89,-1469.74 2065.04,-1371.59 1980,-1328.28 1842.7,-1258.37 1765.1,-1369.38 1636,-1285.28 1609.94,-1268.31 1625.74,-1242.74 1600,-1225.28 1592.11,-1219.93 1583.53,-1215.51 1574.56,-1211.86"/>
<polygon fill="#7fb2ff" stroke="#7fb2ff" points="1575.69,-1208.54 1565.1,-1208.33 1573.25,-1215.1 1575.69,-1208.54"/>
</g>
<!-- Node0x55b6578ec908&#45;&gt;Node0x55b6578ece08 -->
<g id="edge20" class="edge">
<title>Node0x55b6578ec908&#45;&gt;Node0x55b6578ece08</title>
<path fill="none" stroke="#7fb2ff" d="M2155.72,-1546.39C2128.35,-1580.92 2056.89,-1654.07 1980,-1686.28 1861.27,-1736.03 1716.2,-1751.97 1605.44,-1754.59"/>
<polygon fill="#7fb2ff" stroke="#7fb2ff" points="1605.1,-1751.1 1595.17,-1754.8 1605.24,-1758.1 1605.1,-1751.1"/>
</g>
<!-- Node0x55b6578ec908&#45;&gt;Node0x55b6578eb468 -->
<g id="edge14" class="edge">
<title>Node0x55b6578ec908&#45;&gt;Node0x55b6578eb468</title>
<path fill="none" stroke="black" d="M2317.2,-1544.48C2327.07,-1545.56 2337.06,-1546.66 2347.02,-1547.75"/>
<polygon fill="black" stroke="black" points="2346.65,-1551.23 2356.97,-1548.84 2347.42,-1544.27 2346.65,-1551.23"/>
</g>
<!-- Node0x55b6578ee2a8 -->
<g id="node18" class="node">
<title>Node0x55b6578ee2a8</title>
<polygon fill="none" stroke="black" points="811,-1547.28 515,-1547.28 515,-1511.28 811,-1511.28 811,-1547.28"/>
<text text-anchor="middle" x="663" y="-1525.58" font-family="Times,serif" font-size="14.00">{lib/libLLVMMC.a(MCSchedule.cpp.o)}</text>
</g>
<!-- Node0x55b6578ea388 -->
<g id="node19" class="node">
<title>Node0x55b6578ea388</title>
<polygon fill="none" stroke="black" points="387.5,-1520.28 56.5,-1520.28 56.5,-1484.28 387.5,-1484.28 387.5,-1520.28"/>
<text text-anchor="middle" x="222" y="-1498.58" font-family="Times,serif" font-size="14.00">{lib/libLLVMMC.a(MCSubtargetInfo.cpp.o)}</text>
</g>
<!-- Node0x55b6578ea388&#45;&gt;Node0x55b6578ee2a8 -->
<g id="edge21" class="edge">
<title>Node0x55b6578ea388&#45;&gt;Node0x55b6578ee2a8</title>
<path fill="none" stroke="black" d="M387.72,-1512.41C426.02,-1514.77 466.7,-1517.27 504.67,-1519.61"/>
<polygon fill="black" stroke="black" points="504.59,-1523.11 514.79,-1520.23 505.02,-1516.12 504.59,-1523.11"/>
</g>
<!-- Node0x55b6578eb0a8 -->
<g id="node20" class="node">
<title>Node0x55b6578eb0a8</title>
<polygon fill="none" stroke="black" points="830,-1493.28 496,-1493.28 496,-1457.28 830,-1457.28 830,-1493.28"/>
<text text-anchor="middle" x="663" y="-1471.58" font-family="Times,serif" font-size="14.00">{lib/libLLVMMC.a(SubtargetFeature.cpp.o)}</text>
</g>
<!-- Node0x55b6578ea388&#45;&gt;Node0x55b6578eb0a8 -->
<g id="edge22" class="edge">
<title>Node0x55b6578ea388&#45;&gt;Node0x55b6578eb0a8</title>
<path fill="none" stroke="black" d="M387.72,-1492.15C419.8,-1490.18 453.55,-1488.1 485.98,-1486.11"/>
<polygon fill="black" stroke="black" points="486.23,-1489.6 496,-1485.49 485.8,-1482.61 486.23,-1489.6"/>
</g>
<!-- Node0x55b6578ee2f8&#45;&gt;Node0x55b6578ecd18 -->
<g id="edge32" class="edge">
<title>Node0x55b6578ee2f8&#45;&gt;Node0x55b6578ecd18</title>
<path fill="none" stroke="#7fb2ff" d="M2015.75,-1156.68C1774.47,-1144.43 1324.49,-1127.89 1266,-1171.28 1222.65,-1203.45 1267.04,-1248.01 1230,-1287.28 1211.08,-1307.34 1185.36,-1321.26 1159.55,-1330.9"/>
<polygon fill="#7fb2ff" stroke="#7fb2ff" points="1158.31,-1327.63 1150.05,-1334.26 1160.64,-1334.23 1158.31,-1327.63"/>
</g>
<!-- Node0x55b6578ee2f8&#45;&gt;Node0x55b6578eb008 -->
<g id="edge30" class="edge">
<title>Node0x55b6578ee2f8&#45;&gt;Node0x55b6578eb008</title>
<path fill="none" stroke="#7fb2ff" d="M2124.88,-1147.15C2087.48,-1132.28 2031.22,-1112.41 1980,-1104.28 1847.9,-1083.34 1695.56,-1086.09 1585.41,-1092.78"/>
<polygon fill="#7fb2ff" stroke="#7fb2ff" points="1584.99,-1089.3 1575.22,-1093.41 1585.42,-1096.28 1584.99,-1089.3"/>
</g>
<!-- Node0x55b6578ee2f8&#45;&gt;Node0x55b6578ee988 -->
<g id="edge31" class="edge">
<title>Node0x55b6578ee2f8&#45;&gt;Node0x55b6578ee988</title>
<path fill="none" stroke="#7fb2ff" d="M2147.45,-1183.37C2115.03,-1211.32 2047.85,-1264.01 1980,-1285.28 1854.37,-1324.68 1704.48,-1327.53 1593.55,-1321.88"/>
<polygon fill="#7fb2ff" stroke="#7fb2ff" points="1593.45,-1318.37 1583.28,-1321.33 1593.08,-1325.36 1593.45,-1318.37"/>
</g>
<!-- Node0x55b6578ee2f8&#45;&gt;Node0x55b6578ed448 -->
<g id="edge33" class="edge">
<title>Node0x55b6578ee2f8&#45;&gt;Node0x55b6578ed448</title>
<path fill="none" stroke="#7fb2ff" d="M2162.27,-1183.53C2145.74,-1237.64 2089.14,-1397.99 1980,-1471.28 1947.19,-1493.32 1730.87,-1523.81 1580.57,-1542.77"/>
<polygon fill="#7fb2ff" stroke="#7fb2ff" points="1579.8,-1539.34 1570.32,-1544.06 1580.68,-1546.29 1579.8,-1539.34"/>
</g>
<!-- Node0x55b6578ee2f8&#45;&gt;Node0x55b6578ee1b8 -->
<g id="edge34" class="edge">
<title>Node0x55b6578ee2f8&#45;&gt;Node0x55b6578ee1b8</title>
<path fill="none" stroke="#7fb2ff" d="M2015.97,-1177.69C1886.51,-1185.11 1701.69,-1193.38 1575.27,-1197.38"/>
<polygon fill="#7fb2ff" stroke="#7fb2ff" points="1575.02,-1193.89 1565.14,-1197.7 1575.24,-1200.89 1575.02,-1193.89"/>
</g>
<!-- Node0x55b6578ee2f8&#45;&gt;Node0x55b6578ee938 -->
<g id="edge35" class="edge">
<title>Node0x55b6578ee2f8&#45;&gt;Node0x55b6578ee938</title>
<path fill="none" stroke="#7fb2ff" d="M2121.29,-1147.23C2084.27,-1129.91 2030.37,-1105.25 1980,-1093.28 1852.67,-1063.05 1704.19,-1056.09 1594.24,-1054.71"/>
<polygon fill="#7fb2ff" stroke="#7fb2ff" points="1594.09,-1051.21 1584.05,-1054.6 1594.01,-1058.21 1594.09,-1051.21"/>
</g>
<!-- Node0x55b6578ec688&#45;&gt;Node0x55b6578ee1b8 -->
<g id="edge111" class="edge">
<title>Node0x55b6578ec688&#45;&gt;Node0x55b6578ee1b8</title>
<path fill="none" stroke="#7fb2ff" d="M1653.63,-1240.27C1608.45,-1233.26 1560.6,-1225.29 1521.13,-1218.11"/>
<polygon fill="#7fb2ff" stroke="#7fb2ff" points="1521.75,-1214.67 1511.29,-1216.31 1520.49,-1221.55 1521.75,-1214.67"/>
</g>
<!-- Node0x55b6578ea658 -->
<g id="node23" class="node">
<title>Node0x55b6578ea658</title>
<polygon fill="none" stroke="black" points="1587,-2006.28 1279,-2006.28 1279,-1970.28 1587,-1970.28 1587,-2006.28"/>
<text text-anchor="middle" x="1433" y="-1984.58" font-family="Times,serif" font-size="14.00">{lib/libLLVMMC.a(MCInstPrinter.cpp.o)}</text>
</g>
<!-- Node0x55b6578ec1d8 -->
<g id="node24" class="node">
<title>Node0x55b6578ec1d8</title>
<polygon fill="none" stroke="black" points="808,-1293.28 518,-1293.28 518,-1257.28 808,-1257.28 808,-1293.28"/>
<text text-anchor="middle" x="663" y="-1271.58" font-family="Times,serif" font-size="14.00">{lib/libLLVMMC.a(MCAsmInfo.cpp.o)}</text>
</g>
<!-- Node0x55b6578ec1d8&#45;&gt;Node0x55b6578ecd18 -->
<g id="edge28" class="edge">
<title>Node0x55b6578ec1d8&#45;&gt;Node0x55b6578ecd18</title>
<path fill="none" stroke="black" d="M808.03,-1292.31C820.99,-1295.14 833.81,-1298.44 846,-1302.28 863.06,-1307.66 865.04,-1314.6 882,-1320.28 895.3,-1324.74 909.39,-1328.62 923.56,-1332"/>
<polygon fill="black" stroke="black" points="922.84,-1335.43 933.37,-1334.26 924.41,-1328.61 922.84,-1335.43"/>
</g>
<!-- Node0x55b6578ec1d8&#45;&gt;Node0x55b6578ee1b8 -->
<g id="edge29" class="edge">
<title>Node0x55b6578ec1d8&#45;&gt;Node0x55b6578ee1b8</title>
<path fill="none" stroke="black" d="M703.54,-1257.26C746.45,-1238.76 817.48,-1211.19 882,-1200.28 1019.55,-1177.03 1179.22,-1179.66 1290.97,-1186.21"/>
<polygon fill="black" stroke="black" points="1290.76,-1189.71 1300.96,-1186.82 1291.19,-1182.72 1290.76,-1189.71"/>
</g>
<!-- Node0x55b6578ebdc8 -->
<g id="node25" class="node">
<title>Node0x55b6578ebdc8</title>
<polygon fill="none" stroke="black" points="383.5,-1574.28 60.5,-1574.28 60.5,-1538.28 383.5,-1538.28 383.5,-1574.28"/>
<text text-anchor="middle" x="222" y="-1552.58" font-family="Times,serif" font-size="14.00">{lib/libLLVMMC.a(MCAsmBackend.cpp.o)}</text>
</g>
<!-- Node0x55b6578ef0b8 -->
<g id="node26" class="node">
<title>Node0x55b6578ef0b8</title>
<polygon fill="none" stroke="black" points="1185.5,-2006.28 926.5,-2006.28 926.5,-1970.28 1185.5,-1970.28 1185.5,-2006.28"/>
<text text-anchor="middle" x="1056" y="-1984.58" font-family="Times,serif" font-size="14.00">{lib/libLLVMMC.a(MCInst.cpp.o)}</text>
</g>
<!-- Node0x55b6578ef0b8&#45;&gt;Node0x55b6578ee1b8 -->
<g id="edge39" class="edge">
<title>Node0x55b6578ef0b8&#45;&gt;Node0x55b6578ee1b8</title>
<path fill="none" stroke="black" d="M1062.56,-1969.93C1084.82,-1896.17 1169.29,-1613.91 1230,-1379.28 1247.61,-1311.24 1214.63,-1273.26 1266,-1225.28 1273.52,-1218.26 1282.12,-1212.66 1291.36,-1208.22"/>
<polygon fill="black" stroke="black" points="1292.99,-1211.33 1300.79,-1204.16 1290.22,-1204.9 1292.99,-1211.33"/>
</g>
<!-- Node0x55b6578ef0b8&#45;&gt;Node0x55b6578ea658 -->
<g id="edge40" class="edge">
<title>Node0x55b6578ef0b8&#45;&gt;Node0x55b6578ea658</title>
<path fill="none" stroke="black" d="M1185.53,-1988.28C1212.25,-1988.28 1240.75,-1988.28 1268.53,-1988.28"/>
<polygon fill="black" stroke="black" points="1268.73,-1991.78 1278.73,-1988.28 1268.73,-1984.78 1268.73,-1991.78"/>
</g>
<!-- Node0x55b6578ebf08&#45;&gt;Node0x55b6578ecd18 -->
<g id="edge45" class="edge">
<title>Node0x55b6578ebf08&#45;&gt;Node0x55b6578ecd18</title>
<path fill="none" stroke="#7fb2ff" d="M1667,-1426.24C1656.19,-1422.41 1645.71,-1417.81 1636,-1412.28 1614.93,-1400.28 1621.91,-1381.67 1600,-1371.28 1533.42,-1339.73 1345.9,-1339.61 1209.84,-1344.31"/>
<polygon fill="#7fb2ff" stroke="#7fb2ff" points="1209.59,-1340.82 1199.72,-1344.67 1209.84,-1347.81 1209.59,-1340.82"/>
</g>
<!-- Node0x55b6578ebf08&#45;&gt;Node0x55b6578eea28 -->
<g id="edge41" class="edge">
<title>Node0x55b6578ebf08&#45;&gt;Node0x55b6578eea28</title>
<path fill="none" stroke="#7fb2ff" d="M1660.82,-1426.26C1636.01,-1423.2 1610.2,-1420.01 1585.27,-1416.94"/>
<polygon fill="#7fb2ff" stroke="#7fb2ff" points="1585.37,-1413.42 1575.02,-1415.67 1584.51,-1420.37 1585.37,-1413.42"/>
</g>
<!-- Node0x55b6578ebf08&#45;&gt;Node0x55b6578ee988 -->
<g id="edge44" class="edge">
<title>Node0x55b6578ebf08&#45;&gt;Node0x55b6578ee988</title>
<path fill="none" stroke="#7fb2ff" d="M1643.04,-1426.25C1640.63,-1424.68 1638.28,-1423.02 1636,-1421.28 1606.92,-1399.11 1629.02,-1369.54 1600,-1347.28 1589.13,-1338.95 1576.71,-1332.59 1563.66,-1327.71"/>
<polygon fill="#7fb2ff" stroke="#7fb2ff" points="1564.65,-1324.35 1554.06,-1324.4 1562.38,-1330.97 1564.65,-1324.35"/>
</g>
<!-- Node0x55b6578ebf08&#45;&gt;Node0x55b6578ed448 -->
<g id="edge46" class="edge">
<title>Node0x55b6578ebf08&#45;&gt;Node0x55b6578ed448</title>
<path fill="none" stroke="#7fb2ff" d="M1687.93,-1462.32C1669.51,-1467.47 1651.49,-1474.77 1636,-1485.28 1611.21,-1502.11 1624.99,-1525.75 1600,-1542.28 1593.72,-1546.44 1587.02,-1550.03 1580.06,-1553.12"/>
<polygon fill="#7fb2ff" stroke="#7fb2ff" points="1578.36,-1550.03 1570.4,-1557.02 1580.98,-1556.52 1578.36,-1550.03"/>
</g>
<!-- Node0x55b6578ebf08&#45;&gt;Node0x55b6578ee1b8 -->
<g id="edge47" class="edge">
<title>Node0x55b6578ebf08&#45;&gt;Node0x55b6578ee1b8</title>
<path fill="none" stroke="#7fb2ff" d="M1771.55,-1426.17C1733.3,-1405 1672.95,-1366.63 1636,-1318.28 1609.09,-1283.07 1634.43,-1253.2 1600,-1225.28 1592.26,-1219.01 1583.64,-1213.93 1574.5,-1209.83"/>
<polygon fill="#7fb2ff" stroke="#7fb2ff" points="1575.78,-1206.58 1565.2,-1206.06 1573.15,-1213.06 1575.78,-1206.58"/>
</g>
<!-- Node0x55b6578ebf08&#45;&gt;Node0x55b6578ee938 -->
<g id="edge48" class="edge">
<title>Node0x55b6578ebf08&#45;&gt;Node0x55b6578ee938</title>
<path fill="none" stroke="#7fb2ff" d="M1777.98,-1426.22C1738.87,-1400.21 1670.23,-1348.34 1636,-1285.28 1591.65,-1203.6 1666.11,-1144.62 1600,-1079.28 1597.76,-1077.07 1595.42,-1075 1592.98,-1073.05"/>
<polygon fill="#7fb2ff" stroke="#7fb2ff" points="1594.53,-1069.87 1584.35,-1066.94 1590.49,-1075.58 1594.53,-1069.87"/>
</g>
<!-- Node0x55b6578ebf08&#45;&gt;Node0x55b6578ece08 -->
<g id="edge49" class="edge">
<title>Node0x55b6578ebf08&#45;&gt;Node0x55b6578ece08</title>
<path fill="none" stroke="#7fb2ff" d="M1790.75,-1462.47C1757.66,-1494.19 1681.7,-1561.52 1636,-1632.28 1614.57,-1665.47 1630.21,-1690.25 1601.5,-1719.07"/>
<polygon fill="#7fb2ff" stroke="#7fb2ff" points="1598.8,-1716.8 1593.7,-1726.09 1603.48,-1722 1598.8,-1716.8"/>
</g>
<!-- Node0x55b6578ebf08&#45;&gt;Node0x55b6578ec908 -->
<g id="edge42" class="edge">
<title>Node0x55b6578ebf08&#45;&gt;Node0x55b6578ec908</title>
<path fill="none" stroke="#7fb2ff" d="M1885.91,-1462.3C1943.11,-1475.71 2021.22,-1494.01 2080.66,-1507.94"/>
<polygon fill="#7fb2ff" stroke="#7fb2ff" points="2079.88,-1511.35 2090.41,-1510.22 2081.47,-1504.53 2079.88,-1511.35"/>
</g>
<!-- Node0x55b6578ebf08&#45;&gt;Node0x55b6578ee2f8 -->
<g id="edge43" class="edge">
<title>Node0x55b6578ebf08&#45;&gt;Node0x55b6578ee2f8</title>
<path fill="none" stroke="#7fb2ff" d="M1853.38,-1426.16C1889.28,-1410.43 1940.22,-1385.59 1980,-1356.28 2048.11,-1306.11 2114.17,-1230.7 2146.65,-1191.33"/>
<polygon fill="#7fb2ff" stroke="#7fb2ff" points="2149.44,-1193.45 2153.06,-1183.49 2144.02,-1189.02 2149.44,-1193.45"/>
</g>
<!-- Node0x55b6578ea6f8 -->
<g id="node28" class="node">
<title>Node0x55b6578ea6f8</title>
<polygon fill="none" stroke="black" points="386.5,-1239.28 57.5,-1239.28 57.5,-1203.28 386.5,-1203.28 386.5,-1239.28"/>
<text text-anchor="middle" x="222" y="-1217.58" font-family="Times,serif" font-size="14.00">{lib/libLLVMMC.a(MCAsmInfoCOFF.cpp.o)}</text>
</g>
<!-- Node0x55b6578ea6f8&#45;&gt;Node0x55b6578ec1d8 -->
<g id="edge50" class="edge">
<title>Node0x55b6578ea6f8&#45;&gt;Node0x55b6578ec1d8</title>
<path fill="none" stroke="black" d="M370.71,-1239.3C395.19,-1242.29 420.31,-1245.37 444,-1248.28 464.59,-1250.82 486.26,-1253.49 507.64,-1256.13"/>
<polygon fill="black" stroke="black" points="507.42,-1259.63 517.77,-1257.39 508.28,-1252.69 507.42,-1259.63"/>
</g>
<!-- Node0x55b6578ea2e8 -->
<g id="node29" class="node">
<title>Node0x55b6578ea2e8</title>
<polygon fill="none" stroke="black" points="392.5,-1293.28 51.5,-1293.28 51.5,-1257.28 392.5,-1257.28 392.5,-1293.28"/>
<text text-anchor="middle" x="222" y="-1271.58" font-family="Times,serif" font-size="14.00">{lib/libLLVMMC.a(MCAsmInfoDarwin.cpp.o)}</text>
</g>
<!-- Node0x55b6578ea2e8&#45;&gt;Node0x55b6578ec1d8 -->
<g id="edge51" class="edge">
<title>Node0x55b6578ea2e8&#45;&gt;Node0x55b6578ec1d8</title>
<path fill="none" stroke="black" d="M392.73,-1275.28C430.44,-1275.28 470.22,-1275.28 507.3,-1275.28"/>
<polygon fill="black" stroke="black" points="507.68,-1278.78 517.68,-1275.28 507.68,-1271.78 507.68,-1278.78"/>
</g>
<!-- Node0x55b6578eaf68 -->
<g id="node30" class="node">
<title>Node0x55b6578eaf68</title>
<polygon fill="none" stroke="black" points="380.5,-1347.28 63.5,-1347.28 63.5,-1311.28 380.5,-1311.28 380.5,-1347.28"/>
<text text-anchor="middle" x="222" y="-1325.58" font-family="Times,serif" font-size="14.00">{lib/libLLVMMC.a(MCAsmInfoELF.cpp.o)}</text>
</g>
<!-- Node0x55b6578eaf68&#45;&gt;Node0x55b6578ecd18 -->
<g id="edge53" class="edge">
<title>Node0x55b6578eaf68&#45;&gt;Node0x55b6578ecd18</title>
<path fill="none" stroke="black" d="M368.89,-1347.29C405.14,-1351.02 443.93,-1354.39 480,-1356.28 642.44,-1364.79 683.34,-1357.84 846,-1356.28 864.15,-1356.11 883.18,-1355.85 902.06,-1355.55"/>
<polygon fill="black" stroke="black" points="902.28,-1359.05 912.22,-1355.38 902.17,-1352.05 902.28,-1359.05"/>
</g>
<!-- Node0x55b6578eaf68&#45;&gt;Node0x55b6578ec1d8 -->
<g id="edge52" class="edge">
<title>Node0x55b6578eaf68&#45;&gt;Node0x55b6578ec1d8</title>
<path fill="none" stroke="black" d="M370.71,-1311.27C395.19,-1308.28 420.31,-1305.2 444,-1302.28 464.59,-1299.75 486.26,-1297.08 507.64,-1294.43"/>
<polygon fill="black" stroke="black" points="508.28,-1297.88 517.77,-1293.18 507.42,-1290.94 508.28,-1297.88"/>
</g>
<!-- Node0x55b6578eef28 -->
<g id="node31" class="node">
<title>Node0x55b6578eef28</title>
<polygon fill="none" stroke="black" points="382.5,-1628.28 61.5,-1628.28 61.5,-1592.28 382.5,-1592.28 382.5,-1628.28"/>
<text text-anchor="middle" x="222" y="-1606.58" font-family="Times,serif" font-size="14.00">{lib/libLLVMMC.a(MCCodeEmitter.cpp.o)}</text>
</g>
<!-- Node0x55b6578eafb8 -->
<g id="node32" class="node">
<title>Node0x55b6578eafb8</title>
<polygon fill="none" stroke="black" points="425.5,-1682.28 18.5,-1682.28 18.5,-1646.28 425.5,-1646.28 425.5,-1682.28"/>
<text text-anchor="middle" x="222" y="-1660.58" font-family="Times,serif" font-size="14.00">{lib/libLLVMMC.a(MCMachObjectTargetWriter.cpp.o)}</text>
</g>
<!-- Node0x55b6578eb238 -->
<g id="node33" class="node">
<title>Node0x55b6578eb238</title>
<polygon fill="none" stroke="black" points="831,-278.28 495,-278.28 495,-242.28 831,-242.28 831,-278.28"/>
<text text-anchor="middle" x="663" y="-256.58" font-family="Times,serif" font-size="14.00">{lib/libLLVMMC.a(MachObjectWriter.cpp.o)}</text>
</g>
<!-- Node0x55b6578eb238&#45;&gt;Node0x55b6578ecd18 -->
<g id="edge58" class="edge">
<title>Node0x55b6578eb238&#45;&gt;Node0x55b6578ecd18</title>
<path fill="none" stroke="black" d="M686.04,-278.52C726.56,-313.61 811.87,-395.06 846,-485.28 878.85,-572.14 821.08,-1250.19 882,-1320.28 888.25,-1327.48 895.55,-1333.4 903.55,-1338.24"/>
<polygon fill="black" stroke="black" points="902.03,-1341.39 912.49,-1343.08 905.36,-1335.24 902.03,-1341.39"/>
</g>
<!-- Node0x55b6578eb238&#45;&gt;Node0x55b6578eda38 -->
<g id="edge55" class="edge">
<title>Node0x55b6578eb238&#45;&gt;Node0x55b6578eda38</title>
<path fill="none" stroke="black" d="M686.06,-278.51C726.63,-313.58 812,-395.01 846,-485.28 881.04,-578.32 832.15,-1293.27 882,-1379.28 971.31,-1533.37 1178.3,-1602.61 1311.33,-1632.12"/>
<polygon fill="black" stroke="black" points="1310.66,-1635.56 1321.17,-1634.26 1312.15,-1628.72 1310.66,-1635.56"/>
</g>
<!-- Node0x55b6578eb238&#45;&gt;Node0x55b6578eb008 -->
<g id="edge56" class="edge">
<title>Node0x55b6578eb238&#45;&gt;Node0x55b6578eb008</title>
<path fill="none" stroke="black" d="M681.91,-278.45C716.91,-312.78 798.32,-387 882,-423.28 1026.13,-485.79 1125.53,-367.95 1230,-485.28 1317.94,-584.05 1177.32,-981.19 1266,-1079.28 1270.8,-1084.6 1276.21,-1089.14 1282.06,-1093.01"/>
<polygon fill="black" stroke="black" points="1280.53,-1096.17 1290.92,-1098.21 1284.07,-1090.13 1280.53,-1096.17"/>
</g>
<!-- Node0x55b6578eb238&#45;&gt;Node0x55b6578ee1b8 -->
<g id="edge59" class="edge">
<title>Node0x55b6578eb238&#45;&gt;Node0x55b6578ee1b8</title>
<path fill="none" stroke="black" d="M685.07,-278.51C724.35,-313.89 808.23,-396.25 846,-485.28 871.62,-545.68 835.3,-732.21 882,-778.28 992.76,-887.56 1119.75,-706.51 1230,-816.28 1280.24,-866.31 1222.79,-1077.07 1266,-1133.28 1281.25,-1153.13 1303.43,-1166.92 1326.64,-1176.5"/>
<polygon fill="black" stroke="black" points="1325.68,-1179.89 1336.27,-1180.23 1328.21,-1173.36 1325.68,-1179.89"/>
</g>
<!-- Node0x55b6578eb238&#45;&gt;Node0x55b6578ee938 -->
<g id="edge60" class="edge">
<title>Node0x55b6578eb238&#45;&gt;Node0x55b6578ee938</title>
<path fill="none" stroke="black" d="M695.94,-278.47C737.62,-301.57 813.35,-341.42 882,-366.28 1031.8,-420.53 1112.8,-344.37 1230,-452.28 1404.2,-612.68 1428.26,-928.06 1431.51,-1023.96"/>
<polygon fill="black" stroke="black" points="1428.02,-1024.15 1431.8,-1034.05 1435.01,-1023.95 1428.02,-1024.15"/>
</g>
<!-- Node0x55b6578eb238&#45;&gt;Node0x55b6578ee2f8 -->
<g id="edge57" class="edge">
<title>Node0x55b6578eb238&#45;&gt;Node0x55b6578ee2f8</title>
<path fill="none" stroke="black" d="M795.64,-242.25C1092.74,-204.63 1803.15,-132.79 1980,-279.28 2117.05,-392.8 2158.33,-998.33 2166.05,-1136.99"/>
<polygon fill="black" stroke="black" points="2162.57,-1137.41 2166.61,-1147.2 2169.56,-1137.03 2162.57,-1137.41"/>
</g>
<!-- Node0x55b6578eb238&#45;&gt;Node0x55b6578ea1f8 -->
<g id="edge61" class="edge">
<title>Node0x55b6578eb238&#45;&gt;Node0x55b6578ea1f8</title>
<path fill="none" stroke="black" d="M831.19,-265.32C943.89,-268.85 1095.9,-273.9 1230,-279.28 1363.01,-284.63 1513.22,-291.69 1627.03,-297.25"/>
<polygon fill="black" stroke="black" points="1627.08,-300.76 1637.24,-297.75 1627.42,-293.77 1627.08,-300.76"/>
</g>
<!-- Node0x55b6578edb28 -->
<g id="node35" class="node">
<title>Node0x55b6578edb28</title>
<polygon fill="none" stroke="black" points="421,-1736.28 23,-1736.28 23,-1700.28 421,-1700.28 421,-1736.28"/>
<text text-anchor="middle" x="222" y="-1714.58" font-family="Times,serif" font-size="14.00">{lib/libLLVMMC.a(MCELFObjectTargetWriter.cpp.o)}</text>
</g>
<!-- Node0x55b6578ecae8 -->
<g id="node36" class="node">
<title>Node0x55b6578ecae8</title>
<polygon fill="none" stroke="black" points="1191,-1110.28 921,-1110.28 921,-1074.28 1191,-1074.28 1191,-1110.28"/>
<text text-anchor="middle" x="1056" y="-1088.58" font-family="Times,serif" font-size="14.00">{lib/libLLVMMC.a(MCValue.cpp.o)}</text>
</g>
<!-- Node0x55b6578ecae8&#45;&gt;Node0x55b6578ee1b8 -->
<g id="edge62" class="edge">
<title>Node0x55b6578ecae8&#45;&gt;Node0x55b6578ee1b8</title>
<path fill="none" stroke="black" d="M1169.76,-1110.3C1189.95,-1114.33 1210.7,-1119 1230,-1124.28 1282.03,-1138.52 1339.64,-1160.24 1379.98,-1176.48"/>
<polygon fill="black" stroke="black" points="1378.76,-1179.76 1389.34,-1180.27 1381.38,-1173.27 1378.76,-1179.76"/>
</g>
<!-- Node0x55b6578ec228 -->
<g id="node37" class="node">
<title>Node0x55b6578ec228</title>
<polygon fill="none" stroke="black" points="846,-896.28 480,-896.28 480,-860.28 846,-860.28 846,-896.28"/>
<text text-anchor="middle" x="663" y="-874.58" font-family="Times,serif" font-size="14.00">{lib/libLLVMMC.a(WinCOFFObjectWriter.cpp.o)}</text>
</g>
<!-- Node0x55b6578ec228&#45;&gt;Node0x55b6578ecd18 -->
<g id="edge65" class="edge">
<title>Node0x55b6578ec228&#45;&gt;Node0x55b6578ecd18</title>
<path fill="none" stroke="black" d="M742.12,-896.43C779.63,-909.29 821.62,-930.62 846,-965.28 891.62,-1030.14 828.27,-1261.97 882,-1320.28 888.24,-1327.06 895.41,-1332.68 903.21,-1337.33"/>
<polygon fill="black" stroke="black" points="901.79,-1340.54 912.26,-1342.17 905.09,-1334.36 901.79,-1340.54"/>
</g>
<!-- Node0x55b6578ec228&#45;&gt;Node0x55b6578eb008 -->
<g id="edge63" class="edge">
<title>Node0x55b6578ec228&#45;&gt;Node0x55b6578eb008</title>
<path fill="none" stroke="black" d="M846.27,-892.93C1006.11,-906.56 1215.34,-926.6 1230,-939.28 1278.59,-981.32 1218.56,-1035.96 1266,-1079.28 1270.88,-1083.74 1276.2,-1087.62 1281.83,-1090.99"/>
<polygon fill="black" stroke="black" points="1280.47,-1094.23 1290.94,-1095.88 1283.78,-1088.07 1280.47,-1094.23"/>
</g>
<!-- Node0x55b6578ec228&#45;&gt;Node0x55b6578ee1b8 -->
<g id="edge66" class="edge">
<title>Node0x55b6578ec228&#45;&gt;Node0x55b6578ee1b8</title>
<path fill="none" stroke="black" d="M736.19,-896.36C774.18,-909.45 818.46,-931.03 846,-965.28 890.05,-1020.06 830.18,-1071.79 882,-1119.28 897.05,-1133.08 1132.69,-1163.17 1290.61,-1181.98"/>
<polygon fill="black" stroke="black" points="1290.55,-1185.5 1300.89,-1183.2 1291.38,-1178.55 1290.55,-1185.5"/>
</g>
<!-- Node0x55b6578ec228&#45;&gt;Node0x55b6578ee938 -->
<g id="edge67" class="edge">
<title>Node0x55b6578ec228&#45;&gt;Node0x55b6578ee938</title>
<path fill="none" stroke="black" d="M672.28,-860.25C696.24,-810.53 771.1,-671.77 882,-620.28 1022.29,-555.16 1099.51,-537.25 1230,-620.28 1376.1,-713.25 1418.31,-942.69 1428.86,-1023.53"/>
<polygon fill="black" stroke="black" points="1425.45,-1024.43 1430.15,-1033.92 1432.39,-1023.57 1425.45,-1024.43"/>
</g>
<!-- Node0x55b6578ec228&#45;&gt;Node0x55b6578ee2f8 -->
<g id="edge64" class="edge">
<title>Node0x55b6578ec228&#45;&gt;Node0x55b6578ee2f8</title>
<path fill="none" stroke="black" d="M743.56,-896.4C780.96,-909.2 822.42,-930.49 846,-965.28 913.72,-1065.21 822.29,-1402.37 882,-1507.28 984.44,-1687.28 1068.21,-1709.85 1266,-1771.28 1407.76,-1815.31 1471.09,-1844.89 1600,-1771.28 1627.34,-1755.67 1609.44,-1727.18 1636,-1710.28 1700.79,-1669.06 1922.89,-1728.63 1980,-1677.28 2039.37,-1623.9 1991.44,-1577.25 2016,-1501.28 2054.61,-1381.85 2123,-1248.18 2152.86,-1192.21"/>
<polygon fill="black" stroke="black" points="2156,-1193.76 2157.65,-1183.29 2149.83,-1190.45 2156,-1193.76"/>
</g>
<!-- Node0x55b6578ec228&#45;&gt;Node0x55b6578ea1f8 -->
<g id="edge68" class="edge">
<title>Node0x55b6578ec228&#45;&gt;Node0x55b6578ea1f8</title>
<path fill="none" stroke="black" d="M815.68,-860.25C933.05,-842.2 1097.39,-807.81 1230,-745.28 1469.95,-632.14 1705.9,-407.74 1781.79,-331.97"/>
<polygon fill="black" stroke="black" points="1784.46,-334.25 1789.04,-324.7 1779.5,-329.31 1784.46,-334.25"/>
</g>
<!-- Node0x55b6578eebb8 -->
<g id="node38" class="node">
<title>Node0x55b6578eebb8</title>
<polygon fill="none" stroke="black" points="812.5,-530.28 513.5,-530.28 513.5,-494.28 812.5,-494.28 812.5,-530.28"/>
<text text-anchor="middle" x="663" y="-508.58" font-family="Times,serif" font-size="14.00">{lib/libLLVMMC.a(MCWin64EH.cpp.o)}</text>
</g>
<!-- Node0x55b6578eebb8&#45;&gt;Node0x55b6578ecd18 -->
<g id="edge70" class="edge">
<title>Node0x55b6578eebb8&#45;&gt;Node0x55b6578ecd18</title>
<path fill="none" stroke="black" d="M677.44,-530.56C712.6,-579.51 807.26,-718.89 846,-851.28 875.35,-951.61 812.12,-1242.55 882,-1320.28 888.3,-1327.29 895.59,-1333.07 903.55,-1337.82"/>
<polygon fill="black" stroke="black" points="901.95,-1340.94 912.42,-1342.59 905.26,-1334.77 901.95,-1340.94"/>
</g>
<!-- Node0x55b6578eebb8&#45;&gt;Node0x55b6578ee1b8 -->
<g id="edge71" class="edge">
<title>Node0x55b6578eebb8&#45;&gt;Node0x55b6578ee1b8</title>
<path fill="none" stroke="black" d="M671.97,-530.34C695.93,-582.53 772.43,-735.08 882,-816.28 1013.21,-913.53 1123.37,-810.58 1230,-934.28 1288.68,-1002.36 1208.91,-1063.87 1266,-1133.28 1282.31,-1153.12 1305.49,-1166.93 1329.38,-1176.53"/>
<polygon fill="black" stroke="black" points="1328.32,-1179.87 1338.91,-1180.13 1330.79,-1173.32 1328.32,-1179.87"/>
</g>
<!-- Node0x55b6578eebb8&#45;&gt;Node0x55b6578ec908 -->
<g id="edge69" class="edge">
<title>Node0x55b6578eebb8&#45;&gt;Node0x55b6578ec908</title>
<path fill="none" stroke="black" d="M677.6,-530.51C713.16,-579.35 808.71,-718.48 846,-851.28 885.47,-991.84 814.32,-1377.92 882,-1507.28 982.27,-1698.94 1061.42,-1736.03 1266,-1806.28 1416.14,-1857.84 1840.56,-1860.14 1980,-1784.28 2074.53,-1732.86 2133.97,-1610.86 2156.83,-1555.93"/>
<polygon fill="black" stroke="black" points="2160.15,-1557.07 2160.67,-1546.49 2153.66,-1554.43 2160.15,-1557.07"/>
</g>
<!-- Node0x55b6578edda8 -->
<g id="node39" class="node">
<title>Node0x55b6578edda8</title>
<polygon fill="none" stroke="black" points="1196.5,-530.28 915.5,-530.28 915.5,-494.28 1196.5,-494.28 1196.5,-530.28"/>
<text text-anchor="middle" x="1056" y="-508.58" font-family="Times,serif" font-size="14.00">{lib/libLLVMMC.a(MCWinEH.cpp.o)}</text>
</g>
<!-- Node0x55b6578eebb8&#45;&gt;Node0x55b6578edda8 -->
<g id="edge72" class="edge">
<title>Node0x55b6578eebb8&#45;&gt;Node0x55b6578edda8</title>
<path fill="none" stroke="black" d="M812.66,-512.28C842.92,-512.28 874.77,-512.28 905.08,-512.28"/>
<polygon fill="black" stroke="black" points="905.3,-515.78 915.3,-512.28 905.3,-508.78 905.3,-515.78"/>
</g>
<!-- Node0x55b6578ef108 -->
<g id="node40" class="node">
<title>Node0x55b6578ef108</title>
<polygon fill="none" stroke="black" points="846,-1347.28 480,-1347.28 480,-1311.28 846,-1311.28 846,-1347.28"/>
<text text-anchor="middle" x="663" y="-1325.58" font-family="Times,serif" font-size="14.00">{lib/libLLVMMC.a(MCWinCOFFStreamer.cpp.o)}</text>
</g>
<!-- Node0x55b6578ef108&#45;&gt;Node0x55b6578ecd18 -->
<g id="edge76" class="edge">
<title>Node0x55b6578ef108&#45;&gt;Node0x55b6578ecd18</title>
<path fill="none" stroke="black" d="M846.05,-1339.99C864.8,-1341.1 883.71,-1342.21 902.09,-1343.29"/>
<polygon fill="black" stroke="black" points="902.06,-1346.79 912.25,-1343.89 902.47,-1339.81 902.06,-1346.79"/>
</g>
<!-- Node0x55b6578ef108&#45;&gt;Node0x55b6578eb008 -->
<g id="edge74" class="edge">
<title>Node0x55b6578ef108&#45;&gt;Node0x55b6578eb008</title>
<path fill="none" stroke="black" d="M836.05,-1311.1C839.55,-1308.42 842.88,-1305.48 846,-1302.28 937.03,-1209.03 784.36,-1097.59 882,-1011.28 997.89,-908.85 1097.5,-931.51 1230,-1011.28 1259.3,-1028.92 1238.22,-1059.34 1266,-1079.28 1270.94,-1082.83 1276.17,-1085.98 1281.62,-1088.77"/>
<polygon fill="black" stroke="black" points="1280.43,-1092.07 1290.97,-1093.13 1283.39,-1085.73 1280.43,-1092.07"/>
</g>
<!-- Node0x55b6578ef108&#45;&gt;Node0x55b6578ee1b8 -->
<g id="edge77" class="edge">
<title>Node0x55b6578ef108&#45;&gt;Node0x55b6578ee1b8</title>
<path fill="none" stroke="black" d="M831.71,-1311.09C836.66,-1308.45 841.45,-1305.53 846,-1302.28 874.18,-1282.23 853.01,-1252.15 882,-1233.28 915.44,-1211.53 1138.78,-1203.26 1290.37,-1200.15"/>
<polygon fill="black" stroke="black" points="1290.78,-1203.64 1300.7,-1199.94 1290.63,-1196.64 1290.78,-1203.64"/>
</g>
<!-- Node0x55b6578ef108&#45;&gt;Node0x55b6578ee938 -->
<g id="edge78" class="edge">
<title>Node0x55b6578ef108&#45;&gt;Node0x55b6578ee938</title>
<path fill="none" stroke="black" d="M836.7,-1311.06C839.98,-1308.39 843.09,-1305.46 846,-1302.28 937.83,-1201.95 783.04,-784.59 882,-691.28 938.27,-638.23 1163.29,-652.17 1230,-691.28 1356.99,-765.74 1410.12,-952.41 1426.26,-1023.85"/>
<polygon fill="black" stroke="black" points="1422.9,-1024.89 1428.46,-1033.91 1429.74,-1023.4 1422.9,-1024.89"/>
</g>
<!-- Node0x55b6578ef108&#45;&gt;Node0x55b6578ec908 -->
<g id="edge73" class="edge">
<title>Node0x55b6578ef108&#45;&gt;Node0x55b6578ec908</title>
<path fill="none" stroke="black" d="M776.48,-1347.34C803.16,-1356.98 828.83,-1371.72 846,-1394.28 912,-1480.98 802.17,-1809.12 882,-1883.28 934.18,-1931.76 1810.58,-1982.46 1980,-1880.28 2101.25,-1807.16 2148.43,-1626.24 2162.51,-1556.41"/>
<polygon fill="black" stroke="black" points="2165.95,-1557.05 2164.42,-1546.56 2159.08,-1555.71 2165.95,-1557.05"/>
</g>
<!-- Node0x55b6578ef108&#45;&gt;Node0x55b6578ee2f8 -->
<g id="edge75" class="edge">
<title>Node0x55b6578ef108&#45;&gt;Node0x55b6578ee2f8</title>
<path fill="none" stroke="black" d="M776.38,-1347.42C803.06,-1357.05 828.75,-1371.78 846,-1394.28 906.76,-1473.55 808.6,-1774.55 882,-1842.28 999.25,-1950.49 1442.67,-1868.83 1600,-1842.28 1776.3,-1812.54 1864.34,-1846.62 1980,-1710.28 2040.98,-1638.41 1988.41,-1591.41 2016,-1501.28 2052.65,-1381.56 2121.79,-1248.55 2152.34,-1192.51"/>
<polygon fill="black" stroke="black" points="2155.5,-1194.03 2157.24,-1183.58 2149.36,-1190.67 2155.5,-1194.03"/>
</g>
<!-- Node0x55b6578ef108&#45;&gt;Node0x55b6578ebf08 -->
<g id="edge79" class="edge">
<title>Node0x55b6578ef108&#45;&gt;Node0x55b6578ebf08</title>
<path fill="none" stroke="black" d="M758.33,-1347.36C789.18,-1357.08 821.72,-1371.87 846,-1394.28 874.65,-1420.73 855.38,-1445.8 882,-1474.28 1014.11,-1615.62 1078.32,-1632.32 1266,-1679.28 1338,-1697.3 1534.85,-1714.85 1600,-1679.28 1625.97,-1665.11 1617.7,-1646.53 1636,-1623.28 1682.22,-1564.58 1744.53,-1503.05 1779.75,-1469.61"/>
<polygon fill="black" stroke="black" points="1782.4,-1471.93 1787.26,-1462.52 1777.59,-1466.84 1782.4,-1471.93"/>
</g>
<!-- Node0x55b6578eb5f8 -->
<g id="node41" class="node">
<title>Node0x55b6578eb5f8</title>
<polygon fill="none" stroke="black" points="826,-202.28 500,-202.28 500,-166.28 826,-166.28 826,-202.28"/>
<text text-anchor="middle" x="663" y="-180.58" font-family="Times,serif" font-size="14.00">{lib/libLLVMMC.a(ELFObjectWriter.cpp.o)}</text>
</g>
<!-- Node0x55b6578eb5f8&#45;&gt;Node0x55b6578ecd18 -->
<g id="edge87" class="edge">
<title>Node0x55b6578eb5f8&#45;&gt;Node0x55b6578ecd18</title>
<path fill="none" stroke="black" d="M805.94,-202.43C821.38,-209.82 835.33,-219.82 846,-233.28 921.09,-327.97 803.18,-1228.68 882,-1320.28 888.22,-1327.51 895.49,-1333.45 903.47,-1338.31"/>
<polygon fill="black" stroke="black" points="901.93,-1341.46 912.39,-1343.17 905.28,-1335.31 901.93,-1341.46"/>
</g>
<!-- Node0x55b6578eb5f8&#45;&gt;Node0x55b6578eb008 -->
<g id="edge85" class="edge">
<title>Node0x55b6578eb5f8&#45;&gt;Node0x55b6578eb008</title>
<path fill="none" stroke="black" d="M797.25,-202.37C815.37,-209.63 832.38,-219.6 846,-233.28 890.12,-277.59 835.3,-327.71 882,-369.28 998.71,-473.18 1124.49,-304.03 1230,-419.28 1329.18,-527.63 1167.83,-970.03 1266,-1079.28 1270.79,-1084.61 1276.18,-1089.16 1282.02,-1093.04"/>
<polygon fill="black" stroke="black" points="1280.48,-1096.2 1290.87,-1098.26 1284.03,-1090.17 1280.48,-1096.2"/>
</g>
<!-- Node0x55b6578eb5f8&#45;&gt;Node0x55b6578ee1b8 -->
<g id="edge88" class="edge">
<title>Node0x55b6578eb5f8&#45;&gt;Node0x55b6578ee1b8</title>
<path fill="none" stroke="black" d="M804.58,-202.39C820.44,-209.77 834.87,-219.77 846,-233.28 918.51,-321.32 802.34,-663.66 882,-745.28 936.26,-800.88 1174.89,-723.53 1230,-778.28 1286.25,-834.17 1218.06,-1070.13 1266,-1133.28 1281.05,-1153.11 1303.03,-1166.89 1326.09,-1176.47"/>
<polygon fill="black" stroke="black" points="1325.08,-1179.84 1335.67,-1180.2 1327.62,-1173.31 1325.08,-1179.84"/>
</g>
<!-- Node0x55b6578eb5f8&#45;&gt;Node0x55b6578ee938 -->
<g id="edge89" class="edge">
<title>Node0x55b6578eb5f8&#45;&gt;Node0x55b6578ee938</title>
<path fill="none" stroke="black" d="M793.43,-202.38C812.7,-209.58 831.07,-219.54 846,-233.28 880.75,-265.28 845.1,-303.8 882,-333.28 1003.76,-430.56 1110.97,-275.69 1230,-376.28 1333.76,-463.98 1409.37,-907.26 1427.71,-1024.05"/>
<polygon fill="black" stroke="black" points="1424.26,-1024.67 1429.26,-1034.01 1431.18,-1023.59 1424.26,-1024.67"/>
</g>
<!-- Node0x55b6578eb5f8&#45;&gt;Node0x55b6578ec278 -->
<g id="edge90" class="edge">
<title>Node0x55b6578eb5f8&#45;&gt;Node0x55b6578ec278</title>
<path fill="none" stroke="black" d="M805.93,-202.44C821.36,-209.83 835.32,-219.83 846,-233.28 918.86,-325.06 797.74,-1205.85 882,-1287.28 937.61,-1341.03 1153.13,-1295.72 1230,-1287.28 1246.29,-1285.5 1249.9,-1282.38 1266,-1279.28 1278.8,-1276.82 1292.17,-1274.4 1305.54,-1272.08"/>
<polygon fill="black" stroke="black" points="1306.49,-1275.46 1315.76,-1270.32 1305.31,-1268.57 1306.49,-1275.46"/>
</g>
<!-- Node0x55b6578eb5f8&#45;&gt;Node0x55b6578ee2f8 -->
<g id="edge86" class="edge">
<title>Node0x55b6578eb5f8&#45;&gt;Node0x55b6578ee2f8</title>
<path fill="none" stroke="black" d="M710.3,-166.17C895.73,-96.94 1593.42,131.21 1980,-192.28 2130.27,-318.03 2161.57,-990.43 2166.65,-1137.04"/>
<polygon fill="black" stroke="black" points="2163.15,-1137.17 2166.98,-1147.04 2170.14,-1136.93 2163.15,-1137.17"/>
</g>
<!-- Node0x55b6578eb5f8&#45;&gt;Node0x55b6578ea1f8 -->
<g id="edge91" class="edge">
<title>Node0x55b6578eb5f8&#45;&gt;Node0x55b6578ea1f8</title>
<path fill="none" stroke="black" d="M826.13,-198.4C1012.93,-215.13 1329.02,-244.85 1600,-277.28 1623.99,-280.15 1649.5,-283.49 1674.12,-286.86"/>
<polygon fill="black" stroke="black" points="1673.86,-290.36 1684.24,-288.26 1674.81,-283.43 1673.86,-290.36"/>
</g>
<!-- Node0x55b6578ecbd8 -->
<g id="node42" class="node">
<title>Node0x55b6578ecbd8</title>
<polygon fill="none" stroke="black" points="1217.5,-736.28 894.5,-736.28 894.5,-700.28 1217.5,-700.28 1217.5,-736.28"/>
<text text-anchor="middle" x="1056" y="-714.58" font-family="Times,serif" font-size="14.00">{lib/libLLVMMC.a(MCSectionCOFF.cpp.o)}</text>
</g>
<!-- Node0x55b6578ecbd8&#45;&gt;Node0x55b6578eb008 -->
<g id="edge112" class="edge">
<title>Node0x55b6578ecbd8&#45;&gt;Node0x55b6578eb008</title>
<path fill="none" stroke="black" d="M1213.81,-736.51C1219.67,-740.46 1225.12,-745.02 1230,-750.28 1330.1,-858.07 1164.74,-972.59 1266,-1079.28 1270.86,-1084.41 1276.29,-1088.8 1282.12,-1092.56"/>
<polygon fill="black" stroke="black" points="1280.54,-1095.69 1290.96,-1097.63 1284.02,-1089.62 1280.54,-1095.69"/>
</g>
<!-- Node0x55b6578ed218 -->
<g id="node43" class="node">
<title>Node0x55b6578ed218</title>
<polygon fill="none" stroke="black" points="1211.5,-1056.28 900.5,-1056.28 900.5,-1020.28 1211.5,-1020.28 1211.5,-1056.28"/>
<text text-anchor="middle" x="1056" y="-1034.58" font-family="Times,serif" font-size="14.00">{lib/libLLVMMC.a(MCSectionELF.cpp.o)}</text>
</g>
<!-- Node0x55b6578ed218&#45;&gt;Node0x55b6578ee1b8 -->
<g id="edge113" class="edge">
<title>Node0x55b6578ed218&#45;&gt;Node0x55b6578ee1b8</title>
<path fill="none" stroke="black" d="M1211.5,-1054.38C1217.98,-1057.52 1224.18,-1061.14 1230,-1065.28 1257.84,-1085.14 1240.48,-1110.52 1266,-1133.28 1288.1,-1153.01 1316.88,-1167.07 1344.26,-1176.94"/>
<polygon fill="black" stroke="black" points="1343.27,-1180.31 1353.87,-1180.27 1345.56,-1173.69 1343.27,-1180.31"/>
</g>
<!-- Node0x55b6578eb558 -->
<g id="node44" class="node">
<title>Node0x55b6578eb558</title>
<polygon fill="none" stroke="black" points="1219.5,-1278.28 892.5,-1278.28 892.5,-1242.28 1219.5,-1242.28 1219.5,-1278.28"/>
<text text-anchor="middle" x="1056" y="-1256.58" font-family="Times,serif" font-size="14.00">{lib/libLLVMMC.a(MCSectionWasm.cpp.o)}</text>
</g>
<!-- Node0x55b6578eb558&#45;&gt;Node0x55b6578eea28 -->
<g id="edge114" class="edge">
<title>Node0x55b6578eb558&#45;&gt;Node0x55b6578eea28</title>
<path fill="none" stroke="black" d="M1106.02,-1278.32C1174.81,-1303.64 1299.75,-1349.62 1373.37,-1376.71"/>
<polygon fill="black" stroke="black" points="1372.37,-1380.07 1382.96,-1380.24 1374.79,-1373.5 1372.37,-1380.07"/>
</g>
<!-- Node0x55b6578eb558&#45;&gt;Node0x55b6578ee1b8 -->
<g id="edge115" class="edge">
<title>Node0x55b6578eb558&#45;&gt;Node0x55b6578ee1b8</title>
<path fill="none" stroke="black" d="M1164.11,-1242.25C1196.81,-1236.77 1232.88,-1230.75 1266,-1225.28 1280.53,-1222.88 1295.79,-1220.38 1310.91,-1217.91"/>
<polygon fill="black" stroke="black" points="1311.51,-1221.36 1320.82,-1216.29 1310.39,-1214.45 1311.51,-1221.36"/>
</g>
<!-- Node0x55b6578eb5a8 -->
<g id="node45" class="node">
<title>Node0x55b6578eb5a8</title>
<polygon fill="none" stroke="black" points="422.5,-278.28 21.5,-278.28 21.5,-242.28 422.5,-242.28 422.5,-278.28"/>
<text text-anchor="middle" x="222" y="-256.58" font-family="Times,serif" font-size="14.00">{lib/libLLVMMC.a(MCLinkerOptimizationHint.cpp.o)}</text>
</g>
<!-- Node0x55b6578eb5a8&#45;&gt;Node0x55b6578eb238 -->
<g id="edge116" class="edge">
<title>Node0x55b6578eb5a8&#45;&gt;Node0x55b6578eb238</title>
<path fill="none" stroke="black" d="M422.59,-260.28C443.23,-260.28 464.1,-260.28 484.47,-260.28"/>
<polygon fill="black" stroke="black" points="484.75,-263.78 494.75,-260.28 484.75,-256.78 484.75,-263.78"/>
</g>
<!-- Node0x55b6578ec638 -->
<g id="node46" class="node">
<title>Node0x55b6578ec638</title>
<polygon fill="none" stroke="black" points="833,-1010.28 493,-1010.28 493,-974.28 833,-974.28 833,-1010.28"/>
<text text-anchor="middle" x="663" y="-988.58" font-family="Times,serif" font-size="14.00">{lib/libLLVMMC.a(WasmObjectWriter.cpp.o)}</text>
</g>
<!-- Node0x55b6578ec638&#45;&gt;Node0x55b6578ecd18 -->
<g id="edge118" class="edge">
<title>Node0x55b6578ec638&#45;&gt;Node0x55b6578ecd18</title>
<path fill="none" stroke="black" d="M678.5,-1010.56C710.75,-1051.65 789.99,-1155.02 846,-1248.28 864.42,-1278.95 853.41,-1298.77 882,-1320.28 888.52,-1325.19 895.57,-1329.42 902.95,-1333.06"/>
<polygon fill="black" stroke="black" points="901.93,-1336.44 912.48,-1337.37 904.81,-1330.06 901.93,-1336.44"/>
</g>
<!-- Node0x55b6578ec638&#45;&gt;Node0x55b6578ed448 -->
<g id="edge119" class="edge">
<title>Node0x55b6578ec638&#45;&gt;Node0x55b6578ed448</title>
<path fill="none" stroke="black" d="M680.4,-1010.43C715.73,-1050.44 799.59,-1150.49 846,-1248.28 871.89,-1302.83 841.79,-1334.24 882,-1379.28 984.25,-1493.82 1160.28,-1536.12 1285.64,-1551.6"/>
<polygon fill="black" stroke="black" points="1285.37,-1555.09 1295.71,-1552.8 1286.2,-1548.14 1285.37,-1555.09"/>
</g>
<!-- Node0x55b6578ec638&#45;&gt;Node0x55b6578ee1b8 -->
<g id="edge120" class="edge">
<title>Node0x55b6578ec638&#45;&gt;Node0x55b6578ee1b8</title>
<path fill="none" stroke="black" d="M722.27,-974.19C833.81,-943.44 1079.75,-894.98 1230,-1011.28 1274.71,-1045.89 1227.79,-1091.62 1266,-1133.28 1284.27,-1153.21 1309.4,-1167.1 1334.58,-1176.76"/>
<polygon fill="black" stroke="black" points="1333.62,-1180.14 1344.21,-1180.26 1336.01,-1173.56 1333.62,-1180.14"/>
</g>
<!-- Node0x55b6578ec638&#45;&gt;Node0x55b6578ee938 -->
<g id="edge121" class="edge">
<title>Node0x55b6578ec638&#45;&gt;Node0x55b6578ee938</title>
<path fill="none" stroke="black" d="M740.11,-974.16C777.79,-961.23 820.56,-939.83 846,-905.28 911.79,-815.96 798.09,-730.85 882,-658.28 940.49,-607.7 1164.01,-617.96 1230,-658.28 1365.97,-741.37 1414.19,-948.26 1427.61,-1023.96"/>
<polygon fill="black" stroke="black" points="1424.22,-1024.87 1429.35,-1034.15 1431.12,-1023.7 1424.22,-1024.87"/>
</g>
<!-- Node0x55b6578ec638&#45;&gt;Node0x55b6578ee2f8 -->
<g id="edge117" class="edge">
<title>Node0x55b6578ec638&#45;&gt;Node0x55b6578ee2f8</title>
<path fill="none" stroke="black" d="M740.84,-974.2C778.48,-961.31 820.99,-939.93 846,-905.28 920.73,-801.77 786.23,-704.72 882,-620.28 998.02,-518 1080.42,-580.93 1230,-620.28 1627.92,-724.98 2029.71,-1048.14 2138.74,-1140.44"/>
<polygon fill="black" stroke="black" points="2136.77,-1143.36 2146.66,-1147.17 2141.31,-1138.03 2136.77,-1143.36"/>
</g>
<!-- Node0x55b6578ec3b8 -->
<g id="node47" class="node">
<title>Node0x55b6578ec3b8</title>
<polygon fill="none" stroke="black" points="1230,-324.28 882,-324.28 882,-288.28 1230,-288.28 1230,-324.28"/>
<text text-anchor="middle" x="1056" y="-302.58" font-family="Times,serif" font-size="14.00">{lib/libLLVMMC.a(XCOFFObjectWriter.cpp.o)}</text>
</g>
<!-- Node0x55b6578ec3b8&#45;&gt;Node0x55b6578ee1b8 -->
<g id="edge122" class="edge">
<title>Node0x55b6578ec3b8&#45;&gt;Node0x55b6578ee1b8</title>
<path fill="none" stroke="black" d="M1084.11,-324.44C1124.35,-353.14 1198.51,-413.21 1230,-485.28 1287.74,-617.44 1181.44,-1016.46 1266,-1133.28 1280.35,-1153.12 1301.69,-1166.9 1324.32,-1176.48"/>
<polygon fill="black" stroke="black" points="1323.14,-1179.77 1333.73,-1180.2 1325.72,-1173.27 1323.14,-1179.77"/>
</g>
<!-- Node0x55b6578ec3b8&#45;&gt;Node0x55b6578ee938 -->
<g id="edge123" class="edge">
<title>Node0x55b6578ec3b8&#45;&gt;Node0x55b6578ee938</title>
<path fill="none" stroke="black" d="M1210.79,-324.41C1217.67,-328.34 1224.13,-332.93 1230,-338.28 1336.06,-434.93 1410.5,-904.07 1428.04,-1024.21"/>
<polygon fill="black" stroke="black" points="1424.57,-1024.72 1429.47,-1034.12 1431.5,-1023.72 1424.57,-1024.72"/>
</g>
<!-- Node0x55b6578ec3b8&#45;&gt;Node0x55b6578ea1f8 -->
<g id="edge124" class="edge">
<title>Node0x55b6578ec3b8&#45;&gt;Node0x55b6578ea1f8</title>
<path fill="none" stroke="black" d="M1230.01,-306.28C1349.09,-306.28 1506.9,-306.28 1627.38,-306.28"/>
<polygon fill="black" stroke="black" points="1627.45,-309.78 1637.45,-306.28 1627.45,-302.78 1627.45,-309.78"/>
</g>
</g>
</svg>
