<?xml version="1.0" encoding="UTF-8" standalone="no"?>
<!DOCTYPE svg PUBLIC "-//W3C//DTD SVG 1.1//EN"
 "http://www.w3.org/Graphics/SVG/1.1/DTD/svg11.dtd">
<!-- Generated by graphviz version 2.43.0 (0)
 -->
<!-- Title: bin/llvm&#45;reduce_lib/libLLVMAnalysis.a Pages: 1 -->
<svg width="915pt" height="2821pt"
 viewBox="0.00 0.00 915.00 2821.00" xmlns="http://www.w3.org/2000/svg" xmlns:xlink="http://www.w3.org/1999/xlink">
<g id="graph0" class="graph" transform="scale(1 1) rotate(0) translate(4 2817)">
<title>bin/llvm&#45;reduce_lib/libLLVMAnalysis.a</title>
<polygon fill="white" stroke="transparent" points="-4,4 -4,-2817 911,-2817 911,4 -4,4"/>
<text text-anchor="middle" x="453.5" y="-7.8" font-family="Times,serif" font-size="14.00">bin/llvm&#45;reduce_lib/libLLVMAnalysis.a</text>
<!-- Node0x55f927234a08 -->
<g id="node1" class="node">
<title>Node0x55f927234a08</title>
<polygon fill="none" stroke="black" points="392,-59 63,-59 63,-23 392,-23 392,-59"/>
<text text-anchor="middle" x="227.5" y="-37.3" font-family="Times,serif" font-size="14.00">{lib/libLLVMAnalysis.a(MemorySSA.cpp.o)}</text>
</g>
<!-- Node0x55f927231448 -->
<g id="node2" class="node">
<title>Node0x55f927231448</title>
<polygon fill="none" stroke="black" points="395,-113 60,-113 60,-77 395,-77 395,-113"/>
<text text-anchor="middle" x="227.5" y="-91.3" font-family="Times,serif" font-size="14.00">{lib/libLLVMAnalysis.a(AliasAnalysis.cpp.o)}</text>
</g>
<!-- Node0x55f927231cb8 -->
<g id="node3" class="node">
<title>Node0x55f927231cb8</title>
<polygon fill="none" stroke="black" points="428.5,-167 26.5,-167 26.5,-131 428.5,-131 428.5,-167"/>
<text text-anchor="middle" x="227.5" y="-145.3" font-family="Times,serif" font-size="14.00">{lib/libLLVMAnalysis.a(AssumeBundleQueries.cpp.o)}</text>
</g>
<!-- Node0x55f9272303b8 -->
<g id="node4" class="node">
<title>Node0x55f9272303b8</title>
<polygon fill="none" stroke="black" points="411.5,-221 43.5,-221 43.5,-185 411.5,-185 411.5,-221"/>
<text text-anchor="middle" x="227.5" y="-199.3" font-family="Times,serif" font-size="14.00">{lib/libLLVMAnalysis.a(AssumptionCache.cpp.o)}</text>
</g>
<!-- Node0x55f927231a38 -->
<g id="node5" class="node">
<title>Node0x55f927231a38</title>
<polygon fill="none" stroke="black" points="414,-275 41,-275 41,-239 414,-239 414,-275"/>
<text text-anchor="middle" x="227.5" y="-253.3" font-family="Times,serif" font-size="14.00">{lib/libLLVMAnalysis.a(BasicAliasAnalysis.cpp.o)}</text>
</g>
<!-- Node0x55f927232e88 -->
<g id="node6" class="node">
<title>Node0x55f927232e88</title>
<polygon fill="none" stroke="black" points="419,-329 36,-329 36,-293 419,-293 419,-329"/>
<text text-anchor="middle" x="227.5" y="-307.3" font-family="Times,serif" font-size="14.00">{lib/libLLVMAnalysis.a(BlockFrequencyInfo.cpp.o)}</text>
</g>
<!-- Node0x55f927233928 -->
<g id="node7" class="node">
<title>Node0x55f927233928</title>
<polygon fill="none" stroke="black" points="907,-329 491,-329 491,-293 907,-293 907,-329"/>
<text text-anchor="middle" x="699" y="-307.3" font-family="Times,serif" font-size="14.00">{lib/libLLVMAnalysis.a(BlockFrequencyInfoImpl.cpp.o)}</text>
</g>
<!-- Node0x55f927232e88&#45;&gt;Node0x55f927233928 -->
<g id="edge1" class="edge">
<title>Node0x55f927232e88&#45;&gt;Node0x55f927233928</title>
<path fill="none" stroke="black" d="M419.13,-311C439.43,-311 460.19,-311 480.77,-311"/>
<polygon fill="black" stroke="black" points="480.85,-314.5 490.85,-311 480.85,-307.5 480.85,-314.5"/>
</g>
<!-- Node0x55f92722f418 -->
<g id="node8" class="node">
<title>Node0x55f92722f418</title>
<polygon fill="none" stroke="black" points="426.5,-383 28.5,-383 28.5,-347 426.5,-347 426.5,-383"/>
<text text-anchor="middle" x="227.5" y="-361.3" font-family="Times,serif" font-size="14.00">{lib/libLLVMAnalysis.a(BranchProbabilityInfo.cpp.o)}</text>
</g>
<!-- Node0x55f92722fb98 -->
<g id="node9" class="node">
<title>Node0x55f92722fb98</title>
<polygon fill="none" stroke="black" points="363.5,-437 91.5,-437 91.5,-401 363.5,-401 363.5,-437"/>
<text text-anchor="middle" x="227.5" y="-415.3" font-family="Times,serif" font-size="14.00">{lib/libLLVMAnalysis.a(CFG.cpp.o)}</text>
</g>
<!-- Node0x55f92722f828 -->
<g id="node10" class="node">
<title>Node0x55f92722f828</title>
<polygon fill="none" stroke="black" points="434.5,-491 20.5,-491 20.5,-455 434.5,-455 434.5,-491"/>
<text text-anchor="middle" x="227.5" y="-469.3" font-family="Times,serif" font-size="14.00">{lib/libLLVMAnalysis.a(CFLAndersAliasAnalysis.cpp.o)}</text>
</g>
<!-- Node0x55f927231128 -->
<g id="node11" class="node">
<title>Node0x55f927231128</title>
<polygon fill="none" stroke="black" points="434,-545 21,-545 21,-509 434,-509 434,-545"/>
<text text-anchor="middle" x="227.5" y="-523.3" font-family="Times,serif" font-size="14.00">{lib/libLLVMAnalysis.a(CFLSteensAliasAnalysis.cpp.o)}</text>
</g>
<!-- Node0x55f92722c948 -->
<g id="node12" class="node">
<title>Node0x55f92722c948</title>
<polygon fill="none" stroke="black" points="408,-599 47,-599 47,-563 408,-563 408,-599"/>
<text text-anchor="middle" x="227.5" y="-577.3" font-family="Times,serif" font-size="14.00">{lib/libLLVMAnalysis.a(CaptureTracking.cpp.o)}</text>
</g>
<!-- Node0x55f927234558 -->
<g id="node13" class="node">
<title>Node0x55f927234558</title>
<polygon fill="none" stroke="black" points="407,-653 48,-653 48,-617 407,-617 407,-653"/>
<text text-anchor="middle" x="227.5" y="-631.3" font-family="Times,serif" font-size="14.00">{lib/libLLVMAnalysis.a(ConstantFolding.cpp.o)}</text>
</g>
<!-- Node0x55f92722e018 -->
<g id="node14" class="node">
<title>Node0x55f92722e018</title>
<polygon fill="none" stroke="black" points="421.5,-707 33.5,-707 33.5,-671 421.5,-671 421.5,-707"/>
<text text-anchor="middle" x="227.5" y="-685.3" font-family="Times,serif" font-size="14.00">{lib/libLLVMAnalysis.a(DependenceAnalysis.cpp.o)}</text>
</g>
<!-- Node0x55f92722e1a8 -->
<g id="node15" class="node">
<title>Node0x55f92722e1a8</title>
<polygon fill="none" stroke="black" points="409.5,-761 45.5,-761 45.5,-725 409.5,-725 409.5,-761"/>
<text text-anchor="middle" x="227.5" y="-739.3" font-family="Times,serif" font-size="14.00">{lib/libLLVMAnalysis.a(DomTreeUpdater.cpp.o)}</text>
</g>
<!-- Node0x55f92722c588 -->
<g id="node16" class="node">
<title>Node0x55f92722c588</title>
<polygon fill="none" stroke="black" points="405.5,-815 49.5,-815 49.5,-779 405.5,-779 405.5,-815"/>
<text text-anchor="middle" x="227.5" y="-793.3" font-family="Times,serif" font-size="14.00">{lib/libLLVMAnalysis.a(EHPersonalities.cpp.o)}</text>
</g>
<!-- Node0x55f92722c8f8 -->
<g id="node17" class="node">
<title>Node0x55f92722c8f8</title>
<polygon fill="none" stroke="black" points="402,-869 53,-869 53,-833 402,-833 402,-869"/>
<text text-anchor="middle" x="227.5" y="-847.3" font-family="Times,serif" font-size="14.00">{lib/libLLVMAnalysis.a(GlobalsModRef.cpp.o)}</text>
</g>
<!-- Node0x55f92722d578 -->
<g id="node18" class="node">
<title>Node0x55f92722d578</title>
<polygon fill="none" stroke="black" points="384,-923 71,-923 71,-887 384,-887 384,-923"/>
<text text-anchor="middle" x="227.5" y="-901.3" font-family="Times,serif" font-size="14.00">{lib/libLLVMAnalysis.a(CallGraph.cpp.o)}</text>
</g>
<!-- Node0x55f9272304a8 -->
<g id="node19" class="node">
<title>Node0x55f9272304a8</title>
<polygon fill="none" stroke="black" points="387.5,-977 67.5,-977 67.5,-941 387.5,-941 387.5,-977"/>
<text text-anchor="middle" x="227.5" y="-955.3" font-family="Times,serif" font-size="14.00">{lib/libLLVMAnalysis.a(GuardUtils.cpp.o)}</text>
</g>
<!-- Node0x55f9272310d8 -->
<g id="node20" class="node">
<title>Node0x55f9272310d8</title>
<polygon fill="none" stroke="black" points="416,-1031 39,-1031 39,-995 416,-995 416,-1031"/>
<text text-anchor="middle" x="227.5" y="-1009.3" font-family="Times,serif" font-size="14.00">{lib/libLLVMAnalysis.a(InstructionSimplify.cpp.o)}</text>
</g>
<!-- Node0x55f92722eba8 -->
<g id="node21" class="node">
<title>Node0x55f92722eba8</title>
<polygon fill="none" stroke="black" points="408,-1085 47,-1085 47,-1049 408,-1049 408,-1085"/>
<text text-anchor="middle" x="227.5" y="-1063.3" font-family="Times,serif" font-size="14.00">{lib/libLLVMAnalysis.a(CmpInstAnalysis.cpp.o)}</text>
</g>
<!-- Node0x55f927233748 -->
<g id="node22" class="node">
<title>Node0x55f927233748</title>
<polygon fill="none" stroke="black" points="379,-1139 76,-1139 76,-1103 379,-1103 379,-1139"/>
<text text-anchor="middle" x="227.5" y="-1117.3" font-family="Times,serif" font-size="14.00">{lib/libLLVMAnalysis.a(LoopInfo.cpp.o)}</text>
</g>
<!-- Node0x55f927231998 -->
<g id="node23" class="node">
<title>Node0x55f927231998</title>
<polygon fill="none" stroke="black" points="397,-1193 58,-1193 58,-1157 397,-1157 397,-1193"/>
<text text-anchor="middle" x="227.5" y="-1171.3" font-family="Times,serif" font-size="14.00">{lib/libLLVMAnalysis.a(IVDescriptors.cpp.o)}</text>
</g>
<!-- Node0x55f927232988 -->
<g id="node24" class="node">
<title>Node0x55f927232988</title>
<polygon fill="none" stroke="black" points="400.5,-1247 54.5,-1247 54.5,-1211 400.5,-1211 400.5,-1247"/>
<text text-anchor="middle" x="227.5" y="-1225.3" font-family="Times,serif" font-size="14.00">{lib/libLLVMAnalysis.a(DemandedBits.cpp.o)}</text>
</g>
<!-- Node0x55f927232118 -->
<g id="node25" class="node">
<title>Node0x55f927232118</title>
<polygon fill="none" stroke="black" points="411.5,-1301 43.5,-1301 43.5,-1265 411.5,-1265 411.5,-1301"/>
<text text-anchor="middle" x="227.5" y="-1279.3" font-family="Times,serif" font-size="14.00">{lib/libLLVMAnalysis.a(LoopNestAnalysis.cpp.o)}</text>
</g>
<!-- Node0x55f9272354a8 -->
<g id="node26" class="node">
<title>Node0x55f9272354a8</title>
<polygon fill="none" stroke="black" points="381.5,-1355 73.5,-1355 73.5,-1319 381.5,-1319 381.5,-1355"/>
<text text-anchor="middle" x="227.5" y="-1333.3" font-family="Times,serif" font-size="14.00">{lib/libLLVMAnalysis.a(LoopPass.cpp.o)}</text>
</g>
<!-- Node0x55f927236088 -->
<g id="node27" class="node">
<title>Node0x55f927236088</title>
<polygon fill="none" stroke="black" points="405.5,-1409 49.5,-1409 49.5,-1373 405.5,-1373 405.5,-1409"/>
<text text-anchor="middle" x="227.5" y="-1387.3" font-family="Times,serif" font-size="14.00">{lib/libLLVMAnalysis.a(MemoryBuiltins.cpp.o)}</text>
</g>
<!-- Node0x55f927234508 -->
<g id="node28" class="node">
<title>Node0x55f927234508</title>
<polygon fill="none" stroke="black" points="451,-1463 4,-1463 4,-1427 451,-1427 451,-1463"/>
<text text-anchor="middle" x="227.5" y="-1441.3" font-family="Times,serif" font-size="14.00">{lib/libLLVMAnalysis.a(MemoryDependenceAnalysis.cpp.o)}</text>
</g>
<!-- Node0x55f927233ce8 -->
<g id="node29" class="node">
<title>Node0x55f927233ce8</title>
<polygon fill="none" stroke="black" points="408,-1517 47,-1517 47,-1481 408,-1481 408,-1517"/>
<text text-anchor="middle" x="227.5" y="-1495.3" font-family="Times,serif" font-size="14.00">{lib/libLLVMAnalysis.a(MemoryLocation.cpp.o)}</text>
</g>
<!-- Node0x55f92722e2e8 -->
<g id="node30" class="node">
<title>Node0x55f92722e2e8</title>
<polygon fill="none" stroke="black" points="420.5,-1571 34.5,-1571 34.5,-1535 420.5,-1535 420.5,-1571"/>
<text text-anchor="middle" x="227.5" y="-1549.3" font-family="Times,serif" font-size="14.00">{lib/libLLVMAnalysis.a(MemorySSAUpdater.cpp.o)}</text>
</g>
<!-- Node0x55f92722ea18 -->
<g id="node31" class="node">
<title>Node0x55f92722ea18</title>
<polygon fill="none" stroke="black" points="428,-1625 27,-1625 27,-1589 428,-1589 428,-1625"/>
<text text-anchor="middle" x="227.5" y="-1603.3" font-family="Times,serif" font-size="14.00">{lib/libLLVMAnalysis.a(ObjCARCAliasAnalysis.cpp.o)}</text>
</g>
<!-- Node0x55f9272318f8 -->
<g id="node32" class="node">
<title>Node0x55f9272318f8</title>
<polygon fill="none" stroke="black" points="899.5,-1625 498.5,-1625 498.5,-1589 899.5,-1589 899.5,-1625"/>
<text text-anchor="middle" x="699" y="-1603.3" font-family="Times,serif" font-size="14.00">{lib/libLLVMAnalysis.a(ObjCARCAnalysisUtils.cpp.o)}</text>
</g>
<!-- Node0x55f92722ea18&#45;&gt;Node0x55f9272318f8 -->
<g id="edge2" class="edge">
<title>Node0x55f92722ea18&#45;&gt;Node0x55f9272318f8</title>
<path fill="none" stroke="black" d="M428.29,-1607C448.15,-1607 468.35,-1607 488.3,-1607"/>
<polygon fill="black" stroke="black" points="488.39,-1610.5 498.39,-1607 488.39,-1603.5 488.39,-1610.5"/>
</g>
<!-- Node0x55f927233ab8 -->
<g id="node33" class="node">
<title>Node0x55f927233ab8</title>
<polygon fill="none" stroke="black" points="411.5,-1679 43.5,-1679 43.5,-1643 411.5,-1643 411.5,-1679"/>
<text text-anchor="middle" x="227.5" y="-1657.3" font-family="Times,serif" font-size="14.00">{lib/libLLVMAnalysis.a(ObjCARCInstKind.cpp.o)}</text>
</g>
<!-- Node0x55f927232e38 -->
<g id="node34" class="node">
<title>Node0x55f927232e38</title>
<polygon fill="none" stroke="black" points="423.5,-1733 31.5,-1733 31.5,-1697 423.5,-1697 423.5,-1733"/>
<text text-anchor="middle" x="227.5" y="-1711.3" font-family="Times,serif" font-size="14.00">{lib/libLLVMAnalysis.a(OverflowInstAnalysis.cpp.o)}</text>
</g>
<!-- Node0x55f927232a28 -->
<g id="node35" class="node">
<title>Node0x55f927232a28</title>
<polygon fill="none" stroke="black" points="398,-1787 57,-1787 57,-1751 398,-1751 398,-1787"/>
<text text-anchor="middle" x="227.5" y="-1765.3" font-family="Times,serif" font-size="14.00">{lib/libLLVMAnalysis.a(PHITransAddr.cpp.o)}</text>
</g>
<!-- Node0x55f92722f8c8 -->
<g id="node36" class="node">
<title>Node0x55f92722f8c8</title>
<polygon fill="none" stroke="black" points="383,-1841 72,-1841 72,-1805 383,-1805 383,-1841"/>
<text text-anchor="middle" x="227.5" y="-1819.3" font-family="Times,serif" font-size="14.00">{lib/libLLVMAnalysis.a(PhiValues.cpp.o)}</text>
</g>
<!-- Node0x55f92722f0a8 -->
<g id="node37" class="node">
<title>Node0x55f92722f0a8</title>
<polygon fill="none" stroke="black" points="405,-1895 50,-1895 50,-1859 405,-1859 405,-1895"/>
<text text-anchor="middle" x="227.5" y="-1873.3" font-family="Times,serif" font-size="14.00">{lib/libLLVMAnalysis.a(PostDominators.cpp.o)}</text>
</g>
<!-- Node0x55f927231178 -->
<g id="node38" class="node">
<title>Node0x55f927231178</title>
<polygon fill="none" stroke="black" points="404.5,-1949 50.5,-1949 50.5,-1913 404.5,-1913 404.5,-1949"/>
<text text-anchor="middle" x="227.5" y="-1927.3" font-family="Times,serif" font-size="14.00">{lib/libLLVMAnalysis.a(ScalarEvolution.cpp.o)}</text>
</g>
<!-- Node0x55f9272309f8 -->
<g id="node39" class="node">
<title>Node0x55f9272309f8</title>
<polygon fill="none" stroke="black" points="451.5,-2003 3.5,-2003 3.5,-1967 451.5,-1967 451.5,-2003"/>
<text text-anchor="middle" x="227.5" y="-1981.3" font-family="Times,serif" font-size="14.00">{lib/libLLVMAnalysis.a(ScalarEvolutionAliasAnalysis.cpp.o)}</text>
</g>
<!-- Node0x55f927230368 -->
<g id="node40" class="node">
<title>Node0x55f927230368</title>
<polygon fill="none" stroke="black" points="433.5,-2057 21.5,-2057 21.5,-2021 433.5,-2021 433.5,-2057"/>
<text text-anchor="middle" x="227.5" y="-2035.3" font-family="Times,serif" font-size="14.00">{lib/libLLVMAnalysis.a(ScalarEvolutionDivision.cpp.o)}</text>
</g>
<!-- Node0x55f92722d5c8 -->
<g id="node41" class="node">
<title>Node0x55f92722d5c8</title>
<polygon fill="none" stroke="black" points="455,-2111 0,-2111 0,-2075 455,-2075 455,-2111"/>
<text text-anchor="middle" x="227.5" y="-2089.3" font-family="Times,serif" font-size="14.00">{lib/libLLVMAnalysis.a(ScalarEvolutionNormalization.cpp.o)}</text>
</g>
<!-- Node0x55f92722cda8 -->
<g id="node42" class="node">
<title>Node0x55f92722cda8</title>
<polygon fill="none" stroke="black" points="411.5,-2165 43.5,-2165 43.5,-2129 411.5,-2129 411.5,-2165"/>
<text text-anchor="middle" x="227.5" y="-2143.3" font-family="Times,serif" font-size="14.00">{lib/libLLVMAnalysis.a(TargetLibraryInfo.cpp.o)}</text>
</g>
<!-- Node0x55f9272332e8 -->
<g id="node43" class="node">
<title>Node0x55f9272332e8</title>
<polygon fill="none" stroke="black" points="422,-2219 33,-2219 33,-2183 422,-2183 422,-2219"/>
<text text-anchor="middle" x="227.5" y="-2197.3" font-family="Times,serif" font-size="14.00">{lib/libLLVMAnalysis.a(TargetTransformInfo.cpp.o)}</text>
</g>
<!-- Node0x55f927232fc8 -->
<g id="node44" class="node">
<title>Node0x55f927232fc8</title>
<polygon fill="none" stroke="black" points="434,-2273 21,-2273 21,-2237 434,-2237 434,-2273"/>
<text text-anchor="middle" x="227.5" y="-2251.3" font-family="Times,serif" font-size="14.00">{lib/libLLVMAnalysis.a(TypeBasedAliasAnalysis.cpp.o)}</text>
</g>
<!-- Node0x55f9272323e8 -->
<g id="node45" class="node">
<title>Node0x55f9272323e8</title>
<polygon fill="none" stroke="black" points="411,-2327 44,-2327 44,-2291 411,-2291 411,-2327"/>
<text text-anchor="middle" x="227.5" y="-2305.3" font-family="Times,serif" font-size="14.00">{lib/libLLVMAnalysis.a(ScopedNoAliasAA.cpp.o)}</text>
</g>
<!-- Node0x55f927231d58 -->
<g id="node46" class="node">
<title>Node0x55f927231d58</title>
<polygon fill="none" stroke="black" points="398.5,-2381 56.5,-2381 56.5,-2345 398.5,-2345 398.5,-2381"/>
<text text-anchor="middle" x="227.5" y="-2359.3" font-family="Times,serif" font-size="14.00">{lib/libLLVMAnalysis.a(ValueTracking.cpp.o)}</text>
</g>
<!-- Node0x55f927231ad8 -->
<g id="node47" class="node">
<title>Node0x55f927231ad8</title>
<polygon fill="none" stroke="black" points="369,-2435 86,-2435 86,-2399 369,-2399 369,-2435"/>
<text text-anchor="middle" x="227.5" y="-2413.3" font-family="Times,serif" font-size="14.00">{lib/libLLVMAnalysis.a(Loads.cpp.o)}</text>
</g>
<!-- Node0x55f927231218 -->
<g id="node48" class="node">
<title>Node0x55f927231218</title>
<polygon fill="none" stroke="black" points="449,-2489 6,-2489 6,-2453 449,-2453 449,-2489"/>
<text text-anchor="middle" x="227.5" y="-2467.3" font-family="Times,serif" font-size="14.00">{lib/libLLVMAnalysis.a(OptimizationRemarkEmitter.cpp.o)}</text>
</g>
<!-- Node0x55f927230228 -->
<g id="node49" class="node">
<title>Node0x55f927230228</title>
<polygon fill="none" stroke="black" points="443,-2543 12,-2543 12,-2507 443,-2507 443,-2543"/>
<text text-anchor="middle" x="227.5" y="-2521.3" font-family="Times,serif" font-size="14.00">{lib/libLLVMAnalysis.a(LazyBranchProbabilityInfo.cpp.o)}</text>
</g>
<!-- Node0x55f92722fa08 -->
<g id="node50" class="node">
<title>Node0x55f92722fa08</title>
<polygon fill="none" stroke="black" points="419.5,-2597 35.5,-2597 35.5,-2561 419.5,-2561 419.5,-2597"/>
<text text-anchor="middle" x="227.5" y="-2575.3" font-family="Times,serif" font-size="14.00">{lib/libLLVMAnalysis.a(ProfileSummaryInfo.cpp.o)}</text>
</g>
<!-- Node0x55f92722f328 -->
<g id="node51" class="node">
<title>Node0x55f92722f328</title>
<polygon fill="none" stroke="black" points="388,-2651 67,-2651 67,-2615 388,-2615 388,-2651"/>
<text text-anchor="middle" x="227.5" y="-2629.3" font-family="Times,serif" font-size="14.00">{lib/libLLVMAnalysis.a(VectorUtils.cpp.o)}</text>
</g>
<!-- Node0x55f92722ece8 -->
<g id="node52" class="node">
<title>Node0x55f92722ece8</title>
<polygon fill="none" stroke="black" points="419,-2705 36,-2705 36,-2669 419,-2669 419,-2705"/>
<text text-anchor="middle" x="227.5" y="-2683.3" font-family="Times,serif" font-size="14.00">{lib/libLLVMAnalysis.a(LoopAccessAnalysis.cpp.o)}</text>
</g>
<!-- Node0x55f927235278 -->
<g id="node53" class="node">
<title>Node0x55f927235278</title>
<polygon fill="none" stroke="black" points="404,-2759 51,-2759 51,-2723 404,-2723 404,-2759"/>
<text text-anchor="middle" x="227.5" y="-2737.3" font-family="Times,serif" font-size="14.00">{lib/libLLVMAnalysis.a(AliasSetTracker.cpp.o)}</text>
</g>
<!-- Node0x55f927235458 -->
<g id="node54" class="node">
<title>Node0x55f927235458</title>
<polygon fill="none" stroke="black" points="413,-2813 42,-2813 42,-2777 413,-2777 413,-2813"/>
<text text-anchor="middle" x="227.5" y="-2791.3" font-family="Times,serif" font-size="14.00">{lib/libLLVMAnalysis.a(VFABIDemangling.cpp.o)}</text>
</g>
</g>
</svg>
