<?xml version="1.0" encoding="UTF-8" standalone="no"?>
<!DOCTYPE svg PUBLIC "-//W3C//DTD SVG 1.1//EN"
 "http://www.w3.org/Graphics/SVG/1.1/DTD/svg11.dtd">
<!-- Generated by graphviz version 2.43.0 (0)
 -->
<!-- Title: bin/llvm&#45;ifs_lib/libLLVMObjectYAML.a Pages: 1 -->
<svg width="1777pt" height="666pt"
 viewBox="0.00 0.00 1777.00 666.06" xmlns="http://www.w3.org/2000/svg" xmlns:xlink="http://www.w3.org/1999/xlink">
<g id="graph0" class="graph" transform="scale(1 1) rotate(0) translate(4 662.06)">
<title>bin/llvm&#45;ifs_lib/libLLVMObjectYAML.a</title>
<polygon fill="white" stroke="transparent" points="-4,4 -4,-662.06 1773,-662.06 1773,4 -4,4"/>
<text text-anchor="middle" x="884.5" y="-7.8" font-family="Times,serif" font-size="14.00">bin/llvm&#45;ifs_lib/libLLVMObjectYAML.a</text>
<!-- Node0x561335861b88 -->
<g id="node1" class="node">
<title>Node0x561335861b88</title>
<polygon fill="none" stroke="black" points="335,-277.57 0,-277.57 0,-241.57 335,-241.57 335,-277.57"/>
<text text-anchor="middle" x="167.5" y="-255.87" font-family="Times,serif" font-size="14.00">{lib/libLLVMObjectYAML.a(yaml2obj.cpp.o)}</text>
</g>
<!-- Node0x561335863c08 -->
<g id="node2" class="node">
<title>Node0x561335863c08</title>
<polygon fill="none" stroke="black" points="747.5,-493.57 390.5,-493.57 390.5,-457.57 747.5,-457.57 747.5,-493.57"/>
<text text-anchor="middle" x="569" y="-471.87" font-family="Times,serif" font-size="14.00">{lib/libLLVMObjectYAML.a(ObjectYAML.cpp.o)}</text>
</g>
<!-- Node0x561335861b88&#45;&gt;Node0x561335863c08 -->
<g id="edge1" class="edge">
<title>Node0x561335861b88&#45;&gt;Node0x561335863c08</title>
<path fill="none" stroke="black" d="M201.87,-277.61C274.28,-316.76 445.7,-409.45 525.62,-452.65"/>
<polygon fill="black" stroke="black" points="523.98,-455.75 534.44,-457.42 527.31,-449.59 523.98,-455.75"/>
</g>
<!-- Node0x561335867bc8 -->
<g id="node3" class="node">
<title>Node0x561335867bc8</title>
<polygon fill="#7fb2ff" stroke="black" points="745.5,-655.57 392.5,-655.57 392.5,-619.57 745.5,-619.57 745.5,-655.57"/>
<text text-anchor="middle" x="569" y="-633.87" font-family="Times,serif" font-size="14.00">{lib/libLLVMObjectYAML.a(ELFEmitter.cpp.o)}</text>
</g>
<!-- Node0x561335861b88&#45;&gt;Node0x561335867bc8 -->
<g id="edge2" class="edge">
<title>Node0x561335861b88&#45;&gt;Node0x561335867bc8</title>
<path fill="none" stroke="black" d="M181,-277.79C210.7,-320.31 289.17,-428.08 371,-502.57 420.42,-547.55 485.7,-589.4 527.28,-614.24"/>
<polygon fill="black" stroke="black" points="525.64,-617.34 536.03,-619.42 529.21,-611.32 525.64,-617.34"/>
</g>
<!-- Node0x561335868848 -->
<g id="node4" class="node">
<title>Node0x561335868848</title>
<polygon fill="none" stroke="black" points="757.5,-277.57 380.5,-277.57 380.5,-241.57 757.5,-241.57 757.5,-277.57"/>
<text text-anchor="middle" x="569" y="-255.87" font-family="Times,serif" font-size="14.00">{lib/libLLVMObjectYAML.a(ArchiveEmitter.cpp.o)}</text>
</g>
<!-- Node0x561335861b88&#45;&gt;Node0x561335868848 -->
<g id="edge3" class="edge">
<title>Node0x561335861b88&#45;&gt;Node0x561335868848</title>
<path fill="none" stroke="black" d="M335.03,-259.57C346.62,-259.57 358.37,-259.57 370.1,-259.57"/>
<polygon fill="black" stroke="black" points="370.41,-263.07 380.41,-259.57 370.41,-256.07 370.41,-263.07"/>
</g>
<!-- Node0x561335866cc8 -->
<g id="node5" class="node">
<title>Node0x561335866cc8</title>
<polygon fill="none" stroke="black" points="751.5,-115.57 386.5,-115.57 386.5,-79.57 751.5,-79.57 751.5,-115.57"/>
<text text-anchor="middle" x="569" y="-93.87" font-family="Times,serif" font-size="14.00">{lib/libLLVMObjectYAML.a(COFFEmitter.cpp.o)}</text>
</g>
<!-- Node0x561335861b88&#45;&gt;Node0x561335866cc8 -->
<g id="edge4" class="edge">
<title>Node0x561335861b88&#45;&gt;Node0x561335866cc8</title>
<path fill="none" stroke="black" d="M188.6,-241.53C223.12,-211.69 297.11,-152.56 371,-124.57 376.88,-122.34 382.92,-120.29 389.07,-118.41"/>
<polygon fill="black" stroke="black" points="390.18,-121.74 398.81,-115.59 388.23,-115.01 390.18,-121.74"/>
</g>
<!-- Node0x5613358664f8 -->
<g id="node6" class="node">
<title>Node0x5613358664f8</title>
<polygon fill="none" stroke="black" points="756,-331.57 382,-331.57 382,-295.57 756,-295.57 756,-331.57"/>
<text text-anchor="middle" x="569" y="-309.87" font-family="Times,serif" font-size="14.00">{lib/libLLVMObjectYAML.a(MachOEmitter.cpp.o)}</text>
</g>
<!-- Node0x561335861b88&#45;&gt;Node0x5613358664f8 -->
<g id="edge5" class="edge">
<title>Node0x561335861b88&#45;&gt;Node0x5613358664f8</title>
<path fill="none" stroke="black" d="M301.81,-277.59C341.24,-282.92 384.56,-288.77 424.6,-294.19"/>
<polygon fill="black" stroke="black" points="424.33,-297.68 434.71,-295.55 425.27,-290.74 424.33,-297.68"/>
</g>
<!-- Node0x561335867218 -->
<g id="node7" class="node">
<title>Node0x561335867218</title>
<polygon fill="none" stroke="black" points="767,-223.57 371,-223.57 371,-187.57 767,-187.57 767,-223.57"/>
<text text-anchor="middle" x="569" y="-201.87" font-family="Times,serif" font-size="14.00">{lib/libLLVMObjectYAML.a(MinidumpEmitter.cpp.o)}</text>
</g>
<!-- Node0x561335861b88&#45;&gt;Node0x561335867218 -->
<g id="edge6" class="edge">
<title>Node0x561335861b88&#45;&gt;Node0x561335867218</title>
<path fill="none" stroke="black" d="M301.81,-241.55C341.24,-236.22 384.56,-230.36 424.6,-224.95"/>
<polygon fill="black" stroke="black" points="425.27,-228.39 434.71,-223.59 424.33,-221.46 425.27,-228.39"/>
</g>
<!-- Node0x561335865d78 -->
<g id="node8" class="node">
<title>Node0x561335865d78</title>
<polygon fill="none" stroke="black" points="752,-169.57 386,-169.57 386,-133.57 752,-133.57 752,-169.57"/>
<text text-anchor="middle" x="569" y="-147.87" font-family="Times,serif" font-size="14.00">{lib/libLLVMObjectYAML.a(WasmEmitter.cpp.o)}</text>
</g>
<!-- Node0x561335861b88&#45;&gt;Node0x561335865d78 -->
<g id="edge7" class="edge">
<title>Node0x561335861b88&#45;&gt;Node0x561335865d78</title>
<path fill="none" stroke="black" d="M205.63,-241.51C245.55,-222.86 311.33,-194.34 371,-178.57 380.57,-176.04 390.48,-173.74 400.51,-171.64"/>
<polygon fill="black" stroke="black" points="401.47,-175.02 410.59,-169.62 400.09,-168.16 401.47,-175.02"/>
</g>
<!-- Node0x561335862a88 -->
<g id="node9" class="node">
<title>Node0x561335862a88</title>
<polygon fill="#7fb2ff" stroke="black" points="1217,-655.57 877,-655.57 877,-619.57 1217,-619.57 1217,-655.57"/>
<text text-anchor="middle" x="1047" y="-633.87" font-family="Times,serif" font-size="14.00">{lib/libLLVMObjectYAML.a(ELFYAML.cpp.o)}</text>
</g>
<!-- Node0x561335863c08&#45;&gt;Node0x561335862a88 -->
<g id="edge8" class="edge">
<title>Node0x561335863c08&#45;&gt;Node0x561335862a88</title>
<path fill="none" stroke="black" d="M593.56,-493.75C633.91,-523.8 719.96,-583.24 803,-610.57 823.28,-617.24 844.97,-622.33 866.74,-626.21"/>
<polygon fill="black" stroke="black" points="866.29,-629.69 876.74,-627.91 867.46,-622.78 866.29,-629.69"/>
</g>
<!-- Node0x56133586b098 -->
<g id="node10" class="node">
<title>Node0x56133586b098</title>
<polygon fill="none" stroke="black" points="1223,-493.57 871,-493.57 871,-457.57 1223,-457.57 1223,-493.57"/>
<text text-anchor="middle" x="1047" y="-471.87" font-family="Times,serif" font-size="14.00">{lib/libLLVMObjectYAML.a(COFFYAML.cpp.o)}</text>
</g>
<!-- Node0x561335863c08&#45;&gt;Node0x56133586b098 -->
<g id="edge9" class="edge">
<title>Node0x561335863c08&#45;&gt;Node0x56133586b098</title>
<path fill="none" stroke="black" d="M747.58,-475.57C784.41,-475.57 823.3,-475.57 860.41,-475.57"/>
<polygon fill="black" stroke="black" points="860.82,-479.07 870.82,-475.57 860.82,-472.07 860.82,-479.07"/>
</g>
<!-- Node0x561335868ed8 -->
<g id="node11" class="node">
<title>Node0x561335868ed8</title>
<polygon fill="none" stroke="black" points="1227.5,-547.57 866.5,-547.57 866.5,-511.57 1227.5,-511.57 1227.5,-547.57"/>
<text text-anchor="middle" x="1047" y="-525.87" font-family="Times,serif" font-size="14.00">{lib/libLLVMObjectYAML.a(MachOYAML.cpp.o)}</text>
</g>
<!-- Node0x561335863c08&#45;&gt;Node0x561335868ed8 -->
<g id="edge10" class="edge">
<title>Node0x561335863c08&#45;&gt;Node0x561335868ed8</title>
<path fill="none" stroke="black" d="M724.46,-493.57C750.67,-496.6 777.61,-499.69 803,-502.57 825.6,-505.13 849.39,-507.81 872.88,-510.43"/>
<polygon fill="black" stroke="black" points="872.6,-513.92 882.93,-511.56 873.38,-506.97 872.6,-513.92"/>
</g>
<!-- Node0x561335869c48 -->
<g id="node12" class="node">
<title>Node0x561335869c48</title>
<polygon fill="none" stroke="black" points="1223.5,-439.57 870.5,-439.57 870.5,-403.57 1223.5,-403.57 1223.5,-439.57"/>
<text text-anchor="middle" x="1047" y="-417.87" font-family="Times,serif" font-size="14.00">{lib/libLLVMObjectYAML.a(WasmYAML.cpp.o)}</text>
</g>
<!-- Node0x561335863c08&#45;&gt;Node0x561335869c48 -->
<g id="edge11" class="edge">
<title>Node0x561335863c08&#45;&gt;Node0x561335869c48</title>
<path fill="none" stroke="black" d="M724.46,-457.57C750.67,-454.54 777.61,-451.45 803,-448.57 825.6,-446 849.39,-443.33 872.88,-440.7"/>
<polygon fill="black" stroke="black" points="873.38,-444.17 882.93,-439.58 872.6,-437.21 873.38,-444.17"/>
</g>
<!-- Node0x561335868118 -->
<g id="node13" class="node">
<title>Node0x561335868118</title>
<polygon fill="none" stroke="black" points="1229.5,-331.57 864.5,-331.57 864.5,-295.57 1229.5,-295.57 1229.5,-331.57"/>
<text text-anchor="middle" x="1047" y="-309.87" font-family="Times,serif" font-size="14.00">{lib/libLLVMObjectYAML.a(ArchiveYAML.cpp.o)}</text>
</g>
<!-- Node0x561335863c08&#45;&gt;Node0x561335868118 -->
<g id="edge12" class="edge">
<title>Node0x561335863c08&#45;&gt;Node0x561335868118</title>
<path fill="none" stroke="black" d="M593.56,-457.39C633.91,-427.33 719.96,-367.89 803,-340.57 819.35,-335.19 836.61,-330.84 854.09,-327.32"/>
<polygon fill="black" stroke="black" points="855.24,-330.66 864.4,-325.35 853.92,-323.79 855.24,-330.66"/>
</g>
<!-- Node0x561335867c18 -->
<g id="node14" class="node">
<title>Node0x561335867c18</title>
<polygon fill="none" stroke="black" points="1238.5,-601.57 855.5,-601.57 855.5,-565.57 1238.5,-565.57 1238.5,-601.57"/>
<text text-anchor="middle" x="1047" y="-579.87" font-family="Times,serif" font-size="14.00">{lib/libLLVMObjectYAML.a(MinidumpYAML.cpp.o)}</text>
</g>
<!-- Node0x561335863c08&#45;&gt;Node0x561335867c18 -->
<g id="edge13" class="edge">
<title>Node0x561335863c08&#45;&gt;Node0x561335867c18</title>
<path fill="none" stroke="black" d="M612.53,-493.6C658.61,-512.36 734.71,-541.11 803,-556.57 816.71,-559.67 830.93,-562.42 845.32,-564.86"/>
<polygon fill="black" stroke="black" points="844.86,-568.33 855.29,-566.5 845.99,-561.43 844.86,-568.33"/>
</g>
<!-- Node0x561335867bc8&#45;&gt;Node0x561335862a88 -->
<g id="edge14" class="edge">
<title>Node0x561335867bc8&#45;&gt;Node0x561335862a88</title>
<path fill="none" stroke="#7fb2ff" d="M745.55,-631.03C785.12,-630.76 827.17,-630.75 866.89,-631.01"/>
<polygon fill="#7fb2ff" stroke="#7fb2ff" points="866.91,-634.51 876.93,-631.08 866.96,-627.51 866.91,-634.51"/>
</g>
<!-- Node0x561335867ee8 -->
<g id="node15" class="node">
<title>Node0x561335867ee8</title>
<polygon fill="none" stroke="black" points="1202.5,-169.57 891.5,-169.57 891.5,-133.57 1202.5,-133.57 1202.5,-169.57"/>
<text text-anchor="middle" x="1047" y="-147.87" font-family="Times,serif" font-size="14.00">{lib/libLLVMObjectYAML.a(YAML.cpp.o)}</text>
</g>
<!-- Node0x561335867bc8&#45;&gt;Node0x561335867ee8 -->
<g id="edge15" class="edge">
<title>Node0x561335867bc8&#45;&gt;Node0x561335867ee8</title>
<path fill="none" stroke="black" d="M616.63,-619.44C663.17,-598.69 732.55,-559.99 767,-502.57 804.27,-440.45 751.78,-229.79 803,-178.57 824.1,-157.47 851.94,-145.92 881.22,-140.27"/>
<polygon fill="black" stroke="black" points="881.93,-143.7 891.2,-138.57 880.76,-136.8 881.93,-143.7"/>
</g>
<!-- Node0x561335866e58 -->
<g id="node16" class="node">
<title>Node0x561335866e58</title>
<polygon fill="#7fffd8" stroke="black" points="1236,-277.57 858,-277.57 858,-241.57 1236,-241.57 1236,-277.57"/>
<text text-anchor="middle" x="1047" y="-255.87" font-family="Times,serif" font-size="14.00">{lib/libLLVMObjectYAML.a(DWARFEmitter.cpp.o)}</text>
</g>
<!-- Node0x561335867bc8&#45;&gt;Node0x561335866e58 -->
<g id="edge16" class="edge">
<title>Node0x561335867bc8&#45;&gt;Node0x561335866e58</title>
<path fill="none" stroke="black" d="M615.15,-619.43C661.17,-598.46 730.78,-559.38 767,-502.57 819.32,-420.5 732.33,-353.49 803,-286.57 816.01,-274.25 831.34,-265.26 847.87,-258.83"/>
<polygon fill="black" stroke="black" points="849.47,-261.98 857.73,-255.34 847.13,-255.38 849.47,-261.98"/>
</g>
<!-- Node0x561335866c78 -->
<g id="node17" class="node">
<title>Node0x561335866c78</title>
<polygon fill="#7fffd8" stroke="black" points="1229.5,-385.57 864.5,-385.57 864.5,-349.57 1229.5,-349.57 1229.5,-385.57"/>
<text text-anchor="middle" x="1047" y="-363.87" font-family="Times,serif" font-size="14.00">{lib/libLLVMObjectYAML.a(DWARFYAML.cpp.o)}</text>
</g>
<!-- Node0x561335867bc8&#45;&gt;Node0x561335866c78 -->
<g id="edge17" class="edge">
<title>Node0x561335867bc8&#45;&gt;Node0x561335866c78</title>
<path fill="none" stroke="black" d="M610.97,-619.43C655.46,-597.73 725.7,-557.37 767,-502.57 797.45,-462.16 763.65,-426.38 803,-394.57 818.32,-382.18 836.07,-373.4 854.87,-367.32"/>
<polygon fill="black" stroke="black" points="855.89,-370.67 864.48,-364.47 853.9,-363.96 855.89,-370.67"/>
</g>
<!-- Node0x561335868848&#45;&gt;Node0x561335867ee8 -->
<g id="edge18" class="edge">
<title>Node0x561335868848&#45;&gt;Node0x561335867ee8</title>
<path fill="none" stroke="black" d="M750.56,-241.5C756.23,-238.83 761.73,-235.87 767,-232.57 791.45,-217.26 778.36,-193.56 803,-178.57 826.49,-164.27 853.66,-155.48 881.14,-150.33"/>
<polygon fill="black" stroke="black" points="882,-153.73 891.27,-148.59 880.82,-146.83 882,-153.73"/>
</g>
<!-- Node0x561335866cc8&#45;&gt;Node0x561335867ee8 -->
<g id="edge19" class="edge">
<title>Node0x561335866cc8&#45;&gt;Node0x561335867ee8</title>
<path fill="none" stroke="black" d="M724.46,-115.57C750.67,-118.6 777.61,-121.69 803,-124.57 828.34,-127.44 855.17,-130.46 881.39,-133.38"/>
<polygon fill="black" stroke="black" points="881.08,-136.87 891.4,-134.5 881.85,-129.91 881.08,-136.87"/>
</g>
<!-- Node0x56133586ab98 -->
<g id="node18" class="node">
<title>Node0x56133586ab98</title>
<polygon fill="none" stroke="black" points="1284,-223.57 810,-223.57 810,-187.57 1284,-187.57 1284,-223.57"/>
<text text-anchor="middle" x="1047" y="-201.87" font-family="Times,serif" font-size="14.00">{lib/libLLVMObjectYAML.a(CodeViewYAMLTypeHashing.cpp.o)}</text>
</g>
<!-- Node0x561335866cc8&#45;&gt;Node0x56133586ab98 -->
<g id="edge20" class="edge">
<title>Node0x561335866cc8&#45;&gt;Node0x56133586ab98</title>
<path fill="none" stroke="black" d="M750.56,-115.63C756.23,-118.3 761.73,-121.27 767,-124.57 791.45,-139.88 778.36,-163.57 803,-178.57 805.51,-180.09 808.06,-181.56 810.64,-182.96"/>
<polygon fill="black" stroke="black" points="809.08,-186.09 819.58,-187.5 812.25,-179.85 809.08,-186.09"/>
</g>
<!-- Node0x561335869c98 -->
<g id="node19" class="node">
<title>Node0x561335869c98</title>
<polygon fill="none" stroke="black" points="1291,-61.57 803,-61.57 803,-25.57 1291,-25.57 1291,-61.57"/>
<text text-anchor="middle" x="1047" y="-39.87" font-family="Times,serif" font-size="14.00">{lib/libLLVMObjectYAML.a(CodeViewYAMLDebugSections.cpp.o)}</text>
</g>
<!-- Node0x561335866cc8&#45;&gt;Node0x561335869c98 -->
<g id="edge21" class="edge">
<title>Node0x561335866cc8&#45;&gt;Node0x561335869c98</title>
<path fill="none" stroke="black" d="M724.46,-79.57C750.67,-76.54 777.61,-73.45 803,-70.57 825.6,-68 849.39,-65.33 872.88,-62.7"/>
<polygon fill="black" stroke="black" points="873.38,-66.17 882.93,-61.58 872.6,-59.21 873.38,-66.17"/>
</g>
<!-- Node0x561335868d98 -->
<g id="node20" class="node">
<title>Node0x561335868d98</title>
<polygon fill="none" stroke="black" points="1258,-115.57 836,-115.57 836,-79.57 1258,-79.57 1258,-115.57"/>
<text text-anchor="middle" x="1047" y="-93.87" font-family="Times,serif" font-size="14.00">{lib/libLLVMObjectYAML.a(CodeViewYAMLTypes.cpp.o)}</text>
</g>
<!-- Node0x561335866cc8&#45;&gt;Node0x561335868d98 -->
<g id="edge22" class="edge">
<title>Node0x561335866cc8&#45;&gt;Node0x561335868d98</title>
<path fill="none" stroke="black" d="M751.65,-97.57C775.89,-97.57 800.95,-97.57 825.75,-97.57"/>
<polygon fill="black" stroke="black" points="825.98,-101.07 835.98,-97.57 825.98,-94.07 825.98,-101.07"/>
</g>
<!-- Node0x5613358664f8&#45;&gt;Node0x561335867ee8 -->
<g id="edge23" class="edge">
<title>Node0x5613358664f8&#45;&gt;Node0x561335867ee8</title>
<path fill="none" stroke="black" d="M754.89,-295.35C759.1,-292.69 763.15,-289.76 767,-286.57 805.94,-254.26 763.65,-210.38 803,-178.57 825.37,-160.49 852.92,-150.08 881.34,-144.56"/>
<polygon fill="black" stroke="black" points="882.17,-147.97 891.43,-142.81 880.97,-141.08 882.17,-147.97"/>
</g>
<!-- Node0x5613358664f8&#45;&gt;Node0x561335866e58 -->
<g id="edge24" class="edge">
<title>Node0x5613358664f8&#45;&gt;Node0x561335866e58</title>
<path fill="none" stroke="black" d="M724.46,-295.57C750.67,-292.54 777.61,-289.45 803,-286.57 825.6,-284 849.39,-281.33 872.88,-278.7"/>
<polygon fill="black" stroke="black" points="873.38,-282.17 882.93,-277.58 872.6,-275.21 873.38,-282.17"/>
</g>
<!-- Node0x5613358664f8&#45;&gt;Node0x561335866c78 -->
<g id="edge25" class="edge">
<title>Node0x5613358664f8&#45;&gt;Node0x561335866c78</title>
<path fill="none" stroke="black" d="M724.46,-331.57C750.67,-334.6 777.61,-337.69 803,-340.57 825.6,-343.13 849.39,-345.81 872.88,-348.43"/>
<polygon fill="black" stroke="black" points="872.6,-351.92 882.93,-349.56 873.38,-344.97 872.6,-351.92"/>
</g>
<!-- Node0x561335867218&#45;&gt;Node0x561335867ee8 -->
<g id="edge26" class="edge">
<title>Node0x561335867218&#45;&gt;Node0x561335867ee8</title>
<path fill="none" stroke="black" d="M724.46,-187.57C750.67,-184.54 777.61,-181.45 803,-178.57 828.34,-175.69 855.17,-172.68 881.39,-169.75"/>
<polygon fill="black" stroke="black" points="881.85,-173.22 891.4,-168.64 881.08,-166.27 881.85,-173.22"/>
</g>
<!-- Node0x561335865d78&#45;&gt;Node0x561335867ee8 -->
<g id="edge27" class="edge">
<title>Node0x561335865d78&#45;&gt;Node0x561335867ee8</title>
<path fill="none" stroke="black" d="M752.33,-151.57C794.74,-151.57 839.65,-151.57 881.25,-151.57"/>
<polygon fill="black" stroke="black" points="881.47,-155.07 891.47,-151.57 881.47,-148.07 881.47,-155.07"/>
</g>
<!-- Node0x561335862a88&#45;&gt;Node0x561335867bc8 -->
<g id="edge29" class="edge">
<title>Node0x561335862a88&#45;&gt;Node0x561335867bc8</title>
<path fill="none" stroke="#7fb2ff" d="M876.93,-644.06C837.65,-644.36 795.62,-644.4 755.67,-644.17"/>
<polygon fill="#7fb2ff" stroke="#7fb2ff" points="755.58,-640.67 745.55,-644.11 755.53,-647.67 755.58,-640.67"/>
</g>
<!-- Node0x561335862a88&#45;&gt;Node0x561335867ee8 -->
<g id="edge28" class="edge">
<title>Node0x561335862a88&#45;&gt;Node0x561335867ee8</title>
<path fill="none" stroke="black" d="M957.15,-655.57C895.6,-662 819.16,-656.83 785,-601.57 772.91,-582 772.91,-207.13 785,-187.57 817.29,-135.33 887.36,-127.85 946.92,-132.62"/>
<polygon fill="black" stroke="black" points="946.87,-136.13 957.15,-133.56 947.51,-129.16 946.87,-136.13"/>
</g>
<!-- Node0x561335862a88&#45;&gt;Node0x561335866c78 -->
<g id="edge30" class="edge">
<title>Node0x561335862a88&#45;&gt;Node0x561335866c78</title>
<path fill="none" stroke="black" d="M957.15,-655.57C895.6,-662 819.16,-656.83 785,-601.57 761.87,-564.14 761.87,-441 785,-403.57 817.29,-351.33 887.36,-343.85 946.92,-348.62"/>
<polygon fill="black" stroke="black" points="946.87,-352.13 957.15,-349.56 947.51,-345.16 946.87,-352.13"/>
</g>
<!-- Node0x56133586b098&#45;&gt;Node0x561335867ee8 -->
<g id="edge31" class="edge">
<title>Node0x56133586b098&#45;&gt;Node0x561335867ee8</title>
<path fill="none" stroke="black" d="M957.15,-493.57C895.6,-500 819.16,-494.83 785,-439.57 770.28,-415.75 770.28,-211.39 785,-187.57 817.29,-135.33 887.36,-127.85 946.92,-132.62"/>
<polygon fill="black" stroke="black" points="946.87,-136.13 957.15,-133.56 947.51,-129.16 946.87,-136.13"/>
</g>
<!-- Node0x56133586b098&#45;&gt;Node0x56133586ab98 -->
<g id="edge32" class="edge">
<title>Node0x56133586b098&#45;&gt;Node0x56133586ab98</title>
<path fill="none" stroke="black" d="M957.15,-493.57C895.6,-500 819.16,-494.83 785,-439.57 761.87,-402.14 761.87,-279 785,-241.57 817.29,-189.33 887.36,-181.85 946.92,-186.62"/>
<polygon fill="black" stroke="black" points="946.87,-190.13 957.15,-187.56 947.51,-183.16 946.87,-190.13"/>
</g>
<!-- Node0x56133586b098&#45;&gt;Node0x561335869c98 -->
<g id="edge33" class="edge">
<title>Node0x56133586b098&#45;&gt;Node0x561335869c98</title>
<path fill="none" stroke="black" d="M957.15,-493.57C895.6,-500 819.16,-494.83 785,-439.57 763.97,-405.54 763.97,-113.59 785,-79.57 817.29,-27.33 887.36,-19.85 946.92,-24.62"/>
<polygon fill="black" stroke="black" points="946.87,-28.13 957.15,-25.56 947.51,-21.16 946.87,-28.13"/>
</g>
<!-- Node0x56133586b098&#45;&gt;Node0x561335868d98 -->
<g id="edge34" class="edge">
<title>Node0x56133586b098&#45;&gt;Node0x561335868d98</title>
<path fill="none" stroke="black" d="M957.15,-493.57C895.6,-500 819.16,-494.83 785,-439.57 767.13,-410.65 767.13,-162.49 785,-133.57 817.29,-81.33 887.36,-73.85 946.92,-78.62"/>
<polygon fill="black" stroke="black" points="946.87,-82.13 957.15,-79.56 947.51,-75.16 946.87,-82.13"/>
</g>
<!-- Node0x561335868ed8&#45;&gt;Node0x561335867ee8 -->
<g id="edge35" class="edge">
<title>Node0x561335868ed8&#45;&gt;Node0x561335867ee8</title>
<path fill="none" stroke="black" d="M957.15,-547.57C895.6,-554 819.16,-548.83 785,-493.57 767.13,-464.65 767.13,-216.49 785,-187.57 817.29,-135.33 887.36,-127.85 946.92,-132.62"/>
<polygon fill="black" stroke="black" points="946.87,-136.13 957.15,-133.56 947.51,-129.16 946.87,-136.13"/>
</g>
<!-- Node0x561335868ed8&#45;&gt;Node0x561335866c78 -->
<g id="edge36" class="edge">
<title>Node0x561335868ed8&#45;&gt;Node0x561335866c78</title>
<path fill="none" stroke="black" d="M957.15,-547.57C895.6,-554 819.16,-548.83 785,-493.57 763.97,-459.54 763.97,-437.59 785,-403.57 817.29,-351.33 887.36,-343.85 946.92,-348.62"/>
<polygon fill="black" stroke="black" points="946.87,-352.13 957.15,-349.56 947.51,-345.16 946.87,-352.13"/>
</g>
<!-- Node0x561335869c48&#45;&gt;Node0x561335867ee8 -->
<g id="edge37" class="edge">
<title>Node0x561335869c48&#45;&gt;Node0x561335867ee8</title>
<path fill="none" stroke="black" d="M957.15,-439.57C895.6,-446 819.16,-440.83 785,-385.57 761.87,-348.14 761.87,-225 785,-187.57 817.29,-135.33 887.36,-127.85 946.92,-132.62"/>
<polygon fill="black" stroke="black" points="946.87,-136.13 957.15,-133.56 947.51,-129.16 946.87,-136.13"/>
</g>
<!-- Node0x561335868118&#45;&gt;Node0x561335867ee8 -->
<g id="edge38" class="edge">
<title>Node0x561335868118&#45;&gt;Node0x561335867ee8</title>
<path fill="none" stroke="black" d="M957.15,-331.57C895.6,-338 819.16,-332.83 785,-277.57 763.97,-243.54 763.97,-221.59 785,-187.57 817.29,-135.33 887.36,-127.85 946.92,-132.62"/>
<polygon fill="black" stroke="black" points="946.87,-136.13 957.15,-133.56 947.51,-129.16 946.87,-136.13"/>
</g>
<!-- Node0x561335867c18&#45;&gt;Node0x561335867ee8 -->
<g id="edge39" class="edge">
<title>Node0x561335867c18&#45;&gt;Node0x561335867ee8</title>
<path fill="none" stroke="black" d="M957.15,-601.57C895.6,-608 819.16,-602.83 785,-547.57 763.97,-513.54 763.97,-221.59 785,-187.57 817.29,-135.33 887.36,-127.85 946.92,-132.62"/>
<polygon fill="black" stroke="black" points="946.87,-136.13 957.15,-133.56 947.51,-129.16 946.87,-136.13"/>
</g>
<!-- Node0x561335866e58&#45;&gt;Node0x561335867ee8 -->
<g id="edge42" class="edge">
<title>Node0x561335866e58&#45;&gt;Node0x561335867ee8</title>
<path fill="none" stroke="black" d="M857.89,-258.54C800.27,-250.31 758.34,-230.71 785,-187.57 817.29,-135.33 887.36,-127.85 946.92,-132.62"/>
<polygon fill="black" stroke="black" points="946.87,-136.13 957.15,-133.56 947.51,-129.16 946.87,-136.13"/>
</g>
<!-- Node0x561335866e58&#45;&gt;Node0x561335866c78 -->
<g id="edge43" class="edge">
<title>Node0x561335866e58&#45;&gt;Node0x561335866c78</title>
<path fill="none" stroke="#7fffd8" d="M949.74,-241.55C887.78,-236.4 812.99,-243.57 779,-298.57 751.78,-342.61 794.96,-361.8 854.09,-369.25"/>
<polygon fill="#7fffd8" stroke="#7fffd8" points="853.77,-372.74 864.1,-370.39 854.56,-365.79 853.77,-372.74"/>
</g>
<!-- Node0x561335866c78&#45;&gt;Node0x561335867ee8 -->
<g id="edge40" class="edge">
<title>Node0x561335866c78&#45;&gt;Node0x561335867ee8</title>
<path fill="none" stroke="black" d="M957.15,-385.57C895.6,-392 819.16,-386.83 785,-331.57 768.18,-304.35 768.18,-214.79 785,-187.57 817.29,-135.33 887.36,-127.85 946.92,-132.62"/>
<polygon fill="black" stroke="black" points="946.87,-136.13 957.15,-133.56 947.51,-129.16 946.87,-136.13"/>
</g>
<!-- Node0x561335866c78&#45;&gt;Node0x561335866e58 -->
<g id="edge41" class="edge">
<title>Node0x561335866c78&#45;&gt;Node0x561335866e58</title>
<path fill="none" stroke="#7fffd8" d="M962.99,-385.59C902.22,-393.06 825.04,-389.65 791,-334.57 767.09,-295.88 799.19,-275.84 847.86,-265.83"/>
<polygon fill="#7fffd8" stroke="#7fffd8" points="848.62,-269.25 857.8,-263.96 847.33,-262.37 848.62,-269.25"/>
</g>
<!-- Node0x56133586ab98&#45;&gt;Node0x561335867ee8 -->
<g id="edge44" class="edge">
<title>Node0x56133586ab98&#45;&gt;Node0x561335867ee8</title>
<path fill="none" stroke="black" d="M1047,-187.36C1047,-184.88 1047,-182.39 1047,-179.91"/>
<polygon fill="black" stroke="black" points="1050.5,-179.71 1047,-169.71 1043.5,-179.71 1050.5,-179.71"/>
</g>
<!-- Node0x561335869978 -->
<g id="node21" class="node">
<title>Node0x561335869978</title>
<polygon fill="none" stroke="black" points="1769,-115.57 1327,-115.57 1327,-79.57 1769,-79.57 1769,-115.57"/>
<text text-anchor="middle" x="1548" y="-93.87" font-family="Times,serif" font-size="14.00">{lib/libLLVMObjectYAML.a(CodeViewYAMLSymbols.cpp.o)}</text>
</g>
<!-- Node0x561335869c98&#45;&gt;Node0x561335869978 -->
<g id="edge45" class="edge">
<title>Node0x561335869c98&#45;&gt;Node0x561335869978</title>
<path fill="none" stroke="black" d="M1214.51,-61.59C1264.59,-67.01 1319.71,-72.97 1370.43,-78.46"/>
<polygon fill="black" stroke="black" points="1370.19,-81.96 1380.51,-79.55 1370.94,-75 1370.19,-81.96"/>
</g>
<!-- Node0x561335869978&#45;&gt;Node0x561335867ee8 -->
<g id="edge46" class="edge">
<title>Node0x561335869978&#45;&gt;Node0x561335867ee8</title>
<path fill="none" stroke="black" d="M1380.48,-115.59C1326.49,-121.43 1266.66,-127.91 1212.8,-133.73"/>
<polygon fill="black" stroke="black" points="1212.38,-130.26 1202.81,-134.82 1213.13,-137.22 1212.38,-130.26"/>
</g>
<!-- Node0x561335869978&#45;&gt;Node0x561335868d98 -->
<g id="edge47" class="edge">
<title>Node0x561335869978&#45;&gt;Node0x561335868d98</title>
<path fill="none" stroke="black" d="M1326.65,-97.57C1307.28,-97.57 1287.66,-97.57 1268.28,-97.57"/>
<polygon fill="black" stroke="black" points="1268.17,-94.07 1258.17,-97.57 1268.17,-101.07 1268.17,-94.07"/>
</g>
</g>
</svg>
