<?xml version="1.0" encoding="UTF-8" standalone="no"?>
<!DOCTYPE svg PUBLIC "-//W3C//DTD SVG 1.1//EN"
 "http://www.w3.org/Graphics/SVG/1.1/DTD/svg11.dtd">
<!-- Generated by graphviz version 2.43.0 (0)
 -->
<!-- Title: lib/libLTO.so.13git_lib/libLLVMInstCombine.a Pages: 1 -->
<svg width="1427pt" height="722pt"
 viewBox="0.00 0.00 1427.00 721.57" xmlns="http://www.w3.org/2000/svg" xmlns:xlink="http://www.w3.org/1999/xlink">
<g id="graph0" class="graph" transform="scale(1 1) rotate(0) translate(4 717.57)">
<title>lib/libLTO.so.13git_lib/libLLVMInstCombine.a</title>
<polygon fill="white" stroke="transparent" points="-4,4 -4,-717.57 1423,-717.57 1423,4 -4,4"/>
<text text-anchor="middle" x="709.5" y="-7.8" font-family="Times,serif" font-size="14.00">lib/libLTO.so.13git_lib/libLLVMInstCombine.a</text>
<!-- Node0x5625d6363118 -->
<g id="node1" class="node">
<title>Node0x5625d6363118</title>
<polygon fill="#7fb2ff" stroke="black" points="428,-332.4 0,-332.4 0,-296.4 428,-296.4 428,-332.4"/>
<text text-anchor="middle" x="214" y="-310.7" font-family="Times,serif" font-size="14.00">{lib/libLLVMInstCombine.a(InstructionCombining.cpp.o)}</text>
</g>
<!-- Node0x5625d6359258 -->
<g id="node2" class="node">
<title>Node0x5625d6359258</title>
<polygon fill="#7fb2ff" stroke="black" points="937,-710.4 490,-710.4 490,-674.4 937,-674.4 937,-710.4"/>
<text text-anchor="middle" x="713.5" y="-688.7" font-family="Times,serif" font-size="14.00">{lib/libLLVMInstCombine.a(InstCombineMulDivRem.cpp.o)}</text>
</g>
<!-- Node0x5625d6363118&#45;&gt;Node0x5625d6359258 -->
<g id="edge1" class="edge">
<title>Node0x5625d6363118&#45;&gt;Node0x5625d6359258</title>
<path fill="none" stroke="#7fb2ff" d="M223.12,-332.6C247.82,-391.66 328.71,-576.95 464,-656.4 473.7,-662.1 483.97,-666.92 494.62,-670.99"/>
<polygon fill="#7fb2ff" stroke="#7fb2ff" points="493.47,-674.29 504.06,-674.37 495.83,-667.7 493.47,-674.29"/>
</g>
<!-- Node0x5625d6358498 -->
<g id="node3" class="node">
<title>Node0x5625d6358498</title>
<polygon fill="#7fb2ff" stroke="black" points="908.5,-656.4 518.5,-656.4 518.5,-620.4 908.5,-620.4 908.5,-656.4"/>
<text text-anchor="middle" x="713.5" y="-634.7" font-family="Times,serif" font-size="14.00">{lib/libLLVMInstCombine.a(InstCombinePHI.cpp.o)}</text>
</g>
<!-- Node0x5625d6363118&#45;&gt;Node0x5625d6358498 -->
<g id="edge2" class="edge">
<title>Node0x5625d6363118&#45;&gt;Node0x5625d6358498</title>
<path fill="none" stroke="#7fb2ff" d="M226.01,-332.57C255.43,-385.32 342.04,-537.25 464,-602.4 478.03,-609.9 493.13,-615.8 508.71,-620.44"/>
<polygon fill="#7fb2ff" stroke="#7fb2ff" points="507.9,-623.84 518.47,-623.16 509.78,-617.1 507.9,-623.84"/>
</g>
<!-- Node0x5625d6376588 -->
<g id="node4" class="node">
<title>Node0x5625d6376588</title>
<polygon fill="#7fb2ff" stroke="black" points="917,-170.4 510,-170.4 510,-134.4 917,-134.4 917,-170.4"/>
<text text-anchor="middle" x="713.5" y="-148.7" font-family="Times,serif" font-size="14.00">{lib/libLLVMInstCombine.a(InstCombineSelect.cpp.o)}</text>
</g>
<!-- Node0x5625d6363118&#45;&gt;Node0x5625d6376588 -->
<g id="edge3" class="edge">
<title>Node0x5625d6363118&#45;&gt;Node0x5625d6376588</title>
<path fill="none" stroke="#7fb2ff" d="M233.24,-296.39C272.93,-264.31 371.06,-199.41 464,-170.4 475.6,-166.78 487.64,-163.63 499.89,-160.9"/>
<polygon fill="#7fb2ff" stroke="#7fb2ff" points="500.69,-164.31 509.74,-158.8 499.23,-157.46 500.69,-164.31"/>
</g>
<!-- Node0x5625d6376d58 -->
<g id="node5" class="node">
<title>Node0x5625d6376d58</title>
<polygon fill="#7fb2ff" stroke="black" points="916,-116.4 511,-116.4 511,-80.4 916,-80.4 916,-116.4"/>
<text text-anchor="middle" x="713.5" y="-94.7" font-family="Times,serif" font-size="14.00">{lib/libLLVMInstCombine.a(InstCombineShifts.cpp.o)}</text>
</g>
<!-- Node0x5625d6363118&#45;&gt;Node0x5625d6376d58 -->
<g id="edge4" class="edge">
<title>Node0x5625d6363118&#45;&gt;Node0x5625d6376d58</title>
<path fill="none" stroke="#7fb2ff" d="M227.65,-296.31C261.71,-255.41 359.87,-157.84 464,-116.4 475.89,-111.67 488.33,-107.67 501.05,-104.31"/>
<polygon fill="#7fb2ff" stroke="#7fb2ff" points="501.98,-107.69 510.83,-101.87 500.28,-100.9 501.98,-107.69"/>
</g>
<!-- Node0x5625d6377398 -->
<g id="node6" class="node">
<title>Node0x5625d6377398</title>
<polygon fill="#7fb2ff" stroke="black" points="963,-62.4 464,-62.4 464,-26.4 963,-26.4 963,-62.4"/>
<text text-anchor="middle" x="713.5" y="-40.7" font-family="Times,serif" font-size="14.00">{lib/libLLVMInstCombine.a(InstCombineSimplifyDemanded.cpp.o)}</text>
</g>
<!-- Node0x5625d6363118&#45;&gt;Node0x5625d6377398 -->
<g id="edge5" class="edge">
<title>Node0x5625d6363118&#45;&gt;Node0x5625d6377398</title>
<path fill="none" stroke="#7fb2ff" d="M224.27,-296.29C252.66,-249.11 343.23,-123.87 455.16,-66.75"/>
<polygon fill="#7fb2ff" stroke="#7fb2ff" points="456.86,-69.81 464.29,-62.27 453.78,-63.53 456.86,-69.81"/>
</g>
<!-- Node0x5625d6377a78 -->
<g id="node7" class="node">
<title>Node0x5625d6377a78</title>
<polygon fill="#7fb2ff" stroke="black" points="932,-602.4 495,-602.4 495,-566.4 932,-566.4 932,-602.4"/>
<text text-anchor="middle" x="713.5" y="-580.7" font-family="Times,serif" font-size="14.00">{lib/libLLVMInstCombine.a(InstCombineVectorOps.cpp.o)}</text>
</g>
<!-- Node0x5625d6363118&#45;&gt;Node0x5625d6377a78 -->
<g id="edge6" class="edge">
<title>Node0x5625d6363118&#45;&gt;Node0x5625d6377a78</title>
<path fill="none" stroke="#7fb2ff" d="M226.91,-332.52C258.81,-379.32 351.46,-504.32 464,-557.4 470.81,-560.62 477.85,-563.52 485.04,-566.14"/>
<polygon fill="#7fb2ff" stroke="#7fb2ff" points="484.34,-569.6 494.93,-569.53 486.61,-562.98 484.34,-569.6"/>
</g>
<!-- Node0x5625d6363988 -->
<g id="node8" class="node">
<title>Node0x5625d6363988</title>
<polygon fill="#7fb2ff" stroke="black" points="923,-224.4 504,-224.4 504,-188.4 923,-188.4 923,-224.4"/>
<text text-anchor="middle" x="713.5" y="-202.7" font-family="Times,serif" font-size="14.00">{lib/libLLVMInstCombine.a(InstCombineAddSub.cpp.o)}</text>
</g>
<!-- Node0x5625d6363118&#45;&gt;Node0x5625d6363988 -->
<g id="edge7" class="edge">
<title>Node0x5625d6363118&#45;&gt;Node0x5625d6363988</title>
<path fill="none" stroke="#7fb2ff" d="M245.88,-296.25C292.39,-275.01 383.55,-241.67 464,-224.4 473.71,-222.32 483.66,-220.4 493.74,-218.62"/>
<polygon fill="#7fb2ff" stroke="#7fb2ff" points="494.6,-222.03 503.87,-216.9 493.42,-215.13 494.6,-222.03"/>
</g>
<!-- Node0x5625d6364978 -->
<g id="node9" class="node">
<title>Node0x5625d6364978</title>
<polygon fill="none" stroke="black" points="938,-548.4 489,-548.4 489,-512.4 938,-512.4 938,-548.4"/>
<text text-anchor="middle" x="713.5" y="-526.7" font-family="Times,serif" font-size="14.00">{lib/libLLVMInstCombine.a(InstCombineAtomicRMW.cpp.o)}</text>
</g>
<!-- Node0x5625d6363118&#45;&gt;Node0x5625d6364978 -->
<g id="edge8" class="edge">
<title>Node0x5625d6363118&#45;&gt;Node0x5625d6364978</title>
<path fill="none" stroke="black" d="M231.89,-332.7C269.33,-371.88 363.91,-463.57 464,-503.4 469.23,-505.49 474.57,-507.42 479.99,-509.23"/>
<polygon fill="black" stroke="black" points="479.24,-512.67 489.83,-512.34 481.35,-505.99 479.24,-512.67"/>
</g>
<!-- Node0x5625d63646a8 -->
<g id="node10" class="node">
<title>Node0x5625d63646a8</title>
<polygon fill="#7fb2ff" stroke="black" points="929.5,-386.4 497.5,-386.4 497.5,-350.4 929.5,-350.4 929.5,-386.4"/>
<text text-anchor="middle" x="713.5" y="-364.7" font-family="Times,serif" font-size="14.00">{lib/libLLVMInstCombine.a(InstCombineAndOrXor.cpp.o)}</text>
</g>
<!-- Node0x5625d6363118&#45;&gt;Node0x5625d63646a8 -->
<g id="edge9" class="edge">
<title>Node0x5625d6363118&#45;&gt;Node0x5625d63646a8</title>
<path fill="none" stroke="#7fb2ff" d="M428.15,-330.85C483.29,-336.64 540.82,-343.15 589.59,-349.15"/>
<polygon fill="#7fb2ff" stroke="#7fb2ff" points="589.19,-352.63 599.54,-350.38 590.05,-345.68 589.19,-352.63"/>
</g>
<!-- Node0x5625d635fec8 -->
<g id="node11" class="node">
<title>Node0x5625d635fec8</title>
<polygon fill="#7fb2ff" stroke="black" points="912.5,-494.4 514.5,-494.4 514.5,-458.4 912.5,-458.4 912.5,-494.4"/>
<text text-anchor="middle" x="713.5" y="-472.7" font-family="Times,serif" font-size="14.00">{lib/libLLVMInstCombine.a(InstCombineCalls.cpp.o)}</text>
</g>
<!-- Node0x5625d6363118&#45;&gt;Node0x5625d635fec8 -->
<g id="edge10" class="edge">
<title>Node0x5625d6363118&#45;&gt;Node0x5625d635fec8</title>
<path fill="none" stroke="#7fb2ff" d="M249.34,-332.57C295.66,-361.09 381.85,-414.77 464,-440.4 486.66,-447.48 510.99,-452.76 535.24,-456.78"/>
<polygon fill="#7fb2ff" stroke="#7fb2ff" points="534.82,-460.26 545.25,-458.38 535.92,-453.35 534.82,-460.26"/>
</g>
<!-- Node0x5625d6360aa8 -->
<g id="node12" class="node">
<title>Node0x5625d6360aa8</title>
<polygon fill="#7fb2ff" stroke="black" points="915,-332.4 512,-332.4 512,-296.4 915,-296.4 915,-332.4"/>
<text text-anchor="middle" x="713.5" y="-310.7" font-family="Times,serif" font-size="14.00">{lib/libLLVMInstCombine.a(InstCombineCasts.cpp.o)}</text>
</g>
<!-- Node0x5625d6363118&#45;&gt;Node0x5625d6360aa8 -->
<g id="edge11" class="edge">
<title>Node0x5625d6363118&#45;&gt;Node0x5625d6360aa8</title>
<path fill="none" stroke="#7fb2ff" d="M428.15,-307.72C452.49,-307.63 477.29,-307.63 501.6,-307.72"/>
<polygon fill="#7fb2ff" stroke="#7fb2ff" points="501.6,-311.22 511.62,-307.77 501.63,-304.22 501.6,-311.22"/>
</g>
<!-- Node0x5625d63619f8 -->
<g id="node13" class="node">
<title>Node0x5625d63619f8</title>
<polygon fill="#7fb2ff" stroke="black" points="931,-440.4 496,-440.4 496,-404.4 931,-404.4 931,-440.4"/>
<text text-anchor="middle" x="713.5" y="-418.7" font-family="Times,serif" font-size="14.00">{lib/libLLVMInstCombine.a(InstCombineCompares.cpp.o)}</text>
</g>
<!-- Node0x5625d6363118&#45;&gt;Node0x5625d63619f8 -->
<g id="edge12" class="edge">
<title>Node0x5625d6363118&#45;&gt;Node0x5625d63619f8</title>
<path fill="none" stroke="#7fb2ff" d="M280.56,-332.41C330.19,-349.09 400.44,-372.77 464,-386.4 497.69,-393.63 534.4,-398.98 569,-403.18"/>
<polygon fill="#7fb2ff" stroke="#7fb2ff" points="568.84,-406.68 579.18,-404.39 569.66,-399.73 568.84,-406.68"/>
</g>
<!-- Node0x5625d6361458 -->
<g id="node14" class="node">
<title>Node0x5625d6361458</title>
<polygon fill="#7fb2ff" stroke="black" points="953,-278.4 474,-278.4 474,-242.4 953,-242.4 953,-278.4"/>
<text text-anchor="middle" x="713.5" y="-256.7" font-family="Times,serif" font-size="14.00">{lib/libLLVMInstCombine.a(InstCombineLoadStoreAlloca.cpp.o)}</text>
</g>
<!-- Node0x5625d6363118&#45;&gt;Node0x5625d6361458 -->
<g id="edge13" class="edge">
<title>Node0x5625d6363118&#45;&gt;Node0x5625d6361458</title>
<path fill="none" stroke="#7fb2ff" d="M327.89,-296.39C371.57,-290.94 423.3,-285 474.43,-279.5"/>
<polygon fill="#7fb2ff" stroke="#7fb2ff" points="475.08,-282.95 484.65,-278.41 474.33,-275.99 475.08,-282.95"/>
</g>
<!-- Node0x5625d6359258&#45;&gt;Node0x5625d6363118 -->
<g id="edge16" class="edge">
<title>Node0x5625d6359258&#45;&gt;Node0x5625d6363118</title>
<path fill="none" stroke="#7fb2ff" d="M489.83,-687.08C480.89,-683.44 472.23,-679.24 464,-674.4 329.52,-595.43 248.8,-411.89 223.58,-341.93"/>
<polygon fill="#7fb2ff" stroke="#7fb2ff" points="226.87,-340.73 220.26,-332.45 220.26,-343.05 226.87,-340.73"/>
</g>
<!-- Node0x5625d6359258&#45;&gt;Node0x5625d6377398 -->
<g id="edge15" class="edge">
<title>Node0x5625d6359258&#45;&gt;Node0x5625d6377398</title>
<path fill="none" stroke="#7fb2ff" d="M627.7,-710.41C563.92,-718.13 481.97,-714.6 446,-656.4 429.18,-629.18 429.18,-107.63 446,-80.4 480.07,-25.28 555.4,-19.21 617.47,-25.28"/>
<polygon fill="#7fb2ff" stroke="#7fb2ff" points="617.38,-28.79 627.7,-26.4 618.14,-21.83 617.38,-28.79"/>
</g>
<!-- Node0x5625d6358bc8 -->
<g id="node15" class="node">
<title>Node0x5625d6358bc8</title>
<polygon fill="none" stroke="black" points="1419,-467.4 999,-467.4 999,-431.4 1419,-431.4 1419,-467.4"/>
<text text-anchor="middle" x="1209" y="-445.7" font-family="Times,serif" font-size="14.00">{lib/libLLVMInstCombine.a(InstCombineNegator.cpp.o)}</text>
</g>
<!-- Node0x5625d6359258&#45;&gt;Node0x5625d6358bc8 -->
<g id="edge14" class="edge">
<title>Node0x5625d6359258&#45;&gt;Node0x5625d6358bc8</title>
<path fill="none" stroke="black" d="M937.18,-675.22C946.02,-672.34 954.66,-669.08 963,-665.4 1062.11,-621.69 1149.73,-522.94 1187.82,-475.63"/>
<polygon fill="black" stroke="black" points="1190.65,-477.7 1194.14,-467.69 1185.17,-473.34 1190.65,-477.7"/>
</g>
<!-- Node0x5625d6358498&#45;&gt;Node0x5625d6363118 -->
<g id="edge17" class="edge">
<title>Node0x5625d6358498&#45;&gt;Node0x5625d6363118</title>
<path fill="none" stroke="#7fb2ff" d="M518.47,-641.07C499.44,-636.18 480.94,-629.45 464,-620.4 342.32,-555.4 255.83,-404.01 226.21,-341.68"/>
<polygon fill="#7fb2ff" stroke="#7fb2ff" points="229.32,-340.08 221.95,-332.47 222.97,-343.01 229.32,-340.08"/>
</g>
<!-- Node0x5625d6376588&#45;&gt;Node0x5625d6363118 -->
<g id="edge19" class="edge">
<title>Node0x5625d6376588&#45;&gt;Node0x5625d6363118</title>
<path fill="none" stroke="#7fb2ff" d="M545.25,-170.43C517.73,-174.63 489.79,-180.36 464,-188.4 386.67,-212.54 305.75,-261.52 257.88,-290.97"/>
<polygon fill="#7fb2ff" stroke="#7fb2ff" points="256.02,-288.01 249.34,-296.24 259.69,-293.97 256.02,-288.01"/>
</g>
<!-- Node0x5625d6376588&#45;&gt;Node0x5625d6377398 -->
<g id="edge18" class="edge">
<title>Node0x5625d6376588&#45;&gt;Node0x5625d6377398</title>
<path fill="none" stroke="#7fb2ff" d="M627.7,-170.41C563.92,-178.13 481.97,-174.6 446,-116.4 431.25,-92.55 437.11,-75.82 454.94,-64.22"/>
<polygon fill="#7fb2ff" stroke="#7fb2ff" points="456.89,-67.14 463.95,-59.24 453.51,-61.01 456.89,-67.14"/>
</g>
<!-- Node0x5625d6376588&#45;&gt;Node0x5625d63646a8 -->
<g id="edge20" class="edge">
<title>Node0x5625d6376588&#45;&gt;Node0x5625d63646a8</title>
<path fill="none" stroke="#7fb2ff" d="M632.79,-134.4C570,-125.75 487.72,-127.6 452,-185.4 443.24,-199.58 443.24,-321.23 452,-335.4 485.84,-390.16 561.45,-394.7 622.7,-387.69"/>
<polygon fill="#7fb2ff" stroke="#7fb2ff" points="623.31,-391.14 632.79,-386.41 622.43,-384.19 623.31,-391.14"/>
</g>
<!-- Node0x5625d6376588&#45;&gt;Node0x5625d63619f8 -->
<g id="edge21" class="edge">
<title>Node0x5625d6376588&#45;&gt;Node0x5625d63619f8</title>
<path fill="none" stroke="#7fb2ff" d="M627.7,-134.4C563.92,-126.68 481.97,-130.21 446,-188.4 422.87,-225.83 422.87,-348.98 446,-386.4 480.07,-441.53 555.4,-447.6 617.47,-441.53"/>
<polygon fill="#7fb2ff" stroke="#7fb2ff" points="618.14,-444.98 627.7,-440.41 617.38,-438.02 618.14,-444.98"/>
</g>
<!-- Node0x5625d6376d58&#45;&gt;Node0x5625d6363118 -->
<g id="edge23" class="edge">
<title>Node0x5625d6376d58&#45;&gt;Node0x5625d6363118</title>
<path fill="none" stroke="#7fb2ff" d="M525.92,-116.46C504.62,-120.82 483.56,-126.62 464,-134.4 373.62,-170.37 287.74,-248.62 244.36,-289.23"/>
<polygon fill="#7fb2ff" stroke="#7fb2ff" points="241.91,-286.72 237.01,-296.12 246.7,-291.83 241.91,-286.72"/>
</g>
<!-- Node0x5625d6376d58&#45;&gt;Node0x5625d6377398 -->
<g id="edge22" class="edge">
<title>Node0x5625d6376d58&#45;&gt;Node0x5625d6377398</title>
<path fill="none" stroke="#7fb2ff" d="M713.5,-80.19C713.5,-77.71 713.5,-75.23 713.5,-72.75"/>
<polygon fill="#7fb2ff" stroke="#7fb2ff" points="717,-72.54 713.5,-62.54 710,-72.54 717,-72.54"/>
</g>
<!-- Node0x5625d6377398&#45;&gt;Node0x5625d6363118 -->
<g id="edge24" class="edge">
<title>Node0x5625d6377398&#45;&gt;Node0x5625d6363118</title>
<path fill="none" stroke="#7fb2ff" d="M515.13,-62.45C497.4,-66.96 480.09,-72.81 464,-80.4 360.97,-129 274.61,-237.87 236.27,-288.24"/>
<polygon fill="#7fb2ff" stroke="#7fb2ff" points="233.36,-286.29 230.11,-296.37 238.94,-290.52 233.36,-286.29"/>
</g>
<!-- Node0x5625d6377a78&#45;&gt;Node0x5625d6377398 -->
<g id="edge25" class="edge">
<title>Node0x5625d6377a78&#45;&gt;Node0x5625d6377398</title>
<path fill="none" stroke="#7fb2ff" d="M627.7,-602.41C563.92,-610.13 481.97,-606.6 446,-548.4 432.33,-526.29 432.33,-102.52 446,-80.4 480.07,-25.28 555.4,-19.21 617.47,-25.28"/>
<polygon fill="#7fb2ff" stroke="#7fb2ff" points="617.38,-28.79 627.7,-26.4 618.14,-21.83 617.38,-28.79"/>
</g>
<!-- Node0x5625d6363988&#45;&gt;Node0x5625d6363118 -->
<g id="edge27" class="edge">
<title>Node0x5625d6363988&#45;&gt;Node0x5625d6363118</title>
<path fill="none" stroke="#7fb2ff" d="M579.18,-224.42C541.67,-228.8 501.02,-234.46 464,-242.4 404.41,-255.19 338.95,-276.8 290.1,-293.19"/>
<polygon fill="#7fb2ff" stroke="#7fb2ff" points="288.93,-289.89 280.56,-296.39 291.16,-296.53 288.93,-289.89"/>
</g>
<!-- Node0x5625d6363988&#45;&gt;Node0x5625d6358bc8 -->
<g id="edge26" class="edge">
<title>Node0x5625d6363988&#45;&gt;Node0x5625d6358bc8</title>
<path fill="none" stroke="black" d="M923.14,-219.37C936.88,-223.18 950.29,-227.8 963,-233.4 1062.11,-277.12 1149.73,-375.87 1187.82,-423.18"/>
<polygon fill="black" stroke="black" points="1185.17,-425.47 1194.14,-431.12 1190.65,-421.11 1185.17,-425.47"/>
</g>
<!-- Node0x5625d63646a8&#45;&gt;Node0x5625d6363118 -->
<g id="edge30" class="edge">
<title>Node0x5625d63646a8&#45;&gt;Node0x5625d6363118</title>
<path fill="none" stroke="#7fb2ff" d="M497.18,-351.73C442.74,-346 386.13,-339.59 338.02,-333.67"/>
<polygon fill="#7fb2ff" stroke="#7fb2ff" points="338.24,-330.17 327.89,-332.42 337.38,-337.12 338.24,-330.17"/>
</g>
<!-- Node0x5625d63646a8&#45;&gt;Node0x5625d6376588 -->
<g id="edge28" class="edge">
<title>Node0x5625d63646a8&#45;&gt;Node0x5625d6376588</title>
<path fill="none" stroke="#7fb2ff" d="M621.75,-386.42C557.17,-393.08 476.06,-387.75 440,-329.4 431.94,-316.36 431.94,-204.45 440,-191.4 474.23,-136.02 549.05,-128.41 611.8,-133.47"/>
<polygon fill="#7fb2ff" stroke="#7fb2ff" points="611.48,-136.96 621.75,-134.39 612.12,-129.99 611.48,-136.96"/>
</g>
<!-- Node0x5625d63646a8&#45;&gt;Node0x5625d6377398 -->
<g id="edge29" class="edge">
<title>Node0x5625d63646a8&#45;&gt;Node0x5625d6377398</title>
<path fill="none" stroke="#7fb2ff" d="M627.7,-386.41C563.92,-394.13 481.97,-390.6 446,-332.4 431.28,-308.59 431.28,-104.22 446,-80.4 480.07,-25.28 555.4,-19.21 617.47,-25.28"/>
<polygon fill="#7fb2ff" stroke="#7fb2ff" points="617.38,-28.79 627.7,-26.4 618.14,-21.83 617.38,-28.79"/>
</g>
<!-- Node0x5625d63646a8&#45;&gt;Node0x5625d6363988 -->
<g id="edge31" class="edge">
<title>Node0x5625d63646a8&#45;&gt;Node0x5625d6363988</title>
<path fill="none" stroke="#7fb2ff" d="M627.7,-386.41C563.92,-394.13 481.97,-390.6 446,-332.4 424.97,-298.38 424.97,-276.43 446,-242.4 480.07,-187.28 555.4,-181.21 617.47,-187.28"/>
<polygon fill="#7fb2ff" stroke="#7fb2ff" points="617.38,-190.79 627.7,-188.4 618.14,-183.83 617.38,-190.79"/>
</g>
<!-- Node0x5625d63646a8&#45;&gt;Node0x5625d6360aa8 -->
<g id="edge32" class="edge">
<title>Node0x5625d63646a8&#45;&gt;Node0x5625d6360aa8</title>
<path fill="none" stroke="#7fb2ff" d="M713.5,-350.19C713.5,-347.71 713.5,-345.23 713.5,-342.75"/>
<polygon fill="#7fb2ff" stroke="#7fb2ff" points="717,-342.54 713.5,-332.54 710,-342.54 717,-342.54"/>
</g>
<!-- Node0x5625d635fec8&#45;&gt;Node0x5625d6363118 -->
<g id="edge34" class="edge">
<title>Node0x5625d635fec8&#45;&gt;Node0x5625d6363118</title>
<path fill="none" stroke="#7fb2ff" d="M514.37,-470.93C497.16,-467.58 480.16,-463.45 464,-458.4 376.87,-431.21 285.18,-372.47 241.35,-338.81"/>
<polygon fill="#7fb2ff" stroke="#7fb2ff" points="243.26,-335.86 233.24,-332.42 238.93,-341.36 243.26,-335.86"/>
</g>
<!-- Node0x5625d635fec8&#45;&gt;Node0x5625d6377398 -->
<g id="edge33" class="edge">
<title>Node0x5625d635fec8&#45;&gt;Node0x5625d6377398</title>
<path fill="none" stroke="#7fb2ff" d="M627.7,-494.41C563.92,-502.13 481.97,-498.6 446,-440.4 424.97,-406.38 424.97,-114.43 446,-80.4 480.07,-25.28 555.4,-19.21 617.47,-25.28"/>
<polygon fill="#7fb2ff" stroke="#7fb2ff" points="617.38,-28.79 627.7,-26.4 618.14,-21.83 617.38,-28.79"/>
</g>
<!-- Node0x5625d635fec8&#45;&gt;Node0x5625d63619f8 -->
<g id="edge35" class="edge">
<title>Node0x5625d635fec8&#45;&gt;Node0x5625d63619f8</title>
<path fill="none" stroke="#7fb2ff" d="M713.5,-458.19C713.5,-455.71 713.5,-453.23 713.5,-450.75"/>
<polygon fill="#7fb2ff" stroke="#7fb2ff" points="717,-450.54 713.5,-440.54 710,-450.54 717,-450.54"/>
</g>
<!-- Node0x5625d6360aa8&#45;&gt;Node0x5625d6363118 -->
<g id="edge37" class="edge">
<title>Node0x5625d6360aa8&#45;&gt;Node0x5625d6363118</title>
<path fill="none" stroke="#7fb2ff" d="M511.62,-321.04C487.46,-321.16 462.68,-321.18 438.23,-321.12"/>
<polygon fill="#7fb2ff" stroke="#7fb2ff" points="438.16,-317.62 428.15,-321.09 438.14,-324.62 438.16,-317.62"/>
</g>
<!-- Node0x5625d6360aa8&#45;&gt;Node0x5625d6377398 -->
<g id="edge36" class="edge">
<title>Node0x5625d6360aa8&#45;&gt;Node0x5625d6377398</title>
<path fill="none" stroke="#7fb2ff" d="M627.7,-332.41C563.92,-340.13 481.97,-336.6 446,-278.4 422.87,-240.98 422.87,-117.83 446,-80.4 480.07,-25.28 555.4,-19.21 617.47,-25.28"/>
<polygon fill="#7fb2ff" stroke="#7fb2ff" points="617.38,-28.79 627.7,-26.4 618.14,-21.83 617.38,-28.79"/>
</g>
<!-- Node0x5625d6360aa8&#45;&gt;Node0x5625d6361458 -->
<g id="edge38" class="edge">
<title>Node0x5625d6360aa8&#45;&gt;Node0x5625d6361458</title>
<path fill="none" stroke="#7fb2ff" d="M713.5,-296.19C713.5,-293.71 713.5,-291.23 713.5,-288.75"/>
<polygon fill="#7fb2ff" stroke="#7fb2ff" points="717,-288.54 713.5,-278.54 710,-288.54 717,-288.54"/>
</g>
<!-- Node0x5625d63619f8&#45;&gt;Node0x5625d6363118 -->
<g id="edge41" class="edge">
<title>Node0x5625d63619f8&#45;&gt;Node0x5625d6363118</title>
<path fill="none" stroke="#7fb2ff" d="M495.9,-410.56C485.08,-408.69 474.4,-406.63 464,-404.4 388.58,-388.22 303.74,-357.9 255.11,-336.68"/>
<polygon fill="#7fb2ff" stroke="#7fb2ff" points="256.44,-333.44 245.88,-332.56 253.58,-339.83 256.44,-333.44"/>
</g>
<!-- Node0x5625d63619f8&#45;&gt;Node0x5625d6376d58 -->
<g id="edge39" class="edge">
<title>Node0x5625d63619f8&#45;&gt;Node0x5625d6376d58</title>
<path fill="none" stroke="#7fb2ff" d="M627.7,-440.41C563.92,-448.13 481.97,-444.6 446,-386.4 431.28,-362.59 431.28,-158.22 446,-134.4 480.07,-79.28 555.4,-73.21 617.47,-79.28"/>
<polygon fill="#7fb2ff" stroke="#7fb2ff" points="617.38,-82.79 627.7,-80.4 618.14,-75.83 617.38,-82.79"/>
</g>
<!-- Node0x5625d63619f8&#45;&gt;Node0x5625d6377398 -->
<g id="edge40" class="edge">
<title>Node0x5625d63619f8&#45;&gt;Node0x5625d6377398</title>
<path fill="none" stroke="#7fb2ff" d="M627.7,-440.41C563.92,-448.13 481.97,-444.6 446,-386.4 428.13,-357.48 428.13,-109.33 446,-80.4 480.07,-25.28 555.4,-19.21 617.47,-25.28"/>
<polygon fill="#7fb2ff" stroke="#7fb2ff" points="617.38,-28.79 627.7,-26.4 618.14,-21.83 617.38,-28.79"/>
</g>
<!-- Node0x5625d63619f8&#45;&gt;Node0x5625d63646a8 -->
<g id="edge42" class="edge">
<title>Node0x5625d63619f8&#45;&gt;Node0x5625d63646a8</title>
<path fill="none" stroke="#7fb2ff" d="M713.5,-404.19C713.5,-401.71 713.5,-399.23 713.5,-396.75"/>
<polygon fill="#7fb2ff" stroke="#7fb2ff" points="717,-396.54 713.5,-386.54 710,-396.54 717,-396.54"/>
</g>
<!-- Node0x5625d6361458&#45;&gt;Node0x5625d6363118 -->
<g id="edge43" class="edge">
<title>Node0x5625d6361458&#45;&gt;Node0x5625d6363118</title>
<path fill="none" stroke="#7fb2ff" d="M599.54,-278.43C551.64,-284.4 494.04,-290.97 438.19,-296.9"/>
<polygon fill="#7fb2ff" stroke="#7fb2ff" points="437.73,-293.43 428.15,-297.96 438.46,-300.39 437.73,-293.43"/>
</g>
</g>
</svg>
