<?xml version="1.0" encoding="UTF-8" standalone="no"?>
<!DOCTYPE svg PUBLIC "-//W3C//DTD SVG 1.1//EN"
 "http://www.w3.org/Graphics/SVG/1.1/DTD/svg11.dtd">
<!-- Generated by graphviz version 2.43.0 (0)
 -->
<!-- Title: bin/lld_lib/libLLVMInstrumentation.a Pages: 1 -->
<svg width="1867pt" height="823pt"
 viewBox="0.00 0.00 1867.00 823.00" xmlns="http://www.w3.org/2000/svg" xmlns:xlink="http://www.w3.org/1999/xlink">
<g id="graph0" class="graph" transform="scale(1 1) rotate(0) translate(4 819)">
<title>bin/lld_lib/libLLVMInstrumentation.a</title>
<polygon fill="white" stroke="transparent" points="-4,4 -4,-819 1863,-819 1863,4 -4,4"/>
<text text-anchor="middle" x="929.5" y="-7.8" font-family="Times,serif" font-size="14.00">bin/lld_lib/libLLVMInstrumentation.a</text>
<!-- Node0x55f0b0c42658 -->
<g id="node1" class="node">
<title>Node0x55f0b0c42658</title>
<polygon fill="#7fb2ff" stroke="black" points="419,-167 0,-167 0,-131 419,-131 419,-167"/>
<text text-anchor="middle" x="209.5" y="-145.3" font-family="Times,serif" font-size="14.00">{lib/libLLVMInstrumentation.a(AddressSanitizer.cpp.o)}</text>
</g>
<!-- Node0x55f0b0c46b68 -->
<g id="node2" class="node">
<title>Node0x55f0b0c46b68</title>
<polygon fill="#7fb2ff" stroke="black" points="869,-167 455,-167 455,-131 869,-131 869,-167"/>
<text text-anchor="middle" x="662" y="-145.3" font-family="Times,serif" font-size="14.00">{lib/libLLVMInstrumentation.a(Instrumentation.cpp.o)}</text>
</g>
<!-- Node0x55f0b0c42658&#45;&gt;Node0x55f0b0c46b68 -->
<g id="edge1" class="edge">
<title>Node0x55f0b0c42658&#45;&gt;Node0x55f0b0c46b68</title>
<path fill="none" stroke="#7fb2ff" d="M419.27,-142.27C427.78,-142.25 436.34,-142.25 444.87,-142.25"/>
<polygon fill="#7fb2ff" stroke="#7fb2ff" points="444.87,-145.75 454.88,-142.27 444.88,-138.75 444.87,-145.75"/>
</g>
<!-- Node0x55f0b0c46b68&#45;&gt;Node0x55f0b0c42658 -->
<g id="edge5" class="edge">
<title>Node0x55f0b0c46b68&#45;&gt;Node0x55f0b0c42658</title>
<path fill="none" stroke="#7fb2ff" d="M454.88,-155.73C446.36,-155.75 437.81,-155.75 429.28,-155.75"/>
<polygon fill="#7fb2ff" stroke="#7fb2ff" points="429.27,-152.25 419.27,-155.73 429.26,-159.25 429.27,-152.25"/>
</g>
<!-- Node0x55f0b0c43238 -->
<g id="node3" class="node">
<title>Node0x55f0b0c43238</title>
<polygon fill="none" stroke="black" points="1349.5,-815 932.5,-815 932.5,-779 1349.5,-779 1349.5,-815"/>
<text text-anchor="middle" x="1141" y="-793.3" font-family="Times,serif" font-size="14.00">{lib/libLLVMInstrumentation.a(BoundsChecking.cpp.o)}</text>
</g>
<!-- Node0x55f0b0c46b68&#45;&gt;Node0x55f0b0c43238 -->
<g id="edge6" class="edge">
<title>Node0x55f0b0c46b68&#45;&gt;Node0x55f0b0c43238</title>
<path fill="none" stroke="black" d="M663.72,-167.12C668.13,-251.79 698.82,-611.04 905,-770 910.68,-774.38 916.68,-778.29 922.93,-781.77"/>
<polygon fill="black" stroke="black" points="921.76,-785.1 932.26,-786.57 924.97,-778.88 921.76,-785.1"/>
</g>
<!-- Node0x55f0b0c43508 -->
<g id="node4" class="node">
<title>Node0x55f0b0c43508</title>
<polygon fill="none" stroke="black" points="1324,-761 958,-761 958,-725 1324,-725 1324,-761"/>
<text text-anchor="middle" x="1141" y="-739.3" font-family="Times,serif" font-size="14.00">{lib/libLLVMInstrumentation.a(CGProfile.cpp.o)}</text>
</g>
<!-- Node0x55f0b0c46b68&#45;&gt;Node0x55f0b0c43508 -->
<g id="edge7" class="edge">
<title>Node0x55f0b0c46b68&#45;&gt;Node0x55f0b0c43508</title>
<path fill="none" stroke="black" d="M664.44,-167.18C671.86,-247.51 713.26,-572.97 905,-716 918.08,-725.76 932.77,-733.14 948.25,-738.64"/>
<polygon fill="black" stroke="black" points="947.39,-742.05 957.98,-741.83 949.57,-735.39 947.39,-742.05"/>
</g>
<!-- Node0x55f0b0c41398 -->
<g id="node5" class="node">
<title>Node0x55f0b0c41398</title>
<polygon fill="none" stroke="black" points="1377,-707 905,-707 905,-671 1377,-671 1377,-707"/>
<text text-anchor="middle" x="1141" y="-685.3" font-family="Times,serif" font-size="14.00">{lib/libLLVMInstrumentation.a(ControlHeightReduction.cpp.o)}</text>
</g>
<!-- Node0x55f0b0c46b68&#45;&gt;Node0x55f0b0c41398 -->
<g id="edge8" class="edge">
<title>Node0x55f0b0c46b68&#45;&gt;Node0x55f0b0c41398</title>
<path fill="none" stroke="black" d="M665.27,-167C675.83,-242.37 727.35,-534.59 905,-662 906.69,-663.21 908.4,-664.39 910.14,-665.52"/>
<polygon fill="black" stroke="black" points="908.65,-668.72 919.02,-670.92 912.29,-662.73 908.65,-668.72"/>
</g>
<!-- Node0x55f0b0c43b98 -->
<g id="node6" class="node">
<title>Node0x55f0b0c43b98</title>
<polygon fill="none" stroke="black" points="1355.5,-653 926.5,-653 926.5,-617 1355.5,-617 1355.5,-653"/>
<text text-anchor="middle" x="1141" y="-631.3" font-family="Times,serif" font-size="14.00">{lib/libLLVMInstrumentation.a(DataFlowSanitizer.cpp.o)}</text>
</g>
<!-- Node0x55f0b0c46b68&#45;&gt;Node0x55f0b0c43b98 -->
<g id="edge9" class="edge">
<title>Node0x55f0b0c46b68&#45;&gt;Node0x55f0b0c43b98</title>
<path fill="none" stroke="black" d="M666.31,-167.04C680.27,-237.54 741.43,-496.1 905,-608 909.02,-610.75 913.18,-613.31 917.45,-615.68"/>
<polygon fill="black" stroke="black" points="915.87,-618.8 926.36,-620.29 919.09,-612.59 915.87,-618.8"/>
</g>
<!-- Node0x55f0b0c46258 -->
<g id="node7" class="node">
<title>Node0x55f0b0c46258</title>
<polygon fill="none" stroke="black" points="1341.5,-599 940.5,-599 940.5,-563 1341.5,-563 1341.5,-599"/>
<text text-anchor="middle" x="1141" y="-577.3" font-family="Times,serif" font-size="14.00">{lib/libLLVMInstrumentation.a(GCOVProfiling.cpp.o)}</text>
</g>
<!-- Node0x55f0b0c46b68&#45;&gt;Node0x55f0b0c46258 -->
<g id="edge10" class="edge">
<title>Node0x55f0b0c46b68&#45;&gt;Node0x55f0b0c46258</title>
<path fill="none" stroke="black" d="M667.62,-167.17C685.3,-232.59 755.33,-457.37 905,-554 913.19,-559.29 921.89,-563.83 930.93,-567.72"/>
<polygon fill="black" stroke="black" points="929.87,-571.06 940.46,-571.53 932.47,-564.57 929.87,-571.06"/>
</g>
<!-- Node0x55f0b0c45678 -->
<g id="node8" class="node">
<title>Node0x55f0b0c45678</title>
<polygon fill="none" stroke="black" points="1334,-545 948,-545 948,-509 1334,-509 1334,-545"/>
<text text-anchor="middle" x="1141" y="-523.3" font-family="Times,serif" font-size="14.00">{lib/libLLVMInstrumentation.a(MemProfiler.cpp.o)}</text>
</g>
<!-- Node0x55f0b0c46b68&#45;&gt;Node0x55f0b0c45678 -->
<g id="edge11" class="edge">
<title>Node0x55f0b0c46b68&#45;&gt;Node0x55f0b0c45678</title>
<path fill="none" stroke="black" d="M669.29,-167.24C690.97,-227.08 768.89,-418.27 905,-500 915.38,-506.24 926.49,-511.39 938.02,-515.64"/>
<polygon fill="black" stroke="black" points="937.21,-519.06 947.8,-518.99 939.48,-512.44 937.21,-519.06"/>
</g>
<!-- Node0x55f0b0c452b8 -->
<g id="node9" class="node">
<title>Node0x55f0b0c452b8</title>
<polygon fill="none" stroke="black" points="1351,-491 931,-491 931,-455 1351,-455 1351,-491"/>
<text text-anchor="middle" x="1141" y="-469.3" font-family="Times,serif" font-size="14.00">{lib/libLLVMInstrumentation.a(MemorySanitizer.cpp.o)}</text>
</g>
<!-- Node0x55f0b0c46b68&#45;&gt;Node0x55f0b0c452b8 -->
<g id="edge12" class="edge">
<title>Node0x55f0b0c46b68&#45;&gt;Node0x55f0b0c452b8</title>
<path fill="none" stroke="black" d="M671.39,-167.06C697.32,-220.55 781.89,-378.63 905,-446 910.31,-448.9 915.78,-451.56 921.39,-454"/>
<polygon fill="black" stroke="black" points="920.36,-457.36 930.94,-457.88 923,-450.87 920.36,-457.36"/>
</g>
<!-- Node0x55f0b0c46de8 -->
<g id="node10" class="node">
<title>Node0x55f0b0c46de8</title>
<polygon fill="none" stroke="black" points="1369,-437 913,-437 913,-401 1369,-401 1369,-437"/>
<text text-anchor="middle" x="1141" y="-415.3" font-family="Times,serif" font-size="14.00">{lib/libLLVMInstrumentation.a(IndirectCallPromotion.cpp.o)}</text>
</g>
<!-- Node0x55f0b0c46b68&#45;&gt;Node0x55f0b0c46de8 -->
<g id="edge13" class="edge">
<title>Node0x55f0b0c46b68&#45;&gt;Node0x55f0b0c46de8</title>
<path fill="none" stroke="black" d="M674.46,-167.07C705.18,-213.77 794.61,-338.55 905,-392 908.85,-393.86 912.77,-395.62 916.75,-397.27"/>
<polygon fill="black" stroke="black" points="915.57,-400.57 926.16,-400.95 918.12,-394.05 915.57,-400.57"/>
</g>
<!-- Node0x55f0b0c486e8 -->
<g id="node11" class="node">
<title>Node0x55f0b0c486e8</title>
<polygon fill="none" stroke="black" points="1341.5,-383 940.5,-383 940.5,-347 1341.5,-347 1341.5,-383"/>
<text text-anchor="middle" x="1141" y="-361.3" font-family="Times,serif" font-size="14.00">{lib/libLLVMInstrumentation.a(InstrOrderFile.cpp.o)}</text>
</g>
<!-- Node0x55f0b0c46b68&#45;&gt;Node0x55f0b0c486e8 -->
<g id="edge14" class="edge">
<title>Node0x55f0b0c46b68&#45;&gt;Node0x55f0b0c486e8</title>
<path fill="none" stroke="black" d="M679.32,-167.25C715.51,-206.35 807.08,-297.89 905,-338 913.21,-341.36 921.72,-344.35 930.4,-347.01"/>
<polygon fill="black" stroke="black" points="929.7,-350.45 940.28,-349.86 931.64,-343.72 929.7,-350.45"/>
</g>
<!-- Node0x55f0b0c48738 -->
<g id="node12" class="node">
<title>Node0x55f0b0c48738</title>
<polygon fill="none" stroke="black" points="1337.5,-329 944.5,-329 944.5,-293 1337.5,-293 1337.5,-329"/>
<text text-anchor="middle" x="1141" y="-307.3" font-family="Times,serif" font-size="14.00">{lib/libLLVMInstrumentation.a(InstrProfiling.cpp.o)}</text>
</g>
<!-- Node0x55f0b0c46b68&#45;&gt;Node0x55f0b0c48738 -->
<g id="edge15" class="edge">
<title>Node0x55f0b0c46b68&#45;&gt;Node0x55f0b0c48738</title>
<path fill="none" stroke="black" d="M687.6,-167.12C729.71,-197.1 819.37,-256.42 905,-284 914.63,-287.1 924.58,-289.86 934.7,-292.3"/>
<polygon fill="black" stroke="black" points="933.92,-295.71 944.45,-294.55 935.49,-288.89 933.92,-295.71"/>
</g>
<!-- Node0x55f0b0c48058 -->
<g id="node13" class="node">
<title>Node0x55f0b0c48058</title>
<polygon fill="#7fffd8" stroke="black" points="1364,-221 918,-221 918,-185 1364,-185 1364,-221"/>
<text text-anchor="middle" x="1141" y="-199.3" font-family="Times,serif" font-size="14.00">{lib/libLLVMInstrumentation.a(PGOInstrumentation.cpp.o)}</text>
</g>
<!-- Node0x55f0b0c46b68&#45;&gt;Node0x55f0b0c48058 -->
<g id="edge16" class="edge">
<title>Node0x55f0b0c46b68&#45;&gt;Node0x55f0b0c48058</title>
<path fill="none" stroke="black" d="M822.17,-167.02C869.94,-172.43 922.51,-178.38 970.91,-183.86"/>
<polygon fill="black" stroke="black" points="970.52,-187.34 980.85,-184.98 971.31,-180.38 970.52,-187.34"/>
</g>
<!-- Node0x55f0b0c49d18 -->
<g id="node14" class="node">
<title>Node0x55f0b0c49d18</title>
<polygon fill="#7fffd8" stroke="black" points="1362.5,-275 919.5,-275 919.5,-239 1362.5,-239 1362.5,-275"/>
<text text-anchor="middle" x="1141" y="-253.3" font-family="Times,serif" font-size="14.00">{lib/libLLVMInstrumentation.a(PGOMemOPSizeOpt.cpp.o)}</text>
</g>
<!-- Node0x55f0b0c46b68&#45;&gt;Node0x55f0b0c49d18 -->
<g id="edge17" class="edge">
<title>Node0x55f0b0c46b68&#45;&gt;Node0x55f0b0c49d18</title>
<path fill="none" stroke="black" d="M707.7,-167.1C755.67,-185.78 834.5,-214.33 905,-230 917.02,-232.67 929.45,-235.09 942.02,-237.27"/>
<polygon fill="black" stroke="black" points="941.7,-240.77 952.14,-238.97 942.86,-233.86 941.7,-240.77"/>
</g>
<!-- Node0x55f0b0c55c08 -->
<g id="node15" class="node">
<title>Node0x55f0b0c55c08</title>
<polygon fill="#7fb2ff" stroke="black" points="1356,-167 926,-167 926,-131 1356,-131 1356,-167"/>
<text text-anchor="middle" x="1141" y="-145.3" font-family="Times,serif" font-size="14.00">{lib/libLLVMInstrumentation.a(SanitizerCoverage.cpp.o)}</text>
</g>
<!-- Node0x55f0b0c46b68&#45;&gt;Node0x55f0b0c55c08 -->
<g id="edge18" class="edge">
<title>Node0x55f0b0c46b68&#45;&gt;Node0x55f0b0c55c08</title>
<path fill="none" stroke="#7fb2ff" d="M869.1,-142.31C884.5,-142.25 900.08,-142.24 915.58,-142.26"/>
<polygon fill="#7fb2ff" stroke="#7fb2ff" points="915.75,-145.76 925.75,-142.28 915.76,-138.76 915.75,-145.76"/>
</g>
<!-- Node0x55f0b0c55b18 -->
<g id="node16" class="node">
<title>Node0x55f0b0c55b18</title>
<polygon fill="none" stroke="black" points="1346.5,-113 935.5,-113 935.5,-77 1346.5,-77 1346.5,-113"/>
<text text-anchor="middle" x="1141" y="-91.3" font-family="Times,serif" font-size="14.00">{lib/libLLVMInstrumentation.a(ThreadSanitizer.cpp.o)}</text>
</g>
<!-- Node0x55f0b0c46b68&#45;&gt;Node0x55f0b0c55b18 -->
<g id="edge19" class="edge">
<title>Node0x55f0b0c46b68&#45;&gt;Node0x55f0b0c55b18</title>
<path fill="none" stroke="black" d="M822.17,-130.98C869.94,-125.57 922.51,-119.62 970.91,-114.14"/>
<polygon fill="black" stroke="black" points="971.31,-117.62 980.85,-113.02 970.52,-110.66 971.31,-117.62"/>
</g>
<!-- Node0x55f0b0c57418 -->
<g id="node17" class="node">
<title>Node0x55f0b0c57418</title>
<polygon fill="none" stroke="black" points="1363,-59 919,-59 919,-23 1363,-23 1363,-59"/>
<text text-anchor="middle" x="1141" y="-37.3" font-family="Times,serif" font-size="14.00">{lib/libLLVMInstrumentation.a(HWAddressSanitizer.cpp.o)}</text>
</g>
<!-- Node0x55f0b0c46b68&#45;&gt;Node0x55f0b0c57418 -->
<g id="edge20" class="edge">
<title>Node0x55f0b0c46b68&#45;&gt;Node0x55f0b0c57418</title>
<path fill="none" stroke="black" d="M707.7,-130.9C755.67,-112.22 834.5,-83.67 905,-68 917.02,-65.33 929.45,-62.91 942.02,-60.73"/>
<polygon fill="black" stroke="black" points="942.86,-64.14 952.14,-59.03 941.7,-57.23 942.86,-64.14"/>
</g>
<!-- Node0x55f0b0c55488 -->
<g id="node18" class="node">
<title>Node0x55f0b0c55488</title>
<polygon fill="#7fffd8" stroke="black" points="1859,-248 1413,-248 1413,-212 1859,-212 1859,-248"/>
<text text-anchor="middle" x="1636" y="-226.3" font-family="Times,serif" font-size="14.00">{lib/libLLVMInstrumentation.a(ValueProfileCollector.cpp.o)}</text>
</g>
<!-- Node0x55f0b0c48058&#45;&gt;Node0x55f0b0c55488 -->
<g id="edge2" class="edge">
<title>Node0x55f0b0c48058&#45;&gt;Node0x55f0b0c55488</title>
<path fill="none" stroke="#7fffd8" d="M1364.34,-215.18C1377.04,-215.87 1389.82,-216.57 1402.55,-217.27"/>
<polygon fill="#7fffd8" stroke="#7fffd8" points="1402.57,-220.78 1412.75,-217.83 1402.95,-213.79 1402.57,-220.78"/>
</g>
<!-- Node0x55f0b0c49d18&#45;&gt;Node0x55f0b0c48058 -->
<g id="edge3" class="edge">
<title>Node0x55f0b0c49d18&#45;&gt;Node0x55f0b0c48058</title>
<path fill="none" stroke="#7fffd8" d="M1141,-238.79C1141,-236.31 1141,-233.83 1141,-231.34"/>
<polygon fill="#7fffd8" stroke="#7fffd8" points="1144.5,-231.14 1141,-221.14 1137.5,-231.14 1144.5,-231.14"/>
</g>
<!-- Node0x55f0b0c55c08&#45;&gt;Node0x55f0b0c46b68 -->
<g id="edge4" class="edge">
<title>Node0x55f0b0c55c08&#45;&gt;Node0x55f0b0c46b68</title>
<path fill="none" stroke="#7fb2ff" d="M925.75,-155.72C910.3,-155.76 894.71,-155.76 879.24,-155.72"/>
<polygon fill="#7fb2ff" stroke="#7fb2ff" points="879.11,-152.22 869.1,-155.69 879.09,-159.22 879.11,-152.22"/>
</g>
<!-- Node0x55f0b0c55488&#45;&gt;Node0x55f0b0c49d18 -->
<g id="edge21" class="edge">
<title>Node0x55f0b0c55488&#45;&gt;Node0x55f0b0c49d18</title>
<path fill="none" stroke="#7fffd8" d="M1412.71,-242.17C1399.42,-242.9 1386.04,-243.63 1372.72,-244.36"/>
<polygon fill="#7fffd8" stroke="#7fffd8" points="1372.34,-240.88 1362.54,-244.92 1372.72,-247.87 1372.34,-240.88"/>
</g>
<!-- Node0x55f0b0c49548 -->
<g id="node19" class="node">
<title>Node0x55f0b0c49548</title>
<polygon fill="none" stroke="black" points="414.5,-221 4.5,-221 4.5,-185 414.5,-185 414.5,-221"/>
<text text-anchor="middle" x="209.5" y="-199.3" font-family="Times,serif" font-size="14.00">{lib/libLLVMInstrumentation.a(PoisonChecking.cpp.o)}</text>
</g>
</g>
</svg>
