<?xml version="1.0" encoding="UTF-8" standalone="no"?>
<!DOCTYPE svg PUBLIC "-//W3C//DTD SVG 1.1//EN"
 "http://www.w3.org/Graphics/SVG/1.1/DTD/svg11.dtd">
<!-- Generated by graphviz version 2.43.0 (0)
 -->
<!-- Title: lib/libLTO.so.13git_lib/libLLVMInstCombine.a Pages: 1 -->
<svg width="1427pt" height="722pt"
 viewBox="0.00 0.00 1427.00 721.57" xmlns="http://www.w3.org/2000/svg" xmlns:xlink="http://www.w3.org/1999/xlink">
<g id="graph0" class="graph" transform="scale(1 1) rotate(0) translate(4 717.57)">
<title>lib/libLTO.so.13git_lib/libLLVMInstCombine.a</title>
<polygon fill="white" stroke="transparent" points="-4,4 -4,-717.57 1423,-717.57 1423,4 -4,4"/>
<text text-anchor="middle" x="709.5" y="-7.8" font-family="Times,serif" font-size="14.00">lib/libLTO.so.13git_lib/libLLVMInstCombine.a</text>
<!-- Node0x56342ac22298 -->
<g id="node1" class="node">
<title>Node0x56342ac22298</title>
<polygon fill="#7fb2ff" stroke="black" points="428,-332.4 0,-332.4 0,-296.4 428,-296.4 428,-332.4"/>
<text text-anchor="middle" x="214" y="-310.7" font-family="Times,serif" font-size="14.00">{lib/libLLVMInstCombine.a(InstructionCombining.cpp.o)}</text>
</g>
<!-- Node0x56342ac1e238 -->
<g id="node2" class="node">
<title>Node0x56342ac1e238</title>
<polygon fill="#7fb2ff" stroke="black" points="932,-710.4 495,-710.4 495,-674.4 932,-674.4 932,-710.4"/>
<text text-anchor="middle" x="713.5" y="-688.7" font-family="Times,serif" font-size="14.00">{lib/libLLVMInstCombine.a(InstCombineVectorOps.cpp.o)}</text>
</g>
<!-- Node0x56342ac22298&#45;&gt;Node0x56342ac1e238 -->
<g id="edge1" class="edge">
<title>Node0x56342ac22298&#45;&gt;Node0x56342ac1e238</title>
<path fill="none" stroke="#7fb2ff" d="M221.61,-332.69C244.38,-392.67 325.81,-584.25 464,-665.4 470.84,-669.42 477.97,-673 485.32,-676.19"/>
<polygon fill="#7fb2ff" stroke="#7fb2ff" points="484.15,-679.49 494.73,-680.02 486.79,-673.01 484.15,-679.49"/>
</g>
<!-- Node0x56342ac22518 -->
<g id="node3" class="node">
<title>Node0x56342ac22518</title>
<polygon fill="#7fb2ff" stroke="black" points="923,-62.4 504,-62.4 504,-26.4 923,-26.4 923,-62.4"/>
<text text-anchor="middle" x="713.5" y="-40.7" font-family="Times,serif" font-size="14.00">{lib/libLLVMInstCombine.a(InstCombineAddSub.cpp.o)}</text>
</g>
<!-- Node0x56342ac22298&#45;&gt;Node0x56342ac22518 -->
<g id="edge2" class="edge">
<title>Node0x56342ac22298&#45;&gt;Node0x56342ac22518</title>
<path fill="none" stroke="#7fb2ff" d="M224.27,-296.29C253.43,-247.83 348.18,-117.03 464,-62.4 473.69,-57.83 483.82,-53.89 494.23,-50.51"/>
<polygon fill="#7fb2ff" stroke="#7fb2ff" points="495.31,-53.84 503.85,-47.56 493.26,-47.15 495.31,-53.84"/>
</g>
<!-- Node0x56342ac22ab8 -->
<g id="node4" class="node">
<title>Node0x56342ac22ab8</title>
<polygon fill="none" stroke="black" points="938,-656.4 489,-656.4 489,-620.4 938,-620.4 938,-656.4"/>
<text text-anchor="middle" x="713.5" y="-634.7" font-family="Times,serif" font-size="14.00">{lib/libLLVMInstCombine.a(InstCombineAtomicRMW.cpp.o)}</text>
</g>
<!-- Node0x56342ac22298&#45;&gt;Node0x56342ac22ab8 -->
<g id="edge3" class="edge">
<title>Node0x56342ac22298&#45;&gt;Node0x56342ac22ab8</title>
<path fill="none" stroke="black" d="M223.77,-332.51C250.82,-386.12 338.78,-544.51 464,-611.4 468.96,-614.06 474.06,-616.51 479.27,-618.78"/>
<polygon fill="black" stroke="black" points="478.17,-622.11 488.75,-622.66 480.83,-615.63 478.17,-622.11"/>
</g>
<!-- Node0x56342ac1da68 -->
<g id="node5" class="node">
<title>Node0x56342ac1da68</title>
<polygon fill="#7fb2ff" stroke="black" points="929.5,-278.4 497.5,-278.4 497.5,-242.4 929.5,-242.4 929.5,-278.4"/>
<text text-anchor="middle" x="713.5" y="-256.7" font-family="Times,serif" font-size="14.00">{lib/libLLVMInstCombine.a(InstCombineAndOrXor.cpp.o)}</text>
</g>
<!-- Node0x56342ac22298&#45;&gt;Node0x56342ac1da68 -->
<g id="edge4" class="edge">
<title>Node0x56342ac22298&#45;&gt;Node0x56342ac1da68</title>
<path fill="none" stroke="#7fb2ff" d="M327.89,-296.39C375.12,-290.5 431.78,-284.03 486.9,-278.17"/>
<polygon fill="#7fb2ff" stroke="#7fb2ff" points="487.6,-281.61 497.18,-277.08 486.86,-274.65 487.6,-281.61"/>
</g>
<!-- Node0x56342ac1e9b8 -->
<g id="node6" class="node">
<title>Node0x56342ac1e9b8</title>
<polygon fill="#7fb2ff" stroke="black" points="912.5,-602.4 514.5,-602.4 514.5,-566.4 912.5,-566.4 912.5,-602.4"/>
<text text-anchor="middle" x="713.5" y="-580.7" font-family="Times,serif" font-size="14.00">{lib/libLLVMInstCombine.a(InstCombineCalls.cpp.o)}</text>
</g>
<!-- Node0x56342ac22298&#45;&gt;Node0x56342ac1e9b8 -->
<g id="edge5" class="edge">
<title>Node0x56342ac22298&#45;&gt;Node0x56342ac1e9b8</title>
<path fill="none" stroke="#7fb2ff" d="M230.11,-332.44C264.67,-378.14 355.01,-497 464,-548.4 477.08,-554.57 490.96,-559.59 505.21,-563.68"/>
<polygon fill="#7fb2ff" stroke="#7fb2ff" points="504.57,-567.13 515.13,-566.36 506.39,-560.37 504.57,-567.13"/>
</g>
<!-- Node0x56342ac1e6e8 -->
<g id="node7" class="node">
<title>Node0x56342ac1e6e8</title>
<polygon fill="#7fb2ff" stroke="black" points="915,-224.4 512,-224.4 512,-188.4 915,-188.4 915,-224.4"/>
<text text-anchor="middle" x="713.5" y="-202.7" font-family="Times,serif" font-size="14.00">{lib/libLLVMInstCombine.a(InstCombineCasts.cpp.o)}</text>
</g>
<!-- Node0x56342ac22298&#45;&gt;Node0x56342ac1e6e8 -->
<g id="edge6" class="edge">
<title>Node0x56342ac22298&#45;&gt;Node0x56342ac1e6e8</title>
<path fill="none" stroke="#7fb2ff" d="M245.88,-296.25C292.39,-275.01 383.55,-241.67 464,-224.4 476.34,-221.76 489.09,-219.36 501.98,-217.21"/>
<polygon fill="#7fb2ff" stroke="#7fb2ff" points="502.56,-220.66 511.87,-215.61 501.44,-213.75 502.56,-220.66"/>
</g>
<!-- Node0x56342ac1ef08 -->
<g id="node8" class="node">
<title>Node0x56342ac1ef08</title>
<polygon fill="#7fb2ff" stroke="black" points="931,-386.4 496,-386.4 496,-350.4 931,-350.4 931,-386.4"/>
<text text-anchor="middle" x="713.5" y="-364.7" font-family="Times,serif" font-size="14.00">{lib/libLLVMInstCombine.a(InstCombineCompares.cpp.o)}</text>
</g>
<!-- Node0x56342ac22298&#45;&gt;Node0x56342ac1ef08 -->
<g id="edge7" class="edge">
<title>Node0x56342ac22298&#45;&gt;Node0x56342ac1ef08</title>
<path fill="none" stroke="#7fb2ff" d="M428.15,-330.85C483.29,-336.64 540.82,-343.15 589.59,-349.15"/>
<polygon fill="#7fb2ff" stroke="#7fb2ff" points="589.19,-352.63 599.54,-350.38 590.05,-345.68 589.19,-352.63"/>
</g>
<!-- Node0x56342ac1af98 -->
<g id="node9" class="node">
<title>Node0x56342ac1af98</title>
<polygon fill="#7fb2ff" stroke="black" points="953,-116.4 474,-116.4 474,-80.4 953,-80.4 953,-116.4"/>
<text text-anchor="middle" x="713.5" y="-94.7" font-family="Times,serif" font-size="14.00">{lib/libLLVMInstCombine.a(InstCombineLoadStoreAlloca.cpp.o)}</text>
</g>
<!-- Node0x56342ac22298&#45;&gt;Node0x56342ac1af98 -->
<g id="edge8" class="edge">
<title>Node0x56342ac22298&#45;&gt;Node0x56342ac1af98</title>
<path fill="none" stroke="#7fb2ff" d="M227.65,-296.31C261.71,-255.41 359.87,-157.84 464,-116.4 464.1,-116.36 464.2,-116.32 464.3,-116.28"/>
<polygon fill="#7fb2ff" stroke="#7fb2ff" points="465.67,-119.51 473.79,-112.71 463.2,-112.96 465.67,-119.51"/>
</g>
<!-- Node0x56342ac1b8f8 -->
<g id="node10" class="node">
<title>Node0x56342ac1b8f8</title>
<polygon fill="#7fb2ff" stroke="black" points="937,-548.4 490,-548.4 490,-512.4 937,-512.4 937,-548.4"/>
<text text-anchor="middle" x="713.5" y="-526.7" font-family="Times,serif" font-size="14.00">{lib/libLLVMInstCombine.a(InstCombineMulDivRem.cpp.o)}</text>
</g>
<!-- Node0x56342ac22298&#45;&gt;Node0x56342ac1b8f8 -->
<g id="edge9" class="edge">
<title>Node0x56342ac22298&#45;&gt;Node0x56342ac1b8f8</title>
<path fill="none" stroke="#7fb2ff" d="M237.01,-332.69C277.44,-370.64 368.19,-456.28 464,-494.4 480.5,-500.97 498.07,-506.13 515.96,-510.19"/>
<polygon fill="#7fb2ff" stroke="#7fb2ff" points="515.41,-513.66 525.92,-512.34 516.88,-506.81 515.41,-513.66"/>
</g>
<!-- Node0x56342ac1be48 -->
<g id="node11" class="node">
<title>Node0x56342ac1be48</title>
<polygon fill="#7fb2ff" stroke="black" points="908.5,-494.4 518.5,-494.4 518.5,-458.4 908.5,-458.4 908.5,-494.4"/>
<text text-anchor="middle" x="713.5" y="-472.7" font-family="Times,serif" font-size="14.00">{lib/libLLVMInstCombine.a(InstCombinePHI.cpp.o)}</text>
</g>
<!-- Node0x56342ac22298&#45;&gt;Node0x56342ac1be48 -->
<g id="edge10" class="edge">
<title>Node0x56342ac22298&#45;&gt;Node0x56342ac1be48</title>
<path fill="none" stroke="#7fb2ff" d="M249.34,-332.57C295.66,-361.09 381.85,-414.77 464,-440.4 486.66,-447.48 510.99,-452.76 535.24,-456.78"/>
<polygon fill="#7fb2ff" stroke="#7fb2ff" points="534.82,-460.26 545.25,-458.38 535.92,-453.35 534.82,-460.26"/>
</g>
<!-- Node0x56342ac1ced8 -->
<g id="node12" class="node">
<title>Node0x56342ac1ced8</title>
<polygon fill="#7fb2ff" stroke="black" points="917,-440.4 510,-440.4 510,-404.4 917,-404.4 917,-440.4"/>
<text text-anchor="middle" x="713.5" y="-418.7" font-family="Times,serif" font-size="14.00">{lib/libLLVMInstCombine.a(InstCombineSelect.cpp.o)}</text>
</g>
<!-- Node0x56342ac22298&#45;&gt;Node0x56342ac1ced8 -->
<g id="edge11" class="edge">
<title>Node0x56342ac22298&#45;&gt;Node0x56342ac1ced8</title>
<path fill="none" stroke="#7fb2ff" d="M280.56,-332.41C330.19,-349.09 400.44,-372.77 464,-386.4 497.69,-393.63 534.4,-398.98 569,-403.18"/>
<polygon fill="#7fb2ff" stroke="#7fb2ff" points="568.84,-406.68 579.18,-404.39 569.66,-399.73 568.84,-406.68"/>
</g>
<!-- Node0x56342ac1c898 -->
<g id="node13" class="node">
<title>Node0x56342ac1c898</title>
<polygon fill="#7fb2ff" stroke="black" points="916,-332.4 511,-332.4 511,-296.4 916,-296.4 916,-332.4"/>
<text text-anchor="middle" x="713.5" y="-310.7" font-family="Times,serif" font-size="14.00">{lib/libLLVMInstCombine.a(InstCombineShifts.cpp.o)}</text>
</g>
<!-- Node0x56342ac22298&#45;&gt;Node0x56342ac1c898 -->
<g id="edge12" class="edge">
<title>Node0x56342ac22298&#45;&gt;Node0x56342ac1c898</title>
<path fill="none" stroke="#7fb2ff" d="M428.15,-307.72C452.15,-307.63 476.6,-307.63 500.58,-307.72"/>
<polygon fill="#7fb2ff" stroke="#7fb2ff" points="500.82,-311.22 510.83,-307.76 500.85,-304.22 500.82,-311.22"/>
</g>
<!-- Node0x56342ac22478 -->
<g id="node14" class="node">
<title>Node0x56342ac22478</title>
<polygon fill="#7fb2ff" stroke="black" points="963,-170.4 464,-170.4 464,-134.4 963,-134.4 963,-170.4"/>
<text text-anchor="middle" x="713.5" y="-148.7" font-family="Times,serif" font-size="14.00">{lib/libLLVMInstCombine.a(InstCombineSimplifyDemanded.cpp.o)}</text>
</g>
<!-- Node0x56342ac22298&#45;&gt;Node0x56342ac22478 -->
<g id="edge13" class="edge">
<title>Node0x56342ac22298&#45;&gt;Node0x56342ac22478</title>
<path fill="none" stroke="#7fb2ff" d="M233.24,-296.39C271.58,-265.4 364.42,-203.81 454.73,-173.41"/>
<polygon fill="#7fb2ff" stroke="#7fb2ff" points="455.88,-176.72 464.31,-170.31 453.72,-170.06 455.88,-176.72"/>
</g>
<!-- Node0x56342ac1e238&#45;&gt;Node0x56342ac22478 -->
<g id="edge14" class="edge">
<title>Node0x56342ac1e238&#45;&gt;Node0x56342ac22478</title>
<path fill="none" stroke="#7fb2ff" d="M627.7,-710.41C563.92,-718.13 481.97,-714.6 446,-656.4 432.33,-634.29 432.33,-210.52 446,-188.4 480.07,-133.28 555.4,-127.21 617.47,-133.28"/>
<polygon fill="#7fb2ff" stroke="#7fb2ff" points="617.38,-136.79 627.7,-134.4 618.14,-129.83 617.38,-136.79"/>
</g>
<!-- Node0x56342ac22518&#45;&gt;Node0x56342ac22298 -->
<g id="edge15" class="edge">
<title>Node0x56342ac22518&#45;&gt;Node0x56342ac22298</title>
<path fill="none" stroke="#7fb2ff" d="M515.13,-62.45C497.4,-66.96 480.09,-72.81 464,-80.4 360.97,-129 274.61,-237.87 236.27,-288.24"/>
<polygon fill="#7fb2ff" stroke="#7fb2ff" points="233.36,-286.29 230.11,-296.37 238.94,-290.52 233.36,-286.29"/>
</g>
<!-- Node0x56342ac1b628 -->
<g id="node15" class="node">
<title>Node0x56342ac1b628</title>
<polygon fill="none" stroke="black" points="1419,-305.4 999,-305.4 999,-269.4 1419,-269.4 1419,-305.4"/>
<text text-anchor="middle" x="1209" y="-283.7" font-family="Times,serif" font-size="14.00">{lib/libLLVMInstCombine.a(InstCombineNegator.cpp.o)}</text>
</g>
<!-- Node0x56342ac22518&#45;&gt;Node0x56342ac1b628 -->
<g id="edge16" class="edge">
<title>Node0x56342ac22518&#45;&gt;Node0x56342ac1b628</title>
<path fill="none" stroke="black" d="M923.14,-57.37C936.88,-61.18 950.29,-65.8 963,-71.4 1062.11,-115.12 1149.73,-213.87 1187.82,-261.18"/>
<polygon fill="black" stroke="black" points="1185.17,-263.47 1194.14,-269.12 1190.65,-259.11 1185.17,-263.47"/>
</g>
<!-- Node0x56342ac1da68&#45;&gt;Node0x56342ac22298 -->
<g id="edge17" class="edge">
<title>Node0x56342ac1da68&#45;&gt;Node0x56342ac22298</title>
<path fill="none" stroke="#7fb2ff" d="M599.54,-278.43C551.64,-284.4 494.04,-290.97 438.19,-296.9"/>
<polygon fill="#7fb2ff" stroke="#7fb2ff" points="437.73,-293.43 428.15,-297.96 438.46,-300.39 437.73,-293.43"/>
</g>
<!-- Node0x56342ac1da68&#45;&gt;Node0x56342ac22518 -->
<g id="edge18" class="edge">
<title>Node0x56342ac1da68&#45;&gt;Node0x56342ac22518</title>
<path fill="none" stroke="#7fb2ff" d="M627.7,-278.41C563.92,-286.13 481.97,-282.6 446,-224.4 429.18,-197.18 429.18,-107.63 446,-80.4 480.07,-25.28 555.4,-19.21 617.47,-25.28"/>
<polygon fill="#7fb2ff" stroke="#7fb2ff" points="617.38,-28.79 627.7,-26.4 618.14,-21.83 617.38,-28.79"/>
</g>
<!-- Node0x56342ac1da68&#45;&gt;Node0x56342ac1e6e8 -->
<g id="edge19" class="edge">
<title>Node0x56342ac1da68&#45;&gt;Node0x56342ac1e6e8</title>
<path fill="none" stroke="#7fb2ff" d="M713.5,-242.19C713.5,-239.71 713.5,-237.23 713.5,-234.75"/>
<polygon fill="#7fb2ff" stroke="#7fb2ff" points="717,-234.54 713.5,-224.54 710,-234.54 717,-234.54"/>
</g>
<!-- Node0x56342ac1da68&#45;&gt;Node0x56342ac22478 -->
<g id="edge20" class="edge">
<title>Node0x56342ac1da68&#45;&gt;Node0x56342ac22478</title>
<path fill="none" stroke="#7fb2ff" d="M627.7,-278.41C563.92,-286.13 481.97,-282.6 446,-224.4 431.25,-200.55 437.11,-183.82 454.94,-172.22"/>
<polygon fill="#7fb2ff" stroke="#7fb2ff" points="456.89,-175.14 463.95,-167.24 453.51,-169.01 456.89,-175.14"/>
</g>
<!-- Node0x56342ac1e9b8&#45;&gt;Node0x56342ac22298 -->
<g id="edge21" class="edge">
<title>Node0x56342ac1e9b8&#45;&gt;Node0x56342ac22298</title>
<path fill="none" stroke="#7fb2ff" d="M514.48,-584.12C496.98,-579.7 479.9,-573.9 464,-566.4 354.52,-514.77 263.85,-395.06 229.64,-341.18"/>
<polygon fill="#7fb2ff" stroke="#7fb2ff" points="232.51,-339.18 224.27,-332.52 226.56,-342.86 232.51,-339.18"/>
</g>
<!-- Node0x56342ac1e9b8&#45;&gt;Node0x56342ac1ef08 -->
<g id="edge22" class="edge">
<title>Node0x56342ac1e9b8&#45;&gt;Node0x56342ac1ef08</title>
<path fill="none" stroke="#7fb2ff" d="M627.7,-602.41C563.92,-610.13 481.97,-606.6 446,-548.4 429.18,-521.18 429.18,-431.63 446,-404.4 480.07,-349.28 555.4,-343.21 617.47,-349.28"/>
<polygon fill="#7fb2ff" stroke="#7fb2ff" points="617.38,-352.79 627.7,-350.4 618.14,-345.83 617.38,-352.79"/>
</g>
<!-- Node0x56342ac1e9b8&#45;&gt;Node0x56342ac22478 -->
<g id="edge23" class="edge">
<title>Node0x56342ac1e9b8&#45;&gt;Node0x56342ac22478</title>
<path fill="none" stroke="#7fb2ff" d="M627.7,-602.41C563.92,-610.13 481.97,-606.6 446,-548.4 424.97,-514.38 424.97,-222.43 446,-188.4 480.07,-133.28 555.4,-127.21 617.47,-133.28"/>
<polygon fill="#7fb2ff" stroke="#7fb2ff" points="617.38,-136.79 627.7,-134.4 618.14,-129.83 617.38,-136.79"/>
</g>
<!-- Node0x56342ac1e6e8&#45;&gt;Node0x56342ac22298 -->
<g id="edge24" class="edge">
<title>Node0x56342ac1e6e8&#45;&gt;Node0x56342ac22298</title>
<path fill="none" stroke="#7fb2ff" d="M579.18,-224.42C541.67,-228.8 501.02,-234.46 464,-242.4 404.41,-255.19 338.95,-276.8 290.1,-293.19"/>
<polygon fill="#7fb2ff" stroke="#7fb2ff" points="288.93,-289.89 280.56,-296.39 291.16,-296.53 288.93,-289.89"/>
</g>
<!-- Node0x56342ac1e6e8&#45;&gt;Node0x56342ac1af98 -->
<g id="edge25" class="edge">
<title>Node0x56342ac1e6e8&#45;&gt;Node0x56342ac1af98</title>
<path fill="none" stroke="#7fb2ff" d="M627.7,-224.41C563.92,-232.13 481.97,-228.6 446,-170.4 428.87,-142.68 439.55,-124.59 464.51,-112.98"/>
<polygon fill="#7fb2ff" stroke="#7fb2ff" points="465.98,-116.16 473.92,-109.13 463.34,-109.68 465.98,-116.16"/>
</g>
<!-- Node0x56342ac1e6e8&#45;&gt;Node0x56342ac22478 -->
<g id="edge26" class="edge">
<title>Node0x56342ac1e6e8&#45;&gt;Node0x56342ac22478</title>
<path fill="none" stroke="#7fb2ff" d="M713.5,-188.19C713.5,-185.71 713.5,-183.23 713.5,-180.75"/>
<polygon fill="#7fb2ff" stroke="#7fb2ff" points="717,-180.54 713.5,-170.54 710,-180.54 717,-180.54"/>
</g>
<!-- Node0x56342ac1ef08&#45;&gt;Node0x56342ac22298 -->
<g id="edge27" class="edge">
<title>Node0x56342ac1ef08&#45;&gt;Node0x56342ac22298</title>
<path fill="none" stroke="#7fb2ff" d="M495.93,-351.6C441.85,-345.9 385.7,-339.54 337.95,-333.66"/>
<polygon fill="#7fb2ff" stroke="#7fb2ff" points="338.24,-330.17 327.89,-332.42 337.38,-337.12 338.24,-330.17"/>
</g>
<!-- Node0x56342ac1ef08&#45;&gt;Node0x56342ac1da68 -->
<g id="edge28" class="edge">
<title>Node0x56342ac1ef08&#45;&gt;Node0x56342ac1da68</title>
<path fill="none" stroke="#7fb2ff" d="M627.7,-386.41C563.92,-394.13 481.97,-390.6 446,-332.4 424.29,-297.28 447.24,-277.61 487.33,-266.99"/>
<polygon fill="#7fb2ff" stroke="#7fb2ff" points="488.38,-270.34 497.29,-264.61 486.75,-263.53 488.38,-270.34"/>
</g>
<!-- Node0x56342ac1ef08&#45;&gt;Node0x56342ac1c898 -->
<g id="edge29" class="edge">
<title>Node0x56342ac1ef08&#45;&gt;Node0x56342ac1c898</title>
<path fill="none" stroke="#7fb2ff" d="M713.5,-350.19C713.5,-347.71 713.5,-345.23 713.5,-342.75"/>
<polygon fill="#7fb2ff" stroke="#7fb2ff" points="717,-342.54 713.5,-332.54 710,-342.54 717,-342.54"/>
</g>
<!-- Node0x56342ac1ef08&#45;&gt;Node0x56342ac22478 -->
<g id="edge30" class="edge">
<title>Node0x56342ac1ef08&#45;&gt;Node0x56342ac22478</title>
<path fill="none" stroke="#7fb2ff" d="M627.7,-386.41C563.92,-394.13 481.97,-390.6 446,-332.4 429.18,-305.18 429.18,-215.63 446,-188.4 480.07,-133.28 555.4,-127.21 617.47,-133.28"/>
<polygon fill="#7fb2ff" stroke="#7fb2ff" points="617.38,-136.79 627.7,-134.4 618.14,-129.83 617.38,-136.79"/>
</g>
<!-- Node0x56342ac1af98&#45;&gt;Node0x56342ac22298 -->
<g id="edge31" class="edge">
<title>Node0x56342ac1af98&#45;&gt;Node0x56342ac22298</title>
<path fill="none" stroke="#7fb2ff" d="M525.92,-116.46C504.62,-120.82 483.56,-126.62 464,-134.4 373.62,-170.37 287.74,-248.62 244.36,-289.23"/>
<polygon fill="#7fb2ff" stroke="#7fb2ff" points="241.91,-286.72 237.01,-296.12 246.7,-291.83 241.91,-286.72"/>
</g>
<!-- Node0x56342ac1b8f8&#45;&gt;Node0x56342ac22298 -->
<g id="edge32" class="edge">
<title>Node0x56342ac1b8f8&#45;&gt;Node0x56342ac22298</title>
<path fill="none" stroke="#7fb2ff" d="M489.83,-521.34C481.01,-518.7 472.37,-515.73 464,-512.4 365.97,-473.39 273.24,-384.64 234.29,-340.25"/>
<polygon fill="#7fb2ff" stroke="#7fb2ff" points="236.81,-337.82 227.65,-332.5 231.49,-342.37 236.81,-337.82"/>
</g>
<!-- Node0x56342ac1b8f8&#45;&gt;Node0x56342ac22478 -->
<g id="edge34" class="edge">
<title>Node0x56342ac1b8f8&#45;&gt;Node0x56342ac22478</title>
<path fill="none" stroke="#7fb2ff" d="M627.7,-548.41C563.92,-556.13 481.97,-552.6 446,-494.4 428.13,-465.48 428.13,-217.33 446,-188.4 480.07,-133.28 555.4,-127.21 617.47,-133.28"/>
<polygon fill="#7fb2ff" stroke="#7fb2ff" points="617.38,-136.79 627.7,-134.4 618.14,-129.83 617.38,-136.79"/>
</g>
<!-- Node0x56342ac1b8f8&#45;&gt;Node0x56342ac1b628 -->
<g id="edge33" class="edge">
<title>Node0x56342ac1b8f8&#45;&gt;Node0x56342ac1b628</title>
<path fill="none" stroke="black" d="M937.18,-513.22C946.02,-510.34 954.66,-507.08 963,-503.4 1062.11,-459.69 1149.73,-360.94 1187.82,-313.63"/>
<polygon fill="black" stroke="black" points="1190.65,-315.7 1194.14,-305.69 1185.17,-311.34 1190.65,-315.7"/>
</g>
<!-- Node0x56342ac1be48&#45;&gt;Node0x56342ac22298 -->
<g id="edge35" class="edge">
<title>Node0x56342ac1be48&#45;&gt;Node0x56342ac22298</title>
<path fill="none" stroke="#7fb2ff" d="M518.35,-471.69C499.78,-468.21 481.4,-463.83 464,-458.4 376.87,-431.21 285.18,-372.47 241.35,-338.81"/>
<polygon fill="#7fb2ff" stroke="#7fb2ff" points="243.26,-335.86 233.24,-332.42 238.93,-341.36 243.26,-335.86"/>
</g>
<!-- Node0x56342ac1ced8&#45;&gt;Node0x56342ac22298 -->
<g id="edge36" class="edge">
<title>Node0x56342ac1ced8&#45;&gt;Node0x56342ac22298</title>
<path fill="none" stroke="#7fb2ff" d="M509.87,-412.88C494.29,-410.41 478.85,-407.59 464,-404.4 388.58,-388.22 303.74,-357.9 255.11,-336.68"/>
<polygon fill="#7fb2ff" stroke="#7fb2ff" points="256.44,-333.44 245.88,-332.56 253.58,-339.83 256.44,-333.44"/>
</g>
<!-- Node0x56342ac1ced8&#45;&gt;Node0x56342ac1ef08 -->
<g id="edge37" class="edge">
<title>Node0x56342ac1ced8&#45;&gt;Node0x56342ac1ef08</title>
<path fill="none" stroke="#7fb2ff" d="M713.5,-404.19C713.5,-401.71 713.5,-399.23 713.5,-396.75"/>
<polygon fill="#7fb2ff" stroke="#7fb2ff" points="717,-396.54 713.5,-386.54 710,-396.54 717,-396.54"/>
</g>
<!-- Node0x56342ac1ced8&#45;&gt;Node0x56342ac22478 -->
<g id="edge38" class="edge">
<title>Node0x56342ac1ced8&#45;&gt;Node0x56342ac22478</title>
<path fill="none" stroke="#7fb2ff" d="M627.7,-440.41C563.92,-448.13 481.97,-444.6 446,-386.4 422.87,-348.98 422.87,-225.83 446,-188.4 480.07,-133.28 555.4,-127.21 617.47,-133.28"/>
<polygon fill="#7fb2ff" stroke="#7fb2ff" points="617.38,-136.79 627.7,-134.4 618.14,-129.83 617.38,-136.79"/>
</g>
<!-- Node0x56342ac1c898&#45;&gt;Node0x56342ac22298 -->
<g id="edge39" class="edge">
<title>Node0x56342ac1c898&#45;&gt;Node0x56342ac22298</title>
<path fill="none" stroke="#7fb2ff" d="M510.83,-321.05C487,-321.16 462.57,-321.18 438.46,-321.12"/>
<polygon fill="#7fb2ff" stroke="#7fb2ff" points="438.16,-317.62 428.15,-321.09 438.14,-324.62 438.16,-317.62"/>
</g>
<!-- Node0x56342ac1c898&#45;&gt;Node0x56342ac22478 -->
<g id="edge40" class="edge">
<title>Node0x56342ac1c898&#45;&gt;Node0x56342ac22478</title>
<path fill="none" stroke="#7fb2ff" d="M627.7,-332.41C563.92,-340.13 481.97,-336.6 446,-278.4 424.97,-244.38 424.97,-222.43 446,-188.4 480.07,-133.28 555.4,-127.21 617.47,-133.28"/>
<polygon fill="#7fb2ff" stroke="#7fb2ff" points="617.38,-136.79 627.7,-134.4 618.14,-129.83 617.38,-136.79"/>
</g>
<!-- Node0x56342ac22478&#45;&gt;Node0x56342ac22298 -->
<g id="edge41" class="edge">
<title>Node0x56342ac22478&#45;&gt;Node0x56342ac22298</title>
<path fill="none" stroke="#7fb2ff" d="M545.25,-170.43C517.73,-174.63 489.79,-180.36 464,-188.4 386.67,-212.54 305.75,-261.52 257.88,-290.97"/>
<polygon fill="#7fb2ff" stroke="#7fb2ff" points="256.02,-288.01 249.34,-296.24 259.69,-293.97 256.02,-288.01"/>
</g>
</g>
</svg>
