<?xml version="1.0" encoding="UTF-8" standalone="no"?>
<!DOCTYPE svg PUBLIC "-//W3C//DTD SVG 1.1//EN"
 "http://www.w3.org/Graphics/SVG/1.1/DTD/svg11.dtd">
<!-- Generated by graphviz version 2.43.0 (0)
 -->
<!-- Title: bin/llvm&#45;jitlink&#45;executor Pages: 1 -->
<svg width="754pt" height="283pt"
 viewBox="0.00 0.00 754.00 283.00" xmlns="http://www.w3.org/2000/svg" xmlns:xlink="http://www.w3.org/1999/xlink">
<g id="graph0" class="graph" transform="scale(1 1) rotate(0) translate(4 279)">
<title>bin/llvm&#45;jitlink&#45;executor</title>
<polygon fill="white" stroke="transparent" points="-4,4 -4,-279 750,-279 750,4 -4,4"/>
<text text-anchor="middle" x="373" y="-7.8" font-family="Times,serif" font-size="14.00">bin/llvm&#45;jitlink&#45;executor</text>
<!-- Node0x55c907bed3d8 -->
<g id="node1" class="node">
<title>Node0x55c907bed3d8</title>
<polygon fill="#ff7f7f" stroke="black" points="746,-275 0,-275 0,-239 746,-239 746,-275"/>
<text text-anchor="middle" x="373" y="-253.3" font-family="Times,serif" font-size="14.00">{tools/llvm&#45;jitlink/llvm&#45;jitlink&#45;executor/CMakeFiles/llvm&#45;jitlink&#45;executor.dir/llvm&#45;jitlink&#45;executor.cpp.o}</text>
</g>
<!-- Node0x55c907bec7f8 -->
<g id="node2" class="node">
<title>Node0x55c907bec7f8</title>
<polygon fill="#ff7f7f" stroke="black" points="335.5,-203 130.5,-203 130.5,-167 335.5,-167 335.5,-203"/>
<text text-anchor="middle" x="233" y="-181.3" font-family="Times,serif" font-size="14.00">{lib/libLLVMOrcShared.a}</text>
</g>
<!-- Node0x55c907bed3d8&#45;&gt;Node0x55c907bec7f8 -->
<g id="edge1" class="edge">
<title>Node0x55c907bed3d8&#45;&gt;Node0x55c907bec7f8</title>
<path fill="none" stroke="#ff7f7f" d="M332.86,-238.88C313.24,-229.55 289.83,-217.92 270.56,-207.94"/>
<polygon fill="#ff7f7f" stroke="#ff7f7f" points="271.96,-204.72 261.48,-203.19 268.72,-210.92 271.96,-204.72"/>
</g>
<!-- Node0x55c907bee0a8 -->
<g id="node3" class="node">
<title>Node0x55c907bee0a8</title>
<polygon fill="#ff7f7f" stroke="black" points="454,-59 198,-59 198,-23 454,-23 454,-59"/>
<text text-anchor="middle" x="326" y="-37.3" font-family="Times,serif" font-size="14.00">{lib/libLLVMOrcTargetProcess.a}</text>
</g>
<!-- Node0x55c907bed3d8&#45;&gt;Node0x55c907bee0a8 -->
<g id="edge2" class="edge">
<title>Node0x55c907bed3d8&#45;&gt;Node0x55c907bee0a8</title>
<path fill="none" stroke="#ff7f7f" d="M382.57,-238.98C403.72,-208.42 448.13,-142.97 419,-95 410.84,-81.57 398.05,-71.38 384.51,-63.72"/>
<polygon fill="#ff7f7f" stroke="#ff7f7f" points="386.03,-60.57 375.55,-59.04 382.79,-66.77 386.03,-60.57"/>
</g>
<!-- Node0x55c907bee4b8 -->
<g id="node4" class="node">
<title>Node0x55c907bee4b8</title>
<polygon fill="#ff7f7f" stroke="black" points="419,-131 233,-131 233,-95 419,-95 419,-131"/>
<text text-anchor="middle" x="326" y="-109.3" font-family="Times,serif" font-size="14.00">{lib/libLLVMSupport.a}</text>
</g>
<!-- Node0x55c907bed3d8&#45;&gt;Node0x55c907bee4b8 -->
<g id="edge3" class="edge">
<title>Node0x55c907bed3d8&#45;&gt;Node0x55c907bee4b8</title>
<path fill="none" stroke="#ff7f7f" d="M361.11,-238.87C353.36,-220.9 344.37,-191.87 336,-167 333.12,-158.44 329.84,-149.15 327.25,-140.78"/>
<polygon fill="#ff7f7f" stroke="#ff7f7f" points="330.61,-139.79 324.51,-131.13 323.88,-141.7 330.61,-139.79"/>
</g>
<!-- Node0x55c907bec7f8&#45;&gt;Node0x55c907bed3d8 -->
<g id="edge4" class="edge">
<title>Node0x55c907bec7f8&#45;&gt;Node0x55c907bed3d8</title>
<path fill="none" stroke="#ff7f7f" d="M273.03,-203.07C292.71,-212.42 316.22,-224.1 335.54,-234.11"/>
<polygon fill="#ff7f7f" stroke="#ff7f7f" points="334.17,-237.35 344.65,-238.88 337.41,-231.14 334.17,-237.35"/>
</g>
<!-- Node0x55c907bec7f8&#45;&gt;Node0x55c907bee4b8 -->
<g id="edge5" class="edge">
<title>Node0x55c907bec7f8&#45;&gt;Node0x55c907bee4b8</title>
<path fill="none" stroke="#ff7f7f" d="M255.99,-166.7C267.81,-157.8 282.39,-146.82 295.18,-137.2"/>
<polygon fill="#ff7f7f" stroke="#ff7f7f" points="297.39,-139.91 303.28,-131.1 293.18,-134.32 297.39,-139.91"/>
</g>
<!-- Node0x55c907bee0a8&#45;&gt;Node0x55c907bed3d8 -->
<g id="edge8" class="edge">
<title>Node0x55c907bee0a8&#45;&gt;Node0x55c907bed3d8</title>
<path fill="none" stroke="#ff7f7f" d="M392.6,-59.04C410.23,-67.08 427.06,-78.63 437,-95 463.86,-139.22 428.21,-198.3 400.14,-231.2"/>
<polygon fill="#ff7f7f" stroke="#ff7f7f" points="397.25,-229.18 393.21,-238.98 402.48,-233.84 397.25,-229.18"/>
</g>
<!-- Node0x55c907bee0a8&#45;&gt;Node0x55c907bec7f8 -->
<g id="edge6" class="edge">
<title>Node0x55c907bee0a8&#45;&gt;Node0x55c907bec7f8</title>
<path fill="none" stroke="#ff7f7f" d="M267.93,-59.04C250.77,-67.08 233.94,-78.63 224,-95 212.71,-113.59 216.47,-138.48 222.19,-157.21"/>
<polygon fill="#ff7f7f" stroke="#ff7f7f" points="218.95,-158.56 225.48,-166.9 225.58,-156.31 218.95,-158.56"/>
</g>
<!-- Node0x55c907bee0a8&#45;&gt;Node0x55c907bee4b8 -->
<g id="edge7" class="edge">
<title>Node0x55c907bee0a8&#45;&gt;Node0x55c907bee4b8</title>
<path fill="none" stroke="#ff7f7f" d="M331.9,-59.1C332.7,-66.79 332.94,-76.05 332.6,-84.67"/>
<polygon fill="#ff7f7f" stroke="#ff7f7f" points="329.11,-84.48 331.92,-94.7 336.09,-84.96 329.11,-84.48"/>
</g>
<!-- Node0x55c907bee4b8&#45;&gt;Node0x55c907bed3d8 -->
<g id="edge9" class="edge">
<title>Node0x55c907bee4b8&#45;&gt;Node0x55c907bed3d8</title>
<path fill="none" stroke="#ff7f7f" d="M340.15,-131.13C345.11,-141.48 349.95,-154.96 354,-167 360.93,-187.6 368.29,-211.05 372.42,-228.71"/>
<polygon fill="#ff7f7f" stroke="#ff7f7f" points="369.08,-229.8 374.55,-238.87 375.93,-228.37 369.08,-229.8"/>
</g>
<!-- Node0x55c907bee4b8&#45;&gt;Node0x55c907bee0a8 -->
<g id="edge10" class="edge">
<title>Node0x55c907bee4b8&#45;&gt;Node0x55c907bee0a8</title>
<path fill="none" stroke="#ff7f7f" d="M320.08,-94.7C319.29,-86.98 319.06,-77.71 319.4,-69.11"/>
<polygon fill="#ff7f7f" stroke="#ff7f7f" points="322.9,-69.32 320.1,-59.1 315.92,-68.84 322.9,-69.32"/>
</g>
</g>
</svg>
