<?xml version="1.0" encoding="UTF-8" standalone="no"?>
<!DOCTYPE svg PUBLIC "-//W3C//DTD SVG 1.1//EN"
 "http://www.w3.org/Graphics/SVG/1.1/DTD/svg11.dtd">
<!-- Generated by graphviz version 2.43.0 (0)
 -->
<!-- Title: lib/libLTO.so.13git_lib/libLLVMAsmParser.a Pages: 1 -->
<svg width="1016pt" height="90pt"
 viewBox="0.00 0.00 1016.00 90.00" xmlns="http://www.w3.org/2000/svg" xmlns:xlink="http://www.w3.org/1999/xlink">
<g id="graph0" class="graph" transform="scale(1 1) rotate(0) translate(4 86)">
<title>lib/libLTO.so.13git_lib/libLLVMAsmParser.a</title>
<polygon fill="white" stroke="transparent" points="-4,4 -4,-86 1012,-86 1012,4 -4,4"/>
<text text-anchor="middle" x="504" y="-7.8" font-family="Times,serif" font-size="14.00">lib/libLTO.so.13git_lib/libLLVMAsmParser.a</text>
<!-- Node0x55ece7a2f1e8 -->
<g id="node1" class="node">
<title>Node0x55ece7a2f1e8</title>
<polygon fill="none" stroke="black" points="302,-59 0,-59 0,-23 302,-23 302,-59"/>
<text text-anchor="middle" x="151" y="-37.3" font-family="Times,serif" font-size="14.00">{lib/libLLVMAsmParser.a(Parser.cpp.o)}</text>
</g>
<!-- Node0x55ece7a40308 -->
<g id="node2" class="node">
<title>Node0x55ece7a40308</title>
<polygon fill="none" stroke="black" points="658,-82 338,-82 338,-46 658,-46 658,-82"/>
<text text-anchor="middle" x="498" y="-60.3" font-family="Times,serif" font-size="14.00">{lib/libLLVMAsmParser.a(LLParser.cpp.o)}</text>
</g>
<!-- Node0x55ece7a2f1e8&#45;&gt;Node0x55ece7a40308 -->
<g id="edge1" class="edge">
<title>Node0x55ece7a2f1e8&#45;&gt;Node0x55ece7a40308</title>
<path fill="none" stroke="black" d="M302.07,-51C310.62,-51.57 319.25,-52.15 327.87,-52.72"/>
<polygon fill="black" stroke="black" points="327.77,-56.23 337.98,-53.4 328.23,-49.24 327.77,-56.23"/>
</g>
<!-- Node0x55ece7a2eb08 -->
<g id="node3" class="node">
<title>Node0x55ece7a2eb08</title>
<polygon fill="none" stroke="black" points="1008,-59 694,-59 694,-23 1008,-23 1008,-59"/>
<text text-anchor="middle" x="851" y="-37.3" font-family="Times,serif" font-size="14.00">{lib/libLLVMAsmParser.a(LLLexer.cpp.o)}</text>
</g>
<!-- Node0x55ece7a2f1e8&#45;&gt;Node0x55ece7a2eb08 -->
<g id="edge2" class="edge">
<title>Node0x55ece7a2f1e8&#45;&gt;Node0x55ece7a2eb08</title>
<path fill="none" stroke="black" d="M302.24,-37.49C314.34,-37.29 326.37,-37.13 338,-37 480.21,-35.47 515.79,-35.52 658,-37 666.39,-37.09 674.98,-37.2 683.66,-37.32"/>
<polygon fill="black" stroke="black" points="683.82,-40.82 693.87,-37.48 683.93,-33.82 683.82,-40.82"/>
</g>
<!-- Node0x55ece7a40308&#45;&gt;Node0x55ece7a2eb08 -->
<g id="edge3" class="edge">
<title>Node0x55ece7a40308&#45;&gt;Node0x55ece7a2eb08</title>
<path fill="none" stroke="black" d="M658.07,-53.58C666.61,-53.02 675.2,-52.45 683.76,-51.89"/>
<polygon fill="black" stroke="black" points="684.04,-55.38 693.79,-51.24 683.59,-48.4 684.04,-55.38"/>
</g>
</g>
</svg>
