<?xml version="1.0" encoding="UTF-8" standalone="no"?>
<!DOCTYPE svg PUBLIC "-//W3C//DTD SVG 1.1//EN"
 "http://www.w3.org/Graphics/SVG/1.1/DTD/svg11.dtd">
<!-- Generated by graphviz version 2.43.0 (0)
 -->
<!-- Title: bin/llvm&#45;ar Pages: 1 -->
<svg width="1231pt" height="506pt"
 viewBox="0.00 0.00 1231.00 506.34" xmlns="http://www.w3.org/2000/svg" xmlns:xlink="http://www.w3.org/1999/xlink">
<g id="graph0" class="graph" transform="scale(1 1) rotate(0) translate(4 502.34)">
<title>bin/llvm&#45;ar</title>
<polygon fill="white" stroke="transparent" points="-4,4 -4,-502.34 1227,-502.34 1227,4 -4,4"/>
<text text-anchor="middle" x="611.5" y="-7.8" font-family="Times,serif" font-size="14.00">bin/llvm&#45;ar</text>
<!-- Node0x559c0c5826d8 -->
<g id="node1" class="node">
<title>Node0x559c0c5826d8</title>
<polygon fill="none" stroke="black" points="386,-336.34 0,-336.34 0,-300.34 386,-300.34 386,-336.34"/>
<text text-anchor="middle" x="193" y="-314.64" font-family="Times,serif" font-size="14.00">{tools/llvm&#45;ar/CMakeFiles/llvm&#45;ar.dir/llvm&#45;ar.cpp.o}</text>
</g>
<!-- Node0x559c0c582728 -->
<g id="node2" class="node">
<title>Node0x559c0c582728</title>
<polygon fill="none" stroke="black" points="654,-390.34 422,-390.34 422,-354.34 654,-354.34 654,-390.34"/>
<text text-anchor="middle" x="538" y="-368.64" font-family="Times,serif" font-size="14.00">{lib/libLLVMX86AsmParser.a}</text>
</g>
<!-- Node0x559c0c5826d8&#45;&gt;Node0x559c0c582728 -->
<g id="edge1" class="edge">
<title>Node0x559c0c5826d8&#45;&gt;Node0x559c0c582728</title>
<path fill="none" stroke="black" d="M308.69,-336.4C342.01,-341.64 378.56,-347.4 412.46,-352.73"/>
<polygon fill="black" stroke="black" points="411.99,-356.2 422.42,-354.3 413.08,-349.29 411.99,-356.2"/>
</g>
<!-- Node0x559c0c582c28 -->
<g id="node3" class="node">
<title>Node0x559c0c582c28</title>
<polygon fill="none" stroke="black" points="633.5,-336.34 442.5,-336.34 442.5,-300.34 633.5,-300.34 633.5,-336.34"/>
<text text-anchor="middle" x="538" y="-314.64" font-family="Times,serif" font-size="14.00">{lib/libLLVMX86Desc.a}</text>
</g>
<!-- Node0x559c0c5826d8&#45;&gt;Node0x559c0c582c28 -->
<g id="edge2" class="edge">
<title>Node0x559c0c5826d8&#45;&gt;Node0x559c0c582c28</title>
<path fill="none" stroke="black" d="M386.06,-318.34C401.85,-318.34 417.41,-318.34 432.19,-318.34"/>
<polygon fill="black" stroke="black" points="432.29,-321.84 442.29,-318.34 432.29,-314.84 432.29,-321.84"/>
</g>
<!-- Node0x559c0c581d28 -->
<g id="node4" class="node">
<title>Node0x559c0c581d28</title>
<polygon fill="none" stroke="black" points="630,-228.34 446,-228.34 446,-192.34 630,-192.34 630,-228.34"/>
<text text-anchor="middle" x="538" y="-206.64" font-family="Times,serif" font-size="14.00">{lib/libLLVMX86Info.a}</text>
</g>
<!-- Node0x559c0c5826d8&#45;&gt;Node0x559c0c581d28 -->
<g id="edge3" class="edge">
<title>Node0x559c0c5826d8&#45;&gt;Node0x559c0c581d28</title>
<path fill="none" stroke="black" d="M240.23,-300.21C285.94,-282.7 358.12,-256.12 422,-237.34 429.47,-235.14 437.25,-233 445.1,-230.95"/>
<polygon fill="black" stroke="black" points="446.22,-234.28 455.04,-228.41 444.48,-227.5 446.22,-234.28"/>
</g>
<!-- Node0x559c0c582228 -->
<g id="node5" class="node">
<title>Node0x559c0c582228</title>
<polygon fill="#7fb2ff" stroke="black" points="651.5,-174.34 424.5,-174.34 424.5,-138.34 651.5,-138.34 651.5,-174.34"/>
<text text-anchor="middle" x="538" y="-152.64" font-family="Times,serif" font-size="14.00">{lib/libLLVMBinaryFormat.a}</text>
</g>
<!-- Node0x559c0c5826d8&#45;&gt;Node0x559c0c582228 -->
<g id="edge4" class="edge">
<title>Node0x559c0c5826d8&#45;&gt;Node0x559c0c582228</title>
<path fill="none" stroke="black" d="M218.67,-300.28C259.14,-271.46 343.05,-215.11 422,-183.34 427.17,-181.26 432.54,-179.31 438.01,-177.5"/>
<polygon fill="black" stroke="black" points="439.45,-180.72 447.94,-174.38 437.35,-174.04 439.45,-180.72"/>
</g>
<!-- Node0x559c0c583c68 -->
<g id="node6" class="node">
<title>Node0x559c0c583c68</title>
<polygon fill="#7fb2ff" stroke="black" points="619,-66.34 457,-66.34 457,-30.34 619,-30.34 619,-66.34"/>
<text text-anchor="middle" x="538" y="-44.64" font-family="Times,serif" font-size="14.00">{lib/libLLVMCore.a}</text>
</g>
<!-- Node0x559c0c5826d8&#45;&gt;Node0x559c0c583c68 -->
<g id="edge5" class="edge">
<title>Node0x559c0c5826d8&#45;&gt;Node0x559c0c583c68</title>
<path fill="none" stroke="black" d="M208.64,-300.2C250.24,-249.09 369.53,-105.65 422,-75.34 429.82,-70.82 438.36,-67.05 447.14,-63.92"/>
<polygon fill="black" stroke="black" points="448.32,-67.21 456.73,-60.76 446.13,-60.56 448.32,-67.21"/>
</g>
<!-- Node0x559c0c584168 -->
<g id="node7" class="node">
<title>Node0x559c0c584168</title>
<polygon fill="none" stroke="black" points="648,-498.34 428,-498.34 428,-462.34 648,-462.34 648,-498.34"/>
<text text-anchor="middle" x="538" y="-476.64" font-family="Times,serif" font-size="14.00">{lib/libLLVMDlltoolDriver.a}</text>
</g>
<!-- Node0x559c0c5826d8&#45;&gt;Node0x559c0c584168 -->
<g id="edge6" class="edge">
<title>Node0x559c0c5826d8&#45;&gt;Node0x559c0c584168</title>
<path fill="none" stroke="black" d="M218.67,-336.4C259.14,-365.21 343.05,-421.57 422,-453.34 427.17,-455.42 432.54,-457.36 438.01,-459.18"/>
<polygon fill="black" stroke="black" points="437.35,-462.64 447.94,-462.3 439.45,-455.96 437.35,-462.64"/>
</g>
<!-- Node0x559c0c583268 -->
<g id="node8" class="node">
<title>Node0x559c0c583268</title>
<polygon fill="none" stroke="black" points="635.5,-444.34 440.5,-444.34 440.5,-408.34 635.5,-408.34 635.5,-444.34"/>
<text text-anchor="middle" x="538" y="-422.64" font-family="Times,serif" font-size="14.00">{lib/libLLVMLibDriver.a}</text>
</g>
<!-- Node0x559c0c5826d8&#45;&gt;Node0x559c0c583268 -->
<g id="edge7" class="edge">
<title>Node0x559c0c5826d8&#45;&gt;Node0x559c0c583268</title>
<path fill="none" stroke="black" d="M240.23,-336.46C285.94,-353.98 358.12,-380.56 422,-399.34 429.47,-401.54 437.25,-403.67 445.1,-405.72"/>
<polygon fill="black" stroke="black" points="444.48,-409.18 455.04,-408.27 446.22,-402.4 444.48,-409.18"/>
</g>
<!-- Node0x559c0c583768 -->
<g id="node9" class="node">
<title>Node0x559c0c583768</title>
<polygon fill="none" stroke="black" points="625.5,-282.34 450.5,-282.34 450.5,-246.34 625.5,-246.34 625.5,-282.34"/>
<text text-anchor="middle" x="538" y="-260.64" font-family="Times,serif" font-size="14.00">{lib/libLLVMObject.a}</text>
</g>
<!-- Node0x559c0c5826d8&#45;&gt;Node0x559c0c583768 -->
<g id="edge8" class="edge">
<title>Node0x559c0c5826d8&#45;&gt;Node0x559c0c583768</title>
<path fill="none" stroke="black" d="M308.69,-300.28C351.42,-293.56 399.46,-285.99 440.4,-279.55"/>
<polygon fill="black" stroke="black" points="441.04,-282.99 450.38,-277.98 439.96,-276.07 441.04,-282.99"/>
</g>
<!-- Node0x559c0c584f28 -->
<g id="node10" class="node">
<title>Node0x559c0c584f28</title>
<polygon fill="#7fb2ff" stroke="black" points="631,-120.34 445,-120.34 445,-84.34 631,-84.34 631,-120.34"/>
<text text-anchor="middle" x="538" y="-98.64" font-family="Times,serif" font-size="14.00">{lib/libLLVMSupport.a}</text>
</g>
<!-- Node0x559c0c5826d8&#45;&gt;Node0x559c0c584f28 -->
<g id="edge9" class="edge">
<title>Node0x559c0c5826d8&#45;&gt;Node0x559c0c584f28</title>
<path fill="none" stroke="black" d="M210.03,-300.32C244.74,-262.49 331.07,-174.54 422,-129.34 426.31,-127.2 430.79,-125.22 435.38,-123.4"/>
<polygon fill="black" stroke="black" points="436.77,-126.62 444.93,-119.87 434.34,-120.05 436.77,-126.62"/>
</g>
<!-- Node0x559c0c582728&#45;&gt;Node0x559c0c582c28 -->
<g id="edge10" class="edge">
<title>Node0x559c0c582728&#45;&gt;Node0x559c0c582c28</title>
<path fill="none" stroke="black" d="M538,-354.13C538,-351.65 538,-349.17 538,-346.68"/>
<polygon fill="black" stroke="black" points="541.5,-346.48 538,-336.48 534.5,-346.48 541.5,-346.48"/>
</g>
<!-- Node0x559c0c582728&#45;&gt;Node0x559c0c581d28 -->
<g id="edge11" class="edge">
<title>Node0x559c0c582728&#45;&gt;Node0x559c0c581d28</title>
<path fill="none" stroke="black" d="M421.88,-355.02C414.82,-350.06 408.69,-343.92 404,-336.34 382.97,-302.31 382.97,-280.36 404,-246.34 411.67,-233.94 423.2,-225.38 436.34,-219.56"/>
<polygon fill="black" stroke="black" points="437.61,-222.82 445.67,-215.95 435.08,-216.29 437.61,-222.82"/>
</g>
<!-- Node0x559c0c582728&#45;&gt;Node0x559c0c584f28 -->
<g id="edge12" class="edge">
<title>Node0x559c0c582728&#45;&gt;Node0x559c0c584f28</title>
<path fill="none" stroke="black" d="M421.88,-355.02C414.82,-350.06 408.69,-343.92 404,-336.34 380.87,-298.91 380.87,-175.77 404,-138.34 411.49,-126.22 422.67,-117.78 435.44,-111.96"/>
<polygon fill="black" stroke="black" points="436.98,-115.12 444.99,-108.18 434.4,-108.61 436.98,-115.12"/>
</g>
<!-- Node0x559c0c584528 -->
<g id="node11" class="node">
<title>Node0x559c0c584528</title>
<polygon fill="none" stroke="black" points="913,-336.34 715,-336.34 715,-300.34 913,-300.34 913,-336.34"/>
<text text-anchor="middle" x="814" y="-314.64" font-family="Times,serif" font-size="14.00">{lib/libLLVMMCParser.a}</text>
</g>
<!-- Node0x559c0c582728&#45;&gt;Node0x559c0c584528 -->
<g id="edge13" class="edge">
<title>Node0x559c0c582728&#45;&gt;Node0x559c0c584528</title>
<path fill="none" stroke="black" d="M630.62,-354.28C656.55,-349.17 684.93,-343.58 711.42,-338.36"/>
<polygon fill="black" stroke="black" points="712.33,-341.75 721.47,-336.38 710.98,-334.88 712.33,-341.75"/>
</g>
<!-- Node0x559c0c584a28 -->
<g id="node12" class="node">
<title>Node0x559c0c584a28</title>
<polygon fill="none" stroke="black" points="890.5,-282.34 737.5,-282.34 737.5,-246.34 890.5,-246.34 890.5,-282.34"/>
<text text-anchor="middle" x="814" y="-260.64" font-family="Times,serif" font-size="14.00">{lib/libLLVMMC.a}</text>
</g>
<!-- Node0x559c0c582728&#45;&gt;Node0x559c0c584a28 -->
<g id="edge14" class="edge">
<title>Node0x559c0c582728&#45;&gt;Node0x559c0c584a28</title>
<path fill="none" stroke="black" d="M638.38,-354.3C643.86,-351.7 649.11,-348.73 654,-345.34 677.7,-328.89 666.18,-307.61 690,-291.34 701.26,-283.65 714.33,-278.1 727.66,-274.11"/>
<polygon fill="black" stroke="black" points="728.66,-277.47 737.4,-271.47 726.83,-270.71 728.66,-277.47"/>
</g>
<!-- Node0x559c0c582c28&#45;&gt;Node0x559c0c581d28 -->
<g id="edge17" class="edge">
<title>Node0x559c0c582c28&#45;&gt;Node0x559c0c581d28</title>
<path fill="none" stroke="black" d="M442.28,-311.53C426.7,-305.74 412.8,-296.58 404,-282.34 395.59,-268.73 395.59,-259.95 404,-246.34 411.67,-233.94 423.2,-225.38 436.34,-219.56"/>
<polygon fill="black" stroke="black" points="437.61,-222.82 445.67,-215.95 435.08,-216.29 437.61,-222.82"/>
</g>
<!-- Node0x559c0c582c28&#45;&gt;Node0x559c0c582228 -->
<g id="edge19" class="edge">
<title>Node0x559c0c582c28&#45;&gt;Node0x559c0c582228</title>
<path fill="none" stroke="black" d="M442.28,-311.53C426.7,-305.74 412.8,-296.58 404,-282.34 382.97,-248.31 382.97,-226.36 404,-192.34 407.37,-186.89 411.48,-182.19 416.15,-178.13"/>
<polygon fill="black" stroke="black" points="418.57,-180.69 424.49,-171.9 414.39,-175.08 418.57,-180.69"/>
</g>
<!-- Node0x559c0c582c28&#45;&gt;Node0x559c0c584f28 -->
<g id="edge15" class="edge">
<title>Node0x559c0c582c28&#45;&gt;Node0x559c0c584f28</title>
<path fill="none" stroke="black" d="M442.28,-311.53C426.7,-305.74 412.8,-296.58 404,-282.34 387.18,-255.12 387.18,-165.56 404,-138.34 411.49,-126.22 422.67,-117.78 435.44,-111.96"/>
<polygon fill="black" stroke="black" points="436.98,-115.12 444.99,-108.18 434.4,-108.61 436.98,-115.12"/>
</g>
<!-- Node0x559c0c582c28&#45;&gt;Node0x559c0c584a28 -->
<g id="edge16" class="edge">
<title>Node0x559c0c582c28&#45;&gt;Node0x559c0c584a28</title>
<path fill="none" stroke="black" d="M630.62,-300.28C661.92,-294.11 696.79,-287.24 727.59,-281.17"/>
<polygon fill="black" stroke="black" points="728.3,-284.6 737.43,-279.23 726.95,-277.73 728.3,-284.6"/>
</g>
<!-- Node0x559c0c585428 -->
<g id="node13" class="node">
<title>Node0x559c0c585428</title>
<polygon fill="none" stroke="black" points="938,-444.34 690,-444.34 690,-408.34 938,-408.34 938,-444.34"/>
<text text-anchor="middle" x="814" y="-422.64" font-family="Times,serif" font-size="14.00">{lib/libLLVMMCDisassembler.a}</text>
</g>
<!-- Node0x559c0c582c28&#45;&gt;Node0x559c0c585428 -->
<g id="edge18" class="edge">
<title>Node0x559c0c582c28&#45;&gt;Node0x559c0c585428</title>
<path fill="none" stroke="black" d="M633.51,-334.19C640.75,-337.27 647.68,-340.95 654,-345.34 677.7,-361.78 666.18,-383.07 690,-399.34 692.17,-400.82 694.41,-402.23 696.71,-403.56"/>
<polygon fill="black" stroke="black" points="695.33,-406.79 705.82,-408.31 698.57,-400.58 695.33,-406.79"/>
</g>
<!-- Node0x559c0c581d28&#45;&gt;Node0x559c0c584f28 -->
<g id="edge20" class="edge">
<title>Node0x559c0c581d28&#45;&gt;Node0x559c0c584f28</title>
<path fill="none" stroke="black" d="M445.67,-204.73C428.73,-199.03 413.43,-189.6 404,-174.34 395.59,-160.73 395.59,-151.95 404,-138.34 411.49,-126.22 422.67,-117.78 435.44,-111.96"/>
<polygon fill="black" stroke="black" points="436.98,-115.12 444.99,-108.18 434.4,-108.61 436.98,-115.12"/>
</g>
<!-- Node0x559c0c582228&#45;&gt;Node0x559c0c584f28 -->
<g id="edge21" class="edge">
<title>Node0x559c0c582228&#45;&gt;Node0x559c0c584f28</title>
<path fill="none" stroke="#7fb2ff" d="M538,-138.13C538,-135.65 538,-133.17 538,-130.68"/>
<polygon fill="#7fb2ff" stroke="#7fb2ff" points="541.5,-130.48 538,-120.48 534.5,-130.48 541.5,-130.48"/>
</g>
<!-- Node0x559c0c583c68&#45;&gt;Node0x559c0c582228 -->
<g id="edge23" class="edge">
<title>Node0x559c0c583c68&#45;&gt;Node0x559c0c582228</title>
<path fill="none" stroke="#7fb2ff" d="M456.77,-50.77C435.57,-55.86 415.46,-65.79 404,-84.34 395.59,-97.95 395.59,-106.73 404,-120.34 407.37,-125.79 411.48,-130.49 416.15,-134.55"/>
<polygon fill="#7fb2ff" stroke="#7fb2ff" points="414.39,-137.6 424.49,-140.78 418.57,-131.99 414.39,-137.6"/>
</g>
<!-- Node0x559c0c583c68&#45;&gt;Node0x559c0c584f28 -->
<g id="edge22" class="edge">
<title>Node0x559c0c583c68&#45;&gt;Node0x559c0c584f28</title>
<path fill="none" stroke="#7fb2ff" d="M592.21,-66.48C596.96,-69.7 599.12,-72.91 598.7,-76.13"/>
<polygon fill="#7fb2ff" stroke="#7fb2ff" points="595.82,-74.13 592.31,-84.13 601.29,-78.5 595.82,-74.13"/>
</g>
<!-- Node0x559c0c585388 -->
<g id="node14" class="node">
<title>Node0x559c0c585388</title>
<polygon fill="#7fb2ff" stroke="black" points="909.5,-74.34 718.5,-74.34 718.5,-38.34 909.5,-38.34 909.5,-74.34"/>
<text text-anchor="middle" x="814" y="-52.64" font-family="Times,serif" font-size="14.00">{lib/libLLVMRemarks.a}</text>
</g>
<!-- Node0x559c0c583c68&#45;&gt;Node0x559c0c585388 -->
<g id="edge24" class="edge">
<title>Node0x559c0c583c68&#45;&gt;Node0x559c0c585388</title>
<path fill="none" stroke="#7fb2ff" d="M619.36,-44.48C647.04,-44.72 678.48,-45.52 707.84,-46.68"/>
<polygon fill="#7fb2ff" stroke="#7fb2ff" points="708,-50.19 718.13,-47.11 708.29,-43.2 708,-50.19"/>
</g>
<!-- Node0x559c0c584168&#45;&gt;Node0x559c0c583768 -->
<g id="edge25" class="edge">
<title>Node0x559c0c584168&#45;&gt;Node0x559c0c583768</title>
<path fill="none" stroke="black" d="M427.79,-466.79C418.24,-461.28 409.95,-453.97 404,-444.34 387.18,-417.12 387.18,-327.56 404,-300.34 412.55,-286.51 425.9,-277.47 440.93,-271.65"/>
<polygon fill="black" stroke="black" points="442.12,-274.95 450.48,-268.44 439.89,-268.31 442.12,-274.95"/>
</g>
<!-- Node0x559c0c584168&#45;&gt;Node0x559c0c584f28 -->
<g id="edge26" class="edge">
<title>Node0x559c0c584168&#45;&gt;Node0x559c0c584f28</title>
<path fill="none" stroke="black" d="M427.79,-466.79C418.24,-461.28 409.95,-453.97 404,-444.34 386.13,-415.42 386.13,-167.26 404,-138.34 411.49,-126.22 422.67,-117.78 435.44,-111.96"/>
<polygon fill="black" stroke="black" points="436.98,-115.12 444.99,-108.18 434.4,-108.61 436.98,-115.12"/>
</g>
<!-- Node0x559c0c585ce8 -->
<g id="node15" class="node">
<title>Node0x559c0c585ce8</title>
<polygon fill="none" stroke="black" points="902,-498.34 726,-498.34 726,-462.34 902,-462.34 902,-498.34"/>
<text text-anchor="middle" x="814" y="-476.64" font-family="Times,serif" font-size="14.00">{lib/libLLVMOption.a}</text>
</g>
<!-- Node0x559c0c584168&#45;&gt;Node0x559c0c585ce8 -->
<g id="edge27" class="edge">
<title>Node0x559c0c584168&#45;&gt;Node0x559c0c585ce8</title>
<path fill="none" stroke="black" d="M648.08,-480.34C670.37,-480.34 693.69,-480.34 715.54,-480.34"/>
<polygon fill="black" stroke="black" points="715.8,-483.84 725.8,-480.34 715.8,-476.84 715.8,-483.84"/>
</g>
<!-- Node0x559c0c583268&#45;&gt;Node0x559c0c582228 -->
<g id="edge28" class="edge">
<title>Node0x559c0c583268&#45;&gt;Node0x559c0c582228</title>
<path fill="none" stroke="black" d="M440.27,-418.76C425.51,-412.94 412.42,-403.97 404,-390.34 380.87,-352.91 380.87,-229.77 404,-192.34 407.37,-186.89 411.48,-182.19 416.15,-178.13"/>
<polygon fill="black" stroke="black" points="418.57,-180.69 424.49,-171.9 414.39,-175.08 418.57,-180.69"/>
</g>
<!-- Node0x559c0c583268&#45;&gt;Node0x559c0c583768 -->
<g id="edge29" class="edge">
<title>Node0x559c0c583268&#45;&gt;Node0x559c0c583768</title>
<path fill="none" stroke="black" d="M440.27,-418.76C425.51,-412.94 412.42,-403.97 404,-390.34 382.97,-356.31 382.97,-334.36 404,-300.34 412.55,-286.51 425.9,-277.47 440.93,-271.65"/>
<polygon fill="black" stroke="black" points="442.12,-274.95 450.48,-268.44 439.89,-268.31 442.12,-274.95"/>
</g>
<!-- Node0x559c0c583268&#45;&gt;Node0x559c0c584f28 -->
<g id="edge30" class="edge">
<title>Node0x559c0c583268&#45;&gt;Node0x559c0c584f28</title>
<path fill="none" stroke="black" d="M440.27,-418.76C425.51,-412.94 412.42,-403.97 404,-390.34 389.28,-366.52 389.28,-162.16 404,-138.34 411.49,-126.22 422.67,-117.78 435.44,-111.96"/>
<polygon fill="black" stroke="black" points="436.98,-115.12 444.99,-108.18 434.4,-108.61 436.98,-115.12"/>
</g>
<!-- Node0x559c0c583268&#45;&gt;Node0x559c0c585ce8 -->
<g id="edge31" class="edge">
<title>Node0x559c0c583268&#45;&gt;Node0x559c0c585ce8</title>
<path fill="none" stroke="black" d="M630.62,-444.4C657.91,-449.77 687.92,-455.69 715.57,-461.14"/>
<polygon fill="black" stroke="black" points="715.16,-464.62 725.64,-463.12 716.51,-457.76 715.16,-464.62"/>
</g>
<!-- Node0x559c0c584488 -->
<g id="node16" class="node">
<title>Node0x559c0c584488</title>
<polygon fill="none" stroke="black" points="913.5,-390.34 714.5,-390.34 714.5,-354.34 913.5,-354.34 913.5,-390.34"/>
<text text-anchor="middle" x="814" y="-368.64" font-family="Times,serif" font-size="14.00">{lib/libLLVMBitReader.a}</text>
</g>
<!-- Node0x559c0c583268&#45;&gt;Node0x559c0c584488 -->
<g id="edge32" class="edge">
<title>Node0x559c0c583268&#45;&gt;Node0x559c0c584488</title>
<path fill="none" stroke="black" d="M630.62,-408.28C656.55,-403.17 684.93,-397.58 711.42,-392.36"/>
<polygon fill="black" stroke="black" points="712.33,-395.75 721.47,-390.38 710.98,-388.88 712.33,-395.75"/>
</g>
<!-- Node0x559c0c583768&#45;&gt;Node0x559c0c582228 -->
<g id="edge34" class="edge">
<title>Node0x559c0c583768&#45;&gt;Node0x559c0c582228</title>
<path fill="none" stroke="black" d="M450.48,-260.24C431.65,-254.75 414.32,-245.04 404,-228.34 395.59,-214.73 395.59,-205.95 404,-192.34 407.37,-186.89 411.48,-182.19 416.15,-178.13"/>
<polygon fill="black" stroke="black" points="418.57,-180.69 424.49,-171.9 414.39,-175.08 418.57,-180.69"/>
</g>
<!-- Node0x559c0c583768&#45;&gt;Node0x559c0c583c68 -->
<g id="edge35" class="edge">
<title>Node0x559c0c583768&#45;&gt;Node0x559c0c583c68</title>
<path fill="none" stroke="black" d="M450.48,-260.24C431.65,-254.75 414.32,-245.04 404,-228.34 387.18,-201.12 387.18,-111.56 404,-84.34 413.67,-68.69 429.49,-59.18 446.94,-53.53"/>
<polygon fill="black" stroke="black" points="448.09,-56.84 456.77,-50.77 446.2,-50.1 448.09,-56.84"/>
</g>
<!-- Node0x559c0c583768&#45;&gt;Node0x559c0c584f28 -->
<g id="edge33" class="edge">
<title>Node0x559c0c583768&#45;&gt;Node0x559c0c584f28</title>
<path fill="none" stroke="black" d="M450.48,-260.24C431.65,-254.75 414.32,-245.04 404,-228.34 382.97,-194.31 382.97,-172.36 404,-138.34 411.49,-126.22 422.67,-117.78 435.44,-111.96"/>
<polygon fill="black" stroke="black" points="436.98,-115.12 444.99,-108.18 434.4,-108.61 436.98,-115.12"/>
</g>
<!-- Node0x559c0c583768&#45;&gt;Node0x559c0c584528 -->
<g id="edge38" class="edge">
<title>Node0x559c0c583768&#45;&gt;Node0x559c0c584528</title>
<path fill="none" stroke="black" d="M625.7,-281.42C652.9,-286.79 683.19,-292.75 711.33,-298.3"/>
<polygon fill="black" stroke="black" points="710.7,-301.75 721.19,-300.24 712.06,-294.88 710.7,-301.75"/>
</g>
<!-- Node0x559c0c583768&#45;&gt;Node0x559c0c584a28 -->
<g id="edge36" class="edge">
<title>Node0x559c0c583768&#45;&gt;Node0x559c0c584a28</title>
<path fill="none" stroke="black" d="M625.7,-264.34C658.09,-264.34 694.85,-264.34 727.17,-264.34"/>
<polygon fill="black" stroke="black" points="727.49,-267.84 737.49,-264.34 727.49,-260.84 727.49,-267.84"/>
</g>
<!-- Node0x559c0c583768&#45;&gt;Node0x559c0c584488 -->
<g id="edge37" class="edge">
<title>Node0x559c0c583768&#45;&gt;Node0x559c0c584488</title>
<path fill="none" stroke="black" d="M625.6,-277.08C635.67,-280.72 645.41,-285.38 654,-291.34 677.7,-307.78 666.18,-329.07 690,-345.34 694.68,-348.54 699.68,-351.37 704.88,-353.87"/>
<polygon fill="black" stroke="black" points="703.86,-357.24 714.43,-358.02 706.65,-350.82 703.86,-357.24"/>
</g>
<!-- Node0x559c0c584f28&#45;&gt;Node0x559c0c583c68 -->
<g id="edge39" class="edge">
<title>Node0x559c0c584f28&#45;&gt;Node0x559c0c583c68</title>
<path fill="none" stroke="#7fb2ff" d="M483.69,-84.13C478.84,-80.82 476.73,-77.51 477.36,-74.2"/>
<polygon fill="#7fb2ff" stroke="#7fb2ff" points="480.08,-76.4 483.79,-66.48 474.7,-71.92 480.08,-76.4"/>
</g>
<!-- Node0x559c0c584528&#45;&gt;Node0x559c0c584f28 -->
<g id="edge40" class="edge">
<title>Node0x559c0c584528&#45;&gt;Node0x559c0c584f28</title>
<path fill="none" stroke="black" d="M714.86,-307.98C705.65,-303.86 697.12,-298.44 690,-291.34 637.78,-239.25 705.84,-181.8 654,-129.34 649.8,-125.09 645.06,-121.45 639.97,-118.35"/>
<polygon fill="black" stroke="black" points="641.56,-115.23 631.09,-113.62 638.27,-121.41 641.56,-115.23"/>
</g>
<!-- Node0x559c0c584528&#45;&gt;Node0x559c0c584a28 -->
<g id="edge41" class="edge">
<title>Node0x559c0c584528&#45;&gt;Node0x559c0c584a28</title>
<path fill="none" stroke="black" d="M814,-300.13C814,-297.65 814,-295.17 814,-292.68"/>
<polygon fill="black" stroke="black" points="817.5,-292.48 814,-282.48 810.5,-292.48 817.5,-292.48"/>
</g>
<!-- Node0x559c0c584a28&#45;&gt;Node0x559c0c582228 -->
<g id="edge43" class="edge">
<title>Node0x559c0c584a28&#45;&gt;Node0x559c0c582228</title>
<path fill="none" stroke="black" d="M782.91,-246.24C751.65,-228.1 700.84,-200.48 654,-183.34 648.12,-181.19 642.01,-179.17 635.81,-177.27"/>
<polygon fill="black" stroke="black" points="636.58,-173.85 626,-174.4 634.62,-180.57 636.58,-173.85"/>
</g>
<!-- Node0x559c0c584a28&#45;&gt;Node0x559c0c583c68 -->
<g id="edge44" class="edge">
<title>Node0x559c0c584a28&#45;&gt;Node0x559c0c583c68</title>
<path fill="none" stroke="black" d="M803.19,-246.19C781.61,-208.09 726.15,-119.68 654,-75.34 646.24,-70.57 637.7,-66.64 628.9,-63.41"/>
<polygon fill="black" stroke="black" points="629.87,-60.04 619.27,-60.16 627.63,-66.67 629.87,-60.04"/>
</g>
<!-- Node0x559c0c584a28&#45;&gt;Node0x559c0c584f28 -->
<g id="edge42" class="edge">
<title>Node0x559c0c584a28&#45;&gt;Node0x559c0c584f28</title>
<path fill="none" stroke="black" d="M796.9,-245.91C770.21,-216.58 713.81,-159.52 654,-129.34 649.71,-127.17 645.23,-125.18 640.65,-123.34"/>
<polygon fill="black" stroke="black" points="641.71,-120 631.11,-119.78 639.26,-126.55 641.71,-120"/>
</g>
<!-- Node0x559c0c585388&#45;&gt;Node0x559c0c583c68 -->
<g id="edge46" class="edge">
<title>Node0x559c0c585388&#45;&gt;Node0x559c0c583c68</title>
<path fill="none" stroke="#7fb2ff" d="M718.13,-60.03C689.46,-59.6 658.06,-58.66 629.67,-57.38"/>
<polygon fill="#7fb2ff" stroke="#7fb2ff" points="629.51,-53.87 619.36,-56.89 629.18,-60.86 629.51,-53.87"/>
</g>
<!-- Node0x559c0c585388&#45;&gt;Node0x559c0c584f28 -->
<g id="edge45" class="edge">
<title>Node0x559c0c585388&#45;&gt;Node0x559c0c584f28</title>
<path fill="none" stroke="#7fb2ff" d="M718.44,-72.21C693.45,-76.41 666.37,-80.96 641,-85.21"/>
<polygon fill="#7fb2ff" stroke="#7fb2ff" points="640.28,-81.79 631,-86.89 641.44,-88.69 640.28,-81.79"/>
</g>
<!-- Node0x559c0c57e088 -->
<g id="node17" class="node">
<title>Node0x559c0c57e088</title>
<polygon fill="#7fb2ff" stroke="black" points="1223,-74.34 974,-74.34 974,-38.34 1223,-38.34 1223,-74.34"/>
<text text-anchor="middle" x="1098.5" y="-52.64" font-family="Times,serif" font-size="14.00">{lib/libLLVMBitstreamReader.a}</text>
</g>
<!-- Node0x559c0c585388&#45;&gt;Node0x559c0c57e088 -->
<g id="edge47" class="edge">
<title>Node0x559c0c585388&#45;&gt;Node0x559c0c57e088</title>
<path fill="none" stroke="#7fb2ff" d="M909.85,-56.34C927.17,-56.34 945.52,-56.34 963.72,-56.34"/>
<polygon fill="#7fb2ff" stroke="#7fb2ff" points="963.8,-59.84 973.8,-56.34 963.8,-52.84 963.8,-59.84"/>
</g>
<!-- Node0x559c0c585ce8&#45;&gt;Node0x559c0c584f28 -->
<g id="edge48" class="edge">
<title>Node0x559c0c585ce8&#45;&gt;Node0x559c0c584f28</title>
<path fill="none" stroke="black" d="M725.95,-475.42C712.31,-470.95 699.58,-463.98 690,-453.34 593.09,-345.63 750.13,-237.75 654,-129.34 649.9,-124.72 645.18,-120.81 640.03,-117.51"/>
<polygon fill="black" stroke="black" points="641.45,-114.3 631.01,-112.52 638.06,-120.43 641.45,-114.3"/>
</g>
<!-- Node0x559c0c584488&#45;&gt;Node0x559c0c583c68 -->
<g id="edge49" class="edge">
<title>Node0x559c0c584488&#45;&gt;Node0x559c0c583c68</title>
<path fill="none" stroke="black" d="M714.23,-362.58C705.14,-358.35 696.81,-352.74 690,-345.34 608.05,-256.24 735.31,-165.03 654,-75.34 646.95,-67.57 638.13,-61.82 628.53,-57.61"/>
<polygon fill="black" stroke="black" points="629.7,-54.31 619.11,-54.01 627.21,-60.85 629.7,-54.31"/>
</g>
<!-- Node0x559c0c584488&#45;&gt;Node0x559c0c584f28 -->
<g id="edge50" class="edge">
<title>Node0x559c0c584488&#45;&gt;Node0x559c0c584f28</title>
<path fill="none" stroke="black" d="M714.47,-362.36C705.34,-358.17 696.93,-352.63 690,-345.34 622.96,-274.79 720.53,-200.37 654,-129.34 649.87,-124.93 645.16,-121.17 640.07,-117.99"/>
<polygon fill="black" stroke="black" points="641.63,-114.85 631.18,-113.14 638.28,-121 641.63,-114.85"/>
</g>
<!-- Node0x559c0c584488&#45;&gt;Node0x559c0c57e088 -->
<g id="edge51" class="edge">
<title>Node0x559c0c584488&#45;&gt;Node0x559c0c57e088</title>
<path fill="none" stroke="black" d="M913.73,-358.8C922.39,-355.25 930.64,-350.83 938,-345.34 1028.57,-277.72 1074.26,-142.76 1090.46,-84.35"/>
<polygon fill="black" stroke="black" points="1093.93,-84.94 1093.15,-74.37 1087.17,-83.12 1093.93,-84.94"/>
</g>
<!-- Node0x559c0c57e088&#45;&gt;Node0x559c0c583c68 -->
<g id="edge54" class="edge">
<title>Node0x559c0c57e088&#45;&gt;Node0x559c0c583c68</title>
<path fill="none" stroke="#7fb2ff" d="M1007.16,-38.34C984.66,-34.6 960.53,-31.23 938,-29.34 828.16,-20.11 800.01,-22.45 690,-29.34 670.26,-30.58 649.16,-32.71 629.17,-35.12"/>
<polygon fill="#7fb2ff" stroke="#7fb2ff" points="628.64,-31.66 619.15,-36.36 629.5,-38.61 628.64,-31.66"/>
</g>
<!-- Node0x559c0c57e088&#45;&gt;Node0x559c0c584f28 -->
<g id="edge55" class="edge">
<title>Node0x559c0c57e088&#45;&gt;Node0x559c0c584f28</title>
<path fill="none" stroke="#7fb2ff" d="M1002.45,-74.35C981.3,-77.82 958.94,-81.08 938,-83.34 837.5,-94.2 722.09,-98.85 641.33,-100.84"/>
<polygon fill="#7fb2ff" stroke="#7fb2ff" points="641.07,-97.35 631.16,-101.09 641.24,-104.35 641.07,-97.35"/>
</g>
<!-- Node0x559c0c586c38 -->
<g id="node18" class="node">
<title>Node0x559c0c586c38</title>
<polygon fill="none" stroke="black" points="285,-93.34 101,-93.34 101,-57.34 285,-57.34 285,-93.34"/>
<text text-anchor="middle" x="193" y="-71.64" font-family="Times,serif" font-size="14.00">{lib/libLLVMTextAPI.a}</text>
</g>
<!-- Node0x559c0c586c38&#45;&gt;Node0x559c0c583c68 -->
<g id="edge53" class="edge">
<title>Node0x559c0c586c38&#45;&gt;Node0x559c0c583c68</title>
<path fill="none" stroke="black" d="M285.02,-68.17C335.06,-64.24 396.92,-59.37 446.82,-55.44"/>
<polygon fill="black" stroke="black" points="447.27,-58.91 456.96,-54.64 446.72,-51.93 447.27,-58.91"/>
</g>
<!-- Node0x559c0c586c38&#45;&gt;Node0x559c0c584f28 -->
<g id="edge52" class="edge">
<title>Node0x559c0c586c38&#45;&gt;Node0x559c0c584f28</title>
<path fill="none" stroke="black" d="M285.02,-82.5C331.15,-86.14 387.34,-90.56 434.94,-94.3"/>
<polygon fill="black" stroke="black" points="434.72,-97.8 444.96,-95.09 435.27,-90.82 434.72,-97.8"/>
</g>
</g>
</svg>
