<?xml version="1.0" encoding="UTF-8" standalone="no"?>
<!DOCTYPE svg PUBLIC "-//W3C//DTD SVG 1.1//EN"
 "http://www.w3.org/Graphics/SVG/1.1/DTD/svg11.dtd">
<!-- Generated by graphviz version 2.43.0 (0)
 -->
<!-- Title: bin/llvm&#45;cat_lib/libLLVMMCParser.a Pages: 1 -->
<svg width="775pt" height="337pt"
 viewBox="0.00 0.00 775.00 337.00" xmlns="http://www.w3.org/2000/svg" xmlns:xlink="http://www.w3.org/1999/xlink">
<g id="graph0" class="graph" transform="scale(1 1) rotate(0) translate(4 333)">
<title>bin/llvm&#45;cat_lib/libLLVMMCParser.a</title>
<polygon fill="white" stroke="transparent" points="-4,4 -4,-333 771,-333 771,4 -4,4"/>
<text text-anchor="middle" x="383.5" y="-7.8" font-family="Times,serif" font-size="14.00">bin/llvm&#45;cat_lib/libLLVMMCParser.a</text>
<!-- Node0x559a5604a298 -->
<g id="node1" class="node">
<title>Node0x559a5604a298</title>
<polygon fill="none" stroke="black" points="353,-59 26,-59 26,-23 353,-23 353,-59"/>
<text text-anchor="middle" x="189.5" y="-37.3" font-family="Times,serif" font-size="14.00">{lib/libLLVMMCParser.a(AsmParser.cpp.o)}</text>
</g>
<!-- Node0x559a560413c8 -->
<g id="node2" class="node">
<title>Node0x559a560413c8</title>
<polygon fill="none" stroke="black" points="767,-59 415,-59 415,-23 767,-23 767,-59"/>
<text text-anchor="middle" x="591" y="-37.3" font-family="Times,serif" font-size="14.00">{lib/libLLVMMCParser.a(MCAsmParser.cpp.o)}</text>
</g>
<!-- Node0x559a5604a298&#45;&gt;Node0x559a560413c8 -->
<g id="edge1" class="edge">
<title>Node0x559a5604a298&#45;&gt;Node0x559a560413c8</title>
<path fill="none" stroke="black" d="M353.28,-41C370.24,-41 387.58,-41 404.77,-41"/>
<polygon fill="black" stroke="black" points="404.87,-44.5 414.87,-41 404.87,-37.5 404.87,-44.5"/>
</g>
<!-- Node0x559a56043da8 -->
<g id="node3" class="node">
<title>Node0x559a56043da8</title>
<polygon fill="none" stroke="black" points="350,-113 29,-113 29,-77 350,-77 350,-113"/>
<text text-anchor="middle" x="189.5" y="-91.3" font-family="Times,serif" font-size="14.00">{lib/libLLVMMCParser.a(AsmLexer.cpp.o)}</text>
</g>
<!-- Node0x559a560422c8 -->
<g id="node4" class="node">
<title>Node0x559a560422c8</title>
<polygon fill="none" stroke="black" points="379,-167 0,-167 0,-131 379,-131 379,-167"/>
<text text-anchor="middle" x="189.5" y="-145.3" font-family="Times,serif" font-size="14.00">{lib/libLLVMMCParser.a(DarwinAsmParser.cpp.o)}</text>
</g>
<!-- Node0x559a56042a48 -->
<g id="node5" class="node">
<title>Node0x559a56042a48</title>
<polygon fill="none" stroke="black" points="367,-221 12,-221 12,-185 367,-185 367,-221"/>
<text text-anchor="middle" x="189.5" y="-199.3" font-family="Times,serif" font-size="14.00">{lib/libLLVMMCParser.a(ELFAsmParser.cpp.o)}</text>
</g>
<!-- Node0x559a56041d78 -->
<g id="node6" class="node">
<title>Node0x559a56041d78</title>
<polygon fill="none" stroke="black" points="362.5,-275 16.5,-275 16.5,-239 362.5,-239 362.5,-275"/>
<text text-anchor="middle" x="189.5" y="-253.3" font-family="Times,serif" font-size="14.00">{lib/libLLVMMCParser.a(MCAsmLexer.cpp.o)}</text>
</g>
<!-- Node0x559a560491b8 -->
<g id="node7" class="node">
<title>Node0x559a560491b8</title>
<polygon fill="none" stroke="black" points="378,-329 1,-329 1,-293 378,-293 378,-329"/>
<text text-anchor="middle" x="189.5" y="-307.3" font-family="Times,serif" font-size="14.00">{lib/libLLVMMCParser.a(XCOFFAsmParser.cpp.o)}</text>
</g>
</g>
</svg>
