<?xml version="1.0" encoding="UTF-8" standalone="no"?>
<!DOCTYPE svg PUBLIC "-//W3C//DTD SVG 1.1//EN"
 "http://www.w3.org/Graphics/SVG/1.1/DTD/svg11.dtd">
<!-- Generated by graphviz version 2.43.0 (0)
 -->
<!-- Title: bin/llvm&#45;as_lib/libLLVMObject.a Pages: 1 -->
<svg width="1096pt" height="67pt"
 viewBox="0.00 0.00 1096.00 67.00" xmlns="http://www.w3.org/2000/svg" xmlns:xlink="http://www.w3.org/1999/xlink">
<g id="graph0" class="graph" transform="scale(1 1) rotate(0) translate(4 63)">
<title>bin/llvm&#45;as_lib/libLLVMObject.a</title>
<polygon fill="white" stroke="transparent" points="-4,4 -4,-63 1092,-63 1092,4 -4,4"/>
<text text-anchor="middle" x="544" y="-7.8" font-family="Times,serif" font-size="14.00">bin/llvm&#45;as_lib/libLLVMObject.a</text>
<!-- Node0x5560765d0358 -->
<g id="node1" class="node">
<title>Node0x5560765d0358</title>
<polygon fill="none" stroke="black" points="299,-59 0,-59 0,-23 299,-23 299,-59"/>
<text text-anchor="middle" x="149.5" y="-37.3" font-family="Times,serif" font-size="14.00">{lib/libLLVMObject.a(IRSymtab.cpp.o)}</text>
</g>
<!-- Node0x5560765d19d8 -->
<g id="node2" class="node">
<title>Node0x5560765d19d8</title>
<polygon fill="none" stroke="black" points="708,-59 335,-59 335,-23 708,-23 708,-59"/>
<text text-anchor="middle" x="521.5" y="-37.3" font-family="Times,serif" font-size="14.00">{lib/libLLVMObject.a(ModuleSymbolTable.cpp.o)}</text>
</g>
<!-- Node0x5560765d0358&#45;&gt;Node0x5560765d19d8 -->
<g id="edge1" class="edge">
<title>Node0x5560765d0358&#45;&gt;Node0x5560765d19d8</title>
<path fill="none" stroke="black" d="M299.13,-41C307.58,-41 316.13,-41 324.71,-41"/>
<polygon fill="black" stroke="black" points="324.8,-44.5 334.8,-41 324.8,-37.5 324.8,-44.5"/>
</g>
<!-- Node0x5560765ce468 -->
<g id="node3" class="node">
<title>Node0x5560765ce468</title>
<polygon fill="none" stroke="black" points="1088,-59 744,-59 744,-23 1088,-23 1088,-59"/>
<text text-anchor="middle" x="916" y="-37.3" font-family="Times,serif" font-size="14.00">{lib/libLLVMObject.a(RecordStreamer.cpp.o)}</text>
</g>
<!-- Node0x5560765d19d8&#45;&gt;Node0x5560765ce468 -->
<g id="edge2" class="edge">
<title>Node0x5560765d19d8&#45;&gt;Node0x5560765ce468</title>
<path fill="none" stroke="black" d="M708.12,-41C716.67,-41 725.25,-41 733.79,-41"/>
<polygon fill="black" stroke="black" points="733.8,-44.5 743.8,-41 733.8,-37.5 733.8,-44.5"/>
</g>
</g>
</svg>
